# vtk DataFile Version 3.0
this file was written using fslvtkio
ASCII
DATASET POLYDATA
POINTS 1068 float
148.946 152.939 103.336
150.077 152.601 102.98
149.878 152.636 103.389
149.255 152.716 103.74
148.154 152.698 103.647
148.652 152.375 104.109
147.661 152.096 103.999
148.436 151.811 104.318
147.712 151.391 104.214
148.404 151.143 104.4
149.657 152.614 102.75
150.77 152.672 102.444
148.727 152.71 102.958
148.054 152.116 103.316
147.786 151.421 103.699
147.988 150.778 104.026
150.501 152.6 102.222
151.34 152.678 101.996
149.704 152.415 102.47
149.046 152.053 102.731
148.518 151.391 103.117
148.568 150.782 103.401
150.716 152.315 102.003
150.057 151.907 102.314
149.538 151.435 102.665
149.189 150.801 102.975
148.923 152.402 105.704
149.577 152.796 105.545
149.247 152.761 106.01
149.039 152.215 106.163
148.622 151.792 105.984
148.872 151.535 106.228
149.279 152.658 105.098
149.851 152.82 104.723
150.036 153.03 105.121
149.325 152.011 105.143
148.972 151.654 105.498
148.899 151.212 105.761
149.473 152.409 104.335
150.119 152.711 104.326
149.332 152.049 104.627
149.116 151.439 104.825
149.349 151.131 105.125
150.181 152.777 103.735
150.714 152.528 103.179
151.034 152.577 103.522
150.669 152.799 103.918
149.809 152.582 103.934
149.287 152.016 104.118
149.133 151.54 104.315
149.233 151.008 104.278
149.349 150.864 104.603
151.135 152.606 102.775
148.55 150.51 104.261
151.732 152.861 102.166
148.835 150.273 103.726
152.227 152.783 101.721
149.32 150.411 103.213
151.406 152.261 101.723
152.174 152.36 101.505
150.944 151.943 101.827
150.553 151.475 102.126
150.343 151.165 102.395
149.99 150.702 102.683
151.839 151.864 101.583
151.321 151.542 101.729
150.978 151.283 102.013
149.437 151.294 107.332
149.887 151.997 107.027
150.576 151.306 107.183
150.298 150.7 107.453
149.684 150.465 107.287
150.141 150.239 107.462
149.978 149.972 107.127
150.381 149.957 107.253
149.298 152.109 106.806
149.685 152.931 106.374
150.25 152.55 106.517
149.167 151.291 106.793
149.175 150.625 106.869
149.595 149.903 106.807
150.129 149.552 106.943
149.284 152.748 106.343
149.837 153.247 105.906
149.123 151.848 106.55
149.286 150.937 106.385
149.604 150.135 106.335
149.962 149.463 106.488
150.287 152.876 105.384
148.98 150.867 106.101
149.476 150.091 105.986
149.871 149.464 106.136
150.618 152.687 104.711
150.724 152.336 105.043
149.252 150.671 105.49
149.543 150.109 105.575
150.07 149.252 105.722
150.827 152.288 104.304
151.337 152.321 103.882
151.333 152.354 104.299
149.512 150.389 104.902
149.877 149.78 105.078
150.166 149.442 105.309
151.65 152.39 103.046
151.789 152.504 103.417
149.205 150.447 104.413
149.855 150.16 104.359
150.175 149.698 104.569
152.136 152.535 102.566
149.298 149.915 104.078
150.101 149.938 104.06
150.521 149.871 104.193
152.617 152.527 102.033
149.573 149.933 103.495
150.037 149.711 103.789
152.846 152.404 101.471
149.977 150.292 103.015
150.308 150.153 103.249
152.887 151.904 101.252
150.882 150.616 102.535
150.837 151.038 102.261
150.572 150.274 102.897
152.437 151.706 101.183
152.086 151.369 101.32
151.591 151.146 101.628
150.838 151.881 106.626
151.493 150.961 106.93
151.288 150.647 107.283
150.717 150.23 107.572
150.925 149.787 107.214
150.279 152.614 106.075
150.716 152.159 106.279
150.593 149.266 106.806
150.494 152.642 105.646
150.474 149.144 106.594
150.487 149.091 106.273
151.14 148.82 106.345
150.953 152.38 105.307
150.54 149.016 105.948
151.162 148.753 106.028
151.409 152.42 104.657
151.469 152.012 104.892
150.762 148.859 105.703
151.427 148.719 105.588
152.049 152.391 103.81
152.231 152.701 104.211
150.498 149.275 104.906
150.575 148.924 105.225
150.949 148.719 105.438
152.455 152.615 102.955
152.505 152.137 103.393
150.843 149.131 104.506
151.34 148.874 104.562
152.935 152.337 102.564
150.82 149.846 103.822
150.907 149.422 104.151
151.181 149.115 104.221
153.279 152.19 101.903
150.739 149.747 103.58
151.417 149.535 103.653
153.442 152.017 101.47
151.312 149.844 103.322
150.867 150.118 103.173
153.574 151.766 101.21
151.312 150.9 102.091
151.484 150.456 102.207
151.468 150.211 102.603
153.301 151.489 101.009
152.793 151.197 101.113
152.312 150.915 101.383
151.903 150.742 101.775
151.673 151.196 106.54
152.137 150.637 106.685
152.063 150.367 107.109
151.657 150.109 107.259
151.582 149.464 106.82
151.007 151.935 105.911
151.337 151.792 106.168
151.981 151.303 106.202
151.356 149.078 106.657
151.025 149.073 106.529
151.794 148.911 106.282
151.107 152.233 105.615
151.708 151.682 105.631
151.951 148.702 106.024
151.745 152.005 105.176
152.126 148.654 105.606
152.209 152.08 104.508
151.94 151.764 104.82
152.221 148.561 105.315
152.811 152.232 103.757
152.618 152.051 104.187
151.457 148.777 104.942
151.905 148.643 105.08
153.134 151.902 103.009
153.149 151.936 103.352
151.705 148.67 104.566
152.146 148.641 104.673
153.479 151.818 102.582
154.271 151.635 102.287
153.891 151.5 102.738
151.45 149.013 103.908
151.687 148.819 104.133
152.087 148.518 104.231
153.67 151.799 102.216
154.562 151.7 101.909
151.822 149.053 103.503
151.972 148.783 103.658
153.948 151.699 101.766
154.747 151.604 101.607
151.537 150.034 102.959
151.87 149.602 103.157
152.29 149.138 103.168
154.108 151.638 101.354
154.831 151.512 101.209
152.33 149.905 102.276
152.024 150.173 101.998
152.114 149.813 102.671
154.001 151.451 101.036
153.858 151.199 100.987
153.511 150.964 100.986
153.026 150.686 101.25
152.549 150.506 101.623
152.813 150.043 106.958
153.015 150.439 106.57
153.731 149.832 106.499
153.339 149.655 106.529
152.352 149.742 106.838
152.74 149.437 106.435
152.548 150.777 106.306
152.691 149.152 106.359
152.184 151.436 105.749
152.654 151.075 105.968
152.191 148.933 106.488
152.51 148.768 106.077
152.132 151.696 105.25
152.851 151.467 105.27
152.75 148.485 105.779
152.502 151.763 104.645
153.218 151.497 104.423
152.688 151.477 104.849
152.87 148.416 105.316
153.151 151.516 103.947
154.046 151.245 103.667
153.732 151.224 104.044
152.704 148.168 105.06
153.624 151.593 103.402
154.531 151.513 103.032
154.654 151.228 103.293
152.728 148.303 104.713
153.931 151.578 103.003
154.654 151.437 102.534
154.996 151.579 102.697
152.65 148.236 104.323
155.12 151.435 102.163
152.794 148.403 103.873
152.299 148.554 103.797
155.53 151.61 101.731
152.589 148.653 103.303
155.557 151.4 101.448
152.836 148.739 102.827
152.36 149.43 102.798
155.595 151.28 101.072
153.032 149.812 102.15
152.636 149.912 101.8
152.727 149.467 102.375
154.884 151.323 100.863
154.377 151.01 101.032
154.147 150.798 101.017
153.676 150.537 101.268
153.182 150.127 101.488
153.649 150.176 106.248
154.013 150.494 105.731
154.324 150.151 106.052
154.159 149.791 106.395
153.745 149.478 106.203
153.739 149.108 106.232
153.278 150.722 105.968
153.201 150.798 105.613
153.76 148.863 106.078
153.024 151.125 105.407
153.06 148.728 106.188
153.36 148.739 105.686
153.187 151.219 104.79
154.166 150.875 104.502
153.79 150.967 104.874
153.733 151.056 105.133
153.568 148.638 105.244
153.917 151.101 104.356
154.59 151.17 103.895
154.896 150.898 104.151
153.511 148.274 105.004
155.079 151.156 103.519
153.502 148.258 104.67
155.343 151.299 102.882
155.455 151.278 103.202
153.413 148.267 104.293
155.593 151.33 102.404
155.958 151.391 102.517
153.349 148.312 103.945
156.015 151.276 102.033
153.425 148.317 103.569
152.961 148.433 103.475
156.294 151.43 101.612
153.184 148.713 103.116
156.342 151.32 101.176
153.437 148.394 102.625
153.044 148.945 102.468
156.209 151.085 100.994
153.242 149.803 101.752
153.497 149.615 101.97
153.435 149.126 102.075
155.419 151.019 100.953
155.058 150.815 100.87
154.753 150.534 100.932
154.401 150.041 101.068
154.062 149.799 101.311
153.771 149.658 101.577
154.708 149.99 106.29
154.99 150.21 105.86
155.274 150.064 106.3
155.143 149.629 106.616
154.654 149.603 106.22
155.121 149.312 106.256
154.374 149.251 106.184
154.901 148.977 106.132
154.491 150.476 105.464
154.795 148.803 106.015
154.054 150.69 105.331
154.705 148.683 105.817
153.96 150.701 105.221
154.741 150.636 104.896
154.478 150.499 105.123
153.945 148.693 105.825
154.133 148.48 105.42
155.036 151.04 104.432
154.626 150.989 104.816
154.17 148.309 105.041
155.644 150.952 103.768
155.652 150.86 104.094
154.176 148.051 104.713
156.043 151.095 103.398
154.172 148.16 104.29
156.137 151.316 102.808
156.054 151.263 103.074
154.113 148.316 103.894
156.703 151.368 102.177
156.636 151.535 102.466
153.887 148.292 103.637
156.991 151.126 101.807
154.07 148.324 103.388
153.76 148.428 103.187
157.032 151.109 101.403
153.863 148.466 102.836
156.951 151.066 101.022
154.053 148.407 102.454
153.651 148.681 102.315
156.636 150.82 100.921
154.129 148.662 101.889
154.038 149.229 101.761
156.087 150.79 100.683
155.871 150.508 100.559
155.469 150.11 100.661
155.125 149.724 100.812
154.831 149.418 101.106
154.423 149.262 101.431
155.549 150.187 106.739
155.873 150.152 106.117
156.381 150.421 106.536
156.255 149.961 106.672
155.752 149.534 106.644
156.334 149.527 106.497
155.527 150.32 105.72
155.608 149.184 106.214
155.774 148.816 105.963
155.315 150.505 105.396
156.084 150.439 105.149
155.864 150.355 105.489
155.758 148.383 105.879
155.096 150.528 105.06
155.765 150.648 104.869
155.408 148.433 105.615
155.455 150.772 104.668
156.299 150.761 104.486
156.066 150.524 104.688
154.663 148.438 105.59
154.86 148.224 105.141
155.895 151.117 104.349
156.479 151.165 103.839
156.583 151.095 104.207
154.85 148.183 104.722
156.709 151.145 103.4
154.844 148.037 104.349
156.551 151.296 103.003
157.288 151.364 102.733
157.152 151.337 102.983
154.814 148.022 103.962
156.965 151.349 102.601
157.482 151.475 102.167
157.793 151.35 102.372
154.675 148.077 103.698
155.292 147.929 103.548
154.927 147.919 103.332
157.782 151.416 101.784
154.399 148.215 103.491
154.624 148.233 103.087
157.826 151.231 101.348
154.519 148.265 102.826
157.755 150.948 101.045
154.57 148.371 102.583
157.483 150.788 100.815
154.543 148.359 102.283
154.285 148.519 102.148
156.938 150.622 100.714
156.501 150.544 100.701
156.91 150.318 100.609
154.484 148.808 101.914
154.683 148.906 101.59
156.407 150.289 100.487
156.162 149.74 100.532
155.779 149.38 100.75
155.552 149.271 100.962
155.123 149.121 101.266
156.433 150.257 106.037
156.956 150.183 105.743
157.019 150.228 106.055
156.883 150.438 106.662
156.722 149.951 106.685
157.051 149.211 106.529
156.291 150.159 105.616
157.091 150.097 105.38
156.325 149.038 106.227
156.542 148.575 105.822
156.846 150.225 105.045
157.426 150.745 104.8
157.386 150.115 105.104
156.528 148.167 105.566
156.633 150.547 104.754
157.426 150.738 104.487
155.963 148.23 105.383
155.333 148.517 105.207
155.804 148.391 104.956
157.009 150.677 104.346
157.362 151.104 103.901
157.671 150.935 104.159
155.535 148.305 104.704
157.434 151.352 103.491
155.451 148.047 104.398
157.548 151.306 103.118
155.501 147.974 104.054
158.064 151.668 102.632
157.827 151.381 102.92
155.641 147.913 103.721
158.296 151.245 101.96
158.49 151.49 102.202
155.907 147.904 103.28
155.383 148.039 103.077
158.442 151.16 101.471
155.32 148.009 102.772
158.422 150.872 101.09
155.289 148.088 102.444
158.221 150.592 100.8
154.926 148.317 102.214
155.419 148.249 102.264
155.562 148.232 102.051
157.81 150.436 100.74
157.239 150.491 100.734
157.514 150.196 100.704
154.983 148.469 101.918
155.778 148.359 101.794
155.608 148.558 101.632
157.441 149.782 100.472
155.621 148.986 101.325
156.128 148.853 101.269
156.042 149.092 101.089
155.211 148.822 101.639
156.007 148.666 101.418
156.829 149.922 100.542
156.661 149.575 100.575
156.312 149.214 100.808
157.023 150.274 107.09
157.294 150.771 106.651
157.607 150.762 106.766
157.614 150.045 107.03
157.206 149.694 106.91
157.829 149.438 106.575
157.679 150.326 105.559
157.529 150.517 106.056
157.747 148.958 106.237
157.726 150.481 105.106
158.509 150.62 104.981
158.11 150.432 105.32
156.977 148.81 106.165
157.194 148.403 105.686
158.148 150.932 104.743
158.815 151.086 104.258
159.027 150.827 104.614
157.329 148.089 105.178
158.081 151.139 104.367
158.406 151.224 103.901
156.524 148.007 105.165
156.375 147.876 104.801
158.191 151.521 103.561
156.133 148.127 104.413
158.355 151.785 103.188
159.299 151.699 102.699
158.957 151.568 103.078
156.174 147.982 104.144
158.33 151.663 102.861
159.281 151.618 102.428
156.258 147.831 103.808
158.803 151.588 102.412
159.116 151.266 101.921
159.449 151.411 102.125
156.251 147.71 103.458
159.144 151.094 101.532
156.423 147.722 103.098
156.003 148.064 102.897
159.083 150.839 101.136
156.071 147.847 102.542
159.075 150.546 100.761
155.896 148.133 102.243
156.58 147.587 102.246
156.598 147.92 101.964
158.738 150.266 100.605
156.943 148.32 101.388
157.644 148.428 101.227
157.308 148.559 101.136
156.678 148.144 101.667
157.299 148.282 101.427
156.214 148.168 101.913
157.16 148.031 101.712
158.298 150.055 100.614
158.063 149.764 100.485
156.635 148.505 101.195
157.329 148.673 100.924
156.366 148.266 101.531
157.767 149.535 100.45
157.266 149.463 100.543
157.031 149.114 100.661
157.756 149.159 100.537
156.741 148.901 100.957
157.524 148.897 100.638
158.87 150.723 106.316
159.332 150.626 105.92
159.417 151.03 106.537
158.899 150.731 106.864
158.282 150.622 106.587
158.636 150.297 106.793
158.268 149.917 106.763
158.619 149.768 106.579
158.158 150.737 105.95
159.078 150.499 105.595
158.551 149.276 106.312
158.51 150.376 105.404
159.343 150.612 105.045
159.514 150.698 105.209
158.413 148.698 105.999
159.107 150.705 104.868
159.766 151.161 104.315
159.629 150.886 104.732
157.671 148.541 105.907
157.868 148.195 105.49
159.415 151.25 104.023
157.921 148.016 105.052
159.26 151.442 103.661
160.085 151.603 103.098
160.052 151.474 103.513
157.104 148.027 104.848
157.852 147.863 104.691
159.149 151.46 103.368
159.965 151.532 102.681
157.098 147.859 104.588
156.865 147.902 104.264
160.253 151.53 102.177
156.949 147.877 103.846
159.865 151.543 102.056
159.913 151.325 101.789
160.455 151.248 101.877
156.817 147.807 103.536
159.783 150.999 101.586
156.719 147.686 103.261
157.209 147.645 103.268
156.937 147.609 102.923
159.693 150.74 101.304
156.685 147.743 102.7
159.427 150.44 101.054
156.719 147.651 102.469
159.571 150.14 100.587
159.237 150.101 100.467
159.4 149.638 100.505
157.081 147.592 102.005
157.323 147.6 102.131
157.614 147.58 101.823
157.153 147.608 102.346
158.875 149.967 100.499
159.036 149.623 100.433
158.253 148.362 101.135
157.91 148.339 100.908
157.875 147.954 101.42
158.218 149.295 100.441
158.601 149.492 100.454
158.136 148.938 100.551
158.635 148.995 100.46
157.917 148.617 100.756
158.391 148.617 100.674
160.357 150.814 105.816
160.763 151.295 105.7
160.679 151.14 106.24
160.229 150.96 106.36
159.847 150.671 106.018
159.575 150.964 106.925
159.396 150.393 106.978
159.097 150.017 106.833
159.239 149.455 106.493
160.229 151.137 105.262
160.669 151.236 105.103
159.872 150.777 105.447
159.22 149.012 106.14
160.033 151.087 104.626
160.636 151.59 104.588
159.233 148.486 105.95
160.394 151.393 104.156
161.135 151.513 103.644
160.931 151.477 104.152
158.29 148.341 105.677
158.932 148.312 105.65
160.362 151.286 103.767
160.902 151.491 103.21
158.489 148.076 105.362
158.467 147.904 104.976
160.865 151.588 102.686
158.484 147.892 104.488
160.888 151.296 102.301
157.625 147.751 104.342
158.29 147.783 104.149
161.134 151.16 101.813
157.637 147.781 103.974
158.362 147.708 103.734
160.434 151.071 101.521
160.966 150.966 101.543
157.946 147.672 103.571
158.513 147.585 103.392
158.298 147.542 103.174
157.432 147.664 103.601
160.401 150.658 101.285
157.75 147.454 103.101
158.386 147.582 102.837
160.233 150.403 100.997
157.669 147.433 102.684
158.274 147.435 102.518
159.935 150.101 100.957
157.78 147.645 102.333
158.288 147.487 102.266
158.333 147.694 102.059
157.201 147.476 102.546
159.833 149.874 100.731
159.486 149.058 100.437
159.817 149.456 100.546
159.78 148.822 100.599
158.061 147.65 101.88
158.621 147.73 101.724
158.324 147.835 101.499
159.032 149.091 100.434
159.457 148.492 100.653
158.926 148.686 100.65
158.416 148.625 100.931
159.069 148.181 100.911
158.644 147.99 101.21
160.423 150.726 107.382
160.994 150.799 107.136
161.095 150.765 107.537
160.576 150.666 107.95
160.089 150.26 107.52
160.678 150.109 107.498
160.431 149.896 107.106
160.923 149.934 107.14
160.738 150.913 106.748
161.353 151.071 106.204
161.374 150.906 106.729
160.111 150.909 106.979
159.823 150.509 107.236
160.016 149.969 106.987
160.566 149.671 106.818
161.256 151.308 105.498
159.739 149.717 106.68
159.835 149.163 106.29
161.22 151.513 104.88
159.806 148.625 106.063
161.138 151.559 104.44
161.562 151.45 103.907
161.579 151.542 104.413
159.647 148.397 105.572
161.642 151.389 103.346
159.54 148.116 105.24
161.617 151.542 102.837
158.949 148.078 105.136
159.038 147.908 104.642
161.702 151.325 102.349
158.972 147.812 104.206
161.499 150.84 102.176
158.97 147.674 103.85
161.629 150.642 101.863
158.869 147.62 103.544
160.997 150.642 101.322
161.485 150.633 101.521
158.987 147.66 103.318
159.007 147.681 103.034
160.981 150.23 100.956
161.418 150.185 101.113
158.948 147.689 102.592
160.741 149.909 100.732
161.199 149.632 100.83
158.81 147.532 102.242
159.33 147.547 102.328
159.418 147.439 102
160.145 149.685 100.953
160.753 149.341 100.805
159.427 147.886 101.533
160.057 147.778 101.412
159.807 148.146 101.253
158.984 147.763 101.874
159.833 147.469 101.734
160.038 149.451 100.82
159.687 148.38 100.865
160.071 148.842 100.765
159.493 147.848 101.105
160.047 148.445 101.012
159.009 147.823 101.467
162.732 152.299 111.816
162.994 152.858 111.815
162.692 153.077 112.352
162.735 152.402 112.205
162.884 151.861 111.88
163.097 152.03 112.101
162.659 152.269 111.483
162.8 152.445 111.282
162.793 151.822 111.49
163.28 151.509 111.614
162.873 151.867 111.109
163.205 151.583 111.043
161.811 150.815 107.563
162.077 151.222 106.998
162.242 151.074 107.567
161.949 150.835 108.016
161.198 150.869 107.916
161.285 150.69 108.411
160.767 150.425 108.319
161.635 150.088 107.949
161.626 150.834 107.135
161.932 151.173 106.47
161.139 149.995 107.581
161.146 149.528 107.105
161.705 151.266 105.849
161.164 149.015 106.694
161.749 151.496 105.326
162.243 151.422 104.775
162.153 151.425 105.343
160.349 149.262 106.483
160.53 148.757 106.068
161.766 151.474 104.821
162.102 151.446 104.145
160.217 148.433 105.782
162.127 151.169 103.568
160.234 148.332 105.355
162.201 151.246 102.982
160.441 148.309 104.918
162.262 151.15 102.549
159.508 147.953 104.836
160.108 148.099 104.669
162.314 150.725 102.262
159.587 147.928 104.377
160.081 147.881 104.194
162.143 150.32 102.092
159.534 147.74 103.946
159.932 147.785 103.648
162.083 150.235 101.627
159.334 147.759 103.446
159.824 147.885 103.341
161.787 150.103 101.328
159.598 147.814 102.982
160.227 147.958 103.063
160.324 147.784 102.74
161.564 149.728 101.118
160.497 148.072 102.08
161.218 148.028 101.994
160.911 148.215 101.807
160.068 147.877 102.5
160.932 147.75 102.37
159.485 147.606 102.594
161.405 149.198 101.033
161.218 148.721 100.754
161.064 148.219 101.037
161.392 148.684 101.137
160.683 148.042 101.519
161.194 148.232 101.409
160.339 147.795 101.645
159.966 147.747 102.11
160.401 149.094 100.847
160.547 148.557 100.898
160.475 148.044 101.153
163.357 153.994 112.443
163.76 153.964 111.625
164.483 153.89 111.991
163.954 153.371 112.802
163.044 153.201 112.947
163.759 152.551 112.817
162.973 153.711 111.987
163.78 153.129 111.494
163.094 152.414 112.547
163.517 151.873 111.976
163.235 152.801 111.233
163.912 152.789 110.816
163.707 151.335 111.469
163.633 152.197 110.539
164.256 152.112 110.208
163.017 152.168 110.754
163.144 151.459 110.613
163.616 151.084 110.77
163.808 151.669 110.019
164.365 151.632 109.67
162.968 151.864 110.238
162.469 151.499 110.413
163.143 150.874 110.349
162.6 150.845 110.341
163.088 150.35 110.169
163.71 151.665 109.459
164.246 151.676 108.97
163.018 151.54 109.719
162.28 151.348 109.968
162.312 150.801 110.006
162.737 150.307 109.949
163.63 151.436 109.031
162.982 151.348 109.172
163.403 151.084 108.693
162.155 151.17 109.469
162.057 150.571 109.637
162.567 150.21 109.527
162.843 151.066 108.578
163.308 151.055 108.082
162.255 151.034 108.931
161.732 150.543 109.237
162.258 149.986 109.169
162.947 151.165 107.791
162.449 151.042 108.115
162.747 151.156 107.206
161.839 150.906 108.602
162.078 149.853 108.8
161.848 150.39 108.474
162.19 149.661 108.233
162.405 151.107 106.74
162.056 149.436 107.773
162.364 151.172 106.315
162.645 151.292 105.74
162.992 151.225 106.096
161.59 149.548 107.476
161.77 149.022 107.048
162.195 151.254 105.835
162.632 151.321 105.12
161.865 148.884 106.575
162.547 151.242 104.404
160.966 148.825 106.324
161.71 148.752 106.124
162.586 151.267 103.756
161.098 148.62 105.96
160.834 148.54 105.549
162.569 151.014 103.246
160.93 148.423 105.177
162.691 150.76 102.825
161.076 148.268 104.832
161.514 148.37 104.978
161.667 148.362 104.592
162.74 150.399 102.527
160.938 148.184 104.484
161.391 148.235 104.109
162.841 150.002 102.227
160.614 148.058 104.205
161.251 148.208 103.765
162.618 149.848 101.919
160.874 148.02 103.648
161.603 148.174 103.413
161.548 148.03 103.135
160.341 147.954 103.804
162.406 149.721 101.508
161.055 147.971 103.1
161.548 147.95 102.737
160.495 147.989 103.374
162.069 149.619 101.296
160.777 147.927 102.856
161.315 147.924 102.511
162.042 149.267 101.196
161.79 149.075 101.195
161.663 148.515 101.432
162.059 148.676 101.364
161.393 148.233 101.688
161.862 148.262 101.766
161.59 148.01 102.162
164.423 153.447 111.409
165.141 153.401 111.641
164.684 152.88 112.383
164.356 152.218 112.237
164.614 152.81 110.824
163.672 152.177 112.318
164.061 151.639 111.67
164.59 152.395 110.38
164.071 151.153 110.987
164.791 151.925 109.843
164.022 150.7 110.431
164.813 151.492 109.329
163.523 150.54 110.199
163.414 150.13 109.793
164.861 151.395 108.793
163.237 150.04 109.383
164.042 151.282 108.709
164.598 151.315 108.453
163.146 149.895 108.897
164.044 151.086 108.359
163.911 150.956 107.886
162.991 149.695 108.476
163.396 151.001 107.393
163.431 150.836 106.849
162.681 149.547 108.193
162.646 149.264 107.736
163.192 150.847 106.48
162.613 149.09 107.388
163.07 151.266 105.397
163.36 150.91 105.833
162.119 149.164 107.256
162.366 148.919 106.763
162.949 151.273 104.697
162.403 148.73 106.246
163.008 151.186 104.01
162.409 148.53 105.832
163.043 151.002 103.494
161.592 148.555 105.692
162.16 148.507 105.456
163.113 150.686 103.097
161.557 148.523 105.325
162.144 148.489 104.911
163.139 150.123 102.946
162.152 148.385 104.392
163.08 149.865 102.712
161.998 148.371 103.935
162.642 148.337 103.964
162.582 148.436 103.613
163.208 149.647 102.403
163.037 149.409 102.202
163.168 148.712 102.473
163.415 149.164 102.55
162.88 148.412 102.926
163.406 148.644 102.848
162.393 148.329 103.42
162.991 148.491 103.285
161.865 148.172 103.655
162.745 149.343 101.834
162.844 148.853 102.156
162.664 148.484 102.54
162.309 148.166 103.013
162.602 149.125 101.442
162.615 148.737 101.88
162.529 148.326 102.216
162.138 148.201 102.702
162.246 149.059 101.317
162.501 148.476 101.531
162.272 148.274 101.958
161.939 148.087 102.373
164.92 152.856 111.187
165.007 152.394 111.735
165.25 152.505 110.551
164.765 152.024 111.2
164.512 151.916 111.627
165.359 152.298 109.958
165.444 151.788 110.319
165.039 151.562 110.83
164.579 151.305 111.22
164.475 150.84 110.759
165.286 151.641 109.466
164.494 150.494 110.123
165.316 151.201 108.919
163.959 150.3 109.896
163.886 150.076 109.319
165.144 151.013 108.395
163.797 149.895 108.774
165.102 151.032 107.99
163.749 149.639 108.242
164.505 150.964 108.001
164.64 150.759 107.587
163.663 149.439 107.732
164.089 150.765 107.412
163.947 150.155 106.677
164.109 150.398 107.067
163.806 149.394 107.125
164.354 149.666 107.121
163.15 149.364 107.479
163.69 150.53 106.2
164.044 149.542 106.393
163.306 149.181 106.983
163.309 151.058 105.129
163.407 150.6 105.541
163.838 150.304 105.829
163.928 149.467 105.969
163.857 149.1 105.749
163.416 149.12 106.43
162.835 149.018 106.874
163.27 151.056 104.432
163.392 148.756 105.942
163.799 148.993 105.361
162.871 148.866 106.355
163.281 150.816 103.989
163.36 148.845 105.289
163.899 148.917 104.89
162.935 148.708 105.835
163.34 150.496 103.611
163.358 148.641 104.804
163.79 148.765 104.429
162.903 148.557 105.336
163.423 150.216 103.256
163.269 148.632 104.308
163.667 148.822 104.023
162.789 148.574 104.839
163.552 149.862 103.2
163.658 149.555 103.009
163.838 148.976 103.257
163.91 149.433 103.3
163.674 148.546 103.61
163.948 149.021 103.581
163.304 148.462 103.955
162.814 148.286 104.345
163.416 149.46 102.705
163.516 149.09 102.939
163.464 148.622 103.282
163.133 148.496 103.632
165.563 151.454 109.64
165.445 151.203 109.956
165.012 151.093 110.434
165.409 150.962 109.206
165.325 150.763 109.419
165.046 150.553 109.881
165.247 150.617 108.651
165.079 150.444 108.911
164.909 150.201 109.235
164.48 150.253 109.537
165.253 150.48 108.09
165.049 150.235 108.304
164.823 150.046 108.591
164.359 150.001 108.961
165.122 150.576 107.664
164.906 150.146 107.778
164.936 149.725 107.952
164.438 149.512 108.43
164.696 150.25 107.394
164.871 149.779 107.275
164.427 149.538 107.716
163.532 150.694 104.837
163.732 150.277 105.18
164.061 149.786 105.502
163.522 150.477 104.455
164.191 150.125 104.572
164.237 149.502 105.087
163.57 150.227 104.073
164.217 149.885 104.249
164.316 149.272 104.71
163.605 150.036 103.749
164.081 149.658 103.988
164.259 149.124 104.331
163.776 149.844 103.428
163.868 149.576 103.747
164.027 149.084 104.041
POLYGONS 2132  8528
3 0 1 2
3 0 3 4
3 2 3 0
3 4 5 6
3 3 5 4
3 6 7 8
3 5 7 6
3 7 9 8
3 10 1 0
3 11 1 10
3 4 12 0
3 12 10 0
3 6 13 4
3 13 12 4
3 8 14 6
3 14 13 6
3 15 8 9
3 14 8 15
3 16 11 10
3 17 11 16
3 12 18 10
3 18 16 10
3 13 19 12
3 19 18 12
3 14 20 13
3 20 19 13
3 21 14 15
3 20 14 21
3 16 22 17
3 18 22 16
3 23 22 18
3 19 23 18
3 24 23 19
3 20 24 19
3 25 24 20
3 21 25 20
3 26 27 28
3 26 29 30
3 28 29 26
3 29 31 30
3 32 33 34
3 27 32 34
3 27 26 32
3 26 35 32
3 30 36 26
3 36 35 26
3 37 30 31
3 36 30 37
3 38 33 32
3 39 33 38
3 35 40 32
3 40 38 32
3 36 41 35
3 41 40 35
3 42 36 37
3 41 36 42
3 43 44 45
3 43 46 47
3 45 46 43
3 39 47 46
3 39 38 47
3 38 48 47
3 40 49 38
3 49 48 38
3 50 41 51
3 50 49 41
3 49 40 41
3 42 51 41
3 2 44 43
3 2 1 44
3 1 52 44
3 3 2 43
3 47 3 43
3 5 3 47
3 48 5 47
3 7 5 48
3 49 7 48
3 49 9 7
3 49 50 9
3 50 53 9
3 1 11 52
3 52 11 54
3 9 53 15
3 53 55 15
3 11 17 54
3 54 17 56
3 15 55 21
3 55 57 21
3 58 17 22
3 58 59 17
3 59 56 17
3 22 23 60
3 58 22 60
3 23 24 61
3 60 23 61
3 62 61 24
3 62 24 63
3 63 24 25
3 57 25 21
3 63 25 57
3 58 64 59
3 60 64 58
3 65 64 60
3 61 65 60
3 66 65 61
3 62 66 61
3 67 68 69
3 67 70 71
3 69 70 67
3 71 72 73
3 70 72 71
3 72 74 73
3 75 76 77
3 68 75 77
3 68 67 75
3 67 78 75
3 71 79 67
3 79 78 67
3 73 80 71
3 80 79 71
3 81 73 74
3 80 73 81
3 82 76 75
3 83 76 82
3 78 84 75
3 84 82 75
3 79 85 78
3 85 84 78
3 80 86 79
3 86 85 79
3 87 80 81
3 86 80 87
3 28 83 82
3 28 27 83
3 27 88 83
3 29 28 82
3 84 29 82
3 31 29 84
3 31 84 89
3 89 84 85
3 86 90 85
3 90 89 85
3 91 86 87
3 90 86 91
3 34 92 93
3 33 92 34
3 88 27 34
3 93 88 34
3 89 94 37
3 31 89 37
3 90 95 89
3 95 94 89
3 96 90 91
3 95 90 96
3 97 98 99
3 97 99 92
3 97 92 39
3 39 92 33
3 94 100 42
3 37 94 42
3 101 95 102
3 101 100 95
3 100 94 95
3 96 102 95
3 45 103 104
3 44 103 45
3 98 97 46
3 98 46 104
3 104 46 45
3 39 46 97
3 51 105 50
3 51 42 100
3 51 100 105
3 105 100 106
3 107 100 101
3 106 100 107
3 44 52 103
3 103 52 108
3 105 109 53
3 50 105 53
3 110 106 111
3 110 109 106
3 109 105 106
3 107 111 106
3 52 54 108
3 108 54 112
3 109 113 55
3 53 109 55
3 114 109 110
3 113 109 114
3 54 56 112
3 112 56 115
3 113 116 57
3 55 113 57
3 117 113 114
3 116 113 117
3 56 59 115
3 115 59 118
3 63 119 120
3 62 63 120
3 116 63 57
3 116 121 63
3 121 119 63
3 117 121 116
3 59 122 118
3 64 122 59
3 65 123 64
3 64 123 122
3 66 124 65
3 65 124 123
3 120 66 62
3 124 66 120
3 69 125 126
3 68 125 69
3 70 69 127
3 69 126 127
3 72 70 128
3 70 127 128
3 128 74 72
3 129 74 128
3 77 130 131
3 76 130 77
3 125 68 77
3 131 125 77
3 74 129 81
3 129 132 81
3 76 83 130
3 130 83 133
3 134 135 87
3 134 87 132
3 132 87 81
3 134 136 135
3 83 88 133
3 133 88 137
3 135 138 91
3 87 135 91
3 139 135 136
3 138 135 139
3 93 140 141
3 92 140 93
3 137 88 93
3 141 137 93
3 138 142 96
3 91 138 96
3 143 138 139
3 142 138 143
3 99 144 145
3 98 144 99
3 140 92 99
3 145 140 99
3 102 146 101
3 102 147 146
3 96 147 102
3 96 148 147
3 96 142 148
3 143 148 142
3 104 149 150
3 103 149 104
3 144 98 104
3 150 144 104
3 146 151 107
3 101 146 107
3 152 146 147
3 151 146 152
3 103 108 149
3 149 108 153
3 111 154 110
3 111 155 154
3 107 155 111
3 107 156 155
3 107 151 156
3 152 156 151
3 108 112 153
3 153 112 157
3 154 158 114
3 110 154 114
3 159 154 155
3 158 154 159
3 112 115 157
3 157 115 160
3 158 161 162
3 158 162 114
3 114 162 117
3 159 161 158
3 115 118 160
3 160 118 163
3 119 164 120
3 165 164 119
3 165 119 166
3 166 119 121
3 162 121 117
3 166 121 162
3 118 167 163
3 122 167 118
3 123 168 122
3 122 168 167
3 124 169 123
3 123 169 168
3 164 124 120
3 164 170 124
3 170 169 124
3 165 170 164
3 126 125 171
3 172 126 171
3 172 173 126
3 173 127 126
3 128 127 174
3 127 173 174
3 174 129 128
3 175 129 174
3 131 130 176
3 131 176 177
3 125 131 177
3 125 177 178
3 125 178 171
3 172 171 178
3 179 180 132
3 179 132 175
3 175 132 129
3 179 181 180
3 176 182 183
3 176 130 182
3 130 133 182
3 177 176 183
3 132 180 134
3 180 136 134
3 180 181 136
3 181 184 136
3 133 137 182
3 182 137 185
3 136 184 139
3 184 186 139
3 141 187 188
3 140 187 141
3 185 137 141
3 188 185 141
3 139 186 143
3 186 189 143
3 145 190 191
3 144 190 145
3 187 140 145
3 191 187 145
3 148 192 147
3 148 193 192
3 148 143 193
3 143 189 193
3 150 194 195
3 149 194 150
3 190 144 150
3 195 190 150
3 192 196 152
3 147 192 152
3 197 192 193
3 196 192 197
3 198 199 200
3 198 200 194
3 198 194 153
3 153 194 149
3 156 201 155
3 156 202 201
3 152 202 156
3 152 203 202
3 152 196 203
3 197 203 196
3 204 199 198
3 205 199 204
3 153 157 204
3 198 153 204
3 201 206 159
3 155 201 159
3 207 201 202
3 206 201 207
3 208 205 204
3 209 205 208
3 157 160 208
3 204 157 208
3 161 210 162
3 161 211 210
3 159 211 161
3 159 212 211
3 159 206 212
3 207 212 206
3 213 209 208
3 214 209 213
3 160 163 213
3 208 160 213
3 166 215 216
3 165 166 216
3 210 166 162
3 210 217 166
3 217 215 166
3 211 217 210
3 213 218 214
3 163 218 213
3 163 167 218
3 167 219 218
3 168 220 167
3 167 220 219
3 169 221 168
3 168 221 220
3 170 222 169
3 169 222 221
3 216 170 165
3 222 170 216
3 223 224 225
3 223 226 227
3 225 226 223
3 226 228 227
3 173 224 223
3 173 172 224
3 172 229 224
3 174 173 223
3 227 174 223
3 227 175 174
3 227 228 175
3 228 230 175
3 178 231 232
3 177 231 178
3 229 172 178
3 232 229 178
3 175 230 233
3 179 175 233
3 233 181 179
3 234 181 233
3 183 235 236
3 182 235 183
3 231 177 183
3 236 231 183
3 181 234 184
3 234 237 184
3 238 239 240
3 238 240 235
3 238 235 185
3 185 235 182
3 184 237 186
3 237 241 186
3 242 243 244
3 239 242 244
3 238 242 239
3 238 187 242
3 238 188 187
3 185 188 238
3 186 241 189
3 241 245 189
3 246 247 248
3 243 246 248
3 242 246 243
3 242 190 246
3 242 191 190
3 187 191 242
3 189 245 193
3 245 249 193
3 250 251 252
3 247 250 252
3 246 250 247
3 246 194 250
3 246 195 194
3 190 195 246
3 193 249 197
3 249 253 197
3 200 251 250
3 200 199 251
3 199 254 251
3 194 200 250
3 203 255 256
3 202 203 256
3 253 203 197
3 255 203 253
3 199 205 254
3 254 205 257
3 202 256 207
3 256 258 207
3 205 209 257
3 257 209 259
3 212 260 261
3 211 212 261
3 258 212 207
3 260 212 258
3 209 214 259
3 259 214 262
3 215 263 264
3 216 215 264
3 217 265 215
3 215 265 263
3 261 217 211
3 265 217 261
3 214 266 262
3 218 266 214
3 219 267 218
3 218 267 266
3 220 268 219
3 219 268 267
3 221 269 220
3 220 269 268
3 222 270 221
3 221 270 269
3 264 222 216
3 270 222 264
3 271 272 273
3 271 225 224
3 271 273 225
3 273 274 225
3 226 225 275
3 225 274 275
3 275 228 226
3 276 228 275
3 277 272 271
3 278 272 277
3 224 229 277
3 271 224 277
3 228 276 230
3 276 279 230
3 232 278 277
3 232 231 278
3 231 280 278
3 229 232 277
3 230 279 281
3 233 230 281
3 281 234 233
3 282 234 281
3 283 284 285
3 283 236 235
3 283 285 236
3 285 286 236
3 280 231 236
3 286 280 236
3 234 282 237
3 282 287 237
3 288 289 290
3 284 288 290
3 283 288 284
3 283 239 288
3 283 240 239
3 235 240 283
3 237 287 241
3 287 291 241
3 244 289 288
3 244 243 289
3 243 292 289
3 239 244 288
3 241 291 245
3 291 293 245
3 248 294 295
3 247 294 248
3 292 243 248
3 295 292 248
3 245 293 249
3 293 296 249
3 252 297 298
3 251 297 252
3 294 247 252
3 298 294 252
3 249 296 253
3 296 299 253
3 251 254 297
3 297 254 300
3 255 301 302
3 256 255 302
3 299 255 253
3 301 255 299
3 254 257 300
3 300 257 303
3 256 302 258
3 302 304 258
3 257 259 303
3 303 259 305
3 260 306 307
3 261 260 307
3 304 260 258
3 306 260 304
3 259 262 305
3 305 262 308
3 263 309 264
3 310 309 263
3 310 263 311
3 311 263 265
3 307 265 261
3 311 265 307
3 262 312 308
3 266 312 262
3 267 313 266
3 266 313 312
3 268 314 267
3 267 314 313
3 269 315 268
3 268 315 314
3 270 316 269
3 269 316 315
3 309 270 264
3 309 317 270
3 317 316 270
3 310 317 309
3 318 319 320
3 318 321 322
3 320 321 318
3 322 323 324
3 321 323 322
3 323 325 324
3 273 319 318
3 273 272 319
3 272 326 319
3 274 273 318
3 322 274 318
3 275 274 322
3 324 275 322
3 324 276 275
3 324 325 276
3 325 327 276
3 272 278 326
3 326 278 328
3 276 327 279
3 327 329 279
3 330 331 332
3 330 332 328
3 330 328 280
3 280 328 278
3 279 329 333
3 281 279 333
3 333 282 281
3 334 282 333
3 285 335 336
3 284 335 285
3 331 330 286
3 331 286 336
3 336 286 285
3 280 286 330
3 282 334 287
3 334 337 287
3 290 338 339
3 289 338 290
3 335 284 290
3 339 335 290
3 287 337 291
3 337 340 291
3 289 292 338
3 338 292 341
3 291 340 293
3 340 342 293
3 295 343 344
3 294 343 295
3 341 292 295
3 344 341 295
3 293 342 296
3 342 345 296
3 298 346 347
3 297 346 298
3 343 294 298
3 347 343 298
3 296 345 299
3 345 348 299
3 297 300 346
3 346 300 349
3 301 350 351
3 302 301 351
3 348 301 299
3 350 301 348
3 300 303 349
3 349 303 352
3 302 351 304
3 351 353 304
3 303 305 352
3 352 305 354
3 306 355 356
3 307 306 356
3 353 306 304
3 355 306 353
3 305 308 354
3 354 308 357
3 311 358 359
3 310 311 359
3 356 311 307
3 358 311 356
3 308 360 357
3 312 360 308
3 313 361 312
3 312 361 360
3 314 362 313
3 313 362 361
3 315 363 314
3 314 363 362
3 316 364 315
3 315 364 363
3 317 365 316
3 316 365 364
3 359 317 310
3 365 317 359
3 366 367 368
3 366 369 370
3 368 369 366
3 369 371 370
3 320 367 366
3 320 319 367
3 319 372 367
3 321 320 366
3 370 321 366
3 370 371 373
3 370 373 321
3 321 373 323
3 373 325 323
3 374 325 373
3 375 376 377
3 375 377 372
3 375 372 326
3 326 372 319
3 325 374 327
3 374 378 327
3 379 376 375
3 380 376 379
3 326 328 379
3 375 326 379
3 327 378 329
3 378 381 329
3 382 383 384
3 380 382 384
3 379 382 380
3 379 331 382
3 379 332 331
3 328 332 379
3 329 381 385
3 333 329 385
3 385 334 333
3 386 334 385
3 387 388 389
3 383 387 389
3 382 387 383
3 382 335 387
3 382 336 335
3 331 336 382
3 334 386 337
3 386 390 337
3 339 388 387
3 339 338 388
3 338 391 388
3 335 339 387
3 337 390 340
3 390 392 340
3 393 394 395
3 393 395 391
3 393 391 341
3 341 391 338
3 340 392 342
3 392 396 342
3 397 398 399
3 394 397 399
3 393 397 394
3 393 343 397
3 393 344 343
3 341 344 393
3 400 401 402
3 400 396 401
3 400 345 396
3 345 342 396
3 347 398 397
3 347 346 398
3 346 403 398
3 343 347 397
3 404 400 402
3 405 404 402
3 345 404 348
3 400 404 345
3 346 349 403
3 403 349 406
3 350 404 405
3 350 405 351
3 351 405 407
3 348 404 350
3 349 352 406
3 406 352 408
3 351 407 353
3 407 409 353
3 352 354 408
3 408 354 410
3 355 411 412
3 356 355 412
3 409 355 353
3 411 355 409
3 413 357 414
3 413 410 357
3 410 354 357
3 413 414 415
3 358 416 417
3 359 358 417
3 412 358 356
3 416 358 412
3 357 360 414
3 414 418 415
3 414 360 418
3 360 361 418
3 362 419 361
3 361 419 418
3 363 420 362
3 362 420 419
3 364 421 363
3 363 421 420
3 365 422 364
3 364 422 421
3 417 365 359
3 422 365 417
3 423 424 425
3 423 368 367
3 423 425 368
3 425 426 368
3 369 368 427
3 368 426 427
3 427 371 369
3 428 371 427
3 429 424 423
3 430 424 429
3 367 372 429
3 423 367 429
3 371 428 431
3 373 371 431
3 431 374 373
3 432 374 431
3 433 434 435
3 430 433 435
3 429 433 430
3 429 376 433
3 429 377 376
3 372 377 429
3 374 432 378
3 432 436 378
3 437 434 433
3 438 434 437
3 376 380 437
3 433 376 437
3 439 440 381
3 439 381 436
3 436 381 378
3 439 441 440
3 442 443 444
3 438 442 444
3 437 442 438
3 437 383 442
3 437 384 383
3 380 384 437
3 381 440 385
3 440 386 385
3 440 441 386
3 441 445 386
3 389 443 442
3 389 388 443
3 388 446 443
3 383 389 442
3 386 445 390
3 445 447 390
3 388 391 446
3 446 391 448
3 390 447 392
3 447 449 392
3 395 450 451
3 394 450 395
3 448 391 395
3 451 448 395
3 392 449 396
3 449 452 396
3 399 453 454
3 398 453 399
3 450 394 399
3 454 450 399
3 401 455 456
3 402 401 456
3 452 401 396
3 455 401 452
3 398 403 453
3 453 403 457
3 402 456 405
3 456 458 405
3 403 406 457
3 457 406 459
3 405 458 407
3 458 460 407
3 406 408 459
3 459 408 461
3 462 463 464
3 462 460 463
3 462 409 460
3 409 407 460
3 465 410 466
3 465 461 410
3 461 408 410
3 465 466 467
3 468 469 470
3 464 469 468
3 462 464 468
3 462 468 412
3 462 412 411
3 409 462 411
3 410 413 466
3 466 413 415
3 466 415 467
3 467 415 471
3 472 473 474
3 472 475 476
3 473 472 476
3 470 476 475
3 468 470 475
3 468 475 417
3 468 417 416
3 412 468 416
3 415 477 471
3 418 477 415
3 419 478 418
3 418 478 477
3 420 479 419
3 419 479 478
3 474 421 472
3 474 479 421
3 479 420 421
3 422 472 421
3 475 472 422
3 417 475 422
3 480 481 482
3 480 483 484
3 482 483 480
3 483 485 484
3 425 486 487
3 424 486 425
3 481 480 426
3 481 426 487
3 487 426 425
3 427 426 480
3 484 427 480
3 484 428 427
3 484 485 428
3 485 488 428
3 489 490 491
3 489 491 486
3 489 486 430
3 430 486 424
3 428 488 492
3 431 428 492
3 492 432 431
3 493 432 492
3 494 495 496
3 490 494 496
3 489 494 490
3 489 434 494
3 489 435 434
3 430 435 489
3 432 493 436
3 493 497 436
3 498 495 494
3 499 495 498
3 434 438 498
3 494 434 498
3 436 497 500
3 439 436 500
3 500 441 439
3 501 441 500
3 444 499 498
3 444 443 499
3 443 502 499
3 438 444 498
3 441 501 445
3 501 503 445
3 504 505 506
3 504 506 502
3 504 502 446
3 446 502 443
3 445 503 447
3 503 507 447
3 508 505 504
3 509 505 508
3 446 448 508
3 504 446 508
3 447 507 449
3 507 510 449
3 511 512 513
3 509 511 513
3 508 511 509
3 508 450 511
3 508 451 450
3 448 451 508
3 449 510 452
3 510 514 452
3 454 512 511
3 454 453 512
3 453 515 512
3 450 454 511
3 455 516 517
3 456 455 517
3 514 455 452
3 516 455 514
3 453 457 515
3 515 457 518
3 456 517 458
3 517 519 458
3 457 459 518
3 518 459 520
3 521 522 523
3 521 519 522
3 521 460 519
3 460 458 519
3 459 461 520
3 520 461 524
3 525 526 527
3 525 528 529
3 526 525 529
3 528 530 531
3 529 528 531
3 523 531 530
3 521 523 530
3 521 530 464
3 521 464 463
3 460 521 463
3 461 532 524
3 465 532 461
3 532 465 467
3 533 532 467
3 534 525 527
3 535 534 527
3 528 525 536
3 536 525 534
3 469 536 470
3 469 530 536
3 530 528 536
3 464 530 469
3 537 471 538
3 537 533 471
3 533 467 471
3 538 539 540
3 537 538 540
3 539 541 542
3 540 539 542
3 535 542 541
3 534 535 541
3 534 541 474
3 534 474 473
3 476 534 473
3 536 534 476
3 470 536 476
3 471 477 538
3 478 538 477
3 539 538 478
3 479 539 478
3 541 539 479
3 474 541 479
3 543 544 545
3 543 546 547
3 545 546 543
3 547 548 549
3 546 548 547
3 548 550 549
3 551 544 543
3 552 544 551
3 482 481 551
3 482 551 547
3 547 551 543
3 483 482 547
3 549 483 547
3 549 485 483
3 549 550 485
3 550 553 485
3 554 555 556
3 552 554 556
3 551 554 552
3 551 486 554
3 551 487 486
3 481 487 551
3 485 553 488
3 553 557 488
3 558 559 560
3 555 558 560
3 554 558 555
3 554 490 558
3 554 491 490
3 486 491 554
3 488 557 561
3 492 488 561
3 561 493 492
3 562 493 561
3 496 559 558
3 496 495 559
3 495 563 559
3 490 496 558
3 493 562 497
3 562 564 497
3 565 566 567
3 565 567 563
3 565 563 499
3 499 563 495
3 568 500 497
3 568 497 569
3 569 497 564
3 500 568 501
3 570 566 565
3 571 566 570
3 499 502 570
3 565 499 570
3 568 569 572
3 572 501 568
3 572 573 501
3 573 503 501
3 506 571 570
3 506 505 571
3 505 574 571
3 502 506 570
3 503 573 507
3 573 575 507
3 576 577 578
3 576 578 574
3 576 574 509
3 509 574 505
3 507 575 510
3 575 579 510
3 513 577 576
3 513 512 577
3 512 580 577
3 509 513 576
3 581 582 583
3 581 579 582
3 581 514 579
3 514 510 579
3 512 515 580
3 580 515 584
3 516 581 583
3 516 583 517
3 517 583 585
3 514 581 516
3 515 518 584
3 584 518 586
3 517 585 519
3 585 587 519
3 588 520 589
3 588 586 520
3 586 518 520
3 588 589 590
3 591 592 593
3 591 523 522
3 591 522 592
3 592 522 594
3 587 522 519
3 594 522 587
3 589 524 595
3 520 524 589
3 596 590 589
3 595 596 589
3 526 597 598
3 527 526 598
3 529 599 526
3 526 599 597
3 593 531 591
3 593 599 531
3 599 529 531
3 523 591 531
3 524 532 595
3 533 600 601
3 532 533 601
3 532 601 596
3 532 596 595
3 600 602 603
3 601 600 603
3 602 604 605
3 603 602 605
3 604 598 605
3 604 535 598
3 535 527 598
3 533 537 600
3 540 600 537
3 602 600 540
3 542 602 540
3 604 602 542
3 535 604 542
3 606 607 608
3 606 609 610
3 608 609 606
3 610 545 544
3 610 609 545
3 609 611 545
3 546 545 612
3 545 611 612
3 548 546 613
3 546 612 613
3 613 550 548
3 614 550 613
3 615 607 606
3 616 607 615
3 610 617 606
3 617 615 606
3 544 552 617
3 610 544 617
3 550 614 553
3 614 618 553
3 619 616 615
3 620 616 619
3 556 555 619
3 556 619 617
3 617 619 615
3 552 556 617
3 553 618 557
3 618 621 557
3 622 623 624
3 620 622 624
3 619 622 620
3 619 559 622
3 619 560 559
3 555 560 619
3 625 561 557
3 625 557 626
3 626 557 621
3 561 625 562
3 627 623 622
3 628 623 627
3 559 563 627
3 622 559 627
3 625 626 629
3 629 562 625
3 629 630 562
3 630 564 562
3 567 628 627
3 567 566 628
3 566 631 628
3 563 567 627
3 564 630 569
3 630 632 569
3 566 571 631
3 631 571 633
3 634 572 569
3 634 569 635
3 635 569 632
3 572 634 573
3 571 574 633
3 633 574 636
3 637 634 635
3 638 637 635
3 573 637 575
3 634 637 573
3 578 639 640
3 577 639 578
3 636 574 578
3 640 636 578
3 641 642 643
3 638 642 641
3 638 641 637
3 637 641 644
3 575 644 579
3 637 644 575
3 577 580 639
3 639 580 645
3 646 641 643
3 647 646 643
3 582 646 583
3 582 644 646
3 644 641 646
3 579 644 582
3 580 584 645
3 645 584 648
3 649 646 647
3 650 649 647
3 583 649 585
3 646 649 583
3 584 586 648
3 648 586 651
3 652 653 654
3 650 653 652
3 650 652 649
3 649 652 655
3 585 655 587
3 649 655 585
3 586 656 651
3 588 656 586
3 590 657 658
3 590 658 588
3 588 658 656
3 658 657 659
3 660 661 662
3 654 661 660
3 652 654 660
3 652 660 593
3 652 593 592
3 594 652 592
3 655 652 594
3 587 655 594
3 657 596 663
3 590 596 657
3 664 659 657
3 664 657 665
3 665 657 663
3 665 666 667
3 664 665 667
3 666 598 597
3 666 597 667
3 667 597 668
3 662 599 660
3 662 668 599
3 668 597 599
3 593 660 599
3 596 601 663
3 603 663 601
3 665 663 603
3 605 665 603
3 666 665 605
3 598 666 605
3 669 670 671
3 669 672 673
3 671 672 669
3 673 674 675
3 672 674 673
3 674 676 675
3 677 678 679
3 670 677 679
3 670 669 677
3 669 680 677
3 673 681 669
3 681 680 669
3 675 682 673
3 682 681 673
3 683 675 676
3 682 675 683
3 608 678 677
3 608 607 678
3 607 684 678
3 609 608 677
3 680 609 677
3 611 609 680
3 681 611 680
3 612 611 681
3 682 612 681
3 682 683 685
3 682 685 612
3 612 685 613
3 685 614 613
3 686 614 685
3 607 616 684
3 684 616 687
3 614 686 618
3 686 688 618
3 689 690 691
3 689 691 687
3 689 687 620
3 620 687 616
3 618 688 621
3 688 692 621
3 624 690 689
3 624 623 690
3 623 693 690
3 620 624 689
3 621 692 626
3 692 694 626
3 623 628 693
3 693 628 695
3 626 694 696
3 629 626 696
3 696 630 629
3 697 630 696
3 628 631 695
3 695 631 698
3 630 697 632
3 697 699 632
3 631 633 698
3 698 633 700
3 632 699 635
3 699 701 635
3 633 636 700
3 700 636 702
3 635 701 638
3 701 703 638
3 640 639 704
3 640 704 705
3 640 705 636
3 636 705 702
3 642 706 707
3 643 642 707
3 703 642 638
3 706 642 703
3 704 645 708
3 639 645 704
3 709 705 704
3 708 709 704
3 643 707 647
3 707 710 647
3 708 648 711
3 645 648 708
3 712 709 708
3 711 712 708
3 713 714 715
3 713 710 714
3 713 650 710
3 650 647 710
3 711 651 716
3 648 651 711
3 717 712 711
3 716 717 711
3 718 719 720
3 718 721 722
3 719 718 722
3 715 722 721
3 713 715 721
3 713 721 654
3 713 654 653
3 650 713 653
3 651 656 716
3 716 723 717
3 716 656 723
3 656 658 723
3 659 724 725
3 659 725 658
3 658 725 723
3 724 726 727
3 725 724 727
3 720 727 726
3 720 726 718
3 718 726 728
3 661 728 662
3 661 721 728
3 721 718 728
3 654 721 661
3 659 664 724
3 667 724 664
3 726 724 667
3 668 726 667
3 728 726 668
3 662 728 668
3 729 730 731
3 729 732 733
3 731 732 729
3 732 734 733
3 735 730 729
3 736 730 735
3 733 737 729
3 737 735 729
3 738 733 734
3 737 733 738
3 735 739 736
3 737 739 735
3 740 739 737
3 738 740 737
3 741 742 743
3 741 744 745
3 743 744 741
3 745 746 747
3 744 746 745
3 746 748 747
3 749 742 741
3 750 742 749
3 671 670 749
3 671 749 745
3 745 749 741
3 672 671 745
3 747 672 745
3 747 748 751
3 747 751 672
3 672 751 674
3 751 676 674
3 752 676 751
3 679 750 749
3 679 678 750
3 678 753 750
3 670 679 749
3 676 752 683
3 752 754 683
3 755 756 757
3 755 757 753
3 755 753 684
3 684 753 678
3 683 754 758
3 685 683 758
3 758 686 685
3 759 686 758
3 760 756 755
3 761 756 760
3 684 687 760
3 755 684 760
3 686 759 688
3 759 762 688
3 691 761 760
3 691 690 761
3 690 763 761
3 687 691 760
3 688 762 692
3 762 764 692
3 690 693 763
3 763 693 765
3 692 764 694
3 764 766 694
3 693 695 765
3 765 695 767
3 768 696 694
3 768 694 769
3 769 694 766
3 696 768 697
3 695 698 767
3 767 698 770
3 771 768 769
3 772 771 769
3 697 771 699
3 768 771 697
3 698 700 770
3 770 700 773
3 774 771 772
3 775 774 772
3 699 774 701
3 771 774 699
3 700 702 773
3 773 702 776
3 777 774 775
3 778 777 775
3 701 777 703
3 774 777 701
3 702 705 776
3 776 705 779
3 780 781 782
3 778 781 780
3 777 778 780
3 777 780 707
3 777 707 706
3 703 777 706
3 705 709 779
3 779 709 783
3 784 785 786
3 784 787 788
3 785 784 788
3 782 788 787
3 782 787 780
3 780 787 789
3 707 789 710
3 780 789 707
3 790 712 791
3 790 783 712
3 783 709 712
3 791 792 793
3 790 791 793
3 792 794 795
3 793 792 795
3 786 795 794
3 786 794 784
3 784 794 796
3 787 784 797
3 797 784 796
3 714 797 715
3 714 789 797
3 789 787 797
3 710 789 714
3 791 717 798
3 712 717 791
3 792 791 799
3 799 791 798
3 794 792 800
3 800 792 799
3 719 800 720
3 719 796 800
3 796 794 800
3 722 796 719
3 797 796 722
3 715 797 722
3 717 723 798
3 725 798 723
3 799 798 725
3 727 799 725
3 800 799 727
3 720 800 727
3 801 802 803
3 801 804 805
3 803 804 801
3 804 806 805
3 807 802 801
3 808 802 807
3 731 730 807
3 731 807 805
3 805 807 801
3 805 806 809
3 805 809 731
3 731 809 732
3 809 734 732
3 810 734 809
3 811 808 807
3 812 808 811
3 730 736 811
3 807 730 811
3 734 810 738
3 810 813 738
3 814 812 811
3 815 812 814
3 736 739 816
3 736 816 811
3 811 816 814
3 739 740 817
3 816 739 817
3 740 818 817
3 740 738 818
3 738 813 818
3 819 815 814
3 820 815 819
3 816 821 814
3 821 819 814
3 817 822 816
3 822 821 816
3 823 817 818
3 823 824 817
3 824 822 817
3 823 825 824
3 826 820 819
3 827 820 826
3 821 828 819
3 828 826 819
3 822 829 821
3 829 828 821
3 824 830 822
3 830 829 822
3 831 824 825
3 830 824 831
3 826 832 827
3 832 833 834
3 832 826 833
3 826 828 833
3 829 835 828
3 835 833 828
3 830 836 829
3 836 835 829
3 837 830 831
3 836 830 837
3 838 834 833
3 839 834 838
3 835 840 833
3 840 838 833
3 836 841 835
3 841 840 835
3 842 836 837
3 841 836 842
3 838 843 839
3 843 844 845
3 843 838 844
3 838 840 844
3 841 846 840
3 846 844 840
3 847 841 842
3 847 848 841
3 848 846 841
3 847 849 848
3 743 845 844
3 743 742 845
3 742 850 845
3 744 743 844
3 846 744 844
3 746 744 846
3 848 746 846
3 848 748 746
3 848 849 748
3 849 851 748
3 852 853 854
3 852 854 850
3 852 850 750
3 750 850 742
3 748 851 855
3 751 748 855
3 855 752 751
3 856 752 855
3 857 853 852
3 858 853 857
3 750 753 857
3 852 750 857
3 752 856 754
3 856 859 754
3 757 858 857
3 757 756 858
3 756 860 858
3 753 757 857
3 861 758 754
3 861 754 862
3 862 754 859
3 758 861 759
3 756 761 860
3 860 761 863
3 861 862 864
3 864 759 861
3 864 865 759
3 865 762 759
3 761 763 863
3 863 763 866
3 762 865 764
3 865 867 764
3 763 765 866
3 866 765 868
3 869 870 871
3 869 867 870
3 869 766 867
3 766 764 867
3 765 767 868
3 868 767 872
3 873 869 871
3 874 873 871
3 766 873 769
3 869 873 766
3 767 770 872
3 872 770 875
3 876 873 874
3 877 876 874
3 769 876 772
3 873 876 769
3 770 773 875
3 875 773 878
3 879 880 881
3 877 880 879
3 877 879 876
3 876 879 882
3 772 882 775
3 876 882 772
3 773 776 878
3 878 776 883
3 884 879 881
3 885 884 881
3 882 879 886
3 886 879 884
3 775 886 778
3 882 886 775
3 776 779 883
3 883 779 887
3 888 884 885
3 889 888 885
3 781 888 782
3 781 886 888
3 886 884 888
3 778 886 781
3 890 783 891
3 890 887 783
3 887 779 783
3 891 892 893
3 890 891 893
3 892 894 895
3 893 892 895
3 894 786 785
3 894 785 895
3 895 785 896
3 889 788 888
3 889 896 788
3 896 785 788
3 782 888 788
3 783 790 891
3 793 891 790
3 892 891 793
3 795 892 793
3 894 892 795
3 786 894 795
3 803 897 898
3 802 897 803
3 804 803 899
3 803 898 899
3 899 806 804
3 900 806 899
3 802 808 897
3 897 808 901
3 806 900 902
3 809 806 902
3 902 810 809
3 903 810 902
3 808 812 901
3 901 812 904
3 810 903 813
3 903 905 813
3 812 815 904
3 904 815 906
3 813 905 818
3 905 907 818
3 815 820 906
3 906 820 908
3 818 907 909
3 823 818 909
3 909 825 823
3 910 825 909
3 820 827 908
3 908 827 911
3 825 910 831
3 910 912 831
3 913 827 832
3 913 914 827
3 914 911 827
3 832 834 913
3 831 912 837
3 912 915 837
3 913 916 914
3 916 913 834
3 916 834 917
3 917 834 839
3 837 915 842
3 915 918 842
3 839 919 917
3 843 919 839
3 919 843 845
3 920 919 845
3 842 918 921
3 847 842 921
3 921 849 847
3 922 849 921
3 845 850 920
3 920 850 923
3 849 922 851
3 922 924 851
3 854 925 926
3 853 925 854
3 923 850 854
3 926 923 854
3 851 924 927
3 855 851 927
3 927 856 855
3 928 856 927
3 853 858 925
3 925 858 929
3 856 928 859
3 928 930 859
3 858 860 929
3 929 860 931
3 859 930 862
3 930 932 862
3 860 863 931
3 931 863 933
3 934 864 862
3 934 862 935
3 935 862 932
3 864 934 865
3 863 866 933
3 933 866 936
3 937 934 935
3 938 937 935
3 865 937 867
3 934 937 865
3 866 868 936
3 936 868 939
3 870 937 938
3 870 938 871
3 871 938 940
3 867 937 870
3 868 872 939
3 939 872 941
3 942 943 944
3 942 940 943
3 942 874 940
3 874 871 940
3 945 875 946
3 945 941 875
3 941 872 875
3 946 947 948
3 945 946 948
3 947 949 950
3 948 947 950
3 949 951 952
3 950 949 952
3 944 952 951
3 944 951 942
3 942 951 953
3 874 953 877
3 942 953 874
3 946 878 954
3 875 878 946
3 947 946 955
3 955 946 954
3 949 947 956
3 956 947 955
3 951 949 957
3 957 949 956
3 880 957 881
3 880 953 957
3 953 951 957
3 877 953 880
3 954 883 958
3 878 883 954
3 955 954 959
3 959 954 958
3 956 955 960
3 960 955 959
3 957 956 961
3 961 956 960
3 881 961 885
3 957 961 881
3 958 887 962
3 883 887 958
3 959 958 963
3 963 958 962
3 960 959 964
3 964 959 963
3 961 960 965
3 965 960 964
3 885 965 889
3 961 965 885
3 887 890 962
3 893 962 890
3 963 962 893
3 895 963 893
3 964 963 895
3 896 964 895
3 965 964 896
3 889 965 896
3 898 897 966
3 898 967 899
3 966 967 898
3 899 967 900
3 966 901 968
3 897 901 966
3 967 966 969
3 969 966 968
3 900 970 902
3 900 967 970
3 967 969 970
3 902 970 903
3 968 971 972
3 968 901 971
3 901 904 971
3 969 968 972
3 973 969 972
3 970 969 973
3 974 970 973
3 974 903 970
3 974 975 903
3 975 905 903
3 904 906 971
3 971 906 976
3 905 975 907
3 975 977 907
3 906 908 976
3 976 908 978
3 907 977 979
3 909 907 979
3 979 910 909
3 980 910 979
3 908 911 978
3 978 911 981
3 910 980 912
3 980 982 912
3 911 914 981
3 981 914 983
3 912 982 915
3 982 984 915
3 914 985 983
3 916 985 914
3 985 916 917
3 986 985 917
3 915 984 918
3 984 987 918
3 917 988 986
3 919 988 917
3 920 989 990
3 920 990 919
3 919 990 988
3 989 991 992
3 990 989 992
3 921 991 993
3 921 987 991
3 921 918 987
3 992 991 987
3 921 993 922
3 989 923 994
3 920 923 989
3 991 989 995
3 995 989 994
3 993 991 996
3 996 991 995
3 922 996 924
3 993 996 922
3 926 997 998
3 925 997 926
3 994 923 926
3 994 926 999
3 999 926 998
3 995 994 999
3 1000 995 999
3 1000 1001 1002
3 1000 1002 995
3 995 1002 996
3 924 1003 927
3 924 996 1003
3 996 1002 1003
3 927 1003 928
3 925 929 997
3 997 929 1004
3 1005 1002 1001
3 1006 1005 1001
3 1003 1002 1007
3 1007 1002 1005
3 928 1007 930
3 1003 1007 928
3 929 931 1004
3 1004 931 1008
3 1009 1005 1006
3 1010 1009 1006
3 1007 1005 1011
3 1011 1005 1009
3 930 1011 932
3 1007 1011 930
3 931 933 1008
3 1008 933 1012
3 1013 1009 1010
3 1014 1013 1010
3 1011 1009 1015
3 1015 1009 1013
3 932 1015 935
3 1011 1015 932
3 933 936 1012
3 1012 936 1016
3 1017 1013 1014
3 1018 1017 1014
3 1015 1013 1019
3 1019 1013 1017
3 935 1019 938
3 1015 1019 935
3 1020 939 1021
3 1020 1016 939
3 1016 936 939
3 1021 1022 1023
3 1020 1021 1023
3 1022 1024 1025
3 1023 1022 1025
3 1018 1025 1024
3 1018 1024 1017
3 1017 1024 1026
3 1019 1017 1027
3 1027 1017 1026
3 938 1027 940
3 1019 1027 938
3 1021 941 1028
3 939 941 1021
3 1022 1021 1029
3 1029 1021 1028
3 1024 1022 1030
3 1030 1022 1029
3 1026 1024 1031
3 1031 1024 1030
3 943 1031 944
3 943 1027 1031
3 1027 1026 1031
3 940 1027 943
3 941 945 1028
3 948 1028 945
3 1029 1028 948
3 950 1029 948
3 1030 1029 950
3 952 1030 950
3 1031 1030 952
3 944 1031 952
3 972 971 1032
3 972 1033 973
3 1032 1033 972
3 973 1034 974
3 1033 1034 973
3 974 1034 975
3 1032 976 1035
3 971 976 1032
3 1033 1032 1036
3 1036 1032 1035
3 1034 1033 1037
3 1037 1033 1036
3 975 1037 977
3 1034 1037 975
3 1035 978 1038
3 976 978 1035
3 1036 1035 1039
3 1039 1035 1038
3 1037 1036 1040
3 1040 1036 1039
3 977 1041 979
3 977 1037 1041
3 1037 1040 1041
3 979 1041 980
3 1038 981 1042
3 978 981 1038
3 1039 1038 1043
3 1043 1038 1042
3 1040 1039 1044
3 1044 1039 1043
3 1041 1040 1045
3 1045 1040 1044
3 980 1045 982
3 1041 1045 980
3 1042 983 1046
3 981 983 1042
3 1043 1042 1047
3 1047 1042 1046
3 1044 1043 1048
3 1048 1043 1047
3 1045 1044 1049
3 1049 1044 1048
3 982 1049 984
3 1045 1049 982
3 983 985 1046
3 986 1046 985
3 986 1050 1046
3 1050 1047 1046
3 1048 1047 1051
3 1051 1047 1050
3 1049 1048 1052
3 1052 1048 1051
3 984 1052 987
3 1049 1052 984
3 986 988 1050
3 990 1050 988
3 1051 1050 990
3 992 1051 990
3 1052 1051 992
3 987 1052 992
3 998 997 1053
3 998 1054 999
3 1053 1054 998
3 999 1055 1000
3 1054 1055 999
3 1000 1055 1001
3 1053 1004 1056
3 997 1004 1053
3 1054 1053 1057
3 1057 1053 1056
3 1055 1054 1058
3 1058 1054 1057
3 1001 1058 1006
3 1055 1058 1001
3 1056 1008 1059
3 1004 1008 1056
3 1057 1056 1060
3 1060 1056 1059
3 1058 1057 1061
3 1061 1057 1060
3 1006 1061 1010
3 1058 1061 1006
3 1059 1012 1062
3 1008 1012 1059
3 1060 1059 1063
3 1063 1059 1062
3 1061 1060 1064
3 1064 1060 1063
3 1010 1064 1014
3 1061 1064 1010
3 1062 1016 1065
3 1012 1016 1062
3 1063 1062 1066
3 1066 1062 1065
3 1064 1063 1067
3 1067 1063 1066
3 1014 1067 1018
3 1064 1067 1014
3 1016 1020 1065
3 1023 1065 1020
3 1066 1065 1023
3 1025 1066 1023
3 1067 1066 1025
3 1018 1067 1025
