# vtk DataFile Version 3.0
this file was written using fslvtkio
ASCII
DATASET POLYDATA
POINTS 642 float
164.124 139.347 129.268
163.771 140.458 131.803
165.185 135.496 132.569
165.89 134.418 130.276
167.272 136.736 128.095
163.603 137.912 130.94
163.754 138.326 131.313
166.826 137.538 131.042
164.916 141.006 129.72
166.794 133.014 130.808
164.361 132.243 133.367
160.472 142.107 130.006
166.49 139.633 130.328
166.394 138.641 129.205
167.835 136.862 129.559
167.693 135.308 130.957
167.928 134.573 129.182
160.808 140.724 131.27
164.05 138.557 131.131
160.177 140.657 129.548
164.08 134.604 133.25
165.147 134.358 132.368
166.579 135.237 129.039
165.821 137.899 128.872
165.308 137.067 129.84
164.697 135.965 130.805
163.248 139.088 130.156
165.39 139.298 131.513
166.316 136.361 132.021
164.653 138.299 131.878
162.836 139.961 131.843
164.254 136.499 132.551
162.082 141.17 129.418
164.287 140.54 129.138
162.349 142.22 130.137
161.675 141.57 131.785
164.095 141.277 130.923
165.654 132.42 131.296
165.594 131.682 133.189
166.44 132.145 130.285
164.738 133.268 133.409
166.163 133.963 132.053
166.565 139.188 129.625
167.577 137.867 128.901
167.427 138.179 129.773
167.775 136.693 128.698
167.13 137.657 128.36
165.73 140.1 129.397
165.992 140.714 129.813
166.781 138.697 130.744
167.24 137.3 130.325
168.076 136.126 130.355
168.25 135.773 129.124
167.971 134.882 130.072
167.782 135.675 128.266
167.509 136.458 131.172
167.151 134.23 130.714
167.77 133.645 130.13
161.959 140.12 130.829
162.164 140.407 130.314
160.435 140.621 130.327
162.466 140.182 130.492
163.663 138.227 131.202
163.827 138.724 131.024
162.307 139.893 131.392
160.56 141.629 130.642
160.141 141.604 128.938
164.384 134.308 132.949
164.606 135.851 132.408
164.005 136.054 132.519
164.156 136.403 131.543
164.52 133.195 132.845
163.581 133.134 133.775
163.616 136.515 132.838
166.185 136.557 128.531
165.49 137.484 129.255
165.749 136.179 129.398
164.747 138.355 129.577
165.014 138.651 129.233
166.627 137.252 128.315
167.015 135.828 128.439
166.228 134.807 129.645
165.67 135.636 130.071
165.035 136.555 130.435
164.38 137.947 130.118
164.144 137.637 130.396
163.726 139.127 129.721
165.174 135.013 130.667
164.048 136.801 130.899
163.428 138.416 130.467
165.85 137.948 131.647
165.331 137.358 131.738
165.019 138.812 132.026
164.846 136.857 132.142
165.702 135.955 132.388
166.582 137.001 131.514
166.26 138.544 131.306
164.598 140.025 131.805
164.186 139.55 132.302
163.723 139.152 132.214
164.36 137.73 132.058
163.626 138.408 132.22
164.627 135.895 132.702
163.263 140.304 131.866
163.089 139.207 131.739
163.705 137.504 132.484
163.007 141.096 129.334
163.311 141.357 129.858
161.977 141.852 129.847
163.63 141.604 130.587
164.46 140.877 129.684
164.121 139.993 128.946
163.189 140.41 129.668
161.193 141.787 129.286
161.197 142.794 130.185
162.027 142.571 131.363
162.882 142.322 131.042
162.799 142.009 131.39
164.312 141.501 130.47
161.116 142.141 130.905
162.914 141.431 131.726
163.837 141.074 131.361
165.358 131.005 132.096
166.248 130.796 131.528
166.02 132.12 130.724
166.966 132.081 130.841
166.391 132.008 131.677
165.088 131.493 133.433
165.138 132.531 132.332
165.861 133.565 130.782
166.418 133.508 130.211
165.555 133.765 132.973
165.963 133.015 132.187
165.166 132.474 133.401
166.807 133.371 131.532
165.717 134.796 132.49
165.06 134.484 133.153
164.242 132.665 134.374
165.984 138.519 128.709
165.278 139.853 129.209
164.989 139.327 128.89
162.618 140.472 130.137
161.11 140.783 129.348
162.077 140.42 130.014
167.232 133.639 129.82
167.329 134.745 128.55
166.856 134.01 129.376
165.314 134.101 131.143
164.641 135.183 130.913
165.395 133.383 131.784
165.333 140.728 130.415
165.89 139.796 130.975
164.861 140.424 131.188
162.29 140.824 132.039
161.887 140.372 132.045
161.184 141.219 131.755
166.459 135.198 132.165
167.227 135.764 131.783
166.964 134.537 131.513
164.293 133.802 133.787
163.903 135.566 133.4
164.442 134.789 133.271
166.954 138.504 129.431
167.488 138.113 129.288
167.158 138.68 129.675
167.584 137.52 129.723
167.719 137.322 129.217
166.966 138.266 129.085
166.508 138.864 129.388
166.725 139.392 129.952
167.044 138.895 130.013
167.632 137.302 128.848
167.41 137.815 128.544
167.602 137.274 128.216
166.866 138.082 128.806
167.932 136.831 129.016
167.606 136.773 128.258
167.275 137.183 128.103
166.157 139.607 129.515
166.259 139.902 129.75
165.922 140.169 129.628
166.272 140.135 130.043
166.097 139.358 129.314
165.451 140.615 129.584
165.569 140.777 129.667
167.182 138.546 130.265
167.392 137.766 130.133
167.182 138.059 130.575
167.642 136.965 129.991
166.818 139.12 130.462
166.854 138.131 130.897
166.991 137.5 130.672
168.286 135.866 129.724
168.177 135.343 129.62
168.116 135.523 130.064
168.083 134.77 129.555
168.056 135.183 129.132
168.08 136.312 129.35
168.037 136.389 129.959
167.93 135.76 130.589
167.812 135.157 130.509
168.172 135.69 128.646
168.124 136.209 128.799
167.913 136.126 128.46
167.974 135.262 128.656
167.503 136.21 128.424
167.747 136.819 130.337
167.783 136.322 130.748
167.336 136.956 130.71
167.766 135.879 131.053
166.989 137.011 130.98
167.605 134.592 130.362
167.913 134.295 129.901
167.603 133.929 130.415
168.048 134.128 129.566
167.648 134.703 130.893
167.269 133.656 130.781
167.284 133.344 130.472
162.357 140.025 130.504
161.214 140.336 130.211
161.264 140.17 130.735
160.285 140.75 129.95
160.925 140.585 129.948
163.212 139.621 130.784
162.902 139.736 130.823
161.317 140.524 130.847
160.567 140.757 130.614
162.069 140.51 130.212
163.033 139.691 130.747
163.003 139.421 130.821
163.893 138.345 131.194
161.407 140.714 129.863
163.205 138.893 130.832
163.621 138.055 131.148
162.885 139.644 130.924
161.955 140.096 131.07
162.816 139.583 131.049
161.531 140.428 131.415
163.902 138.618 131.06
163.766 138.542 131.149
163.163 138.96 131.563
160.185 141.209 130.312
160.13 141.184 129.846
160.007 141.417 129.975
160.025 141.245 129.098
160.511 141.299 131.037
160.264 141.677 130.198
160.073 141.825 129.598
164.883 134.855 132.79
164.178 136.052 132.511
164.314 135.153 132.916
163.904 137.125 131.872
164.028 136.975 131.843
164.897 134.914 132.661
164.829 134.443 132.659
164.174 134.397 133.181
163.949 135.265 132.929
164.128 136.962 131.725
164.584 136.055 132.025
163.788 137.276 131.296
164.731 135.171 131.839
163.813 137.108 131.045
164.265 133.697 132.936
163.885 133.619 133.136
163.978 132.974 133.273
163.803 133.889 133.475
164.804 133.827 132.689
164.24 132.51 133.098
163.833 132.489 134.039
163.747 136.21 132.6
163.7 137.193 131.981
163.485 137.386 132.047
163.809 135.28 133.22
163.622 137.356 132.084
165.782 136.981 128.774
165.661 136.782 129.075
166.058 136.356 128.908
165.5 136.56 129.527
165.338 137.194 129.445
165.608 137.614 128.988
165.992 137.311 128.713
166.365 135.844 128.823
166.145 135.834 129.181
165.143 137.914 129.463
165.38 138.051 129.274
164.895 138.582 129.235
165.471 138.263 128.995
165.062 137.648 129.71
164.412 138.787 129.482
164.555 139.096 129.229
166.404 136.819 128.294
166.65 136.163 128.563
166.806 136.532 128.216
166.76 135.525 128.611
166.254 137.441 128.782
166.95 136.994 128.138
167.161 136.304 128.282
166.073 135.546 129.611
165.765 135.993 129.821
165.949 135.217 129.866
165.453 136.404 130.007
166.379 135.178 129.335
166.117 134.639 129.995
165.694 134.995 130.132
164.615 137.269 130.152
164.253 137.728 130.238
164.705 137.067 130.538
163.67 138.29 130.265
163.841 138.393 130.023
164.876 137.448 129.947
165.078 136.827 130.169
164.838 136.245 130.631
164.431 136.89 130.548
164.096 138.496 129.981
164.575 138.047 129.795
164.336 138.698 129.789
163.483 139.127 129.954
163.932 139.296 129.566
165.328 136.124 130.232
165.164 135.866 130.59
165.438 135.405 130.392
165.097 135.399 130.861
165.598 134.757 130.486
163.962 137.16 130.453
163.804 137.938 130.483
163.887 137.545 130.634
163.268 138.761 130.408
164.246 136.469 130.64
163.732 137.281 130.742
163.552 138.17 130.812
165.559 137.743 131.664
165.064 138.13 131.575
165.385 138.498 131.655
164.768 138.511 131.956
164.963 137.761 131.756
165.8 136.957 131.879
165.938 137.208 131.606
165.64 138.718 131.539
165.249 139.097 131.754
165.079 137.057 131.921
165.601 136.751 132.224
165.338 136.43 132.182
165.941 136.305 132.247
164.749 137.499 131.897
165.025 136.26 132.292
165.339 135.78 132.408
166.135 137.404 131.425
166.017 138.222 131.481
166.31 137.804 131.291
165.89 138.994 131.348
166.457 136.646 131.837
166.629 137.376 131.22
166.603 138.048 131.122
164.942 139.373 132.128
164.613 139.167 132.077
164.531 139.664 132.086
164.43 138.955 132.148
164.985 139.661 131.763
164.225 140.169 131.858
164.05 139.979 131.811
164.025 138.474 132.2
164.013 138.03 131.869
163.588 138.911 132.272
163.996 137.489 132.094
164.23 137.323 132.111
164.467 137.988 131.894
164.181 138.788 132.139
163.276 139.564 132.009
163.256 139.271 132.064
164.445 136.815 132.3
164.564 137.228 132.252
164.706 136.453 132.422
164.354 136.255 132.734
164.925 135.828 132.66
163.968 139.345 132.192
163.549 139.763 132.096
163.764 139.867 131.816
163.158 140.018 131.805
163.534 140.404 131.9
163.286 138.847 132.178
163.748 138.036 131.937
163.402 138.401 131.999
163.945 136.902 132.633
162.923 139.642 131.707
163.295 138.721 131.736
163.597 137.795 131.947
163.234 141.307 129.497
162.608 141.62 130.027
162.638 141.478 129.693
162.154 142.143 130.007
162.761 141.844 130.027
163.804 140.951 129.416
163.6 140.795 129.223
162.533 141.168 129.269
162.035 141.575 129.619
163.32 141.563 130.075
163.839 141.032 129.799
163.982 141.18 130.212
164.394 140.664 129.403
162.968 141.879 130.449
164.243 141.293 130.258
164.681 141.014 129.799
163.691 140.576 128.99
163.252 140.695 129.325
163.785 140.102 129.356
162.649 140.745 129.347
164.148 140.318 129.007
164.186 139.624 129.153
163.741 139.899 129.404
161.654 142.09 129.605
161.561 142.541 129.777
161.187 142.25 129.79
161.729 142.798 130.025
161.645 141.618 129.204
160.709 142.021 129.553
160.976 142.392 130.29
162.352 142.515 130.964
163.027 142.331 131.309
162.235 142.256 131.599
163.442 141.859 131.166
163.602 141.761 130.965
162.534 142.462 130.394
162.067 142.587 130.596
161.77 142.081 131.713
162.217 141.857 131.685
163.678 141.917 130.841
163.269 141.991 130.927
163.984 141.556 130.62
164.26 141.575 130.739
164.759 141.068 130.171
161.575 142.859 130.776
161.525 142.463 131.184
161.125 142.635 130.756
161.348 142.018 131.495
160.663 141.983 130.586
162.898 141.757 131.452
163.465 141.617 131.262
163.409 141.302 131.648
163.942 141.302 131.083
162.377 141.479 131.585
163.312 140.954 131.714
163.766 140.693 131.579
165.656 130.737 131.914
165.971 131.156 131.024
165.659 131.464 131.221
166.099 131.877 130.488
166.34 131.283 130.79
165.883 131.136 132.471
165.523 130.796 132.964
165.49 131.594 131.662
165.795 132.172 131.135
166.531 131.411 131.182
166.326 131.334 131.781
166.578 132.06 131.273
165.871 131.835 132.448
166.724 131.977 130.583
166.9 132.689 130.65
166.461 132.677 131.014
165.247 131.244 132.757
165.214 131.745 132.106
164.742 131.803 132.656
165.61 132.284 131.887
165.413 131.258 133.49
164.458 131.797 133.475
164.745 132.698 132.513
166.074 132.76 130.9
166.268 132.696 130.517
166.242 133.472 130.585
166.329 132.624 130.193
165.866 132.97 131.164
165.767 134.053 130.471
166.121 134.046 130.167
165.726 133.346 132.662
165.495 132.688 132.887
165.346 133.171 133.15
165.364 132.063 133.341
165.727 132.404 132.51
166.17 133.482 132.231
165.796 133.867 132.484
165.14 133.618 133.137
164.896 132.871 133.586
166.204 132.475 131.809
166.286 133.135 131.743
166.397 132.902 131.22
166.428 133.735 131.719
166.741 133.301 131.024
165.571 134.385 132.368
165.193 134.218 132.73
165.322 134.724 132.777
164.907 133.966 132.969
165.964 134.468 132.156
165.551 135.176 132.738
165.099 135.132 132.996
164.83 132.413 133.881
165.234 131.831 133.592
164.68 131.916 133.94
164.473 132.919 134.02
164.147 132.166 134.333
165.616 139.097 129.153
165.169 139.574 128.924
165.494 138.86 129.045
164.687 139.942 129.015
164.781 140.164 129.151
165.835 139.296 129.258
166.154 138.611 129.079
165.835 138.241 128.85
165.418 138.645 128.804
164.891 140.361 129.532
165.549 140.086 129.087
165.074 140.488 129.779
166.552 138.145 128.618
166.277 137.91 128.802
166.759 137.514 128.589
164.984 138.977 128.915
164.569 139.747 128.764
164.502 139.355 128.832
161.969 140.795 130.006
161.359 140.77 129.724
162.36 140.32 130.077
161.219 140.637 129.761
160.426 140.832 129.007
161.706 140.993 129.667
162.264 140.702 129.814
162.935 139.84 130.106
162.722 139.802 130.306
160.694 141.22 128.757
161.332 141.398 129.216
160.437 141.965 128.828
162.972 140.355 129.815
163.307 139.747 129.95
163.626 139.725 129.631
163.042 139.641 130.507
162.37 140.42 130.368
163.069 139.138 130.651
167.402 134.226 128.873
167.013 134.469 129.035
167.023 133.638 129.574
166.788 134.655 129.17
166.973 134.919 128.756
167.761 134.685 128.791
167.792 134.072 129.128
166.875 132.776 130.27
166.647 133.073 129.945
167.135 135.295 128.572
167.708 135.063 128.302
167.402 135.729 128.138
167.574 133.544 129.809
167.107 132.812 130.292
167.438 133.02 130.116
166.692 133.563 129.763
166.606 134.297 129.549
166.396 134.168 129.817
164.898 134.549 130.97
164.988 134.155 131.393
165.439 133.603 131.368
165.202 133.842 132.032
164.917 134.66 131.459
164.733 135.531 130.846
164.913 134.986 130.941
165.58 133.238 131.213
165.632 132.762 131.662
164.325 135.791 131.073
164.261 135.976 130.83
164.057 136.694 131.217
165.092 134.702 130.747
165.579 133.929 130.94
165.535 134.345 130.729
165.206 132.946 132.098
165.001 133.584 132.353
164.693 133.082 132.494
165.652 140.382 130.838
165.179 140.097 131.015
164.916 140.663 130.781
165.095 139.811 131.448
165.554 139.63 131.191
166.28 139.742 130.7
165.908 140.281 130.369
164.83 141.087 130.731
164.63 140.955 131.118
166.012 139.205 131.123
166.282 139.235 130.773
166.416 138.681 131.016
165.829 140.862 130.244
164.953 141.198 130.447
165.124 140.948 130.179
164.266 140.771 131.271
164.7 140.29 131.546
164.222 140.561 131.654
162.077 140.496 132.222
161.464 140.787 131.978
161.803 140.998 132.032
160.974 141.008 131.502
161.301 140.633 131.799
162.321 140.045 132.138
162.602 140.346 132.059
162.041 141.211 131.881
161.489 141.372 131.773
162.199 140.036 131.669
162.731 139.693 131.657
162.849 139.25 131.707
162.795 140.626 131.863
162.628 141.078 131.685
163.011 140.869 131.745
161.2 141.968 131.495
160.923 141.508 131.364
160.962 141.911 130.843
166.804 135.379 131.896
167.095 135.102 131.638
166.668 134.853 131.781
167.352 134.936 131.228
167.465 135.509 131.429
166.77 136.006 131.932
166.416 135.759 132.096
166.334 134.652 132.031
166.433 134.351 131.723
167.395 136.041 131.511
167.044 136.446 131.886
167.086 136.728 131.436
166.144 135.632 132.406
166.126 135.001 132.338
165.768 135.363 132.451
166.726 134.019 131.524
167.231 134.394 131.252
166.979 133.798 131.105
164.004 134.658 133.663
164.092 135.173 133.717
164.343 134.254 133.44
164.251 135.555 133.38
164.052 136.055 132.905
163.912 135.087 133.666
164.001 134.242 133.627
164.526 133.416 133.564
164.687 133.968 133.257
163.585 136.592 133.122
163.606 135.906 133.38
163.519 136.844 132.849
163.692 133.65 133.69
164.236 133.287 133.99
163.796 132.936 134.399
164.73 134.7 133.138
164.398 135.551 133.175
164.771 135.352 132.954
POLYGONS 1280  5120
3 164 162 163
3 163 44 164
3 162 43 163
3 164 42 162
3 166 165 163
3 163 43 166
3 165 44 163
3 166 14 165
3 168 167 162
3 162 42 168
3 167 43 162
3 168 13 167
3 170 169 164
3 164 44 170
3 169 42 164
3 170 12 169
3 173 171 172
3 172 46 173
3 171 43 172
3 173 45 171
3 167 174 172
3 172 43 167
3 174 46 172
3 167 13 174
3 175 166 171
3 171 45 175
3 166 43 171
3 175 14 166
3 177 176 173
3 173 46 177
3 176 45 173
3 177 4 176
3 180 178 179
3 179 48 180
3 178 42 179
3 180 47 178
3 169 181 179
3 179 42 169
3 181 48 179
3 169 12 181
3 182 168 178
3 178 47 182
3 168 42 178
3 182 13 168
3 184 183 180
3 180 48 184
3 183 47 180
3 184 8 183
3 187 185 186
3 186 50 187
3 185 44 186
3 187 49 185
3 165 188 186
3 186 44 165
3 188 50 186
3 165 14 188
3 189 170 185
3 185 49 189
3 170 44 185
3 189 12 170
3 191 190 187
3 187 50 191
3 190 49 187
3 191 7 190
3 194 192 193
3 193 53 194
3 192 52 193
3 194 51 192
3 196 195 193
3 193 52 196
3 195 53 193
3 196 16 195
3 198 197 192
3 192 51 198
3 197 52 192
3 198 14 197
3 200 199 194
3 194 53 200
3 199 51 194
3 200 15 199
3 203 201 202
3 202 45 203
3 201 52 202
3 203 54 201
3 197 175 202
3 202 52 197
3 175 45 202
3 197 14 175
3 204 196 201
3 201 54 204
3 196 52 201
3 204 16 196
3 176 205 203
3 203 45 176
3 205 54 203
3 176 4 205
3 208 206 207
3 207 55 208
3 206 51 207
3 208 50 206
3 199 209 207
3 207 51 199
3 209 55 207
3 199 15 209
3 188 198 206
3 206 50 188
3 198 51 206
3 188 14 198
3 210 191 208
3 208 55 210
3 191 50 208
3 210 7 191
3 213 211 212
3 212 57 213
3 211 53 212
3 213 56 211
3 195 214 212
3 212 53 195
3 214 57 212
3 195 16 214
3 215 200 211
3 211 56 215
3 200 53 211
3 215 15 200
3 217 216 213
3 213 57 217
3 216 56 213
3 217 9 216
3 220 218 219
3 219 60 220
3 218 59 219
3 220 58 218
3 222 221 219
3 219 59 222
3 221 60 219
3 222 19 221
3 224 223 218
3 218 58 224
3 223 59 218
3 224 18 223
3 226 225 220
3 220 60 226
3 225 58 220
3 226 17 225
3 229 227 228
3 228 62 229
3 227 59 228
3 229 61 227
3 223 230 228
3 228 59 223
3 230 62 228
3 223 18 230
3 231 222 227
3 227 61 231
3 222 59 227
3 231 19 222
3 233 232 229
3 229 62 233
3 232 61 229
3 233 5 232
3 236 234 235
3 235 64 236
3 234 58 235
3 236 63 234
3 225 237 235
3 235 58 225
3 237 64 235
3 225 17 237
3 238 224 234
3 234 63 238
3 224 58 234
3 238 18 224
3 240 239 236
3 236 64 240
3 239 63 236
3 240 6 239
3 243 241 242
3 242 66 243
3 241 60 242
3 243 65 241
3 221 244 242
3 242 60 221
3 244 66 242
3 221 19 244
3 245 226 241
3 241 65 245
3 226 60 241
3 245 17 226
3 247 246 243
3 243 66 247
3 246 65 243
3 247 11 246
3 250 248 249
3 249 69 250
3 248 68 249
3 250 67 248
3 252 251 249
3 249 68 252
3 251 69 249
3 252 18 251
3 254 253 248
3 248 67 254
3 253 68 248
3 254 21 253
3 256 255 250
3 250 69 256
3 255 67 250
3 256 20 255
3 259 257 258
3 258 70 259
3 257 68 258
3 259 62 257
3 253 260 258
3 258 68 253
3 260 70 258
3 253 21 260
3 230 252 257
3 257 62 230
3 252 68 257
3 230 18 252
3 261 233 259
3 259 70 261
3 233 62 259
3 261 5 233
3 264 262 263
3 263 72 264
3 262 67 263
3 264 71 262
3 255 265 263
3 263 67 255
3 265 72 263
3 255 20 265
3 266 254 262
3 262 71 266
3 254 67 262
3 266 21 254
3 268 267 264
3 264 72 268
3 267 71 264
3 268 10 267
3 271 269 270
3 270 63 271
3 269 69 270
3 271 73 269
3 251 238 270
3 270 69 251
3 238 63 270
3 251 18 238
3 272 256 269
3 269 73 272
3 256 69 269
3 272 20 256
3 239 273 271
3 271 63 239
3 273 73 271
3 239 6 273
3 276 274 275
3 275 76 276
3 274 75 275
3 276 74 274
3 278 277 275
3 275 75 278
3 277 76 275
3 278 24 277
3 280 279 274
3 274 74 280
3 279 75 274
3 280 23 279
3 282 281 276
3 276 76 282
3 281 74 276
3 282 22 281
3 285 283 284
3 284 78 285
3 283 75 284
3 285 77 283
3 279 286 284
3 284 75 279
3 286 78 284
3 279 23 286
3 287 278 283
3 283 77 287
3 278 75 283
3 287 24 278
3 289 288 285
3 285 78 289
3 288 77 285
3 289 0 288
3 292 290 291
3 291 80 292
3 290 74 291
3 292 79 290
3 281 293 291
3 291 74 281
3 293 80 291
3 281 22 293
3 294 280 290
3 290 79 294
3 280 74 290
3 294 23 280
3 296 295 292
3 292 80 296
3 295 79 292
3 296 4 295
3 299 297 298
3 298 82 299
3 297 76 298
3 299 81 297
3 277 300 298
3 298 76 277
3 300 82 298
3 277 24 300
3 301 282 297
3 297 81 301
3 282 76 297
3 301 22 282
3 303 302 299
3 299 82 303
3 302 81 299
3 303 3 302
3 306 304 305
3 305 85 306
3 304 84 305
3 306 83 304
3 308 307 305
3 305 84 308
3 307 85 305
3 308 26 307
3 310 309 304
3 304 83 310
3 309 84 304
3 310 24 309
3 312 311 306
3 306 85 312
3 311 83 306
3 312 25 311
3 315 313 314
3 314 77 315
3 313 84 314
3 315 86 313
3 309 287 314
3 314 84 309
3 287 77 314
3 309 24 287
3 316 308 313
3 313 86 316
3 308 84 313
3 316 26 308
3 288 317 315
3 315 77 288
3 317 86 315
3 288 0 317
3 320 318 319
3 319 87 320
3 318 83 319
3 320 82 318
3 311 321 319
3 319 83 311
3 321 87 319
3 311 25 321
3 300 310 318
3 318 82 300
3 310 83 318
3 300 24 310
3 322 303 320
3 320 87 322
3 303 82 320
3 322 3 303
3 325 323 324
3 324 89 325
3 323 85 324
3 325 88 323
3 307 326 324
3 324 85 307
3 326 89 324
3 307 26 326
3 327 312 323
3 323 88 327
3 312 85 323
3 327 25 312
3 329 328 325
3 325 89 329
3 328 88 325
3 329 5 328
3 332 330 331
3 331 92 332
3 330 91 331
3 332 90 330
3 334 333 331
3 331 91 334
3 333 92 331
3 334 29 333
3 336 335 330
3 330 90 336
3 335 91 330
3 336 28 335
3 338 337 332
3 332 92 338
3 337 90 332
3 338 27 337
3 341 339 340
3 340 94 341
3 339 91 340
3 341 93 339
3 335 342 340
3 340 91 335
3 342 94 340
3 335 28 342
3 343 334 339
3 339 93 343
3 334 91 339
3 343 29 334
3 345 344 341
3 341 94 345
3 344 93 341
3 345 2 344
3 348 346 347
3 347 96 348
3 346 90 347
3 348 95 346
3 337 349 347
3 347 90 337
3 349 96 347
3 337 27 349
3 350 336 346
3 346 95 350
3 336 90 346
3 350 28 336
3 352 351 348
3 348 96 352
3 351 95 348
3 352 7 351
3 355 353 354
3 354 98 355
3 353 92 354
3 355 97 353
3 333 356 354
3 354 92 333
3 356 98 354
3 333 29 356
3 357 338 353
3 353 97 357
3 338 92 353
3 357 27 338
3 359 358 355
3 355 98 359
3 358 97 355
3 359 1 358
3 362 360 361
3 361 101 362
3 360 100 361
3 362 99 360
3 364 363 361
3 361 100 364
3 363 101 361
3 364 31 363
3 366 365 360
3 360 99 366
3 365 100 360
3 366 29 365
3 368 367 362
3 362 101 368
3 367 99 362
3 368 30 367
3 371 369 370
3 370 93 371
3 369 100 370
3 371 102 369
3 365 343 370
3 370 100 365
3 343 93 370
3 365 29 343
3 372 364 369
3 369 102 372
3 364 100 369
3 372 31 364
3 344 373 371
3 371 93 344
3 373 102 371
3 344 2 373
3 376 374 375
3 375 103 376
3 374 99 375
3 376 98 374
3 367 377 375
3 375 99 367
3 377 103 375
3 367 30 377
3 356 366 374
3 374 98 356
3 366 99 374
3 356 29 366
3 378 359 376
3 376 103 378
3 359 98 376
3 378 1 359
3 381 379 380
3 380 105 381
3 379 101 380
3 381 104 379
3 363 382 380
3 380 101 363
3 382 105 380
3 363 31 382
3 383 368 379
3 379 104 383
3 368 101 379
3 383 30 368
3 385 384 381
3 381 105 385
3 384 104 381
3 385 6 384
3 388 386 387
3 387 108 388
3 386 107 387
3 388 106 386
3 390 389 387
3 387 107 390
3 389 108 387
3 390 34 389
3 392 391 386
3 386 106 392
3 391 107 386
3 392 33 391
3 394 393 388
3 388 108 394
3 393 106 388
3 394 32 393
3 397 395 396
3 396 110 397
3 395 107 396
3 397 109 395
3 391 398 396
3 396 107 391
3 398 110 396
3 391 33 398
3 399 390 395
3 395 109 399
3 390 107 395
3 399 34 390
3 401 400 397
3 397 110 401
3 400 109 397
3 401 8 400
3 404 402 403
3 403 112 404
3 402 106 403
3 404 111 402
3 393 405 403
3 403 106 393
3 405 112 403
3 393 32 405
3 406 392 402
3 402 111 406
3 392 106 402
3 406 33 392
3 408 407 404
3 404 112 408
3 407 111 404
3 408 0 407
3 411 409 410
3 410 114 411
3 409 108 410
3 411 113 409
3 389 412 410
3 410 108 389
3 412 114 410
3 389 34 412
3 413 394 409
3 409 113 413
3 394 108 409
3 413 32 394
3 415 414 411
3 411 114 415
3 414 113 411
3 415 11 414
3 418 416 417
3 417 117 418
3 416 116 417
3 418 115 416
3 420 419 417
3 417 116 420
3 419 117 417
3 420 36 419
3 422 421 416
3 416 115 422
3 421 116 416
3 422 34 421
3 424 423 418
3 418 117 424
3 423 115 418
3 424 35 423
3 427 425 426
3 426 109 427
3 425 116 426
3 427 118 425
3 421 399 426
3 426 116 421
3 399 109 426
3 421 34 399
3 428 420 425
3 425 118 428
3 420 116 425
3 428 36 420
3 400 429 427
3 427 109 400
3 429 118 427
3 400 8 429
3 432 430 431
3 431 119 432
3 430 115 431
3 432 114 430
3 423 433 431
3 431 115 423
3 433 119 431
3 423 35 433
3 412 422 430
3 430 114 412
3 422 115 430
3 412 34 422
3 434 415 432
3 432 119 434
3 415 114 432
3 434 11 415
3 437 435 436
3 436 121 437
3 435 117 436
3 437 120 435
3 419 438 436
3 436 117 419
3 438 121 436
3 419 36 438
3 439 424 435
3 435 120 439
3 424 117 435
3 439 35 424
3 441 440 437
3 437 121 441
3 440 120 437
3 441 1 440
3 444 442 443
3 443 124 444
3 442 123 443
3 444 122 442
3 446 445 443
3 443 123 446
3 445 124 443
3 446 39 445
3 448 447 442
3 442 122 448
3 447 123 442
3 448 38 447
3 450 449 444
3 444 124 450
3 449 122 444
3 450 37 449
3 453 451 452
3 452 126 453
3 451 123 452
3 453 125 451
3 447 454 452
3 452 123 447
3 454 126 452
3 447 38 454
3 455 446 451
3 451 125 455
3 446 123 451
3 455 39 446
3 457 456 453
3 453 126 457
3 456 125 453
3 457 9 456
3 460 458 459
3 459 128 460
3 458 122 459
3 460 127 458
3 449 461 459
3 459 122 449
3 461 128 459
3 449 37 461
3 462 448 458
3 458 127 462
3 448 122 458
3 462 38 448
3 464 463 460
3 460 128 464
3 463 127 460
3 464 10 463
3 467 465 466
3 466 130 467
3 465 124 466
3 467 129 465
3 445 468 466
3 466 124 445
3 468 130 466
3 445 39 468
3 469 450 465
3 465 129 469
3 450 124 465
3 469 37 450
3 471 470 467
3 467 130 471
3 470 129 467
3 471 3 470
3 474 472 473
3 473 133 474
3 472 132 473
3 474 131 472
3 476 475 473
3 473 132 476
3 475 133 473
3 476 38 475
3 478 477 472
3 472 131 478
3 477 132 472
3 478 41 477
3 480 479 474
3 474 133 480
3 479 131 474
3 480 40 479
3 483 481 482
3 482 134 483
3 481 132 482
3 483 126 481
3 477 484 482
3 482 132 477
3 484 134 482
3 477 41 484
3 454 476 481
3 481 126 454
3 476 132 481
3 454 38 476
3 485 457 483
3 483 134 485
3 457 126 483
3 485 9 457
3 488 486 487
3 487 136 488
3 486 131 487
3 488 135 486
3 479 489 487
3 487 131 479
3 489 136 487
3 479 40 489
3 490 478 486
3 486 135 490
3 478 131 486
3 490 41 478
3 492 491 488
3 488 136 492
3 491 135 488
3 492 2 491
3 495 493 494
3 494 127 495
3 493 133 494
3 495 137 493
3 475 462 494
3 494 133 475
3 462 127 494
3 475 38 462
3 496 480 493
3 493 137 496
3 480 133 493
3 496 40 480
3 463 497 495
3 495 127 463
3 497 137 495
3 463 10 497
3 500 498 499
3 499 140 500
3 498 139 499
3 500 138 498
3 502 501 499
3 499 139 502
3 501 140 499
3 502 33 501
3 504 503 498
3 498 138 504
3 503 139 498
3 504 13 503
3 506 505 500
3 500 140 506
3 505 138 500
3 506 23 505
3 509 507 508
3 508 47 509
3 507 139 508
3 509 110 507
3 503 182 508
3 508 139 503
3 182 47 508
3 503 13 182
3 398 502 507
3 507 110 398
3 502 139 507
3 398 33 502
3 183 401 509
3 509 47 183
3 401 110 509
3 183 8 401
3 512 510 511
3 511 79 512
3 510 138 511
3 512 46 510
3 505 294 511
3 511 138 505
3 294 79 511
3 505 23 294
3 174 504 510
3 510 46 174
3 504 138 510
3 174 13 504
3 295 177 512
3 512 79 295
3 177 46 512
3 295 4 177
3 515 513 514
3 514 111 515
3 513 140 514
3 515 78 513
3 501 406 514
3 514 140 501
3 406 111 514
3 501 33 406
3 286 506 513
3 513 78 286
3 506 140 513
3 286 23 506
3 407 289 515
3 515 111 407
3 289 78 515
3 407 0 289
3 518 516 517
3 517 143 518
3 516 142 517
3 518 141 516
3 520 519 517
3 517 142 520
3 519 143 517
3 520 19 519
3 522 521 516
3 516 141 522
3 521 142 516
3 522 32 521
3 524 523 518
3 518 143 524
3 523 141 518
3 524 26 523
3 527 525 526
3 526 113 527
3 525 142 526
3 527 66 525
3 521 413 526
3 526 142 521
3 413 113 526
3 521 32 413
3 244 520 525
3 525 66 244
3 520 142 525
3 244 19 520
3 414 247 527
3 527 113 414
3 247 66 527
3 414 11 247
3 530 528 529
3 529 86 530
3 528 141 529
3 530 112 528
3 523 316 529
3 529 141 523
3 316 86 529
3 523 26 316
3 405 522 528
3 528 112 405
3 522 141 528
3 405 32 522
3 317 408 530
3 530 86 317
3 408 112 530
3 317 0 408
3 533 531 532
3 532 61 533
3 531 143 532
3 533 89 531
3 519 231 532
3 532 143 519
3 231 61 532
3 519 19 231
3 326 524 531
3 531 89 326
3 524 143 531
3 326 26 524
3 232 329 533
3 533 61 232
3 329 89 533
3 232 5 329
3 536 534 535
3 535 146 536
3 534 145 535
3 536 144 534
3 538 537 535
3 535 145 538
3 537 146 535
3 538 22 537
3 540 539 534
3 534 144 540
3 539 145 534
3 540 16 539
3 542 541 536
3 536 146 542
3 541 144 536
3 542 39 541
3 545 543 544
3 544 54 545
3 543 145 544
3 545 80 543
3 539 204 544
3 544 145 539
3 204 54 544
3 539 16 204
3 293 538 543
3 543 80 293
3 538 145 543
3 293 22 538
3 205 296 545
3 545 54 205
3 296 80 545
3 205 4 296
3 548 546 547
3 547 125 548
3 546 144 547
3 548 57 546
3 541 455 547
3 547 144 541
3 455 125 547
3 541 39 455
3 214 540 546
3 546 57 214
3 540 144 546
3 214 16 540
3 456 217 548
3 548 125 456
3 217 57 548
3 456 9 217
3 551 549 550
3 550 81 551
3 549 146 550
3 551 130 549
3 537 301 550
3 550 146 537
3 301 81 550
3 537 22 301
3 468 542 549
3 549 130 468
3 542 146 549
3 468 39 542
3 302 471 551
3 551 81 302
3 471 130 551
3 302 3 471
3 554 552 553
3 553 149 554
3 552 148 553
3 554 147 552
3 556 555 553
3 553 148 556
3 555 149 553
3 556 21 555
3 558 557 552
3 552 147 558
3 557 148 552
3 558 25 557
3 560 559 554
3 554 149 560
3 559 147 554
3 560 37 559
3 563 561 562
3 562 88 563
3 561 148 562
3 563 70 561
3 557 327 562
3 562 148 557
3 327 88 562
3 557 25 327
3 260 556 561
3 561 70 260
3 556 148 561
3 260 21 556
3 328 261 563
3 563 88 328
3 261 70 563
3 328 5 261
3 566 564 565
3 565 129 566
3 564 147 565
3 566 87 564
3 559 469 565
3 565 147 559
3 469 129 565
3 559 37 469
3 321 558 564
3 564 87 321
3 558 147 564
3 321 25 558
3 470 322 566
3 566 129 470
3 322 87 566
3 470 3 322
3 569 567 568
3 568 71 569
3 567 149 568
3 569 128 567
3 555 266 568
3 568 149 555
3 266 71 568
3 555 21 266
3 461 560 567
3 567 128 461
3 560 149 567
3 461 37 560
3 267 464 569
3 569 71 267
3 464 128 569
3 267 10 464
3 572 570 571
3 571 152 572
3 570 151 571
3 572 150 570
3 574 573 571
3 571 151 574
3 573 152 571
3 574 27 573
3 576 575 570
3 570 150 576
3 575 151 570
3 576 12 575
3 578 577 572
3 572 152 578
3 577 150 572
3 578 36 577
3 581 579 580
3 580 49 581
3 579 151 580
3 581 96 579
3 575 189 580
3 580 151 575
3 189 49 580
3 575 12 189
3 349 574 579
3 579 96 349
3 574 151 579
3 349 27 574
3 190 352 581
3 581 49 190
3 352 96 581
3 190 7 352
3 584 582 583
3 583 118 584
3 582 150 583
3 584 48 582
3 577 428 583
3 583 150 577
3 428 118 583
3 577 36 428
3 181 576 582
3 582 48 181
3 576 150 582
3 181 12 576
3 429 184 584
3 584 118 429
3 184 48 584
3 429 8 184
3 587 585 586
3 586 97 587
3 585 152 586
3 587 121 585
3 573 357 586
3 586 152 573
3 357 97 586
3 573 27 357
3 438 578 585
3 585 121 438
3 578 152 585
3 438 36 578
3 358 441 587
3 587 97 358
3 441 121 587
3 358 1 441
3 590 588 589
3 589 155 590
3 588 154 589
3 590 153 588
3 592 591 589
3 589 154 592
3 591 155 589
3 592 17 591
3 594 593 588
3 588 153 594
3 593 154 588
3 594 30 593
3 596 595 590
3 590 155 596
3 595 153 590
3 596 35 595
3 599 597 598
3 598 104 599
3 597 154 598
3 599 64 597
3 593 383 598
3 598 154 593
3 383 104 598
3 593 30 383
3 237 592 597
3 597 64 237
3 592 154 597
3 237 17 592
3 384 240 599
3 599 104 384
3 240 64 599
3 384 6 240
3 602 600 601
3 601 120 602
3 600 153 601
3 602 103 600
3 595 439 601
3 601 153 595
3 439 120 601
3 595 35 439
3 377 594 600
3 600 103 377
3 594 153 600
3 377 30 594
3 440 378 602
3 602 120 440
3 378 103 602
3 440 1 378
3 605 603 604
3 604 65 605
3 603 155 604
3 605 119 603
3 591 245 604
3 604 155 591
3 245 65 604
3 591 17 245
3 433 596 603
3 603 119 433
3 596 155 603
3 433 35 596
3 246 434 605
3 605 65 246
3 434 119 605
3 246 11 434
3 608 606 607
3 607 158 608
3 606 157 607
3 608 156 606
3 610 609 607
3 607 157 610
3 609 158 607
3 610 15 609
3 612 611 606
3 606 156 612
3 611 157 606
3 612 28 611
3 614 613 608
3 608 158 614
3 613 156 608
3 614 41 613
3 617 615 616
3 616 95 617
3 615 157 616
3 617 55 615
3 611 350 616
3 616 157 611
3 350 95 616
3 611 28 350
3 209 610 615
3 615 55 209
3 610 157 615
3 209 15 610
3 351 210 617
3 617 95 351
3 210 55 617
3 351 7 210
3 620 618 619
3 619 135 620
3 618 156 619
3 620 94 618
3 613 490 619
3 619 156 613
3 490 135 619
3 613 41 490
3 342 612 618
3 618 94 342
3 612 156 618
3 342 28 612
3 491 345 620
3 620 135 491
3 345 94 620
3 491 2 345
3 623 621 622
3 622 56 623
3 621 158 622
3 623 134 621
3 609 215 622
3 622 158 609
3 215 56 622
3 609 15 215
3 484 614 621
3 621 134 484
3 614 158 621
3 484 41 614
3 216 485 623
3 623 56 216
3 485 134 623
3 216 9 485
3 626 624 625
3 625 161 626
3 624 160 625
3 626 159 624
3 628 627 625
3 625 160 628
3 627 161 625
3 628 31 627
3 630 629 624
3 624 159 630
3 629 160 624
3 630 20 629
3 632 631 626
3 626 161 632
3 631 159 626
3 632 40 631
3 635 633 634
3 634 73 635
3 633 160 634
3 635 105 633
3 629 272 634
3 634 160 629
3 272 73 634
3 629 20 272
3 382 628 633
3 633 105 382
3 628 160 633
3 382 31 628
3 273 385 635
3 635 73 273
3 385 105 635
3 273 6 385
3 638 636 637
3 637 137 638
3 636 159 637
3 638 72 636
3 631 496 637
3 637 159 631
3 496 137 637
3 631 40 496
3 265 630 636
3 636 72 265
3 630 159 636
3 265 20 630
3 497 268 638
3 638 137 497
3 268 72 638
3 497 10 268
3 641 639 640
3 640 102 641
3 639 161 640
3 641 136 639
3 627 372 640
3 640 161 627
3 372 102 640
3 627 31 372
3 489 632 639
3 639 136 489
3 632 161 639
3 489 40 632
3 373 492 641
3 641 102 373
3 492 136 641
3 373 2 492
