# vtk DataFile Version 3.0
this file was written using fslvtkio
ASCII
DATASET POLYDATA
POINTS 642 float
164.472 103.954 118.715
163.861 107.418 118.634
164.867 105.932 120.398
165.256 103.515 121.459
166.255 104.316 119.215
163.507 104.11 120.624
163.624 105.854 120.245
165.918 105.436 118.701
165.093 105.472 116.881
166.405 105.047 121.141
164.453 104.737 122.584
163.203 105.703 118.471
165.572 105.876 117.974
165.905 104.58 117.881
166.589 104.772 118.96
166.292 105.289 119.947
167.114 104.444 119.705
163.161 105.95 119.495
163.597 105.036 120.369
163.835 105.101 119.385
164.286 104.835 121.148
163.974 104.387 121.781
165.656 104.121 120.067
165.413 104.019 118.844
164.859 103.757 120.07
164.437 103.411 120.95
164.028 103.994 119.759
164.949 106.683 118.917
165.269 105.607 119.677
164.413 107.011 119.636
163.227 107.255 119.753
164.219 105.796 120.192
163.82 104.582 118.433
164.91 104.727 117.66
163.696 105.786 117.198
163.16 107.183 118.467
164.548 107.063 117.309
164.851 103.899 122.536
165.549 104.85 122.895
166.295 104.147 121.287
164.894 105.069 121.61
165.656 105.539 121.163
165.909 105.189 117.94
166.306 104.719 118.418
166.032 105.163 118.347
166.603 104.439 118.955
166.301 104.211 118.556
165.421 105.217 117.48
165.468 105.697 117.184
165.842 105.624 118.541
166.226 105.05 118.761
166.568 104.739 119.484
166.982 104.535 119.567
167.054 105.064 120.136
166.689 104.236 119.47
166.225 105.226 119.189
166.651 105.364 120.696
166.906 104.768 120.606
163.648 105.456 119.832
163.754 105.06 119.9
163.482 105.636 119.258
163.683 104.383 120.014
163.554 104.542 120.468
163.527 105.548 120.243
163.399 106.015 119.799
163.118 106.046 118.853
163.231 105.322 118.843
164.143 104.675 121.635
163.979 104.603 121.011
164.053 104.825 120.641
163.946 104.201 120.899
164.311 104.366 122.359
164.466 104.653 121.875
163.909 105.394 120.269
165.555 104.2 119.453
165.103 104.042 119.543
165.207 103.985 120.139
164.647 103.955 119.315
164.908 104.069 118.803
165.919 104.237 118.867
166.071 104.372 119.618
165.38 103.916 120.946
164.992 103.706 120.883
164.573 103.587 120.707
164.38 103.956 119.989
164.054 103.695 120.432
164.264 103.956 119.084
164.799 103.482 121.691
163.915 103.897 120.868
163.668 103.976 120.322
165.243 106.306 119.249
164.941 106.497 119.575
164.656 107.011 119.228
164.673 106.615 120.057
165.059 105.782 120.081
165.638 105.597 119.162
165.613 106.07 118.617
164.293 106.93 118.41
164.147 107.3 119.081
163.726 107.445 119.667
164.139 106.999 120.041
163.672 106.952 120.222
164.554 105.774 120.273
163.505 107.491 119.028
163.538 106.35 119.87
163.757 105.97 120.191
164.416 104.674 117.966
164.344 105.031 117.482
163.93 104.921 117.905
164.419 105.821 116.92
165.01 104.894 116.826
164.602 104.407 118.258
164.153 104.057 118.415
163.419 105.172 118.218
163.454 105.73 117.779
163.273 106.79 117.279
163.848 106.87 116.946
163.71 107.426 117.529
164.716 106.222 116.851
163.031 106.416 117.999
163.509 107.558 118.453
164.151 107.267 117.932
165.344 104.273 123.306
166.205 104.354 122.398
165.765 104.082 122.346
166.156 104.529 121.245
166.08 104.886 122.079
164.805 104.662 123.032
164.818 104.188 122.664
165.135 103.435 122.198
165.614 103.859 121.763
165.288 105.476 121.609
165.639 105.33 122.047
165.123 105.266 122.395
166.05 105.443 121.365
165.255 105.832 120.888
164.866 105.625 120.988
164.626 104.911 122.386
165.629 104.296 118.189
165.411 104.592 117.56
165.283 104.136 118.199
163.731 104.239 119.025
163.427 104.651 118.946
163.794 104.445 119.381
166.689 104.127 120.132
166.374 104.215 120.142
165.916 104.184 120.625
164.349 103.447 121.783
164.222 103.739 121.534
164.428 103.78 121.844
165.095 106.448 117.329
165.18 106.236 118.326
165.021 106.764 117.85
163.008 107.318 119.228
163.025 106.586 119.435
163.015 106.585 118.9
165.6 105.557 120.335
165.849 105.329 119.687
166.026 105.381 120.655
164.496 104.798 121.375
164.296 105.059 120.542
164.567 105.178 120.798
166.171 104.849 117.989
166.194 104.942 118.403
165.95 105.221 118.108
166.345 104.977 118.581
166.415 104.727 118.738
166.102 104.662 118.164
165.936 104.789 117.845
165.771 105.576 117.812
165.761 105.462 118.196
166.539 104.556 118.699
166.42 104.397 118.436
166.415 104.342 118.873
166.13 104.265 118.223
166.661 104.601 119.035
166.477 104.26 119.178
166.306 104.231 118.961
165.652 105.28 117.711
165.713 105.504 117.463
165.457 105.41 117.338
165.51 105.84 117.577
165.698 104.959 117.652
165.285 105.262 117.047
165.275 105.593 116.918
165.933 105.426 118.487
166.155 105.178 118.645
166.035 105.392 118.683
166.404 104.896 118.831
165.753 105.705 118.317
165.865 105.531 118.659
166.019 105.259 118.818
166.86 104.661 119.476
167.244 104.582 119.832
166.895 104.822 119.793
167.216 104.721 120.106
167.28 104.29 119.733
166.924 104.673 119.166
166.635 104.865 119.184
166.537 104.835 119.705
166.675 105.218 120.04
166.905 104.361 119.48
166.84 104.483 119.174
166.717 104.427 119.252
166.984 104.042 119.587
166.464 104.403 119.326
166.475 104.94 119.043
166.441 104.887 119.24
166.291 105.017 118.974
166.223 105.088 119.453
166.032 105.338 119.052
166.806 105.374 120.416
167.003 105.044 120.385
166.695 105.035 120.769
167.005 104.708 120.172
166.502 105.324 120.238
166.458 105.184 121.049
166.608 104.866 121.044
163.716 105.292 119.783
163.637 105.282 119.53
163.459 105.495 119.516
163.619 105.383 119.298
163.832 105.077 119.577
163.785 105.041 120.158
163.719 105.335 120.038
163.247 105.681 119.66
163.258 105.785 119.356
163.716 104.703 119.918
163.783 104.764 120.092
163.645 104.483 120.197
163.618 104.811 120.444
163.94 104.716 119.597
163.675 104.2 120.293
163.529 104.308 120.504
163.684 105.593 119.997
163.512 105.758 119.854
163.664 105.849 120.004
163.065 106.004 119.661
163.583 105.26 120.324
163.546 105.796 120.325
163.661 105.961 119.992
163.186 105.771 119.109
163.419 105.57 119.035
163.096 105.704 118.896
163.413 105.218 119.127
163.234 106.095 119.085
163.126 105.915 118.631
163.279 105.525 118.629
164.09 104.601 121.372
163.971 104.687 120.895
164.208 104.687 121.194
163.731 104.989 120.596
163.77 104.747 120.672
164.073 104.395 121.409
164.142 104.521 121.726
164.229 104.847 121.454
164.268 104.843 120.785
163.723 104.551 120.753
163.948 104.379 120.96
163.736 104.347 120.695
164.031 104.201 121.365
163.612 104.131 120.759
164.181 104.554 122.005
164.259 104.644 121.788
164.389 104.594 122.069
164.333 104.726 121.507
164.151 104.3 122.11
164.345 104.564 122.597
164.429 104.619 122.257
164.004 105.085 120.403
163.645 105.262 120.624
163.632 105.448 120.472
164.267 104.929 120.435
163.554 105.796 120.472
165.347 104.147 119.488
165.182 104.062 119.806
165.342 104.19 119.826
165.033 103.869 120.207
164.933 103.945 119.808
165.193 104.141 119.252
165.505 104.206 119.085
165.614 104.183 119.862
165.393 104.056 120.191
164.848 104.213 119.491
164.983 104.081 119.151
164.839 103.819 119.006
165.16 103.952 118.806
164.672 104.1 119.78
164.615 103.778 118.882
164.662 104.108 118.805
165.786 104.203 119.203
165.777 104.293 119.567
166.006 104.191 119.282
165.836 104.343 119.853
165.651 104.304 118.858
166.163 104.159 118.934
166.219 104.304 119.319
165.302 103.936 120.57
165.161 103.836 120.565
165.216 103.811 120.901
164.845 103.852 120.617
165.506 104.038 120.556
165.382 103.686 121.277
165.087 103.689 121.264
164.399 103.632 120.316
164.187 103.596 120.218
164.344 103.523 120.6
164.028 103.815 120.053
164.223 103.947 119.81
164.593 103.844 120.079
164.679 103.657 120.425
164.561 103.549 120.929
164.268 103.575 120.769
164.243 103.978 119.458
164.417 104.138 119.723
164.433 103.816 119.119
164.13 104.054 119.436
164.353 103.916 118.804
164.761 103.692 120.929
164.757 103.573 121.21
164.884 103.649 121.271
164.647 103.463 121.452
165.041 103.507 121.656
163.963 103.766 120.682
163.86 103.73 120.385
163.674 103.638 120.654
163.872 104.003 120.005
164.165 103.734 120.843
163.658 103.911 120.795
163.608 103.98 120.526
165.063 106.419 119.405
164.841 106.837 119.39
164.99 106.756 119.239
164.518 107.197 119.444
164.696 106.843 119.664
165.097 105.956 119.716
165.235 105.89 119.427
165.132 106.588 119.043
164.8 106.86 119.002
164.851 106.6 119.842
164.969 106.214 119.879
164.853 106.169 120.019
165.139 105.637 119.936
164.535 106.801 119.855
164.765 106.095 120.237
164.977 105.953 120.283
165.457 105.949 119.168
165.442 106.164 118.899
165.625 106.046 118.939
165.316 106.431 118.757
165.43 105.507 119.445
165.773 105.416 118.896
165.704 105.712 118.686
164.479 106.915 118.82
164.388 107.161 119.114
164.242 107.051 118.739
164.281 107.33 119.42
164.634 106.85 118.642
164.106 107.254 118.467
164.007 107.243 118.749
163.928 107.223 119.843
163.837 107.145 120.155
163.637 107.172 119.838
163.869 106.527 120.327
164.115 106.572 120.183
164.243 106.992 119.795
164.075 107.237 119.618
163.434 107.52 119.603
163.457 106.947 119.769
164.351 106.447 120.227
164.376 106.881 120.123
164.582 106.28 120.186
164.362 105.883 120.228
164.692 105.77 120.337
163.941 107.378 119.371
163.671 107.673 119.358
163.875 107.325 118.986
163.334 107.591 119.392
163.699 107.46 118.732
163.613 106.492 119.935
163.718 106.488 120.238
163.661 106.297 120.093
163.981 105.876 120.208
163.353 106.712 119.825
163.703 106.016 119.997
163.546 105.985 120.312
164.475 104.921 117.848
164.127 104.969 117.695
164.114 104.72 118.013
163.86 105.336 117.568
164.028 105.365 117.364
164.699 104.859 117.535
164.717 104.599 117.842
164.107 104.538 118.286
163.841 104.568 118.146
164.326 105.605 117.124
164.564 105.201 116.974
164.608 105.567 117.096
164.959 104.775 117.137
163.945 105.913 117.116
164.733 105.55 116.909
165.03 105.304 116.838
164.458 104.696 118.203
164.263 104.548 118.415
164.393 104.3 118.327
164.006 104.444 118.628
164.833 104.424 118.005
164.56 104.073 118.542
164.317 103.908 118.484
163.609 104.966 117.906
163.605 105.265 117.754
163.412 105.249 117.931
163.597 105.795 117.497
163.531 104.843 118.424
163.35 105.597 118.165
163.269 105.615 118.116
163.511 106.997 117.025
163.899 107.354 117.052
163.348 107.412 117.376
164.153 107.317 117.351
164.229 107.016 117.066
163.694 106.421 117.042
163.553 106.324 117.173
163.369 106.95 117.785
163.325 107.361 117.937
164.266 106.472 116.871
164.127 106.257 116.901
164.566 106.003 116.831
164.578 106.717 116.974
164.886 105.771 116.857
163.446 106.224 117.462
163.363 106.351 117.593
163.308 106.047 117.753
163.116 106.798 118.239
162.977 105.975 118.217
163.591 107.324 118.055
164.003 107.471 117.669
163.816 107.396 118.069
164.447 107.144 117.698
163.239 107.414 118.479
163.756 107.594 118.39
163.976 107.375 118.264
165.844 104.353 123.097
166.074 104.012 122.234
165.571 103.904 122.476
166.164 104.105 121.743
166.443 104.233 121.732
165.866 104.693 122.757
165.449 104.717 123.174
164.928 103.905 122.897
165.074 103.937 122.416
166.253 104.419 121.72
166.103 104.708 122.295
166.192 104.677 121.56
165.763 104.947 122.495
166.251 104.353 121.123
166.424 104.692 121.092
166.322 104.843 121.581
164.954 104.712 123.439
164.814 104.319 123.212
164.856 104.375 122.763
164.608 104.11 122.674
165.09 105.094 123.072
164.572 104.659 122.94
164.679 104.489 122.537
165.456 103.831 122.217
165.757 103.919 122.108
165.494 103.594 122.107
165.983 104.026 121.404
165.038 103.559 122.246
165.249 103.49 121.801
165.394 103.655 121.637
165.492 105.404 121.725
165.393 105.326 122.239
165.168 105.283 121.868
165.271 105.275 122.725
165.527 105.205 122.564
165.789 105.513 121.54
165.507 105.585 121.393
165.033 105.313 121.679
164.931 105.211 122.083
165.83 105.122 122.197
165.887 105.211 121.79
166.074 105.13 121.851
165.914 105.413 121.251
166.167 105.273 121.409
165.259 105.597 121.222
165.083 105.397 121.291
165.092 105.789 121.032
164.903 105.167 121.234
165.462 105.743 121.005
165.049 105.831 120.66
164.88 105.721 120.61
164.819 105.003 122.431
164.891 105.238 122.813
164.76 104.805 122.761
164.75 105.156 122.068
164.549 104.789 122.533
165.575 104.385 117.795
165.33 104.423 117.837
165.415 104.267 118.177
165.045 104.536 118.038
165.146 104.635 117.579
165.705 104.505 117.572
165.858 104.319 117.946
165.532 104.24 118.568
165.327 104.082 118.574
165.19 104.892 117.246
165.387 105.001 117.412
165.279 105.021 117.008
165.992 104.144 118.235
165.804 104.332 118.515
166.063 104.294 118.63
165.042 104.274 118.538
164.941 104.221 118.25
164.774 104.302 118.57
163.544 104.429 118.979
163.621 104.69 119.238
163.712 104.339 119.249
163.798 104.748 119.385
163.582 104.921 119.172
163.557 104.592 118.691
163.694 104.395 118.774
163.894 104.217 119.392
163.838 104.225 119.524
163.299 104.972 118.761
163.526 105.036 118.683
163.303 105.223 118.48
163.856 104.004 118.646
163.969 104.102 119.018
164.085 103.894 118.629
163.648 104.163 119.839
163.753 104.29 119.691
163.596 104.057 120.073
166.535 104.132 120.113
166.042 104.269 120.333
166.194 104.241 120.489
165.745 104.182 120.383
166.006 104.107 120.129
166.71 104.28 119.747
166.964 104.423 119.748
166.304 104.169 120.618
166.017 104.129 120.932
166.195 104.312 119.96
166.522 104.201 119.74
166.318 104.403 119.639
166.898 104.234 120.484
166.379 104.29 120.818
166.752 104.496 120.848
165.754 104.019 121.03
165.682 103.886 120.801
165.531 103.873 121.281
164.186 103.582 121.503
164.075 103.713 121.744
164.405 103.739 121.777
164.048 104.065 121.96
164.156 103.998 121.812
164.354 103.57 121.211
164.358 103.278 121.472
164.473 103.672 122.234
164.467 103.81 122.206
164.167 104.059 121.287
164.176 103.887 121.135
164.069 104.044 120.908
164.686 103.237 122.024
164.769 103.305 122.197
164.941 103.249 122.089
164.634 103.876 122.304
164.259 104.039 122.487
164.58 104.146 122.644
165.159 106.401 117.846
165.116 106.538 118.065
165.092 106.673 117.562
164.983 106.564 118.364
165.01 106.462 118.587
165.421 106.131 118.091
165.229 106.11 117.755
164.929 106.737 117.151
164.966 106.942 117.48
165.478 106.123 118.35
165.655 105.916 118.314
165.671 105.813 118.416
165.243 105.992 117.25
165.028 106.295 116.914
165.138 105.917 116.852
164.57 107.028 117.745
164.595 106.921 118.038
164.293 107.134 118.036
162.994 106.969 119.32
163.075 106.586 119.246
162.982 106.983 119.112
163.12 106.235 119.153
163.056 106.245 119.446
163.066 106.957 119.654
163.14 107.307 119.462
163.051 107.227 118.956
163.055 106.918 118.752
163.099 106.346 119.708
163.32 106.491 119.656
163.525 106.213 119.749
163.292 107.43 118.987
163.163 107.519 118.875
163.487 107.574 118.676
162.95 106.568 118.493
163.188 106.308 118.612
162.861 106.343 118.496
165.729 105.386 120.074
165.918 105.257 120.186
165.771 105.394 120.53
166.166 105.39 120.291
166.064 105.234 119.829
165.549 105.307 119.662
165.434 105.448 119.911
165.629 105.567 120.73
165.855 105.326 120.964
166.062 105.266 119.481
165.776 105.485 119.414
165.904 105.46 119.254
165.325 105.617 120.218
165.499 105.749 120.672
165.191 105.744 120.509
166.206 105.233 120.908
166.383 105.305 120.67
166.412 105.426 121.014
164.423 105.048 121.069
164.447 105.072 120.636
164.578 105.058 121.08
164.394 105.434 120.439
164.271 105.288 120.261
164.335 104.884 120.768
164.329 104.822 121.32
164.689 104.8 121.439
164.74 104.947 121.118
164.056 105.456 120.209
164.067 105.313 120.336
163.839 105.643 120.293
164.488 104.752 121.756
164.562 104.795 121.9
164.517 104.689 122.206
164.692 105.401 120.9
164.546 105.567 120.547
164.673 105.638 120.658
POLYGONS 1280  5120
3 164 162 163
3 163 44 164
3 162 43 163
3 164 42 162
3 166 165 163
3 163 43 166
3 165 44 163
3 166 14 165
3 168 167 162
3 162 42 168
3 167 43 162
3 168 13 167
3 170 169 164
3 164 44 170
3 169 42 164
3 170 12 169
3 173 171 172
3 172 46 173
3 171 43 172
3 173 45 171
3 167 174 172
3 172 43 167
3 174 46 172
3 167 13 174
3 175 166 171
3 171 45 175
3 166 43 171
3 175 14 166
3 177 176 173
3 173 46 177
3 176 45 173
3 177 4 176
3 180 178 179
3 179 48 180
3 178 42 179
3 180 47 178
3 169 181 179
3 179 42 169
3 181 48 179
3 169 12 181
3 182 168 178
3 178 47 182
3 168 42 178
3 182 13 168
3 184 183 180
3 180 48 184
3 183 47 180
3 184 8 183
3 187 185 186
3 186 50 187
3 185 44 186
3 187 49 185
3 165 188 186
3 186 44 165
3 188 50 186
3 165 14 188
3 189 170 185
3 185 49 189
3 170 44 185
3 189 12 170
3 191 190 187
3 187 50 191
3 190 49 187
3 191 7 190
3 194 192 193
3 193 53 194
3 192 52 193
3 194 51 192
3 196 195 193
3 193 52 196
3 195 53 193
3 196 16 195
3 198 197 192
3 192 51 198
3 197 52 192
3 198 14 197
3 200 199 194
3 194 53 200
3 199 51 194
3 200 15 199
3 203 201 202
3 202 45 203
3 201 52 202
3 203 54 201
3 197 175 202
3 202 52 197
3 175 45 202
3 197 14 175
3 204 196 201
3 201 54 204
3 196 52 201
3 204 16 196
3 176 205 203
3 203 45 176
3 205 54 203
3 176 4 205
3 208 206 207
3 207 55 208
3 206 51 207
3 208 50 206
3 199 209 207
3 207 51 199
3 209 55 207
3 199 15 209
3 188 198 206
3 206 50 188
3 198 51 206
3 188 14 198
3 210 191 208
3 208 55 210
3 191 50 208
3 210 7 191
3 213 211 212
3 212 57 213
3 211 53 212
3 213 56 211
3 195 214 212
3 212 53 195
3 214 57 212
3 195 16 214
3 215 200 211
3 211 56 215
3 200 53 211
3 215 15 200
3 217 216 213
3 213 57 217
3 216 56 213
3 217 9 216
3 220 218 219
3 219 60 220
3 218 59 219
3 220 58 218
3 222 221 219
3 219 59 222
3 221 60 219
3 222 19 221
3 224 223 218
3 218 58 224
3 223 59 218
3 224 18 223
3 226 225 220
3 220 60 226
3 225 58 220
3 226 17 225
3 229 227 228
3 228 62 229
3 227 59 228
3 229 61 227
3 223 230 228
3 228 59 223
3 230 62 228
3 223 18 230
3 231 222 227
3 227 61 231
3 222 59 227
3 231 19 222
3 233 232 229
3 229 62 233
3 232 61 229
3 233 5 232
3 236 234 235
3 235 64 236
3 234 58 235
3 236 63 234
3 225 237 235
3 235 58 225
3 237 64 235
3 225 17 237
3 238 224 234
3 234 63 238
3 224 58 234
3 238 18 224
3 240 239 236
3 236 64 240
3 239 63 236
3 240 6 239
3 243 241 242
3 242 66 243
3 241 60 242
3 243 65 241
3 221 244 242
3 242 60 221
3 244 66 242
3 221 19 244
3 245 226 241
3 241 65 245
3 226 60 241
3 245 17 226
3 247 246 243
3 243 66 247
3 246 65 243
3 247 11 246
3 250 248 249
3 249 69 250
3 248 68 249
3 250 67 248
3 252 251 249
3 249 68 252
3 251 69 249
3 252 18 251
3 254 253 248
3 248 67 254
3 253 68 248
3 254 21 253
3 256 255 250
3 250 69 256
3 255 67 250
3 256 20 255
3 259 257 258
3 258 70 259
3 257 68 258
3 259 62 257
3 253 260 258
3 258 68 253
3 260 70 258
3 253 21 260
3 230 252 257
3 257 62 230
3 252 68 257
3 230 18 252
3 261 233 259
3 259 70 261
3 233 62 259
3 261 5 233
3 264 262 263
3 263 72 264
3 262 67 263
3 264 71 262
3 255 265 263
3 263 67 255
3 265 72 263
3 255 20 265
3 266 254 262
3 262 71 266
3 254 67 262
3 266 21 254
3 268 267 264
3 264 72 268
3 267 71 264
3 268 10 267
3 271 269 270
3 270 63 271
3 269 69 270
3 271 73 269
3 251 238 270
3 270 69 251
3 238 63 270
3 251 18 238
3 272 256 269
3 269 73 272
3 256 69 269
3 272 20 256
3 239 273 271
3 271 63 239
3 273 73 271
3 239 6 273
3 276 274 275
3 275 76 276
3 274 75 275
3 276 74 274
3 278 277 275
3 275 75 278
3 277 76 275
3 278 24 277
3 280 279 274
3 274 74 280
3 279 75 274
3 280 23 279
3 282 281 276
3 276 76 282
3 281 74 276
3 282 22 281
3 285 283 284
3 284 78 285
3 283 75 284
3 285 77 283
3 279 286 284
3 284 75 279
3 286 78 284
3 279 23 286
3 287 278 283
3 283 77 287
3 278 75 283
3 287 24 278
3 289 288 285
3 285 78 289
3 288 77 285
3 289 0 288
3 292 290 291
3 291 80 292
3 290 74 291
3 292 79 290
3 281 293 291
3 291 74 281
3 293 80 291
3 281 22 293
3 294 280 290
3 290 79 294
3 280 74 290
3 294 23 280
3 296 295 292
3 292 80 296
3 295 79 292
3 296 4 295
3 299 297 298
3 298 82 299
3 297 76 298
3 299 81 297
3 277 300 298
3 298 76 277
3 300 82 298
3 277 24 300
3 301 282 297
3 297 81 301
3 282 76 297
3 301 22 282
3 303 302 299
3 299 82 303
3 302 81 299
3 303 3 302
3 306 304 305
3 305 85 306
3 304 84 305
3 306 83 304
3 308 307 305
3 305 84 308
3 307 85 305
3 308 26 307
3 310 309 304
3 304 83 310
3 309 84 304
3 310 24 309
3 312 311 306
3 306 85 312
3 311 83 306
3 312 25 311
3 315 313 314
3 314 77 315
3 313 84 314
3 315 86 313
3 309 287 314
3 314 84 309
3 287 77 314
3 309 24 287
3 316 308 313
3 313 86 316
3 308 84 313
3 316 26 308
3 288 317 315
3 315 77 288
3 317 86 315
3 288 0 317
3 320 318 319
3 319 87 320
3 318 83 319
3 320 82 318
3 311 321 319
3 319 83 311
3 321 87 319
3 311 25 321
3 300 310 318
3 318 82 300
3 310 83 318
3 300 24 310
3 322 303 320
3 320 87 322
3 303 82 320
3 322 3 303
3 325 323 324
3 324 89 325
3 323 85 324
3 325 88 323
3 307 326 324
3 324 85 307
3 326 89 324
3 307 26 326
3 327 312 323
3 323 88 327
3 312 85 323
3 327 25 312
3 329 328 325
3 325 89 329
3 328 88 325
3 329 5 328
3 332 330 331
3 331 92 332
3 330 91 331
3 332 90 330
3 334 333 331
3 331 91 334
3 333 92 331
3 334 29 333
3 336 335 330
3 330 90 336
3 335 91 330
3 336 28 335
3 338 337 332
3 332 92 338
3 337 90 332
3 338 27 337
3 341 339 340
3 340 94 341
3 339 91 340
3 341 93 339
3 335 342 340
3 340 91 335
3 342 94 340
3 335 28 342
3 343 334 339
3 339 93 343
3 334 91 339
3 343 29 334
3 345 344 341
3 341 94 345
3 344 93 341
3 345 2 344
3 348 346 347
3 347 96 348
3 346 90 347
3 348 95 346
3 337 349 347
3 347 90 337
3 349 96 347
3 337 27 349
3 350 336 346
3 346 95 350
3 336 90 346
3 350 28 336
3 352 351 348
3 348 96 352
3 351 95 348
3 352 7 351
3 355 353 354
3 354 98 355
3 353 92 354
3 355 97 353
3 333 356 354
3 354 92 333
3 356 98 354
3 333 29 356
3 357 338 353
3 353 97 357
3 338 92 353
3 357 27 338
3 359 358 355
3 355 98 359
3 358 97 355
3 359 1 358
3 362 360 361
3 361 101 362
3 360 100 361
3 362 99 360
3 364 363 361
3 361 100 364
3 363 101 361
3 364 31 363
3 366 365 360
3 360 99 366
3 365 100 360
3 366 29 365
3 368 367 362
3 362 101 368
3 367 99 362
3 368 30 367
3 371 369 370
3 370 93 371
3 369 100 370
3 371 102 369
3 365 343 370
3 370 100 365
3 343 93 370
3 365 29 343
3 372 364 369
3 369 102 372
3 364 100 369
3 372 31 364
3 344 373 371
3 371 93 344
3 373 102 371
3 344 2 373
3 376 374 375
3 375 103 376
3 374 99 375
3 376 98 374
3 367 377 375
3 375 99 367
3 377 103 375
3 367 30 377
3 356 366 374
3 374 98 356
3 366 99 374
3 356 29 366
3 378 359 376
3 376 103 378
3 359 98 376
3 378 1 359
3 381 379 380
3 380 105 381
3 379 101 380
3 381 104 379
3 363 382 380
3 380 101 363
3 382 105 380
3 363 31 382
3 383 368 379
3 379 104 383
3 368 101 379
3 383 30 368
3 385 384 381
3 381 105 385
3 384 104 381
3 385 6 384
3 388 386 387
3 387 108 388
3 386 107 387
3 388 106 386
3 390 389 387
3 387 107 390
3 389 108 387
3 390 34 389
3 392 391 386
3 386 106 392
3 391 107 386
3 392 33 391
3 394 393 388
3 388 108 394
3 393 106 388
3 394 32 393
3 397 395 396
3 396 110 397
3 395 107 396
3 397 109 395
3 391 398 396
3 396 107 391
3 398 110 396
3 391 33 398
3 399 390 395
3 395 109 399
3 390 107 395
3 399 34 390
3 401 400 397
3 397 110 401
3 400 109 397
3 401 8 400
3 404 402 403
3 403 112 404
3 402 106 403
3 404 111 402
3 393 405 403
3 403 106 393
3 405 112 403
3 393 32 405
3 406 392 402
3 402 111 406
3 392 106 402
3 406 33 392
3 408 407 404
3 404 112 408
3 407 111 404
3 408 0 407
3 411 409 410
3 410 114 411
3 409 108 410
3 411 113 409
3 389 412 410
3 410 108 389
3 412 114 410
3 389 34 412
3 413 394 409
3 409 113 413
3 394 108 409
3 413 32 394
3 415 414 411
3 411 114 415
3 414 113 411
3 415 11 414
3 418 416 417
3 417 117 418
3 416 116 417
3 418 115 416
3 420 419 417
3 417 116 420
3 419 117 417
3 420 36 419
3 422 421 416
3 416 115 422
3 421 116 416
3 422 34 421
3 424 423 418
3 418 117 424
3 423 115 418
3 424 35 423
3 427 425 426
3 426 109 427
3 425 116 426
3 427 118 425
3 421 399 426
3 426 116 421
3 399 109 426
3 421 34 399
3 428 420 425
3 425 118 428
3 420 116 425
3 428 36 420
3 400 429 427
3 427 109 400
3 429 118 427
3 400 8 429
3 432 430 431
3 431 119 432
3 430 115 431
3 432 114 430
3 423 433 431
3 431 115 423
3 433 119 431
3 423 35 433
3 412 422 430
3 430 114 412
3 422 115 430
3 412 34 422
3 434 415 432
3 432 119 434
3 415 114 432
3 434 11 415
3 437 435 436
3 436 121 437
3 435 117 436
3 437 120 435
3 419 438 436
3 436 117 419
3 438 121 436
3 419 36 438
3 439 424 435
3 435 120 439
3 424 117 435
3 439 35 424
3 441 440 437
3 437 121 441
3 440 120 437
3 441 1 440
3 444 442 443
3 443 124 444
3 442 123 443
3 444 122 442
3 446 445 443
3 443 123 446
3 445 124 443
3 446 39 445
3 448 447 442
3 442 122 448
3 447 123 442
3 448 38 447
3 450 449 444
3 444 124 450
3 449 122 444
3 450 37 449
3 453 451 452
3 452 126 453
3 451 123 452
3 453 125 451
3 447 454 452
3 452 123 447
3 454 126 452
3 447 38 454
3 455 446 451
3 451 125 455
3 446 123 451
3 455 39 446
3 457 456 453
3 453 126 457
3 456 125 453
3 457 9 456
3 460 458 459
3 459 128 460
3 458 122 459
3 460 127 458
3 449 461 459
3 459 122 449
3 461 128 459
3 449 37 461
3 462 448 458
3 458 127 462
3 448 122 458
3 462 38 448
3 464 463 460
3 460 128 464
3 463 127 460
3 464 10 463
3 467 465 466
3 466 130 467
3 465 124 466
3 467 129 465
3 445 468 466
3 466 124 445
3 468 130 466
3 445 39 468
3 469 450 465
3 465 129 469
3 450 124 465
3 469 37 450
3 471 470 467
3 467 130 471
3 470 129 467
3 471 3 470
3 474 472 473
3 473 133 474
3 472 132 473
3 474 131 472
3 476 475 473
3 473 132 476
3 475 133 473
3 476 38 475
3 478 477 472
3 472 131 478
3 477 132 472
3 478 41 477
3 480 479 474
3 474 133 480
3 479 131 474
3 480 40 479
3 483 481 482
3 482 134 483
3 481 132 482
3 483 126 481
3 477 484 482
3 482 132 477
3 484 134 482
3 477 41 484
3 454 476 481
3 481 126 454
3 476 132 481
3 454 38 476
3 485 457 483
3 483 134 485
3 457 126 483
3 485 9 457
3 488 486 487
3 487 136 488
3 486 131 487
3 488 135 486
3 479 489 487
3 487 131 479
3 489 136 487
3 479 40 489
3 490 478 486
3 486 135 490
3 478 131 486
3 490 41 478
3 492 491 488
3 488 136 492
3 491 135 488
3 492 2 491
3 495 493 494
3 494 127 495
3 493 133 494
3 495 137 493
3 475 462 494
3 494 133 475
3 462 127 494
3 475 38 462
3 496 480 493
3 493 137 496
3 480 133 493
3 496 40 480
3 463 497 495
3 495 127 463
3 497 137 495
3 463 10 497
3 500 498 499
3 499 140 500
3 498 139 499
3 500 138 498
3 502 501 499
3 499 139 502
3 501 140 499
3 502 33 501
3 504 503 498
3 498 138 504
3 503 139 498
3 504 13 503
3 506 505 500
3 500 140 506
3 505 138 500
3 506 23 505
3 509 507 508
3 508 47 509
3 507 139 508
3 509 110 507
3 503 182 508
3 508 139 503
3 182 47 508
3 503 13 182
3 398 502 507
3 507 110 398
3 502 139 507
3 398 33 502
3 183 401 509
3 509 47 183
3 401 110 509
3 183 8 401
3 512 510 511
3 511 79 512
3 510 138 511
3 512 46 510
3 505 294 511
3 511 138 505
3 294 79 511
3 505 23 294
3 174 504 510
3 510 46 174
3 504 138 510
3 174 13 504
3 295 177 512
3 512 79 295
3 177 46 512
3 295 4 177
3 515 513 514
3 514 111 515
3 513 140 514
3 515 78 513
3 501 406 514
3 514 140 501
3 406 111 514
3 501 33 406
3 286 506 513
3 513 78 286
3 506 140 513
3 286 23 506
3 407 289 515
3 515 111 407
3 289 78 515
3 407 0 289
3 518 516 517
3 517 143 518
3 516 142 517
3 518 141 516
3 520 519 517
3 517 142 520
3 519 143 517
3 520 19 519
3 522 521 516
3 516 141 522
3 521 142 516
3 522 32 521
3 524 523 518
3 518 143 524
3 523 141 518
3 524 26 523
3 527 525 526
3 526 113 527
3 525 142 526
3 527 66 525
3 521 413 526
3 526 142 521
3 413 113 526
3 521 32 413
3 244 520 525
3 525 66 244
3 520 142 525
3 244 19 520
3 414 247 527
3 527 113 414
3 247 66 527
3 414 11 247
3 530 528 529
3 529 86 530
3 528 141 529
3 530 112 528
3 523 316 529
3 529 141 523
3 316 86 529
3 523 26 316
3 405 522 528
3 528 112 405
3 522 141 528
3 405 32 522
3 317 408 530
3 530 86 317
3 408 112 530
3 317 0 408
3 533 531 532
3 532 61 533
3 531 143 532
3 533 89 531
3 519 231 532
3 532 143 519
3 231 61 532
3 519 19 231
3 326 524 531
3 531 89 326
3 524 143 531
3 326 26 524
3 232 329 533
3 533 61 232
3 329 89 533
3 232 5 329
3 536 534 535
3 535 146 536
3 534 145 535
3 536 144 534
3 538 537 535
3 535 145 538
3 537 146 535
3 538 22 537
3 540 539 534
3 534 144 540
3 539 145 534
3 540 16 539
3 542 541 536
3 536 146 542
3 541 144 536
3 542 39 541
3 545 543 544
3 544 54 545
3 543 145 544
3 545 80 543
3 539 204 544
3 544 145 539
3 204 54 544
3 539 16 204
3 293 538 543
3 543 80 293
3 538 145 543
3 293 22 538
3 205 296 545
3 545 54 205
3 296 80 545
3 205 4 296
3 548 546 547
3 547 125 548
3 546 144 547
3 548 57 546
3 541 455 547
3 547 144 541
3 455 125 547
3 541 39 455
3 214 540 546
3 546 57 214
3 540 144 546
3 214 16 540
3 456 217 548
3 548 125 456
3 217 57 548
3 456 9 217
3 551 549 550
3 550 81 551
3 549 146 550
3 551 130 549
3 537 301 550
3 550 146 537
3 301 81 550
3 537 22 301
3 468 542 549
3 549 130 468
3 542 146 549
3 468 39 542
3 302 471 551
3 551 81 302
3 471 130 551
3 302 3 471
3 554 552 553
3 553 149 554
3 552 148 553
3 554 147 552
3 556 555 553
3 553 148 556
3 555 149 553
3 556 21 555
3 558 557 552
3 552 147 558
3 557 148 552
3 558 25 557
3 560 559 554
3 554 149 560
3 559 147 554
3 560 37 559
3 563 561 562
3 562 88 563
3 561 148 562
3 563 70 561
3 557 327 562
3 562 148 557
3 327 88 562
3 557 25 327
3 260 556 561
3 561 70 260
3 556 148 561
3 260 21 556
3 328 261 563
3 563 88 328
3 261 70 563
3 328 5 261
3 566 564 565
3 565 129 566
3 564 147 565
3 566 87 564
3 559 469 565
3 565 147 559
3 469 129 565
3 559 37 469
3 321 558 564
3 564 87 321
3 558 147 564
3 321 25 558
3 470 322 566
3 566 129 470
3 322 87 566
3 470 3 322
3 569 567 568
3 568 71 569
3 567 149 568
3 569 128 567
3 555 266 568
3 568 149 555
3 266 71 568
3 555 21 266
3 461 560 567
3 567 128 461
3 560 149 567
3 461 37 560
3 267 464 569
3 569 71 267
3 464 128 569
3 267 10 464
3 572 570 571
3 571 152 572
3 570 151 571
3 572 150 570
3 574 573 571
3 571 151 574
3 573 152 571
3 574 27 573
3 576 575 570
3 570 150 576
3 575 151 570
3 576 12 575
3 578 577 572
3 572 152 578
3 577 150 572
3 578 36 577
3 581 579 580
3 580 49 581
3 579 151 580
3 581 96 579
3 575 189 580
3 580 151 575
3 189 49 580
3 575 12 189
3 349 574 579
3 579 96 349
3 574 151 579
3 349 27 574
3 190 352 581
3 581 49 190
3 352 96 581
3 190 7 352
3 584 582 583
3 583 118 584
3 582 150 583
3 584 48 582
3 577 428 583
3 583 150 577
3 428 118 583
3 577 36 428
3 181 576 582
3 582 48 181
3 576 150 582
3 181 12 576
3 429 184 584
3 584 118 429
3 184 48 584
3 429 8 184
3 587 585 586
3 586 97 587
3 585 152 586
3 587 121 585
3 573 357 586
3 586 152 573
3 357 97 586
3 573 27 357
3 438 578 585
3 585 121 438
3 578 152 585
3 438 36 578
3 358 441 587
3 587 97 358
3 441 121 587
3 358 1 441
3 590 588 589
3 589 155 590
3 588 154 589
3 590 153 588
3 592 591 589
3 589 154 592
3 591 155 589
3 592 17 591
3 594 593 588
3 588 153 594
3 593 154 588
3 594 30 593
3 596 595 590
3 590 155 596
3 595 153 590
3 596 35 595
3 599 597 598
3 598 104 599
3 597 154 598
3 599 64 597
3 593 383 598
3 598 154 593
3 383 104 598
3 593 30 383
3 237 592 597
3 597 64 237
3 592 154 597
3 237 17 592
3 384 240 599
3 599 104 384
3 240 64 599
3 384 6 240
3 602 600 601
3 601 120 602
3 600 153 601
3 602 103 600
3 595 439 601
3 601 153 595
3 439 120 601
3 595 35 439
3 377 594 600
3 600 103 377
3 594 153 600
3 377 30 594
3 440 378 602
3 602 120 440
3 378 103 602
3 440 1 378
3 605 603 604
3 604 65 605
3 603 155 604
3 605 119 603
3 591 245 604
3 604 155 591
3 245 65 604
3 591 17 245
3 433 596 603
3 603 119 433
3 596 155 603
3 433 35 596
3 246 434 605
3 605 65 246
3 434 119 605
3 246 11 434
3 608 606 607
3 607 158 608
3 606 157 607
3 608 156 606
3 610 609 607
3 607 157 610
3 609 158 607
3 610 15 609
3 612 611 606
3 606 156 612
3 611 157 606
3 612 28 611
3 614 613 608
3 608 158 614
3 613 156 608
3 614 41 613
3 617 615 616
3 616 95 617
3 615 157 616
3 617 55 615
3 611 350 616
3 616 157 611
3 350 95 616
3 611 28 350
3 209 610 615
3 615 55 209
3 610 157 615
3 209 15 610
3 351 210 617
3 617 95 351
3 210 55 617
3 351 7 210
3 620 618 619
3 619 135 620
3 618 156 619
3 620 94 618
3 613 490 619
3 619 156 613
3 490 135 619
3 613 41 490
3 342 612 618
3 618 94 342
3 612 156 618
3 342 28 612
3 491 345 620
3 620 135 491
3 345 94 620
3 491 2 345
3 623 621 622
3 622 56 623
3 621 158 622
3 623 134 621
3 609 215 622
3 622 158 609
3 215 56 622
3 609 15 215
3 484 614 621
3 621 134 484
3 614 158 621
3 484 41 614
3 216 485 623
3 623 56 216
3 485 134 623
3 216 9 485
3 626 624 625
3 625 161 626
3 624 160 625
3 626 159 624
3 628 627 625
3 625 160 628
3 627 161 625
3 628 31 627
3 630 629 624
3 624 159 630
3 629 160 624
3 630 20 629
3 632 631 626
3 626 161 632
3 631 159 626
3 632 40 631
3 635 633 634
3 634 73 635
3 633 160 634
3 635 105 633
3 629 272 634
3 634 160 629
3 272 73 634
3 629 20 272
3 382 628 633
3 633 105 382
3 628 160 633
3 382 31 628
3 273 385 635
3 635 73 273
3 385 105 635
3 273 6 385
3 638 636 637
3 637 137 638
3 636 159 637
3 638 72 636
3 631 496 637
3 637 159 631
3 496 137 637
3 631 40 496
3 265 630 636
3 636 72 265
3 630 159 636
3 265 20 630
3 497 268 638
3 638 137 497
3 268 72 638
3 497 10 268
3 641 639 640
3 640 102 641
3 639 161 640
3 641 136 639
3 627 372 640
3 640 161 627
3 372 102 640
3 627 31 372
3 489 632 639
3 639 136 489
3 632 161 639
3 489 40 632
3 373 492 641
3 641 102 373
3 492 136 641
3 373 2 492
