# vtk DataFile Version 3.0
this file was written using fslvtkio
ASCII
DATASET POLYDATA
POINTS 642 float
153.232 81.5855 105.531
153.891 89.0533 106.862
155.771 83.6947 110.616
154.33 79.4366 111.954
161.346 77.2348 107.297
148.759 83.8872 109.735
148.718 91.0323 110.304
161.646 83.5159 107.973
158.274 83.7636 101.726
160.474 81.7311 114.871
150.214 83.9189 115.625
146.785 91.707 104.892
161.215 83.8125 104.291
160.304 80.3657 104.049
164.253 79.7477 107.777
163.469 83.2845 111.763
162.208 79.3095 111.679
144.986 95.268 109.573
148.43 88.0176 110.224
146.738 88.7952 107.935
150.891 84.6784 112.481
147.756 83.5135 114.314
158.586 77.5346 110.122
157.565 78.4054 105.993
154.233 77.3493 108.108
150.909 81.3389 111.704
150.219 83.144 107.449
158.695 87.1945 106.632
159.145 85.9236 110.576
154.799 86.8826 108.339
149.097 92.8359 109.099
152.164 86.0767 110.182
150.015 85.6711 104.542
155.642 81.7819 103.148
152.421 88.344 103.108
149.786 93.0703 105.57
156.643 88.0407 103.685
150.394 81.7115 114.858
154.965 81.7968 115.462
157.196 78.8578 113.927
154.108 81.5898 112.518
158.67 83.9593 112.955
161.426 81.8061 103.566
162.523 79.4988 105.22
163.124 81.4452 105.889
163.274 78.0938 106.869
161.06 78.0939 105.229
159.51 81.7604 102.295
159.889 83.7682 102.672
161.743 83.5924 106.097
163.647 81.8841 107.69
164.399 81.5988 109.301
163.335 79.3915 109.55
163.569 80.7378 112.387
161.888 78.3931 109.352
162.986 83.5784 109.928
162.235 82.9925 113.199
162.155 79.6644 113.701
145.565 92.3001 110.571
146.596 89.0412 109.546
145.262 91.9309 108.771
147.707 86.5003 108.857
148.322 85.7873 110.272
148.524 89.5838 109.874
146.624 94.3786 110.82
146.572 93.2006 107.13
146.696 90.1657 106.455
149.169 84.7816 113.678
149.022 85.0664 112.286
149.671 86.3543 112.187
148.993 83.8088 111.652
147.113 85.4122 115.751
149.865 85.9102 114.694
149.741 87.4326 110.696
158.328 76.8631 107.556
155.927 77.1085 106.631
156.349 77.7283 109.15
153.797 79.6238 106.868
155.402 79.6127 105.345
159.542 77.5641 105.9
160.118 77.4027 108.443
156.617 78.4436 111.103
154.106 79.1881 110.39
152.352 79.2713 109.635
151.978 79.7432 107.874
150.579 81.0398 109.03
151.674 82.6718 106.626
152.252 80.0846 112.112
149.178 82.0208 110.167
149.213 83.6498 108.726
159.049 86.6593 109.018
157.151 85.9997 109.569
156.953 87.6261 108.159
155.394 84.9605 108.84
157.197 85.0082 110.699
160.811 85.1321 109.557
160.309 85.5552 107.07
156.661 88.2771 106.598
154.695 88.6924 108.027
152.008 89.1447 108.019
152.958 86.8879 108.611
150.585 90.0693 109.201
153.802 85.0241 110.317
151.463 90.3125 107.748
148.637 93.17 110.373
150.623 87.8318 109.552
152.58 83.39 102.914
154.477 84.6011 102.919
150.966 87.2706 103.572
156.118 85.5287 101.844
157.157 82.8011 102.096
154.056 81.9193 104.239
151.662 83.3887 104.905
148.582 88.7621 104.83
149.122 90.5028 103.635
150.571 90.8017 104.21
154.162 87.2871 103.336
152.537 89.7076 104.798
157.348 85.7256 102.823
148.121 93.149 105.277
152.177 91.7239 106.134
154.734 88.5668 105.328
151.61 81.8998 116.198
155.61 80.3953 115.802
153.719 80.356 114.519
158.742 80.3604 114.467
157.407 82.4326 115.789
152.373 82.727 115.6
148.708 82.5316 115.733
152.803 80.4336 113.71
155.88 79.0147 112.927
156.176 82.5856 112.842
156.943 82.7882 114.472
154.825 82.0206 113.879
159.368 83.1656 114.116
157.222 83.9438 112.141
155.189 82.982 111.648
152.012 82.9565 113.85
158.78 79.7793 104.807
158.066 81.1575 103.33
156.362 80.8864 104.438
149.794 84.5412 105.715
148.439 87.4645 106.179
148.67 86.1222 107.433
160.199 78.4787 112.76
160.748 77.6177 110.488
158.404 78.0374 112.339
150.388 81.5179 113.333
149.155 82.1262 112.621
147.72 81.8982 114.978
159.249 85.4215 103.717
160.151 85.5769 105.478
157.47 87.6965 105.025
149.831 92.7353 107.245
147.464 95.181 109.654
147.418 94.5368 107.343
159.065 84.3566 111.546
161.496 84.216 111.156
161.076 83.7883 112.816
152.152 83.6426 112.905
151.275 86.4461 111.801
153.26 83.6507 111.249
162.128 80.6614 104.418
163.086 80.3858 105.328
162.256 81.6538 104.593
163.501 80.6166 106.713
163.178 79.8605 106.284
161.545 80.082 104.747
161.108 80.7665 103.816
161.853 82.6041 104.024
162.367 82.5971 105.015
162.945 78.914 106.081
161.918 78.7185 105.216
162.044 78.3291 106.081
160.793 79.6459 104.888
164.076 78.7092 106.978
162.202 77.7687 106.994
161.266 77.8542 106.325
160.511 81.6127 103.056
161.285 82.6296 102.829
160.631 82.3186 101.945
160.889 83.8895 103.266
159.971 80.9225 103.218
159.6 82.1139 101.57
159.3 83.6872 102.106
162.404 82.5839 106.033
163.728 81.6415 106.745
162.591 82.5038 106.956
164.248 80.8366 107.915
161.653 83.7165 105.134
161.934 83.5661 107.108
162.634 82.9056 107.9
164.352 79.9874 109.464
163.371 80.1584 110.933
164.158 80.9008 110.655
163.159 79.7708 112.017
162.816 79.2493 110.74
164.058 79.0663 108.397
164.774 80.467 108.576
163.895 82.3277 110.681
164.125 82.1245 111.86
162.77 78.648 109.331
163.501 78.3984 108.025
162.664 77.7828 107.968
161.961 78.694 110.511
161.845 77.3375 108.12
164.083 81.7315 108.343
164.037 83.0408 109.764
162.919 82.5604 108.704
163.312 83.5667 110.723
162.399 83.4873 108.889
163.579 82.2772 112.944
163.446 79.9041 112.86
162.892 81.438 113.931
162.468 79.3354 112.629
163.075 83.5362 112.614
161.456 82.0717 113.836
161.616 80.7438 114.089
145.913 90.38 110.443
145.159 90.3204 109.442
145.118 92.2727 109.939
145.798 90.5108 108.62
146.221 89.1177 108.889
146.973 88.8622 110.414
146.673 90.2834 110.614
144.699 94.2359 110.48
145.206 93.563 109.242
147.151 87.7766 109.001
147.085 87.5275 110.023
147.363 86.2472 109.837
148.573 87.0321 109.867
147.183 87.7216 108.2
148.253 85.0249 109.445
148.75 84.7364 110.258
146.942 91.1874 110.516
145.901 93.5885 110.83
147.32 92.1533 110.366
145.608 94.9093 110.5
148.401 88.8621 110.066
148.651 90.1243 110.227
147.793 92.2119 110.302
145.744 92.2126 107.826
145.912 90.4889 107.551
146.128 91.6441 106.795
146.72 89.3705 107.251
145.812 93.7581 108.127
146.223 92.432 106.029
146.494 90.8517 105.599
149.788 84.3879 112.97
148.927 86.3397 112.011
149.947 85.3249 112.64
148.985 87.3043 110.924
148.4 86.7936 111.332
149.419 83.712 112.931
147.982 84.4954 114.472
149.852 85.076 113.328
150.016 85.975 112.78
147.839 86.3063 111.165
149.446 84.6481 111.259
148.334 85.1336 110.942
149.304 83.4695 112.429
148.452 83.9001 110.668
147.201 85.8219 115.414
149.067 85.6005 114.222
148.491 86.0627 115.199
150.35 85.4868 113.613
146.367 84.6522 115.384
148.606 85.2048 115.663
149.782 85.1036 115.081
149.97 86.3648 111.492
149.152 87.8666 110.443
149.43 88.2681 110.09
150.317 86.5499 112.287
149.406 89.3501 110.01
157.235 76.8108 106.906
156.339 77.0099 107.685
157.315 77.5417 108.288
155.346 77.207 108.517
155.164 76.8316 107.332
156.98 77.552 106.416
158.022 76.9242 106.516
158.381 77.5327 108.871
157.541 77.5713 109.273
154.845 77.7371 106.491
156 78.3066 106.001
154.779 79.3036 106.032
156.441 78.9413 105.673
153.999 77.656 107.125
153.521 80.289 106.116
154.237 80.2437 105.498
159.03 77.1174 106.797
159.303 76.8509 107.925
159.974 76.9737 107.162
159.327 77.3424 109.302
158.58 77.6002 106.026
160.53 77.2945 106.508
160.722 77.2103 107.744
156.687 77.6546 109.917
155.246 78.4599 109.721
155.54 78.0669 110.4
154.318 78.0142 109.1
157.692 77.608 110.285
155.431 79.187 111.347
154.3 79.235 111.049
152.008 78.5609 108.418
151.204 79.8436 108.323
151.392 79.7917 109.313
150.702 82.191 108.431
151.153 81.3073 107.751
153.006 78.2653 107.829
153.177 78.5273 108.529
151.437 80.1877 110.108
150.515 80.3566 110.23
151.789 81.1729 107.28
152.864 79.3862 107.349
152.56 80.7663 106.867
151.088 83.2277 107.146
152.494 82.0075 106.275
153.271 79.6327 109.69
152.239 80.9076 110.822
153.162 79.5827 110.992
151.431 80.462 111.759
153.283 79.2742 112.083
150.134 81.6942 109.472
150.026 82.493 108.773
149.324 82.9453 109.548
149.722 83.0557 108.174
150.185 81.4323 110.702
149.243 83.3275 110.031
148.989 83.8242 109.323
157.806 86.7619 109.398
156.819 86.8327 108.874
157.894 87.027 108.552
155.956 87.1269 108.518
155.983 86.7241 109.217
158.009 86.2949 110.098
158.909 86.3532 109.705
158.693 87.2111 107.987
157.922 87.6247 107.688
156.175 85.7949 109.41
157.424 85.2489 110.088
156.333 84.9134 109.938
158.23 85.5956 110.715
155.101 86.3262 108.946
155.437 84.8369 109.807
156.342 84.3632 110.262
159.902 85.7078 109.289
159.741 86.4647 107.931
160.494 85.4562 108.243
159.445 86.6746 107.091
159.987 85.7898 110.171
161.172 84.3389 108.731
161.234 84.6809 107.444
156.968 88.6786 107.671
155.94 88.4621 108.328
155.845 88.9367 107.594
154.675 88.1067 108.418
157.781 87.9245 106.57
155.293 88.7209 106.819
154.242 88.4662 107.214
152.672 87.6505 107.961
151.653 87.34 108.301
151.314 89.4679 108.641
151.424 87.7569 108.876
152.197 86.9771 109.029
153.82 86.9009 108.524
153.363 88.0535 108.331
150.596 90.4221 108.12
150.051 91.5146 109.11
153.373 85.6961 109.097
154.135 86.1767 109.069
154.322 85.0912 109.478
152.959 85.6064 109.832
154.937 84.1091 110.178
153.651 88.6272 108.085
151.613 89.3723 107.611
153.072 88.8582 107.381
150.338 91.5404 108.112
152.713 89.4201 107.172
149.93 91.8662 110.061
150.459 89.109 109.614
149.505 91.0303 110.046
151.378 87.5568 110.064
148.767 93.0418 109.762
148.552 92.1456 110.422
149.792 89.4764 109.83
153.267 84.247 102.922
152.631 85.797 103.258
151.858 85.3046 103.27
151.702 87.5369 103.242
153.222 86.5799 103.421
154.903 82.8985 102.714
154.066 82.6149 102.762
151.161 84.4355 103.433
150.444 86.5012 103.94
155.474 84.8963 102.165
156.085 82.9674 101.903
157.173 83.5977 101.382
156.188 82.1453 102.586
154.501 86.7107 102.513
157.45 84.8322 101.274
158.055 82.9847 101.511
153.301 82.6469 103.633
152.006 83.7744 104.177
152.836 82.2509 104.44
150.89 84.4312 104.424
154.563 81.7756 103.251
153.728 81.4908 104.636
152.36 82.4961 105.143
149.603 88.1607 103.976
150.145 88.7759 103.495
148.415 89.6889 103.957
150.994 89.2735 102.943
149.432 87.3919 104.692
147.589 90.104 104.892
147.498 91.4283 104.02
152.456 89.433 103.579
153.101 88.654 104.164
151.774 90.3497 104.303
154.077 88.3107 104.406
154.969 87.9875 103.56
153.331 87.4519 103.176
151.469 89.8073 103.372
150.477 91.9065 104.653
151.161 91.3 105.107
156.047 87.2836 102.881
155.296 86.4375 102.513
157.06 85.9922 102.133
156.852 87.2372 103.363
158.386 84.7603 101.944
150.035 90.9159 103.307
149.556 92.2804 104.407
148.33 92.2804 104.043
149.043 93.3067 105.289
147.235 92.5984 104.933
152.236 90.921 105.495
153.49 88.7807 105.302
153.08 89.2746 106.026
155.376 88.1696 104.525
150.867 92.4097 105.89
152.599 89.7004 106.593
154.237 88.8427 106.127
153.592 80.791 116.634
154.533 80.9146 114.841
152.325 81.1076 115.167
155.544 79.8942 114.185
156.425 80.3435 114.944
154.603 82.0769 116.471
152.885 82.3882 116.5
150.769 81.0547 115.986
151.838 81.6132 114.725
157.626 79.894 115.01
156.262 81.6599 117.132
158.385 81.7765 116.877
156.117 82.4279 116.244
158.004 79.6569 114.064
160.15 80.6517 115.111
159.021 82.2787 115.439
151.611 82.9883 116.014
149.73 82.2855 116.667
150.207 82.7967 115.955
149.208 81.8952 115.789
153.622 82.5131 115.738
151.706 83.0065 115.477
149.452 83.273 115.941
153.519 80.5788 114.009
155.198 79.3709 113.85
154.465 79.1493 113.16
156.538 79.1307 113.381
151.37 81.7903 114.003
153.63 79.5222 112.9
155.212 78.7264 112.355
156.968 81.5421 113.196
156.061 82.1052 114.228
155.58 81.9426 113.22
154.909 82.2962 114.888
155.985 82.4308 115.323
157.612 82.7667 113.423
157.523 82.825 112.795
155.226 81.8346 112.597
154.359 81.8763 113.097
157.185 82.0089 115.077
158.068 83.0596 114.396
158.559 82.4423 114.947
158.838 83.676 113.611
159.911 82.1581 114.307
156.833 83.0684 112.437
155.724 82.7441 112.211
156.302 83.2688 111.776
154.922 82.2008 112.211
157.885 83.992 112.634
156.664 83.7257 111.212
155.493 83.4008 111.163
153.401 82.008 114.287
153.688 82.3115 115.048
152.554 82.4048 114.598
153.139 82.1437 113.514
151.381 83.3634 114.672
158.467 80.2065 103.963
157.227 80.7487 103.929
157.67 79.7152 104.63
155.828 81.1915 103.67
156.931 81.0613 103.19
159.24 80.73 103.748
159.641 80.0951 104.653
157.962 79.1037 105.328
156.983 79.6306 105.015
157.568 81.2849 102.263
158.795 81.3884 102.909
158.583 81.8161 101.89
159.931 78.9277 105.002
159.094 78.0436 105.121
160.32 77.7007 105.539
155.997 80.03 104.797
155.237 81.1965 104.058
154.765 80.723 104.765
148.849 85.7658 105.79
148.105 86.3766 106.766
149.093 85.1467 106.668
147.419 87.2126 107.546
147.409 88.0238 106.951
149.185 86.7326 105.315
149.966 85.3582 105.271
149.954 83.937 106.593
149.51 84.7491 107.641
147.8 88.8876 106.367
148.498 87.8886 105.254
147.191 89.1837 105.379
150.619 84.0449 105.032
150.644 83.7713 106.202
151.523 83.1227 105.757
149.316 85.0018 108.256
148.503 86.53 108.088
148.504 84.8966 108.986
160.277 78.4036 111.761
159.293 78.2143 111.582
159.197 78.3052 112.584
158.545 77.633 111.245
159.48 77.8033 110.541
161.399 78.1303 110.974
161.458 78.3858 112.127
158.764 78.594 113.186
157.848 78.4241 113.367
160.322 77.4407 109.551
161.298 78.0483 109.774
161.149 77.2884 108.579
161.354 78.5899 112.898
159.816 79.1196 113.637
160.343 80.32 113.925
157.226 78.3895 112.459
157.576 77.9497 111.536
156.137 78.4184 112.023
149.636 82.078 112.981
148.372 82.1504 113.827
149.106 81.8307 113.958
147.48 82.9214 114.573
148.83 82.9385 113.38
149.846 81.5265 111.453
150.363 81.2766 112.578
150.046 82.2129 114.353
148.987 81.4526 114.799
149.853 82.7127 112.012
149.752 82.0089 111.162
149.056 83.03 111.063
151.187 80.6722 112.792
151.462 81.286 113.475
152.53 80.4851 112.904
147.71 82.3663 115.743
146.633 83.9568 114.893
148.468 84.4267 115.823
159.45 85.4339 104.468
158.811 86.3533 105.023
158.359 86.5273 104.398
158.157 87.1049 105.636
159.389 86.5281 105.832
160.556 84.7762 104.767
160.492 84.7399 103.745
157.933 86.7109 103.879
157.064 87.8539 104.325
160.397 86.1782 106.302
161.082 84.9391 105.636
161.005 84.6258 106.671
159.802 84.7035 103.181
158.017 85.771 103.253
159.074 85.2008 102.371
156.151 88.2214 105.155
157.084 87.6785 105.942
155.703 88.3459 106.056
148.38 93.3647 108.466
147.362 94.6926 108.342
148.66 93.8728 107.278
146.187 94.8646 108.521
146.338 94.9477 109.518
148.449 94.072 109.445
149.469 92.8507 108.434
149.891 93.7155 106.219
148.619 93.8384 106.541
146.923 95.1312 110.48
147.993 94.4493 110.327
147.831 93.297 110.432
150.516 91.8919 107.84
150.923 92.2661 106.638
151.777 90.8415 107.226
148.189 93.5825 106.174
146.585 94.3963 107.35
147.203 92.9526 105.992
160.303 84.4681 111.349
161.356 84.4 112.002
160.27 84.4887 112.103
162.21 83.7102 112.336
162.628 83.8957 111.329
160.326 84.8919 110.733
159.279 84.9294 110.979
159.181 83.941 112.091
159.904 84.2244 112.761
162.178 84.334 110.582
160.787 84.4349 110.202
161.809 84.1284 109.582
158.082 85.0751 111.344
158.042 84.1906 111.982
157.268 84.3258 111.055
160.139 84.1902 113.795
161.419 83.8188 113.372
160.674 82.9437 113.937
152.041 84.0688 112.069
152.381 85.1937 111.453
153.048 83.3782 111.995
152.616 85.6945 111.013
151.221 86.898 110.614
151.175 85.7989 112.538
151.407 84.5015 112.891
152.934 82.7593 112.993
153.77 82.4952 112.189
150.874 87.5722 110.358
150.622 86.695 110.765
149.939 88.6191 110.463
150.908 85.1941 113.532
151.927 83.6719 113.504
150.849 84.1263 114.12
154.16 83.0895 111.515
153.441 84.4442 110.909
154.378 84.0814 110.979
POLYGONS 1280  5120
3 164 162 163
3 163 44 164
3 162 43 163
3 164 42 162
3 166 165 163
3 163 43 166
3 165 44 163
3 166 14 165
3 168 167 162
3 162 42 168
3 167 43 162
3 168 13 167
3 170 169 164
3 164 44 170
3 169 42 164
3 170 12 169
3 173 171 172
3 172 46 173
3 171 43 172
3 173 45 171
3 167 174 172
3 172 43 167
3 174 46 172
3 167 13 174
3 175 166 171
3 171 45 175
3 166 43 171
3 175 14 166
3 177 176 173
3 173 46 177
3 176 45 173
3 177 4 176
3 180 178 179
3 179 48 180
3 178 42 179
3 180 47 178
3 169 181 179
3 179 42 169
3 181 48 179
3 169 12 181
3 182 168 178
3 178 47 182
3 168 42 178
3 182 13 168
3 184 183 180
3 180 48 184
3 183 47 180
3 184 8 183
3 187 185 186
3 186 50 187
3 185 44 186
3 187 49 185
3 165 188 186
3 186 44 165
3 188 50 186
3 165 14 188
3 189 170 185
3 185 49 189
3 170 44 185
3 189 12 170
3 191 190 187
3 187 50 191
3 190 49 187
3 191 7 190
3 194 192 193
3 193 53 194
3 192 52 193
3 194 51 192
3 196 195 193
3 193 52 196
3 195 53 193
3 196 16 195
3 198 197 192
3 192 51 198
3 197 52 192
3 198 14 197
3 200 199 194
3 194 53 200
3 199 51 194
3 200 15 199
3 203 201 202
3 202 45 203
3 201 52 202
3 203 54 201
3 197 175 202
3 202 52 197
3 175 45 202
3 197 14 175
3 204 196 201
3 201 54 204
3 196 52 201
3 204 16 196
3 176 205 203
3 203 45 176
3 205 54 203
3 176 4 205
3 208 206 207
3 207 55 208
3 206 51 207
3 208 50 206
3 199 209 207
3 207 51 199
3 209 55 207
3 199 15 209
3 188 198 206
3 206 50 188
3 198 51 206
3 188 14 198
3 210 191 208
3 208 55 210
3 191 50 208
3 210 7 191
3 213 211 212
3 212 57 213
3 211 53 212
3 213 56 211
3 195 214 212
3 212 53 195
3 214 57 212
3 195 16 214
3 215 200 211
3 211 56 215
3 200 53 211
3 215 15 200
3 217 216 213
3 213 57 217
3 216 56 213
3 217 9 216
3 220 218 219
3 219 60 220
3 218 59 219
3 220 58 218
3 222 221 219
3 219 59 222
3 221 60 219
3 222 19 221
3 224 223 218
3 218 58 224
3 223 59 218
3 224 18 223
3 226 225 220
3 220 60 226
3 225 58 220
3 226 17 225
3 229 227 228
3 228 62 229
3 227 59 228
3 229 61 227
3 223 230 228
3 228 59 223
3 230 62 228
3 223 18 230
3 231 222 227
3 227 61 231
3 222 59 227
3 231 19 222
3 233 232 229
3 229 62 233
3 232 61 229
3 233 5 232
3 236 234 235
3 235 64 236
3 234 58 235
3 236 63 234
3 225 237 235
3 235 58 225
3 237 64 235
3 225 17 237
3 238 224 234
3 234 63 238
3 224 58 234
3 238 18 224
3 240 239 236
3 236 64 240
3 239 63 236
3 240 6 239
3 243 241 242
3 242 66 243
3 241 60 242
3 243 65 241
3 221 244 242
3 242 60 221
3 244 66 242
3 221 19 244
3 245 226 241
3 241 65 245
3 226 60 241
3 245 17 226
3 247 246 243
3 243 66 247
3 246 65 243
3 247 11 246
3 250 248 249
3 249 69 250
3 248 68 249
3 250 67 248
3 252 251 249
3 249 68 252
3 251 69 249
3 252 18 251
3 254 253 248
3 248 67 254
3 253 68 248
3 254 21 253
3 256 255 250
3 250 69 256
3 255 67 250
3 256 20 255
3 259 257 258
3 258 70 259
3 257 68 258
3 259 62 257
3 253 260 258
3 258 68 253
3 260 70 258
3 253 21 260
3 230 252 257
3 257 62 230
3 252 68 257
3 230 18 252
3 261 233 259
3 259 70 261
3 233 62 259
3 261 5 233
3 264 262 263
3 263 72 264
3 262 67 263
3 264 71 262
3 255 265 263
3 263 67 255
3 265 72 263
3 255 20 265
3 266 254 262
3 262 71 266
3 254 67 262
3 266 21 254
3 268 267 264
3 264 72 268
3 267 71 264
3 268 10 267
3 271 269 270
3 270 63 271
3 269 69 270
3 271 73 269
3 251 238 270
3 270 69 251
3 238 63 270
3 251 18 238
3 272 256 269
3 269 73 272
3 256 69 269
3 272 20 256
3 239 273 271
3 271 63 239
3 273 73 271
3 239 6 273
3 276 274 275
3 275 76 276
3 274 75 275
3 276 74 274
3 278 277 275
3 275 75 278
3 277 76 275
3 278 24 277
3 280 279 274
3 274 74 280
3 279 75 274
3 280 23 279
3 282 281 276
3 276 76 282
3 281 74 276
3 282 22 281
3 285 283 284
3 284 78 285
3 283 75 284
3 285 77 283
3 279 286 284
3 284 75 279
3 286 78 284
3 279 23 286
3 287 278 283
3 283 77 287
3 278 75 283
3 287 24 278
3 289 288 285
3 285 78 289
3 288 77 285
3 289 0 288
3 292 290 291
3 291 80 292
3 290 74 291
3 292 79 290
3 281 293 291
3 291 74 281
3 293 80 291
3 281 22 293
3 294 280 290
3 290 79 294
3 280 74 290
3 294 23 280
3 296 295 292
3 292 80 296
3 295 79 292
3 296 4 295
3 299 297 298
3 298 82 299
3 297 76 298
3 299 81 297
3 277 300 298
3 298 76 277
3 300 82 298
3 277 24 300
3 301 282 297
3 297 81 301
3 282 76 297
3 301 22 282
3 303 302 299
3 299 82 303
3 302 81 299
3 303 3 302
3 306 304 305
3 305 85 306
3 304 84 305
3 306 83 304
3 308 307 305
3 305 84 308
3 307 85 305
3 308 26 307
3 310 309 304
3 304 83 310
3 309 84 304
3 310 24 309
3 312 311 306
3 306 85 312
3 311 83 306
3 312 25 311
3 315 313 314
3 314 77 315
3 313 84 314
3 315 86 313
3 309 287 314
3 314 84 309
3 287 77 314
3 309 24 287
3 316 308 313
3 313 86 316
3 308 84 313
3 316 26 308
3 288 317 315
3 315 77 288
3 317 86 315
3 288 0 317
3 320 318 319
3 319 87 320
3 318 83 319
3 320 82 318
3 311 321 319
3 319 83 311
3 321 87 319
3 311 25 321
3 300 310 318
3 318 82 300
3 310 83 318
3 300 24 310
3 322 303 320
3 320 87 322
3 303 82 320
3 322 3 303
3 325 323 324
3 324 89 325
3 323 85 324
3 325 88 323
3 307 326 324
3 324 85 307
3 326 89 324
3 307 26 326
3 327 312 323
3 323 88 327
3 312 85 323
3 327 25 312
3 329 328 325
3 325 89 329
3 328 88 325
3 329 5 328
3 332 330 331
3 331 92 332
3 330 91 331
3 332 90 330
3 334 333 331
3 331 91 334
3 333 92 331
3 334 29 333
3 336 335 330
3 330 90 336
3 335 91 330
3 336 28 335
3 338 337 332
3 332 92 338
3 337 90 332
3 338 27 337
3 341 339 340
3 340 94 341
3 339 91 340
3 341 93 339
3 335 342 340
3 340 91 335
3 342 94 340
3 335 28 342
3 343 334 339
3 339 93 343
3 334 91 339
3 343 29 334
3 345 344 341
3 341 94 345
3 344 93 341
3 345 2 344
3 348 346 347
3 347 96 348
3 346 90 347
3 348 95 346
3 337 349 347
3 347 90 337
3 349 96 347
3 337 27 349
3 350 336 346
3 346 95 350
3 336 90 346
3 350 28 336
3 352 351 348
3 348 96 352
3 351 95 348
3 352 7 351
3 355 353 354
3 354 98 355
3 353 92 354
3 355 97 353
3 333 356 354
3 354 92 333
3 356 98 354
3 333 29 356
3 357 338 353
3 353 97 357
3 338 92 353
3 357 27 338
3 359 358 355
3 355 98 359
3 358 97 355
3 359 1 358
3 362 360 361
3 361 101 362
3 360 100 361
3 362 99 360
3 364 363 361
3 361 100 364
3 363 101 361
3 364 31 363
3 366 365 360
3 360 99 366
3 365 100 360
3 366 29 365
3 368 367 362
3 362 101 368
3 367 99 362
3 368 30 367
3 371 369 370
3 370 93 371
3 369 100 370
3 371 102 369
3 365 343 370
3 370 100 365
3 343 93 370
3 365 29 343
3 372 364 369
3 369 102 372
3 364 100 369
3 372 31 364
3 344 373 371
3 371 93 344
3 373 102 371
3 344 2 373
3 376 374 375
3 375 103 376
3 374 99 375
3 376 98 374
3 367 377 375
3 375 99 367
3 377 103 375
3 367 30 377
3 356 366 374
3 374 98 356
3 366 99 374
3 356 29 366
3 378 359 376
3 376 103 378
3 359 98 376
3 378 1 359
3 381 379 380
3 380 105 381
3 379 101 380
3 381 104 379
3 363 382 380
3 380 101 363
3 382 105 380
3 363 31 382
3 383 368 379
3 379 104 383
3 368 101 379
3 383 30 368
3 385 384 381
3 381 105 385
3 384 104 381
3 385 6 384
3 388 386 387
3 387 108 388
3 386 107 387
3 388 106 386
3 390 389 387
3 387 107 390
3 389 108 387
3 390 34 389
3 392 391 386
3 386 106 392
3 391 107 386
3 392 33 391
3 394 393 388
3 388 108 394
3 393 106 388
3 394 32 393
3 397 395 396
3 396 110 397
3 395 107 396
3 397 109 395
3 391 398 396
3 396 107 391
3 398 110 396
3 391 33 398
3 399 390 395
3 395 109 399
3 390 107 395
3 399 34 390
3 401 400 397
3 397 110 401
3 400 109 397
3 401 8 400
3 404 402 403
3 403 112 404
3 402 106 403
3 404 111 402
3 393 405 403
3 403 106 393
3 405 112 403
3 393 32 405
3 406 392 402
3 402 111 406
3 392 106 402
3 406 33 392
3 408 407 404
3 404 112 408
3 407 111 404
3 408 0 407
3 411 409 410
3 410 114 411
3 409 108 410
3 411 113 409
3 389 412 410
3 410 108 389
3 412 114 410
3 389 34 412
3 413 394 409
3 409 113 413
3 394 108 409
3 413 32 394
3 415 414 411
3 411 114 415
3 414 113 411
3 415 11 414
3 418 416 417
3 417 117 418
3 416 116 417
3 418 115 416
3 420 419 417
3 417 116 420
3 419 117 417
3 420 36 419
3 422 421 416
3 416 115 422
3 421 116 416
3 422 34 421
3 424 423 418
3 418 117 424
3 423 115 418
3 424 35 423
3 427 425 426
3 426 109 427
3 425 116 426
3 427 118 425
3 421 399 426
3 426 116 421
3 399 109 426
3 421 34 399
3 428 420 425
3 425 118 428
3 420 116 425
3 428 36 420
3 400 429 427
3 427 109 400
3 429 118 427
3 400 8 429
3 432 430 431
3 431 119 432
3 430 115 431
3 432 114 430
3 423 433 431
3 431 115 423
3 433 119 431
3 423 35 433
3 412 422 430
3 430 114 412
3 422 115 430
3 412 34 422
3 434 415 432
3 432 119 434
3 415 114 432
3 434 11 415
3 437 435 436
3 436 121 437
3 435 117 436
3 437 120 435
3 419 438 436
3 436 117 419
3 438 121 436
3 419 36 438
3 439 424 435
3 435 120 439
3 424 117 435
3 439 35 424
3 441 440 437
3 437 121 441
3 440 120 437
3 441 1 440
3 444 442 443
3 443 124 444
3 442 123 443
3 444 122 442
3 446 445 443
3 443 123 446
3 445 124 443
3 446 39 445
3 448 447 442
3 442 122 448
3 447 123 442
3 448 38 447
3 450 449 444
3 444 124 450
3 449 122 444
3 450 37 449
3 453 451 452
3 452 126 453
3 451 123 452
3 453 125 451
3 447 454 452
3 452 123 447
3 454 126 452
3 447 38 454
3 455 446 451
3 451 125 455
3 446 123 451
3 455 39 446
3 457 456 453
3 453 126 457
3 456 125 453
3 457 9 456
3 460 458 459
3 459 128 460
3 458 122 459
3 460 127 458
3 449 461 459
3 459 122 449
3 461 128 459
3 449 37 461
3 462 448 458
3 458 127 462
3 448 122 458
3 462 38 448
3 464 463 460
3 460 128 464
3 463 127 460
3 464 10 463
3 467 465 466
3 466 130 467
3 465 124 466
3 467 129 465
3 445 468 466
3 466 124 445
3 468 130 466
3 445 39 468
3 469 450 465
3 465 129 469
3 450 124 465
3 469 37 450
3 471 470 467
3 467 130 471
3 470 129 467
3 471 3 470
3 474 472 473
3 473 133 474
3 472 132 473
3 474 131 472
3 476 475 473
3 473 132 476
3 475 133 473
3 476 38 475
3 478 477 472
3 472 131 478
3 477 132 472
3 478 41 477
3 480 479 474
3 474 133 480
3 479 131 474
3 480 40 479
3 483 481 482
3 482 134 483
3 481 132 482
3 483 126 481
3 477 484 482
3 482 132 477
3 484 134 482
3 477 41 484
3 454 476 481
3 481 126 454
3 476 132 481
3 454 38 476
3 485 457 483
3 483 134 485
3 457 126 483
3 485 9 457
3 488 486 487
3 487 136 488
3 486 131 487
3 488 135 486
3 479 489 487
3 487 131 479
3 489 136 487
3 479 40 489
3 490 478 486
3 486 135 490
3 478 131 486
3 490 41 478
3 492 491 488
3 488 136 492
3 491 135 488
3 492 2 491
3 495 493 494
3 494 127 495
3 493 133 494
3 495 137 493
3 475 462 494
3 494 133 475
3 462 127 494
3 475 38 462
3 496 480 493
3 493 137 496
3 480 133 493
3 496 40 480
3 463 497 495
3 495 127 463
3 497 137 495
3 463 10 497
3 500 498 499
3 499 140 500
3 498 139 499
3 500 138 498
3 502 501 499
3 499 139 502
3 501 140 499
3 502 33 501
3 504 503 498
3 498 138 504
3 503 139 498
3 504 13 503
3 506 505 500
3 500 140 506
3 505 138 500
3 506 23 505
3 509 507 508
3 508 47 509
3 507 139 508
3 509 110 507
3 503 182 508
3 508 139 503
3 182 47 508
3 503 13 182
3 398 502 507
3 507 110 398
3 502 139 507
3 398 33 502
3 183 401 509
3 509 47 183
3 401 110 509
3 183 8 401
3 512 510 511
3 511 79 512
3 510 138 511
3 512 46 510
3 505 294 511
3 511 138 505
3 294 79 511
3 505 23 294
3 174 504 510
3 510 46 174
3 504 138 510
3 174 13 504
3 295 177 512
3 512 79 295
3 177 46 512
3 295 4 177
3 515 513 514
3 514 111 515
3 513 140 514
3 515 78 513
3 501 406 514
3 514 140 501
3 406 111 514
3 501 33 406
3 286 506 513
3 513 78 286
3 506 140 513
3 286 23 506
3 407 289 515
3 515 111 407
3 289 78 515
3 407 0 289
3 518 516 517
3 517 143 518
3 516 142 517
3 518 141 516
3 520 519 517
3 517 142 520
3 519 143 517
3 520 19 519
3 522 521 516
3 516 141 522
3 521 142 516
3 522 32 521
3 524 523 518
3 518 143 524
3 523 141 518
3 524 26 523
3 527 525 526
3 526 113 527
3 525 142 526
3 527 66 525
3 521 413 526
3 526 142 521
3 413 113 526
3 521 32 413
3 244 520 525
3 525 66 244
3 520 142 525
3 244 19 520
3 414 247 527
3 527 113 414
3 247 66 527
3 414 11 247
3 530 528 529
3 529 86 530
3 528 141 529
3 530 112 528
3 523 316 529
3 529 141 523
3 316 86 529
3 523 26 316
3 405 522 528
3 528 112 405
3 522 141 528
3 405 32 522
3 317 408 530
3 530 86 317
3 408 112 530
3 317 0 408
3 533 531 532
3 532 61 533
3 531 143 532
3 533 89 531
3 519 231 532
3 532 143 519
3 231 61 532
3 519 19 231
3 326 524 531
3 531 89 326
3 524 143 531
3 326 26 524
3 232 329 533
3 533 61 232
3 329 89 533
3 232 5 329
3 536 534 535
3 535 146 536
3 534 145 535
3 536 144 534
3 538 537 535
3 535 145 538
3 537 146 535
3 538 22 537
3 540 539 534
3 534 144 540
3 539 145 534
3 540 16 539
3 542 541 536
3 536 146 542
3 541 144 536
3 542 39 541
3 545 543 544
3 544 54 545
3 543 145 544
3 545 80 543
3 539 204 544
3 544 145 539
3 204 54 544
3 539 16 204
3 293 538 543
3 543 80 293
3 538 145 543
3 293 22 538
3 205 296 545
3 545 54 205
3 296 80 545
3 205 4 296
3 548 546 547
3 547 125 548
3 546 144 547
3 548 57 546
3 541 455 547
3 547 144 541
3 455 125 547
3 541 39 455
3 214 540 546
3 546 57 214
3 540 144 546
3 214 16 540
3 456 217 548
3 548 125 456
3 217 57 548
3 456 9 217
3 551 549 550
3 550 81 551
3 549 146 550
3 551 130 549
3 537 301 550
3 550 146 537
3 301 81 550
3 537 22 301
3 468 542 549
3 549 130 468
3 542 146 549
3 468 39 542
3 302 471 551
3 551 81 302
3 471 130 551
3 302 3 471
3 554 552 553
3 553 149 554
3 552 148 553
3 554 147 552
3 556 555 553
3 553 148 556
3 555 149 553
3 556 21 555
3 558 557 552
3 552 147 558
3 557 148 552
3 558 25 557
3 560 559 554
3 554 149 560
3 559 147 554
3 560 37 559
3 563 561 562
3 562 88 563
3 561 148 562
3 563 70 561
3 557 327 562
3 562 148 557
3 327 88 562
3 557 25 327
3 260 556 561
3 561 70 260
3 556 148 561
3 260 21 556
3 328 261 563
3 563 88 328
3 261 70 563
3 328 5 261
3 566 564 565
3 565 129 566
3 564 147 565
3 566 87 564
3 559 469 565
3 565 147 559
3 469 129 565
3 559 37 469
3 321 558 564
3 564 87 321
3 558 147 564
3 321 25 558
3 470 322 566
3 566 129 470
3 322 87 566
3 470 3 322
3 569 567 568
3 568 71 569
3 567 149 568
3 569 128 567
3 555 266 568
3 568 149 555
3 266 71 568
3 555 21 266
3 461 560 567
3 567 128 461
3 560 149 567
3 461 37 560
3 267 464 569
3 569 71 267
3 464 128 569
3 267 10 464
3 572 570 571
3 571 152 572
3 570 151 571
3 572 150 570
3 574 573 571
3 571 151 574
3 573 152 571
3 574 27 573
3 576 575 570
3 570 150 576
3 575 151 570
3 576 12 575
3 578 577 572
3 572 152 578
3 577 150 572
3 578 36 577
3 581 579 580
3 580 49 581
3 579 151 580
3 581 96 579
3 575 189 580
3 580 151 575
3 189 49 580
3 575 12 189
3 349 574 579
3 579 96 349
3 574 151 579
3 349 27 574
3 190 352 581
3 581 49 190
3 352 96 581
3 190 7 352
3 584 582 583
3 583 118 584
3 582 150 583
3 584 48 582
3 577 428 583
3 583 150 577
3 428 118 583
3 577 36 428
3 181 576 582
3 582 48 181
3 576 150 582
3 181 12 576
3 429 184 584
3 584 118 429
3 184 48 584
3 429 8 184
3 587 585 586
3 586 97 587
3 585 152 586
3 587 121 585
3 573 357 586
3 586 152 573
3 357 97 586
3 573 27 357
3 438 578 585
3 585 121 438
3 578 152 585
3 438 36 578
3 358 441 587
3 587 97 358
3 441 121 587
3 358 1 441
3 590 588 589
3 589 155 590
3 588 154 589
3 590 153 588
3 592 591 589
3 589 154 592
3 591 155 589
3 592 17 591
3 594 593 588
3 588 153 594
3 593 154 588
3 594 30 593
3 596 595 590
3 590 155 596
3 595 153 590
3 596 35 595
3 599 597 598
3 598 104 599
3 597 154 598
3 599 64 597
3 593 383 598
3 598 154 593
3 383 104 598
3 593 30 383
3 237 592 597
3 597 64 237
3 592 154 597
3 237 17 592
3 384 240 599
3 599 104 384
3 240 64 599
3 384 6 240
3 602 600 601
3 601 120 602
3 600 153 601
3 602 103 600
3 595 439 601
3 601 153 595
3 439 120 601
3 595 35 439
3 377 594 600
3 600 103 377
3 594 153 600
3 377 30 594
3 440 378 602
3 602 120 440
3 378 103 602
3 440 1 378
3 605 603 604
3 604 65 605
3 603 155 604
3 605 119 603
3 591 245 604
3 604 155 591
3 245 65 604
3 591 17 245
3 433 596 603
3 603 119 433
3 596 155 603
3 433 35 596
3 246 434 605
3 605 65 246
3 434 119 605
3 246 11 434
3 608 606 607
3 607 158 608
3 606 157 607
3 608 156 606
3 610 609 607
3 607 157 610
3 609 158 607
3 610 15 609
3 612 611 606
3 606 156 612
3 611 157 606
3 612 28 611
3 614 613 608
3 608 158 614
3 613 156 608
3 614 41 613
3 617 615 616
3 616 95 617
3 615 157 616
3 617 55 615
3 611 350 616
3 616 157 611
3 350 95 616
3 611 28 350
3 209 610 615
3 615 55 209
3 610 157 615
3 209 15 610
3 351 210 617
3 617 95 351
3 210 55 617
3 351 7 210
3 620 618 619
3 619 135 620
3 618 156 619
3 620 94 618
3 613 490 619
3 619 156 613
3 490 135 619
3 613 41 490
3 342 612 618
3 618 94 342
3 612 156 618
3 342 28 612
3 491 345 620
3 620 135 491
3 345 94 620
3 491 2 345
3 623 621 622
3 622 56 623
3 621 158 622
3 623 134 621
3 609 215 622
3 622 158 609
3 215 56 622
3 609 15 215
3 484 614 621
3 621 134 484
3 614 158 621
3 484 41 614
3 216 485 623
3 623 56 216
3 485 134 623
3 216 9 485
3 626 624 625
3 625 161 626
3 624 160 625
3 626 159 624
3 628 627 625
3 625 160 628
3 627 161 625
3 628 31 627
3 630 629 624
3 624 159 630
3 629 160 624
3 630 20 629
3 632 631 626
3 626 161 632
3 631 159 626
3 632 40 631
3 635 633 634
3 634 73 635
3 633 160 634
3 635 105 633
3 629 272 634
3 634 160 629
3 272 73 634
3 629 20 272
3 382 628 633
3 633 105 382
3 628 160 633
3 382 31 628
3 273 385 635
3 635 73 273
3 385 105 635
3 273 6 385
3 638 636 637
3 637 137 638
3 636 159 637
3 638 72 636
3 631 496 637
3 637 159 631
3 496 137 637
3 631 40 496
3 265 630 636
3 636 72 265
3 630 159 636
3 265 20 630
3 497 268 638
3 638 137 497
3 268 72 638
3 497 10 268
3 641 639 640
3 640 102 641
3 639 161 640
3 641 136 639
3 627 372 640
3 640 161 627
3 372 102 640
3 627 31 372
3 489 632 639
3 639 136 489
3 632 161 639
3 489 40 632
3 373 492 641
3 641 102 373
3 492 136 641
3 373 2 492
