# vtk DataFile Version 3.0
this file was written using fslvtkio
ASCII
DATASET POLYDATA
POINTS 642 float
126.651 142.345 120.475
129.633 142.259 132.952
141.162 143.123 135.99
138.523 144.385 122.829
133.217 148.483 124.675
133.776 138.894 122.531
135.103 139.051 130.643
134.413 148.288 133.105
123.272 144.793 128.542
142.961 147.143 129.379
144.337 141.091 128.995
123.047 137.294 126.376
127.931 147.276 131.315
127.714 147.294 126.291
133.753 149.372 129.232
139.694 148.872 132.089
138.717 148.473 126.921
129.057 138.795 127.66
134.3 138.705 126.529
126.732 136.911 123.105
140.446 139.637 130.831
139.513 140.493 125.637
136.267 146.701 123.078
128.987 145.939 122.21
132.569 143.383 120.471
136.893 141.515 121.723
128.371 139.398 120.547
131.445 145.4 133.529
138.822 146.564 135.387
135.764 142.783 135.173
131.995 140.414 131.818
139.056 140.709 133.859
122.517 138.473 122.386
123.66 143.379 123.853
121.375 140.586 127.762
125.453 140.073 129.804
125.179 143.597 131.922
143.265 143.171 124.875
145.339 144.094 130.528
142.922 146.641 125.029
144.328 140.426 134.759
143.306 145.495 133.863
127.445 147.767 128.816
130.696 148.681 127.704
130.814 148.927 130.313
133.66 149.027 126.849
130.225 148.158 125.193
125.239 146.163 127.256
125.492 146.171 130.136
131.057 148.036 132.156
134.313 149.318 131.355
136.839 149.505 130.598
136.182 149.207 127.876
139.105 148.96 129.432
136.035 148.467 125.656
137.367 148.913 132.926
141.133 148.005 130.589
140.906 147.944 127.902
131.543 138.614 126.9
130.408 137.887 124.514
127.627 137.44 125.493
130.18 137.67 122.519
133.895 138.784 124.456
134.757 138.745 128.59
132.107 139.245 129.116
125.969 137.988 126.873
124.374 136.457 124.682
140.153 139.777 128.128
136.824 139.384 126.08
137.502 138.94 128.644
136.821 139.832 123.879
142.138 140.718 126.946
142.601 140.004 130.012
137.766 139.105 130.775
132.631 146.499 122.242
130.939 144.868 120.859
134.469 145.33 121.371
129.664 142.849 120.26
127.884 144.286 121.224
131.098 147.407 123.213
134.81 147.588 123.773
137.576 145.662 122.716
135.599 143.96 121.164
134.531 142.311 120.983
130.563 141.394 120.533
132.576 140.445 121.037
127.289 140.697 120.32
137.928 143.041 121.995
135.517 140.074 121.858
131.134 138.974 121.303
135.073 146.057 134.568
137.081 144.738 135.689
133.917 144.272 134.204
138.486 143.081 135.756
139.974 144.97 135.974
136.429 147.444 134.361
132.52 146.889 133.411
130.46 143.801 133.44
133.14 142.702 133.671
134.127 141.51 133.611
137.521 141.608 134.95
135.495 140.429 133.283
140.582 141.66 135.061
130.783 141.207 132.483
133.592 139.866 131.143
137.009 139.687 132.52
122.811 141.004 122.895
121.874 141.769 125.728
121.377 139.01 124.742
121.879 142.775 128.341
123.313 144.126 126.157
124.986 143.024 121.762
124.368 140.57 121.046
122.14 136.816 123.973
121.905 138.616 127.037
122.711 139.967 129.072
122.496 142.105 130.16
124.915 141.691 130.944
123.792 144.306 130.671
124.372 138.679 128.145
127.408 141.093 131.626
127.381 142.936 132.38
145.511 143.914 127.071
144.945 145.659 127.348
143.869 145.03 124.563
142.949 146.97 127.153
144.477 145.782 129.784
145.678 142.554 129.492
144.034 142.069 126.623
140.963 143.898 123.624
141.083 145.685 123.635
144.46 143.021 135.059
144.495 144.854 132.316
145.323 142.327 132.819
143.099 146.542 131.649
142.482 144.452 135.342
142.935 141.575 135.901
144.805 140.709 131.84
128.185 147.058 123.852
125.393 145.536 124.929
125.921 144.922 122.569
125.239 138.968 121.055
124.046 137.01 122.368
127.924 137.84 121.391
140.831 147.488 125.821
137.712 147.594 124.97
139.716 146.66 123.995
139.773 142.532 123.265
138.524 140.785 122.998
141.495 141.714 124.994
126.062 145.53 132.115
129.382 146.521 132.974
128.111 144.487 133.064
128.621 140.183 130.94
130.413 139.481 129.942
127.182 139.223 128.827
141.227 146.188 134.838
139.202 148.104 134.05
141.617 147.427 132.842
142.843 139.755 132.606
139.971 140.092 132.614
141.72 140.195 134.973
129.067 148.359 128.321
130.583 148.899 129.023
129.129 148.475 129.567
132.162 149.271 129.666
132.064 149.121 128.55
129.097 148.082 127.184
127.765 147.7 127.614
127.897 147.77 130.076
129.211 148.28 130.657
132.125 148.921 127.321
130.387 148.379 126.527
131.826 148.731 126.147
129 147.799 125.894
133.491 149.183 128.075
133.275 148.845 125.73
131.756 148.514 124.999
126.39 147.121 128.013
126.434 147.206 129.604
125.418 146.454 128.746
126.698 146.868 130.716
126.486 146.786 126.795
124.299 145.639 127.979
124.476 145.604 129.262
130.695 148.511 131.285
132.422 149.312 130.782
132.615 148.763 131.725
133.777 149.47 130.32
129.347 147.826 131.684
132.756 148.282 132.546
134.243 148.806 132.21
136.462 149.355 129.253
137.664 149.135 128.68
138.005 149.29 129.971
138.699 148.815 128.174
137.543 148.984 127.526
135.013 149.315 128.611
135.28 149.443 129.881
138.23 149.276 131.246
139.259 149.047 130.745
136.295 148.93 126.714
134.887 149.189 127.393
134.839 148.928 125.983
137.481 148.589 126.428
134.561 148.556 125.125
135.551 149.525 130.883
137.184 149.372 131.753
135.743 149.098 132.106
138.551 149.053 132.424
135.843 148.593 132.958
140.169 148.648 130.057
139.925 148.554 128.579
140.878 148.063 129.208
139.773 148.304 127.526
140.317 148.479 131.279
142.038 147.741 129.836
141.998 147.731 128.632
130.873 138.245 125.718
129.014 137.635 124.972
129.576 138.197 126.056
127.292 137.003 124.329
128.547 137.266 123.805
132.143 138.319 125.474
132.661 138.501 126.528
130.128 138.577 127.11
128.498 138.128 126.571
130.113 137.672 123.557
132.143 138.32 124.541
132.055 138.147 123.48
133.701 138.661 125.43
128.405 137.258 122.772
132.06 138.216 122.583
133.769 138.781 123.51
133.135 138.712 127.625
131.735 138.951 127.92
133.4 139.001 128.744
130.534 138.999 128.275
134.454 138.667 127.472
134.833 138.831 129.599
133.666 139.205 129.764
126.9 137.731 126.246
126.119 136.889 125.092
125.264 137.022 125.93
125.683 136.621 123.984
127.544 138.379 127.186
124.496 137.429 126.671
123.752 136.692 125.77
138.574 139.543 127.133
137.217 139.18 127.354
138.833 139.349 128.403
135.941 138.749 127.515
135.552 138.906 126.324
138.353 139.797 126.093
139.671 140.041 126.896
140.076 139.577 129.374
138.937 139.258 129.562
135.197 139.04 125.288
136.92 139.677 125.11
135.351 139.28 124.137
138.193 140.089 124.901
135.345 139.377 123.129
141.039 140.125 127.462
141.283 139.822 129.063
142.276 140.204 128.348
141.441 139.723 130.39
140.773 140.56 126.35
143.238 140.838 127.859
143.416 140.471 129.284
137.637 138.966 129.613
135.953 138.725 128.497
136.064 138.707 129.748
139.085 139.445 130.683
136.422 139.011 130.767
131.802 145.737 121.51
132.676 145.129 121.024
133.563 145.938 121.734
133.446 144.524 120.757
132.071 144.291 120.584
130.255 145.483 121.58
130.895 146.179 122.069
134.356 146.573 122.44
135.117 146.107 122.144
130.546 143.986 120.372
129.459 144.703 121.063
129.042 143.791 120.382
128.53 145.185 121.703
131.165 143.258 120.364
128.276 142.741 120.234
127.592 143.404 120.589
131.766 146.918 122.604
133.765 147.127 122.881
132.944 147.652 123.358
135.447 147.113 123.266
129.978 146.601 122.701
132.169 148.096 123.943
134.033 148.023 124.21
136.04 145.61 121.859
135.027 144.677 121.136
136.609 144.904 121.851
134.012 143.767 120.737
136.763 146.183 122.782
137.937 144.945 122.675
137.059 144.202 121.774
132.529 141.892 120.641
131.588 140.932 120.787
133.531 141.422 121.031
130.637 140.074 120.729
129.785 140.416 120.579
131.738 142.387 120.497
133.358 142.733 120.68
135.404 141.744 121.394
134.493 140.991 121.336
128.994 140.981 120.398
130.304 142.192 120.335
128.576 141.813 120.163
127.997 140.064 120.341
127.164 141.671 120.293
134.854 143.163 120.972
136.148 142.587 121.448
136.691 143.426 121.433
137.31 142.283 121.782
138.077 143.732 122.286
134.075 140.222 121.392
131.702 139.72 121.1
133.146 139.415 121.547
129.713 139.251 120.863
135.952 140.788 121.685
134.532 139.456 122.137
132.453 138.784 121.896
136.138 145.424 135.183
135.471 144.49 135.023
134.572 145.142 134.523
134.967 143.696 134.885
136.191 143.818 135.444
137.629 145.701 135.605
136.818 146.226 135.118
133.528 145.659 133.985
133.046 144.933 133.957
137.59 143.922 135.912
138.464 144.946 135.895
139.067 144.064 135.904
139.153 145.747 135.766
137.052 143.057 135.616
139.764 143.187 135.897
140.404 144.039 136.073
135.913 146.722 134.45
133.81 146.41 133.964
134.394 147.213 133.93
132.053 146.107 133.572
137.7 147.023 135.032
135.276 147.845 133.717
133.397 147.638 133.223
132.292 144.163 133.669
133.625 143.491 134.068
132.015 143.347 133.608
134.531 142.855 134.496
131.162 144.651 133.541
130.496 143.023 133.251
131.586 142.551 133.269
135.719 141.51 134.582
136.463 140.948 134.278
134.845 140.973 133.562
137.092 140.482 133.753
138.175 141.145 134.307
136.569 142.125 135.158
135.003 142.06 134.498
133.315 140.933 132.731
133.99 140.5 132.648
139.062 141.768 134.784
137.905 142.351 135.452
139.539 142.411 135.372
139.841 141.179 134.529
140.789 142.389 135.678
133.845 142.203 133.71
132.758 141.422 132.882
132.043 141.974 133.033
131.541 140.805 132.208
130.37 141.78 132.822
134.491 140.119 132.226
136.135 140.008 132.93
135.138 139.539 131.979
137.948 140.195 133.306
132.868 140.165 131.664
134.386 139.502 130.806
136.009 139.293 131.65
122.173 141.144 124.298
121.498 140.441 125.109
121.882 140.021 123.852
121.31 139.852 126.085
121.408 140.99 126.516
122.618 142.376 124.708
122.984 142.08 123.566
122.53 139.768 122.712
121.696 138.735 123.425
121.773 142.214 126.97
122.468 143.008 125.856
122.259 143.537 127.254
123.408 143.615 124.949
121.481 141.638 127.916
122.498 143.862 128.58
123.224 144.59 127.333
123.718 142.116 122.375
123.345 140.879 121.739
124.768 141.956 121.106
123.242 139.674 121.737
124.054 143.044 122.858
125.987 142.88 120.941
125.513 141.49 120.62
121.493 137.844 124.382
121.5 138.738 125.876
121.787 137.564 125.568
121.437 139.551 127.196
121.902 137.569 123.119
122.334 136.817 125.403
122.439 137.972 126.867
122.419 140.978 129.658
123.427 141.703 130.649
123.583 140.84 130.134
124.733 142.483 131.434
123.731 142.7 131.108
121.693 141.393 129.118
121.73 140.195 128.588
124.016 140.122 129.583
124.939 140.819 130.407
123.06 143.112 130.545
121.988 142.353 129.184
122.651 143.588 129.589
124.214 143.769 131.407
123.527 144.607 129.633
122.058 139.343 128.073
123.483 139.404 128.658
122.983 138.647 127.713
124.747 139.386 129.04
123.78 137.977 127.206
126.158 141.342 131.226
126.085 142.291 131.676
127.412 141.953 132.173
126.072 143.187 132.147
126.263 140.623 130.676
128.557 141.624 132.361
128.525 142.606 132.751
145.382 144.887 127.042
144.807 145.495 125.735
145.059 144.567 125.529
143.733 145.932 124.941
144.232 146.158 126.136
145.248 144.918 128.639
145.492 144.188 128.598
144.818 143.603 125.813
143.829 144.073 124.773
144.029 146.43 127.19
144.71 145.741 128.498
143.875 146.541 128.481
145.022 144.968 129.957
143.176 146.758 126.078
142.89 147.111 128.247
143.787 146.526 129.687
145.654 143.288 128.227
145.047 142.897 126.735
145.23 142.198 127.951
143.887 142.736 125.708
145.598 143.427 129.873
145.227 141.701 129.277
144.112 141.479 127.638
142.584 144.466 123.956
142.756 145.479 123.952
141.026 144.815 123.539
142.377 146.224 124.165
142.295 143.62 124.174
139.7 144.162 123.271
139.588 145.049 123.41
144.748 143.921 133.693
145.046 143.619 132.534
144.981 142.63 133.968
145.429 143.249 131.654
144.932 144.482 131.438
144.083 144.995 133.385
144.101 144.174 134.47
144.76 141.751 135.188
145.037 141.343 133.955
144.59 145.256 130.791
144.002 145.585 132.176
143.826 146.165 130.812
143.329 146.096 132.762
143.035 146.95 130.491
143.531 143.732 135.3
143.941 142.289 135.742
142.882 143.026 135.969
143.84 141.006 135.681
143.122 144.8 134.706
141.778 143.858 135.721
142.062 142.37 135.989
145.354 141.697 132.327
145.674 142.756 130.825
145.405 141.699 130.625
144.707 140.553 133.251
144.666 140.866 130.387
126.713 146.368 124.355
125.557 145.376 123.644
126.926 146.026 123.219
124.667 144.233 123.145
124.412 144.567 124.239
126.573 146.451 125.53
127.813 147.231 124.984
128.372 146.481 122.948
127.42 145.588 122.403
124.342 144.617 125.396
125.432 145.848 126.063
124.219 145.176 126.716
129.108 147.652 124.535
129.618 147.151 123.401
130.829 147.962 124.085
126.97 144.748 121.877
125.261 143.924 122.232
126.481 143.706 121.396
124.604 138.042 121.655
125.778 137.428 121.718
126.431 138.281 121.165
127.325 137.289 122.081
125.422 136.771 122.569
123.102 137.702 122.116
123.796 138.907 121.595
126.826 139.122 120.666
128.259 138.583 120.88
124.444 136.497 123.391
122.862 137.045 122.83
123.141 136.521 124.711
124.778 139.791 121.003
126.391 139.813 120.469
125.959 140.799 120.462
129.694 138.504 121.323
129.174 137.665 121.851
131.219 138.286 121.832
139.285 147.566 125.379
138.636 147.128 124.362
140.504 147.21 124.706
137.905 146.717 123.606
137.182 147.184 123.98
138.309 148.033 125.942
139.662 147.883 126.392
142.004 147.179 125.244
141.525 146.778 124.317
136.244 147.473 124.31
137.033 148.061 125.401
135.493 148.096 124.67
140.754 147.724 126.831
142.2 147.307 126.204
142.057 147.535 127.457
140.628 146.278 123.744
138.474 146.223 123.412
139.014 145.545 123.445
139.173 141.647 122.932
139.897 141.304 124.013
140.601 142.089 124.022
140.429 141.067 125.175
139.024 140.662 124.329
137.886 141.159 122.047
138.615 142.072 122.075
141.436 142.892 124.162
142.266 142.442 124.853
137.834 140.29 123.519
137.037 140.563 122.195
136.135 139.794 122.6
138.875 142.79 122.431
140.433 143.227 123.621
139.2 143.541 123.068
142.888 141.977 125.592
141.684 141.105 125.841
143.157 141.294 126.582
127.637 146.071 132.719
128.639 145.479 133.137
126.97 144.988 132.737
129.731 145.001 133.355
130.178 145.877 133.357
128.531 147.022 132.375
126.996 146.463 131.833
125.607 144.518 132.196
126.584 144.071 132.638
130.945 146.623 133.162
130.067 147.383 132.551
131.856 147.582 132.969
125.752 146.013 131.312
124.909 144.785 131.566
124.683 145.156 130.273
127.626 143.653 132.75
129.372 144.191 133.373
128.977 143.235 133.158
129.447 139.757 130.445
128.778 139.35 129.364
127.843 139.674 129.922
128.23 138.987 128.285
129.738 139.167 128.844
130.978 139.861 130.964
130.216 140.192 131.356
127.011 140.104 130.426
126.335 139.64 129.407
131.196 139.317 129.495
132.018 139.833 130.69
132.918 139.481 130.264
129.767 140.557 131.909
127.943 140.607 131.278
129.085 141.075 132.284
125.748 139.038 128.611
126.92 138.771 127.804
125.23 138.306 127.52
140.341 147.257 134.533
140.548 147.826 133.581
141.497 146.895 133.915
140.623 148.148 132.466
139.606 148.588 133.169
139.081 147.378 134.8
140.071 146.538 135.294
142.319 145.904 134.302
142.575 146.612 133.355
138.319 148.571 133.512
137.824 147.811 134.515
136.583 148.147 133.648
140.518 145.717 135.529
141.997 145.375 134.962
141.132 144.706 135.652
142.481 147.038 132.241
141.292 147.799 131.707
142.313 147.445 130.936
141.39 139.754 132.769
140.937 140.183 133.762
142.353 139.7 134.03
140.52 140.665 134.24
139.436 140.438 133.154
140.086 139.915 131.671
141.534 139.582 131.785
143.74 139.909 133.631
143.064 140.167 135.102
138.52 139.828 132.603
138.747 139.527 131.684
137.365 139.31 131.725
142.396 139.852 131.25
143.893 140.11 132.174
143.713 140.324 130.567
142.553 140.869 135.443
141.053 140.938 134.863
141.595 141.729 135.642
POLYGONS 1280  5120
3 164 162 163
3 163 44 164
3 162 43 163
3 164 42 162
3 166 165 163
3 163 43 166
3 165 44 163
3 166 14 165
3 168 167 162
3 162 42 168
3 167 43 162
3 168 13 167
3 170 169 164
3 164 44 170
3 169 42 164
3 170 12 169
3 173 171 172
3 172 46 173
3 171 43 172
3 173 45 171
3 167 174 172
3 172 43 167
3 174 46 172
3 167 13 174
3 175 166 171
3 171 45 175
3 166 43 171
3 175 14 166
3 177 176 173
3 173 46 177
3 176 45 173
3 177 4 176
3 180 178 179
3 179 48 180
3 178 42 179
3 180 47 178
3 169 181 179
3 179 42 169
3 181 48 179
3 169 12 181
3 182 168 178
3 178 47 182
3 168 42 178
3 182 13 168
3 184 183 180
3 180 48 184
3 183 47 180
3 184 8 183
3 187 185 186
3 186 50 187
3 185 44 186
3 187 49 185
3 165 188 186
3 186 44 165
3 188 50 186
3 165 14 188
3 189 170 185
3 185 49 189
3 170 44 185
3 189 12 170
3 191 190 187
3 187 50 191
3 190 49 187
3 191 7 190
3 194 192 193
3 193 53 194
3 192 52 193
3 194 51 192
3 196 195 193
3 193 52 196
3 195 53 193
3 196 16 195
3 198 197 192
3 192 51 198
3 197 52 192
3 198 14 197
3 200 199 194
3 194 53 200
3 199 51 194
3 200 15 199
3 203 201 202
3 202 45 203
3 201 52 202
3 203 54 201
3 197 175 202
3 202 52 197
3 175 45 202
3 197 14 175
3 204 196 201
3 201 54 204
3 196 52 201
3 204 16 196
3 176 205 203
3 203 45 176
3 205 54 203
3 176 4 205
3 208 206 207
3 207 55 208
3 206 51 207
3 208 50 206
3 199 209 207
3 207 51 199
3 209 55 207
3 199 15 209
3 188 198 206
3 206 50 188
3 198 51 206
3 188 14 198
3 210 191 208
3 208 55 210
3 191 50 208
3 210 7 191
3 213 211 212
3 212 57 213
3 211 53 212
3 213 56 211
3 195 214 212
3 212 53 195
3 214 57 212
3 195 16 214
3 215 200 211
3 211 56 215
3 200 53 211
3 215 15 200
3 217 216 213
3 213 57 217
3 216 56 213
3 217 9 216
3 220 218 219
3 219 60 220
3 218 59 219
3 220 58 218
3 222 221 219
3 219 59 222
3 221 60 219
3 222 19 221
3 224 223 218
3 218 58 224
3 223 59 218
3 224 18 223
3 226 225 220
3 220 60 226
3 225 58 220
3 226 17 225
3 229 227 228
3 228 62 229
3 227 59 228
3 229 61 227
3 223 230 228
3 228 59 223
3 230 62 228
3 223 18 230
3 231 222 227
3 227 61 231
3 222 59 227
3 231 19 222
3 233 232 229
3 229 62 233
3 232 61 229
3 233 5 232
3 236 234 235
3 235 64 236
3 234 58 235
3 236 63 234
3 225 237 235
3 235 58 225
3 237 64 235
3 225 17 237
3 238 224 234
3 234 63 238
3 224 58 234
3 238 18 224
3 240 239 236
3 236 64 240
3 239 63 236
3 240 6 239
3 243 241 242
3 242 66 243
3 241 60 242
3 243 65 241
3 221 244 242
3 242 60 221
3 244 66 242
3 221 19 244
3 245 226 241
3 241 65 245
3 226 60 241
3 245 17 226
3 247 246 243
3 243 66 247
3 246 65 243
3 247 11 246
3 250 248 249
3 249 69 250
3 248 68 249
3 250 67 248
3 252 251 249
3 249 68 252
3 251 69 249
3 252 18 251
3 254 253 248
3 248 67 254
3 253 68 248
3 254 21 253
3 256 255 250
3 250 69 256
3 255 67 250
3 256 20 255
3 259 257 258
3 258 70 259
3 257 68 258
3 259 62 257
3 253 260 258
3 258 68 253
3 260 70 258
3 253 21 260
3 230 252 257
3 257 62 230
3 252 68 257
3 230 18 252
3 261 233 259
3 259 70 261
3 233 62 259
3 261 5 233
3 264 262 263
3 263 72 264
3 262 67 263
3 264 71 262
3 255 265 263
3 263 67 255
3 265 72 263
3 255 20 265
3 266 254 262
3 262 71 266
3 254 67 262
3 266 21 254
3 268 267 264
3 264 72 268
3 267 71 264
3 268 10 267
3 271 269 270
3 270 63 271
3 269 69 270
3 271 73 269
3 251 238 270
3 270 69 251
3 238 63 270
3 251 18 238
3 272 256 269
3 269 73 272
3 256 69 269
3 272 20 256
3 239 273 271
3 271 63 239
3 273 73 271
3 239 6 273
3 276 274 275
3 275 76 276
3 274 75 275
3 276 74 274
3 278 277 275
3 275 75 278
3 277 76 275
3 278 24 277
3 280 279 274
3 274 74 280
3 279 75 274
3 280 23 279
3 282 281 276
3 276 76 282
3 281 74 276
3 282 22 281
3 285 283 284
3 284 78 285
3 283 75 284
3 285 77 283
3 279 286 284
3 284 75 279
3 286 78 284
3 279 23 286
3 287 278 283
3 283 77 287
3 278 75 283
3 287 24 278
3 289 288 285
3 285 78 289
3 288 77 285
3 289 0 288
3 292 290 291
3 291 80 292
3 290 74 291
3 292 79 290
3 281 293 291
3 291 74 281
3 293 80 291
3 281 22 293
3 294 280 290
3 290 79 294
3 280 74 290
3 294 23 280
3 296 295 292
3 292 80 296
3 295 79 292
3 296 4 295
3 299 297 298
3 298 82 299
3 297 76 298
3 299 81 297
3 277 300 298
3 298 76 277
3 300 82 298
3 277 24 300
3 301 282 297
3 297 81 301
3 282 76 297
3 301 22 282
3 303 302 299
3 299 82 303
3 302 81 299
3 303 3 302
3 306 304 305
3 305 85 306
3 304 84 305
3 306 83 304
3 308 307 305
3 305 84 308
3 307 85 305
3 308 26 307
3 310 309 304
3 304 83 310
3 309 84 304
3 310 24 309
3 312 311 306
3 306 85 312
3 311 83 306
3 312 25 311
3 315 313 314
3 314 77 315
3 313 84 314
3 315 86 313
3 309 287 314
3 314 84 309
3 287 77 314
3 309 24 287
3 316 308 313
3 313 86 316
3 308 84 313
3 316 26 308
3 288 317 315
3 315 77 288
3 317 86 315
3 288 0 317
3 320 318 319
3 319 87 320
3 318 83 319
3 320 82 318
3 311 321 319
3 319 83 311
3 321 87 319
3 311 25 321
3 300 310 318
3 318 82 300
3 310 83 318
3 300 24 310
3 322 303 320
3 320 87 322
3 303 82 320
3 322 3 303
3 325 323 324
3 324 89 325
3 323 85 324
3 325 88 323
3 307 326 324
3 324 85 307
3 326 89 324
3 307 26 326
3 327 312 323
3 323 88 327
3 312 85 323
3 327 25 312
3 329 328 325
3 325 89 329
3 328 88 325
3 329 5 328
3 332 330 331
3 331 92 332
3 330 91 331
3 332 90 330
3 334 333 331
3 331 91 334
3 333 92 331
3 334 29 333
3 336 335 330
3 330 90 336
3 335 91 330
3 336 28 335
3 338 337 332
3 332 92 338
3 337 90 332
3 338 27 337
3 341 339 340
3 340 94 341
3 339 91 340
3 341 93 339
3 335 342 340
3 340 91 335
3 342 94 340
3 335 28 342
3 343 334 339
3 339 93 343
3 334 91 339
3 343 29 334
3 345 344 341
3 341 94 345
3 344 93 341
3 345 2 344
3 348 346 347
3 347 96 348
3 346 90 347
3 348 95 346
3 337 349 347
3 347 90 337
3 349 96 347
3 337 27 349
3 350 336 346
3 346 95 350
3 336 90 346
3 350 28 336
3 352 351 348
3 348 96 352
3 351 95 348
3 352 7 351
3 355 353 354
3 354 98 355
3 353 92 354
3 355 97 353
3 333 356 354
3 354 92 333
3 356 98 354
3 333 29 356
3 357 338 353
3 353 97 357
3 338 92 353
3 357 27 338
3 359 358 355
3 355 98 359
3 358 97 355
3 359 1 358
3 362 360 361
3 361 101 362
3 360 100 361
3 362 99 360
3 364 363 361
3 361 100 364
3 363 101 361
3 364 31 363
3 366 365 360
3 360 99 366
3 365 100 360
3 366 29 365
3 368 367 362
3 362 101 368
3 367 99 362
3 368 30 367
3 371 369 370
3 370 93 371
3 369 100 370
3 371 102 369
3 365 343 370
3 370 100 365
3 343 93 370
3 365 29 343
3 372 364 369
3 369 102 372
3 364 100 369
3 372 31 364
3 344 373 371
3 371 93 344
3 373 102 371
3 344 2 373
3 376 374 375
3 375 103 376
3 374 99 375
3 376 98 374
3 367 377 375
3 375 99 367
3 377 103 375
3 367 30 377
3 356 366 374
3 374 98 356
3 366 99 374
3 356 29 366
3 378 359 376
3 376 103 378
3 359 98 376
3 378 1 359
3 381 379 380
3 380 105 381
3 379 101 380
3 381 104 379
3 363 382 380
3 380 101 363
3 382 105 380
3 363 31 382
3 383 368 379
3 379 104 383
3 368 101 379
3 383 30 368
3 385 384 381
3 381 105 385
3 384 104 381
3 385 6 384
3 388 386 387
3 387 108 388
3 386 107 387
3 388 106 386
3 390 389 387
3 387 107 390
3 389 108 387
3 390 34 389
3 392 391 386
3 386 106 392
3 391 107 386
3 392 33 391
3 394 393 388
3 388 108 394
3 393 106 388
3 394 32 393
3 397 395 396
3 396 110 397
3 395 107 396
3 397 109 395
3 391 398 396
3 396 107 391
3 398 110 396
3 391 33 398
3 399 390 395
3 395 109 399
3 390 107 395
3 399 34 390
3 401 400 397
3 397 110 401
3 400 109 397
3 401 8 400
3 404 402 403
3 403 112 404
3 402 106 403
3 404 111 402
3 393 405 403
3 403 106 393
3 405 112 403
3 393 32 405
3 406 392 402
3 402 111 406
3 392 106 402
3 406 33 392
3 408 407 404
3 404 112 408
3 407 111 404
3 408 0 407
3 411 409 410
3 410 114 411
3 409 108 410
3 411 113 409
3 389 412 410
3 410 108 389
3 412 114 410
3 389 34 412
3 413 394 409
3 409 113 413
3 394 108 409
3 413 32 394
3 415 414 411
3 411 114 415
3 414 113 411
3 415 11 414
3 418 416 417
3 417 117 418
3 416 116 417
3 418 115 416
3 420 419 417
3 417 116 420
3 419 117 417
3 420 36 419
3 422 421 416
3 416 115 422
3 421 116 416
3 422 34 421
3 424 423 418
3 418 117 424
3 423 115 418
3 424 35 423
3 427 425 426
3 426 109 427
3 425 116 426
3 427 118 425
3 421 399 426
3 426 116 421
3 399 109 426
3 421 34 399
3 428 420 425
3 425 118 428
3 420 116 425
3 428 36 420
3 400 429 427
3 427 109 400
3 429 118 427
3 400 8 429
3 432 430 431
3 431 119 432
3 430 115 431
3 432 114 430
3 423 433 431
3 431 115 423
3 433 119 431
3 423 35 433
3 412 422 430
3 430 114 412
3 422 115 430
3 412 34 422
3 434 415 432
3 432 119 434
3 415 114 432
3 434 11 415
3 437 435 436
3 436 121 437
3 435 117 436
3 437 120 435
3 419 438 436
3 436 117 419
3 438 121 436
3 419 36 438
3 439 424 435
3 435 120 439
3 424 117 435
3 439 35 424
3 441 440 437
3 437 121 441
3 440 120 437
3 441 1 440
3 444 442 443
3 443 124 444
3 442 123 443
3 444 122 442
3 446 445 443
3 443 123 446
3 445 124 443
3 446 39 445
3 448 447 442
3 442 122 448
3 447 123 442
3 448 38 447
3 450 449 444
3 444 124 450
3 449 122 444
3 450 37 449
3 453 451 452
3 452 126 453
3 451 123 452
3 453 125 451
3 447 454 452
3 452 123 447
3 454 126 452
3 447 38 454
3 455 446 451
3 451 125 455
3 446 123 451
3 455 39 446
3 457 456 453
3 453 126 457
3 456 125 453
3 457 9 456
3 460 458 459
3 459 128 460
3 458 122 459
3 460 127 458
3 449 461 459
3 459 122 449
3 461 128 459
3 449 37 461
3 462 448 458
3 458 127 462
3 448 122 458
3 462 38 448
3 464 463 460
3 460 128 464
3 463 127 460
3 464 10 463
3 467 465 466
3 466 130 467
3 465 124 466
3 467 129 465
3 445 468 466
3 466 124 445
3 468 130 466
3 445 39 468
3 469 450 465
3 465 129 469
3 450 124 465
3 469 37 450
3 471 470 467
3 467 130 471
3 470 129 467
3 471 3 470
3 474 472 473
3 473 133 474
3 472 132 473
3 474 131 472
3 476 475 473
3 473 132 476
3 475 133 473
3 476 38 475
3 478 477 472
3 472 131 478
3 477 132 472
3 478 41 477
3 480 479 474
3 474 133 480
3 479 131 474
3 480 40 479
3 483 481 482
3 482 134 483
3 481 132 482
3 483 126 481
3 477 484 482
3 482 132 477
3 484 134 482
3 477 41 484
3 454 476 481
3 481 126 454
3 476 132 481
3 454 38 476
3 485 457 483
3 483 134 485
3 457 126 483
3 485 9 457
3 488 486 487
3 487 136 488
3 486 131 487
3 488 135 486
3 479 489 487
3 487 131 479
3 489 136 487
3 479 40 489
3 490 478 486
3 486 135 490
3 478 131 486
3 490 41 478
3 492 491 488
3 488 136 492
3 491 135 488
3 492 2 491
3 495 493 494
3 494 127 495
3 493 133 494
3 495 137 493
3 475 462 494
3 494 133 475
3 462 127 494
3 475 38 462
3 496 480 493
3 493 137 496
3 480 133 493
3 496 40 480
3 463 497 495
3 495 127 463
3 497 137 495
3 463 10 497
3 500 498 499
3 499 140 500
3 498 139 499
3 500 138 498
3 502 501 499
3 499 139 502
3 501 140 499
3 502 33 501
3 504 503 498
3 498 138 504
3 503 139 498
3 504 13 503
3 506 505 500
3 500 140 506
3 505 138 500
3 506 23 505
3 509 507 508
3 508 47 509
3 507 139 508
3 509 110 507
3 503 182 508
3 508 139 503
3 182 47 508
3 503 13 182
3 398 502 507
3 507 110 398
3 502 139 507
3 398 33 502
3 183 401 509
3 509 47 183
3 401 110 509
3 183 8 401
3 512 510 511
3 511 79 512
3 510 138 511
3 512 46 510
3 505 294 511
3 511 138 505
3 294 79 511
3 505 23 294
3 174 504 510
3 510 46 174
3 504 138 510
3 174 13 504
3 295 177 512
3 512 79 295
3 177 46 512
3 295 4 177
3 515 513 514
3 514 111 515
3 513 140 514
3 515 78 513
3 501 406 514
3 514 140 501
3 406 111 514
3 501 33 406
3 286 506 513
3 513 78 286
3 506 140 513
3 286 23 506
3 407 289 515
3 515 111 407
3 289 78 515
3 407 0 289
3 518 516 517
3 517 143 518
3 516 142 517
3 518 141 516
3 520 519 517
3 517 142 520
3 519 143 517
3 520 19 519
3 522 521 516
3 516 141 522
3 521 142 516
3 522 32 521
3 524 523 518
3 518 143 524
3 523 141 518
3 524 26 523
3 527 525 526
3 526 113 527
3 525 142 526
3 527 66 525
3 521 413 526
3 526 142 521
3 413 113 526
3 521 32 413
3 244 520 525
3 525 66 244
3 520 142 525
3 244 19 520
3 414 247 527
3 527 113 414
3 247 66 527
3 414 11 247
3 530 528 529
3 529 86 530
3 528 141 529
3 530 112 528
3 523 316 529
3 529 141 523
3 316 86 529
3 523 26 316
3 405 522 528
3 528 112 405
3 522 141 528
3 405 32 522
3 317 408 530
3 530 86 317
3 408 112 530
3 317 0 408
3 533 531 532
3 532 61 533
3 531 143 532
3 533 89 531
3 519 231 532
3 532 143 519
3 231 61 532
3 519 19 231
3 326 524 531
3 531 89 326
3 524 143 531
3 326 26 524
3 232 329 533
3 533 61 232
3 329 89 533
3 232 5 329
3 536 534 535
3 535 146 536
3 534 145 535
3 536 144 534
3 538 537 535
3 535 145 538
3 537 146 535
3 538 22 537
3 540 539 534
3 534 144 540
3 539 145 534
3 540 16 539
3 542 541 536
3 536 146 542
3 541 144 536
3 542 39 541
3 545 543 544
3 544 54 545
3 543 145 544
3 545 80 543
3 539 204 544
3 544 145 539
3 204 54 544
3 539 16 204
3 293 538 543
3 543 80 293
3 538 145 543
3 293 22 538
3 205 296 545
3 545 54 205
3 296 80 545
3 205 4 296
3 548 546 547
3 547 125 548
3 546 144 547
3 548 57 546
3 541 455 547
3 547 144 541
3 455 125 547
3 541 39 455
3 214 540 546
3 546 57 214
3 540 144 546
3 214 16 540
3 456 217 548
3 548 125 456
3 217 57 548
3 456 9 217
3 551 549 550
3 550 81 551
3 549 146 550
3 551 130 549
3 537 301 550
3 550 146 537
3 301 81 550
3 537 22 301
3 468 542 549
3 549 130 468
3 542 146 549
3 468 39 542
3 302 471 551
3 551 81 302
3 471 130 551
3 302 3 471
3 554 552 553
3 553 149 554
3 552 148 553
3 554 147 552
3 556 555 553
3 553 148 556
3 555 149 553
3 556 21 555
3 558 557 552
3 552 147 558
3 557 148 552
3 558 25 557
3 560 559 554
3 554 149 560
3 559 147 554
3 560 37 559
3 563 561 562
3 562 88 563
3 561 148 562
3 563 70 561
3 557 327 562
3 562 148 557
3 327 88 562
3 557 25 327
3 260 556 561
3 561 70 260
3 556 148 561
3 260 21 556
3 328 261 563
3 563 88 328
3 261 70 563
3 328 5 261
3 566 564 565
3 565 129 566
3 564 147 565
3 566 87 564
3 559 469 565
3 565 147 559
3 469 129 565
3 559 37 469
3 321 558 564
3 564 87 321
3 558 147 564
3 321 25 558
3 470 322 566
3 566 129 470
3 322 87 566
3 470 3 322
3 569 567 568
3 568 71 569
3 567 149 568
3 569 128 567
3 555 266 568
3 568 149 555
3 266 71 568
3 555 21 266
3 461 560 567
3 567 128 461
3 560 149 567
3 461 37 560
3 267 464 569
3 569 71 267
3 464 128 569
3 267 10 464
3 572 570 571
3 571 152 572
3 570 151 571
3 572 150 570
3 574 573 571
3 571 151 574
3 573 152 571
3 574 27 573
3 576 575 570
3 570 150 576
3 575 151 570
3 576 12 575
3 578 577 572
3 572 152 578
3 577 150 572
3 578 36 577
3 581 579 580
3 580 49 581
3 579 151 580
3 581 96 579
3 575 189 580
3 580 151 575
3 189 49 580
3 575 12 189
3 349 574 579
3 579 96 349
3 574 151 579
3 349 27 574
3 190 352 581
3 581 49 190
3 352 96 581
3 190 7 352
3 584 582 583
3 583 118 584
3 582 150 583
3 584 48 582
3 577 428 583
3 583 150 577
3 428 118 583
3 577 36 428
3 181 576 582
3 582 48 181
3 576 150 582
3 181 12 576
3 429 184 584
3 584 118 429
3 184 48 584
3 429 8 184
3 587 585 586
3 586 97 587
3 585 152 586
3 587 121 585
3 573 357 586
3 586 152 573
3 357 97 586
3 573 27 357
3 438 578 585
3 585 121 438
3 578 152 585
3 438 36 578
3 358 441 587
3 587 97 358
3 441 121 587
3 358 1 441
3 590 588 589
3 589 155 590
3 588 154 589
3 590 153 588
3 592 591 589
3 589 154 592
3 591 155 589
3 592 17 591
3 594 593 588
3 588 153 594
3 593 154 588
3 594 30 593
3 596 595 590
3 590 155 596
3 595 153 590
3 596 35 595
3 599 597 598
3 598 104 599
3 597 154 598
3 599 64 597
3 593 383 598
3 598 154 593
3 383 104 598
3 593 30 383
3 237 592 597
3 597 64 237
3 592 154 597
3 237 17 592
3 384 240 599
3 599 104 384
3 240 64 599
3 384 6 240
3 602 600 601
3 601 120 602
3 600 153 601
3 602 103 600
3 595 439 601
3 601 153 595
3 439 120 601
3 595 35 439
3 377 594 600
3 600 103 377
3 594 153 600
3 377 30 594
3 440 378 602
3 602 120 440
3 378 103 602
3 440 1 378
3 605 603 604
3 604 65 605
3 603 155 604
3 605 119 603
3 591 245 604
3 604 155 591
3 245 65 604
3 591 17 245
3 433 596 603
3 603 119 433
3 596 155 603
3 433 35 596
3 246 434 605
3 605 65 246
3 434 119 605
3 246 11 434
3 608 606 607
3 607 158 608
3 606 157 607
3 608 156 606
3 610 609 607
3 607 157 610
3 609 158 607
3 610 15 609
3 612 611 606
3 606 156 612
3 611 157 606
3 612 28 611
3 614 613 608
3 608 158 614
3 613 156 608
3 614 41 613
3 617 615 616
3 616 95 617
3 615 157 616
3 617 55 615
3 611 350 616
3 616 157 611
3 350 95 616
3 611 28 350
3 209 610 615
3 615 55 209
3 610 157 615
3 209 15 610
3 351 210 617
3 617 95 351
3 210 55 617
3 351 7 210
3 620 618 619
3 619 135 620
3 618 156 619
3 620 94 618
3 613 490 619
3 619 156 613
3 490 135 619
3 613 41 490
3 342 612 618
3 618 94 342
3 612 156 618
3 342 28 612
3 491 345 620
3 620 135 491
3 345 94 620
3 491 2 345
3 623 621 622
3 622 56 623
3 621 158 622
3 623 134 621
3 609 215 622
3 622 158 609
3 215 56 622
3 609 15 215
3 484 614 621
3 621 134 484
3 614 158 621
3 484 41 614
3 216 485 623
3 623 56 216
3 485 134 623
3 216 9 485
3 626 624 625
3 625 161 626
3 624 160 625
3 626 159 624
3 628 627 625
3 625 160 628
3 627 161 625
3 628 31 627
3 630 629 624
3 624 159 630
3 629 160 624
3 630 20 629
3 632 631 626
3 626 161 632
3 631 159 626
3 632 40 631
3 635 633 634
3 634 73 635
3 633 160 634
3 635 105 633
3 629 272 634
3 634 160 629
3 272 73 634
3 629 20 272
3 382 628 633
3 633 105 382
3 628 160 633
3 382 31 628
3 273 385 635
3 635 73 273
3 385 105 635
3 273 6 385
3 638 636 637
3 637 137 638
3 636 159 637
3 638 72 636
3 631 496 637
3 637 159 631
3 496 137 637
3 631 40 496
3 265 630 636
3 636 72 265
3 630 159 636
3 265 20 630
3 497 268 638
3 638 137 497
3 268 72 638
3 497 10 268
3 641 639 640
3 640 102 641
3 639 161 640
3 641 136 639
3 627 372 640
3 640 161 627
3 372 102 640
3 627 31 372
3 489 632 639
3 639 136 489
3 632 161 639
3 489 40 632
3 373 492 641
3 641 102 373
3 492 136 641
3 373 2 492
