# vtk DataFile Version 3.0
this file was written using fslvtkio
ASCII
DATASET POLYDATA
POINTS 642 float
145.499 139.697 106.746
149.116 145.085 111.893
150.884 136.374 118.339
146.314 131.051 113.114
150.171 135.897 105.528
144.494 136.249 114.827
146.37 139.763 117.946
153.023 139.47 109.543
148.404 145.146 102.868
151.353 131.518 115.097
146.842 129.872 122.557
142.877 145.944 109.64
151.326 142.744 105.256
149.541 140.971 102.493
152.269 137.699 106.012
152.648 135.138 112.309
151.414 132.861 109.515
143.991 143.958 114.659
144.872 137.351 117.54
144.125 141.303 112.138
146.938 134.26 120.367
144.775 132.408 118.822
148.578 132.528 109.072
147.628 138.104 104.977
145.852 134.929 109.768
144.502 132.719 114.86
144.482 138.23 110.762
151.535 142.911 109.958
152.418 137.944 114.258
150.465 141.015 115.613
147.046 143.593 115.657
148.903 137.501 120.62
144.314 143.089 107.395
146.182 143.301 102.825
145.217 147.443 105.277
145.197 147.242 111.045
148.886 146.118 107.007
145.318 128.713 118.499
149.432 129.226 120.177
148.88 129.649 114.28
149.593 132.547 121.64
152.344 132.843 118.231
150.792 141.894 103.238
151.392 139.444 103.476
151.982 140.227 105.564
151.661 136.555 105.14
149.935 138.552 103.473
149.097 143.191 101.986
149.889 143.987 103.922
152.446 141.22 107.179
152.918 138.468 107.798
152.772 136.372 108.93
152.139 135.233 107.55
152.251 134.009 110.636
150.787 134.143 107.264
153.007 137.258 110.891
152.436 133.108 113.766
151.752 131.896 112.298
144.747 140.977 115.319
144.857 139.571 114.747
143.596 142.544 113.491
144.697 138.778 113.337
144.556 136.877 116.196
145.597 138.817 117.313
145.099 141.986 116.339
142.879 144.959 112.472
143.513 143.617 110.917
145.739 133.19 120.051
144.325 134.92 118.553
145.363 135.914 119.898
143.872 134.338 117.116
145.287 131.037 121.315
146.788 132.131 122.042
146.493 136.926 119.775
148.096 135.196 107.277
147.107 136.345 107.878
146.946 133.765 108.858
146.033 137.397 108.451
146.522 138.84 105.79
148.859 137.032 105.176
149.333 134.211 107.073
147.547 131.763 111.088
145.7 132.947 111.017
144.654 133.879 111.962
145.52 136.5 110.608
144.614 135.238 112.704
144.766 138.973 108.665
145.273 131.849 114.175
143.835 134.491 114.751
144.738 137.229 112.877
152.25 140.631 112.242
151.893 139.648 115.08
151.458 142.141 113.041
151 138.717 117.406
151.891 137.195 116.504
152.829 138.683 111.937
152.433 141.327 109.603
150.63 144.131 110.959
149.872 143.112 113.762
148.752 142.231 115.804
149.494 139.428 117.777
148.106 140.563 117.618
150.198 136.987 120.029
148.111 144.376 114.014
146.586 141.749 117.392
147.541 138.685 119.294
144.856 143.743 104.73
145.62 145.831 103.338
144.055 145.887 105.774
146.938 146.319 104.141
147.32 144.401 102.067
145.754 141.489 104.749
144.821 141.378 106.91
143.7 144.304 108.483
143.656 147.252 107.569
144.858 147.74 108.275
146.817 146.671 106.708
147.12 147.068 109.097
148.648 145.645 105.107
143.336 147.033 111.207
147.45 146.33 111.436
149.241 145.906 109.362
147.177 128.303 119.844
149.068 129.33 117.442
147.148 128.786 116.702
150.328 130.449 114.708
150.655 130.239 117.708
148.129 129.092 122.046
145.39 129.153 121.001
145.697 129.712 115.395
147.504 129.721 113.24
151.337 132.27 120.719
151.315 130.618 119.677
149.92 130.136 122.028
151.977 132.138 116.741
151.749 134.571 118.423
150.348 134.394 119.911
148.289 131.238 122.537
148.34 139.589 103.088
147.826 142.147 102.334
146.799 140.725 103.747
144.34 140.723 108.943
144.092 142.227 109.777
144.289 139.865 111.272
150.566 130.713 112.03
150.038 132.387 109.217
148.83 130.475 111.667
144.722 130.397 116.837
144.516 132.771 116.691
144.307 130.312 119.735
150.418 144.784 105.67
151.774 143.17 107.349
150.43 144.789 108.296
146.382 145.758 113.447
145.457 143.765 115.845
144.235 146.052 113.266
152.197 135.469 116.09
152.812 136.32 113.457
152.646 134.044 115.339
148.263 133.523 121.391
147.623 136.214 120.852
149.195 135.44 120.347
151.213 140.662 103.325
151.727 139.881 104.494
151.42 141.061 104.375
152.143 138.983 105.647
151.889 138.725 104.624
150.616 140.266 102.712
150.359 141.425 102.56
150.97 142.247 104.268
151.55 141.536 105.268
151.513 138.143 104.219
150.658 139.034 103.327
150.883 137.777 104.245
149.78 139.874 102.565
152.059 137.239 105.303
150.99 136.297 105.078
150.208 137.294 104.684
150.076 142.598 102.36
150.374 143.006 103.383
149.755 143.606 102.56
150.599 143.316 104.576
149.396 142.064 102.177
148.88 144.177 102.331
149.254 144.544 103.253
152.195 140.805 106.244
152.499 139.369 106.575
152.706 139.894 107.285
152.609 138.148 106.824
151.966 142.019 106.096
152.874 140.204 108.201
153.096 139.05 108.467
152.434 135.787 108.305
152.236 134.615 109.157
152.565 135.179 109.851
151.936 133.482 109.845
151.843 134.151 108.494
152.328 136.447 106.779
152.596 137.043 107.451
152.798 135.749 110.463
152.541 134.74 111.242
151.57 134.661 107.272
152.069 135.914 106.244
151.361 135.371 105.967
151.151 133.582 108.45
150.607 135.044 106.048
152.87 137.42 108.425
152.915 136.773 110.03
153.102 137.899 109.345
152.89 136.128 111.357
153.085 138.435 110.076
152.341 133.732 112.084
151.97 133.048 111.335
152.187 132.613 112.828
151.562 132.438 110.85
152.468 134.221 112.918
151.975 132.276 114.322
151.648 131.744 113.621
144.665 140.37 114.846
144.267 141.238 113.772
144.17 141.83 114.425
144.019 141.899 112.828
144.504 140.638 113.423
145.104 138.544 116.017
145.054 139.411 116.024
144.244 142.43 114.966
143.709 143.15 114.225
144.852 139.295 113.996
144.954 138.212 115.445
144.839 137.938 114.709
144.658 137.151 116.898
144.631 140.062 112.851
144.719 137.42 114.174
144.583 136.672 115.422
145.15 139.905 116.372
144.88 141.632 115.678
145.399 140.545 116.61
144.533 143.055 115.48
145.201 138.121 117.389
145.932 139.396 117.495
145.762 140.781 117.124
143.277 143.63 113.044
143.521 142.988 112.116
142.939 144.278 111.696
143.932 142.48 111.504
143.467 144.284 113.564
142.605 145.528 111.011
143.06 144.758 110.215
145.114 134.206 119.155
144.809 135.257 119.426
145.597 134.668 119.522
144.943 136.526 118.842
144.404 135.933 118.427
144.731 133.685 118.609
145.1 132.954 119.548
146.324 133.716 120.048
146.125 135.012 119.982
144.086 136.052 117.552
144.062 134.595 117.944
143.923 135.655 116.676
144.455 133.45 117.872
143.792 135.305 116.088
145.464 132.296 120.738
146.243 132.681 121.093
145.859 131.575 121.868
146.901 133.28 121.004
144.983 131.936 120.065
146.032 130.496 122.043
146.696 131.11 122.303
145.988 136.26 119.942
145.433 137.408 118.566
146.037 137.91 118.532
146.658 135.516 120.338
146.438 138.503 118.565
147.565 135.837 107.543
147.08 135.039 108.493
147.591 134.458 108.104
146.459 134.381 109.205
146.553 135.493 108.89
147.437 137.127 106.519
147.937 136.551 106.501
148.196 133.835 107.959
147.713 133.228 108.781
146.654 136.839 108.25
146.921 137.63 106.847
146.257 138.085 107.092
147.102 138.391 105.432
146.235 136.147 109.289
145.656 138.491 107.544
145.954 139.213 106.27
148.477 136.065 106.309
148.679 134.627 107.079
149.09 135.569 106.147
148.857 133.338 107.911
148.174 137.424 105.209
149.554 136.653 105.326
149.747 135.112 106.185
147.185 132.759 109.821
146.397 133.34 109.936
146.663 132.425 110.894
145.706 133.957 110.2
148.014 132.169 109.931
146.853 131.443 111.917
146.064 132.066 111.985
145.162 135.248 111.092
145.232 136.109 111.661
144.708 134.67 112.294
145.179 136.67 111.997
145.074 137.339 110.835
145.695 135.623 110.225
145.271 134.458 110.927
144.28 133.265 113.277
144.087 133.953 113.561
145.142 137.709 109.653
145.837 136.826 109.61
145.353 138.068 108.598
144.546 138.556 109.72
145.136 139.289 107.714
145.048 133.388 111.397
144.733 132.742 112.985
145.387 132.431 112.471
144.908 132.317 114.593
145.666 131.526 113.454
144.17 134.754 113.636
144.918 136.206 112.859
144.425 135.812 113.766
144.707 137.664 111.87
143.976 133.58 114.724
144.022 135.489 114.732
144.646 136.785 113.802
152.228 140.154 113.687
151.737 140.93 114.058
152.018 141.392 112.671
151.116 141.539 114.383
151.372 140.469 115.3
152.294 138.935 114.541
152.441 139.36 113.271
152 141.848 111.241
151.714 142.468 111.627
151.508 139.243 116.308
151.977 138.436 115.833
151.53 137.934 117.012
152.131 137.635 115.33
150.759 139.97 116.442
151.084 137.549 118.144
151.423 136.76 117.497
152.529 139.666 112.038
152.318 141.019 110.911
152.724 140.11 110.704
152.007 142.188 109.799
152.659 138.362 113.163
152.971 139.095 110.758
152.796 140.482 109.363
151.101 143.141 111.927
150.718 142.631 113.431
150.313 143.65 112.454
150.258 142.046 114.654
151.122 143.436 110.454
149.963 144.615 111.533
149.502 144.109 112.799
149.343 140.949 116.721
148.857 140.086 117.647
148.465 141.444 116.654
148.466 139.156 118.717
149.07 138.551 118.914
149.98 140.324 116.747
149.686 141.521 115.78
147.905 142.826 115.849
147.681 141.993 116.605
149.807 138.197 118.762
150.25 139.157 117.494
150.623 137.868 118.828
149.647 137.318 120.472
150.587 136.738 119.162
149.358 142.567 114.873
148.396 143.298 114.97
148.988 143.622 113.974
147.585 144.073 114.982
148.65 144.692 113
147.352 141.198 117.502
147.791 139.687 118.558
147.066 140.248 118.294
148.235 138.143 119.878
146.89 142.633 116.481
146.387 140.763 117.854
146.963 139.238 118.562
145.038 144.892 103.915
144.731 145.946 104.331
144.417 144.938 104.981
144.484 146.82 105.024
145.36 146.749 104.028
145.792 144.734 102.988
145.467 143.847 103.584
144.416 143.891 105.959
144.069 144.705 106.38
146.276 146.234 103.455
146.466 145.255 102.547
147.123 145.587 102.828
146.606 144.026 102.65
146.077 147.051 104.499
147.723 145.846 103.562
147.882 144.948 102.315
145.367 142.675 104.637
144.849 142.672 105.905
145.245 141.56 105.783
144.659 142.448 107.007
145.888 142.578 103.703
145.631 140.585 105.751
145.142 140.498 106.842
143.746 145.2 107.302
143.795 146.493 106.579
143.369 146.002 107.983
144.327 147.337 106.195
143.935 143.873 107.622
143.381 144.923 109.046
143.055 146.723 108.832
145.771 147.211 107.509
146.724 146.963 107.948
145.878 147.265 108.851
147.848 146.739 108.022
147.739 146.658 107.015
146.042 147.162 105.979
145.109 147.67 106.62
145.039 147.573 109.75
146.197 147.252 110.031
147.794 146.338 105.917
146.849 146.593 105.351
147.817 146.053 104.695
148.718 146.028 106.081
148.582 145.262 104.036
144.313 147.738 107.411
144.129 147.91 109.497
143.22 147.553 109.099
144.106 147.54 110.922
142.819 146.709 110.392
147.433 146.864 110.203
148.377 146.637 109.049
148.5 146.17 110.505
148.938 146.176 108.091
146.362 146.751 111.152
148.381 145.721 111.643
149.319 145.522 110.632
148.238 128.732 118.587
148.127 129 117.076
147.167 128.503 118.332
148.095 129.17 115.717
148.945 129.406 115.955
149.093 128.966 119.071
148.155 128.554 120.073
146.145 128.14 119.521
146.203 128.458 117.802
149.695 129.924 116.142
149.842 129.587 117.817
150.413 130.379 116.359
150.147 129.605 119.025
149.614 130.01 114.576
150.82 130.994 114.886
151.055 130.961 116.367
147.412 128.567 121.133
146.236 128.443 120.774
146.64 128.848 121.792
145.207 128.643 120.006
148.683 128.966 121.106
147.555 129.423 122.626
146.113 129.425 121.942
146.449 128.924 116.17
147.496 129.044 114.895
146.548 129.625 114.402
148.123 129.331 114.045
145.722 128.961 116.786
146.025 130.48 114.201
146.932 130.42 113.15
151.354 131.231 120.54
150.857 130.244 121.044
150.856 131.003 121.578
149.788 129.608 121.147
150.548 129.884 119.975
151.952 131.575 119.2
151.927 132.279 119.707
150.468 131.987 121.459
149.946 131.155 122.05
151.059 130.274 118.688
151.724 131.259 118.269
151.396 131.097 117.255
152.212 132.286 117.69
151.729 131.778 115.961
151.711 133.321 119.767
150.841 133.192 120.524
151.155 134.327 119.447
150.085 133.303 120.971
152.11 133.533 118.615
151.28 135.433 118.265
150.611 135.405 118.973
149.159 130.443 122.664
149.09 129.532 122.032
148.33 129.89 122.889
149.088 131.688 122.102
147.503 130.649 122.708
148.113 140.91 102.631
147.201 141.429 102.782
147.478 140.122 103.33
146.507 141.965 103.203
146.958 142.686 102.499
148.692 141.577 102.269
148.968 140.308 102.577
147.877 138.997 103.991
147.216 139.429 104.35
147.419 143.284 102.295
148.449 142.719 102.007
148.208 143.969 102.02
149.105 139.086 103.193
148.483 138.234 104.164
149.367 137.715 104.321
146.665 139.749 104.818
146.275 141.207 104.151
146.086 140.162 105.288
144.091 141.511 109.291
144.258 141.044 110.563
144.237 140.337 110.12
144.37 140.548 111.761
144.138 141.733 110.988
144.192 142.689 108.546
144.321 141.893 108.134
144.283 139.547 109.773
144.305 139.1 110.93
143.903 142.791 110.357
143.883 143.268 108.998
143.526 143.929 109.716
144.561 141.16 107.879
144.546 139.835 108.841
144.846 140.17 107.828
144.326 138.551 111.899
144.407 139.405 112.283
144.552 137.986 113.079
150.299 131.375 110.644
149.541 131.299 110.503
149.724 130.407 111.868
148.794 131.508 110.45
149.35 132.288 109.152
150.688 132.554 109.49
151.023 131.786 110.814
149.82 130.053 113.187
148.989 129.662 112.92
149.587 133.196 107.949
150.451 133.237 108.372
150.089 134.236 107.02
151.276 131.283 112.071
150.495 130.56 113.344
151.165 131.118 113.493
148.238 129.879 112.561
148.18 131.203 111.253
147.569 130.752 112.299
144.549 131.308 117.203
144.385 131.154 118.307
144.295 130.074 118.267
144.61 131.575 118.936
144.617 132.687 117.512
144.518 132.645 115.87
144.79 131.669 115.94
144.887 129.334 117.594
144.569 129.216 119.374
144.072 133.5 116.964
143.884 133.537 115.78
143.721 134.608 115.825
145.073 131.153 115.444
145.176 129.858 116.247
145.582 130.807 114.873
144.775 129.641 120.42
144.759 131.098 120.1
145.423 130.189 121.536
151.189 144.046 106.383
151.154 144.08 107.644
150.492 144.84 106.881
151.074 143.883 108.925
151.601 143.199 108.55
151.659 143.105 106.156
150.954 143.808 105.41
149.758 145.532 106.274
149.784 145.534 107.481
152.166 142.33 108.592
152.145 142.31 107.17
152.524 141.31 108.333
150.188 144.375 104.859
149.53 145.348 105.424
149.308 144.867 104.512
149.795 145.461 108.706
150.605 144.417 109.606
150.01 145.066 110.181
145.734 144.991 114.496
144.898 145.047 114.531
145.273 145.886 113.301
144.105 144.89 114.24
144.697 143.843 115.575
146.233 143.841 115.657
146.704 144.735 114.606
145.866 146.44 112.157
144.726 146.786 112.154
145.187 142.803 116.502
146.116 142.757 116.694
145.798 141.647 117.226
147.355 145.073 113.802
146.956 146.102 112.481
147.911 145.368 112.731
143.968 146.651 112.298
143.473 145.272 113.379
143.016 145.935 111.773
152.513 135.982 114.843
152.598 135.278 114.316
152.508 134.729 115.81
152.598 134.709 113.767
152.877 135.727 112.878
152.611 137.07 113.912
152.362 136.763 115.05
152.277 134.154 117.168
152.392 133.414 116.778
152.85 136.722 112.193
152.711 137.516 112.722
152.926 137.957 111.462
152.078 136.354 116.197
152.044 134.919 117.312
151.707 135.912 117.273
152.4 132.973 116.114
152.637 133.598 114.496
152.218 132.621 115.197
148.079 134.995 120.443
148.435 135.929 120.68
148.737 134.587 120.822
149.076 136.465 121.072
148.174 136.936 121.152
147.361 135.247 120.379
147.66 134.054 120.747
148.878 133.141 121.618
149.381 134.013 120.917
147.565 137.398 120.207
146.953 136.413 120.606
146.947 138.022 119.196
147.5 132.985 121.674
148.339 132.46 122.045
147.526 131.83 122.277
149.754 134.82 120.075
149.682 136.234 120.143
150.17 135.831 119.292
POLYGONS 1280  5120
3 164 162 163
3 163 44 164
3 162 43 163
3 164 42 162
3 166 165 163
3 163 43 166
3 165 44 163
3 166 14 165
3 168 167 162
3 162 42 168
3 167 43 162
3 168 13 167
3 170 169 164
3 164 44 170
3 169 42 164
3 170 12 169
3 173 171 172
3 172 46 173
3 171 43 172
3 173 45 171
3 167 174 172
3 172 43 167
3 174 46 172
3 167 13 174
3 175 166 171
3 171 45 175
3 166 43 171
3 175 14 166
3 177 176 173
3 173 46 177
3 176 45 173
3 177 4 176
3 180 178 179
3 179 48 180
3 178 42 179
3 180 47 178
3 169 181 179
3 179 42 169
3 181 48 179
3 169 12 181
3 182 168 178
3 178 47 182
3 168 42 178
3 182 13 168
3 184 183 180
3 180 48 184
3 183 47 180
3 184 8 183
3 187 185 186
3 186 50 187
3 185 44 186
3 187 49 185
3 165 188 186
3 186 44 165
3 188 50 186
3 165 14 188
3 189 170 185
3 185 49 189
3 170 44 185
3 189 12 170
3 191 190 187
3 187 50 191
3 190 49 187
3 191 7 190
3 194 192 193
3 193 53 194
3 192 52 193
3 194 51 192
3 196 195 193
3 193 52 196
3 195 53 193
3 196 16 195
3 198 197 192
3 192 51 198
3 197 52 192
3 198 14 197
3 200 199 194
3 194 53 200
3 199 51 194
3 200 15 199
3 203 201 202
3 202 45 203
3 201 52 202
3 203 54 201
3 197 175 202
3 202 52 197
3 175 45 202
3 197 14 175
3 204 196 201
3 201 54 204
3 196 52 201
3 204 16 196
3 176 205 203
3 203 45 176
3 205 54 203
3 176 4 205
3 208 206 207
3 207 55 208
3 206 51 207
3 208 50 206
3 199 209 207
3 207 51 199
3 209 55 207
3 199 15 209
3 188 198 206
3 206 50 188
3 198 51 206
3 188 14 198
3 210 191 208
3 208 55 210
3 191 50 208
3 210 7 191
3 213 211 212
3 212 57 213
3 211 53 212
3 213 56 211
3 195 214 212
3 212 53 195
3 214 57 212
3 195 16 214
3 215 200 211
3 211 56 215
3 200 53 211
3 215 15 200
3 217 216 213
3 213 57 217
3 216 56 213
3 217 9 216
3 220 218 219
3 219 60 220
3 218 59 219
3 220 58 218
3 222 221 219
3 219 59 222
3 221 60 219
3 222 19 221
3 224 223 218
3 218 58 224
3 223 59 218
3 224 18 223
3 226 225 220
3 220 60 226
3 225 58 220
3 226 17 225
3 229 227 228
3 228 62 229
3 227 59 228
3 229 61 227
3 223 230 228
3 228 59 223
3 230 62 228
3 223 18 230
3 231 222 227
3 227 61 231
3 222 59 227
3 231 19 222
3 233 232 229
3 229 62 233
3 232 61 229
3 233 5 232
3 236 234 235
3 235 64 236
3 234 58 235
3 236 63 234
3 225 237 235
3 235 58 225
3 237 64 235
3 225 17 237
3 238 224 234
3 234 63 238
3 224 58 234
3 238 18 224
3 240 239 236
3 236 64 240
3 239 63 236
3 240 6 239
3 243 241 242
3 242 66 243
3 241 60 242
3 243 65 241
3 221 244 242
3 242 60 221
3 244 66 242
3 221 19 244
3 245 226 241
3 241 65 245
3 226 60 241
3 245 17 226
3 247 246 243
3 243 66 247
3 246 65 243
3 247 11 246
3 250 248 249
3 249 69 250
3 248 68 249
3 250 67 248
3 252 251 249
3 249 68 252
3 251 69 249
3 252 18 251
3 254 253 248
3 248 67 254
3 253 68 248
3 254 21 253
3 256 255 250
3 250 69 256
3 255 67 250
3 256 20 255
3 259 257 258
3 258 70 259
3 257 68 258
3 259 62 257
3 253 260 258
3 258 68 253
3 260 70 258
3 253 21 260
3 230 252 257
3 257 62 230
3 252 68 257
3 230 18 252
3 261 233 259
3 259 70 261
3 233 62 259
3 261 5 233
3 264 262 263
3 263 72 264
3 262 67 263
3 264 71 262
3 255 265 263
3 263 67 255
3 265 72 263
3 255 20 265
3 266 254 262
3 262 71 266
3 254 67 262
3 266 21 254
3 268 267 264
3 264 72 268
3 267 71 264
3 268 10 267
3 271 269 270
3 270 63 271
3 269 69 270
3 271 73 269
3 251 238 270
3 270 69 251
3 238 63 270
3 251 18 238
3 272 256 269
3 269 73 272
3 256 69 269
3 272 20 256
3 239 273 271
3 271 63 239
3 273 73 271
3 239 6 273
3 276 274 275
3 275 76 276
3 274 75 275
3 276 74 274
3 278 277 275
3 275 75 278
3 277 76 275
3 278 24 277
3 280 279 274
3 274 74 280
3 279 75 274
3 280 23 279
3 282 281 276
3 276 76 282
3 281 74 276
3 282 22 281
3 285 283 284
3 284 78 285
3 283 75 284
3 285 77 283
3 279 286 284
3 284 75 279
3 286 78 284
3 279 23 286
3 287 278 283
3 283 77 287
3 278 75 283
3 287 24 278
3 289 288 285
3 285 78 289
3 288 77 285
3 289 0 288
3 292 290 291
3 291 80 292
3 290 74 291
3 292 79 290
3 281 293 291
3 291 74 281
3 293 80 291
3 281 22 293
3 294 280 290
3 290 79 294
3 280 74 290
3 294 23 280
3 296 295 292
3 292 80 296
3 295 79 292
3 296 4 295
3 299 297 298
3 298 82 299
3 297 76 298
3 299 81 297
3 277 300 298
3 298 76 277
3 300 82 298
3 277 24 300
3 301 282 297
3 297 81 301
3 282 76 297
3 301 22 282
3 303 302 299
3 299 82 303
3 302 81 299
3 303 3 302
3 306 304 305
3 305 85 306
3 304 84 305
3 306 83 304
3 308 307 305
3 305 84 308
3 307 85 305
3 308 26 307
3 310 309 304
3 304 83 310
3 309 84 304
3 310 24 309
3 312 311 306
3 306 85 312
3 311 83 306
3 312 25 311
3 315 313 314
3 314 77 315
3 313 84 314
3 315 86 313
3 309 287 314
3 314 84 309
3 287 77 314
3 309 24 287
3 316 308 313
3 313 86 316
3 308 84 313
3 316 26 308
3 288 317 315
3 315 77 288
3 317 86 315
3 288 0 317
3 320 318 319
3 319 87 320
3 318 83 319
3 320 82 318
3 311 321 319
3 319 83 311
3 321 87 319
3 311 25 321
3 300 310 318
3 318 82 300
3 310 83 318
3 300 24 310
3 322 303 320
3 320 87 322
3 303 82 320
3 322 3 303
3 325 323 324
3 324 89 325
3 323 85 324
3 325 88 323
3 307 326 324
3 324 85 307
3 326 89 324
3 307 26 326
3 327 312 323
3 323 88 327
3 312 85 323
3 327 25 312
3 329 328 325
3 325 89 329
3 328 88 325
3 329 5 328
3 332 330 331
3 331 92 332
3 330 91 331
3 332 90 330
3 334 333 331
3 331 91 334
3 333 92 331
3 334 29 333
3 336 335 330
3 330 90 336
3 335 91 330
3 336 28 335
3 338 337 332
3 332 92 338
3 337 90 332
3 338 27 337
3 341 339 340
3 340 94 341
3 339 91 340
3 341 93 339
3 335 342 340
3 340 91 335
3 342 94 340
3 335 28 342
3 343 334 339
3 339 93 343
3 334 91 339
3 343 29 334
3 345 344 341
3 341 94 345
3 344 93 341
3 345 2 344
3 348 346 347
3 347 96 348
3 346 90 347
3 348 95 346
3 337 349 347
3 347 90 337
3 349 96 347
3 337 27 349
3 350 336 346
3 346 95 350
3 336 90 346
3 350 28 336
3 352 351 348
3 348 96 352
3 351 95 348
3 352 7 351
3 355 353 354
3 354 98 355
3 353 92 354
3 355 97 353
3 333 356 354
3 354 92 333
3 356 98 354
3 333 29 356
3 357 338 353
3 353 97 357
3 338 92 353
3 357 27 338
3 359 358 355
3 355 98 359
3 358 97 355
3 359 1 358
3 362 360 361
3 361 101 362
3 360 100 361
3 362 99 360
3 364 363 361
3 361 100 364
3 363 101 361
3 364 31 363
3 366 365 360
3 360 99 366
3 365 100 360
3 366 29 365
3 368 367 362
3 362 101 368
3 367 99 362
3 368 30 367
3 371 369 370
3 370 93 371
3 369 100 370
3 371 102 369
3 365 343 370
3 370 100 365
3 343 93 370
3 365 29 343
3 372 364 369
3 369 102 372
3 364 100 369
3 372 31 364
3 344 373 371
3 371 93 344
3 373 102 371
3 344 2 373
3 376 374 375
3 375 103 376
3 374 99 375
3 376 98 374
3 367 377 375
3 375 99 367
3 377 103 375
3 367 30 377
3 356 366 374
3 374 98 356
3 366 99 374
3 356 29 366
3 378 359 376
3 376 103 378
3 359 98 376
3 378 1 359
3 381 379 380
3 380 105 381
3 379 101 380
3 381 104 379
3 363 382 380
3 380 101 363
3 382 105 380
3 363 31 382
3 383 368 379
3 379 104 383
3 368 101 379
3 383 30 368
3 385 384 381
3 381 105 385
3 384 104 381
3 385 6 384
3 388 386 387
3 387 108 388
3 386 107 387
3 388 106 386
3 390 389 387
3 387 107 390
3 389 108 387
3 390 34 389
3 392 391 386
3 386 106 392
3 391 107 386
3 392 33 391
3 394 393 388
3 388 108 394
3 393 106 388
3 394 32 393
3 397 395 396
3 396 110 397
3 395 107 396
3 397 109 395
3 391 398 396
3 396 107 391
3 398 110 396
3 391 33 398
3 399 390 395
3 395 109 399
3 390 107 395
3 399 34 390
3 401 400 397
3 397 110 401
3 400 109 397
3 401 8 400
3 404 402 403
3 403 112 404
3 402 106 403
3 404 111 402
3 393 405 403
3 403 106 393
3 405 112 403
3 393 32 405
3 406 392 402
3 402 111 406
3 392 106 402
3 406 33 392
3 408 407 404
3 404 112 408
3 407 111 404
3 408 0 407
3 411 409 410
3 410 114 411
3 409 108 410
3 411 113 409
3 389 412 410
3 410 108 389
3 412 114 410
3 389 34 412
3 413 394 409
3 409 113 413
3 394 108 409
3 413 32 394
3 415 414 411
3 411 114 415
3 414 113 411
3 415 11 414
3 418 416 417
3 417 117 418
3 416 116 417
3 418 115 416
3 420 419 417
3 417 116 420
3 419 117 417
3 420 36 419
3 422 421 416
3 416 115 422
3 421 116 416
3 422 34 421
3 424 423 418
3 418 117 424
3 423 115 418
3 424 35 423
3 427 425 426
3 426 109 427
3 425 116 426
3 427 118 425
3 421 399 426
3 426 116 421
3 399 109 426
3 421 34 399
3 428 420 425
3 425 118 428
3 420 116 425
3 428 36 420
3 400 429 427
3 427 109 400
3 429 118 427
3 400 8 429
3 432 430 431
3 431 119 432
3 430 115 431
3 432 114 430
3 423 433 431
3 431 115 423
3 433 119 431
3 423 35 433
3 412 422 430
3 430 114 412
3 422 115 430
3 412 34 422
3 434 415 432
3 432 119 434
3 415 114 432
3 434 11 415
3 437 435 436
3 436 121 437
3 435 117 436
3 437 120 435
3 419 438 436
3 436 117 419
3 438 121 436
3 419 36 438
3 439 424 435
3 435 120 439
3 424 117 435
3 439 35 424
3 441 440 437
3 437 121 441
3 440 120 437
3 441 1 440
3 444 442 443
3 443 124 444
3 442 123 443
3 444 122 442
3 446 445 443
3 443 123 446
3 445 124 443
3 446 39 445
3 448 447 442
3 442 122 448
3 447 123 442
3 448 38 447
3 450 449 444
3 444 124 450
3 449 122 444
3 450 37 449
3 453 451 452
3 452 126 453
3 451 123 452
3 453 125 451
3 447 454 452
3 452 123 447
3 454 126 452
3 447 38 454
3 455 446 451
3 451 125 455
3 446 123 451
3 455 39 446
3 457 456 453
3 453 126 457
3 456 125 453
3 457 9 456
3 460 458 459
3 459 128 460
3 458 122 459
3 460 127 458
3 449 461 459
3 459 122 449
3 461 128 459
3 449 37 461
3 462 448 458
3 458 127 462
3 448 122 458
3 462 38 448
3 464 463 460
3 460 128 464
3 463 127 460
3 464 10 463
3 467 465 466
3 466 130 467
3 465 124 466
3 467 129 465
3 445 468 466
3 466 124 445
3 468 130 466
3 445 39 468
3 469 450 465
3 465 129 469
3 450 124 465
3 469 37 450
3 471 470 467
3 467 130 471
3 470 129 467
3 471 3 470
3 474 472 473
3 473 133 474
3 472 132 473
3 474 131 472
3 476 475 473
3 473 132 476
3 475 133 473
3 476 38 475
3 478 477 472
3 472 131 478
3 477 132 472
3 478 41 477
3 480 479 474
3 474 133 480
3 479 131 474
3 480 40 479
3 483 481 482
3 482 134 483
3 481 132 482
3 483 126 481
3 477 484 482
3 482 132 477
3 484 134 482
3 477 41 484
3 454 476 481
3 481 126 454
3 476 132 481
3 454 38 476
3 485 457 483
3 483 134 485
3 457 126 483
3 485 9 457
3 488 486 487
3 487 136 488
3 486 131 487
3 488 135 486
3 479 489 487
3 487 131 479
3 489 136 487
3 479 40 489
3 490 478 486
3 486 135 490
3 478 131 486
3 490 41 478
3 492 491 488
3 488 136 492
3 491 135 488
3 492 2 491
3 495 493 494
3 494 127 495
3 493 133 494
3 495 137 493
3 475 462 494
3 494 133 475
3 462 127 494
3 475 38 462
3 496 480 493
3 493 137 496
3 480 133 493
3 496 40 480
3 463 497 495
3 495 127 463
3 497 137 495
3 463 10 497
3 500 498 499
3 499 140 500
3 498 139 499
3 500 138 498
3 502 501 499
3 499 139 502
3 501 140 499
3 502 33 501
3 504 503 498
3 498 138 504
3 503 139 498
3 504 13 503
3 506 505 500
3 500 140 506
3 505 138 500
3 506 23 505
3 509 507 508
3 508 47 509
3 507 139 508
3 509 110 507
3 503 182 508
3 508 139 503
3 182 47 508
3 503 13 182
3 398 502 507
3 507 110 398
3 502 139 507
3 398 33 502
3 183 401 509
3 509 47 183
3 401 110 509
3 183 8 401
3 512 510 511
3 511 79 512
3 510 138 511
3 512 46 510
3 505 294 511
3 511 138 505
3 294 79 511
3 505 23 294
3 174 504 510
3 510 46 174
3 504 138 510
3 174 13 504
3 295 177 512
3 512 79 295
3 177 46 512
3 295 4 177
3 515 513 514
3 514 111 515
3 513 140 514
3 515 78 513
3 501 406 514
3 514 140 501
3 406 111 514
3 501 33 406
3 286 506 513
3 513 78 286
3 506 140 513
3 286 23 506
3 407 289 515
3 515 111 407
3 289 78 515
3 407 0 289
3 518 516 517
3 517 143 518
3 516 142 517
3 518 141 516
3 520 519 517
3 517 142 520
3 519 143 517
3 520 19 519
3 522 521 516
3 516 141 522
3 521 142 516
3 522 32 521
3 524 523 518
3 518 143 524
3 523 141 518
3 524 26 523
3 527 525 526
3 526 113 527
3 525 142 526
3 527 66 525
3 521 413 526
3 526 142 521
3 413 113 526
3 521 32 413
3 244 520 525
3 525 66 244
3 520 142 525
3 244 19 520
3 414 247 527
3 527 113 414
3 247 66 527
3 414 11 247
3 530 528 529
3 529 86 530
3 528 141 529
3 530 112 528
3 523 316 529
3 529 141 523
3 316 86 529
3 523 26 316
3 405 522 528
3 528 112 405
3 522 141 528
3 405 32 522
3 317 408 530
3 530 86 317
3 408 112 530
3 317 0 408
3 533 531 532
3 532 61 533
3 531 143 532
3 533 89 531
3 519 231 532
3 532 143 519
3 231 61 532
3 519 19 231
3 326 524 531
3 531 89 326
3 524 143 531
3 326 26 524
3 232 329 533
3 533 61 232
3 329 89 533
3 232 5 329
3 536 534 535
3 535 146 536
3 534 145 535
3 536 144 534
3 538 537 535
3 535 145 538
3 537 146 535
3 538 22 537
3 540 539 534
3 534 144 540
3 539 145 534
3 540 16 539
3 542 541 536
3 536 146 542
3 541 144 536
3 542 39 541
3 545 543 544
3 544 54 545
3 543 145 544
3 545 80 543
3 539 204 544
3 544 145 539
3 204 54 544
3 539 16 204
3 293 538 543
3 543 80 293
3 538 145 543
3 293 22 538
3 205 296 545
3 545 54 205
3 296 80 545
3 205 4 296
3 548 546 547
3 547 125 548
3 546 144 547
3 548 57 546
3 541 455 547
3 547 144 541
3 455 125 547
3 541 39 455
3 214 540 546
3 546 57 214
3 540 144 546
3 214 16 540
3 456 217 548
3 548 125 456
3 217 57 548
3 456 9 217
3 551 549 550
3 550 81 551
3 549 146 550
3 551 130 549
3 537 301 550
3 550 146 537
3 301 81 550
3 537 22 301
3 468 542 549
3 549 130 468
3 542 146 549
3 468 39 542
3 302 471 551
3 551 81 302
3 471 130 551
3 302 3 471
3 554 552 553
3 553 149 554
3 552 148 553
3 554 147 552
3 556 555 553
3 553 148 556
3 555 149 553
3 556 21 555
3 558 557 552
3 552 147 558
3 557 148 552
3 558 25 557
3 560 559 554
3 554 149 560
3 559 147 554
3 560 37 559
3 563 561 562
3 562 88 563
3 561 148 562
3 563 70 561
3 557 327 562
3 562 148 557
3 327 88 562
3 557 25 327
3 260 556 561
3 561 70 260
3 556 148 561
3 260 21 556
3 328 261 563
3 563 88 328
3 261 70 563
3 328 5 261
3 566 564 565
3 565 129 566
3 564 147 565
3 566 87 564
3 559 469 565
3 565 147 559
3 469 129 565
3 559 37 469
3 321 558 564
3 564 87 321
3 558 147 564
3 321 25 558
3 470 322 566
3 566 129 470
3 322 87 566
3 470 3 322
3 569 567 568
3 568 71 569
3 567 149 568
3 569 128 567
3 555 266 568
3 568 149 555
3 266 71 568
3 555 21 266
3 461 560 567
3 567 128 461
3 560 149 567
3 461 37 560
3 267 464 569
3 569 71 267
3 464 128 569
3 267 10 464
3 572 570 571
3 571 152 572
3 570 151 571
3 572 150 570
3 574 573 571
3 571 151 574
3 573 152 571
3 574 27 573
3 576 575 570
3 570 150 576
3 575 151 570
3 576 12 575
3 578 577 572
3 572 152 578
3 577 150 572
3 578 36 577
3 581 579 580
3 580 49 581
3 579 151 580
3 581 96 579
3 575 189 580
3 580 151 575
3 189 49 580
3 575 12 189
3 349 574 579
3 579 96 349
3 574 151 579
3 349 27 574
3 190 352 581
3 581 49 190
3 352 96 581
3 190 7 352
3 584 582 583
3 583 118 584
3 582 150 583
3 584 48 582
3 577 428 583
3 583 150 577
3 428 118 583
3 577 36 428
3 181 576 582
3 582 48 181
3 576 150 582
3 181 12 576
3 429 184 584
3 584 118 429
3 184 48 584
3 429 8 184
3 587 585 586
3 586 97 587
3 585 152 586
3 587 121 585
3 573 357 586
3 586 152 573
3 357 97 586
3 573 27 357
3 438 578 585
3 585 121 438
3 578 152 585
3 438 36 578
3 358 441 587
3 587 97 358
3 441 121 587
3 358 1 441
3 590 588 589
3 589 155 590
3 588 154 589
3 590 153 588
3 592 591 589
3 589 154 592
3 591 155 589
3 592 17 591
3 594 593 588
3 588 153 594
3 593 154 588
3 594 30 593
3 596 595 590
3 590 155 596
3 595 153 590
3 596 35 595
3 599 597 598
3 598 104 599
3 597 154 598
3 599 64 597
3 593 383 598
3 598 154 593
3 383 104 598
3 593 30 383
3 237 592 597
3 597 64 237
3 592 154 597
3 237 17 592
3 384 240 599
3 599 104 384
3 240 64 599
3 384 6 240
3 602 600 601
3 601 120 602
3 600 153 601
3 602 103 600
3 595 439 601
3 601 153 595
3 439 120 601
3 595 35 439
3 377 594 600
3 600 103 377
3 594 153 600
3 377 30 594
3 440 378 602
3 602 120 440
3 378 103 602
3 440 1 378
3 605 603 604
3 604 65 605
3 603 155 604
3 605 119 603
3 591 245 604
3 604 155 591
3 245 65 604
3 591 17 245
3 433 596 603
3 603 119 433
3 596 155 603
3 433 35 596
3 246 434 605
3 605 65 246
3 434 119 605
3 246 11 434
3 608 606 607
3 607 158 608
3 606 157 607
3 608 156 606
3 610 609 607
3 607 157 610
3 609 158 607
3 610 15 609
3 612 611 606
3 606 156 612
3 611 157 606
3 612 28 611
3 614 613 608
3 608 158 614
3 613 156 608
3 614 41 613
3 617 615 616
3 616 95 617
3 615 157 616
3 617 55 615
3 611 350 616
3 616 157 611
3 350 95 616
3 611 28 350
3 209 610 615
3 615 55 209
3 610 157 615
3 209 15 610
3 351 210 617
3 617 95 351
3 210 55 617
3 351 7 210
3 620 618 619
3 619 135 620
3 618 156 619
3 620 94 618
3 613 490 619
3 619 156 613
3 490 135 619
3 613 41 490
3 342 612 618
3 618 94 342
3 612 156 618
3 342 28 612
3 491 345 620
3 620 135 491
3 345 94 620
3 491 2 345
3 623 621 622
3 622 56 623
3 621 158 622
3 623 134 621
3 609 215 622
3 622 158 609
3 215 56 622
3 609 15 215
3 484 614 621
3 621 134 484
3 614 158 621
3 484 41 614
3 216 485 623
3 623 56 216
3 485 134 623
3 216 9 485
3 626 624 625
3 625 161 626
3 624 160 625
3 626 159 624
3 628 627 625
3 625 160 628
3 627 161 625
3 628 31 627
3 630 629 624
3 624 159 630
3 629 160 624
3 630 20 629
3 632 631 626
3 626 161 632
3 631 159 626
3 632 40 631
3 635 633 634
3 634 73 635
3 633 160 634
3 635 105 633
3 629 272 634
3 634 160 629
3 272 73 634
3 629 20 272
3 382 628 633
3 633 105 382
3 628 160 633
3 382 31 628
3 273 385 635
3 635 73 273
3 385 105 635
3 273 6 385
3 638 636 637
3 637 137 638
3 636 159 637
3 638 72 636
3 631 496 637
3 637 159 631
3 496 137 637
3 631 40 496
3 265 630 636
3 636 72 265
3 630 159 636
3 265 20 630
3 497 268 638
3 638 137 497
3 268 72 638
3 497 10 268
3 641 639 640
3 640 102 641
3 639 161 640
3 641 136 639
3 627 372 640
3 640 161 627
3 372 102 640
3 627 31 372
3 489 632 639
3 639 136 489
3 632 161 639
3 489 40 632
3 373 492 641
3 641 102 373
3 492 136 641
3 373 2 492
