# vtk DataFile Version 3.0
this file was written using fslvtkio
ASCII
DATASET POLYDATA
POINTS 642 float
131.844 144.189 104.259
133.69 148.853 100.687
133.62 150.3 102.326
132.226 145.769 105.531
134.108 144.768 105.758
130.535 147.182 102.842
131.034 150.513 100.499
134.669 147.458 103.723
133.807 145.497 102.947
134.403 148.177 105.174
132.079 148.995 103.141
131.366 147.008 101.256
134.659 146.268 103.307
134.291 144.491 104.403
134.915 146.116 104.856
135.226 148.279 104.775
134.714 146.437 105.949
130.964 148.78 100.438
130.324 149.008 101.457
130.44 147.049 101.649
131.266 150.286 101.919
131.12 148.287 102.946
133.012 144.57 106.704
133.027 143.82 105.293
131.658 144.285 105.399
131.352 146.34 104.13
131.01 145.453 103.467
134.498 148.217 102.17
134.321 148.843 103.252
133.58 149.692 101.465
132.334 149.692 100.395
132.408 151.186 101.206
131.481 145.468 102.613
132.822 144.635 103.717
132.567 146.103 102.052
132.444 147.972 100.697
133.948 147.135 101.884
132.203 147.52 104.32
133.182 148.686 104.218
133.232 146.864 105.487
132.816 149.999 102.625
134.381 149.823 103.984
134.627 145.26 103.926
134.787 145.181 104.738
134.988 146.041 104.091
134.67 145.367 105.481
134.323 144.539 105.175
134.122 144.824 103.641
134.444 145.589 103.06
134.83 146.879 103.501
134.846 146.887 104.25
135.124 147.123 104.975
135.027 146.259 105.674
135.271 147.425 105.538
134.404 145.384 106.183
134.987 147.816 104.261
134.889 148.299 105.139
134.639 147.308 105.503
130.41 148.91 100.713
130.398 148.052 101.505
130.46 147.934 100.856
130.468 147.193 102.246
130.283 147.997 102.197
130.477 149.966 100.865
130.93 149.712 100.355
131.132 147.809 100.769
130.756 146.928 101.31
131.095 149.242 102.389
130.746 148.717 102.165
130.782 149.714 101.711
130.777 147.765 102.814
131.469 148.756 103.083
131.64 149.66 102.563
131.116 150.527 101.211
133.044 143.855 106.156
132.293 143.844 105.504
132.471 144.207 106.123
131.679 143.85 104.951
132.407 143.745 104.85
133.634 144.14 105.597
133.624 144.609 106.269
132.408 145.139 106.224
132.035 145.014 105.496
131.479 145.267 104.806
131.277 144.72 104.534
131.08 145.742 104.004
131.379 144.66 103.926
131.795 146.058 104.903
130.929 146.709 103.496
130.733 146.346 103.161
134.377 148.511 102.626
134.025 149.36 102.241
134.144 148.99 101.755
133.605 150.171 101.896
134.047 149.653 102.736
134.483 148.091 103.556
134.648 147.741 102.974
134.27 148.703 101.328
133.722 149.423 100.969
133.022 149.83 100.808
132.976 150.297 101.281
132.318 150.292 100.702
133.036 150.893 101.634
133.082 149.415 100.474
131.634 150.107 100.399
131.722 150.864 100.78
132.118 144.951 103.146
132.691 145.302 102.83
132.05 145.769 102.373
133.242 145.846 102.51
133.342 145.105 103.348
132.332 144.231 104.049
131.612 144.637 103.436
131.389 146.265 101.894
131.936 146.587 101.587
132.533 146.99 101.296
133.191 146.761 101.916
133.174 147.525 101.273
133.93 146.309 102.423
131.841 147.503 100.881
133.062 148.462 100.718
133.895 147.994 101.176
132.713 148.094 104.256
133.206 147.857 104.867
132.75 147.179 104.924
133.911 147.458 105.352
133.727 148.519 104.777
132.725 148.749 103.531
132.189 148.234 103.702
132.265 146.633 104.916
132.58 146.217 105.632
133.618 149.716 103.339
133.762 149.239 104.099
133.106 149.314 103.485
134.382 149.046 104.668
134.02 149.894 103.186
133.174 150.215 102.46
132.437 149.576 102.875
133.717 144.15 104.863
133.627 144.3 104.074
133.037 143.803 104.533
131.058 145.257 103.013
130.816 146.113 102.093
130.714 146.219 102.559
134.144 146.538 105.786
133.862 145.387 106.522
133.034 145.64 106.269
131.651 146.979 104.292
131.24 147.268 103.542
131.505 147.882 103.675
134.529 146.684 102.533
134.7 147.217 102.739
134.492 147.709 101.882
132.379 148.912 100.321
131.677 149.405 100.231
131.723 148.537 100.343
134.706 149.687 103.598
134.946 148.747 103.959
134.88 149.152 104.483
132.024 150.368 102.178
131.803 150.93 101.504
132.475 150.922 101.911
134.727 145.254 104.331
134.91 145.623 104.416
134.82 145.696 104.008
134.973 146.075 104.514
134.823 145.71 104.8
134.57 144.852 104.565
134.516 144.854 104.186
134.656 145.742 103.622
134.835 146.097 103.675
134.706 145.303 105.103
134.655 144.787 104.987
134.5 144.931 105.321
134.329 144.505 104.789
134.863 145.729 105.236
134.392 145.081 105.63
134.245 144.614 105.548
134.435 144.941 103.783
134.556 145.389 103.494
134.296 145.174 103.357
134.628 145.892 103.182
134.233 144.612 104.066
133.951 145.153 103.265
134.13 145.493 103.012
134.963 146.45 103.808
134.978 146.476 104.217
134.812 146.878 103.873
134.926 146.542 104.549
134.825 146.546 103.409
134.803 147.202 103.537
134.735 147.248 103.958
135.146 146.741 105.355
135.156 146.85 105.635
135.265 147.344 105.285
135.02 146.957 105.722
134.916 146.404 105.844
135.044 146.171 105.379
135.025 146.593 104.981
135.161 147.72 104.863
135.28 147.945 105.13
134.705 145.87 105.91
134.853 145.778 105.666
134.524 145.505 105.82
134.599 145.835 106.192
134.238 145.066 105.974
135.031 146.982 104.623
135.072 147.51 104.59
134.892 147.352 104.279
135.232 148.059 104.485
134.696 147.592 103.996
135.114 147.909 105.373
134.931 147.379 105.628
134.77 147.81 105.516
134.696 146.953 105.609
135.137 148.335 105.007
134.579 148.259 105.187
134.491 147.714 105.413
130.424 148.472 101.104
130.444 148.023 101.154
130.465 148.439 100.763
130.452 147.522 101.239
130.439 147.628 101.565
130.367 148.491 101.482
130.313 148.981 101.088
130.597 148.884 100.472
130.633 148.392 100.533
130.383 147.588 101.889
130.314 148.033 101.845
130.367 147.616 102.186
130.264 148.533 101.838
130.441 147.106 101.963
130.473 147.187 102.575
130.435 147.594 102.532
130.382 149.465 100.737
130.606 149.358 100.455
130.609 149.878 100.471
130.966 149.23 100.397
130.361 149.484 101.161
130.78 150.207 100.684
130.943 150.201 100.384
130.773 147.88 100.739
130.614 147.413 101.066
130.907 147.375 100.995
130.536 146.936 101.431
131.06 148.302 100.527
131.225 147.329 100.989
131.043 146.962 101.283
130.936 148.945 102.235
130.742 149.23 101.915
130.936 149.469 102.03
130.542 149.392 101.558
130.443 148.959 101.843
130.945 148.508 102.534
131.122 148.745 102.662
131.117 149.772 102.156
130.966 150.043 101.839
130.422 148.436 102.201
130.697 148.244 102.447
130.485 147.974 102.529
130.967 147.999 102.839
130.608 147.472 102.867
131.249 149.019 102.784
131.292 149.503 102.524
131.55 149.198 102.851
131.435 149.938 102.242
131.228 148.546 103.037
131.803 148.92 103.111
131.86 149.355 102.865
130.877 150.194 101.436
130.585 149.904 101.278
130.8 150.267 101.053
131.187 150.435 101.564
131.09 150.549 100.849
132.668 143.788 105.861
132.319 143.904 105.857
132.697 143.981 106.246
131.966 144.135 105.779
131.937 143.883 105.574
132.664 143.891 105.447
133.002 143.854 105.704
133.034 144.169 106.485
132.689 144.317 106.494
131.988 143.804 105.28
132.341 143.867 105.186
132.062 143.871 104.933
132.707 143.82 105.071
131.609 143.982 105.248
131.822 144.067 104.588
132.118 143.915 104.575
133.322 143.958 105.886
133.35 144.138 106.306
133.577 144.39 105.954
133.372 144.501 106.582
133.339 143.916 105.497
133.898 144.478 105.716
133.843 144.777 105.98
132.431 144.611 106.234
132.18 144.541 105.892
132.298 144.942 105.908
131.832 144.627 105.458
132.651 144.786 106.534
132.324 145.445 105.868
132.185 145.381 105.57
131.34 144.93 104.717
131.225 145.228 104.286
131.334 145.496 104.436
131.029 145.548 103.732
131.214 145.038 104.001
131.439 144.43 104.95
131.53 144.756 105.125
131.464 145.76 104.468
131.271 146.013 104.114
131.328 144.63 104.196
131.415 144.25 104.725
131.541 144.285 104.405
131.156 144.997 103.737
131.641 144.405 104.118
131.673 145.141 105.194
131.669 145.666 104.85
131.934 145.547 105.184
131.57 146.153 104.515
132.068 145.863 105.188
130.984 146.22 103.784
130.904 146.005 103.56
130.776 146.459 103.446
130.829 145.895 103.295
131.192 146.5 103.769
130.682 146.953 103.2
130.656 146.795 102.992
134.217 148.954 102.441
134.062 149.192 102.036
134.224 148.76 102.232
133.835 149.312 101.628
133.805 149.507 101.906
134.169 149.108 102.746
134.339 148.722 102.958
134.419 148.379 102.438
134.353 148.624 101.953
133.844 149.762 102.09
134.017 149.489 102.507
133.839 149.918 102.318
134.235 149.267 102.999
133.621 149.973 101.734
133.632 150.282 102.114
133.848 150.07 102.491
134.434 148.319 103.118
134.53 148.15 102.788
134.556 147.938 103.209
134.605 148.026 102.674
134.399 148.505 103.429
134.546 147.704 103.68
134.707 147.565 103.343
134.195 148.807 101.522
133.907 149.146 101.367
133.997 149.067 101.175
133.641 149.466 101.222
134.336 148.406 101.707
133.979 148.738 100.997
133.726 149.19 100.777
133.007 150.033 101.054
132.667 150.345 100.971
132.697 150.125 100.717
132.361 150.667 100.941
132.681 150.748 101.197
133.309 150 101.399
133.305 149.714 101.145
132.694 149.892 100.509
132.351 149.969 100.558
133.021 150.751 101.454
133.331 150.332 101.565
133.351 150.609 101.738
132.733 151.004 101.434
133.331 150.587 102.013
133.392 149.643 100.933
133.087 149.743 100.562
133.475 149.554 100.594
132.73 149.598 100.453
133.421 149.164 100.521
132.002 150.164 100.572
132.033 150.587 100.762
131.616 150.565 100.514
132.069 151.014 100.971
132.009 149.811 100.468
131.281 150.426 100.368
131.326 150.759 100.562
132.413 145.187 103.005
132.371 145.485 102.575
132.093 145.418 102.77
132.296 145.832 102.182
132.611 145.639 102.44
132.769 144.933 103.261
132.481 144.708 103.441
131.812 145.241 102.927
131.781 145.661 102.549
132.96 145.513 102.645
133.031 145.157 103.064
133.281 145.405 102.898
133.103 144.852 103.53
132.903 145.906 102.303
133.557 145.659 102.704
133.596 145.303 103.14
132.226 144.594 103.617
131.854 144.758 103.309
131.989 144.443 103.747
131.518 144.988 103.011
132.573 144.364 103.875
132.071 144.16 104.176
131.739 144.423 103.891
131.732 146.055 102.138
131.977 146.112 101.975
131.668 146.381 101.773
132.258 146.317 101.767
131.425 145.902 102.279
131.332 146.629 101.532
131.63 146.824 101.389
132.873 146.85 101.567
133.197 147.119 101.612
132.845 147.253 101.225
133.552 147.352 101.59
133.566 147.018 101.919
132.861 146.396 101.944
132.557 146.59 101.635
132.491 147.464 100.968
132.801 147.708 100.948
133.591 146.562 102.165
133.207 146.199 102.179
133.567 146.075 102.427
133.941 146.795 102.185
133.884 145.806 102.678
132.226 146.758 101.411
132.192 147.211 101.042
131.919 147.008 101.22
132.136 147.753 100.769
131.592 147.257 101.071
133.102 147.991 100.96
133.506 147.767 101.232
133.471 148.194 100.909
133.942 147.537 101.502
132.745 148.208 100.709
133.409 148.691 100.619
133.846 148.411 100.895
133.028 147.902 104.571
133.023 147.46 104.927
132.788 147.617 104.609
132.99 146.999 105.22
133.231 147.395 105.202
133.2 148.271 104.538
132.96 148.412 104.224
132.505 147.757 104.302
132.479 147.367 104.623
133.509 147.75 105.119
133.414 148.194 104.77
133.785 148.082 105.087
133.369 148.62 104.482
133.556 147.18 105.45
134.124 147.769 105.279
134.096 148.38 105.003
132.694 148.467 103.909
132.461 148.148 103.929
132.446 148.478 103.609
132.182 147.884 104.015
132.989 148.745 103.866
132.432 148.832 103.267
132.128 148.628 103.387
132.429 146.905 104.949
132.697 146.72 105.282
132.403 146.425 105.309
132.948 146.456 105.551
132.265 147.094 104.602
132.234 146.2 105.247
132.363 145.939 105.62
133.734 149.524 103.699
133.399 149.287 103.857
133.296 149.56 103.436
133.184 149.001 103.912
133.44 148.993 104.16
134.051 149.565 104.039
134.01 149.816 103.669
133.212 149.769 102.98
133.029 149.574 103
133.712 148.907 104.438
134.083 149.167 104.376
134.105 148.766 104.745
134.363 149.37 104.322
134.42 148.602 104.938
133.881 149.874 103.26
133.39 149.969 102.912
133.613 150.066 102.807
132.99 150.147 102.51
134.255 149.922 103.58
133.813 150.116 102.752
133.36 150.386 102.379
132.86 149.34 103.08
132.94 149.035 103.475
132.67 149.105 103.17
132.602 149.788 102.702
132.256 149.307 103.016
133.704 144.227 104.503
133.336 144.108 104.28
133.394 143.94 104.711
132.942 144.169 104.144
133.188 144.496 103.92
133.973 144.403 104.293
134.046 144.258 104.651
133.408 143.827 105.128
133.071 143.709 104.93
133.434 144.715 103.72
133.924 144.467 103.884
133.702 144.917 103.511
134.032 144.306 105.031
133.679 144.074 105.234
133.969 144.328 105.39
132.721 143.711 104.705
132.667 143.95 104.293
132.386 143.831 104.448
130.966 145.728 102.537
130.751 146.203 102.318
130.837 145.692 102.792
130.548 146.634 102.099
130.607 146.593 101.868
131.148 145.78 102.382
131.188 145.264 102.761
131.003 145.369 103.253
130.774 145.792 103.021
130.76 146.487 101.71
131.095 146.149 101.999
131.05 146.548 101.609
131.288 144.875 103.219
131.169 144.931 103.458
131.433 144.605 103.679
130.695 146.268 102.866
130.545 146.665 102.437
130.616 146.752 102.695
134.011 145.97 106.146
133.472 145.495 106.474
133.64 146.063 106.052
133.003 145.092 106.621
133.388 144.961 106.657
134.307 145.903 106.345
134.42 146.531 105.869
133.696 146.688 105.697
133.147 146.26 105.87
133.737 144.959 106.542
134.228 145.368 106.487
133.988 145.057 106.226
134.435 146.95 105.609
134.044 147.022 105.6
134.309 147.318 105.474
132.838 145.978 105.884
132.673 145.427 106.304
132.511 145.74 105.964
131.406 147.149 103.985
131.34 147.599 103.636
131.55 147.468 104.05
131.259 148.091 103.313
131.158 147.776 103.241
131.33 146.796 103.823
131.486 146.67 104.23
131.915 147.245 104.348
131.882 147.667 104.03
131.09 147.502 103.14
131.111 147.006 103.499
130.889 147.241 103.177
131.761 146.529 104.568
131.968 146.801 104.593
131.996 146.362 104.907
131.816 148.057 103.728
131.506 148.321 103.336
131.782 148.514 103.412
134.684 146.92 102.641
134.612 147.501 102.31
134.534 147.231 102.204
134.463 147.949 102.029
134.666 147.733 102.454
134.701 146.703 103.021
134.69 146.383 102.919
134.314 146.977 102.196
134.278 147.424 101.816
134.727 147.554 102.877
134.729 147.023 103.162
134.676 147.268 103.258
134.495 146.134 102.797
134.228 146.533 102.467
134.192 145.952 102.733
134.232 147.883 101.473
134.419 148.208 101.606
134.156 148.373 101.226
132.037 149.181 100.276
131.693 148.991 100.289
132.067 148.761 100.354
131.336 148.708 100.348
131.31 149.1 100.339
132.021 149.561 100.324
132.338 149.308 100.355
132.422 148.459 100.494
132.079 148.278 100.483
131.317 149.473 100.357
131.67 149.708 100.341
131.278 149.94 100.295
132.692 149.198 100.419
132.722 148.721 100.559
133.101 148.96 100.513
131.763 148.029 100.584
131.38 148.216 100.488
131.489 147.717 100.763
134.875 149.283 103.798
135.128 149.159 104.222
134.885 149.486 104.067
135.132 148.776 104.61
135.228 148.604 104.325
134.658 148.879 103.625
134.551 149.245 103.421
134.61 149.909 103.803
134.678 149.474 104.302
134.991 148.286 104.122
134.669 148.437 103.785
134.72 148.001 103.916
134.34 149.547 103.166
134.391 149.836 103.369
134.092 149.781 102.93
134.645 149.127 104.598
134.983 148.716 104.827
134.647 148.632 104.887
131.898 150.668 101.869
132.129 151.036 101.751
132.231 150.642 102.084
132.427 151.217 101.52
132.083 151.241 101.346
131.544 150.568 101.668
131.668 150.312 102.019
132.384 150.285 102.431
132.567 150.502 102.291
131.766 150.953 101.112
131.433 150.75 101.316
131.402 150.791 100.976
131.79 150.076 102.351
132.176 150.011 102.568
131.995 149.735 102.697
132.831 150.686 102.144
132.765 151.086 101.717
133.047 150.739 102.035
POLYGONS 1280  5120
3 164 162 163
3 163 44 164
3 162 43 163
3 164 42 162
3 166 165 163
3 163 43 166
3 165 44 163
3 166 14 165
3 168 167 162
3 162 42 168
3 167 43 162
3 168 13 167
3 170 169 164
3 164 44 170
3 169 42 164
3 170 12 169
3 173 171 172
3 172 46 173
3 171 43 172
3 173 45 171
3 167 174 172
3 172 43 167
3 174 46 172
3 167 13 174
3 175 166 171
3 171 45 175
3 166 43 171
3 175 14 166
3 177 176 173
3 173 46 177
3 176 45 173
3 177 4 176
3 180 178 179
3 179 48 180
3 178 42 179
3 180 47 178
3 169 181 179
3 179 42 169
3 181 48 179
3 169 12 181
3 182 168 178
3 178 47 182
3 168 42 178
3 182 13 168
3 184 183 180
3 180 48 184
3 183 47 180
3 184 8 183
3 187 185 186
3 186 50 187
3 185 44 186
3 187 49 185
3 165 188 186
3 186 44 165
3 188 50 186
3 165 14 188
3 189 170 185
3 185 49 189
3 170 44 185
3 189 12 170
3 191 190 187
3 187 50 191
3 190 49 187
3 191 7 190
3 194 192 193
3 193 53 194
3 192 52 193
3 194 51 192
3 196 195 193
3 193 52 196
3 195 53 193
3 196 16 195
3 198 197 192
3 192 51 198
3 197 52 192
3 198 14 197
3 200 199 194
3 194 53 200
3 199 51 194
3 200 15 199
3 203 201 202
3 202 45 203
3 201 52 202
3 203 54 201
3 197 175 202
3 202 52 197
3 175 45 202
3 197 14 175
3 204 196 201
3 201 54 204
3 196 52 201
3 204 16 196
3 176 205 203
3 203 45 176
3 205 54 203
3 176 4 205
3 208 206 207
3 207 55 208
3 206 51 207
3 208 50 206
3 199 209 207
3 207 51 199
3 209 55 207
3 199 15 209
3 188 198 206
3 206 50 188
3 198 51 206
3 188 14 198
3 210 191 208
3 208 55 210
3 191 50 208
3 210 7 191
3 213 211 212
3 212 57 213
3 211 53 212
3 213 56 211
3 195 214 212
3 212 53 195
3 214 57 212
3 195 16 214
3 215 200 211
3 211 56 215
3 200 53 211
3 215 15 200
3 217 216 213
3 213 57 217
3 216 56 213
3 217 9 216
3 220 218 219
3 219 60 220
3 218 59 219
3 220 58 218
3 222 221 219
3 219 59 222
3 221 60 219
3 222 19 221
3 224 223 218
3 218 58 224
3 223 59 218
3 224 18 223
3 226 225 220
3 220 60 226
3 225 58 220
3 226 17 225
3 229 227 228
3 228 62 229
3 227 59 228
3 229 61 227
3 223 230 228
3 228 59 223
3 230 62 228
3 223 18 230
3 231 222 227
3 227 61 231
3 222 59 227
3 231 19 222
3 233 232 229
3 229 62 233
3 232 61 229
3 233 5 232
3 236 234 235
3 235 64 236
3 234 58 235
3 236 63 234
3 225 237 235
3 235 58 225
3 237 64 235
3 225 17 237
3 238 224 234
3 234 63 238
3 224 58 234
3 238 18 224
3 240 239 236
3 236 64 240
3 239 63 236
3 240 6 239
3 243 241 242
3 242 66 243
3 241 60 242
3 243 65 241
3 221 244 242
3 242 60 221
3 244 66 242
3 221 19 244
3 245 226 241
3 241 65 245
3 226 60 241
3 245 17 226
3 247 246 243
3 243 66 247
3 246 65 243
3 247 11 246
3 250 248 249
3 249 69 250
3 248 68 249
3 250 67 248
3 252 251 249
3 249 68 252
3 251 69 249
3 252 18 251
3 254 253 248
3 248 67 254
3 253 68 248
3 254 21 253
3 256 255 250
3 250 69 256
3 255 67 250
3 256 20 255
3 259 257 258
3 258 70 259
3 257 68 258
3 259 62 257
3 253 260 258
3 258 68 253
3 260 70 258
3 253 21 260
3 230 252 257
3 257 62 230
3 252 68 257
3 230 18 252
3 261 233 259
3 259 70 261
3 233 62 259
3 261 5 233
3 264 262 263
3 263 72 264
3 262 67 263
3 264 71 262
3 255 265 263
3 263 67 255
3 265 72 263
3 255 20 265
3 266 254 262
3 262 71 266
3 254 67 262
3 266 21 254
3 268 267 264
3 264 72 268
3 267 71 264
3 268 10 267
3 271 269 270
3 270 63 271
3 269 69 270
3 271 73 269
3 251 238 270
3 270 69 251
3 238 63 270
3 251 18 238
3 272 256 269
3 269 73 272
3 256 69 269
3 272 20 256
3 239 273 271
3 271 63 239
3 273 73 271
3 239 6 273
3 276 274 275
3 275 76 276
3 274 75 275
3 276 74 274
3 278 277 275
3 275 75 278
3 277 76 275
3 278 24 277
3 280 279 274
3 274 74 280
3 279 75 274
3 280 23 279
3 282 281 276
3 276 76 282
3 281 74 276
3 282 22 281
3 285 283 284
3 284 78 285
3 283 75 284
3 285 77 283
3 279 286 284
3 284 75 279
3 286 78 284
3 279 23 286
3 287 278 283
3 283 77 287
3 278 75 283
3 287 24 278
3 289 288 285
3 285 78 289
3 288 77 285
3 289 0 288
3 292 290 291
3 291 80 292
3 290 74 291
3 292 79 290
3 281 293 291
3 291 74 281
3 293 80 291
3 281 22 293
3 294 280 290
3 290 79 294
3 280 74 290
3 294 23 280
3 296 295 292
3 292 80 296
3 295 79 292
3 296 4 295
3 299 297 298
3 298 82 299
3 297 76 298
3 299 81 297
3 277 300 298
3 298 76 277
3 300 82 298
3 277 24 300
3 301 282 297
3 297 81 301
3 282 76 297
3 301 22 282
3 303 302 299
3 299 82 303
3 302 81 299
3 303 3 302
3 306 304 305
3 305 85 306
3 304 84 305
3 306 83 304
3 308 307 305
3 305 84 308
3 307 85 305
3 308 26 307
3 310 309 304
3 304 83 310
3 309 84 304
3 310 24 309
3 312 311 306
3 306 85 312
3 311 83 306
3 312 25 311
3 315 313 314
3 314 77 315
3 313 84 314
3 315 86 313
3 309 287 314
3 314 84 309
3 287 77 314
3 309 24 287
3 316 308 313
3 313 86 316
3 308 84 313
3 316 26 308
3 288 317 315
3 315 77 288
3 317 86 315
3 288 0 317
3 320 318 319
3 319 87 320
3 318 83 319
3 320 82 318
3 311 321 319
3 319 83 311
3 321 87 319
3 311 25 321
3 300 310 318
3 318 82 300
3 310 83 318
3 300 24 310
3 322 303 320
3 320 87 322
3 303 82 320
3 322 3 303
3 325 323 324
3 324 89 325
3 323 85 324
3 325 88 323
3 307 326 324
3 324 85 307
3 326 89 324
3 307 26 326
3 327 312 323
3 323 88 327
3 312 85 323
3 327 25 312
3 329 328 325
3 325 89 329
3 328 88 325
3 329 5 328
3 332 330 331
3 331 92 332
3 330 91 331
3 332 90 330
3 334 333 331
3 331 91 334
3 333 92 331
3 334 29 333
3 336 335 330
3 330 90 336
3 335 91 330
3 336 28 335
3 338 337 332
3 332 92 338
3 337 90 332
3 338 27 337
3 341 339 340
3 340 94 341
3 339 91 340
3 341 93 339
3 335 342 340
3 340 91 335
3 342 94 340
3 335 28 342
3 343 334 339
3 339 93 343
3 334 91 339
3 343 29 334
3 345 344 341
3 341 94 345
3 344 93 341
3 345 2 344
3 348 346 347
3 347 96 348
3 346 90 347
3 348 95 346
3 337 349 347
3 347 90 337
3 349 96 347
3 337 27 349
3 350 336 346
3 346 95 350
3 336 90 346
3 350 28 336
3 352 351 348
3 348 96 352
3 351 95 348
3 352 7 351
3 355 353 354
3 354 98 355
3 353 92 354
3 355 97 353
3 333 356 354
3 354 92 333
3 356 98 354
3 333 29 356
3 357 338 353
3 353 97 357
3 338 92 353
3 357 27 338
3 359 358 355
3 355 98 359
3 358 97 355
3 359 1 358
3 362 360 361
3 361 101 362
3 360 100 361
3 362 99 360
3 364 363 361
3 361 100 364
3 363 101 361
3 364 31 363
3 366 365 360
3 360 99 366
3 365 100 360
3 366 29 365
3 368 367 362
3 362 101 368
3 367 99 362
3 368 30 367
3 371 369 370
3 370 93 371
3 369 100 370
3 371 102 369
3 365 343 370
3 370 100 365
3 343 93 370
3 365 29 343
3 372 364 369
3 369 102 372
3 364 100 369
3 372 31 364
3 344 373 371
3 371 93 344
3 373 102 371
3 344 2 373
3 376 374 375
3 375 103 376
3 374 99 375
3 376 98 374
3 367 377 375
3 375 99 367
3 377 103 375
3 367 30 377
3 356 366 374
3 374 98 356
3 366 99 374
3 356 29 366
3 378 359 376
3 376 103 378
3 359 98 376
3 378 1 359
3 381 379 380
3 380 105 381
3 379 101 380
3 381 104 379
3 363 382 380
3 380 101 363
3 382 105 380
3 363 31 382
3 383 368 379
3 379 104 383
3 368 101 379
3 383 30 368
3 385 384 381
3 381 105 385
3 384 104 381
3 385 6 384
3 388 386 387
3 387 108 388
3 386 107 387
3 388 106 386
3 390 389 387
3 387 107 390
3 389 108 387
3 390 34 389
3 392 391 386
3 386 106 392
3 391 107 386
3 392 33 391
3 394 393 388
3 388 108 394
3 393 106 388
3 394 32 393
3 397 395 396
3 396 110 397
3 395 107 396
3 397 109 395
3 391 398 396
3 396 107 391
3 398 110 396
3 391 33 398
3 399 390 395
3 395 109 399
3 390 107 395
3 399 34 390
3 401 400 397
3 397 110 401
3 400 109 397
3 401 8 400
3 404 402 403
3 403 112 404
3 402 106 403
3 404 111 402
3 393 405 403
3 403 106 393
3 405 112 403
3 393 32 405
3 406 392 402
3 402 111 406
3 392 106 402
3 406 33 392
3 408 407 404
3 404 112 408
3 407 111 404
3 408 0 407
3 411 409 410
3 410 114 411
3 409 108 410
3 411 113 409
3 389 412 410
3 410 108 389
3 412 114 410
3 389 34 412
3 413 394 409
3 409 113 413
3 394 108 409
3 413 32 394
3 415 414 411
3 411 114 415
3 414 113 411
3 415 11 414
3 418 416 417
3 417 117 418
3 416 116 417
3 418 115 416
3 420 419 417
3 417 116 420
3 419 117 417
3 420 36 419
3 422 421 416
3 416 115 422
3 421 116 416
3 422 34 421
3 424 423 418
3 418 117 424
3 423 115 418
3 424 35 423
3 427 425 426
3 426 109 427
3 425 116 426
3 427 118 425
3 421 399 426
3 426 116 421
3 399 109 426
3 421 34 399
3 428 420 425
3 425 118 428
3 420 116 425
3 428 36 420
3 400 429 427
3 427 109 400
3 429 118 427
3 400 8 429
3 432 430 431
3 431 119 432
3 430 115 431
3 432 114 430
3 423 433 431
3 431 115 423
3 433 119 431
3 423 35 433
3 412 422 430
3 430 114 412
3 422 115 430
3 412 34 422
3 434 415 432
3 432 119 434
3 415 114 432
3 434 11 415
3 437 435 436
3 436 121 437
3 435 117 436
3 437 120 435
3 419 438 436
3 436 117 419
3 438 121 436
3 419 36 438
3 439 424 435
3 435 120 439
3 424 117 435
3 439 35 424
3 441 440 437
3 437 121 441
3 440 120 437
3 441 1 440
3 444 442 443
3 443 124 444
3 442 123 443
3 444 122 442
3 446 445 443
3 443 123 446
3 445 124 443
3 446 39 445
3 448 447 442
3 442 122 448
3 447 123 442
3 448 38 447
3 450 449 444
3 444 124 450
3 449 122 444
3 450 37 449
3 453 451 452
3 452 126 453
3 451 123 452
3 453 125 451
3 447 454 452
3 452 123 447
3 454 126 452
3 447 38 454
3 455 446 451
3 451 125 455
3 446 123 451
3 455 39 446
3 457 456 453
3 453 126 457
3 456 125 453
3 457 9 456
3 460 458 459
3 459 128 460
3 458 122 459
3 460 127 458
3 449 461 459
3 459 122 449
3 461 128 459
3 449 37 461
3 462 448 458
3 458 127 462
3 448 122 458
3 462 38 448
3 464 463 460
3 460 128 464
3 463 127 460
3 464 10 463
3 467 465 466
3 466 130 467
3 465 124 466
3 467 129 465
3 445 468 466
3 466 124 445
3 468 130 466
3 445 39 468
3 469 450 465
3 465 129 469
3 450 124 465
3 469 37 450
3 471 470 467
3 467 130 471
3 470 129 467
3 471 3 470
3 474 472 473
3 473 133 474
3 472 132 473
3 474 131 472
3 476 475 473
3 473 132 476
3 475 133 473
3 476 38 475
3 478 477 472
3 472 131 478
3 477 132 472
3 478 41 477
3 480 479 474
3 474 133 480
3 479 131 474
3 480 40 479
3 483 481 482
3 482 134 483
3 481 132 482
3 483 126 481
3 477 484 482
3 482 132 477
3 484 134 482
3 477 41 484
3 454 476 481
3 481 126 454
3 476 132 481
3 454 38 476
3 485 457 483
3 483 134 485
3 457 126 483
3 485 9 457
3 488 486 487
3 487 136 488
3 486 131 487
3 488 135 486
3 479 489 487
3 487 131 479
3 489 136 487
3 479 40 489
3 490 478 486
3 486 135 490
3 478 131 486
3 490 41 478
3 492 491 488
3 488 136 492
3 491 135 488
3 492 2 491
3 495 493 494
3 494 127 495
3 493 133 494
3 495 137 493
3 475 462 494
3 494 133 475
3 462 127 494
3 475 38 462
3 496 480 493
3 493 137 496
3 480 133 493
3 496 40 480
3 463 497 495
3 495 127 463
3 497 137 495
3 463 10 497
3 500 498 499
3 499 140 500
3 498 139 499
3 500 138 498
3 502 501 499
3 499 139 502
3 501 140 499
3 502 33 501
3 504 503 498
3 498 138 504
3 503 139 498
3 504 13 503
3 506 505 500
3 500 140 506
3 505 138 500
3 506 23 505
3 509 507 508
3 508 47 509
3 507 139 508
3 509 110 507
3 503 182 508
3 508 139 503
3 182 47 508
3 503 13 182
3 398 502 507
3 507 110 398
3 502 139 507
3 398 33 502
3 183 401 509
3 509 47 183
3 401 110 509
3 183 8 401
3 512 510 511
3 511 79 512
3 510 138 511
3 512 46 510
3 505 294 511
3 511 138 505
3 294 79 511
3 505 23 294
3 174 504 510
3 510 46 174
3 504 138 510
3 174 13 504
3 295 177 512
3 512 79 295
3 177 46 512
3 295 4 177
3 515 513 514
3 514 111 515
3 513 140 514
3 515 78 513
3 501 406 514
3 514 140 501
3 406 111 514
3 501 33 406
3 286 506 513
3 513 78 286
3 506 140 513
3 286 23 506
3 407 289 515
3 515 111 407
3 289 78 515
3 407 0 289
3 518 516 517
3 517 143 518
3 516 142 517
3 518 141 516
3 520 519 517
3 517 142 520
3 519 143 517
3 520 19 519
3 522 521 516
3 516 141 522
3 521 142 516
3 522 32 521
3 524 523 518
3 518 143 524
3 523 141 518
3 524 26 523
3 527 525 526
3 526 113 527
3 525 142 526
3 527 66 525
3 521 413 526
3 526 142 521
3 413 113 526
3 521 32 413
3 244 520 525
3 525 66 244
3 520 142 525
3 244 19 520
3 414 247 527
3 527 113 414
3 247 66 527
3 414 11 247
3 530 528 529
3 529 86 530
3 528 141 529
3 530 112 528
3 523 316 529
3 529 141 523
3 316 86 529
3 523 26 316
3 405 522 528
3 528 112 405
3 522 141 528
3 405 32 522
3 317 408 530
3 530 86 317
3 408 112 530
3 317 0 408
3 533 531 532
3 532 61 533
3 531 143 532
3 533 89 531
3 519 231 532
3 532 143 519
3 231 61 532
3 519 19 231
3 326 524 531
3 531 89 326
3 524 143 531
3 326 26 524
3 232 329 533
3 533 61 232
3 329 89 533
3 232 5 329
3 536 534 535
3 535 146 536
3 534 145 535
3 536 144 534
3 538 537 535
3 535 145 538
3 537 146 535
3 538 22 537
3 540 539 534
3 534 144 540
3 539 145 534
3 540 16 539
3 542 541 536
3 536 146 542
3 541 144 536
3 542 39 541
3 545 543 544
3 544 54 545
3 543 145 544
3 545 80 543
3 539 204 544
3 544 145 539
3 204 54 544
3 539 16 204
3 293 538 543
3 543 80 293
3 538 145 543
3 293 22 538
3 205 296 545
3 545 54 205
3 296 80 545
3 205 4 296
3 548 546 547
3 547 125 548
3 546 144 547
3 548 57 546
3 541 455 547
3 547 144 541
3 455 125 547
3 541 39 455
3 214 540 546
3 546 57 214
3 540 144 546
3 214 16 540
3 456 217 548
3 548 125 456
3 217 57 548
3 456 9 217
3 551 549 550
3 550 81 551
3 549 146 550
3 551 130 549
3 537 301 550
3 550 146 537
3 301 81 550
3 537 22 301
3 468 542 549
3 549 130 468
3 542 146 549
3 468 39 542
3 302 471 551
3 551 81 302
3 471 130 551
3 302 3 471
3 554 552 553
3 553 149 554
3 552 148 553
3 554 147 552
3 556 555 553
3 553 148 556
3 555 149 553
3 556 21 555
3 558 557 552
3 552 147 558
3 557 148 552
3 558 25 557
3 560 559 554
3 554 149 560
3 559 147 554
3 560 37 559
3 563 561 562
3 562 88 563
3 561 148 562
3 563 70 561
3 557 327 562
3 562 148 557
3 327 88 562
3 557 25 327
3 260 556 561
3 561 70 260
3 556 148 561
3 260 21 556
3 328 261 563
3 563 88 328
3 261 70 563
3 328 5 261
3 566 564 565
3 565 129 566
3 564 147 565
3 566 87 564
3 559 469 565
3 565 147 559
3 469 129 565
3 559 37 469
3 321 558 564
3 564 87 321
3 558 147 564
3 321 25 558
3 470 322 566
3 566 129 470
3 322 87 566
3 470 3 322
3 569 567 568
3 568 71 569
3 567 149 568
3 569 128 567
3 555 266 568
3 568 149 555
3 266 71 568
3 555 21 266
3 461 560 567
3 567 128 461
3 560 149 567
3 461 37 560
3 267 464 569
3 569 71 267
3 464 128 569
3 267 10 464
3 572 570 571
3 571 152 572
3 570 151 571
3 572 150 570
3 574 573 571
3 571 151 574
3 573 152 571
3 574 27 573
3 576 575 570
3 570 150 576
3 575 151 570
3 576 12 575
3 578 577 572
3 572 152 578
3 577 150 572
3 578 36 577
3 581 579 580
3 580 49 581
3 579 151 580
3 581 96 579
3 575 189 580
3 580 151 575
3 189 49 580
3 575 12 189
3 349 574 579
3 579 96 349
3 574 151 579
3 349 27 574
3 190 352 581
3 581 49 190
3 352 96 581
3 190 7 352
3 584 582 583
3 583 118 584
3 582 150 583
3 584 48 582
3 577 428 583
3 583 150 577
3 428 118 583
3 577 36 428
3 181 576 582
3 582 48 181
3 576 150 582
3 181 12 576
3 429 184 584
3 584 118 429
3 184 48 584
3 429 8 184
3 587 585 586
3 586 97 587
3 585 152 586
3 587 121 585
3 573 357 586
3 586 152 573
3 357 97 586
3 573 27 357
3 438 578 585
3 585 121 438
3 578 152 585
3 438 36 578
3 358 441 587
3 587 97 358
3 441 121 587
3 358 1 441
3 590 588 589
3 589 155 590
3 588 154 589
3 590 153 588
3 592 591 589
3 589 154 592
3 591 155 589
3 592 17 591
3 594 593 588
3 588 153 594
3 593 154 588
3 594 30 593
3 596 595 590
3 590 155 596
3 595 153 590
3 596 35 595
3 599 597 598
3 598 104 599
3 597 154 598
3 599 64 597
3 593 383 598
3 598 154 593
3 383 104 598
3 593 30 383
3 237 592 597
3 597 64 237
3 592 154 597
3 237 17 592
3 384 240 599
3 599 104 384
3 240 64 599
3 384 6 240
3 602 600 601
3 601 120 602
3 600 153 601
3 602 103 600
3 595 439 601
3 601 153 595
3 439 120 601
3 595 35 439
3 377 594 600
3 600 103 377
3 594 153 600
3 377 30 594
3 440 378 602
3 602 120 440
3 378 103 602
3 440 1 378
3 605 603 604
3 604 65 605
3 603 155 604
3 605 119 603
3 591 245 604
3 604 155 591
3 245 65 604
3 591 17 245
3 433 596 603
3 603 119 433
3 596 155 603
3 433 35 596
3 246 434 605
3 605 65 246
3 434 119 605
3 246 11 434
3 608 606 607
3 607 158 608
3 606 157 607
3 608 156 606
3 610 609 607
3 607 157 610
3 609 158 607
3 610 15 609
3 612 611 606
3 606 156 612
3 611 157 606
3 612 28 611
3 614 613 608
3 608 158 614
3 613 156 608
3 614 41 613
3 617 615 616
3 616 95 617
3 615 157 616
3 617 55 615
3 611 350 616
3 616 157 611
3 350 95 616
3 611 28 350
3 209 610 615
3 615 55 209
3 610 157 615
3 209 15 610
3 351 210 617
3 617 95 351
3 210 55 617
3 351 7 210
3 620 618 619
3 619 135 620
3 618 156 619
3 620 94 618
3 613 490 619
3 619 156 613
3 490 135 619
3 613 41 490
3 342 612 618
3 618 94 342
3 612 156 618
3 342 28 612
3 491 345 620
3 620 135 491
3 345 94 620
3 491 2 345
3 623 621 622
3 622 56 623
3 621 158 622
3 623 134 621
3 609 215 622
3 622 158 609
3 215 56 622
3 609 15 215
3 484 614 621
3 621 134 484
3 614 158 621
3 484 41 614
3 216 485 623
3 623 56 216
3 485 134 623
3 216 9 485
3 626 624 625
3 625 161 626
3 624 160 625
3 626 159 624
3 628 627 625
3 625 160 628
3 627 161 625
3 628 31 627
3 630 629 624
3 624 159 630
3 629 160 624
3 630 20 629
3 632 631 626
3 626 161 632
3 631 159 626
3 632 40 631
3 635 633 634
3 634 73 635
3 633 160 634
3 635 105 633
3 629 272 634
3 634 160 629
3 272 73 634
3 629 20 272
3 382 628 633
3 633 105 382
3 628 160 633
3 382 31 628
3 273 385 635
3 635 73 273
3 385 105 635
3 273 6 385
3 638 636 637
3 637 137 638
3 636 159 637
3 638 72 636
3 631 496 637
3 637 159 631
3 496 137 637
3 631 40 496
3 265 630 636
3 636 72 265
3 630 159 636
3 265 20 630
3 497 268 638
3 638 137 497
3 268 72 638
3 497 10 268
3 641 639 640
3 640 102 641
3 639 161 640
3 641 136 639
3 627 372 640
3 640 161 627
3 372 102 640
3 627 31 372
3 489 632 639
3 639 136 489
3 632 161 639
3 489 40 632
3 373 492 641
3 641 102 373
3 492 136 641
3 373 2 492
