# vtk DataFile Version 3.0
this file was written using fslvtkio
ASCII
DATASET POLYDATA
POINTS 642 float
153.97 120.21 120.227
153.4 129.476 119.9
153.119 127.807 126.938
152.956 118.514 127.622
156.851 119.449 122.537
151.664 123.023 125.087
151.064 128.188 124.129
156.75 125.782 122.432
155.974 123.333 116.462
154.451 123.126 128.472
150.317 124.259 131.742
151.017 125.785 117.672
157.413 124.597 118.622
156.525 121.701 119.18
157.724 122.169 122.204
155.998 124.327 125.722
156.198 120.611 125.781
150.189 128.346 120.572
151.185 125.181 125.334
152.207 124.9 121.157
150.049 126.443 129.099
149.992 122.289 128.881
155.243 117.892 125.415
155.632 119.448 120.793
153.602 119.87 124.696
151.574 120.34 127.318
152.414 121.709 122.633
155.518 128.107 120.868
154.892 127.326 125.014
153.244 129.51 123.673
151.167 130.218 122.056
151.444 129.173 126.836
152.903 122.771 118.503
155.21 121.516 117.278
153.603 124.979 115.823
151.421 128.654 117.848
154.939 126.826 117.551
150.504 118.891 131.25
152.536 123.292 131.498
153.491 121.034 128.339
151.772 126.229 130.16
153.875 126.088 128.76
157.198 122.779 118.858
157.67 121.334 120.39
157.739 123.239 120.486
157.753 120.288 122.264
156.916 120.4 120.593
156.642 122.12 117.506
156.571 124.075 117.615
157.156 125.311 120.408
157.486 123.954 122.307
157.082 123.279 123.93
157.169 121.294 123.948
156.316 122.445 125.768
156.545 120.017 124.32
156.56 125.257 124.181
155.292 123.699 127.169
155.156 122.005 126.923
151.122 126.835 122.532
151.504 125.22 123.211
151.046 126.554 120.961
152.021 123.88 123.021
151.467 124.055 125.059
151.113 126.567 124.474
150.48 128.379 122.573
150.284 126.996 119.098
151.541 125.366 119.414
149.409 124.781 129.511
149.93 124.101 127.82
150.39 125.917 127.191
149.995 122.647 127.226
149.902 123.349 130.418
150.146 125.394 130.511
151.065 126.82 126.303
155.336 119.653 123.516
154.523 120.291 122.942
154.412 118.592 124.797
153.954 120.406 122.362
154.945 120.154 120.529
156.212 119.636 121.697
156.067 118.869 123.992
154.124 118.534 126.647
153.243 118.174 125.806
152.425 119.371 125.658
153.358 121.475 123.704
152.296 120.809 125.019
153.161 120.922 121.306
152.035 119.275 127.755
151.112 120.976 125.879
152.166 122.465 123.846
155.377 128.267 123.056
154.301 128.895 124.455
154.456 129.181 122.241
153.178 129.212 125.515
153.97 127.76 126.017
155.822 126.697 123.744
156.265 126.72 121.422
154.623 128.835 120.234
153.383 129.707 121.806
152.213 129.951 122.854
152.283 129.34 125.181
151.54 129.679 124.189
152.213 129.294 127.271
152.328 129.906 121.103
150.647 129.778 123.304
151.433 128.442 125.306
153.955 121.544 117.395
154.523 122.586 115.756
152.922 123.433 116.48
154.778 124.323 116.065
155.744 122.079 116.504
154.571 120.448 118.646
153.464 121.624 119.424
152.106 123.968 118.224
152.013 125.811 116.615
152.34 127.015 116.674
154.058 126.086 116.724
153.25 127.616 117.615
155.33 125.106 117.238
150.048 128.307 117.883
152.772 128.909 118.685
154.423 128.147 118.46
151.504 120.645 132.321
153.592 121.395 130.712
152.411 119.982 130.24
153.911 121.945 128.326
153.868 123.116 130.316
151.23 124.027 132.112
149.945 121.714 131.738
151.826 118.994 129.42
153.46 119.453 128.064
153.096 126.032 129.716
153.438 124.741 130.405
152.152 125.117 131.508
154.326 124.702 128.772
153.58 126.812 128.091
152.544 126.631 128.589
151.06 125.389 130.921
156.433 119.799 119.652
156.035 121.111 118.003
155.54 119.784 118.631
152.754 122.062 120.411
152.576 124.068 119.967
152.459 123.125 121.757
154.728 120.852 126.896
155.851 119.224 125.673
154.635 119.515 126.753
150.728 119.218 129.579
150.646 121.27 127.531
149.441 121.165 130.515
156.227 125.668 118.029
156.456 126.379 119.389
155.399 127.613 118.948
151.803 129.534 119.703
150.305 130.019 121.719
150.427 128.962 119.186
154.446 126.65 126.878
155.721 125.979 125.461
154.988 125.263 127.275
151.112 126.563 129.349
150.924 127.773 127.64
151.799 127.789 127.98
157.521 121.996 119.615
157.723 122.254 120.354
157.672 122.881 119.549
157.788 122.655 121.243
157.839 121.78 121.154
157.233 121.544 119.758
157.199 121.875 118.983
157.333 123.625 118.945
157.705 123.703 119.497
157.7 120.999 121.213
157.24 120.913 120.495
157.304 120.641 121.374
156.781 121.141 119.877
157.621 121.264 122.118
157.379 119.903 122.316
156.987 120.232 121.637
157.043 122.289 118.178
156.893 123.493 118.32
156.725 122.92 117.699
157.038 124.285 118.204
156.803 121.69 118.302
156.404 122.701 117.051
156.162 123.661 117.334
157.633 124.217 120.233
157.781 123.599 121.262
157.496 124.487 121.171
157.756 123.029 122.14
157.37 124.589 119.483
157.09 125.29 121.476
157.239 124.734 122.198
157.208 122.296 123.943
156.866 121.958 124.881
156.606 122.877 124.855
156.418 121.447 125.604
156.798 121.057 124.887
157.568 121.631 123.068
157.503 122.731 123.095
156.556 123.706 124.799
156.253 123.307 125.556
156.989 120.46 124.138
157.616 120.7 123.059
157.355 119.996 123.212
156.573 120.262 125.113
156.921 119.487 123.335
157.198 123.627 123.135
156.81 124.2 124.132
157.041 124.689 123.221
156.31 124.558 124.839
156.695 125.505 123.22
155.727 123.206 126.352
155.643 122.206 126.248
155.211 122.795 126.886
155.473 121.497 126.257
155.689 123.932 126.363
154.954 123.324 127.832
154.85 122.509 127.65
151.304 125.973 122.867
151.722 125.735 121.883
151.278 126.556 121.612
151.709 125.745 121.183
151.833 125.012 122.1
151.215 125.35 124.216
151.102 125.983 123.774
150.821 127.478 121.556
150.632 127.494 120.739
151.848 124.567 122.979
151.423 124.651 124.125
151.756 124.068 123.898
151.361 124.578 125.251
152.122 124.167 122.032
151.661 123.442 124.187
151.54 123.577 125.007
151.042 126.683 123.643
150.862 127.533 122.518
150.829 127.507 123.46
150.384 128.271 121.597
151.26 125.681 124.693
151.132 127.432 124.189
150.488 128.471 123.471
150.927 126.563 120.036
151.72 125.954 120.155
150.965 126.181 119.167
152.071 125.374 120.316
150.296 127.248 119.942
150.522 126.366 118.202
151.218 125.343 118.501
149.567 124.687 128.941
150.14 125.008 127.701
149.847 125.264 128.552
150.89 125.328 126.178
150.614 124.546 126.496
149.747 123.5 128.636
149.618 123.65 129.147
149.72 125.456 129.27
150.001 126.08 128.528
150.713 124.038 126.118
149.977 123.396 127.42
150.793 123.292 126.049
149.955 122.454 128.309
150.986 122.659 125.943
149.365 124.221 129.917
149.49 125.5 130.086
150.016 124.38 130.487
150.097 125.7 129.791
149.61 123.325 129.739
150.036 124.043 131.15
150.182 124.952 131.129
150.568 126.53 126.927
151.201 125.835 125.437
151.558 126.319 125.071
150.456 126.785 128.062
151.644 127.063 124.69
154.94 120.087 123.134
154.451 119.971 123.982
154.828 119.258 124.25
153.988 119.312 124.79
154.053 120.116 123.934
155.061 119.924 121.987
155.408 119.898 122.247
155.305 118.47 124.433
154.834 118.213 124.945
154.275 120.35 122.68
154.821 120.082 121.703
154.446 119.993 121.401
155.266 119.8 120.796
153.888 120.906 123.732
153.916 120.308 121.452
154.435 120.187 120.436
155.729 119.85 122.623
155.689 119.265 123.828
156.112 119.567 122.941
155.66 118.435 124.681
155.917 119.408 121.329
156.502 119.716 121.961
156.486 119.188 123.216
154.309 118.272 125.703
153.92 118.152 125.206
153.827 118.239 126.067
153.273 119.118 125.337
154.695 118.006 125.956
153.591 118.618 126.914
153.189 118.589 126.646
153.061 120.69 124.682
152.9 121.465 124.382
152.463 119.951 125.112
152.619 121.741 124.09
152.801 121.418 123.305
153.463 120.661 124.347
152.97 119.743 125.25
151.954 119.661 126.348
151.664 119.837 125.948
153.136 121.123 122.576
153.615 120.991 123.193
153.48 120.61 122.037
152.781 121.245 121.997
153.569 120.727 120.89
152.727 118.855 125.961
152.173 119.312 126.776
152.659 118.905 126.685
151.801 120.006 127.72
152.51 118.676 127.51
151.751 120.746 125.47
152.285 121.81 124.647
152.065 122.134 125.002
152.326 121.872 123.459
151.336 120.483 126.61
151.548 122.119 125.335
152.056 122.875 124.352
154.813 128.728 123.688
154.432 129.199 123.329
154.994 128.844 122.594
153.872 129.406 123.094
153.952 129.275 123.918
154.658 128.2 124.617
155.073 127.819 124.062
155.434 128.445 122.006
155.131 128.91 121.561
153.721 129.024 124.897
154.108 128.473 125.237
153.627 128.721 125.835
154.427 127.792 125.54
153.297 129.35 124.506
153.125 128.913 126.351
153.528 127.723 126.452
155.566 127.373 123.288
155.818 127.673 122.141
156.063 126.728 122.549
155.807 127.486 121.179
155.311 126.964 124.354
156.234 126.262 123.078
156.585 126.085 121.737
154.597 129.128 121.197
153.874 129.588 122.083
153.934 129.1 121.047
153.337 129.63 122.746
155.149 128.554 120.517
153.974 128.885 120.163
153.35 129.448 120.913
152.53 129.454 123.788
152.044 129.448 124.509
151.945 129.992 123.543
151.67 129.22 125.238
151.812 129.493 125.969
152.767 129.283 124.337
152.808 129.55 123.337
151.615 130.161 122.48
151.439 129.998 123.262
152.235 129.417 126.225
152.766 129.244 125.316
152.627 129.358 126.427
151.86 129.402 127.008
152.699 128.675 127.084
152.804 129.971 122.439
152.179 130.002 121.996
152.813 129.728 121.563
151.698 130.131 121.51
152.905 129.522 120.559
151.102 129.829 123.803
151.262 129.216 124.894
150.886 129.231 124.396
151.346 128.938 126.12
150.935 130.147 122.78
150.448 129.268 124.036
151.379 128.03 124.678
154.165 121.683 116.329
153.808 122.823 116.114
153.524 122.093 116.602
153.329 124.015 116.044
154.122 123.463 115.552
154.82 121.92 116.195
154.555 121.539 116.924
153.34 122.172 117.632
152.892 122.781 117.174
154.718 123.433 115.58
155.241 122.313 115.871
155.385 123.143 115.903
155.363 121.858 116.788
154.303 124.533 115.692
155.305 124.096 116.409
155.875 122.7 116.294
154.392 120.912 117.824
153.677 121.482 118.295
154.006 120.834 118.871
153.204 122.029 118.737
154.931 120.585 117.668
154.316 120.272 119.408
153.662 120.666 119.732
152.417 123.88 117.386
152.465 124.548 116.636
151.8 125.026 117.363
152.802 125.073 116.166
152.618 123.381 118.296
151.629 124.712 118.062
151.3 126.158 117.147
153.163 126.605 116.667
153.608 126.939 116.943
152.645 127.501 117.175
153.987 127.391 117.386
154.303 126.54 117.167
153.897 125.686 116.129
153.103 126.03 116.105
151.886 127.979 117.144
152.342 128.45 117.648
154.708 125.753 116.938
154.396 125.122 116.421
155.081 124.831 116.67
155.115 125.978 117.352
155.84 124.138 116.857
152.589 126.257 116.251
151.459 127.769 116.977
151.207 126.858 116.867
150.851 128.502 117.592
150.27 127.205 117.606
153.152 128.275 118.081
154.076 127.847 117.957
153.706 128.996 118.666
154.777 127.348 117.793
152.123 128.517 118.319
153.128 129.181 119.297
153.991 128.903 119.246
152.943 120.929 131.683
153.151 120.585 130.487
152.42 119.642 131.622
152.868 120.838 129.524
153.233 121.319 129.516
152.956 122.113 131.533
151.943 121.762 131.968
151.083 119.303 132.252
151.813 118.823 131.084
153.612 121.865 129.552
153.639 122.221 130.796
153.672 122.625 129.515
153.318 123.172 131.223
153.58 121.49 128.42
154.157 122.41 128.311
153.892 123.293 129.191
151.116 122.339 132.342
150.574 120.909 132.497
150.391 122.638 132.422
150.2 120.142 131.797
151.893 123.487 131.826
150.774 124.465 132.041
150.153 123.296 131.772
152.033 119.602 129.929
152.828 120.216 129.017
152.66 119.445 128.679
153.186 120.749 128.358
151.182 118.787 130.441
152.449 118.619 128.439
153.437 118.499 127.758
153.272 125.501 130.187
152.902 125.01 131.093
152.78 125.563 130.644
152.433 124.346 131.455
153.104 124.037 131.046
153.8 125.335 129.546
153.582 126.087 129.346
152.508 125.95 130.179
152.214 125.601 130.682
153.654 123.868 130.426
153.9 124.615 129.622
153.876 124.03 129.428
153.984 125.325 128.843
154.434 123.973 128.642
153.13 126.647 129.119
152.672 126.437 129.383
153 126.698 128.442
152.197 126.439 129.619
153.672 126.797 128.689
153.417 127.031 127.419
152.87 127.161 127.66
151.669 125.399 131.209
151.748 124.527 131.837
151.059 125.108 131.904
151.556 125.706 130.524
150.6 125.096 131.377
156.303 120.231 118.676
155.946 120.098 118.182
155.979 119.749 119.132
155.441 120.143 117.8
155.671 121.159 117.626
156.223 121.479 118.617
156.476 120.823 119.38
156.052 119.508 120.115
155.613 119.452 119.634
155.819 121.738 117.379
156.291 121.74 117.85
156.291 122.17 116.846
156.729 119.951 120.027
156.424 119.156 120.521
156.669 119.781 121.111
155.22 119.699 119.501
155.056 120.17 118.49
154.756 119.816 119.422
152.75 123.181 120.172
152.452 123.612 120.87
152.49 122.664 121.104
152.435 123.988 121.535
152.378 124.406 120.638
152.619 123.262 119.157
153.005 122.655 119.503
152.616 121.833 121.411
152.46 122.411 122.151
152.139 124.678 119.87
152.256 123.781 119.083
151.678 124.469 118.869
153.079 121.812 119.813
152.829 121.358 120.933
153.23 120.759 120.249
152.208 122.725 122.747
152.261 123.521 122.357
151.969 123.12 123.432
155.376 119.951 126.238
155.289 119.087 126.112
154.631 120.185 126.913
155.08 118.567 126.023
155.671 118.459 125.467
156.104 119.843 125.693
155.444 120.659 126.244
154.146 120.932 127.616
154.053 120.292 127.474
155.885 119.048 124.978
156.071 119.828 125.127
156.33 119.315 124.092
154.919 121.354 126.7
154.268 121.372 127.738
154.531 121.873 127.549
154.009 119.563 127.571
154.593 118.722 126.708
153.943 118.545 127.246
150.681 120.476 129.021
150.168 120.853 129.449
149.792 119.691 130.143
149.929 121.884 129.448
150.322 121.691 128.043
150.983 120.856 127.707
151.311 120.255 128.448
150.371 118.794 130.49
149.673 120.351 131.273
150.136 121.905 127.303
150.915 121.147 126.69
150.833 121.882 126.083
151.437 119.261 128.54
151.335 119.205 129.622
152.047 118.694 128.432
149.771 121.819 131.061
149.752 122.587 130.032
149.802 123.448 131.166
156.513 126.137 118.602
155.873 127.052 119.235
155.803 126.597 118.469
155.542 127.902 119.885
155.944 127.279 120.044
157.077 125.428 118.976
156.89 125.183 118.217
155.478 126.252 118.037
155.356 127.215 118.194
156.208 126.645 120.412
156.728 125.707 119.832
156.688 126.075 120.87
156.556 124.877 117.749
155.582 125.539 117.77
156 124.724 117.354
154.86 127.895 118.596
155.067 128.111 119.542
154.593 128.621 119.338
150.836 130.123 120.516
150.368 129.622 120.472
150.874 129.682 119.63
150.01 128.947 120.214
150.11 129.286 121.46
150.83 130.388 121.67
151.469 130.23 120.746
151.73 129.008 118.907
150.935 129.191 118.555
150.357 129.057 122.306
150.601 129.956 122.542
150.2 129.385 123.409
152.096 129.882 120.395
152.306 129.261 119.275
152.702 129.493 119.871
150.461 128.914 118.46
149.996 128.143 119.736
150.161 127.291 118.519
154.977 126.383 126.187
155.302 125.628 126.35
154.692 126.05 127.208
155.492 124.843 126.479
155.898 125.148 125.583
155.255 126.527 125.309
154.772 127.081 125.851
154.216 126.398 127.992
154.522 125.73 128.118
156.099 125.581 124.839
155.643 126.401 124.628
156.179 125.897 123.897
154.302 127.39 126.429
153.967 126.678 127.433
153.824 127.385 126.953
154.719 124.968 128.072
155.239 124.49 127.147
154.893 124.103 127.988
150.924 127.578 128.467
151.242 128.223 127.786
151.615 127.087 128.548
151.457 129.013 127.602
151.138 128.727 127.128
150.658 126.923 128.391
150.612 126.611 129.241
151.354 126.725 129.641
151.899 126.67 129.074
151.176 128.247 126.437
150.951 127.407 127.013
151.553 127.4 125.426
150.63 126.11 129.775
151.092 126.215 130.143
150.64 125.673 130.58
152.212 127.129 128.322
151.999 128.601 127.629
152.568 127.774 127.53
POLYGONS 1280  5120
3 164 162 163
3 163 44 164
3 162 43 163
3 164 42 162
3 166 165 163
3 163 43 166
3 165 44 163
3 166 14 165
3 168 167 162
3 162 42 168
3 167 43 162
3 168 13 167
3 170 169 164
3 164 44 170
3 169 42 164
3 170 12 169
3 173 171 172
3 172 46 173
3 171 43 172
3 173 45 171
3 167 174 172
3 172 43 167
3 174 46 172
3 167 13 174
3 175 166 171
3 171 45 175
3 166 43 171
3 175 14 166
3 177 176 173
3 173 46 177
3 176 45 173
3 177 4 176
3 180 178 179
3 179 48 180
3 178 42 179
3 180 47 178
3 169 181 179
3 179 42 169
3 181 48 179
3 169 12 181
3 182 168 178
3 178 47 182
3 168 42 178
3 182 13 168
3 184 183 180
3 180 48 184
3 183 47 180
3 184 8 183
3 187 185 186
3 186 50 187
3 185 44 186
3 187 49 185
3 165 188 186
3 186 44 165
3 188 50 186
3 165 14 188
3 189 170 185
3 185 49 189
3 170 44 185
3 189 12 170
3 191 190 187
3 187 50 191
3 190 49 187
3 191 7 190
3 194 192 193
3 193 53 194
3 192 52 193
3 194 51 192
3 196 195 193
3 193 52 196
3 195 53 193
3 196 16 195
3 198 197 192
3 192 51 198
3 197 52 192
3 198 14 197
3 200 199 194
3 194 53 200
3 199 51 194
3 200 15 199
3 203 201 202
3 202 45 203
3 201 52 202
3 203 54 201
3 197 175 202
3 202 52 197
3 175 45 202
3 197 14 175
3 204 196 201
3 201 54 204
3 196 52 201
3 204 16 196
3 176 205 203
3 203 45 176
3 205 54 203
3 176 4 205
3 208 206 207
3 207 55 208
3 206 51 207
3 208 50 206
3 199 209 207
3 207 51 199
3 209 55 207
3 199 15 209
3 188 198 206
3 206 50 188
3 198 51 206
3 188 14 198
3 210 191 208
3 208 55 210
3 191 50 208
3 210 7 191
3 213 211 212
3 212 57 213
3 211 53 212
3 213 56 211
3 195 214 212
3 212 53 195
3 214 57 212
3 195 16 214
3 215 200 211
3 211 56 215
3 200 53 211
3 215 15 200
3 217 216 213
3 213 57 217
3 216 56 213
3 217 9 216
3 220 218 219
3 219 60 220
3 218 59 219
3 220 58 218
3 222 221 219
3 219 59 222
3 221 60 219
3 222 19 221
3 224 223 218
3 218 58 224
3 223 59 218
3 224 18 223
3 226 225 220
3 220 60 226
3 225 58 220
3 226 17 225
3 229 227 228
3 228 62 229
3 227 59 228
3 229 61 227
3 223 230 228
3 228 59 223
3 230 62 228
3 223 18 230
3 231 222 227
3 227 61 231
3 222 59 227
3 231 19 222
3 233 232 229
3 229 62 233
3 232 61 229
3 233 5 232
3 236 234 235
3 235 64 236
3 234 58 235
3 236 63 234
3 225 237 235
3 235 58 225
3 237 64 235
3 225 17 237
3 238 224 234
3 234 63 238
3 224 58 234
3 238 18 224
3 240 239 236
3 236 64 240
3 239 63 236
3 240 6 239
3 243 241 242
3 242 66 243
3 241 60 242
3 243 65 241
3 221 244 242
3 242 60 221
3 244 66 242
3 221 19 244
3 245 226 241
3 241 65 245
3 226 60 241
3 245 17 226
3 247 246 243
3 243 66 247
3 246 65 243
3 247 11 246
3 250 248 249
3 249 69 250
3 248 68 249
3 250 67 248
3 252 251 249
3 249 68 252
3 251 69 249
3 252 18 251
3 254 253 248
3 248 67 254
3 253 68 248
3 254 21 253
3 256 255 250
3 250 69 256
3 255 67 250
3 256 20 255
3 259 257 258
3 258 70 259
3 257 68 258
3 259 62 257
3 253 260 258
3 258 68 253
3 260 70 258
3 253 21 260
3 230 252 257
3 257 62 230
3 252 68 257
3 230 18 252
3 261 233 259
3 259 70 261
3 233 62 259
3 261 5 233
3 264 262 263
3 263 72 264
3 262 67 263
3 264 71 262
3 255 265 263
3 263 67 255
3 265 72 263
3 255 20 265
3 266 254 262
3 262 71 266
3 254 67 262
3 266 21 254
3 268 267 264
3 264 72 268
3 267 71 264
3 268 10 267
3 271 269 270
3 270 63 271
3 269 69 270
3 271 73 269
3 251 238 270
3 270 69 251
3 238 63 270
3 251 18 238
3 272 256 269
3 269 73 272
3 256 69 269
3 272 20 256
3 239 273 271
3 271 63 239
3 273 73 271
3 239 6 273
3 276 274 275
3 275 76 276
3 274 75 275
3 276 74 274
3 278 277 275
3 275 75 278
3 277 76 275
3 278 24 277
3 280 279 274
3 274 74 280
3 279 75 274
3 280 23 279
3 282 281 276
3 276 76 282
3 281 74 276
3 282 22 281
3 285 283 284
3 284 78 285
3 283 75 284
3 285 77 283
3 279 286 284
3 284 75 279
3 286 78 284
3 279 23 286
3 287 278 283
3 283 77 287
3 278 75 283
3 287 24 278
3 289 288 285
3 285 78 289
3 288 77 285
3 289 0 288
3 292 290 291
3 291 80 292
3 290 74 291
3 292 79 290
3 281 293 291
3 291 74 281
3 293 80 291
3 281 22 293
3 294 280 290
3 290 79 294
3 280 74 290
3 294 23 280
3 296 295 292
3 292 80 296
3 295 79 292
3 296 4 295
3 299 297 298
3 298 82 299
3 297 76 298
3 299 81 297
3 277 300 298
3 298 76 277
3 300 82 298
3 277 24 300
3 301 282 297
3 297 81 301
3 282 76 297
3 301 22 282
3 303 302 299
3 299 82 303
3 302 81 299
3 303 3 302
3 306 304 305
3 305 85 306
3 304 84 305
3 306 83 304
3 308 307 305
3 305 84 308
3 307 85 305
3 308 26 307
3 310 309 304
3 304 83 310
3 309 84 304
3 310 24 309
3 312 311 306
3 306 85 312
3 311 83 306
3 312 25 311
3 315 313 314
3 314 77 315
3 313 84 314
3 315 86 313
3 309 287 314
3 314 84 309
3 287 77 314
3 309 24 287
3 316 308 313
3 313 86 316
3 308 84 313
3 316 26 308
3 288 317 315
3 315 77 288
3 317 86 315
3 288 0 317
3 320 318 319
3 319 87 320
3 318 83 319
3 320 82 318
3 311 321 319
3 319 83 311
3 321 87 319
3 311 25 321
3 300 310 318
3 318 82 300
3 310 83 318
3 300 24 310
3 322 303 320
3 320 87 322
3 303 82 320
3 322 3 303
3 325 323 324
3 324 89 325
3 323 85 324
3 325 88 323
3 307 326 324
3 324 85 307
3 326 89 324
3 307 26 326
3 327 312 323
3 323 88 327
3 312 85 323
3 327 25 312
3 329 328 325
3 325 89 329
3 328 88 325
3 329 5 328
3 332 330 331
3 331 92 332
3 330 91 331
3 332 90 330
3 334 333 331
3 331 91 334
3 333 92 331
3 334 29 333
3 336 335 330
3 330 90 336
3 335 91 330
3 336 28 335
3 338 337 332
3 332 92 338
3 337 90 332
3 338 27 337
3 341 339 340
3 340 94 341
3 339 91 340
3 341 93 339
3 335 342 340
3 340 91 335
3 342 94 340
3 335 28 342
3 343 334 339
3 339 93 343
3 334 91 339
3 343 29 334
3 345 344 341
3 341 94 345
3 344 93 341
3 345 2 344
3 348 346 347
3 347 96 348
3 346 90 347
3 348 95 346
3 337 349 347
3 347 90 337
3 349 96 347
3 337 27 349
3 350 336 346
3 346 95 350
3 336 90 346
3 350 28 336
3 352 351 348
3 348 96 352
3 351 95 348
3 352 7 351
3 355 353 354
3 354 98 355
3 353 92 354
3 355 97 353
3 333 356 354
3 354 92 333
3 356 98 354
3 333 29 356
3 357 338 353
3 353 97 357
3 338 92 353
3 357 27 338
3 359 358 355
3 355 98 359
3 358 97 355
3 359 1 358
3 362 360 361
3 361 101 362
3 360 100 361
3 362 99 360
3 364 363 361
3 361 100 364
3 363 101 361
3 364 31 363
3 366 365 360
3 360 99 366
3 365 100 360
3 366 29 365
3 368 367 362
3 362 101 368
3 367 99 362
3 368 30 367
3 371 369 370
3 370 93 371
3 369 100 370
3 371 102 369
3 365 343 370
3 370 100 365
3 343 93 370
3 365 29 343
3 372 364 369
3 369 102 372
3 364 100 369
3 372 31 364
3 344 373 371
3 371 93 344
3 373 102 371
3 344 2 373
3 376 374 375
3 375 103 376
3 374 99 375
3 376 98 374
3 367 377 375
3 375 99 367
3 377 103 375
3 367 30 377
3 356 366 374
3 374 98 356
3 366 99 374
3 356 29 366
3 378 359 376
3 376 103 378
3 359 98 376
3 378 1 359
3 381 379 380
3 380 105 381
3 379 101 380
3 381 104 379
3 363 382 380
3 380 101 363
3 382 105 380
3 363 31 382
3 383 368 379
3 379 104 383
3 368 101 379
3 383 30 368
3 385 384 381
3 381 105 385
3 384 104 381
3 385 6 384
3 388 386 387
3 387 108 388
3 386 107 387
3 388 106 386
3 390 389 387
3 387 107 390
3 389 108 387
3 390 34 389
3 392 391 386
3 386 106 392
3 391 107 386
3 392 33 391
3 394 393 388
3 388 108 394
3 393 106 388
3 394 32 393
3 397 395 396
3 396 110 397
3 395 107 396
3 397 109 395
3 391 398 396
3 396 107 391
3 398 110 396
3 391 33 398
3 399 390 395
3 395 109 399
3 390 107 395
3 399 34 390
3 401 400 397
3 397 110 401
3 400 109 397
3 401 8 400
3 404 402 403
3 403 112 404
3 402 106 403
3 404 111 402
3 393 405 403
3 403 106 393
3 405 112 403
3 393 32 405
3 406 392 402
3 402 111 406
3 392 106 402
3 406 33 392
3 408 407 404
3 404 112 408
3 407 111 404
3 408 0 407
3 411 409 410
3 410 114 411
3 409 108 410
3 411 113 409
3 389 412 410
3 410 108 389
3 412 114 410
3 389 34 412
3 413 394 409
3 409 113 413
3 394 108 409
3 413 32 394
3 415 414 411
3 411 114 415
3 414 113 411
3 415 11 414
3 418 416 417
3 417 117 418
3 416 116 417
3 418 115 416
3 420 419 417
3 417 116 420
3 419 117 417
3 420 36 419
3 422 421 416
3 416 115 422
3 421 116 416
3 422 34 421
3 424 423 418
3 418 117 424
3 423 115 418
3 424 35 423
3 427 425 426
3 426 109 427
3 425 116 426
3 427 118 425
3 421 399 426
3 426 116 421
3 399 109 426
3 421 34 399
3 428 420 425
3 425 118 428
3 420 116 425
3 428 36 420
3 400 429 427
3 427 109 400
3 429 118 427
3 400 8 429
3 432 430 431
3 431 119 432
3 430 115 431
3 432 114 430
3 423 433 431
3 431 115 423
3 433 119 431
3 423 35 433
3 412 422 430
3 430 114 412
3 422 115 430
3 412 34 422
3 434 415 432
3 432 119 434
3 415 114 432
3 434 11 415
3 437 435 436
3 436 121 437
3 435 117 436
3 437 120 435
3 419 438 436
3 436 117 419
3 438 121 436
3 419 36 438
3 439 424 435
3 435 120 439
3 424 117 435
3 439 35 424
3 441 440 437
3 437 121 441
3 440 120 437
3 441 1 440
3 444 442 443
3 443 124 444
3 442 123 443
3 444 122 442
3 446 445 443
3 443 123 446
3 445 124 443
3 446 39 445
3 448 447 442
3 442 122 448
3 447 123 442
3 448 38 447
3 450 449 444
3 444 124 450
3 449 122 444
3 450 37 449
3 453 451 452
3 452 126 453
3 451 123 452
3 453 125 451
3 447 454 452
3 452 123 447
3 454 126 452
3 447 38 454
3 455 446 451
3 451 125 455
3 446 123 451
3 455 39 446
3 457 456 453
3 453 126 457
3 456 125 453
3 457 9 456
3 460 458 459
3 459 128 460
3 458 122 459
3 460 127 458
3 449 461 459
3 459 122 449
3 461 128 459
3 449 37 461
3 462 448 458
3 458 127 462
3 448 122 458
3 462 38 448
3 464 463 460
3 460 128 464
3 463 127 460
3 464 10 463
3 467 465 466
3 466 130 467
3 465 124 466
3 467 129 465
3 445 468 466
3 466 124 445
3 468 130 466
3 445 39 468
3 469 450 465
3 465 129 469
3 450 124 465
3 469 37 450
3 471 470 467
3 467 130 471
3 470 129 467
3 471 3 470
3 474 472 473
3 473 133 474
3 472 132 473
3 474 131 472
3 476 475 473
3 473 132 476
3 475 133 473
3 476 38 475
3 478 477 472
3 472 131 478
3 477 132 472
3 478 41 477
3 480 479 474
3 474 133 480
3 479 131 474
3 480 40 479
3 483 481 482
3 482 134 483
3 481 132 482
3 483 126 481
3 477 484 482
3 482 132 477
3 484 134 482
3 477 41 484
3 454 476 481
3 481 126 454
3 476 132 481
3 454 38 476
3 485 457 483
3 483 134 485
3 457 126 483
3 485 9 457
3 488 486 487
3 487 136 488
3 486 131 487
3 488 135 486
3 479 489 487
3 487 131 479
3 489 136 487
3 479 40 489
3 490 478 486
3 486 135 490
3 478 131 486
3 490 41 478
3 492 491 488
3 488 136 492
3 491 135 488
3 492 2 491
3 495 493 494
3 494 127 495
3 493 133 494
3 495 137 493
3 475 462 494
3 494 133 475
3 462 127 494
3 475 38 462
3 496 480 493
3 493 137 496
3 480 133 493
3 496 40 480
3 463 497 495
3 495 127 463
3 497 137 495
3 463 10 497
3 500 498 499
3 499 140 500
3 498 139 499
3 500 138 498
3 502 501 499
3 499 139 502
3 501 140 499
3 502 33 501
3 504 503 498
3 498 138 504
3 503 139 498
3 504 13 503
3 506 505 500
3 500 140 506
3 505 138 500
3 506 23 505
3 509 507 508
3 508 47 509
3 507 139 508
3 509 110 507
3 503 182 508
3 508 139 503
3 182 47 508
3 503 13 182
3 398 502 507
3 507 110 398
3 502 139 507
3 398 33 502
3 183 401 509
3 509 47 183
3 401 110 509
3 183 8 401
3 512 510 511
3 511 79 512
3 510 138 511
3 512 46 510
3 505 294 511
3 511 138 505
3 294 79 511
3 505 23 294
3 174 504 510
3 510 46 174
3 504 138 510
3 174 13 504
3 295 177 512
3 512 79 295
3 177 46 512
3 295 4 177
3 515 513 514
3 514 111 515
3 513 140 514
3 515 78 513
3 501 406 514
3 514 140 501
3 406 111 514
3 501 33 406
3 286 506 513
3 513 78 286
3 506 140 513
3 286 23 506
3 407 289 515
3 515 111 407
3 289 78 515
3 407 0 289
3 518 516 517
3 517 143 518
3 516 142 517
3 518 141 516
3 520 519 517
3 517 142 520
3 519 143 517
3 520 19 519
3 522 521 516
3 516 141 522
3 521 142 516
3 522 32 521
3 524 523 518
3 518 143 524
3 523 141 518
3 524 26 523
3 527 525 526
3 526 113 527
3 525 142 526
3 527 66 525
3 521 413 526
3 526 142 521
3 413 113 526
3 521 32 413
3 244 520 525
3 525 66 244
3 520 142 525
3 244 19 520
3 414 247 527
3 527 113 414
3 247 66 527
3 414 11 247
3 530 528 529
3 529 86 530
3 528 141 529
3 530 112 528
3 523 316 529
3 529 141 523
3 316 86 529
3 523 26 316
3 405 522 528
3 528 112 405
3 522 141 528
3 405 32 522
3 317 408 530
3 530 86 317
3 408 112 530
3 317 0 408
3 533 531 532
3 532 61 533
3 531 143 532
3 533 89 531
3 519 231 532
3 532 143 519
3 231 61 532
3 519 19 231
3 326 524 531
3 531 89 326
3 524 143 531
3 326 26 524
3 232 329 533
3 533 61 232
3 329 89 533
3 232 5 329
3 536 534 535
3 535 146 536
3 534 145 535
3 536 144 534
3 538 537 535
3 535 145 538
3 537 146 535
3 538 22 537
3 540 539 534
3 534 144 540
3 539 145 534
3 540 16 539
3 542 541 536
3 536 146 542
3 541 144 536
3 542 39 541
3 545 543 544
3 544 54 545
3 543 145 544
3 545 80 543
3 539 204 544
3 544 145 539
3 204 54 544
3 539 16 204
3 293 538 543
3 543 80 293
3 538 145 543
3 293 22 538
3 205 296 545
3 545 54 205
3 296 80 545
3 205 4 296
3 548 546 547
3 547 125 548
3 546 144 547
3 548 57 546
3 541 455 547
3 547 144 541
3 455 125 547
3 541 39 455
3 214 540 546
3 546 57 214
3 540 144 546
3 214 16 540
3 456 217 548
3 548 125 456
3 217 57 548
3 456 9 217
3 551 549 550
3 550 81 551
3 549 146 550
3 551 130 549
3 537 301 550
3 550 146 537
3 301 81 550
3 537 22 301
3 468 542 549
3 549 130 468
3 542 146 549
3 468 39 542
3 302 471 551
3 551 81 302
3 471 130 551
3 302 3 471
3 554 552 553
3 553 149 554
3 552 148 553
3 554 147 552
3 556 555 553
3 553 148 556
3 555 149 553
3 556 21 555
3 558 557 552
3 552 147 558
3 557 148 552
3 558 25 557
3 560 559 554
3 554 149 560
3 559 147 554
3 560 37 559
3 563 561 562
3 562 88 563
3 561 148 562
3 563 70 561
3 557 327 562
3 562 148 557
3 327 88 562
3 557 25 327
3 260 556 561
3 561 70 260
3 556 148 561
3 260 21 556
3 328 261 563
3 563 88 328
3 261 70 563
3 328 5 261
3 566 564 565
3 565 129 566
3 564 147 565
3 566 87 564
3 559 469 565
3 565 147 559
3 469 129 565
3 559 37 469
3 321 558 564
3 564 87 321
3 558 147 564
3 321 25 558
3 470 322 566
3 566 129 470
3 322 87 566
3 470 3 322
3 569 567 568
3 568 71 569
3 567 149 568
3 569 128 567
3 555 266 568
3 568 149 555
3 266 71 568
3 555 21 266
3 461 560 567
3 567 128 461
3 560 149 567
3 461 37 560
3 267 464 569
3 569 71 267
3 464 128 569
3 267 10 464
3 572 570 571
3 571 152 572
3 570 151 571
3 572 150 570
3 574 573 571
3 571 151 574
3 573 152 571
3 574 27 573
3 576 575 570
3 570 150 576
3 575 151 570
3 576 12 575
3 578 577 572
3 572 152 578
3 577 150 572
3 578 36 577
3 581 579 580
3 580 49 581
3 579 151 580
3 581 96 579
3 575 189 580
3 580 151 575
3 189 49 580
3 575 12 189
3 349 574 579
3 579 96 349
3 574 151 579
3 349 27 574
3 190 352 581
3 581 49 190
3 352 96 581
3 190 7 352
3 584 582 583
3 583 118 584
3 582 150 583
3 584 48 582
3 577 428 583
3 583 150 577
3 428 118 583
3 577 36 428
3 181 576 582
3 582 48 181
3 576 150 582
3 181 12 576
3 429 184 584
3 584 118 429
3 184 48 584
3 429 8 184
3 587 585 586
3 586 97 587
3 585 152 586
3 587 121 585
3 573 357 586
3 586 152 573
3 357 97 586
3 573 27 357
3 438 578 585
3 585 121 438
3 578 152 585
3 438 36 578
3 358 441 587
3 587 97 358
3 441 121 587
3 358 1 441
3 590 588 589
3 589 155 590
3 588 154 589
3 590 153 588
3 592 591 589
3 589 154 592
3 591 155 589
3 592 17 591
3 594 593 588
3 588 153 594
3 593 154 588
3 594 30 593
3 596 595 590
3 590 155 596
3 595 153 590
3 596 35 595
3 599 597 598
3 598 104 599
3 597 154 598
3 599 64 597
3 593 383 598
3 598 154 593
3 383 104 598
3 593 30 383
3 237 592 597
3 597 64 237
3 592 154 597
3 237 17 592
3 384 240 599
3 599 104 384
3 240 64 599
3 384 6 240
3 602 600 601
3 601 120 602
3 600 153 601
3 602 103 600
3 595 439 601
3 601 153 595
3 439 120 601
3 595 35 439
3 377 594 600
3 600 103 377
3 594 153 600
3 377 30 594
3 440 378 602
3 602 120 440
3 378 103 602
3 440 1 378
3 605 603 604
3 604 65 605
3 603 155 604
3 605 119 603
3 591 245 604
3 604 155 591
3 245 65 604
3 591 17 245
3 433 596 603
3 603 119 433
3 596 155 603
3 433 35 596
3 246 434 605
3 605 65 246
3 434 119 605
3 246 11 434
3 608 606 607
3 607 158 608
3 606 157 607
3 608 156 606
3 610 609 607
3 607 157 610
3 609 158 607
3 610 15 609
3 612 611 606
3 606 156 612
3 611 157 606
3 612 28 611
3 614 613 608
3 608 158 614
3 613 156 608
3 614 41 613
3 617 615 616
3 616 95 617
3 615 157 616
3 617 55 615
3 611 350 616
3 616 157 611
3 350 95 616
3 611 28 350
3 209 610 615
3 615 55 209
3 610 157 615
3 209 15 610
3 351 210 617
3 617 95 351
3 210 55 617
3 351 7 210
3 620 618 619
3 619 135 620
3 618 156 619
3 620 94 618
3 613 490 619
3 619 156 613
3 490 135 619
3 613 41 490
3 342 612 618
3 618 94 342
3 612 156 618
3 342 28 612
3 491 345 620
3 620 135 491
3 345 94 620
3 491 2 345
3 623 621 622
3 622 56 623
3 621 158 622
3 623 134 621
3 609 215 622
3 622 158 609
3 215 56 622
3 609 15 215
3 484 614 621
3 621 134 484
3 614 158 621
3 484 41 614
3 216 485 623
3 623 56 216
3 485 134 623
3 216 9 485
3 626 624 625
3 625 161 626
3 624 160 625
3 626 159 624
3 628 627 625
3 625 160 628
3 627 161 625
3 628 31 627
3 630 629 624
3 624 159 630
3 629 160 624
3 630 20 629
3 632 631 626
3 626 161 632
3 631 159 626
3 632 40 631
3 635 633 634
3 634 73 635
3 633 160 634
3 635 105 633
3 629 272 634
3 634 160 629
3 272 73 634
3 629 20 272
3 382 628 633
3 633 105 382
3 628 160 633
3 382 31 628
3 273 385 635
3 635 73 273
3 385 105 635
3 273 6 385
3 638 636 637
3 637 137 638
3 636 159 637
3 638 72 636
3 631 496 637
3 637 159 631
3 496 137 637
3 631 40 496
3 265 630 636
3 636 72 265
3 630 159 636
3 265 20 630
3 497 268 638
3 638 137 497
3 268 72 638
3 497 10 268
3 641 639 640
3 640 102 641
3 639 161 640
3 641 136 639
3 627 372 640
3 640 161 627
3 372 102 640
3 627 31 372
3 489 632 639
3 639 136 489
3 632 161 639
3 489 40 632
3 373 492 641
3 641 102 373
3 492 136 641
3 373 2 492
