# vtk DataFile Version 3.0
this file was written using fslvtkio
ASCII
DATASET POLYDATA
POINTS 642 float
143.697 142.871 111.535
142.595 144.586 112.365
143.431 146.173 113.197
144.507 144.44 112.308
143.851 144.691 111.1
144.155 143.363 112.976
143.271 144.602 113.327
143.241 145.619 111.604
142.379 143.835 110.925
144.391 146.236 112.331
144.415 145.544 113.606
142.622 142.926 112.438
142.793 144.796 111.083
143.163 144.208 110.749
143.506 145.435 111.048
143.812 146.35 111.784
144.111 145.509 111.661
142.911 143.649 112.871
143.671 143.983 113.15
143.433 142.976 112.59
143.811 145.211 113.601
144.38 144.262 113.336
144.191 144.54 111.69
143.775 143.691 111.075
144.306 143.551 111.925
144.683 143.746 112.722
144.087 142.839 112.318
142.793 145.146 111.909
143.381 146.066 112.379
142.942 145.426 112.852
142.748 144.499 113.007
143.193 145.482 113.674
143.08 142.531 111.904
142.929 142.959 110.988
142.299 143.046 111.628
142.34 143.676 112.43
142.438 144.149 111.63
144.618 144.949 113.031
144.62 146.235 113.351
144.445 145.41 112.408
144.027 146.281 113.91
143.951 146.622 112.832
142.912 144.575 110.787
143.339 144.897 110.757
143.089 145.209 110.919
143.691 145.075 111.029
143.563 144.481 110.834
142.729 143.974 110.782
142.561 144.316 110.951
142.996 145.242 111.303
143.296 145.61 111.258
143.649 145.869 111.371
143.859 145.529 111.301
144.014 145.975 111.649
144.008 145.115 111.349
143.504 145.988 111.687
144.161 146.435 111.984
144.296 145.951 111.956
143.306 143.823 112.969
143.552 143.473 112.856
143.152 143.312 112.726
143.801 143.173 112.779
143.9 143.645 113.072
143.461 144.305 113.27
143.099 144.128 113.104
142.704 143.18 112.741
143.023 142.868 112.518
144.058 144.723 113.478
144.018 144.166 113.295
143.771 144.553 113.437
144.289 143.816 113.159
144.334 144.915 113.417
144.112 145.39 113.592
143.551 144.879 113.536
144.016 144.088 111.37
143.989 143.618 111.503
144.25 144.029 111.739
144.008 143.198 111.729
143.729 143.237 111.259
143.838 144.205 111.02
144 144.631 111.404
144.417 144.523 111.99
144.508 144.028 112.07
144.629 143.661 112.302
144.25 143.162 112.122
144.521 143.247 112.582
143.935 142.761 111.916
144.595 144.14 112.489
144.513 143.498 112.958
144.124 143.071 112.67
143.09 145.614 112.161
143.131 145.749 112.579
142.868 145.34 112.384
143.179 145.799 113.037
143.41 146.181 112.785
143.307 145.87 111.978
143.02 145.376 111.74
142.688 144.896 112.151
142.773 145.011 112.599
142.81 144.986 112.982
143.033 145.451 113.266
142.961 145.019 113.35
143.263 145.905 113.488
142.657 144.546 112.693
142.968 144.566 113.227
143.258 145.057 113.517
142.935 142.471 111.407
142.468 142.867 111.229
142.527 142.513 111.807
142.258 143.454 111.214
142.594 143.388 110.895
143.365 142.819 111.204
143.446 142.567 111.65
142.838 142.664 112.205
142.459 142.922 112.08
142.324 143.367 112.021
142.334 143.609 111.597
142.367 143.887 112.015
142.392 144.01 111.256
142.398 143.238 112.491
142.433 144.176 112.361
142.51 144.416 112.005
144.659 145.616 113.245
144.569 145.81 112.886
144.568 145.271 112.785
144.519 145.871 112.39
144.427 146.251 112.86
144.645 145.903 113.689
144.542 145.279 113.335
144.629 144.717 112.636
144.494 144.922 112.36
144.026 146.683 113.485
144.356 146.659 113.16
144.523 146.454 113.845
144.22 146.521 112.562
143.689 146.449 113.03
143.665 146.33 113.53
144.313 145.957 113.836
143.457 143.897 110.835
143.011 143.567 110.819
143.371 143.29 110.981
143.651 142.597 112.086
143.297 142.686 112.271
143.76 142.827 112.461
144.302 145.505 112.047
144.174 145.042 111.691
144.295 144.966 112.047
144.717 144.307 112.819
144.671 143.932 113.07
144.564 144.595 113.209
142.592 144.5 111.359
142.757 145.001 111.488
142.6 144.671 111.74
142.488 144.073 112.715
142.778 144.072 112.988
142.483 143.564 112.805
143.653 146.461 112.538
143.584 146.264 112.089
143.896 146.648 112.21
143.934 145.784 113.784
143.519 145.379 113.726
143.548 145.948 113.806
143.121 144.758 110.748
143.193 145.059 110.819
142.997 144.919 110.816
143.292 145.331 110.936
143.405 145.173 110.877
143.246 144.559 110.739
143.031 144.402 110.742
142.844 144.734 110.909
142.919 145.017 110.972
143.524 145.01 110.867
143.463 144.705 110.767
143.646 144.817 110.877
143.364 144.36 110.782
143.587 145.257 111.01
143.774 144.885 111.054
143.74 144.623 110.934
142.818 144.286 110.749
142.699 144.489 110.834
142.604 144.192 110.805
142.682 144.559 111.007
142.95 144.079 110.768
142.525 143.908 110.793
142.452 144.082 110.914
143.007 145.228 111.103
143.179 145.419 111.07
143.131 145.429 111.272
143.385 145.557 111.12
142.877 145.036 111.172
143.129 145.429 111.454
143.268 145.612 111.434
143.756 145.699 111.329
143.936 145.742 111.467
143.843 145.944 111.504
144.067 145.746 111.629
143.987 145.544 111.473
143.689 145.515 111.153
143.583 145.647 111.209
143.74 146.095 111.578
143.931 146.174 111.692
143.954 145.338 111.326
143.771 145.335 111.152
143.869 145.129 111.177
144.069 145.325 111.482
143.902 144.906 111.214
143.488 145.755 111.31
143.573 145.946 111.526
143.418 145.786 111.48
143.644 146.179 111.721
143.36 145.811 111.644
144.112 146.235 111.784
144.175 145.983 111.775
144.252 146.194 111.931
144.184 145.731 111.802
144.005 146.44 111.844
144.29 146.337 112.124
144.375 146.117 112.11
143.427 143.653 112.894
143.368 143.395 112.776
143.241 143.577 112.826
143.302 143.141 112.657
143.504 143.227 112.721
143.608 143.72 113.005
143.49 143.883 113.047
143.125 143.736 112.898
143.034 143.496 112.799
143.667 143.314 112.817
143.73 143.565 112.978
143.865 143.424 112.929
143.773 143.798 113.118
143.621 143.073 112.68
143.994 143.3 112.893
144.026 143.506 113.024
143.384 144.043 113.099
143.196 143.961 113.039
143.269 144.2 113.18
143.013 143.891 112.965
143.562 144.139 113.188
143.36 144.451 113.314
143.168 144.35 113.226
142.932 143.243 112.741
143.091 143.083 112.629
142.872 143.026 112.644
143.233 142.916 112.56
142.807 143.399 112.814
142.665 143.02 112.606
142.811 142.883 112.504
144.068 144.423 113.427
143.889 144.368 113.343
143.931 144.635 113.497
143.729 144.272 113.278
143.837 144.095 113.235
144.206 144.225 113.368
144.212 144.476 113.427
143.93 144.963 113.534
143.798 144.86 113.562
143.945 143.913 113.187
144.14 144.014 113.221
144.087 143.726 113.159
144.341 144.054 113.253
144.226 143.565 113.09
144.198 144.819 113.446
144.07 145.059 113.504
144.217 145.17 113.495
143.967 145.285 113.595
144.348 144.571 113.373
144.339 145.278 113.475
144.253 145.482 113.587
143.658 144.72 113.498
143.62 144.426 113.347
143.514 144.598 113.388
143.673 145.034 113.603
143.416 144.756 113.401
144.017 143.848 111.429
144.135 143.823 111.625
144.117 144.069 111.573
144.261 143.781 111.816
144.121 143.592 111.713
143.891 143.659 111.287
143.92 143.878 111.217
144.071 144.296 111.549
144.192 144.279 111.706
143.978 143.409 111.62
143.864 143.426 111.379
143.882 143.211 111.49
143.746 143.463 111.168
144.13 143.386 111.823
143.876 143.017 111.63
143.713 143.032 111.405
143.967 144.139 111.175
144.007 144.35 111.373
143.935 144.4 111.206
144.082 144.573 111.544
143.788 143.948 111.051
143.853 144.462 111.044
143.933 144.671 111.25
144.343 144.278 111.845
144.391 144.023 111.898
144.452 144.265 111.995
144.426 143.786 111.98
144.322 144.516 111.833
144.465 144.469 112.147
144.508 144.257 112.18
144.454 143.415 112.214
144.425 143.204 112.329
144.6 143.44 112.429
144.297 143.089 112.455
144.196 143 112.248
144.283 143.364 112.02
144.468 143.615 112.104
144.69 143.691 112.525
144.66 143.473 112.663
144.103 142.956 112.035
144.12 143.183 111.928
143.991 142.979 111.829
144.022 142.765 112.12
143.814 142.809 111.729
144.563 143.855 112.167
144.634 143.904 112.393
144.555 144.116 112.283
144.645 143.933 112.595
144.55 144.309 112.389
144.549 143.319 112.79
144.319 143.135 112.652
144.343 143.231 112.841
144.137 142.943 112.504
144.646 143.585 112.855
144.338 143.39 113.009
144.141 143.228 112.823
143.086 145.72 112.364
142.988 145.553 112.482
142.974 145.465 112.255
142.906 145.412 112.618
143.033 145.585 112.701
143.246 145.912 112.472
143.224 145.853 112.281
142.945 145.368 112.051
142.854 145.264 112.153
143.175 145.779 112.797
143.262 145.958 112.687
143.294 145.979 112.888
143.383 146.14 112.588
143.08 145.611 112.919
143.303 145.997 113.109
143.416 146.161 112.989
143.199 145.757 112.074
143.063 145.487 111.962
143.159 145.617 111.875
142.908 145.273 111.835
143.34 145.974 112.177
143.259 145.752 111.779
143.138 145.489 111.668
142.778 145.131 112.255
142.817 145.191 112.496
142.743 144.964 112.368
142.836 145.238 112.725
142.742 145.035 112.04
142.658 144.744 112.279
142.718 144.793 112.482
142.926 145.228 113.111
143.004 145.235 113.321
142.855 144.998 113.164
143.069 145.25 113.524
143.066 145.469 113.503
142.998 145.426 113.051
142.861 145.213 112.921
142.795 144.751 113.024
142.843 144.785 113.199
143.124 145.67 113.387
143.082 145.638 113.14
143.195 145.856 113.259
143.215 145.69 113.598
143.341 146.048 113.33
142.786 145.026 112.789
142.765 144.763 112.843
142.755 144.785 112.66
142.69 144.508 112.854
142.635 144.587 112.524
142.944 144.792 113.305
143.082 145.048 113.492
143.11 144.813 113.375
143.207 145.27 113.665
142.851 144.563 113.146
143.122 144.587 113.284
143.275 144.832 113.402
142.667 142.596 111.313
142.477 142.62 111.498
142.719 142.419 111.587
142.36 142.749 111.705
142.318 142.922 111.427
142.684 142.859 111.106
142.905 142.689 111.183
142.984 142.437 111.674
142.796 142.424 111.837
142.319 143.168 111.203
142.528 143.124 111.044
142.383 143.425 111.006
142.738 143.133 110.95
142.254 143.222 111.409
142.304 143.671 111.061
142.478 143.641 110.88
143.155 142.608 111.28
143.192 142.463 111.509
143.41 142.64 111.412
143.254 142.513 111.769
143.136 142.843 111.095
143.552 142.833 111.352
143.606 142.706 111.571
142.684 142.532 112.007
142.449 142.698 111.944
142.596 142.726 112.176
142.364 142.937 111.861
142.924 142.568 112.021
142.736 142.784 112.341
142.526 142.924 112.285
142.328 143.458 111.794
142.347 143.736 111.812
142.322 143.626 112.015
142.398 143.997 111.821
142.393 143.876 111.627
142.277 143.318 111.597
142.303 143.188 111.814
142.313 143.526 112.224
142.356 143.771 112.219
142.364 143.803 111.442
142.257 143.502 111.412
142.293 143.727 111.241
142.421 144.069 111.447
142.362 143.933 111.073
142.365 143.135 112.031
142.329 143.315 112.265
142.412 143.104 112.281
142.354 143.442 112.449
142.488 143.066 112.497
142.403 144.031 112.194
142.424 144.147 111.989
142.461 144.301 112.179
142.468 144.254 111.824
142.394 143.923 112.392
142.489 144.392 112.352
142.519 144.528 112.183
144.629 145.739 113.076
144.605 145.545 112.833
144.631 145.438 113.012
144.523 145.38 112.611
144.564 145.611 112.641
144.575 146.019 113.12
144.65 145.937 113.302
144.611 145.308 113.137
144.6 145.165 112.951
144.58 145.853 112.645
144.517 146.055 112.903
144.487 146.059 112.623
144.531 146.257 113.109
144.506 145.651 112.437
144.492 146.075 112.352
144.385 146.233 112.601
144.681 145.798 113.467
144.602 145.487 113.327
144.601 145.631 113.521
144.6 145.115 113.198
144.67 146.091 113.542
144.547 145.713 113.667
144.468 145.434 113.464
144.564 145.005 112.731
144.493 145.121 112.576
144.564 144.843 112.513
144.436 145.189 112.408
144.606 144.845 112.835
144.575 144.573 112.461
144.508 144.666 112.326
144.247 146.781 113.337
144.474 146.622 113.508
144.276 146.652 113.715
144.624 146.39 113.587
144.497 146.477 113.245
144.146 146.709 113.008
144.01 146.699 113.178
144.039 146.529 113.762
144.281 146.404 113.928
144.393 146.457 112.985
144.276 146.572 112.865
144.286 146.379 112.728
144.093 146.626 112.715
144.313 146.386 112.413
143.848 146.601 113.229
143.849 146.538 113.516
143.676 146.433 113.285
143.841 146.36 113.753
143.831 146.563 112.968
143.54 146.318 113.1
143.523 146.267 113.35
144.436 146.205 113.926
144.63 146.198 113.772
144.505 145.938 113.783
144.21 146.149 113.913
144.366 145.75 113.715
143.24 143.733 110.826
143.179 143.402 110.898
143.416 143.584 110.892
143.154 143.11 110.965
142.948 143.253 110.884
143.09 143.886 110.78
143.297 144.038 110.788
143.616 143.772 110.939
143.583 143.494 111.004
142.8 143.453 110.832
142.878 143.784 110.801
142.651 143.695 110.784
143.478 144.184 110.855
143.662 144.052 110.906
143.699 144.336 110.916
143.569 143.262 111.087
143.35 143.047 111.066
143.563 143.023 111.206
143.471 142.641 112.171
143.533 142.728 112.367
143.711 142.655 112.289
143.582 142.887 112.504
143.375 142.802 112.447
143.191 142.587 112.098
143.368 142.56 111.981
143.874 142.657 112.205
143.93 142.779 112.39
143.17 142.775 112.394
143.048 142.666 112.193
142.948 142.745 112.376
143.536 142.577 111.857
143.813 142.613 111.994
143.719 142.647 111.776
143.954 142.925 112.568
143.767 142.989 112.622
143.954 143.096 112.73
144.196 145.272 111.877
144.212 145.002 111.88
144.299 145.24 112.055
144.268 144.756 111.853
144.179 144.783 111.689
144.134 145.291 111.686
144.197 145.511 111.86
144.369 145.447 112.238
144.364 145.197 112.221
144.105 144.848 111.552
144.123 145.097 111.525
144.024 144.886 111.386
144.305 145.731 112.013
144.411 145.691 112.24
144.433 145.909 112.169
144.41 144.977 112.219
144.345 144.742 112.021
144.427 144.713 112.18
144.755 144.098 112.944
144.654 144.234 113.129
144.699 144.407 113.018
144.502 144.403 113.28
144.519 144.107 113.206
144.69 143.821 112.89
144.709 144.019 112.755
144.674 144.606 112.912
144.607 144.761 113.113
144.459 143.9 113.149
144.579 143.737 113.002
144.401 143.643 113.068
144.674 144.229 112.641
144.688 144.537 112.728
144.618 144.42 112.546
144.542 144.943 113.258
144.449 144.758 113.321
144.443 145.107 113.377
142.69 144.74 111.414
142.668 144.847 111.618
142.605 144.576 111.562
142.675 144.933 111.815
142.771 145.068 111.692
142.783 144.892 111.286
142.707 144.637 111.219
142.501 144.329 111.492
142.534 144.397 111.693
142.875 145.192 111.608
142.881 145.117 111.382
143.015 145.305 111.523
142.579 144.427 111.156
142.485 144.253 111.304
142.463 144.17 111.094
142.549 144.541 111.877
142.627 144.813 111.943
142.567 144.666 112.073
142.608 144.04 112.882
142.617 143.808 112.901
142.458 143.825 112.775
142.693 143.591 112.876
142.833 143.863 112.929
142.739 144.277 113.004
142.593 144.28 112.863
142.391 143.872 112.584
142.383 143.62 112.637
142.937 144.091 113.051
142.871 144.332 113.102
143.03 144.36 113.166
142.544 144.328 112.699
142.436 144.13 112.539
142.51 144.374 112.516
142.417 143.398 112.66
142.594 143.36 112.813
142.507 143.168 112.678
143.62 146.386 112.292
143.726 146.48 112.137
143.759 146.574 112.378
143.857 146.532 111.974
143.68 146.341 111.928
143.478 146.188 112.232
143.514 146.275 112.446
143.778 146.601 112.662
143.908 146.684 112.517
143.536 146.158 111.886
143.437 146.075 112.039
143.405 145.946 111.837
143.542 146.33 112.66
143.68 146.497 112.793
143.543 146.356 112.888
144.089 146.67 112.378
144.055 146.616 112.07
144.219 146.528 112.243
143.716 145.607 113.759
143.55 145.677 113.814
143.772 145.883 113.84
143.352 145.714 113.744
143.37 145.448 113.73
143.676 145.324 113.676
143.865 145.502 113.672
143.993 146.041 113.889
143.789 146.131 113.833
143.357 145.205 113.685
143.544 145.121 113.65
143.396 144.973 113.516
144.022 145.588 113.671
144.12 145.891 113.817
144.201 145.697 113.685
143.599 146.148 113.684
143.369 145.911 113.648
143.433 146.121 113.484
POLYGONS 1280  5120
3 164 162 163
3 163 44 164
3 162 43 163
3 164 42 162
3 166 165 163
3 163 43 166
3 165 44 163
3 166 14 165
3 168 167 162
3 162 42 168
3 167 43 162
3 168 13 167
3 170 169 164
3 164 44 170
3 169 42 164
3 170 12 169
3 173 171 172
3 172 46 173
3 171 43 172
3 173 45 171
3 167 174 172
3 172 43 167
3 174 46 172
3 167 13 174
3 175 166 171
3 171 45 175
3 166 43 171
3 175 14 166
3 177 176 173
3 173 46 177
3 176 45 173
3 177 4 176
3 180 178 179
3 179 48 180
3 178 42 179
3 180 47 178
3 169 181 179
3 179 42 169
3 181 48 179
3 169 12 181
3 182 168 178
3 178 47 182
3 168 42 178
3 182 13 168
3 184 183 180
3 180 48 184
3 183 47 180
3 184 8 183
3 187 185 186
3 186 50 187
3 185 44 186
3 187 49 185
3 165 188 186
3 186 44 165
3 188 50 186
3 165 14 188
3 189 170 185
3 185 49 189
3 170 44 185
3 189 12 170
3 191 190 187
3 187 50 191
3 190 49 187
3 191 7 190
3 194 192 193
3 193 53 194
3 192 52 193
3 194 51 192
3 196 195 193
3 193 52 196
3 195 53 193
3 196 16 195
3 198 197 192
3 192 51 198
3 197 52 192
3 198 14 197
3 200 199 194
3 194 53 200
3 199 51 194
3 200 15 199
3 203 201 202
3 202 45 203
3 201 52 202
3 203 54 201
3 197 175 202
3 202 52 197
3 175 45 202
3 197 14 175
3 204 196 201
3 201 54 204
3 196 52 201
3 204 16 196
3 176 205 203
3 203 45 176
3 205 54 203
3 176 4 205
3 208 206 207
3 207 55 208
3 206 51 207
3 208 50 206
3 199 209 207
3 207 51 199
3 209 55 207
3 199 15 209
3 188 198 206
3 206 50 188
3 198 51 206
3 188 14 198
3 210 191 208
3 208 55 210
3 191 50 208
3 210 7 191
3 213 211 212
3 212 57 213
3 211 53 212
3 213 56 211
3 195 214 212
3 212 53 195
3 214 57 212
3 195 16 214
3 215 200 211
3 211 56 215
3 200 53 211
3 215 15 200
3 217 216 213
3 213 57 217
3 216 56 213
3 217 9 216
3 220 218 219
3 219 60 220
3 218 59 219
3 220 58 218
3 222 221 219
3 219 59 222
3 221 60 219
3 222 19 221
3 224 223 218
3 218 58 224
3 223 59 218
3 224 18 223
3 226 225 220
3 220 60 226
3 225 58 220
3 226 17 225
3 229 227 228
3 228 62 229
3 227 59 228
3 229 61 227
3 223 230 228
3 228 59 223
3 230 62 228
3 223 18 230
3 231 222 227
3 227 61 231
3 222 59 227
3 231 19 222
3 233 232 229
3 229 62 233
3 232 61 229
3 233 5 232
3 236 234 235
3 235 64 236
3 234 58 235
3 236 63 234
3 225 237 235
3 235 58 225
3 237 64 235
3 225 17 237
3 238 224 234
3 234 63 238
3 224 58 234
3 238 18 224
3 240 239 236
3 236 64 240
3 239 63 236
3 240 6 239
3 243 241 242
3 242 66 243
3 241 60 242
3 243 65 241
3 221 244 242
3 242 60 221
3 244 66 242
3 221 19 244
3 245 226 241
3 241 65 245
3 226 60 241
3 245 17 226
3 247 246 243
3 243 66 247
3 246 65 243
3 247 11 246
3 250 248 249
3 249 69 250
3 248 68 249
3 250 67 248
3 252 251 249
3 249 68 252
3 251 69 249
3 252 18 251
3 254 253 248
3 248 67 254
3 253 68 248
3 254 21 253
3 256 255 250
3 250 69 256
3 255 67 250
3 256 20 255
3 259 257 258
3 258 70 259
3 257 68 258
3 259 62 257
3 253 260 258
3 258 68 253
3 260 70 258
3 253 21 260
3 230 252 257
3 257 62 230
3 252 68 257
3 230 18 252
3 261 233 259
3 259 70 261
3 233 62 259
3 261 5 233
3 264 262 263
3 263 72 264
3 262 67 263
3 264 71 262
3 255 265 263
3 263 67 255
3 265 72 263
3 255 20 265
3 266 254 262
3 262 71 266
3 254 67 262
3 266 21 254
3 268 267 264
3 264 72 268
3 267 71 264
3 268 10 267
3 271 269 270
3 270 63 271
3 269 69 270
3 271 73 269
3 251 238 270
3 270 69 251
3 238 63 270
3 251 18 238
3 272 256 269
3 269 73 272
3 256 69 269
3 272 20 256
3 239 273 271
3 271 63 239
3 273 73 271
3 239 6 273
3 276 274 275
3 275 76 276
3 274 75 275
3 276 74 274
3 278 277 275
3 275 75 278
3 277 76 275
3 278 24 277
3 280 279 274
3 274 74 280
3 279 75 274
3 280 23 279
3 282 281 276
3 276 76 282
3 281 74 276
3 282 22 281
3 285 283 284
3 284 78 285
3 283 75 284
3 285 77 283
3 279 286 284
3 284 75 279
3 286 78 284
3 279 23 286
3 287 278 283
3 283 77 287
3 278 75 283
3 287 24 278
3 289 288 285
3 285 78 289
3 288 77 285
3 289 0 288
3 292 290 291
3 291 80 292
3 290 74 291
3 292 79 290
3 281 293 291
3 291 74 281
3 293 80 291
3 281 22 293
3 294 280 290
3 290 79 294
3 280 74 290
3 294 23 280
3 296 295 292
3 292 80 296
3 295 79 292
3 296 4 295
3 299 297 298
3 298 82 299
3 297 76 298
3 299 81 297
3 277 300 298
3 298 76 277
3 300 82 298
3 277 24 300
3 301 282 297
3 297 81 301
3 282 76 297
3 301 22 282
3 303 302 299
3 299 82 303
3 302 81 299
3 303 3 302
3 306 304 305
3 305 85 306
3 304 84 305
3 306 83 304
3 308 307 305
3 305 84 308
3 307 85 305
3 308 26 307
3 310 309 304
3 304 83 310
3 309 84 304
3 310 24 309
3 312 311 306
3 306 85 312
3 311 83 306
3 312 25 311
3 315 313 314
3 314 77 315
3 313 84 314
3 315 86 313
3 309 287 314
3 314 84 309
3 287 77 314
3 309 24 287
3 316 308 313
3 313 86 316
3 308 84 313
3 316 26 308
3 288 317 315
3 315 77 288
3 317 86 315
3 288 0 317
3 320 318 319
3 319 87 320
3 318 83 319
3 320 82 318
3 311 321 319
3 319 83 311
3 321 87 319
3 311 25 321
3 300 310 318
3 318 82 300
3 310 83 318
3 300 24 310
3 322 303 320
3 320 87 322
3 303 82 320
3 322 3 303
3 325 323 324
3 324 89 325
3 323 85 324
3 325 88 323
3 307 326 324
3 324 85 307
3 326 89 324
3 307 26 326
3 327 312 323
3 323 88 327
3 312 85 323
3 327 25 312
3 329 328 325
3 325 89 329
3 328 88 325
3 329 5 328
3 332 330 331
3 331 92 332
3 330 91 331
3 332 90 330
3 334 333 331
3 331 91 334
3 333 92 331
3 334 29 333
3 336 335 330
3 330 90 336
3 335 91 330
3 336 28 335
3 338 337 332
3 332 92 338
3 337 90 332
3 338 27 337
3 341 339 340
3 340 94 341
3 339 91 340
3 341 93 339
3 335 342 340
3 340 91 335
3 342 94 340
3 335 28 342
3 343 334 339
3 339 93 343
3 334 91 339
3 343 29 334
3 345 344 341
3 341 94 345
3 344 93 341
3 345 2 344
3 348 346 347
3 347 96 348
3 346 90 347
3 348 95 346
3 337 349 347
3 347 90 337
3 349 96 347
3 337 27 349
3 350 336 346
3 346 95 350
3 336 90 346
3 350 28 336
3 352 351 348
3 348 96 352
3 351 95 348
3 352 7 351
3 355 353 354
3 354 98 355
3 353 92 354
3 355 97 353
3 333 356 354
3 354 92 333
3 356 98 354
3 333 29 356
3 357 338 353
3 353 97 357
3 338 92 353
3 357 27 338
3 359 358 355
3 355 98 359
3 358 97 355
3 359 1 358
3 362 360 361
3 361 101 362
3 360 100 361
3 362 99 360
3 364 363 361
3 361 100 364
3 363 101 361
3 364 31 363
3 366 365 360
3 360 99 366
3 365 100 360
3 366 29 365
3 368 367 362
3 362 101 368
3 367 99 362
3 368 30 367
3 371 369 370
3 370 93 371
3 369 100 370
3 371 102 369
3 365 343 370
3 370 100 365
3 343 93 370
3 365 29 343
3 372 364 369
3 369 102 372
3 364 100 369
3 372 31 364
3 344 373 371
3 371 93 344
3 373 102 371
3 344 2 373
3 376 374 375
3 375 103 376
3 374 99 375
3 376 98 374
3 367 377 375
3 375 99 367
3 377 103 375
3 367 30 377
3 356 366 374
3 374 98 356
3 366 99 374
3 356 29 366
3 378 359 376
3 376 103 378
3 359 98 376
3 378 1 359
3 381 379 380
3 380 105 381
3 379 101 380
3 381 104 379
3 363 382 380
3 380 101 363
3 382 105 380
3 363 31 382
3 383 368 379
3 379 104 383
3 368 101 379
3 383 30 368
3 385 384 381
3 381 105 385
3 384 104 381
3 385 6 384
3 388 386 387
3 387 108 388
3 386 107 387
3 388 106 386
3 390 389 387
3 387 107 390
3 389 108 387
3 390 34 389
3 392 391 386
3 386 106 392
3 391 107 386
3 392 33 391
3 394 393 388
3 388 108 394
3 393 106 388
3 394 32 393
3 397 395 396
3 396 110 397
3 395 107 396
3 397 109 395
3 391 398 396
3 396 107 391
3 398 110 396
3 391 33 398
3 399 390 395
3 395 109 399
3 390 107 395
3 399 34 390
3 401 400 397
3 397 110 401
3 400 109 397
3 401 8 400
3 404 402 403
3 403 112 404
3 402 106 403
3 404 111 402
3 393 405 403
3 403 106 393
3 405 112 403
3 393 32 405
3 406 392 402
3 402 111 406
3 392 106 402
3 406 33 392
3 408 407 404
3 404 112 408
3 407 111 404
3 408 0 407
3 411 409 410
3 410 114 411
3 409 108 410
3 411 113 409
3 389 412 410
3 410 108 389
3 412 114 410
3 389 34 412
3 413 394 409
3 409 113 413
3 394 108 409
3 413 32 394
3 415 414 411
3 411 114 415
3 414 113 411
3 415 11 414
3 418 416 417
3 417 117 418
3 416 116 417
3 418 115 416
3 420 419 417
3 417 116 420
3 419 117 417
3 420 36 419
3 422 421 416
3 416 115 422
3 421 116 416
3 422 34 421
3 424 423 418
3 418 117 424
3 423 115 418
3 424 35 423
3 427 425 426
3 426 109 427
3 425 116 426
3 427 118 425
3 421 399 426
3 426 116 421
3 399 109 426
3 421 34 399
3 428 420 425
3 425 118 428
3 420 116 425
3 428 36 420
3 400 429 427
3 427 109 400
3 429 118 427
3 400 8 429
3 432 430 431
3 431 119 432
3 430 115 431
3 432 114 430
3 423 433 431
3 431 115 423
3 433 119 431
3 423 35 433
3 412 422 430
3 430 114 412
3 422 115 430
3 412 34 422
3 434 415 432
3 432 119 434
3 415 114 432
3 434 11 415
3 437 435 436
3 436 121 437
3 435 117 436
3 437 120 435
3 419 438 436
3 436 117 419
3 438 121 436
3 419 36 438
3 439 424 435
3 435 120 439
3 424 117 435
3 439 35 424
3 441 440 437
3 437 121 441
3 440 120 437
3 441 1 440
3 444 442 443
3 443 124 444
3 442 123 443
3 444 122 442
3 446 445 443
3 443 123 446
3 445 124 443
3 446 39 445
3 448 447 442
3 442 122 448
3 447 123 442
3 448 38 447
3 450 449 444
3 444 124 450
3 449 122 444
3 450 37 449
3 453 451 452
3 452 126 453
3 451 123 452
3 453 125 451
3 447 454 452
3 452 123 447
3 454 126 452
3 447 38 454
3 455 446 451
3 451 125 455
3 446 123 451
3 455 39 446
3 457 456 453
3 453 126 457
3 456 125 453
3 457 9 456
3 460 458 459
3 459 128 460
3 458 122 459
3 460 127 458
3 449 461 459
3 459 122 449
3 461 128 459
3 449 37 461
3 462 448 458
3 458 127 462
3 448 122 458
3 462 38 448
3 464 463 460
3 460 128 464
3 463 127 460
3 464 10 463
3 467 465 466
3 466 130 467
3 465 124 466
3 467 129 465
3 445 468 466
3 466 124 445
3 468 130 466
3 445 39 468
3 469 450 465
3 465 129 469
3 450 124 465
3 469 37 450
3 471 470 467
3 467 130 471
3 470 129 467
3 471 3 470
3 474 472 473
3 473 133 474
3 472 132 473
3 474 131 472
3 476 475 473
3 473 132 476
3 475 133 473
3 476 38 475
3 478 477 472
3 472 131 478
3 477 132 472
3 478 41 477
3 480 479 474
3 474 133 480
3 479 131 474
3 480 40 479
3 483 481 482
3 482 134 483
3 481 132 482
3 483 126 481
3 477 484 482
3 482 132 477
3 484 134 482
3 477 41 484
3 454 476 481
3 481 126 454
3 476 132 481
3 454 38 476
3 485 457 483
3 483 134 485
3 457 126 483
3 485 9 457
3 488 486 487
3 487 136 488
3 486 131 487
3 488 135 486
3 479 489 487
3 487 131 479
3 489 136 487
3 479 40 489
3 490 478 486
3 486 135 490
3 478 131 486
3 490 41 478
3 492 491 488
3 488 136 492
3 491 135 488
3 492 2 491
3 495 493 494
3 494 127 495
3 493 133 494
3 495 137 493
3 475 462 494
3 494 133 475
3 462 127 494
3 475 38 462
3 496 480 493
3 493 137 496
3 480 133 493
3 496 40 480
3 463 497 495
3 495 127 463
3 497 137 495
3 463 10 497
3 500 498 499
3 499 140 500
3 498 139 499
3 500 138 498
3 502 501 499
3 499 139 502
3 501 140 499
3 502 33 501
3 504 503 498
3 498 138 504
3 503 139 498
3 504 13 503
3 506 505 500
3 500 140 506
3 505 138 500
3 506 23 505
3 509 507 508
3 508 47 509
3 507 139 508
3 509 110 507
3 503 182 508
3 508 139 503
3 182 47 508
3 503 13 182
3 398 502 507
3 507 110 398
3 502 139 507
3 398 33 502
3 183 401 509
3 509 47 183
3 401 110 509
3 183 8 401
3 512 510 511
3 511 79 512
3 510 138 511
3 512 46 510
3 505 294 511
3 511 138 505
3 294 79 511
3 505 23 294
3 174 504 510
3 510 46 174
3 504 138 510
3 174 13 504
3 295 177 512
3 512 79 295
3 177 46 512
3 295 4 177
3 515 513 514
3 514 111 515
3 513 140 514
3 515 78 513
3 501 406 514
3 514 140 501
3 406 111 514
3 501 33 406
3 286 506 513
3 513 78 286
3 506 140 513
3 286 23 506
3 407 289 515
3 515 111 407
3 289 78 515
3 407 0 289
3 518 516 517
3 517 143 518
3 516 142 517
3 518 141 516
3 520 519 517
3 517 142 520
3 519 143 517
3 520 19 519
3 522 521 516
3 516 141 522
3 521 142 516
3 522 32 521
3 524 523 518
3 518 143 524
3 523 141 518
3 524 26 523
3 527 525 526
3 526 113 527
3 525 142 526
3 527 66 525
3 521 413 526
3 526 142 521
3 413 113 526
3 521 32 413
3 244 520 525
3 525 66 244
3 520 142 525
3 244 19 520
3 414 247 527
3 527 113 414
3 247 66 527
3 414 11 247
3 530 528 529
3 529 86 530
3 528 141 529
3 530 112 528
3 523 316 529
3 529 141 523
3 316 86 529
3 523 26 316
3 405 522 528
3 528 112 405
3 522 141 528
3 405 32 522
3 317 408 530
3 530 86 317
3 408 112 530
3 317 0 408
3 533 531 532
3 532 61 533
3 531 143 532
3 533 89 531
3 519 231 532
3 532 143 519
3 231 61 532
3 519 19 231
3 326 524 531
3 531 89 326
3 524 143 531
3 326 26 524
3 232 329 533
3 533 61 232
3 329 89 533
3 232 5 329
3 536 534 535
3 535 146 536
3 534 145 535
3 536 144 534
3 538 537 535
3 535 145 538
3 537 146 535
3 538 22 537
3 540 539 534
3 534 144 540
3 539 145 534
3 540 16 539
3 542 541 536
3 536 146 542
3 541 144 536
3 542 39 541
3 545 543 544
3 544 54 545
3 543 145 544
3 545 80 543
3 539 204 544
3 544 145 539
3 204 54 544
3 539 16 204
3 293 538 543
3 543 80 293
3 538 145 543
3 293 22 538
3 205 296 545
3 545 54 205
3 296 80 545
3 205 4 296
3 548 546 547
3 547 125 548
3 546 144 547
3 548 57 546
3 541 455 547
3 547 144 541
3 455 125 547
3 541 39 455
3 214 540 546
3 546 57 214
3 540 144 546
3 214 16 540
3 456 217 548
3 548 125 456
3 217 57 548
3 456 9 217
3 551 549 550
3 550 81 551
3 549 146 550
3 551 130 549
3 537 301 550
3 550 146 537
3 301 81 550
3 537 22 301
3 468 542 549
3 549 130 468
3 542 146 549
3 468 39 542
3 302 471 551
3 551 81 302
3 471 130 551
3 302 3 471
3 554 552 553
3 553 149 554
3 552 148 553
3 554 147 552
3 556 555 553
3 553 148 556
3 555 149 553
3 556 21 555
3 558 557 552
3 552 147 558
3 557 148 552
3 558 25 557
3 560 559 554
3 554 149 560
3 559 147 554
3 560 37 559
3 563 561 562
3 562 88 563
3 561 148 562
3 563 70 561
3 557 327 562
3 562 148 557
3 327 88 562
3 557 25 327
3 260 556 561
3 561 70 260
3 556 148 561
3 260 21 556
3 328 261 563
3 563 88 328
3 261 70 563
3 328 5 261
3 566 564 565
3 565 129 566
3 564 147 565
3 566 87 564
3 559 469 565
3 565 147 559
3 469 129 565
3 559 37 469
3 321 558 564
3 564 87 321
3 558 147 564
3 321 25 558
3 470 322 566
3 566 129 470
3 322 87 566
3 470 3 322
3 569 567 568
3 568 71 569
3 567 149 568
3 569 128 567
3 555 266 568
3 568 149 555
3 266 71 568
3 555 21 266
3 461 560 567
3 567 128 461
3 560 149 567
3 461 37 560
3 267 464 569
3 569 71 267
3 464 128 569
3 267 10 464
3 572 570 571
3 571 152 572
3 570 151 571
3 572 150 570
3 574 573 571
3 571 151 574
3 573 152 571
3 574 27 573
3 576 575 570
3 570 150 576
3 575 151 570
3 576 12 575
3 578 577 572
3 572 152 578
3 577 150 572
3 578 36 577
3 581 579 580
3 580 49 581
3 579 151 580
3 581 96 579
3 575 189 580
3 580 151 575
3 189 49 580
3 575 12 189
3 349 574 579
3 579 96 349
3 574 151 579
3 349 27 574
3 190 352 581
3 581 49 190
3 352 96 581
3 190 7 352
3 584 582 583
3 583 118 584
3 582 150 583
3 584 48 582
3 577 428 583
3 583 150 577
3 428 118 583
3 577 36 428
3 181 576 582
3 582 48 181
3 576 150 582
3 181 12 576
3 429 184 584
3 584 118 429
3 184 48 584
3 429 8 184
3 587 585 586
3 586 97 587
3 585 152 586
3 587 121 585
3 573 357 586
3 586 152 573
3 357 97 586
3 573 27 357
3 438 578 585
3 585 121 438
3 578 152 585
3 438 36 578
3 358 441 587
3 587 97 358
3 441 121 587
3 358 1 441
3 590 588 589
3 589 155 590
3 588 154 589
3 590 153 588
3 592 591 589
3 589 154 592
3 591 155 589
3 592 17 591
3 594 593 588
3 588 153 594
3 593 154 588
3 594 30 593
3 596 595 590
3 590 155 596
3 595 153 590
3 596 35 595
3 599 597 598
3 598 104 599
3 597 154 598
3 599 64 597
3 593 383 598
3 598 154 593
3 383 104 598
3 593 30 383
3 237 592 597
3 597 64 237
3 592 154 597
3 237 17 592
3 384 240 599
3 599 104 384
3 240 64 599
3 384 6 240
3 602 600 601
3 601 120 602
3 600 153 601
3 602 103 600
3 595 439 601
3 601 153 595
3 439 120 601
3 595 35 439
3 377 594 600
3 600 103 377
3 594 153 600
3 377 30 594
3 440 378 602
3 602 120 440
3 378 103 602
3 440 1 378
3 605 603 604
3 604 65 605
3 603 155 604
3 605 119 603
3 591 245 604
3 604 155 591
3 245 65 604
3 591 17 245
3 433 596 603
3 603 119 433
3 596 155 603
3 433 35 596
3 246 434 605
3 605 65 246
3 434 119 605
3 246 11 434
3 608 606 607
3 607 158 608
3 606 157 607
3 608 156 606
3 610 609 607
3 607 157 610
3 609 158 607
3 610 15 609
3 612 611 606
3 606 156 612
3 611 157 606
3 612 28 611
3 614 613 608
3 608 158 614
3 613 156 608
3 614 41 613
3 617 615 616
3 616 95 617
3 615 157 616
3 617 55 615
3 611 350 616
3 616 157 611
3 350 95 616
3 611 28 350
3 209 610 615
3 615 55 209
3 610 157 615
3 209 15 610
3 351 210 617
3 617 95 351
3 210 55 617
3 351 7 210
3 620 618 619
3 619 135 620
3 618 156 619
3 620 94 618
3 613 490 619
3 619 156 613
3 490 135 619
3 613 41 490
3 342 612 618
3 618 94 342
3 612 156 618
3 342 28 612
3 491 345 620
3 620 135 491
3 345 94 620
3 491 2 345
3 623 621 622
3 622 56 623
3 621 158 622
3 623 134 621
3 609 215 622
3 622 158 609
3 215 56 622
3 609 15 215
3 484 614 621
3 621 134 484
3 614 158 621
3 484 41 614
3 216 485 623
3 623 56 216
3 485 134 623
3 216 9 485
3 626 624 625
3 625 161 626
3 624 160 625
3 626 159 624
3 628 627 625
3 625 160 628
3 627 161 625
3 628 31 627
3 630 629 624
3 624 159 630
3 629 160 624
3 630 20 629
3 632 631 626
3 626 161 632
3 631 159 626
3 632 40 631
3 635 633 634
3 634 73 635
3 633 160 634
3 635 105 633
3 629 272 634
3 634 160 629
3 272 73 634
3 629 20 272
3 382 628 633
3 633 105 382
3 628 160 633
3 382 31 628
3 273 385 635
3 635 73 273
3 385 105 635
3 273 6 385
3 638 636 637
3 637 137 638
3 636 159 637
3 638 72 636
3 631 496 637
3 637 159 631
3 496 137 637
3 631 40 496
3 265 630 636
3 636 72 265
3 630 159 636
3 265 20 630
3 497 268 638
3 638 137 497
3 268 72 638
3 497 10 268
3 641 639 640
3 640 102 641
3 639 161 640
3 641 136 639
3 627 372 640
3 640 161 627
3 372 102 640
3 627 31 372
3 489 632 639
3 639 136 489
3 632 161 639
3 489 40 632
3 373 492 641
3 641 102 373
3 492 136 641
3 373 2 492
