# vtk DataFile Version 3.0
this file was written using fslvtkio
ASCII
DATASET POLYDATA
POINTS 642 float
134.718 140.439 128.297
129.859 137.56 129.834
132.018 136.095 128.766
135.834 138.317 128.276
136.223 138.829 130.102
132.835 138.411 126.504
129.879 136.879 126.726
133.52 137.345 130.864
133.172 139.165 130.052
135.527 136.392 129.312
133.306 136.745 127.545
130.922 139.313 127.383
133.284 138.449 131.118
134.96 139.599 130.683
135.293 138.064 131.098
134.711 136.52 130.456
136.97 137.417 130.228
129.607 138.21 126.722
131.164 137.647 125.95
131.435 139.125 126.436
131.659 136.615 126.911
132.835 137.528 127.06
137.011 138.761 129.153
135.961 140.151 129.474
135.511 139.553 128.24
134.288 138.518 127.545
133.643 139.398 127.374
131.699 137.516 130.414
132.7 136.616 129.962
130.666 136.671 129.393
129.19 137.071 128.203
131.058 136.584 128.002
132.643 139.95 127.877
134.041 139.998 129.293
132.023 139.383 128.857
130.096 138.469 128.44
131.581 138.507 130.086
134.628 137.357 127.867
134.5 136.545 128.378
136.487 137.467 128.788
132.467 135.9 127.977
133.721 136.124 129.304
134.221 139.095 131.063
135.139 138.915 130.968
134.253 138.386 131.12
136.01 138.506 130.751
135.734 139.305 130.515
133.999 139.456 130.458
133.253 138.821 130.608
133.459 137.861 131.056
134.361 137.679 131.07
135.137 137.262 131.047
136.097 137.677 130.809
135.892 136.891 130.612
136.784 138.179 130.222
134.041 137.022 130.903
135.178 136.302 129.788
136.361 136.91 129.782
130.31 137.962 126.239
131.189 138.405 126.195
130.473 138.745 126.254
132.174 138.652 126.596
131.997 138.121 126.162
130.312 137.14 126.227
129.61 137.39 126.637
130.161 138.965 126.878
131.105 139.234 126.844
132.259 136.975 126.837
131.925 137.55 126.505
131.275 137.02 126.496
132.608 138.041 126.851
133.066 137.135 127.327
132.517 136.663 127.221
130.713 136.666 126.742
136.637 139.578 129.19
136.042 139.999 128.671
136.496 139.403 128.602
135.259 140.271 128.106
135.408 140.49 128.847
136.218 139.55 129.911
136.84 138.807 129.67
136.486 138.65 128.656
135.736 138.878 128.342
134.867 139.084 128.021
134.644 139.728 127.739
134.255 139.024 127.182
134.241 140.023 127.77
135.093 138.369 127.941
133.514 138.536 127.215
133.22 138.851 126.863
132.147 137.005 130.222
131.678 136.678 129.647
131.023 137.094 129.951
131.466 136.434 129.114
132.332 136.435 129.305
133.142 136.971 130.489
132.757 137.417 130.647
130.588 137.476 130.328
129.953 136.98 129.735
129.657 136.658 128.985
130.893 136.75 128.705
129.828 136.671 128.123
131.574 136.265 128.456
129.418 137.313 129.115
129.413 137.015 127.318
130.225 136.58 127.292
133.417 139.98 128.606
133.02 139.621 129.036
132.4 139.726 128.415
132.652 139.259 129.471
133.606 139.557 129.69
134.423 140.378 128.804
133.715 139.958 128.165
131.73 139.628 127.588
131.387 139.382 128.129
131.023 138.955 128.69
131.769 138.876 129.366
130.789 138.515 129.339
132.448 138.946 130.12
130.438 138.984 127.799
129.996 137.963 129.173
130.694 138.033 130.064
134.704 137.015 128.153
135.441 136.963 128.628
135.523 137.479 128.424
136.167 136.994 128.986
135.096 136.213 128.71
133.856 136.636 127.921
134.002 136.99 127.687
135.245 137.758 128.022
136.224 138.02 128.716
133.045 135.966 128.566
134.124 136.208 128.819
133.508 136.238 128.113
134.723 136.02 129.25
132.735 136.132 129.042
131.985 135.603 128.362
132.946 136.418 127.719
135.539 139.986 130.159
134.589 139.996 130.083
135.144 140.45 129.553
133.024 139.412 127.704
132.007 139.65 127.034
132.456 139.052 127.068
137.277 137.33 129.241
137.663 138.067 129.668
137.307 138.048 128.833
134.393 137.901 127.647
133.537 138.017 127.388
133.723 137.457 127.481
132.401 138.434 130.579
132.478 137.929 130.887
131.45 137.992 130.603
129.457 137.842 128.272
129.277 137.653 127.355
129.596 138.422 127.494
133.204 136.251 129.68
133.625 136.504 130.311
134.18 136.158 129.767
132.107 136.192 127.436
131.199 136.278 127.266
131.661 135.808 127.842
134.673 138.951 130.988
134.717 138.631 131.102
134.244 138.743 131.197
134.739 138.289 131.124
135.14 138.512 130.961
135.052 139.247 130.818
134.611 139.371 130.923
133.795 138.771 131.106
133.806 138.444 131.209
135.575 138.745 130.841
135.446 139.168 130.702
135.846 138.926 130.637
135.378 139.508 130.597
135.738 138.282 131.01
136.134 138.707 130.391
135.987 139.059 130.27
134.134 139.29 130.772
133.75 138.983 130.859
133.689 139.136 130.57
133.304 138.706 130.936
134.479 139.6 130.638
133.579 139.262 130.255
133.246 138.97 130.306
133.853 138.127 131.063
134.315 138.069 131.086
133.881 137.859 131.043
134.785 137.857 131.132
133.313 138.165 131.179
133.458 137.611 131.004
133.88 137.52 130.937
135.652 137.481 131.01
136.024 137.297 130.786
135.525 137.05 130.881
136.335 137.174 130.387
136.471 137.559 130.495
135.717 137.82 131.073
135.26 137.637 131.092
134.935 136.9 130.75
135.243 136.659 130.61
136.433 137.902 130.477
136.146 138.03 130.907
136.29 138.284 130.462
136.865 137.769 130.22
136.458 138.538 130.185
134.711 137.512 131.137
134.58 137.131 130.973
134.223 137.376 130.978
134.381 136.801 130.715
133.766 137.26 130.785
135.629 136.481 130.331
136.226 136.789 130.227
135.787 136.601 129.854
136.758 137.058 130.078
134.932 136.35 130.137
135.399 136.3 129.586
135.904 136.619 129.533
130.746 138.195 126.194
130.755 138.557 126.205
130.303 138.328 126.21
130.967 138.892 126.359
131.284 138.772 126.25
131.188 138.063 125.977
130.72 137.833 126.09
129.898 138.074 126.381
130.024 138.527 126.396
131.691 138.586 126.329
131.642 138.268 126.078
132.138 138.44 126.344
131.603 137.9 125.937
131.783 138.834 126.501
132.569 138.53 126.531
132.384 138.282 126.416
130.269 137.62 126.201
129.961 137.676 126.407
129.891 137.341 126.432
129.584 137.774 126.677
130.691 137.433 126.133
130.07 136.987 126.523
129.575 137.07 126.637
130.241 138.92 126.513
130.75 139.005 126.583
130.619 139.157 126.798
131.212 139.218 126.628
129.826 138.627 126.738
130.59 139.148 127.16
130.992 139.291 127.099
132.089 137.247 126.685
131.599 137.262 126.455
131.763 136.972 126.645
131.135 137.322 126.306
131.584 137.558 126.218
132.396 137.518 126.783
132.565 137.229 126.892
131.934 136.768 126.831
131.469 136.729 126.681
131.876 137.826 126.344
132.229 137.792 126.641
132.251 138.019 126.484
132.701 137.835 126.971
132.679 138.241 126.635
132.643 137.066 127.105
132.349 136.848 127.071
132.773 136.915 127.228
132.066 136.653 127.096
132.942 137.317 127.159
133.236 136.942 127.436
132.95 136.756 127.458
130.975 136.765 126.539
130.759 137.054 126.335
130.487 136.857 126.464
131.18 136.572 126.811
130.222 136.732 126.699
136.362 139.863 128.87
136.275 139.803 128.518
136.675 139.609 128.834
135.995 139.511 128.302
135.847 139.799 128.374
136.041 140.022 129.029
136.301 139.87 129.307
136.865 139.205 129.131
136.848 139.184 128.819
135.584 139.998 128.422
135.737 140.213 128.766
135.373 140.337 128.432
135.677 140.248 129.171
135.375 139.836 128.209
134.988 140.382 128.161
135.109 140.536 128.529
136.538 139.546 129.559
136.772 139.186 129.457
136.575 139.176 129.754
137.11 138.789 129.378
136.11 139.879 129.718
136.178 139.126 129.98
136.457 138.8 129.874
136.579 138.947 128.601
136.108 139.133 128.455
136.197 138.778 128.444
135.651 139.181 128.302
136.805 138.759 128.946
136.138 138.488 128.528
135.812 138.586 128.245
134.715 139.405 127.965
134.523 139.431 127.409
134.546 139.111 127.641
134.01 139.326 127.117
134.282 139.718 127.308
135.001 139.581 128.142
135.224 139.28 128.125
134.56 138.836 127.776
134.229 138.805 127.509
134.52 140.03 127.562
134.966 139.991 127.91
134.792 140.299 127.845
133.954 139.7 127.609
134.501 140.226 128.031
135.369 138.928 128.11
135.045 138.706 127.92
135.418 138.595 128.156
134.666 138.438 127.716
135.422 138.348 128.11
133.954 138.748 127.166
133.761 138.981 126.993
133.522 138.691 126.891
133.393 139.138 127.092
133.894 138.551 127.409
133.191 138.453 126.837
133.071 138.614 126.546
131.88 136.821 129.958
131.384 136.895 129.726
131.59 137.022 130.056
130.824 136.899 129.676
131.227 136.747 129.461
132.208 136.644 129.816
132.428 136.807 130.137
131.907 137.311 130.249
131.35 137.341 130.143
131.513 136.611 129.344
131.97 136.514 129.514
131.841 136.413 129.219
132.507 136.545 129.608
131.092 136.628 129.195
131.784 136.286 128.951
132.152 136.232 129.088
132.666 136.967 130.385
132.415 137.176 130.433
132.928 137.155 130.628
132.209 137.456 130.546
132.94 136.764 130.243
133.344 137.186 130.727
133.177 137.349 130.849
130.687 137.233 130.221
130.419 136.978 129.952
130.263 137.249 130.038
130.192 136.775 129.62
131.045 137.474 130.477
130.196 137.547 130.132
129.823 137.262 129.857
130.163 136.552 128.868
130.401 136.689 128.463
129.705 136.62 128.549
130.634 136.691 128.019
131.063 136.726 128.326
130.736 136.672 129.047
130.086 136.61 129.298
129.242 136.757 128.62
129.467 136.814 128.173
131.285 136.605 128.547
131.18 136.604 128.873
131.446 136.284 128.787
131.326 136.491 128.24
131.77 136.143 128.641
129.672 136.756 129.424
129.311 136.872 129.101
129.488 137.036 129.569
129.125 137.154 128.666
129.548 137.43 129.524
129.576 136.808 127.698
130.136 136.672 127.685
129.754 136.742 127.276
130.66 136.598 127.713
129.296 137.052 127.76
129.544 136.919 126.955
129.911 136.659 126.93
133.24 139.766 128.818
132.706 139.7 128.754
132.909 139.798 128.522
132.195 139.667 128.637
132.491 139.586 128.975
133.562 139.763 129.177
133.776 140.063 128.981
133.046 139.937 128.256
132.531 139.875 128.119
132.824 139.485 129.265
133.335 139.551 129.383
133.06 139.354 129.558
133.861 139.765 129.522
132.341 139.292 129.166
132.917 139.189 129.78
133.387 139.33 129.913
133.964 140.196 128.718
133.588 140.083 128.353
134.115 140.164 128.473
133.199 139.991 128.022
134.239 140.213 129.047
134.573 140.433 128.533
134.217 140.188 128.239
132.009 139.667 128.009
131.88 139.611 128.253
131.611 139.543 127.854
131.657 139.409 128.514
132.181 139.817 127.7
131.308 139.479 127.461
131.133 139.332 127.743
131.399 138.973 129.053
131.302 138.746 129.384
130.898 138.724 128.968
131.178 138.531 129.771
131.679 138.677 129.745
131.882 139.101 129.104
131.505 139.199 128.769
130.541 138.711 128.56
130.469 138.48 128.865
132.1 138.868 129.774
132.202 139.008 129.42
132.531 139.062 129.781
132.03 138.692 130.139
132.863 138.987 130.049
131.172 139.202 128.4
130.706 138.988 128.253
130.916 139.221 127.994
130.266 138.711 128.113
130.676 139.165 127.579
130.338 138.279 129.23
130.696 138.32 129.713
130.252 138.055 129.652
131.114 138.302 130.082
130.063 138.176 128.758
129.849 137.758 129.553
130.188 137.82 129.988
135.04 136.99 128.461
135.535 137.24 128.596
135.103 137.282 128.262
136 137.524 128.708
136 137.31 128.857
134.898 136.684 128.43
134.592 136.741 128.239
134.734 137.193 127.966
135.062 137.366 128.029
135.904 137.006 128.859
135.228 136.673 128.685
135.61 136.676 128.911
134.731 136.365 128.405
136.461 137.227 128.891
135.854 136.697 129.126
135.325 136.287 129.104
134.302 136.747 127.957
134.379 136.988 127.895
134.024 136.835 127.791
134.323 137.193 127.79
134.175 136.528 128.077
133.572 136.738 127.784
133.639 136.824 127.583
135.404 137.6 128.218
135.929 137.692 128.636
135.751 137.886 128.483
136.462 137.748 128.767
134.963 137.534 127.931
135.552 138.05 128.21
135.981 138.198 128.537
133.564 136.177 128.803
133.835 136.272 128.515
133.276 136.069 128.311
134.039 136.373 128.254
134.279 136.335 128.492
133.868 136.156 129.112
133.37 136.203 129.081
132.712 135.953 128.242
132.983 136.144 128.054
134.607 136.132 128.653
134.426 136.064 128.973
134.896 136.048 129.01
134.252 136.115 129.266
135.157 136.127 129.328
132.891 136.033 128.898
132.554 135.778 128.429
132.38 135.886 128.724
132.207 135.709 128.132
133.234 136.215 129.171
132.349 136.048 128.935
131.995 135.836 128.63
133.197 136.333 127.968
133.714 136.402 128.013
133.39 136.562 127.882
132.69 136.178 127.844
133.16 136.59 127.666
135.061 140.04 130.18
134.903 140.295 129.859
135.405 140.37 129.92
134.583 140.23 129.452
134.337 140.013 129.668
134.754 139.834 130.419
135.255 139.784 130.422
135.763 140.118 129.836
135.546 140.355 129.528
134.083 139.741 129.865
134.292 139.704 130.257
133.839 139.527 130.052
135.707 139.698 130.374
135.874 139.802 130.069
135.973 139.417 130.194
135.299 140.507 129.236
134.801 140.419 129.177
134.978 140.543 128.854
132.505 139.624 127.361
132.192 139.382 126.982
132.709 139.248 127.392
131.962 139.125 126.658
131.705 139.42 126.679
132.321 139.837 127.483
132.844 139.851 127.704
133.254 139.376 127.595
132.98 139.136 127.335
131.557 139.427 126.922
131.89 139.66 127.287
131.434 139.397 127.206
133.362 139.742 127.889
133.571 139.553 127.826
133.921 139.907 127.969
132.784 138.967 127.03
132.348 138.899 126.752
132.708 138.805 126.668
137.778 137.632 129.493
137.754 138.034 129.138
137.584 137.654 128.885
137.294 138.355 129.055
137.508 138.382 129.322
137.401 137.705 129.968
137.271 137.308 129.792
136.965 137.447 128.867
136.978 137.756 128.766
137.471 138.403 129.761
137.331 138.096 130.031
136.883 138.434 129.961
136.914 137.05 129.583
136.761 137.172 129.156
136.375 136.897 129.351
136.764 138.048 128.783
136.868 138.333 128.861
136.358 138.293 128.747
133.963 137.944 127.55
133.572 137.765 127.449
134.086 137.618 127.529
133.229 137.55 127.311
133.189 137.761 127.176
133.933 138.246 127.443
134.318 138.214 127.595
134.532 137.595 127.748
134.225 137.383 127.614
133.097 138.036 127.168
133.47 138.301 127.322
133.032 138.3 127.113
134.721 138.131 127.763
134.821 137.835 127.807
135.133 138.041 127.906
133.886 137.217 127.494
133.326 137.305 127.443
133.515 137.044 127.477
132.386 138.184 130.8
131.93 137.958 130.765
131.983 138.216 130.546
131.454 137.712 130.673
132.07 137.705 130.726
132.916 138.2 130.915
132.897 138.441 130.887
132.043 138.448 130.357
131.565 138.237 130.344
132.591 137.66 130.84
132.955 137.897 130.947
133.068 137.619 130.904
132.85 138.685 130.662
132.439 138.673 130.283
132.857 138.827 130.286
131.076 138.044 130.381
130.994 137.734 130.569
130.649 137.761 130.257
129.359 137.76 127.826
129.354 138.033 127.375
129.538 138.092 127.872
129.511 138.317 127.035
129.411 137.926 126.992
129.265 137.361 127.794
129.24 137.489 128.246
129.759 138.15 128.331
129.848 138.414 127.988
129.334 137.541 126.981
129.226 137.296 127.306
129.414 137.171 126.952
129.375 137.555 128.685
129.717 137.887 128.711
129.606 137.644 129.147
130.032 138.712 127.649
129.814 138.711 127.132
130.271 138.964 127.341
133.338 136.306 130.035
133.847 136.221 130.176
133.643 136.13 129.764
134.437 136.24 130.125
134.12 136.456 130.486
133.147 136.466 130.212
132.855 136.356 129.992
133.481 136.194 129.459
133.944 136.122 129.538
133.838 136.697 130.708
133.428 136.665 130.418
133.614 136.928 130.693
132.666 136.292 129.57
132.947 136.245 129.329
132.544 136.243 129.228
134.447 136.075 129.534
134.628 136.188 129.856
134.933 136.131 129.588
131.689 136.219 127.415
131.556 136.121 127.608
131.904 135.993 127.592
131.305 136.187 127.934
131.092 136.34 127.62
131.433 136.393 126.997
131.889 136.431 127.172
132.307 136.043 127.71
132.035 135.701 127.823
130.727 136.416 127.258
130.934 136.393 126.923
130.451 136.525 126.97
132.261 136.438 127.31
132.508 136.351 127.583
132.739 136.571 127.505
131.79 135.594 128.08
131.589 136.017 128.167
131.735 135.828 128.386
POLYGONS 1280  5120
3 164 162 163
3 163 44 164
3 162 43 163
3 164 42 162
3 166 165 163
3 163 43 166
3 165 44 163
3 166 14 165
3 168 167 162
3 162 42 168
3 167 43 162
3 168 13 167
3 170 169 164
3 164 44 170
3 169 42 164
3 170 12 169
3 173 171 172
3 172 46 173
3 171 43 172
3 173 45 171
3 167 174 172
3 172 43 167
3 174 46 172
3 167 13 174
3 175 166 171
3 171 45 175
3 166 43 171
3 175 14 166
3 177 176 173
3 173 46 177
3 176 45 173
3 177 4 176
3 180 178 179
3 179 48 180
3 178 42 179
3 180 47 178
3 169 181 179
3 179 42 169
3 181 48 179
3 169 12 181
3 182 168 178
3 178 47 182
3 168 42 178
3 182 13 168
3 184 183 180
3 180 48 184
3 183 47 180
3 184 8 183
3 187 185 186
3 186 50 187
3 185 44 186
3 187 49 185
3 165 188 186
3 186 44 165
3 188 50 186
3 165 14 188
3 189 170 185
3 185 49 189
3 170 44 185
3 189 12 170
3 191 190 187
3 187 50 191
3 190 49 187
3 191 7 190
3 194 192 193
3 193 53 194
3 192 52 193
3 194 51 192
3 196 195 193
3 193 52 196
3 195 53 193
3 196 16 195
3 198 197 192
3 192 51 198
3 197 52 192
3 198 14 197
3 200 199 194
3 194 53 200
3 199 51 194
3 200 15 199
3 203 201 202
3 202 45 203
3 201 52 202
3 203 54 201
3 197 175 202
3 202 52 197
3 175 45 202
3 197 14 175
3 204 196 201
3 201 54 204
3 196 52 201
3 204 16 196
3 176 205 203
3 203 45 176
3 205 54 203
3 176 4 205
3 208 206 207
3 207 55 208
3 206 51 207
3 208 50 206
3 199 209 207
3 207 51 199
3 209 55 207
3 199 15 209
3 188 198 206
3 206 50 188
3 198 51 206
3 188 14 198
3 210 191 208
3 208 55 210
3 191 50 208
3 210 7 191
3 213 211 212
3 212 57 213
3 211 53 212
3 213 56 211
3 195 214 212
3 212 53 195
3 214 57 212
3 195 16 214
3 215 200 211
3 211 56 215
3 200 53 211
3 215 15 200
3 217 216 213
3 213 57 217
3 216 56 213
3 217 9 216
3 220 218 219
3 219 60 220
3 218 59 219
3 220 58 218
3 222 221 219
3 219 59 222
3 221 60 219
3 222 19 221
3 224 223 218
3 218 58 224
3 223 59 218
3 224 18 223
3 226 225 220
3 220 60 226
3 225 58 220
3 226 17 225
3 229 227 228
3 228 62 229
3 227 59 228
3 229 61 227
3 223 230 228
3 228 59 223
3 230 62 228
3 223 18 230
3 231 222 227
3 227 61 231
3 222 59 227
3 231 19 222
3 233 232 229
3 229 62 233
3 232 61 229
3 233 5 232
3 236 234 235
3 235 64 236
3 234 58 235
3 236 63 234
3 225 237 235
3 235 58 225
3 237 64 235
3 225 17 237
3 238 224 234
3 234 63 238
3 224 58 234
3 238 18 224
3 240 239 236
3 236 64 240
3 239 63 236
3 240 6 239
3 243 241 242
3 242 66 243
3 241 60 242
3 243 65 241
3 221 244 242
3 242 60 221
3 244 66 242
3 221 19 244
3 245 226 241
3 241 65 245
3 226 60 241
3 245 17 226
3 247 246 243
3 243 66 247
3 246 65 243
3 247 11 246
3 250 248 249
3 249 69 250
3 248 68 249
3 250 67 248
3 252 251 249
3 249 68 252
3 251 69 249
3 252 18 251
3 254 253 248
3 248 67 254
3 253 68 248
3 254 21 253
3 256 255 250
3 250 69 256
3 255 67 250
3 256 20 255
3 259 257 258
3 258 70 259
3 257 68 258
3 259 62 257
3 253 260 258
3 258 68 253
3 260 70 258
3 253 21 260
3 230 252 257
3 257 62 230
3 252 68 257
3 230 18 252
3 261 233 259
3 259 70 261
3 233 62 259
3 261 5 233
3 264 262 263
3 263 72 264
3 262 67 263
3 264 71 262
3 255 265 263
3 263 67 255
3 265 72 263
3 255 20 265
3 266 254 262
3 262 71 266
3 254 67 262
3 266 21 254
3 268 267 264
3 264 72 268
3 267 71 264
3 268 10 267
3 271 269 270
3 270 63 271
3 269 69 270
3 271 73 269
3 251 238 270
3 270 69 251
3 238 63 270
3 251 18 238
3 272 256 269
3 269 73 272
3 256 69 269
3 272 20 256
3 239 273 271
3 271 63 239
3 273 73 271
3 239 6 273
3 276 274 275
3 275 76 276
3 274 75 275
3 276 74 274
3 278 277 275
3 275 75 278
3 277 76 275
3 278 24 277
3 280 279 274
3 274 74 280
3 279 75 274
3 280 23 279
3 282 281 276
3 276 76 282
3 281 74 276
3 282 22 281
3 285 283 284
3 284 78 285
3 283 75 284
3 285 77 283
3 279 286 284
3 284 75 279
3 286 78 284
3 279 23 286
3 287 278 283
3 283 77 287
3 278 75 283
3 287 24 278
3 289 288 285
3 285 78 289
3 288 77 285
3 289 0 288
3 292 290 291
3 291 80 292
3 290 74 291
3 292 79 290
3 281 293 291
3 291 74 281
3 293 80 291
3 281 22 293
3 294 280 290
3 290 79 294
3 280 74 290
3 294 23 280
3 296 295 292
3 292 80 296
3 295 79 292
3 296 4 295
3 299 297 298
3 298 82 299
3 297 76 298
3 299 81 297
3 277 300 298
3 298 76 277
3 300 82 298
3 277 24 300
3 301 282 297
3 297 81 301
3 282 76 297
3 301 22 282
3 303 302 299
3 299 82 303
3 302 81 299
3 303 3 302
3 306 304 305
3 305 85 306
3 304 84 305
3 306 83 304
3 308 307 305
3 305 84 308
3 307 85 305
3 308 26 307
3 310 309 304
3 304 83 310
3 309 84 304
3 310 24 309
3 312 311 306
3 306 85 312
3 311 83 306
3 312 25 311
3 315 313 314
3 314 77 315
3 313 84 314
3 315 86 313
3 309 287 314
3 314 84 309
3 287 77 314
3 309 24 287
3 316 308 313
3 313 86 316
3 308 84 313
3 316 26 308
3 288 317 315
3 315 77 288
3 317 86 315
3 288 0 317
3 320 318 319
3 319 87 320
3 318 83 319
3 320 82 318
3 311 321 319
3 319 83 311
3 321 87 319
3 311 25 321
3 300 310 318
3 318 82 300
3 310 83 318
3 300 24 310
3 322 303 320
3 320 87 322
3 303 82 320
3 322 3 303
3 325 323 324
3 324 89 325
3 323 85 324
3 325 88 323
3 307 326 324
3 324 85 307
3 326 89 324
3 307 26 326
3 327 312 323
3 323 88 327
3 312 85 323
3 327 25 312
3 329 328 325
3 325 89 329
3 328 88 325
3 329 5 328
3 332 330 331
3 331 92 332
3 330 91 331
3 332 90 330
3 334 333 331
3 331 91 334
3 333 92 331
3 334 29 333
3 336 335 330
3 330 90 336
3 335 91 330
3 336 28 335
3 338 337 332
3 332 92 338
3 337 90 332
3 338 27 337
3 341 339 340
3 340 94 341
3 339 91 340
3 341 93 339
3 335 342 340
3 340 91 335
3 342 94 340
3 335 28 342
3 343 334 339
3 339 93 343
3 334 91 339
3 343 29 334
3 345 344 341
3 341 94 345
3 344 93 341
3 345 2 344
3 348 346 347
3 347 96 348
3 346 90 347
3 348 95 346
3 337 349 347
3 347 90 337
3 349 96 347
3 337 27 349
3 350 336 346
3 346 95 350
3 336 90 346
3 350 28 336
3 352 351 348
3 348 96 352
3 351 95 348
3 352 7 351
3 355 353 354
3 354 98 355
3 353 92 354
3 355 97 353
3 333 356 354
3 354 92 333
3 356 98 354
3 333 29 356
3 357 338 353
3 353 97 357
3 338 92 353
3 357 27 338
3 359 358 355
3 355 98 359
3 358 97 355
3 359 1 358
3 362 360 361
3 361 101 362
3 360 100 361
3 362 99 360
3 364 363 361
3 361 100 364
3 363 101 361
3 364 31 363
3 366 365 360
3 360 99 366
3 365 100 360
3 366 29 365
3 368 367 362
3 362 101 368
3 367 99 362
3 368 30 367
3 371 369 370
3 370 93 371
3 369 100 370
3 371 102 369
3 365 343 370
3 370 100 365
3 343 93 370
3 365 29 343
3 372 364 369
3 369 102 372
3 364 100 369
3 372 31 364
3 344 373 371
3 371 93 344
3 373 102 371
3 344 2 373
3 376 374 375
3 375 103 376
3 374 99 375
3 376 98 374
3 367 377 375
3 375 99 367
3 377 103 375
3 367 30 377
3 356 366 374
3 374 98 356
3 366 99 374
3 356 29 366
3 378 359 376
3 376 103 378
3 359 98 376
3 378 1 359
3 381 379 380
3 380 105 381
3 379 101 380
3 381 104 379
3 363 382 380
3 380 101 363
3 382 105 380
3 363 31 382
3 383 368 379
3 379 104 383
3 368 101 379
3 383 30 368
3 385 384 381
3 381 105 385
3 384 104 381
3 385 6 384
3 388 386 387
3 387 108 388
3 386 107 387
3 388 106 386
3 390 389 387
3 387 107 390
3 389 108 387
3 390 34 389
3 392 391 386
3 386 106 392
3 391 107 386
3 392 33 391
3 394 393 388
3 388 108 394
3 393 106 388
3 394 32 393
3 397 395 396
3 396 110 397
3 395 107 396
3 397 109 395
3 391 398 396
3 396 107 391
3 398 110 396
3 391 33 398
3 399 390 395
3 395 109 399
3 390 107 395
3 399 34 390
3 401 400 397
3 397 110 401
3 400 109 397
3 401 8 400
3 404 402 403
3 403 112 404
3 402 106 403
3 404 111 402
3 393 405 403
3 403 106 393
3 405 112 403
3 393 32 405
3 406 392 402
3 402 111 406
3 392 106 402
3 406 33 392
3 408 407 404
3 404 112 408
3 407 111 404
3 408 0 407
3 411 409 410
3 410 114 411
3 409 108 410
3 411 113 409
3 389 412 410
3 410 108 389
3 412 114 410
3 389 34 412
3 413 394 409
3 409 113 413
3 394 108 409
3 413 32 394
3 415 414 411
3 411 114 415
3 414 113 411
3 415 11 414
3 418 416 417
3 417 117 418
3 416 116 417
3 418 115 416
3 420 419 417
3 417 116 420
3 419 117 417
3 420 36 419
3 422 421 416
3 416 115 422
3 421 116 416
3 422 34 421
3 424 423 418
3 418 117 424
3 423 115 418
3 424 35 423
3 427 425 426
3 426 109 427
3 425 116 426
3 427 118 425
3 421 399 426
3 426 116 421
3 399 109 426
3 421 34 399
3 428 420 425
3 425 118 428
3 420 116 425
3 428 36 420
3 400 429 427
3 427 109 400
3 429 118 427
3 400 8 429
3 432 430 431
3 431 119 432
3 430 115 431
3 432 114 430
3 423 433 431
3 431 115 423
3 433 119 431
3 423 35 433
3 412 422 430
3 430 114 412
3 422 115 430
3 412 34 422
3 434 415 432
3 432 119 434
3 415 114 432
3 434 11 415
3 437 435 436
3 436 121 437
3 435 117 436
3 437 120 435
3 419 438 436
3 436 117 419
3 438 121 436
3 419 36 438
3 439 424 435
3 435 120 439
3 424 117 435
3 439 35 424
3 441 440 437
3 437 121 441
3 440 120 437
3 441 1 440
3 444 442 443
3 443 124 444
3 442 123 443
3 444 122 442
3 446 445 443
3 443 123 446
3 445 124 443
3 446 39 445
3 448 447 442
3 442 122 448
3 447 123 442
3 448 38 447
3 450 449 444
3 444 124 450
3 449 122 444
3 450 37 449
3 453 451 452
3 452 126 453
3 451 123 452
3 453 125 451
3 447 454 452
3 452 123 447
3 454 126 452
3 447 38 454
3 455 446 451
3 451 125 455
3 446 123 451
3 455 39 446
3 457 456 453
3 453 126 457
3 456 125 453
3 457 9 456
3 460 458 459
3 459 128 460
3 458 122 459
3 460 127 458
3 449 461 459
3 459 122 449
3 461 128 459
3 449 37 461
3 462 448 458
3 458 127 462
3 448 122 458
3 462 38 448
3 464 463 460
3 460 128 464
3 463 127 460
3 464 10 463
3 467 465 466
3 466 130 467
3 465 124 466
3 467 129 465
3 445 468 466
3 466 124 445
3 468 130 466
3 445 39 468
3 469 450 465
3 465 129 469
3 450 124 465
3 469 37 450
3 471 470 467
3 467 130 471
3 470 129 467
3 471 3 470
3 474 472 473
3 473 133 474
3 472 132 473
3 474 131 472
3 476 475 473
3 473 132 476
3 475 133 473
3 476 38 475
3 478 477 472
3 472 131 478
3 477 132 472
3 478 41 477
3 480 479 474
3 474 133 480
3 479 131 474
3 480 40 479
3 483 481 482
3 482 134 483
3 481 132 482
3 483 126 481
3 477 484 482
3 482 132 477
3 484 134 482
3 477 41 484
3 454 476 481
3 481 126 454
3 476 132 481
3 454 38 476
3 485 457 483
3 483 134 485
3 457 126 483
3 485 9 457
3 488 486 487
3 487 136 488
3 486 131 487
3 488 135 486
3 479 489 487
3 487 131 479
3 489 136 487
3 479 40 489
3 490 478 486
3 486 135 490
3 478 131 486
3 490 41 478
3 492 491 488
3 488 136 492
3 491 135 488
3 492 2 491
3 495 493 494
3 494 127 495
3 493 133 494
3 495 137 493
3 475 462 494
3 494 133 475
3 462 127 494
3 475 38 462
3 496 480 493
3 493 137 496
3 480 133 493
3 496 40 480
3 463 497 495
3 495 127 463
3 497 137 495
3 463 10 497
3 500 498 499
3 499 140 500
3 498 139 499
3 500 138 498
3 502 501 499
3 499 139 502
3 501 140 499
3 502 33 501
3 504 503 498
3 498 138 504
3 503 139 498
3 504 13 503
3 506 505 500
3 500 140 506
3 505 138 500
3 506 23 505
3 509 507 508
3 508 47 509
3 507 139 508
3 509 110 507
3 503 182 508
3 508 139 503
3 182 47 508
3 503 13 182
3 398 502 507
3 507 110 398
3 502 139 507
3 398 33 502
3 183 401 509
3 509 47 183
3 401 110 509
3 183 8 401
3 512 510 511
3 511 79 512
3 510 138 511
3 512 46 510
3 505 294 511
3 511 138 505
3 294 79 511
3 505 23 294
3 174 504 510
3 510 46 174
3 504 138 510
3 174 13 504
3 295 177 512
3 512 79 295
3 177 46 512
3 295 4 177
3 515 513 514
3 514 111 515
3 513 140 514
3 515 78 513
3 501 406 514
3 514 140 501
3 406 111 514
3 501 33 406
3 286 506 513
3 513 78 286
3 506 140 513
3 286 23 506
3 407 289 515
3 515 111 407
3 289 78 515
3 407 0 289
3 518 516 517
3 517 143 518
3 516 142 517
3 518 141 516
3 520 519 517
3 517 142 520
3 519 143 517
3 520 19 519
3 522 521 516
3 516 141 522
3 521 142 516
3 522 32 521
3 524 523 518
3 518 143 524
3 523 141 518
3 524 26 523
3 527 525 526
3 526 113 527
3 525 142 526
3 527 66 525
3 521 413 526
3 526 142 521
3 413 113 526
3 521 32 413
3 244 520 525
3 525 66 244
3 520 142 525
3 244 19 520
3 414 247 527
3 527 113 414
3 247 66 527
3 414 11 247
3 530 528 529
3 529 86 530
3 528 141 529
3 530 112 528
3 523 316 529
3 529 141 523
3 316 86 529
3 523 26 316
3 405 522 528
3 528 112 405
3 522 141 528
3 405 32 522
3 317 408 530
3 530 86 317
3 408 112 530
3 317 0 408
3 533 531 532
3 532 61 533
3 531 143 532
3 533 89 531
3 519 231 532
3 532 143 519
3 231 61 532
3 519 19 231
3 326 524 531
3 531 89 326
3 524 143 531
3 326 26 524
3 232 329 533
3 533 61 232
3 329 89 533
3 232 5 329
3 536 534 535
3 535 146 536
3 534 145 535
3 536 144 534
3 538 537 535
3 535 145 538
3 537 146 535
3 538 22 537
3 540 539 534
3 534 144 540
3 539 145 534
3 540 16 539
3 542 541 536
3 536 146 542
3 541 144 536
3 542 39 541
3 545 543 544
3 544 54 545
3 543 145 544
3 545 80 543
3 539 204 544
3 544 145 539
3 204 54 544
3 539 16 204
3 293 538 543
3 543 80 293
3 538 145 543
3 293 22 538
3 205 296 545
3 545 54 205
3 296 80 545
3 205 4 296
3 548 546 547
3 547 125 548
3 546 144 547
3 548 57 546
3 541 455 547
3 547 144 541
3 455 125 547
3 541 39 455
3 214 540 546
3 546 57 214
3 540 144 546
3 214 16 540
3 456 217 548
3 548 125 456
3 217 57 548
3 456 9 217
3 551 549 550
3 550 81 551
3 549 146 550
3 551 130 549
3 537 301 550
3 550 146 537
3 301 81 550
3 537 22 301
3 468 542 549
3 549 130 468
3 542 146 549
3 468 39 542
3 302 471 551
3 551 81 302
3 471 130 551
3 302 3 471
3 554 552 553
3 553 149 554
3 552 148 553
3 554 147 552
3 556 555 553
3 553 148 556
3 555 149 553
3 556 21 555
3 558 557 552
3 552 147 558
3 557 148 552
3 558 25 557
3 560 559 554
3 554 149 560
3 559 147 554
3 560 37 559
3 563 561 562
3 562 88 563
3 561 148 562
3 563 70 561
3 557 327 562
3 562 148 557
3 327 88 562
3 557 25 327
3 260 556 561
3 561 70 260
3 556 148 561
3 260 21 556
3 328 261 563
3 563 88 328
3 261 70 563
3 328 5 261
3 566 564 565
3 565 129 566
3 564 147 565
3 566 87 564
3 559 469 565
3 565 147 559
3 469 129 565
3 559 37 469
3 321 558 564
3 564 87 321
3 558 147 564
3 321 25 558
3 470 322 566
3 566 129 470
3 322 87 566
3 470 3 322
3 569 567 568
3 568 71 569
3 567 149 568
3 569 128 567
3 555 266 568
3 568 149 555
3 266 71 568
3 555 21 266
3 461 560 567
3 567 128 461
3 560 149 567
3 461 37 560
3 267 464 569
3 569 71 267
3 464 128 569
3 267 10 464
3 572 570 571
3 571 152 572
3 570 151 571
3 572 150 570
3 574 573 571
3 571 151 574
3 573 152 571
3 574 27 573
3 576 575 570
3 570 150 576
3 575 151 570
3 576 12 575
3 578 577 572
3 572 152 578
3 577 150 572
3 578 36 577
3 581 579 580
3 580 49 581
3 579 151 580
3 581 96 579
3 575 189 580
3 580 151 575
3 189 49 580
3 575 12 189
3 349 574 579
3 579 96 349
3 574 151 579
3 349 27 574
3 190 352 581
3 581 49 190
3 352 96 581
3 190 7 352
3 584 582 583
3 583 118 584
3 582 150 583
3 584 48 582
3 577 428 583
3 583 150 577
3 428 118 583
3 577 36 428
3 181 576 582
3 582 48 181
3 576 150 582
3 181 12 576
3 429 184 584
3 584 118 429
3 184 48 584
3 429 8 184
3 587 585 586
3 586 97 587
3 585 152 586
3 587 121 585
3 573 357 586
3 586 152 573
3 357 97 586
3 573 27 357
3 438 578 585
3 585 121 438
3 578 152 585
3 438 36 578
3 358 441 587
3 587 97 358
3 441 121 587
3 358 1 441
3 590 588 589
3 589 155 590
3 588 154 589
3 590 153 588
3 592 591 589
3 589 154 592
3 591 155 589
3 592 17 591
3 594 593 588
3 588 153 594
3 593 154 588
3 594 30 593
3 596 595 590
3 590 155 596
3 595 153 590
3 596 35 595
3 599 597 598
3 598 104 599
3 597 154 598
3 599 64 597
3 593 383 598
3 598 154 593
3 383 104 598
3 593 30 383
3 237 592 597
3 597 64 237
3 592 154 597
3 237 17 592
3 384 240 599
3 599 104 384
3 240 64 599
3 384 6 240
3 602 600 601
3 601 120 602
3 600 153 601
3 602 103 600
3 595 439 601
3 601 153 595
3 439 120 601
3 595 35 439
3 377 594 600
3 600 103 377
3 594 153 600
3 377 30 594
3 440 378 602
3 602 120 440
3 378 103 602
3 440 1 378
3 605 603 604
3 604 65 605
3 603 155 604
3 605 119 603
3 591 245 604
3 604 155 591
3 245 65 604
3 591 17 245
3 433 596 603
3 603 119 433
3 596 155 603
3 433 35 596
3 246 434 605
3 605 65 246
3 434 119 605
3 246 11 434
3 608 606 607
3 607 158 608
3 606 157 607
3 608 156 606
3 610 609 607
3 607 157 610
3 609 158 607
3 610 15 609
3 612 611 606
3 606 156 612
3 611 157 606
3 612 28 611
3 614 613 608
3 608 158 614
3 613 156 608
3 614 41 613
3 617 615 616
3 616 95 617
3 615 157 616
3 617 55 615
3 611 350 616
3 616 157 611
3 350 95 616
3 611 28 350
3 209 610 615
3 615 55 209
3 610 157 615
3 209 15 610
3 351 210 617
3 617 95 351
3 210 55 617
3 351 7 210
3 620 618 619
3 619 135 620
3 618 156 619
3 620 94 618
3 613 490 619
3 619 156 613
3 490 135 619
3 613 41 490
3 342 612 618
3 618 94 342
3 612 156 618
3 342 28 612
3 491 345 620
3 620 135 491
3 345 94 620
3 491 2 345
3 623 621 622
3 622 56 623
3 621 158 622
3 623 134 621
3 609 215 622
3 622 158 609
3 215 56 622
3 609 15 215
3 484 614 621
3 621 134 484
3 614 158 621
3 484 41 614
3 216 485 623
3 623 56 216
3 485 134 623
3 216 9 485
3 626 624 625
3 625 161 626
3 624 160 625
3 626 159 624
3 628 627 625
3 625 160 628
3 627 161 625
3 628 31 627
3 630 629 624
3 624 159 630
3 629 160 624
3 630 20 629
3 632 631 626
3 626 161 632
3 631 159 626
3 632 40 631
3 635 633 634
3 634 73 635
3 633 160 634
3 635 105 633
3 629 272 634
3 634 160 629
3 272 73 634
3 629 20 272
3 382 628 633
3 633 105 382
3 628 160 633
3 382 31 628
3 273 385 635
3 635 73 273
3 385 105 635
3 273 6 385
3 638 636 637
3 637 137 638
3 636 159 637
3 638 72 636
3 631 496 637
3 637 159 631
3 496 137 637
3 631 40 496
3 265 630 636
3 636 72 265
3 630 159 636
3 265 20 630
3 497 268 638
3 638 137 497
3 268 72 638
3 497 10 268
3 641 639 640
3 640 102 641
3 639 161 640
3 641 136 639
3 627 372 640
3 640 161 627
3 372 102 640
3 627 31 372
3 489 632 639
3 639 136 489
3 632 161 639
3 489 40 632
3 373 492 641
3 641 102 373
3 492 136 641
3 373 2 492
