# vtk DataFile Version 3.0
this file was written using fslvtkio
ASCII
DATASET POLYDATA
POINTS 732 float
127.504 140.888 125.716
127.733 140.864 126.377
127.534 140.558 126.462
127.202 140.147 126.329
126.993 140.325 125.876
127.007 139.618 125.91
126.765 139.959 125.43
126.859 139.478 125.269
127.827 141.427 125.355
127.939 141.7 125.87
127.727 141.178 124.748
127.17 140.678 124.9
127.129 140.069 124.391
128.041 142.023 125.28
128.288 142.538 125.759
128.212 142.039 125.9
127.658 141.97 125.07
127.624 141.804 124.515
127.517 141.535 124.333
127.217 140.831 124.33
128.09 142.538 125.4
128.393 143.01 125.731
127.963 142.317 124.726
127.953 142.359 123.97
128.145 142.056 123.778
127.573 141.337 123.808
128.277 143.105 124.925
128.257 142.921 124.252
127.696 139.746 126.763
128.311 139.973 126.698
128.374 139.483 126.691
127.942 138.931 126.722
127.081 139.192 126.779
127.51 138.736 126.558
126.935 138.977 125.836
127.28 138.509 126.027
126.859 138.607 125.411
127.405 138.304 125.331
128.101 140.718 126.727
128.849 141.007 126.493
128.795 140.187 126.611
126.861 139.144 124.641
127.264 138.443 124.574
128.648 141.466 126.524
129.24 141.981 126.267
129.37 140.813 126.518
128.088 141.504 126.487
127.063 139.914 123.828
127.099 139.118 124.052
128.74 142.027 126.022
129.328 142.533 125.701
127.431 139.84 123.469
127.55 140.611 123.742
128.955 142.84 125.594
129.341 143.09 125.232
128.452 142.574 123.997
128.653 142.428 123.165
128.611 143.003 124.012
128.466 141.779 122.624
127.895 141.278 123.205
128.696 143.319 125.155
128.703 143.373 124.365
127.871 137.556 126.804
128.347 137.775 127.097
128.591 137.41 126.943
128.346 136.985 126.862
127.815 137.061 126.475
128.413 136.699 126.253
129.514 138.877 126.746
130.184 139.047 126.759
129.976 138.819 126.782
129.594 138.59 126.85
128.636 138.66 126.935
128.79 138.21 127.38
128.077 138.322 126.723
127.619 138.226 126.481
127.461 137.827 126.078
128.21 136.763 125.884
127.878 137.227 125.481
128.2 136.28 125.641
129.939 139.542 126.69
130.615 139.882 126.302
130.341 139.586 126.559
129.033 139.389 126.753
127.646 137.806 125.068
128.03 136.968 124.891
130.141 140.491 126.429
130.836 140.854 126.046
130.572 140.783 126.219
129.667 140.072 126.498
127.531 138.037 124.267
127.752 137.423 124.445
129.825 141.316 126.496
130.513 141.761 125.747
127.923 138.073 124.016
127.563 138.973 123.687
130.106 142.187 125.608
130.397 143.276 125.17
130.7 142.126 125.406
129.837 142.398 125.619
128.062 139.6 123.502
128 140.579 122.889
130.033 144.035 124.86
129.813 142.903 125
129.986 143.872 124.222
128.91 143.031 123.713
129.263 142.961 123.082
129.268 143.295 123.776
129.228 142.334 122.563
128.919 141.931 122.217
128.443 141.176 122.555
129.499 143.502 124.604
129.188 143.543 124.44
129.509 137.287 127.341
130.259 137.46 127.183
129.946 137.044 127.264
129.57 136.677 127.539
128.876 136.956 127.212
129.134 136.296 127.345
128.588 136.499 126.869
129.193 136.276 126.448
129.075 136.157 125.965
129.531 135.673 125.781
130.554 138.578 126.786
131.278 138.759 126.695
131.006 138.397 126.625
130.534 138.116 127.074
129.656 137.822 127.5
128.975 137.559 127.402
128.593 136.318 126.058
128.826 135.863 125.469
130.963 139.167 126.261
131.479 139.793 126.134
131.454 139.301 126.553
128.305 135.847 124.925
131.156 140.333 125.846
131.764 140.725 125.07
131.764 140.424 125.841
128.095 136.519 124.296
131.421 141.111 125.185
131.657 141.743 124.808
131.892 141.271 124.775
128.36 137.226 124.026
131.246 141.884 125.145
131.368 142.641 124.608
128.632 138.093 124.394
128.303 138.88 123.723
131.24 143.97 124.171
129.298 141.592 122.484
129.658 141.343 123.034
129.587 142.024 122.572
128.863 140.898 122.481
129.138 140.692 123.204
128.434 140.438 122.627
128.75 139.985 123.271
128.596 139.388 123.473
130.537 144.58 124.323
130.026 143.641 123.905
130.543 144.226 123.513
129.581 143.467 123.613
130.02 143.206 123.248
129.654 142.572 122.589
130.356 136.848 127.355
131.196 137.127 126.697
130.752 136.611 127.032
130.374 136.113 127.355
129.755 136.254 127.636
129.938 135.625 127.321
129.533 135.723 127.219
129.741 134.733 127.011
129.518 135.576 126.46
129.706 135.131 126.08
131.47 138.206 126.501
131.941 138.837 126.338
132.196 138.356 126.063
131.865 137.643 126.095
130.889 137.567 126.995
129.569 135.121 125.487
131.917 139.238 126.321
132.696 139.665 126.15
132.538 139.334 126.131
129.257 135.326 125.151
129.086 135.658 124.865
129.574 134.692 124.449
132.026 140.003 126.25
132.272 140.786 125.695
132.818 140.391 125.747
128.819 135.738 124.577
129.449 135.355 124.412
132.59 141.09 124.642
128.995 135.758 124.27
128.64 136.439 124.345
131.798 141.73 124.072
131.87 141.133 124.009
128.872 137.212 123.7
131.878 143.117 123.838
129.349 140.067 123.581
129.903 139.533 123.893
129.794 140.241 123.601
129.133 139.39 123.598
129.603 139.418 123.541
128.92 138.771 123.849
129.458 138.632 123.681
129.176 137.984 123.828
131.753 144.062 122.87
130.481 143.363 123.336
131.131 143.194 122.494
130.995 143.904 123.201
130.274 142.624 122.699
130.749 142.421 122.7
130.023 142.018 122.534
130.439 141.613 123.163
129.998 140.708 123.702
131.07 144.581 123.441
131.119 136.403 126.737
131.849 136.525 126.78
131.443 136.028 126.977
131.153 135.603 127.009
130.613 135.581 126.988
130.616 134.834 127.34
130.118 134.928 127.212
130.333 134.308 126.697
130.077 134.485 126.891
130.095 134.407 126.276
131.779 137.136 126.432
132.559 137.661 126.067
132.279 137.084 125.915
129.799 134.301 125.895
129.77 134.463 125.306
130.112 133.703 125.099
132.537 138.736 125.904
133.261 139.165 125.816
133.42 138.583 126.009
132.453 138.148 126.325
129.635 134.778 125.008
130.023 134.073 124.571
133.559 139.587 125.303
129.852 134.405 123.829
132.762 140.509 124.771
133.193 139.915 124.722
129.785 135.7 124.185
132.775 140.529 123.58
129.477 135.987 123.599
129.244 136.575 124.02
131.918 141.69 123.61
132.491 141.066 123.46
129.765 138.061 123.791
130.302 137.941 124.021
130.233 138.649 123.434
129.511 137.369 123.428
129.876 137.434 123.691
131.777 142.005 123.633
131.81 142.931 122.951
131.268 142.356 123.137
131.461 141.579 123.837
130.86 141.5 123.634
130.889 140.694 124.534
130.325 140.671 124.041
130.811 140.209 124.392
130.095 140.162 123.967
130.408 139.757 124.062
130.393 139.41 123.716
130.111 139.156 123.431
131.409 143.63 122.545
131.767 135.889 126.842
132.319 135.908 126.699
132.052 135.371 126.813
131.708 135.069 126.721
131.297 135.208 126.67
131.523 134.69 126.376
130.906 134.525 126.729
131.245 134.056 126.274
130.768 134.101 126.551
130.845 134.1 125.892
132.554 136.985 126.125
133.117 136.95 125.575
132.735 136.537 126.182
130.438 133.779 125.745
130.173 133.67 125.615
130.41 133.063 124.905
133.444 138.288 125.956
134.291 138.175 125.409
133.391 137.33 125.83
130.335 133.218 124.207
134.297 138.846 125.464
134.606 138.971 125.01
130.372 134.243 123.711
134.092 139.008 124.928
134.615 138.91 124.25
130.283 135.135 123.615
133.125 139.805 123.798
133.493 138.889 124.051
129.745 136.165 123.849
130.07 135.702 123.853
130.455 136.193 123.454
132.466 140.256 123.426
132.617 139.105 123.813
129.865 136.776 123.937
130.557 136.579 123.745
130.458 137.049 123.772
132.278 141.135 123.12
131.634 140.675 123.765
131.942 139.645 123.917
131.514 140.057 124.093
130.949 139.7 124.908
131.767 139.322 124.005
130.665 139.224 124.739
131.342 138.863 124.611
130.809 138.954 123.592
131.177 138.784 124.155
130.584 138.656 123.658
131.047 138.349 123.726
130.825 137.679 123.673
132.284 133.907 126.135
132.665 133.916 126.295
132.638 133.449 125.83
132.527 133.207 125.607
131.903 133.312 126.045
132.243 132.882 125.596
132.281 134.816 126.887
132.955 134.944 126.665
132.867 134.348 126.657
131.699 134.424 126.97
131.667 134.04 126.333
131.816 133.119 125.697
131.361 133.551 125.758
131.443 132.699 125.471
131.135 132.884 125.038
131.517 132.418 124.541
132.851 135.812 126.254
133.276 136.102 126.201
133.326 135.463 126.225
130.926 133.487 125.328
131.044 133.174 124.393
133.485 136.877 125.949
133.982 137.463 125.413
133.693 136.691 125.693
130.932 133.246 123.788
134.2 137.49 124.491
134.658 138.184 124.359
134.061 137.167 124.242
130.834 133.771 123.281
134.958 138.524 124.092
134.512 137.865 123.794
130.744 134.716 123.351
133.929 138.316 123.537
134.665 138.095 123.76
130.632 135.568 123.503
130.84 135.14 123.011
131.176 135.576 123.024
133.022 138.492 123.625
133.502 137.87 123.556
132.876 138.139 123.747
132.153 137.803 123.789
132.822 137.672 123.433
131.633 137.278 124.347
132.349 137.035 123.91
131.419 136.679 124.245
132.041 136.576 123.87
131.12 136.392 123.952
131.73 136.247 123.744
130.971 136.184 123.105
131.404 135.978 123.261
132.241 138.947 123.88
132.214 138.665 123.752
131.844 138.483 123.913
131.437 138.075 124.155
131.118 137.408 124.484
130.925 136.814 124.152
132.793 133.085 125.761
133.24 133.147 126.187
133.329 132.552 125.685
133.031 132.231 125.434
132.569 132.105 125.31
132.874 131.444 124.94
132.275 131.843 124.84
132.496 131.405 124.62
133.687 134.188 126.417
134.152 134.261 126.39
133.972 133.816 126.331
133.737 133.441 126.274
133.039 133.918 126.539
131.985 132.61 125.383
132.014 131.706 124.52
131.813 132.309 124.887
132.113 131.892 124.091
134.03 134.962 126.395
134.432 135.541 125.895
134.345 135.153 126.572
133.497 135.084 126.368
131.724 132.553 123.787
133.759 135.954 126.085
134.258 136.02 125.369
131.493 133.105 123.232
134.021 136.781 124.772
134.15 137.622 124.6
133.791 136.504 124.629
131.397 133.868 123.119
133.655 136.935 123.88
133.732 136.465 124.205
133.463 136.46 123.494
131.19 134.418 122.975
134.221 137.484 123.354
133.24 136.761 123.328
133.27 136.517 123.318
131.001 135.02 123.02
131.413 134.845 122.858
131.53 135.225 122.62
133.573 137.782 123.47
133.087 137.208 123.549
133.161 136.11 123.136
132.866 136.568 123.409
132.249 136.122 123.592
132.733 135.928 123.021
131.872 135.912 123.182
132.333 135.744 122.911
131.622 135.676 122.597
132.004 135.488 122.673
134.156 132.479 125.947
134.693 132.8 125.548
134.586 132.386 125.42
134.296 131.985 125.511
133.634 131.878 125.78
133.948 131.223 125.507
133.225 131.411 125.492
133.628 130.805 125.214
133.194 130.911 125.102
133.319 130.3 124.529
134.196 133.365 126.224
134.64 134.053 126.763
134.825 133.315 125.859
133.722 132.67 126.119
132.821 130.867 124.455
132.352 131.148 124.157
132.719 131.435 123.791
134.508 134.804 126.837
135.018 135.626 126.325
135.092 134.997 126.665
132.518 132.341 123.461
134.779 135.06 125.277
132.325 133.013 123.395
134.416 135.21 124.901
133.886 135.715 124.501
133.719 135.248 124.474
134.27 134.957 124.328
134.077 134.952 123.897
132.044 133.652 123.068
133.543 136.053 124.266
133.501 135.254 124.222
131.923 134.173 123.012
132.439 133.914 122.901
132.4 134.139 122.65
133.274 135.87 123.377
133.508 135.963 123.812
132.874 135.41 123.422
133.257 135.363 123.822
132.846 134.864 123.53
132.249 134.779 122.365
132.716 134.272 122.579
132.448 134.739 122.939
131.748 134.584 122.885
132.941 136.147 123.13
132.806 135.79 122.858
132.695 135.089 122.974
132.48 135.486 122.8
131.967 135.237 122.467
134.828 132.051 125.399
135.412 132.463 125.344
135.372 131.629 125.518
134.966 130.837 125.879
134.418 131.161 125.71
134.627 130.183 125.433
134.106 130.549 125.381
134.16 129.354 125.294
133.669 129.929 125.227
133.93 129.825 124.285
135.665 134.183 126.051
136.185 134.4 126.211
135.942 133.702 126.012
135.742 133.081 125.574
135.283 133.117 125.475
133.901 130.594 123.433
135.57 135.104 126.084
136.226 135.426 125.44
136.524 134.945 125.906
135.158 133.998 126.235
133.212 130.824 123.577
133.203 131.53 123.244
135.605 135.431 125.265
135.358 134.96 125.187
133.202 132.132 123.123
133.6 131.462 122.945
133.977 131.899 122.639
135.02 134.373 124.929
134.53 134.682 124.72
134.441 134.44 123.667
134.805 133.884 124.59
134.275 134.114 123.232
134.829 133.404 123.996
134.664 133.305 123.372
133.144 132.727 123.044
133.813 132.611 122.478
133.73 134.537 123.699
134.309 133.646 122.834
133.707 133.98 123.157
133.702 133.678 122.369
134.39 133.495 122.242
133.417 133.402 122.378
134.185 133.02 121.889
132.795 133.44 122.791
133.364 135.014 123.956
133.044 134.458 123.693
133.273 134.158 122.979
133.076 133.994 122.229
132.982 134.679 122.561
136.023 131.558 125.92
136.419 131.654 126.124
136.228 130.949 125.695
136.025 130.4 125.457
135.541 130.636 125.619
135.673 129.364 125.354
135.033 129.63 125.764
135.216 128.494 125.361
134.707 128.949 125.431
135.044 128.257 124.503
136.282 132.965 125.918
136.823 133.315 125.77
136.625 132.463 125.869
135.841 132.149 125.272
134.507 128.742 124.656
134.468 130.043 123.74
136.683 134.272 126.236
136.998 134.539 125.47
137.178 134.01 126.119
134.602 130.592 123.094
136.553 134.448 125.114
133.895 131.109 122.719
134.615 131.182 122.68
136.151 134.998 124.709
135.15 133.871 125.04
135.698 134.339 124.941
135.017 133.344 124.523
135.607 133.622 124.508
135.044 132.774 123.451
135.616 132.801 123.871
135.426 132.451 121.936
135.635 132.394 122.831
135.274 132.188 121.442
135.795 131.906 121.928
134.653 131.784 122.006
135.329 131.484 122.096
134.993 133.058 122.35
134.823 132.698 121.81
134.557 132.251 121.983
136.347 130.506 126.078
136.862 130.942 125.906
136.707 130.013 126.111
136.452 129.23 126.076
136.133 129.199 125.862
136.25 128.412 125.457
135.956 128.465 125.185
136.256 127.865 124.445
136.878 132.094 125.822
137.381 132.231 125.693
137.182 131.318 125.915
135.671 127.806 124.715
135.79 128.22 123.764
137.738 133.816 125.314
138.306 133.736 125.044
137.79 133.458 125.909
137.716 132.817 125.632
137.275 133.759 125.746
135.073 128.801 123.689
135.709 128.787 123.078
137.611 134.44 125.42
136.557 133.294 125.322
137.278 133.572 125.005
136.212 132.297 124.994
136.759 132.258 125.094
136.64 131.906 124.254
135.217 130.039 123.075
135.79 130.146 122.696
136.148 133.788 125.309
135.87 133.023 124.992
136.355 131.848 124.294
135.988 132.216 124.096
135.994 131.897 123.051
136.405 131.456 123.425
135.957 131.382 122.41
136.321 131.109 122.526
135.656 130.847 122.265
136.277 130.669 122.21
135.055 130.676 122.494
137.279 130.174 125.729
137.787 130.462 125.617
137.965 129.648 125.519
137.415 129.544 125.361
136.997 129.147 125.617
137.057 128.972 125.036
137.432 131.093 125.915
138.118 131.194 125.659
137.814 130.784 125.518
136.53 128.347 125.201
136.868 128.205 124.093
138.308 132.474 125.639
138.833 132.744 124.899
138.677 132.398 125.717
138.341 131.84 125.964
137.841 131.767 125.931
136.403 128.132 123.445
136.819 128.398 123.307
138.593 133.349 124.048
137.977 133.769 124.536
137.924 132.97 124.516
138.284 132.49 123.759
137.668 132.341 123.958
136.594 129.245 122.603
136.84 129.25 122.878
136.902 129.976 122.735
136.243 128.741 122.967
137.293 132.723 124.366
136.749 131.451 123.14
137.008 132.084 123.598
136.731 130.558 122.2
136.972 131.003 123.072
136.69 130.219 121.796
136.274 129.604 122.369
138.184 130.407 125.544
138.98 130.46 125
138.752 129.521 125.088
138.229 129.167 124.712
137.639 129.075 124.776
137.607 128.802 123.76
139.022 131.672 125
139.45 131.564 124.421
139.516 131.191 124.371
139.276 131.034 124.614
138.634 131.161 125.343
137.062 128.645 124.468
137.476 128.506 123.213
139.306 132.051 125.004
139.815 131.916 124.512
139.753 131.658 124.659
137.122 128.997 122.916
137.52 128.905 122.662
137.271 129.544 122.854
138.857 133.365 124.574
138.884 132.926 123.998
138.555 132.323 123.934
137.464 132.202 123.134
138.003 131.795 123.493
137.378 131.261 122.609
137.727 131.058 123.294
137.195 130.097 122.839
137.581 130.294 122.977
140.119 130.728 124.054
140.433 130.818 124.324
140.56 130.453 124.284
139.762 129.738 124.568
139.419 130.382 124.629
139.287 129.06 124.342
138.539 129.229 124.269
137.8 128.931 124.233
138.181 129.148 123.685
140.433 131.181 124.024
141.037 131.24 123.215
141.031 131.36 123.086
140.87 131.126 123.586
140.163 131.017 123.949
137.894 128.788 122.856
138.295 129.293 122.519
140.498 131.208 123.689
139.327 132.223 124.076
140.09 131.164 123.613
139.072 131.466 123.761
139.611 130.868 123.468
138.478 131.194 123.773
139.266 130.373 123.569
137.998 130.627 123.272
138.63 130.126 123.597
137.902 130.168 122.538
138.447 129.933 123.375
137.721 129.461 122.8
138.302 129.576 122.697
141.396 131.394 123.278
142.07 131.867 122.25
142.234 131.536 122.88
141.504 131.282 123.12
141.072 130.86 124.023
141.177 130.323 123.8
140.332 130.043 124.055
139.741 129.819 123.929
138.907 129.43 123.892
138.359 129.487 123.934
139.053 129.568 123.185
141.67 131.588 122.612
141.441 131.862 123.185
141.98 132.21 122.503
138.773 129.968 122.683
139.616 129.644 122.406
139.065 129.692 122.904
138.701 129.544 122.911
141.291 131.35 123.421
140.827 130.885 123.346
140.425 130.744 123.379
140.175 130.349 123.481
139.838 130.155 123.379
139.387 129.811 122.846
142.498 132.116 121.486
142.07 131.36 121.585
141.871 130.978 122.316
141.522 130.461 122.648
140.595 130.201 123.516
140.016 129.871 123.23
140.684 129.913 122.387
139.604 129.768 123.357
141.704 132.118 122.483
142.178 132.144 121.22
139.851 129.764 122.509
140.322 129.813 122.147
141.316 130.883 122.591
140.918 130.529 122.571
140.755 130.151 122.358
140.548 129.955 122.124
141.748 131.474 121.154
141.84 130.799 121.179
141.608 130.479 121.373
141.262 130.281 122.221
141.448 131.132 121.818
141.32 130.882 121.444
141.265 130.485 121.076
141.144 130.353 121.27
POLYGONS 1460  5840
3 0 1 2
3 0 3 4
3 2 3 0
3 4 5 6
3 3 5 4
3 5 7 6
3 8 1 0
3 9 1 8
3 4 10 0
3 10 8 0
3 6 11 4
3 11 10 4
3 12 6 7
3 11 6 12
3 13 14 15
3 9 13 15
3 9 8 13
3 8 16 13
3 10 17 8
3 17 16 8
3 11 18 10
3 18 17 10
3 19 11 12
3 18 11 19
3 20 14 13
3 21 14 20
3 16 22 13
3 22 20 13
3 23 17 24
3 23 22 17
3 22 16 17
3 18 24 17
3 25 24 18
3 19 25 18
3 20 26 21
3 22 26 20
3 27 26 22
3 23 27 22
3 28 29 30
3 28 31 32
3 30 31 28
3 32 33 34
3 31 33 32
3 34 35 36
3 33 35 34
3 35 37 36
3 38 39 40
3 29 38 40
3 28 38 29
3 28 1 38
3 28 2 1
3 3 2 28
3 32 3 28
3 5 3 32
3 34 5 32
3 7 5 34
3 7 34 41
3 41 34 36
3 42 36 37
3 41 36 42
3 43 44 45
3 39 43 45
3 39 38 43
3 38 46 43
3 1 9 46
3 38 1 46
3 41 47 12
3 7 41 12
3 48 41 42
3 47 41 48
3 49 44 43
3 50 44 49
3 15 14 49
3 15 49 46
3 46 49 43
3 9 15 46
3 47 51 52
3 47 52 12
3 12 52 19
3 48 51 47
3 53 50 49
3 54 50 53
3 14 21 53
3 49 14 53
3 55 56 57
3 55 23 24
3 55 24 56
3 56 24 58
3 25 59 24
3 24 59 58
3 52 25 19
3 59 25 52
3 53 60 54
3 21 60 53
3 21 26 60
3 26 61 60
3 57 27 55
3 57 61 27
3 61 26 27
3 23 55 27
3 62 63 64
3 62 65 66
3 64 65 62
3 65 67 66
3 68 69 70
3 68 71 72
3 70 71 68
3 72 73 74
3 71 73 72
3 63 74 73
3 63 62 74
3 62 75 74
3 66 76 62
3 76 75 62
3 77 66 67
3 77 78 66
3 78 76 66
3 77 79 78
3 80 81 82
3 69 80 82
3 69 68 80
3 68 83 80
3 30 29 83
3 30 83 72
3 72 83 68
3 31 30 72
3 74 31 72
3 33 31 74
3 75 33 74
3 35 33 75
3 76 35 75
3 37 35 76
3 37 76 84
3 84 76 78
3 85 78 79
3 84 78 85
3 86 87 88
3 81 86 88
3 81 80 86
3 80 89 86
3 40 39 89
3 40 89 83
3 83 89 80
3 29 40 83
3 84 90 42
3 37 84 42
3 91 84 85
3 90 84 91
3 92 87 86
3 93 87 92
3 45 44 92
3 45 92 89
3 89 92 86
3 39 45 89
3 90 94 95
3 90 95 42
3 42 95 48
3 91 94 90
3 96 97 98
3 93 96 98
3 93 92 96
3 92 99 96
3 44 50 99
3 92 44 99
3 51 100 101
3 52 51 101
3 95 51 48
3 100 51 95
3 96 102 97
3 102 103 104
3 102 96 103
3 96 99 103
3 50 54 103
3 99 50 103
3 105 106 107
3 105 57 56
3 105 56 106
3 106 56 108
3 58 109 56
3 56 109 108
3 59 110 58
3 58 110 109
3 101 59 52
3 110 59 101
3 103 111 104
3 54 111 103
3 54 60 111
3 60 112 111
3 107 61 105
3 107 112 61
3 112 60 61
3 57 105 61
3 113 114 115
3 113 116 117
3 115 116 113
3 117 118 119
3 116 118 117
3 119 120 121
3 118 120 119
3 120 122 121
3 123 124 125
3 123 126 127
3 125 126 123
3 114 127 126
3 114 113 127
3 113 128 127
3 64 63 128
3 64 128 117
3 117 128 113
3 65 64 117
3 119 65 117
3 67 65 119
3 67 119 129
3 129 119 121
3 130 121 122
3 129 121 130
3 131 132 133
3 124 131 133
3 123 131 124
3 123 69 131
3 123 70 69
3 71 70 123
3 127 71 123
3 73 71 127
3 128 73 127
3 63 73 128
3 67 129 77
3 129 79 77
3 129 130 79
3 130 134 79
3 135 136 137
3 132 135 137
3 131 135 132
3 131 81 135
3 131 82 81
3 69 82 131
3 79 134 85
3 134 138 85
3 139 140 141
3 136 139 141
3 135 139 136
3 135 87 139
3 135 88 87
3 81 88 135
3 85 138 91
3 138 142 91
3 143 140 139
3 144 140 143
3 87 93 143
3 139 87 143
3 94 145 146
3 95 94 146
3 142 94 91
3 145 94 142
3 98 144 143
3 98 97 144
3 97 147 144
3 93 98 143
3 148 149 150
3 148 151 152
3 149 148 152
3 151 153 154
3 152 151 154
3 153 101 100
3 153 100 154
3 154 100 155
3 146 100 95
3 155 100 146
3 97 156 147
3 102 156 97
3 104 157 158
3 104 158 102
3 102 158 156
3 157 159 160
3 158 157 160
3 159 107 106
3 159 106 160
3 160 106 161
3 150 108 148
3 150 161 108
3 161 106 108
3 109 148 108
3 151 148 109
3 110 151 109
3 153 151 110
3 101 153 110
3 104 111 157
3 112 157 111
3 159 157 112
3 107 159 112
3 162 163 164
3 162 165 166
3 164 165 162
3 166 167 168
3 165 167 166
3 168 169 170
3 167 169 168
3 169 171 170
3 172 173 174
3 172 175 176
3 174 175 172
3 163 176 175
3 162 176 163
3 162 114 176
3 162 115 114
3 116 115 162
3 166 116 162
3 118 116 166
3 168 118 166
3 120 118 168
3 170 120 168
3 170 122 120
3 170 171 122
3 171 177 122
3 178 179 180
3 173 178 180
3 172 178 173
3 172 124 178
3 172 125 124
3 126 125 172
3 176 126 172
3 114 126 176
3 181 182 130
3 181 130 177
3 177 130 122
3 181 183 182
3 184 185 186
3 179 184 186
3 178 184 179
3 178 132 184
3 178 133 132
3 124 133 178
3 182 187 134
3 130 182 134
3 188 182 183
3 187 182 188
3 137 185 184
3 137 136 185
3 136 189 185
3 132 137 184
3 187 190 191
3 187 191 134
3 134 191 138
3 188 190 187
3 141 192 193
3 140 192 141
3 189 136 141
3 193 189 141
3 138 191 142
3 191 194 142
3 140 144 192
3 192 144 195
3 196 197 198
3 196 199 200
3 197 196 200
3 199 201 202
3 200 199 202
3 201 146 145
3 201 145 202
3 202 145 203
3 194 145 142
3 203 145 194
3 144 147 195
3 195 147 204
3 205 206 207
3 205 208 209
3 206 205 209
3 208 210 211
3 209 208 211
3 210 150 149
3 210 149 211
3 211 149 212
3 198 152 196
3 198 212 152
3 212 149 152
3 154 196 152
3 199 196 154
3 155 199 154
3 201 199 155
3 146 201 155
3 147 213 204
3 156 213 147
3 207 158 205
3 207 213 158
3 213 156 158
3 160 205 158
3 208 205 160
3 161 208 160
3 210 208 161
3 150 210 161
3 214 215 216
3 214 217 218
3 216 217 214
3 218 219 220
3 217 219 218
3 220 221 222
3 219 221 220
3 221 223 222
3 224 225 226
3 215 224 226
3 214 224 215
3 214 163 224
3 214 164 163
3 165 164 214
3 218 165 214
3 167 165 218
3 220 167 218
3 169 167 220
3 222 169 220
3 171 227 228
3 169 227 171
3 169 223 227
3 169 222 223
3 227 229 228
3 230 231 232
3 230 174 173
3 230 232 174
3 232 233 174
3 225 224 175
3 225 175 233
3 233 175 174
3 163 175 224
3 228 234 177
3 171 228 177
3 235 228 229
3 234 228 235
3 180 231 230
3 180 179 231
3 179 236 231
3 173 180 230
3 177 234 181
3 234 183 181
3 234 235 183
3 235 237 183
3 186 238 239
3 185 238 186
3 236 179 186
3 239 236 186
3 183 237 188
3 237 240 188
3 185 189 238
3 238 189 241
3 190 242 243
3 191 190 243
3 240 190 188
3 242 190 240
3 193 244 245
3 192 244 193
3 241 189 193
3 245 241 193
3 246 247 248
3 246 249 250
3 247 246 250
3 249 243 250
3 249 194 243
3 194 191 243
3 251 195 252
3 251 244 195
3 244 192 195
3 252 253 254
3 251 252 254
3 253 255 256
3 254 253 256
3 255 257 258
3 256 255 258
3 257 259 260
3 258 257 260
3 259 198 197
3 259 197 260
3 260 197 261
3 200 262 197
3 197 262 261
3 248 202 246
3 248 262 202
3 262 200 202
3 203 246 202
3 249 246 203
3 194 249 203
3 252 204 263
3 195 204 252
3 206 263 207
3 206 253 263
3 253 252 263
3 209 253 206
3 255 253 209
3 211 255 209
3 257 255 211
3 212 257 211
3 259 257 212
3 198 259 212
3 204 213 263
3 207 263 213
3 264 265 266
3 264 267 268
3 266 267 264
3 268 269 270
3 267 269 268
3 270 271 272
3 269 271 270
3 271 273 272
3 274 275 276
3 265 274 276
3 264 274 265
3 264 215 274
3 264 216 215
3 217 216 264
3 268 217 264
3 219 217 268
3 270 219 268
3 221 219 270
3 272 221 270
3 223 277 278
3 221 277 223
3 221 273 277
3 221 272 273
3 277 279 278
3 280 281 282
3 275 280 282
3 274 280 275
3 274 225 280
3 274 226 225
3 215 226 274
3 223 278 227
3 278 229 227
3 278 279 229
3 279 283 229
3 232 231 284
3 280 285 281
3 280 232 285
3 280 233 232
3 284 285 232
3 225 233 280
3 229 283 235
3 283 286 235
3 284 287 288
3 284 231 287
3 231 236 287
3 285 284 288
3 235 286 237
3 286 289 237
3 239 238 290
3 239 290 291
3 239 291 236
3 236 291 287
3 292 293 294
3 292 289 293
3 292 240 289
3 240 237 289
3 290 241 295
3 238 241 290
3 296 291 290
3 295 296 290
3 297 298 299
3 294 298 297
3 292 294 297
3 292 297 243
3 292 243 242
3 240 292 242
3 245 244 300
3 245 295 241
3 245 300 295
3 300 301 295
3 302 296 295
3 302 295 303
3 303 295 301
3 303 304 305
3 302 303 305
3 304 306 307
3 305 304 307
3 306 308 309
3 307 306 309
3 308 310 311
3 309 308 311
3 310 248 247
3 310 247 311
3 311 247 312
3 299 250 297
3 299 312 250
3 312 247 250
3 243 297 250
3 244 251 300
3 254 300 251
3 301 300 254
3 256 301 254
3 303 301 256
3 258 303 256
3 304 303 258
3 260 304 258
3 306 304 260
3 261 306 260
3 308 306 261
3 262 308 261
3 310 308 262
3 248 310 262
3 313 314 315
3 313 316 317
3 315 316 313
3 316 318 317
3 319 320 321
3 314 319 321
3 314 313 319
3 313 322 319
3 317 323 313
3 323 322 313
3 324 317 318
3 324 325 317
3 325 323 317
3 325 326 327
3 324 326 325
3 326 328 327
3 329 330 331
3 320 329 331
3 319 329 320
3 319 265 329
3 319 266 265
3 267 266 319
3 322 267 319
3 269 267 322
3 323 269 322
3 271 269 323
3 325 271 323
3 273 271 325
3 273 325 332
3 332 325 327
3 333 327 328
3 332 327 333
3 334 335 336
3 330 334 336
3 329 334 330
3 329 275 334
3 329 276 275
3 265 276 329
3 273 332 277
3 332 279 277
3 332 333 279
3 333 337 279
3 338 281 339
3 338 335 281
3 282 281 334
3 334 281 335
3 282 334 275
3 339 340 338
3 279 337 283
3 337 341 283
3 339 342 343
3 339 281 342
3 281 285 342
3 340 339 343
3 283 341 286
3 341 344 286
3 288 287 345
3 288 345 346
3 288 346 285
3 285 346 342
3 347 348 349
3 347 344 348
3 347 289 344
3 289 286 344
3 345 291 350
3 287 291 345
3 351 346 345
3 351 345 352
3 352 345 350
3 352 353 354
3 351 352 354
3 353 355 356
3 354 353 356
3 355 357 358
3 356 355 358
3 357 359 360
3 358 357 360
3 359 361 362
3 360 359 362
3 349 362 361
3 347 349 361
3 347 361 294
3 347 294 293
3 289 347 293
3 350 296 363
3 291 296 350
3 352 350 364
3 364 350 363
3 353 352 365
3 365 352 364
3 355 353 366
3 366 353 365
3 357 355 367
3 367 355 366
3 359 357 368
3 368 357 367
3 298 368 299
3 298 361 368
3 361 359 368
3 294 361 298
3 296 302 363
3 305 363 302
3 364 363 305
3 307 364 305
3 365 364 307
3 309 365 307
3 366 365 309
3 311 366 309
3 367 366 311
3 312 367 311
3 368 367 312
3 299 368 312
3 369 370 371
3 369 372 373
3 371 372 369
3 373 374 375
3 372 374 373
3 374 376 375
3 377 378 379
3 377 380 381
3 379 380 377
3 370 381 380
3 369 381 370
3 369 314 381
3 369 315 314
3 316 315 369
3 373 316 369
3 318 316 373
3 318 373 382
3 382 373 375
3 383 375 376
3 383 384 375
3 384 382 375
3 383 385 384
3 386 387 388
3 378 386 388
3 378 377 386
3 377 389 386
3 321 320 389
3 321 389 381
3 381 389 377
3 314 321 381
3 318 382 324
3 326 324 382
3 384 326 382
3 384 328 326
3 384 385 328
3 385 390 328
3 391 387 386
3 392 387 391
3 331 330 391
3 331 391 389
3 389 391 386
3 320 331 389
3 328 390 333
3 390 393 333
3 394 335 395
3 394 392 335
3 336 335 391
3 391 335 392
3 336 391 330
3 395 396 394
3 333 393 337
3 393 397 337
3 335 338 395
3 340 398 399
3 338 340 399
3 338 399 396
3 338 396 395
3 399 398 400
3 337 397 341
3 397 401 341
3 343 342 402
3 343 398 340
3 343 402 398
3 402 403 398
3 404 400 398
3 403 404 398
3 405 406 407
3 405 401 406
3 405 344 401
3 344 341 401
3 402 346 408
3 342 346 402
3 403 402 409
3 409 402 408
3 410 404 403
3 410 403 411
3 411 403 409
3 411 412 413
3 410 411 413
3 412 414 415
3 413 412 415
3 414 416 417
3 415 414 417
3 407 417 416
3 405 407 416
3 405 416 349
3 405 349 348
3 344 405 348
3 346 351 408
3 354 408 351
3 409 408 354
3 356 409 354
3 411 409 356
3 358 411 356
3 412 411 358
3 360 412 358
3 414 412 360
3 362 414 360
3 416 414 362
3 349 416 362
3 418 419 420
3 418 421 422
3 420 421 418
3 422 423 424
3 421 423 422
3 424 425 426
3 423 425 424
3 425 427 426
3 428 429 430
3 419 428 430
3 419 418 428
3 418 431 428
3 371 370 431
3 371 431 422
3 422 431 418
3 372 371 422
3 424 372 422
3 374 372 424
3 426 374 424
3 376 432 433
3 374 432 376
3 374 427 432
3 374 426 427
3 432 434 433
3 435 436 437
3 429 435 437
3 428 435 429
3 428 378 435
3 428 379 378
3 380 379 428
3 431 380 428
3 370 380 431
3 376 433 383
3 433 385 383
3 433 434 385
3 434 438 385
3 388 436 435
3 388 387 436
3 387 439 436
3 378 388 435
3 385 438 390
3 438 440 390
3 441 392 442
3 441 439 392
3 439 387 392
3 442 443 444
3 441 442 444
3 444 443 445
3 390 440 393
3 440 446 393
3 392 394 442
3 396 442 394
3 396 447 442
3 447 443 442
3 448 445 443
3 447 448 443
3 449 450 451
3 449 446 450
3 449 397 446
3 397 393 446
3 396 399 447
3 400 452 453
3 399 400 453
3 399 453 448
3 399 448 447
3 452 454 455
3 453 452 455
3 455 454 456
3 457 458 459
3 451 458 457
3 451 457 449
3 449 457 460
3 397 460 401
3 449 460 397
3 452 404 461
3 400 404 452
3 454 452 462
3 462 452 461
3 463 456 454
3 463 454 464
3 464 454 462
3 459 463 464
3 459 464 457
3 457 464 465
3 406 465 407
3 406 460 465
3 460 457 465
3 401 460 406
3 404 410 461
3 413 461 410
3 462 461 413
3 415 462 413
3 464 462 415
3 417 464 415
3 465 464 417
3 407 465 417
3 466 467 468
3 466 469 470
3 468 469 466
3 470 471 472
3 469 471 470
3 472 473 474
3 471 473 472
3 473 475 474
3 476 477 478
3 476 479 480
3 478 479 476
3 467 480 479
3 466 480 467
3 466 419 480
3 466 420 419
3 421 420 466
3 470 421 466
3 423 421 470
3 472 423 470
3 425 423 472
3 474 425 472
3 474 427 425
3 474 475 427
3 475 481 427
3 482 483 484
3 477 482 484
3 477 476 482
3 476 485 482
3 430 429 485
3 430 485 480
3 480 485 476
3 419 430 480
3 427 481 486
3 432 427 486
3 486 434 432
3 487 434 486
3 482 488 483
3 437 436 489
3 437 489 482
3 437 482 485
3 482 489 488
3 429 437 485
3 490 491 492
3 490 487 491
3 490 438 487
3 438 434 487
3 493 439 494
3 493 489 439
3 489 436 439
3 494 495 496
3 493 494 496
3 495 497 498
3 496 495 498
3 498 497 499
3 500 490 492
3 501 500 492
3 438 500 440
3 490 500 438
3 439 441 494
3 444 494 441
3 495 494 444
3 445 495 444
3 445 502 495
3 502 497 495
3 503 499 497
3 503 497 504
3 504 497 502
3 504 505 506
3 503 504 506
3 505 507 508
3 506 505 508
3 501 508 507
3 501 507 500
3 500 507 509
3 440 509 446
3 500 509 440
3 502 448 510
3 445 448 502
3 504 502 511
3 511 502 510
3 505 504 512
3 512 504 511
3 507 505 513
3 513 505 512
3 450 513 451
3 450 509 513
3 509 507 513
3 446 509 450
3 448 453 510
3 455 510 453
3 511 510 455
3 456 511 455
3 456 514 511
3 514 512 511
3 458 514 459
3 458 513 514
3 513 512 514
3 451 513 458
3 456 463 514
3 459 514 463
3 515 516 517
3 515 518 519
3 517 518 515
3 519 520 521
3 518 520 519
3 521 522 523
3 520 522 521
3 522 524 523
3 525 526 527
3 516 525 527
3 516 515 525
3 515 528 525
3 468 467 528
3 468 528 519
3 519 528 515
3 469 468 519
3 521 469 519
3 471 469 521
3 523 471 521
3 523 524 529
3 523 529 471
3 471 529 473
3 529 475 473
3 530 475 529
3 531 532 533
3 526 531 533
3 525 531 526
3 525 477 531
3 525 478 477
3 479 478 525
3 528 479 525
3 467 479 528
3 475 530 481
3 530 534 481
3 484 532 531
3 484 483 532
3 483 535 532
3 477 484 531
3 536 486 481
3 536 481 537
3 537 481 534
3 486 536 487
3 483 538 535
3 488 538 483
3 489 539 540
3 489 540 488
3 488 540 538
3 539 541 542
3 540 539 542
3 541 543 544
3 542 541 544
3 543 545 546
3 544 543 546
3 545 547 548
3 546 545 548
3 547 549 550
3 548 547 550
3 537 550 549
3 536 537 549
3 536 549 492
3 536 492 491
3 487 536 491
3 489 493 539
3 496 539 493
3 541 539 496
3 498 541 496
3 543 541 498
3 499 543 498
3 499 551 543
3 551 545 543
3 547 545 552
3 552 545 551
3 549 547 553
3 553 547 552
3 492 553 501
3 549 553 492
3 499 503 551
3 506 551 503
3 552 551 506
3 508 552 506
3 553 552 508
3 501 553 508
3 554 555 556
3 554 557 558
3 556 557 554
3 558 559 560
3 557 559 558
3 559 561 560
3 562 563 564
3 555 562 564
3 554 562 555
3 554 516 562
3 554 517 516
3 518 517 554
3 558 518 554
3 520 518 558
3 560 520 558
3 560 561 565
3 560 565 520
3 520 565 522
3 565 524 522
3 566 524 565
3 567 568 569
3 567 570 571
3 569 570 567
3 563 571 570
3 562 571 563
3 562 526 571
3 562 527 526
3 516 527 562
3 572 529 524
3 572 524 573
3 573 524 566
3 529 572 530
3 567 574 568
3 571 532 567
3 571 533 532
3 567 532 574
3 575 576 532
3 574 532 576
3 575 577 578
3 575 578 576
3 571 526 533
3 578 577 579
3 580 572 573
3 581 580 573
3 530 580 534
3 572 580 530
3 575 535 582
3 532 535 575
3 577 575 583
3 583 575 582
3 584 579 577
3 584 577 585
3 585 577 583
3 585 586 587
3 584 585 587
3 586 588 589
3 587 586 589
3 588 590 591
3 589 588 591
3 581 591 590
3 581 590 580
3 580 590 592
3 534 592 537
3 580 592 534
3 535 538 582
3 540 582 538
3 583 582 540
3 542 583 540
3 585 583 542
3 544 585 542
3 586 585 544
3 546 586 544
3 588 586 546
3 548 588 546
3 590 588 548
3 550 590 548
3 592 590 550
3 537 592 550
3 593 594 595
3 593 596 597
3 595 596 593
3 596 598 597
3 599 600 601
3 594 599 601
3 593 599 594
3 593 555 599
3 593 556 555
3 557 556 593
3 597 557 593
3 597 598 602
3 597 602 557
3 557 602 559
3 602 561 559
3 603 561 602
3 604 605 606
3 604 607 608
3 606 607 604
3 600 608 607
3 599 608 600
3 599 563 608
3 599 564 563
3 555 564 599
3 609 565 561
3 609 561 610
3 610 561 603
3 565 609 566
3 611 568 612
3 611 605 568
3 569 568 604
3 604 568 605
3 613 614 611
3 613 611 612
3 608 570 604
3 604 570 569
3 570 608 563
3 613 615 614
3 616 617 618
3 610 617 616
3 610 616 609
3 609 616 619
3 566 619 573
3 609 619 566
3 568 574 612
3 576 612 574
3 613 612 576
3 613 620 615
3 613 576 620
3 576 578 620
3 579 621 622
3 579 622 578
3 578 622 620
3 621 623 624
3 622 621 624
3 618 624 623
3 618 623 616
3 616 623 625
3 619 616 626
3 626 616 625
3 573 626 581
3 619 626 573
3 579 584 621
3 587 621 584
3 623 621 587
3 589 623 587
3 625 623 589
3 591 625 589
3 626 625 591
3 581 626 591
3 627 628 629
3 627 595 594
3 627 629 595
3 629 630 595
3 596 595 631
3 595 630 631
3 631 598 596
3 632 598 631
3 633 634 635
3 633 636 637
3 635 636 633
3 628 637 636
3 627 637 628
3 627 600 637
3 627 601 600
3 594 601 627
3 598 632 638
3 602 598 638
3 638 603 602
3 639 603 638
3 640 641 642
3 634 640 642
3 633 640 634
3 633 605 640
3 633 606 605
3 607 606 633
3 637 607 633
3 600 607 637
3 643 644 645
3 643 639 644
3 643 610 639
3 610 603 639
3 640 646 641
3 605 646 640
3 605 611 646
3 611 647 646
3 614 648 611
3 611 648 647
3 615 649 650
3 615 650 614
3 614 650 648
3 649 651 652
3 650 649 652
3 651 653 654
3 652 651 654
3 645 654 653
3 643 645 653
3 643 653 618
3 643 618 617
3 610 643 617
3 615 620 649
3 622 649 620
3 651 649 622
3 624 651 622
3 653 651 624
3 618 653 624
3 655 656 657
3 655 658 659
3 657 658 655
3 659 629 628
3 659 658 629
3 658 660 629
3 630 629 661
3 629 660 661
3 631 630 662
3 630 661 662
3 662 632 631
3 663 632 662
3 664 665 666
3 664 667 668
3 666 667 664
3 656 668 667
3 655 668 656
3 655 634 668
3 655 635 634
3 636 635 655
3 659 636 655
3 628 636 659
3 669 638 632
3 669 632 670
3 670 632 663
3 638 669 639
3 664 671 665
3 668 641 664
3 668 642 641
3 664 641 671
3 672 673 641
3 671 641 673
3 672 674 675
3 672 675 673
3 668 634 642
3 674 676 677
3 675 674 677
3 676 678 679
3 677 676 679
3 678 680 681
3 679 678 681
3 680 682 683
3 681 680 683
3 670 683 682
3 669 670 682
3 669 682 645
3 669 645 644
3 639 669 644
3 641 646 672
3 647 672 646
3 674 672 647
3 648 674 647
3 676 674 648
3 650 676 648
3 678 676 650
3 652 678 650
3 680 678 652
3 654 680 652
3 682 680 654
3 645 682 654
3 684 685 686
3 684 687 688
3 686 687 684
3 688 657 656
3 688 687 657
3 687 689 657
3 658 657 690
3 657 689 690
3 660 658 691
3 658 690 691
3 661 660 692
3 660 691 692
3 693 692 694
3 693 662 692
3 662 661 692
3 662 693 663
3 695 696 697
3 685 695 697
3 684 695 685
3 684 665 695
3 684 666 665
3 667 666 684
3 688 667 684
3 656 667 688
3 698 699 700
3 694 699 698
3 694 698 693
3 693 698 701
3 663 701 670
3 693 701 663
3 695 702 696
3 665 702 695
3 665 671 702
3 671 703 702
3 673 704 671
3 671 704 703
3 675 705 673
3 673 705 704
3 677 706 675
3 675 706 705
3 679 707 677
3 677 707 706
3 700 681 698
3 700 707 681
3 707 679 681
3 683 698 681
3 701 698 683
3 670 701 683
3 686 708 709
3 685 708 686
3 687 686 710
3 686 709 710
3 689 687 711
3 687 710 711
3 690 689 712
3 689 711 712
3 713 712 714
3 713 691 712
3 691 690 712
3 691 715 692
3 713 715 691
3 692 715 694
3 697 696 716
3 697 716 717
3 697 717 685
3 685 717 708
3 718 713 714
3 719 718 714
3 699 718 700
3 699 715 718
3 715 713 718
3 694 715 699
3 696 702 716
3 716 720 717
3 716 702 720
3 702 703 720
3 704 721 703
3 703 721 720
3 705 722 704
3 704 722 721
3 706 723 705
3 705 723 722
3 719 707 718
3 719 723 707
3 723 706 707
3 700 718 707
3 709 708 724
3 709 725 710
3 724 725 709
3 710 726 711
3 725 726 710
3 711 727 712
3 726 727 711
3 712 727 714
3 724 717 728
3 708 717 724
3 725 724 729
3 729 724 728
3 726 725 730
3 730 725 729
3 727 726 731
3 731 726 730
3 714 731 719
3 727 731 714
3 717 720 728
3 721 728 720
3 729 728 721
3 722 729 721
3 730 729 722
3 723 730 722
3 731 730 723
3 719 731 723
