# vtk DataFile Version 3.0
this file was written using fslvtkio
ASCII
DATASET POLYDATA
POINTS 732 float
129.011 122.108 98.7042
130.134 122.767 99.8166
130.594 122.326 98.6125
130.675 122.191 97.3796
128.611 122.169 97.2408
130.269 122.515 95.9428
128.522 122.889 95.7533
129.306 123.298 94.5887
127.586 122.488 99.6883
128.35 122.735 100.892
126.865 122.565 98.1845
127.036 122.968 96.6442
127.659 123.814 94.7653
126.282 122.701 100.981
126.404 123.95 102.623
127.834 123.417 101.956
125.758 122.637 99.4595
125.206 123.659 98.158
125.834 124.142 96.9713
126.416 124.111 95.5299
124.975 123.718 101.543
125.003 124.983 102.722
124.501 123.737 99.9442
124.493 124.995 98.4607
125.431 126.05 97.2921
125.916 125.276 95.7958
124.407 125.341 101.225
124.408 125.818 99.6897
131.981 122.834 98.3502
132.192 123.78 100.056
133.332 124.041 98.9893
133.484 123.472 97.1232
131.844 122.791 96.3513
132.818 123.6 95.2017
130.944 123.217 94.4522
131.986 124.01 93.6577
130.327 124.197 93.1024
131.177 124.699 92.1386
130.846 123.513 100.785
130.938 124.58 102.526
132.037 124.724 101.71
128.755 124.227 93.3205
129.567 125.233 91.8147
129.543 124.529 102.631
129.035 125.735 104.201
130.521 125.801 103.94
129.097 123.534 101.668
127.358 124.992 93.2382
128.14 125.515 92.2183
127.727 124.653 103.316
127.379 126.197 104.505
127.172 126.662 92.7392
126.557 125.342 94.2891
126.043 125.337 103.731
126.023 126.817 104.621
125.045 126.593 98.452
126.089 128.057 98.7811
124.953 127.255 99.6635
126.262 127.427 97.0091
126.165 126.533 95.6537
124.771 126.632 102.971
124.733 127.252 101.243
134.524 124.815 93.4103
135.424 124.799 95.0233
136.103 125.458 93.9658
135.659 125.66 92.4121
134.107 125.23 91.7222
135.072 125.825 90.9795
134.576 125.522 100.252
135.257 126.316 101.448
135.716 126.096 100.062
135.912 125.596 98.6668
134.528 124.567 98.0842
135.78 124.98 96.7562
134.426 124.156 95.7808
133.458 124.238 93.9694
132.707 124.844 92.1837
133.747 125.921 90.387
132.477 125.589 90.5701
133.13 126.647 89.1731
133.478 125.973 102.685
134.056 126.984 103.918
134.79 126.434 102.725
133.327 124.989 101.014
130.94 125.502 90.6884
131.479 126.551 89.3168
132.228 126.77 104.827
132.394 127.776 106.34
133.31 127.281 105.057
131.851 125.826 103.49
129.424 126.565 90.6341
130.231 127.199 89.7457
130.366 126.975 105.459
130.589 128.197 106.759
129.165 128.282 90.5928
128.308 126.896 91.6144
128.958 128.193 106.634
128.828 129.916 107.943
130.063 129.307 107.65
128.563 127.05 105.396
127.816 128.143 93.0825
126.641 127.085 94.1725
127.429 129.358 106.761
127.17 127.976 105.829
125.981 129.266 105.899
125.537 128.432 100.205
126.345 129.674 100.861
125.254 128.74 101.6
126.989 129.441 99.1333
126.951 128.662 97.4917
126.784 128.013 95.7824
125.252 128.148 104.671
125.003 128.52 102.969
137.774 126.299 95.5146
138.291 127.159 96.9179
138.564 127.123 95.6676
138.476 127.04 94.3966
137.187 126.215 93.3481
137.988 126.974 92.4776
136.511 126.205 91.2856
137.492 126.918 90.6067
135.972 126.887 89.5644
136.628 127.622 88.7799
136.843 126.573 100.03
137.327 127.463 101.434
137.842 127.53 100
137.984 127.377 98.578
137.018 126.182 97.5781
136.693 125.649 95.7123
134.765 126.555 89.6104
134.553 127.501 88.3552
135.746 127.104 102.771
136.044 128.096 103.9
136.801 127.766 102.668
132.636 127.794 88.2162
134.264 128.007 105.255
134.402 129.54 106.717
135.604 128.885 105.315
131.187 128.074 88.9474
133.182 129.021 106.984
132.146 130.214 108.659
133.248 130.888 108.061
130.118 128.966 89.6789
131.451 129.225 107.804
130.336 130.96 108.953
129.543 130.038 90.9938
128.518 128.681 91.8114
128.91 131.594 108.255
127.964 129.67 97.8772
128.97 130.38 98.9778
127.795 130.176 99.4314
127.834 129.154 96.172
128.917 130.034 96.9395
127.434 128.454 94.4916
128.523 129.454 94.8636
128.649 129.428 93.2253
127.504 130.828 107.331
125.424 130.103 104.348
126.339 130.946 105.674
125.563 129.869 102.58
126.346 130.753 103.15
127.307 130.405 100.927
139.231 128.069 95.7409
139.897 129.226 97.0074
139.974 128.984 95.6118
139.94 128.834 94.2314
139.19 127.773 93.368
139.744 128.561 92.085
138.829 127.768 91.3447
139.524 128.54 89.7508
138.202 127.669 89.5627
138.163 128.497 88.1996
138.747 128.54 100.022
138.886 129.222 101.589
139.813 129.926 100.68
139.984 129.785 98.944
139.017 128.317 97.9454
136.57 128.5 87.8334
137.817 128.489 102.473
137.919 130.16 104.113
138.681 129.877 102.935
135.345 128.79 87.4897
134.031 128.714 87.4572
135.391 130.215 86.6406
136.77 129.355 104.37
135.889 130.366 106.17
137.019 131.247 105.43
132.808 129.252 87.7773
134.046 130.361 86.9752
134.47 131.361 107.141
132.54 130.619 87.9212
131.531 129.496 88.6
131.803 131.864 109.015
133.347 132.552 108.098
130.659 130.421 89.6019
130.264 132.859 108.218
129.59 130.52 95.9265
130.939 131.561 97.0436
130 130.78 97.5289
129.431 130.406 94.1578
130.307 131.151 95.0978
129.238 130.114 92.3904
130.309 131.014 92.9648
130.513 131.063 91.1513
129.017 132.765 107.237
127.38 131.477 103.702
128.714 132.189 104.147
127.594 131.879 105.201
127.906 131.17 101.943
129.064 131.928 102.728
128.518 130.586 100.432
129.394 131.422 101.082
129.845 130.986 99.1982
127.726 132.003 106.74
140.864 129.828 95.4044
141.62 130.911 96.6879
141.785 130.468 95.3987
141.791 130.227 94.0165
140.757 129.451 93.2466
141.579 129.837 91.9499
140.65 129.204 91.1004
141.528 129.879 89.492
140.498 129.267 89.7635
140.382 129.573 88.4886
140.587 130.394 97.6345
141.067 131.449 99.1719
141.369 131.087 97.9108
139.128 129.311 87.6872
137.88 129.527 86.8136
138.852 130.742 86.1617
139.566 130.385 102.328
138.644 131.757 103.555
140.145 131.818 102.307
140.596 131.176 100.43
136.56 129.694 86.6608
137.211 131.143 86.1115
137.548 132.51 104.547
135.566 131.614 86.6988
135.686 132.194 106.396
136.406 133.213 105.343
134.017 131.699 87.4693
134.33 133.228 106.826
132.85 131.594 88.1277
131.861 131.361 89.1094
131.883 133.326 108.281
133.132 133.889 107.092
131.08 132.311 91.9443
132.066 133.228 93.2007
131.091 132.21 93.6149
131.165 131.726 90.237
131.922 132.783 91.1165
131.052 133.724 106.806
130.071 133.226 106.01
130.028 132.8 104.011
131.184 133.699 105.013
130.313 132.484 102.035
131.452 133.176 103.199
130.61 132.054 100.245
131.66 132.964 101.327
130.743 131.62 98.5693
131.667 132.554 99.3126
131.85 132.311 97.2019
131.1 131.966 95.2019
128.844 132.761 105.598
142.621 131.34 95.4024
143.177 132.217 96.3026
143.631 131.836 94.9553
143.599 131.42 93.7203
142.641 130.687 93.0277
143.606 130.874 91.6871
142.587 130.109 90.9517
143.623 130.725 89.6949
142.651 130.221 89.4431
142.683 130.542 87.9526
141.94 131.946 98.1683
142.374 132.772 99.0549
142.697 132.57 97.6477
141.418 130.46 87.3343
140.038 130.353 86.8203
140.545 131.698 85.912
141.171 132.663 100.941
141.542 134.334 101.136
142.194 133.152 100.294
138.74 132.236 85.8195
139.161 133.313 103.234
140.159 133.927 102.335
137.018 132.719 86.2887
137.716 134.033 103.858
138.457 134.891 102.904
135.339 132.817 87.2895
135.115 134.112 105.582
136.167 134.744 104.273
133.307 132.476 88.4103
134.508 133.229 88.2694
134.043 133.644 89.3677
133.524 134.417 105.05
134.672 135.097 103.943
132.626 132.787 89.7778
133.777 133.786 90.7806
132.989 133.537 91.6021
132.222 134.251 106.09
132.342 134.005 104.174
133.69 134.334 102.875
132.783 133.647 102.503
132.717 133.397 100.25
133.751 134.024 101.114
132.623 133.201 98.2168
133.646 133.996 99.2162
132.429 132.892 96.263
133.485 133.805 97.2524
131.979 132.965 94.7297
133.122 133.715 95.2893
133.043 133.784 93.2254
145.611 132.081 92.0535
146.31 132.629 93.066
146.568 132.588 91.7572
146.58 132.339 90.4425
145.443 131.697 89.7523
146.418 132.132 88.8403
144.684 132.292 94.454
144.728 133.157 96.1984
145.749 133.125 94.9078
144.488 131.523 92.5695
144.609 131.357 90.4419
145.196 131.78 88.2181
143.986 131.111 87.9212
144.644 132.153 86.8392
143.313 132.048 86.2424
143.73 133.388 85.72
143.594 132.958 97.2769
143.953 133.732 98.8231
144.804 133.907 97.8893
142.211 131.394 86.3896
141.862 132.963 85.5272
142.881 133.802 99.6933
143.333 135.129 100.542
143.934 134.296 99.7431
140.138 133.309 85.6866
141.936 135.611 99.9914
140.801 135.66 100.596
140.681 136.477 99.2244
138.404 133.788 85.9434
139.954 135.358 101.53
139.822 136.365 100.161
136.743 134 87.0646
136.702 135.601 102.74
138.177 136 101.976
135.401 133.819 88.3727
136.212 134.377 88.3875
135.845 134.692 89.7291
135.345 135.508 102.372
136.625 136.215 100.998
135.632 135.372 100.252
135.496 135.01 97.9749
136.231 136.144 98.937
135.421 134.746 96.0714
136.18 135.892 97.0483
135.193 134.701 94.2132
136.268 135.473 95.2643
134.957 134.889 92.2803
136.059 135.292 93.3735
134.674 134.363 90.4304
135.822 135.18 91.4045
134.341 134.815 102.011
134.513 134.764 100.484
134.546 134.499 98.6491
134.42 134.34 96.7547
134.082 134.287 94.8129
134.091 134.309 92.7226
147.619 132.879 91.1525
147.896 133.387 92.9508
148.774 133.5 91.7152
148.792 133.199 89.9067
147.529 132.734 88.7332
148.885 133.402 87.7444
147.132 132.943 87.0147
147.873 133.764 86.5888
147.041 134.193 96.1277
147.824 134.862 97.1646
148.167 134.449 95.9375
148.086 133.935 94.7133
146.86 133.367 94.0372
146.105 132.365 87.3182
146.305 133.69 86.117
145.192 133.266 86.1516
145.136 134.795 85.7596
146.301 134.751 98.3001
146.061 135.614 100.292
147.142 135.439 99.0068
145.833 134.066 96.8649
143.114 134.622 85.5315
144.897 134.791 99.6694
144.543 136.456 100.232
141.378 134.647 85.5239
143.365 136.345 99.6985
142.58 135.971 99.8697
142.109 136.545 98.8037
139.798 134.902 86.125
139.29 136.731 98.6571
140.878 136.845 97.9279
139.993 137.083 96.7995
138.143 134.913 87.0859
138.668 136.436 100.484
138.213 136.596 98.1191
138.959 137.011 96.7145
137 135.026 88.3535
137.972 135.78 88.2575
137.302 136.069 89.3969
137.4 136.593 100.141
137.268 136.492 98.3049
137.908 136.666 96.253
137.145 136.181 96.1844
137.033 135.914 94.0759
137.792 136.684 94.557
136.722 135.96 92.0865
137.709 136.754 92.6497
136.592 135.583 90.1894
137.522 136.616 90.8567
150.197 134.675 93.4471
150.944 135.31 94.5047
151.314 134.88 93.1613
151.334 134.552 91.8658
149.904 134.016 91.3619
151.179 134.362 89.9605
149.854 133.908 89.3046
150.851 134.512 88.1253
149.893 134.282 87.5642
149.865 135.795 86.3474
149.191 134.999 95.5572
149.05 135.935 97.7771
150.118 135.691 96.3153
149.012 134.096 93.4261
148.667 134.812 86.4421
146.908 134.534 85.9767
146.834 135.64 86.0684
148.188 135.684 98.2485
147.43 136.39 100.273
148.626 136.623 100.064
144.522 136.075 85.8175
146.132 137.471 100.154
142.802 136.202 85.8183
144.812 137.692 99.0812
143.471 137.208 98.642
143.111 137.812 97.117
144.289 138.101 97.3788
143.564 138.346 95.756
141.198 136.21 86.1153
142.203 137.126 97.4068
142.215 137.996 96.0289
140.101 136.283 87.1291
141.272 137.449 87.2672
140.476 137.268 88.265
139.783 137.465 94.9609
141.092 137.621 96.0522
139.807 137.512 93.0647
140.824 138.001 94.2285
140.976 137.993 92.4025
139.453 136.861 89.0917
140.706 137.836 89.4986
139.833 137.444 90.4076
138.971 135.836 87.608
138.686 137.158 95.0722
138.751 137.267 93.3088
140.074 137.591 91.628
138.754 137.125 91.279
138.308 136.543 89.4599
152.251 135.423 92.6402
152.316 136.079 94.5046
153.544 135.914 92.9302
153.684 135.62 90.9494
152.451 135.107 90.3488
153.5 135.768 88.7502
152.157 134.96 88.4899
152.45 136.051 87.3194
151.224 135.478 87.0514
150.986 136.951 86.6155
150.713 137.028 98.4947
151.13 137.612 99.6486
151.798 137.357 97.8942
152.103 136.785 96.3997
151.125 136.109 95.9899
149.364 137.695 86.3789
149.39 137.131 101.353
149.537 138.995 102.339
150.992 138.167 101.344
149.797 136.536 98.3686
148.239 136.519 86.3784
146.718 136.793 86.1325
148.253 138.775 101.267
147.652 138.247 100.304
145.397 137.322 86.205
146.491 137.808 86.4218
145.812 138.539 86.9445
146.757 138.388 98.761
145.523 138.383 97.8972
144.951 138.422 95.716
146.443 138.676 96.6987
144.667 138.882 93.8312
146.22 138.902 94.8713
145.831 139.332 93.3545
144.028 137.612 86.5108
144.544 138.899 87.6945
143.281 138.757 94.0273
144.717 139.391 92.4101
143.445 139.175 92.0518
143.188 139.281 89.8163
144.598 139.452 90.9806
143.165 138.585 87.9513
144.427 139.515 89.1507
142.364 137.622 86.7597
141.928 138.402 94.5279
142.025 138.53 92.769
142.343 138.945 90.8751
141.883 138.457 88.7522
141.307 138.344 90.6541
154.507 137.056 94.4941
154.967 137.789 95.5437
155.729 137.407 94.0648
155.744 137.229 92.5351
154.766 136.431 91.842
156.048 137.135 90.1312
154.809 136.155 89.5958
155.423 137.454 88.5681
154.335 136.67 87.7179
154.094 138.512 87.5932
153.015 137.564 97.3137
153.573 138.559 98.4058
154.138 138.218 96.9379
153.434 136.555 94.7052
152.854 137.294 87.019
150.995 138.359 86.7302
152.198 138.252 100.049
151.393 139.922 101.656
153.003 138.874 100.143
149.672 139.179 86.9531
149.841 140.175 101.082
147.653 138.24 86.5737
148.367 139.341 87.2764
148.736 139.733 100.948
147.399 139.197 97.8394
148.261 139.696 99.2249
147.433 139.272 95.6335
148.528 139.773 96.7721
147.077 139.57 93.4589
148.559 139.926 94.7558
146.899 140.182 91.4143
148.216 140.266 92.7502
146.818 140.142 89.5146
148.122 140.714 90.6694
146.926 139.421 87.6827
148.081 140.429 88.7792
145.974 139.841 91.9383
145.621 139.981 90.2939
145.647 139.546 88.4401
156.887 138.018 93.6823
156.971 138.855 95.3178
157.889 138.815 94.0177
158.275 138.857 92.4422
157.111 137.785 91.5394
157.799 139.046 90.5726
156.942 138.286 89.5361
156.572 140.343 89.2421
155.311 138.617 96.5831
155.322 139.549 97.9351
156.309 139.262 96.6463
155.636 139.152 88.5586
154.044 140.069 88.069
153.347 139.866 101.613
154.342 141.446 102.586
154.628 140.424 101.071
154.988 140.113 99.6779
153.754 139.26 99.7678
152.332 138.949 87.148
152.47 140.173 87.9695
152.246 141.013 102.379
150.499 140.842 99.8117
151.837 141.56 100.721
150.651 140.754 97.5271
151.64 141.379 98.6585
151.678 141.514 96.6126
150.689 139.905 87.6522
150.861 140.767 88.8106
149.318 140.316 99.5545
149.465 140.224 97.8313
150.844 141.077 95.6866
149.786 140.373 95.535
149.497 140.624 93.394
150.687 141.317 93.9333
149.251 141.163 91.4501
150.539 141.408 92.2169
149.316 140.954 89.2843
150.444 141.354 90.3756
149.15 140.098 87.9025
158.771 139.739 94.587
158.957 140.608 96.1542
160.257 141.797 95.3558
159.802 141.038 93.7188
159.041 140.098 92.4714
159.167 141.775 91.87
157.388 139.88 96.5144
157.792 141.101 97.8377
158.427 140.966 96.9273
158.142 140.656 90.7123
156.833 141.898 89.9039
155.667 141.064 100.78
155.566 142.083 102.593
156.411 141.72 101.127
156.871 141.617 99.6256
156.278 140.478 98.4358
154.593 141.05 88.9021
155.081 142.069 89.803
154.288 142.924 101.944
152.994 142.108 101.862
153.168 142.432 100.38
154.148 143.336 99.9632
153.903 143.049 98.633
153.027 142.052 90.2024
153.972 142.567 90.7421
153.11 142.593 92.1941
153.102 141.159 88.7074
152.713 142.161 98.7281
151.876 141.772 94.5145
152.756 142.231 96.645
151.995 141.938 92.3492
152.894 142.451 94.3194
151.544 141.52 90.9146
151.881 141.297 89.395
159.645 141.921 96.9859
159.598 142.582 98.2878
160.652 143.556 97.0829
160.508 143.395 94.7831
159.837 142.867 93.1954
158.582 143.858 92.1815
157.285 142.372 101.466
157.905 143.316 102.65
158.51 143.206 101.242
158.826 142.921 99.8427
158.28 141.965 98.9784
157.781 142.767 90.9859
156.034 143.133 90.8029
156.224 142.703 103.781
156.125 144.023 105.608
157.245 143.336 104.035
154.676 143.138 91.5443
155.614 143.726 91.8017
155.231 144.181 93.0029
154.895 143.438 103.641
155.102 144.037 102.129
155.019 144.168 100.378
153.837 143.196 97.119
155.048 144.244 98.3855
153.784 143.203 95.2521
154.876 144.31 96.6013
153.969 143.366 93.3282
154.794 144.395 94.7664
159.571 144.073 101.151
159.523 144.536 102.876
160.796 145.406 101.596
160.812 144.691 99.3632
160.071 143.421 99.118
160.823 145.312 97.2191
160.583 144.9 95.4168
159.888 144.752 93.7499
158.478 145.345 92.9874
157.706 144.179 106.353
158.669 144.911 108.014
159.134 144.976 106.105
159.217 144.765 104.641
158.059 143.895 104.119
156.597 144.243 92.0127
157.053 145.382 93.0902
156.745 145.321 107.741
155.657 144.71 103.599
156.117 145.661 105.64
155.767 145.216 101.559
156.09 146.245 103.463
155.702 145.494 99.5554
156.011 146.773 101.213
155.681 145.819 97.6886
156.033 147.127 99.2447
155.682 145.656 95.9336
156.284 147.506 97.4042
155.879 145.205 94.0576
156.442 146.506 95.3064
160.283 145.792 105.981
160.902 147.202 108.002
161.424 147.434 105.491
161.155 146.632 103.646
160.214 145.408 103.554
161.132 146.964 101.137
160.983 146.401 99.5134
160.854 146.994 97.7559
160.236 146.692 95.8552
159.177 146.274 94.3881
158.937 147.381 95.373
159.851 145.704 108.607
159.032 146.337 110.722
160.686 147.578 110.176
157.48 147.231 95.377
158.137 148.229 96.3923
157.1 148.348 97.578
157.612 146.232 93.8039
157.654 146.18 109.388
156.938 147.17 107.765
156.522 147.143 106.043
156.358 147.62 104.094
156.261 147.995 101.998
156.453 148.614 99.9162
161.156 148.597 107.328
161.062 149.189 105.224
161.145 148.602 103.455
160.914 148.304 101.776
160.567 148.205 99.5872
159.792 148.439 98.0112
158.956 149.269 99.4689
159.43 148.075 96.6566
158.736 148.158 110.301
160.036 149.265 108.856
158.017 148.886 98.234
157.428 149.309 100.425
157.709 148.192 108.811
157.271 148.488 106.753
157.007 148.803 104.819
156.922 149.1 102.622
159.947 149.573 106.665
159.705 149.431 104.605
159.739 149.403 102.75
159.787 149.171 100.859
158.606 149.018 107.719
158.389 149.255 105.752
158.18 149.397 103.751
158.334 149.679 101.667
POLYGONS 1460  5840
3 0 1 2
3 0 3 4
3 2 3 0
3 4 5 6
3 3 5 4
3 5 7 6
3 8 1 0
3 9 1 8
3 4 10 0
3 10 8 0
3 6 11 4
3 11 10 4
3 12 6 7
3 11 6 12
3 13 14 15
3 9 13 15
3 9 8 13
3 8 16 13
3 10 17 8
3 17 16 8
3 11 18 10
3 18 17 10
3 19 11 12
3 18 11 19
3 20 14 13
3 21 14 20
3 16 22 13
3 22 20 13
3 23 17 24
3 23 22 17
3 22 16 17
3 18 24 17
3 25 24 18
3 19 25 18
3 20 26 21
3 22 26 20
3 27 26 22
3 23 27 22
3 28 29 30
3 28 31 32
3 30 31 28
3 32 33 34
3 31 33 32
3 34 35 36
3 33 35 34
3 35 37 36
3 38 39 40
3 29 38 40
3 28 38 29
3 28 1 38
3 28 2 1
3 3 2 28
3 32 3 28
3 5 3 32
3 34 5 32
3 7 5 34
3 7 34 41
3 41 34 36
3 42 36 37
3 41 36 42
3 43 44 45
3 39 43 45
3 39 38 43
3 38 46 43
3 1 9 46
3 38 1 46
3 41 47 12
3 7 41 12
3 48 41 42
3 47 41 48
3 49 44 43
3 50 44 49
3 15 14 49
3 15 49 46
3 46 49 43
3 9 15 46
3 47 51 52
3 47 52 12
3 12 52 19
3 48 51 47
3 53 50 49
3 54 50 53
3 14 21 53
3 49 14 53
3 55 56 57
3 55 23 24
3 55 24 56
3 56 24 58
3 25 59 24
3 24 59 58
3 52 25 19
3 59 25 52
3 53 60 54
3 21 60 53
3 21 26 60
3 26 61 60
3 57 27 55
3 57 61 27
3 61 26 27
3 23 55 27
3 62 63 64
3 62 65 66
3 64 65 62
3 65 67 66
3 68 69 70
3 68 71 72
3 70 71 68
3 72 73 74
3 71 73 72
3 63 74 73
3 63 62 74
3 62 75 74
3 66 76 62
3 76 75 62
3 77 66 67
3 77 78 66
3 78 76 66
3 77 79 78
3 80 81 82
3 69 80 82
3 69 68 80
3 68 83 80
3 30 29 83
3 30 83 72
3 72 83 68
3 31 30 72
3 74 31 72
3 33 31 74
3 75 33 74
3 35 33 75
3 76 35 75
3 37 35 76
3 37 76 84
3 84 76 78
3 85 78 79
3 84 78 85
3 86 87 88
3 81 86 88
3 81 80 86
3 80 89 86
3 40 39 89
3 40 89 83
3 83 89 80
3 29 40 83
3 84 90 42
3 37 84 42
3 91 84 85
3 90 84 91
3 92 87 86
3 93 87 92
3 45 44 92
3 45 92 89
3 89 92 86
3 39 45 89
3 90 94 95
3 90 95 42
3 42 95 48
3 91 94 90
3 96 97 98
3 93 96 98
3 93 92 96
3 92 99 96
3 44 50 99
3 92 44 99
3 51 100 101
3 52 51 101
3 95 51 48
3 100 51 95
3 96 102 97
3 102 103 104
3 102 96 103
3 96 99 103
3 50 54 103
3 99 50 103
3 105 106 107
3 105 57 56
3 105 56 106
3 106 56 108
3 58 109 56
3 56 109 108
3 59 110 58
3 58 110 109
3 101 59 52
3 110 59 101
3 103 111 104
3 54 111 103
3 54 60 111
3 60 112 111
3 107 61 105
3 107 112 61
3 112 60 61
3 57 105 61
3 113 114 115
3 113 116 117
3 115 116 113
3 117 118 119
3 116 118 117
3 119 120 121
3 118 120 119
3 120 122 121
3 123 124 125
3 123 126 127
3 125 126 123
3 114 127 126
3 114 113 127
3 113 128 127
3 64 63 128
3 64 128 117
3 117 128 113
3 65 64 117
3 119 65 117
3 67 65 119
3 67 119 129
3 129 119 121
3 130 121 122
3 129 121 130
3 131 132 133
3 124 131 133
3 123 131 124
3 123 69 131
3 123 70 69
3 71 70 123
3 127 71 123
3 73 71 127
3 128 73 127
3 63 73 128
3 67 129 77
3 129 79 77
3 129 130 79
3 130 134 79
3 135 136 137
3 132 135 137
3 131 135 132
3 131 81 135
3 131 82 81
3 69 82 131
3 79 134 85
3 134 138 85
3 139 140 141
3 136 139 141
3 135 139 136
3 135 87 139
3 135 88 87
3 81 88 135
3 85 138 91
3 138 142 91
3 143 140 139
3 144 140 143
3 87 93 143
3 139 87 143
3 94 145 146
3 95 94 146
3 142 94 91
3 145 94 142
3 98 144 143
3 98 97 144
3 97 147 144
3 93 98 143
3 148 149 150
3 148 151 152
3 149 148 152
3 151 153 154
3 152 151 154
3 153 101 100
3 153 100 154
3 154 100 155
3 146 100 95
3 155 100 146
3 97 156 147
3 102 156 97
3 104 157 158
3 104 158 102
3 102 158 156
3 157 159 160
3 158 157 160
3 159 107 106
3 159 106 160
3 160 106 161
3 150 108 148
3 150 161 108
3 161 106 108
3 109 148 108
3 151 148 109
3 110 151 109
3 153 151 110
3 101 153 110
3 104 111 157
3 112 157 111
3 159 157 112
3 107 159 112
3 162 163 164
3 162 165 166
3 164 165 162
3 166 167 168
3 165 167 166
3 168 169 170
3 167 169 168
3 169 171 170
3 172 173 174
3 172 175 176
3 174 175 172
3 163 176 175
3 162 176 163
3 162 114 176
3 162 115 114
3 116 115 162
3 166 116 162
3 118 116 166
3 168 118 166
3 120 118 168
3 170 120 168
3 170 122 120
3 170 171 122
3 171 177 122
3 178 179 180
3 173 178 180
3 172 178 173
3 172 124 178
3 172 125 124
3 126 125 172
3 176 126 172
3 114 126 176
3 181 182 130
3 181 130 177
3 177 130 122
3 181 183 182
3 184 185 186
3 179 184 186
3 178 184 179
3 178 132 184
3 178 133 132
3 124 133 178
3 182 187 134
3 130 182 134
3 188 182 183
3 187 182 188
3 137 185 184
3 137 136 185
3 136 189 185
3 132 137 184
3 187 190 191
3 187 191 134
3 134 191 138
3 188 190 187
3 141 192 193
3 140 192 141
3 189 136 141
3 193 189 141
3 138 191 142
3 191 194 142
3 140 144 192
3 192 144 195
3 196 197 198
3 196 199 200
3 197 196 200
3 199 201 202
3 200 199 202
3 201 146 145
3 201 145 202
3 202 145 203
3 194 145 142
3 203 145 194
3 144 147 195
3 195 147 204
3 205 206 207
3 205 208 209
3 206 205 209
3 208 210 211
3 209 208 211
3 210 150 149
3 210 149 211
3 211 149 212
3 198 152 196
3 198 212 152
3 212 149 152
3 154 196 152
3 199 196 154
3 155 199 154
3 201 199 155
3 146 201 155
3 147 213 204
3 156 213 147
3 207 158 205
3 207 213 158
3 213 156 158
3 160 205 158
3 208 205 160
3 161 208 160
3 210 208 161
3 150 210 161
3 214 215 216
3 214 217 218
3 216 217 214
3 218 219 220
3 217 219 218
3 220 221 222
3 219 221 220
3 221 223 222
3 224 225 226
3 215 224 226
3 214 224 215
3 214 163 224
3 214 164 163
3 165 164 214
3 218 165 214
3 167 165 218
3 220 167 218
3 169 167 220
3 222 169 220
3 171 227 228
3 169 227 171
3 169 223 227
3 169 222 223
3 227 229 228
3 230 231 232
3 230 174 173
3 230 232 174
3 232 233 174
3 225 224 175
3 225 175 233
3 233 175 174
3 163 175 224
3 228 234 177
3 171 228 177
3 235 228 229
3 234 228 235
3 180 231 230
3 180 179 231
3 179 236 231
3 173 180 230
3 177 234 181
3 234 183 181
3 234 235 183
3 235 237 183
3 186 238 239
3 185 238 186
3 236 179 186
3 239 236 186
3 183 237 188
3 237 240 188
3 185 189 238
3 238 189 241
3 190 242 243
3 191 190 243
3 240 190 188
3 242 190 240
3 193 244 245
3 192 244 193
3 241 189 193
3 245 241 193
3 246 247 248
3 246 249 250
3 247 246 250
3 249 243 250
3 249 194 243
3 194 191 243
3 251 195 252
3 251 244 195
3 244 192 195
3 252 253 254
3 251 252 254
3 253 255 256
3 254 253 256
3 255 257 258
3 256 255 258
3 257 259 260
3 258 257 260
3 259 198 197
3 259 197 260
3 260 197 261
3 200 262 197
3 197 262 261
3 248 202 246
3 248 262 202
3 262 200 202
3 203 246 202
3 249 246 203
3 194 249 203
3 252 204 263
3 195 204 252
3 206 263 207
3 206 253 263
3 253 252 263
3 209 253 206
3 255 253 209
3 211 255 209
3 257 255 211
3 212 257 211
3 259 257 212
3 198 259 212
3 204 213 263
3 207 263 213
3 264 265 266
3 264 267 268
3 266 267 264
3 268 269 270
3 267 269 268
3 270 271 272
3 269 271 270
3 271 273 272
3 274 275 276
3 265 274 276
3 264 274 265
3 264 215 274
3 264 216 215
3 217 216 264
3 268 217 264
3 219 217 268
3 270 219 268
3 221 219 270
3 272 221 270
3 223 277 278
3 221 277 223
3 221 273 277
3 221 272 273
3 277 279 278
3 280 281 282
3 275 280 282
3 274 280 275
3 274 225 280
3 274 226 225
3 215 226 274
3 223 278 227
3 278 229 227
3 278 279 229
3 279 283 229
3 232 231 284
3 280 285 281
3 280 232 285
3 280 233 232
3 284 285 232
3 225 233 280
3 229 283 235
3 283 286 235
3 284 287 288
3 284 231 287
3 231 236 287
3 285 284 288
3 235 286 237
3 286 289 237
3 239 238 290
3 239 290 291
3 239 291 236
3 236 291 287
3 292 293 294
3 292 289 293
3 292 240 289
3 240 237 289
3 290 241 295
3 238 241 290
3 296 291 290
3 295 296 290
3 297 298 299
3 294 298 297
3 292 294 297
3 292 297 243
3 292 243 242
3 240 292 242
3 245 244 300
3 245 295 241
3 245 300 295
3 300 301 295
3 302 296 295
3 302 295 303
3 303 295 301
3 303 304 305
3 302 303 305
3 304 306 307
3 305 304 307
3 306 308 309
3 307 306 309
3 308 310 311
3 309 308 311
3 310 248 247
3 310 247 311
3 311 247 312
3 299 250 297
3 299 312 250
3 312 247 250
3 243 297 250
3 244 251 300
3 254 300 251
3 301 300 254
3 256 301 254
3 303 301 256
3 258 303 256
3 304 303 258
3 260 304 258
3 306 304 260
3 261 306 260
3 308 306 261
3 262 308 261
3 310 308 262
3 248 310 262
3 313 314 315
3 313 316 317
3 315 316 313
3 316 318 317
3 319 320 321
3 314 319 321
3 314 313 319
3 313 322 319
3 317 323 313
3 323 322 313
3 324 317 318
3 324 325 317
3 325 323 317
3 325 326 327
3 324 326 325
3 326 328 327
3 329 330 331
3 320 329 331
3 319 329 320
3 319 265 329
3 319 266 265
3 267 266 319
3 322 267 319
3 269 267 322
3 323 269 322
3 271 269 323
3 325 271 323
3 273 271 325
3 273 325 332
3 332 325 327
3 333 327 328
3 332 327 333
3 334 335 336
3 330 334 336
3 329 334 330
3 329 275 334
3 329 276 275
3 265 276 329
3 273 332 277
3 332 279 277
3 332 333 279
3 333 337 279
3 338 281 339
3 338 335 281
3 282 281 334
3 334 281 335
3 282 334 275
3 339 340 338
3 279 337 283
3 337 341 283
3 339 342 343
3 339 281 342
3 281 285 342
3 340 339 343
3 283 341 286
3 341 344 286
3 288 287 345
3 288 345 346
3 288 346 285
3 285 346 342
3 347 348 349
3 347 344 348
3 347 289 344
3 289 286 344
3 345 291 350
3 287 291 345
3 351 346 345
3 351 345 352
3 352 345 350
3 352 353 354
3 351 352 354
3 353 355 356
3 354 353 356
3 355 357 358
3 356 355 358
3 357 359 360
3 358 357 360
3 359 361 362
3 360 359 362
3 349 362 361
3 347 349 361
3 347 361 294
3 347 294 293
3 289 347 293
3 350 296 363
3 291 296 350
3 352 350 364
3 364 350 363
3 353 352 365
3 365 352 364
3 355 353 366
3 366 353 365
3 357 355 367
3 367 355 366
3 359 357 368
3 368 357 367
3 298 368 299
3 298 361 368
3 361 359 368
3 294 361 298
3 296 302 363
3 305 363 302
3 364 363 305
3 307 364 305
3 365 364 307
3 309 365 307
3 366 365 309
3 311 366 309
3 367 366 311
3 312 367 311
3 368 367 312
3 299 368 312
3 369 370 371
3 369 372 373
3 371 372 369
3 373 374 375
3 372 374 373
3 374 376 375
3 377 378 379
3 377 380 381
3 379 380 377
3 370 381 380
3 369 381 370
3 369 314 381
3 369 315 314
3 316 315 369
3 373 316 369
3 318 316 373
3 318 373 382
3 382 373 375
3 383 375 376
3 383 384 375
3 384 382 375
3 383 385 384
3 386 387 388
3 378 386 388
3 378 377 386
3 377 389 386
3 321 320 389
3 321 389 381
3 381 389 377
3 314 321 381
3 318 382 324
3 326 324 382
3 384 326 382
3 384 328 326
3 384 385 328
3 385 390 328
3 391 387 386
3 392 387 391
3 331 330 391
3 331 391 389
3 389 391 386
3 320 331 389
3 328 390 333
3 390 393 333
3 394 335 395
3 394 392 335
3 336 335 391
3 391 335 392
3 336 391 330
3 395 396 394
3 333 393 337
3 393 397 337
3 335 338 395
3 340 398 399
3 338 340 399
3 338 399 396
3 338 396 395
3 399 398 400
3 337 397 341
3 397 401 341
3 343 342 402
3 343 398 340
3 343 402 398
3 402 403 398
3 404 400 398
3 403 404 398
3 405 406 407
3 405 401 406
3 405 344 401
3 344 341 401
3 402 346 408
3 342 346 402
3 403 402 409
3 409 402 408
3 410 404 403
3 410 403 411
3 411 403 409
3 411 412 413
3 410 411 413
3 412 414 415
3 413 412 415
3 414 416 417
3 415 414 417
3 407 417 416
3 405 407 416
3 405 416 349
3 405 349 348
3 344 405 348
3 346 351 408
3 354 408 351
3 409 408 354
3 356 409 354
3 411 409 356
3 358 411 356
3 412 411 358
3 360 412 358
3 414 412 360
3 362 414 360
3 416 414 362
3 349 416 362
3 418 419 420
3 418 421 422
3 420 421 418
3 422 423 424
3 421 423 422
3 424 425 426
3 423 425 424
3 425 427 426
3 428 429 430
3 419 428 430
3 419 418 428
3 418 431 428
3 371 370 431
3 371 431 422
3 422 431 418
3 372 371 422
3 424 372 422
3 374 372 424
3 426 374 424
3 376 432 433
3 374 432 376
3 374 427 432
3 374 426 427
3 432 434 433
3 435 436 437
3 429 435 437
3 428 435 429
3 428 378 435
3 428 379 378
3 380 379 428
3 431 380 428
3 370 380 431
3 376 433 383
3 433 385 383
3 433 434 385
3 434 438 385
3 388 436 435
3 388 387 436
3 387 439 436
3 378 388 435
3 385 438 390
3 438 440 390
3 441 392 442
3 441 439 392
3 439 387 392
3 442 443 444
3 441 442 444
3 444 443 445
3 390 440 393
3 440 446 393
3 392 394 442
3 396 442 394
3 396 447 442
3 447 443 442
3 448 445 443
3 447 448 443
3 449 450 451
3 449 446 450
3 449 397 446
3 397 393 446
3 396 399 447
3 400 452 453
3 399 400 453
3 399 453 448
3 399 448 447
3 452 454 455
3 453 452 455
3 455 454 456
3 457 458 459
3 451 458 457
3 451 457 449
3 449 457 460
3 397 460 401
3 449 460 397
3 452 404 461
3 400 404 452
3 454 452 462
3 462 452 461
3 463 456 454
3 463 454 464
3 464 454 462
3 459 463 464
3 459 464 457
3 457 464 465
3 406 465 407
3 406 460 465
3 460 457 465
3 401 460 406
3 404 410 461
3 413 461 410
3 462 461 413
3 415 462 413
3 464 462 415
3 417 464 415
3 465 464 417
3 407 465 417
3 466 467 468
3 466 469 470
3 468 469 466
3 470 471 472
3 469 471 470
3 472 473 474
3 471 473 472
3 473 475 474
3 476 477 478
3 476 479 480
3 478 479 476
3 467 480 479
3 466 480 467
3 466 419 480
3 466 420 419
3 421 420 466
3 470 421 466
3 423 421 470
3 472 423 470
3 425 423 472
3 474 425 472
3 474 427 425
3 474 475 427
3 475 481 427
3 482 483 484
3 477 482 484
3 477 476 482
3 476 485 482
3 430 429 485
3 430 485 480
3 480 485 476
3 419 430 480
3 427 481 486
3 432 427 486
3 486 434 432
3 487 434 486
3 482 488 483
3 437 436 489
3 437 489 482
3 437 482 485
3 482 489 488
3 429 437 485
3 490 491 492
3 490 487 491
3 490 438 487
3 438 434 487
3 493 439 494
3 493 489 439
3 489 436 439
3 494 495 496
3 493 494 496
3 495 497 498
3 496 495 498
3 498 497 499
3 500 490 492
3 501 500 492
3 438 500 440
3 490 500 438
3 439 441 494
3 444 494 441
3 495 494 444
3 445 495 444
3 445 502 495
3 502 497 495
3 503 499 497
3 503 497 504
3 504 497 502
3 504 505 506
3 503 504 506
3 505 507 508
3 506 505 508
3 501 508 507
3 501 507 500
3 500 507 509
3 440 509 446
3 500 509 440
3 502 448 510
3 445 448 502
3 504 502 511
3 511 502 510
3 505 504 512
3 512 504 511
3 507 505 513
3 513 505 512
3 450 513 451
3 450 509 513
3 509 507 513
3 446 509 450
3 448 453 510
3 455 510 453
3 511 510 455
3 456 511 455
3 456 514 511
3 514 512 511
3 458 514 459
3 458 513 514
3 513 512 514
3 451 513 458
3 456 463 514
3 459 514 463
3 515 516 517
3 515 518 519
3 517 518 515
3 519 520 521
3 518 520 519
3 521 522 523
3 520 522 521
3 522 524 523
3 525 526 527
3 516 525 527
3 516 515 525
3 515 528 525
3 468 467 528
3 468 528 519
3 519 528 515
3 469 468 519
3 521 469 519
3 471 469 521
3 523 471 521
3 523 524 529
3 523 529 471
3 471 529 473
3 529 475 473
3 530 475 529
3 531 532 533
3 526 531 533
3 525 531 526
3 525 477 531
3 525 478 477
3 479 478 525
3 528 479 525
3 467 479 528
3 475 530 481
3 530 534 481
3 484 532 531
3 484 483 532
3 483 535 532
3 477 484 531
3 536 486 481
3 536 481 537
3 537 481 534
3 486 536 487
3 483 538 535
3 488 538 483
3 489 539 540
3 489 540 488
3 488 540 538
3 539 541 542
3 540 539 542
3 541 543 544
3 542 541 544
3 543 545 546
3 544 543 546
3 545 547 548
3 546 545 548
3 547 549 550
3 548 547 550
3 537 550 549
3 536 537 549
3 536 549 492
3 536 492 491
3 487 536 491
3 489 493 539
3 496 539 493
3 541 539 496
3 498 541 496
3 543 541 498
3 499 543 498
3 499 551 543
3 551 545 543
3 547 545 552
3 552 545 551
3 549 547 553
3 553 547 552
3 492 553 501
3 549 553 492
3 499 503 551
3 506 551 503
3 552 551 506
3 508 552 506
3 553 552 508
3 501 553 508
3 554 555 556
3 554 557 558
3 556 557 554
3 558 559 560
3 557 559 558
3 559 561 560
3 562 563 564
3 555 562 564
3 554 562 555
3 554 516 562
3 554 517 516
3 518 517 554
3 558 518 554
3 520 518 558
3 560 520 558
3 560 561 565
3 560 565 520
3 520 565 522
3 565 524 522
3 566 524 565
3 567 568 569
3 567 570 571
3 569 570 567
3 563 571 570
3 562 571 563
3 562 526 571
3 562 527 526
3 516 527 562
3 572 529 524
3 572 524 573
3 573 524 566
3 529 572 530
3 567 574 568
3 571 532 567
3 571 533 532
3 567 532 574
3 575 576 532
3 574 532 576
3 575 577 578
3 575 578 576
3 571 526 533
3 578 577 579
3 580 572 573
3 581 580 573
3 530 580 534
3 572 580 530
3 575 535 582
3 532 535 575
3 577 575 583
3 583 575 582
3 584 579 577
3 584 577 585
3 585 577 583
3 585 586 587
3 584 585 587
3 586 588 589
3 587 586 589
3 588 590 591
3 589 588 591
3 581 591 590
3 581 590 580
3 580 590 592
3 534 592 537
3 580 592 534
3 535 538 582
3 540 582 538
3 583 582 540
3 542 583 540
3 585 583 542
3 544 585 542
3 586 585 544
3 546 586 544
3 588 586 546
3 548 588 546
3 590 588 548
3 550 590 548
3 592 590 550
3 537 592 550
3 593 594 595
3 593 596 597
3 595 596 593
3 596 598 597
3 599 600 601
3 594 599 601
3 593 599 594
3 593 555 599
3 593 556 555
3 557 556 593
3 597 557 593
3 597 598 602
3 597 602 557
3 557 602 559
3 602 561 559
3 603 561 602
3 604 605 606
3 604 607 608
3 606 607 604
3 600 608 607
3 599 608 600
3 599 563 608
3 599 564 563
3 555 564 599
3 609 565 561
3 609 561 610
3 610 561 603
3 565 609 566
3 611 568 612
3 611 605 568
3 569 568 604
3 604 568 605
3 613 614 611
3 613 611 612
3 608 570 604
3 604 570 569
3 570 608 563
3 613 615 614
3 616 617 618
3 610 617 616
3 610 616 609
3 609 616 619
3 566 619 573
3 609 619 566
3 568 574 612
3 576 612 574
3 613 612 576
3 613 620 615
3 613 576 620
3 576 578 620
3 579 621 622
3 579 622 578
3 578 622 620
3 621 623 624
3 622 621 624
3 618 624 623
3 618 623 616
3 616 623 625
3 619 616 626
3 626 616 625
3 573 626 581
3 619 626 573
3 579 584 621
3 587 621 584
3 623 621 587
3 589 623 587
3 625 623 589
3 591 625 589
3 626 625 591
3 581 626 591
3 627 628 629
3 627 595 594
3 627 629 595
3 629 630 595
3 596 595 631
3 595 630 631
3 631 598 596
3 632 598 631
3 633 634 635
3 633 636 637
3 635 636 633
3 628 637 636
3 627 637 628
3 627 600 637
3 627 601 600
3 594 601 627
3 598 632 638
3 602 598 638
3 638 603 602
3 639 603 638
3 640 641 642
3 634 640 642
3 633 640 634
3 633 605 640
3 633 606 605
3 607 606 633
3 637 607 633
3 600 607 637
3 643 644 645
3 643 639 644
3 643 610 639
3 610 603 639
3 640 646 641
3 605 646 640
3 605 611 646
3 611 647 646
3 614 648 611
3 611 648 647
3 615 649 650
3 615 650 614
3 614 650 648
3 649 651 652
3 650 649 652
3 651 653 654
3 652 651 654
3 645 654 653
3 643 645 653
3 643 653 618
3 643 618 617
3 610 643 617
3 615 620 649
3 622 649 620
3 651 649 622
3 624 651 622
3 653 651 624
3 618 653 624
3 655 656 657
3 655 658 659
3 657 658 655
3 659 629 628
3 659 658 629
3 658 660 629
3 630 629 661
3 629 660 661
3 631 630 662
3 630 661 662
3 662 632 631
3 663 632 662
3 664 665 666
3 664 667 668
3 666 667 664
3 656 668 667
3 655 668 656
3 655 634 668
3 655 635 634
3 636 635 655
3 659 636 655
3 628 636 659
3 669 638 632
3 669 632 670
3 670 632 663
3 638 669 639
3 664 671 665
3 668 641 664
3 668 642 641
3 664 641 671
3 672 673 641
3 671 641 673
3 672 674 675
3 672 675 673
3 668 634 642
3 674 676 677
3 675 674 677
3 676 678 679
3 677 676 679
3 678 680 681
3 679 678 681
3 680 682 683
3 681 680 683
3 670 683 682
3 669 670 682
3 669 682 645
3 669 645 644
3 639 669 644
3 641 646 672
3 647 672 646
3 674 672 647
3 648 674 647
3 676 674 648
3 650 676 648
3 678 676 650
3 652 678 650
3 680 678 652
3 654 680 652
3 682 680 654
3 645 682 654
3 684 685 686
3 684 687 688
3 686 687 684
3 688 657 656
3 688 687 657
3 687 689 657
3 658 657 690
3 657 689 690
3 660 658 691
3 658 690 691
3 661 660 692
3 660 691 692
3 693 692 694
3 693 662 692
3 662 661 692
3 662 693 663
3 695 696 697
3 685 695 697
3 684 695 685
3 684 665 695
3 684 666 665
3 667 666 684
3 688 667 684
3 656 667 688
3 698 699 700
3 694 699 698
3 694 698 693
3 693 698 701
3 663 701 670
3 693 701 663
3 695 702 696
3 665 702 695
3 665 671 702
3 671 703 702
3 673 704 671
3 671 704 703
3 675 705 673
3 673 705 704
3 677 706 675
3 675 706 705
3 679 707 677
3 677 707 706
3 700 681 698
3 700 707 681
3 707 679 681
3 683 698 681
3 701 698 683
3 670 701 683
3 686 708 709
3 685 708 686
3 687 686 710
3 686 709 710
3 689 687 711
3 687 710 711
3 690 689 712
3 689 711 712
3 713 712 714
3 713 691 712
3 691 690 712
3 691 715 692
3 713 715 691
3 692 715 694
3 697 696 716
3 697 716 717
3 697 717 685
3 685 717 708
3 718 713 714
3 719 718 714
3 699 718 700
3 699 715 718
3 715 713 718
3 694 715 699
3 696 702 716
3 716 720 717
3 716 702 720
3 702 703 720
3 704 721 703
3 703 721 720
3 705 722 704
3 704 722 721
3 706 723 705
3 705 723 722
3 719 707 718
3 719 723 707
3 723 706 707
3 700 718 707
3 709 708 724
3 709 725 710
3 724 725 709
3 710 726 711
3 725 726 710
3 711 727 712
3 726 727 711
3 712 727 714
3 724 717 728
3 708 717 724
3 725 724 729
3 729 724 728
3 726 725 730
3 730 725 729
3 727 726 731
3 731 726 730
3 714 731 719
3 727 731 714
3 717 720 728
3 721 728 720
3 729 728 721
3 722 729 721
3 730 729 722
3 723 730 722
3 731 730 723
3 719 731 723
