# vtk DataFile Version 3.0
this file was written using fslvtkio
ASCII
DATASET POLYDATA
POINTS 642 float
139.276 134.939 125.55
136.404 146.105 128.915
135.062 144.937 134.284
137.828 134.346 131.999
144.029 139.325 129.281
133.108 132.954 130.52
129.77 141.492 131.889
142.322 148.029 130.846
138.49 140.965 127.738
138.787 141.648 135.27
133.16 137.353 137.144
136.025 139.739 125.318
141.188 145.104 129.925
142.453 141.453 129
143.654 143.585 130.947
140.724 145.593 133.343
142.137 140.978 133.141
132.985 139.291 128.624
129.62 134.127 130.999
134.113 135.266 127.023
129.751 138.992 136.25
131.99 131.282 134.431
140.825 137.037 131.241
140.231 137.739 128.354
138.572 133.402 128.993
135.397 132.657 132.017
136.171 134.652 127.296
138.333 145.693 130.415
138.603 146.845 132.453
134.681 146.962 132.454
133.601 142.318 129.854
131.697 143.882 134.738
137.826 135.812 123.532
139.526 137.8 125.943
137.712 142.33 125.72
135.744 144.703 126.175
138.038 146.628 127.825
134.868 133.542 135.256
136.248 139.055 137.038
138.449 138.092 134.267
132.691 142.402 137.258
136.817 143.727 135.471
142.51 144.09 129.697
143.756 142.075 130.555
142.68 144.6 131.096
144.546 141.13 130.313
143.955 140.73 129.114
139.973 140.993 128.922
139.291 142.997 129.314
142.827 145.302 130.858
143.189 146.879 131.161
142.547 145.996 132.503
143.256 142.311 131.904
141.732 143.608 133.005
143.291 140.403 131.141
141.656 147.607 132.551
140.052 143.682 134.811
140.67 141.788 134.236
131.045 136.766 130.025
131.814 134.135 129.401
133.56 137.354 128.73
133.452 134.341 129.172
131.349 132.106 130.501
129.165 138.055 131.358
131.014 139.647 130.09
134.131 139.598 125.923
134.941 137.27 125.423
130.48 135.008 135.411
130.83 133.694 133.007
129.225 136.281 133.162
132.379 131.821 132.244
132.543 134.311 136.536
131.726 137.367 137.328
129.249 140.435 133.867
140.54 138.105 129.451
139.386 133.77 128.349
139.788 135.727 129.818
138.832 134.646 127.217
140.471 135.566 125.902
142.141 138.623 128.419
142.368 139.021 130.007
139.314 135.743 131.621
138.076 134.863 130.786
136.909 134.014 130.186
137.586 133.649 128.086
135.586 135.204 130.605
137.657 135.104 126.549
136.368 133.737 132.304
133.95 133.94 131.791
134.671 134.875 129.298
138.114 145.892 131.345
136.568 148.09 132.834
136.064 147.483 131.124
135.123 146.869 133.865
136.935 145.911 133.379
140.574 146.927 131.4
140.554 144.548 130.065
137.673 147.801 128.643
135.8 147.572 130.412
134 145.637 130.993
133.376 145.786 133.636
132.786 142.874 132.492
133.487 145.098 134.767
135.13 144.558 128.548
131.671 141.867 131.276
130.701 142.651 133.589
139.108 136.547 123.818
138.791 139.727 125.298
138.113 138.806 123.912
138.06 141.905 127.164
139.121 139.545 126.454
139.851 135.678 124.845
138.815 134.883 124.231
137.02 137.878 124.315
137.228 141.4 125.332
137.004 144.239 125.186
137.988 145.279 126.195
136.976 146.665 126.165
138.075 143.8 127.682
135.611 142.359 125.14
135.942 146.898 127.48
137.236 147.214 127.768
136.086 136.389 136.501
137.564 138.12 136.833
137.054 136.038 135.361
138.721 139.978 135.212
137.469 140.8 136.625
134.671 138.091 136.281
134.132 135.371 136.548
136.24 135.262 133.9
138.29 134.814 133.701
135.412 142.301 135.679
136.257 142.21 137.537
134.904 141.689 136.863
138.05 142.886 135.623
135.915 145.743 135.333
133.905 144.381 135.97
133.224 139.53 136.906
141.907 139.427 129.239
140.404 139.158 128.386
140.373 137.485 126.786
137.196 134.106 124.944
135.984 135.228 124.595
135.221 134.218 126.459
140.528 139.734 133.955
141.572 139.623 131.879
139.447 137.533 133.056
135.418 130.607 133.71
133.953 130.651 133.121
133.405 131.923 135.443
139.008 145.428 129.605
140.168 145.438 130.466
138.594 147.826 128.79
134.443 145.077 127.657
133.062 141.946 128.9
134.15 142.519 126.411
137.873 144.839 133.758
139.816 146.335 132.828
138.987 144.931 134.606
131.47 140.441 137.202
130.239 142.32 136.096
132.115 144.638 136.486
143.445 143.512 129.853
143.438 143.718 130.754
142.877 144.038 130.231
143.66 144.362 130.831
144.161 142.875 130.415
143.426 142.164 129.721
143.017 142.666 129.495
142.227 145.478 130.003
142.122 145.009 130.707
144.691 141.303 129.861
143.801 141.115 129.599
144.672 139.426 129.612
143.155 141.362 129.193
144.222 142.454 130.743
144.189 139.688 130.643
143.883 138.528 129.257
141.437 142.686 129.986
141.099 143.85 130.276
140.169 142.478 129.136
140.456 143.454 129.781
141.096 142.072 129.422
139.264 140.851 127.984
138.819 142.31 128.21
142.759 145.807 130.912
143.585 146.289 130.969
142.737 147.086 131.647
143.479 145.291 131.09
142.073 144.854 130.327
141.921 147.372 131.15
142.358 146.584 132.134
142.901 144.263 132.154
142.609 143.244 132.667
142.375 144.763 133.181
141.991 142.641 133.228
142.668 141.596 132.998
143.312 143.262 131.193
143.206 145.475 131.736
141.604 145.412 133.317
141.471 144.674 132.917
143.263 141.478 131.899
143.996 142.245 131.041
143.91 140.979 131.085
142.949 140.021 132.564
143.587 140.293 130.127
143.022 146.88 132.07
141.996 146.191 132.906
142.434 146.576 132.319
141.342 146.79 133.331
142.064 147.619 131.677
140.963 143.662 133.519
141.237 142.877 133.305
140.506 142.865 134.59
141.281 142.126 132.853
140.692 144.151 133.61
139.396 142.534 135.09
139.764 141.69 134.731
131.277 135.232 130.154
132.519 135.675 129.303
132.351 136.922 130.326
133.619 136.567 128.005
133.319 135.579 128.807
130.614 133.836 130.278
130.227 135.318 130.346
132.197 137.852 129.867
133.073 137.962 129.098
132.568 133.864 128.98
131.382 133.029 129.973
132.282 132.924 130.06
130.457 132.954 130.878
133.747 135.186 128.73
133.278 133.585 129.774
132.39 132.456 130.562
130.135 137.163 130.461
131.1 138.318 129.902
130.101 138.721 130.588
132.269 139.186 129.62
129.183 136.022 130.911
129.376 140.088 131.322
130.284 140.347 130.705
133.548 138.331 127.369
134.007 137.331 126.699
134.512 138.582 126
134.504 136.28 126.341
133.455 139.456 127.113
135.407 140.017 125.869
135.44 138.578 125.078
130.893 133.726 133.769
129.962 134.672 132.899
130.264 135.672 134.097
129 134.961 131.91
129.78 133.353 132.143
131.536 131.793 133.634
131.384 132.918 134.909
130.234 137.03 135.697
129.782 137.371 134.408
130.888 132.323 131.663
131.518 131.697 132.42
131.899 131.059 131.062
132.349 131.05 133.271
132.775 131.704 131.204
131.386 134.023 136.45
130.895 136.205 136.752
131.751 135.297 137.597
130.565 137.631 137.046
131.843 133.21 135.455
132.761 135.298 137.39
132.349 136.908 137.436
129.141 138.147 133.509
128.721 136.616 132.178
128.79 139.523 132.442
129.446 139.392 135.055
129.239 141.266 132.833
140.045 136.179 128.773
139.651 135.484 128.932
140.223 136.988 129.353
139.148 134.556 129.408
139.056 133.156 128.898
139.774 135.341 128.113
140.112 137.227 128.732
140.632 137.705 130.481
140.165 136.417 130.564
139.952 133.256 127.414
140.58 134.23 126.759
139.638 135.347 126.478
140.823 136.406 127.027
138.823 132.513 128.348
138.637 136.937 126.771
139.718 135.672 125.824
141.657 138.277 128.152
141.597 138.364 129.162
142.286 138.55 129.11
141.651 138.223 130.447
140.917 137.84 127.936
143.207 137.997 128.737
143.244 139.395 129.637
139.57 135.561 130.652
139.097 134.889 130.2
138.712 135.265 131.076
138.43 134.429 129.971
140.018 136.325 131.392
138.496 135.556 131.856
137.861 134.881 131.649
137.211 133.751 129.024
136.622 134.017 128.8
136.209 134.827 130.458
136.125 134.423 128.831
136.548 134.58 128.104
138.043 132.964 128.578
137.723 133.87 129.311
135.88 134.474 131.674
135.194 134.922 131.66
137.19 135.324 127.071
138.35 133.465 127.168
137.795 136.799 126.573
136.871 134.527 126.647
138.568 135.133 126.081
137.491 134.745 130.248
136.562 134.39 131.493
137.263 134.403 131.334
135.924 132.629 132.208
137.06 133.89 131.992
134.772 135.459 131.316
135.25 134.651 129.432
134.341 134.866 130.573
135.603 134.131 128.033
134.568 133.512 132.105
133.63 133.331 130.939
133.948 134.01 130.046
137.451 146.935 131.588
136.5 147.124 131.271
137.239 146.546 130.814
135.277 147.165 131.441
135.488 147.993 132.809
137.241 147.308 132.823
138.16 146.508 132.415
137.792 145.464 130.771
136.718 147.489 130.901
135.98 147.51 133.217
136.878 146.895 132.946
136.162 146.114 133.293
137.655 146.593 132.864
135.053 146.694 133.343
135.165 145.438 134.065
136.036 145.019 133.684
139.337 146.214 130.921
139.368 145.689 130.356
140.254 145.539 130.713
139.365 143.887 129.681
139.682 146.52 131.671
141.53 147.248 131.271
141.094 146.923 130.672
137.239 148.991 129.976
136.445 149.109 130.844
136.878 147.053 129.084
135.222 147.882 131.63
137.979 148.373 129.801
136.874 146.688 128.619
136.413 144.997 128.944
133.732 145.544 132.347
133.085 144.788 133.275
133.639 144.172 131.831
132.397 143.233 133.737
132.653 144.39 134.403
134.115 146.322 133.078
134.395 146.713 131.714
134.117 142.87 130.312
133.159 142.541 131.192
133.56 145.655 133.975
134.222 147.056 133.678
134.422 146.001 133.804
132.407 145.16 135.191
134.201 144.567 134.426
134.746 147.273 131.053
134.86 144.113 129.418
135.874 144.17 129.089
134.601 143.11 128.865
135.921 145.43 128.921
132.176 142.389 131.854
131.918 142.916 132.863
131.097 142.829 132.376
131.342 143.155 133.955
132.644 141.754 130.552
130.526 141.883 131.51
130.039 142.51 132.875
139.114 138.153 124.783
138.629 139.246 124.818
138.658 137.658 123.836
137.658 140.215 125.271
137.841 140.579 125.629
139.154 138.601 125.698
139.487 137.31 124.86
138.217 136.956 124.129
137.913 137.911 123.945
137.907 140.459 126.428
138.724 139.964 126.015
138.236 140.65 126.709
139.31 138.684 126.346
137.887 142.505 126.377
138.371 141.742 127.072
138.833 140.269 126.887
139.692 135.664 124.14
138.96 135.996 123.725
139.283 134.539 123.99
138.298 135.18 123.822
140.031 136.47 124.935
139.62 135.01 124.909
139.143 134.396 124.92
137.582 139.056 124.438
137.447 139.88 125.042
137.079 139.511 124.954
137.454 141.802 125.492
137.498 137.118 123.927
136.389 138.616 124.399
136.722 140.718 125.35
137.575 144.741 125.515
137.589 146.233 125.903
137.065 145.49 125.598
137.472 147.185 126.784
138.001 146.378 126.848
137.686 143.55 125.583
137.234 143.08 125.242
136.563 144.085 125.646
136.437 145.075 125.989
138.042 144.61 127.229
138.202 143.514 126.3
138.217 143.037 127.219
137.995 145.336 127.992
138.277 142.483 127.894
136.796 142.851 125.359
136.505 142.943 125.482
136.563 141.814 125.678
135.686 143.771 125.466
135.766 140.918 125.059
136.565 146.133 126.546
137.061 147.217 127.194
136.41 147 127.509
137.708 147.846 127.591
135.929 145.934 126.615
136.104 147.824 128.402
136.894 147.348 128.22
136.717 136.847 137.809
137.392 136.451 135.992
136.78 135.028 135.975
137.696 136.967 134.961
138.068 137.799 135.894
136.936 138.583 137.193
136.266 137.346 136.324
135.593 135.139 136.073
136.157 135.311 134.761
138.111 138.86 136.311
137.597 139.352 137.029
138.174 140.201 136.367
136.902 140.185 137.909
138.747 138.938 134.805
138.766 140.8 135.069
138.089 141.16 136.049
135.436 137.367 135.982
134.971 136.141 136.043
134.296 136.5 136.557
134.536 134.142 136.092
135.71 138.625 136.05
133.833 137.452 136.502
133.463 136.089 136.731
136.278 137.217 134.297
137.086 137.247 134.239
137.048 135.862 133.421
138.032 137.289 133.734
135.746 134.507 134.421
137.537 132.748 132.865
138.223 133.734 132.827
135.784 143.232 136.937
135.619 142.652 137.445
135.049 142.826 136.462
135.745 141.018 136.961
136.408 141.398 137.179
136.632 143.381 136.526
135.964 143.064 135.883
134.113 141.753 136.211
133.778 141.537 137.071
136.939 141.393 136.955
137.231 142.712 136.848
137.785 141.705 136.133
137.49 143.271 135.639
138.411 142.284 135.307
135.582 142.724 134.98
134.859 141.94 134.93
135.063 144.253 135.322
133.249 143.372 136.838
136.336 144.244 135.164
135.414 145.77 134.855
134.429 145.714 135.636
133.965 140.042 137.525
135.082 140.176 136.425
134.158 138.865 137.066
132.869 140.792 137.028
133.152 138.339 137.068
141.272 139.644 128.722
140.249 138.428 127.899
140.945 138.978 128.317
139.907 137.449 126.276
139.725 138.507 127.222
141.294 141.001 129.212
142.374 140.465 128.866
141.076 138.57 128.501
140.609 137.988 127.394
139.389 138.937 127.207
140.33 139.894 128.372
139.24 139.632 127.581
143.477 139.842 128.814
141.927 139.846 129.286
143.276 139.461 128.62
140.745 135.865 125.887
140.343 136.425 125.247
140.086 135.757 125.204
136.648 134.33 124.508
135.7 134.586 125.421
136.32 134.126 125.61
134.49 134.425 126.596
134.969 135.251 125.68
137.052 135.898 124.326
137.561 134.832 124.212
136.669 134 126.031
135.82 134.908 126.857
135.377 136.284 124.912
136.595 136.615 124.407
135.982 137.536 124.691
138.095 134.334 124.487
137.485 133.499 125.436
138.41 133.891 125.139
134.99 133.543 127.577
134.409 134.491 127.939
134.224 134.828 129.299
140.677 140.154 132.398
140.382 138.817 132.212
139.902 138.619 133.285
140.111 137.503 132.094
141.168 138.338 131.578
141.933 140.53 132.313
141.017 141.268 132.745
139.744 138.337 134.381
139.22 136.777 134.3
141.89 139.302 130.854
142.62 139.414 131.756
142.949 139.116 130.63
140.656 140.813 134.258
139.825 139.698 134.636
139.748 140.884 134.849
139.073 135.483 133.614
139.428 136.609 132.26
138.673 135.542 132.693
134.721 130.301 133.546
133.728 130.955 134.45
134.517 130.699 134.853
132.64 131.723 134.964
133.051 130.964 133.783
134.716 131.02 132.541
135.443 130.718 132.51
135.162 131.623 134.809
134.19 132.16 135.657
133.097 131.218 132.915
133.946 132.142 132.415
133.231 132.614 132.024
136.041 131.767 133.018
135.912 132.722 134.238
136.751 132.269 133.141
134.05 133.768 135.932
132.938 133.416 135.536
133.295 134.637 136.239
139.919 145.509 129.987
139.271 146.149 130.032
138.801 146.369 129.408
138.957 147.194 129.525
139.433 145.507 130.436
141.021 146.038 129.95
140.302 144.934 130.033
138.472 145.478 128.785
138.325 147.057 128.333
140.79 142.8 130.341
141.842 147.048 130.636
141.863 145.627 129.869
139.225 144.623 129.439
138.259 144.439 128.56
138.336 143.411 128.573
137.995 147.599 127.927
138.206 148.302 128.599
137.58 147.276 128.099
133.602 143.571 127.919
133.429 142.402 127.609
134.317 143.753 127.06
133.389 141.033 127.217
132.85 140.578 128.658
133.476 142.479 128.977
134.12 144.068 128.442
135.134 145.199 126.829
135.013 143.891 126.162
132.204 140.378 129.866
132.243 141.466 130.151
131.257 140.781 130.729
134.868 145.378 128.272
135.426 146.018 127.422
135.522 146.694 128.342
134.968 142.567 125.757
133.929 140.938 126.017
135.085 141.063 125.709
138.818 145.405 133.244
139.45 144.813 132.908
138.378 144.955 134.235
140.077 144.521 133.299
140.339 145.815 132.94
139.224 146.282 132.652
138.23 145.376 132.947
137.286 145.358 135.344
137.873 144.963 135.65
140.799 147.121 132.844
140.238 146.628 132.132
141.139 147.316 132.031
137.49 145.012 133.261
136.896 145.359 134.641
136.481 145.496 134.166
138.619 144.52 135.52
139.719 144.554 134.716
139.138 143.751 135.3
130.538 142.04 137.437
131.071 143.566 136.629
131.48 142.92 137.37
131.496 144.89 135.832
131.075 142.994 135.439
129.882 140.542 136.46
130.556 139.746 137.176
132.078 141.272 137.085
132.272 143.635 137.046
130.628 142.506 134.663
129.792 141.232 135.13
129.888 141.804 133.89
131.346 138.299 136.899
132.365 139.504 136.904
132.322 138.305 137.109
132.924 145.024 136.706
132.67 145.945 135.895
133.744 145.728 135.809
POLYGONS 1280  5120
3 164 162 163
3 163 44 164
3 162 43 163
3 164 42 162
3 166 165 163
3 163 43 166
3 165 44 163
3 166 14 165
3 168 167 162
3 162 42 168
3 167 43 162
3 168 13 167
3 170 169 164
3 164 44 170
3 169 42 164
3 170 12 169
3 173 171 172
3 172 46 173
3 171 43 172
3 173 45 171
3 167 174 172
3 172 43 167
3 174 46 172
3 167 13 174
3 175 166 171
3 171 45 175
3 166 43 171
3 175 14 166
3 177 176 173
3 173 46 177
3 176 45 173
3 177 4 176
3 180 178 179
3 179 48 180
3 178 42 179
3 180 47 178
3 169 181 179
3 179 42 169
3 181 48 179
3 169 12 181
3 182 168 178
3 178 47 182
3 168 42 178
3 182 13 168
3 184 183 180
3 180 48 184
3 183 47 180
3 184 8 183
3 187 185 186
3 186 50 187
3 185 44 186
3 187 49 185
3 165 188 186
3 186 44 165
3 188 50 186
3 165 14 188
3 189 170 185
3 185 49 189
3 170 44 185
3 189 12 170
3 191 190 187
3 187 50 191
3 190 49 187
3 191 7 190
3 194 192 193
3 193 53 194
3 192 52 193
3 194 51 192
3 196 195 193
3 193 52 196
3 195 53 193
3 196 16 195
3 198 197 192
3 192 51 198
3 197 52 192
3 198 14 197
3 200 199 194
3 194 53 200
3 199 51 194
3 200 15 199
3 203 201 202
3 202 45 203
3 201 52 202
3 203 54 201
3 197 175 202
3 202 52 197
3 175 45 202
3 197 14 175
3 204 196 201
3 201 54 204
3 196 52 201
3 204 16 196
3 176 205 203
3 203 45 176
3 205 54 203
3 176 4 205
3 208 206 207
3 207 55 208
3 206 51 207
3 208 50 206
3 199 209 207
3 207 51 199
3 209 55 207
3 199 15 209
3 188 198 206
3 206 50 188
3 198 51 206
3 188 14 198
3 210 191 208
3 208 55 210
3 191 50 208
3 210 7 191
3 213 211 212
3 212 57 213
3 211 53 212
3 213 56 211
3 195 214 212
3 212 53 195
3 214 57 212
3 195 16 214
3 215 200 211
3 211 56 215
3 200 53 211
3 215 15 200
3 217 216 213
3 213 57 217
3 216 56 213
3 217 9 216
3 220 218 219
3 219 60 220
3 218 59 219
3 220 58 218
3 222 221 219
3 219 59 222
3 221 60 219
3 222 19 221
3 224 223 218
3 218 58 224
3 223 59 218
3 224 18 223
3 226 225 220
3 220 60 226
3 225 58 220
3 226 17 225
3 229 227 228
3 228 62 229
3 227 59 228
3 229 61 227
3 223 230 228
3 228 59 223
3 230 62 228
3 223 18 230
3 231 222 227
3 227 61 231
3 222 59 227
3 231 19 222
3 233 232 229
3 229 62 233
3 232 61 229
3 233 5 232
3 236 234 235
3 235 64 236
3 234 58 235
3 236 63 234
3 225 237 235
3 235 58 225
3 237 64 235
3 225 17 237
3 238 224 234
3 234 63 238
3 224 58 234
3 238 18 224
3 240 239 236
3 236 64 240
3 239 63 236
3 240 6 239
3 243 241 242
3 242 66 243
3 241 60 242
3 243 65 241
3 221 244 242
3 242 60 221
3 244 66 242
3 221 19 244
3 245 226 241
3 241 65 245
3 226 60 241
3 245 17 226
3 247 246 243
3 243 66 247
3 246 65 243
3 247 11 246
3 250 248 249
3 249 69 250
3 248 68 249
3 250 67 248
3 252 251 249
3 249 68 252
3 251 69 249
3 252 18 251
3 254 253 248
3 248 67 254
3 253 68 248
3 254 21 253
3 256 255 250
3 250 69 256
3 255 67 250
3 256 20 255
3 259 257 258
3 258 70 259
3 257 68 258
3 259 62 257
3 253 260 258
3 258 68 253
3 260 70 258
3 253 21 260
3 230 252 257
3 257 62 230
3 252 68 257
3 230 18 252
3 261 233 259
3 259 70 261
3 233 62 259
3 261 5 233
3 264 262 263
3 263 72 264
3 262 67 263
3 264 71 262
3 255 265 263
3 263 67 255
3 265 72 263
3 255 20 265
3 266 254 262
3 262 71 266
3 254 67 262
3 266 21 254
3 268 267 264
3 264 72 268
3 267 71 264
3 268 10 267
3 271 269 270
3 270 63 271
3 269 69 270
3 271 73 269
3 251 238 270
3 270 69 251
3 238 63 270
3 251 18 238
3 272 256 269
3 269 73 272
3 256 69 269
3 272 20 256
3 239 273 271
3 271 63 239
3 273 73 271
3 239 6 273
3 276 274 275
3 275 76 276
3 274 75 275
3 276 74 274
3 278 277 275
3 275 75 278
3 277 76 275
3 278 24 277
3 280 279 274
3 274 74 280
3 279 75 274
3 280 23 279
3 282 281 276
3 276 76 282
3 281 74 276
3 282 22 281
3 285 283 284
3 284 78 285
3 283 75 284
3 285 77 283
3 279 286 284
3 284 75 279
3 286 78 284
3 279 23 286
3 287 278 283
3 283 77 287
3 278 75 283
3 287 24 278
3 289 288 285
3 285 78 289
3 288 77 285
3 289 0 288
3 292 290 291
3 291 80 292
3 290 74 291
3 292 79 290
3 281 293 291
3 291 74 281
3 293 80 291
3 281 22 293
3 294 280 290
3 290 79 294
3 280 74 290
3 294 23 280
3 296 295 292
3 292 80 296
3 295 79 292
3 296 4 295
3 299 297 298
3 298 82 299
3 297 76 298
3 299 81 297
3 277 300 298
3 298 76 277
3 300 82 298
3 277 24 300
3 301 282 297
3 297 81 301
3 282 76 297
3 301 22 282
3 303 302 299
3 299 82 303
3 302 81 299
3 303 3 302
3 306 304 305
3 305 85 306
3 304 84 305
3 306 83 304
3 308 307 305
3 305 84 308
3 307 85 305
3 308 26 307
3 310 309 304
3 304 83 310
3 309 84 304
3 310 24 309
3 312 311 306
3 306 85 312
3 311 83 306
3 312 25 311
3 315 313 314
3 314 77 315
3 313 84 314
3 315 86 313
3 309 287 314
3 314 84 309
3 287 77 314
3 309 24 287
3 316 308 313
3 313 86 316
3 308 84 313
3 316 26 308
3 288 317 315
3 315 77 288
3 317 86 315
3 288 0 317
3 320 318 319
3 319 87 320
3 318 83 319
3 320 82 318
3 311 321 319
3 319 83 311
3 321 87 319
3 311 25 321
3 300 310 318
3 318 82 300
3 310 83 318
3 300 24 310
3 322 303 320
3 320 87 322
3 303 82 320
3 322 3 303
3 325 323 324
3 324 89 325
3 323 85 324
3 325 88 323
3 307 326 324
3 324 85 307
3 326 89 324
3 307 26 326
3 327 312 323
3 323 88 327
3 312 85 323
3 327 25 312
3 329 328 325
3 325 89 329
3 328 88 325
3 329 5 328
3 332 330 331
3 331 92 332
3 330 91 331
3 332 90 330
3 334 333 331
3 331 91 334
3 333 92 331
3 334 29 333
3 336 335 330
3 330 90 336
3 335 91 330
3 336 28 335
3 338 337 332
3 332 92 338
3 337 90 332
3 338 27 337
3 341 339 340
3 340 94 341
3 339 91 340
3 341 93 339
3 335 342 340
3 340 91 335
3 342 94 340
3 335 28 342
3 343 334 339
3 339 93 343
3 334 91 339
3 343 29 334
3 345 344 341
3 341 94 345
3 344 93 341
3 345 2 344
3 348 346 347
3 347 96 348
3 346 90 347
3 348 95 346
3 337 349 347
3 347 90 337
3 349 96 347
3 337 27 349
3 350 336 346
3 346 95 350
3 336 90 346
3 350 28 336
3 352 351 348
3 348 96 352
3 351 95 348
3 352 7 351
3 355 353 354
3 354 98 355
3 353 92 354
3 355 97 353
3 333 356 354
3 354 92 333
3 356 98 354
3 333 29 356
3 357 338 353
3 353 97 357
3 338 92 353
3 357 27 338
3 359 358 355
3 355 98 359
3 358 97 355
3 359 1 358
3 362 360 361
3 361 101 362
3 360 100 361
3 362 99 360
3 364 363 361
3 361 100 364
3 363 101 361
3 364 31 363
3 366 365 360
3 360 99 366
3 365 100 360
3 366 29 365
3 368 367 362
3 362 101 368
3 367 99 362
3 368 30 367
3 371 369 370
3 370 93 371
3 369 100 370
3 371 102 369
3 365 343 370
3 370 100 365
3 343 93 370
3 365 29 343
3 372 364 369
3 369 102 372
3 364 100 369
3 372 31 364
3 344 373 371
3 371 93 344
3 373 102 371
3 344 2 373
3 376 374 375
3 375 103 376
3 374 99 375
3 376 98 374
3 367 377 375
3 375 99 367
3 377 103 375
3 367 30 377
3 356 366 374
3 374 98 356
3 366 99 374
3 356 29 366
3 378 359 376
3 376 103 378
3 359 98 376
3 378 1 359
3 381 379 380
3 380 105 381
3 379 101 380
3 381 104 379
3 363 382 380
3 380 101 363
3 382 105 380
3 363 31 382
3 383 368 379
3 379 104 383
3 368 101 379
3 383 30 368
3 385 384 381
3 381 105 385
3 384 104 381
3 385 6 384
3 388 386 387
3 387 108 388
3 386 107 387
3 388 106 386
3 390 389 387
3 387 107 390
3 389 108 387
3 390 34 389
3 392 391 386
3 386 106 392
3 391 107 386
3 392 33 391
3 394 393 388
3 388 108 394
3 393 106 388
3 394 32 393
3 397 395 396
3 396 110 397
3 395 107 396
3 397 109 395
3 391 398 396
3 396 107 391
3 398 110 396
3 391 33 398
3 399 390 395
3 395 109 399
3 390 107 395
3 399 34 390
3 401 400 397
3 397 110 401
3 400 109 397
3 401 8 400
3 404 402 403
3 403 112 404
3 402 106 403
3 404 111 402
3 393 405 403
3 403 106 393
3 405 112 403
3 393 32 405
3 406 392 402
3 402 111 406
3 392 106 402
3 406 33 392
3 408 407 404
3 404 112 408
3 407 111 404
3 408 0 407
3 411 409 410
3 410 114 411
3 409 108 410
3 411 113 409
3 389 412 410
3 410 108 389
3 412 114 410
3 389 34 412
3 413 394 409
3 409 113 413
3 394 108 409
3 413 32 394
3 415 414 411
3 411 114 415
3 414 113 411
3 415 11 414
3 418 416 417
3 417 117 418
3 416 116 417
3 418 115 416
3 420 419 417
3 417 116 420
3 419 117 417
3 420 36 419
3 422 421 416
3 416 115 422
3 421 116 416
3 422 34 421
3 424 423 418
3 418 117 424
3 423 115 418
3 424 35 423
3 427 425 426
3 426 109 427
3 425 116 426
3 427 118 425
3 421 399 426
3 426 116 421
3 399 109 426
3 421 34 399
3 428 420 425
3 425 118 428
3 420 116 425
3 428 36 420
3 400 429 427
3 427 109 400
3 429 118 427
3 400 8 429
3 432 430 431
3 431 119 432
3 430 115 431
3 432 114 430
3 423 433 431
3 431 115 423
3 433 119 431
3 423 35 433
3 412 422 430
3 430 114 412
3 422 115 430
3 412 34 422
3 434 415 432
3 432 119 434
3 415 114 432
3 434 11 415
3 437 435 436
3 436 121 437
3 435 117 436
3 437 120 435
3 419 438 436
3 436 117 419
3 438 121 436
3 419 36 438
3 439 424 435
3 435 120 439
3 424 117 435
3 439 35 424
3 441 440 437
3 437 121 441
3 440 120 437
3 441 1 440
3 444 442 443
3 443 124 444
3 442 123 443
3 444 122 442
3 446 445 443
3 443 123 446
3 445 124 443
3 446 39 445
3 448 447 442
3 442 122 448
3 447 123 442
3 448 38 447
3 450 449 444
3 444 124 450
3 449 122 444
3 450 37 449
3 453 451 452
3 452 126 453
3 451 123 452
3 453 125 451
3 447 454 452
3 452 123 447
3 454 126 452
3 447 38 454
3 455 446 451
3 451 125 455
3 446 123 451
3 455 39 446
3 457 456 453
3 453 126 457
3 456 125 453
3 457 9 456
3 460 458 459
3 459 128 460
3 458 122 459
3 460 127 458
3 449 461 459
3 459 122 449
3 461 128 459
3 449 37 461
3 462 448 458
3 458 127 462
3 448 122 458
3 462 38 448
3 464 463 460
3 460 128 464
3 463 127 460
3 464 10 463
3 467 465 466
3 466 130 467
3 465 124 466
3 467 129 465
3 445 468 466
3 466 124 445
3 468 130 466
3 445 39 468
3 469 450 465
3 465 129 469
3 450 124 465
3 469 37 450
3 471 470 467
3 467 130 471
3 470 129 467
3 471 3 470
3 474 472 473
3 473 133 474
3 472 132 473
3 474 131 472
3 476 475 473
3 473 132 476
3 475 133 473
3 476 38 475
3 478 477 472
3 472 131 478
3 477 132 472
3 478 41 477
3 480 479 474
3 474 133 480
3 479 131 474
3 480 40 479
3 483 481 482
3 482 134 483
3 481 132 482
3 483 126 481
3 477 484 482
3 482 132 477
3 484 134 482
3 477 41 484
3 454 476 481
3 481 126 454
3 476 132 481
3 454 38 476
3 485 457 483
3 483 134 485
3 457 126 483
3 485 9 457
3 488 486 487
3 487 136 488
3 486 131 487
3 488 135 486
3 479 489 487
3 487 131 479
3 489 136 487
3 479 40 489
3 490 478 486
3 486 135 490
3 478 131 486
3 490 41 478
3 492 491 488
3 488 136 492
3 491 135 488
3 492 2 491
3 495 493 494
3 494 127 495
3 493 133 494
3 495 137 493
3 475 462 494
3 494 133 475
3 462 127 494
3 475 38 462
3 496 480 493
3 493 137 496
3 480 133 493
3 496 40 480
3 463 497 495
3 495 127 463
3 497 137 495
3 463 10 497
3 500 498 499
3 499 140 500
3 498 139 499
3 500 138 498
3 502 501 499
3 499 139 502
3 501 140 499
3 502 33 501
3 504 503 498
3 498 138 504
3 503 139 498
3 504 13 503
3 506 505 500
3 500 140 506
3 505 138 500
3 506 23 505
3 509 507 508
3 508 47 509
3 507 139 508
3 509 110 507
3 503 182 508
3 508 139 503
3 182 47 508
3 503 13 182
3 398 502 507
3 507 110 398
3 502 139 507
3 398 33 502
3 183 401 509
3 509 47 183
3 401 110 509
3 183 8 401
3 512 510 511
3 511 79 512
3 510 138 511
3 512 46 510
3 505 294 511
3 511 138 505
3 294 79 511
3 505 23 294
3 174 504 510
3 510 46 174
3 504 138 510
3 174 13 504
3 295 177 512
3 512 79 295
3 177 46 512
3 295 4 177
3 515 513 514
3 514 111 515
3 513 140 514
3 515 78 513
3 501 406 514
3 514 140 501
3 406 111 514
3 501 33 406
3 286 506 513
3 513 78 286
3 506 140 513
3 286 23 506
3 407 289 515
3 515 111 407
3 289 78 515
3 407 0 289
3 518 516 517
3 517 143 518
3 516 142 517
3 518 141 516
3 520 519 517
3 517 142 520
3 519 143 517
3 520 19 519
3 522 521 516
3 516 141 522
3 521 142 516
3 522 32 521
3 524 523 518
3 518 143 524
3 523 141 518
3 524 26 523
3 527 525 526
3 526 113 527
3 525 142 526
3 527 66 525
3 521 413 526
3 526 142 521
3 413 113 526
3 521 32 413
3 244 520 525
3 525 66 244
3 520 142 525
3 244 19 520
3 414 247 527
3 527 113 414
3 247 66 527
3 414 11 247
3 530 528 529
3 529 86 530
3 528 141 529
3 530 112 528
3 523 316 529
3 529 141 523
3 316 86 529
3 523 26 316
3 405 522 528
3 528 112 405
3 522 141 528
3 405 32 522
3 317 408 530
3 530 86 317
3 408 112 530
3 317 0 408
3 533 531 532
3 532 61 533
3 531 143 532
3 533 89 531
3 519 231 532
3 532 143 519
3 231 61 532
3 519 19 231
3 326 524 531
3 531 89 326
3 524 143 531
3 326 26 524
3 232 329 533
3 533 61 232
3 329 89 533
3 232 5 329
3 536 534 535
3 535 146 536
3 534 145 535
3 536 144 534
3 538 537 535
3 535 145 538
3 537 146 535
3 538 22 537
3 540 539 534
3 534 144 540
3 539 145 534
3 540 16 539
3 542 541 536
3 536 146 542
3 541 144 536
3 542 39 541
3 545 543 544
3 544 54 545
3 543 145 544
3 545 80 543
3 539 204 544
3 544 145 539
3 204 54 544
3 539 16 204
3 293 538 543
3 543 80 293
3 538 145 543
3 293 22 538
3 205 296 545
3 545 54 205
3 296 80 545
3 205 4 296
3 548 546 547
3 547 125 548
3 546 144 547
3 548 57 546
3 541 455 547
3 547 144 541
3 455 125 547
3 541 39 455
3 214 540 546
3 546 57 214
3 540 144 546
3 214 16 540
3 456 217 548
3 548 125 456
3 217 57 548
3 456 9 217
3 551 549 550
3 550 81 551
3 549 146 550
3 551 130 549
3 537 301 550
3 550 146 537
3 301 81 550
3 537 22 301
3 468 542 549
3 549 130 468
3 542 146 549
3 468 39 542
3 302 471 551
3 551 81 302
3 471 130 551
3 302 3 471
3 554 552 553
3 553 149 554
3 552 148 553
3 554 147 552
3 556 555 553
3 553 148 556
3 555 149 553
3 556 21 555
3 558 557 552
3 552 147 558
3 557 148 552
3 558 25 557
3 560 559 554
3 554 149 560
3 559 147 554
3 560 37 559
3 563 561 562
3 562 88 563
3 561 148 562
3 563 70 561
3 557 327 562
3 562 148 557
3 327 88 562
3 557 25 327
3 260 556 561
3 561 70 260
3 556 148 561
3 260 21 556
3 328 261 563
3 563 88 328
3 261 70 563
3 328 5 261
3 566 564 565
3 565 129 566
3 564 147 565
3 566 87 564
3 559 469 565
3 565 147 559
3 469 129 565
3 559 37 469
3 321 558 564
3 564 87 321
3 558 147 564
3 321 25 558
3 470 322 566
3 566 129 470
3 322 87 566
3 470 3 322
3 569 567 568
3 568 71 569
3 567 149 568
3 569 128 567
3 555 266 568
3 568 149 555
3 266 71 568
3 555 21 266
3 461 560 567
3 567 128 461
3 560 149 567
3 461 37 560
3 267 464 569
3 569 71 267
3 464 128 569
3 267 10 464
3 572 570 571
3 571 152 572
3 570 151 571
3 572 150 570
3 574 573 571
3 571 151 574
3 573 152 571
3 574 27 573
3 576 575 570
3 570 150 576
3 575 151 570
3 576 12 575
3 578 577 572
3 572 152 578
3 577 150 572
3 578 36 577
3 581 579 580
3 580 49 581
3 579 151 580
3 581 96 579
3 575 189 580
3 580 151 575
3 189 49 580
3 575 12 189
3 349 574 579
3 579 96 349
3 574 151 579
3 349 27 574
3 190 352 581
3 581 49 190
3 352 96 581
3 190 7 352
3 584 582 583
3 583 118 584
3 582 150 583
3 584 48 582
3 577 428 583
3 583 150 577
3 428 118 583
3 577 36 428
3 181 576 582
3 582 48 181
3 576 150 582
3 181 12 576
3 429 184 584
3 584 118 429
3 184 48 584
3 429 8 184
3 587 585 586
3 586 97 587
3 585 152 586
3 587 121 585
3 573 357 586
3 586 152 573
3 357 97 586
3 573 27 357
3 438 578 585
3 585 121 438
3 578 152 585
3 438 36 578
3 358 441 587
3 587 97 358
3 441 121 587
3 358 1 441
3 590 588 589
3 589 155 590
3 588 154 589
3 590 153 588
3 592 591 589
3 589 154 592
3 591 155 589
3 592 17 591
3 594 593 588
3 588 153 594
3 593 154 588
3 594 30 593
3 596 595 590
3 590 155 596
3 595 153 590
3 596 35 595
3 599 597 598
3 598 104 599
3 597 154 598
3 599 64 597
3 593 383 598
3 598 154 593
3 383 104 598
3 593 30 383
3 237 592 597
3 597 64 237
3 592 154 597
3 237 17 592
3 384 240 599
3 599 104 384
3 240 64 599
3 384 6 240
3 602 600 601
3 601 120 602
3 600 153 601
3 602 103 600
3 595 439 601
3 601 153 595
3 439 120 601
3 595 35 439
3 377 594 600
3 600 103 377
3 594 153 600
3 377 30 594
3 440 378 602
3 602 120 440
3 378 103 602
3 440 1 378
3 605 603 604
3 604 65 605
3 603 155 604
3 605 119 603
3 591 245 604
3 604 155 591
3 245 65 604
3 591 17 245
3 433 596 603
3 603 119 433
3 596 155 603
3 433 35 596
3 246 434 605
3 605 65 246
3 434 119 605
3 246 11 434
3 608 606 607
3 607 158 608
3 606 157 607
3 608 156 606
3 610 609 607
3 607 157 610
3 609 158 607
3 610 15 609
3 612 611 606
3 606 156 612
3 611 157 606
3 612 28 611
3 614 613 608
3 608 158 614
3 613 156 608
3 614 41 613
3 617 615 616
3 616 95 617
3 615 157 616
3 617 55 615
3 611 350 616
3 616 157 611
3 350 95 616
3 611 28 350
3 209 610 615
3 615 55 209
3 610 157 615
3 209 15 610
3 351 210 617
3 617 95 351
3 210 55 617
3 351 7 210
3 620 618 619
3 619 135 620
3 618 156 619
3 620 94 618
3 613 490 619
3 619 156 613
3 490 135 619
3 613 41 490
3 342 612 618
3 618 94 342
3 612 156 618
3 342 28 612
3 491 345 620
3 620 135 491
3 345 94 620
3 491 2 345
3 623 621 622
3 622 56 623
3 621 158 622
3 623 134 621
3 609 215 622
3 622 158 609
3 215 56 622
3 609 15 215
3 484 614 621
3 621 134 484
3 614 158 621
3 484 41 614
3 216 485 623
3 623 56 216
3 485 134 623
3 216 9 485
3 626 624 625
3 625 161 626
3 624 160 625
3 626 159 624
3 628 627 625
3 625 160 628
3 627 161 625
3 628 31 627
3 630 629 624
3 624 159 630
3 629 160 624
3 630 20 629
3 632 631 626
3 626 161 632
3 631 159 626
3 632 40 631
3 635 633 634
3 634 73 635
3 633 160 634
3 635 105 633
3 629 272 634
3 634 160 629
3 272 73 634
3 629 20 272
3 382 628 633
3 633 105 382
3 628 160 633
3 382 31 628
3 273 385 635
3 635 73 273
3 385 105 635
3 273 6 385
3 638 636 637
3 637 137 638
3 636 159 637
3 638 72 636
3 631 496 637
3 637 159 631
3 496 137 637
3 631 40 496
3 265 630 636
3 636 72 265
3 630 159 636
3 265 20 630
3 497 268 638
3 638 137 497
3 268 72 638
3 497 10 268
3 641 639 640
3 640 102 641
3 639 161 640
3 641 136 639
3 627 372 640
3 640 161 627
3 372 102 640
3 627 31 372
3 489 632 639
3 639 136 489
3 632 161 639
3 489 40 632
3 373 492 641
3 641 102 373
3 492 136 641
3 373 2 492
