# vtk DataFile Version 3.0
this file was written using fslvtkio
ASCII
DATASET POLYDATA
POINTS 1068 float
135.258 165.612 110.769
135.93 165.938 110.065
136.232 165.442 109.769
135.969 165.359 109.997
134.915 165.093 110.893
135.903 164.989 109.897
134.698 164.596 110.809
135.785 164.684 109.794
134.801 164.218 110.372
135.649 164.512 109.532
135.433 165.905 110.073
136.231 166.224 109.647
134.72 165.802 110.724
134.318 165.249 110.657
134.357 164.614 110.284
134.636 164.223 109.941
135.923 166.324 109.546
136.452 166.409 109.369
135.266 166.074 109.901
134.808 165.673 110.053
134.306 165.183 109.852
134.368 164.725 109.416
135.923 166.476 109.267
135.511 166.011 109.316
135.143 165.616 109.283
134.597 165.186 109.11
136.184 163.967 111.878
136.858 164.363 111.649
136.954 163.994 111.903
136.808 163.594 111.756
136.151 163.735 111.543
136.658 163.322 111.325
136.493 164.419 111.36
136.667 164.745 111.106
137.056 164.695 111.228
136.571 164.399 110.546
136.435 164.18 110.737
136.363 163.811 110.666
136.479 164.95 110.312
136.924 165.049 110.793
136.649 164.7 110.19
136.603 164.682 109.575
136.635 164.381 109.83
136.612 165.419 110.145
136.707 165.66 109.614
137.179 165.506 109.673
137.161 165.324 110.197
136.552 165.365 110.074
136.499 165.134 109.383
136.472 164.972 109.326
136.578 165.124 108.733
136.565 164.792 109.086
136.724 165.949 109.414
135.326 164.253 109.407
136.962 166.214 109.127
134.831 164.339 109.065
137.242 166.538 108.852
134.613 164.901 108.709
136.461 166.709 108.972
137.093 166.708 108.623
136.272 166.416 108.85
136.141 165.99 108.644
135.809 165.828 108.597
135.35 165.543 108.382
136.953 166.654 108.452
136.682 166.471 108.382
136.482 166.241 108.316
138.436 162.345 110.817
138.781 162.969 109.947
139.375 162.692 109.547
139.355 162.21 110.037
138.55 162.004 110.296
139.099 161.713 110.069
138.736 161.862 109.759
139.197 161.537 109.65
138.108 163.023 110.871
138.022 163.732 111.042
138.628 163.499 110.063
137.62 162.786 110.836
137.744 162.489 110.348
138.111 162.235 109.74
138.686 161.85 109.294
137.375 163.617 111.916
137.499 164.393 111.535
137.23 163.119 111.464
137.274 163.12 110.362
137.672 162.845 109.581
138.062 162.426 109.23
137.525 164.6 110.907
136.735 163.297 110.548
136.934 163.135 109.732
137.584 162.76 109.207
137.366 164.7 110.463
137.748 164.558 110.291
136.694 163.945 109.781
136.94 163.703 109.389
137.394 163.117 108.817
137.525 164.897 109.98
137.78 165.243 109.546
137.987 164.934 109.784
136.506 164.286 109.18
136.943 163.986 108.778
137.331 163.615 108.553
137.415 165.699 109.059
137.765 165.498 109.242
136.186 164.59 108.874
136.32 164.381 108.62
136.758 164.326 108.49
137.553 165.865 108.905
135.408 164.05 108.751
136.077 164.156 108.332
136.698 164.312 108.19
137.785 166.043 108.373
134.875 164.406 108.243
135.607 164.186 107.978
137.706 166.286 108.035
135.114 165.011 107.908
135.491 164.768 107.71
137.683 166.463 107.679
136.05 165.706 107.525
136.139 165.995 108.126
135.653 165.296 107.56
137.347 166.813 107.788
137.115 166.708 107.931
136.827 166.567 107.897
139.309 163.341 109.497
139.894 162.866 109.236
139.918 162.499 109.493
139.685 161.766 109.931
139.647 161.741 109.276
138.218 164.209 110.639
138.883 163.737 109.769
139.096 161.942 108.915
138.048 164.42 110.6
138.611 162.483 109.016
138.284 162.734 108.874
138.933 162.487 108.526
138.365 164.595 110.477
138.055 162.881 108.673
138.617 162.725 108.408
138.157 164.805 109.898
138.506 164.743 109.78
138.205 163.156 108.318
138.739 163.265 108.151
138.331 165.205 109.352
138.795 165.141 109.705
137.239 163.776 108.311
137.823 163.468 108.092
138.34 163.405 108.076
138.096 165.669 109.031
138.519 165.319 108.891
137.339 164.038 107.923
138.073 164.019 107.798
138.335 165.652 108.496
136.591 164.414 107.857
137.173 164.325 107.816
137.464 164.279 107.63
138.24 165.971 107.935
136.159 164.546 107.677
137.017 164.547 107.476
138.23 166.138 107.585
136.503 164.827 107.324
135.943 164.983 107.277
138.181 166.403 107.48
136.462 166.157 107.72
136.451 165.891 107.142
136.357 165.514 106.998
138.022 166.71 107.208
137.53 167.008 107.217
137.132 166.806 107.277
136.867 166.362 107.444
139.851 163.235 109.176
140.342 163.064 108.753
140.395 162.653 108.694
140.309 162.322 108.959
139.929 162.282 108.616
138.92 164.162 109.895
139.549 163.814 109.311
140.026 163.648 109.193
139.55 162.435 108.524
139.063 162.61 108.728
139.549 162.896 108.225
138.913 164.431 110.19
139.489 164.118 109.655
139.426 162.925 108.11
139.007 164.552 109.646
139.356 163.342 107.863
139.134 164.957 109.429
138.996 164.714 109.387
139.33 163.554 107.62
139.119 165.255 109.1
139.21 165.021 109.127
138.484 163.689 107.765
138.938 163.618 107.683
138.906 165.405 108.183
139.186 165.36 108.472
138.494 164.073 107.616
138.839 163.963 107.4
138.757 165.579 107.871
139.283 165.805 107.133
139.293 165.488 107.312
137.54 164.441 107.373
138.054 164.241 107.358
138.594 164.36 107.358
138.646 165.854 107.816
139.369 166.114 107.089
137.481 164.672 107.261
137.895 164.568 107.152
138.741 166.026 107.299
139.469 166.097 106.927
136.579 165.138 107.087
136.928 164.864 106.917
137.637 164.983 106.973
138.761 166.121 107.142
139.314 166.191 106.839
137.038 165.74 106.727
136.838 166.026 106.998
136.946 165.377 106.708
138.544 166.476 107.115
138.47 166.608 107.01
138.085 166.923 106.696
137.601 166.81 106.604
137.249 166.428 106.902
140.935 162.717 108.192
140.915 162.943 108.189
141.35 162.853 107.793
141.107 162.754 107.863
140.557 162.557 108.371
140.796 162.929 107.925
140.555 163.4 108.636
140.572 162.905 107.94
140.105 164.019 108.974
140.499 163.772 108.602
140.098 162.671 108.171
140.067 163.24 107.955
139.618 164.282 109.533
140.221 164.309 109.202
140.036 163.15 107.585
139.493 164.783 109.297
140.058 164.829 108.701
139.81 164.525 109.111
139.871 163.62 107.354
139.601 165.093 108.415
140.311 165.17 107.442
140.35 164.98 107.734
139.669 163.648 106.953
139.748 165.164 107.736
140.194 165.423 106.978
140.589 165.313 106.871
139.364 163.815 106.843
139.485 165.318 107.385
139.816 165.653 106.862
140.335 165.625 106.868
139.125 164.243 106.832
140.016 165.82 106.411
138.923 164.705 106.847
138.311 164.54 106.885
140.263 165.99 106.252
138.175 164.981 106.882
140.132 166.08 106.227
138.027 165.253 106.524
137.331 165.232 106.751
139.909 166.473 106.196
137.586 165.913 106.621
137.248 166.078 106.464
137.402 165.589 106.609
139.136 166.656 106.755
138.809 166.403 106.98
138.593 166.695 106.535
138.155 166.599 106.591
137.736 166.336 106.507
141.319 163.185 107.822
141.557 163.67 107.892
141.776 163.208 107.59
141.722 162.918 107.711
141.399 163.225 107.581
141.509 163.007 107.491
141.023 163.629 108.317
141.038 163.893 108.294
141.368 163.251 107.362
140.688 164.048 108.501
140.712 162.909 107.661
140.625 163.543 107.451
140.309 164.581 108.845
141.018 164.602 107.772
140.831 164.379 108.35
140.935 164.214 108.31
140.504 163.625 107.088
140.635 164.822 108.024
141.095 164.996 107.176
141.516 164.85 106.94
140.334 163.689 106.701
141.238 165.243 106.979
140.04 164.07 106.696
140.813 165.435 106.407
141.27 165.387 106.637
139.747 164.355 106.476
140.617 165.665 106.278
141.076 165.638 106.049
139.472 164.619 106.524
140.877 165.675 105.616
139.212 164.984 106.384
138.613 164.815 106.415
140.987 166.082 105.56
138.606 165.177 106.521
140.717 166.439 105.466
138.45 165.413 106.222
137.837 165.48 106.27
140.421 166.905 105.492
137.763 166.207 106.41
138.002 165.967 106.394
137.858 165.799 106.089
139.613 166.68 106.232
139.254 166.649 106.348
139.038 166.58 106.204
138.64 166.46 105.995
138.341 166.297 106.013
138.205 166.183 106.13
142.1 162.665 108.142
142.315 163.161 107.464
142.625 162.585 108.047
142.59 162.127 107.953
141.882 162.687 107.873
142.377 162.479 107.583
141.85 162.82 107.468
142.347 162.741 107.224
141.992 163.651 107.632
142.243 163.021 107.032
141.541 163.935 107.842
142.017 163.451 106.963
141.286 164.045 107.876
141.711 164.221 107.493
141.618 164.074 107.64
141.303 163.329 107.185
141.15 163.6 106.851
141.77 164.626 107.404
141.465 164.43 107.808
140.944 163.794 106.565
142.068 165.074 106.402
142.148 164.863 106.866
140.662 163.978 106.246
141.898 165.339 106.481
140.393 164.377 106.166
141.545 165.525 105.835
141.636 165.505 106.37
140.098 164.628 105.984
141.57 165.718 105.448
141.72 165.65 105.639
139.684 164.938 106.155
141.694 165.929 104.943
139.545 165.124 105.937
139.113 165.205 106.017
141.473 166.425 104.937
139.039 165.35 106.094
141.146 166.82 104.894
138.904 165.606 106.107
138.369 165.65 106.139
140.726 166.952 104.998
138.454 165.969 105.569
138.356 166.056 105.784
139.971 167.083 105.469
139.692 166.947 105.512
139.492 166.759 105.353
139.179 166.621 105.404
138.945 166.43 105.528
138.665 166.246 105.727
143.059 162.103 108.184
143.116 162.637 107.469
143.691 162.225 107.979
143.561 161.908 108
143.068 161.89 107.906
143.498 162.182 107.395
142.889 163.146 107.212
142.841 162.482 107.423
142.931 162.897 106.978
142.556 163.657 107.245
143.076 163.673 106.76
142.969 163.497 107.087
142.899 163.054 106.55
142.154 164.079 107.272
142.662 164.036 106.832
142.48 163.393 106.554
142.17 164.275 107.161
142.82 164.415 106.569
142.71 164.2 106.584
141.749 163.33 106.656
141.651 163.664 106.184
142.387 164.705 107.063
142.831 165.06 106.366
142.987 164.82 106.591
141.275 164.09 105.991
142.617 165.391 106.097
141.006 164.256 105.648
142.076 165.599 106.099
142.6 165.86 105.706
142.656 165.736 105.781
140.695 164.515 105.372
142.096 165.805 105.5
142.304 165.877 105.099
142.755 165.906 105.045
140.386 164.756 105.394
140.856 164.872 104.999
140.378 165.13 105.187
142.392 166.109 104.804
140.022 165.067 105.739
139.896 165.409 105.506
142.144 166.53 104.531
139.656 165.45 105.281
141.883 166.968 104.288
139.456 165.618 105.724
141.47 167.157 104.253
139.25 165.83 105.876
138.836 165.829 105.79
140.819 167.189 104.6
140.33 167.113 104.887
140.622 167.133 104.474
138.86 166.015 105.744
138.823 166.184 105.11
140.058 167.097 104.907
139.899 166.827 104.821
139.655 166.63 104.763
139.487 166.525 104.968
139.167 166.427 105.071
143.629 162.618 107.04
144.079 162.817 106.447
144.131 162.485 106.934
144.171 162.001 107.892
143.976 161.85 107.673
144.139 162.107 106.746
143.457 163.092 106.703
144.035 163.2 106.136
143.427 162.608 107.014
143.476 163.171 106.509
143.651 163.669 106.369
143.949 163.997 106.338
144.042 163.512 105.859
143.361 163.291 105.906
143.253 164.136 106.439
143.779 164.374 106.176
142.727 163.506 106.017
142.088 163.74 106.375
142.296 163.926 105.903
143.335 164.585 106.244
143.644 165.047 105.93
143.881 164.75 105.988
141.861 164.081 105.787
143.414 165.373 105.664
141.547 164.28 105.409
143.168 165.578 105.562
141.325 164.607 105.228
143.316 166.008 105.343
143.263 165.75 105.35
141.294 164.805 104.882
143.005 166.137 104.534
143.371 166.243 104.828
141.22 165.149 104.593
140.621 165.427 105.133
142.758 166.489 104.288
140.405 165.595 104.9
142.517 167 103.935
140.06 165.752 104.952
142.105 167.259 103.754
139.583 165.837 105.489
140.025 165.838 104.878
140.03 165.955 104.888
141.659 167.072 103.983
141.106 167.282 104.168
141.453 167.278 103.721
139.334 165.9 105.395
140.07 166.1 104.823
139.753 166.122 105.038
141.06 167.219 103.687
139.628 166.346 104.918
140.075 166.457 104.68
139.964 166.559 104.567
139.317 166.12 105.191
140.034 166.313 104.729
140.48 167.087 104.305
140.322 166.969 104.132
140.093 166.695 104.12
144.411 161.454 108.002
144.588 162.089 107.947
144.95 161.922 108.024
145.02 161.798 107.335
144.496 161.804 107.186
144.985 162.554 106.521
144.626 162.996 106.405
144.665 162.63 107.108
144.737 162.708 106.157
144.372 163.493 105.878
144.938 163.616 105.798
144.768 163.278 106.121
144.031 162.681 106.452
143.957 163.251 105.858
144.438 164.08 106.101
144.821 164.585 105.788
145.163 164.045 105.501
143.781 163.484 105.208
144.313 164.56 106.071
144.409 165.083 105.841
143.024 163.612 105.505
142.603 163.96 105.269
144.085 165.36 105.791
142.124 164.324 105.313
144.041 165.678 105.524
144.644 165.918 104.866
144.549 165.686 105.261
141.987 164.558 105.109
143.754 165.877 105.3
144.413 166.099 104.622
141.954 164.784 104.736
143.825 166.271 104.964
143.769 166.562 104.223
144.304 166.544 104.537
141.721 165.07 104.528
143.5 166.678 103.928
141.607 165.393 104.265
141.117 165.572 104.741
143.129 166.931 103.629
140.878 165.753 104.331
142.776 167.208 103.413
140.48 165.862 104.603
141.149 165.859 103.668
140.955 166.049 103.833
142.375 167.193 103.329
140.867 166.443 103.872
141.484 166.727 103.092
141.084 166.732 103.637
140.779 166.286 103.848
141.234 166.654 103.56
140.486 166.01 104.249
141.226 166.382 103.632
142.062 167.133 103.38
141.784 167.345 103.114
140.498 166.537 103.996
140.958 166.785 103.559
140.404 166.314 104.406
141.404 167.268 103.122
140.9 167.055 103.62
140.658 166.937 103.496
141.296 167.081 103.226
140.494 166.72 103.863
141.085 166.997 103.206
146.033 162.27 106.964
146.216 162.642 106.399
146.562 162.174 107.006
146.148 161.561 107.618
145.504 161.992 107.461
145.841 161.793 106.99
145.543 162.1 106.633
145.719 162.291 106.399
145.252 162.541 106.929
145.803 162.86 106.21
145.574 162.672 106.017
145.145 162.955 106.312
145.65 163.515 106.086
146.047 163.325 105.908
145.297 162.787 105.544
145.325 163.68 105.848
145.739 164.305 105.171
145.88 163.873 105.533
144.519 162.965 105.76
144.381 163.316 105.207
145.206 164.846 105.61
144.152 163.708 104.944
144.975 165.281 105.64
145.518 165.779 105.075
145.662 165.259 105.311
143.358 163.772 105.074
143.872 163.993 104.621
144.752 165.526 105.49
145.249 165.948 104.732
143.151 164.055 104.884
142.716 164.385 104.915
145.203 166.234 104.345
142.663 164.657 104.583
144.716 166.556 104.413
144.537 166.724 104.011
145.106 166.372 103.785
142.261 164.964 104.314
144.166 166.678 103.658
142.022 165.277 104.212
142.502 165.136 103.905
142.02 165.476 103.956
143.764 166.832 103.414
141.598 165.641 104.06
143.43 167.168 103.027
141.479 165.749 103.824
143.15 167.536 102.714
142.748 167.484 102.819
142.993 167.458 102.295
141.436 166.034 103.382
141.823 166.012 103.261
141.775 166.286 102.971
141.767 165.874 103.513
142.496 167.321 102.886
142.686 167.413 102.354
142.066 166.874 102.741
141.638 166.824 102.768
141.826 166.622 102.884
141.79 167.299 102.772
142.288 167.388 102.536
141.691 167.13 102.983
142.242 167.24 102.347
141.513 166.919 103.043
142.005 167.071 102.497
147.276 162.756 105.405
147.619 163.156 105.681
147.782 162.598 105.77
147.3 162.431 106.241
146.804 162.569 106.005
146.799 161.832 107.455
146.632 161.402 107.169
146.294 161.734 106.673
146.244 162.343 106.017
146.959 163.315 105.432
147.254 163.581 105.224
146.542 163.117 105.89
146.132 162.68 105.51
146.503 163.841 105.313
146.867 164.137 105.278
145.952 162.748 105.011
146.326 164.284 104.934
146.591 164.864 104.431
146.773 164.457 104.705
144.94 163.112 105.222
145.564 163.046 104.812
145.942 164.796 104.742
146.348 165.433 104.578
144.947 163.287 104.711
144.639 163.627 104.447
146.036 165.877 104.228
144.473 164.073 104.206
145.828 166.182 103.85
143.509 164.244 104.475
144.097 164.27 104.045
145.664 166.311 103.389
143.381 164.516 104.307
143.843 164.697 103.79
144.809 166.841 103.465
145.281 166.616 103.189
143.299 164.888 104.033
143.681 165.056 103.707
143.348 165.278 103.695
142.914 164.839 104.209
144.455 166.807 103.025
142.845 165.28 103.602
143.197 165.507 103.412
144.047 167.061 102.823
142.465 165.523 103.392
142.893 165.686 102.954
143.744 167.206 102.573
142.355 165.778 103.284
142.694 165.918 102.994
142.588 166.037 102.831
141.936 165.594 103.448
143.536 167.504 102.208
143.042 167.455 101.603
143.39 167.479 101.864
143.354 167.358 101.434
142.173 166.172 102.69
142.651 166.334 102.272
142.294 166.537 102.351
142.619 167.408 101.874
143.083 167.184 101.451
142.54 167.197 101.948
142.158 166.994 102.507
142.77 166.962 101.82
142.508 166.815 102.24
147.761 161.489 107.057
148.295 161.942 106.431
148.464 161.662 106.834
147.978 161.01 107.634
147.314 161.043 107.261
147.901 161.2 106.851
147.606 161.467 106.263
148.053 161.609 106.022
147.963 162.114 106.048
148.327 162.757 105.486
148.524 162.34 105.797
147.37 161.795 107.059
147.022 161.299 107.444
147.194 161.529 106.347
147.682 162.124 105.73
148.01 163.385 105.247
146.801 162.185 106.151
146.73 162.425 105.55
147.473 164.085 105.275
146.57 162.57 104.919
147.208 164.393 104.892
147.257 164.785 104.099
147.622 164.567 104.621
146.283 163.145 104.527
147.018 165.155 103.781
145.946 163.361 104.173
146.802 165.789 103.826
145.29 163.492 104.418
145.073 163.862 104.091
146.561 166.053 103.376
144.815 164.272 103.944
146.324 166.277 103.031
144.479 164.471 103.622
146.113 166.42 102.718
144.119 164.79 103.506
145.04 166.877 102.769
145.657 166.626 102.641
144.074 165.013 103.471
143.91 165.273 103.321
144.824 167.345 102.188
145.314 167.171 102.076
143.502 165.669 102.986
144.297 167.344 102.045
144.983 167.639 101.248
143.117 165.944 102.625
143.641 165.847 102.626
143.562 166.097 102.057
143.931 167.25 102.099
144.42 167.356 101.447
143.372 166.492 101.772
143.885 166.566 101.47
143.672 166.79 101.506
143.086 166.288 102.352
143.749 166.306 101.721
143.875 167.513 101.539
143.336 167.146 101.444
143.748 167.331 101.227
143.205 166.859 101.361
143.844 167.003 101.144
142.96 166.603 101.811
151.112 157.934 109.525
151.223 158.29 109.636
151.347 158.14 110.251
151.462 157.772 109.783
151.397 157.65 109.151
151.79 157.763 109.118
150.69 158.057 109.386
150.762 158.44 109.154
151.081 157.878 108.949
151.731 157.927 108.483
150.822 158.37 108.735
151.287 158.485 108.4
149.312 161.915 106.183
149.67 162.678 105.542
149.894 162.171 105.927
149.223 161.339 106.958
148.598 161.444 107.221
148.379 160.47 107.903
148.162 160.579 107.493
148.723 160.818 106.49
149.075 162.31 105.791
149.072 162.789 105.17
148.243 161.126 106.439
148.349 161.626 105.495
148.556 163.209 105.203
148.255 161.983 104.768
148.312 163.782 105.069
148.403 164.235 104.483
148.695 163.74 104.836
147.359 162.359 105.38
147.219 162.475 104.748
147.957 164.134 104.915
147.968 164.843 104.247
146.942 162.782 104.313
147.661 165.047 103.482
146.782 163.26 103.871
147.434 165.638 103.243
146.776 163.683 103.621
147.21 166.102 102.988
145.738 163.664 103.947
146.295 163.766 103.681
147.062 166.167 102.447
145.632 164.027 103.714
146.022 164.133 103.282
146.707 166.159 102.139
145.288 164.429 103.596
145.373 164.729 103.138
146.369 166.678 101.896
144.667 164.66 103.352
144.981 164.916 103.023
145.814 166.95 101.867
144.389 165.167 102.96
145.101 165.216 102.401
144.877 165.519 102.244
145.507 167.452 101.305
144.645 166.086 101.897
145.388 166.188 100.989
145 166.331 100.973
144.428 165.701 102.457
145.21 165.88 101.586
143.971 165.593 102.729
145.264 167.433 100.781
144.777 167.319 100.536
144.722 166.877 100.485
145.228 167.133 100.404
144.563 166.452 101.079
145.073 166.685 100.406
144.224 166.396 101.535
144.079 166.063 102.124
144.09 167.323 101.321
144.174 167.094 100.995
144.146 166.782 101.186
151.945 158.684 109.733
152.025 159.075 109.2
152.693 158.761 108.912
152.499 158.211 109.614
151.789 158.004 110.336
152.455 157.53 109.513
151.395 158.734 109.879
151.831 158.636 108.831
151.884 157.731 109.678
152.198 157.9 108.796
151.29 158.665 108.888
151.707 158.831 108.397
152.111 158.057 108.109
150.966 159.017 108.342
151.619 159.023 107.7
150.49 158.8 108.675
150.757 158.608 108.095
151.521 158.608 107.792
150.935 158.891 107.672
151.546 159.05 107.013
150.133 158.766 108.258
149.886 158.342 108.346
151.016 158.686 107.39
150.421 158.482 107.498
150.921 158.877 106.821
150.822 159.365 107.329
151.27 159.86 106.842
149.898 159.111 107.916
149.144 158.578 108.485
149.725 158.666 107.61
150.401 159.065 106.824
150.657 159.741 107.084
149.865 159.778 107.582
150.523 160.139 106.636
148.9 159.293 108.334
149.127 158.711 107.603
149.913 159.169 106.701
150.066 160.616 106.684
150.718 160.953 105.964
149.246 160.167 107.688
148.785 159.221 107.747
149.705 159.587 106.415
150.575 161.732 105.732
149.89 161.413 106.444
150.576 162.468 105.364
148.834 160.411 107.929
149.483 159.93 106.261
148.735 160.041 107.319
149.498 160.627 105.818
150.218 162.791 104.985
149.367 161 105.338
149.715 162.97 104.786
149.54 163.497 104.546
150.266 163.298 104.257
148.824 161.325 105.527
148.929 161.674 104.707
149.213 163.243 104.73
149.043 164.015 104.328
148.926 162.096 104.156
148.544 164.549 103.889
147.869 162.406 104.61
148.576 162.506 103.912
148.207 165.122 103.72
147.741 162.731 104.2
147.421 162.998 103.92
147.959 165.461 103.121
147.373 163.478 103.478
147.75 165.696 102.622
147.252 163.805 103.152
147.753 163.644 103.004
147.648 164.056 102.655
147.574 165.88 102.11
146.979 164.153 103.038
147.17 164.515 102.435
147.516 166.286 101.49
146.532 164.218 102.996
146.8 164.743 102.25
147.095 166.547 101.277
146.305 164.753 102.34
146.82 165.118 101.753
146.501 165.272 101.584
145.917 164.669 102.971
146.543 166.949 101.182
145.972 165.358 102.062
146.166 165.635 101.419
145.696 165.061 102.562
146.049 167.155 101.113
145.5 165.487 101.824
145.803 165.815 101.218
145.892 167.362 100.554
145.72 167.314 100.382
145.649 166.877 100.171
146 166.986 100.134
145.425 166.538 100.6
146.007 166.545 100.2
145.878 166.136 100.746
152.537 158.904 108.417
153.254 158.737 108.43
153.249 158.021 108.79
153.089 157.71 108.496
152.482 158.793 107.89
152.484 157.901 108.96
152.634 158.093 108.117
152.244 158.949 107.646
152.183 158.384 107.564
152.184 159.196 107.174
151.861 158.799 107.062
152.006 159.405 106.736
151.35 158.914 106.952
151.044 159.174 106.249
151.956 159.916 106.305
150.671 159.465 105.986
151.122 159.942 106.474
151.633 160.268 106.126
150.491 159.933 105.639
151.106 160.466 106.13
151.159 161.192 105.689
150.587 160.269 104.937
151.242 161.916 105.098
151.208 162.3 104.338
150.406 160.737 104.749
150.151 161.134 104.566
150.799 162.78 104.14
150.032 161.433 104.2
149.738 163.626 103.988
150.54 163.446 103.607
149.476 161.538 104.579
149.555 162.087 103.999
149.156 164.319 103.819
149.384 162.503 103.584
148.804 164.965 103.499
149.159 162.82 103.18
148.531 165.343 103.064
148.127 163.026 103.78
148.682 163.061 103.239
148.279 165.619 102.482
147.997 163.361 103.404
148.307 163.627 102.639
148.202 165.644 101.797
147.997 164.246 102.312
148.046 165.853 101.391
147.59 164.662 102.079
148.21 164.658 101.686
147.949 165.03 101.387
148.056 166.325 100.79
147.783 166.553 100.409
147.99 166.145 99.7862
148.422 166.247 100.015
147.855 165.583 100.388
148.405 165.798 99.9779
147.577 165.138 101.267
148.194 165.318 100.685
147.235 164.888 101.673
147.184 166.801 100.463
147.454 166.428 99.9929
147.421 166.024 100.229
147.269 165.479 100.824
146.67 167.1 100.274
146.95 166.667 100.033
146.954 166.177 100.271
146.735 165.772 101.066
146.123 167.1 100.456
146.469 166.821 99.9118
146.494 166.377 100.197
146.378 165.949 100.716
153.1 158.825 107.828
153.53 158.333 107.935
153.192 159.112 107.204
153.324 158.551 107.354
153.149 158.174 107.789
153.027 159.352 106.832
153.575 159.104 106.414
153.454 158.543 106.729
152.974 158.143 107.265
152.543 158.374 106.982
152.668 159.407 106.486
152.17 158.936 106.406
152.459 159.796 106.071
151.548 159.301 106.343
151.233 159.629 105.63
152.265 160.315 105.513
151.098 160.213 105.135
152.214 160.665 105.251
151.198 160.603 104.395
151.643 160.747 105.563
151.854 161.095 104.99
151.404 161.089 103.537
151.659 161.494 104.92
151.733 162.572 103.299
151.775 161.807 104.187
151.595 161.815 102.884
152.179 161.792 102.788
150.83 161.482 103.793
151.146 163.089 103.397
151.513 162.647 102.642
150.95 161.92 103.192
149.845 163.922 103.591
150.472 163.777 103.097
151.298 163.458 102.664
151.45 162.943 101.931
150.888 163.177 102.159
150.887 162.51 102.774
150.311 162.019 103.522
149.337 164.49 103.315
150.473 162.779 102.437
150.466 163.415 101.958
150.128 162.394 103.125
149.05 164.884 102.896
149.815 163.581 102.541
150.23 163.759 101.445
149.759 162.901 102.906
148.804 165.126 102.464
149.507 163.73 101.907
149.778 164.166 101.221
149.295 163.351 102.643
148.668 165.471 101.878
149.011 164.222 101.89
149.429 164.551 100.985
148.857 163.64 102.491
148.79 165.563 101.249
148.823 165.649 100.664
149.156 165.314 100.158
149.457 165.605 100.296
149.156 164.856 100.373
149.599 165.073 100.201
148.866 164.589 101.314
148.549 164.2 101.911
148.53 166.116 100.445
148.789 165.852 100.026
148.818 165.269 100.033
148.516 164.988 101.036
153.218 159.397 105.991
153.417 158.969 105.925
153.047 158.573 106.365
152.898 159.595 105.653
152.964 159.32 105.647
152.662 158.967 105.933
152.613 160.029 105.195
152.593 159.573 105.219
152.24 159.49 105.572
151.814 159.463 105.902
152.67 160.479 104.467
152.676 160.206 104.271
152.148 160.015 104.702
151.649 159.923 105.24
152.384 160.848 104.451
152.617 160.781 103.763
152.672 160.522 103.278
151.833 160.28 104.213
152.209 161.162 104.09
152.435 161.441 103.141
151.925 161.063 103.572
150.022 164.314 102.836
150.603 163.92 102.373
151.368 163.458 101.685
149.624 164.347 102.616
150.671 164.563 101.624
150.96 163.792 101.435
149.398 164.68 102.163
150.287 164.692 101.417
150.648 164.101 101.094
149.22 164.95 101.9
149.969 164.794 101.149
150.325 164.364 100.906
149.341 165.514 101.087
149.737 165.133 100.872
149.943 164.59 100.699
POLYGONS 2132  8528
3 0 1 2
3 0 3 4
3 2 3 0
3 4 5 6
3 3 5 4
3 6 7 8
3 5 7 6
3 7 9 8
3 10 1 0
3 11 1 10
3 4 12 0
3 12 10 0
3 6 13 4
3 13 12 4
3 8 14 6
3 14 13 6
3 15 8 9
3 14 8 15
3 16 11 10
3 17 11 16
3 12 18 10
3 18 16 10
3 13 19 12
3 19 18 12
3 14 20 13
3 20 19 13
3 21 14 15
3 20 14 21
3 16 22 17
3 18 22 16
3 23 22 18
3 19 23 18
3 24 23 19
3 20 24 19
3 25 24 20
3 21 25 20
3 26 27 28
3 26 29 30
3 28 29 26
3 29 31 30
3 32 33 34
3 27 32 34
3 27 26 32
3 26 35 32
3 30 36 26
3 36 35 26
3 37 30 31
3 36 30 37
3 38 33 32
3 39 33 38
3 35 40 32
3 40 38 32
3 36 41 35
3 41 40 35
3 42 36 37
3 41 36 42
3 43 44 45
3 43 46 47
3 45 46 43
3 39 47 46
3 39 38 47
3 38 48 47
3 40 49 38
3 49 48 38
3 50 41 51
3 50 49 41
3 49 40 41
3 42 51 41
3 2 44 43
3 2 1 44
3 1 52 44
3 3 2 43
3 47 3 43
3 5 3 47
3 48 5 47
3 7 5 48
3 49 7 48
3 49 9 7
3 49 50 9
3 50 53 9
3 1 11 52
3 52 11 54
3 9 53 15
3 53 55 15
3 11 17 54
3 54 17 56
3 15 55 21
3 55 57 21
3 58 17 22
3 58 59 17
3 59 56 17
3 22 23 60
3 58 22 60
3 23 24 61
3 60 23 61
3 62 61 24
3 62 24 63
3 63 24 25
3 57 25 21
3 63 25 57
3 58 64 59
3 60 64 58
3 65 64 60
3 61 65 60
3 66 65 61
3 62 66 61
3 67 68 69
3 67 70 71
3 69 70 67
3 71 72 73
3 70 72 71
3 72 74 73
3 75 76 77
3 68 75 77
3 68 67 75
3 67 78 75
3 71 79 67
3 79 78 67
3 73 80 71
3 80 79 71
3 81 73 74
3 80 73 81
3 82 76 75
3 83 76 82
3 78 84 75
3 84 82 75
3 79 85 78
3 85 84 78
3 80 86 79
3 86 85 79
3 87 80 81
3 86 80 87
3 28 83 82
3 28 27 83
3 27 88 83
3 29 28 82
3 84 29 82
3 31 29 84
3 31 84 89
3 89 84 85
3 86 90 85
3 90 89 85
3 91 86 87
3 90 86 91
3 34 92 93
3 33 92 34
3 88 27 34
3 93 88 34
3 89 94 37
3 31 89 37
3 90 95 89
3 95 94 89
3 96 90 91
3 95 90 96
3 97 98 99
3 97 99 92
3 97 92 39
3 39 92 33
3 94 100 42
3 37 94 42
3 101 95 102
3 101 100 95
3 100 94 95
3 96 102 95
3 45 103 104
3 44 103 45
3 98 97 46
3 98 46 104
3 104 46 45
3 39 46 97
3 51 105 50
3 51 42 100
3 51 100 105
3 105 100 106
3 107 100 101
3 106 100 107
3 44 52 103
3 103 52 108
3 105 109 53
3 50 105 53
3 110 106 111
3 110 109 106
3 109 105 106
3 107 111 106
3 52 54 108
3 108 54 112
3 109 113 55
3 53 109 55
3 114 109 110
3 113 109 114
3 54 56 112
3 112 56 115
3 113 116 57
3 55 113 57
3 117 113 114
3 116 113 117
3 56 59 115
3 115 59 118
3 63 119 120
3 62 63 120
3 116 63 57
3 116 121 63
3 121 119 63
3 117 121 116
3 59 122 118
3 64 122 59
3 65 123 64
3 64 123 122
3 66 124 65
3 65 124 123
3 120 66 62
3 124 66 120
3 69 125 126
3 68 125 69
3 70 69 127
3 69 126 127
3 72 70 128
3 70 127 128
3 128 74 72
3 129 74 128
3 77 130 131
3 76 130 77
3 125 68 77
3 131 125 77
3 74 129 81
3 129 132 81
3 76 83 130
3 130 83 133
3 134 135 87
3 134 87 132
3 132 87 81
3 134 136 135
3 83 88 133
3 133 88 137
3 135 138 91
3 87 135 91
3 139 135 136
3 138 135 139
3 93 140 141
3 92 140 93
3 137 88 93
3 141 137 93
3 138 142 96
3 91 138 96
3 143 138 139
3 142 138 143
3 99 144 145
3 98 144 99
3 140 92 99
3 145 140 99
3 102 146 101
3 102 147 146
3 96 147 102
3 96 148 147
3 96 142 148
3 143 148 142
3 104 149 150
3 103 149 104
3 144 98 104
3 150 144 104
3 146 151 107
3 101 146 107
3 152 146 147
3 151 146 152
3 103 108 149
3 149 108 153
3 111 154 110
3 111 155 154
3 107 155 111
3 107 156 155
3 107 151 156
3 152 156 151
3 108 112 153
3 153 112 157
3 154 158 114
3 110 154 114
3 159 154 155
3 158 154 159
3 112 115 157
3 157 115 160
3 158 161 162
3 158 162 114
3 114 162 117
3 159 161 158
3 115 118 160
3 160 118 163
3 119 164 120
3 165 164 119
3 165 119 166
3 166 119 121
3 162 121 117
3 166 121 162
3 118 167 163
3 122 167 118
3 123 168 122
3 122 168 167
3 124 169 123
3 123 169 168
3 164 124 120
3 164 170 124
3 170 169 124
3 165 170 164
3 126 125 171
3 172 126 171
3 172 173 126
3 173 127 126
3 128 127 174
3 127 173 174
3 174 129 128
3 175 129 174
3 131 130 176
3 131 176 177
3 125 131 177
3 125 177 178
3 125 178 171
3 172 171 178
3 179 180 132
3 179 132 175
3 175 132 129
3 179 181 180
3 176 182 183
3 176 130 182
3 130 133 182
3 177 176 183
3 132 180 134
3 180 136 134
3 180 181 136
3 181 184 136
3 133 137 182
3 182 137 185
3 136 184 139
3 184 186 139
3 141 187 188
3 140 187 141
3 185 137 141
3 188 185 141
3 139 186 143
3 186 189 143
3 145 190 191
3 144 190 145
3 187 140 145
3 191 187 145
3 148 192 147
3 148 193 192
3 148 143 193
3 143 189 193
3 150 194 195
3 149 194 150
3 190 144 150
3 195 190 150
3 192 196 152
3 147 192 152
3 197 192 193
3 196 192 197
3 198 199 200
3 198 200 194
3 198 194 153
3 153 194 149
3 156 201 155
3 156 202 201
3 152 202 156
3 152 203 202
3 152 196 203
3 197 203 196
3 204 199 198
3 205 199 204
3 153 157 204
3 198 153 204
3 201 206 159
3 155 201 159
3 207 201 202
3 206 201 207
3 208 205 204
3 209 205 208
3 157 160 208
3 204 157 208
3 161 210 162
3 161 211 210
3 159 211 161
3 159 212 211
3 159 206 212
3 207 212 206
3 213 209 208
3 214 209 213
3 160 163 213
3 208 160 213
3 166 215 216
3 165 166 216
3 210 166 162
3 210 217 166
3 217 215 166
3 211 217 210
3 213 218 214
3 163 218 213
3 163 167 218
3 167 219 218
3 168 220 167
3 167 220 219
3 169 221 168
3 168 221 220
3 170 222 169
3 169 222 221
3 216 170 165
3 222 170 216
3 223 224 225
3 223 226 227
3 225 226 223
3 226 228 227
3 173 224 223
3 173 172 224
3 172 229 224
3 174 173 223
3 227 174 223
3 227 175 174
3 227 228 175
3 228 230 175
3 178 231 232
3 177 231 178
3 229 172 178
3 232 229 178
3 175 230 233
3 179 175 233
3 233 181 179
3 234 181 233
3 183 235 236
3 182 235 183
3 231 177 183
3 236 231 183
3 181 234 184
3 234 237 184
3 238 239 240
3 238 240 235
3 238 235 185
3 185 235 182
3 184 237 186
3 237 241 186
3 242 243 244
3 239 242 244
3 238 242 239
3 238 187 242
3 238 188 187
3 185 188 238
3 186 241 189
3 241 245 189
3 246 247 248
3 243 246 248
3 242 246 243
3 242 190 246
3 242 191 190
3 187 191 242
3 189 245 193
3 245 249 193
3 250 251 252
3 247 250 252
3 246 250 247
3 246 194 250
3 246 195 194
3 190 195 246
3 193 249 197
3 249 253 197
3 200 251 250
3 200 199 251
3 199 254 251
3 194 200 250
3 203 255 256
3 202 203 256
3 253 203 197
3 255 203 253
3 199 205 254
3 254 205 257
3 202 256 207
3 256 258 207
3 205 209 257
3 257 209 259
3 212 260 261
3 211 212 261
3 258 212 207
3 260 212 258
3 209 214 259
3 259 214 262
3 215 263 264
3 216 215 264
3 217 265 215
3 215 265 263
3 261 217 211
3 265 217 261
3 214 266 262
3 218 266 214
3 219 267 218
3 218 267 266
3 220 268 219
3 219 268 267
3 221 269 220
3 220 269 268
3 222 270 221
3 221 270 269
3 264 222 216
3 270 222 264
3 271 272 273
3 271 225 224
3 271 273 225
3 273 274 225
3 226 225 275
3 225 274 275
3 275 228 226
3 276 228 275
3 277 272 271
3 278 272 277
3 224 229 277
3 271 224 277
3 228 276 230
3 276 279 230
3 232 278 277
3 232 231 278
3 231 280 278
3 229 232 277
3 230 279 281
3 233 230 281
3 281 234 233
3 282 234 281
3 283 284 285
3 283 236 235
3 283 285 236
3 285 286 236
3 280 231 236
3 286 280 236
3 234 282 237
3 282 287 237
3 288 289 290
3 284 288 290
3 283 288 284
3 283 239 288
3 283 240 239
3 235 240 283
3 237 287 241
3 287 291 241
3 244 289 288
3 244 243 289
3 243 292 289
3 239 244 288
3 241 291 245
3 291 293 245
3 248 294 295
3 247 294 248
3 292 243 248
3 295 292 248
3 245 293 249
3 293 296 249
3 252 297 298
3 251 297 252
3 294 247 252
3 298 294 252
3 249 296 253
3 296 299 253
3 251 254 297
3 297 254 300
3 255 301 302
3 256 255 302
3 299 255 253
3 301 255 299
3 254 257 300
3 300 257 303
3 256 302 258
3 302 304 258
3 257 259 303
3 303 259 305
3 260 306 307
3 261 260 307
3 304 260 258
3 306 260 304
3 259 262 305
3 305 262 308
3 263 309 264
3 310 309 263
3 310 263 311
3 311 263 265
3 307 265 261
3 311 265 307
3 262 312 308
3 266 312 262
3 267 313 266
3 266 313 312
3 268 314 267
3 267 314 313
3 269 315 268
3 268 315 314
3 270 316 269
3 269 316 315
3 309 270 264
3 309 317 270
3 317 316 270
3 310 317 309
3 318 319 320
3 318 321 322
3 320 321 318
3 322 323 324
3 321 323 322
3 323 325 324
3 273 319 318
3 273 272 319
3 272 326 319
3 274 273 318
3 322 274 318
3 275 274 322
3 324 275 322
3 324 276 275
3 324 325 276
3 325 327 276
3 272 278 326
3 326 278 328
3 276 327 279
3 327 329 279
3 330 331 332
3 330 332 328
3 330 328 280
3 280 328 278
3 279 329 333
3 281 279 333
3 333 282 281
3 334 282 333
3 285 335 336
3 284 335 285
3 331 330 286
3 331 286 336
3 336 286 285
3 280 286 330
3 282 334 287
3 334 337 287
3 290 338 339
3 289 338 290
3 335 284 290
3 339 335 290
3 287 337 291
3 337 340 291
3 289 292 338
3 338 292 341
3 291 340 293
3 340 342 293
3 295 343 344
3 294 343 295
3 341 292 295
3 344 341 295
3 293 342 296
3 342 345 296
3 298 346 347
3 297 346 298
3 343 294 298
3 347 343 298
3 296 345 299
3 345 348 299
3 297 300 346
3 346 300 349
3 301 350 351
3 302 301 351
3 348 301 299
3 350 301 348
3 300 303 349
3 349 303 352
3 302 351 304
3 351 353 304
3 303 305 352
3 352 305 354
3 306 355 356
3 307 306 356
3 353 306 304
3 355 306 353
3 305 308 354
3 354 308 357
3 311 358 359
3 310 311 359
3 356 311 307
3 358 311 356
3 308 360 357
3 312 360 308
3 313 361 312
3 312 361 360
3 314 362 313
3 313 362 361
3 315 363 314
3 314 363 362
3 316 364 315
3 315 364 363
3 317 365 316
3 316 365 364
3 359 317 310
3 365 317 359
3 366 367 368
3 366 369 370
3 368 369 366
3 369 371 370
3 320 367 366
3 320 319 367
3 319 372 367
3 321 320 366
3 370 321 366
3 370 371 373
3 370 373 321
3 321 373 323
3 373 325 323
3 374 325 373
3 375 376 377
3 375 377 372
3 375 372 326
3 326 372 319
3 325 374 327
3 374 378 327
3 379 376 375
3 380 376 379
3 326 328 379
3 375 326 379
3 327 378 329
3 378 381 329
3 382 383 384
3 380 382 384
3 379 382 380
3 379 331 382
3 379 332 331
3 328 332 379
3 329 381 385
3 333 329 385
3 385 334 333
3 386 334 385
3 387 388 389
3 383 387 389
3 382 387 383
3 382 335 387
3 382 336 335
3 331 336 382
3 334 386 337
3 386 390 337
3 339 388 387
3 339 338 388
3 338 391 388
3 335 339 387
3 337 390 340
3 390 392 340
3 393 394 395
3 393 395 391
3 393 391 341
3 341 391 338
3 340 392 342
3 392 396 342
3 397 398 399
3 394 397 399
3 393 397 394
3 393 343 397
3 393 344 343
3 341 344 393
3 400 401 402
3 400 396 401
3 400 345 396
3 345 342 396
3 347 398 397
3 347 346 398
3 346 403 398
3 343 347 397
3 404 400 402
3 405 404 402
3 345 404 348
3 400 404 345
3 346 349 403
3 403 349 406
3 350 404 405
3 350 405 351
3 351 405 407
3 348 404 350
3 349 352 406
3 406 352 408
3 351 407 353
3 407 409 353
3 352 354 408
3 408 354 410
3 355 411 412
3 356 355 412
3 409 355 353
3 411 355 409
3 413 357 414
3 413 410 357
3 410 354 357
3 413 414 415
3 358 416 417
3 359 358 417
3 412 358 356
3 416 358 412
3 357 360 414
3 414 418 415
3 414 360 418
3 360 361 418
3 362 419 361
3 361 419 418
3 363 420 362
3 362 420 419
3 364 421 363
3 363 421 420
3 365 422 364
3 364 422 421
3 417 365 359
3 422 365 417
3 423 424 425
3 423 368 367
3 423 425 368
3 425 426 368
3 369 368 427
3 368 426 427
3 427 371 369
3 428 371 427
3 429 424 423
3 430 424 429
3 367 372 429
3 423 367 429
3 371 428 431
3 373 371 431
3 431 374 373
3 432 374 431
3 433 434 435
3 430 433 435
3 429 433 430
3 429 376 433
3 429 377 376
3 372 377 429
3 374 432 378
3 432 436 378
3 437 434 433
3 438 434 437
3 376 380 437
3 433 376 437
3 439 440 381
3 439 381 436
3 436 381 378
3 439 441 440
3 442 443 444
3 438 442 444
3 437 442 438
3 437 383 442
3 437 384 383
3 380 384 437
3 381 440 385
3 440 386 385
3 440 441 386
3 441 445 386
3 389 443 442
3 389 388 443
3 388 446 443
3 383 389 442
3 386 445 390
3 445 447 390
3 388 391 446
3 446 391 448
3 390 447 392
3 447 449 392
3 395 450 451
3 394 450 395
3 448 391 395
3 451 448 395
3 392 449 396
3 449 452 396
3 399 453 454
3 398 453 399
3 450 394 399
3 454 450 399
3 401 455 456
3 402 401 456
3 452 401 396
3 455 401 452
3 398 403 453
3 453 403 457
3 402 456 405
3 456 458 405
3 403 406 457
3 457 406 459
3 405 458 407
3 458 460 407
3 406 408 459
3 459 408 461
3 462 463 464
3 462 460 463
3 462 409 460
3 409 407 460
3 465 410 466
3 465 461 410
3 461 408 410
3 465 466 467
3 468 469 470
3 464 469 468
3 462 464 468
3 462 468 412
3 462 412 411
3 409 462 411
3 410 413 466
3 466 413 415
3 466 415 467
3 467 415 471
3 472 473 474
3 472 475 476
3 473 472 476
3 470 476 475
3 468 470 475
3 468 475 417
3 468 417 416
3 412 468 416
3 415 477 471
3 418 477 415
3 419 478 418
3 418 478 477
3 420 479 419
3 419 479 478
3 474 421 472
3 474 479 421
3 479 420 421
3 422 472 421
3 475 472 422
3 417 475 422
3 480 481 482
3 480 483 484
3 482 483 480
3 483 485 484
3 425 486 487
3 424 486 425
3 481 480 426
3 481 426 487
3 487 426 425
3 427 426 480
3 484 427 480
3 484 428 427
3 484 485 428
3 485 488 428
3 489 490 491
3 489 491 486
3 489 486 430
3 430 486 424
3 428 488 492
3 431 428 492
3 492 432 431
3 493 432 492
3 494 495 496
3 490 494 496
3 489 494 490
3 489 434 494
3 489 435 434
3 430 435 489
3 432 493 436
3 493 497 436
3 498 495 494
3 499 495 498
3 434 438 498
3 494 434 498
3 436 497 500
3 439 436 500
3 500 441 439
3 501 441 500
3 444 499 498
3 444 443 499
3 443 502 499
3 438 444 498
3 441 501 445
3 501 503 445
3 504 505 506
3 504 506 502
3 504 502 446
3 446 502 443
3 445 503 447
3 503 507 447
3 508 505 504
3 509 505 508
3 446 448 508
3 504 446 508
3 447 507 449
3 507 510 449
3 511 512 513
3 509 511 513
3 508 511 509
3 508 450 511
3 508 451 450
3 448 451 508
3 449 510 452
3 510 514 452
3 454 512 511
3 454 453 512
3 453 515 512
3 450 454 511
3 455 516 517
3 456 455 517
3 514 455 452
3 516 455 514
3 453 457 515
3 515 457 518
3 456 517 458
3 517 519 458
3 457 459 518
3 518 459 520
3 521 522 523
3 521 519 522
3 521 460 519
3 460 458 519
3 459 461 520
3 520 461 524
3 525 526 527
3 525 528 529
3 526 525 529
3 528 530 531
3 529 528 531
3 523 531 530
3 521 523 530
3 521 530 464
3 521 464 463
3 460 521 463
3 461 532 524
3 465 532 461
3 532 465 467
3 533 532 467
3 534 525 527
3 535 534 527
3 528 525 536
3 536 525 534
3 469 536 470
3 469 530 536
3 530 528 536
3 464 530 469
3 537 471 538
3 537 533 471
3 533 467 471
3 538 539 540
3 537 538 540
3 539 541 542
3 540 539 542
3 535 542 541
3 534 535 541
3 534 541 474
3 534 474 473
3 476 534 473
3 536 534 476
3 470 536 476
3 471 477 538
3 478 538 477
3 539 538 478
3 479 539 478
3 541 539 479
3 474 541 479
3 543 544 545
3 543 546 547
3 545 546 543
3 547 548 549
3 546 548 547
3 548 550 549
3 551 544 543
3 552 544 551
3 482 481 551
3 482 551 547
3 547 551 543
3 483 482 547
3 549 483 547
3 549 485 483
3 549 550 485
3 550 553 485
3 554 555 556
3 552 554 556
3 551 554 552
3 551 486 554
3 551 487 486
3 481 487 551
3 485 553 488
3 553 557 488
3 558 559 560
3 555 558 560
3 554 558 555
3 554 490 558
3 554 491 490
3 486 491 554
3 488 557 561
3 492 488 561
3 561 493 492
3 562 493 561
3 496 559 558
3 496 495 559
3 495 563 559
3 490 496 558
3 493 562 497
3 562 564 497
3 565 566 567
3 565 567 563
3 565 563 499
3 499 563 495
3 568 500 497
3 568 497 569
3 569 497 564
3 500 568 501
3 570 566 565
3 571 566 570
3 499 502 570
3 565 499 570
3 568 569 572
3 572 501 568
3 572 573 501
3 573 503 501
3 506 571 570
3 506 505 571
3 505 574 571
3 502 506 570
3 503 573 507
3 573 575 507
3 576 577 578
3 576 578 574
3 576 574 509
3 509 574 505
3 507 575 510
3 575 579 510
3 513 577 576
3 513 512 577
3 512 580 577
3 509 513 576
3 581 582 583
3 581 579 582
3 581 514 579
3 514 510 579
3 512 515 580
3 580 515 584
3 516 581 583
3 516 583 517
3 517 583 585
3 514 581 516
3 515 518 584
3 584 518 586
3 517 585 519
3 585 587 519
3 588 520 589
3 588 586 520
3 586 518 520
3 588 589 590
3 591 592 593
3 591 523 522
3 591 522 592
3 592 522 594
3 587 522 519
3 594 522 587
3 589 524 595
3 520 524 589
3 596 590 589
3 595 596 589
3 526 597 598
3 527 526 598
3 529 599 526
3 526 599 597
3 593 531 591
3 593 599 531
3 599 529 531
3 523 591 531
3 524 532 595
3 533 600 601
3 532 533 601
3 532 601 596
3 532 596 595
3 600 602 603
3 601 600 603
3 602 604 605
3 603 602 605
3 604 598 605
3 604 535 598
3 535 527 598
3 533 537 600
3 540 600 537
3 602 600 540
3 542 602 540
3 604 602 542
3 535 604 542
3 606 607 608
3 606 609 610
3 608 609 606
3 610 545 544
3 610 609 545
3 609 611 545
3 546 545 612
3 545 611 612
3 548 546 613
3 546 612 613
3 613 550 548
3 614 550 613
3 615 607 606
3 616 607 615
3 610 617 606
3 617 615 606
3 544 552 617
3 610 544 617
3 550 614 553
3 614 618 553
3 619 616 615
3 620 616 619
3 556 555 619
3 556 619 617
3 617 619 615
3 552 556 617
3 553 618 557
3 618 621 557
3 622 623 624
3 620 622 624
3 619 622 620
3 619 559 622
3 619 560 559
3 555 560 619
3 625 561 557
3 625 557 626
3 626 557 621
3 561 625 562
3 627 623 622
3 628 623 627
3 559 563 627
3 622 559 627
3 625 626 629
3 629 562 625
3 629 630 562
3 630 564 562
3 567 628 627
3 567 566 628
3 566 631 628
3 563 567 627
3 564 630 569
3 630 632 569
3 566 571 631
3 631 571 633
3 634 572 569
3 634 569 635
3 635 569 632
3 572 634 573
3 571 574 633
3 633 574 636
3 637 634 635
3 638 637 635
3 573 637 575
3 634 637 573
3 578 639 640
3 577 639 578
3 636 574 578
3 640 636 578
3 641 642 643
3 638 642 641
3 638 641 637
3 637 641 644
3 575 644 579
3 637 644 575
3 577 580 639
3 639 580 645
3 646 641 643
3 647 646 643
3 582 646 583
3 582 644 646
3 644 641 646
3 579 644 582
3 580 584 645
3 645 584 648
3 649 646 647
3 650 649 647
3 583 649 585
3 646 649 583
3 584 586 648
3 648 586 651
3 652 653 654
3 650 653 652
3 650 652 649
3 649 652 655
3 585 655 587
3 649 655 585
3 586 656 651
3 588 656 586
3 590 657 658
3 590 658 588
3 588 658 656
3 658 657 659
3 660 661 662
3 654 661 660
3 652 654 660
3 652 660 593
3 652 593 592
3 594 652 592
3 655 652 594
3 587 655 594
3 657 596 663
3 590 596 657
3 664 659 657
3 664 657 665
3 665 657 663
3 665 666 667
3 664 665 667
3 666 598 597
3 666 597 667
3 667 597 668
3 662 599 660
3 662 668 599
3 668 597 599
3 593 660 599
3 596 601 663
3 603 663 601
3 665 663 603
3 605 665 603
3 666 665 605
3 598 666 605
3 669 670 671
3 669 672 673
3 671 672 669
3 673 674 675
3 672 674 673
3 674 676 675
3 677 678 679
3 670 677 679
3 670 669 677
3 669 680 677
3 673 681 669
3 681 680 669
3 675 682 673
3 682 681 673
3 683 675 676
3 682 675 683
3 608 678 677
3 608 607 678
3 607 684 678
3 609 608 677
3 680 609 677
3 611 609 680
3 681 611 680
3 612 611 681
3 682 612 681
3 682 683 685
3 682 685 612
3 612 685 613
3 685 614 613
3 686 614 685
3 607 616 684
3 684 616 687
3 614 686 618
3 686 688 618
3 689 690 691
3 689 691 687
3 689 687 620
3 620 687 616
3 618 688 621
3 688 692 621
3 624 690 689
3 624 623 690
3 623 693 690
3 620 624 689
3 621 692 626
3 692 694 626
3 623 628 693
3 693 628 695
3 626 694 696
3 629 626 696
3 696 630 629
3 697 630 696
3 628 631 695
3 695 631 698
3 630 697 632
3 697 699 632
3 631 633 698
3 698 633 700
3 632 699 635
3 699 701 635
3 633 636 700
3 700 636 702
3 635 701 638
3 701 703 638
3 640 639 704
3 640 704 705
3 640 705 636
3 636 705 702
3 642 706 707
3 643 642 707
3 703 642 638
3 706 642 703
3 704 645 708
3 639 645 704
3 709 705 704
3 708 709 704
3 643 707 647
3 707 710 647
3 708 648 711
3 645 648 708
3 712 709 708
3 711 712 708
3 713 714 715
3 713 710 714
3 713 650 710
3 650 647 710
3 711 651 716
3 648 651 711
3 717 712 711
3 716 717 711
3 718 719 720
3 718 721 722
3 719 718 722
3 715 722 721
3 713 715 721
3 713 721 654
3 713 654 653
3 650 713 653
3 651 656 716
3 716 723 717
3 716 656 723
3 656 658 723
3 659 724 725
3 659 725 658
3 658 725 723
3 724 726 727
3 725 724 727
3 720 727 726
3 720 726 718
3 718 726 728
3 661 728 662
3 661 721 728
3 721 718 728
3 654 721 661
3 659 664 724
3 667 724 664
3 726 724 667
3 668 726 667
3 728 726 668
3 662 728 668
3 729 730 731
3 729 732 733
3 731 732 729
3 732 734 733
3 735 730 729
3 736 730 735
3 733 737 729
3 737 735 729
3 738 733 734
3 737 733 738
3 735 739 736
3 737 739 735
3 740 739 737
3 738 740 737
3 741 742 743
3 741 744 745
3 743 744 741
3 745 746 747
3 744 746 745
3 746 748 747
3 749 742 741
3 750 742 749
3 671 670 749
3 671 749 745
3 745 749 741
3 672 671 745
3 747 672 745
3 747 748 751
3 747 751 672
3 672 751 674
3 751 676 674
3 752 676 751
3 679 750 749
3 679 678 750
3 678 753 750
3 670 679 749
3 676 752 683
3 752 754 683
3 755 756 757
3 755 757 753
3 755 753 684
3 684 753 678
3 683 754 758
3 685 683 758
3 758 686 685
3 759 686 758
3 760 756 755
3 761 756 760
3 684 687 760
3 755 684 760
3 686 759 688
3 759 762 688
3 691 761 760
3 691 690 761
3 690 763 761
3 687 691 760
3 688 762 692
3 762 764 692
3 690 693 763
3 763 693 765
3 692 764 694
3 764 766 694
3 693 695 765
3 765 695 767
3 768 696 694
3 768 694 769
3 769 694 766
3 696 768 697
3 695 698 767
3 767 698 770
3 771 768 769
3 772 771 769
3 697 771 699
3 768 771 697
3 698 700 770
3 770 700 773
3 774 771 772
3 775 774 772
3 699 774 701
3 771 774 699
3 700 702 773
3 773 702 776
3 777 774 775
3 778 777 775
3 701 777 703
3 774 777 701
3 702 705 776
3 776 705 779
3 780 781 782
3 778 781 780
3 777 778 780
3 777 780 707
3 777 707 706
3 703 777 706
3 705 709 779
3 779 709 783
3 784 785 786
3 784 787 788
3 785 784 788
3 782 788 787
3 782 787 780
3 780 787 789
3 707 789 710
3 780 789 707
3 790 712 791
3 790 783 712
3 783 709 712
3 791 792 793
3 790 791 793
3 792 794 795
3 793 792 795
3 786 795 794
3 786 794 784
3 784 794 796
3 787 784 797
3 797 784 796
3 714 797 715
3 714 789 797
3 789 787 797
3 710 789 714
3 791 717 798
3 712 717 791
3 792 791 799
3 799 791 798
3 794 792 800
3 800 792 799
3 719 800 720
3 719 796 800
3 796 794 800
3 722 796 719
3 797 796 722
3 715 797 722
3 717 723 798
3 725 798 723
3 799 798 725
3 727 799 725
3 800 799 727
3 720 800 727
3 801 802 803
3 801 804 805
3 803 804 801
3 804 806 805
3 807 802 801
3 808 802 807
3 731 730 807
3 731 807 805
3 805 807 801
3 805 806 809
3 805 809 731
3 731 809 732
3 809 734 732
3 810 734 809
3 811 808 807
3 812 808 811
3 730 736 811
3 807 730 811
3 734 810 738
3 810 813 738
3 814 812 811
3 815 812 814
3 736 739 816
3 736 816 811
3 811 816 814
3 739 740 817
3 816 739 817
3 740 818 817
3 740 738 818
3 738 813 818
3 819 815 814
3 820 815 819
3 816 821 814
3 821 819 814
3 817 822 816
3 822 821 816
3 823 817 818
3 823 824 817
3 824 822 817
3 823 825 824
3 826 820 819
3 827 820 826
3 821 828 819
3 828 826 819
3 822 829 821
3 829 828 821
3 824 830 822
3 830 829 822
3 831 824 825
3 830 824 831
3 826 832 827
3 832 833 834
3 832 826 833
3 826 828 833
3 829 835 828
3 835 833 828
3 830 836 829
3 836 835 829
3 837 830 831
3 836 830 837
3 838 834 833
3 839 834 838
3 835 840 833
3 840 838 833
3 836 841 835
3 841 840 835
3 842 836 837
3 841 836 842
3 838 843 839
3 843 844 845
3 843 838 844
3 838 840 844
3 841 846 840
3 846 844 840
3 847 841 842
3 847 848 841
3 848 846 841
3 847 849 848
3 743 845 844
3 743 742 845
3 742 850 845
3 744 743 844
3 846 744 844
3 746 744 846
3 848 746 846
3 848 748 746
3 848 849 748
3 849 851 748
3 852 853 854
3 852 854 850
3 852 850 750
3 750 850 742
3 748 851 855
3 751 748 855
3 855 752 751
3 856 752 855
3 857 853 852
3 858 853 857
3 750 753 857
3 852 750 857
3 752 856 754
3 856 859 754
3 757 858 857
3 757 756 858
3 756 860 858
3 753 757 857
3 861 758 754
3 861 754 862
3 862 754 859
3 758 861 759
3 756 761 860
3 860 761 863
3 861 862 864
3 864 759 861
3 864 865 759
3 865 762 759
3 761 763 863
3 863 763 866
3 762 865 764
3 865 867 764
3 763 765 866
3 866 765 868
3 869 870 871
3 869 867 870
3 869 766 867
3 766 764 867
3 765 767 868
3 868 767 872
3 873 869 871
3 874 873 871
3 766 873 769
3 869 873 766
3 767 770 872
3 872 770 875
3 876 873 874
3 877 876 874
3 769 876 772
3 873 876 769
3 770 773 875
3 875 773 878
3 879 880 881
3 877 880 879
3 877 879 876
3 876 879 882
3 772 882 775
3 876 882 772
3 773 776 878
3 878 776 883
3 884 879 881
3 885 884 881
3 882 879 886
3 886 879 884
3 775 886 778
3 882 886 775
3 776 779 883
3 883 779 887
3 888 884 885
3 889 888 885
3 781 888 782
3 781 886 888
3 886 884 888
3 778 886 781
3 890 783 891
3 890 887 783
3 887 779 783
3 891 892 893
3 890 891 893
3 892 894 895
3 893 892 895
3 894 786 785
3 894 785 895
3 895 785 896
3 889 788 888
3 889 896 788
3 896 785 788
3 782 888 788
3 783 790 891
3 793 891 790
3 892 891 793
3 795 892 793
3 894 892 795
3 786 894 795
3 803 897 898
3 802 897 803
3 804 803 899
3 803 898 899
3 899 806 804
3 900 806 899
3 802 808 897
3 897 808 901
3 806 900 902
3 809 806 902
3 902 810 809
3 903 810 902
3 808 812 901
3 901 812 904
3 810 903 813
3 903 905 813
3 812 815 904
3 904 815 906
3 813 905 818
3 905 907 818
3 815 820 906
3 906 820 908
3 818 907 909
3 823 818 909
3 909 825 823
3 910 825 909
3 820 827 908
3 908 827 911
3 825 910 831
3 910 912 831
3 913 827 832
3 913 914 827
3 914 911 827
3 832 834 913
3 831 912 837
3 912 915 837
3 913 916 914
3 916 913 834
3 916 834 917
3 917 834 839
3 837 915 842
3 915 918 842
3 839 919 917
3 843 919 839
3 919 843 845
3 920 919 845
3 842 918 921
3 847 842 921
3 921 849 847
3 922 849 921
3 845 850 920
3 920 850 923
3 849 922 851
3 922 924 851
3 854 925 926
3 853 925 854
3 923 850 854
3 926 923 854
3 851 924 927
3 855 851 927
3 927 856 855
3 928 856 927
3 853 858 925
3 925 858 929
3 856 928 859
3 928 930 859
3 858 860 929
3 929 860 931
3 859 930 862
3 930 932 862
3 860 863 931
3 931 863 933
3 934 864 862
3 934 862 935
3 935 862 932
3 864 934 865
3 863 866 933
3 933 866 936
3 937 934 935
3 938 937 935
3 865 937 867
3 934 937 865
3 866 868 936
3 936 868 939
3 870 937 938
3 870 938 871
3 871 938 940
3 867 937 870
3 868 872 939
3 939 872 941
3 942 943 944
3 942 940 943
3 942 874 940
3 874 871 940
3 945 875 946
3 945 941 875
3 941 872 875
3 946 947 948
3 945 946 948
3 947 949 950
3 948 947 950
3 949 951 952
3 950 949 952
3 944 952 951
3 944 951 942
3 942 951 953
3 874 953 877
3 942 953 874
3 946 878 954
3 875 878 946
3 947 946 955
3 955 946 954
3 949 947 956
3 956 947 955
3 951 949 957
3 957 949 956
3 880 957 881
3 880 953 957
3 953 951 957
3 877 953 880
3 954 883 958
3 878 883 954
3 955 954 959
3 959 954 958
3 956 955 960
3 960 955 959
3 957 956 961
3 961 956 960
3 881 961 885
3 957 961 881
3 958 887 962
3 883 887 958
3 959 958 963
3 963 958 962
3 960 959 964
3 964 959 963
3 961 960 965
3 965 960 964
3 885 965 889
3 961 965 885
3 887 890 962
3 893 962 890
3 963 962 893
3 895 963 893
3 964 963 895
3 896 964 895
3 965 964 896
3 889 965 896
3 898 897 966
3 898 967 899
3 966 967 898
3 899 967 900
3 966 901 968
3 897 901 966
3 967 966 969
3 969 966 968
3 900 970 902
3 900 967 970
3 967 969 970
3 902 970 903
3 968 971 972
3 968 901 971
3 901 904 971
3 969 968 972
3 973 969 972
3 970 969 973
3 974 970 973
3 974 903 970
3 974 975 903
3 975 905 903
3 904 906 971
3 971 906 976
3 905 975 907
3 975 977 907
3 906 908 976
3 976 908 978
3 907 977 979
3 909 907 979
3 979 910 909
3 980 910 979
3 908 911 978
3 978 911 981
3 910 980 912
3 980 982 912
3 911 914 981
3 981 914 983
3 912 982 915
3 982 984 915
3 914 985 983
3 916 985 914
3 985 916 917
3 986 985 917
3 915 984 918
3 984 987 918
3 917 988 986
3 919 988 917
3 920 989 990
3 920 990 919
3 919 990 988
3 989 991 992
3 990 989 992
3 921 991 993
3 921 987 991
3 921 918 987
3 992 991 987
3 921 993 922
3 989 923 994
3 920 923 989
3 991 989 995
3 995 989 994
3 993 991 996
3 996 991 995
3 922 996 924
3 993 996 922
3 926 997 998
3 925 997 926
3 994 923 926
3 994 926 999
3 999 926 998
3 995 994 999
3 1000 995 999
3 1000 1001 1002
3 1000 1002 995
3 995 1002 996
3 924 1003 927
3 924 996 1003
3 996 1002 1003
3 927 1003 928
3 925 929 997
3 997 929 1004
3 1005 1002 1001
3 1006 1005 1001
3 1003 1002 1007
3 1007 1002 1005
3 928 1007 930
3 1003 1007 928
3 929 931 1004
3 1004 931 1008
3 1009 1005 1006
3 1010 1009 1006
3 1007 1005 1011
3 1011 1005 1009
3 930 1011 932
3 1007 1011 930
3 931 933 1008
3 1008 933 1012
3 1013 1009 1010
3 1014 1013 1010
3 1011 1009 1015
3 1015 1009 1013
3 932 1015 935
3 1011 1015 932
3 933 936 1012
3 1012 936 1016
3 1017 1013 1014
3 1018 1017 1014
3 1015 1013 1019
3 1019 1013 1017
3 935 1019 938
3 1015 1019 935
3 1020 939 1021
3 1020 1016 939
3 1016 936 939
3 1021 1022 1023
3 1020 1021 1023
3 1022 1024 1025
3 1023 1022 1025
3 1018 1025 1024
3 1018 1024 1017
3 1017 1024 1026
3 1019 1017 1027
3 1027 1017 1026
3 938 1027 940
3 1019 1027 938
3 1021 941 1028
3 939 941 1021
3 1022 1021 1029
3 1029 1021 1028
3 1024 1022 1030
3 1030 1022 1029
3 1026 1024 1031
3 1031 1024 1030
3 943 1031 944
3 943 1027 1031
3 1027 1026 1031
3 940 1027 943
3 941 945 1028
3 948 1028 945
3 1029 1028 948
3 950 1029 948
3 1030 1029 950
3 952 1030 950
3 1031 1030 952
3 944 1031 952
3 972 971 1032
3 972 1033 973
3 1032 1033 972
3 973 1034 974
3 1033 1034 973
3 974 1034 975
3 1032 976 1035
3 971 976 1032
3 1033 1032 1036
3 1036 1032 1035
3 1034 1033 1037
3 1037 1033 1036
3 975 1037 977
3 1034 1037 975
3 1035 978 1038
3 976 978 1035
3 1036 1035 1039
3 1039 1035 1038
3 1037 1036 1040
3 1040 1036 1039
3 977 1041 979
3 977 1037 1041
3 1037 1040 1041
3 979 1041 980
3 1038 981 1042
3 978 981 1038
3 1039 1038 1043
3 1043 1038 1042
3 1040 1039 1044
3 1044 1039 1043
3 1041 1040 1045
3 1045 1040 1044
3 980 1045 982
3 1041 1045 980
3 1042 983 1046
3 981 983 1042
3 1043 1042 1047
3 1047 1042 1046
3 1044 1043 1048
3 1048 1043 1047
3 1045 1044 1049
3 1049 1044 1048
3 982 1049 984
3 1045 1049 982
3 983 985 1046
3 986 1046 985
3 986 1050 1046
3 1050 1047 1046
3 1048 1047 1051
3 1051 1047 1050
3 1049 1048 1052
3 1052 1048 1051
3 984 1052 987
3 1049 1052 984
3 986 988 1050
3 990 1050 988
3 1051 1050 990
3 992 1051 990
3 1052 1051 992
3 987 1052 992
3 998 997 1053
3 998 1054 999
3 1053 1054 998
3 999 1055 1000
3 1054 1055 999
3 1000 1055 1001
3 1053 1004 1056
3 997 1004 1053
3 1054 1053 1057
3 1057 1053 1056
3 1055 1054 1058
3 1058 1054 1057
3 1001 1058 1006
3 1055 1058 1001
3 1056 1008 1059
3 1004 1008 1056
3 1057 1056 1060
3 1060 1056 1059
3 1058 1057 1061
3 1061 1057 1060
3 1006 1061 1010
3 1058 1061 1006
3 1059 1012 1062
3 1008 1012 1059
3 1060 1059 1063
3 1063 1059 1062
3 1061 1060 1064
3 1064 1060 1063
3 1010 1064 1014
3 1061 1064 1010
3 1062 1016 1065
3 1012 1016 1062
3 1063 1062 1066
3 1066 1062 1065
3 1064 1063 1067
3 1067 1063 1066
3 1014 1067 1018
3 1064 1067 1014
3 1016 1020 1065
3 1023 1065 1020
3 1066 1065 1023
3 1025 1066 1023
3 1067 1066 1025
3 1018 1067 1025
