# vtk DataFile Version 3.0
this file was written using fslvtkio
ASCII
DATASET POLYDATA
POINTS 642 float
134.912 134.443 130.503
142.417 142.876 141.502
142.875 133.439 147.294
138.618 129.564 140.816
144.855 132.518 126.128
131.374 129.412 148.708
134.507 133.188 153.807
150.866 137.71 133.376
142.272 140.535 128.291
145.194 128.89 141.152
136.281 126.646 153.817
134.68 139.94 137.363
146.297 137.029 133.088
143.575 134.711 130.103
149.768 134.641 128.077
149.192 132.694 135.877
146.132 129.89 133.138
134.427 135.925 146.583
131.028 130.348 153.512
133.509 133.908 143.613
135.102 128.554 158.748
131.945 125.534 155.25
141.174 131.321 133.557
139.571 133.049 129.586
136.832 131.837 135.207
135.062 128.961 145.318
134.494 133.694 138.398
146 139.526 138.018
146.181 135.836 139.488
142.775 137.945 145.065
138.21 138.034 145.185
138.977 133.604 151.671
133.854 138.459 131.933
138.362 139.319 124.76
138.378 142.554 130.231
138.148 142.855 138.058
143.555 144.594 131.817
137.017 128.187 147.169
142.41 126.247 147.818
141.897 128.686 140.896
139.236 130.346 150.273
143.799 131.166 143.361
146.457 135.89 129.657
147.436 134.528 126.843
149.707 136.591 129.009
147.79 132.823 124.629
144.493 133.697 127.394
142.068 135.716 132.966
143.321 136.906 134.441
149.195 138.47 131.49
152.211 136.989 130.136
150.65 133.565 131.686
148.69 131.6 129.7
148.294 131.286 133.729
146.103 131.361 128.87
150.661 135.27 134.335
146.587 131.181 138.089
145.45 130.48 136.767
132.332 133.155 150.775
131.219 131.852 149.356
133.499 134.924 145.279
131.431 131.696 146.199
129.958 129.168 151.609
132.535 131.867 155.097
134.059 135.01 150.622
134.331 138.647 141.743
133.076 137.695 139.911
132.625 127.273 157.614
129.044 126.716 157.185
131.778 128.057 158.86
130.934 126.901 153.404
134.057 125.801 154.627
135.347 127.207 156.684
134.002 130.557 157.004
140.275 131.801 130.704
137.228 132.274 131.611
138.908 132.122 134.212
134.773 132.674 132.436
136.635 134.083 129.783
141.514 132.186 127.024
143.418 132.018 129.666
139.987 130.965 137.458
137.843 132.136 138.443
136.007 131.658 139.621
135.038 133.388 136.477
134.798 131.111 143.02
133.699 133.479 133.879
136.836 129.435 142.547
132.243 128.281 147.722
133.361 131.408 144.3
146.972 138.011 138.891
144.122 137.524 141.295
144.29 139.859 141.247
141.781 135.684 144.404
144.35 134.85 143.303
148.59 136.741 135.835
149.362 139.275 135.614
144.238 142.266 139.522
142.552 141.429 142.802
140.383 138.475 144.941
140.091 135.652 147.163
138.087 135.851 148.914
141.237 133.437 149.906
140.518 141.351 143.977
135.926 135.253 150.2
136.286 132.862 153.59
135.561 139.614 127.12
138.161 141.762 125.985
135.473 141.481 129.408
140.532 142.526 127.766
140.886 140.355 125.63
136.01 137.059 126.955
134.308 136.647 130.395
133.811 139.825 134.305
136.44 141.611 133.528
138.344 143.993 133.189
141.009 144.835 129.858
140.726 144.929 134.164
143.333 142.693 129.171
136.028 141.871 137.401
140.277 143.233 139.315
143.017 144.266 136.724
139.652 127.157 145.351
142.707 124.737 144.865
139.918 127.396 143.744
143.757 128.038 141.315
144.908 126.227 146.227
139.337 126.283 150.898
136.083 127.19 150.959
137.69 128.85 144.439
139.949 130.19 141.629
142.835 130.776 146.854
145.248 127.712 149.264
140.999 128.926 149.005
145.516 129.418 143.293
142.648 132.347 144.919
140.578 131.762 148.486
137.676 128.01 153.596
141.83 133.553 129.399
140.159 135.582 130.277
138.519 135.752 127.72
133.628 135.513 135.044
132.912 136.902 137.046
133.936 134.076 140.35
143.723 130.119 136.485
143.601 130.502 132.819
141.907 130.208 136.65
135.076 127.642 147.181
133.154 126.541 150.913
134.282 125.582 151.364
143.838 139.08 135.78
146.576 138.102 135.227
145.124 142.481 134.943
138.06 140.886 142.659
136.277 137.565 145.629
135.772 140.169 142.231
145.852 133.458 141.676
148.261 134.14 138.097
146.314 132.21 139.577
137.848 129.001 156.068
136.989 130.837 155.181
139.045 131.295 153.435
147.645 134.737 128.745
149.471 135.57 127.077
148.417 135.317 129.798
150.844 135.804 127.643
149.208 134.535 125.927
145.775 133.469 129.695
145.403 135.257 129.139
146.774 136.457 131.085
148.284 135.692 132.088
147.948 134.25 123.364
145.856 134.157 126.512
146.033 132.863 124.409
144.34 133.409 130.003
149.168 133.558 125.373
145.884 132.161 126.114
143.723 132.593 125.573
144.516 135.333 131.704
145.157 136.032 132.426
143.306 136.051 133.339
144.846 136.904 133.468
143.01 135.072 131.864
142.169 138.794 129.496
142.806 139.296 130.536
149.579 137.857 130.404
151.749 137.851 128.168
151.793 138.512 130.474
151.709 135.951 128.889
147.667 136.631 133.146
150.911 138.759 132.413
151.442 137.539 131.929
149.39 133.055 130.201
148.875 130.985 131.92
149.52 132.321 132.667
147.509 130.21 133.639
147.546 130.004 131.494
149.539 133.036 127.907
150.487 134.389 129.448
150.113 132.809 134.356
148.848 131.867 134.833
147.512 131.514 128.695
148.599 132.087 126.757
147.112 132.034 126.927
146.066 130.307 130.995
145.468 131.695 127.245
151.658 135.106 130.922
151.069 134.419 133.117
151.563 135.997 132.197
150.43 133.546 135.867
150.679 136.563 133.891
147.529 131.8 135.27
147.054 131.099 134.473
146.374 130.62 137.264
146.33 130.567 134.312
147.986 132.176 136.031
145.522 130.328 139.255
145.088 129.938 138.915
131.612 132.414 150.394
132.149 133.563 147.393
132.509 134.049 148.28
133.196 134.524 144.508
131.681 133.268 146.493
130.452 131.099 151.866
131.249 132.081 152.43
133.031 134.722 148.853
133.573 135.5 146.281
131.036 131.903 147.604
130.228 130.458 150.782
130.427 130.458 148.833
129.614 129.399 153.329
132.059 132.972 144.909
131.364 130.436 147.286
130.882 129.269 149.882
132.33 132.814 152.862
133.309 133.942 150.795
133.253 133.48 152.944
134.135 135.688 148.407
131.617 131.237 154.579
133.765 132.522 154.566
134.44 134.434 152.285
134.346 136.648 143.346
133.682 136.362 142.289
133.993 137.887 141.005
133.316 135.773 141.465
134.571 137.176 144.33
134.755 139.352 139.246
133.702 139.07 138.502
130.835 126.923 157.808
130.793 127.577 157.921
131.978 127.272 159.261
131.579 129.581 155.419
130.122 128.543 155.857
130.661 126.584 156.449
131.81 126.881 156.16
133.654 127.488 159.28
133.174 128.255 159.952
129.015 127.818 154.916
130.157 126.885 155.104
130.488 128.064 152.931
131.393 125.967 154.423
131.079 128.207 150.834
133.236 126.522 155.936
134.143 127.124 157.117
134.436 126.745 155.619
135.406 127.955 157.678
133.032 125.573 154.787
135.148 126.287 154.378
135.716 126.598 155.234
132.813 129.749 158.789
132.305 129.702 156.779
132.971 130.859 156.754
134.443 129.769 158.268
134.272 131.871 155.693
138.823 132.061 131.367
138.306 131.851 132.525
139.514 131.767 132.333
137.892 132.128 134.492
136.796 131.901 133.223
138.268 132.566 130.512
139.801 132.105 129.779
140.836 131.487 132.009
140.073 132.221 134.2
135.75 132.709 132.269
136.577 132.976 131.164
135.379 133.291 131.132
138.014 133.641 130.181
135.398 132.308 133.813
134.455 133.342 131.341
135.563 134.395 129.614
141.091 132.106 128.678
141.689 131.636 129.868
142.199 132.112 128.784
142.415 131.736 131.442
140.583 132.673 127.608
142.707 132.602 127.62
144.143 132.222 127.884
139.09 132.268 136.177
137.786 132.677 136.214
138.734 131.995 138.082
137.274 132.117 136.171
140.352 131.375 135.787
139.376 130.396 138.814
138.357 130.833 140.152
135.368 131.568 138.77
135.17 132.291 139.584
135.342 131.363 141.111
135.237 133.012 140.527
134.863 133.871 136.999
135.593 132.414 135.719
136.403 131.739 137.232
136.215 130.824 142.519
134.884 130.202 144.203
134.154 132.859 135.06
134.381 132.709 134.312
133.814 132.697 132.96
133.934 133.512 135.971
134.029 133.965 132.092
136.877 132.196 138.855
136.604 130.914 141.407
137.466 131.274 140.296
136.126 129.223 143.547
137.619 129.517 141.408
133.558 129.799 145.186
134.637 131.603 143.45
132.773 129.784 145.677
135.008 133.028 141.625
133.501 128.459 146.513
131.85 128.894 148.458
132.074 130.12 146.288
145.808 137.92 140.32
144.681 138.658 141.525
145.652 139.054 140.071
143.694 139.161 143.273
143.515 137.957 142.94
144.987 136.72 140.496
146.633 136.986 138.881
146.758 138.947 138.818
145.326 140.026 139.855
142.886 136.906 143.129
143.374 136.185 141.658
142.764 135.295 143.61
144.735 135.351 141.111
142.194 137.013 144.36
142.165 134.244 145.682
143.579 134.061 145.111
148.092 137.804 136.923
148.376 138.92 137.051
149.221 138.068 135.709
148.088 139.955 136.709
147.473 136.314 137.465
149.766 137.146 134.526
150.199 138.556 134.216
144.377 141.118 140.445
143.403 140.667 142.266
143.737 141.773 141.53
142.794 139.696 143.995
144.898 141.23 139.066
143.367 142.604 140.548
142.603 142.211 142.609
140.334 136.908 147.37
138.896 135.521 147.686
139.021 136.834 147.344
138.247 134.276 150.451
139.309 134.254 148.908
141.261 136.905 145.838
141.887 138.398 145.777
139.281 138.65 144.358
137.915 136.847 147.271
140.465 134.387 147.66
141.032 135.913 145.225
141.394 134.452 146.571
140.18 133.694 150.279
142.063 133.501 148.485
141.227 140.327 143.671
140.226 140.419 143.306
141.502 141.522 143.69
139.279 139.895 143.939
141.445 142.446 142.993
137.171 135.521 149.968
137.21 133.898 151.518
136.299 134.188 151.761
137.547 132.998 153.194
136.966 136.405 147.393
135.273 134.532 152.38
135.23 132.893 153.795
136.847 140.795 126.27
136.851 141.649 127.629
135.603 140.456 128.238
137.028 142.073 129.523
138.153 142.371 127.883
138.459 140.67 125.322
137.137 139.765 125.745
134.637 139.373 129.685
134.492 140.297 130.636
139.222 142.473 126.755
139.767 141.57 125.384
140.703 141.712 126.382
139.638 140.022 125.037
139.517 142.705 128.981
141.639 141.651 127.61
141.69 140.388 126.919
136.159 138.41 127.113
135.105 138.269 128.928
135.192 137.029 128.799
133.935 137.697 130.716
137.22 138.303 125.826
135.441 135.754 128.939
134.327 135.525 130.025
134.383 141.163 131.708
136.03 141.387 131.303
135.053 140.943 133.486
137.348 142.096 131.727
133.833 139.3 132.901
134.269 139.781 136.042
135.234 140.903 135.433
139.538 144.372 131.524
140.807 145.484 131.733
139.376 144.69 133.718
142.116 145.273 132.972
142.267 145.032 130.733
139.786 143.745 129.907
138.547 143.387 131.374
138.311 143.401 135.665
139.457 143.995 136.125
142.246 143.965 129.159
141.06 143.716 128.579
141.996 142.811 128.251
143.464 144.054 129.951
142.872 141.461 128.719
137.48 142.81 133.135
137.287 142.87 135.253
136.469 141.843 135.203
136.905 142.562 137.74
135.465 140.742 137.281
140.626 144.175 136.794
141.869 144.581 135.285
141.642 144.006 137.858
143.247 144.536 134.133
139.207 143.322 138.705
141.435 143.408 140.679
142.826 143.697 139.379
140.953 125.478 145.456
140.826 126.996 143.429
139.396 127.461 143.951
141.083 128.223 141.406
142.483 126.988 142.221
143.131 124.911 147.484
141.596 126.234 148.148
137.9 128.008 146.025
138.386 127.972 144.625
143.843 126.086 143.374
144.224 124.912 146.083
144.874 126.457 143.906
144.268 125.475 147.945
143.118 128.186 140.921
144.849 128.286 141.056
145.051 127.673 143.591
139.609 126.372 149.47
138.038 127.163 148.519
137.43 126.636 150.482
136.763 127.606 149.147
140.928 126.692 148.96
137.611 126.565 152.528
136.424 126.453 152.795
138.903 128.941 143.408
139.923 129.058 142.527
138.813 129.524 142.897
140.721 129.97 140.866
137.289 128.917 145.396
137.798 128.901 142.676
139.148 129.502 141.144
144.289 129.203 149.818
143.007 129.605 147.491
141.824 129.81 148.159
142.017 128.144 147.765
143.844 127.424 148.401
145.221 129.078 147.486
144.227 130.412 146.293
140.829 131.32 146.638
140.043 129.658 149.506
145.231 126.95 147.967
145.715 128.393 146.479
145.687 127.596 145.259
144.838 130.186 143.819
145.325 129.1 142.018
142.346 131.549 145.423
140.735 131.766 145.861
141.938 132.323 146.281
139.666 131.321 148.356
142.899 131.765 143.574
143.261 133.149 146.423
141.985 132.682 148.643
139.409 128.484 151.011
140.467 127.104 150.345
138.446 127.37 152.115
138.381 129.171 152.149
137.197 127.018 153.868
140.81 134.437 130.46
139.302 136 128.542
140.296 134.048 130.122
138.257 137.789 125.31
139.79 138.35 125.601
141.788 134.729 131.577
142.554 134.34 129.742
141.021 133.297 129.428
139.551 133.705 129.183
140.694 138.58 126.604
141.029 135.359 132.268
141.795 138.547 127.809
143.441 133.679 127.838
142.072 133.287 127.617
143.013 133.079 126.861
137.67 135.03 128.429
137.214 136.645 126.625
136.21 135.533 127.84
133.302 136.264 135.78
133.2 135.361 138.507
133.412 134.795 137.544
133.235 134.133 141.807
133.229 135.586 140.043
133.382 137.781 134.367
133.78 136.97 133.12
133.781 134.251 136.601
134.251 133.685 139.367
132.84 137.265 138.657
133.145 138.396 135.668
132.983 138.977 137.202
133.801 136.094 132.537
133.748 134.69 134.266
133.763 135.122 132.162
133.989 132.773 142.725
132.528 132.788 143.639
132.3 131.44 145.366
143.816 129.947 134.778
142.726 130.002 134.72
142.587 130.102 136.899
141.574 130.883 135.02
142.469 131.065 132.937
144.956 130.176 133.033
145.051 130.548 134.478
142.495 130.652 138.749
141.737 130.565 139.173
143.815 131.427 131.389
145.182 130.855 130.917
144.619 131.265 129.272
144.639 130.348 136.466
143.174 130.065 138.945
144.203 129.618 138.907
140.921 130.09 139.612
141 130.09 137.277
140.125 129.537 139.384
134.483 126.99 149.541
133.532 126.029 151.658
134.582 126.677 149.718
133.03 125.394 153.553
132.393 125.914 153.188
133.894 127.621 148.151
134.749 128.074 145.981
135.957 128.25 147.494
135.751 126.839 149.391
132.189 126.675 152.043
132.775 127.344 149.469
131.448 127.349 150.579
135.662 127.822 144.472
136.411 128.494 145.303
136.611 128.134 143.154
135.315 125.692 151.221
133.94 125.606 152.9
135.254 125.926 153.041
144.97 138.356 135.887
145.107 139.117 136.091
144.297 141.004 134.896
145.457 140.329 137.002
146.499 138.8 135.992
146.636 137.741 134.129
145.017 137.604 134.929
144.181 142.934 131.62
144.605 144.076 132.923
148.064 139.292 134.4
148.451 138.348 133.235
150.116 139.61 132.99
143.611 137.73 135.386
144.084 141.694 130.855
143.782 140.463 130.441
144.279 143.9 135.4
144.955 142.69 136.894
143.837 143.308 137.906
137.116 139.399 144.427
136.036 139.008 144.221
136.868 140.589 142.477
135.163 138.163 144.1
135.354 136.962 146.037
137.33 137.877 145.222
138.426 139.689 144.077
137.889 142.014 140.58
136.791 141.565 140.229
134.981 136.363 148.541
136.131 136.72 147.932
135.302 135.436 150.128
139.254 141.285 143.493
139.071 142.26 141.09
140.296 142.494 142.243
135.853 141.133 139.827
134.948 139.394 141.983
135.177 140.335 139.525
147.097 133.804 140.075
147.407 133.075 138.924
146.048 132.532 141.217
147.784 132.441 137.57
148.896 133.256 137.075
147.336 135.054 138.849
146.237 134.737 140.673
144.378 132.482 142.116
144.481 132.061 141.058
149.569 134.414 136.371
148.338 135.277 136.933
149.534 135.839 135.456
145.277 134.026 142.687
144.308 132.768 143.657
144.09 133.449 144.586
144.698 131.299 140.998
146.221 131.745 138.747
145.149 130.557 140.549
137.397 129.994 156.045
138.327 131.411 153.874
138.624 130.235 154.553
139.477 132.845 152.609
137.985 132.379 153.551
136.018 129.638 156.783
136.495 128.697 157.294
138.75 129.449 153.787
138.936 130.81 151.737
136.336 131.462 155.199
134.958 130.102 156.016
135.219 131.563 155.614
136.347 128.311 156.326
137.849 128.249 155.173
136.815 127.051 155.739
139.751 131.663 150.626
140.574 132.541 152.508
141.44 132.664 150.679
POLYGONS 1280  5120
3 164 162 163
3 163 44 164
3 162 43 163
3 164 42 162
3 166 165 163
3 163 43 166
3 165 44 163
3 166 14 165
3 168 167 162
3 162 42 168
3 167 43 162
3 168 13 167
3 170 169 164
3 164 44 170
3 169 42 164
3 170 12 169
3 173 171 172
3 172 46 173
3 171 43 172
3 173 45 171
3 167 174 172
3 172 43 167
3 174 46 172
3 167 13 174
3 175 166 171
3 171 45 175
3 166 43 171
3 175 14 166
3 177 176 173
3 173 46 177
3 176 45 173
3 177 4 176
3 180 178 179
3 179 48 180
3 178 42 179
3 180 47 178
3 169 181 179
3 179 42 169
3 181 48 179
3 169 12 181
3 182 168 178
3 178 47 182
3 168 42 178
3 182 13 168
3 184 183 180
3 180 48 184
3 183 47 180
3 184 8 183
3 187 185 186
3 186 50 187
3 185 44 186
3 187 49 185
3 165 188 186
3 186 44 165
3 188 50 186
3 165 14 188
3 189 170 185
3 185 49 189
3 170 44 185
3 189 12 170
3 191 190 187
3 187 50 191
3 190 49 187
3 191 7 190
3 194 192 193
3 193 53 194
3 192 52 193
3 194 51 192
3 196 195 193
3 193 52 196
3 195 53 193
3 196 16 195
3 198 197 192
3 192 51 198
3 197 52 192
3 198 14 197
3 200 199 194
3 194 53 200
3 199 51 194
3 200 15 199
3 203 201 202
3 202 45 203
3 201 52 202
3 203 54 201
3 197 175 202
3 202 52 197
3 175 45 202
3 197 14 175
3 204 196 201
3 201 54 204
3 196 52 201
3 204 16 196
3 176 205 203
3 203 45 176
3 205 54 203
3 176 4 205
3 208 206 207
3 207 55 208
3 206 51 207
3 208 50 206
3 199 209 207
3 207 51 199
3 209 55 207
3 199 15 209
3 188 198 206
3 206 50 188
3 198 51 206
3 188 14 198
3 210 191 208
3 208 55 210
3 191 50 208
3 210 7 191
3 213 211 212
3 212 57 213
3 211 53 212
3 213 56 211
3 195 214 212
3 212 53 195
3 214 57 212
3 195 16 214
3 215 200 211
3 211 56 215
3 200 53 211
3 215 15 200
3 217 216 213
3 213 57 217
3 216 56 213
3 217 9 216
3 220 218 219
3 219 60 220
3 218 59 219
3 220 58 218
3 222 221 219
3 219 59 222
3 221 60 219
3 222 19 221
3 224 223 218
3 218 58 224
3 223 59 218
3 224 18 223
3 226 225 220
3 220 60 226
3 225 58 220
3 226 17 225
3 229 227 228
3 228 62 229
3 227 59 228
3 229 61 227
3 223 230 228
3 228 59 223
3 230 62 228
3 223 18 230
3 231 222 227
3 227 61 231
3 222 59 227
3 231 19 222
3 233 232 229
3 229 62 233
3 232 61 229
3 233 5 232
3 236 234 235
3 235 64 236
3 234 58 235
3 236 63 234
3 225 237 235
3 235 58 225
3 237 64 235
3 225 17 237
3 238 224 234
3 234 63 238
3 224 58 234
3 238 18 224
3 240 239 236
3 236 64 240
3 239 63 236
3 240 6 239
3 243 241 242
3 242 66 243
3 241 60 242
3 243 65 241
3 221 244 242
3 242 60 221
3 244 66 242
3 221 19 244
3 245 226 241
3 241 65 245
3 226 60 241
3 245 17 226
3 247 246 243
3 243 66 247
3 246 65 243
3 247 11 246
3 250 248 249
3 249 69 250
3 248 68 249
3 250 67 248
3 252 251 249
3 249 68 252
3 251 69 249
3 252 18 251
3 254 253 248
3 248 67 254
3 253 68 248
3 254 21 253
3 256 255 250
3 250 69 256
3 255 67 250
3 256 20 255
3 259 257 258
3 258 70 259
3 257 68 258
3 259 62 257
3 253 260 258
3 258 68 253
3 260 70 258
3 253 21 260
3 230 252 257
3 257 62 230
3 252 68 257
3 230 18 252
3 261 233 259
3 259 70 261
3 233 62 259
3 261 5 233
3 264 262 263
3 263 72 264
3 262 67 263
3 264 71 262
3 255 265 263
3 263 67 255
3 265 72 263
3 255 20 265
3 266 254 262
3 262 71 266
3 254 67 262
3 266 21 254
3 268 267 264
3 264 72 268
3 267 71 264
3 268 10 267
3 271 269 270
3 270 63 271
3 269 69 270
3 271 73 269
3 251 238 270
3 270 69 251
3 238 63 270
3 251 18 238
3 272 256 269
3 269 73 272
3 256 69 269
3 272 20 256
3 239 273 271
3 271 63 239
3 273 73 271
3 239 6 273
3 276 274 275
3 275 76 276
3 274 75 275
3 276 74 274
3 278 277 275
3 275 75 278
3 277 76 275
3 278 24 277
3 280 279 274
3 274 74 280
3 279 75 274
3 280 23 279
3 282 281 276
3 276 76 282
3 281 74 276
3 282 22 281
3 285 283 284
3 284 78 285
3 283 75 284
3 285 77 283
3 279 286 284
3 284 75 279
3 286 78 284
3 279 23 286
3 287 278 283
3 283 77 287
3 278 75 283
3 287 24 278
3 289 288 285
3 285 78 289
3 288 77 285
3 289 0 288
3 292 290 291
3 291 80 292
3 290 74 291
3 292 79 290
3 281 293 291
3 291 74 281
3 293 80 291
3 281 22 293
3 294 280 290
3 290 79 294
3 280 74 290
3 294 23 280
3 296 295 292
3 292 80 296
3 295 79 292
3 296 4 295
3 299 297 298
3 298 82 299
3 297 76 298
3 299 81 297
3 277 300 298
3 298 76 277
3 300 82 298
3 277 24 300
3 301 282 297
3 297 81 301
3 282 76 297
3 301 22 282
3 303 302 299
3 299 82 303
3 302 81 299
3 303 3 302
3 306 304 305
3 305 85 306
3 304 84 305
3 306 83 304
3 308 307 305
3 305 84 308
3 307 85 305
3 308 26 307
3 310 309 304
3 304 83 310
3 309 84 304
3 310 24 309
3 312 311 306
3 306 85 312
3 311 83 306
3 312 25 311
3 315 313 314
3 314 77 315
3 313 84 314
3 315 86 313
3 309 287 314
3 314 84 309
3 287 77 314
3 309 24 287
3 316 308 313
3 313 86 316
3 308 84 313
3 316 26 308
3 288 317 315
3 315 77 288
3 317 86 315
3 288 0 317
3 320 318 319
3 319 87 320
3 318 83 319
3 320 82 318
3 311 321 319
3 319 83 311
3 321 87 319
3 311 25 321
3 300 310 318
3 318 82 300
3 310 83 318
3 300 24 310
3 322 303 320
3 320 87 322
3 303 82 320
3 322 3 303
3 325 323 324
3 324 89 325
3 323 85 324
3 325 88 323
3 307 326 324
3 324 85 307
3 326 89 324
3 307 26 326
3 327 312 323
3 323 88 327
3 312 85 323
3 327 25 312
3 329 328 325
3 325 89 329
3 328 88 325
3 329 5 328
3 332 330 331
3 331 92 332
3 330 91 331
3 332 90 330
3 334 333 331
3 331 91 334
3 333 92 331
3 334 29 333
3 336 335 330
3 330 90 336
3 335 91 330
3 336 28 335
3 338 337 332
3 332 92 338
3 337 90 332
3 338 27 337
3 341 339 340
3 340 94 341
3 339 91 340
3 341 93 339
3 335 342 340
3 340 91 335
3 342 94 340
3 335 28 342
3 343 334 339
3 339 93 343
3 334 91 339
3 343 29 334
3 345 344 341
3 341 94 345
3 344 93 341
3 345 2 344
3 348 346 347
3 347 96 348
3 346 90 347
3 348 95 346
3 337 349 347
3 347 90 337
3 349 96 347
3 337 27 349
3 350 336 346
3 346 95 350
3 336 90 346
3 350 28 336
3 352 351 348
3 348 96 352
3 351 95 348
3 352 7 351
3 355 353 354
3 354 98 355
3 353 92 354
3 355 97 353
3 333 356 354
3 354 92 333
3 356 98 354
3 333 29 356
3 357 338 353
3 353 97 357
3 338 92 353
3 357 27 338
3 359 358 355
3 355 98 359
3 358 97 355
3 359 1 358
3 362 360 361
3 361 101 362
3 360 100 361
3 362 99 360
3 364 363 361
3 361 100 364
3 363 101 361
3 364 31 363
3 366 365 360
3 360 99 366
3 365 100 360
3 366 29 365
3 368 367 362
3 362 101 368
3 367 99 362
3 368 30 367
3 371 369 370
3 370 93 371
3 369 100 370
3 371 102 369
3 365 343 370
3 370 100 365
3 343 93 370
3 365 29 343
3 372 364 369
3 369 102 372
3 364 100 369
3 372 31 364
3 344 373 371
3 371 93 344
3 373 102 371
3 344 2 373
3 376 374 375
3 375 103 376
3 374 99 375
3 376 98 374
3 367 377 375
3 375 99 367
3 377 103 375
3 367 30 377
3 356 366 374
3 374 98 356
3 366 99 374
3 356 29 366
3 378 359 376
3 376 103 378
3 359 98 376
3 378 1 359
3 381 379 380
3 380 105 381
3 379 101 380
3 381 104 379
3 363 382 380
3 380 101 363
3 382 105 380
3 363 31 382
3 383 368 379
3 379 104 383
3 368 101 379
3 383 30 368
3 385 384 381
3 381 105 385
3 384 104 381
3 385 6 384
3 388 386 387
3 387 108 388
3 386 107 387
3 388 106 386
3 390 389 387
3 387 107 390
3 389 108 387
3 390 34 389
3 392 391 386
3 386 106 392
3 391 107 386
3 392 33 391
3 394 393 388
3 388 108 394
3 393 106 388
3 394 32 393
3 397 395 396
3 396 110 397
3 395 107 396
3 397 109 395
3 391 398 396
3 396 107 391
3 398 110 396
3 391 33 398
3 399 390 395
3 395 109 399
3 390 107 395
3 399 34 390
3 401 400 397
3 397 110 401
3 400 109 397
3 401 8 400
3 404 402 403
3 403 112 404
3 402 106 403
3 404 111 402
3 393 405 403
3 403 106 393
3 405 112 403
3 393 32 405
3 406 392 402
3 402 111 406
3 392 106 402
3 406 33 392
3 408 407 404
3 404 112 408
3 407 111 404
3 408 0 407
3 411 409 410
3 410 114 411
3 409 108 410
3 411 113 409
3 389 412 410
3 410 108 389
3 412 114 410
3 389 34 412
3 413 394 409
3 409 113 413
3 394 108 409
3 413 32 394
3 415 414 411
3 411 114 415
3 414 113 411
3 415 11 414
3 418 416 417
3 417 117 418
3 416 116 417
3 418 115 416
3 420 419 417
3 417 116 420
3 419 117 417
3 420 36 419
3 422 421 416
3 416 115 422
3 421 116 416
3 422 34 421
3 424 423 418
3 418 117 424
3 423 115 418
3 424 35 423
3 427 425 426
3 426 109 427
3 425 116 426
3 427 118 425
3 421 399 426
3 426 116 421
3 399 109 426
3 421 34 399
3 428 420 425
3 425 118 428
3 420 116 425
3 428 36 420
3 400 429 427
3 427 109 400
3 429 118 427
3 400 8 429
3 432 430 431
3 431 119 432
3 430 115 431
3 432 114 430
3 423 433 431
3 431 115 423
3 433 119 431
3 423 35 433
3 412 422 430
3 430 114 412
3 422 115 430
3 412 34 422
3 434 415 432
3 432 119 434
3 415 114 432
3 434 11 415
3 437 435 436
3 436 121 437
3 435 117 436
3 437 120 435
3 419 438 436
3 436 117 419
3 438 121 436
3 419 36 438
3 439 424 435
3 435 120 439
3 424 117 435
3 439 35 424
3 441 440 437
3 437 121 441
3 440 120 437
3 441 1 440
3 444 442 443
3 443 124 444
3 442 123 443
3 444 122 442
3 446 445 443
3 443 123 446
3 445 124 443
3 446 39 445
3 448 447 442
3 442 122 448
3 447 123 442
3 448 38 447
3 450 449 444
3 444 124 450
3 449 122 444
3 450 37 449
3 453 451 452
3 452 126 453
3 451 123 452
3 453 125 451
3 447 454 452
3 452 123 447
3 454 126 452
3 447 38 454
3 455 446 451
3 451 125 455
3 446 123 451
3 455 39 446
3 457 456 453
3 453 126 457
3 456 125 453
3 457 9 456
3 460 458 459
3 459 128 460
3 458 122 459
3 460 127 458
3 449 461 459
3 459 122 449
3 461 128 459
3 449 37 461
3 462 448 458
3 458 127 462
3 448 122 458
3 462 38 448
3 464 463 460
3 460 128 464
3 463 127 460
3 464 10 463
3 467 465 466
3 466 130 467
3 465 124 466
3 467 129 465
3 445 468 466
3 466 124 445
3 468 130 466
3 445 39 468
3 469 450 465
3 465 129 469
3 450 124 465
3 469 37 450
3 471 470 467
3 467 130 471
3 470 129 467
3 471 3 470
3 474 472 473
3 473 133 474
3 472 132 473
3 474 131 472
3 476 475 473
3 473 132 476
3 475 133 473
3 476 38 475
3 478 477 472
3 472 131 478
3 477 132 472
3 478 41 477
3 480 479 474
3 474 133 480
3 479 131 474
3 480 40 479
3 483 481 482
3 482 134 483
3 481 132 482
3 483 126 481
3 477 484 482
3 482 132 477
3 484 134 482
3 477 41 484
3 454 476 481
3 481 126 454
3 476 132 481
3 454 38 476
3 485 457 483
3 483 134 485
3 457 126 483
3 485 9 457
3 488 486 487
3 487 136 488
3 486 131 487
3 488 135 486
3 479 489 487
3 487 131 479
3 489 136 487
3 479 40 489
3 490 478 486
3 486 135 490
3 478 131 486
3 490 41 478
3 492 491 488
3 488 136 492
3 491 135 488
3 492 2 491
3 495 493 494
3 494 127 495
3 493 133 494
3 495 137 493
3 475 462 494
3 494 133 475
3 462 127 494
3 475 38 462
3 496 480 493
3 493 137 496
3 480 133 493
3 496 40 480
3 463 497 495
3 495 127 463
3 497 137 495
3 463 10 497
3 500 498 499
3 499 140 500
3 498 139 499
3 500 138 498
3 502 501 499
3 499 139 502
3 501 140 499
3 502 33 501
3 504 503 498
3 498 138 504
3 503 139 498
3 504 13 503
3 506 505 500
3 500 140 506
3 505 138 500
3 506 23 505
3 509 507 508
3 508 47 509
3 507 139 508
3 509 110 507
3 503 182 508
3 508 139 503
3 182 47 508
3 503 13 182
3 398 502 507
3 507 110 398
3 502 139 507
3 398 33 502
3 183 401 509
3 509 47 183
3 401 110 509
3 183 8 401
3 512 510 511
3 511 79 512
3 510 138 511
3 512 46 510
3 505 294 511
3 511 138 505
3 294 79 511
3 505 23 294
3 174 504 510
3 510 46 174
3 504 138 510
3 174 13 504
3 295 177 512
3 512 79 295
3 177 46 512
3 295 4 177
3 515 513 514
3 514 111 515
3 513 140 514
3 515 78 513
3 501 406 514
3 514 140 501
3 406 111 514
3 501 33 406
3 286 506 513
3 513 78 286
3 506 140 513
3 286 23 506
3 407 289 515
3 515 111 407
3 289 78 515
3 407 0 289
3 518 516 517
3 517 143 518
3 516 142 517
3 518 141 516
3 520 519 517
3 517 142 520
3 519 143 517
3 520 19 519
3 522 521 516
3 516 141 522
3 521 142 516
3 522 32 521
3 524 523 518
3 518 143 524
3 523 141 518
3 524 26 523
3 527 525 526
3 526 113 527
3 525 142 526
3 527 66 525
3 521 413 526
3 526 142 521
3 413 113 526
3 521 32 413
3 244 520 525
3 525 66 244
3 520 142 525
3 244 19 520
3 414 247 527
3 527 113 414
3 247 66 527
3 414 11 247
3 530 528 529
3 529 86 530
3 528 141 529
3 530 112 528
3 523 316 529
3 529 141 523
3 316 86 529
3 523 26 316
3 405 522 528
3 528 112 405
3 522 141 528
3 405 32 522
3 317 408 530
3 530 86 317
3 408 112 530
3 317 0 408
3 533 531 532
3 532 61 533
3 531 143 532
3 533 89 531
3 519 231 532
3 532 143 519
3 231 61 532
3 519 19 231
3 326 524 531
3 531 89 326
3 524 143 531
3 326 26 524
3 232 329 533
3 533 61 232
3 329 89 533
3 232 5 329
3 536 534 535
3 535 146 536
3 534 145 535
3 536 144 534
3 538 537 535
3 535 145 538
3 537 146 535
3 538 22 537
3 540 539 534
3 534 144 540
3 539 145 534
3 540 16 539
3 542 541 536
3 536 146 542
3 541 144 536
3 542 39 541
3 545 543 544
3 544 54 545
3 543 145 544
3 545 80 543
3 539 204 544
3 544 145 539
3 204 54 544
3 539 16 204
3 293 538 543
3 543 80 293
3 538 145 543
3 293 22 538
3 205 296 545
3 545 54 205
3 296 80 545
3 205 4 296
3 548 546 547
3 547 125 548
3 546 144 547
3 548 57 546
3 541 455 547
3 547 144 541
3 455 125 547
3 541 39 455
3 214 540 546
3 546 57 214
3 540 144 546
3 214 16 540
3 456 217 548
3 548 125 456
3 217 57 548
3 456 9 217
3 551 549 550
3 550 81 551
3 549 146 550
3 551 130 549
3 537 301 550
3 550 146 537
3 301 81 550
3 537 22 301
3 468 542 549
3 549 130 468
3 542 146 549
3 468 39 542
3 302 471 551
3 551 81 302
3 471 130 551
3 302 3 471
3 554 552 553
3 553 149 554
3 552 148 553
3 554 147 552
3 556 555 553
3 553 148 556
3 555 149 553
3 556 21 555
3 558 557 552
3 552 147 558
3 557 148 552
3 558 25 557
3 560 559 554
3 554 149 560
3 559 147 554
3 560 37 559
3 563 561 562
3 562 88 563
3 561 148 562
3 563 70 561
3 557 327 562
3 562 148 557
3 327 88 562
3 557 25 327
3 260 556 561
3 561 70 260
3 556 148 561
3 260 21 556
3 328 261 563
3 563 88 328
3 261 70 563
3 328 5 261
3 566 564 565
3 565 129 566
3 564 147 565
3 566 87 564
3 559 469 565
3 565 147 559
3 469 129 565
3 559 37 469
3 321 558 564
3 564 87 321
3 558 147 564
3 321 25 558
3 470 322 566
3 566 129 470
3 322 87 566
3 470 3 322
3 569 567 568
3 568 71 569
3 567 149 568
3 569 128 567
3 555 266 568
3 568 149 555
3 266 71 568
3 555 21 266
3 461 560 567
3 567 128 461
3 560 149 567
3 461 37 560
3 267 464 569
3 569 71 267
3 464 128 569
3 267 10 464
3 572 570 571
3 571 152 572
3 570 151 571
3 572 150 570
3 574 573 571
3 571 151 574
3 573 152 571
3 574 27 573
3 576 575 570
3 570 150 576
3 575 151 570
3 576 12 575
3 578 577 572
3 572 152 578
3 577 150 572
3 578 36 577
3 581 579 580
3 580 49 581
3 579 151 580
3 581 96 579
3 575 189 580
3 580 151 575
3 189 49 580
3 575 12 189
3 349 574 579
3 579 96 349
3 574 151 579
3 349 27 574
3 190 352 581
3 581 49 190
3 352 96 581
3 190 7 352
3 584 582 583
3 583 118 584
3 582 150 583
3 584 48 582
3 577 428 583
3 583 150 577
3 428 118 583
3 577 36 428
3 181 576 582
3 582 48 181
3 576 150 582
3 181 12 576
3 429 184 584
3 584 118 429
3 184 48 584
3 429 8 184
3 587 585 586
3 586 97 587
3 585 152 586
3 587 121 585
3 573 357 586
3 586 152 573
3 357 97 586
3 573 27 357
3 438 578 585
3 585 121 438
3 578 152 585
3 438 36 578
3 358 441 587
3 587 97 358
3 441 121 587
3 358 1 441
3 590 588 589
3 589 155 590
3 588 154 589
3 590 153 588
3 592 591 589
3 589 154 592
3 591 155 589
3 592 17 591
3 594 593 588
3 588 153 594
3 593 154 588
3 594 30 593
3 596 595 590
3 590 155 596
3 595 153 590
3 596 35 595
3 599 597 598
3 598 104 599
3 597 154 598
3 599 64 597
3 593 383 598
3 598 154 593
3 383 104 598
3 593 30 383
3 237 592 597
3 597 64 237
3 592 154 597
3 237 17 592
3 384 240 599
3 599 104 384
3 240 64 599
3 384 6 240
3 602 600 601
3 601 120 602
3 600 153 601
3 602 103 600
3 595 439 601
3 601 153 595
3 439 120 601
3 595 35 439
3 377 594 600
3 600 103 377
3 594 153 600
3 377 30 594
3 440 378 602
3 602 120 440
3 378 103 602
3 440 1 378
3 605 603 604
3 604 65 605
3 603 155 604
3 605 119 603
3 591 245 604
3 604 155 591
3 245 65 604
3 591 17 245
3 433 596 603
3 603 119 433
3 596 155 603
3 433 35 596
3 246 434 605
3 605 65 246
3 434 119 605
3 246 11 434
3 608 606 607
3 607 158 608
3 606 157 607
3 608 156 606
3 610 609 607
3 607 157 610
3 609 158 607
3 610 15 609
3 612 611 606
3 606 156 612
3 611 157 606
3 612 28 611
3 614 613 608
3 608 158 614
3 613 156 608
3 614 41 613
3 617 615 616
3 616 95 617
3 615 157 616
3 617 55 615
3 611 350 616
3 616 157 611
3 350 95 616
3 611 28 350
3 209 610 615
3 615 55 209
3 610 157 615
3 209 15 610
3 351 210 617
3 617 95 351
3 210 55 617
3 351 7 210
3 620 618 619
3 619 135 620
3 618 156 619
3 620 94 618
3 613 490 619
3 619 156 613
3 490 135 619
3 613 41 490
3 342 612 618
3 618 94 342
3 612 156 618
3 342 28 612
3 491 345 620
3 620 135 491
3 345 94 620
3 491 2 345
3 623 621 622
3 622 56 623
3 621 158 622
3 623 134 621
3 609 215 622
3 622 158 609
3 215 56 622
3 609 15 215
3 484 614 621
3 621 134 484
3 614 158 621
3 484 41 614
3 216 485 623
3 623 56 216
3 485 134 623
3 216 9 485
3 626 624 625
3 625 161 626
3 624 160 625
3 626 159 624
3 628 627 625
3 625 160 628
3 627 161 625
3 628 31 627
3 630 629 624
3 624 159 630
3 629 160 624
3 630 20 629
3 632 631 626
3 626 161 632
3 631 159 626
3 632 40 631
3 635 633 634
3 634 73 635
3 633 160 634
3 635 105 633
3 629 272 634
3 634 160 629
3 272 73 634
3 629 20 272
3 382 628 633
3 633 105 382
3 628 160 633
3 382 31 628
3 273 385 635
3 635 73 273
3 385 105 635
3 273 6 385
3 638 636 637
3 637 137 638
3 636 159 637
3 638 72 636
3 631 496 637
3 637 159 631
3 496 137 637
3 631 40 496
3 265 630 636
3 636 72 265
3 630 159 636
3 265 20 630
3 497 268 638
3 638 137 497
3 268 72 638
3 497 10 268
3 641 639 640
3 640 102 641
3 639 161 640
3 641 136 639
3 627 372 640
3 640 161 627
3 372 102 640
3 627 31 372
3 489 632 639
3 639 136 489
3 632 161 639
3 489 40 632
3 373 492 641
3 641 102 373
3 492 136 641
3 373 2 492
