# vtk DataFile Version 3.0
this file was written using fslvtkio
ASCII
DATASET POLYDATA
POINTS 642 float
138.67 122.893 119.008
141.236 125.316 117.329
141.522 125.709 118.998
139.232 123.449 120.564
140.002 123.258 119.992
138.884 124.855 119.545
140.308 125.447 118.538
141.169 124.114 119.163
140.023 123.105 117.526
140.592 123.918 120.996
140.108 124.898 119.91
139.581 124.543 118.037
140.759 123.874 118.352
139.924 123.188 118.807
140.491 123.188 120.112
141.074 123.964 120.276
140.127 122.759 121.657
139.949 125.251 118.074
139.535 125.57 119.043
139.105 124.808 118.712
140.158 125.209 119.248
139.526 124.829 119.662
139.55 123.174 120.37
139.305 123.222 119.038
138.749 123.145 119.842
138.794 123.989 120.205
138.798 124.065 119.132
141.379 124.85 118.026
141.668 125.147 118.911
141.58 125.905 117.941
140.818 125.51 117.787
140.994 125.613 118.691
139.162 123.825 118.504
139.189 122.495 118.492
139.832 123.773 117.545
140.394 124.859 117.424
140.701 124.233 117.366
139.593 124.207 120.463
140.396 124.328 120.414
139.88 123.544 121.201
140.77 125.194 119.54
141.27 124.921 119.902
140.292 123.483 118.638
140.249 123.44 119.41
140.596 123.727 119.198
140.145 123.046 120.19
139.93 123.206 119.435
139.946 122.925 118.207
140.356 123.429 117.898
140.934 124.042 118.8
140.857 123.644 119.694
140.749 123.442 120.377
140.302 122.74 120.94
140.654 123.301 121.017
139.961 122.791 120.846
141.24 124.067 119.731
140.849 123.893 120.841
140.414 123.425 121.455
139.701 125.394 118.491
139.27 125.495 118.742
139.431 124.996 118.607
139.031 124.949 119.096
139.185 125.389 119.285
139.884 125.352 118.808
140.176 125.451 118.311
139.745 124.832 118.251
139.346 124.671 118.301
139.773 125.053 119.462
139.527 125.329 119.374
139.852 125.441 119.117
139.295 124.984 119.565
139.75 124.76 119.804
140.122 125.057 119.544
140.325 125.523 118.964
139.423 123.19 119.721
138.96 123.017 119.461
139.097 123.143 120.067
138.566 122.905 119.407
138.693 122.44 119.296
139.657 123.309 119.494
139.817 123.144 120.304
139.277 123.214 120.684
138.8 123.082 120.513
138.731 123.514 120.154
138.589 123.459 119.578
138.627 124.017 119.716
138.846 123.598 119.086
138.893 123.646 120.627
138.801 124.462 119.861
138.758 124.46 119.298
141.645 125.099 118.424
142.007 125.886 118.244
141.663 125.497 117.858
141.738 126.029 118.477
141.786 125.686 118.883
141.538 124.569 119.083
141.37 124.507 118.576
141.242 125.054 117.719
141.409 125.626 117.689
141.253 125.745 117.924
141.314 125.768 118.282
140.973 125.594 118.279
141.288 125.64 118.753
141.044 125.524 117.491
140.613 125.563 118.159
140.729 125.658 118.604
139.167 123.152 118.426
139.516 123.075 117.954
139.463 123.761 118.216
139.965 123.374 117.406
139.577 122.551 117.885
138.834 122.51 118.795
138.961 123.419 118.749
139.345 124.209 118.252
139.694 124.209 117.937
140.115 124.375 117.432
140.255 123.997 117.263
140.614 124.593 117.086
140.376 123.648 117.448
139.949 124.64 117.896
140.844 125.131 117.309
141.024 124.865 117.183
139.968 124.337 120.608
140.19 123.993 120.832
139.729 123.918 120.951
140.285 123.753 121.184
140.532 124.142 120.769
140.238 124.667 120.056
139.876 124.589 120.122
139.325 123.788 120.685
139.467 123.423 121.088
141.042 125.018 119.724
140.825 124.626 120.274
140.605 124.755 119.959
140.904 124.396 120.511
141.428 125.376 119.37
141.142 125.428 119.29
140.441 125.028 119.697
139.686 123.331 118.92
139.527 122.532 118.529
139.041 122.388 118.997
138.906 123.926 118.778
139.05 124.284 118.477
138.923 124.431 118.85
140.051 123.17 121.484
139.681 122.672 121.23
139.696 123.09 120.987
139.163 124.114 120.375
139.235 124.479 119.831
139.505 124.528 120.015
140.831 124.01 117.67
141.086 124.304 118.133
141.124 124.621 117.589
140.671 125.32 117.497
140.413 125.417 117.838
140.228 125.102 117.744
141.533 125.044 119.394
141.519 124.578 119.598
141.298 124.555 120.095
140.481 125.17 119.329
140.6 125.457 118.979
140.878 125.346 119.114
140.278 123.484 118.97
140.414 123.6 119.282
140.463 123.697 118.877
140.558 123.501 119.607
140.376 123.349 119.727
140.09 123.34 119.047
140.104 123.363 118.704
140.555 123.709 118.512
140.644 123.841 118.8
140.245 123.271 119.828
140.077 123.255 119.424
140.102 123.285 119.785
139.951 123.265 119.082
140.313 123.064 120.19
140.087 123.216 120.07
139.983 123.273 119.738
140.123 123.253 118.405
140.366 123.498 118.277
140.172 123.227 118.085
140.541 123.621 118.102
139.913 123.025 118.467
139.978 122.923 117.844
140.192 123.292 117.762
140.758 123.857 119.014
140.704 123.731 119.423
140.806 123.906 119.211
140.687 123.394 119.931
140.816 123.936 118.649
141.035 124.079 118.982
140.991 123.837 119.409
140.542 123.082 120.656
140.514 122.996 121.044
140.719 123.331 120.746
140.409 122.962 121.396
140.197 122.669 121.357
140.379 122.931 120.573
140.568 123.205 120.305
140.904 123.686 120.331
140.852 123.622 120.668
140.069 122.623 120.987
140.19 122.793 120.579
140.042 122.949 120.47
140.003 122.628 121.304
140.019 123.155 120.372
140.823 123.519 119.998
140.997 123.754 120.049
141.075 123.788 119.719
141.146 124.029 120.027
141.151 124.065 119.455
140.741 123.577 121.038
140.553 123.313 121.384
140.606 123.639 121.209
140.346 123.111 121.64
141.027 123.948 120.593
140.738 123.938 121.014
140.51 123.71 121.239
139.491 125.464 118.573
139.378 125.228 118.618
139.604 125.318 118.388
139.233 124.865 118.738
139.212 125.1 118.851
139.352 125.528 118.869
139.572 125.465 118.764
139.787 125.252 118.287
139.673 125.1 118.346
139.113 125.24 118.983
139.166 125.476 118.992
138.997 125.232 119.13
139.336 125.496 119.154
139.116 124.927 118.885
138.889 124.892 119.262
139.015 125.121 119.414
139.803 125.33 118.75
139.905 125.411 118.399
140.032 125.376 118.582
140.087 125.459 118.05
139.707 125.47 118.933
140.109 125.375 118.68
140.25 125.433 118.483
139.569 124.892 118.408
139.372 124.811 118.495
139.515 124.759 118.35
139.188 124.681 118.503
139.844 125.058 118.163
139.653 124.693 118.163
139.498 124.645 118.103
139.664 125.238 119.382
139.711 125.426 119.233
139.81 125.308 119.327
139.743 125.569 119.052
139.582 125.546 119.205
139.555 125.057 119.436
139.627 124.994 119.56
139.932 125.151 119.396
140.045 125.326 119.249
139.39 125.472 119.366
139.438 125.127 119.403
139.244 125.239 119.438
139.417 124.858 119.581
139.106 124.948 119.625
139.736 124.924 119.595
139.927 125.029 119.514
139.866 124.88 119.69
140.101 125.127 119.391
139.601 124.76 119.71
139.924 124.858 119.869
140.079 124.959 119.741
140.078 125.432 119.08
139.867 125.426 118.899
140.083 125.356 118.835
140.27 125.439 119.15
140.31 125.494 118.713
139.284 123.294 119.357
139.138 123.249 119.652
139.236 123.1 119.948
138.948 123.165 119.929
138.849 123.062 119.646
139.152 123.107 119.24
139.457 123.415 119.189
139.448 123.129 120.119
139.313 123.197 120.178
138.666 122.804 119.549
138.81 122.719 119.446
138.586 122.621 119.423
138.974 122.692 119.294
138.613 122.982 119.676
138.614 122.885 119.209
138.593 122.573 119.172
139.575 123.295 119.632
139.583 123.122 120.096
139.752 123.237 119.935
139.655 123.106 120.422
139.6 123.539 119.062
139.832 123.259 119.794
139.936 123.211 120.169
139.206 123.179 120.364
139.004 123.146 120.257
139.077 123.145 120.522
138.794 123.132 120.233
139.445 123.239 120.448
139.248 123.313 120.657
138.976 123.208 120.618
138.652 123.558 119.86
138.542 123.695 119.74
138.713 123.808 119.903
138.661 124.005 119.421
138.671 123.736 119.367
138.639 123.281 119.741
138.757 123.345 119.97
138.777 123.743 120.156
138.698 123.991 119.991
138.745 123.56 119.197
138.604 123.2 119.519
138.762 123.359 119.117
138.838 123.857 119.125
138.804 123.299 119.023
138.763 123.294 120.351
138.818 123.562 120.383
138.741 123.237 120.709
138.881 123.823 120.33
138.968 123.417 120.664
138.655 124.222 119.865
138.631 124.23 119.547
138.675 124.464 119.611
138.739 124.247 119.189
138.816 124.232 120.054
138.851 124.699 119.68
138.742 124.658 119.447
141.767 125.428 118.348
141.836 125.703 117.982
141.647 125.293 118.122
141.667 125.778 117.847
141.841 125.979 118.004
141.862 125.541 118.534
141.701 125.178 118.665
141.593 125.001 118.203
141.538 125.149 117.944
141.876 125.984 118.368
142.036 125.888 118.584
141.829 125.895 118.72
141.783 125.497 118.762
141.745 126.052 118.139
141.641 125.865 118.775
141.673 125.715 118.998
141.638 124.867 118.728
141.514 124.779 118.519
141.492 124.538 118.795
141.453 124.697 118.238
141.577 124.847 118.988
141.333 124.303 119.132
141.245 124.289 118.83
141.462 125.253 117.753
141.584 125.625 117.661
141.36 125.388 117.599
141.577 125.819 117.718
141.325 124.953 117.824
141.257 125.209 117.509
141.313 125.462 117.513
141.311 125.797 118.112
141.145 125.803 118.267
141.099 125.655 118.112
141.03 125.681 118.446
141.198 125.801 118.534
141.483 125.801 118.115
141.439 125.798 117.895
141.109 125.72 117.839
140.887 125.446 118.102
141.385 125.803 118.527
141.563 125.88 118.307
141.478 125.822 118.638
141.155 125.594 118.718
141.372 125.664 118.883
141.394 125.738 117.743
141.162 125.608 117.749
141.299 125.62 117.528
140.945 125.559 117.593
141.137 125.436 117.409
140.732 125.47 118.205
140.849 125.627 118.422
140.66 125.595 118.389
140.872 125.62 118.641
140.69 125.515 117.925
140.49 125.559 118.378
140.529 125.587 118.57
139.339 123.096 118.241
139.5 123.454 118.098
139.345 123.468 118.321
139.616 123.703 117.885
139.694 123.432 117.756
139.346 122.735 118.179
139.137 122.711 118.365
139.194 123.51 118.481
139.298 123.747 118.373
139.711 123.173 117.678
139.508 122.75 117.939
139.755 122.932 117.562
139.393 122.489 118.241
139.926 123.57 117.462
140.051 123.262 117.366
139.819 122.779 117.557
138.982 122.775 118.522
139.035 123.256 118.623
138.886 122.921 118.757
139.078 123.632 118.617
138.998 122.477 118.658
138.731 122.682 118.937
138.816 123.185 118.882
139.387 123.968 118.298
139.588 123.987 118.059
139.522 124.175 118.117
139.76 124.01 117.746
139.232 124.014 118.404
139.478 124.4 118.109
139.647 124.393 118.016
140.207 124.156 117.25
140.443 124.307 117.202
140.339 124.446 117.201
140.699 124.474 117.223
140.487 124.139 117.315
140.085 123.878 117.308
139.985 124.096 117.473
140.256 124.608 117.397
140.508 124.736 117.219
140.401 123.886 117.285
140.141 123.746 117.318
140.199 123.542 117.329
140.551 123.918 117.385
140.216 123.399 117.459
139.88 124.281 117.709
140.024 124.541 117.605
139.808 124.451 117.927
140.189 124.76 117.605
139.746 124.594 118.059
140.761 124.914 117.037
140.866 124.773 116.975
140.971 125.059 117.075
140.916 124.595 117.195
140.636 124.997 117.3
141.06 125.269 117.302
141.099 125.078 117.334
140.091 124.111 120.72
139.982 123.939 120.93
139.848 124.126 120.746
139.809 123.738 121.056
140.043 123.819 121.065
140.272 124.137 120.627
140.194 124.34 120.503
139.763 124.229 120.522
139.641 124.021 120.679
140.242 123.916 121.013
140.356 124.073 120.824
140.421 123.958 120.941
140.45 124.212 120.644
140.112 123.601 121.213
140.435 123.801 121.11
140.598 124.049 120.812
140.085 124.479 120.354
139.884 124.416 120.322
140.032 124.601 120.1
139.719 124.397 120.298
140.302 124.521 120.235
140.175 124.78 119.918
140.001 124.769 119.998
139.502 123.783 120.809
139.578 123.665 121.061
139.386 123.596 120.85
139.667 123.457 121.098
139.454 124.013 120.611
139.216 123.559 120.629
139.319 123.451 120.824
140.966 124.805 119.99
140.7 124.63 120.145
140.801 124.751 119.869
140.5 124.507 120.21
140.561 124.399 120.407
141.035 124.815 120.093
141.119 125.056 119.859
140.874 125.04 119.67
140.702 124.99 119.77
140.661 124.353 120.56
140.844 124.51 120.399
140.693 124.292 120.645
141.112 124.658 120.212
140.743 124.154 120.786
141.183 125.222 119.64
141.049 125.214 119.531
141.281 125.401 119.381
140.923 125.265 119.424
141.336 125.171 119.613
141.506 125.559 119.175
141.381 125.594 119.202
140.53 124.954 119.833
140.43 124.742 120.037
140.337 124.877 119.908
140.616 125.141 119.622
140.266 124.986 119.773
139.571 122.847 118.828
139.284 122.466 118.776
139.367 122.806 118.943
139.07 122.399 118.744
139.303 122.438 118.457
139.771 122.909 118.645
139.815 123.25 118.866
139.508 123.338 118.934
139.178 122.745 119.092
139.516 122.46 118.173
139.762 122.741 118.354
139.776 122.662 117.939
139.843 123.344 119.105
139.71 123.407 119.098
139.831 123.3 119.467
138.864 122.394 119.204
138.903 122.389 118.935
138.712 122.45 119.068
138.939 124.13 118.637
138.937 124.339 118.687
138.924 124.194 118.813
139.001 124.644 118.737
139.024 124.505 118.527
139.08 124.059 118.506
139.029 123.918 118.617
138.871 124.016 118.948
138.878 124.236 118.977
139.187 124.471 118.396
139.2 124.238 118.381
139.338 124.459 118.19
138.975 123.737 118.721
138.837 123.777 118.963
138.873 123.532 118.891
138.788 124.441 119.039
138.913 124.687 118.96
138.771 124.654 119.223
139.795 122.848 121.526
139.625 122.878 121.124
139.798 123.067 121.307
139.583 123.084 120.705
139.654 122.993 120.756
139.86 122.66 121.528
140.077 122.997 121.702
139.984 123.377 121.38
139.774 123.295 121.155
139.794 123 120.728
139.869 122.741 121.087
139.917 123.093 120.537
140.272 123.269 121.534
140.158 123.423 121.333
140.362 123.569 121.312
139.562 123.224 121.055
139.484 123.146 120.823
139.311 123.228 120.904
139.159 124.289 120.055
139.355 124.51 119.953
139.34 124.348 120.196
139.477 124.647 119.814
139.383 124.671 119.751
139.024 124.278 119.986
138.996 124.066 120.183
139.399 124.239 120.497
139.528 124.409 120.302
139.266 124.724 119.677
139.114 124.526 119.833
139.046 124.735 119.769
139.048 123.952 120.474
139.272 124.058 120.654
139.115 123.742 120.697
139.699 124.596 120.128
139.644 124.679 119.883
139.841 124.727 119.952
140.968 124.16 117.887
141.082 124.444 117.869
140.998 124.283 117.652
141.144 124.69 117.905
141.24 124.585 118.063
140.958 124.072 118.224
140.758 123.89 117.975
140.817 124.127 117.405
140.926 124.437 117.451
141.229 124.434 118.342
141.033 124.199 118.506
141.145 124.26 118.656
140.63 123.709 117.823
140.653 123.848 117.536
140.423 123.578 117.701
141.092 124.75 117.363
141.214 124.873 117.664
141.18 124.988 117.411
140.561 125.438 117.564
140.318 125.295 117.715
140.433 125.204 117.57
140.113 125.2 117.913
140.207 125.422 117.81
140.632 125.516 117.754
140.769 125.497 117.596
140.54 125.107 117.446
140.296 124.964 117.601
140.335 125.57 117.975
140.52 125.533 117.999
140.386 125.55 118.274
140.862 125.446 117.453
140.728 125.178 117.372
140.956 125.351 117.392
140.103 124.876 117.817
139.989 124.997 117.977
139.857 124.738 118.094
141.587 124.905 119.446
141.406 124.616 119.863
141.456 124.917 119.703
141.251 124.305 120.23
141.224 124.222 120.053
141.62 124.869 119.207
141.606 125.095 119.103
141.411 124.998 119.669
141.318 124.809 119.97
141.331 124.308 119.686
141.42 124.56 119.341
141.296 124.317 119.418
141.594 125.271 119.062
141.509 125.177 119.409
141.6 125.479 119.167
141.116 124.455 120.281
141.124 124.305 120.465
140.902 124.236 120.669
140.539 125.287 119.115
140.734 125.382 119.012
140.684 125.285 119.202
140.951 125.479 118.877
140.806 125.509 118.858
140.381 125.361 119.085
140.314 125.191 119.258
140.652 125.206 119.377
140.796 125.253 119.299
140.681 125.611 118.795
140.473 125.527 118.949
140.528 125.594 118.786
140.278 125.099 119.368
140.459 125.095 119.498
140.289 125.067 119.618
140.972 125.411 119.197
141.064 125.462 118.952
141.177 125.502 118.983
POLYGONS 1280  5120
3 164 162 163
3 163 44 164
3 162 43 163
3 164 42 162
3 166 165 163
3 163 43 166
3 165 44 163
3 166 14 165
3 168 167 162
3 162 42 168
3 167 43 162
3 168 13 167
3 170 169 164
3 164 44 170
3 169 42 164
3 170 12 169
3 173 171 172
3 172 46 173
3 171 43 172
3 173 45 171
3 167 174 172
3 172 43 167
3 174 46 172
3 167 13 174
3 175 166 171
3 171 45 175
3 166 43 171
3 175 14 166
3 177 176 173
3 173 46 177
3 176 45 173
3 177 4 176
3 180 178 179
3 179 48 180
3 178 42 179
3 180 47 178
3 169 181 179
3 179 42 169
3 181 48 179
3 169 12 181
3 182 168 178
3 178 47 182
3 168 42 178
3 182 13 168
3 184 183 180
3 180 48 184
3 183 47 180
3 184 8 183
3 187 185 186
3 186 50 187
3 185 44 186
3 187 49 185
3 165 188 186
3 186 44 165
3 188 50 186
3 165 14 188
3 189 170 185
3 185 49 189
3 170 44 185
3 189 12 170
3 191 190 187
3 187 50 191
3 190 49 187
3 191 7 190
3 194 192 193
3 193 53 194
3 192 52 193
3 194 51 192
3 196 195 193
3 193 52 196
3 195 53 193
3 196 16 195
3 198 197 192
3 192 51 198
3 197 52 192
3 198 14 197
3 200 199 194
3 194 53 200
3 199 51 194
3 200 15 199
3 203 201 202
3 202 45 203
3 201 52 202
3 203 54 201
3 197 175 202
3 202 52 197
3 175 45 202
3 197 14 175
3 204 196 201
3 201 54 204
3 196 52 201
3 204 16 196
3 176 205 203
3 203 45 176
3 205 54 203
3 176 4 205
3 208 206 207
3 207 55 208
3 206 51 207
3 208 50 206
3 199 209 207
3 207 51 199
3 209 55 207
3 199 15 209
3 188 198 206
3 206 50 188
3 198 51 206
3 188 14 198
3 210 191 208
3 208 55 210
3 191 50 208
3 210 7 191
3 213 211 212
3 212 57 213
3 211 53 212
3 213 56 211
3 195 214 212
3 212 53 195
3 214 57 212
3 195 16 214
3 215 200 211
3 211 56 215
3 200 53 211
3 215 15 200
3 217 216 213
3 213 57 217
3 216 56 213
3 217 9 216
3 220 218 219
3 219 60 220
3 218 59 219
3 220 58 218
3 222 221 219
3 219 59 222
3 221 60 219
3 222 19 221
3 224 223 218
3 218 58 224
3 223 59 218
3 224 18 223
3 226 225 220
3 220 60 226
3 225 58 220
3 226 17 225
3 229 227 228
3 228 62 229
3 227 59 228
3 229 61 227
3 223 230 228
3 228 59 223
3 230 62 228
3 223 18 230
3 231 222 227
3 227 61 231
3 222 59 227
3 231 19 222
3 233 232 229
3 229 62 233
3 232 61 229
3 233 5 232
3 236 234 235
3 235 64 236
3 234 58 235
3 236 63 234
3 225 237 235
3 235 58 225
3 237 64 235
3 225 17 237
3 238 224 234
3 234 63 238
3 224 58 234
3 238 18 224
3 240 239 236
3 236 64 240
3 239 63 236
3 240 6 239
3 243 241 242
3 242 66 243
3 241 60 242
3 243 65 241
3 221 244 242
3 242 60 221
3 244 66 242
3 221 19 244
3 245 226 241
3 241 65 245
3 226 60 241
3 245 17 226
3 247 246 243
3 243 66 247
3 246 65 243
3 247 11 246
3 250 248 249
3 249 69 250
3 248 68 249
3 250 67 248
3 252 251 249
3 249 68 252
3 251 69 249
3 252 18 251
3 254 253 248
3 248 67 254
3 253 68 248
3 254 21 253
3 256 255 250
3 250 69 256
3 255 67 250
3 256 20 255
3 259 257 258
3 258 70 259
3 257 68 258
3 259 62 257
3 253 260 258
3 258 68 253
3 260 70 258
3 253 21 260
3 230 252 257
3 257 62 230
3 252 68 257
3 230 18 252
3 261 233 259
3 259 70 261
3 233 62 259
3 261 5 233
3 264 262 263
3 263 72 264
3 262 67 263
3 264 71 262
3 255 265 263
3 263 67 255
3 265 72 263
3 255 20 265
3 266 254 262
3 262 71 266
3 254 67 262
3 266 21 254
3 268 267 264
3 264 72 268
3 267 71 264
3 268 10 267
3 271 269 270
3 270 63 271
3 269 69 270
3 271 73 269
3 251 238 270
3 270 69 251
3 238 63 270
3 251 18 238
3 272 256 269
3 269 73 272
3 256 69 269
3 272 20 256
3 239 273 271
3 271 63 239
3 273 73 271
3 239 6 273
3 276 274 275
3 275 76 276
3 274 75 275
3 276 74 274
3 278 277 275
3 275 75 278
3 277 76 275
3 278 24 277
3 280 279 274
3 274 74 280
3 279 75 274
3 280 23 279
3 282 281 276
3 276 76 282
3 281 74 276
3 282 22 281
3 285 283 284
3 284 78 285
3 283 75 284
3 285 77 283
3 279 286 284
3 284 75 279
3 286 78 284
3 279 23 286
3 287 278 283
3 283 77 287
3 278 75 283
3 287 24 278
3 289 288 285
3 285 78 289
3 288 77 285
3 289 0 288
3 292 290 291
3 291 80 292
3 290 74 291
3 292 79 290
3 281 293 291
3 291 74 281
3 293 80 291
3 281 22 293
3 294 280 290
3 290 79 294
3 280 74 290
3 294 23 280
3 296 295 292
3 292 80 296
3 295 79 292
3 296 4 295
3 299 297 298
3 298 82 299
3 297 76 298
3 299 81 297
3 277 300 298
3 298 76 277
3 300 82 298
3 277 24 300
3 301 282 297
3 297 81 301
3 282 76 297
3 301 22 282
3 303 302 299
3 299 82 303
3 302 81 299
3 303 3 302
3 306 304 305
3 305 85 306
3 304 84 305
3 306 83 304
3 308 307 305
3 305 84 308
3 307 85 305
3 308 26 307
3 310 309 304
3 304 83 310
3 309 84 304
3 310 24 309
3 312 311 306
3 306 85 312
3 311 83 306
3 312 25 311
3 315 313 314
3 314 77 315
3 313 84 314
3 315 86 313
3 309 287 314
3 314 84 309
3 287 77 314
3 309 24 287
3 316 308 313
3 313 86 316
3 308 84 313
3 316 26 308
3 288 317 315
3 315 77 288
3 317 86 315
3 288 0 317
3 320 318 319
3 319 87 320
3 318 83 319
3 320 82 318
3 311 321 319
3 319 83 311
3 321 87 319
3 311 25 321
3 300 310 318
3 318 82 300
3 310 83 318
3 300 24 310
3 322 303 320
3 320 87 322
3 303 82 320
3 322 3 303
3 325 323 324
3 324 89 325
3 323 85 324
3 325 88 323
3 307 326 324
3 324 85 307
3 326 89 324
3 307 26 326
3 327 312 323
3 323 88 327
3 312 85 323
3 327 25 312
3 329 328 325
3 325 89 329
3 328 88 325
3 329 5 328
3 332 330 331
3 331 92 332
3 330 91 331
3 332 90 330
3 334 333 331
3 331 91 334
3 333 92 331
3 334 29 333
3 336 335 330
3 330 90 336
3 335 91 330
3 336 28 335
3 338 337 332
3 332 92 338
3 337 90 332
3 338 27 337
3 341 339 340
3 340 94 341
3 339 91 340
3 341 93 339
3 335 342 340
3 340 91 335
3 342 94 340
3 335 28 342
3 343 334 339
3 339 93 343
3 334 91 339
3 343 29 334
3 345 344 341
3 341 94 345
3 344 93 341
3 345 2 344
3 348 346 347
3 347 96 348
3 346 90 347
3 348 95 346
3 337 349 347
3 347 90 337
3 349 96 347
3 337 27 349
3 350 336 346
3 346 95 350
3 336 90 346
3 350 28 336
3 352 351 348
3 348 96 352
3 351 95 348
3 352 7 351
3 355 353 354
3 354 98 355
3 353 92 354
3 355 97 353
3 333 356 354
3 354 92 333
3 356 98 354
3 333 29 356
3 357 338 353
3 353 97 357
3 338 92 353
3 357 27 338
3 359 358 355
3 355 98 359
3 358 97 355
3 359 1 358
3 362 360 361
3 361 101 362
3 360 100 361
3 362 99 360
3 364 363 361
3 361 100 364
3 363 101 361
3 364 31 363
3 366 365 360
3 360 99 366
3 365 100 360
3 366 29 365
3 368 367 362
3 362 101 368
3 367 99 362
3 368 30 367
3 371 369 370
3 370 93 371
3 369 100 370
3 371 102 369
3 365 343 370
3 370 100 365
3 343 93 370
3 365 29 343
3 372 364 369
3 369 102 372
3 364 100 369
3 372 31 364
3 344 373 371
3 371 93 344
3 373 102 371
3 344 2 373
3 376 374 375
3 375 103 376
3 374 99 375
3 376 98 374
3 367 377 375
3 375 99 367
3 377 103 375
3 367 30 377
3 356 366 374
3 374 98 356
3 366 99 374
3 356 29 366
3 378 359 376
3 376 103 378
3 359 98 376
3 378 1 359
3 381 379 380
3 380 105 381
3 379 101 380
3 381 104 379
3 363 382 380
3 380 101 363
3 382 105 380
3 363 31 382
3 383 368 379
3 379 104 383
3 368 101 379
3 383 30 368
3 385 384 381
3 381 105 385
3 384 104 381
3 385 6 384
3 388 386 387
3 387 108 388
3 386 107 387
3 388 106 386
3 390 389 387
3 387 107 390
3 389 108 387
3 390 34 389
3 392 391 386
3 386 106 392
3 391 107 386
3 392 33 391
3 394 393 388
3 388 108 394
3 393 106 388
3 394 32 393
3 397 395 396
3 396 110 397
3 395 107 396
3 397 109 395
3 391 398 396
3 396 107 391
3 398 110 396
3 391 33 398
3 399 390 395
3 395 109 399
3 390 107 395
3 399 34 390
3 401 400 397
3 397 110 401
3 400 109 397
3 401 8 400
3 404 402 403
3 403 112 404
3 402 106 403
3 404 111 402
3 393 405 403
3 403 106 393
3 405 112 403
3 393 32 405
3 406 392 402
3 402 111 406
3 392 106 402
3 406 33 392
3 408 407 404
3 404 112 408
3 407 111 404
3 408 0 407
3 411 409 410
3 410 114 411
3 409 108 410
3 411 113 409
3 389 412 410
3 410 108 389
3 412 114 410
3 389 34 412
3 413 394 409
3 409 113 413
3 394 108 409
3 413 32 394
3 415 414 411
3 411 114 415
3 414 113 411
3 415 11 414
3 418 416 417
3 417 117 418
3 416 116 417
3 418 115 416
3 420 419 417
3 417 116 420
3 419 117 417
3 420 36 419
3 422 421 416
3 416 115 422
3 421 116 416
3 422 34 421
3 424 423 418
3 418 117 424
3 423 115 418
3 424 35 423
3 427 425 426
3 426 109 427
3 425 116 426
3 427 118 425
3 421 399 426
3 426 116 421
3 399 109 426
3 421 34 399
3 428 420 425
3 425 118 428
3 420 116 425
3 428 36 420
3 400 429 427
3 427 109 400
3 429 118 427
3 400 8 429
3 432 430 431
3 431 119 432
3 430 115 431
3 432 114 430
3 423 433 431
3 431 115 423
3 433 119 431
3 423 35 433
3 412 422 430
3 430 114 412
3 422 115 430
3 412 34 422
3 434 415 432
3 432 119 434
3 415 114 432
3 434 11 415
3 437 435 436
3 436 121 437
3 435 117 436
3 437 120 435
3 419 438 436
3 436 117 419
3 438 121 436
3 419 36 438
3 439 424 435
3 435 120 439
3 424 117 435
3 439 35 424
3 441 440 437
3 437 121 441
3 440 120 437
3 441 1 440
3 444 442 443
3 443 124 444
3 442 123 443
3 444 122 442
3 446 445 443
3 443 123 446
3 445 124 443
3 446 39 445
3 448 447 442
3 442 122 448
3 447 123 442
3 448 38 447
3 450 449 444
3 444 124 450
3 449 122 444
3 450 37 449
3 453 451 452
3 452 126 453
3 451 123 452
3 453 125 451
3 447 454 452
3 452 123 447
3 454 126 452
3 447 38 454
3 455 446 451
3 451 125 455
3 446 123 451
3 455 39 446
3 457 456 453
3 453 126 457
3 456 125 453
3 457 9 456
3 460 458 459
3 459 128 460
3 458 122 459
3 460 127 458
3 449 461 459
3 459 122 449
3 461 128 459
3 449 37 461
3 462 448 458
3 458 127 462
3 448 122 458
3 462 38 448
3 464 463 460
3 460 128 464
3 463 127 460
3 464 10 463
3 467 465 466
3 466 130 467
3 465 124 466
3 467 129 465
3 445 468 466
3 466 124 445
3 468 130 466
3 445 39 468
3 469 450 465
3 465 129 469
3 450 124 465
3 469 37 450
3 471 470 467
3 467 130 471
3 470 129 467
3 471 3 470
3 474 472 473
3 473 133 474
3 472 132 473
3 474 131 472
3 476 475 473
3 473 132 476
3 475 133 473
3 476 38 475
3 478 477 472
3 472 131 478
3 477 132 472
3 478 41 477
3 480 479 474
3 474 133 480
3 479 131 474
3 480 40 479
3 483 481 482
3 482 134 483
3 481 132 482
3 483 126 481
3 477 484 482
3 482 132 477
3 484 134 482
3 477 41 484
3 454 476 481
3 481 126 454
3 476 132 481
3 454 38 476
3 485 457 483
3 483 134 485
3 457 126 483
3 485 9 457
3 488 486 487
3 487 136 488
3 486 131 487
3 488 135 486
3 479 489 487
3 487 131 479
3 489 136 487
3 479 40 489
3 490 478 486
3 486 135 490
3 478 131 486
3 490 41 478
3 492 491 488
3 488 136 492
3 491 135 488
3 492 2 491
3 495 493 494
3 494 127 495
3 493 133 494
3 495 137 493
3 475 462 494
3 494 133 475
3 462 127 494
3 475 38 462
3 496 480 493
3 493 137 496
3 480 133 493
3 496 40 480
3 463 497 495
3 495 127 463
3 497 137 495
3 463 10 497
3 500 498 499
3 499 140 500
3 498 139 499
3 500 138 498
3 502 501 499
3 499 139 502
3 501 140 499
3 502 33 501
3 504 503 498
3 498 138 504
3 503 139 498
3 504 13 503
3 506 505 500
3 500 140 506
3 505 138 500
3 506 23 505
3 509 507 508
3 508 47 509
3 507 139 508
3 509 110 507
3 503 182 508
3 508 139 503
3 182 47 508
3 503 13 182
3 398 502 507
3 507 110 398
3 502 139 507
3 398 33 502
3 183 401 509
3 509 47 183
3 401 110 509
3 183 8 401
3 512 510 511
3 511 79 512
3 510 138 511
3 512 46 510
3 505 294 511
3 511 138 505
3 294 79 511
3 505 23 294
3 174 504 510
3 510 46 174
3 504 138 510
3 174 13 504
3 295 177 512
3 512 79 295
3 177 46 512
3 295 4 177
3 515 513 514
3 514 111 515
3 513 140 514
3 515 78 513
3 501 406 514
3 514 140 501
3 406 111 514
3 501 33 406
3 286 506 513
3 513 78 286
3 506 140 513
3 286 23 506
3 407 289 515
3 515 111 407
3 289 78 515
3 407 0 289
3 518 516 517
3 517 143 518
3 516 142 517
3 518 141 516
3 520 519 517
3 517 142 520
3 519 143 517
3 520 19 519
3 522 521 516
3 516 141 522
3 521 142 516
3 522 32 521
3 524 523 518
3 518 143 524
3 523 141 518
3 524 26 523
3 527 525 526
3 526 113 527
3 525 142 526
3 527 66 525
3 521 413 526
3 526 142 521
3 413 113 526
3 521 32 413
3 244 520 525
3 525 66 244
3 520 142 525
3 244 19 520
3 414 247 527
3 527 113 414
3 247 66 527
3 414 11 247
3 530 528 529
3 529 86 530
3 528 141 529
3 530 112 528
3 523 316 529
3 529 141 523
3 316 86 529
3 523 26 316
3 405 522 528
3 528 112 405
3 522 141 528
3 405 32 522
3 317 408 530
3 530 86 317
3 408 112 530
3 317 0 408
3 533 531 532
3 532 61 533
3 531 143 532
3 533 89 531
3 519 231 532
3 532 143 519
3 231 61 532
3 519 19 231
3 326 524 531
3 531 89 326
3 524 143 531
3 326 26 524
3 232 329 533
3 533 61 232
3 329 89 533
3 232 5 329
3 536 534 535
3 535 146 536
3 534 145 535
3 536 144 534
3 538 537 535
3 535 145 538
3 537 146 535
3 538 22 537
3 540 539 534
3 534 144 540
3 539 145 534
3 540 16 539
3 542 541 536
3 536 146 542
3 541 144 536
3 542 39 541
3 545 543 544
3 544 54 545
3 543 145 544
3 545 80 543
3 539 204 544
3 544 145 539
3 204 54 544
3 539 16 204
3 293 538 543
3 543 80 293
3 538 145 543
3 293 22 538
3 205 296 545
3 545 54 205
3 296 80 545
3 205 4 296
3 548 546 547
3 547 125 548
3 546 144 547
3 548 57 546
3 541 455 547
3 547 144 541
3 455 125 547
3 541 39 455
3 214 540 546
3 546 57 214
3 540 144 546
3 214 16 540
3 456 217 548
3 548 125 456
3 217 57 548
3 456 9 217
3 551 549 550
3 550 81 551
3 549 146 550
3 551 130 549
3 537 301 550
3 550 146 537
3 301 81 550
3 537 22 301
3 468 542 549
3 549 130 468
3 542 146 549
3 468 39 542
3 302 471 551
3 551 81 302
3 471 130 551
3 302 3 471
3 554 552 553
3 553 149 554
3 552 148 553
3 554 147 552
3 556 555 553
3 553 148 556
3 555 149 553
3 556 21 555
3 558 557 552
3 552 147 558
3 557 148 552
3 558 25 557
3 560 559 554
3 554 149 560
3 559 147 554
3 560 37 559
3 563 561 562
3 562 88 563
3 561 148 562
3 563 70 561
3 557 327 562
3 562 148 557
3 327 88 562
3 557 25 327
3 260 556 561
3 561 70 260
3 556 148 561
3 260 21 556
3 328 261 563
3 563 88 328
3 261 70 563
3 328 5 261
3 566 564 565
3 565 129 566
3 564 147 565
3 566 87 564
3 559 469 565
3 565 147 559
3 469 129 565
3 559 37 469
3 321 558 564
3 564 87 321
3 558 147 564
3 321 25 558
3 470 322 566
3 566 129 470
3 322 87 566
3 470 3 322
3 569 567 568
3 568 71 569
3 567 149 568
3 569 128 567
3 555 266 568
3 568 149 555
3 266 71 568
3 555 21 266
3 461 560 567
3 567 128 461
3 560 149 567
3 461 37 560
3 267 464 569
3 569 71 267
3 464 128 569
3 267 10 464
3 572 570 571
3 571 152 572
3 570 151 571
3 572 150 570
3 574 573 571
3 571 151 574
3 573 152 571
3 574 27 573
3 576 575 570
3 570 150 576
3 575 151 570
3 576 12 575
3 578 577 572
3 572 152 578
3 577 150 572
3 578 36 577
3 581 579 580
3 580 49 581
3 579 151 580
3 581 96 579
3 575 189 580
3 580 151 575
3 189 49 580
3 575 12 189
3 349 574 579
3 579 96 349
3 574 151 579
3 349 27 574
3 190 352 581
3 581 49 190
3 352 96 581
3 190 7 352
3 584 582 583
3 583 118 584
3 582 150 583
3 584 48 582
3 577 428 583
3 583 150 577
3 428 118 583
3 577 36 428
3 181 576 582
3 582 48 181
3 576 150 582
3 181 12 576
3 429 184 584
3 584 118 429
3 184 48 584
3 429 8 184
3 587 585 586
3 586 97 587
3 585 152 586
3 587 121 585
3 573 357 586
3 586 152 573
3 357 97 586
3 573 27 357
3 438 578 585
3 585 121 438
3 578 152 585
3 438 36 578
3 358 441 587
3 587 97 358
3 441 121 587
3 358 1 441
3 590 588 589
3 589 155 590
3 588 154 589
3 590 153 588
3 592 591 589
3 589 154 592
3 591 155 589
3 592 17 591
3 594 593 588
3 588 153 594
3 593 154 588
3 594 30 593
3 596 595 590
3 590 155 596
3 595 153 590
3 596 35 595
3 599 597 598
3 598 104 599
3 597 154 598
3 599 64 597
3 593 383 598
3 598 154 593
3 383 104 598
3 593 30 383
3 237 592 597
3 597 64 237
3 592 154 597
3 237 17 592
3 384 240 599
3 599 104 384
3 240 64 599
3 384 6 240
3 602 600 601
3 601 120 602
3 600 153 601
3 602 103 600
3 595 439 601
3 601 153 595
3 439 120 601
3 595 35 439
3 377 594 600
3 600 103 377
3 594 153 600
3 377 30 594
3 440 378 602
3 602 120 440
3 378 103 602
3 440 1 378
3 605 603 604
3 604 65 605
3 603 155 604
3 605 119 603
3 591 245 604
3 604 155 591
3 245 65 604
3 591 17 245
3 433 596 603
3 603 119 433
3 596 155 603
3 433 35 596
3 246 434 605
3 605 65 246
3 434 119 605
3 246 11 434
3 608 606 607
3 607 158 608
3 606 157 607
3 608 156 606
3 610 609 607
3 607 157 610
3 609 158 607
3 610 15 609
3 612 611 606
3 606 156 612
3 611 157 606
3 612 28 611
3 614 613 608
3 608 158 614
3 613 156 608
3 614 41 613
3 617 615 616
3 616 95 617
3 615 157 616
3 617 55 615
3 611 350 616
3 616 157 611
3 350 95 616
3 611 28 350
3 209 610 615
3 615 55 209
3 610 157 615
3 209 15 610
3 351 210 617
3 617 95 351
3 210 55 617
3 351 7 210
3 620 618 619
3 619 135 620
3 618 156 619
3 620 94 618
3 613 490 619
3 619 156 613
3 490 135 619
3 613 41 490
3 342 612 618
3 618 94 342
3 612 156 618
3 342 28 612
3 491 345 620
3 620 135 491
3 345 94 620
3 491 2 345
3 623 621 622
3 622 56 623
3 621 158 622
3 623 134 621
3 609 215 622
3 622 158 609
3 215 56 622
3 609 15 215
3 484 614 621
3 621 134 484
3 614 158 621
3 484 41 614
3 216 485 623
3 623 56 216
3 485 134 623
3 216 9 485
3 626 624 625
3 625 161 626
3 624 160 625
3 626 159 624
3 628 627 625
3 625 160 628
3 627 161 625
3 628 31 627
3 630 629 624
3 624 159 630
3 629 160 624
3 630 20 629
3 632 631 626
3 626 161 632
3 631 159 626
3 632 40 631
3 635 633 634
3 634 73 635
3 633 160 634
3 635 105 633
3 629 272 634
3 634 160 629
3 272 73 634
3 629 20 272
3 382 628 633
3 633 105 382
3 628 160 633
3 382 31 628
3 273 385 635
3 635 73 273
3 385 105 635
3 273 6 385
3 638 636 637
3 637 137 638
3 636 159 637
3 638 72 636
3 631 496 637
3 637 159 631
3 496 137 637
3 631 40 496
3 265 630 636
3 636 72 265
3 630 159 636
3 265 20 630
3 497 268 638
3 638 137 497
3 268 72 638
3 497 10 268
3 641 639 640
3 640 102 641
3 639 161 640
3 641 136 639
3 627 372 640
3 640 161 627
3 372 102 640
3 627 31 372
3 489 632 639
3 639 136 489
3 632 161 639
3 489 40 632
3 373 492 641
3 641 102 373
3 492 136 641
3 373 2 492
