# vtk DataFile Version 3.0
this file was written using fslvtkio
ASCII
DATASET POLYDATA
POINTS 642 float
139.2 154.885 118.283
138.099 164.587 120.323
137.722 165.028 123.547
139.159 155.812 121.18
140.898 156.489 120.514
137.058 157.544 119.756
135.66 163.676 121.478
140.055 162.734 122.101
139.821 159.798 119.009
139.569 160.663 124.399
137.312 160.928 122.805
137.329 159.678 118.51
140.318 161.509 120.225
140.777 158.181 119.522
140.971 159.944 121.441
140.187 162.499 124.006
140.732 157.847 122.156
136.259 161.768 119.501
136.092 159.987 120.523
136.514 157.272 118.459
136.374 162.436 122.438
137.322 159.553 121.048
140.355 154.407 120.818
140.371 154.647 118.978
139.14 153.408 119.347
138.324 157.134 120.132
137.902 155.487 118.673
139.176 163.891 121.229
139.021 164.273 123.141
137.772 165.732 122.108
136.756 164.783 120.69
136.453 165.136 122.8
138.193 156.867 117.822
139.707 157.149 118.416
138.69 159.666 118.44
137.605 162.539 119.094
139.106 162.388 119.501
138.199 158.443 122.258
138.104 160.916 124.01
139.54 157.1 122.494
137.162 163.516 123.678
138.706 163.73 124.26
140.705 159.863 119.756
141.095 158.973 120.387
140.753 160.764 120.799
141.091 158.128 121.035
141.029 157.279 119.969
140.35 159.024 119.165
140.171 160.559 119.448
140.277 162.347 121.158
140.508 161.426 121.755
140.681 161.048 122.696
140.972 159.04 122.099
140.709 160.669 123.591
141.092 156.662 121.411
140.12 162.303 122.866
139.877 161.926 124.711
140.31 159.052 123.25
136 160.76 119.865
136.131 158.549 119.492
136.252 159.507 118.91
136.647 156.849 119.207
136.546 158.477 119.997
135.676 162.041 121.11
135.87 162.925 120.406
136.756 160.619 118.849
136.909 158.551 118.395
136.812 160.921 121.621
136.751 159.891 120.623
136.205 161.381 121.484
137.22 158.68 120.229
137.316 160.284 121.829
136.87 161.614 122.408
135.803 163.163 122.213
140.42 154.015 119.721
139.94 152.952 118.832
139.858 153.884 119.882
139.302 153.351 118.486
139.926 154.254 118.382
140.74 155.502 119.68
140.836 154.89 120.62
139.736 154.763 120.906
139.308 154.936 120.196
138.756 155.484 119.775
138.69 154.785 119.003
138.1 156.072 119.49
138.591 155.008 118.335
138.779 156.523 120.734
137.705 157.453 119.824
137.375 156.419 119.301
139.091 164.32 122.211
138.401 164.812 122.584
138.491 164.803 121.62
137.731 165.204 122.838
138.34 164.953 123.46
139.643 163.523 122.703
139.701 163.421 121.697
138.655 164.518 120.817
137.935 165.368 121.108
137.224 165.747 121.38
137.1 165.722 122.42
136.492 165.401 121.716
137.05 165.361 123.32
137.539 164.624 120.513
136 164.464 121.05
135.816 164.872 122.213
139.036 156.876 117.938
139.282 158.28 118.12
138.553 158.11 117.931
139.34 159.791 118.61
139.851 158.517 118.709
139.5 155.883 118.287
138.741 155.851 117.951
137.729 158.159 118.072
137.968 159.784 118.438
138.157 161.22 118.769
138.828 161.135 119.015
138.372 162.514 119.253
139.577 161.047 119.116
137.382 161.128 118.784
137.867 163.757 119.679
138.614 163.695 119.86
138.084 159.5 123.268
138.671 159.105 123.542
138.712 157.692 122.664
139.673 158.737 123.283
138.788 160.771 124.35
137.694 161.022 123.406
137.778 159.728 122.534
138.642 157.044 121.811
139.353 156.112 121.836
137.898 163.719 124.05
138.413 162.409 124.229
137.693 162.256 123.821
139.087 162.381 124.658
138.142 164.845 124.107
137.3 164.745 123.824
137.184 162.139 123.28
140.562 156.547 119.33
140.3 157.497 118.914
140.139 155.878 118.636
137.952 155.895 118.054
137.286 156.876 117.917
137.155 156.225 118.429
140.368 156.888 122.071
140.793 155.239 121.469
140.062 155.063 121.697
138.313 157.821 121.142
137.854 158.387 120.538
137.781 159.155 121.546
139.686 161.887 119.89
139.79 162.819 120.68
139.189 163.336 120.311
137.158 163.773 119.751
136.422 163.503 119.995
136.854 162.348 119.182
138.883 164.404 123.993
139.61 163.533 123.653
139.404 163.247 124.426
136.67 163.051 123.101
136.053 164.144 123.027
136.588 164.591 123.719
140.867 159.503 120.126
140.998 159.963 120.592
140.823 160.392 120.173
140.945 160.419 121.103
141.063 159.489 120.915
140.962 158.612 119.875
140.786 159.029 119.646
140.58 160.693 119.942
140.628 161.176 120.427
141.147 158.591 120.716
141.104 158.118 120.155
141.129 157.693 120.503
140.898 157.74 119.701
141.063 159.058 121.267
141.041 157.268 120.774
140.991 156.866 120.304
140.558 159.373 119.405
140.479 160.234 119.588
140.274 159.779 119.326
140.292 161.042 119.81
140.561 158.586 119.334
140.092 159.434 119.069
139.997 160.126 119.226
140.534 161.596 120.993
140.701 161.164 121.305
140.441 161.958 121.456
140.759 160.761 121.581
140.353 161.962 120.621
140.196 162.708 121.643
140.249 162.139 121.919
140.884 160.205 122.47
140.861 159.787 122.779
140.727 160.921 123.208
140.739 159.19 122.874
140.871 158.571 122.201
141.002 159.532 121.85
140.833 160.441 122.082
140.454 161.749 123.35
140.485 161.716 123.872
141.012 157.878 121.796
141.069 158.491 121.603
141.054 157.546 121.299
140.916 157.26 121.809
141.002 156.58 120.897
140.577 161.165 122.205
140.403 161.806 122.86
140.342 161.923 122.344
140.216 162.602 123.475
140.07 162.432 122.434
140.379 161.405 124.238
140.504 159.876 123.534
140.162 160.627 124.149
140.536 158.417 122.655
140.06 162.344 124.457
139.755 161.343 124.665
139.967 160.027 124.049
136.074 159.694 119.638
136.093 159.013 119.108
136.09 160.197 119.353
136.344 158.376 118.722
136.231 157.851 118.968
136.076 159.143 119.965
136.03 160.281 120.183
136.102 161.236 119.674
136.262 160.66 119.226
136.304 157.462 119.316
136.237 158.313 119.906
136.539 157.613 119.706
136.283 159.107 120.25
136.521 156.891 118.781
136.833 157.263 119.628
136.828 158.003 119.83
135.891 161.354 120.386
135.944 161.86 120.108
135.754 162.419 120.595
136.115 162.317 119.956
135.913 160.985 120.749
135.646 162.877 121.247
135.707 163.358 120.916
136.488 160.116 118.837
136.575 159.018 118.637
136.828 159.63 118.665
136.67 157.982 118.405
136.487 161.181 119.131
137.051 160.06 118.641
137.127 159.11 118.431
136.791 160.362 121.09
136.492 160.587 120.953
136.542 161.102 121.485
136.158 160.761 120.9
136.42 159.94 120.577
137.035 159.758 120.83
137.06 160.192 121.341
136.589 161.618 121.996
136.289 161.919 122.01
136.615 159.22 120.325
136.949 159.254 120.39
136.863 158.644 120.102
137.297 159.148 120.533
137.123 158.093 119.985
137.066 160.644 121.729
136.824 161.253 122.037
137.098 160.951 122.138
136.648 162.002 122.362
137.311 159.924 121.436
137.29 160.594 122.339
137.124 161.293 122.584
135.948 162.276 121.944
135.865 161.636 121.362
135.719 162.585 121.676
136.062 162.822 122.393
135.68 163.473 121.882
140.258 153.38 119.254
139.871 153.18 119.374
140.162 153.681 119.841
139.462 153.398 119.587
139.54 152.75 119.023
140.213 153.701 118.921
140.474 154.085 119.218
140.431 154.038 120.31
140.131 154.038 120.357
139.653 152.962 118.692
139.922 153.634 118.686
139.631 153.677 118.41
140.121 154.433 118.77
139.228 153.031 118.932
139.287 154.172 118.406
139.547 154.578 118.384
140.658 154.622 119.634
140.651 154.44 120.155
140.721 155.241 120.105
140.656 154.353 120.744
140.601 154.947 119.284
140.849 156.04 120.142
140.832 155.782 120.535
139.816 154.405 120.389
139.562 154.248 120.004
139.554 154.883 120.51
139.185 154.134 119.777
140.091 154.588 120.814
139.484 155.308 121.014
139.283 155.439 120.67
138.734 155.09 119.339
138.378 155.423 119.169
138.52 156.012 119.534
137.963 155.635 119.088
138.284 155.111 118.868
138.914 154.031 119.196
138.933 154.488 119.651
138.534 156.325 119.975
138.286 156.709 119.731
138.577 154.66 118.613
138.95 153.989 118.808
138.941 154.166 118.436
138.231 155.18 118.47
138.928 154.808 118.268
139.011 155.115 120.008
138.743 155.982 120.27
139.042 155.794 120.456
138.553 156.845 120.457
138.963 156.17 120.945
137.925 156.734 119.639
137.742 156.236 119.311
137.537 156.799 119.604
137.607 155.916 118.954
138.066 157.408 119.936
137.365 157.509 119.788
137.157 156.934 119.607
138.752 164.616 122.401
138.448 164.844 122.135
138.79 164.566 121.956
138.152 165.312 121.904
138.119 165.1 122.32
138.713 164.585 122.891
139.048 164.406 122.686
139.145 164.222 121.789
138.846 164.295 121.425
138.053 164.939 122.691
138.363 164.89 123.008
138.038 164.971 123.111
138.684 164.658 123.317
137.757 165.476 122.499
137.737 165.219 123.242
138.028 165.091 123.548
139.363 164.017 122.457
139.389 163.95 121.996
139.675 163.682 122.188
139.466 163.747 121.531
139.349 163.959 122.976
139.851 163.07 122.365
139.945 163.232 121.895
138.58 164.675 121.149
138.211 165.194 121.385
138.296 164.923 120.97
137.865 165.611 121.566
138.908 164.276 121.016
138.377 164.593 120.543
138.049 164.956 120.737
137.141 165.869 121.916
136.791 165.644 122.11
136.839 165.735 121.579
136.441 165.307 122.315
136.765 165.384 122.606
137.448 165.859 122.288
137.495 165.812 121.692
136.949 165.385 121.042
136.588 165.303 121.216
137.112 165.316 122.812
137.434 165.457 122.658
137.396 165.442 123.096
136.788 165.158 122.955
137.373 165.269 123.477
137.602 165.69 121.282
137.359 165.288 120.907
137.743 165.214 120.815
137.161 164.688 120.64
137.836 164.711 120.442
136.262 164.892 121.368
136.169 165.094 121.966
135.86 164.709 121.639
136.084 165.166 122.579
136.374 164.662 120.828
135.756 164.127 121.28
135.679 164.288 121.886
139.135 157.655 118.111
138.941 158.154 117.941
138.817 157.503 117.913
138.653 158.856 118.129
139.034 158.883 118.142
139.5 157.673 118.24
139.417 156.915 118.072
138.643 156.901 117.883
138.412 157.467 117.861
139.339 159.01 118.311
139.54 158.45 118.486
139.54 159.137 118.653
139.818 157.822 118.492
139.077 159.662 118.406
139.552 159.853 118.832
139.846 159.202 118.869
139.298 156.333 118.075
138.893 156.305 117.9
139.126 155.865 118.142
138.478 156.322 117.822
139.598 156.475 118.321
139.352 155.31 118.277
138.977 155.358 118.179
138.159 158.124 117.956
138.271 158.912 118.145
137.883 158.953 118.266
138.345 159.732 118.332
137.983 157.457 117.879
137.509 158.996 118.3
137.622 159.775 118.513
138.497 161.156 118.941
138.619 161.788 119.156
138.258 161.88 118.972
138.762 162.491 119.389
138.967 161.823 119.303
138.729 160.417 118.759
138.418 160.486 118.612
137.884 161.889 118.915
138.019 162.558 119.128
139.238 161.137 119.015
139.141 160.421 118.675
139.44 160.457 118.863
139.371 161.761 119.309
139.685 160.407 119.099
138.068 160.489 118.529
137.768 161.212 118.734
137.694 160.476 118.58
137.491 161.861 118.969
137.328 160.4 118.647
138.119 163.166 119.387
138.505 163.165 119.542
138.258 163.822 119.704
138.868 163.05 119.608
137.752 163.159 119.364
137.991 164.352 119.944
138.379 164.246 120.133
138.346 159.25 123.504
138.687 158.33 123.138
138.384 158.607 123.045
139.178 157.416 122.516
139.171 158.093 122.912
138.323 160.055 123.87
138.066 160.188 123.746
138.162 158.882 122.756
138.351 158.106 122.663
139.163 158.884 123.403
138.676 159.934 123.904
139.206 159.854 123.927
138.345 160.769 124.24
139.667 157.735 122.793
139.627 159.698 123.903
139.26 160.765 124.313
137.844 160.262 123.41
137.941 159.644 122.883
137.736 160.358 122.957
137.971 159.047 122.404
137.912 160.994 123.715
137.542 161.02 123.013
137.522 160.308 122.689
138.563 157.327 122.404
139.08 156.897 122.219
138.955 156.603 121.955
139.496 156.527 122.132
138.4 157.734 122.103
138.885 156.408 121.509
139.205 155.854 121.532
138.163 163.116 124.149
138.063 162.247 124.107
137.84 162.905 123.961
137.953 161.667 123.925
138.204 161.602 124.207
138.602 163.126 124.224
138.274 163.858 124.193
137.549 163.629 123.856
137.478 162.926 123.685
138.569 161.592 124.366
138.8 162.35 124.338
138.99 161.66 124.523
138.946 162.971 124.361
139.335 161.709 124.725
137.956 164.444 124.198
137.608 164.256 124
137.706 164.839 124.022
137.182 164.2 123.797
138.361 164.324 124.217
137.943 165.099 123.858
137.496 164.991 123.742
137.444 162.233 123.529
137.676 161.634 123.67
137.464 161.666 123.362
137.145 162.803 123.51
137.241 161.553 123.071
140.48 156.978 119.093
140.215 156.719 118.798
140.416 156.102 118.882
139.894 156.588 118.603
139.991 157.3 118.726
140.571 157.766 119.168
140.721 157.341 119.425
140.478 155.637 119.163
140.28 155.277 118.794
140.049 158.004 118.81
140.334 158.258 119.06
140.122 158.737 118.881
140.806 156.904 119.621
140.662 156.048 119.498
140.846 156.46 119.854
140.058 155.071 118.53
139.815 155.862 118.484
139.7 155.142 118.379
137.592 156.437 117.977
137.156 156.526 118.124
137.535 156.018 118.198
136.775 156.576 118.342
136.868 157.095 118.185
137.765 156.915 117.843
138.073 156.283 117.833
137.903 155.579 118.281
137.543 155.854 118.569
137.067 157.696 118.138
137.526 157.522 117.935
137.308 158.38 118.215
138.36 155.844 117.946
138.254 155.586 118.206
138.618 155.455 118.169
137.235 156.118 118.852
136.828 156.264 118.726
136.966 156.428 119.274
140.565 156.088 121.69
140.468 154.971 121.661
140.275 155.914 121.805
140.26 154.582 121.357
140.615 154.46 121.263
140.81 156.448 121.764
140.527 157.248 122.046
140.004 156.884 122.277
139.855 156.028 122.021
140.912 154.883 121.157
141.023 155.89 121.454
140.969 155.771 120.957
140.406 157.952 122.623
140.107 157.668 122.671
139.988 158.83 123.392
139.717 155.651 121.791
139.927 154.919 121.385
139.548 155.39 121.454
138.089 158.12 120.857
137.831 158.802 121.048
138.04 158.434 121.375
137.585 159.365 121.256
137.578 158.992 120.823
138.102 157.797 120.348
138.323 157.495 120.658
138.255 158.147 121.683
138.011 158.68 121.868
137.558 158.647 120.331
137.809 158.004 120.142
137.471 158.163 119.997
138.546 157.255 120.931
138.463 157.467 121.518
138.695 156.794 121.24
137.782 159.402 121.973
137.568 159.766 121.612
137.513 160.016 122.145
139.745 162.361 120.253
139.487 163.126 120.476
139.408 162.58 120.092
139.196 163.734 120.774
139.519 163.443 120.987
140.054 162.099 120.458
140.027 161.753 120.083
139.418 162.176 119.714
139.135 162.852 119.886
139.783 163.22 121.212
140.037 162.562 120.921
140.001 162.912 121.424
139.956 161.273 119.666
139.598 161.508 119.509
139.798 160.786 119.393
138.916 163.549 120.055
138.982 164.066 120.543
138.672 164.144 120.315
136.807 163.688 119.874
136.638 162.872 119.545
136.994 163.099 119.486
136.529 162.108 119.328
136.362 162.64 119.763
136.601 164.175 120.343
136.988 164.17 120.235
137.379 163.193 119.39
137.23 162.52 119.171
136.151 163.172 120.176
136.193 164.014 120.441
135.882 163.778 120.701
137.32 164.227 120.213
137.499 163.74 119.695
137.68 164.403 120.065
137.087 161.747 118.924
136.727 161.5 118.958
137.021 160.909 118.766
139.244 164.006 123.824
139.538 163.613 124.122
139.174 163.907 124.238
139.794 163.087 124.349
139.915 163.182 123.865
139.323 163.888 123.366
138.97 164.501 123.563
138.765 164.167 124.263
139.073 163.345 124.287
139.911 162.903 123.331
139.639 163.404 123.159
139.89 162.868 122.75
138.623 164.942 123.718
138.512 164.697 124.077
138.256 165.002 123.778
139.253 162.879 124.549
139.657 162.799 124.657
139.467 162.239 124.792
136.419 163.646 123.106
136.343 164.399 123.404
136.65 163.784 123.42
136.483 165.052 123.327
136.17 164.876 123.082
136.179 163.286 122.768
136.518 162.815 122.753
136.893 163.246 123.474
136.82 163.979 123.688
135.831 164.65 122.752
135.834 163.7 122.686
135.715 164.095 122.332
136.738 162.316 122.724
136.95 162.554 123.112
137.022 161.899 122.808
136.889 164.721 123.825
136.78 165.163 123.558
137.081 165.199 123.722
POLYGONS 1280  5120
3 164 162 163
3 163 44 164
3 162 43 163
3 164 42 162
3 166 165 163
3 163 43 166
3 165 44 163
3 166 14 165
3 168 167 162
3 162 42 168
3 167 43 162
3 168 13 167
3 170 169 164
3 164 44 170
3 169 42 164
3 170 12 169
3 173 171 172
3 172 46 173
3 171 43 172
3 173 45 171
3 167 174 172
3 172 43 167
3 174 46 172
3 167 13 174
3 175 166 171
3 171 45 175
3 166 43 171
3 175 14 166
3 177 176 173
3 173 46 177
3 176 45 173
3 177 4 176
3 180 178 179
3 179 48 180
3 178 42 179
3 180 47 178
3 169 181 179
3 179 42 169
3 181 48 179
3 169 12 181
3 182 168 178
3 178 47 182
3 168 42 178
3 182 13 168
3 184 183 180
3 180 48 184
3 183 47 180
3 184 8 183
3 187 185 186
3 186 50 187
3 185 44 186
3 187 49 185
3 165 188 186
3 186 44 165
3 188 50 186
3 165 14 188
3 189 170 185
3 185 49 189
3 170 44 185
3 189 12 170
3 191 190 187
3 187 50 191
3 190 49 187
3 191 7 190
3 194 192 193
3 193 53 194
3 192 52 193
3 194 51 192
3 196 195 193
3 193 52 196
3 195 53 193
3 196 16 195
3 198 197 192
3 192 51 198
3 197 52 192
3 198 14 197
3 200 199 194
3 194 53 200
3 199 51 194
3 200 15 199
3 203 201 202
3 202 45 203
3 201 52 202
3 203 54 201
3 197 175 202
3 202 52 197
3 175 45 202
3 197 14 175
3 204 196 201
3 201 54 204
3 196 52 201
3 204 16 196
3 176 205 203
3 203 45 176
3 205 54 203
3 176 4 205
3 208 206 207
3 207 55 208
3 206 51 207
3 208 50 206
3 199 209 207
3 207 51 199
3 209 55 207
3 199 15 209
3 188 198 206
3 206 50 188
3 198 51 206
3 188 14 198
3 210 191 208
3 208 55 210
3 191 50 208
3 210 7 191
3 213 211 212
3 212 57 213
3 211 53 212
3 213 56 211
3 195 214 212
3 212 53 195
3 214 57 212
3 195 16 214
3 215 200 211
3 211 56 215
3 200 53 211
3 215 15 200
3 217 216 213
3 213 57 217
3 216 56 213
3 217 9 216
3 220 218 219
3 219 60 220
3 218 59 219
3 220 58 218
3 222 221 219
3 219 59 222
3 221 60 219
3 222 19 221
3 224 223 218
3 218 58 224
3 223 59 218
3 224 18 223
3 226 225 220
3 220 60 226
3 225 58 220
3 226 17 225
3 229 227 228
3 228 62 229
3 227 59 228
3 229 61 227
3 223 230 228
3 228 59 223
3 230 62 228
3 223 18 230
3 231 222 227
3 227 61 231
3 222 59 227
3 231 19 222
3 233 232 229
3 229 62 233
3 232 61 229
3 233 5 232
3 236 234 235
3 235 64 236
3 234 58 235
3 236 63 234
3 225 237 235
3 235 58 225
3 237 64 235
3 225 17 237
3 238 224 234
3 234 63 238
3 224 58 234
3 238 18 224
3 240 239 236
3 236 64 240
3 239 63 236
3 240 6 239
3 243 241 242
3 242 66 243
3 241 60 242
3 243 65 241
3 221 244 242
3 242 60 221
3 244 66 242
3 221 19 244
3 245 226 241
3 241 65 245
3 226 60 241
3 245 17 226
3 247 246 243
3 243 66 247
3 246 65 243
3 247 11 246
3 250 248 249
3 249 69 250
3 248 68 249
3 250 67 248
3 252 251 249
3 249 68 252
3 251 69 249
3 252 18 251
3 254 253 248
3 248 67 254
3 253 68 248
3 254 21 253
3 256 255 250
3 250 69 256
3 255 67 250
3 256 20 255
3 259 257 258
3 258 70 259
3 257 68 258
3 259 62 257
3 253 260 258
3 258 68 253
3 260 70 258
3 253 21 260
3 230 252 257
3 257 62 230
3 252 68 257
3 230 18 252
3 261 233 259
3 259 70 261
3 233 62 259
3 261 5 233
3 264 262 263
3 263 72 264
3 262 67 263
3 264 71 262
3 255 265 263
3 263 67 255
3 265 72 263
3 255 20 265
3 266 254 262
3 262 71 266
3 254 67 262
3 266 21 254
3 268 267 264
3 264 72 268
3 267 71 264
3 268 10 267
3 271 269 270
3 270 63 271
3 269 69 270
3 271 73 269
3 251 238 270
3 270 69 251
3 238 63 270
3 251 18 238
3 272 256 269
3 269 73 272
3 256 69 269
3 272 20 256
3 239 273 271
3 271 63 239
3 273 73 271
3 239 6 273
3 276 274 275
3 275 76 276
3 274 75 275
3 276 74 274
3 278 277 275
3 275 75 278
3 277 76 275
3 278 24 277
3 280 279 274
3 274 74 280
3 279 75 274
3 280 23 279
3 282 281 276
3 276 76 282
3 281 74 276
3 282 22 281
3 285 283 284
3 284 78 285
3 283 75 284
3 285 77 283
3 279 286 284
3 284 75 279
3 286 78 284
3 279 23 286
3 287 278 283
3 283 77 287
3 278 75 283
3 287 24 278
3 289 288 285
3 285 78 289
3 288 77 285
3 289 0 288
3 292 290 291
3 291 80 292
3 290 74 291
3 292 79 290
3 281 293 291
3 291 74 281
3 293 80 291
3 281 22 293
3 294 280 290
3 290 79 294
3 280 74 290
3 294 23 280
3 296 295 292
3 292 80 296
3 295 79 292
3 296 4 295
3 299 297 298
3 298 82 299
3 297 76 298
3 299 81 297
3 277 300 298
3 298 76 277
3 300 82 298
3 277 24 300
3 301 282 297
3 297 81 301
3 282 76 297
3 301 22 282
3 303 302 299
3 299 82 303
3 302 81 299
3 303 3 302
3 306 304 305
3 305 85 306
3 304 84 305
3 306 83 304
3 308 307 305
3 305 84 308
3 307 85 305
3 308 26 307
3 310 309 304
3 304 83 310
3 309 84 304
3 310 24 309
3 312 311 306
3 306 85 312
3 311 83 306
3 312 25 311
3 315 313 314
3 314 77 315
3 313 84 314
3 315 86 313
3 309 287 314
3 314 84 309
3 287 77 314
3 309 24 287
3 316 308 313
3 313 86 316
3 308 84 313
3 316 26 308
3 288 317 315
3 315 77 288
3 317 86 315
3 288 0 317
3 320 318 319
3 319 87 320
3 318 83 319
3 320 82 318
3 311 321 319
3 319 83 311
3 321 87 319
3 311 25 321
3 300 310 318
3 318 82 300
3 310 83 318
3 300 24 310
3 322 303 320
3 320 87 322
3 303 82 320
3 322 3 303
3 325 323 324
3 324 89 325
3 323 85 324
3 325 88 323
3 307 326 324
3 324 85 307
3 326 89 324
3 307 26 326
3 327 312 323
3 323 88 327
3 312 85 323
3 327 25 312
3 329 328 325
3 325 89 329
3 328 88 325
3 329 5 328
3 332 330 331
3 331 92 332
3 330 91 331
3 332 90 330
3 334 333 331
3 331 91 334
3 333 92 331
3 334 29 333
3 336 335 330
3 330 90 336
3 335 91 330
3 336 28 335
3 338 337 332
3 332 92 338
3 337 90 332
3 338 27 337
3 341 339 340
3 340 94 341
3 339 91 340
3 341 93 339
3 335 342 340
3 340 91 335
3 342 94 340
3 335 28 342
3 343 334 339
3 339 93 343
3 334 91 339
3 343 29 334
3 345 344 341
3 341 94 345
3 344 93 341
3 345 2 344
3 348 346 347
3 347 96 348
3 346 90 347
3 348 95 346
3 337 349 347
3 347 90 337
3 349 96 347
3 337 27 349
3 350 336 346
3 346 95 350
3 336 90 346
3 350 28 336
3 352 351 348
3 348 96 352
3 351 95 348
3 352 7 351
3 355 353 354
3 354 98 355
3 353 92 354
3 355 97 353
3 333 356 354
3 354 92 333
3 356 98 354
3 333 29 356
3 357 338 353
3 353 97 357
3 338 92 353
3 357 27 338
3 359 358 355
3 355 98 359
3 358 97 355
3 359 1 358
3 362 360 361
3 361 101 362
3 360 100 361
3 362 99 360
3 364 363 361
3 361 100 364
3 363 101 361
3 364 31 363
3 366 365 360
3 360 99 366
3 365 100 360
3 366 29 365
3 368 367 362
3 362 101 368
3 367 99 362
3 368 30 367
3 371 369 370
3 370 93 371
3 369 100 370
3 371 102 369
3 365 343 370
3 370 100 365
3 343 93 370
3 365 29 343
3 372 364 369
3 369 102 372
3 364 100 369
3 372 31 364
3 344 373 371
3 371 93 344
3 373 102 371
3 344 2 373
3 376 374 375
3 375 103 376
3 374 99 375
3 376 98 374
3 367 377 375
3 375 99 367
3 377 103 375
3 367 30 377
3 356 366 374
3 374 98 356
3 366 99 374
3 356 29 366
3 378 359 376
3 376 103 378
3 359 98 376
3 378 1 359
3 381 379 380
3 380 105 381
3 379 101 380
3 381 104 379
3 363 382 380
3 380 101 363
3 382 105 380
3 363 31 382
3 383 368 379
3 379 104 383
3 368 101 379
3 383 30 368
3 385 384 381
3 381 105 385
3 384 104 381
3 385 6 384
3 388 386 387
3 387 108 388
3 386 107 387
3 388 106 386
3 390 389 387
3 387 107 390
3 389 108 387
3 390 34 389
3 392 391 386
3 386 106 392
3 391 107 386
3 392 33 391
3 394 393 388
3 388 108 394
3 393 106 388
3 394 32 393
3 397 395 396
3 396 110 397
3 395 107 396
3 397 109 395
3 391 398 396
3 396 107 391
3 398 110 396
3 391 33 398
3 399 390 395
3 395 109 399
3 390 107 395
3 399 34 390
3 401 400 397
3 397 110 401
3 400 109 397
3 401 8 400
3 404 402 403
3 403 112 404
3 402 106 403
3 404 111 402
3 393 405 403
3 403 106 393
3 405 112 403
3 393 32 405
3 406 392 402
3 402 111 406
3 392 106 402
3 406 33 392
3 408 407 404
3 404 112 408
3 407 111 404
3 408 0 407
3 411 409 410
3 410 114 411
3 409 108 410
3 411 113 409
3 389 412 410
3 410 108 389
3 412 114 410
3 389 34 412
3 413 394 409
3 409 113 413
3 394 108 409
3 413 32 394
3 415 414 411
3 411 114 415
3 414 113 411
3 415 11 414
3 418 416 417
3 417 117 418
3 416 116 417
3 418 115 416
3 420 419 417
3 417 116 420
3 419 117 417
3 420 36 419
3 422 421 416
3 416 115 422
3 421 116 416
3 422 34 421
3 424 423 418
3 418 117 424
3 423 115 418
3 424 35 423
3 427 425 426
3 426 109 427
3 425 116 426
3 427 118 425
3 421 399 426
3 426 116 421
3 399 109 426
3 421 34 399
3 428 420 425
3 425 118 428
3 420 116 425
3 428 36 420
3 400 429 427
3 427 109 400
3 429 118 427
3 400 8 429
3 432 430 431
3 431 119 432
3 430 115 431
3 432 114 430
3 423 433 431
3 431 115 423
3 433 119 431
3 423 35 433
3 412 422 430
3 430 114 412
3 422 115 430
3 412 34 422
3 434 415 432
3 432 119 434
3 415 114 432
3 434 11 415
3 437 435 436
3 436 121 437
3 435 117 436
3 437 120 435
3 419 438 436
3 436 117 419
3 438 121 436
3 419 36 438
3 439 424 435
3 435 120 439
3 424 117 435
3 439 35 424
3 441 440 437
3 437 121 441
3 440 120 437
3 441 1 440
3 444 442 443
3 443 124 444
3 442 123 443
3 444 122 442
3 446 445 443
3 443 123 446
3 445 124 443
3 446 39 445
3 448 447 442
3 442 122 448
3 447 123 442
3 448 38 447
3 450 449 444
3 444 124 450
3 449 122 444
3 450 37 449
3 453 451 452
3 452 126 453
3 451 123 452
3 453 125 451
3 447 454 452
3 452 123 447
3 454 126 452
3 447 38 454
3 455 446 451
3 451 125 455
3 446 123 451
3 455 39 446
3 457 456 453
3 453 126 457
3 456 125 453
3 457 9 456
3 460 458 459
3 459 128 460
3 458 122 459
3 460 127 458
3 449 461 459
3 459 122 449
3 461 128 459
3 449 37 461
3 462 448 458
3 458 127 462
3 448 122 458
3 462 38 448
3 464 463 460
3 460 128 464
3 463 127 460
3 464 10 463
3 467 465 466
3 466 130 467
3 465 124 466
3 467 129 465
3 445 468 466
3 466 124 445
3 468 130 466
3 445 39 468
3 469 450 465
3 465 129 469
3 450 124 465
3 469 37 450
3 471 470 467
3 467 130 471
3 470 129 467
3 471 3 470
3 474 472 473
3 473 133 474
3 472 132 473
3 474 131 472
3 476 475 473
3 473 132 476
3 475 133 473
3 476 38 475
3 478 477 472
3 472 131 478
3 477 132 472
3 478 41 477
3 480 479 474
3 474 133 480
3 479 131 474
3 480 40 479
3 483 481 482
3 482 134 483
3 481 132 482
3 483 126 481
3 477 484 482
3 482 132 477
3 484 134 482
3 477 41 484
3 454 476 481
3 481 126 454
3 476 132 481
3 454 38 476
3 485 457 483
3 483 134 485
3 457 126 483
3 485 9 457
3 488 486 487
3 487 136 488
3 486 131 487
3 488 135 486
3 479 489 487
3 487 131 479
3 489 136 487
3 479 40 489
3 490 478 486
3 486 135 490
3 478 131 486
3 490 41 478
3 492 491 488
3 488 136 492
3 491 135 488
3 492 2 491
3 495 493 494
3 494 127 495
3 493 133 494
3 495 137 493
3 475 462 494
3 494 133 475
3 462 127 494
3 475 38 462
3 496 480 493
3 493 137 496
3 480 133 493
3 496 40 480
3 463 497 495
3 495 127 463
3 497 137 495
3 463 10 497
3 500 498 499
3 499 140 500
3 498 139 499
3 500 138 498
3 502 501 499
3 499 139 502
3 501 140 499
3 502 33 501
3 504 503 498
3 498 138 504
3 503 139 498
3 504 13 503
3 506 505 500
3 500 140 506
3 505 138 500
3 506 23 505
3 509 507 508
3 508 47 509
3 507 139 508
3 509 110 507
3 503 182 508
3 508 139 503
3 182 47 508
3 503 13 182
3 398 502 507
3 507 110 398
3 502 139 507
3 398 33 502
3 183 401 509
3 509 47 183
3 401 110 509
3 183 8 401
3 512 510 511
3 511 79 512
3 510 138 511
3 512 46 510
3 505 294 511
3 511 138 505
3 294 79 511
3 505 23 294
3 174 504 510
3 510 46 174
3 504 138 510
3 174 13 504
3 295 177 512
3 512 79 295
3 177 46 512
3 295 4 177
3 515 513 514
3 514 111 515
3 513 140 514
3 515 78 513
3 501 406 514
3 514 140 501
3 406 111 514
3 501 33 406
3 286 506 513
3 513 78 286
3 506 140 513
3 286 23 506
3 407 289 515
3 515 111 407
3 289 78 515
3 407 0 289
3 518 516 517
3 517 143 518
3 516 142 517
3 518 141 516
3 520 519 517
3 517 142 520
3 519 143 517
3 520 19 519
3 522 521 516
3 516 141 522
3 521 142 516
3 522 32 521
3 524 523 518
3 518 143 524
3 523 141 518
3 524 26 523
3 527 525 526
3 526 113 527
3 525 142 526
3 527 66 525
3 521 413 526
3 526 142 521
3 413 113 526
3 521 32 413
3 244 520 525
3 525 66 244
3 520 142 525
3 244 19 520
3 414 247 527
3 527 113 414
3 247 66 527
3 414 11 247
3 530 528 529
3 529 86 530
3 528 141 529
3 530 112 528
3 523 316 529
3 529 141 523
3 316 86 529
3 523 26 316
3 405 522 528
3 528 112 405
3 522 141 528
3 405 32 522
3 317 408 530
3 530 86 317
3 408 112 530
3 317 0 408
3 533 531 532
3 532 61 533
3 531 143 532
3 533 89 531
3 519 231 532
3 532 143 519
3 231 61 532
3 519 19 231
3 326 524 531
3 531 89 326
3 524 143 531
3 326 26 524
3 232 329 533
3 533 61 232
3 329 89 533
3 232 5 329
3 536 534 535
3 535 146 536
3 534 145 535
3 536 144 534
3 538 537 535
3 535 145 538
3 537 146 535
3 538 22 537
3 540 539 534
3 534 144 540
3 539 145 534
3 540 16 539
3 542 541 536
3 536 146 542
3 541 144 536
3 542 39 541
3 545 543 544
3 544 54 545
3 543 145 544
3 545 80 543
3 539 204 544
3 544 145 539
3 204 54 544
3 539 16 204
3 293 538 543
3 543 80 293
3 538 145 543
3 293 22 538
3 205 296 545
3 545 54 205
3 296 80 545
3 205 4 296
3 548 546 547
3 547 125 548
3 546 144 547
3 548 57 546
3 541 455 547
3 547 144 541
3 455 125 547
3 541 39 455
3 214 540 546
3 546 57 214
3 540 144 546
3 214 16 540
3 456 217 548
3 548 125 456
3 217 57 548
3 456 9 217
3 551 549 550
3 550 81 551
3 549 146 550
3 551 130 549
3 537 301 550
3 550 146 537
3 301 81 550
3 537 22 301
3 468 542 549
3 549 130 468
3 542 146 549
3 468 39 542
3 302 471 551
3 551 81 302
3 471 130 551
3 302 3 471
3 554 552 553
3 553 149 554
3 552 148 553
3 554 147 552
3 556 555 553
3 553 148 556
3 555 149 553
3 556 21 555
3 558 557 552
3 552 147 558
3 557 148 552
3 558 25 557
3 560 559 554
3 554 149 560
3 559 147 554
3 560 37 559
3 563 561 562
3 562 88 563
3 561 148 562
3 563 70 561
3 557 327 562
3 562 148 557
3 327 88 562
3 557 25 327
3 260 556 561
3 561 70 260
3 556 148 561
3 260 21 556
3 328 261 563
3 563 88 328
3 261 70 563
3 328 5 261
3 566 564 565
3 565 129 566
3 564 147 565
3 566 87 564
3 559 469 565
3 565 147 559
3 469 129 565
3 559 37 469
3 321 558 564
3 564 87 321
3 558 147 564
3 321 25 558
3 470 322 566
3 566 129 470
3 322 87 566
3 470 3 322
3 569 567 568
3 568 71 569
3 567 149 568
3 569 128 567
3 555 266 568
3 568 149 555
3 266 71 568
3 555 21 266
3 461 560 567
3 567 128 461
3 560 149 567
3 461 37 560
3 267 464 569
3 569 71 267
3 464 128 569
3 267 10 464
3 572 570 571
3 571 152 572
3 570 151 571
3 572 150 570
3 574 573 571
3 571 151 574
3 573 152 571
3 574 27 573
3 576 575 570
3 570 150 576
3 575 151 570
3 576 12 575
3 578 577 572
3 572 152 578
3 577 150 572
3 578 36 577
3 581 579 580
3 580 49 581
3 579 151 580
3 581 96 579
3 575 189 580
3 580 151 575
3 189 49 580
3 575 12 189
3 349 574 579
3 579 96 349
3 574 151 579
3 349 27 574
3 190 352 581
3 581 49 190
3 352 96 581
3 190 7 352
3 584 582 583
3 583 118 584
3 582 150 583
3 584 48 582
3 577 428 583
3 583 150 577
3 428 118 583
3 577 36 428
3 181 576 582
3 582 48 181
3 576 150 582
3 181 12 576
3 429 184 584
3 584 118 429
3 184 48 584
3 429 8 184
3 587 585 586
3 586 97 587
3 585 152 586
3 587 121 585
3 573 357 586
3 586 152 573
3 357 97 586
3 573 27 357
3 438 578 585
3 585 121 438
3 578 152 585
3 438 36 578
3 358 441 587
3 587 97 358
3 441 121 587
3 358 1 441
3 590 588 589
3 589 155 590
3 588 154 589
3 590 153 588
3 592 591 589
3 589 154 592
3 591 155 589
3 592 17 591
3 594 593 588
3 588 153 594
3 593 154 588
3 594 30 593
3 596 595 590
3 590 155 596
3 595 153 590
3 596 35 595
3 599 597 598
3 598 104 599
3 597 154 598
3 599 64 597
3 593 383 598
3 598 154 593
3 383 104 598
3 593 30 383
3 237 592 597
3 597 64 237
3 592 154 597
3 237 17 592
3 384 240 599
3 599 104 384
3 240 64 599
3 384 6 240
3 602 600 601
3 601 120 602
3 600 153 601
3 602 103 600
3 595 439 601
3 601 153 595
3 439 120 601
3 595 35 439
3 377 594 600
3 600 103 377
3 594 153 600
3 377 30 594
3 440 378 602
3 602 120 440
3 378 103 602
3 440 1 378
3 605 603 604
3 604 65 605
3 603 155 604
3 605 119 603
3 591 245 604
3 604 155 591
3 245 65 604
3 591 17 245
3 433 596 603
3 603 119 433
3 596 155 603
3 433 35 596
3 246 434 605
3 605 65 246
3 434 119 605
3 246 11 434
3 608 606 607
3 607 158 608
3 606 157 607
3 608 156 606
3 610 609 607
3 607 157 610
3 609 158 607
3 610 15 609
3 612 611 606
3 606 156 612
3 611 157 606
3 612 28 611
3 614 613 608
3 608 158 614
3 613 156 608
3 614 41 613
3 617 615 616
3 616 95 617
3 615 157 616
3 617 55 615
3 611 350 616
3 616 157 611
3 350 95 616
3 611 28 350
3 209 610 615
3 615 55 209
3 610 157 615
3 209 15 610
3 351 210 617
3 617 95 351
3 210 55 617
3 351 7 210
3 620 618 619
3 619 135 620
3 618 156 619
3 620 94 618
3 613 490 619
3 619 156 613
3 490 135 619
3 613 41 490
3 342 612 618
3 618 94 342
3 612 156 618
3 342 28 612
3 491 345 620
3 620 135 491
3 345 94 620
3 491 2 345
3 623 621 622
3 622 56 623
3 621 158 622
3 623 134 621
3 609 215 622
3 622 158 609
3 215 56 622
3 609 15 215
3 484 614 621
3 621 134 484
3 614 158 621
3 484 41 614
3 216 485 623
3 623 56 216
3 485 134 623
3 216 9 485
3 626 624 625
3 625 161 626
3 624 160 625
3 626 159 624
3 628 627 625
3 625 160 628
3 627 161 625
3 628 31 627
3 630 629 624
3 624 159 630
3 629 160 624
3 630 20 629
3 632 631 626
3 626 161 632
3 631 159 626
3 632 40 631
3 635 633 634
3 634 73 635
3 633 160 634
3 635 105 633
3 629 272 634
3 634 160 629
3 272 73 634
3 629 20 272
3 382 628 633
3 633 105 382
3 628 160 633
3 382 31 628
3 273 385 635
3 635 73 273
3 385 105 635
3 273 6 385
3 638 636 637
3 637 137 638
3 636 159 637
3 638 72 636
3 631 496 637
3 637 159 631
3 496 137 637
3 631 40 496
3 265 630 636
3 636 72 265
3 630 159 636
3 265 20 630
3 497 268 638
3 638 137 497
3 268 72 638
3 497 10 268
3 641 639 640
3 640 102 641
3 639 161 640
3 641 136 639
3 627 372 640
3 640 161 627
3 372 102 640
3 627 31 372
3 489 632 639
3 639 136 489
3 632 161 639
3 489 40 632
3 373 492 641
3 641 102 373
3 492 136 641
3 373 2 492
