# vtk DataFile Version 3.0
this file was written using fslvtkio
ASCII
DATASET POLYDATA
POINTS 664 float
110.636 98.5188 140.039
110.914 99.1867 141.543
112.29 99.5291 140.744
112.131 99.4625 138.85
110.589 98.8572 138.181
111.741 99.6917 137.658
109.4 99.0178 141.91
109.804 100.232 143.757
110.838 99.5965 142.856
108.649 98.8096 140.166
108.888 98.4457 138.596
110.55 99.5936 137.028
109.027 98.8664 137.136
109.823 99.6827 136.25
108.818 99.7185 136.069
109.574 100.501 135.525
108.026 100.069 142.684
108.402 101.386 144.056
107.345 99.2523 140.989
106.929 98.799 139.15
107.163 98.5947 137.491
107.583 99.4515 136.082
108.438 100.646 135.335
106.989 101.171 142.676
107.066 102.492 143.372
106.271 100.349 141.285
105.397 99.6456 139.597
105.318 99.1939 137.717
105.868 99.3402 136.034
106.852 100.407 135.001
105.958 101.931 141.668
104.964 101.397 139.971
104.253 100.804 138.189
104.382 100.627 136.289
105.382 100.661 135.167
111.96 99.722 142.367
112.096 100.512 143.999
113.087 100.224 142.583
113.779 100.347 141.395
113.689 100.289 139.38
112.76 100.761 137.445
111.64 100.306 136.782
112.162 101.198 136.291
110.056 101.454 145.119
110.763 100.723 135.885
109.832 101.703 134.817
108.398 103.054 144.75
108.052 101.827 134.417
107.303 103.871 143.448
106.148 101.597 134.313
106.487 103.42 142.031
105.757 102.989 140.208
104.727 102.743 138.549
104.321 102.564 136.738
104.769 102.354 135.051
116.605 101.621 142.084
117.062 102.486 143.494
117.603 102.64 142.231
117.769 102.653 141.06
116.687 101.358 140.33
117.358 102.547 139.637
114.59 101.248 143.149
115.434 102.249 144.6
115.234 100.878 141.098
116.618 101.675 139.06
115.436 101.006 139.289
115.934 101.657 138.104
113.606 101.769 144.888
113.206 103.398 146.475
114.868 103.13 145.809
114.3 101.327 137.63
113.309 102.326 135.577
111.38 101.975 135.466
111.133 103.034 134.422
111.634 101.991 145.771
111.287 103.788 146.741
109.516 102.814 133.667
109.953 103.161 145.924
110.194 105.119 146.406
108.213 103.125 133.66
107.058 102.774 133.842
107.685 103.783 133.074
109.084 104.461 145.169
108.371 104.826 143.71
105.544 102.911 133.726
106.627 103.96 133.139
107.269 104.68 142.203
106.775 104.458 140.535
105.773 104.4 138.886
104.943 104.264 137.287
104.757 104.367 135.497
105.009 104.329 133.637
118.625 103.855 142.192
119.192 104.713 143.576
119.733 105.35 142.708
119.621 105.211 141.062
118.382 103.845 139.863
119.569 105.196 138.995
118.392 104.278 137.734
119.524 105.949 137.108
118.208 103.838 144.403
118.754 105.373 145.647
119.096 105.152 144.592
117.135 102.896 138.208
118.145 104.977 136.073
116.842 103.564 136.466
116.977 104.626 135.373
115.829 103.877 135.15
115.929 104.759 134.533
117.373 104.725 146.482
116.898 106.138 147.846
118.242 106.189 147.081
116.615 103.172 145.527
115.377 102.329 136.84
115.039 103.133 135.594
114.147 104.196 134.47
115.449 104.627 146.91
115.152 106.636 147.928
112.149 104.054 133.752
110.285 103.852 132.774
110.805 104.842 132.607
110.053 104.904 131.641
110.402 105.588 131.626
113.714 105.301 147.22
111.933 105.634 146.964
108.711 103.81 132.545
108.876 104.552 131.255
109.384 105.593 130.317
110.542 106.892 145.987
107.516 104.692 131.778
107.801 105.828 130.216
109.557 105.847 144.697
109.453 106.062 143.103
106.288 104.941 132.25
106.541 105.943 130.714
108.41 105.664 142.146
107.59 105.483 140.912
107.352 105.66 139.237
106 105.641 137.728
105.281 106.007 136.018
105.11 106.176 134.139
105.355 106.168 132.301
121.392 107.059 144.009
121.612 107.778 145.525
122.4 108.145 144.625
122.276 107.677 142.994
120.917 106.357 142.28
122.105 107.366 141.176
120.812 106.293 140.276
121.758 107.489 139.243
120.639 106.445 138.411
121.149 107.69 137.38
120.123 106.14 144.567
120.595 107.347 146.265
119.948 107.723 136.087
119.585 106.521 146.596
118.518 107.723 148.16
120.192 107.671 147.616
118.721 106.583 135.623
117.301 105.873 134.707
115.663 105.471 133.784
116.631 108.103 148.476
114.125 105.628 133.454
114.725 108.538 147.818
112.818 105.307 133.084
111.471 105.54 132.247
110.263 106.469 130.821
113.301 107.104 147.345
111.773 107.905 146.421
108.819 106.995 129.391
110.972 108.433 144.76
107.106 107.411 129.478
109.976 107.35 144.059
109.914 107.104 142.634
107.89 106.67 138.663
108.73 107.493 138.826
108.475 106.613 139.629
108.134 107.623 138.067
106.056 107.611 130.962
109.396 106.389 141.866
108.778 106.277 140.65
107.062 106.762 137.902
106.139 107.388 136.498
105.71 107.762 134.728
105.66 107.674 132.849
124.892 109.418 143.231
125.919 110.211 144.283
126.075 110.128 143.111
125.915 110.189 142.013
124.366 109.547 141.447
125.495 110.461 140.531
123.98 109.574 139.722
124.907 110.774 139.191
123.72 109.782 138.342
124.427 110.681 137.786
124.675 109.487 145.338
124.752 110.064 147.148
125.786 110.487 145.908
123.52 108.731 144.134
123.321 108.706 142.285
122.953 108.607 140.419
122.681 108.645 138.449
122.833 109.196 136.894
123.139 108.991 146.156
122.895 109.585 148.249
121.07 108.91 136.127
121.478 108.412 147.223
120.038 109.147 148.379
119.969 108.999 135.547
117.689 109.947 148.974
119.076 108.279 135.088
117.788 107.647 134.567
116.624 106.719 133.616
114.555 106.746 133.273
115.307 107.726 133.319
116.03 109.863 148.153
113.22 106.577 132.722
113.221 108.035 132.627
114.724 110.253 147.199
111.68 107.023 131.815
110.129 107.901 130.154
113.173 109.062 146.809
112.191 109.618 145.336
108.345 108.857 129.154
111.619 109.589 143.459
110.613 108.408 142.743
110.467 108.726 140.916
111.562 109.582 141.823
110.248 109.108 139.452
111.277 109.844 140.278
109.23 108.775 138.144
111.065 110.232 138.879
108.437 109.1 136.37
109.979 110.094 137.215
107.796 109.534 134.743
109.323 110.156 135.408
108.859 110.442 134.096
107.257 109.055 130.295
109.702 107.488 141.435
109.393 107.767 139.824
107.652 107.926 137.066
106.868 108.548 135.455
107.749 110.026 133.379
106.607 108.924 133.497
106.538 108.721 131.839
107.414 109.943 131.917
127.088 111.038 143.02
128.155 111.213 144.505
128.764 111.597 143.383
128.477 111.488 141.761
127.08 110.923 141.08
128.034 111.747 139.896
126.699 111.246 139.319
127.553 112.164 137.749
125.841 111.334 138.27
125.749 111.724 137.028
127.047 110.888 145.146
126.738 111.506 147.151
128.172 111.626 145.997
124.222 110.877 136.68
124.981 111.354 148.262
123.097 110.442 136.083
121.882 110.083 135.836
122.486 111.346 135.999
123.323 111.126 148.604
122.496 112.153 148.724
123.891 112.327 148.278
120.378 110.199 135.479
121.052 111.216 136.209
121.518 110.551 148.707
120.897 112.164 148.757
119.305 109.681 135.213
118.796 111.085 135.666
119.532 111.039 148.665
119.56 112.61 148.074
117.854 109.672 134.578
116.694 108.526 133.747
115.043 108.783 133.289
117.776 112.003 148.087
116.152 111.7 147.385
113.771 109.352 132.837
114.943 111.427 146.226
111.278 108.707 131.403
112.261 109.467 132.392
113.485 110.514 146.047
113.314 110.806 144.705
111.459 110.926 137.612
112.542 111.63 137.888
112.435 111.617 138.879
110.99 110.655 135.855
112.441 111.397 136.63
110.414 110.666 133.972
112.138 110.826 134.966
110.442 110.276 132.021
111.952 110.326 133.458
109.779 109.44 130.4
112.632 110.465 143.831
112.679 110.627 142.303
112.41 110.984 140.431
109.037 110.556 132.577
108.623 110.102 130.721
131.366 113.314 141.801
131.893 113.489 143.26
132.782 114.498 142.359
132.371 113.958 140.342
130.706 113.179 139.971
131.497 113.875 139.06
129.979 113.449 138.612
130.933 114.204 137.745
130.644 112.985 143.752
130.423 113.109 145.772
131.621 113.405 144.589
129.817 112.436 142.638
129.655 112.375 140.908
129.057 112.524 139.135
129.63 113.638 137.249
128.745 113.164 137.756
128.286 113.744 136.288
129.305 112.183 145.01
128.572 112.928 147.011
126.935 112.479 136.14
125.168 111.913 135.946
125.663 112.814 135.298
126.543 113.541 147.703
123.834 111.395 135.949
123.88 112.451 135.554
125.003 113.036 147.966
123.728 113.678 148.524
125.105 114.667 147.993
122.272 112.252 136.611
122.088 113.658 148.581
120.421 112.266 136.81
120.725 113.747 148.052
118.59 112.318 136.869
119.769 113.828 147.353
116.506 111.204 134.594
117.037 112.379 135.989
116.258 109.727 133.925
118.466 113.322 147.217
115.765 112.712 145.382
117.258 113.297 146.289
116.782 113.723 144.963
115.004 112.312 135.71
116.219 113.167 136.547
115.374 113.323 137.394
114.595 111.25 134.2
114.946 110.178 133.621
114.314 111.715 144.943
116.284 113.443 143.99
114.914 112.339 143.539
115.859 113.078 142.879
113.885 112.385 137.827
115.116 113.331 138.38
114.893 112.861 139.386
113.425 111.71 135.74
113.482 111.326 134.454
113.412 110.312 133.393
113.653 111.438 143.38
114.97 112.633 142.094
113.67 112.064 141.579
113.673 112.122 139.838
114.965 112.57 140.876
132.353 114.095 144.027
131.775 114.288 145.582
133.122 115.074 144.267
134.469 115.393 142.806
133.658 114.894 140.819
132.765 114.848 138.494
131.394 114.799 136.834
129.98 114.426 146.463
129.91 114.396 136.283
128.912 114.881 134.62
128.283 115.02 147.375
127.16 113.589 135.007
125.054 113.668 134.814
126.438 116.078 147.384
123.581 113.453 136.223
123.355 115.054 147.792
124.594 115.942 147.079
122.099 112.927 137.137
122.005 114.833 147.184
120.967 112.901 137.685
122.098 113.537 137.751
120.968 113.783 138.346
120.788 114.636 146.866
119.555 113.296 137.638
119.409 114 138.605
120.003 114.34 146.52
119.269 113.999 146.616
119.555 114.475 145.934
117.476 113.384 137.627
118.03 114.131 138.968
118.569 113.993 145.921
117.035 114.279 144.288
117.968 114.445 144.764
117.57 114.548 143.539
116.464 113.921 138.961
117.973 114.649 139.638
117.019 114.721 140.168
115.893 113.681 141.638
116.802 114.181 142.585
115.879 113.832 140.458
116.976 114.827 141.299
135.219 115.855 141.026
135.452 116.957 142.947
136.108 117.182 140.89
135.678 116.308 138.989
134.293 115.362 139.223
134.504 116.251 137.457
133.695 115.533 138.002
133.267 115.964 136.804
131.836 116.068 145.58
133.701 116.726 144.087
132.068 115.479 136.293
130.612 115.236 135.513
130.99 116.035 134.238
129.911 116.193 146.449
129.177 116.184 133.639
128.435 116.974 146.72
126.685 114.626 134.706
127.333 115.867 135.147
127.004 117.633 145.82
125.12 114.852 135.975
126.117 115.625 136.877
123.253 116.119 146.227
125.221 116.917 145.836
124.233 114.961 137.655
125.366 115.685 137.988
124.409 115.301 138.82
123.306 113.91 137.195
121.66 115.562 145.811
123.93 116.574 144.804
122.47 115.994 144.29
122.522 116.286 142.526
123.934 116.503 143.367
122.774 115.695 140.887
124.191 116.346 141.698
122.862 115.272 139.096
124.359 115.725 140.152
122.352 114.396 138.044
120.401 114.915 145.747
120.606 115.575 144.524
120.698 116.209 143.024
121.06 116.049 141.438
121.274 115.212 140.118
121.17 114.579 139.112
119.337 114.989 145.038
119.045 115.434 143.614
119.475 115.795 142.072
119.855 115.457 140.684
119.528 114.6 139.536
118.147 115.071 142.308
118.532 115.141 140.887
136.011 118.428 142.422
136.583 118.401 140.354
136.466 117.457 138.753
135.55 117.259 136.862
134.195 117.173 135.351
132.545 116.423 135.275
132.856 117.133 133.891
132.557 117.703 144.815
134.168 118.766 143.807
130.913 117.029 133.337
130.398 117.712 145.22
132.139 118.773 144.056
129.061 117.571 134.813
128.823 118.294 144.95
127.461 116.695 136.501
127.57 118.357 144.36
126.569 117.399 144.176
127.533 118.097 143.207
126.6 116.649 139.136
127.643 117.433 139.118
127.117 116.987 140.238
126.393 116.481 137.785
127.665 117.206 137.821
125.079 116.79 144.083
126.983 117.378 142.727
125.743 116.652 142.588
125.82 116.433 140.826
127.172 116.984 141.56
125.509 115.964 139.221
137.248 118.726 138.846
136.825 119.505 140.765
137.391 120.212 139.073
137.687 119.4 137.362
136.826 118.247 136.924
137.369 119.275 135.502
135.918 118.176 135.045
136.419 119.478 133.767
134.381 118.471 133.613
135.456 119.742 132.385
134.355 118.71 132.025
135.164 119.764 131.08
135.648 119.921 142.494
132.867 117.931 132.702
133.542 119.227 130.947
134.012 120.257 142.67
130.98 118.74 133.582
132.278 119.328 132.532
130.514 118.829 143.418
132.528 119.659 142.486
129.968 118.773 137.452
131.513 119.691 137.395
130.694 119.157 138.754
129.6 118.387 136.058
130.928 119.203 135.477
131.961 119.709 133.655
128.791 118.549 143.241
131.093 119.15 141.599
129.608 118.684 141.607
129.614 118.59 139.582
130.754 119.233 140.256
128.606 118.007 138.498
128.652 117.819 136.739
128.189 117.958 142.089
128.405 117.744 140.385
137.742 120.088 134.333
137.699 120.664 135.597
138.467 121.297 134.664
138.434 120.971 133.536
137.424 120.315 133.316
137.962 121.024 132.643
136.67 120.979 140.99
137.38 121.671 139.074
137.792 120.85 137.203
136.829 120.4 132.429
136.542 120.99 130.97
135.009 120.269 130.063
136.2 121.186 130.015
135.07 121.334 141.517
133.571 120.932 130.586
134.826 121.358 129.776
133.873 120.733 141.168
134.477 121.841 131.351
133.031 120.499 132.352
132.807 120.448 140.703
131.975 119.593 140.592
131.504 119.653 139.161
132.411 120.599 138.957
132.683 120.753 137.172
132.589 120.415 135.915
132.477 120.391 134.453
138.033 121.831 135.88
138.82 122.472 134.668
139.286 121.919 133.473
139.118 121.578 132.236
137.656 121.164 131.765
138.406 121.864 131.415
137.602 121.647 131.129
138.268 122.218 130.613
135.969 122.226 140.115
136.92 122.784 138.893
137.832 122.427 137.525
137.306 122.194 129.983
136.252 122.169 129.546
137.056 122.866 129.481
136.578 123.258 129.533
136.997 123.654 129.51
134.6 121.843 139.657
135.686 122.861 138.657
135.222 122.53 130.325
135.995 123.165 130.116
136.568 123.995 129.882
133.507 121.211 139.613
134.962 122.212 137.817
133.745 121.463 137.97
133.646 121.261 136.035
134.704 121.784 136.521
133.814 121.104 134.547
134.947 121.903 134.755
133.659 121.214 133.003
134.8 121.858 133.041
135.337 122.743 132.048
135.441 123.392 131.009
135.907 124.022 130.267
138.141 123.135 135.51
138.827 123.33 134.399
139.609 123.094 133.51
140.01 122.603 132.213
139.524 122.432 131.197
139.742 123.163 130.458
137.118 123.668 138.095
137.769 123.607 136.75
138.969 123.299 129.687
137.847 123.464 129.193
137.028 124.25 129.556
136.215 123.943 137.764
136.547 124.604 130.184
135.649 123.291 137.231
135.47 122.687 136.096
135.778 122.819 134.795
136.024 123.707 135.106
135.838 122.755 133.802
135.714 123.137 132.869
135.841 123.807 132.045
135.939 124.408 131.479
136.132 124.894 130.798
136.05 123.672 134.082
136.057 123.858 133.189
136.011 124.277 132.376
136.014 124.649 131.834
138.596 123.685 134.479
139.198 123.965 133.626
140.172 123.848 132.377
140.463 123.534 131.086
137.003 124.424 136.886
137.706 124.342 135.607
138.197 124.296 134.096
139.089 124.642 132.51
140.234 124.731 131.317
140.509 124.379 130.154
139.995 124.699 129.231
138.922 124.469 128.685
137.87 124.546 128.856
137.017 124.936 129.685
137.603 125.268 128.829
136.132 124.403 136.886
136.674 124.759 135.832
136.947 125.2 130.326
137.226 125.541 129.567
135.824 124.15 136.116
135.821 124.797 135.112
136.604 125.944 130.692
136.083 125.323 131.352
137.066 125.635 130.267
136.099 124.53 134.324
136.137 124.723 133.433
136.029 125.062 132.632
136.148 125.271 131.9
137.405 125.045 134.79
138.005 125.115 133.552
138.47 125.345 132.574
139.238 125.401 131.737
140.042 125.583 130.757
140.137 125.708 129.823
139.613 125.64 128.931
138.64 125.315 128.436
138.234 126.231 128.404
136.422 125.256 135.203
137.126 125.576 134.097
137.598 125.686 133.022
137.484 126.202 129.376
136.169 125.635 134.397
136.793 126.006 133.486
137.15 126.691 130.606
136.466 126.169 131.292
137.421 126.522 129.925
136.229 125.535 133.607
136.178 125.837 132.736
136.32 126.191 131.994
138.301 125.933 132
138.865 126.192 131.262
139.205 126.237 130.445
139.285 126.432 129.543
138.948 126.23 128.74
137.303 126.173 132.568
137.845 126.754 131.699
138.321 126.735 130.916
138.151 126.966 130.204
138.338 126.711 129.279
136.615 126.229 132.996
136.827 126.706 132.256
137.304 126.847 131.244
POLYGONS 1324  5296
3 0 1 2
3 0 3 4
3 2 3 0
3 3 5 4
3 6 7 8
3 1 6 8
3 1 0 6
3 0 9 6
3 4 10 0
3 10 9 0
3 11 4 5
3 11 12 4
3 12 10 4
3 12 13 14
3 11 13 12
3 13 15 14
3 16 7 6
3 17 7 16
3 9 18 6
3 18 16 6
3 10 19 9
3 19 18 9
3 12 20 10
3 20 19 10
3 14 21 12
3 21 20 12
3 22 14 15
3 21 14 22
3 23 17 16
3 24 17 23
3 18 25 16
3 25 23 16
3 19 26 18
3 26 25 18
3 20 27 19
3 27 26 19
3 21 28 20
3 28 27 20
3 29 21 22
3 28 21 29
3 23 30 24
3 25 30 23
3 31 30 25
3 26 31 25
3 32 31 26
3 27 32 26
3 33 32 27
3 28 33 27
3 34 33 28
3 29 34 28
3 35 36 37
3 35 2 1
3 35 37 2
3 37 38 2
3 3 2 39
3 2 38 39
3 5 40 41
3 5 3 40
3 3 39 40
3 40 42 41
3 8 36 35
3 8 7 36
3 7 43 36
3 1 8 35
3 5 41 11
3 41 42 44
3 41 44 11
3 11 44 13
3 44 15 13
3 45 15 44
3 7 17 43
3 43 17 46
3 15 45 22
3 45 47 22
3 17 24 46
3 46 24 48
3 22 47 29
3 47 49 29
3 24 50 48
3 30 50 24
3 31 51 30
3 30 51 50
3 32 52 31
3 31 52 51
3 33 53 32
3 32 53 52
3 34 54 33
3 33 54 53
3 49 34 29
3 54 34 49
3 55 56 57
3 55 58 59
3 57 58 55
3 58 60 59
3 61 56 55
3 62 56 61
3 59 63 55
3 63 61 55
3 64 59 60
3 64 65 59
3 65 63 59
3 64 66 65
3 67 68 69
3 62 67 69
3 61 67 62
3 61 36 67
3 61 37 36
3 38 37 61
3 63 38 61
3 39 38 63
3 65 39 63
3 65 66 70
3 65 70 39
3 39 70 40
3 42 71 72
3 42 40 71
3 40 70 71
3 71 73 72
3 74 68 67
3 75 68 74
3 36 43 74
3 67 36 74
3 42 72 44
3 72 45 44
3 72 73 45
3 73 76 45
3 77 75 74
3 78 75 77
3 43 46 77
3 74 43 77
3 79 80 47
3 79 47 76
3 76 47 45
3 79 81 80
3 77 82 78
3 82 77 46
3 82 46 83
3 83 46 48
3 80 84 49
3 47 80 49
3 85 80 81
3 84 80 85
3 48 86 83
3 50 86 48
3 51 87 50
3 50 87 86
3 52 88 51
3 51 88 87
3 53 89 52
3 52 89 88
3 54 90 53
3 53 90 89
3 84 54 49
3 84 91 54
3 91 90 54
3 85 91 84
3 92 93 94
3 92 95 96
3 94 95 92
3 96 97 98
3 95 97 96
3 97 99 98
3 100 101 102
3 93 100 102
3 92 100 93
3 92 56 100
3 92 57 56
3 58 57 92
3 96 58 92
3 60 58 96
3 60 96 103
3 103 96 98
3 104 98 99
3 104 105 98
3 105 103 98
3 105 106 107
3 104 106 105
3 106 108 107
3 109 110 111
3 101 109 111
3 101 100 109
3 100 112 109
3 56 62 112
3 100 56 112
3 60 103 64
3 66 64 103
3 66 103 113
3 113 103 105
3 107 114 105
3 114 113 105
3 115 107 108
3 114 107 115
3 116 110 109
3 117 110 116
3 69 68 116
3 69 116 112
3 112 116 109
3 62 69 112
3 66 113 70
3 71 70 113
3 114 71 113
3 73 118 119
3 71 118 73
3 71 115 118
3 71 114 115
3 119 120 121
3 118 120 119
3 120 122 121
3 116 123 117
3 123 116 68
3 123 68 124
3 124 68 75
3 119 125 76
3 73 119 76
3 121 126 119
3 126 125 119
3 127 121 122
3 126 121 127
3 75 78 124
3 124 78 128
3 76 125 79
3 81 79 125
3 81 125 129
3 129 125 126
3 130 126 127
3 129 126 130
3 78 131 128
3 82 131 78
3 131 82 83
3 132 131 83
3 129 133 85
3 81 129 85
3 134 129 130
3 133 129 134
3 83 135 132
3 86 135 83
3 87 136 86
3 86 136 135
3 88 137 87
3 87 137 136
3 89 138 88
3 88 138 137
3 90 139 89
3 89 139 138
3 91 140 90
3 90 140 139
3 133 91 85
3 133 141 91
3 141 140 91
3 134 141 133
3 142 143 144
3 142 145 146
3 144 145 142
3 146 147 148
3 145 147 146
3 148 149 150
3 147 149 148
3 149 151 150
3 152 143 142
3 153 143 152
3 94 93 152
3 94 152 146
3 146 152 142
3 95 94 146
3 148 95 146
3 97 95 148
3 150 97 148
3 150 99 97
3 150 151 99
3 151 154 99
3 155 156 157
3 153 155 157
3 152 155 153
3 152 101 155
3 152 102 101
3 93 102 152
3 99 154 158
3 104 99 158
3 106 104 159
3 104 158 159
3 159 108 106
3 160 108 159
3 111 156 155
3 111 110 156
3 110 161 156
3 101 111 155
3 108 160 115
3 160 162 115
3 110 117 161
3 161 117 163
3 115 162 164
3 118 115 164
3 120 118 165
3 118 164 165
3 165 122 120
3 166 122 165
3 117 167 163
3 123 167 117
3 167 123 124
3 168 167 124
3 122 166 127
3 166 169 127
3 124 128 168
3 168 128 170
3 127 169 130
3 169 171 130
3 128 172 170
3 131 172 128
3 172 131 132
3 173 172 132
3 174 175 176
3 175 174 177
3 130 171 134
3 171 178 134
3 132 179 173
3 135 179 132
3 136 180 135
3 135 180 179
3 176 137 174
3 176 180 137
3 180 136 137
3 174 181 177
3 174 137 181
3 137 138 181
3 139 182 138
3 138 182 181
3 140 183 139
3 139 183 182
3 141 184 140
3 140 184 183
3 178 141 134
3 184 141 178
3 185 186 187
3 185 188 189
3 187 188 185
3 189 190 191
3 188 190 189
3 191 192 193
3 190 192 191
3 192 194 193
3 195 196 197
3 186 195 197
3 186 185 195
3 185 198 195
3 189 199 185
3 199 198 185
3 191 200 189
3 200 199 189
3 193 201 191
3 201 200 191
3 202 193 194
3 201 193 202
3 203 196 195
3 204 196 203
3 144 143 203
3 144 203 198
3 198 203 195
3 145 144 198
3 199 145 198
3 147 145 199
3 200 147 199
3 149 147 200
3 201 149 200
3 201 151 149
3 201 202 151
3 202 205 151
3 206 204 203
3 207 204 206
3 143 153 206
3 203 143 206
3 151 205 154
3 205 208 154
3 157 207 206
3 157 156 207
3 156 209 207
3 153 157 206
3 154 208 210
3 158 154 210
3 159 158 211
3 158 210 211
3 160 212 213
3 160 159 212
3 159 211 212
3 212 214 213
3 156 161 209
3 209 161 215
3 213 216 162
3 160 213 162
3 217 213 214
3 216 213 217
3 161 163 215
3 215 163 218
3 162 216 164
3 216 217 219
3 216 219 164
3 164 219 165
3 219 166 165
3 220 166 219
3 163 221 218
3 167 221 163
3 221 167 168
3 222 221 168
3 166 220 169
3 220 223 169
3 224 170 225
3 224 222 170
3 222 168 170
3 225 226 227
3 224 225 227
3 226 228 229
3 227 226 229
3 228 230 231
3 229 228 231
3 230 232 233
3 231 230 233
3 232 234 235
3 233 232 235
3 235 234 236
3 169 223 171
3 223 237 171
3 170 172 225
3 173 225 172
3 173 238 225
3 238 226 225
3 228 226 239
3 239 226 238
3 175 239 176
3 175 230 239
3 230 228 239
3 177 230 175
3 177 240 230
3 240 232 230
3 234 232 241
3 241 232 240
3 242 236 234
3 242 234 243
3 243 234 241
3 243 244 245
3 242 243 245
3 244 237 245
3 244 178 237
3 178 171 237
3 173 179 238
3 180 238 179
3 239 238 180
3 176 239 180
3 177 181 240
3 182 240 181
3 241 240 182
3 183 241 182
3 243 241 183
3 184 243 183
3 244 243 184
3 178 244 184
3 246 247 248
3 246 249 250
3 248 249 246
3 250 251 252
3 249 251 250
3 252 253 254
3 251 253 252
3 253 255 254
3 256 257 258
3 247 256 258
3 246 256 247
3 246 186 256
3 246 187 186
3 188 187 246
3 250 188 246
3 190 188 250
3 252 190 250
3 192 190 252
3 254 192 252
3 254 194 192
3 254 255 194
3 255 259 194
3 197 257 256
3 197 196 257
3 196 260 257
3 186 197 256
3 261 262 202
3 261 202 259
3 259 202 194
3 261 263 262
3 264 265 266
3 264 266 260
3 264 260 204
3 204 260 196
3 262 267 205
3 202 262 205
3 268 262 263
3 267 262 268
3 269 265 264
3 270 265 269
3 204 207 269
3 264 204 269
3 267 271 208
3 205 267 208
3 272 267 268
3 271 267 272
3 273 270 269
3 274 270 273
3 207 209 273
3 269 207 273
3 208 271 210
3 271 272 275
3 271 275 210
3 210 275 211
3 212 211 276
3 211 275 276
3 276 214 212
3 277 214 276
3 273 278 274
3 278 273 209
3 278 209 279
3 279 209 215
3 214 277 217
3 277 280 217
3 215 218 279
3 279 218 281
3 282 219 217
3 282 217 283
3 283 217 280
3 219 282 220
3 218 284 281
3 221 284 218
3 284 221 222
3 285 284 222
3 286 287 288
3 286 289 290
3 287 286 290
3 289 291 292
3 290 289 292
3 291 293 294
3 292 291 294
3 283 294 293
3 283 293 282
3 282 293 295
3 220 295 223
3 282 295 220
3 222 296 285
3 224 296 222
3 227 297 224
3 224 297 296
3 229 298 227
3 227 298 297
3 288 231 286
3 288 298 231
3 298 229 231
3 233 286 231
3 289 286 233
3 235 289 233
3 291 289 235
3 236 291 235
3 236 299 291
3 299 293 291
3 295 293 300
3 300 293 299
3 223 300 237
3 295 300 223
3 236 242 299
3 245 299 242
3 300 299 245
3 237 300 245
3 301 302 303
3 301 304 305
3 303 304 301
3 305 306 307
3 304 306 305
3 306 308 307
3 309 310 311
3 302 309 311
3 302 301 309
3 301 312 309
3 305 313 301
3 313 312 301
3 307 314 305
3 314 313 305
3 315 307 308
3 315 316 307
3 316 314 307
3 315 317 316
3 318 310 309
3 319 310 318
3 248 247 318
3 248 318 312
3 312 318 309
3 249 248 312
3 313 249 312
3 251 249 313
3 314 251 313
3 253 251 314
3 316 253 314
3 255 320 321
3 253 320 255
3 253 317 320
3 253 316 317
3 320 322 321
3 258 319 318
3 258 257 319
3 257 323 319
3 247 258 318
3 321 324 259
3 255 321 259
3 325 321 322
3 324 321 325
3 326 327 328
3 326 328 323
3 326 323 260
3 260 323 257
3 259 324 261
3 324 263 261
3 324 325 263
3 325 329 263
3 266 327 326
3 266 265 327
3 265 330 327
3 260 266 326
3 263 329 268
3 329 331 268
3 265 270 330
3 330 270 332
3 268 331 272
3 331 333 272
3 270 274 332
3 332 274 334
3 335 275 272
3 335 272 336
3 336 272 333
3 275 337 276
3 335 337 275
3 276 337 277
3 274 338 334
3 278 338 274
3 279 339 340
3 279 340 278
3 278 340 338
3 340 339 341
3 342 343 344
3 336 343 342
3 336 342 335
3 335 342 345
3 337 335 346
3 346 335 345
3 277 346 280
3 337 346 277
3 339 281 347
3 279 281 339
3 348 341 339
3 348 339 349
3 349 339 347
3 348 349 350
3 351 352 353
3 344 352 351
3 344 351 342
3 342 351 354
3 345 342 355
3 355 342 354
3 346 345 356
3 356 345 355
3 280 356 283
3 346 356 280
3 281 284 347
3 285 347 284
3 285 357 347
3 357 349 347
3 358 350 349
3 358 349 359
3 359 349 357
3 359 360 361
3 358 359 361
3 353 361 360
3 351 353 360
3 351 360 288
3 351 288 287
3 290 351 287
3 354 351 290
3 292 354 290
3 355 354 292
3 294 355 292
3 356 355 294
3 283 356 294
3 285 296 357
3 297 357 296
3 359 357 297
3 298 359 297
3 360 359 298
3 288 360 298
3 362 363 364
3 362 303 302
3 362 364 303
3 364 365 303
3 304 303 366
3 303 365 366
3 306 304 367
3 304 366 367
3 367 308 306
3 368 308 367
3 311 363 362
3 311 310 363
3 310 369 363
3 302 311 362
3 308 368 370
3 315 308 370
3 370 317 315
3 371 317 370
3 310 319 369
3 369 319 372
3 317 371 373
3 320 317 373
3 373 322 320
3 374 322 373
3 319 323 372
3 372 323 375
3 322 374 325
3 374 376 325
3 328 377 378
3 327 377 328
3 375 323 328
3 378 375 328
3 325 376 329
3 376 379 329
3 327 330 377
3 377 330 380
3 381 382 383
3 381 379 382
3 381 331 379
3 331 329 379
3 330 332 380
3 380 332 384
3 385 381 383
3 386 385 383
3 331 385 333
3 381 385 331
3 387 334 388
3 387 384 334
3 384 332 334
3 387 388 389
3 390 385 386
3 391 390 386
3 333 390 336
3 385 390 333
3 334 338 388
3 388 392 389
3 388 338 392
3 338 340 392
3 341 393 394
3 341 394 340
3 340 394 392
3 394 393 395
3 396 397 398
3 391 397 396
3 390 391 396
3 390 396 344
3 390 344 343
3 336 390 343
3 341 348 393
3 350 399 400
3 348 350 400
3 348 400 395
3 348 395 393
3 399 401 402
3 400 399 402
3 398 402 401
3 396 398 401
3 396 401 353
3 396 353 352
3 344 396 352
3 350 358 399
3 361 399 358
3 401 399 361
3 353 401 361
3 403 404 405
3 403 406 407
3 405 406 403
3 407 408 409
3 406 408 407
3 408 410 409
3 364 411 412
3 363 411 364
3 404 403 365
3 404 365 412
3 412 365 364
3 366 365 403
3 407 366 403
3 367 366 407
3 409 367 407
3 368 413 414
3 367 413 368
3 367 410 413
3 367 409 410
3 413 415 414
3 363 369 411
3 411 369 416
3 368 414 370
3 414 371 370
3 414 415 371
3 415 417 371
3 369 372 416
3 416 372 418
3 419 373 371
3 419 371 420
3 420 371 417
3 373 419 374
3 372 375 418
3 418 375 421
3 422 419 420
3 423 422 420
3 374 422 376
3 419 422 374
3 378 377 424
3 378 424 425
3 378 425 375
3 375 425 421
3 426 427 428
3 423 427 426
3 423 426 422
3 422 426 429
3 376 429 379
3 422 429 376
3 424 380 430
3 377 380 424
3 431 425 424
3 431 424 432
3 432 424 430
3 432 433 434
3 431 432 434
3 433 435 436
3 434 433 436
3 435 437 438
3 436 435 438
3 428 438 437
3 428 437 426
3 426 437 439
3 382 439 383
3 382 429 439
3 429 426 439
3 379 429 382
3 430 384 440
3 380 384 430
3 432 430 441
3 441 430 440
3 433 432 442
3 442 432 441
3 435 433 443
3 443 433 442
3 437 435 444
3 444 435 443
3 439 437 445
3 445 437 444
3 383 445 386
3 439 445 383
3 384 387 440
3 389 440 387
3 389 446 440
3 446 441 440
3 442 441 447
3 447 441 446
3 443 442 448
3 448 442 447
3 444 443 449
3 449 443 448
3 445 444 450
3 450 444 449
3 386 450 391
3 445 450 386
3 389 392 446
3 394 446 392
3 447 446 394
3 395 447 394
3 395 451 447
3 451 448 447
3 449 448 452
3 452 448 451
3 397 452 398
3 397 450 452
3 450 449 452
3 391 450 397
3 395 400 451
3 402 451 400
3 452 451 402
3 398 452 402
3 405 453 454
3 404 453 405
3 406 405 455
3 405 454 455
3 408 406 456
3 406 455 456
3 410 457 458
3 410 408 457
3 408 456 457
3 457 459 458
3 412 411 460
3 412 460 461
3 412 461 404
3 404 461 453
3 410 458 413
3 458 415 413
3 458 459 415
3 459 462 415
3 460 463 464
3 460 411 463
3 411 416 463
3 461 460 464
3 415 462 417
3 462 465 417
3 416 418 463
3 463 418 466
3 417 465 420
3 465 467 420
3 468 421 469
3 468 466 421
3 466 418 421
3 468 469 470
3 471 472 473
3 471 474 475
3 472 471 475
3 474 467 475
3 474 423 467
3 423 420 467
3 469 425 476
3 421 425 469
3 477 470 469
3 477 469 478
3 478 469 476
3 478 479 480
3 477 478 480
3 473 480 479
3 473 479 471
3 471 479 481
3 427 481 428
3 427 474 481
3 474 471 481
3 423 474 427
3 425 431 476
3 434 476 431
3 478 476 434
3 436 478 434
3 479 478 436
3 438 479 436
3 481 479 438
3 428 481 438
3 482 483 484
3 482 485 486
3 484 485 482
3 486 487 488
3 485 487 486
3 488 489 490
3 487 489 488
3 490 491 492
3 489 491 490
3 491 493 492
3 454 483 482
3 454 453 483
3 453 494 483
3 455 454 482
3 486 455 482
3 456 455 486
3 488 456 486
3 457 456 488
3 490 457 488
3 459 457 490
3 459 490 495
3 495 490 492
3 496 492 493
3 495 492 496
3 453 461 494
3 494 461 497
3 495 498 462
3 459 495 462
3 499 495 496
3 498 495 499
3 464 463 500
3 464 500 501
3 464 501 461
3 461 501 497
3 502 503 504
3 502 505 506
3 503 502 506
3 498 507 506
3 498 506 465
3 498 465 462
3 465 506 505
3 499 507 498
3 500 466 508
3 463 466 500
3 509 501 500
3 509 500 510
3 510 500 508
3 510 511 512
3 509 510 512
3 504 512 511
3 504 511 502
3 502 511 513
3 505 502 514
3 514 502 513
3 465 514 467
3 505 514 465
3 466 468 508
3 470 508 468
3 470 515 508
3 515 510 508
3 511 510 516
3 516 510 515
3 472 516 473
3 472 513 516
3 513 511 516
3 475 513 472
3 514 513 475
3 467 514 475
3 470 477 515
3 480 515 477
3 516 515 480
3 473 516 480
3 517 518 519
3 517 520 521
3 519 520 517
3 520 522 521
3 484 523 524
3 483 523 484
3 485 484 525
3 484 524 525
3 518 517 487
3 518 487 525
3 525 487 485
3 489 487 517
3 521 489 517
3 521 522 526
3 521 526 489
3 489 526 491
3 493 527 528
3 493 491 527
3 491 526 527
3 527 529 528
3 483 494 523
3 523 494 530
3 528 531 496
3 493 528 496
3 532 528 529
3 531 528 532
3 494 497 530
3 530 497 533
3 531 534 535
3 531 535 496
3 496 535 499
3 532 534 531
3 536 501 537
3 536 533 501
3 533 497 501
3 537 538 539
3 536 537 539
3 538 504 503
3 538 503 539
3 539 503 540
3 506 541 503
3 503 541 540
3 507 542 506
3 506 542 541
3 535 507 499
3 542 507 535
3 501 509 537
3 512 537 509
3 538 537 512
3 504 538 512
3 519 543 544
3 518 543 519
3 520 519 545
3 519 544 545
3 522 546 547
3 522 520 546
3 520 545 546
3 547 548 549
3 546 548 547
3 548 550 549
3 524 523 551
3 552 524 551
3 552 553 524
3 553 525 524
3 543 518 525
3 553 543 525
3 522 547 526
3 527 526 547
3 549 527 547
3 529 554 555
3 527 554 529
3 527 550 554
3 527 549 550
3 555 556 557
3 554 556 555
3 556 558 557
3 551 530 559
3 523 530 551
3 560 552 551
3 559 560 551
3 555 561 532
3 529 555 532
3 557 562 555
3 562 561 555
3 563 557 558
3 562 557 563
3 559 533 564
3 530 533 559
3 565 560 559
3 565 559 566
3 566 559 564
3 566 567 568
3 565 566 568
3 567 569 570
3 568 567 570
3 569 571 572
3 570 569 572
3 571 535 534
3 571 534 572
3 572 534 573
3 561 534 532
3 561 574 534
3 574 573 534
3 562 574 561
3 575 574 562
3 563 575 562
3 533 536 564
3 539 564 536
3 566 564 539
3 540 566 539
3 567 566 540
3 541 567 540
3 569 567 541
3 542 569 541
3 571 569 542
3 535 571 542
3 544 576 577
3 543 576 544
3 545 544 578
3 544 577 578
3 546 545 579
3 545 578 579
3 548 546 580
3 546 579 580
3 580 550 548
3 581 550 580
3 553 582 583
3 552 582 553
3 576 543 553
3 583 576 553
3 550 581 584
3 554 550 584
3 556 554 585
3 554 584 585
3 585 558 556
3 586 558 585
3 552 560 582
3 582 560 587
3 558 586 563
3 586 588 563
3 560 589 587
3 565 589 560
3 568 590 565
3 565 590 589
3 591 592 590
3 591 590 570
3 570 590 568
3 570 572 593
3 591 570 593
3 572 573 594
3 593 572 594
3 573 574 595
3 594 573 595
3 596 595 574
3 596 574 597
3 597 574 575
3 588 575 563
3 597 575 588
3 591 598 592
3 593 598 591
3 599 598 593
3 594 599 593
3 600 599 594
3 595 600 594
3 601 600 595
3 596 601 595
3 577 576 602
3 577 603 578
3 602 603 577
3 578 604 579
3 603 604 578
3 579 605 580
3 604 605 579
3 580 605 581
3 583 582 606
3 583 606 607
3 576 583 607
3 576 607 608
3 576 608 602
3 603 602 608
3 609 603 608
3 604 603 609
3 610 604 609
3 605 604 610
3 611 605 610
3 581 605 611
3 581 611 584
3 584 611 612
3 585 584 613
3 584 612 613
3 586 614 615
3 586 585 614
3 585 613 614
3 614 616 615
3 606 587 617
3 582 587 606
3 618 607 606
3 617 618 606
3 615 619 588
3 586 615 588
3 620 615 616
3 619 615 620
3 587 589 617
3 617 621 618
3 617 589 621
3 589 590 621
3 621 590 592
3 622 621 592
3 597 623 624
3 596 597 624
3 619 597 588
3 619 625 597
3 625 623 597
3 620 625 619
3 592 626 622
3 598 626 592
3 599 627 598
3 598 627 626
3 600 628 599
3 599 628 627
3 601 629 600
3 600 629 628
3 624 601 596
3 629 601 624
3 608 607 630
3 608 631 609
3 630 631 608
3 632 609 631
3 632 633 609
3 633 610 609
3 611 610 634
3 610 633 634
3 612 611 635
3 611 634 635
3 613 612 636
3 612 635 636
3 614 613 637
3 613 636 637
3 637 616 614
3 638 616 637
3 630 618 639
3 607 618 630
3 631 630 640
3 640 630 639
3 641 632 631
3 640 641 631
3 616 638 620
3 638 642 620
3 618 621 639
3 622 639 621
3 622 643 639
3 643 640 639
3 644 641 640
3 643 644 640
3 623 645 646
3 624 623 646
3 625 647 623
3 623 647 645
3 642 625 620
3 647 625 642
3 622 626 643
3 643 648 644
3 643 626 648
3 626 627 648
3 628 649 627
3 627 649 648
3 629 650 628
3 628 650 649
3 646 629 624
3 650 629 646
3 633 632 651
3 633 652 634
3 651 652 633
3 634 653 635
3 652 653 634
3 635 654 636
3 653 654 635
3 636 655 637
3 654 655 636
3 637 655 638
3 651 641 656
3 632 641 651
3 652 651 657
3 657 651 656
3 653 652 658
3 658 652 657
3 654 653 659
3 659 653 658
3 655 654 660
3 660 654 659
3 638 660 642
3 655 660 638
3 656 644 661
3 641 644 656
3 657 656 662
3 662 656 661
3 658 657 663
3 663 657 662
3 645 663 646
3 645 659 663
3 659 658 663
3 647 659 645
3 660 659 647
3 642 660 647
3 644 648 661
3 649 661 648
3 662 661 649
3 650 662 649
3 663 662 650
3 646 663 650
