# vtk DataFile Version 3.0
this file was written using fslvtkio
ASCII
DATASET POLYDATA
POINTS 642 float
126.192 136.521 129.372
120.119 149.647 128.973
120.998 148.962 135.915
125.918 139.256 136.456
135.349 142.516 130.558
117.247 137.18 136.72
112.895 144.465 136.29
130.941 151.685 129.523
126.073 144.192 126.753
128.565 146.354 136.902
119.877 143.338 141.01
118.479 141.53 128.099
129.665 148.55 128.398
131.901 143.724 128.461
134.694 147.654 129.78
130.675 149.17 132.645
132.904 145.144 133.374
115.714 142.752 132.274
112.114 139.402 137.689
117.533 138.823 132.444
113.479 144.052 141.429
116.699 137.913 141.469
130.657 141.044 133.202
131.812 138.383 128.974
126.359 137.233 132.934
121.734 137.583 137.814
121.599 137.618 132.197
125.986 151.236 128.287
126.009 150.406 132.246
120.254 149.688 132.334
117.362 146.174 132.181
116.595 147.286 137.141
122.132 138.152 127.886
127.494 139.252 126.182
122.143 143.156 125.478
118.564 146.185 127.571
123.696 148.951 125.562
122.372 139.503 140.229
124.511 145.45 139.03
127.79 142.78 137.087
119.047 147.785 140.057
125.077 148.186 136.824
131.194 146.42 128.426
134.745 145.375 129.276
132.734 149.013 129.111
136.666 144.687 130.273
134.578 142.494 128.89
128.535 143.858 128.234
127.007 146.267 128.363
131.207 150.818 128.583
133.621 151.047 129.637
133.559 149.639 131.459
134.867 146.493 131.682
132.075 147.254 132.642
134.541 144.309 132.048
131.325 151.045 131.271
129.74 147.746 135.001
130.712 145.654 135.068
113.512 141.027 135.084
114.678 138.801 135.281
116.547 140.911 132.877
117.108 137.929 134.784
114.211 137.32 137.342
111.487 142.185 136.908
114.004 143.274 134.538
116.137 142.019 129.493
117.728 139.857 129.957
114.722 140.755 141.927
114 138.311 139.761
112.048 141.453 139.484
116.781 137.041 139.01
118.389 140.793 141.728
117.067 143.577 141.558
112.488 144.298 138.581
131.256 140.051 130.792
128.381 138.25 131.089
129.169 138.879 133.244
126.39 136.462 131.264
128.839 137.477 129.211
134.004 140.003 129.634
132.955 142.15 131.443
128.223 140.184 134.876
126.334 138.374 135.049
124.159 137.359 135.309
124.028 137.318 132.143
121.604 138.321 135.288
123.918 136.693 130.696
123.682 138.353 137.208
119.326 137.789 137.398
119.705 138.175 134.601
125.642 150.44 130.336
123.223 150.627 132.507
122.511 149.391 130.315
120.9 149.332 134.251
123.631 149.488 134.058
128.718 150.692 130.764
128.347 151.104 129.055
122.847 150.394 128.318
120.325 150.444 130.234
118.416 148.386 131.644
118.111 149.08 134.798
116.801 147.097 134.903
118.839 148.568 136.415
117.961 148.58 130.003
115.772 145.083 134.559
114.746 145.783 136.987
124.76 138.225 126.341
124.85 140.986 125.445
122.335 140.247 126.146
124.257 143.842 125.753
127.181 141.721 126.03
127.032 137.235 127.402
124.273 136.988 128.441
120.412 139.81 128.053
120.172 142.335 126.542
120.051 144.985 125.608
122.603 146.191 124.913
120.886 147.716 125.931
125.034 146.706 125.869
118.027 143.944 127.464
119.151 148.553 127.961
121.731 149.486 126.834
123.908 142.821 139.545
127.137 143.869 139.579
125.664 141.875 138.682
128.653 144.569 137.367
126.845 146.128 138.79
121.978 144.486 139.622
121.151 141.622 140.898
124.189 139.777 138.53
127.063 140.535 137.121
122.989 147.769 138.007
125.547 148.063 139.576
122.713 147.148 139.477
127.194 147.832 137.014
123.076 149.154 136.282
120.015 149.068 138.054
119.278 145.233 140.324
132.163 141.026 129.083
129.26 141.389 128.177
129.526 138.64 127.796
122.001 136.955 129.997
119.697 138.125 129.819
119.495 137.942 132.194
130.647 143.87 135.617
132.137 143.104 133.381
129.262 141.856 135.38
122.786 137.216 139.83
119.398 137.181 139.901
120.046 138.521 141.597
125.978 148.459 127.92
127.925 150.122 128.46
124.284 150.521 127.028
117.348 147.148 129.464
116.234 144.898 132.036
116.403 144.659 129.327
125.678 149.375 134.623
128.444 150.073 132.707
127.973 149.1 134.968
116.523 145.904 140.718
114.653 146.197 139.366
117.515 148.472 138.583
133.159 146.28 128.594
133.644 147.265 128.97
132.287 147.523 128.782
134.275 148.51 129.041
135.035 146.545 129.146
133.595 144.757 128.858
131.97 145.112 128.425
130.608 147.698 128.36
131.358 148.934 128.87
136.326 144.766 129.261
134.898 143.856 129.116
136.525 143.13 129.446
133.321 143.293 128.871
135.903 146.111 129.871
136.394 143.281 130.606
135.514 142.032 129.788
130.065 145.277 128.479
129.377 146.553 128.437
128.155 145.186 128.224
128.599 147.178 128.365
130.182 144.055 128.439
127.175 143.906 127.458
126.533 145.32 127.239
132.224 150.35 128.775
133.847 150.459 128.875
132.611 151.594 129.038
134.416 149.523 129.572
130.638 149.663 128.62
131.032 151.675 129.114
132.319 151.434 130.064
134.005 148.001 131.308
133.623 147.138 132.185
133.111 148.504 132.107
132.682 146.414 132.849
133.966 145.954 132.766
134.69 147.024 130.488
134.128 148.986 130.381
132.249 149.362 132.309
131.56 148.241 132.531
135.139 145.362 132.23
135.633 145.941 130.861
135.865 144.567 131.246
134.052 144.776 132.962
134.978 143.511 131.284
133.883 150.442 130.446
132.7 150.427 131.537
132.684 151.044 130.705
131.379 150.327 132.15
131.267 151.437 130.42
130.833 147.457 133.45
131.326 146.412 133.511
130.522 146.835 134.836
131.627 145.646 133.846
130.336 148.183 133.598
129.263 146.909 135.874
129.654 145.965 135.752
114.042 139.935 135.516
116.02 140.098 134.491
115.585 141.238 134.576
116.803 139.961 132.653
116.698 139.519 134.066
113.115 138.906 136.579
112.634 140.153 136.46
115.199 141.923 134.051
115.96 141.66 132.76
115.723 138.159 134.99
113.996 137.844 136.256
115.467 137.527 136.224
112.901 138.149 137.551
117.24 138.628 134.043
116.993 137.45 135.809
115.838 137.178 137.063
112.315 141.399 135.85
113.715 142.22 134.644
112.468 142.655 135.544
115.289 142.976 133.58
111.506 140.762 137.13
111.973 143.387 136.367
113.234 143.664 135.405
116.248 141.32 131.324
116.979 140.332 131.31
116.978 141.053 129.942
117.68 139.215 131.179
115.93 142.476 130.817
117.741 141.925 128.868
117.989 140.658 128.831
114.12 139.518 140.657
112.861 139.846 139.47
113.404 141.092 140.674
111.532 140.301 138.403
112.657 138.509 138.75
115.121 137.848 140.827
115.391 138.926 141.788
114.253 142.42 141.603
112.846 142.783 140.589
114.013 137.493 138.479
115.243 137.287 139.482
115.625 136.739 138.099
116.569 137.289 140.381
117.025 136.894 137.83
116.486 140.462 142.227
115.709 142.274 142.276
117.592 142.041 142.179
115.133 143.457 142.09
116.88 139.327 141.976
119.177 141.973 141.86
118.378 143.218 141.626
111.717 142.98 139.184
111.116 141.632 138.122
111.677 143.479 137.619
112.672 144.08 139.987
112.501 144.591 137.352
129.805 139.522 130.751
128.56 138.867 131.79
129.901 139.948 131.741
127.993 138.198 133.129
127.373 137.724 132.107
130.081 138.685 130.089
131.583 139.096 129.967
131.073 140.58 132.019
129.968 139.918 133.204
127.364 137.322 131.104
128.992 137.591 130.228
127.431 137.022 130.241
130.553 138.258 129.06
126.265 137.083 131.928
126.265 136.684 130.276
127.426 137.048 129.373
132.838 139.985 130.19
132.228 141.074 131.021
133.617 141.103 130.277
131.657 141.65 132.204
132.905 138.89 129.449
134.876 141.121 130.009
134.167 142.295 130.823
128.709 139.563 134.046
127.82 138.429 134.191
127.168 139.436 134.83
126.839 137.789 134.082
129.425 140.687 134.039
126.871 139.957 135.548
125.937 139.037 135.751
123.96 137.255 133.827
122.703 137.702 133.441
122.819 137.492 135.402
122.023 138.05 133.544
122.758 137.668 132.359
125.083 137.026 132.37
125.265 137.288 134.065
122.827 137.848 136.581
121.622 138.089 136.673
123.652 136.676 131.507
125.209 136.6 131.561
124.957 136.405 130.716
122.756 136.966 131.465
125.135 136.435 130.049
125.166 137.944 135.142
123.795 138.052 136.5
124.848 138.497 136.035
122.729 137.607 137.598
124.778 138.717 136.844
120.728 138.254 136.277
120.738 138.044 134.624
119.559 138.071 135.957
120.86 137.83 133.338
120.483 137.815 137.573
118.356 137.328 136.985
118.522 137.719 135.692
124.421 150.103 131.217
122.79 149.798 131.123
124.236 149.694 130.154
121.169 149.357 131.02
121.63 150.453 132.43
124.521 150.506 132.486
125.777 150.458 131.465
125.327 150.685 129.484
124.053 150.153 129.409
122.017 149.966 133.239
123.438 149.908 133.163
122.397 148.982 133.879
124.681 150.093 133.207
120.78 149.642 133.494
121.1 148.865 134.984
122.234 149.201 134.884
127.133 150.643 130.358
126.99 151.179 129.544
128.462 150.845 129.897
126.797 151.215 128.842
127.448 150.306 131.339
129.968 150.987 130.139
129.601 151.627 129.294
123.114 150.255 129.037
121.833 149.836 129.847
121.56 150.253 129.164
120.392 149.666 130.855
124.56 150.82 128.4
121.251 150.08 128.517
120.135 149.995 129.587
118.028 148.979 133.451
117.281 148.61 134.745
117.571 148.083 133.417
116.926 147.109 136.089
117.658 148.204 135.844
119.069 149.569 133.612
119.286 149.102 131.771
118.103 146.892 131.978
117.056 146.659 133.551
118.67 148.783 135.31
119.381 149.544 134.38
119.823 149.089 134.975
117.799 148.291 136.616
119.82 148.694 136.089
119.125 149.596 130.821
118.247 148.428 130.799
119.158 149.427 130.303
117.709 147.362 131.05
119.173 149.283 129.522
116.352 146.018 134.614
116.28 146.176 135.784
115.164 145.52 135.675
115.715 146.413 137.023
116.468 145.719 133.283
113.997 144.782 135.418
113.72 145.295 136.644
124.843 139.507 125.802
123.698 140.466 125.795
123.522 139.107 126.158
122.412 141.657 126.048
123.462 141.908 125.693
125.991 140.053 125.671
126.083 138.935 126.152
123.236 138.502 127.058
122.252 139.195 126.797
124.423 142.316 125.789
125.969 141.514 125.376
125.614 142.746 125.848
127.231 140.49 126.04
123.121 143.595 125.405
125.207 144.138 125.971
126.661 143 126.415
126.13 137.673 126.728
124.537 137.734 127.2
125.491 136.893 127.718
123.307 137.623 128.028
127.462 138.123 126.567
126.432 136.734 128.387
125.232 136.511 129.061
121.318 140.158 127.05
121.293 141.356 126.52
120.299 141.023 127.277
121.201 142.694 125.991
121.332 138.935 127.809
119.33 140.549 127.983
119.343 141.978 127.355
121.241 145.704 125.123
121.496 147.146 125.081
120.26 146.413 125.664
122.146 148.334 125.504
122.912 147.492 125.159
122.144 144.662 125.098
120.981 144.124 125.435
119.615 145.536 126.578
119.773 146.577 126.642
123.809 146.418 125.245
123.441 144.964 125.114
124.588 145.251 125.545
124.202 147.702 125.724
125.726 145.548 126.253
119.959 143.655 126.004
119.388 144.414 126.769
119.264 143.208 127.025
118.106 145.184 127.297
118.093 142.642 127.678
120.173 147.745 126.895
121.397 148.717 126.372
120.22 148.939 127.252
122.752 149.427 125.977
119.064 147.377 127.522
119.591 149.433 128.444
120.867 149.581 127.819
125.938 143.24 139.949
126.727 142.421 139.337
125.119 141.639 139.161
127.033 142.146 138.187
127.902 143.121 138.804
125.736 144.508 139.202
124.284 143.876 139.221
123.345 141.363 139.824
123.908 140.694 139.1
128.319 144.167 138.925
126.936 144.808 139.213
128.409 145.425 138.619
125.888 146.105 139.213
128.362 143.668 137.412
128.822 145.51 137.031
128.031 146.413 138.22
122.692 143.586 139.345
122.285 142.327 139.913
121.472 143.007 140.268
121.822 140.541 140.626
123.265 144.949 138.866
120.804 143.688 140.192
120.243 142.301 141.014
124.23 141.458 138.12
125.62 141.953 137.495
125.295 140.631 137.46
127.069 141.98 136.782
123.375 139.485 139.368
125.559 138.77 137.72
126.82 139.468 136.905
124.303 148.346 138.732
124.49 148.131 139.916
122.763 148.24 139.063
123.963 146.589 139.512
125.231 147.008 139.425
125.357 148.526 138.303
124.142 148.24 137.761
121.08 147.751 138.944
121.109 147.397 139.613
126.261 146.904 139.162
126.491 148.178 138.518
127.371 147.029 138.156
126.195 148.081 136.891
128.004 147.113 136.859
123.07 147.881 137.126
121.561 147.746 137.741
121.774 148.607 137.081
119.779 148.552 138.963
124.1 148.33 136.29
121.95 149.443 136.042
120.522 149.265 137.13
120.967 146.167 139.996
122.614 146.001 139.452
121.099 144.671 139.992
119.193 146.638 140.203
119.348 144.13 140.691
130.684 141.32 128.462
129.473 140.015 127.968
130.874 140.044 128.51
128.552 138.729 126.984
128.426 140.172 127.037
130.505 142.803 128.461
132.072 142.351 128.662
131.939 139.591 128.739
130.757 138.629 128.418
127.957 141.332 127.125
128.96 142.633 128.282
127.774 142.674 127.221
133.613 141.637 128.641
133.222 140.223 129.286
134.731 140.948 129.133
129.296 137.577 128.497
128.313 137.579 127.477
127.602 137.228 128.429
120.856 137.387 129.851
119.504 137.676 130.987
120.796 137.202 131.088
118.276 138.216 132.366
118.546 138.479 131.044
121.05 138.271 128.903
122.07 137.312 128.867
121.804 137.074 131.239
120.508 137.803 132.248
118.691 138.935 129.831
120.122 138.805 128.748
119.053 139.692 128.845
123.11 136.858 129.141
122.919 136.423 130.495
124.085 136.291 129.633
119.667 137.692 133.456
118.357 137.85 133.474
118.474 138.056 134.706
131.214 143.635 134.348
130.641 142.597 134.257
130.054 142.804 135.444
130.013 141.576 134.266
131.463 142 133.273
132.563 144.171 133.611
131.486 144.666 134.255
129.224 143.232 136.248
128.902 142.1 136.462
132.442 142.799 132.427
133.561 143.766 132.831
134.028 142.84 131.937
130.88 144.836 135.462
129.235 144.162 136.235
129.474 145.187 136.158
128.399 140.992 136.616
128.648 141.147 135.093
127.548 140.486 136.064
121.026 137.311 139.924
119.603 137.692 141.002
121.393 137.535 141.039
118.177 138.3 141.639
118.042 137.412 140.78
120.686 137.259 138.928
122.198 137.078 138.87
122.867 137.868 140.623
121.465 138.79 141.269
117.943 137.247 139.703
119.448 137.416 138.682
118.168 137.433 138.31
123.388 137.656 138.523
123.911 138.061 139.585
124.391 138.357 138.259
121.001 139.936 141.224
118.854 139.523 141.407
119.82 141.035 141.245
127.313 149.217 127.988
126.126 150.115 128.068
125.306 149.52 127.491
125.168 151.024 127.552
127.005 150.75 128.069
129.134 149.571 128.33
128.014 148.256 128.092
124.892 148.711 126.598
123.706 149.767 126.429
128.316 150.444 128.825
129.687 150.895 128.24
129.881 151.425 128.43
126.553 147.486 128.218
125.385 147.828 126.667
125.965 146.643 127.03
122.779 150.147 126.932
123.337 150.676 127.651
121.883 150.066 127.744
116.463 146.163 130.609
116.07 144.969 130.726
116.996 145.841 129.52
115.798 143.715 130.664
115.591 143.835 132.104
116.818 145.721 131.843
117.288 147.028 130.618
117.994 146.82 128.47
117.467 145.58 128.287
115.205 144.045 133.359
115.81 144.993 133.345
114.807 144.249 134.623
117.73 148.067 129.706
118.498 147.762 128.581
118.574 148.929 129.036
117.307 144.397 128.359
116.093 143.339 129.454
117.279 143.066 128.548
127.021 149.497 133.629
128.218 149.244 133.651
126.776 149.36 134.835
129.394 148.87 133.758
129.552 149.699 132.801
127.237 150.05 132.513
125.855 149.58 133.422
125.404 149.194 135.803
126.461 148.75 135.777
130.056 150.49 132.089
128.695 150.277 131.754
130.079 150.871 131.097
124.628 149.502 134.219
124.362 149.452 135.551
123.293 149.356 135.191
127.446 148.283 135.787
129.023 148.484 134.929
128.38 147.717 135.855
115.225 146.428 140.412
116.136 147.515 138.948
116.905 147.729 139.918
116.661 148.319 137.831
115.633 146.913 138.215
113.798 145.085 140.471
114.89 144.958 141.407
117.757 147.08 140.343
118.232 148.501 139.5
114.727 145.979 138.125
113.546 144.988 139.222
113.547 145.179 137.91
116.201 144.367 141.266
117.979 145.686 140.626
118.198 144.465 141.1
118.673 149.228 138.439
117.913 149.111 137.438
119.451 149.313 137.207
POLYGONS 1280  5120
3 164 162 163
3 163 44 164
3 162 43 163
3 164 42 162
3 166 165 163
3 163 43 166
3 165 44 163
3 166 14 165
3 168 167 162
3 162 42 168
3 167 43 162
3 168 13 167
3 170 169 164
3 164 44 170
3 169 42 164
3 170 12 169
3 173 171 172
3 172 46 173
3 171 43 172
3 173 45 171
3 167 174 172
3 172 43 167
3 174 46 172
3 167 13 174
3 175 166 171
3 171 45 175
3 166 43 171
3 175 14 166
3 177 176 173
3 173 46 177
3 176 45 173
3 177 4 176
3 180 178 179
3 179 48 180
3 178 42 179
3 180 47 178
3 169 181 179
3 179 42 169
3 181 48 179
3 169 12 181
3 182 168 178
3 178 47 182
3 168 42 178
3 182 13 168
3 184 183 180
3 180 48 184
3 183 47 180
3 184 8 183
3 187 185 186
3 186 50 187
3 185 44 186
3 187 49 185
3 165 188 186
3 186 44 165
3 188 50 186
3 165 14 188
3 189 170 185
3 185 49 189
3 170 44 185
3 189 12 170
3 191 190 187
3 187 50 191
3 190 49 187
3 191 7 190
3 194 192 193
3 193 53 194
3 192 52 193
3 194 51 192
3 196 195 193
3 193 52 196
3 195 53 193
3 196 16 195
3 198 197 192
3 192 51 198
3 197 52 192
3 198 14 197
3 200 199 194
3 194 53 200
3 199 51 194
3 200 15 199
3 203 201 202
3 202 45 203
3 201 52 202
3 203 54 201
3 197 175 202
3 202 52 197
3 175 45 202
3 197 14 175
3 204 196 201
3 201 54 204
3 196 52 201
3 204 16 196
3 176 205 203
3 203 45 176
3 205 54 203
3 176 4 205
3 208 206 207
3 207 55 208
3 206 51 207
3 208 50 206
3 199 209 207
3 207 51 199
3 209 55 207
3 199 15 209
3 188 198 206
3 206 50 188
3 198 51 206
3 188 14 198
3 210 191 208
3 208 55 210
3 191 50 208
3 210 7 191
3 213 211 212
3 212 57 213
3 211 53 212
3 213 56 211
3 195 214 212
3 212 53 195
3 214 57 212
3 195 16 214
3 215 200 211
3 211 56 215
3 200 53 211
3 215 15 200
3 217 216 213
3 213 57 217
3 216 56 213
3 217 9 216
3 220 218 219
3 219 60 220
3 218 59 219
3 220 58 218
3 222 221 219
3 219 59 222
3 221 60 219
3 222 19 221
3 224 223 218
3 218 58 224
3 223 59 218
3 224 18 223
3 226 225 220
3 220 60 226
3 225 58 220
3 226 17 225
3 229 227 228
3 228 62 229
3 227 59 228
3 229 61 227
3 223 230 228
3 228 59 223
3 230 62 228
3 223 18 230
3 231 222 227
3 227 61 231
3 222 59 227
3 231 19 222
3 233 232 229
3 229 62 233
3 232 61 229
3 233 5 232
3 236 234 235
3 235 64 236
3 234 58 235
3 236 63 234
3 225 237 235
3 235 58 225
3 237 64 235
3 225 17 237
3 238 224 234
3 234 63 238
3 224 58 234
3 238 18 224
3 240 239 236
3 236 64 240
3 239 63 236
3 240 6 239
3 243 241 242
3 242 66 243
3 241 60 242
3 243 65 241
3 221 244 242
3 242 60 221
3 244 66 242
3 221 19 244
3 245 226 241
3 241 65 245
3 226 60 241
3 245 17 226
3 247 246 243
3 243 66 247
3 246 65 243
3 247 11 246
3 250 248 249
3 249 69 250
3 248 68 249
3 250 67 248
3 252 251 249
3 249 68 252
3 251 69 249
3 252 18 251
3 254 253 248
3 248 67 254
3 253 68 248
3 254 21 253
3 256 255 250
3 250 69 256
3 255 67 250
3 256 20 255
3 259 257 258
3 258 70 259
3 257 68 258
3 259 62 257
3 253 260 258
3 258 68 253
3 260 70 258
3 253 21 260
3 230 252 257
3 257 62 230
3 252 68 257
3 230 18 252
3 261 233 259
3 259 70 261
3 233 62 259
3 261 5 233
3 264 262 263
3 263 72 264
3 262 67 263
3 264 71 262
3 255 265 263
3 263 67 255
3 265 72 263
3 255 20 265
3 266 254 262
3 262 71 266
3 254 67 262
3 266 21 254
3 268 267 264
3 264 72 268
3 267 71 264
3 268 10 267
3 271 269 270
3 270 63 271
3 269 69 270
3 271 73 269
3 251 238 270
3 270 69 251
3 238 63 270
3 251 18 238
3 272 256 269
3 269 73 272
3 256 69 269
3 272 20 256
3 239 273 271
3 271 63 239
3 273 73 271
3 239 6 273
3 276 274 275
3 275 76 276
3 274 75 275
3 276 74 274
3 278 277 275
3 275 75 278
3 277 76 275
3 278 24 277
3 280 279 274
3 274 74 280
3 279 75 274
3 280 23 279
3 282 281 276
3 276 76 282
3 281 74 276
3 282 22 281
3 285 283 284
3 284 78 285
3 283 75 284
3 285 77 283
3 279 286 284
3 284 75 279
3 286 78 284
3 279 23 286
3 287 278 283
3 283 77 287
3 278 75 283
3 287 24 278
3 289 288 285
3 285 78 289
3 288 77 285
3 289 0 288
3 292 290 291
3 291 80 292
3 290 74 291
3 292 79 290
3 281 293 291
3 291 74 281
3 293 80 291
3 281 22 293
3 294 280 290
3 290 79 294
3 280 74 290
3 294 23 280
3 296 295 292
3 292 80 296
3 295 79 292
3 296 4 295
3 299 297 298
3 298 82 299
3 297 76 298
3 299 81 297
3 277 300 298
3 298 76 277
3 300 82 298
3 277 24 300
3 301 282 297
3 297 81 301
3 282 76 297
3 301 22 282
3 303 302 299
3 299 82 303
3 302 81 299
3 303 3 302
3 306 304 305
3 305 85 306
3 304 84 305
3 306 83 304
3 308 307 305
3 305 84 308
3 307 85 305
3 308 26 307
3 310 309 304
3 304 83 310
3 309 84 304
3 310 24 309
3 312 311 306
3 306 85 312
3 311 83 306
3 312 25 311
3 315 313 314
3 314 77 315
3 313 84 314
3 315 86 313
3 309 287 314
3 314 84 309
3 287 77 314
3 309 24 287
3 316 308 313
3 313 86 316
3 308 84 313
3 316 26 308
3 288 317 315
3 315 77 288
3 317 86 315
3 288 0 317
3 320 318 319
3 319 87 320
3 318 83 319
3 320 82 318
3 311 321 319
3 319 83 311
3 321 87 319
3 311 25 321
3 300 310 318
3 318 82 300
3 310 83 318
3 300 24 310
3 322 303 320
3 320 87 322
3 303 82 320
3 322 3 303
3 325 323 324
3 324 89 325
3 323 85 324
3 325 88 323
3 307 326 324
3 324 85 307
3 326 89 324
3 307 26 326
3 327 312 323
3 323 88 327
3 312 85 323
3 327 25 312
3 329 328 325
3 325 89 329
3 328 88 325
3 329 5 328
3 332 330 331
3 331 92 332
3 330 91 331
3 332 90 330
3 334 333 331
3 331 91 334
3 333 92 331
3 334 29 333
3 336 335 330
3 330 90 336
3 335 91 330
3 336 28 335
3 338 337 332
3 332 92 338
3 337 90 332
3 338 27 337
3 341 339 340
3 340 94 341
3 339 91 340
3 341 93 339
3 335 342 340
3 340 91 335
3 342 94 340
3 335 28 342
3 343 334 339
3 339 93 343
3 334 91 339
3 343 29 334
3 345 344 341
3 341 94 345
3 344 93 341
3 345 2 344
3 348 346 347
3 347 96 348
3 346 90 347
3 348 95 346
3 337 349 347
3 347 90 337
3 349 96 347
3 337 27 349
3 350 336 346
3 346 95 350
3 336 90 346
3 350 28 336
3 352 351 348
3 348 96 352
3 351 95 348
3 352 7 351
3 355 353 354
3 354 98 355
3 353 92 354
3 355 97 353
3 333 356 354
3 354 92 333
3 356 98 354
3 333 29 356
3 357 338 353
3 353 97 357
3 338 92 353
3 357 27 338
3 359 358 355
3 355 98 359
3 358 97 355
3 359 1 358
3 362 360 361
3 361 101 362
3 360 100 361
3 362 99 360
3 364 363 361
3 361 100 364
3 363 101 361
3 364 31 363
3 366 365 360
3 360 99 366
3 365 100 360
3 366 29 365
3 368 367 362
3 362 101 368
3 367 99 362
3 368 30 367
3 371 369 370
3 370 93 371
3 369 100 370
3 371 102 369
3 365 343 370
3 370 100 365
3 343 93 370
3 365 29 343
3 372 364 369
3 369 102 372
3 364 100 369
3 372 31 364
3 344 373 371
3 371 93 344
3 373 102 371
3 344 2 373
3 376 374 375
3 375 103 376
3 374 99 375
3 376 98 374
3 367 377 375
3 375 99 367
3 377 103 375
3 367 30 377
3 356 366 374
3 374 98 356
3 366 99 374
3 356 29 366
3 378 359 376
3 376 103 378
3 359 98 376
3 378 1 359
3 381 379 380
3 380 105 381
3 379 101 380
3 381 104 379
3 363 382 380
3 380 101 363
3 382 105 380
3 363 31 382
3 383 368 379
3 379 104 383
3 368 101 379
3 383 30 368
3 385 384 381
3 381 105 385
3 384 104 381
3 385 6 384
3 388 386 387
3 387 108 388
3 386 107 387
3 388 106 386
3 390 389 387
3 387 107 390
3 389 108 387
3 390 34 389
3 392 391 386
3 386 106 392
3 391 107 386
3 392 33 391
3 394 393 388
3 388 108 394
3 393 106 388
3 394 32 393
3 397 395 396
3 396 110 397
3 395 107 396
3 397 109 395
3 391 398 396
3 396 107 391
3 398 110 396
3 391 33 398
3 399 390 395
3 395 109 399
3 390 107 395
3 399 34 390
3 401 400 397
3 397 110 401
3 400 109 397
3 401 8 400
3 404 402 403
3 403 112 404
3 402 106 403
3 404 111 402
3 393 405 403
3 403 106 393
3 405 112 403
3 393 32 405
3 406 392 402
3 402 111 406
3 392 106 402
3 406 33 392
3 408 407 404
3 404 112 408
3 407 111 404
3 408 0 407
3 411 409 410
3 410 114 411
3 409 108 410
3 411 113 409
3 389 412 410
3 410 108 389
3 412 114 410
3 389 34 412
3 413 394 409
3 409 113 413
3 394 108 409
3 413 32 394
3 415 414 411
3 411 114 415
3 414 113 411
3 415 11 414
3 418 416 417
3 417 117 418
3 416 116 417
3 418 115 416
3 420 419 417
3 417 116 420
3 419 117 417
3 420 36 419
3 422 421 416
3 416 115 422
3 421 116 416
3 422 34 421
3 424 423 418
3 418 117 424
3 423 115 418
3 424 35 423
3 427 425 426
3 426 109 427
3 425 116 426
3 427 118 425
3 421 399 426
3 426 116 421
3 399 109 426
3 421 34 399
3 428 420 425
3 425 118 428
3 420 116 425
3 428 36 420
3 400 429 427
3 427 109 400
3 429 118 427
3 400 8 429
3 432 430 431
3 431 119 432
3 430 115 431
3 432 114 430
3 423 433 431
3 431 115 423
3 433 119 431
3 423 35 433
3 412 422 430
3 430 114 412
3 422 115 430
3 412 34 422
3 434 415 432
3 432 119 434
3 415 114 432
3 434 11 415
3 437 435 436
3 436 121 437
3 435 117 436
3 437 120 435
3 419 438 436
3 436 117 419
3 438 121 436
3 419 36 438
3 439 424 435
3 435 120 439
3 424 117 435
3 439 35 424
3 441 440 437
3 437 121 441
3 440 120 437
3 441 1 440
3 444 442 443
3 443 124 444
3 442 123 443
3 444 122 442
3 446 445 443
3 443 123 446
3 445 124 443
3 446 39 445
3 448 447 442
3 442 122 448
3 447 123 442
3 448 38 447
3 450 449 444
3 444 124 450
3 449 122 444
3 450 37 449
3 453 451 452
3 452 126 453
3 451 123 452
3 453 125 451
3 447 454 452
3 452 123 447
3 454 126 452
3 447 38 454
3 455 446 451
3 451 125 455
3 446 123 451
3 455 39 446
3 457 456 453
3 453 126 457
3 456 125 453
3 457 9 456
3 460 458 459
3 459 128 460
3 458 122 459
3 460 127 458
3 449 461 459
3 459 122 449
3 461 128 459
3 449 37 461
3 462 448 458
3 458 127 462
3 448 122 458
3 462 38 448
3 464 463 460
3 460 128 464
3 463 127 460
3 464 10 463
3 467 465 466
3 466 130 467
3 465 124 466
3 467 129 465
3 445 468 466
3 466 124 445
3 468 130 466
3 445 39 468
3 469 450 465
3 465 129 469
3 450 124 465
3 469 37 450
3 471 470 467
3 467 130 471
3 470 129 467
3 471 3 470
3 474 472 473
3 473 133 474
3 472 132 473
3 474 131 472
3 476 475 473
3 473 132 476
3 475 133 473
3 476 38 475
3 478 477 472
3 472 131 478
3 477 132 472
3 478 41 477
3 480 479 474
3 474 133 480
3 479 131 474
3 480 40 479
3 483 481 482
3 482 134 483
3 481 132 482
3 483 126 481
3 477 484 482
3 482 132 477
3 484 134 482
3 477 41 484
3 454 476 481
3 481 126 454
3 476 132 481
3 454 38 476
3 485 457 483
3 483 134 485
3 457 126 483
3 485 9 457
3 488 486 487
3 487 136 488
3 486 131 487
3 488 135 486
3 479 489 487
3 487 131 479
3 489 136 487
3 479 40 489
3 490 478 486
3 486 135 490
3 478 131 486
3 490 41 478
3 492 491 488
3 488 136 492
3 491 135 488
3 492 2 491
3 495 493 494
3 494 127 495
3 493 133 494
3 495 137 493
3 475 462 494
3 494 133 475
3 462 127 494
3 475 38 462
3 496 480 493
3 493 137 496
3 480 133 493
3 496 40 480
3 463 497 495
3 495 127 463
3 497 137 495
3 463 10 497
3 500 498 499
3 499 140 500
3 498 139 499
3 500 138 498
3 502 501 499
3 499 139 502
3 501 140 499
3 502 33 501
3 504 503 498
3 498 138 504
3 503 139 498
3 504 13 503
3 506 505 500
3 500 140 506
3 505 138 500
3 506 23 505
3 509 507 508
3 508 47 509
3 507 139 508
3 509 110 507
3 503 182 508
3 508 139 503
3 182 47 508
3 503 13 182
3 398 502 507
3 507 110 398
3 502 139 507
3 398 33 502
3 183 401 509
3 509 47 183
3 401 110 509
3 183 8 401
3 512 510 511
3 511 79 512
3 510 138 511
3 512 46 510
3 505 294 511
3 511 138 505
3 294 79 511
3 505 23 294
3 174 504 510
3 510 46 174
3 504 138 510
3 174 13 504
3 295 177 512
3 512 79 295
3 177 46 512
3 295 4 177
3 515 513 514
3 514 111 515
3 513 140 514
3 515 78 513
3 501 406 514
3 514 140 501
3 406 111 514
3 501 33 406
3 286 506 513
3 513 78 286
3 506 140 513
3 286 23 506
3 407 289 515
3 515 111 407
3 289 78 515
3 407 0 289
3 518 516 517
3 517 143 518
3 516 142 517
3 518 141 516
3 520 519 517
3 517 142 520
3 519 143 517
3 520 19 519
3 522 521 516
3 516 141 522
3 521 142 516
3 522 32 521
3 524 523 518
3 518 143 524
3 523 141 518
3 524 26 523
3 527 525 526
3 526 113 527
3 525 142 526
3 527 66 525
3 521 413 526
3 526 142 521
3 413 113 526
3 521 32 413
3 244 520 525
3 525 66 244
3 520 142 525
3 244 19 520
3 414 247 527
3 527 113 414
3 247 66 527
3 414 11 247
3 530 528 529
3 529 86 530
3 528 141 529
3 530 112 528
3 523 316 529
3 529 141 523
3 316 86 529
3 523 26 316
3 405 522 528
3 528 112 405
3 522 141 528
3 405 32 522
3 317 408 530
3 530 86 317
3 408 112 530
3 317 0 408
3 533 531 532
3 532 61 533
3 531 143 532
3 533 89 531
3 519 231 532
3 532 143 519
3 231 61 532
3 519 19 231
3 326 524 531
3 531 89 326
3 524 143 531
3 326 26 524
3 232 329 533
3 533 61 232
3 329 89 533
3 232 5 329
3 536 534 535
3 535 146 536
3 534 145 535
3 536 144 534
3 538 537 535
3 535 145 538
3 537 146 535
3 538 22 537
3 540 539 534
3 534 144 540
3 539 145 534
3 540 16 539
3 542 541 536
3 536 146 542
3 541 144 536
3 542 39 541
3 545 543 544
3 544 54 545
3 543 145 544
3 545 80 543
3 539 204 544
3 544 145 539
3 204 54 544
3 539 16 204
3 293 538 543
3 543 80 293
3 538 145 543
3 293 22 538
3 205 296 545
3 545 54 205
3 296 80 545
3 205 4 296
3 548 546 547
3 547 125 548
3 546 144 547
3 548 57 546
3 541 455 547
3 547 144 541
3 455 125 547
3 541 39 455
3 214 540 546
3 546 57 214
3 540 144 546
3 214 16 540
3 456 217 548
3 548 125 456
3 217 57 548
3 456 9 217
3 551 549 550
3 550 81 551
3 549 146 550
3 551 130 549
3 537 301 550
3 550 146 537
3 301 81 550
3 537 22 301
3 468 542 549
3 549 130 468
3 542 146 549
3 468 39 542
3 302 471 551
3 551 81 302
3 471 130 551
3 302 3 471
3 554 552 553
3 553 149 554
3 552 148 553
3 554 147 552
3 556 555 553
3 553 148 556
3 555 149 553
3 556 21 555
3 558 557 552
3 552 147 558
3 557 148 552
3 558 25 557
3 560 559 554
3 554 149 560
3 559 147 554
3 560 37 559
3 563 561 562
3 562 88 563
3 561 148 562
3 563 70 561
3 557 327 562
3 562 148 557
3 327 88 562
3 557 25 327
3 260 556 561
3 561 70 260
3 556 148 561
3 260 21 556
3 328 261 563
3 563 88 328
3 261 70 563
3 328 5 261
3 566 564 565
3 565 129 566
3 564 147 565
3 566 87 564
3 559 469 565
3 565 147 559
3 469 129 565
3 559 37 469
3 321 558 564
3 564 87 321
3 558 147 564
3 321 25 558
3 470 322 566
3 566 129 470
3 322 87 566
3 470 3 322
3 569 567 568
3 568 71 569
3 567 149 568
3 569 128 567
3 555 266 568
3 568 149 555
3 266 71 568
3 555 21 266
3 461 560 567
3 567 128 461
3 560 149 567
3 461 37 560
3 267 464 569
3 569 71 267
3 464 128 569
3 267 10 464
3 572 570 571
3 571 152 572
3 570 151 571
3 572 150 570
3 574 573 571
3 571 151 574
3 573 152 571
3 574 27 573
3 576 575 570
3 570 150 576
3 575 151 570
3 576 12 575
3 578 577 572
3 572 152 578
3 577 150 572
3 578 36 577
3 581 579 580
3 580 49 581
3 579 151 580
3 581 96 579
3 575 189 580
3 580 151 575
3 189 49 580
3 575 12 189
3 349 574 579
3 579 96 349
3 574 151 579
3 349 27 574
3 190 352 581
3 581 49 190
3 352 96 581
3 190 7 352
3 584 582 583
3 583 118 584
3 582 150 583
3 584 48 582
3 577 428 583
3 583 150 577
3 428 118 583
3 577 36 428
3 181 576 582
3 582 48 181
3 576 150 582
3 181 12 576
3 429 184 584
3 584 118 429
3 184 48 584
3 429 8 184
3 587 585 586
3 586 97 587
3 585 152 586
3 587 121 585
3 573 357 586
3 586 152 573
3 357 97 586
3 573 27 357
3 438 578 585
3 585 121 438
3 578 152 585
3 438 36 578
3 358 441 587
3 587 97 358
3 441 121 587
3 358 1 441
3 590 588 589
3 589 155 590
3 588 154 589
3 590 153 588
3 592 591 589
3 589 154 592
3 591 155 589
3 592 17 591
3 594 593 588
3 588 153 594
3 593 154 588
3 594 30 593
3 596 595 590
3 590 155 596
3 595 153 590
3 596 35 595
3 599 597 598
3 598 104 599
3 597 154 598
3 599 64 597
3 593 383 598
3 598 154 593
3 383 104 598
3 593 30 383
3 237 592 597
3 597 64 237
3 592 154 597
3 237 17 592
3 384 240 599
3 599 104 384
3 240 64 599
3 384 6 240
3 602 600 601
3 601 120 602
3 600 153 601
3 602 103 600
3 595 439 601
3 601 153 595
3 439 120 601
3 595 35 439
3 377 594 600
3 600 103 377
3 594 153 600
3 377 30 594
3 440 378 602
3 602 120 440
3 378 103 602
3 440 1 378
3 605 603 604
3 604 65 605
3 603 155 604
3 605 119 603
3 591 245 604
3 604 155 591
3 245 65 604
3 591 17 245
3 433 596 603
3 603 119 433
3 596 155 603
3 433 35 596
3 246 434 605
3 605 65 246
3 434 119 605
3 246 11 434
3 608 606 607
3 607 158 608
3 606 157 607
3 608 156 606
3 610 609 607
3 607 157 610
3 609 158 607
3 610 15 609
3 612 611 606
3 606 156 612
3 611 157 606
3 612 28 611
3 614 613 608
3 608 158 614
3 613 156 608
3 614 41 613
3 617 615 616
3 616 95 617
3 615 157 616
3 617 55 615
3 611 350 616
3 616 157 611
3 350 95 616
3 611 28 350
3 209 610 615
3 615 55 209
3 610 157 615
3 209 15 610
3 351 210 617
3 617 95 351
3 210 55 617
3 351 7 210
3 620 618 619
3 619 135 620
3 618 156 619
3 620 94 618
3 613 490 619
3 619 156 613
3 490 135 619
3 613 41 490
3 342 612 618
3 618 94 342
3 612 156 618
3 342 28 612
3 491 345 620
3 620 135 491
3 345 94 620
3 491 2 345
3 623 621 622
3 622 56 623
3 621 158 622
3 623 134 621
3 609 215 622
3 622 158 609
3 215 56 622
3 609 15 215
3 484 614 621
3 621 134 484
3 614 158 621
3 484 41 614
3 216 485 623
3 623 56 216
3 485 134 623
3 216 9 485
3 626 624 625
3 625 161 626
3 624 160 625
3 626 159 624
3 628 627 625
3 625 160 628
3 627 161 625
3 628 31 627
3 630 629 624
3 624 159 630
3 629 160 624
3 630 20 629
3 632 631 626
3 626 161 632
3 631 159 626
3 632 40 631
3 635 633 634
3 634 73 635
3 633 160 634
3 635 105 633
3 629 272 634
3 634 160 629
3 272 73 634
3 629 20 272
3 382 628 633
3 633 105 382
3 628 160 633
3 382 31 628
3 273 385 635
3 635 73 273
3 385 105 635
3 273 6 385
3 638 636 637
3 637 137 638
3 636 159 637
3 638 72 636
3 631 496 637
3 637 159 631
3 496 137 637
3 631 40 496
3 265 630 636
3 636 72 265
3 630 159 636
3 265 20 630
3 497 268 638
3 638 137 497
3 268 72 638
3 497 10 268
3 641 639 640
3 640 102 641
3 639 161 640
3 641 136 639
3 627 372 640
3 640 161 627
3 372 102 640
3 627 31 372
3 489 632 639
3 639 136 489
3 632 161 639
3 489 40 632
3 373 492 641
3 641 102 373
3 492 136 641
3 373 2 492
