# vtk DataFile Version 3.0
this file was written using fslvtkio
ASCII
DATASET POLYDATA
POINTS 970 float
137.644 140.972 101.931
138.357 141.814 102.101
139.041 141.198 101.851
139.272 140.896 101.471
137.716 140.201 101.597
139.423 140.381 101.402
138.464 139.706 101.355
139.617 139.956 101.426
137.317 141.578 101.633
137.693 142.213 101.58
137.356 140.795 101.161
137.633 139.996 100.938
138.904 139.653 100.944
137.634 141.443 100.909
137.654 140.548 100.479
138.447 139.81 100.46
139.18 142.66 106.62
139.597 143.558 106.695
139.304 143.052 107.388
138.924 142.02 107.25
138.946 141.966 106.281
138.965 141.221 106.752
139.112 141.35 105.959
139.689 141.232 106.26
139.865 142.9 105.815
140.313 143.642 105.904
139.608 142.277 105.526
139.28 141.772 105.257
139.616 140.952 105.567
139.346 141.076 104.903
140.206 140.912 104.855
140.143 142.796 105.134
140.671 143.614 105.339
139.845 142.105 104.758
139.321 141.587 104.563
139.443 141.154 104.324
140.035 140.834 104.189
140.508 143.55 104.962
139.957 142.406 104.475
140.414 142.787 104.305
139.487 141.714 103.993
139.363 141.171 103.699
139.669 140.502 103.802
140.048 142.281 103.78
139.709 141.77 103.226
139.402 141.348 103.054
139.954 141.479 102.334
139.836 140.76 103.121
139.701 141.108 102.574
140.447 140.733 102.453
140.069 140.594 102.09
140.763 140.501 102.061
139.977 141.428 101.75
140.716 141.818 101.691
139.965 141.364 101.95
139.861 140.664 101.817
140.309 140.228 101.651
139.585 141.94 101.931
139.422 142.733 102.14
140.784 142.23 101.87
139.862 139.643 101.132
138.327 142.642 101.912
138.693 143.147 101.848
139.443 139.384 100.421
138.096 142.519 101.184
138.349 142.042 100.703
138.318 141.145 100.321
138.569 140.274 100.1
140.371 144.246 107.78
140.603 144.931 107.562
141.053 144.728 108.191
140.573 143.88 108.212
139.776 143.54 107.744
139.939 142.587 108.037
139.73 144.321 107.231
140.569 145.065 106.9
139.064 141.775 107.861
139.474 141.086 107.044
140.284 141.468 106.278
140.295 144.465 106.387
140.829 145.214 106.296
140.411 141.376 105.483
141.171 141.293 104.595
140.727 144.468 105.635
141.065 145.251 105.523
141.042 141.144 104.09
140.679 140.659 103.561
141.536 141.076 103.361
140.949 144.376 104.921
140.604 143.319 104.361
141.074 144.12 104.37
140.586 140.573 103.114
141.578 140.845 102.807
140.698 143.161 103.768
140.606 142.759 103.189
140.911 143.238 103.269
140.195 142.234 102.973
141.038 140.695 102.551
141.453 140.487 101.833
141.093 142.539 102.223
141.446 143.233 102.738
140.882 142.183 102.237
141.085 140.241 101.379
141.418 143.08 102.364
140.45 142.84 101.992
140.648 139.762 100.868
139.415 143.316 101.635
140.294 139.445 100.145
138.779 142.879 101.192
139.261 142.086 100.748
139.936 142.442 100.926
139.365 141.453 100.227
139.249 140.566 99.8859
139.338 139.845 100.03
140.252 141.855 100.295
140.333 141.303 99.9429
140.04 140.558 99.6668
141.354 145.4 107.295
141.932 145.013 107.879
141.418 144.022 108.403
140.759 142.849 108.027
140.322 141.972 107.56
140.998 142.197 106.678
141.423 145.811 106.585
139.652 141.428 107.229
140.876 141.658 105.832
141.486 145.956 105.993
141.016 141.851 105.1
142.126 141.875 104.197
141.654 146.152 105.427
141.936 141.323 103.797
142.296 141.331 103.039
141.183 145.284 104.959
141.608 146.034 104.972
142.484 141.164 102.439
141.504 145.147 104.312
142.138 145.892 104.167
141.182 144.184 104.051
141.865 140.813 102.173
142.433 140.651 101.588
141.828 144.91 103.761
141.462 143.974 103.53
141.923 144.413 103.112
142.107 140.442 101.255
141.581 143.602 102.641
140.981 143.262 102.134
141.16 143.979 102.088
141.685 140.118 100.738
141.271 139.419 100.1
142.351 139.616 99.9853
140.322 143.492 101.762
140.865 143.79 101.615
140.602 139.372 99.6016
141.751 139.257 99.3934
139.997 143.055 101.344
140.367 142.868 101.088
140.946 142.521 100.697
140.378 139.972 99.5243
141.622 139.699 99.101
140.946 142.178 100.311
141.379 141.812 99.8008
141.309 141.096 99.5385
141.321 140.366 99.2324
142.7 144.479 107.775
142.556 145.125 107.101
143.61 144.903 107.152
143.457 143.912 107.166
142.109 143.381 107.674
142.971 143.428 106.717
141.607 142.8 107.009
142.628 143.08 105.921
142.27 145.911 106.677
141.935 142.51 105.68
142.133 146.468 106.296
140.703 141.67 106.326
141.737 141.952 105.187
142.262 146.656 105.733
141.826 141.966 104.75
142.965 142.053 103.813
142.336 146.679 105.11
142.768 141.404 103.434
143.328 141.299 102.745
142.42 146.626 104.6
143.52 141.089 102.224
142.764 146.702 104.055
142.858 140.8 101.913
143.578 140.744 101.225
142.179 145.491 103.477
142.527 146.195 103.45
143.145 140.444 100.886
142.54 140.217 100.523
143.491 139.9 100.119
141.955 144.83 102.905
141.849 144.116 102.283
142.283 144.828 102.29
143.065 139.466 99.499
141.714 144.447 101.676
142.299 144.751 101.76
142.819 139.521 99.0484
141.126 143.772 101.307
141.338 143.372 101.153
141.491 143.044 100.824
142.118 143.515 100.723
142.581 139.871 98.7591
141.986 142.884 100.233
142.404 142.611 99.7736
142.391 142.035 99.5731
142.374 141.293 99.3216
142.241 140.424 98.8213
143.444 145.569 106.452
144.706 144.95 106.419
144.571 143.993 106.499
143.928 143.545 105.948
143.805 143.487 105.184
143.152 146.353 106.106
143.233 142.785 105.065
143.044 146.951 105.972
141.823 142.172 105.381
142.832 142.135 104.684
143.148 147.032 105.402
142.873 142.052 104.293
144.097 141.888 103.475
143.254 147.026 104.81
143.708 141.808 103.12
144.289 141.617 102.575
143.545 147.076 104.278
144.557 141.148 102.066
143.517 146.861 103.716
143.923 141.097 101.622
144.615 140.465 101.038
143.326 146.451 103.15
144.057 140.421 100.618
144.398 139.74 99.8441
142.482 145.234 102.865
142.961 145.36 102.105
144.041 139.616 99.2865
143.218 145.249 101.543
143.968 139.667 98.7629
142.132 144.483 101.384
142.252 144.083 101.11
143.019 143.938 100.511
143.539 140.087 98.5067
142.725 143.384 100.125
143.322 143.101 99.6205
143.624 142.422 99.2536
143.533 141.716 99.0915
143.236 140.854 98.7458
145.747 144.482 106.084
145.036 145.377 106.006
146.302 144.818 105.822
146.475 144.231 105.913
145.208 143.779 106.063
146.129 143.7 105.686
144.898 143.742 105.527
145.632 143.617 105.293
144.313 146.09 105.914
145.058 143.557 105.086
144.1 146.796 105.718
144.47 143.118 104.845
144.096 147.315 105.601
143.169 142.548 104.732
144 142.435 104.222
144.172 147.454 105.122
143.868 142.182 103.906
145.022 141.952 103.277
144.348 147.35 104.553
144.774 141.704 102.945
145.293 141.446 102.407
144.421 147.39 103.963
145.4 141.13 101.859
144.354 147.089 103.381
144.796 140.846 101.382
145.877 140.694 100.908
144.088 146.748 102.897
144.871 140.348 100.475
145.631 140.491 100.552
143.246 145.944 102.597
143.892 145.762 101.907
145.246 139.985 99.8702
145.072 139.878 99.272
144.13 145.524 101.334
144.891 139.888 98.548
143.17 145.065 101.019
143.37 144.566 100.676
144.088 144.227 100.088
144.446 140.477 98.2771
143.671 143.59 99.8236
144.337 143.181 99.2909
144.711 142.7 98.8467
144.795 142.03 98.6293
144.366 141.251 98.3761
145.834 145.708 105.75
147.087 144.817 105.744
147.103 144.276 105.883
146.933 143.611 105.59
146.745 143.55 105.372
145.196 146.629 105.698
146.477 143.613 105.132
145.924 143.373 104.754
146.865 143.057 104.542
145.308 147.032 105.363
144.742 142.897 104.528
145.411 142.637 104.362
145.142 147.516 105.244
144.802 142.64 104.366
144.901 142.341 103.773
145.728 142.262 103.556
145.228 147.646 104.838
145.95 141.911 103.086
145.267 147.51 104.24
145.718 141.625 102.763
146.327 141.432 102.208
145.356 147.378 103.657
146.331 141.22 101.67
145.746 141.107 101.37
146.91 141.014 101.068
145.25 147.327 103.112
146.666 140.733 100.477
145.005 147.058 102.669
146.299 140.603 99.9809
144.106 146.376 102.355
144.835 146.292 101.637
145.822 140.159 99.6439
145.859 140.129 98.8624
144.907 145.851 100.991
145.668 140.275 98.4419
144.005 145.221 100.761
144.445 144.691 100.216
145.35 144.191 99.4612
145.207 140.757 98.1604
144.827 143.705 99.5009
145.371 143.153 98.9786
145.686 142.753 98.586
145.953 141.936 98.2087
145.59 141.239 98.0494
147.421 144.299 106.31
147.956 145.028 106.566
147.879 144.506 107.007
147.761 143.802 106.842
147.324 143.596 106.242
148.046 143.278 106.175
146.852 145.852 105.686
147.729 145.243 106.085
147.757 143.415 105.642
147.345 143.39 105.081
148.02 143.253 104.964
146.097 146.639 105.596
147.599 146.263 105.723
147.3 142.772 104.355
146.227 147.091 105.121
146.55 142.424 104.214
146.251 147.453 104.915
145.895 142.223 103.909
146.738 142.346 103.408
146.205 147.595 104.459
147.213 142.043 103.029
146.538 141.776 102.72
147.186 141.741 102.491
146.217 147.472 103.908
146.963 141.481 102.309
147.17 141.168 101.673
147.872 141.057 101.585
146.277 147.378 103.373
147.593 140.817 100.956
146.278 147.318 102.838
147.359 140.704 100.295
145.948 147.14 102.416
147.221 140.587 99.693
144.923 146.696 102.131
145.48 146.387 101.46
146.483 140.345 99.0315
147.025 140.492 99.0731
145.762 145.719 100.834
144.993 145.376 100.471
145.913 145.14 100.212
146.812 140.537 98.3177
147.268 140.923 97.8706
145.089 144.771 99.9933
146.1 143.409 98.8656
146.061 144.108 99.3058
146.606 142.861 98.2046
146.963 143.464 98.5669
146.846 142.097 97.8355
147.35 142.926 97.9875
146.785 141.121 97.7347
147.501 141.838 97.4969
146.213 140.65 97.9555
148.212 144.217 107.551
148.684 145.046 107.144
149.027 144.541 107.809
148.907 143.558 107.732
148.254 143.507 107.32
148.691 143.241 106.892
148.615 145.321 106.442
148.748 143.348 106.308
148.299 143.269 105.58
148.999 143.339 105.578
148.404 145.838 106.008
148.414 143.16 104.825
146.969 146.846 105.596
148.327 146.476 105.664
148.625 142.756 104.69
147.97 142.491 104.263
148.844 142.448 104.226
147.212 147.216 105.067
147.196 142.21 104.036
147.622 142.131 103.858
147.231 147.44 104.622
147.605 142.206 103.582
147.8 142.119 103.135
148.288 141.805 103.026
147.247 147.544 104.192
148.096 141.641 102.579
148.002 141.338 102.071
148.848 141.147 101.84
147.173 147.49 103.651
148.401 140.671 101.314
147.312 147.287 103.126
148.209 140.79 100.832
147.179 147.181 102.528
148.259 140.774 100.33
148.036 140.443 99.7866
149.016 140.685 99.9036
146.899 147.149 102.062
146.096 146.852 102.02
147.33 146.779 101.614
147.821 140.411 99.03
148.74 140.471 99.3222
146.12 146.091 101.134
145.993 146.556 101.81
146.511 146.007 100.903
147.6 140.68 98.4223
148.401 140.696 98.7739
146.281 144.874 99.7478
146.583 145.363 100.293
147.155 144.801 99.6101
148.097 141.165 98.3137
147.62 141.052 97.7888
146.308 144.353 99.3499
147.387 143.683 98.5479
148.096 143.057 97.9119
148.081 142.241 97.4633
150.053 143.956 107.612
149.749 144.842 107.28
150.773 144.391 107.408
150.939 143.495 107.545
149.77 143.157 107.269
150.828 142.989 107.247
150.322 142.817 106.844
150.999 142.67 106.722
149.449 145.198 106.782
149.576 142.87 106.653
150.189 142.968 106.194
149.366 145.845 106.319
149.583 143.302 105.944
149.477 143.126 105.372
150.315 142.684 105.233
149.292 146.352 105.962
149.333 142.757 104.941
149.812 142.318 104.718
147.865 146.859 105.44
149.139 146.741 105.57
149.78 142.27 104.427
149.119 142.286 103.922
149.96 141.993 103.853
148.122 147.127 104.862
148.652 142.069 103.656
149.191 141.852 103.418
148.393 147.443 104.43
149.009 141.771 103.239
148.865 141.418 102.458
149.544 141.431 102.391
148.197 147.339 103.981
149.649 141.133 101.653
148.23 147.484 103.524
149.571 141.028 101.367
149.238 140.798 100.904
150.127 140.918 100.873
148.351 147.334 103.073
148.122 147.179 102.535
148.969 146.808 102.413
149.115 140.711 100.427
149.945 140.826 100.316
147.8 147.155 102.002
148.441 146.813 101.86
149.598 140.767 99.72
148.04 146.641 101.339
149.369 140.779 99.0939
146.741 146.348 101.257
147.365 145.827 100.711
148.756 141.151 98.6692
147.36 145.559 100.149
147.455 144.416 99.2006
147.783 144.863 99.5492
148.3 144.032 98.9479
148.633 141.396 98.3391
148.109 141.772 97.8421
147.564 143.95 98.8384
148.311 143.227 98.3584
148.595 142.497 97.9018
150.556 145.071 106.984
151.558 144.113 107.146
151.716 143.302 107.358
151.699 142.589 107.152
151.399 142.332 106.482
150.21 145.476 106.512
151.479 142.494 106.079
150.737 142.916 105.891
151.263 142.574 105.666
150.198 146.011 106.155
150.678 142.408 105.504
150.746 142.021 104.93
151.695 141.957 104.828
150.288 146.382 105.741
150.583 141.924 104.46
151.491 141.869 104.224
149.101 146.879 105.163
150.025 146.849 105.482
150.729 141.827 104.15
150.437 141.617 103.595
151.349 141.516 103.483
148.991 147.127 104.806
149.997 147.098 104.948
150.272 141.602 103.207
150.711 141.448 103.036
149.451 147.376 104.342
149.862 141.554 102.928
150.306 141.277 102.178
151.088 141.331 102.119
149.287 147.359 103.886
150.455 141.162 101.449
151.106 140.886 101.413
149.4 147.149 103.514
149.192 147.167 102.971
150.033 146.936 102.763
150.834 140.958 100.839
149.528 146.352 102.248
150.516 141.028 100.244
149.236 146.201 101.805
148.938 146.402 101.308
149.503 145.813 101.099
150.224 141.007 99.6229
148.17 146.206 101.109
148.776 145.77 100.865
149.666 141.164 98.9319
148.017 145.248 100.173
147.897 145.833 100.863
148.353 144.856 99.8008
148.63 145.071 100.247
148.77 144.43 99.5989
148.966 141.589 98.4077
149.825 141.631 98.7486
149.497 142.065 98.5548
148.705 143.344 98.548
148.779 144.147 99.1518
148.949 142.632 98.232
149.246 143.339 98.8355
148.85 142.032 98.1617
149.397 142.595 98.5902
152.299 143.701 107.427
151.76 144.466 106.934
152.764 144.287 107.253
152.887 143.51 107.557
152.41 142.835 107.385
152.785 142.468 107.433
152.13 142.135 107.001
152.851 141.985 107.094
152.671 141.925 106.498
153.343 141.866 106.335
151.204 145.22 106.62
152.181 142.078 106.271
152.825 141.888 105.856
151.088 145.846 106.342
152.221 141.877 105.673
151.833 142.047 105.238
152.7 141.517 105.085
151.205 146.183 105.903
152.312 141.486 104.576
151.094 146.533 105.411
152.495 141.477 104.151
151.753 141.658 103.818
152.472 141.458 103.506
151.051 146.708 104.998
151.867 141.336 103.056
150.233 147.058 104.406
150.757 146.893 104.791
151.771 141.234 102.581
150.38 146.927 103.827
151.027 146.741 103.988
150.973 141.464 102.513
151.78 141.103 101.915
150.224 147.119 103.373
150.901 146.632 103.268
151.721 140.936 101.288
150.648 146.779 102.644
151.512 141.04 100.625
150.597 146.522 102.21
149.855 145.939 101.756
150.066 145.522 101.27
150.702 145.748 101.782
150.975 145.234 101.196
151.16 141.207 100.095
149.668 145.385 100.639
150.503 145.442 100.58
150.821 141.275 99.5764
151.626 141.494 99.6159
151.026 141.783 99.2359
149.07 145.152 100.45
149.898 144.739 100.156
149.321 144.539 99.9496
150.047 144.203 99.6705
150.278 141.375 99.142
150.472 141.954 98.9162
149.999 144.02 99.2907
150.374 142.349 98.4681
149.541 143.833 99.1561
149.991 143.327 98.7566
150.241 142.643 98.5655
154.168 142.453 107.573
154.055 143.305 107.56
154.957 142.98 107.561
154.947 142.391 107.896
154.082 141.877 107.497
154.687 141.815 107.882
154.197 141.481 107.114
155.119 141.518 107.362
153.371 142.815 107.566
153.609 143.768 107.32
153.389 142.064 107.46
153.605 141.733 106.868
154.721 141.36 106.716
154.029 141.476 106.195
155.147 141.202 106.359
152.444 144.935 106.735
153.359 144.283 106.961
153.665 141.522 105.793
154.879 141.112 105.848
154.407 141.14 105.492
155.227 140.91 105.316
152.146 145.235 106.363
153.145 141.46 105.449
153.959 141.299 105.146
154.733 140.893 104.879
152.028 145.762 106.122
153.395 141.153 104.795
154.323 141.208 104.577
151.932 146.342 105.625
153.145 141.118 104.391
153.951 141.171 104.218
152.037 146.406 105.032
153.226 141.259 103.924
152.853 141.374 103.185
153.578 141.243 103.339
151.95 146.34 104.523
152.691 141.144 102.726
153.311 141.003 102.625
151.538 146.585 104.276
151.945 141.056 102.204
152.64 141.022 101.983
151.487 146.569 103.738
152.485 140.929 101.503
151.803 146.368 103.325
151.247 146.328 102.867
152.05 146.005 102.854
152.346 141.045 101.012
151.175 146.266 102.219
151.685 145.868 102.294
152.098 141.383 100.538
151.597 145.612 101.628
151.664 144.916 101.116
152.101 141.52 100.038
151.343 144.795 100.737
150.806 144.903 100.27
151.415 144.535 100.181
152.177 142.034 99.6125
151.701 142.262 99.2634
150.7 143.55 99.5108
150.799 144.308 99.8861
151.203 143.149 99.1851
151.562 143.924 99.6394
151.128 142.43 99.0825
151.972 143.161 99.3291
150.366 143.526 99.0176
150.587 143.1 98.8058
150.75 142.538 98.7853
155.336 142.035 108.344
155.426 142.89 108.252
155.889 142.913 108.699
155.921 142.19 108.77
155.239 141.494 108.072
155.761 141.57 108.387
155.603 141.132 107.724
156.005 140.867 108.033
154.828 143.678 107.401
155.693 143.355 107.691
155.589 141.226 107.034
156.167 140.96 107.217
156.182 141.205 106.61
156.664 140.976 106.602
154.595 143.986 107.032
155.73 141.016 106.09
156.126 140.938 105.733
153.336 144.86 106.636
154.257 144.614 106.826
155.775 140.799 105.11
153.146 145.252 106.312
154.143 145.046 106.503
155.339 140.835 104.674
152.929 145.621 105.993
154.07 145.189 106.13
155.034 141.06 104.35
152.559 146.057 105.591
153.582 145.487 105.671
154.875 141.096 104.051
152.829 146.027 105.017
154.132 141.064 103.784
154.196 141.044 103.151
153.259 145.774 104.79
152.677 146.05 104.358
153.502 145.613 104.2
153.648 141.044 102.337
152.444 146.286 104.004
153.284 145.742 103.718
153.309 140.997 101.788
152.31 146.111 103.537
152.899 145.616 103.377
153.146 141.033 101.273
152.477 145.488 102.373
152.74 145.742 103.039
153.059 145.102 102.319
152.873 141.381 100.912
152.163 145.494 101.899
152.622 144.932 101.688
152.83 141.617 100.34
152.172 144.291 100.69
152.237 144.917 101.357
152.56 143.69 100.403
152.796 144.298 100.927
152.73 143.119 100.15
153.147 143.563 100.728
152.816 142.586 100.011
153.29 142.923 100.415
152.622 142.06 99.9669
153.289 142.247 100.188
152.099 144.148 99.9827
152.304 143.457 99.7544
152.384 142.719 99.5664
157.139 141.128 110.927
157.532 141.623 110.489
158.134 141.219 111.352
157.897 140.498 111.303
157.31 140.695 110.444
157.475 139.874 111.134
157.509 139.982 110.143
158.099 139.551 110.268
157.105 141.531 109.937
157.526 141.84 110.065
156.933 140.983 110.022
157.242 140.487 109.589
157.754 139.909 109.597
156.963 141.566 109.623
157.152 142.205 109.945
157.065 141.106 109.265
157.168 140.75 109.151
157.483 140.186 108.854
156.567 141.679 109.314
156.628 142.469 109.285
157.054 142.558 109.812
156.718 141.202 108.864
157.018 140.978 108.793
157.336 140.808 108.402
157.629 140.392 108.395
156.34 141.687 108.75
156.724 142.836 109.024
156.297 141.256 108.559
156.819 140.9 107.983
157.158 140.721 107.839
156.242 143.259 108.155
156.713 143.003 108.627
156.781 140.866 107.443
157.016 140.743 107.022
155.643 143.881 107.25
156.454 143.642 107.566
156.78 140.755 106.309
155.487 144.462 106.911
156.609 140.907 105.686
155.124 144.831 106.639
156.346 140.677 105.038
155.095 145.061 106.288
156.053 140.804 104.505
154.874 145.023 105.752
155.905 140.902 104.144
153.514 145.654 105.258
154.24 145.115 105.434
155.786 141.028 103.776
153.639 145.623 104.983
154.277 145.174 104.835
154.908 141.135 103.593
154.528 141.083 102.828
154.032 145.079 103.712
154.051 145.277 104.476
154.707 144.841 103.82
154.341 141.204 102.437
153.904 144.985 103.187
154.738 144.576 103.146
154.068 141.216 101.932
153.474 145.272 102.99
154.101 144.696 102.665
153.975 141.255 101.348
154.547 141.468 101.9
154.543 141.773 101.52
153.329 144.539 101.854
153.58 144.974 102.548
153.984 144.401 102.079
153.736 141.541 101.088
154.049 142.085 101.131
153.243 144.486 101.25
153.836 144.006 101.47
153.635 143.775 100.994
153.704 142.908 100.746
154.004 143.294 101.209
153.586 142.172 100.76
154.065 142.674 101.068
153.175 141.691 100.709
158.052 141.863 110.564
158.758 141.316 110.66
158.995 140.659 110.752
158.638 140.173 110.616
158.394 139.98 109.717
158.029 142.262 109.998
157.983 139.897 109.053
157.924 142.33 109.696
157.939 139.932 108.561
157.283 142.659 109.14
157.663 142.371 109.302
158.152 140.298 108.236
157.757 140.433 107.883
157.574 142.883 108.647
157.481 140.543 107.365
157.072 143.244 107.917
157.501 142.957 108.196
157.346 140.69 106.771
156.452 144.054 107.074
157.113 143.462 107.418
157.257 140.618 106.14
156.193 144.377 106.675
157.108 143.761 106.855
157.148 140.878 105.542
156.038 144.592 106.355
156.957 143.999 106.364
156.988 140.832 104.984
155.835 144.888 105.945
156.663 144.184 105.933
156.939 140.897 104.501
155.26 144.827 105.316
156.226 144.551 105.544
156.764 141.053 104.07
154.912 144.721 104.85
155.971 144.455 104.997
155.782 144.474 104.513
156.345 143.991 104.456
156.68 141.171 103.597
154.815 144.744 104.304
155.503 144.453 104.107
156.138 143.76 103.84
155.417 141.161 103.247
156.176 141.275 103.21
155.405 144.421 103.579
155.908 143.866 103.44
155.575 141.177 102.73
156.051 141.513 102.37
154.796 144.145 102.712
155.388 143.951 102.991
155.159 141.425 102.333
155.46 141.906 102.026
154.572 144.105 102.271
155.117 143.662 102.371
154.85 143.402 101.844
154.726 142.701 101.722
155.268 143.104 102.052
154.852 141.998 101.778
155.332 142.513 101.914
154.532 143.829 101.658
154.641 143.209 101.32
154.522 142.461 101.33
158.452 141.808 110.261
159.05 141.358 110.09
159.362 140.792 110.019
158.942 140.268 109.632
158.565 140.178 109.168
158.514 141.79 109.641
158.42 140.012 108.746
158.503 141.913 109.208
158.472 140.072 108.523
158.227 142.309 108.802
158.319 141.953 108.854
158.734 141.441 108.166
158.502 140.592 107.905
158.865 140.956 108.12
158.669 140.391 108.379
158.131 142.516 108.578
158.511 141.973 108.159
158.882 141.464 107.809
158.32 140.763 107.622
157.98 140.695 107.156
157.747 142.905 107.576
158.13 142.593 107.996
157.966 140.702 106.531
157.638 142.979 106.99
158.225 142.513 107.186
157.819 140.88 106.015
157.667 143.342 106.459
158.228 142.65 106.58
157.782 140.875 105.409
157.366 143.483 105.962
158.031 142.965 106.028
157.761 141.017 104.925
157.049 143.919 105.464
157.566 143.108 105.493
157.706 141.173 104.405
156.666 144.013 105.01
157.175 143.385 104.991
157.485 141.396 104.065
156.778 143.428 104.46
157.08 141.573 103.442
156.437 143.169 103.969
156.449 143.147 103.233
156.743 142.45 103.005
156.684 142.728 103.677
156.746 141.663 102.93
157.239 142.174 103.435
155.939 143.442 102.963
156.259 142.718 102.609
156.403 141.905 102.542
155.645 143.518 102.526
155.998 142.945 102.235
156.21 142.201 101.956
158.914 141.513 109.654
159.331 140.982 109.392
158.878 140.494 109.284
158.928 141.394 109.086
159.136 140.896 108.922
158.902 140.428 108.94
158.933 141.578 108.58
159.221 141.002 108.458
158.991 140.484 108.573
158.273 141.84 107.656
158.757 141.669 107.474
158.728 141.074 107.305
158.433 141.906 107.121
158.847 141.469 106.801
158.567 140.92 106.811
158.582 142.047 106.5
159.042 141.554 106.166
158.562 140.979 106.19
158.504 142.3 105.974
158.856 141.795 105.701
158.488 141.177 105.737
158.167 142.604 105.464
158.612 142.044 105.255
158.477 141.309 105.176
157.72 142.733 105.023
158.195 142.152 104.823
158.315 141.507 104.732
157.339 142.863 104.579
157.812 142.312 104.371
158.084 141.66 104.23
156.97 142.915 104.141
157.368 142.558 103.99
157.564 141.902 103.872
POLYGONS 1936  7744
3 0 1 2
3 0 3 4
3 2 3 0
3 4 5 6
3 3 5 4
3 5 7 6
3 8 1 0
3 9 1 8
3 4 10 0
3 10 8 0
3 6 11 4
3 11 10 4
3 12 6 7
3 11 6 12
3 8 13 9
3 10 13 8
3 14 13 10
3 11 14 10
3 15 14 11
3 12 15 11
3 16 17 18
3 16 19 20
3 18 19 16
3 20 21 22
3 19 21 20
3 21 23 22
3 24 17 16
3 25 17 24
3 20 26 16
3 26 24 16
3 22 27 20
3 27 26 20
3 28 22 23
3 28 29 22
3 29 27 22
3 28 30 29
3 31 25 24
3 32 25 31
3 26 33 24
3 33 31 24
3 27 34 26
3 34 33 26
3 29 35 27
3 35 34 27
3 36 29 30
3 35 29 36
3 31 37 32
3 37 38 39
3 37 31 38
3 31 33 38
3 34 40 33
3 40 38 33
3 35 41 34
3 41 40 34
3 42 35 36
3 41 35 42
3 38 43 39
3 40 43 38
3 44 43 40
3 44 45 46
3 44 40 45
3 40 41 45
3 47 41 42
3 47 48 41
3 48 45 41
3 48 49 50
3 47 49 48
3 49 51 50
3 52 46 45
3 53 46 52
3 48 54 45
3 54 52 45
3 50 55 48
3 55 54 48
3 56 50 51
3 55 50 56
3 57 58 59
3 53 57 59
3 52 57 53
3 52 1 57
3 52 2 1
3 3 2 52
3 54 3 52
3 5 3 54
3 55 5 54
3 55 7 5
3 55 56 7
3 56 60 7
3 61 58 57
3 62 58 61
3 1 9 61
3 57 1 61
3 7 60 12
3 60 63 12
3 61 64 62
3 9 64 61
3 9 13 64
3 13 65 64
3 14 66 13
3 13 66 65
3 15 67 14
3 14 67 66
3 63 15 12
3 67 15 63
3 68 69 70
3 68 71 72
3 70 71 68
3 71 73 72
3 74 69 68
3 75 69 74
3 18 17 74
3 18 74 72
3 72 74 68
3 72 73 76
3 72 76 18
3 18 76 19
3 21 19 77
3 19 76 77
3 77 23 21
3 78 23 77
3 79 75 74
3 80 75 79
3 17 25 79
3 74 17 79
3 23 78 81
3 28 23 81
3 81 30 28
3 82 30 81
3 83 80 79
3 84 80 83
3 25 32 83
3 79 25 83
3 85 86 36
3 85 36 82
3 82 36 30
3 85 87 86
3 83 88 84
3 89 90 88
3 37 89 88
3 37 88 83
3 37 83 32
3 37 39 89
3 86 91 42
3 36 86 42
3 92 86 87
3 91 86 92
3 89 93 90
3 94 95 93
3 43 94 93
3 43 93 89
3 43 89 39
3 43 44 96
3 94 43 96
3 44 46 96
3 42 91 47
3 91 92 97
3 91 97 47
3 47 97 49
3 97 51 49
3 98 51 97
3 99 95 94
3 100 95 99
3 96 101 94
3 101 99 94
3 46 53 101
3 96 46 101
3 51 98 56
3 98 102 56
3 99 103 100
3 59 58 104
3 59 104 99
3 59 99 101
3 99 104 103
3 53 59 101
3 56 102 60
3 102 105 60
3 58 62 104
3 104 62 106
3 60 105 63
3 105 107 63
3 62 108 106
3 64 108 62
3 109 110 108
3 109 108 65
3 65 108 64
3 65 66 111
3 109 65 111
3 66 67 112
3 111 66 112
3 67 113 112
3 67 63 113
3 63 107 113
3 109 114 110
3 111 114 109
3 115 114 111
3 112 115 111
3 116 115 112
3 113 116 112
3 70 117 118
3 69 117 70
3 71 70 119
3 70 118 119
3 73 120 121
3 73 71 120
3 71 119 120
3 120 122 121
3 69 75 117
3 117 75 123
3 73 121 76
3 121 122 124
3 121 124 76
3 76 124 77
3 124 78 77
3 125 78 124
3 75 80 123
3 123 80 126
3 78 125 127
3 81 78 127
3 127 82 81
3 128 82 127
3 80 84 126
3 126 84 129
3 82 128 130
3 85 82 130
3 130 87 85
3 131 87 130
3 132 84 88
3 132 133 84
3 133 129 84
3 88 90 132
3 87 131 92
3 131 134 92
3 135 133 132
3 136 133 135
3 90 93 137
3 90 137 132
3 132 137 135
3 93 95 137
3 92 134 138
3 97 92 138
3 138 98 97
3 139 98 138
3 135 140 136
3 140 141 142
3 140 135 141
3 135 137 141
3 95 100 141
3 137 95 141
3 98 139 102
3 139 143 102
3 141 144 142
3 145 146 144
3 103 145 144
3 103 144 141
3 103 141 100
3 103 104 145
3 147 148 105
3 147 105 143
3 143 105 102
3 147 149 148
3 150 146 145
3 151 146 150
3 104 106 150
3 145 104 150
3 148 152 107
3 105 148 107
3 153 148 149
3 152 148 153
3 150 154 151
3 106 154 150
3 106 108 154
3 108 155 154
3 155 108 110
3 156 155 110
3 152 157 113
3 107 152 113
3 158 152 153
3 157 152 158
3 110 159 156
3 114 159 110
3 115 160 114
3 114 160 159
3 116 161 115
3 115 161 160
3 157 116 113
3 157 162 116
3 162 161 116
3 158 162 157
3 163 164 165
3 163 166 167
3 165 166 163
3 167 168 169
3 166 168 167
3 168 170 169
3 118 164 163
3 118 117 164
3 117 171 164
3 119 118 163
3 167 119 163
3 120 119 167
3 169 120 167
3 169 122 120
3 169 170 122
3 170 172 122
3 117 123 171
3 171 123 173
3 122 172 174
3 124 122 174
3 174 125 124
3 175 125 174
3 123 126 173
3 173 126 176
3 125 175 177
3 127 125 177
3 177 128 127
3 178 128 177
3 126 129 176
3 176 129 179
3 128 178 180
3 130 128 180
3 180 131 130
3 181 131 180
3 129 133 179
3 179 133 182
3 131 181 134
3 181 183 134
3 133 136 182
3 182 136 184
3 134 183 185
3 138 134 185
3 185 139 138
3 186 139 185
3 187 136 140
3 187 188 136
3 188 184 136
3 140 142 187
3 189 190 143
3 189 143 186
3 186 143 139
3 189 191 190
3 187 192 188
3 193 194 192
3 144 193 192
3 144 192 187
3 144 187 142
3 144 146 193
3 143 190 147
3 190 149 147
3 190 191 149
3 191 195 149
3 196 194 193
3 197 194 196
3 146 151 196
3 193 146 196
3 149 195 153
3 195 198 153
3 196 199 197
3 151 199 196
3 151 154 199
3 154 200 199
3 201 202 200
3 201 200 155
3 155 200 154
3 155 156 201
3 153 198 158
3 198 203 158
3 201 204 202
3 156 204 201
3 156 159 204
3 159 205 204
3 160 206 159
3 159 206 205
3 161 207 160
3 160 207 206
3 162 208 161
3 161 208 207
3 203 162 158
3 208 162 203
3 165 209 210
3 164 209 165
3 166 165 211
3 165 210 211
3 168 166 212
3 166 211 212
3 212 170 168
3 213 170 212
3 164 171 209
3 209 171 214
3 170 213 172
3 213 215 172
3 171 173 214
3 214 173 216
3 172 215 217
3 174 172 217
3 217 175 174
3 218 175 217
3 173 176 216
3 216 176 219
3 175 218 220
3 177 175 220
3 220 178 177
3 221 178 220
3 176 179 219
3 219 179 222
3 178 221 223
3 180 178 223
3 223 181 180
3 224 181 223
3 179 182 222
3 222 182 225
3 181 224 183
3 224 226 183
3 182 184 225
3 225 184 227
3 183 226 228
3 185 183 228
3 228 186 185
3 229 186 228
3 184 188 227
3 227 188 230
3 186 229 231
3 189 186 231
3 231 191 189
3 232 191 231
3 188 233 230
3 192 233 188
3 233 192 194
3 234 233 194
3 191 232 195
3 232 235 195
3 194 197 234
3 234 197 236
3 195 235 198
3 235 237 198
3 197 238 236
3 199 238 197
3 200 239 199
3 199 239 238
3 239 200 202
3 240 239 202
3 198 237 203
3 237 241 203
3 202 242 240
3 204 242 202
3 205 243 204
3 204 243 242
3 206 244 205
3 205 244 243
3 207 245 206
3 206 245 244
3 208 246 207
3 207 246 245
3 241 208 203
3 246 208 241
3 247 248 249
3 247 250 251
3 249 250 247
3 251 252 253
3 250 252 251
3 252 254 253
3 210 248 247
3 210 209 248
3 209 255 248
3 211 210 247
3 251 211 247
3 212 211 251
3 253 212 251
3 253 213 212
3 253 254 213
3 254 256 213
3 209 214 255
3 255 214 257
3 213 256 215
3 256 258 215
3 214 216 257
3 257 216 259
3 215 258 260
3 217 215 260
3 260 218 217
3 261 218 260
3 216 219 259
3 259 219 262
3 218 261 263
3 220 218 263
3 263 221 220
3 264 221 263
3 219 222 262
3 262 222 265
3 221 264 266
3 223 221 266
3 266 224 223
3 267 224 266
3 222 225 265
3 265 225 268
3 224 267 226
3 267 269 226
3 225 227 268
3 268 227 270
3 226 269 271
3 228 226 271
3 271 229 228
3 272 229 271
3 227 230 270
3 270 230 273
3 274 231 229
3 274 229 275
3 275 229 272
3 231 274 232
3 230 276 273
3 233 276 230
3 276 233 234
3 277 276 234
3 274 275 278
3 278 232 274
3 278 279 232
3 279 235 232
3 234 236 277
3 277 236 280
3 235 279 237
3 279 281 237
3 236 282 280
3 238 282 236
3 239 283 238
3 238 283 282
3 283 239 240
3 284 283 240
3 237 281 241
3 281 285 241
3 240 286 284
3 242 286 240
3 243 287 242
3 242 287 286
3 244 288 243
3 243 288 287
3 245 289 244
3 244 289 288
3 246 290 245
3 245 290 289
3 285 246 241
3 290 246 285
3 249 291 292
3 248 291 249
3 250 249 293
3 249 292 293
3 252 250 294
3 250 293 294
3 294 254 252
3 295 254 294
3 248 255 291
3 291 255 296
3 297 298 256
3 297 256 295
3 295 256 254
3 297 299 298
3 255 257 296
3 296 257 300
3 298 301 258
3 256 298 258
3 302 298 299
3 301 298 302
3 257 259 300
3 300 259 303
3 258 301 260
3 261 304 305
3 260 304 261
3 260 302 304
3 260 301 302
3 304 306 305
3 259 262 303
3 303 262 307
3 261 305 263
3 305 264 263
3 305 306 264
3 306 308 264
3 262 265 307
3 307 265 309
3 264 308 310
3 266 264 310
3 310 267 266
3 311 267 310
3 265 268 309
3 309 268 312
3 313 314 269
3 313 269 311
3 311 269 267
3 313 315 314
3 268 270 312
3 312 270 316
3 269 314 271
3 314 272 271
3 314 315 272
3 315 317 272
3 270 273 316
3 316 273 318
3 272 317 275
3 317 319 275
3 273 320 318
3 276 320 273
3 320 276 277
3 321 320 277
3 275 319 322
3 278 275 322
3 322 279 278
3 323 279 322
3 277 280 321
3 321 280 324
3 279 323 281
3 323 325 281
3 280 326 324
3 282 326 280
3 283 327 282
3 282 327 326
3 327 283 284
3 328 327 284
3 281 325 285
3 325 329 285
3 284 330 328
3 286 330 284
3 287 331 286
3 286 331 330
3 288 332 287
3 287 332 331
3 289 333 288
3 288 333 332
3 290 334 289
3 289 334 333
3 329 290 285
3 334 290 329
3 335 336 337
3 335 338 339
3 337 338 335
3 338 340 339
3 292 291 341
3 335 342 336
3 335 292 342
3 335 293 292
3 341 342 292
3 294 293 335
3 339 294 335
3 295 343 344
3 294 343 295
3 294 340 343
3 294 339 340
3 343 345 344
3 341 346 347
3 341 291 346
3 291 296 346
3 342 341 347
3 295 344 297
3 344 299 297
3 344 345 299
3 345 348 299
3 296 300 346
3 346 300 349
3 299 348 302
3 348 350 302
3 300 303 349
3 349 303 351
3 302 350 352
3 304 302 352
3 352 306 304
3 353 306 352
3 303 307 351
3 351 307 354
3 355 356 308
3 355 308 353
3 353 308 306
3 355 357 356
3 307 309 354
3 354 309 358
3 308 356 310
3 311 359 360
3 310 359 311
3 310 357 359
3 310 356 357
3 359 361 360
3 309 312 358
3 358 312 362
3 311 360 313
3 360 315 313
3 360 361 315
3 361 363 315
3 312 316 362
3 362 316 364
3 315 363 317
3 363 365 317
3 316 318 364
3 364 318 366
3 317 365 319
3 365 367 319
3 318 368 366
3 320 368 318
3 368 320 321
3 369 368 321
3 370 322 319
3 370 319 371
3 371 319 367
3 322 370 323
3 372 324 373
3 372 369 324
3 369 321 324
3 372 373 374
3 375 370 371
3 376 375 371
3 323 375 325
3 370 375 323
3 324 326 373
3 373 377 374
3 373 326 377
3 326 327 377
3 328 378 379
3 328 379 327
3 327 379 377
3 378 380 381
3 379 378 381
3 380 382 383
3 381 380 383
3 382 384 385
3 383 382 385
3 376 385 384
3 376 384 375
3 375 384 386
3 325 386 329
3 375 386 325
3 328 330 378
3 331 378 330
3 380 378 331
3 332 380 331
3 382 380 332
3 333 382 332
3 384 382 333
3 334 384 333
3 386 384 334
3 329 386 334
3 387 388 389
3 387 390 391
3 389 390 387
3 390 392 391
3 337 388 387
3 337 336 388
3 336 393 388
3 338 337 387
3 391 338 387
3 340 394 395
3 338 394 340
3 338 392 394
3 338 391 392
3 394 396 395
3 336 342 393
3 393 342 397
3 340 395 343
3 395 345 343
3 395 396 345
3 396 398 345
3 347 399 400
3 346 399 347
3 397 342 347
3 400 397 347
3 401 402 348
3 401 348 398
3 398 348 345
3 401 403 402
3 346 349 399
3 399 349 404
3 402 405 350
3 348 402 350
3 406 402 403
3 405 402 406
3 349 351 404
3 404 351 407
3 350 405 352
3 353 408 409
3 352 408 353
3 352 406 408
3 352 405 406
3 408 410 409
3 351 354 407
3 407 354 411
3 353 409 355
3 357 412 413
3 355 412 357
3 355 410 412
3 355 409 410
3 412 414 413
3 354 358 411
3 411 358 415
3 357 413 359
3 413 361 359
3 413 414 361
3 414 416 361
3 358 362 415
3 415 362 417
3 361 416 363
3 416 418 363
3 362 364 417
3 417 364 419
3 420 421 365
3 420 365 418
3 418 365 363
3 420 422 421
3 423 366 424
3 423 419 366
3 419 364 366
3 423 424 425
3 421 426 367
3 365 421 367
3 427 421 422
3 426 421 427
3 366 368 424
3 369 428 429
3 368 369 429
3 368 429 425
3 368 425 424
3 429 428 430
3 426 431 371
3 367 426 371
3 432 426 427
3 431 426 432
3 369 372 428
3 374 433 434
3 372 374 434
3 372 434 430
3 372 430 428
3 434 433 435
3 431 436 437
3 431 437 371
3 371 437 376
3 432 436 431
3 374 377 433
3 433 438 435
3 433 377 438
3 377 379 438
3 381 439 379
3 379 439 438
3 383 440 381
3 381 440 439
3 385 441 383
3 383 441 440
3 437 385 376
3 441 385 437
3 442 443 444
3 442 445 446
3 444 445 442
3 446 447 448
3 445 447 446
3 447 449 448
3 389 443 442
3 389 388 443
3 388 450 443
3 390 389 442
3 446 390 442
3 392 390 446
3 392 446 451
3 451 446 448
3 452 448 449
3 451 448 452
3 388 393 450
3 450 393 453
3 392 451 394
3 396 454 455
3 394 454 396
3 394 452 454
3 394 451 452
3 454 456 455
3 393 397 453
3 453 397 457
3 455 458 398
3 396 455 398
3 459 455 456
3 458 455 459
3 400 460 461
3 399 460 400
3 457 397 400
3 461 457 400
3 398 458 401
3 403 462 463
3 401 462 403
3 401 459 462
3 401 458 459
3 462 464 463
3 399 404 460
3 460 404 465
3 463 466 406
3 403 463 406
3 467 463 464
3 466 463 467
3 404 407 465
3 465 407 468
3 406 466 408
3 410 469 470
3 408 469 410
3 408 467 469
3 408 466 467
3 469 471 470
3 407 411 468
3 468 411 472
3 410 470 412
3 470 414 412
3 470 471 414
3 471 473 414
3 411 415 472
3 472 415 474
3 475 476 416
3 475 416 473
3 473 416 414
3 475 477 476
3 478 417 479
3 478 474 417
3 474 415 417
3 478 479 480
3 476 481 418
3 416 476 418
3 482 476 477
3 481 476 482
3 479 419 483
3 417 419 479
3 484 480 479
3 483 484 479
3 418 481 420
3 481 422 420
3 481 482 422
3 482 485 422
3 419 423 483
3 483 423 425
3 483 425 484
3 484 425 486
3 422 485 427
3 485 487 427
3 425 488 486
3 429 488 425
3 488 429 430
3 489 488 430
3 427 487 432
3 487 490 432
3 430 491 489
3 434 491 430
3 435 492 493
3 435 493 434
3 434 493 491
3 493 492 494
3 436 495 496
3 437 436 496
3 490 436 432
3 495 436 490
3 435 438 492
3 492 497 494
3 492 438 497
3 438 439 497
3 440 498 439
3 439 498 497
3 441 499 440
3 440 499 498
3 496 441 437
3 499 441 496
3 444 500 501
3 443 500 444
3 445 444 502
3 444 501 502
3 447 445 503
3 445 502 503
3 503 449 447
3 504 449 503
3 443 450 500
3 500 450 505
3 506 507 452
3 506 452 504
3 504 452 449
3 506 508 507
3 450 453 505
3 505 453 509
3 452 507 454
3 456 510 511
3 454 510 456
3 454 508 510
3 454 507 508
3 510 512 511
3 453 457 509
3 509 457 513
3 511 514 459
3 456 511 459
3 515 511 512
3 514 511 515
3 461 460 516
3 461 516 517
3 461 517 457
3 457 517 513
3 459 514 462
3 464 518 519
3 462 518 464
3 462 515 518
3 462 514 515
3 518 520 519
3 516 521 522
3 516 460 521
3 460 465 521
3 517 516 522
3 519 523 467
3 464 519 467
3 524 519 520
3 523 519 524
3 465 468 521
3 521 468 525
3 467 523 469
3 471 526 527
3 469 526 471
3 469 524 526
3 469 523 524
3 526 528 527
3 468 472 525
3 525 472 529
3 527 530 473
3 471 527 473
3 531 527 528
3 530 527 531
3 532 474 533
3 532 529 474
3 529 472 474
3 532 533 534
3 473 530 475
3 530 477 475
3 530 531 477
3 531 535 477
3 474 478 533
3 533 478 480
3 533 480 534
3 534 480 536
3 477 535 482
3 535 537 482
3 538 484 539
3 538 536 484
3 536 480 484
3 538 539 540
3 482 537 485
3 537 541 485
3 539 486 542
3 484 486 539
3 543 540 539
3 542 543 539
3 485 541 487
3 541 544 487
3 486 488 542
3 489 545 546
3 488 489 546
3 488 546 543
3 488 543 542
3 545 547 548
3 546 545 548
3 548 547 549
3 550 551 552
3 550 544 551
3 550 490 544
3 490 487 544
3 489 491 545
3 493 545 491
3 547 545 493
3 494 553 554
3 493 494 554
3 493 554 549
3 493 549 547
3 553 555 556
3 554 553 556
3 555 557 558
3 556 555 558
3 552 558 557
3 550 552 557
3 550 557 496
3 550 496 495
3 490 550 495
3 494 497 553
3 498 553 497
3 555 553 498
3 499 555 498
3 557 555 499
3 496 557 499
3 559 560 561
3 559 562 563
3 561 562 559
3 563 564 565
3 562 564 563
3 565 566 567
3 564 566 565
3 566 568 567
3 501 560 559
3 501 500 560
3 500 569 560
3 502 501 559
3 563 502 559
3 503 502 563
3 565 503 563
3 504 503 565
3 504 565 570
3 570 565 567
3 571 567 568
3 570 567 571
3 500 505 569
3 569 505 572
3 504 570 506
3 508 573 574
3 506 573 508
3 506 571 573
3 506 570 571
3 573 575 574
3 505 509 572
3 572 509 576
3 508 574 510
3 574 512 510
3 574 575 512
3 575 577 512
3 509 513 576
3 576 513 578
3 579 580 515
3 579 515 577
3 577 515 512
3 579 581 580
3 513 517 578
3 578 517 582
3 515 580 518
3 580 520 518
3 580 581 520
3 581 583 520
3 522 521 584
3 522 584 585
3 522 585 517
3 517 585 582
3 520 583 524
3 583 586 524
3 584 525 587
3 521 525 584
3 588 585 584
3 587 588 584
3 524 586 589
3 526 524 589
3 589 528 526
3 590 528 589
3 587 529 591
3 525 529 587
3 592 588 587
3 591 592 587
3 528 590 531
3 590 593 531
3 529 532 591
3 591 532 534
3 591 534 592
3 592 534 594
3 531 593 535
3 593 595 535
3 596 536 597
3 596 594 536
3 594 534 536
3 597 598 599
3 596 597 599
3 599 598 600
3 535 595 537
3 595 601 537
3 536 538 597
3 540 597 538
3 540 602 597
3 602 598 597
3 603 600 598
3 602 603 598
3 604 605 606
3 604 601 605
3 604 541 601
3 541 537 601
3 602 543 607
3 540 543 602
3 608 603 602
3 608 602 609
3 609 602 607
3 608 609 610
3 611 604 606
3 612 611 606
3 541 611 544
3 604 611 541
3 543 546 607
3 548 607 546
3 609 607 548
3 609 548 549
3 609 549 610
3 610 549 613
3 551 611 612
3 551 612 552
3 552 612 614
3 544 611 551
3 549 615 613
3 554 615 549
3 556 616 554
3 554 616 615
3 558 617 556
3 556 617 616
3 614 558 552
3 617 558 614
3 618 619 620
3 618 621 622
3 620 621 618
3 622 623 624
3 621 623 622
3 623 625 624
3 626 619 618
3 627 619 626
3 622 628 618
3 628 626 618
3 624 629 622
3 629 628 622
3 630 624 625
3 630 631 624
3 631 629 624
3 630 632 631
3 561 633 634
3 560 633 561
3 627 626 562
3 627 562 634
3 634 562 561
3 564 562 626
3 628 564 626
3 566 564 628
3 629 566 628
3 568 566 629
3 568 629 635
3 635 629 631
3 636 631 632
3 636 637 631
3 637 635 631
3 636 638 637
3 560 569 633
3 633 569 639
3 635 640 571
3 568 635 571
3 637 641 635
3 641 640 635
3 642 637 638
3 641 637 642
3 569 572 639
3 639 572 643
3 571 640 573
3 575 573 640
3 575 640 644
3 644 640 641
3 645 641 642
3 644 641 645
3 572 576 643
3 643 576 646
3 644 647 577
3 575 644 577
3 648 644 645
3 647 644 648
3 576 578 646
3 646 578 649
3 577 647 579
3 581 650 651
3 579 650 581
3 579 648 650
3 579 647 648
3 650 652 651
3 578 582 649
3 649 582 653
3 651 654 583
3 581 651 583
3 655 651 652
3 654 651 655
3 582 585 653
3 653 585 656
3 654 657 586
3 583 654 586
3 658 654 655
3 657 654 658
3 585 588 656
3 656 588 659
3 586 657 589
3 657 590 589
3 657 658 590
3 658 660 590
3 661 592 662
3 661 659 592
3 659 588 592
3 661 662 663
3 590 660 593
3 660 664 593
3 662 594 665
3 592 594 662
3 666 663 662
3 665 666 662
3 593 664 595
3 664 667 595
3 594 596 665
3 665 668 666
3 665 596 668
3 596 599 668
3 668 599 600
3 669 668 600
3 595 667 601
3 667 670 601
3 671 603 672
3 671 669 603
3 669 600 603
3 671 672 673
3 605 674 675
3 606 605 675
3 670 605 601
3 674 605 670
3 603 608 672
3 610 676 677
3 608 610 677
3 608 677 673
3 608 673 672
3 676 678 679
3 677 676 679
3 678 680 681
3 679 678 681
3 680 675 681
3 680 612 675
3 612 606 675
3 676 613 682
3 610 613 676
3 678 676 683
3 683 676 682
3 680 678 684
3 684 678 683
3 612 684 614
3 680 684 612
3 613 615 682
3 616 682 615
3 683 682 616
3 617 683 616
3 684 683 617
3 614 684 617
3 685 686 687
3 685 688 689
3 687 688 685
3 689 690 691
3 688 690 689
3 690 692 691
3 620 693 694
3 619 693 620
3 686 685 621
3 686 621 694
3 694 621 620
3 623 621 685
3 689 623 685
3 625 623 689
3 625 689 695
3 695 689 691
3 696 691 692
3 696 697 691
3 697 695 691
3 696 698 697
3 619 627 693
3 693 627 699
3 625 695 630
3 632 630 695
3 632 695 700
3 700 695 697
3 701 697 698
3 700 697 701
3 634 633 702
3 634 702 703
3 634 703 627
3 627 703 699
3 632 700 636
3 700 638 636
3 700 701 638
3 701 704 638
3 702 639 705
3 633 639 702
3 706 703 702
3 705 706 702
3 638 704 642
3 704 707 642
3 705 643 708
3 639 643 705
3 709 706 705
3 708 709 705
3 642 707 645
3 707 710 645
3 708 711 712
3 708 643 711
3 643 646 711
3 709 708 712
3 645 710 648
3 710 713 648
3 646 649 711
3 711 649 714
3 648 713 715
3 650 648 715
3 715 652 650
3 716 652 715
3 717 653 718
3 717 714 653
3 714 649 653
3 717 718 719
3 652 716 655
3 716 720 655
3 718 656 721
3 653 656 718
3 722 719 718
3 721 722 718
3 655 720 658
3 720 723 658
3 721 659 724
3 656 659 721
3 725 722 721
3 724 725 721
3 658 723 660
3 723 726 660
3 659 661 724
3 663 727 728
3 661 663 728
3 661 728 725
3 661 725 724
3 728 727 729
3 660 726 664
3 726 730 664
3 727 666 731
3 663 666 727
3 732 729 727
3 731 732 727
3 664 730 667
3 730 733 667
3 666 668 731
3 669 734 735
3 668 669 735
3 668 735 732
3 668 732 731
3 734 736 737
3 735 734 737
3 736 738 739
3 737 736 739
3 738 740 741
3 739 738 741
3 740 742 743
3 741 740 743
3 742 733 743
3 742 670 733
3 670 667 733
3 669 671 734
3 673 734 671
3 673 744 734
3 744 736 734
3 738 736 745
3 745 736 744
3 740 738 746
3 746 738 745
3 674 746 675
3 674 742 746
3 742 740 746
3 670 742 674
3 673 677 744
3 679 744 677
3 745 744 679
3 681 745 679
3 746 745 681
3 675 746 681
3 747 748 749
3 747 750 751
3 749 750 747
3 751 752 753
3 750 752 751
3 752 754 753
3 755 748 747
3 756 748 755
3 751 757 747
3 757 755 747
3 753 758 751
3 758 757 751
3 759 753 754
3 758 753 759
3 760 756 755
3 761 756 760
3 757 762 755
3 762 760 755
3 758 763 757
3 763 762 757
3 764 758 759
3 763 758 764
3 765 766 767
3 761 765 767
3 761 760 765
3 760 768 765
3 762 769 760
3 769 768 760
3 770 763 771
3 770 769 763
3 769 762 763
3 764 771 763
3 772 766 765
3 773 766 772
3 768 774 765
3 774 772 765
3 769 775 768
3 775 774 768
3 776 769 770
3 775 769 776
3 687 777 778
3 686 777 687
3 773 772 688
3 773 688 778
3 778 688 687
3 690 688 772
3 774 690 772
3 692 690 774
3 692 774 779
3 779 774 775
3 780 775 776
3 779 775 780
3 694 781 782
3 693 781 694
3 777 686 694
3 782 777 694
3 692 779 696
3 779 698 696
3 779 780 698
3 780 783 698
3 693 699 781
3 781 699 784
3 698 783 701
3 783 785 701
3 699 703 784
3 784 703 786
3 701 785 704
3 785 787 704
3 703 706 786
3 786 706 788
3 704 787 707
3 787 789 707
3 706 709 788
3 788 709 790
3 707 789 710
3 789 791 710
3 712 711 792
3 712 792 793
3 712 793 709
3 709 793 790
3 710 791 713
3 791 794 713
3 792 714 795
3 711 714 792
3 796 793 792
3 795 796 792
3 713 794 797
3 715 713 797
3 797 716 715
3 798 716 797
3 714 717 795
3 719 799 800
3 717 719 800
3 717 800 796
3 717 796 795
3 800 799 801
3 716 798 720
3 798 802 720
3 799 722 803
3 719 722 799
3 804 801 799
3 803 804 799
3 720 802 723
3 802 805 723
3 803 725 806
3 722 725 803
3 807 804 803
3 806 807 803
3 808 809 810
3 808 805 809
3 808 726 805
3 726 723 805
3 725 728 806
3 729 811 812
3 728 729 812
3 728 812 807
3 728 807 806
3 812 811 813
3 814 808 810
3 815 814 810
3 726 814 730
3 808 814 726
3 811 732 816
3 729 732 811
3 817 813 811
3 817 811 818
3 818 811 816
3 818 819 820
3 817 818 820
3 819 821 822
3 820 819 822
3 815 822 821
3 815 821 814
3 814 821 823
3 730 823 733
3 814 823 730
3 732 735 816
3 737 816 735
3 818 816 737
3 739 818 737
3 819 818 739
3 741 819 739
3 821 819 741
3 743 821 741
3 823 821 743
3 733 823 743
3 749 824 825
3 748 824 749
3 750 749 826
3 749 825 826
3 752 750 827
3 750 826 827
3 827 754 752
3 828 754 827
3 748 756 824
3 824 756 829
3 754 828 759
3 828 830 759
3 756 761 829
3 829 761 831
3 759 830 764
3 830 832 764
3 767 833 834
3 766 833 767
3 831 761 767
3 834 831 767
3 771 835 836
3 770 771 836
3 832 771 764
3 835 771 832
3 766 773 833
3 833 773 837
3 770 836 776
3 836 838 776
3 778 839 840
3 777 839 778
3 837 773 778
3 840 837 778
3 776 838 780
3 838 841 780
3 782 781 842
3 782 842 843
3 782 843 777
3 777 843 839
3 780 841 783
3 841 844 783
3 842 784 845
3 781 784 842
3 846 843 842
3 845 846 842
3 783 844 785
3 844 847 785
3 845 786 848
3 784 786 845
3 849 846 845
3 848 849 845
3 785 847 787
3 847 850 787
3 848 788 851
3 786 788 848
3 852 849 848
3 851 852 848
3 787 850 789
3 850 853 789
3 851 790 854
3 788 790 851
3 855 852 851
3 854 855 851
3 789 853 791
3 853 856 791
3 854 793 857
3 790 793 854
3 858 855 854
3 858 854 859
3 859 854 857
3 858 859 860
3 791 856 794
3 856 861 794
3 857 796 862
3 793 796 857
3 859 857 863
3 863 857 862
3 864 860 859
3 863 864 859
3 865 797 794
3 865 794 866
3 866 794 861
3 797 865 798
3 796 800 862
3 801 862 800
3 801 867 862
3 867 863 862
3 868 864 863
3 867 868 863
3 869 865 866
3 870 869 866
3 798 869 802
3 865 869 798
3 867 804 871
3 801 804 867
3 872 868 867
3 871 872 867
3 873 869 870
3 874 873 870
3 802 873 805
3 869 873 802
3 871 807 875
3 804 807 871
3 876 872 871
3 876 871 877
3 877 871 875
3 877 878 879
3 876 877 879
3 878 880 881
3 879 878 881
3 874 881 880
3 873 874 880
3 873 880 810
3 873 810 809
3 805 873 809
3 807 812 875
3 813 875 812
3 813 882 875
3 882 877 875
3 878 877 883
3 883 877 882
3 880 878 884
3 884 878 883
3 810 884 815
3 880 884 810
3 813 817 882
3 820 882 817
3 883 882 820
3 822 883 820
3 884 883 822
3 815 884 822
3 825 885 886
3 824 885 825
3 826 825 887
3 825 886 887
3 827 826 888
3 826 887 888
3 888 828 827
3 889 828 888
3 824 829 885
3 885 829 890
3 828 889 830
3 889 891 830
3 829 831 890
3 890 831 892
3 830 891 832
3 891 893 832
3 834 833 894
3 895 892 831
3 895 831 894
3 895 894 896
3 894 831 834
3 896 897 898
3 895 896 898
3 897 836 835
3 897 835 898
3 898 835 899
3 893 835 832
3 899 835 893
3 894 900 901
3 894 833 900
3 833 837 900
3 896 894 901
3 902 896 901
3 897 896 902
3 903 897 902
3 903 836 897
3 903 904 836
3 904 838 836
3 840 839 905
3 840 905 906
3 840 906 837
3 837 906 900
3 838 904 841
3 904 907 841
3 905 843 908
3 839 843 905
3 909 906 905
3 908 909 905
3 841 907 844
3 907 910 844
3 908 846 911
3 843 846 908
3 912 909 908
3 911 912 908
3 844 910 847
3 910 913 847
3 911 849 914
3 846 849 911
3 915 912 911
3 914 915 911
3 847 913 850
3 913 916 850
3 914 852 917
3 849 852 914
3 918 915 914
3 917 918 914
3 850 916 853
3 916 919 853
3 917 855 920
3 852 855 917
3 921 918 917
3 920 921 917
3 853 919 856
3 919 922 856
3 855 858 920
3 920 858 860
3 920 860 921
3 921 860 923
3 856 922 861
3 922 924 861
3 925 864 926
3 925 923 864
3 923 860 864
3 926 927 928
3 925 926 928
3 927 929 930
3 928 927 930
3 929 924 930
3 929 866 924
3 866 861 924
3 926 868 931
3 864 868 926
3 927 926 932
3 932 926 931
3 929 927 933
3 933 927 932
3 866 933 870
3 929 933 866
3 931 872 934
3 868 872 931
3 932 931 935
3 935 931 934
3 933 932 936
3 936 932 935
3 870 936 874
3 933 936 870
3 872 876 934
3 879 934 876
3 935 934 879
3 881 935 879
3 936 935 881
3 874 936 881
3 886 885 937
3 886 938 887
3 937 938 886
3 887 939 888
3 938 939 887
3 888 939 889
3 937 890 940
3 885 890 937
3 938 937 941
3 941 937 940
3 939 938 942
3 942 938 941
3 889 942 891
3 939 942 889
3 940 892 943
3 890 892 940
3 941 940 944
3 944 940 943
3 942 941 945
3 945 941 944
3 891 945 893
3 942 945 891
3 892 895 943
3 898 943 895
3 944 943 898
3 899 944 898
3 945 944 899
3 893 945 899
3 901 900 946
3 901 947 902
3 946 947 901
3 902 948 903
3 947 948 902
3 903 948 904
3 946 906 949
3 900 906 946
3 947 946 950
3 950 946 949
3 948 947 951
3 951 947 950
3 904 951 907
3 948 951 904
3 949 909 952
3 906 909 949
3 950 949 953
3 953 949 952
3 951 950 954
3 954 950 953
3 907 954 910
3 951 954 907
3 952 912 955
3 909 912 952
3 953 952 956
3 956 952 955
3 954 953 957
3 957 953 956
3 910 957 913
3 954 957 910
3 955 915 958
3 912 915 955
3 956 955 959
3 959 955 958
3 957 956 960
3 960 956 959
3 913 960 916
3 957 960 913
3 958 918 961
3 915 918 958
3 959 958 962
3 962 958 961
3 960 959 963
3 963 959 962
3 916 963 919
3 960 963 916
3 961 921 964
3 918 921 961
3 962 961 965
3 965 961 964
3 963 962 966
3 966 962 965
3 919 966 922
3 963 966 919
3 964 923 967
3 921 923 964
3 965 964 968
3 968 964 967
3 966 965 969
3 969 965 968
3 922 969 924
3 966 969 922
3 923 925 967
3 928 967 925
3 968 967 928
3 930 968 928
3 969 968 930
3 924 969 930
