# vtk DataFile Version 3.0
this file was written using fslvtkio
ASCII
DATASET POLYDATA
POINTS 642 float
143.502 122.953 86.55
150.05 127.8 96.8838
155.075 121.37 102.657
148.92 113.634 100.451
156.103 117.266 94.1191
137.799 121.531 98.8854
143.202 123.929 102.944
162.274 118.977 99.601
150.296 123.629 92.9409
157.901 115.187 101.437
148.266 119.706 100.302
140.834 125.875 96.2269
156.296 121.209 96.2271
153.254 120.621 93.2507
160.227 117.029 97.7547
164.238 114.478 103.497
159.582 113.097 98.6784
138.832 126.186 101.177
139.15 122.634 103.823
134.258 125.092 98.2172
145.362 122.293 101.163
143.034 119.891 101.348
153.098 115.061 96.368
149.634 120.07 92.2878
145.611 118.459 94.5027
143.252 118.94 97.4823
137.086 122.908 92.1369
157.007 123.498 98.2361
161.48 118.888 104.95
152.936 125.107 101.396
145.88 126.876 99.834
149.406 122.436 103.976
141.129 124.835 91.3766
147.815 125.653 84.803
145.576 127.055 90.6953
145.485 126.99 96.5182
150.313 125.378 95.344
148.499 116.924 99.9017
152.93 116.115 104.147
153.312 113.581 101.876
151.935 120.125 101.885
157.353 116.907 105.475
154.835 120.835 95.2004
157.25 119.066 94.9024
158.569 119.55 96.2133
158.283 117.286 95.7223
155.134 118.752 92.9914
151.234 121.721 94.4966
152.416 121.924 96.2386
159.521 120.826 96.9632
161.944 117.769 98.6207
164.524 115.57 98.607
161.564 114.912 97.0613
162.822 113.463 101.034
158.208 114.987 96.2853
165.654 116.601 101.31
160.308 114.416 103.308
158.839 114.219 100.22
136.958 124.989 103.542
133.33 124.578 102.3
135.817 125.624 100.639
134.01 123.585 98.4707
138.571 121.975 101.155
141.152 123.353 103.794
140.499 125.292 103.013
139.668 125.738 98.9172
137.452 125.785 96.882
143.778 120.463 103.042
140.781 121.467 101.998
142.122 121.875 103.783
140.179 120.796 100.269
145.682 119.315 101.775
146.952 120.685 101.115
143.929 123.334 101.756
151.717 116.872 93.7729
147.264 119.437 92.8378
149.526 116.158 95.2796
144.402 120.57 90.4901
147.36 121.255 89.0318
153.11 118.335 92.916
154.822 116.06 94.6838
150.837 114.052 98.155
147.619 115.843 97.0182
143.407 118.5 95.3458
141.474 120.613 92.3462
139.622 120.657 94.7199
140.353 122.746 89.1491
146.065 116.393 98.3826
139.886 120.5 97.759
136.211 122.192 95.7421
159.325 121.699 100.886
157.131 122.292 102.519
155.191 124.137 99.8983
154.303 123.013 101.923
157.787 119.866 105.669
163.037 118.692 102.145
160.35 121.44 98.2881
153.212 125.732 97.7116
151.526 126.526 99.092
150.253 125.658 101.441
151.356 123.498 104.065
148.404 124.631 101.623
152.319 122.21 102.79
147.947 127.996 98.1923
144.331 125.603 101.388
145.928 124.239 101.193
144.32 125.39 87.6515
146.174 126.727 87.3465
143.42 125.544 91.7135
147.923 127.147 88.1209
149.34 125.296 87.6776
145.832 124.442 84.6458
142.25 124.265 88.006
140.337 125.507 94.2079
143.172 125.636 94.6814
145.358 126.919 93.8229
147.672 127.569 90.8415
148.01 128.426 92.8161
150.294 124.145 94.5186
143.049 125.903 96.9897
147.213 129.075 95.3376
150.461 127.118 95.6046
150.966 116.754 101.388
153.03 115.148 102.288
151.329 114.878 101.069
155.837 114.519 101.316
155.441 115.191 103.803
150.833 118.64 100.531
148.17 118.813 99.6761
148.706 115.79 99.5352
151.289 114.073 100.138
154.539 118.171 104.355
155.265 116.057 105.539
152.486 118.071 102.999
157.906 115.279 104.696
156.344 118.965 104.859
153.625 120.76 102.204
149.876 120.528 100.093
151.326 120.314 92.4271
150.075 122.404 90.6878
148.735 122.147 89.1203
138.795 124.032 91.1813
137.262 124.959 94.3151
134.557 124.374 94.6814
156.104 113.953 99.7758
155.723 114.789 97.5225
153.712 113.963 98.8148
145.601 118.417 98.0119
142.945 119.989 98.5144
145.521 118.656 100.131
153.09 122.806 96.7956
156.734 122.839 96.436
153.657 124.366 96.6796
144.364 128.516 97.7289
141.966 127.019 100.794
142.27 126.401 98.7642
159.747 117.085 107.029
164.282 116.022 106.316
160.257 115.772 105.458
148.93 120.813 102.323
147.542 122.152 102.946
150.818 121.267 102.646
155.682 120.208 95.0531
157.604 119.665 95.3194
156.262 120.451 95.647
159.342 118.301 97.0221
158.383 118.399 96.0406
155.382 119.521 94.5838
154.112 120.651 94.3743
155.614 121.157 95.6974
157.485 120.406 96.3327
157.764 118.276 95.0705
156.523 118.669 93.8521
156.862 117.968 94.5056
154.303 119.534 93.2912
159.485 117.244 96.3826
157.04 117.265 95.2627
155.752 118.007 93.3584
153.106 121.396 94.7488
153.583 121.393 95.9183
152.065 121.802 95.3298
154.118 121.747 96.1112
152.086 121.271 93.9773
150.654 122.511 93.9128
151.177 122.917 94.5734
159.198 119.984 96.6243
160.113 118.56 97.693
160.375 119.273 97.8684
161.083 117.21 98.2865
158.106 120.895 96.7045
160.8 119.935 98.5433
162.128 118.531 98.9578
162.979 115.206 97.8172
163.112 114.196 98.2542
164.57 114.106 99.6953
161.264 113.682 99.359
161.271 113.676 97.7363
161.067 115.975 97.4793
162.488 116.178 97.8301
165.476 114.481 101.258
163.855 113.68 102.238
159.681 114.922 96.8452
159.768 116.118 96.4006
158.09 116.306 95.7835
159.353 113.736 97.2365
157.089 116.051 95.4543
163.319 116.696 98.3443
165.765 115.976 100.115
164.27 117.266 99.2817
166.022 115.249 102.66
164.371 117.743 100.108
161.621 113.689 102.298
160.508 113.604 100.967
159.657 114.41 101.601
159.346 113.562 99.6867
161.673 114.577 102.893
159.081 114.792 102.398
158.561 115.087 100.28
135.225 124.579 103.285
134.049 125.317 101.63
135.65 125.21 102.555
134.327 125.636 99.7149
132.98 125.249 100.267
136.44 123.342 103.507
137.589 123.731 104.208
137.346 125.589 102.475
137.113 125.68 101.173
133.241 124.185 100.626
135.835 122.999 102.208
135.914 122.645 100.42
138.653 122.269 102.627
133.35 124.564 98.4113
135.815 122.349 98.9159
137.994 121.563 100.264
138.744 124.151 104.102
138.369 125.481 103.211
140.534 124.363 103.832
139.096 126.236 102.04
139.837 123.1 104.193
142.243 123.71 103.704
142.01 124.668 103.149
137.5 125.972 99.5368
136.294 125.724 98.6523
138.466 125.685 98.0711
135.409 125.695 97.45
138.839 126.173 99.8905
140.63 125.54 97.6639
139.568 125.683 96.5952
142.442 120.638 102.932
141.103 121.554 103.546
142.981 121.106 103.627
140.364 122.37 103.796
139.814 122.259 102.418
141.941 120.901 101.049
143.324 119.948 102.485
144.388 121.383 102.259
143.786 121.878 102.805
139.589 121.718 101.572
140.447 121.045 101.354
139.326 121.09 101.176
141.586 120.638 100.066
139.011 121.006 99.8212
144.719 119.849 102.442
145.025 120.808 101.646
146.218 120.047 101.536
146.031 121.611 100.722
144.381 119.381 101.983
147.115 119.299 101.435
147.881 119.837 101.237
142.972 122.513 103.057
141.238 122.704 103.764
142.488 123.149 103.224
144.52 122.804 101.567
143.621 123.7 102.088
149.661 117.95 93.0758
148.515 117.551 93.7067
150.464 116.501 94.4197
147.59 117.308 94.7351
146.111 119.008 93.611
148.57 119.884 92.5142
150.308 118.631 93.1664
152.225 115.991 94.8982
151.223 115.25 95.7066
146.022 120.033 91.3086
147.342 120.463 91.0312
145.759 121.045 89.0876
148.602 120.607 91.1358
145.024 119.487 92.5074
143.936 121.814 88.3117
145.382 122.464 86.6948
152.485 117.485 93.0031
153.385 116.264 93.9643
154.193 117.166 93.1342
154.081 115.401 95.5159
151.241 119.032 92.7358
154.773 117.761 93.1331
155.62 116.725 94.3667
150.439 114.684 96.7896
148.517 115.957 96.1063
149.246 114.429 97.5312
146.809 116.724 95.8752
151.986 114.56 97.415
149.366 113.865 99.1239
148.046 114.657 98.462
142.352 119.666 93.7375
140.434 120.599 93.5474
141.65 119.492 94.9717
137.937 121.634 93.1904
139.195 121.704 91.8209
143.862 119.584 93.378
144.547 118.415 94.7151
143.288 118.79 96.3896
141.59 119.618 96.2595
141.156 121.586 90.7848
143.318 120.263 91.6945
142.736 121.518 89.7129
138.696 122.592 90.6639
142.163 122.729 88.1956
145.502 117.428 95.983
144.984 117.529 96.7663
146.614 116.121 97.4494
144.56 118.177 97.2201
147.338 114.804 99.5284
139.979 120.615 96.2193
137.545 121.516 94.6283
137.875 121.343 96.6462
136.051 122.641 93.7962
141.873 119.771 97.5205
139.012 120.941 98.3459
136.789 121.846 97.5806
158.372 122.118 101.655
155.902 123.207 101.278
157.321 122.795 100.451
154.252 124.868 100.414
154.843 123.904 101.796
159.467 120.419 103.843
160.337 120.506 102.532
158.315 122.701 99.3333
156.357 123.846 99.0774
155.353 122.726 102.785
157.853 120.956 104.368
156.078 121.546 103.398
159.876 119.275 106.004
153.59 123.888 102.341
154.88 122.236 101.873
156.406 120.56 104.216
161.346 120.319 101.38
160.434 121.454 99.5769
161.744 120.2 100.034
159.132 122.948 97.7758
162.234 118.782 103.542
162.91 118.854 100.488
161.077 120.3 98.9991
154.204 124.795 98.9601
153.464 125.274 99.4363
152.421 125.942 98.651
152.535 125.926 100.045
155.042 124.76 97.8625
151.641 126.525 97.4921
150.714 127.21 97.9596
150.699 124.932 103.324
149.733 124.085 103.716
149.386 125.142 101.585
148.908 123.402 103.373
150.401 122.926 104.052
152.223 124.22 103.372
151.657 125.709 101.714
148.258 125.998 100.5
147.405 125.642 100.711
151.921 122.861 103.375
152.817 123.432 102.826
153.423 122.653 102.602
151.058 122.347 103.395
153.725 122.138 102.039
150.863 126.488 100.377
149.02 126.514 100.052
149.929 127.348 98.8782
146.73 127.735 98.8291
149.189 128.151 97.4706
146.689 125.338 99.9434
147.247 124.351 101.468
145.313 124.907 100.622
147.903 123.093 102.85
145.021 126.355 100.498
143.511 124.832 102.384
144.386 124.343 101.127
145.144 125.972 87.5407
144.522 126.014 89.7822
143.846 125.33 89.8464
144.435 126.078 91.6586
145.562 126.743 89.365
146.826 126.478 85.6073
145.976 125.738 85.7167
142.722 125.029 89.641
142.287 125.231 91.5445
146.9 126.818 87.927
147.671 126.816 85.8326
148.462 126.462 87.391
148.454 125.893 85.5683
146.599 127.078 89.2243
149.472 125.348 90.3773
149.797 124.194 90.7757
144.998 125.237 85.5493
143.301 124.883 87.4466
143.925 124.605 85.5601
141.822 124.484 89.7678
146.704 125.236 84.4647
144.717 123.644 85.3201
142.833 123.725 86.8136
141.796 125.434 93.1609
143.16 125.727 93.1474
141.666 125.739 94.3324
144.395 125.972 93.261
140.587 125.138 92.9971
140.53 125.659 95.4667
141.88 125.881 95.276
146.417 128.104 91.2754
147.788 128.155 91.7013
146.547 128.163 92.634
149.434 127.238 93.5105
148.952 126.912 92.6358
146.549 127.62 90.2355
145.443 126.981 92.356
145.608 126.896 95.3044
146.817 127.767 94.5433
148.981 126.099 92.3492
147.495 127.535 89.3834
149.068 126.201 90.5261
150.181 124.741 94.8678
150.288 124.073 93.5505
144.338 126.145 94.4674
144.413 126.112 95.913
143.174 125.857 95.8101
144.35 126.284 97.0014
141.859 125.926 96.5521
147.858 128.666 94.0711
149.303 127.998 93.9558
149.086 128.571 94.7499
150.38 126.321 95.4795
146.404 127.995 95.8091
148.632 128.533 96.1258
150.264 127.513 96.2559
152.09 115.634 102.275
152.167 115.128 101.62
151.072 115.769 101.305
152.193 114.397 101.445
153.221 114.264 102.393
152.934 115.596 102.989
152.067 116.033 103.199
149.779 117.07 99.9726
149.834 115.838 100.387
154.321 114.544 102.57
154.094 115.04 103.381
155.683 115.144 102.054
154.046 115.593 104.127
154.576 113.967 101.753
157.072 115.203 100.755
156.789 115.18 102.713
150.96 117.605 101.19
149.626 118.338 99.2089
149.707 119.305 98.6604
148.299 118.051 99.4541
151.897 116.814 103.316
149.289 119.988 99.057
148.199 119.223 100.239
150 115.159 100.452
151.329 114.438 100.78
150.029 114.404 100.581
152.181 114.01 100.784
148.703 116.56 99.2696
148.655 114.58 100.292
150.07 114.011 100.002
154.921 117.198 104.732
153.655 116.974 104.703
153.545 118.125 103.67
152.868 116.882 103.845
154.114 116.158 104.67
156.367 116.65 104.981
155.68 117.502 105.194
153.188 119.162 103.107
152.148 119.099 102.562
155.248 115.453 105.032
156.277 115.831 104.984
156.434 115.097 104.471
157.611 115.917 105.278
157.807 115.103 103.457
155.434 118.392 104.873
154.317 119.556 102.923
155.203 119.817 103.452
152.765 120.343 102.267
156.769 118.003 105.103
155.891 119.885 104.392
154.251 121.083 102.468
151.213 119.66 100.742
151.592 118.156 102.087
150.143 120.044 99.4315
150.95 120.617 100.307
149.016 120.246 99.9848
150.5 121.617 91.2847
149.224 122.209 90.3462
149.313 121.558 91.1236
148.195 124.205 85.8074
149.232 124.155 87.1505
151.463 121.464 92.4851
152.118 120.644 92.5196
150.481 120.103 92.0351
149.023 121.16 91.0534
149.8 123.851 88.958
150.697 122.228 92.3539
150.424 122.866 92.0129
152.873 119.724 92.5756
152.007 119.616 91.9746
153.998 118.723 92.3922
147.983 121.55 89.778
147.539 123.457 86.0267
146.634 122.705 86.3099
137.999 124.5 92.8135
136.009 124.566 94.7555
136.843 124.006 93.0857
134.185 124.729 96.6554
135.405 125.258 96.0652
139.254 125.034 92.5434
139.84 124.592 91.2729
137.745 123.453 91.5738
135.469 123.632 93.3094
136.97 125.61 95.6155
138.684 125.34 94.2003
138.937 125.698 95.4563
140.484 124.154 89.8721
139.401 123.482 90.0605
141.11 123.653 88.4754
134.751 123.324 95.2649
133.325 124.106 96.5907
134.96 122.804 97.318
156.16 114.122 98.701
154.696 114.46 98.3131
154.911 113.903 99.6558
153.552 114.571 97.6086
154.285 115.108 96.8293
157.703 113.967 97.7852
158.025 113.785 98.8622
154.603 113.876 100.697
153.528 113.627 100.577
155.337 115.422 96.0958
157.213 114.826 96.7811
156.094 115.892 95.6647
157.91 113.791 99.8834
155.943 114.04 100.565
157.661 114.65 100.032
152.518 113.92 99.7826
152.679 114.251 98.139
151.337 114.269 98.8359
144.287 119.304 97.9293
144.181 119.346 99.1981
145.362 118.574 99.0003
144.237 119.121 100.778
142.837 119.789 100.207
143.085 119.616 97.8547
144.133 119.026 97.3738
147.081 117.488 99.29
146.866 118.104 99.5982
141.255 120.05 99.5408
141.527 120.081 98.0309
140.251 120.436 98.9904
145.578 117.664 98.1935
147.024 117.05 98.9796
147.081 115.92 99.527
146.851 118.705 99.9875
145.54 118.916 101.087
146.809 119.187 100.412
154.778 122.646 96.6401
155.208 123.79 96.4006
153.28 124.134 95.8073
155.197 124.491 97.1651
157.203 123.335 97.2278
156.45 121.847 96.4302
154.503 121.869 96.6894
151.779 124.183 95.8359
152.014 124.672 96.3673
158.528 122.47 97.2421
158.214 121.849 96.8122
159.789 121.404 97.4723
152.715 122.122 96.975
151.739 123.448 95.7316
151.503 123.227 94.9828
152.011 125.6 96.4701
153.342 125.115 97.2117
151.846 126.239 96.9208
142.928 127.912 99.2441
141.932 126.933 99.5351
143.397 127.34 98.2343
140.436 126.415 99.7484
140.084 127.045 100.842
143.427 127.28 100.208
144.625 128.005 99.0237
144.813 127.499 97.3173
144.007 126.671 97.6749
140.753 126.541 101.927
142.762 126.436 101.514
142.184 125.482 102.764
145.867 128.728 97.5683
145.797 129 96.2047
147.355 128.731 96.8438
142.654 126.192 97.9959
140.94 126.035 98.8042
141.681 125.659 98.0254
161.917 116.491 106.933
162.279 115.669 106.387
160.12 116.243 106.733
161.784 115.138 104.763
164.465 115.224 105.328
163.188 117.106 105.976
160.903 117.746 106.439
158.279 116.974 106.273
158.681 115.946 106.176
165.961 116.231 103.625
164.408 117.331 103.992
164.535 117.642 101.84
158.876 118.764 106.796
157.657 118.093 106.365
157.079 119.532 105.518
158.695 115.189 105.637
160.457 115.061 104.171
158.914 114.539 104.779
148.165 121.353 102.805
149.228 121.192 103.763
149.969 120.866 102.641
150.393 121.419 103.982
148.851 121.726 104.145
146.335 122.342 102.046
147.029 121.674 101.439
150.373 120.811 101.229
151.356 120.835 101.972
147.108 123.112 102.211
145.804 123.258 101.167
145.175 123.862 100.929
147.872 120.785 101.731
149.476 120.393 101.665
148.657 120.266 101.363
152.119 121.163 102.384
151.662 121.827 102.539
152.793 121.496 102.708
POLYGONS 1280  5120
3 164 162 163
3 163 44 164
3 162 43 163
3 164 42 162
3 166 165 163
3 163 43 166
3 165 44 163
3 166 14 165
3 168 167 162
3 162 42 168
3 167 43 162
3 168 13 167
3 170 169 164
3 164 44 170
3 169 42 164
3 170 12 169
3 173 171 172
3 172 46 173
3 171 43 172
3 173 45 171
3 167 174 172
3 172 43 167
3 174 46 172
3 167 13 174
3 175 166 171
3 171 45 175
3 166 43 171
3 175 14 166
3 177 176 173
3 173 46 177
3 176 45 173
3 177 4 176
3 180 178 179
3 179 48 180
3 178 42 179
3 180 47 178
3 169 181 179
3 179 42 169
3 181 48 179
3 169 12 181
3 182 168 178
3 178 47 182
3 168 42 178
3 182 13 168
3 184 183 180
3 180 48 184
3 183 47 180
3 184 8 183
3 187 185 186
3 186 50 187
3 185 44 186
3 187 49 185
3 165 188 186
3 186 44 165
3 188 50 186
3 165 14 188
3 189 170 185
3 185 49 189
3 170 44 185
3 189 12 170
3 191 190 187
3 187 50 191
3 190 49 187
3 191 7 190
3 194 192 193
3 193 53 194
3 192 52 193
3 194 51 192
3 196 195 193
3 193 52 196
3 195 53 193
3 196 16 195
3 198 197 192
3 192 51 198
3 197 52 192
3 198 14 197
3 200 199 194
3 194 53 200
3 199 51 194
3 200 15 199
3 203 201 202
3 202 45 203
3 201 52 202
3 203 54 201
3 197 175 202
3 202 52 197
3 175 45 202
3 197 14 175
3 204 196 201
3 201 54 204
3 196 52 201
3 204 16 196
3 176 205 203
3 203 45 176
3 205 54 203
3 176 4 205
3 208 206 207
3 207 55 208
3 206 51 207
3 208 50 206
3 199 209 207
3 207 51 199
3 209 55 207
3 199 15 209
3 188 198 206
3 206 50 188
3 198 51 206
3 188 14 198
3 210 191 208
3 208 55 210
3 191 50 208
3 210 7 191
3 213 211 212
3 212 57 213
3 211 53 212
3 213 56 211
3 195 214 212
3 212 53 195
3 214 57 212
3 195 16 214
3 215 200 211
3 211 56 215
3 200 53 211
3 215 15 200
3 217 216 213
3 213 57 217
3 216 56 213
3 217 9 216
3 220 218 219
3 219 60 220
3 218 59 219
3 220 58 218
3 222 221 219
3 219 59 222
3 221 60 219
3 222 19 221
3 224 223 218
3 218 58 224
3 223 59 218
3 224 18 223
3 226 225 220
3 220 60 226
3 225 58 220
3 226 17 225
3 229 227 228
3 228 62 229
3 227 59 228
3 229 61 227
3 223 230 228
3 228 59 223
3 230 62 228
3 223 18 230
3 231 222 227
3 227 61 231
3 222 59 227
3 231 19 222
3 233 232 229
3 229 62 233
3 232 61 229
3 233 5 232
3 236 234 235
3 235 64 236
3 234 58 235
3 236 63 234
3 225 237 235
3 235 58 225
3 237 64 235
3 225 17 237
3 238 224 234
3 234 63 238
3 224 58 234
3 238 18 224
3 240 239 236
3 236 64 240
3 239 63 236
3 240 6 239
3 243 241 242
3 242 66 243
3 241 60 242
3 243 65 241
3 221 244 242
3 242 60 221
3 244 66 242
3 221 19 244
3 245 226 241
3 241 65 245
3 226 60 241
3 245 17 226
3 247 246 243
3 243 66 247
3 246 65 243
3 247 11 246
3 250 248 249
3 249 69 250
3 248 68 249
3 250 67 248
3 252 251 249
3 249 68 252
3 251 69 249
3 252 18 251
3 254 253 248
3 248 67 254
3 253 68 248
3 254 21 253
3 256 255 250
3 250 69 256
3 255 67 250
3 256 20 255
3 259 257 258
3 258 70 259
3 257 68 258
3 259 62 257
3 253 260 258
3 258 68 253
3 260 70 258
3 253 21 260
3 230 252 257
3 257 62 230
3 252 68 257
3 230 18 252
3 261 233 259
3 259 70 261
3 233 62 259
3 261 5 233
3 264 262 263
3 263 72 264
3 262 67 263
3 264 71 262
3 255 265 263
3 263 67 255
3 265 72 263
3 255 20 265
3 266 254 262
3 262 71 266
3 254 67 262
3 266 21 254
3 268 267 264
3 264 72 268
3 267 71 264
3 268 10 267
3 271 269 270
3 270 63 271
3 269 69 270
3 271 73 269
3 251 238 270
3 270 69 251
3 238 63 270
3 251 18 238
3 272 256 269
3 269 73 272
3 256 69 269
3 272 20 256
3 239 273 271
3 271 63 239
3 273 73 271
3 239 6 273
3 276 274 275
3 275 76 276
3 274 75 275
3 276 74 274
3 278 277 275
3 275 75 278
3 277 76 275
3 278 24 277
3 280 279 274
3 274 74 280
3 279 75 274
3 280 23 279
3 282 281 276
3 276 76 282
3 281 74 276
3 282 22 281
3 285 283 284
3 284 78 285
3 283 75 284
3 285 77 283
3 279 286 284
3 284 75 279
3 286 78 284
3 279 23 286
3 287 278 283
3 283 77 287
3 278 75 283
3 287 24 278
3 289 288 285
3 285 78 289
3 288 77 285
3 289 0 288
3 292 290 291
3 291 80 292
3 290 74 291
3 292 79 290
3 281 293 291
3 291 74 281
3 293 80 291
3 281 22 293
3 294 280 290
3 290 79 294
3 280 74 290
3 294 23 280
3 296 295 292
3 292 80 296
3 295 79 292
3 296 4 295
3 299 297 298
3 298 82 299
3 297 76 298
3 299 81 297
3 277 300 298
3 298 76 277
3 300 82 298
3 277 24 300
3 301 282 297
3 297 81 301
3 282 76 297
3 301 22 282
3 303 302 299
3 299 82 303
3 302 81 299
3 303 3 302
3 306 304 305
3 305 85 306
3 304 84 305
3 306 83 304
3 308 307 305
3 305 84 308
3 307 85 305
3 308 26 307
3 310 309 304
3 304 83 310
3 309 84 304
3 310 24 309
3 312 311 306
3 306 85 312
3 311 83 306
3 312 25 311
3 315 313 314
3 314 77 315
3 313 84 314
3 315 86 313
3 309 287 314
3 314 84 309
3 287 77 314
3 309 24 287
3 316 308 313
3 313 86 316
3 308 84 313
3 316 26 308
3 288 317 315
3 315 77 288
3 317 86 315
3 288 0 317
3 320 318 319
3 319 87 320
3 318 83 319
3 320 82 318
3 311 321 319
3 319 83 311
3 321 87 319
3 311 25 321
3 300 310 318
3 318 82 300
3 310 83 318
3 300 24 310
3 322 303 320
3 320 87 322
3 303 82 320
3 322 3 303
3 325 323 324
3 324 89 325
3 323 85 324
3 325 88 323
3 307 326 324
3 324 85 307
3 326 89 324
3 307 26 326
3 327 312 323
3 323 88 327
3 312 85 323
3 327 25 312
3 329 328 325
3 325 89 329
3 328 88 325
3 329 5 328
3 332 330 331
3 331 92 332
3 330 91 331
3 332 90 330
3 334 333 331
3 331 91 334
3 333 92 331
3 334 29 333
3 336 335 330
3 330 90 336
3 335 91 330
3 336 28 335
3 338 337 332
3 332 92 338
3 337 90 332
3 338 27 337
3 341 339 340
3 340 94 341
3 339 91 340
3 341 93 339
3 335 342 340
3 340 91 335
3 342 94 340
3 335 28 342
3 343 334 339
3 339 93 343
3 334 91 339
3 343 29 334
3 345 344 341
3 341 94 345
3 344 93 341
3 345 2 344
3 348 346 347
3 347 96 348
3 346 90 347
3 348 95 346
3 337 349 347
3 347 90 337
3 349 96 347
3 337 27 349
3 350 336 346
3 346 95 350
3 336 90 346
3 350 28 336
3 352 351 348
3 348 96 352
3 351 95 348
3 352 7 351
3 355 353 354
3 354 98 355
3 353 92 354
3 355 97 353
3 333 356 354
3 354 92 333
3 356 98 354
3 333 29 356
3 357 338 353
3 353 97 357
3 338 92 353
3 357 27 338
3 359 358 355
3 355 98 359
3 358 97 355
3 359 1 358
3 362 360 361
3 361 101 362
3 360 100 361
3 362 99 360
3 364 363 361
3 361 100 364
3 363 101 361
3 364 31 363
3 366 365 360
3 360 99 366
3 365 100 360
3 366 29 365
3 368 367 362
3 362 101 368
3 367 99 362
3 368 30 367
3 371 369 370
3 370 93 371
3 369 100 370
3 371 102 369
3 365 343 370
3 370 100 365
3 343 93 370
3 365 29 343
3 372 364 369
3 369 102 372
3 364 100 369
3 372 31 364
3 344 373 371
3 371 93 344
3 373 102 371
3 344 2 373
3 376 374 375
3 375 103 376
3 374 99 375
3 376 98 374
3 367 377 375
3 375 99 367
3 377 103 375
3 367 30 377
3 356 366 374
3 374 98 356
3 366 99 374
3 356 29 366
3 378 359 376
3 376 103 378
3 359 98 376
3 378 1 359
3 381 379 380
3 380 105 381
3 379 101 380
3 381 104 379
3 363 382 380
3 380 101 363
3 382 105 380
3 363 31 382
3 383 368 379
3 379 104 383
3 368 101 379
3 383 30 368
3 385 384 381
3 381 105 385
3 384 104 381
3 385 6 384
3 388 386 387
3 387 108 388
3 386 107 387
3 388 106 386
3 390 389 387
3 387 107 390
3 389 108 387
3 390 34 389
3 392 391 386
3 386 106 392
3 391 107 386
3 392 33 391
3 394 393 388
3 388 108 394
3 393 106 388
3 394 32 393
3 397 395 396
3 396 110 397
3 395 107 396
3 397 109 395
3 391 398 396
3 396 107 391
3 398 110 396
3 391 33 398
3 399 390 395
3 395 109 399
3 390 107 395
3 399 34 390
3 401 400 397
3 397 110 401
3 400 109 397
3 401 8 400
3 404 402 403
3 403 112 404
3 402 106 403
3 404 111 402
3 393 405 403
3 403 106 393
3 405 112 403
3 393 32 405
3 406 392 402
3 402 111 406
3 392 106 402
3 406 33 392
3 408 407 404
3 404 112 408
3 407 111 404
3 408 0 407
3 411 409 410
3 410 114 411
3 409 108 410
3 411 113 409
3 389 412 410
3 410 108 389
3 412 114 410
3 389 34 412
3 413 394 409
3 409 113 413
3 394 108 409
3 413 32 394
3 415 414 411
3 411 114 415
3 414 113 411
3 415 11 414
3 418 416 417
3 417 117 418
3 416 116 417
3 418 115 416
3 420 419 417
3 417 116 420
3 419 117 417
3 420 36 419
3 422 421 416
3 416 115 422
3 421 116 416
3 422 34 421
3 424 423 418
3 418 117 424
3 423 115 418
3 424 35 423
3 427 425 426
3 426 109 427
3 425 116 426
3 427 118 425
3 421 399 426
3 426 116 421
3 399 109 426
3 421 34 399
3 428 420 425
3 425 118 428
3 420 116 425
3 428 36 420
3 400 429 427
3 427 109 400
3 429 118 427
3 400 8 429
3 432 430 431
3 431 119 432
3 430 115 431
3 432 114 430
3 423 433 431
3 431 115 423
3 433 119 431
3 423 35 433
3 412 422 430
3 430 114 412
3 422 115 430
3 412 34 422
3 434 415 432
3 432 119 434
3 415 114 432
3 434 11 415
3 437 435 436
3 436 121 437
3 435 117 436
3 437 120 435
3 419 438 436
3 436 117 419
3 438 121 436
3 419 36 438
3 439 424 435
3 435 120 439
3 424 117 435
3 439 35 424
3 441 440 437
3 437 121 441
3 440 120 437
3 441 1 440
3 444 442 443
3 443 124 444
3 442 123 443
3 444 122 442
3 446 445 443
3 443 123 446
3 445 124 443
3 446 39 445
3 448 447 442
3 442 122 448
3 447 123 442
3 448 38 447
3 450 449 444
3 444 124 450
3 449 122 444
3 450 37 449
3 453 451 452
3 452 126 453
3 451 123 452
3 453 125 451
3 447 454 452
3 452 123 447
3 454 126 452
3 447 38 454
3 455 446 451
3 451 125 455
3 446 123 451
3 455 39 446
3 457 456 453
3 453 126 457
3 456 125 453
3 457 9 456
3 460 458 459
3 459 128 460
3 458 122 459
3 460 127 458
3 449 461 459
3 459 122 449
3 461 128 459
3 449 37 461
3 462 448 458
3 458 127 462
3 448 122 458
3 462 38 448
3 464 463 460
3 460 128 464
3 463 127 460
3 464 10 463
3 467 465 466
3 466 130 467
3 465 124 466
3 467 129 465
3 445 468 466
3 466 124 445
3 468 130 466
3 445 39 468
3 469 450 465
3 465 129 469
3 450 124 465
3 469 37 450
3 471 470 467
3 467 130 471
3 470 129 467
3 471 3 470
3 474 472 473
3 473 133 474
3 472 132 473
3 474 131 472
3 476 475 473
3 473 132 476
3 475 133 473
3 476 38 475
3 478 477 472
3 472 131 478
3 477 132 472
3 478 41 477
3 480 479 474
3 474 133 480
3 479 131 474
3 480 40 479
3 483 481 482
3 482 134 483
3 481 132 482
3 483 126 481
3 477 484 482
3 482 132 477
3 484 134 482
3 477 41 484
3 454 476 481
3 481 126 454
3 476 132 481
3 454 38 476
3 485 457 483
3 483 134 485
3 457 126 483
3 485 9 457
3 488 486 487
3 487 136 488
3 486 131 487
3 488 135 486
3 479 489 487
3 487 131 479
3 489 136 487
3 479 40 489
3 490 478 486
3 486 135 490
3 478 131 486
3 490 41 478
3 492 491 488
3 488 136 492
3 491 135 488
3 492 2 491
3 495 493 494
3 494 127 495
3 493 133 494
3 495 137 493
3 475 462 494
3 494 133 475
3 462 127 494
3 475 38 462
3 496 480 493
3 493 137 496
3 480 133 493
3 496 40 480
3 463 497 495
3 495 127 463
3 497 137 495
3 463 10 497
3 500 498 499
3 499 140 500
3 498 139 499
3 500 138 498
3 502 501 499
3 499 139 502
3 501 140 499
3 502 33 501
3 504 503 498
3 498 138 504
3 503 139 498
3 504 13 503
3 506 505 500
3 500 140 506
3 505 138 500
3 506 23 505
3 509 507 508
3 508 47 509
3 507 139 508
3 509 110 507
3 503 182 508
3 508 139 503
3 182 47 508
3 503 13 182
3 398 502 507
3 507 110 398
3 502 139 507
3 398 33 502
3 183 401 509
3 509 47 183
3 401 110 509
3 183 8 401
3 512 510 511
3 511 79 512
3 510 138 511
3 512 46 510
3 505 294 511
3 511 138 505
3 294 79 511
3 505 23 294
3 174 504 510
3 510 46 174
3 504 138 510
3 174 13 504
3 295 177 512
3 512 79 295
3 177 46 512
3 295 4 177
3 515 513 514
3 514 111 515
3 513 140 514
3 515 78 513
3 501 406 514
3 514 140 501
3 406 111 514
3 501 33 406
3 286 506 513
3 513 78 286
3 506 140 513
3 286 23 506
3 407 289 515
3 515 111 407
3 289 78 515
3 407 0 289
3 518 516 517
3 517 143 518
3 516 142 517
3 518 141 516
3 520 519 517
3 517 142 520
3 519 143 517
3 520 19 519
3 522 521 516
3 516 141 522
3 521 142 516
3 522 32 521
3 524 523 518
3 518 143 524
3 523 141 518
3 524 26 523
3 527 525 526
3 526 113 527
3 525 142 526
3 527 66 525
3 521 413 526
3 526 142 521
3 413 113 526
3 521 32 413
3 244 520 525
3 525 66 244
3 520 142 525
3 244 19 520
3 414 247 527
3 527 113 414
3 247 66 527
3 414 11 247
3 530 528 529
3 529 86 530
3 528 141 529
3 530 112 528
3 523 316 529
3 529 141 523
3 316 86 529
3 523 26 316
3 405 522 528
3 528 112 405
3 522 141 528
3 405 32 522
3 317 408 530
3 530 86 317
3 408 112 530
3 317 0 408
3 533 531 532
3 532 61 533
3 531 143 532
3 533 89 531
3 519 231 532
3 532 143 519
3 231 61 532
3 519 19 231
3 326 524 531
3 531 89 326
3 524 143 531
3 326 26 524
3 232 329 533
3 533 61 232
3 329 89 533
3 232 5 329
3 536 534 535
3 535 146 536
3 534 145 535
3 536 144 534
3 538 537 535
3 535 145 538
3 537 146 535
3 538 22 537
3 540 539 534
3 534 144 540
3 539 145 534
3 540 16 539
3 542 541 536
3 536 146 542
3 541 144 536
3 542 39 541
3 545 543 544
3 544 54 545
3 543 145 544
3 545 80 543
3 539 204 544
3 544 145 539
3 204 54 544
3 539 16 204
3 293 538 543
3 543 80 293
3 538 145 543
3 293 22 538
3 205 296 545
3 545 54 205
3 296 80 545
3 205 4 296
3 548 546 547
3 547 125 548
3 546 144 547
3 548 57 546
3 541 455 547
3 547 144 541
3 455 125 547
3 541 39 455
3 214 540 546
3 546 57 214
3 540 144 546
3 214 16 540
3 456 217 548
3 548 125 456
3 217 57 548
3 456 9 217
3 551 549 550
3 550 81 551
3 549 146 550
3 551 130 549
3 537 301 550
3 550 146 537
3 301 81 550
3 537 22 301
3 468 542 549
3 549 130 468
3 542 146 549
3 468 39 542
3 302 471 551
3 551 81 302
3 471 130 551
3 302 3 471
3 554 552 553
3 553 149 554
3 552 148 553
3 554 147 552
3 556 555 553
3 553 148 556
3 555 149 553
3 556 21 555
3 558 557 552
3 552 147 558
3 557 148 552
3 558 25 557
3 560 559 554
3 554 149 560
3 559 147 554
3 560 37 559
3 563 561 562
3 562 88 563
3 561 148 562
3 563 70 561
3 557 327 562
3 562 148 557
3 327 88 562
3 557 25 327
3 260 556 561
3 561 70 260
3 556 148 561
3 260 21 556
3 328 261 563
3 563 88 328
3 261 70 563
3 328 5 261
3 566 564 565
3 565 129 566
3 564 147 565
3 566 87 564
3 559 469 565
3 565 147 559
3 469 129 565
3 559 37 469
3 321 558 564
3 564 87 321
3 558 147 564
3 321 25 558
3 470 322 566
3 566 129 470
3 322 87 566
3 470 3 322
3 569 567 568
3 568 71 569
3 567 149 568
3 569 128 567
3 555 266 568
3 568 149 555
3 266 71 568
3 555 21 266
3 461 560 567
3 567 128 461
3 560 149 567
3 461 37 560
3 267 464 569
3 569 71 267
3 464 128 569
3 267 10 464
3 572 570 571
3 571 152 572
3 570 151 571
3 572 150 570
3 574 573 571
3 571 151 574
3 573 152 571
3 574 27 573
3 576 575 570
3 570 150 576
3 575 151 570
3 576 12 575
3 578 577 572
3 572 152 578
3 577 150 572
3 578 36 577
3 581 579 580
3 580 49 581
3 579 151 580
3 581 96 579
3 575 189 580
3 580 151 575
3 189 49 580
3 575 12 189
3 349 574 579
3 579 96 349
3 574 151 579
3 349 27 574
3 190 352 581
3 581 49 190
3 352 96 581
3 190 7 352
3 584 582 583
3 583 118 584
3 582 150 583
3 584 48 582
3 577 428 583
3 583 150 577
3 428 118 583
3 577 36 428
3 181 576 582
3 582 48 181
3 576 150 582
3 181 12 576
3 429 184 584
3 584 118 429
3 184 48 584
3 429 8 184
3 587 585 586
3 586 97 587
3 585 152 586
3 587 121 585
3 573 357 586
3 586 152 573
3 357 97 586
3 573 27 357
3 438 578 585
3 585 121 438
3 578 152 585
3 438 36 578
3 358 441 587
3 587 97 358
3 441 121 587
3 358 1 441
3 590 588 589
3 589 155 590
3 588 154 589
3 590 153 588
3 592 591 589
3 589 154 592
3 591 155 589
3 592 17 591
3 594 593 588
3 588 153 594
3 593 154 588
3 594 30 593
3 596 595 590
3 590 155 596
3 595 153 590
3 596 35 595
3 599 597 598
3 598 104 599
3 597 154 598
3 599 64 597
3 593 383 598
3 598 154 593
3 383 104 598
3 593 30 383
3 237 592 597
3 597 64 237
3 592 154 597
3 237 17 592
3 384 240 599
3 599 104 384
3 240 64 599
3 384 6 240
3 602 600 601
3 601 120 602
3 600 153 601
3 602 103 600
3 595 439 601
3 601 153 595
3 439 120 601
3 595 35 439
3 377 594 600
3 600 103 377
3 594 153 600
3 377 30 594
3 440 378 602
3 602 120 440
3 378 103 602
3 440 1 378
3 605 603 604
3 604 65 605
3 603 155 604
3 605 119 603
3 591 245 604
3 604 155 591
3 245 65 604
3 591 17 245
3 433 596 603
3 603 119 433
3 596 155 603
3 433 35 596
3 246 434 605
3 605 65 246
3 434 119 605
3 246 11 434
3 608 606 607
3 607 158 608
3 606 157 607
3 608 156 606
3 610 609 607
3 607 157 610
3 609 158 607
3 610 15 609
3 612 611 606
3 606 156 612
3 611 157 606
3 612 28 611
3 614 613 608
3 608 158 614
3 613 156 608
3 614 41 613
3 617 615 616
3 616 95 617
3 615 157 616
3 617 55 615
3 611 350 616
3 616 157 611
3 350 95 616
3 611 28 350
3 209 610 615
3 615 55 209
3 610 157 615
3 209 15 610
3 351 210 617
3 617 95 351
3 210 55 617
3 351 7 210
3 620 618 619
3 619 135 620
3 618 156 619
3 620 94 618
3 613 490 619
3 619 156 613
3 490 135 619
3 613 41 490
3 342 612 618
3 618 94 342
3 612 156 618
3 342 28 612
3 491 345 620
3 620 135 491
3 345 94 620
3 491 2 345
3 623 621 622
3 622 56 623
3 621 158 622
3 623 134 621
3 609 215 622
3 622 158 609
3 215 56 622
3 609 15 215
3 484 614 621
3 621 134 484
3 614 158 621
3 484 41 614
3 216 485 623
3 623 56 216
3 485 134 623
3 216 9 485
3 626 624 625
3 625 161 626
3 624 160 625
3 626 159 624
3 628 627 625
3 625 160 628
3 627 161 625
3 628 31 627
3 630 629 624
3 624 159 630
3 629 160 624
3 630 20 629
3 632 631 626
3 626 161 632
3 631 159 626
3 632 40 631
3 635 633 634
3 634 73 635
3 633 160 634
3 635 105 633
3 629 272 634
3 634 160 629
3 272 73 634
3 629 20 272
3 382 628 633
3 633 105 382
3 628 160 633
3 382 31 628
3 273 385 635
3 635 73 273
3 385 105 635
3 273 6 385
3 638 636 637
3 637 137 638
3 636 159 637
3 638 72 636
3 631 496 637
3 637 159 631
3 496 137 637
3 631 40 496
3 265 630 636
3 636 72 265
3 630 159 636
3 265 20 630
3 497 268 638
3 638 137 497
3 268 72 638
3 497 10 268
3 641 639 640
3 640 102 641
3 639 161 640
3 641 136 639
3 627 372 640
3 640 161 627
3 372 102 640
3 627 31 372
3 489 632 639
3 639 136 489
3 632 161 639
3 489 40 632
3 373 492 641
3 641 102 373
3 492 136 641
3 373 2 492
