# vtk DataFile Version 3.0
this file was written using fslvtkio
ASCII
DATASET POLYDATA
POINTS 642 float
137.567 151.983 109.437
137.23 156.325 110.745
137.801 155.599 113.016
138.827 150.882 111.589
139.22 152.608 110.132
135.861 151.595 111.481
135.322 154.389 112.637
138.869 154.861 110.86
139.03 155.201 107.821
139.989 153.473 112.427
136.728 152.62 113.885
136.206 154.19 110.043
138.992 155.467 109.617
138.931 153.652 109.132
139.182 153.853 110.491
139.302 154.142 111.69
139.864 152.701 111.215
135.838 154.231 111.362
135.243 152.92 112.167
135.793 152.745 110.795
135.182 153.721 113.716
135.933 151.743 112.774
139.594 151.507 110.705
138.828 152.133 109.404
138.229 151.281 110.46
137.204 151.05 111.566
136.812 151.752 110.439
138.637 156.252 110.77
138.687 155.347 111.818
137.382 155.316 111.74
136.297 155.031 111.629
136.174 155.263 113.203
136.631 153.094 109.494
137.915 153.328 108.411
136.725 154.831 108.338
136.175 155.469 110.045
138.138 157.039 109.104
137.898 150.898 112.96
138.678 153.101 113.522
140.735 151.298 112.111
137.188 154.549 113.937
138.911 154.679 112.882
139.091 154.656 109.301
139.102 153.85 109.876
138.948 154.5 110.051
139.257 153.21 110.314
139.208 153.123 109.727
139.196 154.414 108.393
139.063 155.543 108.737
138.944 155.129 110.349
139.053 154.461 110.693
139.298 153.953 111.042
139.444 153.245 110.859
139.487 153.377 111.468
139.476 152.542 110.657
139.076 154.557 111.207
139.554 153.713 112.081
140.199 153.131 111.814
135.527 153.543 111.803
135.588 152.768 111.484
135.637 153.472 111.122
135.841 152.125 111.132
135.464 152.094 111.815
135.28 153.746 112.476
135.477 154.222 112.021
136.054 154.274 110.613
135.907 153.533 110.385
135.312 152.603 113.319
135.254 152.24 112.555
134.886 153.211 112.943
135.79 151.547 112.081
136.203 152.06 113.44
135.831 153.067 113.972
135.018 154.225 113.168
139.172 151.827 110.08
138.569 151.723 109.951
138.961 151.141 110.507
137.862 151.712 109.962
138.165 152.073 109.412
139.236 152.409 109.712
139.505 152.179 110.377
139.363 150.975 111.137
138.52 150.816 110.965
137.746 151.039 110.975
137.463 151.449 110.415
136.914 151.188 110.901
137.233 151.877 109.916
138.056 150.869 111.599
136.43 151.284 111.534
136.316 151.6 110.942
138.45 155.526 111.31
138.048 155.4 111.784
137.908 155.727 111.203
137.532 155.451 112.489
138.327 155.579 112.454
138.851 155.116 111.292
138.721 155.426 110.8
137.99 156.523 110.772
137.316 155.775 111.216
136.836 155.181 111.677
136.762 155.265 112.538
136.1 155.132 112.452
137.022 155.473 113.15
136.796 155.577 111.05
135.575 154.824 112.268
135.585 154.839 112.935
137.17 153.253 108.857
137.331 153.909 108.093
136.562 153.753 108.79
137.987 155.226 107.76
138.515 153.993 107.787
137.742 152.712 109.073
137.173 152.609 109.455
136.222 153.629 109.691
136.136 154.396 109.19
136.083 155.473 108.988
137.379 156.297 108.37
136.645 156.669 109.453
138.694 156.341 108.272
136.151 154.768 109.961
136.602 156.053 110.376
137.526 156.82 110.012
138.326 151.861 113.441
139.526 152.2 113.008
139.219 150.842 112.785
140.532 152.685 112.385
139.655 153.445 113.04
137.6 152.874 113.891
137.201 151.761 113.581
138.533 150.689 112.183
139.611 150.666 111.871
138.177 154.796 113.512
139.004 154.267 113.409
137.89 153.996 113.938
139.505 154.122 112.705
138.402 155.397 113.039
137.508 155.277 113.409
136.858 153.594 114.096
138.914 152.853 109.171
138.649 153.428 108.526
138.396 152.759 108.908
136.677 152.333 109.947
136.17 152.827 110.067
136.242 152.156 110.54
140.861 152.258 111.492
140.001 152.043 110.923
140.29 151.209 111.261
137.574 150.989 112.272
136.587 151.256 112.228
136.916 151.382 112.865
138.76 156.349 109.266
138.886 156.003 110.182
138.532 156.874 110.076
136.467 155.273 110.775
135.985 154.758 111.498
136.174 154.864 110.699
138.962 155.197 112.433
139.167 154.907 111.772
139.223 154.462 112.276
136.031 154.172 114.028
135.534 154.736 113.643
136.534 155.11 113.634
139.016 154.169 109.567
138.967 154.153 109.968
139.009 154.586 109.693
139.03 154.159 110.278
139.126 153.884 110.196
139.013 153.752 109.523
138.972 154.129 109.176
139.08 155.105 109.444
139.015 154.995 109.821
139.227 153.561 110.121
139.139 153.457 109.787
139.268 153.171 110.012
139.011 153.374 109.45
139.222 153.522 110.408
139.246 152.851 110.185
139.274 152.815 109.925
139.114 154.586 108.899
139.119 155.102 109.045
139.167 155 108.542
139 155.525 109.186
139.027 154.007 108.798
139.136 154.815 107.986
139.051 155.38 108.246
138.964 154.849 110.194
138.96 154.447 110.387
138.926 154.7 110.49
139.168 154.225 110.617
139.012 155.341 110.008
138.885 154.944 110.633
138.963 154.658 110.768
139.39 153.626 110.932
139.493 153.306 111.151
139.45 153.731 111.254
139.673 153.019 111.341
139.571 152.926 111.047
139.254 153.484 110.697
139.177 153.821 110.78
139.367 154.088 111.36
139.441 153.803 111.588
139.449 152.857 110.767
139.286 153.149 110.599
139.312 152.838 110.502
139.645 152.557 110.916
139.377 152.609 110.396
139.139 154.196 110.864
139.186 154.277 111.136
139.014 154.444 110.94
139.236 154.428 111.425
138.947 154.709 111.017
139.574 153.585 111.786
139.717 153.14 111.647
139.835 153.404 111.95
140.054 152.851 111.504
139.414 153.942 111.89
139.793 153.589 112.251
140.167 153.353 112.151
135.547 153.176 111.65
135.538 153.115 111.255
135.564 153.497 111.42
135.62 153.069 110.938
135.654 152.756 111.121
135.425 152.851 111.802
135.325 153.222 111.95
135.625 153.868 111.567
135.782 153.883 111.256
135.728 152.471 111.307
135.5 152.447 111.62
135.59 152.061 111.432
135.37 152.53 112.004
135.804 152.449 110.973
135.822 151.814 111.289
135.633 151.762 111.633
135.359 153.636 112.1
135.525 153.899 111.895
135.323 154.002 112.233
135.611 154.225 111.671
135.257 153.348 112.326
135.267 154.109 112.6
135.292 154.346 112.338
135.837 153.927 110.863
135.694 153.477 110.718
136.003 153.934 110.528
135.757 153.105 110.546
135.921 154.261 110.957
136.13 154.226 110.322
136.13 153.905 110.222
135.253 152.414 112.95
134.989 152.663 112.752
134.997 152.908 113.178
135.09 153.054 112.535
135.201 152.588 112.365
135.501 151.964 112.687
135.622 152.167 113.052
135.277 153.231 113.511
134.88 153.441 113.373
135.399 152.218 112.152
135.463 151.8 112.31
135.568 151.801 111.922
135.809 151.588 112.432
135.811 151.552 111.749
135.71 152.308 113.391
135.472 152.844 113.653
135.926 152.525 113.724
135.499 153.427 113.818
136.071 151.93 113.101
136.429 152.286 113.726
136.35 152.787 113.901
134.9 153.74 113.088
135.032 153.492 112.672
135.095 153.954 112.819
134.932 153.976 113.523
135.235 154.278 112.893
138.879 151.813 110.009
138.757 151.456 110.239
139.105 151.484 110.315
138.606 151.205 110.438
138.431 151.539 110.243
138.677 151.951 109.683
138.986 152.062 109.758
139.399 151.562 110.408
139.291 151.261 110.622
138.227 151.662 109.94
138.366 151.871 109.674
138.024 151.822 109.667
138.487 152.112 109.402
138.053 151.513 110.203
137.696 151.808 109.643
137.877 152.065 109.435
139.189 152.181 109.868
139.42 151.944 110.221
139.315 152.301 110.045
139.635 151.792 110.496
139.081 152.225 109.497
139.259 152.553 109.951
139.394 152.455 110.27
139.138 151.079 110.819
138.768 150.925 110.712
138.967 150.844 111.011
138.385 151.017 110.682
139.49 151.278 110.946
139.119 150.896 111.386
138.681 150.788 111.277
137.583 151.146 110.644
137.166 151.188 110.607
137.3 151.061 110.905
136.851 151.401 110.63
137.133 151.57 110.406
137.851 151.399 110.451
138.007 151.084 110.677
137.472 150.999 111.229
137.095 151.173 111.252
137.359 151.678 110.174
137.686 151.572 110.174
137.562 151.806 109.948
137.053 151.89 110.207
137.44 151.979 109.666
138.13 150.917 110.966
137.893 150.935 111.257
138.266 150.796 111.265
137.642 150.953 111.598
138.459 150.855 111.597
136.681 151.241 111.245
136.588 151.365 110.919
136.356 151.368 111.215
136.563 151.595 110.644
136.811 151.15 111.546
136.099 151.412 111.504
136.066 151.579 111.21
138.246 155.457 111.529
137.943 155.475 111.492
138.191 155.652 111.273
137.641 155.498 111.459
137.709 155.404 111.796
138.389 155.423 111.815
138.517 155.331 111.55
138.446 155.807 111.028
138.284 156.087 111.017
137.803 155.387 112.142
138.173 155.432 112.142
137.899 155.497 112.465
138.537 155.457 112.123
137.447 155.353 112.141
137.647 155.531 112.76
138.043 155.566 112.761
138.675 155.341 111.317
138.561 155.467 111.05
138.73 155.213 111.066
138.709 155.867 110.784
138.799 155.242 111.561
138.877 154.975 111.06
138.773 155.081 110.82
137.988 156.192 111.028
137.615 155.796 111.21
137.661 156.197 111.009
137.304 155.424 111.407
138.39 156.493 110.799
137.599 156.466 110.758
137.314 156.104 111.008
136.764 155.194 112.107
136.399 155.225 112.513
136.48 155.072 112.044
136.078 155.251 112.871
136.454 155.343 112.906
137.09 155.271 112.13
137.079 155.216 111.697
136.576 155.114 111.653
136.192 154.981 112.019
136.859 155.402 112.869
137.139 155.342 112.525
137.263 155.479 112.81
136.575 155.369 113.207
137.441 155.563 113.085
137.064 155.404 111.36
136.85 155.369 111.337
137.034 155.743 111.192
136.652 155.252 111.271
136.961 155.961 110.888
135.817 155.018 112.353
135.769 155.122 112.772
135.518 154.883 112.617
135.804 155.07 113.078
135.968 154.922 111.96
135.403 154.645 112.458
135.404 154.608 112.81
137.194 153.497 108.452
136.845 153.783 108.383
136.858 153.489 108.823
136.535 154.181 108.48
137.009 154.36 108.139
137.665 153.599 108.227
137.541 153.305 108.633
136.884 153.187 109.178
136.607 153.4 109.159
137.61 154.485 107.83
137.906 154.004 107.898
138.281 154.549 107.589
138.141 153.591 108.07
137.321 155.051 108.053
138.659 155.286 107.625
138.94 154.594 107.588
137.44 152.929 108.956
137.157 152.94 109.209
137.437 152.639 109.232
136.912 152.932 109.523
137.785 152.977 108.753
137.662 152.285 109.264
137.376 152.197 109.421
136.36 153.692 109.276
136.291 154.055 108.941
136.198 153.997 109.455
136.279 154.572 108.69
136.396 153.331 109.549
136.191 153.961 109.88
136.168 154.291 109.697
136.696 155.913 108.655
137.025 156.679 108.837
136.344 156.092 109.15
137.459 157.113 109.195
137.85 157.015 108.628
137.026 155.546 108.329
136.4 155.22 108.605
136.064 155.54 109.544
136.244 155.979 109.701
138.127 156.526 108.166
137.676 155.78 108.021
138.41 155.948 107.801
138.396 156.763 108.638
138.866 155.739 108.02
136.045 154.888 109.014
135.998 155.075 109.504
136.019 154.628 109.548
136.122 155.107 109.98
136.156 154.435 110.029
136.611 156.238 109.898
137.153 156.812 109.671
137.026 156.473 110.111
137.807 157.081 109.575
136.341 155.779 110.188
136.947 156.301 110.586
137.347 156.568 110.424
138.915 152.007 113.237
139.391 151.53 112.897
138.755 151.356 113.157
139.963 150.99 112.49
140.14 151.753 112.608
139.034 152.623 113.26
138.531 152.49 113.483
138.133 151.282 113.29
138.54 150.809 112.929
140.161 152.492 112.733
139.606 152.823 113.03
140.087 153.087 112.761
139.142 153.243 113.286
140.727 152.099 112.284
140.279 153.189 112.432
139.884 153.47 112.698
137.988 152.359 113.727
137.752 151.743 113.587
137.434 152.276 113.761
137.535 151.307 113.336
138.196 153.014 113.772
137.148 152.726 113.899
136.964 152.252 113.74
138.862 150.484 112.479
139.548 150.548 112.27
139.052 150.596 112.058
140.231 150.752 111.979
138.277 150.651 112.568
138.705 150.859 111.879
139.159 150.885 111.753
138.588 154.575 113.506
138.488 154.165 113.706
138.065 154.51 113.842
138.312 153.562 113.757
138.84 153.653 113.503
138.97 154.545 113.163
138.553 154.745 113.196
137.718 154.708 113.775
137.558 154.289 114.012
139.337 153.859 113.255
139.368 154.296 113.056
139.663 153.906 112.92
139.131 154.344 112.785
139.712 153.738 112.564
138.253 155.053 113.236
137.829 155.085 113.468
137.955 155.324 113.242
137.335 154.978 113.65
138.668 155.078 112.963
138.056 155.538 113.075
137.675 155.521 113.239
137.391 153.766 114.028
137.783 153.476 113.978
137.233 153.29 114.011
137.051 154.062 114.079
136.788 153.068 114.015
138.703 153.11 108.884
138.489 153.022 108.67
138.655 152.748 108.991
138.131 152.912 108.588
138.32 153.346 108.344
138.868 153.527 108.785
138.897 153.209 109.159
138.895 152.467 109.23
138.6 152.443 109.172
138.641 153.603 108.078
139.031 153.782 108.335
138.952 154.146 107.918
139.003 152.952 109.404
139.045 152.574 109.416
139.241 152.711 109.663
138.275 152.412 109.186
138.032 152.706 108.953
137.973 152.368 109.215
136.328 152.438 109.943
136.139 152.428 110.303
136.432 152.172 110.227
136.004 152.484 110.67
135.977 152.807 110.438
136.408 152.905 109.766
136.658 152.715 109.714
136.754 152.069 110.209
136.502 151.931 110.482
136.016 153.175 110.229
136.306 153.313 109.928
136.16 153.618 110.083
136.916 152.46 109.678
136.981 152.162 109.942
137.17 152.176 109.657
136.301 151.895 110.757
136.058 152.206 110.879
136.085 151.873 111.045
140.457 152.131 111.136
140.265 151.639 111.042
140.766 151.635 111.343
139.871 151.391 111
139.853 151.714 110.801
139.965 152.377 111.069
140.349 152.535 111.305
141.001 151.789 111.829
140.681 151.103 111.662
139.757 152.074 110.645
139.707 152.277 110.797
139.513 152.355 110.528
140.548 152.729 111.653
140.779 152.404 111.965
140.479 152.914 112.071
140.04 150.904 111.611
139.776 151.064 111.222
139.5 150.896 111.516
137.088 151.158 112.258
136.734 151.293 112.556
137.289 151.2 112.568
136.387 151.536 112.838
136.218 151.39 112.52
136.914 151.106 111.907
137.4 151.068 111.928
137.745 150.885 112.598
137.399 151.109 112.925
136.113 151.292 112.151
136.449 151.111 111.854
136.073 151.298 111.803
137.822 150.919 111.954
138.057 150.841 112.261
138.298 150.923 111.936
137.045 151.496 113.229
136.614 151.763 113.135
136.694 151.874 113.485
138.838 156.216 109.752
138.764 156.463 110.115
138.692 156.687 109.648
138.578 156.551 110.478
138.743 156.153 110.491
138.963 155.783 109.884
138.938 155.923 109.451
138.545 156.753 109.157
138.349 156.981 109.582
138.857 155.763 110.538
138.93 155.572 110.277
138.852 155.292 110.565
138.977 156.002 108.981
138.727 156.395 108.796
138.925 155.931 108.481
138.051 157.003 110.057
138.258 156.784 110.489
137.756 156.77 110.438
136.208 155.044 111.184
136.072 154.838 111.131
136.248 155.094 110.737
136.026 154.593 111.051
135.901 154.52 111.428
136.077 154.914 111.577
136.412 155.148 111.217
136.334 155.385 110.434
136.253 155.106 110.379
135.639 154.524 111.752
135.763 154.789 111.868
135.484 154.546 112.134
136.638 155.42 110.9
136.504 155.613 110.571
136.697 155.834 110.735
136.192 154.829 110.366
136.166 154.618 110.667
136.097 154.523 110.372
139.106 155.062 112.093
139.211 154.677 112.035
139.113 154.853 112.36
139.278 154.288 111.972
139.254 154.53 111.73
138.986 155.209 111.823
138.849 155.304 112.14
138.931 154.985 112.672
139.075 154.562 112.573
139.137 154.753 111.463
139 155.03 111.527
138.926 154.798 111.251
138.695 155.45 112.457
138.694 155.319 112.776
138.419 155.543 112.801
139.272 154.235 112.469
139.353 154.083 112.182
139.481 153.834 112.388
135.717 154.576 113.901
136.033 154.891 113.648
136.265 154.783 113.912
136.314 155.192 113.469
135.858 155.051 113.441
135.212 154.276 113.815
135.548 153.952 113.958
136.648 154.358 114.011
136.831 154.915 113.797
135.506 154.862 113.317
135.115 154.509 113.506
135.279 154.599 113.11
135.96 153.592 113.977
136.482 153.813 114.08
136.358 153.291 114.078
137.012 155.215 113.545
136.794 155.331 113.432
137.259 155.428 113.349
POLYGONS 1280  5120
3 164 162 163
3 163 44 164
3 162 43 163
3 164 42 162
3 166 165 163
3 163 43 166
3 165 44 163
3 166 14 165
3 168 167 162
3 162 42 168
3 167 43 162
3 168 13 167
3 170 169 164
3 164 44 170
3 169 42 164
3 170 12 169
3 173 171 172
3 172 46 173
3 171 43 172
3 173 45 171
3 167 174 172
3 172 43 167
3 174 46 172
3 167 13 174
3 175 166 171
3 171 45 175
3 166 43 171
3 175 14 166
3 177 176 173
3 173 46 177
3 176 45 173
3 177 4 176
3 180 178 179
3 179 48 180
3 178 42 179
3 180 47 178
3 169 181 179
3 179 42 169
3 181 48 179
3 169 12 181
3 182 168 178
3 178 47 182
3 168 42 178
3 182 13 168
3 184 183 180
3 180 48 184
3 183 47 180
3 184 8 183
3 187 185 186
3 186 50 187
3 185 44 186
3 187 49 185
3 165 188 186
3 186 44 165
3 188 50 186
3 165 14 188
3 189 170 185
3 185 49 189
3 170 44 185
3 189 12 170
3 191 190 187
3 187 50 191
3 190 49 187
3 191 7 190
3 194 192 193
3 193 53 194
3 192 52 193
3 194 51 192
3 196 195 193
3 193 52 196
3 195 53 193
3 196 16 195
3 198 197 192
3 192 51 198
3 197 52 192
3 198 14 197
3 200 199 194
3 194 53 200
3 199 51 194
3 200 15 199
3 203 201 202
3 202 45 203
3 201 52 202
3 203 54 201
3 197 175 202
3 202 52 197
3 175 45 202
3 197 14 175
3 204 196 201
3 201 54 204
3 196 52 201
3 204 16 196
3 176 205 203
3 203 45 176
3 205 54 203
3 176 4 205
3 208 206 207
3 207 55 208
3 206 51 207
3 208 50 206
3 199 209 207
3 207 51 199
3 209 55 207
3 199 15 209
3 188 198 206
3 206 50 188
3 198 51 206
3 188 14 198
3 210 191 208
3 208 55 210
3 191 50 208
3 210 7 191
3 213 211 212
3 212 57 213
3 211 53 212
3 213 56 211
3 195 214 212
3 212 53 195
3 214 57 212
3 195 16 214
3 215 200 211
3 211 56 215
3 200 53 211
3 215 15 200
3 217 216 213
3 213 57 217
3 216 56 213
3 217 9 216
3 220 218 219
3 219 60 220
3 218 59 219
3 220 58 218
3 222 221 219
3 219 59 222
3 221 60 219
3 222 19 221
3 224 223 218
3 218 58 224
3 223 59 218
3 224 18 223
3 226 225 220
3 220 60 226
3 225 58 220
3 226 17 225
3 229 227 228
3 228 62 229
3 227 59 228
3 229 61 227
3 223 230 228
3 228 59 223
3 230 62 228
3 223 18 230
3 231 222 227
3 227 61 231
3 222 59 227
3 231 19 222
3 233 232 229
3 229 62 233
3 232 61 229
3 233 5 232
3 236 234 235
3 235 64 236
3 234 58 235
3 236 63 234
3 225 237 235
3 235 58 225
3 237 64 235
3 225 17 237
3 238 224 234
3 234 63 238
3 224 58 234
3 238 18 224
3 240 239 236
3 236 64 240
3 239 63 236
3 240 6 239
3 243 241 242
3 242 66 243
3 241 60 242
3 243 65 241
3 221 244 242
3 242 60 221
3 244 66 242
3 221 19 244
3 245 226 241
3 241 65 245
3 226 60 241
3 245 17 226
3 247 246 243
3 243 66 247
3 246 65 243
3 247 11 246
3 250 248 249
3 249 69 250
3 248 68 249
3 250 67 248
3 252 251 249
3 249 68 252
3 251 69 249
3 252 18 251
3 254 253 248
3 248 67 254
3 253 68 248
3 254 21 253
3 256 255 250
3 250 69 256
3 255 67 250
3 256 20 255
3 259 257 258
3 258 70 259
3 257 68 258
3 259 62 257
3 253 260 258
3 258 68 253
3 260 70 258
3 253 21 260
3 230 252 257
3 257 62 230
3 252 68 257
3 230 18 252
3 261 233 259
3 259 70 261
3 233 62 259
3 261 5 233
3 264 262 263
3 263 72 264
3 262 67 263
3 264 71 262
3 255 265 263
3 263 67 255
3 265 72 263
3 255 20 265
3 266 254 262
3 262 71 266
3 254 67 262
3 266 21 254
3 268 267 264
3 264 72 268
3 267 71 264
3 268 10 267
3 271 269 270
3 270 63 271
3 269 69 270
3 271 73 269
3 251 238 270
3 270 69 251
3 238 63 270
3 251 18 238
3 272 256 269
3 269 73 272
3 256 69 269
3 272 20 256
3 239 273 271
3 271 63 239
3 273 73 271
3 239 6 273
3 276 274 275
3 275 76 276
3 274 75 275
3 276 74 274
3 278 277 275
3 275 75 278
3 277 76 275
3 278 24 277
3 280 279 274
3 274 74 280
3 279 75 274
3 280 23 279
3 282 281 276
3 276 76 282
3 281 74 276
3 282 22 281
3 285 283 284
3 284 78 285
3 283 75 284
3 285 77 283
3 279 286 284
3 284 75 279
3 286 78 284
3 279 23 286
3 287 278 283
3 283 77 287
3 278 75 283
3 287 24 278
3 289 288 285
3 285 78 289
3 288 77 285
3 289 0 288
3 292 290 291
3 291 80 292
3 290 74 291
3 292 79 290
3 281 293 291
3 291 74 281
3 293 80 291
3 281 22 293
3 294 280 290
3 290 79 294
3 280 74 290
3 294 23 280
3 296 295 292
3 292 80 296
3 295 79 292
3 296 4 295
3 299 297 298
3 298 82 299
3 297 76 298
3 299 81 297
3 277 300 298
3 298 76 277
3 300 82 298
3 277 24 300
3 301 282 297
3 297 81 301
3 282 76 297
3 301 22 282
3 303 302 299
3 299 82 303
3 302 81 299
3 303 3 302
3 306 304 305
3 305 85 306
3 304 84 305
3 306 83 304
3 308 307 305
3 305 84 308
3 307 85 305
3 308 26 307
3 310 309 304
3 304 83 310
3 309 84 304
3 310 24 309
3 312 311 306
3 306 85 312
3 311 83 306
3 312 25 311
3 315 313 314
3 314 77 315
3 313 84 314
3 315 86 313
3 309 287 314
3 314 84 309
3 287 77 314
3 309 24 287
3 316 308 313
3 313 86 316
3 308 84 313
3 316 26 308
3 288 317 315
3 315 77 288
3 317 86 315
3 288 0 317
3 320 318 319
3 319 87 320
3 318 83 319
3 320 82 318
3 311 321 319
3 319 83 311
3 321 87 319
3 311 25 321
3 300 310 318
3 318 82 300
3 310 83 318
3 300 24 310
3 322 303 320
3 320 87 322
3 303 82 320
3 322 3 303
3 325 323 324
3 324 89 325
3 323 85 324
3 325 88 323
3 307 326 324
3 324 85 307
3 326 89 324
3 307 26 326
3 327 312 323
3 323 88 327
3 312 85 323
3 327 25 312
3 329 328 325
3 325 89 329
3 328 88 325
3 329 5 328
3 332 330 331
3 331 92 332
3 330 91 331
3 332 90 330
3 334 333 331
3 331 91 334
3 333 92 331
3 334 29 333
3 336 335 330
3 330 90 336
3 335 91 330
3 336 28 335
3 338 337 332
3 332 92 338
3 337 90 332
3 338 27 337
3 341 339 340
3 340 94 341
3 339 91 340
3 341 93 339
3 335 342 340
3 340 91 335
3 342 94 340
3 335 28 342
3 343 334 339
3 339 93 343
3 334 91 339
3 343 29 334
3 345 344 341
3 341 94 345
3 344 93 341
3 345 2 344
3 348 346 347
3 347 96 348
3 346 90 347
3 348 95 346
3 337 349 347
3 347 90 337
3 349 96 347
3 337 27 349
3 350 336 346
3 346 95 350
3 336 90 346
3 350 28 336
3 352 351 348
3 348 96 352
3 351 95 348
3 352 7 351
3 355 353 354
3 354 98 355
3 353 92 354
3 355 97 353
3 333 356 354
3 354 92 333
3 356 98 354
3 333 29 356
3 357 338 353
3 353 97 357
3 338 92 353
3 357 27 338
3 359 358 355
3 355 98 359
3 358 97 355
3 359 1 358
3 362 360 361
3 361 101 362
3 360 100 361
3 362 99 360
3 364 363 361
3 361 100 364
3 363 101 361
3 364 31 363
3 366 365 360
3 360 99 366
3 365 100 360
3 366 29 365
3 368 367 362
3 362 101 368
3 367 99 362
3 368 30 367
3 371 369 370
3 370 93 371
3 369 100 370
3 371 102 369
3 365 343 370
3 370 100 365
3 343 93 370
3 365 29 343
3 372 364 369
3 369 102 372
3 364 100 369
3 372 31 364
3 344 373 371
3 371 93 344
3 373 102 371
3 344 2 373
3 376 374 375
3 375 103 376
3 374 99 375
3 376 98 374
3 367 377 375
3 375 99 367
3 377 103 375
3 367 30 377
3 356 366 374
3 374 98 356
3 366 99 374
3 356 29 366
3 378 359 376
3 376 103 378
3 359 98 376
3 378 1 359
3 381 379 380
3 380 105 381
3 379 101 380
3 381 104 379
3 363 382 380
3 380 101 363
3 382 105 380
3 363 31 382
3 383 368 379
3 379 104 383
3 368 101 379
3 383 30 368
3 385 384 381
3 381 105 385
3 384 104 381
3 385 6 384
3 388 386 387
3 387 108 388
3 386 107 387
3 388 106 386
3 390 389 387
3 387 107 390
3 389 108 387
3 390 34 389
3 392 391 386
3 386 106 392
3 391 107 386
3 392 33 391
3 394 393 388
3 388 108 394
3 393 106 388
3 394 32 393
3 397 395 396
3 396 110 397
3 395 107 396
3 397 109 395
3 391 398 396
3 396 107 391
3 398 110 396
3 391 33 398
3 399 390 395
3 395 109 399
3 390 107 395
3 399 34 390
3 401 400 397
3 397 110 401
3 400 109 397
3 401 8 400
3 404 402 403
3 403 112 404
3 402 106 403
3 404 111 402
3 393 405 403
3 403 106 393
3 405 112 403
3 393 32 405
3 406 392 402
3 402 111 406
3 392 106 402
3 406 33 392
3 408 407 404
3 404 112 408
3 407 111 404
3 408 0 407
3 411 409 410
3 410 114 411
3 409 108 410
3 411 113 409
3 389 412 410
3 410 108 389
3 412 114 410
3 389 34 412
3 413 394 409
3 409 113 413
3 394 108 409
3 413 32 394
3 415 414 411
3 411 114 415
3 414 113 411
3 415 11 414
3 418 416 417
3 417 117 418
3 416 116 417
3 418 115 416
3 420 419 417
3 417 116 420
3 419 117 417
3 420 36 419
3 422 421 416
3 416 115 422
3 421 116 416
3 422 34 421
3 424 423 418
3 418 117 424
3 423 115 418
3 424 35 423
3 427 425 426
3 426 109 427
3 425 116 426
3 427 118 425
3 421 399 426
3 426 116 421
3 399 109 426
3 421 34 399
3 428 420 425
3 425 118 428
3 420 116 425
3 428 36 420
3 400 429 427
3 427 109 400
3 429 118 427
3 400 8 429
3 432 430 431
3 431 119 432
3 430 115 431
3 432 114 430
3 423 433 431
3 431 115 423
3 433 119 431
3 423 35 433
3 412 422 430
3 430 114 412
3 422 115 430
3 412 34 422
3 434 415 432
3 432 119 434
3 415 114 432
3 434 11 415
3 437 435 436
3 436 121 437
3 435 117 436
3 437 120 435
3 419 438 436
3 436 117 419
3 438 121 436
3 419 36 438
3 439 424 435
3 435 120 439
3 424 117 435
3 439 35 424
3 441 440 437
3 437 121 441
3 440 120 437
3 441 1 440
3 444 442 443
3 443 124 444
3 442 123 443
3 444 122 442
3 446 445 443
3 443 123 446
3 445 124 443
3 446 39 445
3 448 447 442
3 442 122 448
3 447 123 442
3 448 38 447
3 450 449 444
3 444 124 450
3 449 122 444
3 450 37 449
3 453 451 452
3 452 126 453
3 451 123 452
3 453 125 451
3 447 454 452
3 452 123 447
3 454 126 452
3 447 38 454
3 455 446 451
3 451 125 455
3 446 123 451
3 455 39 446
3 457 456 453
3 453 126 457
3 456 125 453
3 457 9 456
3 460 458 459
3 459 128 460
3 458 122 459
3 460 127 458
3 449 461 459
3 459 122 449
3 461 128 459
3 449 37 461
3 462 448 458
3 458 127 462
3 448 122 458
3 462 38 448
3 464 463 460
3 460 128 464
3 463 127 460
3 464 10 463
3 467 465 466
3 466 130 467
3 465 124 466
3 467 129 465
3 445 468 466
3 466 124 445
3 468 130 466
3 445 39 468
3 469 450 465
3 465 129 469
3 450 124 465
3 469 37 450
3 471 470 467
3 467 130 471
3 470 129 467
3 471 3 470
3 474 472 473
3 473 133 474
3 472 132 473
3 474 131 472
3 476 475 473
3 473 132 476
3 475 133 473
3 476 38 475
3 478 477 472
3 472 131 478
3 477 132 472
3 478 41 477
3 480 479 474
3 474 133 480
3 479 131 474
3 480 40 479
3 483 481 482
3 482 134 483
3 481 132 482
3 483 126 481
3 477 484 482
3 482 132 477
3 484 134 482
3 477 41 484
3 454 476 481
3 481 126 454
3 476 132 481
3 454 38 476
3 485 457 483
3 483 134 485
3 457 126 483
3 485 9 457
3 488 486 487
3 487 136 488
3 486 131 487
3 488 135 486
3 479 489 487
3 487 131 479
3 489 136 487
3 479 40 489
3 490 478 486
3 486 135 490
3 478 131 486
3 490 41 478
3 492 491 488
3 488 136 492
3 491 135 488
3 492 2 491
3 495 493 494
3 494 127 495
3 493 133 494
3 495 137 493
3 475 462 494
3 494 133 475
3 462 127 494
3 475 38 462
3 496 480 493
3 493 137 496
3 480 133 493
3 496 40 480
3 463 497 495
3 495 127 463
3 497 137 495
3 463 10 497
3 500 498 499
3 499 140 500
3 498 139 499
3 500 138 498
3 502 501 499
3 499 139 502
3 501 140 499
3 502 33 501
3 504 503 498
3 498 138 504
3 503 139 498
3 504 13 503
3 506 505 500
3 500 140 506
3 505 138 500
3 506 23 505
3 509 507 508
3 508 47 509
3 507 139 508
3 509 110 507
3 503 182 508
3 508 139 503
3 182 47 508
3 503 13 182
3 398 502 507
3 507 110 398
3 502 139 507
3 398 33 502
3 183 401 509
3 509 47 183
3 401 110 509
3 183 8 401
3 512 510 511
3 511 79 512
3 510 138 511
3 512 46 510
3 505 294 511
3 511 138 505
3 294 79 511
3 505 23 294
3 174 504 510
3 510 46 174
3 504 138 510
3 174 13 504
3 295 177 512
3 512 79 295
3 177 46 512
3 295 4 177
3 515 513 514
3 514 111 515
3 513 140 514
3 515 78 513
3 501 406 514
3 514 140 501
3 406 111 514
3 501 33 406
3 286 506 513
3 513 78 286
3 506 140 513
3 286 23 506
3 407 289 515
3 515 111 407
3 289 78 515
3 407 0 289
3 518 516 517
3 517 143 518
3 516 142 517
3 518 141 516
3 520 519 517
3 517 142 520
3 519 143 517
3 520 19 519
3 522 521 516
3 516 141 522
3 521 142 516
3 522 32 521
3 524 523 518
3 518 143 524
3 523 141 518
3 524 26 523
3 527 525 526
3 526 113 527
3 525 142 526
3 527 66 525
3 521 413 526
3 526 142 521
3 413 113 526
3 521 32 413
3 244 520 525
3 525 66 244
3 520 142 525
3 244 19 520
3 414 247 527
3 527 113 414
3 247 66 527
3 414 11 247
3 530 528 529
3 529 86 530
3 528 141 529
3 530 112 528
3 523 316 529
3 529 141 523
3 316 86 529
3 523 26 316
3 405 522 528
3 528 112 405
3 522 141 528
3 405 32 522
3 317 408 530
3 530 86 317
3 408 112 530
3 317 0 408
3 533 531 532
3 532 61 533
3 531 143 532
3 533 89 531
3 519 231 532
3 532 143 519
3 231 61 532
3 519 19 231
3 326 524 531
3 531 89 326
3 524 143 531
3 326 26 524
3 232 329 533
3 533 61 232
3 329 89 533
3 232 5 329
3 536 534 535
3 535 146 536
3 534 145 535
3 536 144 534
3 538 537 535
3 535 145 538
3 537 146 535
3 538 22 537
3 540 539 534
3 534 144 540
3 539 145 534
3 540 16 539
3 542 541 536
3 536 146 542
3 541 144 536
3 542 39 541
3 545 543 544
3 544 54 545
3 543 145 544
3 545 80 543
3 539 204 544
3 544 145 539
3 204 54 544
3 539 16 204
3 293 538 543
3 543 80 293
3 538 145 543
3 293 22 538
3 205 296 545
3 545 54 205
3 296 80 545
3 205 4 296
3 548 546 547
3 547 125 548
3 546 144 547
3 548 57 546
3 541 455 547
3 547 144 541
3 455 125 547
3 541 39 455
3 214 540 546
3 546 57 214
3 540 144 546
3 214 16 540
3 456 217 548
3 548 125 456
3 217 57 548
3 456 9 217
3 551 549 550
3 550 81 551
3 549 146 550
3 551 130 549
3 537 301 550
3 550 146 537
3 301 81 550
3 537 22 301
3 468 542 549
3 549 130 468
3 542 146 549
3 468 39 542
3 302 471 551
3 551 81 302
3 471 130 551
3 302 3 471
3 554 552 553
3 553 149 554
3 552 148 553
3 554 147 552
3 556 555 553
3 553 148 556
3 555 149 553
3 556 21 555
3 558 557 552
3 552 147 558
3 557 148 552
3 558 25 557
3 560 559 554
3 554 149 560
3 559 147 554
3 560 37 559
3 563 561 562
3 562 88 563
3 561 148 562
3 563 70 561
3 557 327 562
3 562 148 557
3 327 88 562
3 557 25 327
3 260 556 561
3 561 70 260
3 556 148 561
3 260 21 556
3 328 261 563
3 563 88 328
3 261 70 563
3 328 5 261
3 566 564 565
3 565 129 566
3 564 147 565
3 566 87 564
3 559 469 565
3 565 147 559
3 469 129 565
3 559 37 469
3 321 558 564
3 564 87 321
3 558 147 564
3 321 25 558
3 470 322 566
3 566 129 470
3 322 87 566
3 470 3 322
3 569 567 568
3 568 71 569
3 567 149 568
3 569 128 567
3 555 266 568
3 568 149 555
3 266 71 568
3 555 21 266
3 461 560 567
3 567 128 461
3 560 149 567
3 461 37 560
3 267 464 569
3 569 71 267
3 464 128 569
3 267 10 464
3 572 570 571
3 571 152 572
3 570 151 571
3 572 150 570
3 574 573 571
3 571 151 574
3 573 152 571
3 574 27 573
3 576 575 570
3 570 150 576
3 575 151 570
3 576 12 575
3 578 577 572
3 572 152 578
3 577 150 572
3 578 36 577
3 581 579 580
3 580 49 581
3 579 151 580
3 581 96 579
3 575 189 580
3 580 151 575
3 189 49 580
3 575 12 189
3 349 574 579
3 579 96 349
3 574 151 579
3 349 27 574
3 190 352 581
3 581 49 190
3 352 96 581
3 190 7 352
3 584 582 583
3 583 118 584
3 582 150 583
3 584 48 582
3 577 428 583
3 583 150 577
3 428 118 583
3 577 36 428
3 181 576 582
3 582 48 181
3 576 150 582
3 181 12 576
3 429 184 584
3 584 118 429
3 184 48 584
3 429 8 184
3 587 585 586
3 586 97 587
3 585 152 586
3 587 121 585
3 573 357 586
3 586 152 573
3 357 97 586
3 573 27 357
3 438 578 585
3 585 121 438
3 578 152 585
3 438 36 578
3 358 441 587
3 587 97 358
3 441 121 587
3 358 1 441
3 590 588 589
3 589 155 590
3 588 154 589
3 590 153 588
3 592 591 589
3 589 154 592
3 591 155 589
3 592 17 591
3 594 593 588
3 588 153 594
3 593 154 588
3 594 30 593
3 596 595 590
3 590 155 596
3 595 153 590
3 596 35 595
3 599 597 598
3 598 104 599
3 597 154 598
3 599 64 597
3 593 383 598
3 598 154 593
3 383 104 598
3 593 30 383
3 237 592 597
3 597 64 237
3 592 154 597
3 237 17 592
3 384 240 599
3 599 104 384
3 240 64 599
3 384 6 240
3 602 600 601
3 601 120 602
3 600 153 601
3 602 103 600
3 595 439 601
3 601 153 595
3 439 120 601
3 595 35 439
3 377 594 600
3 600 103 377
3 594 153 600
3 377 30 594
3 440 378 602
3 602 120 440
3 378 103 602
3 440 1 378
3 605 603 604
3 604 65 605
3 603 155 604
3 605 119 603
3 591 245 604
3 604 155 591
3 245 65 604
3 591 17 245
3 433 596 603
3 603 119 433
3 596 155 603
3 433 35 596
3 246 434 605
3 605 65 246
3 434 119 605
3 246 11 434
3 608 606 607
3 607 158 608
3 606 157 607
3 608 156 606
3 610 609 607
3 607 157 610
3 609 158 607
3 610 15 609
3 612 611 606
3 606 156 612
3 611 157 606
3 612 28 611
3 614 613 608
3 608 158 614
3 613 156 608
3 614 41 613
3 617 615 616
3 616 95 617
3 615 157 616
3 617 55 615
3 611 350 616
3 616 157 611
3 350 95 616
3 611 28 350
3 209 610 615
3 615 55 209
3 610 157 615
3 209 15 610
3 351 210 617
3 617 95 351
3 210 55 617
3 351 7 210
3 620 618 619
3 619 135 620
3 618 156 619
3 620 94 618
3 613 490 619
3 619 156 613
3 490 135 619
3 613 41 490
3 342 612 618
3 618 94 342
3 612 156 618
3 342 28 612
3 491 345 620
3 620 135 491
3 345 94 620
3 491 2 345
3 623 621 622
3 622 56 623
3 621 158 622
3 623 134 621
3 609 215 622
3 622 158 609
3 215 56 622
3 609 15 215
3 484 614 621
3 621 134 484
3 614 158 621
3 484 41 614
3 216 485 623
3 623 56 216
3 485 134 623
3 216 9 485
3 626 624 625
3 625 161 626
3 624 160 625
3 626 159 624
3 628 627 625
3 625 160 628
3 627 161 625
3 628 31 627
3 630 629 624
3 624 159 630
3 629 160 624
3 630 20 629
3 632 631 626
3 626 161 632
3 631 159 626
3 632 40 631
3 635 633 634
3 634 73 635
3 633 160 634
3 635 105 633
3 629 272 634
3 634 160 629
3 272 73 634
3 629 20 272
3 382 628 633
3 633 105 382
3 628 160 633
3 382 31 628
3 273 385 635
3 635 73 273
3 385 105 635
3 273 6 385
3 638 636 637
3 637 137 638
3 636 159 637
3 638 72 636
3 631 496 637
3 637 159 631
3 496 137 637
3 631 40 496
3 265 630 636
3 636 72 265
3 630 159 636
3 265 20 630
3 497 268 638
3 638 137 497
3 268 72 638
3 497 10 268
3 641 639 640
3 640 102 641
3 639 161 640
3 641 136 639
3 627 372 640
3 640 161 627
3 372 102 640
3 627 31 372
3 489 632 639
3 639 136 489
3 632 161 639
3 489 40 632
3 373 492 641
3 641 102 373
3 492 136 641
3 373 2 492
