# vtk DataFile Version 3.0
this file was written using fslvtkio
ASCII
DATASET POLYDATA
POINTS 1068 float
103.811 131.557 133.488
103.809 132.431 134.33
104.437 132.332 133.707
104.548 131.791 132.924
103.959 130.864 132.541
104.689 131.227 132.091
104.015 130.625 131.322
104.657 131.211 131.103
104.063 130.901 130.416
104.757 131.428 130.024
103.068 132.163 133.7
103.33 133.027 134.575
103.04 131.304 132.909
103.135 130.642 131.819
103.429 130.624 130.391
104.008 131.07 129.376
102.512 132.601 134.264
102.748 133.471 134.788
102.404 132.011 133.308
102.431 131.423 132.272
102.713 131.094 130.97
103.096 131.234 129.61
102.022 132.787 133.868
102.033 132.183 132.65
102.221 131.808 131.427
102.269 131.556 130.148
107.708 131.604 130.554
108.355 132.44 131.468
109.147 132.443 130.665
108.967 132.291 129.657
107.906 132.021 129.333
108.755 132.614 128.783
107.179 131.769 131.475
106.632 132.48 131.883
107.729 132.904 131.811
106.633 131.744 130.585
106.978 132.074 129.629
107.444 132.441 128.62
105.885 131.657 131.922
106.049 132.629 132.386
105.97 131.644 131.062
105.871 131.891 129.902
106.432 132.545 129.053
105.093 132.593 133.356
104.609 133.026 134.147
105.154 133.616 133.368
105.575 133.191 132.937
105.309 131.986 132.697
104.999 131.54 131.788
105.281 131.503 130.68
105.236 131.925 129.626
105.686 132.417 128.946
104.195 133.571 134.814
104.449 131.767 129.034
103.656 133.987 135.268
103.67 131.679 128.573
102.975 134.335 135.568
102.732 131.907 129.289
101.965 133.532 134.418
102.159 134.352 135.089
101.714 133.1 133.39
101.981 132.7 132.283
102.175 132.561 131.457
102.099 132.372 130.379
101.616 133.953 134.046
101.604 133.578 132.939
101.896 133.266 132.086
112.218 133.42 127.93
112.283 133.881 129.088
112.745 134.688 128.208
113.168 134.379 127.398
112.175 134.027 126.865
113.02 134.408 126.447
112.145 134.354 125.933
112.876 134.84 125.662
111.244 132.815 129.286
110.583 133.268 130.245
111.353 133.952 129.732
110.818 132.982 128.076
110.939 133.531 127.112
111.107 133.991 126.098
111.88 134.794 125.477
109.97 132.768 130.15
109.483 133.133 131.078
109.944 132.677 128.879
109.657 133.098 127.722
109.795 133.671 126.617
110.481 134.419 125.734
108.868 133.499 131.702
108.43 132.961 127.906
108.51 133.551 126.823
109.216 134.197 125.86
106.995 133.489 132.131
108.062 134.002 131.74
106.936 132.941 128.161
107.317 133.35 127.211
107.941 134.174 125.879
106.228 133.59 132.364
105.913 134.161 132.895
106.788 134.379 132.545
105.941 132.915 127.977
106.437 133.514 127.021
107.148 134.022 126.352
104.869 134.112 134.103
105.391 134.56 133.243
105.066 132.391 128.526
105.227 133.07 128.044
105.762 133.709 127.256
104.472 134.638 134.821
104.222 132.43 128.191
104.598 133.296 128.169
105.104 133.745 127.796
103.892 135.047 135.251
103.273 132.402 128.38
103.749 133.09 127.978
102.727 135.099 135.447
102.515 132.544 129.322
103.02 133.047 128.705
101.771 135.249 135.044
102.246 133.466 130.499
102.073 133.191 131.403
102.472 133.333 129.533
101.436 134.705 134.387
101.331 134.422 133.315
101.489 134.037 132.287
112.121 135.002 129.288
112.949 135.647 128.278
113.514 135.457 127.551
113.701 135.186 126.538
112.894 135.581 125.879
110.307 134.009 130.485
111.131 134.734 129.865
111.638 135.362 125.645
109.524 134.153 131.026
110.91 135.188 125.366
110.023 134.861 125.226
110.621 135.862 125.362
109.024 134.623 131.468
109.004 134.77 125.363
109.761 135.619 125.239
107.596 134.531 132.259
108.137 134.986 131.757
108.567 135.08 125.284
109.088 135.934 125.343
106.352 135.202 132.942
107.203 135.464 132.661
106.389 134.282 126.14
107.249 134.722 125.726
108.095 135.355 125.369
105.223 135.148 134.035
105.77 135.686 133.158
105.832 134.5 126.514
106.308 135.267 126.111
104.77 135.688 134.65
104.399 134.036 128.085
105.214 134.371 127.589
105.585 134.81 126.888
103.706 135.834 135.187
103.657 133.868 128.215
104.392 134.783 128.295
102.624 135.926 135.383
103.595 134.398 128.708
103.147 133.737 128.886
101.784 136.085 135.171
101.857 133.852 131.346
101.968 134.211 130.685
102.5 134.36 129.991
101.176 135.637 134.583
101.111 135.184 133.718
101.232 134.933 132.66
101.553 134.669 131.59
112.455 135.894 128.879
113.183 136.528 128.483
113.679 136.358 127.695
113.764 136.218 126.698
112.735 136.45 126.288
110.528 135.101 130.246
111.4 135.522 129.745
112.038 136.28 129.286
111.915 136.344 125.858
111.238 135.888 125.563
111.259 136.697 125.913
109.782 135.067 130.823
110.263 136.022 130.455
110.542 136.693 125.918
109.092 135.59 131.472
109.889 136.749 125.744
107.857 135.867 132.159
108.386 135.733 131.751
109.181 136.824 125.744
106.886 136.307 132.999
107.474 136.27 132.51
107.339 135.642 125.845
108.309 136.348 125.757
105.486 136.29 133.772
106.245 136.427 133.304
106.784 135.978 126.158
107.499 136.556 126.194
105.036 136.44 134.626
104.885 137.285 134.91
105.51 137.053 134.209
105.104 135.106 127.671
105.826 135.634 126.83
106.335 136.35 126.469
104.192 136.474 134.962
104.149 137.38 135.247
104.709 135.421 128.091
105.148 135.819 127.673
103.205 136.588 135.43
103.235 137.405 135.523
103.24 134.486 129.314
103.773 135.117 128.777
104.343 135.826 128.494
102.277 136.73 135.411
102.327 137.501 135.46
102.619 135.421 130.283
101.95 134.941 130.843
103.202 135.102 129.725
101.221 136.6 135.125
100.911 136.397 134.337
100.998 136.007 133.704
101.101 135.688 132.712
101.391 135.434 131.769
113.882 137.279 127.552
113.69 137.404 128.568
114.038 138.307 128.157
113.711 138.042 127.375
113.466 137.116 126.931
113.157 137.846 127.148
112.833 137.011 128.978
112.639 137.804 126.891
111.231 136.494 130.051
112.249 137.114 129.613
112.159 137.284 126.155
111.456 137.6 126.161
109.71 136.22 131.124
110.49 137.214 130.748
110.675 137.732 126.141
108.484 136.416 132.011
108.841 137.244 132.035
109.298 136.772 131.573
109.828 137.695 126.124
107.611 137.041 132.532
107.948 137.951 132.925
108.504 137.84 132.33
108.9 137.468 125.995
106.769 137.135 133.295
106.741 138.033 133.77
107.628 138.351 133.411
108.153 137.338 126.406
106.117 137.304 133.801
105.681 137.911 134.702
106.427 138.387 134.367
107.214 137.155 126.627
105.023 138.228 135.044
106.345 137.156 127.042
105.826 136.364 127.397
104.215 138.354 135.515
105.01 136.477 128.037
103.334 138.342 135.526
104.2 136.614 128.691
103.644 135.721 129.149
102.484 138.349 135.418
102.863 136.177 130.596
102.066 135.657 131.175
103.287 135.922 129.878
101.6 137.477 135.141
101.068 137.174 134.535
101.042 136.831 133.686
101.173 136.505 132.775
101.526 136.19 131.95
113.673 138.226 128.759
113.317 138.654 129.562
114.228 139.002 129.119
114.503 139.105 128.261
113.734 138.778 127.628
113.482 139.193 127.464
112.98 137.82 129.378
112.133 137.785 129.9
112.922 139.164 127.27
111.369 137.507 130.294
112.278 138.377 126.478
111.569 138.616 126.492
109.729 137.408 131.42
110.02 138.664 131.666
110.523 138.319 131.058
111.236 138.256 130.737
110.659 138.632 126.558
109.408 138.105 131.989
108.986 138.879 132.44
109.623 139.416 131.961
109.689 138.457 126.502
108.574 139.269 132.869
108.805 138.322 126.589
107.031 138.993 133.727
108.059 139.346 133.596
107.843 138.134 126.757
105.789 138.953 134.62
106.613 139.438 134.348
107.082 137.874 127.22
105.165 139.177 135.033
106.136 137.835 127.519
105.674 137.09 127.759
104.394 139.257 135.446
105.112 137.202 128.508
103.511 139.266 135.424
104.193 137.357 128.947
103.635 136.571 129.411
102.675 139.11 135.297
102.281 136.259 131.346
102.76 136.779 130.781
103.158 136.775 130.163
101.819 138.315 135.044
101.361 137.95 134.483
101.323 137.648 133.669
101.275 137.372 132.809
101.567 137.083 132.084
102.194 136.838 131.563
115.121 139.794 128.761
114.339 139.808 129.535
115.58 140.479 129.274
116.049 140.708 128.335
114.928 139.765 128.018
115.17 140.673 128.081
114.238 139.805 127.839
114.412 140.655 127.854
113.103 139.185 129.89
113.796 140.582 127.727
112.328 138.722 130.174
113.116 140.381 127.505
111.761 138.541 130.404
111.822 139.396 130.8
112.282 139.211 130.448
112.407 139.411 126.886
111.57 139.586 126.769
110.753 139.542 131.779
111.217 139.194 131.184
110.568 139.46 126.815
109.596 140.241 132.591
110.347 140.271 132.202
109.55 139.281 126.846
109.036 140.232 133.304
108.535 139.055 127.021
107.726 139.854 134.201
108.444 139.971 133.89
107.553 138.807 127.46
106.136 139.948 134.896
107.043 140.164 134.613
106.738 138.416 127.493
105.46 140.145 135.193
106.162 138.508 127.841
105.636 137.923 128.202
104.516 140.144 135.543
105.135 137.985 128.845
103.593 140.091 135.509
104.424 138.012 129.403
103.68 137.3 129.696
102.781 139.864 135.263
103.369 137.68 130.356
102.937 137.382 130.893
101.942 139.023 134.91
101.385 138.775 134.41
101.329 138.48 133.549
101.423 138.222 132.72
101.852 138.013 132.08
102.215 137.608 131.441
116.63 141.186 129.048
115.571 141.024 129.833
117.096 141.997 129.569
117.24 142.054 128.828
116.609 141.687 128.239
116.792 142.62 128.264
114.333 140.478 129.867
115.526 141.614 128.1
114.793 141.811 128.024
113.465 140.218 130.12
113.794 141.052 130.789
114.265 140.932 130.22
114.017 141.833 127.937
112.662 139.861 130.49
112.85 140.592 131.196
113.172 141.347 127.748
111.808 140.134 131.425
112.322 141.122 131.899
112.632 140.896 131.483
112.414 140.342 127.186
111.45 140.426 127.121
111.204 140.628 131.999
110.846 141.254 132.927
111.711 141.428 132.521
110.345 140.175 127.183
110.031 141.074 133.66
109.266 139.979 127.2
108.922 140.556 134.123
108.765 141.212 134.679
109.503 141.315 134.365
108.249 139.77 127.45
107.934 140.58 134.613
107.006 140.869 134.823
108.041 141.449 134.903
107.496 139.447 127.591
107.566 140.11 127.882
106.803 139.56 127.968
106.287 140.929 134.989
106.759 138.987 127.7
106.011 139.002 128.296
105.436 140.951 135.26
105.628 138.771 128.833
104.462 140.905 135.437
105.05 138.679 129.251
103.552 140.779 135.338
104.469 138.54 129.527
103.985 138.081 129.929
102.705 140.248 135.058
102.057 139.666 134.892
102.173 140.148 134.529
103.656 138.232 130.499
102.968 138.042 131.011
101.642 139.423 134.286
101.457 139.265 133.476
101.587 138.949 132.772
101.946 138.799 132.117
102.459 138.327 131.624
116.097 141.889 130.045
116.113 142.507 130.459
116.915 142.704 130.135
117.93 142.79 129.551
117.789 142.93 128.759
117.41 143.803 128.308
114.911 141.538 130.287
115.389 142.595 130.649
115.958 142.736 128.261
114.983 142.85 128.136
114.307 142.089 130.844
114.309 142.696 131.637
114.923 142.759 130.936
114.008 142.762 128.049
113.314 141.67 131.377
113.409 142.514 132.061
113.047 141.888 127.842
112.313 140.982 127.602
112.045 141.47 127.67
112.665 141.901 132.236
111.984 142.169 133.298
112.938 142.645 132.836
111.075 141.011 127.548
111.034 142.148 133.78
110.043 140.785 127.428
110.217 141.963 134.085
109.151 140.639 127.65
109.336 142.028 134.824
109.884 142.112 134.527
108.312 140.637 127.827
107.297 141.843 135.119
108.474 142.258 135.148
107.503 140.727 128.243
106.573 139.966 128.315
106.308 141.811 135.308
105.964 139.804 128.783
105.268 141.775 135.476
105.464 139.529 129.314
104.318 141.645 135.228
104.53 138.93 129.592
105.098 139.575 129.659
104.541 139.55 129.909
103.638 141.29 134.908
102.972 140.698 134.857
102.927 140.959 134.486
103.858 138.756 130.267
104.174 139.701 130.389
103.634 139.269 130.762
102.358 140.742 134.039
102.845 138.959 131.538
102.945 139.585 131.517
102.538 139.376 132.085
103.346 138.708 130.934
103.382 139.533 131.213
101.891 140.046 133.977
101.847 139.823 133.319
101.982 139.516 132.617
118.993 143.354 128.984
118.622 143.465 129.951
119.538 143.882 129.948
119.668 144.07 128.775
118.583 143.816 128.376
118.854 144.682 128.412
116.906 143.523 130.806
117.833 143.39 130.469
117.6 144.688 128.683
115.566 143.269 131.151
116.034 144.028 131.838
116.542 143.827 131.209
116.273 143.726 128.284
115.099 143.736 128.252
114.966 143.467 132.128
114.512 144.099 133.026
115.559 144.392 132.647
113.83 143.55 128.268
113.98 143.211 132.847
113.136 143.32 133.631
112.884 142.507 127.869
111.775 142.153 127.692
112.174 143.012 133.991
110.788 141.675 127.752
111.428 142.924 134.53
111.404 143.849 135.05
112.09 143.742 134.635
110.006 141.552 127.871
110.516 142.834 134.62
110.488 143.66 135.234
109.174 141.481 128.015
109.617 142.87 135.16
108.264 142.857 135.407
109.498 143.447 135.472
108.265 141.297 128.122
107.187 142.722 135.511
107.736 141.366 128.548
106.864 140.72 128.855
106.144 142.628 135.447
106.179 140.617 129.193
105.121 142.508 135.225
105.393 140.193 129.632
105.862 141.096 129.482
105.329 140.766 130.071
104.355 142.151 134.863
104.147 140.739 131.273
104.682 141.622 131.575
103.98 140.992 131.737
104.721 140.674 130.781
104.881 141.312 131.162
104.868 140.227 130.231
105.298 141.166 130.662
103.776 141.658 134.452
103.189 141.426 134.023
103.351 140.131 131.567
103.367 140.73 132.08
104.084 140.161 130.92
102.722 141.13 133.689
102.356 140.492 133.455
102.392 140.249 132.843
102.745 140.978 133.095
102.703 140.086 132.135
102.987 140.81 132.611
120.27 144.895 130.656
119.672 145.288 131.369
121.305 145.706 131.041
121.55 145.39 130.037
120.372 144.531 129.811
121.166 145.139 129.053
120.23 144.698 128.526
120.272 145.461 128.547
118.733 144.166 130.876
118.527 144.874 131.599
119.016 145.489 128.934
117.378 144.266 131.339
117.289 144.895 132.383
118.044 145.227 132.301
117.603 145.556 128.758
116.523 144.558 132.335
116.043 145.081 133.343
116.933 145.119 132.965
116.345 144.57 128.547
115.033 144.599 128.379
114.697 144.602 133.663
113.836 144.238 128.355
113.823 144.178 134.13
113.641 144.89 135.109
114.579 145.003 134.649
112.752 143.146 128.131
112.82 143.937 128.332
113.012 144.02 134.538
112.385 144.7 135.268
111.896 142.909 128.085
110.968 142.536 128.042
111.28 144.766 135.427
110.109 142.355 128.259
110.132 144.099 135.591
109.075 143.82 135.809
110.306 144.819 135.775
109.088 141.973 128.464
108.087 143.637 135.685
108.353 141.784 128.512
108.782 142.339 128.706
107.68 141.895 128.86
107.1 143.493 135.422
107.018 141.475 129.229
106.111 143.302 135.176
106.391 141.347 129.322
105.293 143.203 134.937
104.609 142.747 134.828
104.829 143.121 134.277
105.679 141.395 130.04
106.168 141.865 129.836
105.708 141.971 130.254
106.566 141.799 129.571
104.182 142.345 134.552
104.235 142.691 134.11
105.065 142.26 131.709
104.181 141.617 132.031
105.331 142.018 130.979
103.301 141.629 133.448
103.788 142.114 133.878
103.486 141.501 132.875
103.94 142.126 133.176
103.61 141.382 132.338
104.16 142.019 132.558
120.166 146.705 132.379
120.283 147.357 133.215
121.269 147.362 132.775
121.417 146.491 132.072
120.282 145.958 131.875
122.266 146.274 131.055
122.242 146.278 129.904
121.569 146.073 128.983
120.42 146.365 128.9
118.983 146.301 132.987
118.79 146.79 133.526
118.94 145.774 132.318
119.052 146.288 129.244
117.479 145.704 133.244
117.717 146.358 134.078
117.89 146.41 128.954
116.59 145.676 134.15
115.973 146.167 135.084
116.948 146.443 134.621
116.263 145.286 128.6
116.56 146.024 128.782
115.385 145.376 134.379
114.715 145.835 135.328
115.281 145.312 128.54
114.074 144.942 128.572
113.397 145.59 135.716
112.893 144.686 128.731
112.242 145.579 135.783
111.775 143.472 128.407
111.89 144.282 128.722
111.219 145.71 135.864
110.886 143.341 128.469
110.903 144.166 128.798
109.043 144.546 135.901
110.012 145.45 135.839
109.957 143.492 128.655
110.078 144.143 128.988
109.333 143.712 129.045
109.72 142.816 128.473
108.086 144.439 135.58
108.743 142.878 128.972
108.778 143.576 129.492
106.996 144.221 135.427
107.744 142.64 129.163
107.741 143.315 129.594
106.485 143.989 134.927
107.104 142.497 129.831
107.286 143.189 129.868
106.916 143.149 130.216
107.093 141.898 129.47
105.685 143.837 134.697
104.616 143.205 133.545
105.226 143.707 134.144
105.124 143.735 133.241
106.278 142.582 130.307
106.457 143.094 130.784
105.85 142.666 130.994
104.218 142.691 133.4
104.948 143.263 132.801
104.552 142.715 132.711
104.75 142.317 132.215
105.184 143.046 132.165
105.497 142.846 131.532
123.686 147.558 131.686
123.444 147.965 132.773
124.478 148.138 132.427
125.104 148.045 131.192
123.725 147.646 130.498
124.346 148.22 130.375
123.244 147.944 129.854
123.526 148.531 130.058
122.405 147.493 132.594
121.701 148.228 133.731
122.843 148.378 133.569
122.681 146.782 131.73
123.032 146.905 130.698
122.67 147.261 129.817
122.247 148.069 129.93
120.014 147.821 133.906
121.579 146.967 129.289
120.349 147.155 129.245
118.618 147.312 134.134
119.046 147.108 129.246
117.715 146.936 134.541
116.901 147.194 135.165
117.982 147.564 134.829
117.298 146.821 129.215
115.619 146.819 135.616
116.014 146.608 129.035
114.334 146.553 135.923
115.067 145.777 128.736
113.8 145.563 128.812
113.201 146.499 136.213
112.756 145.268 129.025
112.166 146.535 135.935
111.712 145.028 129.009
111.203 146.584 135.787
110.772 144.699 129.032
109.015 145.367 135.601
110.248 146.194 135.608
110.459 144.71 129.338
109.796 144.519 129.587
107.893 145.096 135.314
108.765 145.93 135.375
108.71 144.014 129.993
106.844 144.772 135.075
107.426 145.548 134.849
107.599 143.756 130.049
108.328 144.363 130.348
107.57 144.256 130.531
106.348 144.408 134.535
106.608 145.061 134.402
106.672 143.896 131.48
107.01 144.608 131.728
106.399 144.159 132.142
106.929 143.66 130.711
107.366 144.478 131.04
105.767 144.324 134.08
105.471 143.818 132.576
105.579 144.27 133.353
105.796 143.63 131.943
106.143 144.311 132.634
106.182 143.32 131.3
134.354 151.756 133.744
134.114 151.522 134.434
135.265 151.937 134.328
134.816 152.38 133.949
134.05 152.23 133.602
134.303 152.699 133.931
133.49 151.31 133.796
132.891 151.217 134.098
133.349 151.754 133.49
133.335 152.561 133.505
132.453 151.23 133.485
132.532 151.9 133.307
124.991 149.176 133.476
124.129 149.784 134.503
125.329 149.927 134.078
126.113 149.212 132.917
125.461 148.554 132.364
126.531 149.01 131.263
125.617 148.776 130.8
125.575 149.775 130.555
123.952 148.861 133.493
122.945 149.293 134.444
124.672 148.986 130.27
123.103 149.027 130.075
121.261 148.595 134.477
121.758 148.933 130.211
120.129 148.411 134.524
119.361 148.714 135.243
120.583 149.008 135.121
121.123 147.887 129.698
119.707 147.94 129.653
119.006 148.032 134.696
117.857 148.178 135.402
118.391 147.587 129.416
116.449 147.823 135.629
117.087 147.472 129.406
115.212 147.603 136.019
116.052 147.487 129.683
113.99 147.446 136.026
114.884 146.295 129.11
115.036 146.975 129.647
112.924 147.517 135.912
113.887 146.246 129.26
113.737 146.78 129.675
111.917 147.449 135.611
112.708 145.854 129.48
112.133 146.136 129.828
110.761 147.113 135.366
111.231 145.326 129.473
111.256 145.757 130.126
109.617 146.62 135.131
110.211 145.282 129.934
110.941 146.135 130.397
110.189 145.877 130.606
108.327 146.351 134.831
108.823 145.596 131.366
109.088 146.349 131.736
108.354 145.909 131.951
109.425 145.428 130.626
109.728 146.315 131.16
109.078 144.814 130.073
107.528 146.076 134.252
106.796 145.446 133.733
107.153 145.448 132.735
107.606 146.022 133.387
107.838 145.344 132.068
107.948 145.98 132.609
107.857 144.956 131.561
108.424 144.843 130.922
106.224 144.754 133.724
106.353 144.859 133.013
106.862 144.901 132.23
135.484 151.956 135.778
134.423 152.164 135.966
135.201 152.857 136.6
136.055 152.975 135.723
136.07 152.269 134.721
135.828 153.3 134.836
134.461 151.646 135.19
133.553 152.076 135.384
135.354 152.944 134.069
134.45 153.217 134.087
132.912 151.614 134.545
132.498 152.007 135.244
133.376 153.136 133.79
131.494 151.316 134.531
131.219 151.929 135.112
131.847 151.004 133.808
131.706 151.476 133.012
132.219 152.518 133.15
130.459 151.288 134.154
130.26 152.025 134.783
130.655 150.815 133.332
130.888 150.85 132.407
131.291 151.922 132.655
130.693 151.436 132.101
130.636 152.097 132.043
129.516 151.267 134.093
129.223 151.913 134.951
129.551 150.452 133.284
129.778 150.162 132.063
129.854 150.955 131.64
129.82 151.766 131.717
128.701 151.266 134.169
128.492 150.465 133.417
127.883 151.228 134.136
128.591 149.913 132.127
128.711 150.608 131.159
128.739 151.421 131.467
127.348 150.427 133.693
126.927 151.286 134.443
127.722 149.763 132.635
127.835 150.046 130.938
127.58 151.296 131.222
126.222 150.806 134.483
126.414 149.947 133.631
125.074 150.787 135.092
127.25 149.255 132.031
126.884 150.958 130.817
126.811 149.898 130.602
125.825 150.83 130.963
123.991 150.781 135.362
124.698 150.541 130.824
122.758 150.11 134.866
121.74 150.113 135.171
122.837 151.057 135.609
124.103 149.75 130.215
122.938 149.927 130.307
121.721 149.389 134.89
120.357 149.663 135.468
121.841 149.903 130.668
118.877 149.196 135.641
120.64 148.682 129.99
120.642 149.522 130.488
117.445 148.766 135.869
119.621 148.67 130.103
118.44 148.291 129.785
116.09 148.499 136.098
117.401 148.286 129.917
114.88 148.409 136.007
116.361 148.207 130.082
117.158 148.858 130.395
116.242 148.758 130.693
113.728 148.377 135.707
115.282 147.891 130.269
114.788 148.394 130.8
112.606 148.442 135.476
114.187 147.532 130.089
113.666 148.026 130.707
111.483 148.072 135.202
112.899 147.359 130.568
112.969 148.095 131.228
112.138 147.774 131.336
112.885 146.849 130.073
110.316 147.51 134.929
111.767 147.047 131.06
111.307 147.237 131.494
111.858 146.646 130.399
109.442 147.028 134.7
110.857 146.52 130.918
110.483 146.794 131.517
108.766 146.946 134.307
108.087 146.61 133.95
108.343 146.551 133.048
108.874 147.005 133.393
108.558 146.456 132.278
109.282 146.907 132.512
109.94 146.841 131.996
134.003 152.782 136.135
134.917 153.61 136.679
135.906 153.853 135.996
135.463 154.127 135.221
132.942 152.801 135.988
134.99 153.672 134.566
134.141 153.852 134.273
131.948 152.598 135.658
132.702 153.25 133.873
131.106 152.754 135.632
131.742 153.175 133.47
130.076 152.723 135.396
131.104 152.614 132.695
130.049 152.525 132.205
129.458 152.883 135.313
128.97 152.294 132.032
128.571 151.841 134.695
128.776 152.571 135.056
127.922 152.115 131.853
127.927 151.973 134.704
127.053 152.062 134.77
126.962 152.311 131.856
125.938 151.847 135.035
125.025 152.28 135.188
126.014 152.038 131.729
124.946 151.719 131.381
123.901 152.21 135.394
124.122 151.586 131.338
121.376 150.655 135.556
122.477 151.981 135.623
123.59 150.638 130.841
122.686 150.874 130.999
119.897 150.22 135.67
121.323 150.565 130.958
118.398 149.742 135.781
120.114 150.302 131.047
117.1 149.469 135.988
119.297 149.24 130.371
119.164 149.805 130.809
115.821 149.313 136.05
118.249 149.101 130.501
117.554 149.509 131.043
114.759 149.357 135.607
116.154 149.21 131.317
113.7 149.271 135.486
114.75 148.925 131.459
115.519 149.54 131.898
114.483 149.344 132.074
112.821 149.183 135.072
111.892 148.819 134.648
112.151 149.171 133.532
112.812 149.533 134.298
112.763 149.184 132.642
113.153 149.768 133.322
113.522 149.074 131.924
113.825 149.656 132.567
113.624 148.63 131.225
110.76 148.3 134.508
111.057 148.711 133.659
111.763 148.613 132.791
112.522 148.521 132.053
109.925 147.662 134.138
110.454 148.003 133.445
110.926 148.023 132.773
111.56 147.966 132.076
109.331 147.234 133.931
109.614 147.445 133.245
110.109 147.443 132.638
110.812 147.319 132.103
133.941 153.591 136.132
134.932 154.496 136.154
132.978 153.68 136.063
133.728 154.264 135.774
134.555 154.455 135.104
132.009 153.426 135.98
132.6 154.272 135.663
133.385 154.705 135.136
133.629 154.294 134.444
132.638 153.871 133.99
130.945 153.537 135.697
131.468 153.739 133.621
130.034 153.602 135.195
130.583 153.11 133.004
129.472 152.97 132.767
129.201 153.547 135.144
128.314 152.956 132.45
128.486 153.329 135.178
127.23 153.036 132.53
127.852 152.659 135.069
127.274 153.005 135.144
126.071 153.187 132.524
126.599 152.727 135.001
124.664 153.61 134.722
125.961 153.309 135.028
124.94 153.409 133.099
125.84 154.004 133.792
124.994 152.484 132.205
123.387 153.046 135.043
123.562 153.467 133.672
124.04 152.743 132.357
120.958 151.28 135.544
121.486 152.212 135.297
122.404 153.137 134.71
122.435 153.125 133.39
121.517 152.513 133.016
122.812 152.569 132.538
123.233 151.839 131.687
119.406 150.795 135.53
121.457 151.881 132.27
120.307 152.101 132.758
121.991 151.459 131.577
118.144 150.377 135.428
119.874 151.346 132.279
119.094 151.729 132.757
120.725 151.073 131.695
116.926 150.187 135.629
118.511 150.929 132.271
117.745 151.24 132.809
119.303 150.614 131.588
115.812 150.086 135.649
117.27 150.497 132.329
116.67 150.858 132.992
118.129 150.118 131.54
115.236 150.224 135.248
114.4 150.183 134.936
114.865 150.667 133.768
115.352 150.794 134.599
115.594 150.667 132.861
115.835 151.107 133.647
116.098 150.281 132.38
116.631 149.903 131.775
113.479 149.733 134.794
113.783 150.013 134.015
114.366 150.196 133.002
115.085 150.001 132.493
131.512 154.232 135.556
132.112 154.741 135.068
132.635 154.514 134.487
130.574 154.419 135.245
131.043 154.702 134.691
131.586 154.364 134.072
129.569 154.34 134.966
129.981 154.69 134.346
130.234 154.337 133.713
130.392 153.663 133.497
128.661 154.198 134.989
128.932 154.596 134.279
129.105 154.327 133.581
129.21 153.626 133.071
127.913 153.715 135.202
127.929 154.318 134.516
127.917 154.544 133.557
128.11 153.803 132.873
127.067 153.653 134.806
126.763 154.248 134.227
126.84 153.88 133.086
120.164 151.683 135.257
120.746 152.506 134.839
121.488 152.919 134.013
118.941 151.435 135.137
119.6 152.258 134.606
120.406 152.613 133.698
117.915 151.029 135.007
118.537 151.963 134.408
119.281 152.443 133.369
116.856 150.86 135.088
117.623 151.412 134.338
118.185 151.844 133.433
115.894 150.778 135.13
116.494 151.185 134.465
117.157 151.441 133.554
POLYGONS 2132  8528
3 0 1 2
3 0 3 4
3 2 3 0
3 4 5 6
3 3 5 4
3 6 7 8
3 5 7 6
3 7 9 8
3 10 1 0
3 11 1 10
3 4 12 0
3 12 10 0
3 6 13 4
3 13 12 4
3 8 14 6
3 14 13 6
3 15 8 9
3 14 8 15
3 16 11 10
3 17 11 16
3 12 18 10
3 18 16 10
3 13 19 12
3 19 18 12
3 14 20 13
3 20 19 13
3 21 14 15
3 20 14 21
3 16 22 17
3 18 22 16
3 23 22 18
3 19 23 18
3 24 23 19
3 20 24 19
3 25 24 20
3 21 25 20
3 26 27 28
3 26 29 30
3 28 29 26
3 29 31 30
3 32 33 34
3 27 32 34
3 27 26 32
3 26 35 32
3 30 36 26
3 36 35 26
3 37 30 31
3 36 30 37
3 38 33 32
3 39 33 38
3 35 40 32
3 40 38 32
3 36 41 35
3 41 40 35
3 42 36 37
3 41 36 42
3 43 44 45
3 43 46 47
3 45 46 43
3 39 47 46
3 39 38 47
3 38 48 47
3 40 49 38
3 49 48 38
3 50 41 51
3 50 49 41
3 49 40 41
3 42 51 41
3 2 44 43
3 2 1 44
3 1 52 44
3 3 2 43
3 47 3 43
3 5 3 47
3 48 5 47
3 7 5 48
3 49 7 48
3 49 9 7
3 49 50 9
3 50 53 9
3 1 11 52
3 52 11 54
3 9 53 15
3 53 55 15
3 11 17 54
3 54 17 56
3 15 55 21
3 55 57 21
3 58 17 22
3 58 59 17
3 59 56 17
3 22 23 60
3 58 22 60
3 23 24 61
3 60 23 61
3 62 61 24
3 62 24 63
3 63 24 25
3 57 25 21
3 63 25 57
3 58 64 59
3 60 64 58
3 65 64 60
3 61 65 60
3 66 65 61
3 62 66 61
3 67 68 69
3 67 70 71
3 69 70 67
3 71 72 73
3 70 72 71
3 72 74 73
3 75 76 77
3 68 75 77
3 68 67 75
3 67 78 75
3 71 79 67
3 79 78 67
3 73 80 71
3 80 79 71
3 81 73 74
3 80 73 81
3 82 76 75
3 83 76 82
3 78 84 75
3 84 82 75
3 79 85 78
3 85 84 78
3 80 86 79
3 86 85 79
3 87 80 81
3 86 80 87
3 28 83 82
3 28 27 83
3 27 88 83
3 29 28 82
3 84 29 82
3 31 29 84
3 31 84 89
3 89 84 85
3 86 90 85
3 90 89 85
3 91 86 87
3 90 86 91
3 34 92 93
3 33 92 34
3 88 27 34
3 93 88 34
3 89 94 37
3 31 89 37
3 90 95 89
3 95 94 89
3 96 90 91
3 95 90 96
3 97 98 99
3 97 99 92
3 97 92 39
3 39 92 33
3 94 100 42
3 37 94 42
3 101 95 102
3 101 100 95
3 100 94 95
3 96 102 95
3 45 103 104
3 44 103 45
3 98 97 46
3 98 46 104
3 104 46 45
3 39 46 97
3 51 105 50
3 51 42 100
3 51 100 105
3 105 100 106
3 107 100 101
3 106 100 107
3 44 52 103
3 103 52 108
3 105 109 53
3 50 105 53
3 110 106 111
3 110 109 106
3 109 105 106
3 107 111 106
3 52 54 108
3 108 54 112
3 109 113 55
3 53 109 55
3 114 109 110
3 113 109 114
3 54 56 112
3 112 56 115
3 113 116 57
3 55 113 57
3 117 113 114
3 116 113 117
3 56 59 115
3 115 59 118
3 63 119 120
3 62 63 120
3 116 63 57
3 116 121 63
3 121 119 63
3 117 121 116
3 59 122 118
3 64 122 59
3 65 123 64
3 64 123 122
3 66 124 65
3 65 124 123
3 120 66 62
3 124 66 120
3 69 125 126
3 68 125 69
3 70 69 127
3 69 126 127
3 72 70 128
3 70 127 128
3 128 74 72
3 129 74 128
3 77 130 131
3 76 130 77
3 125 68 77
3 131 125 77
3 74 129 81
3 129 132 81
3 76 83 130
3 130 83 133
3 134 135 87
3 134 87 132
3 132 87 81
3 134 136 135
3 83 88 133
3 133 88 137
3 135 138 91
3 87 135 91
3 139 135 136
3 138 135 139
3 93 140 141
3 92 140 93
3 137 88 93
3 141 137 93
3 138 142 96
3 91 138 96
3 143 138 139
3 142 138 143
3 99 144 145
3 98 144 99
3 140 92 99
3 145 140 99
3 102 146 101
3 102 147 146
3 96 147 102
3 96 148 147
3 96 142 148
3 143 148 142
3 104 149 150
3 103 149 104
3 144 98 104
3 150 144 104
3 146 151 107
3 101 146 107
3 152 146 147
3 151 146 152
3 103 108 149
3 149 108 153
3 111 154 110
3 111 155 154
3 107 155 111
3 107 156 155
3 107 151 156
3 152 156 151
3 108 112 153
3 153 112 157
3 154 158 114
3 110 154 114
3 159 154 155
3 158 154 159
3 112 115 157
3 157 115 160
3 158 161 162
3 158 162 114
3 114 162 117
3 159 161 158
3 115 118 160
3 160 118 163
3 119 164 120
3 165 164 119
3 165 119 166
3 166 119 121
3 162 121 117
3 166 121 162
3 118 167 163
3 122 167 118
3 123 168 122
3 122 168 167
3 124 169 123
3 123 169 168
3 164 124 120
3 164 170 124
3 170 169 124
3 165 170 164
3 126 125 171
3 172 126 171
3 172 173 126
3 173 127 126
3 128 127 174
3 127 173 174
3 174 129 128
3 175 129 174
3 131 130 176
3 131 176 177
3 125 131 177
3 125 177 178
3 125 178 171
3 172 171 178
3 179 180 132
3 179 132 175
3 175 132 129
3 179 181 180
3 176 182 183
3 176 130 182
3 130 133 182
3 177 176 183
3 132 180 134
3 180 136 134
3 180 181 136
3 181 184 136
3 133 137 182
3 182 137 185
3 136 184 139
3 184 186 139
3 141 187 188
3 140 187 141
3 185 137 141
3 188 185 141
3 139 186 143
3 186 189 143
3 145 190 191
3 144 190 145
3 187 140 145
3 191 187 145
3 148 192 147
3 148 193 192
3 148 143 193
3 143 189 193
3 150 194 195
3 149 194 150
3 190 144 150
3 195 190 150
3 192 196 152
3 147 192 152
3 197 192 193
3 196 192 197
3 198 199 200
3 198 200 194
3 198 194 153
3 153 194 149
3 156 201 155
3 156 202 201
3 152 202 156
3 152 203 202
3 152 196 203
3 197 203 196
3 204 199 198
3 205 199 204
3 153 157 204
3 198 153 204
3 201 206 159
3 155 201 159
3 207 201 202
3 206 201 207
3 208 205 204
3 209 205 208
3 157 160 208
3 204 157 208
3 161 210 162
3 161 211 210
3 159 211 161
3 159 212 211
3 159 206 212
3 207 212 206
3 213 209 208
3 214 209 213
3 160 163 213
3 208 160 213
3 166 215 216
3 165 166 216
3 210 166 162
3 210 217 166
3 217 215 166
3 211 217 210
3 213 218 214
3 163 218 213
3 163 167 218
3 167 219 218
3 168 220 167
3 167 220 219
3 169 221 168
3 168 221 220
3 170 222 169
3 169 222 221
3 216 170 165
3 222 170 216
3 223 224 225
3 223 226 227
3 225 226 223
3 226 228 227
3 173 224 223
3 173 172 224
3 172 229 224
3 174 173 223
3 227 174 223
3 227 175 174
3 227 228 175
3 228 230 175
3 178 231 232
3 177 231 178
3 229 172 178
3 232 229 178
3 175 230 233
3 179 175 233
3 233 181 179
3 234 181 233
3 183 235 236
3 182 235 183
3 231 177 183
3 236 231 183
3 181 234 184
3 234 237 184
3 238 239 240
3 238 240 235
3 238 235 185
3 185 235 182
3 184 237 186
3 237 241 186
3 242 243 244
3 239 242 244
3 238 242 239
3 238 187 242
3 238 188 187
3 185 188 238
3 186 241 189
3 241 245 189
3 246 247 248
3 243 246 248
3 242 246 243
3 242 190 246
3 242 191 190
3 187 191 242
3 189 245 193
3 245 249 193
3 250 251 252
3 247 250 252
3 246 250 247
3 246 194 250
3 246 195 194
3 190 195 246
3 193 249 197
3 249 253 197
3 200 251 250
3 200 199 251
3 199 254 251
3 194 200 250
3 203 255 256
3 202 203 256
3 253 203 197
3 255 203 253
3 199 205 254
3 254 205 257
3 202 256 207
3 256 258 207
3 205 209 257
3 257 209 259
3 212 260 261
3 211 212 261
3 258 212 207
3 260 212 258
3 209 214 259
3 259 214 262
3 215 263 264
3 216 215 264
3 217 265 215
3 215 265 263
3 261 217 211
3 265 217 261
3 214 266 262
3 218 266 214
3 219 267 218
3 218 267 266
3 220 268 219
3 219 268 267
3 221 269 220
3 220 269 268
3 222 270 221
3 221 270 269
3 264 222 216
3 270 222 264
3 271 272 273
3 271 225 224
3 271 273 225
3 273 274 225
3 226 225 275
3 225 274 275
3 275 228 226
3 276 228 275
3 277 272 271
3 278 272 277
3 224 229 277
3 271 224 277
3 228 276 230
3 276 279 230
3 232 278 277
3 232 231 278
3 231 280 278
3 229 232 277
3 230 279 281
3 233 230 281
3 281 234 233
3 282 234 281
3 283 284 285
3 283 236 235
3 283 285 236
3 285 286 236
3 280 231 236
3 286 280 236
3 234 282 237
3 282 287 237
3 288 289 290
3 284 288 290
3 283 288 284
3 283 239 288
3 283 240 239
3 235 240 283
3 237 287 241
3 287 291 241
3 244 289 288
3 244 243 289
3 243 292 289
3 239 244 288
3 241 291 245
3 291 293 245
3 248 294 295
3 247 294 248
3 292 243 248
3 295 292 248
3 245 293 249
3 293 296 249
3 252 297 298
3 251 297 252
3 294 247 252
3 298 294 252
3 249 296 253
3 296 299 253
3 251 254 297
3 297 254 300
3 255 301 302
3 256 255 302
3 299 255 253
3 301 255 299
3 254 257 300
3 300 257 303
3 256 302 258
3 302 304 258
3 257 259 303
3 303 259 305
3 260 306 307
3 261 260 307
3 304 260 258
3 306 260 304
3 259 262 305
3 305 262 308
3 263 309 264
3 310 309 263
3 310 263 311
3 311 263 265
3 307 265 261
3 311 265 307
3 262 312 308
3 266 312 262
3 267 313 266
3 266 313 312
3 268 314 267
3 267 314 313
3 269 315 268
3 268 315 314
3 270 316 269
3 269 316 315
3 309 270 264
3 309 317 270
3 317 316 270
3 310 317 309
3 318 319 320
3 318 321 322
3 320 321 318
3 322 323 324
3 321 323 322
3 323 325 324
3 273 319 318
3 273 272 319
3 272 326 319
3 274 273 318
3 322 274 318
3 275 274 322
3 324 275 322
3 324 276 275
3 324 325 276
3 325 327 276
3 272 278 326
3 326 278 328
3 276 327 279
3 327 329 279
3 330 331 332
3 330 332 328
3 330 328 280
3 280 328 278
3 279 329 333
3 281 279 333
3 333 282 281
3 334 282 333
3 285 335 336
3 284 335 285
3 331 330 286
3 331 286 336
3 336 286 285
3 280 286 330
3 282 334 287
3 334 337 287
3 290 338 339
3 289 338 290
3 335 284 290
3 339 335 290
3 287 337 291
3 337 340 291
3 289 292 338
3 338 292 341
3 291 340 293
3 340 342 293
3 295 343 344
3 294 343 295
3 341 292 295
3 344 341 295
3 293 342 296
3 342 345 296
3 298 346 347
3 297 346 298
3 343 294 298
3 347 343 298
3 296 345 299
3 345 348 299
3 297 300 346
3 346 300 349
3 301 350 351
3 302 301 351
3 348 301 299
3 350 301 348
3 300 303 349
3 349 303 352
3 302 351 304
3 351 353 304
3 303 305 352
3 352 305 354
3 306 355 356
3 307 306 356
3 353 306 304
3 355 306 353
3 305 308 354
3 354 308 357
3 311 358 359
3 310 311 359
3 356 311 307
3 358 311 356
3 308 360 357
3 312 360 308
3 313 361 312
3 312 361 360
3 314 362 313
3 313 362 361
3 315 363 314
3 314 363 362
3 316 364 315
3 315 364 363
3 317 365 316
3 316 365 364
3 359 317 310
3 365 317 359
3 366 367 368
3 366 369 370
3 368 369 366
3 369 371 370
3 320 367 366
3 320 319 367
3 319 372 367
3 321 320 366
3 370 321 366
3 370 371 373
3 370 373 321
3 321 373 323
3 373 325 323
3 374 325 373
3 375 376 377
3 375 377 372
3 375 372 326
3 326 372 319
3 325 374 327
3 374 378 327
3 379 376 375
3 380 376 379
3 326 328 379
3 375 326 379
3 327 378 329
3 378 381 329
3 382 383 384
3 380 382 384
3 379 382 380
3 379 331 382
3 379 332 331
3 328 332 379
3 329 381 385
3 333 329 385
3 385 334 333
3 386 334 385
3 387 388 389
3 383 387 389
3 382 387 383
3 382 335 387
3 382 336 335
3 331 336 382
3 334 386 337
3 386 390 337
3 339 388 387
3 339 338 388
3 338 391 388
3 335 339 387
3 337 390 340
3 390 392 340
3 393 394 395
3 393 395 391
3 393 391 341
3 341 391 338
3 340 392 342
3 392 396 342
3 397 398 399
3 394 397 399
3 393 397 394
3 393 343 397
3 393 344 343
3 341 344 393
3 400 401 402
3 400 396 401
3 400 345 396
3 345 342 396
3 347 398 397
3 347 346 398
3 346 403 398
3 343 347 397
3 404 400 402
3 405 404 402
3 345 404 348
3 400 404 345
3 346 349 403
3 403 349 406
3 350 404 405
3 350 405 351
3 351 405 407
3 348 404 350
3 349 352 406
3 406 352 408
3 351 407 353
3 407 409 353
3 352 354 408
3 408 354 410
3 355 411 412
3 356 355 412
3 409 355 353
3 411 355 409
3 413 357 414
3 413 410 357
3 410 354 357
3 413 414 415
3 358 416 417
3 359 358 417
3 412 358 356
3 416 358 412
3 357 360 414
3 414 418 415
3 414 360 418
3 360 361 418
3 362 419 361
3 361 419 418
3 363 420 362
3 362 420 419
3 364 421 363
3 363 421 420
3 365 422 364
3 364 422 421
3 417 365 359
3 422 365 417
3 423 424 425
3 423 368 367
3 423 425 368
3 425 426 368
3 369 368 427
3 368 426 427
3 427 371 369
3 428 371 427
3 429 424 423
3 430 424 429
3 367 372 429
3 423 367 429
3 371 428 431
3 373 371 431
3 431 374 373
3 432 374 431
3 433 434 435
3 430 433 435
3 429 433 430
3 429 376 433
3 429 377 376
3 372 377 429
3 374 432 378
3 432 436 378
3 437 434 433
3 438 434 437
3 376 380 437
3 433 376 437
3 439 440 381
3 439 381 436
3 436 381 378
3 439 441 440
3 442 443 444
3 438 442 444
3 437 442 438
3 437 383 442
3 437 384 383
3 380 384 437
3 381 440 385
3 440 386 385
3 440 441 386
3 441 445 386
3 389 443 442
3 389 388 443
3 388 446 443
3 383 389 442
3 386 445 390
3 445 447 390
3 388 391 446
3 446 391 448
3 390 447 392
3 447 449 392
3 395 450 451
3 394 450 395
3 448 391 395
3 451 448 395
3 392 449 396
3 449 452 396
3 399 453 454
3 398 453 399
3 450 394 399
3 454 450 399
3 401 455 456
3 402 401 456
3 452 401 396
3 455 401 452
3 398 403 453
3 453 403 457
3 402 456 405
3 456 458 405
3 403 406 457
3 457 406 459
3 405 458 407
3 458 460 407
3 406 408 459
3 459 408 461
3 462 463 464
3 462 460 463
3 462 409 460
3 409 407 460
3 465 410 466
3 465 461 410
3 461 408 410
3 465 466 467
3 468 469 470
3 464 469 468
3 462 464 468
3 462 468 412
3 462 412 411
3 409 462 411
3 410 413 466
3 466 413 415
3 466 415 467
3 467 415 471
3 472 473 474
3 472 475 476
3 473 472 476
3 470 476 475
3 468 470 475
3 468 475 417
3 468 417 416
3 412 468 416
3 415 477 471
3 418 477 415
3 419 478 418
3 418 478 477
3 420 479 419
3 419 479 478
3 474 421 472
3 474 479 421
3 479 420 421
3 422 472 421
3 475 472 422
3 417 475 422
3 480 481 482
3 480 483 484
3 482 483 480
3 483 485 484
3 425 486 487
3 424 486 425
3 481 480 426
3 481 426 487
3 487 426 425
3 427 426 480
3 484 427 480
3 484 428 427
3 484 485 428
3 485 488 428
3 489 490 491
3 489 491 486
3 489 486 430
3 430 486 424
3 428 488 492
3 431 428 492
3 492 432 431
3 493 432 492
3 494 495 496
3 490 494 496
3 489 494 490
3 489 434 494
3 489 435 434
3 430 435 489
3 432 493 436
3 493 497 436
3 498 495 494
3 499 495 498
3 434 438 498
3 494 434 498
3 436 497 500
3 439 436 500
3 500 441 439
3 501 441 500
3 444 499 498
3 444 443 499
3 443 502 499
3 438 444 498
3 441 501 445
3 501 503 445
3 504 505 506
3 504 506 502
3 504 502 446
3 446 502 443
3 445 503 447
3 503 507 447
3 508 505 504
3 509 505 508
3 446 448 508
3 504 446 508
3 447 507 449
3 507 510 449
3 511 512 513
3 509 511 513
3 508 511 509
3 508 450 511
3 508 451 450
3 448 451 508
3 449 510 452
3 510 514 452
3 454 512 511
3 454 453 512
3 453 515 512
3 450 454 511
3 455 516 517
3 456 455 517
3 514 455 452
3 516 455 514
3 453 457 515
3 515 457 518
3 456 517 458
3 517 519 458
3 457 459 518
3 518 459 520
3 521 522 523
3 521 519 522
3 521 460 519
3 460 458 519
3 459 461 520
3 520 461 524
3 525 526 527
3 525 528 529
3 526 525 529
3 528 530 531
3 529 528 531
3 523 531 530
3 521 523 530
3 521 530 464
3 521 464 463
3 460 521 463
3 461 532 524
3 465 532 461
3 532 465 467
3 533 532 467
3 534 525 527
3 535 534 527
3 528 525 536
3 536 525 534
3 469 536 470
3 469 530 536
3 530 528 536
3 464 530 469
3 537 471 538
3 537 533 471
3 533 467 471
3 538 539 540
3 537 538 540
3 539 541 542
3 540 539 542
3 535 542 541
3 534 535 541
3 534 541 474
3 534 474 473
3 476 534 473
3 536 534 476
3 470 536 476
3 471 477 538
3 478 538 477
3 539 538 478
3 479 539 478
3 541 539 479
3 474 541 479
3 543 544 545
3 543 546 547
3 545 546 543
3 547 548 549
3 546 548 547
3 548 550 549
3 551 544 543
3 552 544 551
3 482 481 551
3 482 551 547
3 547 551 543
3 483 482 547
3 549 483 547
3 549 485 483
3 549 550 485
3 550 553 485
3 554 555 556
3 552 554 556
3 551 554 552
3 551 486 554
3 551 487 486
3 481 487 551
3 485 553 488
3 553 557 488
3 558 559 560
3 555 558 560
3 554 558 555
3 554 490 558
3 554 491 490
3 486 491 554
3 488 557 561
3 492 488 561
3 561 493 492
3 562 493 561
3 496 559 558
3 496 495 559
3 495 563 559
3 490 496 558
3 493 562 497
3 562 564 497
3 565 566 567
3 565 567 563
3 565 563 499
3 499 563 495
3 568 500 497
3 568 497 569
3 569 497 564
3 500 568 501
3 570 566 565
3 571 566 570
3 499 502 570
3 565 499 570
3 568 569 572
3 572 501 568
3 572 573 501
3 573 503 501
3 506 571 570
3 506 505 571
3 505 574 571
3 502 506 570
3 503 573 507
3 573 575 507
3 576 577 578
3 576 578 574
3 576 574 509
3 509 574 505
3 507 575 510
3 575 579 510
3 513 577 576
3 513 512 577
3 512 580 577
3 509 513 576
3 581 582 583
3 581 579 582
3 581 514 579
3 514 510 579
3 512 515 580
3 580 515 584
3 516 581 583
3 516 583 517
3 517 583 585
3 514 581 516
3 515 518 584
3 584 518 586
3 517 585 519
3 585 587 519
3 588 520 589
3 588 586 520
3 586 518 520
3 588 589 590
3 591 592 593
3 591 523 522
3 591 522 592
3 592 522 594
3 587 522 519
3 594 522 587
3 589 524 595
3 520 524 589
3 596 590 589
3 595 596 589
3 526 597 598
3 527 526 598
3 529 599 526
3 526 599 597
3 593 531 591
3 593 599 531
3 599 529 531
3 523 591 531
3 524 532 595
3 533 600 601
3 532 533 601
3 532 601 596
3 532 596 595
3 600 602 603
3 601 600 603
3 602 604 605
3 603 602 605
3 604 598 605
3 604 535 598
3 535 527 598
3 533 537 600
3 540 600 537
3 602 600 540
3 542 602 540
3 604 602 542
3 535 604 542
3 606 607 608
3 606 609 610
3 608 609 606
3 610 545 544
3 610 609 545
3 609 611 545
3 546 545 612
3 545 611 612
3 548 546 613
3 546 612 613
3 613 550 548
3 614 550 613
3 615 607 606
3 616 607 615
3 610 617 606
3 617 615 606
3 544 552 617
3 610 544 617
3 550 614 553
3 614 618 553
3 619 616 615
3 620 616 619
3 556 555 619
3 556 619 617
3 617 619 615
3 552 556 617
3 553 618 557
3 618 621 557
3 622 623 624
3 620 622 624
3 619 622 620
3 619 559 622
3 619 560 559
3 555 560 619
3 625 561 557
3 625 557 626
3 626 557 621
3 561 625 562
3 627 623 622
3 628 623 627
3 559 563 627
3 622 559 627
3 625 626 629
3 629 562 625
3 629 630 562
3 630 564 562
3 567 628 627
3 567 566 628
3 566 631 628
3 563 567 627
3 564 630 569
3 630 632 569
3 566 571 631
3 631 571 633
3 634 572 569
3 634 569 635
3 635 569 632
3 572 634 573
3 571 574 633
3 633 574 636
3 637 634 635
3 638 637 635
3 573 637 575
3 634 637 573
3 578 639 640
3 577 639 578
3 636 574 578
3 640 636 578
3 641 642 643
3 638 642 641
3 638 641 637
3 637 641 644
3 575 644 579
3 637 644 575
3 577 580 639
3 639 580 645
3 646 641 643
3 647 646 643
3 582 646 583
3 582 644 646
3 644 641 646
3 579 644 582
3 580 584 645
3 645 584 648
3 649 646 647
3 650 649 647
3 583 649 585
3 646 649 583
3 584 586 648
3 648 586 651
3 652 653 654
3 650 653 652
3 650 652 649
3 649 652 655
3 585 655 587
3 649 655 585
3 586 656 651
3 588 656 586
3 590 657 658
3 590 658 588
3 588 658 656
3 658 657 659
3 660 661 662
3 654 661 660
3 652 654 660
3 652 660 593
3 652 593 592
3 594 652 592
3 655 652 594
3 587 655 594
3 657 596 663
3 590 596 657
3 664 659 657
3 664 657 665
3 665 657 663
3 665 666 667
3 664 665 667
3 666 598 597
3 666 597 667
3 667 597 668
3 662 599 660
3 662 668 599
3 668 597 599
3 593 660 599
3 596 601 663
3 603 663 601
3 665 663 603
3 605 665 603
3 666 665 605
3 598 666 605
3 669 670 671
3 669 672 673
3 671 672 669
3 673 674 675
3 672 674 673
3 674 676 675
3 677 678 679
3 670 677 679
3 670 669 677
3 669 680 677
3 673 681 669
3 681 680 669
3 675 682 673
3 682 681 673
3 683 675 676
3 682 675 683
3 608 678 677
3 608 607 678
3 607 684 678
3 609 608 677
3 680 609 677
3 611 609 680
3 681 611 680
3 612 611 681
3 682 612 681
3 682 683 685
3 682 685 612
3 612 685 613
3 685 614 613
3 686 614 685
3 607 616 684
3 684 616 687
3 614 686 618
3 686 688 618
3 689 690 691
3 689 691 687
3 689 687 620
3 620 687 616
3 618 688 621
3 688 692 621
3 624 690 689
3 624 623 690
3 623 693 690
3 620 624 689
3 621 692 626
3 692 694 626
3 623 628 693
3 693 628 695
3 626 694 696
3 629 626 696
3 696 630 629
3 697 630 696
3 628 631 695
3 695 631 698
3 630 697 632
3 697 699 632
3 631 633 698
3 698 633 700
3 632 699 635
3 699 701 635
3 633 636 700
3 700 636 702
3 635 701 638
3 701 703 638
3 640 639 704
3 640 704 705
3 640 705 636
3 636 705 702
3 642 706 707
3 643 642 707
3 703 642 638
3 706 642 703
3 704 645 708
3 639 645 704
3 709 705 704
3 708 709 704
3 643 707 647
3 707 710 647
3 708 648 711
3 645 648 708
3 712 709 708
3 711 712 708
3 713 714 715
3 713 710 714
3 713 650 710
3 650 647 710
3 711 651 716
3 648 651 711
3 717 712 711
3 716 717 711
3 718 719 720
3 718 721 722
3 719 718 722
3 715 722 721
3 713 715 721
3 713 721 654
3 713 654 653
3 650 713 653
3 651 656 716
3 716 723 717
3 716 656 723
3 656 658 723
3 659 724 725
3 659 725 658
3 658 725 723
3 724 726 727
3 725 724 727
3 720 727 726
3 720 726 718
3 718 726 728
3 661 728 662
3 661 721 728
3 721 718 728
3 654 721 661
3 659 664 724
3 667 724 664
3 726 724 667
3 668 726 667
3 728 726 668
3 662 728 668
3 729 730 731
3 729 732 733
3 731 732 729
3 732 734 733
3 735 730 729
3 736 730 735
3 733 737 729
3 737 735 729
3 738 733 734
3 737 733 738
3 735 739 736
3 737 739 735
3 740 739 737
3 738 740 737
3 741 742 743
3 741 744 745
3 743 744 741
3 745 746 747
3 744 746 745
3 746 748 747
3 749 742 741
3 750 742 749
3 671 670 749
3 671 749 745
3 745 749 741
3 672 671 745
3 747 672 745
3 747 748 751
3 747 751 672
3 672 751 674
3 751 676 674
3 752 676 751
3 679 750 749
3 679 678 750
3 678 753 750
3 670 679 749
3 676 752 683
3 752 754 683
3 755 756 757
3 755 757 753
3 755 753 684
3 684 753 678
3 683 754 758
3 685 683 758
3 758 686 685
3 759 686 758
3 760 756 755
3 761 756 760
3 684 687 760
3 755 684 760
3 686 759 688
3 759 762 688
3 691 761 760
3 691 690 761
3 690 763 761
3 687 691 760
3 688 762 692
3 762 764 692
3 690 693 763
3 763 693 765
3 692 764 694
3 764 766 694
3 693 695 765
3 765 695 767
3 768 696 694
3 768 694 769
3 769 694 766
3 696 768 697
3 695 698 767
3 767 698 770
3 771 768 769
3 772 771 769
3 697 771 699
3 768 771 697
3 698 700 770
3 770 700 773
3 774 771 772
3 775 774 772
3 699 774 701
3 771 774 699
3 700 702 773
3 773 702 776
3 777 774 775
3 778 777 775
3 701 777 703
3 774 777 701
3 702 705 776
3 776 705 779
3 780 781 782
3 778 781 780
3 777 778 780
3 777 780 707
3 777 707 706
3 703 777 706
3 705 709 779
3 779 709 783
3 784 785 786
3 784 787 788
3 785 784 788
3 782 788 787
3 782 787 780
3 780 787 789
3 707 789 710
3 780 789 707
3 790 712 791
3 790 783 712
3 783 709 712
3 791 792 793
3 790 791 793
3 792 794 795
3 793 792 795
3 786 795 794
3 786 794 784
3 784 794 796
3 787 784 797
3 797 784 796
3 714 797 715
3 714 789 797
3 789 787 797
3 710 789 714
3 791 717 798
3 712 717 791
3 792 791 799
3 799 791 798
3 794 792 800
3 800 792 799
3 719 800 720
3 719 796 800
3 796 794 800
3 722 796 719
3 797 796 722
3 715 797 722
3 717 723 798
3 725 798 723
3 799 798 725
3 727 799 725
3 800 799 727
3 720 800 727
3 801 802 803
3 801 804 805
3 803 804 801
3 804 806 805
3 807 802 801
3 808 802 807
3 731 730 807
3 731 807 805
3 805 807 801
3 805 806 809
3 805 809 731
3 731 809 732
3 809 734 732
3 810 734 809
3 811 808 807
3 812 808 811
3 730 736 811
3 807 730 811
3 734 810 738
3 810 813 738
3 814 812 811
3 815 812 814
3 736 739 816
3 736 816 811
3 811 816 814
3 739 740 817
3 816 739 817
3 740 818 817
3 740 738 818
3 738 813 818
3 819 815 814
3 820 815 819
3 816 821 814
3 821 819 814
3 817 822 816
3 822 821 816
3 823 817 818
3 823 824 817
3 824 822 817
3 823 825 824
3 826 820 819
3 827 820 826
3 821 828 819
3 828 826 819
3 822 829 821
3 829 828 821
3 824 830 822
3 830 829 822
3 831 824 825
3 830 824 831
3 826 832 827
3 832 833 834
3 832 826 833
3 826 828 833
3 829 835 828
3 835 833 828
3 830 836 829
3 836 835 829
3 837 830 831
3 836 830 837
3 838 834 833
3 839 834 838
3 835 840 833
3 840 838 833
3 836 841 835
3 841 840 835
3 842 836 837
3 841 836 842
3 838 843 839
3 843 844 845
3 843 838 844
3 838 840 844
3 841 846 840
3 846 844 840
3 847 841 842
3 847 848 841
3 848 846 841
3 847 849 848
3 743 845 844
3 743 742 845
3 742 850 845
3 744 743 844
3 846 744 844
3 746 744 846
3 848 746 846
3 848 748 746
3 848 849 748
3 849 851 748
3 852 853 854
3 852 854 850
3 852 850 750
3 750 850 742
3 748 851 855
3 751 748 855
3 855 752 751
3 856 752 855
3 857 853 852
3 858 853 857
3 750 753 857
3 852 750 857
3 752 856 754
3 856 859 754
3 757 858 857
3 757 756 858
3 756 860 858
3 753 757 857
3 861 758 754
3 861 754 862
3 862 754 859
3 758 861 759
3 756 761 860
3 860 761 863
3 861 862 864
3 864 759 861
3 864 865 759
3 865 762 759
3 761 763 863
3 863 763 866
3 762 865 764
3 865 867 764
3 763 765 866
3 866 765 868
3 869 870 871
3 869 867 870
3 869 766 867
3 766 764 867
3 765 767 868
3 868 767 872
3 873 869 871
3 874 873 871
3 766 873 769
3 869 873 766
3 767 770 872
3 872 770 875
3 876 873 874
3 877 876 874
3 769 876 772
3 873 876 769
3 770 773 875
3 875 773 878
3 879 880 881
3 877 880 879
3 877 879 876
3 876 879 882
3 772 882 775
3 876 882 772
3 773 776 878
3 878 776 883
3 884 879 881
3 885 884 881
3 882 879 886
3 886 879 884
3 775 886 778
3 882 886 775
3 776 779 883
3 883 779 887
3 888 884 885
3 889 888 885
3 781 888 782
3 781 886 888
3 886 884 888
3 778 886 781
3 890 783 891
3 890 887 783
3 887 779 783
3 891 892 893
3 890 891 893
3 892 894 895
3 893 892 895
3 894 786 785
3 894 785 895
3 895 785 896
3 889 788 888
3 889 896 788
3 896 785 788
3 782 888 788
3 783 790 891
3 793 891 790
3 892 891 793
3 795 892 793
3 894 892 795
3 786 894 795
3 803 897 898
3 802 897 803
3 804 803 899
3 803 898 899
3 899 806 804
3 900 806 899
3 802 808 897
3 897 808 901
3 806 900 902
3 809 806 902
3 902 810 809
3 903 810 902
3 808 812 901
3 901 812 904
3 810 903 813
3 903 905 813
3 812 815 904
3 904 815 906
3 813 905 818
3 905 907 818
3 815 820 906
3 906 820 908
3 818 907 909
3 823 818 909
3 909 825 823
3 910 825 909
3 820 827 908
3 908 827 911
3 825 910 831
3 910 912 831
3 913 827 832
3 913 914 827
3 914 911 827
3 832 834 913
3 831 912 837
3 912 915 837
3 913 916 914
3 916 913 834
3 916 834 917
3 917 834 839
3 837 915 842
3 915 918 842
3 839 919 917
3 843 919 839
3 919 843 845
3 920 919 845
3 842 918 921
3 847 842 921
3 921 849 847
3 922 849 921
3 845 850 920
3 920 850 923
3 849 922 851
3 922 924 851
3 854 925 926
3 853 925 854
3 923 850 854
3 926 923 854
3 851 924 927
3 855 851 927
3 927 856 855
3 928 856 927
3 853 858 925
3 925 858 929
3 856 928 859
3 928 930 859
3 858 860 929
3 929 860 931
3 859 930 862
3 930 932 862
3 860 863 931
3 931 863 933
3 934 864 862
3 934 862 935
3 935 862 932
3 864 934 865
3 863 866 933
3 933 866 936
3 937 934 935
3 938 937 935
3 865 937 867
3 934 937 865
3 866 868 936
3 936 868 939
3 870 937 938
3 870 938 871
3 871 938 940
3 867 937 870
3 868 872 939
3 939 872 941
3 942 943 944
3 942 940 943
3 942 874 940
3 874 871 940
3 945 875 946
3 945 941 875
3 941 872 875
3 946 947 948
3 945 946 948
3 947 949 950
3 948 947 950
3 949 951 952
3 950 949 952
3 944 952 951
3 944 951 942
3 942 951 953
3 874 953 877
3 942 953 874
3 946 878 954
3 875 878 946
3 947 946 955
3 955 946 954
3 949 947 956
3 956 947 955
3 951 949 957
3 957 949 956
3 880 957 881
3 880 953 957
3 953 951 957
3 877 953 880
3 954 883 958
3 878 883 954
3 955 954 959
3 959 954 958
3 956 955 960
3 960 955 959
3 957 956 961
3 961 956 960
3 881 961 885
3 957 961 881
3 958 887 962
3 883 887 958
3 959 958 963
3 963 958 962
3 960 959 964
3 964 959 963
3 961 960 965
3 965 960 964
3 885 965 889
3 961 965 885
3 887 890 962
3 893 962 890
3 963 962 893
3 895 963 893
3 964 963 895
3 896 964 895
3 965 964 896
3 889 965 896
3 898 897 966
3 898 967 899
3 966 967 898
3 899 967 900
3 966 901 968
3 897 901 966
3 967 966 969
3 969 966 968
3 900 970 902
3 900 967 970
3 967 969 970
3 902 970 903
3 968 971 972
3 968 901 971
3 901 904 971
3 969 968 972
3 973 969 972
3 970 969 973
3 974 970 973
3 974 903 970
3 974 975 903
3 975 905 903
3 904 906 971
3 971 906 976
3 905 975 907
3 975 977 907
3 906 908 976
3 976 908 978
3 907 977 979
3 909 907 979
3 979 910 909
3 980 910 979
3 908 911 978
3 978 911 981
3 910 980 912
3 980 982 912
3 911 914 981
3 981 914 983
3 912 982 915
3 982 984 915
3 914 985 983
3 916 985 914
3 985 916 917
3 986 985 917
3 915 984 918
3 984 987 918
3 917 988 986
3 919 988 917
3 920 989 990
3 920 990 919
3 919 990 988
3 989 991 992
3 990 989 992
3 921 991 993
3 921 987 991
3 921 918 987
3 992 991 987
3 921 993 922
3 989 923 994
3 920 923 989
3 991 989 995
3 995 989 994
3 993 991 996
3 996 991 995
3 922 996 924
3 993 996 922
3 926 997 998
3 925 997 926
3 994 923 926
3 994 926 999
3 999 926 998
3 995 994 999
3 1000 995 999
3 1000 1001 1002
3 1000 1002 995
3 995 1002 996
3 924 1003 927
3 924 996 1003
3 996 1002 1003
3 927 1003 928
3 925 929 997
3 997 929 1004
3 1005 1002 1001
3 1006 1005 1001
3 1003 1002 1007
3 1007 1002 1005
3 928 1007 930
3 1003 1007 928
3 929 931 1004
3 1004 931 1008
3 1009 1005 1006
3 1010 1009 1006
3 1007 1005 1011
3 1011 1005 1009
3 930 1011 932
3 1007 1011 930
3 931 933 1008
3 1008 933 1012
3 1013 1009 1010
3 1014 1013 1010
3 1011 1009 1015
3 1015 1009 1013
3 932 1015 935
3 1011 1015 932
3 933 936 1012
3 1012 936 1016
3 1017 1013 1014
3 1018 1017 1014
3 1015 1013 1019
3 1019 1013 1017
3 935 1019 938
3 1015 1019 935
3 1020 939 1021
3 1020 1016 939
3 1016 936 939
3 1021 1022 1023
3 1020 1021 1023
3 1022 1024 1025
3 1023 1022 1025
3 1018 1025 1024
3 1018 1024 1017
3 1017 1024 1026
3 1019 1017 1027
3 1027 1017 1026
3 938 1027 940
3 1019 1027 938
3 1021 941 1028
3 939 941 1021
3 1022 1021 1029
3 1029 1021 1028
3 1024 1022 1030
3 1030 1022 1029
3 1026 1024 1031
3 1031 1024 1030
3 943 1031 944
3 943 1027 1031
3 1027 1026 1031
3 940 1027 943
3 941 945 1028
3 948 1028 945
3 1029 1028 948
3 950 1029 948
3 1030 1029 950
3 952 1030 950
3 1031 1030 952
3 944 1031 952
3 972 971 1032
3 972 1033 973
3 1032 1033 972
3 973 1034 974
3 1033 1034 973
3 974 1034 975
3 1032 976 1035
3 971 976 1032
3 1033 1032 1036
3 1036 1032 1035
3 1034 1033 1037
3 1037 1033 1036
3 975 1037 977
3 1034 1037 975
3 1035 978 1038
3 976 978 1035
3 1036 1035 1039
3 1039 1035 1038
3 1037 1036 1040
3 1040 1036 1039
3 977 1041 979
3 977 1037 1041
3 1037 1040 1041
3 979 1041 980
3 1038 981 1042
3 978 981 1038
3 1039 1038 1043
3 1043 1038 1042
3 1040 1039 1044
3 1044 1039 1043
3 1041 1040 1045
3 1045 1040 1044
3 980 1045 982
3 1041 1045 980
3 1042 983 1046
3 981 983 1042
3 1043 1042 1047
3 1047 1042 1046
3 1044 1043 1048
3 1048 1043 1047
3 1045 1044 1049
3 1049 1044 1048
3 982 1049 984
3 1045 1049 982
3 983 985 1046
3 986 1046 985
3 986 1050 1046
3 1050 1047 1046
3 1048 1047 1051
3 1051 1047 1050
3 1049 1048 1052
3 1052 1048 1051
3 984 1052 987
3 1049 1052 984
3 986 988 1050
3 990 1050 988
3 1051 1050 990
3 992 1051 990
3 1052 1051 992
3 987 1052 992
3 998 997 1053
3 998 1054 999
3 1053 1054 998
3 999 1055 1000
3 1054 1055 999
3 1000 1055 1001
3 1053 1004 1056
3 997 1004 1053
3 1054 1053 1057
3 1057 1053 1056
3 1055 1054 1058
3 1058 1054 1057
3 1001 1058 1006
3 1055 1058 1001
3 1056 1008 1059
3 1004 1008 1056
3 1057 1056 1060
3 1060 1056 1059
3 1058 1057 1061
3 1061 1057 1060
3 1006 1061 1010
3 1058 1061 1006
3 1059 1012 1062
3 1008 1012 1059
3 1060 1059 1063
3 1063 1059 1062
3 1061 1060 1064
3 1064 1060 1063
3 1010 1064 1014
3 1061 1064 1010
3 1062 1016 1065
3 1012 1016 1062
3 1063 1062 1066
3 1066 1062 1065
3 1064 1063 1067
3 1067 1063 1066
3 1014 1067 1018
3 1064 1067 1014
3 1016 1020 1065
3 1023 1065 1020
3 1066 1065 1023
3 1025 1066 1023
3 1067 1066 1025
3 1018 1067 1025
