# vtk DataFile Version 3.0
this file was written using fslvtkio
ASCII
DATASET POLYDATA
POINTS 664 float
162.191 143.186 126.387
163.829 143.49 126.294
165.047 141.45 127.441
164.245 140.403 127.702
161.93 142.235 125.907
164.072 140.546 126.259
161.822 145.246 125.369
163.892 145.734 125.264
164.654 144.152 126.01
159.904 145.332 124.834
159.735 144.257 125.013
162.438 141.481 125.279
160.292 143.374 124.213
162.071 141.902 123.989
160.845 142.859 123.259
162.635 141.602 123.019
160.955 147.482 123.732
163.187 147.871 123.434
158.962 147.151 123.579
157.578 146.458 123.692
157.726 145.001 123.822
159.111 144.019 122.782
161.439 142.697 121.901
160.768 149.108 121.515
162.61 149.185 120.827
158.45 149.244 121.315
156.151 149.151 120.916
156.166 147.361 121.246
157.359 145.717 121.242
159.487 143.98 120.886
160.092 150.065 119.135
157.965 150.181 118.301
156.901 149.049 118.278
157.127 147.429 118.416
158.534 145.678 119.064
165.612 142.882 126.528
166.806 143.48 126.862
167.132 141.867 127.602
167.096 140.28 128.71
166.687 138.973 128.71
165.943 138.473 127.488
164.12 139.72 126.204
165.707 138.342 126.232
165.424 146.394 125.155
163.787 139.904 124.877
163.932 140.76 122.273
164.93 148.614 122.359
161.976 142.429 120.452
164.348 148.978 120.23
160.232 144.497 118.503
162.488 149.151 119.036
160.929 149.763 117.182
159.711 149.203 116.859
159.176 148.135 116.619
159.264 146.69 116.504
170.686 138.345 131.219
172.223 138.302 132.352
172.346 137.1 132.724
172.339 135.988 133.102
170.312 136.985 131.461
171.86 135.13 132.814
169.04 140.564 129.822
170.616 140.684 130.91
168.662 138.692 130.335
170.421 135.943 131.492
168.625 137.439 129.901
169.757 135.925 130.429
168.725 142.501 129.087
170.133 143.732 129.25
170.861 142.055 130.832
167.85 136.915 128.734
167.59 136.508 126.607
165.549 138.643 124.562
165.846 137.856 123.776
167.788 144.692 127.214
169.29 145.261 126.77
164.524 139.77 121.561
167.071 146.955 124.66
169.602 146.289 124.292
163.426 141.436 119.852
162.228 143.138 118.268
163.752 142.129 117.783
167.345 147.988 122.125
166.622 148.139 120.523
160.425 145.066 116.253
162.486 143.587 116.455
164.908 148.496 119.016
163.668 148.328 117.879
162.568 148.278 116.804
161.596 147.803 116.076
161.362 146.95 115.243
161.389 145.952 114.401
173.724 135.591 134.621
174.959 135.664 136.253
175.979 133.906 137.356
175.57 133.124 136.117
173.52 134.043 134.032
175.563 131.808 135.167
174.186 132.875 132.269
176.308 130.665 133.422
173.989 137.794 134.116
175.676 137.428 135.953
175.437 136.344 136.354
172.111 134.281 132.161
174.125 131.913 131.476
171.9 133.533 130.657
172.662 132.873 129.658
171.196 134.276 127.848
171.873 133.46 127.823
174.188 139.812 134.287
175.662 141.163 134.048
176.339 138.967 136.112
172.327 140.132 132.501
169.689 135.064 129.878
169.873 135.083 127.822
169.284 134.618 126.677
172.847 142.095 132.243
174.938 142.926 131.021
167.463 136.078 124.231
165.642 138.384 121.118
166.536 136.583 122.043
165.484 137.677 120.315
166.609 136.533 120.701
172.45 143.825 129.316
171.789 144.991 126.554
164.674 140.296 119.233
165.36 139.384 118.37
166.259 137.346 119.027
171.693 145.812 123.58
164.901 141.49 116.859
165.706 139.649 116.554
169.272 147.711 121.034
168.958 147.216 120.146
163.835 143.27 115.582
165.124 141.639 115.445
167.201 147.14 120.049
165.79 147.159 119.31
165.264 146.134 119.279
164.061 146.429 117.575
163.74 145.91 116.535
163.511 145.456 115.062
164.083 144.155 114.883
178.491 132.935 139.587
179.561 133.867 140.431
180.064 131.896 141.886
179.322 130.737 141.247
177.512 132.112 138.595
179.02 130.241 139.212
177.192 130.943 137.431
178.962 129.399 137.534
177.375 130.194 135.588
178.873 128.566 135.443
176.968 134.691 138.723
178.455 135.556 139.437
178.125 129.603 132.249
177.295 137.185 137.297
178.393 139.438 135.623
178.837 137.111 138.939
176.133 131.049 130.541
174.298 131.942 128.98
171.985 133.011 126.912
177.66 141.71 132.356
170.597 133.382 125.794
176.68 143.032 129.053
168.954 134.003 124.928
167.861 134.996 122.885
167.506 135.538 120.514
174.085 144.452 127.472
173.801 144.914 124.827
166.992 137.318 117.518
173.183 144.572 123.192
166.385 139.968 114.867
171.232 146.039 121.522
170.581 145.755 120.835
167.236 144.923 119.52
168.997 144.15 119.718
167.554 145.191 119.948
168.366 144.212 118.984
166.469 141.845 115.079
169.131 145.877 120.668
167.89 145.571 120.581
166.228 144.85 119.241
165.938 143.937 119.035
165.658 143.602 117.82
165.84 143.094 116.208
182.965 128.199 143.399
184.474 128.192 144.351
184.531 127.234 143.949
184.237 126.381 143.73
182.404 127.055 142.556
184.141 125.722 142.299
182.363 126.907 140.141
184.302 125.77 139.905
182.617 127.043 137.62
183.882 125.971 137.41
183.174 130.121 143.492
184.215 131.757 142.465
185.063 129.715 144.095
181.471 130.436 142.361
180.974 129.21 141.519
180.711 128.905 139.209
180.722 128.236 137.306
181.299 127.701 135.142
181.898 132.59 142.001
182.969 134.359 141.044
179.939 128.26 133.186
180.708 135.219 140.384
180.87 137.79 137.52
179.334 129.702 130.197
180.192 140.249 132.805
178.029 130.077 129.411
176.366 130.623 128.164
174.181 131.452 127.415
172.321 132.582 125.099
174.313 131.871 125.117
179.063 141.773 129.876
170.888 132.933 124.364
172.674 132.882 122.752
178.227 142.435 127.515
169.984 133.886 122.061
168.879 135.352 119.007
175.874 143.776 126.172
175.533 144.112 123.258
168.025 138.374 115.615
174.416 143.9 121.423
172.539 144.852 120.64
172.315 144.023 119.873
174.292 143.05 120.509
172.142 142.81 120.345
174.211 142.568 119.855
170.967 142.954 119.554
174.347 141.59 119.703
169.664 141.869 119.989
172.198 141.462 119.534
169.28 141.141 119.263
171.126 139.742 120.482
170.51 139.118 119.816
167.88 140.187 115.559
170.54 145.183 120.185
169.879 144.258 120.444
168.237 143.8 118.619
167.547 142.893 118.431
169.181 140.285 118.436
167.564 142.054 117.473
167.39 141.4 116.35
168.65 140.133 117.184
185.91 125.837 145.308
187.306 126.621 145.694
188.023 125.228 145.715
187.556 123.904 145.549
185.745 124.519 144.272
187.511 123.018 144.133
186.176 123.854 142.48
187.808 122.579 141.28
185.824 124.668 139.657
186.041 123.838 138.814
186.243 128.041 144.575
187.077 129.949 143.762
187.991 127.759 145.567
183.922 125.817 136.169
186.137 132.154 141.558
182.808 127.112 134.081
181.687 127.846 132.836
183.56 127.579 132.439
184.728 134.268 139.434
185.342 135.108 137.22
186.305 133.376 138.865
180.873 129.304 129.83
182.719 128.922 130.007
183.189 136.446 137.936
184.105 136.751 135.422
179.934 129.93 128.247
181.464 130.592 126.384
182.246 138.661 134.408
183.327 138.114 132.788
179.215 130.565 126.21
176.595 130.939 126.212
175.512 132.091 123.805
181.736 139.086 131.494
180.414 140.662 128.697
175.096 132.911 121.868
179.032 141.487 126.454
171.219 134.708 119.675
173.843 134.068 120.407
177.292 142.781 125.272
177.365 142.353 123.691
174.474 139.836 119.844
176.626 138.169 120.608
176.646 139.473 120.158
172.964 138.293 121.09
175.82 137.409 120.722
172.307 137.463 120.04
174.529 136.425 120.953
171.472 136.617 118.653
174.024 135.725 119.933
169.917 136.795 117.422
176.315 143.313 121.583
176.26 142.405 120.481
176.218 141.271 119.736
170.357 138.264 118.912
169.557 138.673 116.671
191.62 122.042 146.555
192.397 122.874 146.968
193.993 121.644 146.476
193.078 120.617 146.043
190.812 121.172 145.618
192.241 120.037 145.348
190.686 121.046 143.555
192.134 119.695 143.759
190.716 124.099 146.443
191.076 126.092 145.33
192.365 124.33 146.195
189.357 124.013 145.795
189.292 122.836 145.276
189.096 122.217 143.412
190.874 120.598 141.818
189.522 121.514 141.775
190.037 121.135 139.593
189.376 126.22 145.237
189.682 128.571 144.128
187.855 122.505 138.879
185.552 124.279 136.345
187.204 123.523 135.797
189.007 130.473 141.544
184.358 126.237 134.052
185.379 125.595 133.198
187.592 132.167 139.858
187.609 133.47 137.627
189.563 131.828 138.851
184.806 127.826 131.718
186.456 135.127 135.561
183.469 129.856 128.04
185.192 136.438 133.594
182.294 131.889 125.203
184.378 137.166 131.901
179.987 132.058 123.067
181.509 132.758 122.97
178.05 131.379 124.328
183.076 138.254 130.658
180.562 140.139 126.257
182.288 139.274 128.239
181.94 138.697 127.204
179.367 134.496 120.652
180.948 134.119 121.573
179.89 135.511 121.261
178.187 133.428 120.745
177.3 132.548 122.353
178.775 140.976 125.144
181.219 139.054 125.386
179.424 139.855 124.509
180.686 138.714 124.332
178.415 136.48 121.161
179.661 136.415 121.679
179.247 137.141 122.05
177.089 135.91 120.839
176.647 135.11 120.28
175.885 134.099 120.216
177.977 141.467 122.244
179.42 138.859 123.973
177.832 139.682 122.753
177.776 138.665 121.654
179.412 138.101 122.999
193.788 123.189 146.248
193.542 124.924 144.976
195.07 122.941 145.167
196.296 120.763 146.629
195.043 119.556 146.937
194.066 118.677 145.707
193.228 118.739 143.175
192.488 127.066 144.023
191.82 119.686 141.038
191.795 119.436 138.826
191.757 129.097 141.862
189.456 122.151 136.778
188.065 124.118 133.688
191.689 130.694 138.648
186.852 126.239 131.799
188.523 133.481 135.771
190.622 132.405 136.07
185.088 128.393 130.467
187.449 134.767 133.647
184.223 129.786 128.729
185.137 128.967 130.465
184.843 130.374 128.588
186.032 135.9 132.133
183.548 131.54 126.398
184.227 132.045 126.374
185.143 136.805 130.757
184.283 137.66 130.161
184.855 136.808 129.926
181.753 133.881 123.457
182.84 133.382 125.167
183.9 137.914 128.848
182.436 138.184 126.497
183.512 137.529 127.804
183.204 137.266 126.499
180.683 135.354 123.515
182.934 134.166 125.635
181.926 135.437 125.212
180.795 137.602 124.102
182.038 137.492 125.378
180.61 136.725 123.638
182.368 136.189 125.101
197.084 119.071 146.112
198.342 120.522 144.818
198.83 118.324 145.743
197.72 117.281 145.588
195.876 118 146.303
196.955 116.953 144.352
195.527 117.734 145.098
195.695 117.144 143.924
195.304 124.979 143.39
196.929 122.524 144.068
194.468 117.862 143.138
193.327 118.547 141.022
194.547 117.438 140.222
194.207 127.117 141.677
193.544 119.146 137.263
193.992 128.841 139.337
190.872 122.502 135.463
192.199 121.868 135.957
193.232 129.956 136.775
189.692 124.505 133.757
191.11 124.393 134.49
189.561 133.336 133.3
192.016 131.803 134.509
188.684 126.799 132.023
190.139 125.877 133.914
188.895 127.455 132.635
186.939 127.351 131.287
187.394 134.256 132.298
190.29 132.328 132.516
187.899 132.858 132.129
187.866 131.712 131.47
189.792 131.298 132.438
187.855 130.567 130.683
189.426 129.972 132.439
187.562 128.926 131.163
189.017 128.492 132.802
186.259 128.893 130.743
185.843 135.599 130.967
186.296 134.672 130.414
186.43 133.618 129.948
186.501 132.427 129.641
186.051 131.6 129.185
185.445 130.867 128.559
185.114 136.483 128.789
184.973 135.876 127.783
185.029 134.49 128.053
184.981 133.33 127.999
184.14 132.902 126.838
183.699 135.799 126.635
183.793 134.722 126.005
200.005 119.604 144.005
200.263 117.532 145.389
199.251 116.588 145.079
198.464 115.954 143.925
197.624 115.989 142.282
195.69 116.727 142.191
197.068 115.788 140.779
197.291 124.087 142.12
199.375 122.281 142.032
196.009 117.138 138.213
196.29 126.38 139.85
198.335 124.504 139.797
195.077 119.941 136.913
195.638 128.101 136.935
193.264 122.383 136.646
194.576 128.849 135.428
192.797 130.19 134.326
194.215 128.389 134.88
191.977 125.759 135.032
193.677 124.717 136.066
192.763 126.526 134.616
191.745 124.829 134.967
193.55 123.576 136.349
191.301 130.956 133.529
193.069 128.534 134.613
191.085 129.406 133.935
190.978 127.828 134.004
192.966 127.527 134.408
190.452 126.634 134.112
200.836 116.084 144.871
201.585 117.897 143.997
202.234 116.488 143.273
201.536 115.062 143.799
199.996 115.13 144.193
201.048 113.791 143.38
199.57 114.832 142.452
200.638 113.497 141.439
199.126 114.706 140.823
200.861 112.794 140.268
199.789 113.683 139.847
201.415 112.02 139.205
201.591 119.832 142.649
198.365 115.2 139.502
200.555 113.707 138.129
201.074 121.289 140.487
198.283 117.443 137.602
199.973 115.752 137.639
197.827 125.928 136.991
199.622 123.297 138.808
196.843 121.42 136.909
198.903 120.816 135.806
197.889 122.478 135.862
196.374 120.462 137.015
198.238 118.942 137.442
199.869 116.737 137.728
195.788 127.118 136.024
198.588 124.306 136.737
196.736 125.411 135.755
196.429 123.656 136.2
198.333 123.666 135.708
195.113 123.261 136.547
194.95 121.721 136.954
194.85 126.972 135.003
194.741 125.574 135.155
202.121 112.772 142.303
202.682 113.24 143.329
203.859 112.159 142.475
203.432 111.981 141.034
201.976 112.491 140.813
203.267 111.642 139.91
203.093 118.062 142.217
204.397 116.048 142.825
202.969 114.641 143.438
202.043 111.853 139.943
203.483 110.141 138.78
201.846 111.801 137.787
203.874 109.466 138.198
202.481 119.414 140.472
202.126 113.473 136.751
203.271 111.434 136.672
201.624 121.318 138.211
202.836 112.982 135.716
201.16 115.088 137.113
200.591 122.056 137.209
199.697 122.984 136.242
199.269 122.619 134.704
200.426 121.239 135.646
200.744 119.589 135.947
200.249 118.219 136.971
200.431 116.896 137.147
203.98 113.497 142.173
205.614 111.631 141.878
205.026 110.987 141.173
204.593 110.663 139.835
203.452 110.885 139.133
204.582 110.183 138.613
204.429 109.867 138.338
205.414 108.505 137.89
204.067 118.083 140.099
205.215 116.544 140.615
204.852 114.632 142.265
205.37 107.477 137.951
204.073 109.639 136.523
205.346 107.051 137.283
204.763 108.378 135.949
205.639 106.403 136.117
202.873 119.416 137.83
204.596 117.81 138.11
203.801 110.949 136.113
204.421 109.761 135.289
205.313 108.047 134.638
201.462 120.589 136.918
203.534 117.948 137.045
201.859 119.187 136.467
201.641 117.647 136.473
202.737 117.519 136.112
201.655 115.86 137.332
202.866 115.469 136.731
201.827 114.896 136.674
202.763 114.133 136.264
203.761 112.153 136.207
204.596 110.54 135.405
205.193 109.293 134.37
205.474 113.084 141.092
206.605 111.288 140.954
206.726 110.146 140.738
206.423 109.524 139.784
205.842 108.916 138.959
206.79 106.957 138.818
205.648 115.56 140.047
205.881 114.172 140.942
207.293 105.318 138.296
206.768 105.427 136.279
206.153 105.933 134.426
205.642 116.456 138.29
205.752 108.238 133.197
204.742 116.991 137.023
203.99 116.334 136.737
204.453 114.74 137.161
205.578 114.689 136.997
204.285 113.987 136.654
204.472 112.721 136.464
205.039 111.425 135.905
205.397 110.456 135.01
205.705 109.544 133.606
205.635 113.829 136.552
205.57 112.863 136.285
205.896 111.892 135.767
205.929 111.25 134.901
207.369 111.458 140.457
208.121 110.023 140.193
207.983 108.87 139.475
207.453 107.995 138.621
206.344 114.607 139.585
206.868 113.041 139.834
208.231 111.33 139.473
209.254 109.361 138.888
209.006 107.621 138.313
208.756 106.116 137.897
208.865 105.573 136.187
208.443 104.623 135.875
207.479 104.669 134.811
206.611 106.811 132.31
207.722 106.086 132.061
206.284 115.815 137.541
207.273 114.263 138.33
206.243 108.56 132.186
206.978 107.951 131.074
205.764 115.907 136.398
206.84 115.002 135.656
207.035 109.943 132.473
206.579 110.497 134.036
206.95 109.184 131.698
206.851 113.809 136.054
206.656 112.867 135.869
206.759 112.072 135.105
206.831 111.253 134.491
207.678 112.806 138.41
208.324 111.402 137.863
209.459 109.831 137.485
209.533 108.632 137.321
208.933 107.726 136.353
209.303 106.91 135.257
209.163 106.119 134.129
208.588 105.627 132.956
208.684 106.558 131.408
207.64 114.443 136.485
208.457 112.684 136.852
209.023 111.285 136.397
207.802 108.157 131.451
207.846 114.039 135.09
208.49 112.44 135.396
208.31 109.754 132.145
207.636 110.429 133.487
208.256 108.885 131.772
207.464 113.189 134.96
207.465 112.248 134.615
207.731 111.148 133.925
209.602 109.6 136.229
209.825 108.527 135.647
209.868 107.744 134.755
209.714 107.112 133.729
209.13 106.422 132.857
208.831 110.978 135.439
209.724 109.636 134.724
210.122 108.751 133.841
209.491 108.58 132.597
209.065 107.7 131.907
208.378 112.157 134.46
208.614 110.909 134.111
208.934 109.968 133.064
POLYGONS 1324  5296
3 0 1 2
3 0 3 4
3 2 3 0
3 3 5 4
3 6 7 8
3 1 6 8
3 1 0 6
3 0 9 6
3 4 10 0
3 10 9 0
3 11 4 5
3 11 12 4
3 12 10 4
3 12 13 14
3 11 13 12
3 13 15 14
3 16 7 6
3 17 7 16
3 9 18 6
3 18 16 6
3 10 19 9
3 19 18 9
3 12 20 10
3 20 19 10
3 14 21 12
3 21 20 12
3 22 14 15
3 21 14 22
3 23 17 16
3 24 17 23
3 18 25 16
3 25 23 16
3 19 26 18
3 26 25 18
3 20 27 19
3 27 26 19
3 21 28 20
3 28 27 20
3 29 21 22
3 28 21 29
3 23 30 24
3 25 30 23
3 31 30 25
3 26 31 25
3 32 31 26
3 27 32 26
3 33 32 27
3 28 33 27
3 34 33 28
3 29 34 28
3 35 36 37
3 35 2 1
3 35 37 2
3 37 38 2
3 3 2 39
3 2 38 39
3 5 40 41
3 5 3 40
3 3 39 40
3 40 42 41
3 8 36 35
3 8 7 36
3 7 43 36
3 1 8 35
3 5 41 11
3 41 42 44
3 41 44 11
3 11 44 13
3 44 15 13
3 45 15 44
3 7 17 43
3 43 17 46
3 15 45 22
3 45 47 22
3 17 24 46
3 46 24 48
3 22 47 29
3 47 49 29
3 24 50 48
3 30 50 24
3 31 51 30
3 30 51 50
3 32 52 31
3 31 52 51
3 33 53 32
3 32 53 52
3 34 54 33
3 33 54 53
3 49 34 29
3 54 34 49
3 55 56 57
3 55 58 59
3 57 58 55
3 58 60 59
3 61 56 55
3 62 56 61
3 59 63 55
3 63 61 55
3 64 59 60
3 64 65 59
3 65 63 59
3 64 66 65
3 67 68 69
3 62 67 69
3 61 67 62
3 61 36 67
3 61 37 36
3 38 37 61
3 63 38 61
3 39 38 63
3 65 39 63
3 65 66 70
3 65 70 39
3 39 70 40
3 42 71 72
3 42 40 71
3 40 70 71
3 71 73 72
3 74 68 67
3 75 68 74
3 36 43 74
3 67 36 74
3 42 72 44
3 72 45 44
3 72 73 45
3 73 76 45
3 77 75 74
3 78 75 77
3 43 46 77
3 74 43 77
3 79 80 47
3 79 47 76
3 76 47 45
3 79 81 80
3 77 82 78
3 82 77 46
3 82 46 83
3 83 46 48
3 80 84 49
3 47 80 49
3 85 80 81
3 84 80 85
3 48 86 83
3 50 86 48
3 51 87 50
3 50 87 86
3 52 88 51
3 51 88 87
3 53 89 52
3 52 89 88
3 54 90 53
3 53 90 89
3 84 54 49
3 84 91 54
3 91 90 54
3 85 91 84
3 92 93 94
3 92 95 96
3 94 95 92
3 96 97 98
3 95 97 96
3 97 99 98
3 100 101 102
3 93 100 102
3 92 100 93
3 92 56 100
3 92 57 56
3 58 57 92
3 96 58 92
3 60 58 96
3 60 96 103
3 103 96 98
3 104 98 99
3 104 105 98
3 105 103 98
3 105 106 107
3 104 106 105
3 106 108 107
3 109 110 111
3 101 109 111
3 101 100 109
3 100 112 109
3 56 62 112
3 100 56 112
3 60 103 64
3 66 64 103
3 66 103 113
3 113 103 105
3 107 114 105
3 114 113 105
3 115 107 108
3 114 107 115
3 116 110 109
3 117 110 116
3 69 68 116
3 69 116 112
3 112 116 109
3 62 69 112
3 66 113 70
3 71 70 113
3 114 71 113
3 73 118 119
3 71 118 73
3 71 115 118
3 71 114 115
3 119 120 121
3 118 120 119
3 120 122 121
3 116 123 117
3 123 116 68
3 123 68 124
3 124 68 75
3 119 125 76
3 73 119 76
3 121 126 119
3 126 125 119
3 127 121 122
3 126 121 127
3 75 78 124
3 124 78 128
3 76 125 79
3 81 79 125
3 81 125 129
3 129 125 126
3 130 126 127
3 129 126 130
3 78 131 128
3 82 131 78
3 131 82 83
3 132 131 83
3 129 133 85
3 81 129 85
3 134 129 130
3 133 129 134
3 83 135 132
3 86 135 83
3 87 136 86
3 86 136 135
3 88 137 87
3 87 137 136
3 89 138 88
3 88 138 137
3 90 139 89
3 89 139 138
3 91 140 90
3 90 140 139
3 133 91 85
3 133 141 91
3 141 140 91
3 134 141 133
3 142 143 144
3 142 145 146
3 144 145 142
3 146 147 148
3 145 147 146
3 148 149 150
3 147 149 148
3 149 151 150
3 152 143 142
3 153 143 152
3 94 93 152
3 94 152 146
3 146 152 142
3 95 94 146
3 148 95 146
3 97 95 148
3 150 97 148
3 150 99 97
3 150 151 99
3 151 154 99
3 155 156 157
3 153 155 157
3 152 155 153
3 152 101 155
3 152 102 101
3 93 102 152
3 99 154 158
3 104 99 158
3 106 104 159
3 104 158 159
3 159 108 106
3 160 108 159
3 111 156 155
3 111 110 156
3 110 161 156
3 101 111 155
3 108 160 115
3 160 162 115
3 110 117 161
3 161 117 163
3 115 162 164
3 118 115 164
3 120 118 165
3 118 164 165
3 165 122 120
3 166 122 165
3 117 167 163
3 123 167 117
3 167 123 124
3 168 167 124
3 122 166 127
3 166 169 127
3 124 128 168
3 168 128 170
3 127 169 130
3 169 171 130
3 128 172 170
3 131 172 128
3 172 131 132
3 173 172 132
3 174 175 176
3 175 174 177
3 130 171 134
3 171 178 134
3 132 179 173
3 135 179 132
3 136 180 135
3 135 180 179
3 176 137 174
3 176 180 137
3 180 136 137
3 174 181 177
3 174 137 181
3 137 138 181
3 139 182 138
3 138 182 181
3 140 183 139
3 139 183 182
3 141 184 140
3 140 184 183
3 178 141 134
3 184 141 178
3 185 186 187
3 185 188 189
3 187 188 185
3 189 190 191
3 188 190 189
3 191 192 193
3 190 192 191
3 192 194 193
3 195 196 197
3 186 195 197
3 186 185 195
3 185 198 195
3 189 199 185
3 199 198 185
3 191 200 189
3 200 199 189
3 193 201 191
3 201 200 191
3 202 193 194
3 201 193 202
3 203 196 195
3 204 196 203
3 144 143 203
3 144 203 198
3 198 203 195
3 145 144 198
3 199 145 198
3 147 145 199
3 200 147 199
3 149 147 200
3 201 149 200
3 201 151 149
3 201 202 151
3 202 205 151
3 206 204 203
3 207 204 206
3 143 153 206
3 203 143 206
3 151 205 154
3 205 208 154
3 157 207 206
3 157 156 207
3 156 209 207
3 153 157 206
3 154 208 210
3 158 154 210
3 159 158 211
3 158 210 211
3 160 212 213
3 160 159 212
3 159 211 212
3 212 214 213
3 156 161 209
3 209 161 215
3 213 216 162
3 160 213 162
3 217 213 214
3 216 213 217
3 161 163 215
3 215 163 218
3 162 216 164
3 216 217 219
3 216 219 164
3 164 219 165
3 219 166 165
3 220 166 219
3 163 221 218
3 167 221 163
3 221 167 168
3 222 221 168
3 166 220 169
3 220 223 169
3 224 170 225
3 224 222 170
3 222 168 170
3 225 226 227
3 224 225 227
3 226 228 229
3 227 226 229
3 228 230 231
3 229 228 231
3 230 232 233
3 231 230 233
3 232 234 235
3 233 232 235
3 235 234 236
3 169 223 171
3 223 237 171
3 170 172 225
3 173 225 172
3 173 238 225
3 238 226 225
3 228 226 239
3 239 226 238
3 175 239 176
3 175 230 239
3 230 228 239
3 177 230 175
3 177 240 230
3 240 232 230
3 234 232 241
3 241 232 240
3 242 236 234
3 242 234 243
3 243 234 241
3 243 244 245
3 242 243 245
3 244 237 245
3 244 178 237
3 178 171 237
3 173 179 238
3 180 238 179
3 239 238 180
3 176 239 180
3 177 181 240
3 182 240 181
3 241 240 182
3 183 241 182
3 243 241 183
3 184 243 183
3 244 243 184
3 178 244 184
3 246 247 248
3 246 249 250
3 248 249 246
3 250 251 252
3 249 251 250
3 252 253 254
3 251 253 252
3 253 255 254
3 256 257 258
3 247 256 258
3 246 256 247
3 246 186 256
3 246 187 186
3 188 187 246
3 250 188 246
3 190 188 250
3 252 190 250
3 192 190 252
3 254 192 252
3 254 194 192
3 254 255 194
3 255 259 194
3 197 257 256
3 197 196 257
3 196 260 257
3 186 197 256
3 261 262 202
3 261 202 259
3 259 202 194
3 261 263 262
3 264 265 266
3 264 266 260
3 264 260 204
3 204 260 196
3 262 267 205
3 202 262 205
3 268 262 263
3 267 262 268
3 269 265 264
3 270 265 269
3 204 207 269
3 264 204 269
3 267 271 208
3 205 267 208
3 272 267 268
3 271 267 272
3 273 270 269
3 274 270 273
3 207 209 273
3 269 207 273
3 208 271 210
3 271 272 275
3 271 275 210
3 210 275 211
3 212 211 276
3 211 275 276
3 276 214 212
3 277 214 276
3 273 278 274
3 278 273 209
3 278 209 279
3 279 209 215
3 214 277 217
3 277 280 217
3 215 218 279
3 279 218 281
3 282 219 217
3 282 217 283
3 283 217 280
3 219 282 220
3 218 284 281
3 221 284 218
3 284 221 222
3 285 284 222
3 286 287 288
3 286 289 290
3 287 286 290
3 289 291 292
3 290 289 292
3 291 293 294
3 292 291 294
3 283 294 293
3 283 293 282
3 282 293 295
3 220 295 223
3 282 295 220
3 222 296 285
3 224 296 222
3 227 297 224
3 224 297 296
3 229 298 227
3 227 298 297
3 288 231 286
3 288 298 231
3 298 229 231
3 233 286 231
3 289 286 233
3 235 289 233
3 291 289 235
3 236 291 235
3 236 299 291
3 299 293 291
3 295 293 300
3 300 293 299
3 223 300 237
3 295 300 223
3 236 242 299
3 245 299 242
3 300 299 245
3 237 300 245
3 301 302 303
3 301 304 305
3 303 304 301
3 305 306 307
3 304 306 305
3 306 308 307
3 309 310 311
3 302 309 311
3 302 301 309
3 301 312 309
3 305 313 301
3 313 312 301
3 307 314 305
3 314 313 305
3 315 307 308
3 315 316 307
3 316 314 307
3 315 317 316
3 318 310 309
3 319 310 318
3 248 247 318
3 248 318 312
3 312 318 309
3 249 248 312
3 313 249 312
3 251 249 313
3 314 251 313
3 253 251 314
3 316 253 314
3 255 320 321
3 253 320 255
3 253 317 320
3 253 316 317
3 320 322 321
3 258 319 318
3 258 257 319
3 257 323 319
3 247 258 318
3 321 324 259
3 255 321 259
3 325 321 322
3 324 321 325
3 326 327 328
3 326 328 323
3 326 323 260
3 260 323 257
3 259 324 261
3 324 263 261
3 324 325 263
3 325 329 263
3 266 327 326
3 266 265 327
3 265 330 327
3 260 266 326
3 263 329 268
3 329 331 268
3 265 270 330
3 330 270 332
3 268 331 272
3 331 333 272
3 270 274 332
3 332 274 334
3 335 275 272
3 335 272 336
3 336 272 333
3 275 337 276
3 335 337 275
3 276 337 277
3 274 338 334
3 278 338 274
3 279 339 340
3 279 340 278
3 278 340 338
3 340 339 341
3 342 343 344
3 336 343 342
3 336 342 335
3 335 342 345
3 337 335 346
3 346 335 345
3 277 346 280
3 337 346 277
3 339 281 347
3 279 281 339
3 348 341 339
3 348 339 349
3 349 339 347
3 348 349 350
3 351 352 353
3 344 352 351
3 344 351 342
3 342 351 354
3 345 342 355
3 355 342 354
3 346 345 356
3 356 345 355
3 280 356 283
3 346 356 280
3 281 284 347
3 285 347 284
3 285 357 347
3 357 349 347
3 358 350 349
3 358 349 359
3 359 349 357
3 359 360 361
3 358 359 361
3 353 361 360
3 351 353 360
3 351 360 288
3 351 288 287
3 290 351 287
3 354 351 290
3 292 354 290
3 355 354 292
3 294 355 292
3 356 355 294
3 283 356 294
3 285 296 357
3 297 357 296
3 359 357 297
3 298 359 297
3 360 359 298
3 288 360 298
3 362 363 364
3 362 303 302
3 362 364 303
3 364 365 303
3 304 303 366
3 303 365 366
3 306 304 367
3 304 366 367
3 367 308 306
3 368 308 367
3 311 363 362
3 311 310 363
3 310 369 363
3 302 311 362
3 308 368 370
3 315 308 370
3 370 317 315
3 371 317 370
3 310 319 369
3 369 319 372
3 317 371 373
3 320 317 373
3 373 322 320
3 374 322 373
3 319 323 372
3 372 323 375
3 322 374 325
3 374 376 325
3 328 377 378
3 327 377 328
3 375 323 328
3 378 375 328
3 325 376 329
3 376 379 329
3 327 330 377
3 377 330 380
3 381 382 383
3 381 379 382
3 381 331 379
3 331 329 379
3 330 332 380
3 380 332 384
3 385 381 383
3 386 385 383
3 331 385 333
3 381 385 331
3 387 334 388
3 387 384 334
3 384 332 334
3 387 388 389
3 390 385 386
3 391 390 386
3 333 390 336
3 385 390 333
3 334 338 388
3 388 392 389
3 388 338 392
3 338 340 392
3 341 393 394
3 341 394 340
3 340 394 392
3 394 393 395
3 396 397 398
3 391 397 396
3 390 391 396
3 390 396 344
3 390 344 343
3 336 390 343
3 341 348 393
3 350 399 400
3 348 350 400
3 348 400 395
3 348 395 393
3 399 401 402
3 400 399 402
3 398 402 401
3 396 398 401
3 396 401 353
3 396 353 352
3 344 396 352
3 350 358 399
3 361 399 358
3 401 399 361
3 353 401 361
3 403 404 405
3 403 406 407
3 405 406 403
3 407 408 409
3 406 408 407
3 408 410 409
3 364 411 412
3 363 411 364
3 404 403 365
3 404 365 412
3 412 365 364
3 366 365 403
3 407 366 403
3 367 366 407
3 409 367 407
3 368 413 414
3 367 413 368
3 367 410 413
3 367 409 410
3 413 415 414
3 363 369 411
3 411 369 416
3 368 414 370
3 414 371 370
3 414 415 371
3 415 417 371
3 369 372 416
3 416 372 418
3 419 373 371
3 419 371 420
3 420 371 417
3 373 419 374
3 372 375 418
3 418 375 421
3 422 419 420
3 423 422 420
3 374 422 376
3 419 422 374
3 378 377 424
3 378 424 425
3 378 425 375
3 375 425 421
3 426 427 428
3 423 427 426
3 423 426 422
3 422 426 429
3 376 429 379
3 422 429 376
3 424 380 430
3 377 380 424
3 431 425 424
3 431 424 432
3 432 424 430
3 432 433 434
3 431 432 434
3 433 435 436
3 434 433 436
3 435 437 438
3 436 435 438
3 428 438 437
3 428 437 426
3 426 437 439
3 382 439 383
3 382 429 439
3 429 426 439
3 379 429 382
3 430 384 440
3 380 384 430
3 432 430 441
3 441 430 440
3 433 432 442
3 442 432 441
3 435 433 443
3 443 433 442
3 437 435 444
3 444 435 443
3 439 437 445
3 445 437 444
3 383 445 386
3 439 445 383
3 384 387 440
3 389 440 387
3 389 446 440
3 446 441 440
3 442 441 447
3 447 441 446
3 443 442 448
3 448 442 447
3 444 443 449
3 449 443 448
3 445 444 450
3 450 444 449
3 386 450 391
3 445 450 386
3 389 392 446
3 394 446 392
3 447 446 394
3 395 447 394
3 395 451 447
3 451 448 447
3 449 448 452
3 452 448 451
3 397 452 398
3 397 450 452
3 450 449 452
3 391 450 397
3 395 400 451
3 402 451 400
3 452 451 402
3 398 452 402
3 405 453 454
3 404 453 405
3 406 405 455
3 405 454 455
3 408 406 456
3 406 455 456
3 410 457 458
3 410 408 457
3 408 456 457
3 457 459 458
3 412 411 460
3 412 460 461
3 412 461 404
3 404 461 453
3 410 458 413
3 458 415 413
3 458 459 415
3 459 462 415
3 460 463 464
3 460 411 463
3 411 416 463
3 461 460 464
3 415 462 417
3 462 465 417
3 416 418 463
3 463 418 466
3 417 465 420
3 465 467 420
3 468 421 469
3 468 466 421
3 466 418 421
3 468 469 470
3 471 472 473
3 471 474 475
3 472 471 475
3 474 467 475
3 474 423 467
3 423 420 467
3 469 425 476
3 421 425 469
3 477 470 469
3 477 469 478
3 478 469 476
3 478 479 480
3 477 478 480
3 473 480 479
3 473 479 471
3 471 479 481
3 427 481 428
3 427 474 481
3 474 471 481
3 423 474 427
3 425 431 476
3 434 476 431
3 478 476 434
3 436 478 434
3 479 478 436
3 438 479 436
3 481 479 438
3 428 481 438
3 482 483 484
3 482 485 486
3 484 485 482
3 486 487 488
3 485 487 486
3 488 489 490
3 487 489 488
3 490 491 492
3 489 491 490
3 491 493 492
3 454 483 482
3 454 453 483
3 453 494 483
3 455 454 482
3 486 455 482
3 456 455 486
3 488 456 486
3 457 456 488
3 490 457 488
3 459 457 490
3 459 490 495
3 495 490 492
3 496 492 493
3 495 492 496
3 453 461 494
3 494 461 497
3 495 498 462
3 459 495 462
3 499 495 496
3 498 495 499
3 464 463 500
3 464 500 501
3 464 501 461
3 461 501 497
3 502 503 504
3 502 505 506
3 503 502 506
3 498 507 506
3 498 506 465
3 498 465 462
3 465 506 505
3 499 507 498
3 500 466 508
3 463 466 500
3 509 501 500
3 509 500 510
3 510 500 508
3 510 511 512
3 509 510 512
3 504 512 511
3 504 511 502
3 502 511 513
3 505 502 514
3 514 502 513
3 465 514 467
3 505 514 465
3 466 468 508
3 470 508 468
3 470 515 508
3 515 510 508
3 511 510 516
3 516 510 515
3 472 516 473
3 472 513 516
3 513 511 516
3 475 513 472
3 514 513 475
3 467 514 475
3 470 477 515
3 480 515 477
3 516 515 480
3 473 516 480
3 517 518 519
3 517 520 521
3 519 520 517
3 520 522 521
3 484 523 524
3 483 523 484
3 485 484 525
3 484 524 525
3 518 517 487
3 518 487 525
3 525 487 485
3 489 487 517
3 521 489 517
3 521 522 526
3 521 526 489
3 489 526 491
3 493 527 528
3 493 491 527
3 491 526 527
3 527 529 528
3 483 494 523
3 523 494 530
3 528 531 496
3 493 528 496
3 532 528 529
3 531 528 532
3 494 497 530
3 530 497 533
3 531 534 535
3 531 535 496
3 496 535 499
3 532 534 531
3 536 501 537
3 536 533 501
3 533 497 501
3 537 538 539
3 536 537 539
3 538 504 503
3 538 503 539
3 539 503 540
3 506 541 503
3 503 541 540
3 507 542 506
3 506 542 541
3 535 507 499
3 542 507 535
3 501 509 537
3 512 537 509
3 538 537 512
3 504 538 512
3 519 543 544
3 518 543 519
3 520 519 545
3 519 544 545
3 522 546 547
3 522 520 546
3 520 545 546
3 547 548 549
3 546 548 547
3 548 550 549
3 524 523 551
3 552 524 551
3 552 553 524
3 553 525 524
3 543 518 525
3 553 543 525
3 522 547 526
3 527 526 547
3 549 527 547
3 529 554 555
3 527 554 529
3 527 550 554
3 527 549 550
3 555 556 557
3 554 556 555
3 556 558 557
3 551 530 559
3 523 530 551
3 560 552 551
3 559 560 551
3 555 561 532
3 529 555 532
3 557 562 555
3 562 561 555
3 563 557 558
3 562 557 563
3 559 533 564
3 530 533 559
3 565 560 559
3 565 559 566
3 566 559 564
3 566 567 568
3 565 566 568
3 567 569 570
3 568 567 570
3 569 571 572
3 570 569 572
3 571 535 534
3 571 534 572
3 572 534 573
3 561 534 532
3 561 574 534
3 574 573 534
3 562 574 561
3 575 574 562
3 563 575 562
3 533 536 564
3 539 564 536
3 566 564 539
3 540 566 539
3 567 566 540
3 541 567 540
3 569 567 541
3 542 569 541
3 571 569 542
3 535 571 542
3 544 576 577
3 543 576 544
3 545 544 578
3 544 577 578
3 546 545 579
3 545 578 579
3 548 546 580
3 546 579 580
3 580 550 548
3 581 550 580
3 553 582 583
3 552 582 553
3 576 543 553
3 583 576 553
3 550 581 584
3 554 550 584
3 556 554 585
3 554 584 585
3 585 558 556
3 586 558 585
3 552 560 582
3 582 560 587
3 558 586 563
3 586 588 563
3 560 589 587
3 565 589 560
3 568 590 565
3 565 590 589
3 591 592 590
3 591 590 570
3 570 590 568
3 570 572 593
3 591 570 593
3 572 573 594
3 593 572 594
3 573 574 595
3 594 573 595
3 596 595 574
3 596 574 597
3 597 574 575
3 588 575 563
3 597 575 588
3 591 598 592
3 593 598 591
3 599 598 593
3 594 599 593
3 600 599 594
3 595 600 594
3 601 600 595
3 596 601 595
3 577 576 602
3 577 603 578
3 602 603 577
3 578 604 579
3 603 604 578
3 579 605 580
3 604 605 579
3 580 605 581
3 583 582 606
3 583 606 607
3 576 583 607
3 576 607 608
3 576 608 602
3 603 602 608
3 609 603 608
3 604 603 609
3 610 604 609
3 605 604 610
3 611 605 610
3 581 605 611
3 581 611 584
3 584 611 612
3 585 584 613
3 584 612 613
3 586 614 615
3 586 585 614
3 585 613 614
3 614 616 615
3 606 587 617
3 582 587 606
3 618 607 606
3 617 618 606
3 615 619 588
3 586 615 588
3 620 615 616
3 619 615 620
3 587 589 617
3 617 621 618
3 617 589 621
3 589 590 621
3 621 590 592
3 622 621 592
3 597 623 624
3 596 597 624
3 619 597 588
3 619 625 597
3 625 623 597
3 620 625 619
3 592 626 622
3 598 626 592
3 599 627 598
3 598 627 626
3 600 628 599
3 599 628 627
3 601 629 600
3 600 629 628
3 624 601 596
3 629 601 624
3 608 607 630
3 608 631 609
3 630 631 608
3 632 609 631
3 632 633 609
3 633 610 609
3 611 610 634
3 610 633 634
3 612 611 635
3 611 634 635
3 613 612 636
3 612 635 636
3 614 613 637
3 613 636 637
3 637 616 614
3 638 616 637
3 630 618 639
3 607 618 630
3 631 630 640
3 640 630 639
3 641 632 631
3 640 641 631
3 616 638 620
3 638 642 620
3 618 621 639
3 622 639 621
3 622 643 639
3 643 640 639
3 644 641 640
3 643 644 640
3 623 645 646
3 624 623 646
3 625 647 623
3 623 647 645
3 642 625 620
3 647 625 642
3 622 626 643
3 643 648 644
3 643 626 648
3 626 627 648
3 628 649 627
3 627 649 648
3 629 650 628
3 628 650 649
3 646 629 624
3 650 629 646
3 633 632 651
3 633 652 634
3 651 652 633
3 634 653 635
3 652 653 634
3 635 654 636
3 653 654 635
3 636 655 637
3 654 655 636
3 637 655 638
3 651 641 656
3 632 641 651
3 652 651 657
3 657 651 656
3 653 652 658
3 658 652 657
3 654 653 659
3 659 653 658
3 655 654 660
3 660 654 659
3 638 660 642
3 655 660 638
3 656 644 661
3 641 644 656
3 657 656 662
3 662 656 661
3 658 657 663
3 663 657 662
3 645 663 646
3 645 659 663
3 659 658 663
3 647 659 645
3 660 659 647
3 642 660 647
3 644 648 661
3 649 661 648
3 662 661 649
3 650 662 649
3 663 662 650
3 646 663 650
