# vtk DataFile Version 3.0
this file was written using fslvtkio
ASCII
DATASET POLYDATA
POINTS 642 float
156.884 135.496 112.524
156.438 137.911 112.231
156.637 137.668 113.791
157.325 134.992 113.888
157.788 136.146 113.005
155.7 135.222 113.129
155.416 136.958 113.125
157.003 137.209 112.75
157.614 136.907 111.43
157.613 136.777 114.115
155.708 135.983 114.689
156.15 136.62 112.058
157.17 137.068 112.205
157.7 136.24 112.434
157.39 136.653 112.836
157.365 137.181 113.497
157.788 136.564 113.525
155.658 136.699 112.617
155.23 135.94 113.11
155.931 135.972 112.706
154.992 136.79 113.793
155.333 135.187 113.789
157.959 135.534 113.481
157.591 135.402 112.721
157.084 135.143 113.152
156.312 134.773 113.578
156.342 135.385 112.861
156.606 137.322 112.317
157.166 137.959 113.428
156.614 137.715 113.099
156.205 137.131 112.814
155.99 137.314 113.521
156.522 136.157 112.181
157.19 135.667 111.778
156.413 136.886 110.868
156.082 137.463 111.85
157.019 138.362 111.603
156.76 134.616 114.573
157.275 136.362 114.762
158.033 135.862 114.257
156.198 137.323 114.418
157.165 137.506 114.205
157.391 136.591 112.247
157.438 136.277 112.599
157.1 136.542 112.502
157.736 136.483 112.936
157.902 136.191 112.8
157.706 136.48 111.949
157.38 137.122 111.781
156.898 136.853 112.434
157.064 136.855 112.763
157.388 137.005 113.183
157.71 136.879 113.254
157.574 136.933 113.478
157.827 136.435 113.229
157.284 137.379 113.16
157.535 137.124 113.848
157.744 136.733 113.812
155.338 136.308 112.812
155.466 135.816 112.839
155.767 136.322 112.669
155.736 135.431 112.88
155.406 135.385 113.096
155.317 136.608 113.139
155.328 136.779 112.748
155.888 136.58 112.263
156.056 136.376 112.399
154.855 135.779 113.821
155.042 135.531 113.37
154.881 136.267 113.336
155.43 134.964 113.367
155.284 135.348 114.349
155.03 136.372 114.365
155.184 137 113.364
157.781 135.46 113.089
157.366 135.261 112.94
157.537 135.202 113.322
156.956 135.216 112.781
157.176 135.269 112.565
157.842 135.833 112.92
157.923 135.986 113.197
157.681 135.082 113.685
157.217 135.169 113.544
156.734 134.914 113.353
156.685 135.233 113.022
156.353 135.185 113.209
156.652 135.519 112.656
156.871 134.944 113.825
155.871 134.808 113.269
156.014 135.382 113.066
156.775 137.555 112.771
156.903 138.005 113.244
156.61 137.675 112.658
156.637 137.821 113.535
157.005 138.016 113.701
157.001 137.487 112.972
156.712 137.143 112.459
156.561 137.674 112.236
156.412 137.615 112.576
156.34 137.387 112.937
156.317 137.472 113.336
156.051 137.043 113.167
156.358 137.381 113.694
156.366 137.514 112.473
155.714 137.079 112.946
155.667 137.124 113.302
156.847 136.054 111.948
156.931 136.095 111.156
156.426 136.168 111.471
157.293 137.159 110.925
157.555 136.083 111.346
157.031 135.645 112.266
156.688 135.604 112.256
156.323 136.457 112.081
156.063 136.68 111.396
156.002 137.597 111.101
156.823 138.23 110.971
156.24 138.493 111.362
157.405 137.864 111.415
156.009 136.98 111.826
156.331 137.59 111.986
156.538 137.982 111.811
157.22 135.45 114.895
157.94 136.102 114.807
157.8 135.155 114.665
157.804 136.332 114.202
157.685 136.741 114.6
156.485 136.151 114.819
156.186 135.17 114.699
157.218 134.918 114.285
157.763 135.201 114.122
156.787 137.498 114.369
157.203 137.128 114.599
156.691 137.065 114.754
157.481 137.219 114.237
156.884 137.722 113.989
156.449 137.506 114.061
155.757 136.837 114.659
157.863 135.673 112.617
157.74 135.778 112.07
157.42 135.401 112.376
156.42 135.848 112.575
156.24 136.061 112.455
156.105 135.644 112.755
157.906 136.258 113.807
158.081 136.129 113.539
158.046 135.716 113.857
156.423 134.602 114.035
155.833 134.736 113.689
155.838 134.652 114.248
157.149 137.671 111.831
156.896 137.32 112.184
156.807 137.747 112.006
156.087 137.424 112.333
155.912 137.067 112.664
155.862 137.077 112.21
157.256 137.925 113.855
157.324 137.689 113.484
157.364 137.492 113.889
155.478 137.189 114.22
155.503 137.333 113.721
155.98 137.56 114.061
157.382 136.388 112.417
157.27 136.435 112.545
157.244 136.561 112.381
157.132 136.465 112.616
157.372 136.435 112.709
157.621 136.283 112.542
157.544 136.377 112.297
157.287 136.871 112.226
157.111 136.772 112.335
157.551 136.331 112.753
157.674 136.22 112.683
157.789 136.32 112.859
157.864 136.174 112.67
157.589 136.583 112.898
157.807 136.357 112.991
157.933 136.242 112.941
157.552 136.608 112.12
157.431 136.918 112.064
157.557 136.828 111.876
157.301 137.158 112.027
157.722 136.337 112.205
157.599 136.688 111.622
157.444 136.991 111.597
156.942 136.643 112.439
156.975 136.593 112.586
156.921 136.824 112.566
157.196 136.735 112.797
156.976 136.868 112.299
156.921 137.035 112.579
156.996 136.991 112.729
157.541 136.925 113.219
157.627 136.898 113.355
157.474 136.966 113.33
157.737 136.853 113.524
157.805 136.845 113.376
157.552 136.789 113.049
157.359 136.819 112.992
157.35 137.059 113.3
157.474 137.046 113.471
157.783 136.667 113.249
157.704 136.689 113.091
157.779 136.512 113.112
157.87 136.557 113.372
157.803 136.308 113.115
157.235 136.939 112.942
157.332 137.199 113.165
157.135 137.08 112.919
157.333 137.279 113.33
157.109 137.282 112.916
157.573 137.022 113.683
157.636 136.785 113.667
157.634 136.901 113.833
157.785 136.647 113.703
157.471 137.222 113.67
157.592 136.998 113.989
157.646 136.754 113.962
155.429 136.094 112.853
155.564 136.071 112.747
155.445 136.282 112.689
155.842 136.148 112.696
155.659 135.858 112.739
155.353 135.835 113.016
155.391 136.18 113.082
155.397 136.471 112.641
155.692 136.489 112.628
155.579 135.572 112.837
155.39 135.551 112.956
155.54 135.404 112.983
155.262 135.621 113.087
155.856 135.764 112.803
155.72 135.366 113.046
155.574 135.272 113.132
155.401 136.436 113.077
155.32 136.528 112.775
155.347 136.667 112.987
155.444 136.733 112.645
155.25 136.29 113.136
155.364 136.842 113.143
155.315 136.891 112.92
155.798 136.45 112.468
155.917 136.345 112.546
155.981 136.495 112.344
156.001 136.182 112.585
155.706 136.562 112.408
156.12 136.628 112.201
156.196 136.575 112.283
154.887 135.681 113.563
154.908 135.883 113.374
154.795 136.039 113.583
155.063 136.097 113.198
155.112 135.717 113.204
155.114 135.339 113.566
155.091 135.464 113.814
154.797 136.304 113.827
154.859 136.571 113.572
155.196 135.357 113.192
155.227 135.222 113.37
155.363 135.138 113.194
155.366 135.116 113.571
155.54 134.992 113.204
154.932 135.494 114.088
154.781 136.014 114.12
155.116 135.856 114.389
154.884 136.616 114.106
155.248 135.194 114.081
155.505 135.67 114.579
155.362 136.234 114.59
154.913 136.743 113.322
155.061 136.471 113.192
155.15 136.846 113.189
155.02 136.995 113.55
155.362 136.951 113.229
157.596 135.294 113.02
157.45 135.207 113.134
157.683 135.349 113.21
157.307 135.143 113.229
157.222 135.206 113.04
157.477 135.339 112.807
157.695 135.543 112.892
157.858 135.546 113.25
157.757 135.33 113.412
157.169 135.243 112.862
157.251 135.243 112.726
157.076 135.279 112.685
157.381 135.229 112.608
157.036 135.213 112.974
156.907 135.397 112.646
157.012 135.449 112.57
157.824 135.83 112.992
157.847 135.757 113.135
157.868 135.987 113.052
157.952 135.831 113.296
157.763 135.635 112.857
157.842 136.037 112.976
157.806 136.135 113.096
157.626 135.179 113.514
157.362 135.123 113.427
157.425 135.092 113.588
157.11 135.022 113.309
157.894 135.231 113.598
157.488 135.016 113.806
157.259 135.046 113.729
156.713 135.124 113.206
156.546 135.268 113.153
156.538 135.006 113.268
156.352 135.331 113.042
156.519 135.273 112.942
156.888 135.23 113.107
156.898 135.028 113.26
156.542 134.839 113.481
156.313 134.833 113.358
156.7 135.361 112.873
156.859 135.306 112.936
156.797 135.351 112.741
156.512 135.409 112.763
156.738 135.496 112.561
156.921 134.938 113.429
156.769 134.957 113.593
157.011 135.031 113.677
156.588 134.849 113.711
157.105 134.953 113.886
156.09 134.854 113.201
156.184 135.299 113.154
155.969 135.087 113.163
156.14 135.309 112.926
156.056 134.699 113.407
155.735 134.996 113.166
155.877 135.341 113.151
156.861 137.84 113.019
156.749 137.781 112.961
156.694 137.577 112.688
156.609 137.767 112.89
156.751 137.895 113.167
157.034 138.016 113.336
156.961 137.758 113.073
156.627 137.318 112.474
156.558 137.405 112.421
156.803 137.993 113.395
156.992 138.122 113.525
156.807 137.891 113.613
157.154 138.075 113.626
156.643 137.776 113.296
156.63 137.68 113.661
156.791 137.843 113.753
156.896 137.548 112.881
156.747 137.308 112.589
156.884 137.356 112.73
156.614 137.106 112.361
157.138 137.736 113.207
156.984 137.312 112.835
156.878 137.205 112.629
156.492 137.479 112.374
156.486 137.648 112.616
156.467 137.623 112.373
156.474 137.638 112.822
156.601 137.504 112.252
156.503 137.789 112.226
156.445 137.791 112.416
156.346 137.391 113.147
156.175 137.28 113.249
156.195 137.206 113.06
155.975 137.313 113.384
156.137 137.434 113.466
156.485 137.515 113.216
156.448 137.513 113.015
156.29 137.183 112.87
156.061 137.144 112.997
156.311 137.487 113.527
156.464 137.654 113.437
156.48 137.54 113.594
156.177 137.36 113.623
156.514 137.5 113.752
156.398 137.571 112.743
156.339 137.401 112.695
156.39 137.596 112.531
156.34 137.223 112.641
156.403 137.823 112.333
155.882 137.033 113.048
155.833 137.115 113.218
155.687 137.031 113.096
155.81 137.19 113.403
155.925 137.147 112.914
155.479 137.057 113
155.501 137.025 113.184
156.878 136.014 111.611
156.639 136.137 111.29
156.68 136.122 111.764
156.328 136.368 111.029
156.654 136.475 110.92
157.08 135.85 111.49
157.009 135.853 111.824
156.708 136.095 112.085
156.546 136.2 111.942
157.093 136.48 110.906
157.293 136.041 111.195
157.512 136.525 111.066
157.335 135.763 111.53
156.796 137.066 110.829
157.613 137.06 111.151
157.698 136.547 111.32
156.939 135.827 112.119
156.799 135.903 112.163
156.878 135.702 112.273
156.618 135.883 112.224
157.124 135.653 112.074
156.955 135.53 112.423
156.779 135.496 112.387
156.345 136.339 111.813
156.188 136.37 111.339
156.16 136.441 111.731
156.117 136.733 111.029
156.465 136.395 112.187
156.185 136.535 112.031
156.076 136.642 111.764
156.309 137.995 110.907
156.512 138.654 111.052
156.09 138.081 111.151
156.682 138.649 111.462
157.017 138.66 111.266
156.584 137.549 110.898
156.173 137.32 110.922
155.979 137.549 111.448
156.086 137.738 111.57
157.227 138.265 111.138
157.025 137.72 110.922
157.458 137.739 111.082
157.225 138.211 111.492
157.571 137.371 111.4
156.021 137.113 111.199
155.953 137.218 111.465
156.043 136.938 111.614
156.014 137.204 111.812
156.074 136.752 111.926
156.299 137.755 111.755
156.453 138.178 111.684
156.389 137.732 111.834
156.742 138.227 111.75
156.213 137.537 111.945
156.39 137.76 112.084
156.494 137.919 112.039
157.667 135.748 114.931
157.974 135.599 114.826
157.561 135.24 114.845
158.095 135.521 114.565
158.03 135.94 114.583
157.6 136.214 114.796
157.295 135.959 114.904
157.016 134.95 114.775
157.287 134.852 114.67
157.919 136.214 114.515
157.8 136.41 114.695
157.779 136.455 114.432
157.53 136.602 114.692
157.975 136.128 114.278
157.676 136.562 114.14
157.651 136.724 114.318
156.863 135.767 114.852
156.692 135.254 114.784
156.348 135.626 114.774
156.47 134.808 114.663
156.923 136.227 114.812
156.026 136.029 114.777
155.921 135.593 114.699
157.502 135.006 114.451
157.829 135.216 114.371
157.529 135.126 114.223
157.951 135.582 114.202
157.037 134.845 114.429
157.304 135.013 114.056
157.529 135.086 114.004
156.974 137.294 114.479
157.009 137.199 114.743
156.681 137.286 114.575
157.009 136.747 114.844
157.26 136.846 114.744
157.17 137.302 114.391
156.988 137.515 114.3
156.482 137.375 114.387
156.355 137.191 114.587
157.437 136.863 114.6
157.382 137.11 114.431
157.531 136.907 114.406
157.316 137.349 114.238
157.579 137.018 114.196
156.834 137.586 114.15
156.586 137.544 114.194
156.678 137.644 114.029
156.331 137.441 114.212
157.029 137.677 114.106
156.734 137.759 113.893
156.561 137.653 113.919
156.215 136.986 114.724
156.607 136.616 114.849
156.113 136.61 114.845
155.964 137.099 114.566
155.64 136.51 114.766
157.812 135.706 112.376
157.549 135.514 112.197
157.673 135.419 112.491
157.293 135.514 112.106
157.415 135.632 111.877
157.801 136.145 112.301
157.88 136 112.552
157.751 135.431 112.665
157.497 135.216 112.524
157.602 135.831 111.684
157.914 136.148 111.989
157.739 136.267 111.6
157.95 135.957 112.746
157.95 135.757 112.792
157.938 136.051 112.862
157.29 135.321 112.452
157.23 135.528 112.309
157.12 135.457 112.435
156.338 135.954 112.519
156.266 135.964 112.661
156.315 135.852 112.705
156.045 135.818 112.715
156.119 136.002 112.605
156.374 136.089 112.276
156.459 135.925 112.328
156.384 135.6 112.717
156.218 135.545 112.809
156.107 136.149 112.388
156.288 136.276 112.25
156.231 136.43 112.268
156.553 135.739 112.407
156.522 135.574 112.589
156.663 135.616 112.509
156.028 135.405 112.868
155.946 135.592 112.829
155.877 135.4 112.957
158.131 136.277 113.684
158.231 135.917 113.707
158.095 136.039 113.855
158.136 135.511 113.659
158.069 135.828 113.509
157.938 136.39 113.513
158.006 136.522 113.698
157.99 136.087 113.999
157.935 135.865 113.963
158.003 136.084 113.36
157.968 136.316 113.377
157.896 136.219 113.224
157.828 136.446 113.81
157.856 136.234 114.015
157.726 136.495 113.989
157.933 135.516 113.965
157.904 135.41 113.81
157.726 135.213 113.906
156.078 134.627 113.865
155.773 134.688 113.94
156.151 134.665 114.151
155.489 134.846 114.028
155.538 134.943 113.744
156.092 134.793 113.628
156.309 134.707 113.767
156.577 134.618 114.334
156.256 134.557 114.445
155.614 134.911 113.546
155.841 134.751 113.484
155.641 134.799 113.324
156.656 134.76 113.941
156.832 134.819 114.211
157.006 134.85 114.054
155.962 134.747 114.549
155.536 134.908 114.327
155.73 135.219 114.538
157.05 137.573 112.049
156.891 137.595 112.104
157.016 137.805 111.93
156.725 137.517 112.158
156.724 137.302 112.248
157.021 137.197 112.155
157.141 137.363 111.991
157.152 138.041 111.727
156.937 138.068 111.821
156.754 137.117 112.32
156.887 137.047 112.284
156.809 137.046 112.428
157.3 137.49 111.805
157.294 137.851 111.648
157.357 137.482 111.581
156.723 137.928 111.917
156.689 137.712 112.11
156.599 137.894 112.072
155.96 137.236 112.457
155.831 137.06 112.406
155.938 137.27 112.261
155.725 136.808 112.391
155.701 136.892 112.609
156.048 137.134 112.718
156.221 137.264 112.581
156.076 137.424 112.134
156.068 137.24 112.125
155.55 136.936 112.697
155.75 137.093 112.797
155.459 137.003 112.813
156.277 137.441 112.426
156.213 137.589 112.185
156.303 137.646 112.224
155.991 137.025 112.057
155.83 136.781 112.213
156.016 136.753 112.111
157.355 137.867 113.694
157.387 137.665 113.711
157.349 137.729 113.894
157.418 137.404 113.699
157.316 137.37 113.501
157.3 137.892 113.499
157.255 138.004 113.668
157.224 137.736 114.03
157.281 137.507 114.056
157.263 137.448 113.314
157.199 137.588 113.261
157.128 137.429 113.093
157.165 138.052 113.788
157.09 137.865 113.923
156.952 137.916 113.829
157.387 137.295 114.057
157.411 137.295 113.859
157.478 137.108 114.03
155.429 137.324 113.959
155.733 137.485 113.93
155.71 137.498 114.121
155.985 137.445 113.789
155.783 137.284 113.631
155.258 137.133 113.751
155.141 137.036 114.016
155.845 137.278 114.375
156.079 137.528 114.219
155.616 137.135 113.472
155.293 137.168 113.526
155.478 137.049 113.347
155.168 136.886 114.317
155.568 137.071 114.503
155.402 136.711 114.587
156.226 137.532 114.081
156.183 137.515 113.891
156.388 137.502 113.915
POLYGONS 1280  5120
3 164 162 163
3 163 44 164
3 162 43 163
3 164 42 162
3 166 165 163
3 163 43 166
3 165 44 163
3 166 14 165
3 168 167 162
3 162 42 168
3 167 43 162
3 168 13 167
3 170 169 164
3 164 44 170
3 169 42 164
3 170 12 169
3 173 171 172
3 172 46 173
3 171 43 172
3 173 45 171
3 167 174 172
3 172 43 167
3 174 46 172
3 167 13 174
3 175 166 171
3 171 45 175
3 166 43 171
3 175 14 166
3 177 176 173
3 173 46 177
3 176 45 173
3 177 4 176
3 180 178 179
3 179 48 180
3 178 42 179
3 180 47 178
3 169 181 179
3 179 42 169
3 181 48 179
3 169 12 181
3 182 168 178
3 178 47 182
3 168 42 178
3 182 13 168
3 184 183 180
3 180 48 184
3 183 47 180
3 184 8 183
3 187 185 186
3 186 50 187
3 185 44 186
3 187 49 185
3 165 188 186
3 186 44 165
3 188 50 186
3 165 14 188
3 189 170 185
3 185 49 189
3 170 44 185
3 189 12 170
3 191 190 187
3 187 50 191
3 190 49 187
3 191 7 190
3 194 192 193
3 193 53 194
3 192 52 193
3 194 51 192
3 196 195 193
3 193 52 196
3 195 53 193
3 196 16 195
3 198 197 192
3 192 51 198
3 197 52 192
3 198 14 197
3 200 199 194
3 194 53 200
3 199 51 194
3 200 15 199
3 203 201 202
3 202 45 203
3 201 52 202
3 203 54 201
3 197 175 202
3 202 52 197
3 175 45 202
3 197 14 175
3 204 196 201
3 201 54 204
3 196 52 201
3 204 16 196
3 176 205 203
3 203 45 176
3 205 54 203
3 176 4 205
3 208 206 207
3 207 55 208
3 206 51 207
3 208 50 206
3 199 209 207
3 207 51 199
3 209 55 207
3 199 15 209
3 188 198 206
3 206 50 188
3 198 51 206
3 188 14 198
3 210 191 208
3 208 55 210
3 191 50 208
3 210 7 191
3 213 211 212
3 212 57 213
3 211 53 212
3 213 56 211
3 195 214 212
3 212 53 195
3 214 57 212
3 195 16 214
3 215 200 211
3 211 56 215
3 200 53 211
3 215 15 200
3 217 216 213
3 213 57 217
3 216 56 213
3 217 9 216
3 220 218 219
3 219 60 220
3 218 59 219
3 220 58 218
3 222 221 219
3 219 59 222
3 221 60 219
3 222 19 221
3 224 223 218
3 218 58 224
3 223 59 218
3 224 18 223
3 226 225 220
3 220 60 226
3 225 58 220
3 226 17 225
3 229 227 228
3 228 62 229
3 227 59 228
3 229 61 227
3 223 230 228
3 228 59 223
3 230 62 228
3 223 18 230
3 231 222 227
3 227 61 231
3 222 59 227
3 231 19 222
3 233 232 229
3 229 62 233
3 232 61 229
3 233 5 232
3 236 234 235
3 235 64 236
3 234 58 235
3 236 63 234
3 225 237 235
3 235 58 225
3 237 64 235
3 225 17 237
3 238 224 234
3 234 63 238
3 224 58 234
3 238 18 224
3 240 239 236
3 236 64 240
3 239 63 236
3 240 6 239
3 243 241 242
3 242 66 243
3 241 60 242
3 243 65 241
3 221 244 242
3 242 60 221
3 244 66 242
3 221 19 244
3 245 226 241
3 241 65 245
3 226 60 241
3 245 17 226
3 247 246 243
3 243 66 247
3 246 65 243
3 247 11 246
3 250 248 249
3 249 69 250
3 248 68 249
3 250 67 248
3 252 251 249
3 249 68 252
3 251 69 249
3 252 18 251
3 254 253 248
3 248 67 254
3 253 68 248
3 254 21 253
3 256 255 250
3 250 69 256
3 255 67 250
3 256 20 255
3 259 257 258
3 258 70 259
3 257 68 258
3 259 62 257
3 253 260 258
3 258 68 253
3 260 70 258
3 253 21 260
3 230 252 257
3 257 62 230
3 252 68 257
3 230 18 252
3 261 233 259
3 259 70 261
3 233 62 259
3 261 5 233
3 264 262 263
3 263 72 264
3 262 67 263
3 264 71 262
3 255 265 263
3 263 67 255
3 265 72 263
3 255 20 265
3 266 254 262
3 262 71 266
3 254 67 262
3 266 21 254
3 268 267 264
3 264 72 268
3 267 71 264
3 268 10 267
3 271 269 270
3 270 63 271
3 269 69 270
3 271 73 269
3 251 238 270
3 270 69 251
3 238 63 270
3 251 18 238
3 272 256 269
3 269 73 272
3 256 69 269
3 272 20 256
3 239 273 271
3 271 63 239
3 273 73 271
3 239 6 273
3 276 274 275
3 275 76 276
3 274 75 275
3 276 74 274
3 278 277 275
3 275 75 278
3 277 76 275
3 278 24 277
3 280 279 274
3 274 74 280
3 279 75 274
3 280 23 279
3 282 281 276
3 276 76 282
3 281 74 276
3 282 22 281
3 285 283 284
3 284 78 285
3 283 75 284
3 285 77 283
3 279 286 284
3 284 75 279
3 286 78 284
3 279 23 286
3 287 278 283
3 283 77 287
3 278 75 283
3 287 24 278
3 289 288 285
3 285 78 289
3 288 77 285
3 289 0 288
3 292 290 291
3 291 80 292
3 290 74 291
3 292 79 290
3 281 293 291
3 291 74 281
3 293 80 291
3 281 22 293
3 294 280 290
3 290 79 294
3 280 74 290
3 294 23 280
3 296 295 292
3 292 80 296
3 295 79 292
3 296 4 295
3 299 297 298
3 298 82 299
3 297 76 298
3 299 81 297
3 277 300 298
3 298 76 277
3 300 82 298
3 277 24 300
3 301 282 297
3 297 81 301
3 282 76 297
3 301 22 282
3 303 302 299
3 299 82 303
3 302 81 299
3 303 3 302
3 306 304 305
3 305 85 306
3 304 84 305
3 306 83 304
3 308 307 305
3 305 84 308
3 307 85 305
3 308 26 307
3 310 309 304
3 304 83 310
3 309 84 304
3 310 24 309
3 312 311 306
3 306 85 312
3 311 83 306
3 312 25 311
3 315 313 314
3 314 77 315
3 313 84 314
3 315 86 313
3 309 287 314
3 314 84 309
3 287 77 314
3 309 24 287
3 316 308 313
3 313 86 316
3 308 84 313
3 316 26 308
3 288 317 315
3 315 77 288
3 317 86 315
3 288 0 317
3 320 318 319
3 319 87 320
3 318 83 319
3 320 82 318
3 311 321 319
3 319 83 311
3 321 87 319
3 311 25 321
3 300 310 318
3 318 82 300
3 310 83 318
3 300 24 310
3 322 303 320
3 320 87 322
3 303 82 320
3 322 3 303
3 325 323 324
3 324 89 325
3 323 85 324
3 325 88 323
3 307 326 324
3 324 85 307
3 326 89 324
3 307 26 326
3 327 312 323
3 323 88 327
3 312 85 323
3 327 25 312
3 329 328 325
3 325 89 329
3 328 88 325
3 329 5 328
3 332 330 331
3 331 92 332
3 330 91 331
3 332 90 330
3 334 333 331
3 331 91 334
3 333 92 331
3 334 29 333
3 336 335 330
3 330 90 336
3 335 91 330
3 336 28 335
3 338 337 332
3 332 92 338
3 337 90 332
3 338 27 337
3 341 339 340
3 340 94 341
3 339 91 340
3 341 93 339
3 335 342 340
3 340 91 335
3 342 94 340
3 335 28 342
3 343 334 339
3 339 93 343
3 334 91 339
3 343 29 334
3 345 344 341
3 341 94 345
3 344 93 341
3 345 2 344
3 348 346 347
3 347 96 348
3 346 90 347
3 348 95 346
3 337 349 347
3 347 90 337
3 349 96 347
3 337 27 349
3 350 336 346
3 346 95 350
3 336 90 346
3 350 28 336
3 352 351 348
3 348 96 352
3 351 95 348
3 352 7 351
3 355 353 354
3 354 98 355
3 353 92 354
3 355 97 353
3 333 356 354
3 354 92 333
3 356 98 354
3 333 29 356
3 357 338 353
3 353 97 357
3 338 92 353
3 357 27 338
3 359 358 355
3 355 98 359
3 358 97 355
3 359 1 358
3 362 360 361
3 361 101 362
3 360 100 361
3 362 99 360
3 364 363 361
3 361 100 364
3 363 101 361
3 364 31 363
3 366 365 360
3 360 99 366
3 365 100 360
3 366 29 365
3 368 367 362
3 362 101 368
3 367 99 362
3 368 30 367
3 371 369 370
3 370 93 371
3 369 100 370
3 371 102 369
3 365 343 370
3 370 100 365
3 343 93 370
3 365 29 343
3 372 364 369
3 369 102 372
3 364 100 369
3 372 31 364
3 344 373 371
3 371 93 344
3 373 102 371
3 344 2 373
3 376 374 375
3 375 103 376
3 374 99 375
3 376 98 374
3 367 377 375
3 375 99 367
3 377 103 375
3 367 30 377
3 356 366 374
3 374 98 356
3 366 99 374
3 356 29 366
3 378 359 376
3 376 103 378
3 359 98 376
3 378 1 359
3 381 379 380
3 380 105 381
3 379 101 380
3 381 104 379
3 363 382 380
3 380 101 363
3 382 105 380
3 363 31 382
3 383 368 379
3 379 104 383
3 368 101 379
3 383 30 368
3 385 384 381
3 381 105 385
3 384 104 381
3 385 6 384
3 388 386 387
3 387 108 388
3 386 107 387
3 388 106 386
3 390 389 387
3 387 107 390
3 389 108 387
3 390 34 389
3 392 391 386
3 386 106 392
3 391 107 386
3 392 33 391
3 394 393 388
3 388 108 394
3 393 106 388
3 394 32 393
3 397 395 396
3 396 110 397
3 395 107 396
3 397 109 395
3 391 398 396
3 396 107 391
3 398 110 396
3 391 33 398
3 399 390 395
3 395 109 399
3 390 107 395
3 399 34 390
3 401 400 397
3 397 110 401
3 400 109 397
3 401 8 400
3 404 402 403
3 403 112 404
3 402 106 403
3 404 111 402
3 393 405 403
3 403 106 393
3 405 112 403
3 393 32 405
3 406 392 402
3 402 111 406
3 392 106 402
3 406 33 392
3 408 407 404
3 404 112 408
3 407 111 404
3 408 0 407
3 411 409 410
3 410 114 411
3 409 108 410
3 411 113 409
3 389 412 410
3 410 108 389
3 412 114 410
3 389 34 412
3 413 394 409
3 409 113 413
3 394 108 409
3 413 32 394
3 415 414 411
3 411 114 415
3 414 113 411
3 415 11 414
3 418 416 417
3 417 117 418
3 416 116 417
3 418 115 416
3 420 419 417
3 417 116 420
3 419 117 417
3 420 36 419
3 422 421 416
3 416 115 422
3 421 116 416
3 422 34 421
3 424 423 418
3 418 117 424
3 423 115 418
3 424 35 423
3 427 425 426
3 426 109 427
3 425 116 426
3 427 118 425
3 421 399 426
3 426 116 421
3 399 109 426
3 421 34 399
3 428 420 425
3 425 118 428
3 420 116 425
3 428 36 420
3 400 429 427
3 427 109 400
3 429 118 427
3 400 8 429
3 432 430 431
3 431 119 432
3 430 115 431
3 432 114 430
3 423 433 431
3 431 115 423
3 433 119 431
3 423 35 433
3 412 422 430
3 430 114 412
3 422 115 430
3 412 34 422
3 434 415 432
3 432 119 434
3 415 114 432
3 434 11 415
3 437 435 436
3 436 121 437
3 435 117 436
3 437 120 435
3 419 438 436
3 436 117 419
3 438 121 436
3 419 36 438
3 439 424 435
3 435 120 439
3 424 117 435
3 439 35 424
3 441 440 437
3 437 121 441
3 440 120 437
3 441 1 440
3 444 442 443
3 443 124 444
3 442 123 443
3 444 122 442
3 446 445 443
3 443 123 446
3 445 124 443
3 446 39 445
3 448 447 442
3 442 122 448
3 447 123 442
3 448 38 447
3 450 449 444
3 444 124 450
3 449 122 444
3 450 37 449
3 453 451 452
3 452 126 453
3 451 123 452
3 453 125 451
3 447 454 452
3 452 123 447
3 454 126 452
3 447 38 454
3 455 446 451
3 451 125 455
3 446 123 451
3 455 39 446
3 457 456 453
3 453 126 457
3 456 125 453
3 457 9 456
3 460 458 459
3 459 128 460
3 458 122 459
3 460 127 458
3 449 461 459
3 459 122 449
3 461 128 459
3 449 37 461
3 462 448 458
3 458 127 462
3 448 122 458
3 462 38 448
3 464 463 460
3 460 128 464
3 463 127 460
3 464 10 463
3 467 465 466
3 466 130 467
3 465 124 466
3 467 129 465
3 445 468 466
3 466 124 445
3 468 130 466
3 445 39 468
3 469 450 465
3 465 129 469
3 450 124 465
3 469 37 450
3 471 470 467
3 467 130 471
3 470 129 467
3 471 3 470
3 474 472 473
3 473 133 474
3 472 132 473
3 474 131 472
3 476 475 473
3 473 132 476
3 475 133 473
3 476 38 475
3 478 477 472
3 472 131 478
3 477 132 472
3 478 41 477
3 480 479 474
3 474 133 480
3 479 131 474
3 480 40 479
3 483 481 482
3 482 134 483
3 481 132 482
3 483 126 481
3 477 484 482
3 482 132 477
3 484 134 482
3 477 41 484
3 454 476 481
3 481 126 454
3 476 132 481
3 454 38 476
3 485 457 483
3 483 134 485
3 457 126 483
3 485 9 457
3 488 486 487
3 487 136 488
3 486 131 487
3 488 135 486
3 479 489 487
3 487 131 479
3 489 136 487
3 479 40 489
3 490 478 486
3 486 135 490
3 478 131 486
3 490 41 478
3 492 491 488
3 488 136 492
3 491 135 488
3 492 2 491
3 495 493 494
3 494 127 495
3 493 133 494
3 495 137 493
3 475 462 494
3 494 133 475
3 462 127 494
3 475 38 462
3 496 480 493
3 493 137 496
3 480 133 493
3 496 40 480
3 463 497 495
3 495 127 463
3 497 137 495
3 463 10 497
3 500 498 499
3 499 140 500
3 498 139 499
3 500 138 498
3 502 501 499
3 499 139 502
3 501 140 499
3 502 33 501
3 504 503 498
3 498 138 504
3 503 139 498
3 504 13 503
3 506 505 500
3 500 140 506
3 505 138 500
3 506 23 505
3 509 507 508
3 508 47 509
3 507 139 508
3 509 110 507
3 503 182 508
3 508 139 503
3 182 47 508
3 503 13 182
3 398 502 507
3 507 110 398
3 502 139 507
3 398 33 502
3 183 401 509
3 509 47 183
3 401 110 509
3 183 8 401
3 512 510 511
3 511 79 512
3 510 138 511
3 512 46 510
3 505 294 511
3 511 138 505
3 294 79 511
3 505 23 294
3 174 504 510
3 510 46 174
3 504 138 510
3 174 13 504
3 295 177 512
3 512 79 295
3 177 46 512
3 295 4 177
3 515 513 514
3 514 111 515
3 513 140 514
3 515 78 513
3 501 406 514
3 514 140 501
3 406 111 514
3 501 33 406
3 286 506 513
3 513 78 286
3 506 140 513
3 286 23 506
3 407 289 515
3 515 111 407
3 289 78 515
3 407 0 289
3 518 516 517
3 517 143 518
3 516 142 517
3 518 141 516
3 520 519 517
3 517 142 520
3 519 143 517
3 520 19 519
3 522 521 516
3 516 141 522
3 521 142 516
3 522 32 521
3 524 523 518
3 518 143 524
3 523 141 518
3 524 26 523
3 527 525 526
3 526 113 527
3 525 142 526
3 527 66 525
3 521 413 526
3 526 142 521
3 413 113 526
3 521 32 413
3 244 520 525
3 525 66 244
3 520 142 525
3 244 19 520
3 414 247 527
3 527 113 414
3 247 66 527
3 414 11 247
3 530 528 529
3 529 86 530
3 528 141 529
3 530 112 528
3 523 316 529
3 529 141 523
3 316 86 529
3 523 26 316
3 405 522 528
3 528 112 405
3 522 141 528
3 405 32 522
3 317 408 530
3 530 86 317
3 408 112 530
3 317 0 408
3 533 531 532
3 532 61 533
3 531 143 532
3 533 89 531
3 519 231 532
3 532 143 519
3 231 61 532
3 519 19 231
3 326 524 531
3 531 89 326
3 524 143 531
3 326 26 524
3 232 329 533
3 533 61 232
3 329 89 533
3 232 5 329
3 536 534 535
3 535 146 536
3 534 145 535
3 536 144 534
3 538 537 535
3 535 145 538
3 537 146 535
3 538 22 537
3 540 539 534
3 534 144 540
3 539 145 534
3 540 16 539
3 542 541 536
3 536 146 542
3 541 144 536
3 542 39 541
3 545 543 544
3 544 54 545
3 543 145 544
3 545 80 543
3 539 204 544
3 544 145 539
3 204 54 544
3 539 16 204
3 293 538 543
3 543 80 293
3 538 145 543
3 293 22 538
3 205 296 545
3 545 54 205
3 296 80 545
3 205 4 296
3 548 546 547
3 547 125 548
3 546 144 547
3 548 57 546
3 541 455 547
3 547 144 541
3 455 125 547
3 541 39 455
3 214 540 546
3 546 57 214
3 540 144 546
3 214 16 540
3 456 217 548
3 548 125 456
3 217 57 548
3 456 9 217
3 551 549 550
3 550 81 551
3 549 146 550
3 551 130 549
3 537 301 550
3 550 146 537
3 301 81 550
3 537 22 301
3 468 542 549
3 549 130 468
3 542 146 549
3 468 39 542
3 302 471 551
3 551 81 302
3 471 130 551
3 302 3 471
3 554 552 553
3 553 149 554
3 552 148 553
3 554 147 552
3 556 555 553
3 553 148 556
3 555 149 553
3 556 21 555
3 558 557 552
3 552 147 558
3 557 148 552
3 558 25 557
3 560 559 554
3 554 149 560
3 559 147 554
3 560 37 559
3 563 561 562
3 562 88 563
3 561 148 562
3 563 70 561
3 557 327 562
3 562 148 557
3 327 88 562
3 557 25 327
3 260 556 561
3 561 70 260
3 556 148 561
3 260 21 556
3 328 261 563
3 563 88 328
3 261 70 563
3 328 5 261
3 566 564 565
3 565 129 566
3 564 147 565
3 566 87 564
3 559 469 565
3 565 147 559
3 469 129 565
3 559 37 469
3 321 558 564
3 564 87 321
3 558 147 564
3 321 25 558
3 470 322 566
3 566 129 470
3 322 87 566
3 470 3 322
3 569 567 568
3 568 71 569
3 567 149 568
3 569 128 567
3 555 266 568
3 568 149 555
3 266 71 568
3 555 21 266
3 461 560 567
3 567 128 461
3 560 149 567
3 461 37 560
3 267 464 569
3 569 71 267
3 464 128 569
3 267 10 464
3 572 570 571
3 571 152 572
3 570 151 571
3 572 150 570
3 574 573 571
3 571 151 574
3 573 152 571
3 574 27 573
3 576 575 570
3 570 150 576
3 575 151 570
3 576 12 575
3 578 577 572
3 572 152 578
3 577 150 572
3 578 36 577
3 581 579 580
3 580 49 581
3 579 151 580
3 581 96 579
3 575 189 580
3 580 151 575
3 189 49 580
3 575 12 189
3 349 574 579
3 579 96 349
3 574 151 579
3 349 27 574
3 190 352 581
3 581 49 190
3 352 96 581
3 190 7 352
3 584 582 583
3 583 118 584
3 582 150 583
3 584 48 582
3 577 428 583
3 583 150 577
3 428 118 583
3 577 36 428
3 181 576 582
3 582 48 181
3 576 150 582
3 181 12 576
3 429 184 584
3 584 118 429
3 184 48 584
3 429 8 184
3 587 585 586
3 586 97 587
3 585 152 586
3 587 121 585
3 573 357 586
3 586 152 573
3 357 97 586
3 573 27 357
3 438 578 585
3 585 121 438
3 578 152 585
3 438 36 578
3 358 441 587
3 587 97 358
3 441 121 587
3 358 1 441
3 590 588 589
3 589 155 590
3 588 154 589
3 590 153 588
3 592 591 589
3 589 154 592
3 591 155 589
3 592 17 591
3 594 593 588
3 588 153 594
3 593 154 588
3 594 30 593
3 596 595 590
3 590 155 596
3 595 153 590
3 596 35 595
3 599 597 598
3 598 104 599
3 597 154 598
3 599 64 597
3 593 383 598
3 598 154 593
3 383 104 598
3 593 30 383
3 237 592 597
3 597 64 237
3 592 154 597
3 237 17 592
3 384 240 599
3 599 104 384
3 240 64 599
3 384 6 240
3 602 600 601
3 601 120 602
3 600 153 601
3 602 103 600
3 595 439 601
3 601 153 595
3 439 120 601
3 595 35 439
3 377 594 600
3 600 103 377
3 594 153 600
3 377 30 594
3 440 378 602
3 602 120 440
3 378 103 602
3 440 1 378
3 605 603 604
3 604 65 605
3 603 155 604
3 605 119 603
3 591 245 604
3 604 155 591
3 245 65 604
3 591 17 245
3 433 596 603
3 603 119 433
3 596 155 603
3 433 35 596
3 246 434 605
3 605 65 246
3 434 119 605
3 246 11 434
3 608 606 607
3 607 158 608
3 606 157 607
3 608 156 606
3 610 609 607
3 607 157 610
3 609 158 607
3 610 15 609
3 612 611 606
3 606 156 612
3 611 157 606
3 612 28 611
3 614 613 608
3 608 158 614
3 613 156 608
3 614 41 613
3 617 615 616
3 616 95 617
3 615 157 616
3 617 55 615
3 611 350 616
3 616 157 611
3 350 95 616
3 611 28 350
3 209 610 615
3 615 55 209
3 610 157 615
3 209 15 610
3 351 210 617
3 617 95 351
3 210 55 617
3 351 7 210
3 620 618 619
3 619 135 620
3 618 156 619
3 620 94 618
3 613 490 619
3 619 156 613
3 490 135 619
3 613 41 490
3 342 612 618
3 618 94 342
3 612 156 618
3 342 28 612
3 491 345 620
3 620 135 491
3 345 94 620
3 491 2 345
3 623 621 622
3 622 56 623
3 621 158 622
3 623 134 621
3 609 215 622
3 622 158 609
3 215 56 622
3 609 15 215
3 484 614 621
3 621 134 484
3 614 158 621
3 484 41 614
3 216 485 623
3 623 56 216
3 485 134 623
3 216 9 485
3 626 624 625
3 625 161 626
3 624 160 625
3 626 159 624
3 628 627 625
3 625 160 628
3 627 161 625
3 628 31 627
3 630 629 624
3 624 159 630
3 629 160 624
3 630 20 629
3 632 631 626
3 626 161 632
3 631 159 626
3 632 40 631
3 635 633 634
3 634 73 635
3 633 160 634
3 635 105 633
3 629 272 634
3 634 160 629
3 272 73 634
3 629 20 272
3 382 628 633
3 633 105 382
3 628 160 633
3 382 31 628
3 273 385 635
3 635 73 273
3 385 105 635
3 273 6 385
3 638 636 637
3 637 137 638
3 636 159 637
3 638 72 636
3 631 496 637
3 637 159 631
3 496 137 637
3 631 40 496
3 265 630 636
3 636 72 265
3 630 159 636
3 265 20 630
3 497 268 638
3 638 137 497
3 268 72 638
3 497 10 268
3 641 639 640
3 640 102 641
3 639 161 640
3 641 136 639
3 627 372 640
3 640 161 627
3 372 102 640
3 627 31 372
3 489 632 639
3 639 136 489
3 632 161 639
3 489 40 632
3 373 492 641
3 641 102 373
3 492 136 641
3 373 2 492
