# vtk DataFile Version 3.0
this file was written using fslvtkio
ASCII
DATASET POLYDATA
POINTS 642 float
137.816 177.898 100.666
91.9316 127.196 122.018
101.18 139.231 88.907
131.693 165.678 78.5117
176.459 144.109 94.6205
94.9716 178.899 81.7895
57.8335 164.829 89.5153
146.21 110.407 112.858
136.069 135.701 116.237
134.674 139.118 82.9883
93.9955 166.771 64.8524
96.6903 160.159 118.457
142.546 119.583 116.804
158.838 138.45 106.706
176.705 117.34 106.88
149.227 119.339 94.4631
168.3 133.518 81.4089
77.5902 163.353 102.118
65.5812 186.454 77.8116
90.7146 175.584 100.716
61.2918 173.606 67.1621
88.883 183.553 63.4211
154.59 157.054 83.4973
148.131 157.956 96.8777
136.554 170.267 89.6091
110.389 173.738 80.2168
115.117 185.999 91.2811
115.212 135.811 103.219
121.343 125.873 100.376
96.7398 141.097 99.8822
83.2023 149.307 103.827
74.8283 150.698 85.1667
116.988 169.889 115.789
146.335 152.922 118.908
119.673 143.386 130.235
91.4266 140.875 129.389
116.516 125.253 130.315
109.029 166.866 72.1767
112.671 150.152 66.315
135.734 150.243 78.9233
87.4888 153.462 75.9112
116.014 139.859 81.5466
154.29 126.129 111.155
174.303 128.761 106.231
162.138 115.697 115.769
185.266 133.249 96.7992
171.376 142.517 103.096
142.194 139.399 104.436
132.755 133.088 108.881
147.618 109.952 117.779
163.702 102.78 115.462
167.901 110.397 101.272
177.452 122.741 93.4127
162.143 121.929 91.4119
174.494 138.993 88.6972
149.582 111.468 104.081
141.965 131.765 91.2498
148.933 134.1 89.8492
73.2613 173.086 88.0221
83.6416 175.883 86.9491
82.7907 170.35 99.3307
95.0473 173.618 89.3379
85.3696 182.175 79.0412
54.8884 175.232 85.5951
69.7545 165.244 93.5956
86.5209 162.249 111.223
91.7526 168.587 109.885
74.1995 181.615 63.0831
75.1853 190.87 66.3428
52.6961 183.455 72.1886
90.3955 182.579 72.7006
91.0144 176.228 61.8391
80.1305 171.348 63.1004
50.2205 167.394 79.8285
159.599 156.944 90.4447
145.628 163.322 95.4691
147.696 164.409 85.2199
135.582 175.893 93.6167
143.336 172.226 98.4814
173.126 153.972 94.7176
165.216 148.824 89.9651
144.749 163.496 79.2998
135.672 172.705 77.0132
124.557 177.296 79.5262
122.999 180.157 89.3178
112.685 183.068 82.9225
127.179 185.173 95.9587
120.956 172.387 77.8342
99.9383 175.993 79.9479
106.121 175.589 89.5397
120.268 128.688 102.03
107.311 127.196 101.582
103.99 134.077 107.668
96.5354 135.21 93.2156
110.567 131.087 95.116
136.925 117.917 106.817
133.226 118.689 111.572
100.693 127.506 118.948
98.0273 134.777 112.637
90.5078 148.087 100.963
81.3085 145.266 89.5204
76.7242 151.577 92.1584
87.4906 142.869 88.4169
82.9714 135.914 117.174
70.681 155.952 96.5507
62.616 157.554 87.0705
132.724 162.735 120.135
135.139 148.325 123.44
120.918 155.894 121.891
131.02 137.107 125.207
142.941 142.045 117.787
143.776 167.044 110.957
129.53 175.817 109.654
108.042 162.21 116.218
106.38 152.502 126.709
105.542 139.811 134.925
121.13 130.872 135.234
102.353 130.056 134.267
128.693 130.282 123.543
93.3676 151.682 124.686
91.1375 132.609 125.719
101.656 125.626 126.767
115.863 158.381 68.5826
125.809 154.415 69.3977
120.948 158.895 76.8587
134.314 143.869 79.6195
124.31 143.702 70.1216
105.174 157.13 72.4921
99.7951 166.716 70.122
119.873 164.035 77.2714
134.849 159.365 76.7579
102.414 144.663 76.5994
113.644 141.525 70.1138
103.621 149.13 68.9517
126.605 139.168 79.5593
108.116 137.788 84.7808
91.0513 142.713 81.2239
91.0702 161.034 70.583
155.344 151.303 98.9052
145.01 147.352 104.743
144.818 157.085 105.54
115.63 179.83 104.242
103.371 173.227 108.484
102.952 182.22 97.0349
150.852 140.811 85.212
163.033 144.532 83.5118
148.241 151.828 80.6559
111.952 177.841 68.9925
103.918 180.72 69.6386
101.209 177.441 65.8498
126.062 126.867 114.053
129.692 117.473 116.522
116.274 128.293 116.096
83.5531 143.473 117.42
77.8562 155.891 105.14
85.4806 152.123 116.092
122.4 129.865 91.4507
135.667 120.704 98.8425
132.245 129.257 90.757
75.1026 160.492 68.479
62.6391 160.553 74.5331
78.3901 148.623 78.8804
165.646 125.071 110.151
170.615 119.359 111.091
159.595 120.35 113.007
173.106 113.555 112.569
181.204 122.236 107.153
166.907 132.755 106.78
158.108 131.679 108.362
149.108 121.742 113.929
152.075 116.486 116.207
185.263 130.73 103.584
174.402 135.801 103.987
183.577 140.171 98.9245
165.029 141.025 102.704
184.344 125.152 99.3199
181.657 141.711 94.6223
177.522 146.847 97.7114
148.754 132.431 106.592
144.548 128.416 109.06
140.237 134.282 106.06
139.033 127.476 111.211
150.251 137.599 105.294
138.767 137.491 110.856
137.685 133.105 114.733
153.906 111.305 119.237
165.587 105.725 120.578
154.316 104.767 118.944
171.862 106.992 112.838
144.496 114.811 116.727
144.68 110.561 115.881
153.063 106.707 112.845
172.759 115.809 97.3918
168.617 121.597 94.0571
165.343 116.49 94.076
166.772 126.334 86.7692
171.694 128.258 89.2519
176.875 118.916 100.128
174.552 110.664 105.403
157.922 113.553 97.8893
156.261 119.63 91.6693
179.186 131.916 87.9133
181.878 126.459 93.7435
183.32 135.132 91.6567
172.666 134.348 86.377
175.65 142.08 90.9715
168.912 104.72 107.905
159.577 109.057 103.435
158.558 107.848 108.346
150.136 115.446 100.165
150.141 109.994 109.189
152.302 126.222 91.7327
155.994 127.473 91.523
146.356 132.018 91.0084
159.275 131.501 88.0058
146.86 124.589 92.4742
137.718 135.656 87.2362
140.702 137.295 87.0196
77.9566 175.757 86.1894
84.5615 173.086 93.1497
80.3377 170.468 92.8376
86.7433 172.124 101.316
91.4073 172.86 94.6847
75.0157 181.051 83.1905
70.6 178.625 82.1628
76.8493 167.726 95.1471
80.8899 166.384 99.6987
91.2596 174.56 88.0988
83.7322 179.901 83.3651
91.0879 178.8 84.257
77.1345 183.262 78.2763
97.7018 172.179 95.4337
97.1722 177.118 86.2124
92.2465 181.116 80.1398
64.6562 175.265 86.1571
71.8217 169.08 91.3782
62.0081 169.847 91.1706
75.4266 163.226 98.1228
59.9385 181.255 80.5884
55.6189 169.692 87.5096
63.0629 164.319 92.5742
84.0816 166.412 104.851
85.9608 169.428 105.418
88.6145 165.457 110.761
89.601 172.92 105.27
82.9528 162.405 105.866
91.2707 161.604 115.743
94.3415 163.956 114.749
70.1463 188.644 62.7066
62.462 189.942 66.1612
62.5495 182.749 66.2131
57.9572 189.295 73.4744
70.9553 188.909 71.561
81.2791 189.241 63.1169
80.0693 186.215 60.2735
68.3847 176.916 65.536
57.5436 177.485 69.6431
79.6709 186.129 73.1641
84.606 186.589 69.5758
86.979 183.541 75.3558
90.383 183.7 67.4112
92.6584 181.049 76.9521
82.1866 181.406 60.4559
77.5231 176.925 62.9299
83.8861 176.189 59.267
72.4297 171.61 65.4633
87.8998 183.469 58.2406
91.4242 171.888 62.5785
88.3598 169.807 63.6922
48.2521 177.006 74.9495
48.8102 182.562 78.4666
50.7649 172.764 82.7617
50.0681 171.733 71.2788
54.5481 167.009 84.4341
153.022 160.648 92.7975
146.054 163.85 90.8021
151.94 159.598 89.2787
142.719 166.832 85.8488
138.867 164.638 94.0092
152.166 162.539 95.7716
160.829 157.287 93.8606
156.823 155.295 88.2398
151.32 160.267 84.7065
134.693 168.071 95.9483
142.915 168.741 95.34
141.979 174.553 94.0409
143.298 166.214 96.9332
131.319 169.849 95.1938
139.287 180.862 94.9994
141.483 175.229 99.7342
166.096 154.776 92.2149
163.627 153.652 88.956
168.405 150.98 92.3202
159.182 151.731 87.4419
165.853 156.75 96.0563
172.811 149.597 95.126
171.039 145.972 92.6719
146.172 164.994 80.4113
142.034 169.587 79.4281
141.334 168.892 77.0949
135.909 172.057 81.5595
149.507 159.834 80.1765
138.429 164.956 78.3656
136.447 171.844 75.3348
124.016 179.4 83.5069
118.565 183.641 84.1242
119.224 182.052 79.6593
115.801 185.244 85.546
119.372 184.072 88.6561
128.006 173.916 91.0203
131.277 175.546 83.1805
118.041 178.049 78.7438
112.296 176.768 82.0597
125.66 185.175 90.3789
128.104 176.35 94.0324
132.983 183.427 91.8403
120.546 187.336 92.5658
132.444 179.027 99.006
130.087 175.956 76.7852
123.873 178.127 75.9995
129.994 175.319 75.1567
114.871 174.635 78.265
127.182 169.141 77.9887
106.576 174.548 83.0272
109.613 183.245 84.7491
102.182 171.768 86.0381
111.912 185.103 88.898
105.774 175.274 79.6719
96.4662 177.509 81.0572
99.4304 173.709 86.149
113.2 127.554 104.694
105.674 131.142 105.312
110.337 129.718 106.757
99.9936 139.498 103.591
101.78 135.614 99.666
112.394 127.118 100.13
120.149 127.508 100.239
116.875 132.992 102.812
106.583 130.061 108.984
102.847 131.322 97.7865
108.789 129.367 97.0965
103.229 132.57 94.9255
115.733 128.462 97.3629
96.017 139.575 95.1671
95.873 135.036 91.0209
105.588 134.086 92.6361
128.293 121.792 105.769
127.184 123.333 108.31
134.337 119.148 108.861
123.4 128.468 108.906
129.771 122.184 103.838
143.177 115.026 109.629
140.865 114.958 113.188
103.376 127.993 114.327
101.899 134.883 110.037
99.2655 129.071 115.569
99.5377 141.406 106.586
103.995 131.48 112.056
96.2644 126.508 120.698
92.8829 128.932 117.542
86.5071 148.148 93.5517
79.1879 147.692 92.261
84.326 149.404 96.9397
75.5692 150.97 88.2014
77.207 146.071 88.6625
89.7201 144.757 92.8732
94.2251 146.199 100.482
86.2447 148.995 102.859
80.9807 153.267 95.1905
82.3496 139.891 91.8534
89.6532 139.728 92.1993
88.8119 136.265 93.1473
80.3071 146.629 84.7863
93.8637 141.51 88.3219
97.1188 142.199 107.467
89.6509 139.549 109.413
91.3098 134.729 113.169
85.333 142.289 111.539
88.3478 131.138 120.686
73.5769 154.945 93.7406
72.394 154.539 89.5866
67.1338 156.575 91.7737
68.8871 154.72 85.4296
76.0406 153.949 98.7098
66.1063 160.843 92.1437
58.9021 161.345 88.5411
134.159 153.929 121.915
128.462 151.127 120.894
126.856 157.72 121.321
120.126 149.35 124.343
128.034 146.266 123.668
142.049 151.245 121.214
140.14 158.731 119.536
125.949 166.464 118.286
119.929 163.675 119.469
133.158 142.972 123.521
139.78 145.78 121.16
136.464 141.498 120.311
145.875 146.172 118.234
126.716 139.809 128.905
134.393 135.662 121.9
136.907 139.698 116.101
138.679 165.779 115.755
132.102 168.548 114.52
137.847 172.008 110.239
123.678 171.696 112.645
144.168 159.697 115.007
141.104 172.072 105.94
133.978 176.188 104.994
115.083 159.729 119.657
114.282 153.507 122.686
109.448 157.71 119.646
112.133 147.184 129.431
111.67 166.442 117.054
101.843 160.647 118.197
102.295 155.982 122.014
113.115 133.706 136.612
112.908 129.055 135.741
104.807 133.578 137.058
110.943 126.476 134.21
119.641 127.794 132.703
120.076 137.475 133.231
111.832 141.591 134.327
98.2962 140.084 133.877
96.948 136.387 131.85
127.464 128.349 131.363
126.675 133.798 131.612
133.343 131.358 128.344
124.624 126.753 127.305
133.415 131.93 120.768
104.834 146.292 130.104
98.9185 145.623 130.389
100.436 151.112 125.356
93.2847 145.551 127.467
95.2171 156.924 121.028
94.2477 133.162 129.594
101.942 128.453 130.248
94.9069 127.951 128.368
106.948 125.507 129.903
90.4027 136.971 128.061
90.7037 127.544 126.034
97.0196 125.527 124.827
118.929 160.082 60.9413
125.234 157.785 73.1835
117.201 161.753 71.0966
125.977 154.288 78.2133
126.231 150.811 78.0964
121.504 153.306 66.0863
115.028 154.298 68.8404
112.08 161.384 72.9007
113.886 162.687 76.8249
128.745 147.8 74.9113
125.579 148.173 66.8523
126.407 145.074 75.2779
117.39 146.919 64.3218
134.885 146.143 81.4401
133.454 141.735 81.6265
127.447 142.582 78.7446
110.642 155.86 71.5065
108.555 159.34 72.3741
105.003 160.403 70.7565
105.626 165.545 70.7628
108.098 152.443 68.7356
98.6814 162.742 67.9677
97.2837 167.445 66.2574
119.912 161.408 77.1489
128.397 158.391 77.1083
127.454 162.334 77.5623
137.032 154.59 77.7017
110.175 165.895 77.2403
127.528 167.09 76.6421
133.405 163.521 77.2977
108.2 140.628 73.7339
106.935 144.381 66.9781
101.741 145.056 72.5178
108.097 153.473 61.6468
112.911 146.988 62.5502
113.084 140.579 77.3866
106.96 141.324 78.5211
95.1982 148.559 75.0436
98.1684 150.926 74.7435
119.619 142.557 67.081
118.478 142.196 73.7658
124.721 142.025 74.7524
121.273 140.067 79.6439
131.152 139.52 81.6535
103.385 143.136 80.1199
94.9377 144.567 78.6552
98.8196 140.733 82.6503
88.5881 148.599 77.2834
111.24 139.095 84.1039
103.412 138.06 86.8677
96.028 140.046 85.4538
97.901 154.432 73.0941
103.26 154.119 68.3841
98.9356 159.362 71.6151
91.1301 156.943 74.0071
93.5191 163.942 67.0838
147.567 149.607 99.7096
144.57 152.135 105.615
146.624 154.139 97.9355
146.624 154.724 112.949
145.782 149.653 113.018
149.16 143.71 103.016
157.358 145.083 102.913
153.022 155.498 96.4561
144.109 157.438 98.4461
144.65 143.916 112.386
142.643 144.211 103.177
141.574 140.232 112.083
164.26 146.665 101.822
164.184 151.233 99.0365
172.474 148.287 100.326
148.709 164.436 102.503
149.485 162.428 109.317
145.87 168.119 105.073
110.258 175.37 107.175
103.594 177.579 103.679
109.563 179.899 100.846
97.5104 178.007 99.6767
95.7879 176.243 103.791
109.707 171.973 113.349
116.602 174.983 110.665
114.877 183.374 97.2586
109.419 182.81 94.7576
96.8428 171.304 109.848
103.944 168.89 114.425
99.2872 165.597 113.924
122.013 177.609 106.691
120.822 182.561 99.313
127.257 180.23 102.973
104.086 183.64 90.8828
100.371 175.989 94.136
100.272 171.235 90.2601
157.199 141.836 84.6953
154.854 148.075 82.7639
148.886 146.851 81.5444
153.217 153.73 81.9544
158.719 150.591 83.3339
167.363 138.789 83.2521
159.911 136.496 85.9381
144.785 146.089 81.1231
143.121 150.991 79.1986
164.7 148.003 85.7608
169.501 142.17 85.4387
169.296 144.259 89.6881
149.751 136.912 87.4628
143.847 142.017 82.4322
140.827 139.887 85.174
141.769 156.228 77.2417
146.211 157.65 79.2907
138.677 159.499 79.0298
108.046 179.309 69.0149
100.952 179.575 66.8233
106.612 176.26 68.4885
95.1456 181.148 62.3802
96.0132 180.742 67.5699
107.759 179.187 73.9825
112.578 176.614 74.2438
109.283 173.941 68.2429
104.469 172.041 69.2286
97.049 181.347 71.1412
101.487 178.658 74.5125
96.2554 179.552 75.6481
116.302 172.621 73.2493
113.192 169.777 74.2885
122.238 170.033 74.435
100.723 172.663 67.9239
95.6478 178.13 61.2509
96.0063 172.64 65.5789
128.085 123.452 113.587
121.269 126.468 111.529
121.792 126.781 116.606
116.813 130.12 109.695
120.996 125.361 109.796
136.99 116.694 118.667
134.443 123.855 112.919
121.806 126.288 123.334
114.696 126.272 124.542
130.871 120.87 112.364
138.084 110.038 120.208
138.673 112.095 117.733
129.078 128.952 110.958
126.738 128.166 119.754
130.808 130.488 116.853
109.638 124.527 125.319
109.19 125.366 120.426
103.464 123.619 124.251
79.9935 149.353 111.574
80.3025 153.148 111.878
85.1767 147.083 117.447
80.9212 158.37 109.086
77.3479 159.297 104.814
80.4755 152.038 104.868
82.3499 145.892 110.945
88.2901 141.868 123.104
87.3571 146.46 123.578
75.5853 159.802 99.1978
74.3798 156.226 100.423
72.1996 160.337 95.4068
84.0146 139.414 117.503
86.1972 137.16 123.517
86.467 134.303 121.642
87.8154 152.147 121.667
85.5696 157.485 113.817
89.6665 157.171 118.093
128.831 124.889 95.0066
135.177 124.451 94.371
126.27 129.05 89.7357
141.346 123.584 93.8729
142.435 119.004 96.884
128.969 123.841 99.6648
122.83 127.682 96.3102
118.604 135.71 85.2256
124.203 135.639 85.1475
143.299 115.904 102.177
136.591 118.837 102.917
142.987 114.289 106.065
116.316 130.08 93.487
115.519 133.923 88.3528
110.124 134.486 90.2839
129.233 134.815 86.0677
136.689 130.556 90.2291
133.633 135.037 85.9906
67.9738 160.668 70.1572
69.7559 155.934 75.3579
75.44 155.865 73.7021
73.2736 150.238 81.4178
68.4217 155.817 80.0169
58.5922 167.495 69.6577
68.3796 167.838 65.6253
81.6029 157.849 72.7486
81.3081 150.905 75.7939
62.5548 158.597 81.3566
54.5783 162.664 77.0265
57.7288 162.512 82.7431
79.1541 164.997 65.42
83.3671 161.802 70.1985
84.7752 165.958 66.5026
84.1646 144.536 80.7854
81.4918 144.116 83.8393
89.0622 141.936 84.8085
POLYGONS 1280  5120
3 164 162 163
3 163 44 164
3 162 43 163
3 164 42 162
3 166 165 163
3 163 43 166
3 165 44 163
3 166 14 165
3 168 167 162
3 162 42 168
3 167 43 162
3 168 13 167
3 170 169 164
3 164 44 170
3 169 42 164
3 170 12 169
3 173 171 172
3 172 46 173
3 171 43 172
3 173 45 171
3 167 174 172
3 172 43 167
3 174 46 172
3 167 13 174
3 175 166 171
3 171 45 175
3 166 43 171
3 175 14 166
3 177 176 173
3 173 46 177
3 176 45 173
3 177 4 176
3 180 178 179
3 179 48 180
3 178 42 179
3 180 47 178
3 169 181 179
3 179 42 169
3 181 48 179
3 169 12 181
3 182 168 178
3 178 47 182
3 168 42 178
3 182 13 168
3 184 183 180
3 180 48 184
3 183 47 180
3 184 8 183
3 187 185 186
3 186 50 187
3 185 44 186
3 187 49 185
3 165 188 186
3 186 44 165
3 188 50 186
3 165 14 188
3 189 170 185
3 185 49 189
3 170 44 185
3 189 12 170
3 191 190 187
3 187 50 191
3 190 49 187
3 191 7 190
3 194 192 193
3 193 53 194
3 192 52 193
3 194 51 192
3 196 195 193
3 193 52 196
3 195 53 193
3 196 16 195
3 198 197 192
3 192 51 198
3 197 52 192
3 198 14 197
3 200 199 194
3 194 53 200
3 199 51 194
3 200 15 199
3 203 201 202
3 202 45 203
3 201 52 202
3 203 54 201
3 197 175 202
3 202 52 197
3 175 45 202
3 197 14 175
3 204 196 201
3 201 54 204
3 196 52 201
3 204 16 196
3 176 205 203
3 203 45 176
3 205 54 203
3 176 4 205
3 208 206 207
3 207 55 208
3 206 51 207
3 208 50 206
3 199 209 207
3 207 51 199
3 209 55 207
3 199 15 209
3 188 198 206
3 206 50 188
3 198 51 206
3 188 14 198
3 210 191 208
3 208 55 210
3 191 50 208
3 210 7 191
3 213 211 212
3 212 57 213
3 211 53 212
3 213 56 211
3 195 214 212
3 212 53 195
3 214 57 212
3 195 16 214
3 215 200 211
3 211 56 215
3 200 53 211
3 215 15 200
3 217 216 213
3 213 57 217
3 216 56 213
3 217 9 216
3 220 218 219
3 219 60 220
3 218 59 219
3 220 58 218
3 222 221 219
3 219 59 222
3 221 60 219
3 222 19 221
3 224 223 218
3 218 58 224
3 223 59 218
3 224 18 223
3 226 225 220
3 220 60 226
3 225 58 220
3 226 17 225
3 229 227 228
3 228 62 229
3 227 59 228
3 229 61 227
3 223 230 228
3 228 59 223
3 230 62 228
3 223 18 230
3 231 222 227
3 227 61 231
3 222 59 227
3 231 19 222
3 233 232 229
3 229 62 233
3 232 61 229
3 233 5 232
3 236 234 235
3 235 64 236
3 234 58 235
3 236 63 234
3 225 237 235
3 235 58 225
3 237 64 235
3 225 17 237
3 238 224 234
3 234 63 238
3 224 58 234
3 238 18 224
3 240 239 236
3 236 64 240
3 239 63 236
3 240 6 239
3 243 241 242
3 242 66 243
3 241 60 242
3 243 65 241
3 221 244 242
3 242 60 221
3 244 66 242
3 221 19 244
3 245 226 241
3 241 65 245
3 226 60 241
3 245 17 226
3 247 246 243
3 243 66 247
3 246 65 243
3 247 11 246
3 250 248 249
3 249 69 250
3 248 68 249
3 250 67 248
3 252 251 249
3 249 68 252
3 251 69 249
3 252 18 251
3 254 253 248
3 248 67 254
3 253 68 248
3 254 21 253
3 256 255 250
3 250 69 256
3 255 67 250
3 256 20 255
3 259 257 258
3 258 70 259
3 257 68 258
3 259 62 257
3 253 260 258
3 258 68 253
3 260 70 258
3 253 21 260
3 230 252 257
3 257 62 230
3 252 68 257
3 230 18 252
3 261 233 259
3 259 70 261
3 233 62 259
3 261 5 233
3 264 262 263
3 263 72 264
3 262 67 263
3 264 71 262
3 255 265 263
3 263 67 255
3 265 72 263
3 255 20 265
3 266 254 262
3 262 71 266
3 254 67 262
3 266 21 254
3 268 267 264
3 264 72 268
3 267 71 264
3 268 10 267
3 271 269 270
3 270 63 271
3 269 69 270
3 271 73 269
3 251 238 270
3 270 69 251
3 238 63 270
3 251 18 238
3 272 256 269
3 269 73 272
3 256 69 269
3 272 20 256
3 239 273 271
3 271 63 239
3 273 73 271
3 239 6 273
3 276 274 275
3 275 76 276
3 274 75 275
3 276 74 274
3 278 277 275
3 275 75 278
3 277 76 275
3 278 24 277
3 280 279 274
3 274 74 280
3 279 75 274
3 280 23 279
3 282 281 276
3 276 76 282
3 281 74 276
3 282 22 281
3 285 283 284
3 284 78 285
3 283 75 284
3 285 77 283
3 279 286 284
3 284 75 279
3 286 78 284
3 279 23 286
3 287 278 283
3 283 77 287
3 278 75 283
3 287 24 278
3 289 288 285
3 285 78 289
3 288 77 285
3 289 0 288
3 292 290 291
3 291 80 292
3 290 74 291
3 292 79 290
3 281 293 291
3 291 74 281
3 293 80 291
3 281 22 293
3 294 280 290
3 290 79 294
3 280 74 290
3 294 23 280
3 296 295 292
3 292 80 296
3 295 79 292
3 296 4 295
3 299 297 298
3 298 82 299
3 297 76 298
3 299 81 297
3 277 300 298
3 298 76 277
3 300 82 298
3 277 24 300
3 301 282 297
3 297 81 301
3 282 76 297
3 301 22 282
3 303 302 299
3 299 82 303
3 302 81 299
3 303 3 302
3 306 304 305
3 305 85 306
3 304 84 305
3 306 83 304
3 308 307 305
3 305 84 308
3 307 85 305
3 308 26 307
3 310 309 304
3 304 83 310
3 309 84 304
3 310 24 309
3 312 311 306
3 306 85 312
3 311 83 306
3 312 25 311
3 315 313 314
3 314 77 315
3 313 84 314
3 315 86 313
3 309 287 314
3 314 84 309
3 287 77 314
3 309 24 287
3 316 308 313
3 313 86 316
3 308 84 313
3 316 26 308
3 288 317 315
3 315 77 288
3 317 86 315
3 288 0 317
3 320 318 319
3 319 87 320
3 318 83 319
3 320 82 318
3 311 321 319
3 319 83 311
3 321 87 319
3 311 25 321
3 300 310 318
3 318 82 300
3 310 83 318
3 300 24 310
3 322 303 320
3 320 87 322
3 303 82 320
3 322 3 303
3 325 323 324
3 324 89 325
3 323 85 324
3 325 88 323
3 307 326 324
3 324 85 307
3 326 89 324
3 307 26 326
3 327 312 323
3 323 88 327
3 312 85 323
3 327 25 312
3 329 328 325
3 325 89 329
3 328 88 325
3 329 5 328
3 332 330 331
3 331 92 332
3 330 91 331
3 332 90 330
3 334 333 331
3 331 91 334
3 333 92 331
3 334 29 333
3 336 335 330
3 330 90 336
3 335 91 330
3 336 28 335
3 338 337 332
3 332 92 338
3 337 90 332
3 338 27 337
3 341 339 340
3 340 94 341
3 339 91 340
3 341 93 339
3 335 342 340
3 340 91 335
3 342 94 340
3 335 28 342
3 343 334 339
3 339 93 343
3 334 91 339
3 343 29 334
3 345 344 341
3 341 94 345
3 344 93 341
3 345 2 344
3 348 346 347
3 347 96 348
3 346 90 347
3 348 95 346
3 337 349 347
3 347 90 337
3 349 96 347
3 337 27 349
3 350 336 346
3 346 95 350
3 336 90 346
3 350 28 336
3 352 351 348
3 348 96 352
3 351 95 348
3 352 7 351
3 355 353 354
3 354 98 355
3 353 92 354
3 355 97 353
3 333 356 354
3 354 92 333
3 356 98 354
3 333 29 356
3 357 338 353
3 353 97 357
3 338 92 353
3 357 27 338
3 359 358 355
3 355 98 359
3 358 97 355
3 359 1 358
3 362 360 361
3 361 101 362
3 360 100 361
3 362 99 360
3 364 363 361
3 361 100 364
3 363 101 361
3 364 31 363
3 366 365 360
3 360 99 366
3 365 100 360
3 366 29 365
3 368 367 362
3 362 101 368
3 367 99 362
3 368 30 367
3 371 369 370
3 370 93 371
3 369 100 370
3 371 102 369
3 365 343 370
3 370 100 365
3 343 93 370
3 365 29 343
3 372 364 369
3 369 102 372
3 364 100 369
3 372 31 364
3 344 373 371
3 371 93 344
3 373 102 371
3 344 2 373
3 376 374 375
3 375 103 376
3 374 99 375
3 376 98 374
3 367 377 375
3 375 99 367
3 377 103 375
3 367 30 377
3 356 366 374
3 374 98 356
3 366 99 374
3 356 29 366
3 378 359 376
3 376 103 378
3 359 98 376
3 378 1 359
3 381 379 380
3 380 105 381
3 379 101 380
3 381 104 379
3 363 382 380
3 380 101 363
3 382 105 380
3 363 31 382
3 383 368 379
3 379 104 383
3 368 101 379
3 383 30 368
3 385 384 381
3 381 105 385
3 384 104 381
3 385 6 384
3 388 386 387
3 387 108 388
3 386 107 387
3 388 106 386
3 390 389 387
3 387 107 390
3 389 108 387
3 390 34 389
3 392 391 386
3 386 106 392
3 391 107 386
3 392 33 391
3 394 393 388
3 388 108 394
3 393 106 388
3 394 32 393
3 397 395 396
3 396 110 397
3 395 107 396
3 397 109 395
3 391 398 396
3 396 107 391
3 398 110 396
3 391 33 398
3 399 390 395
3 395 109 399
3 390 107 395
3 399 34 390
3 401 400 397
3 397 110 401
3 400 109 397
3 401 8 400
3 404 402 403
3 403 112 404
3 402 106 403
3 404 111 402
3 393 405 403
3 403 106 393
3 405 112 403
3 393 32 405
3 406 392 402
3 402 111 406
3 392 106 402
3 406 33 392
3 408 407 404
3 404 112 408
3 407 111 404
3 408 0 407
3 411 409 410
3 410 114 411
3 409 108 410
3 411 113 409
3 389 412 410
3 410 108 389
3 412 114 410
3 389 34 412
3 413 394 409
3 409 113 413
3 394 108 409
3 413 32 394
3 415 414 411
3 411 114 415
3 414 113 411
3 415 11 414
3 418 416 417
3 417 117 418
3 416 116 417
3 418 115 416
3 420 419 417
3 417 116 420
3 419 117 417
3 420 36 419
3 422 421 416
3 416 115 422
3 421 116 416
3 422 34 421
3 424 423 418
3 418 117 424
3 423 115 418
3 424 35 423
3 427 425 426
3 426 109 427
3 425 116 426
3 427 118 425
3 421 399 426
3 426 116 421
3 399 109 426
3 421 34 399
3 428 420 425
3 425 118 428
3 420 116 425
3 428 36 420
3 400 429 427
3 427 109 400
3 429 118 427
3 400 8 429
3 432 430 431
3 431 119 432
3 430 115 431
3 432 114 430
3 423 433 431
3 431 115 423
3 433 119 431
3 423 35 433
3 412 422 430
3 430 114 412
3 422 115 430
3 412 34 422
3 434 415 432
3 432 119 434
3 415 114 432
3 434 11 415
3 437 435 436
3 436 121 437
3 435 117 436
3 437 120 435
3 419 438 436
3 436 117 419
3 438 121 436
3 419 36 438
3 439 424 435
3 435 120 439
3 424 117 435
3 439 35 424
3 441 440 437
3 437 121 441
3 440 120 437
3 441 1 440
3 444 442 443
3 443 124 444
3 442 123 443
3 444 122 442
3 446 445 443
3 443 123 446
3 445 124 443
3 446 39 445
3 448 447 442
3 442 122 448
3 447 123 442
3 448 38 447
3 450 449 444
3 444 124 450
3 449 122 444
3 450 37 449
3 453 451 452
3 452 126 453
3 451 123 452
3 453 125 451
3 447 454 452
3 452 123 447
3 454 126 452
3 447 38 454
3 455 446 451
3 451 125 455
3 446 123 451
3 455 39 446
3 457 456 453
3 453 126 457
3 456 125 453
3 457 9 456
3 460 458 459
3 459 128 460
3 458 122 459
3 460 127 458
3 449 461 459
3 459 122 449
3 461 128 459
3 449 37 461
3 462 448 458
3 458 127 462
3 448 122 458
3 462 38 448
3 464 463 460
3 460 128 464
3 463 127 460
3 464 10 463
3 467 465 466
3 466 130 467
3 465 124 466
3 467 129 465
3 445 468 466
3 466 124 445
3 468 130 466
3 445 39 468
3 469 450 465
3 465 129 469
3 450 124 465
3 469 37 450
3 471 470 467
3 467 130 471
3 470 129 467
3 471 3 470
3 474 472 473
3 473 133 474
3 472 132 473
3 474 131 472
3 476 475 473
3 473 132 476
3 475 133 473
3 476 38 475
3 478 477 472
3 472 131 478
3 477 132 472
3 478 41 477
3 480 479 474
3 474 133 480
3 479 131 474
3 480 40 479
3 483 481 482
3 482 134 483
3 481 132 482
3 483 126 481
3 477 484 482
3 482 132 477
3 484 134 482
3 477 41 484
3 454 476 481
3 481 126 454
3 476 132 481
3 454 38 476
3 485 457 483
3 483 134 485
3 457 126 483
3 485 9 457
3 488 486 487
3 487 136 488
3 486 131 487
3 488 135 486
3 479 489 487
3 487 131 479
3 489 136 487
3 479 40 489
3 490 478 486
3 486 135 490
3 478 131 486
3 490 41 478
3 492 491 488
3 488 136 492
3 491 135 488
3 492 2 491
3 495 493 494
3 494 127 495
3 493 133 494
3 495 137 493
3 475 462 494
3 494 133 475
3 462 127 494
3 475 38 462
3 496 480 493
3 493 137 496
3 480 133 493
3 496 40 480
3 463 497 495
3 495 127 463
3 497 137 495
3 463 10 497
3 500 498 499
3 499 140 500
3 498 139 499
3 500 138 498
3 502 501 499
3 499 139 502
3 501 140 499
3 502 33 501
3 504 503 498
3 498 138 504
3 503 139 498
3 504 13 503
3 506 505 500
3 500 140 506
3 505 138 500
3 506 23 505
3 509 507 508
3 508 47 509
3 507 139 508
3 509 110 507
3 503 182 508
3 508 139 503
3 182 47 508
3 503 13 182
3 398 502 507
3 507 110 398
3 502 139 507
3 398 33 502
3 183 401 509
3 509 47 183
3 401 110 509
3 183 8 401
3 512 510 511
3 511 79 512
3 510 138 511
3 512 46 510
3 505 294 511
3 511 138 505
3 294 79 511
3 505 23 294
3 174 504 510
3 510 46 174
3 504 138 510
3 174 13 504
3 295 177 512
3 512 79 295
3 177 46 512
3 295 4 177
3 515 513 514
3 514 111 515
3 513 140 514
3 515 78 513
3 501 406 514
3 514 140 501
3 406 111 514
3 501 33 406
3 286 506 513
3 513 78 286
3 506 140 513
3 286 23 506
3 407 289 515
3 515 111 407
3 289 78 515
3 407 0 289
3 518 516 517
3 517 143 518
3 516 142 517
3 518 141 516
3 520 519 517
3 517 142 520
3 519 143 517
3 520 19 519
3 522 521 516
3 516 141 522
3 521 142 516
3 522 32 521
3 524 523 518
3 518 143 524
3 523 141 518
3 524 26 523
3 527 525 526
3 526 113 527
3 525 142 526
3 527 66 525
3 521 413 526
3 526 142 521
3 413 113 526
3 521 32 413
3 244 520 525
3 525 66 244
3 520 142 525
3 244 19 520
3 414 247 527
3 527 113 414
3 247 66 527
3 414 11 247
3 530 528 529
3 529 86 530
3 528 141 529
3 530 112 528
3 523 316 529
3 529 141 523
3 316 86 529
3 523 26 316
3 405 522 528
3 528 112 405
3 522 141 528
3 405 32 522
3 317 408 530
3 530 86 317
3 408 112 530
3 317 0 408
3 533 531 532
3 532 61 533
3 531 143 532
3 533 89 531
3 519 231 532
3 532 143 519
3 231 61 532
3 519 19 231
3 326 524 531
3 531 89 326
3 524 143 531
3 326 26 524
3 232 329 533
3 533 61 232
3 329 89 533
3 232 5 329
3 536 534 535
3 535 146 536
3 534 145 535
3 536 144 534
3 538 537 535
3 535 145 538
3 537 146 535
3 538 22 537
3 540 539 534
3 534 144 540
3 539 145 534
3 540 16 539
3 542 541 536
3 536 146 542
3 541 144 536
3 542 39 541
3 545 543 544
3 544 54 545
3 543 145 544
3 545 80 543
3 539 204 544
3 544 145 539
3 204 54 544
3 539 16 204
3 293 538 543
3 543 80 293
3 538 145 543
3 293 22 538
3 205 296 545
3 545 54 205
3 296 80 545
3 205 4 296
3 548 546 547
3 547 125 548
3 546 144 547
3 548 57 546
3 541 455 547
3 547 144 541
3 455 125 547
3 541 39 455
3 214 540 546
3 546 57 214
3 540 144 546
3 214 16 540
3 456 217 548
3 548 125 456
3 217 57 548
3 456 9 217
3 551 549 550
3 550 81 551
3 549 146 550
3 551 130 549
3 537 301 550
3 550 146 537
3 301 81 550
3 537 22 301
3 468 542 549
3 549 130 468
3 542 146 549
3 468 39 542
3 302 471 551
3 551 81 302
3 471 130 551
3 302 3 471
3 554 552 553
3 553 149 554
3 552 148 553
3 554 147 552
3 556 555 553
3 553 148 556
3 555 149 553
3 556 21 555
3 558 557 552
3 552 147 558
3 557 148 552
3 558 25 557
3 560 559 554
3 554 149 560
3 559 147 554
3 560 37 559
3 563 561 562
3 562 88 563
3 561 148 562
3 563 70 561
3 557 327 562
3 562 148 557
3 327 88 562
3 557 25 327
3 260 556 561
3 561 70 260
3 556 148 561
3 260 21 556
3 328 261 563
3 563 88 328
3 261 70 563
3 328 5 261
3 566 564 565
3 565 129 566
3 564 147 565
3 566 87 564
3 559 469 565
3 565 147 559
3 469 129 565
3 559 37 469
3 321 558 564
3 564 87 321
3 558 147 564
3 321 25 558
3 470 322 566
3 566 129 470
3 322 87 566
3 470 3 322
3 569 567 568
3 568 71 569
3 567 149 568
3 569 128 567
3 555 266 568
3 568 149 555
3 266 71 568
3 555 21 266
3 461 560 567
3 567 128 461
3 560 149 567
3 461 37 560
3 267 464 569
3 569 71 267
3 464 128 569
3 267 10 464
3 572 570 571
3 571 152 572
3 570 151 571
3 572 150 570
3 574 573 571
3 571 151 574
3 573 152 571
3 574 27 573
3 576 575 570
3 570 150 576
3 575 151 570
3 576 12 575
3 578 577 572
3 572 152 578
3 577 150 572
3 578 36 577
3 581 579 580
3 580 49 581
3 579 151 580
3 581 96 579
3 575 189 580
3 580 151 575
3 189 49 580
3 575 12 189
3 349 574 579
3 579 96 349
3 574 151 579
3 349 27 574
3 190 352 581
3 581 49 190
3 352 96 581
3 190 7 352
3 584 582 583
3 583 118 584
3 582 150 583
3 584 48 582
3 577 428 583
3 583 150 577
3 428 118 583
3 577 36 428
3 181 576 582
3 582 48 181
3 576 150 582
3 181 12 576
3 429 184 584
3 584 118 429
3 184 48 584
3 429 8 184
3 587 585 586
3 586 97 587
3 585 152 586
3 587 121 585
3 573 357 586
3 586 152 573
3 357 97 586
3 573 27 357
3 438 578 585
3 585 121 438
3 578 152 585
3 438 36 578
3 358 441 587
3 587 97 358
3 441 121 587
3 358 1 441
3 590 588 589
3 589 155 590
3 588 154 589
3 590 153 588
3 592 591 589
3 589 154 592
3 591 155 589
3 592 17 591
3 594 593 588
3 588 153 594
3 593 154 588
3 594 30 593
3 596 595 590
3 590 155 596
3 595 153 590
3 596 35 595
3 599 597 598
3 598 104 599
3 597 154 598
3 599 64 597
3 593 383 598
3 598 154 593
3 383 104 598
3 593 30 383
3 237 592 597
3 597 64 237
3 592 154 597
3 237 17 592
3 384 240 599
3 599 104 384
3 240 64 599
3 384 6 240
3 602 600 601
3 601 120 602
3 600 153 601
3 602 103 600
3 595 439 601
3 601 153 595
3 439 120 601
3 595 35 439
3 377 594 600
3 600 103 377
3 594 153 600
3 377 30 594
3 440 378 602
3 602 120 440
3 378 103 602
3 440 1 378
3 605 603 604
3 604 65 605
3 603 155 604
3 605 119 603
3 591 245 604
3 604 155 591
3 245 65 604
3 591 17 245
3 433 596 603
3 603 119 433
3 596 155 603
3 433 35 596
3 246 434 605
3 605 65 246
3 434 119 605
3 246 11 434
3 608 606 607
3 607 158 608
3 606 157 607
3 608 156 606
3 610 609 607
3 607 157 610
3 609 158 607
3 610 15 609
3 612 611 606
3 606 156 612
3 611 157 606
3 612 28 611
3 614 613 608
3 608 158 614
3 613 156 608
3 614 41 613
3 617 615 616
3 616 95 617
3 615 157 616
3 617 55 615
3 611 350 616
3 616 157 611
3 350 95 616
3 611 28 350
3 209 610 615
3 615 55 209
3 610 157 615
3 209 15 610
3 351 210 617
3 617 95 351
3 210 55 617
3 351 7 210
3 620 618 619
3 619 135 620
3 618 156 619
3 620 94 618
3 613 490 619
3 619 156 613
3 490 135 619
3 613 41 490
3 342 612 618
3 618 94 342
3 612 156 618
3 342 28 612
3 491 345 620
3 620 135 491
3 345 94 620
3 491 2 345
3 623 621 622
3 622 56 623
3 621 158 622
3 623 134 621
3 609 215 622
3 622 158 609
3 215 56 622
3 609 15 215
3 484 614 621
3 621 134 484
3 614 158 621
3 484 41 614
3 216 485 623
3 623 56 216
3 485 134 623
3 216 9 485
3 626 624 625
3 625 161 626
3 624 160 625
3 626 159 624
3 628 627 625
3 625 160 628
3 627 161 625
3 628 31 627
3 630 629 624
3 624 159 630
3 629 160 624
3 630 20 629
3 632 631 626
3 626 161 632
3 631 159 626
3 632 40 631
3 635 633 634
3 634 73 635
3 633 160 634
3 635 105 633
3 629 272 634
3 634 160 629
3 272 73 634
3 629 20 272
3 382 628 633
3 633 105 382
3 628 160 633
3 382 31 628
3 273 385 635
3 635 73 273
3 385 105 635
3 273 6 385
3 638 636 637
3 637 137 638
3 636 159 637
3 638 72 636
3 631 496 637
3 637 159 631
3 496 137 637
3 631 40 496
3 265 630 636
3 636 72 265
3 630 159 636
3 265 20 630
3 497 268 638
3 638 137 497
3 268 72 638
3 497 10 268
3 641 639 640
3 640 102 641
3 639 161 640
3 641 136 639
3 627 372 640
3 640 161 627
3 372 102 640
3 627 31 372
3 489 632 639
3 639 136 489
3 632 161 639
3 489 40 632
3 373 492 641
3 641 102 373
3 492 136 641
3 373 2 492
