# vtk DataFile Version 3.0
this file was written using fslvtkio
ASCII
DATASET POLYDATA
POINTS 642 float
142.817 153.746 130.259
140.657 152.596 130.999
141.696 150.637 130.119
144.158 151.799 129.911
143.146 152.612 131.022
143.304 152.62 128.685
141.807 151.844 129.402
141.718 151.83 131.552
141.928 154.106 131.366
143.361 150.221 130.602
143.013 150.132 129.048
141.488 154.06 129.751
141.516 152.97 131.78
142.463 153.492 131.336
142.276 152.223 131.175
142.396 151.21 130.632
143.234 151.462 130.59
141.299 152.964 129.572
142.435 152.095 128.905
142.402 153.396 129.334
142.224 150.906 128.978
143.337 151.366 128.702
143.574 152.216 130.37
143.286 153.457 130.888
143.759 152.923 129.953
143.984 152.363 129.03
143.054 153.265 129.514
140.699 151.997 131.942
141.468 151.088 131.079
141.086 151.698 130.716
141 152.399 130.123
141.718 151.156 129.669
142.589 154.689 129.6
142.809 154.551 130.927
141.76 154.606 130.509
140.59 153.519 130.415
140.785 153.401 131.54
143.48 150.706 129.421
143.023 149.489 129.983
143.793 150.706 130.314
142.2 150.003 129.536
142.424 150.145 130.233
141.964 153.283 131.513
142.265 152.82 131.303
141.818 152.689 131.413
142.717 152.389 131.102
142.717 152.974 131.199
142.214 153.901 131.431
141.59 153.543 131.645
141.559 152.376 131.686
142.024 152.033 131.346
142.27 151.771 130.867
142.599 151.88 130.693
142.79 151.249 130.53
142.969 152.146 130.642
141.966 151.588 131.056
142.785 150.619 130.554
143.367 150.89 130.631
142.113 152.579 129.4
142.564 152.771 129.202
141.958 153.131 129.452
142.9 152.984 129.046
142.837 152.361 128.791
142.163 151.985 129.167
141.895 152.401 129.606
141.251 153.523 129.502
141.81 153.842 129.34
142.83 151.077 128.786
143.087 151.709 128.883
142.324 151.427 128.826
143.287 152.062 128.786
143.146 150.659 128.761
142.673 150.568 128.969
141.976 151.308 129.057
143.484 152.979 130.686
143.586 153.259 130.502
143.77 152.566 130.242
143.332 153.383 130.154
143.031 153.606 130.544
143.484 153.041 131.146
143.088 152.475 130.578
144.002 151.995 130.158
144.046 152.403 129.874
144.043 152.785 129.443
143.486 153.148 129.632
143.771 153.029 129.018
142.857 153.505 129.96
144.173 152.1 129.445
143.643 152.615 128.723
143.311 153.128 128.987
141.024 151.485 131.627
141.177 151.377 130.938
140.57 151.751 131.406
141.396 151.224 130.374
141.508 150.833 130.577
141.658 151.348 131.32
141.323 151.864 131.871
140.444 152.273 131.427
140.682 152.091 130.786
141.181 152.036 130.353
141.419 151.524 130.181
141.477 151.782 129.917
141.746 150.877 129.871
140.769 152.546 130.534
141.602 152.129 129.821
141.744 151.449 129.487
142.802 154.643 130.227
142.472 155.015 130.67
142.145 155.11 129.921
141.881 154.485 131.056
142.484 154.482 131.168
142.904 154.2 130.521
142.842 154.171 129.954
142.01 154.396 129.66
141.394 154.588 129.942
141.127 154.1 130.491
141.228 154.136 131.027
140.703 153.559 131.014
141.334 153.728 131.386
140.959 153.881 129.993
140.531 153.009 130.682
140.415 152.934 131.311
143.513 150.016 129.652
143.765 149.991 130.243
143.626 150.655 129.782
143.752 150.465 130.57
143.463 149.592 130.554
143.036 149.722 129.346
143.42 150.414 129.034
143.706 151.164 129.636
143.721 151.28 130.032
142.285 149.889 129.994
142.796 149.34 130.496
142.489 149.389 129.646
142.805 150.037 130.443
141.992 150.395 130.237
141.94 150.281 129.833
142.444 149.917 129.214
142.707 153.364 131.021
142.615 154.068 131.263
142.836 153.983 130.837
142.795 153.981 129.595
142.359 154.127 129.403
142.79 153.423 129.363
143.659 151.111 130.504
143.416 151.818 130.523
143.765 151.494 130.265
143.657 151.427 129.222
143.499 151.84 128.828
143.408 151.067 129.036
141.046 153.181 131.871
141.085 152.427 131.838
140.556 152.738 131.799
140.682 152.968 130.208
141.158 152.647 129.82
140.934 153.328 129.92
141.854 150.572 130.552
142.01 151.095 130.774
142.281 150.584 130.491
142.266 150.504 129.273
141.871 150.928 129.25
141.788 150.479 129.567
142.039 153.083 131.361
142.042 152.734 131.371
141.818 152.975 131.478
142.122 152.439 131.383
142.306 152.483 131.321
142.233 153.128 131.258
142.214 153.36 131.409
141.75 153.123 131.666
141.598 152.806 131.555
142.505 152.601 131.259
142.376 152.876 131.185
142.743 152.658 131.219
142.426 153.18 131.159
142.518 152.337 131.166
142.963 152.481 131.064
143.061 152.776 131.215
142.104 153.567 131.505
141.799 153.416 131.615
141.928 153.697 131.556
141.528 153.275 131.75
142.37 153.7 131.449
142.127 153.996 131.449
141.827 153.816 131.537
141.645 152.551 131.506
141.943 152.349 131.448
141.787 152.241 131.537
142.131 152.182 131.258
141.464 152.69 131.716
141.686 152.095 131.601
141.882 151.949 131.425
142.437 151.853 130.82
142.623 151.588 130.603
142.483 151.522 130.643
142.971 151.337 130.567
142.851 151.69 130.611
142.484 152.099 130.981
142.297 152.03 131.061
142.244 151.485 130.628
142.556 151.213 130.559
142.742 152.008 130.643
142.621 152.183 130.927
142.776 152.292 130.839
143.008 151.811 130.569
142.965 152.408 130.772
142.146 151.907 131.088
142.051 151.668 130.872
141.984 151.792 131.165
142.181 151.477 130.759
141.845 151.735 131.251
142.856 150.961 130.651
143.102 151.064 130.678
143.086 150.796 130.632
143.282 151.176 130.623
142.593 150.902 130.663
143.044 150.412 130.511
143.322 150.542 130.57
142.364 152.64 129.286
142.339 152.937 129.338
142.139 152.817 129.426
142.173 153.224 129.389
142.529 153.091 129.312
142.489 152.453 129.04
142.28 152.399 129.163
141.869 152.754 129.539
141.627 153.046 129.47
142.757 152.868 129.14
142.715 152.577 128.95
142.895 152.707 128.846
142.649 152.27 128.864
142.699 153.14 129.26
143.08 152.801 128.811
143.089 152.505 128.74
142.136 152.307 129.268
142.034 152.479 129.544
142.017 152.21 129.399
141.599 152.728 129.611
142.269 152.056 129.022
141.957 151.927 129.276
141.961 152.137 129.544
141.557 153.345 129.413
141.833 153.481 129.351
141.519 153.681 129.402
142.13 153.628 129.328
141.301 153.223 129.502
141.324 153.823 129.586
141.614 153.998 129.5
142.932 151.425 128.864
142.706 151.597 128.83
142.595 151.334 128.815
142.434 151.764 128.853
142.742 151.867 128.827
143.175 151.548 128.782
143.082 151.212 128.772
142.515 151.004 128.836
142.219 151.138 128.833
142.968 152.046 128.869
143.128 151.925 128.841
143.156 152.246 128.835
143.295 151.747 128.734
143.295 152.347 128.756
142.919 150.879 128.711
142.725 150.849 128.886
142.923 150.622 128.903
142.485 150.762 128.974
143.175 150.997 128.684
143.102 150.419 128.883
142.885 150.339 129.007
142.158 151.41 128.921
142.264 151.75 128.989
142.103 151.669 129.144
142.071 151.112 128.973
141.938 151.639 129.229
143.612 153.15 130.638
143.625 152.927 130.377
143.538 152.802 130.459
143.816 152.766 130.133
143.688 153.081 130.264
143.566 153.394 130.72
143.64 153.232 130.861
143.442 152.607 130.463
143.657 152.403 130.306
143.552 153.343 130.328
143.394 153.468 130.56
143.167 153.507 130.382
143.178 153.571 130.753
143.6 153.177 130.059
142.972 153.519 130.245
142.896 153.701 130.412
143.561 153.032 130.925
143.259 152.733 130.628
143.345 152.792 130.884
143.287 152.351 130.476
143.383 153.239 131.016
143.373 152.82 131.173
143.092 152.601 130.777
143.816 152.238 130.174
143.882 152.467 130.057
144.031 152.203 130.038
143.956 152.67 129.907
143.736 152.061 130.274
144.097 151.909 130.043
144.257 152.168 129.869
143.777 152.98 129.518
143.629 153.108 129.334
143.948 152.925 129.213
143.444 153.193 129.244
143.222 153.178 129.521
143.606 153.068 129.779
143.868 152.832 129.702
144.101 152.625 129.221
144.034 152.773 128.991
143.164 153.332 129.756
143.402 153.281 129.884
143.069 153.434 130.027
142.92 153.38 129.708
142.823 153.593 130.102
144.016 152.596 129.671
144.154 152.484 129.413
144.235 152.313 129.669
144.081 152.226 129.222
144.217 151.951 129.666
143.81 152.844 128.817
143.587 153.1 128.96
143.576 152.89 128.755
143.259 153.213 129.211
143.907 152.547 128.85
143.429 152.623 128.678
143.293 152.878 128.821
141.054 151.438 131.252
140.853 151.557 131.153
140.822 151.639 131.578
140.778 151.712 131.033
141.065 151.545 130.846
141.262 151.269 131.077
141.212 151.36 131.349
140.742 151.681 131.901
140.516 151.849 131.72
141.245 151.328 130.673
141.343 151.144 130.793
141.498 151.078 130.52
141.455 150.975 130.839
141.205 151.464 130.578
141.571 150.931 130.292
141.597 150.713 130.355
141.388 151.355 131.497
141.137 151.573 131.814
141.544 151.556 131.655
140.97 151.803 132.047
141.543 151.261 131.199
141.698 151.619 131.397
141.539 151.872 131.677
140.54 151.987 131.422
140.579 151.894 131.04
140.551 152.149 131.115
140.866 151.883 130.829
140.584 152.118 131.711
140.538 152.407 131.219
140.628 152.354 130.916
141.384 151.763 130.335
141.431 151.627 130.054
141.369 151.927 130.164
141.582 151.53 129.817
141.517 151.372 129.901
141.294 151.677 130.475
141.138 151.881 130.542
141.096 152.242 130.246
141.36 152.115 130.083
141.562 151.186 129.992
141.435 151.397 130.282
141.655 151.098 130.147
141.684 151.03 129.764
141.751 150.773 129.996
140.855 152.039 130.564
140.902 152.297 130.435
140.692 152.312 130.666
140.739 152.466 130.293
140.688 152.575 130.769
141.567 151.944 129.843
141.611 151.625 129.682
141.53 151.793 129.594
141.809 151.316 129.582
141.338 152.249 129.967
141.78 151.999 129.625
141.752 151.64 129.432
142.734 154.982 130.398
142.312 155.094 130.356
142.575 155.046 130.066
142.037 154.869 130.279
142.112 154.813 130.597
142.767 154.847 130.785
142.766 154.571 130.528
142.716 154.766 129.955
142.438 154.957 129.752
142.284 154.74 130.868
142.628 154.816 130.994
142.253 154.513 131.067
142.692 154.546 131.081
141.831 154.597 130.833
141.854 154.295 131.233
142.197 154.298 131.306
142.825 154.406 130.379
142.848 154.42 130.104
142.916 154.173 130.205
142.79 154.437 129.838
142.843 154.383 130.693
142.808 153.994 130.391
142.779 153.927 130.149
142.079 154.833 129.701
141.788 154.853 129.951
141.711 154.579 129.732
141.678 154.578 130.253
142.314 154.59 129.624
141.788 154.224 129.729
141.402 154.301 129.807
141.272 154.126 130.768
140.964 153.846 131.041
140.94 153.835 130.729
140.71 153.518 131.288
141.02 153.787 131.291
141.513 154.396 130.761
141.478 154.328 130.502
140.764 153.804 130.463
140.691 153.571 130.749
141.285 153.985 131.271
141.534 154.384 131.06
141.58 154.174 131.253
141.116 153.591 131.424
141.623 153.905 131.398
141.323 154.333 130.266
140.941 154.04 130.251
141.071 154.259 129.977
140.667 153.738 130.185
141.125 154.001 129.821
140.608 153.292 130.907
140.562 153.295 131.17
140.466 153.033 131.022
140.447 153.188 131.484
140.519 153.337 130.619
140.598 152.817 130.836
140.513 152.756 131.119
143.592 150.004 129.921
143.8 150.333 130.061
143.678 150.336 129.749
143.728 150.592 130.065
143.862 150.364 130.301
143.386 149.702 130.107
143.31 149.735 129.788
143.606 150.363 129.556
143.604 150.663 129.586
143.779 150.195 130.418
143.521 149.753 130.346
143.676 149.998 130.552
143.174 149.482 130.271
143.779 150.545 130.458
143.511 150.306 130.63
143.494 149.943 130.661
143.314 149.875 129.494
143.447 150.261 129.319
143.268 150.041 129.154
143.469 150.519 129.312
142.985 149.595 129.633
142.986 149.941 129.153
143.251 150.27 128.962
143.577 150.909 129.721
143.623 150.855 129.916
143.703 151.166 129.868
143.717 150.949 130.124
143.493 150.893 129.525
144.004 151.57 129.805
143.904 151.528 129.991
142.461 149.622 130.179
142.54 149.269 130.105
142.346 149.568 129.908
142.763 149.363 129.807
142.894 149.312 130.251
142.532 149.667 130.396
142.445 149.923 130.186
142.262 149.909 129.75
142.313 149.629 129.581
143.101 149.419 130.5
142.819 149.519 130.736
143.166 149.742 130.707
142.592 150.012 130.338
143.143 150.134 130.546
142.283 150.212 130.131
142.194 150.138 129.926
142.065 150.363 130.087
142.077 150.094 129.678
142.205 150.216 130.217
141.788 150.498 130.19
141.819 150.449 129.977
142.432 149.577 129.375
142.727 149.54 129.435
142.716 149.736 129.219
142.341 149.952 129.402
142.679 149.996 129.093
142.636 153.733 131.122
142.731 154.013 131.048
142.745 153.699 130.96
142.869 154.273 130.922
142.773 154.384 131.133
142.562 153.747 131.299
142.523 153.378 131.136
142.942 153.427 130.913
142.987 153.68 130.847
142.514 154.273 131.237
142.396 153.918 131.314
142.3 154.132 131.316
142.734 153.169 131.141
143.088 153.192 131.097
143.129 152.994 131.214
142.83 153.825 130.687
142.776 154.156 130.676
142.839 153.924 130.534
142.604 154.115 129.413
142.598 153.725 129.422
142.753 153.679 129.52
142.629 153.413 129.296
142.398 153.741 129.35
142.462 154.462 129.48
142.718 154.361 129.611
142.867 153.505 129.635
142.927 153.316 129.459
142.072 153.933 129.319
142.201 154.294 129.532
141.922 154.114 129.485
142.839 154.132 129.798
142.793 153.683 129.816
142.741 153.768 130.034
143.07 153.206 129.201
142.904 153.174 129.262
143.092 153.032 129
143.546 151.414 130.535
143.622 151.618 130.396
143.66 151.281 130.361
143.691 151.828 130.315
143.514 152.003 130.434
143.283 151.601 130.534
143.468 151.29 130.584
143.708 150.894 130.369
143.784 151.105 130.227
143.266 152.213 130.479
143.165 152.017 130.542
143.08 152.36 130.615
143.474 150.988 130.524
143.699 150.743 130.473
143.533 150.643 130.523
143.809 151.375 130.144
143.82 151.77 130.189
143.904 151.68 130.058
143.649 151.685 128.983
143.459 151.443 128.943
143.451 151.211 129.186
143.438 151.234 128.77
143.427 151.658 128.816
143.78 152.105 128.89
143.914 151.921 129.089
143.45 150.968 129.396
143.416 150.842 129.245
143.432 151.932 128.806
143.643 152.285 128.746
143.458 152.374 128.687
143.94 151.844 129.266
143.632 151.319 129.443
143.986 151.694 129.585
143.435 150.752 129.041
143.302 150.972 128.905
143.342 150.566 128.845
140.982 152.863 131.756
140.873 152.696 131.789
140.833 153 131.838
140.628 152.387 131.847
140.936 152.182 131.916
141.27 152.643 131.787
141.251 153.064 131.815
140.951 153.314 131.728
140.522 153.127 131.804
141.176 152.073 131.927
141.289 152.372 131.717
141.515 152.054 131.74
141.276 153.267 131.776
141.119 153.408 131.623
141.432 153.598 131.625
140.449 152.88 131.587
140.502 152.445 131.599
140.377 152.629 131.265
140.965 152.836 129.994
140.996 152.981 129.841
140.756 153.152 130.064
141.04 153.08 129.684
141.241 152.793 129.707
141.111 152.495 129.909
140.854 152.649 130.105
140.471 153.256 130.302
140.618 153.473 130.093
141.516 152.553 129.691
141.44 152.384 129.81
141.812 152.25 129.704
140.731 152.725 130.321
140.545 153.04 130.436
140.718 152.745 130.571
140.926 153.609 129.95
141.067 153.372 129.642
141.114 153.696 129.729
141.928 150.824 130.79
142.197 150.912 130.682
142.095 150.63 130.481
142.393 150.949 130.652
142.166 151.189 130.655
141.777 151.031 130.974
141.66 150.823 130.822
142.108 150.425 130.29
142.301 150.349 130.25
142.024 151.348 130.853
141.814 151.231 131.032
141.838 151.463 131.153
141.661 150.711 130.602
141.902 150.477 130.35
141.739 150.617 130.366
142.509 150.182 130.394
142.593 150.514 130.647
142.778 150.234 130.494
142.028 150.693 129.234
141.855 150.72 129.416
141.976 150.45 129.391
141.791 150.835 129.562
141.775 150.986 129.456
142.088 150.925 129.12
142.236 150.702 129.113
142.238 150.223 129.394
142.02 150.23 129.556
141.761 151.209 129.35
141.931 151.113 129.136
141.864 151.42 129.253
142.442 150.565 129.075
142.361 150.205 129.212
142.568 150.27 129.039
141.877 150.354 129.684
141.795 150.71 129.704
141.779 150.537 129.842
POLYGONS 1280  5120
3 164 162 163
3 163 44 164
3 162 43 163
3 164 42 162
3 166 165 163
3 163 43 166
3 165 44 163
3 166 14 165
3 168 167 162
3 162 42 168
3 167 43 162
3 168 13 167
3 170 169 164
3 164 44 170
3 169 42 164
3 170 12 169
3 173 171 172
3 172 46 173
3 171 43 172
3 173 45 171
3 167 174 172
3 172 43 167
3 174 46 172
3 167 13 174
3 175 166 171
3 171 45 175
3 166 43 171
3 175 14 166
3 177 176 173
3 173 46 177
3 176 45 173
3 177 4 176
3 180 178 179
3 179 48 180
3 178 42 179
3 180 47 178
3 169 181 179
3 179 42 169
3 181 48 179
3 169 12 181
3 182 168 178
3 178 47 182
3 168 42 178
3 182 13 168
3 184 183 180
3 180 48 184
3 183 47 180
3 184 8 183
3 187 185 186
3 186 50 187
3 185 44 186
3 187 49 185
3 165 188 186
3 186 44 165
3 188 50 186
3 165 14 188
3 189 170 185
3 185 49 189
3 170 44 185
3 189 12 170
3 191 190 187
3 187 50 191
3 190 49 187
3 191 7 190
3 194 192 193
3 193 53 194
3 192 52 193
3 194 51 192
3 196 195 193
3 193 52 196
3 195 53 193
3 196 16 195
3 198 197 192
3 192 51 198
3 197 52 192
3 198 14 197
3 200 199 194
3 194 53 200
3 199 51 194
3 200 15 199
3 203 201 202
3 202 45 203
3 201 52 202
3 203 54 201
3 197 175 202
3 202 52 197
3 175 45 202
3 197 14 175
3 204 196 201
3 201 54 204
3 196 52 201
3 204 16 196
3 176 205 203
3 203 45 176
3 205 54 203
3 176 4 205
3 208 206 207
3 207 55 208
3 206 51 207
3 208 50 206
3 199 209 207
3 207 51 199
3 209 55 207
3 199 15 209
3 188 198 206
3 206 50 188
3 198 51 206
3 188 14 198
3 210 191 208
3 208 55 210
3 191 50 208
3 210 7 191
3 213 211 212
3 212 57 213
3 211 53 212
3 213 56 211
3 195 214 212
3 212 53 195
3 214 57 212
3 195 16 214
3 215 200 211
3 211 56 215
3 200 53 211
3 215 15 200
3 217 216 213
3 213 57 217
3 216 56 213
3 217 9 216
3 220 218 219
3 219 60 220
3 218 59 219
3 220 58 218
3 222 221 219
3 219 59 222
3 221 60 219
3 222 19 221
3 224 223 218
3 218 58 224
3 223 59 218
3 224 18 223
3 226 225 220
3 220 60 226
3 225 58 220
3 226 17 225
3 229 227 228
3 228 62 229
3 227 59 228
3 229 61 227
3 223 230 228
3 228 59 223
3 230 62 228
3 223 18 230
3 231 222 227
3 227 61 231
3 222 59 227
3 231 19 222
3 233 232 229
3 229 62 233
3 232 61 229
3 233 5 232
3 236 234 235
3 235 64 236
3 234 58 235
3 236 63 234
3 225 237 235
3 235 58 225
3 237 64 235
3 225 17 237
3 238 224 234
3 234 63 238
3 224 58 234
3 238 18 224
3 240 239 236
3 236 64 240
3 239 63 236
3 240 6 239
3 243 241 242
3 242 66 243
3 241 60 242
3 243 65 241
3 221 244 242
3 242 60 221
3 244 66 242
3 221 19 244
3 245 226 241
3 241 65 245
3 226 60 241
3 245 17 226
3 247 246 243
3 243 66 247
3 246 65 243
3 247 11 246
3 250 248 249
3 249 69 250
3 248 68 249
3 250 67 248
3 252 251 249
3 249 68 252
3 251 69 249
3 252 18 251
3 254 253 248
3 248 67 254
3 253 68 248
3 254 21 253
3 256 255 250
3 250 69 256
3 255 67 250
3 256 20 255
3 259 257 258
3 258 70 259
3 257 68 258
3 259 62 257
3 253 260 258
3 258 68 253
3 260 70 258
3 253 21 260
3 230 252 257
3 257 62 230
3 252 68 257
3 230 18 252
3 261 233 259
3 259 70 261
3 233 62 259
3 261 5 233
3 264 262 263
3 263 72 264
3 262 67 263
3 264 71 262
3 255 265 263
3 263 67 255
3 265 72 263
3 255 20 265
3 266 254 262
3 262 71 266
3 254 67 262
3 266 21 254
3 268 267 264
3 264 72 268
3 267 71 264
3 268 10 267
3 271 269 270
3 270 63 271
3 269 69 270
3 271 73 269
3 251 238 270
3 270 69 251
3 238 63 270
3 251 18 238
3 272 256 269
3 269 73 272
3 256 69 269
3 272 20 256
3 239 273 271
3 271 63 239
3 273 73 271
3 239 6 273
3 276 274 275
3 275 76 276
3 274 75 275
3 276 74 274
3 278 277 275
3 275 75 278
3 277 76 275
3 278 24 277
3 280 279 274
3 274 74 280
3 279 75 274
3 280 23 279
3 282 281 276
3 276 76 282
3 281 74 276
3 282 22 281
3 285 283 284
3 284 78 285
3 283 75 284
3 285 77 283
3 279 286 284
3 284 75 279
3 286 78 284
3 279 23 286
3 287 278 283
3 283 77 287
3 278 75 283
3 287 24 278
3 289 288 285
3 285 78 289
3 288 77 285
3 289 0 288
3 292 290 291
3 291 80 292
3 290 74 291
3 292 79 290
3 281 293 291
3 291 74 281
3 293 80 291
3 281 22 293
3 294 280 290
3 290 79 294
3 280 74 290
3 294 23 280
3 296 295 292
3 292 80 296
3 295 79 292
3 296 4 295
3 299 297 298
3 298 82 299
3 297 76 298
3 299 81 297
3 277 300 298
3 298 76 277
3 300 82 298
3 277 24 300
3 301 282 297
3 297 81 301
3 282 76 297
3 301 22 282
3 303 302 299
3 299 82 303
3 302 81 299
3 303 3 302
3 306 304 305
3 305 85 306
3 304 84 305
3 306 83 304
3 308 307 305
3 305 84 308
3 307 85 305
3 308 26 307
3 310 309 304
3 304 83 310
3 309 84 304
3 310 24 309
3 312 311 306
3 306 85 312
3 311 83 306
3 312 25 311
3 315 313 314
3 314 77 315
3 313 84 314
3 315 86 313
3 309 287 314
3 314 84 309
3 287 77 314
3 309 24 287
3 316 308 313
3 313 86 316
3 308 84 313
3 316 26 308
3 288 317 315
3 315 77 288
3 317 86 315
3 288 0 317
3 320 318 319
3 319 87 320
3 318 83 319
3 320 82 318
3 311 321 319
3 319 83 311
3 321 87 319
3 311 25 321
3 300 310 318
3 318 82 300
3 310 83 318
3 300 24 310
3 322 303 320
3 320 87 322
3 303 82 320
3 322 3 303
3 325 323 324
3 324 89 325
3 323 85 324
3 325 88 323
3 307 326 324
3 324 85 307
3 326 89 324
3 307 26 326
3 327 312 323
3 323 88 327
3 312 85 323
3 327 25 312
3 329 328 325
3 325 89 329
3 328 88 325
3 329 5 328
3 332 330 331
3 331 92 332
3 330 91 331
3 332 90 330
3 334 333 331
3 331 91 334
3 333 92 331
3 334 29 333
3 336 335 330
3 330 90 336
3 335 91 330
3 336 28 335
3 338 337 332
3 332 92 338
3 337 90 332
3 338 27 337
3 341 339 340
3 340 94 341
3 339 91 340
3 341 93 339
3 335 342 340
3 340 91 335
3 342 94 340
3 335 28 342
3 343 334 339
3 339 93 343
3 334 91 339
3 343 29 334
3 345 344 341
3 341 94 345
3 344 93 341
3 345 2 344
3 348 346 347
3 347 96 348
3 346 90 347
3 348 95 346
3 337 349 347
3 347 90 337
3 349 96 347
3 337 27 349
3 350 336 346
3 346 95 350
3 336 90 346
3 350 28 336
3 352 351 348
3 348 96 352
3 351 95 348
3 352 7 351
3 355 353 354
3 354 98 355
3 353 92 354
3 355 97 353
3 333 356 354
3 354 92 333
3 356 98 354
3 333 29 356
3 357 338 353
3 353 97 357
3 338 92 353
3 357 27 338
3 359 358 355
3 355 98 359
3 358 97 355
3 359 1 358
3 362 360 361
3 361 101 362
3 360 100 361
3 362 99 360
3 364 363 361
3 361 100 364
3 363 101 361
3 364 31 363
3 366 365 360
3 360 99 366
3 365 100 360
3 366 29 365
3 368 367 362
3 362 101 368
3 367 99 362
3 368 30 367
3 371 369 370
3 370 93 371
3 369 100 370
3 371 102 369
3 365 343 370
3 370 100 365
3 343 93 370
3 365 29 343
3 372 364 369
3 369 102 372
3 364 100 369
3 372 31 364
3 344 373 371
3 371 93 344
3 373 102 371
3 344 2 373
3 376 374 375
3 375 103 376
3 374 99 375
3 376 98 374
3 367 377 375
3 375 99 367
3 377 103 375
3 367 30 377
3 356 366 374
3 374 98 356
3 366 99 374
3 356 29 366
3 378 359 376
3 376 103 378
3 359 98 376
3 378 1 359
3 381 379 380
3 380 105 381
3 379 101 380
3 381 104 379
3 363 382 380
3 380 101 363
3 382 105 380
3 363 31 382
3 383 368 379
3 379 104 383
3 368 101 379
3 383 30 368
3 385 384 381
3 381 105 385
3 384 104 381
3 385 6 384
3 388 386 387
3 387 108 388
3 386 107 387
3 388 106 386
3 390 389 387
3 387 107 390
3 389 108 387
3 390 34 389
3 392 391 386
3 386 106 392
3 391 107 386
3 392 33 391
3 394 393 388
3 388 108 394
3 393 106 388
3 394 32 393
3 397 395 396
3 396 110 397
3 395 107 396
3 397 109 395
3 391 398 396
3 396 107 391
3 398 110 396
3 391 33 398
3 399 390 395
3 395 109 399
3 390 107 395
3 399 34 390
3 401 400 397
3 397 110 401
3 400 109 397
3 401 8 400
3 404 402 403
3 403 112 404
3 402 106 403
3 404 111 402
3 393 405 403
3 403 106 393
3 405 112 403
3 393 32 405
3 406 392 402
3 402 111 406
3 392 106 402
3 406 33 392
3 408 407 404
3 404 112 408
3 407 111 404
3 408 0 407
3 411 409 410
3 410 114 411
3 409 108 410
3 411 113 409
3 389 412 410
3 410 108 389
3 412 114 410
3 389 34 412
3 413 394 409
3 409 113 413
3 394 108 409
3 413 32 394
3 415 414 411
3 411 114 415
3 414 113 411
3 415 11 414
3 418 416 417
3 417 117 418
3 416 116 417
3 418 115 416
3 420 419 417
3 417 116 420
3 419 117 417
3 420 36 419
3 422 421 416
3 416 115 422
3 421 116 416
3 422 34 421
3 424 423 418
3 418 117 424
3 423 115 418
3 424 35 423
3 427 425 426
3 426 109 427
3 425 116 426
3 427 118 425
3 421 399 426
3 426 116 421
3 399 109 426
3 421 34 399
3 428 420 425
3 425 118 428
3 420 116 425
3 428 36 420
3 400 429 427
3 427 109 400
3 429 118 427
3 400 8 429
3 432 430 431
3 431 119 432
3 430 115 431
3 432 114 430
3 423 433 431
3 431 115 423
3 433 119 431
3 423 35 433
3 412 422 430
3 430 114 412
3 422 115 430
3 412 34 422
3 434 415 432
3 432 119 434
3 415 114 432
3 434 11 415
3 437 435 436
3 436 121 437
3 435 117 436
3 437 120 435
3 419 438 436
3 436 117 419
3 438 121 436
3 419 36 438
3 439 424 435
3 435 120 439
3 424 117 435
3 439 35 424
3 441 440 437
3 437 121 441
3 440 120 437
3 441 1 440
3 444 442 443
3 443 124 444
3 442 123 443
3 444 122 442
3 446 445 443
3 443 123 446
3 445 124 443
3 446 39 445
3 448 447 442
3 442 122 448
3 447 123 442
3 448 38 447
3 450 449 444
3 444 124 450
3 449 122 444
3 450 37 449
3 453 451 452
3 452 126 453
3 451 123 452
3 453 125 451
3 447 454 452
3 452 123 447
3 454 126 452
3 447 38 454
3 455 446 451
3 451 125 455
3 446 123 451
3 455 39 446
3 457 456 453
3 453 126 457
3 456 125 453
3 457 9 456
3 460 458 459
3 459 128 460
3 458 122 459
3 460 127 458
3 449 461 459
3 459 122 449
3 461 128 459
3 449 37 461
3 462 448 458
3 458 127 462
3 448 122 458
3 462 38 448
3 464 463 460
3 460 128 464
3 463 127 460
3 464 10 463
3 467 465 466
3 466 130 467
3 465 124 466
3 467 129 465
3 445 468 466
3 466 124 445
3 468 130 466
3 445 39 468
3 469 450 465
3 465 129 469
3 450 124 465
3 469 37 450
3 471 470 467
3 467 130 471
3 470 129 467
3 471 3 470
3 474 472 473
3 473 133 474
3 472 132 473
3 474 131 472
3 476 475 473
3 473 132 476
3 475 133 473
3 476 38 475
3 478 477 472
3 472 131 478
3 477 132 472
3 478 41 477
3 480 479 474
3 474 133 480
3 479 131 474
3 480 40 479
3 483 481 482
3 482 134 483
3 481 132 482
3 483 126 481
3 477 484 482
3 482 132 477
3 484 134 482
3 477 41 484
3 454 476 481
3 481 126 454
3 476 132 481
3 454 38 476
3 485 457 483
3 483 134 485
3 457 126 483
3 485 9 457
3 488 486 487
3 487 136 488
3 486 131 487
3 488 135 486
3 479 489 487
3 487 131 479
3 489 136 487
3 479 40 489
3 490 478 486
3 486 135 490
3 478 131 486
3 490 41 478
3 492 491 488
3 488 136 492
3 491 135 488
3 492 2 491
3 495 493 494
3 494 127 495
3 493 133 494
3 495 137 493
3 475 462 494
3 494 133 475
3 462 127 494
3 475 38 462
3 496 480 493
3 493 137 496
3 480 133 493
3 496 40 480
3 463 497 495
3 495 127 463
3 497 137 495
3 463 10 497
3 500 498 499
3 499 140 500
3 498 139 499
3 500 138 498
3 502 501 499
3 499 139 502
3 501 140 499
3 502 33 501
3 504 503 498
3 498 138 504
3 503 139 498
3 504 13 503
3 506 505 500
3 500 140 506
3 505 138 500
3 506 23 505
3 509 507 508
3 508 47 509
3 507 139 508
3 509 110 507
3 503 182 508
3 508 139 503
3 182 47 508
3 503 13 182
3 398 502 507
3 507 110 398
3 502 139 507
3 398 33 502
3 183 401 509
3 509 47 183
3 401 110 509
3 183 8 401
3 512 510 511
3 511 79 512
3 510 138 511
3 512 46 510
3 505 294 511
3 511 138 505
3 294 79 511
3 505 23 294
3 174 504 510
3 510 46 174
3 504 138 510
3 174 13 504
3 295 177 512
3 512 79 295
3 177 46 512
3 295 4 177
3 515 513 514
3 514 111 515
3 513 140 514
3 515 78 513
3 501 406 514
3 514 140 501
3 406 111 514
3 501 33 406
3 286 506 513
3 513 78 286
3 506 140 513
3 286 23 506
3 407 289 515
3 515 111 407
3 289 78 515
3 407 0 289
3 518 516 517
3 517 143 518
3 516 142 517
3 518 141 516
3 520 519 517
3 517 142 520
3 519 143 517
3 520 19 519
3 522 521 516
3 516 141 522
3 521 142 516
3 522 32 521
3 524 523 518
3 518 143 524
3 523 141 518
3 524 26 523
3 527 525 526
3 526 113 527
3 525 142 526
3 527 66 525
3 521 413 526
3 526 142 521
3 413 113 526
3 521 32 413
3 244 520 525
3 525 66 244
3 520 142 525
3 244 19 520
3 414 247 527
3 527 113 414
3 247 66 527
3 414 11 247
3 530 528 529
3 529 86 530
3 528 141 529
3 530 112 528
3 523 316 529
3 529 141 523
3 316 86 529
3 523 26 316
3 405 522 528
3 528 112 405
3 522 141 528
3 405 32 522
3 317 408 530
3 530 86 317
3 408 112 530
3 317 0 408
3 533 531 532
3 532 61 533
3 531 143 532
3 533 89 531
3 519 231 532
3 532 143 519
3 231 61 532
3 519 19 231
3 326 524 531
3 531 89 326
3 524 143 531
3 326 26 524
3 232 329 533
3 533 61 232
3 329 89 533
3 232 5 329
3 536 534 535
3 535 146 536
3 534 145 535
3 536 144 534
3 538 537 535
3 535 145 538
3 537 146 535
3 538 22 537
3 540 539 534
3 534 144 540
3 539 145 534
3 540 16 539
3 542 541 536
3 536 146 542
3 541 144 536
3 542 39 541
3 545 543 544
3 544 54 545
3 543 145 544
3 545 80 543
3 539 204 544
3 544 145 539
3 204 54 544
3 539 16 204
3 293 538 543
3 543 80 293
3 538 145 543
3 293 22 538
3 205 296 545
3 545 54 205
3 296 80 545
3 205 4 296
3 548 546 547
3 547 125 548
3 546 144 547
3 548 57 546
3 541 455 547
3 547 144 541
3 455 125 547
3 541 39 455
3 214 540 546
3 546 57 214
3 540 144 546
3 214 16 540
3 456 217 548
3 548 125 456
3 217 57 548
3 456 9 217
3 551 549 550
3 550 81 551
3 549 146 550
3 551 130 549
3 537 301 550
3 550 146 537
3 301 81 550
3 537 22 301
3 468 542 549
3 549 130 468
3 542 146 549
3 468 39 542
3 302 471 551
3 551 81 302
3 471 130 551
3 302 3 471
3 554 552 553
3 553 149 554
3 552 148 553
3 554 147 552
3 556 555 553
3 553 148 556
3 555 149 553
3 556 21 555
3 558 557 552
3 552 147 558
3 557 148 552
3 558 25 557
3 560 559 554
3 554 149 560
3 559 147 554
3 560 37 559
3 563 561 562
3 562 88 563
3 561 148 562
3 563 70 561
3 557 327 562
3 562 148 557
3 327 88 562
3 557 25 327
3 260 556 561
3 561 70 260
3 556 148 561
3 260 21 556
3 328 261 563
3 563 88 328
3 261 70 563
3 328 5 261
3 566 564 565
3 565 129 566
3 564 147 565
3 566 87 564
3 559 469 565
3 565 147 559
3 469 129 565
3 559 37 469
3 321 558 564
3 564 87 321
3 558 147 564
3 321 25 558
3 470 322 566
3 566 129 470
3 322 87 566
3 470 3 322
3 569 567 568
3 568 71 569
3 567 149 568
3 569 128 567
3 555 266 568
3 568 149 555
3 266 71 568
3 555 21 266
3 461 560 567
3 567 128 461
3 560 149 567
3 461 37 560
3 267 464 569
3 569 71 267
3 464 128 569
3 267 10 464
3 572 570 571
3 571 152 572
3 570 151 571
3 572 150 570
3 574 573 571
3 571 151 574
3 573 152 571
3 574 27 573
3 576 575 570
3 570 150 576
3 575 151 570
3 576 12 575
3 578 577 572
3 572 152 578
3 577 150 572
3 578 36 577
3 581 579 580
3 580 49 581
3 579 151 580
3 581 96 579
3 575 189 580
3 580 151 575
3 189 49 580
3 575 12 189
3 349 574 579
3 579 96 349
3 574 151 579
3 349 27 574
3 190 352 581
3 581 49 190
3 352 96 581
3 190 7 352
3 584 582 583
3 583 118 584
3 582 150 583
3 584 48 582
3 577 428 583
3 583 150 577
3 428 118 583
3 577 36 428
3 181 576 582
3 582 48 181
3 576 150 582
3 181 12 576
3 429 184 584
3 584 118 429
3 184 48 584
3 429 8 184
3 587 585 586
3 586 97 587
3 585 152 586
3 587 121 585
3 573 357 586
3 586 152 573
3 357 97 586
3 573 27 357
3 438 578 585
3 585 121 438
3 578 152 585
3 438 36 578
3 358 441 587
3 587 97 358
3 441 121 587
3 358 1 441
3 590 588 589
3 589 155 590
3 588 154 589
3 590 153 588
3 592 591 589
3 589 154 592
3 591 155 589
3 592 17 591
3 594 593 588
3 588 153 594
3 593 154 588
3 594 30 593
3 596 595 590
3 590 155 596
3 595 153 590
3 596 35 595
3 599 597 598
3 598 104 599
3 597 154 598
3 599 64 597
3 593 383 598
3 598 154 593
3 383 104 598
3 593 30 383
3 237 592 597
3 597 64 237
3 592 154 597
3 237 17 592
3 384 240 599
3 599 104 384
3 240 64 599
3 384 6 240
3 602 600 601
3 601 120 602
3 600 153 601
3 602 103 600
3 595 439 601
3 601 153 595
3 439 120 601
3 595 35 439
3 377 594 600
3 600 103 377
3 594 153 600
3 377 30 594
3 440 378 602
3 602 120 440
3 378 103 602
3 440 1 378
3 605 603 604
3 604 65 605
3 603 155 604
3 605 119 603
3 591 245 604
3 604 155 591
3 245 65 604
3 591 17 245
3 433 596 603
3 603 119 433
3 596 155 603
3 433 35 596
3 246 434 605
3 605 65 246
3 434 119 605
3 246 11 434
3 608 606 607
3 607 158 608
3 606 157 607
3 608 156 606
3 610 609 607
3 607 157 610
3 609 158 607
3 610 15 609
3 612 611 606
3 606 156 612
3 611 157 606
3 612 28 611
3 614 613 608
3 608 158 614
3 613 156 608
3 614 41 613
3 617 615 616
3 616 95 617
3 615 157 616
3 617 55 615
3 611 350 616
3 616 157 611
3 350 95 616
3 611 28 350
3 209 610 615
3 615 55 209
3 610 157 615
3 209 15 610
3 351 210 617
3 617 95 351
3 210 55 617
3 351 7 210
3 620 618 619
3 619 135 620
3 618 156 619
3 620 94 618
3 613 490 619
3 619 156 613
3 490 135 619
3 613 41 490
3 342 612 618
3 618 94 342
3 612 156 618
3 342 28 612
3 491 345 620
3 620 135 491
3 345 94 620
3 491 2 345
3 623 621 622
3 622 56 623
3 621 158 622
3 623 134 621
3 609 215 622
3 622 158 609
3 215 56 622
3 609 15 215
3 484 614 621
3 621 134 484
3 614 158 621
3 484 41 614
3 216 485 623
3 623 56 216
3 485 134 623
3 216 9 485
3 626 624 625
3 625 161 626
3 624 160 625
3 626 159 624
3 628 627 625
3 625 160 628
3 627 161 625
3 628 31 627
3 630 629 624
3 624 159 630
3 629 160 624
3 630 20 629
3 632 631 626
3 626 161 632
3 631 159 626
3 632 40 631
3 635 633 634
3 634 73 635
3 633 160 634
3 635 105 633
3 629 272 634
3 634 160 629
3 272 73 634
3 629 20 272
3 382 628 633
3 633 105 382
3 628 160 633
3 382 31 628
3 273 385 635
3 635 73 273
3 385 105 635
3 273 6 385
3 638 636 637
3 637 137 638
3 636 159 637
3 638 72 636
3 631 496 637
3 637 159 631
3 496 137 637
3 631 40 496
3 265 630 636
3 636 72 265
3 630 159 636
3 265 20 630
3 497 268 638
3 638 137 497
3 268 72 638
3 497 10 268
3 641 639 640
3 640 102 641
3 639 161 640
3 641 136 639
3 627 372 640
3 640 161 627
3 372 102 640
3 627 31 372
3 489 632 639
3 639 136 489
3 632 161 639
3 489 40 632
3 373 492 641
3 641 102 373
3 492 136 641
3 373 2 492
