# vtk DataFile Version 3.0
this file was written using fslvtkio
ASCII
DATASET POLYDATA
POINTS 642 float
148.219 119.326 109.789
149.068 123.967 108.567
148.586 126.065 111.281
148.24 121.071 111.92
149.265 121.038 110.026
146.724 121.414 111.39
147.226 124.437 110.797
149.999 123.439 109.592
149.928 120.293 107.725
149.552 123.056 111.779
147.214 124.365 113.413
147.589 121.624 108.817
150.23 122.309 108.4
149.477 120.832 109.024
149.724 122.123 109.656
149.839 123.394 110.683
149.439 121.861 110.856
147.392 123.272 109.74
146.883 123.018 111.22
147.129 121.307 109.985
146.963 124.832 112.209
146.565 122.985 112.902
148.884 120.745 110.898
148.969 119.68 109.738
148.086 120.033 110.982
147.157 121.016 112.155
147.364 119.841 110.464
149.91 123.815 108.847
149.651 125.15 110.354
148.621 125.28 109.929
147.936 124.535 109.661
147.678 125.566 111.217
147.681 119.554 109.075
149.155 118.764 108.559
148.83 120.464 107.789
148.304 123.168 108.403
150.194 122.619 107.179
147.603 122.259 113.265
148.65 123.818 112.99
148.941 121.854 112.074
148.004 125.384 112.441
149.471 125.035 111.79
149.733 121.69 108.785
149.433 121.69 109.367
149.767 122.306 109.146
149.512 121.518 109.811
149.27 121.064 109.503
149.619 120.647 108.382
150.126 121.374 108.072
150.061 122.835 109.117
149.814 122.81 109.612
149.766 122.628 110.154
149.563 121.948 110.21
149.752 122.354 110.655
149.333 121.429 110.401
149.906 123.3 110.072
149.72 123.288 111.256
149.534 122.383 111.312
147.201 122.87 110.359
147.024 122.093 110.462
147.142 122.396 109.849
146.872 121.305 110.649
146.826 122.243 111.263
147.052 123.663 110.99
147.305 123.763 110.261
147.289 122.713 109.23
147.396 121.459 109.419
146.618 124.14 112.631
146.587 123.138 112.062
146.787 124.032 111.799
146.605 122.393 112.116
146.719 123.827 113.35
147.068 124.553 112.82
147.051 124.607 111.515
148.959 120.178 110.236
148.648 119.633 110.28
148.594 120.184 110.852
148.222 119.553 110.375
148.629 119.41 109.74
149.112 120.399 109.821
149.104 120.828 110.39
148.537 120.947 111.433
148.235 120.357 111.396
147.703 120.282 111.55
147.693 119.736 110.796
147.203 120.094 111.352
147.727 119.573 110.215
147.794 120.797 112.041
146.753 121.208 111.896
146.886 120.424 110.941
149.667 124.606 109.679
149.107 125.399 110.146
149.313 124.566 109.37
148.568 125.723 110.609
149.131 125.77 110.846
150.028 124.188 109.964
149.997 123.822 109.278
149.564 123.949 108.596
148.843 124.523 109.238
148.227 125.135 109.779
148.132 125.542 110.555
147.822 125.103 110.427
148.067 125.947 111.33
148.469 124.293 109.084
147.551 124.542 110.243
147.388 125.134 111.007
148.409 118.496 108.603
149.055 118.736 107.776
148.124 119.692 108.344
149.592 120.055 107.357
149.524 119.44 108.06
148.7 118.778 109.196
147.972 118.983 109.489
147.599 120.628 108.924
148.115 121.08 108.335
148.521 121.914 108.057
149.526 121.617 107.435
149.18 122.756 107.836
150.323 121.188 107.226
147.846 122.424 108.609
148.738 123.601 108.45
149.609 123.416 107.866
148.123 122.938 113.285
148.97 122.592 112.638
148.409 121.879 112.699
149.302 122.425 111.897
149.396 123.222 112.409
147.767 124.236 113.496
147.202 123.311 113.633
148.013 121.481 112.502
148.471 121.652 111.971
148.694 125.433 112.316
149.183 124.538 112.549
148.201 125.052 113.095
149.669 123.929 111.743
149.031 125.814 111.571
148.3 125.965 111.807
147.589 124.936 112.981
149.153 120.394 109.358
149.247 119.908 108.777
149.064 119.414 109.268
147.488 119.607 109.846
147.356 120.501 109.523
147.177 120.482 110.196
149.177 121.918 111.444
149.112 121.355 110.867
148.719 121.622 111.523
147.333 121.776 112.699
146.717 121.912 112.602
146.876 122.557 113.361
150.561 122.269 107.648
150.262 123.13 108.586
150.232 123.375 107.917
148.084 123.919 109.022
147.622 123.985 109.748
147.664 123.357 109.064
149.626 125.343 111.083
149.963 124.192 110.463
149.83 124.219 111.185
147.396 125.264 112.344
147.301 125.277 111.701
147.687 125.992 111.891
149.51 121.667 109.136
149.523 122.085 109.263
149.723 121.999 108.998
149.686 122.241 109.321
149.566 121.985 109.453
149.48 121.248 109.159
149.557 121.341 108.912
149.96 122.022 108.612
149.974 122.329 108.84
149.449 121.619 109.537
149.359 121.29 109.379
149.378 121.272 109.671
149.366 120.938 109.296
149.587 121.833 109.69
149.368 121.322 109.975
149.265 121.046 109.806
149.688 121.182 108.576
149.939 121.546 108.428
149.923 120.95 108.223
150.135 121.918 108.275
149.502 120.803 108.717
149.823 120.437 108.083
150.145 120.714 107.821
149.958 122.51 109.127
149.754 122.585 109.355
149.926 122.836 109.353
149.756 122.464 109.603
150.154 122.564 108.766
149.989 123.143 109.347
149.923 123.081 109.579
149.671 122.226 110.1
149.645 122.164 110.444
149.761 122.474 110.362
149.606 122.1 110.734
149.615 121.774 110.519
149.613 122.075 109.902
149.734 122.39 109.915
149.774 123.051 110.457
149.777 122.84 110.652
149.471 121.668 110.292
149.517 121.78 109.984
149.387 121.55 110.094
149.42 121.619 110.608
149.305 121.281 110.193
149.815 122.683 109.869
149.85 122.941 110.128
149.885 123.026 109.856
149.852 123.347 110.404
149.956 123.359 109.851
149.747 122.761 110.918
149.621 122.364 111.007
149.672 122.735 111.239
149.503 122.096 111.092
149.778 123.256 110.902
149.609 123.202 111.513
149.538 122.741 111.538
147.103 122.544 110.452
147.128 122.173 110.187
147.165 122.683 110.102
147.11 121.902 109.955
147.15 121.655 110.182
146.871 122.634 110.799
146.965 122.998 110.741
147.21 123.152 110.034
147.209 122.882 109.771
146.994 121.66 110.564
146.814 122.205 110.878
146.815 121.752 110.97
146.812 122.672 111.24
147.118 121.261 110.282
146.758 121.398 111.051
146.714 121.837 111.308
147.092 123.309 110.692
147.309 123.26 110.331
147.204 123.685 110.65
147.306 123.573 109.977
146.961 123.347 111.11
147.148 124.021 110.878
147.295 124.033 110.52
147.271 122.475 109.579
147.279 121.915 109.646
147.35 122.012 109.304
147.205 121.455 109.735
147.351 122.968 109.524
147.394 122.218 108.992
147.395 121.586 109.102
146.644 123.598 112.32
146.635 123.645 111.92
146.63 124.166 112.211
146.927 123.413 111.514
146.751 123.095 111.646
146.614 123.111 112.44
146.532 123.624 112.779
146.734 124.52 112.432
146.836 124.46 112.015
146.683 122.679 111.625
146.582 122.711 112.046
146.666 122.239 111.616
146.648 122.663 112.462
146.596 121.877 111.758
146.605 124.056 112.991
146.801 124.448 112.718
146.781 124.376 113.171
146.982 124.815 112.547
146.576 123.53 113.183
146.97 124.105 113.385
147.115 124.471 113.201
146.916 124.301 111.656
146.953 123.815 111.349
147.081 124.127 111.239
146.966 124.763 111.865
147.179 124.439 111.09
148.867 119.817 110.222
148.616 120.025 110.582
148.8 120.252 110.561
148.354 120.103 110.883
148.395 119.801 110.615
148.817 119.61 110.042
148.986 119.811 109.993
148.909 120.434 110.582
148.76 120.364 110.851
148.454 119.584 110.326
148.663 119.462 110.01
148.419 119.506 110.058
148.787 119.552 109.785
148.172 119.682 110.644
148.194 119.548 110.038
148.444 119.37 109.764
149.077 120.154 110.025
149.006 120.484 110.332
149.142 120.486 110.105
149.025 120.76 110.608
149.028 120.057 109.744
149.213 120.698 109.927
149.207 120.861 110.181
148.586 120.495 111.159
148.395 120.346 111.135
148.394 120.64 111.394
148.153 120.221 111.159
148.7 120.849 111.192
148.38 120.968 111.678
148.253 120.649 111.685
147.695 120.032 111.21
147.457 119.917 111.145
147.442 120.182 111.541
147.249 120.018 110.955
147.518 119.712 110.634
147.889 119.88 110.922
147.885 120.19 111.264
147.417 120.576 111.861
147.185 120.598 111.736
147.723 119.627 110.494
147.973 119.638 110.584
147.967 119.563 110.296
147.486 119.572 110.374
147.96 119.592 110.001
148.004 120.323 111.437
147.751 120.471 111.77
148.08 120.469 111.706
147.497 120.85 112.081
148.087 120.771 111.937
146.977 120.638 111.617
147.004 120.258 111.216
146.791 120.757 111.433
147.119 120.105 110.754
146.931 121.141 112.039
146.691 121.333 111.659
146.772 121.04 111.187
149.39 125.06 109.904
149.145 125.093 109.752
149.458 124.698 109.539
148.955 125.028 109.641
148.872 125.411 110.024
149.344 125.341 110.263
149.636 124.98 110.028
149.714 124.189 109.294
149.593 124.18 109.082
148.827 125.561 110.368
149.117 125.48 110.486
148.844 125.694 110.726
149.412 125.582 110.575
148.615 125.501 110.257
148.553 125.963 111.012
148.863 125.937 111.091
149.873 124.515 109.854
149.853 124.23 109.498
149.988 124.06 109.673
149.932 123.919 109.119
149.847 124.663 110.114
150.001 123.771 109.827
150.041 123.587 109.45
149.463 124.18 108.957
149.108 124.569 109.289
149.167 124.401 108.896
148.744 124.975 109.545
149.784 123.903 108.684
149.255 124.082 108.58
148.945 124.301 108.882
148.195 125.384 110.201
147.963 125.389 110.51
148.042 125.077 110.138
147.739 125.345 110.806
147.905 125.515 110.911
148.384 125.418 110.207
148.401 125.262 109.861
148.094 124.798 109.748
147.892 124.809 110.07
148.091 125.774 110.922
148.386 125.57 110.551
148.309 125.903 110.942
147.872 125.754 111.269
148.3 126.121 111.299
148.5 124.92 109.519
148.343 124.661 109.436
148.637 124.465 109.155
148.234 124.333 109.393
148.729 124.223 108.816
147.691 124.814 110.307
147.588 125.182 110.699
147.438 124.92 110.609
147.529 125.356 111.096
147.744 124.562 109.964
147.361 124.505 110.499
147.316 124.783 110.877
148.738 118.519 108.127
148.557 119.244 108.02
148.237 119.157 108.445
148.522 119.936 108.003
148.874 119.524 107.756
149.22 118.432 108.09
148.909 118.268 108.522
147.964 119.026 108.828
147.868 119.712 108.707
149.278 119.423 107.6
149.437 118.782 107.771
149.56 119.611 107.671
149.353 118.979 108.253
149.2 120.219 107.559
149.825 120.062 107.521
149.648 120.065 107.967
148.634 118.366 108.898
148.195 118.695 109.026
148.344 118.836 109.314
147.783 119.115 109.246
148.961 118.689 108.851
148.453 119.069 109.519
148.119 119.142 109.637
147.861 120.206 108.593
148.188 120.377 108.276
147.872 120.808 108.607
148.486 120.719 108.033
147.637 120.125 108.978
147.606 121.103 108.884
147.846 121.397 108.617
148.973 121.629 107.784
149.356 122.197 107.586
148.821 122.344 107.919
149.667 122.616 107.474
149.946 122.04 107.173
149.169 121.065 107.591
148.719 121.159 107.895
148.463 122.561 108.167
148.713 122.971 108.052
149.957 121.365 107.14
149.541 120.798 107.382
149.957 120.62 107.313
150.409 121.813 107.026
150.194 120.676 107.443
148.304 121.496 108.15
148.198 122.22 108.3
147.96 121.843 108.459
148.089 122.744 108.432
147.681 122.097 108.719
148.931 123.316 108.137
149.397 123.186 107.784
149.128 123.624 108.225
149.941 122.971 107.47
148.531 123.413 108.392
148.928 123.774 108.525
149.322 123.679 108.253
148.55 122.762 112.965
148.677 122.234 112.733
148.307 122.316 113.03
148.695 121.918 112.427
148.994 122.149 112.398
148.798 123.112 112.832
148.405 123.395 113.171
147.881 122.548 113.332
148.054 121.975 112.963
149.255 122.325 112.251
149.194 122.881 112.53
149.533 122.596 112.107
149.036 123.473 112.718
149.081 122.181 112.038
149.44 122.68 111.78
149.607 123.044 112.014
147.968 123.565 113.423
147.677 123.095 113.507
147.491 123.776 113.617
147.397 122.783 113.586
148.192 124.067 113.28
147.381 124.374 113.52
147.15 123.887 113.547
148.223 121.635 112.611
148.498 121.655 112.343
148.332 121.473 112.234
148.654 121.723 112.11
147.822 121.833 112.866
148.193 121.277 112.141
148.386 121.358 111.856
148.914 125.178 112.587
148.714 124.82 112.901
148.476 125.386 112.783
148.442 124.505 113.115
148.939 124.155 112.817
149.271 124.776 112.243
149.08 125.271 112.18
148.31 125.616 112.471
148.097 125.315 112.8
149.308 123.883 112.51
149.548 124.255 112.136
149.658 123.546 112.067
149.602 124.522 111.795
149.663 123.414 111.718
148.881 125.64 111.93
148.491 125.669 112.058
148.672 125.786 111.639
148.141 125.802 112.186
149.289 125.437 111.715
148.797 125.953 111.392
148.442 126.105 111.522
147.832 125.12 113.095
148.009 124.649 113.294
147.59 124.724 113.327
147.793 125.111 112.663
147.37 124.641 113.177
149.233 120.191 109.08
149.174 119.67 108.958
149.143 119.863 109.255
149.079 119.198 108.888
149.264 119.23 108.592
149.272 120.486 108.918
149.343 120.514 109.175
149.055 120.027 109.495
149.008 119.648 109.471
149.421 119.594 108.447
149.406 120.326 108.651
149.632 120.001 108.263
149.202 120.778 109.419
149.081 120.437 109.604
149.195 120.801 109.69
148.914 119.338 109.496
148.928 119.024 109.191
148.688 119.124 109.533
147.407 120.017 109.627
147.333 120.475 109.822
147.362 120.04 109.954
147.155 120.869 110.086
147.242 120.903 109.755
147.494 120.028 109.285
147.545 119.558 109.445
147.355 119.718 110.158
147.232 120.119 110.346
147.351 121.003 109.516
147.448 120.562 109.224
147.426 121.044 109.172
147.69 119.28 109.617
147.594 119.578 110.059
147.92 119.433 109.803
147.006 120.438 110.577
147.027 120.864 110.43
146.81 120.922 110.833
149.048 121.78 111.193
148.897 121.504 111.221
148.906 121.843 111.543
148.75 121.244 111.238
149.03 121.009 110.88
149.243 121.637 110.866
149.26 121.911 111.146
149.039 121.933 111.793
148.821 121.72 111.841
149.144 121.033 110.589
149.289 121.323 110.573
149.169 121.144 110.356
149.348 122.127 111.353
149.231 122.155 111.738
149.381 122.451 111.622
148.61 121.67 111.804
148.611 121.325 111.468
148.461 121.389 111.676
147.073 121.799 112.656
146.839 122.243 112.916
147.12 122.141 113.019
146.671 122.722 113.17
146.629 122.403 112.725
146.918 121.425 112.364
147.279 121.39 112.327
147.449 122.043 113.009
147.206 122.453 113.436
146.636 122.237 112.334
146.681 121.583 112.307
146.561 121.778 112.032
147.573 121.223 112.31
147.672 121.6 112.596
147.958 121.16 112.181
146.983 122.884 113.609
146.659 123.186 113.4
146.949 123.543 113.495
150.536 122.719 108.106
150.321 123.354 108.259
150.536 122.907 107.593
150.042 123.601 108.412
150.105 123.482 108.723
150.306 122.681 108.508
150.435 122.271 108.056
150.62 122.364 107.154
150.26 123.131 107.386
150.134 123.509 109.005
150.168 122.996 108.922
150.044 123.321 109.234
150.306 121.881 107.959
150.55 121.773 107.377
150.249 121.322 107.74
149.94 123.415 107.753
149.869 123.706 108.237
149.549 123.821 108.2
147.848 123.955 109.374
147.639 123.69 109.421
147.854 123.686 109.007
147.506 123.362 109.453
147.552 123.576 109.745
147.785 124.255 109.696
148.032 124.153 109.364
148.173 123.588 108.702
147.952 123.23 108.689
147.418 123.918 110.011
147.586 124.257 110.001
147.41 124.197 110.261
148.273 124.109 109.059
148.392 123.745 108.728
148.585 123.95 108.786
147.8 122.827 108.792
147.459 123.073 109.193
147.535 122.599 108.935
149.904 124.882 110.76
149.918 124.202 110.841
149.838 124.775 111.137
149.847 123.78 110.919
149.896 123.753 110.549
149.916 124.804 110.423
149.673 125.449 110.703
149.557 125.212 111.433
149.768 124.66 111.454
149.863 123.728 110.297
149.898 124.266 110.23
149.946 123.691 109.997
149.353 125.768 110.979
149.347 125.568 111.351
149.035 125.851 111.225
149.736 124.122 111.457
149.73 123.689 111.152
149.625 123.628 111.491
147.305 125.409 112.031
147.433 125.758 111.807
147.488 125.783 112.151
147.663 125.82 111.548
147.493 125.448 111.447
147.132 125.082 111.916
147.159 125.12 112.276
147.693 125.28 112.408
147.831 125.738 112.192
147.339 125.194 111.331
147.167 124.87 111.607
147.221 124.843 111.207
147.231 124.853 112.529
147.523 124.983 112.623
147.283 124.75 112.866
147.972 126.077 111.92
147.906 125.973 111.596
148.157 126.102 111.576
POLYGONS 1280  5120
3 164 162 163
3 163 44 164
3 162 43 163
3 164 42 162
3 166 165 163
3 163 43 166
3 165 44 163
3 166 14 165
3 168 167 162
3 162 42 168
3 167 43 162
3 168 13 167
3 170 169 164
3 164 44 170
3 169 42 164
3 170 12 169
3 173 171 172
3 172 46 173
3 171 43 172
3 173 45 171
3 167 174 172
3 172 43 167
3 174 46 172
3 167 13 174
3 175 166 171
3 171 45 175
3 166 43 171
3 175 14 166
3 177 176 173
3 173 46 177
3 176 45 173
3 177 4 176
3 180 178 179
3 179 48 180
3 178 42 179
3 180 47 178
3 169 181 179
3 179 42 169
3 181 48 179
3 169 12 181
3 182 168 178
3 178 47 182
3 168 42 178
3 182 13 168
3 184 183 180
3 180 48 184
3 183 47 180
3 184 8 183
3 187 185 186
3 186 50 187
3 185 44 186
3 187 49 185
3 165 188 186
3 186 44 165
3 188 50 186
3 165 14 188
3 189 170 185
3 185 49 189
3 170 44 185
3 189 12 170
3 191 190 187
3 187 50 191
3 190 49 187
3 191 7 190
3 194 192 193
3 193 53 194
3 192 52 193
3 194 51 192
3 196 195 193
3 193 52 196
3 195 53 193
3 196 16 195
3 198 197 192
3 192 51 198
3 197 52 192
3 198 14 197
3 200 199 194
3 194 53 200
3 199 51 194
3 200 15 199
3 203 201 202
3 202 45 203
3 201 52 202
3 203 54 201
3 197 175 202
3 202 52 197
3 175 45 202
3 197 14 175
3 204 196 201
3 201 54 204
3 196 52 201
3 204 16 196
3 176 205 203
3 203 45 176
3 205 54 203
3 176 4 205
3 208 206 207
3 207 55 208
3 206 51 207
3 208 50 206
3 199 209 207
3 207 51 199
3 209 55 207
3 199 15 209
3 188 198 206
3 206 50 188
3 198 51 206
3 188 14 198
3 210 191 208
3 208 55 210
3 191 50 208
3 210 7 191
3 213 211 212
3 212 57 213
3 211 53 212
3 213 56 211
3 195 214 212
3 212 53 195
3 214 57 212
3 195 16 214
3 215 200 211
3 211 56 215
3 200 53 211
3 215 15 200
3 217 216 213
3 213 57 217
3 216 56 213
3 217 9 216
3 220 218 219
3 219 60 220
3 218 59 219
3 220 58 218
3 222 221 219
3 219 59 222
3 221 60 219
3 222 19 221
3 224 223 218
3 218 58 224
3 223 59 218
3 224 18 223
3 226 225 220
3 220 60 226
3 225 58 220
3 226 17 225
3 229 227 228
3 228 62 229
3 227 59 228
3 229 61 227
3 223 230 228
3 228 59 223
3 230 62 228
3 223 18 230
3 231 222 227
3 227 61 231
3 222 59 227
3 231 19 222
3 233 232 229
3 229 62 233
3 232 61 229
3 233 5 232
3 236 234 235
3 235 64 236
3 234 58 235
3 236 63 234
3 225 237 235
3 235 58 225
3 237 64 235
3 225 17 237
3 238 224 234
3 234 63 238
3 224 58 234
3 238 18 224
3 240 239 236
3 236 64 240
3 239 63 236
3 240 6 239
3 243 241 242
3 242 66 243
3 241 60 242
3 243 65 241
3 221 244 242
3 242 60 221
3 244 66 242
3 221 19 244
3 245 226 241
3 241 65 245
3 226 60 241
3 245 17 226
3 247 246 243
3 243 66 247
3 246 65 243
3 247 11 246
3 250 248 249
3 249 69 250
3 248 68 249
3 250 67 248
3 252 251 249
3 249 68 252
3 251 69 249
3 252 18 251
3 254 253 248
3 248 67 254
3 253 68 248
3 254 21 253
3 256 255 250
3 250 69 256
3 255 67 250
3 256 20 255
3 259 257 258
3 258 70 259
3 257 68 258
3 259 62 257
3 253 260 258
3 258 68 253
3 260 70 258
3 253 21 260
3 230 252 257
3 257 62 230
3 252 68 257
3 230 18 252
3 261 233 259
3 259 70 261
3 233 62 259
3 261 5 233
3 264 262 263
3 263 72 264
3 262 67 263
3 264 71 262
3 255 265 263
3 263 67 255
3 265 72 263
3 255 20 265
3 266 254 262
3 262 71 266
3 254 67 262
3 266 21 254
3 268 267 264
3 264 72 268
3 267 71 264
3 268 10 267
3 271 269 270
3 270 63 271
3 269 69 270
3 271 73 269
3 251 238 270
3 270 69 251
3 238 63 270
3 251 18 238
3 272 256 269
3 269 73 272
3 256 69 269
3 272 20 256
3 239 273 271
3 271 63 239
3 273 73 271
3 239 6 273
3 276 274 275
3 275 76 276
3 274 75 275
3 276 74 274
3 278 277 275
3 275 75 278
3 277 76 275
3 278 24 277
3 280 279 274
3 274 74 280
3 279 75 274
3 280 23 279
3 282 281 276
3 276 76 282
3 281 74 276
3 282 22 281
3 285 283 284
3 284 78 285
3 283 75 284
3 285 77 283
3 279 286 284
3 284 75 279
3 286 78 284
3 279 23 286
3 287 278 283
3 283 77 287
3 278 75 283
3 287 24 278
3 289 288 285
3 285 78 289
3 288 77 285
3 289 0 288
3 292 290 291
3 291 80 292
3 290 74 291
3 292 79 290
3 281 293 291
3 291 74 281
3 293 80 291
3 281 22 293
3 294 280 290
3 290 79 294
3 280 74 290
3 294 23 280
3 296 295 292
3 292 80 296
3 295 79 292
3 296 4 295
3 299 297 298
3 298 82 299
3 297 76 298
3 299 81 297
3 277 300 298
3 298 76 277
3 300 82 298
3 277 24 300
3 301 282 297
3 297 81 301
3 282 76 297
3 301 22 282
3 303 302 299
3 299 82 303
3 302 81 299
3 303 3 302
3 306 304 305
3 305 85 306
3 304 84 305
3 306 83 304
3 308 307 305
3 305 84 308
3 307 85 305
3 308 26 307
3 310 309 304
3 304 83 310
3 309 84 304
3 310 24 309
3 312 311 306
3 306 85 312
3 311 83 306
3 312 25 311
3 315 313 314
3 314 77 315
3 313 84 314
3 315 86 313
3 309 287 314
3 314 84 309
3 287 77 314
3 309 24 287
3 316 308 313
3 313 86 316
3 308 84 313
3 316 26 308
3 288 317 315
3 315 77 288
3 317 86 315
3 288 0 317
3 320 318 319
3 319 87 320
3 318 83 319
3 320 82 318
3 311 321 319
3 319 83 311
3 321 87 319
3 311 25 321
3 300 310 318
3 318 82 300
3 310 83 318
3 300 24 310
3 322 303 320
3 320 87 322
3 303 82 320
3 322 3 303
3 325 323 324
3 324 89 325
3 323 85 324
3 325 88 323
3 307 326 324
3 324 85 307
3 326 89 324
3 307 26 326
3 327 312 323
3 323 88 327
3 312 85 323
3 327 25 312
3 329 328 325
3 325 89 329
3 328 88 325
3 329 5 328
3 332 330 331
3 331 92 332
3 330 91 331
3 332 90 330
3 334 333 331
3 331 91 334
3 333 92 331
3 334 29 333
3 336 335 330
3 330 90 336
3 335 91 330
3 336 28 335
3 338 337 332
3 332 92 338
3 337 90 332
3 338 27 337
3 341 339 340
3 340 94 341
3 339 91 340
3 341 93 339
3 335 342 340
3 340 91 335
3 342 94 340
3 335 28 342
3 343 334 339
3 339 93 343
3 334 91 339
3 343 29 334
3 345 344 341
3 341 94 345
3 344 93 341
3 345 2 344
3 348 346 347
3 347 96 348
3 346 90 347
3 348 95 346
3 337 349 347
3 347 90 337
3 349 96 347
3 337 27 349
3 350 336 346
3 346 95 350
3 336 90 346
3 350 28 336
3 352 351 348
3 348 96 352
3 351 95 348
3 352 7 351
3 355 353 354
3 354 98 355
3 353 92 354
3 355 97 353
3 333 356 354
3 354 92 333
3 356 98 354
3 333 29 356
3 357 338 353
3 353 97 357
3 338 92 353
3 357 27 338
3 359 358 355
3 355 98 359
3 358 97 355
3 359 1 358
3 362 360 361
3 361 101 362
3 360 100 361
3 362 99 360
3 364 363 361
3 361 100 364
3 363 101 361
3 364 31 363
3 366 365 360
3 360 99 366
3 365 100 360
3 366 29 365
3 368 367 362
3 362 101 368
3 367 99 362
3 368 30 367
3 371 369 370
3 370 93 371
3 369 100 370
3 371 102 369
3 365 343 370
3 370 100 365
3 343 93 370
3 365 29 343
3 372 364 369
3 369 102 372
3 364 100 369
3 372 31 364
3 344 373 371
3 371 93 344
3 373 102 371
3 344 2 373
3 376 374 375
3 375 103 376
3 374 99 375
3 376 98 374
3 367 377 375
3 375 99 367
3 377 103 375
3 367 30 377
3 356 366 374
3 374 98 356
3 366 99 374
3 356 29 366
3 378 359 376
3 376 103 378
3 359 98 376
3 378 1 359
3 381 379 380
3 380 105 381
3 379 101 380
3 381 104 379
3 363 382 380
3 380 101 363
3 382 105 380
3 363 31 382
3 383 368 379
3 379 104 383
3 368 101 379
3 383 30 368
3 385 384 381
3 381 105 385
3 384 104 381
3 385 6 384
3 388 386 387
3 387 108 388
3 386 107 387
3 388 106 386
3 390 389 387
3 387 107 390
3 389 108 387
3 390 34 389
3 392 391 386
3 386 106 392
3 391 107 386
3 392 33 391
3 394 393 388
3 388 108 394
3 393 106 388
3 394 32 393
3 397 395 396
3 396 110 397
3 395 107 396
3 397 109 395
3 391 398 396
3 396 107 391
3 398 110 396
3 391 33 398
3 399 390 395
3 395 109 399
3 390 107 395
3 399 34 390
3 401 400 397
3 397 110 401
3 400 109 397
3 401 8 400
3 404 402 403
3 403 112 404
3 402 106 403
3 404 111 402
3 393 405 403
3 403 106 393
3 405 112 403
3 393 32 405
3 406 392 402
3 402 111 406
3 392 106 402
3 406 33 392
3 408 407 404
3 404 112 408
3 407 111 404
3 408 0 407
3 411 409 410
3 410 114 411
3 409 108 410
3 411 113 409
3 389 412 410
3 410 108 389
3 412 114 410
3 389 34 412
3 413 394 409
3 409 113 413
3 394 108 409
3 413 32 394
3 415 414 411
3 411 114 415
3 414 113 411
3 415 11 414
3 418 416 417
3 417 117 418
3 416 116 417
3 418 115 416
3 420 419 417
3 417 116 420
3 419 117 417
3 420 36 419
3 422 421 416
3 416 115 422
3 421 116 416
3 422 34 421
3 424 423 418
3 418 117 424
3 423 115 418
3 424 35 423
3 427 425 426
3 426 109 427
3 425 116 426
3 427 118 425
3 421 399 426
3 426 116 421
3 399 109 426
3 421 34 399
3 428 420 425
3 425 118 428
3 420 116 425
3 428 36 420
3 400 429 427
3 427 109 400
3 429 118 427
3 400 8 429
3 432 430 431
3 431 119 432
3 430 115 431
3 432 114 430
3 423 433 431
3 431 115 423
3 433 119 431
3 423 35 433
3 412 422 430
3 430 114 412
3 422 115 430
3 412 34 422
3 434 415 432
3 432 119 434
3 415 114 432
3 434 11 415
3 437 435 436
3 436 121 437
3 435 117 436
3 437 120 435
3 419 438 436
3 436 117 419
3 438 121 436
3 419 36 438
3 439 424 435
3 435 120 439
3 424 117 435
3 439 35 424
3 441 440 437
3 437 121 441
3 440 120 437
3 441 1 440
3 444 442 443
3 443 124 444
3 442 123 443
3 444 122 442
3 446 445 443
3 443 123 446
3 445 124 443
3 446 39 445
3 448 447 442
3 442 122 448
3 447 123 442
3 448 38 447
3 450 449 444
3 444 124 450
3 449 122 444
3 450 37 449
3 453 451 452
3 452 126 453
3 451 123 452
3 453 125 451
3 447 454 452
3 452 123 447
3 454 126 452
3 447 38 454
3 455 446 451
3 451 125 455
3 446 123 451
3 455 39 446
3 457 456 453
3 453 126 457
3 456 125 453
3 457 9 456
3 460 458 459
3 459 128 460
3 458 122 459
3 460 127 458
3 449 461 459
3 459 122 449
3 461 128 459
3 449 37 461
3 462 448 458
3 458 127 462
3 448 122 458
3 462 38 448
3 464 463 460
3 460 128 464
3 463 127 460
3 464 10 463
3 467 465 466
3 466 130 467
3 465 124 466
3 467 129 465
3 445 468 466
3 466 124 445
3 468 130 466
3 445 39 468
3 469 450 465
3 465 129 469
3 450 124 465
3 469 37 450
3 471 470 467
3 467 130 471
3 470 129 467
3 471 3 470
3 474 472 473
3 473 133 474
3 472 132 473
3 474 131 472
3 476 475 473
3 473 132 476
3 475 133 473
3 476 38 475
3 478 477 472
3 472 131 478
3 477 132 472
3 478 41 477
3 480 479 474
3 474 133 480
3 479 131 474
3 480 40 479
3 483 481 482
3 482 134 483
3 481 132 482
3 483 126 481
3 477 484 482
3 482 132 477
3 484 134 482
3 477 41 484
3 454 476 481
3 481 126 454
3 476 132 481
3 454 38 476
3 485 457 483
3 483 134 485
3 457 126 483
3 485 9 457
3 488 486 487
3 487 136 488
3 486 131 487
3 488 135 486
3 479 489 487
3 487 131 479
3 489 136 487
3 479 40 489
3 490 478 486
3 486 135 490
3 478 131 486
3 490 41 478
3 492 491 488
3 488 136 492
3 491 135 488
3 492 2 491
3 495 493 494
3 494 127 495
3 493 133 494
3 495 137 493
3 475 462 494
3 494 133 475
3 462 127 494
3 475 38 462
3 496 480 493
3 493 137 496
3 480 133 493
3 496 40 480
3 463 497 495
3 495 127 463
3 497 137 495
3 463 10 497
3 500 498 499
3 499 140 500
3 498 139 499
3 500 138 498
3 502 501 499
3 499 139 502
3 501 140 499
3 502 33 501
3 504 503 498
3 498 138 504
3 503 139 498
3 504 13 503
3 506 505 500
3 500 140 506
3 505 138 500
3 506 23 505
3 509 507 508
3 508 47 509
3 507 139 508
3 509 110 507
3 503 182 508
3 508 139 503
3 182 47 508
3 503 13 182
3 398 502 507
3 507 110 398
3 502 139 507
3 398 33 502
3 183 401 509
3 509 47 183
3 401 110 509
3 183 8 401
3 512 510 511
3 511 79 512
3 510 138 511
3 512 46 510
3 505 294 511
3 511 138 505
3 294 79 511
3 505 23 294
3 174 504 510
3 510 46 174
3 504 138 510
3 174 13 504
3 295 177 512
3 512 79 295
3 177 46 512
3 295 4 177
3 515 513 514
3 514 111 515
3 513 140 514
3 515 78 513
3 501 406 514
3 514 140 501
3 406 111 514
3 501 33 406
3 286 506 513
3 513 78 286
3 506 140 513
3 286 23 506
3 407 289 515
3 515 111 407
3 289 78 515
3 407 0 289
3 518 516 517
3 517 143 518
3 516 142 517
3 518 141 516
3 520 519 517
3 517 142 520
3 519 143 517
3 520 19 519
3 522 521 516
3 516 141 522
3 521 142 516
3 522 32 521
3 524 523 518
3 518 143 524
3 523 141 518
3 524 26 523
3 527 525 526
3 526 113 527
3 525 142 526
3 527 66 525
3 521 413 526
3 526 142 521
3 413 113 526
3 521 32 413
3 244 520 525
3 525 66 244
3 520 142 525
3 244 19 520
3 414 247 527
3 527 113 414
3 247 66 527
3 414 11 247
3 530 528 529
3 529 86 530
3 528 141 529
3 530 112 528
3 523 316 529
3 529 141 523
3 316 86 529
3 523 26 316
3 405 522 528
3 528 112 405
3 522 141 528
3 405 32 522
3 317 408 530
3 530 86 317
3 408 112 530
3 317 0 408
3 533 531 532
3 532 61 533
3 531 143 532
3 533 89 531
3 519 231 532
3 532 143 519
3 231 61 532
3 519 19 231
3 326 524 531
3 531 89 326
3 524 143 531
3 326 26 524
3 232 329 533
3 533 61 232
3 329 89 533
3 232 5 329
3 536 534 535
3 535 146 536
3 534 145 535
3 536 144 534
3 538 537 535
3 535 145 538
3 537 146 535
3 538 22 537
3 540 539 534
3 534 144 540
3 539 145 534
3 540 16 539
3 542 541 536
3 536 146 542
3 541 144 536
3 542 39 541
3 545 543 544
3 544 54 545
3 543 145 544
3 545 80 543
3 539 204 544
3 544 145 539
3 204 54 544
3 539 16 204
3 293 538 543
3 543 80 293
3 538 145 543
3 293 22 538
3 205 296 545
3 545 54 205
3 296 80 545
3 205 4 296
3 548 546 547
3 547 125 548
3 546 144 547
3 548 57 546
3 541 455 547
3 547 144 541
3 455 125 547
3 541 39 455
3 214 540 546
3 546 57 214
3 540 144 546
3 214 16 540
3 456 217 548
3 548 125 456
3 217 57 548
3 456 9 217
3 551 549 550
3 550 81 551
3 549 146 550
3 551 130 549
3 537 301 550
3 550 146 537
3 301 81 550
3 537 22 301
3 468 542 549
3 549 130 468
3 542 146 549
3 468 39 542
3 302 471 551
3 551 81 302
3 471 130 551
3 302 3 471
3 554 552 553
3 553 149 554
3 552 148 553
3 554 147 552
3 556 555 553
3 553 148 556
3 555 149 553
3 556 21 555
3 558 557 552
3 552 147 558
3 557 148 552
3 558 25 557
3 560 559 554
3 554 149 560
3 559 147 554
3 560 37 559
3 563 561 562
3 562 88 563
3 561 148 562
3 563 70 561
3 557 327 562
3 562 148 557
3 327 88 562
3 557 25 327
3 260 556 561
3 561 70 260
3 556 148 561
3 260 21 556
3 328 261 563
3 563 88 328
3 261 70 563
3 328 5 261
3 566 564 565
3 565 129 566
3 564 147 565
3 566 87 564
3 559 469 565
3 565 147 559
3 469 129 565
3 559 37 469
3 321 558 564
3 564 87 321
3 558 147 564
3 321 25 558
3 470 322 566
3 566 129 470
3 322 87 566
3 470 3 322
3 569 567 568
3 568 71 569
3 567 149 568
3 569 128 567
3 555 266 568
3 568 149 555
3 266 71 568
3 555 21 266
3 461 560 567
3 567 128 461
3 560 149 567
3 461 37 560
3 267 464 569
3 569 71 267
3 464 128 569
3 267 10 464
3 572 570 571
3 571 152 572
3 570 151 571
3 572 150 570
3 574 573 571
3 571 151 574
3 573 152 571
3 574 27 573
3 576 575 570
3 570 150 576
3 575 151 570
3 576 12 575
3 578 577 572
3 572 152 578
3 577 150 572
3 578 36 577
3 581 579 580
3 580 49 581
3 579 151 580
3 581 96 579
3 575 189 580
3 580 151 575
3 189 49 580
3 575 12 189
3 349 574 579
3 579 96 349
3 574 151 579
3 349 27 574
3 190 352 581
3 581 49 190
3 352 96 581
3 190 7 352
3 584 582 583
3 583 118 584
3 582 150 583
3 584 48 582
3 577 428 583
3 583 150 577
3 428 118 583
3 577 36 428
3 181 576 582
3 582 48 181
3 576 150 582
3 181 12 576
3 429 184 584
3 584 118 429
3 184 48 584
3 429 8 184
3 587 585 586
3 586 97 587
3 585 152 586
3 587 121 585
3 573 357 586
3 586 152 573
3 357 97 586
3 573 27 357
3 438 578 585
3 585 121 438
3 578 152 585
3 438 36 578
3 358 441 587
3 587 97 358
3 441 121 587
3 358 1 441
3 590 588 589
3 589 155 590
3 588 154 589
3 590 153 588
3 592 591 589
3 589 154 592
3 591 155 589
3 592 17 591
3 594 593 588
3 588 153 594
3 593 154 588
3 594 30 593
3 596 595 590
3 590 155 596
3 595 153 590
3 596 35 595
3 599 597 598
3 598 104 599
3 597 154 598
3 599 64 597
3 593 383 598
3 598 154 593
3 383 104 598
3 593 30 383
3 237 592 597
3 597 64 237
3 592 154 597
3 237 17 592
3 384 240 599
3 599 104 384
3 240 64 599
3 384 6 240
3 602 600 601
3 601 120 602
3 600 153 601
3 602 103 600
3 595 439 601
3 601 153 595
3 439 120 601
3 595 35 439
3 377 594 600
3 600 103 377
3 594 153 600
3 377 30 594
3 440 378 602
3 602 120 440
3 378 103 602
3 440 1 378
3 605 603 604
3 604 65 605
3 603 155 604
3 605 119 603
3 591 245 604
3 604 155 591
3 245 65 604
3 591 17 245
3 433 596 603
3 603 119 433
3 596 155 603
3 433 35 596
3 246 434 605
3 605 65 246
3 434 119 605
3 246 11 434
3 608 606 607
3 607 158 608
3 606 157 607
3 608 156 606
3 610 609 607
3 607 157 610
3 609 158 607
3 610 15 609
3 612 611 606
3 606 156 612
3 611 157 606
3 612 28 611
3 614 613 608
3 608 158 614
3 613 156 608
3 614 41 613
3 617 615 616
3 616 95 617
3 615 157 616
3 617 55 615
3 611 350 616
3 616 157 611
3 350 95 616
3 611 28 350
3 209 610 615
3 615 55 209
3 610 157 615
3 209 15 610
3 351 210 617
3 617 95 351
3 210 55 617
3 351 7 210
3 620 618 619
3 619 135 620
3 618 156 619
3 620 94 618
3 613 490 619
3 619 156 613
3 490 135 619
3 613 41 490
3 342 612 618
3 618 94 342
3 612 156 618
3 342 28 612
3 491 345 620
3 620 135 491
3 345 94 620
3 491 2 345
3 623 621 622
3 622 56 623
3 621 158 622
3 623 134 621
3 609 215 622
3 622 158 609
3 215 56 622
3 609 15 215
3 484 614 621
3 621 134 484
3 614 158 621
3 484 41 614
3 216 485 623
3 623 56 216
3 485 134 623
3 216 9 485
3 626 624 625
3 625 161 626
3 624 160 625
3 626 159 624
3 628 627 625
3 625 160 628
3 627 161 625
3 628 31 627
3 630 629 624
3 624 159 630
3 629 160 624
3 630 20 629
3 632 631 626
3 626 161 632
3 631 159 626
3 632 40 631
3 635 633 634
3 634 73 635
3 633 160 634
3 635 105 633
3 629 272 634
3 634 160 629
3 272 73 634
3 629 20 272
3 382 628 633
3 633 105 382
3 628 160 633
3 382 31 628
3 273 385 635
3 635 73 273
3 385 105 635
3 273 6 385
3 638 636 637
3 637 137 638
3 636 159 637
3 638 72 636
3 631 496 637
3 637 159 631
3 496 137 637
3 631 40 496
3 265 630 636
3 636 72 265
3 630 159 636
3 265 20 630
3 497 268 638
3 638 137 497
3 268 72 638
3 497 10 268
3 641 639 640
3 640 102 641
3 639 161 640
3 641 136 639
3 627 372 640
3 640 161 627
3 372 102 640
3 627 31 372
3 489 632 639
3 639 136 489
3 632 161 639
3 489 40 632
3 373 492 641
3 641 102 373
3 492 136 641
3 373 2 492
