# vtk DataFile Version 3.0
this file was written using fslvtkio
ASCII
DATASET POLYDATA
POINTS 642 float
148.099 97.3993 113.34
148.46 100.7 112.489
148.734 102.015 114.01
148.284 98.5757 114.187
148.693 99.051 113.294
147.151 98.6054 114.316
147.38 100.441 114.006
149.638 100.617 112.868
149.119 97.9678 111.71
149.034 100.801 114.187
147.173 100.61 115.476
147.28 98.8451 112.858
149.514 99.6242 112.356
149.029 98.5898 112.77
149.303 99.6731 113.041
149.195 101.031 113.735
149.022 99.687 113.677
147.274 99.9461 113.511
147.085 99.6025 114.298
147.552 98.6333 113.661
146.7 101.124 114.961
145.889 99.3813 115.668
148.589 98.6608 113.838
148.674 97.8562 113.207
148.247 97.6688 113.809
147.344 98.0486 114.601
147.723 97.8466 113.711
149.306 100.941 112.4
149.518 102.232 113.472
148.509 101.128 113.271
147.802 100.706 113.232
147.964 101.06 114.1
147.514 97.5737 113.083
148.663 97.058 112.415
147.8 97.779 111.66
147.573 99.9352 112.581
148.726 99.9362 111.536
147.883 99.1706 114.779
148.783 100.546 115.164
148.831 99.285 114.346
148.106 101.261 114.672
149.403 102.228 114.246
149.206 99.0405 112.627
149.183 99.1494 112.908
149.344 99.7258 112.81
148.966 99.3534 113.13
149.015 98.7649 113.016
149.068 98.2961 112.184
149.277 98.9513 112.021
149.677 100.239 112.676
149.543 100.096 112.896
149.344 100.182 113.37
149.083 99.7387 113.377
149.146 100.268 113.69
148.83 99.3248 113.381
149.412 100.618 113.189
149.194 100.962 113.944
149.154 100.111 113.843
147.217 99.7903 113.967
147.363 99.1199 113.9
147.417 99.2552 113.465
147.357 98.4939 113.947
147.131 98.9645 114.349
147.133 100.212 114.207
147.397 100.239 113.714
147.162 99.5392 113.107
147.271 98.7582 113.151
146.011 100.685 115.482
146.278 99.749 114.897
146.71 100.38 114.671
146.422 98.6999 114.796
146.463 100.136 115.718
146.872 100.873 115.241
147.001 100.834 114.478
148.608 98.3742 113.428
148.38 97.9531 113.475
148.501 98.0545 113.741
148.249 97.5317 113.458
148.444 97.4587 113.244
148.694 98.5354 113.155
148.718 98.8389 113.437
148.498 98.5388 113.95
148.316 97.9815 113.994
147.931 97.7054 114.111
147.947 97.4 113.891
147.475 97.6987 114.195
147.965 97.6379 113.532
147.957 98.0882 114.278
146.912 98.2729 114.535
147.403 98.0953 114.092
149.146 101.427 113.064
148.938 101.678 113.337
148.85 100.977 112.958
148.599 101.549 113.695
149.053 102.354 113.802
149.653 101.264 113.181
149.571 101.007 112.711
148.925 100.737 112.314
148.48 100.901 112.867
148.159 100.946 113.159
148.258 101.106 113.621
147.923 100.793 113.622
148.278 101.611 114.018
148.155 100.642 112.816
147.61 100.617 113.725
147.627 100.673 114.015
148.062 96.8679 112.524
148.561 96.5541 111.465
147.318 97.2664 112.098
148.766 97.6149 111.284
149.032 97.3573 111.86
148.403 96.9831 112.96
147.854 97.2269 113.231
147.307 98.1693 112.86
147.187 98.5081 112.312
147.584 99.0816 112.01
148.185 98.768 111.689
148.064 99.936 112.017
149.056 98.5889 111.42
147.407 99.2788 112.698
148.049 100.336 112.5
148.53 100.48 112.098
148.287 99.8194 115.162
148.949 99.6693 114.744
148.382 99.3669 114.529
149.049 99.9378 114.172
149.171 100.514 114.489
147.822 100.572 115.359
147.348 99.77 115.487
148.076 98.8258 114.41
148.329 99.1772 114.293
148.709 101.718 114.608
149.07 101.465 114.861
148.209 101.535 115.31
149.273 101.393 114.212
148.893 102.265 114.138
148.448 101.596 114.194
147.69 101 115.073
148.658 98.4663 113
148.951 97.7573 112.569
148.701 97.5042 112.999
147.654 97.6938 113.392
147.304 98.1855 113.302
147.601 98.217 113.672
148.968 99.3742 113.902
148.828 99.1355 113.733
148.787 98.8456 113.947
147.558 98.5877 114.613
146.5 98.1723 115.193
146.87 99.0028 115.334
149.694 99.544 111.549
149.693 100.46 112.255
149.26 100.764 111.766
147.659 100.454 112.939
147.466 100.374 113.37
147.391 99.9398 113.113
149.475 102.115 113.849
149.622 101.29 113.484
149.551 101.483 113.855
147.295 101.315 114.889
147.317 101.228 114.507
147.853 101.556 114.452
149.171 99.1145 112.829
149.212 99.4731 112.883
149.259 99.3767 112.755
149.393 99.6307 112.896
149.278 99.384 112.982
149.099 98.8766 112.83
149.084 98.8394 112.71
149.396 99.2614 112.476
149.459 99.5966 112.647
149.162 99.1566 113.046
149.024 99.0056 112.985
149.017 98.9864 113.102
148.988 98.7158 112.903
149.156 99.4924 113.079
148.853 99.1403 113.185
148.915 98.8622 113.156
149.193 98.7107 112.388
149.335 98.9317 112.288
149.213 98.6297 112.109
149.439 99.2991 112.182
149.072 98.4745 112.501
149.111 98.1582 111.973
149.229 98.4083 111.823
149.579 99.9192 112.691
149.449 100.003 112.877
149.638 100.179 112.732
149.372 99.9195 112.997
149.667 99.8656 112.525
149.663 100.426 112.73
149.625 100.296 112.843
149.241 99.9636 113.327
149.101 100.036 113.576
149.181 100.229 113.544
149.095 99.9797 113.707
149.038 99.7171 113.57
149.189 99.7315 113.201
149.314 99.9747 113.156
149.249 100.599 113.614
149.132 100.653 113.729
148.973 99.4959 113.314
149.009 99.5715 113.207
148.816 99.4291 113.207
148.917 99.4847 113.566
148.803 99.1969 113.295
149.384 100.15 113.088
149.376 100.401 113.289
149.415 100.386 113.042
149.263 100.853 113.479
149.543 100.544 112.993
149.141 100.641 113.873
149.173 100.231 113.763
149.193 100.507 113.919
149.089 99.8735 113.731
149.162 100.93 113.811
149.133 100.885 114.045
149.142 100.413 114.018
147.337 99.4343 113.924
147.345 99.199 113.74
147.332 99.5212 113.69
147.503 98.8965 113.531
147.439 98.862 113.786
147.187 99.3594 114.025
147.146 99.7086 114.06
147.281 99.8322 113.695
147.266 99.6463 113.481
147.362 98.778 113.912
147.31 99.0189 114.076
147.328 98.6951 114.068
147.173 99.2193 114.302
147.446 98.6301 113.833
147.333 98.4999 114.143
147.131 98.7535 114.324
147.148 100.031 114.015
147.3 100.038 113.816
147.257 100.241 113.992
147.325 100.115 113.587
147.039 99.9805 114.24
147.283 100.338 114.1
147.376 100.348 113.892
147.275 99.4184 113.315
147.42 98.9852 113.327
147.243 99.1295 113.141
147.512 98.643 113.413
147.281 99.7363 113.338
147.259 99.1241 112.981
147.295 98.7848 113.023
146.082 100.179 115.225
146.512 100.097 114.742
146.279 100.601 115.047
146.963 99.9578 114.455
146.758 99.6563 114.592
145.865 99.6116 115.348
145.84 100.101 115.607
146.25 101.049 115.287
146.552 100.869 114.879
146.791 99.257 114.576
146.186 99.2227 114.933
146.683 98.9179 114.575
145.967 98.9585 115.303
146.806 98.6723 114.543
146.08 100.49 115.716
146.301 100.99 115.495
146.543 100.669 115.54
146.656 101.147 115.201
146.078 99.8353 115.761
146.831 100.453 115.609
147.063 100.649 115.351
146.791 100.731 114.645
147.008 100.264 114.445
147.103 100.517 114.308
146.771 101.078 114.79
147.3 100.545 114.155
148.511 98.1881 113.464
148.403 98.0541 113.676
148.535 98.2662 113.643
148.383 97.8329 113.725
148.327 97.803 113.663
148.533 97.8057 113.377
148.692 98.0508 113.275
148.578 98.5281 113.694
148.519 98.3587 113.829
148.338 97.7301 113.459
148.443 97.6031 113.331
148.309 97.4697 113.367
148.572 97.6439 113.24
148.213 97.6106 113.666
148.187 97.4684 113.366
148.253 97.4629 113.262
148.695 98.3938 113.263
148.67 98.5451 113.462
148.703 98.629 113.304
148.709 98.7045 113.648
148.745 98.1926 113.11
148.707 98.7931 113.216
148.719 98.9529 113.315
148.474 98.2826 113.9
148.395 98.067 113.851
148.381 98.2566 113.994
148.295 97.7974 113.849
148.52 98.5935 113.865
148.369 98.5722 114.095
148.342 98.1532 114.083
147.909 97.5407 113.969
147.711 97.5233 114.06
147.69 97.599 114.195
147.598 97.7931 114.027
147.757 97.6153 113.819
148.107 97.4475 113.827
148.115 97.6153 113.911
147.681 97.7517 114.302
147.409 97.7152 114.446
147.956 97.4765 113.664
148.112 97.4674 113.619
148.128 97.4385 113.473
147.792 97.7046 113.657
148.028 97.557 113.419
148.16 97.7868 113.974
147.968 97.7656 114.152
148.223 97.9106 114.101
147.693 98.0053 114.407
148.186 98.2371 114.213
147.179 97.9903 114.378
147.456 97.8998 114.12
147.181 98.1963 114.26
147.581 97.9978 113.913
147.04 98.0575 114.654
147.023 98.482 114.334
147.289 98.384 114.173
149.003 101.707 113.271
148.759 101.372 113.254
148.91 101.193 113.088
148.691 101.097 113.155
148.683 101.402 113.329
149.155 102.126 113.42
149.369 101.875 113.24
149.084 101.025 112.84
149.021 100.985 112.695
148.732 101.695 113.493
148.988 101.993 113.563
148.795 101.899 113.715
149.262 102.378 113.642
148.547 101.389 113.479
148.676 101.826 113.901
148.859 102.219 113.894
149.518 101.465 113.127
149.349 101.066 112.875
149.535 100.978 112.941
149.395 101.042 112.606
149.704 101.717 113.232
149.618 100.869 113.036
149.639 100.774 112.787
148.834 100.896 112.618
148.696 100.944 112.888
148.652 100.858 112.607
148.469 101.053 113.09
149.048 100.899 112.346
148.638 100.82 112.429
148.505 100.813 112.617
148.197 101.034 113.43
148.069 100.985 113.622
148.05 100.831 113.423
147.971 100.895 113.883
148.156 101.006 113.802
148.345 101.204 113.456
148.362 100.945 113.265
148.001 100.778 113.149
147.907 100.67 113.437
148.257 101.346 113.832
148.406 101.308 113.646
148.459 101.577 113.844
148.097 101.358 114.057
148.519 101.809 113.998
148.315 100.984 112.996
148.151 100.819 112.935
148.344 100.801 112.767
147.952 100.726 112.935
148.304 100.664 112.672
147.73 100.731 113.653
147.736 100.819 113.934
147.539 100.726 113.916
147.81 100.844 114.059
147.673 100.696 113.471
147.406 100.608 113.875
147.488 100.535 114.004
148.317 96.6223 111.947
147.927 96.5505 111.588
147.707 96.9746 112.355
147.621 97.3027 111.725
148.114 97.0428 111.417
148.607 96.9509 111.996
148.478 96.7302 112.351
147.707 97.1744 112.811
147.373 97.3351 112.628
148.694 97.017 111.263
148.945 96.8491 111.59
149.067 97.3013 111.43
148.791 97.2187 112.102
148.289 97.582 111.381
149.088 97.6542 111.464
149.017 97.7756 111.793
148.283 96.9759 112.732
147.998 97.1353 112.878
148.109 97.0904 113.047
147.676 97.3493 113.099
148.52 97.0582 112.685
148.162 97.2176 113.209
148.008 97.285 113.305
147.238 97.8344 112.586
147.254 97.9084 112.105
147.215 98.3523 112.684
147.45 98.0705 111.931
147.428 97.8044 112.95
147.315 98.4929 112.901
147.229 98.7642 112.709
147.895 98.8974 111.785
148.122 99.4182 111.798
147.786 99.5791 112.017
148.315 99.9067 111.771
148.44 99.3561 111.691
147.98 98.183 111.588
147.644 98.423 111.848
147.597 99.6324 112.283
147.751 99.9798 112.27
148.605 98.6202 111.484
148.451 98.1094 111.455
148.854 98.0606 111.433
148.799 99.2085 111.506
149.194 98.186 111.511
147.378 98.7427 112.137
147.454 99.2702 112.334
147.242 99.0397 112.504
147.492 99.5963 112.574
147.324 99.0351 112.804
148.068 100.178 112.307
148.282 100.311 112.014
148.271 100.411 112.324
148.595 100.422 111.722
147.832 100.132 112.479
148.235 100.554 112.534
148.457 100.591 112.343
148.624 99.7512 114.943
148.636 99.4772 114.695
148.38 99.4576 114.862
148.642 99.2694 114.417
148.955 99.4222 114.519
148.93 100.009 114.964
148.528 100.241 115.208
148.108 99.4548 115.024
148.171 99.2984 114.653
149.115 99.7179 114.4
149.14 100.004 114.6
149.158 100.177 114.287
149.146 100.364 114.878
149.006 99.5536 114.271
149.131 100.257 114.159
149.06 100.714 114.319
148.035 100.163 115.381
147.728 99.7127 115.351
147.539 100.218 115.538
147.61 99.3363 115.187
148.247 100.613 115.326
147.463 100.612 115.491
147.254 100.267 115.578
148.188 99.1572 114.509
148.342 99.2857 114.394
148.277 98.9965 114.376
148.637 99.1413 114.303
147.967 99.0693 114.547
148.261 98.6497 114.178
148.327 98.9281 114.198
148.737 101.705 114.907
148.628 101.523 115.252
148.383 101.766 115.018
148.469 101.083 115.333
148.97 101.012 115.156
148.995 101.811 114.726
149.007 102.007 114.575
148.415 101.525 114.641
148.167 101.464 114.87
149.261 100.913 114.711
149.25 101.436 114.555
149.271 100.968 114.382
149.429 101.809 114.296
149.105 101.161 114.247
148.805 102.055 114.363
148.539 101.708 114.379
148.683 101.803 114.149
148.306 101.52 114.461
149.097 102.344 114.259
148.746 102.213 114.05
148.57 101.853 114.063
147.907 101.273 115.213
148.028 101.015 115.329
147.651 100.934 115.343
147.909 101.1 114.778
147.36 100.861 115.364
148.836 98.0667 112.826
148.804 97.6464 112.815
148.731 98.02 112.942
148.667 97.361 112.722
148.8 97.4131 112.451
148.946 98.2815 112.683
148.932 98.4409 112.892
148.667 98.2176 113.085
148.654 97.8615 113.075
149.015 97.4645 112.185
149.083 97.9493 112.34
148.972 97.8838 112.113
148.836 98.6052 112.989
148.729 98.4885 113.14
148.825 98.713 113.162
148.606 97.4495 113.094
148.593 97.1112 112.908
148.412 97.2794 113.126
147.434 97.8945 113.344
147.528 98.245 113.472
147.628 98.0319 113.48
147.544 98.4644 113.697
147.483 98.4724 113.497
147.401 97.8638 113.191
147.466 97.579 113.246
147.72 97.9759 113.604
147.679 98.0807 113.689
147.255 98.457 113.24
147.369 98.125 113.1
147.366 98.4459 113.056
147.671 97.4511 113.265
147.844 97.7948 113.492
147.924 97.5441 113.352
147.491 98.1443 113.88
147.397 98.3522 113.839
147.369 98.2545 113.971
148.874 99.2437 113.793
148.805 98.9207 113.774
148.911 99.0486 113.916
148.645 98.7533 113.841
148.748 98.8504 113.767
148.858 99.459 113.708
148.973 99.5653 113.774
148.946 99.2971 114.111
148.855 99.0466 114.139
148.754 98.9318 113.582
148.866 99.1933 113.576
148.799 99.0519 113.383
148.991 99.7983 113.883
148.98 99.698 114.065
148.974 100.135 114.077
148.633 98.9224 114.139
148.592 98.7326 113.984
148.424 98.8779 114.107
147.107 98.3245 114.956
146.533 98.5695 115.415
147.239 98.7467 114.972
146.28 99.1559 115.67
146.035 98.7213 115.547
146.984 98.1162 114.909
147.441 98.239 114.555
147.641 98.9853 114.664
147.476 99.0794 114.996
146.267 98.4149 115.055
146.766 98.1974 114.828
146.681 98.4471 114.591
147.761 98.4387 114.445
147.88 98.7238 114.51
148.101 98.4975 114.263
147.157 99.3876 115.477
146.43 99.6174 115.823
146.881 99.9822 115.74
149.7 100.075 111.864
149.621 100.737 111.835
149.596 100.23 111.481
149.243 100.881 112.103
149.505 100.774 112.333
149.676 99.9909 112.292
149.584 99.5992 111.995
149.239 99.7099 111.352
149.044 100.384 111.521
149.551 100.816 112.546
149.668 100.378 112.542
149.645 100.584 112.689
149.497 99.2124 111.776
149.388 99.1208 111.401
149.324 98.72 111.648
148.843 100.535 111.881
148.99 100.88 112.049
148.7 100.652 112.182
147.541 100.446 113.175
147.405 100.206 113.219
147.499 100.25 112.995
147.288 100.02 113.334
147.4 100.155 113.419
147.584 100.6 113.271
147.75 100.597 113.047
147.665 100.141 112.773
147.497 99.9046 112.809
147.46 100.258 113.561
147.553 100.468 113.554
147.468 100.418 113.766
147.88 100.564 112.866
147.899 100.271 112.719
148.087 100.535 112.738
147.492 99.5477 112.845
147.262 99.7886 113.098
147.306 99.3792 112.916
149.668 101.793 113.625
149.496 101.366 113.725
149.585 101.788 113.848
149.313 101.211 113.819
149.33 101.097 113.588
149.786 101.762 113.408
149.524 102.254 113.668
149.401 102.222 113.991
149.625 101.87 113.886
149.411 100.914 113.363
149.689 101.234 113.298
149.527 100.832 113.124
149.226 102.465 113.855
149.185 102.29 114.003
148.912 102.399 114.029
149.453 101.489 113.953
149.233 101.239 113.908
149.117 101.268 114.137
147.281 101.346 114.74
147.546 101.448 114.431
147.559 101.563 114.657
147.837 101.449 114.236
147.612 101.203 114.281
147.037 101.183 114.708
146.964 101.254 114.959
147.704 101.254 114.749
147.948 101.461 114.583
147.485 100.957 114.235
147.17 100.938 114.491
147.338 100.767 114.207
147.103 101.104 115.113
147.499 101.126 115.016
147.274 100.905 115.155
148.172 101.564 114.357
148.061 101.643 114.184
148.351 101.619 114.1
POLYGONS 1280  5120
3 164 162 163
3 163 44 164
3 162 43 163
3 164 42 162
3 166 165 163
3 163 43 166
3 165 44 163
3 166 14 165
3 168 167 162
3 162 42 168
3 167 43 162
3 168 13 167
3 170 169 164
3 164 44 170
3 169 42 164
3 170 12 169
3 173 171 172
3 172 46 173
3 171 43 172
3 173 45 171
3 167 174 172
3 172 43 167
3 174 46 172
3 167 13 174
3 175 166 171
3 171 45 175
3 166 43 171
3 175 14 166
3 177 176 173
3 173 46 177
3 176 45 173
3 177 4 176
3 180 178 179
3 179 48 180
3 178 42 179
3 180 47 178
3 169 181 179
3 179 42 169
3 181 48 179
3 169 12 181
3 182 168 178
3 178 47 182
3 168 42 178
3 182 13 168
3 184 183 180
3 180 48 184
3 183 47 180
3 184 8 183
3 187 185 186
3 186 50 187
3 185 44 186
3 187 49 185
3 165 188 186
3 186 44 165
3 188 50 186
3 165 14 188
3 189 170 185
3 185 49 189
3 170 44 185
3 189 12 170
3 191 190 187
3 187 50 191
3 190 49 187
3 191 7 190
3 194 192 193
3 193 53 194
3 192 52 193
3 194 51 192
3 196 195 193
3 193 52 196
3 195 53 193
3 196 16 195
3 198 197 192
3 192 51 198
3 197 52 192
3 198 14 197
3 200 199 194
3 194 53 200
3 199 51 194
3 200 15 199
3 203 201 202
3 202 45 203
3 201 52 202
3 203 54 201
3 197 175 202
3 202 52 197
3 175 45 202
3 197 14 175
3 204 196 201
3 201 54 204
3 196 52 201
3 204 16 196
3 176 205 203
3 203 45 176
3 205 54 203
3 176 4 205
3 208 206 207
3 207 55 208
3 206 51 207
3 208 50 206
3 199 209 207
3 207 51 199
3 209 55 207
3 199 15 209
3 188 198 206
3 206 50 188
3 198 51 206
3 188 14 198
3 210 191 208
3 208 55 210
3 191 50 208
3 210 7 191
3 213 211 212
3 212 57 213
3 211 53 212
3 213 56 211
3 195 214 212
3 212 53 195
3 214 57 212
3 195 16 214
3 215 200 211
3 211 56 215
3 200 53 211
3 215 15 200
3 217 216 213
3 213 57 217
3 216 56 213
3 217 9 216
3 220 218 219
3 219 60 220
3 218 59 219
3 220 58 218
3 222 221 219
3 219 59 222
3 221 60 219
3 222 19 221
3 224 223 218
3 218 58 224
3 223 59 218
3 224 18 223
3 226 225 220
3 220 60 226
3 225 58 220
3 226 17 225
3 229 227 228
3 228 62 229
3 227 59 228
3 229 61 227
3 223 230 228
3 228 59 223
3 230 62 228
3 223 18 230
3 231 222 227
3 227 61 231
3 222 59 227
3 231 19 222
3 233 232 229
3 229 62 233
3 232 61 229
3 233 5 232
3 236 234 235
3 235 64 236
3 234 58 235
3 236 63 234
3 225 237 235
3 235 58 225
3 237 64 235
3 225 17 237
3 238 224 234
3 234 63 238
3 224 58 234
3 238 18 224
3 240 239 236
3 236 64 240
3 239 63 236
3 240 6 239
3 243 241 242
3 242 66 243
3 241 60 242
3 243 65 241
3 221 244 242
3 242 60 221
3 244 66 242
3 221 19 244
3 245 226 241
3 241 65 245
3 226 60 241
3 245 17 226
3 247 246 243
3 243 66 247
3 246 65 243
3 247 11 246
3 250 248 249
3 249 69 250
3 248 68 249
3 250 67 248
3 252 251 249
3 249 68 252
3 251 69 249
3 252 18 251
3 254 253 248
3 248 67 254
3 253 68 248
3 254 21 253
3 256 255 250
3 250 69 256
3 255 67 250
3 256 20 255
3 259 257 258
3 258 70 259
3 257 68 258
3 259 62 257
3 253 260 258
3 258 68 253
3 260 70 258
3 253 21 260
3 230 252 257
3 257 62 230
3 252 68 257
3 230 18 252
3 261 233 259
3 259 70 261
3 233 62 259
3 261 5 233
3 264 262 263
3 263 72 264
3 262 67 263
3 264 71 262
3 255 265 263
3 263 67 255
3 265 72 263
3 255 20 265
3 266 254 262
3 262 71 266
3 254 67 262
3 266 21 254
3 268 267 264
3 264 72 268
3 267 71 264
3 268 10 267
3 271 269 270
3 270 63 271
3 269 69 270
3 271 73 269
3 251 238 270
3 270 69 251
3 238 63 270
3 251 18 238
3 272 256 269
3 269 73 272
3 256 69 269
3 272 20 256
3 239 273 271
3 271 63 239
3 273 73 271
3 239 6 273
3 276 274 275
3 275 76 276
3 274 75 275
3 276 74 274
3 278 277 275
3 275 75 278
3 277 76 275
3 278 24 277
3 280 279 274
3 274 74 280
3 279 75 274
3 280 23 279
3 282 281 276
3 276 76 282
3 281 74 276
3 282 22 281
3 285 283 284
3 284 78 285
3 283 75 284
3 285 77 283
3 279 286 284
3 284 75 279
3 286 78 284
3 279 23 286
3 287 278 283
3 283 77 287
3 278 75 283
3 287 24 278
3 289 288 285
3 285 78 289
3 288 77 285
3 289 0 288
3 292 290 291
3 291 80 292
3 290 74 291
3 292 79 290
3 281 293 291
3 291 74 281
3 293 80 291
3 281 22 293
3 294 280 290
3 290 79 294
3 280 74 290
3 294 23 280
3 296 295 292
3 292 80 296
3 295 79 292
3 296 4 295
3 299 297 298
3 298 82 299
3 297 76 298
3 299 81 297
3 277 300 298
3 298 76 277
3 300 82 298
3 277 24 300
3 301 282 297
3 297 81 301
3 282 76 297
3 301 22 282
3 303 302 299
3 299 82 303
3 302 81 299
3 303 3 302
3 306 304 305
3 305 85 306
3 304 84 305
3 306 83 304
3 308 307 305
3 305 84 308
3 307 85 305
3 308 26 307
3 310 309 304
3 304 83 310
3 309 84 304
3 310 24 309
3 312 311 306
3 306 85 312
3 311 83 306
3 312 25 311
3 315 313 314
3 314 77 315
3 313 84 314
3 315 86 313
3 309 287 314
3 314 84 309
3 287 77 314
3 309 24 287
3 316 308 313
3 313 86 316
3 308 84 313
3 316 26 308
3 288 317 315
3 315 77 288
3 317 86 315
3 288 0 317
3 320 318 319
3 319 87 320
3 318 83 319
3 320 82 318
3 311 321 319
3 319 83 311
3 321 87 319
3 311 25 321
3 300 310 318
3 318 82 300
3 310 83 318
3 300 24 310
3 322 303 320
3 320 87 322
3 303 82 320
3 322 3 303
3 325 323 324
3 324 89 325
3 323 85 324
3 325 88 323
3 307 326 324
3 324 85 307
3 326 89 324
3 307 26 326
3 327 312 323
3 323 88 327
3 312 85 323
3 327 25 312
3 329 328 325
3 325 89 329
3 328 88 325
3 329 5 328
3 332 330 331
3 331 92 332
3 330 91 331
3 332 90 330
3 334 333 331
3 331 91 334
3 333 92 331
3 334 29 333
3 336 335 330
3 330 90 336
3 335 91 330
3 336 28 335
3 338 337 332
3 332 92 338
3 337 90 332
3 338 27 337
3 341 339 340
3 340 94 341
3 339 91 340
3 341 93 339
3 335 342 340
3 340 91 335
3 342 94 340
3 335 28 342
3 343 334 339
3 339 93 343
3 334 91 339
3 343 29 334
3 345 344 341
3 341 94 345
3 344 93 341
3 345 2 344
3 348 346 347
3 347 96 348
3 346 90 347
3 348 95 346
3 337 349 347
3 347 90 337
3 349 96 347
3 337 27 349
3 350 336 346
3 346 95 350
3 336 90 346
3 350 28 336
3 352 351 348
3 348 96 352
3 351 95 348
3 352 7 351
3 355 353 354
3 354 98 355
3 353 92 354
3 355 97 353
3 333 356 354
3 354 92 333
3 356 98 354
3 333 29 356
3 357 338 353
3 353 97 357
3 338 92 353
3 357 27 338
3 359 358 355
3 355 98 359
3 358 97 355
3 359 1 358
3 362 360 361
3 361 101 362
3 360 100 361
3 362 99 360
3 364 363 361
3 361 100 364
3 363 101 361
3 364 31 363
3 366 365 360
3 360 99 366
3 365 100 360
3 366 29 365
3 368 367 362
3 362 101 368
3 367 99 362
3 368 30 367
3 371 369 370
3 370 93 371
3 369 100 370
3 371 102 369
3 365 343 370
3 370 100 365
3 343 93 370
3 365 29 343
3 372 364 369
3 369 102 372
3 364 100 369
3 372 31 364
3 344 373 371
3 371 93 344
3 373 102 371
3 344 2 373
3 376 374 375
3 375 103 376
3 374 99 375
3 376 98 374
3 367 377 375
3 375 99 367
3 377 103 375
3 367 30 377
3 356 366 374
3 374 98 356
3 366 99 374
3 356 29 366
3 378 359 376
3 376 103 378
3 359 98 376
3 378 1 359
3 381 379 380
3 380 105 381
3 379 101 380
3 381 104 379
3 363 382 380
3 380 101 363
3 382 105 380
3 363 31 382
3 383 368 379
3 379 104 383
3 368 101 379
3 383 30 368
3 385 384 381
3 381 105 385
3 384 104 381
3 385 6 384
3 388 386 387
3 387 108 388
3 386 107 387
3 388 106 386
3 390 389 387
3 387 107 390
3 389 108 387
3 390 34 389
3 392 391 386
3 386 106 392
3 391 107 386
3 392 33 391
3 394 393 388
3 388 108 394
3 393 106 388
3 394 32 393
3 397 395 396
3 396 110 397
3 395 107 396
3 397 109 395
3 391 398 396
3 396 107 391
3 398 110 396
3 391 33 398
3 399 390 395
3 395 109 399
3 390 107 395
3 399 34 390
3 401 400 397
3 397 110 401
3 400 109 397
3 401 8 400
3 404 402 403
3 403 112 404
3 402 106 403
3 404 111 402
3 393 405 403
3 403 106 393
3 405 112 403
3 393 32 405
3 406 392 402
3 402 111 406
3 392 106 402
3 406 33 392
3 408 407 404
3 404 112 408
3 407 111 404
3 408 0 407
3 411 409 410
3 410 114 411
3 409 108 410
3 411 113 409
3 389 412 410
3 410 108 389
3 412 114 410
3 389 34 412
3 413 394 409
3 409 113 413
3 394 108 409
3 413 32 394
3 415 414 411
3 411 114 415
3 414 113 411
3 415 11 414
3 418 416 417
3 417 117 418
3 416 116 417
3 418 115 416
3 420 419 417
3 417 116 420
3 419 117 417
3 420 36 419
3 422 421 416
3 416 115 422
3 421 116 416
3 422 34 421
3 424 423 418
3 418 117 424
3 423 115 418
3 424 35 423
3 427 425 426
3 426 109 427
3 425 116 426
3 427 118 425
3 421 399 426
3 426 116 421
3 399 109 426
3 421 34 399
3 428 420 425
3 425 118 428
3 420 116 425
3 428 36 420
3 400 429 427
3 427 109 400
3 429 118 427
3 400 8 429
3 432 430 431
3 431 119 432
3 430 115 431
3 432 114 430
3 423 433 431
3 431 115 423
3 433 119 431
3 423 35 433
3 412 422 430
3 430 114 412
3 422 115 430
3 412 34 422
3 434 415 432
3 432 119 434
3 415 114 432
3 434 11 415
3 437 435 436
3 436 121 437
3 435 117 436
3 437 120 435
3 419 438 436
3 436 117 419
3 438 121 436
3 419 36 438
3 439 424 435
3 435 120 439
3 424 117 435
3 439 35 424
3 441 440 437
3 437 121 441
3 440 120 437
3 441 1 440
3 444 442 443
3 443 124 444
3 442 123 443
3 444 122 442
3 446 445 443
3 443 123 446
3 445 124 443
3 446 39 445
3 448 447 442
3 442 122 448
3 447 123 442
3 448 38 447
3 450 449 444
3 444 124 450
3 449 122 444
3 450 37 449
3 453 451 452
3 452 126 453
3 451 123 452
3 453 125 451
3 447 454 452
3 452 123 447
3 454 126 452
3 447 38 454
3 455 446 451
3 451 125 455
3 446 123 451
3 455 39 446
3 457 456 453
3 453 126 457
3 456 125 453
3 457 9 456
3 460 458 459
3 459 128 460
3 458 122 459
3 460 127 458
3 449 461 459
3 459 122 449
3 461 128 459
3 449 37 461
3 462 448 458
3 458 127 462
3 448 122 458
3 462 38 448
3 464 463 460
3 460 128 464
3 463 127 460
3 464 10 463
3 467 465 466
3 466 130 467
3 465 124 466
3 467 129 465
3 445 468 466
3 466 124 445
3 468 130 466
3 445 39 468
3 469 450 465
3 465 129 469
3 450 124 465
3 469 37 450
3 471 470 467
3 467 130 471
3 470 129 467
3 471 3 470
3 474 472 473
3 473 133 474
3 472 132 473
3 474 131 472
3 476 475 473
3 473 132 476
3 475 133 473
3 476 38 475
3 478 477 472
3 472 131 478
3 477 132 472
3 478 41 477
3 480 479 474
3 474 133 480
3 479 131 474
3 480 40 479
3 483 481 482
3 482 134 483
3 481 132 482
3 483 126 481
3 477 484 482
3 482 132 477
3 484 134 482
3 477 41 484
3 454 476 481
3 481 126 454
3 476 132 481
3 454 38 476
3 485 457 483
3 483 134 485
3 457 126 483
3 485 9 457
3 488 486 487
3 487 136 488
3 486 131 487
3 488 135 486
3 479 489 487
3 487 131 479
3 489 136 487
3 479 40 489
3 490 478 486
3 486 135 490
3 478 131 486
3 490 41 478
3 492 491 488
3 488 136 492
3 491 135 488
3 492 2 491
3 495 493 494
3 494 127 495
3 493 133 494
3 495 137 493
3 475 462 494
3 494 133 475
3 462 127 494
3 475 38 462
3 496 480 493
3 493 137 496
3 480 133 493
3 496 40 480
3 463 497 495
3 495 127 463
3 497 137 495
3 463 10 497
3 500 498 499
3 499 140 500
3 498 139 499
3 500 138 498
3 502 501 499
3 499 139 502
3 501 140 499
3 502 33 501
3 504 503 498
3 498 138 504
3 503 139 498
3 504 13 503
3 506 505 500
3 500 140 506
3 505 138 500
3 506 23 505
3 509 507 508
3 508 47 509
3 507 139 508
3 509 110 507
3 503 182 508
3 508 139 503
3 182 47 508
3 503 13 182
3 398 502 507
3 507 110 398
3 502 139 507
3 398 33 502
3 183 401 509
3 509 47 183
3 401 110 509
3 183 8 401
3 512 510 511
3 511 79 512
3 510 138 511
3 512 46 510
3 505 294 511
3 511 138 505
3 294 79 511
3 505 23 294
3 174 504 510
3 510 46 174
3 504 138 510
3 174 13 504
3 295 177 512
3 512 79 295
3 177 46 512
3 295 4 177
3 515 513 514
3 514 111 515
3 513 140 514
3 515 78 513
3 501 406 514
3 514 140 501
3 406 111 514
3 501 33 406
3 286 506 513
3 513 78 286
3 506 140 513
3 286 23 506
3 407 289 515
3 515 111 407
3 289 78 515
3 407 0 289
3 518 516 517
3 517 143 518
3 516 142 517
3 518 141 516
3 520 519 517
3 517 142 520
3 519 143 517
3 520 19 519
3 522 521 516
3 516 141 522
3 521 142 516
3 522 32 521
3 524 523 518
3 518 143 524
3 523 141 518
3 524 26 523
3 527 525 526
3 526 113 527
3 525 142 526
3 527 66 525
3 521 413 526
3 526 142 521
3 413 113 526
3 521 32 413
3 244 520 525
3 525 66 244
3 520 142 525
3 244 19 520
3 414 247 527
3 527 113 414
3 247 66 527
3 414 11 247
3 530 528 529
3 529 86 530
3 528 141 529
3 530 112 528
3 523 316 529
3 529 141 523
3 316 86 529
3 523 26 316
3 405 522 528
3 528 112 405
3 522 141 528
3 405 32 522
3 317 408 530
3 530 86 317
3 408 112 530
3 317 0 408
3 533 531 532
3 532 61 533
3 531 143 532
3 533 89 531
3 519 231 532
3 532 143 519
3 231 61 532
3 519 19 231
3 326 524 531
3 531 89 326
3 524 143 531
3 326 26 524
3 232 329 533
3 533 61 232
3 329 89 533
3 232 5 329
3 536 534 535
3 535 146 536
3 534 145 535
3 536 144 534
3 538 537 535
3 535 145 538
3 537 146 535
3 538 22 537
3 540 539 534
3 534 144 540
3 539 145 534
3 540 16 539
3 542 541 536
3 536 146 542
3 541 144 536
3 542 39 541
3 545 543 544
3 544 54 545
3 543 145 544
3 545 80 543
3 539 204 544
3 544 145 539
3 204 54 544
3 539 16 204
3 293 538 543
3 543 80 293
3 538 145 543
3 293 22 538
3 205 296 545
3 545 54 205
3 296 80 545
3 205 4 296
3 548 546 547
3 547 125 548
3 546 144 547
3 548 57 546
3 541 455 547
3 547 144 541
3 455 125 547
3 541 39 455
3 214 540 546
3 546 57 214
3 540 144 546
3 214 16 540
3 456 217 548
3 548 125 456
3 217 57 548
3 456 9 217
3 551 549 550
3 550 81 551
3 549 146 550
3 551 130 549
3 537 301 550
3 550 146 537
3 301 81 550
3 537 22 301
3 468 542 549
3 549 130 468
3 542 146 549
3 468 39 542
3 302 471 551
3 551 81 302
3 471 130 551
3 302 3 471
3 554 552 553
3 553 149 554
3 552 148 553
3 554 147 552
3 556 555 553
3 553 148 556
3 555 149 553
3 556 21 555
3 558 557 552
3 552 147 558
3 557 148 552
3 558 25 557
3 560 559 554
3 554 149 560
3 559 147 554
3 560 37 559
3 563 561 562
3 562 88 563
3 561 148 562
3 563 70 561
3 557 327 562
3 562 148 557
3 327 88 562
3 557 25 327
3 260 556 561
3 561 70 260
3 556 148 561
3 260 21 556
3 328 261 563
3 563 88 328
3 261 70 563
3 328 5 261
3 566 564 565
3 565 129 566
3 564 147 565
3 566 87 564
3 559 469 565
3 565 147 559
3 469 129 565
3 559 37 469
3 321 558 564
3 564 87 321
3 558 147 564
3 321 25 558
3 470 322 566
3 566 129 470
3 322 87 566
3 470 3 322
3 569 567 568
3 568 71 569
3 567 149 568
3 569 128 567
3 555 266 568
3 568 149 555
3 266 71 568
3 555 21 266
3 461 560 567
3 567 128 461
3 560 149 567
3 461 37 560
3 267 464 569
3 569 71 267
3 464 128 569
3 267 10 464
3 572 570 571
3 571 152 572
3 570 151 571
3 572 150 570
3 574 573 571
3 571 151 574
3 573 152 571
3 574 27 573
3 576 575 570
3 570 150 576
3 575 151 570
3 576 12 575
3 578 577 572
3 572 152 578
3 577 150 572
3 578 36 577
3 581 579 580
3 580 49 581
3 579 151 580
3 581 96 579
3 575 189 580
3 580 151 575
3 189 49 580
3 575 12 189
3 349 574 579
3 579 96 349
3 574 151 579
3 349 27 574
3 190 352 581
3 581 49 190
3 352 96 581
3 190 7 352
3 584 582 583
3 583 118 584
3 582 150 583
3 584 48 582
3 577 428 583
3 583 150 577
3 428 118 583
3 577 36 428
3 181 576 582
3 582 48 181
3 576 150 582
3 181 12 576
3 429 184 584
3 584 118 429
3 184 48 584
3 429 8 184
3 587 585 586
3 586 97 587
3 585 152 586
3 587 121 585
3 573 357 586
3 586 152 573
3 357 97 586
3 573 27 357
3 438 578 585
3 585 121 438
3 578 152 585
3 438 36 578
3 358 441 587
3 587 97 358
3 441 121 587
3 358 1 441
3 590 588 589
3 589 155 590
3 588 154 589
3 590 153 588
3 592 591 589
3 589 154 592
3 591 155 589
3 592 17 591
3 594 593 588
3 588 153 594
3 593 154 588
3 594 30 593
3 596 595 590
3 590 155 596
3 595 153 590
3 596 35 595
3 599 597 598
3 598 104 599
3 597 154 598
3 599 64 597
3 593 383 598
3 598 154 593
3 383 104 598
3 593 30 383
3 237 592 597
3 597 64 237
3 592 154 597
3 237 17 592
3 384 240 599
3 599 104 384
3 240 64 599
3 384 6 240
3 602 600 601
3 601 120 602
3 600 153 601
3 602 103 600
3 595 439 601
3 601 153 595
3 439 120 601
3 595 35 439
3 377 594 600
3 600 103 377
3 594 153 600
3 377 30 594
3 440 378 602
3 602 120 440
3 378 103 602
3 440 1 378
3 605 603 604
3 604 65 605
3 603 155 604
3 605 119 603
3 591 245 604
3 604 155 591
3 245 65 604
3 591 17 245
3 433 596 603
3 603 119 433
3 596 155 603
3 433 35 596
3 246 434 605
3 605 65 246
3 434 119 605
3 246 11 434
3 608 606 607
3 607 158 608
3 606 157 607
3 608 156 606
3 610 609 607
3 607 157 610
3 609 158 607
3 610 15 609
3 612 611 606
3 606 156 612
3 611 157 606
3 612 28 611
3 614 613 608
3 608 158 614
3 613 156 608
3 614 41 613
3 617 615 616
3 616 95 617
3 615 157 616
3 617 55 615
3 611 350 616
3 616 157 611
3 350 95 616
3 611 28 350
3 209 610 615
3 615 55 209
3 610 157 615
3 209 15 610
3 351 210 617
3 617 95 351
3 210 55 617
3 351 7 210
3 620 618 619
3 619 135 620
3 618 156 619
3 620 94 618
3 613 490 619
3 619 156 613
3 490 135 619
3 613 41 490
3 342 612 618
3 618 94 342
3 612 156 618
3 342 28 612
3 491 345 620
3 620 135 491
3 345 94 620
3 491 2 345
3 623 621 622
3 622 56 623
3 621 158 622
3 623 134 621
3 609 215 622
3 622 158 609
3 215 56 622
3 609 15 215
3 484 614 621
3 621 134 484
3 614 158 621
3 484 41 614
3 216 485 623
3 623 56 216
3 485 134 623
3 216 9 485
3 626 624 625
3 625 161 626
3 624 160 625
3 626 159 624
3 628 627 625
3 625 160 628
3 627 161 625
3 628 31 627
3 630 629 624
3 624 159 630
3 629 160 624
3 630 20 629
3 632 631 626
3 626 161 632
3 631 159 626
3 632 40 631
3 635 633 634
3 634 73 635
3 633 160 634
3 635 105 633
3 629 272 634
3 634 160 629
3 272 73 634
3 629 20 272
3 382 628 633
3 633 105 382
3 628 160 633
3 382 31 628
3 273 385 635
3 635 73 273
3 385 105 635
3 273 6 385
3 638 636 637
3 637 137 638
3 636 159 637
3 638 72 636
3 631 496 637
3 637 159 631
3 496 137 637
3 631 40 496
3 265 630 636
3 636 72 265
3 630 159 636
3 265 20 630
3 497 268 638
3 638 137 497
3 268 72 638
3 497 10 268
3 641 639 640
3 640 102 641
3 639 161 640
3 641 136 639
3 627 372 640
3 640 161 627
3 372 102 640
3 627 31 372
3 489 632 639
3 639 136 489
3 632 161 639
3 489 40 632
3 373 492 641
3 641 102 373
3 492 136 641
3 373 2 492
