# vtk DataFile Version 3.0
this file was written using fslvtkio
ASCII
DATASET POLYDATA
POINTS 642 float
139.784 98.7701 130.489
137.929 120.582 134.219
136.066 117.359 142.954
137.681 103.171 140.313
150.381 100.341 132.776
129.207 106.501 140.736
126.27 117.857 143.36
148.951 113.707 135.075
144.339 107.937 128.256
142.147 109.134 143.116
131.887 111.587 147.558
133.346 110.601 130.998
148.354 110.657 131.805
148.892 103.543 130.519
152.151 106.747 134.259
146.868 111.269 139.785
147.558 103.961 138.615
129.575 114.387 137.399
124.012 112.279 142.613
130.657 107.861 135.71
126.658 114.832 146.812
127.985 108.634 145.268
143.987 102.07 136.197
147.261 97.639 129.388
139.321 100.584 134.894
132.836 104.437 141.576
134.599 103.246 134.609
144.55 117.379 133.236
142.776 115.357 138.225
137.071 120.087 139.215
132.684 117.995 138.322
130.516 118.426 144.616
136.191 103.344 128.736
143.209 101.467 126.692
139.539 109.6 127.225
134.657 117.093 131.577
142.22 115.566 128.848
134.258 107.532 144.827
138.415 110.098 145.524
139.848 105.832 142.854
132.857 115.592 146.704
139.899 113.702 143.651
148.555 107.215 131.122
151.756 104.371 131.457
151.86 108.853 132.016
152.865 102.784 133.288
151.212 100.376 130.228
145.634 105.866 129.962
145.413 109.41 130.579
150.359 112.821 132.445
151.856 110.464 134.987
150.246 109.052 137.629
150.793 104.526 136.672
147.255 107.602 139.633
149.423 101.548 135.673
148.242 112.789 137.781
144.307 109.952 140.906
144.614 106.491 140.298
126.415 113.324 140.442
127.074 110.154 139.425
129.696 111.167 137.091
129.398 107.29 138.621
125.763 108.956 142.35
123.649 115.852 143.879
127.334 116.009 140.469
131.248 112.633 134.046
131.652 109.09 133.1
126.777 111.685 145.812
125.329 110.651 143.909
124.889 113.624 144.349
128.053 107.15 143.441
129.613 110.196 146.871
128.901 113.062 147.64
124.984 117.303 146.145
145.848 99.3496 132.48
143.082 99.1298 132.586
141.803 101.352 135.472
139.238 99.2258 132.674
143.089 98.8442 130.482
149.266 98.0687 130.522
147.24 100.785 133.974
140.536 103.057 138.122
138.378 103.148 137.534
136.111 103.324 138.488
136.916 101.663 134.41
133.898 103.41 138.235
136.512 99.7844 132.381
135.367 103.347 140.758
131.147 105.687 141.194
132.163 105.241 137.864
144.434 116.434 135.237
140.447 117.371 138.086
140.96 119.268 136.265
136.828 117.448 140.429
139.309 116.049 140.41
145.922 114.513 136.348
147.676 115.973 133.45
140.88 119.355 134.059
137.233 120.904 136.848
134.624 120.121 139.025
133.709 118.964 142.137
131.215 118.39 141.619
133.387 118.455 143.896
134.748 120.166 135.948
129.098 118.131 140.968
128.023 118.219 144.642
139.761 101.667 126.574
141.596 104.679 125.678
137.763 106.138 127.341
142.537 108.715 126.535
144.018 104.544 127.157
141.587 99.2604 128.039
137.768 100.362 129.265
134.449 107.199 129.667
136.362 110.188 128.993
137.008 113.852 128.977
140.912 113.049 127.292
138.38 117.187 129.562
143.804 111.635 128.171
133.602 113.98 131.088
136.264 119.044 132.828
140.328 118.58 131.478
137.098 107.891 146.244
139.586 107.179 146.785
137.988 105.225 145.326
141.442 106.783 143.331
140.774 110.135 146.642
135.302 110.884 146.015
132.812 109.335 146.513
135.901 105.545 143.015
138.919 104.698 141.716
137.231 114.551 145.288
139.017 113.512 147.245
136.625 112.193 145.249
141.299 111.778 143.669
138.122 115.627 143.06
134.24 116.947 145.519
131.62 113.692 146.868
148.108 100.24 129.365
145.342 103.008 129.202
144.807 99.652 128.282
134.807 102.222 131.608
132.936 105.469 131.741
132.439 105.216 135.229
143.582 104.784 140.031
146.099 102.554 137.025
141.841 103.543 139.553
133.318 104.814 143.828
130.389 106.567 143.977
131.3 107.382 145.845
144.629 112.528 130.94
147.039 114.302 131.845
143.855 116.201 131.017
133.101 118.661 135.113
130.556 116.934 138.003
131.68 116.092 134.26
141.175 114.93 141.018
145.114 113.529 138.81
143.289 112.601 141.123
129.335 115.902 147.669
127.95 117.701 146.788
131.508 117.935 146.298
150.232 105.904 131.27
151.173 106.734 131.905
150.225 107.699 131.501
152.476 107.528 132.624
152.415 105.727 132.434
150.403 103.918 130.952
148.754 105.331 130.835
148.773 109.024 131.328
150.337 109.656 131.925
152.827 103.55 131.874
151.651 102.393 130.903
152.461 101.923 131.563
150.203 102.093 130.558
152.471 104.824 133.597
152.053 101.256 132.773
151.6 100.565 131.486
147.263 106.428 130.51
147.234 108.318 130.878
145.57 107.707 130.317
146.895 109.915 131.112
147.294 104.851 130.168
145.15 106.809 128.851
144.974 108.652 129.104
151.504 110.828 132.368
152.594 109.469 133.264
151.55 111.428 133.846
152.253 108.431 134.461
149.676 111.351 132.285
150.122 113.196 133.81
150.451 112.228 135.282
150.604 106.731 136.879
149.536 106.105 138.582
149.157 108.141 138.938
147.577 105.691 139.527
149.84 103.732 138.211
151.722 105.464 135.319
151.666 107.854 135.947
148.932 110.485 139.647
147.007 109.42 139.817
150.541 102.77 136.204
152.481 103.444 134.783
151.327 101.866 134.296
148.743 102.271 137.494
150.176 100.934 134.1
151.514 109.803 136.419
149.53 111.021 138.158
150.059 111.709 136.637
147.759 112.403 139.365
148.664 113.166 136.408
145.845 108.698 139.8
146.066 106.842 139.287
144.472 108.189 140.57
146.184 105.398 138.987
145.762 110.386 140.125
143.25 109.382 141.781
143.328 107.908 141.579
126.875 111.783 139.817
128.345 110.832 138.034
128.347 112.156 138.557
130.112 109.597 136.309
128.889 109.252 137.498
125.37 111.128 140.971
124.93 112.797 141.672
128.262 113.488 138.598
129.712 112.662 137.455
128.062 108.56 138.821
126.205 109.498 140.81
127.349 108.001 140.234
124.931 110.435 142.115
129.688 108.005 137.409
128.862 106.691 139.72
127.194 107.597 141.386
124.813 114.47 141.962
127.131 114.447 140.143
125.594 115.728 141.92
128.41 115.187 138.746
123.801 114.169 142.757
125.067 116.625 143.261
126.381 116.921 141.955
130.553 111.857 135.677
130.538 110.382 135.163
131.169 111.019 133.881
130.963 108.506 134.37
130.429 113.589 135.808
132.123 111.591 132.451
132.334 109.824 132.057
126.028 111.312 144.536
124.545 112.198 143.82
125.816 112.555 144.715
123.811 113.476 143.597
124.54 110.989 143.034
126.577 109.977 144.578
127.099 110.274 145.469
126.624 113.171 145.96
125.859 113.941 145.22
125.381 109.254 143.619
126.541 108.939 144.321
126.929 107.598 142.785
127.483 108.405 144.632
128.568 106.908 141.937
128.13 110.734 146.578
127.833 112.223 146.943
128.913 111.56 147.697
127.572 113.714 147.1
128.251 109.551 146.167
130.603 110.807 147.562
130.215 112.306 147.91
124.79 115.352 145.48
124.026 114.689 144.624
124.182 117.101 144.814
125.705 115.437 146.397
125.465 117.689 144.704
144.421 99.4494 132.704
142.309 100.198 134.054
143.647 100.492 134.194
140.752 100.71 135.003
141.284 99.5961 133.695
145.238 98.4629 131.156
146.783 98.0248 130.91
144.817 100.731 134.115
143.259 101.537 135.518
140.9 99.4968 132.897
143.109 99.1613 131.601
141.153 98.6636 131.752
145.075 98.7098 130.213
139.521 99.9356 133.658
139.622 98.6112 131.533
141.452 98.8958 130.548
147.578 98.5428 131.45
146.46 100.231 133.378
148.542 99.2756 132.12
145.403 101.497 135.053
148.654 96.938 129.602
150.141 99.2894 131.302
148.962 100.314 133.151
141.307 102.56 136.571
139.977 102.257 136.213
139.469 103.313 137.801
139.251 101.577 136.031
142.284 102.662 137.079
138.941 103.491 139.227
137.974 103.86 138.924
136.571 102.464 136.79
135.481 103.403 136.582
134.669 103.618 138.997
134.608 103.885 136.042
135.871 102.331 134.3
137.984 101.118 135.103
137.802 102.229 136.78
134.278 103.801 140.205
133.368 103.95 139.989
136.643 100.645 133.387
137.955 100.536 133.658
138.03 99.2133 132.54
135.317 101.436 133.487
138.068 99.2833 131.431
137.297 103.119 137.81
135.39 104.252 140.017
136.713 104.076 139.553
134.099 103.829 141.176
136.642 103.099 140.46
132.781 104.9 139.708
133.296 104.127 137.936
131.882 105.637 139.548
133.467 104.44 136.375
132.128 105.115 141.174
130.148 106.006 141.087
130.723 105.873 139.359
142.33 117.265 136.754
141.067 118.504 137.05
142.836 117.629 135.56
139.015 119.784 137.845
139.111 118.578 138.433
141.9 116.308 137.793
143.446 116.078 136.666
144.928 117.045 134.197
143.184 117.806 134.556
138.46 117.464 139.163
140.114 116.183 138.834
138.218 116.454 140.251
141.142 115.734 139.024
137.151 118.64 139.369
136.545 117.12 141.425
137.571 116.739 141.602
145.325 115.453 135.723
146.183 116.332 134.46
147.152 114.987 134.618
146.499 116.943 133.1
144.229 114.968 137.227
147.45 114.114 135.533
148.548 114.711 134.128
140.704 119.704 135.731
138.65 120.731 137.337
139.045 120.793 136.053
137.267 120.789 138.126
142.415 118.305 133.829
139.215 120.428 134.566
137.487 121.491 135.868
133.706 119.875 141.126
132.249 119.555 141.978
132.626 119.749 140.819
130.925 118.874 142.9
131.962 119.162 143.062
135.353 119.127 140.606
135.618 120.181 139.568
133.713 119.23 138.72
131.916 119.139 140.218
133.371 118.237 142.753
135.607 117.859 140.831
134.875 117.342 142.277
132.029 118.586 144.038
134.873 117.959 143.358
136.22 120.15 137.471
135.053 119.437 137.118
136.158 120.639 136.22
133.799 118.916 137.208
136.363 120.822 135.092
130.218 118.499 141.431
129.558 118.377 143.206
128.366 118.294 142.81
129.346 118.372 144.579
130.716 118.449 139.966
127.549 117.907 142.115
126.931 118.282 144.226
140.562 103.18 125.87
139.659 105.412 126.397
138.806 103.827 126.548
138.846 107.624 127.176
140.363 106.963 126.467
142.333 102.574 125.596
141.493 101.369 126.101
137.933 102.5 127.27
137.102 104.389 127.51
142.02 106.561 126.146
143.148 104.206 125.735
143.295 106.275 126.588
143.558 102.912 126.767
141.088 108.876 126.597
143.376 108.366 127.477
144.311 106.29 127.689
140.629 100.025 126.952
138.577 100.85 127.716
139.692 99.4898 128.376
136.764 101.848 128.895
142.356 100.302 127.057
140.623 98.8457 129.314
138.706 99.3955 129.98
136.109 106.499 128.303
137.217 108.214 128.198
135.376 108.528 129.111
138.033 109.924 128.134
135.354 105.163 128.862
133.958 109.055 130.494
134.825 110.443 129.872
138.97 113.449 127.859
139.671 115.235 128.069
137.898 115.517 128.82
140.183 116.663 128.987
141.42 114.74 127.898
139.93 111.447 127.303
138.257 111.898 128.079
135.903 115.773 129.79
136.585 117.09 130.259
142.606 112.65 127.228
141.575 110.841 126.837
143.243 110.446 126.938
143.237 113.643 128.299
144.271 109.653 127.999
136.645 111.965 128.977
135.197 114.074 129.729
134.959 112.357 129.933
134.326 115.544 131.128
133.37 112.206 130.921
137.29 118.298 131.108
139.208 118.363 130.432
138.123 119.061 132.133
141.132 117.257 129.957
135.4 118.089 132.147
137.027 119.863 133.623
139.27 119.517 132.934
137.788 107.176 147.211
138.463 105.147 147.356
137.508 106.304 146.039
138.916 105.596 145.193
139.427 106.186 145.861
138.89 108.131 146.375
137.927 108.26 146.027
135.997 107.944 145.624
136.372 106.993 144.455
140.349 107.141 145.01
140.189 108.447 146.265
141.347 108.263 145.063
139.3 110.059 146.38
140.334 106.174 143.438
142.059 107.875 143.164
141.613 109.683 144.815
136.484 109.267 145.819
135.255 109.073 146.037
134.366 110.119 146.54
133.864 108.491 145.785
137.355 110.036 145.441
133.368 111.363 146.748
132.121 110.332 147.156
137.192 106.309 143.346
138.435 105.538 143.505
137.656 105.455 142.348
139.181 105.595 142.547
135.322 106.685 143.484
136.838 104.07 141.944
138.328 103.753 141.01
137.776 114.583 146.564
137.988 112.767 145.993
136.989 112.823 144.827
137.587 111.373 145.699
138.421 112.031 147.016
139.366 113.907 145.908
138.757 114.454 144.967
135.265 114.728 145.367
134.498 113.682 145.801
139.838 111.832 147.021
140.155 112.622 145.639
140.977 111.299 145.371
140.441 112.766 143.711
142.101 110.488 143.551
137.664 115.067 144.243
135.875 115.252 144.799
136.574 115.904 144.117
133.817 116.322 146.047
139.105 114.716 143.433
137.208 116.662 142.999
135.432 117.337 144.401
133.815 112.902 146.062
135.902 111.752 145.576
133.43 112.13 146.293
132.205 114.581 146.731
131.781 112.714 147.229
146.709 101.957 129.518
145.061 101.41 128.673
146.203 100.285 129.274
144.17 100.182 127.241
144.519 102.045 127.593
147.221 103.386 129.882
148.527 101.888 129.909
147.608 98.5514 128.958
145.543 99.0054 129.263
144.795 103.525 127.917
145.51 104.418 129.631
144.939 105.186 128.455
149.39 100.589 130.11
148.856 98.2929 129.237
150.488 98.7974 130.062
143.962 99.0748 129.288
143.26 99.4076 128.109
142.258 98.9118 129.34
133.647 103.864 131.672
132.426 105.251 133.611
133.458 103.555 133.239
131.327 106.564 135.788
131.685 106.785 133.815
134.579 104.333 130.041
135.294 102.782 130.274
134.486 102.12 133.125
133.796 104.113 134.668
132.098 107.316 132.51
133.685 106.182 130.558
132.881 108.198 131.272
136.345 101.394 130.396
135.594 100.906 132.045
137.083 99.9264 130.872
132.3 105.339 136.568
130.947 106.649 137.147
130.747 106.022 138.3
144.725 103.596 138.662
143.836 103.133 138.224
142.748 103.95 139.905
143.057 102.735 137.769
144.965 102.27 136.74
147.007 103.265 137.358
145.767 104.393 138.62
141.74 105.184 141.357
140.877 104.71 141.153
146.528 101.529 135.511
147.776 101.788 136.284
148.468 100.947 134.652
144.274 105.511 140.167
142.051 106.026 141.699
142.838 106.894 141.721
140.27 104.054 140.677
141.215 103.238 138.754
139.656 103.293 139.945
131.756 105.81 144.067
130.381 107.125 145.218
132.076 106.127 145.09
129.398 108.108 145.865
129.199 107.524 144.812
131.617 105.339 142.821
132.978 104.551 142.858
133.612 105.787 144.57
132.794 107.436 145.559
128.762 107.116 144.257
130.594 105.919 142.893
129.62 106.341 142.49
134.355 103.608 142.292
134.572 105.109 143.513
135.621 103.807 142.044
131.825 108.292 146.03
129.538 108.851 146.551
130.977 109.567 146.875
145.949 113.084 131.613
145.058 115.064 131.917
144.461 114.262 130.8
143.876 116.829 132.39
145.999 116.289 132.208
147.657 112.365 131.824
146.494 111.461 131.358
143.771 113.911 129.541
143.161 115.806 129.892
147.569 115.407 132.357
148.694 113.14 132.336
149.049 114.673 132.918
145.006 110.978 130.878
144.417 112.095 129.313
144.948 110.309 129.101
142.198 117.247 131.008
142.669 117.793 132.308
140.857 119.075 132.667
131.989 117.697 136.396
131.102 116.611 136.153
132.309 117.487 134.571
130.631 115.212 135.894
129.931 115.69 137.715
131.626 117.662 138.143
133.041 118.321 136.661
133.807 118.049 133.312
133.128 116.746 132.738
129.104 116.357 139.147
130.012 117.368 139.632
127.995 117.393 140.601
133.736 119.628 135.781
134.564 119.034 133.845
135.393 119.894 134.568
132.629 115.062 132.584
131.268 114.365 134.199
132.149 113.224 132.397
143.054 114.137 139.848
144.191 113.292 140.2
142.209 113.811 141.19
145.163 111.848 140.03
146.237 112.449 139.034
143.796 114.594 138.708
142.02 115.108 139.606
140.622 114.288 142.206
141.487 113.271 142.284
146.677 113.135 138.166
145.251 114.075 137.611
147.053 113.818 136.907
140.321 115.529 140.54
139.587 115.169 142.086
138.653 116.109 141.898
142.116 112.254 142.475
143.936 111.312 140.912
142.778 110.862 142.225
128.308 116.729 147.36
129.745 117.873 146.618
130.086 117.104 147.279
131.05 118.251 145.478
129.268 118.164 145.794
126.971 116.658 147.26
127.76 115.612 147.561
130.874 115.83 147.298
131.76 117.127 147.075
127.713 117.946 145.961
126.138 117.035 146.888
126.239 118.013 145.756
127.947 114.531 147.718
130.058 114.803 147.48
129.904 113.383 147.633
132.921 117.597 146.223
132.371 118.42 145.24
134.031 118.427 144.811
POLYGONS 1280  5120
3 164 162 163
3 163 44 164
3 162 43 163
3 164 42 162
3 166 165 163
3 163 43 166
3 165 44 163
3 166 14 165
3 168 167 162
3 162 42 168
3 167 43 162
3 168 13 167
3 170 169 164
3 164 44 170
3 169 42 164
3 170 12 169
3 173 171 172
3 172 46 173
3 171 43 172
3 173 45 171
3 167 174 172
3 172 43 167
3 174 46 172
3 167 13 174
3 175 166 171
3 171 45 175
3 166 43 171
3 175 14 166
3 177 176 173
3 173 46 177
3 176 45 173
3 177 4 176
3 180 178 179
3 179 48 180
3 178 42 179
3 180 47 178
3 169 181 179
3 179 42 169
3 181 48 179
3 169 12 181
3 182 168 178
3 178 47 182
3 168 42 178
3 182 13 168
3 184 183 180
3 180 48 184
3 183 47 180
3 184 8 183
3 187 185 186
3 186 50 187
3 185 44 186
3 187 49 185
3 165 188 186
3 186 44 165
3 188 50 186
3 165 14 188
3 189 170 185
3 185 49 189
3 170 44 185
3 189 12 170
3 191 190 187
3 187 50 191
3 190 49 187
3 191 7 190
3 194 192 193
3 193 53 194
3 192 52 193
3 194 51 192
3 196 195 193
3 193 52 196
3 195 53 193
3 196 16 195
3 198 197 192
3 192 51 198
3 197 52 192
3 198 14 197
3 200 199 194
3 194 53 200
3 199 51 194
3 200 15 199
3 203 201 202
3 202 45 203
3 201 52 202
3 203 54 201
3 197 175 202
3 202 52 197
3 175 45 202
3 197 14 175
3 204 196 201
3 201 54 204
3 196 52 201
3 204 16 196
3 176 205 203
3 203 45 176
3 205 54 203
3 176 4 205
3 208 206 207
3 207 55 208
3 206 51 207
3 208 50 206
3 199 209 207
3 207 51 199
3 209 55 207
3 199 15 209
3 188 198 206
3 206 50 188
3 198 51 206
3 188 14 198
3 210 191 208
3 208 55 210
3 191 50 208
3 210 7 191
3 213 211 212
3 212 57 213
3 211 53 212
3 213 56 211
3 195 214 212
3 212 53 195
3 214 57 212
3 195 16 214
3 215 200 211
3 211 56 215
3 200 53 211
3 215 15 200
3 217 216 213
3 213 57 217
3 216 56 213
3 217 9 216
3 220 218 219
3 219 60 220
3 218 59 219
3 220 58 218
3 222 221 219
3 219 59 222
3 221 60 219
3 222 19 221
3 224 223 218
3 218 58 224
3 223 59 218
3 224 18 223
3 226 225 220
3 220 60 226
3 225 58 220
3 226 17 225
3 229 227 228
3 228 62 229
3 227 59 228
3 229 61 227
3 223 230 228
3 228 59 223
3 230 62 228
3 223 18 230
3 231 222 227
3 227 61 231
3 222 59 227
3 231 19 222
3 233 232 229
3 229 62 233
3 232 61 229
3 233 5 232
3 236 234 235
3 235 64 236
3 234 58 235
3 236 63 234
3 225 237 235
3 235 58 225
3 237 64 235
3 225 17 237
3 238 224 234
3 234 63 238
3 224 58 234
3 238 18 224
3 240 239 236
3 236 64 240
3 239 63 236
3 240 6 239
3 243 241 242
3 242 66 243
3 241 60 242
3 243 65 241
3 221 244 242
3 242 60 221
3 244 66 242
3 221 19 244
3 245 226 241
3 241 65 245
3 226 60 241
3 245 17 226
3 247 246 243
3 243 66 247
3 246 65 243
3 247 11 246
3 250 248 249
3 249 69 250
3 248 68 249
3 250 67 248
3 252 251 249
3 249 68 252
3 251 69 249
3 252 18 251
3 254 253 248
3 248 67 254
3 253 68 248
3 254 21 253
3 256 255 250
3 250 69 256
3 255 67 250
3 256 20 255
3 259 257 258
3 258 70 259
3 257 68 258
3 259 62 257
3 253 260 258
3 258 68 253
3 260 70 258
3 253 21 260
3 230 252 257
3 257 62 230
3 252 68 257
3 230 18 252
3 261 233 259
3 259 70 261
3 233 62 259
3 261 5 233
3 264 262 263
3 263 72 264
3 262 67 263
3 264 71 262
3 255 265 263
3 263 67 255
3 265 72 263
3 255 20 265
3 266 254 262
3 262 71 266
3 254 67 262
3 266 21 254
3 268 267 264
3 264 72 268
3 267 71 264
3 268 10 267
3 271 269 270
3 270 63 271
3 269 69 270
3 271 73 269
3 251 238 270
3 270 69 251
3 238 63 270
3 251 18 238
3 272 256 269
3 269 73 272
3 256 69 269
3 272 20 256
3 239 273 271
3 271 63 239
3 273 73 271
3 239 6 273
3 276 274 275
3 275 76 276
3 274 75 275
3 276 74 274
3 278 277 275
3 275 75 278
3 277 76 275
3 278 24 277
3 280 279 274
3 274 74 280
3 279 75 274
3 280 23 279
3 282 281 276
3 276 76 282
3 281 74 276
3 282 22 281
3 285 283 284
3 284 78 285
3 283 75 284
3 285 77 283
3 279 286 284
3 284 75 279
3 286 78 284
3 279 23 286
3 287 278 283
3 283 77 287
3 278 75 283
3 287 24 278
3 289 288 285
3 285 78 289
3 288 77 285
3 289 0 288
3 292 290 291
3 291 80 292
3 290 74 291
3 292 79 290
3 281 293 291
3 291 74 281
3 293 80 291
3 281 22 293
3 294 280 290
3 290 79 294
3 280 74 290
3 294 23 280
3 296 295 292
3 292 80 296
3 295 79 292
3 296 4 295
3 299 297 298
3 298 82 299
3 297 76 298
3 299 81 297
3 277 300 298
3 298 76 277
3 300 82 298
3 277 24 300
3 301 282 297
3 297 81 301
3 282 76 297
3 301 22 282
3 303 302 299
3 299 82 303
3 302 81 299
3 303 3 302
3 306 304 305
3 305 85 306
3 304 84 305
3 306 83 304
3 308 307 305
3 305 84 308
3 307 85 305
3 308 26 307
3 310 309 304
3 304 83 310
3 309 84 304
3 310 24 309
3 312 311 306
3 306 85 312
3 311 83 306
3 312 25 311
3 315 313 314
3 314 77 315
3 313 84 314
3 315 86 313
3 309 287 314
3 314 84 309
3 287 77 314
3 309 24 287
3 316 308 313
3 313 86 316
3 308 84 313
3 316 26 308
3 288 317 315
3 315 77 288
3 317 86 315
3 288 0 317
3 320 318 319
3 319 87 320
3 318 83 319
3 320 82 318
3 311 321 319
3 319 83 311
3 321 87 319
3 311 25 321
3 300 310 318
3 318 82 300
3 310 83 318
3 300 24 310
3 322 303 320
3 320 87 322
3 303 82 320
3 322 3 303
3 325 323 324
3 324 89 325
3 323 85 324
3 325 88 323
3 307 326 324
3 324 85 307
3 326 89 324
3 307 26 326
3 327 312 323
3 323 88 327
3 312 85 323
3 327 25 312
3 329 328 325
3 325 89 329
3 328 88 325
3 329 5 328
3 332 330 331
3 331 92 332
3 330 91 331
3 332 90 330
3 334 333 331
3 331 91 334
3 333 92 331
3 334 29 333
3 336 335 330
3 330 90 336
3 335 91 330
3 336 28 335
3 338 337 332
3 332 92 338
3 337 90 332
3 338 27 337
3 341 339 340
3 340 94 341
3 339 91 340
3 341 93 339
3 335 342 340
3 340 91 335
3 342 94 340
3 335 28 342
3 343 334 339
3 339 93 343
3 334 91 339
3 343 29 334
3 345 344 341
3 341 94 345
3 344 93 341
3 345 2 344
3 348 346 347
3 347 96 348
3 346 90 347
3 348 95 346
3 337 349 347
3 347 90 337
3 349 96 347
3 337 27 349
3 350 336 346
3 346 95 350
3 336 90 346
3 350 28 336
3 352 351 348
3 348 96 352
3 351 95 348
3 352 7 351
3 355 353 354
3 354 98 355
3 353 92 354
3 355 97 353
3 333 356 354
3 354 92 333
3 356 98 354
3 333 29 356
3 357 338 353
3 353 97 357
3 338 92 353
3 357 27 338
3 359 358 355
3 355 98 359
3 358 97 355
3 359 1 358
3 362 360 361
3 361 101 362
3 360 100 361
3 362 99 360
3 364 363 361
3 361 100 364
3 363 101 361
3 364 31 363
3 366 365 360
3 360 99 366
3 365 100 360
3 366 29 365
3 368 367 362
3 362 101 368
3 367 99 362
3 368 30 367
3 371 369 370
3 370 93 371
3 369 100 370
3 371 102 369
3 365 343 370
3 370 100 365
3 343 93 370
3 365 29 343
3 372 364 369
3 369 102 372
3 364 100 369
3 372 31 364
3 344 373 371
3 371 93 344
3 373 102 371
3 344 2 373
3 376 374 375
3 375 103 376
3 374 99 375
3 376 98 374
3 367 377 375
3 375 99 367
3 377 103 375
3 367 30 377
3 356 366 374
3 374 98 356
3 366 99 374
3 356 29 366
3 378 359 376
3 376 103 378
3 359 98 376
3 378 1 359
3 381 379 380
3 380 105 381
3 379 101 380
3 381 104 379
3 363 382 380
3 380 101 363
3 382 105 380
3 363 31 382
3 383 368 379
3 379 104 383
3 368 101 379
3 383 30 368
3 385 384 381
3 381 105 385
3 384 104 381
3 385 6 384
3 388 386 387
3 387 108 388
3 386 107 387
3 388 106 386
3 390 389 387
3 387 107 390
3 389 108 387
3 390 34 389
3 392 391 386
3 386 106 392
3 391 107 386
3 392 33 391
3 394 393 388
3 388 108 394
3 393 106 388
3 394 32 393
3 397 395 396
3 396 110 397
3 395 107 396
3 397 109 395
3 391 398 396
3 396 107 391
3 398 110 396
3 391 33 398
3 399 390 395
3 395 109 399
3 390 107 395
3 399 34 390
3 401 400 397
3 397 110 401
3 400 109 397
3 401 8 400
3 404 402 403
3 403 112 404
3 402 106 403
3 404 111 402
3 393 405 403
3 403 106 393
3 405 112 403
3 393 32 405
3 406 392 402
3 402 111 406
3 392 106 402
3 406 33 392
3 408 407 404
3 404 112 408
3 407 111 404
3 408 0 407
3 411 409 410
3 410 114 411
3 409 108 410
3 411 113 409
3 389 412 410
3 410 108 389
3 412 114 410
3 389 34 412
3 413 394 409
3 409 113 413
3 394 108 409
3 413 32 394
3 415 414 411
3 411 114 415
3 414 113 411
3 415 11 414
3 418 416 417
3 417 117 418
3 416 116 417
3 418 115 416
3 420 419 417
3 417 116 420
3 419 117 417
3 420 36 419
3 422 421 416
3 416 115 422
3 421 116 416
3 422 34 421
3 424 423 418
3 418 117 424
3 423 115 418
3 424 35 423
3 427 425 426
3 426 109 427
3 425 116 426
3 427 118 425
3 421 399 426
3 426 116 421
3 399 109 426
3 421 34 399
3 428 420 425
3 425 118 428
3 420 116 425
3 428 36 420
3 400 429 427
3 427 109 400
3 429 118 427
3 400 8 429
3 432 430 431
3 431 119 432
3 430 115 431
3 432 114 430
3 423 433 431
3 431 115 423
3 433 119 431
3 423 35 433
3 412 422 430
3 430 114 412
3 422 115 430
3 412 34 422
3 434 415 432
3 432 119 434
3 415 114 432
3 434 11 415
3 437 435 436
3 436 121 437
3 435 117 436
3 437 120 435
3 419 438 436
3 436 117 419
3 438 121 436
3 419 36 438
3 439 424 435
3 435 120 439
3 424 117 435
3 439 35 424
3 441 440 437
3 437 121 441
3 440 120 437
3 441 1 440
3 444 442 443
3 443 124 444
3 442 123 443
3 444 122 442
3 446 445 443
3 443 123 446
3 445 124 443
3 446 39 445
3 448 447 442
3 442 122 448
3 447 123 442
3 448 38 447
3 450 449 444
3 444 124 450
3 449 122 444
3 450 37 449
3 453 451 452
3 452 126 453
3 451 123 452
3 453 125 451
3 447 454 452
3 452 123 447
3 454 126 452
3 447 38 454
3 455 446 451
3 451 125 455
3 446 123 451
3 455 39 446
3 457 456 453
3 453 126 457
3 456 125 453
3 457 9 456
3 460 458 459
3 459 128 460
3 458 122 459
3 460 127 458
3 449 461 459
3 459 122 449
3 461 128 459
3 449 37 461
3 462 448 458
3 458 127 462
3 448 122 458
3 462 38 448
3 464 463 460
3 460 128 464
3 463 127 460
3 464 10 463
3 467 465 466
3 466 130 467
3 465 124 466
3 467 129 465
3 445 468 466
3 466 124 445
3 468 130 466
3 445 39 468
3 469 450 465
3 465 129 469
3 450 124 465
3 469 37 450
3 471 470 467
3 467 130 471
3 470 129 467
3 471 3 470
3 474 472 473
3 473 133 474
3 472 132 473
3 474 131 472
3 476 475 473
3 473 132 476
3 475 133 473
3 476 38 475
3 478 477 472
3 472 131 478
3 477 132 472
3 478 41 477
3 480 479 474
3 474 133 480
3 479 131 474
3 480 40 479
3 483 481 482
3 482 134 483
3 481 132 482
3 483 126 481
3 477 484 482
3 482 132 477
3 484 134 482
3 477 41 484
3 454 476 481
3 481 126 454
3 476 132 481
3 454 38 476
3 485 457 483
3 483 134 485
3 457 126 483
3 485 9 457
3 488 486 487
3 487 136 488
3 486 131 487
3 488 135 486
3 479 489 487
3 487 131 479
3 489 136 487
3 479 40 489
3 490 478 486
3 486 135 490
3 478 131 486
3 490 41 478
3 492 491 488
3 488 136 492
3 491 135 488
3 492 2 491
3 495 493 494
3 494 127 495
3 493 133 494
3 495 137 493
3 475 462 494
3 494 133 475
3 462 127 494
3 475 38 462
3 496 480 493
3 493 137 496
3 480 133 493
3 496 40 480
3 463 497 495
3 495 127 463
3 497 137 495
3 463 10 497
3 500 498 499
3 499 140 500
3 498 139 499
3 500 138 498
3 502 501 499
3 499 139 502
3 501 140 499
3 502 33 501
3 504 503 498
3 498 138 504
3 503 139 498
3 504 13 503
3 506 505 500
3 500 140 506
3 505 138 500
3 506 23 505
3 509 507 508
3 508 47 509
3 507 139 508
3 509 110 507
3 503 182 508
3 508 139 503
3 182 47 508
3 503 13 182
3 398 502 507
3 507 110 398
3 502 139 507
3 398 33 502
3 183 401 509
3 509 47 183
3 401 110 509
3 183 8 401
3 512 510 511
3 511 79 512
3 510 138 511
3 512 46 510
3 505 294 511
3 511 138 505
3 294 79 511
3 505 23 294
3 174 504 510
3 510 46 174
3 504 138 510
3 174 13 504
3 295 177 512
3 512 79 295
3 177 46 512
3 295 4 177
3 515 513 514
3 514 111 515
3 513 140 514
3 515 78 513
3 501 406 514
3 514 140 501
3 406 111 514
3 501 33 406
3 286 506 513
3 513 78 286
3 506 140 513
3 286 23 506
3 407 289 515
3 515 111 407
3 289 78 515
3 407 0 289
3 518 516 517
3 517 143 518
3 516 142 517
3 518 141 516
3 520 519 517
3 517 142 520
3 519 143 517
3 520 19 519
3 522 521 516
3 516 141 522
3 521 142 516
3 522 32 521
3 524 523 518
3 518 143 524
3 523 141 518
3 524 26 523
3 527 525 526
3 526 113 527
3 525 142 526
3 527 66 525
3 521 413 526
3 526 142 521
3 413 113 526
3 521 32 413
3 244 520 525
3 525 66 244
3 520 142 525
3 244 19 520
3 414 247 527
3 527 113 414
3 247 66 527
3 414 11 247
3 530 528 529
3 529 86 530
3 528 141 529
3 530 112 528
3 523 316 529
3 529 141 523
3 316 86 529
3 523 26 316
3 405 522 528
3 528 112 405
3 522 141 528
3 405 32 522
3 317 408 530
3 530 86 317
3 408 112 530
3 317 0 408
3 533 531 532
3 532 61 533
3 531 143 532
3 533 89 531
3 519 231 532
3 532 143 519
3 231 61 532
3 519 19 231
3 326 524 531
3 531 89 326
3 524 143 531
3 326 26 524
3 232 329 533
3 533 61 232
3 329 89 533
3 232 5 329
3 536 534 535
3 535 146 536
3 534 145 535
3 536 144 534
3 538 537 535
3 535 145 538
3 537 146 535
3 538 22 537
3 540 539 534
3 534 144 540
3 539 145 534
3 540 16 539
3 542 541 536
3 536 146 542
3 541 144 536
3 542 39 541
3 545 543 544
3 544 54 545
3 543 145 544
3 545 80 543
3 539 204 544
3 544 145 539
3 204 54 544
3 539 16 204
3 293 538 543
3 543 80 293
3 538 145 543
3 293 22 538
3 205 296 545
3 545 54 205
3 296 80 545
3 205 4 296
3 548 546 547
3 547 125 548
3 546 144 547
3 548 57 546
3 541 455 547
3 547 144 541
3 455 125 547
3 541 39 455
3 214 540 546
3 546 57 214
3 540 144 546
3 214 16 540
3 456 217 548
3 548 125 456
3 217 57 548
3 456 9 217
3 551 549 550
3 550 81 551
3 549 146 550
3 551 130 549
3 537 301 550
3 550 146 537
3 301 81 550
3 537 22 301
3 468 542 549
3 549 130 468
3 542 146 549
3 468 39 542
3 302 471 551
3 551 81 302
3 471 130 551
3 302 3 471
3 554 552 553
3 553 149 554
3 552 148 553
3 554 147 552
3 556 555 553
3 553 148 556
3 555 149 553
3 556 21 555
3 558 557 552
3 552 147 558
3 557 148 552
3 558 25 557
3 560 559 554
3 554 149 560
3 559 147 554
3 560 37 559
3 563 561 562
3 562 88 563
3 561 148 562
3 563 70 561
3 557 327 562
3 562 148 557
3 327 88 562
3 557 25 327
3 260 556 561
3 561 70 260
3 556 148 561
3 260 21 556
3 328 261 563
3 563 88 328
3 261 70 563
3 328 5 261
3 566 564 565
3 565 129 566
3 564 147 565
3 566 87 564
3 559 469 565
3 565 147 559
3 469 129 565
3 559 37 469
3 321 558 564
3 564 87 321
3 558 147 564
3 321 25 558
3 470 322 566
3 566 129 470
3 322 87 566
3 470 3 322
3 569 567 568
3 568 71 569
3 567 149 568
3 569 128 567
3 555 266 568
3 568 149 555
3 266 71 568
3 555 21 266
3 461 560 567
3 567 128 461
3 560 149 567
3 461 37 560
3 267 464 569
3 569 71 267
3 464 128 569
3 267 10 464
3 572 570 571
3 571 152 572
3 570 151 571
3 572 150 570
3 574 573 571
3 571 151 574
3 573 152 571
3 574 27 573
3 576 575 570
3 570 150 576
3 575 151 570
3 576 12 575
3 578 577 572
3 572 152 578
3 577 150 572
3 578 36 577
3 581 579 580
3 580 49 581
3 579 151 580
3 581 96 579
3 575 189 580
3 580 151 575
3 189 49 580
3 575 12 189
3 349 574 579
3 579 96 349
3 574 151 579
3 349 27 574
3 190 352 581
3 581 49 190
3 352 96 581
3 190 7 352
3 584 582 583
3 583 118 584
3 582 150 583
3 584 48 582
3 577 428 583
3 583 150 577
3 428 118 583
3 577 36 428
3 181 576 582
3 582 48 181
3 576 150 582
3 181 12 576
3 429 184 584
3 584 118 429
3 184 48 584
3 429 8 184
3 587 585 586
3 586 97 587
3 585 152 586
3 587 121 585
3 573 357 586
3 586 152 573
3 357 97 586
3 573 27 357
3 438 578 585
3 585 121 438
3 578 152 585
3 438 36 578
3 358 441 587
3 587 97 358
3 441 121 587
3 358 1 441
3 590 588 589
3 589 155 590
3 588 154 589
3 590 153 588
3 592 591 589
3 589 154 592
3 591 155 589
3 592 17 591
3 594 593 588
3 588 153 594
3 593 154 588
3 594 30 593
3 596 595 590
3 590 155 596
3 595 153 590
3 596 35 595
3 599 597 598
3 598 104 599
3 597 154 598
3 599 64 597
3 593 383 598
3 598 154 593
3 383 104 598
3 593 30 383
3 237 592 597
3 597 64 237
3 592 154 597
3 237 17 592
3 384 240 599
3 599 104 384
3 240 64 599
3 384 6 240
3 602 600 601
3 601 120 602
3 600 153 601
3 602 103 600
3 595 439 601
3 601 153 595
3 439 120 601
3 595 35 439
3 377 594 600
3 600 103 377
3 594 153 600
3 377 30 594
3 440 378 602
3 602 120 440
3 378 103 602
3 440 1 378
3 605 603 604
3 604 65 605
3 603 155 604
3 605 119 603
3 591 245 604
3 604 155 591
3 245 65 604
3 591 17 245
3 433 596 603
3 603 119 433
3 596 155 603
3 433 35 596
3 246 434 605
3 605 65 246
3 434 119 605
3 246 11 434
3 608 606 607
3 607 158 608
3 606 157 607
3 608 156 606
3 610 609 607
3 607 157 610
3 609 158 607
3 610 15 609
3 612 611 606
3 606 156 612
3 611 157 606
3 612 28 611
3 614 613 608
3 608 158 614
3 613 156 608
3 614 41 613
3 617 615 616
3 616 95 617
3 615 157 616
3 617 55 615
3 611 350 616
3 616 157 611
3 350 95 616
3 611 28 350
3 209 610 615
3 615 55 209
3 610 157 615
3 209 15 610
3 351 210 617
3 617 95 351
3 210 55 617
3 351 7 210
3 620 618 619
3 619 135 620
3 618 156 619
3 620 94 618
3 613 490 619
3 619 156 613
3 490 135 619
3 613 41 490
3 342 612 618
3 618 94 342
3 612 156 618
3 342 28 612
3 491 345 620
3 620 135 491
3 345 94 620
3 491 2 345
3 623 621 622
3 622 56 623
3 621 158 622
3 623 134 621
3 609 215 622
3 622 158 609
3 215 56 622
3 609 15 215
3 484 614 621
3 621 134 484
3 614 158 621
3 484 41 614
3 216 485 623
3 623 56 216
3 485 134 623
3 216 9 485
3 626 624 625
3 625 161 626
3 624 160 625
3 626 159 624
3 628 627 625
3 625 160 628
3 627 161 625
3 628 31 627
3 630 629 624
3 624 159 630
3 629 160 624
3 630 20 629
3 632 631 626
3 626 161 632
3 631 159 626
3 632 40 631
3 635 633 634
3 634 73 635
3 633 160 634
3 635 105 633
3 629 272 634
3 634 160 629
3 272 73 634
3 629 20 272
3 382 628 633
3 633 105 382
3 628 160 633
3 382 31 628
3 273 385 635
3 635 73 273
3 385 105 635
3 273 6 385
3 638 636 637
3 637 137 638
3 636 159 637
3 638 72 636
3 631 496 637
3 637 159 631
3 496 137 637
3 631 40 496
3 265 630 636
3 636 72 265
3 630 159 636
3 265 20 630
3 497 268 638
3 638 137 497
3 268 72 638
3 497 10 268
3 641 639 640
3 640 102 641
3 639 161 640
3 641 136 639
3 627 372 640
3 640 161 627
3 372 102 640
3 627 31 372
3 489 632 639
3 639 136 489
3 632 161 639
3 489 40 632
3 373 492 641
3 641 102 373
3 492 136 641
3 373 2 492
