# vtk DataFile Version 3.0
this file was written using fslvtkio
ASCII
DATASET POLYDATA
POINTS 1068 float
159.278 171.271 48.0767
160.57 171.666 48.6852
160.657 169.829 50.5585
159.997 168.793 52.0787
158.1 171.278 48.3576
159.353 168.421 52.3258
157.494 170.682 48.3388
158.856 168.213 51.5136
157.866 169.85 48.4507
158.834 167.594 50.4341
158.532 173.241 46.4794
160.804 172.529 46.8504
156.886 173.383 45.7635
155.787 172.7 46.1974
156.326 170.924 47.1633
156.996 169.186 48.2792
159.126 173.601 45.0277
160.204 174.053 45.0845
156.893 174.785 43.6502
155.301 174.691 43.138
154.628 173.175 44.0385
154.806 171.012 45.3548
157.627 175.576 42.6224
155.446 176.102 41.2716
155.024 174.634 41.2931
154.184 172.863 42.6907
165.501 162.241 55.074
167.425 162.383 55.6061
167.737 160.436 56.1555
166.955 160.173 55.7746
165.577 162.067 53.8101
167.325 161.147 53.2867
164.483 163.141 56.082
164.78 164.363 55.8829
167.023 163.78 54.2948
163.977 163.544 54.0006
164.317 163.579 52.3635
165.302 162.697 51.6571
161.823 165.137 55.8937
163.908 165.419 55.1816
162.527 164.359 54.5206
161.294 165.235 51.7708
162.792 164.028 50.7589
162.193 167.679 52.7092
162.311 169.371 50.2899
163.69 168.184 51.4523
164.028 166.682 53.0759
161.272 166.121 56.0196
159.999 166.208 54.9959
160.141 165.67 53.8018
159.487 165.787 51.004
161.142 164.928 50.0766
162.478 170.917 48.9663
158.264 167.441 49.1225
162.399 171.929 47.9383
157.312 169.445 46.4448
162.33 172.958 46.2012
155.871 171.262 43.5068
158.968 175.631 42.4402
161.321 174.693 43.065
157.156 176.154 41
156.14 175.731 40.1535
156.208 174.426 40.6265
155.848 173.069 41.1914
159.013 176.396 40.717
158.175 175.622 40.1354
157.792 174.804 39.8629
172.204 157.489 56.9986
173.538 158.923 53.6627
173.706 158.502 54.9391
173.124 157.004 57.8738
172.353 157.296 56.4263
173.137 156.348 57.3397
172.707 156.429 56.1665
173.867 156.182 56.3875
171.53 158.662 55.7324
171.438 160.031 54.2792
172.848 159.588 53.805
169.718 158.72 55.6463
170.133 158.447 54.8717
171.527 157.605 54.7928
173.381 156.465 55.2352
169.172 159.257 57.4303
169.618 161.377 55.1251
168.097 159.448 55.8523
168.298 160.094 52.9949
169.416 158.966 53.1101
171.477 157.296 53.8846
168.782 163.28 53.1049
166.833 161.577 51.4688
167.145 160.625 51.0429
169.006 158.842 51.9326
166.651 164.718 53.6893
168.704 164.087 53.0611
164.873 163.404 49.7446
165.898 162.309 49.3938
167.218 160.251 49.7649
165.558 165.572 53.915
165.921 166.492 52.6512
167.46 165.759 52.7099
161.461 163.937 48.9756
164.047 162.866 48.2082
165.347 161.563 48.7928
164.313 168.964 50.8154
165.465 167.591 50.9536
159.135 165.137 49.934
159.757 165.314 47.6399
161.565 164.065 46.4426
164.787 169.959 49.949
158.305 167.881 46.7359
158.579 166.472 45.7588
159.473 164.823 45.87
164.426 171.106 48.1023
157.599 169.147 45.4763
158.699 168.653 44.3675
163.719 172.964 45.4309
156.611 171.046 42.5612
157.418 169.748 43.2772
163.325 174.249 42.8053
158.484 171.794 41.5593
157.823 173.35 40.6401
157.95 170.879 41.5185
161.446 175.619 41.1528
160.48 175.081 40.4226
159.836 173.912 40.4842
175.407 159.232 53.2733
175.243 157.95 55.4116
174.64 157.198 56.4638
174.392 156.23 57.2893
175.244 155.726 55.8268
172.289 161.368 52.8636
174.593 160.14 53.6498
174.649 155.712 54.9328
171.226 162.53 53.276
173.274 156.636 54.0987
171.705 157.191 52.9299
174.043 156.473 53.5707
171.187 163.433 52.8602
170.022 158.249 51.3361
172.955 157.184 52.0347
168.801 164.999 52.1891
170.999 164.131 52.7393
169.487 158.697 50.1809
171.926 158.131 50.4916
167.894 166.459 51.9036
169.587 165.761 51.5471
163.958 162.14 47.1367
166.997 160.964 47.8927
169.535 159.188 49.3303
166.845 168.287 50.2012
168.667 167.189 51.4903
163.028 163.021 45.7214
165.473 162.133 45.3541
166.995 169.226 49.265
159.029 166.8 43.018
160.443 164.656 44.0946
162.453 163.636 44.6005
165.89 171.165 47.7424
159.68 168.213 42.3597
161.215 166.757 41.7567
165.253 172.906 45.3572
160.653 168.219 41.5002
158.736 169.251 42.1801
164.877 174.384 42.8185
159.799 172.219 42.075
160.139 171.145 42.2056
160.195 170.198 41.3582
163.258 175.684 40.5755
162.454 174.5 41.0694
162.071 172.977 41.7224
161.308 171.965 42.4207
176.641 158.133 55.3088
176.88 156.974 56.8824
176.046 156.25 57.2678
176.192 155.571 56.6689
178.459 154.1 56.2581
174.381 160.967 53.5889
177.114 159.758 54.1124
177.539 158.283 54.657
176.546 154.649 55.1098
174.829 155.563 54.5886
176.273 155.244 54.1965
173.543 162.316 52.5762
176.007 160.178 53.4637
175.374 156.281 52.9119
172.969 163.503 51.6554
174.448 157.138 51.6704
171.393 164.739 51.8317
172.122 163.925 52.4535
173.61 158.049 50.3233
170.781 166.14 51.906
171.406 165.526 51.4603
168.531 160.221 47.5964
171.652 158.998 49.1202
169.912 167.504 50.7872
170.535 166.851 51.2457
168.337 161.18 46.8265
170.238 160.483 47.5081
168.748 169.103 50.2114
170.069 169.733 50.3232
170.702 168.425 50.9138
162.13 164.747 42.8343
165.072 163.423 43.8599
168.188 162.122 45.8299
167.571 170.501 49.1239
169.145 170.897 48.4533
162.672 165.826 41.7183
164.566 164.901 42.329
166.993 172.23 47.1662
168.758 172.096 46.3556
160.356 169.202 40.8634
161.894 167.854 40.7216
163.792 166.791 41.1465
166.558 173.098 44.4412
168.242 172.714 44.3607
162.129 170.074 40.8883
161.643 170.688 42.7443
161.413 169.312 40.4417
166.119 174.928 41.4415
165.381 174.364 40.8244
164.403 173.435 41.7853
163.867 172.26 42.4345
162.927 171.559 42.3704
177.376 153.85 59.8042
178.373 154.359 59.9981
179.463 151.819 62.7737
179.452 151.456 61.8282
178.652 153.356 58.4147
181.302 151.453 59.3639
178.582 156.182 57.5526
180.846 152.806 57.0171
179.423 158.347 55.0489
179.701 156.631 57.0486
178.298 154.157 55.5931
177.83 154.864 53.9447
175.146 161.421 53.1008
177.72 159.56 54.3045
176.712 156.083 52.452
173.442 163.961 51.7665
175.073 163.247 52.6943
175.097 162.529 52.5512
175.49 157.249 51.0074
173.332 165.034 52.1046
175.352 164.381 53.675
175.964 163.303 53.3311
173.971 158.585 49.1736
172.798 166.133 52.1099
173.75 166.641 51.4378
175.568 165.018 53.45
172.475 159.884 47.8421
172.144 167.308 51.2351
172.107 168.68 50.1483
173.596 167.609 50.7177
170.786 161.379 46.634
171.555 169.772 48.8629
169.548 162.779 45.2703
166.679 163.65 43.5391
171.055 171.245 47.3252
166.14 165.32 42.1831
170.557 172.211 45.2506
165.747 166.65 41.7122
163.258 168.001 40.446
170.163 172.789 43.3444
163.695 169.871 40.7948
163.408 170.136 43.0167
163.333 169.078 40.4183
168.045 173.525 42.3284
167.221 174.017 40.8606
166.549 172.316 42.5769
165.577 171.629 42.6895
164.763 170.899 42.8303
180.352 152.545 62.6058
182.053 152.641 61.593
181.567 150.83 64.6316
181.433 150.297 64.3415
181.898 149.756 62.8471
183.401 150.535 59.5811
180.233 154.226 59.7296
182.032 154.866 58.9713
182.358 152.025 57.4855
180.799 156.976 56.7918
179.945 153.534 55.7672
179.268 154.307 53.7169
177.105 161.362 53.2065
178.59 160.979 53.6184
179.037 159.469 55.2944
180.03 157.689 57.0995
177.719 155.888 51.806
176.646 162.324 53.2094
177.973 162.835 53.3635
179.343 161.646 53.9245
176.304 157.58 49.935
178.065 163.359 54.0727
174.753 159.125 48.413
175.449 166.24 51.9181
177.35 164.606 54.1767
173.25 160.548 46.882
173.46 168.809 48.8683
175.253 167.509 50.2978
171.768 161.896 45.444
173.495 169.781 47.436
170.557 163.345 44.0032
168.404 164.155 43.8357
172.862 171.436 45.632
167.933 165.511 42.461
172.498 172.68 43.5602
167.672 166.321 42.4666
165.304 167.836 40.8672
171.912 173.269 41.8359
164.539 170.157 42.2849
165.284 169.861 40.6549
165.443 168.975 40.6481
170.096 173.445 41.4953
168.966 173.286 41.2139
168.23 172.503 41.5988
167.48 171.501 42.6919
166.609 170.856 42.426
165.83 170.347 41.7112
183.075 150.108 64.6632
183.16 151.451 63.1716
184.435 150.367 64.0443
185.474 148.938 64.4711
183.216 149.704 63.8655
185.251 149.178 63.0914
183.462 149.365 61.9817
185.418 149.77 60.6813
183.747 152.934 60.7089
185.064 150.96 58.4366
182.51 154.858 58.9322
183.863 151.807 56.8832
181.326 156.597 57.9611
181.865 156.808 58.3694
182.159 155.879 58.6515
181.273 153.037 55.5052
180.133 154.765 53.1362
180.309 159.643 56.0083
180.417 158.235 57.2902
178.727 156.313 51.0045
180.65 161.881 53.8786
181.04 160.508 55.8598
176.952 158.115 49.0684
179.149 163.309 54.4746
175.473 159.718 47.2494
177.355 165.471 52.9458
178.24 164.384 53.7625
174.027 161.072 45.4109
175.847 168.915 48.8571
176.897 167.028 50.5473
172.256 162.355 44.6964
175.127 170.482 46.5446
171.735 163.671 43.7071
169.95 164.446 43.2864
174.504 171.619 44.5185
169.864 165.415 42.9508
174.069 172.97 42.1413
169.184 166.544 42.419
167.186 167.736 40.8234
173.397 173.912 40.2212
167.735 168.498 40.9227
166.65 169.582 40.4745
171.687 173.359 40.4247
170.529 173.722 39.701
169.854 172.34 41.0832
169.097 171.521 41.367
168.32 170.914 41.1121
167.5 170.382 40.5163
186.098 149.484 64.8042
185.074 151.188 62.8453
187.712 149.786 64.6209
187.875 149.365 63.8316
187.647 149.359 63.3346
189.748 148.866 62.485
184.904 152.374 61.6966
187.484 149.322 61.7933
187.528 149.188 59.8464
184.589 154.079 59.6733
185.586 154.432 60.1298
185.681 153.175 60.8189
186.477 150.713 57.6653
183.277 155.405 58.5195
184.02 155.741 59.5083
184.753 152.381 55.9148
182.054 157.641 57.3696
183.697 157.586 58.0658
183.878 156.674 59.12
182.256 153.306 54.6362
181.015 155.271 52.1954
182.073 159.083 56.6646
183.287 159.962 56.2999
183.927 158.791 56.498
179.208 157.051 50.0413
181.683 161.746 55.0277
177.616 158.703 47.7242
179.448 164.022 53.7032
179.956 164.559 52.7327
181.146 163.157 53.9766
176.36 160.406 45.7182
178.413 165.606 52.0716
177.851 167.481 49.5311
179.535 165.919 51.1967
174.904 161.689 44.825
175.961 162.029 44.377
174.271 162.831 43.8273
177.041 169.117 47.7908
173.364 162.502 44.5168
172.473 163.943 43.4422
176.783 170.6 45.6367
171.754 164.962 42.5096
176.114 171.984 43.4017
171.011 165.84 42.2579
175.396 173.645 40.2747
170.403 166.637 42.2766
169.418 167.352 42.0655
174.302 173.979 39.1883
172.981 173.837 39.1989
174.387 173.247 38.8714
169.242 168.275 41.5409
168.661 169.047 41.4879
172.119 173.376 38.9903
171.091 173.015 38.5649
170.291 172.025 39.6097
170.081 170.824 40.392
169.132 170.167 40.5564
186.947 151.018 63.4817
188.805 151.016 62.404
189.125 149.93 63.9598
189.771 148.934 65.04
189.75 148.498 64.4264
192.498 147.724 62.0607
186.96 152.545 60.9833
189.013 152.028 61.5895
189.923 148.769 60.1898
188.905 149.517 58.5836
187.419 153.737 60.9672
188.108 154.329 61.1357
188.596 153.095 61.3535
187.59 151.107 56.578
185.684 155.604 60.4255
186.758 155.729 59.9345
185.021 152.787 54.9183
182.924 153.663 53.8916
183.156 154.313 52.6196
185.212 157.172 58.4975
185.943 158.362 57.6016
186.764 156.878 58.6577
181.341 155.929 50.6958
184.269 160.557 55.9262
179.704 157.641 48.7037
182.974 161.934 54.58
178.4 159.233 46.9817
181.548 163.852 52.1795
182.376 162.794 53.6136
177.501 160.793 45.6245
179.305 167.601 49.2517
181.005 165.44 50.27
176.728 162.351 43.9268
174.741 163.513 43.1886
178.824 169.416 46.7925
174.042 164.425 42.7194
178.175 170.981 44.4358
172.974 165.638 41.9574
177.38 171.787 42.3907
171.301 166.719 41.7689
172.686 166.254 41.434
172.265 167.162 40.9249
176.544 173.129 40.1753
175.389 173.733 38.9907
176.188 173.244 38.6047
170.57 167.794 42.5351
172.475 167.633 41.3148
171.959 168.012 42.6551
175.054 172.478 39.0776
170.958 169.609 41.2099
172.373 169.166 41.8626
171.944 170.098 40.9119
170.424 168.822 41.8281
172.395 168.397 42.684
173.554 172.325 39.6673
172.426 172.023 39.6627
171.583 171.312 39.8525
191.065 146.712 67.3907
191.554 147.693 66.3706
192.849 145.707 69.682
193.077 145.216 68.3541
192.446 146.202 65.6598
194.859 145.61 65.3305
191.409 149.769 64.0872
191.288 148.655 65.5487
194.724 146.951 61.5034
189.878 152.268 61.5664
191.445 151.71 62.8192
191.374 150.809 63.3784
191.764 148.756 59.278
190.319 149.96 57.5223
189.677 153.585 60.9053
190.312 154.3 61.5525
191.404 152.816 62.222
188.142 151.708 55.4505
188.587 155.1 60.8781
188.315 156.856 58.6684
185.428 153.186 53.8518
183.738 155.04 51.476
186.87 158.88 57.5148
181.939 156.418 49.5369
185.926 160.424 55.8933
186.943 160.892 54.6779
187.511 159.558 56.9391
180.687 158.094 48.0658
184.212 161.954 53.9583
185.492 162.388 52.7516
179.485 159.696 46.792
183.135 163.603 51.511
181.617 166.093 49.3
183.88 164.173 51.1671
178.505 160.867 45.6281
180.756 167.983 47.4149
178.043 162.211 44.1841
176.706 163.435 42.8307
180.065 169.606 45.2184
175.686 164.573 43.1527
179.165 170.538 43.2893
173.946 166.122 40.9469
176.22 165.235 42.7513
175.263 166.212 41.6605
178.257 171.112 41.9733
174.87 168.286 40.6768
176.891 168.2 40.5975
175.481 168.8 40.6559
174.778 167.735 40.2487
176.234 167.605 40.9636
173.652 167.22 40.5904
176.162 166.679 41.5347
177.35 171.826 40.6696
176.449 172.001 39.4982
173.624 168.514 42.4696
174.927 169.043 42.1298
173.595 168.019 41.2858
175.426 171.923 39.1789
174.071 171.536 40.0649
173.376 170.751 40.9621
174.865 171.043 40.3544
173.389 169.696 41.8825
174.643 170.217 41.2531
195.376 144.981 70.798
195.671 146.09 70.3884
197.451 143.907 71.5482
197.057 143.304 71.1728
194.801 144.244 70.7394
196.132 142.893 70.8349
194.758 144.279 68.943
196.841 143.11 68.3019
193.769 146.762 68.5226
194.614 147.853 67.2709
196.747 145.117 64.8789
193.077 149.297 64.8836
193.994 150.26 65.1435
195.054 149.007 66.1027
196.236 147.111 60.8613
192.733 151.137 64.0143
193.112 152.399 63.0526
194.111 151.152 64.402
193.231 148.951 58.7867
191.088 151.034 56.2954
191.241 154.921 61.3533
188.937 152.493 54.3522
189.928 156.587 59.7651
190.666 157.683 57.3735
192.007 155.723 60.3074
186.268 153.69 53.0252
187.173 154.147 52.0627
188.646 158.24 57.9806
188.999 159.624 55.7639
184.88 155.246 51.3421
183.149 157.018 49.6348
187.799 161.985 53.6727
181.773 158.577 47.8391
185.705 163.524 51.6454
184.341 165.032 50.0286
186.73 163.742 51.3246
180.414 160.146 46.5268
183.146 166.34 47.9657
179.475 161.202 45.1893
180.833 160.86 45.6847
179.354 162.38 44.2253
182.195 168.523 45.7176
178.174 163.549 43.6409
181.474 169.946 43.4145
177.206 164.404 43.0078
180.586 170.392 42.2198
179.137 170.613 42.0392
180.219 170.355 41.2124
176.585 165.893 42.3637
177.752 165.288 42.4771
177.736 165.901 42.3415
177.847 164.713 42.6501
178.377 170.751 41.8392
178.766 170.517 41.3696
178.251 167.706 41.8342
176.707 168.932 40.7424
177.9 166.73 41.9524
176.347 170.777 40.6693
177.618 170.88 40.7157
176.193 170.265 40.8476
177.57 169.985 40.915
176.039 169.522 41.1382
177.26 169.271 41.1477
198.569 146.209 69.5781
199.941 146.947 69.5431
200.393 145.372 71.1374
198.928 144.31 72.1814
197.315 145.551 70.8393
199.019 142.502 73.7962
199.505 141.435 72.5512
198.381 141.885 71.2339
198.815 142.802 68.1989
197.823 148.021 67.7615
198.205 149.063 67.3146
196.278 147.665 68.3364
198.055 144.886 64.6426
196.235 149.732 66.2647
196.552 151.015 65.7449
196.793 147.02 60.9155
194.962 152.216 62.9057
195 154.024 60.8701
195.868 152.699 63.2798
193.905 149.428 57.9394
195.023 149.331 57.2578
193.216 154.124 61.0462
193.243 156.008 60.0469
192.26 151.11 55.7728
190.091 152.66 53.6323
191.365 158.399 57.0766
188.404 154.649 51.5947
190.004 160.605 54.9502
185.388 155.938 50.1701
186.603 156.446 49.8334
189.2 162.628 52.23
184.145 157.686 48.4233
185.491 158.079 48.216
185.671 165.489 49.0059
187.765 164.482 49.7128
183.775 159.186 47.1371
184.918 159.415 47.2681
183.709 160.309 46.8527
182.315 159.445 46.9587
184.741 167.131 46.5615
181.833 161.094 45.8882
182.741 161.483 46.1327
183.743 168.833 44.2467
180.135 162.982 44.5556
181.507 163.025 44.3626
183.011 169.227 43.1752
179.465 164.282 43.522
180.918 163.831 43.8808
180.612 164.655 43.2654
178.385 164.174 43.6803
182.288 169.944 41.9359
179.68 169.577 41.472
181.51 169.505 41.6365
180.797 168.56 42.6327
179.103 165.545 42.0369
180.308 165.51 42.8222
179.228 166.164 42.4903
178.621 169.755 41.3291
179.825 168.376 42.7728
178.704 168.981 41.2625
178.181 168.344 41.6359
179.399 168.027 41.9568
179.29 167.008 42.4377
201.795 140.948 76.3223
202.648 142.528 74.8002
203.371 141.066 76.3061
203.524 139.31 76.9644
202.227 139.612 75.8599
203.671 138.606 76.1495
203.39 139.339 74.0463
204.467 138.837 73.7314
201 143.785 73.5473
202.227 145.901 71.7158
203.068 144.174 73.8363
200.018 142.53 74.364
200.841 140.697 75.4056
201.95 140.729 72.4751
203.843 140.683 71.1712
200.643 148.083 68.6875
200.943 141.069 70.4093
200.31 142.896 67.1212
198.314 150.276 66.4526
198.788 145.183 63.7237
197.181 151.879 64.981
197.163 153.499 61.8084
198.434 151.903 64.6781
196.956 148.298 59.5198
195.467 155.485 59.8421
195.343 150.699 55.9082
193.731 157.558 58.2176
192.495 151.979 54.6684
190.513 153.706 52.7208
192.61 159.548 56.146
188.925 155.395 50.7833
191.705 161.384 53.6169
187.516 157.229 49.1048
190.82 162.861 51.2002
186.214 158.592 47.8157
187.062 165.733 47.5607
189.448 164.215 49.062
186.306 159.299 46.9582
185.655 160.252 46.2305
186.007 167.23 45.1187
188.005 165.905 46.157
183.759 162.057 45.5349
184.594 168.614 43.1887
186.629 167.76 42.991
182.254 163.377 44.8747
184.08 162.923 44.7332
183.242 163.8 44.2024
183.528 168.839 42.6577
185.017 168.31 42.2697
181.932 165.521 43.6297
183.318 165.482 43.5155
182.335 166.405 43.0747
181.64 164.834 43.8788
183.46 164.486 44.0906
182.976 168.591 42.4309
181.112 167.682 43.0623
182.338 168 42.7105
180.879 166.85 43.1004
182.365 167.242 42.4068
180.51 166.082 42.9858
216.762 130.017 89.7998
214.79 131.116 90.7737
217.684 129.582 91.5747
218.422 129.76 90.2081
217.574 130.23 88.8303
218.798 130.594 88.7292
215.119 130.783 89.3196
214.267 132.096 88.6016
216.373 130.845 87.7623
217.824 131.528 86.9767
214.234 131.879 87.6952
216.099 131.669 86.3788
205.683 141.331 77.7042
206.966 143.508 74.7133
207.298 141.85 77.5455
206.07 139.397 80.0657
204.793 139.849 78.1272
205.958 137.581 79.8113
205.39 138.625 76.9373
207.664 138.111 75.7196
204.495 142.715 75.5869
205.42 144.887 72.7712
205.757 137.985 75.607
205.469 139.745 71.745
202.828 147.307 69.9248
204.616 142.198 68.2776
201.49 148.823 67.9872
201.479 150.288 66.8718
202.801 148.707 68.9045
202.464 141.977 68.3414
200.78 144.472 64.3795
199.948 150.27 66.3014
199.719 152.348 63.8663
198.634 146.981 61.6464
197.826 154.327 60.7969
197.364 149.093 58.3126
196.117 156.656 58.5662
196.269 151.074 55.7045
194.861 158.699 56.9317
192.994 152.508 54.1768
194.391 152.64 53.7231
193.984 160.504 54.2123
191.625 154.193 52.4232
192.014 155.199 51.9588
193.135 161.821 51.65
189.858 156.134 50.6131
189.877 157.35 49.7257
191.356 162.704 49.8559
187.794 158.291 48.0801
188.681 158.849 47.8963
190.109 164.667 47.1874
187.111 160.264 46.2703
189.13 159.537 47.3836
188.084 160.816 46.295
188.705 166.062 44.6767
186.731 163.234 44.8918
188.279 162.82 45.6302
187.053 164.225 43.887
186.953 161.803 45.8685
188.522 161.867 45.83
185.559 161.73 44.8172
187.451 166.668 43.1587
185.736 167.541 41.691
185.539 166.271 42.1676
187.245 165.841 43.2586
185.728 164.843 43.4121
187.156 164.849 43.89
184.688 164.52 43.9231
185.147 163.202 44.5906
183.858 167.911 42.3427
183.669 167.101 42.8046
183.904 166.084 42.8093
217.193 129.751 94.1984
216.916 132.007 92.6798
219.34 130.962 93.5337
219.744 129.42 93.4635
218.031 128.844 93.7966
220.451 129.588 91.8363
216.2 131.102 91.8247
216.102 132.875 90.3766
219.493 129.646 90.8485
219.625 131.275 88.527
214.662 132.776 88.9907
215.306 134.13 88.2504
219.161 131.985 86.3814
213.052 134.656 87.0798
214.164 135.683 86.1988
213.003 133.412 86.8283
214.07 132.504 85.741
217.149 132.894 85.0263
212.05 135.897 85.5356
213.213 137.221 84.6928
211.486 134.399 86.2399
212.054 133.308 84.9004
215.664 133.201 83.7437
213.908 133.232 83.0529
215.411 134.214 82.0259
211.379 137.232 83.8276
213.047 138.533 83.3384
210.529 135.779 84.7342
210.563 134.199 84.5275
211.627 133.56 82.9898
213.98 134.484 80.9639
211.481 138.318 82.4131
209.68 137.439 82.9861
211.262 139.255 80.547
209.308 135.856 82.7958
210.452 135.107 81.3226
212.675 135.182 79.7556
209.362 139.051 80.9099
211.092 140.539 78.8708
208.334 137.367 81.8126
209.08 135.845 80.4997
211.82 137.244 77.1671
209.95 141.293 77.9265
208.04 139.829 79.624
209.189 143.277 76.2126
207.105 137.206 81.3229
210.457 137.846 76.2196
208.059 136.542 78.6328
209.685 138.623 74.7166
209.042 145.095 72.8599
208.828 139.841 72.5423
206.405 146.349 71.2989
205.745 147.703 69.4485
208.336 146.925 70.143
206.952 139.311 72.8691
206.12 141.139 70.2459
204.558 147.027 70.0804
203.948 149.239 67.914
205.272 143.129 67.7299
202.158 151.344 65.6078
202.673 143.858 65.9743
203.632 145.013 64.7568
200.325 153.345 62.5855
201.527 145.723 63.5718
199.696 147.403 60.9043
198.832 155.391 60.1739
198.395 149.448 58.4579
197.278 157.438 57.5287
197.027 151.336 56.1485
198.576 150.517 57.402
197.444 152.32 55.2415
196.019 159.412 54.8717
195.662 153.033 54.1782
195.801 154.437 53.2111
195.343 160.955 51.9702
193.806 154.816 52.458
194.283 155.82 52.1898
193.946 162.225 49.6285
192.621 157.129 50.2768
194.154 157.094 50.6844
193.076 158.427 49.5852
191.761 156.619 50.758
192.061 163.074 48.314
191.456 158.788 48.9301
191.467 159.709 48.4034
190.481 158.473 48.6144
190.608 164.198 46.3573
189.764 160.197 47.0479
190.018 160.95 47.2109
189.714 164.887 44.9669
188.528 165.835 43.3516
188.375 164.8 43.6981
189.629 164.149 45.0441
188.115 163.869 44.8975
189.472 163.406 45.1924
189.992 161.925 46.7539
218.07 133.164 91.0791
220.372 131.615 91.7733
222.667 129.406 92.9344
222.44 130.111 90.5816
217.341 134.294 89.0229
220.939 131.058 88.824
220.653 132.233 86.3341
216.177 135.496 87.182
218.976 133.27 84.7538
215.903 136.886 85.3273
218.317 134.079 83.0409
215.614 138.151 83.6908
216.709 134.121 82.4164
215.657 135.293 80.15
215.3 138.781 82.306
214.357 136.573 78.7587
212.535 139.415 81.8041
214.283 139.756 81.4082
213.917 137.425 76.8105
212.718 140.36 80.3084
212.6 141.011 78.6553
213.542 139.255 74.3795
211.892 142.56 76.3871
212.223 144.582 73.235
212.561 140.374 72.5039
210.859 141.18 71.3753
211.363 146.315 70.1031
209.943 141.82 69.8309
206.401 148.553 68.0796
209.908 147.465 67.9334
208.171 141.296 69.8996
207.251 142.739 68.3427
204.593 150.177 66.3782
205.641 144.707 65.751
202.969 152.028 64.18
204.074 146.684 63.3587
201.441 153.777 61.4452
201.534 147.065 62.1094
202.172 147.785 61.3823
199.845 156.003 58.8943
200.156 148.995 59.5867
199.62 150.757 57.9036
198.537 158.067 55.8744
198.36 152.915 55.1964
197.493 159.663 53.2966
196.927 154.843 53.5549
198.605 153.985 55.1921
197.714 155.433 53.7793
196.573 160.213 51.3232
195.256 161.038 49.561
195.695 159.703 49.9162
196.82 159.479 50.8856
196.075 157.994 51.4801
197.496 158.401 50.8557
196.269 156.741 52.214
197.508 156.743 52.8151
195.234 156.145 52.4086
193.5 162.187 48.1491
194.366 161.08 48.1856
194.496 159.472 49.466
194.767 157.915 50.6927
191.938 163.078 46.7719
192.755 161.888 47.1142
192.692 160.709 48.3115
192.947 159.508 48.995
190.644 163.972 45.5826
190.883 162.909 46.4323
191.118 162.103 46.6332
191.417 160.655 47.8399
219.936 133.184 89.7387
222.224 131.599 90.3422
219.437 134.618 87.4539
221.567 133.884 87.2762
221.805 132.221 87.7513
218.029 135.915 86.1953
220.694 135.421 84.7911
222.108 134.019 85.1645
221.701 132.855 85.3048
220.237 133.812 83.4977
218.017 137.25 84.0869
219.391 134.912 81.3948
217.49 138.376 81.8948
217.439 135.325 80.3448
216.386 136.684 78.3791
216.802 139.394 80.6034
215.724 137.915 76.5891
215.744 140.023 79.6861
215.309 139.576 74.2767
214.252 140.725 79.3241
214.492 141.337 77.5446
214.791 141.405 71.238
213.822 142.198 76.3054
214.488 145.228 69.3495
215.14 143.764 73.3684
214.459 143.634 68.6444
216.502 143.268 70.2222
212.39 142.366 70.3842
213.048 146.926 67.0748
213.689 145.562 65.8216
211.977 143.696 68.3994
207.105 149.288 66.361
209 148.463 65.9
211.731 147.265 65.4443
211.26 146.296 65.1821
209.173 147.072 64.2082
210.449 145.19 66.3977
209.641 143.38 67.9162
205.333 151.031 64.5194
208.028 146.132 64.7455
206.974 148.409 62.7171
207.455 144.876 66.2418
203.89 152.726 62.1541
205.287 148.237 63.0518
204.785 149.996 61.0338
205.542 146.752 64.3642
202.185 154.191 60.2266
203.038 150.073 60.9977
202.789 151.856 59.5021
203.492 148.488 62.0333
200.666 155.745 58.0293
201.459 151.453 59.377
201.388 153.16 58.5113
201.193 149.776 60.5573
200.127 156.514 56.3185
199.311 157.878 54.1224
200.091 156.318 54.2561
200.866 155.837 56.1253
200.485 154.757 55.3131
201.258 154.466 57.0276
200.091 153.382 57.077
200.018 151.998 57.5737
197.961 159.17 52.0955
198.717 158.159 51.8873
199.366 156.589 52.5182
199.147 155.031 54.4553
220.043 136.518 83.2815
222.267 135.376 82.4129
221.601 134.258 83.0602
219.571 137.848 81.3199
221.156 136.73 80.517
220.656 135.393 80.8808
218.732 139.074 79.3769
220.588 138.146 78.1748
220.037 137.015 78.6511
218.624 136.296 79.5396
217.758 139.986 78.2451
219.866 139.413 76.4984
219.24 138.48 76.5445
217.963 137.462 77.2503
216.105 140.901 77.6208
217.84 140.717 75.5689
218.385 139.91 74.4731
217.214 138.965 75.1649
216.015 142.08 75.4323
217.351 141.988 73.0821
216.742 140.912 72.6859
207.401 150.279 63.8449
208.892 149.153 63.7737
210.288 147.961 63.3798
205.685 151.884 62.0369
207.405 150.82 61.4998
208.327 148.925 62.5711
203.913 152.838 60.833
205.367 151.759 60.5018
205.961 150.196 61.3479
202.297 154.032 59.3293
203.442 152.91 59.492
204.081 151.778 60.1118
201.399 155.348 57.4799
201.867 154.04 58.4828
202.535 153.006 58.7516
POLYGONS 2132  8528
3 0 1 2
3 0 3 4
3 2 3 0
3 4 5 6
3 3 5 4
3 6 7 8
3 5 7 6
3 7 9 8
3 10 1 0
3 11 1 10
3 4 12 0
3 12 10 0
3 6 13 4
3 13 12 4
3 8 14 6
3 14 13 6
3 15 8 9
3 14 8 15
3 16 11 10
3 17 11 16
3 12 18 10
3 18 16 10
3 13 19 12
3 19 18 12
3 14 20 13
3 20 19 13
3 21 14 15
3 20 14 21
3 16 22 17
3 18 22 16
3 23 22 18
3 19 23 18
3 24 23 19
3 20 24 19
3 25 24 20
3 21 25 20
3 26 27 28
3 26 29 30
3 28 29 26
3 29 31 30
3 32 33 34
3 27 32 34
3 27 26 32
3 26 35 32
3 30 36 26
3 36 35 26
3 37 30 31
3 36 30 37
3 38 33 32
3 39 33 38
3 35 40 32
3 40 38 32
3 36 41 35
3 41 40 35
3 42 36 37
3 41 36 42
3 43 44 45
3 43 46 47
3 45 46 43
3 39 47 46
3 39 38 47
3 38 48 47
3 40 49 38
3 49 48 38
3 50 41 51
3 50 49 41
3 49 40 41
3 42 51 41
3 2 44 43
3 2 1 44
3 1 52 44
3 3 2 43
3 47 3 43
3 5 3 47
3 48 5 47
3 7 5 48
3 49 7 48
3 49 9 7
3 49 50 9
3 50 53 9
3 1 11 52
3 52 11 54
3 9 53 15
3 53 55 15
3 11 17 54
3 54 17 56
3 15 55 21
3 55 57 21
3 58 17 22
3 58 59 17
3 59 56 17
3 22 23 60
3 58 22 60
3 23 24 61
3 60 23 61
3 62 61 24
3 62 24 63
3 63 24 25
3 57 25 21
3 63 25 57
3 58 64 59
3 60 64 58
3 65 64 60
3 61 65 60
3 66 65 61
3 62 66 61
3 67 68 69
3 67 70 71
3 69 70 67
3 71 72 73
3 70 72 71
3 72 74 73
3 75 76 77
3 68 75 77
3 68 67 75
3 67 78 75
3 71 79 67
3 79 78 67
3 73 80 71
3 80 79 71
3 81 73 74
3 80 73 81
3 82 76 75
3 83 76 82
3 78 84 75
3 84 82 75
3 79 85 78
3 85 84 78
3 80 86 79
3 86 85 79
3 87 80 81
3 86 80 87
3 28 83 82
3 28 27 83
3 27 88 83
3 29 28 82
3 84 29 82
3 31 29 84
3 31 84 89
3 89 84 85
3 86 90 85
3 90 89 85
3 91 86 87
3 90 86 91
3 34 92 93
3 33 92 34
3 88 27 34
3 93 88 34
3 89 94 37
3 31 89 37
3 90 95 89
3 95 94 89
3 96 90 91
3 95 90 96
3 97 98 99
3 97 99 92
3 97 92 39
3 39 92 33
3 94 100 42
3 37 94 42
3 101 95 102
3 101 100 95
3 100 94 95
3 96 102 95
3 45 103 104
3 44 103 45
3 98 97 46
3 98 46 104
3 104 46 45
3 39 46 97
3 51 105 50
3 51 42 100
3 51 100 105
3 105 100 106
3 107 100 101
3 106 100 107
3 44 52 103
3 103 52 108
3 105 109 53
3 50 105 53
3 110 106 111
3 110 109 106
3 109 105 106
3 107 111 106
3 52 54 108
3 108 54 112
3 109 113 55
3 53 109 55
3 114 109 110
3 113 109 114
3 54 56 112
3 112 56 115
3 113 116 57
3 55 113 57
3 117 113 114
3 116 113 117
3 56 59 115
3 115 59 118
3 63 119 120
3 62 63 120
3 116 63 57
3 116 121 63
3 121 119 63
3 117 121 116
3 59 122 118
3 64 122 59
3 65 123 64
3 64 123 122
3 66 124 65
3 65 124 123
3 120 66 62
3 124 66 120
3 69 125 126
3 68 125 69
3 70 69 127
3 69 126 127
3 72 70 128
3 70 127 128
3 128 74 72
3 129 74 128
3 77 130 131
3 76 130 77
3 125 68 77
3 131 125 77
3 74 129 81
3 129 132 81
3 76 83 130
3 130 83 133
3 134 135 87
3 134 87 132
3 132 87 81
3 134 136 135
3 83 88 133
3 133 88 137
3 135 138 91
3 87 135 91
3 139 135 136
3 138 135 139
3 93 140 141
3 92 140 93
3 137 88 93
3 141 137 93
3 138 142 96
3 91 138 96
3 143 138 139
3 142 138 143
3 99 144 145
3 98 144 99
3 140 92 99
3 145 140 99
3 102 146 101
3 102 147 146
3 96 147 102
3 96 148 147
3 96 142 148
3 143 148 142
3 104 149 150
3 103 149 104
3 144 98 104
3 150 144 104
3 146 151 107
3 101 146 107
3 152 146 147
3 151 146 152
3 103 108 149
3 149 108 153
3 111 154 110
3 111 155 154
3 107 155 111
3 107 156 155
3 107 151 156
3 152 156 151
3 108 112 153
3 153 112 157
3 154 158 114
3 110 154 114
3 159 154 155
3 158 154 159
3 112 115 157
3 157 115 160
3 158 161 162
3 158 162 114
3 114 162 117
3 159 161 158
3 115 118 160
3 160 118 163
3 119 164 120
3 165 164 119
3 165 119 166
3 166 119 121
3 162 121 117
3 166 121 162
3 118 167 163
3 122 167 118
3 123 168 122
3 122 168 167
3 124 169 123
3 123 169 168
3 164 124 120
3 164 170 124
3 170 169 124
3 165 170 164
3 126 125 171
3 172 126 171
3 172 173 126
3 173 127 126
3 128 127 174
3 127 173 174
3 174 129 128
3 175 129 174
3 131 130 176
3 131 176 177
3 125 131 177
3 125 177 178
3 125 178 171
3 172 171 178
3 179 180 132
3 179 132 175
3 175 132 129
3 179 181 180
3 176 182 183
3 176 130 182
3 130 133 182
3 177 176 183
3 132 180 134
3 180 136 134
3 180 181 136
3 181 184 136
3 133 137 182
3 182 137 185
3 136 184 139
3 184 186 139
3 141 187 188
3 140 187 141
3 185 137 141
3 188 185 141
3 139 186 143
3 186 189 143
3 145 190 191
3 144 190 145
3 187 140 145
3 191 187 145
3 148 192 147
3 148 193 192
3 148 143 193
3 143 189 193
3 150 194 195
3 149 194 150
3 190 144 150
3 195 190 150
3 192 196 152
3 147 192 152
3 197 192 193
3 196 192 197
3 198 199 200
3 198 200 194
3 198 194 153
3 153 194 149
3 156 201 155
3 156 202 201
3 152 202 156
3 152 203 202
3 152 196 203
3 197 203 196
3 204 199 198
3 205 199 204
3 153 157 204
3 198 153 204
3 201 206 159
3 155 201 159
3 207 201 202
3 206 201 207
3 208 205 204
3 209 205 208
3 157 160 208
3 204 157 208
3 161 210 162
3 161 211 210
3 159 211 161
3 159 212 211
3 159 206 212
3 207 212 206
3 213 209 208
3 214 209 213
3 160 163 213
3 208 160 213
3 166 215 216
3 165 166 216
3 210 166 162
3 210 217 166
3 217 215 166
3 211 217 210
3 213 218 214
3 163 218 213
3 163 167 218
3 167 219 218
3 168 220 167
3 167 220 219
3 169 221 168
3 168 221 220
3 170 222 169
3 169 222 221
3 216 170 165
3 222 170 216
3 223 224 225
3 223 226 227
3 225 226 223
3 226 228 227
3 173 224 223
3 173 172 224
3 172 229 224
3 174 173 223
3 227 174 223
3 227 175 174
3 227 228 175
3 228 230 175
3 178 231 232
3 177 231 178
3 229 172 178
3 232 229 178
3 175 230 233
3 179 175 233
3 233 181 179
3 234 181 233
3 183 235 236
3 182 235 183
3 231 177 183
3 236 231 183
3 181 234 184
3 234 237 184
3 238 239 240
3 238 240 235
3 238 235 185
3 185 235 182
3 184 237 186
3 237 241 186
3 242 243 244
3 239 242 244
3 238 242 239
3 238 187 242
3 238 188 187
3 185 188 238
3 186 241 189
3 241 245 189
3 246 247 248
3 243 246 248
3 242 246 243
3 242 190 246
3 242 191 190
3 187 191 242
3 189 245 193
3 245 249 193
3 250 251 252
3 247 250 252
3 246 250 247
3 246 194 250
3 246 195 194
3 190 195 246
3 193 249 197
3 249 253 197
3 200 251 250
3 200 199 251
3 199 254 251
3 194 200 250
3 203 255 256
3 202 203 256
3 253 203 197
3 255 203 253
3 199 205 254
3 254 205 257
3 202 256 207
3 256 258 207
3 205 209 257
3 257 209 259
3 212 260 261
3 211 212 261
3 258 212 207
3 260 212 258
3 209 214 259
3 259 214 262
3 215 263 264
3 216 215 264
3 217 265 215
3 215 265 263
3 261 217 211
3 265 217 261
3 214 266 262
3 218 266 214
3 219 267 218
3 218 267 266
3 220 268 219
3 219 268 267
3 221 269 220
3 220 269 268
3 222 270 221
3 221 270 269
3 264 222 216
3 270 222 264
3 271 272 273
3 271 225 224
3 271 273 225
3 273 274 225
3 226 225 275
3 225 274 275
3 275 228 226
3 276 228 275
3 277 272 271
3 278 272 277
3 224 229 277
3 271 224 277
3 228 276 230
3 276 279 230
3 232 278 277
3 232 231 278
3 231 280 278
3 229 232 277
3 230 279 281
3 233 230 281
3 281 234 233
3 282 234 281
3 283 284 285
3 283 236 235
3 283 285 236
3 285 286 236
3 280 231 236
3 286 280 236
3 234 282 237
3 282 287 237
3 288 289 290
3 284 288 290
3 283 288 284
3 283 239 288
3 283 240 239
3 235 240 283
3 237 287 241
3 287 291 241
3 244 289 288
3 244 243 289
3 243 292 289
3 239 244 288
3 241 291 245
3 291 293 245
3 248 294 295
3 247 294 248
3 292 243 248
3 295 292 248
3 245 293 249
3 293 296 249
3 252 297 298
3 251 297 252
3 294 247 252
3 298 294 252
3 249 296 253
3 296 299 253
3 251 254 297
3 297 254 300
3 255 301 302
3 256 255 302
3 299 255 253
3 301 255 299
3 254 257 300
3 300 257 303
3 256 302 258
3 302 304 258
3 257 259 303
3 303 259 305
3 260 306 307
3 261 260 307
3 304 260 258
3 306 260 304
3 259 262 305
3 305 262 308
3 263 309 264
3 310 309 263
3 310 263 311
3 311 263 265
3 307 265 261
3 311 265 307
3 262 312 308
3 266 312 262
3 267 313 266
3 266 313 312
3 268 314 267
3 267 314 313
3 269 315 268
3 268 315 314
3 270 316 269
3 269 316 315
3 309 270 264
3 309 317 270
3 317 316 270
3 310 317 309
3 318 319 320
3 318 321 322
3 320 321 318
3 322 323 324
3 321 323 322
3 323 325 324
3 273 319 318
3 273 272 319
3 272 326 319
3 274 273 318
3 322 274 318
3 275 274 322
3 324 275 322
3 324 276 275
3 324 325 276
3 325 327 276
3 272 278 326
3 326 278 328
3 276 327 279
3 327 329 279
3 330 331 332
3 330 332 328
3 330 328 280
3 280 328 278
3 279 329 333
3 281 279 333
3 333 282 281
3 334 282 333
3 285 335 336
3 284 335 285
3 331 330 286
3 331 286 336
3 336 286 285
3 280 286 330
3 282 334 287
3 334 337 287
3 290 338 339
3 289 338 290
3 335 284 290
3 339 335 290
3 287 337 291
3 337 340 291
3 289 292 338
3 338 292 341
3 291 340 293
3 340 342 293
3 295 343 344
3 294 343 295
3 341 292 295
3 344 341 295
3 293 342 296
3 342 345 296
3 298 346 347
3 297 346 298
3 343 294 298
3 347 343 298
3 296 345 299
3 345 348 299
3 297 300 346
3 346 300 349
3 301 350 351
3 302 301 351
3 348 301 299
3 350 301 348
3 300 303 349
3 349 303 352
3 302 351 304
3 351 353 304
3 303 305 352
3 352 305 354
3 306 355 356
3 307 306 356
3 353 306 304
3 355 306 353
3 305 308 354
3 354 308 357
3 311 358 359
3 310 311 359
3 356 311 307
3 358 311 356
3 308 360 357
3 312 360 308
3 313 361 312
3 312 361 360
3 314 362 313
3 313 362 361
3 315 363 314
3 314 363 362
3 316 364 315
3 315 364 363
3 317 365 316
3 316 365 364
3 359 317 310
3 365 317 359
3 366 367 368
3 366 369 370
3 368 369 366
3 369 371 370
3 320 367 366
3 320 319 367
3 319 372 367
3 321 320 366
3 370 321 366
3 370 371 373
3 370 373 321
3 321 373 323
3 373 325 323
3 374 325 373
3 375 376 377
3 375 377 372
3 375 372 326
3 326 372 319
3 325 374 327
3 374 378 327
3 379 376 375
3 380 376 379
3 326 328 379
3 375 326 379
3 327 378 329
3 378 381 329
3 382 383 384
3 380 382 384
3 379 382 380
3 379 331 382
3 379 332 331
3 328 332 379
3 329 381 385
3 333 329 385
3 385 334 333
3 386 334 385
3 387 388 389
3 383 387 389
3 382 387 383
3 382 335 387
3 382 336 335
3 331 336 382
3 334 386 337
3 386 390 337
3 339 388 387
3 339 338 388
3 338 391 388
3 335 339 387
3 337 390 340
3 390 392 340
3 393 394 395
3 393 395 391
3 393 391 341
3 341 391 338
3 340 392 342
3 392 396 342
3 397 398 399
3 394 397 399
3 393 397 394
3 393 343 397
3 393 344 343
3 341 344 393
3 400 401 402
3 400 396 401
3 400 345 396
3 345 342 396
3 347 398 397
3 347 346 398
3 346 403 398
3 343 347 397
3 404 400 402
3 405 404 402
3 345 404 348
3 400 404 345
3 346 349 403
3 403 349 406
3 350 404 405
3 350 405 351
3 351 405 407
3 348 404 350
3 349 352 406
3 406 352 408
3 351 407 353
3 407 409 353
3 352 354 408
3 408 354 410
3 355 411 412
3 356 355 412
3 409 355 353
3 411 355 409
3 413 357 414
3 413 410 357
3 410 354 357
3 413 414 415
3 358 416 417
3 359 358 417
3 412 358 356
3 416 358 412
3 357 360 414
3 414 418 415
3 414 360 418
3 360 361 418
3 362 419 361
3 361 419 418
3 363 420 362
3 362 420 419
3 364 421 363
3 363 421 420
3 365 422 364
3 364 422 421
3 417 365 359
3 422 365 417
3 423 424 425
3 423 368 367
3 423 425 368
3 425 426 368
3 369 368 427
3 368 426 427
3 427 371 369
3 428 371 427
3 429 424 423
3 430 424 429
3 367 372 429
3 423 367 429
3 371 428 431
3 373 371 431
3 431 374 373
3 432 374 431
3 433 434 435
3 430 433 435
3 429 433 430
3 429 376 433
3 429 377 376
3 372 377 429
3 374 432 378
3 432 436 378
3 437 434 433
3 438 434 437
3 376 380 437
3 433 376 437
3 439 440 381
3 439 381 436
3 436 381 378
3 439 441 440
3 442 443 444
3 438 442 444
3 437 442 438
3 437 383 442
3 437 384 383
3 380 384 437
3 381 440 385
3 440 386 385
3 440 441 386
3 441 445 386
3 389 443 442
3 389 388 443
3 388 446 443
3 383 389 442
3 386 445 390
3 445 447 390
3 388 391 446
3 446 391 448
3 390 447 392
3 447 449 392
3 395 450 451
3 394 450 395
3 448 391 395
3 451 448 395
3 392 449 396
3 449 452 396
3 399 453 454
3 398 453 399
3 450 394 399
3 454 450 399
3 401 455 456
3 402 401 456
3 452 401 396
3 455 401 452
3 398 403 453
3 453 403 457
3 402 456 405
3 456 458 405
3 403 406 457
3 457 406 459
3 405 458 407
3 458 460 407
3 406 408 459
3 459 408 461
3 462 463 464
3 462 460 463
3 462 409 460
3 409 407 460
3 465 410 466
3 465 461 410
3 461 408 410
3 465 466 467
3 468 469 470
3 464 469 468
3 462 464 468
3 462 468 412
3 462 412 411
3 409 462 411
3 410 413 466
3 466 413 415
3 466 415 467
3 467 415 471
3 472 473 474
3 472 475 476
3 473 472 476
3 470 476 475
3 468 470 475
3 468 475 417
3 468 417 416
3 412 468 416
3 415 477 471
3 418 477 415
3 419 478 418
3 418 478 477
3 420 479 419
3 419 479 478
3 474 421 472
3 474 479 421
3 479 420 421
3 422 472 421
3 475 472 422
3 417 475 422
3 480 481 482
3 480 483 484
3 482 483 480
3 483 485 484
3 425 486 487
3 424 486 425
3 481 480 426
3 481 426 487
3 487 426 425
3 427 426 480
3 484 427 480
3 484 428 427
3 484 485 428
3 485 488 428
3 489 490 491
3 489 491 486
3 489 486 430
3 430 486 424
3 428 488 492
3 431 428 492
3 492 432 431
3 493 432 492
3 494 495 496
3 490 494 496
3 489 494 490
3 489 434 494
3 489 435 434
3 430 435 489
3 432 493 436
3 493 497 436
3 498 495 494
3 499 495 498
3 434 438 498
3 494 434 498
3 436 497 500
3 439 436 500
3 500 441 439
3 501 441 500
3 444 499 498
3 444 443 499
3 443 502 499
3 438 444 498
3 441 501 445
3 501 503 445
3 504 505 506
3 504 506 502
3 504 502 446
3 446 502 443
3 445 503 447
3 503 507 447
3 508 505 504
3 509 505 508
3 446 448 508
3 504 446 508
3 447 507 449
3 507 510 449
3 511 512 513
3 509 511 513
3 508 511 509
3 508 450 511
3 508 451 450
3 448 451 508
3 449 510 452
3 510 514 452
3 454 512 511
3 454 453 512
3 453 515 512
3 450 454 511
3 455 516 517
3 456 455 517
3 514 455 452
3 516 455 514
3 453 457 515
3 515 457 518
3 456 517 458
3 517 519 458
3 457 459 518
3 518 459 520
3 521 522 523
3 521 519 522
3 521 460 519
3 460 458 519
3 459 461 520
3 520 461 524
3 525 526 527
3 525 528 529
3 526 525 529
3 528 530 531
3 529 528 531
3 523 531 530
3 521 523 530
3 521 530 464
3 521 464 463
3 460 521 463
3 461 532 524
3 465 532 461
3 532 465 467
3 533 532 467
3 534 525 527
3 535 534 527
3 528 525 536
3 536 525 534
3 469 536 470
3 469 530 536
3 530 528 536
3 464 530 469
3 537 471 538
3 537 533 471
3 533 467 471
3 538 539 540
3 537 538 540
3 539 541 542
3 540 539 542
3 535 542 541
3 534 535 541
3 534 541 474
3 534 474 473
3 476 534 473
3 536 534 476
3 470 536 476
3 471 477 538
3 478 538 477
3 539 538 478
3 479 539 478
3 541 539 479
3 474 541 479
3 543 544 545
3 543 546 547
3 545 546 543
3 547 548 549
3 546 548 547
3 548 550 549
3 551 544 543
3 552 544 551
3 482 481 551
3 482 551 547
3 547 551 543
3 483 482 547
3 549 483 547
3 549 485 483
3 549 550 485
3 550 553 485
3 554 555 556
3 552 554 556
3 551 554 552
3 551 486 554
3 551 487 486
3 481 487 551
3 485 553 488
3 553 557 488
3 558 559 560
3 555 558 560
3 554 558 555
3 554 490 558
3 554 491 490
3 486 491 554
3 488 557 561
3 492 488 561
3 561 493 492
3 562 493 561
3 496 559 558
3 496 495 559
3 495 563 559
3 490 496 558
3 493 562 497
3 562 564 497
3 565 566 567
3 565 567 563
3 565 563 499
3 499 563 495
3 568 500 497
3 568 497 569
3 569 497 564
3 500 568 501
3 570 566 565
3 571 566 570
3 499 502 570
3 565 499 570
3 568 569 572
3 572 501 568
3 572 573 501
3 573 503 501
3 506 571 570
3 506 505 571
3 505 574 571
3 502 506 570
3 503 573 507
3 573 575 507
3 576 577 578
3 576 578 574
3 576 574 509
3 509 574 505
3 507 575 510
3 575 579 510
3 513 577 576
3 513 512 577
3 512 580 577
3 509 513 576
3 581 582 583
3 581 579 582
3 581 514 579
3 514 510 579
3 512 515 580
3 580 515 584
3 516 581 583
3 516 583 517
3 517 583 585
3 514 581 516
3 515 518 584
3 584 518 586
3 517 585 519
3 585 587 519
3 588 520 589
3 588 586 520
3 586 518 520
3 588 589 590
3 591 592 593
3 591 523 522
3 591 522 592
3 592 522 594
3 587 522 519
3 594 522 587
3 589 524 595
3 520 524 589
3 596 590 589
3 595 596 589
3 526 597 598
3 527 526 598
3 529 599 526
3 526 599 597
3 593 531 591
3 593 599 531
3 599 529 531
3 523 591 531
3 524 532 595
3 533 600 601
3 532 533 601
3 532 601 596
3 532 596 595
3 600 602 603
3 601 600 603
3 602 604 605
3 603 602 605
3 604 598 605
3 604 535 598
3 535 527 598
3 533 537 600
3 540 600 537
3 602 600 540
3 542 602 540
3 604 602 542
3 535 604 542
3 606 607 608
3 606 609 610
3 608 609 606
3 610 545 544
3 610 609 545
3 609 611 545
3 546 545 612
3 545 611 612
3 548 546 613
3 546 612 613
3 613 550 548
3 614 550 613
3 615 607 606
3 616 607 615
3 610 617 606
3 617 615 606
3 544 552 617
3 610 544 617
3 550 614 553
3 614 618 553
3 619 616 615
3 620 616 619
3 556 555 619
3 556 619 617
3 617 619 615
3 552 556 617
3 553 618 557
3 618 621 557
3 622 623 624
3 620 622 624
3 619 622 620
3 619 559 622
3 619 560 559
3 555 560 619
3 625 561 557
3 625 557 626
3 626 557 621
3 561 625 562
3 627 623 622
3 628 623 627
3 559 563 627
3 622 559 627
3 625 626 629
3 629 562 625
3 629 630 562
3 630 564 562
3 567 628 627
3 567 566 628
3 566 631 628
3 563 567 627
3 564 630 569
3 630 632 569
3 566 571 631
3 631 571 633
3 634 572 569
3 634 569 635
3 635 569 632
3 572 634 573
3 571 574 633
3 633 574 636
3 637 634 635
3 638 637 635
3 573 637 575
3 634 637 573
3 578 639 640
3 577 639 578
3 636 574 578
3 640 636 578
3 641 642 643
3 638 642 641
3 638 641 637
3 637 641 644
3 575 644 579
3 637 644 575
3 577 580 639
3 639 580 645
3 646 641 643
3 647 646 643
3 582 646 583
3 582 644 646
3 644 641 646
3 579 644 582
3 580 584 645
3 645 584 648
3 649 646 647
3 650 649 647
3 583 649 585
3 646 649 583
3 584 586 648
3 648 586 651
3 652 653 654
3 650 653 652
3 650 652 649
3 649 652 655
3 585 655 587
3 649 655 585
3 586 656 651
3 588 656 586
3 590 657 658
3 590 658 588
3 588 658 656
3 658 657 659
3 660 661 662
3 654 661 660
3 652 654 660
3 652 660 593
3 652 593 592
3 594 652 592
3 655 652 594
3 587 655 594
3 657 596 663
3 590 596 657
3 664 659 657
3 664 657 665
3 665 657 663
3 665 666 667
3 664 665 667
3 666 598 597
3 666 597 667
3 667 597 668
3 662 599 660
3 662 668 599
3 668 597 599
3 593 660 599
3 596 601 663
3 603 663 601
3 665 663 603
3 605 665 603
3 666 665 605
3 598 666 605
3 669 670 671
3 669 672 673
3 671 672 669
3 673 674 675
3 672 674 673
3 674 676 675
3 677 678 679
3 670 677 679
3 670 669 677
3 669 680 677
3 673 681 669
3 681 680 669
3 675 682 673
3 682 681 673
3 683 675 676
3 682 675 683
3 608 678 677
3 608 607 678
3 607 684 678
3 609 608 677
3 680 609 677
3 611 609 680
3 681 611 680
3 612 611 681
3 682 612 681
3 682 683 685
3 682 685 612
3 612 685 613
3 685 614 613
3 686 614 685
3 607 616 684
3 684 616 687
3 614 686 618
3 686 688 618
3 689 690 691
3 689 691 687
3 689 687 620
3 620 687 616
3 618 688 621
3 688 692 621
3 624 690 689
3 624 623 690
3 623 693 690
3 620 624 689
3 621 692 626
3 692 694 626
3 623 628 693
3 693 628 695
3 626 694 696
3 629 626 696
3 696 630 629
3 697 630 696
3 628 631 695
3 695 631 698
3 630 697 632
3 697 699 632
3 631 633 698
3 698 633 700
3 632 699 635
3 699 701 635
3 633 636 700
3 700 636 702
3 635 701 638
3 701 703 638
3 640 639 704
3 640 704 705
3 640 705 636
3 636 705 702
3 642 706 707
3 643 642 707
3 703 642 638
3 706 642 703
3 704 645 708
3 639 645 704
3 709 705 704
3 708 709 704
3 643 707 647
3 707 710 647
3 708 648 711
3 645 648 708
3 712 709 708
3 711 712 708
3 713 714 715
3 713 710 714
3 713 650 710
3 650 647 710
3 711 651 716
3 648 651 711
3 717 712 711
3 716 717 711
3 718 719 720
3 718 721 722
3 719 718 722
3 715 722 721
3 713 715 721
3 713 721 654
3 713 654 653
3 650 713 653
3 651 656 716
3 716 723 717
3 716 656 723
3 656 658 723
3 659 724 725
3 659 725 658
3 658 725 723
3 724 726 727
3 725 724 727
3 720 727 726
3 720 726 718
3 718 726 728
3 661 728 662
3 661 721 728
3 721 718 728
3 654 721 661
3 659 664 724
3 667 724 664
3 726 724 667
3 668 726 667
3 728 726 668
3 662 728 668
3 729 730 731
3 729 732 733
3 731 732 729
3 732 734 733
3 735 730 729
3 736 730 735
3 733 737 729
3 737 735 729
3 738 733 734
3 737 733 738
3 735 739 736
3 737 739 735
3 740 739 737
3 738 740 737
3 741 742 743
3 741 744 745
3 743 744 741
3 745 746 747
3 744 746 745
3 746 748 747
3 749 742 741
3 750 742 749
3 671 670 749
3 671 749 745
3 745 749 741
3 672 671 745
3 747 672 745
3 747 748 751
3 747 751 672
3 672 751 674
3 751 676 674
3 752 676 751
3 679 750 749
3 679 678 750
3 678 753 750
3 670 679 749
3 676 752 683
3 752 754 683
3 755 756 757
3 755 757 753
3 755 753 684
3 684 753 678
3 683 754 758
3 685 683 758
3 758 686 685
3 759 686 758
3 760 756 755
3 761 756 760
3 684 687 760
3 755 684 760
3 686 759 688
3 759 762 688
3 691 761 760
3 691 690 761
3 690 763 761
3 687 691 760
3 688 762 692
3 762 764 692
3 690 693 763
3 763 693 765
3 692 764 694
3 764 766 694
3 693 695 765
3 765 695 767
3 768 696 694
3 768 694 769
3 769 694 766
3 696 768 697
3 695 698 767
3 767 698 770
3 771 768 769
3 772 771 769
3 697 771 699
3 768 771 697
3 698 700 770
3 770 700 773
3 774 771 772
3 775 774 772
3 699 774 701
3 771 774 699
3 700 702 773
3 773 702 776
3 777 774 775
3 778 777 775
3 701 777 703
3 774 777 701
3 702 705 776
3 776 705 779
3 780 781 782
3 778 781 780
3 777 778 780
3 777 780 707
3 777 707 706
3 703 777 706
3 705 709 779
3 779 709 783
3 784 785 786
3 784 787 788
3 785 784 788
3 782 788 787
3 782 787 780
3 780 787 789
3 707 789 710
3 780 789 707
3 790 712 791
3 790 783 712
3 783 709 712
3 791 792 793
3 790 791 793
3 792 794 795
3 793 792 795
3 786 795 794
3 786 794 784
3 784 794 796
3 787 784 797
3 797 784 796
3 714 797 715
3 714 789 797
3 789 787 797
3 710 789 714
3 791 717 798
3 712 717 791
3 792 791 799
3 799 791 798
3 794 792 800
3 800 792 799
3 719 800 720
3 719 796 800
3 796 794 800
3 722 796 719
3 797 796 722
3 715 797 722
3 717 723 798
3 725 798 723
3 799 798 725
3 727 799 725
3 800 799 727
3 720 800 727
3 801 802 803
3 801 804 805
3 803 804 801
3 804 806 805
3 807 802 801
3 808 802 807
3 731 730 807
3 731 807 805
3 805 807 801
3 805 806 809
3 805 809 731
3 731 809 732
3 809 734 732
3 810 734 809
3 811 808 807
3 812 808 811
3 730 736 811
3 807 730 811
3 734 810 738
3 810 813 738
3 814 812 811
3 815 812 814
3 736 739 816
3 736 816 811
3 811 816 814
3 739 740 817
3 816 739 817
3 740 818 817
3 740 738 818
3 738 813 818
3 819 815 814
3 820 815 819
3 816 821 814
3 821 819 814
3 817 822 816
3 822 821 816
3 823 817 818
3 823 824 817
3 824 822 817
3 823 825 824
3 826 820 819
3 827 820 826
3 821 828 819
3 828 826 819
3 822 829 821
3 829 828 821
3 824 830 822
3 830 829 822
3 831 824 825
3 830 824 831
3 826 832 827
3 832 833 834
3 832 826 833
3 826 828 833
3 829 835 828
3 835 833 828
3 830 836 829
3 836 835 829
3 837 830 831
3 836 830 837
3 838 834 833
3 839 834 838
3 835 840 833
3 840 838 833
3 836 841 835
3 841 840 835
3 842 836 837
3 841 836 842
3 838 843 839
3 843 844 845
3 843 838 844
3 838 840 844
3 841 846 840
3 846 844 840
3 847 841 842
3 847 848 841
3 848 846 841
3 847 849 848
3 743 845 844
3 743 742 845
3 742 850 845
3 744 743 844
3 846 744 844
3 746 744 846
3 848 746 846
3 848 748 746
3 848 849 748
3 849 851 748
3 852 853 854
3 852 854 850
3 852 850 750
3 750 850 742
3 748 851 855
3 751 748 855
3 855 752 751
3 856 752 855
3 857 853 852
3 858 853 857
3 750 753 857
3 852 750 857
3 752 856 754
3 856 859 754
3 757 858 857
3 757 756 858
3 756 860 858
3 753 757 857
3 861 758 754
3 861 754 862
3 862 754 859
3 758 861 759
3 756 761 860
3 860 761 863
3 861 862 864
3 864 759 861
3 864 865 759
3 865 762 759
3 761 763 863
3 863 763 866
3 762 865 764
3 865 867 764
3 763 765 866
3 866 765 868
3 869 870 871
3 869 867 870
3 869 766 867
3 766 764 867
3 765 767 868
3 868 767 872
3 873 869 871
3 874 873 871
3 766 873 769
3 869 873 766
3 767 770 872
3 872 770 875
3 876 873 874
3 877 876 874
3 769 876 772
3 873 876 769
3 770 773 875
3 875 773 878
3 879 880 881
3 877 880 879
3 877 879 876
3 876 879 882
3 772 882 775
3 876 882 772
3 773 776 878
3 878 776 883
3 884 879 881
3 885 884 881
3 882 879 886
3 886 879 884
3 775 886 778
3 882 886 775
3 776 779 883
3 883 779 887
3 888 884 885
3 889 888 885
3 781 888 782
3 781 886 888
3 886 884 888
3 778 886 781
3 890 783 891
3 890 887 783
3 887 779 783
3 891 892 893
3 890 891 893
3 892 894 895
3 893 892 895
3 894 786 785
3 894 785 895
3 895 785 896
3 889 788 888
3 889 896 788
3 896 785 788
3 782 888 788
3 783 790 891
3 793 891 790
3 892 891 793
3 795 892 793
3 894 892 795
3 786 894 795
3 803 897 898
3 802 897 803
3 804 803 899
3 803 898 899
3 899 806 804
3 900 806 899
3 802 808 897
3 897 808 901
3 806 900 902
3 809 806 902
3 902 810 809
3 903 810 902
3 808 812 901
3 901 812 904
3 810 903 813
3 903 905 813
3 812 815 904
3 904 815 906
3 813 905 818
3 905 907 818
3 815 820 906
3 906 820 908
3 818 907 909
3 823 818 909
3 909 825 823
3 910 825 909
3 820 827 908
3 908 827 911
3 825 910 831
3 910 912 831
3 913 827 832
3 913 914 827
3 914 911 827
3 832 834 913
3 831 912 837
3 912 915 837
3 913 916 914
3 916 913 834
3 916 834 917
3 917 834 839
3 837 915 842
3 915 918 842
3 839 919 917
3 843 919 839
3 919 843 845
3 920 919 845
3 842 918 921
3 847 842 921
3 921 849 847
3 922 849 921
3 845 850 920
3 920 850 923
3 849 922 851
3 922 924 851
3 854 925 926
3 853 925 854
3 923 850 854
3 926 923 854
3 851 924 927
3 855 851 927
3 927 856 855
3 928 856 927
3 853 858 925
3 925 858 929
3 856 928 859
3 928 930 859
3 858 860 929
3 929 860 931
3 859 930 862
3 930 932 862
3 860 863 931
3 931 863 933
3 934 864 862
3 934 862 935
3 935 862 932
3 864 934 865
3 863 866 933
3 933 866 936
3 937 934 935
3 938 937 935
3 865 937 867
3 934 937 865
3 866 868 936
3 936 868 939
3 870 937 938
3 870 938 871
3 871 938 940
3 867 937 870
3 868 872 939
3 939 872 941
3 942 943 944
3 942 940 943
3 942 874 940
3 874 871 940
3 945 875 946
3 945 941 875
3 941 872 875
3 946 947 948
3 945 946 948
3 947 949 950
3 948 947 950
3 949 951 952
3 950 949 952
3 944 952 951
3 944 951 942
3 942 951 953
3 874 953 877
3 942 953 874
3 946 878 954
3 875 878 946
3 947 946 955
3 955 946 954
3 949 947 956
3 956 947 955
3 951 949 957
3 957 949 956
3 880 957 881
3 880 953 957
3 953 951 957
3 877 953 880
3 954 883 958
3 878 883 954
3 955 954 959
3 959 954 958
3 956 955 960
3 960 955 959
3 957 956 961
3 961 956 960
3 881 961 885
3 957 961 881
3 958 887 962
3 883 887 958
3 959 958 963
3 963 958 962
3 960 959 964
3 964 959 963
3 961 960 965
3 965 960 964
3 885 965 889
3 961 965 885
3 887 890 962
3 893 962 890
3 963 962 893
3 895 963 893
3 964 963 895
3 896 964 895
3 965 964 896
3 889 965 896
3 898 897 966
3 898 967 899
3 966 967 898
3 899 967 900
3 966 901 968
3 897 901 966
3 967 966 969
3 969 966 968
3 900 970 902
3 900 967 970
3 967 969 970
3 902 970 903
3 968 971 972
3 968 901 971
3 901 904 971
3 969 968 972
3 973 969 972
3 970 969 973
3 974 970 973
3 974 903 970
3 974 975 903
3 975 905 903
3 904 906 971
3 971 906 976
3 905 975 907
3 975 977 907
3 906 908 976
3 976 908 978
3 907 977 979
3 909 907 979
3 979 910 909
3 980 910 979
3 908 911 978
3 978 911 981
3 910 980 912
3 980 982 912
3 911 914 981
3 981 914 983
3 912 982 915
3 982 984 915
3 914 985 983
3 916 985 914
3 985 916 917
3 986 985 917
3 915 984 918
3 984 987 918
3 917 988 986
3 919 988 917
3 920 989 990
3 920 990 919
3 919 990 988
3 989 991 992
3 990 989 992
3 921 991 993
3 921 987 991
3 921 918 987
3 992 991 987
3 921 993 922
3 989 923 994
3 920 923 989
3 991 989 995
3 995 989 994
3 993 991 996
3 996 991 995
3 922 996 924
3 993 996 922
3 926 997 998
3 925 997 926
3 994 923 926
3 994 926 999
3 999 926 998
3 995 994 999
3 1000 995 999
3 1000 1001 1002
3 1000 1002 995
3 995 1002 996
3 924 1003 927
3 924 996 1003
3 996 1002 1003
3 927 1003 928
3 925 929 997
3 997 929 1004
3 1005 1002 1001
3 1006 1005 1001
3 1003 1002 1007
3 1007 1002 1005
3 928 1007 930
3 1003 1007 928
3 929 931 1004
3 1004 931 1008
3 1009 1005 1006
3 1010 1009 1006
3 1007 1005 1011
3 1011 1005 1009
3 930 1011 932
3 1007 1011 930
3 931 933 1008
3 1008 933 1012
3 1013 1009 1010
3 1014 1013 1010
3 1011 1009 1015
3 1015 1009 1013
3 932 1015 935
3 1011 1015 932
3 933 936 1012
3 1012 936 1016
3 1017 1013 1014
3 1018 1017 1014
3 1015 1013 1019
3 1019 1013 1017
3 935 1019 938
3 1015 1019 935
3 1020 939 1021
3 1020 1016 939
3 1016 936 939
3 1021 1022 1023
3 1020 1021 1023
3 1022 1024 1025
3 1023 1022 1025
3 1018 1025 1024
3 1018 1024 1017
3 1017 1024 1026
3 1019 1017 1027
3 1027 1017 1026
3 938 1027 940
3 1019 1027 938
3 1021 941 1028
3 939 941 1021
3 1022 1021 1029
3 1029 1021 1028
3 1024 1022 1030
3 1030 1022 1029
3 1026 1024 1031
3 1031 1024 1030
3 943 1031 944
3 943 1027 1031
3 1027 1026 1031
3 940 1027 943
3 941 945 1028
3 948 1028 945
3 1029 1028 948
3 950 1029 948
3 1030 1029 950
3 952 1030 950
3 1031 1030 952
3 944 1031 952
3 972 971 1032
3 972 1033 973
3 1032 1033 972
3 973 1034 974
3 1033 1034 973
3 974 1034 975
3 1032 976 1035
3 971 976 1032
3 1033 1032 1036
3 1036 1032 1035
3 1034 1033 1037
3 1037 1033 1036
3 975 1037 977
3 1034 1037 975
3 1035 978 1038
3 976 978 1035
3 1036 1035 1039
3 1039 1035 1038
3 1037 1036 1040
3 1040 1036 1039
3 977 1041 979
3 977 1037 1041
3 1037 1040 1041
3 979 1041 980
3 1038 981 1042
3 978 981 1038
3 1039 1038 1043
3 1043 1038 1042
3 1040 1039 1044
3 1044 1039 1043
3 1041 1040 1045
3 1045 1040 1044
3 980 1045 982
3 1041 1045 980
3 1042 983 1046
3 981 983 1042
3 1043 1042 1047
3 1047 1042 1046
3 1044 1043 1048
3 1048 1043 1047
3 1045 1044 1049
3 1049 1044 1048
3 982 1049 984
3 1045 1049 982
3 983 985 1046
3 986 1046 985
3 986 1050 1046
3 1050 1047 1046
3 1048 1047 1051
3 1051 1047 1050
3 1049 1048 1052
3 1052 1048 1051
3 984 1052 987
3 1049 1052 984
3 986 988 1050
3 990 1050 988
3 1051 1050 990
3 992 1051 990
3 1052 1051 992
3 987 1052 992
3 998 997 1053
3 998 1054 999
3 1053 1054 998
3 999 1055 1000
3 1054 1055 999
3 1000 1055 1001
3 1053 1004 1056
3 997 1004 1053
3 1054 1053 1057
3 1057 1053 1056
3 1055 1054 1058
3 1058 1054 1057
3 1001 1058 1006
3 1055 1058 1001
3 1056 1008 1059
3 1004 1008 1056
3 1057 1056 1060
3 1060 1056 1059
3 1058 1057 1061
3 1061 1057 1060
3 1006 1061 1010
3 1058 1061 1006
3 1059 1012 1062
3 1008 1012 1059
3 1060 1059 1063
3 1063 1059 1062
3 1061 1060 1064
3 1064 1060 1063
3 1010 1064 1014
3 1061 1064 1010
3 1062 1016 1065
3 1012 1016 1062
3 1063 1062 1066
3 1066 1062 1065
3 1064 1063 1067
3 1067 1063 1066
3 1014 1067 1018
3 1064 1067 1014
3 1016 1020 1065
3 1023 1065 1020
3 1066 1065 1023
3 1025 1066 1023
3 1067 1066 1025
3 1018 1067 1025
