# vtk DataFile Version 3.0
this file was written using fslvtkio
ASCII
DATASET POLYDATA
POINTS 642 float
166.485 114.586 117.849
165.647 122.449 121.199
165.661 124.676 128.383
167.179 117.413 124.894
169.822 117.583 120.281
163.963 116.858 123.785
164.269 121.321 125.64
168.99 122.584 121.939
167.532 119.469 115.945
168.305 121.22 127.281
164.643 121.56 130.844
162.881 118.359 118.172
168.645 121.134 118.345
169.512 118.57 117.44
170.333 120.175 120.539
169.137 121.869 124.672
169.538 119.415 123.696
164.646 118.524 121.136
163.849 119.236 124.751
162.474 116.646 120.325
163.284 122.221 128.988
164.644 118.846 127.213
168.626 117.121 122.466
168.54 115.823 118.523
166.891 115.728 121.353
165.629 116.495 124.995
164.443 114.949 119.937
167.361 122.696 121.165
167.554 124.179 125.172
165.318 124.457 124.968
164.963 121.453 123.292
164.235 123.869 127.939
164.228 115.883 116.589
167.01 117.072 116.321
165.057 119.754 115.912
164.863 120.146 118.756
166.489 121.818 117.666
166.245 119.249 128.241
166.696 121.894 130.45
168.545 118.7 126.725
164.23 124.808 131.882
167.234 123.296 128.27
169.4 119.741 117.307
170.206 119.198 118.888
169.858 120.801 119.299
170.266 118.767 120.488
169.86 117.686 118.592
168.387 118.71 116.538
168.096 120.269 117.12
168.999 121.818 120.186
169.788 121.452 121.322
169.837 121.085 122.567
170.071 119.689 122.034
169.353 120.736 124.231
169.608 118.447 121.999
169.112 122.553 123.684
168.634 121.746 126.11
168.998 120.14 125.543
164.232 118.792 122.879
163.402 117.71 122.325
163.029 117.661 120.643
163.26 116.596 122.108
163.938 117.95 124.228
163.887 120.293 125.173
164.658 119.979 123.337
163.619 118.227 119.491
161.857 117.29 118.936
163.546 120.527 128.609
163.978 119.102 126.071
163.021 120.815 127.395
164.593 117.692 125.552
164.881 120.305 128.839
164.301 121.824 129.964
162.89 122.295 127.932
168.893 116.1 120.372
167.854 115.386 119.786
168.014 116.063 121.902
166.7 115.061 119.588
167.591 115.164 117.96
169.208 116.881 119.166
169.185 117.429 121.526
167.909 117.389 123.745
167.111 116.288 123.133
166.054 115.972 123.035
165.711 115.277 120.708
165.062 115.612 122.207
165.418 114.803 118.946
166.48 116.737 125.123
164.772 116.578 124.3
164.211 115.509 122.075
167.672 123.612 123.124
166.47 124.793 124.888
166.597 123.349 123.277
165.609 124.796 126.535
166.759 124.385 126.943
168.415 123.546 123.867
168.219 122.703 121.499
166.495 122.718 121.323
165.86 122.548 123.568
165.24 122.542 124.601
164.867 124.329 126.893
164.512 122.907 126.027
164.778 124.502 128.714
165.21 122.032 122.27
164.93 121.096 124.602
163.722 123.206 127.306
165.625 116.289 116.157
165.782 117.899 115.566
164.307 117.698 116.329
166.361 119.309 115.434
167.167 118.203 115.962
166.754 115.756 116.777
165.351 114.905 117.084
162.773 117.006 117.589
163.82 118.946 117.01
164.402 120.315 117.054
165.833 120.845 116.181
165.472 121.238 118.049
167.065 120.925 116.527
163.755 119.35 118.638
165.078 121.519 120.089
166.086 122.165 119.459
166.448 120.537 130.157
167.712 120.343 128.873
167.302 119.323 128.117
168.353 120.114 127.23
167.746 121.801 129.034
165.416 122.056 131.022
165.458 120.25 129.633
166.791 118.608 126.568
167.767 118.505 126.024
165.923 124.198 130.628
167.217 123.278 130.06
165.34 123.386 131.447
167.69 122.565 127.947
166.111 123.94 128.843
165.02 124.85 130.407
163.909 123.171 131.635
168.987 117.092 117.59
168.091 117.866 117.002
167.972 116.234 117.061
164.294 115.227 118.312
163.328 116.077 118.53
163.384 115.7 120.755
168.817 119.191 125.216
168.931 118.434 123.371
168.245 118.099 124.508
166.094 117.397 126.124
165.047 117.251 126.253
165.614 118.992 127.568
167.62 121.612 117.681
168.215 122.464 119.556
166.882 122.292 119.37
164.768 120.923 121.09
164.843 120.096 122.383
164.659 119.38 120.162
167.472 123.973 126.945
168.522 123.461 125.17
168.219 122.786 126.531
164.007 123.604 130.51
163.485 123.624 128.782
164.3 124.452 130.122
169.811 119.543 118.185
169.98 119.987 118.966
169.692 120.167 118.289
170.284 120.484 119.815
170.308 119.723 119.646
169.866 118.89 118.212
169.607 119.146 117.403
169.156 120.407 117.91
169.318 120.751 118.681
170.316 118.912 119.557
170.095 118.419 118.76
170.251 118.269 119.425
169.73 118.182 118.102
170.383 119.399 120.327
170.073 118.159 120.247
169.995 117.75 119.414
169.094 119.184 116.834
168.93 120.091 117.101
168.467 119.551 116.715
168.48 120.679 117.647
169.026 118.656 116.88
168.064 118.995 116.162
167.876 119.787 116.505
169.415 121.29 119.41
170.135 121.11 120.048
169.58 121.803 120.589
170.19 120.879 120.756
168.913 121.35 119.112
169.136 122.242 120.891
169.324 122.012 121.661
170.085 120.315 122.122
169.918 120.174 123.119
169.742 120.86 123.282
169.612 120.108 123.886
169.956 119.57 122.941
170.224 119.878 121.21
170.26 120.619 121.451
169.58 121.562 123.562
169.369 121.239 124.169
169.948 119.028 122.189
170.268 119.255 121.216
170.104 118.495 121.138
169.673 118.972 122.87
169.764 118.025 121.088
169.876 121.309 121.895
169.445 121.816 123.131
169.329 121.993 122.522
169.305 122.231 124.16
169.006 122.494 122.814
168.973 121.277 125.044
169.266 120.361 124.848
168.837 120.988 125.717
169.173 119.845 124.631
168.842 121.755 125.321
168.555 121.38 126.648
168.723 120.555 126.369
163.849 118.295 122.56
163.33 117.625 121.403
164.017 118.033 121.57
162.485 117.259 120.643
162.844 117.086 121.478
163.629 118.292 123.387
163.816 118.986 123.807
164.442 118.505 121.863
164.117 117.94 120.862
163.112 117.258 122.285
163.582 117.812 123.363
163.364 117.234 123.26
163.918 118.494 124.169
162.842 116.468 121.183
163.456 116.611 123.047
163.841 117.43 124.114
163.906 119.558 124.141
164.39 119.324 123.04
164.432 119.99 124.2
164.774 119.153 122.292
163.878 119.788 125.024
164.06 120.74 125.28
164.64 120.499 124.505
163.349 117.882 120.085
162.276 117.64 119.929
162.46 118.023 119.502
162.226 117.003 119.639
164.176 118.188 120.318
162.989 118.295 119.017
162.261 117.977 118.707
163.813 119.831 127.385
163.507 119.941 126.797
163.221 120.588 128.003
163.497 120.029 126.168
163.876 119.225 125.362
164.21 119.194 126.795
163.992 119.595 127.792
163.277 121.295 128.681
162.991 121.444 128.296
164.276 118.567 124.823
164.397 118.552 125.808
164.143 117.744 125.024
164.605 118.446 126.33
164.25 117.164 124.726
164.304 120.129 128.565
164.045 121.303 129.221
164.437 120.948 129.503
164.071 121.953 129.346
164.813 119.613 127.928
164.643 120.8 129.974
164.345 121.546 130.435
162.786 121.566 127.703
163.348 120.578 126.236
163.31 121.299 126.447
162.835 122.389 128.559
163.439 121.83 126.719
168.362 115.703 120.112
167.962 115.687 120.821
168.508 115.794 121.027
167.527 115.784 121.59
167.441 115.491 120.704
168.24 115.529 119.181
168.658 115.858 119.485
168.76 116.486 121.347
168.463 116.398 122.042
167.372 115.085 119.749
167.816 115.157 118.807
167.292 114.954 118.805
168.091 115.536 118.186
166.843 115.408 120.44
166.614 114.751 118.771
167.003 114.908 118.115
169.119 116.24 119.675
169.1 116.718 120.883
169.364 116.98 120.235
168.838 117.248 121.914
168.817 116.34 118.857
169.672 117.184 119.546
169.506 117.476 120.888
168.055 116.538 122.805
167.594 116.202 122.502
167.617 116.703 123.529
167.028 115.91 122.204
168.258 117.108 123.037
167.466 117.479 124.266
167.179 116.684 124.03
166.018 115.809 121.699
165.375 115.392 121.534
165.629 115.7 122.672
164.836 115.194 121.11
165.1 115.139 120.575
166.313 115.641 121.049
166.427 115.877 121.991
165.69 116.264 123.818
165.308 115.982 123.336
165.504 114.903 119.933
166.236 115.185 120.224
166.057 114.821 119.303
164.917 115.022 119.619
166.032 114.588 118.413
166.592 116.038 122.908
166.18 116.492 123.896
166.69 116.635 123.882
166.073 116.535 125.009
166.823 117.004 124.838
164.95 116.261 123.272
164.649 115.373 121.933
164.464 116.152 122.923
164.285 115.132 120.846
165.271 116.465 124.508
164.451 116.647 123.924
163.96 116.233 123.074
167.115 124.374 124.003
166.53 124.24 124.114
167.084 123.565 123.297
166.14 124.025 124.111
165.98 124.682 124.699
167.127 124.315 124.809
167.577 124.132 124.048
167.525 123.077 122.324
167.056 122.967 122.431
166.045 124.978 125.581
166.712 124.475 125.805
166.222 124.467 126.496
167.094 124.334 125.95
165.529 124.817 125.602
165.698 124.734 127.404
166.216 124.488 127.494
168.076 123.667 123.503
167.948 123.092 122.465
168.372 123.218 122.66
167.799 122.768 121.37
167.993 123.983 124.422
168.766 123.032 122.879
168.604 122.692 121.69
166.635 122.761 122.365
166.204 123.142 123.515
166.225 122.707 122.472
165.721 123.565 124.248
166.947 122.742 121.218
166.061 122.675 121.484
165.848 122.429 122.475
164.817 123.927 125.696
164.594 123.727 126.371
164.999 122.742 125.415
164.259 123.621 126.971
164.618 123.946 127.319
164.949 124.658 125.947
165.185 123.571 124.954
165.095 121.949 124.225
165.029 121.861 124.994
165.097 123.971 127.672
165.168 125.045 126.595
165.168 124.649 127.701
164.683 124.025 128.287
165.259 124.6 128.467
165.645 122.749 124.192
165.375 122.072 123.678
165.647 122.111 123.008
165.138 121.631 122.835
165.458 122.193 121.835
164.885 121.69 125.398
164.142 122.965 126.493
164.408 121.995 125.906
163.922 123.601 127.572
164.929 121.233 123.946
164.829 121.06 125.218
163.882 122.263 126.444
165.537 117.151 115.931
165.058 117.753 115.876
164.88 116.865 116.068
164.818 118.595 116.081
165.332 118.533 115.602
166.226 117.411 115.909
166.202 116.927 116.115
165.017 116.095 116.296
164.284 116.768 116.373
166.051 118.451 115.224
166.522 118.098 115.695
166.916 118.669 115.283
166.775 117.741 116.251
165.689 119.369 115.422
166.997 119.416 115.573
167.482 118.758 115.676
166.149 116.028 116.417
165.466 115.598 116.57
166.211 115.175 116.821
164.841 115.378 116.728
166.704 116.503 116.461
166.778 114.866 117.26
165.939 114.605 117.428
163.499 117.442 116.67
164.067 118.362 116.575
163.156 118.05 117.22
164.43 119.286 116.316
163.577 116.702 116.833
162.479 117.884 117.822
163.377 118.716 117.616
165.042 120.767 116.489
165.483 121.218 117.093
165.033 120.858 117.326
165.945 121.522 117.686
166.113 121.447 116.806
165.522 120.405 115.801
164.587 120.38 116.288
164.654 120.236 117.842
165.091 120.788 118.227
166.452 120.787 116.322
166.049 119.923 115.783
166.695 119.996 116.13
166.731 121.557 116.92
167.172 120.105 116.361
164.159 119.622 116.825
164.129 119.85 117.865
163.524 119.472 117.783
164.423 119.677 118.659
163.323 118.837 118.548
165.278 121.285 119.103
165.804 121.558 118.74
165.52 121.994 119.772
166.25 121.872 118.534
165.018 120.815 119.244
165.305 122.096 120.632
165.785 122.531 120.293
167.138 120.447 129.537
167.591 119.663 128.617
166.878 119.927 129.045
167.895 119.149 127.583
168.026 119.618 127.967
167.181 121.145 129.747
166.606 121.231 130.34
166.289 119.944 129.358
166.723 119.368 128.574
168.119 120.251 128.014
167.674 120.984 129.044
168.187 121.05 128.18
167.362 121.788 129.795
168.337 119.454 127.182
168.328 120.691 127.232
168.219 121.737 128.266
165.948 121.258 130.566
165.958 120.51 129.788
165.297 121.025 130.662
165.913 119.671 129.054
166.007 122.031 130.712
164.812 121.82 131.292
165.062 120.77 130.139
167.091 119.055 127.568
167.466 119.072 127.219
167.295 118.562 126.38
168.071 118.645 126.565
166.605 118.937 127.528
166.926 118.013 125.643
167.424 118.108 125.315
166.582 123.867 130.479
166.295 123.397 130.826
165.726 124.076 131.429
166.134 122.755 130.886
166.835 122.708 130.358
167.04 123.645 129.595
166.69 123.881 129.743
165.083 124.798 131.561
164.822 124.233 131.927
167.435 122.451 129.58
167.438 123.157 129.32
167.899 122.401 128.729
167.334 123.027 128.378
168.067 121.989 127.63
166.228 123.801 129.62
165.468 124.782 130.735
165.542 124.368 129.66
164.856 124.994 131.271
166.866 123.473 128.461
166.043 124.485 128.496
165.424 124.815 129.387
164.534 123.567 131.761
165.37 122.84 131.057
164.553 122.725 131.751
164.149 123.959 131.773
164.21 122.428 131.374
168.769 117.58 117.166
168.053 116.992 116.944
168.667 116.495 117.278
167.439 116.565 116.591
167.57 117.415 116.583
168.939 118.215 116.933
169.324 117.976 117.485
168.744 116.475 117.987
168.389 116.029 117.636
167.368 117.821 116.473
168.174 118.177 116.595
167.789 118.468 116.116
169.481 117.258 117.921
169.065 116.825 118.396
169.612 117.214 118.811
167.837 115.603 117.342
167.278 115.922 116.746
167.226 115.347 117.349
163.772 115.694 118.408
163.294 115.863 119.517
163.695 115.377 119.364
162.992 116.122 120.434
162.738 116.199 119.429
163.852 116.106 117.546
164.367 115.612 117.421
164.239 115.14 119.2
163.79 115.263 120.363
162.195 116.448 118.993
163.357 116.104 117.755
161.94 117.371 118.215
164.834 115.168 117.755
164.804 115.104 118.75
165.471 114.638 118.011
163.875 115.373 121.574
163.354 116.118 121.518
163.722 116.1 122.587
168.935 118.775 124.287
168.595 118.33 123.95
168.547 118.663 125.117
168.451 117.619 123.513
168.733 117.81 122.939
169.285 118.906 123.581
169.031 119.442 124.471
168.698 118.827 126.017
168.398 118.405 125.568
168.99 117.902 122.442
169.214 118.527 122.813
169.456 117.856 121.825
168.938 119.62 125.505
168.539 119.46 126.466
168.686 120.09 126.478
168.096 118.22 125.455
168.092 117.841 124.113
167.74 117.974 124.753
165.445 117.059 126.567
165.224 117.741 127
165.879 118.161 126.732
165.171 118.792 127.403
164.84 118.047 126.81
165.338 116.529 125.739
165.869 116.427 126.079
166.217 118.656 127.06
165.897 119.117 127.823
164.732 117.531 126.038
164.884 116.713 125.43
164.484 116.921 125.183
166.367 116.521 126.115
166.374 118.242 126.491
166.698 117.563 125.654
165.679 119.597 128.631
165.382 119.71 128.134
165.097 120.062 129.315
167.898 122.119 118.591
167.558 122.359 119.418
167.361 122.126 118.466
167.186 122.622 120.11
167.775 122.633 120.296
168.417 121.871 118.851
168.138 121.403 118.047
167.092 121.84 117.629
166.693 122.108 118.449
168.215 122.618 120.54
168.642 121.988 119.747
168.633 122.394 120.884
167.995 120.92 117.42
167.374 121.204 117.135
167.587 120.391 116.877
166.455 122.422 119.295
166.745 122.613 120.412
166.252 122.447 120.493
164.745 120.463 121.771
164.838 119.57 121.228
164.77 120.084 120.636
164.762 118.859 120.738
164.833 119.321 121.785
164.709 120.928 122.805
164.78 121.182 122.168
164.837 120.483 119.906
164.65 119.878 119.479
164.947 119.934 122.826
164.787 120.891 123.419
164.837 120.639 124.004
164.879 121.55 121.77
164.84 121.246 120.498
165.116 121.774 121.216
164.292 119.276 119.403
164.407 118.707 120.093
163.751 118.772 119.257
168.008 123.726 126.046
168.527 122.928 125.653
168.066 123.358 126.557
168.685 122.382 125.598
168.968 122.546 124.782
168.001 124.014 125.338
167.529 124.166 126.114
167.52 123.578 127.399
167.694 123.117 127.398
168.886 123.15 124.465
168.521 123.784 124.568
168.766 123.081 123.655
167.032 124.117 127.016
166.816 123.872 127.924
166.494 124.088 127.884
167.727 122.699 127.274
168.444 122.319 126.266
168.276 122.005 126.94
163.7 123.728 129.797
163.9 124.214 129.395
164.111 124.312 130.626
164.334 124.187 128.796
163.923 123.638 128.267
163.05 123.282 128.862
163.834 122.866 129.696
164.043 124.165 131.389
164.392 124.809 131.066
163.295 123.575 128.14
162.897 123.111 128.35
163.266 122.767 127.481
164.154 122.643 129.967
163.837 123.322 131.137
164.025 122.311 130.917
164.598 124.688 130.467
164.442 124.607 129.225
164.872 124.993 129.462
POLYGONS 1280  5120
3 164 162 163
3 163 44 164
3 162 43 163
3 164 42 162
3 166 165 163
3 163 43 166
3 165 44 163
3 166 14 165
3 168 167 162
3 162 42 168
3 167 43 162
3 168 13 167
3 170 169 164
3 164 44 170
3 169 42 164
3 170 12 169
3 173 171 172
3 172 46 173
3 171 43 172
3 173 45 171
3 167 174 172
3 172 43 167
3 174 46 172
3 167 13 174
3 175 166 171
3 171 45 175
3 166 43 171
3 175 14 166
3 177 176 173
3 173 46 177
3 176 45 173
3 177 4 176
3 180 178 179
3 179 48 180
3 178 42 179
3 180 47 178
3 169 181 179
3 179 42 169
3 181 48 179
3 169 12 181
3 182 168 178
3 178 47 182
3 168 42 178
3 182 13 168
3 184 183 180
3 180 48 184
3 183 47 180
3 184 8 183
3 187 185 186
3 186 50 187
3 185 44 186
3 187 49 185
3 165 188 186
3 186 44 165
3 188 50 186
3 165 14 188
3 189 170 185
3 185 49 189
3 170 44 185
3 189 12 170
3 191 190 187
3 187 50 191
3 190 49 187
3 191 7 190
3 194 192 193
3 193 53 194
3 192 52 193
3 194 51 192
3 196 195 193
3 193 52 196
3 195 53 193
3 196 16 195
3 198 197 192
3 192 51 198
3 197 52 192
3 198 14 197
3 200 199 194
3 194 53 200
3 199 51 194
3 200 15 199
3 203 201 202
3 202 45 203
3 201 52 202
3 203 54 201
3 197 175 202
3 202 52 197
3 175 45 202
3 197 14 175
3 204 196 201
3 201 54 204
3 196 52 201
3 204 16 196
3 176 205 203
3 203 45 176
3 205 54 203
3 176 4 205
3 208 206 207
3 207 55 208
3 206 51 207
3 208 50 206
3 199 209 207
3 207 51 199
3 209 55 207
3 199 15 209
3 188 198 206
3 206 50 188
3 198 51 206
3 188 14 198
3 210 191 208
3 208 55 210
3 191 50 208
3 210 7 191
3 213 211 212
3 212 57 213
3 211 53 212
3 213 56 211
3 195 214 212
3 212 53 195
3 214 57 212
3 195 16 214
3 215 200 211
3 211 56 215
3 200 53 211
3 215 15 200
3 217 216 213
3 213 57 217
3 216 56 213
3 217 9 216
3 220 218 219
3 219 60 220
3 218 59 219
3 220 58 218
3 222 221 219
3 219 59 222
3 221 60 219
3 222 19 221
3 224 223 218
3 218 58 224
3 223 59 218
3 224 18 223
3 226 225 220
3 220 60 226
3 225 58 220
3 226 17 225
3 229 227 228
3 228 62 229
3 227 59 228
3 229 61 227
3 223 230 228
3 228 59 223
3 230 62 228
3 223 18 230
3 231 222 227
3 227 61 231
3 222 59 227
3 231 19 222
3 233 232 229
3 229 62 233
3 232 61 229
3 233 5 232
3 236 234 235
3 235 64 236
3 234 58 235
3 236 63 234
3 225 237 235
3 235 58 225
3 237 64 235
3 225 17 237
3 238 224 234
3 234 63 238
3 224 58 234
3 238 18 224
3 240 239 236
3 236 64 240
3 239 63 236
3 240 6 239
3 243 241 242
3 242 66 243
3 241 60 242
3 243 65 241
3 221 244 242
3 242 60 221
3 244 66 242
3 221 19 244
3 245 226 241
3 241 65 245
3 226 60 241
3 245 17 226
3 247 246 243
3 243 66 247
3 246 65 243
3 247 11 246
3 250 248 249
3 249 69 250
3 248 68 249
3 250 67 248
3 252 251 249
3 249 68 252
3 251 69 249
3 252 18 251
3 254 253 248
3 248 67 254
3 253 68 248
3 254 21 253
3 256 255 250
3 250 69 256
3 255 67 250
3 256 20 255
3 259 257 258
3 258 70 259
3 257 68 258
3 259 62 257
3 253 260 258
3 258 68 253
3 260 70 258
3 253 21 260
3 230 252 257
3 257 62 230
3 252 68 257
3 230 18 252
3 261 233 259
3 259 70 261
3 233 62 259
3 261 5 233
3 264 262 263
3 263 72 264
3 262 67 263
3 264 71 262
3 255 265 263
3 263 67 255
3 265 72 263
3 255 20 265
3 266 254 262
3 262 71 266
3 254 67 262
3 266 21 254
3 268 267 264
3 264 72 268
3 267 71 264
3 268 10 267
3 271 269 270
3 270 63 271
3 269 69 270
3 271 73 269
3 251 238 270
3 270 69 251
3 238 63 270
3 251 18 238
3 272 256 269
3 269 73 272
3 256 69 269
3 272 20 256
3 239 273 271
3 271 63 239
3 273 73 271
3 239 6 273
3 276 274 275
3 275 76 276
3 274 75 275
3 276 74 274
3 278 277 275
3 275 75 278
3 277 76 275
3 278 24 277
3 280 279 274
3 274 74 280
3 279 75 274
3 280 23 279
3 282 281 276
3 276 76 282
3 281 74 276
3 282 22 281
3 285 283 284
3 284 78 285
3 283 75 284
3 285 77 283
3 279 286 284
3 284 75 279
3 286 78 284
3 279 23 286
3 287 278 283
3 283 77 287
3 278 75 283
3 287 24 278
3 289 288 285
3 285 78 289
3 288 77 285
3 289 0 288
3 292 290 291
3 291 80 292
3 290 74 291
3 292 79 290
3 281 293 291
3 291 74 281
3 293 80 291
3 281 22 293
3 294 280 290
3 290 79 294
3 280 74 290
3 294 23 280
3 296 295 292
3 292 80 296
3 295 79 292
3 296 4 295
3 299 297 298
3 298 82 299
3 297 76 298
3 299 81 297
3 277 300 298
3 298 76 277
3 300 82 298
3 277 24 300
3 301 282 297
3 297 81 301
3 282 76 297
3 301 22 282
3 303 302 299
3 299 82 303
3 302 81 299
3 303 3 302
3 306 304 305
3 305 85 306
3 304 84 305
3 306 83 304
3 308 307 305
3 305 84 308
3 307 85 305
3 308 26 307
3 310 309 304
3 304 83 310
3 309 84 304
3 310 24 309
3 312 311 306
3 306 85 312
3 311 83 306
3 312 25 311
3 315 313 314
3 314 77 315
3 313 84 314
3 315 86 313
3 309 287 314
3 314 84 309
3 287 77 314
3 309 24 287
3 316 308 313
3 313 86 316
3 308 84 313
3 316 26 308
3 288 317 315
3 315 77 288
3 317 86 315
3 288 0 317
3 320 318 319
3 319 87 320
3 318 83 319
3 320 82 318
3 311 321 319
3 319 83 311
3 321 87 319
3 311 25 321
3 300 310 318
3 318 82 300
3 310 83 318
3 300 24 310
3 322 303 320
3 320 87 322
3 303 82 320
3 322 3 303
3 325 323 324
3 324 89 325
3 323 85 324
3 325 88 323
3 307 326 324
3 324 85 307
3 326 89 324
3 307 26 326
3 327 312 323
3 323 88 327
3 312 85 323
3 327 25 312
3 329 328 325
3 325 89 329
3 328 88 325
3 329 5 328
3 332 330 331
3 331 92 332
3 330 91 331
3 332 90 330
3 334 333 331
3 331 91 334
3 333 92 331
3 334 29 333
3 336 335 330
3 330 90 336
3 335 91 330
3 336 28 335
3 338 337 332
3 332 92 338
3 337 90 332
3 338 27 337
3 341 339 340
3 340 94 341
3 339 91 340
3 341 93 339
3 335 342 340
3 340 91 335
3 342 94 340
3 335 28 342
3 343 334 339
3 339 93 343
3 334 91 339
3 343 29 334
3 345 344 341
3 341 94 345
3 344 93 341
3 345 2 344
3 348 346 347
3 347 96 348
3 346 90 347
3 348 95 346
3 337 349 347
3 347 90 337
3 349 96 347
3 337 27 349
3 350 336 346
3 346 95 350
3 336 90 346
3 350 28 336
3 352 351 348
3 348 96 352
3 351 95 348
3 352 7 351
3 355 353 354
3 354 98 355
3 353 92 354
3 355 97 353
3 333 356 354
3 354 92 333
3 356 98 354
3 333 29 356
3 357 338 353
3 353 97 357
3 338 92 353
3 357 27 338
3 359 358 355
3 355 98 359
3 358 97 355
3 359 1 358
3 362 360 361
3 361 101 362
3 360 100 361
3 362 99 360
3 364 363 361
3 361 100 364
3 363 101 361
3 364 31 363
3 366 365 360
3 360 99 366
3 365 100 360
3 366 29 365
3 368 367 362
3 362 101 368
3 367 99 362
3 368 30 367
3 371 369 370
3 370 93 371
3 369 100 370
3 371 102 369
3 365 343 370
3 370 100 365
3 343 93 370
3 365 29 343
3 372 364 369
3 369 102 372
3 364 100 369
3 372 31 364
3 344 373 371
3 371 93 344
3 373 102 371
3 344 2 373
3 376 374 375
3 375 103 376
3 374 99 375
3 376 98 374
3 367 377 375
3 375 99 367
3 377 103 375
3 367 30 377
3 356 366 374
3 374 98 356
3 366 99 374
3 356 29 366
3 378 359 376
3 376 103 378
3 359 98 376
3 378 1 359
3 381 379 380
3 380 105 381
3 379 101 380
3 381 104 379
3 363 382 380
3 380 101 363
3 382 105 380
3 363 31 382
3 383 368 379
3 379 104 383
3 368 101 379
3 383 30 368
3 385 384 381
3 381 105 385
3 384 104 381
3 385 6 384
3 388 386 387
3 387 108 388
3 386 107 387
3 388 106 386
3 390 389 387
3 387 107 390
3 389 108 387
3 390 34 389
3 392 391 386
3 386 106 392
3 391 107 386
3 392 33 391
3 394 393 388
3 388 108 394
3 393 106 388
3 394 32 393
3 397 395 396
3 396 110 397
3 395 107 396
3 397 109 395
3 391 398 396
3 396 107 391
3 398 110 396
3 391 33 398
3 399 390 395
3 395 109 399
3 390 107 395
3 399 34 390
3 401 400 397
3 397 110 401
3 400 109 397
3 401 8 400
3 404 402 403
3 403 112 404
3 402 106 403
3 404 111 402
3 393 405 403
3 403 106 393
3 405 112 403
3 393 32 405
3 406 392 402
3 402 111 406
3 392 106 402
3 406 33 392
3 408 407 404
3 404 112 408
3 407 111 404
3 408 0 407
3 411 409 410
3 410 114 411
3 409 108 410
3 411 113 409
3 389 412 410
3 410 108 389
3 412 114 410
3 389 34 412
3 413 394 409
3 409 113 413
3 394 108 409
3 413 32 394
3 415 414 411
3 411 114 415
3 414 113 411
3 415 11 414
3 418 416 417
3 417 117 418
3 416 116 417
3 418 115 416
3 420 419 417
3 417 116 420
3 419 117 417
3 420 36 419
3 422 421 416
3 416 115 422
3 421 116 416
3 422 34 421
3 424 423 418
3 418 117 424
3 423 115 418
3 424 35 423
3 427 425 426
3 426 109 427
3 425 116 426
3 427 118 425
3 421 399 426
3 426 116 421
3 399 109 426
3 421 34 399
3 428 420 425
3 425 118 428
3 420 116 425
3 428 36 420
3 400 429 427
3 427 109 400
3 429 118 427
3 400 8 429
3 432 430 431
3 431 119 432
3 430 115 431
3 432 114 430
3 423 433 431
3 431 115 423
3 433 119 431
3 423 35 433
3 412 422 430
3 430 114 412
3 422 115 430
3 412 34 422
3 434 415 432
3 432 119 434
3 415 114 432
3 434 11 415
3 437 435 436
3 436 121 437
3 435 117 436
3 437 120 435
3 419 438 436
3 436 117 419
3 438 121 436
3 419 36 438
3 439 424 435
3 435 120 439
3 424 117 435
3 439 35 424
3 441 440 437
3 437 121 441
3 440 120 437
3 441 1 440
3 444 442 443
3 443 124 444
3 442 123 443
3 444 122 442
3 446 445 443
3 443 123 446
3 445 124 443
3 446 39 445
3 448 447 442
3 442 122 448
3 447 123 442
3 448 38 447
3 450 449 444
3 444 124 450
3 449 122 444
3 450 37 449
3 453 451 452
3 452 126 453
3 451 123 452
3 453 125 451
3 447 454 452
3 452 123 447
3 454 126 452
3 447 38 454
3 455 446 451
3 451 125 455
3 446 123 451
3 455 39 446
3 457 456 453
3 453 126 457
3 456 125 453
3 457 9 456
3 460 458 459
3 459 128 460
3 458 122 459
3 460 127 458
3 449 461 459
3 459 122 449
3 461 128 459
3 449 37 461
3 462 448 458
3 458 127 462
3 448 122 458
3 462 38 448
3 464 463 460
3 460 128 464
3 463 127 460
3 464 10 463
3 467 465 466
3 466 130 467
3 465 124 466
3 467 129 465
3 445 468 466
3 466 124 445
3 468 130 466
3 445 39 468
3 469 450 465
3 465 129 469
3 450 124 465
3 469 37 450
3 471 470 467
3 467 130 471
3 470 129 467
3 471 3 470
3 474 472 473
3 473 133 474
3 472 132 473
3 474 131 472
3 476 475 473
3 473 132 476
3 475 133 473
3 476 38 475
3 478 477 472
3 472 131 478
3 477 132 472
3 478 41 477
3 480 479 474
3 474 133 480
3 479 131 474
3 480 40 479
3 483 481 482
3 482 134 483
3 481 132 482
3 483 126 481
3 477 484 482
3 482 132 477
3 484 134 482
3 477 41 484
3 454 476 481
3 481 126 454
3 476 132 481
3 454 38 476
3 485 457 483
3 483 134 485
3 457 126 483
3 485 9 457
3 488 486 487
3 487 136 488
3 486 131 487
3 488 135 486
3 479 489 487
3 487 131 479
3 489 136 487
3 479 40 489
3 490 478 486
3 486 135 490
3 478 131 486
3 490 41 478
3 492 491 488
3 488 136 492
3 491 135 488
3 492 2 491
3 495 493 494
3 494 127 495
3 493 133 494
3 495 137 493
3 475 462 494
3 494 133 475
3 462 127 494
3 475 38 462
3 496 480 493
3 493 137 496
3 480 133 493
3 496 40 480
3 463 497 495
3 495 127 463
3 497 137 495
3 463 10 497
3 500 498 499
3 499 140 500
3 498 139 499
3 500 138 498
3 502 501 499
3 499 139 502
3 501 140 499
3 502 33 501
3 504 503 498
3 498 138 504
3 503 139 498
3 504 13 503
3 506 505 500
3 500 140 506
3 505 138 500
3 506 23 505
3 509 507 508
3 508 47 509
3 507 139 508
3 509 110 507
3 503 182 508
3 508 139 503
3 182 47 508
3 503 13 182
3 398 502 507
3 507 110 398
3 502 139 507
3 398 33 502
3 183 401 509
3 509 47 183
3 401 110 509
3 183 8 401
3 512 510 511
3 511 79 512
3 510 138 511
3 512 46 510
3 505 294 511
3 511 138 505
3 294 79 511
3 505 23 294
3 174 504 510
3 510 46 174
3 504 138 510
3 174 13 504
3 295 177 512
3 512 79 295
3 177 46 512
3 295 4 177
3 515 513 514
3 514 111 515
3 513 140 514
3 515 78 513
3 501 406 514
3 514 140 501
3 406 111 514
3 501 33 406
3 286 506 513
3 513 78 286
3 506 140 513
3 286 23 506
3 407 289 515
3 515 111 407
3 289 78 515
3 407 0 289
3 518 516 517
3 517 143 518
3 516 142 517
3 518 141 516
3 520 519 517
3 517 142 520
3 519 143 517
3 520 19 519
3 522 521 516
3 516 141 522
3 521 142 516
3 522 32 521
3 524 523 518
3 518 143 524
3 523 141 518
3 524 26 523
3 527 525 526
3 526 113 527
3 525 142 526
3 527 66 525
3 521 413 526
3 526 142 521
3 413 113 526
3 521 32 413
3 244 520 525
3 525 66 244
3 520 142 525
3 244 19 520
3 414 247 527
3 527 113 414
3 247 66 527
3 414 11 247
3 530 528 529
3 529 86 530
3 528 141 529
3 530 112 528
3 523 316 529
3 529 141 523
3 316 86 529
3 523 26 316
3 405 522 528
3 528 112 405
3 522 141 528
3 405 32 522
3 317 408 530
3 530 86 317
3 408 112 530
3 317 0 408
3 533 531 532
3 532 61 533
3 531 143 532
3 533 89 531
3 519 231 532
3 532 143 519
3 231 61 532
3 519 19 231
3 326 524 531
3 531 89 326
3 524 143 531
3 326 26 524
3 232 329 533
3 533 61 232
3 329 89 533
3 232 5 329
3 536 534 535
3 535 146 536
3 534 145 535
3 536 144 534
3 538 537 535
3 535 145 538
3 537 146 535
3 538 22 537
3 540 539 534
3 534 144 540
3 539 145 534
3 540 16 539
3 542 541 536
3 536 146 542
3 541 144 536
3 542 39 541
3 545 543 544
3 544 54 545
3 543 145 544
3 545 80 543
3 539 204 544
3 544 145 539
3 204 54 544
3 539 16 204
3 293 538 543
3 543 80 293
3 538 145 543
3 293 22 538
3 205 296 545
3 545 54 205
3 296 80 545
3 205 4 296
3 548 546 547
3 547 125 548
3 546 144 547
3 548 57 546
3 541 455 547
3 547 144 541
3 455 125 547
3 541 39 455
3 214 540 546
3 546 57 214
3 540 144 546
3 214 16 540
3 456 217 548
3 548 125 456
3 217 57 548
3 456 9 217
3 551 549 550
3 550 81 551
3 549 146 550
3 551 130 549
3 537 301 550
3 550 146 537
3 301 81 550
3 537 22 301
3 468 542 549
3 549 130 468
3 542 146 549
3 468 39 542
3 302 471 551
3 551 81 302
3 471 130 551
3 302 3 471
3 554 552 553
3 553 149 554
3 552 148 553
3 554 147 552
3 556 555 553
3 553 148 556
3 555 149 553
3 556 21 555
3 558 557 552
3 552 147 558
3 557 148 552
3 558 25 557
3 560 559 554
3 554 149 560
3 559 147 554
3 560 37 559
3 563 561 562
3 562 88 563
3 561 148 562
3 563 70 561
3 557 327 562
3 562 148 557
3 327 88 562
3 557 25 327
3 260 556 561
3 561 70 260
3 556 148 561
3 260 21 556
3 328 261 563
3 563 88 328
3 261 70 563
3 328 5 261
3 566 564 565
3 565 129 566
3 564 147 565
3 566 87 564
3 559 469 565
3 565 147 559
3 469 129 565
3 559 37 469
3 321 558 564
3 564 87 321
3 558 147 564
3 321 25 558
3 470 322 566
3 566 129 470
3 322 87 566
3 470 3 322
3 569 567 568
3 568 71 569
3 567 149 568
3 569 128 567
3 555 266 568
3 568 149 555
3 266 71 568
3 555 21 266
3 461 560 567
3 567 128 461
3 560 149 567
3 461 37 560
3 267 464 569
3 569 71 267
3 464 128 569
3 267 10 464
3 572 570 571
3 571 152 572
3 570 151 571
3 572 150 570
3 574 573 571
3 571 151 574
3 573 152 571
3 574 27 573
3 576 575 570
3 570 150 576
3 575 151 570
3 576 12 575
3 578 577 572
3 572 152 578
3 577 150 572
3 578 36 577
3 581 579 580
3 580 49 581
3 579 151 580
3 581 96 579
3 575 189 580
3 580 151 575
3 189 49 580
3 575 12 189
3 349 574 579
3 579 96 349
3 574 151 579
3 349 27 574
3 190 352 581
3 581 49 190
3 352 96 581
3 190 7 352
3 584 582 583
3 583 118 584
3 582 150 583
3 584 48 582
3 577 428 583
3 583 150 577
3 428 118 583
3 577 36 428
3 181 576 582
3 582 48 181
3 576 150 582
3 181 12 576
3 429 184 584
3 584 118 429
3 184 48 584
3 429 8 184
3 587 585 586
3 586 97 587
3 585 152 586
3 587 121 585
3 573 357 586
3 586 152 573
3 357 97 586
3 573 27 357
3 438 578 585
3 585 121 438
3 578 152 585
3 438 36 578
3 358 441 587
3 587 97 358
3 441 121 587
3 358 1 441
3 590 588 589
3 589 155 590
3 588 154 589
3 590 153 588
3 592 591 589
3 589 154 592
3 591 155 589
3 592 17 591
3 594 593 588
3 588 153 594
3 593 154 588
3 594 30 593
3 596 595 590
3 590 155 596
3 595 153 590
3 596 35 595
3 599 597 598
3 598 104 599
3 597 154 598
3 599 64 597
3 593 383 598
3 598 154 593
3 383 104 598
3 593 30 383
3 237 592 597
3 597 64 237
3 592 154 597
3 237 17 592
3 384 240 599
3 599 104 384
3 240 64 599
3 384 6 240
3 602 600 601
3 601 120 602
3 600 153 601
3 602 103 600
3 595 439 601
3 601 153 595
3 439 120 601
3 595 35 439
3 377 594 600
3 600 103 377
3 594 153 600
3 377 30 594
3 440 378 602
3 602 120 440
3 378 103 602
3 440 1 378
3 605 603 604
3 604 65 605
3 603 155 604
3 605 119 603
3 591 245 604
3 604 155 591
3 245 65 604
3 591 17 245
3 433 596 603
3 603 119 433
3 596 155 603
3 433 35 596
3 246 434 605
3 605 65 246
3 434 119 605
3 246 11 434
3 608 606 607
3 607 158 608
3 606 157 607
3 608 156 606
3 610 609 607
3 607 157 610
3 609 158 607
3 610 15 609
3 612 611 606
3 606 156 612
3 611 157 606
3 612 28 611
3 614 613 608
3 608 158 614
3 613 156 608
3 614 41 613
3 617 615 616
3 616 95 617
3 615 157 616
3 617 55 615
3 611 350 616
3 616 157 611
3 350 95 616
3 611 28 350
3 209 610 615
3 615 55 209
3 610 157 615
3 209 15 610
3 351 210 617
3 617 95 351
3 210 55 617
3 351 7 210
3 620 618 619
3 619 135 620
3 618 156 619
3 620 94 618
3 613 490 619
3 619 156 613
3 490 135 619
3 613 41 490
3 342 612 618
3 618 94 342
3 612 156 618
3 342 28 612
3 491 345 620
3 620 135 491
3 345 94 620
3 491 2 345
3 623 621 622
3 622 56 623
3 621 158 622
3 623 134 621
3 609 215 622
3 622 158 609
3 215 56 622
3 609 15 215
3 484 614 621
3 621 134 484
3 614 158 621
3 484 41 614
3 216 485 623
3 623 56 216
3 485 134 623
3 216 9 485
3 626 624 625
3 625 161 626
3 624 160 625
3 626 159 624
3 628 627 625
3 625 160 628
3 627 161 625
3 628 31 627
3 630 629 624
3 624 159 630
3 629 160 624
3 630 20 629
3 632 631 626
3 626 161 632
3 631 159 626
3 632 40 631
3 635 633 634
3 634 73 635
3 633 160 634
3 635 105 633
3 629 272 634
3 634 160 629
3 272 73 634
3 629 20 272
3 382 628 633
3 633 105 382
3 628 160 633
3 382 31 628
3 273 385 635
3 635 73 273
3 385 105 635
3 273 6 385
3 638 636 637
3 637 137 638
3 636 159 637
3 638 72 636
3 631 496 637
3 637 159 631
3 496 137 637
3 631 40 496
3 265 630 636
3 636 72 265
3 630 159 636
3 265 20 630
3 497 268 638
3 638 137 497
3 268 72 638
3 497 10 268
3 641 639 640
3 640 102 641
3 639 161 640
3 641 136 639
3 627 372 640
3 640 161 627
3 372 102 640
3 627 31 372
3 489 632 639
3 639 136 489
3 632 161 639
3 489 40 632
3 373 492 641
3 641 102 373
3 492 136 641
3 373 2 492
