# vtk DataFile Version 3.0
this file was written using fslvtkio
ASCII
DATASET POLYDATA
POINTS 642 float
142.148 85.823 184.343
123.181 80.617 199.222
123.115 71.7306 177.071
142.544 75.4153 163.837
158.972 67.0201 177.478
127.893 88.1154 178.311
117.494 87.1288 182.796
141.216 64.2296 188.21
142.561 76.5495 201.519
144.526 64.2864 161.709
118.614 80.1428 157.231
125.501 102.391 194.272
144.249 67.0568 198.086
153.885 69.7373 191.06
154.205 60.4397 184.351
144.523 61.8084 175.635
157.669 61.21 168.397
117.857 99.1957 189.376
121.718 88.8561 180.225
127.66 104.413 181.694
113.715 83.7701 167.8
123.293 82.272 165.67
152.751 70.8633 167.609
151.749 76.612 181.178
142.452 78.939 175.754
132.787 79.6646 171.088
134.452 90.5189 181.518
132.069 71.3437 195.955
132.11 66.9343 182.693
121.909 75.8474 189.259
117.326 87.1675 192.746
115.75 79.114 178.973
135.029 96.936 189.434
143.161 83.1116 193.306
132.402 90.3875 202.844
120.513 92.2261 201.981
131.965 77.9771 205.407
133.558 76.5094 156.945
131.1 70.7356 154.027
148.984 68.4899 154.712
119.781 75.2554 164.997
132.898 67.7151 168.003
150.64 66.8594 196.166
155.972 63.6459 188.868
150.089 63.0129 191.751
158.88 62.5138 180.964
157.282 68.2064 184.523
148.766 73.102 196.933
144.687 70.649 201.89
142.839 65.3497 193.363
147.532 61.7375 186.919
149.638 60.195 180.435
157.036 59.8226 176.614
151.439 60.4164 172.308
160.215 63.8345 172.45
142.606 62.2402 182.57
144.686 63.0775 168.457
151.353 61.8349 164.563
119.85 96.4731 184.746
123.876 97.2504 183.031
121.56 103.626 184.539
127.303 95.0586 182.089
124.593 88.9501 179.051
119.326 88.663 181.03
117.118 93.0998 187.012
120.79 102.438 191.612
127.025 106.589 186.225
117.493 85.0749 164.816
121.806 84.3967 172.308
117.907 85.599 173.087
125.385 83.7421 173.511
120.552 82.7409 160.099
112.155 83.3915 161.271
115.461 84.9357 175.658
152.78 73.7359 174.273
147.971 78.4657 177.064
148.412 75.624 170.915
142.089 82.0038 180.793
147.089 81.2596 182.804
155.685 71.6972 179.533
156.798 68.9968 172.264
147.791 73.3851 165.121
142.409 76.6649 170.292
137.19 79.4708 174.523
137.532 83.3784 179.709
133.29 84.1444 177.843
138.057 88.7848 183.26
137.407 77.2138 167.736
129.647 83.4105 174.847
130.755 89.8347 180.173
131.817 68.8673 189.63
126.948 70.9958 186.487
126.685 73.1609 192.705
122.256 73.6636 183.225
127.386 69.266 180.143
136.656 65.4745 185.771
136.889 67.5248 192.574
127.277 75.4527 198.468
122.306 78.1077 194.8
119.003 81.2822 191.193
118.58 77.9427 184.594
116.315 82.7949 186.466
118.617 75.0759 177.893
119.704 84.3159 196.587
116.327 87.9066 187.778
115.882 83.2616 180.956
138.709 90.4161 192.417
137.225 87.3385 198.201
133.165 94.7345 196.157
136.999 83.0489 203.287
142.914 80.1002 197.714
143.535 85.4431 188.336
139.158 91.4203 187.09
131.16 101.712 190.62
128.302 97.7162 199.883
125.365 91.9783 205.235
131.765 83.7229 207.326
125.536 85.0038 205.65
137.961 76.6192 205.402
121.343 98.5604 199.194
121.918 85.9615 201.352
127.118 79.7766 202.483
132.541 74.8409 151.948
141.994 68.9602 150.968
141.435 73.3496 154.215
148.534 63.9993 156.649
138.977 67.1589 157.025
122.949 75.9202 153.851
126.221 78.7597 156.539
138.843 75.7219 160.259
145.571 72.1812 159.181
126.36 71.0367 165.719
132.061 68.8409 160.676
124.561 73.1786 158.914
138.428 65.4725 164.745
127.962 69.6622 172.603
121.682 73.1023 171.116
116.135 77.7392 160.502
153.478 73.8915 186.299
148.879 76.4946 192.458
148.522 79.8813 187.544
136.258 95.7691 184.027
133.023 102.582 184.122
131.514 97.5563 182.03
154.301 64.2557 160.72
156.743 66.1925 166.582
150.886 69.0531 161.776
133.618 77.8395 163.571
128.659 80.8457 168.704
127.989 79.599 161.192
138.225 72.2871 202.652
138.02 69.6348 197.703
131.85 74.0464 201.589
118.412 90.4712 197.621
116.256 93.1272 192.003
117.821 97.0029 195.995
132.522 66.702 175.707
138.038 63.8206 179.163
138.339 64.3248 171.964
114.315 79.4642 166.571
113.643 81.4902 174.089
116.867 76.8169 172.008
153.916 64.7225 192.888
153.381 62.4316 190.965
150.694 64.3233 194.424
152.289 61.4729 188.293
155.529 61.4098 187.052
155.349 66.39 190.299
152.811 67.8658 193.552
147.616 66.415 197.402
147.444 64.6811 195.051
157.833 62.8737 185.247
156.953 65.8799 186.685
158.27 65.1011 182.983
155.587 68.7837 187.955
157.182 61.0193 183.035
159.197 64.7907 179.211
158.059 67.3937 181.059
150.289 69.8847 196.623
147.975 68.3811 199.34
147.515 71.364 199.619
144.606 68.5349 200.264
151.535 71.3377 194.028
146.007 74.5877 199.519
144.511 73.3332 201.98
146.49 63.9588 192.747
148.935 62.3238 189.41
145.431 63.351 190.281
150.869 60.8602 185.759
144.145 65.9206 195.413
142.293 64.7143 190.658
144.376 63.0661 187.656
153.47 59.5069 178.547
154.487 59.8108 174.331
150.954 60.0606 176.362
154.931 60.2211 170.381
157.881 60.1045 172.664
155.837 59.7775 180.648
152.156 60.0201 182.256
147.449 60.6352 177.995
148.082 60.9353 174.251
159.405 61.1586 174.689
158.513 60.5485 179.176
159.744 62.9759 176.709
159.707 61.9281 170.888
159.47 65.3432 175.033
148.616 60.7172 183.909
146.102 60.9935 181.512
144.967 61.8718 184.909
143.987 61.7333 179.08
141.918 63.3075 185.459
148.097 61.6337 170.581
151.752 61.168 168.475
148.225 62.1959 166.843
154.817 61.0223 166.314
144.766 62.1757 172.188
144.885 63.4645 165.018
147.906 62.6816 163.265
122.549 96.3219 184.183
123.123 100.967 183.31
120.009 100.269 184.315
124.29 104.974 182.78
125.472 101.577 182.3
122.714 92.8426 182.423
121.386 93.0901 183.249
118.248 98.6043 186.618
119.419 101.64 186.812
125.565 96.6752 182.484
124.095 92.8082 181.544
125.711 92.3194 181.128
123.073 88.8436 179.708
127.497 99.6105 182.372
127.373 90.9792 180.421
126.051 88.5386 178.572
120.071 92.363 183.832
118.163 95.264 186.025
118.68 91.4206 184.514
116.923 96.3691 188.632
120.608 89.099 180.671
118.53 87.9173 181.88
117.875 89.789 184.981
121.109 103.702 187.727
123.863 105.523 185.475
123.172 104.937 188.773
127.472 106.719 183.135
118.847 101.373 190.276
123.075 103.204 192.643
125.906 104.876 190.124
120.075 84.4652 168.486
120.177 85.016 173.07
117.591 84.9316 168.977
119.896 87.0303 176.337
121.521 86.8805 176.243
122.222 83.1065 168.436
120.425 84.1207 165.027
114.809 84.985 165.79
115.767 84.7899 169.913
123.066 86.3701 176.361
123.282 83.6933 172.487
124.764 86.0521 176.348
124.53 82.2125 169.444
126.632 85.7952 176.261
118.421 84.7429 161.935
114.564 85.4849 162.152
116.202 83.7167 160.232
112.15 84.2144 164.194
121.966 83.0759 162.524
119.152 81.6716 158.508
114.662 81.9509 159.056
116.463 85.5132 174.009
118.651 87.1151 177.152
117.118 86.9142 177.966
114.257 84.2074 171.668
116.665 86.0002 179.298
150.674 76.3424 175.57
148.232 76.9286 174.133
150.711 74.5441 172.588
145.638 77.2142 173.282
145.472 78.6739 175.875
150.318 77.6177 178.546
152.326 75.3089 177.618
152.93 72.2723 170.887
150.831 73.4264 169.151
145.114 80.0011 178.816
147.771 79.6527 179.928
145.057 81.6428 181.249
149.567 78.9444 181.851
142.511 80.3948 178.099
142.163 84.006 182.501
144.581 83.3751 183.621
154.406 73.0041 176.785
154.617 71.2842 173.299
156.348 70.3985 175.885
154.828 69.9035 169.869
153.722 74.1905 180.185
157.344 69.2727 178.758
157.908 67.949 174.908
148.223 74.3901 168.087
145.454 76.1516 170.595
145.356 75.397 167.465
142.459 77.5445 173.204
150.251 72.068 166.305
145.076 74.6751 164.51
142.444 76.0515 167.13
137.317 80.9424 177.538
135.346 83.5768 178.931
134.862 81.2131 176.571
133.82 86.7394 179.958
135.717 86.4666 180.773
139.846 80.9548 177.782
139.687 79.323 175.434
134.701 79.755 173.358
133.09 81.7271 175.049
137.872 86.0814 181.37
139.874 82.6174 180.15
139.866 85.0861 182.188
136.217 89.6991 182.33
140.013 87.1909 183.984
139.645 77.7721 172.805
136.936 78.2096 171.5
139.643 77.2322 169.402
134.923 78.394 169.579
140.071 76.4627 165.698
131.517 83.8758 176.268
132.006 86.7007 179.206
130.384 86.2283 177.952
132.539 90.3201 180.913
131.116 81.4884 173.124
128.631 85.6723 176.816
129.251 89.1122 179.275
129.323 69.8042 188.235
126.764 72.08 189.633
129.325 70.9984 191.349
124.346 74.2587 190.898
124.471 73.271 187.993
129.618 68.9342 184.921
131.891 67.9259 186.283
131.826 70.1327 192.811
129.48 72.0723 194.224
124.698 72.4185 184.902
127.291 69.9897 183.39
124.898 71.4066 181.864
129.753 68.1833 181.637
122.247 74.5165 186.305
122.521 72.5611 180.294
125.119 70.7658 178.661
134.318 67.3311 187.644
134.216 68.2486 191.27
136.598 66.3739 189.433
134.326 69.3747 194.39
134.236 66.1303 184.354
138.955 64.8676 187.179
139.352 65.8609 190.484
126.971 74.104 195.598
124.449 75.5194 193.745
124.773 76.4502 196.602
122.28 76.8614 191.955
129.525 73.2696 197.228
124.971 77.9296 198.907
122.466 79.1842 197.303
118.461 79.1899 188.318
116.913 80.2119 185.729
117.781 82.035 188.823
116.291 80.9461 183.002
116.949 78.7071 182.066
120.077 76.9418 187.138
120.281 78.4385 190.243
117.924 84.1456 191.937
116.897 84.6531 189.562
118.286 76.5611 181.473
120.167 75.6566 184.239
120.119 74.4576 180.975
116.8 76.9387 178.565
121.095 73.4954 177.465
120.534 79.6069 193.015
118.889 82.6852 194.052
120.45 80.9833 195.843
118.248 85.7926 194.76
121.424 82.4283 197.983
116.181 85.1144 187.214
116.102 83.0795 183.521
116.354 85.419 184.663
115.68 81.1577 179.995
116.827 87.6304 190.251
116.917 87.7637 185.18
116.318 85.4537 181.829
137.768 88.9014 195.257
134.799 91.0511 197.37
136.028 92.6151 194.293
132.863 92.7123 199.674
134.611 88.9878 200.575
140.098 85.4518 195.791
140.669 86.7579 193.298
136.916 93.8793 191.248
134.36 96.101 192.761
136.901 85.4366 200.746
139.646 83.6878 198.085
139.831 81.7313 200.456
142.914 81.8181 195.588
134.587 86.7255 203.24
139.7 79.5995 202.518
142.935 78.2035 199.783
141.084 87.8695 190.636
139.226 91.2699 189.65
141.357 88.4161 187.84
137.369 94.2795 188.359
143.267 84.5992 190.951
143.178 85.6554 186.092
140.694 88.4611 185.795
131.973 98.3842 193.814
130.918 96.3672 197.939
129.595 99.8159 195.361
130.404 94.2461 201.619
133.279 99.3601 190.153
128.307 102.606 192.245
126.483 100.232 197.27
128.643 87.8669 206.783
128.124 84.2395 207.235
124.945 88.275 206.236
128.57 81.4033 206.231
131.602 80.3898 207.319
132.31 87.2315 205.434
129.386 91.3294 204.609
122.288 92.2031 204.182
122.691 88.673 204.313
134.872 80.0227 207.097
134.984 83.4705 205.742
137.325 79.7678 204.667
134.908 77.3065 206.06
140.759 76.2123 203.608
126.872 95.1905 203.075
122.825 95.6863 202.911
124.375 98.5069 200.238
120.409 95.5062 201.194
122.776 101.185 196.696
123.533 85.5956 203.686
126.295 82.2828 204.402
124.466 82.799 202.19
129.163 79.1598 204.303
121.383 88.8633 202.08
122.648 83.2505 200.241
125.202 80.2006 200.655
137.365 72.3431 150.677
141.935 71.582 151.889
137.596 73.9502 152.625
145.16 70.854 153.919
146.517 68.8526 151.677
136.519 69.6808 151.846
132.035 72.5614 151.412
133.511 75.8363 153.961
137.397 75.0896 155.118
145.733 65.9808 153.096
140.243 67.3039 154.001
143.711 65.4122 156.603
135.203 68.8854 155.088
150.025 65.9616 154.251
146.32 64.0807 159.277
141.865 65.8897 159.309
127.984 75.4623 152.296
129.342 77.0683 153.976
124.742 78.0126 154.267
130.048 77.4127 156.59
126.892 73.148 153.418
119.989 78.6191 155.129
122.545 79.7369 156.848
139.994 74.5236 157.069
143.857 72.6106 156.345
142.273 74.2033 159.351
147.012 70.4184 156.597
136.769 75.9077 158.065
140.727 75.7343 162.18
144.219 74.1011 161.452
128.815 69.7621 163.168
128.415 71.017 159.57
125.482 71.8052 162.31
127.615 72.0694 156.331
131.644 69.8918 157.167
132.137 68.0725 164.377
129.648 69.2389 166.501
123.263 73.1107 164.969
121.812 73.8791 162.039
135.519 68.1569 158.495
135.441 67.4476 162.381
138.764 66.6161 160.733
135.467 66.6748 166.186
141.735 65.1105 162.968
127.389 70.425 169.015
124.199 72.243 168.218
124.825 71.3358 171.705
121.194 74.3169 167.755
130.277 68.6222 170.088
125.332 70.4108 175.157
122.465 72.4036 174.259
120.295 75.2532 159.485
123.719 74.0618 156.151
118.811 76.4484 156.913
118.364 76.2053 162.408
115.74 78.9923 158.367
151.268 75.0764 189.454
148.875 78.3906 189.97
150.999 76.804 186.827
145.821 81.3227 190.66
145.736 79.6754 192.879
151.48 73.1701 191.814
153.642 71.9688 188.817
152.611 75.4907 183.851
150.448 78.1549 184.383
145.521 78.3376 195.162
148.981 74.8581 194.73
145.908 76.6059 197.413
155.31 71.0336 185.661
154.511 73.0139 183.021
156.388 70.2554 182.16
147.993 80.6417 185.082
145.894 82.6536 188.171
145.767 83.4676 185.465
134.944 99.3558 183.999
132.633 100.996 182.252
134.144 97.2006 182.559
129.924 101.181 181.773
130.882 104.444 182.124
134.148 99.913 186.882
135.921 96.823 186.467
135.277 93.7113 182.728
133.118 94.0549 181.968
130.373 105.421 184.263
132.403 102.616 186.998
129.526 104.733 188.169
137.935 93.8636 185.648
137.219 92.2303 183.712
138.993 90.3805 184.931
130.889 93.4099 181.777
129.239 96.5978 182.13
128.859 92.3643 181.181
155.968 65.1903 163.645
153.803 67.7502 164.004
152.404 66.6347 160.925
151.954 69.8713 164.701
154.759 68.5154 166.817
157.99 63.5242 167.117
156.635 62.4651 164.148
151.699 66.2501 157.434
149.69 68.5199 158.469
156.868 67.7531 169.184
159.29 64.8064 169.108
158.982 66.6358 171.884
153.434 62.1859 162.329
151.998 63.6906 158.152
149.889 62.4415 160.733
148.255 70.4452 160.017
149.403 71.1916 163.324
146.876 72.8259 162.159
130.955 79.4903 165.644
128.56 80.2949 164.351
131.194 78.6154 162.072
125.554 81.1077 163.473
126.406 81.2797 166.857
130.871 80.1352 169.591
132.961 78.5859 167.247
134.08 77.3716 159.836
130.761 77.9798 158.975
126.701 82.3234 171.075
128.991 81.9071 172.168
127.341 83.7617 174.586
135.374 77.8287 166.029
136.244 77.059 161.787
138.087 76.7091 164.061
127.067 79.3503 158.805
124.184 81.1042 161.347
123.222 80.8302 158.736
137.995 70.6329 200.499
134.919 71.9494 199.584
134.942 73.4218 202.24
131.883 72.652 198.887
134.802 70.7761 197.129
141.135 68.2263 198.027
141.323 69.6813 200.464
135.065 75.0505 204.324
131.891 76.0027 203.666
137.137 68.7462 195.349
140.621 67.4921 195.728
139.787 66.8504 193.048
141.442 70.997 202.67
138.023 74.1799 204.634
141.495 73.4602 203.777
129.49 76.9689 202.282
129.457 74.6843 200.135
127.013 77.4135 200.741
116.963 92.0243 194.821
116.963 95.3071 194.095
117.71 93.6215 197.202
117.697 98.1978 192.556
116.754 96.0929 191.264
116.587 90.1042 192.667
117.554 88.9362 195.339
119.216 91.4174 199.987
118.745 94.8969 199.228
116.41 93.3849 189.244
116.416 90.4026 189.926
116.663 90.3202 187.157
118.927 87.32 197.29
120.104 88.4901 199.673
120.755 85.4283 199.022
119.131 97.9023 197.975
118.839 99.7688 193.806
120.663 100.902 195.359
135.013 65.1582 177.59
138.247 64.023 175.646
135.474 65.6734 173.716
141.435 63.169 173.821
141.182 62.5837 177.485
134.882 65.2887 180.807
132.361 66.5393 179.349
132.775 67.0823 171.897
135.541 66.0705 170.018
140.333 62.98 180.762
136.847 64.5722 182.626
139.282 63.6788 184.215
129.785 67.5334 178.286
130.32 68.1982 173.97
127.443 68.9793 176.66
138.241 64.8253 168.389
141.417 63.3871 170.461
141.613 64.1392 166.608
113.517 80.2966 170.327
114.414 78.9965 173.167
115.723 78.056 169.188
115.779 77.8556 175.537
114.327 80.2985 176.468
113.322 82.5699 171.404
112.926 82.039 167.2
117.062 77.3545 165.509
118.262 75.9811 168.422
114.766 82.4472 177.599
114.409 83.4757 174.751
115.932 84.2149 178.592
113.229 81.6756 164.041
115.258 78.4967 163.403
112.871 80.2038 161.216
119.253 74.9925 171.218
117.349 75.7522 175.11
120.04 74.0521 174.504
POLYGONS 1280  5120
3 164 162 163
3 163 44 164
3 162 43 163
3 164 42 162
3 166 165 163
3 163 43 166
3 165 44 163
3 166 14 165
3 168 167 162
3 162 42 168
3 167 43 162
3 168 13 167
3 170 169 164
3 164 44 170
3 169 42 164
3 170 12 169
3 173 171 172
3 172 46 173
3 171 43 172
3 173 45 171
3 167 174 172
3 172 43 167
3 174 46 172
3 167 13 174
3 175 166 171
3 171 45 175
3 166 43 171
3 175 14 166
3 177 176 173
3 173 46 177
3 176 45 173
3 177 4 176
3 180 178 179
3 179 48 180
3 178 42 179
3 180 47 178
3 169 181 179
3 179 42 169
3 181 48 179
3 169 12 181
3 182 168 178
3 178 47 182
3 168 42 178
3 182 13 168
3 184 183 180
3 180 48 184
3 183 47 180
3 184 8 183
3 187 185 186
3 186 50 187
3 185 44 186
3 187 49 185
3 165 188 186
3 186 44 165
3 188 50 186
3 165 14 188
3 189 170 185
3 185 49 189
3 170 44 185
3 189 12 170
3 191 190 187
3 187 50 191
3 190 49 187
3 191 7 190
3 194 192 193
3 193 53 194
3 192 52 193
3 194 51 192
3 196 195 193
3 193 52 196
3 195 53 193
3 196 16 195
3 198 197 192
3 192 51 198
3 197 52 192
3 198 14 197
3 200 199 194
3 194 53 200
3 199 51 194
3 200 15 199
3 203 201 202
3 202 45 203
3 201 52 202
3 203 54 201
3 197 175 202
3 202 52 197
3 175 45 202
3 197 14 175
3 204 196 201
3 201 54 204
3 196 52 201
3 204 16 196
3 176 205 203
3 203 45 176
3 205 54 203
3 176 4 205
3 208 206 207
3 207 55 208
3 206 51 207
3 208 50 206
3 199 209 207
3 207 51 199
3 209 55 207
3 199 15 209
3 188 198 206
3 206 50 188
3 198 51 206
3 188 14 198
3 210 191 208
3 208 55 210
3 191 50 208
3 210 7 191
3 213 211 212
3 212 57 213
3 211 53 212
3 213 56 211
3 195 214 212
3 212 53 195
3 214 57 212
3 195 16 214
3 215 200 211
3 211 56 215
3 200 53 211
3 215 15 200
3 217 216 213
3 213 57 217
3 216 56 213
3 217 9 216
3 220 218 219
3 219 60 220
3 218 59 219
3 220 58 218
3 222 221 219
3 219 59 222
3 221 60 219
3 222 19 221
3 224 223 218
3 218 58 224
3 223 59 218
3 224 18 223
3 226 225 220
3 220 60 226
3 225 58 220
3 226 17 225
3 229 227 228
3 228 62 229
3 227 59 228
3 229 61 227
3 223 230 228
3 228 59 223
3 230 62 228
3 223 18 230
3 231 222 227
3 227 61 231
3 222 59 227
3 231 19 222
3 233 232 229
3 229 62 233
3 232 61 229
3 233 5 232
3 236 234 235
3 235 64 236
3 234 58 235
3 236 63 234
3 225 237 235
3 235 58 225
3 237 64 235
3 225 17 237
3 238 224 234
3 234 63 238
3 224 58 234
3 238 18 224
3 240 239 236
3 236 64 240
3 239 63 236
3 240 6 239
3 243 241 242
3 242 66 243
3 241 60 242
3 243 65 241
3 221 244 242
3 242 60 221
3 244 66 242
3 221 19 244
3 245 226 241
3 241 65 245
3 226 60 241
3 245 17 226
3 247 246 243
3 243 66 247
3 246 65 243
3 247 11 246
3 250 248 249
3 249 69 250
3 248 68 249
3 250 67 248
3 252 251 249
3 249 68 252
3 251 69 249
3 252 18 251
3 254 253 248
3 248 67 254
3 253 68 248
3 254 21 253
3 256 255 250
3 250 69 256
3 255 67 250
3 256 20 255
3 259 257 258
3 258 70 259
3 257 68 258
3 259 62 257
3 253 260 258
3 258 68 253
3 260 70 258
3 253 21 260
3 230 252 257
3 257 62 230
3 252 68 257
3 230 18 252
3 261 233 259
3 259 70 261
3 233 62 259
3 261 5 233
3 264 262 263
3 263 72 264
3 262 67 263
3 264 71 262
3 255 265 263
3 263 67 255
3 265 72 263
3 255 20 265
3 266 254 262
3 262 71 266
3 254 67 262
3 266 21 254
3 268 267 264
3 264 72 268
3 267 71 264
3 268 10 267
3 271 269 270
3 270 63 271
3 269 69 270
3 271 73 269
3 251 238 270
3 270 69 251
3 238 63 270
3 251 18 238
3 272 256 269
3 269 73 272
3 256 69 269
3 272 20 256
3 239 273 271
3 271 63 239
3 273 73 271
3 239 6 273
3 276 274 275
3 275 76 276
3 274 75 275
3 276 74 274
3 278 277 275
3 275 75 278
3 277 76 275
3 278 24 277
3 280 279 274
3 274 74 280
3 279 75 274
3 280 23 279
3 282 281 276
3 276 76 282
3 281 74 276
3 282 22 281
3 285 283 284
3 284 78 285
3 283 75 284
3 285 77 283
3 279 286 284
3 284 75 279
3 286 78 284
3 279 23 286
3 287 278 283
3 283 77 287
3 278 75 283
3 287 24 278
3 289 288 285
3 285 78 289
3 288 77 285
3 289 0 288
3 292 290 291
3 291 80 292
3 290 74 291
3 292 79 290
3 281 293 291
3 291 74 281
3 293 80 291
3 281 22 293
3 294 280 290
3 290 79 294
3 280 74 290
3 294 23 280
3 296 295 292
3 292 80 296
3 295 79 292
3 296 4 295
3 299 297 298
3 298 82 299
3 297 76 298
3 299 81 297
3 277 300 298
3 298 76 277
3 300 82 298
3 277 24 300
3 301 282 297
3 297 81 301
3 282 76 297
3 301 22 282
3 303 302 299
3 299 82 303
3 302 81 299
3 303 3 302
3 306 304 305
3 305 85 306
3 304 84 305
3 306 83 304
3 308 307 305
3 305 84 308
3 307 85 305
3 308 26 307
3 310 309 304
3 304 83 310
3 309 84 304
3 310 24 309
3 312 311 306
3 306 85 312
3 311 83 306
3 312 25 311
3 315 313 314
3 314 77 315
3 313 84 314
3 315 86 313
3 309 287 314
3 314 84 309
3 287 77 314
3 309 24 287
3 316 308 313
3 313 86 316
3 308 84 313
3 316 26 308
3 288 317 315
3 315 77 288
3 317 86 315
3 288 0 317
3 320 318 319
3 319 87 320
3 318 83 319
3 320 82 318
3 311 321 319
3 319 83 311
3 321 87 319
3 311 25 321
3 300 310 318
3 318 82 300
3 310 83 318
3 300 24 310
3 322 303 320
3 320 87 322
3 303 82 320
3 322 3 303
3 325 323 324
3 324 89 325
3 323 85 324
3 325 88 323
3 307 326 324
3 324 85 307
3 326 89 324
3 307 26 326
3 327 312 323
3 323 88 327
3 312 85 323
3 327 25 312
3 329 328 325
3 325 89 329
3 328 88 325
3 329 5 328
3 332 330 331
3 331 92 332
3 330 91 331
3 332 90 330
3 334 333 331
3 331 91 334
3 333 92 331
3 334 29 333
3 336 335 330
3 330 90 336
3 335 91 330
3 336 28 335
3 338 337 332
3 332 92 338
3 337 90 332
3 338 27 337
3 341 339 340
3 340 94 341
3 339 91 340
3 341 93 339
3 335 342 340
3 340 91 335
3 342 94 340
3 335 28 342
3 343 334 339
3 339 93 343
3 334 91 339
3 343 29 334
3 345 344 341
3 341 94 345
3 344 93 341
3 345 2 344
3 348 346 347
3 347 96 348
3 346 90 347
3 348 95 346
3 337 349 347
3 347 90 337
3 349 96 347
3 337 27 349
3 350 336 346
3 346 95 350
3 336 90 346
3 350 28 336
3 352 351 348
3 348 96 352
3 351 95 348
3 352 7 351
3 355 353 354
3 354 98 355
3 353 92 354
3 355 97 353
3 333 356 354
3 354 92 333
3 356 98 354
3 333 29 356
3 357 338 353
3 353 97 357
3 338 92 353
3 357 27 338
3 359 358 355
3 355 98 359
3 358 97 355
3 359 1 358
3 362 360 361
3 361 101 362
3 360 100 361
3 362 99 360
3 364 363 361
3 361 100 364
3 363 101 361
3 364 31 363
3 366 365 360
3 360 99 366
3 365 100 360
3 366 29 365
3 368 367 362
3 362 101 368
3 367 99 362
3 368 30 367
3 371 369 370
3 370 93 371
3 369 100 370
3 371 102 369
3 365 343 370
3 370 100 365
3 343 93 370
3 365 29 343
3 372 364 369
3 369 102 372
3 364 100 369
3 372 31 364
3 344 373 371
3 371 93 344
3 373 102 371
3 344 2 373
3 376 374 375
3 375 103 376
3 374 99 375
3 376 98 374
3 367 377 375
3 375 99 367
3 377 103 375
3 367 30 377
3 356 366 374
3 374 98 356
3 366 99 374
3 356 29 366
3 378 359 376
3 376 103 378
3 359 98 376
3 378 1 359
3 381 379 380
3 380 105 381
3 379 101 380
3 381 104 379
3 363 382 380
3 380 101 363
3 382 105 380
3 363 31 382
3 383 368 379
3 379 104 383
3 368 101 379
3 383 30 368
3 385 384 381
3 381 105 385
3 384 104 381
3 385 6 384
3 388 386 387
3 387 108 388
3 386 107 387
3 388 106 386
3 390 389 387
3 387 107 390
3 389 108 387
3 390 34 389
3 392 391 386
3 386 106 392
3 391 107 386
3 392 33 391
3 394 393 388
3 388 108 394
3 393 106 388
3 394 32 393
3 397 395 396
3 396 110 397
3 395 107 396
3 397 109 395
3 391 398 396
3 396 107 391
3 398 110 396
3 391 33 398
3 399 390 395
3 395 109 399
3 390 107 395
3 399 34 390
3 401 400 397
3 397 110 401
3 400 109 397
3 401 8 400
3 404 402 403
3 403 112 404
3 402 106 403
3 404 111 402
3 393 405 403
3 403 106 393
3 405 112 403
3 393 32 405
3 406 392 402
3 402 111 406
3 392 106 402
3 406 33 392
3 408 407 404
3 404 112 408
3 407 111 404
3 408 0 407
3 411 409 410
3 410 114 411
3 409 108 410
3 411 113 409
3 389 412 410
3 410 108 389
3 412 114 410
3 389 34 412
3 413 394 409
3 409 113 413
3 394 108 409
3 413 32 394
3 415 414 411
3 411 114 415
3 414 113 411
3 415 11 414
3 418 416 417
3 417 117 418
3 416 116 417
3 418 115 416
3 420 419 417
3 417 116 420
3 419 117 417
3 420 36 419
3 422 421 416
3 416 115 422
3 421 116 416
3 422 34 421
3 424 423 418
3 418 117 424
3 423 115 418
3 424 35 423
3 427 425 426
3 426 109 427
3 425 116 426
3 427 118 425
3 421 399 426
3 426 116 421
3 399 109 426
3 421 34 399
3 428 420 425
3 425 118 428
3 420 116 425
3 428 36 420
3 400 429 427
3 427 109 400
3 429 118 427
3 400 8 429
3 432 430 431
3 431 119 432
3 430 115 431
3 432 114 430
3 423 433 431
3 431 115 423
3 433 119 431
3 423 35 433
3 412 422 430
3 430 114 412
3 422 115 430
3 412 34 422
3 434 415 432
3 432 119 434
3 415 114 432
3 434 11 415
3 437 435 436
3 436 121 437
3 435 117 436
3 437 120 435
3 419 438 436
3 436 117 419
3 438 121 436
3 419 36 438
3 439 424 435
3 435 120 439
3 424 117 435
3 439 35 424
3 441 440 437
3 437 121 441
3 440 120 437
3 441 1 440
3 444 442 443
3 443 124 444
3 442 123 443
3 444 122 442
3 446 445 443
3 443 123 446
3 445 124 443
3 446 39 445
3 448 447 442
3 442 122 448
3 447 123 442
3 448 38 447
3 450 449 444
3 444 124 450
3 449 122 444
3 450 37 449
3 453 451 452
3 452 126 453
3 451 123 452
3 453 125 451
3 447 454 452
3 452 123 447
3 454 126 452
3 447 38 454
3 455 446 451
3 451 125 455
3 446 123 451
3 455 39 446
3 457 456 453
3 453 126 457
3 456 125 453
3 457 9 456
3 460 458 459
3 459 128 460
3 458 122 459
3 460 127 458
3 449 461 459
3 459 122 449
3 461 128 459
3 449 37 461
3 462 448 458
3 458 127 462
3 448 122 458
3 462 38 448
3 464 463 460
3 460 128 464
3 463 127 460
3 464 10 463
3 467 465 466
3 466 130 467
3 465 124 466
3 467 129 465
3 445 468 466
3 466 124 445
3 468 130 466
3 445 39 468
3 469 450 465
3 465 129 469
3 450 124 465
3 469 37 450
3 471 470 467
3 467 130 471
3 470 129 467
3 471 3 470
3 474 472 473
3 473 133 474
3 472 132 473
3 474 131 472
3 476 475 473
3 473 132 476
3 475 133 473
3 476 38 475
3 478 477 472
3 472 131 478
3 477 132 472
3 478 41 477
3 480 479 474
3 474 133 480
3 479 131 474
3 480 40 479
3 483 481 482
3 482 134 483
3 481 132 482
3 483 126 481
3 477 484 482
3 482 132 477
3 484 134 482
3 477 41 484
3 454 476 481
3 481 126 454
3 476 132 481
3 454 38 476
3 485 457 483
3 483 134 485
3 457 126 483
3 485 9 457
3 488 486 487
3 487 136 488
3 486 131 487
3 488 135 486
3 479 489 487
3 487 131 479
3 489 136 487
3 479 40 489
3 490 478 486
3 486 135 490
3 478 131 486
3 490 41 478
3 492 491 488
3 488 136 492
3 491 135 488
3 492 2 491
3 495 493 494
3 494 127 495
3 493 133 494
3 495 137 493
3 475 462 494
3 494 133 475
3 462 127 494
3 475 38 462
3 496 480 493
3 493 137 496
3 480 133 493
3 496 40 480
3 463 497 495
3 495 127 463
3 497 137 495
3 463 10 497
3 500 498 499
3 499 140 500
3 498 139 499
3 500 138 498
3 502 501 499
3 499 139 502
3 501 140 499
3 502 33 501
3 504 503 498
3 498 138 504
3 503 139 498
3 504 13 503
3 506 505 500
3 500 140 506
3 505 138 500
3 506 23 505
3 509 507 508
3 508 47 509
3 507 139 508
3 509 110 507
3 503 182 508
3 508 139 503
3 182 47 508
3 503 13 182
3 398 502 507
3 507 110 398
3 502 139 507
3 398 33 502
3 183 401 509
3 509 47 183
3 401 110 509
3 183 8 401
3 512 510 511
3 511 79 512
3 510 138 511
3 512 46 510
3 505 294 511
3 511 138 505
3 294 79 511
3 505 23 294
3 174 504 510
3 510 46 174
3 504 138 510
3 174 13 504
3 295 177 512
3 512 79 295
3 177 46 512
3 295 4 177
3 515 513 514
3 514 111 515
3 513 140 514
3 515 78 513
3 501 406 514
3 514 140 501
3 406 111 514
3 501 33 406
3 286 506 513
3 513 78 286
3 506 140 513
3 286 23 506
3 407 289 515
3 515 111 407
3 289 78 515
3 407 0 289
3 518 516 517
3 517 143 518
3 516 142 517
3 518 141 516
3 520 519 517
3 517 142 520
3 519 143 517
3 520 19 519
3 522 521 516
3 516 141 522
3 521 142 516
3 522 32 521
3 524 523 518
3 518 143 524
3 523 141 518
3 524 26 523
3 527 525 526
3 526 113 527
3 525 142 526
3 527 66 525
3 521 413 526
3 526 142 521
3 413 113 526
3 521 32 413
3 244 520 525
3 525 66 244
3 520 142 525
3 244 19 520
3 414 247 527
3 527 113 414
3 247 66 527
3 414 11 247
3 530 528 529
3 529 86 530
3 528 141 529
3 530 112 528
3 523 316 529
3 529 141 523
3 316 86 529
3 523 26 316
3 405 522 528
3 528 112 405
3 522 141 528
3 405 32 522
3 317 408 530
3 530 86 317
3 408 112 530
3 317 0 408
3 533 531 532
3 532 61 533
3 531 143 532
3 533 89 531
3 519 231 532
3 532 143 519
3 231 61 532
3 519 19 231
3 326 524 531
3 531 89 326
3 524 143 531
3 326 26 524
3 232 329 533
3 533 61 232
3 329 89 533
3 232 5 329
3 536 534 535
3 535 146 536
3 534 145 535
3 536 144 534
3 538 537 535
3 535 145 538
3 537 146 535
3 538 22 537
3 540 539 534
3 534 144 540
3 539 145 534
3 540 16 539
3 542 541 536
3 536 146 542
3 541 144 536
3 542 39 541
3 545 543 544
3 544 54 545
3 543 145 544
3 545 80 543
3 539 204 544
3 544 145 539
3 204 54 544
3 539 16 204
3 293 538 543
3 543 80 293
3 538 145 543
3 293 22 538
3 205 296 545
3 545 54 205
3 296 80 545
3 205 4 296
3 548 546 547
3 547 125 548
3 546 144 547
3 548 57 546
3 541 455 547
3 547 144 541
3 455 125 547
3 541 39 455
3 214 540 546
3 546 57 214
3 540 144 546
3 214 16 540
3 456 217 548
3 548 125 456
3 217 57 548
3 456 9 217
3 551 549 550
3 550 81 551
3 549 146 550
3 551 130 549
3 537 301 550
3 550 146 537
3 301 81 550
3 537 22 301
3 468 542 549
3 549 130 468
3 542 146 549
3 468 39 542
3 302 471 551
3 551 81 302
3 471 130 551
3 302 3 471
3 554 552 553
3 553 149 554
3 552 148 553
3 554 147 552
3 556 555 553
3 553 148 556
3 555 149 553
3 556 21 555
3 558 557 552
3 552 147 558
3 557 148 552
3 558 25 557
3 560 559 554
3 554 149 560
3 559 147 554
3 560 37 559
3 563 561 562
3 562 88 563
3 561 148 562
3 563 70 561
3 557 327 562
3 562 148 557
3 327 88 562
3 557 25 327
3 260 556 561
3 561 70 260
3 556 148 561
3 260 21 556
3 328 261 563
3 563 88 328
3 261 70 563
3 328 5 261
3 566 564 565
3 565 129 566
3 564 147 565
3 566 87 564
3 559 469 565
3 565 147 559
3 469 129 565
3 559 37 469
3 321 558 564
3 564 87 321
3 558 147 564
3 321 25 558
3 470 322 566
3 566 129 470
3 322 87 566
3 470 3 322
3 569 567 568
3 568 71 569
3 567 149 568
3 569 128 567
3 555 266 568
3 568 149 555
3 266 71 568
3 555 21 266
3 461 560 567
3 567 128 461
3 560 149 567
3 461 37 560
3 267 464 569
3 569 71 267
3 464 128 569
3 267 10 464
3 572 570 571
3 571 152 572
3 570 151 571
3 572 150 570
3 574 573 571
3 571 151 574
3 573 152 571
3 574 27 573
3 576 575 570
3 570 150 576
3 575 151 570
3 576 12 575
3 578 577 572
3 572 152 578
3 577 150 572
3 578 36 577
3 581 579 580
3 580 49 581
3 579 151 580
3 581 96 579
3 575 189 580
3 580 151 575
3 189 49 580
3 575 12 189
3 349 574 579
3 579 96 349
3 574 151 579
3 349 27 574
3 190 352 581
3 581 49 190
3 352 96 581
3 190 7 352
3 584 582 583
3 583 118 584
3 582 150 583
3 584 48 582
3 577 428 583
3 583 150 577
3 428 118 583
3 577 36 428
3 181 576 582
3 582 48 181
3 576 150 582
3 181 12 576
3 429 184 584
3 584 118 429
3 184 48 584
3 429 8 184
3 587 585 586
3 586 97 587
3 585 152 586
3 587 121 585
3 573 357 586
3 586 152 573
3 357 97 586
3 573 27 357
3 438 578 585
3 585 121 438
3 578 152 585
3 438 36 578
3 358 441 587
3 587 97 358
3 441 121 587
3 358 1 441
3 590 588 589
3 589 155 590
3 588 154 589
3 590 153 588
3 592 591 589
3 589 154 592
3 591 155 589
3 592 17 591
3 594 593 588
3 588 153 594
3 593 154 588
3 594 30 593
3 596 595 590
3 590 155 596
3 595 153 590
3 596 35 595
3 599 597 598
3 598 104 599
3 597 154 598
3 599 64 597
3 593 383 598
3 598 154 593
3 383 104 598
3 593 30 383
3 237 592 597
3 597 64 237
3 592 154 597
3 237 17 592
3 384 240 599
3 599 104 384
3 240 64 599
3 384 6 240
3 602 600 601
3 601 120 602
3 600 153 601
3 602 103 600
3 595 439 601
3 601 153 595
3 439 120 601
3 595 35 439
3 377 594 600
3 600 103 377
3 594 153 600
3 377 30 594
3 440 378 602
3 602 120 440
3 378 103 602
3 440 1 378
3 605 603 604
3 604 65 605
3 603 155 604
3 605 119 603
3 591 245 604
3 604 155 591
3 245 65 604
3 591 17 245
3 433 596 603
3 603 119 433
3 596 155 603
3 433 35 596
3 246 434 605
3 605 65 246
3 434 119 605
3 246 11 434
3 608 606 607
3 607 158 608
3 606 157 607
3 608 156 606
3 610 609 607
3 607 157 610
3 609 158 607
3 610 15 609
3 612 611 606
3 606 156 612
3 611 157 606
3 612 28 611
3 614 613 608
3 608 158 614
3 613 156 608
3 614 41 613
3 617 615 616
3 616 95 617
3 615 157 616
3 617 55 615
3 611 350 616
3 616 157 611
3 350 95 616
3 611 28 350
3 209 610 615
3 615 55 209
3 610 157 615
3 209 15 610
3 351 210 617
3 617 95 351
3 210 55 617
3 351 7 210
3 620 618 619
3 619 135 620
3 618 156 619
3 620 94 618
3 613 490 619
3 619 156 613
3 490 135 619
3 613 41 490
3 342 612 618
3 618 94 342
3 612 156 618
3 342 28 612
3 491 345 620
3 620 135 491
3 345 94 620
3 491 2 345
3 623 621 622
3 622 56 623
3 621 158 622
3 623 134 621
3 609 215 622
3 622 158 609
3 215 56 622
3 609 15 215
3 484 614 621
3 621 134 484
3 614 158 621
3 484 41 614
3 216 485 623
3 623 56 216
3 485 134 623
3 216 9 485
3 626 624 625
3 625 161 626
3 624 160 625
3 626 159 624
3 628 627 625
3 625 160 628
3 627 161 625
3 628 31 627
3 630 629 624
3 624 159 630
3 629 160 624
3 630 20 629
3 632 631 626
3 626 161 632
3 631 159 626
3 632 40 631
3 635 633 634
3 634 73 635
3 633 160 634
3 635 105 633
3 629 272 634
3 634 160 629
3 272 73 634
3 629 20 272
3 382 628 633
3 633 105 382
3 628 160 633
3 382 31 628
3 273 385 635
3 635 73 273
3 385 105 635
3 273 6 385
3 638 636 637
3 637 137 638
3 636 159 637
3 638 72 636
3 631 496 637
3 637 159 631
3 496 137 637
3 631 40 496
3 265 630 636
3 636 72 265
3 630 159 636
3 265 20 630
3 497 268 638
3 638 137 497
3 268 72 638
3 497 10 268
3 641 639 640
3 640 102 641
3 639 161 640
3 641 136 639
3 627 372 640
3 640 161 627
3 372 102 640
3 627 31 372
3 489 632 639
3 639 136 489
3 632 161 639
3 489 40 632
3 373 492 641
3 641 102 373
3 492 136 641
3 373 2 492
