# vtk DataFile Version 3.0
this file was written using fslvtkio
ASCII
DATASET POLYDATA
POINTS 970 float
139.374 200.578 100.932
140.213 202.689 101.857
141.359 201.051 101.795
141.796 199.892 100.736
139.615 198.187 100.03
142.984 197.823 100.138
141.829 196.584 99.2412
144.508 196.161 99.4944
138.975 201.629 99.5487
139.622 202.692 99.3917
139.623 199.541 98.6631
140.439 197.611 98.4176
143.322 196.103 98.2484
138.594 201.44 96.8976
139.958 198.931 96.538
141.958 197.152 97.378
145.274 201.424 113.8
147.021 203.239 114.239
147.204 202.336 116.03
146.987 200.798 114.811
143.416 199.809 113.646
146.286 199.495 113.425
144.861 198.295 111.871
147.397 198.879 111.919
144.815 202.23 112.429
147.11 203.41 112.209
143.414 200.543 111.669
143.339 198.707 111.137
146.564 197.2 110.93
145.244 197.613 109.98
147.387 197.033 109.436
146.385 202.368 110.585
147.503 203.605 110.638
144.653 200.869 110.172
143.878 199.2 110.103
145.486 198.122 108.856
147.533 197.856 107.84
147.918 203.305 109.607
146.719 201.094 108.868
148.162 200.983 107.72
145.535 199.639 107.519
144.775 198.462 106.726
146.635 197.718 106.504
147.488 200.152 106.135
147.012 199.157 104.311
145.874 199.342 103.901
147.309 198.744 100.74
146.964 198.475 104.214
145.649 198.574 103.154
147.713 198.001 102.173
146.347 197.15 101.746
147.825 197.404 101.593
145.039 200.29 100.068
147.021 200.348 100.023
144.952 199.322 100.994
144.871 197.173 100.942
146.504 196.087 100.2
143.662 202.418 102.152
144.075 203.588 101.518
147.563 200.9 100.746
145.471 194.67 98.202
141.004 203.798 100.831
142.428 203.908 98.7822
144.052 195.386 96.5998
139.938 203.33 97.2006
139.679 202.686 95.3301
139.624 199.976 94.7137
141.428 197.557 95.5584
149.592 204.201 118.448
150.584 205.041 117.088
151.833 204.504 119.039
150.628 202.89 119.349
148.923 202.878 117.332
149.949 201.471 117.578
148.23 204.67 116.279
150.301 205.54 115.078
148.267 200.824 116.117
148.325 199.571 113.625
149.427 199.149 112.22
149.036 204.55 113.459
150.839 205.319 112.779
148.278 198.648 110.463
149.252 198.182 108.638
148.771 204.804 111.586
151.152 205.319 110.216
149.22 198.507 107.127
148.574 197.868 105.932
149.864 198.45 105.807
149.721 204.11 108.915
149.231 201.751 107.223
150.588 202.855 106.926
148.483 197.642 104.504
150.187 197.518 103.98
149.72 200.959 105.242
149.883 199.709 102.846
150.868 200.645 103.065
148.608 199.144 102.718
149.251 197.868 102.235
148.953 196.59 100.68
150.305 199.668 99.8938
151.956 199.985 101.451
149.395 199.009 100.135
148.055 194.649 98.8304
151.178 200.55 100.404
146.878 202.549 100.287
147.161 194.573 96.7462
144.724 203.412 98.4077
145.707 194.929 95.5382
142.324 203.448 96.3365
142.366 201.826 94.4382
144.195 201.66 94.0475
141.329 200.223 93.2888
141.28 197.835 93.1306
143.166 195.968 94.5462
143.464 200.188 91.9946
142.621 198.454 91.3294
143.066 196.695 91.8159
152.643 205.257 116.468
154.041 204.596 118.567
153.285 203.025 119.177
151.99 201.555 117.932
150.684 200.769 116.114
152.454 200.148 114.695
152.534 206.07 114.298
149.864 199.787 114.558
151.698 199.058 111.922
152.791 205.684 111.958
150.054 200.092 110.004
151.371 200.201 108.004
153.282 205.632 110.015
150.79 199.407 106.837
151.503 199.16 105.28
151.554 204.639 107.834
153.187 205.335 108.166
151.867 198.88 102.778
152.683 203.532 105.444
154.54 203.833 105.547
151.449 202.399 105.341
150.618 197.67 101.529
150.772 196.27 99.6788
153.083 203.449 104.246
152.412 201.691 103.533
153.314 202.381 102.86
149.912 195.127 98.2285
152.453 201.394 101.15
149.946 201.356 100.189
150.686 202.011 99.3241
148.717 194.513 96.5638
147.593 194.092 94.732
148.92 193.897 94.6076
147.498 202.858 98.8263
148.595 202.088 97.4888
145.668 194.472 93.5595
147.761 193.346 92.7609
145.976 201.401 97.0861
145.632 201.716 95.1262
146.408 200.572 93.2247
144.717 195.74 92.7937
146.888 194.32 91.4102
145.955 199.914 91.2566
145.424 198.622 89.53
145.086 196.77 89.4296
145.538 195.506 90.5758
156.189 202.525 117.492
155.752 203.905 116.365
157.705 202.079 116.615
157.419 201.176 116.24
154.659 201.363 117.285
156.159 201.502 114.981
153.695 201.339 115.613
155.448 200.759 113.563
154.987 204.485 114.387
154.909 199.799 112.722
154.392 204.887 112.812
152.515 199.841 113.097
153.533 200.015 110.285
154.916 204.981 110.808
152.162 200.125 109.172
153.528 200.319 107.023
155.117 205.076 108.709
152.624 199.808 106.134
153.398 199.222 104.04
155.545 204.93 106.988
153.56 198.436 101.935
156.314 203.676 104.897
152.284 197.537 100.708
152.685 196.246 98.542
154.053 203.683 103.482
155.756 202.942 103.172
151.317 195.678 97.4362
149.871 194.79 96.4577
151.208 194.437 95.1843
153.672 202.453 101.322
152.368 201.922 99.7326
153.525 202.039 99.0791
149.973 193.713 93.0884
151.522 202.022 97.42
152.946 201.783 96.7505
149.216 193.559 91.3968
149.608 201.372 96.0407
148.514 200.584 95.4343
147.78 200.451 93.7482
149.622 200.081 93.3584
148.183 193.898 89.2238
148.422 199.851 91.3294
148.854 199.43 88.9149
148.215 198.47 87.9539
147.508 196.432 87.444
147.041 194.873 88.191
157.588 202.818 115.139
159.589 202.036 116.341
158.719 200.879 116.745
157.908 201.109 114.318
158.223 200.849 112.825
157.221 203.45 113.074
157.446 199.954 111.594
156.932 204.421 112.278
154.897 200.14 111.395
155.849 200.122 109.438
157.224 204.327 110.288
154.736 199.821 108.223
156.333 199.48 106.325
157.335 204.213 108.101
154.984 199.852 105.231
155.546 199.674 103.48
157.965 204.909 106.31
155.607 197.902 101.691
158.109 203.804 104.083
154.222 197.261 99.8281
154.89 195.71 97.4648
157.544 202.878 102.046
152.895 195.48 96.5441
152.669 193.539 93.9303
155.359 201.664 100.832
155.133 201.262 98.4756
151.42 193.661 92.3808
155.233 200.68 96.3195
151.074 193.128 90.2412
152.694 199.939 95.7477
151.35 200.091 94.6779
152.127 199.381 92.4795
149.79 193.793 87.9681
150.713 199.55 90.8371
150.856 199.116 88.4971
150.702 198.317 86.5098
150.219 196.622 85.8499
149.31 194.893 86.6291
160.642 200.804 116.402
160.493 201.742 115.563
162.231 200.658 116.619
161.717 199.715 117.541
159.934 200.501 115.983
161.212 199.687 115.814
159.767 200.546 114.425
161.205 199.368 114.422
159.603 202.267 114.221
160.437 199.157 112.743
159.213 202.906 112.455
159.539 199.457 111.145
159.463 204.175 111.839
157.557 199.627 110.107
158.204 199.661 108.407
159.66 204.017 109.76
156.871 199.066 107.729
158.329 198.791 105.801
159.621 203.822 107.597
157.343 199.024 104.534
157.659 198.305 102.831
159.942 204.406 105.76
157.42 197.472 100.845
159.781 203.607 103.366
155.931 196.989 99.281
157.134 195.515 97.7862
159.201 202.878 101.342
154.219 195.225 95.6332
156.306 194.731 95.6853
157.317 201.125 99.9156
157.178 201.379 97.6776
154.397 193.774 94.0605
153.431 192.813 91.5086
157.185 201.203 95.4039
152.761 192.857 88.7477
154.995 200.208 94.4081
154.002 199.172 93.3318
154.623 199.287 90.8954
151.977 193.524 86.8024
153.126 199.074 89.9741
153.074 198.455 87.9273
152.953 197.905 85.7996
152.889 196.592 84.7063
151.965 194.812 85.3974
162.553 200.886 114.897
164.122 199.895 117.322
163.189 199.425 118.954
162.764 198.004 117.078
162.935 198.219 114.303
161.443 201.983 113.474
162.608 198.668 112.857
161.603 198.764 111.402
163.656 198.11 111.31
161.708 202.109 111.923
160.136 199.152 110.442
161.599 198.041 109.875
161.677 202.93 110.771
160.246 198.661 108.754
159.053 198.427 107.555
160.89 197.832 106.976
161.528 203.464 109.053
160.619 197.195 105.414
161.683 203.732 107.13
159.611 198.051 103.883
159.39 196.907 102.112
161.779 203.686 104.816
159.23 196.866 100.433
157.938 197.031 99.2944
160.007 195.729 98.9405
161.473 203.503 102.583
159.12 194.851 96.9714
160.832 202.916 100.412
157.924 194.342 94.4192
158.983 202.256 99.0672
159.046 202.331 96.6569
155.661 193.704 93.2483
155.034 192.778 90.271
158.933 201.593 94.1714
154.506 192.767 88.0543
156.718 200.511 93.3981
156.371 199.193 91.635
156.785 198.917 89.4004
153.796 193.44 86.5906
155.475 198.946 88.9201
155.41 197.945 87.3916
155.165 197.451 85.8385
154.993 195.497 84.6328
154.315 194.205 85.5004
164.779 198.316 119.929
166.38 199.275 120.177
166.493 197.663 120.664
166.225 196.395 119.429
164.493 196.902 118.52
165.524 196.594 117.213
164.623 199.543 115.655
166.21 198.993 117.985
164.677 197.569 115.642
164.066 197.747 113.57
165.719 197.257 113.327
163.708 200.853 113.629
166.479 199.457 115.215
164.761 196.948 110.619
163.845 201.346 111.661
163.447 196.49 109.691
163.64 202.063 109.988
162.485 196.928 108.247
162.624 196.553 106.456
163.567 202.551 108.109
162.719 195.678 105.208
161.007 196.756 104.492
162.153 196.238 103.432
163.376 202.688 106.07
160.957 195.855 102.498
160.906 195.728 100.721
162.725 194.602 100.55
163.365 202.44 103.834
161.681 194.336 98.3874
162.971 202.754 101.564
160.969 193.174 96.3333
162.076 202.324 99.5718
160.148 192.663 94.0731
160.559 201.833 98.2722
160.178 201.574 95.7245
156.856 193.246 91.7429
158.796 192.381 91.6279
160.448 200.466 93.746
158.587 200.634 92.7224
159.955 199.949 92.0284
157.037 192.687 88.7846
158.118 192.618 87.8767
158.325 199.341 91.1958
157.498 197.836 87.1266
158.724 198.282 88.785
157.388 196.973 85.1448
159.378 197.218 86.034
157.151 195.254 84.561
159.464 196.269 83.9794
156.914 193.842 86.0271
158.172 193.896 86.1077
155.834 192.899 86.5385
167.373 196.897 121.103
167.871 198.019 120.825
168.856 197.134 122.244
168.682 195.407 121.668
167.394 195.753 120.47
168.196 195.274 119.345
168.288 198.404 118.728
168.135 195.471 117.218
166.366 196.624 115.523
168.112 196.228 114.578
168.179 198.429 116.427
166.777 196.253 112.389
165.903 200.425 113.25
168.107 199.287 114.343
167.345 195.657 110.944
165.672 195.853 109.687
167.306 194.781 109.362
165.882 200.801 110.941
164.139 195.774 108.835
165.064 195.066 108.586
165.743 201.48 109.348
164.685 194.413 107.229
164.17 195.055 105.751
165.084 193.839 105.49
165.581 201.733 107.51
164.366 195.107 103.775
163.403 195.506 102.253
165.311 193.943 101.916
165.122 202.012 105.327
164.107 192.875 99.9479
164.68 200.908 102.826
163.27 192.88 97.9007
163.831 201.46 100.459
162.976 192.29 96.2034
162.377 191.549 94.4728
164.537 191.253 95.5026
163.292 201.604 98.9064
162.19 201.57 98.5789
163.61 201.04 97.5397
161.141 191.617 92.1094
163.602 190.943 93.3302
161.012 200.665 95.2449
161.759 201.016 96.7922
161.95 200.3 94.5053
160.337 191.744 90.1351
162.327 191.537 91.2719
160.347 198.978 90.9389
161.461 199.518 92.4479
161.7 198.575 90.6075
161.397 192.193 89.2811
159.641 192.262 87.9702
160.125 198.298 89.3369
160.873 197.309 86.7439
161.186 196.354 84.7363
160.107 194.215 85.6828
170.599 195.74 122.218
170.125 197.131 121.151
172.262 195.962 122.042
171.973 194.197 122.507
170.489 194.314 120.394
171.649 193.464 121.068
171.251 194.031 119.18
171.952 192.979 119.456
170.242 197.446 119.241
169.923 194.649 118.49
170.895 194.385 117.371
170.089 197.712 117.224
169.885 194.825 115.458
168.952 195.045 113.524
170.827 194.15 113.348
170.191 198.208 114.892
168.363 194.923 112.178
169.57 194.164 111.568
167.874 199.922 112.275
169.789 198.981 113.006
169.327 193.762 110.143
167.566 193.702 108.697
168.973 192.32 108.552
167.759 200.243 109.975
166.624 194.202 107.72
167.869 193.466 107.077
168.134 201.14 108.534
167.139 192.592 105.971
166.074 193.924 103.937
167.218 192.468 103.423
167.43 201.143 106.561
166.689 192.601 101.075
166.527 200.885 104.382
166.348 191.729 99.9549
165.201 191.914 98.5407
167.29 191.163 99.3454
166.088 200.518 102.415
165.341 200.874 100.716
167.18 199.849 100.853
164.553 192.124 96.9602
166.579 191.32 97.3109
164.397 200.764 99.0872
165.966 200.187 98.7607
165.875 190.584 94.7482
164.597 200.308 96.9976
164.691 190.968 92.3224
163.325 200.528 95.9443
163.575 199.884 94.1144
163.195 191.923 90.4034
162.829 199.439 92.6768
162.138 197.942 89.4875
163.105 198.218 91.0633
163.529 197.265 88.7491
162.329 192.519 89.0966
160.9 193.012 87.3891
161.96 197.263 88.0173
162.59 196.399 86.3203
162.147 194.512 86.1701
172.372 196.402 119.888
173.554 195.091 121.329
173.346 193.679 122.655
173.102 192.347 121.436
172.903 192.093 119.007
171.866 196.283 117.628
173.142 192.559 117.221
171.633 193.722 116.141
172.278 192.573 115.369
171.979 197.205 115.903
171.676 192.835 114.094
171.365 192.475 112.3
172.923 191.385 112.527
172.151 197.706 114.198
170.692 192.318 110.819
172.541 191.45 110.337
169.971 198.9 111.119
171.728 198.518 112.362
170.974 192.087 109.109
169.864 191.683 107.23
171.833 190.617 107.626
169.764 199.747 109.558
171.581 198.873 110.245
169.001 191.973 106.275
170.42 191.135 105.981
169.98 200.091 107.48
168.558 191.162 104.881
168.372 191.647 102.661
170.183 190.152 103.244
169.167 200.848 105.55
168.116 191.651 100.793
169.811 189.781 101.247
168.613 200.299 103.935
167.587 200.21 102.499
169.363 199.124 102.087
168.977 190.19 99.1981
168.548 199.111 99.9099
168.257 190.331 96.6238
167.191 198.77 98.0663
166.069 199.027 97.1797
167.15 197.978 96.5474
167.068 190.708 94.2004
164.891 199.833 96.1492
165.934 199.179 95.2517
165.269 191.488 91.6603
164.254 198.633 92.5393
164.892 199.212 94.3104
164.548 197.856 91.6798
165.788 198.188 92.6291
165.387 197.187 90.9039
163.42 192.414 89.0489
165.744 191.87 90.4634
164.796 193.15 89.5648
164.231 196.424 87.2583
165.095 196.802 89.2798
163.957 194.89 86.8747
165.735 195.696 88.0324
163.051 193.484 87.8012
165.412 194.084 87.84
174.837 193.863 121.899
174.797 194.605 119.87
176.326 194.27 121.241
176.203 193.256 122.691
174.719 192.113 122.128
175.963 191.068 122.088
174.316 190.772 120.864
176.051 190.122 121.036
175.561 190.293 119.284
176.585 189.422 119.13
174.173 195.907 118.549
174.742 191.509 118.484
175.464 190.407 117.359
173.991 196.356 116.605
174.232 190.981 115.905
173.307 191.638 114.217
174.76 190.179 113.784
173.998 196.934 114.834
174.25 189.703 111.588
173.756 197.651 112.952
174.779 189.375 109.907
172.868 190.59 109.076
174.43 190.044 107.938
173.904 197.98 111.067
172.878 190.074 106.502
171.748 199.481 108.18
173.309 198.218 109.401
172.231 189.303 104.816
171.38 199.734 105.882
172.834 198.467 106.584
170.937 190.374 104.242
172.127 188.878 102.386
170.273 200.004 104.103
172.059 198.498 103.638
171.472 188.805 100.349
170.697 198.378 101.222
170.539 189.406 98.1511
170.362 198.133 99.4927
168.543 198.198 97.88
169.032 197.549 96.6512
170.25 196.946 98.4413
170.757 196.785 97.1079
169.513 190.237 95.5807
167.671 197.431 95.0268
169.767 197.204 95.3091
168.229 190.953 94.1647
169.901 190.699 93.9678
168.37 191.256 92.5792
166.457 198.318 93.9095
168.445 196.307 93.7675
166.944 196.856 92.8047
167.963 196.059 91.978
166.859 191.155 92.0743
167.155 192.19 90.9869
167.81 196.497 90.3835
166.956 193.207 88.8787
166.829 196.279 89.6757
167.082 195.743 88.7056
167.412 194.308 88.1367
178.404 190.136 124.062
178.87 191.941 123.631
180.28 190.317 123.798
180.42 189.099 125.22
178.676 188.716 123.672
180.392 187.649 125.092
179.149 187.737 122.21
181.427 187.306 123.309
177.303 191.398 123.231
178.343 192.597 121.999
177.273 189.85 122.624
177.487 188.795 121.024
180.255 187.16 121.62
178.395 187.565 119.5
180.517 186.638 120.299
176.35 195.127 119.192
177.782 193.717 120.32
177.072 188.487 117.638
179.831 186.755 118.653
178.519 187.145 117.066
180.547 186.575 117.022
176.09 195.165 117.098
175.713 189.019 115.471
177.753 188.133 115.076
179.148 186.091 114.866
176.148 196.024 115.387
176.399 188.714 112.912
177.962 186.722 112.85
175.469 196.979 113.682
175.799 188.567 111.15
177.186 187.193 110.473
175.65 197.029 111.483
175.824 188.112 108.515
174.781 188.974 106.621
176.321 187.396 107.055
175.481 196.632 108.956
174.039 188.371 105.003
175.634 186.785 104.87
174.567 197.53 107.283
172.785 188.834 103.617
174.389 187.191 102.635
173.753 197.744 105.12
173.924 187.936 100.775
174.153 196.921 103.482
172.68 197.754 101.753
174.234 196.731 101.966
173.165 188.512 98.9399
171.621 197.653 100.106
173.089 196.886 100.414
171.761 189.536 96.9622
172.621 196.566 98.6696
171.934 196.208 96.6839
171.756 189.847 94.925
171.248 196.394 95.3129
170.119 196.384 94.4861
171.149 195.961 94.073
171.033 190.925 94.0296
169.832 191.655 92.4097
169.164 195.244 90.9749
169.956 195.694 92.6384
169.534 194.089 90.3988
171.132 194.874 91.7509
168.674 192.91 91.4211
171.014 193 91.688
168.246 195.717 89.4959
168.271 194.524 88.9563
167.856 193.276 89.7965
182.211 187.927 126.639
182.39 189.185 125.357
183.797 189.101 126.678
184.33 187.115 127.477
182.362 186.57 125.518
183.524 186.105 127.321
183.341 185.886 124.719
184.407 185.189 126.128
180.542 191.266 122.508
181.965 190.494 124.168
182.352 186.458 122.442
184.283 185.31 124.08
183.628 185.985 121.739
184.379 184.899 122.469
180.286 192.029 121.134
181.756 186.257 119.68
182.801 185.667 118.549
177.994 194.183 118.317
179.369 192.904 119.367
181.538 186.114 115.633
178.035 194.749 116.32
179.777 193.778 117.431
180.112 185.635 113.059
177.842 195.759 114.701
179.685 194.576 114.969
179.306 185.817 110.979
177.118 196.415 112.879
178.855 194.928 113.152
179.425 185.606 108.948
177.332 196.431 110.421
177.854 185.894 108.022
177.922 185.923 106.089
178.351 195.665 108.927
176.438 195.88 107.373
178.065 194.865 107
176.977 186.019 103.25
175.523 196.597 105.87
177.222 195.242 105.482
176.244 186.54 101.407
174.977 196.146 104.571
176.277 195.347 104.19
175.601 187.778 99.7729
174.997 196.215 100.691
176.342 195.926 102.362
176.499 195.528 100.478
174.195 189.102 97.8999
173.91 196.391 99.7418
175.058 195.857 98.9398
173.185 189.798 96.3062
173.018 195.482 95.5185
173.932 195.819 97.4408
174.051 194.113 94.5147
175.057 194.644 96.0923
173.7 192.508 94.3444
175.775 193.015 95.4033
173.426 191.473 95.1131
175.405 191.63 95.1354
172.61 190.776 95.2161
174.56 190.481 95.5085
172.386 194.809 93.6248
172.302 193.219 93.3586
171.642 191.773 93.7478
189 180.157 142.981
190.888 181.192 137.931
192.045 179.125 141.232
191.664 177.23 145.039
189.042 178.328 141.337
190.702 174.985 143.321
190.072 176.604 139.979
192.01 175.605 140.716
188.582 182.192 137.245
189.977 182.188 134.576
188.334 180.641 138.129
189.152 179.382 137.684
190.462 177.339 137.447
188.422 183.474 133.195
188.88 184.683 132.976
187.901 182.38 135.007
188.405 181.567 134.563
189.396 180.24 134.959
187.181 184.986 131.015
186.702 186.439 129.616
188.245 185.686 131.383
186.346 184.273 130.763
187.351 183.06 131.83
187.955 182.516 131.085
188.646 181.438 131.836
185.581 185.427 128.639
186.234 186.983 127.714
185.196 184.784 128.132
186.307 183.859 127.881
187.065 183.065 128.149
183.784 189.255 124.202
185.62 188.347 126.076
185.494 184.777 125.593
185.734 184.216 124.658
182.177 191.39 121.997
183.587 190.37 122.908
184.36 184.287 120.735
181.917 192.497 120.207
183.645 184.994 117.517
181.59 193.06 118.232
182.54 185.013 114.362
181.413 193.627 116.203
181.606 185.038 111.627
181.249 193.199 113.571
181.66 184.728 109.552
178.508 195.152 111.319
180.295 193.702 111.804
181.723 184.6 107.402
178.7 195.216 110.141
179.584 193.686 109.634
179.773 185 106.689
179.104 185.358 104.259
178.914 193.657 105.535
179.48 193.962 107.714
180.789 192.919 105.898
178.633 186.369 102.802
178.667 194.092 103.756
180.64 192.775 103.978
177.931 186.81 100.949
177.465 194.703 103.03
179.187 193.66 102.092
177.412 187.694 99.7567
178.583 187.613 100.588
178.626 188.219 99.7542
177.094 194.6 98.7838
177.835 194.361 101.003
178.783 193.831 99.5326
176.402 188.564 98.4676
177.45 189.476 98.4194
175.818 194.725 97.6423
178.323 193.515 97.8701
176.931 193.366 96.7771
176.934 191.528 96.1551
178.289 191.97 97.2007
175.966 190.307 97.1536
177.991 190.603 97.5826
174.719 189.723 97.0915
191.844 181.351 136.578
193.572 179.88 138.167
194.722 177.896 142.039
194.555 175.518 142.637
192.988 177.374 138.922
190.72 183.435 134.055
191.158 178.87 135.645
189.793 184.927 132.037
189.92 180.396 132.956
187.65 186.143 128.921
188.797 185.568 130.221
189.353 181.843 130.947
187.908 182.395 128.493
187.755 187.353 126.767
186.713 183.55 125.955
185.835 188.756 123.928
187.306 188.303 125.152
185.847 184.043 122.937
183.906 190.895 120.73
185.657 189.717 122.217
185.222 183.739 119.571
183.701 191.571 118.827
185.602 189.901 119.649
184.75 184.317 116.569
183.178 191.864 116.755
185.369 190.631 117.359
184.096 184.599 113.657
182.991 192.646 114.808
184.767 191.076 115.197
183.901 184.624 111.631
182.838 192.857 112.074
184.229 191.552 113.275
183.921 184.568 109.228
181.736 192.468 109.871
184.434 191.485 111.277
184.01 191.588 109.546
185.7 190.757 109.709
184.098 184.616 107.063
181.333 192.64 107.664
183.188 191.59 107.602
185.437 190.535 107.338
181.127 184.96 105.287
183.083 185.265 105.193
182.68 192.006 105.217
184.311 190.945 105.21
181.101 186.079 103.773
182.299 186.554 102.733
181.233 192.251 102.441
183.052 191.381 102.995
180.061 187.086 102.024
181.39 187.746 101.71
180.064 192.872 100.427
182.559 191.277 101.034
180.751 191.3 99.8191
180.494 189.597 99.3002
182.619 190.004 99.9741
180.09 188.282 100.291
182.368 188.5 100.031
179.883 192.441 98.5062
179.741 190.974 98.1484
179.148 189.35 98.8755
192.585 181.733 135.232
194.293 181.085 136.064
195.479 179.708 137.585
195.397 177.473 137.971
193.244 178.71 135.691
191.633 182.71 132.514
191.282 180.153 133.569
191.227 183.9 131.341
190.515 181.019 132.277
189.51 185.489 129.016
190.624 184.838 130.167
190.942 184.059 127.7
189.014 182.15 128.08
190.348 182.52 129.324
190.444 181.499 131.169
188.994 186.081 126.914
190.292 184.783 126.402
190.159 182.859 126.169
188.102 183.261 126.85
187.267 183.271 124.988
187.364 188.311 122.922
188.9 186.949 124.169
186.967 183.273 121.425
186.915 188.251 120.335
188.573 187.243 121.21
186.325 184.073 118.969
187.179 189.341 118.073
188.574 187.753 118.743
186.128 184.323 116.178
186.629 189.95 115.81
188.105 188.655 116.304
186.317 184.448 113.427
186.208 190.103 113.445
187.838 188.715 113.714
186.159 184.3 111.041
185.718 190.468 111.749
187.233 189.431 111.423
185.669 185.181 109.125
187.001 189.999 108.799
185.019 185.625 106.778
186.613 189.699 106.992
185.883 189.581 104.951
185.737 187.634 104.391
187.03 188.391 105.717
184.887 186.148 104.886
186.437 186.591 106.002
184.18 190.285 103.236
184.36 188.524 102.999
183.958 186.718 103.397
183.446 190.459 101.629
183.86 188.962 101.21
183.658 187.474 101.494
193.505 182.2 134.015
195.005 180.764 134.743
195.276 179.1 135.195
192.602 182.86 131.774
193.571 181.675 132.404
193.031 180.09 133.46
192.016 183.793 130.474
192.361 182.056 130.304
191.857 181.146 131.735
189.945 185.165 123.787
190.605 183.492 123.768
188.768 182.986 124.754
189.986 186.222 121.587
190.522 184.006 121.221
188.546 183.138 122.456
189.738 186.544 119.304
189.638 184.633 119.473
188.126 183.783 120.072
189.457 187.094 116.788
188.864 185.317 117.548
187.425 184.877 118.293
189.272 187.306 113.996
189.193 185.621 114.6
187.808 184.523 115.176
188.613 187.625 111.677
188.602 185.879 111.901
187.81 184.892 112.976
187.732 188.276 109.545
187.925 186.338 110.017
187.325 185.21 110.624
187.654 188.986 107.465
187.454 187.306 107.899
186.754 185.83 108.399
POLYGONS 1936  7744
3 0 1 2
3 0 3 4
3 2 3 0
3 4 5 6
3 3 5 4
3 5 7 6
3 8 1 0
3 9 1 8
3 4 10 0
3 10 8 0
3 6 11 4
3 11 10 4
3 12 6 7
3 11 6 12
3 8 13 9
3 10 13 8
3 14 13 10
3 11 14 10
3 15 14 11
3 12 15 11
3 16 17 18
3 16 19 20
3 18 19 16
3 20 21 22
3 19 21 20
3 21 23 22
3 24 17 16
3 25 17 24
3 20 26 16
3 26 24 16
3 22 27 20
3 27 26 20
3 28 22 23
3 28 29 22
3 29 27 22
3 28 30 29
3 31 25 24
3 32 25 31
3 26 33 24
3 33 31 24
3 27 34 26
3 34 33 26
3 29 35 27
3 35 34 27
3 36 29 30
3 35 29 36
3 31 37 32
3 37 38 39
3 37 31 38
3 31 33 38
3 34 40 33
3 40 38 33
3 35 41 34
3 41 40 34
3 42 35 36
3 41 35 42
3 38 43 39
3 40 43 38
3 44 43 40
3 44 45 46
3 44 40 45
3 40 41 45
3 47 41 42
3 47 48 41
3 48 45 41
3 48 49 50
3 47 49 48
3 49 51 50
3 52 46 45
3 53 46 52
3 48 54 45
3 54 52 45
3 50 55 48
3 55 54 48
3 56 50 51
3 55 50 56
3 57 58 59
3 53 57 59
3 52 57 53
3 52 1 57
3 52 2 1
3 3 2 52
3 54 3 52
3 5 3 54
3 55 5 54
3 55 7 5
3 55 56 7
3 56 60 7
3 61 58 57
3 62 58 61
3 1 9 61
3 57 1 61
3 7 60 12
3 60 63 12
3 61 64 62
3 9 64 61
3 9 13 64
3 13 65 64
3 14 66 13
3 13 66 65
3 15 67 14
3 14 67 66
3 63 15 12
3 67 15 63
3 68 69 70
3 68 71 72
3 70 71 68
3 71 73 72
3 74 69 68
3 75 69 74
3 18 17 74
3 18 74 72
3 72 74 68
3 72 73 76
3 72 76 18
3 18 76 19
3 21 19 77
3 19 76 77
3 77 23 21
3 78 23 77
3 79 75 74
3 80 75 79
3 17 25 79
3 74 17 79
3 23 78 81
3 28 23 81
3 81 30 28
3 82 30 81
3 83 80 79
3 84 80 83
3 25 32 83
3 79 25 83
3 85 86 36
3 85 36 82
3 82 36 30
3 85 87 86
3 83 88 84
3 89 90 88
3 37 89 88
3 37 88 83
3 37 83 32
3 37 39 89
3 86 91 42
3 36 86 42
3 92 86 87
3 91 86 92
3 89 93 90
3 94 95 93
3 43 94 93
3 43 93 89
3 43 89 39
3 43 44 96
3 94 43 96
3 44 46 96
3 42 91 47
3 91 92 97
3 91 97 47
3 47 97 49
3 97 51 49
3 98 51 97
3 99 95 94
3 100 95 99
3 96 101 94
3 101 99 94
3 46 53 101
3 96 46 101
3 51 98 56
3 98 102 56
3 99 103 100
3 59 58 104
3 59 104 99
3 59 99 101
3 99 104 103
3 53 59 101
3 56 102 60
3 102 105 60
3 58 62 104
3 104 62 106
3 60 105 63
3 105 107 63
3 62 108 106
3 64 108 62
3 109 110 108
3 109 108 65
3 65 108 64
3 65 66 111
3 109 65 111
3 66 67 112
3 111 66 112
3 67 113 112
3 67 63 113
3 63 107 113
3 109 114 110
3 111 114 109
3 115 114 111
3 112 115 111
3 116 115 112
3 113 116 112
3 70 117 118
3 69 117 70
3 71 70 119
3 70 118 119
3 73 120 121
3 73 71 120
3 71 119 120
3 120 122 121
3 69 75 117
3 117 75 123
3 73 121 76
3 121 122 124
3 121 124 76
3 76 124 77
3 124 78 77
3 125 78 124
3 75 80 123
3 123 80 126
3 78 125 127
3 81 78 127
3 127 82 81
3 128 82 127
3 80 84 126
3 126 84 129
3 82 128 130
3 85 82 130
3 130 87 85
3 131 87 130
3 132 84 88
3 132 133 84
3 133 129 84
3 88 90 132
3 87 131 92
3 131 134 92
3 135 133 132
3 136 133 135
3 90 93 137
3 90 137 132
3 132 137 135
3 93 95 137
3 92 134 138
3 97 92 138
3 138 98 97
3 139 98 138
3 135 140 136
3 140 141 142
3 140 135 141
3 135 137 141
3 95 100 141
3 137 95 141
3 98 139 102
3 139 143 102
3 141 144 142
3 145 146 144
3 103 145 144
3 103 144 141
3 103 141 100
3 103 104 145
3 147 148 105
3 147 105 143
3 143 105 102
3 147 149 148
3 150 146 145
3 151 146 150
3 104 106 150
3 145 104 150
3 148 152 107
3 105 148 107
3 153 148 149
3 152 148 153
3 150 154 151
3 106 154 150
3 106 108 154
3 108 155 154
3 155 108 110
3 156 155 110
3 152 157 113
3 107 152 113
3 158 152 153
3 157 152 158
3 110 159 156
3 114 159 110
3 115 160 114
3 114 160 159
3 116 161 115
3 115 161 160
3 157 116 113
3 157 162 116
3 162 161 116
3 158 162 157
3 163 164 165
3 163 166 167
3 165 166 163
3 167 168 169
3 166 168 167
3 168 170 169
3 118 164 163
3 118 117 164
3 117 171 164
3 119 118 163
3 167 119 163
3 120 119 167
3 169 120 167
3 169 122 120
3 169 170 122
3 170 172 122
3 117 123 171
3 171 123 173
3 122 172 174
3 124 122 174
3 174 125 124
3 175 125 174
3 123 126 173
3 173 126 176
3 125 175 177
3 127 125 177
3 177 128 127
3 178 128 177
3 126 129 176
3 176 129 179
3 128 178 180
3 130 128 180
3 180 131 130
3 181 131 180
3 129 133 179
3 179 133 182
3 131 181 134
3 181 183 134
3 133 136 182
3 182 136 184
3 134 183 185
3 138 134 185
3 185 139 138
3 186 139 185
3 187 136 140
3 187 188 136
3 188 184 136
3 140 142 187
3 189 190 143
3 189 143 186
3 186 143 139
3 189 191 190
3 187 192 188
3 193 194 192
3 144 193 192
3 144 192 187
3 144 187 142
3 144 146 193
3 143 190 147
3 190 149 147
3 190 191 149
3 191 195 149
3 196 194 193
3 197 194 196
3 146 151 196
3 193 146 196
3 149 195 153
3 195 198 153
3 196 199 197
3 151 199 196
3 151 154 199
3 154 200 199
3 201 202 200
3 201 200 155
3 155 200 154
3 155 156 201
3 153 198 158
3 198 203 158
3 201 204 202
3 156 204 201
3 156 159 204
3 159 205 204
3 160 206 159
3 159 206 205
3 161 207 160
3 160 207 206
3 162 208 161
3 161 208 207
3 203 162 158
3 208 162 203
3 165 209 210
3 164 209 165
3 166 165 211
3 165 210 211
3 168 166 212
3 166 211 212
3 212 170 168
3 213 170 212
3 164 171 209
3 209 171 214
3 170 213 172
3 213 215 172
3 171 173 214
3 214 173 216
3 172 215 217
3 174 172 217
3 217 175 174
3 218 175 217
3 173 176 216
3 216 176 219
3 175 218 220
3 177 175 220
3 220 178 177
3 221 178 220
3 176 179 219
3 219 179 222
3 178 221 223
3 180 178 223
3 223 181 180
3 224 181 223
3 179 182 222
3 222 182 225
3 181 224 183
3 224 226 183
3 182 184 225
3 225 184 227
3 183 226 228
3 185 183 228
3 228 186 185
3 229 186 228
3 184 188 227
3 227 188 230
3 186 229 231
3 189 186 231
3 231 191 189
3 232 191 231
3 188 233 230
3 192 233 188
3 233 192 194
3 234 233 194
3 191 232 195
3 232 235 195
3 194 197 234
3 234 197 236
3 195 235 198
3 235 237 198
3 197 238 236
3 199 238 197
3 200 239 199
3 199 239 238
3 239 200 202
3 240 239 202
3 198 237 203
3 237 241 203
3 202 242 240
3 204 242 202
3 205 243 204
3 204 243 242
3 206 244 205
3 205 244 243
3 207 245 206
3 206 245 244
3 208 246 207
3 207 246 245
3 241 208 203
3 246 208 241
3 247 248 249
3 247 250 251
3 249 250 247
3 251 252 253
3 250 252 251
3 252 254 253
3 210 248 247
3 210 209 248
3 209 255 248
3 211 210 247
3 251 211 247
3 212 211 251
3 253 212 251
3 253 213 212
3 253 254 213
3 254 256 213
3 209 214 255
3 255 214 257
3 213 256 215
3 256 258 215
3 214 216 257
3 257 216 259
3 215 258 260
3 217 215 260
3 260 218 217
3 261 218 260
3 216 219 259
3 259 219 262
3 218 261 263
3 220 218 263
3 263 221 220
3 264 221 263
3 219 222 262
3 262 222 265
3 221 264 266
3 223 221 266
3 266 224 223
3 267 224 266
3 222 225 265
3 265 225 268
3 224 267 226
3 267 269 226
3 225 227 268
3 268 227 270
3 226 269 271
3 228 226 271
3 271 229 228
3 272 229 271
3 227 230 270
3 270 230 273
3 274 231 229
3 274 229 275
3 275 229 272
3 231 274 232
3 230 276 273
3 233 276 230
3 276 233 234
3 277 276 234
3 274 275 278
3 278 232 274
3 278 279 232
3 279 235 232
3 234 236 277
3 277 236 280
3 235 279 237
3 279 281 237
3 236 282 280
3 238 282 236
3 239 283 238
3 238 283 282
3 283 239 240
3 284 283 240
3 237 281 241
3 281 285 241
3 240 286 284
3 242 286 240
3 243 287 242
3 242 287 286
3 244 288 243
3 243 288 287
3 245 289 244
3 244 289 288
3 246 290 245
3 245 290 289
3 285 246 241
3 290 246 285
3 249 291 292
3 248 291 249
3 250 249 293
3 249 292 293
3 252 250 294
3 250 293 294
3 294 254 252
3 295 254 294
3 248 255 291
3 291 255 296
3 297 298 256
3 297 256 295
3 295 256 254
3 297 299 298
3 255 257 296
3 296 257 300
3 298 301 258
3 256 298 258
3 302 298 299
3 301 298 302
3 257 259 300
3 300 259 303
3 258 301 260
3 261 304 305
3 260 304 261
3 260 302 304
3 260 301 302
3 304 306 305
3 259 262 303
3 303 262 307
3 261 305 263
3 305 264 263
3 305 306 264
3 306 308 264
3 262 265 307
3 307 265 309
3 264 308 310
3 266 264 310
3 310 267 266
3 311 267 310
3 265 268 309
3 309 268 312
3 313 314 269
3 313 269 311
3 311 269 267
3 313 315 314
3 268 270 312
3 312 270 316
3 269 314 271
3 314 272 271
3 314 315 272
3 315 317 272
3 270 273 316
3 316 273 318
3 272 317 275
3 317 319 275
3 273 320 318
3 276 320 273
3 320 276 277
3 321 320 277
3 275 319 322
3 278 275 322
3 322 279 278
3 323 279 322
3 277 280 321
3 321 280 324
3 279 323 281
3 323 325 281
3 280 326 324
3 282 326 280
3 283 327 282
3 282 327 326
3 327 283 284
3 328 327 284
3 281 325 285
3 325 329 285
3 284 330 328
3 286 330 284
3 287 331 286
3 286 331 330
3 288 332 287
3 287 332 331
3 289 333 288
3 288 333 332
3 290 334 289
3 289 334 333
3 329 290 285
3 334 290 329
3 335 336 337
3 335 338 339
3 337 338 335
3 338 340 339
3 292 291 341
3 335 342 336
3 335 292 342
3 335 293 292
3 341 342 292
3 294 293 335
3 339 294 335
3 295 343 344
3 294 343 295
3 294 340 343
3 294 339 340
3 343 345 344
3 341 346 347
3 341 291 346
3 291 296 346
3 342 341 347
3 295 344 297
3 344 299 297
3 344 345 299
3 345 348 299
3 296 300 346
3 346 300 349
3 299 348 302
3 348 350 302
3 300 303 349
3 349 303 351
3 302 350 352
3 304 302 352
3 352 306 304
3 353 306 352
3 303 307 351
3 351 307 354
3 355 356 308
3 355 308 353
3 353 308 306
3 355 357 356
3 307 309 354
3 354 309 358
3 308 356 310
3 311 359 360
3 310 359 311
3 310 357 359
3 310 356 357
3 359 361 360
3 309 312 358
3 358 312 362
3 311 360 313
3 360 315 313
3 360 361 315
3 361 363 315
3 312 316 362
3 362 316 364
3 315 363 317
3 363 365 317
3 316 318 364
3 364 318 366
3 317 365 319
3 365 367 319
3 318 368 366
3 320 368 318
3 368 320 321
3 369 368 321
3 370 322 319
3 370 319 371
3 371 319 367
3 322 370 323
3 372 324 373
3 372 369 324
3 369 321 324
3 372 373 374
3 375 370 371
3 376 375 371
3 323 375 325
3 370 375 323
3 324 326 373
3 373 377 374
3 373 326 377
3 326 327 377
3 328 378 379
3 328 379 327
3 327 379 377
3 378 380 381
3 379 378 381
3 380 382 383
3 381 380 383
3 382 384 385
3 383 382 385
3 376 385 384
3 376 384 375
3 375 384 386
3 325 386 329
3 375 386 325
3 328 330 378
3 331 378 330
3 380 378 331
3 332 380 331
3 382 380 332
3 333 382 332
3 384 382 333
3 334 384 333
3 386 384 334
3 329 386 334
3 387 388 389
3 387 390 391
3 389 390 387
3 390 392 391
3 337 388 387
3 337 336 388
3 336 393 388
3 338 337 387
3 391 338 387
3 340 394 395
3 338 394 340
3 338 392 394
3 338 391 392
3 394 396 395
3 336 342 393
3 393 342 397
3 340 395 343
3 395 345 343
3 395 396 345
3 396 398 345
3 347 399 400
3 346 399 347
3 397 342 347
3 400 397 347
3 401 402 348
3 401 348 398
3 398 348 345
3 401 403 402
3 346 349 399
3 399 349 404
3 402 405 350
3 348 402 350
3 406 402 403
3 405 402 406
3 349 351 404
3 404 351 407
3 350 405 352
3 353 408 409
3 352 408 353
3 352 406 408
3 352 405 406
3 408 410 409
3 351 354 407
3 407 354 411
3 353 409 355
3 357 412 413
3 355 412 357
3 355 410 412
3 355 409 410
3 412 414 413
3 354 358 411
3 411 358 415
3 357 413 359
3 413 361 359
3 413 414 361
3 414 416 361
3 358 362 415
3 415 362 417
3 361 416 363
3 416 418 363
3 362 364 417
3 417 364 419
3 420 421 365
3 420 365 418
3 418 365 363
3 420 422 421
3 423 366 424
3 423 419 366
3 419 364 366
3 423 424 425
3 421 426 367
3 365 421 367
3 427 421 422
3 426 421 427
3 366 368 424
3 369 428 429
3 368 369 429
3 368 429 425
3 368 425 424
3 429 428 430
3 426 431 371
3 367 426 371
3 432 426 427
3 431 426 432
3 369 372 428
3 374 433 434
3 372 374 434
3 372 434 430
3 372 430 428
3 434 433 435
3 431 436 437
3 431 437 371
3 371 437 376
3 432 436 431
3 374 377 433
3 433 438 435
3 433 377 438
3 377 379 438
3 381 439 379
3 379 439 438
3 383 440 381
3 381 440 439
3 385 441 383
3 383 441 440
3 437 385 376
3 441 385 437
3 442 443 444
3 442 445 446
3 444 445 442
3 446 447 448
3 445 447 446
3 447 449 448
3 389 443 442
3 389 388 443
3 388 450 443
3 390 389 442
3 446 390 442
3 392 390 446
3 392 446 451
3 451 446 448
3 452 448 449
3 451 448 452
3 388 393 450
3 450 393 453
3 392 451 394
3 396 454 455
3 394 454 396
3 394 452 454
3 394 451 452
3 454 456 455
3 393 397 453
3 453 397 457
3 455 458 398
3 396 455 398
3 459 455 456
3 458 455 459
3 400 460 461
3 399 460 400
3 457 397 400
3 461 457 400
3 398 458 401
3 403 462 463
3 401 462 403
3 401 459 462
3 401 458 459
3 462 464 463
3 399 404 460
3 460 404 465
3 463 466 406
3 403 463 406
3 467 463 464
3 466 463 467
3 404 407 465
3 465 407 468
3 406 466 408
3 410 469 470
3 408 469 410
3 408 467 469
3 408 466 467
3 469 471 470
3 407 411 468
3 468 411 472
3 410 470 412
3 470 414 412
3 470 471 414
3 471 473 414
3 411 415 472
3 472 415 474
3 475 476 416
3 475 416 473
3 473 416 414
3 475 477 476
3 478 417 479
3 478 474 417
3 474 415 417
3 478 479 480
3 476 481 418
3 416 476 418
3 482 476 477
3 481 476 482
3 479 419 483
3 417 419 479
3 484 480 479
3 483 484 479
3 418 481 420
3 481 422 420
3 481 482 422
3 482 485 422
3 419 423 483
3 483 423 425
3 483 425 484
3 484 425 486
3 422 485 427
3 485 487 427
3 425 488 486
3 429 488 425
3 488 429 430
3 489 488 430
3 427 487 432
3 487 490 432
3 430 491 489
3 434 491 430
3 435 492 493
3 435 493 434
3 434 493 491
3 493 492 494
3 436 495 496
3 437 436 496
3 490 436 432
3 495 436 490
3 435 438 492
3 492 497 494
3 492 438 497
3 438 439 497
3 440 498 439
3 439 498 497
3 441 499 440
3 440 499 498
3 496 441 437
3 499 441 496
3 444 500 501
3 443 500 444
3 445 444 502
3 444 501 502
3 447 445 503
3 445 502 503
3 503 449 447
3 504 449 503
3 443 450 500
3 500 450 505
3 506 507 452
3 506 452 504
3 504 452 449
3 506 508 507
3 450 453 505
3 505 453 509
3 452 507 454
3 456 510 511
3 454 510 456
3 454 508 510
3 454 507 508
3 510 512 511
3 453 457 509
3 509 457 513
3 511 514 459
3 456 511 459
3 515 511 512
3 514 511 515
3 461 460 516
3 461 516 517
3 461 517 457
3 457 517 513
3 459 514 462
3 464 518 519
3 462 518 464
3 462 515 518
3 462 514 515
3 518 520 519
3 516 521 522
3 516 460 521
3 460 465 521
3 517 516 522
3 519 523 467
3 464 519 467
3 524 519 520
3 523 519 524
3 465 468 521
3 521 468 525
3 467 523 469
3 471 526 527
3 469 526 471
3 469 524 526
3 469 523 524
3 526 528 527
3 468 472 525
3 525 472 529
3 527 530 473
3 471 527 473
3 531 527 528
3 530 527 531
3 532 474 533
3 532 529 474
3 529 472 474
3 532 533 534
3 473 530 475
3 530 477 475
3 530 531 477
3 531 535 477
3 474 478 533
3 533 478 480
3 533 480 534
3 534 480 536
3 477 535 482
3 535 537 482
3 538 484 539
3 538 536 484
3 536 480 484
3 538 539 540
3 482 537 485
3 537 541 485
3 539 486 542
3 484 486 539
3 543 540 539
3 542 543 539
3 485 541 487
3 541 544 487
3 486 488 542
3 489 545 546
3 488 489 546
3 488 546 543
3 488 543 542
3 545 547 548
3 546 545 548
3 548 547 549
3 550 551 552
3 550 544 551
3 550 490 544
3 490 487 544
3 489 491 545
3 493 545 491
3 547 545 493
3 494 553 554
3 493 494 554
3 493 554 549
3 493 549 547
3 553 555 556
3 554 553 556
3 555 557 558
3 556 555 558
3 552 558 557
3 550 552 557
3 550 557 496
3 550 496 495
3 490 550 495
3 494 497 553
3 498 553 497
3 555 553 498
3 499 555 498
3 557 555 499
3 496 557 499
3 559 560 561
3 559 562 563
3 561 562 559
3 563 564 565
3 562 564 563
3 565 566 567
3 564 566 565
3 566 568 567
3 501 560 559
3 501 500 560
3 500 569 560
3 502 501 559
3 563 502 559
3 503 502 563
3 565 503 563
3 504 503 565
3 504 565 570
3 570 565 567
3 571 567 568
3 570 567 571
3 500 505 569
3 569 505 572
3 504 570 506
3 508 573 574
3 506 573 508
3 506 571 573
3 506 570 571
3 573 575 574
3 505 509 572
3 572 509 576
3 508 574 510
3 574 512 510
3 574 575 512
3 575 577 512
3 509 513 576
3 576 513 578
3 579 580 515
3 579 515 577
3 577 515 512
3 579 581 580
3 513 517 578
3 578 517 582
3 515 580 518
3 580 520 518
3 580 581 520
3 581 583 520
3 522 521 584
3 522 584 585
3 522 585 517
3 517 585 582
3 520 583 524
3 583 586 524
3 584 525 587
3 521 525 584
3 588 585 584
3 587 588 584
3 524 586 589
3 526 524 589
3 589 528 526
3 590 528 589
3 587 529 591
3 525 529 587
3 592 588 587
3 591 592 587
3 528 590 531
3 590 593 531
3 529 532 591
3 591 532 534
3 591 534 592
3 592 534 594
3 531 593 535
3 593 595 535
3 596 536 597
3 596 594 536
3 594 534 536
3 597 598 599
3 596 597 599
3 599 598 600
3 535 595 537
3 595 601 537
3 536 538 597
3 540 597 538
3 540 602 597
3 602 598 597
3 603 600 598
3 602 603 598
3 604 605 606
3 604 601 605
3 604 541 601
3 541 537 601
3 602 543 607
3 540 543 602
3 608 603 602
3 608 602 609
3 609 602 607
3 608 609 610
3 611 604 606
3 612 611 606
3 541 611 544
3 604 611 541
3 543 546 607
3 548 607 546
3 609 607 548
3 609 548 549
3 609 549 610
3 610 549 613
3 551 611 612
3 551 612 552
3 552 612 614
3 544 611 551
3 549 615 613
3 554 615 549
3 556 616 554
3 554 616 615
3 558 617 556
3 556 617 616
3 614 558 552
3 617 558 614
3 618 619 620
3 618 621 622
3 620 621 618
3 622 623 624
3 621 623 622
3 623 625 624
3 626 619 618
3 627 619 626
3 622 628 618
3 628 626 618
3 624 629 622
3 629 628 622
3 630 624 625
3 630 631 624
3 631 629 624
3 630 632 631
3 561 633 634
3 560 633 561
3 627 626 562
3 627 562 634
3 634 562 561
3 564 562 626
3 628 564 626
3 566 564 628
3 629 566 628
3 568 566 629
3 568 629 635
3 635 629 631
3 636 631 632
3 636 637 631
3 637 635 631
3 636 638 637
3 560 569 633
3 633 569 639
3 635 640 571
3 568 635 571
3 637 641 635
3 641 640 635
3 642 637 638
3 641 637 642
3 569 572 639
3 639 572 643
3 571 640 573
3 575 573 640
3 575 640 644
3 644 640 641
3 645 641 642
3 644 641 645
3 572 576 643
3 643 576 646
3 644 647 577
3 575 644 577
3 648 644 645
3 647 644 648
3 576 578 646
3 646 578 649
3 577 647 579
3 581 650 651
3 579 650 581
3 579 648 650
3 579 647 648
3 650 652 651
3 578 582 649
3 649 582 653
3 651 654 583
3 581 651 583
3 655 651 652
3 654 651 655
3 582 585 653
3 653 585 656
3 654 657 586
3 583 654 586
3 658 654 655
3 657 654 658
3 585 588 656
3 656 588 659
3 586 657 589
3 657 590 589
3 657 658 590
3 658 660 590
3 661 592 662
3 661 659 592
3 659 588 592
3 661 662 663
3 590 660 593
3 660 664 593
3 662 594 665
3 592 594 662
3 666 663 662
3 665 666 662
3 593 664 595
3 664 667 595
3 594 596 665
3 665 668 666
3 665 596 668
3 596 599 668
3 668 599 600
3 669 668 600
3 595 667 601
3 667 670 601
3 671 603 672
3 671 669 603
3 669 600 603
3 671 672 673
3 605 674 675
3 606 605 675
3 670 605 601
3 674 605 670
3 603 608 672
3 610 676 677
3 608 610 677
3 608 677 673
3 608 673 672
3 676 678 679
3 677 676 679
3 678 680 681
3 679 678 681
3 680 675 681
3 680 612 675
3 612 606 675
3 676 613 682
3 610 613 676
3 678 676 683
3 683 676 682
3 680 678 684
3 684 678 683
3 612 684 614
3 680 684 612
3 613 615 682
3 616 682 615
3 683 682 616
3 617 683 616
3 684 683 617
3 614 684 617
3 685 686 687
3 685 688 689
3 687 688 685
3 689 690 691
3 688 690 689
3 690 692 691
3 620 693 694
3 619 693 620
3 686 685 621
3 686 621 694
3 694 621 620
3 623 621 685
3 689 623 685
3 625 623 689
3 625 689 695
3 695 689 691
3 696 691 692
3 696 697 691
3 697 695 691
3 696 698 697
3 619 627 693
3 693 627 699
3 625 695 630
3 632 630 695
3 632 695 700
3 700 695 697
3 701 697 698
3 700 697 701
3 634 633 702
3 634 702 703
3 634 703 627
3 627 703 699
3 632 700 636
3 700 638 636
3 700 701 638
3 701 704 638
3 702 639 705
3 633 639 702
3 706 703 702
3 705 706 702
3 638 704 642
3 704 707 642
3 705 643 708
3 639 643 705
3 709 706 705
3 708 709 705
3 642 707 645
3 707 710 645
3 708 711 712
3 708 643 711
3 643 646 711
3 709 708 712
3 645 710 648
3 710 713 648
3 646 649 711
3 711 649 714
3 648 713 715
3 650 648 715
3 715 652 650
3 716 652 715
3 717 653 718
3 717 714 653
3 714 649 653
3 717 718 719
3 652 716 655
3 716 720 655
3 718 656 721
3 653 656 718
3 722 719 718
3 721 722 718
3 655 720 658
3 720 723 658
3 721 659 724
3 656 659 721
3 725 722 721
3 724 725 721
3 658 723 660
3 723 726 660
3 659 661 724
3 663 727 728
3 661 663 728
3 661 728 725
3 661 725 724
3 728 727 729
3 660 726 664
3 726 730 664
3 727 666 731
3 663 666 727
3 732 729 727
3 731 732 727
3 664 730 667
3 730 733 667
3 666 668 731
3 669 734 735
3 668 669 735
3 668 735 732
3 668 732 731
3 734 736 737
3 735 734 737
3 736 738 739
3 737 736 739
3 738 740 741
3 739 738 741
3 740 742 743
3 741 740 743
3 742 733 743
3 742 670 733
3 670 667 733
3 669 671 734
3 673 734 671
3 673 744 734
3 744 736 734
3 738 736 745
3 745 736 744
3 740 738 746
3 746 738 745
3 674 746 675
3 674 742 746
3 742 740 746
3 670 742 674
3 673 677 744
3 679 744 677
3 745 744 679
3 681 745 679
3 746 745 681
3 675 746 681
3 747 748 749
3 747 750 751
3 749 750 747
3 751 752 753
3 750 752 751
3 752 754 753
3 755 748 747
3 756 748 755
3 751 757 747
3 757 755 747
3 753 758 751
3 758 757 751
3 759 753 754
3 758 753 759
3 760 756 755
3 761 756 760
3 757 762 755
3 762 760 755
3 758 763 757
3 763 762 757
3 764 758 759
3 763 758 764
3 765 766 767
3 761 765 767
3 761 760 765
3 760 768 765
3 762 769 760
3 769 768 760
3 770 763 771
3 770 769 763
3 769 762 763
3 764 771 763
3 772 766 765
3 773 766 772
3 768 774 765
3 774 772 765
3 769 775 768
3 775 774 768
3 776 769 770
3 775 769 776
3 687 777 778
3 686 777 687
3 773 772 688
3 773 688 778
3 778 688 687
3 690 688 772
3 774 690 772
3 692 690 774
3 692 774 779
3 779 774 775
3 780 775 776
3 779 775 780
3 694 781 782
3 693 781 694
3 777 686 694
3 782 777 694
3 692 779 696
3 779 698 696
3 779 780 698
3 780 783 698
3 693 699 781
3 781 699 784
3 698 783 701
3 783 785 701
3 699 703 784
3 784 703 786
3 701 785 704
3 785 787 704
3 703 706 786
3 786 706 788
3 704 787 707
3 787 789 707
3 706 709 788
3 788 709 790
3 707 789 710
3 789 791 710
3 712 711 792
3 712 792 793
3 712 793 709
3 709 793 790
3 710 791 713
3 791 794 713
3 792 714 795
3 711 714 792
3 796 793 792
3 795 796 792
3 713 794 797
3 715 713 797
3 797 716 715
3 798 716 797
3 714 717 795
3 719 799 800
3 717 719 800
3 717 800 796
3 717 796 795
3 800 799 801
3 716 798 720
3 798 802 720
3 799 722 803
3 719 722 799
3 804 801 799
3 803 804 799
3 720 802 723
3 802 805 723
3 803 725 806
3 722 725 803
3 807 804 803
3 806 807 803
3 808 809 810
3 808 805 809
3 808 726 805
3 726 723 805
3 725 728 806
3 729 811 812
3 728 729 812
3 728 812 807
3 728 807 806
3 812 811 813
3 814 808 810
3 815 814 810
3 726 814 730
3 808 814 726
3 811 732 816
3 729 732 811
3 817 813 811
3 817 811 818
3 818 811 816
3 818 819 820
3 817 818 820
3 819 821 822
3 820 819 822
3 815 822 821
3 815 821 814
3 814 821 823
3 730 823 733
3 814 823 730
3 732 735 816
3 737 816 735
3 818 816 737
3 739 818 737
3 819 818 739
3 741 819 739
3 821 819 741
3 743 821 741
3 823 821 743
3 733 823 743
3 749 824 825
3 748 824 749
3 750 749 826
3 749 825 826
3 752 750 827
3 750 826 827
3 827 754 752
3 828 754 827
3 748 756 824
3 824 756 829
3 754 828 759
3 828 830 759
3 756 761 829
3 829 761 831
3 759 830 764
3 830 832 764
3 767 833 834
3 766 833 767
3 831 761 767
3 834 831 767
3 771 835 836
3 770 771 836
3 832 771 764
3 835 771 832
3 766 773 833
3 833 773 837
3 770 836 776
3 836 838 776
3 778 839 840
3 777 839 778
3 837 773 778
3 840 837 778
3 776 838 780
3 838 841 780
3 782 781 842
3 782 842 843
3 782 843 777
3 777 843 839
3 780 841 783
3 841 844 783
3 842 784 845
3 781 784 842
3 846 843 842
3 845 846 842
3 783 844 785
3 844 847 785
3 845 786 848
3 784 786 845
3 849 846 845
3 848 849 845
3 785 847 787
3 847 850 787
3 848 788 851
3 786 788 848
3 852 849 848
3 851 852 848
3 787 850 789
3 850 853 789
3 851 790 854
3 788 790 851
3 855 852 851
3 854 855 851
3 789 853 791
3 853 856 791
3 854 793 857
3 790 793 854
3 858 855 854
3 858 854 859
3 859 854 857
3 858 859 860
3 791 856 794
3 856 861 794
3 857 796 862
3 793 796 857
3 859 857 863
3 863 857 862
3 864 860 859
3 863 864 859
3 865 797 794
3 865 794 866
3 866 794 861
3 797 865 798
3 796 800 862
3 801 862 800
3 801 867 862
3 867 863 862
3 868 864 863
3 867 868 863
3 869 865 866
3 870 869 866
3 798 869 802
3 865 869 798
3 867 804 871
3 801 804 867
3 872 868 867
3 871 872 867
3 873 869 870
3 874 873 870
3 802 873 805
3 869 873 802
3 871 807 875
3 804 807 871
3 876 872 871
3 876 871 877
3 877 871 875
3 877 878 879
3 876 877 879
3 878 880 881
3 879 878 881
3 874 881 880
3 873 874 880
3 873 880 810
3 873 810 809
3 805 873 809
3 807 812 875
3 813 875 812
3 813 882 875
3 882 877 875
3 878 877 883
3 883 877 882
3 880 878 884
3 884 878 883
3 810 884 815
3 880 884 810
3 813 817 882
3 820 882 817
3 883 882 820
3 822 883 820
3 884 883 822
3 815 884 822
3 825 885 886
3 824 885 825
3 826 825 887
3 825 886 887
3 827 826 888
3 826 887 888
3 888 828 827
3 889 828 888
3 824 829 885
3 885 829 890
3 828 889 830
3 889 891 830
3 829 831 890
3 890 831 892
3 830 891 832
3 891 893 832
3 834 833 894
3 895 892 831
3 895 831 894
3 895 894 896
3 894 831 834
3 896 897 898
3 895 896 898
3 897 836 835
3 897 835 898
3 898 835 899
3 893 835 832
3 899 835 893
3 894 900 901
3 894 833 900
3 833 837 900
3 896 894 901
3 902 896 901
3 897 896 902
3 903 897 902
3 903 836 897
3 903 904 836
3 904 838 836
3 840 839 905
3 840 905 906
3 840 906 837
3 837 906 900
3 838 904 841
3 904 907 841
3 905 843 908
3 839 843 905
3 909 906 905
3 908 909 905
3 841 907 844
3 907 910 844
3 908 846 911
3 843 846 908
3 912 909 908
3 911 912 908
3 844 910 847
3 910 913 847
3 911 849 914
3 846 849 911
3 915 912 911
3 914 915 911
3 847 913 850
3 913 916 850
3 914 852 917
3 849 852 914
3 918 915 914
3 917 918 914
3 850 916 853
3 916 919 853
3 917 855 920
3 852 855 917
3 921 918 917
3 920 921 917
3 853 919 856
3 919 922 856
3 855 858 920
3 920 858 860
3 920 860 921
3 921 860 923
3 856 922 861
3 922 924 861
3 925 864 926
3 925 923 864
3 923 860 864
3 926 927 928
3 925 926 928
3 927 929 930
3 928 927 930
3 929 924 930
3 929 866 924
3 866 861 924
3 926 868 931
3 864 868 926
3 927 926 932
3 932 926 931
3 929 927 933
3 933 927 932
3 866 933 870
3 929 933 866
3 931 872 934
3 868 872 931
3 932 931 935
3 935 931 934
3 933 932 936
3 936 932 935
3 870 936 874
3 933 936 870
3 872 876 934
3 879 934 876
3 935 934 879
3 881 935 879
3 936 935 881
3 874 936 881
3 886 885 937
3 886 938 887
3 937 938 886
3 887 939 888
3 938 939 887
3 888 939 889
3 937 890 940
3 885 890 937
3 938 937 941
3 941 937 940
3 939 938 942
3 942 938 941
3 889 942 891
3 939 942 889
3 940 892 943
3 890 892 940
3 941 940 944
3 944 940 943
3 942 941 945
3 945 941 944
3 891 945 893
3 942 945 891
3 892 895 943
3 898 943 895
3 944 943 898
3 899 944 898
3 945 944 899
3 893 945 899
3 901 900 946
3 901 947 902
3 946 947 901
3 902 948 903
3 947 948 902
3 903 948 904
3 946 906 949
3 900 906 946
3 947 946 950
3 950 946 949
3 948 947 951
3 951 947 950
3 904 951 907
3 948 951 904
3 949 909 952
3 906 909 949
3 950 949 953
3 953 949 952
3 951 950 954
3 954 950 953
3 907 954 910
3 951 954 907
3 952 912 955
3 909 912 952
3 953 952 956
3 956 952 955
3 954 953 957
3 957 953 956
3 910 957 913
3 954 957 910
3 955 915 958
3 912 915 955
3 956 955 959
3 959 955 958
3 957 956 960
3 960 956 959
3 913 960 916
3 957 960 913
3 958 918 961
3 915 918 958
3 959 958 962
3 962 958 961
3 960 959 963
3 963 959 962
3 916 963 919
3 960 963 916
3 961 921 964
3 918 921 961
3 962 961 965
3 965 961 964
3 963 962 966
3 966 962 965
3 919 966 922
3 963 966 919
3 964 923 967
3 921 923 964
3 965 964 968
3 968 964 967
3 966 965 969
3 969 965 968
3 922 969 924
3 966 969 922
3 923 925 967
3 928 967 925
3 968 967 928
3 930 968 928
3 969 968 930
3 924 969 930
