# vtk DataFile Version 3.0
this file was written using fslvtkio
ASCII
DATASET POLYDATA
POINTS 642 float
147.076 143.218 109.847
145.289 146.503 111.705
147.457 148.519 113.501
149.244 145.704 111.546
147.891 146.704 109.297
148.066 143.506 112.523
146.795 145.595 113.595
146.454 148.742 110.507
144.907 145.418 109.257
149.119 148.603 112.006
149.353 146.886 114.36
145.117 142.809 111.525
145.342 147.301 109.525
146.32 146.055 108.774
147.141 148.05 109.562
147.867 149.215 111.145
148.725 147.87 110.467
146.018 144.112 112.37
147.441 144.434 113.18
146.452 142.113 112.075
147.895 146.137 114.62
148.861 145.355 113.378
148.777 146.102 110.294
147.353 144.894 109.228
148.31 144.246 110.601
148.997 144.371 112.06
147.262 142.632 111.208
145.59 147.753 110.992
146.866 149.25 112.036
146.088 147.788 112.806
145.995 145.999 112.679
146.838 147.141 114.194
145.79 142.054 110.471
145.824 143.983 109.197
144.591 143.949 110.236
145.015 144.747 111.368
144.529 146.206 110.349
149.932 146.401 113.003
149.518 148.252 113.593
149.871 147.326 111.716
148.475 148.204 114.901
148.307 149.218 113.012
145.797 146.759 108.987
146.754 147.148 109.026
146.254 147.812 109.377
147.607 147.445 109.357
147.13 146.41 108.84
145.561 145.709 108.893
145.023 146.449 109.281
145.894 148.083 109.888
146.814 148.537 110.005
147.567 148.797 110.227
147.969 148.04 109.885
148.333 148.654 110.668
148.348 147.264 109.907
147.184 149.242 110.801
148.501 148.885 111.531
148.979 148.242 111.162
146.691 144.095 112.825
146.92 143.195 112.567
146.125 142.989 112.388
147.291 142.664 112.401
147.762 143.994 112.814
147.134 144.97 113.519
146.493 144.926 112.883
145.554 143.362 111.942
145.629 142.226 112.005
148.489 145.676 114.155
148.106 144.886 113.297
147.788 145.384 113.966
148.512 144.518 112.863
149.182 146.074 113.897
148.669 146.612 114.509
147.352 145.826 114.297
148.13 145.476 109.673
147.944 144.539 109.851
148.651 145.156 110.373
147.675 143.719 110.279
147.255 144.076 109.506
147.643 145.788 109.173
148.452 146.432 109.778
149.073 145.932 110.952
148.875 144.863 111.008
148.72 144.168 111.325
147.862 143.419 110.918
148.195 143.399 111.612
147.157 142.832 110.56
149.304 145.008 111.802
148.613 143.889 112.34
147.791 142.838 111.865
146.188 148.599 111.498
146.287 148.635 112.361
145.915 147.882 111.836
146.546 148.279 113.139
147.109 148.909 112.752
146.654 149.123 111.277
145.888 148.312 110.67
145.396 147.158 111.394
145.92 147.165 112.221
146.146 146.942 112.799
146.549 147.629 113.559
146.448 146.681 113.475
147.298 147.908 113.975
145.595 146.226 112.227
146.491 145.832 113.056
146.772 146.358 114.032
145.829 142.956 109.73
145.085 143.769 109.572
145.195 142.839 110.413
144.572 144.66 109.606
145.329 144.685 109.076
146.496 143.528 109.446
146.515 142.538 110.082
145.326 142.043 111.243
144.733 143.249 110.915
144.595 144.257 110.824
144.345 145.079 110.152
144.648 145.426 110.829
144.534 145.907 109.729
145.062 143.783 111.467
145.099 145.637 111.584
144.885 146.338 111.039
150.032 147.345 113.437
149.857 147.822 112.66
150.078 146.894 112.456
149.537 147.989 111.874
149.383 148.526 112.786
149.57 147.592 114.175
149.721 146.585 113.739
149.594 146.025 112.2
149.657 146.569 111.644
148.499 148.999 114.123
149.026 148.977 113.366
149.09 148.285 114.37
148.71 149.035 112.515
147.873 149.008 113.451
147.991 148.413 114.32
148.862 147.434 114.797
146.908 145.513 108.816
146.039 145.033 108.861
146.606 144.345 109.084
146.527 142.198 110.801
146.004 141.829 111.373
147.08 142.211 111.775
149.359 147.601 111.102
148.858 147.026 110.43
149.335 146.709 111.025
149.384 145.44 112.456
149.132 144.708 112.781
149.455 145.845 113.203
144.755 146.808 109.843
145.333 147.721 110.226
144.96 147.001 110.706
145.441 145.34 112.071
145.988 145.108 112.531
145.449 144.342 111.926
147.597 149.249 112.596
147.324 149.445 111.521
148.14 149.267 112.056
148.151 147.276 114.737
147.272 146.637 114.487
147.704 147.761 114.66
146.261 146.981 108.984
146.46 147.458 109.16
146.028 147.303 109.162
146.682 147.904 109.385
146.882 147.615 109.251
146.494 146.658 108.892
146.106 146.489 108.861
145.614 147.109 109.228
145.806 147.522 109.37
147.153 147.318 109.18
146.921 146.771 108.911
147.344 146.976 109.035
146.696 146.265 108.783
147.306 147.722 109.43
147.737 147.082 109.267
147.519 146.624 109.034
145.688 146.295 108.877
145.398 146.674 109.101
145.33 146.173 109.057
145.176 146.944 109.313
145.932 145.944 108.805
145.225 145.645 109.032
145.011 145.961 109.235
145.983 147.952 109.559
146.502 148.201 109.603
146.327 148.363 109.871
146.913 148.285 109.703
145.605 147.692 109.649
146.164 148.439 110.135
146.605 148.652 110.222
147.74 148.393 110.053
148.165 148.403 110.234
147.956 148.738 110.434
148.49 148.281 110.494
148.352 148.055 110.164
147.56 148.069 109.731
147.36 148.41 109.883
147.747 149.053 110.645
148.081 148.963 110.81
148.206 147.703 109.883
147.749 147.763 109.604
148.019 147.37 109.54
148.512 147.629 110.185
148.147 146.99 109.555
147.195 148.643 110.069
147.397 149.061 110.493
146.988 148.897 110.377
147.558 149.293 110.906
146.801 149.019 110.624
148.385 148.797 111.072
148.661 148.435 110.864
148.724 148.568 111.306
148.824 148.085 110.79
148.162 149.002 111.312
148.839 148.744 111.723
149.06 148.446 111.545
146.804 143.679 112.683
146.522 143.077 112.488
146.415 143.597 112.529
146.305 142.543 112.34
146.68 142.621 112.398
147.132 143.77 112.825
147.052 144.131 112.984
146.35 144.035 112.59
146.106 143.589 112.385
147.057 142.904 112.497
147.339 143.588 112.728
147.516 143.319 112.6
147.507 144.121 112.945
146.869 142.347 112.232
147.687 143.128 112.455
147.907 143.75 112.685
146.951 144.496 113.168
146.57 144.478 112.881
146.819 144.895 113.172
146.254 144.518 112.62
147.306 144.684 113.339
146.956 145.26 113.536
146.708 145.283 113.185
145.839 143.229 112.202
145.894 142.575 112.277
145.54 142.765 112.11
146.057 142.184 112.099
145.815 143.721 112.169
145.312 143.035 111.809
145.296 142.506 111.853
148.337 145.321 113.731
147.957 145.12 113.613
148.15 145.522 114.088
147.645 144.9 113.581
147.757 144.618 113.271
148.484 145.168 113.442
148.628 145.457 113.742
148.202 145.832 114.401
147.897 145.695 114.329
147.898 144.387 113.051
148.322 144.771 113.092
148.193 144.188 112.91
148.68 144.989 113.144
148.343 143.956 112.712
148.825 145.764 113.997
148.589 146.092 114.38
148.935 146.256 114.23
148.304 146.407 114.557
148.983 145.655 113.636
149.276 146.431 114.16
149.03 146.657 114.442
147.615 145.578 114.147
147.445 145.084 113.724
147.229 145.41 113.863
147.648 145.972 114.479
147.051 145.655 113.937
148.068 144.999 109.743
148.324 144.835 110.06
148.41 145.297 110.002
148.485 144.707 110.409
148.221 144.454 110.209
147.701 144.764 109.543
147.786 145.146 109.464
148.474 145.728 109.964
148.696 145.604 110.269
147.894 144.147 110.046
147.608 144.345 109.625
147.566 143.904 109.843
147.3 144.508 109.358
148.011 144.042 110.392
147.393 143.485 110.052
147.24 143.655 109.704
147.891 145.574 109.393
148.307 145.947 109.697
148.038 146.108 109.44
148.582 146.196 110.014
147.486 145.304 109.184
147.774 146.273 109.205
148.177 146.546 109.507
148.909 145.544 110.602
148.774 144.985 110.668
149.038 145.385 110.939
148.597 144.541 110.756
148.927 145.981 110.598
149.145 145.757 111.248
149.113 145.22 111.251
148.28 143.805 111.092
148.077 143.399 111.259
148.499 143.772 111.46
147.812 143.05 111.387
147.638 143.061 111.114
148.128 143.861 110.799
148.465 144.15 110.967
148.783 144.154 111.689
148.581 143.823 111.772
147.517 143.125 110.781
147.826 143.64 110.61
147.457 143.285 110.425
147.241 142.77 110.915
147.176 143.058 110.201
148.793 144.471 111.114
148.981 144.521 111.58
149.096 144.862 111.399
149.178 144.644 111.924
149.232 145.334 111.624
148.41 143.625 111.967
147.982 143.065 111.698
148.153 143.344 112.067
147.521 142.678 111.499
148.77 144.092 112.144
148.351 143.646 112.412
147.949 143.164 112.227
146.268 148.648 111.918
146.091 148.278 112.118
146.013 148.257 111.681
146.019 147.95 112.297
146.139 148.197 112.498
146.491 148.951 112.1
146.478 148.952 111.761
145.934 148.19 111.296
145.812 147.889 111.427
146.341 148.474 112.744
146.606 148.841 112.506
146.767 148.603 112.866
146.905 149.062 112.366
146.263 148.094 112.925
146.993 148.419 113.267
147.214 148.703 113.096
146.425 148.897 111.405
146.063 148.461 111.116
146.293 148.685 110.967
145.749 148.07 110.884
146.746 149.263 111.674
146.548 148.929 110.89
146.171 148.528 110.562
145.738 147.514 111.57
145.897 147.582 112.061
145.683 147.217 111.819
146.014 147.573 112.457
145.475 147.498 111.189
145.412 146.876 111.611
145.66 146.844 111.968
146.212 147.316 113.218
146.411 147.165 113.522
146.317 146.877 113.152
146.618 146.994 113.772
146.676 147.361 113.802
146.297 147.711 113.232
146.117 147.392 112.865
146.167 146.506 112.818
146.328 146.444 113.074
146.867 147.752 113.744
146.515 148.005 113.382
146.91 148.122 113.59
147.017 147.563 114.096
147.375 148.258 113.726
146.041 147.158 112.539
146.026 146.592 112.527
145.832 146.697 112.225
145.844 146.152 112.462
145.474 146.405 111.984
146.476 146.278 113.238
146.585 146.543 113.733
146.563 146.095 113.589
146.779 146.752 114.089
146.235 145.97 112.904
146.7 145.752 113.291
146.716 145.925 113.85
145.414 143.26 109.675
145.159 143.284 109.953
145.45 142.855 110.012
144.933 143.398 110.261
144.873 143.74 109.924
145.432 143.744 109.382
145.741 143.454 109.47
145.778 142.524 110.058
145.489 142.428 110.4
144.831 144.168 109.59
145.19 144.181 109.264
144.917 144.643 109.295
145.561 144.283 109.132
144.56 144.253 109.904
144.679 145.055 109.415
145.095 145.077 109.122
146.152 143.221 109.534
146.173 142.68 109.83
146.574 143.001 109.684
146.121 142.299 110.158
146.107 143.676 109.355
146.884 143.369 109.548
146.822 142.864 109.958
145.235 142.415 110.797
144.963 143.012 110.671
145.015 142.622 111.08
144.666 143.535 110.532
145.51 142.024 110.827
145.129 142.381 111.442
144.938 143.078 111.202
144.436 144.652 110.501
144.481 145.203 110.514
144.593 144.842 110.793
144.549 145.768 110.587
144.441 145.628 110.293
144.4 144.521 110.171
144.502 144.084 110.53
144.775 144.563 111.052
144.78 145.03 111.063
144.443 145.454 109.958
144.406 144.8 109.867
144.568 145.278 109.67
144.459 146.011 110.047
144.703 145.67 109.473
144.606 143.719 110.82
144.836 144.055 111.103
144.822 143.522 111.228
145.003 144.28 111.351
145.095 143.301 111.529
144.905 145.468 111.21
144.749 145.858 110.951
144.965 145.977 111.339
144.699 146.244 110.701
145.023 145.173 111.408
145.152 146.084 111.685
145.066 146.426 111.378
149.983 147.626 113.055
150.037 147.378 112.582
150.089 147.145 112.93
150.034 147.212 112.152
149.958 147.605 112.212
149.756 148.017 113.13
149.833 147.817 113.465
150.083 146.888 113.238
150.075 146.693 112.786
149.757 147.958 112.233
149.638 148.155 112.754
149.51 148.355 112.275
149.482 148.372 113.184
149.763 147.675 111.846
149.301 148.28 111.914
149.262 148.659 112.39
149.854 147.481 113.782
149.935 146.948 113.611
149.769 147.059 114.06
149.897 146.538 113.374
149.587 147.889 113.872
149.51 147.221 114.372
149.562 146.656 114.063
149.905 146.47 112.351
149.914 146.758 112.075
149.647 146.308 111.922
149.871 146.947 111.737
149.828 146.265 112.592
149.407 145.877 111.857
149.374 146.154 111.562
148.785 149.066 113.815
149.07 148.701 113.907
148.855 148.724 114.309
149.312 148.329 113.973
149.261 148.637 113.521
148.686 149.132 113.354
148.485 149.148 113.61
148.556 148.733 114.577
148.809 148.394 114.693
149.216 148.692 113.09
148.847 149.034 113.028
149.063 148.854 112.649
148.548 149.157 112.85
148.916 148.848 112.233
148.223 149.008 113.75
148.23 148.773 114.293
147.964 148.73 113.926
148.255 148.464 114.65
148.124 149.178 113.248
147.671 148.708 113.485
147.79 148.471 113.873
148.957 147.954 114.654
149.313 147.937 114.254
149.259 147.535 114.557
148.703 147.871 114.863
149.114 147.125 114.624
146.469 145.25 108.773
146.35 144.706 108.911
146.723 144.932 108.868
146.206 144.156 109.103
145.949 144.499 108.979
146.184 145.539 108.766
146.608 145.76 108.732
147.093 145.136 108.978
146.962 144.656 109.068
145.687 144.785 108.993
145.821 145.4 108.818
145.407 145.218 108.97
147.01 145.97 108.772
147.322 145.61 108.96
147.461 146.16 108.976
146.955 144.238 109.239
146.498 143.912 109.255
146.925 143.786 109.446
146.267 141.944 111.044
146.518 141.914 111.526
146.734 142.092 111.289
146.81 142.109 111.919
146.242 141.866 111.781
145.893 141.808 110.881
146.194 142.061 110.536
146.897 142.402 111.044
147.189 142.36 111.501
145.873 141.977 111.819
145.674 141.859 111.259
145.36 142.176 111.677
146.54 142.329 110.435
146.886 142.527 110.733
146.882 142.677 110.284
147.537 142.534 111.858
147.282 142.451 112.133
147.715 142.851 112.26
149.117 147.318 110.752
149.082 146.852 110.729
149.428 147.16 111.063
149.03 146.428 110.653
148.862 146.573 110.369
148.83 147.464 110.47
149.008 147.699 110.808
149.677 147.438 111.366
149.682 147.014 111.32
148.644 146.676 110.144
148.601 147.183 110.214
148.424 146.848 109.805
149.16 147.917 111.107
149.536 147.765 111.504
149.274 148.124 111.514
149.58 146.688 111.356
149.146 146.343 110.959
149.297 146.239 111.283
149.297 145.044 112.629
149.269 145.262 112.968
149.419 145.643 112.812
149.177 145.5 113.261
149.008 145.057 113.067
149.184 144.493 112.425
149.323 144.865 112.291
149.64 145.969 112.726
149.703 146.105 113.102
148.845 144.626 112.879
148.925 144.29 112.528
148.632 144.096 112.671
149.388 145.185 112.121
149.498 145.781 112.37
149.335 145.585 111.97
149.665 146.204 113.461
149.314 145.873 113.54
149.481 146.264 113.834
144.972 147.28 110.032
145.084 147.344 110.418
144.773 146.991 110.264
145.209 147.396 110.8
145.394 147.693 110.594
145.281 147.548 109.869
144.991 147.132 109.658
144.605 146.555 110.113
144.702 146.64 110.499
145.601 147.996 110.492
145.596 147.906 110.033
145.906 148.254 110.291
144.885 146.73 109.526
144.566 146.394 109.815
144.768 146.162 109.476
144.856 146.67 110.874
145.173 147.14 111.062
145.143 146.752 111.28
145.697 145.205 112.301
145.691 144.709 112.23
145.423 144.843 111.971
145.742 144.258 112.178
145.975 144.625 112.445
145.932 145.53 112.626
145.7 145.655 112.401
145.21 145.018 111.727
145.219 144.551 111.655
146.254 144.994 112.666
146.135 145.477 112.861
146.462 145.404 113.003
145.506 145.78 112.2
145.229 145.435 111.811
145.319 145.943 111.932
145.274 144.102 111.621
145.59 143.911 111.959
145.311 143.585 111.738
147.486 149.327 112.062
147.723 149.314 111.802
147.863 149.334 112.306
147.977 149.226 111.586
147.611 149.368 111.349
147.129 149.407 111.849
147.259 149.236 112.306
147.937 149.308 112.797
148.224 149.268 112.55
147.265 149.437 111.123
146.929 149.419 111.397
146.837 149.176 110.968
147.356 149.022 112.671
147.711 149.178 113.039
147.469 148.836 113.14
148.426 149.117 112.31
148.304 149.101 111.748
148.656 148.94 111.984
147.702 146.934 114.689
147.414 147.264 114.564
147.935 147.595 114.856
147.192 147.45 114.364
147.007 146.832 114.387
147.483 146.339 114.595
147.996 146.673 114.715
148.338 147.724 114.925
148.11 148.109 114.794
146.967 146.44 114.325
147.247 146.149 114.437
146.986 145.992 114.142
148.353 146.879 114.619
148.49 147.356 114.831
148.785 146.975 114.652
147.936 148.04 114.503
147.412 147.836 114.316
147.668 148.17 114.156
POLYGONS 1280  5120
3 164 162 163
3 163 44 164
3 162 43 163
3 164 42 162
3 166 165 163
3 163 43 166
3 165 44 163
3 166 14 165
3 168 167 162
3 162 42 168
3 167 43 162
3 168 13 167
3 170 169 164
3 164 44 170
3 169 42 164
3 170 12 169
3 173 171 172
3 172 46 173
3 171 43 172
3 173 45 171
3 167 174 172
3 172 43 167
3 174 46 172
3 167 13 174
3 175 166 171
3 171 45 175
3 166 43 171
3 175 14 166
3 177 176 173
3 173 46 177
3 176 45 173
3 177 4 176
3 180 178 179
3 179 48 180
3 178 42 179
3 180 47 178
3 169 181 179
3 179 42 169
3 181 48 179
3 169 12 181
3 182 168 178
3 178 47 182
3 168 42 178
3 182 13 168
3 184 183 180
3 180 48 184
3 183 47 180
3 184 8 183
3 187 185 186
3 186 50 187
3 185 44 186
3 187 49 185
3 165 188 186
3 186 44 165
3 188 50 186
3 165 14 188
3 189 170 185
3 185 49 189
3 170 44 185
3 189 12 170
3 191 190 187
3 187 50 191
3 190 49 187
3 191 7 190
3 194 192 193
3 193 53 194
3 192 52 193
3 194 51 192
3 196 195 193
3 193 52 196
3 195 53 193
3 196 16 195
3 198 197 192
3 192 51 198
3 197 52 192
3 198 14 197
3 200 199 194
3 194 53 200
3 199 51 194
3 200 15 199
3 203 201 202
3 202 45 203
3 201 52 202
3 203 54 201
3 197 175 202
3 202 52 197
3 175 45 202
3 197 14 175
3 204 196 201
3 201 54 204
3 196 52 201
3 204 16 196
3 176 205 203
3 203 45 176
3 205 54 203
3 176 4 205
3 208 206 207
3 207 55 208
3 206 51 207
3 208 50 206
3 199 209 207
3 207 51 199
3 209 55 207
3 199 15 209
3 188 198 206
3 206 50 188
3 198 51 206
3 188 14 198
3 210 191 208
3 208 55 210
3 191 50 208
3 210 7 191
3 213 211 212
3 212 57 213
3 211 53 212
3 213 56 211
3 195 214 212
3 212 53 195
3 214 57 212
3 195 16 214
3 215 200 211
3 211 56 215
3 200 53 211
3 215 15 200
3 217 216 213
3 213 57 217
3 216 56 213
3 217 9 216
3 220 218 219
3 219 60 220
3 218 59 219
3 220 58 218
3 222 221 219
3 219 59 222
3 221 60 219
3 222 19 221
3 224 223 218
3 218 58 224
3 223 59 218
3 224 18 223
3 226 225 220
3 220 60 226
3 225 58 220
3 226 17 225
3 229 227 228
3 228 62 229
3 227 59 228
3 229 61 227
3 223 230 228
3 228 59 223
3 230 62 228
3 223 18 230
3 231 222 227
3 227 61 231
3 222 59 227
3 231 19 222
3 233 232 229
3 229 62 233
3 232 61 229
3 233 5 232
3 236 234 235
3 235 64 236
3 234 58 235
3 236 63 234
3 225 237 235
3 235 58 225
3 237 64 235
3 225 17 237
3 238 224 234
3 234 63 238
3 224 58 234
3 238 18 224
3 240 239 236
3 236 64 240
3 239 63 236
3 240 6 239
3 243 241 242
3 242 66 243
3 241 60 242
3 243 65 241
3 221 244 242
3 242 60 221
3 244 66 242
3 221 19 244
3 245 226 241
3 241 65 245
3 226 60 241
3 245 17 226
3 247 246 243
3 243 66 247
3 246 65 243
3 247 11 246
3 250 248 249
3 249 69 250
3 248 68 249
3 250 67 248
3 252 251 249
3 249 68 252
3 251 69 249
3 252 18 251
3 254 253 248
3 248 67 254
3 253 68 248
3 254 21 253
3 256 255 250
3 250 69 256
3 255 67 250
3 256 20 255
3 259 257 258
3 258 70 259
3 257 68 258
3 259 62 257
3 253 260 258
3 258 68 253
3 260 70 258
3 253 21 260
3 230 252 257
3 257 62 230
3 252 68 257
3 230 18 252
3 261 233 259
3 259 70 261
3 233 62 259
3 261 5 233
3 264 262 263
3 263 72 264
3 262 67 263
3 264 71 262
3 255 265 263
3 263 67 255
3 265 72 263
3 255 20 265
3 266 254 262
3 262 71 266
3 254 67 262
3 266 21 254
3 268 267 264
3 264 72 268
3 267 71 264
3 268 10 267
3 271 269 270
3 270 63 271
3 269 69 270
3 271 73 269
3 251 238 270
3 270 69 251
3 238 63 270
3 251 18 238
3 272 256 269
3 269 73 272
3 256 69 269
3 272 20 256
3 239 273 271
3 271 63 239
3 273 73 271
3 239 6 273
3 276 274 275
3 275 76 276
3 274 75 275
3 276 74 274
3 278 277 275
3 275 75 278
3 277 76 275
3 278 24 277
3 280 279 274
3 274 74 280
3 279 75 274
3 280 23 279
3 282 281 276
3 276 76 282
3 281 74 276
3 282 22 281
3 285 283 284
3 284 78 285
3 283 75 284
3 285 77 283
3 279 286 284
3 284 75 279
3 286 78 284
3 279 23 286
3 287 278 283
3 283 77 287
3 278 75 283
3 287 24 278
3 289 288 285
3 285 78 289
3 288 77 285
3 289 0 288
3 292 290 291
3 291 80 292
3 290 74 291
3 292 79 290
3 281 293 291
3 291 74 281
3 293 80 291
3 281 22 293
3 294 280 290
3 290 79 294
3 280 74 290
3 294 23 280
3 296 295 292
3 292 80 296
3 295 79 292
3 296 4 295
3 299 297 298
3 298 82 299
3 297 76 298
3 299 81 297
3 277 300 298
3 298 76 277
3 300 82 298
3 277 24 300
3 301 282 297
3 297 81 301
3 282 76 297
3 301 22 282
3 303 302 299
3 299 82 303
3 302 81 299
3 303 3 302
3 306 304 305
3 305 85 306
3 304 84 305
3 306 83 304
3 308 307 305
3 305 84 308
3 307 85 305
3 308 26 307
3 310 309 304
3 304 83 310
3 309 84 304
3 310 24 309
3 312 311 306
3 306 85 312
3 311 83 306
3 312 25 311
3 315 313 314
3 314 77 315
3 313 84 314
3 315 86 313
3 309 287 314
3 314 84 309
3 287 77 314
3 309 24 287
3 316 308 313
3 313 86 316
3 308 84 313
3 316 26 308
3 288 317 315
3 315 77 288
3 317 86 315
3 288 0 317
3 320 318 319
3 319 87 320
3 318 83 319
3 320 82 318
3 311 321 319
3 319 83 311
3 321 87 319
3 311 25 321
3 300 310 318
3 318 82 300
3 310 83 318
3 300 24 310
3 322 303 320
3 320 87 322
3 303 82 320
3 322 3 303
3 325 323 324
3 324 89 325
3 323 85 324
3 325 88 323
3 307 326 324
3 324 85 307
3 326 89 324
3 307 26 326
3 327 312 323
3 323 88 327
3 312 85 323
3 327 25 312
3 329 328 325
3 325 89 329
3 328 88 325
3 329 5 328
3 332 330 331
3 331 92 332
3 330 91 331
3 332 90 330
3 334 333 331
3 331 91 334
3 333 92 331
3 334 29 333
3 336 335 330
3 330 90 336
3 335 91 330
3 336 28 335
3 338 337 332
3 332 92 338
3 337 90 332
3 338 27 337
3 341 339 340
3 340 94 341
3 339 91 340
3 341 93 339
3 335 342 340
3 340 91 335
3 342 94 340
3 335 28 342
3 343 334 339
3 339 93 343
3 334 91 339
3 343 29 334
3 345 344 341
3 341 94 345
3 344 93 341
3 345 2 344
3 348 346 347
3 347 96 348
3 346 90 347
3 348 95 346
3 337 349 347
3 347 90 337
3 349 96 347
3 337 27 349
3 350 336 346
3 346 95 350
3 336 90 346
3 350 28 336
3 352 351 348
3 348 96 352
3 351 95 348
3 352 7 351
3 355 353 354
3 354 98 355
3 353 92 354
3 355 97 353
3 333 356 354
3 354 92 333
3 356 98 354
3 333 29 356
3 357 338 353
3 353 97 357
3 338 92 353
3 357 27 338
3 359 358 355
3 355 98 359
3 358 97 355
3 359 1 358
3 362 360 361
3 361 101 362
3 360 100 361
3 362 99 360
3 364 363 361
3 361 100 364
3 363 101 361
3 364 31 363
3 366 365 360
3 360 99 366
3 365 100 360
3 366 29 365
3 368 367 362
3 362 101 368
3 367 99 362
3 368 30 367
3 371 369 370
3 370 93 371
3 369 100 370
3 371 102 369
3 365 343 370
3 370 100 365
3 343 93 370
3 365 29 343
3 372 364 369
3 369 102 372
3 364 100 369
3 372 31 364
3 344 373 371
3 371 93 344
3 373 102 371
3 344 2 373
3 376 374 375
3 375 103 376
3 374 99 375
3 376 98 374
3 367 377 375
3 375 99 367
3 377 103 375
3 367 30 377
3 356 366 374
3 374 98 356
3 366 99 374
3 356 29 366
3 378 359 376
3 376 103 378
3 359 98 376
3 378 1 359
3 381 379 380
3 380 105 381
3 379 101 380
3 381 104 379
3 363 382 380
3 380 101 363
3 382 105 380
3 363 31 382
3 383 368 379
3 379 104 383
3 368 101 379
3 383 30 368
3 385 384 381
3 381 105 385
3 384 104 381
3 385 6 384
3 388 386 387
3 387 108 388
3 386 107 387
3 388 106 386
3 390 389 387
3 387 107 390
3 389 108 387
3 390 34 389
3 392 391 386
3 386 106 392
3 391 107 386
3 392 33 391
3 394 393 388
3 388 108 394
3 393 106 388
3 394 32 393
3 397 395 396
3 396 110 397
3 395 107 396
3 397 109 395
3 391 398 396
3 396 107 391
3 398 110 396
3 391 33 398
3 399 390 395
3 395 109 399
3 390 107 395
3 399 34 390
3 401 400 397
3 397 110 401
3 400 109 397
3 401 8 400
3 404 402 403
3 403 112 404
3 402 106 403
3 404 111 402
3 393 405 403
3 403 106 393
3 405 112 403
3 393 32 405
3 406 392 402
3 402 111 406
3 392 106 402
3 406 33 392
3 408 407 404
3 404 112 408
3 407 111 404
3 408 0 407
3 411 409 410
3 410 114 411
3 409 108 410
3 411 113 409
3 389 412 410
3 410 108 389
3 412 114 410
3 389 34 412
3 413 394 409
3 409 113 413
3 394 108 409
3 413 32 394
3 415 414 411
3 411 114 415
3 414 113 411
3 415 11 414
3 418 416 417
3 417 117 418
3 416 116 417
3 418 115 416
3 420 419 417
3 417 116 420
3 419 117 417
3 420 36 419
3 422 421 416
3 416 115 422
3 421 116 416
3 422 34 421
3 424 423 418
3 418 117 424
3 423 115 418
3 424 35 423
3 427 425 426
3 426 109 427
3 425 116 426
3 427 118 425
3 421 399 426
3 426 116 421
3 399 109 426
3 421 34 399
3 428 420 425
3 425 118 428
3 420 116 425
3 428 36 420
3 400 429 427
3 427 109 400
3 429 118 427
3 400 8 429
3 432 430 431
3 431 119 432
3 430 115 431
3 432 114 430
3 423 433 431
3 431 115 423
3 433 119 431
3 423 35 433
3 412 422 430
3 430 114 412
3 422 115 430
3 412 34 422
3 434 415 432
3 432 119 434
3 415 114 432
3 434 11 415
3 437 435 436
3 436 121 437
3 435 117 436
3 437 120 435
3 419 438 436
3 436 117 419
3 438 121 436
3 419 36 438
3 439 424 435
3 435 120 439
3 424 117 435
3 439 35 424
3 441 440 437
3 437 121 441
3 440 120 437
3 441 1 440
3 444 442 443
3 443 124 444
3 442 123 443
3 444 122 442
3 446 445 443
3 443 123 446
3 445 124 443
3 446 39 445
3 448 447 442
3 442 122 448
3 447 123 442
3 448 38 447
3 450 449 444
3 444 124 450
3 449 122 444
3 450 37 449
3 453 451 452
3 452 126 453
3 451 123 452
3 453 125 451
3 447 454 452
3 452 123 447
3 454 126 452
3 447 38 454
3 455 446 451
3 451 125 455
3 446 123 451
3 455 39 446
3 457 456 453
3 453 126 457
3 456 125 453
3 457 9 456
3 460 458 459
3 459 128 460
3 458 122 459
3 460 127 458
3 449 461 459
3 459 122 449
3 461 128 459
3 449 37 461
3 462 448 458
3 458 127 462
3 448 122 458
3 462 38 448
3 464 463 460
3 460 128 464
3 463 127 460
3 464 10 463
3 467 465 466
3 466 130 467
3 465 124 466
3 467 129 465
3 445 468 466
3 466 124 445
3 468 130 466
3 445 39 468
3 469 450 465
3 465 129 469
3 450 124 465
3 469 37 450
3 471 470 467
3 467 130 471
3 470 129 467
3 471 3 470
3 474 472 473
3 473 133 474
3 472 132 473
3 474 131 472
3 476 475 473
3 473 132 476
3 475 133 473
3 476 38 475
3 478 477 472
3 472 131 478
3 477 132 472
3 478 41 477
3 480 479 474
3 474 133 480
3 479 131 474
3 480 40 479
3 483 481 482
3 482 134 483
3 481 132 482
3 483 126 481
3 477 484 482
3 482 132 477
3 484 134 482
3 477 41 484
3 454 476 481
3 481 126 454
3 476 132 481
3 454 38 476
3 485 457 483
3 483 134 485
3 457 126 483
3 485 9 457
3 488 486 487
3 487 136 488
3 486 131 487
3 488 135 486
3 479 489 487
3 487 131 479
3 489 136 487
3 479 40 489
3 490 478 486
3 486 135 490
3 478 131 486
3 490 41 478
3 492 491 488
3 488 136 492
3 491 135 488
3 492 2 491
3 495 493 494
3 494 127 495
3 493 133 494
3 495 137 493
3 475 462 494
3 494 133 475
3 462 127 494
3 475 38 462
3 496 480 493
3 493 137 496
3 480 133 493
3 496 40 480
3 463 497 495
3 495 127 463
3 497 137 495
3 463 10 497
3 500 498 499
3 499 140 500
3 498 139 499
3 500 138 498
3 502 501 499
3 499 139 502
3 501 140 499
3 502 33 501
3 504 503 498
3 498 138 504
3 503 139 498
3 504 13 503
3 506 505 500
3 500 140 506
3 505 138 500
3 506 23 505
3 509 507 508
3 508 47 509
3 507 139 508
3 509 110 507
3 503 182 508
3 508 139 503
3 182 47 508
3 503 13 182
3 398 502 507
3 507 110 398
3 502 139 507
3 398 33 502
3 183 401 509
3 509 47 183
3 401 110 509
3 183 8 401
3 512 510 511
3 511 79 512
3 510 138 511
3 512 46 510
3 505 294 511
3 511 138 505
3 294 79 511
3 505 23 294
3 174 504 510
3 510 46 174
3 504 138 510
3 174 13 504
3 295 177 512
3 512 79 295
3 177 46 512
3 295 4 177
3 515 513 514
3 514 111 515
3 513 140 514
3 515 78 513
3 501 406 514
3 514 140 501
3 406 111 514
3 501 33 406
3 286 506 513
3 513 78 286
3 506 140 513
3 286 23 506
3 407 289 515
3 515 111 407
3 289 78 515
3 407 0 289
3 518 516 517
3 517 143 518
3 516 142 517
3 518 141 516
3 520 519 517
3 517 142 520
3 519 143 517
3 520 19 519
3 522 521 516
3 516 141 522
3 521 142 516
3 522 32 521
3 524 523 518
3 518 143 524
3 523 141 518
3 524 26 523
3 527 525 526
3 526 113 527
3 525 142 526
3 527 66 525
3 521 413 526
3 526 142 521
3 413 113 526
3 521 32 413
3 244 520 525
3 525 66 244
3 520 142 525
3 244 19 520
3 414 247 527
3 527 113 414
3 247 66 527
3 414 11 247
3 530 528 529
3 529 86 530
3 528 141 529
3 530 112 528
3 523 316 529
3 529 141 523
3 316 86 529
3 523 26 316
3 405 522 528
3 528 112 405
3 522 141 528
3 405 32 522
3 317 408 530
3 530 86 317
3 408 112 530
3 317 0 408
3 533 531 532
3 532 61 533
3 531 143 532
3 533 89 531
3 519 231 532
3 532 143 519
3 231 61 532
3 519 19 231
3 326 524 531
3 531 89 326
3 524 143 531
3 326 26 524
3 232 329 533
3 533 61 232
3 329 89 533
3 232 5 329
3 536 534 535
3 535 146 536
3 534 145 535
3 536 144 534
3 538 537 535
3 535 145 538
3 537 146 535
3 538 22 537
3 540 539 534
3 534 144 540
3 539 145 534
3 540 16 539
3 542 541 536
3 536 146 542
3 541 144 536
3 542 39 541
3 545 543 544
3 544 54 545
3 543 145 544
3 545 80 543
3 539 204 544
3 544 145 539
3 204 54 544
3 539 16 204
3 293 538 543
3 543 80 293
3 538 145 543
3 293 22 538
3 205 296 545
3 545 54 205
3 296 80 545
3 205 4 296
3 548 546 547
3 547 125 548
3 546 144 547
3 548 57 546
3 541 455 547
3 547 144 541
3 455 125 547
3 541 39 455
3 214 540 546
3 546 57 214
3 540 144 546
3 214 16 540
3 456 217 548
3 548 125 456
3 217 57 548
3 456 9 217
3 551 549 550
3 550 81 551
3 549 146 550
3 551 130 549
3 537 301 550
3 550 146 537
3 301 81 550
3 537 22 301
3 468 542 549
3 549 130 468
3 542 146 549
3 468 39 542
3 302 471 551
3 551 81 302
3 471 130 551
3 302 3 471
3 554 552 553
3 553 149 554
3 552 148 553
3 554 147 552
3 556 555 553
3 553 148 556
3 555 149 553
3 556 21 555
3 558 557 552
3 552 147 558
3 557 148 552
3 558 25 557
3 560 559 554
3 554 149 560
3 559 147 554
3 560 37 559
3 563 561 562
3 562 88 563
3 561 148 562
3 563 70 561
3 557 327 562
3 562 148 557
3 327 88 562
3 557 25 327
3 260 556 561
3 561 70 260
3 556 148 561
3 260 21 556
3 328 261 563
3 563 88 328
3 261 70 563
3 328 5 261
3 566 564 565
3 565 129 566
3 564 147 565
3 566 87 564
3 559 469 565
3 565 147 559
3 469 129 565
3 559 37 469
3 321 558 564
3 564 87 321
3 558 147 564
3 321 25 558
3 470 322 566
3 566 129 470
3 322 87 566
3 470 3 322
3 569 567 568
3 568 71 569
3 567 149 568
3 569 128 567
3 555 266 568
3 568 149 555
3 266 71 568
3 555 21 266
3 461 560 567
3 567 128 461
3 560 149 567
3 461 37 560
3 267 464 569
3 569 71 267
3 464 128 569
3 267 10 464
3 572 570 571
3 571 152 572
3 570 151 571
3 572 150 570
3 574 573 571
3 571 151 574
3 573 152 571
3 574 27 573
3 576 575 570
3 570 150 576
3 575 151 570
3 576 12 575
3 578 577 572
3 572 152 578
3 577 150 572
3 578 36 577
3 581 579 580
3 580 49 581
3 579 151 580
3 581 96 579
3 575 189 580
3 580 151 575
3 189 49 580
3 575 12 189
3 349 574 579
3 579 96 349
3 574 151 579
3 349 27 574
3 190 352 581
3 581 49 190
3 352 96 581
3 190 7 352
3 584 582 583
3 583 118 584
3 582 150 583
3 584 48 582
3 577 428 583
3 583 150 577
3 428 118 583
3 577 36 428
3 181 576 582
3 582 48 181
3 576 150 582
3 181 12 576
3 429 184 584
3 584 118 429
3 184 48 584
3 429 8 184
3 587 585 586
3 586 97 587
3 585 152 586
3 587 121 585
3 573 357 586
3 586 152 573
3 357 97 586
3 573 27 357
3 438 578 585
3 585 121 438
3 578 152 585
3 438 36 578
3 358 441 587
3 587 97 358
3 441 121 587
3 358 1 441
3 590 588 589
3 589 155 590
3 588 154 589
3 590 153 588
3 592 591 589
3 589 154 592
3 591 155 589
3 592 17 591
3 594 593 588
3 588 153 594
3 593 154 588
3 594 30 593
3 596 595 590
3 590 155 596
3 595 153 590
3 596 35 595
3 599 597 598
3 598 104 599
3 597 154 598
3 599 64 597
3 593 383 598
3 598 154 593
3 383 104 598
3 593 30 383
3 237 592 597
3 597 64 237
3 592 154 597
3 237 17 592
3 384 240 599
3 599 104 384
3 240 64 599
3 384 6 240
3 602 600 601
3 601 120 602
3 600 153 601
3 602 103 600
3 595 439 601
3 601 153 595
3 439 120 601
3 595 35 439
3 377 594 600
3 600 103 377
3 594 153 600
3 377 30 594
3 440 378 602
3 602 120 440
3 378 103 602
3 440 1 378
3 605 603 604
3 604 65 605
3 603 155 604
3 605 119 603
3 591 245 604
3 604 155 591
3 245 65 604
3 591 17 245
3 433 596 603
3 603 119 433
3 596 155 603
3 433 35 596
3 246 434 605
3 605 65 246
3 434 119 605
3 246 11 434
3 608 606 607
3 607 158 608
3 606 157 607
3 608 156 606
3 610 609 607
3 607 157 610
3 609 158 607
3 610 15 609
3 612 611 606
3 606 156 612
3 611 157 606
3 612 28 611
3 614 613 608
3 608 158 614
3 613 156 608
3 614 41 613
3 617 615 616
3 616 95 617
3 615 157 616
3 617 55 615
3 611 350 616
3 616 157 611
3 350 95 616
3 611 28 350
3 209 610 615
3 615 55 209
3 610 157 615
3 209 15 610
3 351 210 617
3 617 95 351
3 210 55 617
3 351 7 210
3 620 618 619
3 619 135 620
3 618 156 619
3 620 94 618
3 613 490 619
3 619 156 613
3 490 135 619
3 613 41 490
3 342 612 618
3 618 94 342
3 612 156 618
3 342 28 612
3 491 345 620
3 620 135 491
3 345 94 620
3 491 2 345
3 623 621 622
3 622 56 623
3 621 158 622
3 623 134 621
3 609 215 622
3 622 158 609
3 215 56 622
3 609 15 215
3 484 614 621
3 621 134 484
3 614 158 621
3 484 41 614
3 216 485 623
3 623 56 216
3 485 134 623
3 216 9 485
3 626 624 625
3 625 161 626
3 624 160 625
3 626 159 624
3 628 627 625
3 625 160 628
3 627 161 625
3 628 31 627
3 630 629 624
3 624 159 630
3 629 160 624
3 630 20 629
3 632 631 626
3 626 161 632
3 631 159 626
3 632 40 631
3 635 633 634
3 634 73 635
3 633 160 634
3 635 105 633
3 629 272 634
3 634 160 629
3 272 73 634
3 629 20 272
3 382 628 633
3 633 105 382
3 628 160 633
3 382 31 628
3 273 385 635
3 635 73 273
3 385 105 635
3 273 6 385
3 638 636 637
3 637 137 638
3 636 159 637
3 638 72 636
3 631 496 637
3 637 159 631
3 496 137 637
3 631 40 496
3 265 630 636
3 636 72 265
3 630 159 636
3 265 20 630
3 497 268 638
3 638 137 497
3 268 72 638
3 497 10 268
3 641 639 640
3 640 102 641
3 639 161 640
3 641 136 639
3 627 372 640
3 640 161 627
3 372 102 640
3 627 31 372
3 489 632 639
3 639 136 489
3 632 161 639
3 489 40 632
3 373 492 641
3 641 102 373
3 492 136 641
3 373 2 492
