# vtk DataFile Version 3.0
this file was written using fslvtkio
ASCII
DATASET POLYDATA
POINTS 642 float
149.897 153.338 123.158
147.338 149.754 124.037
148.339 148.981 123.577
151.064 152.193 122.668
150.707 151.41 124.816
149.439 152.766 120.46
147.463 150.188 121.581
149.368 149.145 125.73
148.659 151.329 124.77
150.432 150.043 124.324
149.346 151.068 122.444
147.729 151.796 122.577
148.898 150.162 125.527
149.709 151.339 124.912
150.531 150.224 125.703
150.814 148.962 125.244
151.514 150.586 124.572
147.239 151.112 121.819
148.215 151.434 120.584
148.184 152.402 121.244
148.483 150.806 121.881
149.481 151.826 121.299
151.15 151.976 123.624
150.545 152.562 124.014
151.042 153.206 122.571
150.547 152.773 121.411
149.702 153.671 121.59
147.79 149.107 125.243
148.692 148.452 124.762
146.777 148.521 123.627
147.205 150.038 122.786
147.875 149.717 122.642
148.614 152.706 122.731
149.111 152.274 123.88
148.124 151.663 123.676
147.424 150.824 123.237
147.8 150.465 124.589
150.17 151.776 122.459
149.801 150.559 123.337
150.689 151.275 123.422
148.954 150.023 123.086
149.556 149.392 124.317
149.364 150.798 125.22
150.027 150.768 125.357
149.71 150.245 125.826
150.806 150.915 125.375
150.168 151.399 124.882
149.113 151.411 124.991
148.714 150.799 125.127
149.094 149.508 125.891
149.908 149.63 125.924
150.897 149.558 125.72
151.338 150.444 125.344
151.963 149.559 125.156
151.153 151.154 124.852
150.056 149.015 125.576
150.97 149.457 124.619
151.117 150.151 124.274
147.379 151.25 121.028
147.795 152.054 120.483
147.625 151.739 121.484
148.708 152.953 120.579
148.717 152.224 120.177
147.737 150.722 121.099
147.082 150.604 121.547
147.543 151.522 122.155
147.928 152.133 121.964
148.998 151.232 121.395
148.9 151.704 120.752
148.474 151.04 121.151
149.529 152.25 120.66
149.385 151.437 121.93
148.973 150.875 122.059
148.029 150.518 121.625
150.932 152.365 123.785
150.827 153.088 123.306
151.184 152.699 123.118
150.629 153.605 122.896
150.275 153.137 123.716
150.508 151.926 124.337
150.865 151.775 124.245
151.418 152.11 123.014
151.205 152.73 122.456
150.855 153.187 121.895
150.701 153.725 121.972
150.524 153.538 121.173
149.842 153.488 122.471
150.846 152.485 122.098
150.066 152.832 120.798
149.635 153.461 120.76
148.051 148.593 125.048
147.406 148.228 124.282
147.023 148.64 124.714
147.601 148.491 123.53
148.447 148.598 124.065
149.084 148.774 125.276
148.56 149.058 125.608
147.309 149.444 124.778
147.076 149.238 124.031
147.154 149.406 123.269
147.479 149.034 123.08
147.478 149.854 122.636
148.137 149.193 123.207
147.512 149.892 123.434
146.974 150.042 121.928
147.698 150.087 122.069
148.826 152.674 123.437
148.623 152.01 123.835
148.308 152.211 123.258
148.393 151.504 124.248
148.946 151.791 124.411
149.491 152.868 123.651
149.276 153.144 122.951
148.128 152.225 122.601
147.832 151.806 123.13
147.653 151.262 123.482
147.995 151.055 124.115
147.62 150.6 123.884
148.293 150.891 124.724
147.637 151.338 122.846
147.416 150.241 123.593
147.397 150.014 124.465
150.063 151.192 122.879
150.162 150.972 123.438
150.564 151.585 122.974
150.408 150.651 124.093
149.996 150.358 124.028
149.641 150.817 122.761
149.722 151.455 122.408
150.58 152.047 122.59
151.186 151.744 122.879
149.144 149.701 123.678
149.563 150.032 123.939
149.395 150.296 123.186
150.121 149.751 124.388
148.887 149.213 124.002
148.676 149.425 123.318
149.122 150.638 122.803
150.063 151.851 124.44
149.5 151.932 124.473
149.8 152.477 124.089
149.025 153.134 122.232
148.445 152.641 122.022
148.873 153.09 121.505
151.031 150.767 123.988
151.179 151.38 124.269
151.228 151.552 123.568
150.362 152.248 121.941
150.024 152.322 121.338
149.863 151.985 121.923
148.262 150.298 125.131
148.297 149.617 125.612
147.73 149.837 125.079
147.271 150.373 122.978
146.956 150.497 122.248
147.286 150.951 122.506
149.301 148.807 124.462
149.757 148.471 125.163
150.232 148.924 124.634
148.708 150.381 122.457
148.199 150.284 122.278
148.452 149.916 122.952
149.653 150.801 125.261
149.901 150.537 125.641
149.474 150.553 125.521
150.089 150.201 125.808
150.309 150.555 125.656
149.808 151.044 125.113
149.546 151.084 125.06
149.163 150.509 125.379
149.261 150.248 125.77
150.445 150.851 125.507
150.114 151.104 125.162
150.458 151.126 125.199
149.917 151.32 124.916
150.688 150.585 125.549
150.734 151.231 125.111
150.452 151.384 124.881
149.219 151.126 125.106
149.048 150.772 125.161
148.924 151.092 125.052
148.845 150.488 125.28
149.444 151.411 125.038
148.883 151.372 124.865
148.675 151.152 124.984
149.414 149.904 125.862
149.835 149.895 125.903
149.455 149.585 125.918
150.273 149.923 125.876
149.026 149.839 125.862
149.203 149.295 125.818
149.614 149.347 125.839
151.18 149.986 125.529
151.824 149.991 125.392
151.562 149.456 125.642
152.047 150.12 124.884
151.61 150.516 124.992
151.03 150.348 125.553
150.745 149.963 125.703
150.897 149.176 125.522
151.478 149.091 125.279
151.312 150.843 125.104
151.078 150.714 125.444
151.014 151.095 125.133
151.403 150.858 124.789
150.973 151.28 124.861
150.429 149.583 125.884
150.467 149.231 125.696
150.033 149.326 125.793
150.437 148.885 125.502
149.692 149.087 125.648
151.569 149.427 124.802
151.803 149.935 124.573
151.162 149.728 124.475
151.582 150.317 124.315
151.04 149.127 124.888
150.707 149.724 124.363
150.747 150.057 124.328
147.55 151.644 120.737
147.666 151.895 121.028
147.396 151.52 121.206
147.915 152.064 121.321
148.021 152.213 120.932
147.917 151.729 120.376
147.644 151.279 120.682
147.273 151.208 121.397
147.413 151.403 121.605
148.221 152.492 120.534
148.151 152.161 120.154
148.579 152.652 120.162
148.446 151.805 120.279
148.406 152.673 120.922
149.045 152.985 120.27
149.084 152.538 120.238
147.535 150.983 121.039
147.261 150.964 121.335
147.322 150.611 121.27
147.125 150.869 121.662
147.961 151.067 120.905
147.534 150.394 121.327
147.198 150.313 121.496
147.592 151.652 121.803
147.86 152.004 121.687
147.732 151.838 122.008
148.036 152.307 121.573
147.368 151.349 121.959
147.656 151.681 122.349
147.773 151.96 122.288
148.989 151.462 121.002
148.703 151.358 120.884
148.754 151.192 121.188
148.414 151.228 120.867
148.604 151.581 120.688
149.228 151.779 120.986
149.252 151.519 121.3
148.712 151.006 121.57
148.506 150.877 121.434
148.792 151.965 120.456
149.18 151.95 120.709
149.128 152.267 120.411
149.507 152.031 121.005
149.505 152.534 120.53
149.23 151.35 121.651
148.947 151.059 121.743
149.156 151.183 121.954
148.754 150.827 121.899
149.503 151.65 121.604
149.357 151.226 122.135
149.193 150.991 122.242
148.229 150.787 121.365
148.156 150.951 121.133
147.933 150.645 121.331
148.271 150.696 121.758
147.754 150.387 121.578
150.853 152.745 123.563
151.062 152.937 123.228
151.057 152.557 123.461
151.146 153.015 122.869
150.977 153.207 122.945
150.729 152.897 123.687
150.682 152.49 123.846
151.07 152.201 123.669
151.225 152.324 123.348
150.8 153.418 123.121
150.6 153.156 123.488
150.478 153.423 123.34
150.481 152.912 123.894
150.938 153.493 122.679
150.234 153.512 123.088
150.092 153.286 123.441
150.696 152.182 124.043
150.874 152.047 123.999
150.644 151.832 124.296
150.996 151.843 123.908
150.53 152.21 124.131
150.568 151.641 124.594
150.761 151.574 124.55
151.351 152.361 123.04
151.188 152.722 122.803
151.32 152.396 122.727
151.159 152.976 122.535
151.344 152.041 123.352
151.258 152.102 122.826
151.232 152.457 122.456
150.788 153.458 121.95
150.601 153.702 121.533
150.766 153.4 121.549
150.253 153.764 121.251
150.267 153.844 121.738
150.864 153.527 122.306
150.944 153.191 122.228
150.72 153.011 121.632
150.553 153.129 121.273
150.189 153.647 122.261
150.738 153.717 122.428
150.241 153.684 122.658
149.776 153.619 122.012
149.829 153.379 122.831
151.006 152.921 122.184
150.864 152.799 121.96
151.131 152.608 122.19
150.611 152.675 121.765
150.983 152.397 122.376
150.323 153.222 120.963
150.181 153.599 120.855
149.926 153.242 120.723
149.705 153.683 121.122
150.414 152.822 121.052
149.809 152.788 120.623
149.562 153.15 120.492
147.824 148.381 124.692
147.248 148.355 124.504
147.546 148.536 124.92
146.823 148.488 124.236
147.006 148.166 124.008
148.086 148.355 124.491
148.331 148.466 124.879
147.814 148.81 125.201
147.322 148.849 125.025
147.409 148.237 123.885
147.935 148.341 124.107
147.959 148.471 123.848
148.478 148.428 124.409
147.182 148.374 123.52
147.986 148.661 123.545
148.329 148.728 123.808
148.534 148.694 125.119
148.284 148.813 125.35
148.745 148.866 125.466
148.086 149.008 125.54
148.902 148.606 125.023
149.265 148.993 125.505
148.974 149.101 125.722
147.266 149.14 124.775
146.95 148.902 124.501
147.183 149.349 124.444
146.855 148.884 123.949
147.484 149.279 125.11
147.32 149.577 124.376
147.299 149.51 124.051
147.157 149.161 123.093
147.49 149.484 122.82
147.299 149.642 122.931
147.63 149.756 122.604
147.733 149.367 122.839
147.15 148.699 123.335
146.978 149.056 123.482
147.201 149.78 123.101
147.278 149.943 122.681
147.828 149.085 123.143
147.584 148.714 123.371
147.909 148.844 123.371
147.998 149.486 122.995
148.174 148.982 123.426
146.989 149.225 123.65
147.295 149.653 123.406
147.258 149.502 123.723
147.343 149.955 123.168
147.387 149.772 123.697
147.311 149.947 122.315
147.595 149.955 122.338
147.356 149.963 121.926
147.799 150.005 122.435
146.983 150.032 122.332
147.19 150.075 121.675
147.664 150.19 121.801
148.749 152.343 123.654
148.503 152.166 123.541
148.54 152.479 123.366
148.287 151.955 123.443
148.404 151.866 123.715
148.838 152.165 123.894
148.979 152.511 123.758
148.689 152.71 123.055
148.383 152.442 123.001
148.533 151.769 124.019
148.829 151.891 124.068
148.654 151.66 124.337
149.073 151.985 124.058
148.255 151.606 123.985
148.556 151.404 124.552
148.788 151.585 124.603
149.173 152.761 123.552
149.025 152.923 123.175
149.382 153.017 123.311
148.93 152.98 122.826
149.297 152.615 123.789
149.748 153.116 123.445
149.59 153.225 123.047
148.133 152.253 122.941
148.04 152.039 123.2
147.944 152.007 122.859
147.94 151.762 123.41
148.375 152.454 122.655
147.899 151.978 122.557
147.805 151.761 122.832
147.833 151.173 123.791
147.797 150.827 123.995
147.583 150.964 123.725
147.707 150.534 124.19
147.92 150.759 124.311
148.02 151.385 123.922
147.868 151.467 123.598
147.492 151.032 123.393
147.478 150.71 123.585
148.098 150.954 124.424
148.201 151.3 124.17
148.351 151.212 124.498
148.066 150.676 124.641
148.506 151.13 124.77
147.773 151.558 123.307
147.612 151.307 123.189
147.707 151.577 122.981
147.509 151.093 123.034
147.708 151.541 122.679
147.515 150.427 123.75
147.489 150.313 124.194
147.367 150.129 124.014
147.564 150.245 124.561
147.476 150.523 123.401
147.383 149.97 123.817
147.335 149.862 124.279
150.174 151.09 123.167
150.396 151.25 123.108
150.279 151.414 122.978
150.658 151.419 123.1
150.454 151.137 123.399
149.982 150.766 123.369
149.954 150.91 123.109
150.194 151.518 122.628
150.426 151.661 122.75
150.267 150.904 123.733
150.013 150.712 123.751
150.173 150.554 124.155
149.861 150.518 123.633
150.489 151.038 123.823
150.433 150.321 124.228
150.228 150.185 124.215
149.853 150.982 122.818
149.959 151.306 122.597
149.706 151.173 122.629
149.95 151.607 122.415
149.755 150.696 122.977
149.471 151.015 122.652
149.519 151.249 122.417
150.629 151.85 122.827
150.845 151.656 122.898
150.9 151.966 122.827
151.004 151.479 123.081
150.337 151.904 122.573
150.834 152.195 122.633
151.224 152.008 122.837
149.355 149.883 123.824
149.483 150.15 123.531
149.298 149.987 123.49
149.628 150.419 123.246
149.66 150.315 123.609
149.564 149.719 124.143
149.308 149.583 124.085
149.048 149.792 123.289
149.198 150.095 123.088
149.798 150.187 123.937
149.818 149.906 124.097
150.004 150.024 124.193
149.887 149.557 124.376
150.325 149.911 124.357
149.019 149.477 123.857
148.874 149.553 123.489
148.725 149.286 123.68
148.813 149.698 123.158
149.232 149.366 124.157
148.618 149.019 123.802
148.459 149.183 123.51
149.261 150.458 122.982
149.549 150.547 122.917
149.389 150.69 122.755
149.034 150.347 122.953
149.248 150.856 122.58
149.808 151.85 124.488
149.637 152.175 124.237
149.944 152.199 124.15
149.458 152.448 124.006
149.324 152.165 124.139
149.642 151.637 124.772
149.888 151.562 124.7
150.305 152.251 124.199
150.156 152.577 124.076
149.25 151.93 124.469
149.31 151.661 124.761
149.051 151.624 124.716
150.087 151.597 124.659
150.267 151.935 124.353
150.295 151.645 124.593
150.092 152.827 123.971
149.677 152.722 123.894
149.918 153.002 123.724
148.723 152.93 122.149
148.67 152.782 121.781
148.985 153.137 121.858
148.481 152.753 121.344
148.328 152.548 121.635
148.49 152.677 122.367
148.82 152.921 122.503
149.342 153.406 121.935
149.285 153.406 121.565
148.162 152.397 122
148.272 152.443 122.323
147.955 152.192 122.281
149.19 153.136 122.588
149.439 153.39 122.288
149.546 153.274 122.718
149.196 153.424 121.075
148.805 153.014 121.102
149.178 153.279 120.538
151.318 151.084 124.094
151.111 151.406 123.96
150.979 151.219 123.837
151.177 151.738 123.627
151.042 151.613 123.974
151.368 151.049 124.464
151.357 150.668 124.252
150.756 151.121 123.837
150.983 151.388 123.493
150.983 151.59 124.209
151.188 151.355 124.566
150.943 151.476 124.554
151.051 150.458 124.094
150.649 150.785 124.062
150.708 150.409 124.241
151.335 151.661 123.122
151.442 151.919 123.264
151.328 151.995 122.964
150.254 152.317 121.599
149.965 152.184 121.638
150.114 152.159 121.909
149.743 151.92 121.584
149.735 152.075 121.309
150.339 152.539 121.276
150.38 152.505 121.671
150.23 151.981 122.221
149.997 151.853 122.16
149.845 152.298 120.945
150.169 152.546 120.958
149.887 152.533 120.77
150.554 152.38 121.94
150.445 152.088 122.267
150.724 152.286 122.31
149.791 151.716 122.138
149.632 151.707 121.927
149.548 151.496 122.154
148.283 149.999 125.407
148.022 149.739 125.251
148.034 150.089 125.113
147.699 149.488 125.264
148.006 149.338 125.453
148.585 149.83 125.745
148.563 150.229 125.372
148.019 150.417 124.919
147.746 150.187 124.888
148.406 149.27 125.664
148.75 149.566 125.796
148.834 149.282 125.778
148.537 150.54 125.117
148.246 150.611 124.924
148.476 150.885 125
147.51 149.933 124.841
147.477 149.602 124.98
147.388 149.756 124.657
147.044 150.41 122.612
147.138 150.695 122.395
147.208 150.62 122.743
147.304 151.033 122.178
147.153 150.805 122.038
146.899 150.263 122.473
147.15 150.209 122.891
147.362 150.587 123.084
147.373 150.864 122.88
147.055 150.61 121.898
146.89 150.316 122.135
146.983 150.323 121.778
147.325 150.157 123.196
147.484 150.364 123.272
147.448 150.061 123.471
147.483 151.135 122.706
147.428 151.246 122.313
147.615 151.382 122.521
149.542 148.527 124.794
150.097 148.687 124.872
149.769 148.888 124.555
150.592 148.738 124.899
150.276 148.703 125.177
149.236 148.513 124.982
148.991 148.527 124.615
149.468 149.12 124.414
149.89 149.215 124.479
149.9 148.742 125.418
149.399 148.591 125.248
149.533 148.877 125.441
148.873 148.693 124.33
149.11 149.003 124.252
148.71 148.885 124.067
150.16 149.382 124.53
150.611 149.102 124.666
150.493 149.561 124.474
148.436 150.348 122.308
148.308 150.105 122.548
148.581 150.199 122.719
148.177 149.796 122.827
148.058 150.028 122.508
148.32 150.545 122.016
148.57 150.552 122.072
148.797 150.278 122.868
148.709 149.96 123.007
147.952 150.174 122.196
148.098 150.446 121.977
147.867 150.335 121.902
148.818 150.637 122.243
148.909 150.564 122.643
149.086 150.745 122.417
148.536 149.586 123.135
148.304 149.536 123.122
148.401 149.27 123.287
POLYGONS 1280  5120
3 164 162 163
3 163 44 164
3 162 43 163
3 164 42 162
3 166 165 163
3 163 43 166
3 165 44 163
3 166 14 165
3 168 167 162
3 162 42 168
3 167 43 162
3 168 13 167
3 170 169 164
3 164 44 170
3 169 42 164
3 170 12 169
3 173 171 172
3 172 46 173
3 171 43 172
3 173 45 171
3 167 174 172
3 172 43 167
3 174 46 172
3 167 13 174
3 175 166 171
3 171 45 175
3 166 43 171
3 175 14 166
3 177 176 173
3 173 46 177
3 176 45 173
3 177 4 176
3 180 178 179
3 179 48 180
3 178 42 179
3 180 47 178
3 169 181 179
3 179 42 169
3 181 48 179
3 169 12 181
3 182 168 178
3 178 47 182
3 168 42 178
3 182 13 168
3 184 183 180
3 180 48 184
3 183 47 180
3 184 8 183
3 187 185 186
3 186 50 187
3 185 44 186
3 187 49 185
3 165 188 186
3 186 44 165
3 188 50 186
3 165 14 188
3 189 170 185
3 185 49 189
3 170 44 185
3 189 12 170
3 191 190 187
3 187 50 191
3 190 49 187
3 191 7 190
3 194 192 193
3 193 53 194
3 192 52 193
3 194 51 192
3 196 195 193
3 193 52 196
3 195 53 193
3 196 16 195
3 198 197 192
3 192 51 198
3 197 52 192
3 198 14 197
3 200 199 194
3 194 53 200
3 199 51 194
3 200 15 199
3 203 201 202
3 202 45 203
3 201 52 202
3 203 54 201
3 197 175 202
3 202 52 197
3 175 45 202
3 197 14 175
3 204 196 201
3 201 54 204
3 196 52 201
3 204 16 196
3 176 205 203
3 203 45 176
3 205 54 203
3 176 4 205
3 208 206 207
3 207 55 208
3 206 51 207
3 208 50 206
3 199 209 207
3 207 51 199
3 209 55 207
3 199 15 209
3 188 198 206
3 206 50 188
3 198 51 206
3 188 14 198
3 210 191 208
3 208 55 210
3 191 50 208
3 210 7 191
3 213 211 212
3 212 57 213
3 211 53 212
3 213 56 211
3 195 214 212
3 212 53 195
3 214 57 212
3 195 16 214
3 215 200 211
3 211 56 215
3 200 53 211
3 215 15 200
3 217 216 213
3 213 57 217
3 216 56 213
3 217 9 216
3 220 218 219
3 219 60 220
3 218 59 219
3 220 58 218
3 222 221 219
3 219 59 222
3 221 60 219
3 222 19 221
3 224 223 218
3 218 58 224
3 223 59 218
3 224 18 223
3 226 225 220
3 220 60 226
3 225 58 220
3 226 17 225
3 229 227 228
3 228 62 229
3 227 59 228
3 229 61 227
3 223 230 228
3 228 59 223
3 230 62 228
3 223 18 230
3 231 222 227
3 227 61 231
3 222 59 227
3 231 19 222
3 233 232 229
3 229 62 233
3 232 61 229
3 233 5 232
3 236 234 235
3 235 64 236
3 234 58 235
3 236 63 234
3 225 237 235
3 235 58 225
3 237 64 235
3 225 17 237
3 238 224 234
3 234 63 238
3 224 58 234
3 238 18 224
3 240 239 236
3 236 64 240
3 239 63 236
3 240 6 239
3 243 241 242
3 242 66 243
3 241 60 242
3 243 65 241
3 221 244 242
3 242 60 221
3 244 66 242
3 221 19 244
3 245 226 241
3 241 65 245
3 226 60 241
3 245 17 226
3 247 246 243
3 243 66 247
3 246 65 243
3 247 11 246
3 250 248 249
3 249 69 250
3 248 68 249
3 250 67 248
3 252 251 249
3 249 68 252
3 251 69 249
3 252 18 251
3 254 253 248
3 248 67 254
3 253 68 248
3 254 21 253
3 256 255 250
3 250 69 256
3 255 67 250
3 256 20 255
3 259 257 258
3 258 70 259
3 257 68 258
3 259 62 257
3 253 260 258
3 258 68 253
3 260 70 258
3 253 21 260
3 230 252 257
3 257 62 230
3 252 68 257
3 230 18 252
3 261 233 259
3 259 70 261
3 233 62 259
3 261 5 233
3 264 262 263
3 263 72 264
3 262 67 263
3 264 71 262
3 255 265 263
3 263 67 255
3 265 72 263
3 255 20 265
3 266 254 262
3 262 71 266
3 254 67 262
3 266 21 254
3 268 267 264
3 264 72 268
3 267 71 264
3 268 10 267
3 271 269 270
3 270 63 271
3 269 69 270
3 271 73 269
3 251 238 270
3 270 69 251
3 238 63 270
3 251 18 238
3 272 256 269
3 269 73 272
3 256 69 269
3 272 20 256
3 239 273 271
3 271 63 239
3 273 73 271
3 239 6 273
3 276 274 275
3 275 76 276
3 274 75 275
3 276 74 274
3 278 277 275
3 275 75 278
3 277 76 275
3 278 24 277
3 280 279 274
3 274 74 280
3 279 75 274
3 280 23 279
3 282 281 276
3 276 76 282
3 281 74 276
3 282 22 281
3 285 283 284
3 284 78 285
3 283 75 284
3 285 77 283
3 279 286 284
3 284 75 279
3 286 78 284
3 279 23 286
3 287 278 283
3 283 77 287
3 278 75 283
3 287 24 278
3 289 288 285
3 285 78 289
3 288 77 285
3 289 0 288
3 292 290 291
3 291 80 292
3 290 74 291
3 292 79 290
3 281 293 291
3 291 74 281
3 293 80 291
3 281 22 293
3 294 280 290
3 290 79 294
3 280 74 290
3 294 23 280
3 296 295 292
3 292 80 296
3 295 79 292
3 296 4 295
3 299 297 298
3 298 82 299
3 297 76 298
3 299 81 297
3 277 300 298
3 298 76 277
3 300 82 298
3 277 24 300
3 301 282 297
3 297 81 301
3 282 76 297
3 301 22 282
3 303 302 299
3 299 82 303
3 302 81 299
3 303 3 302
3 306 304 305
3 305 85 306
3 304 84 305
3 306 83 304
3 308 307 305
3 305 84 308
3 307 85 305
3 308 26 307
3 310 309 304
3 304 83 310
3 309 84 304
3 310 24 309
3 312 311 306
3 306 85 312
3 311 83 306
3 312 25 311
3 315 313 314
3 314 77 315
3 313 84 314
3 315 86 313
3 309 287 314
3 314 84 309
3 287 77 314
3 309 24 287
3 316 308 313
3 313 86 316
3 308 84 313
3 316 26 308
3 288 317 315
3 315 77 288
3 317 86 315
3 288 0 317
3 320 318 319
3 319 87 320
3 318 83 319
3 320 82 318
3 311 321 319
3 319 83 311
3 321 87 319
3 311 25 321
3 300 310 318
3 318 82 300
3 310 83 318
3 300 24 310
3 322 303 320
3 320 87 322
3 303 82 320
3 322 3 303
3 325 323 324
3 324 89 325
3 323 85 324
3 325 88 323
3 307 326 324
3 324 85 307
3 326 89 324
3 307 26 326
3 327 312 323
3 323 88 327
3 312 85 323
3 327 25 312
3 329 328 325
3 325 89 329
3 328 88 325
3 329 5 328
3 332 330 331
3 331 92 332
3 330 91 331
3 332 90 330
3 334 333 331
3 331 91 334
3 333 92 331
3 334 29 333
3 336 335 330
3 330 90 336
3 335 91 330
3 336 28 335
3 338 337 332
3 332 92 338
3 337 90 332
3 338 27 337
3 341 339 340
3 340 94 341
3 339 91 340
3 341 93 339
3 335 342 340
3 340 91 335
3 342 94 340
3 335 28 342
3 343 334 339
3 339 93 343
3 334 91 339
3 343 29 334
3 345 344 341
3 341 94 345
3 344 93 341
3 345 2 344
3 348 346 347
3 347 96 348
3 346 90 347
3 348 95 346
3 337 349 347
3 347 90 337
3 349 96 347
3 337 27 349
3 350 336 346
3 346 95 350
3 336 90 346
3 350 28 336
3 352 351 348
3 348 96 352
3 351 95 348
3 352 7 351
3 355 353 354
3 354 98 355
3 353 92 354
3 355 97 353
3 333 356 354
3 354 92 333
3 356 98 354
3 333 29 356
3 357 338 353
3 353 97 357
3 338 92 353
3 357 27 338
3 359 358 355
3 355 98 359
3 358 97 355
3 359 1 358
3 362 360 361
3 361 101 362
3 360 100 361
3 362 99 360
3 364 363 361
3 361 100 364
3 363 101 361
3 364 31 363
3 366 365 360
3 360 99 366
3 365 100 360
3 366 29 365
3 368 367 362
3 362 101 368
3 367 99 362
3 368 30 367
3 371 369 370
3 370 93 371
3 369 100 370
3 371 102 369
3 365 343 370
3 370 100 365
3 343 93 370
3 365 29 343
3 372 364 369
3 369 102 372
3 364 100 369
3 372 31 364
3 344 373 371
3 371 93 344
3 373 102 371
3 344 2 373
3 376 374 375
3 375 103 376
3 374 99 375
3 376 98 374
3 367 377 375
3 375 99 367
3 377 103 375
3 367 30 377
3 356 366 374
3 374 98 356
3 366 99 374
3 356 29 366
3 378 359 376
3 376 103 378
3 359 98 376
3 378 1 359
3 381 379 380
3 380 105 381
3 379 101 380
3 381 104 379
3 363 382 380
3 380 101 363
3 382 105 380
3 363 31 382
3 383 368 379
3 379 104 383
3 368 101 379
3 383 30 368
3 385 384 381
3 381 105 385
3 384 104 381
3 385 6 384
3 388 386 387
3 387 108 388
3 386 107 387
3 388 106 386
3 390 389 387
3 387 107 390
3 389 108 387
3 390 34 389
3 392 391 386
3 386 106 392
3 391 107 386
3 392 33 391
3 394 393 388
3 388 108 394
3 393 106 388
3 394 32 393
3 397 395 396
3 396 110 397
3 395 107 396
3 397 109 395
3 391 398 396
3 396 107 391
3 398 110 396
3 391 33 398
3 399 390 395
3 395 109 399
3 390 107 395
3 399 34 390
3 401 400 397
3 397 110 401
3 400 109 397
3 401 8 400
3 404 402 403
3 403 112 404
3 402 106 403
3 404 111 402
3 393 405 403
3 403 106 393
3 405 112 403
3 393 32 405
3 406 392 402
3 402 111 406
3 392 106 402
3 406 33 392
3 408 407 404
3 404 112 408
3 407 111 404
3 408 0 407
3 411 409 410
3 410 114 411
3 409 108 410
3 411 113 409
3 389 412 410
3 410 108 389
3 412 114 410
3 389 34 412
3 413 394 409
3 409 113 413
3 394 108 409
3 413 32 394
3 415 414 411
3 411 114 415
3 414 113 411
3 415 11 414
3 418 416 417
3 417 117 418
3 416 116 417
3 418 115 416
3 420 419 417
3 417 116 420
3 419 117 417
3 420 36 419
3 422 421 416
3 416 115 422
3 421 116 416
3 422 34 421
3 424 423 418
3 418 117 424
3 423 115 418
3 424 35 423
3 427 425 426
3 426 109 427
3 425 116 426
3 427 118 425
3 421 399 426
3 426 116 421
3 399 109 426
3 421 34 399
3 428 420 425
3 425 118 428
3 420 116 425
3 428 36 420
3 400 429 427
3 427 109 400
3 429 118 427
3 400 8 429
3 432 430 431
3 431 119 432
3 430 115 431
3 432 114 430
3 423 433 431
3 431 115 423
3 433 119 431
3 423 35 433
3 412 422 430
3 430 114 412
3 422 115 430
3 412 34 422
3 434 415 432
3 432 119 434
3 415 114 432
3 434 11 415
3 437 435 436
3 436 121 437
3 435 117 436
3 437 120 435
3 419 438 436
3 436 117 419
3 438 121 436
3 419 36 438
3 439 424 435
3 435 120 439
3 424 117 435
3 439 35 424
3 441 440 437
3 437 121 441
3 440 120 437
3 441 1 440
3 444 442 443
3 443 124 444
3 442 123 443
3 444 122 442
3 446 445 443
3 443 123 446
3 445 124 443
3 446 39 445
3 448 447 442
3 442 122 448
3 447 123 442
3 448 38 447
3 450 449 444
3 444 124 450
3 449 122 444
3 450 37 449
3 453 451 452
3 452 126 453
3 451 123 452
3 453 125 451
3 447 454 452
3 452 123 447
3 454 126 452
3 447 38 454
3 455 446 451
3 451 125 455
3 446 123 451
3 455 39 446
3 457 456 453
3 453 126 457
3 456 125 453
3 457 9 456
3 460 458 459
3 459 128 460
3 458 122 459
3 460 127 458
3 449 461 459
3 459 122 449
3 461 128 459
3 449 37 461
3 462 448 458
3 458 127 462
3 448 122 458
3 462 38 448
3 464 463 460
3 460 128 464
3 463 127 460
3 464 10 463
3 467 465 466
3 466 130 467
3 465 124 466
3 467 129 465
3 445 468 466
3 466 124 445
3 468 130 466
3 445 39 468
3 469 450 465
3 465 129 469
3 450 124 465
3 469 37 450
3 471 470 467
3 467 130 471
3 470 129 467
3 471 3 470
3 474 472 473
3 473 133 474
3 472 132 473
3 474 131 472
3 476 475 473
3 473 132 476
3 475 133 473
3 476 38 475
3 478 477 472
3 472 131 478
3 477 132 472
3 478 41 477
3 480 479 474
3 474 133 480
3 479 131 474
3 480 40 479
3 483 481 482
3 482 134 483
3 481 132 482
3 483 126 481
3 477 484 482
3 482 132 477
3 484 134 482
3 477 41 484
3 454 476 481
3 481 126 454
3 476 132 481
3 454 38 476
3 485 457 483
3 483 134 485
3 457 126 483
3 485 9 457
3 488 486 487
3 487 136 488
3 486 131 487
3 488 135 486
3 479 489 487
3 487 131 479
3 489 136 487
3 479 40 489
3 490 478 486
3 486 135 490
3 478 131 486
3 490 41 478
3 492 491 488
3 488 136 492
3 491 135 488
3 492 2 491
3 495 493 494
3 494 127 495
3 493 133 494
3 495 137 493
3 475 462 494
3 494 133 475
3 462 127 494
3 475 38 462
3 496 480 493
3 493 137 496
3 480 133 493
3 496 40 480
3 463 497 495
3 495 127 463
3 497 137 495
3 463 10 497
3 500 498 499
3 499 140 500
3 498 139 499
3 500 138 498
3 502 501 499
3 499 139 502
3 501 140 499
3 502 33 501
3 504 503 498
3 498 138 504
3 503 139 498
3 504 13 503
3 506 505 500
3 500 140 506
3 505 138 500
3 506 23 505
3 509 507 508
3 508 47 509
3 507 139 508
3 509 110 507
3 503 182 508
3 508 139 503
3 182 47 508
3 503 13 182
3 398 502 507
3 507 110 398
3 502 139 507
3 398 33 502
3 183 401 509
3 509 47 183
3 401 110 509
3 183 8 401
3 512 510 511
3 511 79 512
3 510 138 511
3 512 46 510
3 505 294 511
3 511 138 505
3 294 79 511
3 505 23 294
3 174 504 510
3 510 46 174
3 504 138 510
3 174 13 504
3 295 177 512
3 512 79 295
3 177 46 512
3 295 4 177
3 515 513 514
3 514 111 515
3 513 140 514
3 515 78 513
3 501 406 514
3 514 140 501
3 406 111 514
3 501 33 406
3 286 506 513
3 513 78 286
3 506 140 513
3 286 23 506
3 407 289 515
3 515 111 407
3 289 78 515
3 407 0 289
3 518 516 517
3 517 143 518
3 516 142 517
3 518 141 516
3 520 519 517
3 517 142 520
3 519 143 517
3 520 19 519
3 522 521 516
3 516 141 522
3 521 142 516
3 522 32 521
3 524 523 518
3 518 143 524
3 523 141 518
3 524 26 523
3 527 525 526
3 526 113 527
3 525 142 526
3 527 66 525
3 521 413 526
3 526 142 521
3 413 113 526
3 521 32 413
3 244 520 525
3 525 66 244
3 520 142 525
3 244 19 520
3 414 247 527
3 527 113 414
3 247 66 527
3 414 11 247
3 530 528 529
3 529 86 530
3 528 141 529
3 530 112 528
3 523 316 529
3 529 141 523
3 316 86 529
3 523 26 316
3 405 522 528
3 528 112 405
3 522 141 528
3 405 32 522
3 317 408 530
3 530 86 317
3 408 112 530
3 317 0 408
3 533 531 532
3 532 61 533
3 531 143 532
3 533 89 531
3 519 231 532
3 532 143 519
3 231 61 532
3 519 19 231
3 326 524 531
3 531 89 326
3 524 143 531
3 326 26 524
3 232 329 533
3 533 61 232
3 329 89 533
3 232 5 329
3 536 534 535
3 535 146 536
3 534 145 535
3 536 144 534
3 538 537 535
3 535 145 538
3 537 146 535
3 538 22 537
3 540 539 534
3 534 144 540
3 539 145 534
3 540 16 539
3 542 541 536
3 536 146 542
3 541 144 536
3 542 39 541
3 545 543 544
3 544 54 545
3 543 145 544
3 545 80 543
3 539 204 544
3 544 145 539
3 204 54 544
3 539 16 204
3 293 538 543
3 543 80 293
3 538 145 543
3 293 22 538
3 205 296 545
3 545 54 205
3 296 80 545
3 205 4 296
3 548 546 547
3 547 125 548
3 546 144 547
3 548 57 546
3 541 455 547
3 547 144 541
3 455 125 547
3 541 39 455
3 214 540 546
3 546 57 214
3 540 144 546
3 214 16 540
3 456 217 548
3 548 125 456
3 217 57 548
3 456 9 217
3 551 549 550
3 550 81 551
3 549 146 550
3 551 130 549
3 537 301 550
3 550 146 537
3 301 81 550
3 537 22 301
3 468 542 549
3 549 130 468
3 542 146 549
3 468 39 542
3 302 471 551
3 551 81 302
3 471 130 551
3 302 3 471
3 554 552 553
3 553 149 554
3 552 148 553
3 554 147 552
3 556 555 553
3 553 148 556
3 555 149 553
3 556 21 555
3 558 557 552
3 552 147 558
3 557 148 552
3 558 25 557
3 560 559 554
3 554 149 560
3 559 147 554
3 560 37 559
3 563 561 562
3 562 88 563
3 561 148 562
3 563 70 561
3 557 327 562
3 562 148 557
3 327 88 562
3 557 25 327
3 260 556 561
3 561 70 260
3 556 148 561
3 260 21 556
3 328 261 563
3 563 88 328
3 261 70 563
3 328 5 261
3 566 564 565
3 565 129 566
3 564 147 565
3 566 87 564
3 559 469 565
3 565 147 559
3 469 129 565
3 559 37 469
3 321 558 564
3 564 87 321
3 558 147 564
3 321 25 558
3 470 322 566
3 566 129 470
3 322 87 566
3 470 3 322
3 569 567 568
3 568 71 569
3 567 149 568
3 569 128 567
3 555 266 568
3 568 149 555
3 266 71 568
3 555 21 266
3 461 560 567
3 567 128 461
3 560 149 567
3 461 37 560
3 267 464 569
3 569 71 267
3 464 128 569
3 267 10 464
3 572 570 571
3 571 152 572
3 570 151 571
3 572 150 570
3 574 573 571
3 571 151 574
3 573 152 571
3 574 27 573
3 576 575 570
3 570 150 576
3 575 151 570
3 576 12 575
3 578 577 572
3 572 152 578
3 577 150 572
3 578 36 577
3 581 579 580
3 580 49 581
3 579 151 580
3 581 96 579
3 575 189 580
3 580 151 575
3 189 49 580
3 575 12 189
3 349 574 579
3 579 96 349
3 574 151 579
3 349 27 574
3 190 352 581
3 581 49 190
3 352 96 581
3 190 7 352
3 584 582 583
3 583 118 584
3 582 150 583
3 584 48 582
3 577 428 583
3 583 150 577
3 428 118 583
3 577 36 428
3 181 576 582
3 582 48 181
3 576 150 582
3 181 12 576
3 429 184 584
3 584 118 429
3 184 48 584
3 429 8 184
3 587 585 586
3 586 97 587
3 585 152 586
3 587 121 585
3 573 357 586
3 586 152 573
3 357 97 586
3 573 27 357
3 438 578 585
3 585 121 438
3 578 152 585
3 438 36 578
3 358 441 587
3 587 97 358
3 441 121 587
3 358 1 441
3 590 588 589
3 589 155 590
3 588 154 589
3 590 153 588
3 592 591 589
3 589 154 592
3 591 155 589
3 592 17 591
3 594 593 588
3 588 153 594
3 593 154 588
3 594 30 593
3 596 595 590
3 590 155 596
3 595 153 590
3 596 35 595
3 599 597 598
3 598 104 599
3 597 154 598
3 599 64 597
3 593 383 598
3 598 154 593
3 383 104 598
3 593 30 383
3 237 592 597
3 597 64 237
3 592 154 597
3 237 17 592
3 384 240 599
3 599 104 384
3 240 64 599
3 384 6 240
3 602 600 601
3 601 120 602
3 600 153 601
3 602 103 600
3 595 439 601
3 601 153 595
3 439 120 601
3 595 35 439
3 377 594 600
3 600 103 377
3 594 153 600
3 377 30 594
3 440 378 602
3 602 120 440
3 378 103 602
3 440 1 378
3 605 603 604
3 604 65 605
3 603 155 604
3 605 119 603
3 591 245 604
3 604 155 591
3 245 65 604
3 591 17 245
3 433 596 603
3 603 119 433
3 596 155 603
3 433 35 596
3 246 434 605
3 605 65 246
3 434 119 605
3 246 11 434
3 608 606 607
3 607 158 608
3 606 157 607
3 608 156 606
3 610 609 607
3 607 157 610
3 609 158 607
3 610 15 609
3 612 611 606
3 606 156 612
3 611 157 606
3 612 28 611
3 614 613 608
3 608 158 614
3 613 156 608
3 614 41 613
3 617 615 616
3 616 95 617
3 615 157 616
3 617 55 615
3 611 350 616
3 616 157 611
3 350 95 616
3 611 28 350
3 209 610 615
3 615 55 209
3 610 157 615
3 209 15 610
3 351 210 617
3 617 95 351
3 210 55 617
3 351 7 210
3 620 618 619
3 619 135 620
3 618 156 619
3 620 94 618
3 613 490 619
3 619 156 613
3 490 135 619
3 613 41 490
3 342 612 618
3 618 94 342
3 612 156 618
3 342 28 612
3 491 345 620
3 620 135 491
3 345 94 620
3 491 2 345
3 623 621 622
3 622 56 623
3 621 158 622
3 623 134 621
3 609 215 622
3 622 158 609
3 215 56 622
3 609 15 215
3 484 614 621
3 621 134 484
3 614 158 621
3 484 41 614
3 216 485 623
3 623 56 216
3 485 134 623
3 216 9 485
3 626 624 625
3 625 161 626
3 624 160 625
3 626 159 624
3 628 627 625
3 625 160 628
3 627 161 625
3 628 31 627
3 630 629 624
3 624 159 630
3 629 160 624
3 630 20 629
3 632 631 626
3 626 161 632
3 631 159 626
3 632 40 631
3 635 633 634
3 634 73 635
3 633 160 634
3 635 105 633
3 629 272 634
3 634 160 629
3 272 73 634
3 629 20 272
3 382 628 633
3 633 105 382
3 628 160 633
3 382 31 628
3 273 385 635
3 635 73 273
3 385 105 635
3 273 6 385
3 638 636 637
3 637 137 638
3 636 159 637
3 638 72 636
3 631 496 637
3 637 159 631
3 496 137 637
3 631 40 496
3 265 630 636
3 636 72 265
3 630 159 636
3 265 20 630
3 497 268 638
3 638 137 497
3 268 72 638
3 497 10 268
3 641 639 640
3 640 102 641
3 639 161 640
3 641 136 639
3 627 372 640
3 640 161 627
3 372 102 640
3 627 31 372
3 489 632 639
3 639 136 489
3 632 161 639
3 489 40 632
3 373 492 641
3 641 102 373
3 492 136 641
3 373 2 492
