# vtk DataFile Version 3.0
this file was written using fslvtkio
ASCII
DATASET POLYDATA
POINTS 642 float
113.798 114.006 157.004
97.0522 98.2608 171.508
98.5745 96.8668 161.089
113.418 113.5 143.953
128.478 102.548 152.592
98.1196 119.037 151.912
84.0202 107.145 162.244
114.525 93.738 160.85
112.978 104.735 164.913
114.556 95.863 148.228
97.8547 106.092 154.368
96.9299 113.97 166.5
113.627 98.7618 163.769
123.021 102.804 160.136
121.25 96.1413 157.281
115.628 91.7063 153.158
123.599 98.1217 149.29
87.1007 111.471 166.569
90.4265 114.405 155.829
95.56 118.366 158.532
90.2365 106.396 156.709
98.0175 111.714 153.857
127.657 111.15 142.476
122.016 109.181 153.22
116.121 114.656 148.39
106.435 115.732 149.061
104.823 117.37 154.94
105.783 96.2849 166.23
107.251 93.2731 160.547
94.4252 94.4992 168.67
85.559 100.71 171.215
88.9661 99.901 163.067
105.607 115.398 162.492
115.714 109.904 162.411
106.31 109.391 168.004
95.7445 105.149 170.61
105.2 101.241 169.408
104.901 109.181 150.777
107.052 102.447 149.858
116.766 102.788 146.808
98.056 101.51 156.773
106.455 95.3385 153.984
118.35 99.7934 162.253
124.382 98.1715 159.866
119.525 95.9938 162.241
125.253 99.2673 154.879
127.448 102.278 156.559
116.717 103.945 161.746
113.752 101.863 164.535
114.923 95.3689 162.894
118.745 93.8576 159.353
119.542 93.93 154.187
122.235 96.841 152.463
120.786 94.2491 150.122
126.269 100.605 150.623
116.175 92.5849 156.931
115.226 93.4418 148.751
119.905 96.8646 147.51
87.192 114.384 160.334
91.6864 117.782 156.501
90.2594 116.967 161.947
95.8926 120.655 153.503
94.4089 117.324 153.215
87.3878 110.979 158.618
84.4204 109.161 164.831
91.726 113.323 165.989
95.3002 117.226 163.062
94.2016 108.603 156.323
94.5734 112.191 155.256
89.5668 110.181 155.737
98.5499 114.536 154.12
97.2905 108.818 154.48
94.186 106.331 156.291
84.8272 107.643 157.964
126.946 110.751 147.2
118.554 110.077 151.059
124.02 115.969 141.411
114.599 114.775 153.191
117.73 111.959 155.353
126.919 106.189 152.385
128.513 105.655 148.159
119.509 114.258 140.139
116.566 114.793 144.624
111.196 117.131 146.543
110.512 118.063 150.818
105.803 119.347 149.514
110.004 115.435 155.952
110.271 114.09 146.91
102.279 118.228 150.395
100.52 119.883 152.489
105.764 96.2758 162.89
101.08 96.8702 163.81
100.32 94.4547 168.2
96.4379 96.3309 164.393
102.686 94.7434 160.961
111.828 92.8654 160.259
110.21 96.6249 162.542
101.261 95.7385 170.571
94.5455 95.0477 171.545
88.9767 96.6686 170.74
90.4787 96.5696 166.31
86.3343 100.38 166.942
93.9412 98.5777 161.81
92.5046 99.8149 170.936
82.8252 104.191 167.367
85.6834 103.767 162.59
110.832 113.322 163.423
111.395 109.975 165.619
106.248 112.773 165.633
110.291 106.704 167.521
114.631 107.009 163.846
115.598 112.524 159.784
110.058 115.075 160.135
100.873 115.392 164.946
101.545 111.805 167.988
100.959 107.18 169.815
105.084 105.346 169.148
100.942 102.993 171.148
109.572 103.067 167.298
95.8676 109.879 168.663
96.3606 101.069 171.868
101.47 99.4618 170.864
105.442 105.961 149.074
110.492 102.358 147.463
109.496 106.238 147.472
116.292 98.9688 147.48
111.649 98.53 149.669
101.626 104.57 151.999
101.379 107.314 152.712
108.979 111.166 147.149
115.168 108.214 145.309
103.468 99.0678 156.412
107.949 98.1298 153.277
102.59 101.954 152.82
110.256 94.265 150.572
102.741 97.3189 157.455
98.3661 99.2906 158.929
97.6389 103.551 155.348
124.047 106.331 157.102
118.557 106.615 159.803
120.03 109.554 158.019
105.209 115.926 158.744
100.139 117.903 160.793
100.053 119.231 156.819
121.925 100.208 147.644
127.414 103.739 146.49
122.813 105.261 146.232
105.031 112.828 149.658
101.598 114.512 151.127
100.811 111.042 151.851
109.493 99.9934 166.832
109.561 98.1352 165.055
106.109 97.0297 169.525
90.6702 102.999 171.378
84.3061 105.934 170.147
90.9988 108.15 168.951
106.936 95.3296 155.961
111.443 92.6596 155.799
109.155 91.6893 152.683
92.8819 103.77 156.972
88.7706 103.362 159.219
92.7558 100.852 159.573
121.878 98.6508 161.88
121.557 96.6717 161.379
119.35 97.2786 162.795
121.087 95.6212 159.888
122.764 97.0733 158.758
124.493 100.424 160.3
121.108 101.112 161.51
116.328 98.981 163.068
117.037 96.8445 163.192
125.531 98.5808 157.379
126.257 99.9707 158.444
126.912 100.541 156.043
125.349 102.349 158.479
123.132 97.6139 155.994
127.208 100.871 153.548
127.79 102.71 154.398
117.662 102.04 161.818
115.716 101.014 162.857
115.268 102.769 163.014
113.681 100.097 164.19
119.418 103.244 161.144
114.755 104.348 163.407
113.736 103.329 164.466
117.416 95.0754 162.88
119.433 94.216 161.292
117.264 94.1025 161.703
120.232 94.4895 158.896
114.356 97.0499 163.381
115.033 94.1494 162.161
116.655 93.6283 160.136
122.05 94.6587 153.367
121.722 95.3988 151.196
121.52 92.7981 152.047
121.469 96.5921 149.755
122.742 97.6961 150.761
121.452 96.3772 155.037
120.731 94.6636 156.17
118.448 92.1545 153.43
118.76 92.4743 151.236
124.044 98.821 151.702
123.629 97.9208 153.634
125.665 99.7841 152.311
125.299 99.3366 149.831
127.48 101.565 151.372
120.051 93.1044 157.158
118.419 92.5516 155.78
117.869 93.1615 157.815
116.401 92.0109 154.966
115.504 93.551 158.681
117.684 93.4874 149.451
120.22 95.4262 148.235
117.35 94.6168 147.54
121.629 97.4777 148.386
114.956 92.2332 151.122
114.747 94.7618 148.516
116.738 96.4445 147.42
89.4496 116.471 158.042
90.6401 117.852 159.147
88.6438 115.698 161.004
92.9771 117.97 160.118
93.5503 118.404 157.341
90.7285 116.664 155.208
88.6661 114.634 157.391
86.7806 113.321 163.25
88.4645 114.391 163.918
94.0857 119.082 154.723
92.8159 118.119 153.845
94.8533 119.413 152.93
92.7221 115.826 154.444
95.9704 119.327 156.227
96.7358 120.326 152.232
96.3257 118.514 152.389
87.4657 112.608 159.343
85.9851 111.7 162.381
86.1191 110.455 161.338
84.8606 110.451 165.841
88.9076 112.689 157.2
85.3535 109.006 160.383
84.4095 108.243 163.202
90.6198 115.188 164.241
92.9178 117.015 162.461
93.0588 115.562 164.445
95.16 118.218 160.955
89.4673 112.592 165.998
94.4011 113.731 166.153
96.0413 115.539 164.852
94.5102 110.425 155.657
91.9049 111.2 155.303
91.9271 109.411 155.621
90.2429 111.988 156.341
92.5105 113.08 155.543
96.9868 111.321 155.422
96.378 109.879 155.208
92.1057 107.485 156.835
89.4917 107.942 156.377
94.5536 114.292 154.568
96.754 113.084 155.038
96.2135 115.715 153.704
99.0327 112.787 154.235
98.1679 117.109 152.468
95.8052 108.852 155.146
93.9748 107.403 156.479
95.7247 107.559 155.681
92.4927 106.265 157.107
97.4663 110.434 153.848
97.3431 107.494 154.59
95.7518 106.232 155.341
86.6145 108.839 156.579
87.526 110.591 156.865
84.9243 109.23 158.17
87.2745 106.874 157.041
83.8754 107.609 160.013
123.379 111.05 149.401
122.15 113.216 147.366
126.833 114.089 144.169
120.214 114.656 145.264
117.87 112.043 150.079
120.119 109.622 152.099
124.061 109.491 150.682
128.558 111.213 144.107
126.521 114.555 140.888
116.208 111.903 152.341
117.611 111.062 153.12
116.651 113.847 153.878
119.773 110.483 154.437
115.381 114.165 151.01
113.978 114.54 155.064
115.842 113.64 155.915
127.148 108.271 149.723
128.835 108.504 147.101
129.273 106.281 149.697
128.423 108.165 145.387
124.906 107.767 152.498
128.468 104.328 152.498
128.91 103.872 150.709
122.397 115.439 139.688
119.962 115.746 141.772
118.353 115.196 141.227
116.896 114.717 146.166
124.181 113.022 141.149
115.61 114.492 141.345
115.369 113.976 144.22
110.546 117.959 148.318
107.99 118.967 149.979
108.135 118.336 148.23
105.233 119.247 151.758
107.482 118.115 153.086
113.614 115.936 149.612
113.526 116.341 147.172
108.635 116.928 147.096
106.437 117.799 148.942
109.961 117.424 153.877
112.897 116.298 152.065
112.204 115.307 154.657
107.167 116.038 155.811
112.045 114.688 156.569
113.507 115.818 145.877
110.89 115.667 146.605
113.533 114.393 146.163
108.033 114.922 147.679
112.205 113.508 145.566
104.063 119.202 149.29
103.23 120.026 150.762
101.644 119.555 150.749
102.413 119.054 153.677
104.151 116.944 150.081
100.212 118.718 151.31
99.1436 119.963 151.682
103.447 96.3023 163.459
100.51 95.6879 165.967
103.076 96.1355 164.991
97.2893 94.0516 168.756
97.7913 95.367 166.493
104.317 95.7701 161.678
106.795 95.3897 161.251
105.468 97.0047 164.194
103.135 95.5362 167.268
98.5299 96.5821 164.272
101.861 95.8033 162.321
99.6942 96.1264 162.37
104.951 94.202 160.799
95.4517 95.6196 166.471
97.4724 96.2716 162.482
100.442 95.7684 161.083
108.739 94.9439 161.378
108.008 96.4706 162.586
110.777 95.8229 161.172
107.834 97.392 163.718
109.684 92.4231 160.725
113.192 93.5525 160.475
112.651 95.5474 161.216
100.694 94.7596 169.569
97.5685 93.549 170.322
98.0984 94.9699 171.384
94.3919 94.3545 170.242
103.677 95.4148 168.857
99.0822 96.5154 171.777
95.8573 96.9143 171.555
89.4735 96.4203 168.308
87.9234 98.1507 166.315
87.1431 98.514 168.71
87.4087 100.336 164.651
89.5019 98.5558 164.465
92.4672 95.7306 167.59
91.469 95.0681 169.711
87.009 98.8504 170.876
85.6975 100.672 168.945
92.1929 97.6269 164.093
93.5112 96.4951 165.581
94.7607 97.2258 163.546
91.8885 98.9508 162.489
96.3649 97.4987 161.808
91.4168 95.3186 171.457
90.3686 98.3018 171.138
93.107 97.1926 171.432
89.2133 100.333 171.229
95.0356 99.0385 171.009
84.6328 102.223 167.361
86.0738 102.007 165.041
84.5344 103.986 164.62
86.7835 101.611 162.791
83.2259 102.279 169.613
83.209 105.71 164.825
84.9613 105.511 162.154
111.438 111.713 164.774
109.071 111.13 166.007
108.716 113.252 164.939
106.497 111.137 167.108
108.902 109.493 167.003
113.587 109.863 164.138
113.679 111.609 162.82
108.483 114.621 163.211
105.951 114.448 164.334
110.957 108.307 166.581
112.807 108.218 165.052
112.327 106.919 166.104
115.26 108.321 163.353
108.768 107.759 168.096
111.884 105.697 166.381
113.603 105.868 164.318
113.506 112.997 161.761
110.644 114.418 162.092
112.967 113.916 160.338
107.95 115.376 161.436
116.007 111.436 160.986
114.415 113.368 158.402
111.704 114.01 158.527
103.609 113.898 165.39
104.074 112.462 166.843
101.561 113.895 166.543
103.878 110.657 168.064
102.988 115.78 163.639
98.7893 114.92 165.869
98.9079 112.944 167.643
103.179 106.04 169.635
102.929 104.233 170.399
100.694 105.114 170.377
103.312 101.967 170.686
105.063 103.276 169.324
106.066 107.092 168.753
103.814 108.39 168.82
98.35 106.257 170.13
98.4349 104.054 171.099
106.94 104.156 167.664
107.732 105.958 167.984
109.477 104.795 167.225
106.854 102.287 167.904
111.641 103.961 166.17
101.204 109.667 168.992
98.4592 108.425 169.322
98.7269 110.854 168.295
95.7019 107.39 169.711
96.1653 112.13 167.667
98.6293 101.955 171.534
100.859 101.272 170.993
98.9356 100.329 171.376
103.624 99.9229 170.928
95.8262 102.997 171.691
96.7486 99.5101 171.779
99.1318 98.8823 171.08
108.14 104.239 148.441
110.48 104.292 147.754
107.716 106.223 148.085
113.257 104.432 147.308
113.187 102.744 146.799
107.87 102.357 148.287
105.931 104.265 149.214
105.364 107.692 149.486
107.594 108.086 148.473
113.273 100.671 147.388
111.234 99.9502 148.912
113.799 98.563 148.347
109.622 100.147 149.936
116.646 101.216 146.869
115.377 97.4451 147.357
112.808 97.1876 148.204
103.084 105.573 150.044
102.9 106.943 150.311
101.155 106.133 151.684
103.195 108.379 151.375
103.982 103.909 150.329
100.201 104.989 153.705
99.4264 106.851 153.548
108.993 109.078 147.006
112.044 107.298 146.524
111.129 110.806 145.014
116.445 105.068 146.929
107.213 110.062 149.249
111.267 112.667 145.269
113.449 112.165 143.465
105.419 98.8724 154.593
105.333 100.446 152.895
102.827 100.597 154.669
104.975 102.157 151.304
107.579 100.106 151.619
107.223 96.9103 153.583
105.471 97.7216 155.292
100.797 100.656 156.429
100.434 101.668 154.785
110.095 97.895 151.473
109.183 95.9411 152.033
111.278 96.399 149.863
107.85 94.4594 152.229
113.008 94.6929 149.394
103.316 98.8603 156.71
101.32 99.7792 157.497
100.826 98.6165 158.117
98.1581 100.232 157.844
105.064 96.7354 156.036
101.087 97.0709 159.58
98.4677 98.1755 159.555
100.001 102.776 154.041
102.412 102.893 152.153
100.244 103.768 153.983
97.8242 102.786 155.961
97.6001 104.73 154.852
121.264 106.453 158.751
118.793 107.995 158.905
121.923 108.148 157.514
117.867 109.97 159.946
116.851 108.475 160.821
120.435 104.723 160.208
124.118 104.695 158.987
122.664 107.653 155.046
121.601 109.448 155.903
116.44 107.081 161.311
117.494 105.026 160.666
115.837 105.688 162.325
126.164 104.423 156.774
125.116 106.054 154.749
126.932 104.506 154.652
119.254 110.875 156.65
117.952 111.302 158.718
117.301 112.429 157.686
102.69 117.374 159.663
100.044 118.828 158.689
102.54 117.911 157.706
97.4911 119.623 157.578
97.6405 118.512 159.624
102.686 116.602 161.613
105.194 116.148 160.587
104.942 115.863 157.411
102.434 118.486 155.793
97.5539 117.808 161.839
100.35 116.833 162.867
98.163 116.39 164.076
107.38 115.879 159.438
107.558 115.115 157.378
109.402 115.013 157.849
100.174 120.224 154.205
97.8381 120.416 155.264
98.3629 120.642 152.751
124.466 101.322 147.659
125.495 104.646 145.735
122.828 102.281 146.864
125.304 108.666 144.029
127.872 107.233 144.792
125.282 100.291 148.408
123.338 99.0284 148.065
120.255 101.56 147.201
120.272 103.613 146.893
128.863 104.978 146.763
127.854 101.587 148.468
128.423 102.963 149.457
121.21 98.5864 147.581
119.64 99.6305 147.687
118.448 98.0584 147.067
119.576 106.514 146.043
122.097 109.878 143.401
117.053 111.196 143.087
103.427 113.885 150.07
100.738 113.172 150.814
102.993 111.999 150.581
98.9024 111.833 152.339
99.6255 113.083 152.507
103.896 115.245 150.387
105.765 114.593 148.797
104.944 110.593 150.778
102.932 109.843 151.981
100.474 114.406 152.584
101.956 115.852 150.921
100.288 116.299 152.324
107.474 113.51 148.283
107.212 111.633 148.758
109.662 112.496 147.014
101.193 109.078 152.677
99.1177 109.992 153.231
99.0078 108.271 153.774
109.898 98.6062 166.5
107.994 97.3358 167.186
107.348 98.7339 167.901
105.927 96.1543 168.178
107.917 97.252 165.592
111.81 97.9669 164.905
111.572 99.3722 165.382
107.168 100.741 167.541
105.429 99.3977 169.103
110.101 96.5757 164.395
112.273 96.7458 163.915
112.508 95.935 162.708
111.809 100.993 165.859
108.999 101.476 166.866
111.942 102.557 165.72
104.009 98.0035 171.077
103.832 96.2077 170.47
101.596 97.2071 171.51
87.5964 104.136 171.138
88.2483 106.959 169.92
90.9571 105.453 170.359
88.9126 109.736 168.051
86.0201 108.605 168.78
84.8081 103.102 170.743
88.1809 101.747 171.425
93.1876 104.056 171.169
93.3979 106.409 169.852
83.0521 107.935 167.93
81.8034 105.02 169.152
82.8674 106.908 165.836
91.8579 101.438 171.02
93.6339 102.248 171.476
94.547 100.333 171.169
93.385 108.936 168.581
91.0103 110.88 167.692
93.4598 111.432 167.606
108.629 94.4721 155.513
110.462 91.9567 154.561
108.309 93.5848 154.265
112.254 90.6792 153.166
113.587 91.3921 154.66
109.587 93.2502 157.84
106.89 94.1146 158.325
106.984 95.3106 154.819
107.486 93.5982 153.322
114.24 91.9427 156.403
112.14 92.6893 157.766
114.044 92.763 158.138
104.79 95.0203 158.601
105.048 96.5681 156.849
102.687 95.9143 158.786
109.97 93.1028 151.576
111.395 92.4613 150.664
112.271 92.8995 150.179
91.1761 103.493 158.136
91.4549 102.231 159.534
92.5765 102.127 158.027
91.6169 100.469 161.182
88.9714 101.625 161.365
88.8782 104.611 157.869
91.3368 105.178 156.935
94.7893 102.753 156.517
95.0286 101.199 158.267
86.6852 103.433 160.821
86.3205 105.197 158.94
85.106 105.754 160.193
93.0587 105.148 156.26
94.6838 103.855 155.785
94.7237 104.936 155.425
95.5185 99.7777 159.449
93.3369 99.3997 160.752
95.8767 98.5865 160.364
POLYGONS 1280  5120
3 164 162 163
3 163 44 164
3 162 43 163
3 164 42 162
3 166 165 163
3 163 43 166
3 165 44 163
3 166 14 165
3 168 167 162
3 162 42 168
3 167 43 162
3 168 13 167
3 170 169 164
3 164 44 170
3 169 42 164
3 170 12 169
3 173 171 172
3 172 46 173
3 171 43 172
3 173 45 171
3 167 174 172
3 172 43 167
3 174 46 172
3 167 13 174
3 175 166 171
3 171 45 175
3 166 43 171
3 175 14 166
3 177 176 173
3 173 46 177
3 176 45 173
3 177 4 176
3 180 178 179
3 179 48 180
3 178 42 179
3 180 47 178
3 169 181 179
3 179 42 169
3 181 48 179
3 169 12 181
3 182 168 178
3 178 47 182
3 168 42 178
3 182 13 168
3 184 183 180
3 180 48 184
3 183 47 180
3 184 8 183
3 187 185 186
3 186 50 187
3 185 44 186
3 187 49 185
3 165 188 186
3 186 44 165
3 188 50 186
3 165 14 188
3 189 170 185
3 185 49 189
3 170 44 185
3 189 12 170
3 191 190 187
3 187 50 191
3 190 49 187
3 191 7 190
3 194 192 193
3 193 53 194
3 192 52 193
3 194 51 192
3 196 195 193
3 193 52 196
3 195 53 193
3 196 16 195
3 198 197 192
3 192 51 198
3 197 52 192
3 198 14 197
3 200 199 194
3 194 53 200
3 199 51 194
3 200 15 199
3 203 201 202
3 202 45 203
3 201 52 202
3 203 54 201
3 197 175 202
3 202 52 197
3 175 45 202
3 197 14 175
3 204 196 201
3 201 54 204
3 196 52 201
3 204 16 196
3 176 205 203
3 203 45 176
3 205 54 203
3 176 4 205
3 208 206 207
3 207 55 208
3 206 51 207
3 208 50 206
3 199 209 207
3 207 51 199
3 209 55 207
3 199 15 209
3 188 198 206
3 206 50 188
3 198 51 206
3 188 14 198
3 210 191 208
3 208 55 210
3 191 50 208
3 210 7 191
3 213 211 212
3 212 57 213
3 211 53 212
3 213 56 211
3 195 214 212
3 212 53 195
3 214 57 212
3 195 16 214
3 215 200 211
3 211 56 215
3 200 53 211
3 215 15 200
3 217 216 213
3 213 57 217
3 216 56 213
3 217 9 216
3 220 218 219
3 219 60 220
3 218 59 219
3 220 58 218
3 222 221 219
3 219 59 222
3 221 60 219
3 222 19 221
3 224 223 218
3 218 58 224
3 223 59 218
3 224 18 223
3 226 225 220
3 220 60 226
3 225 58 220
3 226 17 225
3 229 227 228
3 228 62 229
3 227 59 228
3 229 61 227
3 223 230 228
3 228 59 223
3 230 62 228
3 223 18 230
3 231 222 227
3 227 61 231
3 222 59 227
3 231 19 222
3 233 232 229
3 229 62 233
3 232 61 229
3 233 5 232
3 236 234 235
3 235 64 236
3 234 58 235
3 236 63 234
3 225 237 235
3 235 58 225
3 237 64 235
3 225 17 237
3 238 224 234
3 234 63 238
3 224 58 234
3 238 18 224
3 240 239 236
3 236 64 240
3 239 63 236
3 240 6 239
3 243 241 242
3 242 66 243
3 241 60 242
3 243 65 241
3 221 244 242
3 242 60 221
3 244 66 242
3 221 19 244
3 245 226 241
3 241 65 245
3 226 60 241
3 245 17 226
3 247 246 243
3 243 66 247
3 246 65 243
3 247 11 246
3 250 248 249
3 249 69 250
3 248 68 249
3 250 67 248
3 252 251 249
3 249 68 252
3 251 69 249
3 252 18 251
3 254 253 248
3 248 67 254
3 253 68 248
3 254 21 253
3 256 255 250
3 250 69 256
3 255 67 250
3 256 20 255
3 259 257 258
3 258 70 259
3 257 68 258
3 259 62 257
3 253 260 258
3 258 68 253
3 260 70 258
3 253 21 260
3 230 252 257
3 257 62 230
3 252 68 257
3 230 18 252
3 261 233 259
3 259 70 261
3 233 62 259
3 261 5 233
3 264 262 263
3 263 72 264
3 262 67 263
3 264 71 262
3 255 265 263
3 263 67 255
3 265 72 263
3 255 20 265
3 266 254 262
3 262 71 266
3 254 67 262
3 266 21 254
3 268 267 264
3 264 72 268
3 267 71 264
3 268 10 267
3 271 269 270
3 270 63 271
3 269 69 270
3 271 73 269
3 251 238 270
3 270 69 251
3 238 63 270
3 251 18 238
3 272 256 269
3 269 73 272
3 256 69 269
3 272 20 256
3 239 273 271
3 271 63 239
3 273 73 271
3 239 6 273
3 276 274 275
3 275 76 276
3 274 75 275
3 276 74 274
3 278 277 275
3 275 75 278
3 277 76 275
3 278 24 277
3 280 279 274
3 274 74 280
3 279 75 274
3 280 23 279
3 282 281 276
3 276 76 282
3 281 74 276
3 282 22 281
3 285 283 284
3 284 78 285
3 283 75 284
3 285 77 283
3 279 286 284
3 284 75 279
3 286 78 284
3 279 23 286
3 287 278 283
3 283 77 287
3 278 75 283
3 287 24 278
3 289 288 285
3 285 78 289
3 288 77 285
3 289 0 288
3 292 290 291
3 291 80 292
3 290 74 291
3 292 79 290
3 281 293 291
3 291 74 281
3 293 80 291
3 281 22 293
3 294 280 290
3 290 79 294
3 280 74 290
3 294 23 280
3 296 295 292
3 292 80 296
3 295 79 292
3 296 4 295
3 299 297 298
3 298 82 299
3 297 76 298
3 299 81 297
3 277 300 298
3 298 76 277
3 300 82 298
3 277 24 300
3 301 282 297
3 297 81 301
3 282 76 297
3 301 22 282
3 303 302 299
3 299 82 303
3 302 81 299
3 303 3 302
3 306 304 305
3 305 85 306
3 304 84 305
3 306 83 304
3 308 307 305
3 305 84 308
3 307 85 305
3 308 26 307
3 310 309 304
3 304 83 310
3 309 84 304
3 310 24 309
3 312 311 306
3 306 85 312
3 311 83 306
3 312 25 311
3 315 313 314
3 314 77 315
3 313 84 314
3 315 86 313
3 309 287 314
3 314 84 309
3 287 77 314
3 309 24 287
3 316 308 313
3 313 86 316
3 308 84 313
3 316 26 308
3 288 317 315
3 315 77 288
3 317 86 315
3 288 0 317
3 320 318 319
3 319 87 320
3 318 83 319
3 320 82 318
3 311 321 319
3 319 83 311
3 321 87 319
3 311 25 321
3 300 310 318
3 318 82 300
3 310 83 318
3 300 24 310
3 322 303 320
3 320 87 322
3 303 82 320
3 322 3 303
3 325 323 324
3 324 89 325
3 323 85 324
3 325 88 323
3 307 326 324
3 324 85 307
3 326 89 324
3 307 26 326
3 327 312 323
3 323 88 327
3 312 85 323
3 327 25 312
3 329 328 325
3 325 89 329
3 328 88 325
3 329 5 328
3 332 330 331
3 331 92 332
3 330 91 331
3 332 90 330
3 334 333 331
3 331 91 334
3 333 92 331
3 334 29 333
3 336 335 330
3 330 90 336
3 335 91 330
3 336 28 335
3 338 337 332
3 332 92 338
3 337 90 332
3 338 27 337
3 341 339 340
3 340 94 341
3 339 91 340
3 341 93 339
3 335 342 340
3 340 91 335
3 342 94 340
3 335 28 342
3 343 334 339
3 339 93 343
3 334 91 339
3 343 29 334
3 345 344 341
3 341 94 345
3 344 93 341
3 345 2 344
3 348 346 347
3 347 96 348
3 346 90 347
3 348 95 346
3 337 349 347
3 347 90 337
3 349 96 347
3 337 27 349
3 350 336 346
3 346 95 350
3 336 90 346
3 350 28 336
3 352 351 348
3 348 96 352
3 351 95 348
3 352 7 351
3 355 353 354
3 354 98 355
3 353 92 354
3 355 97 353
3 333 356 354
3 354 92 333
3 356 98 354
3 333 29 356
3 357 338 353
3 353 97 357
3 338 92 353
3 357 27 338
3 359 358 355
3 355 98 359
3 358 97 355
3 359 1 358
3 362 360 361
3 361 101 362
3 360 100 361
3 362 99 360
3 364 363 361
3 361 100 364
3 363 101 361
3 364 31 363
3 366 365 360
3 360 99 366
3 365 100 360
3 366 29 365
3 368 367 362
3 362 101 368
3 367 99 362
3 368 30 367
3 371 369 370
3 370 93 371
3 369 100 370
3 371 102 369
3 365 343 370
3 370 100 365
3 343 93 370
3 365 29 343
3 372 364 369
3 369 102 372
3 364 100 369
3 372 31 364
3 344 373 371
3 371 93 344
3 373 102 371
3 344 2 373
3 376 374 375
3 375 103 376
3 374 99 375
3 376 98 374
3 367 377 375
3 375 99 367
3 377 103 375
3 367 30 377
3 356 366 374
3 374 98 356
3 366 99 374
3 356 29 366
3 378 359 376
3 376 103 378
3 359 98 376
3 378 1 359
3 381 379 380
3 380 105 381
3 379 101 380
3 381 104 379
3 363 382 380
3 380 101 363
3 382 105 380
3 363 31 382
3 383 368 379
3 379 104 383
3 368 101 379
3 383 30 368
3 385 384 381
3 381 105 385
3 384 104 381
3 385 6 384
3 388 386 387
3 387 108 388
3 386 107 387
3 388 106 386
3 390 389 387
3 387 107 390
3 389 108 387
3 390 34 389
3 392 391 386
3 386 106 392
3 391 107 386
3 392 33 391
3 394 393 388
3 388 108 394
3 393 106 388
3 394 32 393
3 397 395 396
3 396 110 397
3 395 107 396
3 397 109 395
3 391 398 396
3 396 107 391
3 398 110 396
3 391 33 398
3 399 390 395
3 395 109 399
3 390 107 395
3 399 34 390
3 401 400 397
3 397 110 401
3 400 109 397
3 401 8 400
3 404 402 403
3 403 112 404
3 402 106 403
3 404 111 402
3 393 405 403
3 403 106 393
3 405 112 403
3 393 32 405
3 406 392 402
3 402 111 406
3 392 106 402
3 406 33 392
3 408 407 404
3 404 112 408
3 407 111 404
3 408 0 407
3 411 409 410
3 410 114 411
3 409 108 410
3 411 113 409
3 389 412 410
3 410 108 389
3 412 114 410
3 389 34 412
3 413 394 409
3 409 113 413
3 394 108 409
3 413 32 394
3 415 414 411
3 411 114 415
3 414 113 411
3 415 11 414
3 418 416 417
3 417 117 418
3 416 116 417
3 418 115 416
3 420 419 417
3 417 116 420
3 419 117 417
3 420 36 419
3 422 421 416
3 416 115 422
3 421 116 416
3 422 34 421
3 424 423 418
3 418 117 424
3 423 115 418
3 424 35 423
3 427 425 426
3 426 109 427
3 425 116 426
3 427 118 425
3 421 399 426
3 426 116 421
3 399 109 426
3 421 34 399
3 428 420 425
3 425 118 428
3 420 116 425
3 428 36 420
3 400 429 427
3 427 109 400
3 429 118 427
3 400 8 429
3 432 430 431
3 431 119 432
3 430 115 431
3 432 114 430
3 423 433 431
3 431 115 423
3 433 119 431
3 423 35 433
3 412 422 430
3 430 114 412
3 422 115 430
3 412 34 422
3 434 415 432
3 432 119 434
3 415 114 432
3 434 11 415
3 437 435 436
3 436 121 437
3 435 117 436
3 437 120 435
3 419 438 436
3 436 117 419
3 438 121 436
3 419 36 438
3 439 424 435
3 435 120 439
3 424 117 435
3 439 35 424
3 441 440 437
3 437 121 441
3 440 120 437
3 441 1 440
3 444 442 443
3 443 124 444
3 442 123 443
3 444 122 442
3 446 445 443
3 443 123 446
3 445 124 443
3 446 39 445
3 448 447 442
3 442 122 448
3 447 123 442
3 448 38 447
3 450 449 444
3 444 124 450
3 449 122 444
3 450 37 449
3 453 451 452
3 452 126 453
3 451 123 452
3 453 125 451
3 447 454 452
3 452 123 447
3 454 126 452
3 447 38 454
3 455 446 451
3 451 125 455
3 446 123 451
3 455 39 446
3 457 456 453
3 453 126 457
3 456 125 453
3 457 9 456
3 460 458 459
3 459 128 460
3 458 122 459
3 460 127 458
3 449 461 459
3 459 122 449
3 461 128 459
3 449 37 461
3 462 448 458
3 458 127 462
3 448 122 458
3 462 38 448
3 464 463 460
3 460 128 464
3 463 127 460
3 464 10 463
3 467 465 466
3 466 130 467
3 465 124 466
3 467 129 465
3 445 468 466
3 466 124 445
3 468 130 466
3 445 39 468
3 469 450 465
3 465 129 469
3 450 124 465
3 469 37 450
3 471 470 467
3 467 130 471
3 470 129 467
3 471 3 470
3 474 472 473
3 473 133 474
3 472 132 473
3 474 131 472
3 476 475 473
3 473 132 476
3 475 133 473
3 476 38 475
3 478 477 472
3 472 131 478
3 477 132 472
3 478 41 477
3 480 479 474
3 474 133 480
3 479 131 474
3 480 40 479
3 483 481 482
3 482 134 483
3 481 132 482
3 483 126 481
3 477 484 482
3 482 132 477
3 484 134 482
3 477 41 484
3 454 476 481
3 481 126 454
3 476 132 481
3 454 38 476
3 485 457 483
3 483 134 485
3 457 126 483
3 485 9 457
3 488 486 487
3 487 136 488
3 486 131 487
3 488 135 486
3 479 489 487
3 487 131 479
3 489 136 487
3 479 40 489
3 490 478 486
3 486 135 490
3 478 131 486
3 490 41 478
3 492 491 488
3 488 136 492
3 491 135 488
3 492 2 491
3 495 493 494
3 494 127 495
3 493 133 494
3 495 137 493
3 475 462 494
3 494 133 475
3 462 127 494
3 475 38 462
3 496 480 493
3 493 137 496
3 480 133 493
3 496 40 480
3 463 497 495
3 495 127 463
3 497 137 495
3 463 10 497
3 500 498 499
3 499 140 500
3 498 139 499
3 500 138 498
3 502 501 499
3 499 139 502
3 501 140 499
3 502 33 501
3 504 503 498
3 498 138 504
3 503 139 498
3 504 13 503
3 506 505 500
3 500 140 506
3 505 138 500
3 506 23 505
3 509 507 508
3 508 47 509
3 507 139 508
3 509 110 507
3 503 182 508
3 508 139 503
3 182 47 508
3 503 13 182
3 398 502 507
3 507 110 398
3 502 139 507
3 398 33 502
3 183 401 509
3 509 47 183
3 401 110 509
3 183 8 401
3 512 510 511
3 511 79 512
3 510 138 511
3 512 46 510
3 505 294 511
3 511 138 505
3 294 79 511
3 505 23 294
3 174 504 510
3 510 46 174
3 504 138 510
3 174 13 504
3 295 177 512
3 512 79 295
3 177 46 512
3 295 4 177
3 515 513 514
3 514 111 515
3 513 140 514
3 515 78 513
3 501 406 514
3 514 140 501
3 406 111 514
3 501 33 406
3 286 506 513
3 513 78 286
3 506 140 513
3 286 23 506
3 407 289 515
3 515 111 407
3 289 78 515
3 407 0 289
3 518 516 517
3 517 143 518
3 516 142 517
3 518 141 516
3 520 519 517
3 517 142 520
3 519 143 517
3 520 19 519
3 522 521 516
3 516 141 522
3 521 142 516
3 522 32 521
3 524 523 518
3 518 143 524
3 523 141 518
3 524 26 523
3 527 525 526
3 526 113 527
3 525 142 526
3 527 66 525
3 521 413 526
3 526 142 521
3 413 113 526
3 521 32 413
3 244 520 525
3 525 66 244
3 520 142 525
3 244 19 520
3 414 247 527
3 527 113 414
3 247 66 527
3 414 11 247
3 530 528 529
3 529 86 530
3 528 141 529
3 530 112 528
3 523 316 529
3 529 141 523
3 316 86 529
3 523 26 316
3 405 522 528
3 528 112 405
3 522 141 528
3 405 32 522
3 317 408 530
3 530 86 317
3 408 112 530
3 317 0 408
3 533 531 532
3 532 61 533
3 531 143 532
3 533 89 531
3 519 231 532
3 532 143 519
3 231 61 532
3 519 19 231
3 326 524 531
3 531 89 326
3 524 143 531
3 326 26 524
3 232 329 533
3 533 61 232
3 329 89 533
3 232 5 329
3 536 534 535
3 535 146 536
3 534 145 535
3 536 144 534
3 538 537 535
3 535 145 538
3 537 146 535
3 538 22 537
3 540 539 534
3 534 144 540
3 539 145 534
3 540 16 539
3 542 541 536
3 536 146 542
3 541 144 536
3 542 39 541
3 545 543 544
3 544 54 545
3 543 145 544
3 545 80 543
3 539 204 544
3 544 145 539
3 204 54 544
3 539 16 204
3 293 538 543
3 543 80 293
3 538 145 543
3 293 22 538
3 205 296 545
3 545 54 205
3 296 80 545
3 205 4 296
3 548 546 547
3 547 125 548
3 546 144 547
3 548 57 546
3 541 455 547
3 547 144 541
3 455 125 547
3 541 39 455
3 214 540 546
3 546 57 214
3 540 144 546
3 214 16 540
3 456 217 548
3 548 125 456
3 217 57 548
3 456 9 217
3 551 549 550
3 550 81 551
3 549 146 550
3 551 130 549
3 537 301 550
3 550 146 537
3 301 81 550
3 537 22 301
3 468 542 549
3 549 130 468
3 542 146 549
3 468 39 542
3 302 471 551
3 551 81 302
3 471 130 551
3 302 3 471
3 554 552 553
3 553 149 554
3 552 148 553
3 554 147 552
3 556 555 553
3 553 148 556
3 555 149 553
3 556 21 555
3 558 557 552
3 552 147 558
3 557 148 552
3 558 25 557
3 560 559 554
3 554 149 560
3 559 147 554
3 560 37 559
3 563 561 562
3 562 88 563
3 561 148 562
3 563 70 561
3 557 327 562
3 562 148 557
3 327 88 562
3 557 25 327
3 260 556 561
3 561 70 260
3 556 148 561
3 260 21 556
3 328 261 563
3 563 88 328
3 261 70 563
3 328 5 261
3 566 564 565
3 565 129 566
3 564 147 565
3 566 87 564
3 559 469 565
3 565 147 559
3 469 129 565
3 559 37 469
3 321 558 564
3 564 87 321
3 558 147 564
3 321 25 558
3 470 322 566
3 566 129 470
3 322 87 566
3 470 3 322
3 569 567 568
3 568 71 569
3 567 149 568
3 569 128 567
3 555 266 568
3 568 149 555
3 266 71 568
3 555 21 266
3 461 560 567
3 567 128 461
3 560 149 567
3 461 37 560
3 267 464 569
3 569 71 267
3 464 128 569
3 267 10 464
3 572 570 571
3 571 152 572
3 570 151 571
3 572 150 570
3 574 573 571
3 571 151 574
3 573 152 571
3 574 27 573
3 576 575 570
3 570 150 576
3 575 151 570
3 576 12 575
3 578 577 572
3 572 152 578
3 577 150 572
3 578 36 577
3 581 579 580
3 580 49 581
3 579 151 580
3 581 96 579
3 575 189 580
3 580 151 575
3 189 49 580
3 575 12 189
3 349 574 579
3 579 96 349
3 574 151 579
3 349 27 574
3 190 352 581
3 581 49 190
3 352 96 581
3 190 7 352
3 584 582 583
3 583 118 584
3 582 150 583
3 584 48 582
3 577 428 583
3 583 150 577
3 428 118 583
3 577 36 428
3 181 576 582
3 582 48 181
3 576 150 582
3 181 12 576
3 429 184 584
3 584 118 429
3 184 48 584
3 429 8 184
3 587 585 586
3 586 97 587
3 585 152 586
3 587 121 585
3 573 357 586
3 586 152 573
3 357 97 586
3 573 27 357
3 438 578 585
3 585 121 438
3 578 152 585
3 438 36 578
3 358 441 587
3 587 97 358
3 441 121 587
3 358 1 441
3 590 588 589
3 589 155 590
3 588 154 589
3 590 153 588
3 592 591 589
3 589 154 592
3 591 155 589
3 592 17 591
3 594 593 588
3 588 153 594
3 593 154 588
3 594 30 593
3 596 595 590
3 590 155 596
3 595 153 590
3 596 35 595
3 599 597 598
3 598 104 599
3 597 154 598
3 599 64 597
3 593 383 598
3 598 154 593
3 383 104 598
3 593 30 383
3 237 592 597
3 597 64 237
3 592 154 597
3 237 17 592
3 384 240 599
3 599 104 384
3 240 64 599
3 384 6 240
3 602 600 601
3 601 120 602
3 600 153 601
3 602 103 600
3 595 439 601
3 601 153 595
3 439 120 601
3 595 35 439
3 377 594 600
3 600 103 377
3 594 153 600
3 377 30 594
3 440 378 602
3 602 120 440
3 378 103 602
3 440 1 378
3 605 603 604
3 604 65 605
3 603 155 604
3 605 119 603
3 591 245 604
3 604 155 591
3 245 65 604
3 591 17 245
3 433 596 603
3 603 119 433
3 596 155 603
3 433 35 596
3 246 434 605
3 605 65 246
3 434 119 605
3 246 11 434
3 608 606 607
3 607 158 608
3 606 157 607
3 608 156 606
3 610 609 607
3 607 157 610
3 609 158 607
3 610 15 609
3 612 611 606
3 606 156 612
3 611 157 606
3 612 28 611
3 614 613 608
3 608 158 614
3 613 156 608
3 614 41 613
3 617 615 616
3 616 95 617
3 615 157 616
3 617 55 615
3 611 350 616
3 616 157 611
3 350 95 616
3 611 28 350
3 209 610 615
3 615 55 209
3 610 157 615
3 209 15 610
3 351 210 617
3 617 95 351
3 210 55 617
3 351 7 210
3 620 618 619
3 619 135 620
3 618 156 619
3 620 94 618
3 613 490 619
3 619 156 613
3 490 135 619
3 613 41 490
3 342 612 618
3 618 94 342
3 612 156 618
3 342 28 612
3 491 345 620
3 620 135 491
3 345 94 620
3 491 2 345
3 623 621 622
3 622 56 623
3 621 158 622
3 623 134 621
3 609 215 622
3 622 158 609
3 215 56 622
3 609 15 215
3 484 614 621
3 621 134 484
3 614 158 621
3 484 41 614
3 216 485 623
3 623 56 216
3 485 134 623
3 216 9 485
3 626 624 625
3 625 161 626
3 624 160 625
3 626 159 624
3 628 627 625
3 625 160 628
3 627 161 625
3 628 31 627
3 630 629 624
3 624 159 630
3 629 160 624
3 630 20 629
3 632 631 626
3 626 161 632
3 631 159 626
3 632 40 631
3 635 633 634
3 634 73 635
3 633 160 634
3 635 105 633
3 629 272 634
3 634 160 629
3 272 73 634
3 629 20 272
3 382 628 633
3 633 105 382
3 628 160 633
3 382 31 628
3 273 385 635
3 635 73 273
3 385 105 635
3 273 6 385
3 638 636 637
3 637 137 638
3 636 159 637
3 638 72 636
3 631 496 637
3 637 159 631
3 496 137 637
3 631 40 496
3 265 630 636
3 636 72 265
3 630 159 636
3 265 20 630
3 497 268 638
3 638 137 497
3 268 72 638
3 497 10 268
3 641 639 640
3 640 102 641
3 639 161 640
3 641 136 639
3 627 372 640
3 640 161 627
3 372 102 640
3 627 31 372
3 489 632 639
3 639 136 489
3 632 161 639
3 489 40 632
3 373 492 641
3 641 102 373
3 492 136 641
3 373 2 492
