# vtk DataFile Version 3.0
this file was written using fslvtkio
ASCII
DATASET POLYDATA
POINTS 970 float
140.998 140.946 111.379
141.442 141.046 111.257
141.569 140.691 111.491
141.41 140.675 111.645
140.935 140.471 111.564
141.751 140.189 111.781
141.448 140.082 111.795
142.528 140.202 111.796
140.842 141.277 110.871
141.12 141.616 110.568
140.803 140.802 111.001
140.95 140.296 111.454
141.809 139.927 111.8
140.904 141.357 110.302
140.786 140.641 110.76
141.467 140.308 111.275
142.348 143.153 113.463
142.803 143.477 113.15
143.079 143.258 113.54
143.056 142.78 113.69
141.846 142.884 113.708
142.844 142.291 113.759
141.886 142.416 113.806
142.948 142.045 113.53
141.885 143.21 113.129
142.638 143.188 112.813
141.098 142.996 113.307
140.747 142.82 113.797
142.13 142.009 113.803
141.431 142.308 113.817
142.103 141.837 113.595
141.916 143.229 112.733
142.698 143.122 112.598
141.107 143.081 113.027
140.571 142.933 113.545
141.023 142.343 113.775
141.833 141.796 113.446
142.823 143.204 112.393
142.019 143.075 112.608
142.282 143.032 112.407
141.532 142.582 112.775
141.133 142.174 113.252
141.639 141.535 113.493
142.269 142.616 112.318
142.207 141.833 112.426
141.836 141.887 112.564
142.366 140.758 112.098
141.958 141.232 112.939
141.86 141.354 112.61
142.529 140.772 112.541
142.52 140.489 112.302
143.152 140.632 112.201
142.218 140.449 111.674
142.79 140.669 111.619
142.127 140.837 112.055
142.199 140.407 112.123
143.127 140.327 111.934
142.207 140.754 111.433
142.404 141.514 110.971
142.928 140.788 111.504
142.627 139.93 112.03
141.765 141.642 110.762
142.267 141.761 110.311
141.655 139.741 111.577
141.742 141.71 109.989
141.467 141.521 109.72
140.865 140.847 110.215
141.117 140.199 110.787
143.31 143.835 113.771
143.7 144.031 113.368
143.825 143.765 113.868
143.401 143.244 114.194
143.176 143.275 113.799
143.754 142.731 113.776
143.207 143.995 113.15
143.66 143.911 112.838
143.79 142.519 113.472
143.449 142.065 113.623
143.625 141.885 113.23
143.103 143.664 112.754
143.769 143.511 112.571
142.979 141.928 113.236
142.938 141.614 113.256
143.14 143.519 112.415
143.87 143.537 112.1
142.72 141.595 113.199
142.335 141.308 113.293
143.031 141.268 113.198
143.386 143.181 112.086
142.789 143.019 112.166
143.293 143.131 111.897
142.631 141.046 112.968
143.459 140.889 112.919
143.074 142.588 111.99
143.016 141.822 111.991
143.316 142.113 111.691
142.61 141.456 112.194
143.294 140.837 112.538
143.954 140.552 112.103
143.258 141.23 111.49
143.649 141.84 111.531
143.027 140.859 111.747
143.745 140.261 111.919
143.654 141.77 111.292
143.014 141.514 110.947
142.814 139.875 111.975
142.888 141.853 110.13
141.917 139.501 111.69
142.636 141.565 109.675
142.104 141.163 109.479
142.774 141.034 109.518
141.392 140.58 110.054
141.12 139.944 110.544
141.549 139.796 111.114
142.179 140.508 109.685
141.641 139.947 110.199
141.619 139.585 110.686
144.395 143.741 113.172
144.65 143.653 113.602
144.255 143.008 113.983
144.048 142.586 113.966
144.21 142.433 113.51
144.742 142.187 113.276
144.384 143.283 112.886
144.017 141.977 113.549
144.319 141.817 113.131
144.389 143.256 112.509
143.655 141.774 112.909
144.017 141.607 112.823
144.583 143.3 112.135
143.634 141.414 112.996
143.918 141.09 112.815
143.935 143.226 111.785
144.749 143.337 111.665
144.406 140.715 112.522
144.252 142.988 111.379
144.945 142.829 111.288
143.594 142.813 111.682
144.144 140.579 112.424
144.249 140.078 112.224
144.428 142.801 111.155
144.026 142.332 111.441
144.543 142.196 111.321
143.928 139.858 112.118
144.344 142.108 111.089
143.613 141.583 110.982
144.145 141.74 110.67
142.923 139.711 111.998
142.195 139.28 111.966
142.691 139.1 112.022
143.486 141.846 110.323
143.951 141.683 110.162
141.782 139.221 111.553
142.198 138.887 111.748
143.337 141.502 110.085
143.297 141.2 109.803
143.138 140.687 109.771
141.745 139.417 111.1
142.064 138.872 111.311
142.93 140.296 109.662
142.269 139.816 109.811
141.938 139.311 110.417
142.011 139.15 110.936
145.351 142.977 113.523
145.304 143.117 113.302
145.906 143.038 113.341
145.687 142.791 113.577
144.938 142.648 113.719
145.575 142.603 113.274
144.892 142.479 113.34
145.462 142.193 113.247
145.133 143.089 112.923
145.376 141.842 113.325
144.941 142.934 112.785
144.793 141.706 113.255
144.933 141.543 113.066
145.04 142.972 112.409
144.311 141.662 112.935
144.666 141.344 112.912
145.198 143.052 111.993
144.29 141.279 112.806
144.497 140.845 112.732
145.384 142.999 111.585
144.776 140.352 112.547
145.571 142.651 111.308
144.462 140.161 112.516
144.655 139.822 111.936
144.855 142.343 111.17
145.421 142.228 111.134
144.036 139.61 111.927
143.261 139.473 111.996
143.431 139.12 111.933
144.915 142.115 110.836
144.58 141.629 110.849
144.889 141.515 110.805
142.689 138.723 111.894
144.557 141.386 110.539
144.953 141.255 110.503
142.486 138.677 111.537
144.388 141.362 110.024
143.893 141.038 110.095
143.575 140.757 109.956
143.983 140.528 110.074
142.34 138.544 111.178
143.471 140.28 110.009
143.308 139.951 110.025
142.965 139.536 109.924
142.417 139.012 110.292
142.032 138.79 110.723
146.053 143.019 112.999
146.488 142.48 113.222
146.293 142.391 113.381
146.008 142.258 113.287
146.32 141.966 113.284
145.822 142.703 112.844
145.982 141.553 113.326
145.774 142.882 112.525
145.57 141.631 113.019
145.63 141.299 113.064
145.702 142.784 112.331
144.949 141.34 113.049
145.161 140.799 113.1
145.715 142.669 111.968
145.023 141.084 112.662
145.086 140.617 112.742
146.017 142.691 111.442
145.084 140.024 112.641
146.121 142.43 111.171
144.846 139.833 112.442
144.562 138.927 112.597
146.059 142.029 110.992
143.96 139.14 112.249
143.435 138.529 112.235
145.263 141.775 111.028
145.434 141.496 110.611
143.001 138.479 111.863
145.436 141.064 110.409
142.949 138.288 111.516
144.906 140.818 110.395
144.436 140.789 110.184
144.415 140.311 110.21
142.667 138.414 111.072
144.014 140.088 110.117
143.777 139.775 110.188
143.517 139.315 110.327
143.22 138.901 110.38
142.755 138.741 110.696
146.801 142.126 113.428
146.796 142.601 113.206
147.15 142.672 113.588
147.073 142.458 113.967
146.549 142.355 113.543
146.872 142.294 113.888
146.448 142.161 113.655
146.898 142.091 113.866
146.538 142.552 113.034
146.743 141.735 113.602
146.373 142.601 112.774
146.469 141.396 113.515
146.567 142.792 112.446
146.148 141.115 113.309
146.008 140.883 113.253
146.558 142.724 112.103
145.448 140.967 113.154
145.542 140.379 113.467
146.525 142.514 111.742
145.452 140.472 113.001
145.173 139.93 113.076
146.696 142.544 111.267
145.051 139.565 112.865
146.669 142.198 111.056
144.953 139.293 112.617
144.77 138.578 112.794
146.535 141.903 110.867
144.076 138.564 112.421
144.343 138.165 112.641
145.765 141.555 111.037
145.868 141.331 110.567
143.798 138.199 112.342
143.395 138.12 111.959
145.776 140.875 110.451
143.304 138.086 111.397
145.448 140.557 110.286
145.03 140.402 110.128
144.983 140.032 110.13
143.129 138.197 110.969
144.511 139.906 110.242
144.304 139.59 110.346
144.094 139.192 110.425
143.934 138.843 110.46
143.387 138.612 110.681
147.382 142.484 113.385
147.637 142.522 113.848
147.447 142.809 114.233
147.249 142.309 114.439
147.29 141.881 113.938
147.004 142.481 112.972
147.298 141.652 113.592
146.947 141.289 113.591
147.395 141.18 113.652
147.113 142.433 112.726
146.598 141.174 113.559
146.669 140.727 113.812
147.269 142.757 112.234
146.431 140.678 113.456
145.845 140.456 113.586
146.151 140.125 113.762
147.29 142.702 111.872
145.798 139.857 113.665
147.322 142.527 111.477
145.511 139.752 113.388
145.373 139.364 113.207
147.19 142.177 111.227
145.232 139.108 113.021
145.071 139.036 112.743
145.374 138.652 112.865
147.074 141.88 111.024
144.953 138.166 112.777
147.08 141.626 110.643
144.828 137.956 112.28
146.319 141.427 110.838
146.39 141.003 110.541
144.224 138.099 112.151
143.972 138.097 111.669
146.308 140.576 110.414
143.777 138.044 111.318
145.842 140.44 110.317
145.587 140.027 110.165
145.687 139.749 109.95
143.704 138.229 110.968
145.155 139.742 110.153
144.949 139.428 110.267
144.719 139.035 110.406
144.465 138.578 110.527
143.978 138.304 110.748
147.652 142.589 114.751
148.323 142.633 114.237
148.317 142.169 114.737
148.214 141.654 114.861
147.571 142.033 114.868
147.721 141.663 114.698
147.907 142.296 113.514
148.2 142.525 113.891
147.649 141.818 114.19
147.558 141.565 113.816
147.866 141.373 113.963
147.839 142.548 113.013
148.472 142.269 113.345
147.445 140.774 113.795
147.855 142.316 112.603
146.901 140.379 114.065
147.916 142.427 112.153
146.553 140.146 113.972
146.312 139.656 113.936
147.851 142.438 111.737
146.078 139.346 113.894
145.673 139.398 113.818
145.786 139.118 113.71
147.845 142.231 111.402
145.531 138.955 113.617
145.378 138.858 113.26
145.686 138.524 113.392
147.576 141.789 111.3
145.622 138.336 112.96
147.359 141.506 111.06
145.209 137.787 112.797
147.341 141.255 110.765
145.064 137.471 112.384
146.862 141.129 110.694
146.736 140.72 110.495
144.574 137.921 111.814
145.056 137.502 111.781
146.773 140.345 110.342
146.268 140.225 110.488
146.587 139.971 110.513
144.469 137.87 111.42
145.002 137.779 111.247
146.083 139.945 110.281
145.605 139.316 110.012
146.088 139.493 110.121
145.42 138.877 110.194
145.895 138.961 110.255
145.126 138.425 110.559
145.786 138.574 110.283
144.789 138 110.826
145.284 138.151 110.763
144.188 137.945 111.045
148.59 141.898 114.723
148.847 142.351 114.4
149.103 142.21 114.751
149.043 141.818 114.947
148.771 141.608 114.77
148.964 141.472 114.78
148.898 142.357 113.869
148.726 141.285 114.482
148.291 141.56 114.128
148.596 141.082 114.075
148.818 142.227 113.579
147.964 140.924 113.974
148.514 142.338 112.866
149.078 142.097 113.071
147.872 140.464 113.921
147.535 140.275 113.829
147.734 140.034 113.784
148.604 142.234 112.412
147.041 140.091 114.01
147.118 139.848 113.977
148.585 142.292 111.966
146.865 139.406 114.019
146.528 139.249 114.007
146.762 139.087 113.806
148.507 142.246 111.645
146.359 138.972 113.693
146.18 138.823 113.439
146.524 138.54 113.371
148.308 141.998 111.358
146.072 138.164 113.279
148.173 141.633 111.115
145.819 138.054 112.832
147.787 141.346 110.906
145.806 137.738 112.656
145.486 137.36 112.531
146.119 137.482 112.432
147.619 141.083 110.784
147.332 141.045 110.767
147.755 140.803 110.679
145.402 137.195 112.073
145.931 137.099 112.218
146.957 140.516 110.455
147.08 140.709 110.644
147.191 140.156 110.482
145.443 137.385 111.587
145.85 137.37 111.706
146.609 139.706 110.447
147.044 139.813 110.375
146.819 139.468 110.654
145.977 137.645 111.286
145.522 137.659 111.115
146.371 139.422 110.429
146.459 138.913 110.227
146.332 138.366 110.318
146.034 138.051 110.523
149.538 141.985 115.087
149.522 141.976 114.582
150.055 141.72 114.872
149.942 141.609 115.171
149.59 141.404 114.947
149.757 141.294 115.155
149.65 141.161 114.82
149.679 141.067 115.059
149.51 142.112 114.096
149.323 141.239 114.696
149.531 140.989 114.597
149.471 142.067 113.668
149.202 140.799 114.299
148.715 140.653 114.064
149.27 140.34 113.991
149.793 142.214 113.078
148.167 140.495 114.122
148.473 140.112 114.086
149.129 142.085 112.623
149.815 142.06 112.711
148.239 139.981 113.875
147.776 139.692 113.881
147.901 139.389 114.12
149.075 142.08 112.207
147.447 139.485 113.987
147.583 139.197 114.076
149.292 142.017 111.878
147.134 138.87 114.047
146.961 138.808 113.485
147.136 138.536 113.513
149.04 141.997 111.544
146.823 138.277 113.305
148.842 141.744 111.307
146.696 137.996 113.201
146.34 137.876 112.987
147.095 137.915 112.812
148.638 141.424 111.183
148.334 141.268 110.966
148.976 141.164 110.951
146.265 137.772 112.632
146.851 137.768 112.486
148.152 141.045 110.712
148.742 140.918 110.62
146.719 137.603 112.124
148.307 140.601 110.486
146.466 137.457 111.755
147.63 140.408 110.603
147.637 140.002 110.531
146.368 137.664 111.423
147.477 139.72 110.39
146.922 139.197 110.561
147.47 139.271 110.48
147.263 138.929 110.513
146.407 137.927 111.235
146.133 138.031 110.889
146.783 138.967 110.4
146.839 138.591 110.322
146.625 138.161 110.488
150.19 141.838 114.332
150.548 141.704 114.626
150.38 141.638 115.062
150.231 141.222 115.186
149.909 140.811 115.032
150.151 141.877 113.824
150.136 140.652 114.606
149.707 140.663 114.412
149.633 140.372 114.446
150.189 141.801 113.409
149.278 140.238 114.334
149.032 139.968 114.152
149.458 139.764 114.233
150.513 141.956 112.98
148.479 139.745 114.204
149.034 139.561 114.057
149.865 141.893 112.498
150.454 141.803 112.643
148.481 139.465 114.026
147.893 138.983 114.086
148.284 138.812 114.3
149.709 141.91 112.169
150.339 141.727 112.288
147.579 138.82 114.065
148.003 138.586 113.993
149.883 141.679 111.822
147.253 138.419 114.016
147.255 138.26 113.486
147.67 138.133 113.676
149.617 141.725 111.476
147.413 138.124 113.033
147.742 137.838 113.182
149.44 141.463 111.366
149.071 141.378 111.189
149.807 141.219 111.003
147.603 137.762 112.701
149.587 140.825 110.809
147.545 137.848 112.192
149.193 140.589 110.631
148.769 140.473 110.533
149.106 140.215 110.63
147.282 137.71 111.752
148.26 140.357 110.653
148.444 140.103 110.678
147.087 137.593 111.539
147.738 139.64 110.503
148 140.041 110.603
147.839 139.365 110.425
148.104 139.624 110.646
147.926 139.262 110.566
146.71 137.962 111.164
147.347 137.702 111.248
147.22 138.11 111.007
147.386 138.585 110.401
147.685 138.898 110.569
147.141 138.284 110.55
147.693 138.539 110.689
146.71 138.346 110.823
147.458 138.386 110.803
150.898 141.443 114.844
151.001 141.545 114.37
151.299 141.142 114.612
151.255 141.299 115.099
150.825 141.132 115.13
150.622 140.977 115.539
150.592 140.792 115.167
150.644 140.564 115.489
150.57 140.461 115.095
150.733 140.293 115.265
150.75 141.663 113.989
150.341 140.562 114.958
150.495 140.304 114.829
150.721 141.562 113.565
149.946 140.119 114.717
149.807 139.982 114.344
149.815 139.679 114.597
150.957 141.651 113.126
149.552 139.365 114.369
151.126 141.696 112.765
149.643 139.129 114.165
148.872 139.146 114.201
149.229 138.869 114.054
151.282 141.662 112.391
148.537 138.492 114.12
150.376 141.535 112.01
150.944 141.552 112.212
148.458 138.191 113.85
150.358 141.429 111.577
150.816 141.241 111.824
148.059 138.184 113.779
148.307 138.032 113.371
150.132 141.437 111.231
150.578 141.021 111.364
148.24 137.697 112.978
150.349 140.89 110.93
148.145 137.676 112.555
150.394 140.626 110.615
149.773 140.408 110.606
149.694 140.038 110.605
150.29 140.172 110.658
150.18 139.85 110.608
148.044 137.807 112.032
149.042 139.838 110.634
149.913 139.687 110.314
147.887 137.78 111.78
148.509 137.656 111.863
148.346 137.631 111.562
148.636 139.824 110.467
149.119 139.359 110.566
148.446 139.496 110.735
148.665 139.172 110.575
147.708 137.699 111.49
148.042 137.945 111.232
148.47 138.954 110.603
147.933 138.25 110.97
148.094 138.875 110.649
147.954 138.641 110.752
148.024 138.338 110.843
151.636 140.358 115.697
151.947 140.707 115.371
152.271 140.287 115.594
152.139 140.243 115.951
151.434 140.325 115.945
151.913 140.032 116.218
151.216 139.987 115.963
151.889 139.631 116.044
151.239 140.826 115.535
151.824 140.852 115.008
150.984 140.587 115.792
150.797 140.298 115.748
151.747 139.692 115.732
151.198 139.925 115.554
151.703 139.459 115.656
151.347 141.28 114.109
151.616 141.052 114.584
150.711 139.971 115.197
151.531 139.51 115.437
151.099 139.612 115.205
151.569 139.193 115.263
151.247 141.283 113.76
150.115 139.785 114.947
150.611 139.473 114.947
151.236 139.221 114.984
151.56 141.474 113.209
150.152 139.333 114.687
150.734 139.126 114.79
151.539 141.452 112.91
149.922 139.118 114.456
150.333 138.853 114.591
151.711 141.337 112.586
149.85 138.774 114.16
149.465 138.536 113.974
150.136 138.554 113.903
151.635 141.133 112.261
148.976 138.233 113.919
149.593 138.164 113.876
151.332 141.083 111.983
148.681 138.167 113.571
149.073 137.995 113.483
151.115 140.931 111.591
148.823 137.791 113.19
151.463 140.63 111.258
150.989 140.625 111.028
151.384 140.338 111.069
148.764 137.683 112.789
150.792 140.49 110.736
151.027 140.21 110.887
148.701 138.027 112.315
150.863 139.99 110.646
150.249 139.585 110.73
148.897 137.805 112.045
150.221 139.433 110.373
149.863 139.368 110.388
150.056 139.057 110.361
149.004 137.758 111.739
148.819 137.708 111.444
148.949 138.652 110.635
149.478 138.947 110.332
148.954 138.238 110.863
149.588 138.405 110.524
148.581 138.004 111.195
149.348 138.012 110.95
148.574 138.656 110.581
148.539 138.306 110.585
148.349 138.208 110.868
152.639 139.95 116.284
152.85 140.016 115.94
153.32 139.705 116.13
153.324 139.466 116.575
152.318 139.513 116.432
152.884 139.256 116.661
152.645 139.185 116.295
152.938 138.86 116.557
152.558 140.672 115.182
152.786 140.425 115.552
152.015 139.31 116.038
152.577 138.814 116.397
152.522 139.022 115.98
152.63 138.614 116.202
152.505 140.755 114.819
151.84 139.103 115.731
152.265 138.776 115.636
151.905 141.175 114.031
152.291 140.925 114.421
152.01 138.929 115.139
152.051 141.247 113.573
152.548 141.065 113.848
151.521 138.875 114.891
152.043 141.169 113.286
152.462 140.812 113.539
151.224 138.836 114.662
152.149 141.315 112.831
152.393 140.939 113.159
151.158 138.544 114.457
152.13 140.991 112.483
150.452 138.458 114.297
150.385 138.268 114.08
152.453 140.679 112.407
152.125 140.842 111.981
152.584 140.464 111.971
149.808 137.873 113.811
151.871 140.807 111.676
152.409 140.523 111.606
149.569 137.912 113.269
151.638 140.589 111.54
151.94 140.342 111.512
149.481 137.843 112.898
151.516 139.969 110.934
152.089 140.158 111.044
151.854 139.653 110.988
149.367 137.9 112.518
151.189 139.924 110.822
151.367 139.545 110.823
149.42 138.056 112.2
150.17 139.181 110.735
150.732 139.44 110.797
150.205 138.677 110.918
150.817 138.991 110.887
149.926 138.376 111.243
150.855 138.473 111.001
149.79 138.267 111.652
150.516 138.157 111.311
149.456 138.031 111.842
150.032 138.076 111.82
150.018 138.607 110.486
149.87 138.174 110.866
149.475 137.849 111.369
154.301 138.535 118.02
154.43 138.342 117.93
154.524 138.808 118.252
154.107 138.099 118.474
154.275 138.25 117.848
153.919 137.921 118.455
154.141 138.042 118.261
154.234 137.729 118.406
154.341 138.387 117.815
154.467 138.584 117.787
154.304 138.29 117.784
154.415 138.112 117.811
154.031 137.876 118.364
153.95 139.054 117.654
154.222 138.943 117.438
154.092 138.654 117.614
154.02 138.406 117.627
154.044 138.25 117.836
153.435 139.596 117.26
153.831 139.124 116.848
154.052 139.183 117.095
153.309 139.15 117.278
153.744 138.855 117.34
153.655 138.521 117.404
153.968 138.541 117.569
153.23 139.192 116.968
153.944 139.382 116.458
152.891 138.961 116.951
153.1 138.685 117.003
153.219 138.404 117.162
153.301 139.858 115.744
153.841 139.313 116.111
153.024 138.609 116.526
152.973 138.384 116.626
152.986 140.523 115.02
153.301 140.29 115.234
152.755 138.443 116.135
153.015 140.673 114.588
152.417 138.474 115.671
153.034 140.8 114.114
152.327 138.566 115.153
153.073 140.744 113.753
151.992 138.595 114.842
153.001 140.574 113.422
151.911 138.511 114.548
152.325 140.772 112.842
152.771 140.55 113.066
151.84 138.285 114.271
152.416 140.656 112.681
152.667 140.336 112.711
151.192 138.346 114.146
150.702 138.112 113.823
152.563 140.022 111.907
152.575 140.124 112.379
152.603 139.738 112.316
150.561 138.155 113.453
152.234 139.916 111.696
152.777 139.552 111.837
150.326 137.926 113.094
152.187 139.989 111.322
152.264 139.519 111.53
150.245 137.964 112.818
150.607 138.113 112.907
150.857 138.289 112.719
151.717 139.222 111.062
152.149 139.535 111.127
152.214 139.047 111.184
150.122 138.244 112.512
150.658 138.503 112.376
151.173 139.117 110.976
151.955 138.75 111.16
151.218 138.758 111.215
150.929 138.486 111.594
151.573 138.411 111.558
150.438 138.515 111.99
151.083 138.372 111.999
149.893 138.226 112.235
154.705 138.546 117.841
154.719 138.584 118.152
154.737 138.393 118.368
154.519 137.779 118.231
154.502 137.961 118.077
154.429 138.703 117.568
154.127 138.072 118.174
154.436 138.924 117.341
154.058 138.276 117.888
154.37 139.081 116.666
154.332 138.984 117.004
154.052 138.652 117.567
153.711 138.404 117.266
154.618 139.172 116.176
153.38 138.35 116.942
154.044 139.629 115.612
154.412 139.314 115.857
153.38 138.387 116.445
153.437 140.299 114.841
153.885 140.022 115.171
153.14 138.339 115.978
153.553 140.392 114.413
154.02 140.081 114.696
152.981 138.307 115.526
153.536 140.471 114.056
154.009 140.072 114.248
152.891 138.383 115.116
153.638 140.495 113.646
153.998 140.097 113.9
152.791 138.401 114.794
153.445 140.201 113.305
153.993 140.098 113.523
152.646 138.387 114.453
153.152 140.037 112.979
153.825 139.853 113.322
153.713 139.739 112.98
153.765 139.389 113.37
152.529 138.352 114.056
152.81 139.839 112.632
153.542 139.661 112.571
153.863 139.175 112.846
151.501 138.133 113.887
152.19 138.233 113.697
153.131 139.388 112.239
153.623 139.133 112.477
151.335 137.997 113.596
151.898 138.232 113.24
152.577 139.123 111.923
153.192 139.002 112.173
151.109 138.133 113.125
151.773 138.392 112.974
152.307 139.1 111.543
152.678 138.758 112.168
152.19 138.788 112.054
151.828 138.475 112.342
152.497 138.46 112.3
151.406 138.389 112.669
152.22 138.093 112.573
152.288 138.694 111.491
151.806 138.441 112.004
151.266 138.464 112.392
154.736 138.48 117.828
154.949 138.587 118.009
155.192 138.464 118.201
154.81 138.044 118.068
154.627 138.049 118.03
154.545 138.533 117.65
154.356 138.263 117.899
154.672 138.822 117.422
154.247 138.54 117.775
155.018 138.967 116.792
154.93 138.813 117.198
155.259 138.433 116.933
154.218 138.353 117.301
154.387 138.677 117.526
154.191 138.763 117.714
154.94 138.938 116.415
155.183 138.566 116.645
154.647 138.218 116.948
154.021 138.451 116.993
153.836 138.417 116.687
154.399 139.514 115.471
154.925 139.087 115.853
153.712 138.419 116.202
154.324 139.66 115.074
154.726 139.184 115.391
153.599 138.207 115.819
154.428 139.733 114.569
154.668 139.281 114.962
153.6 138.255 115.43
154.385 139.665 114.15
154.731 139.31 114.433
153.55 138.09 115.067
154.214 139.635 113.771
154.47 139.213 114.047
153.476 138.352 114.654
154.144 139.605 113.441
154.371 139.228 113.565
153.139 138.378 114.26
153.823 139.004 113.456
152.782 138.405 113.851
153.827 138.807 113.208
153.822 138.64 112.764
153.468 138.23 113.145
153.794 138.493 113.271
152.871 138.214 113.492
153.195 138.584 113.643
153.482 138.647 112.398
153.26 138.293 112.809
152.709 138.054 113.21
153.068 138.62 112.285
153.01 138.214 112.516
152.554 138.104 112.917
154.986 138.598 117.791
155.076 138.473 117.948
154.904 138.242 118.033
154.825 138.725 117.564
154.722 138.475 117.74
154.671 138.301 117.83
154.935 138.877 117.34
154.614 138.602 117.576
154.574 138.368 117.698
155.06 138.643 116.216
154.985 138.184 116.486
154.234 138.496 116.685
154.993 138.801 115.761
154.825 138.307 116.132
154.196 138.392 116.409
154.913 138.812 115.301
154.754 138.442 115.759
154.175 138.282 116.01
154.928 138.888 114.856
154.82 138.321 115.21
154.252 138.18 115.545
154.857 138.889 114.329
154.593 138.516 114.8
154.179 138.152 115.192
154.515 138.79 113.947
154.373 138.448 114.362
154.04 138.182 114.796
154.186 138.798 113.595
154.128 138.551 113.992
153.663 138.559 114.295
153.938 138.781 113.481
153.891 138.598 113.631
153.375 138.575 113.962
POLYGONS 1936  7744
3 0 1 2
3 0 3 4
3 2 3 0
3 4 5 6
3 3 5 4
3 5 7 6
3 8 1 0
3 9 1 8
3 4 10 0
3 10 8 0
3 6 11 4
3 11 10 4
3 12 6 7
3 11 6 12
3 8 13 9
3 10 13 8
3 14 13 10
3 11 14 10
3 15 14 11
3 12 15 11
3 16 17 18
3 16 19 20
3 18 19 16
3 20 21 22
3 19 21 20
3 21 23 22
3 24 17 16
3 25 17 24
3 20 26 16
3 26 24 16
3 22 27 20
3 27 26 20
3 28 22 23
3 28 29 22
3 29 27 22
3 28 30 29
3 31 25 24
3 32 25 31
3 26 33 24
3 33 31 24
3 27 34 26
3 34 33 26
3 29 35 27
3 35 34 27
3 36 29 30
3 35 29 36
3 31 37 32
3 37 38 39
3 37 31 38
3 31 33 38
3 34 40 33
3 40 38 33
3 35 41 34
3 41 40 34
3 42 35 36
3 41 35 42
3 38 43 39
3 40 43 38
3 44 43 40
3 44 45 46
3 44 40 45
3 40 41 45
3 47 41 42
3 47 48 41
3 48 45 41
3 48 49 50
3 47 49 48
3 49 51 50
3 52 46 45
3 53 46 52
3 48 54 45
3 54 52 45
3 50 55 48
3 55 54 48
3 56 50 51
3 55 50 56
3 57 58 59
3 53 57 59
3 52 57 53
3 52 1 57
3 52 2 1
3 3 2 52
3 54 3 52
3 5 3 54
3 55 5 54
3 55 7 5
3 55 56 7
3 56 60 7
3 61 58 57
3 62 58 61
3 1 9 61
3 57 1 61
3 7 60 12
3 60 63 12
3 61 64 62
3 9 64 61
3 9 13 64
3 13 65 64
3 14 66 13
3 13 66 65
3 15 67 14
3 14 67 66
3 63 15 12
3 67 15 63
3 68 69 70
3 68 71 72
3 70 71 68
3 71 73 72
3 74 69 68
3 75 69 74
3 18 17 74
3 18 74 72
3 72 74 68
3 72 73 76
3 72 76 18
3 18 76 19
3 21 19 77
3 19 76 77
3 77 23 21
3 78 23 77
3 79 75 74
3 80 75 79
3 17 25 79
3 74 17 79
3 23 78 81
3 28 23 81
3 81 30 28
3 82 30 81
3 83 80 79
3 84 80 83
3 25 32 83
3 79 25 83
3 85 86 36
3 85 36 82
3 82 36 30
3 85 87 86
3 83 88 84
3 89 90 88
3 37 89 88
3 37 88 83
3 37 83 32
3 37 39 89
3 86 91 42
3 36 86 42
3 92 86 87
3 91 86 92
3 89 93 90
3 94 95 93
3 43 94 93
3 43 93 89
3 43 89 39
3 43 44 96
3 94 43 96
3 44 46 96
3 42 91 47
3 91 92 97
3 91 97 47
3 47 97 49
3 97 51 49
3 98 51 97
3 99 95 94
3 100 95 99
3 96 101 94
3 101 99 94
3 46 53 101
3 96 46 101
3 51 98 56
3 98 102 56
3 99 103 100
3 59 58 104
3 59 104 99
3 59 99 101
3 99 104 103
3 53 59 101
3 56 102 60
3 102 105 60
3 58 62 104
3 104 62 106
3 60 105 63
3 105 107 63
3 62 108 106
3 64 108 62
3 109 110 108
3 109 108 65
3 65 108 64
3 65 66 111
3 109 65 111
3 66 67 112
3 111 66 112
3 67 113 112
3 67 63 113
3 63 107 113
3 109 114 110
3 111 114 109
3 115 114 111
3 112 115 111
3 116 115 112
3 113 116 112
3 70 117 118
3 69 117 70
3 71 70 119
3 70 118 119
3 73 120 121
3 73 71 120
3 71 119 120
3 120 122 121
3 69 75 117
3 117 75 123
3 73 121 76
3 121 122 124
3 121 124 76
3 76 124 77
3 124 78 77
3 125 78 124
3 75 80 123
3 123 80 126
3 78 125 127
3 81 78 127
3 127 82 81
3 128 82 127
3 80 84 126
3 126 84 129
3 82 128 130
3 85 82 130
3 130 87 85
3 131 87 130
3 132 84 88
3 132 133 84
3 133 129 84
3 88 90 132
3 87 131 92
3 131 134 92
3 135 133 132
3 136 133 135
3 90 93 137
3 90 137 132
3 132 137 135
3 93 95 137
3 92 134 138
3 97 92 138
3 138 98 97
3 139 98 138
3 135 140 136
3 140 141 142
3 140 135 141
3 135 137 141
3 95 100 141
3 137 95 141
3 98 139 102
3 139 143 102
3 141 144 142
3 145 146 144
3 103 145 144
3 103 144 141
3 103 141 100
3 103 104 145
3 147 148 105
3 147 105 143
3 143 105 102
3 147 149 148
3 150 146 145
3 151 146 150
3 104 106 150
3 145 104 150
3 148 152 107
3 105 148 107
3 153 148 149
3 152 148 153
3 150 154 151
3 106 154 150
3 106 108 154
3 108 155 154
3 155 108 110
3 156 155 110
3 152 157 113
3 107 152 113
3 158 152 153
3 157 152 158
3 110 159 156
3 114 159 110
3 115 160 114
3 114 160 159
3 116 161 115
3 115 161 160
3 157 116 113
3 157 162 116
3 162 161 116
3 158 162 157
3 163 164 165
3 163 166 167
3 165 166 163
3 167 168 169
3 166 168 167
3 168 170 169
3 118 164 163
3 118 117 164
3 117 171 164
3 119 118 163
3 167 119 163
3 120 119 167
3 169 120 167
3 169 122 120
3 169 170 122
3 170 172 122
3 117 123 171
3 171 123 173
3 122 172 174
3 124 122 174
3 174 125 124
3 175 125 174
3 123 126 173
3 173 126 176
3 125 175 177
3 127 125 177
3 177 128 127
3 178 128 177
3 126 129 176
3 176 129 179
3 128 178 180
3 130 128 180
3 180 131 130
3 181 131 180
3 129 133 179
3 179 133 182
3 131 181 134
3 181 183 134
3 133 136 182
3 182 136 184
3 134 183 185
3 138 134 185
3 185 139 138
3 186 139 185
3 187 136 140
3 187 188 136
3 188 184 136
3 140 142 187
3 189 190 143
3 189 143 186
3 186 143 139
3 189 191 190
3 187 192 188
3 193 194 192
3 144 193 192
3 144 192 187
3 144 187 142
3 144 146 193
3 143 190 147
3 190 149 147
3 190 191 149
3 191 195 149
3 196 194 193
3 197 194 196
3 146 151 196
3 193 146 196
3 149 195 153
3 195 198 153
3 196 199 197
3 151 199 196
3 151 154 199
3 154 200 199
3 201 202 200
3 201 200 155
3 155 200 154
3 155 156 201
3 153 198 158
3 198 203 158
3 201 204 202
3 156 204 201
3 156 159 204
3 159 205 204
3 160 206 159
3 159 206 205
3 161 207 160
3 160 207 206
3 162 208 161
3 161 208 207
3 203 162 158
3 208 162 203
3 165 209 210
3 164 209 165
3 166 165 211
3 165 210 211
3 168 166 212
3 166 211 212
3 212 170 168
3 213 170 212
3 164 171 209
3 209 171 214
3 170 213 172
3 213 215 172
3 171 173 214
3 214 173 216
3 172 215 217
3 174 172 217
3 217 175 174
3 218 175 217
3 173 176 216
3 216 176 219
3 175 218 220
3 177 175 220
3 220 178 177
3 221 178 220
3 176 179 219
3 219 179 222
3 178 221 223
3 180 178 223
3 223 181 180
3 224 181 223
3 179 182 222
3 222 182 225
3 181 224 183
3 224 226 183
3 182 184 225
3 225 184 227
3 183 226 228
3 185 183 228
3 228 186 185
3 229 186 228
3 184 188 227
3 227 188 230
3 186 229 231
3 189 186 231
3 231 191 189
3 232 191 231
3 188 233 230
3 192 233 188
3 233 192 194
3 234 233 194
3 191 232 195
3 232 235 195
3 194 197 234
3 234 197 236
3 195 235 198
3 235 237 198
3 197 238 236
3 199 238 197
3 200 239 199
3 199 239 238
3 239 200 202
3 240 239 202
3 198 237 203
3 237 241 203
3 202 242 240
3 204 242 202
3 205 243 204
3 204 243 242
3 206 244 205
3 205 244 243
3 207 245 206
3 206 245 244
3 208 246 207
3 207 246 245
3 241 208 203
3 246 208 241
3 247 248 249
3 247 250 251
3 249 250 247
3 251 252 253
3 250 252 251
3 252 254 253
3 210 248 247
3 210 209 248
3 209 255 248
3 211 210 247
3 251 211 247
3 212 211 251
3 253 212 251
3 253 213 212
3 253 254 213
3 254 256 213
3 209 214 255
3 255 214 257
3 213 256 215
3 256 258 215
3 214 216 257
3 257 216 259
3 215 258 260
3 217 215 260
3 260 218 217
3 261 218 260
3 216 219 259
3 259 219 262
3 218 261 263
3 220 218 263
3 263 221 220
3 264 221 263
3 219 222 262
3 262 222 265
3 221 264 266
3 223 221 266
3 266 224 223
3 267 224 266
3 222 225 265
3 265 225 268
3 224 267 226
3 267 269 226
3 225 227 268
3 268 227 270
3 226 269 271
3 228 226 271
3 271 229 228
3 272 229 271
3 227 230 270
3 270 230 273
3 274 231 229
3 274 229 275
3 275 229 272
3 231 274 232
3 230 276 273
3 233 276 230
3 276 233 234
3 277 276 234
3 274 275 278
3 278 232 274
3 278 279 232
3 279 235 232
3 234 236 277
3 277 236 280
3 235 279 237
3 279 281 237
3 236 282 280
3 238 282 236
3 239 283 238
3 238 283 282
3 283 239 240
3 284 283 240
3 237 281 241
3 281 285 241
3 240 286 284
3 242 286 240
3 243 287 242
3 242 287 286
3 244 288 243
3 243 288 287
3 245 289 244
3 244 289 288
3 246 290 245
3 245 290 289
3 285 246 241
3 290 246 285
3 249 291 292
3 248 291 249
3 250 249 293
3 249 292 293
3 252 250 294
3 250 293 294
3 294 254 252
3 295 254 294
3 248 255 291
3 291 255 296
3 297 298 256
3 297 256 295
3 295 256 254
3 297 299 298
3 255 257 296
3 296 257 300
3 298 301 258
3 256 298 258
3 302 298 299
3 301 298 302
3 257 259 300
3 300 259 303
3 258 301 260
3 261 304 305
3 260 304 261
3 260 302 304
3 260 301 302
3 304 306 305
3 259 262 303
3 303 262 307
3 261 305 263
3 305 264 263
3 305 306 264
3 306 308 264
3 262 265 307
3 307 265 309
3 264 308 310
3 266 264 310
3 310 267 266
3 311 267 310
3 265 268 309
3 309 268 312
3 313 314 269
3 313 269 311
3 311 269 267
3 313 315 314
3 268 270 312
3 312 270 316
3 269 314 271
3 314 272 271
3 314 315 272
3 315 317 272
3 270 273 316
3 316 273 318
3 272 317 275
3 317 319 275
3 273 320 318
3 276 320 273
3 320 276 277
3 321 320 277
3 275 319 322
3 278 275 322
3 322 279 278
3 323 279 322
3 277 280 321
3 321 280 324
3 279 323 281
3 323 325 281
3 280 326 324
3 282 326 280
3 283 327 282
3 282 327 326
3 327 283 284
3 328 327 284
3 281 325 285
3 325 329 285
3 284 330 328
3 286 330 284
3 287 331 286
3 286 331 330
3 288 332 287
3 287 332 331
3 289 333 288
3 288 333 332
3 290 334 289
3 289 334 333
3 329 290 285
3 334 290 329
3 335 336 337
3 335 338 339
3 337 338 335
3 338 340 339
3 292 291 341
3 335 342 336
3 335 292 342
3 335 293 292
3 341 342 292
3 294 293 335
3 339 294 335
3 295 343 344
3 294 343 295
3 294 340 343
3 294 339 340
3 343 345 344
3 341 346 347
3 341 291 346
3 291 296 346
3 342 341 347
3 295 344 297
3 344 299 297
3 344 345 299
3 345 348 299
3 296 300 346
3 346 300 349
3 299 348 302
3 348 350 302
3 300 303 349
3 349 303 351
3 302 350 352
3 304 302 352
3 352 306 304
3 353 306 352
3 303 307 351
3 351 307 354
3 355 356 308
3 355 308 353
3 353 308 306
3 355 357 356
3 307 309 354
3 354 309 358
3 308 356 310
3 311 359 360
3 310 359 311
3 310 357 359
3 310 356 357
3 359 361 360
3 309 312 358
3 358 312 362
3 311 360 313
3 360 315 313
3 360 361 315
3 361 363 315
3 312 316 362
3 362 316 364
3 315 363 317
3 363 365 317
3 316 318 364
3 364 318 366
3 317 365 319
3 365 367 319
3 318 368 366
3 320 368 318
3 368 320 321
3 369 368 321
3 370 322 319
3 370 319 371
3 371 319 367
3 322 370 323
3 372 324 373
3 372 369 324
3 369 321 324
3 372 373 374
3 375 370 371
3 376 375 371
3 323 375 325
3 370 375 323
3 324 326 373
3 373 377 374
3 373 326 377
3 326 327 377
3 328 378 379
3 328 379 327
3 327 379 377
3 378 380 381
3 379 378 381
3 380 382 383
3 381 380 383
3 382 384 385
3 383 382 385
3 376 385 384
3 376 384 375
3 375 384 386
3 325 386 329
3 375 386 325
3 328 330 378
3 331 378 330
3 380 378 331
3 332 380 331
3 382 380 332
3 333 382 332
3 384 382 333
3 334 384 333
3 386 384 334
3 329 386 334
3 387 388 389
3 387 390 391
3 389 390 387
3 390 392 391
3 337 388 387
3 337 336 388
3 336 393 388
3 338 337 387
3 391 338 387
3 340 394 395
3 338 394 340
3 338 392 394
3 338 391 392
3 394 396 395
3 336 342 393
3 393 342 397
3 340 395 343
3 395 345 343
3 395 396 345
3 396 398 345
3 347 399 400
3 346 399 347
3 397 342 347
3 400 397 347
3 401 402 348
3 401 348 398
3 398 348 345
3 401 403 402
3 346 349 399
3 399 349 404
3 402 405 350
3 348 402 350
3 406 402 403
3 405 402 406
3 349 351 404
3 404 351 407
3 350 405 352
3 353 408 409
3 352 408 353
3 352 406 408
3 352 405 406
3 408 410 409
3 351 354 407
3 407 354 411
3 353 409 355
3 357 412 413
3 355 412 357
3 355 410 412
3 355 409 410
3 412 414 413
3 354 358 411
3 411 358 415
3 357 413 359
3 413 361 359
3 413 414 361
3 414 416 361
3 358 362 415
3 415 362 417
3 361 416 363
3 416 418 363
3 362 364 417
3 417 364 419
3 420 421 365
3 420 365 418
3 418 365 363
3 420 422 421
3 423 366 424
3 423 419 366
3 419 364 366
3 423 424 425
3 421 426 367
3 365 421 367
3 427 421 422
3 426 421 427
3 366 368 424
3 369 428 429
3 368 369 429
3 368 429 425
3 368 425 424
3 429 428 430
3 426 431 371
3 367 426 371
3 432 426 427
3 431 426 432
3 369 372 428
3 374 433 434
3 372 374 434
3 372 434 430
3 372 430 428
3 434 433 435
3 431 436 437
3 431 437 371
3 371 437 376
3 432 436 431
3 374 377 433
3 433 438 435
3 433 377 438
3 377 379 438
3 381 439 379
3 379 439 438
3 383 440 381
3 381 440 439
3 385 441 383
3 383 441 440
3 437 385 376
3 441 385 437
3 442 443 444
3 442 445 446
3 444 445 442
3 446 447 448
3 445 447 446
3 447 449 448
3 389 443 442
3 389 388 443
3 388 450 443
3 390 389 442
3 446 390 442
3 392 390 446
3 392 446 451
3 451 446 448
3 452 448 449
3 451 448 452
3 388 393 450
3 450 393 453
3 392 451 394
3 396 454 455
3 394 454 396
3 394 452 454
3 394 451 452
3 454 456 455
3 393 397 453
3 453 397 457
3 455 458 398
3 396 455 398
3 459 455 456
3 458 455 459
3 400 460 461
3 399 460 400
3 457 397 400
3 461 457 400
3 398 458 401
3 403 462 463
3 401 462 403
3 401 459 462
3 401 458 459
3 462 464 463
3 399 404 460
3 460 404 465
3 463 466 406
3 403 463 406
3 467 463 464
3 466 463 467
3 404 407 465
3 465 407 468
3 406 466 408
3 410 469 470
3 408 469 410
3 408 467 469
3 408 466 467
3 469 471 470
3 407 411 468
3 468 411 472
3 410 470 412
3 470 414 412
3 470 471 414
3 471 473 414
3 411 415 472
3 472 415 474
3 475 476 416
3 475 416 473
3 473 416 414
3 475 477 476
3 478 417 479
3 478 474 417
3 474 415 417
3 478 479 480
3 476 481 418
3 416 476 418
3 482 476 477
3 481 476 482
3 479 419 483
3 417 419 479
3 484 480 479
3 483 484 479
3 418 481 420
3 481 422 420
3 481 482 422
3 482 485 422
3 419 423 483
3 483 423 425
3 483 425 484
3 484 425 486
3 422 485 427
3 485 487 427
3 425 488 486
3 429 488 425
3 488 429 430
3 489 488 430
3 427 487 432
3 487 490 432
3 430 491 489
3 434 491 430
3 435 492 493
3 435 493 434
3 434 493 491
3 493 492 494
3 436 495 496
3 437 436 496
3 490 436 432
3 495 436 490
3 435 438 492
3 492 497 494
3 492 438 497
3 438 439 497
3 440 498 439
3 439 498 497
3 441 499 440
3 440 499 498
3 496 441 437
3 499 441 496
3 444 500 501
3 443 500 444
3 445 444 502
3 444 501 502
3 447 445 503
3 445 502 503
3 503 449 447
3 504 449 503
3 443 450 500
3 500 450 505
3 506 507 452
3 506 452 504
3 504 452 449
3 506 508 507
3 450 453 505
3 505 453 509
3 452 507 454
3 456 510 511
3 454 510 456
3 454 508 510
3 454 507 508
3 510 512 511
3 453 457 509
3 509 457 513
3 511 514 459
3 456 511 459
3 515 511 512
3 514 511 515
3 461 460 516
3 461 516 517
3 461 517 457
3 457 517 513
3 459 514 462
3 464 518 519
3 462 518 464
3 462 515 518
3 462 514 515
3 518 520 519
3 516 521 522
3 516 460 521
3 460 465 521
3 517 516 522
3 519 523 467
3 464 519 467
3 524 519 520
3 523 519 524
3 465 468 521
3 521 468 525
3 467 523 469
3 471 526 527
3 469 526 471
3 469 524 526
3 469 523 524
3 526 528 527
3 468 472 525
3 525 472 529
3 527 530 473
3 471 527 473
3 531 527 528
3 530 527 531
3 532 474 533
3 532 529 474
3 529 472 474
3 532 533 534
3 473 530 475
3 530 477 475
3 530 531 477
3 531 535 477
3 474 478 533
3 533 478 480
3 533 480 534
3 534 480 536
3 477 535 482
3 535 537 482
3 538 484 539
3 538 536 484
3 536 480 484
3 538 539 540
3 482 537 485
3 537 541 485
3 539 486 542
3 484 486 539
3 543 540 539
3 542 543 539
3 485 541 487
3 541 544 487
3 486 488 542
3 489 545 546
3 488 489 546
3 488 546 543
3 488 543 542
3 545 547 548
3 546 545 548
3 548 547 549
3 550 551 552
3 550 544 551
3 550 490 544
3 490 487 544
3 489 491 545
3 493 545 491
3 547 545 493
3 494 553 554
3 493 494 554
3 493 554 549
3 493 549 547
3 553 555 556
3 554 553 556
3 555 557 558
3 556 555 558
3 552 558 557
3 550 552 557
3 550 557 496
3 550 496 495
3 490 550 495
3 494 497 553
3 498 553 497
3 555 553 498
3 499 555 498
3 557 555 499
3 496 557 499
3 559 560 561
3 559 562 563
3 561 562 559
3 563 564 565
3 562 564 563
3 565 566 567
3 564 566 565
3 566 568 567
3 501 560 559
3 501 500 560
3 500 569 560
3 502 501 559
3 563 502 559
3 503 502 563
3 565 503 563
3 504 503 565
3 504 565 570
3 570 565 567
3 571 567 568
3 570 567 571
3 500 505 569
3 569 505 572
3 504 570 506
3 508 573 574
3 506 573 508
3 506 571 573
3 506 570 571
3 573 575 574
3 505 509 572
3 572 509 576
3 508 574 510
3 574 512 510
3 574 575 512
3 575 577 512
3 509 513 576
3 576 513 578
3 579 580 515
3 579 515 577
3 577 515 512
3 579 581 580
3 513 517 578
3 578 517 582
3 515 580 518
3 580 520 518
3 580 581 520
3 581 583 520
3 522 521 584
3 522 584 585
3 522 585 517
3 517 585 582
3 520 583 524
3 583 586 524
3 584 525 587
3 521 525 584
3 588 585 584
3 587 588 584
3 524 586 589
3 526 524 589
3 589 528 526
3 590 528 589
3 587 529 591
3 525 529 587
3 592 588 587
3 591 592 587
3 528 590 531
3 590 593 531
3 529 532 591
3 591 532 534
3 591 534 592
3 592 534 594
3 531 593 535
3 593 595 535
3 596 536 597
3 596 594 536
3 594 534 536
3 597 598 599
3 596 597 599
3 599 598 600
3 535 595 537
3 595 601 537
3 536 538 597
3 540 597 538
3 540 602 597
3 602 598 597
3 603 600 598
3 602 603 598
3 604 605 606
3 604 601 605
3 604 541 601
3 541 537 601
3 602 543 607
3 540 543 602
3 608 603 602
3 608 602 609
3 609 602 607
3 608 609 610
3 611 604 606
3 612 611 606
3 541 611 544
3 604 611 541
3 543 546 607
3 548 607 546
3 609 607 548
3 609 548 549
3 609 549 610
3 610 549 613
3 551 611 612
3 551 612 552
3 552 612 614
3 544 611 551
3 549 615 613
3 554 615 549
3 556 616 554
3 554 616 615
3 558 617 556
3 556 617 616
3 614 558 552
3 617 558 614
3 618 619 620
3 618 621 622
3 620 621 618
3 622 623 624
3 621 623 622
3 623 625 624
3 626 619 618
3 627 619 626
3 622 628 618
3 628 626 618
3 624 629 622
3 629 628 622
3 630 624 625
3 630 631 624
3 631 629 624
3 630 632 631
3 561 633 634
3 560 633 561
3 627 626 562
3 627 562 634
3 634 562 561
3 564 562 626
3 628 564 626
3 566 564 628
3 629 566 628
3 568 566 629
3 568 629 635
3 635 629 631
3 636 631 632
3 636 637 631
3 637 635 631
3 636 638 637
3 560 569 633
3 633 569 639
3 635 640 571
3 568 635 571
3 637 641 635
3 641 640 635
3 642 637 638
3 641 637 642
3 569 572 639
3 639 572 643
3 571 640 573
3 575 573 640
3 575 640 644
3 644 640 641
3 645 641 642
3 644 641 645
3 572 576 643
3 643 576 646
3 644 647 577
3 575 644 577
3 648 644 645
3 647 644 648
3 576 578 646
3 646 578 649
3 577 647 579
3 581 650 651
3 579 650 581
3 579 648 650
3 579 647 648
3 650 652 651
3 578 582 649
3 649 582 653
3 651 654 583
3 581 651 583
3 655 651 652
3 654 651 655
3 582 585 653
3 653 585 656
3 654 657 586
3 583 654 586
3 658 654 655
3 657 654 658
3 585 588 656
3 656 588 659
3 586 657 589
3 657 590 589
3 657 658 590
3 658 660 590
3 661 592 662
3 661 659 592
3 659 588 592
3 661 662 663
3 590 660 593
3 660 664 593
3 662 594 665
3 592 594 662
3 666 663 662
3 665 666 662
3 593 664 595
3 664 667 595
3 594 596 665
3 665 668 666
3 665 596 668
3 596 599 668
3 668 599 600
3 669 668 600
3 595 667 601
3 667 670 601
3 671 603 672
3 671 669 603
3 669 600 603
3 671 672 673
3 605 674 675
3 606 605 675
3 670 605 601
3 674 605 670
3 603 608 672
3 610 676 677
3 608 610 677
3 608 677 673
3 608 673 672
3 676 678 679
3 677 676 679
3 678 680 681
3 679 678 681
3 680 675 681
3 680 612 675
3 612 606 675
3 676 613 682
3 610 613 676
3 678 676 683
3 683 676 682
3 680 678 684
3 684 678 683
3 612 684 614
3 680 684 612
3 613 615 682
3 616 682 615
3 683 682 616
3 617 683 616
3 684 683 617
3 614 684 617
3 685 686 687
3 685 688 689
3 687 688 685
3 689 690 691
3 688 690 689
3 690 692 691
3 620 693 694
3 619 693 620
3 686 685 621
3 686 621 694
3 694 621 620
3 623 621 685
3 689 623 685
3 625 623 689
3 625 689 695
3 695 689 691
3 696 691 692
3 696 697 691
3 697 695 691
3 696 698 697
3 619 627 693
3 693 627 699
3 625 695 630
3 632 630 695
3 632 695 700
3 700 695 697
3 701 697 698
3 700 697 701
3 634 633 702
3 634 702 703
3 634 703 627
3 627 703 699
3 632 700 636
3 700 638 636
3 700 701 638
3 701 704 638
3 702 639 705
3 633 639 702
3 706 703 702
3 705 706 702
3 638 704 642
3 704 707 642
3 705 643 708
3 639 643 705
3 709 706 705
3 708 709 705
3 642 707 645
3 707 710 645
3 708 711 712
3 708 643 711
3 643 646 711
3 709 708 712
3 645 710 648
3 710 713 648
3 646 649 711
3 711 649 714
3 648 713 715
3 650 648 715
3 715 652 650
3 716 652 715
3 717 653 718
3 717 714 653
3 714 649 653
3 717 718 719
3 652 716 655
3 716 720 655
3 718 656 721
3 653 656 718
3 722 719 718
3 721 722 718
3 655 720 658
3 720 723 658
3 721 659 724
3 656 659 721
3 725 722 721
3 724 725 721
3 658 723 660
3 723 726 660
3 659 661 724
3 663 727 728
3 661 663 728
3 661 728 725
3 661 725 724
3 728 727 729
3 660 726 664
3 726 730 664
3 727 666 731
3 663 666 727
3 732 729 727
3 731 732 727
3 664 730 667
3 730 733 667
3 666 668 731
3 669 734 735
3 668 669 735
3 668 735 732
3 668 732 731
3 734 736 737
3 735 734 737
3 736 738 739
3 737 736 739
3 738 740 741
3 739 738 741
3 740 742 743
3 741 740 743
3 742 733 743
3 742 670 733
3 670 667 733
3 669 671 734
3 673 734 671
3 673 744 734
3 744 736 734
3 738 736 745
3 745 736 744
3 740 738 746
3 746 738 745
3 674 746 675
3 674 742 746
3 742 740 746
3 670 742 674
3 673 677 744
3 679 744 677
3 745 744 679
3 681 745 679
3 746 745 681
3 675 746 681
3 747 748 749
3 747 750 751
3 749 750 747
3 751 752 753
3 750 752 751
3 752 754 753
3 755 748 747
3 756 748 755
3 751 757 747
3 757 755 747
3 753 758 751
3 758 757 751
3 759 753 754
3 758 753 759
3 760 756 755
3 761 756 760
3 757 762 755
3 762 760 755
3 758 763 757
3 763 762 757
3 764 758 759
3 763 758 764
3 765 766 767
3 761 765 767
3 761 760 765
3 760 768 765
3 762 769 760
3 769 768 760
3 770 763 771
3 770 769 763
3 769 762 763
3 764 771 763
3 772 766 765
3 773 766 772
3 768 774 765
3 774 772 765
3 769 775 768
3 775 774 768
3 776 769 770
3 775 769 776
3 687 777 778
3 686 777 687
3 773 772 688
3 773 688 778
3 778 688 687
3 690 688 772
3 774 690 772
3 692 690 774
3 692 774 779
3 779 774 775
3 780 775 776
3 779 775 780
3 694 781 782
3 693 781 694
3 777 686 694
3 782 777 694
3 692 779 696
3 779 698 696
3 779 780 698
3 780 783 698
3 693 699 781
3 781 699 784
3 698 783 701
3 783 785 701
3 699 703 784
3 784 703 786
3 701 785 704
3 785 787 704
3 703 706 786
3 786 706 788
3 704 787 707
3 787 789 707
3 706 709 788
3 788 709 790
3 707 789 710
3 789 791 710
3 712 711 792
3 712 792 793
3 712 793 709
3 709 793 790
3 710 791 713
3 791 794 713
3 792 714 795
3 711 714 792
3 796 793 792
3 795 796 792
3 713 794 797
3 715 713 797
3 797 716 715
3 798 716 797
3 714 717 795
3 719 799 800
3 717 719 800
3 717 800 796
3 717 796 795
3 800 799 801
3 716 798 720
3 798 802 720
3 799 722 803
3 719 722 799
3 804 801 799
3 803 804 799
3 720 802 723
3 802 805 723
3 803 725 806
3 722 725 803
3 807 804 803
3 806 807 803
3 808 809 810
3 808 805 809
3 808 726 805
3 726 723 805
3 725 728 806
3 729 811 812
3 728 729 812
3 728 812 807
3 728 807 806
3 812 811 813
3 814 808 810
3 815 814 810
3 726 814 730
3 808 814 726
3 811 732 816
3 729 732 811
3 817 813 811
3 817 811 818
3 818 811 816
3 818 819 820
3 817 818 820
3 819 821 822
3 820 819 822
3 815 822 821
3 815 821 814
3 814 821 823
3 730 823 733
3 814 823 730
3 732 735 816
3 737 816 735
3 818 816 737
3 739 818 737
3 819 818 739
3 741 819 739
3 821 819 741
3 743 821 741
3 823 821 743
3 733 823 743
3 749 824 825
3 748 824 749
3 750 749 826
3 749 825 826
3 752 750 827
3 750 826 827
3 827 754 752
3 828 754 827
3 748 756 824
3 824 756 829
3 754 828 759
3 828 830 759
3 756 761 829
3 829 761 831
3 759 830 764
3 830 832 764
3 767 833 834
3 766 833 767
3 831 761 767
3 834 831 767
3 771 835 836
3 770 771 836
3 832 771 764
3 835 771 832
3 766 773 833
3 833 773 837
3 770 836 776
3 836 838 776
3 778 839 840
3 777 839 778
3 837 773 778
3 840 837 778
3 776 838 780
3 838 841 780
3 782 781 842
3 782 842 843
3 782 843 777
3 777 843 839
3 780 841 783
3 841 844 783
3 842 784 845
3 781 784 842
3 846 843 842
3 845 846 842
3 783 844 785
3 844 847 785
3 845 786 848
3 784 786 845
3 849 846 845
3 848 849 845
3 785 847 787
3 847 850 787
3 848 788 851
3 786 788 848
3 852 849 848
3 851 852 848
3 787 850 789
3 850 853 789
3 851 790 854
3 788 790 851
3 855 852 851
3 854 855 851
3 789 853 791
3 853 856 791
3 854 793 857
3 790 793 854
3 858 855 854
3 858 854 859
3 859 854 857
3 858 859 860
3 791 856 794
3 856 861 794
3 857 796 862
3 793 796 857
3 859 857 863
3 863 857 862
3 864 860 859
3 863 864 859
3 865 797 794
3 865 794 866
3 866 794 861
3 797 865 798
3 796 800 862
3 801 862 800
3 801 867 862
3 867 863 862
3 868 864 863
3 867 868 863
3 869 865 866
3 870 869 866
3 798 869 802
3 865 869 798
3 867 804 871
3 801 804 867
3 872 868 867
3 871 872 867
3 873 869 870
3 874 873 870
3 802 873 805
3 869 873 802
3 871 807 875
3 804 807 871
3 876 872 871
3 876 871 877
3 877 871 875
3 877 878 879
3 876 877 879
3 878 880 881
3 879 878 881
3 874 881 880
3 873 874 880
3 873 880 810
3 873 810 809
3 805 873 809
3 807 812 875
3 813 875 812
3 813 882 875
3 882 877 875
3 878 877 883
3 883 877 882
3 880 878 884
3 884 878 883
3 810 884 815
3 880 884 810
3 813 817 882
3 820 882 817
3 883 882 820
3 822 883 820
3 884 883 822
3 815 884 822
3 825 885 886
3 824 885 825
3 826 825 887
3 825 886 887
3 827 826 888
3 826 887 888
3 888 828 827
3 889 828 888
3 824 829 885
3 885 829 890
3 828 889 830
3 889 891 830
3 829 831 890
3 890 831 892
3 830 891 832
3 891 893 832
3 834 833 894
3 895 892 831
3 895 831 894
3 895 894 896
3 894 831 834
3 896 897 898
3 895 896 898
3 897 836 835
3 897 835 898
3 898 835 899
3 893 835 832
3 899 835 893
3 894 900 901
3 894 833 900
3 833 837 900
3 896 894 901
3 902 896 901
3 897 896 902
3 903 897 902
3 903 836 897
3 903 904 836
3 904 838 836
3 840 839 905
3 840 905 906
3 840 906 837
3 837 906 900
3 838 904 841
3 904 907 841
3 905 843 908
3 839 843 905
3 909 906 905
3 908 909 905
3 841 907 844
3 907 910 844
3 908 846 911
3 843 846 908
3 912 909 908
3 911 912 908
3 844 910 847
3 910 913 847
3 911 849 914
3 846 849 911
3 915 912 911
3 914 915 911
3 847 913 850
3 913 916 850
3 914 852 917
3 849 852 914
3 918 915 914
3 917 918 914
3 850 916 853
3 916 919 853
3 917 855 920
3 852 855 917
3 921 918 917
3 920 921 917
3 853 919 856
3 919 922 856
3 855 858 920
3 920 858 860
3 920 860 921
3 921 860 923
3 856 922 861
3 922 924 861
3 925 864 926
3 925 923 864
3 923 860 864
3 926 927 928
3 925 926 928
3 927 929 930
3 928 927 930
3 929 924 930
3 929 866 924
3 866 861 924
3 926 868 931
3 864 868 926
3 927 926 932
3 932 926 931
3 929 927 933
3 933 927 932
3 866 933 870
3 929 933 866
3 931 872 934
3 868 872 931
3 932 931 935
3 935 931 934
3 933 932 936
3 936 932 935
3 870 936 874
3 933 936 870
3 872 876 934
3 879 934 876
3 935 934 879
3 881 935 879
3 936 935 881
3 874 936 881
3 886 885 937
3 886 938 887
3 937 938 886
3 887 939 888
3 938 939 887
3 888 939 889
3 937 890 940
3 885 890 937
3 938 937 941
3 941 937 940
3 939 938 942
3 942 938 941
3 889 942 891
3 939 942 889
3 940 892 943
3 890 892 940
3 941 940 944
3 944 940 943
3 942 941 945
3 945 941 944
3 891 945 893
3 942 945 891
3 892 895 943
3 898 943 895
3 944 943 898
3 899 944 898
3 945 944 899
3 893 945 899
3 901 900 946
3 901 947 902
3 946 947 901
3 902 948 903
3 947 948 902
3 903 948 904
3 946 906 949
3 900 906 946
3 947 946 950
3 950 946 949
3 948 947 951
3 951 947 950
3 904 951 907
3 948 951 904
3 949 909 952
3 906 909 949
3 950 949 953
3 953 949 952
3 951 950 954
3 954 950 953
3 907 954 910
3 951 954 907
3 952 912 955
3 909 912 952
3 953 952 956
3 956 952 955
3 954 953 957
3 957 953 956
3 910 957 913
3 954 957 910
3 955 915 958
3 912 915 955
3 956 955 959
3 959 955 958
3 957 956 960
3 960 956 959
3 913 960 916
3 957 960 913
3 958 918 961
3 915 918 958
3 959 958 962
3 962 958 961
3 960 959 963
3 963 959 962
3 916 963 919
3 960 963 916
3 961 921 964
3 918 921 961
3 962 961 965
3 965 961 964
3 963 962 966
3 966 962 965
3 919 966 922
3 963 966 919
3 964 923 967
3 921 923 964
3 965 964 968
3 968 964 967
3 966 965 969
3 969 965 968
3 922 969 924
3 966 969 922
3 923 925 967
3 928 967 925
3 968 967 928
3 930 968 928
3 969 968 930
3 924 969 930
