# vtk DataFile Version 3.0
this file was written using fslvtkio
ASCII
DATASET POLYDATA
POINTS 664 float
154.237 131.469 139.606
154.705 131.403 139.981
154.81 130.993 139.418
154.582 131.185 138.67
154.112 131.489 138.838
154.439 131.356 138.173
154.412 131.926 140.408
155.139 132.084 140.584
154.986 131.546 140.323
153.933 132.06 140.016
153.789 131.956 139.346
154.054 131.495 138.221
153.763 131.887 138.594
153.871 131.647 137.941
153.743 131.95 137.957
153.92 131.776 137.432
154.565 132.599 140.93
155.435 132.687 140.773
153.942 132.566 140.497
153.466 132.545 139.978
153.455 132.389 139.152
153.514 132.277 138.307
153.71 132.108 137.419
154.865 133.199 140.739
155.541 133.285 140.307
154.123 133.237 140.595
153.523 133.256 140.104
153.212 133.067 139.294
153.222 132.79 138.52
153.409 132.513 137.608
154.813 133.506 139.934
154.213 133.502 139.467
153.707 133.511 138.937
153.397 133.302 138.25
153.411 133.006 137.69
155.116 131.199 139.931
155.647 131.456 140.161
155.454 130.941 139.672
155.267 130.576 139.34
154.948 130.675 138.559
154.645 131.01 137.761
154.388 131.348 137.698
154.399 131.125 137.209
155.912 132.177 140.581
154.192 131.527 137.357
154.021 131.716 136.731
156.198 132.859 140.22
153.648 132.263 136.711
155.982 133.296 139.542
153.442 132.847 136.958
155.418 133.392 139.421
154.896 133.463 138.898
154.418 133.598 138.402
154.021 133.596 137.784
153.73 133.232 137.195
156.048 129.789 139.033
156.588 129.696 139.315
156.495 129.542 138.786
156.271 129.542 138.348
155.707 129.853 138.442
155.984 129.701 137.852
155.858 130.347 139.782
156.517 130.096 139.963
155.498 130.121 139.012
155.506 129.889 137.905
155.23 130.164 138.241
155.235 130.076 137.569
156.342 130.824 139.966
157.17 131.059 139.818
157.037 130.407 139.965
154.838 130.465 137.618
154.518 130.712 136.534
154.293 131.291 136.725
154.175 131.351 136.042
156.419 131.571 140.12
157.047 131.69 139.63
153.898 131.874 135.967
156.625 132.198 140.063
157.281 132.144 139.483
153.697 132.265 135.985
153.634 132.627 136.275
153.577 132.504 135.653
156.889 132.815 139.754
156.645 133.208 139.141
153.689 132.969 136.499
153.661 132.811 135.781
155.936 133.238 138.806
155.445 133.184 138.454
155.064 133.371 137.954
154.601 133.379 137.441
154.256 133.239 136.856
154.018 133.1 136.125
156.866 129.231 138.41
157.392 128.963 138.683
157.396 128.668 138.31
157.033 128.725 137.802
156.494 129.421 137.51
156.827 128.947 136.931
156.191 129.415 136.675
156.762 129.078 136.026
157.243 129.283 139.137
157.953 129.131 139.004
157.691 128.973 138.85
155.797 129.889 137.14
155.938 129.387 135.871
155.562 129.937 136.268
155.59 129.73 135.622
155.233 130.068 135.715
155.241 129.921 135.133
157.847 129.709 139.319
158.482 129.943 139.367
158.447 129.409 139.166
157.141 129.856 139.654
155.017 130.206 136.929
154.956 130.258 136.14
154.849 130.391 135.255
157.807 130.371 139.705
158.58 130.611 139.532
154.413 131.01 135.342
153.958 131.664 135.238
154.18 131.42 134.764
153.924 131.764 134.516
154.013 131.558 134.217
157.934 130.978 139.697
157.683 131.556 139.277
153.643 132.151 135.342
153.572 132.088 134.629
153.623 131.887 133.873
157.761 132.121 138.906
153.492 132.625 134.955
153.527 132.481 133.92
157.423 132.83 139.038
157.155 133.013 138.437
153.818 132.936 135.285
153.679 132.955 134.329
156.433 133.052 138.333
155.949 133.065 138.106
155.638 132.954 137.505
155.169 133.05 137.068
154.821 133.071 136.461
154.519 133.168 135.806
154.172 133.113 135.02
158.24 128.119 138.182
158.694 128.194 138.515
158.806 127.889 138.07
158.375 127.833 137.755
157.709 128.242 137.851
157.949 127.936 137.231
157.42 128.548 137.06
157.783 128.258 136.509
157.308 128.81 136.396
157.548 128.648 135.8
157.987 128.528 138.594
158.753 128.602 138.691
157.06 129.088 135.253
158.537 129.008 138.881
159.181 129.451 139.012
159.146 128.889 138.769
156.408 129.331 135.188
155.701 129.543 134.943
155.158 129.992 134.45
159.187 130.159 139.068
154.901 130.427 134.301
159.114 130.925 138.939
154.626 130.817 134.354
154.319 131.24 134.222
154.083 131.688 133.529
158.48 131.218 139.18
158.366 131.765 138.699
153.745 132.274 132.971
158.061 132.17 138.13
153.773 133 133.108
157.63 132.566 138.316
157.335 132.783 137.899
155.905 132.747 136.861
156.355 132.756 136.466
156.153 132.745 137.135
156.13 132.892 136.158
154.274 133.333 133.712
156.84 132.924 137.886
156.391 132.827 137.567
155.698 132.906 136.626
155.424 133.068 135.971
155.114 133.196 135.214
154.773 133.249 134.568
159.111 127.131 137.122
159.602 126.824 137.125
159.304 126.722 136.867
159.071 126.718 136.558
158.707 127.216 136.571
158.836 126.908 135.936
158.47 127.501 136.021
158.676 127.28 135.431
158.44 127.835 135.473
158.601 127.631 134.986
159.498 127.285 137.625
159.996 127.434 137.864
159.989 127.068 137.384
159.003 127.544 137.711
158.547 127.496 137.3
158.252 127.681 136.694
158.141 128.058 135.978
158.029 128.178 135.223
159.389 127.855 138.155
160.005 128.08 138.443
157.551 128.85 135.094
159.308 128.365 138.593
159.773 128.953 138.667
157.307 129.221 134.725
159.905 129.914 138.605
156.873 129.389 134.657
156.24 129.521 134.292
155.584 129.743 133.974
155.155 130.31 133.651
155.633 130.27 133.348
159.701 130.608 138.575
154.861 130.655 133.634
155.298 130.796 132.798
159.566 131.117 138.198
154.575 131.097 133.209
154.297 131.952 132.585
158.932 131.379 138.449
158.674 131.84 137.845
154.263 132.753 132.114
158.241 132.191 137.303
157.74 132.462 137.428
157.373 132.529 136.72
157.928 132.283 136.636
157.102 132.652 136.048
157.62 132.526 136.012
156.637 132.817 135.521
157.301 132.594 135.316
156.324 132.96 134.631
156.78 132.64 134.569
155.975 133.053 133.885
156.401 132.721 133.716
156.078 132.81 133.104
154.629 133.281 132.491
157.063 132.641 137.385
156.751 132.646 136.755
156.021 133.007 135.577
155.623 133.079 134.912
155.724 133.119 133.141
155.314 133.166 133.992
154.837 133.314 133.501
155.268 133.179 132.797
159.576 126.385 136.531
160.13 126.23 136.735
160.034 126.124 136.155
159.657 126.142 135.722
159.196 126.494 135.828
159.355 126.401 135.01
158.94 126.746 135.126
159.103 126.698 134.112
158.854 127.133 134.805
158.821 127.383 134.273
160.048 126.532 137.135
160.503 126.782 137.595
160.481 126.338 137.009
158.437 127.919 134.628
160.634 127.454 137.936
158.171 128.208 134.579
157.901 128.599 134.67
158.273 128.502 134.264
160.616 128.04 138.15
160.95 128.358 137.827
160.965 127.919 137.83
157.588 129.189 134.36
158.038 129.07 134.124
160.423 128.62 138.327
160.914 128.932 137.823
157.224 129.443 134.24
157.577 129.747 133.785
160.361 129.323 138.197
160.832 129.46 137.563
156.825 129.701 133.821
156.143 129.899 133.536
155.988 130.466 133.03
160.426 130.019 137.773
160.079 130.682 137.793
156.017 130.931 132.627
159.764 131.234 137.464
155.099 131.593 132.396
155.846 131.452 132.36
159.262 131.504 137.735
159.115 131.838 137.19
157.159 132.162 134.642
157.476 131.83 134.753
157.719 132.061 135.156
156.835 132.275 133.69
157.159 131.769 134.173
156.355 132.377 132.778
156.854 131.868 133.375
155.679 132.221 132.087
156.397 131.747 132.647
154.844 132.307 131.997
158.771 132.056 137.039
158.555 132.178 136.399
158.09 132.246 135.795
155.719 132.755 132.525
155.136 132.95 132.016
160.313 125.513 134.881
160.766 125.326 135.305
160.885 125.218 134.529
160.323 125.38 133.899
159.872 125.713 134.286
160.011 125.715 133.451
159.638 126.038 133.58
159.717 125.901 132.813
160.648 125.585 135.758
161.086 125.755 136.255
161.015 125.37 135.774
160.172 125.839 135.639
159.792 125.937 134.99
159.666 126.313 134.264
159.566 126.379 132.848
159.474 126.525 133.472
159.263 126.846 132.65
160.561 125.946 136.413
161.098 126.206 137.09
158.914 127.133 133.529
158.671 127.705 134.016
158.886 127.612 133.384
161.323 126.991 137.362
158.488 128.136 134.216
158.696 128.129 133.704
161.16 127.598 137.51
161.434 128.085 137.418
161.648 127.683 136.959
158.571 128.699 133.95
161.409 128.628 137.268
158.343 129.403 133.932
161.221 129.143 137.066
158.193 129.972 133.871
161.045 129.528 136.945
157.248 130.31 133.295
157.866 130.323 133.594
156.597 130.16 133.301
160.677 129.86 137.136
159.91 130.972 136.861
160.374 130.372 136.967
160.176 130.625 136.466
157.617 130.926 133.734
158.072 130.633 133.779
158.092 130.789 134.29
157.114 130.934 132.943
156.614 130.642 132.785
159.452 131.487 136.937
159.972 131.006 136.057
159.435 131.371 136.26
159.625 131.193 135.762
157.763 131.329 134.658
158.225 130.921 134.624
158.406 131.08 135.024
157.327 131.485 133.744
157.088 131.468 133.01
156.516 131.24 132.617
159.041 131.798 136.513
159.179 131.335 135.767
158.733 131.733 135.824
158.27 131.647 135.291
158.804 131.23 135.489
161.148 125.172 135.332
161.467 125.383 135.84
161.509 125.121 135.016
161.34 124.898 134.202
160.701 125.014 133.632
160.242 125.528 132.695
159.72 125.963 132.059
161.695 125.802 136.454
159.417 126.402 132.102
159.202 126.963 131.149
161.858 126.57 136.627
158.9 127.29 132.554
158.897 127.873 132.911
162.028 127.308 136.258
158.952 128.419 133.219
161.674 128.31 136.692
161.901 127.976 136.182
158.819 128.848 133.674
161.453 128.821 136.47
158.849 129.144 133.746
159.224 128.802 133.513
159.267 129.188 133.655
161.21 129.276 136.452
158.719 129.687 133.888
159.171 129.733 133.815
160.994 129.571 136.518
160.927 129.832 136.692
160.888 129.815 136.314
158.448 130.274 134.054
158.957 130.181 134.093
160.715 130.105 136.472
160.273 130.709 135.996
160.434 130.358 136.07
160.307 130.646 135.568
158.701 130.618 134.499
159.439 130.341 134.201
159.332 130.515 134.679
159.437 131.105 135.363
159.971 130.941 135.368
159.004 130.846 135.026
159.741 130.756 134.927
161.307 124.838 133.275
161.949 124.818 133.683
161.785 124.71 132.782
161.27 124.813 132.313
160.677 124.996 132.825
160.745 125.083 131.959
160.358 125.221 132.3
160.351 125.613 131.708
162.147 125.445 135.561
162.091 125.041 134.552
159.908 125.999 131.448
159.464 126.255 131.346
159.477 126.42 130.273
162.283 126.157 135.927
159.547 127.268 129.781
162.354 126.733 135.635
159.119 127.643 131.884
159.715 127.643 130.869
162.132 127.321 135.106
159.475 128.188 132.138
160.108 128.102 131.665
161.733 128.534 135.764
161.947 127.934 135.337
159.877 128.551 132.542
160.273 128.307 132.248
160.294 128.548 132.774
159.296 128.591 133.071
161.368 129.109 135.829
161.64 128.531 134.996
161.36 129.009 135.032
161.046 129.1 134.232
161.385 128.643 134.33
160.67 129.087 133.6
161.063 128.607 133.661
160.191 128.994 133.151
160.584 128.56 133.209
159.632 128.915 133.186
161.043 129.543 136.086
160.965 129.525 135.492
160.828 129.57 134.819
160.636 129.535 134.148
160.161 129.372 133.835
159.739 129.356 133.548
160.768 129.921 135.939
160.559 130.042 135.406
160.41 129.945 134.701
160.138 129.83 134.229
159.682 129.863 133.978
160.198 130.434 135.047
159.906 130.271 134.513
162.334 124.676 133.072
162.124 124.492 132.398
161.631 124.442 131.978
161.153 124.799 131.479
160.615 125.401 131.035
160.207 126.059 130.815
160.158 126.085 130.035
162.589 125.491 134.723
162.788 125.144 133.83
160.118 126.86 129.194
162.581 126.24 134.971
162.635 125.884 134.046
160.548 127.406 129.946
162.398 126.871 134.584
160.405 127.633 131.236
162.068 127.238 134.405
161.787 127.65 134.479
161.831 127.363 133.969
160.839 127.871 132.387
161.058 127.5 132.213
161.135 127.679 132.738
160.585 128.028 131.874
160.801 127.551 131.668
161.573 128.126 134.645
161.585 127.581 133.846
161.259 127.942 133.987
160.845 127.937 133.33
161.302 127.558 133.367
160.467 128.142 132.726
162.209 124.285 131.812
162.657 124.437 132.318
162.774 124.365 131.511
162.26 124.128 131.225
161.558 124.22 131.2
161.974 124.15 130.523
161.235 124.808 130.66
161.613 124.36 130.065
160.815 125.338 130.112
161.448 124.821 129.79
161.243 125.345 129.341
161.617 125.057 129.163
162.96 124.824 132.795
160.967 126.014 129.103
161.765 125.645 128.638
163.031 125.428 132.893
161.16 126.641 129.283
161.712 126.016 128.723
162.573 126.538 133.736
162.642 125.934 133.085
161.56 127.086 130.861
162.172 126.678 130.617
162.037 126.874 131.328
161.136 127.229 130.278
161.442 126.715 130.041
161.749 126.31 129.257
162.08 126.937 133.822
162.478 126.501 132.786
162.086 126.869 132.918
161.812 127.103 131.919
162.224 126.683 132.104
161.303 127.391 131.557
160.856 127.425 130.857
161.667 127.194 133.419
161.42 127.215 132.678
162.235 124.13 129.825
162.539 124.257 130.157
162.733 124.212 129.549
162.383 124.115 129.313
161.997 124.154 129.631
162.213 124.196 129.211
163.168 124.639 131.913
163.232 124.534 131.027
162.744 124.288 130.693
161.846 124.413 129.573
162.09 124.783 128.988
162.041 125.244 128.597
162.302 125.076 128.506
163.232 125.219 132.059
162.498 125.46 128.544
162.685 125.334 128.411
163.059 125.747 132.177
162.847 125.463 128.543
162.208 125.857 128.82
162.791 126.029 132.085
162.494 126.295 132.211
162.32 126.545 131.504
162.686 126.364 131.155
162.642 126.412 130.355
162.359 126.356 129.954
162.157 126.223 129.51
162.993 124.411 129.86
163.157 124.462 129.106
162.868 124.244 128.869
162.491 124.139 128.751
162.142 124.305 129.023
162.439 124.273 128.59
162.254 124.484 128.705
162.517 124.502 128.28
163.436 125.071 131.23
163.442 124.89 130.529
163.36 124.539 130.222
162.375 124.861 128.284
162.673 125.38 128.031
162.464 125.088 127.996
162.755 125.294 127.774
162.562 125.18 127.727
163.239 125.64 131.242
163.451 125.341 130.468
162.867 125.455 128.098
162.777 125.399 127.723
162.701 125.326 127.54
163 125.968 131.438
163.304 125.775 130.249
163.026 126.076 130.655
162.862 126.254 129.888
163.22 125.937 129.882
162.679 126.093 129.46
163.12 125.938 129.183
162.578 125.736 129.171
163.015 125.761 128.759
163.011 125.662 127.943
162.918 125.627 127.39
162.797 125.638 126.95
163.346 124.716 129.305
163.379 124.694 128.695
163.28 124.498 128.45
162.951 124.375 128.262
162.67 124.273 128.197
162.815 124.4 127.722
163.567 125.019 129.916
163.717 124.793 129.513
162.588 124.558 127.602
162.416 124.886 127.557
162.43 125.197 127.253
163.577 125.331 129.784
162.537 125.48 126.708
163.519 125.646 129.732
163.419 125.822 129.298
163.325 125.936 128.622
163.456 125.858 128.381
163.197 126.009 128.182
163.138 125.961 127.704
163.071 125.928 127.139
163.023 125.942 126.615
162.954 125.937 125.979
163.351 126.052 127.797
163.267 126.16 127.301
163.198 126.107 126.909
163.141 126.094 126.51
163.447 124.821 128.655
163.496 124.755 128.214
163.314 124.595 127.732
163.007 124.474 127.585
163.726 125.18 129.375
163.715 125.022 128.921
163.553 124.957 128.351
163.453 124.942 127.537
163.293 124.698 127.035
163.006 124.507 126.914
162.715 124.576 126.513
162.386 124.654 126.595
162.069 124.848 126.512
162.121 125.388 126.227
161.976 125.131 125.196
163.624 125.417 129.295
163.663 125.338 128.759
162.512 125.735 125.729
162.272 125.729 125.015
163.612 125.708 128.864
163.624 125.899 128.094
163.061 126.158 125.143
163.098 126.159 125.926
162.739 125.952 125.04
163.528 125.958 127.571
163.433 126.107 127.02
163.372 126.19 126.477
163.278 126.17 126.118
163.697 125.239 128.21
163.557 125.24 127.62
163.543 125.232 126.975
163.46 125.04 126.636
163.316 124.864 126.23
163.06 124.815 125.978
162.767 124.761 125.614
162.315 124.814 125.476
162.418 125.288 124.358
163.679 125.597 128.195
163.683 125.503 127.619
163.666 125.518 126.844
162.691 125.841 124.382
163.725 125.892 127.485
163.819 125.821 126.797
163.349 126.075 124.719
163.298 126.2 125.39
163.055 125.943 124.477
163.624 126.017 126.897
163.604 126.143 126.213
163.519 126.247 125.618
163.674 125.37 126.132
163.576 125.25 125.68
163.277 125.169 125.405
163.056 125.102 125.012
162.719 124.992 124.737
163.855 125.768 125.966
163.773 125.704 125.317
163.547 125.559 125.053
163.288 125.605 124.655
162.905 125.472 124.39
163.845 126.02 126.187
163.761 126.077 125.525
163.577 125.987 124.999
POLYGONS 1324  5296
3 0 1 2
3 0 3 4
3 2 3 0
3 3 5 4
3 6 7 8
3 1 6 8
3 1 0 6
3 0 9 6
3 4 10 0
3 10 9 0
3 11 4 5
3 11 12 4
3 12 10 4
3 12 13 14
3 11 13 12
3 13 15 14
3 16 7 6
3 17 7 16
3 9 18 6
3 18 16 6
3 10 19 9
3 19 18 9
3 12 20 10
3 20 19 10
3 14 21 12
3 21 20 12
3 22 14 15
3 21 14 22
3 23 17 16
3 24 17 23
3 18 25 16
3 25 23 16
3 19 26 18
3 26 25 18
3 20 27 19
3 27 26 19
3 21 28 20
3 28 27 20
3 29 21 22
3 28 21 29
3 23 30 24
3 25 30 23
3 31 30 25
3 26 31 25
3 32 31 26
3 27 32 26
3 33 32 27
3 28 33 27
3 34 33 28
3 29 34 28
3 35 36 37
3 35 2 1
3 35 37 2
3 37 38 2
3 3 2 39
3 2 38 39
3 5 40 41
3 5 3 40
3 3 39 40
3 40 42 41
3 8 36 35
3 8 7 36
3 7 43 36
3 1 8 35
3 5 41 11
3 41 42 44
3 41 44 11
3 11 44 13
3 44 15 13
3 45 15 44
3 7 17 43
3 43 17 46
3 15 45 22
3 45 47 22
3 17 24 46
3 46 24 48
3 22 47 29
3 47 49 29
3 24 50 48
3 30 50 24
3 31 51 30
3 30 51 50
3 32 52 31
3 31 52 51
3 33 53 32
3 32 53 52
3 34 54 33
3 33 54 53
3 49 34 29
3 54 34 49
3 55 56 57
3 55 58 59
3 57 58 55
3 58 60 59
3 61 56 55
3 62 56 61
3 59 63 55
3 63 61 55
3 64 59 60
3 64 65 59
3 65 63 59
3 64 66 65
3 67 68 69
3 62 67 69
3 61 67 62
3 61 36 67
3 61 37 36
3 38 37 61
3 63 38 61
3 39 38 63
3 65 39 63
3 65 66 70
3 65 70 39
3 39 70 40
3 42 71 72
3 42 40 71
3 40 70 71
3 71 73 72
3 74 68 67
3 75 68 74
3 36 43 74
3 67 36 74
3 42 72 44
3 72 45 44
3 72 73 45
3 73 76 45
3 77 75 74
3 78 75 77
3 43 46 77
3 74 43 77
3 79 80 47
3 79 47 76
3 76 47 45
3 79 81 80
3 77 82 78
3 82 77 46
3 82 46 83
3 83 46 48
3 80 84 49
3 47 80 49
3 85 80 81
3 84 80 85
3 48 86 83
3 50 86 48
3 51 87 50
3 50 87 86
3 52 88 51
3 51 88 87
3 53 89 52
3 52 89 88
3 54 90 53
3 53 90 89
3 84 54 49
3 84 91 54
3 91 90 54
3 85 91 84
3 92 93 94
3 92 95 96
3 94 95 92
3 96 97 98
3 95 97 96
3 97 99 98
3 100 101 102
3 93 100 102
3 92 100 93
3 92 56 100
3 92 57 56
3 58 57 92
3 96 58 92
3 60 58 96
3 60 96 103
3 103 96 98
3 104 98 99
3 104 105 98
3 105 103 98
3 105 106 107
3 104 106 105
3 106 108 107
3 109 110 111
3 101 109 111
3 101 100 109
3 100 112 109
3 56 62 112
3 100 56 112
3 60 103 64
3 66 64 103
3 66 103 113
3 113 103 105
3 107 114 105
3 114 113 105
3 115 107 108
3 114 107 115
3 116 110 109
3 117 110 116
3 69 68 116
3 69 116 112
3 112 116 109
3 62 69 112
3 66 113 70
3 71 70 113
3 114 71 113
3 73 118 119
3 71 118 73
3 71 115 118
3 71 114 115
3 119 120 121
3 118 120 119
3 120 122 121
3 116 123 117
3 123 116 68
3 123 68 124
3 124 68 75
3 119 125 76
3 73 119 76
3 121 126 119
3 126 125 119
3 127 121 122
3 126 121 127
3 75 78 124
3 124 78 128
3 76 125 79
3 81 79 125
3 81 125 129
3 129 125 126
3 130 126 127
3 129 126 130
3 78 131 128
3 82 131 78
3 131 82 83
3 132 131 83
3 129 133 85
3 81 129 85
3 134 129 130
3 133 129 134
3 83 135 132
3 86 135 83
3 87 136 86
3 86 136 135
3 88 137 87
3 87 137 136
3 89 138 88
3 88 138 137
3 90 139 89
3 89 139 138
3 91 140 90
3 90 140 139
3 133 91 85
3 133 141 91
3 141 140 91
3 134 141 133
3 142 143 144
3 142 145 146
3 144 145 142
3 146 147 148
3 145 147 146
3 148 149 150
3 147 149 148
3 149 151 150
3 152 143 142
3 153 143 152
3 94 93 152
3 94 152 146
3 146 152 142
3 95 94 146
3 148 95 146
3 97 95 148
3 150 97 148
3 150 99 97
3 150 151 99
3 151 154 99
3 155 156 157
3 153 155 157
3 152 155 153
3 152 101 155
3 152 102 101
3 93 102 152
3 99 154 158
3 104 99 158
3 106 104 159
3 104 158 159
3 159 108 106
3 160 108 159
3 111 156 155
3 111 110 156
3 110 161 156
3 101 111 155
3 108 160 115
3 160 162 115
3 110 117 161
3 161 117 163
3 115 162 164
3 118 115 164
3 120 118 165
3 118 164 165
3 165 122 120
3 166 122 165
3 117 167 163
3 123 167 117
3 167 123 124
3 168 167 124
3 122 166 127
3 166 169 127
3 124 128 168
3 168 128 170
3 127 169 130
3 169 171 130
3 128 172 170
3 131 172 128
3 172 131 132
3 173 172 132
3 174 175 176
3 175 174 177
3 130 171 134
3 171 178 134
3 132 179 173
3 135 179 132
3 136 180 135
3 135 180 179
3 176 137 174
3 176 180 137
3 180 136 137
3 174 181 177
3 174 137 181
3 137 138 181
3 139 182 138
3 138 182 181
3 140 183 139
3 139 183 182
3 141 184 140
3 140 184 183
3 178 141 134
3 184 141 178
3 185 186 187
3 185 188 189
3 187 188 185
3 189 190 191
3 188 190 189
3 191 192 193
3 190 192 191
3 192 194 193
3 195 196 197
3 186 195 197
3 186 185 195
3 185 198 195
3 189 199 185
3 199 198 185
3 191 200 189
3 200 199 189
3 193 201 191
3 201 200 191
3 202 193 194
3 201 193 202
3 203 196 195
3 204 196 203
3 144 143 203
3 144 203 198
3 198 203 195
3 145 144 198
3 199 145 198
3 147 145 199
3 200 147 199
3 149 147 200
3 201 149 200
3 201 151 149
3 201 202 151
3 202 205 151
3 206 204 203
3 207 204 206
3 143 153 206
3 203 143 206
3 151 205 154
3 205 208 154
3 157 207 206
3 157 156 207
3 156 209 207
3 153 157 206
3 154 208 210
3 158 154 210
3 159 158 211
3 158 210 211
3 160 212 213
3 160 159 212
3 159 211 212
3 212 214 213
3 156 161 209
3 209 161 215
3 213 216 162
3 160 213 162
3 217 213 214
3 216 213 217
3 161 163 215
3 215 163 218
3 162 216 164
3 216 217 219
3 216 219 164
3 164 219 165
3 219 166 165
3 220 166 219
3 163 221 218
3 167 221 163
3 221 167 168
3 222 221 168
3 166 220 169
3 220 223 169
3 224 170 225
3 224 222 170
3 222 168 170
3 225 226 227
3 224 225 227
3 226 228 229
3 227 226 229
3 228 230 231
3 229 228 231
3 230 232 233
3 231 230 233
3 232 234 235
3 233 232 235
3 235 234 236
3 169 223 171
3 223 237 171
3 170 172 225
3 173 225 172
3 173 238 225
3 238 226 225
3 228 226 239
3 239 226 238
3 175 239 176
3 175 230 239
3 230 228 239
3 177 230 175
3 177 240 230
3 240 232 230
3 234 232 241
3 241 232 240
3 242 236 234
3 242 234 243
3 243 234 241
3 243 244 245
3 242 243 245
3 244 237 245
3 244 178 237
3 178 171 237
3 173 179 238
3 180 238 179
3 239 238 180
3 176 239 180
3 177 181 240
3 182 240 181
3 241 240 182
3 183 241 182
3 243 241 183
3 184 243 183
3 244 243 184
3 178 244 184
3 246 247 248
3 246 249 250
3 248 249 246
3 250 251 252
3 249 251 250
3 252 253 254
3 251 253 252
3 253 255 254
3 256 257 258
3 247 256 258
3 246 256 247
3 246 186 256
3 246 187 186
3 188 187 246
3 250 188 246
3 190 188 250
3 252 190 250
3 192 190 252
3 254 192 252
3 254 194 192
3 254 255 194
3 255 259 194
3 197 257 256
3 197 196 257
3 196 260 257
3 186 197 256
3 261 262 202
3 261 202 259
3 259 202 194
3 261 263 262
3 264 265 266
3 264 266 260
3 264 260 204
3 204 260 196
3 262 267 205
3 202 262 205
3 268 262 263
3 267 262 268
3 269 265 264
3 270 265 269
3 204 207 269
3 264 204 269
3 267 271 208
3 205 267 208
3 272 267 268
3 271 267 272
3 273 270 269
3 274 270 273
3 207 209 273
3 269 207 273
3 208 271 210
3 271 272 275
3 271 275 210
3 210 275 211
3 212 211 276
3 211 275 276
3 276 214 212
3 277 214 276
3 273 278 274
3 278 273 209
3 278 209 279
3 279 209 215
3 214 277 217
3 277 280 217
3 215 218 279
3 279 218 281
3 282 219 217
3 282 217 283
3 283 217 280
3 219 282 220
3 218 284 281
3 221 284 218
3 284 221 222
3 285 284 222
3 286 287 288
3 286 289 290
3 287 286 290
3 289 291 292
3 290 289 292
3 291 293 294
3 292 291 294
3 283 294 293
3 283 293 282
3 282 293 295
3 220 295 223
3 282 295 220
3 222 296 285
3 224 296 222
3 227 297 224
3 224 297 296
3 229 298 227
3 227 298 297
3 288 231 286
3 288 298 231
3 298 229 231
3 233 286 231
3 289 286 233
3 235 289 233
3 291 289 235
3 236 291 235
3 236 299 291
3 299 293 291
3 295 293 300
3 300 293 299
3 223 300 237
3 295 300 223
3 236 242 299
3 245 299 242
3 300 299 245
3 237 300 245
3 301 302 303
3 301 304 305
3 303 304 301
3 305 306 307
3 304 306 305
3 306 308 307
3 309 310 311
3 302 309 311
3 302 301 309
3 301 312 309
3 305 313 301
3 313 312 301
3 307 314 305
3 314 313 305
3 315 307 308
3 315 316 307
3 316 314 307
3 315 317 316
3 318 310 309
3 319 310 318
3 248 247 318
3 248 318 312
3 312 318 309
3 249 248 312
3 313 249 312
3 251 249 313
3 314 251 313
3 253 251 314
3 316 253 314
3 255 320 321
3 253 320 255
3 253 317 320
3 253 316 317
3 320 322 321
3 258 319 318
3 258 257 319
3 257 323 319
3 247 258 318
3 321 324 259
3 255 321 259
3 325 321 322
3 324 321 325
3 326 327 328
3 326 328 323
3 326 323 260
3 260 323 257
3 259 324 261
3 324 263 261
3 324 325 263
3 325 329 263
3 266 327 326
3 266 265 327
3 265 330 327
3 260 266 326
3 263 329 268
3 329 331 268
3 265 270 330
3 330 270 332
3 268 331 272
3 331 333 272
3 270 274 332
3 332 274 334
3 335 275 272
3 335 272 336
3 336 272 333
3 275 337 276
3 335 337 275
3 276 337 277
3 274 338 334
3 278 338 274
3 279 339 340
3 279 340 278
3 278 340 338
3 340 339 341
3 342 343 344
3 336 343 342
3 336 342 335
3 335 342 345
3 337 335 346
3 346 335 345
3 277 346 280
3 337 346 277
3 339 281 347
3 279 281 339
3 348 341 339
3 348 339 349
3 349 339 347
3 348 349 350
3 351 352 353
3 344 352 351
3 344 351 342
3 342 351 354
3 345 342 355
3 355 342 354
3 346 345 356
3 356 345 355
3 280 356 283
3 346 356 280
3 281 284 347
3 285 347 284
3 285 357 347
3 357 349 347
3 358 350 349
3 358 349 359
3 359 349 357
3 359 360 361
3 358 359 361
3 353 361 360
3 351 353 360
3 351 360 288
3 351 288 287
3 290 351 287
3 354 351 290
3 292 354 290
3 355 354 292
3 294 355 292
3 356 355 294
3 283 356 294
3 285 296 357
3 297 357 296
3 359 357 297
3 298 359 297
3 360 359 298
3 288 360 298
3 362 363 364
3 362 303 302
3 362 364 303
3 364 365 303
3 304 303 366
3 303 365 366
3 306 304 367
3 304 366 367
3 367 308 306
3 368 308 367
3 311 363 362
3 311 310 363
3 310 369 363
3 302 311 362
3 308 368 370
3 315 308 370
3 370 317 315
3 371 317 370
3 310 319 369
3 369 319 372
3 317 371 373
3 320 317 373
3 373 322 320
3 374 322 373
3 319 323 372
3 372 323 375
3 322 374 325
3 374 376 325
3 328 377 378
3 327 377 328
3 375 323 328
3 378 375 328
3 325 376 329
3 376 379 329
3 327 330 377
3 377 330 380
3 381 382 383
3 381 379 382
3 381 331 379
3 331 329 379
3 330 332 380
3 380 332 384
3 385 381 383
3 386 385 383
3 331 385 333
3 381 385 331
3 387 334 388
3 387 384 334
3 384 332 334
3 387 388 389
3 390 385 386
3 391 390 386
3 333 390 336
3 385 390 333
3 334 338 388
3 388 392 389
3 388 338 392
3 338 340 392
3 341 393 394
3 341 394 340
3 340 394 392
3 394 393 395
3 396 397 398
3 391 397 396
3 390 391 396
3 390 396 344
3 390 344 343
3 336 390 343
3 341 348 393
3 350 399 400
3 348 350 400
3 348 400 395
3 348 395 393
3 399 401 402
3 400 399 402
3 398 402 401
3 396 398 401
3 396 401 353
3 396 353 352
3 344 396 352
3 350 358 399
3 361 399 358
3 401 399 361
3 353 401 361
3 403 404 405
3 403 406 407
3 405 406 403
3 407 408 409
3 406 408 407
3 408 410 409
3 364 411 412
3 363 411 364
3 404 403 365
3 404 365 412
3 412 365 364
3 366 365 403
3 407 366 403
3 367 366 407
3 409 367 407
3 368 413 414
3 367 413 368
3 367 410 413
3 367 409 410
3 413 415 414
3 363 369 411
3 411 369 416
3 368 414 370
3 414 371 370
3 414 415 371
3 415 417 371
3 369 372 416
3 416 372 418
3 419 373 371
3 419 371 420
3 420 371 417
3 373 419 374
3 372 375 418
3 418 375 421
3 422 419 420
3 423 422 420
3 374 422 376
3 419 422 374
3 378 377 424
3 378 424 425
3 378 425 375
3 375 425 421
3 426 427 428
3 423 427 426
3 423 426 422
3 422 426 429
3 376 429 379
3 422 429 376
3 424 380 430
3 377 380 424
3 431 425 424
3 431 424 432
3 432 424 430
3 432 433 434
3 431 432 434
3 433 435 436
3 434 433 436
3 435 437 438
3 436 435 438
3 428 438 437
3 428 437 426
3 426 437 439
3 382 439 383
3 382 429 439
3 429 426 439
3 379 429 382
3 430 384 440
3 380 384 430
3 432 430 441
3 441 430 440
3 433 432 442
3 442 432 441
3 435 433 443
3 443 433 442
3 437 435 444
3 444 435 443
3 439 437 445
3 445 437 444
3 383 445 386
3 439 445 383
3 384 387 440
3 389 440 387
3 389 446 440
3 446 441 440
3 442 441 447
3 447 441 446
3 443 442 448
3 448 442 447
3 444 443 449
3 449 443 448
3 445 444 450
3 450 444 449
3 386 450 391
3 445 450 386
3 389 392 446
3 394 446 392
3 447 446 394
3 395 447 394
3 395 451 447
3 451 448 447
3 449 448 452
3 452 448 451
3 397 452 398
3 397 450 452
3 450 449 452
3 391 450 397
3 395 400 451
3 402 451 400
3 452 451 402
3 398 452 402
3 405 453 454
3 404 453 405
3 406 405 455
3 405 454 455
3 408 406 456
3 406 455 456
3 410 457 458
3 410 408 457
3 408 456 457
3 457 459 458
3 412 411 460
3 412 460 461
3 412 461 404
3 404 461 453
3 410 458 413
3 458 415 413
3 458 459 415
3 459 462 415
3 460 463 464
3 460 411 463
3 411 416 463
3 461 460 464
3 415 462 417
3 462 465 417
3 416 418 463
3 463 418 466
3 417 465 420
3 465 467 420
3 468 421 469
3 468 466 421
3 466 418 421
3 468 469 470
3 471 472 473
3 471 474 475
3 472 471 475
3 474 467 475
3 474 423 467
3 423 420 467
3 469 425 476
3 421 425 469
3 477 470 469
3 477 469 478
3 478 469 476
3 478 479 480
3 477 478 480
3 473 480 479
3 473 479 471
3 471 479 481
3 427 481 428
3 427 474 481
3 474 471 481
3 423 474 427
3 425 431 476
3 434 476 431
3 478 476 434
3 436 478 434
3 479 478 436
3 438 479 436
3 481 479 438
3 428 481 438
3 482 483 484
3 482 485 486
3 484 485 482
3 486 487 488
3 485 487 486
3 488 489 490
3 487 489 488
3 490 491 492
3 489 491 490
3 491 493 492
3 454 483 482
3 454 453 483
3 453 494 483
3 455 454 482
3 486 455 482
3 456 455 486
3 488 456 486
3 457 456 488
3 490 457 488
3 459 457 490
3 459 490 495
3 495 490 492
3 496 492 493
3 495 492 496
3 453 461 494
3 494 461 497
3 495 498 462
3 459 495 462
3 499 495 496
3 498 495 499
3 464 463 500
3 464 500 501
3 464 501 461
3 461 501 497
3 502 503 504
3 502 505 506
3 503 502 506
3 498 507 506
3 498 506 465
3 498 465 462
3 465 506 505
3 499 507 498
3 500 466 508
3 463 466 500
3 509 501 500
3 509 500 510
3 510 500 508
3 510 511 512
3 509 510 512
3 504 512 511
3 504 511 502
3 502 511 513
3 505 502 514
3 514 502 513
3 465 514 467
3 505 514 465
3 466 468 508
3 470 508 468
3 470 515 508
3 515 510 508
3 511 510 516
3 516 510 515
3 472 516 473
3 472 513 516
3 513 511 516
3 475 513 472
3 514 513 475
3 467 514 475
3 470 477 515
3 480 515 477
3 516 515 480
3 473 516 480
3 517 518 519
3 517 520 521
3 519 520 517
3 520 522 521
3 484 523 524
3 483 523 484
3 485 484 525
3 484 524 525
3 518 517 487
3 518 487 525
3 525 487 485
3 489 487 517
3 521 489 517
3 521 522 526
3 521 526 489
3 489 526 491
3 493 527 528
3 493 491 527
3 491 526 527
3 527 529 528
3 483 494 523
3 523 494 530
3 528 531 496
3 493 528 496
3 532 528 529
3 531 528 532
3 494 497 530
3 530 497 533
3 531 534 535
3 531 535 496
3 496 535 499
3 532 534 531
3 536 501 537
3 536 533 501
3 533 497 501
3 537 538 539
3 536 537 539
3 538 504 503
3 538 503 539
3 539 503 540
3 506 541 503
3 503 541 540
3 507 542 506
3 506 542 541
3 535 507 499
3 542 507 535
3 501 509 537
3 512 537 509
3 538 537 512
3 504 538 512
3 519 543 544
3 518 543 519
3 520 519 545
3 519 544 545
3 522 546 547
3 522 520 546
3 520 545 546
3 547 548 549
3 546 548 547
3 548 550 549
3 524 523 551
3 552 524 551
3 552 553 524
3 553 525 524
3 543 518 525
3 553 543 525
3 522 547 526
3 527 526 547
3 549 527 547
3 529 554 555
3 527 554 529
3 527 550 554
3 527 549 550
3 555 556 557
3 554 556 555
3 556 558 557
3 551 530 559
3 523 530 551
3 560 552 551
3 559 560 551
3 555 561 532
3 529 555 532
3 557 562 555
3 562 561 555
3 563 557 558
3 562 557 563
3 559 533 564
3 530 533 559
3 565 560 559
3 565 559 566
3 566 559 564
3 566 567 568
3 565 566 568
3 567 569 570
3 568 567 570
3 569 571 572
3 570 569 572
3 571 535 534
3 571 534 572
3 572 534 573
3 561 534 532
3 561 574 534
3 574 573 534
3 562 574 561
3 575 574 562
3 563 575 562
3 533 536 564
3 539 564 536
3 566 564 539
3 540 566 539
3 567 566 540
3 541 567 540
3 569 567 541
3 542 569 541
3 571 569 542
3 535 571 542
3 544 576 577
3 543 576 544
3 545 544 578
3 544 577 578
3 546 545 579
3 545 578 579
3 548 546 580
3 546 579 580
3 580 550 548
3 581 550 580
3 553 582 583
3 552 582 553
3 576 543 553
3 583 576 553
3 550 581 584
3 554 550 584
3 556 554 585
3 554 584 585
3 585 558 556
3 586 558 585
3 552 560 582
3 582 560 587
3 558 586 563
3 586 588 563
3 560 589 587
3 565 589 560
3 568 590 565
3 565 590 589
3 591 592 590
3 591 590 570
3 570 590 568
3 570 572 593
3 591 570 593
3 572 573 594
3 593 572 594
3 573 574 595
3 594 573 595
3 596 595 574
3 596 574 597
3 597 574 575
3 588 575 563
3 597 575 588
3 591 598 592
3 593 598 591
3 599 598 593
3 594 599 593
3 600 599 594
3 595 600 594
3 601 600 595
3 596 601 595
3 577 576 602
3 577 603 578
3 602 603 577
3 578 604 579
3 603 604 578
3 579 605 580
3 604 605 579
3 580 605 581
3 583 582 606
3 583 606 607
3 576 583 607
3 576 607 608
3 576 608 602
3 603 602 608
3 609 603 608
3 604 603 609
3 610 604 609
3 605 604 610
3 611 605 610
3 581 605 611
3 581 611 584
3 584 611 612
3 585 584 613
3 584 612 613
3 586 614 615
3 586 585 614
3 585 613 614
3 614 616 615
3 606 587 617
3 582 587 606
3 618 607 606
3 617 618 606
3 615 619 588
3 586 615 588
3 620 615 616
3 619 615 620
3 587 589 617
3 617 621 618
3 617 589 621
3 589 590 621
3 621 590 592
3 622 621 592
3 597 623 624
3 596 597 624
3 619 597 588
3 619 625 597
3 625 623 597
3 620 625 619
3 592 626 622
3 598 626 592
3 599 627 598
3 598 627 626
3 600 628 599
3 599 628 627
3 601 629 600
3 600 629 628
3 624 601 596
3 629 601 624
3 608 607 630
3 608 631 609
3 630 631 608
3 632 609 631
3 632 633 609
3 633 610 609
3 611 610 634
3 610 633 634
3 612 611 635
3 611 634 635
3 613 612 636
3 612 635 636
3 614 613 637
3 613 636 637
3 637 616 614
3 638 616 637
3 630 618 639
3 607 618 630
3 631 630 640
3 640 630 639
3 641 632 631
3 640 641 631
3 616 638 620
3 638 642 620
3 618 621 639
3 622 639 621
3 622 643 639
3 643 640 639
3 644 641 640
3 643 644 640
3 623 645 646
3 624 623 646
3 625 647 623
3 623 647 645
3 642 625 620
3 647 625 642
3 622 626 643
3 643 648 644
3 643 626 648
3 626 627 648
3 628 649 627
3 627 649 648
3 629 650 628
3 628 650 649
3 646 629 624
3 650 629 646
3 633 632 651
3 633 652 634
3 651 652 633
3 634 653 635
3 652 653 634
3 635 654 636
3 653 654 635
3 636 655 637
3 654 655 636
3 637 655 638
3 651 641 656
3 632 641 651
3 652 651 657
3 657 651 656
3 653 652 658
3 658 652 657
3 654 653 659
3 659 653 658
3 655 654 660
3 660 654 659
3 638 660 642
3 655 660 638
3 656 644 661
3 641 644 656
3 657 656 662
3 662 656 661
3 658 657 663
3 663 657 662
3 645 663 646
3 645 659 663
3 659 658 663
3 647 659 645
3 660 659 647
3 642 660 647
3 644 648 661
3 649 661 648
3 662 661 649
3 650 662 649
3 663 662 650
3 646 663 650
