# vtk DataFile Version 3.0
this file was written using fslvtkio
ASCII
DATASET POLYDATA
POINTS 642 float
132.085 151.722 106.289
132.955 155.019 106.454
133.74 153.712 108.945
133.109 150.74 108.619
133.346 152.109 106.511
130.98 150.807 110.178
131.935 153.266 109.459
134.447 153.941 106.077
132.726 153.737 104.672
134.736 152.277 108.236
133.045 151.482 110.93
131.188 153.499 106.89
133.824 154.008 105.11
133.162 152.8 105.2
133.904 153.003 106.233
134.473 153.038 107.364
134.09 151.927 107.21
131.77 153.409 108.002
131.559 151.831 109.959
131.608 152.136 108.031
132.375 152.235 110.507
131.723 150.602 111.284
133.563 151.066 107.184
132.861 151.707 105.983
132.508 151.131 107.764
131.912 150.239 109.826
131.756 151.552 108.031
134.178 154.978 105.679
134.229 154.139 107.515
133.301 154.519 107.679
132.251 154.286 107.979
132.815 153.516 109.546
131.162 152.376 106.382
132.279 152.259 104.763
131.684 153.853 105.162
131.936 154.713 106.408
133.146 155.039 104.863
133.048 150.647 110.075
134.498 151.952 109.44
134.068 151.187 108.454
133.622 152.94 110.2
134.839 153.301 108.397
133.473 153.371 105.239
133.639 152.816 105.653
133.918 153.376 105.534
133.639 152.545 106.347
133.355 152.421 105.774
132.95 153.26 104.863
133.269 153.923 104.947
134.267 153.901 105.414
134.21 153.429 106.045
134.157 152.945 106.817
134.051 152.343 106.736
134.234 152.514 107.339
133.835 151.837 106.702
134.318 153.443 106.797
134.574 152.714 107.867
134.394 152.083 107.754
131.643 152.587 108.945
131.464 151.949 109.186
131.702 152.639 108.062
131.334 151.497 109.086
131.22 151.386 110.239
131.71 152.564 109.667
131.87 153.212 108.692
131.403 153.546 107.548
131.318 152.881 107.476
131.943 151.548 111.093
131.584 151.307 110.633
131.963 152.045 110.17
131.226 150.559 110.837
132.211 151.05 111.53
132.537 152.028 111.191
132.106 152.704 110.062
133.044 151.588 106.822
132.696 151.603 106.813
133.064 151.018 107.387
132.286 151.67 106.997
132.475 151.709 106.06
133.105 151.944 106.23
133.453 151.572 106.837
133.424 150.849 107.776
132.842 150.635 108.101
132.249 150.521 108.748
132.05 151.327 107.99
131.742 150.646 109.155
131.882 151.724 107.106
132.554 150.457 109.113
131.21 150.255 110.139
131.427 150.999 109.015
134.288 154.626 106.606
133.871 154.446 107.509
133.759 154.901 106.685
133.497 154.162 108.427
134.047 153.971 108.205
134.519 154.055 106.758
134.561 154.524 105.619
133.524 155.138 106.054
133.146 154.727 107.061
132.725 154.503 107.878
133.046 154.041 108.669
132.54 154.024 108.854
133.268 153.668 109.369
132.528 154.713 107.223
132.156 153.722 108.658
132.355 153.472 109.54
131.457 152.135 105.291
131.718 152.986 104.465
131.004 153.06 105.68
132.271 153.765 104.566
132.447 152.995 104.581
132.079 151.858 105.56
131.559 151.829 106.33
131.041 152.953 106.736
131.211 153.769 106.049
131.78 154.361 105.728
132.365 154.586 104.774
132.47 154.993 105.505
132.978 154.304 104.805
131.395 154.148 106.723
132.466 154.936 106.42
133.011 155.355 105.651
133.805 151.202 109.718
134.465 151.341 108.882
133.724 150.847 109.182
134.5 151.698 108.239
134.93 152.046 108.636
133.711 151.679 110.166
132.952 150.894 110.586
133.106 150.709 109.383
133.547 150.956 108.506
134.476 153.231 109.376
135.134 152.625 108.862
134.221 152.42 110.025
134.888 152.795 108.249
134.298 153.533 108.64
133.749 153.445 109.447
133.378 152.28 110.731
133.024 152.278 105.569
132.775 152.478 104.889
132.611 151.95 105.36
131.501 151.951 107.025
131.291 152.398 107.187
131.567 151.779 108.034
134.158 151.58 107.808
133.815 151.467 107.147
133.844 151.086 107.757
132.561 150.379 109.862
131.647 150.134 110.629
132.247 150.315 110.968
133.496 154.485 105.116
134.24 154.467 105.182
133.707 155.121 105.171
132.086 154.616 107.123
132.005 153.857 107.887
131.723 154.108 107.178
134.417 153.566 108.1
134.399 153.631 107.422
134.706 153.243 107.821
132.878 152.723 110.647
132.527 152.88 110.057
133.183 153.21 109.909
133.45 153.095 105.556
133.764 153.095 105.676
133.714 153.327 105.449
133.926 153.197 105.788
133.813 152.935 105.9
133.358 152.863 105.441
133.325 153.095 105.233
133.662 153.667 105.164
133.915 153.616 105.309
133.684 152.678 105.912
133.487 152.622 105.681
133.524 152.443 106.031
133.243 152.632 105.554
133.753 152.793 106.273
133.517 152.301 106.387
133.357 152.291 106.172
133.252 153.353 104.973
133.406 153.661 105.02
133.153 153.576 104.87
133.559 153.951 105.026
133.136 153.024 104.964
132.868 153.48 104.737
132.993 153.829 104.816
134.086 153.64 105.436
134.061 153.435 105.738
134.211 153.686 105.687
134.016 153.231 106.141
134.102 153.892 105.185
134.361 153.914 105.755
134.325 153.664 106.112
134.081 152.663 106.691
134.181 152.425 106.945
134.217 152.705 107.019
134.18 152.239 107.247
134.098 152.13 106.881
133.907 152.693 106.515
134.026 152.972 106.474
134.287 152.96 107.129
134.306 152.792 107.378
133.925 152.141 106.745
133.8 152.506 106.594
133.711 152.233 106.577
133.99 151.846 106.89
133.602 151.993 106.634
134.114 153.162 106.489
134.18 153.204 106.907
134.237 153.425 106.473
134.315 153.195 107.171
134.387 153.677 106.421
134.455 152.606 107.563
134.394 152.279 107.498
134.504 152.391 107.749
134.24 152 107.508
134.547 152.849 107.527
134.618 152.522 108.101
134.521 152.243 108.07
131.59 152.219 109.065
131.593 152.27 108.577
131.681 152.57 108.492
131.684 152.347 108.078
131.496 152.057 108.635
131.448 151.927 109.582
131.486 152.284 109.516
131.759 152.895 108.444
131.658 153.033 108.148
131.411 151.712 109.094
131.35 151.667 109.657
131.195 151.405 109.73
131.416 151.578 110.03
131.437 151.87 108.586
131.135 151.149 109.682
131.016 151.117 110.266
131.644 152.631 109.35
131.759 152.903 108.777
131.815 152.95 109.166
131.847 153.217 108.319
131.571 152.193 109.828
131.798 152.927 109.557
131.867 153.266 109.135
131.518 153.099 107.854
131.488 152.725 107.844
131.368 153.185 107.506
131.46 152.495 107.786
131.594 153.432 107.822
131.298 153.535 107.218
131.238 153.181 107.183
131.791 151.401 110.792
131.766 151.711 110.327
131.916 151.803 110.553
131.795 151.989 109.975
131.567 151.57 110.239
131.654 150.964 110.979
131.809 151.117 111.266
132.089 151.93 110.853
132.133 152.154 110.367
131.32 151.314 110.48
131.401 150.924 110.776
131.103 150.95 110.621
131.499 150.544 111.09
130.955 150.636 110.669
132.024 151.341 111.43
132.188 151.823 111.177
132.341 151.523 111.452
132.406 152.143 110.853
131.919 150.873 111.537
132.632 151.263 111.225
132.789 151.683 111.179
132.003 152.358 110.119
131.838 152.305 109.876
131.938 152.697 109.748
132.267 152.391 110.199
131.981 152.999 109.733
132.908 151.625 106.749
132.855 151.38 107.156
133.092 151.331 107.073
132.769 151.118 107.533
132.626 151.396 107.258
132.74 151.639 106.465
132.906 151.784 106.484
133.345 151.193 107.034
133.286 150.947 107.316
132.504 151.584 106.89
132.574 151.611 106.469
132.383 151.599 106.575
132.678 151.671 106.001
132.387 151.442 107.374
132.198 151.626 106.636
132.288 151.705 106.178
133.031 151.777 106.584
133.246 151.501 106.843
133.201 151.764 106.613
133.558 151.279 106.943
132.972 151.898 106.141
133.187 152.058 106.387
133.381 151.851 106.657
133.219 150.846 107.632
132.949 150.829 107.724
133.115 150.725 107.957
132.682 150.837 107.888
133.444 150.967 107.513
133.268 150.813 108.202
132.988 150.655 108.369
132.141 150.944 108.432
131.92 151.072 108.556
131.961 150.544 108.95
131.772 151.186 108.662
131.875 151.533 108.057
132.275 151.226 107.875
132.403 150.881 108.243
132.097 150.341 109.268
131.811 150.226 109.557
131.932 151.618 107.574
132.175 151.518 107.459
132.065 151.703 107.058
131.773 151.644 107.608
131.983 151.753 106.704
132.573 150.587 108.354
132.408 150.45 108.891
132.731 150.539 108.547
132.231 150.334 109.458
132.847 150.592 108.809
131.497 150.328 109.64
131.576 150.862 109.114
131.265 150.564 109.67
131.629 151.273 108.533
131.569 150.198 109.949
130.989 150.524 110.217
131.167 150.873 109.617
134.064 154.578 107.114
133.799 154.758 107.219
134.06 154.795 106.635
133.522 154.775 107.22
133.581 154.491 107.572
134.089 154.332 107.447
134.227 154.416 107.036
134.249 154.868 106.07
133.937 154.951 106.211
133.652 154.295 107.946
133.904 154.21 107.873
133.764 154.094 108.314
134.132 154.103 107.86
133.409 154.344 108.047
133.61 153.936 108.762
133.904 153.825 108.568
134.407 154.402 106.669
134.473 154.651 106.075
134.528 154.305 106.151
134.485 154.89 105.577
134.373 154.157 107.14
134.469 154.019 106.389
134.567 154.147 105.808
133.669 154.935 106.331
133.449 154.851 106.898
133.341 154.966 106.568
133.213 154.64 107.369
133.868 155.061 105.895
133.25 155.05 106.261
133.079 154.884 106.733
132.947 154.324 108.253
132.79 154.09 108.808
132.663 154.285 108.354
132.639 153.831 109.236
132.889 153.874 109.182
133.139 154.326 108.198
133.019 154.572 107.839
132.489 154.345 107.925
132.426 154.14 108.368
133.136 153.951 109.065
133.278 154.114 108.495
133.386 153.962 108.926
133.045 153.587 109.452
133.517 153.688 109.156
132.902 154.615 107.477
132.611 154.518 107.522
132.849 154.697 107.124
132.354 154.516 107.595
132.792 154.784 106.784
132.313 153.927 108.776
132.426 153.736 109.189
132.216 153.623 109.122
132.578 153.503 109.573
132.225 154.029 108.309
132.021 153.522 109.057
132.162 153.305 109.424
131.469 152.46 104.762
131.301 153.008 105.063
131.111 152.613 105.386
131.332 153.352 105.345
131.59 153.337 104.945
131.959 152.518 104.477
131.87 152.124 104.886
131.146 152.326 105.746
130.959 152.707 105.963
131.961 153.401 104.597
132.179 152.949 104.303
132.332 153.448 104.545
132.398 152.543 104.489
131.902 153.803 104.801
132.54 153.76 104.586
132.618 153.368 104.63
131.799 151.902 105.395
131.444 152.063 105.88
131.797 151.798 105.939
131.271 152.06 106.314
132.179 152.048 105.128
132.061 151.818 105.921
131.843 151.752 106.286
130.846 153.036 106.246
131.05 153.452 105.856
130.948 153.435 106.419
131.425 153.763 105.561
131.034 152.658 106.543
131.108 153.203 106.888
131.097 153.681 106.551
132.036 154.54 105.214
132.429 154.829 105.106
132.145 154.674 105.601
132.759 155.067 105.134
132.766 154.86 104.793
132.004 154.231 104.933
131.718 154.158 105.423
131.886 154.588 106.025
132.194 154.897 105.916
132.721 154.448 104.689
132.305 154.146 104.56
132.659 154.028 104.595
133.029 154.597 104.848
132.869 154.066 104.74
131.492 154.022 105.831
131.604 154.277 106.132
131.268 154.02 106.361
131.615 154.505 106.516
131.221 153.864 106.863
132.446 155.118 105.923
132.729 155.229 105.532
132.697 155.238 106.041
133.093 155.296 105.177
132.181 154.965 106.342
132.721 154.958 106.453
132.983 155.23 106.067
134.145 151.293 109.35
134.139 150.999 109.017
133.802 150.929 109.483
133.94 150.954 108.82
134.269 151.189 108.709
134.466 151.572 109.197
134.186 151.514 109.568
133.472 150.909 109.842
133.423 150.796 109.59
134.508 151.459 108.522
134.717 151.666 108.768
134.753 151.857 108.435
134.737 151.969 109.072
134.272 151.474 108.393
134.618 152.043 108.213
134.885 152.109 108.371
133.795 151.445 109.869
133.344 151.077 110.088
133.332 151.277 110.414
133.005 150.712 110.368
134.096 151.766 109.811
133.362 151.597 110.551
132.982 151.159 110.817
133.355 150.818 109.378
133.645 150.865 108.925
133.344 150.868 108.989
133.803 151.007 108.53
133.087 150.676 109.742
133.135 150.723 108.907
133.36 150.851 108.511
134.836 152.949 109.236
134.685 152.545 109.421
134.424 152.855 109.723
134.359 152.178 109.688
134.812 152.28 109.176
135.023 153.03 108.673
134.751 153.219 108.871
134.073 153.027 109.8
133.963 152.731 110.257
135.107 152.265 108.721
135.236 152.776 108.439
135.085 152.394 108.313
134.93 153.032 108.296
134.839 152.56 108.215
134.415 153.429 108.953
134.098 153.334 109.454
134.023 153.521 108.996
133.773 153.199 109.807
134.604 153.47 108.588
134.013 153.578 108.758
133.739 153.544 109.192
133.829 152.328 110.45
133.983 152.023 109.995
133.577 151.911 110.404
133.528 152.674 110.556
133.176 151.889 110.831
132.919 152.403 105.259
132.699 152.184 105.086
132.841 152.167 105.42
132.459 152.076 105.089
132.527 152.331 104.717
132.969 152.643 105.114
133.13 152.514 105.352
132.94 152.003 105.731
132.779 151.901 105.6
132.602 152.742 104.731
132.877 152.888 104.966
132.717 153.114 104.813
133.213 152.37 105.633
133.125 152.102 105.857
133.247 152.16 105.99
132.544 151.884 105.673
132.347 151.906 105.457
132.296 151.804 105.799
131.344 152.186 107.043
131.498 152.075 107.555
131.526 151.927 107.497
131.593 151.924 108.055
131.486 152.256 107.646
131.149 152.411 106.746
131.241 152.105 106.687
131.65 151.754 107.576
131.659 151.669 108.035
131.302 152.603 107.411
131.194 152.673 106.9
131.211 152.929 107.124
131.41 151.908 106.685
131.717 151.861 107.147
131.783 151.894 106.725
131.462 151.408 108.519
131.375 151.618 108.563
131.259 151.24 109.086
133.962 151.517 107.501
133.832 151.27 107.434
134.018 151.295 107.742
133.686 151.068 107.435
133.686 151.261 107.096
133.962 151.677 107.228
134.099 151.725 107.513
134.118 151.386 108.175
133.965 151.101 108.152
133.693 151.424 106.834
133.854 151.594 106.842
133.611 151.723 106.747
134.269 151.808 107.713
134.299 151.614 108.127
134.449 151.903 108.035
133.766 150.938 108.156
133.611 150.954 107.756
133.498 150.866 108.122
132.099 150.129 110.291
131.949 150.096 110.893
132.38 150.253 110.41
131.901 150.389 111.317
131.614 150.307 111.011
131.805 150.11 110.18
132.263 150.278 109.762
132.799 150.5 109.955
132.669 150.485 110.469
131.38 150.298 110.769
131.456 150.193 110.226
131.079 150.308 110.46
132.564 150.433 109.406
132.892 150.574 109.548
132.895 150.628 109.088
132.573 150.563 110.859
132.11 150.623 111.397
132.56 150.908 111.143
133.859 154.478 105.067
134.019 154.845 105.101
133.712 154.881 104.833
133.903 155.071 105.499
134.32 154.793 105.381
134.055 154.219 105.154
133.644 154.29 105.118
133.374 154.721 104.761
133.454 155.227 104.951
134.515 154.492 105.349
134.328 154.164 105.26
134.442 154.121 105.619
133.404 154.225 105.023
133.289 154.475 104.833
133.154 154.172 104.848
133.329 155.311 105.347
133.587 155.199 105.643
133.235 155.284 105.906
132.011 154.265 107.516
131.873 154.041 107.511
131.917 154.369 107.083
131.735 153.813 107.625
131.88 153.625 107.873
132.129 154.091 107.884
132.148 154.442 107.509
132.021 154.702 106.732
131.76 154.456 106.752
131.952 153.483 108.258
132.098 153.744 108.244
131.985 153.487 108.631
132.31 154.662 107.195
132.233 154.776 106.793
132.55 154.723 106.81
131.556 154.13 106.977
131.547 153.799 107.491
131.394 153.797 107.146
134.443 153.713 107.713
134.555 153.435 107.534
134.577 153.429 107.993
134.622 153.156 107.465
134.414 153.338 107.323
134.319 153.893 107.5
134.296 153.877 107.81
134.637 153.459 108.239
134.785 153.263 108.102
134.353 153.514 107.138
134.437 153.874 107.133
134.455 153.714 106.73
134.232 153.812 108.09
134.429 153.524 108.366
134.143 153.694 108.431
134.78 153.007 108.136
134.653 153.001 107.767
134.686 152.727 108.15
132.684 152.829 110.324
132.843 153.052 109.953
133.023 153.037 110.32
132.997 153.222 109.704
132.677 153.135 109.808
132.478 152.547 110.201
132.605 152.522 110.545
133.243 152.84 110.48
133.412 153.093 110.067
132.411 153.211 109.809
132.289 152.816 110.103
132.165 153.124 109.757
132.656 152.404 110.891
133.094 152.516 110.784
132.898 152.144 111.054
133.499 153.274 109.746
133.223 153.319 109.587
133.496 153.474 109.463
POLYGONS 1280  5120
3 164 162 163
3 163 44 164
3 162 43 163
3 164 42 162
3 166 165 163
3 163 43 166
3 165 44 163
3 166 14 165
3 168 167 162
3 162 42 168
3 167 43 162
3 168 13 167
3 170 169 164
3 164 44 170
3 169 42 164
3 170 12 169
3 173 171 172
3 172 46 173
3 171 43 172
3 173 45 171
3 167 174 172
3 172 43 167
3 174 46 172
3 167 13 174
3 175 166 171
3 171 45 175
3 166 43 171
3 175 14 166
3 177 176 173
3 173 46 177
3 176 45 173
3 177 4 176
3 180 178 179
3 179 48 180
3 178 42 179
3 180 47 178
3 169 181 179
3 179 42 169
3 181 48 179
3 169 12 181
3 182 168 178
3 178 47 182
3 168 42 178
3 182 13 168
3 184 183 180
3 180 48 184
3 183 47 180
3 184 8 183
3 187 185 186
3 186 50 187
3 185 44 186
3 187 49 185
3 165 188 186
3 186 44 165
3 188 50 186
3 165 14 188
3 189 170 185
3 185 49 189
3 170 44 185
3 189 12 170
3 191 190 187
3 187 50 191
3 190 49 187
3 191 7 190
3 194 192 193
3 193 53 194
3 192 52 193
3 194 51 192
3 196 195 193
3 193 52 196
3 195 53 193
3 196 16 195
3 198 197 192
3 192 51 198
3 197 52 192
3 198 14 197
3 200 199 194
3 194 53 200
3 199 51 194
3 200 15 199
3 203 201 202
3 202 45 203
3 201 52 202
3 203 54 201
3 197 175 202
3 202 52 197
3 175 45 202
3 197 14 175
3 204 196 201
3 201 54 204
3 196 52 201
3 204 16 196
3 176 205 203
3 203 45 176
3 205 54 203
3 176 4 205
3 208 206 207
3 207 55 208
3 206 51 207
3 208 50 206
3 199 209 207
3 207 51 199
3 209 55 207
3 199 15 209
3 188 198 206
3 206 50 188
3 198 51 206
3 188 14 198
3 210 191 208
3 208 55 210
3 191 50 208
3 210 7 191
3 213 211 212
3 212 57 213
3 211 53 212
3 213 56 211
3 195 214 212
3 212 53 195
3 214 57 212
3 195 16 214
3 215 200 211
3 211 56 215
3 200 53 211
3 215 15 200
3 217 216 213
3 213 57 217
3 216 56 213
3 217 9 216
3 220 218 219
3 219 60 220
3 218 59 219
3 220 58 218
3 222 221 219
3 219 59 222
3 221 60 219
3 222 19 221
3 224 223 218
3 218 58 224
3 223 59 218
3 224 18 223
3 226 225 220
3 220 60 226
3 225 58 220
3 226 17 225
3 229 227 228
3 228 62 229
3 227 59 228
3 229 61 227
3 223 230 228
3 228 59 223
3 230 62 228
3 223 18 230
3 231 222 227
3 227 61 231
3 222 59 227
3 231 19 222
3 233 232 229
3 229 62 233
3 232 61 229
3 233 5 232
3 236 234 235
3 235 64 236
3 234 58 235
3 236 63 234
3 225 237 235
3 235 58 225
3 237 64 235
3 225 17 237
3 238 224 234
3 234 63 238
3 224 58 234
3 238 18 224
3 240 239 236
3 236 64 240
3 239 63 236
3 240 6 239
3 243 241 242
3 242 66 243
3 241 60 242
3 243 65 241
3 221 244 242
3 242 60 221
3 244 66 242
3 221 19 244
3 245 226 241
3 241 65 245
3 226 60 241
3 245 17 226
3 247 246 243
3 243 66 247
3 246 65 243
3 247 11 246
3 250 248 249
3 249 69 250
3 248 68 249
3 250 67 248
3 252 251 249
3 249 68 252
3 251 69 249
3 252 18 251
3 254 253 248
3 248 67 254
3 253 68 248
3 254 21 253
3 256 255 250
3 250 69 256
3 255 67 250
3 256 20 255
3 259 257 258
3 258 70 259
3 257 68 258
3 259 62 257
3 253 260 258
3 258 68 253
3 260 70 258
3 253 21 260
3 230 252 257
3 257 62 230
3 252 68 257
3 230 18 252
3 261 233 259
3 259 70 261
3 233 62 259
3 261 5 233
3 264 262 263
3 263 72 264
3 262 67 263
3 264 71 262
3 255 265 263
3 263 67 255
3 265 72 263
3 255 20 265
3 266 254 262
3 262 71 266
3 254 67 262
3 266 21 254
3 268 267 264
3 264 72 268
3 267 71 264
3 268 10 267
3 271 269 270
3 270 63 271
3 269 69 270
3 271 73 269
3 251 238 270
3 270 69 251
3 238 63 270
3 251 18 238
3 272 256 269
3 269 73 272
3 256 69 269
3 272 20 256
3 239 273 271
3 271 63 239
3 273 73 271
3 239 6 273
3 276 274 275
3 275 76 276
3 274 75 275
3 276 74 274
3 278 277 275
3 275 75 278
3 277 76 275
3 278 24 277
3 280 279 274
3 274 74 280
3 279 75 274
3 280 23 279
3 282 281 276
3 276 76 282
3 281 74 276
3 282 22 281
3 285 283 284
3 284 78 285
3 283 75 284
3 285 77 283
3 279 286 284
3 284 75 279
3 286 78 284
3 279 23 286
3 287 278 283
3 283 77 287
3 278 75 283
3 287 24 278
3 289 288 285
3 285 78 289
3 288 77 285
3 289 0 288
3 292 290 291
3 291 80 292
3 290 74 291
3 292 79 290
3 281 293 291
3 291 74 281
3 293 80 291
3 281 22 293
3 294 280 290
3 290 79 294
3 280 74 290
3 294 23 280
3 296 295 292
3 292 80 296
3 295 79 292
3 296 4 295
3 299 297 298
3 298 82 299
3 297 76 298
3 299 81 297
3 277 300 298
3 298 76 277
3 300 82 298
3 277 24 300
3 301 282 297
3 297 81 301
3 282 76 297
3 301 22 282
3 303 302 299
3 299 82 303
3 302 81 299
3 303 3 302
3 306 304 305
3 305 85 306
3 304 84 305
3 306 83 304
3 308 307 305
3 305 84 308
3 307 85 305
3 308 26 307
3 310 309 304
3 304 83 310
3 309 84 304
3 310 24 309
3 312 311 306
3 306 85 312
3 311 83 306
3 312 25 311
3 315 313 314
3 314 77 315
3 313 84 314
3 315 86 313
3 309 287 314
3 314 84 309
3 287 77 314
3 309 24 287
3 316 308 313
3 313 86 316
3 308 84 313
3 316 26 308
3 288 317 315
3 315 77 288
3 317 86 315
3 288 0 317
3 320 318 319
3 319 87 320
3 318 83 319
3 320 82 318
3 311 321 319
3 319 83 311
3 321 87 319
3 311 25 321
3 300 310 318
3 318 82 300
3 310 83 318
3 300 24 310
3 322 303 320
3 320 87 322
3 303 82 320
3 322 3 303
3 325 323 324
3 324 89 325
3 323 85 324
3 325 88 323
3 307 326 324
3 324 85 307
3 326 89 324
3 307 26 326
3 327 312 323
3 323 88 327
3 312 85 323
3 327 25 312
3 329 328 325
3 325 89 329
3 328 88 325
3 329 5 328
3 332 330 331
3 331 92 332
3 330 91 331
3 332 90 330
3 334 333 331
3 331 91 334
3 333 92 331
3 334 29 333
3 336 335 330
3 330 90 336
3 335 91 330
3 336 28 335
3 338 337 332
3 332 92 338
3 337 90 332
3 338 27 337
3 341 339 340
3 340 94 341
3 339 91 340
3 341 93 339
3 335 342 340
3 340 91 335
3 342 94 340
3 335 28 342
3 343 334 339
3 339 93 343
3 334 91 339
3 343 29 334
3 345 344 341
3 341 94 345
3 344 93 341
3 345 2 344
3 348 346 347
3 347 96 348
3 346 90 347
3 348 95 346
3 337 349 347
3 347 90 337
3 349 96 347
3 337 27 349
3 350 336 346
3 346 95 350
3 336 90 346
3 350 28 336
3 352 351 348
3 348 96 352
3 351 95 348
3 352 7 351
3 355 353 354
3 354 98 355
3 353 92 354
3 355 97 353
3 333 356 354
3 354 92 333
3 356 98 354
3 333 29 356
3 357 338 353
3 353 97 357
3 338 92 353
3 357 27 338
3 359 358 355
3 355 98 359
3 358 97 355
3 359 1 358
3 362 360 361
3 361 101 362
3 360 100 361
3 362 99 360
3 364 363 361
3 361 100 364
3 363 101 361
3 364 31 363
3 366 365 360
3 360 99 366
3 365 100 360
3 366 29 365
3 368 367 362
3 362 101 368
3 367 99 362
3 368 30 367
3 371 369 370
3 370 93 371
3 369 100 370
3 371 102 369
3 365 343 370
3 370 100 365
3 343 93 370
3 365 29 343
3 372 364 369
3 369 102 372
3 364 100 369
3 372 31 364
3 344 373 371
3 371 93 344
3 373 102 371
3 344 2 373
3 376 374 375
3 375 103 376
3 374 99 375
3 376 98 374
3 367 377 375
3 375 99 367
3 377 103 375
3 367 30 377
3 356 366 374
3 374 98 356
3 366 99 374
3 356 29 366
3 378 359 376
3 376 103 378
3 359 98 376
3 378 1 359
3 381 379 380
3 380 105 381
3 379 101 380
3 381 104 379
3 363 382 380
3 380 101 363
3 382 105 380
3 363 31 382
3 383 368 379
3 379 104 383
3 368 101 379
3 383 30 368
3 385 384 381
3 381 105 385
3 384 104 381
3 385 6 384
3 388 386 387
3 387 108 388
3 386 107 387
3 388 106 386
3 390 389 387
3 387 107 390
3 389 108 387
3 390 34 389
3 392 391 386
3 386 106 392
3 391 107 386
3 392 33 391
3 394 393 388
3 388 108 394
3 393 106 388
3 394 32 393
3 397 395 396
3 396 110 397
3 395 107 396
3 397 109 395
3 391 398 396
3 396 107 391
3 398 110 396
3 391 33 398
3 399 390 395
3 395 109 399
3 390 107 395
3 399 34 390
3 401 400 397
3 397 110 401
3 400 109 397
3 401 8 400
3 404 402 403
3 403 112 404
3 402 106 403
3 404 111 402
3 393 405 403
3 403 106 393
3 405 112 403
3 393 32 405
3 406 392 402
3 402 111 406
3 392 106 402
3 406 33 392
3 408 407 404
3 404 112 408
3 407 111 404
3 408 0 407
3 411 409 410
3 410 114 411
3 409 108 410
3 411 113 409
3 389 412 410
3 410 108 389
3 412 114 410
3 389 34 412
3 413 394 409
3 409 113 413
3 394 108 409
3 413 32 394
3 415 414 411
3 411 114 415
3 414 113 411
3 415 11 414
3 418 416 417
3 417 117 418
3 416 116 417
3 418 115 416
3 420 419 417
3 417 116 420
3 419 117 417
3 420 36 419
3 422 421 416
3 416 115 422
3 421 116 416
3 422 34 421
3 424 423 418
3 418 117 424
3 423 115 418
3 424 35 423
3 427 425 426
3 426 109 427
3 425 116 426
3 427 118 425
3 421 399 426
3 426 116 421
3 399 109 426
3 421 34 399
3 428 420 425
3 425 118 428
3 420 116 425
3 428 36 420
3 400 429 427
3 427 109 400
3 429 118 427
3 400 8 429
3 432 430 431
3 431 119 432
3 430 115 431
3 432 114 430
3 423 433 431
3 431 115 423
3 433 119 431
3 423 35 433
3 412 422 430
3 430 114 412
3 422 115 430
3 412 34 422
3 434 415 432
3 432 119 434
3 415 114 432
3 434 11 415
3 437 435 436
3 436 121 437
3 435 117 436
3 437 120 435
3 419 438 436
3 436 117 419
3 438 121 436
3 419 36 438
3 439 424 435
3 435 120 439
3 424 117 435
3 439 35 424
3 441 440 437
3 437 121 441
3 440 120 437
3 441 1 440
3 444 442 443
3 443 124 444
3 442 123 443
3 444 122 442
3 446 445 443
3 443 123 446
3 445 124 443
3 446 39 445
3 448 447 442
3 442 122 448
3 447 123 442
3 448 38 447
3 450 449 444
3 444 124 450
3 449 122 444
3 450 37 449
3 453 451 452
3 452 126 453
3 451 123 452
3 453 125 451
3 447 454 452
3 452 123 447
3 454 126 452
3 447 38 454
3 455 446 451
3 451 125 455
3 446 123 451
3 455 39 446
3 457 456 453
3 453 126 457
3 456 125 453
3 457 9 456
3 460 458 459
3 459 128 460
3 458 122 459
3 460 127 458
3 449 461 459
3 459 122 449
3 461 128 459
3 449 37 461
3 462 448 458
3 458 127 462
3 448 122 458
3 462 38 448
3 464 463 460
3 460 128 464
3 463 127 460
3 464 10 463
3 467 465 466
3 466 130 467
3 465 124 466
3 467 129 465
3 445 468 466
3 466 124 445
3 468 130 466
3 445 39 468
3 469 450 465
3 465 129 469
3 450 124 465
3 469 37 450
3 471 470 467
3 467 130 471
3 470 129 467
3 471 3 470
3 474 472 473
3 473 133 474
3 472 132 473
3 474 131 472
3 476 475 473
3 473 132 476
3 475 133 473
3 476 38 475
3 478 477 472
3 472 131 478
3 477 132 472
3 478 41 477
3 480 479 474
3 474 133 480
3 479 131 474
3 480 40 479
3 483 481 482
3 482 134 483
3 481 132 482
3 483 126 481
3 477 484 482
3 482 132 477
3 484 134 482
3 477 41 484
3 454 476 481
3 481 126 454
3 476 132 481
3 454 38 476
3 485 457 483
3 483 134 485
3 457 126 483
3 485 9 457
3 488 486 487
3 487 136 488
3 486 131 487
3 488 135 486
3 479 489 487
3 487 131 479
3 489 136 487
3 479 40 489
3 490 478 486
3 486 135 490
3 478 131 486
3 490 41 478
3 492 491 488
3 488 136 492
3 491 135 488
3 492 2 491
3 495 493 494
3 494 127 495
3 493 133 494
3 495 137 493
3 475 462 494
3 494 133 475
3 462 127 494
3 475 38 462
3 496 480 493
3 493 137 496
3 480 133 493
3 496 40 480
3 463 497 495
3 495 127 463
3 497 137 495
3 463 10 497
3 500 498 499
3 499 140 500
3 498 139 499
3 500 138 498
3 502 501 499
3 499 139 502
3 501 140 499
3 502 33 501
3 504 503 498
3 498 138 504
3 503 139 498
3 504 13 503
3 506 505 500
3 500 140 506
3 505 138 500
3 506 23 505
3 509 507 508
3 508 47 509
3 507 139 508
3 509 110 507
3 503 182 508
3 508 139 503
3 182 47 508
3 503 13 182
3 398 502 507
3 507 110 398
3 502 139 507
3 398 33 502
3 183 401 509
3 509 47 183
3 401 110 509
3 183 8 401
3 512 510 511
3 511 79 512
3 510 138 511
3 512 46 510
3 505 294 511
3 511 138 505
3 294 79 511
3 505 23 294
3 174 504 510
3 510 46 174
3 504 138 510
3 174 13 504
3 295 177 512
3 512 79 295
3 177 46 512
3 295 4 177
3 515 513 514
3 514 111 515
3 513 140 514
3 515 78 513
3 501 406 514
3 514 140 501
3 406 111 514
3 501 33 406
3 286 506 513
3 513 78 286
3 506 140 513
3 286 23 506
3 407 289 515
3 515 111 407
3 289 78 515
3 407 0 289
3 518 516 517
3 517 143 518
3 516 142 517
3 518 141 516
3 520 519 517
3 517 142 520
3 519 143 517
3 520 19 519
3 522 521 516
3 516 141 522
3 521 142 516
3 522 32 521
3 524 523 518
3 518 143 524
3 523 141 518
3 524 26 523
3 527 525 526
3 526 113 527
3 525 142 526
3 527 66 525
3 521 413 526
3 526 142 521
3 413 113 526
3 521 32 413
3 244 520 525
3 525 66 244
3 520 142 525
3 244 19 520
3 414 247 527
3 527 113 414
3 247 66 527
3 414 11 247
3 530 528 529
3 529 86 530
3 528 141 529
3 530 112 528
3 523 316 529
3 529 141 523
3 316 86 529
3 523 26 316
3 405 522 528
3 528 112 405
3 522 141 528
3 405 32 522
3 317 408 530
3 530 86 317
3 408 112 530
3 317 0 408
3 533 531 532
3 532 61 533
3 531 143 532
3 533 89 531
3 519 231 532
3 532 143 519
3 231 61 532
3 519 19 231
3 326 524 531
3 531 89 326
3 524 143 531
3 326 26 524
3 232 329 533
3 533 61 232
3 329 89 533
3 232 5 329
3 536 534 535
3 535 146 536
3 534 145 535
3 536 144 534
3 538 537 535
3 535 145 538
3 537 146 535
3 538 22 537
3 540 539 534
3 534 144 540
3 539 145 534
3 540 16 539
3 542 541 536
3 536 146 542
3 541 144 536
3 542 39 541
3 545 543 544
3 544 54 545
3 543 145 544
3 545 80 543
3 539 204 544
3 544 145 539
3 204 54 544
3 539 16 204
3 293 538 543
3 543 80 293
3 538 145 543
3 293 22 538
3 205 296 545
3 545 54 205
3 296 80 545
3 205 4 296
3 548 546 547
3 547 125 548
3 546 144 547
3 548 57 546
3 541 455 547
3 547 144 541
3 455 125 547
3 541 39 455
3 214 540 546
3 546 57 214
3 540 144 546
3 214 16 540
3 456 217 548
3 548 125 456
3 217 57 548
3 456 9 217
3 551 549 550
3 550 81 551
3 549 146 550
3 551 130 549
3 537 301 550
3 550 146 537
3 301 81 550
3 537 22 301
3 468 542 549
3 549 130 468
3 542 146 549
3 468 39 542
3 302 471 551
3 551 81 302
3 471 130 551
3 302 3 471
3 554 552 553
3 553 149 554
3 552 148 553
3 554 147 552
3 556 555 553
3 553 148 556
3 555 149 553
3 556 21 555
3 558 557 552
3 552 147 558
3 557 148 552
3 558 25 557
3 560 559 554
3 554 149 560
3 559 147 554
3 560 37 559
3 563 561 562
3 562 88 563
3 561 148 562
3 563 70 561
3 557 327 562
3 562 148 557
3 327 88 562
3 557 25 327
3 260 556 561
3 561 70 260
3 556 148 561
3 260 21 556
3 328 261 563
3 563 88 328
3 261 70 563
3 328 5 261
3 566 564 565
3 565 129 566
3 564 147 565
3 566 87 564
3 559 469 565
3 565 147 559
3 469 129 565
3 559 37 469
3 321 558 564
3 564 87 321
3 558 147 564
3 321 25 558
3 470 322 566
3 566 129 470
3 322 87 566
3 470 3 322
3 569 567 568
3 568 71 569
3 567 149 568
3 569 128 567
3 555 266 568
3 568 149 555
3 266 71 568
3 555 21 266
3 461 560 567
3 567 128 461
3 560 149 567
3 461 37 560
3 267 464 569
3 569 71 267
3 464 128 569
3 267 10 464
3 572 570 571
3 571 152 572
3 570 151 571
3 572 150 570
3 574 573 571
3 571 151 574
3 573 152 571
3 574 27 573
3 576 575 570
3 570 150 576
3 575 151 570
3 576 12 575
3 578 577 572
3 572 152 578
3 577 150 572
3 578 36 577
3 581 579 580
3 580 49 581
3 579 151 580
3 581 96 579
3 575 189 580
3 580 151 575
3 189 49 580
3 575 12 189
3 349 574 579
3 579 96 349
3 574 151 579
3 349 27 574
3 190 352 581
3 581 49 190
3 352 96 581
3 190 7 352
3 584 582 583
3 583 118 584
3 582 150 583
3 584 48 582
3 577 428 583
3 583 150 577
3 428 118 583
3 577 36 428
3 181 576 582
3 582 48 181
3 576 150 582
3 181 12 576
3 429 184 584
3 584 118 429
3 184 48 584
3 429 8 184
3 587 585 586
3 586 97 587
3 585 152 586
3 587 121 585
3 573 357 586
3 586 152 573
3 357 97 586
3 573 27 357
3 438 578 585
3 585 121 438
3 578 152 585
3 438 36 578
3 358 441 587
3 587 97 358
3 441 121 587
3 358 1 441
3 590 588 589
3 589 155 590
3 588 154 589
3 590 153 588
3 592 591 589
3 589 154 592
3 591 155 589
3 592 17 591
3 594 593 588
3 588 153 594
3 593 154 588
3 594 30 593
3 596 595 590
3 590 155 596
3 595 153 590
3 596 35 595
3 599 597 598
3 598 104 599
3 597 154 598
3 599 64 597
3 593 383 598
3 598 154 593
3 383 104 598
3 593 30 383
3 237 592 597
3 597 64 237
3 592 154 597
3 237 17 592
3 384 240 599
3 599 104 384
3 240 64 599
3 384 6 240
3 602 600 601
3 601 120 602
3 600 153 601
3 602 103 600
3 595 439 601
3 601 153 595
3 439 120 601
3 595 35 439
3 377 594 600
3 600 103 377
3 594 153 600
3 377 30 594
3 440 378 602
3 602 120 440
3 378 103 602
3 440 1 378
3 605 603 604
3 604 65 605
3 603 155 604
3 605 119 603
3 591 245 604
3 604 155 591
3 245 65 604
3 591 17 245
3 433 596 603
3 603 119 433
3 596 155 603
3 433 35 596
3 246 434 605
3 605 65 246
3 434 119 605
3 246 11 434
3 608 606 607
3 607 158 608
3 606 157 607
3 608 156 606
3 610 609 607
3 607 157 610
3 609 158 607
3 610 15 609
3 612 611 606
3 606 156 612
3 611 157 606
3 612 28 611
3 614 613 608
3 608 158 614
3 613 156 608
3 614 41 613
3 617 615 616
3 616 95 617
3 615 157 616
3 617 55 615
3 611 350 616
3 616 157 611
3 350 95 616
3 611 28 350
3 209 610 615
3 615 55 209
3 610 157 615
3 209 15 610
3 351 210 617
3 617 95 351
3 210 55 617
3 351 7 210
3 620 618 619
3 619 135 620
3 618 156 619
3 620 94 618
3 613 490 619
3 619 156 613
3 490 135 619
3 613 41 490
3 342 612 618
3 618 94 342
3 612 156 618
3 342 28 612
3 491 345 620
3 620 135 491
3 345 94 620
3 491 2 345
3 623 621 622
3 622 56 623
3 621 158 622
3 623 134 621
3 609 215 622
3 622 158 609
3 215 56 622
3 609 15 215
3 484 614 621
3 621 134 484
3 614 158 621
3 484 41 614
3 216 485 623
3 623 56 216
3 485 134 623
3 216 9 485
3 626 624 625
3 625 161 626
3 624 160 625
3 626 159 624
3 628 627 625
3 625 160 628
3 627 161 625
3 628 31 627
3 630 629 624
3 624 159 630
3 629 160 624
3 630 20 629
3 632 631 626
3 626 161 632
3 631 159 626
3 632 40 631
3 635 633 634
3 634 73 635
3 633 160 634
3 635 105 633
3 629 272 634
3 634 160 629
3 272 73 634
3 629 20 272
3 382 628 633
3 633 105 382
3 628 160 633
3 382 31 628
3 273 385 635
3 635 73 273
3 385 105 635
3 273 6 385
3 638 636 637
3 637 137 638
3 636 159 637
3 638 72 636
3 631 496 637
3 637 159 631
3 496 137 637
3 631 40 496
3 265 630 636
3 636 72 265
3 630 159 636
3 265 20 630
3 497 268 638
3 638 137 497
3 268 72 638
3 497 10 268
3 641 639 640
3 640 102 641
3 639 161 640
3 641 136 639
3 627 372 640
3 640 161 627
3 372 102 640
3 627 31 372
3 489 632 639
3 639 136 489
3 632 161 639
3 489 40 632
3 373 492 641
3 641 102 373
3 492 136 641
3 373 2 492
