# vtk DataFile Version 3.0
this file was written using fslvtkio
ASCII
DATASET POLYDATA
POINTS 642 float
163.058 145.919 163.824
157.26 135.781 170.08
158.208 133.094 163.382
165.293 143.612 156.552
164.141 139.643 164.47
156.565 147.595 158.734
150.783 139.538 164.54
162.842 132.808 168.807
164.141 139.515 172.267
166.158 134.355 159.849
157.267 140.123 154.666
158.408 143.065 168.092
164.05 134.749 171.006
164.127 139.717 168.468
163.532 136.359 166.606
163.031 133.526 164.385
164.42 137.507 162.104
154.999 141.364 165.638
153.976 143.792 160.444
158.269 144.46 162.609
153.474 140.308 158.294
156.146 145.757 154.446
166.367 141.57 160.477
164.123 142.809 164.336
164.467 145.751 159.704
161.202 146.513 156.185
160.647 148.402 160.009
160.785 132.392 171.359
160.281 131.657 166.593
156.739 133.697 167.402
154.037 137.414 167.466
154.357 136.325 163.131
161.239 145.419 166.179
165.153 144.487 168.627
159.818 143.153 172.939
155.929 139.341 171.22
159.481 137.524 172.994
162.773 143.502 153.743
163.429 135.01 157.168
166.413 139.435 157.203
156.386 134.439 159.3
162.936 130.295 161.925
164.469 137.79 169.448
163.845 138.078 167.698
163.411 135.877 169.108
163.678 138.298 165.521
163.931 139.923 166.206
164.415 139.954 170.009
164.47 137.133 171.655
163.917 133.438 169.908
163.286 134.467 167.665
163.303 135.03 165.393
163.86 136.851 164.423
164.117 135.403 163.503
164.578 138.566 163.279
162.819 133.16 166.615
164.483 133.726 162.185
164.82 135.906 161.088
153.492 142.596 163.684
154.803 144.591 161.978
156.941 142.967 164.339
156.415 146.631 160.803
154.496 145.973 159.286
152.069 141.628 162.749
152.663 140.402 165.069
156.689 142.337 167.098
159.511 143.266 165.561
153.78 142.799 156.326
153.611 145.085 157.52
152.939 142.41 159.341
156.53 146.844 156.704
156.406 143.308 153.443
154.765 140.192 155.829
152.013 139.924 161.454
165.017 142.375 162.571
164.719 144.525 161.785
166.008 144.076 159.854
164.093 146.179 161.656
163.459 144.335 164.594
164.232 141.064 164.533
164.402 140.494 163.097
165.742 142.64 158.575
165.047 144.748 157.988
163.061 146.169 158.047
163.06 147.733 159.201
160.893 147.834 158.344
162.38 147.428 161.842
163.928 145.297 155.673
158.535 147.949 157.019
158.426 148.236 159.402
160.56 132.22 168.901
158.429 131.887 167.679
158.829 133.119 169.178
156.727 133.006 165.608
159.334 132.17 165.031
161.928 131.869 168.034
162.571 131.857 170.587
159.197 134.58 170.41
157.301 134.764 168.814
155.003 135.284 167.631
154.18 134.301 165.988
152.263 136.026 166.461
156.217 134.557 163.112
155.629 136.62 169.023
151.763 138.295 166.262
151.891 137.744 164.083
163.43 146.415 167.507
164.226 145.367 171.008
160.566 146.087 169.92
163.353 141.327 173.394
164.839 142.174 170.501
164.099 145.478 166.1
162.48 146.795 164.609
160.255 144.134 167.488
158.135 143.59 170.746
157.569 141.216 172.169
159.868 139.802 173.813
157.441 138.537 172.235
162.816 137.778 174.042
156.463 141.652 169.897
156.384 137.133 171.267
158.581 136.342 171.284
163.01 139.26 155.315
164.702 137.286 157.048
164.562 140.731 155.664
165.574 136.571 158.693
166.029 134.067 158.256
160.099 137.941 155.919
160.095 142.006 153.722
165.118 144.198 154.303
166.26 142.103 156.248
159.801 131.93 160.325
163.875 131.223 158.993
159.623 134.118 157.587
165.865 131.862 160.733
159.782 131.455 162.935
157.059 133.219 161.949
156.328 137.055 156.576
164.151 141.569 167.025
164.512 141.959 168.561
164.325 143.449 166.802
160.395 146.469 163.26
160.103 144.627 164.41
158.413 147.249 161.556
165.029 138.408 159.945
165.143 139.479 161.243
165.952 140.658 158.93
162.408 146.713 153.336
159.177 147.412 154.112
159.003 146.416 151.986
162.362 135.279 173.235
163.34 132.158 172.75
160.246 134.94 171.867
154.749 138.156 169.476
154.298 139.475 166.864
154.939 140.25 168.663
161.667 130.984 164.321
161.861 132.221 165.646
164.169 131.621 163.396
154.263 137.454 158.439
153.528 137.882 160.929
155.085 135.571 160.872
164.265 137.927 168.663
164.035 137.062 168.424
164.029 136.791 169.329
163.313 136.043 168.081
163.789 137.117 167.305
163.97 138.809 168.214
164.265 138.834 168.964
164.342 136.339 170.194
163.824 135.443 169.955
163.608 138.084 166.615
163.889 139.102 166.88
163.79 139.058 165.792
163.741 139.844 167.538
163.499 137.361 166.143
163.954 139.085 164.832
164.067 139.744 165.106
164.512 138.768 169.804
164.713 137.56 170.431
164.867 138.566 170.601
164.368 136.121 171.147
164.319 140.024 169.12
164.529 139.772 171.007
164.549 138.402 172.064
163.996 134.671 169.468
163.324 135.011 168.547
163.382 134.032 169.05
163.252 135.408 167.126
164.208 134.049 170.489
163.165 132.916 169.562
163.044 133.57 168.356
163.581 135.962 164.959
164.062 136.099 164.103
163.462 135.22 164.548
164.649 136.332 162.807
164.41 137.032 163.388
163.662 136.758 165.676
163.376 135.736 166.094
163.059 134.222 164.918
163.125 134.475 163.95
163.874 137.752 163.753
163.656 137.721 165.036
163.851 138.34 164.469
164.572 138.106 162.701
164.087 139.232 163.956
163.034 134.796 166.661
163.194 134.026 166.064
162.954 133.808 167.247
162.947 133.297 165.502
162.743 132.962 167.806
163.74 134.669 162.692
164.563 135.684 162.059
164.779 134.678 161.575
164.459 136.826 161.499
163.685 133.578 163.261
165.238 133.898 161.03
165.416 134.924 160.507
154.246 143.623 162.866
156.012 143.708 163.025
155.278 142.903 163.964
157.793 143.763 163.279
156.631 144.456 162.14
154.053 144.288 161.275
153.253 143.31 162.269
154.552 141.971 164.635
156.011 142.16 165.086
155.553 145.59 161.453
154.545 145.342 160.657
155.332 146.327 160.082
153.829 145.027 159.806
157.01 145.544 161.695
156.295 147.318 159.585
155.567 146.985 158.95
152.112 142.276 163.476
153.27 141.49 164.305
151.961 141.048 164.143
153.94 140.953 165.187
153.053 142.612 161.772
151.112 140.51 163.765
151.704 139.902 164.882
156.976 142.669 165.578
158.337 143.309 164.673
158.115 142.967 166.178
159.119 143.783 163.813
155.953 141.831 166.316
157.586 142.736 167.599
159.023 143.146 166.813
153.805 144.098 156.83
153.481 143.604 158.443
153.771 142.839 157.668
153.285 142.974 160.148
153.635 144.379 159.165
154.667 145.485 155.943
154.64 144.445 155.269
153.692 141.618 157.343
153.614 141.512 158.632
154.01 145.807 158.246
155.23 146.2 156.799
155.196 146.724 157.894
156.442 146.504 155.304
156.383 147.523 157.664
154.901 143.192 154.456
154.127 141.719 155.782
155.2 141.809 154.458
153.615 140.155 157.108
156.612 144.631 153.808
156.907 141.567 153.911
155.967 140.062 155.023
152.516 141.172 160.367
152.589 141.983 161.013
151.995 140.877 161.939
153.124 140.147 159.694
151.286 139.652 163.106
165.172 143.368 162.174
165.043 144.184 160.956
165.409 143.13 161.367
165.363 145.015 159.745
164.812 145.391 160.564
164.434 143.612 163.048
164.831 142.734 163.221
165.647 142.081 161.521
166.111 142.893 160.242
164.524 145.422 161.86
164.247 144.434 163.267
163.984 145.344 162.961
163.962 143.479 164.492
164.344 146.249 160.338
163.22 145.893 162.914
163.296 145.273 164.254
164.717 141.724 163.589
164.892 141.445 162.861
164.317 140.842 163.865
165.649 141.005 161.73
164.411 142.044 164.446
164.182 140.204 164.587
164.065 140.102 163.806
166.184 143.367 159.026
165.668 144.484 158.906
165.674 143.928 158.102
164.849 145.302 158.918
165.999 142.294 159.536
165.247 142.941 157.756
165.119 144.066 157.357
162.683 146.883 158.783
161.858 147.82 158.614
161.869 147.068 157.963
160.667 148.267 158.942
161.942 148.416 159.496
163.74 146.756 159.444
163.826 145.977 159.011
162.204 146.352 156.981
160.951 147.338 157.061
162.965 147.977 160.294
163.856 147.126 160.229
163.203 146.785 161.798
161.746 148.2 160.641
162.604 146.441 163.137
164.24 145.493 158.092
163.4 145.598 157.007
164.445 144.899 157.117
162.808 146.042 155.634
164.928 144.535 155.994
159.752 148.093 157.553
159.586 148.204 158.775
158.352 148.278 158.379
159.534 148.495 159.583
159.775 147.363 156.503
157.3 148.12 157.799
157.41 147.892 158.999
159.406 131.687 168.402
158.402 132.263 168.684
159.595 132.395 169.283
157.755 133.356 168.409
157.515 132.65 167.712
159.348 131.734 167.03
160.269 131.444 168.031
160.715 132.3 170.102
159.757 133 170.002
157.468 132.342 166.759
158.815 132.099 166.22
158.232 132.674 165.342
159.705 131.744 165.878
156.416 133.108 166.76
157.649 133.274 164.266
158.815 132.808 164.02
161.136 132.116 168.566
161.499 132.203 169.681
161.941 132.089 169.353
162.008 131.726 171.239
161 131.466 167.476
162.452 132.291 168.549
162.961 132.278 169.62
159.042 133.963 169.861
158.146 133.872 169.101
158.202 134.623 169.738
156.981 134.209 168.207
159.908 133.633 170.732
158.332 135.293 170.294
157.466 135.368 169.547
154.364 134.723 166.986
153.021 135.015 166.315
153.415 135.538 167.074
152.625 135.82 165.138
154.238 135.316 164.529
155.39 134.024 166.754
155.886 134.486 167.494
154.301 136.291 167.559
153.217 136.69 166.992
155.434 134.566 164.422
155.353 133.56 165.903
156.558 133.915 164.335
155.326 135.397 163.128
157.275 133.716 163.337
156.313 135.155 168.084
155.579 136.068 168.162
156.343 135.666 168.952
154.753 137.027 168.224
156.202 136.087 169.849
152.016 137.192 166.399
151.66 136.644 165.477
151.132 137.648 165.681
152.965 136.933 163.732
152.972 137.754 166.843
151.29 138.835 165.423
151.012 138.598 164.446
163.926 146.106 169.174
162.273 146.394 170.721
162.129 146.405 168.744
160.047 145.109 171.82
161.947 144.369 172.382
164.608 144.916 169.52
164.077 145.573 168.382
161.879 146.441 166.844
160.888 145.65 168.002
163.802 143.226 172.457
165.115 143.666 170.799
164.614 141.914 171.931
165.126 143.281 169.615
161.634 142.274 173.326
164.152 140.321 172.849
165.151 140.822 171.447
164.072 146.212 166.659
163.043 147.341 165.786
163.44 146.507 165.414
161.785 146.386 165.484
164.784 144.89 167.201
163.204 145.412 165.26
163.08 146.367 164.119
160.222 144.761 168.757
158.949 144.939 170.737
159.669 143.998 168.837
158.457 143.633 172.235
160.839 144.46 166.994
159.406 143.596 167.717
158.888 143.395 168.8
158.663 140.357 173.291
158.62 139.01 173.148
157.598 139.623 172.528
158.517 138.05 172.463
159.578 138.498 173.623
159.904 141.51 173.417
158.305 142.085 172.946
156.897 140.495 171.495
156.282 138.966 171.944
161.215 138.755 174.212
161.595 140.446 173.977
162.938 139.261 173.751
160.844 137.386 174.091
163.819 138.664 173.012
157.515 142.515 171.708
157.166 141.682 170.813
157.691 142.737 169.883
155.922 140.566 170.829
157.273 142.518 168.999
156.698 137.552 172.044
157.918 137.209 171.989
157.316 136.634 171.488
159.066 136.839 172.083
155.435 138.097 171.407
157.016 136.268 170.661
157.647 135.716 170.91
164.097 138.061 156.11
164.812 139.09 155.969
163.657 140.176 155.422
165.99 140.035 156.135
165.18 138.496 157.026
164.402 136.053 157.099
163.162 137.054 156.317
162.81 141.429 154.317
163.795 141.951 154.867
165.029 136.986 158.176
165.378 135.628 157.956
165.867 135.377 158.74
164.871 134.484 157.741
165.659 137.978 158.09
165.789 135.435 159.316
166.549 134.127 159.01
161.684 138.551 155.573
161.643 140.77 154.433
160.126 139.978 154.601
161.386 143.086 153.442
161.807 136.414 156.557
158.545 139.066 155.092
158.499 140.916 154.038
164.631 142.413 155.15
165.616 141.522 155.702
165.435 142.959 155.461
166.804 140.794 156.507
163.887 143.81 154.083
165.543 144.065 155.29
165.808 142.965 156.428
161.838 131.07 159.796
161.712 132.651 158.481
159.562 132.511 158.912
161.564 134.595 157.371
163.417 133.359 157.977
163.755 130.247 160.464
161.659 130.96 161.121
157.834 132.937 159.911
157.665 134.058 158.448
165.175 132.915 158.457
165.434 131.036 159.809
166.298 132.782 159.249
164.847 130.773 161.097
166.042 133.166 160.306
159.624 131.6 161.718
158.144 132.556 161.132
158.399 132.399 162.34
156.831 133.697 160.61
161.304 130.614 162.675
158.845 132.324 163.369
157.653 132.997 162.92
157.843 135.59 156.804
160.055 135.991 156.686
158.474 137.325 155.97
156.379 135.592 157.908
156.655 138.567 155.374
164.146 141.69 167.874
164.609 142.698 167.74
164.273 142.4 167.021
165.213 143.867 167.48
164.987 143.207 168.499
164.375 140.802 168.719
163.991 140.73 167.922
164.124 142.301 165.751
163.983 143.089 165.945
164.733 142.306 169.25
164.689 141.243 169.333
165.063 141.288 170.067
163.969 140.806 166.701
164.091 141.52 165.515
164.194 140.563 165.33
163.829 143.889 166.03
164.298 144.384 166.594
163.5 144.682 165.746
160.311 145.392 163.968
159.639 145.61 162.875
159.656 147.128 162.345
158.365 145.623 162.124
159.26 144.555 163.285
160.822 144.662 165.545
160.957 145.551 165.052
160.651 148.125 161.348
159.41 148.358 160.797
159.706 144.06 164.877
160.442 144.234 165.966
159.81 143.832 166.379
161.253 146.423 164.215
161.423 147.589 162.372
162.245 146.757 163.547
158.288 148.115 160.409
157.475 146.804 161.272
157.317 147.557 160.139
164.856 139.017 160.573
165.599 139.977 160.175
165.491 139.509 159.421
165.983 141.087 159.832
165.794 140.45 160.972
164.634 138.641 161.553
164.476 137.974 161.119
165.889 138.868 158.614
166.287 140.078 158.073
165.002 139.93 162.144
164.992 139.043 162.314
164.141 139.592 163.208
164.999 137.186 160.46
165.549 137.417 159.302
165.238 136.241 159.964
166.295 141.391 157.648
165.939 141.719 158.596
165.705 142.258 157.619
160.845 147.694 152.919
158.846 147.561 152.494
160.864 146.629 152.598
157.561 146.365 152.831
157.874 146.798 153.856
160.404 147.066 154.885
162.007 147.184 154.215
162.458 145.204 153.47
161.458 144.975 152.783
157.733 147.168 155.231
158.8 147.318 155.817
157.486 147.604 156.689
163.524 146.241 154.116
164.021 145.428 153.577
164.585 145.152 154.532
159.706 144.307 152.691
157.492 144.914 152.504
158.205 142.922 153.101
163.223 133.484 173
161.336 133.631 172.571
160.961 135.267 172.396
160.58 133.725 171.627
162.035 131.77 172.638
164.293 133.439 171.801
163.646 134.97 172.051
160.574 136.154 173.48
160.292 136.011 172.442
163.558 131.516 171.691
164.361 132.786 171.125
163.482 132.407 170.43
164.233 135.997 172.678
162.785 136.162 173.987
163.779 137.313 173.217
159.629 135.639 171.605
159.943 134.784 171.137
158.971 135.094 171.236
154.46 138.851 168.251
154.814 139.945 167.635
154.585 139.205 169.219
155.191 140.885 166.995
154.616 140.46 166.264
154.06 138.389 167.498
154.522 137.793 168.602
154.643 138.648 170.701
154.793 139.685 170.565
153.697 139.878 165.907
153.394 138.843 166.567
152.336 139.399 165.889
155.25 137.227 169.378
155.137 137.57 170.493
156.11 136.801 170.209
155.709 140.897 169.467
155.918 141.378 167.829
156.735 141.996 168.448
161.951 131.485 164.968
162.899 131.878 164.448
163.065 131.023 163.846
163.937 132.476 163.9
162.307 132.814 165.151
161.318 131.802 166.275
160.906 131.555 165.476
162.444 130.242 163.399
164.113 130.707 162.708
162.365 132.387 166.395
161.725 131.976 166.969
162.514 132.354 167.376
160.403 131.455 164.889
160.779 130.813 163.841
159.684 131.811 164.104
165.026 131.435 162.426
164.327 132.731 162.861
165.375 132.887 161.477
154.104 137.752 159.561
154.629 136.967 160.681
155.007 136.598 159.577
155.106 136.048 161.932
153.911 137.057 162.109
153.732 139.023 159.515
153.882 138.891 158.308
155.53 136.172 158.639
155.542 135.034 160.06
152.788 137.713 162.506
152.601 138.847 161.151
151.654 138.553 162.849
154.268 138.681 157.156
155.35 137.262 157.358
155.545 138.639 156.055
156.054 134.371 161.323
155.838 134.973 162.173
156.596 133.765 162.587
POLYGONS 1280  5120
3 164 162 163
3 163 44 164
3 162 43 163
3 164 42 162
3 166 165 163
3 163 43 166
3 165 44 163
3 166 14 165
3 168 167 162
3 162 42 168
3 167 43 162
3 168 13 167
3 170 169 164
3 164 44 170
3 169 42 164
3 170 12 169
3 173 171 172
3 172 46 173
3 171 43 172
3 173 45 171
3 167 174 172
3 172 43 167
3 174 46 172
3 167 13 174
3 175 166 171
3 171 45 175
3 166 43 171
3 175 14 166
3 177 176 173
3 173 46 177
3 176 45 173
3 177 4 176
3 180 178 179
3 179 48 180
3 178 42 179
3 180 47 178
3 169 181 179
3 179 42 169
3 181 48 179
3 169 12 181
3 182 168 178
3 178 47 182
3 168 42 178
3 182 13 168
3 184 183 180
3 180 48 184
3 183 47 180
3 184 8 183
3 187 185 186
3 186 50 187
3 185 44 186
3 187 49 185
3 165 188 186
3 186 44 165
3 188 50 186
3 165 14 188
3 189 170 185
3 185 49 189
3 170 44 185
3 189 12 170
3 191 190 187
3 187 50 191
3 190 49 187
3 191 7 190
3 194 192 193
3 193 53 194
3 192 52 193
3 194 51 192
3 196 195 193
3 193 52 196
3 195 53 193
3 196 16 195
3 198 197 192
3 192 51 198
3 197 52 192
3 198 14 197
3 200 199 194
3 194 53 200
3 199 51 194
3 200 15 199
3 203 201 202
3 202 45 203
3 201 52 202
3 203 54 201
3 197 175 202
3 202 52 197
3 175 45 202
3 197 14 175
3 204 196 201
3 201 54 204
3 196 52 201
3 204 16 196
3 176 205 203
3 203 45 176
3 205 54 203
3 176 4 205
3 208 206 207
3 207 55 208
3 206 51 207
3 208 50 206
3 199 209 207
3 207 51 199
3 209 55 207
3 199 15 209
3 188 198 206
3 206 50 188
3 198 51 206
3 188 14 198
3 210 191 208
3 208 55 210
3 191 50 208
3 210 7 191
3 213 211 212
3 212 57 213
3 211 53 212
3 213 56 211
3 195 214 212
3 212 53 195
3 214 57 212
3 195 16 214
3 215 200 211
3 211 56 215
3 200 53 211
3 215 15 200
3 217 216 213
3 213 57 217
3 216 56 213
3 217 9 216
3 220 218 219
3 219 60 220
3 218 59 219
3 220 58 218
3 222 221 219
3 219 59 222
3 221 60 219
3 222 19 221
3 224 223 218
3 218 58 224
3 223 59 218
3 224 18 223
3 226 225 220
3 220 60 226
3 225 58 220
3 226 17 225
3 229 227 228
3 228 62 229
3 227 59 228
3 229 61 227
3 223 230 228
3 228 59 223
3 230 62 228
3 223 18 230
3 231 222 227
3 227 61 231
3 222 59 227
3 231 19 222
3 233 232 229
3 229 62 233
3 232 61 229
3 233 5 232
3 236 234 235
3 235 64 236
3 234 58 235
3 236 63 234
3 225 237 235
3 235 58 225
3 237 64 235
3 225 17 237
3 238 224 234
3 234 63 238
3 224 58 234
3 238 18 224
3 240 239 236
3 236 64 240
3 239 63 236
3 240 6 239
3 243 241 242
3 242 66 243
3 241 60 242
3 243 65 241
3 221 244 242
3 242 60 221
3 244 66 242
3 221 19 244
3 245 226 241
3 241 65 245
3 226 60 241
3 245 17 226
3 247 246 243
3 243 66 247
3 246 65 243
3 247 11 246
3 250 248 249
3 249 69 250
3 248 68 249
3 250 67 248
3 252 251 249
3 249 68 252
3 251 69 249
3 252 18 251
3 254 253 248
3 248 67 254
3 253 68 248
3 254 21 253
3 256 255 250
3 250 69 256
3 255 67 250
3 256 20 255
3 259 257 258
3 258 70 259
3 257 68 258
3 259 62 257
3 253 260 258
3 258 68 253
3 260 70 258
3 253 21 260
3 230 252 257
3 257 62 230
3 252 68 257
3 230 18 252
3 261 233 259
3 259 70 261
3 233 62 259
3 261 5 233
3 264 262 263
3 263 72 264
3 262 67 263
3 264 71 262
3 255 265 263
3 263 67 255
3 265 72 263
3 255 20 265
3 266 254 262
3 262 71 266
3 254 67 262
3 266 21 254
3 268 267 264
3 264 72 268
3 267 71 264
3 268 10 267
3 271 269 270
3 270 63 271
3 269 69 270
3 271 73 269
3 251 238 270
3 270 69 251
3 238 63 270
3 251 18 238
3 272 256 269
3 269 73 272
3 256 69 269
3 272 20 256
3 239 273 271
3 271 63 239
3 273 73 271
3 239 6 273
3 276 274 275
3 275 76 276
3 274 75 275
3 276 74 274
3 278 277 275
3 275 75 278
3 277 76 275
3 278 24 277
3 280 279 274
3 274 74 280
3 279 75 274
3 280 23 279
3 282 281 276
3 276 76 282
3 281 74 276
3 282 22 281
3 285 283 284
3 284 78 285
3 283 75 284
3 285 77 283
3 279 286 284
3 284 75 279
3 286 78 284
3 279 23 286
3 287 278 283
3 283 77 287
3 278 75 283
3 287 24 278
3 289 288 285
3 285 78 289
3 288 77 285
3 289 0 288
3 292 290 291
3 291 80 292
3 290 74 291
3 292 79 290
3 281 293 291
3 291 74 281
3 293 80 291
3 281 22 293
3 294 280 290
3 290 79 294
3 280 74 290
3 294 23 280
3 296 295 292
3 292 80 296
3 295 79 292
3 296 4 295
3 299 297 298
3 298 82 299
3 297 76 298
3 299 81 297
3 277 300 298
3 298 76 277
3 300 82 298
3 277 24 300
3 301 282 297
3 297 81 301
3 282 76 297
3 301 22 282
3 303 302 299
3 299 82 303
3 302 81 299
3 303 3 302
3 306 304 305
3 305 85 306
3 304 84 305
3 306 83 304
3 308 307 305
3 305 84 308
3 307 85 305
3 308 26 307
3 310 309 304
3 304 83 310
3 309 84 304
3 310 24 309
3 312 311 306
3 306 85 312
3 311 83 306
3 312 25 311
3 315 313 314
3 314 77 315
3 313 84 314
3 315 86 313
3 309 287 314
3 314 84 309
3 287 77 314
3 309 24 287
3 316 308 313
3 313 86 316
3 308 84 313
3 316 26 308
3 288 317 315
3 315 77 288
3 317 86 315
3 288 0 317
3 320 318 319
3 319 87 320
3 318 83 319
3 320 82 318
3 311 321 319
3 319 83 311
3 321 87 319
3 311 25 321
3 300 310 318
3 318 82 300
3 310 83 318
3 300 24 310
3 322 303 320
3 320 87 322
3 303 82 320
3 322 3 303
3 325 323 324
3 324 89 325
3 323 85 324
3 325 88 323
3 307 326 324
3 324 85 307
3 326 89 324
3 307 26 326
3 327 312 323
3 323 88 327
3 312 85 323
3 327 25 312
3 329 328 325
3 325 89 329
3 328 88 325
3 329 5 328
3 332 330 331
3 331 92 332
3 330 91 331
3 332 90 330
3 334 333 331
3 331 91 334
3 333 92 331
3 334 29 333
3 336 335 330
3 330 90 336
3 335 91 330
3 336 28 335
3 338 337 332
3 332 92 338
3 337 90 332
3 338 27 337
3 341 339 340
3 340 94 341
3 339 91 340
3 341 93 339
3 335 342 340
3 340 91 335
3 342 94 340
3 335 28 342
3 343 334 339
3 339 93 343
3 334 91 339
3 343 29 334
3 345 344 341
3 341 94 345
3 344 93 341
3 345 2 344
3 348 346 347
3 347 96 348
3 346 90 347
3 348 95 346
3 337 349 347
3 347 90 337
3 349 96 347
3 337 27 349
3 350 336 346
3 346 95 350
3 336 90 346
3 350 28 336
3 352 351 348
3 348 96 352
3 351 95 348
3 352 7 351
3 355 353 354
3 354 98 355
3 353 92 354
3 355 97 353
3 333 356 354
3 354 92 333
3 356 98 354
3 333 29 356
3 357 338 353
3 353 97 357
3 338 92 353
3 357 27 338
3 359 358 355
3 355 98 359
3 358 97 355
3 359 1 358
3 362 360 361
3 361 101 362
3 360 100 361
3 362 99 360
3 364 363 361
3 361 100 364
3 363 101 361
3 364 31 363
3 366 365 360
3 360 99 366
3 365 100 360
3 366 29 365
3 368 367 362
3 362 101 368
3 367 99 362
3 368 30 367
3 371 369 370
3 370 93 371
3 369 100 370
3 371 102 369
3 365 343 370
3 370 100 365
3 343 93 370
3 365 29 343
3 372 364 369
3 369 102 372
3 364 100 369
3 372 31 364
3 344 373 371
3 371 93 344
3 373 102 371
3 344 2 373
3 376 374 375
3 375 103 376
3 374 99 375
3 376 98 374
3 367 377 375
3 375 99 367
3 377 103 375
3 367 30 377
3 356 366 374
3 374 98 356
3 366 99 374
3 356 29 366
3 378 359 376
3 376 103 378
3 359 98 376
3 378 1 359
3 381 379 380
3 380 105 381
3 379 101 380
3 381 104 379
3 363 382 380
3 380 101 363
3 382 105 380
3 363 31 382
3 383 368 379
3 379 104 383
3 368 101 379
3 383 30 368
3 385 384 381
3 381 105 385
3 384 104 381
3 385 6 384
3 388 386 387
3 387 108 388
3 386 107 387
3 388 106 386
3 390 389 387
3 387 107 390
3 389 108 387
3 390 34 389
3 392 391 386
3 386 106 392
3 391 107 386
3 392 33 391
3 394 393 388
3 388 108 394
3 393 106 388
3 394 32 393
3 397 395 396
3 396 110 397
3 395 107 396
3 397 109 395
3 391 398 396
3 396 107 391
3 398 110 396
3 391 33 398
3 399 390 395
3 395 109 399
3 390 107 395
3 399 34 390
3 401 400 397
3 397 110 401
3 400 109 397
3 401 8 400
3 404 402 403
3 403 112 404
3 402 106 403
3 404 111 402
3 393 405 403
3 403 106 393
3 405 112 403
3 393 32 405
3 406 392 402
3 402 111 406
3 392 106 402
3 406 33 392
3 408 407 404
3 404 112 408
3 407 111 404
3 408 0 407
3 411 409 410
3 410 114 411
3 409 108 410
3 411 113 409
3 389 412 410
3 410 108 389
3 412 114 410
3 389 34 412
3 413 394 409
3 409 113 413
3 394 108 409
3 413 32 394
3 415 414 411
3 411 114 415
3 414 113 411
3 415 11 414
3 418 416 417
3 417 117 418
3 416 116 417
3 418 115 416
3 420 419 417
3 417 116 420
3 419 117 417
3 420 36 419
3 422 421 416
3 416 115 422
3 421 116 416
3 422 34 421
3 424 423 418
3 418 117 424
3 423 115 418
3 424 35 423
3 427 425 426
3 426 109 427
3 425 116 426
3 427 118 425
3 421 399 426
3 426 116 421
3 399 109 426
3 421 34 399
3 428 420 425
3 425 118 428
3 420 116 425
3 428 36 420
3 400 429 427
3 427 109 400
3 429 118 427
3 400 8 429
3 432 430 431
3 431 119 432
3 430 115 431
3 432 114 430
3 423 433 431
3 431 115 423
3 433 119 431
3 423 35 433
3 412 422 430
3 430 114 412
3 422 115 430
3 412 34 422
3 434 415 432
3 432 119 434
3 415 114 432
3 434 11 415
3 437 435 436
3 436 121 437
3 435 117 436
3 437 120 435
3 419 438 436
3 436 117 419
3 438 121 436
3 419 36 438
3 439 424 435
3 435 120 439
3 424 117 435
3 439 35 424
3 441 440 437
3 437 121 441
3 440 120 437
3 441 1 440
3 444 442 443
3 443 124 444
3 442 123 443
3 444 122 442
3 446 445 443
3 443 123 446
3 445 124 443
3 446 39 445
3 448 447 442
3 442 122 448
3 447 123 442
3 448 38 447
3 450 449 444
3 444 124 450
3 449 122 444
3 450 37 449
3 453 451 452
3 452 126 453
3 451 123 452
3 453 125 451
3 447 454 452
3 452 123 447
3 454 126 452
3 447 38 454
3 455 446 451
3 451 125 455
3 446 123 451
3 455 39 446
3 457 456 453
3 453 126 457
3 456 125 453
3 457 9 456
3 460 458 459
3 459 128 460
3 458 122 459
3 460 127 458
3 449 461 459
3 459 122 449
3 461 128 459
3 449 37 461
3 462 448 458
3 458 127 462
3 448 122 458
3 462 38 448
3 464 463 460
3 460 128 464
3 463 127 460
3 464 10 463
3 467 465 466
3 466 130 467
3 465 124 466
3 467 129 465
3 445 468 466
3 466 124 445
3 468 130 466
3 445 39 468
3 469 450 465
3 465 129 469
3 450 124 465
3 469 37 450
3 471 470 467
3 467 130 471
3 470 129 467
3 471 3 470
3 474 472 473
3 473 133 474
3 472 132 473
3 474 131 472
3 476 475 473
3 473 132 476
3 475 133 473
3 476 38 475
3 478 477 472
3 472 131 478
3 477 132 472
3 478 41 477
3 480 479 474
3 474 133 480
3 479 131 474
3 480 40 479
3 483 481 482
3 482 134 483
3 481 132 482
3 483 126 481
3 477 484 482
3 482 132 477
3 484 134 482
3 477 41 484
3 454 476 481
3 481 126 454
3 476 132 481
3 454 38 476
3 485 457 483
3 483 134 485
3 457 126 483
3 485 9 457
3 488 486 487
3 487 136 488
3 486 131 487
3 488 135 486
3 479 489 487
3 487 131 479
3 489 136 487
3 479 40 489
3 490 478 486
3 486 135 490
3 478 131 486
3 490 41 478
3 492 491 488
3 488 136 492
3 491 135 488
3 492 2 491
3 495 493 494
3 494 127 495
3 493 133 494
3 495 137 493
3 475 462 494
3 494 133 475
3 462 127 494
3 475 38 462
3 496 480 493
3 493 137 496
3 480 133 493
3 496 40 480
3 463 497 495
3 495 127 463
3 497 137 495
3 463 10 497
3 500 498 499
3 499 140 500
3 498 139 499
3 500 138 498
3 502 501 499
3 499 139 502
3 501 140 499
3 502 33 501
3 504 503 498
3 498 138 504
3 503 139 498
3 504 13 503
3 506 505 500
3 500 140 506
3 505 138 500
3 506 23 505
3 509 507 508
3 508 47 509
3 507 139 508
3 509 110 507
3 503 182 508
3 508 139 503
3 182 47 508
3 503 13 182
3 398 502 507
3 507 110 398
3 502 139 507
3 398 33 502
3 183 401 509
3 509 47 183
3 401 110 509
3 183 8 401
3 512 510 511
3 511 79 512
3 510 138 511
3 512 46 510
3 505 294 511
3 511 138 505
3 294 79 511
3 505 23 294
3 174 504 510
3 510 46 174
3 504 138 510
3 174 13 504
3 295 177 512
3 512 79 295
3 177 46 512
3 295 4 177
3 515 513 514
3 514 111 515
3 513 140 514
3 515 78 513
3 501 406 514
3 514 140 501
3 406 111 514
3 501 33 406
3 286 506 513
3 513 78 286
3 506 140 513
3 286 23 506
3 407 289 515
3 515 111 407
3 289 78 515
3 407 0 289
3 518 516 517
3 517 143 518
3 516 142 517
3 518 141 516
3 520 519 517
3 517 142 520
3 519 143 517
3 520 19 519
3 522 521 516
3 516 141 522
3 521 142 516
3 522 32 521
3 524 523 518
3 518 143 524
3 523 141 518
3 524 26 523
3 527 525 526
3 526 113 527
3 525 142 526
3 527 66 525
3 521 413 526
3 526 142 521
3 413 113 526
3 521 32 413
3 244 520 525
3 525 66 244
3 520 142 525
3 244 19 520
3 414 247 527
3 527 113 414
3 247 66 527
3 414 11 247
3 530 528 529
3 529 86 530
3 528 141 529
3 530 112 528
3 523 316 529
3 529 141 523
3 316 86 529
3 523 26 316
3 405 522 528
3 528 112 405
3 522 141 528
3 405 32 522
3 317 408 530
3 530 86 317
3 408 112 530
3 317 0 408
3 533 531 532
3 532 61 533
3 531 143 532
3 533 89 531
3 519 231 532
3 532 143 519
3 231 61 532
3 519 19 231
3 326 524 531
3 531 89 326
3 524 143 531
3 326 26 524
3 232 329 533
3 533 61 232
3 329 89 533
3 232 5 329
3 536 534 535
3 535 146 536
3 534 145 535
3 536 144 534
3 538 537 535
3 535 145 538
3 537 146 535
3 538 22 537
3 540 539 534
3 534 144 540
3 539 145 534
3 540 16 539
3 542 541 536
3 536 146 542
3 541 144 536
3 542 39 541
3 545 543 544
3 544 54 545
3 543 145 544
3 545 80 543
3 539 204 544
3 544 145 539
3 204 54 544
3 539 16 204
3 293 538 543
3 543 80 293
3 538 145 543
3 293 22 538
3 205 296 545
3 545 54 205
3 296 80 545
3 205 4 296
3 548 546 547
3 547 125 548
3 546 144 547
3 548 57 546
3 541 455 547
3 547 144 541
3 455 125 547
3 541 39 455
3 214 540 546
3 546 57 214
3 540 144 546
3 214 16 540
3 456 217 548
3 548 125 456
3 217 57 548
3 456 9 217
3 551 549 550
3 550 81 551
3 549 146 550
3 551 130 549
3 537 301 550
3 550 146 537
3 301 81 550
3 537 22 301
3 468 542 549
3 549 130 468
3 542 146 549
3 468 39 542
3 302 471 551
3 551 81 302
3 471 130 551
3 302 3 471
3 554 552 553
3 553 149 554
3 552 148 553
3 554 147 552
3 556 555 553
3 553 148 556
3 555 149 553
3 556 21 555
3 558 557 552
3 552 147 558
3 557 148 552
3 558 25 557
3 560 559 554
3 554 149 560
3 559 147 554
3 560 37 559
3 563 561 562
3 562 88 563
3 561 148 562
3 563 70 561
3 557 327 562
3 562 148 557
3 327 88 562
3 557 25 327
3 260 556 561
3 561 70 260
3 556 148 561
3 260 21 556
3 328 261 563
3 563 88 328
3 261 70 563
3 328 5 261
3 566 564 565
3 565 129 566
3 564 147 565
3 566 87 564
3 559 469 565
3 565 147 559
3 469 129 565
3 559 37 469
3 321 558 564
3 564 87 321
3 558 147 564
3 321 25 558
3 470 322 566
3 566 129 470
3 322 87 566
3 470 3 322
3 569 567 568
3 568 71 569
3 567 149 568
3 569 128 567
3 555 266 568
3 568 149 555
3 266 71 568
3 555 21 266
3 461 560 567
3 567 128 461
3 560 149 567
3 461 37 560
3 267 464 569
3 569 71 267
3 464 128 569
3 267 10 464
3 572 570 571
3 571 152 572
3 570 151 571
3 572 150 570
3 574 573 571
3 571 151 574
3 573 152 571
3 574 27 573
3 576 575 570
3 570 150 576
3 575 151 570
3 576 12 575
3 578 577 572
3 572 152 578
3 577 150 572
3 578 36 577
3 581 579 580
3 580 49 581
3 579 151 580
3 581 96 579
3 575 189 580
3 580 151 575
3 189 49 580
3 575 12 189
3 349 574 579
3 579 96 349
3 574 151 579
3 349 27 574
3 190 352 581
3 581 49 190
3 352 96 581
3 190 7 352
3 584 582 583
3 583 118 584
3 582 150 583
3 584 48 582
3 577 428 583
3 583 150 577
3 428 118 583
3 577 36 428
3 181 576 582
3 582 48 181
3 576 150 582
3 181 12 576
3 429 184 584
3 584 118 429
3 184 48 584
3 429 8 184
3 587 585 586
3 586 97 587
3 585 152 586
3 587 121 585
3 573 357 586
3 586 152 573
3 357 97 586
3 573 27 357
3 438 578 585
3 585 121 438
3 578 152 585
3 438 36 578
3 358 441 587
3 587 97 358
3 441 121 587
3 358 1 441
3 590 588 589
3 589 155 590
3 588 154 589
3 590 153 588
3 592 591 589
3 589 154 592
3 591 155 589
3 592 17 591
3 594 593 588
3 588 153 594
3 593 154 588
3 594 30 593
3 596 595 590
3 590 155 596
3 595 153 590
3 596 35 595
3 599 597 598
3 598 104 599
3 597 154 598
3 599 64 597
3 593 383 598
3 598 154 593
3 383 104 598
3 593 30 383
3 237 592 597
3 597 64 237
3 592 154 597
3 237 17 592
3 384 240 599
3 599 104 384
3 240 64 599
3 384 6 240
3 602 600 601
3 601 120 602
3 600 153 601
3 602 103 600
3 595 439 601
3 601 153 595
3 439 120 601
3 595 35 439
3 377 594 600
3 600 103 377
3 594 153 600
3 377 30 594
3 440 378 602
3 602 120 440
3 378 103 602
3 440 1 378
3 605 603 604
3 604 65 605
3 603 155 604
3 605 119 603
3 591 245 604
3 604 155 591
3 245 65 604
3 591 17 245
3 433 596 603
3 603 119 433
3 596 155 603
3 433 35 596
3 246 434 605
3 605 65 246
3 434 119 605
3 246 11 434
3 608 606 607
3 607 158 608
3 606 157 607
3 608 156 606
3 610 609 607
3 607 157 610
3 609 158 607
3 610 15 609
3 612 611 606
3 606 156 612
3 611 157 606
3 612 28 611
3 614 613 608
3 608 158 614
3 613 156 608
3 614 41 613
3 617 615 616
3 616 95 617
3 615 157 616
3 617 55 615
3 611 350 616
3 616 157 611
3 350 95 616
3 611 28 350
3 209 610 615
3 615 55 209
3 610 157 615
3 209 15 610
3 351 210 617
3 617 95 351
3 210 55 617
3 351 7 210
3 620 618 619
3 619 135 620
3 618 156 619
3 620 94 618
3 613 490 619
3 619 156 613
3 490 135 619
3 613 41 490
3 342 612 618
3 618 94 342
3 612 156 618
3 342 28 612
3 491 345 620
3 620 135 491
3 345 94 620
3 491 2 345
3 623 621 622
3 622 56 623
3 621 158 622
3 623 134 621
3 609 215 622
3 622 158 609
3 215 56 622
3 609 15 215
3 484 614 621
3 621 134 484
3 614 158 621
3 484 41 614
3 216 485 623
3 623 56 216
3 485 134 623
3 216 9 485
3 626 624 625
3 625 161 626
3 624 160 625
3 626 159 624
3 628 627 625
3 625 160 628
3 627 161 625
3 628 31 627
3 630 629 624
3 624 159 630
3 629 160 624
3 630 20 629
3 632 631 626
3 626 161 632
3 631 159 626
3 632 40 631
3 635 633 634
3 634 73 635
3 633 160 634
3 635 105 633
3 629 272 634
3 634 160 629
3 272 73 634
3 629 20 272
3 382 628 633
3 633 105 382
3 628 160 633
3 382 31 628
3 273 385 635
3 635 73 273
3 385 105 635
3 273 6 385
3 638 636 637
3 637 137 638
3 636 159 637
3 638 72 636
3 631 496 637
3 637 159 631
3 496 137 637
3 631 40 496
3 265 630 636
3 636 72 265
3 630 159 636
3 265 20 630
3 497 268 638
3 638 137 497
3 268 72 638
3 497 10 268
3 641 639 640
3 640 102 641
3 639 161 640
3 641 136 639
3 627 372 640
3 640 161 627
3 372 102 640
3 627 31 372
3 489 632 639
3 639 136 489
3 632 161 639
3 489 40 632
3 373 492 641
3 641 102 373
3 492 136 641
3 373 2 492
