# vtk DataFile Version 3.0
this file was written using fslvtkio
ASCII
DATASET POLYDATA
POINTS 642 float
151.024 146.133 132.187
145.988 142.838 133.07
150.446 139.873 131.907
155.404 143.524 130.449
154.064 144.372 134.723
151.438 144.323 129.268
148.305 142.254 129.913
150.553 141.763 135.302
148.305 145.989 134.758
154.59 140.852 132.549
153.971 140.763 128.548
145.961 146.567 130.464
149.343 143.898 135.553
151.14 145.515 135.291
152.597 143.203 135.719
152.814 141.125 134.119
154.99 142.532 134.079
146.256 144.339 129.959
149.976 143.261 128.936
148.732 144.751 130.749
151.195 141.276 129.056
153.095 142.802 128.667
155.449 144.152 132.762
152.537 145.7 133.606
153.774 145.167 131.331
153.992 144.015 129.332
151.208 145.305 130.574
148.122 142.121 134.626
150.449 140.493 133.717
148.024 141.069 132.555
146.293 142.627 130.981
149.036 140.29 130.355
148.494 146.389 131.74
149.499 147.018 133.817
146 146.874 132.866
144.671 145.169 131.318
146.707 144.512 134.079
156.41 142.806 128.011
155.112 140.217 130.172
155.771 142.298 131.376
152.469 139.754 130.212
152.947 139.572 132.251
150.47 144.725 135.79
152.146 144.381 136.024
151.05 143.48 135.764
153.719 143.735 135.609
152.577 145.034 135.165
149.812 145.937 135.413
148.862 144.948 135.107
149.929 142.807 135.548
151.658 142.338 135.579
152.826 142.016 135.179
153.88 142.768 135.073
153.936 141.809 134.196
154.72 143.472 134.417
151.72 141.326 134.815
153.764 140.897 133.358
154.789 141.657 133.326
148.198 143.684 129.825
149.271 143.929 129.947
147.477 144.629 130.137
150.174 144.345 130.223
150.699 143.792 129.028
149.143 142.786 129.478
147.205 143.276 129.759
146.052 145.556 130
147.349 145.536 130.637
152.129 142.05 128.785
151.238 143.134 128.191
150.238 142.238 128.537
152.205 143.839 128.25
153.618 141.772 128.578
152.685 140.925 128.888
149.67 141.633 129.248
154.104 144.925 133.194
153.248 145.301 132.52
154.798 144.904 132.013
152.396 145.491 131.863
151.766 145.851 132.953
153.322 145.068 134.189
154.868 144.327 133.772
155.569 143.867 131.609
154.843 144.717 130.784
153.893 144.984 130.119
152.431 145.053 131.021
152.766 144.935 129.866
151.111 145.866 131.317
154.678 143.738 129.835
152.763 144.596 128.86
151.344 144.664 130.056
149.188 141.106 134.266
149.074 140.385 133.399
147.864 141.373 133.737
149.116 140.182 132.286
150.383 140.073 132.882
150.457 141.024 134.597
149.327 142.026 135.079
147 142.489 133.98
146.906 141.864 132.898
147.195 141.922 131.752
148.569 140.851 131.454
147.687 141.484 130.777
149.683 139.904 131.167
145.958 142.607 132.008
147.063 142.284 130.164
148.628 141.239 130.001
148.795 147.062 132.677
147.695 147.174 133.42
146.984 147.161 132.045
147.16 146.352 133.876
148.878 146.777 134.574
150.254 146.602 132.975
149.791 146.216 132.035
147.406 146.351 131.23
145.444 146.895 131.447
144.974 146.157 131.913
146.242 145.641 133.129
145.581 144.825 132.713
147.592 145.181 134.109
144.547 145.949 130.248
145.332 143.854 132.403
146.263 143.661 133.726
156.192 141.345 129.033
155.983 141.098 130.861
156.51 142.296 129.778
155.319 141.49 132.048
154.977 140.349 131.527
154.645 140.264 129.123
155.222 141.85 127.779
155.908 143.107 129.283
155.768 143.022 130.956
152.865 139.264 131.255
154.167 139.572 131.338
154.005 139.412 130.136
153.791 140.155 132.425
151.752 139.575 132.175
151.552 139.846 131.057
153.155 140.054 129.372
152.034 145.93 134.554
150.418 146.444 134.626
151.007 146.469 133.723
149.83 145.877 131.23
148.58 145.479 131.192
149.86 145.102 130.738
155.37 142.358 132.774
155.574 143.294 133.454
155.663 143.12 132.225
155.184 143.199 128.736
153.432 143.582 128.844
154.72 142.568 128.2
147.992 144.141 134.997
148.473 143.013 135.402
147.233 143.278 134.659
145.227 143.625 131.398
145.986 143.348 130.21
145 144.76 130.342
151.634 140.055 133.067
151.727 140.683 134.023
152.768 140.361 133.144
151.766 140.377 129.599
149.994 140.735 129.653
150.638 140.175 130.463
151.337 144.517 135.936
151.585 143.929 135.96
150.791 144.089 135.846
151.843 143.344 135.812
152.33 143.783 135.983
151.696 144.94 135.819
150.971 145.125 135.837
149.981 144.372 135.59
150.195 143.795 135.676
152.813 144.112 135.821
152.396 144.776 135.658
153.009 144.392 135.482
151.9 145.31 135.345
153.139 143.525 135.732
153.827 144.123 135.271
153.215 144.492 134.976
150.207 145.328 135.682
149.645 144.878 135.532
149.484 145.441 135.487
149.152 144.395 135.323
150.565 145.68 135.48
149.093 145.899 135.156
148.739 145.431 134.924
150.447 143.196 135.658
151.345 142.896 135.728
150.79 142.634 135.626
152.115 142.749 135.692
149.674 143.379 135.631
150.373 142.26 135.499
151.128 142.077 135.528
153.342 142.384 135.101
153.949 142.216 134.678
153.402 141.873 134.69
154.445 142.193 134.237
154.445 142.591 134.672
153.272 142.929 135.468
152.724 142.594 135.45
152.853 141.597 134.71
153.303 141.522 134.254
154.443 143.073 134.821
153.833 143.195 135.432
154.305 143.636 135.17
154.949 142.927 134.359
154.508 144.008 134.727
152.232 142.182 135.326
152.311 141.586 134.983
151.684 141.782 135.27
152.36 141.298 134.497
151.125 141.511 135.183
153.71 141.458 133.752
154.301 141.868 133.726
154.211 141.351 133.432
154.752 142.234 133.611
153.255 141.098 133.697
154.232 140.876 133.002
154.696 141.261 132.973
148.666 143.865 129.904
148.337 144.276 130.29
147.76 144.168 130.149
148.136 144.597 130.506
148.932 144.363 130.335
149.59 143.539 129.606
149.133 143.449 129.612
147.285 144.016 129.904
146.84 144.483 129.877
149.695 144.15 130.116
150.031 143.767 129.65
150.396 144.012 129.775
150.337 143.5 129.015
149.415 144.591 130.413
150.859 144.263 129.662
151.02 144.057 129.174
148.688 143.238 129.674
147.658 143.541 129.748
148.143 143.023 129.689
146.767 143.813 129.887
149.566 143.066 129.234
148.669 142.565 129.739
147.749 142.753 129.763
146.848 144.988 130.187
147.521 145.009 130.513
146.662 145.569 130.336
148.023 145.012 130.773
146.254 144.942 129.987
145.837 146.205 130.171
146.724 146.089 130.547
151.512 142.534 128.392
150.767 142.622 128.314
151.088 142.17 128.425
150.091 142.764 128.643
150.58 143.119 128.403
152.077 142.949 128.368
152.471 142.451 128.697
151.662 141.718 128.854
150.814 141.769 128.641
150.911 143.535 128.453
151.788 143.458 128.142
151.409 143.893 128.595
152.609 143.336 128.328
151.812 144.127 128.747
153.007 141.824 128.806
152.511 141.453 128.885
153.189 141.335 128.774
152.082 141.144 129.149
153.36 142.238 128.759
153.79 141.295 128.47
153.337 140.857 128.749
150.032 141.859 128.87
149.699 142.551 128.994
149.394 142.246 129.432
150.456 141.353 128.966
149.032 142.01 129.737
153.704 145.207 132.822
153.995 145.084 132.27
154.497 144.921 132.572
154.282 145.053 131.726
153.606 145.245 131.926
152.981 145.382 133.065
153.39 145.251 133.373
154.916 144.767 132.942
155.153 144.633 132.459
152.84 145.28 132.196
152.554 145.487 132.779
152.142 145.633 132.421
152.238 145.742 133.261
153.077 145.185 131.711
151.735 145.745 131.988
151.479 146.064 132.511
153.688 144.968 133.661
154.563 144.632 133.462
154.108 144.652 133.974
155.181 144.291 133.231
153.014 145.405 133.836
153.528 144.698 134.481
154.496 144.424 134.304
155.267 144.47 131.83
154.881 144.92 131.432
155.187 144.314 131.265
154.374 145.028 131.064
155.572 144.132 132.181
155.326 143.663 131.062
155.012 144.069 130.64
153.099 145.033 130.698
152.434 144.946 130.547
153.307 145.065 130.031
151.981 144.854 130.415
151.832 145.152 130.771
153.171 145.175 131.149
153.803 145.055 130.699
153.886 144.647 129.661
153.512 144.814 129.37
151.794 145.328 131.205
152.488 145.206 131.451
151.788 145.582 131.548
151.173 145.622 130.933
151.123 145.961 131.749
154.373 144.886 130.459
154.333 144.514 129.904
154.719 144.328 130.243
154.331 143.835 129.59
155.087 143.71 130.087
152.862 144.79 129.376
152.098 144.726 129.999
152.036 144.616 129.571
151.384 144.931 130.313
153.427 144.41 129.06
152.079 144.514 129.119
151.336 144.431 129.743
149.026 140.709 133.891
148.407 140.806 133.637
148.439 141.137 134.128
147.928 141.079 133.205
148.503 140.662 133.099
149.67 140.382 133.629
149.771 140.733 134.013
148.593 141.545 134.461
147.956 141.657 134.261
149.029 140.237 132.873
149.674 140.13 133.175
149.717 139.997 132.634
150.364 140.239 133.328
148.565 140.622 132.471
149.751 139.916 132.116
150.423 139.951 132.405
149.807 141.145 134.397
149.213 141.598 134.669
149.859 141.503 134.86
148.712 142.081 134.851
150.454 140.777 134.147
150.495 141.407 134.908
149.92 141.937 135.25
147.393 141.907 133.927
147.345 141.591 133.366
146.889 142.092 133.464
147.467 141.454 132.785
147.549 142.296 134.334
146.509 142.616 133.517
146.445 142.337 133.003
147.904 141.409 131.73
148.149 141.197 131.16
147.484 141.698 131.313
148.436 141.03 130.625
148.764 140.542 130.894
148.365 141.057 132.008
147.687 141.47 132.18
146.717 142.258 131.33
147.1 142.063 130.928
149.089 140.262 131.309
148.852 140.531 131.875
149.403 140.04 131.697
149.388 140.126 130.801
150.056 139.805 131.563
147.053 141.797 132.338
146.583 142.279 131.859
146.533 142.253 132.422
146.036 142.614 131.473
146.017 142.699 132.559
147.354 141.832 130.493
148.146 141.311 130.299
147.911 141.805 130.139
148.775 140.798 130.145
146.667 142.377 130.564
147.591 142.253 129.873
148.441 141.749 129.885
148.242 147.318 132.993
147.384 147.2 132.772
147.905 147.131 132.419
146.534 147.146 132.491
146.875 147.138 133.204
148.469 147.217 133.647
148.961 147.176 133.305
148.395 146.726 132.185
147.648 146.885 131.903
147.299 146.914 133.744
148.231 147.079 134.126
147.914 146.643 134.324
149.07 146.929 134.127
146.548 146.695 133.438
147.657 146.107 134.363
148.509 146.438 134.733
149.505 146.894 132.894
149.212 146.712 132.323
150.002 146.51 132.479
149.092 146.435 131.919
149.802 146.951 133.381
150.685 146.365 132.611
150.435 146.224 132.084
147.026 146.784 131.539
146.294 147.018 131.736
146.255 146.834 131.123
145.828 147.018 132.144
147.91 146.433 131.549
146.848 146.403 130.901
145.51 146.72 130.79
145.633 145.918 132.499
145.785 145.285 132.864
145.296 145.456 132.184
146.031 144.716 133.32
146.349 145.079 133.442
146.026 146.294 133.086
145.48 146.545 132.455
144.725 145.659 131.585
145.06 144.985 132.015
146.807 145.375 133.643
146.707 146.019 133.483
147.315 145.721 133.989
147.064 144.858 134.067
148.1 145.504 134.438
145.132 146.673 131.95
144.454 146.1 131.244
144.823 146.74 130.834
144.326 145.672 130.747
144.996 146.398 130.22
145.426 144.31 132.666
145.837 144.168 133.439
145.628 143.569 133.204
146.401 144.163 133.937
145.23 144.556 131.84
145.616 143.294 132.797
146.072 143.134 133.467
156.138 141.146 130.008
156.341 141.659 130.389
156.71 141.745 129.532
156.157 142.127 130.531
156.028 141.705 131.045
155.67 140.656 130.343
155.719 140.831 129.521
156.641 141.976 128.471
156.906 142.461 128.944
155.647 141.288 131.424
155.46 140.664 131.063
155.212 140.891 131.75
155.095 140.191 130.844
155.584 141.891 131.668
154.935 141.195 132.293
154.731 140.602 132.041
155.511 140.88 128.871
155.96 141.558 128.31
155.23 141.117 128.373
156.042 142.231 127.76
155.024 140.22 129.58
154.262 140.416 128.83
154.497 141.199 128.219
156.364 142.754 129.459
156.145 142.677 130.416
155.784 142.96 130.182
155.849 142.619 131
156.402 142.982 128.615
155.6 143.233 129.925
155.692 143.3 130.777
153.571 139.372 131.27
154.144 139.416 130.746
153.513 139.289 130.742
154.588 139.761 130.215
154.662 139.837 130.804
153.607 139.506 131.876
153.043 139.296 131.787
152.893 139.41 130.669
153.263 139.479 130.265
154.641 139.963 131.424
154.07 139.801 131.923
154.392 140.18 132.02
153.475 139.833 132.292
154.188 140.458 132.538
152.374 139.463 131.633
152.292 139.549 131.085
151.697 139.596 131.564
152.123 139.693 130.623
152.398 139.506 132.189
151.158 139.81 132.069
150.966 139.912 131.515
153.584 139.709 129.78
154.415 139.759 129.68
153.937 139.956 129.311
152.9 139.849 129.845
153.481 140.391 129.05
151.302 146.269 134.632
150.815 146.579 134.16
151.595 146.271 134.054
150.309 146.83 133.778
150.033 146.812 134.217
150.741 145.978 134.942
151.607 145.753 134.97
152.275 145.917 134.042
151.777 146.117 133.652
149.655 146.589 134.498
150.122 146.204 135.021
149.283 146.327 134.976
152.381 145.583 134.961
152.715 145.567 134.334
152.999 145.052 134.668
151.496 146.32 133.296
150.549 146.516 133.393
151.1 146.41 132.923
149.18 145.678 131.253
149.191 145.322 130.973
149.854 145.532 130.921
149.33 144.864 130.756
148.61 145.121 130.963
148.518 146.07 131.373
149.133 146.042 131.585
150.513 145.655 130.876
150.526 145.229 130.668
148.038 145.406 131.004
148.01 145.963 131.201
147.373 145.952 130.897
149.736 146.03 131.648
150.489 145.876 131.233
150.511 146.101 131.654
150.626 144.881 130.449
149.975 144.766 130.468
150.695 144.557 130.11
155.526 142.839 133.134
155.612 143.307 132.805
155.589 142.724 132.437
155.64 143.678 132.511
155.562 143.768 133.138
155.336 142.881 133.827
155.172 142.519 133.406
155.607 142.278 132.118
155.804 142.663 131.824
155.189 143.797 133.499
155.175 143.342 133.949
154.824 143.955 134.101
155.077 142.064 133.094
155.424 141.901 132.384
155.043 141.579 132.691
155.809 143.01 131.546
155.762 143.474 131.973
155.713 143.399 131.358
154.46 143.239 128.806
154.303 142.958 128.584
155.087 142.908 128.255
153.893 142.642 128.564
153.339 143.284 128.655
153.828 143.705 129.03
154.517 143.421 129.17
155.934 143.16 128.128
155.577 142.658 127.695
152.829 143.758 128.361
153.107 144.089 128.788
152.399 144.232 128.626
154.925 143.417 129.36
155.54 142.915 128.928
155.208 143.253 129.632
154.812 142.246 127.781
154.034 142.25 128.575
154.092 141.681 128.168
148.227 143.558 135.311
147.865 143.15 134.995
147.571 143.776 134.841
147.7 142.711 134.688
148.213 142.628 135.023
148.913 143.448 135.617
148.633 144.005 135.369
147.351 144.305 134.552
146.97 143.908 134.489
148.828 142.541 135.222
149.168 142.971 135.532
149.541 142.386 135.459
148.447 144.478 134.944
147.761 144.637 134.44
148.21 144.974 134.538
146.664 143.558 134.205
147.156 142.927 134.303
146.583 143.026 133.92
145.457 143.561 130.783
145.477 144.006 130.355
145.148 144.212 130.848
145.61 144.46 130.03
146.112 143.799 130.008
146.056 142.99 130.639
145.582 143.023 131.201
145.115 144.399 131.39
144.699 144.911 130.837
146.629 143.283 129.981
146.513 142.758 130.235
147.115 142.705 129.823
145.454 142.951 131.744
145.217 143.706 131.904
145.604 143.118 132.293
144.748 145.19 130.438
145.548 145.002 129.87
145.39 145.777 130.019
151.678 140.356 133.502
152.237 140.505 133.616
152.252 140.169 133.067
152.746 140.738 133.634
152.276 140.855 134.124
151.144 140.541 133.882
151.049 140.264 133.462
152.359 139.885 132.616
152.873 139.98 132.67
151.744 141.039 134.374
151.057 140.836 134.285
151.086 141.169 134.717
150.995 139.957 133.058
151.764 139.834 132.61
151.05 139.836 132.55
153.275 140.253 132.748
153.24 140.643 133.297
153.759 140.576 132.858
150.807 140.561 129.643
150.218 140.365 129.957
151.258 140.308 130.115
149.731 140.102 130.368
149.385 140.443 129.992
150.599 140.928 129.273
151.444 140.768 129.346
151.96 140.054 129.844
151.652 139.998 130.316
149.314 141.013 129.849
149.904 141.175 129.411
149.107 141.536 129.739
152.16 140.642 129.209
152.451 140.201 129.519
152.841 140.517 129.134
151.178 140.029 130.75
150.109 139.94 130.775
150.578 139.976 131.216
POLYGONS 1280  5120
3 164 162 163
3 163 44 164
3 162 43 163
3 164 42 162
3 166 165 163
3 163 43 166
3 165 44 163
3 166 14 165
3 168 167 162
3 162 42 168
3 167 43 162
3 168 13 167
3 170 169 164
3 164 44 170
3 169 42 164
3 170 12 169
3 173 171 172
3 172 46 173
3 171 43 172
3 173 45 171
3 167 174 172
3 172 43 167
3 174 46 172
3 167 13 174
3 175 166 171
3 171 45 175
3 166 43 171
3 175 14 166
3 177 176 173
3 173 46 177
3 176 45 173
3 177 4 176
3 180 178 179
3 179 48 180
3 178 42 179
3 180 47 178
3 169 181 179
3 179 42 169
3 181 48 179
3 169 12 181
3 182 168 178
3 178 47 182
3 168 42 178
3 182 13 168
3 184 183 180
3 180 48 184
3 183 47 180
3 184 8 183
3 187 185 186
3 186 50 187
3 185 44 186
3 187 49 185
3 165 188 186
3 186 44 165
3 188 50 186
3 165 14 188
3 189 170 185
3 185 49 189
3 170 44 185
3 189 12 170
3 191 190 187
3 187 50 191
3 190 49 187
3 191 7 190
3 194 192 193
3 193 53 194
3 192 52 193
3 194 51 192
3 196 195 193
3 193 52 196
3 195 53 193
3 196 16 195
3 198 197 192
3 192 51 198
3 197 52 192
3 198 14 197
3 200 199 194
3 194 53 200
3 199 51 194
3 200 15 199
3 203 201 202
3 202 45 203
3 201 52 202
3 203 54 201
3 197 175 202
3 202 52 197
3 175 45 202
3 197 14 175
3 204 196 201
3 201 54 204
3 196 52 201
3 204 16 196
3 176 205 203
3 203 45 176
3 205 54 203
3 176 4 205
3 208 206 207
3 207 55 208
3 206 51 207
3 208 50 206
3 199 209 207
3 207 51 199
3 209 55 207
3 199 15 209
3 188 198 206
3 206 50 188
3 198 51 206
3 188 14 198
3 210 191 208
3 208 55 210
3 191 50 208
3 210 7 191
3 213 211 212
3 212 57 213
3 211 53 212
3 213 56 211
3 195 214 212
3 212 53 195
3 214 57 212
3 195 16 214
3 215 200 211
3 211 56 215
3 200 53 211
3 215 15 200
3 217 216 213
3 213 57 217
3 216 56 213
3 217 9 216
3 220 218 219
3 219 60 220
3 218 59 219
3 220 58 218
3 222 221 219
3 219 59 222
3 221 60 219
3 222 19 221
3 224 223 218
3 218 58 224
3 223 59 218
3 224 18 223
3 226 225 220
3 220 60 226
3 225 58 220
3 226 17 225
3 229 227 228
3 228 62 229
3 227 59 228
3 229 61 227
3 223 230 228
3 228 59 223
3 230 62 228
3 223 18 230
3 231 222 227
3 227 61 231
3 222 59 227
3 231 19 222
3 233 232 229
3 229 62 233
3 232 61 229
3 233 5 232
3 236 234 235
3 235 64 236
3 234 58 235
3 236 63 234
3 225 237 235
3 235 58 225
3 237 64 235
3 225 17 237
3 238 224 234
3 234 63 238
3 224 58 234
3 238 18 224
3 240 239 236
3 236 64 240
3 239 63 236
3 240 6 239
3 243 241 242
3 242 66 243
3 241 60 242
3 243 65 241
3 221 244 242
3 242 60 221
3 244 66 242
3 221 19 244
3 245 226 241
3 241 65 245
3 226 60 241
3 245 17 226
3 247 246 243
3 243 66 247
3 246 65 243
3 247 11 246
3 250 248 249
3 249 69 250
3 248 68 249
3 250 67 248
3 252 251 249
3 249 68 252
3 251 69 249
3 252 18 251
3 254 253 248
3 248 67 254
3 253 68 248
3 254 21 253
3 256 255 250
3 250 69 256
3 255 67 250
3 256 20 255
3 259 257 258
3 258 70 259
3 257 68 258
3 259 62 257
3 253 260 258
3 258 68 253
3 260 70 258
3 253 21 260
3 230 252 257
3 257 62 230
3 252 68 257
3 230 18 252
3 261 233 259
3 259 70 261
3 233 62 259
3 261 5 233
3 264 262 263
3 263 72 264
3 262 67 263
3 264 71 262
3 255 265 263
3 263 67 255
3 265 72 263
3 255 20 265
3 266 254 262
3 262 71 266
3 254 67 262
3 266 21 254
3 268 267 264
3 264 72 268
3 267 71 264
3 268 10 267
3 271 269 270
3 270 63 271
3 269 69 270
3 271 73 269
3 251 238 270
3 270 69 251
3 238 63 270
3 251 18 238
3 272 256 269
3 269 73 272
3 256 69 269
3 272 20 256
3 239 273 271
3 271 63 239
3 273 73 271
3 239 6 273
3 276 274 275
3 275 76 276
3 274 75 275
3 276 74 274
3 278 277 275
3 275 75 278
3 277 76 275
3 278 24 277
3 280 279 274
3 274 74 280
3 279 75 274
3 280 23 279
3 282 281 276
3 276 76 282
3 281 74 276
3 282 22 281
3 285 283 284
3 284 78 285
3 283 75 284
3 285 77 283
3 279 286 284
3 284 75 279
3 286 78 284
3 279 23 286
3 287 278 283
3 283 77 287
3 278 75 283
3 287 24 278
3 289 288 285
3 285 78 289
3 288 77 285
3 289 0 288
3 292 290 291
3 291 80 292
3 290 74 291
3 292 79 290
3 281 293 291
3 291 74 281
3 293 80 291
3 281 22 293
3 294 280 290
3 290 79 294
3 280 74 290
3 294 23 280
3 296 295 292
3 292 80 296
3 295 79 292
3 296 4 295
3 299 297 298
3 298 82 299
3 297 76 298
3 299 81 297
3 277 300 298
3 298 76 277
3 300 82 298
3 277 24 300
3 301 282 297
3 297 81 301
3 282 76 297
3 301 22 282
3 303 302 299
3 299 82 303
3 302 81 299
3 303 3 302
3 306 304 305
3 305 85 306
3 304 84 305
3 306 83 304
3 308 307 305
3 305 84 308
3 307 85 305
3 308 26 307
3 310 309 304
3 304 83 310
3 309 84 304
3 310 24 309
3 312 311 306
3 306 85 312
3 311 83 306
3 312 25 311
3 315 313 314
3 314 77 315
3 313 84 314
3 315 86 313
3 309 287 314
3 314 84 309
3 287 77 314
3 309 24 287
3 316 308 313
3 313 86 316
3 308 84 313
3 316 26 308
3 288 317 315
3 315 77 288
3 317 86 315
3 288 0 317
3 320 318 319
3 319 87 320
3 318 83 319
3 320 82 318
3 311 321 319
3 319 83 311
3 321 87 319
3 311 25 321
3 300 310 318
3 318 82 300
3 310 83 318
3 300 24 310
3 322 303 320
3 320 87 322
3 303 82 320
3 322 3 303
3 325 323 324
3 324 89 325
3 323 85 324
3 325 88 323
3 307 326 324
3 324 85 307
3 326 89 324
3 307 26 326
3 327 312 323
3 323 88 327
3 312 85 323
3 327 25 312
3 329 328 325
3 325 89 329
3 328 88 325
3 329 5 328
3 332 330 331
3 331 92 332
3 330 91 331
3 332 90 330
3 334 333 331
3 331 91 334
3 333 92 331
3 334 29 333
3 336 335 330
3 330 90 336
3 335 91 330
3 336 28 335
3 338 337 332
3 332 92 338
3 337 90 332
3 338 27 337
3 341 339 340
3 340 94 341
3 339 91 340
3 341 93 339
3 335 342 340
3 340 91 335
3 342 94 340
3 335 28 342
3 343 334 339
3 339 93 343
3 334 91 339
3 343 29 334
3 345 344 341
3 341 94 345
3 344 93 341
3 345 2 344
3 348 346 347
3 347 96 348
3 346 90 347
3 348 95 346
3 337 349 347
3 347 90 337
3 349 96 347
3 337 27 349
3 350 336 346
3 346 95 350
3 336 90 346
3 350 28 336
3 352 351 348
3 348 96 352
3 351 95 348
3 352 7 351
3 355 353 354
3 354 98 355
3 353 92 354
3 355 97 353
3 333 356 354
3 354 92 333
3 356 98 354
3 333 29 356
3 357 338 353
3 353 97 357
3 338 92 353
3 357 27 338
3 359 358 355
3 355 98 359
3 358 97 355
3 359 1 358
3 362 360 361
3 361 101 362
3 360 100 361
3 362 99 360
3 364 363 361
3 361 100 364
3 363 101 361
3 364 31 363
3 366 365 360
3 360 99 366
3 365 100 360
3 366 29 365
3 368 367 362
3 362 101 368
3 367 99 362
3 368 30 367
3 371 369 370
3 370 93 371
3 369 100 370
3 371 102 369
3 365 343 370
3 370 100 365
3 343 93 370
3 365 29 343
3 372 364 369
3 369 102 372
3 364 100 369
3 372 31 364
3 344 373 371
3 371 93 344
3 373 102 371
3 344 2 373
3 376 374 375
3 375 103 376
3 374 99 375
3 376 98 374
3 367 377 375
3 375 99 367
3 377 103 375
3 367 30 377
3 356 366 374
3 374 98 356
3 366 99 374
3 356 29 366
3 378 359 376
3 376 103 378
3 359 98 376
3 378 1 359
3 381 379 380
3 380 105 381
3 379 101 380
3 381 104 379
3 363 382 380
3 380 101 363
3 382 105 380
3 363 31 382
3 383 368 379
3 379 104 383
3 368 101 379
3 383 30 368
3 385 384 381
3 381 105 385
3 384 104 381
3 385 6 384
3 388 386 387
3 387 108 388
3 386 107 387
3 388 106 386
3 390 389 387
3 387 107 390
3 389 108 387
3 390 34 389
3 392 391 386
3 386 106 392
3 391 107 386
3 392 33 391
3 394 393 388
3 388 108 394
3 393 106 388
3 394 32 393
3 397 395 396
3 396 110 397
3 395 107 396
3 397 109 395
3 391 398 396
3 396 107 391
3 398 110 396
3 391 33 398
3 399 390 395
3 395 109 399
3 390 107 395
3 399 34 390
3 401 400 397
3 397 110 401
3 400 109 397
3 401 8 400
3 404 402 403
3 403 112 404
3 402 106 403
3 404 111 402
3 393 405 403
3 403 106 393
3 405 112 403
3 393 32 405
3 406 392 402
3 402 111 406
3 392 106 402
3 406 33 392
3 408 407 404
3 404 112 408
3 407 111 404
3 408 0 407
3 411 409 410
3 410 114 411
3 409 108 410
3 411 113 409
3 389 412 410
3 410 108 389
3 412 114 410
3 389 34 412
3 413 394 409
3 409 113 413
3 394 108 409
3 413 32 394
3 415 414 411
3 411 114 415
3 414 113 411
3 415 11 414
3 418 416 417
3 417 117 418
3 416 116 417
3 418 115 416
3 420 419 417
3 417 116 420
3 419 117 417
3 420 36 419
3 422 421 416
3 416 115 422
3 421 116 416
3 422 34 421
3 424 423 418
3 418 117 424
3 423 115 418
3 424 35 423
3 427 425 426
3 426 109 427
3 425 116 426
3 427 118 425
3 421 399 426
3 426 116 421
3 399 109 426
3 421 34 399
3 428 420 425
3 425 118 428
3 420 116 425
3 428 36 420
3 400 429 427
3 427 109 400
3 429 118 427
3 400 8 429
3 432 430 431
3 431 119 432
3 430 115 431
3 432 114 430
3 423 433 431
3 431 115 423
3 433 119 431
3 423 35 433
3 412 422 430
3 430 114 412
3 422 115 430
3 412 34 422
3 434 415 432
3 432 119 434
3 415 114 432
3 434 11 415
3 437 435 436
3 436 121 437
3 435 117 436
3 437 120 435
3 419 438 436
3 436 117 419
3 438 121 436
3 419 36 438
3 439 424 435
3 435 120 439
3 424 117 435
3 439 35 424
3 441 440 437
3 437 121 441
3 440 120 437
3 441 1 440
3 444 442 443
3 443 124 444
3 442 123 443
3 444 122 442
3 446 445 443
3 443 123 446
3 445 124 443
3 446 39 445
3 448 447 442
3 442 122 448
3 447 123 442
3 448 38 447
3 450 449 444
3 444 124 450
3 449 122 444
3 450 37 449
3 453 451 452
3 452 126 453
3 451 123 452
3 453 125 451
3 447 454 452
3 452 123 447
3 454 126 452
3 447 38 454
3 455 446 451
3 451 125 455
3 446 123 451
3 455 39 446
3 457 456 453
3 453 126 457
3 456 125 453
3 457 9 456
3 460 458 459
3 459 128 460
3 458 122 459
3 460 127 458
3 449 461 459
3 459 122 449
3 461 128 459
3 449 37 461
3 462 448 458
3 458 127 462
3 448 122 458
3 462 38 448
3 464 463 460
3 460 128 464
3 463 127 460
3 464 10 463
3 467 465 466
3 466 130 467
3 465 124 466
3 467 129 465
3 445 468 466
3 466 124 445
3 468 130 466
3 445 39 468
3 469 450 465
3 465 129 469
3 450 124 465
3 469 37 450
3 471 470 467
3 467 130 471
3 470 129 467
3 471 3 470
3 474 472 473
3 473 133 474
3 472 132 473
3 474 131 472
3 476 475 473
3 473 132 476
3 475 133 473
3 476 38 475
3 478 477 472
3 472 131 478
3 477 132 472
3 478 41 477
3 480 479 474
3 474 133 480
3 479 131 474
3 480 40 479
3 483 481 482
3 482 134 483
3 481 132 482
3 483 126 481
3 477 484 482
3 482 132 477
3 484 134 482
3 477 41 484
3 454 476 481
3 481 126 454
3 476 132 481
3 454 38 476
3 485 457 483
3 483 134 485
3 457 126 483
3 485 9 457
3 488 486 487
3 487 136 488
3 486 131 487
3 488 135 486
3 479 489 487
3 487 131 479
3 489 136 487
3 479 40 489
3 490 478 486
3 486 135 490
3 478 131 486
3 490 41 478
3 492 491 488
3 488 136 492
3 491 135 488
3 492 2 491
3 495 493 494
3 494 127 495
3 493 133 494
3 495 137 493
3 475 462 494
3 494 133 475
3 462 127 494
3 475 38 462
3 496 480 493
3 493 137 496
3 480 133 493
3 496 40 480
3 463 497 495
3 495 127 463
3 497 137 495
3 463 10 497
3 500 498 499
3 499 140 500
3 498 139 499
3 500 138 498
3 502 501 499
3 499 139 502
3 501 140 499
3 502 33 501
3 504 503 498
3 498 138 504
3 503 139 498
3 504 13 503
3 506 505 500
3 500 140 506
3 505 138 500
3 506 23 505
3 509 507 508
3 508 47 509
3 507 139 508
3 509 110 507
3 503 182 508
3 508 139 503
3 182 47 508
3 503 13 182
3 398 502 507
3 507 110 398
3 502 139 507
3 398 33 502
3 183 401 509
3 509 47 183
3 401 110 509
3 183 8 401
3 512 510 511
3 511 79 512
3 510 138 511
3 512 46 510
3 505 294 511
3 511 138 505
3 294 79 511
3 505 23 294
3 174 504 510
3 510 46 174
3 504 138 510
3 174 13 504
3 295 177 512
3 512 79 295
3 177 46 512
3 295 4 177
3 515 513 514
3 514 111 515
3 513 140 514
3 515 78 513
3 501 406 514
3 514 140 501
3 406 111 514
3 501 33 406
3 286 506 513
3 513 78 286
3 506 140 513
3 286 23 506
3 407 289 515
3 515 111 407
3 289 78 515
3 407 0 289
3 518 516 517
3 517 143 518
3 516 142 517
3 518 141 516
3 520 519 517
3 517 142 520
3 519 143 517
3 520 19 519
3 522 521 516
3 516 141 522
3 521 142 516
3 522 32 521
3 524 523 518
3 518 143 524
3 523 141 518
3 524 26 523
3 527 525 526
3 526 113 527
3 525 142 526
3 527 66 525
3 521 413 526
3 526 142 521
3 413 113 526
3 521 32 413
3 244 520 525
3 525 66 244
3 520 142 525
3 244 19 520
3 414 247 527
3 527 113 414
3 247 66 527
3 414 11 247
3 530 528 529
3 529 86 530
3 528 141 529
3 530 112 528
3 523 316 529
3 529 141 523
3 316 86 529
3 523 26 316
3 405 522 528
3 528 112 405
3 522 141 528
3 405 32 522
3 317 408 530
3 530 86 317
3 408 112 530
3 317 0 408
3 533 531 532
3 532 61 533
3 531 143 532
3 533 89 531
3 519 231 532
3 532 143 519
3 231 61 532
3 519 19 231
3 326 524 531
3 531 89 326
3 524 143 531
3 326 26 524
3 232 329 533
3 533 61 232
3 329 89 533
3 232 5 329
3 536 534 535
3 535 146 536
3 534 145 535
3 536 144 534
3 538 537 535
3 535 145 538
3 537 146 535
3 538 22 537
3 540 539 534
3 534 144 540
3 539 145 534
3 540 16 539
3 542 541 536
3 536 146 542
3 541 144 536
3 542 39 541
3 545 543 544
3 544 54 545
3 543 145 544
3 545 80 543
3 539 204 544
3 544 145 539
3 204 54 544
3 539 16 204
3 293 538 543
3 543 80 293
3 538 145 543
3 293 22 538
3 205 296 545
3 545 54 205
3 296 80 545
3 205 4 296
3 548 546 547
3 547 125 548
3 546 144 547
3 548 57 546
3 541 455 547
3 547 144 541
3 455 125 547
3 541 39 455
3 214 540 546
3 546 57 214
3 540 144 546
3 214 16 540
3 456 217 548
3 548 125 456
3 217 57 548
3 456 9 217
3 551 549 550
3 550 81 551
3 549 146 550
3 551 130 549
3 537 301 550
3 550 146 537
3 301 81 550
3 537 22 301
3 468 542 549
3 549 130 468
3 542 146 549
3 468 39 542
3 302 471 551
3 551 81 302
3 471 130 551
3 302 3 471
3 554 552 553
3 553 149 554
3 552 148 553
3 554 147 552
3 556 555 553
3 553 148 556
3 555 149 553
3 556 21 555
3 558 557 552
3 552 147 558
3 557 148 552
3 558 25 557
3 560 559 554
3 554 149 560
3 559 147 554
3 560 37 559
3 563 561 562
3 562 88 563
3 561 148 562
3 563 70 561
3 557 327 562
3 562 148 557
3 327 88 562
3 557 25 327
3 260 556 561
3 561 70 260
3 556 148 561
3 260 21 556
3 328 261 563
3 563 88 328
3 261 70 563
3 328 5 261
3 566 564 565
3 565 129 566
3 564 147 565
3 566 87 564
3 559 469 565
3 565 147 559
3 469 129 565
3 559 37 469
3 321 558 564
3 564 87 321
3 558 147 564
3 321 25 558
3 470 322 566
3 566 129 470
3 322 87 566
3 470 3 322
3 569 567 568
3 568 71 569
3 567 149 568
3 569 128 567
3 555 266 568
3 568 149 555
3 266 71 568
3 555 21 266
3 461 560 567
3 567 128 461
3 560 149 567
3 461 37 560
3 267 464 569
3 569 71 267
3 464 128 569
3 267 10 464
3 572 570 571
3 571 152 572
3 570 151 571
3 572 150 570
3 574 573 571
3 571 151 574
3 573 152 571
3 574 27 573
3 576 575 570
3 570 150 576
3 575 151 570
3 576 12 575
3 578 577 572
3 572 152 578
3 577 150 572
3 578 36 577
3 581 579 580
3 580 49 581
3 579 151 580
3 581 96 579
3 575 189 580
3 580 151 575
3 189 49 580
3 575 12 189
3 349 574 579
3 579 96 349
3 574 151 579
3 349 27 574
3 190 352 581
3 581 49 190
3 352 96 581
3 190 7 352
3 584 582 583
3 583 118 584
3 582 150 583
3 584 48 582
3 577 428 583
3 583 150 577
3 428 118 583
3 577 36 428
3 181 576 582
3 582 48 181
3 576 150 582
3 181 12 576
3 429 184 584
3 584 118 429
3 184 48 584
3 429 8 184
3 587 585 586
3 586 97 587
3 585 152 586
3 587 121 585
3 573 357 586
3 586 152 573
3 357 97 586
3 573 27 357
3 438 578 585
3 585 121 438
3 578 152 585
3 438 36 578
3 358 441 587
3 587 97 358
3 441 121 587
3 358 1 441
3 590 588 589
3 589 155 590
3 588 154 589
3 590 153 588
3 592 591 589
3 589 154 592
3 591 155 589
3 592 17 591
3 594 593 588
3 588 153 594
3 593 154 588
3 594 30 593
3 596 595 590
3 590 155 596
3 595 153 590
3 596 35 595
3 599 597 598
3 598 104 599
3 597 154 598
3 599 64 597
3 593 383 598
3 598 154 593
3 383 104 598
3 593 30 383
3 237 592 597
3 597 64 237
3 592 154 597
3 237 17 592
3 384 240 599
3 599 104 384
3 240 64 599
3 384 6 240
3 602 600 601
3 601 120 602
3 600 153 601
3 602 103 600
3 595 439 601
3 601 153 595
3 439 120 601
3 595 35 439
3 377 594 600
3 600 103 377
3 594 153 600
3 377 30 594
3 440 378 602
3 602 120 440
3 378 103 602
3 440 1 378
3 605 603 604
3 604 65 605
3 603 155 604
3 605 119 603
3 591 245 604
3 604 155 591
3 245 65 604
3 591 17 245
3 433 596 603
3 603 119 433
3 596 155 603
3 433 35 596
3 246 434 605
3 605 65 246
3 434 119 605
3 246 11 434
3 608 606 607
3 607 158 608
3 606 157 607
3 608 156 606
3 610 609 607
3 607 157 610
3 609 158 607
3 610 15 609
3 612 611 606
3 606 156 612
3 611 157 606
3 612 28 611
3 614 613 608
3 608 158 614
3 613 156 608
3 614 41 613
3 617 615 616
3 616 95 617
3 615 157 616
3 617 55 615
3 611 350 616
3 616 157 611
3 350 95 616
3 611 28 350
3 209 610 615
3 615 55 209
3 610 157 615
3 209 15 610
3 351 210 617
3 617 95 351
3 210 55 617
3 351 7 210
3 620 618 619
3 619 135 620
3 618 156 619
3 620 94 618
3 613 490 619
3 619 156 613
3 490 135 619
3 613 41 490
3 342 612 618
3 618 94 342
3 612 156 618
3 342 28 612
3 491 345 620
3 620 135 491
3 345 94 620
3 491 2 345
3 623 621 622
3 622 56 623
3 621 158 622
3 623 134 621
3 609 215 622
3 622 158 609
3 215 56 622
3 609 15 215
3 484 614 621
3 621 134 484
3 614 158 621
3 484 41 614
3 216 485 623
3 623 56 216
3 485 134 623
3 216 9 485
3 626 624 625
3 625 161 626
3 624 160 625
3 626 159 624
3 628 627 625
3 625 160 628
3 627 161 625
3 628 31 627
3 630 629 624
3 624 159 630
3 629 160 624
3 630 20 629
3 632 631 626
3 626 161 632
3 631 159 626
3 632 40 631
3 635 633 634
3 634 73 635
3 633 160 634
3 635 105 633
3 629 272 634
3 634 160 629
3 272 73 634
3 629 20 272
3 382 628 633
3 633 105 382
3 628 160 633
3 382 31 628
3 273 385 635
3 635 73 273
3 385 105 635
3 273 6 385
3 638 636 637
3 637 137 638
3 636 159 637
3 638 72 636
3 631 496 637
3 637 159 631
3 496 137 637
3 631 40 496
3 265 630 636
3 636 72 265
3 630 159 636
3 265 20 630
3 497 268 638
3 638 137 497
3 268 72 638
3 497 10 268
3 641 639 640
3 640 102 641
3 639 161 640
3 641 136 639
3 627 372 640
3 640 161 627
3 372 102 640
3 627 31 372
3 489 632 639
3 639 136 489
3 632 161 639
3 489 40 632
3 373 492 641
3 641 102 373
3 492 136 641
3 373 2 492
