# vtk DataFile Version 3.0
this file was written using fslvtkio
ASCII
DATASET POLYDATA
POINTS 642 float
141.419 150.681 115.457
140.624 153.383 117.675
140.262 154.104 121.971
141.1 151.309 119.078
143.495 152.281 116.961
139.476 151.755 118.522
139.045 153.202 119.884
142.992 153.674 118.284
143.169 153.312 114.29
142.998 152.966 121.511
139.133 152.945 123.078
138.841 152.731 115.61
143.562 153.406 116.212
144.748 152.639 115.098
144.349 153.182 117.077
143.143 153.627 120.085
142.584 152.996 119.12
139.122 152.9 117.526
139.364 152.719 119.3
138.662 151.874 117.105
138.492 153.441 122.118
139.139 152.498 121.097
142.831 151.12 117.974
143.01 151.323 115.837
141.211 151.03 117.73
139.924 151.13 119.305
139.67 150.723 117.087
142.009 153.653 117.823
141.709 154.203 120.261
140.639 153.636 119.696
139.633 153.532 118.688
139.325 154.314 121.37
140.391 152.161 115.232
142.646 151.997 113.972
140.909 153.457 114.682
139.582 153.513 116.561
141.752 153.19 116.094
140.278 152.261 121.468
140.9 152.959 122.565
141.207 152.592 120.399
138.77 154.666 124.147
141.93 154.409 122.309
144.252 153.072 115.695
144.887 152.968 116.331
144.674 153.699 116.369
144.192 152.489 117.1
144.314 152.177 115.994
144.131 152.983 114.05
143.27 152.919 115.061
143.558 153.741 117.165
143.645 153.581 117.723
143.334 153.143 118.565
143.534 152.996 118.355
142.927 153.282 119.554
143.187 152.52 117.877
142.989 153.54 119.124
143.291 153.488 121.078
142.429 153.256 120.481
139.476 152.676 118.331
139.171 152.325 118.126
138.79 152.377 117.294
139.134 151.734 117.574
139.604 152.216 118.792
139.069 153.114 119.9
139.407 153.036 118.608
138.707 152.72 116.569
138.607 152.011 116.228
138.544 152.999 121.909
139.258 152.773 120.349
138.871 153.004 120.945
139.454 152.24 119.756
138.979 152.563 122.187
138.369 153.151 123.06
139.044 153.438 120.905
142.454 151.513 117.092
142.133 150.998 116.503
142.047 151.105 117.813
141.364 150.573 116.547
142.119 150.952 115.481
143.31 151.956 116.44
143.102 151.832 117.516
142.07 151.159 118.699
141.59 150.527 118.479
140.547 150.22 118.489
140.44 150.756 117.545
139.574 150.547 118.461
140.514 151.004 116.319
140.459 151.077 119.165
139.455 151.418 119.236
139.673 151.594 117.893
141.785 153.591 119.083
141.032 153.849 119.991
141.311 153.264 118.706
140.196 154.088 121.031
140.976 154.158 121.223
142.623 154.081 119.405
142.643 153.554 118.084
141.231 153.393 117.818
140.504 153.538 118.688
140.035 153.975 119.489
139.815 154.063 120.451
139.55 153.612 119.87
139.487 154.398 122.209
140.13 153.532 118.237
139.407 153.491 119.208
139.148 153.639 120.512
141.241 152.137 114.077
141.887 152.752 113.607
140.389 152.939 114.508
142.17 153.333 114.148
143.313 152.642 113.579
141.763 151.264 114.457
140.824 151.463 115.026
139.503 152.224 115.418
139.923 152.785 115.018
140.159 153.471 115.649
141.456 153.405 115.256
140.781 153.276 116.246
142.372 152.987 115.174
139.064 153.163 116.042
140.286 153.239 117.146
141.218 153.347 116.991
140.675 151.958 122.261
141.528 152.031 121.372
140.861 152.382 121.117
141.956 152.809 121.03
141.804 153.016 121.897
139.655 152.873 123.376
139.735 152.511 122.538
140.721 151.522 120.108
141.197 151.827 119.723
140.703 154.557 123.476
141.13 153.721 122.703
140.134 154.052 123.946
142.473 153.767 122.156
140.945 154.54 122.338
139.64 154.782 123.178
139.012 153.591 124.028
143.813 151.828 115.105
143.712 152.14 114.34
143.195 151.394 114.696
139.739 151.016 115.944
138.95 151.284 116.049
139.437 151.356 116.717
142.035 152.899 119.729
142.867 151.976 118.585
142.141 151.981 119.251
140.092 151.471 120.187
139.531 151.513 120.329
139.651 152.251 121.353
142.66 153.542 116.069
142.978 153.97 116.945
141.943 153.197 116.745
139.758 153.439 117.468
139.723 153.162 117.947
139.111 153.326 116.871
141.912 154.47 121.318
142.57 154.356 120.415
142.941 154.309 121.194
138.203 154.163 123.491
138.761 154.025 121.971
138.21 154.895 123.442
144.952 153.18 115.777
144.9 153.358 116.229
144.63 153.424 115.926
144.629 153.47 116.7
144.764 153.11 116.668
144.96 152.778 115.763
144.495 152.863 115.279
143.836 153.142 115.959
144.12 153.698 116.308
144.532 152.78 116.745
144.869 152.6 116.09
144.189 152.499 116.675
144.675 152.311 115.473
144.434 152.82 117.209
143.821 152.387 117.007
143.79 152.216 116.526
144.167 152.855 114.877
143.552 152.765 115.451
143.854 153.135 114.595
143.278 152.968 115.8
144.306 152.654 114.509
143.804 153.263 113.953
143.232 153.223 114.596
144.045 153.731 116.813
144.106 153.63 116.981
143.642 153.684 117.461
143.854 153.33 117.424
143.739 153.76 116.577
143.216 153.525 117.76
143.275 153.469 118.061
143.701 153.197 118.358
143.119 153.05 118.891
143.035 153.143 119.103
142.726 153.098 119.39
143.003 152.848 118.799
144.036 153.112 117.818
143.633 153.218 117.865
143.06 153.196 119.41
142.964 153.315 119.844
143.224 152.818 118.271
143.766 152.753 117.832
143.739 152.527 117.635
142.952 152.639 118.476
143.381 152.377 117.463
143.448 153.267 118.214
143.178 153.356 118.961
143.2 153.4 118.496
143.112 153.585 119.535
143.005 153.598 118.703
142.884 153.282 120.286
142.757 153.165 120.035
142.913 153.212 120.766
142.5 153.11 119.759
143.189 153.498 120.542
143.457 153.208 121.431
142.923 152.958 121.156
139.461 152.475 118.131
139.036 152.304 117.669
139.245 152.576 117.749
138.558 152.055 117.183
138.751 152.038 117.646
139.422 152.383 118.689
139.375 152.65 118.842
139.358 152.827 117.869
138.995 152.731 117.382
139.143 152.005 117.863
139.285 152.114 118.475
139.271 151.882 118.357
139.508 152.497 119.117
139.006 151.722 117.196
139.299 151.683 118.168
139.377 151.906 118.777
139.33 152.908 119.156
139.684 152.905 118.54
139.137 153.039 119.187
139.753 152.991 117.999
139.138 152.911 119.645
138.935 153.135 119.844
138.86 153.083 119.354
138.678 152.533 116.869
138.476 152.144 116.81
138.569 152.393 116.41
138.464 151.865 116.647
138.895 152.912 117.09
138.677 152.568 116.061
138.667 152.331 115.886
139.166 152.837 120.972
139.002 152.91 120.624
138.763 153.003 121.389
138.965 152.847 120.19
139.442 152.721 119.82
139.316 152.685 120.596
138.952 152.709 121.493
138.354 153.153 122.134
138.547 153.146 121.592
139.452 152.494 119.682
139.453 152.622 120.098
139.408 152.258 119.438
139.456 152.411 120.353
139.414 151.875 119.185
138.57 152.557 122.091
138.419 152.971 122.41
138.724 152.817 122.583
138.402 153.46 122.759
139.062 152.331 121.749
139.114 152.635 122.68
138.701 153.051 123.179
138.872 153.247 121.002
138.84 153.075 120.484
138.819 153.331 120.565
138.696 153.448 121.561
138.815 153.457 120.496
142.325 151.249 116.605
141.877 151.163 117.208
142.379 151.141 117.225
141.645 151.156 117.745
141.517 151.149 117.189
142.685 150.929 115.996
142.643 151.507 116.402
142.81 151.264 117.579
142.486 151.051 117.877
141.708 150.622 116.563
142.275 150.618 115.965
141.696 150.666 116.006
142.538 151.076 115.567
141.043 151.024 117.268
141.336 150.713 116.006
141.687 150.788 115.443
142.736 151.902 116.819
142.858 151.733 117.354
142.922 151.996 117.049
143.003 151.504 117.801
143.215 151.749 116.157
143.382 152.12 116.699
143.336 151.98 117.163
142.24 150.914 118.298
141.834 150.874 118.173
141.753 151.005 118.537
141.473 150.666 118.1
142.424 151.285 118.477
141.462 151.314 118.944
141.276 151.019 118.81
140.546 150.666 117.938
140.062 150.768 117.964
140.093 150.561 118.29
139.719 151.057 117.919
139.976 150.833 117.469
140.742 151.133 117.63
141.041 150.359 118.027
140.038 150.547 118.901
139.85 150.793 118.804
140.418 150.77 116.89
140.676 150.799 117.032
140.876 150.724 116.417
140.022 150.725 116.691
140.96 150.827 115.822
141.093 150.332 118.407
140.45 150.767 118.83
140.896 150.856 118.707
140.041 151.056 119.288
140.733 151.203 119.169
139.564 151.214 118.765
139.598 151.222 118.289
139.804 151.745 118.496
139.645 151.235 117.476
139.679 151.213 119.256
139.616 151.73 118.737
139.561 151.678 118.197
141.461 153.88 119.529
141.119 153.497 119.39
141.502 153.515 118.958
140.865 153.668 119.22
140.756 153.958 119.83
141.337 153.962 120.23
141.768 153.898 119.711
141.894 153.447 118.468
141.635 153.555 118.235
140.65 153.935 120.496
140.977 154.028 120.687
140.547 153.922 121.062
141.357 154.265 120.86
140.379 153.947 120.4
140.184 154.175 121.555
140.617 154.302 121.61
142.226 153.884 119.233
142.252 153.585 118.614
142.65 153.871 118.758
142.35 153.608 117.937
142.137 154.069 119.805
142.82 153.843 118.875
142.874 153.709 118.221
141.352 153.754 118.24
140.928 153.535 118.665
140.886 153.544 118.232
140.624 153.677 119.073
141.689 153.552 117.699
140.925 153.295 117.723
140.54 153.385 118.137
139.83 153.859 119.87
139.616 153.69 120.255
139.662 153.711 119.668
139.505 153.904 120.573
139.616 154.17 120.955
140.2 153.805 120.089
140.401 153.773 119.484
139.883 153.748 119.124
139.44 153.648 119.324
139.698 154.215 121.267
139.9 153.938 120.764
139.877 154.204 121.479
139.358 154.295 121.861
139.857 153.972 122.076
140.199 153.723 119.046
140.126 153.411 118.849
140.295 153.377 118.544
139.835 153.609 118.448
140.359 153.459 117.888
139.444 153.65 119.576
139.55 153.689 120.183
139.24 153.571 119.921
139.359 153.935 120.948
139.466 153.512 119.003
139.315 153.285 119.506
139.085 153.388 120.169
141.603 152.441 113.681
140.937 152.854 114.04
140.682 152.324 114.246
140.774 153.321 114.465
141.323 153.176 114.07
142.333 152.407 113.703
142.022 152.086 113.922
140.725 152.095 114.752
140.558 152.468 114.852
142.058 153.074 113.866
142.699 152.679 113.538
142.915 153.133 113.699
142.947 152.37 113.645
141.585 153.388 114.331
142.883 153.551 114.103
143.379 153.072 113.94
141.545 151.721 114.176
141.021 151.751 114.582
141.144 151.545 114.856
140.348 151.657 115.194
142.442 151.774 114.298
141.368 150.861 114.963
141.107 150.99 115.176
139.951 152.41 114.784
139.975 152.719 114.6
139.652 152.479 114.92
140.401 153.309 114.912
139.895 152.092 115.243
139.127 152.332 115.447
139.25 152.726 115.241
140.786 153.498 115.516
141.1 153.283 115.89
140.466 153.351 115.946
141.286 153.201 116.273
141.619 153.066 115.736
141.129 153.558 114.96
140.514 153.551 115.148
139.756 153.571 116.034
140.167 153.285 116.405
141.963 153.06 115.158
141.73 153.425 114.69
142.334 153.231 114.675
142.097 153.144 115.592
142.723 153.056 114.783
139.877 153.288 115.337
139.31 153.528 115.743
139.232 153.06 115.545
139.311 153.416 116.257
138.855 152.944 115.781
140.635 153.319 116.679
141.054 153.373 116.67
140.831 153.236 117.112
141.416 153.222 116.589
140.041 153.405 116.77
140.485 153.459 117.446
140.945 153.477 117.401
141.154 151.915 121.94
141.319 152.035 121.343
140.935 152.083 121.698
141.072 152.461 120.667
141.611 152.259 120.835
141.229 152.546 121.941
140.803 152.504 122.46
140.395 151.982 121.865
140.624 152.281 121.367
141.879 152.315 121.123
141.676 152.505 121.591
142.169 152.605 121.389
141.362 153.005 122.069
141.532 152.803 120.64
142.494 152.769 121.351
142.43 153.053 121.687
140.269 152.5 123.009
140.108 152.107 122.493
139.856 152.713 122.949
140.006 152.324 122.042
140.319 153.037 123.109
139.447 152.958 123.165
139.471 152.673 122.88
140.639 152.142 120.64
140.865 152.117 120.414
140.906 151.693 120.016
141.166 152.249 120.114
140.513 152.146 120.803
140.929 151.295 119.585
141.25 151.342 119.424
141.188 154.145 123.129
140.676 154.107 123.489
140.171 154.353 123.661
140.55 153.636 123.379
140.792 153.417 122.78
141.826 154.043 122.43
141.457 154.467 122.92
139.597 154.646 123.988
139.106 154.145 124.092
141.45 153.519 122.431
142.071 153.713 122.28
142.175 153.414 122.212
142.291 154.106 122.108
142.825 153.463 121.856
140.875 154.453 122.859
140.079 154.648 123.4
140.423 154.292 122.702
139.008 154.86 123.763
141.378 154.432 122.396
140.552 154.402 122.151
139.985 154.374 122.516
139.155 153.745 124.107
139.8 153.519 123.73
139.254 153.344 123.851
138.857 154.158 123.991
139.299 153.353 123.503
143.868 151.885 114.66
143.42 151.776 114.466
143.458 151.543 114.916
143.058 151.62 114.256
143.295 152.068 113.945
144.387 152.36 114.554
144.275 152.224 115.024
143.454 151.605 115.5
143.015 151.187 115.278
143.462 152.307 113.848
143.866 152.456 114.176
143.757 152.689 113.755
144.234 151.88 115.425
143.73 151.747 115.65
143.683 152.118 116.07
142.427 151.031 115.011
142.542 151.215 114.602
141.866 150.971 114.928
139.291 151.133 115.912
139.068 151.323 116.357
139.438 151.072 116.283
139.176 151.548 116.793
138.74 151.555 116.601
139.414 151.427 115.529
139.786 151.297 115.533
139.787 150.897 116.43
139.66 151.106 116.703
138.698 151.586 116.097
139.386 151.701 115.631
138.919 151.808 115.652
140.275 151.11 115.4
140.198 150.65 115.83
140.66 150.961 115.528
139.582 151.355 117.189
139.293 151.45 117.121
139.431 151.506 117.531
142.195 152.646 119.129
142.562 151.855 118.796
141.997 152.431 119.424
142.739 151.496 118.618
142.836 151.587 118.171
142.665 152.565 118.853
142.321 153.025 119.499
141.738 152.847 120.031
141.703 152.348 119.835
142.921 152.054 118.009
143.026 152.155 118.298
143.173 152.142 117.761
142.075 153.285 120.209
141.777 153.287 120.434
142.292 153.122 120.813
141.675 151.979 119.451
142.335 151.409 118.959
141.566 151.6 119.163
139.78 151.384 120.319
139.651 151.686 120.938
139.984 151.532 120.81
139.308 152.259 121.301
139.435 152.092 120.672
139.66 151.194 119.943
139.931 151.128 119.861
140.186 151.882 120.731
139.958 152.353 121.361
139.346 151.831 119.939
139.499 151.526 119.768
139.401 151.781 119.475
140.364 151.26 119.676
140.415 151.47 120.241
140.549 151.287 119.706
139.86 152.571 121.879
139.441 152.43 121.875
139.558 152.563 122.329
142.79 153.642 116.511
142.435 153.616 116.829
142.35 153.675 116.411
142.046 153.505 117.222
142.422 153.705 117.338
143.27 153.794 116.55
143.079 153.497 116.18
142.27 153.401 115.95
141.794 153.287 116.413
142.813 153.728 117.478
143.338 153.91 117.076
143.086 153.655 117.611
142.962 153.198 115.644
142.542 153.32 115.667
142.796 153.188 115.169
141.563 153.358 116.969
141.609 153.361 117.284
141.308 153.568 117.311
139.734 153.196 117.881
139.32 153.247 117.48
139.413 153.486 117.243
138.931 153.042 117.249
139.819 153.051 117.642
139.76 153.319 118.311
139.679 153.571 118.148
139.627 153.472 116.815
139.205 153.479 116.758
139.734 153.116 118.34
139.715 153.256 118.536
139.063 153.264 119.074
139.932 153.681 117.988
139.951 153.271 117.3
140.222 153.381 117.696
139.153 153.09 116.44
138.987 153.105 116.755
138.776 152.936 116.312
142.319 154.475 120.705
142.809 154.342 120.739
142.369 154.511 121.305
143.222 153.98 120.593
143.009 154.085 120.192
142.195 154.369 120.256
141.76 154.274 120.738
141.863 154.394 121.837
142.42 154.352 121.771
142.877 154.089 119.845
142.613 154.167 119.877
142.94 153.942 119.356
141.405 154.184 121.3
141.453 154.464 121.89
141.002 154.262 121.775
142.822 153.93 121.665
143.298 153.952 121.28
143.241 153.702 121.663
138.221 154.183 122.751
138.192 154.424 122.752
137.931 154.455 123.624
138.73 154.532 122.416
139.135 154.206 121.695
138.521 153.715 122.021
138.455 153.774 122.803
138.271 154.454 124.022
138.267 154.993 123.947
139.174 153.942 121.125
138.96 153.648 121.343
139.083 153.647 120.73
138.487 153.68 123.474
138.493 153.846 123.938
138.683 153.421 123.686
138.781 155.069 123.488
138.911 154.688 122.849
139.425 154.531 122.787
POLYGONS 1280  5120
3 164 162 163
3 163 44 164
3 162 43 163
3 164 42 162
3 166 165 163
3 163 43 166
3 165 44 163
3 166 14 165
3 168 167 162
3 162 42 168
3 167 43 162
3 168 13 167
3 170 169 164
3 164 44 170
3 169 42 164
3 170 12 169
3 173 171 172
3 172 46 173
3 171 43 172
3 173 45 171
3 167 174 172
3 172 43 167
3 174 46 172
3 167 13 174
3 175 166 171
3 171 45 175
3 166 43 171
3 175 14 166
3 177 176 173
3 173 46 177
3 176 45 173
3 177 4 176
3 180 178 179
3 179 48 180
3 178 42 179
3 180 47 178
3 169 181 179
3 179 42 169
3 181 48 179
3 169 12 181
3 182 168 178
3 178 47 182
3 168 42 178
3 182 13 168
3 184 183 180
3 180 48 184
3 183 47 180
3 184 8 183
3 187 185 186
3 186 50 187
3 185 44 186
3 187 49 185
3 165 188 186
3 186 44 165
3 188 50 186
3 165 14 188
3 189 170 185
3 185 49 189
3 170 44 185
3 189 12 170
3 191 190 187
3 187 50 191
3 190 49 187
3 191 7 190
3 194 192 193
3 193 53 194
3 192 52 193
3 194 51 192
3 196 195 193
3 193 52 196
3 195 53 193
3 196 16 195
3 198 197 192
3 192 51 198
3 197 52 192
3 198 14 197
3 200 199 194
3 194 53 200
3 199 51 194
3 200 15 199
3 203 201 202
3 202 45 203
3 201 52 202
3 203 54 201
3 197 175 202
3 202 52 197
3 175 45 202
3 197 14 175
3 204 196 201
3 201 54 204
3 196 52 201
3 204 16 196
3 176 205 203
3 203 45 176
3 205 54 203
3 176 4 205
3 208 206 207
3 207 55 208
3 206 51 207
3 208 50 206
3 199 209 207
3 207 51 199
3 209 55 207
3 199 15 209
3 188 198 206
3 206 50 188
3 198 51 206
3 188 14 198
3 210 191 208
3 208 55 210
3 191 50 208
3 210 7 191
3 213 211 212
3 212 57 213
3 211 53 212
3 213 56 211
3 195 214 212
3 212 53 195
3 214 57 212
3 195 16 214
3 215 200 211
3 211 56 215
3 200 53 211
3 215 15 200
3 217 216 213
3 213 57 217
3 216 56 213
3 217 9 216
3 220 218 219
3 219 60 220
3 218 59 219
3 220 58 218
3 222 221 219
3 219 59 222
3 221 60 219
3 222 19 221
3 224 223 218
3 218 58 224
3 223 59 218
3 224 18 223
3 226 225 220
3 220 60 226
3 225 58 220
3 226 17 225
3 229 227 228
3 228 62 229
3 227 59 228
3 229 61 227
3 223 230 228
3 228 59 223
3 230 62 228
3 223 18 230
3 231 222 227
3 227 61 231
3 222 59 227
3 231 19 222
3 233 232 229
3 229 62 233
3 232 61 229
3 233 5 232
3 236 234 235
3 235 64 236
3 234 58 235
3 236 63 234
3 225 237 235
3 235 58 225
3 237 64 235
3 225 17 237
3 238 224 234
3 234 63 238
3 224 58 234
3 238 18 224
3 240 239 236
3 236 64 240
3 239 63 236
3 240 6 239
3 243 241 242
3 242 66 243
3 241 60 242
3 243 65 241
3 221 244 242
3 242 60 221
3 244 66 242
3 221 19 244
3 245 226 241
3 241 65 245
3 226 60 241
3 245 17 226
3 247 246 243
3 243 66 247
3 246 65 243
3 247 11 246
3 250 248 249
3 249 69 250
3 248 68 249
3 250 67 248
3 252 251 249
3 249 68 252
3 251 69 249
3 252 18 251
3 254 253 248
3 248 67 254
3 253 68 248
3 254 21 253
3 256 255 250
3 250 69 256
3 255 67 250
3 256 20 255
3 259 257 258
3 258 70 259
3 257 68 258
3 259 62 257
3 253 260 258
3 258 68 253
3 260 70 258
3 253 21 260
3 230 252 257
3 257 62 230
3 252 68 257
3 230 18 252
3 261 233 259
3 259 70 261
3 233 62 259
3 261 5 233
3 264 262 263
3 263 72 264
3 262 67 263
3 264 71 262
3 255 265 263
3 263 67 255
3 265 72 263
3 255 20 265
3 266 254 262
3 262 71 266
3 254 67 262
3 266 21 254
3 268 267 264
3 264 72 268
3 267 71 264
3 268 10 267
3 271 269 270
3 270 63 271
3 269 69 270
3 271 73 269
3 251 238 270
3 270 69 251
3 238 63 270
3 251 18 238
3 272 256 269
3 269 73 272
3 256 69 269
3 272 20 256
3 239 273 271
3 271 63 239
3 273 73 271
3 239 6 273
3 276 274 275
3 275 76 276
3 274 75 275
3 276 74 274
3 278 277 275
3 275 75 278
3 277 76 275
3 278 24 277
3 280 279 274
3 274 74 280
3 279 75 274
3 280 23 279
3 282 281 276
3 276 76 282
3 281 74 276
3 282 22 281
3 285 283 284
3 284 78 285
3 283 75 284
3 285 77 283
3 279 286 284
3 284 75 279
3 286 78 284
3 279 23 286
3 287 278 283
3 283 77 287
3 278 75 283
3 287 24 278
3 289 288 285
3 285 78 289
3 288 77 285
3 289 0 288
3 292 290 291
3 291 80 292
3 290 74 291
3 292 79 290
3 281 293 291
3 291 74 281
3 293 80 291
3 281 22 293
3 294 280 290
3 290 79 294
3 280 74 290
3 294 23 280
3 296 295 292
3 292 80 296
3 295 79 292
3 296 4 295
3 299 297 298
3 298 82 299
3 297 76 298
3 299 81 297
3 277 300 298
3 298 76 277
3 300 82 298
3 277 24 300
3 301 282 297
3 297 81 301
3 282 76 297
3 301 22 282
3 303 302 299
3 299 82 303
3 302 81 299
3 303 3 302
3 306 304 305
3 305 85 306
3 304 84 305
3 306 83 304
3 308 307 305
3 305 84 308
3 307 85 305
3 308 26 307
3 310 309 304
3 304 83 310
3 309 84 304
3 310 24 309
3 312 311 306
3 306 85 312
3 311 83 306
3 312 25 311
3 315 313 314
3 314 77 315
3 313 84 314
3 315 86 313
3 309 287 314
3 314 84 309
3 287 77 314
3 309 24 287
3 316 308 313
3 313 86 316
3 308 84 313
3 316 26 308
3 288 317 315
3 315 77 288
3 317 86 315
3 288 0 317
3 320 318 319
3 319 87 320
3 318 83 319
3 320 82 318
3 311 321 319
3 319 83 311
3 321 87 319
3 311 25 321
3 300 310 318
3 318 82 300
3 310 83 318
3 300 24 310
3 322 303 320
3 320 87 322
3 303 82 320
3 322 3 303
3 325 323 324
3 324 89 325
3 323 85 324
3 325 88 323
3 307 326 324
3 324 85 307
3 326 89 324
3 307 26 326
3 327 312 323
3 323 88 327
3 312 85 323
3 327 25 312
3 329 328 325
3 325 89 329
3 328 88 325
3 329 5 328
3 332 330 331
3 331 92 332
3 330 91 331
3 332 90 330
3 334 333 331
3 331 91 334
3 333 92 331
3 334 29 333
3 336 335 330
3 330 90 336
3 335 91 330
3 336 28 335
3 338 337 332
3 332 92 338
3 337 90 332
3 338 27 337
3 341 339 340
3 340 94 341
3 339 91 340
3 341 93 339
3 335 342 340
3 340 91 335
3 342 94 340
3 335 28 342
3 343 334 339
3 339 93 343
3 334 91 339
3 343 29 334
3 345 344 341
3 341 94 345
3 344 93 341
3 345 2 344
3 348 346 347
3 347 96 348
3 346 90 347
3 348 95 346
3 337 349 347
3 347 90 337
3 349 96 347
3 337 27 349
3 350 336 346
3 346 95 350
3 336 90 346
3 350 28 336
3 352 351 348
3 348 96 352
3 351 95 348
3 352 7 351
3 355 353 354
3 354 98 355
3 353 92 354
3 355 97 353
3 333 356 354
3 354 92 333
3 356 98 354
3 333 29 356
3 357 338 353
3 353 97 357
3 338 92 353
3 357 27 338
3 359 358 355
3 355 98 359
3 358 97 355
3 359 1 358
3 362 360 361
3 361 101 362
3 360 100 361
3 362 99 360
3 364 363 361
3 361 100 364
3 363 101 361
3 364 31 363
3 366 365 360
3 360 99 366
3 365 100 360
3 366 29 365
3 368 367 362
3 362 101 368
3 367 99 362
3 368 30 367
3 371 369 370
3 370 93 371
3 369 100 370
3 371 102 369
3 365 343 370
3 370 100 365
3 343 93 370
3 365 29 343
3 372 364 369
3 369 102 372
3 364 100 369
3 372 31 364
3 344 373 371
3 371 93 344
3 373 102 371
3 344 2 373
3 376 374 375
3 375 103 376
3 374 99 375
3 376 98 374
3 367 377 375
3 375 99 367
3 377 103 375
3 367 30 377
3 356 366 374
3 374 98 356
3 366 99 374
3 356 29 366
3 378 359 376
3 376 103 378
3 359 98 376
3 378 1 359
3 381 379 380
3 380 105 381
3 379 101 380
3 381 104 379
3 363 382 380
3 380 101 363
3 382 105 380
3 363 31 382
3 383 368 379
3 379 104 383
3 368 101 379
3 383 30 368
3 385 384 381
3 381 105 385
3 384 104 381
3 385 6 384
3 388 386 387
3 387 108 388
3 386 107 387
3 388 106 386
3 390 389 387
3 387 107 390
3 389 108 387
3 390 34 389
3 392 391 386
3 386 106 392
3 391 107 386
3 392 33 391
3 394 393 388
3 388 108 394
3 393 106 388
3 394 32 393
3 397 395 396
3 396 110 397
3 395 107 396
3 397 109 395
3 391 398 396
3 396 107 391
3 398 110 396
3 391 33 398
3 399 390 395
3 395 109 399
3 390 107 395
3 399 34 390
3 401 400 397
3 397 110 401
3 400 109 397
3 401 8 400
3 404 402 403
3 403 112 404
3 402 106 403
3 404 111 402
3 393 405 403
3 403 106 393
3 405 112 403
3 393 32 405
3 406 392 402
3 402 111 406
3 392 106 402
3 406 33 392
3 408 407 404
3 404 112 408
3 407 111 404
3 408 0 407
3 411 409 410
3 410 114 411
3 409 108 410
3 411 113 409
3 389 412 410
3 410 108 389
3 412 114 410
3 389 34 412
3 413 394 409
3 409 113 413
3 394 108 409
3 413 32 394
3 415 414 411
3 411 114 415
3 414 113 411
3 415 11 414
3 418 416 417
3 417 117 418
3 416 116 417
3 418 115 416
3 420 419 417
3 417 116 420
3 419 117 417
3 420 36 419
3 422 421 416
3 416 115 422
3 421 116 416
3 422 34 421
3 424 423 418
3 418 117 424
3 423 115 418
3 424 35 423
3 427 425 426
3 426 109 427
3 425 116 426
3 427 118 425
3 421 399 426
3 426 116 421
3 399 109 426
3 421 34 399
3 428 420 425
3 425 118 428
3 420 116 425
3 428 36 420
3 400 429 427
3 427 109 400
3 429 118 427
3 400 8 429
3 432 430 431
3 431 119 432
3 430 115 431
3 432 114 430
3 423 433 431
3 431 115 423
3 433 119 431
3 423 35 433
3 412 422 430
3 430 114 412
3 422 115 430
3 412 34 422
3 434 415 432
3 432 119 434
3 415 114 432
3 434 11 415
3 437 435 436
3 436 121 437
3 435 117 436
3 437 120 435
3 419 438 436
3 436 117 419
3 438 121 436
3 419 36 438
3 439 424 435
3 435 120 439
3 424 117 435
3 439 35 424
3 441 440 437
3 437 121 441
3 440 120 437
3 441 1 440
3 444 442 443
3 443 124 444
3 442 123 443
3 444 122 442
3 446 445 443
3 443 123 446
3 445 124 443
3 446 39 445
3 448 447 442
3 442 122 448
3 447 123 442
3 448 38 447
3 450 449 444
3 444 124 450
3 449 122 444
3 450 37 449
3 453 451 452
3 452 126 453
3 451 123 452
3 453 125 451
3 447 454 452
3 452 123 447
3 454 126 452
3 447 38 454
3 455 446 451
3 451 125 455
3 446 123 451
3 455 39 446
3 457 456 453
3 453 126 457
3 456 125 453
3 457 9 456
3 460 458 459
3 459 128 460
3 458 122 459
3 460 127 458
3 449 461 459
3 459 122 449
3 461 128 459
3 449 37 461
3 462 448 458
3 458 127 462
3 448 122 458
3 462 38 448
3 464 463 460
3 460 128 464
3 463 127 460
3 464 10 463
3 467 465 466
3 466 130 467
3 465 124 466
3 467 129 465
3 445 468 466
3 466 124 445
3 468 130 466
3 445 39 468
3 469 450 465
3 465 129 469
3 450 124 465
3 469 37 450
3 471 470 467
3 467 130 471
3 470 129 467
3 471 3 470
3 474 472 473
3 473 133 474
3 472 132 473
3 474 131 472
3 476 475 473
3 473 132 476
3 475 133 473
3 476 38 475
3 478 477 472
3 472 131 478
3 477 132 472
3 478 41 477
3 480 479 474
3 474 133 480
3 479 131 474
3 480 40 479
3 483 481 482
3 482 134 483
3 481 132 482
3 483 126 481
3 477 484 482
3 482 132 477
3 484 134 482
3 477 41 484
3 454 476 481
3 481 126 454
3 476 132 481
3 454 38 476
3 485 457 483
3 483 134 485
3 457 126 483
3 485 9 457
3 488 486 487
3 487 136 488
3 486 131 487
3 488 135 486
3 479 489 487
3 487 131 479
3 489 136 487
3 479 40 489
3 490 478 486
3 486 135 490
3 478 131 486
3 490 41 478
3 492 491 488
3 488 136 492
3 491 135 488
3 492 2 491
3 495 493 494
3 494 127 495
3 493 133 494
3 495 137 493
3 475 462 494
3 494 133 475
3 462 127 494
3 475 38 462
3 496 480 493
3 493 137 496
3 480 133 493
3 496 40 480
3 463 497 495
3 495 127 463
3 497 137 495
3 463 10 497
3 500 498 499
3 499 140 500
3 498 139 499
3 500 138 498
3 502 501 499
3 499 139 502
3 501 140 499
3 502 33 501
3 504 503 498
3 498 138 504
3 503 139 498
3 504 13 503
3 506 505 500
3 500 140 506
3 505 138 500
3 506 23 505
3 509 507 508
3 508 47 509
3 507 139 508
3 509 110 507
3 503 182 508
3 508 139 503
3 182 47 508
3 503 13 182
3 398 502 507
3 507 110 398
3 502 139 507
3 398 33 502
3 183 401 509
3 509 47 183
3 401 110 509
3 183 8 401
3 512 510 511
3 511 79 512
3 510 138 511
3 512 46 510
3 505 294 511
3 511 138 505
3 294 79 511
3 505 23 294
3 174 504 510
3 510 46 174
3 504 138 510
3 174 13 504
3 295 177 512
3 512 79 295
3 177 46 512
3 295 4 177
3 515 513 514
3 514 111 515
3 513 140 514
3 515 78 513
3 501 406 514
3 514 140 501
3 406 111 514
3 501 33 406
3 286 506 513
3 513 78 286
3 506 140 513
3 286 23 506
3 407 289 515
3 515 111 407
3 289 78 515
3 407 0 289
3 518 516 517
3 517 143 518
3 516 142 517
3 518 141 516
3 520 519 517
3 517 142 520
3 519 143 517
3 520 19 519
3 522 521 516
3 516 141 522
3 521 142 516
3 522 32 521
3 524 523 518
3 518 143 524
3 523 141 518
3 524 26 523
3 527 525 526
3 526 113 527
3 525 142 526
3 527 66 525
3 521 413 526
3 526 142 521
3 413 113 526
3 521 32 413
3 244 520 525
3 525 66 244
3 520 142 525
3 244 19 520
3 414 247 527
3 527 113 414
3 247 66 527
3 414 11 247
3 530 528 529
3 529 86 530
3 528 141 529
3 530 112 528
3 523 316 529
3 529 141 523
3 316 86 529
3 523 26 316
3 405 522 528
3 528 112 405
3 522 141 528
3 405 32 522
3 317 408 530
3 530 86 317
3 408 112 530
3 317 0 408
3 533 531 532
3 532 61 533
3 531 143 532
3 533 89 531
3 519 231 532
3 532 143 519
3 231 61 532
3 519 19 231
3 326 524 531
3 531 89 326
3 524 143 531
3 326 26 524
3 232 329 533
3 533 61 232
3 329 89 533
3 232 5 329
3 536 534 535
3 535 146 536
3 534 145 535
3 536 144 534
3 538 537 535
3 535 145 538
3 537 146 535
3 538 22 537
3 540 539 534
3 534 144 540
3 539 145 534
3 540 16 539
3 542 541 536
3 536 146 542
3 541 144 536
3 542 39 541
3 545 543 544
3 544 54 545
3 543 145 544
3 545 80 543
3 539 204 544
3 544 145 539
3 204 54 544
3 539 16 204
3 293 538 543
3 543 80 293
3 538 145 543
3 293 22 538
3 205 296 545
3 545 54 205
3 296 80 545
3 205 4 296
3 548 546 547
3 547 125 548
3 546 144 547
3 548 57 546
3 541 455 547
3 547 144 541
3 455 125 547
3 541 39 455
3 214 540 546
3 546 57 214
3 540 144 546
3 214 16 540
3 456 217 548
3 548 125 456
3 217 57 548
3 456 9 217
3 551 549 550
3 550 81 551
3 549 146 550
3 551 130 549
3 537 301 550
3 550 146 537
3 301 81 550
3 537 22 301
3 468 542 549
3 549 130 468
3 542 146 549
3 468 39 542
3 302 471 551
3 551 81 302
3 471 130 551
3 302 3 471
3 554 552 553
3 553 149 554
3 552 148 553
3 554 147 552
3 556 555 553
3 553 148 556
3 555 149 553
3 556 21 555
3 558 557 552
3 552 147 558
3 557 148 552
3 558 25 557
3 560 559 554
3 554 149 560
3 559 147 554
3 560 37 559
3 563 561 562
3 562 88 563
3 561 148 562
3 563 70 561
3 557 327 562
3 562 148 557
3 327 88 562
3 557 25 327
3 260 556 561
3 561 70 260
3 556 148 561
3 260 21 556
3 328 261 563
3 563 88 328
3 261 70 563
3 328 5 261
3 566 564 565
3 565 129 566
3 564 147 565
3 566 87 564
3 559 469 565
3 565 147 559
3 469 129 565
3 559 37 469
3 321 558 564
3 564 87 321
3 558 147 564
3 321 25 558
3 470 322 566
3 566 129 470
3 322 87 566
3 470 3 322
3 569 567 568
3 568 71 569
3 567 149 568
3 569 128 567
3 555 266 568
3 568 149 555
3 266 71 568
3 555 21 266
3 461 560 567
3 567 128 461
3 560 149 567
3 461 37 560
3 267 464 569
3 569 71 267
3 464 128 569
3 267 10 464
3 572 570 571
3 571 152 572
3 570 151 571
3 572 150 570
3 574 573 571
3 571 151 574
3 573 152 571
3 574 27 573
3 576 575 570
3 570 150 576
3 575 151 570
3 576 12 575
3 578 577 572
3 572 152 578
3 577 150 572
3 578 36 577
3 581 579 580
3 580 49 581
3 579 151 580
3 581 96 579
3 575 189 580
3 580 151 575
3 189 49 580
3 575 12 189
3 349 574 579
3 579 96 349
3 574 151 579
3 349 27 574
3 190 352 581
3 581 49 190
3 352 96 581
3 190 7 352
3 584 582 583
3 583 118 584
3 582 150 583
3 584 48 582
3 577 428 583
3 583 150 577
3 428 118 583
3 577 36 428
3 181 576 582
3 582 48 181
3 576 150 582
3 181 12 576
3 429 184 584
3 584 118 429
3 184 48 584
3 429 8 184
3 587 585 586
3 586 97 587
3 585 152 586
3 587 121 585
3 573 357 586
3 586 152 573
3 357 97 586
3 573 27 357
3 438 578 585
3 585 121 438
3 578 152 585
3 438 36 578
3 358 441 587
3 587 97 358
3 441 121 587
3 358 1 441
3 590 588 589
3 589 155 590
3 588 154 589
3 590 153 588
3 592 591 589
3 589 154 592
3 591 155 589
3 592 17 591
3 594 593 588
3 588 153 594
3 593 154 588
3 594 30 593
3 596 595 590
3 590 155 596
3 595 153 590
3 596 35 595
3 599 597 598
3 598 104 599
3 597 154 598
3 599 64 597
3 593 383 598
3 598 154 593
3 383 104 598
3 593 30 383
3 237 592 597
3 597 64 237
3 592 154 597
3 237 17 592
3 384 240 599
3 599 104 384
3 240 64 599
3 384 6 240
3 602 600 601
3 601 120 602
3 600 153 601
3 602 103 600
3 595 439 601
3 601 153 595
3 439 120 601
3 595 35 439
3 377 594 600
3 600 103 377
3 594 153 600
3 377 30 594
3 440 378 602
3 602 120 440
3 378 103 602
3 440 1 378
3 605 603 604
3 604 65 605
3 603 155 604
3 605 119 603
3 591 245 604
3 604 155 591
3 245 65 604
3 591 17 245
3 433 596 603
3 603 119 433
3 596 155 603
3 433 35 596
3 246 434 605
3 605 65 246
3 434 119 605
3 246 11 434
3 608 606 607
3 607 158 608
3 606 157 607
3 608 156 606
3 610 609 607
3 607 157 610
3 609 158 607
3 610 15 609
3 612 611 606
3 606 156 612
3 611 157 606
3 612 28 611
3 614 613 608
3 608 158 614
3 613 156 608
3 614 41 613
3 617 615 616
3 616 95 617
3 615 157 616
3 617 55 615
3 611 350 616
3 616 157 611
3 350 95 616
3 611 28 350
3 209 610 615
3 615 55 209
3 610 157 615
3 209 15 610
3 351 210 617
3 617 95 351
3 210 55 617
3 351 7 210
3 620 618 619
3 619 135 620
3 618 156 619
3 620 94 618
3 613 490 619
3 619 156 613
3 490 135 619
3 613 41 490
3 342 612 618
3 618 94 342
3 612 156 618
3 342 28 612
3 491 345 620
3 620 135 491
3 345 94 620
3 491 2 345
3 623 621 622
3 622 56 623
3 621 158 622
3 623 134 621
3 609 215 622
3 622 158 609
3 215 56 622
3 609 15 215
3 484 614 621
3 621 134 484
3 614 158 621
3 484 41 614
3 216 485 623
3 623 56 216
3 485 134 623
3 216 9 485
3 626 624 625
3 625 161 626
3 624 160 625
3 626 159 624
3 628 627 625
3 625 160 628
3 627 161 625
3 628 31 627
3 630 629 624
3 624 159 630
3 629 160 624
3 630 20 629
3 632 631 626
3 626 161 632
3 631 159 626
3 632 40 631
3 635 633 634
3 634 73 635
3 633 160 634
3 635 105 633
3 629 272 634
3 634 160 629
3 272 73 634
3 629 20 272
3 382 628 633
3 633 105 382
3 628 160 633
3 382 31 628
3 273 385 635
3 635 73 273
3 385 105 635
3 273 6 385
3 638 636 637
3 637 137 638
3 636 159 637
3 638 72 636
3 631 496 637
3 637 159 631
3 496 137 637
3 631 40 496
3 265 630 636
3 636 72 265
3 630 159 636
3 265 20 630
3 497 268 638
3 638 137 497
3 268 72 638
3 497 10 268
3 641 639 640
3 640 102 641
3 639 161 640
3 641 136 639
3 627 372 640
3 640 161 627
3 372 102 640
3 627 31 372
3 489 632 639
3 639 136 489
3 632 161 639
3 489 40 632
3 373 492 641
3 641 102 373
3 492 136 641
3 373 2 492
