# vtk DataFile Version 3.0
this file was written using fslvtkio
ASCII
DATASET POLYDATA
POINTS 642 float
149.654 141.852 120.243
148.051 150.262 120.916
148.556 146.65 127.153
149.444 139.555 127.496
151.172 143.787 123.294
148.197 142.775 125.451
146.869 146.4 124.574
150.553 148.943 123.811
150.038 146.789 117.812
149.881 143.757 128.579
147.707 140.792 130.809
147.221 145.172 118.034
150.67 148.843 120.271
150.811 145.572 119.876
151.473 146.501 123.388
150.438 146.275 126.462
150.905 143.614 126.451
146.492 146.271 120.924
147.5 143.676 125.267
148.192 145.497 121.973
147.523 143.403 128.223
148.047 140.287 128.098
150.448 141.205 125.557
150.58 142.746 121.156
149.482 141.434 124.774
148.624 139.539 126.86
148.653 142.229 122.744
149.36 150.5 122.314
149.426 148.19 125.711
148.17 149.086 124.229
146.798 148.533 122.56
147.159 147.347 126.843
148.583 143.817 118.72
150.133 144.149 117.65
148.843 146.308 116.587
147.199 148.105 118.812
149.056 149.034 118.758
148.324 136.148 129.897
149.024 141.676 131.121
149.607 141.506 128.225
148.499 143.397 129.492
149.341 145.309 128.792
150.93 147.062 120.199
151.611 146.289 121.495
151.221 147.57 121.948
151.788 145.138 123.265
151.102 145.018 121.435
150.766 146.278 118.594
150.271 147.674 119.054
150.646 148.953 121.946
151.021 147.798 123.629
151.05 146.669 125.104
151.301 145.253 124.866
150.907 145.153 126.66
150.819 144 124.883
150.556 147.962 125.36
150.265 145.114 127.741
150.479 143.705 127.598
147.245 145.475 122.989
147.878 144.7 123.64
147.349 145.861 121.401
148.37 144.227 123.599
147.94 143.134 125.329
147.084 144.915 124.759
146.489 146.174 122.805
146.638 145.677 119.278
147.531 145.192 119.728
147.756 141.809 128.413
147.281 141.472 126.641
147.159 143.334 126.451
147.591 140.346 126.389
147.768 140.506 129.522
147.648 142.048 129.635
146.991 144.973 126.343
150.437 142.874 123.911
149.853 142.973 123.447
150.025 141.124 124.93
149.603 142.344 122.655
150.171 142.713 120.692
150.811 143.715 122.37
150.821 142.82 124.478
149.904 140.762 126.758
149.539 139.703 125.771
149.076 139.32 125.218
149.05 143.027 124.324
148.759 141.164 125.166
149.146 141.715 121.21
148.886 139.446 127.512
148.115 139.831 125.455
148.474 142.629 124.214
149.434 149.935 124.214
148.867 149.278 125.267
148.812 150.165 123.272
148.351 148.241 125.957
148.942 147.515 126.488
149.947 148.529 124.748
150.055 149.412 122.675
148.804 150.61 121.454
148.134 149.737 122.616
147.5 148.703 123.331
147.78 147.868 125.521
147.149 147.749 124.551
147.672 147.992 127.772
147.427 149.371 121.791
146.527 147.502 123.654
146.832 146.754 125.961
149.442 143.205 117.531
149.615 144.845 116.434
148.624 144.312 116.883
149.372 146.97 116.981
150.165 145.706 117.317
149.934 142.536 118.652
149.113 143.023 119.545
147.975 144.338 118.288
147.814 146.163 117.13
147.88 147.433 117.401
148.591 147.488 117.764
148.167 148.433 118.49
149.444 147.5 118.399
146.827 146.841 118.142
147.806 149.253 119.683
148.713 149.954 119.641
148.703 138.068 131.309
149.642 141.268 130.479
149.14 139.175 129.745
149.74 142.392 128.297
149.638 142.955 130.245
148.214 141.274 131.33
147.717 138.249 130.531
148.757 138.895 128.969
149.602 140.666 127.945
149.182 144.104 129.28
149.331 143.752 130.355
148.74 142.727 130.885
149.662 144.724 128.876
149.112 145.225 127.954
148.73 144.455 128.28
148.157 142.299 130.232
150.913 143.897 120.396
150.635 144.654 118.539
150.559 143.006 118.99
148.691 142.931 120.62
148.329 145.038 120.552
148.479 143.885 122.249
150.416 142.345 127.351
150.7 142.372 126.118
150.26 141.565 127.086
148.327 137.908 128.937
148.178 139.729 127.08
147.743 138.494 129.456
149.909 148.9 119.396
150.103 149.66 120.885
149.357 150.445 120.426
147.192 148.795 120.459
146.424 147.676 121.944
146.687 147.132 119.59
149.397 146.103 126.879
150.078 147.547 126.339
149.851 145.919 127.656
148.116 143.735 128.812
147.187 145.503 127.5
148.051 145.778 127.61
151.332 146.664 120.859
151.385 146.937 121.683
151.188 147.524 121
151.363 147.148 122.663
151.569 146.581 122.367
151.275 146.112 120.735
151.146 146.31 120.08
150.821 147.855 120.412
151.018 148.108 121.067
151.609 145.886 122.257
151.359 145.622 121.404
151.358 145.311 122.205
150.961 145.522 120.704
151.581 145.799 123.163
151.443 144.621 123.102
151.047 144.811 122.51
150.961 146.513 119.367
150.614 147.323 119.675
150.581 146.916 118.933
150.449 148.118 119.781
150.981 145.756 119.275
150.441 146.538 118.258
150.073 147.038 118.602
150.951 148.344 121.769
151.141 147.885 122.739
150.894 148.452 122.691
151.282 147.226 123.501
150.74 148.565 121.029
150.631 148.816 122.966
150.9 148.438 123.695
151.23 146.002 125.03
151.105 145.302 125.867
150.916 145.87 125.875
151.1 144.492 126.473
151.174 144.605 125.751
151.428 145.934 124.124
151.271 146.666 124.282
150.778 146.511 125.89
150.725 145.741 126.48
151.163 144.491 124.874
151.626 145.305 124.036
151.433 144.487 123.946
150.973 143.871 125.791
151.176 143.829 123.967
150.993 147.129 124.303
150.846 147.256 125.294
150.847 147.905 124.495
150.53 147.002 125.763
150.585 148.448 124.46
150.519 145.138 127.093
150.607 144.36 126.95
150.413 144.418 127.537
150.55 143.759 126.919
150.363 145.7 127.04
150.155 144.5 128.28
150.189 143.695 128.049
147.605 145.074 123.254
147.85 145.534 122.543
147.473 145.908 122.18
147.8 145.803 121.883
148.041 145.175 122.731
147.66 144.189 124.431
147.436 144.681 123.954
146.966 146.077 121.998
146.934 146.124 121.042
148.141 144.59 123.635
147.97 143.952 124.506
148.256 143.966 124.412
147.77 143.288 125.459
148.278 144.639 122.72
148.3 143.52 124.545
148.126 143.089 125.289
147.211 145.16 123.958
146.878 145.714 122.871
146.941 145.767 123.677
146.566 146.292 121.929
147.343 144.2 124.828
146.955 145.694 124.585
146.612 146.233 123.665
147.153 145.775 120.38
147.667 146.066 120.847
147.154 145.516 119.509
147.937 145.797 121.039
146.639 145.863 120.08
146.857 145.404 118.555
147.32 144.708 118.654
147.318 141.751 127.583
147.209 142.486 126.628
147.356 142.459 127.471
147.149 143.276 125.736
147.26 142.282 125.952
147.523 140.868 127.405
147.808 141.127 128.134
147.681 142.445 128.3
147.235 143.234 127.498
147.441 141.965 125.738
147.458 140.897 126.472
147.752 141.646 125.717
147.67 139.943 127.315
147.954 141.455 125.78
147.739 141.025 128.945
147.657 141.851 129.074
147.695 141.251 129.598
147.805 142.442 128.962
147.922 140.704 128.887
147.593 140.72 130.285
147.584 141.536 130.28
147.025 144.177 126.515
147.104 143.997 125.619
147.109 144.827 125.527
147.146 144.183 127.398
147.087 145.747 125.328
150.096 143.198 123.747
149.929 142.398 124.403
150.191 142.079 124.568
149.767 141.195 124.83
149.675 142.443 124.274
150.165 142.829 122.399
150.395 143.227 122.647
150.473 141.893 124.748
150.307 140.98 125.008
149.754 142.788 123.107
150.073 142.705 122.025
149.96 142.165 121.557
150.335 142.823 121.132
149.453 142.894 124.173
149.636 141.857 121.482
149.885 142.377 120.589
150.523 143.507 123.231
150.602 142.926 124.351
150.783 143.288 123.518
150.65 142.071 124.985
150.78 143.119 121.776
150.892 143.933 122.811
151.022 143.255 123.864
150.006 140.751 125.769
149.864 140.348 125.209
149.854 140.174 125.998
149.479 140.297 125.227
150.192 140.934 126.082
149.671 140.524 126.982
149.496 139.93 126.685
149.102 141.803 125.051
148.924 142.587 124.966
148.971 140.102 125.086
148.785 142.622 124.581
148.883 142.309 123.513
149.236 142.415 124.797
149.271 140.492 125.114
148.806 139.462 125.974
148.595 138.889 125.406
149.109 142.298 122.693
149.302 142.691 123.559
149.367 141.811 121.982
148.93 141.841 121.988
149.374 141.977 120.862
149.273 139.525 125.663
148.987 139.539 126.436
149.186 139.751 126.633
148.725 139.684 127.428
149.202 139.344 127.345
148.471 140.206 125.406
148.628 142.15 125.116
148.507 142.262 125.452
148.596 142.208 123.641
148.403 139.16 126.088
148.188 141.836 125.477
148.469 143.104 124.998
149.129 149.799 124.735
148.846 150.064 124.356
149.164 150.47 123.834
148.49 149.884 123.919
148.603 149.524 124.677
149.147 148.942 125.476
149.397 148.936 124.925
149.37 150.507 123.317
149.114 150.884 122.882
148.611 148.661 125.435
148.859 148.532 125.907
148.612 148.112 126.386
149.14 148.07 126.124
148.291 148.85 125.056
148.304 148.076 126.97
148.75 147.037 126.831
149.694 149.115 124.335
149.697 149.861 123.396
149.998 149.249 123.754
149.67 149.935 122.471
149.681 148.255 125.176
150.214 148.632 124.169
150.34 149.166 123.115
148.805 150.567 122.386
148.371 150.197 123.039
148.435 150.006 122.022
148.137 149.433 123.445
149.092 150.816 121.883
148.438 150.221 121.203
148.095 149.908 121.742
147.779 148.366 124.365
147.539 147.86 124.99
147.384 148.359 124.054
147.25 147.511 125.536
147.473 147.63 126.231
148.011 148.371 124.768
147.865 148.754 123.839
147.107 148.728 122.89
147.025 148.212 123.655
147.783 147.869 126.54
148.107 148.08 125.689
147.982 148.082 126.997
147.492 147.731 127.304
148.118 147.51 127.536
147.774 149.459 123.119
147.439 149.067 122.539
147.817 149.422 122.242
147.099 148.941 122.031
147.779 149.714 121.38
146.873 147.726 124.124
146.847 147.33 125.295
146.619 147.11 124.844
146.953 147.13 126.305
146.681 148.064 123.195
146.451 146.737 124.198
146.92 146.31 125.298
149.581 143.352 116.449
149.157 144.457 116.647
149.133 143.291 116.807
148.744 145.331 116.769
149.361 145.301 116.229
149.945 144.23 116.614
149.775 143.632 117.161
149.007 143.433 117.925
148.678 143.42 117.297
149.556 146.094 116.322
149.925 145.413 116.657
149.762 146.414 116.889
150.141 144.874 117.384
149.225 146.804 116.464
149.589 146.971 117.553
150.111 146.422 117.377
149.719 143.035 117.996
149.25 143.031 118.49
149.543 142.648 118.958
148.89 143.374 118.947
150.091 143.158 117.9
149.834 142.136 119.392
149.416 141.975 119.673
148.257 144.287 117.505
148.215 145.464 117.147
147.841 145.152 117.675
148.309 146.13 116.742
148.33 144.178 118.531
147.62 144.534 118.078
147.448 145.872 117.636
148.255 147.537 117.424
148.479 148.265 118.04
147.924 148.116 117.966
148.53 148.87 118.578
148.768 148.137 118.346
148.723 147.268 116.928
148.358 146.969 116.867
147.535 147.829 118.046
147.619 148.679 118.475
148.971 147.578 118.197
148.951 147.237 117.394
149.263 147.277 117.831
149.276 148.236 118.538
149.805 147.221 118.166
147.871 147.08 116.941
147.337 147.333 117.608
147.375 146.423 117.296
147.1 147.624 118.445
146.944 146.079 117.918
147.972 149.241 118.962
148.507 149.487 119.038
148.154 150.337 119.731
148.938 149.578 119.132
147.491 148.732 119.222
147.938 149.936 120.377
148.398 150.364 120.351
149.442 139.945 131.292
149.497 140.217 130.123
149.362 138.236 130.944
149.281 140.452 129.175
149.473 141.111 129.329
149.402 141.035 131.236
148.906 139.801 131.161
148.659 136.253 130.962
149.025 137.246 130.259
149.625 141.787 129.374
149.568 141.919 130.538
149.506 142.432 129.269
149.389 142.334 130.977
149.626 141.788 128.347
149.804 142.961 128.305
149.547 143.253 128.99
148.344 139.668 131.408
148.166 137.503 131.284
147.866 139.097 131.33
148.047 137.045 130.518
148.676 141.488 131.276
147.914 141.384 131.147
147.601 139.849 130.84
148.897 139.155 129.289
149.288 140.13 128.654
149.169 140.065 128.454
149.434 141.099 128.175
148.55 137.397 129.44
149.192 139.225 128.28
149.678 140.131 127.709
149.274 144.001 129.783
149.065 143.233 130.785
149.058 143.474 130.091
148.969 142.47 131.077
149.267 142.723 130.827
149.561 144.662 129.641
149.377 145.008 129.176
148.967 143.559 129.502
148.866 143.191 129.95
149.512 143.368 130.404
149.588 144.236 129.759
149.489 143.81 129.37
149.46 144.779 128.799
149.781 144.354 128.809
149.024 144.603 128.667
148.937 143.987 128.785
148.972 144.583 128.136
148.649 143.801 129.015
149.187 145.47 128.499
148.963 145.613 127.279
148.694 145.361 127.455
148.507 142.807 130.533
148.571 142.035 131.256
148.11 142.043 131.099
148.461 142.851 129.834
147.897 141.718 130.479
150.875 144.044 119.304
150.73 143.551 118.658
150.755 143.249 119.674
150.46 143.172 118.116
150.429 144.418 118.147
150.658 145.065 119.215
150.843 144.804 120.064
150.756 143.358 120.781
150.581 142.809 120.045
150.322 145.376 118.132
150.571 145.702 118.709
150.428 146.207 117.965
151.055 144.562 120.913
151.076 143.415 121.227
151.053 144.177 121.939
150.395 142.673 119.706
150.259 142.88 118.629
150.154 142.258 119.449
148.511 144.126 120.617
148.401 144.452 121.402
148.527 143.224 121.37
148.371 144.713 122.193
148.253 145.259 121.365
148.422 144.137 119.431
148.711 143.841 119.9
148.738 142.345 121.527
148.569 143.026 122.493
147.997 145.161 120.322
148.104 144.355 119.333
147.719 144.565 119.011
148.871 143.003 120.028
148.866 142.184 120.946
149.161 141.907 120.224
148.446 143.019 123.025
148.428 144.157 122.968
148.373 143.264 123.776
150.615 142.302 126.751
150.634 141.604 126.455
150.336 141.669 127.253
150.409 141.594 126.251
150.569 142.107 125.877
150.873 142.951 126.224
150.646 142.971 126.797
150.082 141.919 127.876
149.98 141.396 127.693
150.596 142.665 125.454
150.67 143.205 125.581
150.851 143.211 124.71
150.459 142.989 127.253
150.069 142.321 127.863
150.144 142.937 127.847
149.972 140.881 127.635
150.144 141.288 126.975
149.935 140.603 127.359
148.333 139.22 128.644
148.176 139.195 128.951
148.038 138.302 129.338
148.04 139.726 128.958
147.953 139.663 127.546
148.342 139.502 127.254
148.551 139.646 128.282
148.23 136.378 129.373
147.762 137.223 129.95
147.793 139.919 126.49
148.18 139.83 126.205
147.998 140.671 125.731
148.646 138.909 128.234
148.476 138.604 129.175
148.986 138.873 128.183
147.623 138.406 130.012
147.957 139.931 129.319
147.509 139.938 130.168
150.065 149.515 120.18
149.674 149.914 120.68
149.653 149.579 119.85
149.376 150.401 121.357
149.684 149.834 121.465
150.497 149.398 120.594
150.223 148.753 119.83
149.42 148.827 119.234
149.312 149.916 119.597
150.038 149.466 121.737
150.393 149.106 121.265
150.378 149.26 122.285
150.08 148.264 119.273
149.542 148.018 118.992
149.8 147.729 118.75
148.996 150.349 119.892
149.121 150.299 120.833
148.794 150.323 120.574
146.607 148.398 121.096
146.459 147.569 120.807
146.659 148.24 120.295
146.386 146.765 120.317
146.477 146.97 121.523
146.611 148.56 122.082
146.876 149.12 121.38
147.126 148.53 119.702
146.772 148.066 119.314
146.362 146.796 122.473
146.507 147.799 122.822
146.345 146.807 123.416
147.31 149.248 121.109
147.475 148.962 120.085
147.645 149.488 120.685
146.794 147.35 118.801
146.473 146.332 119.663
146.673 145.947 118.546
149.639 146.755 126.545
149.896 146.543 126.859
149.571 146.017 127.366
150.137 146.123 127.027
150.274 146.978 126.411
149.78 147.678 126.039
149.458 147.62 126.305
149.399 145.711 128.013
149.627 145.923 128.43
150.294 147.776 125.874
149.944 148.001 125.508
150.258 148.152 124.921
149.219 146.963 126.65
149.245 145.551 127.237
149.05 146.423 127.061
149.801 145.566 128.509
150.076 145.709 127.795
149.988 145.067 128.443
147.43 144.933 128.185
147.467 145.922 127.679
148.146 144.803 128.206
147.449 146.938 127.455
147.08 146.757 127.225
147.419 144.427 127.874
147.776 143.443 128.62
148.253 143.898 129.011
148.507 144.123 128.445
147.055 146.213 126.689
147.165 145.192 126.957
147.065 145.853 126.087
147.884 142.975 129.262
148.294 143.187 129.505
147.849 142.592 129.929
148.45 144.998 127.9
147.873 146.711 127.572
148.349 146.108 127.475
POLYGONS 1280  5120
3 164 162 163
3 163 44 164
3 162 43 163
3 164 42 162
3 166 165 163
3 163 43 166
3 165 44 163
3 166 14 165
3 168 167 162
3 162 42 168
3 167 43 162
3 168 13 167
3 170 169 164
3 164 44 170
3 169 42 164
3 170 12 169
3 173 171 172
3 172 46 173
3 171 43 172
3 173 45 171
3 167 174 172
3 172 43 167
3 174 46 172
3 167 13 174
3 175 166 171
3 171 45 175
3 166 43 171
3 175 14 166
3 177 176 173
3 173 46 177
3 176 45 173
3 177 4 176
3 180 178 179
3 179 48 180
3 178 42 179
3 180 47 178
3 169 181 179
3 179 42 169
3 181 48 179
3 169 12 181
3 182 168 178
3 178 47 182
3 168 42 178
3 182 13 168
3 184 183 180
3 180 48 184
3 183 47 180
3 184 8 183
3 187 185 186
3 186 50 187
3 185 44 186
3 187 49 185
3 165 188 186
3 186 44 165
3 188 50 186
3 165 14 188
3 189 170 185
3 185 49 189
3 170 44 185
3 189 12 170
3 191 190 187
3 187 50 191
3 190 49 187
3 191 7 190
3 194 192 193
3 193 53 194
3 192 52 193
3 194 51 192
3 196 195 193
3 193 52 196
3 195 53 193
3 196 16 195
3 198 197 192
3 192 51 198
3 197 52 192
3 198 14 197
3 200 199 194
3 194 53 200
3 199 51 194
3 200 15 199
3 203 201 202
3 202 45 203
3 201 52 202
3 203 54 201
3 197 175 202
3 202 52 197
3 175 45 202
3 197 14 175
3 204 196 201
3 201 54 204
3 196 52 201
3 204 16 196
3 176 205 203
3 203 45 176
3 205 54 203
3 176 4 205
3 208 206 207
3 207 55 208
3 206 51 207
3 208 50 206
3 199 209 207
3 207 51 199
3 209 55 207
3 199 15 209
3 188 198 206
3 206 50 188
3 198 51 206
3 188 14 198
3 210 191 208
3 208 55 210
3 191 50 208
3 210 7 191
3 213 211 212
3 212 57 213
3 211 53 212
3 213 56 211
3 195 214 212
3 212 53 195
3 214 57 212
3 195 16 214
3 215 200 211
3 211 56 215
3 200 53 211
3 215 15 200
3 217 216 213
3 213 57 217
3 216 56 213
3 217 9 216
3 220 218 219
3 219 60 220
3 218 59 219
3 220 58 218
3 222 221 219
3 219 59 222
3 221 60 219
3 222 19 221
3 224 223 218
3 218 58 224
3 223 59 218
3 224 18 223
3 226 225 220
3 220 60 226
3 225 58 220
3 226 17 225
3 229 227 228
3 228 62 229
3 227 59 228
3 229 61 227
3 223 230 228
3 228 59 223
3 230 62 228
3 223 18 230
3 231 222 227
3 227 61 231
3 222 59 227
3 231 19 222
3 233 232 229
3 229 62 233
3 232 61 229
3 233 5 232
3 236 234 235
3 235 64 236
3 234 58 235
3 236 63 234
3 225 237 235
3 235 58 225
3 237 64 235
3 225 17 237
3 238 224 234
3 234 63 238
3 224 58 234
3 238 18 224
3 240 239 236
3 236 64 240
3 239 63 236
3 240 6 239
3 243 241 242
3 242 66 243
3 241 60 242
3 243 65 241
3 221 244 242
3 242 60 221
3 244 66 242
3 221 19 244
3 245 226 241
3 241 65 245
3 226 60 241
3 245 17 226
3 247 246 243
3 243 66 247
3 246 65 243
3 247 11 246
3 250 248 249
3 249 69 250
3 248 68 249
3 250 67 248
3 252 251 249
3 249 68 252
3 251 69 249
3 252 18 251
3 254 253 248
3 248 67 254
3 253 68 248
3 254 21 253
3 256 255 250
3 250 69 256
3 255 67 250
3 256 20 255
3 259 257 258
3 258 70 259
3 257 68 258
3 259 62 257
3 253 260 258
3 258 68 253
3 260 70 258
3 253 21 260
3 230 252 257
3 257 62 230
3 252 68 257
3 230 18 252
3 261 233 259
3 259 70 261
3 233 62 259
3 261 5 233
3 264 262 263
3 263 72 264
3 262 67 263
3 264 71 262
3 255 265 263
3 263 67 255
3 265 72 263
3 255 20 265
3 266 254 262
3 262 71 266
3 254 67 262
3 266 21 254
3 268 267 264
3 264 72 268
3 267 71 264
3 268 10 267
3 271 269 270
3 270 63 271
3 269 69 270
3 271 73 269
3 251 238 270
3 270 69 251
3 238 63 270
3 251 18 238
3 272 256 269
3 269 73 272
3 256 69 269
3 272 20 256
3 239 273 271
3 271 63 239
3 273 73 271
3 239 6 273
3 276 274 275
3 275 76 276
3 274 75 275
3 276 74 274
3 278 277 275
3 275 75 278
3 277 76 275
3 278 24 277
3 280 279 274
3 274 74 280
3 279 75 274
3 280 23 279
3 282 281 276
3 276 76 282
3 281 74 276
3 282 22 281
3 285 283 284
3 284 78 285
3 283 75 284
3 285 77 283
3 279 286 284
3 284 75 279
3 286 78 284
3 279 23 286
3 287 278 283
3 283 77 287
3 278 75 283
3 287 24 278
3 289 288 285
3 285 78 289
3 288 77 285
3 289 0 288
3 292 290 291
3 291 80 292
3 290 74 291
3 292 79 290
3 281 293 291
3 291 74 281
3 293 80 291
3 281 22 293
3 294 280 290
3 290 79 294
3 280 74 290
3 294 23 280
3 296 295 292
3 292 80 296
3 295 79 292
3 296 4 295
3 299 297 298
3 298 82 299
3 297 76 298
3 299 81 297
3 277 300 298
3 298 76 277
3 300 82 298
3 277 24 300
3 301 282 297
3 297 81 301
3 282 76 297
3 301 22 282
3 303 302 299
3 299 82 303
3 302 81 299
3 303 3 302
3 306 304 305
3 305 85 306
3 304 84 305
3 306 83 304
3 308 307 305
3 305 84 308
3 307 85 305
3 308 26 307
3 310 309 304
3 304 83 310
3 309 84 304
3 310 24 309
3 312 311 306
3 306 85 312
3 311 83 306
3 312 25 311
3 315 313 314
3 314 77 315
3 313 84 314
3 315 86 313
3 309 287 314
3 314 84 309
3 287 77 314
3 309 24 287
3 316 308 313
3 313 86 316
3 308 84 313
3 316 26 308
3 288 317 315
3 315 77 288
3 317 86 315
3 288 0 317
3 320 318 319
3 319 87 320
3 318 83 319
3 320 82 318
3 311 321 319
3 319 83 311
3 321 87 319
3 311 25 321
3 300 310 318
3 318 82 300
3 310 83 318
3 300 24 310
3 322 303 320
3 320 87 322
3 303 82 320
3 322 3 303
3 325 323 324
3 324 89 325
3 323 85 324
3 325 88 323
3 307 326 324
3 324 85 307
3 326 89 324
3 307 26 326
3 327 312 323
3 323 88 327
3 312 85 323
3 327 25 312
3 329 328 325
3 325 89 329
3 328 88 325
3 329 5 328
3 332 330 331
3 331 92 332
3 330 91 331
3 332 90 330
3 334 333 331
3 331 91 334
3 333 92 331
3 334 29 333
3 336 335 330
3 330 90 336
3 335 91 330
3 336 28 335
3 338 337 332
3 332 92 338
3 337 90 332
3 338 27 337
3 341 339 340
3 340 94 341
3 339 91 340
3 341 93 339
3 335 342 340
3 340 91 335
3 342 94 340
3 335 28 342
3 343 334 339
3 339 93 343
3 334 91 339
3 343 29 334
3 345 344 341
3 341 94 345
3 344 93 341
3 345 2 344
3 348 346 347
3 347 96 348
3 346 90 347
3 348 95 346
3 337 349 347
3 347 90 337
3 349 96 347
3 337 27 349
3 350 336 346
3 346 95 350
3 336 90 346
3 350 28 336
3 352 351 348
3 348 96 352
3 351 95 348
3 352 7 351
3 355 353 354
3 354 98 355
3 353 92 354
3 355 97 353
3 333 356 354
3 354 92 333
3 356 98 354
3 333 29 356
3 357 338 353
3 353 97 357
3 338 92 353
3 357 27 338
3 359 358 355
3 355 98 359
3 358 97 355
3 359 1 358
3 362 360 361
3 361 101 362
3 360 100 361
3 362 99 360
3 364 363 361
3 361 100 364
3 363 101 361
3 364 31 363
3 366 365 360
3 360 99 366
3 365 100 360
3 366 29 365
3 368 367 362
3 362 101 368
3 367 99 362
3 368 30 367
3 371 369 370
3 370 93 371
3 369 100 370
3 371 102 369
3 365 343 370
3 370 100 365
3 343 93 370
3 365 29 343
3 372 364 369
3 369 102 372
3 364 100 369
3 372 31 364
3 344 373 371
3 371 93 344
3 373 102 371
3 344 2 373
3 376 374 375
3 375 103 376
3 374 99 375
3 376 98 374
3 367 377 375
3 375 99 367
3 377 103 375
3 367 30 377
3 356 366 374
3 374 98 356
3 366 99 374
3 356 29 366
3 378 359 376
3 376 103 378
3 359 98 376
3 378 1 359
3 381 379 380
3 380 105 381
3 379 101 380
3 381 104 379
3 363 382 380
3 380 101 363
3 382 105 380
3 363 31 382
3 383 368 379
3 379 104 383
3 368 101 379
3 383 30 368
3 385 384 381
3 381 105 385
3 384 104 381
3 385 6 384
3 388 386 387
3 387 108 388
3 386 107 387
3 388 106 386
3 390 389 387
3 387 107 390
3 389 108 387
3 390 34 389
3 392 391 386
3 386 106 392
3 391 107 386
3 392 33 391
3 394 393 388
3 388 108 394
3 393 106 388
3 394 32 393
3 397 395 396
3 396 110 397
3 395 107 396
3 397 109 395
3 391 398 396
3 396 107 391
3 398 110 396
3 391 33 398
3 399 390 395
3 395 109 399
3 390 107 395
3 399 34 390
3 401 400 397
3 397 110 401
3 400 109 397
3 401 8 400
3 404 402 403
3 403 112 404
3 402 106 403
3 404 111 402
3 393 405 403
3 403 106 393
3 405 112 403
3 393 32 405
3 406 392 402
3 402 111 406
3 392 106 402
3 406 33 392
3 408 407 404
3 404 112 408
3 407 111 404
3 408 0 407
3 411 409 410
3 410 114 411
3 409 108 410
3 411 113 409
3 389 412 410
3 410 108 389
3 412 114 410
3 389 34 412
3 413 394 409
3 409 113 413
3 394 108 409
3 413 32 394
3 415 414 411
3 411 114 415
3 414 113 411
3 415 11 414
3 418 416 417
3 417 117 418
3 416 116 417
3 418 115 416
3 420 419 417
3 417 116 420
3 419 117 417
3 420 36 419
3 422 421 416
3 416 115 422
3 421 116 416
3 422 34 421
3 424 423 418
3 418 117 424
3 423 115 418
3 424 35 423
3 427 425 426
3 426 109 427
3 425 116 426
3 427 118 425
3 421 399 426
3 426 116 421
3 399 109 426
3 421 34 399
3 428 420 425
3 425 118 428
3 420 116 425
3 428 36 420
3 400 429 427
3 427 109 400
3 429 118 427
3 400 8 429
3 432 430 431
3 431 119 432
3 430 115 431
3 432 114 430
3 423 433 431
3 431 115 423
3 433 119 431
3 423 35 433
3 412 422 430
3 430 114 412
3 422 115 430
3 412 34 422
3 434 415 432
3 432 119 434
3 415 114 432
3 434 11 415
3 437 435 436
3 436 121 437
3 435 117 436
3 437 120 435
3 419 438 436
3 436 117 419
3 438 121 436
3 419 36 438
3 439 424 435
3 435 120 439
3 424 117 435
3 439 35 424
3 441 440 437
3 437 121 441
3 440 120 437
3 441 1 440
3 444 442 443
3 443 124 444
3 442 123 443
3 444 122 442
3 446 445 443
3 443 123 446
3 445 124 443
3 446 39 445
3 448 447 442
3 442 122 448
3 447 123 442
3 448 38 447
3 450 449 444
3 444 124 450
3 449 122 444
3 450 37 449
3 453 451 452
3 452 126 453
3 451 123 452
3 453 125 451
3 447 454 452
3 452 123 447
3 454 126 452
3 447 38 454
3 455 446 451
3 451 125 455
3 446 123 451
3 455 39 446
3 457 456 453
3 453 126 457
3 456 125 453
3 457 9 456
3 460 458 459
3 459 128 460
3 458 122 459
3 460 127 458
3 449 461 459
3 459 122 449
3 461 128 459
3 449 37 461
3 462 448 458
3 458 127 462
3 448 122 458
3 462 38 448
3 464 463 460
3 460 128 464
3 463 127 460
3 464 10 463
3 467 465 466
3 466 130 467
3 465 124 466
3 467 129 465
3 445 468 466
3 466 124 445
3 468 130 466
3 445 39 468
3 469 450 465
3 465 129 469
3 450 124 465
3 469 37 450
3 471 470 467
3 467 130 471
3 470 129 467
3 471 3 470
3 474 472 473
3 473 133 474
3 472 132 473
3 474 131 472
3 476 475 473
3 473 132 476
3 475 133 473
3 476 38 475
3 478 477 472
3 472 131 478
3 477 132 472
3 478 41 477
3 480 479 474
3 474 133 480
3 479 131 474
3 480 40 479
3 483 481 482
3 482 134 483
3 481 132 482
3 483 126 481
3 477 484 482
3 482 132 477
3 484 134 482
3 477 41 484
3 454 476 481
3 481 126 454
3 476 132 481
3 454 38 476
3 485 457 483
3 483 134 485
3 457 126 483
3 485 9 457
3 488 486 487
3 487 136 488
3 486 131 487
3 488 135 486
3 479 489 487
3 487 131 479
3 489 136 487
3 479 40 489
3 490 478 486
3 486 135 490
3 478 131 486
3 490 41 478
3 492 491 488
3 488 136 492
3 491 135 488
3 492 2 491
3 495 493 494
3 494 127 495
3 493 133 494
3 495 137 493
3 475 462 494
3 494 133 475
3 462 127 494
3 475 38 462
3 496 480 493
3 493 137 496
3 480 133 493
3 496 40 480
3 463 497 495
3 495 127 463
3 497 137 495
3 463 10 497
3 500 498 499
3 499 140 500
3 498 139 499
3 500 138 498
3 502 501 499
3 499 139 502
3 501 140 499
3 502 33 501
3 504 503 498
3 498 138 504
3 503 139 498
3 504 13 503
3 506 505 500
3 500 140 506
3 505 138 500
3 506 23 505
3 509 507 508
3 508 47 509
3 507 139 508
3 509 110 507
3 503 182 508
3 508 139 503
3 182 47 508
3 503 13 182
3 398 502 507
3 507 110 398
3 502 139 507
3 398 33 502
3 183 401 509
3 509 47 183
3 401 110 509
3 183 8 401
3 512 510 511
3 511 79 512
3 510 138 511
3 512 46 510
3 505 294 511
3 511 138 505
3 294 79 511
3 505 23 294
3 174 504 510
3 510 46 174
3 504 138 510
3 174 13 504
3 295 177 512
3 512 79 295
3 177 46 512
3 295 4 177
3 515 513 514
3 514 111 515
3 513 140 514
3 515 78 513
3 501 406 514
3 514 140 501
3 406 111 514
3 501 33 406
3 286 506 513
3 513 78 286
3 506 140 513
3 286 23 506
3 407 289 515
3 515 111 407
3 289 78 515
3 407 0 289
3 518 516 517
3 517 143 518
3 516 142 517
3 518 141 516
3 520 519 517
3 517 142 520
3 519 143 517
3 520 19 519
3 522 521 516
3 516 141 522
3 521 142 516
3 522 32 521
3 524 523 518
3 518 143 524
3 523 141 518
3 524 26 523
3 527 525 526
3 526 113 527
3 525 142 526
3 527 66 525
3 521 413 526
3 526 142 521
3 413 113 526
3 521 32 413
3 244 520 525
3 525 66 244
3 520 142 525
3 244 19 520
3 414 247 527
3 527 113 414
3 247 66 527
3 414 11 247
3 530 528 529
3 529 86 530
3 528 141 529
3 530 112 528
3 523 316 529
3 529 141 523
3 316 86 529
3 523 26 316
3 405 522 528
3 528 112 405
3 522 141 528
3 405 32 522
3 317 408 530
3 530 86 317
3 408 112 530
3 317 0 408
3 533 531 532
3 532 61 533
3 531 143 532
3 533 89 531
3 519 231 532
3 532 143 519
3 231 61 532
3 519 19 231
3 326 524 531
3 531 89 326
3 524 143 531
3 326 26 524
3 232 329 533
3 533 61 232
3 329 89 533
3 232 5 329
3 536 534 535
3 535 146 536
3 534 145 535
3 536 144 534
3 538 537 535
3 535 145 538
3 537 146 535
3 538 22 537
3 540 539 534
3 534 144 540
3 539 145 534
3 540 16 539
3 542 541 536
3 536 146 542
3 541 144 536
3 542 39 541
3 545 543 544
3 544 54 545
3 543 145 544
3 545 80 543
3 539 204 544
3 544 145 539
3 204 54 544
3 539 16 204
3 293 538 543
3 543 80 293
3 538 145 543
3 293 22 538
3 205 296 545
3 545 54 205
3 296 80 545
3 205 4 296
3 548 546 547
3 547 125 548
3 546 144 547
3 548 57 546
3 541 455 547
3 547 144 541
3 455 125 547
3 541 39 455
3 214 540 546
3 546 57 214
3 540 144 546
3 214 16 540
3 456 217 548
3 548 125 456
3 217 57 548
3 456 9 217
3 551 549 550
3 550 81 551
3 549 146 550
3 551 130 549
3 537 301 550
3 550 146 537
3 301 81 550
3 537 22 301
3 468 542 549
3 549 130 468
3 542 146 549
3 468 39 542
3 302 471 551
3 551 81 302
3 471 130 551
3 302 3 471
3 554 552 553
3 553 149 554
3 552 148 553
3 554 147 552
3 556 555 553
3 553 148 556
3 555 149 553
3 556 21 555
3 558 557 552
3 552 147 558
3 557 148 552
3 558 25 557
3 560 559 554
3 554 149 560
3 559 147 554
3 560 37 559
3 563 561 562
3 562 88 563
3 561 148 562
3 563 70 561
3 557 327 562
3 562 148 557
3 327 88 562
3 557 25 327
3 260 556 561
3 561 70 260
3 556 148 561
3 260 21 556
3 328 261 563
3 563 88 328
3 261 70 563
3 328 5 261
3 566 564 565
3 565 129 566
3 564 147 565
3 566 87 564
3 559 469 565
3 565 147 559
3 469 129 565
3 559 37 469
3 321 558 564
3 564 87 321
3 558 147 564
3 321 25 558
3 470 322 566
3 566 129 470
3 322 87 566
3 470 3 322
3 569 567 568
3 568 71 569
3 567 149 568
3 569 128 567
3 555 266 568
3 568 149 555
3 266 71 568
3 555 21 266
3 461 560 567
3 567 128 461
3 560 149 567
3 461 37 560
3 267 464 569
3 569 71 267
3 464 128 569
3 267 10 464
3 572 570 571
3 571 152 572
3 570 151 571
3 572 150 570
3 574 573 571
3 571 151 574
3 573 152 571
3 574 27 573
3 576 575 570
3 570 150 576
3 575 151 570
3 576 12 575
3 578 577 572
3 572 152 578
3 577 150 572
3 578 36 577
3 581 579 580
3 580 49 581
3 579 151 580
3 581 96 579
3 575 189 580
3 580 151 575
3 189 49 580
3 575 12 189
3 349 574 579
3 579 96 349
3 574 151 579
3 349 27 574
3 190 352 581
3 581 49 190
3 352 96 581
3 190 7 352
3 584 582 583
3 583 118 584
3 582 150 583
3 584 48 582
3 577 428 583
3 583 150 577
3 428 118 583
3 577 36 428
3 181 576 582
3 582 48 181
3 576 150 582
3 181 12 576
3 429 184 584
3 584 118 429
3 184 48 584
3 429 8 184
3 587 585 586
3 586 97 587
3 585 152 586
3 587 121 585
3 573 357 586
3 586 152 573
3 357 97 586
3 573 27 357
3 438 578 585
3 585 121 438
3 578 152 585
3 438 36 578
3 358 441 587
3 587 97 358
3 441 121 587
3 358 1 441
3 590 588 589
3 589 155 590
3 588 154 589
3 590 153 588
3 592 591 589
3 589 154 592
3 591 155 589
3 592 17 591
3 594 593 588
3 588 153 594
3 593 154 588
3 594 30 593
3 596 595 590
3 590 155 596
3 595 153 590
3 596 35 595
3 599 597 598
3 598 104 599
3 597 154 598
3 599 64 597
3 593 383 598
3 598 154 593
3 383 104 598
3 593 30 383
3 237 592 597
3 597 64 237
3 592 154 597
3 237 17 592
3 384 240 599
3 599 104 384
3 240 64 599
3 384 6 240
3 602 600 601
3 601 120 602
3 600 153 601
3 602 103 600
3 595 439 601
3 601 153 595
3 439 120 601
3 595 35 439
3 377 594 600
3 600 103 377
3 594 153 600
3 377 30 594
3 440 378 602
3 602 120 440
3 378 103 602
3 440 1 378
3 605 603 604
3 604 65 605
3 603 155 604
3 605 119 603
3 591 245 604
3 604 155 591
3 245 65 604
3 591 17 245
3 433 596 603
3 603 119 433
3 596 155 603
3 433 35 596
3 246 434 605
3 605 65 246
3 434 119 605
3 246 11 434
3 608 606 607
3 607 158 608
3 606 157 607
3 608 156 606
3 610 609 607
3 607 157 610
3 609 158 607
3 610 15 609
3 612 611 606
3 606 156 612
3 611 157 606
3 612 28 611
3 614 613 608
3 608 158 614
3 613 156 608
3 614 41 613
3 617 615 616
3 616 95 617
3 615 157 616
3 617 55 615
3 611 350 616
3 616 157 611
3 350 95 616
3 611 28 350
3 209 610 615
3 615 55 209
3 610 157 615
3 209 15 610
3 351 210 617
3 617 95 351
3 210 55 617
3 351 7 210
3 620 618 619
3 619 135 620
3 618 156 619
3 620 94 618
3 613 490 619
3 619 156 613
3 490 135 619
3 613 41 490
3 342 612 618
3 618 94 342
3 612 156 618
3 342 28 612
3 491 345 620
3 620 135 491
3 345 94 620
3 491 2 345
3 623 621 622
3 622 56 623
3 621 158 622
3 623 134 621
3 609 215 622
3 622 158 609
3 215 56 622
3 609 15 215
3 484 614 621
3 621 134 484
3 614 158 621
3 484 41 614
3 216 485 623
3 623 56 216
3 485 134 623
3 216 9 485
3 626 624 625
3 625 161 626
3 624 160 625
3 626 159 624
3 628 627 625
3 625 160 628
3 627 161 625
3 628 31 627
3 630 629 624
3 624 159 630
3 629 160 624
3 630 20 629
3 632 631 626
3 626 161 632
3 631 159 626
3 632 40 631
3 635 633 634
3 634 73 635
3 633 160 634
3 635 105 633
3 629 272 634
3 634 160 629
3 272 73 634
3 629 20 272
3 382 628 633
3 633 105 382
3 628 160 633
3 382 31 628
3 273 385 635
3 635 73 273
3 385 105 635
3 273 6 385
3 638 636 637
3 637 137 638
3 636 159 637
3 638 72 636
3 631 496 637
3 637 159 631
3 496 137 637
3 631 40 496
3 265 630 636
3 636 72 265
3 630 159 636
3 265 20 630
3 497 268 638
3 638 137 497
3 268 72 638
3 497 10 268
3 641 639 640
3 640 102 641
3 639 161 640
3 641 136 639
3 627 372 640
3 640 161 627
3 372 102 640
3 627 31 372
3 489 632 639
3 639 136 489
3 632 161 639
3 489 40 632
3 373 492 641
3 641 102 373
3 492 136 641
3 373 2 492
