# vtk DataFile Version 3.0
this file was written using fslvtkio
ASCII
DATASET POLYDATA
POINTS 642 float
103.895 107.526 133.485
100.677 107.268 145.181
104.83 107.487 145.099
107.507 109.197 135.845
107.143 114.01 135.456
104.064 101.608 137.209
102.53 100.616 145.693
105.841 113.079 141.555
101.963 110.225 138.371
110.99 112.087 142.233
105.366 106.131 142.241
100.695 103.441 139.412
103.736 111.827 139.886
104.237 112.922 136.128
106.806 115.597 138.824
109.543 114.535 142.489
109.549 114.011 138.718
100.879 101.355 142.603
103.37 100.075 140.902
101.815 100.655 137.484
104.328 102.821 143.91
104.22 103.891 139.8
109.34 111.917 133.33
105.525 111.475 132.524
106.158 108.302 132.467
104.807 105.796 136.189
103.458 103.341 134.275
103.022 109.854 143.277
105.668 110.738 143.441
102.085 107.425 147.297
100.598 103.594 147.377
103.458 103.874 147.352
102.132 104.79 136.089
102.709 109.587 135.152
101.017 106.592 138.958
100.536 104.55 142.972
101.047 108.999 141.664
106.536 107.729 139.277
109.025 108.145 142.024
109.88 111.112 138.613
105.928 106.216 144.615
108.391 110.916 144.593
104.18 112.68 138.109
105.304 114.886 137.144
105.067 114.062 139.129
107.059 115.179 137.065
105.509 114.021 135.571
103.383 111.326 137.317
102.655 111.087 139.088
104.662 112.732 140.739
106.12 114.729 140.504
108.016 115.097 140.654
108.416 115.057 138.723
110.081 115.196 140.9
108.688 114.181 136.63
107.323 114.21 142.099
110.772 113.463 142.738
110.322 113.477 140.552
102.043 100.176 141.702
102.626 100.02 139.29
101.163 100.827 139.876
103.119 100.28 136.842
103.843 100.594 138.839
102.899 100.277 143.255
101.509 100.864 144.223
100.874 102.256 140.871
101.354 102.264 138.423
104.176 103.184 141.877
103.732 102.002 140.457
103.788 101.595 142.632
104.128 102.835 138.601
104.634 105.062 141.233
104.602 104.464 143.094
103.82 101.371 144.838
107.576 112.039 131.827
106.287 109.945 131.561
108.401 109.974 132.17
104.93 107.544 131.772
104.448 109.739 132.278
106.257 112.897 133.918
108.371 113.338 134.149
108.891 110.112 134.528
106.931 108.712 134.067
105.453 106.903 134.16
104.879 105.5 132.841
104.782 104.063 134.596
103.622 105.604 133.7
105.893 107.805 136.038
104.63 103.287 136.464
103.986 101.885 135.434
104.092 110.151 143.37
103.392 108.788 144.946
102.485 109.23 145.68
103.421 107.313 146.17
105.035 109.2 144.321
106.077 111.967 142.418
104.476 111.148 141.937
101.706 108.671 144.399
101.157 107.563 146.851
101.271 105.686 148.424
102.685 105.516 147.453
101.899 103.519 148.236
103.87 105.807 146.38
100.502 105.703 146.596
101.362 101.92 146.72
102.829 102.189 146.904
102.765 106.987 135.846
101.943 107.822 137.219
101.648 105.925 137.479
101.114 108.705 138.663
102.438 109.994 136.853
103.338 108.73 134.107
103.053 106.14 134.888
101.268 104.06 137.642
100.778 104.993 139.295
100.628 105.61 140.984
100.823 107.664 140.466
100.751 106.677 142.362
101.292 109.716 139.909
100.31 103.745 141.356
100.772 105.616 144.189
100.705 108.209 143.427
107.978 107.753 140.651
109.975 109.34 140.743
108.676 109.027 138.967
110.163 112.052 140.486
109.97 110.403 142.291
107.053 107.086 142.113
105.768 107.027 140.784
106.826 108.69 137.69
108.858 110.147 137.123
107.365 108.251 144.955
108.732 109.451 143.678
107.635 107.072 143.439
109.947 111.699 143.743
106.269 109.574 144.846
105.346 106.661 145.619
105.627 106.077 143.522
104.804 112.284 134.504
103.643 111.076 135.772
103.912 110.685 133.616
102.513 103.915 134.916
101.657 102.662 136.527
102.3 101.446 135.476
109.875 113.15 138.662
109.869 113.475 135.213
109.858 111.662 135.854
105.606 106.83 137.692
104.567 105.066 138.04
105.352 105.782 139.521
102.368 110.119 140.792
103.326 110.864 141.374
101.981 109.475 142.678
100.463 104.003 145.113
100.59 102.099 145.321
100.506 102.793 143.189
106.825 111.379 144.288
107.515 113.113 143.233
109.432 112.9 143.58
105.078 104.424 144.556
104.05 103.114 145.859
104.989 104.714 145.99
104.504 114.156 137.537
105.182 114.575 138.223
104.377 113.686 138.627
105.842 115.126 138.877
105.891 115.284 137.969
104.642 114.095 136.623
104.224 113.097 137.072
104.035 112.385 139.029
104.321 113.135 139.516
106.037 115.172 137.046
105.344 114.658 136.316
106.18 114.746 136.199
104.805 113.463 135.91
106.925 115.568 137.93
107.165 114.646 136.306
106.371 114.075 135.436
103.864 111.994 137.661
103.779 111.71 138.671
103.18 111.287 138.248
103.38 111.329 139.456
103.917 112.16 136.782
102.577 110.895 137.841
102.301 110.695 138.633
104.875 113.39 140.006
105.638 114.603 139.772
105.375 113.795 140.583
106.462 115.398 139.677
104.179 112.439 140.223
105.191 112.976 141.287
105.886 113.863 141.135
108.315 115.499 139.775
109.112 115.061 139.82
109.214 115.404 140.824
109.749 114.452 139.956
109.08 114.345 138.932
107.686 115.591 138.714
107.464 115.486 139.718
108.816 114.854 141.562
110.026 115.237 141.818
108.532 114.43 137.835
107.783 115.274 137.825
107.952 114.588 137.029
109.244 114.108 137.647
107.898 114.196 136.065
106.964 115.091 140.494
107.638 114.832 141.474
106.619 114.392 141.277
108.317 114.53 142.287
106.599 113.696 141.811
110.724 114.537 141.838
110.351 114.246 140.821
111.05 113.603 141.768
109.706 113.824 139.843
110.426 114.406 142.723
110.969 112.814 142.515
110.885 112.907 141.456
102.274 100.145 140.471
101.611 100.113 139.654
101.492 100.344 140.808
101.469 100.721 138.731
102.155 100.121 138.464
103.01 99.7457 140.033
102.71 99.8947 141.26
101.283 100.438 142.075
100.979 100.865 141.21
102.812 100.064 138.069
103.454 99.8864 138.933
103.577 100.195 137.905
103.636 100.278 139.781
102.305 100.185 137.064
103.758 100.803 137.059
103.911 101.028 137.969
102.381 100.002 142.528
101.72 100.323 142.961
102.07 100.358 143.701
101.26 101.023 143.424
103.08 100.168 142.059
102.684 100.428 144.345
101.943 100.75 144.997
101.104 101.717 140.504
101.253 101.609 139.16
101.012 102.214 139.604
101.48 101.395 138.001
100.977 101.807 141.771
100.735 102.811 140.03
101.063 102.857 138.861
104.069 102.499 141.149
103.703 101.776 141.527
104.046 102.261 142.224
103.461 100.928 141.785
103.571 101.163 140.761
104.065 102.949 140.192
104.219 103.489 140.82
104.209 102.893 142.848
104.031 102.231 143.289
103.799 101.374 139.76
103.751 102.439 139.608
103.965 101.729 138.807
104.163 103.398 139.227
104.255 102.165 137.88
104.294 104.11 141.511
104.414 103.723 142.547
104.531 104.692 142.081
104.44 103.643 143.489
104.496 104.399 140.549
105.103 105.539 141.797
105.124 105.125 142.636
103.838 101.435 143.747
103.519 100.685 142.954
103.413 100.861 144.093
104.007 102.123 144.275
103.28 100.874 145.343
106.975 111.02 131.688
107.382 109.989 131.422
108.206 110.972 131.557
107.339 109.077 132.088
106.511 109.209 131.847
106.025 110.931 131.752
106.534 111.773 132.028
108.659 111.896 132.253
109.011 110.782 132.207
105.611 108.971 131.473
105.392 109.911 131.787
104.821 108.796 131.965
105.095 110.62 132.378
105.745 107.716 131.684
104.527 107.679 132.591
104.155 108.616 132.658
106.793 112.629 132.712
108.053 112.791 132.747
107.284 113.227 133.687
109.005 112.754 133.465
105.972 112.165 132.982
106.605 113.639 134.549
107.627 113.521 134.942
108.808 109.943 133.136
107.705 109.253 133.058
107.973 109.583 134.094
106.55 108.689 133.11
109.283 111.006 133.721
108.181 109.456 135.154
107.115 109.14 134.983
105.472 105.98 133.245
104.871 104.733 133.723
105.176 105.384 134.277
104.122 103.512 134.218
104.109 104.394 133.483
105.703 106.756 132.402
105.843 107.637 133.292
105.172 106.138 135.129
104.862 104.897 135.205
104.048 105.463 133.229
104.95 106.413 132.182
104.309 106.656 132.879
103.477 104.367 133.866
103.964 106.696 133.642
106.037 107.971 134.073
105.603 107.381 135.159
106.333 108.337 135.087
105.267 106.827 136.135
106.586 108.651 135.922
104.781 103.635 135.429
104.346 102.867 134.928
104.561 102.487 135.731
103.703 102.433 134.752
104.709 104.511 136.264
104.244 102.525 136.852
104.083 101.645 136.287
103.674 109.48 144.008
102.882 108.969 145.354
103.196 109.686 144.354
102.283 108.463 146.709
102.716 108.211 146.22
104.504 109.614 144.005
104.856 110.287 143.382
103.537 110.059 143.424
102.815 109.74 144.409
103.318 108.114 145.716
104.254 108.997 144.719
104.14 108.269 145.401
105.213 110.074 144.038
102.719 107.379 146.741
104.139 107.436 145.631
104.857 108.414 144.846
105.129 110.74 142.704
104.291 110.545 142.613
105.145 111.341 142.068
103.757 110.468 142.584
105.907 111.316 142.922
105.943 112.588 142.004
105.172 112.068 141.618
102.028 109.134 144.985
101.925 108.591 146.465
101.37 108.267 145.506
101.693 107.655 147.499
102.252 109.393 143.898
101.022 108.047 144.918
100.908 107.449 145.859
102.001 105.619 148.117
102.374 104.498 147.999
101.63 104.55 148.46
102.621 103.722 147.771
102.975 104.529 147.547
102.354 106.527 147.522
101.642 106.592 147.909
100.875 104.627 148.02
101.207 103.604 147.908
103.335 105.48 147.016
102.959 106.474 146.887
103.704 106.514 146.441
103.525 104.753 146.961
104.319 106.713 145.786
101.232 106.762 147.814
100.623 105.742 147.923
100.626 106.771 146.996
100.597 104.749 147.076
100.762 106.561 145.786
101.57 102.603 147.759
102.387 102.724 147.791
102.145 101.754 147.344
103.176 103.009 147.347
100.947 102.689 147.264
101.986 101.15 146.239
102.705 101.191 146.509
102.389 107.512 136.521
101.7 106.852 137.28
102.234 106.438 136.705
101.256 106.322 138.151
101.36 107.167 138.028
102.4 108.639 136.286
102.763 108.179 135.648
102.514 105.956 136.147
102.054 105.531 136.738
101.411 108.241 137.906
102.246 108.878 137.123
101.718 109.262 137.76
102.563 109.755 136.054
101.101 107.635 138.793
101.423 109.506 138.514
102.212 110.139 137.654
103.229 107.872 135.098
102.964 106.624 135.418
103.336 107.417 134.642
102.719 105.5 135.605
103.036 109.091 134.602
103.676 108.121 133.786
103.554 106.772 134.23
101.48 105.062 137.518
101.241 105.486 138.299
101.034 104.588 138.336
100.91 105.815 139.147
101.678 104.471 136.793
100.894 103.688 138.514
100.558 104.141 139.4
100.811 106.565 140.727
100.819 107.166 141.371
100.743 106.096 141.662
100.784 107.798 141.955
100.834 108.347 141.079
100.966 107.052 139.77
100.785 106.142 140.033
100.656 105.075 141.93
100.731 105.552 142.579
100.918 108.759 140.241
100.937 108.146 139.58
101.261 109.079 139.312
101.216 109.286 140.841
101.548 109.982 139.098
100.608 105.298 140.112
100.474 104.687 141.167
100.432 104.387 140.296
100.43 104.159 142.192
100.378 103.507 140.431
100.823 106.084 143.23
100.695 107.372 142.842
100.721 106.908 143.735
100.694 108.633 142.495
100.757 105.054 143.515
100.558 106.545 144.796
100.784 107.771 144.244
109.224 108.241 140.687
109.492 109.004 139.789
108.473 108.445 139.868
109.37 110.072 138.834
109.851 110.33 139.738
109.681 108.488 141.506
108.609 107.902 141.282
107.316 107.855 139.862
107.766 108.319 139.108
110.105 110.59 140.666
109.777 109.932 141.591
110.331 111.068 141.511
109.422 109.414 142.13
110.02 111.501 139.635
110.572 111.989 141.288
110.598 111.145 142.326
107.504 107.372 141.375
106.768 107.474 140.675
106.352 107.135 141.478
106.229 107.487 139.936
108.117 107.501 141.877
105.908 106.851 142.242
105.573 106.531 141.523
107.72 108.748 138.308
108.675 109.693 138.187
108.007 109.111 137.319
109.425 110.63 137.816
106.753 108.236 138.506
107.172 108.944 136.807
108.252 109.477 136.3
107.93 108.864 144.286
108.277 107.997 143.377
107.766 107.282 144.219
108.36 107.675 142.559
108.899 108.859 142.871
108.525 110.052 144.403
107.84 109.56 144.913
106.928 106.999 144.77
106.782 106.798 144.1
109.366 110.013 142.946
109.333 110.573 143.791
110.083 111.135 143.043
108.996 111.295 144.062
110.534 112.121 143.076
106.846 108.92 145.248
106.432 107.546 145.213
105.753 108.182 145.292
105.845 106.302 145.261
107.287 110.221 144.755
105.411 108.676 144.893
104.965 107.124 145.412
106.585 106.721 143.438
107.431 107.166 142.683
106.272 106.806 142.884
105.774 106.187 144.007
105.452 106.05 142.959
104.263 111.689 135.178
103.769 110.876 134.777
104.471 111.434 134.183
103.309 110.128 134.332
103.264 110.321 135.351
104.052 112.006 135.93
104.468 112.633 135.301
105.121 111.82 133.621
104.636 111.172 133.038
103.075 110.556 136.215
103.545 111.315 136.569
102.715 110.839 137.019
105.014 113.276 134.906
105.372 112.686 133.992
105.737 113.449 134.704
104.182 110.303 132.878
103.473 109.798 133.606
103.782 109.249 133.133
101.997 103.24 135.704
101.781 101.997 135.871
102.152 102.673 134.984
101.892 100.734 136.316
101.632 101.578 136.924
101.934 103.796 136.249
102.401 104.351 135.553
102.78 103.616 134.486
102.901 102.342 134.796
101.491 102.393 137.404
101.514 103.504 137.022
101.376 103.18 138.116
102.688 105.045 134.862
102.983 104.718 134.323
103.351 105.84 134.216
103.273 101.525 135.332
102.677 100.48 135.915
103.705 100.965 136.068
109.809 113.312 136.998
110.147 112.598 135.283
109.902 112.57 137.09
109.787 111.617 134.401
109.853 112.678 133.995
109.812 113.891 136.89
109.586 113.565 138.715
109.873 112.226 138.56
109.797 111.476 137.283
109.511 113.519 134.388
109.447 114.217 135.882
108.383 113.771 135.453
110.005 113.317 139.548
109.983 112.534 139.607
110.353 112.713 140.589
109.323 111.006 136.61
109.354 111.025 135.098
108.84 110.14 135.924
105.169 105.813 137.77
104.993 105.373 138.768
105.639 106.212 138.553
104.789 104.885 139.666
104.401 104.52 138.965
104.63 105.476 137.141
105.158 106.391 137.014
105.892 107.299 138.54
105.758 106.866 139.307
104.263 104.015 138.429
104.6 104.254 137.344
104.352 103.171 137.648
105.728 107.331 136.901
106.07 107.912 137.807
106.31 108.334 136.857
105.572 106.47 140.126
105.005 105.441 140.35
105.197 106.01 141.043
102.794 110.539 141.064
102.656 110.066 142.017
102.352 109.656 141.704
102.398 109.536 142.904
103.221 110.388 142.318
103.535 111.352 140.448
103.018 110.934 140.158
101.786 109.603 141.327
101.543 109.24 142.247
103.777 111.161 141.935
104.124 111.711 140.91
104.658 111.956 141.372
102.428 110.783 139.785
101.904 109.86 140.471
102.024 110.303 139.466
101.241 108.93 143.112
101.816 109.19 143.549
101.233 108.556 144.013
100.474 103.009 145.353
100.611 102.48 144.169
100.417 103.359 144.176
100.836 102.076 142.899
100.932 101.904 143.778
100.68 102.729 146.501
100.485 103.815 146.252
100.506 104.245 143.981
100.487 103.653 143.133
100.98 101.436 144.746
100.899 101.867 146.228
101.423 101.264 145.551
100.79 104.725 145.784
100.748 104.824 144.657
100.743 105.784 145.347
100.262 103.182 142.281
100.553 102.29 142.097
100.424 102.877 141.207
107.249 112.287 143.785
108.567 113.303 143.531
108.153 112.203 143.761
109.708 113.976 143.359
108.392 114.006 142.986
106.515 111.967 143.377
106.204 111.189 144.081
107.515 111.172 144.284
108.804 111.985 143.871
107.508 113.723 142.702
106.745 112.458 142.811
106.671 113.3 142.401
105.764 110.372 144.452
106.377 110.414 144.597
105.439 109.4 144.569
109.326 112.204 143.549
110.238 113.335 143.353
110.375 112.467 143.186
104.752 103.735 145.313
104.713 103.816 146.16
105.266 104.481 145.396
104.185 104.261 146.718
103.839 103.233 146.785
104.233 102.881 144.994
104.409 103.78 144.27
105.585 105.075 144.681
105.564 105.062 145.422
103.493 102.573 146.454
103.878 102.095 145.453
103.288 101.802 145.839
104.743 104.336 143.878
105.422 105.033 143.999
105.331 105.058 143.442
105.125 105.472 145.997
104.221 105.156 146.371
104.514 106.095 146.004
POLYGONS 1280  5120
3 164 162 163
3 163 44 164
3 162 43 163
3 164 42 162
3 166 165 163
3 163 43 166
3 165 44 163
3 166 14 165
3 168 167 162
3 162 42 168
3 167 43 162
3 168 13 167
3 170 169 164
3 164 44 170
3 169 42 164
3 170 12 169
3 173 171 172
3 172 46 173
3 171 43 172
3 173 45 171
3 167 174 172
3 172 43 167
3 174 46 172
3 167 13 174
3 175 166 171
3 171 45 175
3 166 43 171
3 175 14 166
3 177 176 173
3 173 46 177
3 176 45 173
3 177 4 176
3 180 178 179
3 179 48 180
3 178 42 179
3 180 47 178
3 169 181 179
3 179 42 169
3 181 48 179
3 169 12 181
3 182 168 178
3 178 47 182
3 168 42 178
3 182 13 168
3 184 183 180
3 180 48 184
3 183 47 180
3 184 8 183
3 187 185 186
3 186 50 187
3 185 44 186
3 187 49 185
3 165 188 186
3 186 44 165
3 188 50 186
3 165 14 188
3 189 170 185
3 185 49 189
3 170 44 185
3 189 12 170
3 191 190 187
3 187 50 191
3 190 49 187
3 191 7 190
3 194 192 193
3 193 53 194
3 192 52 193
3 194 51 192
3 196 195 193
3 193 52 196
3 195 53 193
3 196 16 195
3 198 197 192
3 192 51 198
3 197 52 192
3 198 14 197
3 200 199 194
3 194 53 200
3 199 51 194
3 200 15 199
3 203 201 202
3 202 45 203
3 201 52 202
3 203 54 201
3 197 175 202
3 202 52 197
3 175 45 202
3 197 14 175
3 204 196 201
3 201 54 204
3 196 52 201
3 204 16 196
3 176 205 203
3 203 45 176
3 205 54 203
3 176 4 205
3 208 206 207
3 207 55 208
3 206 51 207
3 208 50 206
3 199 209 207
3 207 51 199
3 209 55 207
3 199 15 209
3 188 198 206
3 206 50 188
3 198 51 206
3 188 14 198
3 210 191 208
3 208 55 210
3 191 50 208
3 210 7 191
3 213 211 212
3 212 57 213
3 211 53 212
3 213 56 211
3 195 214 212
3 212 53 195
3 214 57 212
3 195 16 214
3 215 200 211
3 211 56 215
3 200 53 211
3 215 15 200
3 217 216 213
3 213 57 217
3 216 56 213
3 217 9 216
3 220 218 219
3 219 60 220
3 218 59 219
3 220 58 218
3 222 221 219
3 219 59 222
3 221 60 219
3 222 19 221
3 224 223 218
3 218 58 224
3 223 59 218
3 224 18 223
3 226 225 220
3 220 60 226
3 225 58 220
3 226 17 225
3 229 227 228
3 228 62 229
3 227 59 228
3 229 61 227
3 223 230 228
3 228 59 223
3 230 62 228
3 223 18 230
3 231 222 227
3 227 61 231
3 222 59 227
3 231 19 222
3 233 232 229
3 229 62 233
3 232 61 229
3 233 5 232
3 236 234 235
3 235 64 236
3 234 58 235
3 236 63 234
3 225 237 235
3 235 58 225
3 237 64 235
3 225 17 237
3 238 224 234
3 234 63 238
3 224 58 234
3 238 18 224
3 240 239 236
3 236 64 240
3 239 63 236
3 240 6 239
3 243 241 242
3 242 66 243
3 241 60 242
3 243 65 241
3 221 244 242
3 242 60 221
3 244 66 242
3 221 19 244
3 245 226 241
3 241 65 245
3 226 60 241
3 245 17 226
3 247 246 243
3 243 66 247
3 246 65 243
3 247 11 246
3 250 248 249
3 249 69 250
3 248 68 249
3 250 67 248
3 252 251 249
3 249 68 252
3 251 69 249
3 252 18 251
3 254 253 248
3 248 67 254
3 253 68 248
3 254 21 253
3 256 255 250
3 250 69 256
3 255 67 250
3 256 20 255
3 259 257 258
3 258 70 259
3 257 68 258
3 259 62 257
3 253 260 258
3 258 68 253
3 260 70 258
3 253 21 260
3 230 252 257
3 257 62 230
3 252 68 257
3 230 18 252
3 261 233 259
3 259 70 261
3 233 62 259
3 261 5 233
3 264 262 263
3 263 72 264
3 262 67 263
3 264 71 262
3 255 265 263
3 263 67 255
3 265 72 263
3 255 20 265
3 266 254 262
3 262 71 266
3 254 67 262
3 266 21 254
3 268 267 264
3 264 72 268
3 267 71 264
3 268 10 267
3 271 269 270
3 270 63 271
3 269 69 270
3 271 73 269
3 251 238 270
3 270 69 251
3 238 63 270
3 251 18 238
3 272 256 269
3 269 73 272
3 256 69 269
3 272 20 256
3 239 273 271
3 271 63 239
3 273 73 271
3 239 6 273
3 276 274 275
3 275 76 276
3 274 75 275
3 276 74 274
3 278 277 275
3 275 75 278
3 277 76 275
3 278 24 277
3 280 279 274
3 274 74 280
3 279 75 274
3 280 23 279
3 282 281 276
3 276 76 282
3 281 74 276
3 282 22 281
3 285 283 284
3 284 78 285
3 283 75 284
3 285 77 283
3 279 286 284
3 284 75 279
3 286 78 284
3 279 23 286
3 287 278 283
3 283 77 287
3 278 75 283
3 287 24 278
3 289 288 285
3 285 78 289
3 288 77 285
3 289 0 288
3 292 290 291
3 291 80 292
3 290 74 291
3 292 79 290
3 281 293 291
3 291 74 281
3 293 80 291
3 281 22 293
3 294 280 290
3 290 79 294
3 280 74 290
3 294 23 280
3 296 295 292
3 292 80 296
3 295 79 292
3 296 4 295
3 299 297 298
3 298 82 299
3 297 76 298
3 299 81 297
3 277 300 298
3 298 76 277
3 300 82 298
3 277 24 300
3 301 282 297
3 297 81 301
3 282 76 297
3 301 22 282
3 303 302 299
3 299 82 303
3 302 81 299
3 303 3 302
3 306 304 305
3 305 85 306
3 304 84 305
3 306 83 304
3 308 307 305
3 305 84 308
3 307 85 305
3 308 26 307
3 310 309 304
3 304 83 310
3 309 84 304
3 310 24 309
3 312 311 306
3 306 85 312
3 311 83 306
3 312 25 311
3 315 313 314
3 314 77 315
3 313 84 314
3 315 86 313
3 309 287 314
3 314 84 309
3 287 77 314
3 309 24 287
3 316 308 313
3 313 86 316
3 308 84 313
3 316 26 308
3 288 317 315
3 315 77 288
3 317 86 315
3 288 0 317
3 320 318 319
3 319 87 320
3 318 83 319
3 320 82 318
3 311 321 319
3 319 83 311
3 321 87 319
3 311 25 321
3 300 310 318
3 318 82 300
3 310 83 318
3 300 24 310
3 322 303 320
3 320 87 322
3 303 82 320
3 322 3 303
3 325 323 324
3 324 89 325
3 323 85 324
3 325 88 323
3 307 326 324
3 324 85 307
3 326 89 324
3 307 26 326
3 327 312 323
3 323 88 327
3 312 85 323
3 327 25 312
3 329 328 325
3 325 89 329
3 328 88 325
3 329 5 328
3 332 330 331
3 331 92 332
3 330 91 331
3 332 90 330
3 334 333 331
3 331 91 334
3 333 92 331
3 334 29 333
3 336 335 330
3 330 90 336
3 335 91 330
3 336 28 335
3 338 337 332
3 332 92 338
3 337 90 332
3 338 27 337
3 341 339 340
3 340 94 341
3 339 91 340
3 341 93 339
3 335 342 340
3 340 91 335
3 342 94 340
3 335 28 342
3 343 334 339
3 339 93 343
3 334 91 339
3 343 29 334
3 345 344 341
3 341 94 345
3 344 93 341
3 345 2 344
3 348 346 347
3 347 96 348
3 346 90 347
3 348 95 346
3 337 349 347
3 347 90 337
3 349 96 347
3 337 27 349
3 350 336 346
3 346 95 350
3 336 90 346
3 350 28 336
3 352 351 348
3 348 96 352
3 351 95 348
3 352 7 351
3 355 353 354
3 354 98 355
3 353 92 354
3 355 97 353
3 333 356 354
3 354 92 333
3 356 98 354
3 333 29 356
3 357 338 353
3 353 97 357
3 338 92 353
3 357 27 338
3 359 358 355
3 355 98 359
3 358 97 355
3 359 1 358
3 362 360 361
3 361 101 362
3 360 100 361
3 362 99 360
3 364 363 361
3 361 100 364
3 363 101 361
3 364 31 363
3 366 365 360
3 360 99 366
3 365 100 360
3 366 29 365
3 368 367 362
3 362 101 368
3 367 99 362
3 368 30 367
3 371 369 370
3 370 93 371
3 369 100 370
3 371 102 369
3 365 343 370
3 370 100 365
3 343 93 370
3 365 29 343
3 372 364 369
3 369 102 372
3 364 100 369
3 372 31 364
3 344 373 371
3 371 93 344
3 373 102 371
3 344 2 373
3 376 374 375
3 375 103 376
3 374 99 375
3 376 98 374
3 367 377 375
3 375 99 367
3 377 103 375
3 367 30 377
3 356 366 374
3 374 98 356
3 366 99 374
3 356 29 366
3 378 359 376
3 376 103 378
3 359 98 376
3 378 1 359
3 381 379 380
3 380 105 381
3 379 101 380
3 381 104 379
3 363 382 380
3 380 101 363
3 382 105 380
3 363 31 382
3 383 368 379
3 379 104 383
3 368 101 379
3 383 30 368
3 385 384 381
3 381 105 385
3 384 104 381
3 385 6 384
3 388 386 387
3 387 108 388
3 386 107 387
3 388 106 386
3 390 389 387
3 387 107 390
3 389 108 387
3 390 34 389
3 392 391 386
3 386 106 392
3 391 107 386
3 392 33 391
3 394 393 388
3 388 108 394
3 393 106 388
3 394 32 393
3 397 395 396
3 396 110 397
3 395 107 396
3 397 109 395
3 391 398 396
3 396 107 391
3 398 110 396
3 391 33 398
3 399 390 395
3 395 109 399
3 390 107 395
3 399 34 390
3 401 400 397
3 397 110 401
3 400 109 397
3 401 8 400
3 404 402 403
3 403 112 404
3 402 106 403
3 404 111 402
3 393 405 403
3 403 106 393
3 405 112 403
3 393 32 405
3 406 392 402
3 402 111 406
3 392 106 402
3 406 33 392
3 408 407 404
3 404 112 408
3 407 111 404
3 408 0 407
3 411 409 410
3 410 114 411
3 409 108 410
3 411 113 409
3 389 412 410
3 410 108 389
3 412 114 410
3 389 34 412
3 413 394 409
3 409 113 413
3 394 108 409
3 413 32 394
3 415 414 411
3 411 114 415
3 414 113 411
3 415 11 414
3 418 416 417
3 417 117 418
3 416 116 417
3 418 115 416
3 420 419 417
3 417 116 420
3 419 117 417
3 420 36 419
3 422 421 416
3 416 115 422
3 421 116 416
3 422 34 421
3 424 423 418
3 418 117 424
3 423 115 418
3 424 35 423
3 427 425 426
3 426 109 427
3 425 116 426
3 427 118 425
3 421 399 426
3 426 116 421
3 399 109 426
3 421 34 399
3 428 420 425
3 425 118 428
3 420 116 425
3 428 36 420
3 400 429 427
3 427 109 400
3 429 118 427
3 400 8 429
3 432 430 431
3 431 119 432
3 430 115 431
3 432 114 430
3 423 433 431
3 431 115 423
3 433 119 431
3 423 35 433
3 412 422 430
3 430 114 412
3 422 115 430
3 412 34 422
3 434 415 432
3 432 119 434
3 415 114 432
3 434 11 415
3 437 435 436
3 436 121 437
3 435 117 436
3 437 120 435
3 419 438 436
3 436 117 419
3 438 121 436
3 419 36 438
3 439 424 435
3 435 120 439
3 424 117 435
3 439 35 424
3 441 440 437
3 437 121 441
3 440 120 437
3 441 1 440
3 444 442 443
3 443 124 444
3 442 123 443
3 444 122 442
3 446 445 443
3 443 123 446
3 445 124 443
3 446 39 445
3 448 447 442
3 442 122 448
3 447 123 442
3 448 38 447
3 450 449 444
3 444 124 450
3 449 122 444
3 450 37 449
3 453 451 452
3 452 126 453
3 451 123 452
3 453 125 451
3 447 454 452
3 452 123 447
3 454 126 452
3 447 38 454
3 455 446 451
3 451 125 455
3 446 123 451
3 455 39 446
3 457 456 453
3 453 126 457
3 456 125 453
3 457 9 456
3 460 458 459
3 459 128 460
3 458 122 459
3 460 127 458
3 449 461 459
3 459 122 449
3 461 128 459
3 449 37 461
3 462 448 458
3 458 127 462
3 448 122 458
3 462 38 448
3 464 463 460
3 460 128 464
3 463 127 460
3 464 10 463
3 467 465 466
3 466 130 467
3 465 124 466
3 467 129 465
3 445 468 466
3 466 124 445
3 468 130 466
3 445 39 468
3 469 450 465
3 465 129 469
3 450 124 465
3 469 37 450
3 471 470 467
3 467 130 471
3 470 129 467
3 471 3 470
3 474 472 473
3 473 133 474
3 472 132 473
3 474 131 472
3 476 475 473
3 473 132 476
3 475 133 473
3 476 38 475
3 478 477 472
3 472 131 478
3 477 132 472
3 478 41 477
3 480 479 474
3 474 133 480
3 479 131 474
3 480 40 479
3 483 481 482
3 482 134 483
3 481 132 482
3 483 126 481
3 477 484 482
3 482 132 477
3 484 134 482
3 477 41 484
3 454 476 481
3 481 126 454
3 476 132 481
3 454 38 476
3 485 457 483
3 483 134 485
3 457 126 483
3 485 9 457
3 488 486 487
3 487 136 488
3 486 131 487
3 488 135 486
3 479 489 487
3 487 131 479
3 489 136 487
3 479 40 489
3 490 478 486
3 486 135 490
3 478 131 486
3 490 41 478
3 492 491 488
3 488 136 492
3 491 135 488
3 492 2 491
3 495 493 494
3 494 127 495
3 493 133 494
3 495 137 493
3 475 462 494
3 494 133 475
3 462 127 494
3 475 38 462
3 496 480 493
3 493 137 496
3 480 133 493
3 496 40 480
3 463 497 495
3 495 127 463
3 497 137 495
3 463 10 497
3 500 498 499
3 499 140 500
3 498 139 499
3 500 138 498
3 502 501 499
3 499 139 502
3 501 140 499
3 502 33 501
3 504 503 498
3 498 138 504
3 503 139 498
3 504 13 503
3 506 505 500
3 500 140 506
3 505 138 500
3 506 23 505
3 509 507 508
3 508 47 509
3 507 139 508
3 509 110 507
3 503 182 508
3 508 139 503
3 182 47 508
3 503 13 182
3 398 502 507
3 507 110 398
3 502 139 507
3 398 33 502
3 183 401 509
3 509 47 183
3 401 110 509
3 183 8 401
3 512 510 511
3 511 79 512
3 510 138 511
3 512 46 510
3 505 294 511
3 511 138 505
3 294 79 511
3 505 23 294
3 174 504 510
3 510 46 174
3 504 138 510
3 174 13 504
3 295 177 512
3 512 79 295
3 177 46 512
3 295 4 177
3 515 513 514
3 514 111 515
3 513 140 514
3 515 78 513
3 501 406 514
3 514 140 501
3 406 111 514
3 501 33 406
3 286 506 513
3 513 78 286
3 506 140 513
3 286 23 506
3 407 289 515
3 515 111 407
3 289 78 515
3 407 0 289
3 518 516 517
3 517 143 518
3 516 142 517
3 518 141 516
3 520 519 517
3 517 142 520
3 519 143 517
3 520 19 519
3 522 521 516
3 516 141 522
3 521 142 516
3 522 32 521
3 524 523 518
3 518 143 524
3 523 141 518
3 524 26 523
3 527 525 526
3 526 113 527
3 525 142 526
3 527 66 525
3 521 413 526
3 526 142 521
3 413 113 526
3 521 32 413
3 244 520 525
3 525 66 244
3 520 142 525
3 244 19 520
3 414 247 527
3 527 113 414
3 247 66 527
3 414 11 247
3 530 528 529
3 529 86 530
3 528 141 529
3 530 112 528
3 523 316 529
3 529 141 523
3 316 86 529
3 523 26 316
3 405 522 528
3 528 112 405
3 522 141 528
3 405 32 522
3 317 408 530
3 530 86 317
3 408 112 530
3 317 0 408
3 533 531 532
3 532 61 533
3 531 143 532
3 533 89 531
3 519 231 532
3 532 143 519
3 231 61 532
3 519 19 231
3 326 524 531
3 531 89 326
3 524 143 531
3 326 26 524
3 232 329 533
3 533 61 232
3 329 89 533
3 232 5 329
3 536 534 535
3 535 146 536
3 534 145 535
3 536 144 534
3 538 537 535
3 535 145 538
3 537 146 535
3 538 22 537
3 540 539 534
3 534 144 540
3 539 145 534
3 540 16 539
3 542 541 536
3 536 146 542
3 541 144 536
3 542 39 541
3 545 543 544
3 544 54 545
3 543 145 544
3 545 80 543
3 539 204 544
3 544 145 539
3 204 54 544
3 539 16 204
3 293 538 543
3 543 80 293
3 538 145 543
3 293 22 538
3 205 296 545
3 545 54 205
3 296 80 545
3 205 4 296
3 548 546 547
3 547 125 548
3 546 144 547
3 548 57 546
3 541 455 547
3 547 144 541
3 455 125 547
3 541 39 455
3 214 540 546
3 546 57 214
3 540 144 546
3 214 16 540
3 456 217 548
3 548 125 456
3 217 57 548
3 456 9 217
3 551 549 550
3 550 81 551
3 549 146 550
3 551 130 549
3 537 301 550
3 550 146 537
3 301 81 550
3 537 22 301
3 468 542 549
3 549 130 468
3 542 146 549
3 468 39 542
3 302 471 551
3 551 81 302
3 471 130 551
3 302 3 471
3 554 552 553
3 553 149 554
3 552 148 553
3 554 147 552
3 556 555 553
3 553 148 556
3 555 149 553
3 556 21 555
3 558 557 552
3 552 147 558
3 557 148 552
3 558 25 557
3 560 559 554
3 554 149 560
3 559 147 554
3 560 37 559
3 563 561 562
3 562 88 563
3 561 148 562
3 563 70 561
3 557 327 562
3 562 148 557
3 327 88 562
3 557 25 327
3 260 556 561
3 561 70 260
3 556 148 561
3 260 21 556
3 328 261 563
3 563 88 328
3 261 70 563
3 328 5 261
3 566 564 565
3 565 129 566
3 564 147 565
3 566 87 564
3 559 469 565
3 565 147 559
3 469 129 565
3 559 37 469
3 321 558 564
3 564 87 321
3 558 147 564
3 321 25 558
3 470 322 566
3 566 129 470
3 322 87 566
3 470 3 322
3 569 567 568
3 568 71 569
3 567 149 568
3 569 128 567
3 555 266 568
3 568 149 555
3 266 71 568
3 555 21 266
3 461 560 567
3 567 128 461
3 560 149 567
3 461 37 560
3 267 464 569
3 569 71 267
3 464 128 569
3 267 10 464
3 572 570 571
3 571 152 572
3 570 151 571
3 572 150 570
3 574 573 571
3 571 151 574
3 573 152 571
3 574 27 573
3 576 575 570
3 570 150 576
3 575 151 570
3 576 12 575
3 578 577 572
3 572 152 578
3 577 150 572
3 578 36 577
3 581 579 580
3 580 49 581
3 579 151 580
3 581 96 579
3 575 189 580
3 580 151 575
3 189 49 580
3 575 12 189
3 349 574 579
3 579 96 349
3 574 151 579
3 349 27 574
3 190 352 581
3 581 49 190
3 352 96 581
3 190 7 352
3 584 582 583
3 583 118 584
3 582 150 583
3 584 48 582
3 577 428 583
3 583 150 577
3 428 118 583
3 577 36 428
3 181 576 582
3 582 48 181
3 576 150 582
3 181 12 576
3 429 184 584
3 584 118 429
3 184 48 584
3 429 8 184
3 587 585 586
3 586 97 587
3 585 152 586
3 587 121 585
3 573 357 586
3 586 152 573
3 357 97 586
3 573 27 357
3 438 578 585
3 585 121 438
3 578 152 585
3 438 36 578
3 358 441 587
3 587 97 358
3 441 121 587
3 358 1 441
3 590 588 589
3 589 155 590
3 588 154 589
3 590 153 588
3 592 591 589
3 589 154 592
3 591 155 589
3 592 17 591
3 594 593 588
3 588 153 594
3 593 154 588
3 594 30 593
3 596 595 590
3 590 155 596
3 595 153 590
3 596 35 595
3 599 597 598
3 598 104 599
3 597 154 598
3 599 64 597
3 593 383 598
3 598 154 593
3 383 104 598
3 593 30 383
3 237 592 597
3 597 64 237
3 592 154 597
3 237 17 592
3 384 240 599
3 599 104 384
3 240 64 599
3 384 6 240
3 602 600 601
3 601 120 602
3 600 153 601
3 602 103 600
3 595 439 601
3 601 153 595
3 439 120 601
3 595 35 439
3 377 594 600
3 600 103 377
3 594 153 600
3 377 30 594
3 440 378 602
3 602 120 440
3 378 103 602
3 440 1 378
3 605 603 604
3 604 65 605
3 603 155 604
3 605 119 603
3 591 245 604
3 604 155 591
3 245 65 604
3 591 17 245
3 433 596 603
3 603 119 433
3 596 155 603
3 433 35 596
3 246 434 605
3 605 65 246
3 434 119 605
3 246 11 434
3 608 606 607
3 607 158 608
3 606 157 607
3 608 156 606
3 610 609 607
3 607 157 610
3 609 158 607
3 610 15 609
3 612 611 606
3 606 156 612
3 611 157 606
3 612 28 611
3 614 613 608
3 608 158 614
3 613 156 608
3 614 41 613
3 617 615 616
3 616 95 617
3 615 157 616
3 617 55 615
3 611 350 616
3 616 157 611
3 350 95 616
3 611 28 350
3 209 610 615
3 615 55 209
3 610 157 615
3 209 15 610
3 351 210 617
3 617 95 351
3 210 55 617
3 351 7 210
3 620 618 619
3 619 135 620
3 618 156 619
3 620 94 618
3 613 490 619
3 619 156 613
3 490 135 619
3 613 41 490
3 342 612 618
3 618 94 342
3 612 156 618
3 342 28 612
3 491 345 620
3 620 135 491
3 345 94 620
3 491 2 345
3 623 621 622
3 622 56 623
3 621 158 622
3 623 134 621
3 609 215 622
3 622 158 609
3 215 56 622
3 609 15 215
3 484 614 621
3 621 134 484
3 614 158 621
3 484 41 614
3 216 485 623
3 623 56 216
3 485 134 623
3 216 9 485
3 626 624 625
3 625 161 626
3 624 160 625
3 626 159 624
3 628 627 625
3 625 160 628
3 627 161 625
3 628 31 627
3 630 629 624
3 624 159 630
3 629 160 624
3 630 20 629
3 632 631 626
3 626 161 632
3 631 159 626
3 632 40 631
3 635 633 634
3 634 73 635
3 633 160 634
3 635 105 633
3 629 272 634
3 634 160 629
3 272 73 634
3 629 20 272
3 382 628 633
3 633 105 382
3 628 160 633
3 382 31 628
3 273 385 635
3 635 73 273
3 385 105 635
3 273 6 385
3 638 636 637
3 637 137 638
3 636 159 637
3 638 72 636
3 631 496 637
3 637 159 631
3 496 137 637
3 631 40 496
3 265 630 636
3 636 72 265
3 630 159 636
3 265 20 630
3 497 268 638
3 638 137 497
3 268 72 638
3 497 10 268
3 641 639 640
3 640 102 641
3 639 161 640
3 641 136 639
3 627 372 640
3 640 161 627
3 372 102 640
3 627 31 372
3 489 632 639
3 639 136 489
3 632 161 639
3 489 40 632
3 373 492 641
3 641 102 373
3 492 136 641
3 373 2 492
