# vtk DataFile Version 3.0
this file was written using fslvtkio
ASCII
DATASET POLYDATA
POINTS 642 float
97.4324 108.132 86.4791
96.0142 109.026 92.819
93.9273 108.165 90.4325
95.5267 107.246 86.688
96.0832 105.505 86.1672
95.06 109.961 88.8113
94.0947 111.244 91.8989
95.5966 106.311 89.5627
97.1996 107.59 89.4166
94.1517 106.117 87.3791
94.5791 108.716 89.2277
96.4 110.294 90.5628
96.5957 106.752 89.721
97.0924 106.54 87.7535
96.0177 105.235 87.7812
94.51 105.554 88.0112
94.6262 104.692 85.922
95.4055 111.363 91.9045
94.2165 111.736 90.3434
95.7072 110.558 90.0304
93.9851 110.07 90.2695
94.7285 109.637 89.3128
95.4785 105.797 85.2521
97.1666 106.519 85.7238
96.4049 107.434 85.3678
95.511 108.475 87.4321
96.2096 108.893 87.5637
95.8367 107.638 91.2842
94.6139 107.108 90.1879
94.8392 108.474 91.974
95.1009 110.488 92.9402
94.1044 109.259 91.3035
96.7238 109.022 88.7155
97.6734 107.745 87.9391
96.9685 108.806 89.9084
96.2918 110.05 91.8387
96.876 108.26 91.1455
94.8691 107.963 87.8719
94.2554 107.675 88.3985
94.8943 106.259 86.8717
94.0713 108.696 90.2061
93.7148 107.209 88.7706
97.0643 106.51 88.799
96.6455 106.063 87.8339
96.5327 106.144 88.881
96.0835 105.223 86.852
96.5858 106.023 86.8638
97.3695 107.087 88.78
96.8296 107.205 89.5287
96.0638 106.441 89.5645
95.817 105.786 88.7942
95.2842 105.199 88.028
95.3744 104.976 86.9253
94.7198 105.009 87.0184
95.42 104.911 85.8503
95.1484 105.917 89.0445
94.0245 105.552 87.3625
94.2989 105.406 86.7305
94.8577 111.696 91.3602
95.1396 111.314 90.5075
95.4436 110.988 90.9138
95.3386 110.235 89.5617
94.7096 110.926 89.5133
93.8781 111.849 91.2422
94.598 111.335 91.9248
96.0329 111.029 91.2751
96.0058 110.308 90.3057
94.2438 110 89.7532
94.3281 110.633 89.7029
93.9247 110.918 90.4028
94.8834 109.907 89.1193
94.6046 109.077 89.199
94.2842 109.292 89.6602
93.7414 110.749 91.0871
96.3311 105.951 84.9045
96.8919 106.783 84.8491
95.9637 106.649 84.7955
97.2796 107.93 85.4304
97.5305 107.424 85.9563
96.5994 105.876 85.8472
95.7536 105.295 85.3437
95.5582 106.553 86.1627
95.8957 107.336 86.0776
95.9404 108.019 86.383
96.4981 108.469 85.9973
95.737 108.66 86.9542
96.9891 108.634 86.7601
95.6413 107.906 86.957
95.3851 109.124 88.3388
95.584 109.444 88.2927
95.1589 107.293 90.7694
94.6751 107.695 91.2008
95.3023 108.027 91.7997
94.2367 108.198 91.3143
94.3037 107.709 90.1854
95.1735 106.731 89.8751
95.6741 106.998 90.1636
96.0752 108.317 92.3172
95.4837 108.798 92.6727
94.962 109.335 92.5554
94.4443 108.886 91.7331
94.5066 109.905 92.3903
93.9242 108.576 90.9331
95.6493 109.854 93.1287
94.5897 110.798 92.3467
93.9433 110.38 91.7035
97.1173 108.319 88.1253
97.2147 108.282 88.8712
96.9437 108.97 89.2453
97.0963 108.184 89.6621
97.4025 107.656 88.7564
97.579 107.974 87.1415
97.0316 108.48 87.5013
96.5859 109.723 89.7322
96.7346 109.599 90.2703
96.7412 109.46 90.9566
96.9832 108.633 90.5823
96.6833 109.174 91.6491
97.0924 107.852 90.215
96.4196 110.315 91.2208
96.1417 109.526 92.3395
96.4622 108.628 92.0309
94.6069 107.757 88.1052
94.7648 106.99 87.8136
95.0238 107.243 87.4644
94.6641 106.25 87.238
94.0319 106.887 87.9486
94.398 108.255 88.8406
94.6544 108.338 88.5679
95.2172 107.617 87.328
95.2754 106.662 86.7744
93.5349 108.127 89.5095
93.9506 107.508 88.6232
93.9128 108.306 89.1956
93.7525 106.441 87.7955
93.6871 107.841 89.8937
93.7192 108.487 90.3562
94.4225 108.748 89.7371
97.0891 106.548 86.7409
97.5998 107.107 87.9048
97.6085 107.222 86.8453
96.4141 108.981 88.2367
96.1678 109.661 89.2917
95.8594 109.578 88.9751
94.2469 105.44 85.8644
94.8364 104.844 85.0168
94.9139 105.818 85.7711
95.2841 108.32 87.7862
95.0795 109.003 88.5538
94.8949 108.681 88.5563
96.5935 107.519 90.4217
96.2717 107.14 90.5633
96.4792 107.896 91.4416
95.8411 110.512 92.6512
95.2628 111.113 92.4902
95.9367 110.915 92.0632
94.0143 107.028 89.5123
94.5312 106.367 89.2014
93.891 106.149 88.2044
93.9073 109.2 90.1832
93.6373 109.765 90.6944
93.7128 108.971 90.7139
96.8944 106.185 88.2688
96.5997 106.091 88.3046
96.7543 106.267 88.7465
96.3297 105.839 88.3951
96.3687 105.744 87.8506
96.8913 106.251 87.764
97.1299 106.49 88.2893
96.8029 106.641 89.2177
96.5475 106.434 89.2199
96.3367 105.697 87.32
96.606 106.057 87.3206
96.3715 105.628 86.8783
96.8696 106.287 87.2807
96.0356 105.151 87.2945
96.1225 105.413 86.4794
96.3048 105.747 86.4537
97.1254 106.837 88.7461
96.9713 106.888 89.1813
97.1734 107.11 89.1975
96.7807 106.995 89.6646
97.2472 106.805 88.2829
97.2022 107.344 89.0717
96.9352 107.412 89.4115
96.3123 106.303 89.2472
96.1893 105.965 88.8266
96.0414 106.124 89.278
95.9336 105.526 88.3239
96.3234 106.57 89.6613
95.8626 106.378 89.6317
95.7001 106.047 89.2868
95.4257 105.012 87.5191
95.0632 104.887 86.9751
95.0063 105.073 87.5423
94.6789 104.951 86.6283
95.0314 104.857 86.395
95.6596 104.965 87.3891
95.6183 105.167 87.874
94.8779 105.362 88.0428
94.608 105.213 87.5636
95.3921 104.971 86.3707
95.712 105.012 86.9018
95.7668 105.135 86.4098
95.0169 104.81 85.8284
95.8056 105.225 86.0659
95.6029 105.525 88.4802
95.1823 105.532 88.5153
95.5008 105.804 88.8748
94.8617 105.759 88.5401
95.3957 106.164 89.2987
94.3472 105.143 87.1646
94.4251 105.124 86.8352
94.2958 105.511 87.062
94.3439 104.87 86.1771
94.2035 105.473 87.5762
94.0236 105.793 87.2032
94.3162 105.921 87.2182
95.0334 111.601 90.9724
95.2978 111.256 90.832
95.1869 111.46 91.2392
95.4982 110.73 90.4802
95.4104 110.889 90.3879
94.7314 111.657 90.4691
94.5702 111.888 90.9758
95.1089 111.533 91.6552
95.4185 111.289 91.3544
95.2652 110.796 90.0902
94.9312 111.205 90.0451
95.0704 110.592 89.5947
94.466 111.444 89.871
95.5095 110.417 89.9008
95.1446 110.084 89.0465
94.9248 110.374 89.2465
94.4223 111.966 91.4048
94.7148 111.497 91.6126
94.374 111.758 91.809
95.0327 111.4 92.0149
94.0022 111.839 90.8345
93.9778 111.519 91.6737
94.3123 111.4 92.0509
95.7566 111.07 91.0964
95.7249 110.671 90.6357
96.0851 110.789 90.8005
95.7718 110.316 90.2175
95.7343 111.282 91.613
96.2292 110.59 90.866
96.2669 110.375 90.4532
94.3488 110.317 89.9281
94.0768 110.788 90.0063
94.0951 110.432 90.0997
93.8796 111.344 90.2497
94.0868 111.113 89.7779
94.5721 110.155 89.5994
94.4471 109.854 89.4785
94.0385 110.048 89.983
93.9219 110.474 90.2891
94.4082 110.779 89.5733
94.6086 110.301 89.421
94.6742 110.378 89.3122
94.8675 109.859 89.3253
94.965 110.024 89.0169
94.3882 109.537 89.4209
94.2304 109.648 89.7012
94.4159 109.271 89.3851
94.1261 109.697 90.0435
94.5883 109.384 89.2313
94.6158 108.864 89.1647
94.5079 108.941 89.4096
93.7824 110.881 90.7237
93.7328 111.455 90.7351
93.685 111.301 91.1092
93.8229 110.399 90.6339
93.8197 111.106 91.5328
96.7021 106.293 84.5787
96.4007 106.642 84.5358
96.1884 106.271 84.6478
96.1793 107.121 85.0559
96.5781 107.105 84.7947
97.0479 106.608 85.1898
96.8056 106.193 85.1632
95.8691 105.916 84.9697
95.7809 106.221 84.961
96.9942 107.345 85.1397
97.2067 107.084 85.3934
97.4494 107.65 85.5863
97.2795 106.929 85.8045
96.7612 107.64 85.194
97.5285 108.114 85.9605
97.624 107.876 86.1864
96.4908 105.84 85.2862
96.0341 105.666 85.1639
96.2019 105.663 85.5627
95.5545 105.356 85.0324
96.9498 106.212 85.788
96.2761 105.735 86.0413
95.9359 105.442 85.794
95.7033 106.633 85.4626
95.9142 107.059 85.4463
95.7131 106.962 85.9232
96.054 107.295 85.6623
95.4773 106.153 85.5925
95.5606 106.877 86.4457
95.6688 107.304 86.405
96.1819 108.168 86.1505
96.0908 108.569 86.3309
95.8888 108.392 86.5776
96.0155 108.86 87.101
96.4258 108.765 86.5784
96.4316 107.923 85.6612
96.1333 107.706 85.7842
95.7658 108.306 86.9378
95.6605 108.574 87.2501
96.7959 108.59 86.294
96.8866 108.27 85.5608
97.2731 108.419 85.9896
96.6053 108.718 87.0643
97.2265 108.357 86.5568
95.9053 107.645 86.1774
95.7159 107.973 86.6334
95.7448 107.619 86.5279
95.6286 108.267 87.1862
95.6317 107.599 86.8866
95.5292 108.878 87.6516
95.682 109.031 87.6639
95.3969 109.258 88.1347
95.9222 109.144 88.0385
95.4621 108.834 87.8335
95.1715 109.554 88.5812
95.276 109.774 88.5242
94.8895 107.455 91.0476
94.9708 107.87 91.4915
95.2214 107.613 91.3405
95.0799 108.232 91.9302
94.826 108.128 91.4627
94.6426 107.404 90.6738
94.8894 107.176 90.5108
95.5004 107.483 91.0264
95.5797 107.838 91.5215
94.4875 108 91.2924
94.4501 107.726 90.7729
94.2396 107.935 90.8852
94.413 107.411 90.2285
94.5482 108.342 91.5922
94.066 108.124 90.8327
94.1208 107.946 90.3496
95.1594 107.027 90.3007
95.4368 107.161 90.5134
95.3945 106.801 90.0573
95.7571 107.303 90.8046
94.881 106.868 90.0038
95.4249 106.496 89.7133
95.6337 106.588 89.8508
95.6601 108.136 92.1299
95.3894 108.373 92.2897
95.7847 108.539 92.5757
95.1028 108.63 92.3861
95.9671 107.943 91.8231
96.1202 108.683 92.7424
95.8088 108.924 92.9456
94.6781 109.124 92.2543
94.4556 109.378 92.0856
94.7462 109.646 92.5298
94.2992 109.499 91.7222
94.2407 109.072 91.5201
94.6289 108.725 91.9249
94.8711 108.882 92.3882
95.0203 109.905 92.8328
94.7704 110.197 92.655
94.1597 108.747 91.3478
94.3095 108.531 91.5278
94.0498 108.412 91.1933
93.988 108.895 91.1357
93.9802 108.326 90.6938
95.1965 109.085 92.6597
95.2691 109.641 93.0047
95.5329 109.289 93.0336
95.3814 110.288 93.1674
95.8409 109.425 92.998
94.5134 110.406 92.4158
94.2691 110.107 91.9785
94.3163 110.562 92.0711
94.0783 109.687 91.468
94.8782 110.633 92.6767
94.3441 111 92.0901
93.9591 110.953 91.8987
97.2348 108.286 88.4706
97.0784 108.612 89.0239
96.966 108.598 88.6166
97.0153 108.925 89.5831
97.1245 108.597 89.4325
97.4171 107.969 88.383
97.471 108.069 88.0218
96.8826 108.642 88.3503
96.9042 109.051 88.9336
97.1964 108.271 89.294
97.3635 107.936 88.7987
97.2894 107.909 89.2484
97.5682 107.667 88.3854
96.9619 108.544 89.7418
97.1405 107.844 89.5332
97.291 107.601 89.121
97.4584 108.204 87.6546
97.0852 108.422 87.8007
97.3348 108.232 87.2595
96.8791 108.733 88.0868
97.6936 107.847 87.5287
97.503 108.052 86.7956
97.3046 108.33 86.9744
96.809 109.386 89.512
96.8961 109.321 89.8032
96.7136 109.682 89.9439
96.8671 109.21 90.1071
96.6522 109.409 89.226
96.5357 110.065 90.1831
96.5652 109.96 90.4303
96.9533 109.065 90.7952
96.8995 108.884 91.1378
96.7129 109.338 91.2783
96.826 108.721 91.413
96.9826 108.475 90.9132
96.9619 108.756 90.2681
96.9291 109.182 90.4686
96.5229 109.762 91.4049
96.4366 109.601 91.6614
97.1072 108.236 90.4635
96.9691 108.37 90.1572
97.0758 107.99 89.966
97.0212 108.036 90.6664
97.0506 107.676 89.7172
96.7588 109.565 90.6237
96.5903 109.898 91.0758
96.5923 109.925 90.7371
96.3647 110.194 91.5268
96.4146 110.306 90.8776
96.4009 109.362 91.9842
96.6069 108.889 91.8463
96.3455 109.072 92.2005
96.6768 108.518 91.5899
96.1938 109.794 92.0562
96.0745 109.253 92.5498
96.2862 108.846 92.5359
94.6164 107.437 87.955
94.9013 107.118 87.602
94.8814 107.576 87.8074
94.992 106.776 87.1377
94.9588 106.561 87.3618
94.4758 107.382 88.1307
94.4392 107.733 88.2699
94.7249 107.885 87.912
94.8658 107.688 87.623
94.8364 106.463 87.5387
94.5437 107.003 88.038
94.582 106.518 87.7296
94.1883 107.385 88.2158
94.7604 106.217 87.0077
94.4201 106.227 87.3809
94.0965 106.376 87.6766
94.4651 108.023 88.4611
94.6518 108.056 88.3395
94.6031 108.253 88.6894
94.812 108.131 88.2716
94.2263 107.965 88.5182
94.578 108.483 89.0789
94.5968 108.528 88.919
95.0966 107.358 87.3873
95.105 106.851 87.1002
95.3181 106.995 87.1771
94.9922 106.417 86.671
95.0433 107.8 87.6002
95.397 107.381 87.0375
95.4899 106.877 86.8607
93.8013 107.814 89.161
93.9307 107.873 88.9211
93.6755 108.254 89.3245
94.0845 107.97 88.7533
94.053 107.666 88.4952
93.8151 107.374 88.7528
93.7514 107.707 89.3274
93.769 108.492 89.7699
93.9391 108.528 89.6703
94.0068 107.204 88.2461
93.815 106.998 88.2271
93.809 106.702 87.9061
93.7648 106.772 88.183
93.8717 106.188 87.4839
93.5253 107.932 89.7681
93.5473 108.323 89.8914
93.6764 108.132 90.0534
93.8894 108.626 90.2119
93.7194 107.512 89.3929
93.8758 107.987 90.151
93.8191 108.294 90.4243
94.0768 108.501 89.457
94.139 108.274 88.9832
94.3771 108.529 89.26
94.2781 108.737 90.072
94.5526 108.737 89.4849
97.317 106.811 87.3212
97.763 107.165 87.3901
97.4002 106.824 86.7541
97.7 107.506 87.4246
97.7713 107.407 87.9483
97.3394 106.851 87.851
97.0734 106.514 87.2665
97.1212 106.509 86.2319
97.3122 106.934 86.2771
97.6267 107.385 88.4231
97.4532 107.095 88.3267
97.4341 107.362 88.7151
96.8962 106.259 86.7764
96.9553 106.214 86.2978
96.6261 105.908 86.3484
97.5117 107.294 86.3787
97.59 107.608 87.0157
97.5775 107.732 86.5812
96.3716 109.36 88.8015
96.0963 109.822 89.1938
96.1728 109.286 88.6271
95.7804 110.146 89.5444
95.9552 110.104 89.7124
96.4309 109.298 89.0032
96.6396 109.045 88.44
96.3257 108.921 87.9308
96.0284 109.168 88.413
96.0529 109.961 89.804
96.3012 109.624 89.4549
96.2465 109.96 89.9625
96.7259 108.753 87.8825
96.6167 108.735 87.5859
97.011 108.624 87.2546
95.7752 109.513 88.7913
95.6227 109.927 89.2767
95.4917 109.876 88.9201
94.3793 104.863 85.1167
94.7236 105.2 85.0085
94.4462 105.527 85.5114
95.1772 105.796 85.5701
95.0885 105.35 85.1553
94.6936 104.565 85.3344
94.2864 104.862 85.7045
94.5825 105.93 86.3256
94.8109 106.031 86.2769
95.275 104.928 85.084
95.089 104.688 85.2866
95.5837 104.976 85.5431
94.2755 105.426 86.3225
94.4633 105.891 86.7003
94.4149 105.854 86.8956
95.0903 106.263 86.2931
95.2383 106.204 85.9951
95.3588 106.569 86.4969
95.1827 108.605 88.1319
95.0593 108.903 88.6355
95.0726 108.481 88.206
94.7984 109.17 88.9285
94.8739 109.336 88.9117
95.2403 108.74 87.9428
95.452 108.454 87.7113
95.1552 108.146 87.9432
94.9681 108.332 88.2344
95.0398 109.425 88.8511
95.2363 109.102 88.4036
95.179 109.504 88.8166
95.4903 108.125 87.3909
95.3393 107.985 87.598
95.4743 107.772 87.2333
94.8175 108.545 88.5923
94.6893 108.907 88.8847
94.6905 108.701 88.9266
96.4321 107.312 90.5362
96.3003 107.527 90.9651
96.5758 107.686 90.8957
96.1675 107.737 91.4804
96.0614 107.404 90.9426
96.4051 106.996 90.101
96.6054 107.13 90.0671
96.8428 107.822 90.8242
96.7352 108.033 91.3709
95.9526 107.048 90.3945
96.1349 106.86 90.0028
95.8769 106.721 89.9007
96.7207 107.371 89.9906
96.8224 107.69 90.2825
96.8333 107.543 89.8101
96.5627 108.208 91.8548
96.2791 108.055 91.8735
96.3209 108.427 92.3231
95.5793 110.891 92.6376
95.5802 111.161 92.3615
95.8741 110.757 92.3538
95.7273 111.395 92.1021
95.3344 111.329 92.223
95.1966 110.788 92.7555
95.5372 110.628 92.9923
96.0535 110.26 92.2108
96.1222 110.486 91.9558
94.9851 111.284 92.3369
94.8952 111.008 92.5526
94.5803 111.166 92.2612
95.7714 110.224 92.9624
96.0203 110.03 92.5295
95.9248 109.725 92.7162
96.1812 110.589 91.6053
95.9845 111.025 91.6573
96.2161 110.65 91.2198
94.2459 106.625 89.3607
94.2088 106.237 88.7246
93.9662 106.636 88.9506
94.1498 105.766 88.0588
94.5134 105.905 88.623
94.5536 106.758 89.7183
94.2861 106.965 89.9312
93.793 107.182 89.2204
93.7097 106.638 88.5299
94.8524 106.125 89.1392
94.8505 106.525 89.5717
95.1414 106.292 89.4953
94.1014 107.305 89.9618
93.8767 107.443 89.6913
94.026 107.733 90.0144
93.6882 106.255 87.9923
93.9112 105.788 87.7931
93.8038 105.931 87.5333
93.6619 109.435 90.3298
93.6925 109.258 90.6387
93.7932 109.175 90.4346
93.8288 109.114 90.9899
93.8183 109.46 91.0369
93.7067 109.963 90.3953
93.834 109.607 90.1103
94.1743 108.98 90.3776
93.9081 108.891 90.5421
93.7942 109.981 91.1731
93.6634 110.284 90.854
93.7686 110.596 91.3942
94.0934 109.275 89.9614
94.3167 109.025 90.0922
94.4629 108.965 89.7638
93.7415 108.704 90.5742
93.8038 108.715 90.8181
93.8258 108.516 90.6812
POLYGONS 1280  5120
3 164 162 163
3 163 44 164
3 162 43 163
3 164 42 162
3 166 165 163
3 163 43 166
3 165 44 163
3 166 14 165
3 168 167 162
3 162 42 168
3 167 43 162
3 168 13 167
3 170 169 164
3 164 44 170
3 169 42 164
3 170 12 169
3 173 171 172
3 172 46 173
3 171 43 172
3 173 45 171
3 167 174 172
3 172 43 167
3 174 46 172
3 167 13 174
3 175 166 171
3 171 45 175
3 166 43 171
3 175 14 166
3 177 176 173
3 173 46 177
3 176 45 173
3 177 4 176
3 180 178 179
3 179 48 180
3 178 42 179
3 180 47 178
3 169 181 179
3 179 42 169
3 181 48 179
3 169 12 181
3 182 168 178
3 178 47 182
3 168 42 178
3 182 13 168
3 184 183 180
3 180 48 184
3 183 47 180
3 184 8 183
3 187 185 186
3 186 50 187
3 185 44 186
3 187 49 185
3 165 188 186
3 186 44 165
3 188 50 186
3 165 14 188
3 189 170 185
3 185 49 189
3 170 44 185
3 189 12 170
3 191 190 187
3 187 50 191
3 190 49 187
3 191 7 190
3 194 192 193
3 193 53 194
3 192 52 193
3 194 51 192
3 196 195 193
3 193 52 196
3 195 53 193
3 196 16 195
3 198 197 192
3 192 51 198
3 197 52 192
3 198 14 197
3 200 199 194
3 194 53 200
3 199 51 194
3 200 15 199
3 203 201 202
3 202 45 203
3 201 52 202
3 203 54 201
3 197 175 202
3 202 52 197
3 175 45 202
3 197 14 175
3 204 196 201
3 201 54 204
3 196 52 201
3 204 16 196
3 176 205 203
3 203 45 176
3 205 54 203
3 176 4 205
3 208 206 207
3 207 55 208
3 206 51 207
3 208 50 206
3 199 209 207
3 207 51 199
3 209 55 207
3 199 15 209
3 188 198 206
3 206 50 188
3 198 51 206
3 188 14 198
3 210 191 208
3 208 55 210
3 191 50 208
3 210 7 191
3 213 211 212
3 212 57 213
3 211 53 212
3 213 56 211
3 195 214 212
3 212 53 195
3 214 57 212
3 195 16 214
3 215 200 211
3 211 56 215
3 200 53 211
3 215 15 200
3 217 216 213
3 213 57 217
3 216 56 213
3 217 9 216
3 220 218 219
3 219 60 220
3 218 59 219
3 220 58 218
3 222 221 219
3 219 59 222
3 221 60 219
3 222 19 221
3 224 223 218
3 218 58 224
3 223 59 218
3 224 18 223
3 226 225 220
3 220 60 226
3 225 58 220
3 226 17 225
3 229 227 228
3 228 62 229
3 227 59 228
3 229 61 227
3 223 230 228
3 228 59 223
3 230 62 228
3 223 18 230
3 231 222 227
3 227 61 231
3 222 59 227
3 231 19 222
3 233 232 229
3 229 62 233
3 232 61 229
3 233 5 232
3 236 234 235
3 235 64 236
3 234 58 235
3 236 63 234
3 225 237 235
3 235 58 225
3 237 64 235
3 225 17 237
3 238 224 234
3 234 63 238
3 224 58 234
3 238 18 224
3 240 239 236
3 236 64 240
3 239 63 236
3 240 6 239
3 243 241 242
3 242 66 243
3 241 60 242
3 243 65 241
3 221 244 242
3 242 60 221
3 244 66 242
3 221 19 244
3 245 226 241
3 241 65 245
3 226 60 241
3 245 17 226
3 247 246 243
3 243 66 247
3 246 65 243
3 247 11 246
3 250 248 249
3 249 69 250
3 248 68 249
3 250 67 248
3 252 251 249
3 249 68 252
3 251 69 249
3 252 18 251
3 254 253 248
3 248 67 254
3 253 68 248
3 254 21 253
3 256 255 250
3 250 69 256
3 255 67 250
3 256 20 255
3 259 257 258
3 258 70 259
3 257 68 258
3 259 62 257
3 253 260 258
3 258 68 253
3 260 70 258
3 253 21 260
3 230 252 257
3 257 62 230
3 252 68 257
3 230 18 252
3 261 233 259
3 259 70 261
3 233 62 259
3 261 5 233
3 264 262 263
3 263 72 264
3 262 67 263
3 264 71 262
3 255 265 263
3 263 67 255
3 265 72 263
3 255 20 265
3 266 254 262
3 262 71 266
3 254 67 262
3 266 21 254
3 268 267 264
3 264 72 268
3 267 71 264
3 268 10 267
3 271 269 270
3 270 63 271
3 269 69 270
3 271 73 269
3 251 238 270
3 270 69 251
3 238 63 270
3 251 18 238
3 272 256 269
3 269 73 272
3 256 69 269
3 272 20 256
3 239 273 271
3 271 63 239
3 273 73 271
3 239 6 273
3 276 274 275
3 275 76 276
3 274 75 275
3 276 74 274
3 278 277 275
3 275 75 278
3 277 76 275
3 278 24 277
3 280 279 274
3 274 74 280
3 279 75 274
3 280 23 279
3 282 281 276
3 276 76 282
3 281 74 276
3 282 22 281
3 285 283 284
3 284 78 285
3 283 75 284
3 285 77 283
3 279 286 284
3 284 75 279
3 286 78 284
3 279 23 286
3 287 278 283
3 283 77 287
3 278 75 283
3 287 24 278
3 289 288 285
3 285 78 289
3 288 77 285
3 289 0 288
3 292 290 291
3 291 80 292
3 290 74 291
3 292 79 290
3 281 293 291
3 291 74 281
3 293 80 291
3 281 22 293
3 294 280 290
3 290 79 294
3 280 74 290
3 294 23 280
3 296 295 292
3 292 80 296
3 295 79 292
3 296 4 295
3 299 297 298
3 298 82 299
3 297 76 298
3 299 81 297
3 277 300 298
3 298 76 277
3 300 82 298
3 277 24 300
3 301 282 297
3 297 81 301
3 282 76 297
3 301 22 282
3 303 302 299
3 299 82 303
3 302 81 299
3 303 3 302
3 306 304 305
3 305 85 306
3 304 84 305
3 306 83 304
3 308 307 305
3 305 84 308
3 307 85 305
3 308 26 307
3 310 309 304
3 304 83 310
3 309 84 304
3 310 24 309
3 312 311 306
3 306 85 312
3 311 83 306
3 312 25 311
3 315 313 314
3 314 77 315
3 313 84 314
3 315 86 313
3 309 287 314
3 314 84 309
3 287 77 314
3 309 24 287
3 316 308 313
3 313 86 316
3 308 84 313
3 316 26 308
3 288 317 315
3 315 77 288
3 317 86 315
3 288 0 317
3 320 318 319
3 319 87 320
3 318 83 319
3 320 82 318
3 311 321 319
3 319 83 311
3 321 87 319
3 311 25 321
3 300 310 318
3 318 82 300
3 310 83 318
3 300 24 310
3 322 303 320
3 320 87 322
3 303 82 320
3 322 3 303
3 325 323 324
3 324 89 325
3 323 85 324
3 325 88 323
3 307 326 324
3 324 85 307
3 326 89 324
3 307 26 326
3 327 312 323
3 323 88 327
3 312 85 323
3 327 25 312
3 329 328 325
3 325 89 329
3 328 88 325
3 329 5 328
3 332 330 331
3 331 92 332
3 330 91 331
3 332 90 330
3 334 333 331
3 331 91 334
3 333 92 331
3 334 29 333
3 336 335 330
3 330 90 336
3 335 91 330
3 336 28 335
3 338 337 332
3 332 92 338
3 337 90 332
3 338 27 337
3 341 339 340
3 340 94 341
3 339 91 340
3 341 93 339
3 335 342 340
3 340 91 335
3 342 94 340
3 335 28 342
3 343 334 339
3 339 93 343
3 334 91 339
3 343 29 334
3 345 344 341
3 341 94 345
3 344 93 341
3 345 2 344
3 348 346 347
3 347 96 348
3 346 90 347
3 348 95 346
3 337 349 347
3 347 90 337
3 349 96 347
3 337 27 349
3 350 336 346
3 346 95 350
3 336 90 346
3 350 28 336
3 352 351 348
3 348 96 352
3 351 95 348
3 352 7 351
3 355 353 354
3 354 98 355
3 353 92 354
3 355 97 353
3 333 356 354
3 354 92 333
3 356 98 354
3 333 29 356
3 357 338 353
3 353 97 357
3 338 92 353
3 357 27 338
3 359 358 355
3 355 98 359
3 358 97 355
3 359 1 358
3 362 360 361
3 361 101 362
3 360 100 361
3 362 99 360
3 364 363 361
3 361 100 364
3 363 101 361
3 364 31 363
3 366 365 360
3 360 99 366
3 365 100 360
3 366 29 365
3 368 367 362
3 362 101 368
3 367 99 362
3 368 30 367
3 371 369 370
3 370 93 371
3 369 100 370
3 371 102 369
3 365 343 370
3 370 100 365
3 343 93 370
3 365 29 343
3 372 364 369
3 369 102 372
3 364 100 369
3 372 31 364
3 344 373 371
3 371 93 344
3 373 102 371
3 344 2 373
3 376 374 375
3 375 103 376
3 374 99 375
3 376 98 374
3 367 377 375
3 375 99 367
3 377 103 375
3 367 30 377
3 356 366 374
3 374 98 356
3 366 99 374
3 356 29 366
3 378 359 376
3 376 103 378
3 359 98 376
3 378 1 359
3 381 379 380
3 380 105 381
3 379 101 380
3 381 104 379
3 363 382 380
3 380 101 363
3 382 105 380
3 363 31 382
3 383 368 379
3 379 104 383
3 368 101 379
3 383 30 368
3 385 384 381
3 381 105 385
3 384 104 381
3 385 6 384
3 388 386 387
3 387 108 388
3 386 107 387
3 388 106 386
3 390 389 387
3 387 107 390
3 389 108 387
3 390 34 389
3 392 391 386
3 386 106 392
3 391 107 386
3 392 33 391
3 394 393 388
3 388 108 394
3 393 106 388
3 394 32 393
3 397 395 396
3 396 110 397
3 395 107 396
3 397 109 395
3 391 398 396
3 396 107 391
3 398 110 396
3 391 33 398
3 399 390 395
3 395 109 399
3 390 107 395
3 399 34 390
3 401 400 397
3 397 110 401
3 400 109 397
3 401 8 400
3 404 402 403
3 403 112 404
3 402 106 403
3 404 111 402
3 393 405 403
3 403 106 393
3 405 112 403
3 393 32 405
3 406 392 402
3 402 111 406
3 392 106 402
3 406 33 392
3 408 407 404
3 404 112 408
3 407 111 404
3 408 0 407
3 411 409 410
3 410 114 411
3 409 108 410
3 411 113 409
3 389 412 410
3 410 108 389
3 412 114 410
3 389 34 412
3 413 394 409
3 409 113 413
3 394 108 409
3 413 32 394
3 415 414 411
3 411 114 415
3 414 113 411
3 415 11 414
3 418 416 417
3 417 117 418
3 416 116 417
3 418 115 416
3 420 419 417
3 417 116 420
3 419 117 417
3 420 36 419
3 422 421 416
3 416 115 422
3 421 116 416
3 422 34 421
3 424 423 418
3 418 117 424
3 423 115 418
3 424 35 423
3 427 425 426
3 426 109 427
3 425 116 426
3 427 118 425
3 421 399 426
3 426 116 421
3 399 109 426
3 421 34 399
3 428 420 425
3 425 118 428
3 420 116 425
3 428 36 420
3 400 429 427
3 427 109 400
3 429 118 427
3 400 8 429
3 432 430 431
3 431 119 432
3 430 115 431
3 432 114 430
3 423 433 431
3 431 115 423
3 433 119 431
3 423 35 433
3 412 422 430
3 430 114 412
3 422 115 430
3 412 34 422
3 434 415 432
3 432 119 434
3 415 114 432
3 434 11 415
3 437 435 436
3 436 121 437
3 435 117 436
3 437 120 435
3 419 438 436
3 436 117 419
3 438 121 436
3 419 36 438
3 439 424 435
3 435 120 439
3 424 117 435
3 439 35 424
3 441 440 437
3 437 121 441
3 440 120 437
3 441 1 440
3 444 442 443
3 443 124 444
3 442 123 443
3 444 122 442
3 446 445 443
3 443 123 446
3 445 124 443
3 446 39 445
3 448 447 442
3 442 122 448
3 447 123 442
3 448 38 447
3 450 449 444
3 444 124 450
3 449 122 444
3 450 37 449
3 453 451 452
3 452 126 453
3 451 123 452
3 453 125 451
3 447 454 452
3 452 123 447
3 454 126 452
3 447 38 454
3 455 446 451
3 451 125 455
3 446 123 451
3 455 39 446
3 457 456 453
3 453 126 457
3 456 125 453
3 457 9 456
3 460 458 459
3 459 128 460
3 458 122 459
3 460 127 458
3 449 461 459
3 459 122 449
3 461 128 459
3 449 37 461
3 462 448 458
3 458 127 462
3 448 122 458
3 462 38 448
3 464 463 460
3 460 128 464
3 463 127 460
3 464 10 463
3 467 465 466
3 466 130 467
3 465 124 466
3 467 129 465
3 445 468 466
3 466 124 445
3 468 130 466
3 445 39 468
3 469 450 465
3 465 129 469
3 450 124 465
3 469 37 450
3 471 470 467
3 467 130 471
3 470 129 467
3 471 3 470
3 474 472 473
3 473 133 474
3 472 132 473
3 474 131 472
3 476 475 473
3 473 132 476
3 475 133 473
3 476 38 475
3 478 477 472
3 472 131 478
3 477 132 472
3 478 41 477
3 480 479 474
3 474 133 480
3 479 131 474
3 480 40 479
3 483 481 482
3 482 134 483
3 481 132 482
3 483 126 481
3 477 484 482
3 482 132 477
3 484 134 482
3 477 41 484
3 454 476 481
3 481 126 454
3 476 132 481
3 454 38 476
3 485 457 483
3 483 134 485
3 457 126 483
3 485 9 457
3 488 486 487
3 487 136 488
3 486 131 487
3 488 135 486
3 479 489 487
3 487 131 479
3 489 136 487
3 479 40 489
3 490 478 486
3 486 135 490
3 478 131 486
3 490 41 478
3 492 491 488
3 488 136 492
3 491 135 488
3 492 2 491
3 495 493 494
3 494 127 495
3 493 133 494
3 495 137 493
3 475 462 494
3 494 133 475
3 462 127 494
3 475 38 462
3 496 480 493
3 493 137 496
3 480 133 493
3 496 40 480
3 463 497 495
3 495 127 463
3 497 137 495
3 463 10 497
3 500 498 499
3 499 140 500
3 498 139 499
3 500 138 498
3 502 501 499
3 499 139 502
3 501 140 499
3 502 33 501
3 504 503 498
3 498 138 504
3 503 139 498
3 504 13 503
3 506 505 500
3 500 140 506
3 505 138 500
3 506 23 505
3 509 507 508
3 508 47 509
3 507 139 508
3 509 110 507
3 503 182 508
3 508 139 503
3 182 47 508
3 503 13 182
3 398 502 507
3 507 110 398
3 502 139 507
3 398 33 502
3 183 401 509
3 509 47 183
3 401 110 509
3 183 8 401
3 512 510 511
3 511 79 512
3 510 138 511
3 512 46 510
3 505 294 511
3 511 138 505
3 294 79 511
3 505 23 294
3 174 504 510
3 510 46 174
3 504 138 510
3 174 13 504
3 295 177 512
3 512 79 295
3 177 46 512
3 295 4 177
3 515 513 514
3 514 111 515
3 513 140 514
3 515 78 513
3 501 406 514
3 514 140 501
3 406 111 514
3 501 33 406
3 286 506 513
3 513 78 286
3 506 140 513
3 286 23 506
3 407 289 515
3 515 111 407
3 289 78 515
3 407 0 289
3 518 516 517
3 517 143 518
3 516 142 517
3 518 141 516
3 520 519 517
3 517 142 520
3 519 143 517
3 520 19 519
3 522 521 516
3 516 141 522
3 521 142 516
3 522 32 521
3 524 523 518
3 518 143 524
3 523 141 518
3 524 26 523
3 527 525 526
3 526 113 527
3 525 142 526
3 527 66 525
3 521 413 526
3 526 142 521
3 413 113 526
3 521 32 413
3 244 520 525
3 525 66 244
3 520 142 525
3 244 19 520
3 414 247 527
3 527 113 414
3 247 66 527
3 414 11 247
3 530 528 529
3 529 86 530
3 528 141 529
3 530 112 528
3 523 316 529
3 529 141 523
3 316 86 529
3 523 26 316
3 405 522 528
3 528 112 405
3 522 141 528
3 405 32 522
3 317 408 530
3 530 86 317
3 408 112 530
3 317 0 408
3 533 531 532
3 532 61 533
3 531 143 532
3 533 89 531
3 519 231 532
3 532 143 519
3 231 61 532
3 519 19 231
3 326 524 531
3 531 89 326
3 524 143 531
3 326 26 524
3 232 329 533
3 533 61 232
3 329 89 533
3 232 5 329
3 536 534 535
3 535 146 536
3 534 145 535
3 536 144 534
3 538 537 535
3 535 145 538
3 537 146 535
3 538 22 537
3 540 539 534
3 534 144 540
3 539 145 534
3 540 16 539
3 542 541 536
3 536 146 542
3 541 144 536
3 542 39 541
3 545 543 544
3 544 54 545
3 543 145 544
3 545 80 543
3 539 204 544
3 544 145 539
3 204 54 544
3 539 16 204
3 293 538 543
3 543 80 293
3 538 145 543
3 293 22 538
3 205 296 545
3 545 54 205
3 296 80 545
3 205 4 296
3 548 546 547
3 547 125 548
3 546 144 547
3 548 57 546
3 541 455 547
3 547 144 541
3 455 125 547
3 541 39 455
3 214 540 546
3 546 57 214
3 540 144 546
3 214 16 540
3 456 217 548
3 548 125 456
3 217 57 548
3 456 9 217
3 551 549 550
3 550 81 551
3 549 146 550
3 551 130 549
3 537 301 550
3 550 146 537
3 301 81 550
3 537 22 301
3 468 542 549
3 549 130 468
3 542 146 549
3 468 39 542
3 302 471 551
3 551 81 302
3 471 130 551
3 302 3 471
3 554 552 553
3 553 149 554
3 552 148 553
3 554 147 552
3 556 555 553
3 553 148 556
3 555 149 553
3 556 21 555
3 558 557 552
3 552 147 558
3 557 148 552
3 558 25 557
3 560 559 554
3 554 149 560
3 559 147 554
3 560 37 559
3 563 561 562
3 562 88 563
3 561 148 562
3 563 70 561
3 557 327 562
3 562 148 557
3 327 88 562
3 557 25 327
3 260 556 561
3 561 70 260
3 556 148 561
3 260 21 556
3 328 261 563
3 563 88 328
3 261 70 563
3 328 5 261
3 566 564 565
3 565 129 566
3 564 147 565
3 566 87 564
3 559 469 565
3 565 147 559
3 469 129 565
3 559 37 469
3 321 558 564
3 564 87 321
3 558 147 564
3 321 25 558
3 470 322 566
3 566 129 470
3 322 87 566
3 470 3 322
3 569 567 568
3 568 71 569
3 567 149 568
3 569 128 567
3 555 266 568
3 568 149 555
3 266 71 568
3 555 21 266
3 461 560 567
3 567 128 461
3 560 149 567
3 461 37 560
3 267 464 569
3 569 71 267
3 464 128 569
3 267 10 464
3 572 570 571
3 571 152 572
3 570 151 571
3 572 150 570
3 574 573 571
3 571 151 574
3 573 152 571
3 574 27 573
3 576 575 570
3 570 150 576
3 575 151 570
3 576 12 575
3 578 577 572
3 572 152 578
3 577 150 572
3 578 36 577
3 581 579 580
3 580 49 581
3 579 151 580
3 581 96 579
3 575 189 580
3 580 151 575
3 189 49 580
3 575 12 189
3 349 574 579
3 579 96 349
3 574 151 579
3 349 27 574
3 190 352 581
3 581 49 190
3 352 96 581
3 190 7 352
3 584 582 583
3 583 118 584
3 582 150 583
3 584 48 582
3 577 428 583
3 583 150 577
3 428 118 583
3 577 36 428
3 181 576 582
3 582 48 181
3 576 150 582
3 181 12 576
3 429 184 584
3 584 118 429
3 184 48 584
3 429 8 184
3 587 585 586
3 586 97 587
3 585 152 586
3 587 121 585
3 573 357 586
3 586 152 573
3 357 97 586
3 573 27 357
3 438 578 585
3 585 121 438
3 578 152 585
3 438 36 578
3 358 441 587
3 587 97 358
3 441 121 587
3 358 1 441
3 590 588 589
3 589 155 590
3 588 154 589
3 590 153 588
3 592 591 589
3 589 154 592
3 591 155 589
3 592 17 591
3 594 593 588
3 588 153 594
3 593 154 588
3 594 30 593
3 596 595 590
3 590 155 596
3 595 153 590
3 596 35 595
3 599 597 598
3 598 104 599
3 597 154 598
3 599 64 597
3 593 383 598
3 598 154 593
3 383 104 598
3 593 30 383
3 237 592 597
3 597 64 237
3 592 154 597
3 237 17 592
3 384 240 599
3 599 104 384
3 240 64 599
3 384 6 240
3 602 600 601
3 601 120 602
3 600 153 601
3 602 103 600
3 595 439 601
3 601 153 595
3 439 120 601
3 595 35 439
3 377 594 600
3 600 103 377
3 594 153 600
3 377 30 594
3 440 378 602
3 602 120 440
3 378 103 602
3 440 1 378
3 605 603 604
3 604 65 605
3 603 155 604
3 605 119 603
3 591 245 604
3 604 155 591
3 245 65 604
3 591 17 245
3 433 596 603
3 603 119 433
3 596 155 603
3 433 35 596
3 246 434 605
3 605 65 246
3 434 119 605
3 246 11 434
3 608 606 607
3 607 158 608
3 606 157 607
3 608 156 606
3 610 609 607
3 607 157 610
3 609 158 607
3 610 15 609
3 612 611 606
3 606 156 612
3 611 157 606
3 612 28 611
3 614 613 608
3 608 158 614
3 613 156 608
3 614 41 613
3 617 615 616
3 616 95 617
3 615 157 616
3 617 55 615
3 611 350 616
3 616 157 611
3 350 95 616
3 611 28 350
3 209 610 615
3 615 55 209
3 610 157 615
3 209 15 610
3 351 210 617
3 617 95 351
3 210 55 617
3 351 7 210
3 620 618 619
3 619 135 620
3 618 156 619
3 620 94 618
3 613 490 619
3 619 156 613
3 490 135 619
3 613 41 490
3 342 612 618
3 618 94 342
3 612 156 618
3 342 28 612
3 491 345 620
3 620 135 491
3 345 94 620
3 491 2 345
3 623 621 622
3 622 56 623
3 621 158 622
3 623 134 621
3 609 215 622
3 622 158 609
3 215 56 622
3 609 15 215
3 484 614 621
3 621 134 484
3 614 158 621
3 484 41 614
3 216 485 623
3 623 56 216
3 485 134 623
3 216 9 485
3 626 624 625
3 625 161 626
3 624 160 625
3 626 159 624
3 628 627 625
3 625 160 628
3 627 161 625
3 628 31 627
3 630 629 624
3 624 159 630
3 629 160 624
3 630 20 629
3 632 631 626
3 626 161 632
3 631 159 626
3 632 40 631
3 635 633 634
3 634 73 635
3 633 160 634
3 635 105 633
3 629 272 634
3 634 160 629
3 272 73 634
3 629 20 272
3 382 628 633
3 633 105 382
3 628 160 633
3 382 31 628
3 273 385 635
3 635 73 273
3 385 105 635
3 273 6 385
3 638 636 637
3 637 137 638
3 636 159 637
3 638 72 636
3 631 496 637
3 637 159 631
3 496 137 637
3 631 40 496
3 265 630 636
3 636 72 265
3 630 159 636
3 265 20 630
3 497 268 638
3 638 137 497
3 268 72 638
3 497 10 268
3 641 639 640
3 640 102 641
3 639 161 640
3 641 136 639
3 627 372 640
3 640 161 627
3 372 102 640
3 627 31 372
3 489 632 639
3 639 136 489
3 632 161 639
3 489 40 632
3 373 492 641
3 641 102 373
3 492 136 641
3 373 2 492
