# vtk DataFile Version 3.0
this file was written using fslvtkio
ASCII
DATASET POLYDATA
POINTS 642 float
130.417 137.65 51.7139
115.019 135.628 51.3945
116.41 131.037 51.5598
130.179 132.512 50.3566
126.749 131.714 56.3743
128.777 136.695 43.758
118.758 135.079 44.91
118.376 130.489 57.5802
122.34 136.643 55.4019
123.708 129.191 54.5682
124.133 133.305 48.8214
122.907 138.083 47.9711
119.987 133.688 56.8957
125.046 134.487 56.6836
123.381 130.175 58.6322
120.757 127.502 57.4518
126.924 128.134 56.5463
120.288 138.045 45.1887
123.502 136.075 43.3638
126.281 138.859 44.3504
121.744 134.642 46.9619
126.671 134.437 45.4796
129.361 131.542 53.6522
129.485 135.021 54.5625
132.477 135.214 50.4775
131.318 134.269 46.1246
131.12 138.368 46.9091
115.492 133.087 54.6116
115.1 129.169 54.6299
112.661 132.758 49.8467
116.343 135.784 47.6767
117.23 133.195 48.2757
127.116 138.324 49.3536
126.487 137.215 53.735
122.375 137.715 51.8188
118.667 137.363 49.5705
118.151 136.299 53.9128
127.54 133.321 49.3729
123.399 131.028 51.489
127.327 130.425 52.5573
120.243 132.138 50.2849
119.356 128.797 53.1923
122.654 134.119 57.0335
124.153 132.476 57.7085
121.846 132.111 57.8696
125.342 130.922 57.7357
126.2 133.161 56.8295
123.706 135.837 56.3688
120.966 135.37 56.4286
119.138 132.11 57.4185
120.861 130.255 58.6614
122.237 128.234 59.3475
125.543 128.848 58.6443
124.366 126.9 57.6828
127.229 129.85 56.9054
119.255 128.673 58.1535
122.485 128.066 56.0358
125.401 128.36 55.3962
121.687 137.475 43.5348
124.647 138.307 42.7163
123.062 138.703 44.4377
127.99 138.516 43.3861
126.096 136.646 43.1015
120.973 135.561 43.8981
119.158 136.797 44.4969
121.65 138.427 46.3223
124.533 138.48 46.2768
124.267 134.624 46.0337
125.185 135.166 44.0374
122.614 134.979 44.7304
127.841 135.286 44.1154
125.361 134.077 47.3484
123.072 133.988 47.7781
120.306 134.646 45.659
129.583 133.36 53.966
131.456 135.151 52.8481
130.597 133.674 52.0783
132.142 136.799 51.292
130.481 136.573 53.5784
127.969 133.341 55.3225
128.246 131.638 55.112
129.8 132.003 52.0118
131.497 133.558 50.1805
132.629 134.921 48.1307
132.454 136.762 48.7299
132.181 136.437 46.2192
131.026 137.972 49.5412
130.815 133.467 48.509
130.578 135.437 44.3475
130.39 137.906 44.792
114.425 131.053 54.7212
112.704 130.639 52.4095
113.32 132.872 52.5663
114.262 131.446 50.7449
115.209 129.549 52.5837
116.546 129.801 56.4723
116.777 131.924 56.2635
114.725 134.615 53.1358
113.313 134.327 50.7526
113.842 134.132 48.4701
114.74 132.512 48.7566
116.197 134.036 47.1583
116.69 132.193 50.2744
115.531 135.463 49.5599
117.111 135.677 45.5094
118.168 134.178 46.4425
126.91 137.957 51.7418
124.615 137.628 52.8662
124.859 137.808 50.6315
122.258 137.392 53.8171
124.409 137.086 54.9758
128.63 137.418 53.0424
128.988 138.243 50.6584
125.063 138.124 48.4642
122.721 137.882 49.8402
120.525 137.678 50.6699
120.233 137.065 52.889
118.193 137.044 51.9106
120.237 136.413 54.8728
120.92 137.688 48.6801
116.727 136.642 50.4176
116.221 136.145 52.9578
125.704 132.238 50.7073
125.486 130.89 51.9099
127.622 132.019 51.3035
125.609 129.644 53.5823
123.507 129.982 52.8174
123.885 132.201 50.2016
125.887 133.557 49.099
128.926 132.988 49.8973
128.925 131.306 51.6276
119.648 130.543 51.7885
121.341 130.152 52.4149
121.845 131.575 50.9975
121.668 129.01 54.1169
117.552 129.792 52.3537
118.292 131.554 51.1631
122.223 132.913 49.5167
127.067 134.725 55.397
125.994 136.188 55.5917
128.31 136.462 54.7633
129.105 138.573 48.256
126.936 138.492 46.9514
128.957 139.013 45.5366
127.099 128.846 54.328
128.163 129.865 55.3575
128.982 130.341 53.2984
129.366 133.86 47.8876
129.028 134.162 45.6176
127.33 134.09 47.5932
118.665 135.142 55.7808
117.527 133.574 56.1345
116.446 135.002 54.7531
117.423 136.774 48.3818
118.18 136.997 46.2686
119.624 137.849 47.2626
117.14 128.512 54.0267
117.737 128.213 56.4882
119.971 127.955 55.3394
120.979 133.34 48.5428
119.592 134.012 47.8242
118.829 132.824 49.5923
123.455 133.463 57.4241
122.99 132.327 57.8647
122.16 133.284 57.497
122.62 131.22 58.2704
123.713 131.456 58.2419
124.614 133.512 57.3913
123.894 134.235 56.9314
121.344 133.921 57.1342
121.006 133.015 57.4933
124.743 131.703 57.9757
125.353 132.859 57.5527
125.695 132.031 57.3663
125.692 133.844 57.0405
124.44 130.592 58.3028
126.015 131.41 56.9944
126.419 132.395 56.5492
123.092 134.928 56.7324
121.771 134.584 56.6909
122.324 135.457 56.4823
120.469 134.413 56.634
124.305 135.239 56.5769
122.979 136.231 56.0196
121.695 136.142 56.0559
120.62 132.041 57.6643
121.517 131.126 58.1739
120.17 131.271 57.992
122.205 130.171 58.756
119.594 132.866 57.2661
118.812 131.338 57.419
119.623 130.367 58.2172
124.017 128.442 59.0317
125.195 127.498 58.6978
123.307 127.119 59.095
126.023 127.198 57.4318
126.34 128.192 57.8889
124.562 129.456 58.9168
122.997 129.262 59.0697
121.487 127.559 58.56
122.421 126.841 57.8983
126.657 129.29 57.8744
125.528 129.975 58.4188
126.427 130.485 57.3725
127.292 128.836 57.0953
126.838 130.743 56.5119
121.578 129.277 59.1474
120.643 128.389 58.8902
120.148 129.44 58.5239
119.844 127.823 58.0907
118.816 129.558 57.9624
123.45 127.343 56.8504
125.263 127.476 56.4484
124.114 128.118 55.9036
126.306 127.888 55.9161
121.671 127.435 56.6981
123.206 128.686 55.402
124.588 128.945 55.2094
123.098 137.959 43.0539
123.856 138.745 43.4522
122.326 138.449 43.7092
124.686 138.771 44.1981
125.425 138.796 43.4042
123.948 137.182 43.0811
122.492 136.747 43.2767
121.039 137.959 44.1312
121.719 138.36 44.6295
126.255 138.463 42.8087
125.321 137.461 42.8869
126.803 137.696 43.1026
124.781 136.403 43.0907
127.076 138.935 43.6546
128.3 137.602 43.4486
127.484 136.768 43.3166
121.394 136.448 43.7038
120.517 137.205 44.0041
120.005 136.164 44.0241
119.713 137.477 44.7536
122.146 135.925 43.5659
119.691 135.35 44.2806
118.761 135.862 44.3285
122.342 138.581 45.3375
123.939 138.742 45.1821
123.104 138.503 46.1905
125.386 138.75 45.209
121.092 138.305 45.5924
122.37 138.279 47.1099
123.658 138.378 47.1163
124.798 134.828 44.9633
123.931 135.038 44.1793
123.508 134.825 45.3014
123.022 135.442 43.8317
124.34 135.686 43.5612
125.944 134.909 44.784
125.505 134.512 45.6345
123.009 134.635 46.2955
122.31 134.678 45.7351
125.529 135.949 43.4615
126.443 135.161 43.9111
126.984 136.003 43.6183
127.203 134.831 44.7383
128.335 136.013 43.8432
124.875 134.266 46.5306
123.599 134.408 46.812
124.2 134.122 47.4641
122.508 134.343 47.284
126.083 134.13 46.3644
124.684 133.81 48.0628
123.722 133.694 48.2886
121.43 134.747 45.153
121.827 135.245 44.2152
120.562 135.001 44.6408
121.106 134.685 46.3439
119.588 134.866 45.1814
130.483 134.266 53.4682
131.256 134.457 52.4638
130.014 133.456 53.037
131.862 134.497 51.3853
132.183 135.201 51.7012
130.569 135.081 53.8085
129.559 134.245 54.1484
129.539 132.503 53.7008
130.025 132.561 52.8325
132.136 136.055 52.2174
131.115 135.877 53.2443
131.389 136.624 52.4982
130.256 135.781 54.2366
132.69 135.965 50.9756
131.278 137.341 51.5199
130.555 137.176 52.6682
128.799 133.364 54.5849
128.94 132.427 54.5203
128.095 132.457 55.3113
128.812 131.503 54.3347
128.642 134.227 54.8143
127.358 132.523 55.9454
127.444 131.651 55.8074
130.362 132.566 52.0585
131.003 133.691 51.1479
130.679 132.77 51.1261
132.005 134.356 50.2751
129.679 131.644 52.8845
129.996 132.28 51.2515
130.96 132.961 50.1799
132.534 135.911 48.5742
132.331 136.715 47.5436
132.593 135.673 47.2381
131.962 137.453 46.5392
132.066 137.615 47.7266
132.573 136.027 49.6404
132.491 135.066 49.2804
132.18 134.614 46.9893
132.149 135.284 45.9817
131.762 137.484 49.1515
132.532 136.662 50.0688
131.635 137.447 50.4111
131.247 138.205 48.1666
130.674 137.789 50.6489
132.025 134.138 49.1991
131.861 133.959 48.0546
131.327 133.299 49.26
131.166 133.984 47.3726
130.57 133.1 49.423
131.628 136.051 45.2164
131.477 137.241 45.4975
130.727 136.845 44.5615
131.073 138.281 45.7322
131.261 134.74 45.17
129.774 136.12 44.0789
129.651 137.294 44.0819
113.356 130.754 53.6337
112.935 131.673 52.4393
113.866 131.944 53.6245
112.598 132.758 51.3394
112.47 131.689 51.2004
113.7 129.708 53.556
114.407 130.031 54.6986
114.854 132.142 54.5392
114.214 132.967 53.679
113.191 131.008 51.3018
113.608 129.812 52.3907
114.421 130.301 51.6461
114.666 129.188 53.3878
113.286 131.88 50.2129
115.225 131.109 51.2113
115.542 130.271 51.8666
115.321 130.401 55.6315
115.553 131.507 55.5233
116.428 130.839 56.4203
115.821 132.509 55.5087
115.721 129.463 55.7136
117.513 130.199 57.1127
117.569 131.329 56.9713
114.075 133.743 52.9119
112.933 133.72 51.8579
113.836 134.495 52.0492
112.729 133.609 50.3639
114.875 133.882 54.0345
114.795 135.069 52.1703
114.119 134.988 51.084
113.774 133.137 48.223
115.25 133.089 47.7258
114.932 133.992 47.6782
116.475 133.467 47.491
115.942 132.72 48.4169
113.508 132.368 49.193
112.995 133.454 49.131
114.981 134.909 48.0185
116.007 134.897 47.2424
115.775 132.363 49.6284
114.503 132.022 49.9379
115.497 131.746 50.5156
116.898 132.772 49.4129
116.376 131.576 50.9956
113.195 134.155 49.5394
114.447 134.838 49.0028
114.011 134.93 49.9961
115.864 135.557 48.6483
114.958 135.572 50.3787
116.74 134.735 46.501
117.192 134.058 46.7561
117.49 134.62 45.7317
117.731 133.784 47.4682
116.605 135.753 46.543
117.854 135.341 44.9534
118.583 134.598 45.5918
125.78 137.757 52.3127
124.814 137.69 51.7035
125.897 137.93 51.1826
123.777 137.624 51.1659
123.685 137.631 52.23
125.553 137.54 53.3765
126.695 137.662 52.8392
127.015 138.123 50.588
125.952 138.104 50.0532
123.503 137.514 53.3391
124.548 137.389 53.9507
123.299 137.328 54.4367
125.51 137.071 54.3044
122.379 137.681 52.9133
122.323 136.992 54.7452
123.393 136.927 55.3552
127.864 137.804 52.4427
128.043 138.126 51.2211
128.926 137.881 51.9248
128.101 138.386 50.0101
127.563 137.415 53.4255
129.675 137.503 52.5243
129.778 137.953 51.263
124.965 138.041 49.5521
123.839 137.913 50.2466
123.868 137.968 49.1479
122.63 137.772 50.8107
126.121 138.169 48.8802
123.981 138.041 48.1304
122.833 137.876 48.8822
120.292 137.571 51.9379
119.224 137.066 52.4191
119.297 137.53 51.3876
118.143 136.636 52.849
119.162 136.637 53.3781
121.185 137.618 52.5079
121.406 137.733 51.293
119.489 137.567 50.2133
118.374 137.392 50.8889
120.187 136.635 53.7942
121.303 137.263 53.3102
121.318 136.843 54.3895
119.256 136.357 54.3722
121.258 136.559 55.3075
121.712 137.712 50.2376
120.663 137.58 49.7057
121.808 137.721 49.2381
119.767 137.546 49.1258
121.955 137.857 48.3035
117.457 136.949 51.2281
117.24 136.596 52.3517
116.353 136.43 51.6661
117.113 136.306 53.5094
117.746 137.098 50.0491
115.781 136.132 50.9234
115.498 135.938 52.2574
125.638 131.719 51.5687
126.613 131.437 51.6426
126.721 132.298 51.1295
127.399 131.112 51.7631
126.458 130.631 52.169
124.542 130.982 51.7007
124.658 131.653 51.2587
126.728 132.731 50.1778
127.513 132.69 50.4551
125.561 130.244 52.6424
124.537 130.384 52.299
124.573 129.864 53.2019
123.572 130.462 51.9753
126.374 130.156 53.0904
124.698 129.289 54.0737
123.588 129.451 53.7559
124.814 132.054 50.3257
125.883 132.837 49.8987
124.994 132.916 49.7332
126.738 133.411 49.28
123.747 131.591 50.8617
124.012 132.886 49.5004
124.972 133.341 48.8792
128.298 132.516 50.7658
128.243 131.602 51.4381
128.91 132.246 50.9875
128.2 130.718 51.9331
128.196 133.131 49.679
129.584 132.751 50.2027
129.529 131.987 51.2526
120.472 130.352 52.098
121.594 130.789 51.657
120.747 131.033 51.4409
122.64 131.266 51.2175
122.407 130.613 51.9587
120.407 129.408 52.7904
119.548 129.781 52.472
119.903 131.283 51.072
120.949 131.732 50.6158
122.555 129.99 52.4413
121.571 129.443 52.9416
122.562 129.496 53.4424
120.563 128.803 53.6666
122.618 129.12 54.4568
118.665 130.155 51.9817
118.868 131.006 51.5257
117.765 130.624 51.7877
119.268 131.733 50.6642
118.51 129.402 52.7373
116.711 130.239 51.8433
117.312 131.337 51.4665
121.999 132.348 50.3729
122.923 131.898 50.5901
123.042 132.593 49.8337
121.277 132.609 49.9703
123.23 133.101 49.0825
126.576 135.374 55.6244
127.177 136.251 55.0921
127.92 135.561 55.1211
127.492 137.056 54.273
126.397 136.823 54.8009
125.55 135.388 56.2337
126.001 134.484 56.133
128.42 134.948 55.0456
129.048 135.75 54.8237
125.404 136.811 55.3755
124.876 136.038 56.0674
124.141 136.563 55.7404
126.621 133.919 56.2136
127.659 134.128 55.4415
127.121 133.188 56.0774
129.428 136.377 54.2937
128.508 137.01 53.8948
129.676 137.068 53.4791
128.048 138.551 47.6179
127.914 138.581 46.2402
129.153 138.707 46.9422
127.615 138.949 44.8773
126.684 138.632 45.6647
127.026 138.44 48.1779
128.039 138.449 48.7922
130.208 138.633 47.6539
130.244 138.89 46.2027
125.683 138.484 46.5462
125.976 138.385 47.6973
124.715 138.41 47.3517
128.981 138.35 49.466
130.177 138.387 48.8563
129.979 138.161 50.1408
129.966 138.855 44.9104
128.497 138.984 44.3448
129.222 138.126 43.9762
127.995 129.089 54.9568
128.558 130.057 54.4089
127.942 129.691 53.9073
128.992 130.95 53.4672
128.637 130.776 54.487
127.838 129.02 56.1006
127.108 128.364 55.4445
127.153 129.93 53.5554
128.235 130.177 52.8034
128.131 130.848 54.9733
127.813 129.882 56.1392
127.5 130.848 55.8109
126.307 128.509 54.7749
126.429 129.526 53.9114
125.566 129.035 54.5075
129.078 130.611 52.3047
129.467 131.176 52.6881
129.506 131.697 51.9263
129.282 134.079 46.7475
128.132 134.14 46.621
128.397 133.991 47.7553
127.209 134.124 46.4297
127.856 134.355 45.6294
130.256 134.177 45.7632
130.24 134.127 46.9837
128.488 133.642 48.701
127.476 133.89 48.5907
128.475 134.636 44.7987
129.926 134.533 44.8565
129.167 135.295 44.2925
130.138 133.645 48.0178
129.114 133.401 48.983
129.907 133.261 49.283
126.559 133.929 48.4743
126.349 134.074 47.4128
125.579 133.872 48.2938
118.217 134.285 55.9665
116.968 134.154 55.313
117.686 135.05 55.2744
115.826 134.124 54.7777
116.404 133.29 55.3798
118.7 133.582 56.7663
119.299 134.309 56.3314
118.401 135.862 54.9307
117.351 135.673 54.3869
117.127 132.736 56.1184
118.368 132.853 56.8802
117.99 132.077 56.8554
119.862 135.139 56.1594
119.412 135.895 55.2712
120.532 136.081 55.8103
116.211 135.685 53.943
115.475 134.836 54.0539
115.473 135.46 53.0773
117.756 136.953 47.2522
118.949 137.496 46.6937
118.544 137.319 47.8434
120.071 138.018 46.1945
119.28 137.486 45.7695
117.108 136.559 46.8683
116.757 136.425 47.9467
118.127 137.004 48.9181
119.203 137.422 48.4641
118.81 136.894 45.41
117.623 136.501 45.9323
118.108 136.269 44.9718
116.367 136.29 48.8836
117.164 136.663 49.4104
115.985 136.18 49.9067
120.215 137.751 48.0097
120.684 138.189 46.7494
121.463 137.971 47.5892
117.283 128.31 55.3254
118.895 127.959 55.9529
118.551 128.225 54.7936
120.178 127.542 56.3794
119.174 127.746 56.9828
116.38 128.758 55.6851
115.859 128.71 54.3229
118.261 128.61 53.6488
119.648 128.322 54.2766
118.426 128.331 57.5179
117.024 128.976 56.543
117.96 129.426 57.2354
115.929 128.957 53.3252
117.346 129.091 53.078
116.254 129.649 52.4023
120.822 128.544 54.6367
121.275 127.907 55.7949
122.046 128.651 55.1085
120.356 133.777 48.1553
119.285 133.442 48.6346
119.939 133.042 49.0896
118.087 133.046 49.13
118.43 133.599 48.1059
120.63 134.349 47.2977
121.317 134.037 47.6323
120.627 132.931 49.5819
119.557 132.456 49.9566
118.818 134.077 47.2233
119.989 134.486 46.8075
119.262 134.575 46.0942
121.971 133.719 48.0813
121.65 133.077 49.0339
122.74 133.34 48.6361
118.504 132.148 50.3831
117.726 132.449 49.9709
117.458 131.875 50.7129
POLYGONS 1280  5120
3 164 162 163
3 163 44 164
3 162 43 163
3 164 42 162
3 166 165 163
3 163 43 166
3 165 44 163
3 166 14 165
3 168 167 162
3 162 42 168
3 167 43 162
3 168 13 167
3 170 169 164
3 164 44 170
3 169 42 164
3 170 12 169
3 173 171 172
3 172 46 173
3 171 43 172
3 173 45 171
3 167 174 172
3 172 43 167
3 174 46 172
3 167 13 174
3 175 166 171
3 171 45 175
3 166 43 171
3 175 14 166
3 177 176 173
3 173 46 177
3 176 45 173
3 177 4 176
3 180 178 179
3 179 48 180
3 178 42 179
3 180 47 178
3 169 181 179
3 179 42 169
3 181 48 179
3 169 12 181
3 182 168 178
3 178 47 182
3 168 42 178
3 182 13 168
3 184 183 180
3 180 48 184
3 183 47 180
3 184 8 183
3 187 185 186
3 186 50 187
3 185 44 186
3 187 49 185
3 165 188 186
3 186 44 165
3 188 50 186
3 165 14 188
3 189 170 185
3 185 49 189
3 170 44 185
3 189 12 170
3 191 190 187
3 187 50 191
3 190 49 187
3 191 7 190
3 194 192 193
3 193 53 194
3 192 52 193
3 194 51 192
3 196 195 193
3 193 52 196
3 195 53 193
3 196 16 195
3 198 197 192
3 192 51 198
3 197 52 192
3 198 14 197
3 200 199 194
3 194 53 200
3 199 51 194
3 200 15 199
3 203 201 202
3 202 45 203
3 201 52 202
3 203 54 201
3 197 175 202
3 202 52 197
3 175 45 202
3 197 14 175
3 204 196 201
3 201 54 204
3 196 52 201
3 204 16 196
3 176 205 203
3 203 45 176
3 205 54 203
3 176 4 205
3 208 206 207
3 207 55 208
3 206 51 207
3 208 50 206
3 199 209 207
3 207 51 199
3 209 55 207
3 199 15 209
3 188 198 206
3 206 50 188
3 198 51 206
3 188 14 198
3 210 191 208
3 208 55 210
3 191 50 208
3 210 7 191
3 213 211 212
3 212 57 213
3 211 53 212
3 213 56 211
3 195 214 212
3 212 53 195
3 214 57 212
3 195 16 214
3 215 200 211
3 211 56 215
3 200 53 211
3 215 15 200
3 217 216 213
3 213 57 217
3 216 56 213
3 217 9 216
3 220 218 219
3 219 60 220
3 218 59 219
3 220 58 218
3 222 221 219
3 219 59 222
3 221 60 219
3 222 19 221
3 224 223 218
3 218 58 224
3 223 59 218
3 224 18 223
3 226 225 220
3 220 60 226
3 225 58 220
3 226 17 225
3 229 227 228
3 228 62 229
3 227 59 228
3 229 61 227
3 223 230 228
3 228 59 223
3 230 62 228
3 223 18 230
3 231 222 227
3 227 61 231
3 222 59 227
3 231 19 222
3 233 232 229
3 229 62 233
3 232 61 229
3 233 5 232
3 236 234 235
3 235 64 236
3 234 58 235
3 236 63 234
3 225 237 235
3 235 58 225
3 237 64 235
3 225 17 237
3 238 224 234
3 234 63 238
3 224 58 234
3 238 18 224
3 240 239 236
3 236 64 240
3 239 63 236
3 240 6 239
3 243 241 242
3 242 66 243
3 241 60 242
3 243 65 241
3 221 244 242
3 242 60 221
3 244 66 242
3 221 19 244
3 245 226 241
3 241 65 245
3 226 60 241
3 245 17 226
3 247 246 243
3 243 66 247
3 246 65 243
3 247 11 246
3 250 248 249
3 249 69 250
3 248 68 249
3 250 67 248
3 252 251 249
3 249 68 252
3 251 69 249
3 252 18 251
3 254 253 248
3 248 67 254
3 253 68 248
3 254 21 253
3 256 255 250
3 250 69 256
3 255 67 250
3 256 20 255
3 259 257 258
3 258 70 259
3 257 68 258
3 259 62 257
3 253 260 258
3 258 68 253
3 260 70 258
3 253 21 260
3 230 252 257
3 257 62 230
3 252 68 257
3 230 18 252
3 261 233 259
3 259 70 261
3 233 62 259
3 261 5 233
3 264 262 263
3 263 72 264
3 262 67 263
3 264 71 262
3 255 265 263
3 263 67 255
3 265 72 263
3 255 20 265
3 266 254 262
3 262 71 266
3 254 67 262
3 266 21 254
3 268 267 264
3 264 72 268
3 267 71 264
3 268 10 267
3 271 269 270
3 270 63 271
3 269 69 270
3 271 73 269
3 251 238 270
3 270 69 251
3 238 63 270
3 251 18 238
3 272 256 269
3 269 73 272
3 256 69 269
3 272 20 256
3 239 273 271
3 271 63 239
3 273 73 271
3 239 6 273
3 276 274 275
3 275 76 276
3 274 75 275
3 276 74 274
3 278 277 275
3 275 75 278
3 277 76 275
3 278 24 277
3 280 279 274
3 274 74 280
3 279 75 274
3 280 23 279
3 282 281 276
3 276 76 282
3 281 74 276
3 282 22 281
3 285 283 284
3 284 78 285
3 283 75 284
3 285 77 283
3 279 286 284
3 284 75 279
3 286 78 284
3 279 23 286
3 287 278 283
3 283 77 287
3 278 75 283
3 287 24 278
3 289 288 285
3 285 78 289
3 288 77 285
3 289 0 288
3 292 290 291
3 291 80 292
3 290 74 291
3 292 79 290
3 281 293 291
3 291 74 281
3 293 80 291
3 281 22 293
3 294 280 290
3 290 79 294
3 280 74 290
3 294 23 280
3 296 295 292
3 292 80 296
3 295 79 292
3 296 4 295
3 299 297 298
3 298 82 299
3 297 76 298
3 299 81 297
3 277 300 298
3 298 76 277
3 300 82 298
3 277 24 300
3 301 282 297
3 297 81 301
3 282 76 297
3 301 22 282
3 303 302 299
3 299 82 303
3 302 81 299
3 303 3 302
3 306 304 305
3 305 85 306
3 304 84 305
3 306 83 304
3 308 307 305
3 305 84 308
3 307 85 305
3 308 26 307
3 310 309 304
3 304 83 310
3 309 84 304
3 310 24 309
3 312 311 306
3 306 85 312
3 311 83 306
3 312 25 311
3 315 313 314
3 314 77 315
3 313 84 314
3 315 86 313
3 309 287 314
3 314 84 309
3 287 77 314
3 309 24 287
3 316 308 313
3 313 86 316
3 308 84 313
3 316 26 308
3 288 317 315
3 315 77 288
3 317 86 315
3 288 0 317
3 320 318 319
3 319 87 320
3 318 83 319
3 320 82 318
3 311 321 319
3 319 83 311
3 321 87 319
3 311 25 321
3 300 310 318
3 318 82 300
3 310 83 318
3 300 24 310
3 322 303 320
3 320 87 322
3 303 82 320
3 322 3 303
3 325 323 324
3 324 89 325
3 323 85 324
3 325 88 323
3 307 326 324
3 324 85 307
3 326 89 324
3 307 26 326
3 327 312 323
3 323 88 327
3 312 85 323
3 327 25 312
3 329 328 325
3 325 89 329
3 328 88 325
3 329 5 328
3 332 330 331
3 331 92 332
3 330 91 331
3 332 90 330
3 334 333 331
3 331 91 334
3 333 92 331
3 334 29 333
3 336 335 330
3 330 90 336
3 335 91 330
3 336 28 335
3 338 337 332
3 332 92 338
3 337 90 332
3 338 27 337
3 341 339 340
3 340 94 341
3 339 91 340
3 341 93 339
3 335 342 340
3 340 91 335
3 342 94 340
3 335 28 342
3 343 334 339
3 339 93 343
3 334 91 339
3 343 29 334
3 345 344 341
3 341 94 345
3 344 93 341
3 345 2 344
3 348 346 347
3 347 96 348
3 346 90 347
3 348 95 346
3 337 349 347
3 347 90 337
3 349 96 347
3 337 27 349
3 350 336 346
3 346 95 350
3 336 90 346
3 350 28 336
3 352 351 348
3 348 96 352
3 351 95 348
3 352 7 351
3 355 353 354
3 354 98 355
3 353 92 354
3 355 97 353
3 333 356 354
3 354 92 333
3 356 98 354
3 333 29 356
3 357 338 353
3 353 97 357
3 338 92 353
3 357 27 338
3 359 358 355
3 355 98 359
3 358 97 355
3 359 1 358
3 362 360 361
3 361 101 362
3 360 100 361
3 362 99 360
3 364 363 361
3 361 100 364
3 363 101 361
3 364 31 363
3 366 365 360
3 360 99 366
3 365 100 360
3 366 29 365
3 368 367 362
3 362 101 368
3 367 99 362
3 368 30 367
3 371 369 370
3 370 93 371
3 369 100 370
3 371 102 369
3 365 343 370
3 370 100 365
3 343 93 370
3 365 29 343
3 372 364 369
3 369 102 372
3 364 100 369
3 372 31 364
3 344 373 371
3 371 93 344
3 373 102 371
3 344 2 373
3 376 374 375
3 375 103 376
3 374 99 375
3 376 98 374
3 367 377 375
3 375 99 367
3 377 103 375
3 367 30 377
3 356 366 374
3 374 98 356
3 366 99 374
3 356 29 366
3 378 359 376
3 376 103 378
3 359 98 376
3 378 1 359
3 381 379 380
3 380 105 381
3 379 101 380
3 381 104 379
3 363 382 380
3 380 101 363
3 382 105 380
3 363 31 382
3 383 368 379
3 379 104 383
3 368 101 379
3 383 30 368
3 385 384 381
3 381 105 385
3 384 104 381
3 385 6 384
3 388 386 387
3 387 108 388
3 386 107 387
3 388 106 386
3 390 389 387
3 387 107 390
3 389 108 387
3 390 34 389
3 392 391 386
3 386 106 392
3 391 107 386
3 392 33 391
3 394 393 388
3 388 108 394
3 393 106 388
3 394 32 393
3 397 395 396
3 396 110 397
3 395 107 396
3 397 109 395
3 391 398 396
3 396 107 391
3 398 110 396
3 391 33 398
3 399 390 395
3 395 109 399
3 390 107 395
3 399 34 390
3 401 400 397
3 397 110 401
3 400 109 397
3 401 8 400
3 404 402 403
3 403 112 404
3 402 106 403
3 404 111 402
3 393 405 403
3 403 106 393
3 405 112 403
3 393 32 405
3 406 392 402
3 402 111 406
3 392 106 402
3 406 33 392
3 408 407 404
3 404 112 408
3 407 111 404
3 408 0 407
3 411 409 410
3 410 114 411
3 409 108 410
3 411 113 409
3 389 412 410
3 410 108 389
3 412 114 410
3 389 34 412
3 413 394 409
3 409 113 413
3 394 108 409
3 413 32 394
3 415 414 411
3 411 114 415
3 414 113 411
3 415 11 414
3 418 416 417
3 417 117 418
3 416 116 417
3 418 115 416
3 420 419 417
3 417 116 420
3 419 117 417
3 420 36 419
3 422 421 416
3 416 115 422
3 421 116 416
3 422 34 421
3 424 423 418
3 418 117 424
3 423 115 418
3 424 35 423
3 427 425 426
3 426 109 427
3 425 116 426
3 427 118 425
3 421 399 426
3 426 116 421
3 399 109 426
3 421 34 399
3 428 420 425
3 425 118 428
3 420 116 425
3 428 36 420
3 400 429 427
3 427 109 400
3 429 118 427
3 400 8 429
3 432 430 431
3 431 119 432
3 430 115 431
3 432 114 430
3 423 433 431
3 431 115 423
3 433 119 431
3 423 35 433
3 412 422 430
3 430 114 412
3 422 115 430
3 412 34 422
3 434 415 432
3 432 119 434
3 415 114 432
3 434 11 415
3 437 435 436
3 436 121 437
3 435 117 436
3 437 120 435
3 419 438 436
3 436 117 419
3 438 121 436
3 419 36 438
3 439 424 435
3 435 120 439
3 424 117 435
3 439 35 424
3 441 440 437
3 437 121 441
3 440 120 437
3 441 1 440
3 444 442 443
3 443 124 444
3 442 123 443
3 444 122 442
3 446 445 443
3 443 123 446
3 445 124 443
3 446 39 445
3 448 447 442
3 442 122 448
3 447 123 442
3 448 38 447
3 450 449 444
3 444 124 450
3 449 122 444
3 450 37 449
3 453 451 452
3 452 126 453
3 451 123 452
3 453 125 451
3 447 454 452
3 452 123 447
3 454 126 452
3 447 38 454
3 455 446 451
3 451 125 455
3 446 123 451
3 455 39 446
3 457 456 453
3 453 126 457
3 456 125 453
3 457 9 456
3 460 458 459
3 459 128 460
3 458 122 459
3 460 127 458
3 449 461 459
3 459 122 449
3 461 128 459
3 449 37 461
3 462 448 458
3 458 127 462
3 448 122 458
3 462 38 448
3 464 463 460
3 460 128 464
3 463 127 460
3 464 10 463
3 467 465 466
3 466 130 467
3 465 124 466
3 467 129 465
3 445 468 466
3 466 124 445
3 468 130 466
3 445 39 468
3 469 450 465
3 465 129 469
3 450 124 465
3 469 37 450
3 471 470 467
3 467 130 471
3 470 129 467
3 471 3 470
3 474 472 473
3 473 133 474
3 472 132 473
3 474 131 472
3 476 475 473
3 473 132 476
3 475 133 473
3 476 38 475
3 478 477 472
3 472 131 478
3 477 132 472
3 478 41 477
3 480 479 474
3 474 133 480
3 479 131 474
3 480 40 479
3 483 481 482
3 482 134 483
3 481 132 482
3 483 126 481
3 477 484 482
3 482 132 477
3 484 134 482
3 477 41 484
3 454 476 481
3 481 126 454
3 476 132 481
3 454 38 476
3 485 457 483
3 483 134 485
3 457 126 483
3 485 9 457
3 488 486 487
3 487 136 488
3 486 131 487
3 488 135 486
3 479 489 487
3 487 131 479
3 489 136 487
3 479 40 489
3 490 478 486
3 486 135 490
3 478 131 486
3 490 41 478
3 492 491 488
3 488 136 492
3 491 135 488
3 492 2 491
3 495 493 494
3 494 127 495
3 493 133 494
3 495 137 493
3 475 462 494
3 494 133 475
3 462 127 494
3 475 38 462
3 496 480 493
3 493 137 496
3 480 133 493
3 496 40 480
3 463 497 495
3 495 127 463
3 497 137 495
3 463 10 497
3 500 498 499
3 499 140 500
3 498 139 499
3 500 138 498
3 502 501 499
3 499 139 502
3 501 140 499
3 502 33 501
3 504 503 498
3 498 138 504
3 503 139 498
3 504 13 503
3 506 505 500
3 500 140 506
3 505 138 500
3 506 23 505
3 509 507 508
3 508 47 509
3 507 139 508
3 509 110 507
3 503 182 508
3 508 139 503
3 182 47 508
3 503 13 182
3 398 502 507
3 507 110 398
3 502 139 507
3 398 33 502
3 183 401 509
3 509 47 183
3 401 110 509
3 183 8 401
3 512 510 511
3 511 79 512
3 510 138 511
3 512 46 510
3 505 294 511
3 511 138 505
3 294 79 511
3 505 23 294
3 174 504 510
3 510 46 174
3 504 138 510
3 174 13 504
3 295 177 512
3 512 79 295
3 177 46 512
3 295 4 177
3 515 513 514
3 514 111 515
3 513 140 514
3 515 78 513
3 501 406 514
3 514 140 501
3 406 111 514
3 501 33 406
3 286 506 513
3 513 78 286
3 506 140 513
3 286 23 506
3 407 289 515
3 515 111 407
3 289 78 515
3 407 0 289
3 518 516 517
3 517 143 518
3 516 142 517
3 518 141 516
3 520 519 517
3 517 142 520
3 519 143 517
3 520 19 519
3 522 521 516
3 516 141 522
3 521 142 516
3 522 32 521
3 524 523 518
3 518 143 524
3 523 141 518
3 524 26 523
3 527 525 526
3 526 113 527
3 525 142 526
3 527 66 525
3 521 413 526
3 526 142 521
3 413 113 526
3 521 32 413
3 244 520 525
3 525 66 244
3 520 142 525
3 244 19 520
3 414 247 527
3 527 113 414
3 247 66 527
3 414 11 247
3 530 528 529
3 529 86 530
3 528 141 529
3 530 112 528
3 523 316 529
3 529 141 523
3 316 86 529
3 523 26 316
3 405 522 528
3 528 112 405
3 522 141 528
3 405 32 522
3 317 408 530
3 530 86 317
3 408 112 530
3 317 0 408
3 533 531 532
3 532 61 533
3 531 143 532
3 533 89 531
3 519 231 532
3 532 143 519
3 231 61 532
3 519 19 231
3 326 524 531
3 531 89 326
3 524 143 531
3 326 26 524
3 232 329 533
3 533 61 232
3 329 89 533
3 232 5 329
3 536 534 535
3 535 146 536
3 534 145 535
3 536 144 534
3 538 537 535
3 535 145 538
3 537 146 535
3 538 22 537
3 540 539 534
3 534 144 540
3 539 145 534
3 540 16 539
3 542 541 536
3 536 146 542
3 541 144 536
3 542 39 541
3 545 543 544
3 544 54 545
3 543 145 544
3 545 80 543
3 539 204 544
3 544 145 539
3 204 54 544
3 539 16 204
3 293 538 543
3 543 80 293
3 538 145 543
3 293 22 538
3 205 296 545
3 545 54 205
3 296 80 545
3 205 4 296
3 548 546 547
3 547 125 548
3 546 144 547
3 548 57 546
3 541 455 547
3 547 144 541
3 455 125 547
3 541 39 455
3 214 540 546
3 546 57 214
3 540 144 546
3 214 16 540
3 456 217 548
3 548 125 456
3 217 57 548
3 456 9 217
3 551 549 550
3 550 81 551
3 549 146 550
3 551 130 549
3 537 301 550
3 550 146 537
3 301 81 550
3 537 22 301
3 468 542 549
3 549 130 468
3 542 146 549
3 468 39 542
3 302 471 551
3 551 81 302
3 471 130 551
3 302 3 471
3 554 552 553
3 553 149 554
3 552 148 553
3 554 147 552
3 556 555 553
3 553 148 556
3 555 149 553
3 556 21 555
3 558 557 552
3 552 147 558
3 557 148 552
3 558 25 557
3 560 559 554
3 554 149 560
3 559 147 554
3 560 37 559
3 563 561 562
3 562 88 563
3 561 148 562
3 563 70 561
3 557 327 562
3 562 148 557
3 327 88 562
3 557 25 327
3 260 556 561
3 561 70 260
3 556 148 561
3 260 21 556
3 328 261 563
3 563 88 328
3 261 70 563
3 328 5 261
3 566 564 565
3 565 129 566
3 564 147 565
3 566 87 564
3 559 469 565
3 565 147 559
3 469 129 565
3 559 37 469
3 321 558 564
3 564 87 321
3 558 147 564
3 321 25 558
3 470 322 566
3 566 129 470
3 322 87 566
3 470 3 322
3 569 567 568
3 568 71 569
3 567 149 568
3 569 128 567
3 555 266 568
3 568 149 555
3 266 71 568
3 555 21 266
3 461 560 567
3 567 128 461
3 560 149 567
3 461 37 560
3 267 464 569
3 569 71 267
3 464 128 569
3 267 10 464
3 572 570 571
3 571 152 572
3 570 151 571
3 572 150 570
3 574 573 571
3 571 151 574
3 573 152 571
3 574 27 573
3 576 575 570
3 570 150 576
3 575 151 570
3 576 12 575
3 578 577 572
3 572 152 578
3 577 150 572
3 578 36 577
3 581 579 580
3 580 49 581
3 579 151 580
3 581 96 579
3 575 189 580
3 580 151 575
3 189 49 580
3 575 12 189
3 349 574 579
3 579 96 349
3 574 151 579
3 349 27 574
3 190 352 581
3 581 49 190
3 352 96 581
3 190 7 352
3 584 582 583
3 583 118 584
3 582 150 583
3 584 48 582
3 577 428 583
3 583 150 577
3 428 118 583
3 577 36 428
3 181 576 582
3 582 48 181
3 576 150 582
3 181 12 576
3 429 184 584
3 584 118 429
3 184 48 584
3 429 8 184
3 587 585 586
3 586 97 587
3 585 152 586
3 587 121 585
3 573 357 586
3 586 152 573
3 357 97 586
3 573 27 357
3 438 578 585
3 585 121 438
3 578 152 585
3 438 36 578
3 358 441 587
3 587 97 358
3 441 121 587
3 358 1 441
3 590 588 589
3 589 155 590
3 588 154 589
3 590 153 588
3 592 591 589
3 589 154 592
3 591 155 589
3 592 17 591
3 594 593 588
3 588 153 594
3 593 154 588
3 594 30 593
3 596 595 590
3 590 155 596
3 595 153 590
3 596 35 595
3 599 597 598
3 598 104 599
3 597 154 598
3 599 64 597
3 593 383 598
3 598 154 593
3 383 104 598
3 593 30 383
3 237 592 597
3 597 64 237
3 592 154 597
3 237 17 592
3 384 240 599
3 599 104 384
3 240 64 599
3 384 6 240
3 602 600 601
3 601 120 602
3 600 153 601
3 602 103 600
3 595 439 601
3 601 153 595
3 439 120 601
3 595 35 439
3 377 594 600
3 600 103 377
3 594 153 600
3 377 30 594
3 440 378 602
3 602 120 440
3 378 103 602
3 440 1 378
3 605 603 604
3 604 65 605
3 603 155 604
3 605 119 603
3 591 245 604
3 604 155 591
3 245 65 604
3 591 17 245
3 433 596 603
3 603 119 433
3 596 155 603
3 433 35 596
3 246 434 605
3 605 65 246
3 434 119 605
3 246 11 434
3 608 606 607
3 607 158 608
3 606 157 607
3 608 156 606
3 610 609 607
3 607 157 610
3 609 158 607
3 610 15 609
3 612 611 606
3 606 156 612
3 611 157 606
3 612 28 611
3 614 613 608
3 608 158 614
3 613 156 608
3 614 41 613
3 617 615 616
3 616 95 617
3 615 157 616
3 617 55 615
3 611 350 616
3 616 157 611
3 350 95 616
3 611 28 350
3 209 610 615
3 615 55 209
3 610 157 615
3 209 15 610
3 351 210 617
3 617 95 351
3 210 55 617
3 351 7 210
3 620 618 619
3 619 135 620
3 618 156 619
3 620 94 618
3 613 490 619
3 619 156 613
3 490 135 619
3 613 41 490
3 342 612 618
3 618 94 342
3 612 156 618
3 342 28 612
3 491 345 620
3 620 135 491
3 345 94 620
3 491 2 345
3 623 621 622
3 622 56 623
3 621 158 622
3 623 134 621
3 609 215 622
3 622 158 609
3 215 56 622
3 609 15 215
3 484 614 621
3 621 134 484
3 614 158 621
3 484 41 614
3 216 485 623
3 623 56 216
3 485 134 623
3 216 9 485
3 626 624 625
3 625 161 626
3 624 160 625
3 626 159 624
3 628 627 625
3 625 160 628
3 627 161 625
3 628 31 627
3 630 629 624
3 624 159 630
3 629 160 624
3 630 20 629
3 632 631 626
3 626 161 632
3 631 159 626
3 632 40 631
3 635 633 634
3 634 73 635
3 633 160 634
3 635 105 633
3 629 272 634
3 634 160 629
3 272 73 634
3 629 20 272
3 382 628 633
3 633 105 382
3 628 160 633
3 382 31 628
3 273 385 635
3 635 73 273
3 385 105 635
3 273 6 385
3 638 636 637
3 637 137 638
3 636 159 637
3 638 72 636
3 631 496 637
3 637 159 631
3 496 137 637
3 631 40 496
3 265 630 636
3 636 72 265
3 630 159 636
3 265 20 630
3 497 268 638
3 638 137 497
3 268 72 638
3 497 10 268
3 641 639 640
3 640 102 641
3 639 161 640
3 641 136 639
3 627 372 640
3 640 161 627
3 372 102 640
3 627 31 372
3 489 632 639
3 639 136 489
3 632 161 639
3 489 40 632
3 373 492 641
3 641 102 373
3 492 136 641
3 373 2 492
