# vtk DataFile Version 3.0
this file was written using fslvtkio
ASCII
DATASET POLYDATA
POINTS 970 float
109.502 152.042 67.686
108.42 152.037 68.1455
109.028 151.425 68.1621
109.678 151.193 68.0322
110.66 151.786 67.5569
110.944 150.941 68.1538
111.667 151.622 68.1032
111.843 151.072 68.9
109.29 152.994 67.7783
108.935 153.291 68.1867
110.39 152.839 67.8745
111.418 152.582 67.9101
112.032 152.046 68.8316
110.09 154.065 67.9542
111.228 153.843 67.9955
111.826 152.967 68.6438
107.315 145.074 70.868
106.165 145.103 71.5869
106.711 144.024 71.7545
107.8 144.23 71.6594
108.344 145.259 70.5812
108.457 144.911 71.7469
108.881 145.809 71.4399
108.705 145.361 72.4232
106.989 146.108 70.8617
106.207 146.205 71.7188
108.017 146.333 70.3909
109.052 146.412 70.522
109.202 146.051 72.0755
109.44 146.711 71.4303
109.681 146.555 72.2676
106.986 146.883 71.3934
106.16 146.944 71.7925
107.956 147.24 70.6953
108.865 147.277 70.33
109.669 147.398 71.0208
109.889 147.35 71.9445
106.588 147.595 71.7281
107.688 147.812 71.1484
107.466 148.263 71.5856
108.693 148.344 70.4935
109.806 148.525 70.218
110.233 148.153 71.3353
108.057 148.98 71.1818
108.793 149.533 70.3496
109.318 149.991 69.4189
108.759 150.49 69.8205
110.405 149.115 70.9112
110.307 149.701 69.6489
110.745 149.889 70.7931
111.136 150.107 69.9744
111.328 150.36 70.6481
108.75 150.875 68.8125
108.114 151.086 69.6099
109.888 150.466 68.8599
111.09 150.195 69.0592
111.862 150.765 69.8746
107.893 151.543 69.0608
107.477 152.337 69.6352
107.5 151.46 70.2411
112.551 151.718 69.667
108.12 152.803 68.7518
107.933 153.607 69.316
112.492 152.854 69.4914
109.052 154.1 68.6755
109.627 154.979 68.6275
110.906 154.773 68.4361
111.852 153.967 68.85
105.269 143.142 73.1354
104.623 143.835 73.3807
104.91 142.941 74.2272
105.868 142.895 73.9497
106.28 143.255 72.7089
106.934 143.162 73.5696
105.357 144.291 72.3481
104.478 144.909 73.1087
107.487 143.681 72.7091
108.254 144.544 72.7187
108.7 145.078 73.4409
105.357 145.527 72.4236
104.459 146.043 73.0764
109.205 145.886 72.9205
109.854 146.754 73.1097
105.458 146.806 72.393
104.827 147.339 73.3799
110.179 147.451 72.7718
110.364 148.238 72.1971
110.555 148.264 72.8607
105.888 147.835 72.553
106.969 148.49 71.9732
106.474 148.627 72.7793
110.597 148.989 71.7822
110.865 149.227 72.4938
107.319 149.335 72.0191
107.938 150.096 71.4845
107.26 150.208 72.1343
108.466 150.029 70.8397
111.041 149.947 71.5748
111.886 150.74 71.0726
107.475 151.131 71.1532
107.301 150.774 72.2391
108.142 150.75 70.5782
112.531 151.451 70.6871
107.073 151.441 71.8382
107.273 152.336 70.6064
112.781 152.418 70.6364
107.641 153.561 70.329
112.703 153.143 70.3582
108.707 154.406 69.7331
109.595 155.099 69.6721
109.581 154.723 70.6969
110.611 155.375 69.3434
111.78 154.947 69.2312
112.441 153.96 69.7998
110.468 155.496 70.424
111.507 155.541 70.1171
112.263 154.97 70.1802
104.287 143.973 74.3503
104.999 143.067 75.1833
105.756 142.835 75.0237
106.694 143.228 74.6488
107.622 143.654 73.8563
108.006 143.915 74.9209
104.101 145.3 74.0465
108.077 144.291 73.7302
108.923 145.043 74.5639
104.259 146.285 74.0883
109.271 145.939 73.8641
109.719 146.964 74.1984
104.414 147.153 74.3469
110.256 147.613 73.5343
110.547 148.648 73.4964
105.421 148.415 73.2317
104.655 148.118 74.2084
110.984 149.723 73.2218
105.575 149.228 73.6086
105.267 149.178 74.638
106.467 149.409 72.8851
111.289 150.404 72.2212
112.082 151.104 72.0768
105.871 149.87 73.7603
106.483 150.288 72.9202
106.242 150.42 73.5456
112.432 151.898 71.764
106.738 151.226 73.024
106.975 151.989 71.7982
107.141 152.184 72.6058
112.657 152.431 71.6474
112.905 152.992 71.2294
112.685 152.872 72.0591
107.24 153.018 71.2428
107.604 153.212 71.9907
112.759 153.706 70.7954
112.96 153.503 71.7362
108.453 153.618 71.1385
109.057 154.334 71.2399
109.729 154.605 71.631
112.547 154.4 70.6595
112.841 154.207 71.5689
110.48 155.12 71.5641
111.281 155.597 71.3299
112.064 155.455 71.206
112.572 154.931 71.3144
105.845 143.04 76.18
105.056 143.606 75.8089
105.739 143.008 76.9672
106.544 142.997 76.9975
106.499 143.169 75.7585
106.911 143.519 76.603
107.243 143.526 75.5526
107.68 143.924 76.4156
104.593 144.556 75.3476
108.417 144.265 76.3079
104.334 145.449 75.1449
108.487 144.565 75.1689
109.022 145.478 75.6079
104.396 146.312 75.3434
109.357 146.239 74.8399
109.817 147.169 75.2422
104.506 147.263 75.3697
110.289 147.905 74.41
110.765 148.939 74.3825
104.913 148.184 75.4092
111.08 149.979 74.2087
105.316 148.914 75.6998
111.509 150.613 73.2408
111.842 151.485 73.3333
105.901 150.148 74.1952
105.839 149.793 75.3268
112.067 152.031 72.771
112.302 152.364 72.2457
112.347 152.535 73.0533
106.286 150.924 74.1881
106.926 151.68 73.5134
106.966 151.65 74.39
112.746 153.195 72.84
107.356 152.612 73.2795
107.698 152.447 74.191
112.885 153.852 72.5453
108.212 153.297 72.707
108.955 153.759 72.3464
109.369 154.365 72.205
109.275 154.258 73.0524
113.038 154.806 72.2934
109.918 154.942 72.5796
110.55 155.378 72.6591
111.256 155.542 72.4492
111.993 155.687 72.2366
112.741 155.439 72.1691
105.313 143.745 76.9225
105.999 142.87 77.9958
106.62 142.714 77.8825
107.173 143.501 77.5913
107.935 143.851 77.7568
105.034 144.773 76.5484
108.554 144.438 77.6484
104.748 145.398 76.4975
108.819 144.869 76.512
109.249 145.556 76.8298
104.688 146.241 76.5825
109.531 146.299 76.0303
109.997 147.263 76.4025
104.847 147.178 76.5471
110.17 148.18 75.509
110.682 148.977 75.4973
104.965 148.128 76.7175
111.228 149.741 75.3979
105.514 149.044 76.5969
111.401 150.886 74.3589
111.904 151.453 74.8938
106.149 149.861 76.3851
112.051 152.078 73.801
112.77 152.59 73.9806
106.578 150.628 75.2748
107.134 151.56 75.3854
112.888 153.259 73.5339
107.825 152.308 75.4528
113.132 154.005 73.4043
108.383 152.916 74.2467
108.925 153.34 73.6494
109.336 153.966 74.1699
113.205 155 73.1282
109.747 154.913 73.6204
110.363 155.331 73.4818
111.164 155.631 73.4074
112.023 155.583 73.2135
112.751 155.513 73.0545
106.637 142.207 78.8011
105.909 142.814 78.4756
106.444 141.831 79.6512
107.171 141.494 79.5911
107.154 142.427 78.6412
107.645 142.072 79.3404
107.579 143.014 78.5261
108.09 142.703 79.2336
105.421 143.732 78.0392
108.49 143.514 79.0354
105.27 144.655 77.756
108.83 144.316 78.6891
104.936 145.325 77.8513
109.196 145.039 77.975
109.563 145.808 77.7847
104.873 146.212 77.8605
109.81 146.398 77.0851
110.399 147.085 77.4953
105.034 147.138 77.8487
110.516 148.005 76.6618
110.95 148.807 76.6192
105.231 148.097 77.7859
111.381 149.648 76.4153
105.81 149.042 77.6428
111.427 150.628 75.5429
112.019 150.82 76.2321
106.242 149.96 77.4851
112.279 152.112 74.7503
112.377 151.802 75.8667
106.927 150.546 76.3402
107.18 151.577 76.4682
112.791 152.404 74.9394
113.069 153.202 74.4504
107.882 152.225 76.5867
113.324 154.178 74.2531
108.347 153.057 75.5865
108.976 153.419 74.9984
109.409 154.064 75.3279
113.161 154.974 74.0354
109.795 154.77 74.6435
110.433 155.277 74.4087
111.194 155.573 74.3493
111.965 155.705 74.2532
112.711 155.533 73.9817
106.197 142.717 79.5306
106.594 141.374 80.7773
107.133 141.051 80.4135
108.082 141.393 80.465
108.621 142.355 80.2395
105.697 143.719 79.0255
108.857 143.053 80.0119
109.128 143.755 79.6035
109.444 143.28 80.5102
105.668 144.484 79.1086
109.152 144.476 78.9935
109.736 144.351 79.6116
105.393 145.253 79.0753
109.884 145.338 78.8357
110.077 146.135 78.0222
110.413 146.038 78.8847
105.267 146.202 78.9792
110.803 146.882 78.5949
105.479 147.142 78.9185
110.954 147.853 77.7589
111.369 148.927 77.4583
105.738 148.109 78.829
111.594 149.504 77.2464
111.597 150.172 76.5881
112.077 149.856 77.5953
105.979 149.145 78.7013
112.493 150.856 77.2739
106.505 150.039 78.5773
112.849 151.921 76.9455
106.967 150.63 77.4868
107.291 151.591 77.5932
112.888 152.601 75.6363
113.187 153.425 75.3223
107.984 152.38 77.5719
113.363 154.344 75.015
108.575 152.963 76.5823
109.23 153.621 76.1875
109.655 154.346 76.2113
113.091 154.986 74.6772
109.85 154.666 75.5588
110.374 155.096 75.4762
111.13 155.366 75.2929
112.117 155.383 75.1788
112.74 155.241 74.9955
107.588 140.294 81.342
107.17 140.077 82.2747
107.686 139.497 82.208
108.666 139.576 82.2328
108.441 140.265 81.2902
108.88 140.634 81.9451
106.537 142.076 80.7868
106.905 140.95 81.8709
108.874 141.596 81.3447
109.064 142.466 80.8461
109.45 142.285 81.8176
106.06 143.228 80.2781
106.506 142.149 81.7807
110.009 143.319 81.2482
105.912 144.268 80.277
110.218 144.108 80.6026
105.78 145.238 80.1619
110.566 144.909 79.9481
110.877 145.947 79.7569
105.787 146.231 80.0794
111.187 146.733 79.5452
111.068 147.322 78.6013
111.338 147.631 78.9099
105.877 147.258 79.9738
111.562 148.365 78.2934
111.888 149.057 78.0485
112.128 148.919 79.0773
106.269 148.191 79.8446
112.521 149.887 78.6189
106.506 149.176 79.6504
113.062 150.753 78.3807
106.7 150.085 79.4354
113.188 151.722 78.0362
107.118 150.759 78.6638
107.735 151.745 78.4064
113.142 152.843 76.3863
113.349 152.843 77.4375
108.503 152.355 78.5015
108.56 152.932 77.4687
108.865 152.993 78.1655
113.453 153.806 76.2165
113.401 153.983 77.0225
109.218 153.451 77.3236
110.283 154.774 76.4588
109.937 154.176 77.1945
111.162 155.246 76.3524
110.91 154.866 77.3133
112.135 155.226 76.205
111.777 155.456 77.3677
112.931 154.733 76.1692
112.863 154.713 77.0946
113.272 154.668 75.4778
107.905 139.076 82.8351
107.518 139.568 83.1776
107.927 138.878 83.6202
108.468 138.55 83.5075
108.602 138.88 82.8321
109.126 139.056 83.1733
107.121 140.366 83.1605
109.573 139.907 83.3909
109.155 141.218 82.3359
109.668 141.185 83.1638
106.978 141.34 82.9652
109.957 142.38 82.4894
106.181 143.25 81.4589
106.598 142.396 82.8187
110.429 142.984 82.6193
110.471 143.833 81.5261
110.901 143.651 82.3468
106.104 144.329 81.3966
110.622 144.329 80.8211
110.973 144.4 81.2893
105.985 145.33 81.2664
111.41 145.258 80.8949
111.313 146.123 80.379
111.758 146.147 80.714
105.961 146.351 81.1901
111.507 147.306 80.0826
111.694 148.117 79.4101
112.131 147.924 80.3858
106.249 147.407 80.9654
112.664 148.923 80.0005
106.741 148.386 80.8087
112.794 149.906 79.5796
106.718 149.577 80.3414
113.218 150.399 79.5658
113.569 151.11 79.1078
113.835 150.404 80.3382
107.042 150.158 80.0025
107.114 150.418 79.4954
107.455 150.642 80.0664
113.622 152.017 78.6854
114.014 151.334 79.9311
108.102 151.785 78.8668
107.835 151.173 79.2739
108.414 151.89 79.4437
113.792 152.967 78.3551
113.749 152.275 79.4023
109.4 153.278 78.2774
109.037 152.703 79.052
109.625 153.252 79.0351
113.557 153.29 78.9248
113.343 153.777 78
110.043 153.81 78.2009
110.862 154.452 78.1469
111.676 155.081 78.2344
112.676 154.788 78.1056
108.199 138.099 84.3606
107.896 138.982 84.3483
107.886 137.961 85.0973
108.568 137.033 84.9917
108.908 138.304 84.1842
109.22 137.362 84.7501
109.364 138.341 84.6068
109.775 137.581 84.9939
107.607 139.681 84.4796
109.394 138.973 84.0508
109.958 138.86 84.823
107.187 140.637 84.2671
110.231 140.167 84.3424
110.29 141.519 83.5838
110.673 141.23 84.3476
107.065 141.746 84.1529
110.491 142.181 83.0606
110.864 142.226 83.6214
106.458 143.503 82.5623
106.843 142.813 83.6821
111.351 143.058 83.493
111.521 143.939 82.3607
111.912 143.817 83.0993
106.389 144.574 82.3284
111.452 144.625 81.7885
111.835 144.752 82.2682
106.302 145.48 82.3785
112.385 145.539 81.7916
112.018 146.876 80.9559
112.603 146.861 81.5488
106.485 146.509 82.1587
112.674 147.946 81.2501
106.704 147.574 81.9156
113.237 148.465 81.126
113.288 149.245 80.6942
113.591 148.534 81.7632
107.056 148.359 81.6813
107.138 149.14 81.2173
107.722 148.634 82.1325
113.342 149.901 80.3625
113.864 149.585 81.4044
107.265 149.898 80.641
107.753 149.752 81.4822
114.132 150.608 81.133
107.859 150.65 80.8924
114.036 151.695 80.6133
108.099 151.244 80.3304
108.698 151.851 80.1805
113.647 152.734 79.8873
109.055 152.449 79.7891
110.254 153.486 79.1449
109.904 152.832 79.9967
110.572 153.597 79.85
113.524 153.479 79.5026
113.19 154.087 78.8683
110.804 154.012 78.9868
111.442 154.601 79.1317
112.41 154.73 79.041
108.023 138.667 85.6829
108.114 137.29 85.8118
108.486 136.16 85.5206
109.628 136.383 85.2668
110.279 137.476 85.5245
107.975 139.783 85.5012
110.818 138.413 85.7187
110.391 139.319 85.0735
111.028 139.469 85.3178
107.585 140.773 85.3639
111.216 140.402 84.9522
111.477 141.474 84.6439
111.926 140.925 85.5229
107.334 141.703 85.2347
111.602 142.209 84.1852
112.117 142.088 84.9986
106.87 143.64 83.6675
107.206 142.809 84.7855
112.07 143.251 84.0883
112.242 144.379 83.3828
112.62 143.965 84.3173
106.639 144.531 83.4096
107.12 143.906 84.4446
112.344 145.007 82.6954
112.644 145.159 83.3603
106.763 145.614 83.4094
112.954 146.003 82.4771
113.066 147.172 82.2092
113.285 146.607 83.2036
106.786 146.746 83.1188
113.233 147.863 82.0061
113.582 147.49 82.9925
107.121 147.472 82.8857
107.245 148.096 82.4381
107.705 147.89 83.3935
113.685 148.588 82.6783
108.224 148.88 82.8318
113.978 149.743 82.3635
108.442 149.666 82.1481
108.345 150.357 81.5352
108.918 150.222 82.0604
113.976 150.981 81.841
108.251 150.874 81.015
108.655 151.062 81.4593
113.856 152.234 80.9835
109.363 152.239 80.4383
108.912 151.62 80.9081
109.897 152.344 80.6401
109.584 152.08 81.2417
110.338 152.478 81.1611
113.62 153.435 80.1897
113.688 152.695 81.3191
113.146 153.316 80.842
111.207 154.094 80.0017
110.775 153.241 80.6276
112.066 154.402 79.9498
111.681 153.744 80.748
112.976 154.203 79.8982
112.515 153.805 80.7419
108.177 136.071 86.3855
108.52 137.519 86.6205
108.237 136.371 87.3035
108.729 135.538 87.2656
109.174 135.537 86.0762
109.908 135.108 86.6608
110.431 135.98 86.027
111.022 135.463 86.6582
111.192 136.552 86.4748
111.593 136.391 87.1219
108.483 138.749 86.6097
110.799 137.37 86.1903
111.481 137.665 86.854
108.213 139.863 86.5704
111.519 138.896 86.2736
111.62 139.914 85.7295
112.229 139.785 86.4149
107.994 140.996 86.238
112.56 141.043 86.1922
107.722 142.09 85.9039
112.968 141.937 86.1552
112.678 142.841 84.9376
113.026 143.251 85.4939
107.693 143.026 85.8121
113.039 144.363 84.6885
107.144 144.944 84.4525
107.627 144.034 85.4064
113.326 145.221 84.2145
107.173 146.182 84.1756
107.57 145.514 85.0744
113.134 145.911 83.6095
113.786 146.519 84.2026
107.19 147.108 83.7153
107.939 146.981 84.5799
113.979 147.631 83.8773
108.252 148.227 84.0964
113.874 148.824 83.5126
108.713 149.097 83.8106
108.905 149.763 82.8622
109.475 150.05 83.1478
109.352 149.468 83.7094
109.732 149.84 83.9159
113.898 150.102 83.1308
109.544 150.752 82.3666
109.879 150.514 83.4098
113.886 151.05 82.5541
113.926 150.985 83.3769
113.717 151.692 82.6688
109.299 151.427 81.6293
110.342 151.14 82.804
109.976 151.768 81.9574
110.699 152.01 82.3727
113.843 151.913 81.8695
113.499 152.651 82.2349
110.819 152.748 82.0603
112.955 153.474 81.6678
110.924 152.981 81.4887
111.482 153.315 81.4626
112.205 153.63 81.606
110.091 133.949 88.1545
109.45 134.532 88.5943
110.117 134.118 89.1752
110.476 133.259 89.1565
111.148 133.912 88.0681
111.521 133.011 88.8858
112.035 134.399 88.3056
112.214 133.607 89.1594
109.484 134.773 87.6735
109.226 135.51 88.4495
110.689 134.647 87.3588
111.765 135.379 87.5632
112.581 134.504 88.7884
112.59 135.548 88.2004
113.037 135.062 89.0502
108.444 137.647 87.5096
108.791 136.462 88.1034
112.3 136.937 87.6332
113.228 135.919 88.8435
113.058 136.933 88.4427
113.705 136.4 89.3617
108.613 138.88 87.5751
112.367 138.554 87.0911
112.939 138.298 87.9837
113.89 137.816 88.7675
108.301 140.221 87.5049
113.004 139.888 87.2344
113.699 139.352 88.1357
108.078 141.398 86.8503
113.16 141.011 86.8033
113.815 141.055 87.416
108.135 142.462 86.6997
113.628 142.494 86.471
113.499 143.831 85.7179
113.907 143.426 86.5278
108.321 143.693 86.4456
113.863 144.847 85.1018
114.26 144.419 86.0449
108.08 144.883 85.9928
113.667 145.645 84.5561
114.353 145.666 85.337
108.238 145.993 85.5628
114.29 146.834 85.1102
108.832 146.756 85.6935
108.782 147.703 84.9052
109.268 147.455 85.6811
114.234 148.009 84.7343
108.926 148.576 84.5054
109.387 148.202 85.1177
113.988 149.183 84.2333
109.645 149.148 84.7477
110.28 149.856 84.3956
113.954 150.204 84.1373
110.414 150.456 84.0629
110.356 150.796 83.5193
110.756 150.981 83.9368
113.722 151.016 84.0014
113.433 151.884 83.4185
111.4 152.461 82.8161
111.068 151.651 83.3342
112.193 152.801 83.0831
111.77 152.085 83.7767
112.918 152.623 82.9138
112.726 152.207 83.8778
111.322 153.014 82.1318
111.96 153.257 82.2782
112.801 153.315 82.3909
110.874 132.404 89.9068
110.601 133.283 90.2998
110.621 132.656 90.9463
111.046 131.759 90.8859
112.063 132.319 89.5482
112.104 131.46 90.0984
112.926 132.756 89.8182
113.112 132.16 90.4538
109.799 134.903 89.3693
110.225 134.199 90.0843
112.852 133.949 89.5723
113.429 133.08 90.5132
113.456 134.042 90.2731
114.03 133.788 90.8515
109.737 135.873 89.3198
113.54 135.19 89.6018
114.169 135.409 90.2631
108.949 137.712 88.3599
109.456 136.922 89.067
114.323 137.037 89.8429
108.911 139.15 88.3769
109.263 138.237 89.2006
114.446 138.639 89.1966
108.84 140.314 88.2301
109.327 139.822 89.0118
114.268 140.299 88.5557
108.46 141.454 87.6593
109.146 140.926 88.5743
114.442 141.632 88.3057
108.569 142.741 87.4454
114.147 142.458 87.3519
114.405 143.634 87.1593
108.995 143.458 87.6606
108.889 144.495 86.8209
109.457 144.321 87.5776
114.563 144.965 86.6347
108.78 145.462 86.3529
109.404 145.197 87.1702
114.635 146.052 86.2292
108.939 146.101 86.0652
109.451 146.08 86.5999
114.354 147.199 85.9793
109.771 147.931 85.8829
109.82 146.984 86.5622
110.369 147.807 86.4038
114.191 148.448 85.428
109.765 148.513 85.3762
110.285 148.625 85.7729
114.134 149.528 85.0555
110.898 150.346 84.7934
110.475 149.472 85.2521
111.705 150.577 85.2038
111.36 149.711 85.7402
112.646 150.747 85.2547
112.188 149.864 86.073
113.295 150.411 85.2703
113.072 149.958 86.0304
113.712 150.394 84.7692
113.757 149.735 85.6647
111.397 151.315 84.4194
112.286 151.532 84.6055
113.246 151.315 84.4488
113.931 126.147 92.9388
113.058 127.074 93.3158
113.758 125.754 94.2926
114.865 125.22 94.0002
114.63 127.1 93.4178
115.189 126.218 93.9011
115.348 127.313 93.6142
115.52 126.858 94.1971
113.147 127.901 92.2162
112.694 128.459 93.1053
114.212 127.834 92.4005
114.845 128.246 93.1652
115.501 127.965 93.8884
112.947 129.271 92.1439
112.23 129.362 93.2018
113.909 129.004 92.1728
114.799 129.381 92.6984
115.233 129.153 93.7189
112.077 130.067 92.0613
111.971 131.041 92.7207
112.16 130.307 93.4273
113.481 130.515 91.3855
114.28 130.335 92.1684
114.882 130.784 93.0086
115.359 130.308 93.7893
111.648 130.877 91.4895
111.58 131.875 92.3992
112.981 131.129 90.8306
114.194 131.717 91.6749
114.93 131.862 92.4681
110.825 133.894 91.1451
111.115 132.834 91.9107
113.722 132.448 91.0828
114.512 133.122 91.7333
110.058 135.349 90.2186
110.41 134.816 91.0174
114.581 134.669 91.2513
109.738 136.44 90.2066
114.626 136.231 90.8118
109.651 137.657 90.0462
114.841 137.78 90.3254
109.587 138.944 89.8328
114.906 139.448 89.7034
109.853 140.186 89.685
114.845 140.841 89.4116
109.056 141.977 88.2493
109.828 141.331 89.1538
114.887 142.244 89.2112
109.016 142.73 88.1147
109.835 142.601 88.5755
114.646 142.873 88.0957
114.698 144.196 87.724
110.078 144.762 87.9261
109.838 143.679 88.2714
110.406 144.229 88.6972
114.452 145.268 87.4478
110.142 145.679 87.5864
110.63 145.183 88.5301
114.644 146.351 87.0408
109.979 146.345 87.0837
110.655 146.301 87.7885
114.487 147.075 86.9508
114.356 146.553 87.5019
114.263 147.017 87.6919
111.045 148.289 86.6984
110.799 147.212 87.1239
111.242 147.752 87.5647
114.3 147.953 86.5095
113.787 147.954 87.2415
111.027 149.016 86.1039
111.592 148.381 87.3447
111.781 149.128 86.7045
112.735 149.222 86.8239
112.354 148.613 87.6
113.497 148.813 86.4558
113.134 148.414 87.5002
114.003 148.862 85.7804
113.196 127.482 94.148
113.653 126.519 95.2642
114.424 125.397 95.386
115.272 125.749 94.697
115.718 127.098 94.7184
112.825 128.827 94.1848
115.563 128.283 94.6688
112.681 130.029 94.5101
115.639 129.527 94.5562
112.364 131.778 93.7214
112.537 130.957 94.1728
115.44 130.568 94.8438
115.357 131.621 93.6946
111.938 132.839 93.2212
115.187 132.803 92.7251
111.22 133.972 92.1651
111.582 133.618 92.7929
114.954 134.081 92.2798
110.349 135.813 91.1778
111.018 135.04 92.0182
114.941 135.554 91.8258
110.226 137.026 91.0143
110.97 136.292 91.9508
114.906 136.983 91.4407
110.183 138.285 90.7174
110.855 137.723 91.6261
115.131 138.441 90.9073
110.042 139.502 90.553
110.869 138.983 91.2857
115.068 139.771 90.5659
110.37 140.892 90.1869
110.838 140.12 90.9186
114.958 141.13 90.2815
110.537 142.122 89.4887
111.006 141.077 90.8047
110.992 141.918 90.4488
111.581 141.571 91.1656
114.919 142.209 90.257
110.475 143.33 89.1018
111.116 143.023 89.901
111.716 142.758 90.9335
114.779 143.426 88.7305
114.642 143.379 89.6551
111.006 144.317 89.3911
111.66 143.919 90.2146
114.604 144.5 88.6464
114.355 144.846 89.2897
111.251 145.824 88.8273
111.622 145.155 89.677
114.445 145.786 88.2009
114.114 145.764 89.0383
111.307 146.969 88.1374
111.897 146.068 89.4176
112.079 146.945 88.7825
113.117 147.131 88.8821
112.637 146.379 89.5549
114.032 146.604 88.5912
113.553 146.165 89.3943
111.845 147.806 88.2092
112.708 147.908 88.3771
113.589 147.568 88.1411
113.351 127.914 95.0675
113.778 127.163 95.9313
114.519 126.43 95.9495
115.459 126.224 95.5458
115.767 127.525 95.5197
113.425 129.15 95.0693
115.733 128.736 95.4036
113.511 129.904 95.3318
115.687 129.607 95.3242
113.184 131.572 94.8891
113.543 130.784 95.3568
114.185 131.753 95.7658
115.315 131.706 95.0252
114.912 130.856 95.7611
115.445 129.978 95.803
112.784 132.823 94.3437
113.618 132.74 95.3394
115.001 132.642 95.4335
115.266 132.503 94.2601
115.333 133.322 93.4145
111.773 134.644 92.8912
112.426 133.999 93.7384
115.211 134.855 92.9966
111.71 135.894 92.7191
112.343 135.443 93.5806
115.038 136.268 92.5194
111.508 137.216 92.5369
112.315 136.83 93.265
115.07 137.617 92.0915
111.465 138.478 92.1844
112.141 138.163 93.0017
115.097 138.905 91.772
111.601 139.695 91.7368
112.258 139.375 92.5588
115.01 140.183 91.4805
111.545 140.602 91.3665
112.122 140.603 92.0766
114.792 141.329 91.1968
112.065 141.916 91.7777
114.587 142.578 90.8027
112.255 142.741 91.586
112.413 143.751 91.0821
113.598 143.766 90.9767
113.084 143.043 91.6299
114.274 143.391 90.5554
113.967 142.748 91.3095
112.23 144.724 90.3092
113.163 144.526 90.3544
114.142 144.231 90.1089
112.234 145.604 89.9619
113.093 145.563 90.0831
113.95 145.335 89.9114
113.749 128.219 95.9231
114.51 127.412 96.3955
115.322 126.864 96.2655
113.951 129.422 95.954
114.613 128.679 96.2855
115.417 127.952 96.181
113.991 130.261 95.9924
114.74 129.804 96.4322
115.397 129.2 96.1021
113.476 134.013 94.5598
114.514 133.744 95.0356
115.234 133.327 94.4797
113.22 135.164 94.2692
114.423 134.982 94.6752
115.234 134.351 94.0956
113.16 136.524 93.9058
114.285 136.202 94.0856
115.089 135.669 93.663
113.073 137.879 93.5966
114.12 137.407 93.629
114.831 136.903 93.1841
113.024 139.12 93.2721
114.07 138.759 93.3359
114.8 138.218 92.8103
112.972 140.235 92.7055
113.939 139.91 92.754
114.707 139.396 92.461
112.804 141.34 92.2767
113.759 140.97 92.2896
114.415 140.559 92.0209
112.679 142.272 91.9992
113.45 142.069 91.9331
114.249 141.737 91.6486
POLYGONS 1936  7744
3 0 1 2
3 0 3 4
3 2 3 0
3 4 5 6
3 3 5 4
3 5 7 6
3 8 1 0
3 9 1 8
3 4 10 0
3 10 8 0
3 6 11 4
3 11 10 4
3 12 6 7
3 11 6 12
3 8 13 9
3 10 13 8
3 14 13 10
3 11 14 10
3 15 14 11
3 12 15 11
3 16 17 18
3 16 19 20
3 18 19 16
3 20 21 22
3 19 21 20
3 21 23 22
3 24 17 16
3 25 17 24
3 20 26 16
3 26 24 16
3 22 27 20
3 27 26 20
3 28 22 23
3 28 29 22
3 29 27 22
3 28 30 29
3 31 25 24
3 32 25 31
3 26 33 24
3 33 31 24
3 27 34 26
3 34 33 26
3 29 35 27
3 35 34 27
3 36 29 30
3 35 29 36
3 31 37 32
3 37 38 39
3 37 31 38
3 31 33 38
3 34 40 33
3 40 38 33
3 35 41 34
3 41 40 34
3 42 35 36
3 41 35 42
3 38 43 39
3 40 43 38
3 44 43 40
3 44 45 46
3 44 40 45
3 40 41 45
3 47 41 42
3 47 48 41
3 48 45 41
3 48 49 50
3 47 49 48
3 49 51 50
3 52 46 45
3 53 46 52
3 48 54 45
3 54 52 45
3 50 55 48
3 55 54 48
3 56 50 51
3 55 50 56
3 57 58 59
3 53 57 59
3 52 57 53
3 52 1 57
3 52 2 1
3 3 2 52
3 54 3 52
3 5 3 54
3 55 5 54
3 55 7 5
3 55 56 7
3 56 60 7
3 61 58 57
3 62 58 61
3 1 9 61
3 57 1 61
3 7 60 12
3 60 63 12
3 61 64 62
3 9 64 61
3 9 13 64
3 13 65 64
3 14 66 13
3 13 66 65
3 15 67 14
3 14 67 66
3 63 15 12
3 67 15 63
3 68 69 70
3 68 71 72
3 70 71 68
3 71 73 72
3 74 69 68
3 75 69 74
3 18 17 74
3 18 74 72
3 72 74 68
3 72 73 76
3 72 76 18
3 18 76 19
3 21 19 77
3 19 76 77
3 77 23 21
3 78 23 77
3 79 75 74
3 80 75 79
3 17 25 79
3 74 17 79
3 23 78 81
3 28 23 81
3 81 30 28
3 82 30 81
3 83 80 79
3 84 80 83
3 25 32 83
3 79 25 83
3 85 86 36
3 85 36 82
3 82 36 30
3 85 87 86
3 83 88 84
3 89 90 88
3 37 89 88
3 37 88 83
3 37 83 32
3 37 39 89
3 86 91 42
3 36 86 42
3 92 86 87
3 91 86 92
3 89 93 90
3 94 95 93
3 43 94 93
3 43 93 89
3 43 89 39
3 43 44 96
3 94 43 96
3 44 46 96
3 42 91 47
3 91 92 97
3 91 97 47
3 47 97 49
3 97 51 49
3 98 51 97
3 99 95 94
3 100 95 99
3 96 101 94
3 101 99 94
3 46 53 101
3 96 46 101
3 51 98 56
3 98 102 56
3 99 103 100
3 59 58 104
3 59 104 99
3 59 99 101
3 99 104 103
3 53 59 101
3 56 102 60
3 102 105 60
3 58 62 104
3 104 62 106
3 60 105 63
3 105 107 63
3 62 108 106
3 64 108 62
3 109 110 108
3 109 108 65
3 65 108 64
3 65 66 111
3 109 65 111
3 66 67 112
3 111 66 112
3 67 113 112
3 67 63 113
3 63 107 113
3 109 114 110
3 111 114 109
3 115 114 111
3 112 115 111
3 116 115 112
3 113 116 112
3 70 117 118
3 69 117 70
3 71 70 119
3 70 118 119
3 73 120 121
3 73 71 120
3 71 119 120
3 120 122 121
3 69 75 117
3 117 75 123
3 73 121 76
3 121 122 124
3 121 124 76
3 76 124 77
3 124 78 77
3 125 78 124
3 75 80 123
3 123 80 126
3 78 125 127
3 81 78 127
3 127 82 81
3 128 82 127
3 80 84 126
3 126 84 129
3 82 128 130
3 85 82 130
3 130 87 85
3 131 87 130
3 132 84 88
3 132 133 84
3 133 129 84
3 88 90 132
3 87 131 92
3 131 134 92
3 135 133 132
3 136 133 135
3 90 93 137
3 90 137 132
3 132 137 135
3 93 95 137
3 92 134 138
3 97 92 138
3 138 98 97
3 139 98 138
3 135 140 136
3 140 141 142
3 140 135 141
3 135 137 141
3 95 100 141
3 137 95 141
3 98 139 102
3 139 143 102
3 141 144 142
3 145 146 144
3 103 145 144
3 103 144 141
3 103 141 100
3 103 104 145
3 147 148 105
3 147 105 143
3 143 105 102
3 147 149 148
3 150 146 145
3 151 146 150
3 104 106 150
3 145 104 150
3 148 152 107
3 105 148 107
3 153 148 149
3 152 148 153
3 150 154 151
3 106 154 150
3 106 108 154
3 108 155 154
3 155 108 110
3 156 155 110
3 152 157 113
3 107 152 113
3 158 152 153
3 157 152 158
3 110 159 156
3 114 159 110
3 115 160 114
3 114 160 159
3 116 161 115
3 115 161 160
3 157 116 113
3 157 162 116
3 162 161 116
3 158 162 157
3 163 164 165
3 163 166 167
3 165 166 163
3 167 168 169
3 166 168 167
3 168 170 169
3 118 164 163
3 118 117 164
3 117 171 164
3 119 118 163
3 167 119 163
3 120 119 167
3 169 120 167
3 169 122 120
3 169 170 122
3 170 172 122
3 117 123 171
3 171 123 173
3 122 172 174
3 124 122 174
3 174 125 124
3 175 125 174
3 123 126 173
3 173 126 176
3 125 175 177
3 127 125 177
3 177 128 127
3 178 128 177
3 126 129 176
3 176 129 179
3 128 178 180
3 130 128 180
3 180 131 130
3 181 131 180
3 129 133 179
3 179 133 182
3 131 181 134
3 181 183 134
3 133 136 182
3 182 136 184
3 134 183 185
3 138 134 185
3 185 139 138
3 186 139 185
3 187 136 140
3 187 188 136
3 188 184 136
3 140 142 187
3 189 190 143
3 189 143 186
3 186 143 139
3 189 191 190
3 187 192 188
3 193 194 192
3 144 193 192
3 144 192 187
3 144 187 142
3 144 146 193
3 143 190 147
3 190 149 147
3 190 191 149
3 191 195 149
3 196 194 193
3 197 194 196
3 146 151 196
3 193 146 196
3 149 195 153
3 195 198 153
3 196 199 197
3 151 199 196
3 151 154 199
3 154 200 199
3 201 202 200
3 201 200 155
3 155 200 154
3 155 156 201
3 153 198 158
3 198 203 158
3 201 204 202
3 156 204 201
3 156 159 204
3 159 205 204
3 160 206 159
3 159 206 205
3 161 207 160
3 160 207 206
3 162 208 161
3 161 208 207
3 203 162 158
3 208 162 203
3 165 209 210
3 164 209 165
3 166 165 211
3 165 210 211
3 168 166 212
3 166 211 212
3 212 170 168
3 213 170 212
3 164 171 209
3 209 171 214
3 170 213 172
3 213 215 172
3 171 173 214
3 214 173 216
3 172 215 217
3 174 172 217
3 217 175 174
3 218 175 217
3 173 176 216
3 216 176 219
3 175 218 220
3 177 175 220
3 220 178 177
3 221 178 220
3 176 179 219
3 219 179 222
3 178 221 223
3 180 178 223
3 223 181 180
3 224 181 223
3 179 182 222
3 222 182 225
3 181 224 183
3 224 226 183
3 182 184 225
3 225 184 227
3 183 226 228
3 185 183 228
3 228 186 185
3 229 186 228
3 184 188 227
3 227 188 230
3 186 229 231
3 189 186 231
3 231 191 189
3 232 191 231
3 188 233 230
3 192 233 188
3 233 192 194
3 234 233 194
3 191 232 195
3 232 235 195
3 194 197 234
3 234 197 236
3 195 235 198
3 235 237 198
3 197 238 236
3 199 238 197
3 200 239 199
3 199 239 238
3 239 200 202
3 240 239 202
3 198 237 203
3 237 241 203
3 202 242 240
3 204 242 202
3 205 243 204
3 204 243 242
3 206 244 205
3 205 244 243
3 207 245 206
3 206 245 244
3 208 246 207
3 207 246 245
3 241 208 203
3 246 208 241
3 247 248 249
3 247 250 251
3 249 250 247
3 251 252 253
3 250 252 251
3 252 254 253
3 210 248 247
3 210 209 248
3 209 255 248
3 211 210 247
3 251 211 247
3 212 211 251
3 253 212 251
3 253 213 212
3 253 254 213
3 254 256 213
3 209 214 255
3 255 214 257
3 213 256 215
3 256 258 215
3 214 216 257
3 257 216 259
3 215 258 260
3 217 215 260
3 260 218 217
3 261 218 260
3 216 219 259
3 259 219 262
3 218 261 263
3 220 218 263
3 263 221 220
3 264 221 263
3 219 222 262
3 262 222 265
3 221 264 266
3 223 221 266
3 266 224 223
3 267 224 266
3 222 225 265
3 265 225 268
3 224 267 226
3 267 269 226
3 225 227 268
3 268 227 270
3 226 269 271
3 228 226 271
3 271 229 228
3 272 229 271
3 227 230 270
3 270 230 273
3 274 231 229
3 274 229 275
3 275 229 272
3 231 274 232
3 230 276 273
3 233 276 230
3 276 233 234
3 277 276 234
3 274 275 278
3 278 232 274
3 278 279 232
3 279 235 232
3 234 236 277
3 277 236 280
3 235 279 237
3 279 281 237
3 236 282 280
3 238 282 236
3 239 283 238
3 238 283 282
3 283 239 240
3 284 283 240
3 237 281 241
3 281 285 241
3 240 286 284
3 242 286 240
3 243 287 242
3 242 287 286
3 244 288 243
3 243 288 287
3 245 289 244
3 244 289 288
3 246 290 245
3 245 290 289
3 285 246 241
3 290 246 285
3 249 291 292
3 248 291 249
3 250 249 293
3 249 292 293
3 252 250 294
3 250 293 294
3 294 254 252
3 295 254 294
3 248 255 291
3 291 255 296
3 297 298 256
3 297 256 295
3 295 256 254
3 297 299 298
3 255 257 296
3 296 257 300
3 298 301 258
3 256 298 258
3 302 298 299
3 301 298 302
3 257 259 300
3 300 259 303
3 258 301 260
3 261 304 305
3 260 304 261
3 260 302 304
3 260 301 302
3 304 306 305
3 259 262 303
3 303 262 307
3 261 305 263
3 305 264 263
3 305 306 264
3 306 308 264
3 262 265 307
3 307 265 309
3 264 308 310
3 266 264 310
3 310 267 266
3 311 267 310
3 265 268 309
3 309 268 312
3 313 314 269
3 313 269 311
3 311 269 267
3 313 315 314
3 268 270 312
3 312 270 316
3 269 314 271
3 314 272 271
3 314 315 272
3 315 317 272
3 270 273 316
3 316 273 318
3 272 317 275
3 317 319 275
3 273 320 318
3 276 320 273
3 320 276 277
3 321 320 277
3 275 319 322
3 278 275 322
3 322 279 278
3 323 279 322
3 277 280 321
3 321 280 324
3 279 323 281
3 323 325 281
3 280 326 324
3 282 326 280
3 283 327 282
3 282 327 326
3 327 283 284
3 328 327 284
3 281 325 285
3 325 329 285
3 284 330 328
3 286 330 284
3 287 331 286
3 286 331 330
3 288 332 287
3 287 332 331
3 289 333 288
3 288 333 332
3 290 334 289
3 289 334 333
3 329 290 285
3 334 290 329
3 335 336 337
3 335 338 339
3 337 338 335
3 338 340 339
3 292 291 341
3 335 342 336
3 335 292 342
3 335 293 292
3 341 342 292
3 294 293 335
3 339 294 335
3 295 343 344
3 294 343 295
3 294 340 343
3 294 339 340
3 343 345 344
3 341 346 347
3 341 291 346
3 291 296 346
3 342 341 347
3 295 344 297
3 344 299 297
3 344 345 299
3 345 348 299
3 296 300 346
3 346 300 349
3 299 348 302
3 348 350 302
3 300 303 349
3 349 303 351
3 302 350 352
3 304 302 352
3 352 306 304
3 353 306 352
3 303 307 351
3 351 307 354
3 355 356 308
3 355 308 353
3 353 308 306
3 355 357 356
3 307 309 354
3 354 309 358
3 308 356 310
3 311 359 360
3 310 359 311
3 310 357 359
3 310 356 357
3 359 361 360
3 309 312 358
3 358 312 362
3 311 360 313
3 360 315 313
3 360 361 315
3 361 363 315
3 312 316 362
3 362 316 364
3 315 363 317
3 363 365 317
3 316 318 364
3 364 318 366
3 317 365 319
3 365 367 319
3 318 368 366
3 320 368 318
3 368 320 321
3 369 368 321
3 370 322 319
3 370 319 371
3 371 319 367
3 322 370 323
3 372 324 373
3 372 369 324
3 369 321 324
3 372 373 374
3 375 370 371
3 376 375 371
3 323 375 325
3 370 375 323
3 324 326 373
3 373 377 374
3 373 326 377
3 326 327 377
3 328 378 379
3 328 379 327
3 327 379 377
3 378 380 381
3 379 378 381
3 380 382 383
3 381 380 383
3 382 384 385
3 383 382 385
3 376 385 384
3 376 384 375
3 375 384 386
3 325 386 329
3 375 386 325
3 328 330 378
3 331 378 330
3 380 378 331
3 332 380 331
3 382 380 332
3 333 382 332
3 384 382 333
3 334 384 333
3 386 384 334
3 329 386 334
3 387 388 389
3 387 390 391
3 389 390 387
3 390 392 391
3 337 388 387
3 337 336 388
3 336 393 388
3 338 337 387
3 391 338 387
3 340 394 395
3 338 394 340
3 338 392 394
3 338 391 392
3 394 396 395
3 336 342 393
3 393 342 397
3 340 395 343
3 395 345 343
3 395 396 345
3 396 398 345
3 347 399 400
3 346 399 347
3 397 342 347
3 400 397 347
3 401 402 348
3 401 348 398
3 398 348 345
3 401 403 402
3 346 349 399
3 399 349 404
3 402 405 350
3 348 402 350
3 406 402 403
3 405 402 406
3 349 351 404
3 404 351 407
3 350 405 352
3 353 408 409
3 352 408 353
3 352 406 408
3 352 405 406
3 408 410 409
3 351 354 407
3 407 354 411
3 353 409 355
3 357 412 413
3 355 412 357
3 355 410 412
3 355 409 410
3 412 414 413
3 354 358 411
3 411 358 415
3 357 413 359
3 413 361 359
3 413 414 361
3 414 416 361
3 358 362 415
3 415 362 417
3 361 416 363
3 416 418 363
3 362 364 417
3 417 364 419
3 420 421 365
3 420 365 418
3 418 365 363
3 420 422 421
3 423 366 424
3 423 419 366
3 419 364 366
3 423 424 425
3 421 426 367
3 365 421 367
3 427 421 422
3 426 421 427
3 366 368 424
3 369 428 429
3 368 369 429
3 368 429 425
3 368 425 424
3 429 428 430
3 426 431 371
3 367 426 371
3 432 426 427
3 431 426 432
3 369 372 428
3 374 433 434
3 372 374 434
3 372 434 430
3 372 430 428
3 434 433 435
3 431 436 437
3 431 437 371
3 371 437 376
3 432 436 431
3 374 377 433
3 433 438 435
3 433 377 438
3 377 379 438
3 381 439 379
3 379 439 438
3 383 440 381
3 381 440 439
3 385 441 383
3 383 441 440
3 437 385 376
3 441 385 437
3 442 443 444
3 442 445 446
3 444 445 442
3 446 447 448
3 445 447 446
3 447 449 448
3 389 443 442
3 389 388 443
3 388 450 443
3 390 389 442
3 446 390 442
3 392 390 446
3 392 446 451
3 451 446 448
3 452 448 449
3 451 448 452
3 388 393 450
3 450 393 453
3 392 451 394
3 396 454 455
3 394 454 396
3 394 452 454
3 394 451 452
3 454 456 455
3 393 397 453
3 453 397 457
3 455 458 398
3 396 455 398
3 459 455 456
3 458 455 459
3 400 460 461
3 399 460 400
3 457 397 400
3 461 457 400
3 398 458 401
3 403 462 463
3 401 462 403
3 401 459 462
3 401 458 459
3 462 464 463
3 399 404 460
3 460 404 465
3 463 466 406
3 403 463 406
3 467 463 464
3 466 463 467
3 404 407 465
3 465 407 468
3 406 466 408
3 410 469 470
3 408 469 410
3 408 467 469
3 408 466 467
3 469 471 470
3 407 411 468
3 468 411 472
3 410 470 412
3 470 414 412
3 470 471 414
3 471 473 414
3 411 415 472
3 472 415 474
3 475 476 416
3 475 416 473
3 473 416 414
3 475 477 476
3 478 417 479
3 478 474 417
3 474 415 417
3 478 479 480
3 476 481 418
3 416 476 418
3 482 476 477
3 481 476 482
3 479 419 483
3 417 419 479
3 484 480 479
3 483 484 479
3 418 481 420
3 481 422 420
3 481 482 422
3 482 485 422
3 419 423 483
3 483 423 425
3 483 425 484
3 484 425 486
3 422 485 427
3 485 487 427
3 425 488 486
3 429 488 425
3 488 429 430
3 489 488 430
3 427 487 432
3 487 490 432
3 430 491 489
3 434 491 430
3 435 492 493
3 435 493 434
3 434 493 491
3 493 492 494
3 436 495 496
3 437 436 496
3 490 436 432
3 495 436 490
3 435 438 492
3 492 497 494
3 492 438 497
3 438 439 497
3 440 498 439
3 439 498 497
3 441 499 440
3 440 499 498
3 496 441 437
3 499 441 496
3 444 500 501
3 443 500 444
3 445 444 502
3 444 501 502
3 447 445 503
3 445 502 503
3 503 449 447
3 504 449 503
3 443 450 500
3 500 450 505
3 506 507 452
3 506 452 504
3 504 452 449
3 506 508 507
3 450 453 505
3 505 453 509
3 452 507 454
3 456 510 511
3 454 510 456
3 454 508 510
3 454 507 508
3 510 512 511
3 453 457 509
3 509 457 513
3 511 514 459
3 456 511 459
3 515 511 512
3 514 511 515
3 461 460 516
3 461 516 517
3 461 517 457
3 457 517 513
3 459 514 462
3 464 518 519
3 462 518 464
3 462 515 518
3 462 514 515
3 518 520 519
3 516 521 522
3 516 460 521
3 460 465 521
3 517 516 522
3 519 523 467
3 464 519 467
3 524 519 520
3 523 519 524
3 465 468 521
3 521 468 525
3 467 523 469
3 471 526 527
3 469 526 471
3 469 524 526
3 469 523 524
3 526 528 527
3 468 472 525
3 525 472 529
3 527 530 473
3 471 527 473
3 531 527 528
3 530 527 531
3 532 474 533
3 532 529 474
3 529 472 474
3 532 533 534
3 473 530 475
3 530 477 475
3 530 531 477
3 531 535 477
3 474 478 533
3 533 478 480
3 533 480 534
3 534 480 536
3 477 535 482
3 535 537 482
3 538 484 539
3 538 536 484
3 536 480 484
3 538 539 540
3 482 537 485
3 537 541 485
3 539 486 542
3 484 486 539
3 543 540 539
3 542 543 539
3 485 541 487
3 541 544 487
3 486 488 542
3 489 545 546
3 488 489 546
3 488 546 543
3 488 543 542
3 545 547 548
3 546 545 548
3 548 547 549
3 550 551 552
3 550 544 551
3 550 490 544
3 490 487 544
3 489 491 545
3 493 545 491
3 547 545 493
3 494 553 554
3 493 494 554
3 493 554 549
3 493 549 547
3 553 555 556
3 554 553 556
3 555 557 558
3 556 555 558
3 552 558 557
3 550 552 557
3 550 557 496
3 550 496 495
3 490 550 495
3 494 497 553
3 498 553 497
3 555 553 498
3 499 555 498
3 557 555 499
3 496 557 499
3 559 560 561
3 559 562 563
3 561 562 559
3 563 564 565
3 562 564 563
3 565 566 567
3 564 566 565
3 566 568 567
3 501 560 559
3 501 500 560
3 500 569 560
3 502 501 559
3 563 502 559
3 503 502 563
3 565 503 563
3 504 503 565
3 504 565 570
3 570 565 567
3 571 567 568
3 570 567 571
3 500 505 569
3 569 505 572
3 504 570 506
3 508 573 574
3 506 573 508
3 506 571 573
3 506 570 571
3 573 575 574
3 505 509 572
3 572 509 576
3 508 574 510
3 574 512 510
3 574 575 512
3 575 577 512
3 509 513 576
3 576 513 578
3 579 580 515
3 579 515 577
3 577 515 512
3 579 581 580
3 513 517 578
3 578 517 582
3 515 580 518
3 580 520 518
3 580 581 520
3 581 583 520
3 522 521 584
3 522 584 585
3 522 585 517
3 517 585 582
3 520 583 524
3 583 586 524
3 584 525 587
3 521 525 584
3 588 585 584
3 587 588 584
3 524 586 589
3 526 524 589
3 589 528 526
3 590 528 589
3 587 529 591
3 525 529 587
3 592 588 587
3 591 592 587
3 528 590 531
3 590 593 531
3 529 532 591
3 591 532 534
3 591 534 592
3 592 534 594
3 531 593 535
3 593 595 535
3 596 536 597
3 596 594 536
3 594 534 536
3 597 598 599
3 596 597 599
3 599 598 600
3 535 595 537
3 595 601 537
3 536 538 597
3 540 597 538
3 540 602 597
3 602 598 597
3 603 600 598
3 602 603 598
3 604 605 606
3 604 601 605
3 604 541 601
3 541 537 601
3 602 543 607
3 540 543 602
3 608 603 602
3 608 602 609
3 609 602 607
3 608 609 610
3 611 604 606
3 612 611 606
3 541 611 544
3 604 611 541
3 543 546 607
3 548 607 546
3 609 607 548
3 609 548 549
3 609 549 610
3 610 549 613
3 551 611 612
3 551 612 552
3 552 612 614
3 544 611 551
3 549 615 613
3 554 615 549
3 556 616 554
3 554 616 615
3 558 617 556
3 556 617 616
3 614 558 552
3 617 558 614
3 618 619 620
3 618 621 622
3 620 621 618
3 622 623 624
3 621 623 622
3 623 625 624
3 626 619 618
3 627 619 626
3 622 628 618
3 628 626 618
3 624 629 622
3 629 628 622
3 630 624 625
3 630 631 624
3 631 629 624
3 630 632 631
3 561 633 634
3 560 633 561
3 627 626 562
3 627 562 634
3 634 562 561
3 564 562 626
3 628 564 626
3 566 564 628
3 629 566 628
3 568 566 629
3 568 629 635
3 635 629 631
3 636 631 632
3 636 637 631
3 637 635 631
3 636 638 637
3 560 569 633
3 633 569 639
3 635 640 571
3 568 635 571
3 637 641 635
3 641 640 635
3 642 637 638
3 641 637 642
3 569 572 639
3 639 572 643
3 571 640 573
3 575 573 640
3 575 640 644
3 644 640 641
3 645 641 642
3 644 641 645
3 572 576 643
3 643 576 646
3 644 647 577
3 575 644 577
3 648 644 645
3 647 644 648
3 576 578 646
3 646 578 649
3 577 647 579
3 581 650 651
3 579 650 581
3 579 648 650
3 579 647 648
3 650 652 651
3 578 582 649
3 649 582 653
3 651 654 583
3 581 651 583
3 655 651 652
3 654 651 655
3 582 585 653
3 653 585 656
3 654 657 586
3 583 654 586
3 658 654 655
3 657 654 658
3 585 588 656
3 656 588 659
3 586 657 589
3 657 590 589
3 657 658 590
3 658 660 590
3 661 592 662
3 661 659 592
3 659 588 592
3 661 662 663
3 590 660 593
3 660 664 593
3 662 594 665
3 592 594 662
3 666 663 662
3 665 666 662
3 593 664 595
3 664 667 595
3 594 596 665
3 665 668 666
3 665 596 668
3 596 599 668
3 668 599 600
3 669 668 600
3 595 667 601
3 667 670 601
3 671 603 672
3 671 669 603
3 669 600 603
3 671 672 673
3 605 674 675
3 606 605 675
3 670 605 601
3 674 605 670
3 603 608 672
3 610 676 677
3 608 610 677
3 608 677 673
3 608 673 672
3 676 678 679
3 677 676 679
3 678 680 681
3 679 678 681
3 680 675 681
3 680 612 675
3 612 606 675
3 676 613 682
3 610 613 676
3 678 676 683
3 683 676 682
3 680 678 684
3 684 678 683
3 612 684 614
3 680 684 612
3 613 615 682
3 616 682 615
3 683 682 616
3 617 683 616
3 684 683 617
3 614 684 617
3 685 686 687
3 685 688 689
3 687 688 685
3 689 690 691
3 688 690 689
3 690 692 691
3 620 693 694
3 619 693 620
3 686 685 621
3 686 621 694
3 694 621 620
3 623 621 685
3 689 623 685
3 625 623 689
3 625 689 695
3 695 689 691
3 696 691 692
3 696 697 691
3 697 695 691
3 696 698 697
3 619 627 693
3 693 627 699
3 625 695 630
3 632 630 695
3 632 695 700
3 700 695 697
3 701 697 698
3 700 697 701
3 634 633 702
3 634 702 703
3 634 703 627
3 627 703 699
3 632 700 636
3 700 638 636
3 700 701 638
3 701 704 638
3 702 639 705
3 633 639 702
3 706 703 702
3 705 706 702
3 638 704 642
3 704 707 642
3 705 643 708
3 639 643 705
3 709 706 705
3 708 709 705
3 642 707 645
3 707 710 645
3 708 711 712
3 708 643 711
3 643 646 711
3 709 708 712
3 645 710 648
3 710 713 648
3 646 649 711
3 711 649 714
3 648 713 715
3 650 648 715
3 715 652 650
3 716 652 715
3 717 653 718
3 717 714 653
3 714 649 653
3 717 718 719
3 652 716 655
3 716 720 655
3 718 656 721
3 653 656 718
3 722 719 718
3 721 722 718
3 655 720 658
3 720 723 658
3 721 659 724
3 656 659 721
3 725 722 721
3 724 725 721
3 658 723 660
3 723 726 660
3 659 661 724
3 663 727 728
3 661 663 728
3 661 728 725
3 661 725 724
3 728 727 729
3 660 726 664
3 726 730 664
3 727 666 731
3 663 666 727
3 732 729 727
3 731 732 727
3 664 730 667
3 730 733 667
3 666 668 731
3 669 734 735
3 668 669 735
3 668 735 732
3 668 732 731
3 734 736 737
3 735 734 737
3 736 738 739
3 737 736 739
3 738 740 741
3 739 738 741
3 740 742 743
3 741 740 743
3 742 733 743
3 742 670 733
3 670 667 733
3 669 671 734
3 673 734 671
3 673 744 734
3 744 736 734
3 738 736 745
3 745 736 744
3 740 738 746
3 746 738 745
3 674 746 675
3 674 742 746
3 742 740 746
3 670 742 674
3 673 677 744
3 679 744 677
3 745 744 679
3 681 745 679
3 746 745 681
3 675 746 681
3 747 748 749
3 747 750 751
3 749 750 747
3 751 752 753
3 750 752 751
3 752 754 753
3 755 748 747
3 756 748 755
3 751 757 747
3 757 755 747
3 753 758 751
3 758 757 751
3 759 753 754
3 758 753 759
3 760 756 755
3 761 756 760
3 757 762 755
3 762 760 755
3 758 763 757
3 763 762 757
3 764 758 759
3 763 758 764
3 765 766 767
3 761 765 767
3 761 760 765
3 760 768 765
3 762 769 760
3 769 768 760
3 770 763 771
3 770 769 763
3 769 762 763
3 764 771 763
3 772 766 765
3 773 766 772
3 768 774 765
3 774 772 765
3 769 775 768
3 775 774 768
3 776 769 770
3 775 769 776
3 687 777 778
3 686 777 687
3 773 772 688
3 773 688 778
3 778 688 687
3 690 688 772
3 774 690 772
3 692 690 774
3 692 774 779
3 779 774 775
3 780 775 776
3 779 775 780
3 694 781 782
3 693 781 694
3 777 686 694
3 782 777 694
3 692 779 696
3 779 698 696
3 779 780 698
3 780 783 698
3 693 699 781
3 781 699 784
3 698 783 701
3 783 785 701
3 699 703 784
3 784 703 786
3 701 785 704
3 785 787 704
3 703 706 786
3 786 706 788
3 704 787 707
3 787 789 707
3 706 709 788
3 788 709 790
3 707 789 710
3 789 791 710
3 712 711 792
3 712 792 793
3 712 793 709
3 709 793 790
3 710 791 713
3 791 794 713
3 792 714 795
3 711 714 792
3 796 793 792
3 795 796 792
3 713 794 797
3 715 713 797
3 797 716 715
3 798 716 797
3 714 717 795
3 719 799 800
3 717 719 800
3 717 800 796
3 717 796 795
3 800 799 801
3 716 798 720
3 798 802 720
3 799 722 803
3 719 722 799
3 804 801 799
3 803 804 799
3 720 802 723
3 802 805 723
3 803 725 806
3 722 725 803
3 807 804 803
3 806 807 803
3 808 809 810
3 808 805 809
3 808 726 805
3 726 723 805
3 725 728 806
3 729 811 812
3 728 729 812
3 728 812 807
3 728 807 806
3 812 811 813
3 814 808 810
3 815 814 810
3 726 814 730
3 808 814 726
3 811 732 816
3 729 732 811
3 817 813 811
3 817 811 818
3 818 811 816
3 818 819 820
3 817 818 820
3 819 821 822
3 820 819 822
3 815 822 821
3 815 821 814
3 814 821 823
3 730 823 733
3 814 823 730
3 732 735 816
3 737 816 735
3 818 816 737
3 739 818 737
3 819 818 739
3 741 819 739
3 821 819 741
3 743 821 741
3 823 821 743
3 733 823 743
3 749 824 825
3 748 824 749
3 750 749 826
3 749 825 826
3 752 750 827
3 750 826 827
3 827 754 752
3 828 754 827
3 748 756 824
3 824 756 829
3 754 828 759
3 828 830 759
3 756 761 829
3 829 761 831
3 759 830 764
3 830 832 764
3 767 833 834
3 766 833 767
3 831 761 767
3 834 831 767
3 771 835 836
3 770 771 836
3 832 771 764
3 835 771 832
3 766 773 833
3 833 773 837
3 770 836 776
3 836 838 776
3 778 839 840
3 777 839 778
3 837 773 778
3 840 837 778
3 776 838 780
3 838 841 780
3 782 781 842
3 782 842 843
3 782 843 777
3 777 843 839
3 780 841 783
3 841 844 783
3 842 784 845
3 781 784 842
3 846 843 842
3 845 846 842
3 783 844 785
3 844 847 785
3 845 786 848
3 784 786 845
3 849 846 845
3 848 849 845
3 785 847 787
3 847 850 787
3 848 788 851
3 786 788 848
3 852 849 848
3 851 852 848
3 787 850 789
3 850 853 789
3 851 790 854
3 788 790 851
3 855 852 851
3 854 855 851
3 789 853 791
3 853 856 791
3 854 793 857
3 790 793 854
3 858 855 854
3 858 854 859
3 859 854 857
3 858 859 860
3 791 856 794
3 856 861 794
3 857 796 862
3 793 796 857
3 859 857 863
3 863 857 862
3 864 860 859
3 863 864 859
3 865 797 794
3 865 794 866
3 866 794 861
3 797 865 798
3 796 800 862
3 801 862 800
3 801 867 862
3 867 863 862
3 868 864 863
3 867 868 863
3 869 865 866
3 870 869 866
3 798 869 802
3 865 869 798
3 867 804 871
3 801 804 867
3 872 868 867
3 871 872 867
3 873 869 870
3 874 873 870
3 802 873 805
3 869 873 802
3 871 807 875
3 804 807 871
3 876 872 871
3 876 871 877
3 877 871 875
3 877 878 879
3 876 877 879
3 878 880 881
3 879 878 881
3 874 881 880
3 873 874 880
3 873 880 810
3 873 810 809
3 805 873 809
3 807 812 875
3 813 875 812
3 813 882 875
3 882 877 875
3 878 877 883
3 883 877 882
3 880 878 884
3 884 878 883
3 810 884 815
3 880 884 810
3 813 817 882
3 820 882 817
3 883 882 820
3 822 883 820
3 884 883 822
3 815 884 822
3 825 885 886
3 824 885 825
3 826 825 887
3 825 886 887
3 827 826 888
3 826 887 888
3 888 828 827
3 889 828 888
3 824 829 885
3 885 829 890
3 828 889 830
3 889 891 830
3 829 831 890
3 890 831 892
3 830 891 832
3 891 893 832
3 834 833 894
3 895 892 831
3 895 831 894
3 895 894 896
3 894 831 834
3 896 897 898
3 895 896 898
3 897 836 835
3 897 835 898
3 898 835 899
3 893 835 832
3 899 835 893
3 894 900 901
3 894 833 900
3 833 837 900
3 896 894 901
3 902 896 901
3 897 896 902
3 903 897 902
3 903 836 897
3 903 904 836
3 904 838 836
3 840 839 905
3 840 905 906
3 840 906 837
3 837 906 900
3 838 904 841
3 904 907 841
3 905 843 908
3 839 843 905
3 909 906 905
3 908 909 905
3 841 907 844
3 907 910 844
3 908 846 911
3 843 846 908
3 912 909 908
3 911 912 908
3 844 910 847
3 910 913 847
3 911 849 914
3 846 849 911
3 915 912 911
3 914 915 911
3 847 913 850
3 913 916 850
3 914 852 917
3 849 852 914
3 918 915 914
3 917 918 914
3 850 916 853
3 916 919 853
3 917 855 920
3 852 855 917
3 921 918 917
3 920 921 917
3 853 919 856
3 919 922 856
3 855 858 920
3 920 858 860
3 920 860 921
3 921 860 923
3 856 922 861
3 922 924 861
3 925 864 926
3 925 923 864
3 923 860 864
3 926 927 928
3 925 926 928
3 927 929 930
3 928 927 930
3 929 924 930
3 929 866 924
3 866 861 924
3 926 868 931
3 864 868 926
3 927 926 932
3 932 926 931
3 929 927 933
3 933 927 932
3 866 933 870
3 929 933 866
3 931 872 934
3 868 872 931
3 932 931 935
3 935 931 934
3 933 932 936
3 936 932 935
3 870 936 874
3 933 936 870
3 872 876 934
3 879 934 876
3 935 934 879
3 881 935 879
3 936 935 881
3 874 936 881
3 886 885 937
3 886 938 887
3 937 938 886
3 887 939 888
3 938 939 887
3 888 939 889
3 937 890 940
3 885 890 937
3 938 937 941
3 941 937 940
3 939 938 942
3 942 938 941
3 889 942 891
3 939 942 889
3 940 892 943
3 890 892 940
3 941 940 944
3 944 940 943
3 942 941 945
3 945 941 944
3 891 945 893
3 942 945 891
3 892 895 943
3 898 943 895
3 944 943 898
3 899 944 898
3 945 944 899
3 893 945 899
3 901 900 946
3 901 947 902
3 946 947 901
3 902 948 903
3 947 948 902
3 903 948 904
3 946 906 949
3 900 906 946
3 947 946 950
3 950 946 949
3 948 947 951
3 951 947 950
3 904 951 907
3 948 951 904
3 949 909 952
3 906 909 949
3 950 949 953
3 953 949 952
3 951 950 954
3 954 950 953
3 907 954 910
3 951 954 907
3 952 912 955
3 909 912 952
3 953 952 956
3 956 952 955
3 954 953 957
3 957 953 956
3 910 957 913
3 954 957 910
3 955 915 958
3 912 915 955
3 956 955 959
3 959 955 958
3 957 956 960
3 960 956 959
3 913 960 916
3 957 960 913
3 958 918 961
3 915 918 958
3 959 958 962
3 962 958 961
3 960 959 963
3 963 959 962
3 916 963 919
3 960 963 916
3 961 921 964
3 918 921 961
3 962 961 965
3 965 961 964
3 963 962 966
3 966 962 965
3 919 966 922
3 963 966 919
3 964 923 967
3 921 923 964
3 965 964 968
3 968 964 967
3 966 965 969
3 969 965 968
3 922 969 924
3 966 969 922
3 923 925 967
3 928 967 925
3 968 967 928
3 930 968 928
3 969 968 930
3 924 969 930
