# vtk DataFile Version 3.0
this file was written using fslvtkio
ASCII
DATASET POLYDATA
POINTS 642 float
84.7576 135.718 76.1471
82.0973 138.593 72.5846
78.4441 129.902 76.0153
80.8141 127.68 80.2766
82.1438 133.821 83.2212
83.3437 132.146 73.6786
81.535 132.406 71.5816
79.652 135.612 79.4603
83.6028 141.057 76.211
78.3833 126.853 82.8209
78.4824 123.121 75.2789
87.7933 139.353 68.9608
81.4656 139.434 78.5268
83.1902 138.325 80.6453
80.3653 135.662 82.7334
78.8887 131.394 81.6407
80.2342 130.169 85.3836
85.32 136.324 68.9255
82.586 131.975 72.0021
87.5352 135.371 69.821
79.419 127.496 72.899
80.2823 126.81 74.845
81.0188 129.512 82.5726
83.8673 134.693 79.8948
82.9224 132.105 78.2449
81.3681 129.685 76.698
84.4357 134.399 74.0839
80.7994 137.174 75.882
78.6481 132.473 78.0019
80.0913 134.165 74.2321
82.6017 136.164 71.4493
78.7953 130.484 73.2774
87.092 137.892 72.3124
84.9858 138.706 76.0858
86.0051 141.919 71.7016
84.6461 140.446 69.7951
82.6188 141.441 73.8897
79.6438 124.59 78.9725
77.7454 122.415 79.5172
79.9832 124.868 84.2531
77.9439 125.495 75.5589
78.2575 127.504 79.0484
82.3015 140.161 79.947
81.7129 137.827 82.1397
81.0214 138.022 80.7219
81.2236 135.118 83.8432
82.7514 136.219 81.9531
83.7235 140.089 78.3857
82.5239 141.248 77.5492
80.531 137.566 79.0013
79.8552 135.695 81.1333
79.2058 133.823 82.4031
80.0876 132.791 84.1956
79.1882 131.052 83.6726
81.1565 132.257 84.4821
78.9446 133.707 80.415
78.7224 129.047 82.122
79.1136 128.73 84.1979
84.5953 134.859 69.7696
84.8433 135.489 70.8477
86.7824 135.357 68.4862
83.9882 135.769 71.6329
82.8989 132.196 72.8183
82.3916 132.562 71.5276
83.5353 135.131 70.4398
86.6966 137.861 68.8488
88.5262 137.202 69.1366
80.1756 126.65 73.4709
80.9396 129.234 73.7806
80.8816 129.471 72.5776
81.4851 129.955 74.3665
79.4475 124.644 74.8789
78.7395 124.383 73.0548
80.4854 129.848 72.2622
82.4594 132.047 81.2377
83.3059 133.267 79.2371
82.1566 131.053 80.5407
83.6382 134.253 77.3221
84.4949 135.282 78.062
82.7511 134.321 81.4047
81.6613 131.923 82.7178
81.2248 128.744 81.366
81.8578 129.921 79.2624
82.3152 131.323 77.2352
83.6159 133.312 76.2151
82.8292 132.253 75.5437
84.7245 135.221 74.859
81.2208 128.647 78.4191
82.2615 130.549 75.1663
83.4304 133.591 73.8077
79.7649 134.94 76.8505
79.0701 133.484 76.0374
80.4889 135.789 74.8797
78.6786 131.99 74.9723
78.3025 131.358 76.8214
79.3069 134.378 78.477
80.3144 136.629 77.8072
81.0578 138.478 74.0877
81.347 136.717 73.3509
81.3507 135.233 72.7931
79.2924 132.573 73.4844
80.5481 133.069 72.4223
78.1936 129.94 74.4155
82.4698 137.676 71.8209
82.2142 134.407 71.3225
80.187 131.399 72.3115
86.1475 138.625 73.7771
85.5955 140.104 73.4416
86.8802 139.927 71.795
84.6558 141.419 73.8529
84.5737 140.027 75.9743
85.2851 137.238 76.0601
85.6648 136.872 74.2051
88.1557 138.592 70.5852
86.9539 141.02 70.0412
85.264 142.617 69.8184
84.3252 142.676 72.2267
83.7969 141.592 71.5661
83.308 142.211 74.9798
86.0778 140.328 68.7543
83.3768 139.687 71.3264
82.249 140.252 72.8788
79.2174 122.556 79.6254
78.3907 122.944 82.9497
79.7055 124.144 81.6457
78.3132 125.843 84.7094
77.9374 124.825 81.7397
77.8749 121.982 77.1692
79.1364 123.832 77.1195
80.2653 126.181 79.7068
80.1857 126.274 81.8857
78.0784 126.287 77.3916
77.8744 125.068 79.5575
77.8155 123.787 77.4583
78.0539 127.042 81.0133
78.4792 128.805 77.4725
78.6357 128.06 75.7185
77.6368 123.705 74.7264
83.9329 136.716 80.1239
84.1483 138.453 78.1887
84.653 136.814 77.9952
86.3823 136.106 72.8674
88.0005 136.651 71.1152
85.571 135.952 71.734
79.8104 127.128 85.4172
81.0718 129.986 84.3139
80.354 127.367 83.269
80.3825 127.009 77.8798
80.7645 128.689 75.9144
79.797 125.794 76.821
82.1995 140.517 76.1348
81.2532 138.764 76.861
81.4652 139.615 74.9735
83.8086 138.367 70.4069
83.5762 136.646 69.8101
85.0415 138.494 69.1806
78.4656 130.067 78.6349
78.5826 131.862 79.9266
78.3529 129.426 80.417
78.4389 126.382 73.7161
79.1591 129.332 72.5997
78.3833 128.08 74.1295
81.9575 139.377 81.4033
81.2304 138.18 81.4844
81.5288 139.213 80.4011
80.7242 136.944 81.7722
80.964 136.996 82.4978
82.3859 138.206 81.4857
82.7484 139.303 80.4496
81.8216 139.967 79.2414
81.1403 138.976 79.7116
81.5686 136.551 82.9932
82.3388 137.156 82.2671
82.0021 135.726 82.8255
82.975 137.308 81.368
80.7951 135.689 83.3856
81.7661 134.62 83.3863
82.3964 134.973 82.4767
83.1937 140.272 79.3665
82.4176 141.025 78.8076
83.2263 140.825 77.9937
82.0049 140.428 78.2367
83.5545 139.291 79.6895
83.6927 140.775 77.1999
83.223 141.507 77.1357
80.6934 137.765 80.0391
80.5463 136.712 81.0149
80.1886 136.809 80.1864
80.074 135.714 82.0193
80.8777 138.432 78.9869
80.0664 136.669 79.3847
79.7143 135.777 80.2634
79.657 133.322 83.3745
79.642 131.868 83.9973
79.2686 132.429 83.0142
79.5892 130.54 84.7397
80.187 131.476 84.8272
80.0992 134.209 83.4216
79.7294 134.66 82.6811
78.9498 132.566 82.1641
78.9489 131.424 82.7004
80.4842 132.703 84.6132
80.4127 134.373 83.9868
81.2189 133.817 84.0669
80.9373 131.368 85.3262
81.6728 133.021 83.7988
79.3999 134.808 81.7048
79.0553 133.599 81.4092
79.2878 134.765 80.7259
78.925 132.548 81.1723
79.1715 134.815 79.9104
78.8309 130.278 82.9148
79.2771 129.877 83.9613
78.8307 128.896 83.2233
79.5749 129.391 85.0542
78.6609 130.32 82.0259
78.7315 127.911 82.4136
78.6366 127.746 83.4811
84.7015 135.613 70.6681
86.1085 135.243 69.6818
85.4948 134.924 69.0279
87.5383 135.417 68.9649
86.4412 135.486 70.1745
83.4809 134.454 71.5316
83.7982 134.624 70.9714
84.9654 135.515 69.2607
86.0762 135.903 68.6485
84.7245 135.744 71.0954
83.4281 134.335 71.8061
83.5499 134.282 72.1311
82.6561 132.049 72.4954
85.6672 136.148 70.8603
83.6387 133.645 72.9626
83.1538 132.293 73.1726
83.6285 134.443 70.7645
84.1072 134.953 69.7056
83.137 134.312 70.9738
84.3646 135.838 69.3577
82.6288 132.329 71.6469
81.9672 132.427 71.3737
82.5322 133.897 71.1709
86.8506 136.738 68.5573
87.7183 136.256 68.5035
87.7454 137.368 68.4509
88.4023 136.074 69.2315
85.9437 137.143 68.5683
87.3871 138.471 68.78
88.2934 138.278 68.9919
80.4159 128.02 73.9724
81.1207 129.496 73.0004
80.2805 127.944 73.0535
81.7936 130.531 72.3243
81.8687 130.478 72.8207
80.5949 127.967 74.4624
80.3949 126.713 74.0011
79.7237 126.496 72.8663
80.0408 128.449 72.8343
81.9917 130.853 73.122
81.1109 129.485 74.1737
82.0497 131.225 73.5163
80.5078 128.225 74.9604
82.3808 131.28 73.9
79.9524 125.389 73.8592
79.654 125.12 73.0855
79.2885 124.206 73.8917
79.0956 125.737 72.8068
80.0826 125.6 74.7536
79.1077 123.646 75.0332
78.429 123.492 73.967
80.7925 129.696 72.3743
81.7345 130.892 71.961
81.3844 130.825 71.6608
79.8114 128.659 72.4405
80.972 131.001 71.6937
83.0158 132.711 80.2261
82.6373 132.262 79.8118
82.2727 131.576 80.8995
82.6343 131.441 79.4073
83.0857 132.498 78.7714
83.6307 133.732 79.7224
82.9644 133.366 80.4977
81.7603 130.711 81.9531
81.5923 130.217 81.5653
83.5222 133.722 78.3724
83.9853 134.291 78.7481
84.0149 134.707 77.854
84.3264 134.907 79.0979
83.341 133.134 77.7478
84.5491 134.787 76.7674
84.8982 135.304 77.1916
82.8113 133.336 81.3115
81.9258 132.012 81.9391
82.3791 133.061 82.184
81.3653 130.613 82.7438
83.171 134.455 80.5521
82.4404 134.015 82.3157
81.8136 132.871 82.899
81.6849 129.795 80.9548
82.1164 130.439 79.9027
81.7674 129.264 80.2588
82.2676 130.99 78.9118
81.0699 129.119 82.0118
81.0121 128.377 80.6748
81.5983 128.683 79.6207
82.7617 132.515 76.759
83.2455 132.773 75.9157
82.216 131.925 76.2829
83.4452 133.374 74.9531
83.8748 133.793 75.258
83.0995 132.776 77.2079
82.6317 131.857 77.7109
81.9287 130.529 76.9266
82.2194 131.165 75.9517
84.229 134.224 75.4897
83.5963 133.764 76.6761
84.1874 134.537 76.1388
84.7006 134.92 74.3834
84.6312 135.452 75.5271
82.1915 130.652 78.1739
81.6742 130.106 77.7469
81.742 129.497 78.6233
81.1915 129.211 77.5686
81.1651 128.1 79.3122
82.5128 131.301 75.4157
83.235 132.741 74.8563
82.8181 132.073 74.5853
83.9273 134.118 73.8755
81.7572 130.293 75.893
82.7087 131.427 74.3139
83.4256 132.734 73.7875
79.4916 134.275 76.4616
79.8956 134.588 75.4922
80.2201 135.371 75.8591
80.2885 134.908 74.7082
79.5658 133.764 75.1602
78.7827 133.085 76.9054
79.3407 133.569 77.3835
80.5128 135.989 76.3792
80.7117 136.448 75.3806
78.9619 132.739 75.6107
78.482 132.354 76.4341
78.2936 131.747 75.8687
78.4294 132.223 77.2945
79.2729 133.046 74.7057
78.3206 130.986 75.4142
78.4366 130.539 76.3522
79.6373 134.713 77.6169
80.0073 135.962 77.2376
79.6663 135.507 78.128
80.5296 136.849 76.8489
78.8985 133.472 78.2177
79.317 135.075 79.0542
80.1074 136.203 78.6441
80.8417 137.046 74.5122
80.9477 136.313 74.1216
81.1143 137.413 73.832
80.7872 135.414 73.9196
80.9337 137.736 74.9328
81.4303 138.474 73.3226
81.5324 137.805 72.9803
80.1792 133.914 73.0751
79.843 132.95 72.8135
80.9647 134.397 72.4615
79.7114 131.845 72.6898
79.0779 131.537 73.3188
79.8086 133.391 73.9996
80.678 134.771 73.5079
81.9644 135.73 72.0233
81.4057 134.531 72.035
78.6064 131.281 73.8832
78.8456 132.176 74.1567
78.3986 131.001 74.5728
78.4335 130.309 73.7229
78.2126 130.024 75.2085
81.1174 135.93 73.0448
81.9032 136.493 72.3031
81.6367 137.147 72.5753
82.5426 136.993 71.6201
82.1716 138.197 72.1329
81.31 133.732 71.8522
80.2836 132.257 72.1711
81.1121 132.986 71.8191
79.5374 130.904 72.8463
82.3486 135.296 71.3949
81.7746 133.374 71.3958
80.8467 131.942 71.6911
85.9487 139.41 73.724
86.2069 140.117 72.5558
86.4182 139.19 72.7539
86.7063 141.057 71.8008
85.8679 140.983 72.5509
85.3577 139.288 74.675
85.5744 138.696 74.7405
86.7584 138.313 73.0609
87.2131 138.964 72.1021
85.2269 140.929 73.4024
84.8797 139.913 74.5663
84.5509 140.531 74.8748
84.8159 139.41 75.8107
85.3115 141.611 72.5427
84.0042 141.06 75.0435
84.1484 140.864 76.1047
85.552 137.935 74.8271
85.886 137.594 73.8893
85.544 137.039 75.0999
86.495 137.276 73.1219
85.1995 138.049 75.8188
84.9949 136.474 76.1319
85.1023 136.379 75.0947
87.4264 139.513 71.188
86.9479 140.73 70.9758
87.5887 139.891 70.304
86.5166 141.782 70.8109
87.6062 138.394 71.4566
88.0789 139.18 69.7721
87.4812 140.295 69.376
84.8667 142.832 71.1172
83.7427 142.32 71.9725
84.372 142.004 70.6825
83.2343 141.745 72.6923
83.3068 142.436 73.131
85.3139 142.425 71.8942
85.9035 142.819 70.823
84.8196 141.559 69.7704
84.3384 141.022 70.6902
83.6794 142.962 73.6412
84.4368 142.117 73.108
83.9094 141.726 74.2955
83.0421 142.085 74.3017
83.4525 141.858 75.8482
86.1719 141.953 69.8596
85.6924 141.544 69.1323
86.4995 140.824 69.1848
85.2485 140.657 69.0864
87.091 139.67 68.6953
83.8049 140.607 71.4346
83.1351 141.052 72.1606
82.8099 140.181 72.0094
82.524 140.888 73.2564
84.1404 140.048 70.739
82.6947 139.23 71.8847
82.318 139.308 72.7641
79.0543 122.272 81.5141
79.3828 123.36 82.5453
79.4701 123.187 81.0456
79.8755 124.474 82.8755
79.2921 123.717 83.8735
78.0959 122.556 81.254
78.469 121.845 79.8588
79.4659 123.417 79.5644
79.6252 124.179 80.3267
78.2391 124.303 83.873
77.9655 123.747 82.425
78.2051 125.176 83.1731
78.0007 123.602 80.8648
79.0138 125.169 84.944
78.4339 126.231 83.5248
78.2388 125.823 82.1869
78.8068 121.824 78.4855
79.4569 123.013 78.3808
78.935 122.487 77.1855
79.462 124.174 78.1167
77.9757 122.062 78.3717
78.376 122.244 75.864
79.0653 123.599 76.1731
79.9469 125.088 80.6828
80.041 125.163 81.8002
80.0263 126.361 80.7697
80.1389 125.388 83.0038
80.0459 125.104 79.624
80.5483 127.089 79.8475
80.2713 127.123 81.0029
78.0012 125.561 78.3434
77.9329 124.336 78.5174
77.9098 125.105 77.409
77.7446 123.1 78.4588
77.9217 123.741 79.6548
78.1987 126.316 79.2015
78.2062 126.811 78.2319
77.9917 125.877 76.5059
77.6795 124.635 76.362
77.9474 124.67 80.588
78.0727 126.107 80.1619
78.1409 125.809 81.1818
78.224 127.325 79.9569
78.4204 126.792 81.9264
78.077 127.635 77.4757
78.3075 127.239 76.5649
78.5663 128.38 76.6402
78.4029 126.803 75.6877
78.2505 128.18 78.2658
78.31 129.478 76.7149
78.2196 129.101 75.8395
77.728 123.727 76.1356
77.626 122.773 77.4147
77.4395 122.616 75.7854
77.7162 124.514 75.1195
77.7457 122.986 74.58
84.1275 137.632 79.2835
84.4168 137.68 77.9431
84.286 136.728 79.0285
84.7783 137.884 77.0218
84.5512 138.708 77.1293
83.7462 138.326 79.5413
83.4977 137.484 80.2616
83.9295 135.786 79.7949
84.51 135.781 79.0369
84.4627 139.515 77.0332
83.9146 139.347 78.2251
83.9729 140.06 77.0577
83.3479 136.606 81.0682
83.5254 135.547 80.6983
82.9493 135.31 81.5877
84.6752 136.024 78.1167
85.0505 137.303 76.92
84.9403 136.327 77.088
86.8973 136.49 71.7281
86.9134 136.032 71.2892
86.2277 135.88 72.3793
86.6142 135.986 70.7145
88.0614 136.03 70.5112
87.4109 137.408 71.5661
87.0511 136.889 72.6502
85.4356 135.459 73.2803
84.9152 135.309 72.9855
88.6869 136.81 70.1675
88.2372 137.676 70.9007
88.9244 138.203 69.8455
86.2136 136.493 73.6055
85.4124 135.858 73.8026
85.0446 136.142 74.3137
84.1624 135.249 72.6548
84.557 136.059 71.7087
83.8501 134.32 72.8021
80.3709 128.446 84.8362
80.3807 128.393 83.8455
80.2774 126.953 84.431
80.6825 128.481 82.84
81.0865 129.632 83.5448
80.8164 129.952 84.9221
80.1217 128.583 85.6291
79.856 125.89 85.0779
80.0917 126.022 83.6793
81.3025 130.877 83.4709
81.4096 130.982 84.7898
81.4255 131.924 83.5733
78.9868 127.92 85.0474
79.0532 126.329 85.7375
78.3981 127.038 84.2793
80.3725 126.782 82.644
80.8157 128.151 82.2534
80.5776 127.727 81.5244
80.4188 127.851 76.7885
80.0576 127.119 76.4341
80.1025 126.379 77.4783
79.9541 126.488 75.8005
80.2235 127.573 75.6258
80.9704 129.177 76.4007
80.7905 128.345 77.2919
80.0126 125.667 78.62
79.7532 125.089 77.8802
81.2814 129.268 75.0307
81.5406 129.805 75.3697
81.839 130.746 74.4221
80.7326 128.086 77.9957
80.2058 126.675 78.7751
80.5147 127.661 79.0046
79.4744 124.787 76.9438
79.6119 125.363 75.7501
79.3136 124.473 75.8935
81.5401 139.761 76.6086
81.2012 138.999 75.8844
81.7741 140.147 75.4878
81.013 138.426 75.3424
80.9729 137.96 76.2647
81.2131 139.122 77.7896
81.8294 140.084 77.4167
82.4887 141.029 75.0201
82.0496 140.601 74.3306
80.802 137.819 77.2078
80.897 138.256 77.9767
80.5003 137.246 78.2431
82.3528 140.95 76.8105
82.8462 141.403 75.5488
82.8642 142.092 76.3498
81.7873 140.11 73.7579
81.2374 139.147 74.3773
81.6471 139.386 73.4177
83.7026 137.524 70.0384
84.5267 137.556 69.3829
84.3493 138.636 69.6941
85.2892 137.301 69.0396
84.403 136.606 69.352
83.0192 136.558 70.5527
83.156 137.331 70.8375
84.2489 139.377 70.0549
84.9317 139.522 69.4669
83.4497 135.712 70.0084
82.8694 135.646 70.5998
82.681 134.636 70.8489
83.0874 138.149 71.0004
83.741 139.12 70.847
82.9358 138.692 71.4142
85.5004 139.567 68.8095
85.759 138.237 68.8698
86.3759 139.116 68.6933
78.5697 130.989 79.1758
78.5607 130.615 80.0912
78.4781 129.756 79.5063
78.6205 130.345 81.1022
78.6873 131.6 80.8348
78.6757 132.141 78.8903
78.6702 131.313 78.2876
78.1691 128.862 78.9311
78.2257 128.508 79.7414
78.8134 132.689 80.1258
78.7675 133.239 79.0249
78.8129 134.008 79.5096
78.3719 130.823 77.7359
78.3649 129.531 78.0703
78.3232 130.047 77.2212
78.2349 128.218 80.5919
78.4886 129.213 81.294
78.4625 127.958 81.5188
78.6039 127.738 73.1414
78.3202 128.519 73.0837
78.3946 127.291 73.9681
78.1471 129.13 73.3407
79.0297 129.85 73.0125
79.2913 128.821 72.6117
78.9599 126.868 72.9881
78.1552 125.953 74.6862
78.2736 126.988 74.9849
79.8942 130.446 72.4829
79.9229 129.649 72.3917
80.6176 131.181 72.0804
78.924 125.637 73.4181
78.0235 125.076 74.2661
77.9353 124.22 73.7462
78.5714 128.219 74.857
78.1309 129.146 74.0263
78.0708 129.189 74.9975
POLYGONS 1280  5120
3 164 162 163
3 163 44 164
3 162 43 163
3 164 42 162
3 166 165 163
3 163 43 166
3 165 44 163
3 166 14 165
3 168 167 162
3 162 42 168
3 167 43 162
3 168 13 167
3 170 169 164
3 164 44 170
3 169 42 164
3 170 12 169
3 173 171 172
3 172 46 173
3 171 43 172
3 173 45 171
3 167 174 172
3 172 43 167
3 174 46 172
3 167 13 174
3 175 166 171
3 171 45 175
3 166 43 171
3 175 14 166
3 177 176 173
3 173 46 177
3 176 45 173
3 177 4 176
3 180 178 179
3 179 48 180
3 178 42 179
3 180 47 178
3 169 181 179
3 179 42 169
3 181 48 179
3 169 12 181
3 182 168 178
3 178 47 182
3 168 42 178
3 182 13 168
3 184 183 180
3 180 48 184
3 183 47 180
3 184 8 183
3 187 185 186
3 186 50 187
3 185 44 186
3 187 49 185
3 165 188 186
3 186 44 165
3 188 50 186
3 165 14 188
3 189 170 185
3 185 49 189
3 170 44 185
3 189 12 170
3 191 190 187
3 187 50 191
3 190 49 187
3 191 7 190
3 194 192 193
3 193 53 194
3 192 52 193
3 194 51 192
3 196 195 193
3 193 52 196
3 195 53 193
3 196 16 195
3 198 197 192
3 192 51 198
3 197 52 192
3 198 14 197
3 200 199 194
3 194 53 200
3 199 51 194
3 200 15 199
3 203 201 202
3 202 45 203
3 201 52 202
3 203 54 201
3 197 175 202
3 202 52 197
3 175 45 202
3 197 14 175
3 204 196 201
3 201 54 204
3 196 52 201
3 204 16 196
3 176 205 203
3 203 45 176
3 205 54 203
3 176 4 205
3 208 206 207
3 207 55 208
3 206 51 207
3 208 50 206
3 199 209 207
3 207 51 199
3 209 55 207
3 199 15 209
3 188 198 206
3 206 50 188
3 198 51 206
3 188 14 198
3 210 191 208
3 208 55 210
3 191 50 208
3 210 7 191
3 213 211 212
3 212 57 213
3 211 53 212
3 213 56 211
3 195 214 212
3 212 53 195
3 214 57 212
3 195 16 214
3 215 200 211
3 211 56 215
3 200 53 211
3 215 15 200
3 217 216 213
3 213 57 217
3 216 56 213
3 217 9 216
3 220 218 219
3 219 60 220
3 218 59 219
3 220 58 218
3 222 221 219
3 219 59 222
3 221 60 219
3 222 19 221
3 224 223 218
3 218 58 224
3 223 59 218
3 224 18 223
3 226 225 220
3 220 60 226
3 225 58 220
3 226 17 225
3 229 227 228
3 228 62 229
3 227 59 228
3 229 61 227
3 223 230 228
3 228 59 223
3 230 62 228
3 223 18 230
3 231 222 227
3 227 61 231
3 222 59 227
3 231 19 222
3 233 232 229
3 229 62 233
3 232 61 229
3 233 5 232
3 236 234 235
3 235 64 236
3 234 58 235
3 236 63 234
3 225 237 235
3 235 58 225
3 237 64 235
3 225 17 237
3 238 224 234
3 234 63 238
3 224 58 234
3 238 18 224
3 240 239 236
3 236 64 240
3 239 63 236
3 240 6 239
3 243 241 242
3 242 66 243
3 241 60 242
3 243 65 241
3 221 244 242
3 242 60 221
3 244 66 242
3 221 19 244
3 245 226 241
3 241 65 245
3 226 60 241
3 245 17 226
3 247 246 243
3 243 66 247
3 246 65 243
3 247 11 246
3 250 248 249
3 249 69 250
3 248 68 249
3 250 67 248
3 252 251 249
3 249 68 252
3 251 69 249
3 252 18 251
3 254 253 248
3 248 67 254
3 253 68 248
3 254 21 253
3 256 255 250
3 250 69 256
3 255 67 250
3 256 20 255
3 259 257 258
3 258 70 259
3 257 68 258
3 259 62 257
3 253 260 258
3 258 68 253
3 260 70 258
3 253 21 260
3 230 252 257
3 257 62 230
3 252 68 257
3 230 18 252
3 261 233 259
3 259 70 261
3 233 62 259
3 261 5 233
3 264 262 263
3 263 72 264
3 262 67 263
3 264 71 262
3 255 265 263
3 263 67 255
3 265 72 263
3 255 20 265
3 266 254 262
3 262 71 266
3 254 67 262
3 266 21 254
3 268 267 264
3 264 72 268
3 267 71 264
3 268 10 267
3 271 269 270
3 270 63 271
3 269 69 270
3 271 73 269
3 251 238 270
3 270 69 251
3 238 63 270
3 251 18 238
3 272 256 269
3 269 73 272
3 256 69 269
3 272 20 256
3 239 273 271
3 271 63 239
3 273 73 271
3 239 6 273
3 276 274 275
3 275 76 276
3 274 75 275
3 276 74 274
3 278 277 275
3 275 75 278
3 277 76 275
3 278 24 277
3 280 279 274
3 274 74 280
3 279 75 274
3 280 23 279
3 282 281 276
3 276 76 282
3 281 74 276
3 282 22 281
3 285 283 284
3 284 78 285
3 283 75 284
3 285 77 283
3 279 286 284
3 284 75 279
3 286 78 284
3 279 23 286
3 287 278 283
3 283 77 287
3 278 75 283
3 287 24 278
3 289 288 285
3 285 78 289
3 288 77 285
3 289 0 288
3 292 290 291
3 291 80 292
3 290 74 291
3 292 79 290
3 281 293 291
3 291 74 281
3 293 80 291
3 281 22 293
3 294 280 290
3 290 79 294
3 280 74 290
3 294 23 280
3 296 295 292
3 292 80 296
3 295 79 292
3 296 4 295
3 299 297 298
3 298 82 299
3 297 76 298
3 299 81 297
3 277 300 298
3 298 76 277
3 300 82 298
3 277 24 300
3 301 282 297
3 297 81 301
3 282 76 297
3 301 22 282
3 303 302 299
3 299 82 303
3 302 81 299
3 303 3 302
3 306 304 305
3 305 85 306
3 304 84 305
3 306 83 304
3 308 307 305
3 305 84 308
3 307 85 305
3 308 26 307
3 310 309 304
3 304 83 310
3 309 84 304
3 310 24 309
3 312 311 306
3 306 85 312
3 311 83 306
3 312 25 311
3 315 313 314
3 314 77 315
3 313 84 314
3 315 86 313
3 309 287 314
3 314 84 309
3 287 77 314
3 309 24 287
3 316 308 313
3 313 86 316
3 308 84 313
3 316 26 308
3 288 317 315
3 315 77 288
3 317 86 315
3 288 0 317
3 320 318 319
3 319 87 320
3 318 83 319
3 320 82 318
3 311 321 319
3 319 83 311
3 321 87 319
3 311 25 321
3 300 310 318
3 318 82 300
3 310 83 318
3 300 24 310
3 322 303 320
3 320 87 322
3 303 82 320
3 322 3 303
3 325 323 324
3 324 89 325
3 323 85 324
3 325 88 323
3 307 326 324
3 324 85 307
3 326 89 324
3 307 26 326
3 327 312 323
3 323 88 327
3 312 85 323
3 327 25 312
3 329 328 325
3 325 89 329
3 328 88 325
3 329 5 328
3 332 330 331
3 331 92 332
3 330 91 331
3 332 90 330
3 334 333 331
3 331 91 334
3 333 92 331
3 334 29 333
3 336 335 330
3 330 90 336
3 335 91 330
3 336 28 335
3 338 337 332
3 332 92 338
3 337 90 332
3 338 27 337
3 341 339 340
3 340 94 341
3 339 91 340
3 341 93 339
3 335 342 340
3 340 91 335
3 342 94 340
3 335 28 342
3 343 334 339
3 339 93 343
3 334 91 339
3 343 29 334
3 345 344 341
3 341 94 345
3 344 93 341
3 345 2 344
3 348 346 347
3 347 96 348
3 346 90 347
3 348 95 346
3 337 349 347
3 347 90 337
3 349 96 347
3 337 27 349
3 350 336 346
3 346 95 350
3 336 90 346
3 350 28 336
3 352 351 348
3 348 96 352
3 351 95 348
3 352 7 351
3 355 353 354
3 354 98 355
3 353 92 354
3 355 97 353
3 333 356 354
3 354 92 333
3 356 98 354
3 333 29 356
3 357 338 353
3 353 97 357
3 338 92 353
3 357 27 338
3 359 358 355
3 355 98 359
3 358 97 355
3 359 1 358
3 362 360 361
3 361 101 362
3 360 100 361
3 362 99 360
3 364 363 361
3 361 100 364
3 363 101 361
3 364 31 363
3 366 365 360
3 360 99 366
3 365 100 360
3 366 29 365
3 368 367 362
3 362 101 368
3 367 99 362
3 368 30 367
3 371 369 370
3 370 93 371
3 369 100 370
3 371 102 369
3 365 343 370
3 370 100 365
3 343 93 370
3 365 29 343
3 372 364 369
3 369 102 372
3 364 100 369
3 372 31 364
3 344 373 371
3 371 93 344
3 373 102 371
3 344 2 373
3 376 374 375
3 375 103 376
3 374 99 375
3 376 98 374
3 367 377 375
3 375 99 367
3 377 103 375
3 367 30 377
3 356 366 374
3 374 98 356
3 366 99 374
3 356 29 366
3 378 359 376
3 376 103 378
3 359 98 376
3 378 1 359
3 381 379 380
3 380 105 381
3 379 101 380
3 381 104 379
3 363 382 380
3 380 101 363
3 382 105 380
3 363 31 382
3 383 368 379
3 379 104 383
3 368 101 379
3 383 30 368
3 385 384 381
3 381 105 385
3 384 104 381
3 385 6 384
3 388 386 387
3 387 108 388
3 386 107 387
3 388 106 386
3 390 389 387
3 387 107 390
3 389 108 387
3 390 34 389
3 392 391 386
3 386 106 392
3 391 107 386
3 392 33 391
3 394 393 388
3 388 108 394
3 393 106 388
3 394 32 393
3 397 395 396
3 396 110 397
3 395 107 396
3 397 109 395
3 391 398 396
3 396 107 391
3 398 110 396
3 391 33 398
3 399 390 395
3 395 109 399
3 390 107 395
3 399 34 390
3 401 400 397
3 397 110 401
3 400 109 397
3 401 8 400
3 404 402 403
3 403 112 404
3 402 106 403
3 404 111 402
3 393 405 403
3 403 106 393
3 405 112 403
3 393 32 405
3 406 392 402
3 402 111 406
3 392 106 402
3 406 33 392
3 408 407 404
3 404 112 408
3 407 111 404
3 408 0 407
3 411 409 410
3 410 114 411
3 409 108 410
3 411 113 409
3 389 412 410
3 410 108 389
3 412 114 410
3 389 34 412
3 413 394 409
3 409 113 413
3 394 108 409
3 413 32 394
3 415 414 411
3 411 114 415
3 414 113 411
3 415 11 414
3 418 416 417
3 417 117 418
3 416 116 417
3 418 115 416
3 420 419 417
3 417 116 420
3 419 117 417
3 420 36 419
3 422 421 416
3 416 115 422
3 421 116 416
3 422 34 421
3 424 423 418
3 418 117 424
3 423 115 418
3 424 35 423
3 427 425 426
3 426 109 427
3 425 116 426
3 427 118 425
3 421 399 426
3 426 116 421
3 399 109 426
3 421 34 399
3 428 420 425
3 425 118 428
3 420 116 425
3 428 36 420
3 400 429 427
3 427 109 400
3 429 118 427
3 400 8 429
3 432 430 431
3 431 119 432
3 430 115 431
3 432 114 430
3 423 433 431
3 431 115 423
3 433 119 431
3 423 35 433
3 412 422 430
3 430 114 412
3 422 115 430
3 412 34 422
3 434 415 432
3 432 119 434
3 415 114 432
3 434 11 415
3 437 435 436
3 436 121 437
3 435 117 436
3 437 120 435
3 419 438 436
3 436 117 419
3 438 121 436
3 419 36 438
3 439 424 435
3 435 120 439
3 424 117 435
3 439 35 424
3 441 440 437
3 437 121 441
3 440 120 437
3 441 1 440
3 444 442 443
3 443 124 444
3 442 123 443
3 444 122 442
3 446 445 443
3 443 123 446
3 445 124 443
3 446 39 445
3 448 447 442
3 442 122 448
3 447 123 442
3 448 38 447
3 450 449 444
3 444 124 450
3 449 122 444
3 450 37 449
3 453 451 452
3 452 126 453
3 451 123 452
3 453 125 451
3 447 454 452
3 452 123 447
3 454 126 452
3 447 38 454
3 455 446 451
3 451 125 455
3 446 123 451
3 455 39 446
3 457 456 453
3 453 126 457
3 456 125 453
3 457 9 456
3 460 458 459
3 459 128 460
3 458 122 459
3 460 127 458
3 449 461 459
3 459 122 449
3 461 128 459
3 449 37 461
3 462 448 458
3 458 127 462
3 448 122 458
3 462 38 448
3 464 463 460
3 460 128 464
3 463 127 460
3 464 10 463
3 467 465 466
3 466 130 467
3 465 124 466
3 467 129 465
3 445 468 466
3 466 124 445
3 468 130 466
3 445 39 468
3 469 450 465
3 465 129 469
3 450 124 465
3 469 37 450
3 471 470 467
3 467 130 471
3 470 129 467
3 471 3 470
3 474 472 473
3 473 133 474
3 472 132 473
3 474 131 472
3 476 475 473
3 473 132 476
3 475 133 473
3 476 38 475
3 478 477 472
3 472 131 478
3 477 132 472
3 478 41 477
3 480 479 474
3 474 133 480
3 479 131 474
3 480 40 479
3 483 481 482
3 482 134 483
3 481 132 482
3 483 126 481
3 477 484 482
3 482 132 477
3 484 134 482
3 477 41 484
3 454 476 481
3 481 126 454
3 476 132 481
3 454 38 476
3 485 457 483
3 483 134 485
3 457 126 483
3 485 9 457
3 488 486 487
3 487 136 488
3 486 131 487
3 488 135 486
3 479 489 487
3 487 131 479
3 489 136 487
3 479 40 489
3 490 478 486
3 486 135 490
3 478 131 486
3 490 41 478
3 492 491 488
3 488 136 492
3 491 135 488
3 492 2 491
3 495 493 494
3 494 127 495
3 493 133 494
3 495 137 493
3 475 462 494
3 494 133 475
3 462 127 494
3 475 38 462
3 496 480 493
3 493 137 496
3 480 133 493
3 496 40 480
3 463 497 495
3 495 127 463
3 497 137 495
3 463 10 497
3 500 498 499
3 499 140 500
3 498 139 499
3 500 138 498
3 502 501 499
3 499 139 502
3 501 140 499
3 502 33 501
3 504 503 498
3 498 138 504
3 503 139 498
3 504 13 503
3 506 505 500
3 500 140 506
3 505 138 500
3 506 23 505
3 509 507 508
3 508 47 509
3 507 139 508
3 509 110 507
3 503 182 508
3 508 139 503
3 182 47 508
3 503 13 182
3 398 502 507
3 507 110 398
3 502 139 507
3 398 33 502
3 183 401 509
3 509 47 183
3 401 110 509
3 183 8 401
3 512 510 511
3 511 79 512
3 510 138 511
3 512 46 510
3 505 294 511
3 511 138 505
3 294 79 511
3 505 23 294
3 174 504 510
3 510 46 174
3 504 138 510
3 174 13 504
3 295 177 512
3 512 79 295
3 177 46 512
3 295 4 177
3 515 513 514
3 514 111 515
3 513 140 514
3 515 78 513
3 501 406 514
3 514 140 501
3 406 111 514
3 501 33 406
3 286 506 513
3 513 78 286
3 506 140 513
3 286 23 506
3 407 289 515
3 515 111 407
3 289 78 515
3 407 0 289
3 518 516 517
3 517 143 518
3 516 142 517
3 518 141 516
3 520 519 517
3 517 142 520
3 519 143 517
3 520 19 519
3 522 521 516
3 516 141 522
3 521 142 516
3 522 32 521
3 524 523 518
3 518 143 524
3 523 141 518
3 524 26 523
3 527 525 526
3 526 113 527
3 525 142 526
3 527 66 525
3 521 413 526
3 526 142 521
3 413 113 526
3 521 32 413
3 244 520 525
3 525 66 244
3 520 142 525
3 244 19 520
3 414 247 527
3 527 113 414
3 247 66 527
3 414 11 247
3 530 528 529
3 529 86 530
3 528 141 529
3 530 112 528
3 523 316 529
3 529 141 523
3 316 86 529
3 523 26 316
3 405 522 528
3 528 112 405
3 522 141 528
3 405 32 522
3 317 408 530
3 530 86 317
3 408 112 530
3 317 0 408
3 533 531 532
3 532 61 533
3 531 143 532
3 533 89 531
3 519 231 532
3 532 143 519
3 231 61 532
3 519 19 231
3 326 524 531
3 531 89 326
3 524 143 531
3 326 26 524
3 232 329 533
3 533 61 232
3 329 89 533
3 232 5 329
3 536 534 535
3 535 146 536
3 534 145 535
3 536 144 534
3 538 537 535
3 535 145 538
3 537 146 535
3 538 22 537
3 540 539 534
3 534 144 540
3 539 145 534
3 540 16 539
3 542 541 536
3 536 146 542
3 541 144 536
3 542 39 541
3 545 543 544
3 544 54 545
3 543 145 544
3 545 80 543
3 539 204 544
3 544 145 539
3 204 54 544
3 539 16 204
3 293 538 543
3 543 80 293
3 538 145 543
3 293 22 538
3 205 296 545
3 545 54 205
3 296 80 545
3 205 4 296
3 548 546 547
3 547 125 548
3 546 144 547
3 548 57 546
3 541 455 547
3 547 144 541
3 455 125 547
3 541 39 455
3 214 540 546
3 546 57 214
3 540 144 546
3 214 16 540
3 456 217 548
3 548 125 456
3 217 57 548
3 456 9 217
3 551 549 550
3 550 81 551
3 549 146 550
3 551 130 549
3 537 301 550
3 550 146 537
3 301 81 550
3 537 22 301
3 468 542 549
3 549 130 468
3 542 146 549
3 468 39 542
3 302 471 551
3 551 81 302
3 471 130 551
3 302 3 471
3 554 552 553
3 553 149 554
3 552 148 553
3 554 147 552
3 556 555 553
3 553 148 556
3 555 149 553
3 556 21 555
3 558 557 552
3 552 147 558
3 557 148 552
3 558 25 557
3 560 559 554
3 554 149 560
3 559 147 554
3 560 37 559
3 563 561 562
3 562 88 563
3 561 148 562
3 563 70 561
3 557 327 562
3 562 148 557
3 327 88 562
3 557 25 327
3 260 556 561
3 561 70 260
3 556 148 561
3 260 21 556
3 328 261 563
3 563 88 328
3 261 70 563
3 328 5 261
3 566 564 565
3 565 129 566
3 564 147 565
3 566 87 564
3 559 469 565
3 565 147 559
3 469 129 565
3 559 37 469
3 321 558 564
3 564 87 321
3 558 147 564
3 321 25 558
3 470 322 566
3 566 129 470
3 322 87 566
3 470 3 322
3 569 567 568
3 568 71 569
3 567 149 568
3 569 128 567
3 555 266 568
3 568 149 555
3 266 71 568
3 555 21 266
3 461 560 567
3 567 128 461
3 560 149 567
3 461 37 560
3 267 464 569
3 569 71 267
3 464 128 569
3 267 10 464
3 572 570 571
3 571 152 572
3 570 151 571
3 572 150 570
3 574 573 571
3 571 151 574
3 573 152 571
3 574 27 573
3 576 575 570
3 570 150 576
3 575 151 570
3 576 12 575
3 578 577 572
3 572 152 578
3 577 150 572
3 578 36 577
3 581 579 580
3 580 49 581
3 579 151 580
3 581 96 579
3 575 189 580
3 580 151 575
3 189 49 580
3 575 12 189
3 349 574 579
3 579 96 349
3 574 151 579
3 349 27 574
3 190 352 581
3 581 49 190
3 352 96 581
3 190 7 352
3 584 582 583
3 583 118 584
3 582 150 583
3 584 48 582
3 577 428 583
3 583 150 577
3 428 118 583
3 577 36 428
3 181 576 582
3 582 48 181
3 576 150 582
3 181 12 576
3 429 184 584
3 584 118 429
3 184 48 584
3 429 8 184
3 587 585 586
3 586 97 587
3 585 152 586
3 587 121 585
3 573 357 586
3 586 152 573
3 357 97 586
3 573 27 357
3 438 578 585
3 585 121 438
3 578 152 585
3 438 36 578
3 358 441 587
3 587 97 358
3 441 121 587
3 358 1 441
3 590 588 589
3 589 155 590
3 588 154 589
3 590 153 588
3 592 591 589
3 589 154 592
3 591 155 589
3 592 17 591
3 594 593 588
3 588 153 594
3 593 154 588
3 594 30 593
3 596 595 590
3 590 155 596
3 595 153 590
3 596 35 595
3 599 597 598
3 598 104 599
3 597 154 598
3 599 64 597
3 593 383 598
3 598 154 593
3 383 104 598
3 593 30 383
3 237 592 597
3 597 64 237
3 592 154 597
3 237 17 592
3 384 240 599
3 599 104 384
3 240 64 599
3 384 6 240
3 602 600 601
3 601 120 602
3 600 153 601
3 602 103 600
3 595 439 601
3 601 153 595
3 439 120 601
3 595 35 439
3 377 594 600
3 600 103 377
3 594 153 600
3 377 30 594
3 440 378 602
3 602 120 440
3 378 103 602
3 440 1 378
3 605 603 604
3 604 65 605
3 603 155 604
3 605 119 603
3 591 245 604
3 604 155 591
3 245 65 604
3 591 17 245
3 433 596 603
3 603 119 433
3 596 155 603
3 433 35 596
3 246 434 605
3 605 65 246
3 434 119 605
3 246 11 434
3 608 606 607
3 607 158 608
3 606 157 607
3 608 156 606
3 610 609 607
3 607 157 610
3 609 158 607
3 610 15 609
3 612 611 606
3 606 156 612
3 611 157 606
3 612 28 611
3 614 613 608
3 608 158 614
3 613 156 608
3 614 41 613
3 617 615 616
3 616 95 617
3 615 157 616
3 617 55 615
3 611 350 616
3 616 157 611
3 350 95 616
3 611 28 350
3 209 610 615
3 615 55 209
3 610 157 615
3 209 15 610
3 351 210 617
3 617 95 351
3 210 55 617
3 351 7 210
3 620 618 619
3 619 135 620
3 618 156 619
3 620 94 618
3 613 490 619
3 619 156 613
3 490 135 619
3 613 41 490
3 342 612 618
3 618 94 342
3 612 156 618
3 342 28 612
3 491 345 620
3 620 135 491
3 345 94 620
3 491 2 345
3 623 621 622
3 622 56 623
3 621 158 622
3 623 134 621
3 609 215 622
3 622 158 609
3 215 56 622
3 609 15 215
3 484 614 621
3 621 134 484
3 614 158 621
3 484 41 614
3 216 485 623
3 623 56 216
3 485 134 623
3 216 9 485
3 626 624 625
3 625 161 626
3 624 160 625
3 626 159 624
3 628 627 625
3 625 160 628
3 627 161 625
3 628 31 627
3 630 629 624
3 624 159 630
3 629 160 624
3 630 20 629
3 632 631 626
3 626 161 632
3 631 159 626
3 632 40 631
3 635 633 634
3 634 73 635
3 633 160 634
3 635 105 633
3 629 272 634
3 634 160 629
3 272 73 634
3 629 20 272
3 382 628 633
3 633 105 382
3 628 160 633
3 382 31 628
3 273 385 635
3 635 73 273
3 385 105 635
3 273 6 385
3 638 636 637
3 637 137 638
3 636 159 637
3 638 72 636
3 631 496 637
3 637 159 631
3 496 137 637
3 631 40 496
3 265 630 636
3 636 72 265
3 630 159 636
3 265 20 630
3 497 268 638
3 638 137 497
3 268 72 638
3 497 10 268
3 641 639 640
3 640 102 641
3 639 161 640
3 641 136 639
3 627 372 640
3 640 161 627
3 372 102 640
3 627 31 372
3 489 632 639
3 639 136 489
3 632 161 639
3 489 40 632
3 373 492 641
3 641 102 373
3 492 136 641
3 373 2 492
