# vtk DataFile Version 3.0
this file was written using fslvtkio
ASCII
DATASET POLYDATA
POINTS 642 float
154.72 93.0474 118.547
154.474 95.4705 118.6
155.152 93.8781 119.997
154.86 92.5606 120.975
156.231 92.9169 119.326
153.726 93.1371 119.655
154.589 93.6862 119.413
156.079 93.2 118.676
155.673 94.1877 117.505
156.359 93.4651 120.832
154.316 92.9709 121.525
153.49 94.7328 118.482
155.941 94.1263 118.427
156.255 92.9093 118.216
156.574 93.0062 119.132
156.351 93.4162 119.926
157.071 92.8789 119.647
154.081 94.1491 119.054
154.193 93.4264 119.577
154.207 93.9209 119.062
154.631 92.8728 120.282
153.767 93.1837 120.921
155.444 93.0068 119.663
155.532 92.7467 118.806
154.797 93.0362 119.733
154.597 92.7844 120.08
154.147 93.0832 119.228
155.241 94.6153 119.305
155.499 93.4747 119.521
155.092 94.7706 119.408
154.21 95.0501 119.374
154.943 93.1965 119.252
154.409 93.617 118.506
155.529 93.3391 117.791
154.449 94.9215 117.591
153.496 96.1921 118.77
155.334 95.4636 117.914
154.234 92.8681 121.728
154.987 93.1583 122.289
155.812 92.9164 120.568
155.016 92.9825 120.898
155.694 93.7942 120.904
156.276 93.4566 118.414
156.439 93.033 118.688
156.134 93.3677 118.551
156.551 92.8825 119.157
156.603 92.4315 118.609
155.835 93.8303 118.101
156.066 94.0654 117.758
155.95 93.546 118.828
156.273 92.989 118.758
156.523 92.7405 119.5
156.859 92.779 119.572
156.987 93.1111 120.14
156.635 92.6668 119.453
156.485 93.2379 119.183
156.738 93.5031 120.674
156.908 92.9352 120.528
154.35 93.762 119.338
154.163 93.6776 119.33
154.095 94.2534 118.851
153.744 93.136 119.347
154.016 93.2235 119.528
154.32 93.7474 119.472
154.259 94.1647 119.255
153.666 94.8496 118.562
153.61 94.2772 118.521
154.222 93.1161 120.794
154.355 93.1495 120.148
154.721 92.9732 119.722
154.197 93.1282 119.969
154.024 92.9039 121.44
154.49 92.9188 121.001
154.831 93.2333 119.209
155.513 93.1173 119.321
155.054 93.2219 119.485
155.04 93.0094 119.864
154.766 93.2313 119.082
155.074 93.0853 118.708
156.081 92.8443 118.849
156.044 93.0631 119.504
155.022 92.8591 120.566
154.741 92.975 120.531
154.496 92.9239 120.12
154.445 93.2805 119.517
154.168 93.0177 119.687
154.542 92.9916 118.714
154.516 92.788 121.19
154.224 93.2398 119.974
153.65 93.0139 119.659
155.53 93.9356 119.267
155.363 94.2256 119.398
155.076 94.8621 119.262
155.112 94.4873 119.82
155.331 93.7289 119.817
155.896 93.453 119.109
155.876 93.7979 118.746
154.751 94.9256 118.427
154.822 95.1814 118.916
154.505 95.3312 119.365
154.736 94.8294 119.532
154.479 94.6615 119.61
154.997 93.6282 119.709
154.349 95.3999 118.754
154.436 94.2343 119.26
154.736 93.4762 118.991
155.072 93.5373 118.018
154.967 94.0103 117.862
154.771 93.9824 118.189
155.126 94.7313 117.399
155.631 93.7458 117.197
154.964 93.4046 118.269
154.566 93.2233 118.329
154.081 94.3608 118.149
154.278 94.6921 117.966
154.004 95.9193 117.551
154.616 95.8716 117.507
154.442 96.2322 118.031
155.36 94.749 117.388
153.376 95.5094 117.945
154.092 96.148 118.664
154.787 95.5679 118.271
154.58 92.7745 122.694
155.558 92.7253 121.745
155.09 92.9291 121.902
155.667 93.0187 120.588
155.787 93.2479 121.77
154.392 92.8361 122.157
154.564 92.7121 121.671
154.663 92.3664 121.555
155.114 92.6934 121.272
155.311 93.7735 121.228
155.469 93.8665 121.787
154.898 93.6162 121.741
156.018 93.8083 121.223
155.384 93.9933 120.646
155.042 93.6886 120.459
154.54 92.9955 121.515
155.921 92.8385 118.235
155.932 93.1085 117.709
155.682 92.7753 118.229
154.003 93.3086 118.833
153.824 93.6721 118.763
153.939 93.4278 118.921
156.646 92.6262 119.466
156.14 92.8656 119.996
155.628 92.9891 120.065
154.062 92.6934 120.867
154.196 92.7867 120.574
154.198 92.6498 120.725
155.68 94.6736 117.832
155.441 94.3125 118.738
155.651 94.7542 118.299
153.743 95.6028 119.038
154.081 94.615 118.889
153.507 95.2102 118.669
155.815 93.6862 120.186
156.111 93.4211 119.608
156.095 93.5208 120.554
154.752 92.6666 120.388
154.821 92.8554 119.682
154.891 93.0069 120.099
156.442 93.0986 118.301
156.272 93.2166 118.656
156.238 93.4994 118.413
156.311 93.1581 118.78
156.377 93.0265 118.987
156.332 92.9666 118.469
156.24 93.1241 118.248
156.2 93.8836 118.207
155.972 93.7249 118.53
156.523 92.936 119.008
156.732 92.5858 118.59
156.478 92.7378 119.064
156.465 92.4235 118.389
156.611 92.9153 119.285
156.455 92.6849 119.325
156.406 92.64 119.044
155.994 93.7189 118.314
156.211 93.8517 117.977
155.825 93.9001 118.053
156.045 94.167 118.054
156.129 93.4164 118.111
155.723 93.9508 117.738
155.841 94.1297 117.55
156.027 93.4937 118.768
156.132 93.221 118.813
156.072 93.3191 118.839
156.38 92.9842 118.941
155.955 93.8301 118.713
155.916 93.3448 118.793
156.091 93.1207 118.838
156.885 92.7305 119.467
157.167 92.6735 119.797
156.929 92.813 119.75
157.137 92.9071 120.105
157.091 92.6163 119.758
156.992 92.8289 119.244
156.583 92.9629 119.306
156.605 92.7992 119.713
156.677 93.273 119.98
156.761 92.7208 119.496
156.772 92.7733 119.277
156.678 92.8818 119.358
156.849 92.4429 119.568
156.408 93.0191 119.421
156.499 92.9084 119.031
156.606 92.8861 119.223
156.433 92.8321 118.898
156.411 93.198 119.441
156.207 93.185 119.025
156.881 93.4122 120.434
157.029 93.1644 120.403
156.706 93.1288 120.674
157.02 92.9861 120.105
156.541 93.415 120.176
156.465 93.4332 120.928
156.554 93.0404 120.866
154.269 93.8021 119.267
154.183 93.9021 119.034
154.223 93.9446 119.005
154.052 94.1228 118.912
154.275 93.7669 119.1
154.297 93.4899 119.521
154.358 93.6984 119.477
154.151 93.9708 119.133
154.047 94.2075 118.943
153.954 93.392 119.294
154.166 93.3269 119.358
153.854 93.206 119.411
154.172 93.3324 119.576
154.281 93.472 119.115
153.856 93.011 119.508
153.881 93.1695 119.55
154.335 93.8902 119.475
154.299 93.9957 119.383
154.423 94.0475 119.469
154 94.1956 119.127
154.279 93.5376 119.588
154.431 93.8571 119.574
154.549 94.006 119.369
153.818 94.4993 118.733
153.932 94.4131 118.672
153.487 94.6327 118.604
153.757 94.1499 118.762
154.016 94.6006 118.736
153.45 94.9005 118.488
153.642 94.4683 118.459
154.27 93.0427 120.502
154.508 93.0356 119.962
154.528 92.9501 120.331
154.375 93.3142 119.707
154.348 93.2153 119.79
154.15 93.018 120.556
154.071 93.1617 120.863
154.44 93.1079 120.635
154.811 92.9188 119.878
154.229 93.1282 119.889
154.233 93.0992 120.086
154.203 93.1297 119.765
154.06 92.9724 120.49
153.922 93.1332 119.744
154.021 93.086 121.165
154.254 93.0287 120.957
154.235 93.0176 121.178
154.471 92.9379 120.679
153.797 92.9663 121.249
154.119 92.9404 121.598
154.386 92.7977 121.202
154.825 93.087 119.435
154.448 93.4561 119.727
154.536 93.4595 119.516
154.929 92.856 119.511
154.452 93.6699 119.502
155.291 93.2438 119.444
155.109 93.162 119.626
155.214 93.1952 119.626
154.915 92.9886 119.92
154.897 93.1317 119.604
155.174 93.1667 119.201
155.543 93.1614 119.033
155.477 93.0469 119.616
155.116 93.0749 119.916
154.872 93.5253 119.419
155 93.1714 119.069
154.975 92.8481 118.784
155.282 92.7963 118.728
154.675 93.4703 119.578
154.856 92.788 118.518
154.876 93.2156 118.7
155.835 92.9803 119.158
155.702 93.1193 119.458
156.016 92.8677 119.271
155.716 93.1247 119.571
155.794 93.0913 118.869
156.283 92.6796 118.927
156.224 92.9494 119.323
155.012 92.9463 120.265
154.943 92.966 120.266
154.899 92.9063 120.554
154.624 93.183 120.318
155.203 92.9664 120.183
154.985 92.6849 120.866
154.713 92.9234 120.897
154.378 92.9178 119.718
154.224 92.8363 119.543
154.368 92.8624 119.966
154.127 92.9799 119.395
154.352 93.1887 119.234
154.579 93.1339 119.65
154.582 92.9478 119.974
154.588 92.9234 120.29
154.367 92.9385 119.986
154.395 93.2122 119.008
154.504 93.5385 119.428
154.647 92.974 118.716
154.321 93.1516 119.006
154.621 93.047 118.489
154.554 92.9281 120.5
154.611 92.9639 120.705
154.6 92.9444 120.836
154.563 92.8441 120.868
154.66 92.7276 121.237
154.166 93.0962 119.877
153.942 92.8654 119.636
153.831 92.7701 119.75
153.958 93.1202 119.407
154.393 93.0719 119.958
153.977 93.0595 119.831
153.7 92.9704 119.754
155.423 94.2132 119.341
155.311 94.713 119.364
155.368 94.5608 119.327
155.06 95.1219 119.405
155.249 94.6301 119.522
155.362 93.6524 119.519
155.46 93.5721 119.291
155.435 94.3444 119.237
155.151 94.7249 119.155
155.311 94.4012 119.637
155.252 93.9952 119.638
155.186 94.0579 119.745
155.363 93.4891 119.708
155.067 94.5483 119.595
155.114 93.9734 119.927
155.238 93.9257 120.02
155.691 93.6514 119.114
155.716 93.8351 118.927
155.869 93.7714 118.949
155.575 94.2453 119.017
155.653 93.3231 119.317
155.996 93.2743 118.835
155.863 93.4732 118.728
154.902 94.7748 118.82
154.922 95.0653 119.049
154.785 94.9171 118.625
154.969 95.253 119.323
155.003 94.8264 118.865
154.689 95.2951 118.49
154.67 95.1136 118.562
154.6 95.038 119.408
154.492 94.9224 119.568
154.395 95.0583 119.338
154.592 94.0062 119.485
154.785 94.2115 119.422
154.866 94.7965 119.433
154.812 95.0735 119.3
154.32 95.5113 119.302
154.307 94.8359 119.28
154.836 94.2134 119.724
154.831 94.7856 119.79
155.026 94.1922 119.815
154.894 93.5411 119.526
155.038 93.6757 119.859
154.691 95.3145 119.146
154.536 95.6136 119.139
154.635 95.2174 118.763
154.265 95.4671 119.13
154.433 95.4116 118.549
154.433 94.302 119.288
154.573 94.1044 119.283
154.617 93.9793 119.17
154.819 93.2503 119.112
154.32 94.5523 119.275
154.583 93.8217 119.282
154.444 93.6992 119.315
155.186 93.9149 118.223
154.832 93.9894 118.018
154.807 93.7717 118.32
154.648 94.3969 117.891
154.722 94.4281 117.785
155.344 93.7694 117.923
155.385 93.2815 117.954
154.679 93.438 118.319
154.537 93.5295 118.292
154.983 94.6319 117.602
155.183 94.2818 117.376
155.145 94.5621 117.74
155.619 93.4687 117.315
154.631 95.0508 117.553
155.362 94.2769 117.389
155.555 94.1934 117.459
154.902 93.6881 118.299
154.739 93.5934 118.474
154.775 93.4118 118.306
154.478 93.583 118.706
155.358 93.106 118.042
154.831 93.1455 118.485
154.656 93.0363 118.302
154.497 94.0467 118.021
154.461 94.2442 117.96
154.203 94.3286 117.981
154.434 94.8576 117.829
154.122 93.8955 118.475
153.898 94.682 118.083
153.775 94.6019 118.192
154.288 96.2136 117.482
154.764 96.3142 117.648
154.04 96.5243 117.898
154.955 95.9223 117.941
155.015 95.6305 117.725
154.457 95.5931 117.521
154.375 95.4872 117.539
153.878 95.9975 118.149
153.849 96.3581 118.378
154.959 95.129 117.405
154.931 95.1821 117.365
155.269 94.6877 117.363
155.283 95.2079 117.545
155.507 94.3828 117.357
154.339 95.1477 117.662
153.972 95.2796 117.644
153.848 95.0478 117.798
153.421 95.8248 118.397
153.269 95.0456 118.148
154.247 96.0489 118.401
154.8 96.0249 118.09
154.472 95.7087 118.296
155.204 95.4888 118.243
153.709 96.2648 118.795
154.448 95.8047 118.411
154.563 95.5586 118.411
155.109 92.7422 122.51
155.401 92.6678 121.565
154.88 92.6401 121.768
155.675 92.7786 121.213
155.895 92.7872 121.018
155.197 92.9719 122.139
154.755 93.0398 122.529
154.082 92.6866 122.112
154.308 92.9411 121.707
155.7 92.8361 121.037
155.578 93.0331 121.707
155.833 93.0781 121.018
155.315 93.3873 122.009
155.699 93.0209 120.38
156.322 93.1054 120.584
156.229 93.1336 121.275
154.368 93.0473 122.588
154.194 92.954 122.412
154.569 92.6283 121.709
153.961 93.0234 121.808
154.585 93.4466 122.376
154.242 92.79 121.971
154.556 92.7904 121.468
154.968 92.786 121.613
155.234 92.7718 121.635
155.026 92.4754 121.607
155.565 92.7634 120.82
154.527 92.5247 121.445
154.831 92.5007 121.263
154.929 92.5704 121.107
155.478 93.9181 121.419
155.173 93.8395 121.777
155.071 93.722 121.384
154.893 93.6513 122.119
155.167 93.7703 122.204
155.821 93.9501 121.345
155.567 93.9054 121.1
155.058 93.4398 121.14
154.799 93.4874 121.508
155.584 93.583 121.927
155.741 93.5592 121.571
155.909 93.4582 121.631
155.961 93.7604 121.052
156.085 93.6786 121.244
155.319 93.8004 120.879
155.157 93.4748 120.761
155.226 93.9612 120.69
155.061 93.0807 120.564
155.568 94.0038 120.798
155.238 93.8874 120.351
155.141 93.7476 120.108
154.614 93.1609 121.709
154.538 93.551 122.071
154.498 92.8768 121.882
154.733 93.2668 121.376
154.471 92.9044 121.5
155.997 92.8905 117.875
155.784 93.0421 117.911
155.701 93.0044 118.292
155.524 93.1721 118.147
155.715 93.1797 117.699
156.177 92.9139 117.762
156.227 92.688 118.095
155.746 92.8961 118.616
155.536 92.8836 118.682
155.785 93.5216 117.451
155.882 93.5668 117.686
155.825 93.7621 117.456
156.331 92.44 118.255
156.092 92.8561 118.5
156.304 92.7245 118.626
155.268 93.2962 118.622
155.321 92.982 118.238
155.025 93.3735 118.596
153.907 93.4551 118.858
153.866 93.635 118.951
153.955 93.2849 118.855
154.087 93.633 119.025
153.899 93.8889 118.886
154.091 93.6399 118.693
154.118 93.5148 118.77
154.111 93.2376 119.032
153.924 93.2299 119.039
153.677 93.9764 118.429
154.119 94.1425 118.616
153.759 94.2496 118.241
154.207 93.1388 118.441
154.27 93.2505 118.71
154.422 93.0946 118.396
153.603 93.1662 119.265
153.805 93.101 119.17
153.577 92.8923 119.386
156.469 92.6267 119.657
155.798 93.0399 119.934
155.954 92.9641 119.872
155.479 93.0273 119.931
155.775 92.8408 119.805
156.585 92.9111 119.585
157.116 92.8096 119.382
155.941 92.9188 119.854
155.684 92.8645 120.221
156.026 93.002 119.868
156.308 92.8429 119.703
156.238 93.0124 119.643
156.843 92.4639 120.161
156 92.8101 120.165
156.717 92.6974 120.47
155.4 92.8419 120.444
155.344 92.7364 120.343
155.153 92.709 120.811
154.084 92.8321 120.478
153.839 92.7368 120.654
154.179 92.8375 120.762
153.617 92.9419 121.026
154.02 92.8741 120.935
154.497 92.7871 120.349
154.279 92.5748 120.62
153.937 92.7887 121.357
153.959 92.7787 121.208
154.216 93.0167 120.417
154.345 93.043 120.271
154.376 93.0986 120.022
154.407 92.4434 121.379
154.345 92.3778 121.449
154.513 92.2824 121.514
154.382 92.5161 121.214
153.863 92.7305 121.532
154.424 92.5165 121.624
155.609 94.5831 118.307
155.59 94.563 118.523
155.697 94.7625 118.093
155.46 94.5086 118.731
155.263 94.4461 118.982
155.728 94.3147 118.532
155.652 94.3579 118.217
155.664 94.9733 117.707
155.762 95.0676 118.028
155.753 93.9562 118.586
155.926 93.8927 118.644
155.819 93.6217 118.577
155.748 94.2923 117.738
155.69 94.6278 117.388
155.752 94.3499 117.339
155.218 95.1828 118.069
155.154 95.0488 118.242
154.894 95.2589 118.183
153.971 95.0354 118.943
153.938 94.7971 118.922
153.561 95.4636 118.876
153.909 94.5635 118.807
154.067 94.3288 118.954
154.099 94.8878 119.233
154.099 95.18 119.186
153.527 95.9071 118.956
153.411 95.744 118.728
154.069 94.495 119.154
154.355 94.4252 119.075
154.437 94.253 119.125
154.151 95.4469 118.772
153.719 96.0897 118.923
154.211 95.7518 118.623
153.26 95.4527 118.386
153.882 94.9377 118.327
153.231 95.3366 118.312
155.978 93.4549 119.987
156.051 93.3765 120.073
155.89 93.5683 120.408
156.209 93.5264 120.244
156.237 93.3693 119.778
155.816 93.2851 119.525
155.699 93.4634 119.727
155.766 93.7671 120.537
155.901 93.4545 120.792
156.32 93.3345 119.433
156.023 93.5114 119.356
156.16 93.4247 119.242
155.558 93.6336 120.016
155.68 93.9147 120.535
155.384 93.776 120.246
156.284 93.3639 120.727
156.429 93.3925 120.581
156.483 93.6665 120.938
154.798 92.8978 120.219
154.842 92.906 119.875
154.853 92.8922 120.247
154.856 93.1561 119.792
154.947 92.8296 119.289
154.783 92.8029 119.911
154.631 92.8127 120.38
154.86 92.5995 120.514
154.936 92.7484 120.279
154.871 92.9844 119.083
154.718 93.2373 119.411
154.85 93.2432 119.089
154.62 92.8145 120.857
154.599 92.76 121.028
154.453 92.8472 121.342
154.931 93.3389 120.244
154.914 93.494 119.973
154.948 93.6673 120.175
POLYGONS 1280  5120
3 164 162 163
3 163 44 164
3 162 43 163
3 164 42 162
3 166 165 163
3 163 43 166
3 165 44 163
3 166 14 165
3 168 167 162
3 162 42 168
3 167 43 162
3 168 13 167
3 170 169 164
3 164 44 170
3 169 42 164
3 170 12 169
3 173 171 172
3 172 46 173
3 171 43 172
3 173 45 171
3 167 174 172
3 172 43 167
3 174 46 172
3 167 13 174
3 175 166 171
3 171 45 175
3 166 43 171
3 175 14 166
3 177 176 173
3 173 46 177
3 176 45 173
3 177 4 176
3 180 178 179
3 179 48 180
3 178 42 179
3 180 47 178
3 169 181 179
3 179 42 169
3 181 48 179
3 169 12 181
3 182 168 178
3 178 47 182
3 168 42 178
3 182 13 168
3 184 183 180
3 180 48 184
3 183 47 180
3 184 8 183
3 187 185 186
3 186 50 187
3 185 44 186
3 187 49 185
3 165 188 186
3 186 44 165
3 188 50 186
3 165 14 188
3 189 170 185
3 185 49 189
3 170 44 185
3 189 12 170
3 191 190 187
3 187 50 191
3 190 49 187
3 191 7 190
3 194 192 193
3 193 53 194
3 192 52 193
3 194 51 192
3 196 195 193
3 193 52 196
3 195 53 193
3 196 16 195
3 198 197 192
3 192 51 198
3 197 52 192
3 198 14 197
3 200 199 194
3 194 53 200
3 199 51 194
3 200 15 199
3 203 201 202
3 202 45 203
3 201 52 202
3 203 54 201
3 197 175 202
3 202 52 197
3 175 45 202
3 197 14 175
3 204 196 201
3 201 54 204
3 196 52 201
3 204 16 196
3 176 205 203
3 203 45 176
3 205 54 203
3 176 4 205
3 208 206 207
3 207 55 208
3 206 51 207
3 208 50 206
3 199 209 207
3 207 51 199
3 209 55 207
3 199 15 209
3 188 198 206
3 206 50 188
3 198 51 206
3 188 14 198
3 210 191 208
3 208 55 210
3 191 50 208
3 210 7 191
3 213 211 212
3 212 57 213
3 211 53 212
3 213 56 211
3 195 214 212
3 212 53 195
3 214 57 212
3 195 16 214
3 215 200 211
3 211 56 215
3 200 53 211
3 215 15 200
3 217 216 213
3 213 57 217
3 216 56 213
3 217 9 216
3 220 218 219
3 219 60 220
3 218 59 219
3 220 58 218
3 222 221 219
3 219 59 222
3 221 60 219
3 222 19 221
3 224 223 218
3 218 58 224
3 223 59 218
3 224 18 223
3 226 225 220
3 220 60 226
3 225 58 220
3 226 17 225
3 229 227 228
3 228 62 229
3 227 59 228
3 229 61 227
3 223 230 228
3 228 59 223
3 230 62 228
3 223 18 230
3 231 222 227
3 227 61 231
3 222 59 227
3 231 19 222
3 233 232 229
3 229 62 233
3 232 61 229
3 233 5 232
3 236 234 235
3 235 64 236
3 234 58 235
3 236 63 234
3 225 237 235
3 235 58 225
3 237 64 235
3 225 17 237
3 238 224 234
3 234 63 238
3 224 58 234
3 238 18 224
3 240 239 236
3 236 64 240
3 239 63 236
3 240 6 239
3 243 241 242
3 242 66 243
3 241 60 242
3 243 65 241
3 221 244 242
3 242 60 221
3 244 66 242
3 221 19 244
3 245 226 241
3 241 65 245
3 226 60 241
3 245 17 226
3 247 246 243
3 243 66 247
3 246 65 243
3 247 11 246
3 250 248 249
3 249 69 250
3 248 68 249
3 250 67 248
3 252 251 249
3 249 68 252
3 251 69 249
3 252 18 251
3 254 253 248
3 248 67 254
3 253 68 248
3 254 21 253
3 256 255 250
3 250 69 256
3 255 67 250
3 256 20 255
3 259 257 258
3 258 70 259
3 257 68 258
3 259 62 257
3 253 260 258
3 258 68 253
3 260 70 258
3 253 21 260
3 230 252 257
3 257 62 230
3 252 68 257
3 230 18 252
3 261 233 259
3 259 70 261
3 233 62 259
3 261 5 233
3 264 262 263
3 263 72 264
3 262 67 263
3 264 71 262
3 255 265 263
3 263 67 255
3 265 72 263
3 255 20 265
3 266 254 262
3 262 71 266
3 254 67 262
3 266 21 254
3 268 267 264
3 264 72 268
3 267 71 264
3 268 10 267
3 271 269 270
3 270 63 271
3 269 69 270
3 271 73 269
3 251 238 270
3 270 69 251
3 238 63 270
3 251 18 238
3 272 256 269
3 269 73 272
3 256 69 269
3 272 20 256
3 239 273 271
3 271 63 239
3 273 73 271
3 239 6 273
3 276 274 275
3 275 76 276
3 274 75 275
3 276 74 274
3 278 277 275
3 275 75 278
3 277 76 275
3 278 24 277
3 280 279 274
3 274 74 280
3 279 75 274
3 280 23 279
3 282 281 276
3 276 76 282
3 281 74 276
3 282 22 281
3 285 283 284
3 284 78 285
3 283 75 284
3 285 77 283
3 279 286 284
3 284 75 279
3 286 78 284
3 279 23 286
3 287 278 283
3 283 77 287
3 278 75 283
3 287 24 278
3 289 288 285
3 285 78 289
3 288 77 285
3 289 0 288
3 292 290 291
3 291 80 292
3 290 74 291
3 292 79 290
3 281 293 291
3 291 74 281
3 293 80 291
3 281 22 293
3 294 280 290
3 290 79 294
3 280 74 290
3 294 23 280
3 296 295 292
3 292 80 296
3 295 79 292
3 296 4 295
3 299 297 298
3 298 82 299
3 297 76 298
3 299 81 297
3 277 300 298
3 298 76 277
3 300 82 298
3 277 24 300
3 301 282 297
3 297 81 301
3 282 76 297
3 301 22 282
3 303 302 299
3 299 82 303
3 302 81 299
3 303 3 302
3 306 304 305
3 305 85 306
3 304 84 305
3 306 83 304
3 308 307 305
3 305 84 308
3 307 85 305
3 308 26 307
3 310 309 304
3 304 83 310
3 309 84 304
3 310 24 309
3 312 311 306
3 306 85 312
3 311 83 306
3 312 25 311
3 315 313 314
3 314 77 315
3 313 84 314
3 315 86 313
3 309 287 314
3 314 84 309
3 287 77 314
3 309 24 287
3 316 308 313
3 313 86 316
3 308 84 313
3 316 26 308
3 288 317 315
3 315 77 288
3 317 86 315
3 288 0 317
3 320 318 319
3 319 87 320
3 318 83 319
3 320 82 318
3 311 321 319
3 319 83 311
3 321 87 319
3 311 25 321
3 300 310 318
3 318 82 300
3 310 83 318
3 300 24 310
3 322 303 320
3 320 87 322
3 303 82 320
3 322 3 303
3 325 323 324
3 324 89 325
3 323 85 324
3 325 88 323
3 307 326 324
3 324 85 307
3 326 89 324
3 307 26 326
3 327 312 323
3 323 88 327
3 312 85 323
3 327 25 312
3 329 328 325
3 325 89 329
3 328 88 325
3 329 5 328
3 332 330 331
3 331 92 332
3 330 91 331
3 332 90 330
3 334 333 331
3 331 91 334
3 333 92 331
3 334 29 333
3 336 335 330
3 330 90 336
3 335 91 330
3 336 28 335
3 338 337 332
3 332 92 338
3 337 90 332
3 338 27 337
3 341 339 340
3 340 94 341
3 339 91 340
3 341 93 339
3 335 342 340
3 340 91 335
3 342 94 340
3 335 28 342
3 343 334 339
3 339 93 343
3 334 91 339
3 343 29 334
3 345 344 341
3 341 94 345
3 344 93 341
3 345 2 344
3 348 346 347
3 347 96 348
3 346 90 347
3 348 95 346
3 337 349 347
3 347 90 337
3 349 96 347
3 337 27 349
3 350 336 346
3 346 95 350
3 336 90 346
3 350 28 336
3 352 351 348
3 348 96 352
3 351 95 348
3 352 7 351
3 355 353 354
3 354 98 355
3 353 92 354
3 355 97 353
3 333 356 354
3 354 92 333
3 356 98 354
3 333 29 356
3 357 338 353
3 353 97 357
3 338 92 353
3 357 27 338
3 359 358 355
3 355 98 359
3 358 97 355
3 359 1 358
3 362 360 361
3 361 101 362
3 360 100 361
3 362 99 360
3 364 363 361
3 361 100 364
3 363 101 361
3 364 31 363
3 366 365 360
3 360 99 366
3 365 100 360
3 366 29 365
3 368 367 362
3 362 101 368
3 367 99 362
3 368 30 367
3 371 369 370
3 370 93 371
3 369 100 370
3 371 102 369
3 365 343 370
3 370 100 365
3 343 93 370
3 365 29 343
3 372 364 369
3 369 102 372
3 364 100 369
3 372 31 364
3 344 373 371
3 371 93 344
3 373 102 371
3 344 2 373
3 376 374 375
3 375 103 376
3 374 99 375
3 376 98 374
3 367 377 375
3 375 99 367
3 377 103 375
3 367 30 377
3 356 366 374
3 374 98 356
3 366 99 374
3 356 29 366
3 378 359 376
3 376 103 378
3 359 98 376
3 378 1 359
3 381 379 380
3 380 105 381
3 379 101 380
3 381 104 379
3 363 382 380
3 380 101 363
3 382 105 380
3 363 31 382
3 383 368 379
3 379 104 383
3 368 101 379
3 383 30 368
3 385 384 381
3 381 105 385
3 384 104 381
3 385 6 384
3 388 386 387
3 387 108 388
3 386 107 387
3 388 106 386
3 390 389 387
3 387 107 390
3 389 108 387
3 390 34 389
3 392 391 386
3 386 106 392
3 391 107 386
3 392 33 391
3 394 393 388
3 388 108 394
3 393 106 388
3 394 32 393
3 397 395 396
3 396 110 397
3 395 107 396
3 397 109 395
3 391 398 396
3 396 107 391
3 398 110 396
3 391 33 398
3 399 390 395
3 395 109 399
3 390 107 395
3 399 34 390
3 401 400 397
3 397 110 401
3 400 109 397
3 401 8 400
3 404 402 403
3 403 112 404
3 402 106 403
3 404 111 402
3 393 405 403
3 403 106 393
3 405 112 403
3 393 32 405
3 406 392 402
3 402 111 406
3 392 106 402
3 406 33 392
3 408 407 404
3 404 112 408
3 407 111 404
3 408 0 407
3 411 409 410
3 410 114 411
3 409 108 410
3 411 113 409
3 389 412 410
3 410 108 389
3 412 114 410
3 389 34 412
3 413 394 409
3 409 113 413
3 394 108 409
3 413 32 394
3 415 414 411
3 411 114 415
3 414 113 411
3 415 11 414
3 418 416 417
3 417 117 418
3 416 116 417
3 418 115 416
3 420 419 417
3 417 116 420
3 419 117 417
3 420 36 419
3 422 421 416
3 416 115 422
3 421 116 416
3 422 34 421
3 424 423 418
3 418 117 424
3 423 115 418
3 424 35 423
3 427 425 426
3 426 109 427
3 425 116 426
3 427 118 425
3 421 399 426
3 426 116 421
3 399 109 426
3 421 34 399
3 428 420 425
3 425 118 428
3 420 116 425
3 428 36 420
3 400 429 427
3 427 109 400
3 429 118 427
3 400 8 429
3 432 430 431
3 431 119 432
3 430 115 431
3 432 114 430
3 423 433 431
3 431 115 423
3 433 119 431
3 423 35 433
3 412 422 430
3 430 114 412
3 422 115 430
3 412 34 422
3 434 415 432
3 432 119 434
3 415 114 432
3 434 11 415
3 437 435 436
3 436 121 437
3 435 117 436
3 437 120 435
3 419 438 436
3 436 117 419
3 438 121 436
3 419 36 438
3 439 424 435
3 435 120 439
3 424 117 435
3 439 35 424
3 441 440 437
3 437 121 441
3 440 120 437
3 441 1 440
3 444 442 443
3 443 124 444
3 442 123 443
3 444 122 442
3 446 445 443
3 443 123 446
3 445 124 443
3 446 39 445
3 448 447 442
3 442 122 448
3 447 123 442
3 448 38 447
3 450 449 444
3 444 124 450
3 449 122 444
3 450 37 449
3 453 451 452
3 452 126 453
3 451 123 452
3 453 125 451
3 447 454 452
3 452 123 447
3 454 126 452
3 447 38 454
3 455 446 451
3 451 125 455
3 446 123 451
3 455 39 446
3 457 456 453
3 453 126 457
3 456 125 453
3 457 9 456
3 460 458 459
3 459 128 460
3 458 122 459
3 460 127 458
3 449 461 459
3 459 122 449
3 461 128 459
3 449 37 461
3 462 448 458
3 458 127 462
3 448 122 458
3 462 38 448
3 464 463 460
3 460 128 464
3 463 127 460
3 464 10 463
3 467 465 466
3 466 130 467
3 465 124 466
3 467 129 465
3 445 468 466
3 466 124 445
3 468 130 466
3 445 39 468
3 469 450 465
3 465 129 469
3 450 124 465
3 469 37 450
3 471 470 467
3 467 130 471
3 470 129 467
3 471 3 470
3 474 472 473
3 473 133 474
3 472 132 473
3 474 131 472
3 476 475 473
3 473 132 476
3 475 133 473
3 476 38 475
3 478 477 472
3 472 131 478
3 477 132 472
3 478 41 477
3 480 479 474
3 474 133 480
3 479 131 474
3 480 40 479
3 483 481 482
3 482 134 483
3 481 132 482
3 483 126 481
3 477 484 482
3 482 132 477
3 484 134 482
3 477 41 484
3 454 476 481
3 481 126 454
3 476 132 481
3 454 38 476
3 485 457 483
3 483 134 485
3 457 126 483
3 485 9 457
3 488 486 487
3 487 136 488
3 486 131 487
3 488 135 486
3 479 489 487
3 487 131 479
3 489 136 487
3 479 40 489
3 490 478 486
3 486 135 490
3 478 131 486
3 490 41 478
3 492 491 488
3 488 136 492
3 491 135 488
3 492 2 491
3 495 493 494
3 494 127 495
3 493 133 494
3 495 137 493
3 475 462 494
3 494 133 475
3 462 127 494
3 475 38 462
3 496 480 493
3 493 137 496
3 480 133 493
3 496 40 480
3 463 497 495
3 495 127 463
3 497 137 495
3 463 10 497
3 500 498 499
3 499 140 500
3 498 139 499
3 500 138 498
3 502 501 499
3 499 139 502
3 501 140 499
3 502 33 501
3 504 503 498
3 498 138 504
3 503 139 498
3 504 13 503
3 506 505 500
3 500 140 506
3 505 138 500
3 506 23 505
3 509 507 508
3 508 47 509
3 507 139 508
3 509 110 507
3 503 182 508
3 508 139 503
3 182 47 508
3 503 13 182
3 398 502 507
3 507 110 398
3 502 139 507
3 398 33 502
3 183 401 509
3 509 47 183
3 401 110 509
3 183 8 401
3 512 510 511
3 511 79 512
3 510 138 511
3 512 46 510
3 505 294 511
3 511 138 505
3 294 79 511
3 505 23 294
3 174 504 510
3 510 46 174
3 504 138 510
3 174 13 504
3 295 177 512
3 512 79 295
3 177 46 512
3 295 4 177
3 515 513 514
3 514 111 515
3 513 140 514
3 515 78 513
3 501 406 514
3 514 140 501
3 406 111 514
3 501 33 406
3 286 506 513
3 513 78 286
3 506 140 513
3 286 23 506
3 407 289 515
3 515 111 407
3 289 78 515
3 407 0 289
3 518 516 517
3 517 143 518
3 516 142 517
3 518 141 516
3 520 519 517
3 517 142 520
3 519 143 517
3 520 19 519
3 522 521 516
3 516 141 522
3 521 142 516
3 522 32 521
3 524 523 518
3 518 143 524
3 523 141 518
3 524 26 523
3 527 525 526
3 526 113 527
3 525 142 526
3 527 66 525
3 521 413 526
3 526 142 521
3 413 113 526
3 521 32 413
3 244 520 525
3 525 66 244
3 520 142 525
3 244 19 520
3 414 247 527
3 527 113 414
3 247 66 527
3 414 11 247
3 530 528 529
3 529 86 530
3 528 141 529
3 530 112 528
3 523 316 529
3 529 141 523
3 316 86 529
3 523 26 316
3 405 522 528
3 528 112 405
3 522 141 528
3 405 32 522
3 317 408 530
3 530 86 317
3 408 112 530
3 317 0 408
3 533 531 532
3 532 61 533
3 531 143 532
3 533 89 531
3 519 231 532
3 532 143 519
3 231 61 532
3 519 19 231
3 326 524 531
3 531 89 326
3 524 143 531
3 326 26 524
3 232 329 533
3 533 61 232
3 329 89 533
3 232 5 329
3 536 534 535
3 535 146 536
3 534 145 535
3 536 144 534
3 538 537 535
3 535 145 538
3 537 146 535
3 538 22 537
3 540 539 534
3 534 144 540
3 539 145 534
3 540 16 539
3 542 541 536
3 536 146 542
3 541 144 536
3 542 39 541
3 545 543 544
3 544 54 545
3 543 145 544
3 545 80 543
3 539 204 544
3 544 145 539
3 204 54 544
3 539 16 204
3 293 538 543
3 543 80 293
3 538 145 543
3 293 22 538
3 205 296 545
3 545 54 205
3 296 80 545
3 205 4 296
3 548 546 547
3 547 125 548
3 546 144 547
3 548 57 546
3 541 455 547
3 547 144 541
3 455 125 547
3 541 39 455
3 214 540 546
3 546 57 214
3 540 144 546
3 214 16 540
3 456 217 548
3 548 125 456
3 217 57 548
3 456 9 217
3 551 549 550
3 550 81 551
3 549 146 550
3 551 130 549
3 537 301 550
3 550 146 537
3 301 81 550
3 537 22 301
3 468 542 549
3 549 130 468
3 542 146 549
3 468 39 542
3 302 471 551
3 551 81 302
3 471 130 551
3 302 3 471
3 554 552 553
3 553 149 554
3 552 148 553
3 554 147 552
3 556 555 553
3 553 148 556
3 555 149 553
3 556 21 555
3 558 557 552
3 552 147 558
3 557 148 552
3 558 25 557
3 560 559 554
3 554 149 560
3 559 147 554
3 560 37 559
3 563 561 562
3 562 88 563
3 561 148 562
3 563 70 561
3 557 327 562
3 562 148 557
3 327 88 562
3 557 25 327
3 260 556 561
3 561 70 260
3 556 148 561
3 260 21 556
3 328 261 563
3 563 88 328
3 261 70 563
3 328 5 261
3 566 564 565
3 565 129 566
3 564 147 565
3 566 87 564
3 559 469 565
3 565 147 559
3 469 129 565
3 559 37 469
3 321 558 564
3 564 87 321
3 558 147 564
3 321 25 558
3 470 322 566
3 566 129 470
3 322 87 566
3 470 3 322
3 569 567 568
3 568 71 569
3 567 149 568
3 569 128 567
3 555 266 568
3 568 149 555
3 266 71 568
3 555 21 266
3 461 560 567
3 567 128 461
3 560 149 567
3 461 37 560
3 267 464 569
3 569 71 267
3 464 128 569
3 267 10 464
3 572 570 571
3 571 152 572
3 570 151 571
3 572 150 570
3 574 573 571
3 571 151 574
3 573 152 571
3 574 27 573
3 576 575 570
3 570 150 576
3 575 151 570
3 576 12 575
3 578 577 572
3 572 152 578
3 577 150 572
3 578 36 577
3 581 579 580
3 580 49 581
3 579 151 580
3 581 96 579
3 575 189 580
3 580 151 575
3 189 49 580
3 575 12 189
3 349 574 579
3 579 96 349
3 574 151 579
3 349 27 574
3 190 352 581
3 581 49 190
3 352 96 581
3 190 7 352
3 584 582 583
3 583 118 584
3 582 150 583
3 584 48 582
3 577 428 583
3 583 150 577
3 428 118 583
3 577 36 428
3 181 576 582
3 582 48 181
3 576 150 582
3 181 12 576
3 429 184 584
3 584 118 429
3 184 48 584
3 429 8 184
3 587 585 586
3 586 97 587
3 585 152 586
3 587 121 585
3 573 357 586
3 586 152 573
3 357 97 586
3 573 27 357
3 438 578 585
3 585 121 438
3 578 152 585
3 438 36 578
3 358 441 587
3 587 97 358
3 441 121 587
3 358 1 441
3 590 588 589
3 589 155 590
3 588 154 589
3 590 153 588
3 592 591 589
3 589 154 592
3 591 155 589
3 592 17 591
3 594 593 588
3 588 153 594
3 593 154 588
3 594 30 593
3 596 595 590
3 590 155 596
3 595 153 590
3 596 35 595
3 599 597 598
3 598 104 599
3 597 154 598
3 599 64 597
3 593 383 598
3 598 154 593
3 383 104 598
3 593 30 383
3 237 592 597
3 597 64 237
3 592 154 597
3 237 17 592
3 384 240 599
3 599 104 384
3 240 64 599
3 384 6 240
3 602 600 601
3 601 120 602
3 600 153 601
3 602 103 600
3 595 439 601
3 601 153 595
3 439 120 601
3 595 35 439
3 377 594 600
3 600 103 377
3 594 153 600
3 377 30 594
3 440 378 602
3 602 120 440
3 378 103 602
3 440 1 378
3 605 603 604
3 604 65 605
3 603 155 604
3 605 119 603
3 591 245 604
3 604 155 591
3 245 65 604
3 591 17 245
3 433 596 603
3 603 119 433
3 596 155 603
3 433 35 596
3 246 434 605
3 605 65 246
3 434 119 605
3 246 11 434
3 608 606 607
3 607 158 608
3 606 157 607
3 608 156 606
3 610 609 607
3 607 157 610
3 609 158 607
3 610 15 609
3 612 611 606
3 606 156 612
3 611 157 606
3 612 28 611
3 614 613 608
3 608 158 614
3 613 156 608
3 614 41 613
3 617 615 616
3 616 95 617
3 615 157 616
3 617 55 615
3 611 350 616
3 616 157 611
3 350 95 616
3 611 28 350
3 209 610 615
3 615 55 209
3 610 157 615
3 209 15 610
3 351 210 617
3 617 95 351
3 210 55 617
3 351 7 210
3 620 618 619
3 619 135 620
3 618 156 619
3 620 94 618
3 613 490 619
3 619 156 613
3 490 135 619
3 613 41 490
3 342 612 618
3 618 94 342
3 612 156 618
3 342 28 612
3 491 345 620
3 620 135 491
3 345 94 620
3 491 2 345
3 623 621 622
3 622 56 623
3 621 158 622
3 623 134 621
3 609 215 622
3 622 158 609
3 215 56 622
3 609 15 215
3 484 614 621
3 621 134 484
3 614 158 621
3 484 41 614
3 216 485 623
3 623 56 216
3 485 134 623
3 216 9 485
3 626 624 625
3 625 161 626
3 624 160 625
3 626 159 624
3 628 627 625
3 625 160 628
3 627 161 625
3 628 31 627
3 630 629 624
3 624 159 630
3 629 160 624
3 630 20 629
3 632 631 626
3 626 161 632
3 631 159 626
3 632 40 631
3 635 633 634
3 634 73 635
3 633 160 634
3 635 105 633
3 629 272 634
3 634 160 629
3 272 73 634
3 629 20 272
3 382 628 633
3 633 105 382
3 628 160 633
3 382 31 628
3 273 385 635
3 635 73 273
3 385 105 635
3 273 6 385
3 638 636 637
3 637 137 638
3 636 159 637
3 638 72 636
3 631 496 637
3 637 159 631
3 496 137 637
3 631 40 496
3 265 630 636
3 636 72 265
3 630 159 636
3 265 20 630
3 497 268 638
3 638 137 497
3 268 72 638
3 497 10 268
3 641 639 640
3 640 102 641
3 639 161 640
3 641 136 639
3 627 372 640
3 640 161 627
3 372 102 640
3 627 31 372
3 489 632 639
3 639 136 489
3 632 161 639
3 489 40 632
3 373 492 641
3 641 102 373
3 492 136 641
3 373 2 492
