# vtk DataFile Version 3.0
this file was written using fslvtkio
ASCII
DATASET POLYDATA
POINTS 732 float
115.369 127.656 64.7204
114.237 127.234 65.2364
114.935 126.481 65.5863
115.832 126.386 65.537
116.473 127.873 64.3696
116.909 126.866 65.2281
117.606 128.355 64.3166
118.177 128.034 64.9527
114.409 128.693 64.3047
113.394 128.212 65.0322
115.536 129.285 63.9568
116.741 129.482 63.8512
118.155 129.656 64.27
113.183 129.211 64.3442
112.09 129.424 65.2644
112.481 128.187 65.5737
114.231 130.045 63.8942
115.302 130.801 63.8951
116.332 130.824 63.8832
117.417 130.537 64.1248
112.924 130.401 64.7315
112 130.676 65.4045
113.918 130.657 64.2725
114.851 131.186 64.5529
115.964 131.018 64.8607
117.187 131.172 64.7651
113.005 131.125 65.2025
113.997 131.195 65.214
115.041 125.635 66.2455
113.647 125.4 66.9275
114.082 124.567 67.308
115.286 124.412 67.037
116.405 125.567 66.1798
116.746 124.842 66.7093
117.592 126.733 65.8726
117.911 126.034 66.4088
118.518 127.797 65.7093
118.834 127.226 66.3945
113.82 126.368 66.189
112.275 126.545 66.9611
112.502 125.617 67.3416
118.789 129.297 64.8835
119.194 128.977 65.9033
112.276 127.387 66.5631
110.874 127.989 66.9011
111.017 126.744 67.3859
113.064 127.393 65.8784
119.119 130.702 65.1612
119.528 130.185 65.7626
111.783 128.563 66.2731
110.742 129.28 66.679
118.906 130.999 66.3112
118.132 130.709 64.9499
111.417 130.056 65.9909
110.804 130.481 66.5713
115.045 131.088 65.3249
115.207 130.588 66.1504
114.017 131.099 66.1024
116.14 130.948 66.1125
117.021 130.965 65.735
111.904 131.297 66.1293
112.996 131.258 66.2204
117.368 123.249 67.5607
115.993 122.607 67.9518
116.69 121.75 68.4345
117.831 122.323 68.2432
118.387 123.904 67.4917
118.959 122.923 68.142
113.113 123.33 68.3891
111.943 123.109 68.8607
112.735 122.564 68.9252
113.762 122.433 68.8938
114.549 123.384 67.799
114.988 122.395 68.3459
116.1 123.555 67.3843
117.573 124.4 66.9072
118.645 125.652 66.8842
119.312 124.597 67.6716
119.317 126.24 67.1755
120.051 125.128 68.1406
111.252 124.402 68.3021
110.101 124.021 68.7152
111.032 123.483 68.7331
112.681 124.539 67.8657
119.397 128.031 66.5988
119.685 126.951 67.7155
109.896 125.767 68.2258
108.639 125.828 68.6526
109.368 124.769 68.6282
111.115 125.679 67.8177
119.57 129.459 66.9891
119.612 128.3 67.7471
109.733 127.26 67.7527
108.423 127.322 68.1413
119.661 129.4 68.2176
119.562 130.412 66.7068
108.867 128.837 67.5344
107.681 129.173 68.4461
107.645 127.938 68.4046
110.026 128.661 67.2661
118.418 130.419 67.6689
117.81 130.787 66.2556
109.195 129.886 68.0022
109.972 129.818 67.3855
110.14 130.424 67.9312
113.982 130.471 66.7129
113.688 129.655 67.4367
112.945 130.612 67.1061
114.701 129.468 67.3104
115.674 130.059 67.2032
116.782 130.562 66.9428
110.938 130.954 67.11
111.881 130.827 67.2208
115.93 120.41 69.3788
114.792 120.306 69.9601
115.652 120.042 70.0779
116.517 119.823 69.897
117.452 120.883 68.9465
117.854 119.981 69.6248
118.718 121.573 68.7419
118.911 120.763 69.5797
119.58 122.234 69.137
119.944 121.687 69.849
112.407 121.775 69.5055
111.454 121.393 70.0857
112.481 120.931 70.086
113.493 120.644 69.9277
114.28 121.247 69.2034
115.732 121.415 68.8173
119.704 123.436 68.4736
120.266 123.69 69.1448
110.815 122.82 69.385
109.75 122.808 69.7979
110.589 122.033 70.0151
120.165 125.657 68.7405
108.959 123.944 69.1952
107.612 124.027 70.1239
108.81 123.035 70.1544
120.046 127.057 68.6583
107.884 125 69.2483
106.924 126.325 69.5868
106.969 125.167 70.5262
119.738 128.086 68.9685
107.482 126.819 68.8999
107.047 128.135 69.4307
119.327 128.77 69.4959
119.147 130.05 67.9342
107.253 129.267 69.3961
115.491 129.559 68.266
114.597 128.904 69.2508
114.282 129.097 68.3393
116.612 129.917 68.0739
115.832 129.195 69.0626
117.566 130.349 67.3864
117.263 129.682 68.7813
118.362 129.803 68.8154
108.588 130.092 68.6972
111.158 130.168 68.1832
110.117 130.058 68.9125
112.393 129.995 67.8042
112.062 129.426 68.4965
113.244 129.018 68.3586
115.372 119.335 70.6937
114.303 118.918 71.3381
115.375 118.528 71.2978
116.28 118.232 71.0399
116.972 119.06 70.3935
117.765 118.119 70.8833
118.405 119.345 70.333
119.181 118.795 71.0441
119.484 120.25 70.2931
120.123 120.472 70.913
112.315 120.242 70.7029
111.145 120.366 70.9391
111.814 119.169 71.6828
112.896 118.989 71.3827
113.798 119.932 70.6305
120.493 121.914 70.3416
110.458 121.393 70.7533
109.447 121.407 71.7351
110.293 120.66 71.5481
120.708 123.147 70.1461
120.535 124.328 69.6691
121.012 123.301 71.0872
109.257 122.018 70.6279
107.904 122.976 70.9408
108.592 122.114 71.8076
120.67 125.395 69.7728
120.879 124.441 70.8113
107.387 124.274 71.3861
120.455 125.723 70.5336
120.193 126.444 69.5675
106.481 127.074 70.4266
107.167 125.44 71.5045
119.74 127.201 70.0394
107.113 128.347 70.66
116.131 128.579 69.7288
115.141 127.652 70.7828
114.991 128.376 70.0621
117.528 128.888 69.6297
116.528 128.226 70.3861
118.745 128.999 69.2946
117.943 128.258 70.3601
118.828 127.744 70.3287
107.927 129.244 70.3793
111.248 129.084 69.2689
110.496 128.767 70.3166
109.816 129.365 69.6621
112.392 128.895 69.3651
111.55 128.418 70.4518
113.573 128.94 69.3295
112.852 128.378 70.3627
113.98 128.4 70.1936
108.614 129.886 69.5509
115.218 117.701 71.8449
114.28 117.27 72.5643
115.3 116.847 72.4161
116.163 116.558 72.2531
116.754 117.42 71.5745
117.654 116.465 71.9911
118.282 117.468 71.4326
119.07 116.97 72.2293
119.052 117.973 71.6548
119.794 118.212 71.9738
113.628 118.167 71.9585
112.471 117.895 72.5488
113.406 117.58 72.5336
120.168 119.554 71.6176
120.745 120.908 71.5169
120.92 120.233 72.4803
110.753 119.726 71.816
109.828 120.629 72.5458
110.827 119.084 72.8467
111.932 118.38 72.2761
120.957 122.154 71.1897
121.178 121.806 72.1637
109.199 121.91 73.0147
121.166 123.265 72.0673
107.975 123.378 72.09
108.765 122.879 73.0103
120.745 124.67 71.5982
108.142 124.911 72.4389
120.566 125.403 71.4662
119.938 126.377 71.0597
106.935 126.992 71.3644
107.756 126.126 72.4385
118.18 127.164 71.0852
117.25 126.455 72.008
117.244 127.433 71.2003
119.16 126.746 70.7991
118.654 126.531 71.727
107.758 127.656 71.7275
108.598 128.425 71.2665
110.269 128.215 71.1305
109.245 127.851 71.962
111.728 127.939 71.1701
110.679 127.732 72.0391
112.942 127.747 71.1427
111.951 127.461 72.1652
114.14 127.764 70.7954
113.559 127.392 71.6982
114.942 127.29 71.589
116.405 127.678 71.1061
109.205 129.048 70.6019
115.119 116.141 72.9574
114.334 116.084 73.4983
115.281 115.32 73.5114
116.272 115.006 73.2314
116.748 115.777 72.694
117.605 114.785 73.12
118.119 115.712 72.5035
118.923 115.024 73.3391
119.102 116.016 72.7953
119.878 116.261 73.2121
113.101 117.175 73.0278
112.496 117.198 73.61
113.569 116.679 73.5435
120.245 117.484 72.8738
120.595 118.936 72.5074
120.912 118.514 73.413
111.301 118.276 73.3019
111.213 118.61 74.2403
111.933 117.693 73.7522
121.159 120.254 73.257
110.05 120.397 73.5334
110.621 119.732 73.9238
121.242 121.93 73.052
109.845 121.834 73.7066
110.381 121.504 74.3263
120.758 123.73 72.613
108.958 124.372 73.1556
109.633 123.452 73.9522
120.25 125.209 72.0581
120.288 124.044 72.7459
119.645 124.885 72.8979
109.076 126.033 73.0937
109.801 125.233 73.6912
119.471 125.962 71.979
118.819 125.249 72.9401
118.258 125.907 72.5307
108.406 127.205 72.7113
109.873 127.302 72.6988
110.532 126.406 73.2824
111.161 126.95 72.9521
112.719 126.759 72.4579
112.052 126.37 73.3168
113.981 126.674 72.1871
113.289 126.074 73.0456
115.259 126.926 72.1345
114.46 126.22 72.8293
116.325 126.845 71.9145
115.698 126.213 72.7769
117.086 125.875 72.6873
117.102 113.421 74.1915
116.245 113.195 74.5458
117.182 112.756 74.7103
118.064 112.69 74.8815
118.462 113.678 74.259
119.092 113.286 75.0133
115.406 114.534 74.0159
114.247 114.896 74.4351
114.979 113.915 74.6899
116.78 114.174 73.5503
118.223 114.204 73.7461
119.538 114.32 74.531
119.907 115.347 74.0333
120.487 114.983 74.9599
120.936 116.126 74.4758
121.482 115.863 75.284
113.647 116.017 73.9701
112.588 116.106 74.398
113.162 115.314 74.7883
120.763 116.899 73.7327
121.323 117.397 74.4154
112.07 117.152 74.2801
111.688 117.208 75.0136
112.245 116.483 74.8254
121.227 118.919 74.1144
112.041 118.505 75.0717
111.683 119.475 74.8873
112.627 119.541 75.4979
121.236 120.459 73.9984
111.128 120.298 74.6201
112.057 120.538 75.3164
120.945 122.31 73.6387
110.709 123.279 74.4531
111.271 121.941 74.7025
120.258 123.73 73.2874
120.544 122.89 73.9646
119.525 123.717 73.9421
110.78 124.334 74.2718
112.046 123.386 74.5955
112.336 124.37 74.2764
113.936 124.497 73.9843
113.354 123.541 74.5092
115.269 124.453 73.8432
114.593 123.52 74.4863
116.582 124.611 73.8326
115.888 123.736 74.5221
117.823 124.558 73.7065
117.077 124 74.4456
118.921 124.598 73.4726
118.378 124.016 74.2378
111.019 125.699 73.8778
112.273 125.197 73.7447
113.59 125.267 73.3849
114.795 125.464 73.3772
116.021 125.252 73.2755
117.434 125.165 73.2659
117.332 112.069 75.2278
116.059 111.906 75.4876
116.955 110.909 75.8748
118.27 111.053 75.9383
118.967 112.332 75.7461
119.589 111.483 76.5435
119.868 113.18 75.9712
120.326 112.557 76.607
114.234 113.289 75.5624
113.201 113.117 76.0048
114.197 112.544 76.1472
115.075 112.122 76.0031
115.46 112.833 74.9942
119.967 113.946 75.3431
120.718 113.99 76.1
120.903 114.617 75.6889
121.484 114.894 76.4018
112.557 114.374 75.4877
111.692 114.99 76.298
112.05 113.602 76.2844
113.629 114.432 75.205
121.769 116.628 75.6685
112.047 115.773 75.2956
111.937 116.13 76.2366
121.566 118.035 75.2959
112.324 117.241 75.7545
112.338 118.063 75.3804
112.989 118.416 75.6189
121.26 119.331 74.9997
113.199 120.983 75.3983
113.267 119.479 75.577
114.342 120.227 75.6627
121.125 120.991 74.5788
112.079 121.513 75.0965
113.709 121.993 75.2072
114.48 121.3 75.4822
120.52 122.354 74.3374
120.421 121.478 75.0886
119.709 122.36 75.0125
112.476 122.589 74.8188
113.764 122.782 74.8716
115.109 122.051 75.2461
115.319 122.899 74.9083
116.949 123.242 75.002
116.282 122.146 75.411
118.265 123.316 74.8817
117.572 122.278 75.4647
119.446 123.294 74.6416
118.705 122.283 75.4062
115.738 110.312 76.7384
114.985 110.312 77.2424
115.807 109.641 77.381
116.676 109.452 77.4269
117.29 110.051 76.5309
118.015 109.368 77.4456
118.618 110.313 76.5717
119.159 109.85 77.5079
119.77 110.593 77.1631
120.541 110.956 78.0208
114.209 111.794 76.5397
112.798 112.094 77.053
113.914 111.073 77.3622
115.711 111.068 76.1646
120.65 111.827 77.321
121.082 113.434 76.776
121.125 113.542 77.2758
112.575 112.777 76.5656
111.245 113.809 77.1953
111.541 112.593 77.5692
121.205 115.499 76.9075
111.657 115.052 77.455
121.33 116.818 76.5473
112.539 115.947 77.03
113.234 117.054 76.2397
113.954 117.416 76.7171
113.564 116.476 77.1612
114.685 117.291 77.3892
121.261 118.265 76.0827
113.816 118.466 76.2094
114.597 118.366 76.887
120.715 119.292 75.9003
120.388 118.3 76.7968
119.988 119.26 76.5611
115.317 120.353 75.9878
114.435 119.332 76.2151
116.482 120.481 76.2749
115.668 119.466 76.496
116.921 119.451 76.884
119.712 120.459 76.0503
119.091 119.363 76.7651
118.619 120.424 76.3874
120.658 120.357 75.355
115.732 121.409 75.6733
116.894 121.349 75.8023
117.582 120.376 76.4703
118.228 121.376 75.9624
119.503 121.568 75.6649
116.027 108.819 77.9908
114.923 109.073 78.4478
115.754 108.185 78.9223
117.015 108.159 78.8876
117.602 108.497 78.1249
118.44 108.25 78.9869
118.958 108.741 78.1249
119.605 108.839 78.8968
119.851 109.928 78.2513
120.202 110.277 78.9825
112.886 110.576 78.2237
111.593 110.628 78.559
112.825 109.77 78.7829
113.891 109.473 78.6796
114.356 109.986 77.8125
120.755 111.742 78.7948
111.387 112.072 78.3037
110.644 112.005 79.09
110.447 110.711 78.9606
112.49 111.354 77.6784
121.197 112.353 77.992
120.93 113.757 77.8193
111.267 113.186 78.6288
111.614 113.889 78.3309
120.905 114.811 77.8012
120.675 113.919 78.3893
120.326 114.872 78.5931
112.442 114.81 78.2965
113.165 115.871 77.8861
114.513 116.494 78.1545
113.73 115.117 78.6412
115.653 116.928 78.2481
114.943 115.376 78.8098
115.952 115.66 78.8627
120.656 115.944 77.6802
119.905 116.14 78.2814
115.822 117.781 77.6056
116.66 116.617 78.4346
117.22 117.561 77.7649
118.654 117.46 77.8613
117.631 116.691 78.4795
119.956 117.204 77.6855
118.898 116.528 78.406
120.72 117.26 77.0929
115.449 118.784 77.0585
116.656 118.747 77.3589
117.902 118.272 77.3818
119.379 118.368 77.3954
118.112 119.225 77.042
114.948 107.752 79.6804
114.125 107.641 79.986
115.076 106.934 80.2123
116.111 106.731 80.1614
116.646 107.441 79.6246
117.672 106.605 80.3149
118.097 107.405 79.6321
118.937 106.893 80.5531
119.169 108.011 79.8359
119.654 108.179 80.6989
112.926 109.04 79.2472
112.337 108.705 79.8148
113.237 108.037 79.8612
114.521 108.436 79.1529
119.842 109.026 79.6823
120.18 110.59 79.6755
111.478 109.804 79.2278
109.897 110.7 79.8626
111.571 109.332 79.8036
120.357 111.68 79.7104
110.988 111.925 79.9198
120.573 113.137 78.7481
120.187 112.782 79.4409
111.576 112.805 79.3237
113.198 113.951 78.9102
112.553 113.352 79.2961
114.58 114.432 79.2736
113.831 113.616 79.6802
115.979 114.696 79.5181
115.224 113.761 80.0079
117.668 114.768 79.7427
116.654 113.855 80.1109
118.896 114.621 79.5329
118.085 113.74 80.2404
119.899 114.058 79.2366
119.253 113.43 80.0174
117.047 115.334 79.1293
118.236 115.633 78.8973
119.413 115.305 78.8707
115.198 106.293 80.7903
114.219 106.2 81.1283
115.171 105.637 81.4952
116.322 105.668 81.5648
116.732 106.4 80.886
117.551 106.362 81.7614
117.921 106.836 81.2074
118.511 107.267 82.1541
113.519 107.406 80.4057
112.507 107.582 80.6469
113.359 106.712 81.004
119.128 107.252 81.4603
119.712 108.388 81.6561
110.483 109.34 80.1968
109.782 109.486 80.9277
110.562 108.227 80.6651
111.52 107.607 80.7853
111.395 108.761 79.9882
120 109.593 80.5173
119.669 109.788 81.2129
109.957 110.65 80.518
111.704 111.701 80.512
111.244 110.991 80.9747
113.257 112.094 80.6654
112.923 111.255 81.2562
114.24 111.793 81.4794
119.84 111.038 80.6273
119.146 111.516 81.1792
112.192 112.642 79.9688
113.466 112.892 80.2042
114.587 112.213 80.9868
114.996 112.89 80.5672
116.349 113.108 80.6673
115.773 112.143 81.2609
117.682 113.133 80.6898
116.852 112.252 81.2538
119.222 112.487 80.7199
118.104 112.214 81.2073
119.935 112.432 80.1675
114.814 105.04 82.1165
113.58 105.223 82.2764
114.164 104.527 83.1936
115.354 104.499 82.9512
116.275 105.12 82.2207
116.527 105.251 83.1012
113.45 106.052 81.5725
112.527 105.945 82.1309
113.148 105.619 82.3221
117.491 106.025 82.4413
117.904 106.951 82.9292
110.512 107.728 81.3033
109.376 108.319 81.6666
110.209 106.861 81.7748
111.256 106.307 81.8227
112.211 106.976 81.3205
119.159 108.615 82.4475
118.407 108.408 82.9793
109.996 109.696 82.0673
110.328 110.488 81.2643
111.56 110.258 81.7305
111.54 109.992 82.5061
112.691 110.382 82.4623
118.369 110.178 82.5057
118.024 109.753 82.9807
117.001 110.764 82.5885
119.255 109.741 81.9297
112.642 110.816 81.749
115.502 111.737 81.8392
113.957 111.239 82.0664
116.988 111.375 82.0355
115.434 111.072 82.3585
117.817 111.45 81.8501
118.786 110.818 81.701
113.105 104.87 83.0249
112.175 104.972 83.2502
113.116 104.839 84.2027
114.458 104.847 84.1131
115.666 104.968 83.9257
116.334 105.931 84.1168
109.971 106.401 82.2498
109.298 106.262 82.6411
110.237 105.669 83.0566
111.167 105.301 83.0381
111.638 105.751 82.426
116.926 106.277 83.4068
117.577 107.603 83.5377
108.695 107.808 81.9723
108.545 108.095 83.1549
108.706 106.586 82.6057
117.567 109.163 83.2497
117.117 108.344 83.6691
116.53 109.335 83.5451
109.479 108.978 82.6451
110.47 109.198 83.0663
111.388 109.62 83.1469
113.794 110.745 82.7186
112.705 109.992 83.2509
115.199 110.716 82.9758
113.996 110.164 83.4894
116.533 110.337 83.0058
115.386 109.873 83.6551
110.514 105.059 83.8557
109.462 105.106 83.7758
110.5 104.92 85.0002
111.835 104.849 84.855
111.847 104.939 83.8774
112.862 105.094 85.3434
113.998 105.18 85.0394
115.245 105.33 84.8896
115.847 106.281 84.7928
108.054 106.397 83.1819
107.267 106.116 83.8858
107.923 105.323 84.0176
108.595 105.024 84.0302
108.707 105.999 82.8971
116.746 107.366 84.0888
116.13 107.792 84.4777
108.423 107.359 84.0227
109.949 108.635 83.6203
109.493 107.951 84.2824
111.167 108.666 83.9184
110.535 108.276 84.5755
112.376 109.125 83.9196
111.66 108.445 84.81
113.586 109.276 83.9781
112.663 108.633 84.8238
114.777 109.348 84.084
113.548 108.571 84.9243
116.096 108.622 83.9355
114.933 108.496 84.6354
107.647 104.804 84.6652
106.378 104.798 85.8384
108.436 105.243 85.963
109.476 105.136 85.5509
109.317 104.761 84.6085
110.548 105.482 86.024
111.519 105.43 85.8181
112.561 105.684 86.222
113.8 105.571 86.0527
114.922 106.164 85.3738
114.475 106.575 85.9986
106.47 105.535 84.4585
106.503 106.909 84.8481
105.711 105.787 85.9481
115.059 107.96 85.3277
114.228 107.346 86.2218
113.744 108.231 85.6218
115.68 107.309 84.9985
107.426 107.329 84.5341
108.22 107.482 85.0802
109.174 107.652 85.1324
110.245 107.861 85.3901
111.343 108.088 85.5096
112.382 108.339 85.8605
107.277 105.47 86.5409
108.688 105.964 86.5807
109.437 106.043 86.41
110.395 106.059 86.6211
111.486 105.99 86.8125
112.658 106.501 86.9395
112.044 107.282 87.2727
113.495 106.451 86.719
106.75 107.173 85.769
106.682 106.254 86.5114
113.047 107.978 86.6354
111.813 108.288 86.8906
107.396 107.242 85.8683
108.384 107.876 85.9419
109.599 107.945 86.187
110.842 108.202 86.4721
107.955 106.793 86.8227
109.123 106.877 87.2383
110.043 106.855 87.4276
111.053 106.692 87.4313
107.497 107.609 86.5206
108.589 108.076 87.0265
109.844 108.16 87.3032
110.906 107.872 87.6015
POLYGONS 1460  5840
3 0 1 2
3 0 3 4
3 2 3 0
3 4 5 6
3 3 5 4
3 5 7 6
3 8 1 0
3 9 1 8
3 4 10 0
3 10 8 0
3 6 11 4
3 11 10 4
3 12 6 7
3 11 6 12
3 13 14 15
3 9 13 15
3 9 8 13
3 8 16 13
3 10 17 8
3 17 16 8
3 11 18 10
3 18 17 10
3 19 11 12
3 18 11 19
3 20 14 13
3 21 14 20
3 16 22 13
3 22 20 13
3 23 17 24
3 23 22 17
3 22 16 17
3 18 24 17
3 25 24 18
3 19 25 18
3 20 26 21
3 22 26 20
3 27 26 22
3 23 27 22
3 28 29 30
3 28 31 32
3 30 31 28
3 32 33 34
3 31 33 32
3 34 35 36
3 33 35 34
3 35 37 36
3 38 39 40
3 29 38 40
3 28 38 29
3 28 1 38
3 28 2 1
3 3 2 28
3 32 3 28
3 5 3 32
3 34 5 32
3 7 5 34
3 7 34 41
3 41 34 36
3 42 36 37
3 41 36 42
3 43 44 45
3 39 43 45
3 39 38 43
3 38 46 43
3 1 9 46
3 38 1 46
3 41 47 12
3 7 41 12
3 48 41 42
3 47 41 48
3 49 44 43
3 50 44 49
3 15 14 49
3 15 49 46
3 46 49 43
3 9 15 46
3 47 51 52
3 47 52 12
3 12 52 19
3 48 51 47
3 53 50 49
3 54 50 53
3 14 21 53
3 49 14 53
3 55 56 57
3 55 23 24
3 55 24 56
3 56 24 58
3 25 59 24
3 24 59 58
3 52 25 19
3 59 25 52
3 53 60 54
3 21 60 53
3 21 26 60
3 26 61 60
3 57 27 55
3 57 61 27
3 61 26 27
3 23 55 27
3 62 63 64
3 62 65 66
3 64 65 62
3 65 67 66
3 68 69 70
3 68 71 72
3 70 71 68
3 72 73 74
3 71 73 72
3 63 74 73
3 63 62 74
3 62 75 74
3 66 76 62
3 76 75 62
3 77 66 67
3 77 78 66
3 78 76 66
3 77 79 78
3 80 81 82
3 69 80 82
3 69 68 80
3 68 83 80
3 30 29 83
3 30 83 72
3 72 83 68
3 31 30 72
3 74 31 72
3 33 31 74
3 75 33 74
3 35 33 75
3 76 35 75
3 37 35 76
3 37 76 84
3 84 76 78
3 85 78 79
3 84 78 85
3 86 87 88
3 81 86 88
3 81 80 86
3 80 89 86
3 40 39 89
3 40 89 83
3 83 89 80
3 29 40 83
3 84 90 42
3 37 84 42
3 91 84 85
3 90 84 91
3 92 87 86
3 93 87 92
3 45 44 92
3 45 92 89
3 89 92 86
3 39 45 89
3 90 94 95
3 90 95 42
3 42 95 48
3 91 94 90
3 96 97 98
3 93 96 98
3 93 92 96
3 92 99 96
3 44 50 99
3 92 44 99
3 51 100 101
3 52 51 101
3 95 51 48
3 100 51 95
3 96 102 97
3 102 103 104
3 102 96 103
3 96 99 103
3 50 54 103
3 99 50 103
3 105 106 107
3 105 57 56
3 105 56 106
3 106 56 108
3 58 109 56
3 56 109 108
3 59 110 58
3 58 110 109
3 101 59 52
3 110 59 101
3 103 111 104
3 54 111 103
3 54 60 111
3 60 112 111
3 107 61 105
3 107 112 61
3 112 60 61
3 57 105 61
3 113 114 115
3 113 116 117
3 115 116 113
3 117 118 119
3 116 118 117
3 119 120 121
3 118 120 119
3 120 122 121
3 123 124 125
3 123 126 127
3 125 126 123
3 114 127 126
3 114 113 127
3 113 128 127
3 64 63 128
3 64 128 117
3 117 128 113
3 65 64 117
3 119 65 117
3 67 65 119
3 67 119 129
3 129 119 121
3 130 121 122
3 129 121 130
3 131 132 133
3 124 131 133
3 123 131 124
3 123 69 131
3 123 70 69
3 71 70 123
3 127 71 123
3 73 71 127
3 128 73 127
3 63 73 128
3 67 129 77
3 129 79 77
3 129 130 79
3 130 134 79
3 135 136 137
3 132 135 137
3 131 135 132
3 131 81 135
3 131 82 81
3 69 82 131
3 79 134 85
3 134 138 85
3 139 140 141
3 136 139 141
3 135 139 136
3 135 87 139
3 135 88 87
3 81 88 135
3 85 138 91
3 138 142 91
3 143 140 139
3 144 140 143
3 87 93 143
3 139 87 143
3 94 145 146
3 95 94 146
3 142 94 91
3 145 94 142
3 98 144 143
3 98 97 144
3 97 147 144
3 93 98 143
3 148 149 150
3 148 151 152
3 149 148 152
3 151 153 154
3 152 151 154
3 153 101 100
3 153 100 154
3 154 100 155
3 146 100 95
3 155 100 146
3 97 156 147
3 102 156 97
3 104 157 158
3 104 158 102
3 102 158 156
3 157 159 160
3 158 157 160
3 159 107 106
3 159 106 160
3 160 106 161
3 150 108 148
3 150 161 108
3 161 106 108
3 109 148 108
3 151 148 109
3 110 151 109
3 153 151 110
3 101 153 110
3 104 111 157
3 112 157 111
3 159 157 112
3 107 159 112
3 162 163 164
3 162 165 166
3 164 165 162
3 166 167 168
3 165 167 166
3 168 169 170
3 167 169 168
3 169 171 170
3 172 173 174
3 172 175 176
3 174 175 172
3 163 176 175
3 162 176 163
3 162 114 176
3 162 115 114
3 116 115 162
3 166 116 162
3 118 116 166
3 168 118 166
3 120 118 168
3 170 120 168
3 170 122 120
3 170 171 122
3 171 177 122
3 178 179 180
3 173 178 180
3 172 178 173
3 172 124 178
3 172 125 124
3 126 125 172
3 176 126 172
3 114 126 176
3 181 182 130
3 181 130 177
3 177 130 122
3 181 183 182
3 184 185 186
3 179 184 186
3 178 184 179
3 178 132 184
3 178 133 132
3 124 133 178
3 182 187 134
3 130 182 134
3 188 182 183
3 187 182 188
3 137 185 184
3 137 136 185
3 136 189 185
3 132 137 184
3 187 190 191
3 187 191 134
3 134 191 138
3 188 190 187
3 141 192 193
3 140 192 141
3 189 136 141
3 193 189 141
3 138 191 142
3 191 194 142
3 140 144 192
3 192 144 195
3 196 197 198
3 196 199 200
3 197 196 200
3 199 201 202
3 200 199 202
3 201 146 145
3 201 145 202
3 202 145 203
3 194 145 142
3 203 145 194
3 144 147 195
3 195 147 204
3 205 206 207
3 205 208 209
3 206 205 209
3 208 210 211
3 209 208 211
3 210 150 149
3 210 149 211
3 211 149 212
3 198 152 196
3 198 212 152
3 212 149 152
3 154 196 152
3 199 196 154
3 155 199 154
3 201 199 155
3 146 201 155
3 147 213 204
3 156 213 147
3 207 158 205
3 207 213 158
3 213 156 158
3 160 205 158
3 208 205 160
3 161 208 160
3 210 208 161
3 150 210 161
3 214 215 216
3 214 217 218
3 216 217 214
3 218 219 220
3 217 219 218
3 220 221 222
3 219 221 220
3 221 223 222
3 224 225 226
3 215 224 226
3 214 224 215
3 214 163 224
3 214 164 163
3 165 164 214
3 218 165 214
3 167 165 218
3 220 167 218
3 169 167 220
3 222 169 220
3 171 227 228
3 169 227 171
3 169 223 227
3 169 222 223
3 227 229 228
3 230 231 232
3 230 174 173
3 230 232 174
3 232 233 174
3 225 224 175
3 225 175 233
3 233 175 174
3 163 175 224
3 228 234 177
3 171 228 177
3 235 228 229
3 234 228 235
3 180 231 230
3 180 179 231
3 179 236 231
3 173 180 230
3 177 234 181
3 234 183 181
3 234 235 183
3 235 237 183
3 186 238 239
3 185 238 186
3 236 179 186
3 239 236 186
3 183 237 188
3 237 240 188
3 185 189 238
3 238 189 241
3 190 242 243
3 191 190 243
3 240 190 188
3 242 190 240
3 193 244 245
3 192 244 193
3 241 189 193
3 245 241 193
3 246 247 248
3 246 249 250
3 247 246 250
3 249 243 250
3 249 194 243
3 194 191 243
3 251 195 252
3 251 244 195
3 244 192 195
3 252 253 254
3 251 252 254
3 253 255 256
3 254 253 256
3 255 257 258
3 256 255 258
3 257 259 260
3 258 257 260
3 259 198 197
3 259 197 260
3 260 197 261
3 200 262 197
3 197 262 261
3 248 202 246
3 248 262 202
3 262 200 202
3 203 246 202
3 249 246 203
3 194 249 203
3 252 204 263
3 195 204 252
3 206 263 207
3 206 253 263
3 253 252 263
3 209 253 206
3 255 253 209
3 211 255 209
3 257 255 211
3 212 257 211
3 259 257 212
3 198 259 212
3 204 213 263
3 207 263 213
3 264 265 266
3 264 267 268
3 266 267 264
3 268 269 270
3 267 269 268
3 270 271 272
3 269 271 270
3 271 273 272
3 274 275 276
3 265 274 276
3 264 274 265
3 264 215 274
3 264 216 215
3 217 216 264
3 268 217 264
3 219 217 268
3 270 219 268
3 221 219 270
3 272 221 270
3 223 277 278
3 221 277 223
3 221 273 277
3 221 272 273
3 277 279 278
3 280 281 282
3 275 280 282
3 274 280 275
3 274 225 280
3 274 226 225
3 215 226 274
3 223 278 227
3 278 229 227
3 278 279 229
3 279 283 229
3 232 231 284
3 280 285 281
3 280 232 285
3 280 233 232
3 284 285 232
3 225 233 280
3 229 283 235
3 283 286 235
3 284 287 288
3 284 231 287
3 231 236 287
3 285 284 288
3 235 286 237
3 286 289 237
3 239 238 290
3 239 290 291
3 239 291 236
3 236 291 287
3 292 293 294
3 292 289 293
3 292 240 289
3 240 237 289
3 290 241 295
3 238 241 290
3 296 291 290
3 295 296 290
3 297 298 299
3 294 298 297
3 292 294 297
3 292 297 243
3 292 243 242
3 240 292 242
3 245 244 300
3 245 295 241
3 245 300 295
3 300 301 295
3 302 296 295
3 302 295 303
3 303 295 301
3 303 304 305
3 302 303 305
3 304 306 307
3 305 304 307
3 306 308 309
3 307 306 309
3 308 310 311
3 309 308 311
3 310 248 247
3 310 247 311
3 311 247 312
3 299 250 297
3 299 312 250
3 312 247 250
3 243 297 250
3 244 251 300
3 254 300 251
3 301 300 254
3 256 301 254
3 303 301 256
3 258 303 256
3 304 303 258
3 260 304 258
3 306 304 260
3 261 306 260
3 308 306 261
3 262 308 261
3 310 308 262
3 248 310 262
3 313 314 315
3 313 316 317
3 315 316 313
3 316 318 317
3 319 320 321
3 314 319 321
3 314 313 319
3 313 322 319
3 317 323 313
3 323 322 313
3 324 317 318
3 324 325 317
3 325 323 317
3 325 326 327
3 324 326 325
3 326 328 327
3 329 330 331
3 320 329 331
3 319 329 320
3 319 265 329
3 319 266 265
3 267 266 319
3 322 267 319
3 269 267 322
3 323 269 322
3 271 269 323
3 325 271 323
3 273 271 325
3 273 325 332
3 332 325 327
3 333 327 328
3 332 327 333
3 334 335 336
3 330 334 336
3 329 334 330
3 329 275 334
3 329 276 275
3 265 276 329
3 273 332 277
3 332 279 277
3 332 333 279
3 333 337 279
3 338 281 339
3 338 335 281
3 282 281 334
3 334 281 335
3 282 334 275
3 339 340 338
3 279 337 283
3 337 341 283
3 339 342 343
3 339 281 342
3 281 285 342
3 340 339 343
3 283 341 286
3 341 344 286
3 288 287 345
3 288 345 346
3 288 346 285
3 285 346 342
3 347 348 349
3 347 344 348
3 347 289 344
3 289 286 344
3 345 291 350
3 287 291 345
3 351 346 345
3 351 345 352
3 352 345 350
3 352 353 354
3 351 352 354
3 353 355 356
3 354 353 356
3 355 357 358
3 356 355 358
3 357 359 360
3 358 357 360
3 359 361 362
3 360 359 362
3 349 362 361
3 347 349 361
3 347 361 294
3 347 294 293
3 289 347 293
3 350 296 363
3 291 296 350
3 352 350 364
3 364 350 363
3 353 352 365
3 365 352 364
3 355 353 366
3 366 353 365
3 357 355 367
3 367 355 366
3 359 357 368
3 368 357 367
3 298 368 299
3 298 361 368
3 361 359 368
3 294 361 298
3 296 302 363
3 305 363 302
3 364 363 305
3 307 364 305
3 365 364 307
3 309 365 307
3 366 365 309
3 311 366 309
3 367 366 311
3 312 367 311
3 368 367 312
3 299 368 312
3 369 370 371
3 369 372 373
3 371 372 369
3 373 374 375
3 372 374 373
3 374 376 375
3 377 378 379
3 377 380 381
3 379 380 377
3 370 381 380
3 369 381 370
3 369 314 381
3 369 315 314
3 316 315 369
3 373 316 369
3 318 316 373
3 318 373 382
3 382 373 375
3 383 375 376
3 383 384 375
3 384 382 375
3 383 385 384
3 386 387 388
3 378 386 388
3 378 377 386
3 377 389 386
3 321 320 389
3 321 389 381
3 381 389 377
3 314 321 381
3 318 382 324
3 326 324 382
3 384 326 382
3 384 328 326
3 384 385 328
3 385 390 328
3 391 387 386
3 392 387 391
3 331 330 391
3 331 391 389
3 389 391 386
3 320 331 389
3 328 390 333
3 390 393 333
3 394 335 395
3 394 392 335
3 336 335 391
3 391 335 392
3 336 391 330
3 395 396 394
3 333 393 337
3 393 397 337
3 335 338 395
3 340 398 399
3 338 340 399
3 338 399 396
3 338 396 395
3 399 398 400
3 337 397 341
3 397 401 341
3 343 342 402
3 343 398 340
3 343 402 398
3 402 403 398
3 404 400 398
3 403 404 398
3 405 406 407
3 405 401 406
3 405 344 401
3 344 341 401
3 402 346 408
3 342 346 402
3 403 402 409
3 409 402 408
3 410 404 403
3 410 403 411
3 411 403 409
3 411 412 413
3 410 411 413
3 412 414 415
3 413 412 415
3 414 416 417
3 415 414 417
3 407 417 416
3 405 407 416
3 405 416 349
3 405 349 348
3 344 405 348
3 346 351 408
3 354 408 351
3 409 408 354
3 356 409 354
3 411 409 356
3 358 411 356
3 412 411 358
3 360 412 358
3 414 412 360
3 362 414 360
3 416 414 362
3 349 416 362
3 418 419 420
3 418 421 422
3 420 421 418
3 422 423 424
3 421 423 422
3 424 425 426
3 423 425 424
3 425 427 426
3 428 429 430
3 419 428 430
3 419 418 428
3 418 431 428
3 371 370 431
3 371 431 422
3 422 431 418
3 372 371 422
3 424 372 422
3 374 372 424
3 426 374 424
3 376 432 433
3 374 432 376
3 374 427 432
3 374 426 427
3 432 434 433
3 435 436 437
3 429 435 437
3 428 435 429
3 428 378 435
3 428 379 378
3 380 379 428
3 431 380 428
3 370 380 431
3 376 433 383
3 433 385 383
3 433 434 385
3 434 438 385
3 388 436 435
3 388 387 436
3 387 439 436
3 378 388 435
3 385 438 390
3 438 440 390
3 441 392 442
3 441 439 392
3 439 387 392
3 442 443 444
3 441 442 444
3 444 443 445
3 390 440 393
3 440 446 393
3 392 394 442
3 396 442 394
3 396 447 442
3 447 443 442
3 448 445 443
3 447 448 443
3 449 450 451
3 449 446 450
3 449 397 446
3 397 393 446
3 396 399 447
3 400 452 453
3 399 400 453
3 399 453 448
3 399 448 447
3 452 454 455
3 453 452 455
3 455 454 456
3 457 458 459
3 451 458 457
3 451 457 449
3 449 457 460
3 397 460 401
3 449 460 397
3 452 404 461
3 400 404 452
3 454 452 462
3 462 452 461
3 463 456 454
3 463 454 464
3 464 454 462
3 459 463 464
3 459 464 457
3 457 464 465
3 406 465 407
3 406 460 465
3 460 457 465
3 401 460 406
3 404 410 461
3 413 461 410
3 462 461 413
3 415 462 413
3 464 462 415
3 417 464 415
3 465 464 417
3 407 465 417
3 466 467 468
3 466 469 470
3 468 469 466
3 470 471 472
3 469 471 470
3 472 473 474
3 471 473 472
3 473 475 474
3 476 477 478
3 476 479 480
3 478 479 476
3 467 480 479
3 466 480 467
3 466 419 480
3 466 420 419
3 421 420 466
3 470 421 466
3 423 421 470
3 472 423 470
3 425 423 472
3 474 425 472
3 474 427 425
3 474 475 427
3 475 481 427
3 482 483 484
3 477 482 484
3 477 476 482
3 476 485 482
3 430 429 485
3 430 485 480
3 480 485 476
3 419 430 480
3 427 481 486
3 432 427 486
3 486 434 432
3 487 434 486
3 482 488 483
3 437 436 489
3 437 489 482
3 437 482 485
3 482 489 488
3 429 437 485
3 490 491 492
3 490 487 491
3 490 438 487
3 438 434 487
3 493 439 494
3 493 489 439
3 489 436 439
3 494 495 496
3 493 494 496
3 495 497 498
3 496 495 498
3 498 497 499
3 500 490 492
3 501 500 492
3 438 500 440
3 490 500 438
3 439 441 494
3 444 494 441
3 495 494 444
3 445 495 444
3 445 502 495
3 502 497 495
3 503 499 497
3 503 497 504
3 504 497 502
3 504 505 506
3 503 504 506
3 505 507 508
3 506 505 508
3 501 508 507
3 501 507 500
3 500 507 509
3 440 509 446
3 500 509 440
3 502 448 510
3 445 448 502
3 504 502 511
3 511 502 510
3 505 504 512
3 512 504 511
3 507 505 513
3 513 505 512
3 450 513 451
3 450 509 513
3 509 507 513
3 446 509 450
3 448 453 510
3 455 510 453
3 511 510 455
3 456 511 455
3 456 514 511
3 514 512 511
3 458 514 459
3 458 513 514
3 513 512 514
3 451 513 458
3 456 463 514
3 459 514 463
3 515 516 517
3 515 518 519
3 517 518 515
3 519 520 521
3 518 520 519
3 521 522 523
3 520 522 521
3 522 524 523
3 525 526 527
3 516 525 527
3 516 515 525
3 515 528 525
3 468 467 528
3 468 528 519
3 519 528 515
3 469 468 519
3 521 469 519
3 471 469 521
3 523 471 521
3 523 524 529
3 523 529 471
3 471 529 473
3 529 475 473
3 530 475 529
3 531 532 533
3 526 531 533
3 525 531 526
3 525 477 531
3 525 478 477
3 479 478 525
3 528 479 525
3 467 479 528
3 475 530 481
3 530 534 481
3 484 532 531
3 484 483 532
3 483 535 532
3 477 484 531
3 536 486 481
3 536 481 537
3 537 481 534
3 486 536 487
3 483 538 535
3 488 538 483
3 489 539 540
3 489 540 488
3 488 540 538
3 539 541 542
3 540 539 542
3 541 543 544
3 542 541 544
3 543 545 546
3 544 543 546
3 545 547 548
3 546 545 548
3 547 549 550
3 548 547 550
3 537 550 549
3 536 537 549
3 536 549 492
3 536 492 491
3 487 536 491
3 489 493 539
3 496 539 493
3 541 539 496
3 498 541 496
3 543 541 498
3 499 543 498
3 499 551 543
3 551 545 543
3 547 545 552
3 552 545 551
3 549 547 553
3 553 547 552
3 492 553 501
3 549 553 492
3 499 503 551
3 506 551 503
3 552 551 506
3 508 552 506
3 553 552 508
3 501 553 508
3 554 555 556
3 554 557 558
3 556 557 554
3 558 559 560
3 557 559 558
3 559 561 560
3 562 563 564
3 555 562 564
3 554 562 555
3 554 516 562
3 554 517 516
3 518 517 554
3 558 518 554
3 520 518 558
3 560 520 558
3 560 561 565
3 560 565 520
3 520 565 522
3 565 524 522
3 566 524 565
3 567 568 569
3 567 570 571
3 569 570 567
3 563 571 570
3 562 571 563
3 562 526 571
3 562 527 526
3 516 527 562
3 572 529 524
3 572 524 573
3 573 524 566
3 529 572 530
3 567 574 568
3 571 532 567
3 571 533 532
3 567 532 574
3 575 576 532
3 574 532 576
3 575 577 578
3 575 578 576
3 571 526 533
3 578 577 579
3 580 572 573
3 581 580 573
3 530 580 534
3 572 580 530
3 575 535 582
3 532 535 575
3 577 575 583
3 583 575 582
3 584 579 577
3 584 577 585
3 585 577 583
3 585 586 587
3 584 585 587
3 586 588 589
3 587 586 589
3 588 590 591
3 589 588 591
3 581 591 590
3 581 590 580
3 580 590 592
3 534 592 537
3 580 592 534
3 535 538 582
3 540 582 538
3 583 582 540
3 542 583 540
3 585 583 542
3 544 585 542
3 586 585 544
3 546 586 544
3 588 586 546
3 548 588 546
3 590 588 548
3 550 590 548
3 592 590 550
3 537 592 550
3 593 594 595
3 593 596 597
3 595 596 593
3 596 598 597
3 599 600 601
3 594 599 601
3 593 599 594
3 593 555 599
3 593 556 555
3 557 556 593
3 597 557 593
3 597 598 602
3 597 602 557
3 557 602 559
3 602 561 559
3 603 561 602
3 604 605 606
3 604 607 608
3 606 607 604
3 600 608 607
3 599 608 600
3 599 563 608
3 599 564 563
3 555 564 599
3 609 565 561
3 609 561 610
3 610 561 603
3 565 609 566
3 611 568 612
3 611 605 568
3 569 568 604
3 604 568 605
3 613 614 611
3 613 611 612
3 608 570 604
3 604 570 569
3 570 608 563
3 613 615 614
3 616 617 618
3 610 617 616
3 610 616 609
3 609 616 619
3 566 619 573
3 609 619 566
3 568 574 612
3 576 612 574
3 613 612 576
3 613 620 615
3 613 576 620
3 576 578 620
3 579 621 622
3 579 622 578
3 578 622 620
3 621 623 624
3 622 621 624
3 618 624 623
3 618 623 616
3 616 623 625
3 619 616 626
3 626 616 625
3 573 626 581
3 619 626 573
3 579 584 621
3 587 621 584
3 623 621 587
3 589 623 587
3 625 623 589
3 591 625 589
3 626 625 591
3 581 626 591
3 627 628 629
3 627 595 594
3 627 629 595
3 629 630 595
3 596 595 631
3 595 630 631
3 631 598 596
3 632 598 631
3 633 634 635
3 633 636 637
3 635 636 633
3 628 637 636
3 627 637 628
3 627 600 637
3 627 601 600
3 594 601 627
3 598 632 638
3 602 598 638
3 638 603 602
3 639 603 638
3 640 641 642
3 634 640 642
3 633 640 634
3 633 605 640
3 633 606 605
3 607 606 633
3 637 607 633
3 600 607 637
3 643 644 645
3 643 639 644
3 643 610 639
3 610 603 639
3 640 646 641
3 605 646 640
3 605 611 646
3 611 647 646
3 614 648 611
3 611 648 647
3 615 649 650
3 615 650 614
3 614 650 648
3 649 651 652
3 650 649 652
3 651 653 654
3 652 651 654
3 645 654 653
3 643 645 653
3 643 653 618
3 643 618 617
3 610 643 617
3 615 620 649
3 622 649 620
3 651 649 622
3 624 651 622
3 653 651 624
3 618 653 624
3 655 656 657
3 655 658 659
3 657 658 655
3 659 629 628
3 659 658 629
3 658 660 629
3 630 629 661
3 629 660 661
3 631 630 662
3 630 661 662
3 662 632 631
3 663 632 662
3 664 665 666
3 664 667 668
3 666 667 664
3 656 668 667
3 655 668 656
3 655 634 668
3 655 635 634
3 636 635 655
3 659 636 655
3 628 636 659
3 669 638 632
3 669 632 670
3 670 632 663
3 638 669 639
3 664 671 665
3 668 641 664
3 668 642 641
3 664 641 671
3 672 673 641
3 671 641 673
3 672 674 675
3 672 675 673
3 668 634 642
3 674 676 677
3 675 674 677
3 676 678 679
3 677 676 679
3 678 680 681
3 679 678 681
3 680 682 683
3 681 680 683
3 670 683 682
3 669 670 682
3 669 682 645
3 669 645 644
3 639 669 644
3 641 646 672
3 647 672 646
3 674 672 647
3 648 674 647
3 676 674 648
3 650 676 648
3 678 676 650
3 652 678 650
3 680 678 652
3 654 680 652
3 682 680 654
3 645 682 654
3 684 685 686
3 684 687 688
3 686 687 684
3 688 657 656
3 688 687 657
3 687 689 657
3 658 657 690
3 657 689 690
3 660 658 691
3 658 690 691
3 661 660 692
3 660 691 692
3 693 692 694
3 693 662 692
3 662 661 692
3 662 693 663
3 695 696 697
3 685 695 697
3 684 695 685
3 684 665 695
3 684 666 665
3 667 666 684
3 688 667 684
3 656 667 688
3 698 699 700
3 694 699 698
3 694 698 693
3 693 698 701
3 663 701 670
3 693 701 663
3 695 702 696
3 665 702 695
3 665 671 702
3 671 703 702
3 673 704 671
3 671 704 703
3 675 705 673
3 673 705 704
3 677 706 675
3 675 706 705
3 679 707 677
3 677 707 706
3 700 681 698
3 700 707 681
3 707 679 681
3 683 698 681
3 701 698 683
3 670 701 683
3 686 708 709
3 685 708 686
3 687 686 710
3 686 709 710
3 689 687 711
3 687 710 711
3 690 689 712
3 689 711 712
3 713 712 714
3 713 691 712
3 691 690 712
3 691 715 692
3 713 715 691
3 692 715 694
3 697 696 716
3 697 716 717
3 697 717 685
3 685 717 708
3 718 713 714
3 719 718 714
3 699 718 700
3 699 715 718
3 715 713 718
3 694 715 699
3 696 702 716
3 716 720 717
3 716 702 720
3 702 703 720
3 704 721 703
3 703 721 720
3 705 722 704
3 704 722 721
3 706 723 705
3 705 723 722
3 719 707 718
3 719 723 707
3 723 706 707
3 700 718 707
3 709 708 724
3 709 725 710
3 724 725 709
3 710 726 711
3 725 726 710
3 711 727 712
3 726 727 711
3 712 727 714
3 724 717 728
3 708 717 724
3 725 724 729
3 729 724 728
3 726 725 730
3 730 725 729
3 727 726 731
3 731 726 730
3 714 731 719
3 727 731 714
3 717 720 728
3 721 728 720
3 729 728 721
3 722 729 721
3 730 729 722
3 723 730 722
3 731 730 723
3 719 731 723
