# vtk DataFile Version 3.0
this file was written using fslvtkio
ASCII
DATASET POLYDATA
POINTS 642 float
88.4812 135.922 74.2936
80.2791 133.701 75.1152
78.0949 125.933 77.6659
84.8272 129.019 76.5677
85.0947 133.829 79.0482
85.7421 129.909 72.7382
80.4788 128.78 73.5932
81.05 132.247 79.6492
84.0801 139.451 76.5039
81.4238 125.822 80.9154
81.4598 123.062 76.3327
84.1697 136.148 71.6938
82.6133 136.276 78.5192
85.4503 137.598 78.6475
83.004 133.483 80.7228
80.64 128.956 81.3718
83.1439 129.889 80.0115
82.2781 132.75 72.4069
83.0309 129.276 73.2114
85.6184 133.376 72.0763
80.3355 125.222 74.8248
83.56 126.347 74.4895
84.8937 131.417 77.7466
87.1184 135.725 76.9637
87.2221 132.209 75.4066
85.8751 129.17 74.502
88.0867 132.794 72.756
80.3163 133.376 77.4845
79.2545 128.743 79.1164
78.7252 129.845 76.1972
79.7621 131.512 73.6703
78.2744 126.472 75.0428
87.4684 137.264 71.9747
87.2144 139.295 75.0509
84.5492 138.883 73.399
81.7401 135.54 72.9697
82.1918 136.786 75.6656
83.7782 125.182 76.7926
80.8459 122.555 79.1132
83.2306 126.75 78.809
78.1489 122.173 76.9764
78.8712 124.609 80.3471
83.8395 137.49 78.9847
84.3234 135.874 80.032
82.7414 135.385 79.9878
84.2069 133.768 80.0365
85.6425 135.722 79.2378
84.8498 138.94 77.6563
83.4099 138.011 77.5779
81.7216 134.378 79.1917
81.798 133.084 80.4439
81.8054 131.319 81.2356
83.1913 131.636 80.6097
82.0598 129.415 81.0998
84.0583 131.959 79.5176
80.8259 130.645 80.5407
80.9968 127.214 81.452
82.2978 127.79 80.5359
82.8072 131.14 72.8835
84.3222 131.47 72.512
83.9062 133.11 72.2003
85.7504 131.651 72.2886
84.3996 129.691 72.9118
81.6945 128.956 73.4291
81.4295 130.821 73.0589
83.1821 134.498 71.7595
84.9788 134.885 71.7827
81.9788 125.666 74.4978
83.237 127.695 73.7167
81.7324 127.155 73.9086
84.625 128.278 73.6012
82.5679 124.594 75.311
80.8258 123.963 75.5021
80.3655 126.941 74.1365
85.9402 133.581 77.2154
87.0278 134.049 76.0872
86.1643 132.002 76.6832
87.9211 134.064 74.8312
87.9255 135.991 75.6338
86.2166 134.822 78.1302
84.8115 132.727 78.3027
84.9845 130.112 77.2297
86.0234 130.621 75.988
86.8231 130.527 74.8613
87.9779 132.321 74.1404
87.5433 130.585 73.4911
88.4413 134.371 73.492
85.2527 129.042 75.5641
86.1091 129.193 73.4885
87.0184 131.225 72.5405
79.7047 131.059 78.2962
78.8613 129.403 77.7189
79.3428 131.558 76.9781
78.2554 127.895 76.9173
78.6592 127.248 78.4602
80.1224 130.5 79.4508
80.722 132.881 78.5944
80.1906 133.565 76.2962
79.425 131.862 75.6504
79.018 130.607 74.8456
78.2852 128.249 75.5142
78.8174 129.037 74.234
77.9036 126.036 76.3228
79.971 132.659 74.3763
79.9598 130.117 73.4928
79.2735 127.574 74.1373
87.9929 139.016 73.0047
86.0625 140.046 73.8871
86.1603 138.744 72.0253
84.2618 139.604 74.9417
85.6218 140 75.9435
88.2398 137.776 74.6038
88.5496 136.812 73.0733
85.7505 136.892 71.6188
84.4054 137.647 72.272
83.0868 137.347 73.1535
83.2502 138.145 74.5512
82.0361 136.382 74.2723
83.2443 138.118 76.078
82.8446 135.963 72.1071
80.9339 134.669 74.1269
81.1168 135.226 75.4426
82.5133 123.374 77.9643
82.3269 124.353 79.2316
83.4108 125.657 77.9142
82.3652 126.148 79.9051
81.0242 124.057 80.2301
81.2202 122.045 77.4882
82.7582 123.895 76.5205
84.366 127.149 76.7316
84.1023 127.905 77.6958
78.1224 122.762 79.0051
79.5419 122.922 80.3339
79.4116 121.532 78.204
80.0459 125.062 81.2364
78.4236 125.066 78.9299
77.7841 124.003 77.4712
79.8761 122.278 76.5409
86.6093 136.818 77.9533
86.3474 138.714 76.9618
87.5197 137.658 76.1927
87.954 135.087 72.4962
86.5465 135.325 71.9541
87.0234 133.138 72.2092
83.0654 128.254 79.403
83.9899 130.595 78.87
84.0418 129.099 78.3119
84.7045 127.225 75.6392
84.9218 127.546 74.4593
83.8611 125.527 75.5363
82.3376 136.64 77.072
81.502 134.878 77.9534
81.2316 135.163 76.6491
80.6359 133.648 73.2487
80.8599 132.169 72.8627
81.7169 134.203 72.2147
79.0226 126.631 79.8356
79.8319 128.716 80.3531
79.6455 126.71 81.2152
79.1263 123.44 75.7229
79.1076 125.56 74.8509
77.8549 124.07 75.9243
84.0792 136.794 79.6485
83.4979 135.69 80.0688
83.3237 136.479 79.5823
82.9156 134.57 80.483
83.6458 134.76 80.3984
84.8877 136.834 79.4395
84.6478 137.648 78.9519
83.1647 136.895 78.8574
82.7111 135.954 79.3155
84.3189 134.82 80.1508
85.026 135.88 79.7233
84.9263 134.792 79.7287
85.5927 136.703 79.0625
83.6644 133.736 80.4667
84.6693 133.831 79.5493
85.3944 134.69 79.2159
84.3378 138.323 78.4239
83.4893 137.87 78.3564
83.9853 138.702 77.7696
82.9967 137.168 78.0939
85.1679 138.319 78.1981
84.4237 139.436 77.1658
83.7597 138.792 77.063
82.2156 134.97 79.5961
82.286 134.29 80.2569
81.8041 133.826 79.8436
82.3433 133.378 80.7166
82.179 135.404 78.9192
81.409 133.303 79.4403
81.4164 132.678 80.0355
82.565 131.516 81.0664
82.665 130.547 80.8974
81.9464 130.341 81.2428
82.6788 129.689 80.6394
83.1637 130.71 80.3747
83.1061 132.554 80.786
82.4058 132.393 81.0097
81.2321 130.141 81.3402
81.3788 129.227 81.3944
83.6455 131.739 80.1002
83.6877 132.721 80.3665
84.1697 132.82 79.8379
83.6293 130.92 79.7981
84.5404 132.971 79.2677
81.7929 132.264 80.9076
81.2564 131.022 80.9627
81.3246 131.85 80.4866
80.6913 129.877 81.0133
80.9487 131.464 80.0763
81.5791 128.351 81.3063
82.2308 128.622 80.8333
81.7184 127.557 81.0823
82.6941 128.887 80.2776
80.8347 128.08 81.5313
81.2462 126.482 81.2697
81.8549 126.79 80.7677
83.5701 131.342 72.735
84.1706 132.288 72.4248
83.3583 132.152 72.551
84.7522 133.199 72.1105
84.9597 132.403 72.2924
83.6836 130.49 72.881
82.9841 130.277 73.0127
82.5903 131.965 72.6225
83.0767 132.895 72.3329
85.0545 131.609 72.3866
84.3474 130.592 72.728
85.0776 130.672 72.5798
83.7078 129.57 73.0792
85.7357 132.505 72.1829
85.7268 130.704 72.4902
85.089 129.795 72.7781
82.292 130.09 73.1605
82.121 130.99 72.9587
81.5688 129.881 73.2152
81.8733 131.811 72.7443
82.3844 129.163 73.3347
81.0613 128.828 73.4878
80.9217 129.744 73.275
83.5387 133.78 71.9734
84.4398 133.961 71.8978
84.0706 134.657 71.6974
85.2907 134.128 71.9162
82.7398 133.597 72.0745
83.6542 135.326 71.5894
84.571 135.536 71.6202
82.6308 126.653 74.1198
82.4869 127.481 73.8373
81.8551 126.381 74.1944
82.3978 128.253 73.561
83.1148 128.478 73.4272
83.3499 126.961 74.0648
82.7888 125.974 74.4389
81.1754 125.466 74.637
81.0602 126.138 74.3054
83.7904 128.701 73.2835
83.8984 127.972 73.6812
84.5352 128.913 73.164
84.0539 127.338 74.0734
85.259 129.065 73.089
82.2932 125.092 74.8074
81.4323 124.782 74.9273
81.711 124.254 75.3569
80.5638 124.538 75.1211
83.0944 125.437 74.8524
81.9677 123.839 75.832
81.1013 123.487 75.8956
81.0202 126.987 74.0263
81.7301 128.083 73.6545
81.027 127.918 73.7449
80.3398 126.073 74.4543
80.4075 127.845 73.8401
86.5105 133.849 76.6627
86.6203 132.979 76.3528
86.0461 132.784 76.9296
86.7191 132.191 76.0626
87.1365 133.107 75.7826
87.0139 134.866 76.5096
86.5386 134.614 77.0548
85.4242 132.542 77.4238
85.5275 131.815 77.2272
87.4822 134.048 75.4625
87.4821 135.001 75.8715
87.9076 135.022 75.2052
87.5145 135.866 76.2995
87.5387 133.134 75.1425
88.2157 134.994 74.5346
88.2607 135.967 74.9394
86.0574 134.26 77.619
85.3593 133.21 77.7686
85.5041 133.785 78.1695
84.8607 132.136 77.962
86.6486 135.316 77.5274
85.6412 134.311 78.6478
84.9528 133.278 78.6836
85.6492 131.081 77.0102
86.1482 131.309 76.3402
85.5415 130.456 76.6452
86.6631 131.436 75.7218
85.0066 130.75 77.5248
84.9288 129.56 76.8599
85.3583 129.878 76.2275
87.5363 131.379 74.529
87.9009 131.444 73.8196
87.2963 130.556 74.2208
87.8616 131.609 73.1296
88.1344 132.456 73.4229
87.6153 132.266 74.7992
87.0643 131.372 75.1211
86.4529 129.823 74.5817
86.8235 129.831 73.9614
88.2454 133.287 73.7883
87.9094 133.149 74.522
88.2372 134.173 74.173
88.3106 133.547 73.1112
88.4973 135.177 73.8638
86.3922 130.648 75.403
86.0176 129.844 75.1314
85.6521 129.873 75.6906
85.582 129.085 75.0179
85.0033 129.075 76.0775
86.8731 129.883 73.4232
87.3941 130.847 72.9563
86.7001 130.18 72.9387
87.626 131.972 72.6263
86.0648 129.196 73.9786
85.9809 129.445 73.0102
86.3537 130.518 72.6192
79.2351 130.216 78.054
79.0942 130.478 77.3503
79.5156 131.351 77.6438
78.9784 130.668 76.6545
78.7639 129.699 76.9944
79.081 129.122 78.4115
79.4328 129.897 78.6833
79.9798 132.176 77.8505
79.8198 132.373 77.2806
78.5264 128.674 77.3406
78.7123 128.367 78.1077
78.4428 127.649 77.7091
78.9164 128.001 78.8074
78.4814 128.899 76.5992
78.1772 126.917 77.3054
78.3749 126.614 78.0295
79.9172 130.743 78.875
80.203 131.967 78.4248
80.4087 131.668 78.9977
80.4833 133.088 78.05
79.6648 129.605 79.2931
80.6118 131.394 79.5519
80.912 132.592 79.1383
79.7414 132.569 76.6759
79.3067 131.711 76.3377
79.7695 132.657 76.0379
78.9909 130.896 75.9589
80.2151 133.429 76.9056
80.2079 133.561 75.6939
79.8756 132.749 75.3973
78.6008 129.479 75.142
78.5278 128.652 74.824
78.8366 129.896 74.4762
78.5356 127.8 74.6231
78.1897 127.42 75.2017
78.5164 129.066 75.8421
78.8284 130.216 75.5008
79.3909 130.972 74.2481
79.2316 130.276 73.9431
78.0523 127.172 75.8639
78.2473 128.111 76.2144
78.0668 127.035 76.5817
78.0276 126.201 75.6346
77.9699 126.008 77.0153
79.1768 131.215 75.3031
79.5335 131.561 74.6278
79.6715 132.189 75.0064
79.8313 132.108 74.0058
80.0854 133.181 74.7705
79.3144 129.582 73.8158
78.9695 128.246 74.1505
79.593 128.85 73.7691
78.6938 127.002 74.5275
79.7665 130.767 73.5506
80.2289 129.42 73.5028
79.894 128.204 73.8209
87.1296 139.719 73.3134
86.2586 139.491 72.8391
87.2144 139.043 72.3358
85.3722 139.003 72.6847
85.309 139.581 73.4557
86.805 139.859 74.3792
87.6535 139.324 74.0027
87.8407 138.26 72.2675
86.9568 138.178 71.8215
85.0944 139.951 74.4072
85.8929 140.172 74.9276
84.9006 140.03 75.4108
86.4491 139.727 75.4401
84.4741 139.329 74.1143
84.1035 139.594 75.7631
84.7439 139.872 76.2998
88.2114 138.498 73.8422
88.4141 138.067 73.0015
88.5218 137.422 73.7763
88.1996 137.178 72.4604
87.833 138.657 74.7177
88.4529 136.834 74.4806
88.6381 136.355 73.7212
85.9947 137.922 71.752
85.2096 138.301 72.1581
85.0647 137.347 71.8387
84.5545 138.383 72.7295
86.5916 137.2 71.741
84.9437 136.484 71.5873
84.2129 136.867 71.9228
83.1816 137.823 73.8208
82.6579 137.246 74.3956
82.5215 136.882 73.7113
82.1705 136.65 74.9409
82.7702 137.393 75.0802
83.8036 138.636 73.9431
83.8183 138.184 73.249
82.4275 136.452 73.0953
81.9407 135.987 73.6106
83.2761 138.163 75.2767
83.7306 138.982 74.6643
83.6501 138.956 75.4963
82.7504 137.467 75.814
83.6523 138.84 76.3036
83.736 137.629 72.7047
82.9399 136.724 72.6249
83.5598 136.826 72.2194
82.3027 135.842 72.5103
83.4275 136.058 71.7691
81.4369 135.56 74.1762
81.5469 135.906 74.8448
81.0666 134.993 74.7828
81.6439 136.064 75.5004
81.3405 135.127 73.5602
80.5511 134.188 74.6446
80.6534 134.43 75.3092
82.3703 123.774 78.6415
82.9574 124.861 78.6208
83.0357 124.446 78.0266
83.2714 126.061 78.4578
82.8916 125.47 79.0987
81.576 123.421 79.1855
81.6587 122.892 78.5364
83.1587 124.186 77.4018
83.5129 125.217 77.4108
82.4178 125.193 79.6567
81.6864 124.127 79.7057
81.8253 125.024 80.1914
80.9463 123.218 79.7652
82.8123 126.341 79.3582
81.9467 125.97 80.4372
81.1962 124.962 80.6545
81.8976 122.608 77.792
82.6639 123.462 77.2164
82.067 122.815 77.0136
83.3244 124.403 76.7233
81.0604 122.127 78.3238
81.3804 122.468 76.8416
82.143 123.481 76.4019
83.8532 126.355 77.3291
83.7043 126.77 77.8371
84.176 127.429 77.2482
83.5881 127.279 78.2298
84.0338 126.169 76.8002
84.6126 128.117 76.6656
84.5454 128.473 77.1456
78.7514 122.547 79.7909
79.4032 122.031 79.3155
78.6595 121.923 78.7466
80.1298 121.915 78.7366
80.1905 122.603 79.7618
79.0314 123.617 80.4762
78.4597 123.532 79.7797
78.0223 122.197 78.0493
78.7152 121.708 77.6872
80.3618 123.43 80.3416
79.7441 123.933 80.8848
80.4717 124.48 80.7695
79.3689 124.759 80.9548
80.7519 125.471 81.1898
78.1864 123.87 79.0256
77.8856 123.247 78.1883
78.0344 124.487 78.2674
77.729 122.909 77.2745
78.6001 124.672 79.6116
78.2692 125.546 78.2802
77.9422 125.019 77.5913
79.5613 121.676 77.2884
80.3793 121.683 77.8507
80.5853 122.054 76.9825
78.9878 122.003 76.7551
80.7067 122.657 76.4042
86.5466 137.814 77.5163
86.9833 138.239 76.5782
87.1141 137.311 77.1125
87.4483 138.538 75.6302
86.7909 139.096 76
85.9103 138.182 77.8364
86.0748 137.265 78.3005
86.9502 136.334 77.4568
87.4399 136.689 76.6853
86.0621 139.455 76.429
85.5846 138.884 77.3392
85.2093 139.617 76.8374
86.1138 136.311 78.5967
86.4925 135.791 78.0836
85.9494 135.233 78.7025
87.8157 136.851 75.9585
87.8873 137.852 75.3808
88.1618 136.908 75.1928
87.3291 135.323 72.1603
86.8186 134.318 72.129
87.5216 134.147 72.3208
86.3827 133.311 72.1292
86.0884 134.31 72.0105
87.0264 136.327 71.8699
87.8064 136.257 72.2312
88.0704 133.917 72.6154
87.6395 133.012 72.404
85.7676 135.081 71.907
86.2058 136.184 71.7683
85.3924 135.836 71.6662
88.3267 136.015 72.708
88.3542 134.654 72.9564
88.5678 135.556 73.3226
87.0551 132.16 72.3459
86.3786 132.345 72.1852
86.3806 131.39 72.361
83.4974 129.44 79.1465
83.9731 129.836 78.5719
83.5552 128.656 78.8499
84.4337 130.256 78.035
84.3971 131.013 78.2589
83.5761 130.171 79.4499
83.0622 129.105 79.6794
83.1625 127.501 79.0972
83.594 127.964 78.5434
84.4196 131.665 78.5609
84.0415 131.2 79.2277
84.4826 132.307 78.9384
82.6929 128.065 79.9696
82.7447 127.185 79.6424
82.3533 126.979 80.2336
84.0649 128.441 78.0496
84.5256 129.658 77.7697
84.5499 129.039 77.459
84.8985 127.404 75.0333
84.3658 126.567 74.9805
84.4058 126.305 75.6112
83.7394 125.924 74.9602
84.2152 126.927 74.4819
85.4355 128.346 74.4743
85.2626 128.226 75.0671
84.2691 126.179 76.227
83.8619 125.298 76.1637
84.7409 127.834 74.0152
85.4353 128.476 74.0166
85.3916 128.681 73.4948
84.9867 128.174 75.5938
84.5431 127.07 76.2114
84.774 128.148 76.137
83.3906 124.7 76.0347
83.2907 125.037 75.379
82.7053 124.231 75.877
81.9433 135.771 77.5349
81.3474 135.062 77.2987
81.7852 135.929 76.8393
80.7403 134.317 77.0946
80.9092 134.156 77.6967
82.0499 135.599 78.227
82.4363 136.501 77.8089
82.2266 136.752 76.3647
81.6555 136.021 76.1706
81.0415 133.925 78.2708
81.6681 134.678 78.5638
81.2451 133.637 78.8672
82.8569 137.314 77.3525
82.7697 137.361 76.5654
83.3191 138.063 76.8225
81.1762 135.237 76.037
80.6441 134.384 76.51
80.6163 134.43 75.8855
80.6651 132.912 72.9413
81.2307 133.195 72.5003
81.1258 133.939 72.6993
81.9553 133.427 72.2047
81.5474 132.489 72.6462
80.2652 131.89 73.225
80.1771 132.612 73.4373
81.1999 134.605 73.0903
81.6422 134.924 72.5051
81.1593 131.504 72.9534
80.4237 131.189 73.2288
80.6729 130.447 73.2431
80.2327 133.144 73.8095
80.7941 134.178 73.6691
80.3815 133.682 74.2468
82.2215 135.095 72.1357
82.4131 134.25 71.9267
82.9075 135.24 71.736
79.3837 127.66 80.1629
79.6957 127.706 80.7946
79.3007 126.627 80.5408
80.1096 127.862 81.325
80.1385 128.827 80.9353
79.4999 128.649 79.7667
79.1648 127.701 79.4941
78.891 125.604 80.1452
79.208 125.651 80.8614
80.2699 129.685 80.5105
79.951 129.586 79.8877
80.4545 130.549 80.0062
78.8496 126.952 79.1622
78.6831 125.775 79.4688
78.5664 126.179 78.7359
79.7289 125.798 81.3808
80.2673 127.02 81.5754
80.5478 126.144 81.4625
79.0121 124.389 75.257
78.418 124.664 75.3008
78.393 123.509 75.7798
78.0508 125.265 75.4969
78.587 125.858 74.9312
79.6842 125.361 74.8549
79.734 124.307 75.2339
78.5382 122.557 76.2047
77.8312 122.99 76.4113
79.1004 126.53 74.4651
79.7373 126.244 74.4626
79.7873 127.225 74.0972
79.976 123.75 75.6086
79.3904 122.703 76.0882
80.3053 123.142 76.0167
77.6689 123.93 76.6694
77.8191 125.13 76.0921
77.8039 125.054 76.8852
POLYGONS 1280  5120
3 164 162 163
3 163 44 164
3 162 43 163
3 164 42 162
3 166 165 163
3 163 43 166
3 165 44 163
3 166 14 165
3 168 167 162
3 162 42 168
3 167 43 162
3 168 13 167
3 170 169 164
3 164 44 170
3 169 42 164
3 170 12 169
3 173 171 172
3 172 46 173
3 171 43 172
3 173 45 171
3 167 174 172
3 172 43 167
3 174 46 172
3 167 13 174
3 175 166 171
3 171 45 175
3 166 43 171
3 175 14 166
3 177 176 173
3 173 46 177
3 176 45 173
3 177 4 176
3 180 178 179
3 179 48 180
3 178 42 179
3 180 47 178
3 169 181 179
3 179 42 169
3 181 48 179
3 169 12 181
3 182 168 178
3 178 47 182
3 168 42 178
3 182 13 168
3 184 183 180
3 180 48 184
3 183 47 180
3 184 8 183
3 187 185 186
3 186 50 187
3 185 44 186
3 187 49 185
3 165 188 186
3 186 44 165
3 188 50 186
3 165 14 188
3 189 170 185
3 185 49 189
3 170 44 185
3 189 12 170
3 191 190 187
3 187 50 191
3 190 49 187
3 191 7 190
3 194 192 193
3 193 53 194
3 192 52 193
3 194 51 192
3 196 195 193
3 193 52 196
3 195 53 193
3 196 16 195
3 198 197 192
3 192 51 198
3 197 52 192
3 198 14 197
3 200 199 194
3 194 53 200
3 199 51 194
3 200 15 199
3 203 201 202
3 202 45 203
3 201 52 202
3 203 54 201
3 197 175 202
3 202 52 197
3 175 45 202
3 197 14 175
3 204 196 201
3 201 54 204
3 196 52 201
3 204 16 196
3 176 205 203
3 203 45 176
3 205 54 203
3 176 4 205
3 208 206 207
3 207 55 208
3 206 51 207
3 208 50 206
3 199 209 207
3 207 51 199
3 209 55 207
3 199 15 209
3 188 198 206
3 206 50 188
3 198 51 206
3 188 14 198
3 210 191 208
3 208 55 210
3 191 50 208
3 210 7 191
3 213 211 212
3 212 57 213
3 211 53 212
3 213 56 211
3 195 214 212
3 212 53 195
3 214 57 212
3 195 16 214
3 215 200 211
3 211 56 215
3 200 53 211
3 215 15 200
3 217 216 213
3 213 57 217
3 216 56 213
3 217 9 216
3 220 218 219
3 219 60 220
3 218 59 219
3 220 58 218
3 222 221 219
3 219 59 222
3 221 60 219
3 222 19 221
3 224 223 218
3 218 58 224
3 223 59 218
3 224 18 223
3 226 225 220
3 220 60 226
3 225 58 220
3 226 17 225
3 229 227 228
3 228 62 229
3 227 59 228
3 229 61 227
3 223 230 228
3 228 59 223
3 230 62 228
3 223 18 230
3 231 222 227
3 227 61 231
3 222 59 227
3 231 19 222
3 233 232 229
3 229 62 233
3 232 61 229
3 233 5 232
3 236 234 235
3 235 64 236
3 234 58 235
3 236 63 234
3 225 237 235
3 235 58 225
3 237 64 235
3 225 17 237
3 238 224 234
3 234 63 238
3 224 58 234
3 238 18 224
3 240 239 236
3 236 64 240
3 239 63 236
3 240 6 239
3 243 241 242
3 242 66 243
3 241 60 242
3 243 65 241
3 221 244 242
3 242 60 221
3 244 66 242
3 221 19 244
3 245 226 241
3 241 65 245
3 226 60 241
3 245 17 226
3 247 246 243
3 243 66 247
3 246 65 243
3 247 11 246
3 250 248 249
3 249 69 250
3 248 68 249
3 250 67 248
3 252 251 249
3 249 68 252
3 251 69 249
3 252 18 251
3 254 253 248
3 248 67 254
3 253 68 248
3 254 21 253
3 256 255 250
3 250 69 256
3 255 67 250
3 256 20 255
3 259 257 258
3 258 70 259
3 257 68 258
3 259 62 257
3 253 260 258
3 258 68 253
3 260 70 258
3 253 21 260
3 230 252 257
3 257 62 230
3 252 68 257
3 230 18 252
3 261 233 259
3 259 70 261
3 233 62 259
3 261 5 233
3 264 262 263
3 263 72 264
3 262 67 263
3 264 71 262
3 255 265 263
3 263 67 255
3 265 72 263
3 255 20 265
3 266 254 262
3 262 71 266
3 254 67 262
3 266 21 254
3 268 267 264
3 264 72 268
3 267 71 264
3 268 10 267
3 271 269 270
3 270 63 271
3 269 69 270
3 271 73 269
3 251 238 270
3 270 69 251
3 238 63 270
3 251 18 238
3 272 256 269
3 269 73 272
3 256 69 269
3 272 20 256
3 239 273 271
3 271 63 239
3 273 73 271
3 239 6 273
3 276 274 275
3 275 76 276
3 274 75 275
3 276 74 274
3 278 277 275
3 275 75 278
3 277 76 275
3 278 24 277
3 280 279 274
3 274 74 280
3 279 75 274
3 280 23 279
3 282 281 276
3 276 76 282
3 281 74 276
3 282 22 281
3 285 283 284
3 284 78 285
3 283 75 284
3 285 77 283
3 279 286 284
3 284 75 279
3 286 78 284
3 279 23 286
3 287 278 283
3 283 77 287
3 278 75 283
3 287 24 278
3 289 288 285
3 285 78 289
3 288 77 285
3 289 0 288
3 292 290 291
3 291 80 292
3 290 74 291
3 292 79 290
3 281 293 291
3 291 74 281
3 293 80 291
3 281 22 293
3 294 280 290
3 290 79 294
3 280 74 290
3 294 23 280
3 296 295 292
3 292 80 296
3 295 79 292
3 296 4 295
3 299 297 298
3 298 82 299
3 297 76 298
3 299 81 297
3 277 300 298
3 298 76 277
3 300 82 298
3 277 24 300
3 301 282 297
3 297 81 301
3 282 76 297
3 301 22 282
3 303 302 299
3 299 82 303
3 302 81 299
3 303 3 302
3 306 304 305
3 305 85 306
3 304 84 305
3 306 83 304
3 308 307 305
3 305 84 308
3 307 85 305
3 308 26 307
3 310 309 304
3 304 83 310
3 309 84 304
3 310 24 309
3 312 311 306
3 306 85 312
3 311 83 306
3 312 25 311
3 315 313 314
3 314 77 315
3 313 84 314
3 315 86 313
3 309 287 314
3 314 84 309
3 287 77 314
3 309 24 287
3 316 308 313
3 313 86 316
3 308 84 313
3 316 26 308
3 288 317 315
3 315 77 288
3 317 86 315
3 288 0 317
3 320 318 319
3 319 87 320
3 318 83 319
3 320 82 318
3 311 321 319
3 319 83 311
3 321 87 319
3 311 25 321
3 300 310 318
3 318 82 300
3 310 83 318
3 300 24 310
3 322 303 320
3 320 87 322
3 303 82 320
3 322 3 303
3 325 323 324
3 324 89 325
3 323 85 324
3 325 88 323
3 307 326 324
3 324 85 307
3 326 89 324
3 307 26 326
3 327 312 323
3 323 88 327
3 312 85 323
3 327 25 312
3 329 328 325
3 325 89 329
3 328 88 325
3 329 5 328
3 332 330 331
3 331 92 332
3 330 91 331
3 332 90 330
3 334 333 331
3 331 91 334
3 333 92 331
3 334 29 333
3 336 335 330
3 330 90 336
3 335 91 330
3 336 28 335
3 338 337 332
3 332 92 338
3 337 90 332
3 338 27 337
3 341 339 340
3 340 94 341
3 339 91 340
3 341 93 339
3 335 342 340
3 340 91 335
3 342 94 340
3 335 28 342
3 343 334 339
3 339 93 343
3 334 91 339
3 343 29 334
3 345 344 341
3 341 94 345
3 344 93 341
3 345 2 344
3 348 346 347
3 347 96 348
3 346 90 347
3 348 95 346
3 337 349 347
3 347 90 337
3 349 96 347
3 337 27 349
3 350 336 346
3 346 95 350
3 336 90 346
3 350 28 336
3 352 351 348
3 348 96 352
3 351 95 348
3 352 7 351
3 355 353 354
3 354 98 355
3 353 92 354
3 355 97 353
3 333 356 354
3 354 92 333
3 356 98 354
3 333 29 356
3 357 338 353
3 353 97 357
3 338 92 353
3 357 27 338
3 359 358 355
3 355 98 359
3 358 97 355
3 359 1 358
3 362 360 361
3 361 101 362
3 360 100 361
3 362 99 360
3 364 363 361
3 361 100 364
3 363 101 361
3 364 31 363
3 366 365 360
3 360 99 366
3 365 100 360
3 366 29 365
3 368 367 362
3 362 101 368
3 367 99 362
3 368 30 367
3 371 369 370
3 370 93 371
3 369 100 370
3 371 102 369
3 365 343 370
3 370 100 365
3 343 93 370
3 365 29 343
3 372 364 369
3 369 102 372
3 364 100 369
3 372 31 364
3 344 373 371
3 371 93 344
3 373 102 371
3 344 2 373
3 376 374 375
3 375 103 376
3 374 99 375
3 376 98 374
3 367 377 375
3 375 99 367
3 377 103 375
3 367 30 377
3 356 366 374
3 374 98 356
3 366 99 374
3 356 29 366
3 378 359 376
3 376 103 378
3 359 98 376
3 378 1 359
3 381 379 380
3 380 105 381
3 379 101 380
3 381 104 379
3 363 382 380
3 380 101 363
3 382 105 380
3 363 31 382
3 383 368 379
3 379 104 383
3 368 101 379
3 383 30 368
3 385 384 381
3 381 105 385
3 384 104 381
3 385 6 384
3 388 386 387
3 387 108 388
3 386 107 387
3 388 106 386
3 390 389 387
3 387 107 390
3 389 108 387
3 390 34 389
3 392 391 386
3 386 106 392
3 391 107 386
3 392 33 391
3 394 393 388
3 388 108 394
3 393 106 388
3 394 32 393
3 397 395 396
3 396 110 397
3 395 107 396
3 397 109 395
3 391 398 396
3 396 107 391
3 398 110 396
3 391 33 398
3 399 390 395
3 395 109 399
3 390 107 395
3 399 34 390
3 401 400 397
3 397 110 401
3 400 109 397
3 401 8 400
3 404 402 403
3 403 112 404
3 402 106 403
3 404 111 402
3 393 405 403
3 403 106 393
3 405 112 403
3 393 32 405
3 406 392 402
3 402 111 406
3 392 106 402
3 406 33 392
3 408 407 404
3 404 112 408
3 407 111 404
3 408 0 407
3 411 409 410
3 410 114 411
3 409 108 410
3 411 113 409
3 389 412 410
3 410 108 389
3 412 114 410
3 389 34 412
3 413 394 409
3 409 113 413
3 394 108 409
3 413 32 394
3 415 414 411
3 411 114 415
3 414 113 411
3 415 11 414
3 418 416 417
3 417 117 418
3 416 116 417
3 418 115 416
3 420 419 417
3 417 116 420
3 419 117 417
3 420 36 419
3 422 421 416
3 416 115 422
3 421 116 416
3 422 34 421
3 424 423 418
3 418 117 424
3 423 115 418
3 424 35 423
3 427 425 426
3 426 109 427
3 425 116 426
3 427 118 425
3 421 399 426
3 426 116 421
3 399 109 426
3 421 34 399
3 428 420 425
3 425 118 428
3 420 116 425
3 428 36 420
3 400 429 427
3 427 109 400
3 429 118 427
3 400 8 429
3 432 430 431
3 431 119 432
3 430 115 431
3 432 114 430
3 423 433 431
3 431 115 423
3 433 119 431
3 423 35 433
3 412 422 430
3 430 114 412
3 422 115 430
3 412 34 422
3 434 415 432
3 432 119 434
3 415 114 432
3 434 11 415
3 437 435 436
3 436 121 437
3 435 117 436
3 437 120 435
3 419 438 436
3 436 117 419
3 438 121 436
3 419 36 438
3 439 424 435
3 435 120 439
3 424 117 435
3 439 35 424
3 441 440 437
3 437 121 441
3 440 120 437
3 441 1 440
3 444 442 443
3 443 124 444
3 442 123 443
3 444 122 442
3 446 445 443
3 443 123 446
3 445 124 443
3 446 39 445
3 448 447 442
3 442 122 448
3 447 123 442
3 448 38 447
3 450 449 444
3 444 124 450
3 449 122 444
3 450 37 449
3 453 451 452
3 452 126 453
3 451 123 452
3 453 125 451
3 447 454 452
3 452 123 447
3 454 126 452
3 447 38 454
3 455 446 451
3 451 125 455
3 446 123 451
3 455 39 446
3 457 456 453
3 453 126 457
3 456 125 453
3 457 9 456
3 460 458 459
3 459 128 460
3 458 122 459
3 460 127 458
3 449 461 459
3 459 122 449
3 461 128 459
3 449 37 461
3 462 448 458
3 458 127 462
3 448 122 458
3 462 38 448
3 464 463 460
3 460 128 464
3 463 127 460
3 464 10 463
3 467 465 466
3 466 130 467
3 465 124 466
3 467 129 465
3 445 468 466
3 466 124 445
3 468 130 466
3 445 39 468
3 469 450 465
3 465 129 469
3 450 124 465
3 469 37 450
3 471 470 467
3 467 130 471
3 470 129 467
3 471 3 470
3 474 472 473
3 473 133 474
3 472 132 473
3 474 131 472
3 476 475 473
3 473 132 476
3 475 133 473
3 476 38 475
3 478 477 472
3 472 131 478
3 477 132 472
3 478 41 477
3 480 479 474
3 474 133 480
3 479 131 474
3 480 40 479
3 483 481 482
3 482 134 483
3 481 132 482
3 483 126 481
3 477 484 482
3 482 132 477
3 484 134 482
3 477 41 484
3 454 476 481
3 481 126 454
3 476 132 481
3 454 38 476
3 485 457 483
3 483 134 485
3 457 126 483
3 485 9 457
3 488 486 487
3 487 136 488
3 486 131 487
3 488 135 486
3 479 489 487
3 487 131 479
3 489 136 487
3 479 40 489
3 490 478 486
3 486 135 490
3 478 131 486
3 490 41 478
3 492 491 488
3 488 136 492
3 491 135 488
3 492 2 491
3 495 493 494
3 494 127 495
3 493 133 494
3 495 137 493
3 475 462 494
3 494 133 475
3 462 127 494
3 475 38 462
3 496 480 493
3 493 137 496
3 480 133 493
3 496 40 480
3 463 497 495
3 495 127 463
3 497 137 495
3 463 10 497
3 500 498 499
3 499 140 500
3 498 139 499
3 500 138 498
3 502 501 499
3 499 139 502
3 501 140 499
3 502 33 501
3 504 503 498
3 498 138 504
3 503 139 498
3 504 13 503
3 506 505 500
3 500 140 506
3 505 138 500
3 506 23 505
3 509 507 508
3 508 47 509
3 507 139 508
3 509 110 507
3 503 182 508
3 508 139 503
3 182 47 508
3 503 13 182
3 398 502 507
3 507 110 398
3 502 139 507
3 398 33 502
3 183 401 509
3 509 47 183
3 401 110 509
3 183 8 401
3 512 510 511
3 511 79 512
3 510 138 511
3 512 46 510
3 505 294 511
3 511 138 505
3 294 79 511
3 505 23 294
3 174 504 510
3 510 46 174
3 504 138 510
3 174 13 504
3 295 177 512
3 512 79 295
3 177 46 512
3 295 4 177
3 515 513 514
3 514 111 515
3 513 140 514
3 515 78 513
3 501 406 514
3 514 140 501
3 406 111 514
3 501 33 406
3 286 506 513
3 513 78 286
3 506 140 513
3 286 23 506
3 407 289 515
3 515 111 407
3 289 78 515
3 407 0 289
3 518 516 517
3 517 143 518
3 516 142 517
3 518 141 516
3 520 519 517
3 517 142 520
3 519 143 517
3 520 19 519
3 522 521 516
3 516 141 522
3 521 142 516
3 522 32 521
3 524 523 518
3 518 143 524
3 523 141 518
3 524 26 523
3 527 525 526
3 526 113 527
3 525 142 526
3 527 66 525
3 521 413 526
3 526 142 521
3 413 113 526
3 521 32 413
3 244 520 525
3 525 66 244
3 520 142 525
3 244 19 520
3 414 247 527
3 527 113 414
3 247 66 527
3 414 11 247
3 530 528 529
3 529 86 530
3 528 141 529
3 530 112 528
3 523 316 529
3 529 141 523
3 316 86 529
3 523 26 316
3 405 522 528
3 528 112 405
3 522 141 528
3 405 32 522
3 317 408 530
3 530 86 317
3 408 112 530
3 317 0 408
3 533 531 532
3 532 61 533
3 531 143 532
3 533 89 531
3 519 231 532
3 532 143 519
3 231 61 532
3 519 19 231
3 326 524 531
3 531 89 326
3 524 143 531
3 326 26 524
3 232 329 533
3 533 61 232
3 329 89 533
3 232 5 329
3 536 534 535
3 535 146 536
3 534 145 535
3 536 144 534
3 538 537 535
3 535 145 538
3 537 146 535
3 538 22 537
3 540 539 534
3 534 144 540
3 539 145 534
3 540 16 539
3 542 541 536
3 536 146 542
3 541 144 536
3 542 39 541
3 545 543 544
3 544 54 545
3 543 145 544
3 545 80 543
3 539 204 544
3 544 145 539
3 204 54 544
3 539 16 204
3 293 538 543
3 543 80 293
3 538 145 543
3 293 22 538
3 205 296 545
3 545 54 205
3 296 80 545
3 205 4 296
3 548 546 547
3 547 125 548
3 546 144 547
3 548 57 546
3 541 455 547
3 547 144 541
3 455 125 547
3 541 39 455
3 214 540 546
3 546 57 214
3 540 144 546
3 214 16 540
3 456 217 548
3 548 125 456
3 217 57 548
3 456 9 217
3 551 549 550
3 550 81 551
3 549 146 550
3 551 130 549
3 537 301 550
3 550 146 537
3 301 81 550
3 537 22 301
3 468 542 549
3 549 130 468
3 542 146 549
3 468 39 542
3 302 471 551
3 551 81 302
3 471 130 551
3 302 3 471
3 554 552 553
3 553 149 554
3 552 148 553
3 554 147 552
3 556 555 553
3 553 148 556
3 555 149 553
3 556 21 555
3 558 557 552
3 552 147 558
3 557 148 552
3 558 25 557
3 560 559 554
3 554 149 560
3 559 147 554
3 560 37 559
3 563 561 562
3 562 88 563
3 561 148 562
3 563 70 561
3 557 327 562
3 562 148 557
3 327 88 562
3 557 25 327
3 260 556 561
3 561 70 260
3 556 148 561
3 260 21 556
3 328 261 563
3 563 88 328
3 261 70 563
3 328 5 261
3 566 564 565
3 565 129 566
3 564 147 565
3 566 87 564
3 559 469 565
3 565 147 559
3 469 129 565
3 559 37 469
3 321 558 564
3 564 87 321
3 558 147 564
3 321 25 558
3 470 322 566
3 566 129 470
3 322 87 566
3 470 3 322
3 569 567 568
3 568 71 569
3 567 149 568
3 569 128 567
3 555 266 568
3 568 149 555
3 266 71 568
3 555 21 266
3 461 560 567
3 567 128 461
3 560 149 567
3 461 37 560
3 267 464 569
3 569 71 267
3 464 128 569
3 267 10 464
3 572 570 571
3 571 152 572
3 570 151 571
3 572 150 570
3 574 573 571
3 571 151 574
3 573 152 571
3 574 27 573
3 576 575 570
3 570 150 576
3 575 151 570
3 576 12 575
3 578 577 572
3 572 152 578
3 577 150 572
3 578 36 577
3 581 579 580
3 580 49 581
3 579 151 580
3 581 96 579
3 575 189 580
3 580 151 575
3 189 49 580
3 575 12 189
3 349 574 579
3 579 96 349
3 574 151 579
3 349 27 574
3 190 352 581
3 581 49 190
3 352 96 581
3 190 7 352
3 584 582 583
3 583 118 584
3 582 150 583
3 584 48 582
3 577 428 583
3 583 150 577
3 428 118 583
3 577 36 428
3 181 576 582
3 582 48 181
3 576 150 582
3 181 12 576
3 429 184 584
3 584 118 429
3 184 48 584
3 429 8 184
3 587 585 586
3 586 97 587
3 585 152 586
3 587 121 585
3 573 357 586
3 586 152 573
3 357 97 586
3 573 27 357
3 438 578 585
3 585 121 438
3 578 152 585
3 438 36 578
3 358 441 587
3 587 97 358
3 441 121 587
3 358 1 441
3 590 588 589
3 589 155 590
3 588 154 589
3 590 153 588
3 592 591 589
3 589 154 592
3 591 155 589
3 592 17 591
3 594 593 588
3 588 153 594
3 593 154 588
3 594 30 593
3 596 595 590
3 590 155 596
3 595 153 590
3 596 35 595
3 599 597 598
3 598 104 599
3 597 154 598
3 599 64 597
3 593 383 598
3 598 154 593
3 383 104 598
3 593 30 383
3 237 592 597
3 597 64 237
3 592 154 597
3 237 17 592
3 384 240 599
3 599 104 384
3 240 64 599
3 384 6 240
3 602 600 601
3 601 120 602
3 600 153 601
3 602 103 600
3 595 439 601
3 601 153 595
3 439 120 601
3 595 35 439
3 377 594 600
3 600 103 377
3 594 153 600
3 377 30 594
3 440 378 602
3 602 120 440
3 378 103 602
3 440 1 378
3 605 603 604
3 604 65 605
3 603 155 604
3 605 119 603
3 591 245 604
3 604 155 591
3 245 65 604
3 591 17 245
3 433 596 603
3 603 119 433
3 596 155 603
3 433 35 596
3 246 434 605
3 605 65 246
3 434 119 605
3 246 11 434
3 608 606 607
3 607 158 608
3 606 157 607
3 608 156 606
3 610 609 607
3 607 157 610
3 609 158 607
3 610 15 609
3 612 611 606
3 606 156 612
3 611 157 606
3 612 28 611
3 614 613 608
3 608 158 614
3 613 156 608
3 614 41 613
3 617 615 616
3 616 95 617
3 615 157 616
3 617 55 615
3 611 350 616
3 616 157 611
3 350 95 616
3 611 28 350
3 209 610 615
3 615 55 209
3 610 157 615
3 209 15 610
3 351 210 617
3 617 95 351
3 210 55 617
3 351 7 210
3 620 618 619
3 619 135 620
3 618 156 619
3 620 94 618
3 613 490 619
3 619 156 613
3 490 135 619
3 613 41 490
3 342 612 618
3 618 94 342
3 612 156 618
3 342 28 612
3 491 345 620
3 620 135 491
3 345 94 620
3 491 2 345
3 623 621 622
3 622 56 623
3 621 158 622
3 623 134 621
3 609 215 622
3 622 158 609
3 215 56 622
3 609 15 215
3 484 614 621
3 621 134 484
3 614 158 621
3 484 41 614
3 216 485 623
3 623 56 216
3 485 134 623
3 216 9 485
3 626 624 625
3 625 161 626
3 624 160 625
3 626 159 624
3 628 627 625
3 625 160 628
3 627 161 625
3 628 31 627
3 630 629 624
3 624 159 630
3 629 160 624
3 630 20 629
3 632 631 626
3 626 161 632
3 631 159 626
3 632 40 631
3 635 633 634
3 634 73 635
3 633 160 634
3 635 105 633
3 629 272 634
3 634 160 629
3 272 73 634
3 629 20 272
3 382 628 633
3 633 105 382
3 628 160 633
3 382 31 628
3 273 385 635
3 635 73 273
3 385 105 635
3 273 6 385
3 638 636 637
3 637 137 638
3 636 159 637
3 638 72 636
3 631 496 637
3 637 159 631
3 496 137 637
3 631 40 496
3 265 630 636
3 636 72 265
3 630 159 636
3 265 20 630
3 497 268 638
3 638 137 497
3 268 72 638
3 497 10 268
3 641 639 640
3 640 102 641
3 639 161 640
3 641 136 639
3 627 372 640
3 640 161 627
3 372 102 640
3 627 31 372
3 489 632 639
3 639 136 489
3 632 161 639
3 489 40 632
3 373 492 641
3 641 102 373
3 492 136 641
3 373 2 492
