# vtk DataFile Version 3.0
this file was written using fslvtkio
ASCII
DATASET POLYDATA
POINTS 1068 float
83.2865 154.838 69.7811
82.449 154.809 70.3869
83.0246 154.075 70.6677
83.7284 153.963 70.3548
84.0542 154.571 69.3595
84.4076 153.752 70.0822
85.0441 154.54 69.3615
85.1712 153.844 70.2156
85.6685 154.66 69.7683
85.9824 154.052 70.3693
82.9232 155.88 69.7285
82.4083 155.694 70.6139
83.5638 155.96 68.9098
84.5981 155.671 68.6468
85.7668 155.374 68.9089
86.4158 154.883 69.5177
82.581 156.598 69.9337
82.2138 156.553 70.5955
83.3894 156.774 69.2677
84.3128 156.749 68.7602
85.44 156.597 68.6447
86.5142 156.138 69.0184
83.0028 157.285 69.8963
84.0171 157.484 69.2433
85.1216 157.238 69.142
86.2822 157.16 68.9819
85.8081 150.71 71.6003
84.9374 149.973 72.2007
85.6979 149.257 72.3341
86.5893 149.321 72.1956
86.75 150.597 71.6759
87.3868 149.781 72.2053
84.962 151.378 71.5069
84.4069 151.988 71.7796
84.4714 150.875 72.2834
85.6505 151.997 71.4921
86.4479 151.821 71.5473
87.3677 151.251 71.9131
84.5792 152.804 71.113
84.0335 152.664 71.644
85.2919 152.661 71.2672
86.2888 152.885 71.0927
86.9967 152.421 71.7179
83.2906 153.335 71.2108
82.6465 153.962 71.3252
83.1014 153.548 72.0495
83.5069 153.116 71.9952
83.9055 153.284 70.9735
84.5774 153.418 70.7917
85.4997 153.239 70.741
86.4004 153.532 70.9414
86.9657 153.176 71.4444
82.1471 154.729 71.3885
86.7085 154.5 70.3057
81.9534 155.564 71.5039
87.179 155.471 69.7017
81.7549 156.297 71.6745
86.7728 156.685 69.4566
82.4566 157.481 70.4904
82.1045 157.144 71.3685
83.3482 157.95 69.9852
84.3586 157.879 69.7431
85.0621 157.543 69.7253
85.9581 157.358 69.7747
82.7631 158.069 70.7356
83.674 158.248 70.3845
84.4601 157.989 70.2161
88.1363 146.34 73.75
87.3427 147.173 74.3827
87.8845 146.762 75.1255
88.3785 145.545 74.8915
89.127 146.431 74.1242
89.3145 145.641 74.6851
89.7864 146.612 74.4063
89.9583 146.15 75.0362
87.1083 147.5 73.103
86.1424 148.206 73.2491
86.7267 148.101 74.0949
88.2469 147.756 72.7293
89.161 147.792 73.1664
89.8596 147.667 73.8146
90.1649 147.188 74.6862
86.2134 148.41 72.5768
85.0406 148.932 72.9095
87.3918 148.516 72.5318
88.4041 149.096 72.8525
89.4042 149.089 73.3162
90.0661 148.535 74.095
84.467 149.758 73.0127
88.074 150.194 72.4959
88.9441 150.404 72.8995
89.7116 149.888 73.5537
84.2359 151.682 72.609
84.2828 150.546 73.2485
87.6705 151.931 72.2039
88.3744 151.76 72.6045
89.4702 151.23 73.4883
83.928 152.366 72.4961
83.3648 152.686 72.8572
83.4127 151.741 73.2519
87.7005 153.127 71.8232
88.369 152.786 72.5472
88.9724 152.126 73.1383
82.6274 154.084 72.236
83.2234 153.599 72.896
87.2278 153.937 71.0737
87.5221 154.082 71.5625
88.1068 153.73 72.2353
82.0577 154.584 72.4066
87.4876 154.955 70.6217
87.6577 154.732 71.4393
87.7965 154.397 72.0376
81.7947 155.356 72.5484
87.4288 155.898 70.1906
87.9651 155.681 70.848
81.8226 156.574 72.2494
86.8283 156.887 70.0015
87.3253 156.332 70.555
81.9906 157.602 72.1366
85.8788 157.393 70.5949
85.1126 157.772 70.232
86.648 157.026 70.6008
82.3837 158.095 71.4562
83.2938 158.244 71.1825
84.1685 158.143 70.916
86.8936 147.469 75.2512
87.5707 146.583 76.0236
88.1672 145.747 75.9664
89.0271 145.428 75.5761
89.8458 146.34 75.7273
85.7429 148.8 73.7872
86.3815 148.385 74.6982
90.2023 147.716 75.1756
85.1154 149.317 73.6556
90.0918 148.464 74.7901
90.0829 149.301 74.2641
89.9974 148.961 75.3162
84.5361 149.73 73.9756
89.6907 150.268 74.1231
90.0673 149.78 74.8604
83.8694 151.082 73.5703
84.2097 150.606 74.1156
89.7968 150.757 74.2806
89.7383 150.527 75.0217
83.3164 152.526 73.7461
83.4825 151.663 74.2464
89.0028 152.924 73.0315
89.3807 152.107 73.7528
89.7579 151.369 74.3606
82.5015 153.817 73.1949
83.0868 153.268 73.9399
88.9133 153.668 72.9336
88.9183 153.143 73.8435
81.9046 154.347 73.4043
87.877 154.998 71.9913
87.9787 154.357 72.7063
88.5922 153.974 73.1197
81.735 155.638 73.0742
87.7716 155.86 71.5454
87.6308 155.192 72.6262
81.5738 156.719 72.8897
87.4455 156.132 71.8993
87.2625 156.341 71.1001
81.6292 157.603 72.8018
84.9911 157.687 70.8179
85.5589 157.551 71.1545
86.2095 157.01 71.4821
82.1243 158.385 72.3168
82.9639 158.251 71.9186
83.7876 158.172 71.5709
84.5988 157.858 71.3437
87.1173 147.195 76.0898
87.4121 146.518 76.7858
87.9648 145.808 76.8195
88.9248 145.617 76.602
89.512 146.648 76.5483
85.7603 148.84 74.79
86.3447 148.273 75.4652
86.7347 147.633 76.2947
89.7032 147.6 76.1204
89.801 148.345 75.5358
89.4949 148.506 76.2511
85.0677 149.258 74.6048
85.4951 149.211 75.4988
89.6203 149.23 76.0477
84.6246 150.056 74.7381
89.7175 149.998 75.8746
83.8045 151.079 74.7348
84.2377 150.595 74.7476
89.5551 150.689 75.7986
82.9637 152.059 74.7664
83.4506 151.571 74.9472
89.1318 152.018 74.528
89.4762 151.402 75.2113
82.5387 153.582 74.3003
82.768 152.807 74.6756
88.9184 152.715 74.5274
89.0383 152.285 75.0601
81.8647 154.295 74.0739
81.4412 154.561 74.6506
82.0749 153.901 74.7652
88.1389 154.578 73.133
88.6588 153.888 73.8851
88.8217 153.354 74.6209
81.6546 155.141 73.7328
81.1958 155.392 74.4552
87.7853 154.916 73.217
88.0808 154.604 73.7286
81.2529 156.209 73.6064
81.0497 156.19 74.3482
86.8638 156.447 71.8057
87.3743 156.167 72.5151
87.3402 155.354 73.3922
81.2694 157.177 73.5209
81.1034 157.353 74.1554
85.7299 156.862 72.3725
85.1742 157.308 71.7504
86.4527 156.617 72.2771
81.3356 158.38 73.106
82.2171 158.462 73.0293
82.8726 158.253 72.6905
83.6853 158.139 72.3284
84.4246 157.797 72.0449
88.1784 145.661 77.7349
87.3087 146.096 77.7108
87.6306 145.671 78.4016
88.4534 145.868 78.2625
89.035 145.905 77.4116
88.7056 146.55 77.8102
86.9565 146.999 77.0943
89.0119 147.134 77.6103
86.1042 148.597 76.1564
86.293 147.627 76.9762
89.4712 147.603 76.9843
89.2518 148.544 76.9829
84.8339 149.453 75.477
84.9994 148.941 76.5091
89.3662 149.38 76.901
83.9588 150.49 75.3379
83.7876 150.448 76.0601
84.4325 149.976 75.8059
89.2961 150.286 76.6221
83.4604 151.732 75.5198
83.2023 151.63 76.265
83.6669 150.982 76.4297
89.3622 151.188 76.2255
82.8735 152.555 75.3744
82.2009 152.649 76.053
82.5492 151.963 76.507
89.0621 151.979 75.8729
82.2256 153.13 75.198
81.503 153.774 75.5009
81.5214 152.977 76.1417
88.7335 152.811 75.4213
81.323 154.613 75.5339
88.2549 153.581 75.116
88.303 154.107 74.3594
80.9514 155.368 75.4506
87.5829 154.852 74.1606
80.9637 156.325 75.1493
87.0641 155.692 73.947
87.0529 156.409 72.9541
81.0318 157.25 74.9973
85.4618 156.75 73.0681
84.9342 157.131 72.4487
86.1434 156.528 72.9799
81.1022 158.179 74.0603
81.8652 158.405 73.7402
82.6868 158.033 73.4874
83.4128 157.895 73.1299
84.1044 157.501 72.8433
87.0216 146.107 78.2712
86.3174 146.747 78.4615
86.8221 145.834 79.0132
87.5371 145.603 79.2644
88.1372 146.25 78.7951
88.4062 146.656 78.9834
86.4834 146.927 77.7343
85.9483 147.762 77.483
88.5579 147.287 78.7204
85.5794 148.466 76.9959
89.1215 147.81 77.8303
88.9602 148.729 77.8139
84.4654 149.7 76.4585
84.3498 149.854 77.4289
84.8154 149.226 77.309
85.1248 148.686 77.4725
89.0742 149.625 77.6486
84.0593 150.391 76.8628
83.433 150.788 77.2629
83.8541 150.254 77.9468
89.0052 150.609 77.2348
82.7535 150.975 77.4294
88.8293 151.493 76.8345
82.2619 152.685 76.8367
82.3219 151.675 77.4109
88.5751 152.426 76.3573
81.3663 153.792 76.3784
81.6207 153.132 77.0177
87.9827 153.011 75.8786
81.1886 154.542 76.4198
87.9053 154.036 75.5752
87.9583 154.471 74.8063
80.9266 155.4 76.2577
87.1045 154.906 74.6654
80.8405 156.351 76.0857
86.7795 155.859 74.55
86.6065 156.442 73.7079
80.7438 157.306 75.8295
84.653 157.046 73.0185
85.2352 156.934 73.5891
85.8677 156.852 73.7189
81.1682 157.865 74.8808
81.7204 158.111 74.4342
82.5154 157.867 74.191
83.232 157.727 73.9658
83.9658 157.608 73.7332
84.4608 157.215 73.5882
87.0453 144.982 79.8059
86.4343 145.923 79.6087
86.6741 144.802 80.4619
87.5373 144.683 80.7447
87.8045 145.211 79.7933
87.9697 145.391 80.5556
88.169 146.079 79.6474
88.1654 146.077 80.4137
86.0309 147.103 78.7822
88.1093 146.69 80.0932
85.7875 147.871 78.2112
88.162 147.424 79.7174
85.5862 148.452 77.8816
85.0721 148.475 78.5222
85.507 148.105 78.4889
88.6161 148.011 78.6725
88.6151 148.992 78.5686
84.058 149.257 78.3129
84.6324 148.824 78.2244
88.6305 149.961 78.2418
83.3945 150.629 78.5347
83.4445 149.581 78.7327
88.5078 150.953 77.7865
82.6084 150.979 78.3752
88.3365 151.945 77.3076
82.0897 152.43 77.6619
82.1012 151.49 77.9598
87.9652 152.733 76.8452
81.1171 153.739 77.2995
81.5995 153.014 77.74
87.8049 153.376 76.2554
81.0233 154.567 77.2492
87.5873 154.02 76.0954
87.5148 154.659 75.4108
80.8166 155.477 77.0525
86.7654 154.912 75.2669
80.5778 156.54 76.8434
86.1934 155.362 75.1048
86.1914 156.394 74.3495
80.6529 157.448 76.5342
85.6545 156.751 74.613
85.1246 156.993 74.201
81.2327 157.901 75.5737
81.7684 158.153 75.2906
82.5199 157.946 74.9754
83.2032 157.798 74.7951
83.9001 157.577 74.6543
84.5616 157.404 74.388
86.8163 144.096 81.2228
86.2847 145.23 80.8512
86.3546 143.669 81.9758
86.9887 143.242 82.0099
87.6264 144 81.6842
87.4855 143.958 82.4599
86.286 146.313 80.1094
87.8589 145.218 81.4759
87.8298 145.963 81.3912
85.6994 147.016 79.6264
85.0554 146.867 80.3336
85.7107 146.454 80.3828
87.7859 146.85 81.1223
85.4256 147.818 79.0948
84.7682 147.792 79.712
87.7454 147.718 80.4525
84.303 148.453 79.0404
83.884 148.151 79.9621
84.3782 147.903 79.8907
88.3682 148.265 79.4243
88.387 149.322 79.2749
83.634 148.87 79.2502
82.9784 149.523 79.6557
83.185 148.62 80.0631
88.0816 150.402 78.7206
82.401 150.385 79.3101
88.0725 151.383 78.2652
81.8838 151.269 78.503
81.5913 151.704 79.0647
81.8684 151.037 79.3488
87.921 152.343 77.8271
81.7558 152.463 78.3329
81.3691 153.26 78.3195
81.5137 152.437 79.1375
87.6523 152.862 77.3055
87.2995 152.906 77.8614
87.3467 153.644 77.178
81.0897 153.979 78.1585
87.5476 153.395 76.717
87.1629 154.309 76.435
80.8245 154.846 77.978
86.8531 154.814 76.0713
80.4211 155.882 77.7584
86.2818 154.952 75.8473
80.4759 156.925 77.4818
85.8816 155.255 75.6079
85.7911 155.821 75.1238
80.7707 157.691 76.9363
81.1303 158.095 76.3081
81.3794 158.136 76.8428
85.3102 156.149 75.1292
85.0684 157.044 74.866
81.7781 158.206 75.9591
82.5737 158.184 75.7565
83.1802 157.893 75.5189
83.7971 157.628 75.424
84.3496 157.302 75.0639
86.0939 144.867 81.7198
85.6759 145.071 82.2
85.9098 144.223 82.5307
86.259 142.988 82.8262
86.9748 142.813 82.9351
87.5883 143.642 83.4924
85.835 145.98 81.1327
85.4251 145.812 82.0645
87.5979 144.992 82.3939
87.6075 146.084 82.1873
84.9991 146.504 81.2963
84.1147 146.613 81.6207
84.9403 146.312 81.9709
87.4779 147.191 81.8313
84.4678 147.406 80.677
83.804 147.462 81.3912
87.5865 148.034 80.8385
88.0124 148.543 79.9784
87.9134 148.962 80.3016
83.5172 148.002 80.7173
82.5804 148.712 80.7536
83.1044 147.946 81.4382
87.913 149.85 79.6179
82.2653 149.679 80.4374
87.9222 150.914 79.1601
82.1692 150.485 80.1817
87.6679 151.696 78.7677
81.4828 151.327 79.9968
81.9304 150.965 80.258
87.3816 152.436 78.519
80.9798 153.342 79.1373
81.0243 152.245 79.8742
86.9816 153.187 78.3209
86.8655 153.822 77.3989
80.6623 154.262 78.9527
86.6127 154.491 77.0394
80.3652 155.361 78.7396
86.2095 154.945 76.6865
80.5543 156.252 78.3734
85.8497 155.265 75.9908
85.8674 155.098 76.674
85.4974 155.3 76.5901
80.7866 156.926 78.0215
80.9068 157.605 77.3877
81.2889 157.664 77.7267
85.2744 155.689 75.6618
84.9987 155.494 76.5565
84.7179 155.823 76.0575
81.9041 157.958 77.415
84.2939 156.882 75.7079
84.1101 156.698 76.2972
83.7666 157.292 76.0774
84.8384 156.32 75.4805
84.3236 156.133 76.2916
82.0173 158.316 76.6574
82.6965 158.18 76.4442
83.3864 157.928 76.1664
86.4899 141.76 83.4301
85.6627 142.579 83.4966
85.451 141.454 83.9457
86.6222 141.545 84.1785
87.2458 142.435 83.7714
86.9943 142.815 84.4366
85.2439 144.696 83.1287
85.4801 143.552 83.312
87.1124 144.028 84.1042
84.8243 145.864 82.5909
84.2971 145.559 83.3617
84.8358 145.091 83.2755
87.5262 145.01 83.147
87.3334 146.331 82.8873
83.8573 146.332 82.5145
83.1779 147.011 83.0737
83.6402 146.102 83.5962
87.2567 147.597 82.4752
83.3127 147.252 82.1699
82.5115 148.071 82.0254
87.51 148.36 81.3272
87.6574 149.44 80.7249
82.161 148.892 81.496
87.5711 150.34 80.0289
81.9367 149.614 81.2722
81.3295 149.878 82.0473
81.7936 149.294 82.1617
87.3093 151.027 79.7766
81.9236 150.493 80.9926
81.3033 150.773 81.6624
87.1672 151.816 79.5282
81.2971 151.364 80.7618
80.7598 152.721 80.3238
80.9659 151.64 81.2449
86.9741 152.578 79.0677
80.5647 153.692 79.9372
86.6258 153.166 78.8862
86.4577 153.723 78.1722
80.4752 154.702 79.662
86.2573 154.407 77.7706
80.4629 155.816 79.3479
85.8924 155.014 77.286
85.8609 154.699 78.1926
85.329 155.098 77.8162
80.8921 156.445 78.9214
84.1004 155.753 77.5526
83.9151 155.74 78.543
83.6637 156.028 77.827
84.6437 155.406 77.5988
84.2879 155.45 78.2383
85.1976 155.244 77.2338
84.7099 155.057 78.2615
81.2414 156.964 78.3747
81.7105 157.452 78.1902
83.8436 156.181 76.862
83.3447 156.346 77.4065
84.445 155.697 76.9269
82.1624 157.614 77.7952
82.4648 157.764 77.1543
83.018 157.817 76.8564
82.5828 157.321 77.6021
83.5085 157.141 76.719
82.9611 156.948 77.452
84.7898 141.747 85.14
84.3356 142.401 85.4393
84.5121 141.006 86.1498
85.252 140.724 85.7407
85.3636 141.314 84.66
85.8526 141.114 85.3917
86.3957 141.587 84.8256
86.5408 141.878 85.3222
84.9525 143.011 84.1364
84.3344 143.422 84.7703
86.4574 143.065 85.0431
84.7816 144.4 83.9922
83.7773 144.5 84.4849
83.9143 143.907 85.0154
86.8637 144.372 84.7557
83.8583 145.096 83.9302
82.9532 145.728 84.2327
83.262 144.842 84.6021
87.1073 145.31 83.7537
87.1156 146.693 83.6078
82.575 146.913 83.4539
87.1255 147.813 83.087
82.05 147.686 82.917
81.1178 147.979 83.42
81.4892 146.946 83.7438
87.1699 148.658 81.8291
86.94 148.839 82.5382
81.696 148.376 82.5804
81.1158 149.127 82.9928
87.102 149.453 81.3986
87.1492 150.233 80.8268
80.9192 150.135 82.7426
86.9063 151.056 80.487
80.9111 151.162 81.9181
80.4907 152.086 81.4413
80.5686 151.151 82.5299
86.7605 152.021 79.8564
80.4163 153.058 81.0178
86.6921 152.66 79.4537
86.5318 152.494 80.096
86.3131 153.229 79.3889
80.4735 154.075 80.631
86.0159 153.701 78.8534
80.5816 155.082 80.3116
85.9589 154.25 78.5983
80.6834 155.93 80.107
80.7564 156.654 79.5811
81.2271 156.466 79.9709
85.3372 154.885 78.4876
85.4857 154.64 79.0624
85.0563 154.964 79.049
85.8138 154.31 79.059
81.169 156.814 79.0945
81.4898 156.914 79.4852
83.6701 155.633 79.1831
83.5163 156.309 78.4944
84.4048 155.275 79.0278
82.2417 157.229 78.3454
81.7638 157.14 78.8551
82.6194 156.811 78.2855
82.4242 156.82 78.9386
83.1088 156.555 78.1681
82.9816 156.425 78.812
83.6764 142.296 86.896
82.7786 142.192 87.4683
83.2664 141.306 87.7525
83.8643 141.027 87.0763
84.0597 142.026 86.2035
84.4487 139.917 86.6067
85.4866 139.957 86.5328
86.0211 140.893 86.1526
86.359 142.049 86.0819
83.2596 143.217 86.3488
82.7206 143.498 86.6665
83.8219 143.206 85.7969
86.4009 143.29 85.8027
83.1745 144.436 85.4406
82.3133 144.326 85.9591
86.552 144.437 85.6452
82.4101 145.251 85.0344
81.7154 146.108 85.317
82.1167 145.298 85.8513
86.9683 145.645 84.3585
86.6277 145.531 85.0676
82.0958 146.33 84.387
81.1845 147.079 84.5613
86.9485 146.62 84.2657
86.8637 147.781 83.7306
80.8667 148.449 84.0208
86.4711 148.928 83.2006
80.8418 149.577 83.7231
86.9003 149.754 81.8865
86.4203 149.81 82.6192
80.5616 150.575 83.5215
86.7968 150.578 81.5218
86.2614 150.69 82.1962
80.3495 152.321 82.0408
80.6159 151.629 82.977
86.3536 151.297 81.4029
86.0457 151.388 81.991
85.9428 151.928 81.4185
86.6038 151.564 80.7502
80.45 153.387 81.6762
86.1661 152.564 80.5432
85.6164 152.484 81.1614
80.4642 154.41 81.3191
85.97 153.273 80.0823
85.5375 153.358 80.6618
80.6934 155.071 81.0927
85.4148 153.901 79.7441
85.2902 153.698 80.3825
85.0626 154.134 80.3341
85.8818 153.822 79.244
80.7906 155.859 80.8408
81.9405 156.509 79.9913
81.3386 156.16 80.5785
82.1773 156.14 80.5337
85.0182 154.589 79.6876
84.6757 154.715 80.2348
84.4244 155.124 79.7019
82.1778 156.884 79.49
82.5816 156.063 80.056
82.7591 156.403 79.4758
83.2807 156.097 79.1566
83.1642 155.822 79.8835
83.8372 155.526 79.8012
83.8194 139.099 88.2727
83.0087 139.383 88.8556
83.2208 138.538 89.2355
84.0913 137.952 88.9352
84.7441 139.207 88.2018
84.7289 138.8 88.8101
85.3356 139.814 88.2698
85.1232 139.687 88.8592
83.3106 140.227 88.1562
82.3954 141.041 88.5731
82.5039 139.987 89.1121
83.9532 139.747 87.3949
84.7695 139.359 87.3024
85.5429 139.935 87.4148
85.5337 140.695 88.0161
82.2865 142.559 87.8439
85.9998 140.982 86.8619
86.3189 142.315 86.7935
82.1134 143.737 86.996
86.3372 143.589 86.5095
82.0272 144.597 86.4757
81.8573 145.648 86.5075
81.8396 144.563 87.0755
86.3033 145.158 85.9663
81.6409 146.797 85.8024
86.3447 146.358 85.5054
81.0191 147.821 85.1549
86.6919 146.998 84.6338
86.4486 148.183 84.1547
80.7814 148.963 84.7939
86.075 149.104 83.63
80.6467 149.908 84.4828
86.1887 150.12 83.2076
80.4552 150.792 84.3459
86.0617 150.918 82.6219
80.4657 152.733 82.7164
80.5243 151.694 83.7337
85.7514 151.113 82.5981
85.484 151.653 82.2694
80.607 153.788 82.2592
80.6898 153.087 83.1886
85.1553 152.627 81.5331
80.6706 154.885 81.9146
81.0128 154.494 82.759
85.072 153.517 81.0102
84.8104 153.036 81.7042
84.6091 153.751 81.4491
81.016 155.39 81.4918
81.358 155.15 82.0342
83.9581 154.818 80.9708
83.6975 154.609 81.6685
83.3357 155.146 81.2064
84.6328 154.395 80.8174
84.2241 154.084 81.6056
81.4768 155.861 81.3397
82.8075 155.971 80.6973
82.1734 156.063 81.2182
83.4509 155.641 80.582
82.8507 155.47 81.3239
84.15 155.22 80.3893
81.7869 128.225 94.6455
81.0969 127.94 94.3691
81.3179 126.848 95.0307
81.5823 127.894 95.3246
81.9225 128.849 94.9808
81.5409 128.58 95.4905
81.7638 129.01 94.0755
81.412 129.47 94.0194
82.0669 129.445 94.3951
81.6028 129.717 95.0674
81.7892 130.251 93.8381
81.9766 130.463 94.4036
82.1347 137.932 90.2487
81.3263 138.841 90.7004
81.6102 137.639 91.0644
82.5428 136.72 90.4139
83.1002 137.561 89.6947
83.8439 136.376 90.0122
84.2644 137.692 89.7374
84.3379 137.805 90.5838
82.3543 139.066 89.8212
81.7719 140.057 89.8906
84.7676 138.733 89.6081
85.2813 140.26 89.1703
81.7991 141.438 88.849
85.4376 141.482 88.6996
81.7244 142.546 88.3738
81.3604 143.426 88.4494
81.2198 142.227 88.9947
85.7794 141.773 87.5824
85.9272 143.166 87.3726
81.7719 143.634 87.7449
81.466 144.866 87.5428
86.0686 144.336 86.8437
81.5171 146.271 86.8591
86.0818 145.556 86.5541
81.0112 147.377 86.2356
85.7927 146.54 86.3823
80.5884 148.499 85.7896
86.2453 147.35 85.0618
85.7679 147.363 85.7211
80.6751 149.574 85.6188
86.0273 148.318 84.7653
85.5966 148.534 85.1742
80.8782 150.439 85.265
85.7342 149.272 84.1353
85.4938 149.968 84.2665
80.9175 151.338 84.7279
85.7216 150.648 83.3101
85.1227 150.721 83.6552
80.9065 152.34 84.0663
85.2194 151.627 82.9751
84.9706 151.161 83.9274
84.6555 151.774 83.5296
81.0846 153.678 83.6133
83.8025 152.814 82.8823
83.6052 152.837 83.6678
83.4143 153.422 83.12
84.4892 152.233 82.9037
84.1812 152.293 83.8054
84.9586 152.392 82.2216
81.5474 154.386 83.2149
81.9536 154.955 82.4657
82.8028 154.639 82.4292
82.2766 154.365 83.148
83.2982 153.806 82.4526
82.9048 153.957 83.1302
83.7824 153.874 82.1542
84.2952 153.089 82.2438
81.9119 155.451 81.7351
82.5557 155.311 81.8683
83.2186 154.819 81.9438
79.8892 125.638 95.1901
79.4087 127.217 95.1335
79.2192 126.393 96.2999
80.4635 125.732 96.5777
81.2897 125.595 95.5827
81.108 126.588 96.5141
80.2937 127.066 94.5025
80.2906 128.292 95.0189
81.5808 127.359 95.9309
81.3134 128.425 95.9992
81.0001 129.126 94.4873
80.5741 129.544 94.8229
81.3418 129.727 95.5756
80.9788 130.969 93.8954
80.7026 131.338 94.3675
81.3918 130.598 93.691
82.0333 131.307 93.9779
81.8936 131.048 94.8487
81.5762 132.208 93.588
81.1335 132.735 94.0891
82.1555 132.034 93.0939
82.8296 132.013 93.204
82.4694 131.941 94.1375
83.1655 132.401 93.5835
83.1014 132.804 94.106
81.7992 133.383 93.2456
80.9863 134.017 93.5652
82.3889 133.246 92.4605
83.2761 133.048 92.0642
83.4849 133.273 92.8006
83.354 133.567 93.5753
81.7657 134.31 92.8966
82.3004 134.463 92.1514
81.6025 135.197 92.6992
83.2116 134.224 91.4467
84.0356 134.361 92.082
83.6328 134.628 92.9191
81.9183 135.608 91.8826
81.2599 136.181 92.5652
82.8112 135.115 91.2155
84.2931 135.112 91.2557
84.058 135.77 92.4156
81.2884 136.871 92.0398
81.9946 136.479 91.2806
80.7669 138.033 91.8127
83.2406 135.521 90.5332
84.4495 136.405 91.8608
84.4284 136.346 90.7934
84.273 137.525 91.5927
80.6239 139.184 91.4862
84.4131 138.739 91.1121
81.1227 140.247 90.6506
80.9248 141.274 90.3659
80.4203 140.425 91.4687
85.0987 139.363 90.2246
85.0113 140.628 89.9912
81.4007 141.14 89.7787
80.8767 142.584 89.5375
84.928 141.678 89.6915
81.0254 144.066 88.7296
85.55 142.492 88.2034
85.1066 142.719 89.0333
81.0731 145.479 87.8492
85.4158 143.479 88.036
85.7105 144.442 87.4959
80.6929 146.767 87.2087
85.4418 145.525 87.2468
80.6323 147.913 86.8377
85.4332 146.505 87.0439
85.0636 145.912 87.6974
84.8906 146.867 87.4405
80.7917 149.061 86.565
85.2658 147.465 86.5535
84.6087 148.095 86.8107
80.917 150.255 86.462
85.2169 148.386 85.9468
84.6602 149.004 86.2837
81.2349 150.949 85.7852
84.7148 149.545 85.4693
84.1161 149.67 86.1802
83.917 150.251 85.566
85.1297 149.38 84.9581
81.1896 151.896 85.0599
84.2741 150.501 84.8679
83.8667 151 84.9711
84.8494 150.388 84.5179
81.304 152.699 84.4505
84.4426 151.335 84.2553
83.9934 151.767 84.4634
81.5499 153.497 84.2834
81.8699 154.067 83.9086
82.6507 153.798 83.7682
82.3642 153.47 84.3723
83.2125 153.42 83.6817
83.0838 153.006 84.3326
83.4441 152.252 84.3498
79.65 127.881 95.8781
79.1578 127.19 96.9243
80.1055 126.149 97.4391
80.893 127.111 97.3232
79.878 129.333 95.6344
81.1354 127.627 96.5823
81.1746 128.881 96.4665
80.3233 130.522 95.0728
81.3115 130.602 95.56
80.4209 131.748 94.877
81.7913 131.789 95.2499
80.4748 133.13 94.4585
82.3857 132.384 94.6425
82.9216 133.568 94.2646
80.6262 134.016 94.3553
83.1264 134.668 93.7539
81.0919 134.738 93.2427
80.7414 134.749 93.9176
83.3772 135.755 93.2593
80.9306 135.377 93.3242
80.8771 136.261 93.1898
83.4377 136.766 93.2175
80.656 137.346 92.8215
80.7967 138.485 93.0231
83.5651 137.702 92.7277
83.9221 138.703 92.1461
80.7143 139.674 92.6872
84.0559 139.603 91.8647
80.6013 141.783 90.7219
80.5237 141.058 92.092
84.4687 140.003 90.8659
84.4077 141.062 90.7883
80.6549 143.136 89.9048
84.643 142.262 90.2734
80.6528 144.659 89.0085
84.7069 143.361 89.7767
80.4214 145.91 88.4001
85.2279 143.905 88.5253
84.7955 144.138 89.0227
80.4899 147.188 87.8955
85.0207 144.888 88.1549
84.5872 145.738 88.3527
80.7945 148.186 87.6825
84.2387 147.053 87.7023
80.895 149.182 87.4268
84.0685 148.301 87.2976
83.625 147.627 87.9398
83.4161 148.547 87.6134
81.1797 150.079 87.3097
81.5749 151.002 86.8317
82.4241 150.994 87.375
81.6932 150.382 87.8281
82.9641 150.109 87.2573
82.4552 150.02 87.9775
83.6307 149.406 87.2392
82.9538 149.159 87.7792
84.1995 149.175 86.826
81.5324 151.897 85.9836
82.2496 151.685 86.5102
82.8815 150.994 86.5063
83.4734 150.259 86.5362
81.8083 152.401 85.1493
82.4497 151.987 85.5632
82.9621 151.579 85.7484
83.3695 150.861 85.6796
81.9448 152.986 84.6153
82.5366 152.752 84.8856
83.0017 152.201 84.9574
83.4412 151.473 85.0087
79.7729 128.539 96.4809
79.8899 127.749 97.519
79.8633 129.87 96.2063
80.2257 129.386 96.6957
80.7295 128.49 97.1513
80.0907 130.881 95.6657
80.3314 130.655 96.4433
80.7495 129.968 97.0316
81.2782 129.685 96.6808
81.4381 130.832 96.0473
80.2381 132.314 95.3311
81.8258 132.259 95.6581
80.6252 133.585 94.99
82.305 133.138 94.9148
82.5253 134.344 94.4898
80.7485 134.552 94.7519
82.7288 135.61 94.0791
80.6366 135.217 94.551
82.7992 136.734 93.9371
80.5517 135.701 93.8964
80.6851 136.38 93.9858
82.9535 137.998 93.8741
80.8525 136.938 93.6505
81.2471 139.386 93.9255
80.9891 137.77 93.9276
82.6052 139.188 93.7664
81.821 138.434 94.6334
83.4315 138.871 93.0005
81.0496 140.564 93.0919
82.1389 140.565 93.4331
83.2764 139.933 92.8891
80.5546 142.372 91.0911
80.8101 142.237 91.9848
81.3271 141.515 92.9647
82.3954 141.662 92.9489
82.7443 142.465 92.1744
83.1295 141.159 92.4884
83.8457 140.637 91.8292
80.5552 143.864 90.1779
83.4881 142.344 91.598
82.9774 143.589 91.4894
84.0347 141.71 91.2895
80.7178 145.106 89.4863
83.3583 143.697 90.6341
83.0451 144.643 90.8293
84.0747 142.862 90.6962
80.7328 146.201 89.0089
83.5403 144.905 89.9166
83.0344 145.837 90.169
84.073 144.057 89.8193
80.8155 147.235 88.6109
83.4928 145.958 89.2506
82.7694 146.622 89.5004
84.2367 145.082 89.0565
81.059 147.815 88.7094
81.3558 148.578 88.5096
82.2752 148.367 89.0924
81.5228 147.889 89.2234
82.9755 147.67 89.0949
82.3516 147.467 89.542
83.2784 147.057 88.7518
83.8057 146.539 88.4834
81.2838 149.462 88.0419
81.9436 149.247 88.3075
82.7226 148.799 88.5041
83.1401 148.015 88.3007
80.3519 132.012 96.0191
80.6883 131.616 96.4974
81.1354 131.063 96.4943
80.404 133.31 95.8638
80.8986 132.821 96.3468
81.4841 132.374 96.1712
80.7418 134.42 95.4902
81.2236 134.041 96.0173
81.7522 133.876 95.8176
81.9302 133.569 95.243
80.9328 135.364 95.2487
81.4633 135.134 95.8327
82.0304 135.009 95.6273
82.249 134.799 94.9582
80.7915 135.99 94.6985
81.3846 136.12 95.2853
82.1196 136.297 95.6543
82.5787 135.998 94.8955
81.1763 136.757 94.4266
81.5222 137.358 94.9378
82.415 137.366 94.6519
80.8983 143.438 91.1471
81.2968 143.098 91.9399
81.9218 142.538 92.5972
81.2171 144.543 90.4532
81.3651 144.295 91.4279
82.1471 143.577 91.9413
81.2322 145.535 89.9349
81.5634 145.246 91.0531
82.5251 144.774 91.521
81.2467 146.311 89.5019
81.6909 145.947 90.3183
82.4619 145.618 90.8879
81.1436 147.222 89.2934
81.6989 146.772 89.7508
82.3789 146.362 90.2528
POLYGONS 2132  8528
3 0 1 2
3 0 3 4
3 2 3 0
3 4 5 6
3 3 5 4
3 6 7 8
3 5 7 6
3 7 9 8
3 10 1 0
3 11 1 10
3 4 12 0
3 12 10 0
3 6 13 4
3 13 12 4
3 8 14 6
3 14 13 6
3 15 8 9
3 14 8 15
3 16 11 10
3 17 11 16
3 12 18 10
3 18 16 10
3 13 19 12
3 19 18 12
3 14 20 13
3 20 19 13
3 21 14 15
3 20 14 21
3 16 22 17
3 18 22 16
3 23 22 18
3 19 23 18
3 24 23 19
3 20 24 19
3 25 24 20
3 21 25 20
3 26 27 28
3 26 29 30
3 28 29 26
3 29 31 30
3 32 33 34
3 27 32 34
3 27 26 32
3 26 35 32
3 30 36 26
3 36 35 26
3 37 30 31
3 36 30 37
3 38 33 32
3 39 33 38
3 35 40 32
3 40 38 32
3 36 41 35
3 41 40 35
3 42 36 37
3 41 36 42
3 43 44 45
3 43 46 47
3 45 46 43
3 39 47 46
3 39 38 47
3 38 48 47
3 40 49 38
3 49 48 38
3 50 41 51
3 50 49 41
3 49 40 41
3 42 51 41
3 2 44 43
3 2 1 44
3 1 52 44
3 3 2 43
3 47 3 43
3 5 3 47
3 48 5 47
3 7 5 48
3 49 7 48
3 49 9 7
3 49 50 9
3 50 53 9
3 1 11 52
3 52 11 54
3 9 53 15
3 53 55 15
3 11 17 54
3 54 17 56
3 15 55 21
3 55 57 21
3 58 17 22
3 58 59 17
3 59 56 17
3 22 23 60
3 58 22 60
3 23 24 61
3 60 23 61
3 62 61 24
3 62 24 63
3 63 24 25
3 57 25 21
3 63 25 57
3 58 64 59
3 60 64 58
3 65 64 60
3 61 65 60
3 66 65 61
3 62 66 61
3 67 68 69
3 67 70 71
3 69 70 67
3 71 72 73
3 70 72 71
3 72 74 73
3 75 76 77
3 68 75 77
3 68 67 75
3 67 78 75
3 71 79 67
3 79 78 67
3 73 80 71
3 80 79 71
3 81 73 74
3 80 73 81
3 82 76 75
3 83 76 82
3 78 84 75
3 84 82 75
3 79 85 78
3 85 84 78
3 80 86 79
3 86 85 79
3 87 80 81
3 86 80 87
3 28 83 82
3 28 27 83
3 27 88 83
3 29 28 82
3 84 29 82
3 31 29 84
3 31 84 89
3 89 84 85
3 86 90 85
3 90 89 85
3 91 86 87
3 90 86 91
3 34 92 93
3 33 92 34
3 88 27 34
3 93 88 34
3 89 94 37
3 31 89 37
3 90 95 89
3 95 94 89
3 96 90 91
3 95 90 96
3 97 98 99
3 97 99 92
3 97 92 39
3 39 92 33
3 94 100 42
3 37 94 42
3 101 95 102
3 101 100 95
3 100 94 95
3 96 102 95
3 45 103 104
3 44 103 45
3 98 97 46
3 98 46 104
3 104 46 45
3 39 46 97
3 51 105 50
3 51 42 100
3 51 100 105
3 105 100 106
3 107 100 101
3 106 100 107
3 44 52 103
3 103 52 108
3 105 109 53
3 50 105 53
3 110 106 111
3 110 109 106
3 109 105 106
3 107 111 106
3 52 54 108
3 108 54 112
3 109 113 55
3 53 109 55
3 114 109 110
3 113 109 114
3 54 56 112
3 112 56 115
3 113 116 57
3 55 113 57
3 117 113 114
3 116 113 117
3 56 59 115
3 115 59 118
3 63 119 120
3 62 63 120
3 116 63 57
3 116 121 63
3 121 119 63
3 117 121 116
3 59 122 118
3 64 122 59
3 65 123 64
3 64 123 122
3 66 124 65
3 65 124 123
3 120 66 62
3 124 66 120
3 69 125 126
3 68 125 69
3 70 69 127
3 69 126 127
3 72 70 128
3 70 127 128
3 128 74 72
3 129 74 128
3 77 130 131
3 76 130 77
3 125 68 77
3 131 125 77
3 74 129 81
3 129 132 81
3 76 83 130
3 130 83 133
3 134 135 87
3 134 87 132
3 132 87 81
3 134 136 135
3 83 88 133
3 133 88 137
3 135 138 91
3 87 135 91
3 139 135 136
3 138 135 139
3 93 140 141
3 92 140 93
3 137 88 93
3 141 137 93
3 138 142 96
3 91 138 96
3 143 138 139
3 142 138 143
3 99 144 145
3 98 144 99
3 140 92 99
3 145 140 99
3 102 146 101
3 102 147 146
3 96 147 102
3 96 148 147
3 96 142 148
3 143 148 142
3 104 149 150
3 103 149 104
3 144 98 104
3 150 144 104
3 146 151 107
3 101 146 107
3 152 146 147
3 151 146 152
3 103 108 149
3 149 108 153
3 111 154 110
3 111 155 154
3 107 155 111
3 107 156 155
3 107 151 156
3 152 156 151
3 108 112 153
3 153 112 157
3 154 158 114
3 110 154 114
3 159 154 155
3 158 154 159
3 112 115 157
3 157 115 160
3 158 161 162
3 158 162 114
3 114 162 117
3 159 161 158
3 115 118 160
3 160 118 163
3 119 164 120
3 165 164 119
3 165 119 166
3 166 119 121
3 162 121 117
3 166 121 162
3 118 167 163
3 122 167 118
3 123 168 122
3 122 168 167
3 124 169 123
3 123 169 168
3 164 124 120
3 164 170 124
3 170 169 124
3 165 170 164
3 126 125 171
3 172 126 171
3 172 173 126
3 173 127 126
3 128 127 174
3 127 173 174
3 174 129 128
3 175 129 174
3 131 130 176
3 131 176 177
3 125 131 177
3 125 177 178
3 125 178 171
3 172 171 178
3 179 180 132
3 179 132 175
3 175 132 129
3 179 181 180
3 176 182 183
3 176 130 182
3 130 133 182
3 177 176 183
3 132 180 134
3 180 136 134
3 180 181 136
3 181 184 136
3 133 137 182
3 182 137 185
3 136 184 139
3 184 186 139
3 141 187 188
3 140 187 141
3 185 137 141
3 188 185 141
3 139 186 143
3 186 189 143
3 145 190 191
3 144 190 145
3 187 140 145
3 191 187 145
3 148 192 147
3 148 193 192
3 148 143 193
3 143 189 193
3 150 194 195
3 149 194 150
3 190 144 150
3 195 190 150
3 192 196 152
3 147 192 152
3 197 192 193
3 196 192 197
3 198 199 200
3 198 200 194
3 198 194 153
3 153 194 149
3 156 201 155
3 156 202 201
3 152 202 156
3 152 203 202
3 152 196 203
3 197 203 196
3 204 199 198
3 205 199 204
3 153 157 204
3 198 153 204
3 201 206 159
3 155 201 159
3 207 201 202
3 206 201 207
3 208 205 204
3 209 205 208
3 157 160 208
3 204 157 208
3 161 210 162
3 161 211 210
3 159 211 161
3 159 212 211
3 159 206 212
3 207 212 206
3 213 209 208
3 214 209 213
3 160 163 213
3 208 160 213
3 166 215 216
3 165 166 216
3 210 166 162
3 210 217 166
3 217 215 166
3 211 217 210
3 213 218 214
3 163 218 213
3 163 167 218
3 167 219 218
3 168 220 167
3 167 220 219
3 169 221 168
3 168 221 220
3 170 222 169
3 169 222 221
3 216 170 165
3 222 170 216
3 223 224 225
3 223 226 227
3 225 226 223
3 226 228 227
3 173 224 223
3 173 172 224
3 172 229 224
3 174 173 223
3 227 174 223
3 227 175 174
3 227 228 175
3 228 230 175
3 178 231 232
3 177 231 178
3 229 172 178
3 232 229 178
3 175 230 233
3 179 175 233
3 233 181 179
3 234 181 233
3 183 235 236
3 182 235 183
3 231 177 183
3 236 231 183
3 181 234 184
3 234 237 184
3 238 239 240
3 238 240 235
3 238 235 185
3 185 235 182
3 184 237 186
3 237 241 186
3 242 243 244
3 239 242 244
3 238 242 239
3 238 187 242
3 238 188 187
3 185 188 238
3 186 241 189
3 241 245 189
3 246 247 248
3 243 246 248
3 242 246 243
3 242 190 246
3 242 191 190
3 187 191 242
3 189 245 193
3 245 249 193
3 250 251 252
3 247 250 252
3 246 250 247
3 246 194 250
3 246 195 194
3 190 195 246
3 193 249 197
3 249 253 197
3 200 251 250
3 200 199 251
3 199 254 251
3 194 200 250
3 203 255 256
3 202 203 256
3 253 203 197
3 255 203 253
3 199 205 254
3 254 205 257
3 202 256 207
3 256 258 207
3 205 209 257
3 257 209 259
3 212 260 261
3 211 212 261
3 258 212 207
3 260 212 258
3 209 214 259
3 259 214 262
3 215 263 264
3 216 215 264
3 217 265 215
3 215 265 263
3 261 217 211
3 265 217 261
3 214 266 262
3 218 266 214
3 219 267 218
3 218 267 266
3 220 268 219
3 219 268 267
3 221 269 220
3 220 269 268
3 222 270 221
3 221 270 269
3 264 222 216
3 270 222 264
3 271 272 273
3 271 225 224
3 271 273 225
3 273 274 225
3 226 225 275
3 225 274 275
3 275 228 226
3 276 228 275
3 277 272 271
3 278 272 277
3 224 229 277
3 271 224 277
3 228 276 230
3 276 279 230
3 232 278 277
3 232 231 278
3 231 280 278
3 229 232 277
3 230 279 281
3 233 230 281
3 281 234 233
3 282 234 281
3 283 284 285
3 283 236 235
3 283 285 236
3 285 286 236
3 280 231 236
3 286 280 236
3 234 282 237
3 282 287 237
3 288 289 290
3 284 288 290
3 283 288 284
3 283 239 288
3 283 240 239
3 235 240 283
3 237 287 241
3 287 291 241
3 244 289 288
3 244 243 289
3 243 292 289
3 239 244 288
3 241 291 245
3 291 293 245
3 248 294 295
3 247 294 248
3 292 243 248
3 295 292 248
3 245 293 249
3 293 296 249
3 252 297 298
3 251 297 252
3 294 247 252
3 298 294 252
3 249 296 253
3 296 299 253
3 251 254 297
3 297 254 300
3 255 301 302
3 256 255 302
3 299 255 253
3 301 255 299
3 254 257 300
3 300 257 303
3 256 302 258
3 302 304 258
3 257 259 303
3 303 259 305
3 260 306 307
3 261 260 307
3 304 260 258
3 306 260 304
3 259 262 305
3 305 262 308
3 263 309 264
3 310 309 263
3 310 263 311
3 311 263 265
3 307 265 261
3 311 265 307
3 262 312 308
3 266 312 262
3 267 313 266
3 266 313 312
3 268 314 267
3 267 314 313
3 269 315 268
3 268 315 314
3 270 316 269
3 269 316 315
3 309 270 264
3 309 317 270
3 317 316 270
3 310 317 309
3 318 319 320
3 318 321 322
3 320 321 318
3 322 323 324
3 321 323 322
3 323 325 324
3 273 319 318
3 273 272 319
3 272 326 319
3 274 273 318
3 322 274 318
3 275 274 322
3 324 275 322
3 324 276 275
3 324 325 276
3 325 327 276
3 272 278 326
3 326 278 328
3 276 327 279
3 327 329 279
3 330 331 332
3 330 332 328
3 330 328 280
3 280 328 278
3 279 329 333
3 281 279 333
3 333 282 281
3 334 282 333
3 285 335 336
3 284 335 285
3 331 330 286
3 331 286 336
3 336 286 285
3 280 286 330
3 282 334 287
3 334 337 287
3 290 338 339
3 289 338 290
3 335 284 290
3 339 335 290
3 287 337 291
3 337 340 291
3 289 292 338
3 338 292 341
3 291 340 293
3 340 342 293
3 295 343 344
3 294 343 295
3 341 292 295
3 344 341 295
3 293 342 296
3 342 345 296
3 298 346 347
3 297 346 298
3 343 294 298
3 347 343 298
3 296 345 299
3 345 348 299
3 297 300 346
3 346 300 349
3 301 350 351
3 302 301 351
3 348 301 299
3 350 301 348
3 300 303 349
3 349 303 352
3 302 351 304
3 351 353 304
3 303 305 352
3 352 305 354
3 306 355 356
3 307 306 356
3 353 306 304
3 355 306 353
3 305 308 354
3 354 308 357
3 311 358 359
3 310 311 359
3 356 311 307
3 358 311 356
3 308 360 357
3 312 360 308
3 313 361 312
3 312 361 360
3 314 362 313
3 313 362 361
3 315 363 314
3 314 363 362
3 316 364 315
3 315 364 363
3 317 365 316
3 316 365 364
3 359 317 310
3 365 317 359
3 366 367 368
3 366 369 370
3 368 369 366
3 369 371 370
3 320 367 366
3 320 319 367
3 319 372 367
3 321 320 366
3 370 321 366
3 370 371 373
3 370 373 321
3 321 373 323
3 373 325 323
3 374 325 373
3 375 376 377
3 375 377 372
3 375 372 326
3 326 372 319
3 325 374 327
3 374 378 327
3 379 376 375
3 380 376 379
3 326 328 379
3 375 326 379
3 327 378 329
3 378 381 329
3 382 383 384
3 380 382 384
3 379 382 380
3 379 331 382
3 379 332 331
3 328 332 379
3 329 381 385
3 333 329 385
3 385 334 333
3 386 334 385
3 387 388 389
3 383 387 389
3 382 387 383
3 382 335 387
3 382 336 335
3 331 336 382
3 334 386 337
3 386 390 337
3 339 388 387
3 339 338 388
3 338 391 388
3 335 339 387
3 337 390 340
3 390 392 340
3 393 394 395
3 393 395 391
3 393 391 341
3 341 391 338
3 340 392 342
3 392 396 342
3 397 398 399
3 394 397 399
3 393 397 394
3 393 343 397
3 393 344 343
3 341 344 393
3 400 401 402
3 400 396 401
3 400 345 396
3 345 342 396
3 347 398 397
3 347 346 398
3 346 403 398
3 343 347 397
3 404 400 402
3 405 404 402
3 345 404 348
3 400 404 345
3 346 349 403
3 403 349 406
3 350 404 405
3 350 405 351
3 351 405 407
3 348 404 350
3 349 352 406
3 406 352 408
3 351 407 353
3 407 409 353
3 352 354 408
3 408 354 410
3 355 411 412
3 356 355 412
3 409 355 353
3 411 355 409
3 413 357 414
3 413 410 357
3 410 354 357
3 413 414 415
3 358 416 417
3 359 358 417
3 412 358 356
3 416 358 412
3 357 360 414
3 414 418 415
3 414 360 418
3 360 361 418
3 362 419 361
3 361 419 418
3 363 420 362
3 362 420 419
3 364 421 363
3 363 421 420
3 365 422 364
3 364 422 421
3 417 365 359
3 422 365 417
3 423 424 425
3 423 368 367
3 423 425 368
3 425 426 368
3 369 368 427
3 368 426 427
3 427 371 369
3 428 371 427
3 429 424 423
3 430 424 429
3 367 372 429
3 423 367 429
3 371 428 431
3 373 371 431
3 431 374 373
3 432 374 431
3 433 434 435
3 430 433 435
3 429 433 430
3 429 376 433
3 429 377 376
3 372 377 429
3 374 432 378
3 432 436 378
3 437 434 433
3 438 434 437
3 376 380 437
3 433 376 437
3 439 440 381
3 439 381 436
3 436 381 378
3 439 441 440
3 442 443 444
3 438 442 444
3 437 442 438
3 437 383 442
3 437 384 383
3 380 384 437
3 381 440 385
3 440 386 385
3 440 441 386
3 441 445 386
3 389 443 442
3 389 388 443
3 388 446 443
3 383 389 442
3 386 445 390
3 445 447 390
3 388 391 446
3 446 391 448
3 390 447 392
3 447 449 392
3 395 450 451
3 394 450 395
3 448 391 395
3 451 448 395
3 392 449 396
3 449 452 396
3 399 453 454
3 398 453 399
3 450 394 399
3 454 450 399
3 401 455 456
3 402 401 456
3 452 401 396
3 455 401 452
3 398 403 453
3 453 403 457
3 402 456 405
3 456 458 405
3 403 406 457
3 457 406 459
3 405 458 407
3 458 460 407
3 406 408 459
3 459 408 461
3 462 463 464
3 462 460 463
3 462 409 460
3 409 407 460
3 465 410 466
3 465 461 410
3 461 408 410
3 465 466 467
3 468 469 470
3 464 469 468
3 462 464 468
3 462 468 412
3 462 412 411
3 409 462 411
3 410 413 466
3 466 413 415
3 466 415 467
3 467 415 471
3 472 473 474
3 472 475 476
3 473 472 476
3 470 476 475
3 468 470 475
3 468 475 417
3 468 417 416
3 412 468 416
3 415 477 471
3 418 477 415
3 419 478 418
3 418 478 477
3 420 479 419
3 419 479 478
3 474 421 472
3 474 479 421
3 479 420 421
3 422 472 421
3 475 472 422
3 417 475 422
3 480 481 482
3 480 483 484
3 482 483 480
3 483 485 484
3 425 486 487
3 424 486 425
3 481 480 426
3 481 426 487
3 487 426 425
3 427 426 480
3 484 427 480
3 484 428 427
3 484 485 428
3 485 488 428
3 489 490 491
3 489 491 486
3 489 486 430
3 430 486 424
3 428 488 492
3 431 428 492
3 492 432 431
3 493 432 492
3 494 495 496
3 490 494 496
3 489 494 490
3 489 434 494
3 489 435 434
3 430 435 489
3 432 493 436
3 493 497 436
3 498 495 494
3 499 495 498
3 434 438 498
3 494 434 498
3 436 497 500
3 439 436 500
3 500 441 439
3 501 441 500
3 444 499 498
3 444 443 499
3 443 502 499
3 438 444 498
3 441 501 445
3 501 503 445
3 504 505 506
3 504 506 502
3 504 502 446
3 446 502 443
3 445 503 447
3 503 507 447
3 508 505 504
3 509 505 508
3 446 448 508
3 504 446 508
3 447 507 449
3 507 510 449
3 511 512 513
3 509 511 513
3 508 511 509
3 508 450 511
3 508 451 450
3 448 451 508
3 449 510 452
3 510 514 452
3 454 512 511
3 454 453 512
3 453 515 512
3 450 454 511
3 455 516 517
3 456 455 517
3 514 455 452
3 516 455 514
3 453 457 515
3 515 457 518
3 456 517 458
3 517 519 458
3 457 459 518
3 518 459 520
3 521 522 523
3 521 519 522
3 521 460 519
3 460 458 519
3 459 461 520
3 520 461 524
3 525 526 527
3 525 528 529
3 526 525 529
3 528 530 531
3 529 528 531
3 523 531 530
3 521 523 530
3 521 530 464
3 521 464 463
3 460 521 463
3 461 532 524
3 465 532 461
3 532 465 467
3 533 532 467
3 534 525 527
3 535 534 527
3 528 525 536
3 536 525 534
3 469 536 470
3 469 530 536
3 530 528 536
3 464 530 469
3 537 471 538
3 537 533 471
3 533 467 471
3 538 539 540
3 537 538 540
3 539 541 542
3 540 539 542
3 535 542 541
3 534 535 541
3 534 541 474
3 534 474 473
3 476 534 473
3 536 534 476
3 470 536 476
3 471 477 538
3 478 538 477
3 539 538 478
3 479 539 478
3 541 539 479
3 474 541 479
3 543 544 545
3 543 546 547
3 545 546 543
3 547 548 549
3 546 548 547
3 548 550 549
3 551 544 543
3 552 544 551
3 482 481 551
3 482 551 547
3 547 551 543
3 483 482 547
3 549 483 547
3 549 485 483
3 549 550 485
3 550 553 485
3 554 555 556
3 552 554 556
3 551 554 552
3 551 486 554
3 551 487 486
3 481 487 551
3 485 553 488
3 553 557 488
3 558 559 560
3 555 558 560
3 554 558 555
3 554 490 558
3 554 491 490
3 486 491 554
3 488 557 561
3 492 488 561
3 561 493 492
3 562 493 561
3 496 559 558
3 496 495 559
3 495 563 559
3 490 496 558
3 493 562 497
3 562 564 497
3 565 566 567
3 565 567 563
3 565 563 499
3 499 563 495
3 568 500 497
3 568 497 569
3 569 497 564
3 500 568 501
3 570 566 565
3 571 566 570
3 499 502 570
3 565 499 570
3 568 569 572
3 572 501 568
3 572 573 501
3 573 503 501
3 506 571 570
3 506 505 571
3 505 574 571
3 502 506 570
3 503 573 507
3 573 575 507
3 576 577 578
3 576 578 574
3 576 574 509
3 509 574 505
3 507 575 510
3 575 579 510
3 513 577 576
3 513 512 577
3 512 580 577
3 509 513 576
3 581 582 583
3 581 579 582
3 581 514 579
3 514 510 579
3 512 515 580
3 580 515 584
3 516 581 583
3 516 583 517
3 517 583 585
3 514 581 516
3 515 518 584
3 584 518 586
3 517 585 519
3 585 587 519
3 588 520 589
3 588 586 520
3 586 518 520
3 588 589 590
3 591 592 593
3 591 523 522
3 591 522 592
3 592 522 594
3 587 522 519
3 594 522 587
3 589 524 595
3 520 524 589
3 596 590 589
3 595 596 589
3 526 597 598
3 527 526 598
3 529 599 526
3 526 599 597
3 593 531 591
3 593 599 531
3 599 529 531
3 523 591 531
3 524 532 595
3 533 600 601
3 532 533 601
3 532 601 596
3 532 596 595
3 600 602 603
3 601 600 603
3 602 604 605
3 603 602 605
3 604 598 605
3 604 535 598
3 535 527 598
3 533 537 600
3 540 600 537
3 602 600 540
3 542 602 540
3 604 602 542
3 535 604 542
3 606 607 608
3 606 609 610
3 608 609 606
3 610 545 544
3 610 609 545
3 609 611 545
3 546 545 612
3 545 611 612
3 548 546 613
3 546 612 613
3 613 550 548
3 614 550 613
3 615 607 606
3 616 607 615
3 610 617 606
3 617 615 606
3 544 552 617
3 610 544 617
3 550 614 553
3 614 618 553
3 619 616 615
3 620 616 619
3 556 555 619
3 556 619 617
3 617 619 615
3 552 556 617
3 553 618 557
3 618 621 557
3 622 623 624
3 620 622 624
3 619 622 620
3 619 559 622
3 619 560 559
3 555 560 619
3 625 561 557
3 625 557 626
3 626 557 621
3 561 625 562
3 627 623 622
3 628 623 627
3 559 563 627
3 622 559 627
3 625 626 629
3 629 562 625
3 629 630 562
3 630 564 562
3 567 628 627
3 567 566 628
3 566 631 628
3 563 567 627
3 564 630 569
3 630 632 569
3 566 571 631
3 631 571 633
3 634 572 569
3 634 569 635
3 635 569 632
3 572 634 573
3 571 574 633
3 633 574 636
3 637 634 635
3 638 637 635
3 573 637 575
3 634 637 573
3 578 639 640
3 577 639 578
3 636 574 578
3 640 636 578
3 641 642 643
3 638 642 641
3 638 641 637
3 637 641 644
3 575 644 579
3 637 644 575
3 577 580 639
3 639 580 645
3 646 641 643
3 647 646 643
3 582 646 583
3 582 644 646
3 644 641 646
3 579 644 582
3 580 584 645
3 645 584 648
3 649 646 647
3 650 649 647
3 583 649 585
3 646 649 583
3 584 586 648
3 648 586 651
3 652 653 654
3 650 653 652
3 650 652 649
3 649 652 655
3 585 655 587
3 649 655 585
3 586 656 651
3 588 656 586
3 590 657 658
3 590 658 588
3 588 658 656
3 658 657 659
3 660 661 662
3 654 661 660
3 652 654 660
3 652 660 593
3 652 593 592
3 594 652 592
3 655 652 594
3 587 655 594
3 657 596 663
3 590 596 657
3 664 659 657
3 664 657 665
3 665 657 663
3 665 666 667
3 664 665 667
3 666 598 597
3 666 597 667
3 667 597 668
3 662 599 660
3 662 668 599
3 668 597 599
3 593 660 599
3 596 601 663
3 603 663 601
3 665 663 603
3 605 665 603
3 666 665 605
3 598 666 605
3 669 670 671
3 669 672 673
3 671 672 669
3 673 674 675
3 672 674 673
3 674 676 675
3 677 678 679
3 670 677 679
3 670 669 677
3 669 680 677
3 673 681 669
3 681 680 669
3 675 682 673
3 682 681 673
3 683 675 676
3 682 675 683
3 608 678 677
3 608 607 678
3 607 684 678
3 609 608 677
3 680 609 677
3 611 609 680
3 681 611 680
3 612 611 681
3 682 612 681
3 682 683 685
3 682 685 612
3 612 685 613
3 685 614 613
3 686 614 685
3 607 616 684
3 684 616 687
3 614 686 618
3 686 688 618
3 689 690 691
3 689 691 687
3 689 687 620
3 620 687 616
3 618 688 621
3 688 692 621
3 624 690 689
3 624 623 690
3 623 693 690
3 620 624 689
3 621 692 626
3 692 694 626
3 623 628 693
3 693 628 695
3 626 694 696
3 629 626 696
3 696 630 629
3 697 630 696
3 628 631 695
3 695 631 698
3 630 697 632
3 697 699 632
3 631 633 698
3 698 633 700
3 632 699 635
3 699 701 635
3 633 636 700
3 700 636 702
3 635 701 638
3 701 703 638
3 640 639 704
3 640 704 705
3 640 705 636
3 636 705 702
3 642 706 707
3 643 642 707
3 703 642 638
3 706 642 703
3 704 645 708
3 639 645 704
3 709 705 704
3 708 709 704
3 643 707 647
3 707 710 647
3 708 648 711
3 645 648 708
3 712 709 708
3 711 712 708
3 713 714 715
3 713 710 714
3 713 650 710
3 650 647 710
3 711 651 716
3 648 651 711
3 717 712 711
3 716 717 711
3 718 719 720
3 718 721 722
3 719 718 722
3 715 722 721
3 713 715 721
3 713 721 654
3 713 654 653
3 650 713 653
3 651 656 716
3 716 723 717
3 716 656 723
3 656 658 723
3 659 724 725
3 659 725 658
3 658 725 723
3 724 726 727
3 725 724 727
3 720 727 726
3 720 726 718
3 718 726 728
3 661 728 662
3 661 721 728
3 721 718 728
3 654 721 661
3 659 664 724
3 667 724 664
3 726 724 667
3 668 726 667
3 728 726 668
3 662 728 668
3 729 730 731
3 729 732 733
3 731 732 729
3 732 734 733
3 735 730 729
3 736 730 735
3 733 737 729
3 737 735 729
3 738 733 734
3 737 733 738
3 735 739 736
3 737 739 735
3 740 739 737
3 738 740 737
3 741 742 743
3 741 744 745
3 743 744 741
3 745 746 747
3 744 746 745
3 746 748 747
3 749 742 741
3 750 742 749
3 671 670 749
3 671 749 745
3 745 749 741
3 672 671 745
3 747 672 745
3 747 748 751
3 747 751 672
3 672 751 674
3 751 676 674
3 752 676 751
3 679 750 749
3 679 678 750
3 678 753 750
3 670 679 749
3 676 752 683
3 752 754 683
3 755 756 757
3 755 757 753
3 755 753 684
3 684 753 678
3 683 754 758
3 685 683 758
3 758 686 685
3 759 686 758
3 760 756 755
3 761 756 760
3 684 687 760
3 755 684 760
3 686 759 688
3 759 762 688
3 691 761 760
3 691 690 761
3 690 763 761
3 687 691 760
3 688 762 692
3 762 764 692
3 690 693 763
3 763 693 765
3 692 764 694
3 764 766 694
3 693 695 765
3 765 695 767
3 768 696 694
3 768 694 769
3 769 694 766
3 696 768 697
3 695 698 767
3 767 698 770
3 771 768 769
3 772 771 769
3 697 771 699
3 768 771 697
3 698 700 770
3 770 700 773
3 774 771 772
3 775 774 772
3 699 774 701
3 771 774 699
3 700 702 773
3 773 702 776
3 777 774 775
3 778 777 775
3 701 777 703
3 774 777 701
3 702 705 776
3 776 705 779
3 780 781 782
3 778 781 780
3 777 778 780
3 777 780 707
3 777 707 706
3 703 777 706
3 705 709 779
3 779 709 783
3 784 785 786
3 784 787 788
3 785 784 788
3 782 788 787
3 782 787 780
3 780 787 789
3 707 789 710
3 780 789 707
3 790 712 791
3 790 783 712
3 783 709 712
3 791 792 793
3 790 791 793
3 792 794 795
3 793 792 795
3 786 795 794
3 786 794 784
3 784 794 796
3 787 784 797
3 797 784 796
3 714 797 715
3 714 789 797
3 789 787 797
3 710 789 714
3 791 717 798
3 712 717 791
3 792 791 799
3 799 791 798
3 794 792 800
3 800 792 799
3 719 800 720
3 719 796 800
3 796 794 800
3 722 796 719
3 797 796 722
3 715 797 722
3 717 723 798
3 725 798 723
3 799 798 725
3 727 799 725
3 800 799 727
3 720 800 727
3 801 802 803
3 801 804 805
3 803 804 801
3 804 806 805
3 807 802 801
3 808 802 807
3 731 730 807
3 731 807 805
3 805 807 801
3 805 806 809
3 805 809 731
3 731 809 732
3 809 734 732
3 810 734 809
3 811 808 807
3 812 808 811
3 730 736 811
3 807 730 811
3 734 810 738
3 810 813 738
3 814 812 811
3 815 812 814
3 736 739 816
3 736 816 811
3 811 816 814
3 739 740 817
3 816 739 817
3 740 818 817
3 740 738 818
3 738 813 818
3 819 815 814
3 820 815 819
3 816 821 814
3 821 819 814
3 817 822 816
3 822 821 816
3 823 817 818
3 823 824 817
3 824 822 817
3 823 825 824
3 826 820 819
3 827 820 826
3 821 828 819
3 828 826 819
3 822 829 821
3 829 828 821
3 824 830 822
3 830 829 822
3 831 824 825
3 830 824 831
3 826 832 827
3 832 833 834
3 832 826 833
3 826 828 833
3 829 835 828
3 835 833 828
3 830 836 829
3 836 835 829
3 837 830 831
3 836 830 837
3 838 834 833
3 839 834 838
3 835 840 833
3 840 838 833
3 836 841 835
3 841 840 835
3 842 836 837
3 841 836 842
3 838 843 839
3 843 844 845
3 843 838 844
3 838 840 844
3 841 846 840
3 846 844 840
3 847 841 842
3 847 848 841
3 848 846 841
3 847 849 848
3 743 845 844
3 743 742 845
3 742 850 845
3 744 743 844
3 846 744 844
3 746 744 846
3 848 746 846
3 848 748 746
3 848 849 748
3 849 851 748
3 852 853 854
3 852 854 850
3 852 850 750
3 750 850 742
3 748 851 855
3 751 748 855
3 855 752 751
3 856 752 855
3 857 853 852
3 858 853 857
3 750 753 857
3 852 750 857
3 752 856 754
3 856 859 754
3 757 858 857
3 757 756 858
3 756 860 858
3 753 757 857
3 861 758 754
3 861 754 862
3 862 754 859
3 758 861 759
3 756 761 860
3 860 761 863
3 861 862 864
3 864 759 861
3 864 865 759
3 865 762 759
3 761 763 863
3 863 763 866
3 762 865 764
3 865 867 764
3 763 765 866
3 866 765 868
3 869 870 871
3 869 867 870
3 869 766 867
3 766 764 867
3 765 767 868
3 868 767 872
3 873 869 871
3 874 873 871
3 766 873 769
3 869 873 766
3 767 770 872
3 872 770 875
3 876 873 874
3 877 876 874
3 769 876 772
3 873 876 769
3 770 773 875
3 875 773 878
3 879 880 881
3 877 880 879
3 877 879 876
3 876 879 882
3 772 882 775
3 876 882 772
3 773 776 878
3 878 776 883
3 884 879 881
3 885 884 881
3 882 879 886
3 886 879 884
3 775 886 778
3 882 886 775
3 776 779 883
3 883 779 887
3 888 884 885
3 889 888 885
3 781 888 782
3 781 886 888
3 886 884 888
3 778 886 781
3 890 783 891
3 890 887 783
3 887 779 783
3 891 892 893
3 890 891 893
3 892 894 895
3 893 892 895
3 894 786 785
3 894 785 895
3 895 785 896
3 889 788 888
3 889 896 788
3 896 785 788
3 782 888 788
3 783 790 891
3 793 891 790
3 892 891 793
3 795 892 793
3 894 892 795
3 786 894 795
3 803 897 898
3 802 897 803
3 804 803 899
3 803 898 899
3 899 806 804
3 900 806 899
3 802 808 897
3 897 808 901
3 806 900 902
3 809 806 902
3 902 810 809
3 903 810 902
3 808 812 901
3 901 812 904
3 810 903 813
3 903 905 813
3 812 815 904
3 904 815 906
3 813 905 818
3 905 907 818
3 815 820 906
3 906 820 908
3 818 907 909
3 823 818 909
3 909 825 823
3 910 825 909
3 820 827 908
3 908 827 911
3 825 910 831
3 910 912 831
3 913 827 832
3 913 914 827
3 914 911 827
3 832 834 913
3 831 912 837
3 912 915 837
3 913 916 914
3 916 913 834
3 916 834 917
3 917 834 839
3 837 915 842
3 915 918 842
3 839 919 917
3 843 919 839
3 919 843 845
3 920 919 845
3 842 918 921
3 847 842 921
3 921 849 847
3 922 849 921
3 845 850 920
3 920 850 923
3 849 922 851
3 922 924 851
3 854 925 926
3 853 925 854
3 923 850 854
3 926 923 854
3 851 924 927
3 855 851 927
3 927 856 855
3 928 856 927
3 853 858 925
3 925 858 929
3 856 928 859
3 928 930 859
3 858 860 929
3 929 860 931
3 859 930 862
3 930 932 862
3 860 863 931
3 931 863 933
3 934 864 862
3 934 862 935
3 935 862 932
3 864 934 865
3 863 866 933
3 933 866 936
3 937 934 935
3 938 937 935
3 865 937 867
3 934 937 865
3 866 868 936
3 936 868 939
3 870 937 938
3 870 938 871
3 871 938 940
3 867 937 870
3 868 872 939
3 939 872 941
3 942 943 944
3 942 940 943
3 942 874 940
3 874 871 940
3 945 875 946
3 945 941 875
3 941 872 875
3 946 947 948
3 945 946 948
3 947 949 950
3 948 947 950
3 949 951 952
3 950 949 952
3 944 952 951
3 944 951 942
3 942 951 953
3 874 953 877
3 942 953 874
3 946 878 954
3 875 878 946
3 947 946 955
3 955 946 954
3 949 947 956
3 956 947 955
3 951 949 957
3 957 949 956
3 880 957 881
3 880 953 957
3 953 951 957
3 877 953 880
3 954 883 958
3 878 883 954
3 955 954 959
3 959 954 958
3 956 955 960
3 960 955 959
3 957 956 961
3 961 956 960
3 881 961 885
3 957 961 881
3 958 887 962
3 883 887 958
3 959 958 963
3 963 958 962
3 960 959 964
3 964 959 963
3 961 960 965
3 965 960 964
3 885 965 889
3 961 965 885
3 887 890 962
3 893 962 890
3 963 962 893
3 895 963 893
3 964 963 895
3 896 964 895
3 965 964 896
3 889 965 896
3 898 897 966
3 898 967 899
3 966 967 898
3 899 967 900
3 966 901 968
3 897 901 966
3 967 966 969
3 969 966 968
3 900 970 902
3 900 967 970
3 967 969 970
3 902 970 903
3 968 971 972
3 968 901 971
3 901 904 971
3 969 968 972
3 973 969 972
3 970 969 973
3 974 970 973
3 974 903 970
3 974 975 903
3 975 905 903
3 904 906 971
3 971 906 976
3 905 975 907
3 975 977 907
3 906 908 976
3 976 908 978
3 907 977 979
3 909 907 979
3 979 910 909
3 980 910 979
3 908 911 978
3 978 911 981
3 910 980 912
3 980 982 912
3 911 914 981
3 981 914 983
3 912 982 915
3 982 984 915
3 914 985 983
3 916 985 914
3 985 916 917
3 986 985 917
3 915 984 918
3 984 987 918
3 917 988 986
3 919 988 917
3 920 989 990
3 920 990 919
3 919 990 988
3 989 991 992
3 990 989 992
3 921 991 993
3 921 987 991
3 921 918 987
3 992 991 987
3 921 993 922
3 989 923 994
3 920 923 989
3 991 989 995
3 995 989 994
3 993 991 996
3 996 991 995
3 922 996 924
3 993 996 922
3 926 997 998
3 925 997 926
3 994 923 926
3 994 926 999
3 999 926 998
3 995 994 999
3 1000 995 999
3 1000 1001 1002
3 1000 1002 995
3 995 1002 996
3 924 1003 927
3 924 996 1003
3 996 1002 1003
3 927 1003 928
3 925 929 997
3 997 929 1004
3 1005 1002 1001
3 1006 1005 1001
3 1003 1002 1007
3 1007 1002 1005
3 928 1007 930
3 1003 1007 928
3 929 931 1004
3 1004 931 1008
3 1009 1005 1006
3 1010 1009 1006
3 1007 1005 1011
3 1011 1005 1009
3 930 1011 932
3 1007 1011 930
3 931 933 1008
3 1008 933 1012
3 1013 1009 1010
3 1014 1013 1010
3 1011 1009 1015
3 1015 1009 1013
3 932 1015 935
3 1011 1015 932
3 933 936 1012
3 1012 936 1016
3 1017 1013 1014
3 1018 1017 1014
3 1015 1013 1019
3 1019 1013 1017
3 935 1019 938
3 1015 1019 935
3 1020 939 1021
3 1020 1016 939
3 1016 936 939
3 1021 1022 1023
3 1020 1021 1023
3 1022 1024 1025
3 1023 1022 1025
3 1018 1025 1024
3 1018 1024 1017
3 1017 1024 1026
3 1019 1017 1027
3 1027 1017 1026
3 938 1027 940
3 1019 1027 938
3 1021 941 1028
3 939 941 1021
3 1022 1021 1029
3 1029 1021 1028
3 1024 1022 1030
3 1030 1022 1029
3 1026 1024 1031
3 1031 1024 1030
3 943 1031 944
3 943 1027 1031
3 1027 1026 1031
3 940 1027 943
3 941 945 1028
3 948 1028 945
3 1029 1028 948
3 950 1029 948
3 1030 1029 950
3 952 1030 950
3 1031 1030 952
3 944 1031 952
3 972 971 1032
3 972 1033 973
3 1032 1033 972
3 973 1034 974
3 1033 1034 973
3 974 1034 975
3 1032 976 1035
3 971 976 1032
3 1033 1032 1036
3 1036 1032 1035
3 1034 1033 1037
3 1037 1033 1036
3 975 1037 977
3 1034 1037 975
3 1035 978 1038
3 976 978 1035
3 1036 1035 1039
3 1039 1035 1038
3 1037 1036 1040
3 1040 1036 1039
3 977 1041 979
3 977 1037 1041
3 1037 1040 1041
3 979 1041 980
3 1038 981 1042
3 978 981 1038
3 1039 1038 1043
3 1043 1038 1042
3 1040 1039 1044
3 1044 1039 1043
3 1041 1040 1045
3 1045 1040 1044
3 980 1045 982
3 1041 1045 980
3 1042 983 1046
3 981 983 1042
3 1043 1042 1047
3 1047 1042 1046
3 1044 1043 1048
3 1048 1043 1047
3 1045 1044 1049
3 1049 1044 1048
3 982 1049 984
3 1045 1049 982
3 983 985 1046
3 986 1046 985
3 986 1050 1046
3 1050 1047 1046
3 1048 1047 1051
3 1051 1047 1050
3 1049 1048 1052
3 1052 1048 1051
3 984 1052 987
3 1049 1052 984
3 986 988 1050
3 990 1050 988
3 1051 1050 990
3 992 1051 990
3 1052 1051 992
3 987 1052 992
3 998 997 1053
3 998 1054 999
3 1053 1054 998
3 999 1055 1000
3 1054 1055 999
3 1000 1055 1001
3 1053 1004 1056
3 997 1004 1053
3 1054 1053 1057
3 1057 1053 1056
3 1055 1054 1058
3 1058 1054 1057
3 1001 1058 1006
3 1055 1058 1001
3 1056 1008 1059
3 1004 1008 1056
3 1057 1056 1060
3 1060 1056 1059
3 1058 1057 1061
3 1061 1057 1060
3 1006 1061 1010
3 1058 1061 1006
3 1059 1012 1062
3 1008 1012 1059
3 1060 1059 1063
3 1063 1059 1062
3 1061 1060 1064
3 1064 1060 1063
3 1010 1064 1014
3 1061 1064 1010
3 1062 1016 1065
3 1012 1016 1062
3 1063 1062 1066
3 1066 1062 1065
3 1064 1063 1067
3 1067 1063 1066
3 1014 1067 1018
3 1064 1067 1014
3 1016 1020 1065
3 1023 1065 1020
3 1066 1065 1023
3 1025 1066 1023
3 1067 1066 1025
3 1018 1067 1025
