# vtk DataFile Version 3.0
this file was written using fslvtkio
ASCII
DATASET POLYDATA
POINTS 732 float
139.902 93.5414 124.965
140.184 94.314 125.391
140.391 93.5727 125.604
140.458 92.836 125.545
139.967 92.5686 124.688
140.509 91.933 125.262
140.291 91.5908 124.292
140.66 90.9127 124.531
139.534 94.274 124.429
139.917 95.0861 124.858
139.645 93.2766 123.905
139.883 92.2301 123.703
140.506 90.9559 123.557
139.802 95.1074 123.986
140.371 95.9789 123.85
140.315 95.7474 124.667
139.487 94.3283 123.524
139.809 93.2767 122.873
140.022 92.2867 122.771
140.304 91.3547 122.998
140.142 95.4323 123.175
140.814 95.8355 122.886
139.936 94.4902 122.848
140.409 93.4026 122.365
140.884 92.2257 122.329
140.827 91.282 122.342
140.871 94.926 122.492
140.949 93.9351 122.266
140.786 93.4489 126.106
141.317 94.343 126.166
141.589 93.7664 126.595
141.354 92.8421 126.641
140.797 92.2416 126.051
141.229 91.7016 126.341
140.845 91.0077 125.328
141.229 90.5359 125.637
141.044 90.0411 124.625
141.38 89.4999 124.884
140.723 94.6537 125.808
141.308 95.6936 125.717
141.634 95.2392 126.123
140.919 90.0901 123.772
141.43 89.1367 123.763
140.952 96.0142 125.27
141.402 96.8634 124.885
141.707 96.667 125.523
140.428 95.4306 125.24
141.285 89.8702 122.829
141.613 89.0943 122.93
140.807 96.3791 124.468
141.456 96.8898 123.932
142.205 89.4498 122.241
141.067 90.4789 122.564
141.074 96.3323 123.362
141.709 96.7381 123.122
141.213 92.9522 122.207
142.008 92.696 122.35
141.743 93.6844 122.162
141.933 91.8838 122.203
141.625 91.1499 122.205
141.636 95.6659 122.47
141.819 94.5607 122.168
141.732 90.8135 127.072
141.906 91.9034 127.491
142.073 91.2664 127.928
141.969 90.3141 127.723
141.714 89.8257 126.732
142.014 89.2944 127.165
142.342 94.4114 127.114
142.669 95.2848 127.35
142.735 94.4951 127.483
142.664 93.6919 127.525
141.903 93.3376 127.111
142.207 92.7819 127.581
141.615 92.1247 127.029
141.461 90.8916 126.464
141.508 89.7794 125.834
141.895 88.8559 126.193
141.755 88.9021 125.321
142.348 88.0409 125.545
142.343 95.8352 126.657
142.667 96.6427 126.865
142.662 95.9227 127.193
141.987 94.8071 126.592
141.761 88.7949 124.264
142.35 88.2224 124.59
142.343 97.0804 126.095
142.741 97.9496 126.042
142.732 97.2248 126.584
141.987 96.2641 126.068
142.366 88.5261 123.213
142.721 88.2602 123.72
142.107 97.6088 125.32
142.634 98.3376 125.194
143.325 88.394 122.956
142.392 88.853 122.638
142.48 98.1206 124.368
143.282 98.7711 124.01
143.081 98.8508 124.889
141.87 97.4155 124.478
143.154 89.4552 122.151
142.078 90.2159 122.093
142.933 97.8878 123.343
142.28 97.4748 123.623
142.876 97.0279 122.806
142.283 93.6699 122.374
142.857 93.8599 122.721
142.491 94.5105 122.351
142.846 92.991 122.746
142.633 92.133 122.516
142.543 91.1039 122.141
142.326 96.4338 122.64
142.473 95.432 122.355
142.745 91.9236 128.464
143.248 92.6599 128.553
143.125 92.0486 128.824
142.943 91.3601 128.867
142.384 90.6399 128.355
142.834 90.1892 128.662
142.278 89.4385 127.904
142.818 89.1143 128.212
142.547 88.395 127.321
143.005 88.0249 127.375
143.195 94.6056 127.757
143.608 95.3314 127.99
143.601 94.485 128.11
143.513 93.6296 128.168
142.851 93.1723 127.988
142.388 92.1835 128.093
142.253 88.3794 126.667
142.781 87.6007 126.148
143.063 96.0962 127.505
143.417 96.8552 127.591
143.539 96.1554 127.907
143 87.5527 124.925
143.022 97.4643 127.044
143.859 98.1723 126.821
143.716 97.6027 127.407
143.21 87.787 124.101
143.228 98.2986 126.427
143.777 98.9107 125.568
144.393 98.6102 126.011
143.696 88.0601 123.438
143.249 98.6836 125.41
143.959 99.1882 124.525
144.26 88.4682 122.981
143.293 88.9284 122.528
144.221 98.7877 123.681
143.407 92.1686 122.711
144.172 92.7432 122.938
143.49 93.1797 122.903
143.329 91.1285 122.363
143.996 91.6058 122.794
142.993 90.2323 122.08
143.764 90.3733 122.464
143.873 89.4575 122.437
143.588 98.0544 123.168
143.147 96.0401 122.626
143.611 96.9068 122.744
142.973 94.9299 122.584
143.484 95.2196 122.816
143.486 94.0202 122.973
143.528 92.0803 129.117
144.18 92.7651 129.132
143.958 92.0589 129.424
143.648 91.3974 129.653
143.18 90.8252 129.252
143.486 90.1352 129.536
143.166 89.484 128.941
143.569 88.7323 129.029
143.231 88.4557 128.263
143.66 87.7082 127.929
144.028 94.4972 128.475
144.211 95.5315 128.607
144.657 94.838 128.871
144.517 93.7818 128.878
143.749 93.2898 128.757
143.426 87.4269 127.014
144.029 96.1726 128.188
144.911 96.9943 128.132
144.629 96.3149 128.548
143.549 87.0981 126.227
143.422 87.144 125.505
144.398 86.6929 125.768
144.046 97.1603 127.937
144.451 97.9533 127.254
145.057 97.5229 127.607
143.833 87.1294 124.807
144.452 86.7911 125.124
144.918 98.1628 126.418
144.581 87.224 124.44
143.902 87.583 124.164
144.606 98.9718 124.965
145.292 98.2766 125.596
144.417 87.9312 123.591
145.19 98.5905 123.947
144.482 91.0518 122.843
145.381 91.644 123.184
144.676 92.0686 123.111
144.415 90.0205 122.71
144.947 90.642 123.024
144.21 89.0069 122.702
144.889 89.5373 123.015
144.862 88.5855 123.193
144.991 97.9957 123.325
144.014 95.677 122.962
144.827 95.9594 123.192
144.304 96.6806 122.957
144.082 94.632 123.086
144.799 95.0551 123.284
144.057 93.6609 123.046
144.76 94.0228 123.307
144.776 92.9793 123.185
144.267 97.6948 123.029
144.357 92.074 129.775
144.977 92.7492 129.861
144.733 91.9833 130.088
144.504 91.2704 130.282
143.971 90.9154 129.995
144.225 90.0717 130.259
143.788 89.587 129.819
144.286 88.7454 129.897
143.906 88.74 129.525
144.162 88.0153 129.137
144.73 93.2032 129.298
145.291 94.1052 129.339
145.138 93.289 129.55
144.071 87.5725 128.32
144.229 86.9976 127.37
144.902 86.6393 127.486
144.856 95.742 128.772
145.525 96.7098 128.382
145.627 95.6598 128.805
145.197 94.5778 128.972
144.232 86.8055 126.577
145.037 86.3857 126.462
146.051 97.0663 127.525
145.244 86.5183 125.655
145.5 97.7017 126.696
146.239 97.1939 126.797
145.189 86.9653 124.965
146.038 97.678 125.77
145.21 87.2446 124.566
145.002 87.7069 123.954
145.438 98.4211 124.697
146.124 97.6007 125.057
145.445 89.0125 123.365
146.065 89.6948 123.685
145.553 89.8759 123.298
145.137 88.2233 123.594
145.744 88.6327 123.763
145.934 97.6854 124.17
145.587 97.0913 123.556
145.472 95.8104 123.515
146.043 96.475 123.918
145.467 94.6737 123.528
146.097 95.3346 123.839
145.479 93.5921 123.413
146.166 94.19 123.741
145.301 92.5681 123.266
145.962 92.9124 123.461
145.852 91.7695 123.511
145.447 90.7032 123.332
145.061 96.9281 123.189
145.19 91.966 130.288
145.632 92.5507 130.318
145.41 91.8811 130.78
145.107 91.1677 131.026
144.778 90.7585 130.578
144.954 90.017 130.998
144.601 89.6018 130.459
145.03 88.8164 130.671
144.761 88.6992 130.148
144.986 87.8791 129.899
145.478 93.5947 129.752
145.979 94.0286 129.684
145.864 93.1097 129.975
144.745 87.5091 129.293
144.722 87.0961 128.389
145.362 86.666 128.288
145.981 95.0557 129.01
146.734 94.9009 128.865
146.224 94.472 129.372
145.596 86.2904 127.145
146.368 96.2178 128.15
146.721 95.6547 128.203
145.852 86.2944 126.175
146.78 96.5233 127.323
147.344 95.9002 127.221
145.918 86.7794 125.384
146.708 96.9856 125.786
147.227 96.4165 126.11
145.593 87.409 124.658
146.044 87.2281 125.128
146.23 87.834 124.763
146.883 96.4704 124.773
147.302 95.8988 125.094
145.715 87.9582 124.182
146.384 88.5251 124.568
146.248 88.8736 124.125
146.363 96.9997 124.433
146.525 95.88 124.219
146.95 95.0615 124.511
146.63 94.7443 124.159
146.473 93.4732 123.932
146.968 93.9103 124.351
146.288 92.4452 123.886
146.837 92.9411 124.36
146.16 91.4747 123.816
146.648 92.0628 124.348
145.97 90.5869 123.714
146.538 90.9448 124.1
146.499 89.7992 124.032
145.645 90.2628 131.713
146.017 90.8877 131.788
146.104 90.0915 131.97
146.117 89.332 131.948
145.532 89.0413 131.577
146.075 88.3849 131.672
145.669 91.7464 131.196
146.239 92.4642 130.897
146.285 91.8563 131.507
145.258 90.6297 131.385
145.294 89.2787 131.229
145.674 88.0071 131.134
145.408 87.8359 130.489
145.997 87.0895 130.57
145.845 86.8737 129.695
146.523 86.3635 129.576
146.093 93.0496 130.282
146.584 93.7164 130.27
146.665 93.3057 130.727
145.411 87.035 129.248
146.062 86.4181 128.672
146.552 94.2038 129.635
147.243 94.4328 129.583
146.86 94.1717 130.083
146.082 86.3318 127.833
147.432 94.0507 128.722
147.456 94.5562 128.205
147.949 93.4891 127.839
146.349 86.335 126.89
147.438 95.1342 127.728
147.952 94.1187 127.434
146.468 86.6333 125.934
147.746 95.5639 126.043
147.919 95.1592 126.632
146.45 87.2579 125.265
146.862 87.0424 125.633
146.986 87.7937 125.285
147.639 95.132 125.325
148.031 94.2582 125.643
147.771 93.7972 125.167
147.492 92.524 125.127
147.892 93.0196 125.547
147.292 91.3679 125.051
147.675 91.9791 125.576
147.234 90.2729 124.89
147.619 90.8702 125.442
147.102 89.1974 124.837
147.51 89.8324 125.253
146.716 88.3173 124.872
147.326 88.7167 125.145
147.316 94.6893 124.794
147.344 93.7797 124.783
147.118 92.8338 124.817
146.877 91.763 124.769
146.801 90.7074 124.591
146.721 89.6325 124.578
146.41 89.783 132.29
146.73 90.6924 132.379
146.931 89.9955 132.732
146.806 89.0145 132.664
146.515 88.4009 132.122
147.106 87.7431 132.389
146.698 87.4252 131.621
147.238 86.9698 131.663
146.979 92.2555 131.727
147.4 92.8725 131.818
147.287 92.1933 132.211
146.995 91.6075 132.425
146.472 91.2713 131.975
146.281 87.4386 131.282
146.978 86.6019 130.912
146.67 86.6415 130.424
147.363 86.1005 129.989
147.247 93.6389 131.138
147.871 94.397 130.937
147.757 93.7411 131.486
146.832 92.8423 131.183
147.001 86.1957 129.009
147.251 94.2364 130.424
148.098 94.1784 130.09
146.855 86.1274 128.2
147.912 93.832 129.408
147.626 93.7558 128.987
147.924 93.1742 128.623
146.956 86.2143 127.446
148.131 93.0906 126.953
148.117 92.7497 127.753
148.333 91.8984 127.234
146.962 86.5565 126.573
148.06 94.2772 126.777
148.178 92.7128 126.286
148.292 91.8214 126.686
147.042 87.0544 125.96
147.504 86.9732 126.385
147.58 87.5664 126.008
148.19 93.8853 125.993
148.089 92.8734 125.941
148.187 91.4354 126.135
147.941 91.3548 125.826
147.832 90.0524 125.709
148.132 90.3121 126.079
147.679 88.9026 125.551
148.095 89.2505 126.025
147.398 87.9384 125.586
147.907 88.2944 125.99
147.446 90.9553 133.337
147.865 91.4895 133.433
147.79 90.8295 133.703
147.72 90.1206 133.717
147.234 89.7527 133.248
147.682 89.0124 133.594
147.209 88.589 133.065
147.792 87.8734 133.231
147.603 87.4496 132.751
148.355 86.5299 132.327
147.558 92.0716 132.609
148.084 93.1104 132.446
148.108 92.2341 132.919
147.132 90.96 132.859
147.786 86.7012 131.91
147.495 86.2748 130.955
147.989 86.1257 130.755
147.843 93.2815 132.034
148.318 94.5712 131.546
148.433 94.3399 132.147
147.898 86.1272 129.532
148.818 94.1495 130.662
147.781 86.1704 128.795
148.739 93.5464 130.014
148.393 93.1174 129.242
148.659 92.2437 129.014
148.877 92.5645 129.603
149.027 91.4514 129.005
147.692 86.199 128.02
148.28 92.3382 128.533
148.694 91.513 128.441
147.797 86.4341 127.404
148.463 86.5272 127.843
148.474 86.8224 127.297
148.489 90.8276 127.052
148.509 91.5843 127.792
148.656 89.6834 126.952
148.736 90.4629 127.533
148.888 89.3176 127.494
148.259 87.1697 126.757
148.805 87.51 127.274
148.504 88.0436 126.933
147.599 86.5591 126.798
148.329 90.669 126.499
148.417 89.5999 126.432
148.696 88.792 127
148.309 88.5446 126.449
147.997 87.5487 126.347
148.194 90.5655 134.027
148.455 91.5058 134.034
148.753 90.7175 134.381
148.649 89.7077 134.381
148.175 89.2971 134.003
148.713 88.3976 134.133
148.183 88.0527 133.755
148.816 87.2566 133.586
148.373 87.0606 133.071
149.072 86.5176 132.641
148.73 93.3038 133.183
149.013 94.2653 133.265
148.959 93.2347 133.71
148.829 92.3114 133.837
148.304 92.0255 133.47
149.16 86.2561 131.628
148.776 94.7572 132.469
149.558 95.4285 132.392
149.274 95.1368 133.303
148.502 93.3566 132.717
148.496 86.2314 131.281
148.489 86.1696 130.501
149.436 94.6165 131.508
149.317 94.1464 131.186
148.626 86.1646 129.815
149.086 86.1809 130.298
149.377 86.3982 129.717
149.459 93.3375 130.607
149.226 92.697 130.044
149.271 91.4885 129.633
149.673 92.1302 130.261
149.456 90.3468 129.178
149.69 91.0515 130.029
149.741 90.0827 129.737
148.653 86.374 129.195
149.388 86.7472 129.052
149.196 90.3909 128.613
149.601 89.4304 129.189
149.374 89.178 128.572
149.416 87.8894 128.393
149.662 88.5734 129.017
149.103 86.8517 128.485
149.663 87.5399 128.889
148.489 86.331 128.404
148.894 90.586 128.079
149.02 89.5499 128.05
149.219 88.4468 128.035
149.026 87.2457 127.9
149.011 88.2768 127.547
149.323 91.4251 134.68
149.679 91.9601 134.732
149.704 91.1278 135.047
149.578 90.3365 135.137
149.162 89.9699 134.715
149.698 88.9666 134.942
149.22 88.6798 134.467
149.9 87.9028 134.513
149.423 87.6038 134.067
150.245 87.045 133.722
149.3 93.0877 133.993
149.854 93.4718 134.11
149.76 92.6505 134.391
148.992 91.6753 134.314
149.533 86.8452 133.391
149.784 86.3706 132.3
149.456 94.2975 133.61
150.06 95.4451 133.17
149.9 94.1976 133.803
149.995 86.3498 131.537
150.398 94.8012 132.114
149.349 86.1463 130.687
149.929 86.4663 130.834
150.03 94.3365 131.611
149.837 92.6364 130.849
150.063 93.3211 131.268
149.909 91.3744 130.646
150.254 92.0981 131.16
149.994 90.1052 130.388
150.399 90.8532 130.949
150.193 88.7094 130.176
150.361 89.6058 130.746
150.246 87.6048 129.942
150.537 88.3254 130.574
149.9 86.6201 130.092
150.388 87.2628 130.501
150.004 89.1326 129.724
149.966 88.118 129.437
149.822 87.1377 129.482
150.064 90.807 135.444
150.386 91.624 135.46
150.517 90.8269 135.799
150.532 89.8285 135.869
150.048 89.4976 135.429
150.672 88.6679 135.423
150.344 88.3199 134.954
151.237 87.7208 134.524
150.11 92.3961 134.774
150.405 93.248 134.735
150.489 92.4028 135.164
150.731 87.5128 134.235
150.976 87.1158 133.323
150.455 95.1304 133.972
151.23 95.4455 134.145
150.933 94.6109 134.438
150.702 93.9628 134.62
150.146 94.3365 134.03
150.316 86.6046 132.765
150.951 86.8507 132.531
150.778 95.5571 133.202
150.752 93.9281 132.22
151.107 94.3903 132.644
150.914 92.4304 131.885
151.236 92.8085 132.409
151.518 91.5819 132.071
150.545 86.6876 131.87
151.065 87.2259 131.612
150.468 93.612 131.669
150.653 92.5335 131.493
151.183 91.1917 131.72
150.817 91.0694 131.397
150.777 89.8593 131.146
151.274 90.0955 131.619
150.763 88.6781 131.017
151.264 89.1433 131.42
150.714 87.418 131.073
151.183 88.0731 131.299
150.358 86.7803 131.096
150.949 91.0509 136.124
151.267 91.8465 136.134
151.959 91.1605 136.541
151.646 90.3307 136.266
151.078 89.6684 136.061
151.889 89.0706 135.785
150.848 92.1569 135.531
151.426 92.594 135.649
151.402 92.2332 135.972
151.33 88.458 135.462
151.928 87.8924 134.592
151.306 94.3041 134.735
151.77 94.8939 134.615
151.742 94.0558 135.12
151.486 93.4097 135.331
150.978 93.1501 135.127
151.582 87.4507 133.263
151.935 87.7975 133.609
152.018 94.1905 133.679
151.461 94.7344 133.24
151.695 93.5873 133.072
152.309 92.9508 133.374
152.257 92.3409 132.938
151.858 88.0289 132.386
152.101 88.1873 132.847
152.078 89.0137 132.372
151.434 87.3094 132.607
151.59 92.9232 132.666
151.76 90.3523 131.896
151.942 91.5833 132.392
151.766 89.1201 131.874
152.11 90.186 132.305
151.579 88.3855 131.658
151.431 87.5979 131.979
151.871 92.0248 136.453
152.154 92.6771 136.441
152.746 91.785 136.823
152.633 90.5597 136.459
152.42 89.7477 136.001
152.928 88.8577 135.223
152.082 93.9614 135.588
152.587 94.3867 135.73
152.554 93.8558 136.127
152.355 93.3347 136.284
151.785 93.0484 135.872
152.391 88.4001 135.044
152.528 88.0409 134.026
152.237 94.851 134.967
152.87 95.429 134.547
152.523 94.933 135.311
152.436 88.3719 133.18
152.89 88.2556 133.584
153.048 88.7901 133.144
152.444 94.7274 134.096
152.895 93.6474 133.615
153.004 92.7873 133.31
152.487 91.3411 132.642
153.131 91.7308 132.957
152.646 90.2001 132.477
153.192 90.6861 132.83
152.619 89.1257 132.553
153.227 89.6402 132.803
153.003 93.7779 136.707
153.168 94.5823 136.264
153.775 94.154 136.924
153.474 92.8044 136.851
152.722 92.855 136.78
153.69 91.5594 136.543
153.433 90.6656 136.275
153.304 89.783 135.711
153.541 89.0423 134.897
152.986 95.9223 135.314
153.332 96.7478 135.588
153.299 96.1129 135.946
153.249 95.3303 136.088
152.795 95.0134 135.66
153.133 88.3647 134.099
153.652 88.7219 134.014
153.446 96.12 134.59
153.247 94.2146 133.877
153.682 94.9205 134.102
153.553 92.9515 133.545
153.995 93.6957 133.794
153.757 91.8607 133.141
154.341 92.4192 133.436
153.85 90.7963 133.044
154.475 91.4195 133.303
153.735 89.8675 133.139
154.428 90.5666 133.523
153.492 88.977 133.426
154.05 89.6153 133.605
153.747 96.1854 136.454
154.248 97.6003 136.512
154.67 96.2992 136.873
154.394 95.2914 136.895
153.589 95.0774 136.547
154.688 93.8962 136.753
154.368 92.853 136.658
154.468 91.7221 136.205
154.238 90.6642 135.769
153.961 89.6953 135.208
154.477 89.933 134.89
153.562 97.3372 136.089
153.851 97.97 135.336
154.413 98.5454 136.121
154.44 89.6107 134.016
154.992 90.1799 134.327
154.858 90.583 133.817
154.022 89.0584 134.252
153.921 96.8864 134.769
154.339 95.8375 134.329
154.445 94.8956 133.99
154.68 93.774 133.789
154.865 92.6098 133.637
155.151 91.4244 133.676
155.108 97.1177 136.366
155.502 95.8686 136.036
155.46 94.9707 136.329
155.331 93.9866 136.31
155.159 92.6676 136.076
155.069 91.5286 135.539
155.432 91.8699 135.005
154.898 90.6257 135.095
154.758 97.5068 134.956
155.111 97.3842 135.652
155.299 90.9631 134.373
155.413 91.9157 134.194
154.882 96.4027 134.576
155.008 95.2052 134.218
155.276 94.0824 133.973
155.388 92.8297 133.924
155.519 96.1683 135.323
155.652 94.9015 135.268
155.702 93.9276 135.351
155.635 92.945 135.455
155.281 95.9199 134.729
155.428 94.7227 134.587
155.587 93.5767 134.485
155.694 92.7048 134.609
POLYGONS 1460  5840
3 0 1 2
3 0 3 4
3 2 3 0
3 4 5 6
3 3 5 4
3 5 7 6
3 8 1 0
3 9 1 8
3 4 10 0
3 10 8 0
3 6 11 4
3 11 10 4
3 12 6 7
3 11 6 12
3 13 14 15
3 9 13 15
3 9 8 13
3 8 16 13
3 10 17 8
3 17 16 8
3 11 18 10
3 18 17 10
3 19 11 12
3 18 11 19
3 20 14 13
3 21 14 20
3 16 22 13
3 22 20 13
3 23 17 24
3 23 22 17
3 22 16 17
3 18 24 17
3 25 24 18
3 19 25 18
3 20 26 21
3 22 26 20
3 27 26 22
3 23 27 22
3 28 29 30
3 28 31 32
3 30 31 28
3 32 33 34
3 31 33 32
3 34 35 36
3 33 35 34
3 35 37 36
3 38 39 40
3 29 38 40
3 28 38 29
3 28 1 38
3 28 2 1
3 3 2 28
3 32 3 28
3 5 3 32
3 34 5 32
3 7 5 34
3 7 34 41
3 41 34 36
3 42 36 37
3 41 36 42
3 43 44 45
3 39 43 45
3 39 38 43
3 38 46 43
3 1 9 46
3 38 1 46
3 41 47 12
3 7 41 12
3 48 41 42
3 47 41 48
3 49 44 43
3 50 44 49
3 15 14 49
3 15 49 46
3 46 49 43
3 9 15 46
3 47 51 52
3 47 52 12
3 12 52 19
3 48 51 47
3 53 50 49
3 54 50 53
3 14 21 53
3 49 14 53
3 55 56 57
3 55 23 24
3 55 24 56
3 56 24 58
3 25 59 24
3 24 59 58
3 52 25 19
3 59 25 52
3 53 60 54
3 21 60 53
3 21 26 60
3 26 61 60
3 57 27 55
3 57 61 27
3 61 26 27
3 23 55 27
3 62 63 64
3 62 65 66
3 64 65 62
3 65 67 66
3 68 69 70
3 68 71 72
3 70 71 68
3 72 73 74
3 71 73 72
3 63 74 73
3 63 62 74
3 62 75 74
3 66 76 62
3 76 75 62
3 77 66 67
3 77 78 66
3 78 76 66
3 77 79 78
3 80 81 82
3 69 80 82
3 69 68 80
3 68 83 80
3 30 29 83
3 30 83 72
3 72 83 68
3 31 30 72
3 74 31 72
3 33 31 74
3 75 33 74
3 35 33 75
3 76 35 75
3 37 35 76
3 37 76 84
3 84 76 78
3 85 78 79
3 84 78 85
3 86 87 88
3 81 86 88
3 81 80 86
3 80 89 86
3 40 39 89
3 40 89 83
3 83 89 80
3 29 40 83
3 84 90 42
3 37 84 42
3 91 84 85
3 90 84 91
3 92 87 86
3 93 87 92
3 45 44 92
3 45 92 89
3 89 92 86
3 39 45 89
3 90 94 95
3 90 95 42
3 42 95 48
3 91 94 90
3 96 97 98
3 93 96 98
3 93 92 96
3 92 99 96
3 44 50 99
3 92 44 99
3 51 100 101
3 52 51 101
3 95 51 48
3 100 51 95
3 96 102 97
3 102 103 104
3 102 96 103
3 96 99 103
3 50 54 103
3 99 50 103
3 105 106 107
3 105 57 56
3 105 56 106
3 106 56 108
3 58 109 56
3 56 109 108
3 59 110 58
3 58 110 109
3 101 59 52
3 110 59 101
3 103 111 104
3 54 111 103
3 54 60 111
3 60 112 111
3 107 61 105
3 107 112 61
3 112 60 61
3 57 105 61
3 113 114 115
3 113 116 117
3 115 116 113
3 117 118 119
3 116 118 117
3 119 120 121
3 118 120 119
3 120 122 121
3 123 124 125
3 123 126 127
3 125 126 123
3 114 127 126
3 114 113 127
3 113 128 127
3 64 63 128
3 64 128 117
3 117 128 113
3 65 64 117
3 119 65 117
3 67 65 119
3 67 119 129
3 129 119 121
3 130 121 122
3 129 121 130
3 131 132 133
3 124 131 133
3 123 131 124
3 123 69 131
3 123 70 69
3 71 70 123
3 127 71 123
3 73 71 127
3 128 73 127
3 63 73 128
3 67 129 77
3 129 79 77
3 129 130 79
3 130 134 79
3 135 136 137
3 132 135 137
3 131 135 132
3 131 81 135
3 131 82 81
3 69 82 131
3 79 134 85
3 134 138 85
3 139 140 141
3 136 139 141
3 135 139 136
3 135 87 139
3 135 88 87
3 81 88 135
3 85 138 91
3 138 142 91
3 143 140 139
3 144 140 143
3 87 93 143
3 139 87 143
3 94 145 146
3 95 94 146
3 142 94 91
3 145 94 142
3 98 144 143
3 98 97 144
3 97 147 144
3 93 98 143
3 148 149 150
3 148 151 152
3 149 148 152
3 151 153 154
3 152 151 154
3 153 101 100
3 153 100 154
3 154 100 155
3 146 100 95
3 155 100 146
3 97 156 147
3 102 156 97
3 104 157 158
3 104 158 102
3 102 158 156
3 157 159 160
3 158 157 160
3 159 107 106
3 159 106 160
3 160 106 161
3 150 108 148
3 150 161 108
3 161 106 108
3 109 148 108
3 151 148 109
3 110 151 109
3 153 151 110
3 101 153 110
3 104 111 157
3 112 157 111
3 159 157 112
3 107 159 112
3 162 163 164
3 162 165 166
3 164 165 162
3 166 167 168
3 165 167 166
3 168 169 170
3 167 169 168
3 169 171 170
3 172 173 174
3 172 175 176
3 174 175 172
3 163 176 175
3 162 176 163
3 162 114 176
3 162 115 114
3 116 115 162
3 166 116 162
3 118 116 166
3 168 118 166
3 120 118 168
3 170 120 168
3 170 122 120
3 170 171 122
3 171 177 122
3 178 179 180
3 173 178 180
3 172 178 173
3 172 124 178
3 172 125 124
3 126 125 172
3 176 126 172
3 114 126 176
3 181 182 130
3 181 130 177
3 177 130 122
3 181 183 182
3 184 185 186
3 179 184 186
3 178 184 179
3 178 132 184
3 178 133 132
3 124 133 178
3 182 187 134
3 130 182 134
3 188 182 183
3 187 182 188
3 137 185 184
3 137 136 185
3 136 189 185
3 132 137 184
3 187 190 191
3 187 191 134
3 134 191 138
3 188 190 187
3 141 192 193
3 140 192 141
3 189 136 141
3 193 189 141
3 138 191 142
3 191 194 142
3 140 144 192
3 192 144 195
3 196 197 198
3 196 199 200
3 197 196 200
3 199 201 202
3 200 199 202
3 201 146 145
3 201 145 202
3 202 145 203
3 194 145 142
3 203 145 194
3 144 147 195
3 195 147 204
3 205 206 207
3 205 208 209
3 206 205 209
3 208 210 211
3 209 208 211
3 210 150 149
3 210 149 211
3 211 149 212
3 198 152 196
3 198 212 152
3 212 149 152
3 154 196 152
3 199 196 154
3 155 199 154
3 201 199 155
3 146 201 155
3 147 213 204
3 156 213 147
3 207 158 205
3 207 213 158
3 213 156 158
3 160 205 158
3 208 205 160
3 161 208 160
3 210 208 161
3 150 210 161
3 214 215 216
3 214 217 218
3 216 217 214
3 218 219 220
3 217 219 218
3 220 221 222
3 219 221 220
3 221 223 222
3 224 225 226
3 215 224 226
3 214 224 215
3 214 163 224
3 214 164 163
3 165 164 214
3 218 165 214
3 167 165 218
3 220 167 218
3 169 167 220
3 222 169 220
3 171 227 228
3 169 227 171
3 169 223 227
3 169 222 223
3 227 229 228
3 230 231 232
3 230 174 173
3 230 232 174
3 232 233 174
3 225 224 175
3 225 175 233
3 233 175 174
3 163 175 224
3 228 234 177
3 171 228 177
3 235 228 229
3 234 228 235
3 180 231 230
3 180 179 231
3 179 236 231
3 173 180 230
3 177 234 181
3 234 183 181
3 234 235 183
3 235 237 183
3 186 238 239
3 185 238 186
3 236 179 186
3 239 236 186
3 183 237 188
3 237 240 188
3 185 189 238
3 238 189 241
3 190 242 243
3 191 190 243
3 240 190 188
3 242 190 240
3 193 244 245
3 192 244 193
3 241 189 193
3 245 241 193
3 246 247 248
3 246 249 250
3 247 246 250
3 249 243 250
3 249 194 243
3 194 191 243
3 251 195 252
3 251 244 195
3 244 192 195
3 252 253 254
3 251 252 254
3 253 255 256
3 254 253 256
3 255 257 258
3 256 255 258
3 257 259 260
3 258 257 260
3 259 198 197
3 259 197 260
3 260 197 261
3 200 262 197
3 197 262 261
3 248 202 246
3 248 262 202
3 262 200 202
3 203 246 202
3 249 246 203
3 194 249 203
3 252 204 263
3 195 204 252
3 206 263 207
3 206 253 263
3 253 252 263
3 209 253 206
3 255 253 209
3 211 255 209
3 257 255 211
3 212 257 211
3 259 257 212
3 198 259 212
3 204 213 263
3 207 263 213
3 264 265 266
3 264 267 268
3 266 267 264
3 268 269 270
3 267 269 268
3 270 271 272
3 269 271 270
3 271 273 272
3 274 275 276
3 265 274 276
3 264 274 265
3 264 215 274
3 264 216 215
3 217 216 264
3 268 217 264
3 219 217 268
3 270 219 268
3 221 219 270
3 272 221 270
3 223 277 278
3 221 277 223
3 221 273 277
3 221 272 273
3 277 279 278
3 280 281 282
3 275 280 282
3 274 280 275
3 274 225 280
3 274 226 225
3 215 226 274
3 223 278 227
3 278 229 227
3 278 279 229
3 279 283 229
3 232 231 284
3 280 285 281
3 280 232 285
3 280 233 232
3 284 285 232
3 225 233 280
3 229 283 235
3 283 286 235
3 284 287 288
3 284 231 287
3 231 236 287
3 285 284 288
3 235 286 237
3 286 289 237
3 239 238 290
3 239 290 291
3 239 291 236
3 236 291 287
3 292 293 294
3 292 289 293
3 292 240 289
3 240 237 289
3 290 241 295
3 238 241 290
3 296 291 290
3 295 296 290
3 297 298 299
3 294 298 297
3 292 294 297
3 292 297 243
3 292 243 242
3 240 292 242
3 245 244 300
3 245 295 241
3 245 300 295
3 300 301 295
3 302 296 295
3 302 295 303
3 303 295 301
3 303 304 305
3 302 303 305
3 304 306 307
3 305 304 307
3 306 308 309
3 307 306 309
3 308 310 311
3 309 308 311
3 310 248 247
3 310 247 311
3 311 247 312
3 299 250 297
3 299 312 250
3 312 247 250
3 243 297 250
3 244 251 300
3 254 300 251
3 301 300 254
3 256 301 254
3 303 301 256
3 258 303 256
3 304 303 258
3 260 304 258
3 306 304 260
3 261 306 260
3 308 306 261
3 262 308 261
3 310 308 262
3 248 310 262
3 313 314 315
3 313 316 317
3 315 316 313
3 316 318 317
3 319 320 321
3 314 319 321
3 314 313 319
3 313 322 319
3 317 323 313
3 323 322 313
3 324 317 318
3 324 325 317
3 325 323 317
3 325 326 327
3 324 326 325
3 326 328 327
3 329 330 331
3 320 329 331
3 319 329 320
3 319 265 329
3 319 266 265
3 267 266 319
3 322 267 319
3 269 267 322
3 323 269 322
3 271 269 323
3 325 271 323
3 273 271 325
3 273 325 332
3 332 325 327
3 333 327 328
3 332 327 333
3 334 335 336
3 330 334 336
3 329 334 330
3 329 275 334
3 329 276 275
3 265 276 329
3 273 332 277
3 332 279 277
3 332 333 279
3 333 337 279
3 338 281 339
3 338 335 281
3 282 281 334
3 334 281 335
3 282 334 275
3 339 340 338
3 279 337 283
3 337 341 283
3 339 342 343
3 339 281 342
3 281 285 342
3 340 339 343
3 283 341 286
3 341 344 286
3 288 287 345
3 288 345 346
3 288 346 285
3 285 346 342
3 347 348 349
3 347 344 348
3 347 289 344
3 289 286 344
3 345 291 350
3 287 291 345
3 351 346 345
3 351 345 352
3 352 345 350
3 352 353 354
3 351 352 354
3 353 355 356
3 354 353 356
3 355 357 358
3 356 355 358
3 357 359 360
3 358 357 360
3 359 361 362
3 360 359 362
3 349 362 361
3 347 349 361
3 347 361 294
3 347 294 293
3 289 347 293
3 350 296 363
3 291 296 350
3 352 350 364
3 364 350 363
3 353 352 365
3 365 352 364
3 355 353 366
3 366 353 365
3 357 355 367
3 367 355 366
3 359 357 368
3 368 357 367
3 298 368 299
3 298 361 368
3 361 359 368
3 294 361 298
3 296 302 363
3 305 363 302
3 364 363 305
3 307 364 305
3 365 364 307
3 309 365 307
3 366 365 309
3 311 366 309
3 367 366 311
3 312 367 311
3 368 367 312
3 299 368 312
3 369 370 371
3 369 372 373
3 371 372 369
3 373 374 375
3 372 374 373
3 374 376 375
3 377 378 379
3 377 380 381
3 379 380 377
3 370 381 380
3 369 381 370
3 369 314 381
3 369 315 314
3 316 315 369
3 373 316 369
3 318 316 373
3 318 373 382
3 382 373 375
3 383 375 376
3 383 384 375
3 384 382 375
3 383 385 384
3 386 387 388
3 378 386 388
3 378 377 386
3 377 389 386
3 321 320 389
3 321 389 381
3 381 389 377
3 314 321 381
3 318 382 324
3 326 324 382
3 384 326 382
3 384 328 326
3 384 385 328
3 385 390 328
3 391 387 386
3 392 387 391
3 331 330 391
3 331 391 389
3 389 391 386
3 320 331 389
3 328 390 333
3 390 393 333
3 394 335 395
3 394 392 335
3 336 335 391
3 391 335 392
3 336 391 330
3 395 396 394
3 333 393 337
3 393 397 337
3 335 338 395
3 340 398 399
3 338 340 399
3 338 399 396
3 338 396 395
3 399 398 400
3 337 397 341
3 397 401 341
3 343 342 402
3 343 398 340
3 343 402 398
3 402 403 398
3 404 400 398
3 403 404 398
3 405 406 407
3 405 401 406
3 405 344 401
3 344 341 401
3 402 346 408
3 342 346 402
3 403 402 409
3 409 402 408
3 410 404 403
3 410 403 411
3 411 403 409
3 411 412 413
3 410 411 413
3 412 414 415
3 413 412 415
3 414 416 417
3 415 414 417
3 407 417 416
3 405 407 416
3 405 416 349
3 405 349 348
3 344 405 348
3 346 351 408
3 354 408 351
3 409 408 354
3 356 409 354
3 411 409 356
3 358 411 356
3 412 411 358
3 360 412 358
3 414 412 360
3 362 414 360
3 416 414 362
3 349 416 362
3 418 419 420
3 418 421 422
3 420 421 418
3 422 423 424
3 421 423 422
3 424 425 426
3 423 425 424
3 425 427 426
3 428 429 430
3 419 428 430
3 419 418 428
3 418 431 428
3 371 370 431
3 371 431 422
3 422 431 418
3 372 371 422
3 424 372 422
3 374 372 424
3 426 374 424
3 376 432 433
3 374 432 376
3 374 427 432
3 374 426 427
3 432 434 433
3 435 436 437
3 429 435 437
3 428 435 429
3 428 378 435
3 428 379 378
3 380 379 428
3 431 380 428
3 370 380 431
3 376 433 383
3 433 385 383
3 433 434 385
3 434 438 385
3 388 436 435
3 388 387 436
3 387 439 436
3 378 388 435
3 385 438 390
3 438 440 390
3 441 392 442
3 441 439 392
3 439 387 392
3 442 443 444
3 441 442 444
3 444 443 445
3 390 440 393
3 440 446 393
3 392 394 442
3 396 442 394
3 396 447 442
3 447 443 442
3 448 445 443
3 447 448 443
3 449 450 451
3 449 446 450
3 449 397 446
3 397 393 446
3 396 399 447
3 400 452 453
3 399 400 453
3 399 453 448
3 399 448 447
3 452 454 455
3 453 452 455
3 455 454 456
3 457 458 459
3 451 458 457
3 451 457 449
3 449 457 460
3 397 460 401
3 449 460 397
3 452 404 461
3 400 404 452
3 454 452 462
3 462 452 461
3 463 456 454
3 463 454 464
3 464 454 462
3 459 463 464
3 459 464 457
3 457 464 465
3 406 465 407
3 406 460 465
3 460 457 465
3 401 460 406
3 404 410 461
3 413 461 410
3 462 461 413
3 415 462 413
3 464 462 415
3 417 464 415
3 465 464 417
3 407 465 417
3 466 467 468
3 466 469 470
3 468 469 466
3 470 471 472
3 469 471 470
3 472 473 474
3 471 473 472
3 473 475 474
3 476 477 478
3 476 479 480
3 478 479 476
3 467 480 479
3 466 480 467
3 466 419 480
3 466 420 419
3 421 420 466
3 470 421 466
3 423 421 470
3 472 423 470
3 425 423 472
3 474 425 472
3 474 427 425
3 474 475 427
3 475 481 427
3 482 483 484
3 477 482 484
3 477 476 482
3 476 485 482
3 430 429 485
3 430 485 480
3 480 485 476
3 419 430 480
3 427 481 486
3 432 427 486
3 486 434 432
3 487 434 486
3 482 488 483
3 437 436 489
3 437 489 482
3 437 482 485
3 482 489 488
3 429 437 485
3 490 491 492
3 490 487 491
3 490 438 487
3 438 434 487
3 493 439 494
3 493 489 439
3 489 436 439
3 494 495 496
3 493 494 496
3 495 497 498
3 496 495 498
3 498 497 499
3 500 490 492
3 501 500 492
3 438 500 440
3 490 500 438
3 439 441 494
3 444 494 441
3 495 494 444
3 445 495 444
3 445 502 495
3 502 497 495
3 503 499 497
3 503 497 504
3 504 497 502
3 504 505 506
3 503 504 506
3 505 507 508
3 506 505 508
3 501 508 507
3 501 507 500
3 500 507 509
3 440 509 446
3 500 509 440
3 502 448 510
3 445 448 502
3 504 502 511
3 511 502 510
3 505 504 512
3 512 504 511
3 507 505 513
3 513 505 512
3 450 513 451
3 450 509 513
3 509 507 513
3 446 509 450
3 448 453 510
3 455 510 453
3 511 510 455
3 456 511 455
3 456 514 511
3 514 512 511
3 458 514 459
3 458 513 514
3 513 512 514
3 451 513 458
3 456 463 514
3 459 514 463
3 515 516 517
3 515 518 519
3 517 518 515
3 519 520 521
3 518 520 519
3 521 522 523
3 520 522 521
3 522 524 523
3 525 526 527
3 516 525 527
3 516 515 525
3 515 528 525
3 468 467 528
3 468 528 519
3 519 528 515
3 469 468 519
3 521 469 519
3 471 469 521
3 523 471 521
3 523 524 529
3 523 529 471
3 471 529 473
3 529 475 473
3 530 475 529
3 531 532 533
3 526 531 533
3 525 531 526
3 525 477 531
3 525 478 477
3 479 478 525
3 528 479 525
3 467 479 528
3 475 530 481
3 530 534 481
3 484 532 531
3 484 483 532
3 483 535 532
3 477 484 531
3 536 486 481
3 536 481 537
3 537 481 534
3 486 536 487
3 483 538 535
3 488 538 483
3 489 539 540
3 489 540 488
3 488 540 538
3 539 541 542
3 540 539 542
3 541 543 544
3 542 541 544
3 543 545 546
3 544 543 546
3 545 547 548
3 546 545 548
3 547 549 550
3 548 547 550
3 537 550 549
3 536 537 549
3 536 549 492
3 536 492 491
3 487 536 491
3 489 493 539
3 496 539 493
3 541 539 496
3 498 541 496
3 543 541 498
3 499 543 498
3 499 551 543
3 551 545 543
3 547 545 552
3 552 545 551
3 549 547 553
3 553 547 552
3 492 553 501
3 549 553 492
3 499 503 551
3 506 551 503
3 552 551 506
3 508 552 506
3 553 552 508
3 501 553 508
3 554 555 556
3 554 557 558
3 556 557 554
3 558 559 560
3 557 559 558
3 559 561 560
3 562 563 564
3 555 562 564
3 554 562 555
3 554 516 562
3 554 517 516
3 518 517 554
3 558 518 554
3 520 518 558
3 560 520 558
3 560 561 565
3 560 565 520
3 520 565 522
3 565 524 522
3 566 524 565
3 567 568 569
3 567 570 571
3 569 570 567
3 563 571 570
3 562 571 563
3 562 526 571
3 562 527 526
3 516 527 562
3 572 529 524
3 572 524 573
3 573 524 566
3 529 572 530
3 567 574 568
3 571 532 567
3 571 533 532
3 567 532 574
3 575 576 532
3 574 532 576
3 575 577 578
3 575 578 576
3 571 526 533
3 578 577 579
3 580 572 573
3 581 580 573
3 530 580 534
3 572 580 530
3 575 535 582
3 532 535 575
3 577 575 583
3 583 575 582
3 584 579 577
3 584 577 585
3 585 577 583
3 585 586 587
3 584 585 587
3 586 588 589
3 587 586 589
3 588 590 591
3 589 588 591
3 581 591 590
3 581 590 580
3 580 590 592
3 534 592 537
3 580 592 534
3 535 538 582
3 540 582 538
3 583 582 540
3 542 583 540
3 585 583 542
3 544 585 542
3 586 585 544
3 546 586 544
3 588 586 546
3 548 588 546
3 590 588 548
3 550 590 548
3 592 590 550
3 537 592 550
3 593 594 595
3 593 596 597
3 595 596 593
3 596 598 597
3 599 600 601
3 594 599 601
3 593 599 594
3 593 555 599
3 593 556 555
3 557 556 593
3 597 557 593
3 597 598 602
3 597 602 557
3 557 602 559
3 602 561 559
3 603 561 602
3 604 605 606
3 604 607 608
3 606 607 604
3 600 608 607
3 599 608 600
3 599 563 608
3 599 564 563
3 555 564 599
3 609 565 561
3 609 561 610
3 610 561 603
3 565 609 566
3 611 568 612
3 611 605 568
3 569 568 604
3 604 568 605
3 613 614 611
3 613 611 612
3 608 570 604
3 604 570 569
3 570 608 563
3 613 615 614
3 616 617 618
3 610 617 616
3 610 616 609
3 609 616 619
3 566 619 573
3 609 619 566
3 568 574 612
3 576 612 574
3 613 612 576
3 613 620 615
3 613 576 620
3 576 578 620
3 579 621 622
3 579 622 578
3 578 622 620
3 621 623 624
3 622 621 624
3 618 624 623
3 618 623 616
3 616 623 625
3 619 616 626
3 626 616 625
3 573 626 581
3 619 626 573
3 579 584 621
3 587 621 584
3 623 621 587
3 589 623 587
3 625 623 589
3 591 625 589
3 626 625 591
3 581 626 591
3 627 628 629
3 627 595 594
3 627 629 595
3 629 630 595
3 596 595 631
3 595 630 631
3 631 598 596
3 632 598 631
3 633 634 635
3 633 636 637
3 635 636 633
3 628 637 636
3 627 637 628
3 627 600 637
3 627 601 600
3 594 601 627
3 598 632 638
3 602 598 638
3 638 603 602
3 639 603 638
3 640 641 642
3 634 640 642
3 633 640 634
3 633 605 640
3 633 606 605
3 607 606 633
3 637 607 633
3 600 607 637
3 643 644 645
3 643 639 644
3 643 610 639
3 610 603 639
3 640 646 641
3 605 646 640
3 605 611 646
3 611 647 646
3 614 648 611
3 611 648 647
3 615 649 650
3 615 650 614
3 614 650 648
3 649 651 652
3 650 649 652
3 651 653 654
3 652 651 654
3 645 654 653
3 643 645 653
3 643 653 618
3 643 618 617
3 610 643 617
3 615 620 649
3 622 649 620
3 651 649 622
3 624 651 622
3 653 651 624
3 618 653 624
3 655 656 657
3 655 658 659
3 657 658 655
3 659 629 628
3 659 658 629
3 658 660 629
3 630 629 661
3 629 660 661
3 631 630 662
3 630 661 662
3 662 632 631
3 663 632 662
3 664 665 666
3 664 667 668
3 666 667 664
3 656 668 667
3 655 668 656
3 655 634 668
3 655 635 634
3 636 635 655
3 659 636 655
3 628 636 659
3 669 638 632
3 669 632 670
3 670 632 663
3 638 669 639
3 664 671 665
3 668 641 664
3 668 642 641
3 664 641 671
3 672 673 641
3 671 641 673
3 672 674 675
3 672 675 673
3 668 634 642
3 674 676 677
3 675 674 677
3 676 678 679
3 677 676 679
3 678 680 681
3 679 678 681
3 680 682 683
3 681 680 683
3 670 683 682
3 669 670 682
3 669 682 645
3 669 645 644
3 639 669 644
3 641 646 672
3 647 672 646
3 674 672 647
3 648 674 647
3 676 674 648
3 650 676 648
3 678 676 650
3 652 678 650
3 680 678 652
3 654 680 652
3 682 680 654
3 645 682 654
3 684 685 686
3 684 687 688
3 686 687 684
3 688 657 656
3 688 687 657
3 687 689 657
3 658 657 690
3 657 689 690
3 660 658 691
3 658 690 691
3 661 660 692
3 660 691 692
3 693 692 694
3 693 662 692
3 662 661 692
3 662 693 663
3 695 696 697
3 685 695 697
3 684 695 685
3 684 665 695
3 684 666 665
3 667 666 684
3 688 667 684
3 656 667 688
3 698 699 700
3 694 699 698
3 694 698 693
3 693 698 701
3 663 701 670
3 693 701 663
3 695 702 696
3 665 702 695
3 665 671 702
3 671 703 702
3 673 704 671
3 671 704 703
3 675 705 673
3 673 705 704
3 677 706 675
3 675 706 705
3 679 707 677
3 677 707 706
3 700 681 698
3 700 707 681
3 707 679 681
3 683 698 681
3 701 698 683
3 670 701 683
3 686 708 709
3 685 708 686
3 687 686 710
3 686 709 710
3 689 687 711
3 687 710 711
3 690 689 712
3 689 711 712
3 713 712 714
3 713 691 712
3 691 690 712
3 691 715 692
3 713 715 691
3 692 715 694
3 697 696 716
3 697 716 717
3 697 717 685
3 685 717 708
3 718 713 714
3 719 718 714
3 699 718 700
3 699 715 718
3 715 713 718
3 694 715 699
3 696 702 716
3 716 720 717
3 716 702 720
3 702 703 720
3 704 721 703
3 703 721 720
3 705 722 704
3 704 722 721
3 706 723 705
3 705 723 722
3 719 707 718
3 719 723 707
3 723 706 707
3 700 718 707
3 709 708 724
3 709 725 710
3 724 725 709
3 710 726 711
3 725 726 710
3 711 727 712
3 726 727 711
3 712 727 714
3 724 717 728
3 708 717 724
3 725 724 729
3 729 724 728
3 726 725 730
3 730 725 729
3 727 726 731
3 731 726 730
3 714 731 719
3 727 731 714
3 717 720 728
3 721 728 720
3 729 728 721
3 722 729 721
3 730 729 722
3 723 730 722
3 731 730 723
3 719 731 723
