# vtk DataFile Version 3.0
this file was written using fslvtkio
ASCII
DATASET POLYDATA
POINTS 642 float
115 135.164 74.8242
107.51 135.892 74.2029
111.225 130.334 76.6438
117.389 127.272 77.9446
114.481 134.034 79.5599
115.521 130.01 73.5396
110.831 130.928 73.2335
110.943 134.955 78.7402
110.947 140.668 75.8079
114.283 127.817 80.7057
114.383 124.833 76.257
111.2 136.602 71.2245
110.196 138.238 78.0174
112.973 138.087 78.1426
112.724 135.048 80.6396
112.602 131.529 80.1442
115.072 130.757 81.5754
110.716 133.869 72.1861
113.337 130.15 73.356
113.585 133.64 72.2401
112.839 127.675 74.7095
115.766 126.544 74.8854
116.134 130.43 79.1477
114.836 134.946 77.1952
116.673 131.336 76.3965
117.274 128.023 75.3714
115.628 132.688 73.6693
108.863 136.186 76.6413
111.109 132.62 77.7197
108.973 133.084 75.5084
108.331 133.323 72.8706
110.582 130.352 74.7603
113.69 136.653 72.4596
113.099 138.385 75.0655
110.33 139.396 72.4534
108.152 137 71.979
108.008 139.181 74.5955
117.385 123.701 77.1821
114.377 124.77 78.8887
116.904 126.199 80.8496
112.297 126.933 76.7654
112.462 128.521 78.8851
111.621 138.522 78.3557
112.892 136.965 79.7115
111.394 136.912 79.5736
113.903 134.721 80.4577
113.752 136.117 78.9819
112.015 139.718 77.0903
110.392 139.679 76.9263
110.174 136.498 78.7945
111.627 135.018 79.812
112.597 133.36 80.5522
113.904 133.115 81.3866
113.653 131.168 81.3191
114.888 132.503 80.6344
111.813 133.416 79.4318
113.336 129.629 80.5487
114.601 129.19 81.4063
112.021 132.138 72.7072
113.332 131.95 72.8555
112.153 133.774 72.2602
114.528 131.8 72.8828
114.505 130.023 73.4087
112.052 130.542 73.2006
110.716 132.332 72.6213
110.883 135.332 71.8333
112.464 135.227 71.6287
114.263 127.061 74.6694
114.482 128.319 73.9482
113.023 128.835 73.8515
115.656 128.218 74.0925
115.253 125.523 75.57
113.703 126.273 75.4863
111.749 129.506 73.931
115.595 132.791 78.1942
115.814 133.119 76.8911
116.522 130.935 77.8226
115.744 133.276 75.6013
114.949 135.185 75.9977
114.579 134.628 78.4186
115.359 132.283 79.4547
116.824 128.681 78.6482
117.034 129.27 77.1688
117.155 129.695 75.7915
116.326 131.939 74.9921
116.709 130.419 74.4245
115.398 134.002 74.2123
117.498 127.41 76.6673
116.55 128.914 74.1691
115.78 131.307 73.3712
109.859 134.461 77.2464
109.852 132.971 76.7378
108.841 134.597 76.098
110.088 131.725 76.0422
111.033 131.414 77.2296
111.081 133.815 78.2282
109.735 135.684 77.8968
108.196 136.155 75.3362
108.11 134.41 74.7967
108.36 133.01 74.16
109.51 131.659 74.9803
109.139 131.652 73.7783
110.917 130.287 75.6871
107.62 134.584 73.4662
109.598 132.116 72.9407
110.451 130.479 73.8183
113.298 137.818 73.618
111.972 139.376 73.7121
112.074 138.28 72.3041
110.58 140.307 74.1659
112.063 139.858 75.3937
114.232 136.934 74.8602
114.487 136.061 73.6413
112.604 136.805 71.4618
110.57 138.158 71.2346
108.804 138.761 71.3576
108.718 139.997 73.2818
107.185 138.472 72.8585
109.334 140.312 75.243
109.67 136.863 71.3214
107.264 136.392 73.0572
107.364 137.612 74.4296
115.891 122.955 78.3011
115.831 124.492 80.2536
117.652 123.935 79.2846
115.47 126.736 81.156
114.338 126.243 79.9713
114.283 124.269 77.4465
115.767 124.002 76.6302
117.783 125.361 77.679
117.227 126.385 79.2527
112.42 127.515 77.8317
113.363 126.529 78.9762
113.254 125.609 77.8047
113.325 128.143 79.8277
111.83 129.397 77.746
111.66 128.61 76.7871
113.218 125.72 76.4137
113.781 136.637 77.543
113.003 138.507 76.5916
114.069 136.889 76.1713
114.701 134.744 72.9726
113.847 135.198 71.8547
114.881 133.124 72.5906
115.94 128.493 81.4326
115.607 130.415 80.4245
116.537 128.296 80.0448
117.691 125.648 76.1211
116.777 126.95 74.9444
116.719 124.852 75.7406
109.036 139.036 76.318
109.24 137.369 77.3734
108.144 137.816 75.786
108.195 135.113 72.497
109.506 133.543 72.3904
109.428 135.425 72.0553
111.86 130.678 78.2724
111.935 132.07 78.8555
112.592 130.042 79.4411
112.394 127.134 75.5887
111.651 128.954 74.7193
111.617 128.562 75.7594
112.27 137.883 79.0997
112.143 137.041 79.6883
111.519 137.756 78.9811
112.075 136.069 80.0111
112.715 136.073 80.1171
112.931 137.634 78.9713
112.383 138.473 78.4148
110.89 138.429 78.2687
110.852 137.611 78.7857
113.326 135.855 80.0936
113.362 136.657 79.4019
113.712 135.534 79.7163
113.403 137.14 78.621
113.321 135.047 80.6972
114.193 134.491 79.9883
114.099 135.09 79.317
111.811 139.258 77.8542
110.952 139.182 77.7327
111.218 139.755 77.0837
110.235 138.997 77.4943
112.512 139.009 77.6747
111.527 140.366 76.4731
110.649 140.4 76.4542
110.752 136.782 79.2171
111.45 135.939 79.717
110.86 135.846 79.3309
112.105 135.131 80.2834
110.27 137.356 78.5443
110.516 135.665 78.8868
111.217 135.003 79.3068
113.131 133.346 81.1548
113.751 132.188 81.549
113.097 132.333 81.0804
114.334 130.995 81.6468
114.497 132.008 81.6001
113.319 134.199 81.1906
112.56 134.233 80.7639
112.729 132.373 80.4708
113.091 131.447 80.8279
114.493 132.864 81.1298
113.916 134.102 81.009
114.425 133.701 80.5233
115.031 131.746 81.1994
114.654 133.306 80.0688
112.032 134.213 80.2895
112.239 133.292 80.0158
111.635 134.155 79.6576
112.29 132.442 79.8265
111.288 134.226 79.1111
113.432 130.445 80.9047
114.1 130.183 81.4048
113.959 129.449 80.9382
114.836 129.881 81.5866
112.939 130.651 80.4508
113.839 128.747 80.6202
114.418 128.487 81.0512
112.668 132.032 72.7809
112.745 132.91 72.6005
112.068 132.988 72.5052
112.877 133.628 72.2509
113.392 132.825 72.6231
113.27 131.11 73.0726
112.676 131.223 73.0247
111.422 133.047 72.4115
111.476 133.769 72.2147
113.944 131.871 72.8341
113.872 130.96 73.1093
114.511 130.886 73.1345
113.883 130.149 73.367
114.038 132.76 72.6431
115.054 130.859 73.2827
115.04 129.968 73.4751
112.054 131.319 72.9687
111.37 132.301 72.6565
111.394 131.438 72.9244
110.706 133.12 72.3324
112.712 130.352 73.2254
111.413 130.75 73.1844
110.797 131.523 72.8946
111.521 134.501 72.0202
112.28 134.484 71.9977
111.694 135.244 71.7306
112.983 134.417 71.9353
110.825 134.571 72.0803
111.022 136.007 71.4683
111.853 135.975 71.4326
114.412 127.625 74.2579
113.729 128.587 73.8947
113.638 127.895 74.2491
113.165 129.459 73.5137
113.88 129.224 73.6181
115.123 127.429 74.3849
115.022 126.833 74.8209
113.525 127.346 74.631
113.009 128.214 74.2946
114.457 129.207 73.6306
115.062 128.255 74.0195
115.074 129.114 73.6763
115.736 127.334 74.4583
115.618 129.097 73.7299
114.753 126.313 75.0847
113.96 126.64 75.0251
114.436 125.952 75.4712
113.284 126.938 75.0393
115.549 125.997 75.1895
114.824 125.082 75.8577
114.15 125.604 75.8872
112.372 129.107 73.893
112.498 129.603 73.416
111.837 129.892 73.4758
112.356 128.609 74.312
111.264 130.203 73.5096
115.754 132.977 77.5551
116.171 132.025 77.3452
116.07 131.848 78.0234
116.578 131.196 77.1172
116.262 132.191 76.7164
115.334 134.001 77.0691
115.255 133.863 77.6938
115.951 131.647 78.6732
116.285 130.754 78.4667
115.772 133.155 76.2528
115.377 134.113 76.4539
115.427 134.228 75.8415
114.984 135.036 76.6036
116.239 132.286 76.0161
115.449 134.3 75.2071
114.988 135.138 75.416
115.159 133.718 78.3071
115.476 132.503 78.7996
115.003 133.487 78.9165
115.768 131.37 79.3027
114.719 134.733 77.8142
114.567 134.426 79.0202
114.918 133.19 79.506
116.601 129.818 78.2332
116.777 130.137 77.4868
116.887 129.049 77.8981
116.901 130.321 76.7714
116.494 129.586 78.9066
117.141 128.007 78.2851
117.207 128.253 77.5615
116.791 130.864 75.3784
116.587 131.212 74.6768
116.953 130.016 75.1219
116.306 131.583 74.0457
116.038 132.238 74.302
116.562 131.631 75.6558
116.965 130.56 76.0554
117.21 128.854 75.5646
116.997 129.242 74.8618
115.772 132.857 74.6065
116.021 132.559 75.3296
115.59 133.586 74.8886
115.487 133.237 73.9713
115.248 134.624 74.5517
117.167 129.534 76.4694
117.249 128.56 76.2136
117.269 128.406 76.8921
117.422 127.651 76.013
117.467 127.328 77.3291
116.677 129.641 74.2463
116.315 130.897 73.8469
116.255 130.115 73.6969
115.844 131.999 73.5085
116.984 128.483 74.6871
116.062 129.458 73.7569
115.661 130.62 73.4142
109.837 133.709 76.9794
109.275 133.744 76.4398
109.297 134.509 76.7176
108.835 133.809 75.8787
109.331 133.045 76.1728
110.495 132.944 77.2344
110.446 133.656 77.4004
109.261 135.211 76.9682
108.854 135.369 76.4037
109.892 132.367 76.3969
110.499 132.304 76.9546
110.549 131.698 76.6508
111.05 131.995 77.5018
109.489 132.404 75.82
110.765 131.099 76.2902
111.104 130.881 76.8778
110.518 134.208 77.7013
109.791 135.095 77.5151
110.461 134.884 77.9805
109.263 135.928 77.2554
111.038 133.282 77.9003
111.013 134.438 78.4829
110.375 135.419 78.3479
108.519 135.366 75.7438
108.457 134.505 75.4853
108.131 135.268 75.117
108.478 133.768 75.2221
108.576 136.238 75.9739
107.787 136.023 74.7697
107.794 135.181 74.4614
108.889 132.266 74.6046
109.334 131.606 74.3656
108.661 132.342 73.9253
109.806 130.986 74.2306
109.992 131.028 74.7796
109.174 132.33 75.2332
108.67 133.016 74.8306
108.138 133.048 73.4904
108.618 132.502 73.3095
110.253 130.98 75.265
109.758 131.704 75.4999
110.491 131.045 75.7898
110.759 130.318 75.171
111.096 130.345 76.1599
108.23 133.671 74.5171
107.903 133.684 73.8064
107.857 134.417 74.1423
107.87 133.845 73.1803
107.539 135.254 73.8318
109.224 131.903 73.2536
109.752 131.098 73.7541
109.948 131.351 73.3475
110.433 130.367 74.256
108.963 132.776 72.9143
110.29 131.463 73.0638
110.617 130.614 73.4691
112.649 138.535 73.6702
112.041 138.871 72.9697
112.767 138.109 72.9571
111.275 138.97 72.3437
111.25 139.476 73.0798
112.617 138.914 74.3514
113.191 138.196 74.3183
113.451 137.368 72.926
112.896 137.578 72.3514
111.265 139.978 73.8892
111.984 139.704 74.5074
111.352 140.232 74.7692
112.552 139.162 75.144
110.399 139.884 73.2841
110.677 140.674 75.023
111.58 140.461 75.6201
113.764 137.439 74.2209
113.91 137.018 73.5267
114.305 136.57 74.1886
114.063 136.434 73.0534
113.692 137.714 74.9199
114.576 136.005 74.8578
114.789 135.652 74.2472
112.268 137.617 71.8519
111.386 138.341 71.7085
111.576 137.546 71.3459
110.465 138.873 71.7635
113.154 136.796 71.9193
111.887 136.755 71.338
110.881 137.288 71.1328
108.571 139.459 72.2433
107.818 139.47 72.8823
107.818 138.857 72.0178
107.483 138.983 73.6156
108.164 139.706 73.8518
109.49 139.758 72.8298
109.515 139.2 71.8389
108.307 137.99 71.6229
107.507 137.848 72.158
108.929 140.265 74.2076
109.688 140.223 73.7682
109.83 140.569 74.7136
108.618 139.813 74.833
110.147 140.61 75.6046
109.768 138.628 71.2957
109.166 137.886 71.2729
110.067 137.563 71.1039
108.859 137.088 71.5657
110.438 136.691 71.2187
107.161 137.473 72.8726
107.158 138.136 73.7036
107.2 137.087 73.6774
107.586 138.436 74.4332
107.556 136.805 72.4439
107.295 136.112 73.6872
107.376 136.697 74.337
115.853 123.394 79.4504
116.83 123.894 80.048
116.953 123.07 78.9162
117.343 124.821 80.2072
116.612 125.011 80.7565
115.139 124.302 79.5082
115.077 123.635 78.7688
116.84 123.063 77.7623
117.609 123.444 78.1657
115.73 125.524 80.8693
115.084 125.277 80.0637
114.91 126.376 80.5939
114.484 125.336 79.4517
116.265 126.33 81.2595
114.755 127.353 80.9976
114.229 127.108 80.3653
115.006 123.546 77.8667
115.881 123.298 77.3536
114.999 124.103 76.9876
116.562 123.587 76.8886
114.298 124.195 78.2323
114.255 124.453 76.737
114.984 124.447 76.3842
117.788 124.515 78.4139
117.525 125.165 79.3268
117.586 125.872 78.5003
117.162 126.09 80.0693
117.822 124.355 77.52
117.614 126.383 77.8097
117.29 126.885 78.5716
112.961 127.01 78.3678
113.332 125.925 78.4174
112.904 126.652 77.7502
113.744 124.939 78.3796
113.828 125.526 78.9987
112.914 127.51 78.9321
112.458 127.911 78.3935
112.391 127.139 77.3231
112.797 126.338 77.2505
113.844 126.207 79.4948
113.383 127.277 79.3489
113.814 127.143 79.8712
112.904 128.25 79.3869
113.823 127.988 80.2711
112.051 128.422 77.8458
112.03 128.027 77.3043
111.793 128.987 77.2278
111.944 127.718 76.8421
112.114 128.918 78.3318
111.538 129.901 77.1515
111.515 129.569 76.6582
113.243 125.644 77.1119
113.636 124.783 77.6966
113.695 124.91 76.9571
112.716 126.217 76.6454
113.787 125.277 76.3229
113.398 137.616 77.0928
113.546 137.755 76.363
113.876 136.753 76.8327
113.638 137.734 75.6424
113.071 138.478 75.8247
112.994 138.412 77.3872
113.377 137.381 77.8752
114.282 135.828 77.3523
114.387 135.902 76.7189
112.447 139.145 75.9477
112.491 139.163 76.8177
112.078 139.969 76.2573
113.79 136.427 78.2349
114.257 135.593 77.9793
114.159 135.382 78.652
114.404 135.991 76.0918
114.153 137.032 75.4849
114.522 136.042 75.4544
114.393 134.992 72.3489
114.372 134.117 72.1596
114.905 133.947 72.6928
114.286 133.392 72.3711
113.716 134.357 71.9976
113.834 135.918 72.0731
114.266 135.77 72.6891
115.194 133.739 73.3009
115.364 132.978 73.0186
113.176 135.154 71.7013
113.231 136.021 71.6486
112.573 135.985 71.352
114.604 135.459 73.2829
115.076 134.368 73.6115
114.941 135.013 73.972
115.302 132.23 73.0491
114.684 132.441 72.7593
115.198 131.529 73.1171
115.881 129.516 80.9571
116.083 129.393 80.1925
116.294 128.28 80.7526
116.277 129.38 79.5613
115.925 130.434 79.7948
115.366 130.629 81.032
115.538 129.635 81.5443
116.474 127.346 81.2417
116.81 127.209 80.4811
115.524 131.336 79.931
115.249 131.474 80.5891
115.109 132.343 80.044
115.26 128.891 81.4951
115.738 127.489 81.3875
114.982 128.073 81.2446
116.892 127.217 79.7173
116.654 128.477 79.3228
117.054 127.632 78.9785
117.294 126.238 75.465
116.853 125.789 75.3148
117.383 125.053 75.8371
116.263 125.728 75.2207
116.324 126.715 74.9209
117.088 127.424 75.1249
117.529 126.849 75.7439
117.725 124.539 76.5897
117.109 124.156 76.3536
116.222 127.541 74.4765
116.741 127.91 74.4799
116.122 128.562 74.1303
117.683 126.56 76.4133
117.832 125.357 76.9216
117.722 126.422 77.1371
116.391 124.271 76.2039
115.955 125.168 75.6388
115.538 124.733 76.0687
109.099 138.221 76.9383
108.689 137.65 76.5912
108.526 138.482 76.0786
108.484 137.034 76.2264
108.982 136.794 76.9751
109.703 137.838 77.7655
109.602 138.653 77.2133
108.531 139.231 75.4604
108.003 138.536 75.2523
109.417 136.47 77.6332
109.729 137.009 78.1168
109.925 136.084 78.3476
109.72 139.353 76.6617
109.13 139.754 75.789
109.859 140.172 76.1565
107.731 137.796 75.1139
108.247 136.919 75.6095
107.781 136.838 74.9523
108.774 134.368 72.3634
109.443 134.533 72.2587
108.772 135.325 72.2696
110.054 134.612 72.1335
110.07 133.761 72.2734
108.906 133.428 72.5734
108.266 134.197 72.6331
108.148 136.113 72.2774
108.787 136.289 71.9341
110.098 132.893 72.4579
109.532 132.776 72.6909
110.177 132.135 72.8098
107.847 134.754 72.931
107.696 135.773 72.6598
107.506 135.468 73.3117
109.501 136.159 71.6649
110.164 135.279 71.9941
110.269 136.046 71.5511
111.954 131.366 78.5648
112.336 131.09 79.1893
112.311 130.336 78.8297
112.609 130.782 79.8158
112.248 131.78 79.5207
111.605 132.353 78.2378
111.491 131.661 78.0343
112.186 129.639 78.5704
112.533 129.269 79.1621
111.922 132.702 79.1612
111.574 132.984 78.4411
111.441 133.617 78.8177
111.382 131.025 77.8073
111.872 130.011 78.0072
111.44 130.425 77.4239
112.868 129.039 79.6527
112.932 129.844 80.023
113.315 128.89 80.1964
112.001 128.009 75.1318
111.589 128.838 75.1783
111.937 127.803 75.6875
111.176 129.484 75.2153
111.07 129.683 74.733
112.221 128.275 74.7013
112.545 127.392 75.091
112.313 126.947 76.1683
111.922 127.714 76.2729
111.005 129.764 74.2786
111.669 129.198 74.2817
111.088 129.948 73.8521
112.991 126.723 75.4404
112.809 126.431 76.0054
113.473 125.966 75.8861
111.601 128.567 76.2505
111.212 129.445 75.6798
111.353 129.459 76.197
POLYGONS 1280  5120
3 164 162 163
3 163 44 164
3 162 43 163
3 164 42 162
3 166 165 163
3 163 43 166
3 165 44 163
3 166 14 165
3 168 167 162
3 162 42 168
3 167 43 162
3 168 13 167
3 170 169 164
3 164 44 170
3 169 42 164
3 170 12 169
3 173 171 172
3 172 46 173
3 171 43 172
3 173 45 171
3 167 174 172
3 172 43 167
3 174 46 172
3 167 13 174
3 175 166 171
3 171 45 175
3 166 43 171
3 175 14 166
3 177 176 173
3 173 46 177
3 176 45 173
3 177 4 176
3 180 178 179
3 179 48 180
3 178 42 179
3 180 47 178
3 169 181 179
3 179 42 169
3 181 48 179
3 169 12 181
3 182 168 178
3 178 47 182
3 168 42 178
3 182 13 168
3 184 183 180
3 180 48 184
3 183 47 180
3 184 8 183
3 187 185 186
3 186 50 187
3 185 44 186
3 187 49 185
3 165 188 186
3 186 44 165
3 188 50 186
3 165 14 188
3 189 170 185
3 185 49 189
3 170 44 185
3 189 12 170
3 191 190 187
3 187 50 191
3 190 49 187
3 191 7 190
3 194 192 193
3 193 53 194
3 192 52 193
3 194 51 192
3 196 195 193
3 193 52 196
3 195 53 193
3 196 16 195
3 198 197 192
3 192 51 198
3 197 52 192
3 198 14 197
3 200 199 194
3 194 53 200
3 199 51 194
3 200 15 199
3 203 201 202
3 202 45 203
3 201 52 202
3 203 54 201
3 197 175 202
3 202 52 197
3 175 45 202
3 197 14 175
3 204 196 201
3 201 54 204
3 196 52 201
3 204 16 196
3 176 205 203
3 203 45 176
3 205 54 203
3 176 4 205
3 208 206 207
3 207 55 208
3 206 51 207
3 208 50 206
3 199 209 207
3 207 51 199
3 209 55 207
3 199 15 209
3 188 198 206
3 206 50 188
3 198 51 206
3 188 14 198
3 210 191 208
3 208 55 210
3 191 50 208
3 210 7 191
3 213 211 212
3 212 57 213
3 211 53 212
3 213 56 211
3 195 214 212
3 212 53 195
3 214 57 212
3 195 16 214
3 215 200 211
3 211 56 215
3 200 53 211
3 215 15 200
3 217 216 213
3 213 57 217
3 216 56 213
3 217 9 216
3 220 218 219
3 219 60 220
3 218 59 219
3 220 58 218
3 222 221 219
3 219 59 222
3 221 60 219
3 222 19 221
3 224 223 218
3 218 58 224
3 223 59 218
3 224 18 223
3 226 225 220
3 220 60 226
3 225 58 220
3 226 17 225
3 229 227 228
3 228 62 229
3 227 59 228
3 229 61 227
3 223 230 228
3 228 59 223
3 230 62 228
3 223 18 230
3 231 222 227
3 227 61 231
3 222 59 227
3 231 19 222
3 233 232 229
3 229 62 233
3 232 61 229
3 233 5 232
3 236 234 235
3 235 64 236
3 234 58 235
3 236 63 234
3 225 237 235
3 235 58 225
3 237 64 235
3 225 17 237
3 238 224 234
3 234 63 238
3 224 58 234
3 238 18 224
3 240 239 236
3 236 64 240
3 239 63 236
3 240 6 239
3 243 241 242
3 242 66 243
3 241 60 242
3 243 65 241
3 221 244 242
3 242 60 221
3 244 66 242
3 221 19 244
3 245 226 241
3 241 65 245
3 226 60 241
3 245 17 226
3 247 246 243
3 243 66 247
3 246 65 243
3 247 11 246
3 250 248 249
3 249 69 250
3 248 68 249
3 250 67 248
3 252 251 249
3 249 68 252
3 251 69 249
3 252 18 251
3 254 253 248
3 248 67 254
3 253 68 248
3 254 21 253
3 256 255 250
3 250 69 256
3 255 67 250
3 256 20 255
3 259 257 258
3 258 70 259
3 257 68 258
3 259 62 257
3 253 260 258
3 258 68 253
3 260 70 258
3 253 21 260
3 230 252 257
3 257 62 230
3 252 68 257
3 230 18 252
3 261 233 259
3 259 70 261
3 233 62 259
3 261 5 233
3 264 262 263
3 263 72 264
3 262 67 263
3 264 71 262
3 255 265 263
3 263 67 255
3 265 72 263
3 255 20 265
3 266 254 262
3 262 71 266
3 254 67 262
3 266 21 254
3 268 267 264
3 264 72 268
3 267 71 264
3 268 10 267
3 271 269 270
3 270 63 271
3 269 69 270
3 271 73 269
3 251 238 270
3 270 69 251
3 238 63 270
3 251 18 238
3 272 256 269
3 269 73 272
3 256 69 269
3 272 20 256
3 239 273 271
3 271 63 239
3 273 73 271
3 239 6 273
3 276 274 275
3 275 76 276
3 274 75 275
3 276 74 274
3 278 277 275
3 275 75 278
3 277 76 275
3 278 24 277
3 280 279 274
3 274 74 280
3 279 75 274
3 280 23 279
3 282 281 276
3 276 76 282
3 281 74 276
3 282 22 281
3 285 283 284
3 284 78 285
3 283 75 284
3 285 77 283
3 279 286 284
3 284 75 279
3 286 78 284
3 279 23 286
3 287 278 283
3 283 77 287
3 278 75 283
3 287 24 278
3 289 288 285
3 285 78 289
3 288 77 285
3 289 0 288
3 292 290 291
3 291 80 292
3 290 74 291
3 292 79 290
3 281 293 291
3 291 74 281
3 293 80 291
3 281 22 293
3 294 280 290
3 290 79 294
3 280 74 290
3 294 23 280
3 296 295 292
3 292 80 296
3 295 79 292
3 296 4 295
3 299 297 298
3 298 82 299
3 297 76 298
3 299 81 297
3 277 300 298
3 298 76 277
3 300 82 298
3 277 24 300
3 301 282 297
3 297 81 301
3 282 76 297
3 301 22 282
3 303 302 299
3 299 82 303
3 302 81 299
3 303 3 302
3 306 304 305
3 305 85 306
3 304 84 305
3 306 83 304
3 308 307 305
3 305 84 308
3 307 85 305
3 308 26 307
3 310 309 304
3 304 83 310
3 309 84 304
3 310 24 309
3 312 311 306
3 306 85 312
3 311 83 306
3 312 25 311
3 315 313 314
3 314 77 315
3 313 84 314
3 315 86 313
3 309 287 314
3 314 84 309
3 287 77 314
3 309 24 287
3 316 308 313
3 313 86 316
3 308 84 313
3 316 26 308
3 288 317 315
3 315 77 288
3 317 86 315
3 288 0 317
3 320 318 319
3 319 87 320
3 318 83 319
3 320 82 318
3 311 321 319
3 319 83 311
3 321 87 319
3 311 25 321
3 300 310 318
3 318 82 300
3 310 83 318
3 300 24 310
3 322 303 320
3 320 87 322
3 303 82 320
3 322 3 303
3 325 323 324
3 324 89 325
3 323 85 324
3 325 88 323
3 307 326 324
3 324 85 307
3 326 89 324
3 307 26 326
3 327 312 323
3 323 88 327
3 312 85 323
3 327 25 312
3 329 328 325
3 325 89 329
3 328 88 325
3 329 5 328
3 332 330 331
3 331 92 332
3 330 91 331
3 332 90 330
3 334 333 331
3 331 91 334
3 333 92 331
3 334 29 333
3 336 335 330
3 330 90 336
3 335 91 330
3 336 28 335
3 338 337 332
3 332 92 338
3 337 90 332
3 338 27 337
3 341 339 340
3 340 94 341
3 339 91 340
3 341 93 339
3 335 342 340
3 340 91 335
3 342 94 340
3 335 28 342
3 343 334 339
3 339 93 343
3 334 91 339
3 343 29 334
3 345 344 341
3 341 94 345
3 344 93 341
3 345 2 344
3 348 346 347
3 347 96 348
3 346 90 347
3 348 95 346
3 337 349 347
3 347 90 337
3 349 96 347
3 337 27 349
3 350 336 346
3 346 95 350
3 336 90 346
3 350 28 336
3 352 351 348
3 348 96 352
3 351 95 348
3 352 7 351
3 355 353 354
3 354 98 355
3 353 92 354
3 355 97 353
3 333 356 354
3 354 92 333
3 356 98 354
3 333 29 356
3 357 338 353
3 353 97 357
3 338 92 353
3 357 27 338
3 359 358 355
3 355 98 359
3 358 97 355
3 359 1 358
3 362 360 361
3 361 101 362
3 360 100 361
3 362 99 360
3 364 363 361
3 361 100 364
3 363 101 361
3 364 31 363
3 366 365 360
3 360 99 366
3 365 100 360
3 366 29 365
3 368 367 362
3 362 101 368
3 367 99 362
3 368 30 367
3 371 369 370
3 370 93 371
3 369 100 370
3 371 102 369
3 365 343 370
3 370 100 365
3 343 93 370
3 365 29 343
3 372 364 369
3 369 102 372
3 364 100 369
3 372 31 364
3 344 373 371
3 371 93 344
3 373 102 371
3 344 2 373
3 376 374 375
3 375 103 376
3 374 99 375
3 376 98 374
3 367 377 375
3 375 99 367
3 377 103 375
3 367 30 377
3 356 366 374
3 374 98 356
3 366 99 374
3 356 29 366
3 378 359 376
3 376 103 378
3 359 98 376
3 378 1 359
3 381 379 380
3 380 105 381
3 379 101 380
3 381 104 379
3 363 382 380
3 380 101 363
3 382 105 380
3 363 31 382
3 383 368 379
3 379 104 383
3 368 101 379
3 383 30 368
3 385 384 381
3 381 105 385
3 384 104 381
3 385 6 384
3 388 386 387
3 387 108 388
3 386 107 387
3 388 106 386
3 390 389 387
3 387 107 390
3 389 108 387
3 390 34 389
3 392 391 386
3 386 106 392
3 391 107 386
3 392 33 391
3 394 393 388
3 388 108 394
3 393 106 388
3 394 32 393
3 397 395 396
3 396 110 397
3 395 107 396
3 397 109 395
3 391 398 396
3 396 107 391
3 398 110 396
3 391 33 398
3 399 390 395
3 395 109 399
3 390 107 395
3 399 34 390
3 401 400 397
3 397 110 401
3 400 109 397
3 401 8 400
3 404 402 403
3 403 112 404
3 402 106 403
3 404 111 402
3 393 405 403
3 403 106 393
3 405 112 403
3 393 32 405
3 406 392 402
3 402 111 406
3 392 106 402
3 406 33 392
3 408 407 404
3 404 112 408
3 407 111 404
3 408 0 407
3 411 409 410
3 410 114 411
3 409 108 410
3 411 113 409
3 389 412 410
3 410 108 389
3 412 114 410
3 389 34 412
3 413 394 409
3 409 113 413
3 394 108 409
3 413 32 394
3 415 414 411
3 411 114 415
3 414 113 411
3 415 11 414
3 418 416 417
3 417 117 418
3 416 116 417
3 418 115 416
3 420 419 417
3 417 116 420
3 419 117 417
3 420 36 419
3 422 421 416
3 416 115 422
3 421 116 416
3 422 34 421
3 424 423 418
3 418 117 424
3 423 115 418
3 424 35 423
3 427 425 426
3 426 109 427
3 425 116 426
3 427 118 425
3 421 399 426
3 426 116 421
3 399 109 426
3 421 34 399
3 428 420 425
3 425 118 428
3 420 116 425
3 428 36 420
3 400 429 427
3 427 109 400
3 429 118 427
3 400 8 429
3 432 430 431
3 431 119 432
3 430 115 431
3 432 114 430
3 423 433 431
3 431 115 423
3 433 119 431
3 423 35 433
3 412 422 430
3 430 114 412
3 422 115 430
3 412 34 422
3 434 415 432
3 432 119 434
3 415 114 432
3 434 11 415
3 437 435 436
3 436 121 437
3 435 117 436
3 437 120 435
3 419 438 436
3 436 117 419
3 438 121 436
3 419 36 438
3 439 424 435
3 435 120 439
3 424 117 435
3 439 35 424
3 441 440 437
3 437 121 441
3 440 120 437
3 441 1 440
3 444 442 443
3 443 124 444
3 442 123 443
3 444 122 442
3 446 445 443
3 443 123 446
3 445 124 443
3 446 39 445
3 448 447 442
3 442 122 448
3 447 123 442
3 448 38 447
3 450 449 444
3 444 124 450
3 449 122 444
3 450 37 449
3 453 451 452
3 452 126 453
3 451 123 452
3 453 125 451
3 447 454 452
3 452 123 447
3 454 126 452
3 447 38 454
3 455 446 451
3 451 125 455
3 446 123 451
3 455 39 446
3 457 456 453
3 453 126 457
3 456 125 453
3 457 9 456
3 460 458 459
3 459 128 460
3 458 122 459
3 460 127 458
3 449 461 459
3 459 122 449
3 461 128 459
3 449 37 461
3 462 448 458
3 458 127 462
3 448 122 458
3 462 38 448
3 464 463 460
3 460 128 464
3 463 127 460
3 464 10 463
3 467 465 466
3 466 130 467
3 465 124 466
3 467 129 465
3 445 468 466
3 466 124 445
3 468 130 466
3 445 39 468
3 469 450 465
3 465 129 469
3 450 124 465
3 469 37 450
3 471 470 467
3 467 130 471
3 470 129 467
3 471 3 470
3 474 472 473
3 473 133 474
3 472 132 473
3 474 131 472
3 476 475 473
3 473 132 476
3 475 133 473
3 476 38 475
3 478 477 472
3 472 131 478
3 477 132 472
3 478 41 477
3 480 479 474
3 474 133 480
3 479 131 474
3 480 40 479
3 483 481 482
3 482 134 483
3 481 132 482
3 483 126 481
3 477 484 482
3 482 132 477
3 484 134 482
3 477 41 484
3 454 476 481
3 481 126 454
3 476 132 481
3 454 38 476
3 485 457 483
3 483 134 485
3 457 126 483
3 485 9 457
3 488 486 487
3 487 136 488
3 486 131 487
3 488 135 486
3 479 489 487
3 487 131 479
3 489 136 487
3 479 40 489
3 490 478 486
3 486 135 490
3 478 131 486
3 490 41 478
3 492 491 488
3 488 136 492
3 491 135 488
3 492 2 491
3 495 493 494
3 494 127 495
3 493 133 494
3 495 137 493
3 475 462 494
3 494 133 475
3 462 127 494
3 475 38 462
3 496 480 493
3 493 137 496
3 480 133 493
3 496 40 480
3 463 497 495
3 495 127 463
3 497 137 495
3 463 10 497
3 500 498 499
3 499 140 500
3 498 139 499
3 500 138 498
3 502 501 499
3 499 139 502
3 501 140 499
3 502 33 501
3 504 503 498
3 498 138 504
3 503 139 498
3 504 13 503
3 506 505 500
3 500 140 506
3 505 138 500
3 506 23 505
3 509 507 508
3 508 47 509
3 507 139 508
3 509 110 507
3 503 182 508
3 508 139 503
3 182 47 508
3 503 13 182
3 398 502 507
3 507 110 398
3 502 139 507
3 398 33 502
3 183 401 509
3 509 47 183
3 401 110 509
3 183 8 401
3 512 510 511
3 511 79 512
3 510 138 511
3 512 46 510
3 505 294 511
3 511 138 505
3 294 79 511
3 505 23 294
3 174 504 510
3 510 46 174
3 504 138 510
3 174 13 504
3 295 177 512
3 512 79 295
3 177 46 512
3 295 4 177
3 515 513 514
3 514 111 515
3 513 140 514
3 515 78 513
3 501 406 514
3 514 140 501
3 406 111 514
3 501 33 406
3 286 506 513
3 513 78 286
3 506 140 513
3 286 23 506
3 407 289 515
3 515 111 407
3 289 78 515
3 407 0 289
3 518 516 517
3 517 143 518
3 516 142 517
3 518 141 516
3 520 519 517
3 517 142 520
3 519 143 517
3 520 19 519
3 522 521 516
3 516 141 522
3 521 142 516
3 522 32 521
3 524 523 518
3 518 143 524
3 523 141 518
3 524 26 523
3 527 525 526
3 526 113 527
3 525 142 526
3 527 66 525
3 521 413 526
3 526 142 521
3 413 113 526
3 521 32 413
3 244 520 525
3 525 66 244
3 520 142 525
3 244 19 520
3 414 247 527
3 527 113 414
3 247 66 527
3 414 11 247
3 530 528 529
3 529 86 530
3 528 141 529
3 530 112 528
3 523 316 529
3 529 141 523
3 316 86 529
3 523 26 316
3 405 522 528
3 528 112 405
3 522 141 528
3 405 32 522
3 317 408 530
3 530 86 317
3 408 112 530
3 317 0 408
3 533 531 532
3 532 61 533
3 531 143 532
3 533 89 531
3 519 231 532
3 532 143 519
3 231 61 532
3 519 19 231
3 326 524 531
3 531 89 326
3 524 143 531
3 326 26 524
3 232 329 533
3 533 61 232
3 329 89 533
3 232 5 329
3 536 534 535
3 535 146 536
3 534 145 535
3 536 144 534
3 538 537 535
3 535 145 538
3 537 146 535
3 538 22 537
3 540 539 534
3 534 144 540
3 539 145 534
3 540 16 539
3 542 541 536
3 536 146 542
3 541 144 536
3 542 39 541
3 545 543 544
3 544 54 545
3 543 145 544
3 545 80 543
3 539 204 544
3 544 145 539
3 204 54 544
3 539 16 204
3 293 538 543
3 543 80 293
3 538 145 543
3 293 22 538
3 205 296 545
3 545 54 205
3 296 80 545
3 205 4 296
3 548 546 547
3 547 125 548
3 546 144 547
3 548 57 546
3 541 455 547
3 547 144 541
3 455 125 547
3 541 39 455
3 214 540 546
3 546 57 214
3 540 144 546
3 214 16 540
3 456 217 548
3 548 125 456
3 217 57 548
3 456 9 217
3 551 549 550
3 550 81 551
3 549 146 550
3 551 130 549
3 537 301 550
3 550 146 537
3 301 81 550
3 537 22 301
3 468 542 549
3 549 130 468
3 542 146 549
3 468 39 542
3 302 471 551
3 551 81 302
3 471 130 551
3 302 3 471
3 554 552 553
3 553 149 554
3 552 148 553
3 554 147 552
3 556 555 553
3 553 148 556
3 555 149 553
3 556 21 555
3 558 557 552
3 552 147 558
3 557 148 552
3 558 25 557
3 560 559 554
3 554 149 560
3 559 147 554
3 560 37 559
3 563 561 562
3 562 88 563
3 561 148 562
3 563 70 561
3 557 327 562
3 562 148 557
3 327 88 562
3 557 25 327
3 260 556 561
3 561 70 260
3 556 148 561
3 260 21 556
3 328 261 563
3 563 88 328
3 261 70 563
3 328 5 261
3 566 564 565
3 565 129 566
3 564 147 565
3 566 87 564
3 559 469 565
3 565 147 559
3 469 129 565
3 559 37 469
3 321 558 564
3 564 87 321
3 558 147 564
3 321 25 558
3 470 322 566
3 566 129 470
3 322 87 566
3 470 3 322
3 569 567 568
3 568 71 569
3 567 149 568
3 569 128 567
3 555 266 568
3 568 149 555
3 266 71 568
3 555 21 266
3 461 560 567
3 567 128 461
3 560 149 567
3 461 37 560
3 267 464 569
3 569 71 267
3 464 128 569
3 267 10 464
3 572 570 571
3 571 152 572
3 570 151 571
3 572 150 570
3 574 573 571
3 571 151 574
3 573 152 571
3 574 27 573
3 576 575 570
3 570 150 576
3 575 151 570
3 576 12 575
3 578 577 572
3 572 152 578
3 577 150 572
3 578 36 577
3 581 579 580
3 580 49 581
3 579 151 580
3 581 96 579
3 575 189 580
3 580 151 575
3 189 49 580
3 575 12 189
3 349 574 579
3 579 96 349
3 574 151 579
3 349 27 574
3 190 352 581
3 581 49 190
3 352 96 581
3 190 7 352
3 584 582 583
3 583 118 584
3 582 150 583
3 584 48 582
3 577 428 583
3 583 150 577
3 428 118 583
3 577 36 428
3 181 576 582
3 582 48 181
3 576 150 582
3 181 12 576
3 429 184 584
3 584 118 429
3 184 48 584
3 429 8 184
3 587 585 586
3 586 97 587
3 585 152 586
3 587 121 585
3 573 357 586
3 586 152 573
3 357 97 586
3 573 27 357
3 438 578 585
3 585 121 438
3 578 152 585
3 438 36 578
3 358 441 587
3 587 97 358
3 441 121 587
3 358 1 441
3 590 588 589
3 589 155 590
3 588 154 589
3 590 153 588
3 592 591 589
3 589 154 592
3 591 155 589
3 592 17 591
3 594 593 588
3 588 153 594
3 593 154 588
3 594 30 593
3 596 595 590
3 590 155 596
3 595 153 590
3 596 35 595
3 599 597 598
3 598 104 599
3 597 154 598
3 599 64 597
3 593 383 598
3 598 154 593
3 383 104 598
3 593 30 383
3 237 592 597
3 597 64 237
3 592 154 597
3 237 17 592
3 384 240 599
3 599 104 384
3 240 64 599
3 384 6 240
3 602 600 601
3 601 120 602
3 600 153 601
3 602 103 600
3 595 439 601
3 601 153 595
3 439 120 601
3 595 35 439
3 377 594 600
3 600 103 377
3 594 153 600
3 377 30 594
3 440 378 602
3 602 120 440
3 378 103 602
3 440 1 378
3 605 603 604
3 604 65 605
3 603 155 604
3 605 119 603
3 591 245 604
3 604 155 591
3 245 65 604
3 591 17 245
3 433 596 603
3 603 119 433
3 596 155 603
3 433 35 596
3 246 434 605
3 605 65 246
3 434 119 605
3 246 11 434
3 608 606 607
3 607 158 608
3 606 157 607
3 608 156 606
3 610 609 607
3 607 157 610
3 609 158 607
3 610 15 609
3 612 611 606
3 606 156 612
3 611 157 606
3 612 28 611
3 614 613 608
3 608 158 614
3 613 156 608
3 614 41 613
3 617 615 616
3 616 95 617
3 615 157 616
3 617 55 615
3 611 350 616
3 616 157 611
3 350 95 616
3 611 28 350
3 209 610 615
3 615 55 209
3 610 157 615
3 209 15 610
3 351 210 617
3 617 95 351
3 210 55 617
3 351 7 210
3 620 618 619
3 619 135 620
3 618 156 619
3 620 94 618
3 613 490 619
3 619 156 613
3 490 135 619
3 613 41 490
3 342 612 618
3 618 94 342
3 612 156 618
3 342 28 612
3 491 345 620
3 620 135 491
3 345 94 620
3 491 2 345
3 623 621 622
3 622 56 623
3 621 158 622
3 623 134 621
3 609 215 622
3 622 158 609
3 215 56 622
3 609 15 215
3 484 614 621
3 621 134 484
3 614 158 621
3 484 41 614
3 216 485 623
3 623 56 216
3 485 134 623
3 216 9 485
3 626 624 625
3 625 161 626
3 624 160 625
3 626 159 624
3 628 627 625
3 625 160 628
3 627 161 625
3 628 31 627
3 630 629 624
3 624 159 630
3 629 160 624
3 630 20 629
3 632 631 626
3 626 161 632
3 631 159 626
3 632 40 631
3 635 633 634
3 634 73 635
3 633 160 634
3 635 105 633
3 629 272 634
3 634 160 629
3 272 73 634
3 629 20 272
3 382 628 633
3 633 105 382
3 628 160 633
3 382 31 628
3 273 385 635
3 635 73 273
3 385 105 635
3 273 6 385
3 638 636 637
3 637 137 638
3 636 159 637
3 638 72 636
3 631 496 637
3 637 159 631
3 496 137 637
3 631 40 496
3 265 630 636
3 636 72 265
3 630 159 636
3 265 20 630
3 497 268 638
3 638 137 497
3 268 72 638
3 497 10 268
3 641 639 640
3 640 102 641
3 639 161 640
3 641 136 639
3 627 372 640
3 640 161 627
3 372 102 640
3 627 31 372
3 489 632 639
3 639 136 489
3 632 161 639
3 489 40 632
3 373 492 641
3 641 102 373
3 492 136 641
3 373 2 492
