# vtk DataFile Version 3.0
this file was written using fslvtkio
ASCII
DATASET POLYDATA
POINTS 970 float
114.044 151.711 65.4978
112.88 151.508 65.6496
113.723 151.23 65.7325
114.224 150.856 65.7338
115.138 151.488 65.8384
115.378 150.337 66.0966
115.933 151.033 66.5573
115.895 150.322 67.4594
113.405 152.339 65.2789
112.601 152.866 65.3015
114.585 152.27 65.9708
115.642 151.86 66.4187
116.316 151.125 67.4474
113.614 153.658 65.3355
115.16 153.156 65.95
115.943 152.091 67.0012
109.995 144.871 68.8605
108.563 145.063 69.1163
109.299 143.987 69.7816
110.45 144.058 69.6998
111.065 145.029 69.0057
111.208 144.991 69.973
111.64 145.885 69.5768
111.152 145.736 70.5522
109.874 145.913 68.6675
108.762 146.258 69.1322
111.166 146 68.4734
111.896 146.051 68.284
112.149 146.097 70.166
112.496 146.59 69.2658
112.718 146.653 70.236
109.858 147.118 68.4011
108.962 147.154 69.1215
111.102 147.104 67.7011
112.111 146.771 67.1391
112.845 146.824 68.1203
112.991 147.429 69.5477
109.188 147.742 68.7803
110.574 147.886 67.8068
110.123 148.379 68.2272
112.016 147.879 66.9922
113.235 147.531 66.735
113.435 147.776 68.571
110.906 148.911 67.5666
111.86 148.847 66.5294
112.758 148.377 65.6125
112.133 149.413 66.2307
113.812 148.278 67.8728
114.099 148.215 66.2376
114.498 148.978 68.0935
115.421 148.723 67.5708
115.012 149.372 68.6393
113.259 150.37 66.0855
111.778 150.573 66.5318
114.153 149.079 65.7928
115.562 148.968 66.464
115.946 149.807 68.3849
112.146 151.424 66.3567
111.089 152.11 66.5605
111.079 151.344 67.3024
116.833 150.596 68.5181
111.734 152.451 65.799
110.986 153.281 66.3359
116.878 151.802 67.8132
112.093 153.779 65.7917
112.701 154.48 65.82
114.538 154.008 66.0087
115.881 153.141 66.7586
107.521 143.093 70.6835
106.662 143.787 70.7442
106.846 142.757 71.5965
108.226 142.7 71.5403
108.769 143.406 70.579
109.442 142.99 71.2431
107.53 144.292 69.7833
106.462 145.005 70.2594
110.215 143.558 70.6412
111.005 144.514 70.7245
111.405 145.354 71.3927
107.51 145.674 69.4972
106.555 146.361 70.1163
111.984 146.208 70.8999
112.825 146.819 71.2557
107.847 146.935 69.4896
107.014 147.702 70.2531
113.071 147.696 70.5306
113.674 148.082 69.8106
113.978 148.016 70.8193
108.23 148.241 69.3616
109.528 148.776 68.5049
108.599 149.094 69.3251
114.037 148.481 69.2054
114.519 148.516 70.5101
109.683 149.546 68.4272
110.241 149.706 67.5873
109.411 150.174 68.3971
111.114 149.265 66.937
114.62 149.122 69.3631
115.458 149.759 69.613
110.404 151.027 67.8257
109.346 150.734 68.4527
111.045 150.153 67.0752
116.409 150.395 69.6033
109.407 151.408 68.3693
110.501 152.322 67.595
116.976 151.271 69.3276
110.236 153.776 67.0765
116.889 152.137 68.705
111.281 154.611 66.5891
112.74 155.114 66.8269
112.154 155.387 67.6368
114.271 154.813 66.7116
115.744 154.174 66.9372
116.446 152.904 67.7777
113.892 155.439 67.8577
115.26 155.059 67.6622
116.185 154.352 67.8966
106.359 144.19 71.6707
106.937 143.202 72.5661
108.11 142.861 72.5695
109.268 143.21 72.3027
110.202 143.642 71.7395
110.44 144.214 72.7838
106.22 145.652 71.3012
111.037 144.145 71.7202
111.386 145.534 72.4705
106.143 146.753 71.1039
111.947 146.391 71.8916
112.682 147.231 72.4439
106.341 147.764 71.2033
113.213 147.816 71.5714
113.857 148.563 71.6557
107.461 148.91 69.9289
106.702 148.862 71.0203
114.242 149.364 71.7332
107.609 149.931 70.134
107.345 150.204 71.3662
108.548 149.864 69.388
114.783 149.649 70.6074
115.405 150.416 70.9384
107.788 150.632 70.1724
108.569 150.683 69.216
108.216 151.157 69.9465
115.893 151.133 70.6866
108.854 151.659 69.4487
109.749 152.357 68.6862
109.734 152.749 69.4561
116.57 151.756 70.1117
117.237 152.211 69.5388
117.146 152.389 70.4945
110 153.32 68.1835
110.075 153.854 68.9571
116.876 152.809 69.0262
117.425 152.934 70.0549
110.846 154.381 68.0021
111.394 155.156 68.1467
112.368 155.499 68.7657
116.658 153.676 68.4583
117.127 153.82 69.5509
113.545 155.633 68.9129
114.716 155.825 68.8253
116.008 155.328 68.7894
116.71 154.591 69.0967
107.925 143.317 73.7023
107.08 144.083 73.2136
107.838 143.823 74.5312
108.742 143.794 74.6541
108.915 143.366 73.3336
109.235 144.165 74.2832
109.582 144.01 73.2351
109.956 144.534 74.2099
106.724 145.152 72.664
110.78 144.752 74.1911
106.701 146.141 72.3413
111.315 144.902 73.1526
111.516 146.085 73.5572
106.698 147.067 72.3669
111.958 146.777 72.9919
112.655 147.501 73.6019
106.838 148.134 72.2602
113.313 148.066 72.6406
113.807 148.934 72.8174
107.111 149.198 72.2398
114.378 149.662 72.8848
107.472 150.13 72.4926
114.844 150.158 71.9597
115.459 151.12 72.2634
107.8 151.158 70.8505
108.038 151.054 72.104
115.663 151.636 71.4935
116.224 151.896 70.7935
116.691 152.306 71.6034
108.195 151.917 70.7827
109.18 152.454 70.2934
109.114 152.824 71.163
117.611 152.992 71.2354
109.812 153.575 70.2238
109.805 153.892 71.0599
117.402 153.657 70.7177
110.486 154.46 69.6752
111.194 154.99 69.3693
111.843 155.447 69.3392
111.695 155.571 70.2282
117.363 154.663 70.3088
112.806 155.822 69.9622
113.717 156.161 70.2488
114.673 156.215 70.0179
115.954 156.051 69.7656
116.856 155.401 69.8023
107.174 144.768 74.3274
108.022 144.051 75.5592
108.801 143.904 75.5464
109.471 144.369 75.3897
109.951 144.713 75.7816
107.211 145.719 73.8656
110.665 145.257 75.7002
106.998 146.45 73.6961
111.041 145.667 74.5986
111.588 146.234 74.9149
107.028 147.294 73.6875
112.185 146.801 74.2677
112.789 147.723 74.9381
107.068 148.344 73.5878
112.996 148.42 73.8836
113.631 148.982 74.0739
107.199 149.468 73.6229
114.315 149.825 74.0744
107.873 150.444 73.4425
115.051 150.503 73.0724
115.856 151.245 73.716
108.346 151.391 73.3189
116.108 151.776 72.4114
117.034 152.508 72.4769
108.39 152.153 71.9534
109.028 153.29 72.1096
117.517 153.232 71.8883
109.813 154.161 72.3773
117.586 154.086 71.6818
110.638 154.477 71.3104
111.06 155.034 70.8225
111.851 155.585 71.4687
117.508 155.128 71.0888
112.495 156.125 70.9874
113.505 156.248 71.139
114.651 156.437 71.3245
115.727 156.195 71.0598
116.795 155.844 70.8251
108.69 143.745 76.647
107.781 144.014 76.1022
108.269 143.184 77.4072
108.952 142.417 77.5253
109.152 143.53 76.5019
109.614 142.877 77.4537
109.523 143.972 76.5603
109.85 143.701 77.5098
107.507 144.94 75.5236
110.453 144.382 77.3616
107.658 145.872 75.1379
110.865 145.155 77.008
107.082 146.556 75.184
111.364 145.846 76.3249
111.834 146.42 76.1482
107.17 147.539 75.0694
112.168 147.065 75.503
112.861 147.437 76.2937
107.396 148.602 74.9549
113.112 148.445 75.2772
113.989 148.88 75.2873
107.555 149.633 74.7936
114.577 149.854 75.0827
107.913 150.689 74.6821
115.06 150.66 74.2441
115.87 150.888 75.0749
108.35 151.707 74.4453
116.393 151.974 73.4293
116.445 151.893 74.6242
108.834 152.372 73.086
109.113 153.467 73.2475
117.092 152.494 73.4954
117.47 153.38 72.8224
109.916 154.24 73.5513
117.595 154.592 72.444
110.723 154.855 72.6491
111.135 155.547 72.2489
111.813 156.211 72.7309
117.394 155.633 72.0169
112.596 156.409 72.181
113.554 156.513 72.1699
114.736 156.491 72.3577
115.638 156.632 72.2523
116.662 156.396 71.8516
108.157 144.087 77.2399
108.558 142.784 78.686
108.811 142.073 78.4277
109.965 142.337 78.7962
110.288 143.222 78.7935
107.852 145.04 76.6017
110.424 144.15 78.7394
111.054 144.693 78.3226
111.193 144.288 79.7002
107.8 145.853 76.7062
111.356 145.219 77.565
111.78 145.161 78.6961
107.481 146.701 76.5667
111.842 145.988 77.5877
112.359 146.711 76.7556
112.683 146.547 77.7655
107.241 147.74 76.3651
113.255 147.283 77.4875
107.405 148.819 76.2223
113.535 148.265 76.4929
114.327 149.2 76.2066
107.789 149.828 76.1119
114.656 149.958 76.0229
115.074 150.501 75.3454
115.441 150.364 76.5412
108.005 150.933 75.8559
116.343 151.18 76.1073
108.564 151.945 75.6495
116.801 152.346 75.6111
108.871 152.612 74.3205
109.256 153.676 74.501
116.96 152.912 74.1853
117.375 153.935 73.645
109.995 154.534 74.6482
117.48 154.905 73.2596
110.9 154.959 73.7487
111.599 155.779 73.5269
112.199 156.648 73.7955
117.108 155.712 72.7431
112.533 156.713 73.239
113.418 156.875 73.3338
114.73 156.715 73.3857
115.948 156.373 73.3739
116.65 156.172 72.9929
109.041 141.175 79.3725
108.551 141.106 80.4479
109.061 140.052 80.4072
110.222 140.315 80.6924
110.007 141.181 79.6771
110.743 141.258 80.7305
108.376 143.504 78.7065
108.481 142.377 80.021
110.563 142.491 80.0682
110.839 143.312 79.7105
111.262 143.117 80.8944
107.834 144.677 78.1589
108.281 143.582 79.9736
111.928 144.287 80.4732
107.843 145.759 78.0516
112.189 145.083 79.7791
107.803 146.847 77.834
112.773 145.505 78.866
113.303 146.419 78.7934
107.62 147.959 77.6298
113.813 147.236 78.5752
113.7 147.829 77.5134
113.951 148.296 77.8757
107.82 149.052 77.5326
114.323 149.03 77.2549
114.941 149.535 76.9517
115.329 149.441 78.088
108.338 149.994 77.3031
116.1 150.355 77.5347
108.369 151.111 76.9591
116.968 151.386 77.075
108.639 152.115 76.7735
117.518 152.387 76.617
109.065 152.775 75.6741
109.562 153.885 75.5215
117.34 153.491 74.8356
117.73 153.598 75.9166
110.365 154.675 75.7258
110.99 154.878 74.7304
111.204 155.103 75.5507
117.606 154.58 74.6397
117.565 155.127 75.2509
111.868 155.497 74.6422
113.189 157.057 74.2873
112.636 156.472 74.8698
114.456 157.286 74.5316
113.93 157.019 75.2417
115.968 156.589 74.3523
115.236 157.255 75.4137
116.924 155.775 74.2937
116.74 156.223 75.1776
117.14 155.448 73.5919
109.211 139.603 81.2376
108.85 140.454 81.6892
109.185 139.663 82.1619
109.836 139.268 82.2274
110.017 139.63 81.4038
110.635 139.933 81.9366
108.552 141.691 81.5737
111.119 140.997 82.4663
110.805 142.146 81.3046
111.507 141.984 82.3537
108.623 142.798 81.3659
111.917 143.197 81.6854
108.084 144.744 79.4714
108.211 143.871 81.0839
112.585 143.774 81.8636
112.479 144.961 80.6712
113.143 144.505 81.6757
107.983 145.976 79.2522
112.794 145.195 79.8725
113.296 145.184 80.2771
108.053 147.133 79.0427
113.872 145.915 80.0872
113.94 146.659 79.4314
114.329 146.811 79.9712
108.042 148.173 78.9054
114.336 147.85 79.1168
114.402 148.967 78.5214
115.159 148.721 79.5177
108.085 149.396 78.7131
116.056 149.653 78.9632
108.535 150.443 78.5205
116.501 150.626 78.3426
108.636 151.517 77.9227
117.085 151.305 78.2552
117.699 152.106 77.6948
117.676 151.566 79.0493
108.907 152.294 77.5407
109.169 152.533 76.776
109.311 152.764 77.8977
118.028 153.146 77.1536
117.928 152.674 78.4948
109.959 153.942 76.124
109.718 153.184 76.5898
110.375 154.133 76.8636
118.035 154.274 76.616
117.912 153.809 77.7804
111.909 155.348 75.822
111.011 155.038 76.5473
112.017 155.378 76.7109
117.536 154.888 77.1448
117.526 155.293 76.1537
112.722 155.922 75.7852
113.715 156.699 76.0805
115.039 157.123 76.3128
116.382 156.67 76.1613
109.39 138.946 83.1648
109.034 139.794 83.0158
108.872 138.638 84.0619
109.745 138.12 84.2106
110.26 139.204 83.2173
110.492 138.344 84.183
110.885 139.21 83.8415
111.236 138.485 84.6015
108.72 140.791 83.0727
110.926 139.827 83.0883
111.551 139.856 84.3773
108.457 142.005 82.8258
111.756 141.178 83.8768
112.111 142.364 83.009
112.499 142.154 83.977
108.187 143.272 82.733
112.424 143.081 82.3537
112.897 143.09 83.1545
108.136 145.125 80.6429
108.142 144.373 82.1194
113.438 143.868 83.1136
113.749 144.847 81.7857
114.255 144.595 82.6347
107.949 146.235 80.3491
113.755 145.456 80.9239
114.306 145.482 81.5981
107.955 147.227 80.4692
114.952 146.221 81.1288
114.759 147.595 80.1049
115.375 147.552 80.7693
108.067 148.335 80.1457
115.96 148.659 80.2372
108.233 149.482 79.9416
116.385 149.389 80.0942
116.856 150.15 79.5552
116.697 149.69 80.8145
108.656 150.335 79.6282
108.928 151.149 79.1444
109.261 150.667 80.4543
116.987 150.962 79.2322
117.213 150.791 80.3172
108.999 152.056 78.5455
109.411 151.884 79.6835
117.746 151.958 79.8959
109.772 152.848 78.7079
117.63 153.228 79.1355
110.037 153.417 77.7757
110.871 154.04 77.799
117.348 154.329 78.1607
111.121 154.943 77.4586
112.818 155.691 76.8934
112.135 155.408 77.787
113.142 155.938 77.7993
117.149 155.018 77.6377
116.868 155.879 76.8809
113.543 156.184 76.8537
114.434 156.72 77.0737
115.825 156.77 77.1673
108.766 139.739 84.4739
108.745 138.3 84.7898
109.48 137.219 84.789
110.704 137.414 85.096
111.879 138.336 85.2207
108.707 141.015 84.3651
112.361 139.327 85.6433
112.023 140.357 84.795
112.66 140.432 85.2007
108.627 142.188 84.1552
113.066 141.249 84.7567
113.47 142.253 84.3604
114.016 141.505 85.3914
108.213 143.27 83.9962
113.849 142.91 83.9252
114.325 142.639 84.9915
108.428 145.341 82.0051
108.187 144.509 83.4298
114.241 143.897 83.929
114.645 145.099 83.2038
115.419 144.442 84.1058
108.248 146.26 81.5767
108.266 145.742 82.9653
114.769 145.762 82.1714
115.245 145.882 83.0673
108.261 147.392 81.757
115.632 146.602 81.8211
115.945 147.871 81.4432
116.181 147.523 82.4807
108.304 148.515 81.2768
116.331 148.803 81.1527
116.721 148.581 82.2284
108.61 149.305 81.0537
108.683 150.087 80.6004
109.006 150.007 81.7613
117.043 149.864 81.7046
109.695 151.168 81.2851
117.277 151.255 81.289
109.978 152.137 80.5072
110.074 152.729 79.6931
110.708 152.908 80.4238
117.439 152.633 80.6415
110.269 153.063 78.84
110.733 153.384 79.4443
117.305 154 79.448
111.615 154.544 78.2522
111.083 153.686 78.612
112.107 154.982 78.555
111.949 154.234 79.0819
112.668 155.125 79.1328
116.93 155.04 78.2709
116.939 154.613 79.6157
116.275 155.257 79.0434
114.039 156.265 78.0345
113.16 155.826 78.7114
115.091 156.294 77.9754
114.447 155.843 78.879
116.198 156.007 77.8725
115.453 155.731 78.8687
109.017 137.252 85.6794
108.909 138.723 85.6942
108.794 137.608 86.6196
109.033 136.168 86.7381
109.948 136.555 85.817
110.518 135.355 86.2527
111.405 136.693 86.0872
111.804 135.852 86.6691
112.179 137.36 86.6446
112.514 136.986 87.4539
109.061 139.92 85.619
112.053 138.169 86.1232
112.887 138.361 87.0797
109.046 141.192 85.6061
113.237 139.606 86.3889
113.602 140.555 85.7158
114.244 140.287 86.685
108.851 142.41 85.2371
114.88 141.389 86.2585
108.495 143.688 84.812
115.283 142.389 86.155
115.075 143.398 84.8414
115.51 143.893 85.4709
108.513 144.814 84.6773
115.808 145.154 84.4312
108.327 146.816 83.0078
108.575 145.836 84.1084
116.161 146.151 83.8353
108.444 148.08 82.7312
108.391 147.44 83.8043
115.907 146.778 83.0306
116.924 147.768 83.531
108.503 149.109 82.0817
109.137 148.96 83.1998
117.32 149.059 83.0883
109.451 150.42 82.6181
117.15 150.378 82.5815
110.061 151.448 82.4131
110.499 152.157 81.3095
111.127 152.624 81.5979
110.793 151.832 82.5367
111.317 152.274 82.6532
117.188 151.897 82.1057
111.433 153.58 80.6749
111.493 153.481 81.9608
117.093 152.858 81.3562
116.776 152.729 82.2817
116.678 153.636 81.4079
111.527 153.84 79.6453
112.349 153.97 81.1249
112.431 154.077 80.0115
113.021 154.544 80.6113
117.038 153.752 80.4851
116.38 154.538 80.5385
113.36 155.058 80.2441
115.741 155.49 79.9606
113.342 155.451 79.6653
114.053 155.683 79.6935
114.979 155.809 79.9177
110.39 134.387 88.0517
109.525 135.217 88.2448
109.948 134.436 89.0558
110.366 133.222 89.1391
111.463 134.178 88.2259
111.652 133.047 89.0501
112.544 134.73 88.5979
112.71 133.958 89.3715
109.829 135.284 87.3036
109.078 136.378 88.0566
111.222 134.902 87.3307
112.441 135.697 87.75
113.251 134.998 89.1281
113.441 136.098 88.5685
114.068 135.498 89.4441
108.864 139.014 86.7762
109.098 137.651 87.5817
113.535 137.59 88.09
114.38 136.462 89.2653
114.372 137.55 88.9617
114.968 137.014 90.001
109.228 140.164 86.905
113.972 139.114 87.4946
114.517 138.991 88.5384
115.178 138.538 89.5162
108.807 141.593 86.8008
115.013 140.38 87.7272
115.517 140.001 88.8083
108.619 142.962 85.9813
115.148 141.645 87.1268
115.934 141.608 87.9724
108.818 144.234 85.8093
115.761 143.032 86.7189
116.014 144.591 85.6307
115.97 144.312 86.646
108.958 145.686 85.4489
116.479 145.789 84.7527
116.7 145.46 85.7778
108.8 146.867 84.8591
116.625 146.771 83.9233
117.157 146.966 84.8405
109.05 148.105 84.352
117.413 148.255 84.4265
109.603 148.969 84.6644
109.844 149.874 83.6707
110.079 149.728 84.7082
117.238 149.644 83.9096
110.159 150.908 83.2773
110.444 150.526 84.0071
116.746 150.818 83.2655
111.01 151.552 83.8531
111.799 152.352 83.2492
116.621 151.911 83.1536
112.117 153.075 82.6843
112.091 153.7 82.0944
112.589 153.753 82.5051
116.246 152.928 83.0082
116.153 153.676 82.1662
113.922 154.741 81.15
113.137 154.362 81.8423
114.913 154.563 81.4323
114.031 154.394 82.3256
115.705 154.278 81.351
115.082 153.989 82.4361
113.937 155.354 80.4209
114.581 155.465 80.6879
115.494 155.134 80.7302
110.952 132.416 90.0487
110.318 133.499 90.2875
110.307 132.972 91.211
111.323 131.955 91.2634
112.498 132.5 89.9327
112.663 131.57 90.7271
113.53 133.053 90.3861
113.721 132.227 91.1406
109.52 135.545 89.26
109.958 134.628 90.1688
113.641 134.266 89.9023
114.332 133.39 91.1264
114.443 134.486 90.8488
115.184 133.979 91.6011
109.499 136.703 89.2898
114.797 135.632 90.1542
115.391 135.704 91.129
109.181 139.031 87.9738
109.575 137.95 88.8926
115.445 137.462 90.7718
109.255 140.544 87.9906
109.463 139.509 89.0188
115.608 139.237 90.1234
109.085 141.815 87.692
109.633 141.293 88.775
115.879 140.883 89.399
108.754 143.053 87.0153
109.36 142.524 88.1238
116.252 142.377 88.8976
108.848 144.604 86.7951
116.143 143.227 87.6497
116.331 144.643 87.2036
109.359 145.429 86.9734
109.277 146.586 86.0367
109.688 146.457 87.1032
116.755 146.157 86.3315
109.236 147.565 85.4904
109.761 147.406 86.6472
116.833 147.467 85.6801
109.612 148.21 85.1248
109.882 148.301 86.0236
116.782 148.839 85.2253
110.658 150.261 85.0383
110.272 149.256 85.9028
111.048 150.129 85.866
116.701 150.121 84.5921
110.889 150.913 84.4803
111.389 151.037 85.0572
116.429 151.196 84.1571
112.675 152.723 83.5471
111.968 151.798 84.2587
113.527 152.981 84.1481
112.916 152.124 84.7595
114.506 152.808 84.2112
113.773 152.352 85.2516
115.241 152.281 84.171
114.864 152.284 85.2746
115.925 152.11 83.8118
115.729 151.676 84.8929
113.37 153.845 83.0631
114.358 153.666 83.3684
115.504 153.296 83.3402
114.259 125.654 94.0694
113.585 127.167 94.3201
113.924 125.613 95.5106
115.315 124.688 95.3623
115.382 126.45 94.1122
116.251 125.357 95.084
116.209 126.703 94.7446
116.627 126.532 95.676
113.741 127.629 93.486
112.81 128.438 94.0194
114.744 127.579 93.6844
115.369 128.039 94.4258
116.173 127.826 95.2368
113.283 129.144 93.0063
112.179 129.781 94.0326
114.344 128.89 93.2601
115.235 129.44 93.904
115.71 129.393 94.8596
112.476 130.244 92.778
111.771 131.364 93.0353
112.053 131.054 93.9212
113.992 130.416 92.3927
114.885 130.373 93.0234
115.384 131.113 94.0157
115.792 130.891 94.8212
112.049 131.112 91.9886
111.399 132.292 92.737
113.524 130.989 91.5757
115.132 131.713 92.3842
115.853 132.108 93.3551
110.43 134.353 91.4171
111.036 133.28 92.3308
114.581 132.44 91.8399
115.689 133.439 92.5303
109.927 136.114 90.2312
110.076 135.474 91.3269
115.736 135.054 92.2068
109.941 137.469 90.2146
115.728 136.597 91.9025
109.917 138.866 90.0383
115.98 138.126 91.4282
109.883 140.324 89.7672
115.894 140 90.7368
109.956 141.813 89.6122
116.057 141.604 90.2031
109.329 143.75 87.7301
109.796 143.041 88.9502
116.272 143.204 89.7063
109.334 144.593 87.5353
109.86 144.463 88.3394
116.291 143.797 88.4616
116.512 145.348 87.7191
110.309 146.975 87.6625
110.1 145.62 87.8512
110.708 146.362 88.483
116.255 146.459 87.2075
110.673 147.847 87.2963
110.966 147.53 88.5196
116.504 147.791 86.5463
110.422 148.682 86.6798
111.246 148.605 87.5194
116.443 148.712 86.2728
115.994 148 86.9453
115.786 148.634 87.0513
111.962 150.546 86.0939
111.222 149.517 86.783
111.959 150.194 87.1679
116.275 149.649 85.7269
115.403 149.693 86.4846
112.271 151.415 85.3711
112.741 150.826 86.7517
113.067 151.547 85.942
114.275 151.353 85.9733
113.718 150.885 86.8947
115.226 150.645 85.6288
114.727 150.503 86.8073
116.147 150.606 85.0259
113.487 127.793 95.1983
113.917 127.007 96.3917
114.902 125.582 96.7782
116.105 125.918 96.4268
116.175 127.318 96.2427
113.013 129.33 94.9506
116.116 128.779 95.8773
112.553 130.869 95.1689
115.953 130.27 95.6577
112.002 132.536 94.2105
112.388 131.886 94.7331
115.623 131.541 95.8792
116.028 132.54 94.761
111.724 133.655 93.7931
116.046 133.456 93.6917
110.958 134.656 92.5516
111.398 134.468 93.4363
115.867 134.681 93.4741
110.266 136.753 91.4174
110.901 135.841 92.5131
116.014 136.146 93.0544
110.302 138.15 91.3041
110.973 137.27 92.4208
116.072 137.562 92.6162
110.159 139.582 91.0063
110.849 138.963 92.0753
116.141 139.063 92.0597
109.96 141.079 90.7491
110.688 140.477 91.7709
115.962 140.603 91.6197
110.332 142.715 90.2241
110.634 141.741 91.2708
115.925 142.136 91.1322
110.552 143.987 89.4149
111.006 142.839 91.023
111.11 143.766 90.4886
111.807 143.441 91.3977
115.808 143.417 90.7693
110.664 145.27 88.9416
111.25 145.008 89.9085
111.905 144.851 91.0632
116.19 144.575 88.9686
115.735 144.616 89.8118
111.438 146.394 89.3513
112.096 146.056 90.2268
116.176 145.731 88.7093
115.418 146.256 89.1163
111.824 148.135 88.5994
112.18 147.406 89.462
116.055 147.166 87.9097
115.382 147.378 88.7316
112.074 149.239 87.8239
112.876 148.26 88.9619
113.212 149.055 88.2107
114.304 148.899 88.0933
113.803 148.263 88.8773
115.333 148.294 87.9353
114.789 148.094 88.9277
112.927 150.276 87.6945
114.023 150.115 87.6981
115.035 149.411 87.4474
113.444 128.557 96.0719
113.889 128.038 97.0855
114.686 127.2 97.3563
115.907 127.15 97.2109
116.063 128.484 96.8998
113.248 130.056 95.9974
115.97 129.673 96.547
113.375 131.071 96.1985
115.896 130.614 96.3928
113.015 132.665 95.6525
113.316 132.007 96.2617
114.249 133.206 96.7998
115.666 132.799 96.1797
114.963 132.202 96.715
115.383 131.202 96.6999
112.774 133.761 95.0658
113.564 133.912 96.2871
114.982 133.957 96.7531
115.666 133.566 95.5879
116.02 134.161 94.657
111.696 135.58 93.5789
112.376 134.965 94.596
115.924 135.769 94.3776
111.762 136.907 93.3871
112.408 136.487 94.5567
115.881 137.226 93.9276
111.638 138.353 93.048
112.413 138.019 94.0579
115.992 138.584 93.3794
111.492 139.885 92.7561
112.385 139.448 93.6288
115.98 139.993 92.8691
111.531 141.309 92.2904
112.338 140.999 93.2317
115.761 141.322 92.4773
111.492 142.371 91.7591
112.252 142.452 92.5632
115.405 142.626 91.9221
112.625 143.74 91.8789
115.107 143.875 91.1096
112.712 144.773 91.6571
112.919 145.859 91.0725
114.229 145.609 91.0604
113.517 145.058 91.7285
115.152 144.955 90.7403
114.317 144.326 91.4211
113.068 146.858 90.0014
113.976 146.41 90.195
115.14 145.837 90.0659
113.181 147.74 89.5632
114.091 147.667 89.8261
114.971 147.125 89.68
113.593 129.274 97.042
114.477 128.656 97.6948
115.404 128.209 97.6067
113.921 130.649 96.8944
114.646 130.057 97.5325
115.56 129.301 97.498
113.868 131.637 96.9835
114.675 131.282 97.5691
115.574 130.502 97.3352
113.558 135.15 95.5324
114.492 135.087 96.3924
115.553 134.538 95.8703
113.24 136.498 95.452
114.567 136.47 96.0216
115.615 135.51 95.4383
113.265 137.938 94.9401
114.549 137.784 95.4689
115.566 136.991 95.0709
113.311 139.221 94.449
114.49 139.017 94.8581
115.586 138.37 94.6628
113.265 140.695 94.1308
114.526 140.391 94.4234
115.575 139.736 94.0265
113.223 142 93.4483
114.368 141.565 93.8053
115.48 140.954 93.6488
113.147 143.331 92.7092
114.165 142.864 93.152
115.027 142.143 92.8927
113.136 144.213 92.0424
113.789 143.845 92.2614
114.585 143.227 92.1021
POLYGONS 1936  7744
3 0 1 2
3 0 3 4
3 2 3 0
3 4 5 6
3 3 5 4
3 5 7 6
3 8 1 0
3 9 1 8
3 4 10 0
3 10 8 0
3 6 11 4
3 11 10 4
3 12 6 7
3 11 6 12
3 8 13 9
3 10 13 8
3 14 13 10
3 11 14 10
3 15 14 11
3 12 15 11
3 16 17 18
3 16 19 20
3 18 19 16
3 20 21 22
3 19 21 20
3 21 23 22
3 24 17 16
3 25 17 24
3 20 26 16
3 26 24 16
3 22 27 20
3 27 26 20
3 28 22 23
3 28 29 22
3 29 27 22
3 28 30 29
3 31 25 24
3 32 25 31
3 26 33 24
3 33 31 24
3 27 34 26
3 34 33 26
3 29 35 27
3 35 34 27
3 36 29 30
3 35 29 36
3 31 37 32
3 37 38 39
3 37 31 38
3 31 33 38
3 34 40 33
3 40 38 33
3 35 41 34
3 41 40 34
3 42 35 36
3 41 35 42
3 38 43 39
3 40 43 38
3 44 43 40
3 44 45 46
3 44 40 45
3 40 41 45
3 47 41 42
3 47 48 41
3 48 45 41
3 48 49 50
3 47 49 48
3 49 51 50
3 52 46 45
3 53 46 52
3 48 54 45
3 54 52 45
3 50 55 48
3 55 54 48
3 56 50 51
3 55 50 56
3 57 58 59
3 53 57 59
3 52 57 53
3 52 1 57
3 52 2 1
3 3 2 52
3 54 3 52
3 5 3 54
3 55 5 54
3 55 7 5
3 55 56 7
3 56 60 7
3 61 58 57
3 62 58 61
3 1 9 61
3 57 1 61
3 7 60 12
3 60 63 12
3 61 64 62
3 9 64 61
3 9 13 64
3 13 65 64
3 14 66 13
3 13 66 65
3 15 67 14
3 14 67 66
3 63 15 12
3 67 15 63
3 68 69 70
3 68 71 72
3 70 71 68
3 71 73 72
3 74 69 68
3 75 69 74
3 18 17 74
3 18 74 72
3 72 74 68
3 72 73 76
3 72 76 18
3 18 76 19
3 21 19 77
3 19 76 77
3 77 23 21
3 78 23 77
3 79 75 74
3 80 75 79
3 17 25 79
3 74 17 79
3 23 78 81
3 28 23 81
3 81 30 28
3 82 30 81
3 83 80 79
3 84 80 83
3 25 32 83
3 79 25 83
3 85 86 36
3 85 36 82
3 82 36 30
3 85 87 86
3 83 88 84
3 89 90 88
3 37 89 88
3 37 88 83
3 37 83 32
3 37 39 89
3 86 91 42
3 36 86 42
3 92 86 87
3 91 86 92
3 89 93 90
3 94 95 93
3 43 94 93
3 43 93 89
3 43 89 39
3 43 44 96
3 94 43 96
3 44 46 96
3 42 91 47
3 91 92 97
3 91 97 47
3 47 97 49
3 97 51 49
3 98 51 97
3 99 95 94
3 100 95 99
3 96 101 94
3 101 99 94
3 46 53 101
3 96 46 101
3 51 98 56
3 98 102 56
3 99 103 100
3 59 58 104
3 59 104 99
3 59 99 101
3 99 104 103
3 53 59 101
3 56 102 60
3 102 105 60
3 58 62 104
3 104 62 106
3 60 105 63
3 105 107 63
3 62 108 106
3 64 108 62
3 109 110 108
3 109 108 65
3 65 108 64
3 65 66 111
3 109 65 111
3 66 67 112
3 111 66 112
3 67 113 112
3 67 63 113
3 63 107 113
3 109 114 110
3 111 114 109
3 115 114 111
3 112 115 111
3 116 115 112
3 113 116 112
3 70 117 118
3 69 117 70
3 71 70 119
3 70 118 119
3 73 120 121
3 73 71 120
3 71 119 120
3 120 122 121
3 69 75 117
3 117 75 123
3 73 121 76
3 121 122 124
3 121 124 76
3 76 124 77
3 124 78 77
3 125 78 124
3 75 80 123
3 123 80 126
3 78 125 127
3 81 78 127
3 127 82 81
3 128 82 127
3 80 84 126
3 126 84 129
3 82 128 130
3 85 82 130
3 130 87 85
3 131 87 130
3 132 84 88
3 132 133 84
3 133 129 84
3 88 90 132
3 87 131 92
3 131 134 92
3 135 133 132
3 136 133 135
3 90 93 137
3 90 137 132
3 132 137 135
3 93 95 137
3 92 134 138
3 97 92 138
3 138 98 97
3 139 98 138
3 135 140 136
3 140 141 142
3 140 135 141
3 135 137 141
3 95 100 141
3 137 95 141
3 98 139 102
3 139 143 102
3 141 144 142
3 145 146 144
3 103 145 144
3 103 144 141
3 103 141 100
3 103 104 145
3 147 148 105
3 147 105 143
3 143 105 102
3 147 149 148
3 150 146 145
3 151 146 150
3 104 106 150
3 145 104 150
3 148 152 107
3 105 148 107
3 153 148 149
3 152 148 153
3 150 154 151
3 106 154 150
3 106 108 154
3 108 155 154
3 155 108 110
3 156 155 110
3 152 157 113
3 107 152 113
3 158 152 153
3 157 152 158
3 110 159 156
3 114 159 110
3 115 160 114
3 114 160 159
3 116 161 115
3 115 161 160
3 157 116 113
3 157 162 116
3 162 161 116
3 158 162 157
3 163 164 165
3 163 166 167
3 165 166 163
3 167 168 169
3 166 168 167
3 168 170 169
3 118 164 163
3 118 117 164
3 117 171 164
3 119 118 163
3 167 119 163
3 120 119 167
3 169 120 167
3 169 122 120
3 169 170 122
3 170 172 122
3 117 123 171
3 171 123 173
3 122 172 174
3 124 122 174
3 174 125 124
3 175 125 174
3 123 126 173
3 173 126 176
3 125 175 177
3 127 125 177
3 177 128 127
3 178 128 177
3 126 129 176
3 176 129 179
3 128 178 180
3 130 128 180
3 180 131 130
3 181 131 180
3 129 133 179
3 179 133 182
3 131 181 134
3 181 183 134
3 133 136 182
3 182 136 184
3 134 183 185
3 138 134 185
3 185 139 138
3 186 139 185
3 187 136 140
3 187 188 136
3 188 184 136
3 140 142 187
3 189 190 143
3 189 143 186
3 186 143 139
3 189 191 190
3 187 192 188
3 193 194 192
3 144 193 192
3 144 192 187
3 144 187 142
3 144 146 193
3 143 190 147
3 190 149 147
3 190 191 149
3 191 195 149
3 196 194 193
3 197 194 196
3 146 151 196
3 193 146 196
3 149 195 153
3 195 198 153
3 196 199 197
3 151 199 196
3 151 154 199
3 154 200 199
3 201 202 200
3 201 200 155
3 155 200 154
3 155 156 201
3 153 198 158
3 198 203 158
3 201 204 202
3 156 204 201
3 156 159 204
3 159 205 204
3 160 206 159
3 159 206 205
3 161 207 160
3 160 207 206
3 162 208 161
3 161 208 207
3 203 162 158
3 208 162 203
3 165 209 210
3 164 209 165
3 166 165 211
3 165 210 211
3 168 166 212
3 166 211 212
3 212 170 168
3 213 170 212
3 164 171 209
3 209 171 214
3 170 213 172
3 213 215 172
3 171 173 214
3 214 173 216
3 172 215 217
3 174 172 217
3 217 175 174
3 218 175 217
3 173 176 216
3 216 176 219
3 175 218 220
3 177 175 220
3 220 178 177
3 221 178 220
3 176 179 219
3 219 179 222
3 178 221 223
3 180 178 223
3 223 181 180
3 224 181 223
3 179 182 222
3 222 182 225
3 181 224 183
3 224 226 183
3 182 184 225
3 225 184 227
3 183 226 228
3 185 183 228
3 228 186 185
3 229 186 228
3 184 188 227
3 227 188 230
3 186 229 231
3 189 186 231
3 231 191 189
3 232 191 231
3 188 233 230
3 192 233 188
3 233 192 194
3 234 233 194
3 191 232 195
3 232 235 195
3 194 197 234
3 234 197 236
3 195 235 198
3 235 237 198
3 197 238 236
3 199 238 197
3 200 239 199
3 199 239 238
3 239 200 202
3 240 239 202
3 198 237 203
3 237 241 203
3 202 242 240
3 204 242 202
3 205 243 204
3 204 243 242
3 206 244 205
3 205 244 243
3 207 245 206
3 206 245 244
3 208 246 207
3 207 246 245
3 241 208 203
3 246 208 241
3 247 248 249
3 247 250 251
3 249 250 247
3 251 252 253
3 250 252 251
3 252 254 253
3 210 248 247
3 210 209 248
3 209 255 248
3 211 210 247
3 251 211 247
3 212 211 251
3 253 212 251
3 253 213 212
3 253 254 213
3 254 256 213
3 209 214 255
3 255 214 257
3 213 256 215
3 256 258 215
3 214 216 257
3 257 216 259
3 215 258 260
3 217 215 260
3 260 218 217
3 261 218 260
3 216 219 259
3 259 219 262
3 218 261 263
3 220 218 263
3 263 221 220
3 264 221 263
3 219 222 262
3 262 222 265
3 221 264 266
3 223 221 266
3 266 224 223
3 267 224 266
3 222 225 265
3 265 225 268
3 224 267 226
3 267 269 226
3 225 227 268
3 268 227 270
3 226 269 271
3 228 226 271
3 271 229 228
3 272 229 271
3 227 230 270
3 270 230 273
3 274 231 229
3 274 229 275
3 275 229 272
3 231 274 232
3 230 276 273
3 233 276 230
3 276 233 234
3 277 276 234
3 274 275 278
3 278 232 274
3 278 279 232
3 279 235 232
3 234 236 277
3 277 236 280
3 235 279 237
3 279 281 237
3 236 282 280
3 238 282 236
3 239 283 238
3 238 283 282
3 283 239 240
3 284 283 240
3 237 281 241
3 281 285 241
3 240 286 284
3 242 286 240
3 243 287 242
3 242 287 286
3 244 288 243
3 243 288 287
3 245 289 244
3 244 289 288
3 246 290 245
3 245 290 289
3 285 246 241
3 290 246 285
3 249 291 292
3 248 291 249
3 250 249 293
3 249 292 293
3 252 250 294
3 250 293 294
3 294 254 252
3 295 254 294
3 248 255 291
3 291 255 296
3 297 298 256
3 297 256 295
3 295 256 254
3 297 299 298
3 255 257 296
3 296 257 300
3 298 301 258
3 256 298 258
3 302 298 299
3 301 298 302
3 257 259 300
3 300 259 303
3 258 301 260
3 261 304 305
3 260 304 261
3 260 302 304
3 260 301 302
3 304 306 305
3 259 262 303
3 303 262 307
3 261 305 263
3 305 264 263
3 305 306 264
3 306 308 264
3 262 265 307
3 307 265 309
3 264 308 310
3 266 264 310
3 310 267 266
3 311 267 310
3 265 268 309
3 309 268 312
3 313 314 269
3 313 269 311
3 311 269 267
3 313 315 314
3 268 270 312
3 312 270 316
3 269 314 271
3 314 272 271
3 314 315 272
3 315 317 272
3 270 273 316
3 316 273 318
3 272 317 275
3 317 319 275
3 273 320 318
3 276 320 273
3 320 276 277
3 321 320 277
3 275 319 322
3 278 275 322
3 322 279 278
3 323 279 322
3 277 280 321
3 321 280 324
3 279 323 281
3 323 325 281
3 280 326 324
3 282 326 280
3 283 327 282
3 282 327 326
3 327 283 284
3 328 327 284
3 281 325 285
3 325 329 285
3 284 330 328
3 286 330 284
3 287 331 286
3 286 331 330
3 288 332 287
3 287 332 331
3 289 333 288
3 288 333 332
3 290 334 289
3 289 334 333
3 329 290 285
3 334 290 329
3 335 336 337
3 335 338 339
3 337 338 335
3 338 340 339
3 292 291 341
3 335 342 336
3 335 292 342
3 335 293 292
3 341 342 292
3 294 293 335
3 339 294 335
3 295 343 344
3 294 343 295
3 294 340 343
3 294 339 340
3 343 345 344
3 341 346 347
3 341 291 346
3 291 296 346
3 342 341 347
3 295 344 297
3 344 299 297
3 344 345 299
3 345 348 299
3 296 300 346
3 346 300 349
3 299 348 302
3 348 350 302
3 300 303 349
3 349 303 351
3 302 350 352
3 304 302 352
3 352 306 304
3 353 306 352
3 303 307 351
3 351 307 354
3 355 356 308
3 355 308 353
3 353 308 306
3 355 357 356
3 307 309 354
3 354 309 358
3 308 356 310
3 311 359 360
3 310 359 311
3 310 357 359
3 310 356 357
3 359 361 360
3 309 312 358
3 358 312 362
3 311 360 313
3 360 315 313
3 360 361 315
3 361 363 315
3 312 316 362
3 362 316 364
3 315 363 317
3 363 365 317
3 316 318 364
3 364 318 366
3 317 365 319
3 365 367 319
3 318 368 366
3 320 368 318
3 368 320 321
3 369 368 321
3 370 322 319
3 370 319 371
3 371 319 367
3 322 370 323
3 372 324 373
3 372 369 324
3 369 321 324
3 372 373 374
3 375 370 371
3 376 375 371
3 323 375 325
3 370 375 323
3 324 326 373
3 373 377 374
3 373 326 377
3 326 327 377
3 328 378 379
3 328 379 327
3 327 379 377
3 378 380 381
3 379 378 381
3 380 382 383
3 381 380 383
3 382 384 385
3 383 382 385
3 376 385 384
3 376 384 375
3 375 384 386
3 325 386 329
3 375 386 325
3 328 330 378
3 331 378 330
3 380 378 331
3 332 380 331
3 382 380 332
3 333 382 332
3 384 382 333
3 334 384 333
3 386 384 334
3 329 386 334
3 387 388 389
3 387 390 391
3 389 390 387
3 390 392 391
3 337 388 387
3 337 336 388
3 336 393 388
3 338 337 387
3 391 338 387
3 340 394 395
3 338 394 340
3 338 392 394
3 338 391 392
3 394 396 395
3 336 342 393
3 393 342 397
3 340 395 343
3 395 345 343
3 395 396 345
3 396 398 345
3 347 399 400
3 346 399 347
3 397 342 347
3 400 397 347
3 401 402 348
3 401 348 398
3 398 348 345
3 401 403 402
3 346 349 399
3 399 349 404
3 402 405 350
3 348 402 350
3 406 402 403
3 405 402 406
3 349 351 404
3 404 351 407
3 350 405 352
3 353 408 409
3 352 408 353
3 352 406 408
3 352 405 406
3 408 410 409
3 351 354 407
3 407 354 411
3 353 409 355
3 357 412 413
3 355 412 357
3 355 410 412
3 355 409 410
3 412 414 413
3 354 358 411
3 411 358 415
3 357 413 359
3 413 361 359
3 413 414 361
3 414 416 361
3 358 362 415
3 415 362 417
3 361 416 363
3 416 418 363
3 362 364 417
3 417 364 419
3 420 421 365
3 420 365 418
3 418 365 363
3 420 422 421
3 423 366 424
3 423 419 366
3 419 364 366
3 423 424 425
3 421 426 367
3 365 421 367
3 427 421 422
3 426 421 427
3 366 368 424
3 369 428 429
3 368 369 429
3 368 429 425
3 368 425 424
3 429 428 430
3 426 431 371
3 367 426 371
3 432 426 427
3 431 426 432
3 369 372 428
3 374 433 434
3 372 374 434
3 372 434 430
3 372 430 428
3 434 433 435
3 431 436 437
3 431 437 371
3 371 437 376
3 432 436 431
3 374 377 433
3 433 438 435
3 433 377 438
3 377 379 438
3 381 439 379
3 379 439 438
3 383 440 381
3 381 440 439
3 385 441 383
3 383 441 440
3 437 385 376
3 441 385 437
3 442 443 444
3 442 445 446
3 444 445 442
3 446 447 448
3 445 447 446
3 447 449 448
3 389 443 442
3 389 388 443
3 388 450 443
3 390 389 442
3 446 390 442
3 392 390 446
3 392 446 451
3 451 446 448
3 452 448 449
3 451 448 452
3 388 393 450
3 450 393 453
3 392 451 394
3 396 454 455
3 394 454 396
3 394 452 454
3 394 451 452
3 454 456 455
3 393 397 453
3 453 397 457
3 455 458 398
3 396 455 398
3 459 455 456
3 458 455 459
3 400 460 461
3 399 460 400
3 457 397 400
3 461 457 400
3 398 458 401
3 403 462 463
3 401 462 403
3 401 459 462
3 401 458 459
3 462 464 463
3 399 404 460
3 460 404 465
3 463 466 406
3 403 463 406
3 467 463 464
3 466 463 467
3 404 407 465
3 465 407 468
3 406 466 408
3 410 469 470
3 408 469 410
3 408 467 469
3 408 466 467
3 469 471 470
3 407 411 468
3 468 411 472
3 410 470 412
3 470 414 412
3 470 471 414
3 471 473 414
3 411 415 472
3 472 415 474
3 475 476 416
3 475 416 473
3 473 416 414
3 475 477 476
3 478 417 479
3 478 474 417
3 474 415 417
3 478 479 480
3 476 481 418
3 416 476 418
3 482 476 477
3 481 476 482
3 479 419 483
3 417 419 479
3 484 480 479
3 483 484 479
3 418 481 420
3 481 422 420
3 481 482 422
3 482 485 422
3 419 423 483
3 483 423 425
3 483 425 484
3 484 425 486
3 422 485 427
3 485 487 427
3 425 488 486
3 429 488 425
3 488 429 430
3 489 488 430
3 427 487 432
3 487 490 432
3 430 491 489
3 434 491 430
3 435 492 493
3 435 493 434
3 434 493 491
3 493 492 494
3 436 495 496
3 437 436 496
3 490 436 432
3 495 436 490
3 435 438 492
3 492 497 494
3 492 438 497
3 438 439 497
3 440 498 439
3 439 498 497
3 441 499 440
3 440 499 498
3 496 441 437
3 499 441 496
3 444 500 501
3 443 500 444
3 445 444 502
3 444 501 502
3 447 445 503
3 445 502 503
3 503 449 447
3 504 449 503
3 443 450 500
3 500 450 505
3 506 507 452
3 506 452 504
3 504 452 449
3 506 508 507
3 450 453 505
3 505 453 509
3 452 507 454
3 456 510 511
3 454 510 456
3 454 508 510
3 454 507 508
3 510 512 511
3 453 457 509
3 509 457 513
3 511 514 459
3 456 511 459
3 515 511 512
3 514 511 515
3 461 460 516
3 461 516 517
3 461 517 457
3 457 517 513
3 459 514 462
3 464 518 519
3 462 518 464
3 462 515 518
3 462 514 515
3 518 520 519
3 516 521 522
3 516 460 521
3 460 465 521
3 517 516 522
3 519 523 467
3 464 519 467
3 524 519 520
3 523 519 524
3 465 468 521
3 521 468 525
3 467 523 469
3 471 526 527
3 469 526 471
3 469 524 526
3 469 523 524
3 526 528 527
3 468 472 525
3 525 472 529
3 527 530 473
3 471 527 473
3 531 527 528
3 530 527 531
3 532 474 533
3 532 529 474
3 529 472 474
3 532 533 534
3 473 530 475
3 530 477 475
3 530 531 477
3 531 535 477
3 474 478 533
3 533 478 480
3 533 480 534
3 534 480 536
3 477 535 482
3 535 537 482
3 538 484 539
3 538 536 484
3 536 480 484
3 538 539 540
3 482 537 485
3 537 541 485
3 539 486 542
3 484 486 539
3 543 540 539
3 542 543 539
3 485 541 487
3 541 544 487
3 486 488 542
3 489 545 546
3 488 489 546
3 488 546 543
3 488 543 542
3 545 547 548
3 546 545 548
3 548 547 549
3 550 551 552
3 550 544 551
3 550 490 544
3 490 487 544
3 489 491 545
3 493 545 491
3 547 545 493
3 494 553 554
3 493 494 554
3 493 554 549
3 493 549 547
3 553 555 556
3 554 553 556
3 555 557 558
3 556 555 558
3 552 558 557
3 550 552 557
3 550 557 496
3 550 496 495
3 490 550 495
3 494 497 553
3 498 553 497
3 555 553 498
3 499 555 498
3 557 555 499
3 496 557 499
3 559 560 561
3 559 562 563
3 561 562 559
3 563 564 565
3 562 564 563
3 565 566 567
3 564 566 565
3 566 568 567
3 501 560 559
3 501 500 560
3 500 569 560
3 502 501 559
3 563 502 559
3 503 502 563
3 565 503 563
3 504 503 565
3 504 565 570
3 570 565 567
3 571 567 568
3 570 567 571
3 500 505 569
3 569 505 572
3 504 570 506
3 508 573 574
3 506 573 508
3 506 571 573
3 506 570 571
3 573 575 574
3 505 509 572
3 572 509 576
3 508 574 510
3 574 512 510
3 574 575 512
3 575 577 512
3 509 513 576
3 576 513 578
3 579 580 515
3 579 515 577
3 577 515 512
3 579 581 580
3 513 517 578
3 578 517 582
3 515 580 518
3 580 520 518
3 580 581 520
3 581 583 520
3 522 521 584
3 522 584 585
3 522 585 517
3 517 585 582
3 520 583 524
3 583 586 524
3 584 525 587
3 521 525 584
3 588 585 584
3 587 588 584
3 524 586 589
3 526 524 589
3 589 528 526
3 590 528 589
3 587 529 591
3 525 529 587
3 592 588 587
3 591 592 587
3 528 590 531
3 590 593 531
3 529 532 591
3 591 532 534
3 591 534 592
3 592 534 594
3 531 593 535
3 593 595 535
3 596 536 597
3 596 594 536
3 594 534 536
3 597 598 599
3 596 597 599
3 599 598 600
3 535 595 537
3 595 601 537
3 536 538 597
3 540 597 538
3 540 602 597
3 602 598 597
3 603 600 598
3 602 603 598
3 604 605 606
3 604 601 605
3 604 541 601
3 541 537 601
3 602 543 607
3 540 543 602
3 608 603 602
3 608 602 609
3 609 602 607
3 608 609 610
3 611 604 606
3 612 611 606
3 541 611 544
3 604 611 541
3 543 546 607
3 548 607 546
3 609 607 548
3 609 548 549
3 609 549 610
3 610 549 613
3 551 611 612
3 551 612 552
3 552 612 614
3 544 611 551
3 549 615 613
3 554 615 549
3 556 616 554
3 554 616 615
3 558 617 556
3 556 617 616
3 614 558 552
3 617 558 614
3 618 619 620
3 618 621 622
3 620 621 618
3 622 623 624
3 621 623 622
3 623 625 624
3 626 619 618
3 627 619 626
3 622 628 618
3 628 626 618
3 624 629 622
3 629 628 622
3 630 624 625
3 630 631 624
3 631 629 624
3 630 632 631
3 561 633 634
3 560 633 561
3 627 626 562
3 627 562 634
3 634 562 561
3 564 562 626
3 628 564 626
3 566 564 628
3 629 566 628
3 568 566 629
3 568 629 635
3 635 629 631
3 636 631 632
3 636 637 631
3 637 635 631
3 636 638 637
3 560 569 633
3 633 569 639
3 635 640 571
3 568 635 571
3 637 641 635
3 641 640 635
3 642 637 638
3 641 637 642
3 569 572 639
3 639 572 643
3 571 640 573
3 575 573 640
3 575 640 644
3 644 640 641
3 645 641 642
3 644 641 645
3 572 576 643
3 643 576 646
3 644 647 577
3 575 644 577
3 648 644 645
3 647 644 648
3 576 578 646
3 646 578 649
3 577 647 579
3 581 650 651
3 579 650 581
3 579 648 650
3 579 647 648
3 650 652 651
3 578 582 649
3 649 582 653
3 651 654 583
3 581 651 583
3 655 651 652
3 654 651 655
3 582 585 653
3 653 585 656
3 654 657 586
3 583 654 586
3 658 654 655
3 657 654 658
3 585 588 656
3 656 588 659
3 586 657 589
3 657 590 589
3 657 658 590
3 658 660 590
3 661 592 662
3 661 659 592
3 659 588 592
3 661 662 663
3 590 660 593
3 660 664 593
3 662 594 665
3 592 594 662
3 666 663 662
3 665 666 662
3 593 664 595
3 664 667 595
3 594 596 665
3 665 668 666
3 665 596 668
3 596 599 668
3 668 599 600
3 669 668 600
3 595 667 601
3 667 670 601
3 671 603 672
3 671 669 603
3 669 600 603
3 671 672 673
3 605 674 675
3 606 605 675
3 670 605 601
3 674 605 670
3 603 608 672
3 610 676 677
3 608 610 677
3 608 677 673
3 608 673 672
3 676 678 679
3 677 676 679
3 678 680 681
3 679 678 681
3 680 675 681
3 680 612 675
3 612 606 675
3 676 613 682
3 610 613 676
3 678 676 683
3 683 676 682
3 680 678 684
3 684 678 683
3 612 684 614
3 680 684 612
3 613 615 682
3 616 682 615
3 683 682 616
3 617 683 616
3 684 683 617
3 614 684 617
3 685 686 687
3 685 688 689
3 687 688 685
3 689 690 691
3 688 690 689
3 690 692 691
3 620 693 694
3 619 693 620
3 686 685 621
3 686 621 694
3 694 621 620
3 623 621 685
3 689 623 685
3 625 623 689
3 625 689 695
3 695 689 691
3 696 691 692
3 696 697 691
3 697 695 691
3 696 698 697
3 619 627 693
3 693 627 699
3 625 695 630
3 632 630 695
3 632 695 700
3 700 695 697
3 701 697 698
3 700 697 701
3 634 633 702
3 634 702 703
3 634 703 627
3 627 703 699
3 632 700 636
3 700 638 636
3 700 701 638
3 701 704 638
3 702 639 705
3 633 639 702
3 706 703 702
3 705 706 702
3 638 704 642
3 704 707 642
3 705 643 708
3 639 643 705
3 709 706 705
3 708 709 705
3 642 707 645
3 707 710 645
3 708 711 712
3 708 643 711
3 643 646 711
3 709 708 712
3 645 710 648
3 710 713 648
3 646 649 711
3 711 649 714
3 648 713 715
3 650 648 715
3 715 652 650
3 716 652 715
3 717 653 718
3 717 714 653
3 714 649 653
3 717 718 719
3 652 716 655
3 716 720 655
3 718 656 721
3 653 656 718
3 722 719 718
3 721 722 718
3 655 720 658
3 720 723 658
3 721 659 724
3 656 659 721
3 725 722 721
3 724 725 721
3 658 723 660
3 723 726 660
3 659 661 724
3 663 727 728
3 661 663 728
3 661 728 725
3 661 725 724
3 728 727 729
3 660 726 664
3 726 730 664
3 727 666 731
3 663 666 727
3 732 729 727
3 731 732 727
3 664 730 667
3 730 733 667
3 666 668 731
3 669 734 735
3 668 669 735
3 668 735 732
3 668 732 731
3 734 736 737
3 735 734 737
3 736 738 739
3 737 736 739
3 738 740 741
3 739 738 741
3 740 742 743
3 741 740 743
3 742 733 743
3 742 670 733
3 670 667 733
3 669 671 734
3 673 734 671
3 673 744 734
3 744 736 734
3 738 736 745
3 745 736 744
3 740 738 746
3 746 738 745
3 674 746 675
3 674 742 746
3 742 740 746
3 670 742 674
3 673 677 744
3 679 744 677
3 745 744 679
3 681 745 679
3 746 745 681
3 675 746 681
3 747 748 749
3 747 750 751
3 749 750 747
3 751 752 753
3 750 752 751
3 752 754 753
3 755 748 747
3 756 748 755
3 751 757 747
3 757 755 747
3 753 758 751
3 758 757 751
3 759 753 754
3 758 753 759
3 760 756 755
3 761 756 760
3 757 762 755
3 762 760 755
3 758 763 757
3 763 762 757
3 764 758 759
3 763 758 764
3 765 766 767
3 761 765 767
3 761 760 765
3 760 768 765
3 762 769 760
3 769 768 760
3 770 763 771
3 770 769 763
3 769 762 763
3 764 771 763
3 772 766 765
3 773 766 772
3 768 774 765
3 774 772 765
3 769 775 768
3 775 774 768
3 776 769 770
3 775 769 776
3 687 777 778
3 686 777 687
3 773 772 688
3 773 688 778
3 778 688 687
3 690 688 772
3 774 690 772
3 692 690 774
3 692 774 779
3 779 774 775
3 780 775 776
3 779 775 780
3 694 781 782
3 693 781 694
3 777 686 694
3 782 777 694
3 692 779 696
3 779 698 696
3 779 780 698
3 780 783 698
3 693 699 781
3 781 699 784
3 698 783 701
3 783 785 701
3 699 703 784
3 784 703 786
3 701 785 704
3 785 787 704
3 703 706 786
3 786 706 788
3 704 787 707
3 787 789 707
3 706 709 788
3 788 709 790
3 707 789 710
3 789 791 710
3 712 711 792
3 712 792 793
3 712 793 709
3 709 793 790
3 710 791 713
3 791 794 713
3 792 714 795
3 711 714 792
3 796 793 792
3 795 796 792
3 713 794 797
3 715 713 797
3 797 716 715
3 798 716 797
3 714 717 795
3 719 799 800
3 717 719 800
3 717 800 796
3 717 796 795
3 800 799 801
3 716 798 720
3 798 802 720
3 799 722 803
3 719 722 799
3 804 801 799
3 803 804 799
3 720 802 723
3 802 805 723
3 803 725 806
3 722 725 803
3 807 804 803
3 806 807 803
3 808 809 810
3 808 805 809
3 808 726 805
3 726 723 805
3 725 728 806
3 729 811 812
3 728 729 812
3 728 812 807
3 728 807 806
3 812 811 813
3 814 808 810
3 815 814 810
3 726 814 730
3 808 814 726
3 811 732 816
3 729 732 811
3 817 813 811
3 817 811 818
3 818 811 816
3 818 819 820
3 817 818 820
3 819 821 822
3 820 819 822
3 815 822 821
3 815 821 814
3 814 821 823
3 730 823 733
3 814 823 730
3 732 735 816
3 737 816 735
3 818 816 737
3 739 818 737
3 819 818 739
3 741 819 739
3 821 819 741
3 743 821 741
3 823 821 743
3 733 823 743
3 749 824 825
3 748 824 749
3 750 749 826
3 749 825 826
3 752 750 827
3 750 826 827
3 827 754 752
3 828 754 827
3 748 756 824
3 824 756 829
3 754 828 759
3 828 830 759
3 756 761 829
3 829 761 831
3 759 830 764
3 830 832 764
3 767 833 834
3 766 833 767
3 831 761 767
3 834 831 767
3 771 835 836
3 770 771 836
3 832 771 764
3 835 771 832
3 766 773 833
3 833 773 837
3 770 836 776
3 836 838 776
3 778 839 840
3 777 839 778
3 837 773 778
3 840 837 778
3 776 838 780
3 838 841 780
3 782 781 842
3 782 842 843
3 782 843 777
3 777 843 839
3 780 841 783
3 841 844 783
3 842 784 845
3 781 784 842
3 846 843 842
3 845 846 842
3 783 844 785
3 844 847 785
3 845 786 848
3 784 786 845
3 849 846 845
3 848 849 845
3 785 847 787
3 847 850 787
3 848 788 851
3 786 788 848
3 852 849 848
3 851 852 848
3 787 850 789
3 850 853 789
3 851 790 854
3 788 790 851
3 855 852 851
3 854 855 851
3 789 853 791
3 853 856 791
3 854 793 857
3 790 793 854
3 858 855 854
3 858 854 859
3 859 854 857
3 858 859 860
3 791 856 794
3 856 861 794
3 857 796 862
3 793 796 857
3 859 857 863
3 863 857 862
3 864 860 859
3 863 864 859
3 865 797 794
3 865 794 866
3 866 794 861
3 797 865 798
3 796 800 862
3 801 862 800
3 801 867 862
3 867 863 862
3 868 864 863
3 867 868 863
3 869 865 866
3 870 869 866
3 798 869 802
3 865 869 798
3 867 804 871
3 801 804 867
3 872 868 867
3 871 872 867
3 873 869 870
3 874 873 870
3 802 873 805
3 869 873 802
3 871 807 875
3 804 807 871
3 876 872 871
3 876 871 877
3 877 871 875
3 877 878 879
3 876 877 879
3 878 880 881
3 879 878 881
3 874 881 880
3 873 874 880
3 873 880 810
3 873 810 809
3 805 873 809
3 807 812 875
3 813 875 812
3 813 882 875
3 882 877 875
3 878 877 883
3 883 877 882
3 880 878 884
3 884 878 883
3 810 884 815
3 880 884 810
3 813 817 882
3 820 882 817
3 883 882 820
3 822 883 820
3 884 883 822
3 815 884 822
3 825 885 886
3 824 885 825
3 826 825 887
3 825 886 887
3 827 826 888
3 826 887 888
3 888 828 827
3 889 828 888
3 824 829 885
3 885 829 890
3 828 889 830
3 889 891 830
3 829 831 890
3 890 831 892
3 830 891 832
3 891 893 832
3 834 833 894
3 895 892 831
3 895 831 894
3 895 894 896
3 894 831 834
3 896 897 898
3 895 896 898
3 897 836 835
3 897 835 898
3 898 835 899
3 893 835 832
3 899 835 893
3 894 900 901
3 894 833 900
3 833 837 900
3 896 894 901
3 902 896 901
3 897 896 902
3 903 897 902
3 903 836 897
3 903 904 836
3 904 838 836
3 840 839 905
3 840 905 906
3 840 906 837
3 837 906 900
3 838 904 841
3 904 907 841
3 905 843 908
3 839 843 905
3 909 906 905
3 908 909 905
3 841 907 844
3 907 910 844
3 908 846 911
3 843 846 908
3 912 909 908
3 911 912 908
3 844 910 847
3 910 913 847
3 911 849 914
3 846 849 911
3 915 912 911
3 914 915 911
3 847 913 850
3 913 916 850
3 914 852 917
3 849 852 914
3 918 915 914
3 917 918 914
3 850 916 853
3 916 919 853
3 917 855 920
3 852 855 917
3 921 918 917
3 920 921 917
3 853 919 856
3 919 922 856
3 855 858 920
3 920 858 860
3 920 860 921
3 921 860 923
3 856 922 861
3 922 924 861
3 925 864 926
3 925 923 864
3 923 860 864
3 926 927 928
3 925 926 928
3 927 929 930
3 928 927 930
3 929 924 930
3 929 866 924
3 866 861 924
3 926 868 931
3 864 868 926
3 927 926 932
3 932 926 931
3 929 927 933
3 933 927 932
3 866 933 870
3 929 933 866
3 931 872 934
3 868 872 931
3 932 931 935
3 935 931 934
3 933 932 936
3 936 932 935
3 870 936 874
3 933 936 870
3 872 876 934
3 879 934 876
3 935 934 879
3 881 935 879
3 936 935 881
3 874 936 881
3 886 885 937
3 886 938 887
3 937 938 886
3 887 939 888
3 938 939 887
3 888 939 889
3 937 890 940
3 885 890 937
3 938 937 941
3 941 937 940
3 939 938 942
3 942 938 941
3 889 942 891
3 939 942 889
3 940 892 943
3 890 892 940
3 941 940 944
3 944 940 943
3 942 941 945
3 945 941 944
3 891 945 893
3 942 945 891
3 892 895 943
3 898 943 895
3 944 943 898
3 899 944 898
3 945 944 899
3 893 945 899
3 901 900 946
3 901 947 902
3 946 947 901
3 902 948 903
3 947 948 902
3 903 948 904
3 946 906 949
3 900 906 946
3 947 946 950
3 950 946 949
3 948 947 951
3 951 947 950
3 904 951 907
3 948 951 904
3 949 909 952
3 906 909 949
3 950 949 953
3 953 949 952
3 951 950 954
3 954 950 953
3 907 954 910
3 951 954 907
3 952 912 955
3 909 912 952
3 953 952 956
3 956 952 955
3 954 953 957
3 957 953 956
3 910 957 913
3 954 957 910
3 955 915 958
3 912 915 955
3 956 955 959
3 959 955 958
3 957 956 960
3 960 956 959
3 913 960 916
3 957 960 913
3 958 918 961
3 915 918 958
3 959 958 962
3 962 958 961
3 960 959 963
3 963 959 962
3 916 963 919
3 960 963 916
3 961 921 964
3 918 921 961
3 962 961 965
3 965 961 964
3 963 962 966
3 966 962 965
3 919 966 922
3 963 966 919
3 964 923 967
3 921 923 964
3 965 964 968
3 968 964 967
3 966 965 969
3 969 965 968
3 922 969 924
3 966 969 922
3 923 925 967
3 928 967 925
3 968 967 928
3 930 968 928
3 969 968 930
3 924 969 930
