# vtk DataFile Version 3.0
this file was written using fslvtkio
ASCII
DATASET POLYDATA
POINTS 732 float
123.52 124.33 42.0438
122.154 123.28 42.4336
123.312 122.639 42.3994
124.59 122.64 42.6701
125.152 124.562 42.1176
126.216 122.994 43.0493
126.62 124.696 42.8804
127.82 123.963 43.5939
122.337 125.685 42.0442
120.865 125.202 42.1205
123.96 126.427 42.3512
125.621 126.291 42.8617
127.407 125.816 43.9782
121.074 127.379 42.1292
119.313 127.738 43.0562
119.726 126.066 42.6965
122.659 127.743 42.0776
124.078 128.512 42.8611
125.275 127.756 43.3393
126.581 127 43.9404
120.569 129.005 42.8124
119.588 129.152 44.0531
122.331 129.193 42.7174
123.705 129.578 43.8865
124.808 129.019 44.9166
126.246 128.129 44.6252
120.951 129.756 44.1821
122.408 129.904 44.5973
123.681 121.078 43.2388
121.8 120.948 43.88
122.713 119.839 44.5942
124.478 119.648 44.4294
125.683 121.227 43.3343
126.376 120.295 44.4919
127.588 122.265 43.9003
127.999 121.351 45.0082
128.922 123.108 44.8871
129.486 122.312 45.8348
121.354 122.221 43.0593
119.526 122.526 44.1214
120.177 121.371 44.6396
128.84 124.766 44.6936
129.761 124.266 46.232
119.542 123.873 43.7175
117.989 124.871 44.5844
118.36 123.387 45.2017
120.252 124.256 42.652
128.581 126.392 45.6272
129.673 125.816 46.3635
118.676 126.128 43.6835
117.684 126.827 45.2251
129.032 127.368 47.1905
127.58 127.223 45.3351
118.55 128.049 44.4269
117.834 128.302 45.8473
123.552 129.534 45.4775
123.317 129.357 47.1778
122.239 129.92 46.2055
124.901 128.745 46.8564
126.181 128.342 46.0538
119.364 129.582 45.5703
120.85 130.035 46.0611
127.286 118.222 46.2001
125.467 117.498 46.1681
126.438 116.927 47.3689
128.015 117.439 47.8673
128.896 118.995 47.0691
129.485 118.406 48.4613
121.352 118.45 46.134
119.875 118.233 47.1648
120.835 117.53 47.1266
122.065 117.082 46.7671
123.363 118.34 45.3507
123.908 117.089 46.2282
125.56 118.656 45.287
127.467 119.576 45.1584
128.984 120.522 46.1984
130.017 119.728 48.3419
129.999 120.985 47.6118
130.894 120.662 49.4159
119.488 120.086 46.4502
118.028 120.097 47.5732
118.894 119.005 47.4212
121.067 120.016 45.4443
130.24 122.884 47.2383
130.955 122.207 48.7737
117.451 121.927 46.6923
116.09 122.299 47.885
116.989 121.03 47.5698
118.745 121.772 45.6637
130.479 124.71 48.0355
130.861 123.852 49.2096
116.926 124.031 46.2158
115.742 124.084 47.8509
130.533 125.748 49.871
130.344 126.246 47.7892
115.505 125.762 47.262
113.684 126.437 48.822
114.785 124.813 48.9251
116.761 125.759 45.895
128.785 127.424 48.8076
127.529 127.933 47.061
115.388 127.48 48.2085
116.679 127.43 46.8278
116.316 128.873 48.1268
121.814 129.737 47.4245
121.181 129.252 48.8601
120.39 129.738 47.6229
122.796 128.803 48.9931
124.266 128.59 48.5297
125.977 128.446 48.0307
117.528 129.37 46.9672
119.117 129.796 47.4119
124.859 115.562 48.6364
123.296 115.07 49.4194
124.505 114.874 49.7103
125.801 114.928 49.8811
127.116 116.137 48.7918
127.667 115.403 50.2153
128.964 117.038 49.3085
129.126 116.228 50.8597
130.287 117.913 50.5836
130.508 117.408 51.9536
120.409 116.606 48.0586
119.068 116.28 49.148
120.3 115.735 49.3778
121.56 115.471 49.2895
122.862 116.218 47.9506
124.955 116.475 47.6194
130.414 119.053 49.6614
131.45 119.603 51.0075
118.459 118.026 48.2311
117.115 118.18 49.3264
117.919 116.992 49.1279
131.59 121.454 50.7446
116.679 120.354 48.5838
114.939 120.733 50.0147
115.87 119.203 49.9079
131.427 122.997 50.5628
115.083 121.713 48.9719
113.713 123.427 49.9489
114.111 122.425 50.8081
131.09 124.598 51.0445
114.447 123.576 49.1012
112.744 125.493 50.3355
129.917 125.663 51.6992
129.86 126.725 49.6879
112.424 127.379 50.7865
123.931 127.591 49.6369
122.735 126.707 50.4299
122.276 127.813 49.8121
125.615 127.818 49.5511
124.682 126.765 50.5225
127.321 127.879 48.823
126.815 127.148 50.3046
128.472 127.132 50.5818
114.345 128.132 49.7332
117.756 129.381 48.792
116.187 128.77 49.9129
119.405 129.32 48.5794
118.793 129.045 49.9077
120.768 128.265 49.9573
124.151 114.4 50.8911
122.544 113.841 51.9497
124.004 113.784 52.1613
125.306 113.623 52.2091
126.323 114.277 51.1873
127.339 113.958 52.6226
128.217 114.922 51.7554
129.333 114.622 53.4114
129.689 115.86 52.2219
130.616 116.08 53.4399
120.054 115.054 50.7629
118.33 115.252 51.3943
118.996 114.338 52.5135
120.567 113.872 52.1859
121.984 114.478 50.5884
131.186 117.589 52.9447
117.661 116.178 50.2417
116.148 116.842 52.1094
117.035 115.751 52.1535
131.712 118.88 52.7936
132.445 120.217 52.1898
132.665 119.055 54.1964
116.137 117.682 50.6609
114.928 119.488 51.2303
115.083 118.231 52.599
132.306 121.725 52.3693
132.804 120.663 53.9004
114.417 121.155 51.7681
132.032 122.167 53.6609
131.56 123.143 52.2297
112.924 124.248 51.3337
113.946 122.718 52.2535
130.918 124.346 52.8198
112.717 125.964 52.2742
125.362 126.221 51.4684
124.009 125.111 52.7326
123.697 125.642 51.3744
127.292 126.226 51.5779
125.981 125.643 52.5155
129.004 126.267 51.4244
128.061 125.514 52.8842
129.415 124.973 53.1525
113.321 127.662 52.3038
117.941 128.154 50.8547
117.051 127.558 52.1968
116.186 128.097 51.2504
119.61 127.623 50.7272
118.539 126.883 51.7926
121.241 127.215 50.6007
120.298 126.34 51.3874
122.185 125.963 51.2644
114.48 128.301 51.1665
123.815 112.856 53.0851
122.451 112.111 54.0077
123.822 111.9 53.9146
125.231 111.835 53.954
126.148 112.877 53.2554
127.355 112.089 54.2118
128.132 113.161 53.7559
129.497 112.48 55.0982
129.299 113.591 54.2734
130.394 113.815 54.9302
121.761 113.294 53.1524
120.044 113.063 54.0818
121.292 112.651 53.9338
131.112 115.074 54.4969
132.063 116.388 54.427
132.78 115.456 55.7779
117.649 114.958 52.9663
116.416 116.207 53.9332
117.468 114.626 54.5733
119.029 113.604 53.6995
132.287 117.722 54.1491
132.962 117.292 55.6671
115.471 117.59 54.2827
132.733 119.121 55.67
114.632 119.939 53.1099
115.2 119.211 54.6073
132.45 120.974 55.2819
114.752 121.635 53.65
131.992 122.099 54.9004
130.934 123.088 54.3599
113.248 124.371 52.6252
114.49 122.923 53.55
128.569 124.626 54.6042
127.325 123.739 55.7485
127.117 125.037 54.5202
130.012 124.163 54.141
129.252 123.565 55.4947
114.314 124.975 53.1126
114.668 126.379 53.0218
116.987 126.287 52.8499
116.092 125.019 53.388
119.085 125.754 52.419
117.93 124.783 53.3026
121.005 125.308 52.3877
119.797 124.655 53.4861
122.529 125.204 52.2452
122.05 124.684 53.5691
123.929 124.502 54.1328
125.714 125.107 53.9416
115.303 127.635 52.6115
123.772 111.075 54.8485
122.723 110.709 55.463
124.125 110.033 55.5976
125.424 109.957 55.5299
126.179 110.949 54.8542
127.45 110.057 55.7372
128.178 111.167 55.1119
129.398 110.233 56.2059
129.535 111.367 55.6845
130.836 111.496 56.3826
120.898 112.131 54.7542
120.016 112.055 55.7284
121.371 111.351 55.5833
131.372 112.852 56.1079
131.991 114.251 55.7859
133.168 113.847 57.0104
118.421 113.621 55.3982
118.697 113.971 57.1816
119.054 112.804 56.2652
133.632 115.75 57.0625
116.577 115.994 55.6904
117.375 115.261 56.6817
133.18 117.688 57.0306
116.096 117.626 56.0307
116.834 117.133 57.2567
132.389 119.718 56.7804
115.451 120.779 55.0484
116.161 119.375 56.334
131.694 121.779 56.0014
131.769 120.722 56.9135
130.77 121.435 57.1817
116.149 122.573 54.6131
116.921 121.292 55.8129
130.441 122.728 56.0551
129.404 121.841 57.1874
128.591 122.644 56.524
115.218 123.898 53.9194
117.06 123.855 54.159
118.038 122.383 54.8927
118.814 123.556 54.2696
120.808 123.787 54.6103
119.622 122.349 55.1224
122.651 123.622 54.9389
121.509 122.633 55.8132
124.554 123.735 55.1225
123.384 122.853 56.241
125.987 124.01 55.3021
125.281 122.907 56.422
127.156 122.688 56.5895
127.034 107.974 57.0243
125.851 107.296 57.2984
127.157 107.062 57.7708
128.437 107.111 58.1079
129.201 108.37 57.4672
129.906 107.614 58.3806
124.509 108.897 56.2546
122.833 109.257 56.8751
123.929 107.99 57.204
126.552 109.021 56.1232
128.681 109.082 56.7497
130.586 108.908 57.9248
131.111 110.134 57.0836
132.041 109.536 58.284
132.658 111.063 57.8735
133.223 110.677 59.1425
121.711 110.541 56.1364
120.358 110.637 56.9961
121.339 109.448 57.4268
132.494 112.121 57.1069
133.501 112.637 58.487
119.468 111.959 56.8993
119.337 111.943 58.1097
119.733 110.908 57.6562
133.721 114.542 58.4592
119.894 113.584 58.5307
119.506 114.96 58.3292
120.699 115.003 59.3562
133.643 116.42 58.481
118.381 115.859 58.1879
119.739 116.131 59.1357
132.823 118.357 58.1555
117.5 119.162 57.5719
117.952 117.475 58.3411
131.564 120.006 57.8451
131.701 119.133 58.5024
130.415 119.999 59.0179
118.184 120.647 56.6165
118.999 119.436 58.3211
120.184 120.524 57.3498
122.472 120.778 57.779
121.192 120.012 58.7826
124.339 120.953 58.1444
122.97 120.082 59.0948
126.137 121.038 58.4737
124.823 120.225 59.3966
127.81 121.174 58.6538
126.645 120.491 59.7095
129.639 120.916 58.0736
128.604 120.344 59.4422
118.646 121.656 55.7961
120.02 121.564 56.4503
121.986 121.859 56.9287
123.758 121.849 57.2617
125.495 121.811 57.4625
127.613 121.831 57.675
127.421 106.001 58.3682
125.575 105.481 58.292
126.81 104.614 58.9444
128.692 104.867 59.2505
129.938 106.323 59.1758
130.768 105.161 60.2644
131.551 106.974 59.5536
132.114 106.328 60.2952
122.574 106.506 58.2211
121.201 106.025 58.8884
122.406 105.571 58.9543
123.689 105.333 58.6175
124.636 106.58 57.7239
131.243 108.1 58.8168
132.694 107.978 59.9559
132.614 109.044 59.3827
133.334 109.307 60.5799
120.53 107.833 58.429
118.919 108.617 59.4773
119.546 107.026 59.3001
121.998 107.913 57.6747
133.544 111.395 60.206
119.979 109.82 58.3211
119.487 110.218 59.8323
134.076 113.38 59.948
120.046 111.761 59.4067
119.873 112.658 58.925
120.953 113.304 59.6124
133.525 115.257 59.9007
121.283 116.609 59.7119
121.768 114.723 59.8897
122.676 115.856 60.7357
132.885 117.069 59.4835
119.739 117.384 59.253
121.86 117.963 59.5483
122.846 117.128 60.4208
131.767 118.467 59.3596
131.671 117.488 60.321
130.472 118.312 60.2997
119.77 118.644 58.9759
121.876 119.053 59.313
123.612 118.147 60.2146
124.133 119.169 59.9099
126.144 119.403 60.2289
125.257 118.379 60.9228
128.098 119.506 60.4055
127.125 118.413 61.1227
129.963 119.297 59.9394
128.926 118.332 60.9297
124.844 103.381 60.0589
123.728 102.727 60.6557
124.996 102.25 60.6253
126.284 102.315 60.7028
127.17 103.651 59.8865
128.241 102.487 60.8629
129.208 103.967 60.2106
130.026 102.986 61.2213
130.701 104.08 60.9498
131.742 104.4 62.2419
122.55 104.462 59.6641
120.423 104.701 60.2927
121.922 103.545 60.6743
124.881 104.216 59.0187
132.029 105.718 61.4181
133.045 107.357 60.8754
132.966 107.737 61.8062
120.063 105.734 59.7797
118.395 106.898 60.4297
118.472 105.232 61.159
133.235 110.039 61.8279
119.02 108.453 61.0921
133.561 111.826 61.6185
120.299 109.812 60.9999
120.735 111.727 60.5872
121.894 112.077 61.5244
121.556 110.552 61.7242
123.096 111.513 62.3147
133.422 113.705 61.3323
122.002 113.317 60.6945
123.057 113.163 61.8615
132.396 115.026 61.1992
131.864 113.685 62.2378
131.029 114.684 62.0613
124.297 116.152 61.4706
123.111 114.556 61.5081
126.038 116.143 62.0263
124.739 115.001 62.3853
126.504 114.665 62.5956
130.473 116.026 61.671
129.628 114.62 62.5597
128.92 115.816 62.1586
132.097 116.284 60.616
124.493 117.32 61.1417
126.336 117.198 61.5218
127.493 115.724 62.208
128.293 117.048 61.6831
130.28 117.372 61.1936
125.329 101.265 61.3253
123.456 100.915 61.5769
124.813 99.9342 62.2565
126.721 99.8538 62.1764
127.514 101.177 61.4464
128.794 100.272 62.503
129.543 101.575 61.6657
130.493 101.554 62.9842
131.041 102.772 62.197
131.671 103.113 63.4358
120.371 102.609 62.0399
119.225 102.174 62.7304
120.686 101.274 62.5767
121.747 100.976 62.0441
122.398 102.316 61.2722
132.147 104.98 63.9203
117.543 104.051 62.1462
116.153 104.411 63.7946
117.625 102.581 63.3071
119.99 103.836 61.3126
132.355 106.297 62.7591
133.029 107.794 62.8748
117.177 106.132 63.1275
118.418 106.865 62.5225
132.821 109.151 62.9846
132.719 107.948 63.8308
131.962 108.827 64.1002
119.826 107.827 62.3702
121.16 109.169 62.1926
123.117 109.899 62.6052
121.988 108.188 62.9853
124.875 110.462 62.9348
123.716 108.543 63.4743
125.129 108.963 63.6707
132.449 110.645 63.0385
130.939 110.186 63.7186
124.622 112.084 62.8373
126.14 110.125 63.3574
126.596 111.605 63.1538
128.84 111.691 63.359
127.53 110.21 63.5844
130.8 111.642 63.209
129.349 110.327 63.8092
132.28 112.352 62.5641
124.167 113.726 62.6253
125.92 113.558 63.1153
127.805 112.744 63.1049
130.062 113.126 62.9005
128.187 114.098 62.7739
123.224 98.777 63.4521
122.197 98.3714 64.2913
123.675 97.9271 64.3919
125.171 98.0852 64.3779
125.805 98.9335 63.3605
127.227 98.2313 64.6604
127.935 99.0274 63.2576
128.898 98.8435 64.886
129.551 99.9104 63.969
130.232 99.9757 65.5439
120.963 100.115 63.2139
119.345 99.9919 64.1897
120.854 99.2832 64.1888
122.987 99.6466 62.4333
130.773 101.281 64.2185
131.653 103.341 64.8543
118.615 101.501 63.5074
116.667 102.733 65.3513
117.699 100.939 63.8938
131.645 104.734 65.3371
117.611 104.552 64.9756
132.513 106.793 64.3481
131.484 106.145 65.2239
117.765 105.578 64.2117
120.655 107.34 63.9075
119.268 106.426 64.3664
122.942 107.428 64.2312
121.638 106.297 64.7578
125.092 107.572 64.3064
123.694 106.17 65.0193
127.184 107.681 64.9062
125.768 106.366 65.0594
129.223 107.832 65.2185
127.799 106.436 65.6636
131.307 107.718 65.106
129.812 106.536 65.886
126.509 108.625 64.1826
128.244 108.964 64.2694
130.194 109 64.4113
123.954 96.926 65.2166
122.258 96.8925 65.7594
123.793 95.9459 66.0723
125.557 95.6927 66.3835
126.319 96.8536 65.364
127.504 96.2518 66.7103
128.255 97.394 65.977
128.852 97.7913 67.792
120.635 98.6046 65.0303
119.217 98.6838 65.6356
120.732 97.5382 65.8047
129.145 98.7599 66.5965
129.837 100.278 67.017
115.776 100.575 65.5372
115.516 100.187 67.5202
116.166 99.3097 66.1984
117.605 98.8701 65.903
117.381 100.331 64.7156
130.958 101.824 65.6405
130.053 101.831 66.6153
115.954 102.12 66.4813
118.667 104.078 65.7958
117.732 102.82 67.055
120.762 104.016 65.9148
119.594 103.028 66.8833
121.583 102.753 66.9248
130.802 103.658 66.3326
129.524 103.767 66.999
119.066 105.215 65.0022
120.834 105.291 65.275
122.577 103.715 66.4029
123.074 104.957 65.9171
125.072 105.169 65.9188
124.255 103.629 66.7072
126.887 105.349 66.0895
125.861 103.885 66.8242
129.14 105.216 66.4713
127.729 104.202 66.805
130.69 105.435 66.0148
123.32 95.3585 67.1705
121.654 95.0268 67.5329
122.826 94.1907 69.2015
124.37 94.6956 68.7097
125.575 95.2652 67.6731
126.032 95.5327 69.2851
120.947 96.4492 66.4985
119.941 96.1908 67.6215
120.832 95.4766 67.7471
127.446 96.1067 68.1585
128.154 97.5764 69.1668
116.85 98.4137 67.1277
115.975 98.4716 68.1436
117.216 97.4519 67.9891
118.511 97.2447 67.9671
119.021 97.6835 66.629
129.182 99.9085 68.2047
128.427 99.4944 69.2017
116.872 99.8259 68.4607
116.809 101.146 67.4894
118.323 101.135 67.836
118.63 100.339 69.0326
119.813 100.683 68.9584
127.964 101.853 68.6072
127.295 100.723 69.1834
125.783 101.706 68.8544
129.381 101.506 67.7954
119.69 101.728 67.7206
123.48 102.754 67.6269
121.503 102.123 68.079
125.703 102.738 68.026
123.687 101.998 68.6125
127.126 103.182 67.5072
128.811 102.804 67.6281
121.087 94.4795 69.162
119.966 94.4666 69.8365
121.391 93.8235 71.1039
123.389 93.9083 70.82
124.792 94.6232 70.4934
125.772 95.9578 71.294
117.481 96.2976 68.7106
116.331 96.0769 69.8269
117.407 95.3048 70.0728
118.485 94.8603 69.8279
119.218 95.6517 68.5035
127.134 96.6441 70.1388
127.444 98.4303 70.2468
115.518 97.4315 68.9049
114.104 98.0203 70.4749
115.197 96.649 69.906
126.68 99.9982 69.8434
126.512 98.9605 70.6776
125.391 99.5032 70.6951
115.649 98.9829 69.4441
117.047 99.0542 69.9936
118.484 99.3111 70.2278
121.159 101.03 69.2219
120.129 99.4327 70.2467
122.857 101.063 69.3711
121.811 99.7946 70.3777
124.769 100.604 69.4783
123.564 99.8217 70.4957
117.53 94.4382 71.513
115.942 94.5099 71.4636
116.921 93.8932 73.1452
119.291 93.7057 72.5185
119.383 94.183 71.0418
120.928 93.8789 73.1359
122.576 94.1263 72.5817
124.263 94.7633 72.4173
125.203 96.2946 72.7379
113.58 96.6654 70.839
111.748 96.4444 71.7131
112.992 95.4026 71.4513
114.375 94.9054 71.4435
115.482 95.8863 70.5535
126.368 97.8246 71.4469
125.329 97.8647 72.6978
112.552 97.7446 71.9459
115.964 98.503 70.9746
114.287 98.1237 72.199
117.605 98.5919 71.5395
116.051 98.3071 72.7942
119.36 98.6756 71.6425
118.007 98.2706 73.1467
121.075 98.6927 71.7513
119.571 98.4638 73.4626
122.798 99.1011 71.8535
121.1 98.6651 73.915
124.725 99.0318 71.8901
123.222 98.7167 73.1904
112.541 94.6757 72.4171
110.179 94.4099 74.0581
112.556 93.7535 74.5978
114.416 94.0796 73.9125
115.165 94.3601 72.4975
116.572 94.003 74.7088
118.456 94.183 74.3135
120.098 94.2238 74.906
122.102 94.6534 74.3803
123.457 95.9154 73.6283
122.591 96.206 74.7332
110.476 95.2484 72.2551
108.894 96.396 72.8705
108.624 95.1469 74.1994
122.877 97.8541 74.2841
121.862 97.089 75.6053
120.908 98.1712 75.2939
124.341 97.3952 73.5593
110.554 97.4031 72.9725
111.844 97.9635 73.6507
113.588 97.9323 73.7204
115.225 98.067 74.2048
117.104 98.1584 74.466
118.876 98.3747 75.4692
110.397 94.0674 75.8792
112.256 94.1546 76.6545
113.925 93.9635 76.2574
115.604 94.3417 75.8977
117.96 94.424 76.0265
119.749 95.2814 76.3095
118.388 96.12 77.2274
121.312 95.6845 75.6633
108.725 97.1016 74.8739
108.984 95.6914 76.2069
120.194 97.1513 76.4679
118.071 97.7288 76.7958
110.631 97.6567 75.1436
112.509 97.9244 75.3266
114.272 97.8302 75.825
116.264 98.1369 76.276
111.068 95.8506 76.9695
112.896 95.8016 77.2588
114.766 95.5492 77.2792
116.642 95.4787 77.0182
111.221 97.0974 76.3045
112.636 97.0613 76.7653
114.661 97.2817 76.9752
116.435 97.0042 77.4091
POLYGONS 1460  5840
3 0 1 2
3 0 3 4
3 2 3 0
3 4 5 6
3 3 5 4
3 5 7 6
3 8 1 0
3 9 1 8
3 4 10 0
3 10 8 0
3 6 11 4
3 11 10 4
3 12 6 7
3 11 6 12
3 13 14 15
3 9 13 15
3 9 8 13
3 8 16 13
3 10 17 8
3 17 16 8
3 11 18 10
3 18 17 10
3 19 11 12
3 18 11 19
3 20 14 13
3 21 14 20
3 16 22 13
3 22 20 13
3 23 17 24
3 23 22 17
3 22 16 17
3 18 24 17
3 25 24 18
3 19 25 18
3 20 26 21
3 22 26 20
3 27 26 22
3 23 27 22
3 28 29 30
3 28 31 32
3 30 31 28
3 32 33 34
3 31 33 32
3 34 35 36
3 33 35 34
3 35 37 36
3 38 39 40
3 29 38 40
3 28 38 29
3 28 1 38
3 28 2 1
3 3 2 28
3 32 3 28
3 5 3 32
3 34 5 32
3 7 5 34
3 7 34 41
3 41 34 36
3 42 36 37
3 41 36 42
3 43 44 45
3 39 43 45
3 39 38 43
3 38 46 43
3 1 9 46
3 38 1 46
3 41 47 12
3 7 41 12
3 48 41 42
3 47 41 48
3 49 44 43
3 50 44 49
3 15 14 49
3 15 49 46
3 46 49 43
3 9 15 46
3 47 51 52
3 47 52 12
3 12 52 19
3 48 51 47
3 53 50 49
3 54 50 53
3 14 21 53
3 49 14 53
3 55 56 57
3 55 23 24
3 55 24 56
3 56 24 58
3 25 59 24
3 24 59 58
3 52 25 19
3 59 25 52
3 53 60 54
3 21 60 53
3 21 26 60
3 26 61 60
3 57 27 55
3 57 61 27
3 61 26 27
3 23 55 27
3 62 63 64
3 62 65 66
3 64 65 62
3 65 67 66
3 68 69 70
3 68 71 72
3 70 71 68
3 72 73 74
3 71 73 72
3 63 74 73
3 63 62 74
3 62 75 74
3 66 76 62
3 76 75 62
3 77 66 67
3 77 78 66
3 78 76 66
3 77 79 78
3 80 81 82
3 69 80 82
3 69 68 80
3 68 83 80
3 30 29 83
3 30 83 72
3 72 83 68
3 31 30 72
3 74 31 72
3 33 31 74
3 75 33 74
3 35 33 75
3 76 35 75
3 37 35 76
3 37 76 84
3 84 76 78
3 85 78 79
3 84 78 85
3 86 87 88
3 81 86 88
3 81 80 86
3 80 89 86
3 40 39 89
3 40 89 83
3 83 89 80
3 29 40 83
3 84 90 42
3 37 84 42
3 91 84 85
3 90 84 91
3 92 87 86
3 93 87 92
3 45 44 92
3 45 92 89
3 89 92 86
3 39 45 89
3 90 94 95
3 90 95 42
3 42 95 48
3 91 94 90
3 96 97 98
3 93 96 98
3 93 92 96
3 92 99 96
3 44 50 99
3 92 44 99
3 51 100 101
3 52 51 101
3 95 51 48
3 100 51 95
3 96 102 97
3 102 103 104
3 102 96 103
3 96 99 103
3 50 54 103
3 99 50 103
3 105 106 107
3 105 57 56
3 105 56 106
3 106 56 108
3 58 109 56
3 56 109 108
3 59 110 58
3 58 110 109
3 101 59 52
3 110 59 101
3 103 111 104
3 54 111 103
3 54 60 111
3 60 112 111
3 107 61 105
3 107 112 61
3 112 60 61
3 57 105 61
3 113 114 115
3 113 116 117
3 115 116 113
3 117 118 119
3 116 118 117
3 119 120 121
3 118 120 119
3 120 122 121
3 123 124 125
3 123 126 127
3 125 126 123
3 114 127 126
3 114 113 127
3 113 128 127
3 64 63 128
3 64 128 117
3 117 128 113
3 65 64 117
3 119 65 117
3 67 65 119
3 67 119 129
3 129 119 121
3 130 121 122
3 129 121 130
3 131 132 133
3 124 131 133
3 123 131 124
3 123 69 131
3 123 70 69
3 71 70 123
3 127 71 123
3 73 71 127
3 128 73 127
3 63 73 128
3 67 129 77
3 129 79 77
3 129 130 79
3 130 134 79
3 135 136 137
3 132 135 137
3 131 135 132
3 131 81 135
3 131 82 81
3 69 82 131
3 79 134 85
3 134 138 85
3 139 140 141
3 136 139 141
3 135 139 136
3 135 87 139
3 135 88 87
3 81 88 135
3 85 138 91
3 138 142 91
3 143 140 139
3 144 140 143
3 87 93 143
3 139 87 143
3 94 145 146
3 95 94 146
3 142 94 91
3 145 94 142
3 98 144 143
3 98 97 144
3 97 147 144
3 93 98 143
3 148 149 150
3 148 151 152
3 149 148 152
3 151 153 154
3 152 151 154
3 153 101 100
3 153 100 154
3 154 100 155
3 146 100 95
3 155 100 146
3 97 156 147
3 102 156 97
3 104 157 158
3 104 158 102
3 102 158 156
3 157 159 160
3 158 157 160
3 159 107 106
3 159 106 160
3 160 106 161
3 150 108 148
3 150 161 108
3 161 106 108
3 109 148 108
3 151 148 109
3 110 151 109
3 153 151 110
3 101 153 110
3 104 111 157
3 112 157 111
3 159 157 112
3 107 159 112
3 162 163 164
3 162 165 166
3 164 165 162
3 166 167 168
3 165 167 166
3 168 169 170
3 167 169 168
3 169 171 170
3 172 173 174
3 172 175 176
3 174 175 172
3 163 176 175
3 162 176 163
3 162 114 176
3 162 115 114
3 116 115 162
3 166 116 162
3 118 116 166
3 168 118 166
3 120 118 168
3 170 120 168
3 170 122 120
3 170 171 122
3 171 177 122
3 178 179 180
3 173 178 180
3 172 178 173
3 172 124 178
3 172 125 124
3 126 125 172
3 176 126 172
3 114 126 176
3 181 182 130
3 181 130 177
3 177 130 122
3 181 183 182
3 184 185 186
3 179 184 186
3 178 184 179
3 178 132 184
3 178 133 132
3 124 133 178
3 182 187 134
3 130 182 134
3 188 182 183
3 187 182 188
3 137 185 184
3 137 136 185
3 136 189 185
3 132 137 184
3 187 190 191
3 187 191 134
3 134 191 138
3 188 190 187
3 141 192 193
3 140 192 141
3 189 136 141
3 193 189 141
3 138 191 142
3 191 194 142
3 140 144 192
3 192 144 195
3 196 197 198
3 196 199 200
3 197 196 200
3 199 201 202
3 200 199 202
3 201 146 145
3 201 145 202
3 202 145 203
3 194 145 142
3 203 145 194
3 144 147 195
3 195 147 204
3 205 206 207
3 205 208 209
3 206 205 209
3 208 210 211
3 209 208 211
3 210 150 149
3 210 149 211
3 211 149 212
3 198 152 196
3 198 212 152
3 212 149 152
3 154 196 152
3 199 196 154
3 155 199 154
3 201 199 155
3 146 201 155
3 147 213 204
3 156 213 147
3 207 158 205
3 207 213 158
3 213 156 158
3 160 205 158
3 208 205 160
3 161 208 160
3 210 208 161
3 150 210 161
3 214 215 216
3 214 217 218
3 216 217 214
3 218 219 220
3 217 219 218
3 220 221 222
3 219 221 220
3 221 223 222
3 224 225 226
3 215 224 226
3 214 224 215
3 214 163 224
3 214 164 163
3 165 164 214
3 218 165 214
3 167 165 218
3 220 167 218
3 169 167 220
3 222 169 220
3 171 227 228
3 169 227 171
3 169 223 227
3 169 222 223
3 227 229 228
3 230 231 232
3 230 174 173
3 230 232 174
3 232 233 174
3 225 224 175
3 225 175 233
3 233 175 174
3 163 175 224
3 228 234 177
3 171 228 177
3 235 228 229
3 234 228 235
3 180 231 230
3 180 179 231
3 179 236 231
3 173 180 230
3 177 234 181
3 234 183 181
3 234 235 183
3 235 237 183
3 186 238 239
3 185 238 186
3 236 179 186
3 239 236 186
3 183 237 188
3 237 240 188
3 185 189 238
3 238 189 241
3 190 242 243
3 191 190 243
3 240 190 188
3 242 190 240
3 193 244 245
3 192 244 193
3 241 189 193
3 245 241 193
3 246 247 248
3 246 249 250
3 247 246 250
3 249 243 250
3 249 194 243
3 194 191 243
3 251 195 252
3 251 244 195
3 244 192 195
3 252 253 254
3 251 252 254
3 253 255 256
3 254 253 256
3 255 257 258
3 256 255 258
3 257 259 260
3 258 257 260
3 259 198 197
3 259 197 260
3 260 197 261
3 200 262 197
3 197 262 261
3 248 202 246
3 248 262 202
3 262 200 202
3 203 246 202
3 249 246 203
3 194 249 203
3 252 204 263
3 195 204 252
3 206 263 207
3 206 253 263
3 253 252 263
3 209 253 206
3 255 253 209
3 211 255 209
3 257 255 211
3 212 257 211
3 259 257 212
3 198 259 212
3 204 213 263
3 207 263 213
3 264 265 266
3 264 267 268
3 266 267 264
3 268 269 270
3 267 269 268
3 270 271 272
3 269 271 270
3 271 273 272
3 274 275 276
3 265 274 276
3 264 274 265
3 264 215 274
3 264 216 215
3 217 216 264
3 268 217 264
3 219 217 268
3 270 219 268
3 221 219 270
3 272 221 270
3 223 277 278
3 221 277 223
3 221 273 277
3 221 272 273
3 277 279 278
3 280 281 282
3 275 280 282
3 274 280 275
3 274 225 280
3 274 226 225
3 215 226 274
3 223 278 227
3 278 229 227
3 278 279 229
3 279 283 229
3 232 231 284
3 280 285 281
3 280 232 285
3 280 233 232
3 284 285 232
3 225 233 280
3 229 283 235
3 283 286 235
3 284 287 288
3 284 231 287
3 231 236 287
3 285 284 288
3 235 286 237
3 286 289 237
3 239 238 290
3 239 290 291
3 239 291 236
3 236 291 287
3 292 293 294
3 292 289 293
3 292 240 289
3 240 237 289
3 290 241 295
3 238 241 290
3 296 291 290
3 295 296 290
3 297 298 299
3 294 298 297
3 292 294 297
3 292 297 243
3 292 243 242
3 240 292 242
3 245 244 300
3 245 295 241
3 245 300 295
3 300 301 295
3 302 296 295
3 302 295 303
3 303 295 301
3 303 304 305
3 302 303 305
3 304 306 307
3 305 304 307
3 306 308 309
3 307 306 309
3 308 310 311
3 309 308 311
3 310 248 247
3 310 247 311
3 311 247 312
3 299 250 297
3 299 312 250
3 312 247 250
3 243 297 250
3 244 251 300
3 254 300 251
3 301 300 254
3 256 301 254
3 303 301 256
3 258 303 256
3 304 303 258
3 260 304 258
3 306 304 260
3 261 306 260
3 308 306 261
3 262 308 261
3 310 308 262
3 248 310 262
3 313 314 315
3 313 316 317
3 315 316 313
3 316 318 317
3 319 320 321
3 314 319 321
3 314 313 319
3 313 322 319
3 317 323 313
3 323 322 313
3 324 317 318
3 324 325 317
3 325 323 317
3 325 326 327
3 324 326 325
3 326 328 327
3 329 330 331
3 320 329 331
3 319 329 320
3 319 265 329
3 319 266 265
3 267 266 319
3 322 267 319
3 269 267 322
3 323 269 322
3 271 269 323
3 325 271 323
3 273 271 325
3 273 325 332
3 332 325 327
3 333 327 328
3 332 327 333
3 334 335 336
3 330 334 336
3 329 334 330
3 329 275 334
3 329 276 275
3 265 276 329
3 273 332 277
3 332 279 277
3 332 333 279
3 333 337 279
3 338 281 339
3 338 335 281
3 282 281 334
3 334 281 335
3 282 334 275
3 339 340 338
3 279 337 283
3 337 341 283
3 339 342 343
3 339 281 342
3 281 285 342
3 340 339 343
3 283 341 286
3 341 344 286
3 288 287 345
3 288 345 346
3 288 346 285
3 285 346 342
3 347 348 349
3 347 344 348
3 347 289 344
3 289 286 344
3 345 291 350
3 287 291 345
3 351 346 345
3 351 345 352
3 352 345 350
3 352 353 354
3 351 352 354
3 353 355 356
3 354 353 356
3 355 357 358
3 356 355 358
3 357 359 360
3 358 357 360
3 359 361 362
3 360 359 362
3 349 362 361
3 347 349 361
3 347 361 294
3 347 294 293
3 289 347 293
3 350 296 363
3 291 296 350
3 352 350 364
3 364 350 363
3 353 352 365
3 365 352 364
3 355 353 366
3 366 353 365
3 357 355 367
3 367 355 366
3 359 357 368
3 368 357 367
3 298 368 299
3 298 361 368
3 361 359 368
3 294 361 298
3 296 302 363
3 305 363 302
3 364 363 305
3 307 364 305
3 365 364 307
3 309 365 307
3 366 365 309
3 311 366 309
3 367 366 311
3 312 367 311
3 368 367 312
3 299 368 312
3 369 370 371
3 369 372 373
3 371 372 369
3 373 374 375
3 372 374 373
3 374 376 375
3 377 378 379
3 377 380 381
3 379 380 377
3 370 381 380
3 369 381 370
3 369 314 381
3 369 315 314
3 316 315 369
3 373 316 369
3 318 316 373
3 318 373 382
3 382 373 375
3 383 375 376
3 383 384 375
3 384 382 375
3 383 385 384
3 386 387 388
3 378 386 388
3 378 377 386
3 377 389 386
3 321 320 389
3 321 389 381
3 381 389 377
3 314 321 381
3 318 382 324
3 326 324 382
3 384 326 382
3 384 328 326
3 384 385 328
3 385 390 328
3 391 387 386
3 392 387 391
3 331 330 391
3 331 391 389
3 389 391 386
3 320 331 389
3 328 390 333
3 390 393 333
3 394 335 395
3 394 392 335
3 336 335 391
3 391 335 392
3 336 391 330
3 395 396 394
3 333 393 337
3 393 397 337
3 335 338 395
3 340 398 399
3 338 340 399
3 338 399 396
3 338 396 395
3 399 398 400
3 337 397 341
3 397 401 341
3 343 342 402
3 343 398 340
3 343 402 398
3 402 403 398
3 404 400 398
3 403 404 398
3 405 406 407
3 405 401 406
3 405 344 401
3 344 341 401
3 402 346 408
3 342 346 402
3 403 402 409
3 409 402 408
3 410 404 403
3 410 403 411
3 411 403 409
3 411 412 413
3 410 411 413
3 412 414 415
3 413 412 415
3 414 416 417
3 415 414 417
3 407 417 416
3 405 407 416
3 405 416 349
3 405 349 348
3 344 405 348
3 346 351 408
3 354 408 351
3 409 408 354
3 356 409 354
3 411 409 356
3 358 411 356
3 412 411 358
3 360 412 358
3 414 412 360
3 362 414 360
3 416 414 362
3 349 416 362
3 418 419 420
3 418 421 422
3 420 421 418
3 422 423 424
3 421 423 422
3 424 425 426
3 423 425 424
3 425 427 426
3 428 429 430
3 419 428 430
3 419 418 428
3 418 431 428
3 371 370 431
3 371 431 422
3 422 431 418
3 372 371 422
3 424 372 422
3 374 372 424
3 426 374 424
3 376 432 433
3 374 432 376
3 374 427 432
3 374 426 427
3 432 434 433
3 435 436 437
3 429 435 437
3 428 435 429
3 428 378 435
3 428 379 378
3 380 379 428
3 431 380 428
3 370 380 431
3 376 433 383
3 433 385 383
3 433 434 385
3 434 438 385
3 388 436 435
3 388 387 436
3 387 439 436
3 378 388 435
3 385 438 390
3 438 440 390
3 441 392 442
3 441 439 392
3 439 387 392
3 442 443 444
3 441 442 444
3 444 443 445
3 390 440 393
3 440 446 393
3 392 394 442
3 396 442 394
3 396 447 442
3 447 443 442
3 448 445 443
3 447 448 443
3 449 450 451
3 449 446 450
3 449 397 446
3 397 393 446
3 396 399 447
3 400 452 453
3 399 400 453
3 399 453 448
3 399 448 447
3 452 454 455
3 453 452 455
3 455 454 456
3 457 458 459
3 451 458 457
3 451 457 449
3 449 457 460
3 397 460 401
3 449 460 397
3 452 404 461
3 400 404 452
3 454 452 462
3 462 452 461
3 463 456 454
3 463 454 464
3 464 454 462
3 459 463 464
3 459 464 457
3 457 464 465
3 406 465 407
3 406 460 465
3 460 457 465
3 401 460 406
3 404 410 461
3 413 461 410
3 462 461 413
3 415 462 413
3 464 462 415
3 417 464 415
3 465 464 417
3 407 465 417
3 466 467 468
3 466 469 470
3 468 469 466
3 470 471 472
3 469 471 470
3 472 473 474
3 471 473 472
3 473 475 474
3 476 477 478
3 476 479 480
3 478 479 476
3 467 480 479
3 466 480 467
3 466 419 480
3 466 420 419
3 421 420 466
3 470 421 466
3 423 421 470
3 472 423 470
3 425 423 472
3 474 425 472
3 474 427 425
3 474 475 427
3 475 481 427
3 482 483 484
3 477 482 484
3 477 476 482
3 476 485 482
3 430 429 485
3 430 485 480
3 480 485 476
3 419 430 480
3 427 481 486
3 432 427 486
3 486 434 432
3 487 434 486
3 482 488 483
3 437 436 489
3 437 489 482
3 437 482 485
3 482 489 488
3 429 437 485
3 490 491 492
3 490 487 491
3 490 438 487
3 438 434 487
3 493 439 494
3 493 489 439
3 489 436 439
3 494 495 496
3 493 494 496
3 495 497 498
3 496 495 498
3 498 497 499
3 500 490 492
3 501 500 492
3 438 500 440
3 490 500 438
3 439 441 494
3 444 494 441
3 495 494 444
3 445 495 444
3 445 502 495
3 502 497 495
3 503 499 497
3 503 497 504
3 504 497 502
3 504 505 506
3 503 504 506
3 505 507 508
3 506 505 508
3 501 508 507
3 501 507 500
3 500 507 509
3 440 509 446
3 500 509 440
3 502 448 510
3 445 448 502
3 504 502 511
3 511 502 510
3 505 504 512
3 512 504 511
3 507 505 513
3 513 505 512
3 450 513 451
3 450 509 513
3 509 507 513
3 446 509 450
3 448 453 510
3 455 510 453
3 511 510 455
3 456 511 455
3 456 514 511
3 514 512 511
3 458 514 459
3 458 513 514
3 513 512 514
3 451 513 458
3 456 463 514
3 459 514 463
3 515 516 517
3 515 518 519
3 517 518 515
3 519 520 521
3 518 520 519
3 521 522 523
3 520 522 521
3 522 524 523
3 525 526 527
3 516 525 527
3 516 515 525
3 515 528 525
3 468 467 528
3 468 528 519
3 519 528 515
3 469 468 519
3 521 469 519
3 471 469 521
3 523 471 521
3 523 524 529
3 523 529 471
3 471 529 473
3 529 475 473
3 530 475 529
3 531 532 533
3 526 531 533
3 525 531 526
3 525 477 531
3 525 478 477
3 479 478 525
3 528 479 525
3 467 479 528
3 475 530 481
3 530 534 481
3 484 532 531
3 484 483 532
3 483 535 532
3 477 484 531
3 536 486 481
3 536 481 537
3 537 481 534
3 486 536 487
3 483 538 535
3 488 538 483
3 489 539 540
3 489 540 488
3 488 540 538
3 539 541 542
3 540 539 542
3 541 543 544
3 542 541 544
3 543 545 546
3 544 543 546
3 545 547 548
3 546 545 548
3 547 549 550
3 548 547 550
3 537 550 549
3 536 537 549
3 536 549 492
3 536 492 491
3 487 536 491
3 489 493 539
3 496 539 493
3 541 539 496
3 498 541 496
3 543 541 498
3 499 543 498
3 499 551 543
3 551 545 543
3 547 545 552
3 552 545 551
3 549 547 553
3 553 547 552
3 492 553 501
3 549 553 492
3 499 503 551
3 506 551 503
3 552 551 506
3 508 552 506
3 553 552 508
3 501 553 508
3 554 555 556
3 554 557 558
3 556 557 554
3 558 559 560
3 557 559 558
3 559 561 560
3 562 563 564
3 555 562 564
3 554 562 555
3 554 516 562
3 554 517 516
3 518 517 554
3 558 518 554
3 520 518 558
3 560 520 558
3 560 561 565
3 560 565 520
3 520 565 522
3 565 524 522
3 566 524 565
3 567 568 569
3 567 570 571
3 569 570 567
3 563 571 570
3 562 571 563
3 562 526 571
3 562 527 526
3 516 527 562
3 572 529 524
3 572 524 573
3 573 524 566
3 529 572 530
3 567 574 568
3 571 532 567
3 571 533 532
3 567 532 574
3 575 576 532
3 574 532 576
3 575 577 578
3 575 578 576
3 571 526 533
3 578 577 579
3 580 572 573
3 581 580 573
3 530 580 534
3 572 580 530
3 575 535 582
3 532 535 575
3 577 575 583
3 583 575 582
3 584 579 577
3 584 577 585
3 585 577 583
3 585 586 587
3 584 585 587
3 586 588 589
3 587 586 589
3 588 590 591
3 589 588 591
3 581 591 590
3 581 590 580
3 580 590 592
3 534 592 537
3 580 592 534
3 535 538 582
3 540 582 538
3 583 582 540
3 542 583 540
3 585 583 542
3 544 585 542
3 586 585 544
3 546 586 544
3 588 586 546
3 548 588 546
3 590 588 548
3 550 590 548
3 592 590 550
3 537 592 550
3 593 594 595
3 593 596 597
3 595 596 593
3 596 598 597
3 599 600 601
3 594 599 601
3 593 599 594
3 593 555 599
3 593 556 555
3 557 556 593
3 597 557 593
3 597 598 602
3 597 602 557
3 557 602 559
3 602 561 559
3 603 561 602
3 604 605 606
3 604 607 608
3 606 607 604
3 600 608 607
3 599 608 600
3 599 563 608
3 599 564 563
3 555 564 599
3 609 565 561
3 609 561 610
3 610 561 603
3 565 609 566
3 611 568 612
3 611 605 568
3 569 568 604
3 604 568 605
3 613 614 611
3 613 611 612
3 608 570 604
3 604 570 569
3 570 608 563
3 613 615 614
3 616 617 618
3 610 617 616
3 610 616 609
3 609 616 619
3 566 619 573
3 609 619 566
3 568 574 612
3 576 612 574
3 613 612 576
3 613 620 615
3 613 576 620
3 576 578 620
3 579 621 622
3 579 622 578
3 578 622 620
3 621 623 624
3 622 621 624
3 618 624 623
3 618 623 616
3 616 623 625
3 619 616 626
3 626 616 625
3 573 626 581
3 619 626 573
3 579 584 621
3 587 621 584
3 623 621 587
3 589 623 587
3 625 623 589
3 591 625 589
3 626 625 591
3 581 626 591
3 627 628 629
3 627 595 594
3 627 629 595
3 629 630 595
3 596 595 631
3 595 630 631
3 631 598 596
3 632 598 631
3 633 634 635
3 633 636 637
3 635 636 633
3 628 637 636
3 627 637 628
3 627 600 637
3 627 601 600
3 594 601 627
3 598 632 638
3 602 598 638
3 638 603 602
3 639 603 638
3 640 641 642
3 634 640 642
3 633 640 634
3 633 605 640
3 633 606 605
3 607 606 633
3 637 607 633
3 600 607 637
3 643 644 645
3 643 639 644
3 643 610 639
3 610 603 639
3 640 646 641
3 605 646 640
3 605 611 646
3 611 647 646
3 614 648 611
3 611 648 647
3 615 649 650
3 615 650 614
3 614 650 648
3 649 651 652
3 650 649 652
3 651 653 654
3 652 651 654
3 645 654 653
3 643 645 653
3 643 653 618
3 643 618 617
3 610 643 617
3 615 620 649
3 622 649 620
3 651 649 622
3 624 651 622
3 653 651 624
3 618 653 624
3 655 656 657
3 655 658 659
3 657 658 655
3 659 629 628
3 659 658 629
3 658 660 629
3 630 629 661
3 629 660 661
3 631 630 662
3 630 661 662
3 662 632 631
3 663 632 662
3 664 665 666
3 664 667 668
3 666 667 664
3 656 668 667
3 655 668 656
3 655 634 668
3 655 635 634
3 636 635 655
3 659 636 655
3 628 636 659
3 669 638 632
3 669 632 670
3 670 632 663
3 638 669 639
3 664 671 665
3 668 641 664
3 668 642 641
3 664 641 671
3 672 673 641
3 671 641 673
3 672 674 675
3 672 675 673
3 668 634 642
3 674 676 677
3 675 674 677
3 676 678 679
3 677 676 679
3 678 680 681
3 679 678 681
3 680 682 683
3 681 680 683
3 670 683 682
3 669 670 682
3 669 682 645
3 669 645 644
3 639 669 644
3 641 646 672
3 647 672 646
3 674 672 647
3 648 674 647
3 676 674 648
3 650 676 648
3 678 676 650
3 652 678 650
3 680 678 652
3 654 680 652
3 682 680 654
3 645 682 654
3 684 685 686
3 684 687 688
3 686 687 684
3 688 657 656
3 688 687 657
3 687 689 657
3 658 657 690
3 657 689 690
3 660 658 691
3 658 690 691
3 661 660 692
3 660 691 692
3 693 692 694
3 693 662 692
3 662 661 692
3 662 693 663
3 695 696 697
3 685 695 697
3 684 695 685
3 684 665 695
3 684 666 665
3 667 666 684
3 688 667 684
3 656 667 688
3 698 699 700
3 694 699 698
3 694 698 693
3 693 698 701
3 663 701 670
3 693 701 663
3 695 702 696
3 665 702 695
3 665 671 702
3 671 703 702
3 673 704 671
3 671 704 703
3 675 705 673
3 673 705 704
3 677 706 675
3 675 706 705
3 679 707 677
3 677 707 706
3 700 681 698
3 700 707 681
3 707 679 681
3 683 698 681
3 701 698 683
3 670 701 683
3 686 708 709
3 685 708 686
3 687 686 710
3 686 709 710
3 689 687 711
3 687 710 711
3 690 689 712
3 689 711 712
3 713 712 714
3 713 691 712
3 691 690 712
3 691 715 692
3 713 715 691
3 692 715 694
3 697 696 716
3 697 716 717
3 697 717 685
3 685 717 708
3 718 713 714
3 719 718 714
3 699 718 700
3 699 715 718
3 715 713 718
3 694 715 699
3 696 702 716
3 716 720 717
3 716 702 720
3 702 703 720
3 704 721 703
3 703 721 720
3 705 722 704
3 704 722 721
3 706 723 705
3 705 723 722
3 719 707 718
3 719 723 707
3 723 706 707
3 700 718 707
3 709 708 724
3 709 725 710
3 724 725 709
3 710 726 711
3 725 726 710
3 711 727 712
3 726 727 711
3 712 727 714
3 724 717 728
3 708 717 724
3 725 724 729
3 729 724 728
3 726 725 730
3 730 725 729
3 727 726 731
3 731 726 730
3 714 731 719
3 727 731 714
3 717 720 728
3 721 728 720
3 729 728 721
3 722 729 721
3 730 729 722
3 723 730 722
3 731 730 723
3 719 731 723
