# vtk DataFile Version 3.0
this file was written using fslvtkio
ASCII
DATASET POLYDATA
POINTS 642 float
115.165 117.182 66.7536
86.7892 115.54 66.3532
88.5442 98.5601 68.2298
112.23 99.5354 69.6149
110.059 112.801 82.9966
107.67 99.965 56.9628
94.904 99.0317 55.5961
92.2597 112.238 81.4203
100.463 120.641 70.7702
101.177 95.0487 80.2581
101.622 90.6515 64.0372
100.785 114.379 62.5568
94.6537 118.283 80.3325
104.947 118.333 80.6189
99.5629 115.127 84.4236
96.0159 104.506 81.5261
105.748 104.291 82.6172
98.7732 107.021 61.5161
101.127 96.2896 53.5817
104.112 107.998 60.6759
96.5552 90.7458 56.9214
108.289 90.6055 57.4919
111.093 106.127 77.4432
112.479 116.055 76.1867
110.247 108.78 68.0407
112.169 97.3326 62.9385
107.022 111.047 63.2823
89.3781 115.415 75.0921
91.1286 106.195 75.2025
92.4122 108.165 66.2552
94.3096 108.706 62.1969
91.358 95.958 60.6547
108.324 118.019 63.2989
110.182 122.911 70.1746
99.9284 119.937 65.9021
92.6469 116.596 63.0154
90.8868 121.719 69.3165
110.295 93.5474 66.7428
101.422 93.2243 73.6641
109.579 94.8283 76.2116
92.3392 92.4218 65.626
93.1667 96.4572 75.4245
99.8209 118.203 78.6198
103.109 121.559 84.1785
95.9312 121.631 84.1155
105.643 113.965 85.6568
110.787 119.534 84.2714
103.133 117.659 74.5309
97.7106 117.665 74.4064
89.3153 117.796 82.6052
94.9655 113.275 85.3394
97.8632 108.5 84.8609
102.876 109.318 85.1701
100.77 104.01 82.1558
108.844 107.869 83.6216
93.5113 107.633 82.5472
98.7548 100.98 79.4971
103.751 101.174 79.7042
100.231 101.092 57.0902
102.735 101.327 58.2851
101.255 106.038 62.7873
105.155 102.765 58.2215
103.922 97.7976 54.7306
98.08 97.5824 53.9327
97.976 101.589 57.3608
98.812 111.582 61.628
103.252 112.551 60.5702
102.114 90.9936 57.4557
105.423 93.5243 54.4037
98.9949 93.158 53.6258
108.206 96.5985 56.0198
105.303 88.1249 61.1444
98.8294 88.2986 60.4255
94.9911 94.7307 54.149
111.571 112.059 76.3385
112.71 112.995 71.5504
109.816 108.972 72.4733
112.291 113.825 66.9659
113.899 117.092 70.9725
112.561 116.233 81.1786
110.686 110.566 79.6077
111.064 104.129 72.6486
108.232 105.98 68.7168
107.005 104.33 65.6513
108.521 110.176 65.4069
108.659 103.345 62.5293
112.539 114.154 64.0888
112.979 98.1454 66.7941
109.863 100.169 59.7871
107.539 104.952 59.4904
90.5874 111.734 75.0981
92.3061 108.751 70.5487
88.8005 112.078 70.2362
93.4867 104.922 67.4339
91.6989 103.366 71.1369
92.4325 110.316 78.0513
89.1918 114.666 79.5004
86.7287 115.492 70.7006
89.2724 112.921 66.8016
93.0461 108.355 64.2048
95.2247 102.784 64.4687
94.1934 102.172 61.1318
88.574 97.4983 64.3555
90.4137 112.814 63.4556
95.1073 103.124 58.6348
93.3868 97.9048 57.8865
110.292 121.959 65.7946
105.677 122.577 66.6779
104.789 120.207 63.974
100.15 121.758 67.73
105.446 122.672 70.8368
113.714 120.584 68.1641
112.533 118.181 64.1158
104.709 116.102 62.5449
100.292 116.433 64.6613
95.5444 119.053 63.9631
94.7546 121.812 66.3686
90.4608 120.445 65.3556
95.2713 121.835 70.1205
96.9454 115.095 63.0075
88.8559 116.301 63.8001
87.0929 119.071 67.9374
105.459 93.9019 71.1974
106.709 88.4398 77.8864
112.416 91.0823 74.3437
106.223 94.5233 79.0499
100.392 90.8377 79.0685
101.233 91.978 68.0457
106.474 91.6973 66.1546
113.686 94.7874 68.9485
110.384 97.9961 72.3698
92.5285 95.0631 71.3208
94.6465 91.2451 75.7987
98.2009 97.2378 68.4649
96.4532 95.5081 77.8309
91.986 99.1732 71.2608
88.9207 93.6546 67.3397
97.0628 92.2207 64.8327
108.896 118.951 78.9993
106.717 118.6 73.9632
111.641 119.261 72.4498
110.343 114.955 61.6827
106.224 113.826 61.1119
106.604 109.363 60.7356
107.208 100.846 77.9036
109.032 105.143 80.6291
110.305 101.266 75.3361
114.485 94.1988 65.7552
111.238 94.7365 59.5159
109.844 89.8096 62.1583
94.1845 117.733 73.858
91.3841 118.219 78.8164
89.4969 118.472 71.8116
91.8866 113.267 61.5895
96.2555 107.984 60.8074
95.6037 113.128 60.9067
92.0771 101.702 74.5446
92.2215 105.209 79.1144
95.1209 101.509 77.6727
94.4632 88.9986 61.02
92.0246 92.4612 57.8783
88.7556 92.7372 63.803
100.974 119.593 81.0374
99.5788 121.277 82.3475
97.9749 119.747 81.0198
98.2798 118.819 84.6378
100.996 117.909 83.9402
103.943 119.718 82.1581
102.344 118.172 79.0611
97.1983 118.001 79.0227
95.0449 119.759 82.0171
104.197 117.673 85.5153
106.733 121.005 84.3713
107.074 117.469 85.6288
107.563 119.685 82.6026
102.863 115.34 84.8466
107.743 113.835 84.9609
109.829 116.12 85.1839
101.527 118.945 76.6415
98.7429 118.828 76.683
100.252 117.736 73.98
96.3501 118.238 77.4101
103.912 118.371 77.5509
101.853 119.308 72.25
98.8033 119.572 72.2781
92.8785 119.616 84.7154
95.7903 116.777 85.4441
93.2411 116.682 84.6959
97.7062 114.525 85.7322
91.947 118.54 82.598
91.2104 115.268 83.1571
93.2518 113.945 83.7521
100.373 109.658 84.4131
101.831 106.853 83.7802
99.4278 105.431 84.5058
103.119 104.837 82.0632
104.226 106.361 84.4841
101.363 112.849 84.7999
98.8085 111.686 85.3808
96.7821 105.392 84.2071
98.3652 104.217 82.0597
105.838 108.272 85.197
103.866 111.862 85.6308
107.149 110.738 85.1769
107.705 105.197 83.8259
109.027 110.736 83.5715
96.3159 111.215 85.2795
95.4575 107.764 84.1288
93.9353 110.505 83.8601
94.4287 105.107 82.2453
92.9212 110.388 82.0971
99.8336 102.185 80.9823
102.516 103.376 80.0349
101.192 100.606 79.784
104.733 103.624 80.3947
97.3197 102.601 80.1277
99.7272 98.3391 78.8151
102.336 98.8323 78.8474
101.332 101.482 58.1698
102.297 103.712 60.7897
100.065 103.403 60.7546
102.133 107.056 62.1909
102.836 104.853 61.3943
101.675 99.1643 56.3997
100.964 98.9066 55.962
99.4139 104.205 60.645
100.102 106.346 62.3685
103.284 101.854 58.1594
102.988 99.0419 56.2438
104.385 100.159 56.6689
101.773 97.4246 54.0009
104.314 104.635 60.6119
105.95 101.182 57.3409
105.556 98.9552 56.0411
99.7022 98.9624 54.9317
99.2767 101.185 57.3499
98.4244 99.8938 55.2014
98.6245 103.016 59.7058
100.281 97.0428 54.111
96.6079 98.7096 54.8113
96.7976 100.627 56.6262
100.267 109.182 61.3976
101.757 109.873 61.2788
100.95 111.736 61.4553
103.921 110.815 60.9365
98.4195 110.157 60.8168
99.4948 113.518 61.8095
102.187 113.438 61.8607
103.337 92.2371 55.7571
102.281 93.5475 53.743
100.842 92.4069 55.303
100.476 94.5292 52.8529
103.731 95.5043 53.3633
106.676 91.8571 55.9777
104.802 90.5161 57.4165
99.4818 91.2449 56.8558
97.8173 92.5093 55.0011
104.672 96.7531 53.5007
107.111 95.0632 54.0137
106.369 97.9179 54.9921
108.808 93.7526 55.6152
107.918 98.1358 56.8711
103.621 89.3741 59.2655
100.593 88.555 58.6525
101.754 88.3253 60.9245
97.8531 88.7774 58.6003
107.039 88.7538 59.2969
103.072 89.5556 62.4657
99.9723 88.6307 62.5389
96.7035 94.5007 52.7574
98.2115 96.0525 51.9252
96.6805 96.8196 53.8639
95.2758 92.7293 55.2834
95.165 96.7307 55.3211
112.465 112.543 73.7799
111.521 110.862 72.1518
111.502 110.502 74.3517
109.946 109.987 69.8586
112.139 111.185 69.658
112.997 114.416 73.5016
112.3 114.023 75.6986
111.104 109.531 76.5114
110.319 108.294 74.9439
111.881 113.685 69.1064
112.467 115.33 71.4199
114.345 115.389 69.035
112.79 116.433 73.3926
111.796 111.265 67.7291
114.662 115.125 67.2436
115.334 116.719 68.9099
112.408 114.466 78.4582
111.32 111.844 78.2785
111.202 113.98 80.3475
110.817 108.37 78.4247
112.567 116.233 78.0106
111.292 115.396 83.1135
110.485 112.024 81.2023
109.667 107.558 72.7198
108.22 108.674 70.3054
109.56 105.706 70.6002
107.731 108.316 68.5601
110.882 105.987 74.918
110.888 101.942 70.6749
109.673 103.396 68.852
107.909 106.345 65.2396
108.218 105.996 63.7321
107.17 102.936 63.7743
108.089 107.058 62.9215
107.614 111.077 64.2883
110.17 108.3 66.603
106.997 107.114 66.935
108.496 101.043 64.5722
108.944 99.3789 62.5771
109.207 113.116 64.7831
109.881 112.709 65.9719
112.678 114.234 65.5668
109.562 112.776 63.2962
114.698 115.749 65.4172
107.626 105.2 67.128
107.846 102.022 66.0397
109.105 102.366 67.6177
112.049 97.9998 65.043
112.76 98.8448 68.3397
108.398 102.263 61.0315
107.773 105.625 61.0846
109.138 103.06 59.4374
107.293 107.838 61.5473
110.21 98.6951 61.019
109.05 100.785 58.4504
107.792 102.548 58.1792
90.5847 109.761 73.0512
90.3229 110.017 70.7147
88.9564 110.868 72.6883
89.906 111.008 68.0701
91.731 109.403 68.2717
91.9463 108.091 73.1114
91.4064 109.671 75.1888
89.7202 113.372 74.5144
88.9823 112.822 72.3641
93.1331 107.798 68.9273
92.0115 106.765 71.2314
92.6561 104.441 69.2866
91.5532 105.247 72.933
93.6956 107.496 67.3375
91.5743 101.77 67.8388
90.6369 101.071 69.6436
91.1349 111.034 77.0841
89.8066 113.191 77.0063
90.9571 113.362 78.8587
88.974 114.844 76.9632
91.6364 107.906 76.6001
91.9223 111.437 79.6478
90.7808 114.123 81.3774
88.7394 114.151 70.774
89.7717 113.094 68.0055
86.928 114.087 68.6451
90.6112 110.207 66.2453
89.201 114.861 72.6069
85.868 115.867 68.5551
87.1769 113.893 66.6812
94.3964 105.002 64.0613
95.759 101.882 62.8353
94.706 104.819 62.796
92.7247 98.4835 60.2413
93.5827 98.7843 62.4897
95.3482 106.374 65.8555
92.5517 107.45 65.1151
93.7343 107.766 63.3798
94.2228 105.303 61.9129
93.6776 99.6783 64.0716
94.7236 104.507 65.9702
92.9653 100.535 66.0385
89.9744 97.092 62.2746
88.1336 97.65 66.5235
90.9117 110.608 65.631
93.3704 112.001 64.5268
90.8074 112.736 65.461
94.1071 111.331 63.2731
88.4001 114.391 64.7625
94.6025 103.92 60.1982
92.3591 100.895 58.9845
93.0432 101.048 57.9052
92.642 97.3453 59.0653
95.4957 105.935 61.2697
95.0966 101.183 57.2653
93.4894 98.8558 56.592
108.259 122.439 65.9235
105.312 121.496 64.9214
107.578 120.964 64.4287
102.574 120.821 65.1958
103.033 121.977 66.1301
108.224 123.854 67.8513
110.635 123.426 67.5508
109.667 120.244 64.5105
107.195 119.52 63.5916
103.201 122.627 67.7074
105.858 123.035 68.6029
103.196 122.275 69.1267
107.993 122.812 70.2095
100.331 121.084 66.8326
99.906 121.676 68.9941
102.595 121.955 70.9427
112.432 121.889 66.8063
111.845 120.266 65.1208
113.741 119.733 66.0748
110.901 119.115 63.4853
112.219 122.369 68.9077
115.203 118.692 67.3409
114.195 117.521 64.9722
104.855 118.542 63.2217
102.418 118.861 64.3662
102.696 116.659 63.671
100.446 118.086 65.5291
106.442 117.11 62.6661
102.806 114.421 63.1188
100.335 115.499 63.3607
95.1172 120.736 64.8322
92.4465 121.716 65.5198
92.9124 119.772 64.3751
90.3925 121.454 66.8917
92.1306 122.789 67.5534
97.2112 121.246 66.0311
97.505 119.455 65.3013
92.9519 117.961 63.6843
90.4744 118.824 64.4277
94.2807 122.566 67.8975
97.3782 121.432 67.0172
97.215 122.15 68.6914
92.5547 122.138 70.0134
98.0906 121.711 70.9819
98.2368 117.996 64.7141
95.56 117.908 63.3168
97.961 116.938 63.3088
95.1909 115.818 62.9614
98.6167 114.472 62.8668
88.6226 118.611 65.2469
88.3191 120.028 66.5125
87.3654 117.852 66.126
88.978 120.558 68.574
90.2832 117.181 63.4827
88.2097 115.457 64.7268
86.279 117.201 66.8445
106.333 90.8386 74.5508
110.21 87.7508 75.9452
107.476 93.3275 72.7365
112.124 90.429 77.0434
110.317 89.2064 78.0302
105.122 92.2185 75.8299
104.104 93.2098 73.0479
107.798 94.1313 69.3486
109.802 92.9276 71.1947
107.648 91.4383 78.7374
104.361 90.4675 78.1458
104.344 92.0527 79.9329
101.358 92.5508 76.1562
108.248 94.2292 77.3722
103.482 94.7475 79.8912
100.943 92.819 80.0759
103.695 92.2172 69.5928
106.475 92.8644 67.8735
103.518 90.6938 67.0512
108.425 93.1424 65.8642
102.238 92.7567 70.9794
100.771 91.1564 66.0358
103.981 90.9029 64.9151
112.525 93.7985 72.0201
112.52 93.3647 74.6556
111.662 95.9605 71.6051
110.008 95.7598 74.4237
111.831 93.5261 69.0078
113.22 96.4617 69.8902
111.062 99.1174 70.9405
94.1631 94.7472 72.9107
97.3088 97.1731 72.207
95.9744 97.0964 69.8374
99.583 96.1007 71.1446
98.708 91.7366 74.5916
93.5793 93.0529 76.2736
92.2994 95.4026 74.2894
92.5831 94.5685 68.1981
95.0419 94.2716 66.6301
97.4858 89.7085 77.6923
95.6165 92.5334 77.5509
97.7938 91.6179 79.0744
94.8445 96.0262 76.6093
98.3754 94.6951 79.8211
90.934 96.2006 72.3349
90.6991 94.5943 69.4998
91.2665 96.4708 69.8061
90.6138 93.1727 66.9369
92.0745 97.6418 73.4146
90.4062 98.7384 69.8799
88.9022 95.8205 68.3492
97.5475 95.4374 65.447
99.9735 94.6199 68.0932
99.4938 93.0304 65.2541
94.3667 92.1509 64.8503
99.0524 90.7232 64.2624
107.491 117.962 76.7771
108.83 119.241 73.3994
109.246 117.893 74.8815
111.336 121.576 71.1085
108.411 121.211 71.8704
105.714 118.439 77.4435
106.937 118.675 80.0984
110.663 117.905 76.7732
111.699 117.612 74.1336
106.434 121.315 72.1881
104.829 118.085 74.111
103.851 120.957 72.6498
109.179 118.704 80.5864
111.994 118.541 78.9532
111.938 118.261 82.4155
112.827 118.299 71.7679
113.317 120.83 70.1841
114.842 118.987 69.3362
107.933 114.19 61.3165
106.485 111.594 60.5036
108.009 112.247 60.9949
105.052 108.119 61.0053
105.115 111.338 60.5994
107.467 115.971 62.1605
109.806 116.855 62.3767
109.478 112.934 61.8681
107.141 110.573 61.905
104.95 113.072 60.757
105.664 115.03 61.7846
103.958 114.297 61.326
111.108 116.529 63.1591
111.568 114.03 62.6492
113.254 115.799 63.7973
106.114 107.464 61.0691
104.713 105.797 60.9836
106.355 104.047 58.7023
108.767 102.505 79.2351
109.828 102.861 77.7803
108.886 100.808 76.7178
110.757 103.941 76.6077
110.214 105.119 79.055
107.417 105.085 81.5923
106.828 102.85 80.1384
107.575 98.2287 76.3585
108.988 98.8754 74.8629
110.249 108.037 79.9288
109.396 106.656 81.9103
109.735 109.566 81.7972
105.283 101.158 78.7808
106.367 97.6348 77.8324
104.192 97.9967 78.8125
109.781 100.13 73.563
111.023 103.036 74.1395
111.035 101.179 72.2579
113.117 94.9611 62.4845
111.974 91.9391 60.9477
111.809 92.9041 64.001
109.991 89.3937 60.3098
110.409 92.4049 58.005
112.228 96.4506 61.33
114.09 96.1286 63.9399
112.268 93.274 65.771
110.743 91.3346 64.2926
110.243 95.0285 57.1649
110.593 97.6246 59.4158
109.198 98.3472 58.0298
115.557 97.1594 65.639
114.564 93.7468 67.5213
114.911 96.7866 68.1196
107.817 90.2643 63.9269
107.738 88.3636 61.3306
105.668 90.0472 63.4528
93.0313 117.062 76.703
91.6075 116.805 75.1646
91.8881 118.799 73.363
89.9823 116.462 73.6654
90.1103 117.141 76.7168
93.0959 118.187 80.1523
94.8372 118.158 76.9954
92.0543 120.914 71.6372
89.6817 120.839 70.7701
87.3469 117.637 78.379
90.4965 117.946 79.7517
88.2402 116.152 80.7435
96.046 117.437 74.0294
94.2237 120.928 72.1325
96.7953 120.602 72.3488
88.1241 119.175 69.7503
88.7249 116.928 71.1159
86.8275 117.279 68.6894
94.4539 111.029 61.3153
95.9477 110.499 60.6616
93.9579 113.145 61.0633
97.0995 111.053 60.5864
97.8006 107.165 61.102
95.288 108.413 61.4499
93.7703 111.308 62.122
92.1477 115.269 61.8869
94.3538 115.08 61.5638
97.9216 104.345 60.1628
96.3607 105.26 60.0943
96.5066 102.974 58.066
91.0819 112.566 62.5446
90.2655 115.105 62.4577
88.9671 114.386 63.0478
96.1414 114.468 61.5955
97.3264 112.302 61.1117
97.7567 113.799 61.7663
92.2823 103.584 76.6349
93.8389 103.393 78.0387
93.4831 101.557 76.1593
95.3829 103.291 79.4768
94.1422 105.092 80.0306
91.7523 105.423 77.0503
91.4896 103.906 75.0023
93.3799 99.9082 74.3569
94.6668 99.3735 76.1703
93.1464 106.978 80.6314
92.4486 108.056 78.3758
92.8316 109.451 80.4213
91.2176 102.769 73.1619
92.4262 100.735 72.8576
91.1598 100.654 71.3474
96.0045 98.6411 77.472
96.7007 101.021 79.0685
97.6706 98.3179 78.637
91.9759 89.6095 59.4503
90.807 92.2266 60.6079
91.3129 90.0719 62.108
90.2691 93.9055 61.8987
91.665 94.2599 59.3969
93.4168 90.3347 57.0561
94.757 89.0971 58.9171
93.101 90.4213 63.0446
90.5558 92.0963 64.3767
92.8975 95.5268 57.8188
93.0879 93.2914 55.8986
94.1987 96.0186 56.1574
96.2776 88.4025 60.474
95.7032 90.1883 63.2494
97.8942 89.9873 62.8875
88.901 93.1454 65.79
88.6116 95.7695 63.6287
87.6264 95.7664 66.2574
POLYGONS 1280  5120
3 164 162 163
3 163 44 164
3 162 43 163
3 164 42 162
3 166 165 163
3 163 43 166
3 165 44 163
3 166 14 165
3 168 167 162
3 162 42 168
3 167 43 162
3 168 13 167
3 170 169 164
3 164 44 170
3 169 42 164
3 170 12 169
3 173 171 172
3 172 46 173
3 171 43 172
3 173 45 171
3 167 174 172
3 172 43 167
3 174 46 172
3 167 13 174
3 175 166 171
3 171 45 175
3 166 43 171
3 175 14 166
3 177 176 173
3 173 46 177
3 176 45 173
3 177 4 176
3 180 178 179
3 179 48 180
3 178 42 179
3 180 47 178
3 169 181 179
3 179 42 169
3 181 48 179
3 169 12 181
3 182 168 178
3 178 47 182
3 168 42 178
3 182 13 168
3 184 183 180
3 180 48 184
3 183 47 180
3 184 8 183
3 187 185 186
3 186 50 187
3 185 44 186
3 187 49 185
3 165 188 186
3 186 44 165
3 188 50 186
3 165 14 188
3 189 170 185
3 185 49 189
3 170 44 185
3 189 12 170
3 191 190 187
3 187 50 191
3 190 49 187
3 191 7 190
3 194 192 193
3 193 53 194
3 192 52 193
3 194 51 192
3 196 195 193
3 193 52 196
3 195 53 193
3 196 16 195
3 198 197 192
3 192 51 198
3 197 52 192
3 198 14 197
3 200 199 194
3 194 53 200
3 199 51 194
3 200 15 199
3 203 201 202
3 202 45 203
3 201 52 202
3 203 54 201
3 197 175 202
3 202 52 197
3 175 45 202
3 197 14 175
3 204 196 201
3 201 54 204
3 196 52 201
3 204 16 196
3 176 205 203
3 203 45 176
3 205 54 203
3 176 4 205
3 208 206 207
3 207 55 208
3 206 51 207
3 208 50 206
3 199 209 207
3 207 51 199
3 209 55 207
3 199 15 209
3 188 198 206
3 206 50 188
3 198 51 206
3 188 14 198
3 210 191 208
3 208 55 210
3 191 50 208
3 210 7 191
3 213 211 212
3 212 57 213
3 211 53 212
3 213 56 211
3 195 214 212
3 212 53 195
3 214 57 212
3 195 16 214
3 215 200 211
3 211 56 215
3 200 53 211
3 215 15 200
3 217 216 213
3 213 57 217
3 216 56 213
3 217 9 216
3 220 218 219
3 219 60 220
3 218 59 219
3 220 58 218
3 222 221 219
3 219 59 222
3 221 60 219
3 222 19 221
3 224 223 218
3 218 58 224
3 223 59 218
3 224 18 223
3 226 225 220
3 220 60 226
3 225 58 220
3 226 17 225
3 229 227 228
3 228 62 229
3 227 59 228
3 229 61 227
3 223 230 228
3 228 59 223
3 230 62 228
3 223 18 230
3 231 222 227
3 227 61 231
3 222 59 227
3 231 19 222
3 233 232 229
3 229 62 233
3 232 61 229
3 233 5 232
3 236 234 235
3 235 64 236
3 234 58 235
3 236 63 234
3 225 237 235
3 235 58 225
3 237 64 235
3 225 17 237
3 238 224 234
3 234 63 238
3 224 58 234
3 238 18 224
3 240 239 236
3 236 64 240
3 239 63 236
3 240 6 239
3 243 241 242
3 242 66 243
3 241 60 242
3 243 65 241
3 221 244 242
3 242 60 221
3 244 66 242
3 221 19 244
3 245 226 241
3 241 65 245
3 226 60 241
3 245 17 226
3 247 246 243
3 243 66 247
3 246 65 243
3 247 11 246
3 250 248 249
3 249 69 250
3 248 68 249
3 250 67 248
3 252 251 249
3 249 68 252
3 251 69 249
3 252 18 251
3 254 253 248
3 248 67 254
3 253 68 248
3 254 21 253
3 256 255 250
3 250 69 256
3 255 67 250
3 256 20 255
3 259 257 258
3 258 70 259
3 257 68 258
3 259 62 257
3 253 260 258
3 258 68 253
3 260 70 258
3 253 21 260
3 230 252 257
3 257 62 230
3 252 68 257
3 230 18 252
3 261 233 259
3 259 70 261
3 233 62 259
3 261 5 233
3 264 262 263
3 263 72 264
3 262 67 263
3 264 71 262
3 255 265 263
3 263 67 255
3 265 72 263
3 255 20 265
3 266 254 262
3 262 71 266
3 254 67 262
3 266 21 254
3 268 267 264
3 264 72 268
3 267 71 264
3 268 10 267
3 271 269 270
3 270 63 271
3 269 69 270
3 271 73 269
3 251 238 270
3 270 69 251
3 238 63 270
3 251 18 238
3 272 256 269
3 269 73 272
3 256 69 269
3 272 20 256
3 239 273 271
3 271 63 239
3 273 73 271
3 239 6 273
3 276 274 275
3 275 76 276
3 274 75 275
3 276 74 274
3 278 277 275
3 275 75 278
3 277 76 275
3 278 24 277
3 280 279 274
3 274 74 280
3 279 75 274
3 280 23 279
3 282 281 276
3 276 76 282
3 281 74 276
3 282 22 281
3 285 283 284
3 284 78 285
3 283 75 284
3 285 77 283
3 279 286 284
3 284 75 279
3 286 78 284
3 279 23 286
3 287 278 283
3 283 77 287
3 278 75 283
3 287 24 278
3 289 288 285
3 285 78 289
3 288 77 285
3 289 0 288
3 292 290 291
3 291 80 292
3 290 74 291
3 292 79 290
3 281 293 291
3 291 74 281
3 293 80 291
3 281 22 293
3 294 280 290
3 290 79 294
3 280 74 290
3 294 23 280
3 296 295 292
3 292 80 296
3 295 79 292
3 296 4 295
3 299 297 298
3 298 82 299
3 297 76 298
3 299 81 297
3 277 300 298
3 298 76 277
3 300 82 298
3 277 24 300
3 301 282 297
3 297 81 301
3 282 76 297
3 301 22 282
3 303 302 299
3 299 82 303
3 302 81 299
3 303 3 302
3 306 304 305
3 305 85 306
3 304 84 305
3 306 83 304
3 308 307 305
3 305 84 308
3 307 85 305
3 308 26 307
3 310 309 304
3 304 83 310
3 309 84 304
3 310 24 309
3 312 311 306
3 306 85 312
3 311 83 306
3 312 25 311
3 315 313 314
3 314 77 315
3 313 84 314
3 315 86 313
3 309 287 314
3 314 84 309
3 287 77 314
3 309 24 287
3 316 308 313
3 313 86 316
3 308 84 313
3 316 26 308
3 288 317 315
3 315 77 288
3 317 86 315
3 288 0 317
3 320 318 319
3 319 87 320
3 318 83 319
3 320 82 318
3 311 321 319
3 319 83 311
3 321 87 319
3 311 25 321
3 300 310 318
3 318 82 300
3 310 83 318
3 300 24 310
3 322 303 320
3 320 87 322
3 303 82 320
3 322 3 303
3 325 323 324
3 324 89 325
3 323 85 324
3 325 88 323
3 307 326 324
3 324 85 307
3 326 89 324
3 307 26 326
3 327 312 323
3 323 88 327
3 312 85 323
3 327 25 312
3 329 328 325
3 325 89 329
3 328 88 325
3 329 5 328
3 332 330 331
3 331 92 332
3 330 91 331
3 332 90 330
3 334 333 331
3 331 91 334
3 333 92 331
3 334 29 333
3 336 335 330
3 330 90 336
3 335 91 330
3 336 28 335
3 338 337 332
3 332 92 338
3 337 90 332
3 338 27 337
3 341 339 340
3 340 94 341
3 339 91 340
3 341 93 339
3 335 342 340
3 340 91 335
3 342 94 340
3 335 28 342
3 343 334 339
3 339 93 343
3 334 91 339
3 343 29 334
3 345 344 341
3 341 94 345
3 344 93 341
3 345 2 344
3 348 346 347
3 347 96 348
3 346 90 347
3 348 95 346
3 337 349 347
3 347 90 337
3 349 96 347
3 337 27 349
3 350 336 346
3 346 95 350
3 336 90 346
3 350 28 336
3 352 351 348
3 348 96 352
3 351 95 348
3 352 7 351
3 355 353 354
3 354 98 355
3 353 92 354
3 355 97 353
3 333 356 354
3 354 92 333
3 356 98 354
3 333 29 356
3 357 338 353
3 353 97 357
3 338 92 353
3 357 27 338
3 359 358 355
3 355 98 359
3 358 97 355
3 359 1 358
3 362 360 361
3 361 101 362
3 360 100 361
3 362 99 360
3 364 363 361
3 361 100 364
3 363 101 361
3 364 31 363
3 366 365 360
3 360 99 366
3 365 100 360
3 366 29 365
3 368 367 362
3 362 101 368
3 367 99 362
3 368 30 367
3 371 369 370
3 370 93 371
3 369 100 370
3 371 102 369
3 365 343 370
3 370 100 365
3 343 93 370
3 365 29 343
3 372 364 369
3 369 102 372
3 364 100 369
3 372 31 364
3 344 373 371
3 371 93 344
3 373 102 371
3 344 2 373
3 376 374 375
3 375 103 376
3 374 99 375
3 376 98 374
3 367 377 375
3 375 99 367
3 377 103 375
3 367 30 377
3 356 366 374
3 374 98 356
3 366 99 374
3 356 29 366
3 378 359 376
3 376 103 378
3 359 98 376
3 378 1 359
3 381 379 380
3 380 105 381
3 379 101 380
3 381 104 379
3 363 382 380
3 380 101 363
3 382 105 380
3 363 31 382
3 383 368 379
3 379 104 383
3 368 101 379
3 383 30 368
3 385 384 381
3 381 105 385
3 384 104 381
3 385 6 384
3 388 386 387
3 387 108 388
3 386 107 387
3 388 106 386
3 390 389 387
3 387 107 390
3 389 108 387
3 390 34 389
3 392 391 386
3 386 106 392
3 391 107 386
3 392 33 391
3 394 393 388
3 388 108 394
3 393 106 388
3 394 32 393
3 397 395 396
3 396 110 397
3 395 107 396
3 397 109 395
3 391 398 396
3 396 107 391
3 398 110 396
3 391 33 398
3 399 390 395
3 395 109 399
3 390 107 395
3 399 34 390
3 401 400 397
3 397 110 401
3 400 109 397
3 401 8 400
3 404 402 403
3 403 112 404
3 402 106 403
3 404 111 402
3 393 405 403
3 403 106 393
3 405 112 403
3 393 32 405
3 406 392 402
3 402 111 406
3 392 106 402
3 406 33 392
3 408 407 404
3 404 112 408
3 407 111 404
3 408 0 407
3 411 409 410
3 410 114 411
3 409 108 410
3 411 113 409
3 389 412 410
3 410 108 389
3 412 114 410
3 389 34 412
3 413 394 409
3 409 113 413
3 394 108 409
3 413 32 394
3 415 414 411
3 411 114 415
3 414 113 411
3 415 11 414
3 418 416 417
3 417 117 418
3 416 116 417
3 418 115 416
3 420 419 417
3 417 116 420
3 419 117 417
3 420 36 419
3 422 421 416
3 416 115 422
3 421 116 416
3 422 34 421
3 424 423 418
3 418 117 424
3 423 115 418
3 424 35 423
3 427 425 426
3 426 109 427
3 425 116 426
3 427 118 425
3 421 399 426
3 426 116 421
3 399 109 426
3 421 34 399
3 428 420 425
3 425 118 428
3 420 116 425
3 428 36 420
3 400 429 427
3 427 109 400
3 429 118 427
3 400 8 429
3 432 430 431
3 431 119 432
3 430 115 431
3 432 114 430
3 423 433 431
3 431 115 423
3 433 119 431
3 423 35 433
3 412 422 430
3 430 114 412
3 422 115 430
3 412 34 422
3 434 415 432
3 432 119 434
3 415 114 432
3 434 11 415
3 437 435 436
3 436 121 437
3 435 117 436
3 437 120 435
3 419 438 436
3 436 117 419
3 438 121 436
3 419 36 438
3 439 424 435
3 435 120 439
3 424 117 435
3 439 35 424
3 441 440 437
3 437 121 441
3 440 120 437
3 441 1 440
3 444 442 443
3 443 124 444
3 442 123 443
3 444 122 442
3 446 445 443
3 443 123 446
3 445 124 443
3 446 39 445
3 448 447 442
3 442 122 448
3 447 123 442
3 448 38 447
3 450 449 444
3 444 124 450
3 449 122 444
3 450 37 449
3 453 451 452
3 452 126 453
3 451 123 452
3 453 125 451
3 447 454 452
3 452 123 447
3 454 126 452
3 447 38 454
3 455 446 451
3 451 125 455
3 446 123 451
3 455 39 446
3 457 456 453
3 453 126 457
3 456 125 453
3 457 9 456
3 460 458 459
3 459 128 460
3 458 122 459
3 460 127 458
3 449 461 459
3 459 122 449
3 461 128 459
3 449 37 461
3 462 448 458
3 458 127 462
3 448 122 458
3 462 38 448
3 464 463 460
3 460 128 464
3 463 127 460
3 464 10 463
3 467 465 466
3 466 130 467
3 465 124 466
3 467 129 465
3 445 468 466
3 466 124 445
3 468 130 466
3 445 39 468
3 469 450 465
3 465 129 469
3 450 124 465
3 469 37 450
3 471 470 467
3 467 130 471
3 470 129 467
3 471 3 470
3 474 472 473
3 473 133 474
3 472 132 473
3 474 131 472
3 476 475 473
3 473 132 476
3 475 133 473
3 476 38 475
3 478 477 472
3 472 131 478
3 477 132 472
3 478 41 477
3 480 479 474
3 474 133 480
3 479 131 474
3 480 40 479
3 483 481 482
3 482 134 483
3 481 132 482
3 483 126 481
3 477 484 482
3 482 132 477
3 484 134 482
3 477 41 484
3 454 476 481
3 481 126 454
3 476 132 481
3 454 38 476
3 485 457 483
3 483 134 485
3 457 126 483
3 485 9 457
3 488 486 487
3 487 136 488
3 486 131 487
3 488 135 486
3 479 489 487
3 487 131 479
3 489 136 487
3 479 40 489
3 490 478 486
3 486 135 490
3 478 131 486
3 490 41 478
3 492 491 488
3 488 136 492
3 491 135 488
3 492 2 491
3 495 493 494
3 494 127 495
3 493 133 494
3 495 137 493
3 475 462 494
3 494 133 475
3 462 127 494
3 475 38 462
3 496 480 493
3 493 137 496
3 480 133 493
3 496 40 480
3 463 497 495
3 495 127 463
3 497 137 495
3 463 10 497
3 500 498 499
3 499 140 500
3 498 139 499
3 500 138 498
3 502 501 499
3 499 139 502
3 501 140 499
3 502 33 501
3 504 503 498
3 498 138 504
3 503 139 498
3 504 13 503
3 506 505 500
3 500 140 506
3 505 138 500
3 506 23 505
3 509 507 508
3 508 47 509
3 507 139 508
3 509 110 507
3 503 182 508
3 508 139 503
3 182 47 508
3 503 13 182
3 398 502 507
3 507 110 398
3 502 139 507
3 398 33 502
3 183 401 509
3 509 47 183
3 401 110 509
3 183 8 401
3 512 510 511
3 511 79 512
3 510 138 511
3 512 46 510
3 505 294 511
3 511 138 505
3 294 79 511
3 505 23 294
3 174 504 510
3 510 46 174
3 504 138 510
3 174 13 504
3 295 177 512
3 512 79 295
3 177 46 512
3 295 4 177
3 515 513 514
3 514 111 515
3 513 140 514
3 515 78 513
3 501 406 514
3 514 140 501
3 406 111 514
3 501 33 406
3 286 506 513
3 513 78 286
3 506 140 513
3 286 23 506
3 407 289 515
3 515 111 407
3 289 78 515
3 407 0 289
3 518 516 517
3 517 143 518
3 516 142 517
3 518 141 516
3 520 519 517
3 517 142 520
3 519 143 517
3 520 19 519
3 522 521 516
3 516 141 522
3 521 142 516
3 522 32 521
3 524 523 518
3 518 143 524
3 523 141 518
3 524 26 523
3 527 525 526
3 526 113 527
3 525 142 526
3 527 66 525
3 521 413 526
3 526 142 521
3 413 113 526
3 521 32 413
3 244 520 525
3 525 66 244
3 520 142 525
3 244 19 520
3 414 247 527
3 527 113 414
3 247 66 527
3 414 11 247
3 530 528 529
3 529 86 530
3 528 141 529
3 530 112 528
3 523 316 529
3 529 141 523
3 316 86 529
3 523 26 316
3 405 522 528
3 528 112 405
3 522 141 528
3 405 32 522
3 317 408 530
3 530 86 317
3 408 112 530
3 317 0 408
3 533 531 532
3 532 61 533
3 531 143 532
3 533 89 531
3 519 231 532
3 532 143 519
3 231 61 532
3 519 19 231
3 326 524 531
3 531 89 326
3 524 143 531
3 326 26 524
3 232 329 533
3 533 61 232
3 329 89 533
3 232 5 329
3 536 534 535
3 535 146 536
3 534 145 535
3 536 144 534
3 538 537 535
3 535 145 538
3 537 146 535
3 538 22 537
3 540 539 534
3 534 144 540
3 539 145 534
3 540 16 539
3 542 541 536
3 536 146 542
3 541 144 536
3 542 39 541
3 545 543 544
3 544 54 545
3 543 145 544
3 545 80 543
3 539 204 544
3 544 145 539
3 204 54 544
3 539 16 204
3 293 538 543
3 543 80 293
3 538 145 543
3 293 22 538
3 205 296 545
3 545 54 205
3 296 80 545
3 205 4 296
3 548 546 547
3 547 125 548
3 546 144 547
3 548 57 546
3 541 455 547
3 547 144 541
3 455 125 547
3 541 39 455
3 214 540 546
3 546 57 214
3 540 144 546
3 214 16 540
3 456 217 548
3 548 125 456
3 217 57 548
3 456 9 217
3 551 549 550
3 550 81 551
3 549 146 550
3 551 130 549
3 537 301 550
3 550 146 537
3 301 81 550
3 537 22 301
3 468 542 549
3 549 130 468
3 542 146 549
3 468 39 542
3 302 471 551
3 551 81 302
3 471 130 551
3 302 3 471
3 554 552 553
3 553 149 554
3 552 148 553
3 554 147 552
3 556 555 553
3 553 148 556
3 555 149 553
3 556 21 555
3 558 557 552
3 552 147 558
3 557 148 552
3 558 25 557
3 560 559 554
3 554 149 560
3 559 147 554
3 560 37 559
3 563 561 562
3 562 88 563
3 561 148 562
3 563 70 561
3 557 327 562
3 562 148 557
3 327 88 562
3 557 25 327
3 260 556 561
3 561 70 260
3 556 148 561
3 260 21 556
3 328 261 563
3 563 88 328
3 261 70 563
3 328 5 261
3 566 564 565
3 565 129 566
3 564 147 565
3 566 87 564
3 559 469 565
3 565 147 559
3 469 129 565
3 559 37 469
3 321 558 564
3 564 87 321
3 558 147 564
3 321 25 558
3 470 322 566
3 566 129 470
3 322 87 566
3 470 3 322
3 569 567 568
3 568 71 569
3 567 149 568
3 569 128 567
3 555 266 568
3 568 149 555
3 266 71 568
3 555 21 266
3 461 560 567
3 567 128 461
3 560 149 567
3 461 37 560
3 267 464 569
3 569 71 267
3 464 128 569
3 267 10 464
3 572 570 571
3 571 152 572
3 570 151 571
3 572 150 570
3 574 573 571
3 571 151 574
3 573 152 571
3 574 27 573
3 576 575 570
3 570 150 576
3 575 151 570
3 576 12 575
3 578 577 572
3 572 152 578
3 577 150 572
3 578 36 577
3 581 579 580
3 580 49 581
3 579 151 580
3 581 96 579
3 575 189 580
3 580 151 575
3 189 49 580
3 575 12 189
3 349 574 579
3 579 96 349
3 574 151 579
3 349 27 574
3 190 352 581
3 581 49 190
3 352 96 581
3 190 7 352
3 584 582 583
3 583 118 584
3 582 150 583
3 584 48 582
3 577 428 583
3 583 150 577
3 428 118 583
3 577 36 428
3 181 576 582
3 582 48 181
3 576 150 582
3 181 12 576
3 429 184 584
3 584 118 429
3 184 48 584
3 429 8 184
3 587 585 586
3 586 97 587
3 585 152 586
3 587 121 585
3 573 357 586
3 586 152 573
3 357 97 586
3 573 27 357
3 438 578 585
3 585 121 438
3 578 152 585
3 438 36 578
3 358 441 587
3 587 97 358
3 441 121 587
3 358 1 441
3 590 588 589
3 589 155 590
3 588 154 589
3 590 153 588
3 592 591 589
3 589 154 592
3 591 155 589
3 592 17 591
3 594 593 588
3 588 153 594
3 593 154 588
3 594 30 593
3 596 595 590
3 590 155 596
3 595 153 590
3 596 35 595
3 599 597 598
3 598 104 599
3 597 154 598
3 599 64 597
3 593 383 598
3 598 154 593
3 383 104 598
3 593 30 383
3 237 592 597
3 597 64 237
3 592 154 597
3 237 17 592
3 384 240 599
3 599 104 384
3 240 64 599
3 384 6 240
3 602 600 601
3 601 120 602
3 600 153 601
3 602 103 600
3 595 439 601
3 601 153 595
3 439 120 601
3 595 35 439
3 377 594 600
3 600 103 377
3 594 153 600
3 377 30 594
3 440 378 602
3 602 120 440
3 378 103 602
3 440 1 378
3 605 603 604
3 604 65 605
3 603 155 604
3 605 119 603
3 591 245 604
3 604 155 591
3 245 65 604
3 591 17 245
3 433 596 603
3 603 119 433
3 596 155 603
3 433 35 596
3 246 434 605
3 605 65 246
3 434 119 605
3 246 11 434
3 608 606 607
3 607 158 608
3 606 157 607
3 608 156 606
3 610 609 607
3 607 157 610
3 609 158 607
3 610 15 609
3 612 611 606
3 606 156 612
3 611 157 606
3 612 28 611
3 614 613 608
3 608 158 614
3 613 156 608
3 614 41 613
3 617 615 616
3 616 95 617
3 615 157 616
3 617 55 615
3 611 350 616
3 616 157 611
3 350 95 616
3 611 28 350
3 209 610 615
3 615 55 209
3 610 157 615
3 209 15 610
3 351 210 617
3 617 95 351
3 210 55 617
3 351 7 210
3 620 618 619
3 619 135 620
3 618 156 619
3 620 94 618
3 613 490 619
3 619 156 613
3 490 135 619
3 613 41 490
3 342 612 618
3 618 94 342
3 612 156 618
3 342 28 612
3 491 345 620
3 620 135 491
3 345 94 620
3 491 2 345
3 623 621 622
3 622 56 623
3 621 158 622
3 623 134 621
3 609 215 622
3 622 158 609
3 215 56 622
3 609 15 215
3 484 614 621
3 621 134 484
3 614 158 621
3 484 41 614
3 216 485 623
3 623 56 216
3 485 134 623
3 216 9 485
3 626 624 625
3 625 161 626
3 624 160 625
3 626 159 624
3 628 627 625
3 625 160 628
3 627 161 625
3 628 31 627
3 630 629 624
3 624 159 630
3 629 160 624
3 630 20 629
3 632 631 626
3 626 161 632
3 631 159 626
3 632 40 631
3 635 633 634
3 634 73 635
3 633 160 634
3 635 105 633
3 629 272 634
3 634 160 629
3 272 73 634
3 629 20 272
3 382 628 633
3 633 105 382
3 628 160 633
3 382 31 628
3 273 385 635
3 635 73 273
3 385 105 635
3 273 6 385
3 638 636 637
3 637 137 638
3 636 159 637
3 638 72 636
3 631 496 637
3 637 159 631
3 496 137 637
3 631 40 496
3 265 630 636
3 636 72 265
3 630 159 636
3 265 20 630
3 497 268 638
3 638 137 497
3 268 72 638
3 497 10 268
3 641 639 640
3 640 102 641
3 639 161 640
3 641 136 639
3 627 372 640
3 640 161 627
3 372 102 640
3 627 31 372
3 489 632 639
3 639 136 489
3 632 161 639
3 489 40 632
3 373 492 641
3 641 102 373
3 492 136 641
3 373 2 492
