# vtk DataFile Version 3.0
this file was written using fslvtkio
ASCII
DATASET POLYDATA
POINTS 664 float
125.378 157.6 126.937
125.358 158.57 127.596
126.225 157.875 127.687
126.542 156.987 127.125
125.868 156.595 126.414
126.882 156.36 126.569
124.811 158.929 127.035
124.907 160.161 127.765
125.07 159.486 128.054
124.776 157.94 126.205
125.067 156.837 125.855
126.518 155.896 125.901
125.668 156.06 125.322
126.636 155.216 125.37
126.378 155.154 124.77
127.356 154.551 124.846
124.818 159.5 126.51
125.606 160.193 126.839
124.324 158.585 125.92
124.416 157.42 125.262
124.816 156.257 124.928
125.672 155.21 124.462
127.131 154.399 124.164
125.377 159.5 125.903
126.074 159.881 125.963
125.028 158.839 125.243
124.655 157.864 124.578
124.796 156.587 124.14
125.346 155.461 123.87
126.575 154.461 123.589
125.978 158.886 124.946
125.841 157.894 124.213
125.725 156.93 123.589
126.002 155.774 123.182
126.482 154.902 123.113
125.697 159.033 128.204
125.316 160.334 128.827
126.135 159.375 128.737
126.573 158.398 128.528
127.101 157.278 127.817
127.71 156.353 126.949
127.5 155.708 126.039
128.383 155.533 126.161
125.36 160.999 127.959
127.896 154.932 125.343
128.239 153.895 124.531
126.362 160.68 126.853
127.758 153.736 123.558
126.873 159.957 125.775
127.186 153.998 122.786
126.73 158.989 124.893
126.802 157.937 124.124
126.826 156.987 123.265
126.979 155.991 122.625
127.373 154.866 122.264
127.321 159.074 129.804
127.463 159.694 130.488
127.967 158.905 130.212
128.427 158.279 129.777
127.948 158.001 129.137
129.089 157.73 129.025
126.334 159.898 129.727
126.364 160.595 130.314
127 158.518 129.1
128.665 157.322 128.469
127.795 157.399 128.146
128.888 156.774 127.834
125.555 160.893 129.642
126.419 161.973 129.363
126.28 161.612 130.263
128.457 156.328 127.141
129.026 155.182 126.357
128.64 154.588 125.434
129.194 153.952 125.152
125.813 161.27 128.697
127.096 161.481 128.355
128.892 153.232 124.089
126.682 160.974 127.672
127.9 161.197 127.651
128.558 153.132 123.255
128 153.241 122.61
128.808 152.447 122.325
127.332 160.763 126.931
127.613 160.341 125.904
127.938 153.755 121.948
128.674 152.75 121.65
127.445 158.972 125.091
127.601 157.96 124.206
127.852 157.068 123.145
128.006 156.156 122.323
128.326 155.073 121.684
128.837 153.902 121.198
128.932 158.718 130.418
128.65 159.717 131.158
129.455 159.306 131.221
129.954 158.293 130.577
129.645 157.748 129.575
130.895 157.724 129.515
130.969 157.154 128.566
132.272 157.062 128.552
127.986 160.188 130.843
128.386 161.187 131.348
128.444 160.464 131.475
129.893 157.05 128.467
131.264 156.252 127.976
130.33 156.28 127.59
131.006 155.416 127.365
130.433 155.118 126.843
131.045 154.706 126.561
127.787 161.704 130.86
128.539 162.686 130.456
128.696 162.394 131.142
126.941 161.084 130.733
129.304 156.062 127.354
129.747 155.264 126.758
130.059 154.267 125.948
127.404 162.354 130.178
128.479 163.101 129.777
129.711 153.826 125.417
129.559 152.927 124.003
129.982 152.821 124.369
130.011 151.988 123.272
130.578 151.825 123.411
127.699 162.385 129.283
128.114 161.875 128.403
129.357 152.49 122.916
129.992 151.818 122.421
130.77 151.293 122.325
128.866 161.405 127.421
129.57 151.82 121.645
130.64 151.285 121.461
128.324 160.698 126.721
128.547 160.318 125.847
129.443 152.539 120.922
130.375 151.633 120.71
128.161 159.412 125.241
128.294 158.27 124.553
128.587 157.043 123.648
128.898 156.308 122.61
129.292 155.393 121.801
129.668 154.369 121.026
130.123 153.053 120.424
130.156 160.343 131.944
130.303 161.698 132.282
130.924 160.952 132.342
131.019 159.674 132.05
130.346 159.115 131.386
131.417 158.627 131.449
131.048 158.09 130.535
132.248 157.895 130.448
132.043 157.572 129.518
133.182 157.188 129.268
129.334 160.639 131.708
129.677 162.02 131.955
133.132 156.572 128.224
129.029 162.043 131.613
129.774 163.225 130.755
129.864 162.891 131.648
132.408 156.275 127.624
131.928 155.01 127.138
131.499 154.307 125.872
129.599 163.481 130.121
131.218 153.799 125.257
129.564 163.294 129.188
130.75 153.349 124.84
130.818 152.399 124.075
131.28 151.567 123.001
128.761 162.402 128.817
129.388 162.037 127.781
131.519 151.25 121.703
129.966 161.131 126.615
131.424 151.25 120.68
129.305 160.669 126.44
129.561 160.01 125.581
129.674 156.971 123.412
130.575 157.301 123.677
129.526 157.706 123.909
130.686 156.657 123.103
131.127 152.154 120.146
129.148 159.445 125.023
129.257 158.392 124.385
129.72 156.375 122.865
130.213 155.784 122.053
130.531 154.804 121.287
130.887 153.742 120.555
132.775 160.022 132.481
133.129 160.744 133.061
133.48 159.905 132.848
133.816 159.119 132.489
133.271 158.813 131.808
134.347 158.115 131.865
133.681 157.827 131.109
134.92 157.49 131.123
134.439 157.317 130.275
135.401 156.817 130.159
132.23 161.496 132.825
132.358 162.694 132.907
133.131 162.046 133.132
131.606 160.661 132.604
132.071 159.393 132.034
132.605 158.296 131.255
133.372 157.591 130.223
134.282 156.891 129.382
131.19 162.178 132.692
131.741 163.222 132.338
133.918 156.55 128.532
130.724 162.897 132.096
130.688 163.504 131.188
133.802 156.507 127.747
130.831 163.697 130.143
133.397 156.181 127.25
133.08 155.154 126.852
132.367 154.537 126.185
132.076 153.654 125.072
132.751 154.027 125.214
130.719 163.678 129.446
131.7 153.042 124.496
132.605 153.089 124.052
130.701 163.084 128.646
131.774 152.265 123.636
131.928 151.866 122.414
129.799 162.423 128.377
130.472 161.735 127.203
132.189 151.57 121.209
130.995 160.606 126.147
130.321 159.865 125.794
130.814 158.797 124.998
131.354 159.455 125.555
131.186 157.715 124.456
131.693 158.451 125.013
131.392 156.697 123.728
132.319 157.527 124.265
131.63 155.71 122.846
132.388 156.483 123.411
131.777 154.747 122.12
132.438 155.202 122.869
132.479 154.194 122.444
132.286 152.056 120.391
130.02 159.002 124.878
130.367 158.054 124.28
131.004 156.12 122.641
131.199 155.274 121.787
132.244 153.839 121.637
131.646 154.169 121.033
131.75 153.01 120.515
132.45 153.035 120.969
134.272 159.726 133.124
134.395 160.871 133.653
135.247 160.191 133.51
135.477 159.04 133.05
134.922 158.47 132.474
136.053 157.882 132.323
135.815 157.597 131.689
137.063 156.72 131.206
136.08 157.1 130.854
136.809 156.31 130.437
133.648 161.326 133.468
133.888 162.952 133.455
134.426 162.059 133.782
135.856 156.32 129.668
133.442 163.204 132.79
135.5 156.177 129.096
134.785 156.105 128.507
135.999 155.83 128.51
132.645 163.559 132.108
133.369 163.722 131.453
133.732 163.641 132.106
134.563 156.804 127.611
135.38 156.382 127.864
131.685 163.648 131.546
132.717 163.813 130.976
134.262 156.298 127.001
135.113 156.139 126.631
131.58 163.813 130.629
132.755 164.112 130.286
134.361 155.567 126.392
133.428 154.659 126.047
133.258 154.07 124.904
132.029 163.739 129.627
131.988 163.17 128.829
133.563 153.649 124.214
131.759 162.694 128.087
132.494 152.473 123.092
133.138 153.295 123.497
130.884 162.379 127.792
131.494 161.353 127.152
133.204 156.739 123.719
133.682 157.145 124.312
133.186 157.756 124.609
133.17 155.392 123.248
133.887 156.414 123.931
133.018 154.039 122.915
133.547 155.076 123.737
132.656 153.022 122.698
133.32 154.125 123.536
132.199 152.456 122.198
131.485 160.87 126.528
132.096 159.808 125.852
132.499 158.683 125.216
132.692 153.191 122.115
132.655 152.429 121.425
137.085 159.253 133.904
136.972 160.525 134.37
138.025 160.005 134.344
138.077 158.61 133.669
137.222 158.018 133.124
138.189 157.471 132.918
137.773 156.979 132.15
138.816 156.515 131.915
136.247 160.761 134.089
136.12 162.231 133.952
136.656 161.632 134.465
136.156 159.887 133.526
136.487 158.731 133.115
137.043 157.62 132.175
138.604 155.943 131.134
137.839 156.384 131.18
138.731 155.039 130.188
135.312 161.619 134.025
135.356 162.89 133.498
137.67 155.562 130.383
136.94 155.633 129.703
137.787 154.81 129.535
135.096 163.512 133.024
136.473 155.608 129.07
137.295 154.89 128.802
134.553 163.581 132.489
134.863 163.712 131.708
135.826 163.636 132.272
136.683 155.824 128.421
134.615 163.884 131.031
135.358 156.659 127.688
134.08 163.716 130.509
135.381 156.843 126.757
133.778 163.588 129.949
134.94 155.665 125.539
135.369 156.491 125.803
134.132 154.837 125.59
133.083 163.67 129.432
132.721 162.293 128.002
133.155 163.028 128.721
133.564 162.247 128.196
134.833 156.229 124.881
135.313 156.896 125.48
134.836 157.121 125.32
134.416 155.188 124.575
134.132 154.579 124.806
132.31 161.895 127.329
133.558 161.643 127.405
132.964 161.127 126.921
133.78 160.676 126.923
134.256 157.127 124.721
134.673 157.634 125.299
134.096 158.037 125.515
134.317 156.069 124.185
134.342 155.111 124.015
133.935 154.209 123.98
132.209 160.393 126.68
133.35 160.015 126.465
132.837 159.227 126.036
133.382 158.188 125.346
133.649 159.032 126.137
137.616 161.188 134.49
137.465 162.346 134.347
138.394 161.473 134.528
138.772 160.195 134.753
138.7 158.742 133.953
139.1 157.21 132.897
139.534 155.907 131.485
136.91 162.839 133.644
139.331 154.923 130.444
140.003 153.707 129.404
136.501 163.445 133.043
138.892 154.436 129.445
138.606 154.72 128.768
136.996 163.576 132.34
138.047 155.37 128.411
135.868 163.631 131.204
136.832 163.549 131.45
136.748 156.249 128.304
135.924 163.364 130.417
135.92 156.996 128.007
137.063 156.838 128.25
136.397 157.57 127.966
135.146 163.12 130.014
135.541 157.363 127.313
135.749 157.846 127.425
134.592 163.078 129.663
133.902 163.287 129.356
134.657 162.646 129.178
135.145 157.337 126.34
135.116 157.961 126.996
134.012 162.786 128.859
134.068 161.676 127.87
134.418 161.947 128.364
134.534 161.202 127.895
134.806 157.885 126.051
135.258 158.745 127.21
134.976 159.062 126.844
134.29 159.733 126.537
134.386 160.739 127.381
134.447 158.774 126.22
134.826 159.884 127.185
139.544 159.013 134.247
139.894 160.461 134.428
140.207 159.034 134.516
140.268 157.696 133.865
139.462 157.673 133.566
140.384 156.46 132.909
139.699 156.634 132.831
140.344 156.001 131.928
138.474 162.666 133.97
139.359 161.491 134.361
140.26 155.688 131.263
140.125 154.654 130.389
140.835 153.813 129.881
138.017 162.98 133.29
140.982 153.571 128.877
138.325 163.257 132.58
139.686 154.264 128.697
140.561 154.598 128.61
138.331 162.911 131.839
139.383 155.341 128.575
139.792 155.936 128.755
137.066 162.926 130.495
137.78 163.066 131.305
138.643 156.623 128.537
139.003 157.022 129.016
138.303 157.676 128.851
138.135 156.091 128.359
136.481 162.49 129.776
137.568 162.216 130.165
137.005 161.512 129.418
137.326 160.368 128.935
137.635 161.069 129.763
137.673 159.178 128.543
137.753 159.899 129.495
137.842 157.958 128.307
137.909 158.714 129.215
137.616 157.297 128.217
135.349 162.482 129.46
136.045 161.845 129.034
136.249 160.855 128.813
136.86 159.944 128.329
136.966 158.918 128.097
137.006 158.05 127.818
135.048 162.076 128.841
135.217 161.278 128.56
135.802 160.464 128.282
136.232 159.595 127.98
136.066 158.63 127.605
135.053 160.463 127.853
135.425 159.578 127.605
140.627 160.332 134.334
140.96 159.051 134.331
141.107 157.631 133.786
141.271 156.457 132.873
141.379 155.571 131.696
141.017 155.125 130.773
141.624 154.282 130.2
139.648 162.168 133.632
140.489 161.429 133.839
141.637 153.659 129.163
139.441 162.81 132.964
140.399 162.032 132.888
141.366 154.942 129.014
139.745 162.774 131.961
140.529 155.898 129.085
139.431 162.306 131.408
138.545 162.137 130.936
139.607 161.463 130.946
139.047 158.05 129.952
139.715 158.144 130.31
139.104 158.958 130.326
139.567 157.02 129.382
140.175 157.06 129.71
138.063 161.789 130.365
138.861 160.99 130.672
138.209 160.421 130.236
138.326 159.26 129.977
139.043 159.921 130.557
138.418 158.063 129.592
141.698 158.343 134.085
141.626 159.765 134.226
142.437 159.159 134.234
142.356 157.795 133.984
141.908 156.716 133.336
142.662 156.611 133.366
142.086 155.73 132.242
142.797 155.59 132.271
142.082 154.844 131.05
142.765 154.833 131.216
142.565 154.169 130.278
143.104 153.876 130.401
141.45 160.736 133.766
142.142 153.87 129.619
142.908 153.421 129.511
141.608 161.402 133.138
142.208 154.721 129.182
142.677 153.897 129.158
140.809 162.117 131.898
141.297 161.6 132.488
141.628 157.242 130.107
142.637 157.3 130.2
141.688 158.352 130.637
141.642 156.1 129.588
142.351 156.058 129.786
142.827 154.941 129.514
140.352 161.597 131.305
141.504 161.135 131.448
140.766 160.436 131.063
140.939 158.924 130.607
141.562 159.73 131.017
140.58 157.807 130.244
140.93 156.423 129.669
139.85 160.41 130.928
139.862 159.246 130.817
143.332 156.185 133.13
143.295 157.222 133.871
144.267 156.825 133.487
144.248 155.963 132.936
143.55 155.518 132.355
144.208 155.165 132.229
142.439 160.256 133.821
143.246 159.747 133.973
143.042 158.375 134.223
143.309 154.767 131.563
143.67 153.874 130.701
143.431 153.102 129.811
144.057 152.887 130.154
142.437 160.526 132.966
143.827 153.593 129.18
144.289 153.101 129.277
142.436 160.919 132.226
144.652 154.272 129.332
143.484 154.268 129.294
142.438 160.522 131.667
142.125 160.37 131.379
142.275 158.85 130.799
142.993 158.844 130.747
143.479 157.783 130.429
143.268 156.659 130.235
143.251 155.571 129.897
144.118 158.15 133.841
145.215 157.258 133.191
145.179 156.227 132.797
144.871 155.132 132.417
143.947 154.447 131.582
144.533 154.348 131.711
144.249 153.982 131.121
144.687 153.578 130.874
143.206 160.334 133.076
143.935 160.111 133.283
144.043 159.24 133.818
144.617 152.78 130.539
144.695 152.43 129.622
145.119 152.101 130.153
145.469 151.938 129.454
145.924 151.32 129.868
143.346 160.057 131.962
143.933 159.973 132.359
144.986 153.274 129.196
145.666 152.616 129.149
146.32 151.685 129.275
143.129 159.83 131.375
144.014 159.119 131.518
143.598 158.793 131.05
143.989 157.261 130.412
144.347 157.967 130.839
144.123 156.039 130.066
144.763 156.631 130.544
144.161 155.048 129.582
144.842 155.417 130.021
145.469 154.656 129.628
145.74 153.704 129.385
146.497 152.589 129.164
145.157 158.472 133.42
146.056 157.322 132.772
146.052 156.344 132.299
145.813 155.233 132.141
145.185 154.264 131.709
145.477 153.538 131.179
144.778 159.901 132.996
145.383 159.363 133.313
145.456 152.605 130.81
145.708 151.606 130.52
146.654 151.021 129.754
145.102 159.978 132.262
146.975 151.594 129.238
144.733 159.219 131.717
144.93 158.112 131.146
145.272 157.203 130.876
145.832 157.959 131.083
145.561 156.274 130.471
145.71 155.473 130.202
146.167 154.549 129.72
146.497 153.683 129.519
146.877 152.875 129.195
146.214 157.063 130.543
146.408 156.127 130.242
146.576 155.337 129.973
146.834 154.553 129.724
146.499 157.82 132.73
146.927 156.859 132.179
146.829 155.793 131.746
146.119 154.634 131.547
145.923 159.575 132.643
146.512 158.688 132.916
147.271 157.979 132.429
147.613 157.037 131.754
146.959 155.096 131.204
146.274 153.614 131.061
146.478 152.766 130.796
146.65 151.915 130.549
146.904 150.949 130.093
147.426 150.919 129.225
147.911 151.059 129.302
145.942 159.632 131.823
146.823 159.334 132.111
147.331 151.983 129.068
147.934 151.489 128.796
145.775 158.978 131.373
146.722 158.617 131.068
147.808 153.588 128.965
147.252 154.09 129.487
147.667 152.689 128.903
146.855 157.786 130.635
147.118 156.915 130.213
147.31 156.023 129.858
147.407 155.208 129.643
147.665 158.841 132.017
148.254 157.969 131.654
148.377 156.977 131.216
147.688 155.943 131.163
147.289 154.661 130.723
147.036 153.77 130.663
147.314 152.578 130.453
147.756 151.55 129.991
148.399 151.699 129.071
147.186 159.198 131.496
148.235 158.736 131.222
148.946 157.816 130.729
148.241 152.246 128.753
147.741 158.542 130.777
148.713 158.08 130.253
148.614 154.276 128.847
148.078 154.772 129.126
148.488 153.224 128.718
147.819 157.708 130.154
148.036 156.742 129.637
148.355 155.828 129.148
148.721 156.581 130.558
148.223 155.406 130.376
147.775 154.393 130.176
147.988 153.509 129.972
148.112 152.4 129.745
149.192 157.159 129.931
149.065 156.088 129.755
148.527 154.963 129.705
148.448 154.026 129.414
148.381 152.956 129.272
148.81 157.395 129.664
149.033 156.377 129.283
148.862 155.286 129.121
POLYGONS 1324  5296
3 0 1 2
3 0 3 4
3 2 3 0
3 3 5 4
3 6 7 8
3 1 6 8
3 1 0 6
3 0 9 6
3 4 10 0
3 10 9 0
3 11 4 5
3 11 12 4
3 12 10 4
3 12 13 14
3 11 13 12
3 13 15 14
3 16 7 6
3 17 7 16
3 9 18 6
3 18 16 6
3 10 19 9
3 19 18 9
3 12 20 10
3 20 19 10
3 14 21 12
3 21 20 12
3 22 14 15
3 21 14 22
3 23 17 16
3 24 17 23
3 18 25 16
3 25 23 16
3 19 26 18
3 26 25 18
3 20 27 19
3 27 26 19
3 21 28 20
3 28 27 20
3 29 21 22
3 28 21 29
3 23 30 24
3 25 30 23
3 31 30 25
3 26 31 25
3 32 31 26
3 27 32 26
3 33 32 27
3 28 33 27
3 34 33 28
3 29 34 28
3 35 36 37
3 35 2 1
3 35 37 2
3 37 38 2
3 3 2 39
3 2 38 39
3 5 40 41
3 5 3 40
3 3 39 40
3 40 42 41
3 8 36 35
3 8 7 36
3 7 43 36
3 1 8 35
3 5 41 11
3 41 42 44
3 41 44 11
3 11 44 13
3 44 15 13
3 45 15 44
3 7 17 43
3 43 17 46
3 15 45 22
3 45 47 22
3 17 24 46
3 46 24 48
3 22 47 29
3 47 49 29
3 24 50 48
3 30 50 24
3 31 51 30
3 30 51 50
3 32 52 31
3 31 52 51
3 33 53 32
3 32 53 52
3 34 54 33
3 33 54 53
3 49 34 29
3 54 34 49
3 55 56 57
3 55 58 59
3 57 58 55
3 58 60 59
3 61 56 55
3 62 56 61
3 59 63 55
3 63 61 55
3 64 59 60
3 64 65 59
3 65 63 59
3 64 66 65
3 67 68 69
3 62 67 69
3 61 67 62
3 61 36 67
3 61 37 36
3 38 37 61
3 63 38 61
3 39 38 63
3 65 39 63
3 65 66 70
3 65 70 39
3 39 70 40
3 42 71 72
3 42 40 71
3 40 70 71
3 71 73 72
3 74 68 67
3 75 68 74
3 36 43 74
3 67 36 74
3 42 72 44
3 72 45 44
3 72 73 45
3 73 76 45
3 77 75 74
3 78 75 77
3 43 46 77
3 74 43 77
3 79 80 47
3 79 47 76
3 76 47 45
3 79 81 80
3 77 82 78
3 82 77 46
3 82 46 83
3 83 46 48
3 80 84 49
3 47 80 49
3 85 80 81
3 84 80 85
3 48 86 83
3 50 86 48
3 51 87 50
3 50 87 86
3 52 88 51
3 51 88 87
3 53 89 52
3 52 89 88
3 54 90 53
3 53 90 89
3 84 54 49
3 84 91 54
3 91 90 54
3 85 91 84
3 92 93 94
3 92 95 96
3 94 95 92
3 96 97 98
3 95 97 96
3 97 99 98
3 100 101 102
3 93 100 102
3 92 100 93
3 92 56 100
3 92 57 56
3 58 57 92
3 96 58 92
3 60 58 96
3 60 96 103
3 103 96 98
3 104 98 99
3 104 105 98
3 105 103 98
3 105 106 107
3 104 106 105
3 106 108 107
3 109 110 111
3 101 109 111
3 101 100 109
3 100 112 109
3 56 62 112
3 100 56 112
3 60 103 64
3 66 64 103
3 66 103 113
3 113 103 105
3 107 114 105
3 114 113 105
3 115 107 108
3 114 107 115
3 116 110 109
3 117 110 116
3 69 68 116
3 69 116 112
3 112 116 109
3 62 69 112
3 66 113 70
3 71 70 113
3 114 71 113
3 73 118 119
3 71 118 73
3 71 115 118
3 71 114 115
3 119 120 121
3 118 120 119
3 120 122 121
3 116 123 117
3 123 116 68
3 123 68 124
3 124 68 75
3 119 125 76
3 73 119 76
3 121 126 119
3 126 125 119
3 127 121 122
3 126 121 127
3 75 78 124
3 124 78 128
3 76 125 79
3 81 79 125
3 81 125 129
3 129 125 126
3 130 126 127
3 129 126 130
3 78 131 128
3 82 131 78
3 131 82 83
3 132 131 83
3 129 133 85
3 81 129 85
3 134 129 130
3 133 129 134
3 83 135 132
3 86 135 83
3 87 136 86
3 86 136 135
3 88 137 87
3 87 137 136
3 89 138 88
3 88 138 137
3 90 139 89
3 89 139 138
3 91 140 90
3 90 140 139
3 133 91 85
3 133 141 91
3 141 140 91
3 134 141 133
3 142 143 144
3 142 145 146
3 144 145 142
3 146 147 148
3 145 147 146
3 148 149 150
3 147 149 148
3 149 151 150
3 152 143 142
3 153 143 152
3 94 93 152
3 94 152 146
3 146 152 142
3 95 94 146
3 148 95 146
3 97 95 148
3 150 97 148
3 150 99 97
3 150 151 99
3 151 154 99
3 155 156 157
3 153 155 157
3 152 155 153
3 152 101 155
3 152 102 101
3 93 102 152
3 99 154 158
3 104 99 158
3 106 104 159
3 104 158 159
3 159 108 106
3 160 108 159
3 111 156 155
3 111 110 156
3 110 161 156
3 101 111 155
3 108 160 115
3 160 162 115
3 110 117 161
3 161 117 163
3 115 162 164
3 118 115 164
3 120 118 165
3 118 164 165
3 165 122 120
3 166 122 165
3 117 167 163
3 123 167 117
3 167 123 124
3 168 167 124
3 122 166 127
3 166 169 127
3 124 128 168
3 168 128 170
3 127 169 130
3 169 171 130
3 128 172 170
3 131 172 128
3 172 131 132
3 173 172 132
3 174 175 176
3 175 174 177
3 130 171 134
3 171 178 134
3 132 179 173
3 135 179 132
3 136 180 135
3 135 180 179
3 176 137 174
3 176 180 137
3 180 136 137
3 174 181 177
3 174 137 181
3 137 138 181
3 139 182 138
3 138 182 181
3 140 183 139
3 139 183 182
3 141 184 140
3 140 184 183
3 178 141 134
3 184 141 178
3 185 186 187
3 185 188 189
3 187 188 185
3 189 190 191
3 188 190 189
3 191 192 193
3 190 192 191
3 192 194 193
3 195 196 197
3 186 195 197
3 186 185 195
3 185 198 195
3 189 199 185
3 199 198 185
3 191 200 189
3 200 199 189
3 193 201 191
3 201 200 191
3 202 193 194
3 201 193 202
3 203 196 195
3 204 196 203
3 144 143 203
3 144 203 198
3 198 203 195
3 145 144 198
3 199 145 198
3 147 145 199
3 200 147 199
3 149 147 200
3 201 149 200
3 201 151 149
3 201 202 151
3 202 205 151
3 206 204 203
3 207 204 206
3 143 153 206
3 203 143 206
3 151 205 154
3 205 208 154
3 157 207 206
3 157 156 207
3 156 209 207
3 153 157 206
3 154 208 210
3 158 154 210
3 159 158 211
3 158 210 211
3 160 212 213
3 160 159 212
3 159 211 212
3 212 214 213
3 156 161 209
3 209 161 215
3 213 216 162
3 160 213 162
3 217 213 214
3 216 213 217
3 161 163 215
3 215 163 218
3 162 216 164
3 216 217 219
3 216 219 164
3 164 219 165
3 219 166 165
3 220 166 219
3 163 221 218
3 167 221 163
3 221 167 168
3 222 221 168
3 166 220 169
3 220 223 169
3 224 170 225
3 224 222 170
3 222 168 170
3 225 226 227
3 224 225 227
3 226 228 229
3 227 226 229
3 228 230 231
3 229 228 231
3 230 232 233
3 231 230 233
3 232 234 235
3 233 232 235
3 235 234 236
3 169 223 171
3 223 237 171
3 170 172 225
3 173 225 172
3 173 238 225
3 238 226 225
3 228 226 239
3 239 226 238
3 175 239 176
3 175 230 239
3 230 228 239
3 177 230 175
3 177 240 230
3 240 232 230
3 234 232 241
3 241 232 240
3 242 236 234
3 242 234 243
3 243 234 241
3 243 244 245
3 242 243 245
3 244 237 245
3 244 178 237
3 178 171 237
3 173 179 238
3 180 238 179
3 239 238 180
3 176 239 180
3 177 181 240
3 182 240 181
3 241 240 182
3 183 241 182
3 243 241 183
3 184 243 183
3 244 243 184
3 178 244 184
3 246 247 248
3 246 249 250
3 248 249 246
3 250 251 252
3 249 251 250
3 252 253 254
3 251 253 252
3 253 255 254
3 256 257 258
3 247 256 258
3 246 256 247
3 246 186 256
3 246 187 186
3 188 187 246
3 250 188 246
3 190 188 250
3 252 190 250
3 192 190 252
3 254 192 252
3 254 194 192
3 254 255 194
3 255 259 194
3 197 257 256
3 197 196 257
3 196 260 257
3 186 197 256
3 261 262 202
3 261 202 259
3 259 202 194
3 261 263 262
3 264 265 266
3 264 266 260
3 264 260 204
3 204 260 196
3 262 267 205
3 202 262 205
3 268 262 263
3 267 262 268
3 269 265 264
3 270 265 269
3 204 207 269
3 264 204 269
3 267 271 208
3 205 267 208
3 272 267 268
3 271 267 272
3 273 270 269
3 274 270 273
3 207 209 273
3 269 207 273
3 208 271 210
3 271 272 275
3 271 275 210
3 210 275 211
3 212 211 276
3 211 275 276
3 276 214 212
3 277 214 276
3 273 278 274
3 278 273 209
3 278 209 279
3 279 209 215
3 214 277 217
3 277 280 217
3 215 218 279
3 279 218 281
3 282 219 217
3 282 217 283
3 283 217 280
3 219 282 220
3 218 284 281
3 221 284 218
3 284 221 222
3 285 284 222
3 286 287 288
3 286 289 290
3 287 286 290
3 289 291 292
3 290 289 292
3 291 293 294
3 292 291 294
3 283 294 293
3 283 293 282
3 282 293 295
3 220 295 223
3 282 295 220
3 222 296 285
3 224 296 222
3 227 297 224
3 224 297 296
3 229 298 227
3 227 298 297
3 288 231 286
3 288 298 231
3 298 229 231
3 233 286 231
3 289 286 233
3 235 289 233
3 291 289 235
3 236 291 235
3 236 299 291
3 299 293 291
3 295 293 300
3 300 293 299
3 223 300 237
3 295 300 223
3 236 242 299
3 245 299 242
3 300 299 245
3 237 300 245
3 301 302 303
3 301 304 305
3 303 304 301
3 305 306 307
3 304 306 305
3 306 308 307
3 309 310 311
3 302 309 311
3 302 301 309
3 301 312 309
3 305 313 301
3 313 312 301
3 307 314 305
3 314 313 305
3 315 307 308
3 315 316 307
3 316 314 307
3 315 317 316
3 318 310 309
3 319 310 318
3 248 247 318
3 248 318 312
3 312 318 309
3 249 248 312
3 313 249 312
3 251 249 313
3 314 251 313
3 253 251 314
3 316 253 314
3 255 320 321
3 253 320 255
3 253 317 320
3 253 316 317
3 320 322 321
3 258 319 318
3 258 257 319
3 257 323 319
3 247 258 318
3 321 324 259
3 255 321 259
3 325 321 322
3 324 321 325
3 326 327 328
3 326 328 323
3 326 323 260
3 260 323 257
3 259 324 261
3 324 263 261
3 324 325 263
3 325 329 263
3 266 327 326
3 266 265 327
3 265 330 327
3 260 266 326
3 263 329 268
3 329 331 268
3 265 270 330
3 330 270 332
3 268 331 272
3 331 333 272
3 270 274 332
3 332 274 334
3 335 275 272
3 335 272 336
3 336 272 333
3 275 337 276
3 335 337 275
3 276 337 277
3 274 338 334
3 278 338 274
3 279 339 340
3 279 340 278
3 278 340 338
3 340 339 341
3 342 343 344
3 336 343 342
3 336 342 335
3 335 342 345
3 337 335 346
3 346 335 345
3 277 346 280
3 337 346 277
3 339 281 347
3 279 281 339
3 348 341 339
3 348 339 349
3 349 339 347
3 348 349 350
3 351 352 353
3 344 352 351
3 344 351 342
3 342 351 354
3 345 342 355
3 355 342 354
3 346 345 356
3 356 345 355
3 280 356 283
3 346 356 280
3 281 284 347
3 285 347 284
3 285 357 347
3 357 349 347
3 358 350 349
3 358 349 359
3 359 349 357
3 359 360 361
3 358 359 361
3 353 361 360
3 351 353 360
3 351 360 288
3 351 288 287
3 290 351 287
3 354 351 290
3 292 354 290
3 355 354 292
3 294 355 292
3 356 355 294
3 283 356 294
3 285 296 357
3 297 357 296
3 359 357 297
3 298 359 297
3 360 359 298
3 288 360 298
3 362 363 364
3 362 303 302
3 362 364 303
3 364 365 303
3 304 303 366
3 303 365 366
3 306 304 367
3 304 366 367
3 367 308 306
3 368 308 367
3 311 363 362
3 311 310 363
3 310 369 363
3 302 311 362
3 308 368 370
3 315 308 370
3 370 317 315
3 371 317 370
3 310 319 369
3 369 319 372
3 317 371 373
3 320 317 373
3 373 322 320
3 374 322 373
3 319 323 372
3 372 323 375
3 322 374 325
3 374 376 325
3 328 377 378
3 327 377 328
3 375 323 328
3 378 375 328
3 325 376 329
3 376 379 329
3 327 330 377
3 377 330 380
3 381 382 383
3 381 379 382
3 381 331 379
3 331 329 379
3 330 332 380
3 380 332 384
3 385 381 383
3 386 385 383
3 331 385 333
3 381 385 331
3 387 334 388
3 387 384 334
3 384 332 334
3 387 388 389
3 390 385 386
3 391 390 386
3 333 390 336
3 385 390 333
3 334 338 388
3 388 392 389
3 388 338 392
3 338 340 392
3 341 393 394
3 341 394 340
3 340 394 392
3 394 393 395
3 396 397 398
3 391 397 396
3 390 391 396
3 390 396 344
3 390 344 343
3 336 390 343
3 341 348 393
3 350 399 400
3 348 350 400
3 348 400 395
3 348 395 393
3 399 401 402
3 400 399 402
3 398 402 401
3 396 398 401
3 396 401 353
3 396 353 352
3 344 396 352
3 350 358 399
3 361 399 358
3 401 399 361
3 353 401 361
3 403 404 405
3 403 406 407
3 405 406 403
3 407 408 409
3 406 408 407
3 408 410 409
3 364 411 412
3 363 411 364
3 404 403 365
3 404 365 412
3 412 365 364
3 366 365 403
3 407 366 403
3 367 366 407
3 409 367 407
3 368 413 414
3 367 413 368
3 367 410 413
3 367 409 410
3 413 415 414
3 363 369 411
3 411 369 416
3 368 414 370
3 414 371 370
3 414 415 371
3 415 417 371
3 369 372 416
3 416 372 418
3 419 373 371
3 419 371 420
3 420 371 417
3 373 419 374
3 372 375 418
3 418 375 421
3 422 419 420
3 423 422 420
3 374 422 376
3 419 422 374
3 378 377 424
3 378 424 425
3 378 425 375
3 375 425 421
3 426 427 428
3 423 427 426
3 423 426 422
3 422 426 429
3 376 429 379
3 422 429 376
3 424 380 430
3 377 380 424
3 431 425 424
3 431 424 432
3 432 424 430
3 432 433 434
3 431 432 434
3 433 435 436
3 434 433 436
3 435 437 438
3 436 435 438
3 428 438 437
3 428 437 426
3 426 437 439
3 382 439 383
3 382 429 439
3 429 426 439
3 379 429 382
3 430 384 440
3 380 384 430
3 432 430 441
3 441 430 440
3 433 432 442
3 442 432 441
3 435 433 443
3 443 433 442
3 437 435 444
3 444 435 443
3 439 437 445
3 445 437 444
3 383 445 386
3 439 445 383
3 384 387 440
3 389 440 387
3 389 446 440
3 446 441 440
3 442 441 447
3 447 441 446
3 443 442 448
3 448 442 447
3 444 443 449
3 449 443 448
3 445 444 450
3 450 444 449
3 386 450 391
3 445 450 386
3 389 392 446
3 394 446 392
3 447 446 394
3 395 447 394
3 395 451 447
3 451 448 447
3 449 448 452
3 452 448 451
3 397 452 398
3 397 450 452
3 450 449 452
3 391 450 397
3 395 400 451
3 402 451 400
3 452 451 402
3 398 452 402
3 405 453 454
3 404 453 405
3 406 405 455
3 405 454 455
3 408 406 456
3 406 455 456
3 410 457 458
3 410 408 457
3 408 456 457
3 457 459 458
3 412 411 460
3 412 460 461
3 412 461 404
3 404 461 453
3 410 458 413
3 458 415 413
3 458 459 415
3 459 462 415
3 460 463 464
3 460 411 463
3 411 416 463
3 461 460 464
3 415 462 417
3 462 465 417
3 416 418 463
3 463 418 466
3 417 465 420
3 465 467 420
3 468 421 469
3 468 466 421
3 466 418 421
3 468 469 470
3 471 472 473
3 471 474 475
3 472 471 475
3 474 467 475
3 474 423 467
3 423 420 467
3 469 425 476
3 421 425 469
3 477 470 469
3 477 469 478
3 478 469 476
3 478 479 480
3 477 478 480
3 473 480 479
3 473 479 471
3 471 479 481
3 427 481 428
3 427 474 481
3 474 471 481
3 423 474 427
3 425 431 476
3 434 476 431
3 478 476 434
3 436 478 434
3 479 478 436
3 438 479 436
3 481 479 438
3 428 481 438
3 482 483 484
3 482 485 486
3 484 485 482
3 486 487 488
3 485 487 486
3 488 489 490
3 487 489 488
3 490 491 492
3 489 491 490
3 491 493 492
3 454 483 482
3 454 453 483
3 453 494 483
3 455 454 482
3 486 455 482
3 456 455 486
3 488 456 486
3 457 456 488
3 490 457 488
3 459 457 490
3 459 490 495
3 495 490 492
3 496 492 493
3 495 492 496
3 453 461 494
3 494 461 497
3 495 498 462
3 459 495 462
3 499 495 496
3 498 495 499
3 464 463 500
3 464 500 501
3 464 501 461
3 461 501 497
3 502 503 504
3 502 505 506
3 503 502 506
3 498 507 506
3 498 506 465
3 498 465 462
3 465 506 505
3 499 507 498
3 500 466 508
3 463 466 500
3 509 501 500
3 509 500 510
3 510 500 508
3 510 511 512
3 509 510 512
3 504 512 511
3 504 511 502
3 502 511 513
3 505 502 514
3 514 502 513
3 465 514 467
3 505 514 465
3 466 468 508
3 470 508 468
3 470 515 508
3 515 510 508
3 511 510 516
3 516 510 515
3 472 516 473
3 472 513 516
3 513 511 516
3 475 513 472
3 514 513 475
3 467 514 475
3 470 477 515
3 480 515 477
3 516 515 480
3 473 516 480
3 517 518 519
3 517 520 521
3 519 520 517
3 520 522 521
3 484 523 524
3 483 523 484
3 485 484 525
3 484 524 525
3 518 517 487
3 518 487 525
3 525 487 485
3 489 487 517
3 521 489 517
3 521 522 526
3 521 526 489
3 489 526 491
3 493 527 528
3 493 491 527
3 491 526 527
3 527 529 528
3 483 494 523
3 523 494 530
3 528 531 496
3 493 528 496
3 532 528 529
3 531 528 532
3 494 497 530
3 530 497 533
3 531 534 535
3 531 535 496
3 496 535 499
3 532 534 531
3 536 501 537
3 536 533 501
3 533 497 501
3 537 538 539
3 536 537 539
3 538 504 503
3 538 503 539
3 539 503 540
3 506 541 503
3 503 541 540
3 507 542 506
3 506 542 541
3 535 507 499
3 542 507 535
3 501 509 537
3 512 537 509
3 538 537 512
3 504 538 512
3 519 543 544
3 518 543 519
3 520 519 545
3 519 544 545
3 522 546 547
3 522 520 546
3 520 545 546
3 547 548 549
3 546 548 547
3 548 550 549
3 524 523 551
3 552 524 551
3 552 553 524
3 553 525 524
3 543 518 525
3 553 543 525
3 522 547 526
3 527 526 547
3 549 527 547
3 529 554 555
3 527 554 529
3 527 550 554
3 527 549 550
3 555 556 557
3 554 556 555
3 556 558 557
3 551 530 559
3 523 530 551
3 560 552 551
3 559 560 551
3 555 561 532
3 529 555 532
3 557 562 555
3 562 561 555
3 563 557 558
3 562 557 563
3 559 533 564
3 530 533 559
3 565 560 559
3 565 559 566
3 566 559 564
3 566 567 568
3 565 566 568
3 567 569 570
3 568 567 570
3 569 571 572
3 570 569 572
3 571 535 534
3 571 534 572
3 572 534 573
3 561 534 532
3 561 574 534
3 574 573 534
3 562 574 561
3 575 574 562
3 563 575 562
3 533 536 564
3 539 564 536
3 566 564 539
3 540 566 539
3 567 566 540
3 541 567 540
3 569 567 541
3 542 569 541
3 571 569 542
3 535 571 542
3 544 576 577
3 543 576 544
3 545 544 578
3 544 577 578
3 546 545 579
3 545 578 579
3 548 546 580
3 546 579 580
3 580 550 548
3 581 550 580
3 553 582 583
3 552 582 553
3 576 543 553
3 583 576 553
3 550 581 584
3 554 550 584
3 556 554 585
3 554 584 585
3 585 558 556
3 586 558 585
3 552 560 582
3 582 560 587
3 558 586 563
3 586 588 563
3 560 589 587
3 565 589 560
3 568 590 565
3 565 590 589
3 591 592 590
3 591 590 570
3 570 590 568
3 570 572 593
3 591 570 593
3 572 573 594
3 593 572 594
3 573 574 595
3 594 573 595
3 596 595 574
3 596 574 597
3 597 574 575
3 588 575 563
3 597 575 588
3 591 598 592
3 593 598 591
3 599 598 593
3 594 599 593
3 600 599 594
3 595 600 594
3 601 600 595
3 596 601 595
3 577 576 602
3 577 603 578
3 602 603 577
3 578 604 579
3 603 604 578
3 579 605 580
3 604 605 579
3 580 605 581
3 583 582 606
3 583 606 607
3 576 583 607
3 576 607 608
3 576 608 602
3 603 602 608
3 609 603 608
3 604 603 609
3 610 604 609
3 605 604 610
3 611 605 610
3 581 605 611
3 581 611 584
3 584 611 612
3 585 584 613
3 584 612 613
3 586 614 615
3 586 585 614
3 585 613 614
3 614 616 615
3 606 587 617
3 582 587 606
3 618 607 606
3 617 618 606
3 615 619 588
3 586 615 588
3 620 615 616
3 619 615 620
3 587 589 617
3 617 621 618
3 617 589 621
3 589 590 621
3 621 590 592
3 622 621 592
3 597 623 624
3 596 597 624
3 619 597 588
3 619 625 597
3 625 623 597
3 620 625 619
3 592 626 622
3 598 626 592
3 599 627 598
3 598 627 626
3 600 628 599
3 599 628 627
3 601 629 600
3 600 629 628
3 624 601 596
3 629 601 624
3 608 607 630
3 608 631 609
3 630 631 608
3 632 609 631
3 632 633 609
3 633 610 609
3 611 610 634
3 610 633 634
3 612 611 635
3 611 634 635
3 613 612 636
3 612 635 636
3 614 613 637
3 613 636 637
3 637 616 614
3 638 616 637
3 630 618 639
3 607 618 630
3 631 630 640
3 640 630 639
3 641 632 631
3 640 641 631
3 616 638 620
3 638 642 620
3 618 621 639
3 622 639 621
3 622 643 639
3 643 640 639
3 644 641 640
3 643 644 640
3 623 645 646
3 624 623 646
3 625 647 623
3 623 647 645
3 642 625 620
3 647 625 642
3 622 626 643
3 643 648 644
3 643 626 648
3 626 627 648
3 628 649 627
3 627 649 648
3 629 650 628
3 628 650 649
3 646 629 624
3 650 629 646
3 633 632 651
3 633 652 634
3 651 652 633
3 634 653 635
3 652 653 634
3 635 654 636
3 653 654 635
3 636 655 637
3 654 655 636
3 637 655 638
3 651 641 656
3 632 641 651
3 652 651 657
3 657 651 656
3 653 652 658
3 658 652 657
3 654 653 659
3 659 653 658
3 655 654 660
3 660 654 659
3 638 660 642
3 655 660 638
3 656 644 661
3 641 644 656
3 657 656 662
3 662 656 661
3 658 657 663
3 663 657 662
3 645 663 646
3 645 659 663
3 659 658 663
3 647 659 645
3 660 659 647
3 642 660 647
3 644 648 661
3 649 661 648
3 662 661 649
3 650 662 649
3 663 662 650
3 646 663 650
