# vtk DataFile Version 3.0
this file was written using fslvtkio
ASCII
DATASET POLYDATA
POINTS 642 float
119.749 134.069 76.4173
110.229 134.646 75.2019
114.779 127.347 77.1248
123.15 123.849 78.5436
118.962 130.569 82.6923
120.859 128.67 72.6441
114.206 129.473 71.992
114.222 131.739 81.5139
114.174 139.802 79.0519
118.707 122.698 82.5478
118.989 121.582 75.0603
114.727 137.124 71.7031
113.212 136.025 81.5907
116.778 135.852 81.7788
116.571 131.095 84.397
116.698 127.221 82.669
119.942 125.684 84.5736
114.115 133.378 71.8323
117.704 128.757 72.2993
118.078 133.138 72.1011
116.883 125.31 73.4368
121.05 124.113 73.825
121.377 126.428 81.3081
119.444 132.838 79.6909
122.169 129.038 77.4569
123.151 125.579 74.9321
121.035 131.847 73.7896
111.621 134.311 78.8865
114.602 129.483 79.4137
111.747 130.839 76.1328
111.001 132.285 72.2837
113.837 128.201 74.2125
117.538 136.687 73.6548
116.858 137.825 77.4378
113.231 140.65 74.0124
110.889 137.13 72.6178
110.613 138.496 76.7519
123.26 119.872 76.3132
119.026 120.395 78.8723
122.343 120.913 82.1796
116.207 123.56 76.2922
116.459 124.415 79.9296
115.062 136.243 82.1764
116.684 133.743 83.7164
114.765 133.737 83.3786
118.146 130.931 84.1578
117.847 133.297 82.3975
115.612 138.175 80.6623
113.496 138.129 80.3947
113.18 133.673 81.9762
115.111 131.47 83.1215
116.44 129.164 83.7715
118.282 128.577 85.0033
118.065 126.309 84.3313
119.527 128.241 83.7852
115.447 129.598 82.0952
117.527 124.922 82.6727
119.283 123.954 83.99
115.924 131.243 71.6872
117.8 130.993 72.0029
116.161 133.228 71.9997
119.466 130.917 72.1237
119.316 128.63 72.5161
115.968 129.163 72.0019
114.134 131.423 71.5409
114.491 135.185 71.969
116.508 135.226 71.8462
118.96 124.736 73.5023
119.265 126.474 72.9843
117.224 127.042 72.6627
120.852 126.394 73.1278
120.185 122.717 74.3516
118.03 123.457 74.3024
115.489 127.603 72.7969
120.691 129.721 80.5822
120.951 130.845 78.7453
121.904 127.949 79.563
120.999 131.616 76.9458
119.737 133.63 78.0973
119.124 131.818 81.2277
120.307 128.544 82.1033
122.351 125.055 80.0699
122.766 126.527 78.0933
122.917 127.478 76.0975
121.767 130.486 75.5895
122.422 128.911 74.287
120.417 133.006 75.1239
123.388 124.719 76.715
122.16 127.275 73.4985
121.19 130.45 72.7985
112.994 131.951 79.1254
112.999 130.374 77.993
111.729 132.464 77.5956
113.352 129.335 76.5854
114.429 128.327 78.3209
114.516 130.66 80.416
112.771 133.062 80.383
110.953 134.441 77.0123
110.857 132.645 75.6177
111.026 131.327 74.1233
112.673 129.602 74.951
111.962 130.044 73.0364
114.34 127.711 75.6637
110.216 133.383 73.6799
112.466 130.897 71.7729
113.782 128.717 72.9066
116.968 137.75 75.3365
115.338 140.005 75.8609
115.353 139.164 73.5147
113.619 140.68 76.7602
115.764 139.206 78.4288
118.363 136.027 76.9224
118.824 135.499 74.9939
116.352 137.155 72.3091
113.716 139.167 72.0179
111.686 139.606 72.3205
111.497 140.322 75.3976
109.707 138.36 74.207
112.168 139.454 78.1724
112.852 137.141 71.9062
109.926 135.786 73.853
109.916 136.58 76.0973
121.076 118.851 77.4671
120.879 119.46 80.7841
123.34 119.483 79.2339
120.415 121.29 83.0002
118.672 121.368 80.9697
118.857 120.562 76.6552
120.973 120.564 75.4656
123.662 121.817 77.5493
122.891 122.306 80.1395
116.31 123.731 78.095
117.464 122.024 79.5595
117.365 121.555 77.4992
117.48 123.593 81.2716
115.619 125.908 78.4929
115.483 125.509 76.7378
117.267 122.448 75.4234
117.973 134.463 80.5897
116.845 137.033 79.6378
118.28 135.509 78.6732
119.442 134.261 73.6426
118.175 135.16 72.3183
119.887 132.522 72.4276
121.081 122.988 83.873
120.575 125.916 82.9589
121.956 123.566 81.8585
123.624 122.565 75.5604
122.267 124.727 74.0648
122.249 121.764 74.6246
111.805 137.509 79.2495
112.036 135.174 80.42
110.7 136.359 77.9457
110.951 134.592 72.6338
112.555 132.775 71.7496
112.513 135.256 72.2092
115.555 127.087 79.578
115.669 128.413 80.9355
116.57 126.017 81.1416
116.292 124.37 74.6464
115.258 126.62 73.7553
115.283 125.898 75.2498
115.876 135.121 83.1115
115.711 133.868 83.6187
114.905 135.061 82.9113
115.656 132.555 83.868
116.479 132.551 84.076
116.686 134.911 82.8479
116.024 136.104 82.2779
114.112 136.125 82.0578
114.037 134.926 82.5999
117.318 132.412 83.9711
117.331 133.66 83.1823
117.838 132.261 83.3395
117.312 134.6 82.2059
117.328 131.155 84.4629
118.522 130.928 83.4217
118.352 131.953 82.6453
115.326 137.275 81.6275
114.22 137.224 81.4263
114.584 138.197 80.681
113.291 137.101 81.0617
116.161 137.051 81.3293
114.947 139.172 79.9996
113.823 139.131 79.8882
113.907 133.816 82.7573
114.855 132.579 83.3231
114.087 132.669 82.59
115.785 131.369 83.8491
113.272 134.813 82.0431
113.686 132.609 81.8591
114.595 131.648 82.3617
117.243 128.855 84.658
118.122 127.404 84.857
117.239 127.759 84.2537
118.983 126.022 84.7929
119.12 127.173 84.9114
117.442 129.848 84.8885
116.431 130.09 84.2267
116.664 128.031 83.4109
117.314 126.818 83.6614
119.014 128.513 84.6174
118.163 129.979 84.741
118.879 129.742 83.9124
119.737 127.091 84.3306
119.233 129.454 83.2025
115.734 130.352 83.476
115.934 129.233 82.9712
115.193 130.492 82.5677
116.094 128.364 82.4745
114.801 130.769 81.8182
117.701 125.67 83.5098
118.653 125.152 84.2651
118.337 124.5 83.4041
119.67 124.672 84.5237
117.096 126.113 82.8069
118.148 123.832 82.7203
118.939 123.366 83.2896
116.868 131.109 71.844
116.98 132.133 71.969
116.036 132.229 71.8124
117.125 133.107 72.0507
117.86 132.078 72.0605
117.659 129.973 72.0307
116.834 130.114 71.8888
115.085 132.342 71.7009
115.224 133.18 71.8813
118.616 130.994 72.0325
118.494 129.808 72.1722
119.373 129.765 72.2458
118.455 128.769 72.442
118.763 132.029 72.1279
120.181 129.739 72.4445
120.117 128.592 72.5635
115.983 130.198 71.7908
115.022 131.398 71.6026
115.078 130.289 71.7095
114.143 132.425 71.5971
116.844 129.079 72.0903
115.08 129.332 71.9491
114.249 130.351 71.6714
115.309 134.157 71.9414
116.327 134.16 72.0363
115.508 135.182 71.884
117.248 134.147 71.9793
114.38 134.193 71.9636
114.638 136.166 71.7765
115.656 136.203 71.746
119.143 125.58 73.201
118.217 126.782 72.7857
118.06 125.87 73.0589
117.446 127.917 72.4133
118.427 127.608 72.5677
120.13 125.313 73.3487
120.004 124.432 73.6661
117.901 125.067 73.3843
117.173 126.099 73.0532
119.155 127.634 72.6812
120.041 126.401 73.0194
120.054 127.542 72.7296
120.937 125.249 73.4422
120.825 127.554 72.8279
119.579 123.777 73.8894
118.435 124.145 73.8297
119.075 123.134 74.2306
117.517 124.404 73.8255
120.664 123.371 74.0087
119.594 122.081 74.5773
118.576 122.516 74.6448
116.385 127.214 72.7196
116.585 128.128 72.2439
115.659 128.294 72.287
116.259 126.435 73.0903
114.825 128.561 72.2706
120.835 130.371 79.6735
121.487 129.432 79.1166
121.332 128.862 80.074
122.018 128.631 78.5795
121.605 129.852 78.2336
120.22 131.752 79.3062
120.154 131.206 80.0904
121.112 128.173 80.9555
121.584 127.339 80.4619
120.984 131.186 77.8544
120.333 132.216 78.4592
120.464 132.604 77.5918
119.702 133.198 78.9409
121.609 130.278 77.2532
120.48 132.868 76.6948
119.795 133.817 77.2372
119.947 130.786 80.8746
120.485 129.132 81.3264
119.72 130.274 81.6713
120.89 127.46 81.7227
119.337 132.184 80.4242
119.04 131.312 82.031
119.602 129.589 82.3819
122.068 126.552 79.8707
122.359 127.332 78.8395
122.508 125.94 79.1176
122.499 127.842 77.8377
121.855 125.783 80.7147
122.772 124.565 79.2832
122.949 125.225 78.3664
122.341 129.034 75.894
122.149 129.775 74.9272
122.698 128.205 75.2213
121.901 130.375 74.026
121.491 131.112 74.618
122.009 129.755 76.5026
122.571 128.332 76.7505
123.091 126.639 75.4247
122.838 127.357 74.5785
121.132 131.698 75.3055
121.413 130.984 76.3408
120.784 132.302 75.9779
120.707 132.337 74.5006
120.158 133.508 75.8419
122.878 127.116 77.1302
123.141 126.15 76.3693
123.103 125.702 77.3864
123.302 125.137 75.7685
123.276 124.32 77.6861
122.394 128.097 73.7872
121.971 129.705 73.4534
121.81 128.88 72.9851
121.319 131.087 73.2654
122.783 126.506 74.1559
121.525 127.973 72.9755
121.012 129.564 72.6291
112.976 131.043 78.6053
112.235 131.3 77.8072
112.322 132.171 78.3906
111.689 131.55 77.0136
112.258 130.657 77.164
113.802 130.095 78.7839
113.714 130.85 79.1954
112.22 133.015 78.9563
111.74 133.328 78.2644
113.07 129.881 77.2996
113.788 129.498 78.1751
113.881 128.943 77.5056
114.431 128.924 78.8938
112.496 130.114 76.4467
114.125 128.427 76.8131
114.538 127.877 77.6462
113.769 131.375 79.7601
112.906 132.576 79.6737
113.713 132.029 80.3614
112.15 133.658 79.5879
114.496 130.205 79.8101
114.351 131.254 80.9667
113.518 132.499 81.0097
111.347 133.458 77.3253
111.261 132.503 76.6544
110.926 133.521 76.3208
111.265 131.7 76.0209
111.334 134.394 77.9912
110.558 134.544 76.0819
110.534 133.665 75.3582
111.775 130.373 74.5847
112.326 129.778 74.012
111.365 130.657 73.5292
112.835 129.204 73.5634
113.181 128.975 74.4234
112.139 130.208 75.5168
111.431 131.046 75.1099
110.725 131.657 73.1322
111.22 131.063 72.5672
113.556 128.759 75.1892
112.985 129.538 75.7922
113.856 128.566 76.0428
114.085 127.963 74.8973
114.572 127.586 76.4265
111.014 131.893 74.9982
110.534 132.227 73.9021
110.507 132.925 74.6654
110.477 132.728 72.9718
110.167 133.971 74.457
112.014 130.485 72.2637
112.797 129.45 72.8517
112.993 129.83 72.1938
113.711 128.489 73.5278
111.642 131.626 71.995
113.447 130.164 71.8263
113.957 128.987 72.3762
116.102 138.877 75.5188
115.307 139.719 74.6098
116.225 138.564 74.4638
114.376 140.164 73.665
114.421 140.551 74.9077
116.146 138.989 76.5736
116.83 138.041 76.3276
117.07 137.463 74.3088
116.367 138.087 73.5416
114.677 140.591 76.2709
115.614 139.608 77.1588
114.818 140.296 77.7029
116.3 138.629 77.8057
113.48 140.791 75.4546
113.811 140.343 78.0331
115.084 139.711 78.8765
117.643 137.003 76.1068
117.8 136.708 75.0748
118.489 135.911 75.8837
118.116 136.216 74.3137
117.541 137.028 77.0898
119.086 135.063 76.703
119.363 134.831 75.7707
115.781 138.21 72.8017
114.605 139.346 72.7379
115.013 138.259 72.0632
113.452 140.119 72.7895
116.888 137.063 73.0076
115.702 137.122 71.9221
114.229 137.996 71.7053
111.376 140.2 73.7724
110.477 139.662 74.5511
110.568 139.334 73.2812
110.044 138.705 75.3586
110.797 139.555 75.934
112.333 140.64 74.686
112.352 140.305 72.9882
111.1 138.487 72.4563
110.133 138.04 73.1363
111.678 139.993 76.7324
112.555 140.609 76.0855
112.778 140.257 77.5459
111.306 139.089 77.3489
113.127 139.71 78.761
112.79 139.543 72.0459
112.132 138.452 71.9872
113.29 138.138 71.7021
111.798 137.431 72.2082
113.802 137.039 71.7507
109.666 137.176 73.8601
109.602 137.578 75.2484
109.786 136.265 74.8994
110.063 137.696 76.3046
110.221 136.603 73.13
109.973 135.119 74.5728
110.079 135.538 75.7017
121.062 118.784 79.1957
122.277 118.935 80.263
122.414 118.625 78.4446
122.908 119.893 80.7898
121.902 119.679 81.6717
120.062 119.62 79.6346
120.059 119.283 78.3384
122.363 119.037 76.9187
123.408 119.256 77.6737
120.706 120.184 82.0819
119.839 120.343 80.8096
119.577 121.184 81.9543
119.025 120.677 79.9655
121.489 120.724 82.8713
119.381 122.05 82.7933
118.526 122.123 81.6973
119.895 119.67 77.0958
121.099 119.56 76.3013
119.826 120.536 75.947
122.112 119.944 75.7914
119.042 120.153 77.7769
118.762 121.045 75.7148
119.928 121.136 75.1761
123.645 120.466 78.2743
123.161 120.836 79.7746
123.352 122.1 78.8755
122.739 121.333 81.049
123.769 120.549 77.0436
123.446 122.903 78.0511
122.993 123.184 79.362
116.856 122.823 78.7823
117.402 121.603 78.5463
116.797 122.633 77.807
118.133 120.727 78.1671
118.135 121.004 79.3318
116.929 123.182 79.6865
116.402 123.915 79.0122
116.325 123.465 77.2252
116.72 122.539 76.9276
118.049 121.536 80.2362
117.424 122.782 80.3276
117.986 122.447 81.0664
116.959 123.879 80.5886
118.078 123.191 81.9691
115.931 124.783 78.3448
115.94 124.579 77.3778
115.558 125.685 77.5813
115.901 124.442 76.5944
116.046 125.098 79.1833
115.189 126.654 77.7777
115.195 126.523 76.9029
117.25 121.974 76.4657
117.99 120.843 77.1353
117.901 121.375 76.0176
116.656 122.817 75.9445
118.042 122.025 75.1573
117.381 135.757 80.1935
117.539 136.295 79.1517
118.123 134.952 79.619
117.585 136.686 78.088
116.909 137.448 78.5358
116.817 136.496 80.7529
117.338 135.163 81.2046
118.685 133.702 80.1034
118.823 134.201 79.2418
116.299 138.121 78.9752
116.253 137.604 80.2531
115.732 138.867 79.6426
117.911 133.965 81.49
118.605 133.103 80.8562
118.451 132.562 81.7608
118.959 134.469 78.4479
118.318 135.885 77.7986
119.055 134.776 77.5273
118.908 134.797 72.9166
119.054 133.833 72.2872
119.845 133.457 72.9305
119.028 132.858 72.2295
118.19 134.117 72.1124
117.964 135.975 72.9286
118.573 135.526 73.6689
120.29 133.054 73.7168
120.639 132.285 72.9663
117.434 135.129 71.9738
117.31 136.229 72.3117
116.576 136.217 71.8416
119.125 134.981 74.3209
119.945 133.633 74.3951
119.644 134.208 75.1745
120.599 131.512 72.5324
119.634 131.729 72.1875
120.347 130.631 72.4234
121.018 124.471 83.5055
121.307 124.663 82.458
121.611 123.123 82.8936
121.611 125.007 81.5846
121.04 126.092 82.1679
120.3 125.772 83.8301
120.565 124.266 84.305
121.758 121.807 83.2175
122.237 122.165 82.0652
120.476 127.224 82.5148
120.051 127.039 83.4612
119.849 128.375 82.9029
120.093 123.553 84.103
120.81 122.003 83.6069
119.645 122.718 83.4385
122.418 122.73 81.0896
122.074 124.386 80.9448
122.65 123.756 80.1887
123.049 123.498 74.6824
122.412 123.121 74.301
123.172 121.939 74.908
121.642 123.017 74.1486
121.695 124.422 73.9183
122.791 125.064 74.4278
123.39 124.088 75.2735
123.7 121.092 75.8816
122.835 120.692 75.3116
121.576 125.587 73.5307
122.321 126.016 73.7174
121.52 126.85 73.2673
123.555 123.857 76.089
123.752 122.127 76.5104
123.599 123.406 77.176
121.77 120.996 74.988
121.14 122.361 74.4311
120.531 121.641 74.8253
111.868 136.362 79.9343
111.361 135.859 79.1993
111.171 137.004 78.6191
111.119 135.348 78.4427
111.751 134.779 79.6174
112.576 135.574 81.1356
112.528 136.757 80.4964
111.182 138.121 78.0002
110.524 137.433 77.4014
112.274 134 80.3442
112.602 134.474 81.2902
112.939 133.296 81.1947
112.639 137.721 79.9366
111.92 138.536 78.6979
112.84 138.864 79.4082
110.308 136.477 77.0568
110.929 135.205 77.625
110.443 135.374 76.6057
111.689 133.749 72.1089
112.51 134.006 72.033
111.68 134.986 72.3968
113.28 134.241 72.019
113.289 133.135 71.8109
111.75 132.584 71.9001
111.012 133.42 72.3566
110.94 135.899 72.7113
111.717 136.303 72.3307
113.345 132.079 71.5854
112.453 131.764 71.6967
113.395 131.003 71.6641
110.5 133.859 73.005
110.409 135.262 73.1184
110.181 134.511 73.8236
112.667 136.179 72.0772
113.57 134.961 72.1297
113.713 136.053 71.9719
115.636 127.774 80.2196
116.198 127.227 81.0719
116.139 126.546 80.2763
116.651 126.593 81.9436
116.151 127.817 81.8201
115.209 128.938 80.1051
115.072 128.279 79.5181
116.034 125.797 79.7202
116.47 125.261 80.4957
115.583 128.995 81.5154
115.148 129.609 80.5055
114.99 130.223 81.2187
114.939 127.707 78.9803
115.586 126.476 79.0124
115.013 127.179 78.2739
116.871 124.767 81.0772
116.98 125.503 81.8802
117.471 124.269 81.9441
115.752 125.489 74.1529
115.215 126.401 74.4574
115.693 125.069 74.9406
114.631 127.066 74.6993
114.485 127.416 74.0037
116.034 125.923 73.5564
116.516 124.859 73.9614
116.22 123.9 75.4421
115.77 124.716 75.7919
114.461 127.741 73.3778
115.342 127.065 73.2109
114.618 128.136 72.7708
117.086 124.017 74.3183
116.78 123.41 75.057
117.615 122.91 74.7102
115.4 125.684 75.9762
114.786 126.895 75.3764
115 126.709 76.1814
POLYGONS 1280  5120
3 164 162 163
3 163 44 164
3 162 43 163
3 164 42 162
3 166 165 163
3 163 43 166
3 165 44 163
3 166 14 165
3 168 167 162
3 162 42 168
3 167 43 162
3 168 13 167
3 170 169 164
3 164 44 170
3 169 42 164
3 170 12 169
3 173 171 172
3 172 46 173
3 171 43 172
3 173 45 171
3 167 174 172
3 172 43 167
3 174 46 172
3 167 13 174
3 175 166 171
3 171 45 175
3 166 43 171
3 175 14 166
3 177 176 173
3 173 46 177
3 176 45 173
3 177 4 176
3 180 178 179
3 179 48 180
3 178 42 179
3 180 47 178
3 169 181 179
3 179 42 169
3 181 48 179
3 169 12 181
3 182 168 178
3 178 47 182
3 168 42 178
3 182 13 168
3 184 183 180
3 180 48 184
3 183 47 180
3 184 8 183
3 187 185 186
3 186 50 187
3 185 44 186
3 187 49 185
3 165 188 186
3 186 44 165
3 188 50 186
3 165 14 188
3 189 170 185
3 185 49 189
3 170 44 185
3 189 12 170
3 191 190 187
3 187 50 191
3 190 49 187
3 191 7 190
3 194 192 193
3 193 53 194
3 192 52 193
3 194 51 192
3 196 195 193
3 193 52 196
3 195 53 193
3 196 16 195
3 198 197 192
3 192 51 198
3 197 52 192
3 198 14 197
3 200 199 194
3 194 53 200
3 199 51 194
3 200 15 199
3 203 201 202
3 202 45 203
3 201 52 202
3 203 54 201
3 197 175 202
3 202 52 197
3 175 45 202
3 197 14 175
3 204 196 201
3 201 54 204
3 196 52 201
3 204 16 196
3 176 205 203
3 203 45 176
3 205 54 203
3 176 4 205
3 208 206 207
3 207 55 208
3 206 51 207
3 208 50 206
3 199 209 207
3 207 51 199
3 209 55 207
3 199 15 209
3 188 198 206
3 206 50 188
3 198 51 206
3 188 14 198
3 210 191 208
3 208 55 210
3 191 50 208
3 210 7 191
3 213 211 212
3 212 57 213
3 211 53 212
3 213 56 211
3 195 214 212
3 212 53 195
3 214 57 212
3 195 16 214
3 215 200 211
3 211 56 215
3 200 53 211
3 215 15 200
3 217 216 213
3 213 57 217
3 216 56 213
3 217 9 216
3 220 218 219
3 219 60 220
3 218 59 219
3 220 58 218
3 222 221 219
3 219 59 222
3 221 60 219
3 222 19 221
3 224 223 218
3 218 58 224
3 223 59 218
3 224 18 223
3 226 225 220
3 220 60 226
3 225 58 220
3 226 17 225
3 229 227 228
3 228 62 229
3 227 59 228
3 229 61 227
3 223 230 228
3 228 59 223
3 230 62 228
3 223 18 230
3 231 222 227
3 227 61 231
3 222 59 227
3 231 19 222
3 233 232 229
3 229 62 233
3 232 61 229
3 233 5 232
3 236 234 235
3 235 64 236
3 234 58 235
3 236 63 234
3 225 237 235
3 235 58 225
3 237 64 235
3 225 17 237
3 238 224 234
3 234 63 238
3 224 58 234
3 238 18 224
3 240 239 236
3 236 64 240
3 239 63 236
3 240 6 239
3 243 241 242
3 242 66 243
3 241 60 242
3 243 65 241
3 221 244 242
3 242 60 221
3 244 66 242
3 221 19 244
3 245 226 241
3 241 65 245
3 226 60 241
3 245 17 226
3 247 246 243
3 243 66 247
3 246 65 243
3 247 11 246
3 250 248 249
3 249 69 250
3 248 68 249
3 250 67 248
3 252 251 249
3 249 68 252
3 251 69 249
3 252 18 251
3 254 253 248
3 248 67 254
3 253 68 248
3 254 21 253
3 256 255 250
3 250 69 256
3 255 67 250
3 256 20 255
3 259 257 258
3 258 70 259
3 257 68 258
3 259 62 257
3 253 260 258
3 258 68 253
3 260 70 258
3 253 21 260
3 230 252 257
3 257 62 230
3 252 68 257
3 230 18 252
3 261 233 259
3 259 70 261
3 233 62 259
3 261 5 233
3 264 262 263
3 263 72 264
3 262 67 263
3 264 71 262
3 255 265 263
3 263 67 255
3 265 72 263
3 255 20 265
3 266 254 262
3 262 71 266
3 254 67 262
3 266 21 254
3 268 267 264
3 264 72 268
3 267 71 264
3 268 10 267
3 271 269 270
3 270 63 271
3 269 69 270
3 271 73 269
3 251 238 270
3 270 69 251
3 238 63 270
3 251 18 238
3 272 256 269
3 269 73 272
3 256 69 269
3 272 20 256
3 239 273 271
3 271 63 239
3 273 73 271
3 239 6 273
3 276 274 275
3 275 76 276
3 274 75 275
3 276 74 274
3 278 277 275
3 275 75 278
3 277 76 275
3 278 24 277
3 280 279 274
3 274 74 280
3 279 75 274
3 280 23 279
3 282 281 276
3 276 76 282
3 281 74 276
3 282 22 281
3 285 283 284
3 284 78 285
3 283 75 284
3 285 77 283
3 279 286 284
3 284 75 279
3 286 78 284
3 279 23 286
3 287 278 283
3 283 77 287
3 278 75 283
3 287 24 278
3 289 288 285
3 285 78 289
3 288 77 285
3 289 0 288
3 292 290 291
3 291 80 292
3 290 74 291
3 292 79 290
3 281 293 291
3 291 74 281
3 293 80 291
3 281 22 293
3 294 280 290
3 290 79 294
3 280 74 290
3 294 23 280
3 296 295 292
3 292 80 296
3 295 79 292
3 296 4 295
3 299 297 298
3 298 82 299
3 297 76 298
3 299 81 297
3 277 300 298
3 298 76 277
3 300 82 298
3 277 24 300
3 301 282 297
3 297 81 301
3 282 76 297
3 301 22 282
3 303 302 299
3 299 82 303
3 302 81 299
3 303 3 302
3 306 304 305
3 305 85 306
3 304 84 305
3 306 83 304
3 308 307 305
3 305 84 308
3 307 85 305
3 308 26 307
3 310 309 304
3 304 83 310
3 309 84 304
3 310 24 309
3 312 311 306
3 306 85 312
3 311 83 306
3 312 25 311
3 315 313 314
3 314 77 315
3 313 84 314
3 315 86 313
3 309 287 314
3 314 84 309
3 287 77 314
3 309 24 287
3 316 308 313
3 313 86 316
3 308 84 313
3 316 26 308
3 288 317 315
3 315 77 288
3 317 86 315
3 288 0 317
3 320 318 319
3 319 87 320
3 318 83 319
3 320 82 318
3 311 321 319
3 319 83 311
3 321 87 319
3 311 25 321
3 300 310 318
3 318 82 300
3 310 83 318
3 300 24 310
3 322 303 320
3 320 87 322
3 303 82 320
3 322 3 303
3 325 323 324
3 324 89 325
3 323 85 324
3 325 88 323
3 307 326 324
3 324 85 307
3 326 89 324
3 307 26 326
3 327 312 323
3 323 88 327
3 312 85 323
3 327 25 312
3 329 328 325
3 325 89 329
3 328 88 325
3 329 5 328
3 332 330 331
3 331 92 332
3 330 91 331
3 332 90 330
3 334 333 331
3 331 91 334
3 333 92 331
3 334 29 333
3 336 335 330
3 330 90 336
3 335 91 330
3 336 28 335
3 338 337 332
3 332 92 338
3 337 90 332
3 338 27 337
3 341 339 340
3 340 94 341
3 339 91 340
3 341 93 339
3 335 342 340
3 340 91 335
3 342 94 340
3 335 28 342
3 343 334 339
3 339 93 343
3 334 91 339
3 343 29 334
3 345 344 341
3 341 94 345
3 344 93 341
3 345 2 344
3 348 346 347
3 347 96 348
3 346 90 347
3 348 95 346
3 337 349 347
3 347 90 337
3 349 96 347
3 337 27 349
3 350 336 346
3 346 95 350
3 336 90 346
3 350 28 336
3 352 351 348
3 348 96 352
3 351 95 348
3 352 7 351
3 355 353 354
3 354 98 355
3 353 92 354
3 355 97 353
3 333 356 354
3 354 92 333
3 356 98 354
3 333 29 356
3 357 338 353
3 353 97 357
3 338 92 353
3 357 27 338
3 359 358 355
3 355 98 359
3 358 97 355
3 359 1 358
3 362 360 361
3 361 101 362
3 360 100 361
3 362 99 360
3 364 363 361
3 361 100 364
3 363 101 361
3 364 31 363
3 366 365 360
3 360 99 366
3 365 100 360
3 366 29 365
3 368 367 362
3 362 101 368
3 367 99 362
3 368 30 367
3 371 369 370
3 370 93 371
3 369 100 370
3 371 102 369
3 365 343 370
3 370 100 365
3 343 93 370
3 365 29 343
3 372 364 369
3 369 102 372
3 364 100 369
3 372 31 364
3 344 373 371
3 371 93 344
3 373 102 371
3 344 2 373
3 376 374 375
3 375 103 376
3 374 99 375
3 376 98 374
3 367 377 375
3 375 99 367
3 377 103 375
3 367 30 377
3 356 366 374
3 374 98 356
3 366 99 374
3 356 29 366
3 378 359 376
3 376 103 378
3 359 98 376
3 378 1 359
3 381 379 380
3 380 105 381
3 379 101 380
3 381 104 379
3 363 382 380
3 380 101 363
3 382 105 380
3 363 31 382
3 383 368 379
3 379 104 383
3 368 101 379
3 383 30 368
3 385 384 381
3 381 105 385
3 384 104 381
3 385 6 384
3 388 386 387
3 387 108 388
3 386 107 387
3 388 106 386
3 390 389 387
3 387 107 390
3 389 108 387
3 390 34 389
3 392 391 386
3 386 106 392
3 391 107 386
3 392 33 391
3 394 393 388
3 388 108 394
3 393 106 388
3 394 32 393
3 397 395 396
3 396 110 397
3 395 107 396
3 397 109 395
3 391 398 396
3 396 107 391
3 398 110 396
3 391 33 398
3 399 390 395
3 395 109 399
3 390 107 395
3 399 34 390
3 401 400 397
3 397 110 401
3 400 109 397
3 401 8 400
3 404 402 403
3 403 112 404
3 402 106 403
3 404 111 402
3 393 405 403
3 403 106 393
3 405 112 403
3 393 32 405
3 406 392 402
3 402 111 406
3 392 106 402
3 406 33 392
3 408 407 404
3 404 112 408
3 407 111 404
3 408 0 407
3 411 409 410
3 410 114 411
3 409 108 410
3 411 113 409
3 389 412 410
3 410 108 389
3 412 114 410
3 389 34 412
3 413 394 409
3 409 113 413
3 394 108 409
3 413 32 394
3 415 414 411
3 411 114 415
3 414 113 411
3 415 11 414
3 418 416 417
3 417 117 418
3 416 116 417
3 418 115 416
3 420 419 417
3 417 116 420
3 419 117 417
3 420 36 419
3 422 421 416
3 416 115 422
3 421 116 416
3 422 34 421
3 424 423 418
3 418 117 424
3 423 115 418
3 424 35 423
3 427 425 426
3 426 109 427
3 425 116 426
3 427 118 425
3 421 399 426
3 426 116 421
3 399 109 426
3 421 34 399
3 428 420 425
3 425 118 428
3 420 116 425
3 428 36 420
3 400 429 427
3 427 109 400
3 429 118 427
3 400 8 429
3 432 430 431
3 431 119 432
3 430 115 431
3 432 114 430
3 423 433 431
3 431 115 423
3 433 119 431
3 423 35 433
3 412 422 430
3 430 114 412
3 422 115 430
3 412 34 422
3 434 415 432
3 432 119 434
3 415 114 432
3 434 11 415
3 437 435 436
3 436 121 437
3 435 117 436
3 437 120 435
3 419 438 436
3 436 117 419
3 438 121 436
3 419 36 438
3 439 424 435
3 435 120 439
3 424 117 435
3 439 35 424
3 441 440 437
3 437 121 441
3 440 120 437
3 441 1 440
3 444 442 443
3 443 124 444
3 442 123 443
3 444 122 442
3 446 445 443
3 443 123 446
3 445 124 443
3 446 39 445
3 448 447 442
3 442 122 448
3 447 123 442
3 448 38 447
3 450 449 444
3 444 124 450
3 449 122 444
3 450 37 449
3 453 451 452
3 452 126 453
3 451 123 452
3 453 125 451
3 447 454 452
3 452 123 447
3 454 126 452
3 447 38 454
3 455 446 451
3 451 125 455
3 446 123 451
3 455 39 446
3 457 456 453
3 453 126 457
3 456 125 453
3 457 9 456
3 460 458 459
3 459 128 460
3 458 122 459
3 460 127 458
3 449 461 459
3 459 122 449
3 461 128 459
3 449 37 461
3 462 448 458
3 458 127 462
3 448 122 458
3 462 38 448
3 464 463 460
3 460 128 464
3 463 127 460
3 464 10 463
3 467 465 466
3 466 130 467
3 465 124 466
3 467 129 465
3 445 468 466
3 466 124 445
3 468 130 466
3 445 39 468
3 469 450 465
3 465 129 469
3 450 124 465
3 469 37 450
3 471 470 467
3 467 130 471
3 470 129 467
3 471 3 470
3 474 472 473
3 473 133 474
3 472 132 473
3 474 131 472
3 476 475 473
3 473 132 476
3 475 133 473
3 476 38 475
3 478 477 472
3 472 131 478
3 477 132 472
3 478 41 477
3 480 479 474
3 474 133 480
3 479 131 474
3 480 40 479
3 483 481 482
3 482 134 483
3 481 132 482
3 483 126 481
3 477 484 482
3 482 132 477
3 484 134 482
3 477 41 484
3 454 476 481
3 481 126 454
3 476 132 481
3 454 38 476
3 485 457 483
3 483 134 485
3 457 126 483
3 485 9 457
3 488 486 487
3 487 136 488
3 486 131 487
3 488 135 486
3 479 489 487
3 487 131 479
3 489 136 487
3 479 40 489
3 490 478 486
3 486 135 490
3 478 131 486
3 490 41 478
3 492 491 488
3 488 136 492
3 491 135 488
3 492 2 491
3 495 493 494
3 494 127 495
3 493 133 494
3 495 137 493
3 475 462 494
3 494 133 475
3 462 127 494
3 475 38 462
3 496 480 493
3 493 137 496
3 480 133 493
3 496 40 480
3 463 497 495
3 495 127 463
3 497 137 495
3 463 10 497
3 500 498 499
3 499 140 500
3 498 139 499
3 500 138 498
3 502 501 499
3 499 139 502
3 501 140 499
3 502 33 501
3 504 503 498
3 498 138 504
3 503 139 498
3 504 13 503
3 506 505 500
3 500 140 506
3 505 138 500
3 506 23 505
3 509 507 508
3 508 47 509
3 507 139 508
3 509 110 507
3 503 182 508
3 508 139 503
3 182 47 508
3 503 13 182
3 398 502 507
3 507 110 398
3 502 139 507
3 398 33 502
3 183 401 509
3 509 47 183
3 401 110 509
3 183 8 401
3 512 510 511
3 511 79 512
3 510 138 511
3 512 46 510
3 505 294 511
3 511 138 505
3 294 79 511
3 505 23 294
3 174 504 510
3 510 46 174
3 504 138 510
3 174 13 504
3 295 177 512
3 512 79 295
3 177 46 512
3 295 4 177
3 515 513 514
3 514 111 515
3 513 140 514
3 515 78 513
3 501 406 514
3 514 140 501
3 406 111 514
3 501 33 406
3 286 506 513
3 513 78 286
3 506 140 513
3 286 23 506
3 407 289 515
3 515 111 407
3 289 78 515
3 407 0 289
3 518 516 517
3 517 143 518
3 516 142 517
3 518 141 516
3 520 519 517
3 517 142 520
3 519 143 517
3 520 19 519
3 522 521 516
3 516 141 522
3 521 142 516
3 522 32 521
3 524 523 518
3 518 143 524
3 523 141 518
3 524 26 523
3 527 525 526
3 526 113 527
3 525 142 526
3 527 66 525
3 521 413 526
3 526 142 521
3 413 113 526
3 521 32 413
3 244 520 525
3 525 66 244
3 520 142 525
3 244 19 520
3 414 247 527
3 527 113 414
3 247 66 527
3 414 11 247
3 530 528 529
3 529 86 530
3 528 141 529
3 530 112 528
3 523 316 529
3 529 141 523
3 316 86 529
3 523 26 316
3 405 522 528
3 528 112 405
3 522 141 528
3 405 32 522
3 317 408 530
3 530 86 317
3 408 112 530
3 317 0 408
3 533 531 532
3 532 61 533
3 531 143 532
3 533 89 531
3 519 231 532
3 532 143 519
3 231 61 532
3 519 19 231
3 326 524 531
3 531 89 326
3 524 143 531
3 326 26 524
3 232 329 533
3 533 61 232
3 329 89 533
3 232 5 329
3 536 534 535
3 535 146 536
3 534 145 535
3 536 144 534
3 538 537 535
3 535 145 538
3 537 146 535
3 538 22 537
3 540 539 534
3 534 144 540
3 539 145 534
3 540 16 539
3 542 541 536
3 536 146 542
3 541 144 536
3 542 39 541
3 545 543 544
3 544 54 545
3 543 145 544
3 545 80 543
3 539 204 544
3 544 145 539
3 204 54 544
3 539 16 204
3 293 538 543
3 543 80 293
3 538 145 543
3 293 22 538
3 205 296 545
3 545 54 205
3 296 80 545
3 205 4 296
3 548 546 547
3 547 125 548
3 546 144 547
3 548 57 546
3 541 455 547
3 547 144 541
3 455 125 547
3 541 39 455
3 214 540 546
3 546 57 214
3 540 144 546
3 214 16 540
3 456 217 548
3 548 125 456
3 217 57 548
3 456 9 217
3 551 549 550
3 550 81 551
3 549 146 550
3 551 130 549
3 537 301 550
3 550 146 537
3 301 81 550
3 537 22 301
3 468 542 549
3 549 130 468
3 542 146 549
3 468 39 542
3 302 471 551
3 551 81 302
3 471 130 551
3 302 3 471
3 554 552 553
3 553 149 554
3 552 148 553
3 554 147 552
3 556 555 553
3 553 148 556
3 555 149 553
3 556 21 555
3 558 557 552
3 552 147 558
3 557 148 552
3 558 25 557
3 560 559 554
3 554 149 560
3 559 147 554
3 560 37 559
3 563 561 562
3 562 88 563
3 561 148 562
3 563 70 561
3 557 327 562
3 562 148 557
3 327 88 562
3 557 25 327
3 260 556 561
3 561 70 260
3 556 148 561
3 260 21 556
3 328 261 563
3 563 88 328
3 261 70 563
3 328 5 261
3 566 564 565
3 565 129 566
3 564 147 565
3 566 87 564
3 559 469 565
3 565 147 559
3 469 129 565
3 559 37 469
3 321 558 564
3 564 87 321
3 558 147 564
3 321 25 558
3 470 322 566
3 566 129 470
3 322 87 566
3 470 3 322
3 569 567 568
3 568 71 569
3 567 149 568
3 569 128 567
3 555 266 568
3 568 149 555
3 266 71 568
3 555 21 266
3 461 560 567
3 567 128 461
3 560 149 567
3 461 37 560
3 267 464 569
3 569 71 267
3 464 128 569
3 267 10 464
3 572 570 571
3 571 152 572
3 570 151 571
3 572 150 570
3 574 573 571
3 571 151 574
3 573 152 571
3 574 27 573
3 576 575 570
3 570 150 576
3 575 151 570
3 576 12 575
3 578 577 572
3 572 152 578
3 577 150 572
3 578 36 577
3 581 579 580
3 580 49 581
3 579 151 580
3 581 96 579
3 575 189 580
3 580 151 575
3 189 49 580
3 575 12 189
3 349 574 579
3 579 96 349
3 574 151 579
3 349 27 574
3 190 352 581
3 581 49 190
3 352 96 581
3 190 7 352
3 584 582 583
3 583 118 584
3 582 150 583
3 584 48 582
3 577 428 583
3 583 150 577
3 428 118 583
3 577 36 428
3 181 576 582
3 582 48 181
3 576 150 582
3 181 12 576
3 429 184 584
3 584 118 429
3 184 48 584
3 429 8 184
3 587 585 586
3 586 97 587
3 585 152 586
3 587 121 585
3 573 357 586
3 586 152 573
3 357 97 586
3 573 27 357
3 438 578 585
3 585 121 438
3 578 152 585
3 438 36 578
3 358 441 587
3 587 97 358
3 441 121 587
3 358 1 441
3 590 588 589
3 589 155 590
3 588 154 589
3 590 153 588
3 592 591 589
3 589 154 592
3 591 155 589
3 592 17 591
3 594 593 588
3 588 153 594
3 593 154 588
3 594 30 593
3 596 595 590
3 590 155 596
3 595 153 590
3 596 35 595
3 599 597 598
3 598 104 599
3 597 154 598
3 599 64 597
3 593 383 598
3 598 154 593
3 383 104 598
3 593 30 383
3 237 592 597
3 597 64 237
3 592 154 597
3 237 17 592
3 384 240 599
3 599 104 384
3 240 64 599
3 384 6 240
3 602 600 601
3 601 120 602
3 600 153 601
3 602 103 600
3 595 439 601
3 601 153 595
3 439 120 601
3 595 35 439
3 377 594 600
3 600 103 377
3 594 153 600
3 377 30 594
3 440 378 602
3 602 120 440
3 378 103 602
3 440 1 378
3 605 603 604
3 604 65 605
3 603 155 604
3 605 119 603
3 591 245 604
3 604 155 591
3 245 65 604
3 591 17 245
3 433 596 603
3 603 119 433
3 596 155 603
3 433 35 596
3 246 434 605
3 605 65 246
3 434 119 605
3 246 11 434
3 608 606 607
3 607 158 608
3 606 157 607
3 608 156 606
3 610 609 607
3 607 157 610
3 609 158 607
3 610 15 609
3 612 611 606
3 606 156 612
3 611 157 606
3 612 28 611
3 614 613 608
3 608 158 614
3 613 156 608
3 614 41 613
3 617 615 616
3 616 95 617
3 615 157 616
3 617 55 615
3 611 350 616
3 616 157 611
3 350 95 616
3 611 28 350
3 209 610 615
3 615 55 209
3 610 157 615
3 209 15 610
3 351 210 617
3 617 95 351
3 210 55 617
3 351 7 210
3 620 618 619
3 619 135 620
3 618 156 619
3 620 94 618
3 613 490 619
3 619 156 613
3 490 135 619
3 613 41 490
3 342 612 618
3 618 94 342
3 612 156 618
3 342 28 612
3 491 345 620
3 620 135 491
3 345 94 620
3 491 2 345
3 623 621 622
3 622 56 623
3 621 158 622
3 623 134 621
3 609 215 622
3 622 158 609
3 215 56 622
3 609 15 215
3 484 614 621
3 621 134 484
3 614 158 621
3 484 41 614
3 216 485 623
3 623 56 216
3 485 134 623
3 216 9 485
3 626 624 625
3 625 161 626
3 624 160 625
3 626 159 624
3 628 627 625
3 625 160 628
3 627 161 625
3 628 31 627
3 630 629 624
3 624 159 630
3 629 160 624
3 630 20 629
3 632 631 626
3 626 161 632
3 631 159 626
3 632 40 631
3 635 633 634
3 634 73 635
3 633 160 634
3 635 105 633
3 629 272 634
3 634 160 629
3 272 73 634
3 629 20 272
3 382 628 633
3 633 105 382
3 628 160 633
3 382 31 628
3 273 385 635
3 635 73 273
3 385 105 635
3 273 6 385
3 638 636 637
3 637 137 638
3 636 159 637
3 638 72 636
3 631 496 637
3 637 159 631
3 496 137 637
3 631 40 496
3 265 630 636
3 636 72 265
3 630 159 636
3 265 20 630
3 497 268 638
3 638 137 497
3 268 72 638
3 497 10 268
3 641 639 640
3 640 102 641
3 639 161 640
3 641 136 639
3 627 372 640
3 640 161 627
3 372 102 640
3 627 31 372
3 489 632 639
3 639 136 489
3 632 161 639
3 489 40 632
3 373 492 641
3 641 102 373
3 492 136 641
3 373 2 492
