# vtk DataFile Version 3.0
this file was written using fslvtkio
ASCII
DATASET POLYDATA
POINTS 642 float
88.9092 110.499 84.0588
72.3899 108.546 81.7561
74.4873 103.567 75.8783
89.1175 105.008 79.7451
88.4838 100.834 82.7545
83.7111 114.09 77.5061
73.5931 114 75.3998
79.2037 98.8023 81.5349
80.3108 106.665 85.3024
85.2986 98.5599 76.8254
80.1087 107.497 75.9625
77.3623 115.872 81.8225
79.0536 102.637 84.6919
84.722 103.832 85.5041
84.2564 98.7613 82.5025
83.0525 95.8738 78.2861
89.2569 97.614 80.1134
74.4385 116.85 78.5778
79.0003 116.37 75.1661
80.4657 116.583 79.3086
76.916 111.128 73.7916
81.3404 111.445 76.6349
92.6079 101.21 81.0666
90.3544 104.909 84.2112
92.1111 107.384 81.4158
86.8878 110.081 78.8243
85.9998 112.225 81.0452
75.3357 103.253 82.0385
76.488 99.2255 78.5465
72.7037 106.324 78.7137
71.0683 112.266 78.6965
73.0261 109.024 75.0415
82.7308 113.752 83.1039
84.3308 108.856 84.7048
78.7212 111.583 84.1015
73.4877 113.161 81.8743
76.1876 107.01 84.0501
84.5683 106.352 77.1447
82.2428 102.447 75.6235
87.9561 101.648 78.9166
76.8702 105.626 75.4372
79.5063 98.5928 75.596
82.2038 102.764 85.1947
84.661 101.337 84.0614
82.2607 100.837 83.6188
86.7112 99.3252 82.7351
86.6603 102.24 83.9265
82.5323 105.228 85.1915
79.7155 104.561 85.6395
79.6997 100.936 82.9331
81.7569 98.2715 82.1452
83.7058 97.1604 80.6603
86.5295 98.2711 81.0558
86.1145 96.6298 79.3276
89.6945 98.5232 81.4234
80.5839 96.7827 80.2229
85.049 96.7661 77.1369
87.2179 98.791 78.9524
76.7722 116.497 76.9775
79.4874 116.474 77.4251
77.6321 117.171 78.4993
81.8498 115.032 78.2729
81.8206 115.89 76.078
75.8994 115.31 75.2885
74.0727 115.482 77.0171
75.6991 117.125 80.2913
78.762 116.552 80.4802
79.0633 111.62 75.1407
80.0541 113.95 75.5428
77.6687 113.686 74.8828
82.4535 113.096 76.8455
80.6448 109.725 76.1184
78.1268 109.387 75.4378
75.1517 112.963 74.5333
92.658 102.394 82.9655
92.127 105.403 82.7059
93.3296 103.436 81.1659
92.2463 109.747 83.2279
90.0717 108.044 84.5807
89.4502 102.603 83.5439
91.1771 100.486 82.017
90.6513 103.1 80.6965
91.0798 106.108 80.3316
89.9662 108.866 79.9463
90.9288 110.812 81.1681
87.9228 111.332 79.5926
87.7082 111.102 82.2832
88.5264 107.787 78.6251
85.0927 112.028 78.2781
84.5465 113.222 79.3118
76.5706 102.198 80.2704
75.3471 103.318 78.6735
74.2083 105.06 80.5775
73.9956 105.073 77.1374
75.1772 101.046 77.2344
78.0769 98.6803 80.1143
77.9046 101.523 81.6443
73.1116 105.938 82.2179
71.6253 107.237 80.4317
69.8504 108.728 78.3799
72.4785 107.745 76.8447
70.9146 110.83 76.7769
73.1804 106.275 75.1322
71.9482 110.027 80.2172
71.7463 113.628 76.8845
73.1641 111.776 75.4548
83.6917 111.392 84.4031
81.3619 110.356 84.7412
80.7958 112.96 83.9449
79.3259 108.997 84.449
82.3192 107.689 84.7089
86.702 109.682 84.788
85.6769 112.162 83.7126
80.0303 115.14 82.5968
77.8239 114.05 83.2774
76.043 112.432 83.2141
77.0735 109.501 83.8501
74.9173 110.174 83.2309
78.185 106.635 84.8712
75.04 115.089 81.9284
72.8298 110.825 81.8727
74.1304 107.92 82.88
83.3917 104.496 76.5565
84.7031 102.211 77.1164
85.7988 103.658 78.3622
87.1585 100.268 78.3594
83.8639 100.351 75.5049
81.0034 105 76.0413
82.3556 106.846 76.3574
86.7045 105.797 78.517
88.2114 102.76 79.7763
77.988 101.939 75.6036
80.6742 100.518 75.2962
79.8468 103.549 75.1598
82.6323 98.0212 75.5715
76.8986 101.051 76.194
75.5979 104.418 75.3618
78.3171 106.593 75.8243
87.3731 104.476 84.8734
84.7816 106.32 84.7289
87.648 107.009 85.166
84.251 113.443 81.9346
81.6369 115.858 81.4155
82.7454 114.377 80.2843
89.75 99.8873 79.103
92.375 98.9024 80.1897
91.0222 101.122 79.7986
85.961 108.567 77.4812
83.8802 110.657 77.7701
83.2936 109.091 76.651
77.4157 104.571 84.9495
76.8714 102.204 83.8175
74.9182 105.025 84.0443
71.6646 113.326 80.4024
71.9769 114.93 78.5523
72.6827 115.78 80.1533
77.7994 98.1043 76.8593
79.3129 96.9053 78.3327
81.277 96.3359 76.4986
76.4668 108.457 74.1732
74.5748 110.183 73.7912
74.6005 107.196 73.7136
83.4301 101.891 84.8187
83.4762 100.98 83.8706
82.0773 101.576 84.6092
83.2227 99.8353 83.0753
84.2717 100.289 83.1856
84.6422 102.574 84.8828
83.4857 103.204 85.5038
80.7493 102.741 84.608
80.7002 101.898 84.0609
85.5771 100.3 83.4597
85.5563 101.876 84.086
86.5699 100.789 83.5896
85.6668 103.218 84.535
85.4812 99.1819 82.6253
87.7055 99.8869 82.8608
87.6688 101.507 83.2905
82.3692 103.913 85.2295
81.0395 103.669 85.0732
81.2885 104.765 85.3016
79.3585 103.536 85.3919
83.5518 104.432 85.5381
81.411 105.959 85.1158
80.1806 105.616 85.3095
80.9678 100.956 83.241
82.1304 99.4523 82.8768
80.7967 99.6309 82.6167
82.9931 98.4433 82.3131
79.324 101.82 83.8858
79.3906 99.8175 82.2644
80.2896 98.3572 81.9418
85.1164 97.6279 80.9052
86.4767 97.2384 80.2675
84.8505 96.8597 79.8215
87.6365 97.0914 79.8006
87.8323 97.7562 80.5408
85.451 98.2147 81.6789
84.2164 97.7307 81.6072
83.3814 96.6887 79.4342
84.6084 96.2624 78.6767
87.9531 98.7091 81.0341
86.8957 98.6085 81.6906
88.0093 98.8863 81.9009
89.6543 97.9537 80.679
89.1172 99.5596 82.2017
82.7672 97.5017 81.4285
82.0557 96.8301 80.4833
81.1829 97.3698 81.2321
81.4656 96.3067 79.4034
79.6838 97.6466 80.9618
85.6822 96.767 78.179
87.1253 97.6066 78.8569
86.5102 98.0105 78.0286
88.2391 97.9346 79.427
84.0934 95.7852 77.596
85.34 97.8292 76.9811
86.5692 98.7573 78.1077
78.1195 116.712 77.1362
78.4574 116.701 77.9285
76.9864 116.969 77.8036
79.0353 116.822 78.8248
79.8549 116.338 78.2766
79.3775 116.602 76.3793
77.898 116.496 75.9997
75.5216 116.93 77.6749
75.9621 117.405 78.5229
80.7502 115.952 77.9073
80.7999 116.467 76.5278
82.0924 115.639 77.1247
80.539 116.295 75.3338
81.0436 115.737 78.8684
83.0465 114.603 77.7705
82.7746 114.816 76.8799
76.3725 116.226 75.8864
75.5479 116.026 76.9236
74.7991 115.566 76.0968
74.3526 116.082 77.8398
77.312 115.973 75.1862
74.8325 114.561 75.3339
73.3938 114.98 76.0487
76.5424 117.713 79.5069
78.026 116.904 79.509
77.3125 117.269 80.4014
79.5904 116.529 79.9346
74.9089 117.116 79.4165
76.6243 116.657 81.2243
77.9918 116.39 81.1372
79.5428 112.777 75.5307
78.9244 113.987 75.083
78.3084 112.673 74.9324
78.1553 115.107 74.8145
79.5828 115.252 74.9901
80.7078 112.567 76.078
80.1855 111.651 75.9875
77.9478 111.497 74.5206
77.1796 112.385 74.4364
80.8402 115.077 75.5912
81.1554 113.815 76.1971
82.0297 114.538 76.169
81.9488 112.309 76.6549
83.2643 113.653 76.9517
79.8189 110.756 75.7519
78.7087 110.587 75.1563
79.3014 109.729 75.853
77.5681 110.3 74.6497
81.0387 110.628 76.2711
80.3333 108.439 75.9203
79.0075 108.416 75.5871
76.4353 113.415 74.4316
76.6308 114.68 74.7144
75.5759 114.076 74.8031
75.8708 112.075 74.114
74.4544 113.405 74.9267
92.3338 103.823 82.7597
93.0351 104.185 82.0607
93.5046 102.763 82.0702
92.8901 105.345 81.1609
92.4847 105.983 82.062
91.2275 104.99 83.2833
91.2888 103.761 83.2025
93.3236 101.475 82.0055
93.4095 102.313 81.2633
91.8521 107.151 82.7754
91.1559 106.635 83.4218
91.3577 108.744 83.8649
89.9772 106.324 84.0739
92.2874 108.247 82.1259
90.7807 110.225 83.8802
89.8085 109.464 84.572
91.1362 102.465 83.2547
92.275 101.222 82.6439
90.5265 101.412 82.8516
92.4298 100.44 81.5911
90.0687 103.689 83.801
88.996 101.741 83.0708
89.6148 100.708 82.3186
92.2301 103.328 80.833
92.0774 104.698 80.7853
91.1171 104.437 80.6283
91.8618 106.422 80.7136
91.7416 102.107 80.9436
89.5891 103.886 80.662
90.0748 105.73 79.9216
90.6324 109.757 80.3831
89.4612 111.004 80.2906
89.2654 110.218 79.4862
87.1643 112.009 80.4334
88.4241 111.709 81.1737
91.7677 109 81.1741
91.358 108.226 80.6183
88.5703 109.589 79.2714
87.6233 110.555 79.1717
89.4599 111.318 81.9885
91.7321 110.391 82.1864
90.357 110.812 82.9858
86.928 111.687 81.6802
88.5204 110.825 83.1366
90.8499 107.677 79.8526
89.2751 108.321 79.1817
89.7911 107.061 79.4927
87.7586 109.057 78.5883
88.8095 106.563 79.1704
86.6545 111.712 78.8891
86.1996 112.337 79.6183
85.4255 112.675 78.7864
85.2327 112.769 80.1746
85.9401 111.063 78.6358
84.2935 113.096 77.9355
84.1274 113.703 78.301
76.0563 102.854 79.4181
75.0294 104.432 79.4677
75.353 103.459 80.2486
73.3696 105.721 79.652
74.5016 105.169 78.6842
76.1158 101.083 78.3713
76.3571 100.464 79.294
76.1903 102.948 81.0189
74.8264 104.123 81.2858
74.7007 104.305 77.9667
74.8321 101.845 77.8306
74.308 102.956 77.1443
75.7613 99.8812 77.8186
73.7579 105.878 77.7998
74.1003 104.173 76.4257
74.6275 102.234 76.5465
77.1536 100.061 79.957
77.0687 101.791 80.9099
77.9798 100.17 80.8134
76.6453 102.275 81.7916
77.2452 98.8719 79.3012
78.5698 98.5591 80.935
78.606 100.195 81.5651
73.2092 105.092 81.4767
72.4454 105.786 80.4918
72.55 106.514 81.2807
71.5844 106.574 79.4878
73.9178 104.612 82.4187
72.92 107.325 82.0091
72.3048 107.993 81.1619
71.0144 108.261 77.6633
71.5316 109.125 76.8048
70.2066 109.907 77.476
72.0862 109.829 75.9179
72.5367 108.5 75.8012
72.4437 107.098 77.864
71.0674 107.285 78.654
69.9852 110.561 78.3765
70.359 111.505 77.525
72.8094 107.14 75.9339
73.2699 106.544 76.9001
73.1534 105.619 76.0512
73.0313 107.735 75.1246
73.6739 105.112 75.5493
70.4826 107.813 79.4795
70.5237 109.489 79.3893
71.2045 108.657 80.5131
71.3407 111.135 79.4406
72.1696 109.317 81.0787
70.9984 112.219 76.7249
71.9939 111.325 76.0731
72.1349 112.812 75.7999
72.9587 110.323 75.3021
71.343 112.886 77.8123
72.492 113.982 75.9623
73.1457 112.97 75.0843
82.5035 110.893 84.6324
81.0334 111.669 84.4011
82.1513 112.122 83.981
79.7095 112.424 84.268
79.9743 111.038 84.5971
82.8146 109.569 84.79
84.0982 110.147 84.6786
83.2537 112.567 83.7741
81.8401 113.333 83.4219
80.2827 109.78 84.6787
81.6936 108.954 84.8154
80.6669 108.391 84.9322
83.2025 108.196 84.6066
79.0437 110.215 84.2024
79.7285 107.789 85.072
81.277 107.105 84.9994
85.1767 110.528 84.3938
84.8382 111.898 84.1927
86.2229 110.843 84.1092
84.265 112.937 83.392
85.6391 109.29 84.8835
87.7887 110.012 84.4561
87.1595 111.108 83.635
80.4041 114.199 83.3685
79.3425 113.658 83.836
79.0421 114.681 83.0283
78.1312 112.831 83.78
81.3671 114.566 82.7451
78.5106 115.553 82.1582
77.4466 115.009 82.5265
76.6033 110.967 83.4125
75.9854 109.867 83.6119
75.4543 111.344 83.1103
75.5708 108.608 83.4258
76.6524 108.255 83.9737
77.7596 110.589 83.8066
77.3049 111.921 83.6577
74.7362 112.894 82.5757
74.2589 111.766 82.565
77.5047 107.993 84.3145
78.1081 109.202 84.0251
78.5763 107.898 84.4605
77.0376 106.733 84.4513
79.2655 106.71 85.1057
76.8317 113.295 83.3184
75.4152 113.823 82.7718
76.3709 114.613 82.8712
74.0976 114.201 81.8316
76.281 115.616 82.0106
73.8777 110.654 82.4853
74.459 109.072 83.1087
73.2928 109.47 82.6799
75.085 107.476 83.5337
73.2123 112.057 81.7562
72.2755 109.645 81.9494
73.1008 108.231 82.3459
83.9445 103.327 76.7557
85.4503 103.088 77.6267
84.4914 104.196 77.6002
86.7023 102.537 78.7357
86.2668 101.812 78.4682
83.397 102.435 75.9316
82.9288 103.465 75.9686
83.8118 105.476 77.0959
84.9519 105.195 77.7448
85.9011 101.019 77.928
84.1845 101.344 76.5201
85.5361 100.312 76.9104
82.9185 101.578 75.428
87.7062 101.057 78.7436
86.2979 99.6538 77.6563
84.6302 99.2978 75.8202
82.3872 104.759 75.9885
82.7634 105.626 76.628
81.6598 105.842 76.2856
83.4623 106.575 76.766
81.7619 103.721 75.5548
80.2929 106.282 76.4585
81.2476 107.15 76.0353
86.1633 104.706 78.4318
86.9976 103.214 79.1088
87.2509 104.198 79.3051
88.2217 102.205 79.31
85.5601 105.969 77.9087
87.8921 105.349 79.1241
88.4602 103.725 80.1538
79.3696 101.176 75.8802
80.4358 101.929 75.4641
78.9135 102.755 75.2016
81.0441 102.772 75.4673
81.538 101.617 75.231
79.9455 99.6067 75.4174
78.8428 100.264 76.1149
77.5502 103.852 75.3503
78.3555 104.609 75.5485
82.1796 100.27 75.258
81.4612 99.3583 75.2994
83.1243 99.3254 75.2212
80.9319 98.3387 75.6506
84.0345 98.0374 76.2557
77.4886 101.533 76.1417
76.8006 103.141 75.4999
76.2777 102.654 75.8272
76.1488 105.194 75.0818
78.4219 99.8073 76.044
75.6417 102.143 76.0305
74.9698 103.97 75.3507
78.8651 105.007 75.8975
80.435 104.09 75.502
79.5167 105.636 76.2711
77.4025 106.261 75.7919
79.2115 106.973 75.9202
86.1114 105.428 85.1248
86.0446 106.876 84.9333
87.6326 105.797 85.1829
85.9885 107.97 84.8443
84.726 107.695 84.5262
84.8252 105.07 85.2127
86.0098 104.213 85.0098
88.9583 104.698 84.5645
89.0194 106.062 84.9065
83.7012 106.96 84.6298
83.6761 105.734 85.0049
82.646 106.403 84.9685
87.0213 103.363 84.4291
88.6775 103.578 84.4505
88.2006 102.532 83.8913
88.867 107.391 84.9593
87.2616 108.444 85.2027
88.4768 108.937 85.1032
82.9856 114.654 81.7691
82.2137 115.355 80.8008
83.6483 113.979 81.1597
81.6438 115.756 79.7484
81.0635 116.391 80.4772
82.1269 114.707 82.2752
83.5733 113.869 82.5711
84.9197 112.617 81.3843
84.2634 113.081 80.6566
80.2703 116.304 80.9657
80.8838 115.617 82.0912
79.2823 116.075 81.6273
85.1322 112.978 82.8458
85.8063 112.163 82.0283
86.5638 111.748 82.726
83.4488 113.64 79.7531
82.2925 114.768 79.1681
83.2228 114.293 78.7295
90.9729 99.3432 79.5758
92.0348 100.032 79.8184
90.8781 100.507 79.1045
91.8414 100.97 80.3974
92.7992 99.9593 80.532
90.8515 98.2513 80.0238
89.6258 98.6226 79.5097
89.1261 100.978 78.9503
89.6472 101.414 79.2948
92.1644 99.2206 81.0293
91.361 98.1296 80.7977
90.524 99.4297 81.5935
88.6203 98.9927 79.0305
88.5689 100.042 78.827
87.5147 99.4159 78.6291
89.5024 101.965 79.9978
90.4719 101.785 80.5705
89.3357 102.637 80.3567
84.9933 109.737 77.7207
83.5933 110.037 77.1776
84.7931 108.787 76.821
82.3627 110.375 76.6778
82.6835 111.089 77.0912
85.3028 110.387 78.2925
86.3112 109.464 78.2117
85.4479 107.581 77.0515
84.3045 107.793 76.5247
83.2678 111.748 77.2909
84.4728 111.359 77.9815
83.7961 112.519 77.5099
87.1266 108.152 78.0132
86.4515 107.26 77.7837
87.6257 106.914 78.3453
83.0632 107.982 76.2858
81.8265 109.465 76.5464
81.605 108.188 76.0956
76.8727 103.167 84.7756
75.8768 103.555 83.9587
76.2455 104.748 84.4252
74.9167 104.188 83.1939
76.0846 102.51 83.0153
77.8067 102.265 84.5566
78.072 103.266 85.3661
76.7644 105.619 84.4341
75.6319 105.973 83.9719
77.2972 101.686 82.6663
78.1685 101.631 83.3512
78.6806 101.277 82.2632
78.5571 104.463 85.4364
77.712 105.609 84.7895
79.0545 105.651 85.2763
74.561 106.532 83.3533
73.8437 105.436 83.3231
73.6754 106.925 82.6665
71.412 114.328 79.4225
72.0939 115.518 79.1576
71.8893 114.419 80.2233
73.3611 116.493 79.1768
73.3301 115.86 78.5033
71.3974 113.659 78.6606
71.6432 112.853 79.5097
72.5168 113.339 81.131
72.8696 114.422 81.0082
73.0698 115.285 77.9334
71.7938 114.333 77.7989
72.5102 114.844 76.8531
71.7187 111.636 80.1751
72.337 111.95 80.9604
72.1586 110.567 81.0288
73.7602 115.456 81.0379
73.9923 116.623 80.1531
75.1585 116.137 81.0719
78.5894 97.2829 77.4887
80.2192 96.1711 77.3078
79.5406 97.1263 76.6787
82.1817 95.6312 77.1682
81.0742 95.986 78.1969
77.8669 97.9161 78.3374
76.9002 98.3832 77.6932
79.0421 98.3423 76.1522
80.3225 97.4585 76.1119
79.8684 96.7063 79.2459
78.5624 97.6513 79.0754
79.1115 97.3335 79.9724
76.2026 99.3406 77.0122
77.1131 99.368 76.388
76.0307 100.821 76.5816
82.0127 96.9964 76.3036
83.1764 96.1377 76.6342
83.8178 97.0976 76.5014
75.4778 109.217 73.775
74.6747 108.614 73.5191
75.6567 107.803 73.655
73.8712 108.286 74.3314
73.718 109.646 74.2964
75.6482 110.717 73.5639
76.4885 109.843 74.1097
76.5131 107.112 74.5218
75.6053 106.544 74.194
73.7809 111.089 74.5704
74.6679 111.72 73.7918
73.9273 112.33 74.6219
77.2486 109.006 74.7527
77.3421 107.701 74.856
78.147 108.005 75.2885
74.7466 105.93 74.1788
73.7717 106.763 74.3665
74.1382 105.465 74.7592
POLYGONS 1280  5120
3 164 162 163
3 163 44 164
3 162 43 163
3 164 42 162
3 166 165 163
3 163 43 166
3 165 44 163
3 166 14 165
3 168 167 162
3 162 42 168
3 167 43 162
3 168 13 167
3 170 169 164
3 164 44 170
3 169 42 164
3 170 12 169
3 173 171 172
3 172 46 173
3 171 43 172
3 173 45 171
3 167 174 172
3 172 43 167
3 174 46 172
3 167 13 174
3 175 166 171
3 171 45 175
3 166 43 171
3 175 14 166
3 177 176 173
3 173 46 177
3 176 45 173
3 177 4 176
3 180 178 179
3 179 48 180
3 178 42 179
3 180 47 178
3 169 181 179
3 179 42 169
3 181 48 179
3 169 12 181
3 182 168 178
3 178 47 182
3 168 42 178
3 182 13 168
3 184 183 180
3 180 48 184
3 183 47 180
3 184 8 183
3 187 185 186
3 186 50 187
3 185 44 186
3 187 49 185
3 165 188 186
3 186 44 165
3 188 50 186
3 165 14 188
3 189 170 185
3 185 49 189
3 170 44 185
3 189 12 170
3 191 190 187
3 187 50 191
3 190 49 187
3 191 7 190
3 194 192 193
3 193 53 194
3 192 52 193
3 194 51 192
3 196 195 193
3 193 52 196
3 195 53 193
3 196 16 195
3 198 197 192
3 192 51 198
3 197 52 192
3 198 14 197
3 200 199 194
3 194 53 200
3 199 51 194
3 200 15 199
3 203 201 202
3 202 45 203
3 201 52 202
3 203 54 201
3 197 175 202
3 202 52 197
3 175 45 202
3 197 14 175
3 204 196 201
3 201 54 204
3 196 52 201
3 204 16 196
3 176 205 203
3 203 45 176
3 205 54 203
3 176 4 205
3 208 206 207
3 207 55 208
3 206 51 207
3 208 50 206
3 199 209 207
3 207 51 199
3 209 55 207
3 199 15 209
3 188 198 206
3 206 50 188
3 198 51 206
3 188 14 198
3 210 191 208
3 208 55 210
3 191 50 208
3 210 7 191
3 213 211 212
3 212 57 213
3 211 53 212
3 213 56 211
3 195 214 212
3 212 53 195
3 214 57 212
3 195 16 214
3 215 200 211
3 211 56 215
3 200 53 211
3 215 15 200
3 217 216 213
3 213 57 217
3 216 56 213
3 217 9 216
3 220 218 219
3 219 60 220
3 218 59 219
3 220 58 218
3 222 221 219
3 219 59 222
3 221 60 219
3 222 19 221
3 224 223 218
3 218 58 224
3 223 59 218
3 224 18 223
3 226 225 220
3 220 60 226
3 225 58 220
3 226 17 225
3 229 227 228
3 228 62 229
3 227 59 228
3 229 61 227
3 223 230 228
3 228 59 223
3 230 62 228
3 223 18 230
3 231 222 227
3 227 61 231
3 222 59 227
3 231 19 222
3 233 232 229
3 229 62 233
3 232 61 229
3 233 5 232
3 236 234 235
3 235 64 236
3 234 58 235
3 236 63 234
3 225 237 235
3 235 58 225
3 237 64 235
3 225 17 237
3 238 224 234
3 234 63 238
3 224 58 234
3 238 18 224
3 240 239 236
3 236 64 240
3 239 63 236
3 240 6 239
3 243 241 242
3 242 66 243
3 241 60 242
3 243 65 241
3 221 244 242
3 242 60 221
3 244 66 242
3 221 19 244
3 245 226 241
3 241 65 245
3 226 60 241
3 245 17 226
3 247 246 243
3 243 66 247
3 246 65 243
3 247 11 246
3 250 248 249
3 249 69 250
3 248 68 249
3 250 67 248
3 252 251 249
3 249 68 252
3 251 69 249
3 252 18 251
3 254 253 248
3 248 67 254
3 253 68 248
3 254 21 253
3 256 255 250
3 250 69 256
3 255 67 250
3 256 20 255
3 259 257 258
3 258 70 259
3 257 68 258
3 259 62 257
3 253 260 258
3 258 68 253
3 260 70 258
3 253 21 260
3 230 252 257
3 257 62 230
3 252 68 257
3 230 18 252
3 261 233 259
3 259 70 261
3 233 62 259
3 261 5 233
3 264 262 263
3 263 72 264
3 262 67 263
3 264 71 262
3 255 265 263
3 263 67 255
3 265 72 263
3 255 20 265
3 266 254 262
3 262 71 266
3 254 67 262
3 266 21 254
3 268 267 264
3 264 72 268
3 267 71 264
3 268 10 267
3 271 269 270
3 270 63 271
3 269 69 270
3 271 73 269
3 251 238 270
3 270 69 251
3 238 63 270
3 251 18 238
3 272 256 269
3 269 73 272
3 256 69 269
3 272 20 256
3 239 273 271
3 271 63 239
3 273 73 271
3 239 6 273
3 276 274 275
3 275 76 276
3 274 75 275
3 276 74 274
3 278 277 275
3 275 75 278
3 277 76 275
3 278 24 277
3 280 279 274
3 274 74 280
3 279 75 274
3 280 23 279
3 282 281 276
3 276 76 282
3 281 74 276
3 282 22 281
3 285 283 284
3 284 78 285
3 283 75 284
3 285 77 283
3 279 286 284
3 284 75 279
3 286 78 284
3 279 23 286
3 287 278 283
3 283 77 287
3 278 75 283
3 287 24 278
3 289 288 285
3 285 78 289
3 288 77 285
3 289 0 288
3 292 290 291
3 291 80 292
3 290 74 291
3 292 79 290
3 281 293 291
3 291 74 281
3 293 80 291
3 281 22 293
3 294 280 290
3 290 79 294
3 280 74 290
3 294 23 280
3 296 295 292
3 292 80 296
3 295 79 292
3 296 4 295
3 299 297 298
3 298 82 299
3 297 76 298
3 299 81 297
3 277 300 298
3 298 76 277
3 300 82 298
3 277 24 300
3 301 282 297
3 297 81 301
3 282 76 297
3 301 22 282
3 303 302 299
3 299 82 303
3 302 81 299
3 303 3 302
3 306 304 305
3 305 85 306
3 304 84 305
3 306 83 304
3 308 307 305
3 305 84 308
3 307 85 305
3 308 26 307
3 310 309 304
3 304 83 310
3 309 84 304
3 310 24 309
3 312 311 306
3 306 85 312
3 311 83 306
3 312 25 311
3 315 313 314
3 314 77 315
3 313 84 314
3 315 86 313
3 309 287 314
3 314 84 309
3 287 77 314
3 309 24 287
3 316 308 313
3 313 86 316
3 308 84 313
3 316 26 308
3 288 317 315
3 315 77 288
3 317 86 315
3 288 0 317
3 320 318 319
3 319 87 320
3 318 83 319
3 320 82 318
3 311 321 319
3 319 83 311
3 321 87 319
3 311 25 321
3 300 310 318
3 318 82 300
3 310 83 318
3 300 24 310
3 322 303 320
3 320 87 322
3 303 82 320
3 322 3 303
3 325 323 324
3 324 89 325
3 323 85 324
3 325 88 323
3 307 326 324
3 324 85 307
3 326 89 324
3 307 26 326
3 327 312 323
3 323 88 327
3 312 85 323
3 327 25 312
3 329 328 325
3 325 89 329
3 328 88 325
3 329 5 328
3 332 330 331
3 331 92 332
3 330 91 331
3 332 90 330
3 334 333 331
3 331 91 334
3 333 92 331
3 334 29 333
3 336 335 330
3 330 90 336
3 335 91 330
3 336 28 335
3 338 337 332
3 332 92 338
3 337 90 332
3 338 27 337
3 341 339 340
3 340 94 341
3 339 91 340
3 341 93 339
3 335 342 340
3 340 91 335
3 342 94 340
3 335 28 342
3 343 334 339
3 339 93 343
3 334 91 339
3 343 29 334
3 345 344 341
3 341 94 345
3 344 93 341
3 345 2 344
3 348 346 347
3 347 96 348
3 346 90 347
3 348 95 346
3 337 349 347
3 347 90 337
3 349 96 347
3 337 27 349
3 350 336 346
3 346 95 350
3 336 90 346
3 350 28 336
3 352 351 348
3 348 96 352
3 351 95 348
3 352 7 351
3 355 353 354
3 354 98 355
3 353 92 354
3 355 97 353
3 333 356 354
3 354 92 333
3 356 98 354
3 333 29 356
3 357 338 353
3 353 97 357
3 338 92 353
3 357 27 338
3 359 358 355
3 355 98 359
3 358 97 355
3 359 1 358
3 362 360 361
3 361 101 362
3 360 100 361
3 362 99 360
3 364 363 361
3 361 100 364
3 363 101 361
3 364 31 363
3 366 365 360
3 360 99 366
3 365 100 360
3 366 29 365
3 368 367 362
3 362 101 368
3 367 99 362
3 368 30 367
3 371 369 370
3 370 93 371
3 369 100 370
3 371 102 369
3 365 343 370
3 370 100 365
3 343 93 370
3 365 29 343
3 372 364 369
3 369 102 372
3 364 100 369
3 372 31 364
3 344 373 371
3 371 93 344
3 373 102 371
3 344 2 373
3 376 374 375
3 375 103 376
3 374 99 375
3 376 98 374
3 367 377 375
3 375 99 367
3 377 103 375
3 367 30 377
3 356 366 374
3 374 98 356
3 366 99 374
3 356 29 366
3 378 359 376
3 376 103 378
3 359 98 376
3 378 1 359
3 381 379 380
3 380 105 381
3 379 101 380
3 381 104 379
3 363 382 380
3 380 101 363
3 382 105 380
3 363 31 382
3 383 368 379
3 379 104 383
3 368 101 379
3 383 30 368
3 385 384 381
3 381 105 385
3 384 104 381
3 385 6 384
3 388 386 387
3 387 108 388
3 386 107 387
3 388 106 386
3 390 389 387
3 387 107 390
3 389 108 387
3 390 34 389
3 392 391 386
3 386 106 392
3 391 107 386
3 392 33 391
3 394 393 388
3 388 108 394
3 393 106 388
3 394 32 393
3 397 395 396
3 396 110 397
3 395 107 396
3 397 109 395
3 391 398 396
3 396 107 391
3 398 110 396
3 391 33 398
3 399 390 395
3 395 109 399
3 390 107 395
3 399 34 390
3 401 400 397
3 397 110 401
3 400 109 397
3 401 8 400
3 404 402 403
3 403 112 404
3 402 106 403
3 404 111 402
3 393 405 403
3 403 106 393
3 405 112 403
3 393 32 405
3 406 392 402
3 402 111 406
3 392 106 402
3 406 33 392
3 408 407 404
3 404 112 408
3 407 111 404
3 408 0 407
3 411 409 410
3 410 114 411
3 409 108 410
3 411 113 409
3 389 412 410
3 410 108 389
3 412 114 410
3 389 34 412
3 413 394 409
3 409 113 413
3 394 108 409
3 413 32 394
3 415 414 411
3 411 114 415
3 414 113 411
3 415 11 414
3 418 416 417
3 417 117 418
3 416 116 417
3 418 115 416
3 420 419 417
3 417 116 420
3 419 117 417
3 420 36 419
3 422 421 416
3 416 115 422
3 421 116 416
3 422 34 421
3 424 423 418
3 418 117 424
3 423 115 418
3 424 35 423
3 427 425 426
3 426 109 427
3 425 116 426
3 427 118 425
3 421 399 426
3 426 116 421
3 399 109 426
3 421 34 399
3 428 420 425
3 425 118 428
3 420 116 425
3 428 36 420
3 400 429 427
3 427 109 400
3 429 118 427
3 400 8 429
3 432 430 431
3 431 119 432
3 430 115 431
3 432 114 430
3 423 433 431
3 431 115 423
3 433 119 431
3 423 35 433
3 412 422 430
3 430 114 412
3 422 115 430
3 412 34 422
3 434 415 432
3 432 119 434
3 415 114 432
3 434 11 415
3 437 435 436
3 436 121 437
3 435 117 436
3 437 120 435
3 419 438 436
3 436 117 419
3 438 121 436
3 419 36 438
3 439 424 435
3 435 120 439
3 424 117 435
3 439 35 424
3 441 440 437
3 437 121 441
3 440 120 437
3 441 1 440
3 444 442 443
3 443 124 444
3 442 123 443
3 444 122 442
3 446 445 443
3 443 123 446
3 445 124 443
3 446 39 445
3 448 447 442
3 442 122 448
3 447 123 442
3 448 38 447
3 450 449 444
3 444 124 450
3 449 122 444
3 450 37 449
3 453 451 452
3 452 126 453
3 451 123 452
3 453 125 451
3 447 454 452
3 452 123 447
3 454 126 452
3 447 38 454
3 455 446 451
3 451 125 455
3 446 123 451
3 455 39 446
3 457 456 453
3 453 126 457
3 456 125 453
3 457 9 456
3 460 458 459
3 459 128 460
3 458 122 459
3 460 127 458
3 449 461 459
3 459 122 449
3 461 128 459
3 449 37 461
3 462 448 458
3 458 127 462
3 448 122 458
3 462 38 448
3 464 463 460
3 460 128 464
3 463 127 460
3 464 10 463
3 467 465 466
3 466 130 467
3 465 124 466
3 467 129 465
3 445 468 466
3 466 124 445
3 468 130 466
3 445 39 468
3 469 450 465
3 465 129 469
3 450 124 465
3 469 37 450
3 471 470 467
3 467 130 471
3 470 129 467
3 471 3 470
3 474 472 473
3 473 133 474
3 472 132 473
3 474 131 472
3 476 475 473
3 473 132 476
3 475 133 473
3 476 38 475
3 478 477 472
3 472 131 478
3 477 132 472
3 478 41 477
3 480 479 474
3 474 133 480
3 479 131 474
3 480 40 479
3 483 481 482
3 482 134 483
3 481 132 482
3 483 126 481
3 477 484 482
3 482 132 477
3 484 134 482
3 477 41 484
3 454 476 481
3 481 126 454
3 476 132 481
3 454 38 476
3 485 457 483
3 483 134 485
3 457 126 483
3 485 9 457
3 488 486 487
3 487 136 488
3 486 131 487
3 488 135 486
3 479 489 487
3 487 131 479
3 489 136 487
3 479 40 489
3 490 478 486
3 486 135 490
3 478 131 486
3 490 41 478
3 492 491 488
3 488 136 492
3 491 135 488
3 492 2 491
3 495 493 494
3 494 127 495
3 493 133 494
3 495 137 493
3 475 462 494
3 494 133 475
3 462 127 494
3 475 38 462
3 496 480 493
3 493 137 496
3 480 133 493
3 496 40 480
3 463 497 495
3 495 127 463
3 497 137 495
3 463 10 497
3 500 498 499
3 499 140 500
3 498 139 499
3 500 138 498
3 502 501 499
3 499 139 502
3 501 140 499
3 502 33 501
3 504 503 498
3 498 138 504
3 503 139 498
3 504 13 503
3 506 505 500
3 500 140 506
3 505 138 500
3 506 23 505
3 509 507 508
3 508 47 509
3 507 139 508
3 509 110 507
3 503 182 508
3 508 139 503
3 182 47 508
3 503 13 182
3 398 502 507
3 507 110 398
3 502 139 507
3 398 33 502
3 183 401 509
3 509 47 183
3 401 110 509
3 183 8 401
3 512 510 511
3 511 79 512
3 510 138 511
3 512 46 510
3 505 294 511
3 511 138 505
3 294 79 511
3 505 23 294
3 174 504 510
3 510 46 174
3 504 138 510
3 174 13 504
3 295 177 512
3 512 79 295
3 177 46 512
3 295 4 177
3 515 513 514
3 514 111 515
3 513 140 514
3 515 78 513
3 501 406 514
3 514 140 501
3 406 111 514
3 501 33 406
3 286 506 513
3 513 78 286
3 506 140 513
3 286 23 506
3 407 289 515
3 515 111 407
3 289 78 515
3 407 0 289
3 518 516 517
3 517 143 518
3 516 142 517
3 518 141 516
3 520 519 517
3 517 142 520
3 519 143 517
3 520 19 519
3 522 521 516
3 516 141 522
3 521 142 516
3 522 32 521
3 524 523 518
3 518 143 524
3 523 141 518
3 524 26 523
3 527 525 526
3 526 113 527
3 525 142 526
3 527 66 525
3 521 413 526
3 526 142 521
3 413 113 526
3 521 32 413
3 244 520 525
3 525 66 244
3 520 142 525
3 244 19 520
3 414 247 527
3 527 113 414
3 247 66 527
3 414 11 247
3 530 528 529
3 529 86 530
3 528 141 529
3 530 112 528
3 523 316 529
3 529 141 523
3 316 86 529
3 523 26 316
3 405 522 528
3 528 112 405
3 522 141 528
3 405 32 522
3 317 408 530
3 530 86 317
3 408 112 530
3 317 0 408
3 533 531 532
3 532 61 533
3 531 143 532
3 533 89 531
3 519 231 532
3 532 143 519
3 231 61 532
3 519 19 231
3 326 524 531
3 531 89 326
3 524 143 531
3 326 26 524
3 232 329 533
3 533 61 232
3 329 89 533
3 232 5 329
3 536 534 535
3 535 146 536
3 534 145 535
3 536 144 534
3 538 537 535
3 535 145 538
3 537 146 535
3 538 22 537
3 540 539 534
3 534 144 540
3 539 145 534
3 540 16 539
3 542 541 536
3 536 146 542
3 541 144 536
3 542 39 541
3 545 543 544
3 544 54 545
3 543 145 544
3 545 80 543
3 539 204 544
3 544 145 539
3 204 54 544
3 539 16 204
3 293 538 543
3 543 80 293
3 538 145 543
3 293 22 538
3 205 296 545
3 545 54 205
3 296 80 545
3 205 4 296
3 548 546 547
3 547 125 548
3 546 144 547
3 548 57 546
3 541 455 547
3 547 144 541
3 455 125 547
3 541 39 455
3 214 540 546
3 546 57 214
3 540 144 546
3 214 16 540
3 456 217 548
3 548 125 456
3 217 57 548
3 456 9 217
3 551 549 550
3 550 81 551
3 549 146 550
3 551 130 549
3 537 301 550
3 550 146 537
3 301 81 550
3 537 22 301
3 468 542 549
3 549 130 468
3 542 146 549
3 468 39 542
3 302 471 551
3 551 81 302
3 471 130 551
3 302 3 471
3 554 552 553
3 553 149 554
3 552 148 553
3 554 147 552
3 556 555 553
3 553 148 556
3 555 149 553
3 556 21 555
3 558 557 552
3 552 147 558
3 557 148 552
3 558 25 557
3 560 559 554
3 554 149 560
3 559 147 554
3 560 37 559
3 563 561 562
3 562 88 563
3 561 148 562
3 563 70 561
3 557 327 562
3 562 148 557
3 327 88 562
3 557 25 327
3 260 556 561
3 561 70 260
3 556 148 561
3 260 21 556
3 328 261 563
3 563 88 328
3 261 70 563
3 328 5 261
3 566 564 565
3 565 129 566
3 564 147 565
3 566 87 564
3 559 469 565
3 565 147 559
3 469 129 565
3 559 37 469
3 321 558 564
3 564 87 321
3 558 147 564
3 321 25 558
3 470 322 566
3 566 129 470
3 322 87 566
3 470 3 322
3 569 567 568
3 568 71 569
3 567 149 568
3 569 128 567
3 555 266 568
3 568 149 555
3 266 71 568
3 555 21 266
3 461 560 567
3 567 128 461
3 560 149 567
3 461 37 560
3 267 464 569
3 569 71 267
3 464 128 569
3 267 10 464
3 572 570 571
3 571 152 572
3 570 151 571
3 572 150 570
3 574 573 571
3 571 151 574
3 573 152 571
3 574 27 573
3 576 575 570
3 570 150 576
3 575 151 570
3 576 12 575
3 578 577 572
3 572 152 578
3 577 150 572
3 578 36 577
3 581 579 580
3 580 49 581
3 579 151 580
3 581 96 579
3 575 189 580
3 580 151 575
3 189 49 580
3 575 12 189
3 349 574 579
3 579 96 349
3 574 151 579
3 349 27 574
3 190 352 581
3 581 49 190
3 352 96 581
3 190 7 352
3 584 582 583
3 583 118 584
3 582 150 583
3 584 48 582
3 577 428 583
3 583 150 577
3 428 118 583
3 577 36 428
3 181 576 582
3 582 48 181
3 576 150 582
3 181 12 576
3 429 184 584
3 584 118 429
3 184 48 584
3 429 8 184
3 587 585 586
3 586 97 587
3 585 152 586
3 587 121 585
3 573 357 586
3 586 152 573
3 357 97 586
3 573 27 357
3 438 578 585
3 585 121 438
3 578 152 585
3 438 36 578
3 358 441 587
3 587 97 358
3 441 121 587
3 358 1 441
3 590 588 589
3 589 155 590
3 588 154 589
3 590 153 588
3 592 591 589
3 589 154 592
3 591 155 589
3 592 17 591
3 594 593 588
3 588 153 594
3 593 154 588
3 594 30 593
3 596 595 590
3 590 155 596
3 595 153 590
3 596 35 595
3 599 597 598
3 598 104 599
3 597 154 598
3 599 64 597
3 593 383 598
3 598 154 593
3 383 104 598
3 593 30 383
3 237 592 597
3 597 64 237
3 592 154 597
3 237 17 592
3 384 240 599
3 599 104 384
3 240 64 599
3 384 6 240
3 602 600 601
3 601 120 602
3 600 153 601
3 602 103 600
3 595 439 601
3 601 153 595
3 439 120 601
3 595 35 439
3 377 594 600
3 600 103 377
3 594 153 600
3 377 30 594
3 440 378 602
3 602 120 440
3 378 103 602
3 440 1 378
3 605 603 604
3 604 65 605
3 603 155 604
3 605 119 603
3 591 245 604
3 604 155 591
3 245 65 604
3 591 17 245
3 433 596 603
3 603 119 433
3 596 155 603
3 433 35 596
3 246 434 605
3 605 65 246
3 434 119 605
3 246 11 434
3 608 606 607
3 607 158 608
3 606 157 607
3 608 156 606
3 610 609 607
3 607 157 610
3 609 158 607
3 610 15 609
3 612 611 606
3 606 156 612
3 611 157 606
3 612 28 611
3 614 613 608
3 608 158 614
3 613 156 608
3 614 41 613
3 617 615 616
3 616 95 617
3 615 157 616
3 617 55 615
3 611 350 616
3 616 157 611
3 350 95 616
3 611 28 350
3 209 610 615
3 615 55 209
3 610 157 615
3 209 15 610
3 351 210 617
3 617 95 351
3 210 55 617
3 351 7 210
3 620 618 619
3 619 135 620
3 618 156 619
3 620 94 618
3 613 490 619
3 619 156 613
3 490 135 619
3 613 41 490
3 342 612 618
3 618 94 342
3 612 156 618
3 342 28 612
3 491 345 620
3 620 135 491
3 345 94 620
3 491 2 345
3 623 621 622
3 622 56 623
3 621 158 622
3 623 134 621
3 609 215 622
3 622 158 609
3 215 56 622
3 609 15 215
3 484 614 621
3 621 134 484
3 614 158 621
3 484 41 614
3 216 485 623
3 623 56 216
3 485 134 623
3 216 9 485
3 626 624 625
3 625 161 626
3 624 160 625
3 626 159 624
3 628 627 625
3 625 160 628
3 627 161 625
3 628 31 627
3 630 629 624
3 624 159 630
3 629 160 624
3 630 20 629
3 632 631 626
3 626 161 632
3 631 159 626
3 632 40 631
3 635 633 634
3 634 73 635
3 633 160 634
3 635 105 633
3 629 272 634
3 634 160 629
3 272 73 634
3 629 20 272
3 382 628 633
3 633 105 382
3 628 160 633
3 382 31 628
3 273 385 635
3 635 73 273
3 385 105 635
3 273 6 385
3 638 636 637
3 637 137 638
3 636 159 637
3 638 72 636
3 631 496 637
3 637 159 631
3 496 137 637
3 631 40 496
3 265 630 636
3 636 72 265
3 630 159 636
3 265 20 630
3 497 268 638
3 638 137 497
3 268 72 638
3 497 10 268
3 641 639 640
3 640 102 641
3 639 161 640
3 641 136 639
3 627 372 640
3 640 161 627
3 372 102 640
3 627 31 372
3 489 632 639
3 639 136 489
3 632 161 639
3 489 40 632
3 373 492 641
3 641 102 373
3 492 136 641
3 373 2 492
