# vtk DataFile Version 3.0
this file was written using fslvtkio
ASCII
DATASET POLYDATA
POINTS 642 float
152.915 114.047 116.576
152.68 116.562 116.438
153.172 115.479 117.809
152.844 114.004 118.631
154.346 113.813 117.08
151.628 114.871 117.733
152.242 115.956 117.572
154.128 114.29 116.586
153.972 114.604 114.867
154.043 114.983 118.81
152.078 115.288 119.416
152.348 115.705 116.54
154.252 114.936 115.991
154.372 113.557 116.026
154.672 113.94 116.986
154.208 114.486 117.798
155.03 113.715 117.474
151.649 116.298 117.276
151.81 115.676 117.62
152.341 115.615 117.294
152.544 114.917 117.901
152.081 115.184 118.332
153.605 114.17 117.551
153.797 113.399 116.54
152.962 114.242 117.542
152.529 114.357 117.697
152.345 114.521 117.29
153.492 115.658 116.858
153.555 114.871 117.465
153.046 116.484 117.254
151.887 117.476 117.494
152.936 114.781 117.155
152.611 114.656 116.679
153.592 114.265 115.799
152.742 115.398 114.983
152.22 116.82 116.54
153.611 115.962 115.296
151.887 114.894 119.686
152.764 115.363 120.342
153.76 114.341 118.695
152.87 114.724 118.61
153.51 115.149 118.671
154.504 114.111 116.069
154.558 113.789 116.536
154.167 114.246 116.477
154.66 113.766 116.938
154.718 112.896 116.424
153.93 114.716 115.912
154.31 114.667 115.34
154.036 114.504 116.622
154.321 114.041 116.666
154.381 113.765 117.342
154.911 113.698 117.418
154.887 114.234 118.019
154.668 113.606 117.237
154.306 114.214 116.993
154.488 114.967 118.558
154.615 114.306 118.354
152.004 115.805 117.424
152.091 115.527 117.496
151.955 116.136 117.095
151.915 114.902 117.491
151.776 115.236 117.598
151.909 116.014 117.577
151.979 116.227 117.376
151.922 116.333 116.87
152.142 115.604 116.811
152.434 115.041 118.166
152.155 115.251 117.881
152.203 115.256 117.713
152.133 115.034 117.625
152.253 114.873 118.828
152.663 114.619 118.381
152.46 115.419 117.243
153.715 114.119 117.124
153.256 114.485 117.292
153.278 114.155 117.571
152.963 114.363 116.995
153.294 113.995 116.583
154.247 113.582 116.608
154.143 114.114 117.287
153.151 114.177 118.299
152.87 114.348 118.132
152.568 114.138 117.798
152.634 114.577 117.419
152.177 114.455 117.541
152.699 114.271 116.869
152.49 114.388 118.599
152.027 114.792 117.667
151.808 114.678 117.673
153.706 115.469 117.108
153.462 115.8 117.239
153.253 116.273 117.066
153.196 115.959 117.492
153.344 115.242 117.707
153.91 114.726 117.003
153.989 114.842 116.494
152.949 115.843 116.223
152.906 116.477 116.741
152.437 117.352 117.243
152.85 116.5 117.33
152.424 116.643 117.559
153.068 115.1 117.504
152.321 117.251 116.763
152.117 116.391 117.436
152.663 115.196 117.025
153.145 114.463 116.065
153.161 114.79 115.711
152.898 114.717 116.078
153.488 115.094 114.644
153.759 114.36 115.083
153.116 114.369 116.288
152.757 114.29 116.539
152.516 115.303 116.388
152.632 115.452 115.876
152.562 116.405 115.094
153.029 116.3 114.667
152.849 116.632 115.438
153.73 115.254 114.781
152.177 116.263 115.921
152.53 116.892 116.378
153.094 116.288 115.817
152.103 115.088 120.861
153.363 114.684 119.932
152.685 114.787 119.766
153.629 114.731 118.869
153.57 115.282 119.739
152.048 115.342 120.173
152.157 114.918 119.507
152.429 114.129 119.213
153.044 114.142 119.02
153.124 115.251 118.952
153.27 115.671 119.634
152.669 115.738 119.723
153.812 115.39 119.045
153.263 115.469 118.4
152.986 115.305 118.157
152.371 115.186 119.274
154.1 113.384 116.085
154.013 113.929 115.717
153.789 113.445 116.107
152.215 114.759 117.129
152.181 114.967 117.073
152.183 114.997 117.119
154.39 113.832 117.686
154.236 114 117.775
153.63 114.226 118.025
152.022 114.689 118.52
152.321 114.724 117.974
152.193 114.644 118.425
153.946 115.458 115.382
153.765 115.2 116.357
153.833 115.568 115.871
151.766 117.451 117.187
151.611 116.886 117.243
151.864 116.611 116.857
153.721 115.094 118.038
154.056 114.536 117.433
153.914 114.852 118.346
152.675 114.491 118.102
152.687 114.837 117.686
152.892 114.701 117.892
154.574 113.762 116.118
154.385 114.043 116.581
154.439 114.247 116.172
154.502 114.11 116.668
154.5 113.898 116.866
154.489 113.63 116.267
154.409 113.784 116.052
154.498 114.565 115.851
154.174 114.54 116.281
154.688 113.743 116.741
154.784 113.251 116.413
154.629 113.451 116.83
154.586 112.959 116.192
154.689 113.832 117.081
154.555 113.563 117.099
154.585 113.306 116.848
154.226 114.416 115.977
154.501 114.459 115.579
154.036 114.629 115.704
154.35 114.833 115.61
154.207 114.168 115.909
153.897 114.645 115.376
154.128 114.667 114.995
154.126 114.494 116.546
154.233 114.236 116.704
154.096 114.368 116.735
154.5 113.994 116.814
154.2 114.689 116.366
154.033 114.338 116.674
154.142 114.137 116.729
154.77 113.721 117.33
155.094 113.609 117.672
154.772 113.822 117.634
155.084 113.904 117.902
155.148 113.391 117.575
154.937 113.744 117.088
154.558 114.026 117.133
154.445 113.769 117.57
154.577 114.397 117.875
154.879 113.498 117.257
154.775 113.75 117.101
154.67 113.873 117.167
154.973 113.123 117.294
154.473 114.001 117.146
154.387 113.885 116.881
154.415 113.816 117.092
154.29 113.831 116.781
154.239 114.092 117.274
154.144 114.249 116.871
154.682 114.868 118.28
154.829 114.422 118.217
154.445 114.56 118.516
154.819 114.156 117.925
154.355 114.677 118.061
154.148 114.894 118.796
154.231 114.558 118.758
152.007 115.719 117.394
152.017 115.767 117.268
151.88 115.899 117.225
152.074 115.95 117.199
152.273 115.567 117.285
152.083 115.516 117.586
152.017 115.798 117.48
151.699 116.066 117.315
151.699 116.204 117.216
151.969 115.173 117.452
152.034 115.231 117.478
151.852 115.045 117.523
151.823 115.489 117.629
152.346 115.156 117.297
151.939 114.771 117.594
151.718 115.064 117.587
152.006 116.02 117.534
151.983 116.083 117.451
152.111 116.176 117.568
151.549 116.356 117.339
151.866 115.795 117.647
152.027 116.155 117.698
152.253 116.079 117.493
151.772 116.175 117.058
152.123 115.975 116.96
151.879 116.064 116.911
152.105 115.665 117.077
151.895 116.401 117.007
152.145 116.044 116.673
152.36 115.665 116.673
152.347 115.063 118.079
152.054 115.24 117.903
152.418 115.073 117.992
151.953 115.537 117.738
151.921 115.411 117.77
152.287 115.005 118.067
152.348 115.053 118.266
152.532 115.097 118.054
152.516 115.088 117.68
151.837 115.308 117.812
152.15 115.081 117.723
151.888 115.13 117.645
152.272 114.937 117.971
151.663 115.022 117.672
152.357 114.943 118.426
152.522 114.834 118.202
152.535 114.78 118.513
152.602 114.689 118.034
152.144 114.931 118.606
152.121 114.99 119.205
152.383 114.725 118.884
152.321 115.332 117.488
152.016 115.694 117.769
152.162 115.678 117.536
152.577 115.016 117.434
152.159 115.902 117.514
153.498 114.377 117.222
153.321 114.362 117.388
153.427 114.415 117.382
153.116 114.213 117.641
153.098 114.371 117.421
153.425 114.211 116.994
153.755 114.064 116.813
153.685 114.159 117.448
153.359 114.237 117.671
153.085 114.839 117.265
153.243 114.305 116.915
153.189 113.908 116.74
153.528 113.531 116.529
152.89 114.688 117.382
153.038 113.885 116.609
153.061 114.208 116.644
154.017 113.852 116.906
153.857 114.158 117.272
154.162 113.771 117.021
153.854 114.319 117.471
154.005 113.77 116.58
154.436 113.404 116.682
154.31 113.92 117.077
153.216 114.132 117.943
153.142 114.134 117.885
153.032 114.324 118.179
152.813 114.388 117.97
153.338 114.248 117.991
153.038 114.071 118.501
152.816 114.427 118.479
152.455 114.251 117.565
152.307 114.19 117.493
152.408 114.342 117.736
152.235 114.37 117.357
152.542 114.494 117.254
152.758 114.391 117.492
152.699 114.205 117.714
152.576 114.352 117.85
152.386 114.436 117.69
152.595 114.477 117.041
152.706 114.769 117.279
152.825 114.157 116.78
152.527 114.43 117.112
152.82 114.11 116.639
152.665 114.272 118.112
152.622 114.298 118.22
152.685 114.359 118.331
152.495 114.476 118.291
152.683 114.271 118.688
152.074 114.557 117.692
152.004 114.314 117.585
151.731 114.333 117.781
152.13 114.643 117.435
152.372 114.727 117.544
151.712 114.711 117.769
151.769 114.663 117.748
153.569 115.76 117.229
153.425 116.208 117.174
153.542 116.008 117.133
153.145 116.678 117.194
153.288 116.248 117.321
153.48 115.15 117.457
153.616 115.132 117.245
153.604 115.697 116.943
153.348 115.928 116.91
153.356 115.928 117.388
153.347 115.56 117.49
153.229 115.551 117.553
153.406 114.985 117.654
153.11 116.164 117.338
153.176 115.511 117.674
153.234 115.507 117.837
153.835 115.178 117.007
153.871 115.124 116.682
153.997 115.077 116.796
153.773 115.393 116.654
153.664 114.672 117.243
154.016 114.407 116.744
153.977 114.615 116.61
153.07 115.862 116.603
153.037 116.329 116.849
152.896 116.006 116.471
153.005 116.802 117.105
153.268 115.813 116.58
152.851 116.294 116.291
152.808 116.382 116.469
152.641 116.814 117.286
152.577 116.767 117.48
152.392 116.911 117.253
152.569 115.942 117.443
152.83 115.918 117.319
152.919 116.489 117.247
152.73 116.864 117.174
152.173 117.718 117.218
152.182 116.839 117.251
152.905 115.81 117.503
152.957 116.391 117.49
153.102 115.612 117.513
152.958 115.106 117.395
153.102 115.166 117.649
152.731 116.846 116.988
152.514 117.519 116.999
152.7 116.712 116.677
152.112 117.723 117.132
152.563 116.845 116.534
152.344 116.194 117.337
152.495 116.011 117.355
152.426 116.003 117.303
152.82 114.795 117.033
151.952 116.84 117.522
152.397 115.856 117.382
152.3 115.743 117.45
153.281 114.728 116.085
153.011 114.752 115.863
152.926 114.58 116.256
152.806 115.069 115.596
152.94 115.027 115.405
153.448 114.519 115.791
153.443 114.166 115.926
152.81 114.446 116.436
152.661 114.447 116.341
153.203 115.119 115.193
153.348 114.958 115.296
153.469 115.065 115.164
153.732 114.156 115.322
153.032 115.362 114.87
153.743 114.653 114.675
153.781 114.725 115.057
153.03 114.718 116.308
152.877 114.716 116.586
152.923 114.409 116.439
152.678 114.734 116.837
153.435 114.05 116.047
153.01 114.021 116.483
152.819 113.949 116.439
152.565 114.796 116.084
152.705 114.99 115.897
152.459 115.054 116.054
152.679 115.465 115.477
152.423 114.951 116.645
152.54 115.677 116.259
152.32 115.483 116.189
152.751 116.595 114.7
153.193 116.696 114.866
152.608 116.979 115.217
153.291 116.277 115.292
153.357 116.088 115
152.808 115.981 114.697
152.721 115.948 115.013
152.656 116.365 115.691
152.449 116.776 115.884
153.363 115.625 114.736
153.248 115.599 114.556
153.672 115.077 114.593
153.645 115.766 114.904
153.845 114.837 114.756
152.719 115.8 115.465
152.78 115.694 115.442
152.545 115.758 115.75
152.233 116.539 116.191
152.074 115.915 116.214
152.682 116.438 115.977
153.095 116.557 115.587
152.829 116.274 115.899
153.463 116.012 115.713
152.278 116.872 116.496
152.76 116.659 116.171
152.835 116.262 116.066
152.717 114.865 120.684
153.094 114.42 119.705
152.42 114.545 119.923
153.369 114.417 119.172
153.763 114.441 119.191
152.938 115.093 120.313
152.415 115.285 120.671
151.616 114.901 120.345
151.955 114.786 119.76
153.663 114.647 119.276
153.393 115.059 119.854
153.724 114.974 119.199
153.105 115.518 120.071
153.796 114.506 118.652
154.041 114.667 118.704
153.896 114.898 119.269
151.964 115.461 120.626
151.671 115.403 120.509
152.088 115.066 119.675
151.59 115.28 119.75
152.298 115.736 120.424
151.985 115.253 119.878
152.213 114.99 119.295
152.606 114.553 119.44
153.018 114.383 119.412
152.833 114.012 119.233
153.412 114.248 118.78
152.21 114.384 119.315
152.687 114.098 118.876
152.93 113.992 118.755
153.239 115.506 119.182
152.978 115.759 119.741
152.876 115.43 119.221
152.632 115.994 120.219
153.001 115.862 120.166
153.577 115.462 119.049
153.328 115.325 118.816
152.915 115.075 118.902
152.657 115.409 119.292
153.371 115.544 119.845
153.504 115.232 119.36
153.675 115.281 119.486
153.728 115.154 118.815
153.876 115.256 119.087
153.158 115.263 118.621
153.026 114.988 118.513
153.131 115.484 118.349
152.956 114.609 118.304
153.391 115.346 118.53
153.2 115.45 118.119
153.11 115.306 117.853
152.409 115.39 119.493
152.246 116.033 120.139
152.235 115.308 119.772
152.572 115.366 119.081
152.273 115.191 119.337
154.131 113.522 115.797
153.886 113.806 115.927
153.891 113.572 116.136
153.579 114.157 116.161
153.789 114.037 115.723
154.246 113.585 115.696
154.355 113.238 115.944
153.962 113.551 116.408
153.756 113.53 116.406
153.892 114.223 115.406
153.998 114.439 115.604
153.922 114.576 115.378
154.47 112.943 116.06
154.259 113.444 116.283
154.471 113.296 116.408
153.488 113.978 116.429
153.448 113.778 116.219
153.219 114.208 116.507
152.186 114.839 117.072
152.152 115.183 117.224
152.155 114.696 117.146
152.271 115.294 117.186
152.258 115.372 117.184
152.391 114.865 116.951
152.362 114.744 117.015
152.265 114.578 117.219
152.11 114.679 117.226
152.12 115.271 116.766
152.529 115.314 116.89
152.391 115.439 116.547
152.402 114.284 116.689
152.424 114.576 116.945
152.611 114.142 116.575
151.786 114.757 117.407
152.017 114.792 117.332
151.79 114.612 117.505
154.347 113.771 117.664
153.819 114.289 117.879
153.856 114.26 118.021
153.558 114.321 117.831
153.912 113.983 117.711
154.655 113.803 117.392
154.856 113.879 117.358
153.901 114.129 118.129
153.571 114.26 118.354
154.156 114.067 117.594
154.491 113.721 117.432
154.328 114.06 117.366
154.571 113.73 118.069
153.901 114.259 118.392
154.386 114.22 118.492
153.366 114.183 118.363
153.426 113.976 118.154
153.192 114.031 118.539
152.126 114.71 118.061
152.047 114.68 118.247
152.082 114.893 118.501
151.989 114.912 118.489
152.268 114.837 118.325
152.477 114.57 117.817
152.201 114.339 118.161
151.843 114.855 119.097
151.776 114.936 119.034
152.278 114.994 117.907
152.288 114.836 117.777
152.163 114.861 117.664
152.272 114.276 118.769
152.162 114.263 119.02
152.439 114.006 118.937
152.121 114.588 119.018
152.035 114.76 118.973
152.243 114.63 119.247
153.871 115.417 115.898
153.829 115.451 116.105
153.962 115.596 115.605
153.67 115.413 116.324
153.572 115.394 116.577
154.077 115.197 116.077
153.913 115.148 115.822
153.941 115.669 115.141
153.958 115.754 115.513
153.943 114.851 116.312
154.132 114.746 116.308
153.92 114.528 116.387
154.074 114.936 115.279
154.006 115.227 114.871
154.103 114.878 114.788
153.437 115.887 115.727
153.359 115.866 115.978
153.074 116.023 115.915
151.623 117.245 117.247
151.633 116.878 117.216
151.734 117.075 117.137
151.77 116.438 117.019
151.653 116.512 117.229
151.707 117.188 117.499
151.812 117.54 117.34
151.969 116.958 117.025
152.052 116.703 116.768
151.666 116.618 117.431
151.917 116.631 117.396
152.148 116.268 117.33
152.106 117.452 116.764
152.071 117.347 116.816
152.463 117.071 116.473
151.916 116.584 116.431
152.109 116.377 116.499
151.861 116.484 116.446
153.883 114.762 117.818
153.956 114.6 117.909
153.755 114.956 118.207
154.077 114.735 118.053
154.126 114.401 117.584
153.782 114.587 117.468
153.64 114.877 117.7
153.584 115.127 118.333
153.708 114.797 118.584
154.172 114.4 117.278
153.923 114.697 117.218
154.027 114.479 117.042
153.528 115.171 117.928
153.537 115.377 118.318
153.326 115.369 118.128
154.036 114.855 118.549
154.221 114.877 118.426
154.223 115.228 118.763
152.685 114.867 118.012
152.82 114.663 117.715
152.806 114.704 117.977
152.877 114.821 117.596
152.92 114.441 117.21
152.611 114.85 117.763
152.552 114.706 118.06
152.761 114.306 118.26
152.884 114.434 118.068
152.784 114.702 117.096
152.446 115.378 117.536
152.602 115.18 117.197
152.638 114.548 118.356
152.536 114.633 118.699
152.434 114.733 118.99
152.938 114.958 118
152.953 115.066 117.727
152.976 115.263 117.912
POLYGONS 1280  5120
3 164 162 163
3 163 44 164
3 162 43 163
3 164 42 162
3 166 165 163
3 163 43 166
3 165 44 163
3 166 14 165
3 168 167 162
3 162 42 168
3 167 43 162
3 168 13 167
3 170 169 164
3 164 44 170
3 169 42 164
3 170 12 169
3 173 171 172
3 172 46 173
3 171 43 172
3 173 45 171
3 167 174 172
3 172 43 167
3 174 46 172
3 167 13 174
3 175 166 171
3 171 45 175
3 166 43 171
3 175 14 166
3 177 176 173
3 173 46 177
3 176 45 173
3 177 4 176
3 180 178 179
3 179 48 180
3 178 42 179
3 180 47 178
3 169 181 179
3 179 42 169
3 181 48 179
3 169 12 181
3 182 168 178
3 178 47 182
3 168 42 178
3 182 13 168
3 184 183 180
3 180 48 184
3 183 47 180
3 184 8 183
3 187 185 186
3 186 50 187
3 185 44 186
3 187 49 185
3 165 188 186
3 186 44 165
3 188 50 186
3 165 14 188
3 189 170 185
3 185 49 189
3 170 44 185
3 189 12 170
3 191 190 187
3 187 50 191
3 190 49 187
3 191 7 190
3 194 192 193
3 193 53 194
3 192 52 193
3 194 51 192
3 196 195 193
3 193 52 196
3 195 53 193
3 196 16 195
3 198 197 192
3 192 51 198
3 197 52 192
3 198 14 197
3 200 199 194
3 194 53 200
3 199 51 194
3 200 15 199
3 203 201 202
3 202 45 203
3 201 52 202
3 203 54 201
3 197 175 202
3 202 52 197
3 175 45 202
3 197 14 175
3 204 196 201
3 201 54 204
3 196 52 201
3 204 16 196
3 176 205 203
3 203 45 176
3 205 54 203
3 176 4 205
3 208 206 207
3 207 55 208
3 206 51 207
3 208 50 206
3 199 209 207
3 207 51 199
3 209 55 207
3 199 15 209
3 188 198 206
3 206 50 188
3 198 51 206
3 188 14 198
3 210 191 208
3 208 55 210
3 191 50 208
3 210 7 191
3 213 211 212
3 212 57 213
3 211 53 212
3 213 56 211
3 195 214 212
3 212 53 195
3 214 57 212
3 195 16 214
3 215 200 211
3 211 56 215
3 200 53 211
3 215 15 200
3 217 216 213
3 213 57 217
3 216 56 213
3 217 9 216
3 220 218 219
3 219 60 220
3 218 59 219
3 220 58 218
3 222 221 219
3 219 59 222
3 221 60 219
3 222 19 221
3 224 223 218
3 218 58 224
3 223 59 218
3 224 18 223
3 226 225 220
3 220 60 226
3 225 58 220
3 226 17 225
3 229 227 228
3 228 62 229
3 227 59 228
3 229 61 227
3 223 230 228
3 228 59 223
3 230 62 228
3 223 18 230
3 231 222 227
3 227 61 231
3 222 59 227
3 231 19 222
3 233 232 229
3 229 62 233
3 232 61 229
3 233 5 232
3 236 234 235
3 235 64 236
3 234 58 235
3 236 63 234
3 225 237 235
3 235 58 225
3 237 64 235
3 225 17 237
3 238 224 234
3 234 63 238
3 224 58 234
3 238 18 224
3 240 239 236
3 236 64 240
3 239 63 236
3 240 6 239
3 243 241 242
3 242 66 243
3 241 60 242
3 243 65 241
3 221 244 242
3 242 60 221
3 244 66 242
3 221 19 244
3 245 226 241
3 241 65 245
3 226 60 241
3 245 17 226
3 247 246 243
3 243 66 247
3 246 65 243
3 247 11 246
3 250 248 249
3 249 69 250
3 248 68 249
3 250 67 248
3 252 251 249
3 249 68 252
3 251 69 249
3 252 18 251
3 254 253 248
3 248 67 254
3 253 68 248
3 254 21 253
3 256 255 250
3 250 69 256
3 255 67 250
3 256 20 255
3 259 257 258
3 258 70 259
3 257 68 258
3 259 62 257
3 253 260 258
3 258 68 253
3 260 70 258
3 253 21 260
3 230 252 257
3 257 62 230
3 252 68 257
3 230 18 252
3 261 233 259
3 259 70 261
3 233 62 259
3 261 5 233
3 264 262 263
3 263 72 264
3 262 67 263
3 264 71 262
3 255 265 263
3 263 67 255
3 265 72 263
3 255 20 265
3 266 254 262
3 262 71 266
3 254 67 262
3 266 21 254
3 268 267 264
3 264 72 268
3 267 71 264
3 268 10 267
3 271 269 270
3 270 63 271
3 269 69 270
3 271 73 269
3 251 238 270
3 270 69 251
3 238 63 270
3 251 18 238
3 272 256 269
3 269 73 272
3 256 69 269
3 272 20 256
3 239 273 271
3 271 63 239
3 273 73 271
3 239 6 273
3 276 274 275
3 275 76 276
3 274 75 275
3 276 74 274
3 278 277 275
3 275 75 278
3 277 76 275
3 278 24 277
3 280 279 274
3 274 74 280
3 279 75 274
3 280 23 279
3 282 281 276
3 276 76 282
3 281 74 276
3 282 22 281
3 285 283 284
3 284 78 285
3 283 75 284
3 285 77 283
3 279 286 284
3 284 75 279
3 286 78 284
3 279 23 286
3 287 278 283
3 283 77 287
3 278 75 283
3 287 24 278
3 289 288 285
3 285 78 289
3 288 77 285
3 289 0 288
3 292 290 291
3 291 80 292
3 290 74 291
3 292 79 290
3 281 293 291
3 291 74 281
3 293 80 291
3 281 22 293
3 294 280 290
3 290 79 294
3 280 74 290
3 294 23 280
3 296 295 292
3 292 80 296
3 295 79 292
3 296 4 295
3 299 297 298
3 298 82 299
3 297 76 298
3 299 81 297
3 277 300 298
3 298 76 277
3 300 82 298
3 277 24 300
3 301 282 297
3 297 81 301
3 282 76 297
3 301 22 282
3 303 302 299
3 299 82 303
3 302 81 299
3 303 3 302
3 306 304 305
3 305 85 306
3 304 84 305
3 306 83 304
3 308 307 305
3 305 84 308
3 307 85 305
3 308 26 307
3 310 309 304
3 304 83 310
3 309 84 304
3 310 24 309
3 312 311 306
3 306 85 312
3 311 83 306
3 312 25 311
3 315 313 314
3 314 77 315
3 313 84 314
3 315 86 313
3 309 287 314
3 314 84 309
3 287 77 314
3 309 24 287
3 316 308 313
3 313 86 316
3 308 84 313
3 316 26 308
3 288 317 315
3 315 77 288
3 317 86 315
3 288 0 317
3 320 318 319
3 319 87 320
3 318 83 319
3 320 82 318
3 311 321 319
3 319 83 311
3 321 87 319
3 311 25 321
3 300 310 318
3 318 82 300
3 310 83 318
3 300 24 310
3 322 303 320
3 320 87 322
3 303 82 320
3 322 3 303
3 325 323 324
3 324 89 325
3 323 85 324
3 325 88 323
3 307 326 324
3 324 85 307
3 326 89 324
3 307 26 326
3 327 312 323
3 323 88 327
3 312 85 323
3 327 25 312
3 329 328 325
3 325 89 329
3 328 88 325
3 329 5 328
3 332 330 331
3 331 92 332
3 330 91 331
3 332 90 330
3 334 333 331
3 331 91 334
3 333 92 331
3 334 29 333
3 336 335 330
3 330 90 336
3 335 91 330
3 336 28 335
3 338 337 332
3 332 92 338
3 337 90 332
3 338 27 337
3 341 339 340
3 340 94 341
3 339 91 340
3 341 93 339
3 335 342 340
3 340 91 335
3 342 94 340
3 335 28 342
3 343 334 339
3 339 93 343
3 334 91 339
3 343 29 334
3 345 344 341
3 341 94 345
3 344 93 341
3 345 2 344
3 348 346 347
3 347 96 348
3 346 90 347
3 348 95 346
3 337 349 347
3 347 90 337
3 349 96 347
3 337 27 349
3 350 336 346
3 346 95 350
3 336 90 346
3 350 28 336
3 352 351 348
3 348 96 352
3 351 95 348
3 352 7 351
3 355 353 354
3 354 98 355
3 353 92 354
3 355 97 353
3 333 356 354
3 354 92 333
3 356 98 354
3 333 29 356
3 357 338 353
3 353 97 357
3 338 92 353
3 357 27 338
3 359 358 355
3 355 98 359
3 358 97 355
3 359 1 358
3 362 360 361
3 361 101 362
3 360 100 361
3 362 99 360
3 364 363 361
3 361 100 364
3 363 101 361
3 364 31 363
3 366 365 360
3 360 99 366
3 365 100 360
3 366 29 365
3 368 367 362
3 362 101 368
3 367 99 362
3 368 30 367
3 371 369 370
3 370 93 371
3 369 100 370
3 371 102 369
3 365 343 370
3 370 100 365
3 343 93 370
3 365 29 343
3 372 364 369
3 369 102 372
3 364 100 369
3 372 31 364
3 344 373 371
3 371 93 344
3 373 102 371
3 344 2 373
3 376 374 375
3 375 103 376
3 374 99 375
3 376 98 374
3 367 377 375
3 375 99 367
3 377 103 375
3 367 30 377
3 356 366 374
3 374 98 356
3 366 99 374
3 356 29 366
3 378 359 376
3 376 103 378
3 359 98 376
3 378 1 359
3 381 379 380
3 380 105 381
3 379 101 380
3 381 104 379
3 363 382 380
3 380 101 363
3 382 105 380
3 363 31 382
3 383 368 379
3 379 104 383
3 368 101 379
3 383 30 368
3 385 384 381
3 381 105 385
3 384 104 381
3 385 6 384
3 388 386 387
3 387 108 388
3 386 107 387
3 388 106 386
3 390 389 387
3 387 107 390
3 389 108 387
3 390 34 389
3 392 391 386
3 386 106 392
3 391 107 386
3 392 33 391
3 394 393 388
3 388 108 394
3 393 106 388
3 394 32 393
3 397 395 396
3 396 110 397
3 395 107 396
3 397 109 395
3 391 398 396
3 396 107 391
3 398 110 396
3 391 33 398
3 399 390 395
3 395 109 399
3 390 107 395
3 399 34 390
3 401 400 397
3 397 110 401
3 400 109 397
3 401 8 400
3 404 402 403
3 403 112 404
3 402 106 403
3 404 111 402
3 393 405 403
3 403 106 393
3 405 112 403
3 393 32 405
3 406 392 402
3 402 111 406
3 392 106 402
3 406 33 392
3 408 407 404
3 404 112 408
3 407 111 404
3 408 0 407
3 411 409 410
3 410 114 411
3 409 108 410
3 411 113 409
3 389 412 410
3 410 108 389
3 412 114 410
3 389 34 412
3 413 394 409
3 409 113 413
3 394 108 409
3 413 32 394
3 415 414 411
3 411 114 415
3 414 113 411
3 415 11 414
3 418 416 417
3 417 117 418
3 416 116 417
3 418 115 416
3 420 419 417
3 417 116 420
3 419 117 417
3 420 36 419
3 422 421 416
3 416 115 422
3 421 116 416
3 422 34 421
3 424 423 418
3 418 117 424
3 423 115 418
3 424 35 423
3 427 425 426
3 426 109 427
3 425 116 426
3 427 118 425
3 421 399 426
3 426 116 421
3 399 109 426
3 421 34 399
3 428 420 425
3 425 118 428
3 420 116 425
3 428 36 420
3 400 429 427
3 427 109 400
3 429 118 427
3 400 8 429
3 432 430 431
3 431 119 432
3 430 115 431
3 432 114 430
3 423 433 431
3 431 115 423
3 433 119 431
3 423 35 433
3 412 422 430
3 430 114 412
3 422 115 430
3 412 34 422
3 434 415 432
3 432 119 434
3 415 114 432
3 434 11 415
3 437 435 436
3 436 121 437
3 435 117 436
3 437 120 435
3 419 438 436
3 436 117 419
3 438 121 436
3 419 36 438
3 439 424 435
3 435 120 439
3 424 117 435
3 439 35 424
3 441 440 437
3 437 121 441
3 440 120 437
3 441 1 440
3 444 442 443
3 443 124 444
3 442 123 443
3 444 122 442
3 446 445 443
3 443 123 446
3 445 124 443
3 446 39 445
3 448 447 442
3 442 122 448
3 447 123 442
3 448 38 447
3 450 449 444
3 444 124 450
3 449 122 444
3 450 37 449
3 453 451 452
3 452 126 453
3 451 123 452
3 453 125 451
3 447 454 452
3 452 123 447
3 454 126 452
3 447 38 454
3 455 446 451
3 451 125 455
3 446 123 451
3 455 39 446
3 457 456 453
3 453 126 457
3 456 125 453
3 457 9 456
3 460 458 459
3 459 128 460
3 458 122 459
3 460 127 458
3 449 461 459
3 459 122 449
3 461 128 459
3 449 37 461
3 462 448 458
3 458 127 462
3 448 122 458
3 462 38 448
3 464 463 460
3 460 128 464
3 463 127 460
3 464 10 463
3 467 465 466
3 466 130 467
3 465 124 466
3 467 129 465
3 445 468 466
3 466 124 445
3 468 130 466
3 445 39 468
3 469 450 465
3 465 129 469
3 450 124 465
3 469 37 450
3 471 470 467
3 467 130 471
3 470 129 467
3 471 3 470
3 474 472 473
3 473 133 474
3 472 132 473
3 474 131 472
3 476 475 473
3 473 132 476
3 475 133 473
3 476 38 475
3 478 477 472
3 472 131 478
3 477 132 472
3 478 41 477
3 480 479 474
3 474 133 480
3 479 131 474
3 480 40 479
3 483 481 482
3 482 134 483
3 481 132 482
3 483 126 481
3 477 484 482
3 482 132 477
3 484 134 482
3 477 41 484
3 454 476 481
3 481 126 454
3 476 132 481
3 454 38 476
3 485 457 483
3 483 134 485
3 457 126 483
3 485 9 457
3 488 486 487
3 487 136 488
3 486 131 487
3 488 135 486
3 479 489 487
3 487 131 479
3 489 136 487
3 479 40 489
3 490 478 486
3 486 135 490
3 478 131 486
3 490 41 478
3 492 491 488
3 488 136 492
3 491 135 488
3 492 2 491
3 495 493 494
3 494 127 495
3 493 133 494
3 495 137 493
3 475 462 494
3 494 133 475
3 462 127 494
3 475 38 462
3 496 480 493
3 493 137 496
3 480 133 493
3 496 40 480
3 463 497 495
3 495 127 463
3 497 137 495
3 463 10 497
3 500 498 499
3 499 140 500
3 498 139 499
3 500 138 498
3 502 501 499
3 499 139 502
3 501 140 499
3 502 33 501
3 504 503 498
3 498 138 504
3 503 139 498
3 504 13 503
3 506 505 500
3 500 140 506
3 505 138 500
3 506 23 505
3 509 507 508
3 508 47 509
3 507 139 508
3 509 110 507
3 503 182 508
3 508 139 503
3 182 47 508
3 503 13 182
3 398 502 507
3 507 110 398
3 502 139 507
3 398 33 502
3 183 401 509
3 509 47 183
3 401 110 509
3 183 8 401
3 512 510 511
3 511 79 512
3 510 138 511
3 512 46 510
3 505 294 511
3 511 138 505
3 294 79 511
3 505 23 294
3 174 504 510
3 510 46 174
3 504 138 510
3 174 13 504
3 295 177 512
3 512 79 295
3 177 46 512
3 295 4 177
3 515 513 514
3 514 111 515
3 513 140 514
3 515 78 513
3 501 406 514
3 514 140 501
3 406 111 514
3 501 33 406
3 286 506 513
3 513 78 286
3 506 140 513
3 286 23 506
3 407 289 515
3 515 111 407
3 289 78 515
3 407 0 289
3 518 516 517
3 517 143 518
3 516 142 517
3 518 141 516
3 520 519 517
3 517 142 520
3 519 143 517
3 520 19 519
3 522 521 516
3 516 141 522
3 521 142 516
3 522 32 521
3 524 523 518
3 518 143 524
3 523 141 518
3 524 26 523
3 527 525 526
3 526 113 527
3 525 142 526
3 527 66 525
3 521 413 526
3 526 142 521
3 413 113 526
3 521 32 413
3 244 520 525
3 525 66 244
3 520 142 525
3 244 19 520
3 414 247 527
3 527 113 414
3 247 66 527
3 414 11 247
3 530 528 529
3 529 86 530
3 528 141 529
3 530 112 528
3 523 316 529
3 529 141 523
3 316 86 529
3 523 26 316
3 405 522 528
3 528 112 405
3 522 141 528
3 405 32 522
3 317 408 530
3 530 86 317
3 408 112 530
3 317 0 408
3 533 531 532
3 532 61 533
3 531 143 532
3 533 89 531
3 519 231 532
3 532 143 519
3 231 61 532
3 519 19 231
3 326 524 531
3 531 89 326
3 524 143 531
3 326 26 524
3 232 329 533
3 533 61 232
3 329 89 533
3 232 5 329
3 536 534 535
3 535 146 536
3 534 145 535
3 536 144 534
3 538 537 535
3 535 145 538
3 537 146 535
3 538 22 537
3 540 539 534
3 534 144 540
3 539 145 534
3 540 16 539
3 542 541 536
3 536 146 542
3 541 144 536
3 542 39 541
3 545 543 544
3 544 54 545
3 543 145 544
3 545 80 543
3 539 204 544
3 544 145 539
3 204 54 544
3 539 16 204
3 293 538 543
3 543 80 293
3 538 145 543
3 293 22 538
3 205 296 545
3 545 54 205
3 296 80 545
3 205 4 296
3 548 546 547
3 547 125 548
3 546 144 547
3 548 57 546
3 541 455 547
3 547 144 541
3 455 125 547
3 541 39 455
3 214 540 546
3 546 57 214
3 540 144 546
3 214 16 540
3 456 217 548
3 548 125 456
3 217 57 548
3 456 9 217
3 551 549 550
3 550 81 551
3 549 146 550
3 551 130 549
3 537 301 550
3 550 146 537
3 301 81 550
3 537 22 301
3 468 542 549
3 549 130 468
3 542 146 549
3 468 39 542
3 302 471 551
3 551 81 302
3 471 130 551
3 302 3 471
3 554 552 553
3 553 149 554
3 552 148 553
3 554 147 552
3 556 555 553
3 553 148 556
3 555 149 553
3 556 21 555
3 558 557 552
3 552 147 558
3 557 148 552
3 558 25 557
3 560 559 554
3 554 149 560
3 559 147 554
3 560 37 559
3 563 561 562
3 562 88 563
3 561 148 562
3 563 70 561
3 557 327 562
3 562 148 557
3 327 88 562
3 557 25 327
3 260 556 561
3 561 70 260
3 556 148 561
3 260 21 556
3 328 261 563
3 563 88 328
3 261 70 563
3 328 5 261
3 566 564 565
3 565 129 566
3 564 147 565
3 566 87 564
3 559 469 565
3 565 147 559
3 469 129 565
3 559 37 469
3 321 558 564
3 564 87 321
3 558 147 564
3 321 25 558
3 470 322 566
3 566 129 470
3 322 87 566
3 470 3 322
3 569 567 568
3 568 71 569
3 567 149 568
3 569 128 567
3 555 266 568
3 568 149 555
3 266 71 568
3 555 21 266
3 461 560 567
3 567 128 461
3 560 149 567
3 461 37 560
3 267 464 569
3 569 71 267
3 464 128 569
3 267 10 464
3 572 570 571
3 571 152 572
3 570 151 571
3 572 150 570
3 574 573 571
3 571 151 574
3 573 152 571
3 574 27 573
3 576 575 570
3 570 150 576
3 575 151 570
3 576 12 575
3 578 577 572
3 572 152 578
3 577 150 572
3 578 36 577
3 581 579 580
3 580 49 581
3 579 151 580
3 581 96 579
3 575 189 580
3 580 151 575
3 189 49 580
3 575 12 189
3 349 574 579
3 579 96 349
3 574 151 579
3 349 27 574
3 190 352 581
3 581 49 190
3 352 96 581
3 190 7 352
3 584 582 583
3 583 118 584
3 582 150 583
3 584 48 582
3 577 428 583
3 583 150 577
3 428 118 583
3 577 36 428
3 181 576 582
3 582 48 181
3 576 150 582
3 181 12 576
3 429 184 584
3 584 118 429
3 184 48 584
3 429 8 184
3 587 585 586
3 586 97 587
3 585 152 586
3 587 121 585
3 573 357 586
3 586 152 573
3 357 97 586
3 573 27 357
3 438 578 585
3 585 121 438
3 578 152 585
3 438 36 578
3 358 441 587
3 587 97 358
3 441 121 587
3 358 1 441
3 590 588 589
3 589 155 590
3 588 154 589
3 590 153 588
3 592 591 589
3 589 154 592
3 591 155 589
3 592 17 591
3 594 593 588
3 588 153 594
3 593 154 588
3 594 30 593
3 596 595 590
3 590 155 596
3 595 153 590
3 596 35 595
3 599 597 598
3 598 104 599
3 597 154 598
3 599 64 597
3 593 383 598
3 598 154 593
3 383 104 598
3 593 30 383
3 237 592 597
3 597 64 237
3 592 154 597
3 237 17 592
3 384 240 599
3 599 104 384
3 240 64 599
3 384 6 240
3 602 600 601
3 601 120 602
3 600 153 601
3 602 103 600
3 595 439 601
3 601 153 595
3 439 120 601
3 595 35 439
3 377 594 600
3 600 103 377
3 594 153 600
3 377 30 594
3 440 378 602
3 602 120 440
3 378 103 602
3 440 1 378
3 605 603 604
3 604 65 605
3 603 155 604
3 605 119 603
3 591 245 604
3 604 155 591
3 245 65 604
3 591 17 245
3 433 596 603
3 603 119 433
3 596 155 603
3 433 35 596
3 246 434 605
3 605 65 246
3 434 119 605
3 246 11 434
3 608 606 607
3 607 158 608
3 606 157 607
3 608 156 606
3 610 609 607
3 607 157 610
3 609 158 607
3 610 15 609
3 612 611 606
3 606 156 612
3 611 157 606
3 612 28 611
3 614 613 608
3 608 158 614
3 613 156 608
3 614 41 613
3 617 615 616
3 616 95 617
3 615 157 616
3 617 55 615
3 611 350 616
3 616 157 611
3 350 95 616
3 611 28 350
3 209 610 615
3 615 55 209
3 610 157 615
3 209 15 610
3 351 210 617
3 617 95 351
3 210 55 617
3 351 7 210
3 620 618 619
3 619 135 620
3 618 156 619
3 620 94 618
3 613 490 619
3 619 156 613
3 490 135 619
3 613 41 490
3 342 612 618
3 618 94 342
3 612 156 618
3 342 28 612
3 491 345 620
3 620 135 491
3 345 94 620
3 491 2 345
3 623 621 622
3 622 56 623
3 621 158 622
3 623 134 621
3 609 215 622
3 622 158 609
3 215 56 622
3 609 15 215
3 484 614 621
3 621 134 484
3 614 158 621
3 484 41 614
3 216 485 623
3 623 56 216
3 485 134 623
3 216 9 485
3 626 624 625
3 625 161 626
3 624 160 625
3 626 159 624
3 628 627 625
3 625 160 628
3 627 161 625
3 628 31 627
3 630 629 624
3 624 159 630
3 629 160 624
3 630 20 629
3 632 631 626
3 626 161 632
3 631 159 626
3 632 40 631
3 635 633 634
3 634 73 635
3 633 160 634
3 635 105 633
3 629 272 634
3 634 160 629
3 272 73 634
3 629 20 272
3 382 628 633
3 633 105 382
3 628 160 633
3 382 31 628
3 273 385 635
3 635 73 273
3 385 105 635
3 273 6 385
3 638 636 637
3 637 137 638
3 636 159 637
3 638 72 636
3 631 496 637
3 637 159 631
3 496 137 637
3 631 40 496
3 265 630 636
3 636 72 265
3 630 159 636
3 265 20 630
3 497 268 638
3 638 137 497
3 268 72 638
3 497 10 268
3 641 639 640
3 640 102 641
3 639 161 640
3 641 136 639
3 627 372 640
3 640 161 627
3 372 102 640
3 627 31 372
3 489 632 639
3 639 136 489
3 632 161 639
3 489 40 632
3 373 492 641
3 641 102 373
3 492 136 641
3 373 2 492
