# vtk DataFile Version 3.0
this file was written using fslvtkio
ASCII
DATASET POLYDATA
POINTS 1068 float
84.4492 152.515 68.1002
83.6004 152.6 69.1644
84.135 151.821 69.1848
85.0436 151.754 68.8251
85.4592 152.4 67.3729
86.0118 151.771 68.4829
86.7204 152.49 67.3489
86.843 151.924 68.7271
87.6355 152.621 68.0167
87.7805 152.119 69.2016
83.966 153.543 68.4035
83.2562 153.319 69.6835
84.7762 153.632 67.3663
86.0043 153.599 66.8888
87.3989 153.429 67.3297
88.2898 153.012 68.3803
83.3653 154.186 69.0314
82.8437 154.033 70.1468
84.2437 154.473 68.1171
85.3078 154.621 67.4372
86.6235 154.342 67.502
87.8251 154.033 68.0676
83.5673 154.887 69.1781
84.7222 155.113 68.475
86.0096 154.994 68.3038
87.2038 154.823 68.3358
87.7141 148.116 70.3692
87.2479 147.449 71.1369
87.7075 146.469 70.6284
88.644 146.652 70.3738
88.7865 147.858 70.5232
89.5246 146.924 70.6475
86.8882 148.984 70.5746
86.1323 149.486 70.7865
86.6367 148.247 71.3557
87.5712 149.454 70.6725
88.3626 149.12 70.8859
89.3779 148.157 71.0886
86.153 150.467 70.013
85.4764 150.223 70.5813
86.9808 150.36 70.3418
87.9004 150.583 70.4057
88.7789 149.666 71.189
84.5967 151.277 69.891
83.8466 151.826 70.1695
84.5326 151.356 71.0202
84.8964 150.757 70.8637
85.3664 151.235 69.6604
86.2095 151.45 69.4582
87.1423 151.246 69.702
87.9375 151.462 70.1483
88.6091 150.741 70.8662
83.3077 152.42 70.5689
88.3162 152.6 69.754
82.6314 153.049 71.0025
88.7016 153.548 69.1395
82.1416 153.744 71.4073
87.8824 154.354 69.0807
82.9937 154.935 70.2299
82.3274 154.603 71.2687
83.9582 155.351 69.7386
85.0309 155.247 69.4977
85.8763 155 69.4603
86.834 154.783 69.442
83.3207 155.241 70.9383
84.3787 155.393 70.5346
85.2039 155.155 70.2627
90.8042 143.498 71.2461
89.5453 143.085 71.5935
90.5306 142.73 72.6625
91.5321 142.66 72.3928
91.8862 143.836 71.9556
92.2526 143.087 72.5876
92.4725 144.09 72.4464
92.7589 143.429 73.1313
89.3371 144.182 70.3918
88.1875 144.611 71.0671
88.6854 143.905 71.8053
90.5396 144.88 70.5943
91.5538 144.949 71.2498
92.4442 145.075 71.9165
92.8127 144.503 72.8989
88.3139 145.327 70.4068
87.535 145.788 71.3791
89.583 145.615 70.4018
90.7074 146.004 71.0229
91.8001 146.216 71.5925
92.611 145.822 72.5992
87.1019 146.903 71.9313
90.2115 147.147 71.1583
91.0747 147.39 71.8469
92.1414 147.057 72.4312
85.9862 149.06 71.6988
86.6597 147.89 72.3132
89.7128 148.749 71.5101
90.5154 148.63 71.9347
91.6494 148.266 72.6566
85.5858 150.014 71.537
85.2348 150.517 72.0581
85.6558 149.576 72.492
89.3721 150.269 71.4929
90.4274 149.816 71.9176
91.2054 149.183 72.4168
84.0855 151.808 71.5664
84.7182 151.195 72.2637
88.4721 151.785 70.8539
88.8151 151.456 71.5595
89.8531 150.659 72.0783
83.2048 152.216 72.0237
88.8108 152.83 70.4709
88.5376 152.248 71.494
88.923 151.569 72.1291
82.4803 152.801 72.4198
88.7249 153.835 70.0443
88.9151 153.128 71.0553
82.0838 154.057 72.2943
87.7126 154.256 69.93
88.1854 153.8 70.7454
82.0912 155.213 72.3905
86.5697 154.475 70.7506
85.8745 154.891 70.3028
87.3237 154.22 70.691
82.9168 155.461 71.8459
83.9624 155.556 71.5694
84.9476 155.363 71.2169
89.3291 143.193 73.017
90.3876 142.542 73.9083
91.3844 142.303 73.6932
92.2623 142.523 73.4424
92.6777 143.362 73.9202
88.2738 145.107 72.0897
88.831 144.274 72.7712
92.9027 144.638 73.6766
87.7933 146.035 72.3703
93.0995 145.512 73.4941
93.0176 146.474 73.1603
93.1337 146.028 74.2927
87.2747 146.809 72.964
92.5875 147.559 73.1361
93.1461 146.977 74.028
86.2151 148.677 72.782
86.7394 147.912 73.3114
92.5978 148.115 73.4137
92.9416 147.87 74.2635
85.2141 150.201 73.2189
85.6516 149.309 73.6658
91.2538 150.115 72.556
91.88 149.306 72.9865
92.4643 148.757 73.5905
83.8162 151.382 72.8922
84.7408 150.804 73.5971
90.9304 150.733 72.6766
91.5204 150.522 73.3557
82.9249 151.844 73.3562
88.7953 152.218 72.2324
89.3369 151.416 72.7214
90.3344 150.991 73.0697
82.3276 153.079 73.3051
88.6065 153.035 71.8107
88.8414 152.417 72.886
81.989 154.202 73.3204
88.1629 153.073 72.3106
87.8667 153.685 71.4549
82.0898 155.164 73.4624
85.7632 154.997 71.0665
86.2775 154.728 71.5252
87.0129 154.243 71.8859
82.6539 155.804 73.0203
83.55 155.808 72.4895
84.5524 155.61 72.2089
85.4412 155.26 71.9389
89.8553 143.057 74.1525
90.3539 142.46 74.9499
91.1899 141.907 74.825
92.3132 142.209 74.6209
92.4341 143.337 75.0548
88.6589 145.213 73.298
89.2634 144.357 73.7378
89.5814 143.621 74.6049
92.6999 144.396 74.849
92.9505 145.202 74.3449
92.6941 145.288 75.2381
88.1305 146.057 73.3244
88.3863 145.645 74.3433
92.8045 146.179 75.2864
87.2328 146.937 73.9489
92.9081 147.094 75.2695
86.1185 148.421 74.1799
86.7144 147.727 74.1024
92.7452 147.98 75.2663
85.034 149.599 74.5188
85.6284 148.95 74.5309
92.0519 149.6 73.8223
92.5352 148.826 74.6947
83.8824 150.973 74.3043
84.5926 150.275 74.5291
91.8637 150.319 74.1361
91.9996 149.697 74.827
83.0305 151.617 74.2922
82.5526 151.835 75.1417
83.3132 151.111 75.0631
89.6355 151.659 73.2613
90.6901 150.971 73.8615
91.5314 150.787 74.5718
82.525 152.529 74.1475
82.1945 152.663 75.1936
89.3376 152.171 73.5255
89.8251 151.769 73.9835
81.9754 153.527 74.2002
81.83 153.567 75.1856
87.5862 153.457 72.275
88.2 152.96 73.0858
88.8943 152.523 73.9112
81.7565 154.565 74.298
81.6317 154.691 75.2538
86.7624 154.152 73.0429
86.227 154.859 72.4005
87.2063 153.52 72.8714
82.0457 155.749 74.1463
82.7326 156.251 73.9553
83.5567 156 73.5157
84.4806 155.805 73.1541
85.3365 155.452 72.8616
91.4774 141.818 75.894
90.2923 142.033 76.0404
90.8329 141.656 77.0676
91.7572 142.004 76.7716
92.1674 142.422 75.7402
92.0579 142.828 76.587
89.8333 142.938 75.535
92.0941 143.662 76.552
88.8494 144.726 74.872
89.264 143.668 75.6157
92.5639 144.321 75.9453
92.5701 145.285 76.2698
87.5067 146.347 74.5927
87.7704 145.561 75.6611
92.7044 146.264 76.4205
86.4562 147.695 74.8131
86.2817 147.481 75.7057
86.9424 146.941 75.2125
92.6281 147.293 76.3472
85.5701 148.793 75.3717
85.0928 148.573 76.2944
85.7537 147.853 76.2392
92.5279 148.353 76.0128
84.6017 149.772 75.3603
83.9523 149.836 76.3436
84.4224 149.024 76.7192
92.077 149.155 75.7761
83.8009 150.436 75.434
82.7897 150.942 75.9748
83.251 150.282 76.6326
91.6343 150.002 75.5288
82.2682 151.686 76.1913
91.0546 150.837 75.4614
90.3194 151.174 74.6165
81.8034 152.61 76.2765
89.5684 151.92 74.6933
81.6349 153.563 76.2738
88.771 152.709 74.662
88.0738 153.179 73.7106
81.6069 154.613 76.3158
86.54 153.978 73.9396
85.9381 154.753 73.2485
87.2799 153.56 73.8115
81.7767 155.603 75.3303
82.4596 156.192 74.9095
83.4169 156.089 74.5637
84.3404 155.851 74.1779
85.1596 155.362 73.8417
90.0296 142.063 76.9762
89.2775 142.693 77.4201
89.7962 141.527 77.9194
90.9471 141.214 78.0585
91.7492 142.059 77.6996
91.7879 142.807 78.078
89.492 142.944 76.4673
88.9111 144.053 76.3771
91.9024 143.673 78.0749
88.3091 144.831 76.0821
92.3657 144.442 77.134
92.4414 145.373 77.393
87.0215 146.496 75.8859
86.6313 146.451 77.1998
87.2374 145.855 76.7965
87.676 145.073 76.9009
92.3396 146.442 77.426
86.1749 147.015 76.6381
85.5589 147.513 77.3474
86.081 146.817 77.9273
92.3361 147.598 77.2118
84.9544 148.018 77.7379
92.1578 148.624 76.9657
83.909 149.649 77.396
84.2908 148.655 77.8666
91.6803 149.511 76.7102
82.7788 150.925 77.0987
83.1452 150.125 77.7636
90.9734 150.207 76.3186
82.233 151.575 77.291
90.4422 151.039 76.1927
90.1141 151.443 75.4342
81.6301 152.418 77.3413
89.2454 151.998 75.4037
81.5996 153.48 77.3568
88.6285 152.867 75.4437
87.9309 153.259 74.5445
81.677 154.421 77.2316
85.8008 154.556 73.9803
86.3853 154.124 74.6172
87.0793 153.713 74.7053
81.9432 155.402 76.3003
82.3423 156.197 75.8996
83.3554 156.164 75.5099
84.2207 155.714 75.229
84.9856 155.298 74.946
85.5607 154.65 74.6815
90.3297 140.855 78.9655
89.2242 141.765 78.7515
89.6536 140.641 79.6925
90.8237 140.241 80.0974
91.3874 140.972 79.028
91.1852 141.185 79.977
91.5262 141.974 78.8806
91.2738 142.168 79.7516
88.8234 143.227 77.9261
91.567 142.947 79.5624
88.4998 144.173 77.4243
91.6611 143.757 79.4006
88.1704 144.722 77.2024
87.6328 144.714 78.133
88.025 144.298 77.9082
92.1855 144.501 78.3228
92.2078 145.573 78.4665
86.463 145.77 78.2503
87.1063 145.242 77.9094
92.1315 146.696 78.3345
85.2744 147.025 78.8105
85.8115 146.223 78.9662
92.0136 147.861 78.0813
84.7287 147.849 78.9996
91.5628 148.89 77.7731
83.5643 149.074 78.432
84.1093 148.454 78.6855
90.9652 149.851 77.4592
82.5724 150.617 78.2427
82.8968 149.734 78.6022
90.7782 150.619 76.9609
81.9645 151.349 78.3846
90.1342 151.059 76.9773
89.5935 151.516 76.3198
81.542 152.367 78.3754
89.0178 152.104 76.2508
81.4055 153.458 78.3294
88.2792 152.704 76.2138
87.7803 153.308 75.3682
81.7412 154.26 78.1228
87.0274 153.662 75.773
86.3202 154.028 75.3253
82.06 155.283 77.146
82.5535 155.928 76.8218
83.4088 156.1 76.4602
84.2712 155.74 76.1651
84.9559 155.064 75.9796
85.614 154.599 75.5796
89.7554 139.835 80.6041
88.9328 141.022 80.1811
89.0174 139.698 81.4716
89.9734 139.412 81.6368
90.7741 140.026 81.1428
90.5325 140.128 82.1501
88.8282 142.254 79.318
90.9192 141.272 80.9699
90.93 142.244 80.9819
88.4674 143.108 79.0007
87.7565 143.02 79.9547
88.3351 142.505 79.7639
91.2932 143.128 81.0119
88.0542 143.904 78.5973
87.2002 143.89 79.4862
91.4688 144.017 80.4909
86.753 144.728 78.9391
86.2564 144.417 80.0734
86.7352 144.09 79.8205
91.9637 144.675 79.3961
91.865 145.865 79.4172
86.0263 145.348 79.4083
85.0566 146.044 80.0242
85.4202 144.971 80.3254
91.572 147.037 79.0565
84.2382 146.889 79.908
91.4485 148.144 78.8158
83.7394 148.033 79.3216
83.1222 148.165 80.1165
83.4851 147.412 80.242
90.9797 149.156 78.5166
83.0496 148.913 79.3139
82.4438 149.76 79.3818
82.5999 148.761 80.2803
90.7144 149.931 78.1652
90.3862 149.832 78.8794
90.2181 150.609 78.24
82.1893 150.609 79.4023
90.4846 150.629 77.5874
89.7149 151.258 77.5466
81.8439 151.537 79.3719
89.0554 151.646 77.2291
81.6396 152.532 79.3314
88.5088 152.201 77.0357
81.6657 153.5 79.2112
88.1179 152.731 76.8139
87.6074 153.08 76.3085
81.943 154.434 78.6356
82.105 155.092 77.9653
82.4981 155.024 78.5524
86.9101 153.435 76.3759
86.2347 153.997 76.1382
82.6805 155.637 77.6686
83.532 155.709 77.3843
84.2046 155.384 77.0164
84.9089 154.882 76.8988
85.5035 154.443 76.4228
88.5022 140.68 81.1187
87.9344 140.901 81.6394
88.3057 140.112 82.0933
88.9007 139.215 82.4402
89.8669 139.193 82.6597
90.4076 139.856 83.3158
88.2454 141.846 80.476
87.6487 141.621 81.6581
90.6622 141.16 82.1172
90.9025 142.358 82.1815
87.5354 142.595 81.0388
86.5041 142.666 81.6664
87.1786 142.077 81.7373
91.1051 143.437 82.041
86.8759 143.516 80.6578
85.8992 143.4 81.5708
91.2887 144.327 81.099
91.5596 144.954 80.1192
91.3467 145.331 80.6794
85.7176 144.112 80.9115
84.5539 144.845 81.1103
84.8756 143.751 81.6778
91.225 146.348 80.0597
84.0665 145.908 81.066
91.1994 147.397 79.7392
83.6929 146.71 80.9572
90.8197 148.294 79.5055
82.6745 147.468 81.0543
83.1017 146.983 81.1435
90.6022 149.135 79.5235
81.9894 149.63 80.4609
82.074 148.344 81.069
89.875 149.799 79.5626
89.787 150.723 78.7
81.5781 150.732 80.4431
89.1349 151.297 78.396
81.6346 151.793 80.3887
88.4595 151.787 77.9955
81.9258 152.715 80.2689
88.0517 152.683 77.2582
88.0223 152.111 78.0322
87.6747 152.573 77.9645
82.1677 153.507 79.8471
82.1089 154.261 79.2054
82.5866 154.285 79.5375
87.1996 153.236 77.0053
87.1196 152.954 78.0792
86.6336 153.398 77.5441
83.0898 154.799 79.2342
85.6699 154.25 77.1734
85.6788 154.035 77.8493
85.1202 154.494 77.6368
86.3488 153.777 76.8987
86.0857 153.631 77.8043
83.0785 155.404 78.4078
83.7164 155.388 78.1335
84.4527 155.074 77.7466
89.1841 138.489 83.1141
88.2341 138.769 83.1101
88.2172 138.081 83.643
89.3713 137.932 83.8216
89.9302 138.786 83.4914
90.1622 138.722 84.343
87.3825 140.368 82.7422
87.8395 139.438 82.923
90.2244 139.988 84.2198
86.804 141.491 82.2925
86.2118 141.103 83.2245
86.8609 140.677 83.0517
90.612 141.166 83.1151
90.6381 142.5 83.119
85.7159 142.004 82.541
84.8385 142.537 83.3087
85.3631 141.551 83.6401
90.7271 143.745 82.9793
85.0749 142.926 82.3229
84.1511 143.691 82.5068
91.2045 144.581 81.8206
91.0736 145.742 81.3798
83.8053 144.752 82.1228
90.8647 146.669 80.7784
83.1667 145.449 82.0103
82.7362 145.549 83.1038
83.3278 144.945 83.0522
90.7444 147.497 80.6047
82.92 146.3 81.8417
82.4722 146.461 82.8582
90.5331 148.327 80.51
82.3518 147.277 81.9427
81.8748 148.685 81.7034
82.2725 147.446 82.6258
90.1873 149.199 80.291
81.6544 149.843 81.5061
89.55 149.681 80.2898
89.2757 150.485 79.5202
81.6723 150.899 81.3755
88.865 151.263 79.2509
81.8682 152.026 81.3255
88.0727 151.81 78.7033
88.3332 151.432 79.7428
87.523 151.773 79.3548
82.3477 152.741 80.9188
86.1169 152.825 79.2261
85.7882 152.209 80.2988
85.6068 152.966 79.5032
86.7289 152.347 79.2078
86.3515 152.096 79.9883
87.3043 152.242 78.7269
86.9168 151.701 79.9349
82.7194 153.372 80.3415
83.1104 154.131 80.1103
85.6008 153.544 78.4815
85.1584 153.532 79.1866
86.4575 153.019 78.5488
83.5514 154.335 79.6731
83.6602 154.683 78.8903
84.2636 154.661 78.62
84.0884 154.146 79.407
84.9677 154.234 78.4203
84.5502 153.899 79.1978
87.4516 137.266 84.7801
86.7732 137.766 85.1698
87.0236 136.214 85.7426
88.0766 136.07 85.3549
88.2318 137.376 84.2931
88.995 136.715 84.9768
89.6028 137.551 84.4621
89.8774 137.493 85.3193
87.4217 138.792 83.8529
86.6428 138.895 84.6709
89.7628 138.712 85.234
86.7841 139.896 83.7328
85.8457 140.036 84.5463
85.9818 139.324 85.0363
89.9532 140.1 85.1138
85.8348 140.678 83.9687
84.7316 141.181 84.487
85.2366 140.392 84.7061
90.3419 141.285 84.0015
90.4681 142.607 84.056
84.3152 142.443 83.905
90.4301 143.713 83.7535
83.7939 143.224 83.5316
82.962 143.475 84.3109
83.4438 142.575 84.4624
90.8589 144.79 82.5326
90.4319 144.708 83.4401
83.413 144.04 83.3274
82.6286 144.634 84.0601
90.644 145.614 82.2633
90.6073 146.562 81.8171
82.2718 145.654 84.0763
90.2151 147.391 81.5207
82.147 146.789 83.361
81.9029 147.884 82.9094
81.884 146.678 84.1431
89.949 148.386 81.1019
81.7467 148.952 82.5762
89.7691 149.149 80.8593
89.4519 148.638 81.4943
89.2495 149.662 80.9578
81.8131 149.968 82.3979
88.8642 150.372 80.3389
82.0546 150.881 82.236
88.7014 150.969 80.144
82.2819 151.849 82.208
82.4026 152.604 81.6686
82.8964 152.411 82.2109
87.6714 151.476 80.1512
87.8881 150.987 80.7587
87.3483 151.327 80.8311
88.3724 150.74 80.6859
82.667 152.985 81.1308
83.0853 153.048 81.5925
85.6434 151.9 81.0559
85.2908 152.765 80.2621
86.4715 151.606 80.8788
83.7979 153.862 80.2547
83.3564 153.406 80.8372
84.3382 153.543 80.0719
84.0811 153.215 80.8632
84.8881 153.331 79.9407
84.6826 152.836 80.6862
85.712 137.27 86.8652
84.8025 137.096 87.5537
85.3616 136.122 87.6926
86.143 136.072 86.8151
86.2903 137.167 86.045
87.0955 135.271 86.4543
88.2599 135.287 86.3245
89.1355 136.2 86.02
89.5764 137.337 86.2697
85.0919 138.274 86.2546
84.5543 138.466 86.7716
85.9112 138.429 85.7328
89.4792 138.647 86.1937
85.0562 139.806 85.5237
84.1649 139.482 86.3225
89.5776 139.777 86.1994
84.0773 140.55 85.3381
83.1495 141.119 85.8515
83.6129 140.2 86.3089
90.1597 141.376 84.819
89.8132 141.005 85.7073
83.6868 141.614 84.8422
82.8405 142.332 85.376
90.1044 142.281 84.9159
90.0788 143.447 84.5537
82.3146 143.597 85.1173
89.8607 144.567 84.3047
82.0502 144.717 85.0813
90.1958 145.741 82.8785
89.7142 145.575 83.7536
81.9304 145.827 85.1345
89.9184 146.587 82.685
89.2864 146.47 83.5194
81.7889 147.973 83.6824
81.836 147.041 84.7354
89.4443 147.417 82.7724
89.0245 147.256 83.5027
88.9421 147.969 83.0079
89.6862 147.655 82.0161
81.8669 148.984 83.539
89.1009 148.615 82.0888
88.4405 148.543 82.8251
81.9896 150.01 83.3669
88.8169 149.589 81.7123
88.175 149.45 82.4087
82.353 150.617 83.2474
88.0025 150.134 81.5022
87.8729 149.855 82.2529
87.4989 150.2 82.2057
88.593 150.329 80.887
82.5574 151.338 83.0315
83.708 152.595 82.3601
83.0958 151.983 82.929
84.0509 152.118 83.0218
87.2692 150.709 81.5215
86.8489 150.603 82.2095
86.5841 151.178 81.6667
83.8635 152.998 81.5643
84.5257 152.235 82.3866
84.5583 152.539 81.5904
85.0956 152.307 81.098
85.1678 151.819 82.046
85.9194 151.519 81.8644
86.469 133.794 88.0044
85.3917 133.888 88.5024
85.7375 132.97 88.844
86.9423 132.577 88.6322
87.6531 133.947 88.0022
87.8385 133.335 88.6217
88.3585 134.534 88.153
88.2638 134.13 88.8383
85.6221 135.043 88.0089
84.3743 135.662 88.6449
84.5686 134.481 88.9386
86.4843 134.888 87.1977
87.4701 134.67 87.2013
88.4287 135.091 87.3795
88.449 135.384 88.2758
84.061 137.275 87.9727
89.0582 136.122 87.0132
89.3119 137.35 87.2
83.9531 138.626 87.339
89.2878 138.678 87.0813
83.7445 139.515 86.9782
83.0903 140.296 87.0497
83.4348 139.292 87.6338
89.3357 140.325 86.7101
82.6944 141.497 86.5286
89.5241 141.57 86.3933
82.296 142.647 86.1867
89.8866 142.462 85.4901
89.6456 143.697 85.216
81.9613 143.687 86.1253
89.4362 144.765 84.8679
81.8866 144.762 86.0563
89.2083 145.761 84.5127
81.9948 145.713 86.0865
88.9427 146.538 84.0785
82.0436 148.01 84.6082
82.1072 146.775 85.5642
88.6659 146.901 84.1226
88.3744 147.515 83.8987
82.3187 148.997 84.3481
82.4374 148.103 85.2553
87.8765 148.546 83.3269
82.352 150.141 84.1463
82.8318 149.387 85.0003
87.6198 149.485 82.9108
87.5065 148.834 83.7152
87.1111 149.458 83.5281
82.8095 150.732 83.7171
83.0942 150.391 84.4495
86.1295 150.4 83.1246
85.9173 150.003 83.9264
85.4193 150.623 83.4308
86.9259 150.159 82.8748
86.5726 149.656 83.7749
83.2562 151.318 83.6906
84.844 151.708 83.053
84.0392 151.587 83.6538
85.4876 151.214 82.7663
84.8139 150.855 83.574
86.2266 150.863 82.4206
84.207 123.044 93.5442
83.4706 123.231 93.3554
83.6111 122.107 93.7239
84.0336 122.577 94.1736
84.5064 123.308 94.0324
84.183 122.976 94.6372
84.1766 123.975 93.0367
83.7461 124.561 92.9454
84.6774 124.142 93.4732
84.4269 124.119 94.3444
84.4263 125.001 92.9799
84.9701 124.941 93.6403
84.7738 132.372 89.9093
83.5719 133.196 90.3667
84.0481 132.032 90.6023
85.2805 131.233 90.072
85.9255 131.938 89.3078
86.8456 130.892 89.8597
87.3836 131.91 89.4565
87.8501 131.759 90.4127
84.6366 133.367 89.4963
83.6011 134.364 89.8793
88.0405 132.946 89.4304
88.3058 134.459 89.3936
83.498 135.989 88.9433
88.342 135.808 89.2737
83.4132 137.133 88.6265
82.8531 137.857 88.9575
82.8411 136.607 89.3467
88.8966 136.499 88.0683
88.8118 137.901 87.9736
83.5087 138.279 88.2361
82.8287 139.295 88.2759
89.0334 139.24 87.5641
82.7503 140.681 87.7679
89.0187 140.477 87.4093
82.2523 141.816 87.3871
88.6926 141.433 87.3815
82.1105 142.89 87.2072
89.452 142.66 86.0495
88.7533 142.426 86.752
82.0249 143.946 87.2207
89.1752 143.627 85.9339
88.5295 143.75 86.4038
82.1067 144.979 87.1396
88.903 144.802 85.4813
88.4439 145.267 85.8076
82.3694 146.094 86.705
88.5631 146.178 84.7855
88.0068 146.047 85.4024
82.5159 147.224 86.2065
87.9472 147.046 84.7214
87.5668 146.25 85.7437
87.2393 146.898 85.4899
82.9467 148.346 85.8196
86.26 148.086 85.0517
85.831 147.651 85.7953
85.6574 148.395 85.3652
87.1058 147.638 84.9043
86.5221 147.192 85.8645
87.6909 148.05 84.1022
83.4358 149.198 85.5516
83.8158 150.106 84.8799
84.7922 149.771 84.823
84.2659 149.127 85.4609
85.5037 149.056 84.7879
84.9793 148.817 85.4247
86.0511 149.066 84.3741
86.851 148.594 84.325
83.7401 150.807 84.1677
84.4907 150.629 84.2664
85.3475 150.136 84.2636
81.9822 121.535 93.8703
81.7721 122.718 94.0467
81.2719 121.906 94.9326
82.1547 121.082 95.0026
83.2252 121.166 94.172
83.1986 121.363 95.3937
82.66 122.797 93.4596
82.2897 123.711 93.8917
83.8859 121.951 94.8474
83.9464 122.885 95.1785
83.1722 124.49 93.3007
82.4026 124.816 93.7855
84.1247 124.068 94.9786
83.1141 125.886 92.9589
82.3577 126.184 93.5425
83.9078 125.618 92.6627
84.8391 125.878 93.0863
84.8609 125.314 94.2841
83.3428 126.994 92.8187
82.5423 127.299 93.5168
84.2557 126.814 92.3683
85.2183 126.735 92.3194
85.4011 126.274 93.4793
85.9137 126.861 92.7866
85.8861 127.043 93.5446
83.3277 127.987 92.6174
82.4304 128.438 93.2906
84.3125 127.879 91.9334
85.451 127.735 91.6631
86.25 127.672 92.2113
86.2441 127.796 93.0898
83.2073 128.86 92.428
84.1933 128.94 91.709
83.2996 129.722 92.1933
85.5074 128.756 91.2494
86.6929 128.635 91.6479
86.6607 128.753 92.5841
83.9568 130.104 91.3323
83.1258 130.723 92.1136
85.126 129.702 90.9072
86.79 129.502 91.0609
87.0644 129.728 92.2909
83.4 131.276 91.5387
84.39 130.94 90.783
83.0188 132.418 91.4102
85.9467 130.144 90.3777
87.6083 130.297 91.8385
87.4545 130.548 90.7235
87.5657 131.342 91.6386
82.6292 133.418 91.2799
87.7162 132.575 91.2934
83.0203 134.5 90.6783
82.6732 135.501 90.6212
82.2674 134.481 91.6528
88.1513 133.331 90.3204
88.1337 134.569 90.4507
83.1124 135.491 89.8407
82.52 136.762 90.0929
87.8585 135.643 90.3881
82.6032 138.203 89.5582
88.6081 136.94 88.9112
88.0159 136.866 89.8614
82.5442 139.634 88.9776
88.3013 137.96 88.7794
88.4575 139.131 88.2664
82.3013 140.898 88.5322
88.2901 140.182 88.2293
82.1594 142.009 88.3465
88.1467 141.141 88.1155
87.8044 140.334 88.8302
87.4739 141.192 88.6583
82.2312 143.141 88.2306
88.0058 142.114 87.7197
87.3477 142.519 88.1909
82.5607 144.195 88.2121
88.1979 143.185 87.2594
87.3217 143.467 87.8027
82.6405 145.394 87.8182
87.4275 144.19 87.0972
86.6265 143.995 87.8573
86.5061 144.788 87.5166
88.0672 144.423 86.5268
82.8344 146.472 87.2402
86.9727 145.235 86.8355
86.3962 145.641 87.0304
87.7286 145.356 86.3918
83.044 147.332 86.7038
87.0415 146.166 86.2271
86.326 146.46 86.5298
83.5045 147.951 86.4319
83.8108 148.544 86.0381
84.6208 148.306 85.9704
84.3241 147.863 86.6172
85.3264 148.09 85.9203
85.1363 147.439 86.5663
85.711 146.904 86.5347
81.6228 123.132 94.7992
81.1288 122.296 95.8037
81.8734 121.272 96.079
82.8594 121.765 96.4582
81.6305 124.371 94.7556
83.4767 122.306 95.7924
83.6463 123.362 95.8343
81.8738 125.468 94.3938
84.0853 124.823 95.095
81.879 126.464 94.4697
84.6042 125.965 94.9286
81.9413 127.668 94.223
85.2272 126.55 94.2285
85.6426 127.647 93.9536
82.0215 128.452 94.2746
85.9481 128.704 93.5983
82.579 129.164 93.0013
82.1345 129.181 93.8252
86.2736 129.611 93.2772
82.631 129.872 93.0279
82.6285 130.769 92.908
86.3688 130.551 93.2317
82.7511 131.784 92.5274
82.6104 132.7 92.888
86.614 131.344 92.7664
87.085 132.321 92.3992
82.3362 133.575 92.7873
87.1569 133.204 92.2476
82.2005 135.781 91.2744
82.1947 134.823 92.6489
87.6355 133.766 91.2626
87.5121 134.757 91.4246
82.3713 137.148 90.7901
87.6035 136.054 91.1003
82.3726 138.563 90.2188
87.5341 137.243 90.7482
82.3738 139.827 89.7488
88.0493 138.297 89.3484
87.5604 138.245 90.0171
82.1542 141.024 89.465
87.8057 139.289 89.1522
87.2403 139.928 89.5699
82.5121 142.088 89.2996
86.8921 141.215 89.2002
82.7696 143.024 89.0576
86.6205 142.354 88.8367
86.1931 141.582 89.5739
85.9277 142.47 89.3416
82.9757 143.828 89.071
83.176 144.898 88.7288
84.2846 144.673 89.0957
83.6388 143.928 89.5089
85.1765 144.107 89.1498
84.5517 143.675 89.7416
85.9629 143.382 88.9785
85.3544 143.061 89.6787
86.6344 143.357 88.4591
83.3403 146.057 88.082
84.1521 145.712 88.5272
85.0496 145.088 88.5176
85.8098 144.342 88.3447
83.6312 146.82 87.4046
84.3186 146.311 87.7549
85.0784 145.984 87.9204
85.7744 145.349 87.7982
83.7894 147.448 86.9623
84.4507 147.2 87.2316
85.0676 146.664 87.2364
85.6547 146.055 87.1078
81.668 123.408 95.7456
81.7148 122.39 96.8186
81.6881 124.471 95.7039
82.163 123.78 96.3556
82.8377 122.918 96.6094
81.7387 125.514 95.3077
82.1167 125.073 96.199
82.8954 124.331 96.6757
83.5495 124.062 96.2599
83.8928 125.157 95.6578
81.8101 126.929 95.2164
84.3099 126.481 95.438
82.1432 128.044 95.1342
85.1098 127.192 94.795
85.2252 128.363 94.4542
82.2408 128.939 94.9499
85.4981 129.473 94.2204
82.1026 129.678 94.5703
85.4846 130.494 94.1032
82.21 130.186 93.7438
82.2014 130.936 93.9699
85.5436 131.593 93.8367
82.493 131.501 93.559
83.3435 133.092 94.2684
82.7092 132.156 94.0915
85.0202 132.644 93.9879
84.1519 132.169 94.6175
86.2129 132.379 93.1879
82.9204 134.012 93.6512
84.5082 133.881 93.9945
85.9961 133.362 93.2733
82.1792 136.161 92.0032
82.614 135.719 92.9524
83.3854 134.902 93.7103
84.7101 134.891 93.6435
85.2404 135.729 93.0878
85.6763 134.479 93.1109
86.7522 134.168 92.3997
82.3019 137.61 91.4677
86.06 135.756 92.4481
85.4954 136.84 92.5865
86.9257 135.326 92.0364
82.5086 138.766 90.9201
86.0783 137.275 91.7912
85.4399 138.015 92.0253
86.8389 136.54 91.625
82.555 139.88 90.5618
86.0808 138.606 91.2305
85.3598 139.258 91.5021
86.7349 137.923 90.9215
82.5548 140.975 90.2925
86.002 139.76 90.6847
85.0916 140.193 91.0349
86.8004 139.091 90.2627
82.843 141.538 90.3583
83.0737 142.359 90.2072
84.21 141.967 90.7508
83.4988 141.339 90.8427
85.1301 141.237 90.6836
84.3966 140.882 91.1857
85.7705 140.855 90.3681
86.4115 140.52 89.9763
83.233 143.212 89.6898
83.9241 142.998 90.0915
84.8789 142.517 90.2577
85.5694 141.849 90.0742
82.0803 126.44 95.9359
82.7785 125.966 96.2533
83.4264 125.358 96.2081
82.3769 127.66 96.0086
83.0704 127.246 96.263
83.7442 126.63 95.9932
82.6052 128.723 95.7805
83.3658 128.398 96.1395
84.1389 128.07 95.8699
84.5149 127.677 95.2691
82.5681 129.704 95.4312
83.378 129.539 95.7408
84.2347 129.254 95.6272
84.7543 128.854 95.0108
82.2596 130.476 94.7563
83.1178 130.602 95.3279
84.1543 130.565 95.5833
84.9097 130.014 94.9564
82.743 131.346 94.6897
83.602 131.603 95.1459
84.7654 131.226 94.7845
82.5181 136.933 92.4871
83.297 136.35 93.1954
84.1203 135.746 93.5659
82.849 138.05 92.0652
83.5835 137.385 92.8185
84.5076 136.721 93.2396
82.9946 139.027 91.6002
83.7809 138.421 92.378
84.8134 137.768 92.808
83.054 139.951 91.205
83.7394 139.341 91.8472
84.6918 138.795 92.1797
83.123 140.807 90.8984
83.6837 140.297 91.3884
84.5023 139.758 91.6709
POLYGONS 2132  8528
3 0 1 2
3 0 3 4
3 2 3 0
3 4 5 6
3 3 5 4
3 6 7 8
3 5 7 6
3 7 9 8
3 10 1 0
3 11 1 10
3 4 12 0
3 12 10 0
3 6 13 4
3 13 12 4
3 8 14 6
3 14 13 6
3 15 8 9
3 14 8 15
3 16 11 10
3 17 11 16
3 12 18 10
3 18 16 10
3 13 19 12
3 19 18 12
3 14 20 13
3 20 19 13
3 21 14 15
3 20 14 21
3 16 22 17
3 18 22 16
3 23 22 18
3 19 23 18
3 24 23 19
3 20 24 19
3 25 24 20
3 21 25 20
3 26 27 28
3 26 29 30
3 28 29 26
3 29 31 30
3 32 33 34
3 27 32 34
3 27 26 32
3 26 35 32
3 30 36 26
3 36 35 26
3 37 30 31
3 36 30 37
3 38 33 32
3 39 33 38
3 35 40 32
3 40 38 32
3 36 41 35
3 41 40 35
3 42 36 37
3 41 36 42
3 43 44 45
3 43 46 47
3 45 46 43
3 39 47 46
3 39 38 47
3 38 48 47
3 40 49 38
3 49 48 38
3 50 41 51
3 50 49 41
3 49 40 41
3 42 51 41
3 2 44 43
3 2 1 44
3 1 52 44
3 3 2 43
3 47 3 43
3 5 3 47
3 48 5 47
3 7 5 48
3 49 7 48
3 49 9 7
3 49 50 9
3 50 53 9
3 1 11 52
3 52 11 54
3 9 53 15
3 53 55 15
3 11 17 54
3 54 17 56
3 15 55 21
3 55 57 21
3 58 17 22
3 58 59 17
3 59 56 17
3 22 23 60
3 58 22 60
3 23 24 61
3 60 23 61
3 62 61 24
3 62 24 63
3 63 24 25
3 57 25 21
3 63 25 57
3 58 64 59
3 60 64 58
3 65 64 60
3 61 65 60
3 66 65 61
3 62 66 61
3 67 68 69
3 67 70 71
3 69 70 67
3 71 72 73
3 70 72 71
3 72 74 73
3 75 76 77
3 68 75 77
3 68 67 75
3 67 78 75
3 71 79 67
3 79 78 67
3 73 80 71
3 80 79 71
3 81 73 74
3 80 73 81
3 82 76 75
3 83 76 82
3 78 84 75
3 84 82 75
3 79 85 78
3 85 84 78
3 80 86 79
3 86 85 79
3 87 80 81
3 86 80 87
3 28 83 82
3 28 27 83
3 27 88 83
3 29 28 82
3 84 29 82
3 31 29 84
3 31 84 89
3 89 84 85
3 86 90 85
3 90 89 85
3 91 86 87
3 90 86 91
3 34 92 93
3 33 92 34
3 88 27 34
3 93 88 34
3 89 94 37
3 31 89 37
3 90 95 89
3 95 94 89
3 96 90 91
3 95 90 96
3 97 98 99
3 97 99 92
3 97 92 39
3 39 92 33
3 94 100 42
3 37 94 42
3 101 95 102
3 101 100 95
3 100 94 95
3 96 102 95
3 45 103 104
3 44 103 45
3 98 97 46
3 98 46 104
3 104 46 45
3 39 46 97
3 51 105 50
3 51 42 100
3 51 100 105
3 105 100 106
3 107 100 101
3 106 100 107
3 44 52 103
3 103 52 108
3 105 109 53
3 50 105 53
3 110 106 111
3 110 109 106
3 109 105 106
3 107 111 106
3 52 54 108
3 108 54 112
3 109 113 55
3 53 109 55
3 114 109 110
3 113 109 114
3 54 56 112
3 112 56 115
3 113 116 57
3 55 113 57
3 117 113 114
3 116 113 117
3 56 59 115
3 115 59 118
3 63 119 120
3 62 63 120
3 116 63 57
3 116 121 63
3 121 119 63
3 117 121 116
3 59 122 118
3 64 122 59
3 65 123 64
3 64 123 122
3 66 124 65
3 65 124 123
3 120 66 62
3 124 66 120
3 69 125 126
3 68 125 69
3 70 69 127
3 69 126 127
3 72 70 128
3 70 127 128
3 128 74 72
3 129 74 128
3 77 130 131
3 76 130 77
3 125 68 77
3 131 125 77
3 74 129 81
3 129 132 81
3 76 83 130
3 130 83 133
3 134 135 87
3 134 87 132
3 132 87 81
3 134 136 135
3 83 88 133
3 133 88 137
3 135 138 91
3 87 135 91
3 139 135 136
3 138 135 139
3 93 140 141
3 92 140 93
3 137 88 93
3 141 137 93
3 138 142 96
3 91 138 96
3 143 138 139
3 142 138 143
3 99 144 145
3 98 144 99
3 140 92 99
3 145 140 99
3 102 146 101
3 102 147 146
3 96 147 102
3 96 148 147
3 96 142 148
3 143 148 142
3 104 149 150
3 103 149 104
3 144 98 104
3 150 144 104
3 146 151 107
3 101 146 107
3 152 146 147
3 151 146 152
3 103 108 149
3 149 108 153
3 111 154 110
3 111 155 154
3 107 155 111
3 107 156 155
3 107 151 156
3 152 156 151
3 108 112 153
3 153 112 157
3 154 158 114
3 110 154 114
3 159 154 155
3 158 154 159
3 112 115 157
3 157 115 160
3 158 161 162
3 158 162 114
3 114 162 117
3 159 161 158
3 115 118 160
3 160 118 163
3 119 164 120
3 165 164 119
3 165 119 166
3 166 119 121
3 162 121 117
3 166 121 162
3 118 167 163
3 122 167 118
3 123 168 122
3 122 168 167
3 124 169 123
3 123 169 168
3 164 124 120
3 164 170 124
3 170 169 124
3 165 170 164
3 126 125 171
3 172 126 171
3 172 173 126
3 173 127 126
3 128 127 174
3 127 173 174
3 174 129 128
3 175 129 174
3 131 130 176
3 131 176 177
3 125 131 177
3 125 177 178
3 125 178 171
3 172 171 178
3 179 180 132
3 179 132 175
3 175 132 129
3 179 181 180
3 176 182 183
3 176 130 182
3 130 133 182
3 177 176 183
3 132 180 134
3 180 136 134
3 180 181 136
3 181 184 136
3 133 137 182
3 182 137 185
3 136 184 139
3 184 186 139
3 141 187 188
3 140 187 141
3 185 137 141
3 188 185 141
3 139 186 143
3 186 189 143
3 145 190 191
3 144 190 145
3 187 140 145
3 191 187 145
3 148 192 147
3 148 193 192
3 148 143 193
3 143 189 193
3 150 194 195
3 149 194 150
3 190 144 150
3 195 190 150
3 192 196 152
3 147 192 152
3 197 192 193
3 196 192 197
3 198 199 200
3 198 200 194
3 198 194 153
3 153 194 149
3 156 201 155
3 156 202 201
3 152 202 156
3 152 203 202
3 152 196 203
3 197 203 196
3 204 199 198
3 205 199 204
3 153 157 204
3 198 153 204
3 201 206 159
3 155 201 159
3 207 201 202
3 206 201 207
3 208 205 204
3 209 205 208
3 157 160 208
3 204 157 208
3 161 210 162
3 161 211 210
3 159 211 161
3 159 212 211
3 159 206 212
3 207 212 206
3 213 209 208
3 214 209 213
3 160 163 213
3 208 160 213
3 166 215 216
3 165 166 216
3 210 166 162
3 210 217 166
3 217 215 166
3 211 217 210
3 213 218 214
3 163 218 213
3 163 167 218
3 167 219 218
3 168 220 167
3 167 220 219
3 169 221 168
3 168 221 220
3 170 222 169
3 169 222 221
3 216 170 165
3 222 170 216
3 223 224 225
3 223 226 227
3 225 226 223
3 226 228 227
3 173 224 223
3 173 172 224
3 172 229 224
3 174 173 223
3 227 174 223
3 227 175 174
3 227 228 175
3 228 230 175
3 178 231 232
3 177 231 178
3 229 172 178
3 232 229 178
3 175 230 233
3 179 175 233
3 233 181 179
3 234 181 233
3 183 235 236
3 182 235 183
3 231 177 183
3 236 231 183
3 181 234 184
3 234 237 184
3 238 239 240
3 238 240 235
3 238 235 185
3 185 235 182
3 184 237 186
3 237 241 186
3 242 243 244
3 239 242 244
3 238 242 239
3 238 187 242
3 238 188 187
3 185 188 238
3 186 241 189
3 241 245 189
3 246 247 248
3 243 246 248
3 242 246 243
3 242 190 246
3 242 191 190
3 187 191 242
3 189 245 193
3 245 249 193
3 250 251 252
3 247 250 252
3 246 250 247
3 246 194 250
3 246 195 194
3 190 195 246
3 193 249 197
3 249 253 197
3 200 251 250
3 200 199 251
3 199 254 251
3 194 200 250
3 203 255 256
3 202 203 256
3 253 203 197
3 255 203 253
3 199 205 254
3 254 205 257
3 202 256 207
3 256 258 207
3 205 209 257
3 257 209 259
3 212 260 261
3 211 212 261
3 258 212 207
3 260 212 258
3 209 214 259
3 259 214 262
3 215 263 264
3 216 215 264
3 217 265 215
3 215 265 263
3 261 217 211
3 265 217 261
3 214 266 262
3 218 266 214
3 219 267 218
3 218 267 266
3 220 268 219
3 219 268 267
3 221 269 220
3 220 269 268
3 222 270 221
3 221 270 269
3 264 222 216
3 270 222 264
3 271 272 273
3 271 225 224
3 271 273 225
3 273 274 225
3 226 225 275
3 225 274 275
3 275 228 226
3 276 228 275
3 277 272 271
3 278 272 277
3 224 229 277
3 271 224 277
3 228 276 230
3 276 279 230
3 232 278 277
3 232 231 278
3 231 280 278
3 229 232 277
3 230 279 281
3 233 230 281
3 281 234 233
3 282 234 281
3 283 284 285
3 283 236 235
3 283 285 236
3 285 286 236
3 280 231 236
3 286 280 236
3 234 282 237
3 282 287 237
3 288 289 290
3 284 288 290
3 283 288 284
3 283 239 288
3 283 240 239
3 235 240 283
3 237 287 241
3 287 291 241
3 244 289 288
3 244 243 289
3 243 292 289
3 239 244 288
3 241 291 245
3 291 293 245
3 248 294 295
3 247 294 248
3 292 243 248
3 295 292 248
3 245 293 249
3 293 296 249
3 252 297 298
3 251 297 252
3 294 247 252
3 298 294 252
3 249 296 253
3 296 299 253
3 251 254 297
3 297 254 300
3 255 301 302
3 256 255 302
3 299 255 253
3 301 255 299
3 254 257 300
3 300 257 303
3 256 302 258
3 302 304 258
3 257 259 303
3 303 259 305
3 260 306 307
3 261 260 307
3 304 260 258
3 306 260 304
3 259 262 305
3 305 262 308
3 263 309 264
3 310 309 263
3 310 263 311
3 311 263 265
3 307 265 261
3 311 265 307
3 262 312 308
3 266 312 262
3 267 313 266
3 266 313 312
3 268 314 267
3 267 314 313
3 269 315 268
3 268 315 314
3 270 316 269
3 269 316 315
3 309 270 264
3 309 317 270
3 317 316 270
3 310 317 309
3 318 319 320
3 318 321 322
3 320 321 318
3 322 323 324
3 321 323 322
3 323 325 324
3 273 319 318
3 273 272 319
3 272 326 319
3 274 273 318
3 322 274 318
3 275 274 322
3 324 275 322
3 324 276 275
3 324 325 276
3 325 327 276
3 272 278 326
3 326 278 328
3 276 327 279
3 327 329 279
3 330 331 332
3 330 332 328
3 330 328 280
3 280 328 278
3 279 329 333
3 281 279 333
3 333 282 281
3 334 282 333
3 285 335 336
3 284 335 285
3 331 330 286
3 331 286 336
3 336 286 285
3 280 286 330
3 282 334 287
3 334 337 287
3 290 338 339
3 289 338 290
3 335 284 290
3 339 335 290
3 287 337 291
3 337 340 291
3 289 292 338
3 338 292 341
3 291 340 293
3 340 342 293
3 295 343 344
3 294 343 295
3 341 292 295
3 344 341 295
3 293 342 296
3 342 345 296
3 298 346 347
3 297 346 298
3 343 294 298
3 347 343 298
3 296 345 299
3 345 348 299
3 297 300 346
3 346 300 349
3 301 350 351
3 302 301 351
3 348 301 299
3 350 301 348
3 300 303 349
3 349 303 352
3 302 351 304
3 351 353 304
3 303 305 352
3 352 305 354
3 306 355 356
3 307 306 356
3 353 306 304
3 355 306 353
3 305 308 354
3 354 308 357
3 311 358 359
3 310 311 359
3 356 311 307
3 358 311 356
3 308 360 357
3 312 360 308
3 313 361 312
3 312 361 360
3 314 362 313
3 313 362 361
3 315 363 314
3 314 363 362
3 316 364 315
3 315 364 363
3 317 365 316
3 316 365 364
3 359 317 310
3 365 317 359
3 366 367 368
3 366 369 370
3 368 369 366
3 369 371 370
3 320 367 366
3 320 319 367
3 319 372 367
3 321 320 366
3 370 321 366
3 370 371 373
3 370 373 321
3 321 373 323
3 373 325 323
3 374 325 373
3 375 376 377
3 375 377 372
3 375 372 326
3 326 372 319
3 325 374 327
3 374 378 327
3 379 376 375
3 380 376 379
3 326 328 379
3 375 326 379
3 327 378 329
3 378 381 329
3 382 383 384
3 380 382 384
3 379 382 380
3 379 331 382
3 379 332 331
3 328 332 379
3 329 381 385
3 333 329 385
3 385 334 333
3 386 334 385
3 387 388 389
3 383 387 389
3 382 387 383
3 382 335 387
3 382 336 335
3 331 336 382
3 334 386 337
3 386 390 337
3 339 388 387
3 339 338 388
3 338 391 388
3 335 339 387
3 337 390 340
3 390 392 340
3 393 394 395
3 393 395 391
3 393 391 341
3 341 391 338
3 340 392 342
3 392 396 342
3 397 398 399
3 394 397 399
3 393 397 394
3 393 343 397
3 393 344 343
3 341 344 393
3 400 401 402
3 400 396 401
3 400 345 396
3 345 342 396
3 347 398 397
3 347 346 398
3 346 403 398
3 343 347 397
3 404 400 402
3 405 404 402
3 345 404 348
3 400 404 345
3 346 349 403
3 403 349 406
3 350 404 405
3 350 405 351
3 351 405 407
3 348 404 350
3 349 352 406
3 406 352 408
3 351 407 353
3 407 409 353
3 352 354 408
3 408 354 410
3 355 411 412
3 356 355 412
3 409 355 353
3 411 355 409
3 413 357 414
3 413 410 357
3 410 354 357
3 413 414 415
3 358 416 417
3 359 358 417
3 412 358 356
3 416 358 412
3 357 360 414
3 414 418 415
3 414 360 418
3 360 361 418
3 362 419 361
3 361 419 418
3 363 420 362
3 362 420 419
3 364 421 363
3 363 421 420
3 365 422 364
3 364 422 421
3 417 365 359
3 422 365 417
3 423 424 425
3 423 368 367
3 423 425 368
3 425 426 368
3 369 368 427
3 368 426 427
3 427 371 369
3 428 371 427
3 429 424 423
3 430 424 429
3 367 372 429
3 423 367 429
3 371 428 431
3 373 371 431
3 431 374 373
3 432 374 431
3 433 434 435
3 430 433 435
3 429 433 430
3 429 376 433
3 429 377 376
3 372 377 429
3 374 432 378
3 432 436 378
3 437 434 433
3 438 434 437
3 376 380 437
3 433 376 437
3 439 440 381
3 439 381 436
3 436 381 378
3 439 441 440
3 442 443 444
3 438 442 444
3 437 442 438
3 437 383 442
3 437 384 383
3 380 384 437
3 381 440 385
3 440 386 385
3 440 441 386
3 441 445 386
3 389 443 442
3 389 388 443
3 388 446 443
3 383 389 442
3 386 445 390
3 445 447 390
3 388 391 446
3 446 391 448
3 390 447 392
3 447 449 392
3 395 450 451
3 394 450 395
3 448 391 395
3 451 448 395
3 392 449 396
3 449 452 396
3 399 453 454
3 398 453 399
3 450 394 399
3 454 450 399
3 401 455 456
3 402 401 456
3 452 401 396
3 455 401 452
3 398 403 453
3 453 403 457
3 402 456 405
3 456 458 405
3 403 406 457
3 457 406 459
3 405 458 407
3 458 460 407
3 406 408 459
3 459 408 461
3 462 463 464
3 462 460 463
3 462 409 460
3 409 407 460
3 465 410 466
3 465 461 410
3 461 408 410
3 465 466 467
3 468 469 470
3 464 469 468
3 462 464 468
3 462 468 412
3 462 412 411
3 409 462 411
3 410 413 466
3 466 413 415
3 466 415 467
3 467 415 471
3 472 473 474
3 472 475 476
3 473 472 476
3 470 476 475
3 468 470 475
3 468 475 417
3 468 417 416
3 412 468 416
3 415 477 471
3 418 477 415
3 419 478 418
3 418 478 477
3 420 479 419
3 419 479 478
3 474 421 472
3 474 479 421
3 479 420 421
3 422 472 421
3 475 472 422
3 417 475 422
3 480 481 482
3 480 483 484
3 482 483 480
3 483 485 484
3 425 486 487
3 424 486 425
3 481 480 426
3 481 426 487
3 487 426 425
3 427 426 480
3 484 427 480
3 484 428 427
3 484 485 428
3 485 488 428
3 489 490 491
3 489 491 486
3 489 486 430
3 430 486 424
3 428 488 492
3 431 428 492
3 492 432 431
3 493 432 492
3 494 495 496
3 490 494 496
3 489 494 490
3 489 434 494
3 489 435 434
3 430 435 489
3 432 493 436
3 493 497 436
3 498 495 494
3 499 495 498
3 434 438 498
3 494 434 498
3 436 497 500
3 439 436 500
3 500 441 439
3 501 441 500
3 444 499 498
3 444 443 499
3 443 502 499
3 438 444 498
3 441 501 445
3 501 503 445
3 504 505 506
3 504 506 502
3 504 502 446
3 446 502 443
3 445 503 447
3 503 507 447
3 508 505 504
3 509 505 508
3 446 448 508
3 504 446 508
3 447 507 449
3 507 510 449
3 511 512 513
3 509 511 513
3 508 511 509
3 508 450 511
3 508 451 450
3 448 451 508
3 449 510 452
3 510 514 452
3 454 512 511
3 454 453 512
3 453 515 512
3 450 454 511
3 455 516 517
3 456 455 517
3 514 455 452
3 516 455 514
3 453 457 515
3 515 457 518
3 456 517 458
3 517 519 458
3 457 459 518
3 518 459 520
3 521 522 523
3 521 519 522
3 521 460 519
3 460 458 519
3 459 461 520
3 520 461 524
3 525 526 527
3 525 528 529
3 526 525 529
3 528 530 531
3 529 528 531
3 523 531 530
3 521 523 530
3 521 530 464
3 521 464 463
3 460 521 463
3 461 532 524
3 465 532 461
3 532 465 467
3 533 532 467
3 534 525 527
3 535 534 527
3 528 525 536
3 536 525 534
3 469 536 470
3 469 530 536
3 530 528 536
3 464 530 469
3 537 471 538
3 537 533 471
3 533 467 471
3 538 539 540
3 537 538 540
3 539 541 542
3 540 539 542
3 535 542 541
3 534 535 541
3 534 541 474
3 534 474 473
3 476 534 473
3 536 534 476
3 470 536 476
3 471 477 538
3 478 538 477
3 539 538 478
3 479 539 478
3 541 539 479
3 474 541 479
3 543 544 545
3 543 546 547
3 545 546 543
3 547 548 549
3 546 548 547
3 548 550 549
3 551 544 543
3 552 544 551
3 482 481 551
3 482 551 547
3 547 551 543
3 483 482 547
3 549 483 547
3 549 485 483
3 549 550 485
3 550 553 485
3 554 555 556
3 552 554 556
3 551 554 552
3 551 486 554
3 551 487 486
3 481 487 551
3 485 553 488
3 553 557 488
3 558 559 560
3 555 558 560
3 554 558 555
3 554 490 558
3 554 491 490
3 486 491 554
3 488 557 561
3 492 488 561
3 561 493 492
3 562 493 561
3 496 559 558
3 496 495 559
3 495 563 559
3 490 496 558
3 493 562 497
3 562 564 497
3 565 566 567
3 565 567 563
3 565 563 499
3 499 563 495
3 568 500 497
3 568 497 569
3 569 497 564
3 500 568 501
3 570 566 565
3 571 566 570
3 499 502 570
3 565 499 570
3 568 569 572
3 572 501 568
3 572 573 501
3 573 503 501
3 506 571 570
3 506 505 571
3 505 574 571
3 502 506 570
3 503 573 507
3 573 575 507
3 576 577 578
3 576 578 574
3 576 574 509
3 509 574 505
3 507 575 510
3 575 579 510
3 513 577 576
3 513 512 577
3 512 580 577
3 509 513 576
3 581 582 583
3 581 579 582
3 581 514 579
3 514 510 579
3 512 515 580
3 580 515 584
3 516 581 583
3 516 583 517
3 517 583 585
3 514 581 516
3 515 518 584
3 584 518 586
3 517 585 519
3 585 587 519
3 588 520 589
3 588 586 520
3 586 518 520
3 588 589 590
3 591 592 593
3 591 523 522
3 591 522 592
3 592 522 594
3 587 522 519
3 594 522 587
3 589 524 595
3 520 524 589
3 596 590 589
3 595 596 589
3 526 597 598
3 527 526 598
3 529 599 526
3 526 599 597
3 593 531 591
3 593 599 531
3 599 529 531
3 523 591 531
3 524 532 595
3 533 600 601
3 532 533 601
3 532 601 596
3 532 596 595
3 600 602 603
3 601 600 603
3 602 604 605
3 603 602 605
3 604 598 605
3 604 535 598
3 535 527 598
3 533 537 600
3 540 600 537
3 602 600 540
3 542 602 540
3 604 602 542
3 535 604 542
3 606 607 608
3 606 609 610
3 608 609 606
3 610 545 544
3 610 609 545
3 609 611 545
3 546 545 612
3 545 611 612
3 548 546 613
3 546 612 613
3 613 550 548
3 614 550 613
3 615 607 606
3 616 607 615
3 610 617 606
3 617 615 606
3 544 552 617
3 610 544 617
3 550 614 553
3 614 618 553
3 619 616 615
3 620 616 619
3 556 555 619
3 556 619 617
3 617 619 615
3 552 556 617
3 553 618 557
3 618 621 557
3 622 623 624
3 620 622 624
3 619 622 620
3 619 559 622
3 619 560 559
3 555 560 619
3 625 561 557
3 625 557 626
3 626 557 621
3 561 625 562
3 627 623 622
3 628 623 627
3 559 563 627
3 622 559 627
3 625 626 629
3 629 562 625
3 629 630 562
3 630 564 562
3 567 628 627
3 567 566 628
3 566 631 628
3 563 567 627
3 564 630 569
3 630 632 569
3 566 571 631
3 631 571 633
3 634 572 569
3 634 569 635
3 635 569 632
3 572 634 573
3 571 574 633
3 633 574 636
3 637 634 635
3 638 637 635
3 573 637 575
3 634 637 573
3 578 639 640
3 577 639 578
3 636 574 578
3 640 636 578
3 641 642 643
3 638 642 641
3 638 641 637
3 637 641 644
3 575 644 579
3 637 644 575
3 577 580 639
3 639 580 645
3 646 641 643
3 647 646 643
3 582 646 583
3 582 644 646
3 644 641 646
3 579 644 582
3 580 584 645
3 645 584 648
3 649 646 647
3 650 649 647
3 583 649 585
3 646 649 583
3 584 586 648
3 648 586 651
3 652 653 654
3 650 653 652
3 650 652 649
3 649 652 655
3 585 655 587
3 649 655 585
3 586 656 651
3 588 656 586
3 590 657 658
3 590 658 588
3 588 658 656
3 658 657 659
3 660 661 662
3 654 661 660
3 652 654 660
3 652 660 593
3 652 593 592
3 594 652 592
3 655 652 594
3 587 655 594
3 657 596 663
3 590 596 657
3 664 659 657
3 664 657 665
3 665 657 663
3 665 666 667
3 664 665 667
3 666 598 597
3 666 597 667
3 667 597 668
3 662 599 660
3 662 668 599
3 668 597 599
3 593 660 599
3 596 601 663
3 603 663 601
3 665 663 603
3 605 665 603
3 666 665 605
3 598 666 605
3 669 670 671
3 669 672 673
3 671 672 669
3 673 674 675
3 672 674 673
3 674 676 675
3 677 678 679
3 670 677 679
3 670 669 677
3 669 680 677
3 673 681 669
3 681 680 669
3 675 682 673
3 682 681 673
3 683 675 676
3 682 675 683
3 608 678 677
3 608 607 678
3 607 684 678
3 609 608 677
3 680 609 677
3 611 609 680
3 681 611 680
3 612 611 681
3 682 612 681
3 682 683 685
3 682 685 612
3 612 685 613
3 685 614 613
3 686 614 685
3 607 616 684
3 684 616 687
3 614 686 618
3 686 688 618
3 689 690 691
3 689 691 687
3 689 687 620
3 620 687 616
3 618 688 621
3 688 692 621
3 624 690 689
3 624 623 690
3 623 693 690
3 620 624 689
3 621 692 626
3 692 694 626
3 623 628 693
3 693 628 695
3 626 694 696
3 629 626 696
3 696 630 629
3 697 630 696
3 628 631 695
3 695 631 698
3 630 697 632
3 697 699 632
3 631 633 698
3 698 633 700
3 632 699 635
3 699 701 635
3 633 636 700
3 700 636 702
3 635 701 638
3 701 703 638
3 640 639 704
3 640 704 705
3 640 705 636
3 636 705 702
3 642 706 707
3 643 642 707
3 703 642 638
3 706 642 703
3 704 645 708
3 639 645 704
3 709 705 704
3 708 709 704
3 643 707 647
3 707 710 647
3 708 648 711
3 645 648 708
3 712 709 708
3 711 712 708
3 713 714 715
3 713 710 714
3 713 650 710
3 650 647 710
3 711 651 716
3 648 651 711
3 717 712 711
3 716 717 711
3 718 719 720
3 718 721 722
3 719 718 722
3 715 722 721
3 713 715 721
3 713 721 654
3 713 654 653
3 650 713 653
3 651 656 716
3 716 723 717
3 716 656 723
3 656 658 723
3 659 724 725
3 659 725 658
3 658 725 723
3 724 726 727
3 725 724 727
3 720 727 726
3 720 726 718
3 718 726 728
3 661 728 662
3 661 721 728
3 721 718 728
3 654 721 661
3 659 664 724
3 667 724 664
3 726 724 667
3 668 726 667
3 728 726 668
3 662 728 668
3 729 730 731
3 729 732 733
3 731 732 729
3 732 734 733
3 735 730 729
3 736 730 735
3 733 737 729
3 737 735 729
3 738 733 734
3 737 733 738
3 735 739 736
3 737 739 735
3 740 739 737
3 738 740 737
3 741 742 743
3 741 744 745
3 743 744 741
3 745 746 747
3 744 746 745
3 746 748 747
3 749 742 741
3 750 742 749
3 671 670 749
3 671 749 745
3 745 749 741
3 672 671 745
3 747 672 745
3 747 748 751
3 747 751 672
3 672 751 674
3 751 676 674
3 752 676 751
3 679 750 749
3 679 678 750
3 678 753 750
3 670 679 749
3 676 752 683
3 752 754 683
3 755 756 757
3 755 757 753
3 755 753 684
3 684 753 678
3 683 754 758
3 685 683 758
3 758 686 685
3 759 686 758
3 760 756 755
3 761 756 760
3 684 687 760
3 755 684 760
3 686 759 688
3 759 762 688
3 691 761 760
3 691 690 761
3 690 763 761
3 687 691 760
3 688 762 692
3 762 764 692
3 690 693 763
3 763 693 765
3 692 764 694
3 764 766 694
3 693 695 765
3 765 695 767
3 768 696 694
3 768 694 769
3 769 694 766
3 696 768 697
3 695 698 767
3 767 698 770
3 771 768 769
3 772 771 769
3 697 771 699
3 768 771 697
3 698 700 770
3 770 700 773
3 774 771 772
3 775 774 772
3 699 774 701
3 771 774 699
3 700 702 773
3 773 702 776
3 777 774 775
3 778 777 775
3 701 777 703
3 774 777 701
3 702 705 776
3 776 705 779
3 780 781 782
3 778 781 780
3 777 778 780
3 777 780 707
3 777 707 706
3 703 777 706
3 705 709 779
3 779 709 783
3 784 785 786
3 784 787 788
3 785 784 788
3 782 788 787
3 782 787 780
3 780 787 789
3 707 789 710
3 780 789 707
3 790 712 791
3 790 783 712
3 783 709 712
3 791 792 793
3 790 791 793
3 792 794 795
3 793 792 795
3 786 795 794
3 786 794 784
3 784 794 796
3 787 784 797
3 797 784 796
3 714 797 715
3 714 789 797
3 789 787 797
3 710 789 714
3 791 717 798
3 712 717 791
3 792 791 799
3 799 791 798
3 794 792 800
3 800 792 799
3 719 800 720
3 719 796 800
3 796 794 800
3 722 796 719
3 797 796 722
3 715 797 722
3 717 723 798
3 725 798 723
3 799 798 725
3 727 799 725
3 800 799 727
3 720 800 727
3 801 802 803
3 801 804 805
3 803 804 801
3 804 806 805
3 807 802 801
3 808 802 807
3 731 730 807
3 731 807 805
3 805 807 801
3 805 806 809
3 805 809 731
3 731 809 732
3 809 734 732
3 810 734 809
3 811 808 807
3 812 808 811
3 730 736 811
3 807 730 811
3 734 810 738
3 810 813 738
3 814 812 811
3 815 812 814
3 736 739 816
3 736 816 811
3 811 816 814
3 739 740 817
3 816 739 817
3 740 818 817
3 740 738 818
3 738 813 818
3 819 815 814
3 820 815 819
3 816 821 814
3 821 819 814
3 817 822 816
3 822 821 816
3 823 817 818
3 823 824 817
3 824 822 817
3 823 825 824
3 826 820 819
3 827 820 826
3 821 828 819
3 828 826 819
3 822 829 821
3 829 828 821
3 824 830 822
3 830 829 822
3 831 824 825
3 830 824 831
3 826 832 827
3 832 833 834
3 832 826 833
3 826 828 833
3 829 835 828
3 835 833 828
3 830 836 829
3 836 835 829
3 837 830 831
3 836 830 837
3 838 834 833
3 839 834 838
3 835 840 833
3 840 838 833
3 836 841 835
3 841 840 835
3 842 836 837
3 841 836 842
3 838 843 839
3 843 844 845
3 843 838 844
3 838 840 844
3 841 846 840
3 846 844 840
3 847 841 842
3 847 848 841
3 848 846 841
3 847 849 848
3 743 845 844
3 743 742 845
3 742 850 845
3 744 743 844
3 846 744 844
3 746 744 846
3 848 746 846
3 848 748 746
3 848 849 748
3 849 851 748
3 852 853 854
3 852 854 850
3 852 850 750
3 750 850 742
3 748 851 855
3 751 748 855
3 855 752 751
3 856 752 855
3 857 853 852
3 858 853 857
3 750 753 857
3 852 750 857
3 752 856 754
3 856 859 754
3 757 858 857
3 757 756 858
3 756 860 858
3 753 757 857
3 861 758 754
3 861 754 862
3 862 754 859
3 758 861 759
3 756 761 860
3 860 761 863
3 861 862 864
3 864 759 861
3 864 865 759
3 865 762 759
3 761 763 863
3 863 763 866
3 762 865 764
3 865 867 764
3 763 765 866
3 866 765 868
3 869 870 871
3 869 867 870
3 869 766 867
3 766 764 867
3 765 767 868
3 868 767 872
3 873 869 871
3 874 873 871
3 766 873 769
3 869 873 766
3 767 770 872
3 872 770 875
3 876 873 874
3 877 876 874
3 769 876 772
3 873 876 769
3 770 773 875
3 875 773 878
3 879 880 881
3 877 880 879
3 877 879 876
3 876 879 882
3 772 882 775
3 876 882 772
3 773 776 878
3 878 776 883
3 884 879 881
3 885 884 881
3 882 879 886
3 886 879 884
3 775 886 778
3 882 886 775
3 776 779 883
3 883 779 887
3 888 884 885
3 889 888 885
3 781 888 782
3 781 886 888
3 886 884 888
3 778 886 781
3 890 783 891
3 890 887 783
3 887 779 783
3 891 892 893
3 890 891 893
3 892 894 895
3 893 892 895
3 894 786 785
3 894 785 895
3 895 785 896
3 889 788 888
3 889 896 788
3 896 785 788
3 782 888 788
3 783 790 891
3 793 891 790
3 892 891 793
3 795 892 793
3 894 892 795
3 786 894 795
3 803 897 898
3 802 897 803
3 804 803 899
3 803 898 899
3 899 806 804
3 900 806 899
3 802 808 897
3 897 808 901
3 806 900 902
3 809 806 902
3 902 810 809
3 903 810 902
3 808 812 901
3 901 812 904
3 810 903 813
3 903 905 813
3 812 815 904
3 904 815 906
3 813 905 818
3 905 907 818
3 815 820 906
3 906 820 908
3 818 907 909
3 823 818 909
3 909 825 823
3 910 825 909
3 820 827 908
3 908 827 911
3 825 910 831
3 910 912 831
3 913 827 832
3 913 914 827
3 914 911 827
3 832 834 913
3 831 912 837
3 912 915 837
3 913 916 914
3 916 913 834
3 916 834 917
3 917 834 839
3 837 915 842
3 915 918 842
3 839 919 917
3 843 919 839
3 919 843 845
3 920 919 845
3 842 918 921
3 847 842 921
3 921 849 847
3 922 849 921
3 845 850 920
3 920 850 923
3 849 922 851
3 922 924 851
3 854 925 926
3 853 925 854
3 923 850 854
3 926 923 854
3 851 924 927
3 855 851 927
3 927 856 855
3 928 856 927
3 853 858 925
3 925 858 929
3 856 928 859
3 928 930 859
3 858 860 929
3 929 860 931
3 859 930 862
3 930 932 862
3 860 863 931
3 931 863 933
3 934 864 862
3 934 862 935
3 935 862 932
3 864 934 865
3 863 866 933
3 933 866 936
3 937 934 935
3 938 937 935
3 865 937 867
3 934 937 865
3 866 868 936
3 936 868 939
3 870 937 938
3 870 938 871
3 871 938 940
3 867 937 870
3 868 872 939
3 939 872 941
3 942 943 944
3 942 940 943
3 942 874 940
3 874 871 940
3 945 875 946
3 945 941 875
3 941 872 875
3 946 947 948
3 945 946 948
3 947 949 950
3 948 947 950
3 949 951 952
3 950 949 952
3 944 952 951
3 944 951 942
3 942 951 953
3 874 953 877
3 942 953 874
3 946 878 954
3 875 878 946
3 947 946 955
3 955 946 954
3 949 947 956
3 956 947 955
3 951 949 957
3 957 949 956
3 880 957 881
3 880 953 957
3 953 951 957
3 877 953 880
3 954 883 958
3 878 883 954
3 955 954 959
3 959 954 958
3 956 955 960
3 960 955 959
3 957 956 961
3 961 956 960
3 881 961 885
3 957 961 881
3 958 887 962
3 883 887 958
3 959 958 963
3 963 958 962
3 960 959 964
3 964 959 963
3 961 960 965
3 965 960 964
3 885 965 889
3 961 965 885
3 887 890 962
3 893 962 890
3 963 962 893
3 895 963 893
3 964 963 895
3 896 964 895
3 965 964 896
3 889 965 896
3 898 897 966
3 898 967 899
3 966 967 898
3 899 967 900
3 966 901 968
3 897 901 966
3 967 966 969
3 969 966 968
3 900 970 902
3 900 967 970
3 967 969 970
3 902 970 903
3 968 971 972
3 968 901 971
3 901 904 971
3 969 968 972
3 973 969 972
3 970 969 973
3 974 970 973
3 974 903 970
3 974 975 903
3 975 905 903
3 904 906 971
3 971 906 976
3 905 975 907
3 975 977 907
3 906 908 976
3 976 908 978
3 907 977 979
3 909 907 979
3 979 910 909
3 980 910 979
3 908 911 978
3 978 911 981
3 910 980 912
3 980 982 912
3 911 914 981
3 981 914 983
3 912 982 915
3 982 984 915
3 914 985 983
3 916 985 914
3 985 916 917
3 986 985 917
3 915 984 918
3 984 987 918
3 917 988 986
3 919 988 917
3 920 989 990
3 920 990 919
3 919 990 988
3 989 991 992
3 990 989 992
3 921 991 993
3 921 987 991
3 921 918 987
3 992 991 987
3 921 993 922
3 989 923 994
3 920 923 989
3 991 989 995
3 995 989 994
3 993 991 996
3 996 991 995
3 922 996 924
3 993 996 922
3 926 997 998
3 925 997 926
3 994 923 926
3 994 926 999
3 999 926 998
3 995 994 999
3 1000 995 999
3 1000 1001 1002
3 1000 1002 995
3 995 1002 996
3 924 1003 927
3 924 996 1003
3 996 1002 1003
3 927 1003 928
3 925 929 997
3 997 929 1004
3 1005 1002 1001
3 1006 1005 1001
3 1003 1002 1007
3 1007 1002 1005
3 928 1007 930
3 1003 1007 928
3 929 931 1004
3 1004 931 1008
3 1009 1005 1006
3 1010 1009 1006
3 1007 1005 1011
3 1011 1005 1009
3 930 1011 932
3 1007 1011 930
3 931 933 1008
3 1008 933 1012
3 1013 1009 1010
3 1014 1013 1010
3 1011 1009 1015
3 1015 1009 1013
3 932 1015 935
3 1011 1015 932
3 933 936 1012
3 1012 936 1016
3 1017 1013 1014
3 1018 1017 1014
3 1015 1013 1019
3 1019 1013 1017
3 935 1019 938
3 1015 1019 935
3 1020 939 1021
3 1020 1016 939
3 1016 936 939
3 1021 1022 1023
3 1020 1021 1023
3 1022 1024 1025
3 1023 1022 1025
3 1018 1025 1024
3 1018 1024 1017
3 1017 1024 1026
3 1019 1017 1027
3 1027 1017 1026
3 938 1027 940
3 1019 1027 938
3 1021 941 1028
3 939 941 1021
3 1022 1021 1029
3 1029 1021 1028
3 1024 1022 1030
3 1030 1022 1029
3 1026 1024 1031
3 1031 1024 1030
3 943 1031 944
3 943 1027 1031
3 1027 1026 1031
3 940 1027 943
3 941 945 1028
3 948 1028 945
3 1029 1028 948
3 950 1029 948
3 1030 1029 950
3 952 1030 950
3 1031 1030 952
3 944 1031 952
3 972 971 1032
3 972 1033 973
3 1032 1033 972
3 973 1034 974
3 1033 1034 973
3 974 1034 975
3 1032 976 1035
3 971 976 1032
3 1033 1032 1036
3 1036 1032 1035
3 1034 1033 1037
3 1037 1033 1036
3 975 1037 977
3 1034 1037 975
3 1035 978 1038
3 976 978 1035
3 1036 1035 1039
3 1039 1035 1038
3 1037 1036 1040
3 1040 1036 1039
3 977 1041 979
3 977 1037 1041
3 1037 1040 1041
3 979 1041 980
3 1038 981 1042
3 978 981 1038
3 1039 1038 1043
3 1043 1038 1042
3 1040 1039 1044
3 1044 1039 1043
3 1041 1040 1045
3 1045 1040 1044
3 980 1045 982
3 1041 1045 980
3 1042 983 1046
3 981 983 1042
3 1043 1042 1047
3 1047 1042 1046
3 1044 1043 1048
3 1048 1043 1047
3 1045 1044 1049
3 1049 1044 1048
3 982 1049 984
3 1045 1049 982
3 983 985 1046
3 986 1046 985
3 986 1050 1046
3 1050 1047 1046
3 1048 1047 1051
3 1051 1047 1050
3 1049 1048 1052
3 1052 1048 1051
3 984 1052 987
3 1049 1052 984
3 986 988 1050
3 990 1050 988
3 1051 1050 990
3 992 1051 990
3 1052 1051 992
3 987 1052 992
3 998 997 1053
3 998 1054 999
3 1053 1054 998
3 999 1055 1000
3 1054 1055 999
3 1000 1055 1001
3 1053 1004 1056
3 997 1004 1053
3 1054 1053 1057
3 1057 1053 1056
3 1055 1054 1058
3 1058 1054 1057
3 1001 1058 1006
3 1055 1058 1001
3 1056 1008 1059
3 1004 1008 1056
3 1057 1056 1060
3 1060 1056 1059
3 1058 1057 1061
3 1061 1057 1060
3 1006 1061 1010
3 1058 1061 1006
3 1059 1012 1062
3 1008 1012 1059
3 1060 1059 1063
3 1063 1059 1062
3 1061 1060 1064
3 1064 1060 1063
3 1010 1064 1014
3 1061 1064 1010
3 1062 1016 1065
3 1012 1016 1062
3 1063 1062 1066
3 1066 1062 1065
3 1064 1063 1067
3 1067 1063 1066
3 1014 1067 1018
3 1064 1067 1014
3 1016 1020 1065
3 1023 1065 1020
3 1066 1065 1023
3 1025 1066 1023
3 1067 1066 1025
3 1018 1067 1025
