# vtk DataFile Version 3.0
this file was written using fslvtkio
ASCII
DATASET POLYDATA
POINTS 642 float
108.594 121.278 63.2529
85.904 120.456 63.4802
90.3979 108.4 61.9307
105.183 108.259 63.197
106.113 116.018 79.5991
103.884 109.722 49.7363
92.5358 108.687 49.2115
89.3726 116.109 79.6293
96.8669 122.67 71.3347
97.5439 109.037 67.8101
97.998 104.58 52.9244
97.0115 119.974 59.6049
91.5694 121.683 79.0306
102.834 121.704 78.456
97.4855 117.4 81.8684
93.8004 111.561 76.085
101.288 110.446 76.747
95.4585 113.361 55.8666
98.5013 106.148 46.996
99.5262 114.047 55.478
93.4175 103.626 48.1164
102.074 103.059 48.4587
106.296 113.511 71.7854
109.978 118.937 72.565
106.744 115.672 63.2235
105.89 109.181 55.847
104.121 116.923 57.9228
86.6966 118.757 72.8147
89.7409 113.266 71.1357
90.8214 116.662 62.1472
91.5767 116.3 57.4466
90.0137 107.471 54.2612
103.269 122.873 60.8085
105.427 124.193 70.3872
96.8764 124.306 65.2755
91.1845 122.217 61.4525
89.0216 124.206 70.5602
102.569 105.954 57.6762
96.2774 103.785 62.7697
101.233 108.121 66.4025
92.6341 104.036 56.4023
95.6601 109.647 64.5033
97.0594 121.651 78.1889
100.929 121.18 82.8769
94.3081 121.507 82.6198
103.752 115.833 81.9667
107.347 120.461 80.9968
99.7257 120.721 74.8278
94.3489 120.843 74.5462
87.4986 119.958 81.3808
92.2602 116.206 82.3927
95.0151 113.694 80.208
99.4716 113.589 80.1211
97.1848 112.136 76.9336
103.398 112.494 78.8912
92.3385 113.498 78.3805
96.1491 112.123 71.4384
98.7853 112.285 71.5117
96.2543 110.041 49.7173
99.2453 109.895 50.0456
97.5794 112.341 55.8586
101.631 111.682 50.8959
101.247 107.914 47.5279
95.4509 106.709 47.6346
93.9951 110.778 50.7382
95.7212 117.255 58.1193
99.021 117.802 57.6549
98.2426 105.247 47.7031
101.763 103.735 45.2698
97.0031 103.287 46.2163
103.2 105.794 47.7994
99.9512 102.422 50.2707
95.5271 102.916 49.977
92.4451 105.395 46.6478
107.317 116.74 72.4262
108.838 117.819 67.0575
106.182 114.634 67.4803
108.919 118.584 62.9306
109.374 120.568 67.0063
109.265 118.889 77.4746
106.228 114.614 76.0953
105.522 110.567 67.3376
106.044 111.298 63.8997
105.772 112.565 60.0739
105.813 116.394 60.4344
103.313 112.603 56.7213
107.72 119.464 60.073
106.05 108.678 59.6869
105.172 108.764 52.0803
102.273 112.792 54.0691
88.7133 116.284 72.0205
89.9222 114.603 66.6658
88.1799 117.631 66.4596
90.1963 111.777 62.5112
89.972 110.199 66.7045
89.891 115.152 75.8904
85.8246 118.288 78.0137
85.5707 120.402 67.5355
86.353 118.183 63.4077
91.5259 116.689 60.1238
91.5096 112.072 58.5634
91.2248 111.625 55.149
88.8456 107.541 57.8862
87.1557 118.279 60.4494
91.8103 111.765 52.467
90.7924 107.93 50.6753
104.482 124.875 65.6194
101.087 125.273 67.6199
100.554 124.409 63.8279
96.5548 124.427 68.028
100.999 124.096 71.2933
107.798 123.65 66.6856
106.461 122.537 62.2298
100.229 121.316 60.3384
96.8035 122.066 62.321
93.3759 124.411 63.5874
92.1911 125.909 67.2153
89.7381 124.874 65.6922
92.696 124.419 71.3501
94.2837 121.093 60.3913
87.7246 121.805 62.1476
86.1994 123.693 66.6463
100.523 106.703 60.0303
100.981 104.938 63.5749
102.906 105.903 62.4676
99.1066 107.917 67.3447
97.2118 104.25 65.5088
96.9053 104.135 57.9668
100.192 105.294 54.483
104.08 106.775 59.4876
102.165 109.15 64.3446
93.5906 106.079 61.8283
94.0415 103.425 64.1185
94.0094 102.318 59.6984
96.277 108.245 66.5603
94.17 108.879 63.2003
92.6278 106.738 59.3286
94.8296 103.086 54.5977
107.952 121.254 76.9912
103.965 121.106 73.9106
108.236 121.313 70.9743
104.756 120.477 58.7746
101.348 119.293 58.2626
101.777 115.877 56.1654
100.971 111.168 71.0766
104.576 111.392 74.6606
104.442 110.614 70.3053
105.144 106.533 56.5927
104.898 105.232 51.8676
102.651 104.114 52.9942
90.4078 120.943 73.4682
87.5697 120.899 77.748
86.7976 121.568 70.6618
90.1566 119.734 58.7388
93.9796 114.606 56.14
93.44 119.028 58.0383
91.9032 110.529 69.5654
91.3187 112.263 73.7847
94.6936 111.536 70.3156
92.0763 102.341 52.0475
91.3562 104.705 50.2587
90.3312 104.653 54.65
98.6373 121.638 80.5273
97.3751 121.35 82.6524
95.4468 121.591 80.4227
96.0547 119.214 82.9969
99.658 118.909 82.6292
101.859 121.403 80.7959
99.8924 121.79 78.2589
94.4259 121.508 77.9538
92.4947 121.685 80.5424
102.978 118.063 83.1786
104.281 120.673 82.5647
105.873 117.962 82.3223
104.939 121.174 80.2028
100.912 116.588 82.375
105.286 115.667 80.5635
107.861 117.822 80.6832
98.4844 121.315 76.3181
95.6831 121.369 76.2447
96.996 120.828 74.3163
93.0318 121.095 76.6998
101.39 121.069 76.661
98.3733 121.493 72.6005
95.6318 121.682 72.8806
91.2006 120.631 82.6778
93.0339 118.712 83.3271
90.7042 119.072 82.6964
94.7019 116.628 83.158
88.9972 121.409 80.4909
88.6829 117.832 81.3786
90.5093 116.945 81.5253
97.1185 114.19 79.9432
98.469 113.467 78.0023
95.9571 112.797 78.58
99.1159 111.689 77.0118
99.8701 112.412 77.9557
98.5959 115.782 81.0135
95.9689 115.358 81.67
94.4513 112.505 78.4065
95.3812 111.444 77.2088
101.537 112.553 79.4949
101.109 114.54 81.0724
103.579 113.507 81.1209
102.171 111.241 78.0266
105.037 113.981 79.2481
93.7797 115.112 81.3554
93.3472 113.747 79.4549
91.6515 114.858 80.6425
93.2713 112.43 77.2251
90.8657 115.027 79.3712
96.3234 111.893 74.7103
98.367 111.588 74.8022
97.2696 111.692 72.0958
99.8352 111.294 74.7529
95.2027 111.886 74.3335
97.1729 111.5 69.4289
98.0422 111.677 69.4419
97.8327 109.531 49.6233
98.6034 110.734 52.6597
96.7158 111.277 51.8907
98.3913 112.919 55.5552
99.4051 112.237 53.3492
98.7507 108.265 48.3142
97.4189 108.573 48.3104
95.5567 111.987 53.0429
96.5994 113.228 55.6562
99.9838 110.784 50.9323
99.9399 108.671 48.7185
101.292 109.836 49.2685
99.8308 107.023 46.8681
100.59 112.663 53.357
102.882 111.028 50.3444
102.588 108.758 48.921
95.9132 107.976 48.186
95.1256 110.311 49.7748
94.5522 108.778 48.7562
94.7849 111.749 52.8976
97.3302 106.034 47.4093
93.597 107.645 48.2926
92.9689 109.879 50.0108
96.9142 114.831 57.3144
98.3259 114.743 57.2932
97.5606 116.491 58.5774
99.6814 116.43 56.6423
95.3289 115.706 56.8738
96.2041 118.617 59.2883
97.9879 118.673 59.1883
100.051 104.243 47.3208
99.4822 103.413 45.745
97.7753 104.48 47.0404
97.8983 104.385 46.3677
99.7045 104.842 45.1406
101.942 103.48 47.5419
100.323 103.714 48.7265
95.9596 104.48 47.5243
95.1162 104.412 47.2999
101.174 106.303 44.8786
102.589 105.244 46.0322
102.015 107.053 46.8352
103.906 104.43 48.0688
103.964 107.654 48.7531
98.8531 103.845 48.5569
96.7936 104.587 48.2466
97.5673 103.525 49.0586
94.5619 103.382 49.1157
101.208 102.641 50.4029
98.3995 103.575 51.094
97.3478 103.506 51.1156
94.2197 104.548 45.55
95.7963 105.02 45.5222
94.3428 105.973 46.4423
92.2738 104.166 47.1642
92.514 106.856 48.0889
108.187 117.578 69.5869
107.439 116.597 67.3566
106.761 116.462 69.4436
106.602 115 65.3965
107.65 116.54 65.0207
108.889 118.72 69.5306
108.685 117.627 72.5615
106.436 115.372 72.1485
106.163 114.257 69.7014
108.696 118.303 65.0236
108.661 119.377 67.0552
109.142 119.457 64.6997
109.212 119.959 69.5181
107.865 117.012 63.2701
109.496 119.416 62.93
109.756 120.643 64.7696
108.068 117.929 75.0034
106.916 116.2 74.6067
106.94 117.232 76.6534
106.197 114.111 74.0252
110.363 118.79 75.4092
107.757 117.354 78.715
106.494 115.125 77.9337
106.163 112.39 67.9452
105.745 112.94 65.8705
105.971 111.114 65.6247
105.851 113.442 63.7023
106.436 112.055 69.5701
105.808 109.262 65.246
106.199 109.717 63.4881
105.795 114.996 59.8834
104.943 114.828 58.4146
105.162 113.293 58.1421
103.408 114.692 57.3532
105.084 116.544 58.7563
106.567 116.694 61.9443
106.304 114.405 61.7019
105.481 111.344 58.4524
104.451 110.691 56.2812
106.542 118.123 59.7719
107.731 117.987 61.4949
108.441 119.171 61.1404
106.204 117.982 58.7227
108.84 120.24 61.8598
105.607 111.858 62.01
106.389 110.742 59.9544
106.41 110.555 61.7835
105.882 109.323 57.9173
105.605 108.606 61.5174
104.069 110.644 54.3276
101.488 113.064 55.6297
105.135 111.234 52.4684
102.328 114.969 56.3386
105.861 108.531 53.6084
104.556 109.476 50.7996
104.407 111.716 51.459
89.0973 115.631 69.4923
89.4367 116.555 66.818
88.0987 116.843 69.322
89.479 117.547 64.3034
89.7099 115.536 64.4527
89.8504 114.035 68.9597
89.59 115.03 72.1527
87.5107 117.515 71.5704
87.2309 118.149 68.8117
90.1224 113.158 64.7435
90.2464 112.449 66.7371
89.9003 110.794 64.7441
90.1415 111.854 68.5312
90.4379 113.864 62.8273
89.3444 109.785 62.451
89.9502 109.373 64.3912
89.0795 116.481 74.8342
87.699 117.987 74.752
88.1886 117.39 76.9707
85.7401 118.422 75.0523
89.7207 114.162 73.7535
89.3869 115.726 77.7987
87.9871 117.748 79.5786
86.7358 119.619 67.7324
87.5741 118.636 65.4985
86.1747 119.812 65.3729
89.4778 117.457 63.3753
86.8021 119.641 69.848
85.5304 120.46 65.1439
85.8824 119.087 63.1729
92.189 114.841 59.4567
92.969 111.792 57.1291
93.0631 114.428 58.2471
90.5388 109.121 54.4912
90.7588 109.19 56.7711
91.0123 114.404 60.6791
90.8543 117.527 61.2646
92.0779 116.202 58.5092
93.2231 113.876 56.5218
89.5607 109.227 58.5534
90.8581 111.753 60.4357
89.0369 109.687 60.5835
88.9345 107.221 55.9591
89.7253 108.042 59.983
88.1883 117.27 61.3217
88.8107 117.587 59.8166
86.8758 118.062 61.3237
89.43 118.072 58.8695
86.3232 119.061 61.8751
91.1081 112.059 53.7066
90.3036 109.689 52.9039
90.6219 109.966 51.7492
90.2547 107.718 52.2177
93.1368 113.773 55.5745
91.3761 110.425 50.648
91.5001 108.513 49.7839
103.029 125.283 66.7756
100.959 125.272 65.3425
102.618 124.668 64.3287
98.7026 124.476 64.7543
98.9278 125.243 66.7186
102.857 124.927 69.0459
104.742 124.961 68.1849
103.759 123.556 63.638
102.018 123.135 62.7786
98.7915 125.046 68.3487
100.637 124.944 69.6241
98.7043 124.341 69.9953
103.154 124.232 70.8869
96.3199 124.688 66.7381
96.3164 124.151 69.9379
98.7896 123.179 71.2477
106.002 124.382 66.6028
105.747 123.785 64.305
106.941 123.116 64.5683
105.127 123.369 62.11
106.954 124.145 68.8996
108.404 122.263 64.9059
107.858 121.949 62.4681
100.293 122.799 62.0628
98.8136 123.2 63.012
98.5787 121.837 61.5767
97.0596 123.445 63.6982
101.634 122.049 60.5381
98.7952 120.645 59.7194
96.792 121.095 60.6197
93.0259 125.271 64.962
90.906 125.68 66.2319
91.3535 124.512 63.7535
89.2113 125.333 68.0883
90.5135 125.691 68.9661
94.2667 125.497 66.753
95.2677 124.7 64.9755
91.8229 122.766 62.7321
89.7341 123.414 63.9737
92.3832 125.767 69.2185
94.1274 125.308 68.3115
94.4597 124.711 69.8002
90.7727 124.808 70.5086
94.9373 123.438 71.529
95.2354 123.421 63.3158
93.6287 122.595 62.4339
95.4269 122.273 61.4674
92.8453 122.08 60.3079
95.4516 120.311 60.071
87.8321 123.539 64.4537
87.9181 124.369 66.3291
86.5419 122.947 64.8215
87.7965 124.101 68.6394
89.2985 122.569 62.4416
86.9264 121.08 62.3935
85.7841 122.04 64.6587
100.869 106.465 63.2149
101.372 105.398 63.4497
102.099 104.54 61.8127
102.722 106.747 64.5695
101.864 106.403 65.2107
98.5206 106.138 63.6078
98.2903 106.87 61.1803
101.961 105.912 58.7677
103.196 105.093 60.7143
100.591 105.644 66.4899
99.2075 104.449 65.3414
98.6083 105.929 66.3273
96.7033 103.327 64.6949
100.291 107.656 67.1824
98.0714 108.694 67.2122
97.4068 106.015 66.5708
98.7602 105.721 58.1955
100.662 105.899 57.3666
99.1691 105.073 56.1123
101.367 105.854 55.779
96.3553 104.447 59.9299
97.3813 104.1 55.6919
98.7944 104.288 54.2166
103.299 106.483 61.203
102.408 107.584 63.1684
102.547 107.834 61.8205
101.626 108.942 65.4559
103.355 105.685 58.9467
104.107 107.764 61.1559
104.148 108.251 64.1139
93.1183 104.205 63.584
93.3385 101.643 62.8441
92.4953 102.906 60.9993
95.1402 103.181 61.4963
95.5261 103.291 63.9899
94.4292 106.135 64.0616
94.3109 106.924 62.9929
92.842 104.771 59.3876
93.0485 103.162 58.2655
95.4419 103.623 65.5486
95.0432 105.716 65.3489
96.3845 106.158 66.3822
95.6448 108.314 65.5955
96.9845 109.339 67.2451
95.158 108.312 61.9274
93.9024 106.971 60.2743
94.478 108.74 60.6772
92.4016 105.373 57.5729
95.2978 109.798 63.7792
91.6723 108.373 62.8673
92.0451 107.816 60.0966
94.2266 103.89 57.3904
95.3747 102.745 59.3264
95.7012 104.042 56.217
93.5648 103.428 55.7036
96.5694 103.672 53.6643
105.936 120.632 75.4775
106.186 121.428 72.9185
107.692 120.742 73.773
106.887 122.685 70.4381
104.53 122.296 71.646
103.465 121.295 75.9216
105.291 121.628 77.9185
109.704 120.49 75.01
109.679 120.767 71.77
102.687 122.513 71.9893
101.749 121.068 74.2084
100.264 122.067 72.3959
107.418 121.394 78.8012
110.299 120.489 77.4957
108.748 119.197 79.2329
108.881 121.44 69.0504
108.298 123.038 68.3421
109.054 122.134 66.4236
102.975 119.999 58.3752
101.812 117.736 56.8949
103.411 118.423 57.2862
100.239 114.956 56.0111
100.615 117.338 56.9439
102.297 121.004 59.3131
104.163 121.936 60.0861
104.935 118.599 57.8795
103.036 116.515 56.89
100.331 118.802 57.7132
101.031 120.754 58.8701
99.6945 119.652 58.8391
105.766 121.704 60.2683
106.265 119.814 59.3629
107.261 120.989 60.9248
101.06 113.909 55.5201
100.991 113.333 54.377
102.249 112.388 51.9994
102.573 110.989 73.4518
104.523 110.639 72.6241
102.318 110.486 70.6491
105.683 111.805 71.2576
105.491 112.398 73.3127
103.248 110.506 75.5805
101.311 111.18 74.268
100.265 110.843 67.7156
101.647 110.802 68.2173
105.054 112.658 75.4008
103.739 111.64 76.9758
105.085 113.245 77.3463
99.6884 112.237 71.1291
99.4843 110.729 67.9864
98.7293 111.381 68.409
102.709 109.117 67.1921
105.345 109.904 69.0194
105.041 108.868 66.6382
104.738 105.611 54.0425
103.821 104.255 52.0093
103.534 105.433 54.5801
102.835 103.029 50.6427
103.769 103.82 49.802
105.933 107.008 53.7586
105.528 107.596 55.9852
103.708 106.34 56.5777
102.741 104.878 55.4403
104.003 105.41 49.8041
105.12 106.903 51.6659
104.786 107.195 49.7783
105.87 107.646 57.6993
104.977 105.915 57.9866
105.385 107.405 59.7168
101.704 103.461 53.7472
101.598 102.671 51.6676
99.9628 102.851 52.79
88.9344 120.772 75.1943
87.6808 120.789 74.1079
88.5294 121.74 72.3204
85.9186 120.523 71.8299
86.9049 120.098 75.1407
89.0858 121.272 78.7521
90.8156 121.07 76.6516
89.6395 122.815 71.6642
87.3792 123.049 70.2029
84.1284 120.473 77.3342
86.0749 121.778 79.1284
84.9701 119.386 79.9164
92.3419 121.036 73.8949
91.4265 122.761 71.9496
93.6736 122.218 72.3627
86.052 122.886 68.185
86.1669 121.16 68.9188
85.7163 121.766 66.3473
91.7854 117.591 57.1408
93.253 116.972 56.8468
91.9704 119.306 58.2232
94.4867 116.825 56.7097
94.5564 114.094 55.8057
92.9311 115.395 56.613
90.1787 117.909 57.6546
90.6456 121.404 59.8072
92.6136 120.88 59.3876
93.947 112.679 53.2739
92.8471 113.433 53.8504
92.9585 111.369 51.7952
88.6553 119.279 59.4365
89.2866 120.897 60.6468
87.3633 120.255 60.7729
93.7977 120.305 59.0344
94.5862 118.125 57.9593
94.8462 119.089 59.3269
91.2568 111.113 71.9402
93.3358 111.777 72.5275
93.4747 110.624 69.9086
94.228 111.766 73.6808
92.6051 111.601 74.647
90.3685 112.779 72.7446
90.3034 111.657 70.4893
94.3307 110.415 67.1469
95.7876 111.04 66.9123
91.7075 112.34 76.4536
90.9795 113.327 75.221
90.883 114.043 77.4306
90.491 109.758 68.4805
93.126 109.226 66.4017
91.2962 108.82 65.6494
96.3269 111.309 67.157
95.4057 111.822 70.8931
96.5558 111.392 68.2561
91.3867 103.088 50.9458
90.9006 104.297 52.2363
91.0206 103.239 53.2284
90.2238 105.662 54.1004
90.3405 105.865 52.1021
92.1086 103.753 49.1146
92.7499 102.693 49.7604
91.7876 102.866 54.8302
91.0983 104.395 55.3689
90.8592 105.933 50.2447
92.1052 104.888 48.3629
91.6649 106.27 48.6199
93.3625 102.296 51.055
92.917 102.275 53.3545
95.033 102.659 52.4736
90.8145 105.719 57.0849
89.8668 105.771 56.556
90.7729 106.486 58.4826
POLYGONS 1280  5120
3 164 162 163
3 163 44 164
3 162 43 163
3 164 42 162
3 166 165 163
3 163 43 166
3 165 44 163
3 166 14 165
3 168 167 162
3 162 42 168
3 167 43 162
3 168 13 167
3 170 169 164
3 164 44 170
3 169 42 164
3 170 12 169
3 173 171 172
3 172 46 173
3 171 43 172
3 173 45 171
3 167 174 172
3 172 43 167
3 174 46 172
3 167 13 174
3 175 166 171
3 171 45 175
3 166 43 171
3 175 14 166
3 177 176 173
3 173 46 177
3 176 45 173
3 177 4 176
3 180 178 179
3 179 48 180
3 178 42 179
3 180 47 178
3 169 181 179
3 179 42 169
3 181 48 179
3 169 12 181
3 182 168 178
3 178 47 182
3 168 42 178
3 182 13 168
3 184 183 180
3 180 48 184
3 183 47 180
3 184 8 183
3 187 185 186
3 186 50 187
3 185 44 186
3 187 49 185
3 165 188 186
3 186 44 165
3 188 50 186
3 165 14 188
3 189 170 185
3 185 49 189
3 170 44 185
3 189 12 170
3 191 190 187
3 187 50 191
3 190 49 187
3 191 7 190
3 194 192 193
3 193 53 194
3 192 52 193
3 194 51 192
3 196 195 193
3 193 52 196
3 195 53 193
3 196 16 195
3 198 197 192
3 192 51 198
3 197 52 192
3 198 14 197
3 200 199 194
3 194 53 200
3 199 51 194
3 200 15 199
3 203 201 202
3 202 45 203
3 201 52 202
3 203 54 201
3 197 175 202
3 202 52 197
3 175 45 202
3 197 14 175
3 204 196 201
3 201 54 204
3 196 52 201
3 204 16 196
3 176 205 203
3 203 45 176
3 205 54 203
3 176 4 205
3 208 206 207
3 207 55 208
3 206 51 207
3 208 50 206
3 199 209 207
3 207 51 199
3 209 55 207
3 199 15 209
3 188 198 206
3 206 50 188
3 198 51 206
3 188 14 198
3 210 191 208
3 208 55 210
3 191 50 208
3 210 7 191
3 213 211 212
3 212 57 213
3 211 53 212
3 213 56 211
3 195 214 212
3 212 53 195
3 214 57 212
3 195 16 214
3 215 200 211
3 211 56 215
3 200 53 211
3 215 15 200
3 217 216 213
3 213 57 217
3 216 56 213
3 217 9 216
3 220 218 219
3 219 60 220
3 218 59 219
3 220 58 218
3 222 221 219
3 219 59 222
3 221 60 219
3 222 19 221
3 224 223 218
3 218 58 224
3 223 59 218
3 224 18 223
3 226 225 220
3 220 60 226
3 225 58 220
3 226 17 225
3 229 227 228
3 228 62 229
3 227 59 228
3 229 61 227
3 223 230 228
3 228 59 223
3 230 62 228
3 223 18 230
3 231 222 227
3 227 61 231
3 222 59 227
3 231 19 222
3 233 232 229
3 229 62 233
3 232 61 229
3 233 5 232
3 236 234 235
3 235 64 236
3 234 58 235
3 236 63 234
3 225 237 235
3 235 58 225
3 237 64 235
3 225 17 237
3 238 224 234
3 234 63 238
3 224 58 234
3 238 18 224
3 240 239 236
3 236 64 240
3 239 63 236
3 240 6 239
3 243 241 242
3 242 66 243
3 241 60 242
3 243 65 241
3 221 244 242
3 242 60 221
3 244 66 242
3 221 19 244
3 245 226 241
3 241 65 245
3 226 60 241
3 245 17 226
3 247 246 243
3 243 66 247
3 246 65 243
3 247 11 246
3 250 248 249
3 249 69 250
3 248 68 249
3 250 67 248
3 252 251 249
3 249 68 252
3 251 69 249
3 252 18 251
3 254 253 248
3 248 67 254
3 253 68 248
3 254 21 253
3 256 255 250
3 250 69 256
3 255 67 250
3 256 20 255
3 259 257 258
3 258 70 259
3 257 68 258
3 259 62 257
3 253 260 258
3 258 68 253
3 260 70 258
3 253 21 260
3 230 252 257
3 257 62 230
3 252 68 257
3 230 18 252
3 261 233 259
3 259 70 261
3 233 62 259
3 261 5 233
3 264 262 263
3 263 72 264
3 262 67 263
3 264 71 262
3 255 265 263
3 263 67 255
3 265 72 263
3 255 20 265
3 266 254 262
3 262 71 266
3 254 67 262
3 266 21 254
3 268 267 264
3 264 72 268
3 267 71 264
3 268 10 267
3 271 269 270
3 270 63 271
3 269 69 270
3 271 73 269
3 251 238 270
3 270 69 251
3 238 63 270
3 251 18 238
3 272 256 269
3 269 73 272
3 256 69 269
3 272 20 256
3 239 273 271
3 271 63 239
3 273 73 271
3 239 6 273
3 276 274 275
3 275 76 276
3 274 75 275
3 276 74 274
3 278 277 275
3 275 75 278
3 277 76 275
3 278 24 277
3 280 279 274
3 274 74 280
3 279 75 274
3 280 23 279
3 282 281 276
3 276 76 282
3 281 74 276
3 282 22 281
3 285 283 284
3 284 78 285
3 283 75 284
3 285 77 283
3 279 286 284
3 284 75 279
3 286 78 284
3 279 23 286
3 287 278 283
3 283 77 287
3 278 75 283
3 287 24 278
3 289 288 285
3 285 78 289
3 288 77 285
3 289 0 288
3 292 290 291
3 291 80 292
3 290 74 291
3 292 79 290
3 281 293 291
3 291 74 281
3 293 80 291
3 281 22 293
3 294 280 290
3 290 79 294
3 280 74 290
3 294 23 280
3 296 295 292
3 292 80 296
3 295 79 292
3 296 4 295
3 299 297 298
3 298 82 299
3 297 76 298
3 299 81 297
3 277 300 298
3 298 76 277
3 300 82 298
3 277 24 300
3 301 282 297
3 297 81 301
3 282 76 297
3 301 22 282
3 303 302 299
3 299 82 303
3 302 81 299
3 303 3 302
3 306 304 305
3 305 85 306
3 304 84 305
3 306 83 304
3 308 307 305
3 305 84 308
3 307 85 305
3 308 26 307
3 310 309 304
3 304 83 310
3 309 84 304
3 310 24 309
3 312 311 306
3 306 85 312
3 311 83 306
3 312 25 311
3 315 313 314
3 314 77 315
3 313 84 314
3 315 86 313
3 309 287 314
3 314 84 309
3 287 77 314
3 309 24 287
3 316 308 313
3 313 86 316
3 308 84 313
3 316 26 308
3 288 317 315
3 315 77 288
3 317 86 315
3 288 0 317
3 320 318 319
3 319 87 320
3 318 83 319
3 320 82 318
3 311 321 319
3 319 83 311
3 321 87 319
3 311 25 321
3 300 310 318
3 318 82 300
3 310 83 318
3 300 24 310
3 322 303 320
3 320 87 322
3 303 82 320
3 322 3 303
3 325 323 324
3 324 89 325
3 323 85 324
3 325 88 323
3 307 326 324
3 324 85 307
3 326 89 324
3 307 26 326
3 327 312 323
3 323 88 327
3 312 85 323
3 327 25 312
3 329 328 325
3 325 89 329
3 328 88 325
3 329 5 328
3 332 330 331
3 331 92 332
3 330 91 331
3 332 90 330
3 334 333 331
3 331 91 334
3 333 92 331
3 334 29 333
3 336 335 330
3 330 90 336
3 335 91 330
3 336 28 335
3 338 337 332
3 332 92 338
3 337 90 332
3 338 27 337
3 341 339 340
3 340 94 341
3 339 91 340
3 341 93 339
3 335 342 340
3 340 91 335
3 342 94 340
3 335 28 342
3 343 334 339
3 339 93 343
3 334 91 339
3 343 29 334
3 345 344 341
3 341 94 345
3 344 93 341
3 345 2 344
3 348 346 347
3 347 96 348
3 346 90 347
3 348 95 346
3 337 349 347
3 347 90 337
3 349 96 347
3 337 27 349
3 350 336 346
3 346 95 350
3 336 90 346
3 350 28 336
3 352 351 348
3 348 96 352
3 351 95 348
3 352 7 351
3 355 353 354
3 354 98 355
3 353 92 354
3 355 97 353
3 333 356 354
3 354 92 333
3 356 98 354
3 333 29 356
3 357 338 353
3 353 97 357
3 338 92 353
3 357 27 338
3 359 358 355
3 355 98 359
3 358 97 355
3 359 1 358
3 362 360 361
3 361 101 362
3 360 100 361
3 362 99 360
3 364 363 361
3 361 100 364
3 363 101 361
3 364 31 363
3 366 365 360
3 360 99 366
3 365 100 360
3 366 29 365
3 368 367 362
3 362 101 368
3 367 99 362
3 368 30 367
3 371 369 370
3 370 93 371
3 369 100 370
3 371 102 369
3 365 343 370
3 370 100 365
3 343 93 370
3 365 29 343
3 372 364 369
3 369 102 372
3 364 100 369
3 372 31 364
3 344 373 371
3 371 93 344
3 373 102 371
3 344 2 373
3 376 374 375
3 375 103 376
3 374 99 375
3 376 98 374
3 367 377 375
3 375 99 367
3 377 103 375
3 367 30 377
3 356 366 374
3 374 98 356
3 366 99 374
3 356 29 366
3 378 359 376
3 376 103 378
3 359 98 376
3 378 1 359
3 381 379 380
3 380 105 381
3 379 101 380
3 381 104 379
3 363 382 380
3 380 101 363
3 382 105 380
3 363 31 382
3 383 368 379
3 379 104 383
3 368 101 379
3 383 30 368
3 385 384 381
3 381 105 385
3 384 104 381
3 385 6 384
3 388 386 387
3 387 108 388
3 386 107 387
3 388 106 386
3 390 389 387
3 387 107 390
3 389 108 387
3 390 34 389
3 392 391 386
3 386 106 392
3 391 107 386
3 392 33 391
3 394 393 388
3 388 108 394
3 393 106 388
3 394 32 393
3 397 395 396
3 396 110 397
3 395 107 396
3 397 109 395
3 391 398 396
3 396 107 391
3 398 110 396
3 391 33 398
3 399 390 395
3 395 109 399
3 390 107 395
3 399 34 390
3 401 400 397
3 397 110 401
3 400 109 397
3 401 8 400
3 404 402 403
3 403 112 404
3 402 106 403
3 404 111 402
3 393 405 403
3 403 106 393
3 405 112 403
3 393 32 405
3 406 392 402
3 402 111 406
3 392 106 402
3 406 33 392
3 408 407 404
3 404 112 408
3 407 111 404
3 408 0 407
3 411 409 410
3 410 114 411
3 409 108 410
3 411 113 409
3 389 412 410
3 410 108 389
3 412 114 410
3 389 34 412
3 413 394 409
3 409 113 413
3 394 108 409
3 413 32 394
3 415 414 411
3 411 114 415
3 414 113 411
3 415 11 414
3 418 416 417
3 417 117 418
3 416 116 417
3 418 115 416
3 420 419 417
3 417 116 420
3 419 117 417
3 420 36 419
3 422 421 416
3 416 115 422
3 421 116 416
3 422 34 421
3 424 423 418
3 418 117 424
3 423 115 418
3 424 35 423
3 427 425 426
3 426 109 427
3 425 116 426
3 427 118 425
3 421 399 426
3 426 116 421
3 399 109 426
3 421 34 399
3 428 420 425
3 425 118 428
3 420 116 425
3 428 36 420
3 400 429 427
3 427 109 400
3 429 118 427
3 400 8 429
3 432 430 431
3 431 119 432
3 430 115 431
3 432 114 430
3 423 433 431
3 431 115 423
3 433 119 431
3 423 35 433
3 412 422 430
3 430 114 412
3 422 115 430
3 412 34 422
3 434 415 432
3 432 119 434
3 415 114 432
3 434 11 415
3 437 435 436
3 436 121 437
3 435 117 436
3 437 120 435
3 419 438 436
3 436 117 419
3 438 121 436
3 419 36 438
3 439 424 435
3 435 120 439
3 424 117 435
3 439 35 424
3 441 440 437
3 437 121 441
3 440 120 437
3 441 1 440
3 444 442 443
3 443 124 444
3 442 123 443
3 444 122 442
3 446 445 443
3 443 123 446
3 445 124 443
3 446 39 445
3 448 447 442
3 442 122 448
3 447 123 442
3 448 38 447
3 450 449 444
3 444 124 450
3 449 122 444
3 450 37 449
3 453 451 452
3 452 126 453
3 451 123 452
3 453 125 451
3 447 454 452
3 452 123 447
3 454 126 452
3 447 38 454
3 455 446 451
3 451 125 455
3 446 123 451
3 455 39 446
3 457 456 453
3 453 126 457
3 456 125 453
3 457 9 456
3 460 458 459
3 459 128 460
3 458 122 459
3 460 127 458
3 449 461 459
3 459 122 449
3 461 128 459
3 449 37 461
3 462 448 458
3 458 127 462
3 448 122 458
3 462 38 448
3 464 463 460
3 460 128 464
3 463 127 460
3 464 10 463
3 467 465 466
3 466 130 467
3 465 124 466
3 467 129 465
3 445 468 466
3 466 124 445
3 468 130 466
3 445 39 468
3 469 450 465
3 465 129 469
3 450 124 465
3 469 37 450
3 471 470 467
3 467 130 471
3 470 129 467
3 471 3 470
3 474 472 473
3 473 133 474
3 472 132 473
3 474 131 472
3 476 475 473
3 473 132 476
3 475 133 473
3 476 38 475
3 478 477 472
3 472 131 478
3 477 132 472
3 478 41 477
3 480 479 474
3 474 133 480
3 479 131 474
3 480 40 479
3 483 481 482
3 482 134 483
3 481 132 482
3 483 126 481
3 477 484 482
3 482 132 477
3 484 134 482
3 477 41 484
3 454 476 481
3 481 126 454
3 476 132 481
3 454 38 476
3 485 457 483
3 483 134 485
3 457 126 483
3 485 9 457
3 488 486 487
3 487 136 488
3 486 131 487
3 488 135 486
3 479 489 487
3 487 131 479
3 489 136 487
3 479 40 489
3 490 478 486
3 486 135 490
3 478 131 486
3 490 41 478
3 492 491 488
3 488 136 492
3 491 135 488
3 492 2 491
3 495 493 494
3 494 127 495
3 493 133 494
3 495 137 493
3 475 462 494
3 494 133 475
3 462 127 494
3 475 38 462
3 496 480 493
3 493 137 496
3 480 133 493
3 496 40 480
3 463 497 495
3 495 127 463
3 497 137 495
3 463 10 497
3 500 498 499
3 499 140 500
3 498 139 499
3 500 138 498
3 502 501 499
3 499 139 502
3 501 140 499
3 502 33 501
3 504 503 498
3 498 138 504
3 503 139 498
3 504 13 503
3 506 505 500
3 500 140 506
3 505 138 500
3 506 23 505
3 509 507 508
3 508 47 509
3 507 139 508
3 509 110 507
3 503 182 508
3 508 139 503
3 182 47 508
3 503 13 182
3 398 502 507
3 507 110 398
3 502 139 507
3 398 33 502
3 183 401 509
3 509 47 183
3 401 110 509
3 183 8 401
3 512 510 511
3 511 79 512
3 510 138 511
3 512 46 510
3 505 294 511
3 511 138 505
3 294 79 511
3 505 23 294
3 174 504 510
3 510 46 174
3 504 138 510
3 174 13 504
3 295 177 512
3 512 79 295
3 177 46 512
3 295 4 177
3 515 513 514
3 514 111 515
3 513 140 514
3 515 78 513
3 501 406 514
3 514 140 501
3 406 111 514
3 501 33 406
3 286 506 513
3 513 78 286
3 506 140 513
3 286 23 506
3 407 289 515
3 515 111 407
3 289 78 515
3 407 0 289
3 518 516 517
3 517 143 518
3 516 142 517
3 518 141 516
3 520 519 517
3 517 142 520
3 519 143 517
3 520 19 519
3 522 521 516
3 516 141 522
3 521 142 516
3 522 32 521
3 524 523 518
3 518 143 524
3 523 141 518
3 524 26 523
3 527 525 526
3 526 113 527
3 525 142 526
3 527 66 525
3 521 413 526
3 526 142 521
3 413 113 526
3 521 32 413
3 244 520 525
3 525 66 244
3 520 142 525
3 244 19 520
3 414 247 527
3 527 113 414
3 247 66 527
3 414 11 247
3 530 528 529
3 529 86 530
3 528 141 529
3 530 112 528
3 523 316 529
3 529 141 523
3 316 86 529
3 523 26 316
3 405 522 528
3 528 112 405
3 522 141 528
3 405 32 522
3 317 408 530
3 530 86 317
3 408 112 530
3 317 0 408
3 533 531 532
3 532 61 533
3 531 143 532
3 533 89 531
3 519 231 532
3 532 143 519
3 231 61 532
3 519 19 231
3 326 524 531
3 531 89 326
3 524 143 531
3 326 26 524
3 232 329 533
3 533 61 232
3 329 89 533
3 232 5 329
3 536 534 535
3 535 146 536
3 534 145 535
3 536 144 534
3 538 537 535
3 535 145 538
3 537 146 535
3 538 22 537
3 540 539 534
3 534 144 540
3 539 145 534
3 540 16 539
3 542 541 536
3 536 146 542
3 541 144 536
3 542 39 541
3 545 543 544
3 544 54 545
3 543 145 544
3 545 80 543
3 539 204 544
3 544 145 539
3 204 54 544
3 539 16 204
3 293 538 543
3 543 80 293
3 538 145 543
3 293 22 538
3 205 296 545
3 545 54 205
3 296 80 545
3 205 4 296
3 548 546 547
3 547 125 548
3 546 144 547
3 548 57 546
3 541 455 547
3 547 144 541
3 455 125 547
3 541 39 455
3 214 540 546
3 546 57 214
3 540 144 546
3 214 16 540
3 456 217 548
3 548 125 456
3 217 57 548
3 456 9 217
3 551 549 550
3 550 81 551
3 549 146 550
3 551 130 549
3 537 301 550
3 550 146 537
3 301 81 550
3 537 22 301
3 468 542 549
3 549 130 468
3 542 146 549
3 468 39 542
3 302 471 551
3 551 81 302
3 471 130 551
3 302 3 471
3 554 552 553
3 553 149 554
3 552 148 553
3 554 147 552
3 556 555 553
3 553 148 556
3 555 149 553
3 556 21 555
3 558 557 552
3 552 147 558
3 557 148 552
3 558 25 557
3 560 559 554
3 554 149 560
3 559 147 554
3 560 37 559
3 563 561 562
3 562 88 563
3 561 148 562
3 563 70 561
3 557 327 562
3 562 148 557
3 327 88 562
3 557 25 327
3 260 556 561
3 561 70 260
3 556 148 561
3 260 21 556
3 328 261 563
3 563 88 328
3 261 70 563
3 328 5 261
3 566 564 565
3 565 129 566
3 564 147 565
3 566 87 564
3 559 469 565
3 565 147 559
3 469 129 565
3 559 37 469
3 321 558 564
3 564 87 321
3 558 147 564
3 321 25 558
3 470 322 566
3 566 129 470
3 322 87 566
3 470 3 322
3 569 567 568
3 568 71 569
3 567 149 568
3 569 128 567
3 555 266 568
3 568 149 555
3 266 71 568
3 555 21 266
3 461 560 567
3 567 128 461
3 560 149 567
3 461 37 560
3 267 464 569
3 569 71 267
3 464 128 569
3 267 10 464
3 572 570 571
3 571 152 572
3 570 151 571
3 572 150 570
3 574 573 571
3 571 151 574
3 573 152 571
3 574 27 573
3 576 575 570
3 570 150 576
3 575 151 570
3 576 12 575
3 578 577 572
3 572 152 578
3 577 150 572
3 578 36 577
3 581 579 580
3 580 49 581
3 579 151 580
3 581 96 579
3 575 189 580
3 580 151 575
3 189 49 580
3 575 12 189
3 349 574 579
3 579 96 349
3 574 151 579
3 349 27 574
3 190 352 581
3 581 49 190
3 352 96 581
3 190 7 352
3 584 582 583
3 583 118 584
3 582 150 583
3 584 48 582
3 577 428 583
3 583 150 577
3 428 118 583
3 577 36 428
3 181 576 582
3 582 48 181
3 576 150 582
3 181 12 576
3 429 184 584
3 584 118 429
3 184 48 584
3 429 8 184
3 587 585 586
3 586 97 587
3 585 152 586
3 587 121 585
3 573 357 586
3 586 152 573
3 357 97 586
3 573 27 357
3 438 578 585
3 585 121 438
3 578 152 585
3 438 36 578
3 358 441 587
3 587 97 358
3 441 121 587
3 358 1 441
3 590 588 589
3 589 155 590
3 588 154 589
3 590 153 588
3 592 591 589
3 589 154 592
3 591 155 589
3 592 17 591
3 594 593 588
3 588 153 594
3 593 154 588
3 594 30 593
3 596 595 590
3 590 155 596
3 595 153 590
3 596 35 595
3 599 597 598
3 598 104 599
3 597 154 598
3 599 64 597
3 593 383 598
3 598 154 593
3 383 104 598
3 593 30 383
3 237 592 597
3 597 64 237
3 592 154 597
3 237 17 592
3 384 240 599
3 599 104 384
3 240 64 599
3 384 6 240
3 602 600 601
3 601 120 602
3 600 153 601
3 602 103 600
3 595 439 601
3 601 153 595
3 439 120 601
3 595 35 439
3 377 594 600
3 600 103 377
3 594 153 600
3 377 30 594
3 440 378 602
3 602 120 440
3 378 103 602
3 440 1 378
3 605 603 604
3 604 65 605
3 603 155 604
3 605 119 603
3 591 245 604
3 604 155 591
3 245 65 604
3 591 17 245
3 433 596 603
3 603 119 433
3 596 155 603
3 433 35 596
3 246 434 605
3 605 65 246
3 434 119 605
3 246 11 434
3 608 606 607
3 607 158 608
3 606 157 607
3 608 156 606
3 610 609 607
3 607 157 610
3 609 158 607
3 610 15 609
3 612 611 606
3 606 156 612
3 611 157 606
3 612 28 611
3 614 613 608
3 608 158 614
3 613 156 608
3 614 41 613
3 617 615 616
3 616 95 617
3 615 157 616
3 617 55 615
3 611 350 616
3 616 157 611
3 350 95 616
3 611 28 350
3 209 610 615
3 615 55 209
3 610 157 615
3 209 15 610
3 351 210 617
3 617 95 351
3 210 55 617
3 351 7 210
3 620 618 619
3 619 135 620
3 618 156 619
3 620 94 618
3 613 490 619
3 619 156 613
3 490 135 619
3 613 41 490
3 342 612 618
3 618 94 342
3 612 156 618
3 342 28 612
3 491 345 620
3 620 135 491
3 345 94 620
3 491 2 345
3 623 621 622
3 622 56 623
3 621 158 622
3 623 134 621
3 609 215 622
3 622 158 609
3 215 56 622
3 609 15 215
3 484 614 621
3 621 134 484
3 614 158 621
3 484 41 614
3 216 485 623
3 623 56 216
3 485 134 623
3 216 9 485
3 626 624 625
3 625 161 626
3 624 160 625
3 626 159 624
3 628 627 625
3 625 160 628
3 627 161 625
3 628 31 627
3 630 629 624
3 624 159 630
3 629 160 624
3 630 20 629
3 632 631 626
3 626 161 632
3 631 159 626
3 632 40 631
3 635 633 634
3 634 73 635
3 633 160 634
3 635 105 633
3 629 272 634
3 634 160 629
3 272 73 634
3 629 20 272
3 382 628 633
3 633 105 382
3 628 160 633
3 382 31 628
3 273 385 635
3 635 73 273
3 385 105 635
3 273 6 385
3 638 636 637
3 637 137 638
3 636 159 637
3 638 72 636
3 631 496 637
3 637 159 631
3 496 137 637
3 631 40 496
3 265 630 636
3 636 72 265
3 630 159 636
3 265 20 630
3 497 268 638
3 638 137 497
3 268 72 638
3 497 10 268
3 641 639 640
3 640 102 641
3 639 161 640
3 641 136 639
3 627 372 640
3 640 161 627
3 372 102 640
3 627 31 372
3 489 632 639
3 639 136 489
3 632 161 639
3 489 40 632
3 373 492 641
3 641 102 373
3 492 136 641
3 373 2 492
