# vtk DataFile Version 3.0
this file was written using fslvtkio
ASCII
DATASET POLYDATA
POINTS 1068 float
78.3497 158.579 63.1039
76.9442 158.632 64.5621
77.8859 157.672 64.7179
79.1316 157.462 64.2753
79.848 158.387 62.5131
80.3092 157.553 63.7778
81.3696 158.357 62.4573
81.75 157.686 64.0601
82.6329 158.512 62.9328
83.0682 158.114 64.3766
77.6901 159.903 63.4697
76.4295 159.635 65.335
78.9613 160.121 62.0144
80.622 160.106 61.3135
82.4559 159.942 61.4957
83.8537 159.294 62.8939
77.0323 160.797 64.3944
76.1473 160.772 65.964
78.2644 161.257 63.0207
79.8265 161.447 62.1201
81.6505 161.323 61.7981
83.3982 160.91 62.3141
77.2983 161.922 64.3733
79.009 162.611 63.2393
80.954 162.667 62.8995
82.5999 162.152 62.8173
82.9546 153.065 64.7025
81.7808 152.064 65.4709
82.6094 151.046 64.426
83.9883 151.246 63.8929
84.3853 152.873 64.7815
85.1888 151.61 64.7238
81.7572 153.958 65.7486
80.601 154.478 66.3112
80.6884 152.782 66.377
82.6404 154.684 66.3728
83.7237 154.25 66.1941
85.1381 153.309 65.914
80.9117 155.982 65.8455
79.7543 155.317 66.3599
82.0626 155.835 66.2767
83.3295 156.102 66.1745
84.3691 155.155 66.8322
78.2243 156.764 65.5981
77.029 157.467 66.037
77.7758 156.702 67.2581
78.5111 155.852 66.8154
79.5449 156.575 65.4049
80.7468 157.056 65.3885
82.1699 157.056 65.5619
83.4494 157.432 65.7219
84.2198 156.622 66.6135
75.9656 158.24 66.5021
84.3474 158.718 64.5704
75.3368 159.33 67.142
84.7535 160.245 63.5556
74.8917 160.32 67.6711
83.7447 161.602 63.7114
76.4346 162.162 65.9612
75.5537 161.586 67.5048
77.7807 162.884 64.9869
79.4389 163.165 64.5616
80.7521 162.765 64.4597
82.1749 162.381 64.4318
76.7521 162.917 66.7465
78.2423 163.239 66.1299
79.5724 163.063 65.6342
87.1655 147.181 65.347
85.5074 146.893 65.9537
86.6793 146.173 67.1943
88.0696 145.671 66.5638
88.7781 147.329 66.1422
89.4256 146.195 66.7561
89.8291 147.488 66.8854
90.2069 146.619 67.7553
85.1435 148.17 64.5212
83.56 149.065 65.4808
84.1038 147.84 66.3648
86.6668 148.947 64.7598
88.0827 148.945 65.6099
89.4461 148.984 66.5435
90.4214 148.111 67.759
83.4578 149.726 64.1391
82.3532 150.441 65.6818
85.1724 149.979 64.3013
87.0139 150.593 65.1435
88.5562 150.688 66.1826
89.9432 150.068 67.4646
81.4111 151.465 66.8105
86.2316 151.92 65.5984
87.561 152.271 66.4944
89.2983 151.788 67.3121
80.0115 153.751 67.3572
80.719 152.388 67.8357
85.6235 154.127 66.8216
86.7781 154.065 67.1986
88.4059 153.443 67.8662
79.3545 154.823 67.5555
78.6875 155.45 68.4086
79.1839 154.26 68.7521
85.2605 156.176 67.144
86.4515 155.602 67.8036
87.6853 154.798 68.0592
76.6397 157.148 67.8937
77.5179 156.117 68.9023
84.594 157.876 66.3297
85.2781 157.891 66.9598
86.0975 156.98 67.8535
75.3646 157.896 68.4225
85.2207 159.337 65.2918
85.4554 159 66.6383
85.7346 158.303 67.7436
74.6466 158.935 68.9232
84.8986 160.981 64.8423
85.5015 160.278 65.9967
74.47 160.657 68.8243
83.4661 161.66 64.8419
84.4782 161.339 65.7679
75.195 161.907 69.1108
81.6141 162.035 66.1734
80.5895 162.627 65.6702
82.9262 161.654 66.0176
76.2041 162.775 68.2345
77.6375 163.168 67.9051
79.0591 163.086 67.1012
85.2285 147.114 67.911
86.5819 145.964 68.7583
87.8528 144.868 68.2338
89.3488 145.232 67.8789
89.9645 146.707 69.117
83.3398 149.644 66.9412
83.9742 148.388 67.8076
90.3225 148.612 69.0772
82.35 150.63 67.4026
90.4639 149.888 68.7988
90.4733 151.154 68.3607
90.3854 150.696 69.9634
81.5427 151.394 68.5728
89.9428 152.622 68.4744
90.4309 152.027 69.7225
79.991 153.212 68.8954
80.5747 152.372 69.4192
89.875 153.476 69.0066
89.9776 153.273 70.2785
78.1868 154.864 69.8412
78.8883 153.763 70.2371
87.5022 155.945 68.6731
88.7183 154.985 68.7132
89.5909 154.351 69.4983
76.0436 156.564 69.6369
77.3503 155.674 70.5243
87.0931 156.814 68.9834
88.0807 156.639 69.7338
75.003 157.492 70.2806
85.8755 159.335 67.6835
86.1081 158.202 68.6337
86.8318 157.479 69.2783
74.5515 159.227 70.234
85.2842 160.392 67.2668
85.8394 159.75 68.8831
74.5437 160.706 70.4157
84.789 160.554 68.1384
84.1781 161.29 66.8461
75.0009 161.667 70.6171
80.2976 162.683 66.796
81.1788 162.324 67.3536
82.422 161.67 67.8212
75.8059 162.732 69.8567
77.1318 163.108 69.3853
78.4914 162.821 68.6705
79.7455 162.704 67.9693
85.8708 146.841 69.4217
86.2283 145.804 70.2806
87.3747 144.88 69.8921
89.095 145.25 69.8778
89.181 147.343 70.7001
83.501 149.477 68.7667
84.1854 148.217 69.1092
84.9593 147.356 70.2088
89.6504 148.619 70.6086
90.0309 149.579 70.02
89.6626 149.836 71.2942
82.5595 150.468 69.0033
82.9553 149.945 70.4869
89.9041 151.039 71.4855
81.1027 151.364 70.0435
89.8751 152.288 71.5978
79.4342 152.837 70.7748
80.3446 152.128 70.4892
89.7723 153.412 71.8646
77.6905 154.156 71.3322
78.5311 153.3 71.3272
89.002 155.497 70.1143
89.5162 154.576 71.3262
76.2031 156.142 71.4994
77.2107 155.176 71.6521
88.4799 156.368 70.7921
88.769 155.829 71.6725
75.1818 157.069 71.5564
74.6068 157.352 72.8365
75.4657 156.376 72.5066
86.4913 158.576 69.5646
87.4372 157.591 70.4119
88.036 157.094 71.6087
74.6662 158.326 71.4258
74.0928 158.445 72.9498
86.0167 159.332 69.9895
86.4649 158.686 70.6782
74.1103 159.674 71.712
73.7914 159.621 73.2656
83.7237 161.125 68.0595
84.9788 160.574 69.4052
85.4571 159.92 70.69
74.4434 160.956 71.952
74.215 160.83 73.4619
82.1704 161.718 69.5452
81.0239 162.114 68.5677
83.2775 161.286 69.1679
75.0593 162.261 71.7497
76.1308 162.708 71.4583
77.0879 162.772 70.7449
78.387 162.702 70.0919
79.5994 162.356 69.3704
87.6704 144.844 71.634
85.9551 145.199 71.7923
86.6741 144.625 73.3815
88.2007 145.188 73.1001
88.6941 145.877 71.5708
88.4832 146.579 72.9776
85.4596 146.47 71.3717
88.6513 147.785 73.0595
83.6366 148.705 70.8765
84.6837 147.475 71.7513
89.4098 148.665 72.2085
89.5746 149.919 72.8957
81.507 150.804 70.8574
82.247 149.89 72.381
89.711 151.205 73.2679
79.9099 152.096 71.5284
79.7727 151.864 72.7273
80.6987 151.313 71.9166
89.6061 152.595 73.3769
78.3991 153.195 72.4721
77.9486 153.013 73.9145
79.0122 152.332 73.7017
89.425 154.012 73.1665
77.1732 154.468 72.839
76.1313 154.541 74.0904
76.8907 153.527 74.5323
88.74 155.098 73.0365
76.1049 155.512 73.0673
74.9193 156.11 73.8705
75.319 155.221 74.6899
88.2473 156.3 72.9524
74.43 157.215 74.4171
87.3902 157.478 72.9814
86.9715 158.077 71.5856
73.9953 158.354 74.7501
85.9136 159.139 71.7455
73.9838 159.529 75.0145
84.9384 160.094 71.8335
84.5157 160.933 70.4723
74.1354 160.698 75.1044
81.8446 161.459 70.8237
80.827 161.968 69.9155
82.9688 161.177 70.5481
74.6546 161.899 73.5349
75.7052 162.654 72.9758
77.1085 162.637 72.2722
78.3824 162.436 71.5909
79.6369 162.232 70.9707
85.4953 145.281 73.282
84.4915 146.172 74.2331
85.3367 144.837 74.5909
86.7402 144.485 74.86
87.8731 145.546 74.5904
87.9338 146.838 75.1751
84.8165 146.444 72.753
83.9186 147.887 72.9749
88.1884 147.919 75.2839
82.9758 148.896 72.7314
89.073 148.897 74.0565
89.0907 150.138 74.5934
81.0017 150.801 72.7961
80.3343 150.635 74.7155
81.3904 149.996 74.1115
82.0658 149.174 74.048
89.2133 151.524 74.8999
79.7808 151.397 74.1159
78.6004 151.893 75.182
79.225 150.953 75.8952
89.0876 153.046 74.8523
77.5797 152.386 75.8702
88.6506 154.37 74.6964
76.0332 154.269 75.5772
76.8447 153.244 76.2845
88.1256 155.611 74.5536
74.849 156.059 75.5801
75.2025 154.959 76.2843
87.4827 156.704 74.234
74.5027 157.062 76.139
86.6667 157.779 74.1263
86.4314 158.408 72.8496
74.1372 158.155 76.4708
85.2526 159.167 72.9623
73.9511 159.473 76.6583
84.4542 160.142 73.1589
84.0115 160.943 71.8404
74.2484 160.6 76.6377
80.7849 161.825 71.071
81.551 161.603 71.9671
82.6348 161.34 72.1072
74.8633 161.531 75.0237
75.6806 162.306 74.3841
76.9703 162.522 73.7668
78.2363 162.375 73.2628
79.3839 162.125 72.6728
80.2857 161.747 72.1704
85.7271 143.916 75.6875
84.5746 145.054 75.9234
85.0739 143.474 76.7926
86.5981 143.39 77.2843
86.8804 144.603 76.3103
86.7501 144.703 77.4696
87.2012 145.614 76.2141
87.0674 145.94 77.4974
83.7027 146.893 75.0851
87.5058 146.954 77.3208
83.2691 148.098 74.5766
87.8283 148.09 77.3168
82.6482 148.674 74.343
81.924 148.713 75.793
82.6499 148.288 75.3994
88.6334 149.063 75.8463
88.7263 150.421 76.2489
80.1682 149.893 76.0678
81.1458 149.246 75.3985
88.5948 152.015 76.3376
78.1894 151.245 77.4056
79.0231 150.302 77.3354
88.4558 153.549 76.2873
77.1556 152.095 77.6008
87.8822 154.907 76.061
75.7236 153.659 76.9834
76.4357 152.808 77.3066
87.0853 156.119 75.8438
74.5702 155.692 77.4089
74.8165 154.422 77.5611
86.7872 157.068 75.1654
74.1764 156.787 77.8804
86.2103 157.733 75.2808
85.8204 158.562 74.2793
73.9021 158.235 78.0471
84.7897 159.301 74.3753
73.9706 159.592 78.1379
83.7343 159.802 74.3043
83.5401 160.843 73.1989
74.3439 160.633 77.9965
82.5027 161.344 73.9027
81.5144 161.59 73.2115
74.9343 161.454 76.4571
75.8189 161.925 75.7052
76.9331 162.217 75.1607
78.1714 162.216 74.7577
79.3035 161.982 74.2907
80.38 161.847 73.6563
85.4746 142.553 77.8419
84.2236 143.899 77.7055
84.7323 142.177 78.965
86.0201 141.935 78.9825
86.514 143.011 78.6609
86.3563 143.082 79.9957
83.9197 145.507 76.9153
86.4774 144.582 78.9235
86.7533 145.984 79.2769
83.2125 146.535 76.6069
82.341 146.363 77.9335
83.1778 145.648 77.6375
87.1973 147.2 79.4388
82.6137 147.678 76.279
81.4762 147.61 77.4551
87.5574 148.401 79.0407
80.7981 148.917 76.967
80.0758 148.08 78.3799
80.7269 147.736 77.8873
88.3073 149.337 77.5244
88.2462 150.892 77.7577
79.7092 149.408 77.8839
77.9929 149.79 78.7986
78.9244 148.6 78.9425
87.9395 152.476 77.6539
76.6647 150.828 78.7871
87.5895 154.019 77.5138
75.9988 152.338 78.1025
75.2556 152.438 79.3441
75.8841 151.507 79.454
86.784 155.27 77.2953
74.9837 153.352 78.3196
74.5393 154.588 78.9115
74.8108 153.33 79.8964
86.4416 156.185 76.8479
85.951 156.131 77.9587
86.0032 157.111 77.1248
74.2004 155.66 79.2549
86.4416 157.079 76.1869
85.543 158.023 76.1306
73.8091 157.097 79.4372
84.892 158.73 75.7291
73.7063 158.606 79.6193
84.0399 159.35 75.5778
74.2453 159.822 79.5019
83.3401 159.784 75.2186
82.9608 160.481 74.5807
74.6743 160.842 78.7628
74.9749 161.514 77.7199
75.5718 161.548 78.6804
82.2326 161.024 74.9236
81.3436 161.557 74.5722
75.9159 161.881 77.0891
77.0318 162.081 76.4854
78.0176 162.003 75.9149
79.1903 161.992 75.8402
80.2661 161.752 75.0983
83.7041 143.213 78.8067
83.0272 143.397 79.6888
83.5224 142.198 79.9797
84.5745 141.194 79.9433
85.8646 141.741 80.4126
85.8856 142.858 81.6148
83.2812 144.848 78.4595
82.6346 144.432 80.0695
86.3293 144.594 80.6214
86.7321 146.184 81.0348
82.1901 145.661 79.437
80.8063 145.634 80.365
81.8146 144.926 80.3465
87.0551 147.695 81.1549
81.0897 146.852 79.0138
79.7599 146.574 80.3019
87.3095 148.959 80.0558
87.7624 149.683 78.7069
87.477 150.346 79.6453
79.3468 147.513 79.4714
77.698 148.34 80.0458
78.4745 147.004 80.5462
87.642 151.616 79.0867
76.7398 149.583 80.3591
87.477 153.062 78.8829
76.1494 150.611 80.2643
86.8893 154.291 78.7613
75.042 151.634 80.5774
75.5549 150.991 80.634
86.2521 155.33 78.8866
74.1819 154.341 80.5912
74.3234 152.68 80.9633
85.1852 156.219 78.9309
85.2743 157.328 77.7545
73.9361 155.899 80.7056
84.5811 158.103 77.4779
73.8656 157.468 80.879
83.8333 158.873 76.9946
74.4022 158.88 80.8594
83.1537 159.699 76.0042
83.1059 159.138 77.0572
82.5 159.512 77.0829
74.7321 160.015 80.4278
74.9034 160.764 79.5517
75.4466 160.95 80.1161
82.1953 160.387 75.7851
81.6544 159.881 77.222
81.2217 160.464 76.7073
76.2022 161.602 79.7804
80.3233 161.588 76.4132
80.0774 161.274 77.4343
79.4361 161.674 77.1772
81.2716 161.093 75.8586
80.5935 160.84 77.2415
76.3338 161.997 78.5202
77.2925 162.127 77.9007
78.3899 162.036 77.2356
85.2009 140.427 80.7871
83.8221 140.519 80.9959
83.9724 139.725 81.6711
85.3533 140.018 82.101
85.5695 141.439 81.6589
85.3041 141.597 82.9305
82.5865 142.726 81.2067
83.2475 141.364 81.0826
85.5224 143.292 83.0911
81.5693 144.213 81.0322
80.9931 143.613 82.325
81.7419 143.05 81.7821
86.0386 144.775 82.0486
86.5073 146.458 82.5739
80.0961 144.813 81.573
78.6792 145.198 82.5171
79.7334 144.079 82.9535
86.671 148.086 82.8184
79.0273 145.943 81.3637
77.4748 146.802 81.6431
87.144 149.261 81.2495
86.9769 150.842 80.9004
76.6158 148.065 81.4556
86.8921 152.13 80.1842
75.8095 148.982 81.676
75.0595 148.943 83.1269
75.6539 148.076 82.6639
86.522 153.256 80.173
75.3758 150.1 81.5789
74.7457 150.24 83.0107
86.0853 154.32 80.221
74.5387 151.339 81.7933
74.0326 153.086 82.0142
74.3347 151.486 82.9111
85.561 155.383 79.983
73.9534 154.691 82.002
84.756 156.012 80.0195
84.4693 157.039 79.1025
74.0195 156.249 82.0726
83.7415 157.892 78.8043
74.2668 157.78 82.155
83.0822 158.732 78.1448
83.0105 158.123 79.7298
82.3388 158.738 79.2879
74.9419 158.801 81.7179
80.2662 159.743 79.1765
79.8284 159.222 80.7031
79.502 159.903 79.6322
81.252 159.403 79.0773
80.6835 159.146 80.2699
81.9895 159.287 78.2758
81.4541 158.718 80.0782
75.3969 159.857 81.0776
76.1045 160.553 80.7592
79.923 160.666 78.3069
79.015 160.49 79.3568
80.8568 160.036 78.101
76.7379 161.092 80.2574
77.1226 161.603 79.1877
78.0391 161.689 78.7634
77.4692 160.888 79.8367
78.9955 161.234 78.2896
78.1892 160.853 79.52
82.8366 138.764 83.3369
81.8195 139.273 83.8973
82.2364 137.429 84.5358
83.6707 137.76 83.9531
83.9265 138.934 82.5292
84.786 138.652 83.7469
85.3708 139.738 83.112
84.8432 140.179 84.2642
82.6886 140.532 82.1653
81.5402 140.571 83.5124
84.8117 141.789 84.4157
81.7567 141.952 82.5761
80.5835 142.143 84.0341
80.7917 141.173 84.4223
85.3251 143.507 84.6785
80.5268 142.994 83.3269
78.8677 143.537 83.9855
79.6399 142.5 84.1828
85.8755 145.003 83.5174
86.0838 146.696 84.1788
77.8038 145.051 83.3547
86.0767 148.067 84.025
76.9749 146.1 83.054
75.7991 146.187 84.2265
76.7883 145.164 84.2752
86.6971 149.557 82.4128
85.9372 149.389 83.7879
76.1133 146.998 82.8489
75.0978 147.61 84.2307
86.4235 150.652 82.3172
86.3658 151.98 81.7526
74.3588 149.097 84.5376
85.9182 153.167 81.6073
74.3826 150.704 83.7954
73.9597 152.033 83.5085
74.0636 150.506 84.9141
85.4449 154.46 81.1634
73.7968 153.516 83.3395
84.9084 155.184 80.7264
84.6481 154.704 81.7421
84.2446 155.895 81.0471
74.1728 154.921 83.3277
83.8481 156.899 80.4485
74.4676 156.395 83.41
83.5703 157.652 80.3604
74.579 157.636 83.5408
74.8777 158.586 82.7825
75.3263 158.498 83.7907
82.2779 158.293 80.3778
82.5122 157.665 81.1853
81.7377 158.029 81.2895
83.0343 157.301 80.9553
75.2547 159.184 82.1341
75.787 159.138 82.8478
79.4591 158.711 81.851
79.0938 159.769 80.9391
80.6589 158.468 81.4398
76.8542 160.315 80.9659
76.2215 159.71 81.7239
77.6571 160.253 80.6925
77.2281 159.662 81.745
78.4378 160.187 80.4175
78.0925 159.557 81.4356
80.4105 138.442 86.2883
79.2313 138.215 87.3182
80.1066 137.056 87.2987
81.0889 136.995 85.9834
81.2112 138.448 85.0705
82.3592 136.29 85.3513
83.7786 136.871 85.1454
84.7656 138.447 85.059
84.555 140.083 85.7243
79.7481 139.817 85.9902
78.7971 139.884 86.7039
80.7993 140.049 85.1985
84.5996 141.749 86.0316
79.4655 141.704 85.2957
78.1774 141.125 86.2642
84.9315 142.866 86.5339
78.0059 142.531 85.0268
76.9157 143.3 86.0239
77.5028 141.933 86.4035
85.7409 145.048 84.8564
85.0522 144.376 86.0453
77.4075 144.079 84.6269
76.1314 144.832 85.5395
85.5784 146.082 85.3985
85.4988 147.677 85.1293
75.1536 146.38 85.5389
85.1646 149.116 85.1174
74.6335 147.921 85.8155
85.7313 150.851 83.1972
85.0061 150.578 84.4884
74.0232 149.511 86.2233
85.3316 152.04 83.0964
84.5542 151.809 84.4929
73.9924 152.2 84.6636
74.0466 151.043 85.9429
84.5086 152.981 83.4336
83.9956 152.645 84.6672
83.7325 153.598 83.8919
85.0191 153.493 82.3077
73.9478 153.669 84.7544
84.0791 154.624 82.7264
83.2133 154.405 83.8959
74.287 155.05 84.6029
83.4606 155.682 82.2432
82.7199 155.501 83.3885
74.883 155.914 84.5165
82.5368 156.495 82.0358
82.1975 155.96 82.9876
81.7568 156.482 83.073
83.2626 156.747 81.1331
75.1528 156.863 84.3295
76.602 158.793 83.8471
75.7832 157.804 84.5581
76.9861 158.223 84.8454
81.5704 157.31 82.1463
80.9825 157.096 83.1494
80.6266 157.762 82.5093
76.8238 159.125 82.6162
77.677 158.61 83.9004
77.794 158.907 82.6215
78.5602 158.864 81.8626
78.657 158.403 83.3903
79.7344 158.109 83.0393
81.7289 134.624 87.7294
80.4471 134.665 88.6834
80.7383 133.656 88.9043
82.1444 133.286 88.47
83.1869 134.878 87.6364
83.3268 134.23 88.5831
83.7607 135.951 88.1596
83.4222 135.683 89.2308
80.5652 135.792 87.7997
79.027 136.431 88.7049
79.4001 135.098 89.1669
81.6214 135.748 86.5438
82.9553 135.673 86.3285
83.8797 136.662 86.8459
83.6137 137.369 88.3299
78.3058 138.338 88.1401
84.4226 138.334 86.5982
84.2101 140.143 87.2188
77.9249 139.971 87.5395
84.388 141.623 87.6313
77.5177 140.954 87.0967
76.7668 141.986 87.4825
77.1562 140.597 87.9791
84.5746 143.483 87.6666
76.093 143.619 87.1218
84.5055 145.136 87.3477
75.1741 145.049 86.8505
85.0127 146.306 86.2949
84.7323 147.864 86.259
74.7099 146.586 87.0806
84.3787 149.237 86.0455
74.1264 148.175 87.3552
84.3821 150.615 85.8433
74.1027 149.483 87.6938
84.0173 151.698 85.4554
74.2044 152.394 86.1196
74.2037 150.889 87.271
83.3915 152.01 85.6281
82.9278 152.852 85.2062
74.5361 153.931 85.96
74.7252 152.722 87.1323
82.4649 154.438 84.7145
74.8178 155.271 85.7485
75.3097 154.563 86.9727
81.9152 155.537 84.0364
81.6645 154.74 85.1732
81.1558 155.486 84.8975
75.4958 156.023 85.131
75.865 155.645 86.1748
79.9451 156.636 84.5828
79.4454 155.948 85.4707
79.0832 156.843 85.2628
80.9133 156.339 84.0128
80.331 155.671 85.2679
76.0605 156.754 85.1941
78.2123 158.036 84.8977
77.1141 157.419 85.5769
79.1516 157.602 84.3639
78.2425 156.995 85.5558
80.1981 157.341 83.6664
80.456 119.347 91.6537
79.5269 119.571 91.3333
79.9858 117.986 91.8522
80.6336 118.564 92.5782
80.7079 119.763 92.6059
80.5682 119.233 93.4168
80.3162 120.585 91.2894
79.781 121.488 91.5069
80.9315 120.834 92.131
80.3862 120.814 93.4348
80.4601 122.016 92.0361
80.6442 122.135 92.8289
79.2518 132.531 90.3217
77.863 133.281 91.3639
78.381 131.946 91.4914
80.1143 131.333 90.3995
80.7638 132.473 89.4544
82.0616 131.328 89.8314
82.628 132.52 89.4848
82.8217 132.849 91.2797
79.2761 133.91 90.0555
78.0856 134.817 90.2939
83.0806 134.195 90.0151
83.1548 136.209 90.0661
77.8087 136.668 89.3319
83.411 137.781 90.0878
77.4242 137.915 89.1013
76.5542 138.646 89.6773
76.804 137.2 90.0692
83.9386 138.902 88.3383
83.6948 140.507 88.9018
77.3943 139.377 88.7614
76.475 140.557 88.951
84.0114 142.214 88.7767
76.1792 142.32 88.6307
84.0122 143.775 88.9615
75.333 143.913 88.3342
83.4939 144.842 89.3278
74.8844 145.366 88.453
84.3921 146.495 87.2844
83.46 146.04 88.4265
74.4734 146.991 88.7863
84.0272 147.683 87.4966
83.0237 147.631 88.3784
74.5829 148.457 88.9126
83.5793 149.042 87.1988
82.7777 149.636 87.7561
74.5747 150.136 88.7601
83.4056 150.853 86.4241
82.3806 150.892 87.2035
74.8518 151.736 88.3454
82.4459 152.227 86.4579
81.7724 151.247 87.654
81.278 152.163 87.3312
75.5514 153.236 87.9951
80.0322 153.671 86.9684
79.407 153.115 88.0898
79.0697 154.015 87.5321
81.2183 153.133 86.6967
80.3383 152.501 87.9924
81.8852 153.601 85.5845
76.1213 154.475 87.8608
76.7052 155.536 87.148
78.0269 155.465 87.1141
77.2075 154.792 88.14
78.9602 154.772 86.7844
78.3657 154.609 87.9916
79.7206 155.069 86.1188
80.8968 154.602 86.0668
76.6292 156.221 85.8158
77.5876 156.234 86.092
78.722 155.918 86.1624
78.1381 116.975 91.4826
77.5764 118.38 91.982
77.1109 117.12 92.9156
78.2873 116.232 92.9312
79.6188 116.957 92.0963
79.25 116.929 93.77
78.6885 118.705 91.3477
78.0415 119.91 92.2899
80.2246 117.926 93.3925
80.034 119.122 94.1799
78.9846 121.203 91.8228
78.1588 121.544 92.688
79.8233 120.702 94.3407
79.0098 123.229 92.2372
78.2248 123.373 93.1858
80.0011 123.127 91.9378
80.7194 123.475 92.5893
80.3373 122.464 94.0225
79.1337 124.845 92.3886
78.1312 124.876 93.4787
80.2802 124.99 91.8108
81.3088 124.906 91.958
80.8641 123.936 93.5069
81.5454 125.02 92.8348
81.3058 125.05 93.8799
78.943 126.201 92.5031
77.7015 126.175 93.693
80.1642 126.561 91.7069
81.5716 126.633 91.4537
82.0927 126.402 92.3289
81.5593 126.273 93.5788
78.5086 127.26 92.7062
79.5896 127.917 91.6802
78.2308 128.428 92.6426
81.3298 128.114 91.0979
82.4305 128.141 92.0024
81.8204 127.869 93.3982
78.7722 129.395 91.7013
77.6825 129.507 93.0189
80.3806 129.218 90.8912
82.6077 129.385 91.2383
82.1042 129.502 93.4177
77.7311 130.568 92.5921
78.9556 130.723 91.4707
77.242 131.88 92.9508
81.1773 130.188 90.3692
82.3024 130.77 93.0494
82.8495 131.04 91.229
82.104 132.137 92.9971
76.8619 133.279 93.0235
82.0863 133.698 92.7236
77.1004 134.559 91.7661
76.4518 135.598 91.8922
76.1481 134.395 93.476
82.8031 134.852 91.4275
82.7731 136.257 91.8132
77.0936 135.872 90.6694
76.1083 137.189 91.2195
82.4526 137.352 92.1663
76.1287 139.078 90.6847
83.4166 139.207 90.0326
82.7617 138.718 91.6273
75.8437 140.865 90.1181
83.072 140.4 90.2818
83.3809 141.988 89.9911
75.556 142.601 89.8179
83.1013 143.268 90.3155
75.3103 144.146 89.8252
82.721 144.432 90.403
82.301 143.234 91.1695
81.9644 144.395 91.3084
74.991 145.854 89.9929
82.3738 145.658 89.9537
81.389 146.095 90.8494
75.0576 147.447 90.357
82.3997 146.946 89.6083
81.3462 147.462 90.321
75.2306 149.159 90.0842
81.5395 148.433 89.4487
80.6424 148.281 90.5552
80.3727 149.246 90.0748
82.3358 148.596 88.6791
75.4153 150.775 89.5424
80.9143 149.897 89.1029
80.237 150.452 89.5553
81.8629 150.032 88.5086
75.6347 152.05 88.9917
81.1238 151.28 88.4387
80.0438 151.514 88.9284
76.1728 152.838 88.7495
76.5607 153.721 88.6338
77.7797 153.835 88.6795
77.3269 153.038 89.1957
78.6504 153.599 88.3899
78.4215 152.737 89.0931
79.2921 152.149 88.9823
77.3927 118.859 93.2008
76.7644 117.645 94.1107
77.7512 116.51 94.433
78.5933 117.364 95.1646
77.2556 120.556 93.6737
79.4833 118.062 94.7343
79.4145 119.537 95.3405
77.455 122.178 93.7661
79.5504 121.595 94.957
77.2718 123.485 94.3163
79.9032 122.983 95.2318
76.9417 124.885 94.5778
80.5078 124.137 94.5415
80.6008 125.76 94.5717
76.9211 125.858 95.0021
80.8243 127.265 94.4681
77.682 127.277 93.5566
77.0194 126.967 94.5932
81.0704 128.752 94.4258
77.449 128.115 93.8297
77.1419 129.146 94.0716
80.8635 130.022 94.9311
77.0044 130.628 94.1238
76.5069 131.726 94.9137
80.9213 131.374 94.8303
81.326 132.877 94.5526
76.1492 133.052 95.2756
81.2404 134.055 94.5113
75.8661 135.903 92.9647
75.7033 134.647 95.2436
81.9575 135.053 93.0475
81.6546 136.097 93.7099
75.5979 137.686 92.3747
81.7065 137.686 93.3711
75.5702 139.503 91.8766
81.8066 139.024 93.2291
75.6569 141.143 91.4553
82.6925 140.631 91.2956
81.9472 140.319 92.3547
75.2715 142.798 91.3301
82.3614 141.903 91.4443
81.485 142.634 92.1561
75.1747 144.418 91.5518
81.0355 144.362 92.0807
75.4449 145.923 91.5123
80.4586 145.963 91.8083
80.1887 144.881 92.7855
79.7141 146.048 92.5904
75.8291 147.102 91.532
75.9811 148.715 91.4606
77.3548 148.685 92.3263
76.5888 147.486 92.4749
78.62 148.147 92.3402
77.7513 147.301 93.1215
79.726 147.316 92.1185
78.919 146.748 93.1982
80.576 147.348 91.2529
76.1189 150.232 90.6808
77.2712 149.941 91.3
78.4796 149.447 91.5598
79.5343 148.566 91.2802
76.3764 151.55 90.0335
77.3452 150.966 90.3838
78.3629 150.524 90.6296
79.4429 149.879 90.529
76.5907 152.465 89.5306
77.5088 152.158 89.8937
78.3727 151.657 89.8998
79.2664 150.987 89.6917
77.1038 119.184 94.4499
77.2446 118.03 95.4943
76.7719 120.662 94.9988
77.2798 119.774 95.7384
78.4146 118.825 96.1186
76.8593 122.2 95.0659
77.0613 121.419 96.2849
78.0258 120.544 96.8569
79.0508 120.346 96.2803
79.361 121.834 95.9581
76.6196 123.772 95.73
79.4918 123.519 96.2203
76.7821 125.126 96.0409
80.0512 124.783 95.504
80.1313 126.478 95.5569
76.826 126.31 96.1585
80.1219 128.08 95.6001
76.6729 127.395 95.8328
79.9207 129.403 95.9263
76.7894 128.152 94.8546
76.4257 129.011 95.5095
79.84 130.85 96.4058
76.6097 129.926 95.1505
76.9986 132.065 97.2241
76.7759 130.559 96.2077
79.0872 132.126 97.2473
78.1194 130.924 97.5886
80.3285 132.401 95.8401
76.3309 133.734 96.9565
78.1288 133.589 98.0665
79.788 133.555 96.4523
75.5901 136.426 94.226
75.9003 135.913 95.9677
76.7649 134.998 97.4298
78.423 135.269 97.6991
78.8051 136.621 96.7954
79.4374 135.099 96.6344
80.6209 135.027 95.1512
75.4561 138.288 93.7027
79.6902 136.992 95.6384
79.1034 138.257 96.2209
80.495 136.499 94.76
75.5503 139.958 93.1759
79.9283 138.973 95.0102
79.213 139.926 95.7826
80.7804 138.068 94.463
75.7061 141.418 92.7979
79.8916 140.757 94.4252
79.172 141.591 95.3678
80.8368 139.887 93.7404
75.6591 142.867 92.531
79.8614 142.327 94.0055
78.7342 142.867 94.6506
80.9989 141.472 93.1174
75.6101 143.808 93.1142
75.9043 145.137 93.2691
77.3457 145.004 94.5139
76.3959 143.84 94.155
78.6673 144.315 94.3997
77.5952 143.494 94.798
79.4845 143.822 93.7333
80.375 143.347 93.0696
76.0083 146.403 92.524
76.962 146.267 93.454
78.2739 145.903 93.9955
79.2716 145.19 93.476
76.809 122.991 96.735
77.734 122.376 97.2724
78.7754 121.812 96.8877
76.8274 124.492 97.4081
77.838 124.025 97.7868
78.8122 123.528 97.1219
76.8644 125.888 97.6304
77.9396 125.566 98.1602
79.0434 125.413 97.5731
79.4839 125.222 96.4425
76.7935 127.263 97.4235
77.8427 127.04 98.1718
78.8746 126.988 97.777
79.6802 126.883 96.6806
76.4331 128.286 96.4907
77.2343 128.36 97.6448
78.4255 128.536 97.9536
79.4117 128.344 96.9653
76.8016 129.431 96.7492
77.6807 129.816 97.8511
79.0964 129.867 97.3205
75.8361 137.503 95.278
76.5264 136.921 96.7427
77.6095 136.342 97.4569
75.9272 139.099 94.8899
76.6684 138.541 96.3838
77.9335 137.789 97.1801
75.9403 140.576 94.5587
76.7684 139.978 96.1012
78.1778 139.333 96.8821
75.9975 141.793 94.1405
76.8297 141.301 95.3499
78.06 140.823 96.0324
75.9998 142.918 93.8293
76.7502 142.548 94.8719
77.8995 142.068 95.405
POLYGONS 2132  8528
3 0 1 2
3 0 3 4
3 2 3 0
3 4 5 6
3 3 5 4
3 6 7 8
3 5 7 6
3 7 9 8
3 10 1 0
3 11 1 10
3 4 12 0
3 12 10 0
3 6 13 4
3 13 12 4
3 8 14 6
3 14 13 6
3 15 8 9
3 14 8 15
3 16 11 10
3 17 11 16
3 12 18 10
3 18 16 10
3 13 19 12
3 19 18 12
3 14 20 13
3 20 19 13
3 21 14 15
3 20 14 21
3 16 22 17
3 18 22 16
3 23 22 18
3 19 23 18
3 24 23 19
3 20 24 19
3 25 24 20
3 21 25 20
3 26 27 28
3 26 29 30
3 28 29 26
3 29 31 30
3 32 33 34
3 27 32 34
3 27 26 32
3 26 35 32
3 30 36 26
3 36 35 26
3 37 30 31
3 36 30 37
3 38 33 32
3 39 33 38
3 35 40 32
3 40 38 32
3 36 41 35
3 41 40 35
3 42 36 37
3 41 36 42
3 43 44 45
3 43 46 47
3 45 46 43
3 39 47 46
3 39 38 47
3 38 48 47
3 40 49 38
3 49 48 38
3 50 41 51
3 50 49 41
3 49 40 41
3 42 51 41
3 2 44 43
3 2 1 44
3 1 52 44
3 3 2 43
3 47 3 43
3 5 3 47
3 48 5 47
3 7 5 48
3 49 7 48
3 49 9 7
3 49 50 9
3 50 53 9
3 1 11 52
3 52 11 54
3 9 53 15
3 53 55 15
3 11 17 54
3 54 17 56
3 15 55 21
3 55 57 21
3 58 17 22
3 58 59 17
3 59 56 17
3 22 23 60
3 58 22 60
3 23 24 61
3 60 23 61
3 62 61 24
3 62 24 63
3 63 24 25
3 57 25 21
3 63 25 57
3 58 64 59
3 60 64 58
3 65 64 60
3 61 65 60
3 66 65 61
3 62 66 61
3 67 68 69
3 67 70 71
3 69 70 67
3 71 72 73
3 70 72 71
3 72 74 73
3 75 76 77
3 68 75 77
3 68 67 75
3 67 78 75
3 71 79 67
3 79 78 67
3 73 80 71
3 80 79 71
3 81 73 74
3 80 73 81
3 82 76 75
3 83 76 82
3 78 84 75
3 84 82 75
3 79 85 78
3 85 84 78
3 80 86 79
3 86 85 79
3 87 80 81
3 86 80 87
3 28 83 82
3 28 27 83
3 27 88 83
3 29 28 82
3 84 29 82
3 31 29 84
3 31 84 89
3 89 84 85
3 86 90 85
3 90 89 85
3 91 86 87
3 90 86 91
3 34 92 93
3 33 92 34
3 88 27 34
3 93 88 34
3 89 94 37
3 31 89 37
3 90 95 89
3 95 94 89
3 96 90 91
3 95 90 96
3 97 98 99
3 97 99 92
3 97 92 39
3 39 92 33
3 94 100 42
3 37 94 42
3 101 95 102
3 101 100 95
3 100 94 95
3 96 102 95
3 45 103 104
3 44 103 45
3 98 97 46
3 98 46 104
3 104 46 45
3 39 46 97
3 51 105 50
3 51 42 100
3 51 100 105
3 105 100 106
3 107 100 101
3 106 100 107
3 44 52 103
3 103 52 108
3 105 109 53
3 50 105 53
3 110 106 111
3 110 109 106
3 109 105 106
3 107 111 106
3 52 54 108
3 108 54 112
3 109 113 55
3 53 109 55
3 114 109 110
3 113 109 114
3 54 56 112
3 112 56 115
3 113 116 57
3 55 113 57
3 117 113 114
3 116 113 117
3 56 59 115
3 115 59 118
3 63 119 120
3 62 63 120
3 116 63 57
3 116 121 63
3 121 119 63
3 117 121 116
3 59 122 118
3 64 122 59
3 65 123 64
3 64 123 122
3 66 124 65
3 65 124 123
3 120 66 62
3 124 66 120
3 69 125 126
3 68 125 69
3 70 69 127
3 69 126 127
3 72 70 128
3 70 127 128
3 128 74 72
3 129 74 128
3 77 130 131
3 76 130 77
3 125 68 77
3 131 125 77
3 74 129 81
3 129 132 81
3 76 83 130
3 130 83 133
3 134 135 87
3 134 87 132
3 132 87 81
3 134 136 135
3 83 88 133
3 133 88 137
3 135 138 91
3 87 135 91
3 139 135 136
3 138 135 139
3 93 140 141
3 92 140 93
3 137 88 93
3 141 137 93
3 138 142 96
3 91 138 96
3 143 138 139
3 142 138 143
3 99 144 145
3 98 144 99
3 140 92 99
3 145 140 99
3 102 146 101
3 102 147 146
3 96 147 102
3 96 148 147
3 96 142 148
3 143 148 142
3 104 149 150
3 103 149 104
3 144 98 104
3 150 144 104
3 146 151 107
3 101 146 107
3 152 146 147
3 151 146 152
3 103 108 149
3 149 108 153
3 111 154 110
3 111 155 154
3 107 155 111
3 107 156 155
3 107 151 156
3 152 156 151
3 108 112 153
3 153 112 157
3 154 158 114
3 110 154 114
3 159 154 155
3 158 154 159
3 112 115 157
3 157 115 160
3 158 161 162
3 158 162 114
3 114 162 117
3 159 161 158
3 115 118 160
3 160 118 163
3 119 164 120
3 165 164 119
3 165 119 166
3 166 119 121
3 162 121 117
3 166 121 162
3 118 167 163
3 122 167 118
3 123 168 122
3 122 168 167
3 124 169 123
3 123 169 168
3 164 124 120
3 164 170 124
3 170 169 124
3 165 170 164
3 126 125 171
3 172 126 171
3 172 173 126
3 173 127 126
3 128 127 174
3 127 173 174
3 174 129 128
3 175 129 174
3 131 130 176
3 131 176 177
3 125 131 177
3 125 177 178
3 125 178 171
3 172 171 178
3 179 180 132
3 179 132 175
3 175 132 129
3 179 181 180
3 176 182 183
3 176 130 182
3 130 133 182
3 177 176 183
3 132 180 134
3 180 136 134
3 180 181 136
3 181 184 136
3 133 137 182
3 182 137 185
3 136 184 139
3 184 186 139
3 141 187 188
3 140 187 141
3 185 137 141
3 188 185 141
3 139 186 143
3 186 189 143
3 145 190 191
3 144 190 145
3 187 140 145
3 191 187 145
3 148 192 147
3 148 193 192
3 148 143 193
3 143 189 193
3 150 194 195
3 149 194 150
3 190 144 150
3 195 190 150
3 192 196 152
3 147 192 152
3 197 192 193
3 196 192 197
3 198 199 200
3 198 200 194
3 198 194 153
3 153 194 149
3 156 201 155
3 156 202 201
3 152 202 156
3 152 203 202
3 152 196 203
3 197 203 196
3 204 199 198
3 205 199 204
3 153 157 204
3 198 153 204
3 201 206 159
3 155 201 159
3 207 201 202
3 206 201 207
3 208 205 204
3 209 205 208
3 157 160 208
3 204 157 208
3 161 210 162
3 161 211 210
3 159 211 161
3 159 212 211
3 159 206 212
3 207 212 206
3 213 209 208
3 214 209 213
3 160 163 213
3 208 160 213
3 166 215 216
3 165 166 216
3 210 166 162
3 210 217 166
3 217 215 166
3 211 217 210
3 213 218 214
3 163 218 213
3 163 167 218
3 167 219 218
3 168 220 167
3 167 220 219
3 169 221 168
3 168 221 220
3 170 222 169
3 169 222 221
3 216 170 165
3 222 170 216
3 223 224 225
3 223 226 227
3 225 226 223
3 226 228 227
3 173 224 223
3 173 172 224
3 172 229 224
3 174 173 223
3 227 174 223
3 227 175 174
3 227 228 175
3 228 230 175
3 178 231 232
3 177 231 178
3 229 172 178
3 232 229 178
3 175 230 233
3 179 175 233
3 233 181 179
3 234 181 233
3 183 235 236
3 182 235 183
3 231 177 183
3 236 231 183
3 181 234 184
3 234 237 184
3 238 239 240
3 238 240 235
3 238 235 185
3 185 235 182
3 184 237 186
3 237 241 186
3 242 243 244
3 239 242 244
3 238 242 239
3 238 187 242
3 238 188 187
3 185 188 238
3 186 241 189
3 241 245 189
3 246 247 248
3 243 246 248
3 242 246 243
3 242 190 246
3 242 191 190
3 187 191 242
3 189 245 193
3 245 249 193
3 250 251 252
3 247 250 252
3 246 250 247
3 246 194 250
3 246 195 194
3 190 195 246
3 193 249 197
3 249 253 197
3 200 251 250
3 200 199 251
3 199 254 251
3 194 200 250
3 203 255 256
3 202 203 256
3 253 203 197
3 255 203 253
3 199 205 254
3 254 205 257
3 202 256 207
3 256 258 207
3 205 209 257
3 257 209 259
3 212 260 261
3 211 212 261
3 258 212 207
3 260 212 258
3 209 214 259
3 259 214 262
3 215 263 264
3 216 215 264
3 217 265 215
3 215 265 263
3 261 217 211
3 265 217 261
3 214 266 262
3 218 266 214
3 219 267 218
3 218 267 266
3 220 268 219
3 219 268 267
3 221 269 220
3 220 269 268
3 222 270 221
3 221 270 269
3 264 222 216
3 270 222 264
3 271 272 273
3 271 225 224
3 271 273 225
3 273 274 225
3 226 225 275
3 225 274 275
3 275 228 226
3 276 228 275
3 277 272 271
3 278 272 277
3 224 229 277
3 271 224 277
3 228 276 230
3 276 279 230
3 232 278 277
3 232 231 278
3 231 280 278
3 229 232 277
3 230 279 281
3 233 230 281
3 281 234 233
3 282 234 281
3 283 284 285
3 283 236 235
3 283 285 236
3 285 286 236
3 280 231 236
3 286 280 236
3 234 282 237
3 282 287 237
3 288 289 290
3 284 288 290
3 283 288 284
3 283 239 288
3 283 240 239
3 235 240 283
3 237 287 241
3 287 291 241
3 244 289 288
3 244 243 289
3 243 292 289
3 239 244 288
3 241 291 245
3 291 293 245
3 248 294 295
3 247 294 248
3 292 243 248
3 295 292 248
3 245 293 249
3 293 296 249
3 252 297 298
3 251 297 252
3 294 247 252
3 298 294 252
3 249 296 253
3 296 299 253
3 251 254 297
3 297 254 300
3 255 301 302
3 256 255 302
3 299 255 253
3 301 255 299
3 254 257 300
3 300 257 303
3 256 302 258
3 302 304 258
3 257 259 303
3 303 259 305
3 260 306 307
3 261 260 307
3 304 260 258
3 306 260 304
3 259 262 305
3 305 262 308
3 263 309 264
3 310 309 263
3 310 263 311
3 311 263 265
3 307 265 261
3 311 265 307
3 262 312 308
3 266 312 262
3 267 313 266
3 266 313 312
3 268 314 267
3 267 314 313
3 269 315 268
3 268 315 314
3 270 316 269
3 269 316 315
3 309 270 264
3 309 317 270
3 317 316 270
3 310 317 309
3 318 319 320
3 318 321 322
3 320 321 318
3 322 323 324
3 321 323 322
3 323 325 324
3 273 319 318
3 273 272 319
3 272 326 319
3 274 273 318
3 322 274 318
3 275 274 322
3 324 275 322
3 324 276 275
3 324 325 276
3 325 327 276
3 272 278 326
3 326 278 328
3 276 327 279
3 327 329 279
3 330 331 332
3 330 332 328
3 330 328 280
3 280 328 278
3 279 329 333
3 281 279 333
3 333 282 281
3 334 282 333
3 285 335 336
3 284 335 285
3 331 330 286
3 331 286 336
3 336 286 285
3 280 286 330
3 282 334 287
3 334 337 287
3 290 338 339
3 289 338 290
3 335 284 290
3 339 335 290
3 287 337 291
3 337 340 291
3 289 292 338
3 338 292 341
3 291 340 293
3 340 342 293
3 295 343 344
3 294 343 295
3 341 292 295
3 344 341 295
3 293 342 296
3 342 345 296
3 298 346 347
3 297 346 298
3 343 294 298
3 347 343 298
3 296 345 299
3 345 348 299
3 297 300 346
3 346 300 349
3 301 350 351
3 302 301 351
3 348 301 299
3 350 301 348
3 300 303 349
3 349 303 352
3 302 351 304
3 351 353 304
3 303 305 352
3 352 305 354
3 306 355 356
3 307 306 356
3 353 306 304
3 355 306 353
3 305 308 354
3 354 308 357
3 311 358 359
3 310 311 359
3 356 311 307
3 358 311 356
3 308 360 357
3 312 360 308
3 313 361 312
3 312 361 360
3 314 362 313
3 313 362 361
3 315 363 314
3 314 363 362
3 316 364 315
3 315 364 363
3 317 365 316
3 316 365 364
3 359 317 310
3 365 317 359
3 366 367 368
3 366 369 370
3 368 369 366
3 369 371 370
3 320 367 366
3 320 319 367
3 319 372 367
3 321 320 366
3 370 321 366
3 370 371 373
3 370 373 321
3 321 373 323
3 373 325 323
3 374 325 373
3 375 376 377
3 375 377 372
3 375 372 326
3 326 372 319
3 325 374 327
3 374 378 327
3 379 376 375
3 380 376 379
3 326 328 379
3 375 326 379
3 327 378 329
3 378 381 329
3 382 383 384
3 380 382 384
3 379 382 380
3 379 331 382
3 379 332 331
3 328 332 379
3 329 381 385
3 333 329 385
3 385 334 333
3 386 334 385
3 387 388 389
3 383 387 389
3 382 387 383
3 382 335 387
3 382 336 335
3 331 336 382
3 334 386 337
3 386 390 337
3 339 388 387
3 339 338 388
3 338 391 388
3 335 339 387
3 337 390 340
3 390 392 340
3 393 394 395
3 393 395 391
3 393 391 341
3 341 391 338
3 340 392 342
3 392 396 342
3 397 398 399
3 394 397 399
3 393 397 394
3 393 343 397
3 393 344 343
3 341 344 393
3 400 401 402
3 400 396 401
3 400 345 396
3 345 342 396
3 347 398 397
3 347 346 398
3 346 403 398
3 343 347 397
3 404 400 402
3 405 404 402
3 345 404 348
3 400 404 345
3 346 349 403
3 403 349 406
3 350 404 405
3 350 405 351
3 351 405 407
3 348 404 350
3 349 352 406
3 406 352 408
3 351 407 353
3 407 409 353
3 352 354 408
3 408 354 410
3 355 411 412
3 356 355 412
3 409 355 353
3 411 355 409
3 413 357 414
3 413 410 357
3 410 354 357
3 413 414 415
3 358 416 417
3 359 358 417
3 412 358 356
3 416 358 412
3 357 360 414
3 414 418 415
3 414 360 418
3 360 361 418
3 362 419 361
3 361 419 418
3 363 420 362
3 362 420 419
3 364 421 363
3 363 421 420
3 365 422 364
3 364 422 421
3 417 365 359
3 422 365 417
3 423 424 425
3 423 368 367
3 423 425 368
3 425 426 368
3 369 368 427
3 368 426 427
3 427 371 369
3 428 371 427
3 429 424 423
3 430 424 429
3 367 372 429
3 423 367 429
3 371 428 431
3 373 371 431
3 431 374 373
3 432 374 431
3 433 434 435
3 430 433 435
3 429 433 430
3 429 376 433
3 429 377 376
3 372 377 429
3 374 432 378
3 432 436 378
3 437 434 433
3 438 434 437
3 376 380 437
3 433 376 437
3 439 440 381
3 439 381 436
3 436 381 378
3 439 441 440
3 442 443 444
3 438 442 444
3 437 442 438
3 437 383 442
3 437 384 383
3 380 384 437
3 381 440 385
3 440 386 385
3 440 441 386
3 441 445 386
3 389 443 442
3 389 388 443
3 388 446 443
3 383 389 442
3 386 445 390
3 445 447 390
3 388 391 446
3 446 391 448
3 390 447 392
3 447 449 392
3 395 450 451
3 394 450 395
3 448 391 395
3 451 448 395
3 392 449 396
3 449 452 396
3 399 453 454
3 398 453 399
3 450 394 399
3 454 450 399
3 401 455 456
3 402 401 456
3 452 401 396
3 455 401 452
3 398 403 453
3 453 403 457
3 402 456 405
3 456 458 405
3 403 406 457
3 457 406 459
3 405 458 407
3 458 460 407
3 406 408 459
3 459 408 461
3 462 463 464
3 462 460 463
3 462 409 460
3 409 407 460
3 465 410 466
3 465 461 410
3 461 408 410
3 465 466 467
3 468 469 470
3 464 469 468
3 462 464 468
3 462 468 412
3 462 412 411
3 409 462 411
3 410 413 466
3 466 413 415
3 466 415 467
3 467 415 471
3 472 473 474
3 472 475 476
3 473 472 476
3 470 476 475
3 468 470 475
3 468 475 417
3 468 417 416
3 412 468 416
3 415 477 471
3 418 477 415
3 419 478 418
3 418 478 477
3 420 479 419
3 419 479 478
3 474 421 472
3 474 479 421
3 479 420 421
3 422 472 421
3 475 472 422
3 417 475 422
3 480 481 482
3 480 483 484
3 482 483 480
3 483 485 484
3 425 486 487
3 424 486 425
3 481 480 426
3 481 426 487
3 487 426 425
3 427 426 480
3 484 427 480
3 484 428 427
3 484 485 428
3 485 488 428
3 489 490 491
3 489 491 486
3 489 486 430
3 430 486 424
3 428 488 492
3 431 428 492
3 492 432 431
3 493 432 492
3 494 495 496
3 490 494 496
3 489 494 490
3 489 434 494
3 489 435 434
3 430 435 489
3 432 493 436
3 493 497 436
3 498 495 494
3 499 495 498
3 434 438 498
3 494 434 498
3 436 497 500
3 439 436 500
3 500 441 439
3 501 441 500
3 444 499 498
3 444 443 499
3 443 502 499
3 438 444 498
3 441 501 445
3 501 503 445
3 504 505 506
3 504 506 502
3 504 502 446
3 446 502 443
3 445 503 447
3 503 507 447
3 508 505 504
3 509 505 508
3 446 448 508
3 504 446 508
3 447 507 449
3 507 510 449
3 511 512 513
3 509 511 513
3 508 511 509
3 508 450 511
3 508 451 450
3 448 451 508
3 449 510 452
3 510 514 452
3 454 512 511
3 454 453 512
3 453 515 512
3 450 454 511
3 455 516 517
3 456 455 517
3 514 455 452
3 516 455 514
3 453 457 515
3 515 457 518
3 456 517 458
3 517 519 458
3 457 459 518
3 518 459 520
3 521 522 523
3 521 519 522
3 521 460 519
3 460 458 519
3 459 461 520
3 520 461 524
3 525 526 527
3 525 528 529
3 526 525 529
3 528 530 531
3 529 528 531
3 523 531 530
3 521 523 530
3 521 530 464
3 521 464 463
3 460 521 463
3 461 532 524
3 465 532 461
3 532 465 467
3 533 532 467
3 534 525 527
3 535 534 527
3 528 525 536
3 536 525 534
3 469 536 470
3 469 530 536
3 530 528 536
3 464 530 469
3 537 471 538
3 537 533 471
3 533 467 471
3 538 539 540
3 537 538 540
3 539 541 542
3 540 539 542
3 535 542 541
3 534 535 541
3 534 541 474
3 534 474 473
3 476 534 473
3 536 534 476
3 470 536 476
3 471 477 538
3 478 538 477
3 539 538 478
3 479 539 478
3 541 539 479
3 474 541 479
3 543 544 545
3 543 546 547
3 545 546 543
3 547 548 549
3 546 548 547
3 548 550 549
3 551 544 543
3 552 544 551
3 482 481 551
3 482 551 547
3 547 551 543
3 483 482 547
3 549 483 547
3 549 485 483
3 549 550 485
3 550 553 485
3 554 555 556
3 552 554 556
3 551 554 552
3 551 486 554
3 551 487 486
3 481 487 551
3 485 553 488
3 553 557 488
3 558 559 560
3 555 558 560
3 554 558 555
3 554 490 558
3 554 491 490
3 486 491 554
3 488 557 561
3 492 488 561
3 561 493 492
3 562 493 561
3 496 559 558
3 496 495 559
3 495 563 559
3 490 496 558
3 493 562 497
3 562 564 497
3 565 566 567
3 565 567 563
3 565 563 499
3 499 563 495
3 568 500 497
3 568 497 569
3 569 497 564
3 500 568 501
3 570 566 565
3 571 566 570
3 499 502 570
3 565 499 570
3 568 569 572
3 572 501 568
3 572 573 501
3 573 503 501
3 506 571 570
3 506 505 571
3 505 574 571
3 502 506 570
3 503 573 507
3 573 575 507
3 576 577 578
3 576 578 574
3 576 574 509
3 509 574 505
3 507 575 510
3 575 579 510
3 513 577 576
3 513 512 577
3 512 580 577
3 509 513 576
3 581 582 583
3 581 579 582
3 581 514 579
3 514 510 579
3 512 515 580
3 580 515 584
3 516 581 583
3 516 583 517
3 517 583 585
3 514 581 516
3 515 518 584
3 584 518 586
3 517 585 519
3 585 587 519
3 588 520 589
3 588 586 520
3 586 518 520
3 588 589 590
3 591 592 593
3 591 523 522
3 591 522 592
3 592 522 594
3 587 522 519
3 594 522 587
3 589 524 595
3 520 524 589
3 596 590 589
3 595 596 589
3 526 597 598
3 527 526 598
3 529 599 526
3 526 599 597
3 593 531 591
3 593 599 531
3 599 529 531
3 523 591 531
3 524 532 595
3 533 600 601
3 532 533 601
3 532 601 596
3 532 596 595
3 600 602 603
3 601 600 603
3 602 604 605
3 603 602 605
3 604 598 605
3 604 535 598
3 535 527 598
3 533 537 600
3 540 600 537
3 602 600 540
3 542 602 540
3 604 602 542
3 535 604 542
3 606 607 608
3 606 609 610
3 608 609 606
3 610 545 544
3 610 609 545
3 609 611 545
3 546 545 612
3 545 611 612
3 548 546 613
3 546 612 613
3 613 550 548
3 614 550 613
3 615 607 606
3 616 607 615
3 610 617 606
3 617 615 606
3 544 552 617
3 610 544 617
3 550 614 553
3 614 618 553
3 619 616 615
3 620 616 619
3 556 555 619
3 556 619 617
3 617 619 615
3 552 556 617
3 553 618 557
3 618 621 557
3 622 623 624
3 620 622 624
3 619 622 620
3 619 559 622
3 619 560 559
3 555 560 619
3 625 561 557
3 625 557 626
3 626 557 621
3 561 625 562
3 627 623 622
3 628 623 627
3 559 563 627
3 622 559 627
3 625 626 629
3 629 562 625
3 629 630 562
3 630 564 562
3 567 628 627
3 567 566 628
3 566 631 628
3 563 567 627
3 564 630 569
3 630 632 569
3 566 571 631
3 631 571 633
3 634 572 569
3 634 569 635
3 635 569 632
3 572 634 573
3 571 574 633
3 633 574 636
3 637 634 635
3 638 637 635
3 573 637 575
3 634 637 573
3 578 639 640
3 577 639 578
3 636 574 578
3 640 636 578
3 641 642 643
3 638 642 641
3 638 641 637
3 637 641 644
3 575 644 579
3 637 644 575
3 577 580 639
3 639 580 645
3 646 641 643
3 647 646 643
3 582 646 583
3 582 644 646
3 644 641 646
3 579 644 582
3 580 584 645
3 645 584 648
3 649 646 647
3 650 649 647
3 583 649 585
3 646 649 583
3 584 586 648
3 648 586 651
3 652 653 654
3 650 653 652
3 650 652 649
3 649 652 655
3 585 655 587
3 649 655 585
3 586 656 651
3 588 656 586
3 590 657 658
3 590 658 588
3 588 658 656
3 658 657 659
3 660 661 662
3 654 661 660
3 652 654 660
3 652 660 593
3 652 593 592
3 594 652 592
3 655 652 594
3 587 655 594
3 657 596 663
3 590 596 657
3 664 659 657
3 664 657 665
3 665 657 663
3 665 666 667
3 664 665 667
3 666 598 597
3 666 597 667
3 667 597 668
3 662 599 660
3 662 668 599
3 668 597 599
3 593 660 599
3 596 601 663
3 603 663 601
3 665 663 603
3 605 665 603
3 666 665 605
3 598 666 605
3 669 670 671
3 669 672 673
3 671 672 669
3 673 674 675
3 672 674 673
3 674 676 675
3 677 678 679
3 670 677 679
3 670 669 677
3 669 680 677
3 673 681 669
3 681 680 669
3 675 682 673
3 682 681 673
3 683 675 676
3 682 675 683
3 608 678 677
3 608 607 678
3 607 684 678
3 609 608 677
3 680 609 677
3 611 609 680
3 681 611 680
3 612 611 681
3 682 612 681
3 682 683 685
3 682 685 612
3 612 685 613
3 685 614 613
3 686 614 685
3 607 616 684
3 684 616 687
3 614 686 618
3 686 688 618
3 689 690 691
3 689 691 687
3 689 687 620
3 620 687 616
3 618 688 621
3 688 692 621
3 624 690 689
3 624 623 690
3 623 693 690
3 620 624 689
3 621 692 626
3 692 694 626
3 623 628 693
3 693 628 695
3 626 694 696
3 629 626 696
3 696 630 629
3 697 630 696
3 628 631 695
3 695 631 698
3 630 697 632
3 697 699 632
3 631 633 698
3 698 633 700
3 632 699 635
3 699 701 635
3 633 636 700
3 700 636 702
3 635 701 638
3 701 703 638
3 640 639 704
3 640 704 705
3 640 705 636
3 636 705 702
3 642 706 707
3 643 642 707
3 703 642 638
3 706 642 703
3 704 645 708
3 639 645 704
3 709 705 704
3 708 709 704
3 643 707 647
3 707 710 647
3 708 648 711
3 645 648 708
3 712 709 708
3 711 712 708
3 713 714 715
3 713 710 714
3 713 650 710
3 650 647 710
3 711 651 716
3 648 651 711
3 717 712 711
3 716 717 711
3 718 719 720
3 718 721 722
3 719 718 722
3 715 722 721
3 713 715 721
3 713 721 654
3 713 654 653
3 650 713 653
3 651 656 716
3 716 723 717
3 716 656 723
3 656 658 723
3 659 724 725
3 659 725 658
3 658 725 723
3 724 726 727
3 725 724 727
3 720 727 726
3 720 726 718
3 718 726 728
3 661 728 662
3 661 721 728
3 721 718 728
3 654 721 661
3 659 664 724
3 667 724 664
3 726 724 667
3 668 726 667
3 728 726 668
3 662 728 668
3 729 730 731
3 729 732 733
3 731 732 729
3 732 734 733
3 735 730 729
3 736 730 735
3 733 737 729
3 737 735 729
3 738 733 734
3 737 733 738
3 735 739 736
3 737 739 735
3 740 739 737
3 738 740 737
3 741 742 743
3 741 744 745
3 743 744 741
3 745 746 747
3 744 746 745
3 746 748 747
3 749 742 741
3 750 742 749
3 671 670 749
3 671 749 745
3 745 749 741
3 672 671 745
3 747 672 745
3 747 748 751
3 747 751 672
3 672 751 674
3 751 676 674
3 752 676 751
3 679 750 749
3 679 678 750
3 678 753 750
3 670 679 749
3 676 752 683
3 752 754 683
3 755 756 757
3 755 757 753
3 755 753 684
3 684 753 678
3 683 754 758
3 685 683 758
3 758 686 685
3 759 686 758
3 760 756 755
3 761 756 760
3 684 687 760
3 755 684 760
3 686 759 688
3 759 762 688
3 691 761 760
3 691 690 761
3 690 763 761
3 687 691 760
3 688 762 692
3 762 764 692
3 690 693 763
3 763 693 765
3 692 764 694
3 764 766 694
3 693 695 765
3 765 695 767
3 768 696 694
3 768 694 769
3 769 694 766
3 696 768 697
3 695 698 767
3 767 698 770
3 771 768 769
3 772 771 769
3 697 771 699
3 768 771 697
3 698 700 770
3 770 700 773
3 774 771 772
3 775 774 772
3 699 774 701
3 771 774 699
3 700 702 773
3 773 702 776
3 777 774 775
3 778 777 775
3 701 777 703
3 774 777 701
3 702 705 776
3 776 705 779
3 780 781 782
3 778 781 780
3 777 778 780
3 777 780 707
3 777 707 706
3 703 777 706
3 705 709 779
3 779 709 783
3 784 785 786
3 784 787 788
3 785 784 788
3 782 788 787
3 782 787 780
3 780 787 789
3 707 789 710
3 780 789 707
3 790 712 791
3 790 783 712
3 783 709 712
3 791 792 793
3 790 791 793
3 792 794 795
3 793 792 795
3 786 795 794
3 786 794 784
3 784 794 796
3 787 784 797
3 797 784 796
3 714 797 715
3 714 789 797
3 789 787 797
3 710 789 714
3 791 717 798
3 712 717 791
3 792 791 799
3 799 791 798
3 794 792 800
3 800 792 799
3 719 800 720
3 719 796 800
3 796 794 800
3 722 796 719
3 797 796 722
3 715 797 722
3 717 723 798
3 725 798 723
3 799 798 725
3 727 799 725
3 800 799 727
3 720 800 727
3 801 802 803
3 801 804 805
3 803 804 801
3 804 806 805
3 807 802 801
3 808 802 807
3 731 730 807
3 731 807 805
3 805 807 801
3 805 806 809
3 805 809 731
3 731 809 732
3 809 734 732
3 810 734 809
3 811 808 807
3 812 808 811
3 730 736 811
3 807 730 811
3 734 810 738
3 810 813 738
3 814 812 811
3 815 812 814
3 736 739 816
3 736 816 811
3 811 816 814
3 739 740 817
3 816 739 817
3 740 818 817
3 740 738 818
3 738 813 818
3 819 815 814
3 820 815 819
3 816 821 814
3 821 819 814
3 817 822 816
3 822 821 816
3 823 817 818
3 823 824 817
3 824 822 817
3 823 825 824
3 826 820 819
3 827 820 826
3 821 828 819
3 828 826 819
3 822 829 821
3 829 828 821
3 824 830 822
3 830 829 822
3 831 824 825
3 830 824 831
3 826 832 827
3 832 833 834
3 832 826 833
3 826 828 833
3 829 835 828
3 835 833 828
3 830 836 829
3 836 835 829
3 837 830 831
3 836 830 837
3 838 834 833
3 839 834 838
3 835 840 833
3 840 838 833
3 836 841 835
3 841 840 835
3 842 836 837
3 841 836 842
3 838 843 839
3 843 844 845
3 843 838 844
3 838 840 844
3 841 846 840
3 846 844 840
3 847 841 842
3 847 848 841
3 848 846 841
3 847 849 848
3 743 845 844
3 743 742 845
3 742 850 845
3 744 743 844
3 846 744 844
3 746 744 846
3 848 746 846
3 848 748 746
3 848 849 748
3 849 851 748
3 852 853 854
3 852 854 850
3 852 850 750
3 750 850 742
3 748 851 855
3 751 748 855
3 855 752 751
3 856 752 855
3 857 853 852
3 858 853 857
3 750 753 857
3 852 750 857
3 752 856 754
3 856 859 754
3 757 858 857
3 757 756 858
3 756 860 858
3 753 757 857
3 861 758 754
3 861 754 862
3 862 754 859
3 758 861 759
3 756 761 860
3 860 761 863
3 861 862 864
3 864 759 861
3 864 865 759
3 865 762 759
3 761 763 863
3 863 763 866
3 762 865 764
3 865 867 764
3 763 765 866
3 866 765 868
3 869 870 871
3 869 867 870
3 869 766 867
3 766 764 867
3 765 767 868
3 868 767 872
3 873 869 871
3 874 873 871
3 766 873 769
3 869 873 766
3 767 770 872
3 872 770 875
3 876 873 874
3 877 876 874
3 769 876 772
3 873 876 769
3 770 773 875
3 875 773 878
3 879 880 881
3 877 880 879
3 877 879 876
3 876 879 882
3 772 882 775
3 876 882 772
3 773 776 878
3 878 776 883
3 884 879 881
3 885 884 881
3 882 879 886
3 886 879 884
3 775 886 778
3 882 886 775
3 776 779 883
3 883 779 887
3 888 884 885
3 889 888 885
3 781 888 782
3 781 886 888
3 886 884 888
3 778 886 781
3 890 783 891
3 890 887 783
3 887 779 783
3 891 892 893
3 890 891 893
3 892 894 895
3 893 892 895
3 894 786 785
3 894 785 895
3 895 785 896
3 889 788 888
3 889 896 788
3 896 785 788
3 782 888 788
3 783 790 891
3 793 891 790
3 892 891 793
3 795 892 793
3 894 892 795
3 786 894 795
3 803 897 898
3 802 897 803
3 804 803 899
3 803 898 899
3 899 806 804
3 900 806 899
3 802 808 897
3 897 808 901
3 806 900 902
3 809 806 902
3 902 810 809
3 903 810 902
3 808 812 901
3 901 812 904
3 810 903 813
3 903 905 813
3 812 815 904
3 904 815 906
3 813 905 818
3 905 907 818
3 815 820 906
3 906 820 908
3 818 907 909
3 823 818 909
3 909 825 823
3 910 825 909
3 820 827 908
3 908 827 911
3 825 910 831
3 910 912 831
3 913 827 832
3 913 914 827
3 914 911 827
3 832 834 913
3 831 912 837
3 912 915 837
3 913 916 914
3 916 913 834
3 916 834 917
3 917 834 839
3 837 915 842
3 915 918 842
3 839 919 917
3 843 919 839
3 919 843 845
3 920 919 845
3 842 918 921
3 847 842 921
3 921 849 847
3 922 849 921
3 845 850 920
3 920 850 923
3 849 922 851
3 922 924 851
3 854 925 926
3 853 925 854
3 923 850 854
3 926 923 854
3 851 924 927
3 855 851 927
3 927 856 855
3 928 856 927
3 853 858 925
3 925 858 929
3 856 928 859
3 928 930 859
3 858 860 929
3 929 860 931
3 859 930 862
3 930 932 862
3 860 863 931
3 931 863 933
3 934 864 862
3 934 862 935
3 935 862 932
3 864 934 865
3 863 866 933
3 933 866 936
3 937 934 935
3 938 937 935
3 865 937 867
3 934 937 865
3 866 868 936
3 936 868 939
3 870 937 938
3 870 938 871
3 871 938 940
3 867 937 870
3 868 872 939
3 939 872 941
3 942 943 944
3 942 940 943
3 942 874 940
3 874 871 940
3 945 875 946
3 945 941 875
3 941 872 875
3 946 947 948
3 945 946 948
3 947 949 950
3 948 947 950
3 949 951 952
3 950 949 952
3 944 952 951
3 944 951 942
3 942 951 953
3 874 953 877
3 942 953 874
3 946 878 954
3 875 878 946
3 947 946 955
3 955 946 954
3 949 947 956
3 956 947 955
3 951 949 957
3 957 949 956
3 880 957 881
3 880 953 957
3 953 951 957
3 877 953 880
3 954 883 958
3 878 883 954
3 955 954 959
3 959 954 958
3 956 955 960
3 960 955 959
3 957 956 961
3 961 956 960
3 881 961 885
3 957 961 881
3 958 887 962
3 883 887 958
3 959 958 963
3 963 958 962
3 960 959 964
3 964 959 963
3 961 960 965
3 965 960 964
3 885 965 889
3 961 965 885
3 887 890 962
3 893 962 890
3 963 962 893
3 895 963 893
3 964 963 895
3 896 964 895
3 965 964 896
3 889 965 896
3 898 897 966
3 898 967 899
3 966 967 898
3 899 967 900
3 966 901 968
3 897 901 966
3 967 966 969
3 969 966 968
3 900 970 902
3 900 967 970
3 967 969 970
3 902 970 903
3 968 971 972
3 968 901 971
3 901 904 971
3 969 968 972
3 973 969 972
3 970 969 973
3 974 970 973
3 974 903 970
3 974 975 903
3 975 905 903
3 904 906 971
3 971 906 976
3 905 975 907
3 975 977 907
3 906 908 976
3 976 908 978
3 907 977 979
3 909 907 979
3 979 910 909
3 980 910 979
3 908 911 978
3 978 911 981
3 910 980 912
3 980 982 912
3 911 914 981
3 981 914 983
3 912 982 915
3 982 984 915
3 914 985 983
3 916 985 914
3 985 916 917
3 986 985 917
3 915 984 918
3 984 987 918
3 917 988 986
3 919 988 917
3 920 989 990
3 920 990 919
3 919 990 988
3 989 991 992
3 990 989 992
3 921 991 993
3 921 987 991
3 921 918 987
3 992 991 987
3 921 993 922
3 989 923 994
3 920 923 989
3 991 989 995
3 995 989 994
3 993 991 996
3 996 991 995
3 922 996 924
3 993 996 922
3 926 997 998
3 925 997 926
3 994 923 926
3 994 926 999
3 999 926 998
3 995 994 999
3 1000 995 999
3 1000 1001 1002
3 1000 1002 995
3 995 1002 996
3 924 1003 927
3 924 996 1003
3 996 1002 1003
3 927 1003 928
3 925 929 997
3 997 929 1004
3 1005 1002 1001
3 1006 1005 1001
3 1003 1002 1007
3 1007 1002 1005
3 928 1007 930
3 1003 1007 928
3 929 931 1004
3 1004 931 1008
3 1009 1005 1006
3 1010 1009 1006
3 1007 1005 1011
3 1011 1005 1009
3 930 1011 932
3 1007 1011 930
3 931 933 1008
3 1008 933 1012
3 1013 1009 1010
3 1014 1013 1010
3 1011 1009 1015
3 1015 1009 1013
3 932 1015 935
3 1011 1015 932
3 933 936 1012
3 1012 936 1016
3 1017 1013 1014
3 1018 1017 1014
3 1015 1013 1019
3 1019 1013 1017
3 935 1019 938
3 1015 1019 935
3 1020 939 1021
3 1020 1016 939
3 1016 936 939
3 1021 1022 1023
3 1020 1021 1023
3 1022 1024 1025
3 1023 1022 1025
3 1018 1025 1024
3 1018 1024 1017
3 1017 1024 1026
3 1019 1017 1027
3 1027 1017 1026
3 938 1027 940
3 1019 1027 938
3 1021 941 1028
3 939 941 1021
3 1022 1021 1029
3 1029 1021 1028
3 1024 1022 1030
3 1030 1022 1029
3 1026 1024 1031
3 1031 1024 1030
3 943 1031 944
3 943 1027 1031
3 1027 1026 1031
3 940 1027 943
3 941 945 1028
3 948 1028 945
3 1029 1028 948
3 950 1029 948
3 1030 1029 950
3 952 1030 950
3 1031 1030 952
3 944 1031 952
3 972 971 1032
3 972 1033 973
3 1032 1033 972
3 973 1034 974
3 1033 1034 973
3 974 1034 975
3 1032 976 1035
3 971 976 1032
3 1033 1032 1036
3 1036 1032 1035
3 1034 1033 1037
3 1037 1033 1036
3 975 1037 977
3 1034 1037 975
3 1035 978 1038
3 976 978 1035
3 1036 1035 1039
3 1039 1035 1038
3 1037 1036 1040
3 1040 1036 1039
3 977 1041 979
3 977 1037 1041
3 1037 1040 1041
3 979 1041 980
3 1038 981 1042
3 978 981 1038
3 1039 1038 1043
3 1043 1038 1042
3 1040 1039 1044
3 1044 1039 1043
3 1041 1040 1045
3 1045 1040 1044
3 980 1045 982
3 1041 1045 980
3 1042 983 1046
3 981 983 1042
3 1043 1042 1047
3 1047 1042 1046
3 1044 1043 1048
3 1048 1043 1047
3 1045 1044 1049
3 1049 1044 1048
3 982 1049 984
3 1045 1049 982
3 983 985 1046
3 986 1046 985
3 986 1050 1046
3 1050 1047 1046
3 1048 1047 1051
3 1051 1047 1050
3 1049 1048 1052
3 1052 1048 1051
3 984 1052 987
3 1049 1052 984
3 986 988 1050
3 990 1050 988
3 1051 1050 990
3 992 1051 990
3 1052 1051 992
3 987 1052 992
3 998 997 1053
3 998 1054 999
3 1053 1054 998
3 999 1055 1000
3 1054 1055 999
3 1000 1055 1001
3 1053 1004 1056
3 997 1004 1053
3 1054 1053 1057
3 1057 1053 1056
3 1055 1054 1058
3 1058 1054 1057
3 1001 1058 1006
3 1055 1058 1001
3 1056 1008 1059
3 1004 1008 1056
3 1057 1056 1060
3 1060 1056 1059
3 1058 1057 1061
3 1061 1057 1060
3 1006 1061 1010
3 1058 1061 1006
3 1059 1012 1062
3 1008 1012 1059
3 1060 1059 1063
3 1063 1059 1062
3 1061 1060 1064
3 1064 1060 1063
3 1010 1064 1014
3 1061 1064 1010
3 1062 1016 1065
3 1012 1016 1062
3 1063 1062 1066
3 1066 1062 1065
3 1064 1063 1067
3 1067 1063 1066
3 1014 1067 1018
3 1064 1067 1014
3 1016 1020 1065
3 1023 1065 1020
3 1066 1065 1023
3 1025 1066 1023
3 1067 1066 1025
3 1018 1067 1025
