# vtk DataFile Version 3.0
this file was written using fslvtkio
ASCII
DATASET POLYDATA
POINTS 642 float
99.9134 122.192 86.6326
97.7288 121.043 86.3149
97.116 117.689 85.9968
99.5642 118.176 86.2959
98.3836 120.482 87.2734
98.7983 120.344 86.2092
97.4103 120.205 84.7112
97.3555 119.392 87.5494
99.0432 122.338 87.4372
97.7686 116.339 86.5216
98.1168 117.331 85.78
98.7021 123.77 85.5765
97.9704 120.846 87.9445
99.0898 120.957 88.8411
98.3072 120.193 87.9151
97.5708 117.77 86.8842
98.4579 118.277 87.0617
97.8764 121.721 85.2002
98.135 120.159 85.462
98.897 122.122 85.125
97.9657 118.684 85.6456
98.282 118.693 85.5682
99.1116 118.891 86.9455
99.0274 121.105 87.1068
99.3811 120.116 86.6263
99.1394 119.341 86.1668
100.524 121.501 85.927
97.6389 120.295 87.0102
97.0575 118.435 86.7971
97.68 119.148 86.1016
97.5587 120.502 85.5739
96.7121 119.368 85.6075
99.4494 123.316 85.8645
99.6377 122.338 87.4254
98.2334 124.243 86.6273
98.0243 122.044 85.7136
98.7688 121.406 86.7121
99.2794 117.912 85.8932
99.0478 115.925 85.6417
99.1176 117.395 86.4471
97.1208 117.494 86.0361
96.6345 116.06 86.1602
98.6 120.992 88.1456
98.7382 120.391 88.3732
98.0571 120.437 88.236
98.4859 120.248 87.4492
99.1824 120.542 87.9951
99.0521 122.132 88.1715
98.8413 121.662 87.5585
97.4505 119.992 87.8435
97.624 119.637 87.6959
98.3257 119.058 87.3875
98.1169 118.86 87.4026
98.0001 118.316 87.0221
98.3914 119.169 87.325
97.3292 118.573 87.4925
97.7795 117.204 86.6508
97.918 117.716 86.6409
98.0612 120.834 85.3479
98.3593 121.069 85.2112
98.4416 121.893 85.2861
99.041 121.328 85.4837
98.5627 120.269 85.8125
97.5486 120.194 84.9298
97.5928 120.815 84.9929
98.572 122.802 85.4268
99.1385 123.278 85.3468
98.0748 118.535 85.3311
98.1116 119.163 85.4845
98.1143 119.273 85.5125
98.427 119.526 85.9524
98.4048 118.283 85.5866
97.8262 117.96 85.7957
97.6791 119.227 85.628
99.0197 120.014 86.9351
99.2095 120.78 86.7622
99.2013 119.666 86.8483
99.7723 121.218 86.647
99.4802 121.803 86.8498
98.7955 120.499 87.3717
98.5299 119.479 87.0715
99.1621 118.31 86.5743
99.0678 119.215 86.6248
99.3421 120.061 86.5139
99.8142 120.777 86.4332
99.6315 120.36 86.3413
99.9426 121.773 86.3165
99.3208 118.688 86.1436
98.9176 120.137 86.385
99.2572 120.826 86.1003
97.6352 119.142 86.7778
97.7364 118.702 86.269
97.9494 119.375 86.4537
97.3341 118.359 85.8733
97.0403 117.539 86.2539
97.3334 118.64 87.2886
97.5431 119.661 87.3392
97.845 120.618 86.5315
98.1361 119.933 86.1594
97.4419 119.671 85.7074
97.2692 118.996 85.8145
97.0511 119.781 85.3172
96.9212 117.914 85.5893
97.8413 120.705 86.0016
97.1802 120.453 85.0826
97.4648 119.622 85.4328
99.4885 123.867 86.8907
99.3793 124.642 87.5035
98.7986 125.036 86.389
99.1363 123.573 87.3053
99.4621 123.006 87.6573
99.7249 122.727 86.8445
99.9777 123.11 86.535
99.2322 123.825 85.4299
98.7712 124.28 86.1864
98.3009 123.091 86.1044
98.7198 122.665 86.7386
98.5831 121.945 86.2688
99.1583 122.111 87.0146
98.4891 123.004 85.7799
97.8444 121.458 86.104
98.0571 121.216 86.5095
99.5791 116.471 85.7323
99.3522 116.629 86.2875
99.0953 117.329 86.0254
97.9231 117.032 86.2494
98.2203 115.512 86.0799
98.6881 116.279 84.8512
98.0439 117.272 85.8036
99.85 117.642 86.1355
99.3152 117.639 86.2421
96.6481 116.396 85.8061
97.1453 115.469 85.2119
97.2848 116.316 85.5026
97.2063 115.45 85.9409
96.7181 116.782 85.8969
96.6711 117.509 85.8354
97.8141 117.021 85.94
99.5453 121.295 87.9493
99.57 121.553 88.0443
99.709 121.334 87.3738
100.179 122.6 85.5872
99.8757 123.05 85.1162
99.8486 122.348 85.6083
98.612 117.452 86.769
98.8021 118.162 86.875
99.2129 117.65 86.7545
99.4622 118.24 85.7571
99.0443 118.934 85.6751
99.1146 117.98 85.3956
98.1256 121.25 87.3791
97.327 120.668 87.6435
98.0813 120.851 86.9373
97.422 121.645 85.5927
97.364 121.213 85.3152
98.1491 121.941 85.6527
96.7569 117.083 86.7326
96.8502 117.61 86.764
96.764 116.307 86.7214
97.3096 118.07 85.9716
96.9609 118.764 85.1428
96.2493 118.625 85.1567
98.6206 120.629 88.3636
98.4487 120.534 88.1601
98.4384 120.668 88.2919
98.1937 120.306 88.0207
98.4847 120.377 88.0466
99.0376 120.709 88.6714
98.8332 121.176 88.752
98.4141 120.873 87.973
97.7317 120.645 88.2029
98.6477 120.479 87.852
99.0246 120.282 88.3473
98.649 120.57 87.6668
99.3927 120.626 88.5714
98.4344 120.004 87.6312
98.4505 120.466 87.3585
98.7551 120.513 87.6016
98.8779 121.662 88.3077
98.8769 121.347 87.609
98.8984 121.839 87.6179
98.3899 121.241 87.6448
99.1892 121.671 88.6406
98.9407 122.428 87.9662
98.9243 122.146 87.3929
97.5076 120.249 88.085
97.8082 120.22 87.9992
97.3745 119.772 87.7971
98.0238 120.027 87.691
97.3218 120.59 88.0676
97.39 119.734 87.5872
97.3324 119.354 87.47
98.2361 118.984 87.6388
98.3668 118.612 87.3175
98.0807 118.809 87.0381
98.2115 118.303 87.0574
98.3399 118.466 87.1604
98.2009 119.588 87.6804
98.2718 119.683 87.6125
98.0328 118.379 86.9828
97.904 118.171 86.8614
98.2714 118.928 87.2523
98.311 119.317 87.4048
98.2414 119.639 87.4006
98.5838 118.605 87.1609
98.3187 119.923 87.2855
98.009 119.14 87.5488
97.7397 118.608 87.4336
97.4488 119.038 87.6768
97.4837 118.161 87.1049
97.3023 118.938 87.5336
97.861 117.905 86.7873
98.0298 118.013 86.8246
97.6981 117.624 86.5785
98.3346 117.862 86.9483
97.633 117.39 86.8703
97.4939 116.572 86.4364
97.7232 117.035 86.4768
98.2529 120.935 85.2579
98.4125 121.311 85.3199
98.2162 121.402 85.2134
98.7691 122.096 85.2158
98.7235 121.494 85.2421
98.3979 120.562 85.3087
98.0186 120.367 85.3237
97.8802 121.309 85.2739
98.2009 121.869 85.3322
98.7618 121.099 85.3705
98.6229 120.817 85.3906
98.8793 120.688 85.5428
98.3661 120.008 85.6858
99.0582 121.672 85.3462
99.0906 120.846 85.6428
98.7189 120.222 85.8031
97.7 120.412 85.187
97.7731 120.824 85.129
97.4752 120.53 84.7448
97.667 121.262 85.159
97.827 120.214 85.1875
97.386 120.255 84.6472
97.3051 120.386 84.5382
98.5575 122.387 85.4294
98.7904 122.65 85.3135
98.8281 123.09 85.294
99.025 122.678 85.309
98.3435 122.061 85.4496
98.6377 123.444 85.414
98.9972 123.773 85.416
98.1594 118.913 85.6724
98.1395 119.274 85.491
98.1662 118.961 85.6555
98.1316 119.765 85.408
98.1598 119.633 85.4986
98.2039 119.064 85.7955
98.2205 118.532 85.3133
98.1236 118.593 85.489
98.0978 118.796 85.6283
98.4024 119.537 85.7283
98.2153 119.224 85.8388
98.5338 119.796 85.9041
98.3118 119.092 85.967
98.7431 120.003 86.0709
98.4227 118.392 85.0286
98.1368 118.292 85.3096
98.0997 118.133 85.6748
97.7673 118.125 85.621
98.738 118.313 85.1963
98.0952 117.931 85.87
97.9207 117.848 86.0329
97.7288 119.063 85.4937
97.7757 119.632 85.0268
97.5904 119.788 84.7681
97.742 118.806 85.6294
97.4505 119.858 85.0537
99.1783 120.551 87.0307
99.4336 120.125 86.8898
99.4107 119.763 87.0453
99.2937 119.8 86.7683
99.3142 120.51 86.6279
99.1175 121.094 86.931
98.7223 120.839 86.9591
98.9204 119.351 86.9923
99.1041 119.275 86.8213
99.3497 121.083 86.7173
99.3573 121.392 86.7672
99.7832 121.525 86.7046
99.3357 121.468 87.0067
99.2983 120.908 86.4671
99.9217 121.823 86.6744
99.857 122.096 86.7057
98.5861 120.402 87.0884
98.5537 119.814 87.058
98.3815 120.334 87.214
98.6878 119.006 86.983
98.6741 120.849 87.1945
98.5528 120.496 87.4531
98.2721 120.028 87.2028
99.2288 118.904 86.7038
98.8691 119.588 86.6621
99.0481 118.812 86.5844
99.1186 119.834 86.6577
99.1252 118.586 86.7148
99.23 118.153 86.363
99.3428 118.434 86.4263
99.9205 120.146 86.5498
99.9662 120.545 86.4407
99.5089 120.402 86.5355
99.8111 120.803 86.2848
100.068 121.066 86.2112
99.6597 120.393 86.607
99.627 119.94 86.6657
99.2817 119.754 86.3359
99.0015 120.068 86.4151
100.157 121.278 86.377
99.812 121.106 86.5102
99.909 121.535 86.458
100.336 121.584 86.0789
99.8289 122.137 86.5236
99.0962 119.877 86.5339
99.0271 119.378 86.2942
99.3069 119.014 86.4207
99.353 118.902 86.0646
99.3976 118.407 86.2377
98.9465 120.558 86.5141
99.5938 120.749 86.2276
98.6905 120.397 86.798
99.8303 121.026 86.038
98.994 119.722 86.1622
98.7537 120.348 86.6263
99.1506 120.669 85.9669
97.5861 118.807 86.5933
97.9807 118.934 86.2731
97.4908 119.233 86.6163
97.8182 119.349 86.255
97.7218 118.94 86.0932
97.3788 118.423 86.4426
97.4594 118.698 86.7291
97.878 119.62 86.8771
97.7498 119.768 86.7197
97.5267 118.439 86.0653
97.382 118.161 86.2245
97.4531 117.947 86.0949
96.9914 117.845 86.4308
97.4643 118.751 85.9152
97.4556 117.901 85.9178
97.1014 117.528 86.0633
97.5162 118.887 87.0235
97.6865 119.316 87.0554
97.4293 119.069 87.2305
97.7246 119.987 87.2247
97.2497 118.525 87.0264
97.3631 118.865 87.4326
97.2851 119.467 87.4634
97.7464 120.033 86.5015
97.8022 119.763 86.3555
98.0649 120.263 86.3347
97.9042 119.589 86.1155
97.8485 120.405 86.7331
97.9947 120.868 86.4279
98.2083 120.493 86.1887
97.3727 119.42 85.6286
97.2172 119.383 85.4645
97.1207 119.712 85.4799
97.0379 119.494 85.4543
96.9138 119.021 85.6447
97.5481 119.013 85.905
97.7489 119.449 85.9177
97.5947 119.969 85.745
97.3801 120.041 85.4561
97.2372 118.376 85.7105
97.4276 118.621 85.7822
97.4727 118.137 85.7253
96.8104 118.515 85.5485
97.1999 117.782 85.7743
97.811 119.909 86.0072
98.0989 119.886 85.8004
98.2529 120.125 86.0552
97.6925 120.695 85.8576
97.8888 120.979 86.1926
97.2935 119.952 85.3205
97.1328 119.754 85.3512
97.2097 120.122 84.9103
97.1561 119.296 85.4374
97.3932 120.422 85.4282
97.2696 120.216 84.7741
97.5037 119.911 85.1068
99.5399 124.316 87.1732
98.9188 125.094 86.8382
99.4874 124.671 86.5812
98.3338 124.836 86.5751
98.5022 124.629 87.0099
99.6286 123.503 87.3298
99.4429 123.127 87.0151
99.5275 123.795 86.3442
99.3046 124.185 86.1357
99.034 124.118 87.5257
99.456 123.514 87.433
99.3401 122.965 87.2357
99.6444 122.805 87.558
98.7061 123.69 87.1345
99.1349 122.861 87.4852
99.1181 122.621 87.6564
99.6508 123.156 86.7393
99.7572 123.48 86.7134
99.6244 123.004 86.6433
99.8656 123.371 86.1291
99.5021 122.317 87.0675
99.9576 122.64 86.6278
99.7786 122.726 86.4749
99.2978 124.369 85.9208
98.8149 124.658 86.1079
99.0971 124.024 86.0032
98.1027 124.422 86.2986
99.3822 123.503 85.5986
98.8482 123.87 85.4316
98.8069 124.08 85.7494
98.5263 122.822 86.3996
98.6695 122.009 86.4187
98.6165 122.282 86.122
98.6763 121.502 86.4502
98.9426 121.821 86.6091
98.5437 123.387 86.6868
98.1437 123.791 86.3955
98.2946 122.566 85.8583
98.3601 121.869 85.9056
99.1497 122.521 86.9528
98.8733 123.206 87.0665
99.2159 122.78 87.1307
99.023 121.646 86.8348
99.1337 122.328 87.1774
98.3059 123.892 86.1081
98.3115 123.419 85.8927
98.4678 123.92 85.8597
98.2095 122.5 85.6536
98.4841 123.535 85.609
98.1492 121.623 86.2265
98.2326 121.647 86.4019
98.0572 121.326 86.332
98.3162 121.254 86.5804
97.9518 121.523 85.8592
97.5706 121.269 86.2914
97.743 121.183 86.4231
99.4865 116.393 85.9548
99.0321 117.212 86.1979
99.0265 117.32 85.9332
99.0754 117.67 86.2865
98.9807 117.41 86.5046
99.1947 116.214 86.0125
99.348 116.044 85.6732
98.9743 117.685 85.9366
99.104 117.619 85.949
98.6167 116.7 86.2612
98.71 115.975 86.1515
98.2285 116.214 86.1675
98.602 115.7 85.7957
98.5968 117.292 86.5384
97.7861 116.6 86.2989
97.9267 115.936 86.293
98.843 116.032 85.2674
98.608 116.763 85.6824
98.3033 116.468 85.4978
98.6584 117.681 85.8132
99.0338 115.954 85.2394
98.2882 116.8 85.3854
97.992 117.163 85.8249
99.4911 117.376 86.0485
99.4823 117.496 86.1211
99.4825 117.647 86.0851
99.2842 117.463 86.3475
99.5463 117.647 86.0354
99.7492 117.973 86.1571
99.6387 117.663 86.1609
97.0105 116.023 85.7152
97.305 115.979 85.3995
96.9082 116.576 85.5414
98.2365 115.904 85.4813
98.2357 115.47 85.2622
96.8637 115.646 85.9326
96.6897 116.083 86.0951
96.8554 117.052 85.747
97.0721 117.107 85.6906
97.466 115.192 85.5758
97.2367 115.423 85.7691
97.617 115.329 85.8616
97.041 115.892 86.069
97.4833 116.004 86.0458
96.6022 116.365 85.7832
96.6368 116.967 85.7986
96.8302 116.893 85.7063
97.0353 117.516 85.8976
96.5632 116.589 86.2954
97.0034 117.266 85.8419
96.8149 117.6 85.9644
97.4476 116.878 85.355
98.1189 116.049 84.7981
98.1077 116.425 85.1007
97.4763 117.475 85.8592
98.0149 117.027 85.9971
99.5585 121.214 88.0933
99.7111 121.321 87.7572
99.7329 121.124 87.6388
99.6798 121.69 87.4515
99.7598 121.893 87.8293
99.4029 121.184 88.534
99.4049 120.922 88.5022
99.3378 120.954 87.5101
99.5998 121.168 87.1278
99.5146 122.432 87.8482
99.3971 122.128 88.126
99.3157 122.633 87.9986
99.5286 120.803 88.0477
98.9941 121.058 87.5485
98.868 120.806 87.6686
99.6895 121.95 87.0173
99.6451 122.095 86.9711
99.6546 122.402 86.7783
100.291 123.182 85.3007
99.6883 122.547 85.3984
100.171 122.172 85.5083
99.3675 122.232 85.3422
99.3546 122.472 85.1466
99.8111 123.247 85.315
100.142 123.312 85.5545
100.335 121.783 85.7135
100.357 121.983 85.6519
99.5931 123.414 85.2996
99.6552 123.466 85.3155
99.4352 123.664 85.3661
100.229 123.011 86.1407
100.223 122.305 86.2205
100.079 122.615 86.3802
99.5855 121.519 85.83
99.4397 121.701 85.6151
99.2939 121.301 85.7026
98.9027 117.6 86.7547
99.0334 117.772 86.7729
99.0799 117.315 86.6731
99.0796 118.204 86.896
98.9792 118.52 86.943
98.6334 118.038 86.8964
98.3593 117.771 86.8368
98.9071 117.247 86.6913
99.1535 117.451 86.5709
98.5624 118.767 87.0999
98.7473 118.399 87.0882
98.4022 119.282 87.1584
97.9756 117.437 86.5816
98.2301 117.231 86.5843
97.9079 117.182 86.482
99.2665 117.664 86.5451
99.0158 117.867 86.5888
99.2521 117.77 86.4091
99.2932 118.518 85.5543
98.9176 118.332 85.4996
99.4208 118.06 85.5382
98.8314 118.225 85.2452
98.582 118.782 85.7208
99.1484 118.978 85.7151
99.4722 118.66 85.7452
99.6608 117.92 85.8171
99.0564 118.183 85.697
98.7406 119.302 85.8408
98.7703 119.447 85.8216
98.6314 119.709 86.0072
99.4833 118.447 85.9105
99.7011 117.787 85.8865
99.6921 118.098 85.9716
98.4031 117.931 85.7933
98.6671 117.761 85.4161
98.081 117.817 85.9049
97.7297 120.985 87.4265
97.7784 120.913 87.3193
98.0122 121.093 87.1574
97.5472 120.653 87.0586
97.6486 120.496 87.291
97.4925 120.865 87.8681
97.9527 121.054 87.6023
98.5379 121.351 87.0609
98.2659 121.208 86.8567
97.5173 120.129 87.5515
97.3857 120.405 87.8193
97.4693 119.913 87.6392
98.5047 121.522 87.4074
98.8824 121.505 87.0661
99.0115 121.854 87.1543
97.9917 120.966 86.6853
97.6302 120.994 86.859
97.7604 121.24 86.6673
97.4447 121.345 85.405
97.6126 121.668 85.4605
97.7594 121.657 85.572
98.0286 121.864 85.389
97.6606 121.438 85.3253
97.3473 120.763 85.4935
97.1686 121.131 85.5978
97.9361 121.775 85.7029
98.0643 122.108 85.6059
97.5635 120.795 85.2888
97.4589 120.761 85.322
97.3631 120.684 84.8562
97.4168 121.336 85.8968
97.6238 121.604 85.8482
97.7068 121.362 86.0816
98.3552 122.512 85.597
98.3762 122.302 85.6272
98.4272 123.061 85.4481
96.8107 117.501 86.8753
96.836 117.02 86.7478
96.7711 116.821 86.7332
97.2546 117.089 86.7514
97.0819 117.446 86.7756
96.8094 118.104 86.9148
96.9215 117.832 86.6782
96.6848 116.503 86.5299
96.751 116.201 86.4299
97.0769 117.885 87.0894
97.2219 118.106 87.0894
97.2087 118.326 87.3459
96.9699 117.169 86.3023
96.6855 116.8 86.3674
96.9663 117.035 86.0306
97.1808 115.766 86.4213
97.3006 116.23 86.5655
97.2514 116.273 86.2633
97.1804 118.323 85.479
96.6587 118.629 85.0919
96.9486 118.327 85.3618
96.5431 118.936 85.3765
96.8123 118.938 85.3922
97.4327 118.557 85.3519
97.6254 118.224 85.7965
97.239 117.872 85.9802
96.9631 117.925 85.7637
97.2221 119.084 85.5265
97.4268 118.782 85.481
97.5313 119.337 85.5228
97.4363 117.407 85.8975
97.4601 117.346 86.0506
97.553 117.222 86.1552
96.5225 117.91 85.5743
96.3236 118.078 85.2681
96.5533 117.752 85.5763
POLYGONS 1280  5120
3 164 162 163
3 163 44 164
3 162 43 163
3 164 42 162
3 166 165 163
3 163 43 166
3 165 44 163
3 166 14 165
3 168 167 162
3 162 42 168
3 167 43 162
3 168 13 167
3 170 169 164
3 164 44 170
3 169 42 164
3 170 12 169
3 173 171 172
3 172 46 173
3 171 43 172
3 173 45 171
3 167 174 172
3 172 43 167
3 174 46 172
3 167 13 174
3 175 166 171
3 171 45 175
3 166 43 171
3 175 14 166
3 177 176 173
3 173 46 177
3 176 45 173
3 177 4 176
3 180 178 179
3 179 48 180
3 178 42 179
3 180 47 178
3 169 181 179
3 179 42 169
3 181 48 179
3 169 12 181
3 182 168 178
3 178 47 182
3 168 42 178
3 182 13 168
3 184 183 180
3 180 48 184
3 183 47 180
3 184 8 183
3 187 185 186
3 186 50 187
3 185 44 186
3 187 49 185
3 165 188 186
3 186 44 165
3 188 50 186
3 165 14 188
3 189 170 185
3 185 49 189
3 170 44 185
3 189 12 170
3 191 190 187
3 187 50 191
3 190 49 187
3 191 7 190
3 194 192 193
3 193 53 194
3 192 52 193
3 194 51 192
3 196 195 193
3 193 52 196
3 195 53 193
3 196 16 195
3 198 197 192
3 192 51 198
3 197 52 192
3 198 14 197
3 200 199 194
3 194 53 200
3 199 51 194
3 200 15 199
3 203 201 202
3 202 45 203
3 201 52 202
3 203 54 201
3 197 175 202
3 202 52 197
3 175 45 202
3 197 14 175
3 204 196 201
3 201 54 204
3 196 52 201
3 204 16 196
3 176 205 203
3 203 45 176
3 205 54 203
3 176 4 205
3 208 206 207
3 207 55 208
3 206 51 207
3 208 50 206
3 199 209 207
3 207 51 199
3 209 55 207
3 199 15 209
3 188 198 206
3 206 50 188
3 198 51 206
3 188 14 198
3 210 191 208
3 208 55 210
3 191 50 208
3 210 7 191
3 213 211 212
3 212 57 213
3 211 53 212
3 213 56 211
3 195 214 212
3 212 53 195
3 214 57 212
3 195 16 214
3 215 200 211
3 211 56 215
3 200 53 211
3 215 15 200
3 217 216 213
3 213 57 217
3 216 56 213
3 217 9 216
3 220 218 219
3 219 60 220
3 218 59 219
3 220 58 218
3 222 221 219
3 219 59 222
3 221 60 219
3 222 19 221
3 224 223 218
3 218 58 224
3 223 59 218
3 224 18 223
3 226 225 220
3 220 60 226
3 225 58 220
3 226 17 225
3 229 227 228
3 228 62 229
3 227 59 228
3 229 61 227
3 223 230 228
3 228 59 223
3 230 62 228
3 223 18 230
3 231 222 227
3 227 61 231
3 222 59 227
3 231 19 222
3 233 232 229
3 229 62 233
3 232 61 229
3 233 5 232
3 236 234 235
3 235 64 236
3 234 58 235
3 236 63 234
3 225 237 235
3 235 58 225
3 237 64 235
3 225 17 237
3 238 224 234
3 234 63 238
3 224 58 234
3 238 18 224
3 240 239 236
3 236 64 240
3 239 63 236
3 240 6 239
3 243 241 242
3 242 66 243
3 241 60 242
3 243 65 241
3 221 244 242
3 242 60 221
3 244 66 242
3 221 19 244
3 245 226 241
3 241 65 245
3 226 60 241
3 245 17 226
3 247 246 243
3 243 66 247
3 246 65 243
3 247 11 246
3 250 248 249
3 249 69 250
3 248 68 249
3 250 67 248
3 252 251 249
3 249 68 252
3 251 69 249
3 252 18 251
3 254 253 248
3 248 67 254
3 253 68 248
3 254 21 253
3 256 255 250
3 250 69 256
3 255 67 250
3 256 20 255
3 259 257 258
3 258 70 259
3 257 68 258
3 259 62 257
3 253 260 258
3 258 68 253
3 260 70 258
3 253 21 260
3 230 252 257
3 257 62 230
3 252 68 257
3 230 18 252
3 261 233 259
3 259 70 261
3 233 62 259
3 261 5 233
3 264 262 263
3 263 72 264
3 262 67 263
3 264 71 262
3 255 265 263
3 263 67 255
3 265 72 263
3 255 20 265
3 266 254 262
3 262 71 266
3 254 67 262
3 266 21 254
3 268 267 264
3 264 72 268
3 267 71 264
3 268 10 267
3 271 269 270
3 270 63 271
3 269 69 270
3 271 73 269
3 251 238 270
3 270 69 251
3 238 63 270
3 251 18 238
3 272 256 269
3 269 73 272
3 256 69 269
3 272 20 256
3 239 273 271
3 271 63 239
3 273 73 271
3 239 6 273
3 276 274 275
3 275 76 276
3 274 75 275
3 276 74 274
3 278 277 275
3 275 75 278
3 277 76 275
3 278 24 277
3 280 279 274
3 274 74 280
3 279 75 274
3 280 23 279
3 282 281 276
3 276 76 282
3 281 74 276
3 282 22 281
3 285 283 284
3 284 78 285
3 283 75 284
3 285 77 283
3 279 286 284
3 284 75 279
3 286 78 284
3 279 23 286
3 287 278 283
3 283 77 287
3 278 75 283
3 287 24 278
3 289 288 285
3 285 78 289
3 288 77 285
3 289 0 288
3 292 290 291
3 291 80 292
3 290 74 291
3 292 79 290
3 281 293 291
3 291 74 281
3 293 80 291
3 281 22 293
3 294 280 290
3 290 79 294
3 280 74 290
3 294 23 280
3 296 295 292
3 292 80 296
3 295 79 292
3 296 4 295
3 299 297 298
3 298 82 299
3 297 76 298
3 299 81 297
3 277 300 298
3 298 76 277
3 300 82 298
3 277 24 300
3 301 282 297
3 297 81 301
3 282 76 297
3 301 22 282
3 303 302 299
3 299 82 303
3 302 81 299
3 303 3 302
3 306 304 305
3 305 85 306
3 304 84 305
3 306 83 304
3 308 307 305
3 305 84 308
3 307 85 305
3 308 26 307
3 310 309 304
3 304 83 310
3 309 84 304
3 310 24 309
3 312 311 306
3 306 85 312
3 311 83 306
3 312 25 311
3 315 313 314
3 314 77 315
3 313 84 314
3 315 86 313
3 309 287 314
3 314 84 309
3 287 77 314
3 309 24 287
3 316 308 313
3 313 86 316
3 308 84 313
3 316 26 308
3 288 317 315
3 315 77 288
3 317 86 315
3 288 0 317
3 320 318 319
3 319 87 320
3 318 83 319
3 320 82 318
3 311 321 319
3 319 83 311
3 321 87 319
3 311 25 321
3 300 310 318
3 318 82 300
3 310 83 318
3 300 24 310
3 322 303 320
3 320 87 322
3 303 82 320
3 322 3 303
3 325 323 324
3 324 89 325
3 323 85 324
3 325 88 323
3 307 326 324
3 324 85 307
3 326 89 324
3 307 26 326
3 327 312 323
3 323 88 327
3 312 85 323
3 327 25 312
3 329 328 325
3 325 89 329
3 328 88 325
3 329 5 328
3 332 330 331
3 331 92 332
3 330 91 331
3 332 90 330
3 334 333 331
3 331 91 334
3 333 92 331
3 334 29 333
3 336 335 330
3 330 90 336
3 335 91 330
3 336 28 335
3 338 337 332
3 332 92 338
3 337 90 332
3 338 27 337
3 341 339 340
3 340 94 341
3 339 91 340
3 341 93 339
3 335 342 340
3 340 91 335
3 342 94 340
3 335 28 342
3 343 334 339
3 339 93 343
3 334 91 339
3 343 29 334
3 345 344 341
3 341 94 345
3 344 93 341
3 345 2 344
3 348 346 347
3 347 96 348
3 346 90 347
3 348 95 346
3 337 349 347
3 347 90 337
3 349 96 347
3 337 27 349
3 350 336 346
3 346 95 350
3 336 90 346
3 350 28 336
3 352 351 348
3 348 96 352
3 351 95 348
3 352 7 351
3 355 353 354
3 354 98 355
3 353 92 354
3 355 97 353
3 333 356 354
3 354 92 333
3 356 98 354
3 333 29 356
3 357 338 353
3 353 97 357
3 338 92 353
3 357 27 338
3 359 358 355
3 355 98 359
3 358 97 355
3 359 1 358
3 362 360 361
3 361 101 362
3 360 100 361
3 362 99 360
3 364 363 361
3 361 100 364
3 363 101 361
3 364 31 363
3 366 365 360
3 360 99 366
3 365 100 360
3 366 29 365
3 368 367 362
3 362 101 368
3 367 99 362
3 368 30 367
3 371 369 370
3 370 93 371
3 369 100 370
3 371 102 369
3 365 343 370
3 370 100 365
3 343 93 370
3 365 29 343
3 372 364 369
3 369 102 372
3 364 100 369
3 372 31 364
3 344 373 371
3 371 93 344
3 373 102 371
3 344 2 373
3 376 374 375
3 375 103 376
3 374 99 375
3 376 98 374
3 367 377 375
3 375 99 367
3 377 103 375
3 367 30 377
3 356 366 374
3 374 98 356
3 366 99 374
3 356 29 366
3 378 359 376
3 376 103 378
3 359 98 376
3 378 1 359
3 381 379 380
3 380 105 381
3 379 101 380
3 381 104 379
3 363 382 380
3 380 101 363
3 382 105 380
3 363 31 382
3 383 368 379
3 379 104 383
3 368 101 379
3 383 30 368
3 385 384 381
3 381 105 385
3 384 104 381
3 385 6 384
3 388 386 387
3 387 108 388
3 386 107 387
3 388 106 386
3 390 389 387
3 387 107 390
3 389 108 387
3 390 34 389
3 392 391 386
3 386 106 392
3 391 107 386
3 392 33 391
3 394 393 388
3 388 108 394
3 393 106 388
3 394 32 393
3 397 395 396
3 396 110 397
3 395 107 396
3 397 109 395
3 391 398 396
3 396 107 391
3 398 110 396
3 391 33 398
3 399 390 395
3 395 109 399
3 390 107 395
3 399 34 390
3 401 400 397
3 397 110 401
3 400 109 397
3 401 8 400
3 404 402 403
3 403 112 404
3 402 106 403
3 404 111 402
3 393 405 403
3 403 106 393
3 405 112 403
3 393 32 405
3 406 392 402
3 402 111 406
3 392 106 402
3 406 33 392
3 408 407 404
3 404 112 408
3 407 111 404
3 408 0 407
3 411 409 410
3 410 114 411
3 409 108 410
3 411 113 409
3 389 412 410
3 410 108 389
3 412 114 410
3 389 34 412
3 413 394 409
3 409 113 413
3 394 108 409
3 413 32 394
3 415 414 411
3 411 114 415
3 414 113 411
3 415 11 414
3 418 416 417
3 417 117 418
3 416 116 417
3 418 115 416
3 420 419 417
3 417 116 420
3 419 117 417
3 420 36 419
3 422 421 416
3 416 115 422
3 421 116 416
3 422 34 421
3 424 423 418
3 418 117 424
3 423 115 418
3 424 35 423
3 427 425 426
3 426 109 427
3 425 116 426
3 427 118 425
3 421 399 426
3 426 116 421
3 399 109 426
3 421 34 399
3 428 420 425
3 425 118 428
3 420 116 425
3 428 36 420
3 400 429 427
3 427 109 400
3 429 118 427
3 400 8 429
3 432 430 431
3 431 119 432
3 430 115 431
3 432 114 430
3 423 433 431
3 431 115 423
3 433 119 431
3 423 35 433
3 412 422 430
3 430 114 412
3 422 115 430
3 412 34 422
3 434 415 432
3 432 119 434
3 415 114 432
3 434 11 415
3 437 435 436
3 436 121 437
3 435 117 436
3 437 120 435
3 419 438 436
3 436 117 419
3 438 121 436
3 419 36 438
3 439 424 435
3 435 120 439
3 424 117 435
3 439 35 424
3 441 440 437
3 437 121 441
3 440 120 437
3 441 1 440
3 444 442 443
3 443 124 444
3 442 123 443
3 444 122 442
3 446 445 443
3 443 123 446
3 445 124 443
3 446 39 445
3 448 447 442
3 442 122 448
3 447 123 442
3 448 38 447
3 450 449 444
3 444 124 450
3 449 122 444
3 450 37 449
3 453 451 452
3 452 126 453
3 451 123 452
3 453 125 451
3 447 454 452
3 452 123 447
3 454 126 452
3 447 38 454
3 455 446 451
3 451 125 455
3 446 123 451
3 455 39 446
3 457 456 453
3 453 126 457
3 456 125 453
3 457 9 456
3 460 458 459
3 459 128 460
3 458 122 459
3 460 127 458
3 449 461 459
3 459 122 449
3 461 128 459
3 449 37 461
3 462 448 458
3 458 127 462
3 448 122 458
3 462 38 448
3 464 463 460
3 460 128 464
3 463 127 460
3 464 10 463
3 467 465 466
3 466 130 467
3 465 124 466
3 467 129 465
3 445 468 466
3 466 124 445
3 468 130 466
3 445 39 468
3 469 450 465
3 465 129 469
3 450 124 465
3 469 37 450
3 471 470 467
3 467 130 471
3 470 129 467
3 471 3 470
3 474 472 473
3 473 133 474
3 472 132 473
3 474 131 472
3 476 475 473
3 473 132 476
3 475 133 473
3 476 38 475
3 478 477 472
3 472 131 478
3 477 132 472
3 478 41 477
3 480 479 474
3 474 133 480
3 479 131 474
3 480 40 479
3 483 481 482
3 482 134 483
3 481 132 482
3 483 126 481
3 477 484 482
3 482 132 477
3 484 134 482
3 477 41 484
3 454 476 481
3 481 126 454
3 476 132 481
3 454 38 476
3 485 457 483
3 483 134 485
3 457 126 483
3 485 9 457
3 488 486 487
3 487 136 488
3 486 131 487
3 488 135 486
3 479 489 487
3 487 131 479
3 489 136 487
3 479 40 489
3 490 478 486
3 486 135 490
3 478 131 486
3 490 41 478
3 492 491 488
3 488 136 492
3 491 135 488
3 492 2 491
3 495 493 494
3 494 127 495
3 493 133 494
3 495 137 493
3 475 462 494
3 494 133 475
3 462 127 494
3 475 38 462
3 496 480 493
3 493 137 496
3 480 133 493
3 496 40 480
3 463 497 495
3 495 127 463
3 497 137 495
3 463 10 497
3 500 498 499
3 499 140 500
3 498 139 499
3 500 138 498
3 502 501 499
3 499 139 502
3 501 140 499
3 502 33 501
3 504 503 498
3 498 138 504
3 503 139 498
3 504 13 503
3 506 505 500
3 500 140 506
3 505 138 500
3 506 23 505
3 509 507 508
3 508 47 509
3 507 139 508
3 509 110 507
3 503 182 508
3 508 139 503
3 182 47 508
3 503 13 182
3 398 502 507
3 507 110 398
3 502 139 507
3 398 33 502
3 183 401 509
3 509 47 183
3 401 110 509
3 183 8 401
3 512 510 511
3 511 79 512
3 510 138 511
3 512 46 510
3 505 294 511
3 511 138 505
3 294 79 511
3 505 23 294
3 174 504 510
3 510 46 174
3 504 138 510
3 174 13 504
3 295 177 512
3 512 79 295
3 177 46 512
3 295 4 177
3 515 513 514
3 514 111 515
3 513 140 514
3 515 78 513
3 501 406 514
3 514 140 501
3 406 111 514
3 501 33 406
3 286 506 513
3 513 78 286
3 506 140 513
3 286 23 506
3 407 289 515
3 515 111 407
3 289 78 515
3 407 0 289
3 518 516 517
3 517 143 518
3 516 142 517
3 518 141 516
3 520 519 517
3 517 142 520
3 519 143 517
3 520 19 519
3 522 521 516
3 516 141 522
3 521 142 516
3 522 32 521
3 524 523 518
3 518 143 524
3 523 141 518
3 524 26 523
3 527 525 526
3 526 113 527
3 525 142 526
3 527 66 525
3 521 413 526
3 526 142 521
3 413 113 526
3 521 32 413
3 244 520 525
3 525 66 244
3 520 142 525
3 244 19 520
3 414 247 527
3 527 113 414
3 247 66 527
3 414 11 247
3 530 528 529
3 529 86 530
3 528 141 529
3 530 112 528
3 523 316 529
3 529 141 523
3 316 86 529
3 523 26 316
3 405 522 528
3 528 112 405
3 522 141 528
3 405 32 522
3 317 408 530
3 530 86 317
3 408 112 530
3 317 0 408
3 533 531 532
3 532 61 533
3 531 143 532
3 533 89 531
3 519 231 532
3 532 143 519
3 231 61 532
3 519 19 231
3 326 524 531
3 531 89 326
3 524 143 531
3 326 26 524
3 232 329 533
3 533 61 232
3 329 89 533
3 232 5 329
3 536 534 535
3 535 146 536
3 534 145 535
3 536 144 534
3 538 537 535
3 535 145 538
3 537 146 535
3 538 22 537
3 540 539 534
3 534 144 540
3 539 145 534
3 540 16 539
3 542 541 536
3 536 146 542
3 541 144 536
3 542 39 541
3 545 543 544
3 544 54 545
3 543 145 544
3 545 80 543
3 539 204 544
3 544 145 539
3 204 54 544
3 539 16 204
3 293 538 543
3 543 80 293
3 538 145 543
3 293 22 538
3 205 296 545
3 545 54 205
3 296 80 545
3 205 4 296
3 548 546 547
3 547 125 548
3 546 144 547
3 548 57 546
3 541 455 547
3 547 144 541
3 455 125 547
3 541 39 455
3 214 540 546
3 546 57 214
3 540 144 546
3 214 16 540
3 456 217 548
3 548 125 456
3 217 57 548
3 456 9 217
3 551 549 550
3 550 81 551
3 549 146 550
3 551 130 549
3 537 301 550
3 550 146 537
3 301 81 550
3 537 22 301
3 468 542 549
3 549 130 468
3 542 146 549
3 468 39 542
3 302 471 551
3 551 81 302
3 471 130 551
3 302 3 471
3 554 552 553
3 553 149 554
3 552 148 553
3 554 147 552
3 556 555 553
3 553 148 556
3 555 149 553
3 556 21 555
3 558 557 552
3 552 147 558
3 557 148 552
3 558 25 557
3 560 559 554
3 554 149 560
3 559 147 554
3 560 37 559
3 563 561 562
3 562 88 563
3 561 148 562
3 563 70 561
3 557 327 562
3 562 148 557
3 327 88 562
3 557 25 327
3 260 556 561
3 561 70 260
3 556 148 561
3 260 21 556
3 328 261 563
3 563 88 328
3 261 70 563
3 328 5 261
3 566 564 565
3 565 129 566
3 564 147 565
3 566 87 564
3 559 469 565
3 565 147 559
3 469 129 565
3 559 37 469
3 321 558 564
3 564 87 321
3 558 147 564
3 321 25 558
3 470 322 566
3 566 129 470
3 322 87 566
3 470 3 322
3 569 567 568
3 568 71 569
3 567 149 568
3 569 128 567
3 555 266 568
3 568 149 555
3 266 71 568
3 555 21 266
3 461 560 567
3 567 128 461
3 560 149 567
3 461 37 560
3 267 464 569
3 569 71 267
3 464 128 569
3 267 10 464
3 572 570 571
3 571 152 572
3 570 151 571
3 572 150 570
3 574 573 571
3 571 151 574
3 573 152 571
3 574 27 573
3 576 575 570
3 570 150 576
3 575 151 570
3 576 12 575
3 578 577 572
3 572 152 578
3 577 150 572
3 578 36 577
3 581 579 580
3 580 49 581
3 579 151 580
3 581 96 579
3 575 189 580
3 580 151 575
3 189 49 580
3 575 12 189
3 349 574 579
3 579 96 349
3 574 151 579
3 349 27 574
3 190 352 581
3 581 49 190
3 352 96 581
3 190 7 352
3 584 582 583
3 583 118 584
3 582 150 583
3 584 48 582
3 577 428 583
3 583 150 577
3 428 118 583
3 577 36 428
3 181 576 582
3 582 48 181
3 576 150 582
3 181 12 576
3 429 184 584
3 584 118 429
3 184 48 584
3 429 8 184
3 587 585 586
3 586 97 587
3 585 152 586
3 587 121 585
3 573 357 586
3 586 152 573
3 357 97 586
3 573 27 357
3 438 578 585
3 585 121 438
3 578 152 585
3 438 36 578
3 358 441 587
3 587 97 358
3 441 121 587
3 358 1 441
3 590 588 589
3 589 155 590
3 588 154 589
3 590 153 588
3 592 591 589
3 589 154 592
3 591 155 589
3 592 17 591
3 594 593 588
3 588 153 594
3 593 154 588
3 594 30 593
3 596 595 590
3 590 155 596
3 595 153 590
3 596 35 595
3 599 597 598
3 598 104 599
3 597 154 598
3 599 64 597
3 593 383 598
3 598 154 593
3 383 104 598
3 593 30 383
3 237 592 597
3 597 64 237
3 592 154 597
3 237 17 592
3 384 240 599
3 599 104 384
3 240 64 599
3 384 6 240
3 602 600 601
3 601 120 602
3 600 153 601
3 602 103 600
3 595 439 601
3 601 153 595
3 439 120 601
3 595 35 439
3 377 594 600
3 600 103 377
3 594 153 600
3 377 30 594
3 440 378 602
3 602 120 440
3 378 103 602
3 440 1 378
3 605 603 604
3 604 65 605
3 603 155 604
3 605 119 603
3 591 245 604
3 604 155 591
3 245 65 604
3 591 17 245
3 433 596 603
3 603 119 433
3 596 155 603
3 433 35 596
3 246 434 605
3 605 65 246
3 434 119 605
3 246 11 434
3 608 606 607
3 607 158 608
3 606 157 607
3 608 156 606
3 610 609 607
3 607 157 610
3 609 158 607
3 610 15 609
3 612 611 606
3 606 156 612
3 611 157 606
3 612 28 611
3 614 613 608
3 608 158 614
3 613 156 608
3 614 41 613
3 617 615 616
3 616 95 617
3 615 157 616
3 617 55 615
3 611 350 616
3 616 157 611
3 350 95 616
3 611 28 350
3 209 610 615
3 615 55 209
3 610 157 615
3 209 15 610
3 351 210 617
3 617 95 351
3 210 55 617
3 351 7 210
3 620 618 619
3 619 135 620
3 618 156 619
3 620 94 618
3 613 490 619
3 619 156 613
3 490 135 619
3 613 41 490
3 342 612 618
3 618 94 342
3 612 156 618
3 342 28 612
3 491 345 620
3 620 135 491
3 345 94 620
3 491 2 345
3 623 621 622
3 622 56 623
3 621 158 622
3 623 134 621
3 609 215 622
3 622 158 609
3 215 56 622
3 609 15 215
3 484 614 621
3 621 134 484
3 614 158 621
3 484 41 614
3 216 485 623
3 623 56 216
3 485 134 623
3 216 9 485
3 626 624 625
3 625 161 626
3 624 160 625
3 626 159 624
3 628 627 625
3 625 160 628
3 627 161 625
3 628 31 627
3 630 629 624
3 624 159 630
3 629 160 624
3 630 20 629
3 632 631 626
3 626 161 632
3 631 159 626
3 632 40 631
3 635 633 634
3 634 73 635
3 633 160 634
3 635 105 633
3 629 272 634
3 634 160 629
3 272 73 634
3 629 20 272
3 382 628 633
3 633 105 382
3 628 160 633
3 382 31 628
3 273 385 635
3 635 73 273
3 385 105 635
3 273 6 385
3 638 636 637
3 637 137 638
3 636 159 637
3 638 72 636
3 631 496 637
3 637 159 631
3 496 137 637
3 631 40 496
3 265 630 636
3 636 72 265
3 630 159 636
3 265 20 630
3 497 268 638
3 638 137 497
3 268 72 638
3 497 10 268
3 641 639 640
3 640 102 641
3 639 161 640
3 641 136 639
3 627 372 640
3 640 161 627
3 372 102 640
3 627 31 372
3 489 632 639
3 639 136 489
3 632 161 639
3 489 40 632
3 373 492 641
3 641 102 373
3 492 136 641
3 373 2 492
