# vtk DataFile Version 3.0
this file was written using fslvtkio
ASCII
DATASET POLYDATA
POINTS 664 float
79.97 123.975 79.3971
78.991 123.968 79.4373
79.2646 122.952 79.4893
80.356 122.727 79.6091
80.9688 123.559 79.4162
81.0965 122.649 79.719
79.1503 125.046 79.5834
78.1315 124.914 80.0575
78.307 124.192 79.6923
80.2116 125.21 79.4976
81.0012 124.725 79.451
81.6841 123.128 79.6237
81.8154 124.17 79.6122
82.2282 123.258 79.7269
82.5186 123.853 79.8699
82.7054 123.083 80.1163
78.917 125.997 80.0182
78.0095 125.842 80.5782
79.9229 126.197 79.7341
81.032 126.012 79.5828
81.8738 125.367 79.7114
82.6222 124.653 79.9375
83.0872 123.65 80.1907
78.8584 126.846 80.5558
78.511 126.54 81.1672
79.79 127.232 80.2256
81.0379 126.99 80.0383
82.1107 126.46 80.0168
82.8861 125.63 80.1033
83.4424 124.578 80.3437
79.6911 127.141 81.1132
80.9089 126.871 80.8946
82.0433 126.753 80.8032
83.0335 126.153 80.7496
83.5838 125.392 80.6669
78.3355 123.476 79.4981
77.3326 123.625 79.8621
78.0012 122.831 79.6504
78.5761 122.155 79.5442
79.7572 121.779 79.6805
81.0253 121.628 79.8041
81.6326 122.298 79.8898
81.8401 121.522 80.0558
77.2963 124.84 80.4984
82.302 122.413 80.1363
83.1252 122.43 80.4676
77.5345 125.76 81.29
83.8091 123.419 80.5992
78.4097 126.106 81.7932
84.02 124.583 80.8696
79.4592 126.364 81.6679
80.5874 126.456 81.6929
81.7091 126.331 81.6082
82.8636 126.06 81.5298
83.851 125.425 81.3955
77.4215 120.702 79.7397
76.4707 120.567 80.0188
77.1001 119.982 80.0252
77.7542 119.613 80.0092
78.4492 120.222 79.7206
78.627 119.403 80.0486
77.185 122.027 79.7798
76.1337 121.827 80.0329
78.3648 121.292 79.7024
79.1939 119.854 79.8542
79.4423 120.773 79.8359
79.9432 119.947 79.9181
76.3635 122.948 80.0767
75.4682 123.232 80.8198
75.3585 122.308 80.3719
80.6132 120.723 79.9896
82.003 120.472 80.3198
82.5154 121.541 80.3501
83.1911 121.188 80.6245
76.4785 124.002 80.4954
76.0252 123.927 81.2423
83.9156 122.106 80.8196
76.7251 124.834 81.1608
76.3458 124.322 81.9058
84.3064 122.81 80.9861
84.4038 123.691 81.0713
84.9446 123.006 81.3167
77.0746 125.246 81.837
78.0156 125.499 82.2273
84.3135 124.499 81.4053
84.9775 123.766 81.6209
79.188 125.719 82.2031
80.266 125.613 82.1301
81.2986 125.55 82.1468
82.4185 125.471 82.0631
83.5218 125.217 82.0867
84.4243 124.55 82.0083
76.8443 119.169 80.1813
75.679 119.022 80.2221
75.9713 118.274 80.2997
77.0815 117.903 80.2884
78.2107 118.628 80.2572
78.3119 117.426 80.4771
79.4373 117.837 80.4018
79.509 116.709 80.8153
75.5581 119.948 80.2735
74.504 119.61 80.5601
75.0341 119.207 80.3265
79.4839 118.994 80.2059
80.5124 117.359 80.5654
80.6735 118.567 80.4698
81.3316 117.864 80.5976
81.7376 118.66 80.5096
82.1318 118.169 80.8123
74.5201 120.737 80.7293
73.6187 121.038 81.3819
73.646 120.13 81.0457
75.3256 121.21 80.2572
80.7709 119.663 80.0854
81.6348 119.393 80.3769
82.6346 119.271 80.786
74.5089 121.979 80.9482
73.9296 122.014 81.8277
83.3815 120.199 80.8982
84.4019 121.286 81.0201
84.4383 120.558 81.2811
85.1462 121.129 81.5441
85.1722 120.616 81.7723
74.8165 122.77 81.514
75.4415 123.546 81.9452
84.8417 122.168 81.2276
85.5064 121.706 81.617
86.0356 121.029 81.9545
76.2414 123.877 82.6297
85.5948 122.671 81.7825
86.3052 121.9 82.2329
77.1035 124.677 82.4816
78.043 124.747 82.8187
85.2603 123.566 82.1471
85.9407 122.853 82.5386
78.9293 125.138 82.6927
79.8581 125.058 82.5486
80.8175 124.699 82.6086
81.905 124.742 82.4915
83.0089 124.591 82.5693
84.0744 124.332 82.6536
85.1013 123.732 82.6616
74.6886 117.364 80.618
73.6163 117.531 80.9234
73.9165 116.652 80.7374
75.0137 116.402 80.5731
75.8959 117.318 80.4593
76.227 116.209 80.6419
77.2042 116.945 80.6152
77.4807 115.978 80.9569
78.3476 116.545 80.7693
78.8469 115.759 81.185
74.6562 118.366 80.4512
73.5051 118.365 80.9868
80.0783 115.997 81.4183
73.6385 119.204 80.8856
72.9002 119.885 81.7526
72.896 118.844 81.3722
80.7668 116.514 81.1064
81.7597 117.023 80.9086
82.7664 117.996 81.1053
73.2636 120.934 82.2426
83.4507 118.648 81.2535
74.0052 121.811 82.6866
83.8177 119.451 81.3974
84.6212 119.98 81.6386
85.5773 120.354 82.1942
74.7276 122.718 82.3714
75.5164 123.223 82.978
86.7452 120.901 82.6149
76.6849 123.223 83.3006
86.6902 122.041 83.0653
77.3268 123.91 82.9636
78.1462 123.97 83.1007
80.979 123.976 82.9432
80.6377 123.268 83.065
80.4073 124.003 82.9261
81.2642 123.351 83.1246
85.826 122.905 83.2228
78.8131 124.398 82.951
79.692 124.335 82.9387
81.5474 124.083 82.9288
82.5114 123.943 82.9947
83.5833 123.704 83.0768
84.6636 123.391 83.1669
74.2899 114.719 80.9694
73.4732 114.259 81.2222
74.0946 113.892 81.0739
74.7853 113.696 81.0443
75.5554 114.499 80.999
75.8468 113.457 81.1204
76.693 114.354 81.1662
76.7333 113.444 81.4587
77.54 114.258 81.4752
77.7551 113.572 81.6813
73.1114 115.349 81.1746
72.2242 115.643 81.6606
72.5804 114.638 81.5537
74.0145 115.88 80.9693
75.1861 115.473 80.8561
76.4472 115.298 80.9214
77.6804 115.068 81.1969
78.6679 114.631 81.5276
72.8645 116.562 81.2002
72.1028 116.969 81.8921
79.7255 115.308 81.6929
72.7793 117.848 81.4559
72.373 118.753 82.0971
80.5145 115.609 81.965
72.9337 119.94 82.8292
81.1356 115.896 81.819
81.898 116.279 81.6349
82.6655 117.062 81.489
83.542 117.951 81.6943
83.1947 117.545 82.1651
73.5593 120.839 83.1101
84.0347 118.746 81.8593
83.9755 118.476 82.6286
74.3949 121.319 83.436
84.8747 119.336 82.2847
86.0057 120.083 82.8613
75.0344 122.22 83.1199
76.1057 122.474 83.6369
86.7007 120.951 83.5065
77.3557 122.445 83.7215
77.9891 123.189 83.4657
79.0884 122.74 83.5267
78.4527 122.174 83.8518
79.9714 122.296 83.4991
79.3482 121.898 83.8398
80.9436 122.41 83.3828
80.2174 121.385 83.8641
82.1788 122.309 83.5177
81.3834 121.489 83.7526
83.3138 122.204 83.7015
82.6347 121.321 83.7749
83.6402 121.246 83.8395
86.1588 122.031 83.7899
78.9772 123.568 83.2076
79.9053 123.196 83.1647
81.9137 123.209 83.2578
83.0159 123.135 83.4417
84.2496 121.947 83.9144
84.1721 122.837 83.6215
85.2119 122.704 83.667
85.1307 121.963 83.9327
73.9083 113.092 81.2216
72.8561 112.877 81.4555
73.3471 112.24 81.4566
74.3106 111.967 81.3728
75.0892 112.727 81.2699
75.431 111.743 81.5124
76.1179 112.533 81.5318
76.8149 111.655 81.8771
77.0491 112.714 81.6558
77.7163 112.509 81.9558
72.7962 113.707 81.4954
71.8182 114.168 82.0402
72.1147 113.149 81.8059
78.4844 113.544 81.8468
71.5522 115.422 82.2633
79.1212 114.022 81.943
79.6537 114.633 82.0474
79.4305 114.085 82.4177
71.7469 116.556 82.488
71.8077 116.707 83.1132
71.6335 115.928 82.8769
80.3651 115.292 82.4364
79.8836 115.011 82.8071
72.0603 117.698 82.5497
72.2475 117.643 83.3254
81.0037 115.675 82.4635
80.8354 115.867 83.1947
72.4778 118.782 83.0006
72.807 118.349 83.6803
81.6895 116.073 82.6584
82.5146 116.64 82.2518
83.0807 117.54 82.7597
73.2821 119.366 83.6428
74.0463 120.216 83.8119
83.456 118.147 83.2029
74.9697 120.814 83.9955
85.0311 119.304 83.1431
84.1463 118.741 83.5107
75.4426 121.623 83.66
76.3057 121.601 84.0539
81.0036 120.607 83.8802
80.5686 119.847 84.0375
79.99 120.312 84.1229
82.1286 120.485 83.9748
81.3694 119.711 84.0438
83.4597 120.335 84.0637
82.4083 119.574 84.027
84.6914 119.912 83.9016
83.4513 119.228 83.9512
85.7845 120.097 83.5942
76.9608 121.923 84.0671
77.9704 121.543 84.2381
79.0754 121.077 84.168
84.5466 120.947 83.9919
85.6995 120.925 83.9992
73.6142 110.107 81.8097
72.6266 110.131 81.9185
72.9307 109.199 82.1837
74.3105 109.169 82.0358
74.8948 110.05 81.7104
75.3703 109.374 82.0678
76.0149 110.141 82.0144
76.411 109.358 82.2407
72.6517 111.007 81.8217
71.7156 111.519 82.2251
71.987 110.614 82.1297
73.4819 111.374 81.6332
74.4973 110.989 81.5599
75.6946 110.926 81.7769
77.0236 110.139 82.3043
76.8104 110.783 82.1073
77.9837 110.723 82.4435
72.3752 112.13 81.8273
71.5488 112.754 82.4063
77.9953 111.697 82.1983
78.5584 112.736 82.1368
78.8233 112.159 82.4787
71.3925 113.917 82.9262
79.0781 113.432 82.1609
79.252 113.119 82.6423
71.4046 115.01 82.9632
71.5713 115.679 83.5184
71.5346 114.479 83.6718
79.271 114.174 82.9387
72.0438 116.505 83.8075
79.7582 115.277 83.399
72.6507 117.226 83.9796
80.1775 115.944 83.8848
73.1819 117.79 84.1917
81.7562 116.681 83.6083
80.8842 116.589 84.0276
82.3809 116.746 82.9785
73.5691 118.62 84.1299
75.2733 119.982 84.3615
74.3755 119.151 84.2336
75.2344 119.082 84.4795
81.2748 117.745 84.1685
80.5774 117.214 84.3403
80.1925 117.86 84.3203
82.2906 117.703 83.9094
82.7124 117.48 83.4089
75.9502 120.791 84.1918
76.0335 119.345 84.6619
76.688 120.129 84.4442
76.9219 119.265 84.6224
80.3679 118.94 84.0368
79.7102 118.338 84.221
79.257 118.818 84.2365
81.556 118.904 84.0681
82.41 118.579 84.1192
83.1795 118.339 83.7658
77.1075 121.03 84.3363
77.522 119.696 84.4033
78.1407 120.41 84.3319
79.213 119.856 84.2149
78.3663 119.321 84.3502
72.0465 109.788 82.2113
71.408 110.414 82.576
71.7941 109.319 82.6843
72.3933 108.274 82.5253
73.8317 108.389 82.3548
75.4583 108.537 82.4099
76.9306 108.985 82.5943
71.2521 111.433 82.8891
77.7687 109.792 82.6014
79.2012 109.955 82.9333
71.358 112.53 83.3674
78.9382 111.247 82.5893
79.2604 112.223 82.9815
71.6422 113.31 84.0808
79.0646 113.218 83.2087
72.0943 115.355 84.1448
72.1646 114.341 84.3164
79.0279 114.305 83.2637
72.7517 116.087 84.3734
79.1263 114.988 83.6134
78.6037 114.386 83.5965
78.566 115.049 83.8689
73.2677 116.845 84.4408
79.351 115.704 83.9399
78.707 115.819 84.1246
73.6268 117.375 84.4077
73.7457 117.999 84.37
74.1272 117.552 84.4755
79.737 116.721 84.2847
78.814 116.703 84.2331
74.298 118.28 84.523
75.6374 118.714 84.6995
75.1304 118.253 84.6187
75.9481 118.172 84.8257
79.1527 117.634 84.3073
78.1549 116.945 84.2696
78.0701 117.559 84.331
77.6182 118.744 84.5265
76.7239 118.52 84.7675
78.3784 118.346 84.3924
77.407 117.901 84.5788
73.4058 107.509 82.658
72.2077 107.606 83.2085
73.3056 106.829 83.1848
74.5373 106.873 82.951
74.7523 107.728 82.5523
75.7597 107.138 82.9246
75.653 107.82 82.6628
76.5147 107.892 82.962
71.1234 110.01 83.3394
71.4537 108.602 83.2755
77.2335 108.456 82.8431
78.1335 109.144 82.8689
78.9726 108.602 83.1747
71.2765 111.161 83.6838
79.9715 109.445 83.6829
71.6231 111.86 84.2386
79.4798 111.209 83.2775
79.3847 110.647 83.9191
72.4205 112.452 84.6791
78.8603 112.113 83.6101
78.3204 111.6 84.0572
73.0582 114.925 84.6236
72.7518 113.557 84.6614
78.1274 112.992 83.9354
77.6991 112.252 84.1156
77.4021 113.06 84.2262
78.6479 113.531 83.5503
73.7029 115.902 84.6058
73.7962 114.293 84.8154
74.4978 115.209 84.8064
75.6248 114.797 84.7914
74.7987 114.12 84.8917
76.6185 114.409 84.6574
75.7681 113.698 84.745
77.5673 114.007 84.3368
76.7093 113.341 84.5235
78.2166 114.207 83.9209
74.0061 116.885 84.659
74.6986 116.363 84.7435
75.5273 115.884 84.8045
76.3913 115.408 84.7385
77.232 115.145 84.4648
77.9304 115.021 84.1401
74.704 117.379 84.6272
75.5983 117.136 84.7456
76.3654 116.503 84.8189
77.0633 116.054 84.5855
77.9212 116.027 84.312
76.6006 117.471 84.8012
77.3862 116.912 84.581
72.3071 106.997 83.7069
73.1754 106.233 83.4777
74.3517 106.13 83.2185
75.6817 106.38 83.2578
77.1198 106.986 83.3304
77.7954 107.955 83.2539
78.7934 107.546 83.4881
71.3847 109.283 84.0174
71.8096 108.181 84.1941
79.8726 108.443 83.8428
71.6314 110.414 84.3872
72.0007 109.318 84.705
79.1296 109.481 84.4189
72.3879 111.188 84.8193
78.222 110.658 84.3164
73.0605 111.85 84.9854
73.4776 112.638 84.8737
73.8226 111.796 85.0389
76.6717 111.69 84.5252
76.3658 111.026 84.6843
75.9654 111.69 84.6811
77.502 111.457 84.2644
77.1941 110.742 84.4951
73.9462 113.528 84.8257
74.3785 112.231 84.924
74.8654 112.965 84.6861
75.9955 112.6 84.6194
75.2132 111.924 84.7843
76.9135 112.411 84.3266
73.7771 105.579 83.6699
72.6359 106.068 84.0008
73.2222 105.322 84.2837
74.3633 105.075 83.9673
75.2548 105.441 83.4204
75.588 104.863 83.9374
76.6511 105.963 83.6928
77.013 105.194 84.0619
78.2256 106.452 83.6898
78.1938 105.657 84.1067
79.2381 106.308 83.8476
79.1609 105.724 84.1708
72.0613 106.985 84.4944
79.899 107.178 83.7858
80.1547 106.473 84.3303
72.4065 107.885 84.9757
79.7174 108.355 84.54
80.1437 107.427 84.6509
72.8832 110.091 85.0852
72.8785 108.802 85.1684
77.1304 109.251 84.9407
76.7718 108.439 85.3189
76.1967 109.257 85.3048
78.1605 109.254 84.7541
78.3363 108.49 84.9414
79.2842 107.805 85.0058
73.5291 110.976 85.0396
73.8794 109.527 85.2557
74.5023 110.335 85.1437
75.8339 110.009 85.109
75.0321 109.47 85.284
76.6932 110.293 84.8588
77.8254 109.93 84.5888
74.5472 111.303 84.915
75.5282 110.903 84.7846
76.0463 104.438 84.3164
75.0158 104.368 84.4275
75.395 103.943 84.8116
76.2864 103.948 84.638
76.8146 104.455 84.3132
77.0066 104.107 84.5297
72.3943 106.01 84.8167
73.0147 105.169 85.0492
73.9844 104.616 84.5038
77.6058 104.849 84.3306
78.4818 104.863 84.4637
79.6696 105.5 84.5294
79.3003 104.832 84.7352
72.5697 107.019 85.3474
79.7012 106.144 85.0909
79.7083 105.444 85.2237
73.2431 107.836 85.5155
78.8099 105.914 85.6569
79.5284 106.903 85.0946
74.0021 108.324 85.5784
74.3863 108.868 85.4539
75.5959 108.784 85.455
75.3927 108.237 85.7192
76.288 107.751 85.6755
77.3116 107.622 85.426
78.3729 107.469 85.2691
74.4699 104.113 85.0666
75.1249 103.693 85.4265
75.968 103.625 85.1918
76.8018 103.623 84.8999
77.6338 104.234 84.537
77.5138 103.793 84.8223
78.0241 104.149 84.6308
78.1417 103.771 84.8817
72.913 106.177 85.6066
73.1477 105.349 85.722
73.5738 104.565 85.3642
78.8827 104.102 84.895
79.5965 104.668 85.2379
79.4431 103.936 85.1893
79.7063 104.234 85.6309
79.6197 103.708 85.5587
73.7808 107.052 85.84
73.7175 106.102 86.1147
79.2658 105.213 85.6787
79.3974 104.627 85.8349
79.6338 104.012 85.9878
74.357 107.705 85.7053
74.7514 106.607 86.157
75.2337 107.278 85.8064
76.538 107.024 85.7754
75.7474 106.587 86.0383
77.5461 106.817 85.6641
76.7415 106.19 86.0339
78.4019 106.648 85.4481
77.7716 105.928 85.8406
78.2279 105.271 86.0478
78.7974 104.927 86.0689
79.3253 104.332 86.2309
74.4312 103.948 85.8089
75.1864 103.582 85.9419
75.765 103.462 85.7814
76.5135 103.254 85.4783
77.303 103.334 85.1366
77.7806 103.08 85.3428
73.48 105.018 86.1532
73.7703 104.318 86.1248
78.512 103.07 85.2967
79.2281 103.29 85.4099
79.6486 103.361 85.9082
73.8974 105.506 86.5687
79.5949 103.727 86.3302
74.5676 105.941 86.512
75.5529 106.009 86.4525
76.377 105.757 86.5153
75.8488 105.537 86.8777
77.1291 105.555 86.3888
77.7254 105.235 86.3532
78.3038 104.905 86.445
78.7384 104.578 86.5578
79.2496 104.204 86.6436
76.6644 105.351 86.8621
77.37 105.096 86.8197
77.9255 104.838 86.8161
78.3961 104.634 86.8418
74.9828 103.555 86.2205
75.5151 103.38 86.3204
76.2896 103.187 86.1774
77.0686 103.021 85.7801
73.9382 104.756 86.6397
74.3085 103.996 86.6011
74.9931 103.493 86.6753
75.8406 103.287 86.7974
76.8827 103.038 86.4026
77.7271 102.709 85.9636
78.4927 102.362 85.9123
79.163 102.386 85.6867
79.7409 102.646 85.8102
79.8751 103.207 86.3173
80.0629 102.542 86.4565
74.3577 105.303 86.8783
74.4404 104.629 87.0851
79.6385 103.621 86.6752
79.8959 103.121 86.7946
75.0578 105.524 86.9612
75.5677 105.173 87.3223
79.1284 103.993 87.2705
78.7283 104.299 87.0203
79.5388 103.669 87.0928
76.1945 105.123 87.3054
76.8871 104.968 87.2996
77.5111 104.747 87.2755
78.0976 104.499 87.2076
74.7789 103.873 87.3209
75.4171 103.415 87.4121
76.1418 103.264 87.3421
76.7729 103.129 86.9564
77.5034 102.79 86.7235
78.0811 102.486 86.5161
78.8947 102.123 86.3917
79.6645 102.038 86.3057
79.8127 102.34 86.9349
74.9962 104.731 87.4695
75.3938 104.093 87.7739
76.0035 103.638 87.8551
79.7582 103.081 87.2793
75.7329 104.746 87.7477
76.15 104.252 88.0352
78.8149 103.776 87.7567
78.5418 104.243 87.5936
79.274 103.465 87.5163
76.4408 104.822 87.7736
77.1842 104.69 87.7992
77.8934 104.497 87.8026
76.7122 103.327 87.6522
77.3989 103.08 87.2864
78.0301 102.856 86.9883
78.5996 102.597 86.8842
79.2491 102.257 86.823
76.7058 103.862 88.0549
77.3804 103.531 87.918
77.9584 103.24 87.5618
78.5823 103.154 87.4089
79.1629 102.746 87.1999
76.7536 104.39 88.1143
77.4094 104.184 88.1354
78.0879 103.888 87.9644
POLYGONS 1324  5296
3 0 1 2
3 0 3 4
3 2 3 0
3 3 5 4
3 6 7 8
3 1 6 8
3 1 0 6
3 0 9 6
3 4 10 0
3 10 9 0
3 11 4 5
3 11 12 4
3 12 10 4
3 12 13 14
3 11 13 12
3 13 15 14
3 16 7 6
3 17 7 16
3 9 18 6
3 18 16 6
3 10 19 9
3 19 18 9
3 12 20 10
3 20 19 10
3 14 21 12
3 21 20 12
3 22 14 15
3 21 14 22
3 23 17 16
3 24 17 23
3 18 25 16
3 25 23 16
3 19 26 18
3 26 25 18
3 20 27 19
3 27 26 19
3 21 28 20
3 28 27 20
3 29 21 22
3 28 21 29
3 23 30 24
3 25 30 23
3 31 30 25
3 26 31 25
3 32 31 26
3 27 32 26
3 33 32 27
3 28 33 27
3 34 33 28
3 29 34 28
3 35 36 37
3 35 2 1
3 35 37 2
3 37 38 2
3 3 2 39
3 2 38 39
3 5 40 41
3 5 3 40
3 3 39 40
3 40 42 41
3 8 36 35
3 8 7 36
3 7 43 36
3 1 8 35
3 5 41 11
3 41 42 44
3 41 44 11
3 11 44 13
3 44 15 13
3 45 15 44
3 7 17 43
3 43 17 46
3 15 45 22
3 45 47 22
3 17 24 46
3 46 24 48
3 22 47 29
3 47 49 29
3 24 50 48
3 30 50 24
3 31 51 30
3 30 51 50
3 32 52 31
3 31 52 51
3 33 53 32
3 32 53 52
3 34 54 33
3 33 54 53
3 49 34 29
3 54 34 49
3 55 56 57
3 55 58 59
3 57 58 55
3 58 60 59
3 61 56 55
3 62 56 61
3 59 63 55
3 63 61 55
3 64 59 60
3 64 65 59
3 65 63 59
3 64 66 65
3 67 68 69
3 62 67 69
3 61 67 62
3 61 36 67
3 61 37 36
3 38 37 61
3 63 38 61
3 39 38 63
3 65 39 63
3 65 66 70
3 65 70 39
3 39 70 40
3 42 71 72
3 42 40 71
3 40 70 71
3 71 73 72
3 74 68 67
3 75 68 74
3 36 43 74
3 67 36 74
3 42 72 44
3 72 45 44
3 72 73 45
3 73 76 45
3 77 75 74
3 78 75 77
3 43 46 77
3 74 43 77
3 79 80 47
3 79 47 76
3 76 47 45
3 79 81 80
3 77 82 78
3 82 77 46
3 82 46 83
3 83 46 48
3 80 84 49
3 47 80 49
3 85 80 81
3 84 80 85
3 48 86 83
3 50 86 48
3 51 87 50
3 50 87 86
3 52 88 51
3 51 88 87
3 53 89 52
3 52 89 88
3 54 90 53
3 53 90 89
3 84 54 49
3 84 91 54
3 91 90 54
3 85 91 84
3 92 93 94
3 92 95 96
3 94 95 92
3 96 97 98
3 95 97 96
3 97 99 98
3 100 101 102
3 93 100 102
3 92 100 93
3 92 56 100
3 92 57 56
3 58 57 92
3 96 58 92
3 60 58 96
3 60 96 103
3 103 96 98
3 104 98 99
3 104 105 98
3 105 103 98
3 105 106 107
3 104 106 105
3 106 108 107
3 109 110 111
3 101 109 111
3 101 100 109
3 100 112 109
3 56 62 112
3 100 56 112
3 60 103 64
3 66 64 103
3 66 103 113
3 113 103 105
3 107 114 105
3 114 113 105
3 115 107 108
3 114 107 115
3 116 110 109
3 117 110 116
3 69 68 116
3 69 116 112
3 112 116 109
3 62 69 112
3 66 113 70
3 71 70 113
3 114 71 113
3 73 118 119
3 71 118 73
3 71 115 118
3 71 114 115
3 119 120 121
3 118 120 119
3 120 122 121
3 116 123 117
3 123 116 68
3 123 68 124
3 124 68 75
3 119 125 76
3 73 119 76
3 121 126 119
3 126 125 119
3 127 121 122
3 126 121 127
3 75 78 124
3 124 78 128
3 76 125 79
3 81 79 125
3 81 125 129
3 129 125 126
3 130 126 127
3 129 126 130
3 78 131 128
3 82 131 78
3 131 82 83
3 132 131 83
3 129 133 85
3 81 129 85
3 134 129 130
3 133 129 134
3 83 135 132
3 86 135 83
3 87 136 86
3 86 136 135
3 88 137 87
3 87 137 136
3 89 138 88
3 88 138 137
3 90 139 89
3 89 139 138
3 91 140 90
3 90 140 139
3 133 91 85
3 133 141 91
3 141 140 91
3 134 141 133
3 142 143 144
3 142 145 146
3 144 145 142
3 146 147 148
3 145 147 146
3 148 149 150
3 147 149 148
3 149 151 150
3 152 143 142
3 153 143 152
3 94 93 152
3 94 152 146
3 146 152 142
3 95 94 146
3 148 95 146
3 97 95 148
3 150 97 148
3 150 99 97
3 150 151 99
3 151 154 99
3 155 156 157
3 153 155 157
3 152 155 153
3 152 101 155
3 152 102 101
3 93 102 152
3 99 154 158
3 104 99 158
3 106 104 159
3 104 158 159
3 159 108 106
3 160 108 159
3 111 156 155
3 111 110 156
3 110 161 156
3 101 111 155
3 108 160 115
3 160 162 115
3 110 117 161
3 161 117 163
3 115 162 164
3 118 115 164
3 120 118 165
3 118 164 165
3 165 122 120
3 166 122 165
3 117 167 163
3 123 167 117
3 167 123 124
3 168 167 124
3 122 166 127
3 166 169 127
3 124 128 168
3 168 128 170
3 127 169 130
3 169 171 130
3 128 172 170
3 131 172 128
3 172 131 132
3 173 172 132
3 174 175 176
3 175 174 177
3 130 171 134
3 171 178 134
3 132 179 173
3 135 179 132
3 136 180 135
3 135 180 179
3 176 137 174
3 176 180 137
3 180 136 137
3 174 181 177
3 174 137 181
3 137 138 181
3 139 182 138
3 138 182 181
3 140 183 139
3 139 183 182
3 141 184 140
3 140 184 183
3 178 141 134
3 184 141 178
3 185 186 187
3 185 188 189
3 187 188 185
3 189 190 191
3 188 190 189
3 191 192 193
3 190 192 191
3 192 194 193
3 195 196 197
3 186 195 197
3 186 185 195
3 185 198 195
3 189 199 185
3 199 198 185
3 191 200 189
3 200 199 189
3 193 201 191
3 201 200 191
3 202 193 194
3 201 193 202
3 203 196 195
3 204 196 203
3 144 143 203
3 144 203 198
3 198 203 195
3 145 144 198
3 199 145 198
3 147 145 199
3 200 147 199
3 149 147 200
3 201 149 200
3 201 151 149
3 201 202 151
3 202 205 151
3 206 204 203
3 207 204 206
3 143 153 206
3 203 143 206
3 151 205 154
3 205 208 154
3 157 207 206
3 157 156 207
3 156 209 207
3 153 157 206
3 154 208 210
3 158 154 210
3 159 158 211
3 158 210 211
3 160 212 213
3 160 159 212
3 159 211 212
3 212 214 213
3 156 161 209
3 209 161 215
3 213 216 162
3 160 213 162
3 217 213 214
3 216 213 217
3 161 163 215
3 215 163 218
3 162 216 164
3 216 217 219
3 216 219 164
3 164 219 165
3 219 166 165
3 220 166 219
3 163 221 218
3 167 221 163
3 221 167 168
3 222 221 168
3 166 220 169
3 220 223 169
3 224 170 225
3 224 222 170
3 222 168 170
3 225 226 227
3 224 225 227
3 226 228 229
3 227 226 229
3 228 230 231
3 229 228 231
3 230 232 233
3 231 230 233
3 232 234 235
3 233 232 235
3 235 234 236
3 169 223 171
3 223 237 171
3 170 172 225
3 173 225 172
3 173 238 225
3 238 226 225
3 228 226 239
3 239 226 238
3 175 239 176
3 175 230 239
3 230 228 239
3 177 230 175
3 177 240 230
3 240 232 230
3 234 232 241
3 241 232 240
3 242 236 234
3 242 234 243
3 243 234 241
3 243 244 245
3 242 243 245
3 244 237 245
3 244 178 237
3 178 171 237
3 173 179 238
3 180 238 179
3 239 238 180
3 176 239 180
3 177 181 240
3 182 240 181
3 241 240 182
3 183 241 182
3 243 241 183
3 184 243 183
3 244 243 184
3 178 244 184
3 246 247 248
3 246 249 250
3 248 249 246
3 250 251 252
3 249 251 250
3 252 253 254
3 251 253 252
3 253 255 254
3 256 257 258
3 247 256 258
3 246 256 247
3 246 186 256
3 246 187 186
3 188 187 246
3 250 188 246
3 190 188 250
3 252 190 250
3 192 190 252
3 254 192 252
3 254 194 192
3 254 255 194
3 255 259 194
3 197 257 256
3 197 196 257
3 196 260 257
3 186 197 256
3 261 262 202
3 261 202 259
3 259 202 194
3 261 263 262
3 264 265 266
3 264 266 260
3 264 260 204
3 204 260 196
3 262 267 205
3 202 262 205
3 268 262 263
3 267 262 268
3 269 265 264
3 270 265 269
3 204 207 269
3 264 204 269
3 267 271 208
3 205 267 208
3 272 267 268
3 271 267 272
3 273 270 269
3 274 270 273
3 207 209 273
3 269 207 273
3 208 271 210
3 271 272 275
3 271 275 210
3 210 275 211
3 212 211 276
3 211 275 276
3 276 214 212
3 277 214 276
3 273 278 274
3 278 273 209
3 278 209 279
3 279 209 215
3 214 277 217
3 277 280 217
3 215 218 279
3 279 218 281
3 282 219 217
3 282 217 283
3 283 217 280
3 219 282 220
3 218 284 281
3 221 284 218
3 284 221 222
3 285 284 222
3 286 287 288
3 286 289 290
3 287 286 290
3 289 291 292
3 290 289 292
3 291 293 294
3 292 291 294
3 283 294 293
3 283 293 282
3 282 293 295
3 220 295 223
3 282 295 220
3 222 296 285
3 224 296 222
3 227 297 224
3 224 297 296
3 229 298 227
3 227 298 297
3 288 231 286
3 288 298 231
3 298 229 231
3 233 286 231
3 289 286 233
3 235 289 233
3 291 289 235
3 236 291 235
3 236 299 291
3 299 293 291
3 295 293 300
3 300 293 299
3 223 300 237
3 295 300 223
3 236 242 299
3 245 299 242
3 300 299 245
3 237 300 245
3 301 302 303
3 301 304 305
3 303 304 301
3 305 306 307
3 304 306 305
3 306 308 307
3 309 310 311
3 302 309 311
3 302 301 309
3 301 312 309
3 305 313 301
3 313 312 301
3 307 314 305
3 314 313 305
3 315 307 308
3 315 316 307
3 316 314 307
3 315 317 316
3 318 310 309
3 319 310 318
3 248 247 318
3 248 318 312
3 312 318 309
3 249 248 312
3 313 249 312
3 251 249 313
3 314 251 313
3 253 251 314
3 316 253 314
3 255 320 321
3 253 320 255
3 253 317 320
3 253 316 317
3 320 322 321
3 258 319 318
3 258 257 319
3 257 323 319
3 247 258 318
3 321 324 259
3 255 321 259
3 325 321 322
3 324 321 325
3 326 327 328
3 326 328 323
3 326 323 260
3 260 323 257
3 259 324 261
3 324 263 261
3 324 325 263
3 325 329 263
3 266 327 326
3 266 265 327
3 265 330 327
3 260 266 326
3 263 329 268
3 329 331 268
3 265 270 330
3 330 270 332
3 268 331 272
3 331 333 272
3 270 274 332
3 332 274 334
3 335 275 272
3 335 272 336
3 336 272 333
3 275 337 276
3 335 337 275
3 276 337 277
3 274 338 334
3 278 338 274
3 279 339 340
3 279 340 278
3 278 340 338
3 340 339 341
3 342 343 344
3 336 343 342
3 336 342 335
3 335 342 345
3 337 335 346
3 346 335 345
3 277 346 280
3 337 346 277
3 339 281 347
3 279 281 339
3 348 341 339
3 348 339 349
3 349 339 347
3 348 349 350
3 351 352 353
3 344 352 351
3 344 351 342
3 342 351 354
3 345 342 355
3 355 342 354
3 346 345 356
3 356 345 355
3 280 356 283
3 346 356 280
3 281 284 347
3 285 347 284
3 285 357 347
3 357 349 347
3 358 350 349
3 358 349 359
3 359 349 357
3 359 360 361
3 358 359 361
3 353 361 360
3 351 353 360
3 351 360 288
3 351 288 287
3 290 351 287
3 354 351 290
3 292 354 290
3 355 354 292
3 294 355 292
3 356 355 294
3 283 356 294
3 285 296 357
3 297 357 296
3 359 357 297
3 298 359 297
3 360 359 298
3 288 360 298
3 362 363 364
3 362 303 302
3 362 364 303
3 364 365 303
3 304 303 366
3 303 365 366
3 306 304 367
3 304 366 367
3 367 308 306
3 368 308 367
3 311 363 362
3 311 310 363
3 310 369 363
3 302 311 362
3 308 368 370
3 315 308 370
3 370 317 315
3 371 317 370
3 310 319 369
3 369 319 372
3 317 371 373
3 320 317 373
3 373 322 320
3 374 322 373
3 319 323 372
3 372 323 375
3 322 374 325
3 374 376 325
3 328 377 378
3 327 377 328
3 375 323 328
3 378 375 328
3 325 376 329
3 376 379 329
3 327 330 377
3 377 330 380
3 381 382 383
3 381 379 382
3 381 331 379
3 331 329 379
3 330 332 380
3 380 332 384
3 385 381 383
3 386 385 383
3 331 385 333
3 381 385 331
3 387 334 388
3 387 384 334
3 384 332 334
3 387 388 389
3 390 385 386
3 391 390 386
3 333 390 336
3 385 390 333
3 334 338 388
3 388 392 389
3 388 338 392
3 338 340 392
3 341 393 394
3 341 394 340
3 340 394 392
3 394 393 395
3 396 397 398
3 391 397 396
3 390 391 396
3 390 396 344
3 390 344 343
3 336 390 343
3 341 348 393
3 350 399 400
3 348 350 400
3 348 400 395
3 348 395 393
3 399 401 402
3 400 399 402
3 398 402 401
3 396 398 401
3 396 401 353
3 396 353 352
3 344 396 352
3 350 358 399
3 361 399 358
3 401 399 361
3 353 401 361
3 403 404 405
3 403 406 407
3 405 406 403
3 407 408 409
3 406 408 407
3 408 410 409
3 364 411 412
3 363 411 364
3 404 403 365
3 404 365 412
3 412 365 364
3 366 365 403
3 407 366 403
3 367 366 407
3 409 367 407
3 368 413 414
3 367 413 368
3 367 410 413
3 367 409 410
3 413 415 414
3 363 369 411
3 411 369 416
3 368 414 370
3 414 371 370
3 414 415 371
3 415 417 371
3 369 372 416
3 416 372 418
3 419 373 371
3 419 371 420
3 420 371 417
3 373 419 374
3 372 375 418
3 418 375 421
3 422 419 420
3 423 422 420
3 374 422 376
3 419 422 374
3 378 377 424
3 378 424 425
3 378 425 375
3 375 425 421
3 426 427 428
3 423 427 426
3 423 426 422
3 422 426 429
3 376 429 379
3 422 429 376
3 424 380 430
3 377 380 424
3 431 425 424
3 431 424 432
3 432 424 430
3 432 433 434
3 431 432 434
3 433 435 436
3 434 433 436
3 435 437 438
3 436 435 438
3 428 438 437
3 428 437 426
3 426 437 439
3 382 439 383
3 382 429 439
3 429 426 439
3 379 429 382
3 430 384 440
3 380 384 430
3 432 430 441
3 441 430 440
3 433 432 442
3 442 432 441
3 435 433 443
3 443 433 442
3 437 435 444
3 444 435 443
3 439 437 445
3 445 437 444
3 383 445 386
3 439 445 383
3 384 387 440
3 389 440 387
3 389 446 440
3 446 441 440
3 442 441 447
3 447 441 446
3 443 442 448
3 448 442 447
3 444 443 449
3 449 443 448
3 445 444 450
3 450 444 449
3 386 450 391
3 445 450 386
3 389 392 446
3 394 446 392
3 447 446 394
3 395 447 394
3 395 451 447
3 451 448 447
3 449 448 452
3 452 448 451
3 397 452 398
3 397 450 452
3 450 449 452
3 391 450 397
3 395 400 451
3 402 451 400
3 452 451 402
3 398 452 402
3 405 453 454
3 404 453 405
3 406 405 455
3 405 454 455
3 408 406 456
3 406 455 456
3 410 457 458
3 410 408 457
3 408 456 457
3 457 459 458
3 412 411 460
3 412 460 461
3 412 461 404
3 404 461 453
3 410 458 413
3 458 415 413
3 458 459 415
3 459 462 415
3 460 463 464
3 460 411 463
3 411 416 463
3 461 460 464
3 415 462 417
3 462 465 417
3 416 418 463
3 463 418 466
3 417 465 420
3 465 467 420
3 468 421 469
3 468 466 421
3 466 418 421
3 468 469 470
3 471 472 473
3 471 474 475
3 472 471 475
3 474 467 475
3 474 423 467
3 423 420 467
3 469 425 476
3 421 425 469
3 477 470 469
3 477 469 478
3 478 469 476
3 478 479 480
3 477 478 480
3 473 480 479
3 473 479 471
3 471 479 481
3 427 481 428
3 427 474 481
3 474 471 481
3 423 474 427
3 425 431 476
3 434 476 431
3 478 476 434
3 436 478 434
3 479 478 436
3 438 479 436
3 481 479 438
3 428 481 438
3 482 483 484
3 482 485 486
3 484 485 482
3 486 487 488
3 485 487 486
3 488 489 490
3 487 489 488
3 490 491 492
3 489 491 490
3 491 493 492
3 454 483 482
3 454 453 483
3 453 494 483
3 455 454 482
3 486 455 482
3 456 455 486
3 488 456 486
3 457 456 488
3 490 457 488
3 459 457 490
3 459 490 495
3 495 490 492
3 496 492 493
3 495 492 496
3 453 461 494
3 494 461 497
3 495 498 462
3 459 495 462
3 499 495 496
3 498 495 499
3 464 463 500
3 464 500 501
3 464 501 461
3 461 501 497
3 502 503 504
3 502 505 506
3 503 502 506
3 498 507 506
3 498 506 465
3 498 465 462
3 465 506 505
3 499 507 498
3 500 466 508
3 463 466 500
3 509 501 500
3 509 500 510
3 510 500 508
3 510 511 512
3 509 510 512
3 504 512 511
3 504 511 502
3 502 511 513
3 505 502 514
3 514 502 513
3 465 514 467
3 505 514 465
3 466 468 508
3 470 508 468
3 470 515 508
3 515 510 508
3 511 510 516
3 516 510 515
3 472 516 473
3 472 513 516
3 513 511 516
3 475 513 472
3 514 513 475
3 467 514 475
3 470 477 515
3 480 515 477
3 516 515 480
3 473 516 480
3 517 518 519
3 517 520 521
3 519 520 517
3 520 522 521
3 484 523 524
3 483 523 484
3 485 484 525
3 484 524 525
3 518 517 487
3 518 487 525
3 525 487 485
3 489 487 517
3 521 489 517
3 521 522 526
3 521 526 489
3 489 526 491
3 493 527 528
3 493 491 527
3 491 526 527
3 527 529 528
3 483 494 523
3 523 494 530
3 528 531 496
3 493 528 496
3 532 528 529
3 531 528 532
3 494 497 530
3 530 497 533
3 531 534 535
3 531 535 496
3 496 535 499
3 532 534 531
3 536 501 537
3 536 533 501
3 533 497 501
3 537 538 539
3 536 537 539
3 538 504 503
3 538 503 539
3 539 503 540
3 506 541 503
3 503 541 540
3 507 542 506
3 506 542 541
3 535 507 499
3 542 507 535
3 501 509 537
3 512 537 509
3 538 537 512
3 504 538 512
3 519 543 544
3 518 543 519
3 520 519 545
3 519 544 545
3 522 546 547
3 522 520 546
3 520 545 546
3 547 548 549
3 546 548 547
3 548 550 549
3 524 523 551
3 552 524 551
3 552 553 524
3 553 525 524
3 543 518 525
3 553 543 525
3 522 547 526
3 527 526 547
3 549 527 547
3 529 554 555
3 527 554 529
3 527 550 554
3 527 549 550
3 555 556 557
3 554 556 555
3 556 558 557
3 551 530 559
3 523 530 551
3 560 552 551
3 559 560 551
3 555 561 532
3 529 555 532
3 557 562 555
3 562 561 555
3 563 557 558
3 562 557 563
3 559 533 564
3 530 533 559
3 565 560 559
3 565 559 566
3 566 559 564
3 566 567 568
3 565 566 568
3 567 569 570
3 568 567 570
3 569 571 572
3 570 569 572
3 571 535 534
3 571 534 572
3 572 534 573
3 561 534 532
3 561 574 534
3 574 573 534
3 562 574 561
3 575 574 562
3 563 575 562
3 533 536 564
3 539 564 536
3 566 564 539
3 540 566 539
3 567 566 540
3 541 567 540
3 569 567 541
3 542 569 541
3 571 569 542
3 535 571 542
3 544 576 577
3 543 576 544
3 545 544 578
3 544 577 578
3 546 545 579
3 545 578 579
3 548 546 580
3 546 579 580
3 580 550 548
3 581 550 580
3 553 582 583
3 552 582 553
3 576 543 553
3 583 576 553
3 550 581 584
3 554 550 584
3 556 554 585
3 554 584 585
3 585 558 556
3 586 558 585
3 552 560 582
3 582 560 587
3 558 586 563
3 586 588 563
3 560 589 587
3 565 589 560
3 568 590 565
3 565 590 589
3 591 592 590
3 591 590 570
3 570 590 568
3 570 572 593
3 591 570 593
3 572 573 594
3 593 572 594
3 573 574 595
3 594 573 595
3 596 595 574
3 596 574 597
3 597 574 575
3 588 575 563
3 597 575 588
3 591 598 592
3 593 598 591
3 599 598 593
3 594 599 593
3 600 599 594
3 595 600 594
3 601 600 595
3 596 601 595
3 577 576 602
3 577 603 578
3 602 603 577
3 578 604 579
3 603 604 578
3 579 605 580
3 604 605 579
3 580 605 581
3 583 582 606
3 583 606 607
3 576 583 607
3 576 607 608
3 576 608 602
3 603 602 608
3 609 603 608
3 604 603 609
3 610 604 609
3 605 604 610
3 611 605 610
3 581 605 611
3 581 611 584
3 584 611 612
3 585 584 613
3 584 612 613
3 586 614 615
3 586 585 614
3 585 613 614
3 614 616 615
3 606 587 617
3 582 587 606
3 618 607 606
3 617 618 606
3 615 619 588
3 586 615 588
3 620 615 616
3 619 615 620
3 587 589 617
3 617 621 618
3 617 589 621
3 589 590 621
3 621 590 592
3 622 621 592
3 597 623 624
3 596 597 624
3 619 597 588
3 619 625 597
3 625 623 597
3 620 625 619
3 592 626 622
3 598 626 592
3 599 627 598
3 598 627 626
3 600 628 599
3 599 628 627
3 601 629 600
3 600 629 628
3 624 601 596
3 629 601 624
3 608 607 630
3 608 631 609
3 630 631 608
3 632 609 631
3 632 633 609
3 633 610 609
3 611 610 634
3 610 633 634
3 612 611 635
3 611 634 635
3 613 612 636
3 612 635 636
3 614 613 637
3 613 636 637
3 637 616 614
3 638 616 637
3 630 618 639
3 607 618 630
3 631 630 640
3 640 630 639
3 641 632 631
3 640 641 631
3 616 638 620
3 638 642 620
3 618 621 639
3 622 639 621
3 622 643 639
3 643 640 639
3 644 641 640
3 643 644 640
3 623 645 646
3 624 623 646
3 625 647 623
3 623 647 645
3 642 625 620
3 647 625 642
3 622 626 643
3 643 648 644
3 643 626 648
3 626 627 648
3 628 649 627
3 627 649 648
3 629 650 628
3 628 650 649
3 646 629 624
3 650 629 646
3 633 632 651
3 633 652 634
3 651 652 633
3 634 653 635
3 652 653 634
3 635 654 636
3 653 654 635
3 636 655 637
3 654 655 636
3 637 655 638
3 651 641 656
3 632 641 651
3 652 651 657
3 657 651 656
3 653 652 658
3 658 652 657
3 654 653 659
3 659 653 658
3 655 654 660
3 660 654 659
3 638 660 642
3 655 660 638
3 656 644 661
3 641 644 656
3 657 656 662
3 662 656 661
3 658 657 663
3 663 657 662
3 645 663 646
3 645 659 663
3 659 658 663
3 647 659 645
3 660 659 647
3 642 660 647
3 644 648 661
3 649 661 648
3 662 661 649
3 650 662 649
3 663 662 650
3 646 663 650
