# vtk DataFile Version 3.0
this file was written using fslvtkio
ASCII
DATASET POLYDATA
POINTS 642 float
91.5226 96.6207 84.6144
90.7482 96.6649 82.158
92.6336 97.085 79.8105
92.9989 96.9764 82.2971
92.2453 95.3891 82.3381
91.8848 97.9703 83.653
91.1624 98.2438 81.7691
92.2891 95.2901 80.9562
90.6419 95.4021 83.7335
93.909 96.1572 79.9013
93.2059 97.7998 80.7303
90.1073 97.6011 84.4098
91.3307 94.9741 82.2604
91.7439 94.6611 83.1347
92.5542 94.7222 81.4072
93.4584 95.1891 79.9165
93.4469 95.5173 80.9947
90.7632 97.7515 83.0074
91.6287 98.0687 82.6422
91.0861 97.8519 84.1929
92.2741 98.0608 81.1267
92.58 98.0783 82.209
92.4615 96.1924 82.1928
91.9253 95.797 83.5749
92.4574 96.8204 83.648
92.4632 97.5751 83.293
91.9511 97.7772 84.7787
91.4087 95.8868 81.5722
92.6319 96.1265 80.2328
91.5817 96.9142 80.8838
90.741 97.5558 81.9733
91.6636 97.8489 80.6469
90.8138 97.3629 85.3133
91.0874 95.8167 84.6723
90.1811 96.6335 84.457
90.1187 97.1446 83.2829
90.5515 95.961 82.9833
93.4537 97.57 81.6798
94.1369 97.445 79.8238
93.7894 96.5938 81.0589
93.1408 97.8592 79.5086
93.6652 96.6184 79.0469
91.3377 94.5843 82.7452
92.0912 94.5193 82.3753
91.8623 94.6963 81.8589
92.3859 95.0588 81.9398
92.2576 94.9177 82.8201
91.0845 94.9589 83.5302
90.8391 95.0192 82.9653
91.8542 95.1515 81.5433
92.4162 94.8679 81.0138
93.1297 94.7298 80.5654
93.1121 95.0301 81.0892
93.7447 95.1374 80.3718
92.8045 95.4092 81.6128
92.8238 95.165 80.4008
93.8357 95.6074 79.8544
93.9168 95.7716 80.4577
91.2107 97.9602 82.831
91.293 98.0357 83.4852
90.8525 97.7882 83.6137
91.4468 98.1381 84.0882
91.7673 98.0182 83.1639
91.3684 98.2123 82.1638
90.9333 98.1456 82.3225
90.3217 97.6849 83.8633
90.5384 97.7355 84.4023
92.397 98.0631 81.687
92.1512 98.0632 82.3857
91.9382 98.1578 82.0045
92.2514 97.9695 82.9445
92.7951 97.8886 81.5201
92.7797 97.7943 80.8977
91.7201 98.215 81.4441
92.2051 96.009 82.9487
92.082 96.3358 83.5504
92.3905 96.4264 82.9697
91.9809 96.6908 84.1701
91.695 96.2238 84.1489
92.2544 95.5226 82.9355
92.2056 95.7887 82.2203
92.797 96.5758 82.225
92.4078 96.8629 82.8993
92.3476 97.2179 83.5646
92.3131 97.2546 84.3495
92.3106 97.7484 84.2871
91.7492 97.1599 84.6144
92.7167 97.2767 82.6792
92.2035 97.837 83.6398
91.8871 98.2248 84.5076
92.0093 96.0108 80.8099
92.1113 96.516 80.5832
91.5949 96.393 81.1336
92.1152 96.9971 80.327
92.7192 96.6116 79.9373
92.4791 95.65 80.5647
91.8846 95.5994 81.2356
91.052 96.2847 81.8433
91.2941 96.8151 81.6302
91.251 97.306 81.44
91.6465 97.4071 80.6865
91.0008 97.8334 81.17
92.2083 97.4604 80.0798
90.761 97.0889 82.1478
90.7799 98.0651 81.8037
91.3402 98.0699 81.2679
90.7066 96.6128 85.4623
90.3082 96.2046 85.0082
90.2171 97.0582 85.1831
90.3112 95.8962 84.253
90.6535 95.4635 84.3351
91.2873 96.2712 84.8033
91.1952 96.8797 85.1334
90.3423 97.5541 84.9829
90.1001 97.1326 84.5906
90.082 96.8818 83.8517
90.3013 96.2115 83.7105
90.2486 96.5563 83.2444
90.548 95.644 83.4292
89.9672 97.4076 83.9557
90.4063 96.8432 82.6579
90.6331 96.3271 82.5563
93.8421 97.5095 80.6899
93.962 96.9833 80.4325
93.7712 97.1288 81.2449
93.8857 96.4159 80.4205
94.1271 96.762 79.6722
93.813 97.9587 80.2996
93.215 97.6767 81.1105
93.3978 97.2484 82.0257
93.4096 96.8085 81.6371
93.504 97.3663 78.8728
94.245 97.0878 78.9314
93.7869 97.8942 79.4711
94.0816 96.2861 79.2197
93.1473 96.9256 79.3507
92.8262 97.4612 79.4911
93.2915 97.9181 80.187
91.9498 95.2232 83.5215
91.4139 95.1515 83.9225
91.6182 95.755 84.1719
91.3607 97.4921 84.8838
90.9235 97.6762 84.7932
91.47 97.9294 84.6391
93.6879 96.0459 80.9698
92.92 95.8959 81.5565
93.1957 96.3628 81.5809
93.0813 97.6478 82.4164
92.6041 97.9119 82.8335
93.0594 97.9095 82.0361
90.8738 95.392 82.5819
91.3197 95.4389 81.8514
90.9376 95.8588 82.1863
90.2689 97.4003 82.6823
90.5286 97.8182 82.4471
90.2482 97.6201 83.2608
93.2125 96.2638 79.6083
93.065 95.6985 79.9755
93.6586 95.842 79.4252
92.705 97.9465 80.3271
91.9177 98.1817 80.7399
92.3264 97.9676 79.957
91.7576 94.4779 82.5219
91.9363 94.6102 82.105
91.6423 94.6002 82.2978
92.1979 94.6514 81.6252
92.2504 94.6511 81.8819
91.8731 94.5349 82.8272
91.5159 94.5023 82.9502
91.325 94.7419 82.4598
91.5621 94.7655 82.0353
92.2532 94.7972 82.182
92.1741 94.7031 82.5962
92.2286 94.9816 82.3829
92.071 94.7218 83.0017
92.4853 94.8671 81.7048
92.2992 95.2243 82.1745
92.2757 95.1598 82.5442
91.156 94.6362 83.1634
91.018 94.715 82.8426
90.9138 94.9657 83.2569
91.005 94.9406 82.6133
91.3934 94.7335 83.3733
90.7788 95.1206 83.6315
90.7209 95.2325 83.3952
91.8232 94.8914 81.6797
92.1389 94.7497 81.4268
92.1287 94.9876 81.2999
92.4876 94.7249 81.1619
91.5208 95.0187 81.8507
92.0542 95.2313 81.237
92.3432 95.0999 80.938
93.1959 94.8292 80.8204
93.4303 95.0564 80.7749
93.3901 94.9597 80.4333
93.6286 95.3002 80.6855
93.3005 95.2411 81.0338
92.8146 94.8645 81.247
92.9147 94.7033 80.9245
93.2836 95.013 80.2113
93.6508 95.0709 80.0564
93.0164 95.2169 81.3606
92.7685 95.0133 81.4867
92.565 95.2224 81.7631
93.1534 95.4532 81.3193
92.3909 95.3946 82.0116
92.7998 94.748 80.7628
92.9789 94.9082 80.4571
92.6407 94.9489 80.6963
93.1063 95.1711 80.1335
92.5404 95.222 80.6516
93.8776 95.271 80.0697
93.8784 95.4203 80.4165
93.9018 95.6206 80.141
93.7956 95.5875 80.7084
93.765 95.2781 79.7554
93.8739 95.9271 79.8296
93.855 95.9613 80.1919
91.2742 97.9752 83.1529
91.1025 97.9133 83.557
91.0767 97.8512 83.1935
90.9382 97.8441 83.9418
91.1966 97.9425 83.8908
91.4731 98.058 83.0968
91.4103 98.0641 82.7675
91.0125 97.8387 82.8484
90.8097 97.7366 83.301
91.3788 98.0747 83.806
91.5337 98.0626 83.3925
91.6261 98.0801 83.6509
91.7368 98.0266 82.8909
91.305 97.9951 84.1513
91.6859 98.1439 83.9115
91.8412 97.9979 83.409
91.2452 98.1447 82.5133
91.0308 98.1043 82.588
91.1176 98.2753 82.2522
90.8337 97.9656 82.6226
91.4862 98.1363 82.4135
91.2556 98.2737 81.8963
91.0219 98.2547 81.9658
90.6384 97.6986 83.7109
90.6973 97.7194 84.0089
90.4193 97.7334 84.1328
90.8441 97.7396 84.2511
90.5655 97.6948 83.4672
90.0752 97.7432 84.1959
90.2539 97.7284 84.4705
92.28 98.1046 82.0452
92.0408 98.1168 82.2064
92.1984 98.1095 81.8336
91.7941 98.0888 82.3405
91.8896 98.0757 82.5456
92.3593 98.0689 82.2854
92.4676 98.1181 81.947
92.3528 98.0106 81.4133
92.1385 98.1005 81.5557
92.0035 98.0103 82.786
92.2318 97.9903 82.6407
92.0363 97.9583 83.0644
92.4089 97.9799 82.543
92.0458 97.9435 83.3505
92.58 98.0356 81.6199
92.5738 97.9646 81.312
92.78 97.8393 81.1972
92.5444 97.9237 80.9954
92.6788 98.0472 81.9082
92.9056 97.7331 81.1005
92.9486 97.686 80.8182
91.8668 98.1765 81.6548
91.706 98.1575 82.0646
91.5553 98.2649 81.8441
91.9918 98.1643 81.3077
91.4387 98.2087 81.6257
92.1333 96.1292 83.2743
92.3009 96.4041 83.3082
92.3122 96.221 82.9381
92.4334 96.6163 83.2976
92.2663 96.6045 83.6193
91.917 96.0895 83.5585
91.9986 95.9221 83.2447
92.2585 96.1213 82.5505
92.4344 96.3115 82.5586
91.9907 96.5116 83.8494
91.8583 96.2874 83.8487
91.8281 96.463 84.1809
91.8427 95.9949 83.8647
92.2182 96.7852 83.9436
91.7335 96.6756 84.4428
91.6323 96.4146 84.4468
92.1732 95.7596 82.9374
92.1219 95.8928 82.5879
92.1334 95.6283 82.6148
92.2843 96.0029 82.1793
92.0459 95.6607 83.2621
92.2528 95.3993 82.6193
92.2027 95.5703 82.2377
92.5758 96.4999 82.607
92.3961 96.6585 82.9114
92.6522 96.6924 82.592
92.3932 96.8391 83.2679
92.6919 96.3779 82.2276
92.9291 96.7895 82.2659
92.7529 96.9127 82.5964
92.4808 97.2655 84.0112
92.3684 97.5304 84.4342
92.3448 97.4761 83.9642
92.1904 97.8485 84.7366
92.1458 97.5356 84.6862
92.4438 97.0077 84.0225
92.416 97.0177 83.6102
92.3494 97.4312 83.5051
92.2821 97.6307 83.7993
92.0729 97.2285 84.5218
92.1561 96.9568 84.2245
91.8852 96.9381 84.3948
91.8653 97.4438 84.7061
91.5797 96.8769 84.6349
92.3088 97.0506 83.2251
92.4068 97.2769 83.106
92.5645 97.0999 82.8735
92.6426 97.434 82.9782
92.8561 97.0886 82.4988
92.1808 97.8317 84.0532
92.1241 98.0471 84.5808
92.059 97.9116 84.0606
91.9314 98.053 84.7496
92.3354 97.7416 83.5174
92.0626 97.8772 83.6396
91.9027 98.1701 84.0404
92.1143 96.2594 80.677
91.8733 96.4674 80.8458
91.759 96.1832 80.9578
91.6431 96.6566 81.0201
91.8711 96.732 80.7423
92.3677 96.3206 80.3961
92.3323 96.0887 80.4961
91.7286 95.9563 81.1913
91.5645 96.1532 81.3273
92.1113 96.7256 80.4094
92.3949 96.5459 80.2584
92.4234 96.7698 80.1381
92.69 96.3837 80.0677
91.8598 96.9626 80.6075
92.4373 97.0356 80.0924
92.6923 96.8773 79.9032
92.2637 95.843 80.6478
91.9556 95.7915 81.0045
92.196 95.6595 80.8607
91.6652 95.7492 81.4048
92.5493 95.8766 80.3618
92.4143 95.4441 80.7579
92.0952 95.4446 81.0784
91.3684 96.3728 81.5177
91.4322 96.6117 81.3702
91.2173 96.5709 81.7474
91.4825 96.889 81.2558
91.2556 96.0973 81.7109
90.9228 96.4969 82.043
91.0588 96.7455 81.9352
91.3958 97.3747 81.0188
91.3029 97.6099 80.9399
91.1048 97.5369 81.2578
91.3555 97.8468 80.9156
91.6334 97.6536 80.6226
91.6057 97.1551 80.7754
91.449 97.1437 81.1701
91.0381 97.4287 81.7263
90.8977 97.6904 81.5846
91.9206 97.4454 80.3936
91.8738 97.1714 80.4833
92.175 97.245 80.2495
91.9598 97.6864 80.2988
92.4221 97.2518 79.9307
91.2954 97.0394 81.5455
91.1179 97.2133 81.8343
91.0941 96.9595 81.8889
90.7221 97.3019 82.0829
90.7612 96.8661 82.1673
90.8908 97.9492 81.5216
91.0956 98.0056 81.2073
90.9949 98.154 81.5226
91.482 97.9939 80.962
90.7232 97.8047 81.8769
90.9829 98.199 81.7552
91.2375 98.1729 81.5496
90.528 96.4331 85.2627
90.1991 96.6744 85.1198
90.437 96.8963 85.4226
90.1108 96.8568 84.8395
90.1812 96.4525 84.7071
90.693 96.0116 84.9757
90.8936 96.2388 85.0924
90.687 97.0397 85.4768
90.472 97.2556 85.3491
90.2582 96.0109 84.5992
90.4637 95.8276 84.6836
90.4799 95.7784 84.2901
90.8815 95.647 84.5063
90.2664 96.2479 84.379
90.508 95.674 84.0021
90.6024 95.3922 83.9764
91.0599 96.4346 85.1325
90.9542 96.7241 85.376
91.207 96.5769 85.0479
91.0002 97.1022 85.3529
91.199 96.0854 84.8116
91.3887 96.4675 84.7507
91.3454 96.7533 84.8333
90.3135 97.2771 85.0948
90.1266 97.1242 84.8529
90.2339 97.3143 84.7832
90.0713 96.925 84.5203
90.5736 97.4284 85.1248
90.1875 97.58 84.6443
90.0761 97.3952 84.5038
90.2422 96.5516 83.8284
90.2435 96.3617 83.4431
90.1634 96.6948 83.5323
90.3721 96.2549 83.1266
90.4203 96.1026 83.3636
90.248 96.4011 84.1059
90.1739 96.7308 84.1448
90.1323 97.0192 83.5977
90.2112 96.856 83.2408
90.3965 95.9346 83.6778
90.2756 96.0459 84.05
90.4153 95.7723 83.8696
90.5846 95.8147 83.208
90.547 95.4908 83.6058
90.1008 96.9962 84.2286
90.0429 97.1327 83.9651
89.9802 97.2592 84.2684
90.0684 97.2938 83.6339
89.9525 97.5634 84.2187
90.3281 96.7066 82.9365
90.3856 96.4363 82.928
90.5105 96.588 82.6626
90.541 96.1434 82.7602
90.3001 96.9946 82.9334
90.5405 96.7268 82.3825
90.641 96.4936 82.3371
93.9278 97.2524 80.5097
93.8382 97.0646 80.83
93.7517 97.3414 80.9604
93.7808 96.8768 81.0915
93.8304 96.7942 80.7836
94.0099 97.1905 80.0886
93.9778 97.4912 80.2283
93.5347 97.4965 81.1201
93.6211 97.3682 81.3833
93.927 96.7278 80.4106
94.0674 96.9108 80.0153
93.9334 96.6271 80.0489
94.1945 97.1041 79.6717
93.9165 96.4908 80.7659
93.9221 96.2838 80.1419
94.0193 96.4391 79.7631
93.8432 97.7197 80.4519
93.5422 97.6112 80.8215
93.6157 97.8053 80.6325
93.3289 97.6596 81.397
94.0402 97.7673 80.0649
93.5574 97.9265 80.5112
93.1694 97.7216 80.8962
93.6695 97.2112 81.6234
93.6625 96.9748 81.455
93.4445 97.0567 81.7775
93.635 96.7116 81.326
93.4752 97.4027 81.8449
93.1998 97.1128 82.1873
93.2435 96.9105 82.0065
93.9712 97.2533 78.8023
94.0808 97.5732 79.2111
93.7334 97.697 79.0649
94.0507 97.7127 79.6506
94.307 97.3155 79.3546
93.9815 96.8251 78.8334
93.6602 96.959 78.8221
93.3185 97.7038 79.1354
93.428 97.8398 79.3919
94.2407 96.932 79.2631
94.1299 96.7236 79.0409
94.1393 96.5772 79.3931
93.8817 96.441 79.1212
93.9933 96.2722 79.5681
93.33 97.1128 78.9961
93.118 97.4468 79.1181
92.979 97.1892 79.3364
92.9616 97.6922 79.4189
93.3798 96.7156 79.1367
92.8775 97.0307 79.6241
92.7149 97.2577 79.6272
93.509 98.0317 79.8147
93.8973 98.0459 79.8931
93.6574 98.0481 80.2155
93.2123 97.9944 79.8344
93.2935 97.8468 80.4748
91.7038 95.1713 83.6811
91.5427 95.4549 84.0605
91.822 95.4827 83.8306
91.3766 95.7486 84.4346
91.264 95.4895 84.2918
91.5966 94.9081 83.5143
91.904 94.9042 83.3176
92.0027 95.5176 83.5885
91.8478 95.7663 83.9032
91.0098 95.2706 84.1904
91.1913 95.0298 83.8145
90.8272 95.1578 83.9555
92.1368 95.0523 83.1828
92.0626 95.4124 83.2516
92.2466 95.2515 82.9068
91.6118 96.0156 84.1973
91.3951 96.0222 84.5044
91.4807 96.2417 84.4984
91.1295 97.6267 84.9629
91.2579 97.692 84.601
91.5195 97.6718 84.6982
91.2706 97.8901 84.4292
91.0485 97.765 84.4421
90.862 97.5742 85.0641
91.0455 97.4586 85.2064
91.7214 97.6182 84.7136
91.7359 97.9246 84.7794
90.6908 97.6861 84.662
90.6132 97.6482 84.9328
90.4282 97.6999 84.708
91.2081 97.213 85.1436
91.5023 97.2687 84.7384
91.3895 97.0101 84.8702
91.6858 98.1368 84.5698
91.4538 98.0735 84.3616
91.661 98.2538 84.263
93.3811 95.9729 81.2323
92.982 96.1514 81.5338
93.514 96.2374 81.2416
92.7647 96.2854 81.8665
92.6463 96.0587 81.8478
93.236 95.7253 81.2582
93.5774 95.7862 80.9342
93.7796 96.321 81.0107
93.5526 96.485 81.3078
92.6099 95.807 81.8634
92.942 95.644 81.5601
92.459 95.6135 81.9105
93.8879 95.9218 80.6777
93.9222 96.2198 80.7158
93.9376 96.1012 80.4591
93.3463 96.5883 81.5803
92.9281 96.4924 81.8762
93.1772 96.6795 81.9274
92.8591 97.8266 82.6738
92.8456 97.9289 82.4092
93.1082 97.815 82.2492
92.8319 98.0556 82.1786
92.6144 97.9855 82.479
92.57 97.8017 83.0932
92.7921 97.6342 82.8732
93.361 97.6263 82.0694
93.2408 97.7556 81.8625
92.4466 97.9556 82.8575
92.4239 97.9032 83.1799
92.2329 97.9053 83.2539
92.8556 97.4822 82.6188
93.296 97.4654 82.2008
93.0466 97.2937 82.3956
93.1116 97.7961 81.6025
92.9472 97.9359 81.7657
92.9725 97.754 81.3333
91.0924 95.4546 82.263
91.1162 95.6486 82.0574
90.9322 95.6786 82.4228
91.0969 95.8245 81.8096
91.357 95.6524 81.7097
91.3057 95.2108 82.082
91.065 95.1685 82.4306
90.7366 95.7103 82.7793
90.707 95.8923 82.5823
91.6218 95.5246 81.5688
91.591 95.3006 81.7662
91.8583 95.3971 81.4336
90.8061 95.2122 82.7864
90.7409 95.5571 83.0193
90.7291 95.3725 83.2045
90.7728 96.0952 82.3704
90.8735 96.0241 81.9624
90.7419 96.2747 82.187
90.3465 97.6241 82.6045
90.4223 97.6954 82.8534
90.2408 97.5109 82.9789
90.5002 97.7075 83.146
90.5972 97.8393 82.7452
90.5915 97.7008 82.1975
90.4668 97.455 82.3081
90.2148 97.2653 82.9906
90.1037 97.4103 83.3259
90.75 97.9494 82.402
90.691 97.9194 82.1367
90.821 98.1396 82.0826
90.4439 97.2196 82.4186
90.2809 97.12 82.6682
90.4426 96.9747 82.4426
90.0042 97.5566 83.6232
90.2664 97.6903 83.5813
90.0073 97.6651 83.9749
93.1396 95.9795 79.8387
93.3582 95.7285 79.7141
93.4243 96.0629 79.5683
93.561 95.4668 79.648
93.2492 95.4074 79.8805
92.8357 95.9134 80.0562
92.9178 96.1963 79.9208
93.4366 96.3719 79.2795
93.6647 96.207 79.2247
92.9651 95.4233 80.1602
92.7584 95.6525 80.2309
92.6739 95.455 80.4446
92.9856 96.4664 79.7093
93.1987 96.5818 79.4394
92.9552 96.7573 79.635
93.9026 96.0364 79.2509
93.8706 95.6484 79.5033
93.9085 95.9541 79.5119
92.393 98.0249 80.4885
92.1772 98.0567 80.3419
92.5261 98.0534 80.1367
92.0141 97.891 80.2687
91.8008 98.0445 80.644
92.1366 98.1613 80.8851
92.4908 97.9639 80.7277
92.8787 97.9424 79.9554
92.7878 97.9118 79.7486
91.6576 98.1251 80.967
91.8153 98.2327 81.0597
91.5521 98.1908 81.3024
92.7837 97.855 80.5832
93.001 97.9317 80.1967
93.0235 97.7304 80.4918
92.6386 97.6981 79.7446
92.2487 97.7146 79.9724
92.4959 97.4729 79.7918
POLYGONS 1280  5120
3 164 162 163
3 163 44 164
3 162 43 163
3 164 42 162
3 166 165 163
3 163 43 166
3 165 44 163
3 166 14 165
3 168 167 162
3 162 42 168
3 167 43 162
3 168 13 167
3 170 169 164
3 164 44 170
3 169 42 164
3 170 12 169
3 173 171 172
3 172 46 173
3 171 43 172
3 173 45 171
3 167 174 172
3 172 43 167
3 174 46 172
3 167 13 174
3 175 166 171
3 171 45 175
3 166 43 171
3 175 14 166
3 177 176 173
3 173 46 177
3 176 45 173
3 177 4 176
3 180 178 179
3 179 48 180
3 178 42 179
3 180 47 178
3 169 181 179
3 179 42 169
3 181 48 179
3 169 12 181
3 182 168 178
3 178 47 182
3 168 42 178
3 182 13 168
3 184 183 180
3 180 48 184
3 183 47 180
3 184 8 183
3 187 185 186
3 186 50 187
3 185 44 186
3 187 49 185
3 165 188 186
3 186 44 165
3 188 50 186
3 165 14 188
3 189 170 185
3 185 49 189
3 170 44 185
3 189 12 170
3 191 190 187
3 187 50 191
3 190 49 187
3 191 7 190
3 194 192 193
3 193 53 194
3 192 52 193
3 194 51 192
3 196 195 193
3 193 52 196
3 195 53 193
3 196 16 195
3 198 197 192
3 192 51 198
3 197 52 192
3 198 14 197
3 200 199 194
3 194 53 200
3 199 51 194
3 200 15 199
3 203 201 202
3 202 45 203
3 201 52 202
3 203 54 201
3 197 175 202
3 202 52 197
3 175 45 202
3 197 14 175
3 204 196 201
3 201 54 204
3 196 52 201
3 204 16 196
3 176 205 203
3 203 45 176
3 205 54 203
3 176 4 205
3 208 206 207
3 207 55 208
3 206 51 207
3 208 50 206
3 199 209 207
3 207 51 199
3 209 55 207
3 199 15 209
3 188 198 206
3 206 50 188
3 198 51 206
3 188 14 198
3 210 191 208
3 208 55 210
3 191 50 208
3 210 7 191
3 213 211 212
3 212 57 213
3 211 53 212
3 213 56 211
3 195 214 212
3 212 53 195
3 214 57 212
3 195 16 214
3 215 200 211
3 211 56 215
3 200 53 211
3 215 15 200
3 217 216 213
3 213 57 217
3 216 56 213
3 217 9 216
3 220 218 219
3 219 60 220
3 218 59 219
3 220 58 218
3 222 221 219
3 219 59 222
3 221 60 219
3 222 19 221
3 224 223 218
3 218 58 224
3 223 59 218
3 224 18 223
3 226 225 220
3 220 60 226
3 225 58 220
3 226 17 225
3 229 227 228
3 228 62 229
3 227 59 228
3 229 61 227
3 223 230 228
3 228 59 223
3 230 62 228
3 223 18 230
3 231 222 227
3 227 61 231
3 222 59 227
3 231 19 222
3 233 232 229
3 229 62 233
3 232 61 229
3 233 5 232
3 236 234 235
3 235 64 236
3 234 58 235
3 236 63 234
3 225 237 235
3 235 58 225
3 237 64 235
3 225 17 237
3 238 224 234
3 234 63 238
3 224 58 234
3 238 18 224
3 240 239 236
3 236 64 240
3 239 63 236
3 240 6 239
3 243 241 242
3 242 66 243
3 241 60 242
3 243 65 241
3 221 244 242
3 242 60 221
3 244 66 242
3 221 19 244
3 245 226 241
3 241 65 245
3 226 60 241
3 245 17 226
3 247 246 243
3 243 66 247
3 246 65 243
3 247 11 246
3 250 248 249
3 249 69 250
3 248 68 249
3 250 67 248
3 252 251 249
3 249 68 252
3 251 69 249
3 252 18 251
3 254 253 248
3 248 67 254
3 253 68 248
3 254 21 253
3 256 255 250
3 250 69 256
3 255 67 250
3 256 20 255
3 259 257 258
3 258 70 259
3 257 68 258
3 259 62 257
3 253 260 258
3 258 68 253
3 260 70 258
3 253 21 260
3 230 252 257
3 257 62 230
3 252 68 257
3 230 18 252
3 261 233 259
3 259 70 261
3 233 62 259
3 261 5 233
3 264 262 263
3 263 72 264
3 262 67 263
3 264 71 262
3 255 265 263
3 263 67 255
3 265 72 263
3 255 20 265
3 266 254 262
3 262 71 266
3 254 67 262
3 266 21 254
3 268 267 264
3 264 72 268
3 267 71 264
3 268 10 267
3 271 269 270
3 270 63 271
3 269 69 270
3 271 73 269
3 251 238 270
3 270 69 251
3 238 63 270
3 251 18 238
3 272 256 269
3 269 73 272
3 256 69 269
3 272 20 256
3 239 273 271
3 271 63 239
3 273 73 271
3 239 6 273
3 276 274 275
3 275 76 276
3 274 75 275
3 276 74 274
3 278 277 275
3 275 75 278
3 277 76 275
3 278 24 277
3 280 279 274
3 274 74 280
3 279 75 274
3 280 23 279
3 282 281 276
3 276 76 282
3 281 74 276
3 282 22 281
3 285 283 284
3 284 78 285
3 283 75 284
3 285 77 283
3 279 286 284
3 284 75 279
3 286 78 284
3 279 23 286
3 287 278 283
3 283 77 287
3 278 75 283
3 287 24 278
3 289 288 285
3 285 78 289
3 288 77 285
3 289 0 288
3 292 290 291
3 291 80 292
3 290 74 291
3 292 79 290
3 281 293 291
3 291 74 281
3 293 80 291
3 281 22 293
3 294 280 290
3 290 79 294
3 280 74 290
3 294 23 280
3 296 295 292
3 292 80 296
3 295 79 292
3 296 4 295
3 299 297 298
3 298 82 299
3 297 76 298
3 299 81 297
3 277 300 298
3 298 76 277
3 300 82 298
3 277 24 300
3 301 282 297
3 297 81 301
3 282 76 297
3 301 22 282
3 303 302 299
3 299 82 303
3 302 81 299
3 303 3 302
3 306 304 305
3 305 85 306
3 304 84 305
3 306 83 304
3 308 307 305
3 305 84 308
3 307 85 305
3 308 26 307
3 310 309 304
3 304 83 310
3 309 84 304
3 310 24 309
3 312 311 306
3 306 85 312
3 311 83 306
3 312 25 311
3 315 313 314
3 314 77 315
3 313 84 314
3 315 86 313
3 309 287 314
3 314 84 309
3 287 77 314
3 309 24 287
3 316 308 313
3 313 86 316
3 308 84 313
3 316 26 308
3 288 317 315
3 315 77 288
3 317 86 315
3 288 0 317
3 320 318 319
3 319 87 320
3 318 83 319
3 320 82 318
3 311 321 319
3 319 83 311
3 321 87 319
3 311 25 321
3 300 310 318
3 318 82 300
3 310 83 318
3 300 24 310
3 322 303 320
3 320 87 322
3 303 82 320
3 322 3 303
3 325 323 324
3 324 89 325
3 323 85 324
3 325 88 323
3 307 326 324
3 324 85 307
3 326 89 324
3 307 26 326
3 327 312 323
3 323 88 327
3 312 85 323
3 327 25 312
3 329 328 325
3 325 89 329
3 328 88 325
3 329 5 328
3 332 330 331
3 331 92 332
3 330 91 331
3 332 90 330
3 334 333 331
3 331 91 334
3 333 92 331
3 334 29 333
3 336 335 330
3 330 90 336
3 335 91 330
3 336 28 335
3 338 337 332
3 332 92 338
3 337 90 332
3 338 27 337
3 341 339 340
3 340 94 341
3 339 91 340
3 341 93 339
3 335 342 340
3 340 91 335
3 342 94 340
3 335 28 342
3 343 334 339
3 339 93 343
3 334 91 339
3 343 29 334
3 345 344 341
3 341 94 345
3 344 93 341
3 345 2 344
3 348 346 347
3 347 96 348
3 346 90 347
3 348 95 346
3 337 349 347
3 347 90 337
3 349 96 347
3 337 27 349
3 350 336 346
3 346 95 350
3 336 90 346
3 350 28 336
3 352 351 348
3 348 96 352
3 351 95 348
3 352 7 351
3 355 353 354
3 354 98 355
3 353 92 354
3 355 97 353
3 333 356 354
3 354 92 333
3 356 98 354
3 333 29 356
3 357 338 353
3 353 97 357
3 338 92 353
3 357 27 338
3 359 358 355
3 355 98 359
3 358 97 355
3 359 1 358
3 362 360 361
3 361 101 362
3 360 100 361
3 362 99 360
3 364 363 361
3 361 100 364
3 363 101 361
3 364 31 363
3 366 365 360
3 360 99 366
3 365 100 360
3 366 29 365
3 368 367 362
3 362 101 368
3 367 99 362
3 368 30 367
3 371 369 370
3 370 93 371
3 369 100 370
3 371 102 369
3 365 343 370
3 370 100 365
3 343 93 370
3 365 29 343
3 372 364 369
3 369 102 372
3 364 100 369
3 372 31 364
3 344 373 371
3 371 93 344
3 373 102 371
3 344 2 373
3 376 374 375
3 375 103 376
3 374 99 375
3 376 98 374
3 367 377 375
3 375 99 367
3 377 103 375
3 367 30 377
3 356 366 374
3 374 98 356
3 366 99 374
3 356 29 366
3 378 359 376
3 376 103 378
3 359 98 376
3 378 1 359
3 381 379 380
3 380 105 381
3 379 101 380
3 381 104 379
3 363 382 380
3 380 101 363
3 382 105 380
3 363 31 382
3 383 368 379
3 379 104 383
3 368 101 379
3 383 30 368
3 385 384 381
3 381 105 385
3 384 104 381
3 385 6 384
3 388 386 387
3 387 108 388
3 386 107 387
3 388 106 386
3 390 389 387
3 387 107 390
3 389 108 387
3 390 34 389
3 392 391 386
3 386 106 392
3 391 107 386
3 392 33 391
3 394 393 388
3 388 108 394
3 393 106 388
3 394 32 393
3 397 395 396
3 396 110 397
3 395 107 396
3 397 109 395
3 391 398 396
3 396 107 391
3 398 110 396
3 391 33 398
3 399 390 395
3 395 109 399
3 390 107 395
3 399 34 390
3 401 400 397
3 397 110 401
3 400 109 397
3 401 8 400
3 404 402 403
3 403 112 404
3 402 106 403
3 404 111 402
3 393 405 403
3 403 106 393
3 405 112 403
3 393 32 405
3 406 392 402
3 402 111 406
3 392 106 402
3 406 33 392
3 408 407 404
3 404 112 408
3 407 111 404
3 408 0 407
3 411 409 410
3 410 114 411
3 409 108 410
3 411 113 409
3 389 412 410
3 410 108 389
3 412 114 410
3 389 34 412
3 413 394 409
3 409 113 413
3 394 108 409
3 413 32 394
3 415 414 411
3 411 114 415
3 414 113 411
3 415 11 414
3 418 416 417
3 417 117 418
3 416 116 417
3 418 115 416
3 420 419 417
3 417 116 420
3 419 117 417
3 420 36 419
3 422 421 416
3 416 115 422
3 421 116 416
3 422 34 421
3 424 423 418
3 418 117 424
3 423 115 418
3 424 35 423
3 427 425 426
3 426 109 427
3 425 116 426
3 427 118 425
3 421 399 426
3 426 116 421
3 399 109 426
3 421 34 399
3 428 420 425
3 425 118 428
3 420 116 425
3 428 36 420
3 400 429 427
3 427 109 400
3 429 118 427
3 400 8 429
3 432 430 431
3 431 119 432
3 430 115 431
3 432 114 430
3 423 433 431
3 431 115 423
3 433 119 431
3 423 35 433
3 412 422 430
3 430 114 412
3 422 115 430
3 412 34 422
3 434 415 432
3 432 119 434
3 415 114 432
3 434 11 415
3 437 435 436
3 436 121 437
3 435 117 436
3 437 120 435
3 419 438 436
3 436 117 419
3 438 121 436
3 419 36 438
3 439 424 435
3 435 120 439
3 424 117 435
3 439 35 424
3 441 440 437
3 437 121 441
3 440 120 437
3 441 1 440
3 444 442 443
3 443 124 444
3 442 123 443
3 444 122 442
3 446 445 443
3 443 123 446
3 445 124 443
3 446 39 445
3 448 447 442
3 442 122 448
3 447 123 442
3 448 38 447
3 450 449 444
3 444 124 450
3 449 122 444
3 450 37 449
3 453 451 452
3 452 126 453
3 451 123 452
3 453 125 451
3 447 454 452
3 452 123 447
3 454 126 452
3 447 38 454
3 455 446 451
3 451 125 455
3 446 123 451
3 455 39 446
3 457 456 453
3 453 126 457
3 456 125 453
3 457 9 456
3 460 458 459
3 459 128 460
3 458 122 459
3 460 127 458
3 449 461 459
3 459 122 449
3 461 128 459
3 449 37 461
3 462 448 458
3 458 127 462
3 448 122 458
3 462 38 448
3 464 463 460
3 460 128 464
3 463 127 460
3 464 10 463
3 467 465 466
3 466 130 467
3 465 124 466
3 467 129 465
3 445 468 466
3 466 124 445
3 468 130 466
3 445 39 468
3 469 450 465
3 465 129 469
3 450 124 465
3 469 37 450
3 471 470 467
3 467 130 471
3 470 129 467
3 471 3 470
3 474 472 473
3 473 133 474
3 472 132 473
3 474 131 472
3 476 475 473
3 473 132 476
3 475 133 473
3 476 38 475
3 478 477 472
3 472 131 478
3 477 132 472
3 478 41 477
3 480 479 474
3 474 133 480
3 479 131 474
3 480 40 479
3 483 481 482
3 482 134 483
3 481 132 482
3 483 126 481
3 477 484 482
3 482 132 477
3 484 134 482
3 477 41 484
3 454 476 481
3 481 126 454
3 476 132 481
3 454 38 476
3 485 457 483
3 483 134 485
3 457 126 483
3 485 9 457
3 488 486 487
3 487 136 488
3 486 131 487
3 488 135 486
3 479 489 487
3 487 131 479
3 489 136 487
3 479 40 489
3 490 478 486
3 486 135 490
3 478 131 486
3 490 41 478
3 492 491 488
3 488 136 492
3 491 135 488
3 492 2 491
3 495 493 494
3 494 127 495
3 493 133 494
3 495 137 493
3 475 462 494
3 494 133 475
3 462 127 494
3 475 38 462
3 496 480 493
3 493 137 496
3 480 133 493
3 496 40 480
3 463 497 495
3 495 127 463
3 497 137 495
3 463 10 497
3 500 498 499
3 499 140 500
3 498 139 499
3 500 138 498
3 502 501 499
3 499 139 502
3 501 140 499
3 502 33 501
3 504 503 498
3 498 138 504
3 503 139 498
3 504 13 503
3 506 505 500
3 500 140 506
3 505 138 500
3 506 23 505
3 509 507 508
3 508 47 509
3 507 139 508
3 509 110 507
3 503 182 508
3 508 139 503
3 182 47 508
3 503 13 182
3 398 502 507
3 507 110 398
3 502 139 507
3 398 33 502
3 183 401 509
3 509 47 183
3 401 110 509
3 183 8 401
3 512 510 511
3 511 79 512
3 510 138 511
3 512 46 510
3 505 294 511
3 511 138 505
3 294 79 511
3 505 23 294
3 174 504 510
3 510 46 174
3 504 138 510
3 174 13 504
3 295 177 512
3 512 79 295
3 177 46 512
3 295 4 177
3 515 513 514
3 514 111 515
3 513 140 514
3 515 78 513
3 501 406 514
3 514 140 501
3 406 111 514
3 501 33 406
3 286 506 513
3 513 78 286
3 506 140 513
3 286 23 506
3 407 289 515
3 515 111 407
3 289 78 515
3 407 0 289
3 518 516 517
3 517 143 518
3 516 142 517
3 518 141 516
3 520 519 517
3 517 142 520
3 519 143 517
3 520 19 519
3 522 521 516
3 516 141 522
3 521 142 516
3 522 32 521
3 524 523 518
3 518 143 524
3 523 141 518
3 524 26 523
3 527 525 526
3 526 113 527
3 525 142 526
3 527 66 525
3 521 413 526
3 526 142 521
3 413 113 526
3 521 32 413
3 244 520 525
3 525 66 244
3 520 142 525
3 244 19 520
3 414 247 527
3 527 113 414
3 247 66 527
3 414 11 247
3 530 528 529
3 529 86 530
3 528 141 529
3 530 112 528
3 523 316 529
3 529 141 523
3 316 86 529
3 523 26 316
3 405 522 528
3 528 112 405
3 522 141 528
3 405 32 522
3 317 408 530
3 530 86 317
3 408 112 530
3 317 0 408
3 533 531 532
3 532 61 533
3 531 143 532
3 533 89 531
3 519 231 532
3 532 143 519
3 231 61 532
3 519 19 231
3 326 524 531
3 531 89 326
3 524 143 531
3 326 26 524
3 232 329 533
3 533 61 232
3 329 89 533
3 232 5 329
3 536 534 535
3 535 146 536
3 534 145 535
3 536 144 534
3 538 537 535
3 535 145 538
3 537 146 535
3 538 22 537
3 540 539 534
3 534 144 540
3 539 145 534
3 540 16 539
3 542 541 536
3 536 146 542
3 541 144 536
3 542 39 541
3 545 543 544
3 544 54 545
3 543 145 544
3 545 80 543
3 539 204 544
3 544 145 539
3 204 54 544
3 539 16 204
3 293 538 543
3 543 80 293
3 538 145 543
3 293 22 538
3 205 296 545
3 545 54 205
3 296 80 545
3 205 4 296
3 548 546 547
3 547 125 548
3 546 144 547
3 548 57 546
3 541 455 547
3 547 144 541
3 455 125 547
3 541 39 455
3 214 540 546
3 546 57 214
3 540 144 546
3 214 16 540
3 456 217 548
3 548 125 456
3 217 57 548
3 456 9 217
3 551 549 550
3 550 81 551
3 549 146 550
3 551 130 549
3 537 301 550
3 550 146 537
3 301 81 550
3 537 22 301
3 468 542 549
3 549 130 468
3 542 146 549
3 468 39 542
3 302 471 551
3 551 81 302
3 471 130 551
3 302 3 471
3 554 552 553
3 553 149 554
3 552 148 553
3 554 147 552
3 556 555 553
3 553 148 556
3 555 149 553
3 556 21 555
3 558 557 552
3 552 147 558
3 557 148 552
3 558 25 557
3 560 559 554
3 554 149 560
3 559 147 554
3 560 37 559
3 563 561 562
3 562 88 563
3 561 148 562
3 563 70 561
3 557 327 562
3 562 148 557
3 327 88 562
3 557 25 327
3 260 556 561
3 561 70 260
3 556 148 561
3 260 21 556
3 328 261 563
3 563 88 328
3 261 70 563
3 328 5 261
3 566 564 565
3 565 129 566
3 564 147 565
3 566 87 564
3 559 469 565
3 565 147 559
3 469 129 565
3 559 37 469
3 321 558 564
3 564 87 321
3 558 147 564
3 321 25 558
3 470 322 566
3 566 129 470
3 322 87 566
3 470 3 322
3 569 567 568
3 568 71 569
3 567 149 568
3 569 128 567
3 555 266 568
3 568 149 555
3 266 71 568
3 555 21 266
3 461 560 567
3 567 128 461
3 560 149 567
3 461 37 560
3 267 464 569
3 569 71 267
3 464 128 569
3 267 10 464
3 572 570 571
3 571 152 572
3 570 151 571
3 572 150 570
3 574 573 571
3 571 151 574
3 573 152 571
3 574 27 573
3 576 575 570
3 570 150 576
3 575 151 570
3 576 12 575
3 578 577 572
3 572 152 578
3 577 150 572
3 578 36 577
3 581 579 580
3 580 49 581
3 579 151 580
3 581 96 579
3 575 189 580
3 580 151 575
3 189 49 580
3 575 12 189
3 349 574 579
3 579 96 349
3 574 151 579
3 349 27 574
3 190 352 581
3 581 49 190
3 352 96 581
3 190 7 352
3 584 582 583
3 583 118 584
3 582 150 583
3 584 48 582
3 577 428 583
3 583 150 577
3 428 118 583
3 577 36 428
3 181 576 582
3 582 48 181
3 576 150 582
3 181 12 576
3 429 184 584
3 584 118 429
3 184 48 584
3 429 8 184
3 587 585 586
3 586 97 587
3 585 152 586
3 587 121 585
3 573 357 586
3 586 152 573
3 357 97 586
3 573 27 357
3 438 578 585
3 585 121 438
3 578 152 585
3 438 36 578
3 358 441 587
3 587 97 358
3 441 121 587
3 358 1 441
3 590 588 589
3 589 155 590
3 588 154 589
3 590 153 588
3 592 591 589
3 589 154 592
3 591 155 589
3 592 17 591
3 594 593 588
3 588 153 594
3 593 154 588
3 594 30 593
3 596 595 590
3 590 155 596
3 595 153 590
3 596 35 595
3 599 597 598
3 598 104 599
3 597 154 598
3 599 64 597
3 593 383 598
3 598 154 593
3 383 104 598
3 593 30 383
3 237 592 597
3 597 64 237
3 592 154 597
3 237 17 592
3 384 240 599
3 599 104 384
3 240 64 599
3 384 6 240
3 602 600 601
3 601 120 602
3 600 153 601
3 602 103 600
3 595 439 601
3 601 153 595
3 439 120 601
3 595 35 439
3 377 594 600
3 600 103 377
3 594 153 600
3 377 30 594
3 440 378 602
3 602 120 440
3 378 103 602
3 440 1 378
3 605 603 604
3 604 65 605
3 603 155 604
3 605 119 603
3 591 245 604
3 604 155 591
3 245 65 604
3 591 17 245
3 433 596 603
3 603 119 433
3 596 155 603
3 433 35 596
3 246 434 605
3 605 65 246
3 434 119 605
3 246 11 434
3 608 606 607
3 607 158 608
3 606 157 607
3 608 156 606
3 610 609 607
3 607 157 610
3 609 158 607
3 610 15 609
3 612 611 606
3 606 156 612
3 611 157 606
3 612 28 611
3 614 613 608
3 608 158 614
3 613 156 608
3 614 41 613
3 617 615 616
3 616 95 617
3 615 157 616
3 617 55 615
3 611 350 616
3 616 157 611
3 350 95 616
3 611 28 350
3 209 610 615
3 615 55 209
3 610 157 615
3 209 15 610
3 351 210 617
3 617 95 351
3 210 55 617
3 351 7 210
3 620 618 619
3 619 135 620
3 618 156 619
3 620 94 618
3 613 490 619
3 619 156 613
3 490 135 619
3 613 41 490
3 342 612 618
3 618 94 342
3 612 156 618
3 342 28 612
3 491 345 620
3 620 135 491
3 345 94 620
3 491 2 345
3 623 621 622
3 622 56 623
3 621 158 622
3 623 134 621
3 609 215 622
3 622 158 609
3 215 56 622
3 609 15 215
3 484 614 621
3 621 134 484
3 614 158 621
3 484 41 614
3 216 485 623
3 623 56 216
3 485 134 623
3 216 9 485
3 626 624 625
3 625 161 626
3 624 160 625
3 626 159 624
3 628 627 625
3 625 160 628
3 627 161 625
3 628 31 627
3 630 629 624
3 624 159 630
3 629 160 624
3 630 20 629
3 632 631 626
3 626 161 632
3 631 159 626
3 632 40 631
3 635 633 634
3 634 73 635
3 633 160 634
3 635 105 633
3 629 272 634
3 634 160 629
3 272 73 634
3 629 20 272
3 382 628 633
3 633 105 382
3 628 160 633
3 382 31 628
3 273 385 635
3 635 73 273
3 385 105 635
3 273 6 385
3 638 636 637
3 637 137 638
3 636 159 637
3 638 72 636
3 631 496 637
3 637 159 631
3 496 137 637
3 631 40 496
3 265 630 636
3 636 72 265
3 630 159 636
3 265 20 630
3 497 268 638
3 638 137 497
3 268 72 638
3 497 10 268
3 641 639 640
3 640 102 641
3 639 161 640
3 641 136 639
3 627 372 640
3 640 161 627
3 372 102 640
3 627 31 372
3 489 632 639
3 639 136 489
3 632 161 639
3 489 40 632
3 373 492 641
3 641 102 373
3 492 136 641
3 373 2 492
