# vtk DataFile Version 3.0
this file was written using fslvtkio
ASCII
DATASET POLYDATA
POINTS 732 float
130.645 126.727 111.987
130.768 127.457 112.51
131.339 126.96 112.473
131.578 126.348 112.233
130.913 126.002 111.561
131.67 125.691 111.686
131.32 125.456 110.899
131.836 125.02 110.888
130.276 127.672 112.087
130.625 128.426 112.674
130.865 127.026 111.279
131.249 126.365 110.757
131.876 125.62 110.281
130.864 128.723 112.216
131.607 129.706 112.439
131.255 129.235 112.854
131.003 128.247 111.45
131.44 127.713 110.697
131.667 127.068 110.216
131.98 126.342 110.118
131.905 129.291 111.729
132.268 130.134 111.882
131.72 128.68 111.351
132.211 128.383 110.668
132.663 127.786 110.263
132.71 126.688 109.607
132.404 129.571 111.373
132.565 129.097 110.97
131.958 126.724 112.734
132.167 127.645 113.514
132.408 127.344 113.682
132.63 126.61 113.147
132.139 125.897 112.31
132.624 125.878 112.494
132.308 125.41 111.441
132.708 125.231 111.758
132.476 124.989 110.875
132.943 124.819 111.092
131.649 127.432 112.993
132.214 128.778 113.632
132.297 128.357 113.982
132.285 125.13 110.176
133.174 125.051 110.216
131.982 128.849 113.311
132.456 130.042 113.535
132.322 129.622 114.084
131.294 128.374 113.116
133.109 125.447 109.521
133.503 125.225 109.659
132.209 129.603 112.969
133.086 130.328 112.747
134.164 125.909 109.33
132.943 126.246 109.847
132.771 130.154 112.322
133.344 130.641 112.168
132.902 128.535 110.537
133.688 128.46 110.429
133.391 129.368 110.837
133.936 127.798 109.774
133.586 127.076 109.683
133.075 130.351 111.626
133.338 129.922 111.273
132.943 125.314 113.253
132.968 126.049 113.93
133.414 125.553 114.028
133.432 124.846 113.573
133.071 124.664 112.767
133.584 124.148 113.097
133.04 127.814 114.751
133.277 128.764 115.247
133.338 128.286 115.204
133.411 127.666 114.858
132.559 126.937 114.281
132.955 126.814 114.526
132.829 126.13 113.336
132.797 125.308 112.522
133.035 124.73 111.84
133.533 124.161 112.351
133.546 124.519 111.524
134.225 123.771 112.054
133.095 129.052 114.853
133.176 130.009 115.307
133.336 129.311 115.25
132.754 128.159 114.317
133.573 124.981 110.708
134.482 124.8 111.332
132.868 130.28 114.846
133.207 131.235 115.012
133.183 130.611 115.163
132.655 129.291 114.582
134.411 125.435 110.1
134.812 125.338 110.783
132.844 130.669 114.216
133.362 131.692 114.316
135.358 125.732 110.499
134.461 125.523 109.565
133.691 131.383 113.23
134.149 132.751 113.383
133.7 132.518 114.135
133.514 130.676 113.093
135.138 126.341 109.736
134.05 126.553 109.57
134.313 131.852 112.591
134.016 130.909 112.39
134.655 131.605 112.04
133.895 129.326 111.03
134.423 129.45 111.285
134.164 129.985 111.382
134.613 128.721 110.823
134.804 128.277 110.088
134.696 127.439 109.511
133.936 130.875 111.923
133.99 130.602 111.697
133.814 125.963 114.849
134.162 126.783 115.23
134.119 126.142 115.115
134.109 125.478 114.957
133.785 125.019 114.193
134.178 124.576 114.489
133.728 124.217 113.709
134.421 124.108 113.924
134.289 123.603 113.312
135.009 123.217 113.423
133.818 128.633 115.44
134.092 129.279 116.058
134.271 128.52 115.63
134.07 127.764 115.491
133.684 127.214 114.968
133.432 126.215 114.523
134.001 123.635 112.783
134.864 123.352 112.602
133.602 129.659 115.745
133.883 130.556 115.954
133.949 130.003 116.161
135.159 124.267 112
133.314 130.897 115.68
134.251 131.996 115.759
134.143 131.356 115.98
135.378 124.903 111.412
133.599 131.749 115.315
134.211 132.616 115.02
134.705 132.568 115.578
135.861 125.443 111.077
133.735 132.41 114.749
134.67 133.128 114.029
136.185 126.011 110.994
135.188 126.148 110.33
135.017 133.551 113.438
135.35 128.38 110.604
135.817 128.895 111.287
135.168 129.095 111.214
135.476 127.686 109.776
135.64 128.106 110.956
135.071 126.861 109.44
135.641 127.233 110.336
135.877 126.689 110.426
134.713 132.932 112.632
134.813 131.101 112.154
135.462 132.077 112.228
134.527 130.317 111.907
135.055 130.627 112.143
135.07 129.695 111.568
134.293 126.226 115.71
134.528 127.147 116.309
134.607 126.244 116.018
134.449 125.435 115.916
134.311 125.068 115.238
134.606 124.355 115.418
134.624 124.154 114.706
135.184 123.519 114.741
134.972 123.527 114.058
135.534 122.98 113.843
134.571 128.566 115.986
134.708 129.525 116.299
135.115 129.088 116.656
134.707 128.166 116.478
134.363 127.423 115.846
135.519 122.674 113.204
134.444 130.332 116.42
135.541 131.184 116.548
135.392 130.341 116.418
135.669 122.928 112.658
135.606 123.54 112.286
136.648 123.037 112.508
134.302 131.181 116.569
134.747 132.21 116.305
135.534 131.891 116.607
135.978 123.923 111.976
136.684 123.834 112.376
135.388 132.677 115.994
136.495 124.5 112.169
135.896 124.84 111.844
135.262 133.266 114.733
135.727 132.528 115.258
136.465 125.492 111.587
135.661 133.457 114.037
135.996 127.91 111.384
136.672 128.596 112.092
136.241 128.689 111.702
136.079 127.199 111.151
136.552 127.861 111.67
136.069 126.373 110.889
136.749 127.061 111.555
136.62 126.379 111.699
136.117 133.785 113.167
135.616 131.147 112.432
136.538 131.924 112.566
135.895 132.359 112.575
135.747 130.311 112.028
136.453 130.954 112.517
135.922 129.599 111.421
136.439 130.084 112.043
136.291 129.327 111.833
135.657 133.318 112.591
134.814 126.397 116.39
135.112 127.035 117.074
135.047 126.18 116.815
135.016 125.409 116.593
134.774 124.994 116.042
134.972 124.177 116.326
134.86 123.808 115.704
135.539 123.3 115.676
135.337 123.37 115.252
135.783 122.994 114.888
134.808 127.596 116.851
135.18 128.668 117.195
135.112 127.729 117.112
135.97 122.817 114.126
136.285 122.434 113.388
136.935 122.266 113.708
135.387 129.737 116.611
136.168 130.916 116.766
136.192 129.94 116.86
135.122 128.999 117.002
136.361 122.458 112.837
137.215 122.455 112.934
137.043 131.842 116.486
137.53 123.134 112.532
136.143 132.345 116.058
137.161 132.084 116.095
137.32 124.369 112.512
136.894 132.249 115.354
137.349 124.614 112.141
136.833 125.301 112.108
136.002 133.168 114.636
136.891 132.478 114.842
136.917 126.798 112.362
137.513 127.3 112.795
137.088 127.469 112.236
136.887 125.966 112.056
137.38 126.304 112.406
136.481 132.976 114.188
136.805 133.123 113.328
136.842 131.974 112.989
136.788 132.226 113.696
136.609 130.775 112.894
136.963 131.224 113.323
136.659 129.855 112.488
137.226 130.462 113.073
136.506 129.191 112.221
137.032 129.567 112.574
137.027 128.768 112.509
136.951 127.994 112.083
136.55 132.972 112.791
135.232 126.038 117.183
135.379 126.719 117.452
135.517 125.837 117.403
135.41 125.092 117.251
135.322 124.796 116.732
135.521 124.177 117.006
135.462 123.902 116.339
135.933 123.31 116.509
135.816 123.293 116.063
136.355 122.906 115.731
135.227 128.028 117.391
135.629 128.403 117.412
135.415 127.448 117.555
136.307 122.578 115.167
136.481 122.349 114.381
137.109 122 114.475
135.863 129.864 117.26
136.728 129.867 116.837
136.027 129.089 117.252
137.652 122.419 113.59
137.199 130.928 116.687
137.495 130.704 116.301
138.062 122.989 112.951
138.023 131.499 116.185
138.605 131.153 115.788
137.859 124.039 112.757
137.825 131.808 115.295
138.691 131.618 115.411
137.568 124.921 112.406
137.8 124.589 112.882
138.022 125.41 112.879
137.568 131.63 114.53
138.511 131.326 114.56
137.469 125.578 112.415
138.091 126.059 112.924
137.995 126.596 112.714
137.159 132.275 114.211
137.203 131.625 113.807
137.769 131.057 114.034
137.741 130.992 113.469
137.309 130.054 113.25
137.794 130.46 113.719
137.105 129.294 113.169
137.672 129.646 113.626
137.302 128.602 112.899
137.539 128.972 113.434
137.333 127.926 112.765
137.778 128.377 113.202
137.998 127.528 113.067
135.919 123.954 117.798
136.126 124.553 117.942
136.376 123.915 117.939
136.552 123.303 117.825
136.237 123.04 117.38
136.901 122.706 117.35
135.667 125.596 117.751
135.833 126.281 118.063
135.983 125.467 118.269
135.534 124.416 117.615
135.977 123.45 117.114
136.712 122.544 116.826
136.6 122.638 116.267
137.156 121.887 116.239
137.177 121.891 115.546
137.933 121.687 115.453
135.642 127.107 117.654
135.896 127.672 117.846
136.028 126.991 118.12
136.851 122.165 115.297
137.653 122.107 114.846
136.215 128.513 117.405
136.591 128.533 117.515
136.485 127.97 117.532
137.894 122.295 114.234
137.364 129.111 116.818
137.724 129.589 116.359
137.898 128.669 116.318
138.414 122.839 113.556
138.261 130.103 115.865
138.432 129.243 115.803
138.371 123.721 113.181
139.366 130.911 114.891
139.103 130.199 115.234
138.188 124.706 113.068
138.548 124.356 113.177
138.698 125.162 113.179
139.19 130.93 114.436
139.005 129.751 114.652
139.025 130.034 114.055
138.655 128.902 113.685
138.696 129.003 114.258
138.568 128.036 113.562
138.726 128.119 114.081
138.939 127.374 113.32
139.161 127.494 113.734
138.666 126.608 113.281
139.293 126.906 113.46
138.381 125.888 113.164
138.934 126.053 113.359
138.405 130.874 114.023
138.324 130.224 113.903
138.127 129.313 113.608
138.163 128.66 113.465
138.154 127.875 113.489
138.359 127.095 113.3
136.637 123.646 118.254
136.34 124.5 118.842
136.746 123.814 118.993
137.067 122.971 118.502
137.398 122.611 117.632
137.761 122.125 117.89
137.753 122.008 117.008
138.171 121.945 117.146
136.397 125.832 118.809
136.293 126.592 119.33
136.744 125.944 119.118
136.826 125.338 118.966
136.301 124.881 118.373
137.377 122.174 116.737
138.055 121.704 116.386
137.902 121.792 116.099
138.754 121.563 115.721
135.974 127.079 118.993
136.916 127.569 118.708
136.506 127.291 119.45
136.111 126.472 118.586
138.618 121.781 114.963
136.236 127.856 118.269
137.333 127.848 118.162
138.675 122.269 114.479
137.315 128.057 117.454
137.352 128.666 117.147
137.696 127.965 116.737
138.733 123.048 114.265
138.579 128.486 115.577
138.241 128.248 116.301
138.699 127.84 115.698
138.682 123.644 113.755
138.891 129.202 115.187
139.013 128.424 114.795
138.898 127.89 115.205
138.811 124.252 113.292
139.121 124.213 113.744
139.312 124.909 113.48
138.768 129.266 114.846
138.979 128.578 114.419
139.347 127.646 114.594
139.338 127.753 114.091
139.613 126.93 113.681
139.698 127.195 114.259
139.51 126.072 113.48
139.654 126.425 114.036
139.252 125.272 113.248
139.488 125.613 113.843
136.825 124.551 119.843
137.057 125.207 120.038
137.262 124.708 120.133
137.467 124.182 119.865
136.902 123.442 119.479
137.609 123.129 119.593
137.201 122.619 118.863
137.879 122.528 118.985
137.956 122.16 118.339
138.7 122.044 117.879
136.693 125.899 119.684
136.748 126.702 120.306
137.243 125.962 120.172
136.646 124.649 119.429
138.539 121.724 117.368
138.637 121.598 116.451
139.066 121.722 116.334
136.567 126.929 119.807
137.473 127.562 119.422
137.517 127.274 120.059
139.394 122.098 115.609
138.013 127.291 118.812
139.358 122.57 115.181
138.214 127.447 118.101
137.865 127.343 117.455
138.479 127.097 117.107
138.727 127.078 117.646
139.058 126.706 117.089
139.263 123.017 114.812
138.402 127.605 116.557
138.874 127.184 116.562
139.348 123.622 114.556
140.023 123.708 114.925
140.031 124.151 114.635
139.262 127.274 115.38
138.934 127.654 116.025
139.606 126.605 115.132
139.381 126.933 115.765
139.978 126.183 115.399
139.685 124.538 114.288
140.031 124.776 114.906
139.816 125.31 114.674
139.163 123.916 114.217
139.357 127.28 114.903
139.54 126.551 114.731
139.919 125.915 114.913
139.537 125.7 114.488
139.54 124.895 113.902
137.616 124.601 120.442
137.902 125.184 120.729
138.202 124.856 120.962
138.083 124.143 120.669
137.81 123.618 120.106
138.465 123.273 120.142
137.973 122.483 119.741
138.763 122.351 119.44
138.487 122.339 118.717
139.207 122.602 118.411
138.019 125.821 120.771
138.276 126.285 121.189
138.177 125.921 121.403
138.042 125.557 121.18
137.587 125.321 120.449
139.683 122.281 117.524
138.514 126.832 120.396
138.891 127.243 120.975
138.589 126.739 121.339
137.43 126.662 120.648
139.329 121.881 116.999
139.705 122.129 116.47
138.768 127.675 120.127
138.65 127.581 119.529
140 122.466 116.071
140.305 122.494 116.624
140.639 123.105 116.31
138.827 127.425 119.059
139.023 127.038 118.154
139.597 126.712 117.501
139.506 126.809 118.594
139.973 126.341 116.982
139.934 126.39 118.047
140.413 126.12 117.458
140.091 122.98 115.742
140.628 123.71 115.992
139.572 126.288 116.678
140.418 125.796 116.782
140.126 125.559 116.3
140.547 124.652 115.802
140.571 125.256 116.504
140.438 123.759 115.465
140.895 124.477 116.053
139.849 123.202 115.285
139.529 126.91 116.206
140.182 126.238 115.84
140.362 125.339 115.716
140.463 124.348 115.201
140.242 125.365 115.246
138.819 125.052 121.645
138.946 125.411 122.131
139.006 124.978 121.965
139.02 124.508 121.503
138.751 124.333 120.968
139.119 124.01 120.885
138.866 123.675 120.451
139.609 123.523 120.331
139.249 123.25 119.858
140.086 123.312 119.682
138.633 125.742 121.687
138.764 126.328 122.094
138.777 125.907 122.233
138.539 125.357 121.21
139.55 122.879 119.196
140.017 122.951 118.374
138.412 126.318 121.631
138.99 127.841 121.755
138.467 126.774 121.989
140.444 122.936 117.898
139.626 127.538 120.865
140.215 122.707 117.008
140.675 123.162 117.335
139.367 127.501 120.296
139.286 126.938 119.308
139.442 127.184 119.771
140.038 126.472 118.501
139.862 126.779 119.225
140.6 125.832 117.913
140.555 126.116 118.701
141.418 125.037 117.14
141.082 125.478 118.088
141.525 124.18 116.789
141.653 124.802 117.552
141.119 123.309 116.73
141.461 123.947 117.291
140.811 125.427 117.193
140.911 124.638 116.645
141.066 123.877 116.428
139.269 124.965 122.214
139.469 125.501 122.716
139.57 125.017 122.785
139.769 124.425 122.145
139.421 124.155 121.509
140.365 124.169 121.181
140.025 124.046 120.706
141.045 124.032 120.548
139.126 125.906 122.456
139.195 126.444 122.654
139.466 125.944 122.817
140.44 123.814 120.3
140.972 123.777 119.763
138.76 127.625 122.285
139.209 128.389 122.291
138.901 127.637 122.664
139.103 126.938 122.815
138.588 127.206 122.322
140.556 123.06 118.888
141.21 123.646 118.997
138.901 128.562 121.9
140.068 127.303 120.673
140.065 127.956 121.243
140.712 127.029 119.839
140.856 127.238 120.526
141.496 126.931 119.917
140.986 123.477 118.426
141.725 124.192 118.305
139.749 127.103 120.207
140.339 126.634 119.531
141.25 126.649 119.434
141.033 126.16 118.996
141.477 125.733 118.412
141.604 126.184 119.244
141.539 124.895 118.061
141.933 125.718 118.621
141.779 123.891 117.771
141.957 124.92 118.205
141.241 123.34 117.591
140.125 125.159 123.156
140.071 126.041 123.617
140.736 126.076 123.787
140.778 125.359 123.085
140.413 124.722 122.308
141.107 125.191 122.232
139.607 125.9 123.363
139.757 126.825 123.741
139.965 126.42 123.655
140.775 124.678 121.406
141.43 124.701 121.091
139.412 127.731 123.069
139.759 128.5 122.989
139.376 128.274 123.798
139.3 127.635 123.933
139.429 126.747 123.089
141.526 124.564 119.959
141.879 124.824 120.381
140.439 128.968 122.251
140.047 128.746 121.656
140.787 128.279 121.614
141.361 128.579 121.804
141.655 128.095 121.132
142.241 125.142 119.327
142.484 125.32 119.824
142.476 125.94 119.579
141.666 124.313 119.32
141.091 127.77 120.951
141.879 126.579 119.666
141.765 127.331 120.274
142.21 125.762 119.139
142.175 126.745 119.891
142.323 125.211 118.625
142.002 124.461 118.751
140.471 126.748 123.875
140.553 127.326 124.168
141.208 126.872 124.528
141.399 126.401 123.627
141.575 125.889 122.936
142.012 125.856 122.388
139.589 128.666 124.227
139.94 129.056 124.436
140.212 128.502 124.61
140.233 127.942 124.478
139.846 127.568 124.173
141.51 125.437 121.834
142.162 125.268 121.092
139.799 129.489 123.504
141.414 130.019 123.2
140.009 129.599 124.26
142.474 125.43 120.287
142.609 125.655 120.888
142.669 126.178 120.635
140.867 129.456 122.624
141.561 129.307 122.313
141.791 128.902 122.114
142.164 127.761 120.481
142.092 128.391 121.574
142.61 127.022 120.083
142.569 127.858 121.023
142.587 126.157 120.084
142.845 126.95 120.606
140.819 128.387 125.06
140.677 128.786 125.212
141.502 128.24 125.633
141.551 127.504 125.242
140.845 127.541 124.631
142.31 127.202 124.627
142.15 126.943 123.904
142.352 126.65 123.08
142.415 126.512 122.589
141.109 129.593 124.249
141.666 129.59 124.612
141.258 129.327 124.933
141.003 129.15 125.197
140.211 129.403 124.679
142.537 125.884 121.666
142.713 126.55 121.749
142.324 129.448 123.655
142.064 129.58 122.532
142.812 129.403 122.968
142.514 129.009 122.225
143.078 129.151 122.672
142.653 128.48 121.853
143.486 128.822 122.425
142.754 127.922 121.584
143.452 128.616 122.107
142.987 127.253 121.093
143.45 128.374 122.083
142.787 126.344 121.203
143.037 127.407 121.737
141.456 129.288 125.747
142.296 130.044 126.122
142.925 129.222 126.032
142.352 128.703 125.684
141.271 128.736 125.825
142.724 128.416 125.237
142.568 127.919 124.982
143.197 127.746 124.465
143.214 127.376 123.863
142.708 127.081 122.961
143.354 127.368 123.119
141.718 129.856 125.279
142.164 130.132 124.721
142.383 130.708 125.635
143.137 127.443 122.247
143.656 127.626 122.93
143.786 128.105 122.482
142.713 126.839 122.261
142.61 129.772 124.216
143.279 129.889 123.966
143.334 129.897 123.54
143.821 129.666 123.2
144.009 129.259 122.872
144.547 128.914 122.553
143.553 129.948 125.753
143.694 129.325 125.298
143.628 129.166 125.308
143.683 128.766 125.009
143.639 128.419 124.483
143.991 128.108 123.9
144.709 128.556 123.609
143.96 127.811 123.508
143.145 130.581 124.703
143.433 130.228 125.492
144.323 128.42 123.023
145.094 129.183 123.108
143.695 130.1 124.606
144.115 130.236 123.842
144.497 130.06 123.415
144.966 129.627 122.955
144.171 129.951 124.884
144.39 129.71 124.585
144.379 129.269 124.404
144.423 128.91 124.29
144.171 130.393 124.525
144.86 130.493 123.867
145.053 129.95 123.509
145.235 129.468 123.605
POLYGONS 1460  5840
3 0 1 2
3 0 3 4
3 2 3 0
3 4 5 6
3 3 5 4
3 5 7 6
3 8 1 0
3 9 1 8
3 4 10 0
3 10 8 0
3 6 11 4
3 11 10 4
3 12 6 7
3 11 6 12
3 13 14 15
3 9 13 15
3 9 8 13
3 8 16 13
3 10 17 8
3 17 16 8
3 11 18 10
3 18 17 10
3 19 11 12
3 18 11 19
3 20 14 13
3 21 14 20
3 16 22 13
3 22 20 13
3 23 17 24
3 23 22 17
3 22 16 17
3 18 24 17
3 25 24 18
3 19 25 18
3 20 26 21
3 22 26 20
3 27 26 22
3 23 27 22
3 28 29 30
3 28 31 32
3 30 31 28
3 32 33 34
3 31 33 32
3 34 35 36
3 33 35 34
3 35 37 36
3 38 39 40
3 29 38 40
3 28 38 29
3 28 1 38
3 28 2 1
3 3 2 28
3 32 3 28
3 5 3 32
3 34 5 32
3 7 5 34
3 7 34 41
3 41 34 36
3 42 36 37
3 41 36 42
3 43 44 45
3 39 43 45
3 39 38 43
3 38 46 43
3 1 9 46
3 38 1 46
3 41 47 12
3 7 41 12
3 48 41 42
3 47 41 48
3 49 44 43
3 50 44 49
3 15 14 49
3 15 49 46
3 46 49 43
3 9 15 46
3 47 51 52
3 47 52 12
3 12 52 19
3 48 51 47
3 53 50 49
3 54 50 53
3 14 21 53
3 49 14 53
3 55 56 57
3 55 23 24
3 55 24 56
3 56 24 58
3 25 59 24
3 24 59 58
3 52 25 19
3 59 25 52
3 53 60 54
3 21 60 53
3 21 26 60
3 26 61 60
3 57 27 55
3 57 61 27
3 61 26 27
3 23 55 27
3 62 63 64
3 62 65 66
3 64 65 62
3 65 67 66
3 68 69 70
3 68 71 72
3 70 71 68
3 72 73 74
3 71 73 72
3 63 74 73
3 63 62 74
3 62 75 74
3 66 76 62
3 76 75 62
3 77 66 67
3 77 78 66
3 78 76 66
3 77 79 78
3 80 81 82
3 69 80 82
3 69 68 80
3 68 83 80
3 30 29 83
3 30 83 72
3 72 83 68
3 31 30 72
3 74 31 72
3 33 31 74
3 75 33 74
3 35 33 75
3 76 35 75
3 37 35 76
3 37 76 84
3 84 76 78
3 85 78 79
3 84 78 85
3 86 87 88
3 81 86 88
3 81 80 86
3 80 89 86
3 40 39 89
3 40 89 83
3 83 89 80
3 29 40 83
3 84 90 42
3 37 84 42
3 91 84 85
3 90 84 91
3 92 87 86
3 93 87 92
3 45 44 92
3 45 92 89
3 89 92 86
3 39 45 89
3 90 94 95
3 90 95 42
3 42 95 48
3 91 94 90
3 96 97 98
3 93 96 98
3 93 92 96
3 92 99 96
3 44 50 99
3 92 44 99
3 51 100 101
3 52 51 101
3 95 51 48
3 100 51 95
3 96 102 97
3 102 103 104
3 102 96 103
3 96 99 103
3 50 54 103
3 99 50 103
3 105 106 107
3 105 57 56
3 105 56 106
3 106 56 108
3 58 109 56
3 56 109 108
3 59 110 58
3 58 110 109
3 101 59 52
3 110 59 101
3 103 111 104
3 54 111 103
3 54 60 111
3 60 112 111
3 107 61 105
3 107 112 61
3 112 60 61
3 57 105 61
3 113 114 115
3 113 116 117
3 115 116 113
3 117 118 119
3 116 118 117
3 119 120 121
3 118 120 119
3 120 122 121
3 123 124 125
3 123 126 127
3 125 126 123
3 114 127 126
3 114 113 127
3 113 128 127
3 64 63 128
3 64 128 117
3 117 128 113
3 65 64 117
3 119 65 117
3 67 65 119
3 67 119 129
3 129 119 121
3 130 121 122
3 129 121 130
3 131 132 133
3 124 131 133
3 123 131 124
3 123 69 131
3 123 70 69
3 71 70 123
3 127 71 123
3 73 71 127
3 128 73 127
3 63 73 128
3 67 129 77
3 129 79 77
3 129 130 79
3 130 134 79
3 135 136 137
3 132 135 137
3 131 135 132
3 131 81 135
3 131 82 81
3 69 82 131
3 79 134 85
3 134 138 85
3 139 140 141
3 136 139 141
3 135 139 136
3 135 87 139
3 135 88 87
3 81 88 135
3 85 138 91
3 138 142 91
3 143 140 139
3 144 140 143
3 87 93 143
3 139 87 143
3 94 145 146
3 95 94 146
3 142 94 91
3 145 94 142
3 98 144 143
3 98 97 144
3 97 147 144
3 93 98 143
3 148 149 150
3 148 151 152
3 149 148 152
3 151 153 154
3 152 151 154
3 153 101 100
3 153 100 154
3 154 100 155
3 146 100 95
3 155 100 146
3 97 156 147
3 102 156 97
3 104 157 158
3 104 158 102
3 102 158 156
3 157 159 160
3 158 157 160
3 159 107 106
3 159 106 160
3 160 106 161
3 150 108 148
3 150 161 108
3 161 106 108
3 109 148 108
3 151 148 109
3 110 151 109
3 153 151 110
3 101 153 110
3 104 111 157
3 112 157 111
3 159 157 112
3 107 159 112
3 162 163 164
3 162 165 166
3 164 165 162
3 166 167 168
3 165 167 166
3 168 169 170
3 167 169 168
3 169 171 170
3 172 173 174
3 172 175 176
3 174 175 172
3 163 176 175
3 162 176 163
3 162 114 176
3 162 115 114
3 116 115 162
3 166 116 162
3 118 116 166
3 168 118 166
3 120 118 168
3 170 120 168
3 170 122 120
3 170 171 122
3 171 177 122
3 178 179 180
3 173 178 180
3 172 178 173
3 172 124 178
3 172 125 124
3 126 125 172
3 176 126 172
3 114 126 176
3 181 182 130
3 181 130 177
3 177 130 122
3 181 183 182
3 184 185 186
3 179 184 186
3 178 184 179
3 178 132 184
3 178 133 132
3 124 133 178
3 182 187 134
3 130 182 134
3 188 182 183
3 187 182 188
3 137 185 184
3 137 136 185
3 136 189 185
3 132 137 184
3 187 190 191
3 187 191 134
3 134 191 138
3 188 190 187
3 141 192 193
3 140 192 141
3 189 136 141
3 193 189 141
3 138 191 142
3 191 194 142
3 140 144 192
3 192 144 195
3 196 197 198
3 196 199 200
3 197 196 200
3 199 201 202
3 200 199 202
3 201 146 145
3 201 145 202
3 202 145 203
3 194 145 142
3 203 145 194
3 144 147 195
3 195 147 204
3 205 206 207
3 205 208 209
3 206 205 209
3 208 210 211
3 209 208 211
3 210 150 149
3 210 149 211
3 211 149 212
3 198 152 196
3 198 212 152
3 212 149 152
3 154 196 152
3 199 196 154
3 155 199 154
3 201 199 155
3 146 201 155
3 147 213 204
3 156 213 147
3 207 158 205
3 207 213 158
3 213 156 158
3 160 205 158
3 208 205 160
3 161 208 160
3 210 208 161
3 150 210 161
3 214 215 216
3 214 217 218
3 216 217 214
3 218 219 220
3 217 219 218
3 220 221 222
3 219 221 220
3 221 223 222
3 224 225 226
3 215 224 226
3 214 224 215
3 214 163 224
3 214 164 163
3 165 164 214
3 218 165 214
3 167 165 218
3 220 167 218
3 169 167 220
3 222 169 220
3 171 227 228
3 169 227 171
3 169 223 227
3 169 222 223
3 227 229 228
3 230 231 232
3 230 174 173
3 230 232 174
3 232 233 174
3 225 224 175
3 225 175 233
3 233 175 174
3 163 175 224
3 228 234 177
3 171 228 177
3 235 228 229
3 234 228 235
3 180 231 230
3 180 179 231
3 179 236 231
3 173 180 230
3 177 234 181
3 234 183 181
3 234 235 183
3 235 237 183
3 186 238 239
3 185 238 186
3 236 179 186
3 239 236 186
3 183 237 188
3 237 240 188
3 185 189 238
3 238 189 241
3 190 242 243
3 191 190 243
3 240 190 188
3 242 190 240
3 193 244 245
3 192 244 193
3 241 189 193
3 245 241 193
3 246 247 248
3 246 249 250
3 247 246 250
3 249 243 250
3 249 194 243
3 194 191 243
3 251 195 252
3 251 244 195
3 244 192 195
3 252 253 254
3 251 252 254
3 253 255 256
3 254 253 256
3 255 257 258
3 256 255 258
3 257 259 260
3 258 257 260
3 259 198 197
3 259 197 260
3 260 197 261
3 200 262 197
3 197 262 261
3 248 202 246
3 248 262 202
3 262 200 202
3 203 246 202
3 249 246 203
3 194 249 203
3 252 204 263
3 195 204 252
3 206 263 207
3 206 253 263
3 253 252 263
3 209 253 206
3 255 253 209
3 211 255 209
3 257 255 211
3 212 257 211
3 259 257 212
3 198 259 212
3 204 213 263
3 207 263 213
3 264 265 266
3 264 267 268
3 266 267 264
3 268 269 270
3 267 269 268
3 270 271 272
3 269 271 270
3 271 273 272
3 274 275 276
3 265 274 276
3 264 274 265
3 264 215 274
3 264 216 215
3 217 216 264
3 268 217 264
3 219 217 268
3 270 219 268
3 221 219 270
3 272 221 270
3 223 277 278
3 221 277 223
3 221 273 277
3 221 272 273
3 277 279 278
3 280 281 282
3 275 280 282
3 274 280 275
3 274 225 280
3 274 226 225
3 215 226 274
3 223 278 227
3 278 229 227
3 278 279 229
3 279 283 229
3 232 231 284
3 280 285 281
3 280 232 285
3 280 233 232
3 284 285 232
3 225 233 280
3 229 283 235
3 283 286 235
3 284 287 288
3 284 231 287
3 231 236 287
3 285 284 288
3 235 286 237
3 286 289 237
3 239 238 290
3 239 290 291
3 239 291 236
3 236 291 287
3 292 293 294
3 292 289 293
3 292 240 289
3 240 237 289
3 290 241 295
3 238 241 290
3 296 291 290
3 295 296 290
3 297 298 299
3 294 298 297
3 292 294 297
3 292 297 243
3 292 243 242
3 240 292 242
3 245 244 300
3 245 295 241
3 245 300 295
3 300 301 295
3 302 296 295
3 302 295 303
3 303 295 301
3 303 304 305
3 302 303 305
3 304 306 307
3 305 304 307
3 306 308 309
3 307 306 309
3 308 310 311
3 309 308 311
3 310 248 247
3 310 247 311
3 311 247 312
3 299 250 297
3 299 312 250
3 312 247 250
3 243 297 250
3 244 251 300
3 254 300 251
3 301 300 254
3 256 301 254
3 303 301 256
3 258 303 256
3 304 303 258
3 260 304 258
3 306 304 260
3 261 306 260
3 308 306 261
3 262 308 261
3 310 308 262
3 248 310 262
3 313 314 315
3 313 316 317
3 315 316 313
3 316 318 317
3 319 320 321
3 314 319 321
3 314 313 319
3 313 322 319
3 317 323 313
3 323 322 313
3 324 317 318
3 324 325 317
3 325 323 317
3 325 326 327
3 324 326 325
3 326 328 327
3 329 330 331
3 320 329 331
3 319 329 320
3 319 265 329
3 319 266 265
3 267 266 319
3 322 267 319
3 269 267 322
3 323 269 322
3 271 269 323
3 325 271 323
3 273 271 325
3 273 325 332
3 332 325 327
3 333 327 328
3 332 327 333
3 334 335 336
3 330 334 336
3 329 334 330
3 329 275 334
3 329 276 275
3 265 276 329
3 273 332 277
3 332 279 277
3 332 333 279
3 333 337 279
3 338 281 339
3 338 335 281
3 282 281 334
3 334 281 335
3 282 334 275
3 339 340 338
3 279 337 283
3 337 341 283
3 339 342 343
3 339 281 342
3 281 285 342
3 340 339 343
3 283 341 286
3 341 344 286
3 288 287 345
3 288 345 346
3 288 346 285
3 285 346 342
3 347 348 349
3 347 344 348
3 347 289 344
3 289 286 344
3 345 291 350
3 287 291 345
3 351 346 345
3 351 345 352
3 352 345 350
3 352 353 354
3 351 352 354
3 353 355 356
3 354 353 356
3 355 357 358
3 356 355 358
3 357 359 360
3 358 357 360
3 359 361 362
3 360 359 362
3 349 362 361
3 347 349 361
3 347 361 294
3 347 294 293
3 289 347 293
3 350 296 363
3 291 296 350
3 352 350 364
3 364 350 363
3 353 352 365
3 365 352 364
3 355 353 366
3 366 353 365
3 357 355 367
3 367 355 366
3 359 357 368
3 368 357 367
3 298 368 299
3 298 361 368
3 361 359 368
3 294 361 298
3 296 302 363
3 305 363 302
3 364 363 305
3 307 364 305
3 365 364 307
3 309 365 307
3 366 365 309
3 311 366 309
3 367 366 311
3 312 367 311
3 368 367 312
3 299 368 312
3 369 370 371
3 369 372 373
3 371 372 369
3 373 374 375
3 372 374 373
3 374 376 375
3 377 378 379
3 377 380 381
3 379 380 377
3 370 381 380
3 369 381 370
3 369 314 381
3 369 315 314
3 316 315 369
3 373 316 369
3 318 316 373
3 318 373 382
3 382 373 375
3 383 375 376
3 383 384 375
3 384 382 375
3 383 385 384
3 386 387 388
3 378 386 388
3 378 377 386
3 377 389 386
3 321 320 389
3 321 389 381
3 381 389 377
3 314 321 381
3 318 382 324
3 326 324 382
3 384 326 382
3 384 328 326
3 384 385 328
3 385 390 328
3 391 387 386
3 392 387 391
3 331 330 391
3 331 391 389
3 389 391 386
3 320 331 389
3 328 390 333
3 390 393 333
3 394 335 395
3 394 392 335
3 336 335 391
3 391 335 392
3 336 391 330
3 395 396 394
3 333 393 337
3 393 397 337
3 335 338 395
3 340 398 399
3 338 340 399
3 338 399 396
3 338 396 395
3 399 398 400
3 337 397 341
3 397 401 341
3 343 342 402
3 343 398 340
3 343 402 398
3 402 403 398
3 404 400 398
3 403 404 398
3 405 406 407
3 405 401 406
3 405 344 401
3 344 341 401
3 402 346 408
3 342 346 402
3 403 402 409
3 409 402 408
3 410 404 403
3 410 403 411
3 411 403 409
3 411 412 413
3 410 411 413
3 412 414 415
3 413 412 415
3 414 416 417
3 415 414 417
3 407 417 416
3 405 407 416
3 405 416 349
3 405 349 348
3 344 405 348
3 346 351 408
3 354 408 351
3 409 408 354
3 356 409 354
3 411 409 356
3 358 411 356
3 412 411 358
3 360 412 358
3 414 412 360
3 362 414 360
3 416 414 362
3 349 416 362
3 418 419 420
3 418 421 422
3 420 421 418
3 422 423 424
3 421 423 422
3 424 425 426
3 423 425 424
3 425 427 426
3 428 429 430
3 419 428 430
3 419 418 428
3 418 431 428
3 371 370 431
3 371 431 422
3 422 431 418
3 372 371 422
3 424 372 422
3 374 372 424
3 426 374 424
3 376 432 433
3 374 432 376
3 374 427 432
3 374 426 427
3 432 434 433
3 435 436 437
3 429 435 437
3 428 435 429
3 428 378 435
3 428 379 378
3 380 379 428
3 431 380 428
3 370 380 431
3 376 433 383
3 433 385 383
3 433 434 385
3 434 438 385
3 388 436 435
3 388 387 436
3 387 439 436
3 378 388 435
3 385 438 390
3 438 440 390
3 441 392 442
3 441 439 392
3 439 387 392
3 442 443 444
3 441 442 444
3 444 443 445
3 390 440 393
3 440 446 393
3 392 394 442
3 396 442 394
3 396 447 442
3 447 443 442
3 448 445 443
3 447 448 443
3 449 450 451
3 449 446 450
3 449 397 446
3 397 393 446
3 396 399 447
3 400 452 453
3 399 400 453
3 399 453 448
3 399 448 447
3 452 454 455
3 453 452 455
3 455 454 456
3 457 458 459
3 451 458 457
3 451 457 449
3 449 457 460
3 397 460 401
3 449 460 397
3 452 404 461
3 400 404 452
3 454 452 462
3 462 452 461
3 463 456 454
3 463 454 464
3 464 454 462
3 459 463 464
3 459 464 457
3 457 464 465
3 406 465 407
3 406 460 465
3 460 457 465
3 401 460 406
3 404 410 461
3 413 461 410
3 462 461 413
3 415 462 413
3 464 462 415
3 417 464 415
3 465 464 417
3 407 465 417
3 466 467 468
3 466 469 470
3 468 469 466
3 470 471 472
3 469 471 470
3 472 473 474
3 471 473 472
3 473 475 474
3 476 477 478
3 476 479 480
3 478 479 476
3 467 480 479
3 466 480 467
3 466 419 480
3 466 420 419
3 421 420 466
3 470 421 466
3 423 421 470
3 472 423 470
3 425 423 472
3 474 425 472
3 474 427 425
3 474 475 427
3 475 481 427
3 482 483 484
3 477 482 484
3 477 476 482
3 476 485 482
3 430 429 485
3 430 485 480
3 480 485 476
3 419 430 480
3 427 481 486
3 432 427 486
3 486 434 432
3 487 434 486
3 482 488 483
3 437 436 489
3 437 489 482
3 437 482 485
3 482 489 488
3 429 437 485
3 490 491 492
3 490 487 491
3 490 438 487
3 438 434 487
3 493 439 494
3 493 489 439
3 489 436 439
3 494 495 496
3 493 494 496
3 495 497 498
3 496 495 498
3 498 497 499
3 500 490 492
3 501 500 492
3 438 500 440
3 490 500 438
3 439 441 494
3 444 494 441
3 495 494 444
3 445 495 444
3 445 502 495
3 502 497 495
3 503 499 497
3 503 497 504
3 504 497 502
3 504 505 506
3 503 504 506
3 505 507 508
3 506 505 508
3 501 508 507
3 501 507 500
3 500 507 509
3 440 509 446
3 500 509 440
3 502 448 510
3 445 448 502
3 504 502 511
3 511 502 510
3 505 504 512
3 512 504 511
3 507 505 513
3 513 505 512
3 450 513 451
3 450 509 513
3 509 507 513
3 446 509 450
3 448 453 510
3 455 510 453
3 511 510 455
3 456 511 455
3 456 514 511
3 514 512 511
3 458 514 459
3 458 513 514
3 513 512 514
3 451 513 458
3 456 463 514
3 459 514 463
3 515 516 517
3 515 518 519
3 517 518 515
3 519 520 521
3 518 520 519
3 521 522 523
3 520 522 521
3 522 524 523
3 525 526 527
3 516 525 527
3 516 515 525
3 515 528 525
3 468 467 528
3 468 528 519
3 519 528 515
3 469 468 519
3 521 469 519
3 471 469 521
3 523 471 521
3 523 524 529
3 523 529 471
3 471 529 473
3 529 475 473
3 530 475 529
3 531 532 533
3 526 531 533
3 525 531 526
3 525 477 531
3 525 478 477
3 479 478 525
3 528 479 525
3 467 479 528
3 475 530 481
3 530 534 481
3 484 532 531
3 484 483 532
3 483 535 532
3 477 484 531
3 536 486 481
3 536 481 537
3 537 481 534
3 486 536 487
3 483 538 535
3 488 538 483
3 489 539 540
3 489 540 488
3 488 540 538
3 539 541 542
3 540 539 542
3 541 543 544
3 542 541 544
3 543 545 546
3 544 543 546
3 545 547 548
3 546 545 548
3 547 549 550
3 548 547 550
3 537 550 549
3 536 537 549
3 536 549 492
3 536 492 491
3 487 536 491
3 489 493 539
3 496 539 493
3 541 539 496
3 498 541 496
3 543 541 498
3 499 543 498
3 499 551 543
3 551 545 543
3 547 545 552
3 552 545 551
3 549 547 553
3 553 547 552
3 492 553 501
3 549 553 492
3 499 503 551
3 506 551 503
3 552 551 506
3 508 552 506
3 553 552 508
3 501 553 508
3 554 555 556
3 554 557 558
3 556 557 554
3 558 559 560
3 557 559 558
3 559 561 560
3 562 563 564
3 555 562 564
3 554 562 555
3 554 516 562
3 554 517 516
3 518 517 554
3 558 518 554
3 520 518 558
3 560 520 558
3 560 561 565
3 560 565 520
3 520 565 522
3 565 524 522
3 566 524 565
3 567 568 569
3 567 570 571
3 569 570 567
3 563 571 570
3 562 571 563
3 562 526 571
3 562 527 526
3 516 527 562
3 572 529 524
3 572 524 573
3 573 524 566
3 529 572 530
3 567 574 568
3 571 532 567
3 571 533 532
3 567 532 574
3 575 576 532
3 574 532 576
3 575 577 578
3 575 578 576
3 571 526 533
3 578 577 579
3 580 572 573
3 581 580 573
3 530 580 534
3 572 580 530
3 575 535 582
3 532 535 575
3 577 575 583
3 583 575 582
3 584 579 577
3 584 577 585
3 585 577 583
3 585 586 587
3 584 585 587
3 586 588 589
3 587 586 589
3 588 590 591
3 589 588 591
3 581 591 590
3 581 590 580
3 580 590 592
3 534 592 537
3 580 592 534
3 535 538 582
3 540 582 538
3 583 582 540
3 542 583 540
3 585 583 542
3 544 585 542
3 586 585 544
3 546 586 544
3 588 586 546
3 548 588 546
3 590 588 548
3 550 590 548
3 592 590 550
3 537 592 550
3 593 594 595
3 593 596 597
3 595 596 593
3 596 598 597
3 599 600 601
3 594 599 601
3 593 599 594
3 593 555 599
3 593 556 555
3 557 556 593
3 597 557 593
3 597 598 602
3 597 602 557
3 557 602 559
3 602 561 559
3 603 561 602
3 604 605 606
3 604 607 608
3 606 607 604
3 600 608 607
3 599 608 600
3 599 563 608
3 599 564 563
3 555 564 599
3 609 565 561
3 609 561 610
3 610 561 603
3 565 609 566
3 611 568 612
3 611 605 568
3 569 568 604
3 604 568 605
3 613 614 611
3 613 611 612
3 608 570 604
3 604 570 569
3 570 608 563
3 613 615 614
3 616 617 618
3 610 617 616
3 610 616 609
3 609 616 619
3 566 619 573
3 609 619 566
3 568 574 612
3 576 612 574
3 613 612 576
3 613 620 615
3 613 576 620
3 576 578 620
3 579 621 622
3 579 622 578
3 578 622 620
3 621 623 624
3 622 621 624
3 618 624 623
3 618 623 616
3 616 623 625
3 619 616 626
3 626 616 625
3 573 626 581
3 619 626 573
3 579 584 621
3 587 621 584
3 623 621 587
3 589 623 587
3 625 623 589
3 591 625 589
3 626 625 591
3 581 626 591
3 627 628 629
3 627 595 594
3 627 629 595
3 629 630 595
3 596 595 631
3 595 630 631
3 631 598 596
3 632 598 631
3 633 634 635
3 633 636 637
3 635 636 633
3 628 637 636
3 627 637 628
3 627 600 637
3 627 601 600
3 594 601 627
3 598 632 638
3 602 598 638
3 638 603 602
3 639 603 638
3 640 641 642
3 634 640 642
3 633 640 634
3 633 605 640
3 633 606 605
3 607 606 633
3 637 607 633
3 600 607 637
3 643 644 645
3 643 639 644
3 643 610 639
3 610 603 639
3 640 646 641
3 605 646 640
3 605 611 646
3 611 647 646
3 614 648 611
3 611 648 647
3 615 649 650
3 615 650 614
3 614 650 648
3 649 651 652
3 650 649 652
3 651 653 654
3 652 651 654
3 645 654 653
3 643 645 653
3 643 653 618
3 643 618 617
3 610 643 617
3 615 620 649
3 622 649 620
3 651 649 622
3 624 651 622
3 653 651 624
3 618 653 624
3 655 656 657
3 655 658 659
3 657 658 655
3 659 629 628
3 659 658 629
3 658 660 629
3 630 629 661
3 629 660 661
3 631 630 662
3 630 661 662
3 662 632 631
3 663 632 662
3 664 665 666
3 664 667 668
3 666 667 664
3 656 668 667
3 655 668 656
3 655 634 668
3 655 635 634
3 636 635 655
3 659 636 655
3 628 636 659
3 669 638 632
3 669 632 670
3 670 632 663
3 638 669 639
3 664 671 665
3 668 641 664
3 668 642 641
3 664 641 671
3 672 673 641
3 671 641 673
3 672 674 675
3 672 675 673
3 668 634 642
3 674 676 677
3 675 674 677
3 676 678 679
3 677 676 679
3 678 680 681
3 679 678 681
3 680 682 683
3 681 680 683
3 670 683 682
3 669 670 682
3 669 682 645
3 669 645 644
3 639 669 644
3 641 646 672
3 647 672 646
3 674 672 647
3 648 674 647
3 676 674 648
3 650 676 648
3 678 676 650
3 652 678 650
3 680 678 652
3 654 680 652
3 682 680 654
3 645 682 654
3 684 685 686
3 684 687 688
3 686 687 684
3 688 657 656
3 688 687 657
3 687 689 657
3 658 657 690
3 657 689 690
3 660 658 691
3 658 690 691
3 661 660 692
3 660 691 692
3 693 692 694
3 693 662 692
3 662 661 692
3 662 693 663
3 695 696 697
3 685 695 697
3 684 695 685
3 684 665 695
3 684 666 665
3 667 666 684
3 688 667 684
3 656 667 688
3 698 699 700
3 694 699 698
3 694 698 693
3 693 698 701
3 663 701 670
3 693 701 663
3 695 702 696
3 665 702 695
3 665 671 702
3 671 703 702
3 673 704 671
3 671 704 703
3 675 705 673
3 673 705 704
3 677 706 675
3 675 706 705
3 679 707 677
3 677 707 706
3 700 681 698
3 700 707 681
3 707 679 681
3 683 698 681
3 701 698 683
3 670 701 683
3 686 708 709
3 685 708 686
3 687 686 710
3 686 709 710
3 689 687 711
3 687 710 711
3 690 689 712
3 689 711 712
3 713 712 714
3 713 691 712
3 691 690 712
3 691 715 692
3 713 715 691
3 692 715 694
3 697 696 716
3 697 716 717
3 697 717 685
3 685 717 708
3 718 713 714
3 719 718 714
3 699 718 700
3 699 715 718
3 715 713 718
3 694 715 699
3 696 702 716
3 716 720 717
3 716 702 720
3 702 703 720
3 704 721 703
3 703 721 720
3 705 722 704
3 704 722 721
3 706 723 705
3 705 723 722
3 719 707 718
3 719 723 707
3 723 706 707
3 700 718 707
3 709 708 724
3 709 725 710
3 724 725 709
3 710 726 711
3 725 726 710
3 711 727 712
3 726 727 711
3 712 727 714
3 724 717 728
3 708 717 724
3 725 724 729
3 729 724 728
3 726 725 730
3 730 725 729
3 727 726 731
3 731 726 730
3 714 731 719
3 727 731 714
3 717 720 728
3 721 728 720
3 729 728 721
3 722 729 721
3 730 729 722
3 723 730 722
3 731 730 723
3 719 731 723
