# vtk DataFile Version 3.0
this file was written using fslvtkio
ASCII
DATASET POLYDATA
POINTS 642 float
115.55 113.346 39.9799
81.2102 111.334 39.5799
85.3393 93.8554 34.6912
110.752 94.8972 36.4734
110.061 103.017 64.8284
106.731 99.0807 16.3487
89.7129 98.5131 11.2985
88.6019 102.303 65.2556
97.9525 114.836 52.1827
98.723 88.8743 48.3527
99.0198 85.5702 22.9942
97.6842 116.998 30.3327
92.3986 108.577 64.4446
104.688 108.881 63.3238
99.0751 102.172 69.9288
93.6682 94.2541 59.2224
104.637 94.5813 60.0587
94.8027 105.402 22.0045
99.1518 96.5059 3.22612
102.121 107.366 23.5564
92.4267 87.2588 8.81112
106.699 87.6975 11.4048
109.726 99.5338 51.5493
113.814 110.131 54.5023
114.303 104.514 37.3036
110.662 95.5537 24.8786
111.656 108.613 28.6849
82.4741 109.824 55.6531
87.4249 99.0206 50.8903
84.0567 103.412 37.8192
85.9858 106.757 27.369
86.5903 94.0691 20.9266
107.351 119.886 35.3501
108.512 119.569 50.0594
96.5506 124.091 43.9172
87.5535 117.684 33.9012
86.7597 118.148 50.3515
106.811 87.4799 28.7942
98.4069 83.8067 39.5088
104.817 89.5477 42.1
90.5634 87.4856 25.5758
92.4238 89.7949 42.0103
98.6674 108.818 62.8984
102.697 107.306 69.8901
95.1929 107.206 70.5184
106.084 101.866 70.3333
109.991 108.26 67.4822
101.332 111.04 56.164
95.377 110.813 56.4835
87.9548 107.338 68.2787
92.5865 101.073 70.5556
96.0238 96.8472 66.5958
102.616 97.4396 66.5486
99.2239 94.4943 60.2458
107.858 97.7483 63.5541
90.7958 97.4154 63.2801
96.6699 92.4733 54.2268
101.471 92.5307 54.2398
96.762 101.704 10.5695
101.197 102.381 12.1081
98.6064 104.899 21.7396
104.088 102.997 17.7671
102.959 97.9444 9.24506
93.4597 97.7999 5.07668
92.4884 102.738 14.2209
95.5643 112.095 25.9971
100.568 112.914 26.246
99.844 86.3097 9.00123
103.215 92.0421 8.49695
96.0083 92.1611 4.97817
106.986 94.5436 13.0657
102.291 85.0401 16.6713
96.557 84.6827 14.7963
89.9839 93.1021 7.67643
111.56 105.497 52.874
114.369 106.695 45.0123
110.76 103.259 44.4781
118.036 107.488 38.1693
114.691 111.89 46.7478
112.312 107.221 60.0592
109.931 101.607 58.2087
110.283 97.2851 43.7105
109.025 101.677 38.3623
107.958 102.829 33.4721
116.693 104.781 31.472
108.1 102.714 27.8872
114.143 111.421 33.9215
111.32 94.823 30.4523
107.769 97.1444 21.0418
105.404 103.219 24.3738
85.7889 105.093 53.4043
86.374 101.747 44.1217
82.9591 105.579 46.4046
86.7773 99.579 36.8144
87.017 96.5226 42.4606
88.3101 100.997 58.2169
85.9671 106.291 60.6132
82.0498 109.795 46.6671
79.7003 105.843 37.8537
81.2859 104.076 31.2367
88.0763 100.181 31.0762
89.0716 100.814 25.285
84.9619 93.8299 27.4863
82.6273 109.852 32.8622
89.4273 101.763 19.2977
88.4678 95.7352 16.075
109.207 122.74 43.1157
103.483 124.377 47.7637
102.613 123.155 39.4211
97.1391 121.64 50.3454
103.152 117.425 52.2085
113.152 117.673 45.9321
112.371 117.477 37.398
102.083 118.759 32.1618
97.0535 121.004 36.4552
91.0407 122.502 38.7277
90.4892 123.837 47.8498
85.3434 120.873 42.6421
92.631 116.827 52.1923
92.7975 117.942 31.6708
83.7547 115.085 37.2099
82.7106 115.778 45.8189
103.163 84.8031 35.155
104.56 79.9267 41.2275
108.154 85.216 37.3971
102.694 88.2322 46.165
98.4444 82.0084 44.5362
98.3297 87.394 32.363
103.294 86.5885 25.9497
109.56 90.052 32.3384
108.808 91.7042 40.2173
90.537 87.2656 35.5773
91.9005 81.1552 40.4356
94.2279 87.0235 35.5801
95.024 88.4413 45.6335
87.9597 91.6163 39.5284
87.1327 89.1854 30.7015
94.7092 86.4411 24.8473
109.218 110.006 59.1561
105.843 112.082 53.6686
111.034 113.161 51.1662
109.665 114.603 31.3331
105.149 114.976 28.071
106.123 108.629 25.7652
105.195 92.5796 51.1068
108.067 96.2844 56.2115
108.759 93.9165 47.2232
110.825 89.4848 25.1483
109.35 91.1989 17.497
107.172 86.2206 19.6241
90.8958 110.933 54.6108
87.8826 109.782 60.6436
85.6719 111.954 51.8865
86.12 112.194 29.7394
91.1146 106.423 23.881
90.8492 113.303 27.2267
88.91 93.8099 46.9655
89.75 96.2004 55.7288
92.5054 92.5843 51.0269
91.8474 85.7089 16.1835
87.7574 89.4653 13.1651
86.1243 89.0973 23.229
100.491 108.996 66.4612
98.9833 107.642 68.8523
97.0296 109.088 66.8497
97.0963 105.208 70.7134
100.784 105.154 70.531
103.779 109.557 67.3865
101.73 108.774 63.0428
95.4385 108.599 63.8061
93.4456 109.434 68.5129
104.681 105.056 71.1607
106.263 107.445 69.2949
107.82 105.335 69.928
107.307 109.537 65.9372
102.733 102.192 70.9977
108.566 102.286 68.2252
110.143 105.273 67.3343
100.1 109.93 59.7534
96.9945 109.836 60.1657
98.3453 110.84 56.1886
94.1659 109.671 60.6999
102.919 109.93 59.7641
99.6004 112.459 53.396
96.6985 112.188 53.5271
91.6322 106.668 70.5015
93.7652 104.505 71.8362
90.5867 104.386 70.824
95.9667 101.76 70.8925
90.0058 109.258 67.8478
88.0464 104.463 67.9486
90.1971 101.923 68.4715
99.2464 97.8676 66.6386
100.85 95.0844 63.9678
97.71 94.9654 63.8215
101.909 94.3144 60.4415
103.805 94.5326 63.7693
101.072 99.9986 68.9819
97.377 99.3232 69.2113
94.6902 94.2533 63.5809
96.3194 94.2693 60.2892
105.429 96.697 65.7981
104.164 99.5781 69.4189
107.082 99.609 67.2062
106.674 95.2159 62.1375
108.769 100.538 64.404
94.2968 98.9492 69.3382
93.1641 96.4298 65.5566
91.5045 99.3155 66.9927
92.1447 95.1247 61.5801
89.5868 99.9613 64.5752
97.8581 93.6161 57.0927
100.576 93.6606 57.0836
99.0439 92.9735 54.1232
103.039 93.6558 56.7182
95.2452 93.7237 56.382
97.7687 91.3942 50.7172
99.9884 91.6496 50.7764
99.0098 101.759 11.2244
99.8787 103.704 16.0605
97.6079 103.174 15.8278
100.056 106.331 22.6113
101.218 104.516 19.1218
100.266 99.709 7.74012
97.9706 99.2116 6.51984
95.8665 103.732 16.0317
96.6735 104.698 21.4345
102.608 102.886 15.1784
102.16 99.8656 10.372
103.586 100.218 13.7795
101.258 97.5022 5.64811
102.545 104.412 20.708
105.529 100.963 16.4142
104.816 98.588 12.8069
95.4998 99.7002 7.20556
94.5014 102.828 12.122
93.348 100.03 9.55863
93.8857 104.172 17.4494
96.3119 97.3237 3.20228
91.6483 98.4635 8.51095
91.4028 100.742 12.208
97.0763 107.9 24.3032
99.1448 109.043 24.3031
97.8676 112.018 25.5396
101.518 110.384 24.7672
94.9939 109.006 24.0024
96.5912 114.83 28.0565
99.1168 115.11 28.1088
102.22 88.8202 7.6735
100.048 92.0306 6.28362
98.5704 89.2204 7.11004
97.847 94.021 2.67511
101.714 94.5323 4.7361
105.716 89.1049 9.0422
103.375 86.4272 10.2393
96.3484 86.8337 8.53283
94.2865 89.3938 6.5926
103.582 96.0179 7.60387
105.927 93.4242 9.23074
105.759 96.6983 11.1122
107.522 91.2467 11.0209
106.674 96.9955 14.6092
101.489 84.9841 12.603
98.1134 84.8665 11.216
99.3608 84.1888 15.9313
94.9389 85.2833 10.9151
104.402 85.6738 13.3244
100.512 85.118 19.9272
97.5284 84.7385 19.0448
92.7369 92.7143 4.90783
94.1527 95.862 2.78515
91.2014 96.241 6.48225
90.482 89.6821 7.0937
89.7949 95.9353 9.54905
112.337 106.196 48.7815
112.651 105.092 44.3573
111.372 104 48.3075
112.29 104.663 40.5683
115.148 105.765 40.7288
113.202 108.304 49.8129
113.023 107.704 53.5731
110.78 102.887 51.9304
110.39 101.725 48.5526
115.933 107.223 42.5553
114.089 109.233 47.0963
115.66 109.927 43.1185
114.013 110.733 50.7414
117.795 105.434 37.474
116.781 110.277 39.1906
115.564 112.514 42.6722
111.962 106.345 56.6143
110.233 103.872 55.4759
110.48 104.7 59.5334
109.875 100.694 54.6751
114.097 108.544 57.2359
111.252 105.211 63.223
110.031 102.412 61.6776
109.738 100.788 45.2736
109.324 102.631 41.9538
109.611 99.2269 41.3051
110.472 103.986 38.2738
110.094 98.8189 47.8109
110.275 96.2986 39.664
109.49 98.4814 37.6006
111.879 104.056 32.7003
112.351 104.206 29.2765
106.946 102.309 30.3827
110.944 105.587 27.8253
114.369 106.511 29.5557
116.045 103.887 33.9119
110.532 104.528 35.7944
107.407 98.8104 29.1814
107.036 99.0288 26.9329
115.675 108.447 32.3395
118.237 106.009 34.4372
116.504 109.88 35.5503
113.018 110.156 31.2238
115.142 112.484 36.921
108.244 102.282 35.6747
108.087 98.5821 31.438
108.849 98.3558 34.4662
111.208 95.3082 27.4708
111.02 95.0406 33.693
107.007 99.6025 24.6421
106.763 103.109 26.3077
106.749 100.637 22.4129
108.277 106.024 26.9207
108.659 96.1912 23.1175
107.385 98.4125 18.9053
106.367 101.22 19.916
86.2625 103.247 48.2208
85.1487 103.902 44.8452
84.9464 105.365 49.7262
82.8868 104.334 42.0771
85.5528 102.898 40.6994
86.738 100.917 48.0511
86.6422 102.393 52.0002
84.2048 107.426 54.7748
83.5775 107.428 51.1083
86.7953 100.598 40.6543
86.7036 99.3293 44.1825
86.861 97.6721 39.6941
87.0909 98.0209 46.8807
86.4394 102.151 37.5321
86.1921 96.7332 35.8048
86.1015 95.0161 38.2683
87.4304 102.947 55.5912
85.9638 105.515 57.0239
87.6954 103.951 59.6579
83.6905 107.836 58.1103
87.7537 100.014 54.188
88.1853 101.736 61.9973
87.2096 104.504 63.6001
82.6408 107.432 46.4375
81.2958 105.547 42.1735
80.8086 107.794 42.5792
80.7257 104.072 37.9467
83.4989 109.355 50.9161
80.8966 110.351 42.7845
80.4119 108.707 39.1563
85.8718 102.472 32.0202
88.5482 100.049 28.2749
86.0146 102.695 28.8563
87.9886 97.4289 23.0426
87.6814 96.8127 25.6956
86.5833 102.598 35.1826
82.6871 103.487 34.5127
83.4457 104.806 28.999
87.3622 103.958 27.1083
87.3855 96.6029 28.3704
87.631 99.6323 33.5622
86.5336 96.4721 31.8574
85.4141 93.7911 23.6096
84.7653 93.6469 31.3591
79.7864 104.264 34.2712
81.4488 106.575 30.8662
80.8272 108.033 35.3099
83.7851 107.722 29.7377
81.806 110.867 36.5678
89.1273 101.604 22.8537
88.0927 98.4245 20.2066
87.9016 99.1621 17.3061
87.8788 95.016 19.0194
89.9841 103.785 25.133
89.188 100.309 14.7985
88.5771 97.2526 13.5181
106.637 124.565 45.377
103.246 124.28 43.4056
105.98 123.626 41.198
99.9774 123.528 42.1726
100.343 124.179 45.6274
106.62 123.123 49.1631
109.278 122.543 47.12
108.519 121.71 39.1603
105.42 122.256 37.5012
100.546 122.76 49.0965
103.816 121.552 50.5918
100.804 119.933 51.1809
105.875 118.924 51.2425
96.9327 123.884 47.4355
97.6513 118.604 52.0211
100.325 116.092 52.3533
111.643 120.752 44.8333
111.02 120.224 40.6897
113.106 118.231 41.863
109.871 119.03 36.9177
111.232 119.535 48.594
114.601 115.643 42.9453
113.919 115.489 38.7706
102.637 121.502 35.6265
99.5948 122.274 38.2491
99.7441 120.226 34.4576
96.8771 122.753 40.3805
104.8 119.695 33.6561
99.8046 117.594 31.1384
97.2423 119.141 33.0246
90.4946 123.924 43.2592
87.4054 123.42 45.0562
88.0662 122.208 40.7716
85.9168 120.525 46.8614
88.0984 121.698 49.0561
93.2467 124.236 45.5275
93.4667 123.682 41.421
88.3417 120.712 36.6949
86.1471 119.861 38.6417
90.8743 121.005 50.9968
93.8253 123.411 49.3508
94.2427 119.725 51.4278
89.4848 117.538 51.4723
95.5223 115.893 52.6401
94.2958 122.154 37.9286
91.4441 120.546 35.2756
94.5389 120.18 34.0712
90.0575 118.245 32.8114
95.3229 117.323 31.088
84.2474 118.062 40.3325
83.7054 118.724 44.7044
82.4617 116.046 41.7247
84.1617 117.821 48.4951
85.4537 116.831 35.7876
82.3808 113.312 38.3606
81.7336 113.389 42.6048
104.331 78.9314 36.1577
108.523 80.2263 38.1898
105.977 84.1202 35.6126
107.348 84.7744 39.844
106.484 82.4563 41.1135
102.389 80.9481 39.7206
102.168 84.0218 37.8936
104.598 86.9639 32.7344
106.91 86.5576 33.9141
104.188 83.7267 43.1708
101.719 81.4998 43.1385
101.408 84.6741 45.4705
98.2446 81.3929 41.0424
104.239 88.0255 43.6007
100.567 88.604 47.5436
98.4903 85.7829 46.01
100.922 86.6982 34.9357
102.62 87.2383 31.5689
100.546 87.1255 29.8041
105.244 87.044 27.4801
98.9098 86.3251 37.3471
98.7014 87.0791 26.9627
101.367 86.1901 24.4801
107.564 88.5866 34.9479
106.945 88.6952 38.4445
108.691 90.8777 36.8625
105.862 90.6842 40.7773
108.95 87.9607 30.7744
110.029 92.1427 34.6905
110.288 93.149 38.4967
89.9695 84.4765 37.4576
92.8915 82.1095 36.4221
92.7198 87.4272 35.2957
95.4727 85.1146 37.7387
95.2964 80.2305 38.5546
91.7086 84.8235 40.8957
91.0762 87.674 39.2428
91.1509 87.6889 31.1021
92.7169 88.1776 30.1615
95.1878 80.7324 42.2109
93.6674 84.3427 42.9365
95.9701 84.3166 44.7031
93.5941 89.0788 43.8846
96.7118 88.4836 47.1969
90.2613 90.029 37.424
89.0273 88.3312 32.7736
88.354 90.5514 35.2112
88.8165 88.0241 27.6894
90.522 91.2397 40.9696
86.3515 92.3972 37.0032
86.1165 91.0991 33.2203
94.6866 87.9243 29.7736
96.3407 87.8492 34.5852
96.5642 87.1602 28.6488
92.6905 86.9543 25.3226
96.9089 86.004 23.7382
107.337 110.906 56.6812
108.308 112.288 52.0572
109.94 111.481 54.9545
109.721 116.1 50.0796
106.932 115.115 50.4807
105.15 110.316 58.3821
106.918 109.704 61.5623
111.722 110.413 56.8645
112.281 111.969 53.2207
104.563 114.329 51.7993
103.455 111.227 54.9066
101.945 113.312 52.7582
109.311 109.346 62.7733
112.376 109.463 60.33
111.261 107.579 63.9467
113.502 112.882 49.782
112.768 116.04 48.908
114.727 114.612 46.2486
107.456 114.988 29.6658
105.697 111.74 26.7249
107.965 111.851 28.0835
103.775 107.69 24.7286
103.611 111.272 25.6085
106.465 117.821 31.6013
108.813 117.547 33.412
110.344 111.518 29.4703
108.638 108.876 27.2869
102.833 113.962 26.8043
103.908 117.077 30.0255
101.358 116.322 28.6452
111.043 116.089 34.2152
112.108 112.921 31.9785
113.447 114.454 35.1742
105.624 105.943 25.5954
103.421 104.803 23.4054
104.974 103.118 21.2228
106.731 94.5145 53.4701
108.31 95.3893 51.4592
107.357 92.9144 49.3073
109.655 96.6308 49.688
109.278 97.6048 53.7934
106.445 95.3448 58.0002
105.056 93.9161 55.2783
105.203 91.7166 46.683
107.077 91.6448 44.8172
109.078 98.9857 57.2473
108.338 96.9702 59.9887
109.395 99.6293 61.0555
103.44 92.6193 52.7915
103.314 91.6193 47.6633
101.736 91.526 49.5847
109.387 92.2731 43.77
109.949 95.6989 45.8212
110.169 94.4776 41.9226
110.594 90.5083 21.2339
109.313 88.0451 17.9238
109.365 87.7098 22.349
107.46 86.568 15.3265
108.634 89.3622 14.1056
110.349 93.2651 21.4715
111.333 92.4035 24.3515
109.341 87.4993 26.5817
107.017 87.0659 24.2256
108.397 92.4407 14.6048
109.042 94.3187 18.8845
107.541 95.6424 16.7866
111.613 92.3834 27.7369
111.002 89.4043 28.8165
110.877 92.1925 31.4966
105.017 86.3884 22.4424
104.848 85.7219 17.3113
103.005 85.7209 20.6644
89.6263 110.611 58.141
86.8469 110.598 55.9576
88.3684 111.476 53.3884
83.9807 111.15 54.2826
85.1058 110.183 58.7346
90.228 108.989 63.0469
91.9686 110.014 59.6904
88.8799 113.946 51.46
86.0933 114.688 50.6073
85.7095 108.447 61.2879
88.0012 108.667 64.4232
86.5644 106.418 64.7187
93.2273 110.813 55.642
91.4014 113.588 52.114
94.251 112.905 52.9591
83.5134 114.269 48.8093
83.5945 111.302 49.6858
82.4188 112.337 45.8448
88.4221 109.778 26.5575
90.6135 110.136 25.4184
88.3523 113.068 28.4576
92.8812 110.055 24.5527
92.9908 106.258 22.6577
89.2166 106.322 25.1833
86.1806 109.081 27.704
86.6704 115.129 31.9018
88.9109 116.062 30.0535
92.372 103.998 19.5561
91.2541 103.383 21.952
90.7437 102.218 16.2731
84.4258 110.813 30.9568
84.8958 113.802 33.4746
83.2362 112.208 34.6911
91.5999 115.972 29.2196
93.2646 112.904 26.1674
94.2794 115.529 28.2933
89.3483 95.1914 51.238
91.3078 94.6697 53.305
90.4401 93.0971 49.1692
93.2036 94.0826 55.273
91.6066 95.2591 57.4234
88.4754 97.3268 53.0793
88.0523 96.2384 48.9961
90.2565 91.6147 44.7455
92.1137 91.7958 46.4322
90.3331 96.9517 59.6843
89.073 98.6166 56.7985
89.0606 99.2588 60.9575
87.8325 95.3877 45.0465
88.1492 92.6084 43.3781
86.7739 93.8372 41.0366
94.0855 91.606 47.9715
94.4846 92.6296 53.1267
95.8203 91.5204 49.6237
89.2062 86.542 13.7992
87.0544 88.6086 17.4943
88.7755 87.0395 18.8068
86.2378 90.9977 20.9772
87.2879 91.3743 17.2415
89.628 87.6062 9.7226
92.0344 85.4181 11.8706
90.9778 86.8255 20.6092
88.2771 87.3202 23.2605
87.916 93.0648 15.0039
88.1295 91.0371 10.402
88.8049 94.2728 11.7583
94.2306 85.2758 15.318
93.3726 85.8276 20.7948
95.6244 85.6108 19.9202
86.1837 88.5529 26.9789
84.8588 91.6374 25.4558
85.2322 91.1652 29.7515
POLYGONS 1280  5120
3 164 162 163
3 163 44 164
3 162 43 163
3 164 42 162
3 166 165 163
3 163 43 166
3 165 44 163
3 166 14 165
3 168 167 162
3 162 42 168
3 167 43 162
3 168 13 167
3 170 169 164
3 164 44 170
3 169 42 164
3 170 12 169
3 173 171 172
3 172 46 173
3 171 43 172
3 173 45 171
3 167 174 172
3 172 43 167
3 174 46 172
3 167 13 174
3 175 166 171
3 171 45 175
3 166 43 171
3 175 14 166
3 177 176 173
3 173 46 177
3 176 45 173
3 177 4 176
3 180 178 179
3 179 48 180
3 178 42 179
3 180 47 178
3 169 181 179
3 179 42 169
3 181 48 179
3 169 12 181
3 182 168 178
3 178 47 182
3 168 42 178
3 182 13 168
3 184 183 180
3 180 48 184
3 183 47 180
3 184 8 183
3 187 185 186
3 186 50 187
3 185 44 186
3 187 49 185
3 165 188 186
3 186 44 165
3 188 50 186
3 165 14 188
3 189 170 185
3 185 49 189
3 170 44 185
3 189 12 170
3 191 190 187
3 187 50 191
3 190 49 187
3 191 7 190
3 194 192 193
3 193 53 194
3 192 52 193
3 194 51 192
3 196 195 193
3 193 52 196
3 195 53 193
3 196 16 195
3 198 197 192
3 192 51 198
3 197 52 192
3 198 14 197
3 200 199 194
3 194 53 200
3 199 51 194
3 200 15 199
3 203 201 202
3 202 45 203
3 201 52 202
3 203 54 201
3 197 175 202
3 202 52 197
3 175 45 202
3 197 14 175
3 204 196 201
3 201 54 204
3 196 52 201
3 204 16 196
3 176 205 203
3 203 45 176
3 205 54 203
3 176 4 205
3 208 206 207
3 207 55 208
3 206 51 207
3 208 50 206
3 199 209 207
3 207 51 199
3 209 55 207
3 199 15 209
3 188 198 206
3 206 50 188
3 198 51 206
3 188 14 198
3 210 191 208
3 208 55 210
3 191 50 208
3 210 7 191
3 213 211 212
3 212 57 213
3 211 53 212
3 213 56 211
3 195 214 212
3 212 53 195
3 214 57 212
3 195 16 214
3 215 200 211
3 211 56 215
3 200 53 211
3 215 15 200
3 217 216 213
3 213 57 217
3 216 56 213
3 217 9 216
3 220 218 219
3 219 60 220
3 218 59 219
3 220 58 218
3 222 221 219
3 219 59 222
3 221 60 219
3 222 19 221
3 224 223 218
3 218 58 224
3 223 59 218
3 224 18 223
3 226 225 220
3 220 60 226
3 225 58 220
3 226 17 225
3 229 227 228
3 228 62 229
3 227 59 228
3 229 61 227
3 223 230 228
3 228 59 223
3 230 62 228
3 223 18 230
3 231 222 227
3 227 61 231
3 222 59 227
3 231 19 222
3 233 232 229
3 229 62 233
3 232 61 229
3 233 5 232
3 236 234 235
3 235 64 236
3 234 58 235
3 236 63 234
3 225 237 235
3 235 58 225
3 237 64 235
3 225 17 237
3 238 224 234
3 234 63 238
3 224 58 234
3 238 18 224
3 240 239 236
3 236 64 240
3 239 63 236
3 240 6 239
3 243 241 242
3 242 66 243
3 241 60 242
3 243 65 241
3 221 244 242
3 242 60 221
3 244 66 242
3 221 19 244
3 245 226 241
3 241 65 245
3 226 60 241
3 245 17 226
3 247 246 243
3 243 66 247
3 246 65 243
3 247 11 246
3 250 248 249
3 249 69 250
3 248 68 249
3 250 67 248
3 252 251 249
3 249 68 252
3 251 69 249
3 252 18 251
3 254 253 248
3 248 67 254
3 253 68 248
3 254 21 253
3 256 255 250
3 250 69 256
3 255 67 250
3 256 20 255
3 259 257 258
3 258 70 259
3 257 68 258
3 259 62 257
3 253 260 258
3 258 68 253
3 260 70 258
3 253 21 260
3 230 252 257
3 257 62 230
3 252 68 257
3 230 18 252
3 261 233 259
3 259 70 261
3 233 62 259
3 261 5 233
3 264 262 263
3 263 72 264
3 262 67 263
3 264 71 262
3 255 265 263
3 263 67 255
3 265 72 263
3 255 20 265
3 266 254 262
3 262 71 266
3 254 67 262
3 266 21 254
3 268 267 264
3 264 72 268
3 267 71 264
3 268 10 267
3 271 269 270
3 270 63 271
3 269 69 270
3 271 73 269
3 251 238 270
3 270 69 251
3 238 63 270
3 251 18 238
3 272 256 269
3 269 73 272
3 256 69 269
3 272 20 256
3 239 273 271
3 271 63 239
3 273 73 271
3 239 6 273
3 276 274 275
3 275 76 276
3 274 75 275
3 276 74 274
3 278 277 275
3 275 75 278
3 277 76 275
3 278 24 277
3 280 279 274
3 274 74 280
3 279 75 274
3 280 23 279
3 282 281 276
3 276 76 282
3 281 74 276
3 282 22 281
3 285 283 284
3 284 78 285
3 283 75 284
3 285 77 283
3 279 286 284
3 284 75 279
3 286 78 284
3 279 23 286
3 287 278 283
3 283 77 287
3 278 75 283
3 287 24 278
3 289 288 285
3 285 78 289
3 288 77 285
3 289 0 288
3 292 290 291
3 291 80 292
3 290 74 291
3 292 79 290
3 281 293 291
3 291 74 281
3 293 80 291
3 281 22 293
3 294 280 290
3 290 79 294
3 280 74 290
3 294 23 280
3 296 295 292
3 292 80 296
3 295 79 292
3 296 4 295
3 299 297 298
3 298 82 299
3 297 76 298
3 299 81 297
3 277 300 298
3 298 76 277
3 300 82 298
3 277 24 300
3 301 282 297
3 297 81 301
3 282 76 297
3 301 22 282
3 303 302 299
3 299 82 303
3 302 81 299
3 303 3 302
3 306 304 305
3 305 85 306
3 304 84 305
3 306 83 304
3 308 307 305
3 305 84 308
3 307 85 305
3 308 26 307
3 310 309 304
3 304 83 310
3 309 84 304
3 310 24 309
3 312 311 306
3 306 85 312
3 311 83 306
3 312 25 311
3 315 313 314
3 314 77 315
3 313 84 314
3 315 86 313
3 309 287 314
3 314 84 309
3 287 77 314
3 309 24 287
3 316 308 313
3 313 86 316
3 308 84 313
3 316 26 308
3 288 317 315
3 315 77 288
3 317 86 315
3 288 0 317
3 320 318 319
3 319 87 320
3 318 83 319
3 320 82 318
3 311 321 319
3 319 83 311
3 321 87 319
3 311 25 321
3 300 310 318
3 318 82 300
3 310 83 318
3 300 24 310
3 322 303 320
3 320 87 322
3 303 82 320
3 322 3 303
3 325 323 324
3 324 89 325
3 323 85 324
3 325 88 323
3 307 326 324
3 324 85 307
3 326 89 324
3 307 26 326
3 327 312 323
3 323 88 327
3 312 85 323
3 327 25 312
3 329 328 325
3 325 89 329
3 328 88 325
3 329 5 328
3 332 330 331
3 331 92 332
3 330 91 331
3 332 90 330
3 334 333 331
3 331 91 334
3 333 92 331
3 334 29 333
3 336 335 330
3 330 90 336
3 335 91 330
3 336 28 335
3 338 337 332
3 332 92 338
3 337 90 332
3 338 27 337
3 341 339 340
3 340 94 341
3 339 91 340
3 341 93 339
3 335 342 340
3 340 91 335
3 342 94 340
3 335 28 342
3 343 334 339
3 339 93 343
3 334 91 339
3 343 29 334
3 345 344 341
3 341 94 345
3 344 93 341
3 345 2 344
3 348 346 347
3 347 96 348
3 346 90 347
3 348 95 346
3 337 349 347
3 347 90 337
3 349 96 347
3 337 27 349
3 350 336 346
3 346 95 350
3 336 90 346
3 350 28 336
3 352 351 348
3 348 96 352
3 351 95 348
3 352 7 351
3 355 353 354
3 354 98 355
3 353 92 354
3 355 97 353
3 333 356 354
3 354 92 333
3 356 98 354
3 333 29 356
3 357 338 353
3 353 97 357
3 338 92 353
3 357 27 338
3 359 358 355
3 355 98 359
3 358 97 355
3 359 1 358
3 362 360 361
3 361 101 362
3 360 100 361
3 362 99 360
3 364 363 361
3 361 100 364
3 363 101 361
3 364 31 363
3 366 365 360
3 360 99 366
3 365 100 360
3 366 29 365
3 368 367 362
3 362 101 368
3 367 99 362
3 368 30 367
3 371 369 370
3 370 93 371
3 369 100 370
3 371 102 369
3 365 343 370
3 370 100 365
3 343 93 370
3 365 29 343
3 372 364 369
3 369 102 372
3 364 100 369
3 372 31 364
3 344 373 371
3 371 93 344
3 373 102 371
3 344 2 373
3 376 374 375
3 375 103 376
3 374 99 375
3 376 98 374
3 367 377 375
3 375 99 367
3 377 103 375
3 367 30 377
3 356 366 374
3 374 98 356
3 366 99 374
3 356 29 366
3 378 359 376
3 376 103 378
3 359 98 376
3 378 1 359
3 381 379 380
3 380 105 381
3 379 101 380
3 381 104 379
3 363 382 380
3 380 101 363
3 382 105 380
3 363 31 382
3 383 368 379
3 379 104 383
3 368 101 379
3 383 30 368
3 385 384 381
3 381 105 385
3 384 104 381
3 385 6 384
3 388 386 387
3 387 108 388
3 386 107 387
3 388 106 386
3 390 389 387
3 387 107 390
3 389 108 387
3 390 34 389
3 392 391 386
3 386 106 392
3 391 107 386
3 392 33 391
3 394 393 388
3 388 108 394
3 393 106 388
3 394 32 393
3 397 395 396
3 396 110 397
3 395 107 396
3 397 109 395
3 391 398 396
3 396 107 391
3 398 110 396
3 391 33 398
3 399 390 395
3 395 109 399
3 390 107 395
3 399 34 390
3 401 400 397
3 397 110 401
3 400 109 397
3 401 8 400
3 404 402 403
3 403 112 404
3 402 106 403
3 404 111 402
3 393 405 403
3 403 106 393
3 405 112 403
3 393 32 405
3 406 392 402
3 402 111 406
3 392 106 402
3 406 33 392
3 408 407 404
3 404 112 408
3 407 111 404
3 408 0 407
3 411 409 410
3 410 114 411
3 409 108 410
3 411 113 409
3 389 412 410
3 410 108 389
3 412 114 410
3 389 34 412
3 413 394 409
3 409 113 413
3 394 108 409
3 413 32 394
3 415 414 411
3 411 114 415
3 414 113 411
3 415 11 414
3 418 416 417
3 417 117 418
3 416 116 417
3 418 115 416
3 420 419 417
3 417 116 420
3 419 117 417
3 420 36 419
3 422 421 416
3 416 115 422
3 421 116 416
3 422 34 421
3 424 423 418
3 418 117 424
3 423 115 418
3 424 35 423
3 427 425 426
3 426 109 427
3 425 116 426
3 427 118 425
3 421 399 426
3 426 116 421
3 399 109 426
3 421 34 399
3 428 420 425
3 425 118 428
3 420 116 425
3 428 36 420
3 400 429 427
3 427 109 400
3 429 118 427
3 400 8 429
3 432 430 431
3 431 119 432
3 430 115 431
3 432 114 430
3 423 433 431
3 431 115 423
3 433 119 431
3 423 35 433
3 412 422 430
3 430 114 412
3 422 115 430
3 412 34 422
3 434 415 432
3 432 119 434
3 415 114 432
3 434 11 415
3 437 435 436
3 436 121 437
3 435 117 436
3 437 120 435
3 419 438 436
3 436 117 419
3 438 121 436
3 419 36 438
3 439 424 435
3 435 120 439
3 424 117 435
3 439 35 424
3 441 440 437
3 437 121 441
3 440 120 437
3 441 1 440
3 444 442 443
3 443 124 444
3 442 123 443
3 444 122 442
3 446 445 443
3 443 123 446
3 445 124 443
3 446 39 445
3 448 447 442
3 442 122 448
3 447 123 442
3 448 38 447
3 450 449 444
3 444 124 450
3 449 122 444
3 450 37 449
3 453 451 452
3 452 126 453
3 451 123 452
3 453 125 451
3 447 454 452
3 452 123 447
3 454 126 452
3 447 38 454
3 455 446 451
3 451 125 455
3 446 123 451
3 455 39 446
3 457 456 453
3 453 126 457
3 456 125 453
3 457 9 456
3 460 458 459
3 459 128 460
3 458 122 459
3 460 127 458
3 449 461 459
3 459 122 449
3 461 128 459
3 449 37 461
3 462 448 458
3 458 127 462
3 448 122 458
3 462 38 448
3 464 463 460
3 460 128 464
3 463 127 460
3 464 10 463
3 467 465 466
3 466 130 467
3 465 124 466
3 467 129 465
3 445 468 466
3 466 124 445
3 468 130 466
3 445 39 468
3 469 450 465
3 465 129 469
3 450 124 465
3 469 37 450
3 471 470 467
3 467 130 471
3 470 129 467
3 471 3 470
3 474 472 473
3 473 133 474
3 472 132 473
3 474 131 472
3 476 475 473
3 473 132 476
3 475 133 473
3 476 38 475
3 478 477 472
3 472 131 478
3 477 132 472
3 478 41 477
3 480 479 474
3 474 133 480
3 479 131 474
3 480 40 479
3 483 481 482
3 482 134 483
3 481 132 482
3 483 126 481
3 477 484 482
3 482 132 477
3 484 134 482
3 477 41 484
3 454 476 481
3 481 126 454
3 476 132 481
3 454 38 476
3 485 457 483
3 483 134 485
3 457 126 483
3 485 9 457
3 488 486 487
3 487 136 488
3 486 131 487
3 488 135 486
3 479 489 487
3 487 131 479
3 489 136 487
3 479 40 489
3 490 478 486
3 486 135 490
3 478 131 486
3 490 41 478
3 492 491 488
3 488 136 492
3 491 135 488
3 492 2 491
3 495 493 494
3 494 127 495
3 493 133 494
3 495 137 493
3 475 462 494
3 494 133 475
3 462 127 494
3 475 38 462
3 496 480 493
3 493 137 496
3 480 133 493
3 496 40 480
3 463 497 495
3 495 127 463
3 497 137 495
3 463 10 497
3 500 498 499
3 499 140 500
3 498 139 499
3 500 138 498
3 502 501 499
3 499 139 502
3 501 140 499
3 502 33 501
3 504 503 498
3 498 138 504
3 503 139 498
3 504 13 503
3 506 505 500
3 500 140 506
3 505 138 500
3 506 23 505
3 509 507 508
3 508 47 509
3 507 139 508
3 509 110 507
3 503 182 508
3 508 139 503
3 182 47 508
3 503 13 182
3 398 502 507
3 507 110 398
3 502 139 507
3 398 33 502
3 183 401 509
3 509 47 183
3 401 110 509
3 183 8 401
3 512 510 511
3 511 79 512
3 510 138 511
3 512 46 510
3 505 294 511
3 511 138 505
3 294 79 511
3 505 23 294
3 174 504 510
3 510 46 174
3 504 138 510
3 174 13 504
3 295 177 512
3 512 79 295
3 177 46 512
3 295 4 177
3 515 513 514
3 514 111 515
3 513 140 514
3 515 78 513
3 501 406 514
3 514 140 501
3 406 111 514
3 501 33 406
3 286 506 513
3 513 78 286
3 506 140 513
3 286 23 506
3 407 289 515
3 515 111 407
3 289 78 515
3 407 0 289
3 518 516 517
3 517 143 518
3 516 142 517
3 518 141 516
3 520 519 517
3 517 142 520
3 519 143 517
3 520 19 519
3 522 521 516
3 516 141 522
3 521 142 516
3 522 32 521
3 524 523 518
3 518 143 524
3 523 141 518
3 524 26 523
3 527 525 526
3 526 113 527
3 525 142 526
3 527 66 525
3 521 413 526
3 526 142 521
3 413 113 526
3 521 32 413
3 244 520 525
3 525 66 244
3 520 142 525
3 244 19 520
3 414 247 527
3 527 113 414
3 247 66 527
3 414 11 247
3 530 528 529
3 529 86 530
3 528 141 529
3 530 112 528
3 523 316 529
3 529 141 523
3 316 86 529
3 523 26 316
3 405 522 528
3 528 112 405
3 522 141 528
3 405 32 522
3 317 408 530
3 530 86 317
3 408 112 530
3 317 0 408
3 533 531 532
3 532 61 533
3 531 143 532
3 533 89 531
3 519 231 532
3 532 143 519
3 231 61 532
3 519 19 231
3 326 524 531
3 531 89 326
3 524 143 531
3 326 26 524
3 232 329 533
3 533 61 232
3 329 89 533
3 232 5 329
3 536 534 535
3 535 146 536
3 534 145 535
3 536 144 534
3 538 537 535
3 535 145 538
3 537 146 535
3 538 22 537
3 540 539 534
3 534 144 540
3 539 145 534
3 540 16 539
3 542 541 536
3 536 146 542
3 541 144 536
3 542 39 541
3 545 543 544
3 544 54 545
3 543 145 544
3 545 80 543
3 539 204 544
3 544 145 539
3 204 54 544
3 539 16 204
3 293 538 543
3 543 80 293
3 538 145 543
3 293 22 538
3 205 296 545
3 545 54 205
3 296 80 545
3 205 4 296
3 548 546 547
3 547 125 548
3 546 144 547
3 548 57 546
3 541 455 547
3 547 144 541
3 455 125 547
3 541 39 455
3 214 540 546
3 546 57 214
3 540 144 546
3 214 16 540
3 456 217 548
3 548 125 456
3 217 57 548
3 456 9 217
3 551 549 550
3 550 81 551
3 549 146 550
3 551 130 549
3 537 301 550
3 550 146 537
3 301 81 550
3 537 22 301
3 468 542 549
3 549 130 468
3 542 146 549
3 468 39 542
3 302 471 551
3 551 81 302
3 471 130 551
3 302 3 471
3 554 552 553
3 553 149 554
3 552 148 553
3 554 147 552
3 556 555 553
3 553 148 556
3 555 149 553
3 556 21 555
3 558 557 552
3 552 147 558
3 557 148 552
3 558 25 557
3 560 559 554
3 554 149 560
3 559 147 554
3 560 37 559
3 563 561 562
3 562 88 563
3 561 148 562
3 563 70 561
3 557 327 562
3 562 148 557
3 327 88 562
3 557 25 327
3 260 556 561
3 561 70 260
3 556 148 561
3 260 21 556
3 328 261 563
3 563 88 328
3 261 70 563
3 328 5 261
3 566 564 565
3 565 129 566
3 564 147 565
3 566 87 564
3 559 469 565
3 565 147 559
3 469 129 565
3 559 37 469
3 321 558 564
3 564 87 321
3 558 147 564
3 321 25 558
3 470 322 566
3 566 129 470
3 322 87 566
3 470 3 322
3 569 567 568
3 568 71 569
3 567 149 568
3 569 128 567
3 555 266 568
3 568 149 555
3 266 71 568
3 555 21 266
3 461 560 567
3 567 128 461
3 560 149 567
3 461 37 560
3 267 464 569
3 569 71 267
3 464 128 569
3 267 10 464
3 572 570 571
3 571 152 572
3 570 151 571
3 572 150 570
3 574 573 571
3 571 151 574
3 573 152 571
3 574 27 573
3 576 575 570
3 570 150 576
3 575 151 570
3 576 12 575
3 578 577 572
3 572 152 578
3 577 150 572
3 578 36 577
3 581 579 580
3 580 49 581
3 579 151 580
3 581 96 579
3 575 189 580
3 580 151 575
3 189 49 580
3 575 12 189
3 349 574 579
3 579 96 349
3 574 151 579
3 349 27 574
3 190 352 581
3 581 49 190
3 352 96 581
3 190 7 352
3 584 582 583
3 583 118 584
3 582 150 583
3 584 48 582
3 577 428 583
3 583 150 577
3 428 118 583
3 577 36 428
3 181 576 582
3 582 48 181
3 576 150 582
3 181 12 576
3 429 184 584
3 584 118 429
3 184 48 584
3 429 8 184
3 587 585 586
3 586 97 587
3 585 152 586
3 587 121 585
3 573 357 586
3 586 152 573
3 357 97 586
3 573 27 357
3 438 578 585
3 585 121 438
3 578 152 585
3 438 36 578
3 358 441 587
3 587 97 358
3 441 121 587
3 358 1 441
3 590 588 589
3 589 155 590
3 588 154 589
3 590 153 588
3 592 591 589
3 589 154 592
3 591 155 589
3 592 17 591
3 594 593 588
3 588 153 594
3 593 154 588
3 594 30 593
3 596 595 590
3 590 155 596
3 595 153 590
3 596 35 595
3 599 597 598
3 598 104 599
3 597 154 598
3 599 64 597
3 593 383 598
3 598 154 593
3 383 104 598
3 593 30 383
3 237 592 597
3 597 64 237
3 592 154 597
3 237 17 592
3 384 240 599
3 599 104 384
3 240 64 599
3 384 6 240
3 602 600 601
3 601 120 602
3 600 153 601
3 602 103 600
3 595 439 601
3 601 153 595
3 439 120 601
3 595 35 439
3 377 594 600
3 600 103 377
3 594 153 600
3 377 30 594
3 440 378 602
3 602 120 440
3 378 103 602
3 440 1 378
3 605 603 604
3 604 65 605
3 603 155 604
3 605 119 603
3 591 245 604
3 604 155 591
3 245 65 604
3 591 17 245
3 433 596 603
3 603 119 433
3 596 155 603
3 433 35 596
3 246 434 605
3 605 65 246
3 434 119 605
3 246 11 434
3 608 606 607
3 607 158 608
3 606 157 607
3 608 156 606
3 610 609 607
3 607 157 610
3 609 158 607
3 610 15 609
3 612 611 606
3 606 156 612
3 611 157 606
3 612 28 611
3 614 613 608
3 608 158 614
3 613 156 608
3 614 41 613
3 617 615 616
3 616 95 617
3 615 157 616
3 617 55 615
3 611 350 616
3 616 157 611
3 350 95 616
3 611 28 350
3 209 610 615
3 615 55 209
3 610 157 615
3 209 15 610
3 351 210 617
3 617 95 351
3 210 55 617
3 351 7 210
3 620 618 619
3 619 135 620
3 618 156 619
3 620 94 618
3 613 490 619
3 619 156 613
3 490 135 619
3 613 41 490
3 342 612 618
3 618 94 342
3 612 156 618
3 342 28 612
3 491 345 620
3 620 135 491
3 345 94 620
3 491 2 345
3 623 621 622
3 622 56 623
3 621 158 622
3 623 134 621
3 609 215 622
3 622 158 609
3 215 56 622
3 609 15 215
3 484 614 621
3 621 134 484
3 614 158 621
3 484 41 614
3 216 485 623
3 623 56 216
3 485 134 623
3 216 9 485
3 626 624 625
3 625 161 626
3 624 160 625
3 626 159 624
3 628 627 625
3 625 160 628
3 627 161 625
3 628 31 627
3 630 629 624
3 624 159 630
3 629 160 624
3 630 20 629
3 632 631 626
3 626 161 632
3 631 159 626
3 632 40 631
3 635 633 634
3 634 73 635
3 633 160 634
3 635 105 633
3 629 272 634
3 634 160 629
3 272 73 634
3 629 20 272
3 382 628 633
3 633 105 382
3 628 160 633
3 382 31 628
3 273 385 635
3 635 73 273
3 385 105 635
3 273 6 385
3 638 636 637
3 637 137 638
3 636 159 637
3 638 72 636
3 631 496 637
3 637 159 631
3 496 137 637
3 631 40 496
3 265 630 636
3 636 72 265
3 630 159 636
3 265 20 630
3 497 268 638
3 638 137 497
3 268 72 638
3 497 10 268
3 641 639 640
3 640 102 641
3 639 161 640
3 641 136 639
3 627 372 640
3 640 161 627
3 372 102 640
3 627 31 372
3 489 632 639
3 639 136 489
3 632 161 639
3 489 40 632
3 373 492 641
3 641 102 373
3 492 136 641
3 373 2 492
