# vtk DataFile Version 3.0
this file was written using fslvtkio
ASCII
DATASET POLYDATA
POINTS 642 float
124.227 110.281 71.3472
70.5406 114.908 67.9446
76.5261 93.9201 51.1103
119.99 92.0092 53.6969
113.795 74.827 80.1527
110.625 112.852 39.522
91.6048 112.686 38.4824
77.001 81.0911 76.973
94.8605 101.782 81.4066
95.6295 70.6238 57.2404
102.489 101.034 35.0917
99.8854 121.103 61.6527
82.1987 89.8722 84.1879
103.855 86.5409 84.1261
91.7256 68.0635 84.7727
86.5003 75.983 67.439
104.31 72.5722 69.3335
96.1285 112.957 49.4699
102.154 109.515 32.4332
105.636 115.078 51.0675
91.706 108.348 30.3731
110.799 107.139 28.2882
116.97 85.3651 65.5251
117.834 90.9609 75.1078
118.761 100.408 64.4862
116.847 103.961 45.6778
116.229 111.875 57.5767
76.4323 98.8187 70.8708
77.5675 89.5988 63.204
78.3117 104.495 61.8074
86.6383 112.062 55.7848
82.6173 104.708 42.29
113.296 121.232 68.0208
113.244 107.085 84.0934
96.1083 115.912 73.9879
85.1695 122.564 66.7673
77.6101 111.048 80.2973
116.815 92.3762 43.73
95.6494 80.883 50.4637
110.882 78.47 55.024
84.4734 90.8682 43.069
85.7816 82.4559 53.0294
92.7632 86.066 84.2652
98.3291 77.5117 90.0866
83.8282 77.6757 90.7778
106.646 67.8652 84.2232
110.81 78.3846 85.9767
99.071 93.0105 78.3582
89.6081 94.3436 78.4358
72.7289 86.6245 84.2947
79.4404 71.8015 82.7535
87.9094 66.5658 75.7434
99.1888 63.4438 75.9136
94.6413 69.5937 68.5962
110.94 70.4065 74.6233
81.5194 76.9481 72.6279
91.7033 71.3735 61.2862
100.216 71.3585 62.7189
98.2377 111.686 39.6363
104.084 110.19 40.2395
100.72 110.778 49.6296
107.688 113.262 43.5879
106.83 111.618 34.8276
96.4477 111.443 33.1179
94.4994 112.975 40.6685
96.9497 116.682 56.3767
104.122 119.035 56.7464
101.039 111.137 30.1956
108.424 111.126 25.4188
96.5064 108.465 27.2523
110.214 112.418 31.0223
106.554 104.157 29.974
97.726 105.079 30.1893
89.426 113.833 31.167
120.264 87.3316 71.2765
122.492 96.9131 70.6958
118.426 92.2918 65.0529
124.569 106.378 67.61
123.022 103.617 72.2609
119.375 81.2266 81.4073
115.824 80.2586 73.9148
118.327 91.1674 60.2435
118.054 97.6632 55.572
119.693 104.097 53.105
118.687 107.935 60.7958
114.307 108.768 50.7242
123.308 112.007 64.9075
119.454 99.382 50.3779
114.566 109.733 41.3451
110.282 111.983 48.5121
75.6216 90.9178 70.2981
77.805 96.2498 63.5208
73.0548 101.139 67.8764
79.2086 100.811 54.4415
77.4239 94.0382 57.2682
79.0121 86.0755 72.1272
69.0192 87.4852 78.7258
69.7775 108.773 68.798
74.4299 110.623 64.3492
84.9424 108.412 57.6674
83.2255 105.514 50.3375
87.0873 109.205 47.3513
78.7773 99.8567 47.124
77.3253 113.577 60.9478
88.7225 113.968 45.7901
86.3666 111.948 38.7962
113.284 115.774 76.538
103.93 111.921 77.2749
105.786 119.076 72.499
95.1086 110.173 79.4681
103.181 102.603 83.6931
120.638 110.923 77.9302
119.44 116.606 70.4273
106.647 121.928 65.1876
98.4361 121.239 68.3688
88.495 122.167 71.6014
86.2062 114.616 77.5494
79.7072 119.948 74.2217
86.5483 104.985 83.0482
93.5048 122.726 64.1881
78.0922 119.542 66.6698
71.985 114.733 73.215
106.098 91.5481 51.3421
106.334 73.3888 50.7387
115.124 83.5078 50.086
104.57 71.1417 56.5639
93.9235 67.6601 51.5413
100.321 90.7329 42.0724
106.947 99.7499 40.6581
124.123 89.9619 47.0601
117.125 85.8158 54.2145
81.0474 83.8693 47.756
83.0629 70.475 44.6568
92.4996 88.5148 46.34
88.8807 75.0693 54.3856
78.005 87.3696 51.2457
75.3277 92.2902 44.3571
93.7406 96.8053 36.722
112.279 89.3285 80.7655
108.131 97.159 76.8605
117.235 101.371 78.3797
116.257 116.822 62.6873
109.834 119.393 59.5936
111.447 114.944 54.09
110.702 73.479 60.1476
113.496 75.8784 67.8368
116.234 80.2607 59.9081
122.152 97.6654 42.6065
114.01 105.861 36.2608
114.982 98.3671 34.1512
81.6681 99.8701 75.9556
75.1253 94.0367 80.2426
74.8675 106.011 75.9028
84.4468 119.238 60.2433
91.7989 113.865 52.5177
91.3088 119.688 58.11
78.4859 84.1553 57.2986
78.8168 80.6119 65.5361
82.9527 76.2857 58.6832
87.4253 100.074 33.6352
86.3366 106.582 35.2583
83.0166 98.9109 38.9212
94.3722 80.3665 86.877
90.5463 75.4427 90.6414
88.2024 80.8783 87.3014
86.5823 70.1626 88.8775
94.949 70.8668 87.8868
100.967 81.6097 85.3077
98.1211 85.9676 83.9437
87.4623 87.616 83.8815
82.7214 83.0794 86.5886
102.755 70.3709 89.1466
104.837 77.9215 88.7206
108.408 71.84 86.6039
107.308 81.9633 85.5133
100.108 67.8792 84.7789
111.054 72.1031 82.5369
114.8 74.6445 84.788
96.2852 90.0707 81.219
91.2185 90.9933 80.9352
94.306 93.5521 77.8109
85.9648 91.5555 80.0862
101.558 88.9844 80.4879
96.9151 98.6043 78.9546
92.2229 98.4582 80.301
77.8193 81.4887 87.9887
79.7107 72.3318 88.1858
75.4991 78.0962 84.9253
84.4067 66.5913 85.2822
77.2569 86.3765 84.5508
74.8837 82.854 81.8985
77.538 78.6365 81.3267
93.4365 64.9375 76.3546
97.5344 64.4372 71.3331
91.1177 65.4464 70.6799
100.033 71.6125 68.207
103.663 64.6906 71.3722
95.8012 65.0684 81.1074
89.2391 63.7123 81.393
84.9876 67.5636 69.9486
90.0126 72.7888 67.7573
106.461 64.8748 75.9197
102.405 65.5537 80.1572
108.684 67.906 79.7613
108.851 69.5536 71.2569
113.031 71.9364 77.681
83.2171 66.9768 79.388
81.9448 69.2442 74.3296
80.29 73.9434 77.9162
82.9734 75.7618 69.4769
79.4453 78.9305 75.0353
93.5545 71.0609 64.3979
97.8637 71.4735 65.5125
95.6309 71.0495 62.1734
104.128 72.3448 65.1109
88.1613 74.1131 63.097
94.0704 74.3329 59.386
97.7922 73.4259 59.8662
101.375 111.108 39.5114
103.31 112.432 45.3352
98.8306 113.424 44.9893
102.457 112.875 50.4628
104.86 112.591 49.0726
102.488 111.422 36.4171
100.179 111.2 36.6726
96.4076 112.567 46.2105
98.5237 111.986 50.0747
105.294 111.349 42.9637
105.559 111.802 36.6909
108.023 113.221 39.2414
104.177 111.242 31.9929
107.168 111.938 49.9828
110.114 113.103 42.6059
109.008 111.183 37.8244
97.652 112.48 34.4214
96.6637 111.925 38.1947
94.7083 113.406 35.8861
94.2763 112.714 44.9377
100.541 109.012 31.8269
93.3337 111.252 35.1168
91.9221 112.451 40.2482
99.2857 114.178 53.5641
101.828 115.349 53.3314
100.474 115.712 56.7105
105.73 118 53.9987
96.053 114.195 53.1066
98.1624 121.033 59.2905
102.137 118.852 59.5599
103.051 108.244 27.8096
102.335 107.663 25.9587
97.3825 108.485 28.1902
101.566 106.403 28.9287
103.117 108.911 28.0456
107.514 110.411 27.969
105.848 109.414 29.8764
95.3135 109.744 29.6536
93.4563 109.081 30.6036
105.68 113.453 28.0445
108.994 113.02 28.3543
106.719 113.601 31.2814
112.032 108.884 30.4008
110.198 111.82 34.9754
103.808 109.02 29.2157
99.5898 109.515 30.2276
101.665 106.804 30.9511
93.7443 106.16 30.8
109.522 103.458 29.5074
103.374 103.639 32.5516
100.972 102.44 32.6429
91.9911 113.402 28.1022
97.5171 110.124 28.3444
94.8124 113.765 29.6623
89.8032 110.668 30.7687
91.8345 112.407 34.5729
123.389 91.7591 70.7196
122.002 92.4278 68.4851
121.63 88.7801 68.3161
117.969 95.9909 64.4027
119.72 98.8584 67.4474
121.957 94.6316 72.871
120.225 88.4714 74.1254
118.569 85.5285 69.368
118.664 88.2686 65.9468
121.744 103.6 68.286
122.82 101.897 69.9297
126.203 105.732 69.3506
120.127 98.6013 72.915
120.082 103.957 67.0901
127.339 109.113 69.4059
125.498 106.763 73.1506
119.016 84.9551 76.4615
118.883 82.7799 73.3289
117.656 80.5935 77.8456
115.812 82.85 69.9057
120.392 85.8051 79.315
115.713 77.7783 81.512
115.312 77.0543 76.7328
119.748 92.7597 61.7809
119.206 96.9086 59.9881
119.046 95.3054 58.6749
116.558 99.599 59.3704
116.815 88.2893 62.6466
118.444 91.5699 56.8196
119.191 94.9359 53.9072
117.714 108.621 58.3637
115.783 109.007 56.7831
118.659 107.824 52.5153
114.309 110.252 54.0291
117.46 110.185 59.2586
118.901 104.558 63.3177
119.42 103.119 57.9777
117.551 103.31 50.2027
115.76 105.307 46.3191
123.558 109.287 61.842
122.104 107.654 63.7525
128.004 109.23 64.9874
120.26 110.551 60.9686
124.173 111.775 68.064
119.191 100.397 53.8642
119.032 101.382 51.0126
120.733 98.1321 52.5867
118.035 101.605 48.3132
120.269 95.1101 51.9162
113.857 108.996 46.4569
111.241 110.918 50.185
114.744 111.681 45.076
112.44 112.488 53.0852
115.162 106.784 42.6076
112.606 112.134 40.452
112.648 112.764 43.8888
75.249 92.8479 67.2102
76.2026 97.3026 66.2866
72.945 95.9615 67.918
76.0066 101.733 64.3478
78.8856 99.8947 62.8365
77.5584 92.0909 64.204
78.3282 89.5638 68.8032
75.9544 94.8397 70.9442
73.2684 99.9716 69.6827
77.6587 100.219 58.3999
77.2442 96.553 59.4755
77.3727 97.5861 56.1214
78.6719 92.2346 59.6024
78.9409 102.414 57.743
78.4671 97.3884 51.8283
76.9485 93.7312 54.3612
76.0172 86.7605 72.6728
73.8019 89.9156 74.66
74.0989 85.7146 76.929
70.9231 93.0192 75.5346
77.1853 86.7734 67.497
77.3314 83.8649 74.8495
74.4713 83.0999 79.2976
70.7902 105.744 66.8521
72.9613 106.717 64.1201
69.0513 109.577 66.6605
77.2763 106.874 62.6542
74.4889 105.631 68.6536
69.3447 110.99 68.881
70.3222 113.337 66.0379
85.6602 108.211 54.7249
87.4762 107.517 49.1195
89.0451 109.3 53.3186
84.7766 107.611 43.3195
83.9507 104.959 46.6523
80.5679 105.714 55.8435
80.3315 107.688 59.1442
85.7212 110.687 56.1488
89.1985 110.013 52.0865
80.7425 102.391 48.1756
81.5169 102.914 52.7918
79.1909 99.8642 49.7164
80.9235 101.935 45.4559
76.9844 96.6453 48.856
79.1136 110.128 60.4035
80.7209 111.034 59.5734
74.1993 113.542 61.4034
82.4619 114.328 58.8866
72.6899 115.612 64.4108
88.2935 111.878 46.6657
84.7415 111.053 43.0069
87.1556 112.809 42.2122
84.5787 108.947 40.2301
90.1471 112.18 50.8573
88.457 113.619 42.2056
88.5427 113.484 38.25
108.943 113.388 77.3404
104.604 115.013 74.836
109.299 117.432 73.7991
100.634 116.644 73.1929
99.6588 113.357 76.133
108.387 109.975 80.231
113.533 111.733 79.7538
113.539 118.398 72.7637
110.008 119.781 70.206
99.5803 109.973 78.6979
103.557 108.525 80.8195
99.4493 106.216 82.1767
107.816 105.102 84.0025
94.7835 113.142 76.9132
94.6161 106.286 80.943
98.396 102.158 82.2408
116.87 113.874 77.2734
117.363 116.488 73.6555
119.845 113.465 74.2695
116.675 118.894 70.0206
117.705 109.506 81.0254
124.022 111.339 74.36
122.442 114.126 70.6882
106.402 121.166 69.1438
102.335 119.663 70.3432
102.721 121.191 66.6693
97.3236 119.611 71.3029
109.787 122.256 66.398
102.951 120.194 63.014
99.2721 122.056 64.7648
87.8254 117.572 74.0873
82.9274 117.714 76.4875
84.006 121.816 72.9919
77.4762 116.701 77.1942
81.0772 113.479 79.2861
90.929 114.894 76.1847
92.3862 117.632 73.1376
85.355 123.6 68.9843
80.1884 121.559 70.5781
85.8592 110.879 80.2319
90.2209 110.775 78.3191
90.2002 107.346 82.2706
81.5298 108.715 82.7438
91.3327 102.665 82.2337
93.8646 122.075 70.704
90.5501 123.331 68.6515
94.9251 122.267 67.2027
89.8205 123.585 65.1307
96.6214 121.624 62.652
77.0386 119.217 70.2929
75.6964 117.863 73.1334
73.7794 117.159 69.9209
75.9719 113.878 75.747
80.5659 122.191 66.6176
74.4656 118.109 66.4307
70.3877 115.078 69.97
105.506 85.4085 54.8674
110.03 78.0016 51.3362
108.562 89.2565 51.3282
114.872 75.8469 53.2904
110.242 71.9564 53.3404
100.705 79.6683 54.9162
99.9586 86.3716 51.7952
111.001 94.4135 47.2079
116.06 88.6599 46.4021
106.102 68.201 53.7945
101.133 70.4012 51.6569
100.139 65.8549 54.1208
93.943 75.0984 51.5399
108.087 73.5802 55.6823
99.4773 69.9688 57.3161
94.7383 65.6063 55.1612
102.938 90.8119 44.9234
107.592 93.6416 43.4397
104.653 94.2327 40.234
111.428 96.5094 42.0398
97.3857 87.1091 46.8128
100.535 94.2397 37.5743
104.249 99.5295 37.4804
119.894 85.5646 48.4909
116.69 81.6168 51.9871
119.192 86.8007 50.7065
113.919 81.9022 55.234
122.022 87.9111 43.7649
120.734 91.2307 50.7125
119.214 88.7101 53.788
81.8009 78.7245 45.6871
89.6055 82.5584 47.2919
87.6118 87.3655 45.8558
94.111 84.6102 48.8264
91.4594 76.3701 45.8657
82.3436 73.6212 47.4054
81.8552 80.4374 50.719
81.1794 86.3358 45.1972
87.616 90.7574 43.3392
88.1053 68.6115 46.9251
85.3288 70.9179 48.9984
89.5902 67.3007 51.0318
86.9309 78.6532 52.9121
91.8747 71.2879 56.2879
81.3331 85.968 50.0271
78.64 88.1432 46.7688
77.1583 89.8686 48.4026
78.6858 88.331 44.271
82.0128 85.0602 52.7277
76.1237 90.6297 51.209
76.1023 93.8843 47.9276
92.1805 94.5434 42.1205
95.7577 90.403 44.0165
97.2476 96.9223 39.8959
89.0338 94.3787 39.6688
98.1036 97.7186 35.336
109.548 92.929 78.546
112.77 99.0058 79.0401
112.528 94.3262 76.5737
116.473 105.212 82.459
110.659 102.275 82.9155
105.68 91.4582 79.6418
108.227 87.5168 82.4134
116.183 90.1274 78.6452
115.351 94.7735 73.8914
105.875 99.8625 82.329
103.205 94.7058 76.9606
100.917 97.9618 81.8478
111.658 84.0844 83.3671
116.113 87.302 82.0903
116.376 81.0161 84.4595
120.669 102.607 75.9366
121.038 106.558 79.3929
123.568 107.407 75.8125
112.92 118.498 61.1155
111.265 117.363 57.1487
113.513 115.816 58.8531
107.964 114.188 53.2112
108.297 118.383 55.5015
111.654 120.257 63.9
114.855 118.708 65.5065
116.464 113.632 60.427
114.517 113.927 55.7443
107.313 119.906 58.1116
108.069 120.4 61.9799
105.209 120.41 60.5129
117.757 116.906 66.5172
118.582 113.435 63.3805
121.021 114.942 66.785
110.352 112.901 51.0947
108.284 112.324 49.8029
108.731 112.775 45.9871
113.105 73.6488 63.8483
115.17 77.7727 63.4094
115.278 74.7624 60.5688
115.914 82.7982 63.326
115.29 80.6451 66.6966
110.359 71.9958 67.9731
109.194 71.9448 63.918
109.493 78.8257 58.1441
114.787 79.0901 57.4992
114.725 78.4669 70.6134
112.19 73.8727 71.4389
113.953 75.4405 74.1063
105.307 71.2715 61.8771
106.122 76.3354 59.5474
102.311 74.9387 60.7146
118.685 81.6805 57.0936
117.331 85.7169 60.2862
119.805 86.8549 57.137
114.779 101.947 39.4662
115.224 102.723 35.1891
117.346 98.3175 38.5156
113.856 103.248 31.293
112.955 106.587 31.9332
115.091 104.412 40.9307
117.81 101.534 44.0814
121.219 93.9126 41.4944
115.972 94.8903 38.8019
113.462 109.376 34.3326
114.164 108.605 38.7191
112.866 111.495 36.3291
122.507 99.1625 46.7592
126.185 92.785 44.4056
121.774 95.4849 48.8763
110.639 98.4275 35.323
110.998 100.883 31.4099
107.052 100.406 33.5911
78.9277 96.523 77.153
76.8462 98.9407 75.9194
78.1709 103.405 77.6302
76.4621 101.036 71.6164
73.0537 95.7243 76.052
77.6062 90.9068 82.0019
81.7716 93.3917 79.3023
79.1987 106.047 81.6337
74.5753 109.479 79.9832
66.3899 93.2146 81.1625
73.0425 91.1255 82.0894
67.7097 86.996 81.3686
85.4608 96.2883 77.0749
83.6253 102.86 82.2428
87.959 99.8314 82.0386
72.55 110.677 75.7042
72.3988 106.908 72.9975
70.1837 111.33 72.0038
88.2745 116.888 56.641
91.39 117.031 55.0989
87.7424 120.53 59.0475
94.1491 116.509 54.2463
94.1341 113.321 51.306
89.6304 112.842 54.4951
85.3659 115.87 57.2501
85.0784 121.474 63.103
88.7635 121.858 62.3925
93.3533 113.51 46.827
91.1191 113.953 49.2828
91.1987 114.079 44.6403
81.0579 117.277 60.2624
80.4641 120.73 62.9224
76.8578 118.77 62.982
92.0983 121.625 60.9647
94.2862 118.621 56.9549
94.8499 120.529 59.8242
78.3695 82.2034 61.8106
80.8095 78.714 62.0695
79.4828 79.3776 58.6403
83.7343 76.371 62.3979
82.205 77.6499 66.1019
77.8727 85.1531 64.4562
79.004 86.9206 60.954
79.8165 81.3475 54.6293
83.7202 80.0418 56.1129
81.3697 80.0576 69.9972
79.4924 83.6619 68.8158
80.4764 82.5787 72.4455
76.6179 88.5197 57.4989
76.3148 84.5347 54.2674
77.0049 89.9107 54.4521
87.9045 79.8701 57.9199
86.7067 73.0115 59.7392
90.4782 76.9531 58.9965
85.7517 103.007 34.4492
85.1093 103.413 37.7122
84.2477 99.0087 36.6479
82.7397 101.854 40.9061
84.4521 106.241 39.0372
86.7446 106.684 31.7119
88.4389 104.385 31.0814
86.1188 95.0956 37.7243
82.2296 93.7926 40.9869
86.5079 109.509 35.9408
87.5627 110.343 32.6092
88.4905 111.83 34.6082
91.685 102.284 31.3652
90.5897 98.2352 33.9759
95.6099 101.041 32.6341
79.4143 96.1492 41.6121
81.023 100.16 42.6729
77.2484 97.7873 44.8337
POLYGONS 1280  5120
3 164 162 163
3 163 44 164
3 162 43 163
3 164 42 162
3 166 165 163
3 163 43 166
3 165 44 163
3 166 14 165
3 168 167 162
3 162 42 168
3 167 43 162
3 168 13 167
3 170 169 164
3 164 44 170
3 169 42 164
3 170 12 169
3 173 171 172
3 172 46 173
3 171 43 172
3 173 45 171
3 167 174 172
3 172 43 167
3 174 46 172
3 167 13 174
3 175 166 171
3 171 45 175
3 166 43 171
3 175 14 166
3 177 176 173
3 173 46 177
3 176 45 173
3 177 4 176
3 180 178 179
3 179 48 180
3 178 42 179
3 180 47 178
3 169 181 179
3 179 42 169
3 181 48 179
3 169 12 181
3 182 168 178
3 178 47 182
3 168 42 178
3 182 13 168
3 184 183 180
3 180 48 184
3 183 47 180
3 184 8 183
3 187 185 186
3 186 50 187
3 185 44 186
3 187 49 185
3 165 188 186
3 186 44 165
3 188 50 186
3 165 14 188
3 189 170 185
3 185 49 189
3 170 44 185
3 189 12 170
3 191 190 187
3 187 50 191
3 190 49 187
3 191 7 190
3 194 192 193
3 193 53 194
3 192 52 193
3 194 51 192
3 196 195 193
3 193 52 196
3 195 53 193
3 196 16 195
3 198 197 192
3 192 51 198
3 197 52 192
3 198 14 197
3 200 199 194
3 194 53 200
3 199 51 194
3 200 15 199
3 203 201 202
3 202 45 203
3 201 52 202
3 203 54 201
3 197 175 202
3 202 52 197
3 175 45 202
3 197 14 175
3 204 196 201
3 201 54 204
3 196 52 201
3 204 16 196
3 176 205 203
3 203 45 176
3 205 54 203
3 176 4 205
3 208 206 207
3 207 55 208
3 206 51 207
3 208 50 206
3 199 209 207
3 207 51 199
3 209 55 207
3 199 15 209
3 188 198 206
3 206 50 188
3 198 51 206
3 188 14 198
3 210 191 208
3 208 55 210
3 191 50 208
3 210 7 191
3 213 211 212
3 212 57 213
3 211 53 212
3 213 56 211
3 195 214 212
3 212 53 195
3 214 57 212
3 195 16 214
3 215 200 211
3 211 56 215
3 200 53 211
3 215 15 200
3 217 216 213
3 213 57 217
3 216 56 213
3 217 9 216
3 220 218 219
3 219 60 220
3 218 59 219
3 220 58 218
3 222 221 219
3 219 59 222
3 221 60 219
3 222 19 221
3 224 223 218
3 218 58 224
3 223 59 218
3 224 18 223
3 226 225 220
3 220 60 226
3 225 58 220
3 226 17 225
3 229 227 228
3 228 62 229
3 227 59 228
3 229 61 227
3 223 230 228
3 228 59 223
3 230 62 228
3 223 18 230
3 231 222 227
3 227 61 231
3 222 59 227
3 231 19 222
3 233 232 229
3 229 62 233
3 232 61 229
3 233 5 232
3 236 234 235
3 235 64 236
3 234 58 235
3 236 63 234
3 225 237 235
3 235 58 225
3 237 64 235
3 225 17 237
3 238 224 234
3 234 63 238
3 224 58 234
3 238 18 224
3 240 239 236
3 236 64 240
3 239 63 236
3 240 6 239
3 243 241 242
3 242 66 243
3 241 60 242
3 243 65 241
3 221 244 242
3 242 60 221
3 244 66 242
3 221 19 244
3 245 226 241
3 241 65 245
3 226 60 241
3 245 17 226
3 247 246 243
3 243 66 247
3 246 65 243
3 247 11 246
3 250 248 249
3 249 69 250
3 248 68 249
3 250 67 248
3 252 251 249
3 249 68 252
3 251 69 249
3 252 18 251
3 254 253 248
3 248 67 254
3 253 68 248
3 254 21 253
3 256 255 250
3 250 69 256
3 255 67 250
3 256 20 255
3 259 257 258
3 258 70 259
3 257 68 258
3 259 62 257
3 253 260 258
3 258 68 253
3 260 70 258
3 253 21 260
3 230 252 257
3 257 62 230
3 252 68 257
3 230 18 252
3 261 233 259
3 259 70 261
3 233 62 259
3 261 5 233
3 264 262 263
3 263 72 264
3 262 67 263
3 264 71 262
3 255 265 263
3 263 67 255
3 265 72 263
3 255 20 265
3 266 254 262
3 262 71 266
3 254 67 262
3 266 21 254
3 268 267 264
3 264 72 268
3 267 71 264
3 268 10 267
3 271 269 270
3 270 63 271
3 269 69 270
3 271 73 269
3 251 238 270
3 270 69 251
3 238 63 270
3 251 18 238
3 272 256 269
3 269 73 272
3 256 69 269
3 272 20 256
3 239 273 271
3 271 63 239
3 273 73 271
3 239 6 273
3 276 274 275
3 275 76 276
3 274 75 275
3 276 74 274
3 278 277 275
3 275 75 278
3 277 76 275
3 278 24 277
3 280 279 274
3 274 74 280
3 279 75 274
3 280 23 279
3 282 281 276
3 276 76 282
3 281 74 276
3 282 22 281
3 285 283 284
3 284 78 285
3 283 75 284
3 285 77 283
3 279 286 284
3 284 75 279
3 286 78 284
3 279 23 286
3 287 278 283
3 283 77 287
3 278 75 283
3 287 24 278
3 289 288 285
3 285 78 289
3 288 77 285
3 289 0 288
3 292 290 291
3 291 80 292
3 290 74 291
3 292 79 290
3 281 293 291
3 291 74 281
3 293 80 291
3 281 22 293
3 294 280 290
3 290 79 294
3 280 74 290
3 294 23 280
3 296 295 292
3 292 80 296
3 295 79 292
3 296 4 295
3 299 297 298
3 298 82 299
3 297 76 298
3 299 81 297
3 277 300 298
3 298 76 277
3 300 82 298
3 277 24 300
3 301 282 297
3 297 81 301
3 282 76 297
3 301 22 282
3 303 302 299
3 299 82 303
3 302 81 299
3 303 3 302
3 306 304 305
3 305 85 306
3 304 84 305
3 306 83 304
3 308 307 305
3 305 84 308
3 307 85 305
3 308 26 307
3 310 309 304
3 304 83 310
3 309 84 304
3 310 24 309
3 312 311 306
3 306 85 312
3 311 83 306
3 312 25 311
3 315 313 314
3 314 77 315
3 313 84 314
3 315 86 313
3 309 287 314
3 314 84 309
3 287 77 314
3 309 24 287
3 316 308 313
3 313 86 316
3 308 84 313
3 316 26 308
3 288 317 315
3 315 77 288
3 317 86 315
3 288 0 317
3 320 318 319
3 319 87 320
3 318 83 319
3 320 82 318
3 311 321 319
3 319 83 311
3 321 87 319
3 311 25 321
3 300 310 318
3 318 82 300
3 310 83 318
3 300 24 310
3 322 303 320
3 320 87 322
3 303 82 320
3 322 3 303
3 325 323 324
3 324 89 325
3 323 85 324
3 325 88 323
3 307 326 324
3 324 85 307
3 326 89 324
3 307 26 326
3 327 312 323
3 323 88 327
3 312 85 323
3 327 25 312
3 329 328 325
3 325 89 329
3 328 88 325
3 329 5 328
3 332 330 331
3 331 92 332
3 330 91 331
3 332 90 330
3 334 333 331
3 331 91 334
3 333 92 331
3 334 29 333
3 336 335 330
3 330 90 336
3 335 91 330
3 336 28 335
3 338 337 332
3 332 92 338
3 337 90 332
3 338 27 337
3 341 339 340
3 340 94 341
3 339 91 340
3 341 93 339
3 335 342 340
3 340 91 335
3 342 94 340
3 335 28 342
3 343 334 339
3 339 93 343
3 334 91 339
3 343 29 334
3 345 344 341
3 341 94 345
3 344 93 341
3 345 2 344
3 348 346 347
3 347 96 348
3 346 90 347
3 348 95 346
3 337 349 347
3 347 90 337
3 349 96 347
3 337 27 349
3 350 336 346
3 346 95 350
3 336 90 346
3 350 28 336
3 352 351 348
3 348 96 352
3 351 95 348
3 352 7 351
3 355 353 354
3 354 98 355
3 353 92 354
3 355 97 353
3 333 356 354
3 354 92 333
3 356 98 354
3 333 29 356
3 357 338 353
3 353 97 357
3 338 92 353
3 357 27 338
3 359 358 355
3 355 98 359
3 358 97 355
3 359 1 358
3 362 360 361
3 361 101 362
3 360 100 361
3 362 99 360
3 364 363 361
3 361 100 364
3 363 101 361
3 364 31 363
3 366 365 360
3 360 99 366
3 365 100 360
3 366 29 365
3 368 367 362
3 362 101 368
3 367 99 362
3 368 30 367
3 371 369 370
3 370 93 371
3 369 100 370
3 371 102 369
3 365 343 370
3 370 100 365
3 343 93 370
3 365 29 343
3 372 364 369
3 369 102 372
3 364 100 369
3 372 31 364
3 344 373 371
3 371 93 344
3 373 102 371
3 344 2 373
3 376 374 375
3 375 103 376
3 374 99 375
3 376 98 374
3 367 377 375
3 375 99 367
3 377 103 375
3 367 30 377
3 356 366 374
3 374 98 356
3 366 99 374
3 356 29 366
3 378 359 376
3 376 103 378
3 359 98 376
3 378 1 359
3 381 379 380
3 380 105 381
3 379 101 380
3 381 104 379
3 363 382 380
3 380 101 363
3 382 105 380
3 363 31 382
3 383 368 379
3 379 104 383
3 368 101 379
3 383 30 368
3 385 384 381
3 381 105 385
3 384 104 381
3 385 6 384
3 388 386 387
3 387 108 388
3 386 107 387
3 388 106 386
3 390 389 387
3 387 107 390
3 389 108 387
3 390 34 389
3 392 391 386
3 386 106 392
3 391 107 386
3 392 33 391
3 394 393 388
3 388 108 394
3 393 106 388
3 394 32 393
3 397 395 396
3 396 110 397
3 395 107 396
3 397 109 395
3 391 398 396
3 396 107 391
3 398 110 396
3 391 33 398
3 399 390 395
3 395 109 399
3 390 107 395
3 399 34 390
3 401 400 397
3 397 110 401
3 400 109 397
3 401 8 400
3 404 402 403
3 403 112 404
3 402 106 403
3 404 111 402
3 393 405 403
3 403 106 393
3 405 112 403
3 393 32 405
3 406 392 402
3 402 111 406
3 392 106 402
3 406 33 392
3 408 407 404
3 404 112 408
3 407 111 404
3 408 0 407
3 411 409 410
3 410 114 411
3 409 108 410
3 411 113 409
3 389 412 410
3 410 108 389
3 412 114 410
3 389 34 412
3 413 394 409
3 409 113 413
3 394 108 409
3 413 32 394
3 415 414 411
3 411 114 415
3 414 113 411
3 415 11 414
3 418 416 417
3 417 117 418
3 416 116 417
3 418 115 416
3 420 419 417
3 417 116 420
3 419 117 417
3 420 36 419
3 422 421 416
3 416 115 422
3 421 116 416
3 422 34 421
3 424 423 418
3 418 117 424
3 423 115 418
3 424 35 423
3 427 425 426
3 426 109 427
3 425 116 426
3 427 118 425
3 421 399 426
3 426 116 421
3 399 109 426
3 421 34 399
3 428 420 425
3 425 118 428
3 420 116 425
3 428 36 420
3 400 429 427
3 427 109 400
3 429 118 427
3 400 8 429
3 432 430 431
3 431 119 432
3 430 115 431
3 432 114 430
3 423 433 431
3 431 115 423
3 433 119 431
3 423 35 433
3 412 422 430
3 430 114 412
3 422 115 430
3 412 34 422
3 434 415 432
3 432 119 434
3 415 114 432
3 434 11 415
3 437 435 436
3 436 121 437
3 435 117 436
3 437 120 435
3 419 438 436
3 436 117 419
3 438 121 436
3 419 36 438
3 439 424 435
3 435 120 439
3 424 117 435
3 439 35 424
3 441 440 437
3 437 121 441
3 440 120 437
3 441 1 440
3 444 442 443
3 443 124 444
3 442 123 443
3 444 122 442
3 446 445 443
3 443 123 446
3 445 124 443
3 446 39 445
3 448 447 442
3 442 122 448
3 447 123 442
3 448 38 447
3 450 449 444
3 444 124 450
3 449 122 444
3 450 37 449
3 453 451 452
3 452 126 453
3 451 123 452
3 453 125 451
3 447 454 452
3 452 123 447
3 454 126 452
3 447 38 454
3 455 446 451
3 451 125 455
3 446 123 451
3 455 39 446
3 457 456 453
3 453 126 457
3 456 125 453
3 457 9 456
3 460 458 459
3 459 128 460
3 458 122 459
3 460 127 458
3 449 461 459
3 459 122 449
3 461 128 459
3 449 37 461
3 462 448 458
3 458 127 462
3 448 122 458
3 462 38 448
3 464 463 460
3 460 128 464
3 463 127 460
3 464 10 463
3 467 465 466
3 466 130 467
3 465 124 466
3 467 129 465
3 445 468 466
3 466 124 445
3 468 130 466
3 445 39 468
3 469 450 465
3 465 129 469
3 450 124 465
3 469 37 450
3 471 470 467
3 467 130 471
3 470 129 467
3 471 3 470
3 474 472 473
3 473 133 474
3 472 132 473
3 474 131 472
3 476 475 473
3 473 132 476
3 475 133 473
3 476 38 475
3 478 477 472
3 472 131 478
3 477 132 472
3 478 41 477
3 480 479 474
3 474 133 480
3 479 131 474
3 480 40 479
3 483 481 482
3 482 134 483
3 481 132 482
3 483 126 481
3 477 484 482
3 482 132 477
3 484 134 482
3 477 41 484
3 454 476 481
3 481 126 454
3 476 132 481
3 454 38 476
3 485 457 483
3 483 134 485
3 457 126 483
3 485 9 457
3 488 486 487
3 487 136 488
3 486 131 487
3 488 135 486
3 479 489 487
3 487 131 479
3 489 136 487
3 479 40 489
3 490 478 486
3 486 135 490
3 478 131 486
3 490 41 478
3 492 491 488
3 488 136 492
3 491 135 488
3 492 2 491
3 495 493 494
3 494 127 495
3 493 133 494
3 495 137 493
3 475 462 494
3 494 133 475
3 462 127 494
3 475 38 462
3 496 480 493
3 493 137 496
3 480 133 493
3 496 40 480
3 463 497 495
3 495 127 463
3 497 137 495
3 463 10 497
3 500 498 499
3 499 140 500
3 498 139 499
3 500 138 498
3 502 501 499
3 499 139 502
3 501 140 499
3 502 33 501
3 504 503 498
3 498 138 504
3 503 139 498
3 504 13 503
3 506 505 500
3 500 140 506
3 505 138 500
3 506 23 505
3 509 507 508
3 508 47 509
3 507 139 508
3 509 110 507
3 503 182 508
3 508 139 503
3 182 47 508
3 503 13 182
3 398 502 507
3 507 110 398
3 502 139 507
3 398 33 502
3 183 401 509
3 509 47 183
3 401 110 509
3 183 8 401
3 512 510 511
3 511 79 512
3 510 138 511
3 512 46 510
3 505 294 511
3 511 138 505
3 294 79 511
3 505 23 294
3 174 504 510
3 510 46 174
3 504 138 510
3 174 13 504
3 295 177 512
3 512 79 295
3 177 46 512
3 295 4 177
3 515 513 514
3 514 111 515
3 513 140 514
3 515 78 513
3 501 406 514
3 514 140 501
3 406 111 514
3 501 33 406
3 286 506 513
3 513 78 286
3 506 140 513
3 286 23 506
3 407 289 515
3 515 111 407
3 289 78 515
3 407 0 289
3 518 516 517
3 517 143 518
3 516 142 517
3 518 141 516
3 520 519 517
3 517 142 520
3 519 143 517
3 520 19 519
3 522 521 516
3 516 141 522
3 521 142 516
3 522 32 521
3 524 523 518
3 518 143 524
3 523 141 518
3 524 26 523
3 527 525 526
3 526 113 527
3 525 142 526
3 527 66 525
3 521 413 526
3 526 142 521
3 413 113 526
3 521 32 413
3 244 520 525
3 525 66 244
3 520 142 525
3 244 19 520
3 414 247 527
3 527 113 414
3 247 66 527
3 414 11 247
3 530 528 529
3 529 86 530
3 528 141 529
3 530 112 528
3 523 316 529
3 529 141 523
3 316 86 529
3 523 26 316
3 405 522 528
3 528 112 405
3 522 141 528
3 405 32 522
3 317 408 530
3 530 86 317
3 408 112 530
3 317 0 408
3 533 531 532
3 532 61 533
3 531 143 532
3 533 89 531
3 519 231 532
3 532 143 519
3 231 61 532
3 519 19 231
3 326 524 531
3 531 89 326
3 524 143 531
3 326 26 524
3 232 329 533
3 533 61 232
3 329 89 533
3 232 5 329
3 536 534 535
3 535 146 536
3 534 145 535
3 536 144 534
3 538 537 535
3 535 145 538
3 537 146 535
3 538 22 537
3 540 539 534
3 534 144 540
3 539 145 534
3 540 16 539
3 542 541 536
3 536 146 542
3 541 144 536
3 542 39 541
3 545 543 544
3 544 54 545
3 543 145 544
3 545 80 543
3 539 204 544
3 544 145 539
3 204 54 544
3 539 16 204
3 293 538 543
3 543 80 293
3 538 145 543
3 293 22 538
3 205 296 545
3 545 54 205
3 296 80 545
3 205 4 296
3 548 546 547
3 547 125 548
3 546 144 547
3 548 57 546
3 541 455 547
3 547 144 541
3 455 125 547
3 541 39 455
3 214 540 546
3 546 57 214
3 540 144 546
3 214 16 540
3 456 217 548
3 548 125 456
3 217 57 548
3 456 9 217
3 551 549 550
3 550 81 551
3 549 146 550
3 551 130 549
3 537 301 550
3 550 146 537
3 301 81 550
3 537 22 301
3 468 542 549
3 549 130 468
3 542 146 549
3 468 39 542
3 302 471 551
3 551 81 302
3 471 130 551
3 302 3 471
3 554 552 553
3 553 149 554
3 552 148 553
3 554 147 552
3 556 555 553
3 553 148 556
3 555 149 553
3 556 21 555
3 558 557 552
3 552 147 558
3 557 148 552
3 558 25 557
3 560 559 554
3 554 149 560
3 559 147 554
3 560 37 559
3 563 561 562
3 562 88 563
3 561 148 562
3 563 70 561
3 557 327 562
3 562 148 557
3 327 88 562
3 557 25 327
3 260 556 561
3 561 70 260
3 556 148 561
3 260 21 556
3 328 261 563
3 563 88 328
3 261 70 563
3 328 5 261
3 566 564 565
3 565 129 566
3 564 147 565
3 566 87 564
3 559 469 565
3 565 147 559
3 469 129 565
3 559 37 469
3 321 558 564
3 564 87 321
3 558 147 564
3 321 25 558
3 470 322 566
3 566 129 470
3 322 87 566
3 470 3 322
3 569 567 568
3 568 71 569
3 567 149 568
3 569 128 567
3 555 266 568
3 568 149 555
3 266 71 568
3 555 21 266
3 461 560 567
3 567 128 461
3 560 149 567
3 461 37 560
3 267 464 569
3 569 71 267
3 464 128 569
3 267 10 464
3 572 570 571
3 571 152 572
3 570 151 571
3 572 150 570
3 574 573 571
3 571 151 574
3 573 152 571
3 574 27 573
3 576 575 570
3 570 150 576
3 575 151 570
3 576 12 575
3 578 577 572
3 572 152 578
3 577 150 572
3 578 36 577
3 581 579 580
3 580 49 581
3 579 151 580
3 581 96 579
3 575 189 580
3 580 151 575
3 189 49 580
3 575 12 189
3 349 574 579
3 579 96 349
3 574 151 579
3 349 27 574
3 190 352 581
3 581 49 190
3 352 96 581
3 190 7 352
3 584 582 583
3 583 118 584
3 582 150 583
3 584 48 582
3 577 428 583
3 583 150 577
3 428 118 583
3 577 36 428
3 181 576 582
3 582 48 181
3 576 150 582
3 181 12 576
3 429 184 584
3 584 118 429
3 184 48 584
3 429 8 184
3 587 585 586
3 586 97 587
3 585 152 586
3 587 121 585
3 573 357 586
3 586 152 573
3 357 97 586
3 573 27 357
3 438 578 585
3 585 121 438
3 578 152 585
3 438 36 578
3 358 441 587
3 587 97 358
3 441 121 587
3 358 1 441
3 590 588 589
3 589 155 590
3 588 154 589
3 590 153 588
3 592 591 589
3 589 154 592
3 591 155 589
3 592 17 591
3 594 593 588
3 588 153 594
3 593 154 588
3 594 30 593
3 596 595 590
3 590 155 596
3 595 153 590
3 596 35 595
3 599 597 598
3 598 104 599
3 597 154 598
3 599 64 597
3 593 383 598
3 598 154 593
3 383 104 598
3 593 30 383
3 237 592 597
3 597 64 237
3 592 154 597
3 237 17 592
3 384 240 599
3 599 104 384
3 240 64 599
3 384 6 240
3 602 600 601
3 601 120 602
3 600 153 601
3 602 103 600
3 595 439 601
3 601 153 595
3 439 120 601
3 595 35 439
3 377 594 600
3 600 103 377
3 594 153 600
3 377 30 594
3 440 378 602
3 602 120 440
3 378 103 602
3 440 1 378
3 605 603 604
3 604 65 605
3 603 155 604
3 605 119 603
3 591 245 604
3 604 155 591
3 245 65 604
3 591 17 245
3 433 596 603
3 603 119 433
3 596 155 603
3 433 35 596
3 246 434 605
3 605 65 246
3 434 119 605
3 246 11 434
3 608 606 607
3 607 158 608
3 606 157 607
3 608 156 606
3 610 609 607
3 607 157 610
3 609 158 607
3 610 15 609
3 612 611 606
3 606 156 612
3 611 157 606
3 612 28 611
3 614 613 608
3 608 158 614
3 613 156 608
3 614 41 613
3 617 615 616
3 616 95 617
3 615 157 616
3 617 55 615
3 611 350 616
3 616 157 611
3 350 95 616
3 611 28 350
3 209 610 615
3 615 55 209
3 610 157 615
3 209 15 610
3 351 210 617
3 617 95 351
3 210 55 617
3 351 7 210
3 620 618 619
3 619 135 620
3 618 156 619
3 620 94 618
3 613 490 619
3 619 156 613
3 490 135 619
3 613 41 490
3 342 612 618
3 618 94 342
3 612 156 618
3 342 28 612
3 491 345 620
3 620 135 491
3 345 94 620
3 491 2 345
3 623 621 622
3 622 56 623
3 621 158 622
3 623 134 621
3 609 215 622
3 622 158 609
3 215 56 622
3 609 15 215
3 484 614 621
3 621 134 484
3 614 158 621
3 484 41 614
3 216 485 623
3 623 56 216
3 485 134 623
3 216 9 485
3 626 624 625
3 625 161 626
3 624 160 625
3 626 159 624
3 628 627 625
3 625 160 628
3 627 161 625
3 628 31 627
3 630 629 624
3 624 159 630
3 629 160 624
3 630 20 629
3 632 631 626
3 626 161 632
3 631 159 626
3 632 40 631
3 635 633 634
3 634 73 635
3 633 160 634
3 635 105 633
3 629 272 634
3 634 160 629
3 272 73 634
3 629 20 272
3 382 628 633
3 633 105 382
3 628 160 633
3 382 31 628
3 273 385 635
3 635 73 273
3 385 105 635
3 273 6 385
3 638 636 637
3 637 137 638
3 636 159 637
3 638 72 636
3 631 496 637
3 637 159 631
3 496 137 637
3 631 40 496
3 265 630 636
3 636 72 265
3 630 159 636
3 265 20 630
3 497 268 638
3 638 137 497
3 268 72 638
3 497 10 268
3 641 639 640
3 640 102 641
3 639 161 640
3 641 136 639
3 627 372 640
3 640 161 627
3 372 102 640
3 627 31 372
3 489 632 639
3 639 136 489
3 632 161 639
3 489 40 632
3 373 492 641
3 641 102 373
3 492 136 641
3 373 2 492
