# vtk DataFile Version 3.0
this file was written using fslvtkio
ASCII
DATASET POLYDATA
POINTS 642 float
114.101 118.65 105.825
110.417 119.034 105.629
113.033 110.52 105.64
116.211 107.314 104.675
115.104 110.189 108.157
113.885 115.738 103.546
110.535 117.673 103.727
112.967 110.722 109.116
112.111 119.843 108.724
115.305 100.7 106.456
116.384 106.03 102.425
109.469 124.035 102.994
112.302 115.098 110.584
113.413 115.351 109.148
113.892 109.842 110.525
114.1 105.74 108.106
114.68 104.671 107.589
108.11 120.736 101.483
112.002 117.194 103.723
111.544 121.309 102.551
113.885 111.793 104.372
115.879 109.805 103.29
115.406 107.529 106.382
114.259 114.637 107.127
115.388 112.834 105.439
116.465 110.59 103.426
114.007 118.286 104.196
111.837 115.607 108.259
113.557 109.568 107.487
111.664 114.63 105.992
108.46 119.344 103.473
112.193 113.778 104.548
111.511 122.213 104.65
112.64 119.906 107.338
110.641 123.071 105.397
108.652 121.995 103.638
111.573 119.408 106.941
117.131 103.838 103.087
116.535 101.646 103.437
116.715 102.007 104.901
114.585 106.377 104.366
114.879 105.07 105.684
113.188 115.559 110.375
114.185 112.53 109.628
113.099 112.445 110.228
114.756 109.949 109.128
114.505 113.041 108.582
113.028 118.101 109.37
112.231 117.871 109.867
112.159 113.009 109.673
112.987 109.552 110.197
113.695 107.184 109.808
114.128 107.41 109.235
114.521 104.469 108.416
114.595 107.342 107.669
113.61 108.068 108.921
115.008 102.542 107.345
115.672 101.483 107.383
109.844 119.743 101.879
111.446 119.462 102.584
110.118 121.593 101.726
112.665 118.952 103.048
113.394 116.485 103.023
111.167 117.836 103.621
108.486 119.525 102.24
108.6 122.73 102.077
110.481 123.055 102.603
115.481 110.671 103.466
114.324 113.943 103.243
113.54 114.269 103.701
115.572 112.738 102.835
116.813 106.999 102.523
117.022 108.958 103.319
112.064 114.656 103.622
115.361 111.252 106.887
114.883 113.492 106.23
115.755 110.432 105.987
114.182 115.681 105.665
114.09 116.804 106.63
114.892 112.594 107.728
115.383 108.806 107.278
115.881 107.301 105.589
115.997 109.983 105.012
115.85 112.316 104.452
114.282 114.629 104.876
114.739 114.136 104.297
113.937 118.51 104.954
116.77 109.168 104.113
115.559 112.995 103.469
113.727 117.24 103.902
112.486 112.756 107.949
112.022 111.917 106.839
111.631 114.639 107.302
112.218 112.859 105.825
113.05 109.975 106.486
113.245 110.193 108.371
112.38 113.102 108.59
111.589 117.224 106.915
110.958 116.929 105.949
109.738 116.995 104.694
111.288 114.879 104.75
109.907 116.287 104.239
112.646 112.203 105.049
109.838 119.666 104.397
109.085 118.555 103.31
111.163 114.931 103.898
111.916 121.85 105.993
111.789 122.414 106.471
110.789 123.811 105.145
111.418 121.377 106.95
112.231 120.457 108.083
113.255 119.674 106.562
112.859 120.702 105.458
110.357 123.438 104.058
109.3 124.058 104.326
109.321 122.919 104.58
111.108 121.468 106.079
110.195 121.6 105.169
111.942 119.685 107.679
108.554 123.294 103.479
109.658 120.81 104.688
110.663 119.539 106.344
117.233 101.55 101.963
116.911 99.9393 104.163
117.289 103.064 103.749
116.322 100.653 105.909
115.615 100.724 105.005
116.438 104.022 102.556
116.983 104.684 101.586
116.821 106.153 103.943
116.264 104.808 104.716
114.529 105.701 104.771
115.513 102.726 104.688
115.627 103.733 103.421
114.814 102.663 106.169
113.841 107.633 105.738
113.635 108.836 104.959
115.921 106.414 103.61
113.978 115.445 108.126
113.317 117.926 108.46
113.744 117.675 107.276
113.093 120.359 104.347
111.607 121.838 103.641
113.007 119.971 103.433
115.549 102.965 106.227
114.805 105.653 106.565
115.344 104.77 105.487
117.294 107.135 103.425
116.661 109.917 102.942
116.48 106.169 103.504
112.256 117.401 108.928
111.99 115.289 109.396
111.782 117.781 107.615
108.552 120.79 103.441
106.705 119.357 102.142
107.659 121.914 102.386
114.055 107.285 106.614
113.671 107.494 107.725
114.673 105.264 106.874
114.784 108.839 104.13
112.606 112.546 104.076
113.354 110.032 104.355
113.665 113.828 109.993
113.747 112.463 110.112
113.186 113.809 110.433
113.541 111.083 110.404
114.268 111.096 110.205
113.933 113.959 109.483
113.451 115.313 109.784
112.835 115.236 110.713
112.717 113.916 110.338
114.623 111.416 109.508
114.541 113.033 109.293
114.841 111.523 108.929
113.956 114.261 108.925
114.43 110.026 109.739
115.072 109.957 108.618
115.071 111.65 108.53
113.09 116.722 109.94
112.698 116.793 110.492
112.634 117.828 109.771
112.497 116.315 110.384
113.268 116.755 109.393
112.471 119.12 109.178
112.175 118.836 109.45
112.555 112.559 110.201
113.088 111.182 110.116
112.778 111.434 109.878
113.338 109.638 110.658
112.233 113.699 110.2
112.52 111.865 109.43
112.853 110.147 109.664
113.913 107.422 109.753
114.292 105.92 109.123
113.769 105.857 109.22
114.568 104.554 108.115
114.369 106.051 108.529
114.081 108.815 109.961
113.624 108.551 110.486
113.336 106.289 109.211
114.137 104.939 108.48
114.625 107.226 108.38
114.773 108.465 109.206
114.951 108.514 108.583
114.506 106.098 107.792
114.962 108.683 107.979
113.16 108.213 110.333
113.473 107.859 109.363
112.899 108.805 109.801
113.63 106.839 108.572
113.105 109.351 109.201
114.986 103.385 108.001
115.266 103.049 107.639
115.19 101.287 107.777
115.238 103.247 107.277
114.812 104.414 107.628
114.888 100.984 107.17
115.656 100.543 107.183
110.976 119.386 101.954
111.003 120.301 102.242
110.053 120.453 101.77
110.836 121.556 102.181
111.685 120.431 102.504
111.222 118.522 103.334
110.49 118.906 103.065
108.905 120.311 101.65
109.226 121.339 101.554
112.129 119.35 102.684
111.844 118.122 103.458
112.53 117.723 103.507
112.684 116.781 103.26
112.465 120.198 102.648
113.121 117.226 103.637
113.754 116.157 103.242
109.621 119.37 102.921
108.828 119.719 102.073
109.486 119.373 102.967
107.664 119.915 101.344
111.396 117.741 103.631
110.748 118.159 103.582
109.556 119.136 103.299
109.333 122.223 101.863
110.248 122.425 102.072
109.576 123.021 102.178
110.939 122.157 102.676
108.449 121.644 101.802
109.071 123.412 102.436
109.928 123.642 102.668
114.983 112.051 103.242
114.007 114.082 103.568
114.429 112.524 103.514
112.893 115.793 103.453
113.427 115.615 103.463
114.921 112.475 103.046
115.837 110.466 103.307
114.809 111.483 104.037
113.748 112.778 104.038
113.882 115.214 103.47
115.111 113.243 103.014
114.408 114.624 103.473
116.018 111.67 102.548
114.71 114.122 103.257
116.572 108.841 103.223
116.534 109.668 103.822
116.827 107.728 102.966
115.87 110.75 104.117
116.404 108.245 103.488
116.714 106.316 101.917
116.557 106.968 102.911
112.734 114.712 103.716
112.419 115.894 103.458
111.725 115.953 103.482
112.921 113.283 104.041
111.387 116.238 103.754
115.243 112.42 106.639
115.632 112.071 106.172
115.436 110.854 106.385
115.709 111.706 105.708
115.274 113.197 105.867
114.723 113.766 106.768
115.124 112.885 107.136
115.515 109.595 106.626
115.548 109.098 106.268
114.437 114.522 105.968
114.412 114.922 106.46
114.182 116.018 106.165
114.204 115.536 106.791
114.683 114.158 105.559
114.272 117.146 105.777
114.257 117.788 106.252
115.227 111.847 107.346
115.346 110.082 107.076
115.371 110.74 107.64
115.346 108.384 106.84
114.604 113.628 107.472
115.135 111.474 107.976
115.138 109.53 107.672
115.892 108.922 105.813
115.879 110.143 105.474
116 108.649 105.233
115.746 111.473 105.271
115.745 107.552 105.986
116.315 107.249 105.087
116.339 108.72 104.719
115.535 113.555 104.758
114.153 114.581 104.591
115.839 113.348 104.098
114.212 116.048 104.306
114.104 116.52 104.594
114.993 113.655 105.109
115.706 112.427 105.001
116.147 111.684 103.923
115.777 112.564 103.771
114.061 116.82 104.955
114.191 115.204 105.198
114.245 117.08 105.349
114.08 118.331 104.529
114.014 118.652 105.384
116.162 111.19 104.635
116.423 110.943 104.181
116.318 109.806 104.46
116.57 110.023 103.829
116.405 108.08 104.268
115.244 113.774 103.759
114.15 115.677 104.099
114.552 114.838 104.108
113.871 117.854 104.005
115.907 111.72 103.414
114.644 114.228 103.463
113.722 116.203 103.958
112.154 112.123 107.46
112.09 113.38 107.268
112.137 113.708 107.787
111.989 114.425 106.793
111.928 113.246 106.55
112.756 110.964 107.324
112.81 111.198 107.678
111.998 114.203 108.208
111.649 115.063 107.86
112.07 112.352 106.193
112.656 111.12 106.787
112.607 111.417 106.246
113.183 109.731 107.1
111.872 113.742 105.824
112.735 111.874 105.795
112.944 110.217 105.934
112.913 111.405 108.009
112.41 112.893 108.269
113.072 111.676 108.391
112.002 114.413 108.537
113.407 110.1 107.94
113.283 110.374 108.778
112.712 111.962 108.822
111.861 116.074 107.158
111.793 115.841 106.593
111.465 117.087 106.414
111.436 115.703 106.142
111.692 116.391 107.664
111.193 118.263 106.288
110.677 118.19 105.819
110.375 115.938 105.069
110.483 115.616 104.648
109.541 116.496 104.53
110.81 115.342 104.244
111.63 114.453 104.543
111.202 115.075 105.327
110.687 115.889 105.442
109.092 118.133 104.172
109.186 117.757 103.881
111.893 113.73 104.977
111.728 114.155 105.331
112.133 112.871 105.372
112.196 112.845 104.69
113.063 111.483 105.413
110.681 116.827 105.441
109.926 118.302 104.694
110.653 118.237 105.305
108.952 119.57 103.951
110.387 119.402 104.929
109.596 117.283 103.77
110.547 115.649 103.926
110.119 117.172 103.659
111.609 114.277 104.234
108.583 119.11 103.179
109.74 118.275 103.469
110.9 116.198 103.807
111.679 121.999 106.145
111.251 123.293 105.849
111.372 122.753 105.447
110.519 123.838 105.38
110.984 123.043 106.081
112.354 121.29 106.931
112.273 121.076 106.699
111.684 122.208 105.237
111.042 122.949 104.901
111.255 122.08 106.598
112.138 121.622 107.212
111.996 121.52 107.821
112.427 120.123 107.602
110.887 122.409 105.989
111.769 120.799 107.804
112.041 120.407 108.56
112.364 120.708 106.295
112.172 121.23 105.691
112.873 120.321 106.048
112.24 121.488 105.012
112.659 119.97 106.805
113.754 119.224 106.213
113.584 119.896 105.65
110.313 123.877 104.674
109.782 124.117 104.755
109.823 123.814 104.125
109.769 123.587 105.041
110.727 122.948 104.422
109.957 123.937 103.421
109.264 124.23 103.73
109.98 122.451 105.348
110.676 121.646 105.693
109.562 122.385 105.188
110.807 120.879 106.054
111.303 120.414 106.416
110.907 122.235 105.435
109.621 122.968 105.019
108.573 122.49 104.494
109.222 121.899 104.535
111.35 120.594 106.873
111.245 121.493 106.467
111.658 120.572 107.496
111.822 119.533 107.256
112.105 119.619 108.256
108.876 123.753 104.621
108.519 123.104 104.251
108.803 123.814 103.853
108.326 122.673 103.71
108.89 123.943 103.166
109.922 121.157 105.135
110.391 120.587 105.923
110.14 120.261 105.57
111.36 119.789 106.423
109.227 121.561 104.202
110.105 119.966 105.13
110.357 119.174 105.982
117.372 100.929 103.136
117.196 101.481 103.866
117.439 102.147 103.103
117.115 102.255 104.365
117.198 100.615 104.584
116.569 100.22 103.513
116.589 101.406 102.493
117.467 102.499 102.317
117.507 103.438 103.047
116.796 99.4557 104.823
115.995 99.8455 104.45
115.953 100.516 105.392
116.113 100.829 104.087
116.857 100.92 105.308
116.004 100.632 106.111
115.177 100.633 105.828
116.565 102.77 101.996
117.189 102.987 101.668
116.616 104.259 101.748
117.143 103.919 102.489
116.325 102.566 102.602
116.683 105.49 102.727
116.517 105.582 101.617
117.038 104.26 103.739
117.064 103.561 104.416
116.684 105.216 104.192
116.516 103.276 104.868
117.232 104.617 103.765
116.435 106.752 104.332
116.494 106.03 104.719
115.101 104.02 104.652
115.554 103.025 103.969
115.072 104.294 104.081
116.174 102.596 103.342
116.064 101.861 104.113
115.001 103.942 105.24
114.59 105.315 105.084
114.568 105.911 104.458
115.31 104.954 103.855
115.457 101.704 104.765
115.017 102.988 105.466
115.106 101.722 105.667
114.929 103.918 106.005
114.742 101.483 106.432
114.055 106.7 105.231
114.266 107.206 104.839
113.767 108.303 105.281
114.072 107.835 104.651
114.242 106.193 105.614
113.524 109.145 105.805
113.515 109.908 105.496
115.837 105.113 103.509
115.845 103.44 102.915
116.405 105.003 103.098
115.241 106.376 104.053
116.586 106.458 103.131
113.684 116.896 108.308
113.617 118.112 107.943
113.845 116.644 107.685
113.342 118.917 107.386
113.058 118.886 107.838
113.34 116.793 108.895
113.769 115.442 108.649
114.196 115.258 107.626
114.095 116.276 107.253
112.598 119.418 108.159
113.153 118.338 108.86
112.509 119.486 108.678
113.969 114.19 108.282
114.373 114.166 107.886
114.721 112.823 108.141
113.903 117.405 106.95
113.372 118.816 106.934
113.958 118.446 106.657
112.124 121.168 104.186
112.231 121.06 103.621
112.906 120.321 104.001
112.42 120.707 103.002
111.525 121.477 103.154
111.671 122.156 104.213
112.201 121.152 104.547
113.833 119.541 104.131
113.536 119.272 103.841
111.05 122.388 103.286
111.053 122.621 104.023
110.401 122.941 103.645
113.036 120.73 104.858
113.76 119.658 104.614
113.608 119.845 105.163
113.568 118.734 103.586
113.176 119.417 103.021
113.245 117.96 103.595
114.986 104.406 106.441
114.905 105.354 106.061
115.362 103.768 105.804
115.143 106.22 105.82
114.964 106.727 106.502
114.567 105.159 107.171
114.951 103.697 106.804
116.162 101.977 105.596
116.168 103.081 105.306
115.178 107.227 106.952
114.783 106.467 107.127
115.112 108.033 107.444
115.464 102.364 106.745
116.048 101.474 106.169
116.243 100.783 106.919
115.871 104.591 105.14
115.624 106.254 105.533
116.343 106.065 105.126
117.203 108.381 103.258
116.932 107.945 103.44
117.127 106.346 103.375
116.217 107.517 103.908
116.894 109.602 102.583
116.317 110.116 103.277
117.142 108.895 103.174
117.366 105.296 103.329
116.455 104.825 103.099
116.244 111.292 102.86
115.923 111.464 103.257
115.504 112.839 103.185
116.943 108.462 103.797
116.845 106.556 103.56
116.468 107.501 103.959
116.862 105.773 102.539
116.884 106.651 103.193
117.053 106.364 101.402
112.109 116.213 109.406
111.801 116.51 108.65
112.078 117.601 108.25
111.812 116.728 107.949
111.905 115.534 108.739
112.033 114.808 110.237
112.197 116.309 110.037
112.306 118.453 107.934
111.868 118.76 107.259
111.905 114.264 108.803
111.825 114.052 109.609
112.223 112.954 109.06
112.142 117.677 109.511
112.242 118.711 108.331
112.017 118.938 108.963
111.321 118.816 106.904
111.733 117.678 107.181
111.044 118.465 106.654
107.484 120.623 102.823
107.169 120.673 102.195
107.786 121.359 102.857
107.761 121.357 101.792
107.102 119.945 101.605
107.67 119.689 102.905
108.605 120.252 103.295
108.754 121.312 103.514
107.992 122.078 103.065
107.452 118.992 101.627
107.955 119.251 102.545
108.769 119.123 102.852
108.792 120.193 103.883
109.048 120.89 104.113
109.588 120.106 104.493
107.978 122.82 103.086
108.138 122.388 102.261
108.433 123.468 102.656
113.835 107.372 107.155
114.312 106.463 107.32
114.419 106.277 106.687
114.403 105.315 107.529
114.048 106.617 107.892
113.501 108.39 107.612
113.452 108.287 106.977
114.505 106.218 106.156
114.871 105.227 106.295
113.515 107.573 108.353
113.316 108.807 108.179
113.312 108.982 108.692
113.384 108.686 106.736
113.891 107.414 106.226
113.434 108.863 106.195
115.052 104.264 106.554
114.87 104.236 107.273
114.876 102.534 106.784
113.244 110.496 104.163
112.858 111.309 104.227
113.734 109.406 104.217
112.847 111.959 104.563
112.379 113.137 104.411
113.034 111.764 104.165
114.246 110.062 104.132
114.643 107.49 104.265
113.881 108.265 104.324
112.157 113.81 103.855
112.098 113.349 103.724
111.736 114.921 103.824
115.649 109.281 103.655
115.219 107.692 103.765
116.442 107.876 103.329
113.514 109.616 104.631
112.929 111.337 104.699
113.512 110.6 105.177
POLYGONS 1280  5120
3 164 162 163
3 163 44 164
3 162 43 163
3 164 42 162
3 166 165 163
3 163 43 166
3 165 44 163
3 166 14 165
3 168 167 162
3 162 42 168
3 167 43 162
3 168 13 167
3 170 169 164
3 164 44 170
3 169 42 164
3 170 12 169
3 173 171 172
3 172 46 173
3 171 43 172
3 173 45 171
3 167 174 172
3 172 43 167
3 174 46 172
3 167 13 174
3 175 166 171
3 171 45 175
3 166 43 171
3 175 14 166
3 177 176 173
3 173 46 177
3 176 45 173
3 177 4 176
3 180 178 179
3 179 48 180
3 178 42 179
3 180 47 178
3 169 181 179
3 179 42 169
3 181 48 179
3 169 12 181
3 182 168 178
3 178 47 182
3 168 42 178
3 182 13 168
3 184 183 180
3 180 48 184
3 183 47 180
3 184 8 183
3 187 185 186
3 186 50 187
3 185 44 186
3 187 49 185
3 165 188 186
3 186 44 165
3 188 50 186
3 165 14 188
3 189 170 185
3 185 49 189
3 170 44 185
3 189 12 170
3 191 190 187
3 187 50 191
3 190 49 187
3 191 7 190
3 194 192 193
3 193 53 194
3 192 52 193
3 194 51 192
3 196 195 193
3 193 52 196
3 195 53 193
3 196 16 195
3 198 197 192
3 192 51 198
3 197 52 192
3 198 14 197
3 200 199 194
3 194 53 200
3 199 51 194
3 200 15 199
3 203 201 202
3 202 45 203
3 201 52 202
3 203 54 201
3 197 175 202
3 202 52 197
3 175 45 202
3 197 14 175
3 204 196 201
3 201 54 204
3 196 52 201
3 204 16 196
3 176 205 203
3 203 45 176
3 205 54 203
3 176 4 205
3 208 206 207
3 207 55 208
3 206 51 207
3 208 50 206
3 199 209 207
3 207 51 199
3 209 55 207
3 199 15 209
3 188 198 206
3 206 50 188
3 198 51 206
3 188 14 198
3 210 191 208
3 208 55 210
3 191 50 208
3 210 7 191
3 213 211 212
3 212 57 213
3 211 53 212
3 213 56 211
3 195 214 212
3 212 53 195
3 214 57 212
3 195 16 214
3 215 200 211
3 211 56 215
3 200 53 211
3 215 15 200
3 217 216 213
3 213 57 217
3 216 56 213
3 217 9 216
3 220 218 219
3 219 60 220
3 218 59 219
3 220 58 218
3 222 221 219
3 219 59 222
3 221 60 219
3 222 19 221
3 224 223 218
3 218 58 224
3 223 59 218
3 224 18 223
3 226 225 220
3 220 60 226
3 225 58 220
3 226 17 225
3 229 227 228
3 228 62 229
3 227 59 228
3 229 61 227
3 223 230 228
3 228 59 223
3 230 62 228
3 223 18 230
3 231 222 227
3 227 61 231
3 222 59 227
3 231 19 222
3 233 232 229
3 229 62 233
3 232 61 229
3 233 5 232
3 236 234 235
3 235 64 236
3 234 58 235
3 236 63 234
3 225 237 235
3 235 58 225
3 237 64 235
3 225 17 237
3 238 224 234
3 234 63 238
3 224 58 234
3 238 18 224
3 240 239 236
3 236 64 240
3 239 63 236
3 240 6 239
3 243 241 242
3 242 66 243
3 241 60 242
3 243 65 241
3 221 244 242
3 242 60 221
3 244 66 242
3 221 19 244
3 245 226 241
3 241 65 245
3 226 60 241
3 245 17 226
3 247 246 243
3 243 66 247
3 246 65 243
3 247 11 246
3 250 248 249
3 249 69 250
3 248 68 249
3 250 67 248
3 252 251 249
3 249 68 252
3 251 69 249
3 252 18 251
3 254 253 248
3 248 67 254
3 253 68 248
3 254 21 253
3 256 255 250
3 250 69 256
3 255 67 250
3 256 20 255
3 259 257 258
3 258 70 259
3 257 68 258
3 259 62 257
3 253 260 258
3 258 68 253
3 260 70 258
3 253 21 260
3 230 252 257
3 257 62 230
3 252 68 257
3 230 18 252
3 261 233 259
3 259 70 261
3 233 62 259
3 261 5 233
3 264 262 263
3 263 72 264
3 262 67 263
3 264 71 262
3 255 265 263
3 263 67 255
3 265 72 263
3 255 20 265
3 266 254 262
3 262 71 266
3 254 67 262
3 266 21 254
3 268 267 264
3 264 72 268
3 267 71 264
3 268 10 267
3 271 269 270
3 270 63 271
3 269 69 270
3 271 73 269
3 251 238 270
3 270 69 251
3 238 63 270
3 251 18 238
3 272 256 269
3 269 73 272
3 256 69 269
3 272 20 256
3 239 273 271
3 271 63 239
3 273 73 271
3 239 6 273
3 276 274 275
3 275 76 276
3 274 75 275
3 276 74 274
3 278 277 275
3 275 75 278
3 277 76 275
3 278 24 277
3 280 279 274
3 274 74 280
3 279 75 274
3 280 23 279
3 282 281 276
3 276 76 282
3 281 74 276
3 282 22 281
3 285 283 284
3 284 78 285
3 283 75 284
3 285 77 283
3 279 286 284
3 284 75 279
3 286 78 284
3 279 23 286
3 287 278 283
3 283 77 287
3 278 75 283
3 287 24 278
3 289 288 285
3 285 78 289
3 288 77 285
3 289 0 288
3 292 290 291
3 291 80 292
3 290 74 291
3 292 79 290
3 281 293 291
3 291 74 281
3 293 80 291
3 281 22 293
3 294 280 290
3 290 79 294
3 280 74 290
3 294 23 280
3 296 295 292
3 292 80 296
3 295 79 292
3 296 4 295
3 299 297 298
3 298 82 299
3 297 76 298
3 299 81 297
3 277 300 298
3 298 76 277
3 300 82 298
3 277 24 300
3 301 282 297
3 297 81 301
3 282 76 297
3 301 22 282
3 303 302 299
3 299 82 303
3 302 81 299
3 303 3 302
3 306 304 305
3 305 85 306
3 304 84 305
3 306 83 304
3 308 307 305
3 305 84 308
3 307 85 305
3 308 26 307
3 310 309 304
3 304 83 310
3 309 84 304
3 310 24 309
3 312 311 306
3 306 85 312
3 311 83 306
3 312 25 311
3 315 313 314
3 314 77 315
3 313 84 314
3 315 86 313
3 309 287 314
3 314 84 309
3 287 77 314
3 309 24 287
3 316 308 313
3 313 86 316
3 308 84 313
3 316 26 308
3 288 317 315
3 315 77 288
3 317 86 315
3 288 0 317
3 320 318 319
3 319 87 320
3 318 83 319
3 320 82 318
3 311 321 319
3 319 83 311
3 321 87 319
3 311 25 321
3 300 310 318
3 318 82 300
3 310 83 318
3 300 24 310
3 322 303 320
3 320 87 322
3 303 82 320
3 322 3 303
3 325 323 324
3 324 89 325
3 323 85 324
3 325 88 323
3 307 326 324
3 324 85 307
3 326 89 324
3 307 26 326
3 327 312 323
3 323 88 327
3 312 85 323
3 327 25 312
3 329 328 325
3 325 89 329
3 328 88 325
3 329 5 328
3 332 330 331
3 331 92 332
3 330 91 331
3 332 90 330
3 334 333 331
3 331 91 334
3 333 92 331
3 334 29 333
3 336 335 330
3 330 90 336
3 335 91 330
3 336 28 335
3 338 337 332
3 332 92 338
3 337 90 332
3 338 27 337
3 341 339 340
3 340 94 341
3 339 91 340
3 341 93 339
3 335 342 340
3 340 91 335
3 342 94 340
3 335 28 342
3 343 334 339
3 339 93 343
3 334 91 339
3 343 29 334
3 345 344 341
3 341 94 345
3 344 93 341
3 345 2 344
3 348 346 347
3 347 96 348
3 346 90 347
3 348 95 346
3 337 349 347
3 347 90 337
3 349 96 347
3 337 27 349
3 350 336 346
3 346 95 350
3 336 90 346
3 350 28 336
3 352 351 348
3 348 96 352
3 351 95 348
3 352 7 351
3 355 353 354
3 354 98 355
3 353 92 354
3 355 97 353
3 333 356 354
3 354 92 333
3 356 98 354
3 333 29 356
3 357 338 353
3 353 97 357
3 338 92 353
3 357 27 338
3 359 358 355
3 355 98 359
3 358 97 355
3 359 1 358
3 362 360 361
3 361 101 362
3 360 100 361
3 362 99 360
3 364 363 361
3 361 100 364
3 363 101 361
3 364 31 363
3 366 365 360
3 360 99 366
3 365 100 360
3 366 29 365
3 368 367 362
3 362 101 368
3 367 99 362
3 368 30 367
3 371 369 370
3 370 93 371
3 369 100 370
3 371 102 369
3 365 343 370
3 370 100 365
3 343 93 370
3 365 29 343
3 372 364 369
3 369 102 372
3 364 100 369
3 372 31 364
3 344 373 371
3 371 93 344
3 373 102 371
3 344 2 373
3 376 374 375
3 375 103 376
3 374 99 375
3 376 98 374
3 367 377 375
3 375 99 367
3 377 103 375
3 367 30 377
3 356 366 374
3 374 98 356
3 366 99 374
3 356 29 366
3 378 359 376
3 376 103 378
3 359 98 376
3 378 1 359
3 381 379 380
3 380 105 381
3 379 101 380
3 381 104 379
3 363 382 380
3 380 101 363
3 382 105 380
3 363 31 382
3 383 368 379
3 379 104 383
3 368 101 379
3 383 30 368
3 385 384 381
3 381 105 385
3 384 104 381
3 385 6 384
3 388 386 387
3 387 108 388
3 386 107 387
3 388 106 386
3 390 389 387
3 387 107 390
3 389 108 387
3 390 34 389
3 392 391 386
3 386 106 392
3 391 107 386
3 392 33 391
3 394 393 388
3 388 108 394
3 393 106 388
3 394 32 393
3 397 395 396
3 396 110 397
3 395 107 396
3 397 109 395
3 391 398 396
3 396 107 391
3 398 110 396
3 391 33 398
3 399 390 395
3 395 109 399
3 390 107 395
3 399 34 390
3 401 400 397
3 397 110 401
3 400 109 397
3 401 8 400
3 404 402 403
3 403 112 404
3 402 106 403
3 404 111 402
3 393 405 403
3 403 106 393
3 405 112 403
3 393 32 405
3 406 392 402
3 402 111 406
3 392 106 402
3 406 33 392
3 408 407 404
3 404 112 408
3 407 111 404
3 408 0 407
3 411 409 410
3 410 114 411
3 409 108 410
3 411 113 409
3 389 412 410
3 410 108 389
3 412 114 410
3 389 34 412
3 413 394 409
3 409 113 413
3 394 108 409
3 413 32 394
3 415 414 411
3 411 114 415
3 414 113 411
3 415 11 414
3 418 416 417
3 417 117 418
3 416 116 417
3 418 115 416
3 420 419 417
3 417 116 420
3 419 117 417
3 420 36 419
3 422 421 416
3 416 115 422
3 421 116 416
3 422 34 421
3 424 423 418
3 418 117 424
3 423 115 418
3 424 35 423
3 427 425 426
3 426 109 427
3 425 116 426
3 427 118 425
3 421 399 426
3 426 116 421
3 399 109 426
3 421 34 399
3 428 420 425
3 425 118 428
3 420 116 425
3 428 36 420
3 400 429 427
3 427 109 400
3 429 118 427
3 400 8 429
3 432 430 431
3 431 119 432
3 430 115 431
3 432 114 430
3 423 433 431
3 431 115 423
3 433 119 431
3 423 35 433
3 412 422 430
3 430 114 412
3 422 115 430
3 412 34 422
3 434 415 432
3 432 119 434
3 415 114 432
3 434 11 415
3 437 435 436
3 436 121 437
3 435 117 436
3 437 120 435
3 419 438 436
3 436 117 419
3 438 121 436
3 419 36 438
3 439 424 435
3 435 120 439
3 424 117 435
3 439 35 424
3 441 440 437
3 437 121 441
3 440 120 437
3 441 1 440
3 444 442 443
3 443 124 444
3 442 123 443
3 444 122 442
3 446 445 443
3 443 123 446
3 445 124 443
3 446 39 445
3 448 447 442
3 442 122 448
3 447 123 442
3 448 38 447
3 450 449 444
3 444 124 450
3 449 122 444
3 450 37 449
3 453 451 452
3 452 126 453
3 451 123 452
3 453 125 451
3 447 454 452
3 452 123 447
3 454 126 452
3 447 38 454
3 455 446 451
3 451 125 455
3 446 123 451
3 455 39 446
3 457 456 453
3 453 126 457
3 456 125 453
3 457 9 456
3 460 458 459
3 459 128 460
3 458 122 459
3 460 127 458
3 449 461 459
3 459 122 449
3 461 128 459
3 449 37 461
3 462 448 458
3 458 127 462
3 448 122 458
3 462 38 448
3 464 463 460
3 460 128 464
3 463 127 460
3 464 10 463
3 467 465 466
3 466 130 467
3 465 124 466
3 467 129 465
3 445 468 466
3 466 124 445
3 468 130 466
3 445 39 468
3 469 450 465
3 465 129 469
3 450 124 465
3 469 37 450
3 471 470 467
3 467 130 471
3 470 129 467
3 471 3 470
3 474 472 473
3 473 133 474
3 472 132 473
3 474 131 472
3 476 475 473
3 473 132 476
3 475 133 473
3 476 38 475
3 478 477 472
3 472 131 478
3 477 132 472
3 478 41 477
3 480 479 474
3 474 133 480
3 479 131 474
3 480 40 479
3 483 481 482
3 482 134 483
3 481 132 482
3 483 126 481
3 477 484 482
3 482 132 477
3 484 134 482
3 477 41 484
3 454 476 481
3 481 126 454
3 476 132 481
3 454 38 476
3 485 457 483
3 483 134 485
3 457 126 483
3 485 9 457
3 488 486 487
3 487 136 488
3 486 131 487
3 488 135 486
3 479 489 487
3 487 131 479
3 489 136 487
3 479 40 489
3 490 478 486
3 486 135 490
3 478 131 486
3 490 41 478
3 492 491 488
3 488 136 492
3 491 135 488
3 492 2 491
3 495 493 494
3 494 127 495
3 493 133 494
3 495 137 493
3 475 462 494
3 494 133 475
3 462 127 494
3 475 38 462
3 496 480 493
3 493 137 496
3 480 133 493
3 496 40 480
3 463 497 495
3 495 127 463
3 497 137 495
3 463 10 497
3 500 498 499
3 499 140 500
3 498 139 499
3 500 138 498
3 502 501 499
3 499 139 502
3 501 140 499
3 502 33 501
3 504 503 498
3 498 138 504
3 503 139 498
3 504 13 503
3 506 505 500
3 500 140 506
3 505 138 500
3 506 23 505
3 509 507 508
3 508 47 509
3 507 139 508
3 509 110 507
3 503 182 508
3 508 139 503
3 182 47 508
3 503 13 182
3 398 502 507
3 507 110 398
3 502 139 507
3 398 33 502
3 183 401 509
3 509 47 183
3 401 110 509
3 183 8 401
3 512 510 511
3 511 79 512
3 510 138 511
3 512 46 510
3 505 294 511
3 511 138 505
3 294 79 511
3 505 23 294
3 174 504 510
3 510 46 174
3 504 138 510
3 174 13 504
3 295 177 512
3 512 79 295
3 177 46 512
3 295 4 177
3 515 513 514
3 514 111 515
3 513 140 514
3 515 78 513
3 501 406 514
3 514 140 501
3 406 111 514
3 501 33 406
3 286 506 513
3 513 78 286
3 506 140 513
3 286 23 506
3 407 289 515
3 515 111 407
3 289 78 515
3 407 0 289
3 518 516 517
3 517 143 518
3 516 142 517
3 518 141 516
3 520 519 517
3 517 142 520
3 519 143 517
3 520 19 519
3 522 521 516
3 516 141 522
3 521 142 516
3 522 32 521
3 524 523 518
3 518 143 524
3 523 141 518
3 524 26 523
3 527 525 526
3 526 113 527
3 525 142 526
3 527 66 525
3 521 413 526
3 526 142 521
3 413 113 526
3 521 32 413
3 244 520 525
3 525 66 244
3 520 142 525
3 244 19 520
3 414 247 527
3 527 113 414
3 247 66 527
3 414 11 247
3 530 528 529
3 529 86 530
3 528 141 529
3 530 112 528
3 523 316 529
3 529 141 523
3 316 86 529
3 523 26 316
3 405 522 528
3 528 112 405
3 522 141 528
3 405 32 522
3 317 408 530
3 530 86 317
3 408 112 530
3 317 0 408
3 533 531 532
3 532 61 533
3 531 143 532
3 533 89 531
3 519 231 532
3 532 143 519
3 231 61 532
3 519 19 231
3 326 524 531
3 531 89 326
3 524 143 531
3 326 26 524
3 232 329 533
3 533 61 232
3 329 89 533
3 232 5 329
3 536 534 535
3 535 146 536
3 534 145 535
3 536 144 534
3 538 537 535
3 535 145 538
3 537 146 535
3 538 22 537
3 540 539 534
3 534 144 540
3 539 145 534
3 540 16 539
3 542 541 536
3 536 146 542
3 541 144 536
3 542 39 541
3 545 543 544
3 544 54 545
3 543 145 544
3 545 80 543
3 539 204 544
3 544 145 539
3 204 54 544
3 539 16 204
3 293 538 543
3 543 80 293
3 538 145 543
3 293 22 538
3 205 296 545
3 545 54 205
3 296 80 545
3 205 4 296
3 548 546 547
3 547 125 548
3 546 144 547
3 548 57 546
3 541 455 547
3 547 144 541
3 455 125 547
3 541 39 455
3 214 540 546
3 546 57 214
3 540 144 546
3 214 16 540
3 456 217 548
3 548 125 456
3 217 57 548
3 456 9 217
3 551 549 550
3 550 81 551
3 549 146 550
3 551 130 549
3 537 301 550
3 550 146 537
3 301 81 550
3 537 22 301
3 468 542 549
3 549 130 468
3 542 146 549
3 468 39 542
3 302 471 551
3 551 81 302
3 471 130 551
3 302 3 471
3 554 552 553
3 553 149 554
3 552 148 553
3 554 147 552
3 556 555 553
3 553 148 556
3 555 149 553
3 556 21 555
3 558 557 552
3 552 147 558
3 557 148 552
3 558 25 557
3 560 559 554
3 554 149 560
3 559 147 554
3 560 37 559
3 563 561 562
3 562 88 563
3 561 148 562
3 563 70 561
3 557 327 562
3 562 148 557
3 327 88 562
3 557 25 327
3 260 556 561
3 561 70 260
3 556 148 561
3 260 21 556
3 328 261 563
3 563 88 328
3 261 70 563
3 328 5 261
3 566 564 565
3 565 129 566
3 564 147 565
3 566 87 564
3 559 469 565
3 565 147 559
3 469 129 565
3 559 37 469
3 321 558 564
3 564 87 321
3 558 147 564
3 321 25 558
3 470 322 566
3 566 129 470
3 322 87 566
3 470 3 322
3 569 567 568
3 568 71 569
3 567 149 568
3 569 128 567
3 555 266 568
3 568 149 555
3 266 71 568
3 555 21 266
3 461 560 567
3 567 128 461
3 560 149 567
3 461 37 560
3 267 464 569
3 569 71 267
3 464 128 569
3 267 10 464
3 572 570 571
3 571 152 572
3 570 151 571
3 572 150 570
3 574 573 571
3 571 151 574
3 573 152 571
3 574 27 573
3 576 575 570
3 570 150 576
3 575 151 570
3 576 12 575
3 578 577 572
3 572 152 578
3 577 150 572
3 578 36 577
3 581 579 580
3 580 49 581
3 579 151 580
3 581 96 579
3 575 189 580
3 580 151 575
3 189 49 580
3 575 12 189
3 349 574 579
3 579 96 349
3 574 151 579
3 349 27 574
3 190 352 581
3 581 49 190
3 352 96 581
3 190 7 352
3 584 582 583
3 583 118 584
3 582 150 583
3 584 48 582
3 577 428 583
3 583 150 577
3 428 118 583
3 577 36 428
3 181 576 582
3 582 48 181
3 576 150 582
3 181 12 576
3 429 184 584
3 584 118 429
3 184 48 584
3 429 8 184
3 587 585 586
3 586 97 587
3 585 152 586
3 587 121 585
3 573 357 586
3 586 152 573
3 357 97 586
3 573 27 357
3 438 578 585
3 585 121 438
3 578 152 585
3 438 36 578
3 358 441 587
3 587 97 358
3 441 121 587
3 358 1 441
3 590 588 589
3 589 155 590
3 588 154 589
3 590 153 588
3 592 591 589
3 589 154 592
3 591 155 589
3 592 17 591
3 594 593 588
3 588 153 594
3 593 154 588
3 594 30 593
3 596 595 590
3 590 155 596
3 595 153 590
3 596 35 595
3 599 597 598
3 598 104 599
3 597 154 598
3 599 64 597
3 593 383 598
3 598 154 593
3 383 104 598
3 593 30 383
3 237 592 597
3 597 64 237
3 592 154 597
3 237 17 592
3 384 240 599
3 599 104 384
3 240 64 599
3 384 6 240
3 602 600 601
3 601 120 602
3 600 153 601
3 602 103 600
3 595 439 601
3 601 153 595
3 439 120 601
3 595 35 439
3 377 594 600
3 600 103 377
3 594 153 600
3 377 30 594
3 440 378 602
3 602 120 440
3 378 103 602
3 440 1 378
3 605 603 604
3 604 65 605
3 603 155 604
3 605 119 603
3 591 245 604
3 604 155 591
3 245 65 604
3 591 17 245
3 433 596 603
3 603 119 433
3 596 155 603
3 433 35 596
3 246 434 605
3 605 65 246
3 434 119 605
3 246 11 434
3 608 606 607
3 607 158 608
3 606 157 607
3 608 156 606
3 610 609 607
3 607 157 610
3 609 158 607
3 610 15 609
3 612 611 606
3 606 156 612
3 611 157 606
3 612 28 611
3 614 613 608
3 608 158 614
3 613 156 608
3 614 41 613
3 617 615 616
3 616 95 617
3 615 157 616
3 617 55 615
3 611 350 616
3 616 157 611
3 350 95 616
3 611 28 350
3 209 610 615
3 615 55 209
3 610 157 615
3 209 15 610
3 351 210 617
3 617 95 351
3 210 55 617
3 351 7 210
3 620 618 619
3 619 135 620
3 618 156 619
3 620 94 618
3 613 490 619
3 619 156 613
3 490 135 619
3 613 41 490
3 342 612 618
3 618 94 342
3 612 156 618
3 342 28 612
3 491 345 620
3 620 135 491
3 345 94 620
3 491 2 345
3 623 621 622
3 622 56 623
3 621 158 622
3 623 134 621
3 609 215 622
3 622 158 609
3 215 56 622
3 609 15 215
3 484 614 621
3 621 134 484
3 614 158 621
3 484 41 614
3 216 485 623
3 623 56 216
3 485 134 623
3 216 9 485
3 626 624 625
3 625 161 626
3 624 160 625
3 626 159 624
3 628 627 625
3 625 160 628
3 627 161 625
3 628 31 627
3 630 629 624
3 624 159 630
3 629 160 624
3 630 20 629
3 632 631 626
3 626 161 632
3 631 159 626
3 632 40 631
3 635 633 634
3 634 73 635
3 633 160 634
3 635 105 633
3 629 272 634
3 634 160 629
3 272 73 634
3 629 20 272
3 382 628 633
3 633 105 382
3 628 160 633
3 382 31 628
3 273 385 635
3 635 73 273
3 385 105 635
3 273 6 385
3 638 636 637
3 637 137 638
3 636 159 637
3 638 72 636
3 631 496 637
3 637 159 631
3 496 137 637
3 631 40 496
3 265 630 636
3 636 72 265
3 630 159 636
3 265 20 630
3 497 268 638
3 638 137 497
3 268 72 638
3 497 10 268
3 641 639 640
3 640 102 641
3 639 161 640
3 641 136 639
3 627 372 640
3 640 161 627
3 372 102 640
3 627 31 372
3 489 632 639
3 639 136 489
3 632 161 639
3 489 40 632
3 373 492 641
3 641 102 373
3 492 136 641
3 373 2 492
