# vtk DataFile Version 3.0
this file was written using fslvtkio
ASCII
DATASET POLYDATA
POINTS 1068 float
103.24 130.815 94.1925
103.099 130.986 94.6932
103.592 130.23 94.6677
103.16 129.753 94.0642
103.313 130.646 93.9308
103.334 129.6 93.8651
103.654 130.596 93.5969
103.701 129.589 93.7262
104.146 130.368 93.3469
104.201 129.638 93.6029
103.328 131.739 94.6591
103.068 131.409 95.0174
103.312 131.858 94.2097
103.749 131.736 93.7586
104.422 131.373 93.1958
104.897 130.605 93.1107
103.059 132.178 94.9413
102.685 132.339 95.2476
103.3 132.763 94.5586
103.748 132.875 94.1395
104.562 132.721 93.6614
105.307 132.005 93.2617
103.084 132.964 95.0683
103.685 133.442 94.7167
104.453 133.046 94.2888
105.2 132.643 93.7331
104.229 127.782 91.9054
103.416 127.113 92.7486
103.751 126.757 92.3386
104.46 127.183 91.9816
104.712 128.015 92.2025
104.838 127.467 92.5396
103.645 127.581 92.2572
103.21 127.545 92.7926
103.34 127.192 93.2083
104.265 128.058 92.4691
104.487 127.944 92.6451
104.958 128.16 92.7298
103.348 128.363 92.6564
102.975 127.613 93.1859
103.955 128.18 92.8999
104.359 128.449 93.3958
105.02 128.65 93.1268
103.094 129.174 94.1624
103.04 130.04 94.7534
102.843 129.05 94.4643
103.013 128.275 94.0134
103.104 128.356 93.5217
103.566 128.835 93.5713
103.92 128.668 93.527
104.487 129.113 93.6406
104.951 128.908 93.6291
102.95 130.54 95.0147
104.994 130.046 93.3712
102.717 131.199 95.2791
105.649 131.085 93.2633
102.584 131.71 95.6052
105.813 132.115 93.6233
102.961 132.994 95.4314
102.61 132.499 95.8448
103.636 133.279 95.2487
104.312 133.456 95.0268
104.844 133.14 94.7267
105.396 132.742 94.2119
103.262 133.116 95.6922
104.025 133.121 95.4332
104.568 133.017 95.1825
104.946 124.716 92.8815
104.799 125.083 94.1457
104.737 124.412 94.014
105.012 123.837 93.4051
105.318 124.66 93.3377
105.404 123.866 93.5459
105.412 124.332 93.7445
105.578 123.863 93.8257
104.415 125.227 93.4673
103.967 125.664 93.836
104.644 125.578 94.3563
105.083 125.859 92.723
105.286 125.592 93.1286
105.477 125.16 93.5711
105.475 124.299 93.9648
103.757 125.934 92.582
103.289 126.517 93.2576
104.569 126.389 92.4696
105.192 126.711 92.7978
105.559 126.233 93.2602
105.56 125.403 93.8745
103.555 126.991 93.6351
105.156 127.66 93.0583
105.796 127.285 93.2001
106.045 126.416 93.5878
103.397 127.327 93.6493
103.786 127.07 94.0358
105.318 128.369 93.2598
105.688 127.904 93.5495
106.177 127.168 93.7758
103.265 127.681 93.9542
103.258 128.186 94.4065
103.521 127.729 94.3642
105.952 128.917 93.4893
106.313 128.558 93.8246
106.487 128.073 93.837
102.752 129.596 94.8506
103.251 128.793 94.7818
105.447 129.282 93.4229
106.459 129.515 93.6932
106.868 129.132 94.0631
102.607 130.176 95.238
106.009 130.392 93.4082
107.125 130.249 93.755
107.172 129.717 93.9481
102.737 130.907 95.6531
106.484 131.727 93.6262
106.874 131.09 93.8867
102.827 131.454 96.0626
106.149 132.379 94.0015
106.615 132.091 94.1189
103.004 131.919 96.3302
105.486 132.211 94.801
105.047 132.66 94.8714
106.174 132.282 94.563
103.077 132.56 96.1846
103.81 132.36 95.7427
104.489 132.427 95.3677
105.031 125.021 94.7404
104.64 124.146 94.4145
104.707 123.549 93.887
105.433 123.274 93.6147
105.76 123.312 94.2027
103.679 125.901 94.2011
104.334 125.453 94.615
105.687 123.778 94.3979
103.575 126.553 94.1123
105.596 124.631 94.1794
105.803 125.363 94.1738
105.865 124.64 94.3642
103.485 126.563 94.2914
106.178 126.219 94.0734
106.09 125.375 94.4027
103.645 127.343 94.4298
103.42 126.947 94.5525
106.203 126.393 94.2768
106.163 125.879 94.6147
103.34 127.933 94.6727
103.367 127.406 94.7338
106.905 128.459 94.1488
106.519 127.412 94.4038
106.386 126.559 94.4851
103.017 129.304 95.2638
102.752 128.198 94.921
107.181 128.686 94.4477
106.925 127.996 94.825
102.903 129.76 95.6349
107.534 130.584 94.1549
107.679 129.897 94.3568
107.529 129.359 94.6655
102.856 130.462 95.9089
107.115 131.065 94.4221
107.487 130.444 94.6687
102.792 131.021 96.3308
107.094 131.092 94.7393
106.701 131.774 94.5652
102.571 131.505 96.628
105.036 132.215 95.0337
105.313 131.917 94.9945
106.109 131.783 94.9367
103.045 132.003 96.735
103.685 131.999 96.2649
104.186 131.803 95.6518
104.614 131.836 95.15
104.61 124.305 94.7455
104.584 123.943 94.889
104.756 123.578 94.5547
105.368 123.091 94.3503
105.609 123.132 94.8833
103.747 125.442 94.5117
104.214 124.921 94.8937
104.495 124.358 95.0332
105.751 123.865 94.8513
105.849 124.218 94.4385
105.935 124.196 94.845
103.401 125.845 94.4904
103.963 125.297 94.8706
106.287 124.633 94.7955
103.771 126.61 94.9507
106.017 125.204 94.9442
103.378 126.88 95.0443
103.48 126.714 94.9266
106.041 125.717 95.0468
103.342 127.767 95.3733
103.413 127.28 95.3061
106.863 127.183 94.8321
106.214 126.309 94.9779
102.994 128.756 95.5821
103.067 128.185 95.6669
106.7 127.516 94.9936
106.523 127.066 95.1954
102.893 129.191 95.8513
102.83 128.927 96.3215
103.017 128.711 96.1185
107.755 129.957 94.911
107.225 128.88 95.1925
106.515 127.874 95.2062
102.656 129.743 96.0012
102.62 129.37 96.5125
107.539 130.195 95.0884
107.431 129.706 95.3199
102.49 130.271 96.3343
102.49 129.878 96.901
106.757 131.611 94.987
107.118 130.715 95.1307
106.804 130.144 95.3837
102.695 130.686 96.7274
102.73 130.234 97.1969
105.834 131.44 95.5002
105.062 131.635 95.1817
106.762 131.446 95.4469
102.712 131.159 97.1015
103.554 131.04 96.7991
103.732 131.179 96.3704
104.061 131.218 95.9461
104.49 131.259 95.4581
104.81 123.176 94.727
104.86 123.349 95.113
104.62 122.398 94.9475
104.924 122.392 94.9123
105.409 122.832 94.8679
105.247 122.408 95.4484
104.551 123.832 95.1381
105.504 122.957 95.463
104.207 124.554 95.2501
104.644 124.039 95.3355
105.544 123.708 95.1677
105.933 124.084 95.2443
103.997 125.833 95.0768
103.821 124.875 95.2351
106.22 124.418 95.303
103.458 126.488 95.3158
103.851 126.304 95.9035
103.852 126.018 95.4708
106.049 125.21 95.3718
103.587 127.186 95.8234
103.486 126.678 96.3831
103.957 126.422 96.3992
106.102 125.833 95.4803
103.308 127.723 96.1723
103.405 127.759 96.7343
103.307 126.955 96.5448
106.322 126.509 95.6224
103.099 128.195 96.2655
102.96 128.378 96.59
102.96 127.752 96.7522
106.276 127.333 95.6723
102.56 128.719 96.8305
106.104 127.928 95.6996
107.01 128.829 95.5713
102.338 129.133 97.1041
106.895 129.643 95.7139
102.348 129.657 97.4607
106.334 129.781 95.8905
106.708 130.588 95.5618
102.725 129.867 97.635
105.606 131.09 96.0031
105.009 131.115 95.4728
106.225 131.007 95.8493
102.731 130.667 97.5506
103.422 130.699 97.2397
103.805 130.651 96.6912
104.063 130.651 96.3156
104.475 130.811 95.8445
104.593 122.723 95.1347
104.591 122.96 95.5585
104.698 122.391 95.49
104.58 121.67 95.1908
104.722 121.837 95.4597
105.048 121.97 95.8838
104.601 123.379 95.2981
104.415 123.602 95.482
105.276 122.734 95.9824
104.297 124.14 95.5241
105.628 123.436 95.6243
105.724 123.895 95.7122
103.777 125.477 95.6733
104.007 125.198 96.2681
103.967 124.664 95.7748
104.215 124.294 95.6666
105.932 124.546 95.7675
104.158 126.035 96.3883
103.633 125.848 96.6135
104.017 125.434 96.8768
105.903 125.197 95.8354
103.174 125.91 96.6258
105.97 125.968 95.8801
103.081 127.181 96.9673
102.914 126.26 96.7597
106.123 126.764 96.014
102.786 128.14 97.0395
102.773 127.458 97.2206
106.109 127.382 96.0938
102.775 128.409 97.3891
105.821 127.9 96.126
106.706 128.964 96.0583
102.406 128.985 97.6787
106.433 129.356 96.3048
102.431 129.268 98.0129
105.788 129.427 96.1267
106.26 130.266 96.0648
102.621 129.604 98.1775
104.895 130.796 95.8605
105.394 130.787 96.368
105.764 130.598 96.358
102.795 130.136 97.9052
103.469 130.228 97.6318
103.844 130.054 97.1418
104.031 130.163 96.732
104.345 130.332 96.4297
104.894 130.537 96.3463
104.256 121.502 95.4581
104.588 122.282 95.8334
104.245 121.393 95.7636
104.412 120.731 95.8244
104.444 121.412 95.5606
104.276 121.089 96.0321
104.985 121.528 95.7465
104.648 121.205 96.184
104.572 122.897 95.9697
105.02 121.77 96.3907
104.6 123.485 95.8565
105.336 122.37 96.4468
104.462 123.95 95.9195
104.148 123.768 96.1944
104.468 123.588 96.0998
105.518 123.168 96.1023
105.757 123.818 96.1469
103.927 124.555 96.4648
103.957 124.15 95.9428
105.774 124.557 96.2579
103.549 125.193 97.1548
103.751 124.611 96.8265
105.862 125.406 96.2866
102.922 125.61 96.9361
106.057 126.282 96.4234
102.949 126.575 97.176
102.836 126.046 97.011
106.099 127.028 96.5435
102.351 127.536 97.5655
102.595 126.779 97.4591
105.755 127.519 96.2765
102.265 128.129 98.0198
105.877 127.962 96.517
106.321 128.797 96.514
102.346 128.68 98.2554
105.9 129.029 96.5798
102.746 129.016 98.4389
105.448 129.2 96.4834
105.645 129.839 96.3402
102.966 129.369 98.4046
105.45 130.086 96.8352
105.439 130.533 96.8045
103.007 129.663 98.1015
103.48 129.838 97.7961
103.739 129.78 97.5262
103.944 129.83 97.1629
104.437 130.094 97.0011
104.872 130.309 96.8691
104.334 120.509 95.7713
104.408 121.202 96.0627
104.199 119.851 95.8505
104.431 119.84 95.904
104.341 120.29 96.0986
104.243 119.709 96.4452
104.456 121.831 96.1703
104.08 120.588 96.4571
104.87 120.878 96.742
104.33 122.35 96.3361
104.271 121.969 96.6538
104.282 121.698 96.3659
105.504 121.464 96.9518
104.238 123.078 96.3497
104.193 122.768 96.5956
105.289 122.363 96.8958
104.38 123.891 96.7504
103.938 123.203 96.8913
104.064 122.953 96.7155
105.617 123.05 96.4952
105.568 123.79 96.6486
103.73 123.898 96.7455
103.354 123.88 97.0178
103.596 123.223 96.9964
105.689 124.829 96.7066
103.125 124.718 97.3752
106.09 125.723 96.829
102.862 125.73 97.4024
102.605 125.514 97.5384
102.983 125.11 97.5965
106.142 126.565 96.9602
102.526 126.083 97.5434
102.543 126.637 97.9061
102.439 125.816 97.8311
106.105 127.175 96.9759
105.897 126.979 97.2953
105.926 127.446 97.0041
102.233 127.201 98.1314
105.844 127.539 96.6849
105.833 127.986 96.8393
102.261 127.885 98.4653
105.925 128.609 97.0568
102.406 128.583 98.7264
105.583 128.879 96.9036
102.675 129.139 98.9423
105.277 129.008 96.7592
105.319 129.477 96.6879
102.838 129.365 98.6656
102.973 129.61 98.5525
103.162 129.32 98.6536
105.206 129.672 97.0421
105.144 130.127 97.2249
103.37 129.581 98.3111
103.821 129.619 97.9092
104.108 129.756 97.7504
104.434 129.879 97.6053
104.913 130.095 97.5575
104.311 120.498 96.3432
104.424 120.312 96.8
104.403 119.668 96.519
104.123 118.863 95.9046
104.367 118.923 95.7949
104.46 118.762 96.7837
104.401 121.256 96.676
104.315 120.675 97.0176
104.422 120.028 96.9807
105.076 120.729 97.3002
103.938 121.363 96.9318
103.64 121.207 97.1137
104.122 120.785 97.0678
105.501 121.492 97.4627
103.737 122.16 96.7156
103.677 121.932 97.1329
105.444 122.415 97.2049
105.528 123.002 96.8166
105.518 123.359 97.0392
103.816 122.705 97.1172
103.464 122.872 97.3198
103.643 122.221 97.3718
105.61 124.182 97.0124
103.049 123.801 97.4932
105.809 125.051 97.1169
103.03 124.457 97.7187
105.931 125.887 97.2525
102.766 125.005 97.9546
102.92 124.638 97.8365
105.652 126.44 97.3531
102.511 126.293 98.2027
102.75 125.421 98.2272
105.576 126.872 97.5895
105.58 127.439 97.2238
102.202 126.998 98.495
105.575 127.905 97.3773
102.156 127.806 98.819
105.677 128.651 97.6677
102.586 128.444 99.0129
105.281 128.919 97.1245
105.434 128.772 97.6715
105.144 128.896 97.6793
102.737 128.876 99.0656
102.74 129.302 98.9937
102.928 129.092 99.1512
105.042 129.223 97.111
104.753 128.964 97.634
104.63 129.15 97.497
103.332 129.212 98.6485
104.636 129.601 97.6517
104.364 129.274 97.7827
104.487 129.481 97.9611
104.852 129.467 97.3349
104.395 129.106 97.6147
103.475 129.377 98.4832
103.823 129.455 98.3528
104.254 129.61 98.1236
104.667 117.847 95.3606
104.197 118.18 95.8481
104.287 117.284 95.3836
104.744 117.225 95.7163
104.703 118.09 96.0344
104.47 117.553 96.5624
104.153 119.456 96.8603
104.225 118.823 96.4655
104.469 118.427 97.3561
104.141 120.36 97.3031
104.101 119.754 97.5157
104.197 119.544 97.2299
104.82 119.6 97.4264
105.212 120.466 97.7136
103.984 120.611 97.5788
103.348 120.515 97.4702
103.832 119.878 97.6381
105.542 121.495 97.9565
103.49 121.221 97.2572
103.163 121.866 97.6445
105.345 122.615 97.4674
105.75 123.549 97.5163
102.877 122.702 97.5442
105.661 124.415 97.4379
102.791 123.293 97.8567
102.744 123.258 98.4324
102.61 122.646 97.933
105.572 125.132 97.5032
102.833 124.144 98.0116
102.691 123.984 98.6403
105.417 125.802 97.6269
102.547 124.622 98.2675
102.462 125.388 98.533
102.274 124.484 98.5688
105.418 126.314 97.6894
102.407 126.151 98.7579
105.378 126.672 97.8711
105.376 127.287 97.7488
102.278 126.971 98.9663
105.306 127.855 98.0036
102.364 127.684 99.0856
105.415 128.487 98.0687
105.179 127.99 98.4043
105.218 128.482 98.4458
102.643 128.123 99.2079
104.193 128.62 98.2456
104.192 128.623 98.9113
104.052 128.724 98.4916
104.568 128.709 98.3647
104.373 128.626 98.6782
105.028 128.775 98.1291
104.864 128.636 98.6442
102.875 128.554 99.2027
103.092 128.86 99.1684
104.19 128.921 97.9991
103.831 128.661 98.3475
104.395 128.716 97.8112
103.329 128.975 98.8151
103.657 129.262 98.6813
104.018 129.218 98.5746
103.456 128.852 98.5283
104.096 129.098 98.2467
103.573 128.751 98.4186
104.111 116.488 96.0108
103.901 116.876 96.483
104.236 115.804 96.4035
104.615 115.759 95.9136
104.573 116.649 95.653
104.998 116.216 95.9893
104.867 116.941 96.1107
104.715 116.647 96.5821
104.163 117.656 96.2421
104.139 117.765 96.9366
104.558 117.312 97.1897
104.268 118.705 97.2132
103.636 118.506 97.3309
103.767 117.975 97.2961
104.56 118.201 97.9223
103.75 119.131 97.455
103.344 119.37 97.7635
103.405 118.707 97.5494
104.831 119.342 97.8674
105.154 120.488 98.1466
103.047 120.456 97.8677
105.419 121.499 98.1993
102.792 121.23 97.9159
102.526 121.329 98.3797
102.601 120.418 98.0622
105.445 122.634 97.8569
105.579 122.43 98.2884
102.797 122.031 98.0271
102.396 122.413 98.4702
105.608 123.333 97.9287
105.358 124.239 97.7631
101.821 123.24 98.7329
105.289 125.035 97.8976
102.01 124.129 98.8497
101.959 124.7 98.8812
101.688 123.934 99.0779
105.191 125.828 97.8779
102.252 125.324 98.9712
105.287 126.29 98.0352
105.213 125.963 98.2174
105.181 126.676 98.1552
102.182 126.15 99.1719
105.164 127.184 98.2404
102.19 126.838 99.375
105.09 127.586 98.2998
102.423 127.376 99.4192
102.774 127.743 99.1653
102.784 127.577 99.5519
105.01 128.208 98.6403
104.837 127.773 98.6626
104.711 127.937 98.7174
104.948 127.493 98.547
102.814 128.106 99.3082
102.998 127.981 99.4372
104.123 128.21 99.1409
103.96 128.507 98.9501
104.513 128.291 99.0381
103.243 128.527 98.7803
103.133 128.386 99.3726
103.402 128.471 98.7097
103.399 128.125 99.0037
103.705 128.504 98.6819
103.615 128.265 98.9338
103.874 116.181 97.317
103.122 116.07 97.3728
103.476 115.4 97.1079
103.768 115.31 96.6901
103.895 116.292 96.7814
104.037 114.86 96.0007
104.763 114.837 96.0895
104.819 115.654 96.406
104.306 116.471 97.0553
103.454 116.963 97.4919
102.889 116.982 97.6246
103.615 117.17 97.0533
104.414 117.218 97.6432
103.103 117.964 97.4689
102.614 117.75 97.841
104.762 118.092 98.1672
102.99 118.63 98.0603
102.515 119.108 98.4186
102.487 118.164 98.0583
104.794 119.416 98.1555
104.919 119.208 98.5142
102.932 119.723 98.259
102.058 120.156 98.3824
105.063 120.227 98.3771
105.393 121.292 98.4488
101.881 121.427 98.7297
105.329 122.178 98.6209
101.691 122.38 99.0371
105.775 123.391 98.3094
105.373 123.143 98.641
101.381 123.276 99.4189
105.463 124.198 98.409
105.185 123.951 98.8074
101.752 124.731 99.3145
101.478 124.103 99.5469
104.965 124.69 98.4647
104.887 124.41 98.8687
104.783 125.021 98.7318
105.195 125.178 98.2231
101.945 125.421 99.4559
104.926 125.677 98.4503
104.59 125.537 98.6491
101.85 126.068 99.629
104.796 126.577 98.4745
104.567 126.287 98.7728
102.358 126.394 99.3318
104.675 127.079 98.6904
104.438 126.669 98.8225
104.342 127.006 98.9647
104.999 127.197 98.4637
102.545 126.828 99.3999
103.238 127.675 99.5515
102.896 127.036 99.5391
103.133 127.166 99.3872
104.678 127.693 99.0331
104.25 127.316 99.1377
104.345 127.706 99.0915
103.301 127.982 99.3522
103.419 127.506 99.4194
103.541 127.906 99.2996
103.886 128.072 99.1264
103.835 127.713 99.3925
104.09 127.699 99.1589
104.045 113.625 96.3502
103.578 113.785 96.6965
103.779 113.107 96.5057
104.452 112.848 96.274
104.606 113.568 96.2537
104.809 113.159 96.6603
104.513 113.866 96.9772
104.481 113.568 97.2803
103.564 114.562 96.8226
103.011 115.022 97.34
103.432 114.205 97.2002
103.857 114.388 96.2729
104.291 114.009 95.9379
104.584 114.299 96.7208
104.229 114.44 97.4641
102.653 115.912 97.8009
104.442 115.36 97.0805
104.445 116.304 97.7106
102.494 117.038 97.9581
104.869 117.251 98.2029
102.394 117.756 98.1647
102.257 118.357 98.512
102.134 117.512 98.3413
104.807 118.389 98.634
101.871 119.459 98.7046
104.719 119.54 98.9733
101.402 120.529 98.8849
104.925 120.477 98.6636
104.953 121.48 98.7594
101.065 121.39 99.2441
104.999 122.26 98.8544
101.219 122.3 99.6272
104.966 123.152 98.9514
101.29 123.087 99.9551
104.919 123.897 99.0481
101.728 124.74 99.7224
101.382 123.841 99.9806
104.844 124.09 99.1815
104.798 124.605 99.3378
101.715 125.432 99.9449
101.7 124.703 100.163
104.37 125.535 99.0199
102.214 125.944 99.6072
102.029 125.712 100.19
104.29 126.199 99.0439
104.081 125.78 99.2058
104.082 126.192 99.3785
102.466 126.346 99.4241
102.421 126.089 99.7586
103.773 126.679 99.339
103.55 126.343 99.6004
103.446 126.669 99.4925
103.962 126.629 99.0344
103.75 126.283 99.5221
102.656 126.647 99.4217
103.312 127.145 99.3799
102.998 126.757 99.3656
103.953 127.257 99.6339
103.217 126.814 99.5497
104.143 127.162 99.3416
103.029 105 95.992
102.613 105.294 95.9186
102.48 104.798 95.7115
103.008 104.499 95.8121
103.256 104.792 96.0508
102.895 104.597 96.1783
103.216 105.694 95.7881
102.747 106.174 95.8066
103.413 105.3 96.0451
103.213 104.846 96.3807
103.219 106.157 96.0566
103.215 105.674 96.4555
103.569 112.356 96.9907
102.989 112.988 97.3324
103.144 111.976 97.1274
103.689 111.536 96.8033
103.935 112.285 96.5248
104.47 111.366 96.5285
104.492 112.097 96.6845
104.336 111.83 97.4135
103.288 113.404 96.9587
102.706 114.2 97.5896
104.612 112.681 97.1345
104.345 113.856 97.7975
102.429 115.213 97.8954
104.382 114.733 98.4021
102.202 115.965 98.0607
101.807 116.407 98.3861
102.089 115.727 98.2141
104.236 115.404 97.8695
104.48 116.605 98.462
102.205 116.651 98.2056
101.644 117.56 98.6253
104.734 117.686 98.7022
101.736 118.773 98.8874
104.626 118.656 99.0845
101.146 119.816 99.0494
104.29 119.409 99.3624
100.648 120.651 99.4334
104.71 120.532 98.9864
104.411 120.309 99.3593
100.889 121.475 99.8983
104.724 121.277 99.1992
104.291 121.438 99.5117
101.249 122.332 100.14
104.396 122.222 99.1205
104.061 122.608 99.4047
101.39 123.192 100.405
104.733 123.337 99.3129
104.378 123.409 99.676
101.779 124.001 100.294
104.348 124.125 99.5147
103.899 123.684 99.7584
103.817 124.258 99.7716
102.138 124.804 100.25
103.452 125.275 99.9636
103.105 124.73 100.114
103.195 125.319 100.157
103.7 124.808 99.6126
103.231 124.348 99.933
104.279 125.131 99.4869
102.332 125.45 100.317
102.707 126.025 100.364
103.141 125.942 100.377
102.683 125.508 100.441
103.392 125.82 100.155
103.073 125.421 100.353
103.404 125.986 99.6681
103.774 125.734 99.501
102.793 126.363 99.5518
102.955 126.332 99.6241
103.215 126.253 99.7619
102.162 104.431 95.6498
101.264 104.643 95.9377
101.184 103.624 95.8069
101.898 103.218 95.4582
102.242 104.332 95.611
101.957 103.591 95.8355
102.002 105.138 95.9616
101.518 105.179 96.3024
102.661 104.152 95.9254
102.431 104.561 96.4406
102.102 106.005 96.178
101.429 105.831 96.5348
102.773 104.793 96.7872
102.217 106.619 96.4505
101.813 106.304 96.9456
102.873 106.774 96.1443
103.41 106.442 96.4708
102.942 105.555 96.8493
102.387 107.053 96.8375
101.851 107.026 97.2511
103.028 107.219 96.3112
103.821 107.19 96.2439
103.188 106.255 97.1109
103.613 106.928 97.1439
103.057 106.669 97.5238
102.278 107.766 97.0471
101.57 107.87 97.4042
102.872 108.013 96.3469
103.805 107.93 96.1573
103.918 107.68 97.1604
102.868 107.458 97.8165
102.319 108.342 97.161
102.917 108.763 96.734
102.455 109.188 97.3609
103.863 108.918 96.3121
104.232 108.476 97.0207
103.087 108.318 97.9628
103.001 109.826 97.0516
102.376 110.209 97.5364
103.724 109.724 96.6311
104.834 109.343 96.4976
103.393 109.359 97.9442
102.583 110.94 97.4338
103.223 110.881 97.0222
102.268 112.12 97.4553
104.153 110.426 96.5247
103.752 110.253 97.7175
104.643 110.522 96.8247
103.771 111.275 97.9246
102.125 113.347 97.7283
103.897 112.35 98.1533
102.077 114.329 97.822
101.222 114.825 98.0854
101.304 114.125 98.1119
104.431 112.947 97.8661
104.286 113.99 98.4086
102.069 114.96 98.1015
101.382 115.751 98.3923
104.022 114.94 98.7954
101.027 116.917 98.6242
104.227 115.907 98.5315
103.973 116.033 99.0615
100.787 117.992 98.8374
104.252 116.641 98.9054
104.437 117.672 99.0958
100.848 118.999 99.2645
104.13 118.531 99.4007
100.71 119.843 99.645
104.007 119.234 99.6437
103.964 118.533 99.7819
103.587 119.159 99.8766
100.692 120.677 100.089
103.759 119.933 99.6214
103.328 120.204 99.8907
100.884 121.559 100.558
103.641 120.872 99.6292
103.319 121.189 99.8355
101.467 122.529 100.55
103.559 121.898 99.8413
103.15 121.645 99.9255
103.176 122.266 100.012
103.674 121.99 99.5286
101.815 123.35 100.542
103.394 122.727 99.9256
103.193 122.985 100.083
103.686 122.893 99.7598
102.204 124.018 100.234
103.514 123.665 100.026
103.147 123.71 100.079
102.298 124.43 100.454
102.397 124.958 100.498
102.735 125.022 100.444
102.488 124.56 100.501
102.903 124.988 100.261
102.868 124.423 100.426
103.12 123.99 100.278
100.743 104.456 96.3408
100.784 103.364 96.2608
101.459 102.709 96.0611
101.769 103.078 96.3093
100.808 104.962 96.71
102.053 103.883 96.2565
102.355 104.11 96.8902
101.066 105.674 96.946
102.854 104.778 97.1026
101.274 106.12 97.2384
102.438 105.449 97.3857
101.059 106.854 97.5644
102.895 106.055 97.4548
102.61 106.772 97.9665
100.999 107.649 97.755
102.422 107.747 98.2679
101.8 108.559 97.4473
100.913 108.56 97.6962
102.471 108.819 98.4917
101.621 109.191 97.5896
101.474 110.112 97.8435
102.575 109.846 98.5581
101.419 111.274 97.9243
101.276 112.335 98.3106
103.029 110.896 98.4867
103.263 111.996 98.5433
101.198 113.395 98.5335
103.541 112.875 98.5873
101.112 115.128 98.4945
101.036 114.441 98.7182
104.02 113.36 98.4176
103.61 114.335 98.6942
100.899 116.228 98.7597
103.582 115.316 99.1567
100.71 117.368 99.0644
103.466 116.094 99.4946
100.729 118.3 99.4205
103.905 116.928 99.2674
103.745 116.939 99.718
100.491 119.142 99.8949
104 117.76 99.6002
103.505 118.044 99.8811
100.553 119.88 100.398
103.158 119.111 100.039
100.749 120.801 100.754
102.806 120.102 99.8708
102.776 119.578 100.191
102.597 120.151 100.139
101.077 121.413 100.992
101.589 122.029 100.755
102.219 121.792 100.588
101.712 121.354 101.081
102.491 121.323 100.517
102.158 121.057 100.803
102.849 120.866 100.253
102.425 120.517 100.397
103.177 120.986 99.9778
102.037 122.775 100.629
102.349 122.439 100.587
102.651 122.171 100.449
102.906 121.592 100.22
102.215 123.595 100.743
102.394 123.138 100.76
102.693 122.846 100.518
102.866 122.426 100.181
102.4 124.153 100.408
102.603 123.961 100.596
102.781 123.666 100.479
103.042 123.21 100.33
100.546 103.914 96.6519
101.103 102.986 96.5641
100.7 104.366 97.0801
100.945 103.578 97.0455
101.674 103.532 96.8636
100.732 105.146 97.2563
100.878 104.37 97.63
101.27 103.863 97.4852
102.027 104.006 97.3244
102.512 104.507 97.4725
100.841 105.947 97.5869
102.278 105.34 97.8663
100.609 106.834 97.9732
102.283 106.096 97.9055
102.221 106.924 98.3664
100.444 107.983 98.185
101.947 108.215 98.6889
100.701 108.803 98.2036
102.07 109.33 98.9993
100.932 109.4 97.9981
100.915 109.905 98.4688
102.608 110.545 99.1357
100.98 110.773 98.4514
101.348 112.474 99.3037
100.852 111.344 99.0454
102.588 111.993 99.3177
101.817 111.121 99.9
102.777 112.073 98.7501
101.143 113.6 99.3163
102.022 113.435 99.4756
102.8 112.925 98.923
100.984 115.623 98.8659
100.955 115.235 99.1533
101.259 114.407 99.5291
102.094 114.231 99.7346
102.333 114.851 99.9247
102.651 114.028 99.3269
103.432 113.641 98.8887
100.639 116.862 99.2182
103.102 114.907 99.8456
102.284 115.737 100.062
103.513 114.539 99.3561
100.452 117.643 99.6562
102.576 116.091 99.9207
102.383 116.457 100.537
103.157 115.57 99.6019
100.688 118.319 99.9403
102.699 117.075 100.347
102.077 117.508 100.597
103.183 116.522 99.9811
100.639 119.11 100.383
102.277 118.203 100.396
101.985 118.36 100.754
103.025 117.517 100.133
100.961 119.466 100.549
101.063 120.109 100.797
101.703 119.719 100.63
101.116 119.312 101.028
102.353 119.14 100.805
101.625 118.913 100.926
102.339 118.972 100.415
102.854 118.661 100.34
101.109 120.901 101.161
101.739 120.509 101.083
102.192 120.041 100.65
102.507 119.673 100.442
101.117 105.262 97.7383
101.357 104.301 98.0601
102.043 104.138 97.8404
100.773 106.133 98.3327
101.302 105.429 98.3227
101.971 104.913 98.0703
100.694 107.473 98.4855
101.03 106.547 98.8946
101.859 105.964 98.8111
101.997 105.937 98.3368
100.426 108.488 98.8097
100.764 107.939 99.2536
101.49 107.334 99.3075
101.93 107.148 98.8425
100.58 109.302 98.6695
100.713 109.21 99.3752
101.436 108.686 99.8096
101.862 108.308 99.3458
100.691 110.215 99.131
101.099 110.233 99.8518
101.929 109.724 99.6521
100.835 116.248 99.3295
101.118 115.587 99.5468
101.737 114.914 100.009
100.8 116.985 99.6665
100.835 116.366 100.073
101.587 115.675 100.106
100.778 117.597 100.116
101.009 117.077 100.437
101.514 116.446 100.366
100.811 118.258 100.439
101.125 117.669 100.691
101.637 117.175 100.741
100.699 118.886 100.789
101.14 118.478 100.724
101.634 118.063 100.751
POLYGONS 2132  8528
3 0 1 2
3 0 3 4
3 2 3 0
3 4 5 6
3 3 5 4
3 6 7 8
3 5 7 6
3 7 9 8
3 10 1 0
3 11 1 10
3 4 12 0
3 12 10 0
3 6 13 4
3 13 12 4
3 8 14 6
3 14 13 6
3 15 8 9
3 14 8 15
3 16 11 10
3 17 11 16
3 12 18 10
3 18 16 10
3 13 19 12
3 19 18 12
3 14 20 13
3 20 19 13
3 21 14 15
3 20 14 21
3 16 22 17
3 18 22 16
3 23 22 18
3 19 23 18
3 24 23 19
3 20 24 19
3 25 24 20
3 21 25 20
3 26 27 28
3 26 29 30
3 28 29 26
3 29 31 30
3 32 33 34
3 27 32 34
3 27 26 32
3 26 35 32
3 30 36 26
3 36 35 26
3 37 30 31
3 36 30 37
3 38 33 32
3 39 33 38
3 35 40 32
3 40 38 32
3 36 41 35
3 41 40 35
3 42 36 37
3 41 36 42
3 43 44 45
3 43 46 47
3 45 46 43
3 39 47 46
3 39 38 47
3 38 48 47
3 40 49 38
3 49 48 38
3 50 41 51
3 50 49 41
3 49 40 41
3 42 51 41
3 2 44 43
3 2 1 44
3 1 52 44
3 3 2 43
3 47 3 43
3 5 3 47
3 48 5 47
3 7 5 48
3 49 7 48
3 49 9 7
3 49 50 9
3 50 53 9
3 1 11 52
3 52 11 54
3 9 53 15
3 53 55 15
3 11 17 54
3 54 17 56
3 15 55 21
3 55 57 21
3 58 17 22
3 58 59 17
3 59 56 17
3 22 23 60
3 58 22 60
3 23 24 61
3 60 23 61
3 62 61 24
3 62 24 63
3 63 24 25
3 57 25 21
3 63 25 57
3 58 64 59
3 60 64 58
3 65 64 60
3 61 65 60
3 66 65 61
3 62 66 61
3 67 68 69
3 67 70 71
3 69 70 67
3 71 72 73
3 70 72 71
3 72 74 73
3 75 76 77
3 68 75 77
3 68 67 75
3 67 78 75
3 71 79 67
3 79 78 67
3 73 80 71
3 80 79 71
3 81 73 74
3 80 73 81
3 82 76 75
3 83 76 82
3 78 84 75
3 84 82 75
3 79 85 78
3 85 84 78
3 80 86 79
3 86 85 79
3 87 80 81
3 86 80 87
3 28 83 82
3 28 27 83
3 27 88 83
3 29 28 82
3 84 29 82
3 31 29 84
3 31 84 89
3 89 84 85
3 86 90 85
3 90 89 85
3 91 86 87
3 90 86 91
3 34 92 93
3 33 92 34
3 88 27 34
3 93 88 34
3 89 94 37
3 31 89 37
3 90 95 89
3 95 94 89
3 96 90 91
3 95 90 96
3 97 98 99
3 97 99 92
3 97 92 39
3 39 92 33
3 94 100 42
3 37 94 42
3 101 95 102
3 101 100 95
3 100 94 95
3 96 102 95
3 45 103 104
3 44 103 45
3 98 97 46
3 98 46 104
3 104 46 45
3 39 46 97
3 51 105 50
3 51 42 100
3 51 100 105
3 105 100 106
3 107 100 101
3 106 100 107
3 44 52 103
3 103 52 108
3 105 109 53
3 50 105 53
3 110 106 111
3 110 109 106
3 109 105 106
3 107 111 106
3 52 54 108
3 108 54 112
3 109 113 55
3 53 109 55
3 114 109 110
3 113 109 114
3 54 56 112
3 112 56 115
3 113 116 57
3 55 113 57
3 117 113 114
3 116 113 117
3 56 59 115
3 115 59 118
3 63 119 120
3 62 63 120
3 116 63 57
3 116 121 63
3 121 119 63
3 117 121 116
3 59 122 118
3 64 122 59
3 65 123 64
3 64 123 122
3 66 124 65
3 65 124 123
3 120 66 62
3 124 66 120
3 69 125 126
3 68 125 69
3 70 69 127
3 69 126 127
3 72 70 128
3 70 127 128
3 128 74 72
3 129 74 128
3 77 130 131
3 76 130 77
3 125 68 77
3 131 125 77
3 74 129 81
3 129 132 81
3 76 83 130
3 130 83 133
3 134 135 87
3 134 87 132
3 132 87 81
3 134 136 135
3 83 88 133
3 133 88 137
3 135 138 91
3 87 135 91
3 139 135 136
3 138 135 139
3 93 140 141
3 92 140 93
3 137 88 93
3 141 137 93
3 138 142 96
3 91 138 96
3 143 138 139
3 142 138 143
3 99 144 145
3 98 144 99
3 140 92 99
3 145 140 99
3 102 146 101
3 102 147 146
3 96 147 102
3 96 148 147
3 96 142 148
3 143 148 142
3 104 149 150
3 103 149 104
3 144 98 104
3 150 144 104
3 146 151 107
3 101 146 107
3 152 146 147
3 151 146 152
3 103 108 149
3 149 108 153
3 111 154 110
3 111 155 154
3 107 155 111
3 107 156 155
3 107 151 156
3 152 156 151
3 108 112 153
3 153 112 157
3 154 158 114
3 110 154 114
3 159 154 155
3 158 154 159
3 112 115 157
3 157 115 160
3 158 161 162
3 158 162 114
3 114 162 117
3 159 161 158
3 115 118 160
3 160 118 163
3 119 164 120
3 165 164 119
3 165 119 166
3 166 119 121
3 162 121 117
3 166 121 162
3 118 167 163
3 122 167 118
3 123 168 122
3 122 168 167
3 124 169 123
3 123 169 168
3 164 124 120
3 164 170 124
3 170 169 124
3 165 170 164
3 126 125 171
3 172 126 171
3 172 173 126
3 173 127 126
3 128 127 174
3 127 173 174
3 174 129 128
3 175 129 174
3 131 130 176
3 131 176 177
3 125 131 177
3 125 177 178
3 125 178 171
3 172 171 178
3 179 180 132
3 179 132 175
3 175 132 129
3 179 181 180
3 176 182 183
3 176 130 182
3 130 133 182
3 177 176 183
3 132 180 134
3 180 136 134
3 180 181 136
3 181 184 136
3 133 137 182
3 182 137 185
3 136 184 139
3 184 186 139
3 141 187 188
3 140 187 141
3 185 137 141
3 188 185 141
3 139 186 143
3 186 189 143
3 145 190 191
3 144 190 145
3 187 140 145
3 191 187 145
3 148 192 147
3 148 193 192
3 148 143 193
3 143 189 193
3 150 194 195
3 149 194 150
3 190 144 150
3 195 190 150
3 192 196 152
3 147 192 152
3 197 192 193
3 196 192 197
3 198 199 200
3 198 200 194
3 198 194 153
3 153 194 149
3 156 201 155
3 156 202 201
3 152 202 156
3 152 203 202
3 152 196 203
3 197 203 196
3 204 199 198
3 205 199 204
3 153 157 204
3 198 153 204
3 201 206 159
3 155 201 159
3 207 201 202
3 206 201 207
3 208 205 204
3 209 205 208
3 157 160 208
3 204 157 208
3 161 210 162
3 161 211 210
3 159 211 161
3 159 212 211
3 159 206 212
3 207 212 206
3 213 209 208
3 214 209 213
3 160 163 213
3 208 160 213
3 166 215 216
3 165 166 216
3 210 166 162
3 210 217 166
3 217 215 166
3 211 217 210
3 213 218 214
3 163 218 213
3 163 167 218
3 167 219 218
3 168 220 167
3 167 220 219
3 169 221 168
3 168 221 220
3 170 222 169
3 169 222 221
3 216 170 165
3 222 170 216
3 223 224 225
3 223 226 227
3 225 226 223
3 226 228 227
3 173 224 223
3 173 172 224
3 172 229 224
3 174 173 223
3 227 174 223
3 227 175 174
3 227 228 175
3 228 230 175
3 178 231 232
3 177 231 178
3 229 172 178
3 232 229 178
3 175 230 233
3 179 175 233
3 233 181 179
3 234 181 233
3 183 235 236
3 182 235 183
3 231 177 183
3 236 231 183
3 181 234 184
3 234 237 184
3 238 239 240
3 238 240 235
3 238 235 185
3 185 235 182
3 184 237 186
3 237 241 186
3 242 243 244
3 239 242 244
3 238 242 239
3 238 187 242
3 238 188 187
3 185 188 238
3 186 241 189
3 241 245 189
3 246 247 248
3 243 246 248
3 242 246 243
3 242 190 246
3 242 191 190
3 187 191 242
3 189 245 193
3 245 249 193
3 250 251 252
3 247 250 252
3 246 250 247
3 246 194 250
3 246 195 194
3 190 195 246
3 193 249 197
3 249 253 197
3 200 251 250
3 200 199 251
3 199 254 251
3 194 200 250
3 203 255 256
3 202 203 256
3 253 203 197
3 255 203 253
3 199 205 254
3 254 205 257
3 202 256 207
3 256 258 207
3 205 209 257
3 257 209 259
3 212 260 261
3 211 212 261
3 258 212 207
3 260 212 258
3 209 214 259
3 259 214 262
3 215 263 264
3 216 215 264
3 217 265 215
3 215 265 263
3 261 217 211
3 265 217 261
3 214 266 262
3 218 266 214
3 219 267 218
3 218 267 266
3 220 268 219
3 219 268 267
3 221 269 220
3 220 269 268
3 222 270 221
3 221 270 269
3 264 222 216
3 270 222 264
3 271 272 273
3 271 225 224
3 271 273 225
3 273 274 225
3 226 225 275
3 225 274 275
3 275 228 226
3 276 228 275
3 277 272 271
3 278 272 277
3 224 229 277
3 271 224 277
3 228 276 230
3 276 279 230
3 232 278 277
3 232 231 278
3 231 280 278
3 229 232 277
3 230 279 281
3 233 230 281
3 281 234 233
3 282 234 281
3 283 284 285
3 283 236 235
3 283 285 236
3 285 286 236
3 280 231 236
3 286 280 236
3 234 282 237
3 282 287 237
3 288 289 290
3 284 288 290
3 283 288 284
3 283 239 288
3 283 240 239
3 235 240 283
3 237 287 241
3 287 291 241
3 244 289 288
3 244 243 289
3 243 292 289
3 239 244 288
3 241 291 245
3 291 293 245
3 248 294 295
3 247 294 248
3 292 243 248
3 295 292 248
3 245 293 249
3 293 296 249
3 252 297 298
3 251 297 252
3 294 247 252
3 298 294 252
3 249 296 253
3 296 299 253
3 251 254 297
3 297 254 300
3 255 301 302
3 256 255 302
3 299 255 253
3 301 255 299
3 254 257 300
3 300 257 303
3 256 302 258
3 302 304 258
3 257 259 303
3 303 259 305
3 260 306 307
3 261 260 307
3 304 260 258
3 306 260 304
3 259 262 305
3 305 262 308
3 263 309 264
3 310 309 263
3 310 263 311
3 311 263 265
3 307 265 261
3 311 265 307
3 262 312 308
3 266 312 262
3 267 313 266
3 266 313 312
3 268 314 267
3 267 314 313
3 269 315 268
3 268 315 314
3 270 316 269
3 269 316 315
3 309 270 264
3 309 317 270
3 317 316 270
3 310 317 309
3 318 319 320
3 318 321 322
3 320 321 318
3 322 323 324
3 321 323 322
3 323 325 324
3 273 319 318
3 273 272 319
3 272 326 319
3 274 273 318
3 322 274 318
3 275 274 322
3 324 275 322
3 324 276 275
3 324 325 276
3 325 327 276
3 272 278 326
3 326 278 328
3 276 327 279
3 327 329 279
3 330 331 332
3 330 332 328
3 330 328 280
3 280 328 278
3 279 329 333
3 281 279 333
3 333 282 281
3 334 282 333
3 285 335 336
3 284 335 285
3 331 330 286
3 331 286 336
3 336 286 285
3 280 286 330
3 282 334 287
3 334 337 287
3 290 338 339
3 289 338 290
3 335 284 290
3 339 335 290
3 287 337 291
3 337 340 291
3 289 292 338
3 338 292 341
3 291 340 293
3 340 342 293
3 295 343 344
3 294 343 295
3 341 292 295
3 344 341 295
3 293 342 296
3 342 345 296
3 298 346 347
3 297 346 298
3 343 294 298
3 347 343 298
3 296 345 299
3 345 348 299
3 297 300 346
3 346 300 349
3 301 350 351
3 302 301 351
3 348 301 299
3 350 301 348
3 300 303 349
3 349 303 352
3 302 351 304
3 351 353 304
3 303 305 352
3 352 305 354
3 306 355 356
3 307 306 356
3 353 306 304
3 355 306 353
3 305 308 354
3 354 308 357
3 311 358 359
3 310 311 359
3 356 311 307
3 358 311 356
3 308 360 357
3 312 360 308
3 313 361 312
3 312 361 360
3 314 362 313
3 313 362 361
3 315 363 314
3 314 363 362
3 316 364 315
3 315 364 363
3 317 365 316
3 316 365 364
3 359 317 310
3 365 317 359
3 366 367 368
3 366 369 370
3 368 369 366
3 369 371 370
3 320 367 366
3 320 319 367
3 319 372 367
3 321 320 366
3 370 321 366
3 370 371 373
3 370 373 321
3 321 373 323
3 373 325 323
3 374 325 373
3 375 376 377
3 375 377 372
3 375 372 326
3 326 372 319
3 325 374 327
3 374 378 327
3 379 376 375
3 380 376 379
3 326 328 379
3 375 326 379
3 327 378 329
3 378 381 329
3 382 383 384
3 380 382 384
3 379 382 380
3 379 331 382
3 379 332 331
3 328 332 379
3 329 381 385
3 333 329 385
3 385 334 333
3 386 334 385
3 387 388 389
3 383 387 389
3 382 387 383
3 382 335 387
3 382 336 335
3 331 336 382
3 334 386 337
3 386 390 337
3 339 388 387
3 339 338 388
3 338 391 388
3 335 339 387
3 337 390 340
3 390 392 340
3 393 394 395
3 393 395 391
3 393 391 341
3 341 391 338
3 340 392 342
3 392 396 342
3 397 398 399
3 394 397 399
3 393 397 394
3 393 343 397
3 393 344 343
3 341 344 393
3 400 401 402
3 400 396 401
3 400 345 396
3 345 342 396
3 347 398 397
3 347 346 398
3 346 403 398
3 343 347 397
3 404 400 402
3 405 404 402
3 345 404 348
3 400 404 345
3 346 349 403
3 403 349 406
3 350 404 405
3 350 405 351
3 351 405 407
3 348 404 350
3 349 352 406
3 406 352 408
3 351 407 353
3 407 409 353
3 352 354 408
3 408 354 410
3 355 411 412
3 356 355 412
3 409 355 353
3 411 355 409
3 413 357 414
3 413 410 357
3 410 354 357
3 413 414 415
3 358 416 417
3 359 358 417
3 412 358 356
3 416 358 412
3 357 360 414
3 414 418 415
3 414 360 418
3 360 361 418
3 362 419 361
3 361 419 418
3 363 420 362
3 362 420 419
3 364 421 363
3 363 421 420
3 365 422 364
3 364 422 421
3 417 365 359
3 422 365 417
3 423 424 425
3 423 368 367
3 423 425 368
3 425 426 368
3 369 368 427
3 368 426 427
3 427 371 369
3 428 371 427
3 429 424 423
3 430 424 429
3 367 372 429
3 423 367 429
3 371 428 431
3 373 371 431
3 431 374 373
3 432 374 431
3 433 434 435
3 430 433 435
3 429 433 430
3 429 376 433
3 429 377 376
3 372 377 429
3 374 432 378
3 432 436 378
3 437 434 433
3 438 434 437
3 376 380 437
3 433 376 437
3 439 440 381
3 439 381 436
3 436 381 378
3 439 441 440
3 442 443 444
3 438 442 444
3 437 442 438
3 437 383 442
3 437 384 383
3 380 384 437
3 381 440 385
3 440 386 385
3 440 441 386
3 441 445 386
3 389 443 442
3 389 388 443
3 388 446 443
3 383 389 442
3 386 445 390
3 445 447 390
3 388 391 446
3 446 391 448
3 390 447 392
3 447 449 392
3 395 450 451
3 394 450 395
3 448 391 395
3 451 448 395
3 392 449 396
3 449 452 396
3 399 453 454
3 398 453 399
3 450 394 399
3 454 450 399
3 401 455 456
3 402 401 456
3 452 401 396
3 455 401 452
3 398 403 453
3 453 403 457
3 402 456 405
3 456 458 405
3 403 406 457
3 457 406 459
3 405 458 407
3 458 460 407
3 406 408 459
3 459 408 461
3 462 463 464
3 462 460 463
3 462 409 460
3 409 407 460
3 465 410 466
3 465 461 410
3 461 408 410
3 465 466 467
3 468 469 470
3 464 469 468
3 462 464 468
3 462 468 412
3 462 412 411
3 409 462 411
3 410 413 466
3 466 413 415
3 466 415 467
3 467 415 471
3 472 473 474
3 472 475 476
3 473 472 476
3 470 476 475
3 468 470 475
3 468 475 417
3 468 417 416
3 412 468 416
3 415 477 471
3 418 477 415
3 419 478 418
3 418 478 477
3 420 479 419
3 419 479 478
3 474 421 472
3 474 479 421
3 479 420 421
3 422 472 421
3 475 472 422
3 417 475 422
3 480 481 482
3 480 483 484
3 482 483 480
3 483 485 484
3 425 486 487
3 424 486 425
3 481 480 426
3 481 426 487
3 487 426 425
3 427 426 480
3 484 427 480
3 484 428 427
3 484 485 428
3 485 488 428
3 489 490 491
3 489 491 486
3 489 486 430
3 430 486 424
3 428 488 492
3 431 428 492
3 492 432 431
3 493 432 492
3 494 495 496
3 490 494 496
3 489 494 490
3 489 434 494
3 489 435 434
3 430 435 489
3 432 493 436
3 493 497 436
3 498 495 494
3 499 495 498
3 434 438 498
3 494 434 498
3 436 497 500
3 439 436 500
3 500 441 439
3 501 441 500
3 444 499 498
3 444 443 499
3 443 502 499
3 438 444 498
3 441 501 445
3 501 503 445
3 504 505 506
3 504 506 502
3 504 502 446
3 446 502 443
3 445 503 447
3 503 507 447
3 508 505 504
3 509 505 508
3 446 448 508
3 504 446 508
3 447 507 449
3 507 510 449
3 511 512 513
3 509 511 513
3 508 511 509
3 508 450 511
3 508 451 450
3 448 451 508
3 449 510 452
3 510 514 452
3 454 512 511
3 454 453 512
3 453 515 512
3 450 454 511
3 455 516 517
3 456 455 517
3 514 455 452
3 516 455 514
3 453 457 515
3 515 457 518
3 456 517 458
3 517 519 458
3 457 459 518
3 518 459 520
3 521 522 523
3 521 519 522
3 521 460 519
3 460 458 519
3 459 461 520
3 520 461 524
3 525 526 527
3 525 528 529
3 526 525 529
3 528 530 531
3 529 528 531
3 523 531 530
3 521 523 530
3 521 530 464
3 521 464 463
3 460 521 463
3 461 532 524
3 465 532 461
3 532 465 467
3 533 532 467
3 534 525 527
3 535 534 527
3 528 525 536
3 536 525 534
3 469 536 470
3 469 530 536
3 530 528 536
3 464 530 469
3 537 471 538
3 537 533 471
3 533 467 471
3 538 539 540
3 537 538 540
3 539 541 542
3 540 539 542
3 535 542 541
3 534 535 541
3 534 541 474
3 534 474 473
3 476 534 473
3 536 534 476
3 470 536 476
3 471 477 538
3 478 538 477
3 539 538 478
3 479 539 478
3 541 539 479
3 474 541 479
3 543 544 545
3 543 546 547
3 545 546 543
3 547 548 549
3 546 548 547
3 548 550 549
3 551 544 543
3 552 544 551
3 482 481 551
3 482 551 547
3 547 551 543
3 483 482 547
3 549 483 547
3 549 485 483
3 549 550 485
3 550 553 485
3 554 555 556
3 552 554 556
3 551 554 552
3 551 486 554
3 551 487 486
3 481 487 551
3 485 553 488
3 553 557 488
3 558 559 560
3 555 558 560
3 554 558 555
3 554 490 558
3 554 491 490
3 486 491 554
3 488 557 561
3 492 488 561
3 561 493 492
3 562 493 561
3 496 559 558
3 496 495 559
3 495 563 559
3 490 496 558
3 493 562 497
3 562 564 497
3 565 566 567
3 565 567 563
3 565 563 499
3 499 563 495
3 568 500 497
3 568 497 569
3 569 497 564
3 500 568 501
3 570 566 565
3 571 566 570
3 499 502 570
3 565 499 570
3 568 569 572
3 572 501 568
3 572 573 501
3 573 503 501
3 506 571 570
3 506 505 571
3 505 574 571
3 502 506 570
3 503 573 507
3 573 575 507
3 576 577 578
3 576 578 574
3 576 574 509
3 509 574 505
3 507 575 510
3 575 579 510
3 513 577 576
3 513 512 577
3 512 580 577
3 509 513 576
3 581 582 583
3 581 579 582
3 581 514 579
3 514 510 579
3 512 515 580
3 580 515 584
3 516 581 583
3 516 583 517
3 517 583 585
3 514 581 516
3 515 518 584
3 584 518 586
3 517 585 519
3 585 587 519
3 588 520 589
3 588 586 520
3 586 518 520
3 588 589 590
3 591 592 593
3 591 523 522
3 591 522 592
3 592 522 594
3 587 522 519
3 594 522 587
3 589 524 595
3 520 524 589
3 596 590 589
3 595 596 589
3 526 597 598
3 527 526 598
3 529 599 526
3 526 599 597
3 593 531 591
3 593 599 531
3 599 529 531
3 523 591 531
3 524 532 595
3 533 600 601
3 532 533 601
3 532 601 596
3 532 596 595
3 600 602 603
3 601 600 603
3 602 604 605
3 603 602 605
3 604 598 605
3 604 535 598
3 535 527 598
3 533 537 600
3 540 600 537
3 602 600 540
3 542 602 540
3 604 602 542
3 535 604 542
3 606 607 608
3 606 609 610
3 608 609 606
3 610 545 544
3 610 609 545
3 609 611 545
3 546 545 612
3 545 611 612
3 548 546 613
3 546 612 613
3 613 550 548
3 614 550 613
3 615 607 606
3 616 607 615
3 610 617 606
3 617 615 606
3 544 552 617
3 610 544 617
3 550 614 553
3 614 618 553
3 619 616 615
3 620 616 619
3 556 555 619
3 556 619 617
3 617 619 615
3 552 556 617
3 553 618 557
3 618 621 557
3 622 623 624
3 620 622 624
3 619 622 620
3 619 559 622
3 619 560 559
3 555 560 619
3 625 561 557
3 625 557 626
3 626 557 621
3 561 625 562
3 627 623 622
3 628 623 627
3 559 563 627
3 622 559 627
3 625 626 629
3 629 562 625
3 629 630 562
3 630 564 562
3 567 628 627
3 567 566 628
3 566 631 628
3 563 567 627
3 564 630 569
3 630 632 569
3 566 571 631
3 631 571 633
3 634 572 569
3 634 569 635
3 635 569 632
3 572 634 573
3 571 574 633
3 633 574 636
3 637 634 635
3 638 637 635
3 573 637 575
3 634 637 573
3 578 639 640
3 577 639 578
3 636 574 578
3 640 636 578
3 641 642 643
3 638 642 641
3 638 641 637
3 637 641 644
3 575 644 579
3 637 644 575
3 577 580 639
3 639 580 645
3 646 641 643
3 647 646 643
3 582 646 583
3 582 644 646
3 644 641 646
3 579 644 582
3 580 584 645
3 645 584 648
3 649 646 647
3 650 649 647
3 583 649 585
3 646 649 583
3 584 586 648
3 648 586 651
3 652 653 654
3 650 653 652
3 650 652 649
3 649 652 655
3 585 655 587
3 649 655 585
3 586 656 651
3 588 656 586
3 590 657 658
3 590 658 588
3 588 658 656
3 658 657 659
3 660 661 662
3 654 661 660
3 652 654 660
3 652 660 593
3 652 593 592
3 594 652 592
3 655 652 594
3 587 655 594
3 657 596 663
3 590 596 657
3 664 659 657
3 664 657 665
3 665 657 663
3 665 666 667
3 664 665 667
3 666 598 597
3 666 597 667
3 667 597 668
3 662 599 660
3 662 668 599
3 668 597 599
3 593 660 599
3 596 601 663
3 603 663 601
3 665 663 603
3 605 665 603
3 666 665 605
3 598 666 605
3 669 670 671
3 669 672 673
3 671 672 669
3 673 674 675
3 672 674 673
3 674 676 675
3 677 678 679
3 670 677 679
3 670 669 677
3 669 680 677
3 673 681 669
3 681 680 669
3 675 682 673
3 682 681 673
3 683 675 676
3 682 675 683
3 608 678 677
3 608 607 678
3 607 684 678
3 609 608 677
3 680 609 677
3 611 609 680
3 681 611 680
3 612 611 681
3 682 612 681
3 682 683 685
3 682 685 612
3 612 685 613
3 685 614 613
3 686 614 685
3 607 616 684
3 684 616 687
3 614 686 618
3 686 688 618
3 689 690 691
3 689 691 687
3 689 687 620
3 620 687 616
3 618 688 621
3 688 692 621
3 624 690 689
3 624 623 690
3 623 693 690
3 620 624 689
3 621 692 626
3 692 694 626
3 623 628 693
3 693 628 695
3 626 694 696
3 629 626 696
3 696 630 629
3 697 630 696
3 628 631 695
3 695 631 698
3 630 697 632
3 697 699 632
3 631 633 698
3 698 633 700
3 632 699 635
3 699 701 635
3 633 636 700
3 700 636 702
3 635 701 638
3 701 703 638
3 640 639 704
3 640 704 705
3 640 705 636
3 636 705 702
3 642 706 707
3 643 642 707
3 703 642 638
3 706 642 703
3 704 645 708
3 639 645 704
3 709 705 704
3 708 709 704
3 643 707 647
3 707 710 647
3 708 648 711
3 645 648 708
3 712 709 708
3 711 712 708
3 713 714 715
3 713 710 714
3 713 650 710
3 650 647 710
3 711 651 716
3 648 651 711
3 717 712 711
3 716 717 711
3 718 719 720
3 718 721 722
3 719 718 722
3 715 722 721
3 713 715 721
3 713 721 654
3 713 654 653
3 650 713 653
3 651 656 716
3 716 723 717
3 716 656 723
3 656 658 723
3 659 724 725
3 659 725 658
3 658 725 723
3 724 726 727
3 725 724 727
3 720 727 726
3 720 726 718
3 718 726 728
3 661 728 662
3 661 721 728
3 721 718 728
3 654 721 661
3 659 664 724
3 667 724 664
3 726 724 667
3 668 726 667
3 728 726 668
3 662 728 668
3 729 730 731
3 729 732 733
3 731 732 729
3 732 734 733
3 735 730 729
3 736 730 735
3 733 737 729
3 737 735 729
3 738 733 734
3 737 733 738
3 735 739 736
3 737 739 735
3 740 739 737
3 738 740 737
3 741 742 743
3 741 744 745
3 743 744 741
3 745 746 747
3 744 746 745
3 746 748 747
3 749 742 741
3 750 742 749
3 671 670 749
3 671 749 745
3 745 749 741
3 672 671 745
3 747 672 745
3 747 748 751
3 747 751 672
3 672 751 674
3 751 676 674
3 752 676 751
3 679 750 749
3 679 678 750
3 678 753 750
3 670 679 749
3 676 752 683
3 752 754 683
3 755 756 757
3 755 757 753
3 755 753 684
3 684 753 678
3 683 754 758
3 685 683 758
3 758 686 685
3 759 686 758
3 760 756 755
3 761 756 760
3 684 687 760
3 755 684 760
3 686 759 688
3 759 762 688
3 691 761 760
3 691 690 761
3 690 763 761
3 687 691 760
3 688 762 692
3 762 764 692
3 690 693 763
3 763 693 765
3 692 764 694
3 764 766 694
3 693 695 765
3 765 695 767
3 768 696 694
3 768 694 769
3 769 694 766
3 696 768 697
3 695 698 767
3 767 698 770
3 771 768 769
3 772 771 769
3 697 771 699
3 768 771 697
3 698 700 770
3 770 700 773
3 774 771 772
3 775 774 772
3 699 774 701
3 771 774 699
3 700 702 773
3 773 702 776
3 777 774 775
3 778 777 775
3 701 777 703
3 774 777 701
3 702 705 776
3 776 705 779
3 780 781 782
3 778 781 780
3 777 778 780
3 777 780 707
3 777 707 706
3 703 777 706
3 705 709 779
3 779 709 783
3 784 785 786
3 784 787 788
3 785 784 788
3 782 788 787
3 782 787 780
3 780 787 789
3 707 789 710
3 780 789 707
3 790 712 791
3 790 783 712
3 783 709 712
3 791 792 793
3 790 791 793
3 792 794 795
3 793 792 795
3 786 795 794
3 786 794 784
3 784 794 796
3 787 784 797
3 797 784 796
3 714 797 715
3 714 789 797
3 789 787 797
3 710 789 714
3 791 717 798
3 712 717 791
3 792 791 799
3 799 791 798
3 794 792 800
3 800 792 799
3 719 800 720
3 719 796 800
3 796 794 800
3 722 796 719
3 797 796 722
3 715 797 722
3 717 723 798
3 725 798 723
3 799 798 725
3 727 799 725
3 800 799 727
3 720 800 727
3 801 802 803
3 801 804 805
3 803 804 801
3 804 806 805
3 807 802 801
3 808 802 807
3 731 730 807
3 731 807 805
3 805 807 801
3 805 806 809
3 805 809 731
3 731 809 732
3 809 734 732
3 810 734 809
3 811 808 807
3 812 808 811
3 730 736 811
3 807 730 811
3 734 810 738
3 810 813 738
3 814 812 811
3 815 812 814
3 736 739 816
3 736 816 811
3 811 816 814
3 739 740 817
3 816 739 817
3 740 818 817
3 740 738 818
3 738 813 818
3 819 815 814
3 820 815 819
3 816 821 814
3 821 819 814
3 817 822 816
3 822 821 816
3 823 817 818
3 823 824 817
3 824 822 817
3 823 825 824
3 826 820 819
3 827 820 826
3 821 828 819
3 828 826 819
3 822 829 821
3 829 828 821
3 824 830 822
3 830 829 822
3 831 824 825
3 830 824 831
3 826 832 827
3 832 833 834
3 832 826 833
3 826 828 833
3 829 835 828
3 835 833 828
3 830 836 829
3 836 835 829
3 837 830 831
3 836 830 837
3 838 834 833
3 839 834 838
3 835 840 833
3 840 838 833
3 836 841 835
3 841 840 835
3 842 836 837
3 841 836 842
3 838 843 839
3 843 844 845
3 843 838 844
3 838 840 844
3 841 846 840
3 846 844 840
3 847 841 842
3 847 848 841
3 848 846 841
3 847 849 848
3 743 845 844
3 743 742 845
3 742 850 845
3 744 743 844
3 846 744 844
3 746 744 846
3 848 746 846
3 848 748 746
3 848 849 748
3 849 851 748
3 852 853 854
3 852 854 850
3 852 850 750
3 750 850 742
3 748 851 855
3 751 748 855
3 855 752 751
3 856 752 855
3 857 853 852
3 858 853 857
3 750 753 857
3 852 750 857
3 752 856 754
3 856 859 754
3 757 858 857
3 757 756 858
3 756 860 858
3 753 757 857
3 861 758 754
3 861 754 862
3 862 754 859
3 758 861 759
3 756 761 860
3 860 761 863
3 861 862 864
3 864 759 861
3 864 865 759
3 865 762 759
3 761 763 863
3 863 763 866
3 762 865 764
3 865 867 764
3 763 765 866
3 866 765 868
3 869 870 871
3 869 867 870
3 869 766 867
3 766 764 867
3 765 767 868
3 868 767 872
3 873 869 871
3 874 873 871
3 766 873 769
3 869 873 766
3 767 770 872
3 872 770 875
3 876 873 874
3 877 876 874
3 769 876 772
3 873 876 769
3 770 773 875
3 875 773 878
3 879 880 881
3 877 880 879
3 877 879 876
3 876 879 882
3 772 882 775
3 876 882 772
3 773 776 878
3 878 776 883
3 884 879 881
3 885 884 881
3 882 879 886
3 886 879 884
3 775 886 778
3 882 886 775
3 776 779 883
3 883 779 887
3 888 884 885
3 889 888 885
3 781 888 782
3 781 886 888
3 886 884 888
3 778 886 781
3 890 783 891
3 890 887 783
3 887 779 783
3 891 892 893
3 890 891 893
3 892 894 895
3 893 892 895
3 894 786 785
3 894 785 895
3 895 785 896
3 889 788 888
3 889 896 788
3 896 785 788
3 782 888 788
3 783 790 891
3 793 891 790
3 892 891 793
3 795 892 793
3 894 892 795
3 786 894 795
3 803 897 898
3 802 897 803
3 804 803 899
3 803 898 899
3 899 806 804
3 900 806 899
3 802 808 897
3 897 808 901
3 806 900 902
3 809 806 902
3 902 810 809
3 903 810 902
3 808 812 901
3 901 812 904
3 810 903 813
3 903 905 813
3 812 815 904
3 904 815 906
3 813 905 818
3 905 907 818
3 815 820 906
3 906 820 908
3 818 907 909
3 823 818 909
3 909 825 823
3 910 825 909
3 820 827 908
3 908 827 911
3 825 910 831
3 910 912 831
3 913 827 832
3 913 914 827
3 914 911 827
3 832 834 913
3 831 912 837
3 912 915 837
3 913 916 914
3 916 913 834
3 916 834 917
3 917 834 839
3 837 915 842
3 915 918 842
3 839 919 917
3 843 919 839
3 919 843 845
3 920 919 845
3 842 918 921
3 847 842 921
3 921 849 847
3 922 849 921
3 845 850 920
3 920 850 923
3 849 922 851
3 922 924 851
3 854 925 926
3 853 925 854
3 923 850 854
3 926 923 854
3 851 924 927
3 855 851 927
3 927 856 855
3 928 856 927
3 853 858 925
3 925 858 929
3 856 928 859
3 928 930 859
3 858 860 929
3 929 860 931
3 859 930 862
3 930 932 862
3 860 863 931
3 931 863 933
3 934 864 862
3 934 862 935
3 935 862 932
3 864 934 865
3 863 866 933
3 933 866 936
3 937 934 935
3 938 937 935
3 865 937 867
3 934 937 865
3 866 868 936
3 936 868 939
3 870 937 938
3 870 938 871
3 871 938 940
3 867 937 870
3 868 872 939
3 939 872 941
3 942 943 944
3 942 940 943
3 942 874 940
3 874 871 940
3 945 875 946
3 945 941 875
3 941 872 875
3 946 947 948
3 945 946 948
3 947 949 950
3 948 947 950
3 949 951 952
3 950 949 952
3 944 952 951
3 944 951 942
3 942 951 953
3 874 953 877
3 942 953 874
3 946 878 954
3 875 878 946
3 947 946 955
3 955 946 954
3 949 947 956
3 956 947 955
3 951 949 957
3 957 949 956
3 880 957 881
3 880 953 957
3 953 951 957
3 877 953 880
3 954 883 958
3 878 883 954
3 955 954 959
3 959 954 958
3 956 955 960
3 960 955 959
3 957 956 961
3 961 956 960
3 881 961 885
3 957 961 881
3 958 887 962
3 883 887 958
3 959 958 963
3 963 958 962
3 960 959 964
3 964 959 963
3 961 960 965
3 965 960 964
3 885 965 889
3 961 965 885
3 887 890 962
3 893 962 890
3 963 962 893
3 895 963 893
3 964 963 895
3 896 964 895
3 965 964 896
3 889 965 896
3 898 897 966
3 898 967 899
3 966 967 898
3 899 967 900
3 966 901 968
3 897 901 966
3 967 966 969
3 969 966 968
3 900 970 902
3 900 967 970
3 967 969 970
3 902 970 903
3 968 971 972
3 968 901 971
3 901 904 971
3 969 968 972
3 973 969 972
3 970 969 973
3 974 970 973
3 974 903 970
3 974 975 903
3 975 905 903
3 904 906 971
3 971 906 976
3 905 975 907
3 975 977 907
3 906 908 976
3 976 908 978
3 907 977 979
3 909 907 979
3 979 910 909
3 980 910 979
3 908 911 978
3 978 911 981
3 910 980 912
3 980 982 912
3 911 914 981
3 981 914 983
3 912 982 915
3 982 984 915
3 914 985 983
3 916 985 914
3 985 916 917
3 986 985 917
3 915 984 918
3 984 987 918
3 917 988 986
3 919 988 917
3 920 989 990
3 920 990 919
3 919 990 988
3 989 991 992
3 990 989 992
3 921 991 993
3 921 987 991
3 921 918 987
3 992 991 987
3 921 993 922
3 989 923 994
3 920 923 989
3 991 989 995
3 995 989 994
3 993 991 996
3 996 991 995
3 922 996 924
3 993 996 922
3 926 997 998
3 925 997 926
3 994 923 926
3 994 926 999
3 999 926 998
3 995 994 999
3 1000 995 999
3 1000 1001 1002
3 1000 1002 995
3 995 1002 996
3 924 1003 927
3 924 996 1003
3 996 1002 1003
3 927 1003 928
3 925 929 997
3 997 929 1004
3 1005 1002 1001
3 1006 1005 1001
3 1003 1002 1007
3 1007 1002 1005
3 928 1007 930
3 1003 1007 928
3 929 931 1004
3 1004 931 1008
3 1009 1005 1006
3 1010 1009 1006
3 1007 1005 1011
3 1011 1005 1009
3 930 1011 932
3 1007 1011 930
3 931 933 1008
3 1008 933 1012
3 1013 1009 1010
3 1014 1013 1010
3 1011 1009 1015
3 1015 1009 1013
3 932 1015 935
3 1011 1015 932
3 933 936 1012
3 1012 936 1016
3 1017 1013 1014
3 1018 1017 1014
3 1015 1013 1019
3 1019 1013 1017
3 935 1019 938
3 1015 1019 935
3 1020 939 1021
3 1020 1016 939
3 1016 936 939
3 1021 1022 1023
3 1020 1021 1023
3 1022 1024 1025
3 1023 1022 1025
3 1018 1025 1024
3 1018 1024 1017
3 1017 1024 1026
3 1019 1017 1027
3 1027 1017 1026
3 938 1027 940
3 1019 1027 938
3 1021 941 1028
3 939 941 1021
3 1022 1021 1029
3 1029 1021 1028
3 1024 1022 1030
3 1030 1022 1029
3 1026 1024 1031
3 1031 1024 1030
3 943 1031 944
3 943 1027 1031
3 1027 1026 1031
3 940 1027 943
3 941 945 1028
3 948 1028 945
3 1029 1028 948
3 950 1029 948
3 1030 1029 950
3 952 1030 950
3 1031 1030 952
3 944 1031 952
3 972 971 1032
3 972 1033 973
3 1032 1033 972
3 973 1034 974
3 1033 1034 973
3 974 1034 975
3 1032 976 1035
3 971 976 1032
3 1033 1032 1036
3 1036 1032 1035
3 1034 1033 1037
3 1037 1033 1036
3 975 1037 977
3 1034 1037 975
3 1035 978 1038
3 976 978 1035
3 1036 1035 1039
3 1039 1035 1038
3 1037 1036 1040
3 1040 1036 1039
3 977 1041 979
3 977 1037 1041
3 1037 1040 1041
3 979 1041 980
3 1038 981 1042
3 978 981 1038
3 1039 1038 1043
3 1043 1038 1042
3 1040 1039 1044
3 1044 1039 1043
3 1041 1040 1045
3 1045 1040 1044
3 980 1045 982
3 1041 1045 980
3 1042 983 1046
3 981 983 1042
3 1043 1042 1047
3 1047 1042 1046
3 1044 1043 1048
3 1048 1043 1047
3 1045 1044 1049
3 1049 1044 1048
3 982 1049 984
3 1045 1049 982
3 983 985 1046
3 986 1046 985
3 986 1050 1046
3 1050 1047 1046
3 1048 1047 1051
3 1051 1047 1050
3 1049 1048 1052
3 1052 1048 1051
3 984 1052 987
3 1049 1052 984
3 986 988 1050
3 990 1050 988
3 1051 1050 990
3 992 1051 990
3 1052 1051 992
3 987 1052 992
3 998 997 1053
3 998 1054 999
3 1053 1054 998
3 999 1055 1000
3 1054 1055 999
3 1000 1055 1001
3 1053 1004 1056
3 997 1004 1053
3 1054 1053 1057
3 1057 1053 1056
3 1055 1054 1058
3 1058 1054 1057
3 1001 1058 1006
3 1055 1058 1001
3 1056 1008 1059
3 1004 1008 1056
3 1057 1056 1060
3 1060 1056 1059
3 1058 1057 1061
3 1061 1057 1060
3 1006 1061 1010
3 1058 1061 1006
3 1059 1012 1062
3 1008 1012 1059
3 1060 1059 1063
3 1063 1059 1062
3 1061 1060 1064
3 1064 1060 1063
3 1010 1064 1014
3 1061 1064 1010
3 1062 1016 1065
3 1012 1016 1062
3 1063 1062 1066
3 1066 1062 1065
3 1064 1063 1067
3 1067 1063 1066
3 1014 1067 1018
3 1064 1067 1014
3 1016 1020 1065
3 1023 1065 1020
3 1066 1065 1023
3 1025 1066 1023
3 1067 1066 1025
3 1018 1067 1025
