# vtk DataFile Version 3.0
this file was written using fslvtkio
ASCII
DATASET POLYDATA
POINTS 1068 float
84.6876 155.51 66.2063
83.7643 155.793 67.153
84.4207 155.096 67.4571
85.1682 154.903 66.9473
85.7025 155.13 65.6535
85.9561 154.62 66.5082
86.8772 154.996 65.4893
86.9523 154.74 66.568
87.7705 155.194 65.8484
87.9564 154.908 66.8049
84.1264 156.71 66.3792
83.3746 156.655 67.6539
85.1298 156.572 65.4761
86.3309 156.351 65.009
87.6346 156.133 65.2482
88.4575 155.905 65.9951
83.5735 157.631 66.9076
83.106 157.602 67.9918
84.6646 157.675 66.1339
85.849 157.594 65.5757
87.1691 157.416 65.4155
88.222 157.016 65.9762
83.9728 158.502 67.0315
85.3726 158.395 66.6173
86.603 158.083 66.5482
87.7881 158.017 66.2642
87.5227 151.021 68.6591
86.4749 150.472 69.2873
87.4294 149.872 69.5891
88.3367 149.862 69.3695
88.5376 151.226 68.7861
89.1532 150.538 69.5027
86.6565 151.835 68.5134
85.9253 152.391 68.7325
85.8772 151.311 69.5295
87.3914 152.766 68.5656
88.1864 152.695 68.677
89.2194 152.06 69.0618
86.1557 153.51 67.847
85.2933 153.024 68.6128
86.989 153.599 68.1025
87.916 154.173 68.1289
88.7385 153.579 68.899
84.5562 154.142 68.0727
83.9809 155.087 68.3199
84.3408 154.449 69.1993
84.7827 153.715 69.0297
85.266 153.9 67.7515
86.2365 154.486 67.4463
87.2096 154.633 67.4773
88.1261 155.036 67.7903
88.7012 154.689 68.5553
83.188 155.826 68.5112
88.7027 155.512 67.05
82.869 156.648 68.8778
88.907 156.591 66.7786
82.494 157.493 69.2156
88.4482 157.712 66.8947
83.2957 158.728 68.0145
82.6614 158.561 68.9964
84.4318 158.905 67.7391
85.6208 158.559 67.7855
86.4494 158.352 67.7449
87.4494 158.374 67.5621
83.6536 159.234 68.71
84.8689 158.967 68.7082
85.6528 158.695 68.6619
89.8608 147.662 71.5635
89.024 148.149 72.0786
89.511 147.725 72.8323
90.003 146.936 72.6378
90.685 147.849 71.919
90.8932 146.947 72.4411
91.4295 147.906 72.2199
91.6893 147.066 72.8725
88.8593 148.347 70.8766
87.7353 148.913 70.9199
88.2891 148.777 71.8335
89.8462 148.806 70.6441
90.557 149.055 71.1011
91.25 149.046 71.69
92.1177 148.342 72.5187
87.8637 148.931 70.1576
86.7284 149.77 70.2803
89.0747 149.146 70.1354
90.0526 150.22 70.463
90.9622 150.335 70.994
91.877 149.747 71.7911
86.2219 150.67 70.3884
89.9866 151.219 69.8062
90.9565 151.64 70.2991
91.7568 151.076 71.0543
85.6438 152.332 69.8624
85.8939 151.439 70.724
89.64 153.004 69.4007
90.5406 152.721 69.8334
91.7734 152.452 70.8571
85.3372 153.225 69.7058
84.7113 153.76 70.1409
85.0522 152.908 70.7038
89.6592 154.373 69.0982
90.605 153.902 69.8668
91.4528 153.299 70.4323
83.5085 155.024 69.5225
84.3139 154.55 70.2896
89.0419 155.277 68.1231
89.6498 155.318 68.8127
90.4253 154.828 69.7569
83.0336 155.67 69.9094
89.3064 156.088 67.7752
89.708 155.934 68.7934
90.1255 155.463 69.5296
82.762 156.692 70.2339
89.2102 157.136 67.5263
89.7069 156.811 68.4201
82.5321 158.106 70.0496
88.5817 158.121 67.7796
89.0509 157.624 68.4044
82.7886 159.261 70.0713
87.4036 158.483 68.8945
86.3363 158.425 68.5805
88.3138 158.295 68.6734
83.3274 159.679 69.4794
84.4601 159.443 69.5574
85.3219 159.123 69.4841
88.5359 148.297 73.084
89.303 147.156 73.7329
89.8817 146.324 73.5607
90.812 146.126 73.2231
91.5606 147.089 73.5989
87.2677 149.536 71.4728
87.8672 149.072 72.5971
92.1402 148.419 73.2561
86.6661 150.166 71.2981
92.2039 149.411 72.6487
92.2347 150.389 72.0908
92.4086 149.967 73.2736
86.1663 150.754 71.6442
92.2116 151.425 71.8111
92.5587 150.874 72.8047
85.4657 152.155 71.1462
85.6676 151.543 71.8427
92.2828 152.032 71.9781
92.3686 151.748 72.9786
84.6396 153.663 71.2489
84.7727 152.647 71.9239
91.6261 154.171 70.5373
92.0511 153.439 71.2755
92.2096 152.577 72.2082
83.5728 154.867 70.8105
84.3261 154.372 71.5939
91.429 154.859 70.6974
91.8357 154.516 71.6504
83.171 155.631 71.1528
89.9882 156.24 69.6765
90.6019 155.568 70.319
91.2593 155.317 70.9522
82.7194 157.135 71.0259
89.6553 157.103 69.3973
90.242 156.589 70.5596
82.5823 158.311 70.9953
89.4592 157.21 70.0261
89.0479 157.737 69.1507
82.7274 159.222 71.0533
86.2933 158.711 69.3389
87.3012 158.86 69.6945
88.0784 158.38 69.8816
83.281 160.086 70.5989
84.1651 159.952 70.4024
85.1023 159.625 70.3131
86.1213 159.191 70.079
88.8522 147.933 73.941
89.0714 147.158 74.578
89.79 146.411 74.4617
90.687 146.304 74.2301
91.5925 147.542 74.5377
87.2506 149.546 72.6775
87.6793 148.848 73.5933
88.2532 148.355 74.3287
92.0592 148.491 74.2071
92.1784 149.196 73.5048
92.0493 149.506 74.3687
86.6008 150.103 72.4646
87.0299 149.787 73.5491
92.267 150.282 74.2146
86.0947 150.973 72.7708
92.2743 151.095 74.0464
85.2454 152.157 72.5036
85.7425 151.553 72.5833
92.1642 151.895 74.0245
84.5554 153.324 72.5481
85.0197 152.733 72.786
92.0925 153.453 72.3009
92.0841 152.628 73.2988
83.7573 154.847 72.142
84.1133 153.99 72.5151
91.8335 154.098 72.5751
91.904 153.62 73.2952
83.2041 155.573 72.0053
82.7419 155.905 72.853
83.4273 155.154 72.8564
90.8496 155.942 71.1256
91.4284 155.241 71.9234
91.763 154.773 72.8653
82.771 156.552 71.7464
82.3673 156.759 72.7761
90.6375 156.65 71.3306
90.9423 156.213 71.9217
82.4246 157.68 71.8324
82.2743 157.629 72.8243
88.8578 157.71 70.0909
89.6568 157.293 70.8663
90.1483 157.193 71.7429
82.6255 158.674 71.9157
82.4848 158.606 72.7697
88.0246 158.687 70.99
87.2229 159.086 70.4111
88.6013 157.997 70.7723
82.9973 159.688 71.6899
83.7483 159.862 71.6986
84.213 159.864 71.3501
85.1338 159.744 71.1095
86.1398 159.429 70.8996
90.115 146.391 75.3942
89.2191 146.79 75.5318
89.755 146.59 76.4244
90.5111 146.73 76.0798
90.8345 146.79 75.1697
90.9038 147.397 75.9326
88.7672 147.689 75.1068
91.3577 148.008 75.8512
87.4614 149.217 74.4664
88.1113 148.468 75.1786
91.8545 148.541 75.1646
91.8581 149.55 75.3187
86.4987 150.377 73.6219
86.8397 149.935 74.6805
92.1355 150.436 75.3016
85.5524 151.707 73.3286
85.6316 151.788 74.2271
86.0859 151.061 73.9481
92.0607 151.377 75.0957
85.0492 152.918 73.5522
84.6743 152.907 74.5115
85.3873 152.385 74.6999
92.0817 152.437 74.6868
84.3055 153.759 73.465
83.7642 153.969 74.3482
84.0931 153.18 74.9056
91.8197 153.202 74.3111
83.8331 154.46 73.3148
83.0194 155.149 73.7665
83.1005 154.307 74.4857
91.6734 154.178 73.9135
82.6359 155.975 73.9548
91.2636 155.112 73.6297
91.2464 155.636 72.695
82.2728 156.766 73.984
90.6568 156.698 72.5306
82.2963 157.666 73.8606
90.0458 157.536 72.4614
89.4941 157.852 71.4252
82.4725 158.54 73.8358
87.899 158.778 71.7951
87.1307 159.244 71.2168
88.6875 158.263 71.5863
82.748 159.333 72.7376
83.6107 159.664 72.5407
84.4141 159.754 72.3472
85.1882 159.648 71.9889
86.1288 159.548 71.7486
89.1097 147.125 76.3786
88.2595 147.648 76.8718
88.7935 146.747 77.19
89.7723 146.328 77.1995
90.5572 146.957 76.7932
91.0375 147.346 77.387
88.5406 147.86 75.9947
87.8633 148.489 75.9786
91.1917 148.05 77.2455
87.3161 149.127 75.4219
91.7581 148.68 76.2855
91.7216 149.697 76.3261
86.1366 150.805 74.7662
85.9555 150.939 75.9646
86.5364 150.247 75.7473
86.7434 149.326 75.9639
91.7543 150.705 76.2293
85.6124 151.441 75.208
85.0003 152.046 75.8262
85.4291 151.479 76.6188
91.8438 151.732 75.9085
84.4757 152.445 76.0818
91.5911 152.697 75.5167
83.5682 153.751 75.3593
83.8909 152.969 76.0676
91.452 153.691 75.0812
82.9519 155.18 74.8777
83.0993 154.364 75.6356
91.2899 154.575 74.6401
82.8582 155.978 75.1115
91.0669 155.665 74.2486
90.8607 155.989 73.3418
82.427 156.728 75.0928
90.2739 156.697 73.2667
82.458 157.595 74.977
89.9074 157.708 73.2661
89.396 158.166 72.3349
82.5916 158.401 74.8147
87.0485 159.268 71.8918
87.7326 158.852 72.4462
88.5154 158.672 72.4435
82.9407 159.115 73.7579
83.6341 159.444 73.4458
84.4729 159.407 73.2677
85.3366 159.512 72.9256
86.254 159.604 72.6777
86.9318 159.334 72.5294
89.3298 145.843 77.9185
88.3287 146.572 78.0242
88.8098 145.253 78.69
89.95 144.91 78.8275
90.1945 146.028 77.8037
90.6009 145.744 78.7571
90.7798 146.641 77.8933
90.8663 146.591 78.8828
87.7757 147.652 77.5473
90.8579 147.32 78.8432
87.461 148.447 76.8733
91.0551 148.173 78.4449
87.1193 148.968 76.5191
86.5945 149.086 77.3139
87.0631 148.643 77.2097
91.4854 148.908 77.3049
91.5655 149.959 77.3351
85.7411 150.311 77.0186
86.2402 149.574 76.7919
91.5674 151.036 77.0687
84.8584 151.78 77.3646
85.0761 150.796 77.5494
91.5312 152.124 76.6714
83.9601 152.115 77.1571
91.4009 153.186 76.276
83.2911 153.424 76.4257
83.5843 152.699 76.7362
91.1729 154.172 75.8273
82.496 154.97 76.0966
82.6711 154.031 76.5955
91.1856 155.186 75.1187
82.4711 155.912 76.233
90.8927 155.898 74.9935
90.6102 156.345 74.2387
82.3016 156.852 76.1629
90.0695 156.855 74.1454
82.4267 157.651 76.0241
89.5313 157.538 74.0266
89.1763 158.254 73.1351
82.6461 158.531 75.6384
88.4159 158.609 73.4575
87.7797 158.979 73.1038
83.0689 159.266 74.5697
83.7623 159.56 74.3204
84.6145 159.386 74.0723
85.5011 159.564 73.8576
86.3158 159.509 73.6971
87.0544 159.411 73.3521
89.3497 144.357 79.4438
88.2817 145.239 79.2764
88.7605 143.843 80.332
89.7901 143.739 80.2901
90.2792 144.379 79.8657
90.6607 144.28 80.9884
87.9775 146.512 78.8986
90.7242 145.457 79.8419
90.8963 146.409 80.1556
87.4986 147.533 78.4906
86.6885 147.251 79.1909
87.524 146.859 79.1861
90.8931 147.362 80.0635
87.0125 148.446 77.9073
86.3298 148.323 78.535
90.8772 148.296 79.3931
86.0683 149.43 77.8561
85.5575 149.137 78.8211
85.9948 148.684 78.7008
91.4213 149.093 78.2536
91.5016 150.291 78.293
85.3659 150.033 78.1192
84.2619 150.641 78.5141
84.781 149.733 78.9439
91.3615 151.511 77.8029
83.6268 151.332 78.2363
91.3492 152.64 77.4026
83.3075 152.457 77.413
82.7349 152.709 78.09
83.068 151.992 78.3006
91.2094 153.707 77.0168
82.8306 153.385 77.2864
82.4337 154.359 77.3185
82.4398 153.4 78.226
91.0419 154.443 76.4545
90.7971 154.5 77.2087
90.728 155.379 76.3745
82.3328 155.173 77.2855
90.9797 155.296 75.7524
90.5246 156.191 75.5298
82.1942 156.151 77.233
90.1726 156.653 75.2263
82.2479 157.116 77.0921
89.685 157.106 74.9383
82.4971 157.981 76.7768
89.2785 157.56 74.6324
88.996 158.03 74.0454
82.9165 158.727 76.0524
83.1599 159.376 75.319
83.6286 159.226 76.001
88.3565 158.336 74.1033
87.7764 159.032 73.8641
83.9166 159.76 75.0791
84.8373 159.808 74.8909
85.5879 159.693 74.6367
86.3896 159.598 74.5451
87.0086 159.332 74.1333
88.056 144.918 80.1388
87.5773 145.261 80.9313
88.0753 144.354 81.0748
88.7748 143.233 81.1342
89.8832 143.361 81.2285
90.667 144.282 82.245
87.5441 146.246 79.8903
87.082 146.168 80.9188
90.8129 145.409 81.1026
90.718 146.604 81.1608
86.5782 147.002 80.1804
85.7173 147.192 80.6229
86.6303 146.809 80.9002
90.8371 147.734 81.0331
85.9222 147.988 79.5262
85.2671 148.134 80.308
90.9133 148.697 80.0111
91.1266 149.319 78.9572
91.1102 149.834 79.4989
85.038 148.83 79.5621
84.1381 149.905 79.7024
84.5359 148.794 80.3387
91.2917 150.833 78.8856
83.5228 150.557 79.4636
91.3142 152.046 78.4611
83.112 151.185 79.1999
91.1143 152.977 78.1203
82.5218 152.224 79.1771
82.8491 151.631 79.2957
90.8954 153.813 77.9747
82.2408 154.377 78.3986
82.218 153.201 79.1625
90.5583 154.88 77.7991
90.3824 155.67 76.7512
82.0791 155.412 78.3153
90.0944 156.351 76.4361
82.0819 156.459 78.1692
89.6156 156.854 75.9677
82.5404 157.342 77.9026
89.1945 157.548 75.1063
89.3316 157.243 75.9384
89.0842 157.793 75.8515
82.944 157.934 77.4348
83.1998 158.478 76.6307
83.6084 158.42 77.061
88.5483 158.072 74.7359
88.5667 158.088 75.8824
88.0588 158.337 75.3395
84.1784 159.131 76.7442
87.1771 159.038 74.8937
87.1748 159.058 75.599
86.6031 159.356 75.3306
87.8162 158.624 74.6264
87.5967 158.709 75.6201
84.3154 159.548 75.8914
85.0658 159.801 75.6544
85.9216 159.834 75.3855
89.1892 142.408 81.9049
88.0406 142.841 81.9641
87.9251 142.19 82.6239
89.0539 142.267 82.8663
90.1407 143.014 82.3929
89.9641 143.381 83.3281
87.0376 144.85 81.917
87.4712 143.682 81.8612
90.3106 144.65 83.2244
86.4728 146.304 81.4587
85.732 145.971 82.2602
86.4532 145.374 82.1152
90.7754 145.548 82.1952
90.6451 146.867 82.12
85.3842 146.96 81.499
84.3907 147.609 81.93
84.8955 146.65 82.4988
90.7518 148.203 81.8669
84.5651 147.779 81.0776
83.8193 148.865 80.9786
90.924 149.036 80.6719
90.9757 150.291 80.1598
83.389 149.694 80.5936
90.9507 151.283 79.4746
82.946 150.339 80.5045
82.2732 150.395 81.4854
82.6809 149.838 81.3975
90.8412 152.128 79.245
82.7679 151.154 80.1801
82.2388 151.348 81.084
90.7565 153.054 79.0647
82.2964 152.095 80.0919
82.0551 153.684 79.6959
82.0012 152.34 80.6848
90.6537 154.023 78.6288
82.1064 154.678 79.4271
90.3061 154.78 78.5007
90.1016 155.61 77.6537
82.1479 155.686 79.2579
89.7974 156.36 77.2856
82.4484 156.674 78.9729
89.3874 157.021 76.6567
89.4537 156.669 77.7473
88.9651 157.205 77.3469
83.0135 157.347 78.5629
87.7014 158.413 77.0375
87.3865 158.041 78.1366
87.1758 158.642 77.3447
88.3487 157.91 77.0776
87.8555 157.831 77.7884
88.8461 157.732 76.6371
88.3511 157.273 77.8156
83.5091 157.851 78.0604
84.039 158.371 77.7034
87.25 158.92 76.2761
86.6604 158.884 76.8987
88.0462 158.407 76.3839
84.5898 158.907 77.2481
84.9026 159.219 76.4852
85.7107 159.492 76.2397
85.2652 158.931 77.102
86.4465 159.214 76.0811
85.9183 158.986 76.9288
86.9065 142.236 83.9556
86.0604 142.628 84.1495
86.4565 141.44 84.9762
87.4127 141.407 84.704
87.694 142.027 83.486
88.2641 141.74 84.2765
89.0541 142.153 83.6905
89.4273 142.296 84.364
86.9019 143.07 82.7961
86.0241 143.475 83.4968
89.6449 143.55 84.2705
86.4292 144.467 82.673
85.2568 144.719 83.3286
85.2803 144.109 83.8952
90.0578 144.929 84.158
85.1903 145.467 82.7885
84.1903 146.32 83.2685
84.5677 145.225 83.52
90.4291 145.918 83.0514
90.3804 147.391 82.9511
83.8282 147.617 82.4479
90.4046 148.51 82.58
83.2226 148.318 81.9734
82.2032 148.487 82.8096
82.7345 147.659 83.0257
90.6394 149.318 81.3534
90.368 149.557 82.2149
82.8211 149.052 81.6864
82.0482 149.616 82.4957
90.639 150.242 81.0188
90.6801 151.2 80.4483
81.7504 150.554 82.45
90.5264 152.132 80.2103
81.8456 151.71 81.5209
81.7771 152.846 81.0191
81.7417 151.701 82.3098
90.458 153.321 79.6108
82.1184 153.875 80.6451
90.3115 154.07 79.163
90.2004 153.779 79.917
89.9384 154.754 79.1174
82.249 154.836 80.3584
89.7808 155.475 78.4857
82.5352 155.836 80.0723
89.6827 156.2 78.2895
82.8659 156.624 79.7798
83.109 157.251 79.2031
83.7948 156.936 79.6061
88.9471 156.864 78.124
89.1258 156.473 78.8293
88.6575 156.967 78.7821
89.445 156.137 78.8054
83.4876 157.583 78.788
84.0312 157.494 79.0945
87.0429 157.407 78.8784
86.8591 158.538 78.1323
87.8906 157.276 78.6534
84.8256 158.545 78.011
84.2588 158.147 78.5515
85.5542 158.663 77.8925
85.1992 158.087 78.6781
86.2912 158.771 77.7319
86.0004 158.114 78.5684
84.8421 142.418 85.6506
83.8175 142.244 86.2288
84.444 141.324 86.4548
85.3005 141.119 85.783
85.5758 142.169 84.9697
86.4213 140.522 85.6295
87.6376 140.787 85.5718
88.6492 141.207 85.143
89.3851 142.323 85.3494
84.3079 143.381 85.1279
83.528 143.538 85.5158
85.061 143.323 84.581
89.5055 143.666 85.214
84.105 144.638 84.3284
83.0859 144.495 84.7679
89.7359 144.855 85.2063
83.4805 145.741 84.0196
82.5872 146.576 84.3429
82.7715 145.614 84.7558
90.2627 146.209 83.7791
89.9793 146.002 84.6986
83.2933 147.016 83.4792
82.0817 147.618 83.8888
90.2209 147.284 83.8171
90.2377 148.495 83.4294
81.6674 148.745 83.5886
90.0233 149.642 83.0324
81.6227 149.903 83.4384
90.4906 150.634 81.6949
89.9881 150.69 82.5493
81.6837 151.013 83.3853
90.3535 151.517 81.4181
89.8952 151.719 82.2517
81.7215 153.006 81.7876
81.9116 152.206 82.8649
90.0358 152.452 81.359
89.7244 152.596 82.0054
89.6412 153.219 81.3556
90.2302 152.644 80.5997
82.1887 154.02 81.5981
89.9719 153.88 80.4662
89.3433 153.907 81.1086
82.5198 154.972 81.1929
89.618 154.653 79.9543
89.1853 154.85 80.6135
83.0845 155.449 80.8377
89.0826 155.378 79.6869
88.889 155.181 80.3676
88.6167 155.632 80.2327
89.5759 155.45 79.0593
83.3098 156.314 80.5181
84.6714 157.118 79.7247
83.9706 156.656 80.2902
84.9596 156.688 80.3794
88.6688 156.391 79.4684
88.0942 156.177 80.1002
87.9533 156.839 79.4165
84.8938 157.539 79.1599
85.6064 156.996 79.932
85.7283 157.386 79.2807
86.4214 157.522 78.9274
86.512 157.139 79.8097
87.2172 157.025 79.5697
85.7766 139.319 87.2285
84.6532 139.46 87.6577
84.9408 138.701 88.0801
86.045 138.152 87.9806
86.9468 139.5 87.1741
86.9137 138.882 87.867
87.6428 139.959 87.3877
87.8515 139.479 88.085
84.8018 140.333 86.9228
83.5093 141.08 87.2884
83.8893 140.131 87.8738
85.7702 140.219 86.3614
86.7129 140.271 86.4552
87.6799 140.731 86.585
88.3176 140.79 87.5381
83.143 142.518 86.7563
88.8351 141.298 86.1031
89.105 142.575 86.2189
82.6569 143.695 85.8757
89.4022 143.843 86.1274
82.5453 144.738 85.397
82.2029 145.92 85.5574
82.1202 144.668 86.0805
89.4886 145.509 85.7005
82.0492 147.094 85.054
89.6505 146.77 85.2902
81.6605 148.116 84.6824
90.0593 147.548 84.4046
89.9662 148.83 84.1109
81.3571 149.151 84.5123
89.6221 149.851 83.6798
81.5935 150.226 84.4104
89.6456 150.975 83.3053
81.7559 151.23 84.2864
89.613 151.924 82.7054
82.2502 153.182 82.6625
82.0709 152.163 83.6823
89.4196 152.329 82.699
89.2848 153.067 82.3023
82.607 154.258 82.3239
82.668 153.447 83.2276
88.8161 153.98 81.6069
83.1027 155.089 81.7658
83.3334 154.572 82.6601
88.6353 154.983 81.0269
88.3678 154.222 81.867
88.081 154.917 81.597
83.7277 155.419 81.2142
83.9626 155.008 81.926
87.2115 155.717 80.9928
86.8316 155.332 81.7598
86.4207 155.861 81.2298
87.9162 155.516 80.7919
87.507 155.021 81.7839
84.1938 155.91 80.9194
85.885 156.711 80.6271
84.9635 156.151 80.9149
86.7223 156.682 80.525
85.7775 156.002 81.3213
87.4479 156.486 80.3028
83.9785 127.813 92.836
83.0398 128.094 92.6455
83.0086 126.82 93.0772
83.8542 126.976 93.3834
84.5609 127.956 93.32
84.2032 127.496 93.9554
83.9376 128.738 92.4914
83.3879 129.456 92.4484
84.612 128.784 92.8441
84.5439 128.758 93.7993
84.1488 129.947 92.2261
84.6722 129.743 92.9201
83.56 138.317 89.1288
82.462 139.286 89.5316
82.7132 138.211 90.0028
84.0953 137.326 89.4243
84.7966 137.954 88.6466
85.5952 136.935 89.1334
86.3696 137.638 88.6373
87.1368 137.354 89.5085
83.6274 139.369 88.7141
82.9101 140.345 88.6129
87.3595 138.447 88.6453
88.1961 139.966 88.646
82.6765 141.519 87.7075
88.3238 141.348 88.4668
82.4302 142.599 87.2973
81.7608 143.52 87.4233
81.9078 142.253 87.9854
88.777 141.816 87.1248
88.9507 143.233 87.1111
82.2854 143.619 86.6942
81.6425 144.968 86.6631
89.1756 144.539 86.6373
81.7914 146.389 86.1973
89.2325 145.864 86.4609
81.603 147.52 85.8146
89.0318 146.788 86.4406
81.4595 148.603 85.5591
89.624 147.85 85.0143
89.1491 147.664 85.83
81.6631 149.707 85.5273
89.5384 148.87 84.8931
89.1445 148.966 85.5145
82.1194 150.641 85.2887
89.2564 149.952 84.3558
88.906 150.543 84.4858
82.2792 151.817 84.7354
89.3707 151.554 83.4887
88.7742 151.409 83.9526
82.6203 152.77 84.049
88.9464 152.553 83.1172
88.4455 151.957 84.163
88.2609 152.699 83.8221
83.2419 153.641 83.48
87.2609 153.497 83.1397
86.7531 153.364 83.9101
86.4618 153.726 83.2073
88.1682 153.186 83.1073
87.5834 153.126 84.1413
88.6707 153.502 82.4378
84.0015 154.24 82.9878
84.6447 155.064 82.3926
85.6445 155.064 82.5406
84.8239 154.348 83.0628
86.4762 154.371 82.6319
85.7319 154.132 83.1519
87.0852 154.645 82.3717
87.7948 154.063 82.4555
84.5186 155.391 81.4557
85.2676 155.421 81.7216
86.207 155.355 82.0133
81.6529 126.493 93.3299
80.8596 127.582 93.4267
80.764 126.762 94.5068
81.7341 125.836 94.4113
82.6547 125.742 93.4388
82.8684 125.857 94.6588
81.9883 127.649 92.8552
81.6696 128.607 93.3614
83.5928 126.418 94.1168
83.8517 127.39 94.662
82.6584 129.439 92.8025
81.9405 129.729 93.3583
84.1484 128.706 94.473
82.7098 130.976 92.5109
82.1383 131.308 93.1636
83.4938 130.802 92.1367
84.5735 131.032 92.3374
84.7247 130.205 93.5155
83.1069 132.222 92.3689
82.2836 132.435 93.0167
83.8923 132.081 91.7855
84.9077 132.038 91.6867
85.4755 131.304 92.7749
85.7139 132.167 92.0918
85.9007 132.328 92.83
82.919 133.371 92.028
81.9308 133.658 92.61
83.9075 133.35 91.3197
84.9847 133.2 90.8775
85.819 133.221 91.3268
86.2314 133.36 92.2613
82.765 134.35 91.7278
83.6996 134.619 91.0123
82.9061 135.515 91.4938
84.8479 134.595 90.4903
86.0844 134.44 90.7364
86.5235 134.491 91.7029
83.358 136.012 90.7323
82.4081 136.651 91.4664
84.3739 135.679 90.2378
85.9195 135.502 90.1447
86.6588 135.661 91.2863
82.3742 137.398 90.9949
83.2504 137.098 90.1996
81.8762 138.571 90.9431
84.8135 136.224 89.6592
86.9314 136.355 90.8915
86.4631 136.385 89.82
87.0829 137.319 90.7006
81.8943 139.534 90.6253
87.3757 138.283 90.2557
82.1569 140.384 89.6269
81.7392 141.325 89.4069
81.7169 140.666 90.7101
87.9081 138.899 89.45
87.9725 140.201 89.513
82.2073 141.212 88.7282
81.4883 142.625 88.5675
87.7952 141.261 89.4184
81.4655 144.163 87.8158
88.5073 142.406 87.957
88.0093 142.516 88.9563
81.3146 145.527 87.2373
88.4554 143.427 87.8715
88.7736 144.56 87.4015
81.3862 146.866 86.8642
88.7416 145.677 87.4041
81.7821 148.02 86.5995
88.5909 146.679 87.1785
88.2875 145.981 87.9931
88.0136 146.965 87.7574
81.9762 149.142 86.4712
88.4672 147.655 86.8059
87.8856 148.288 87.1961
82.2442 150.259 86.4107
88.6108 148.656 86.266
87.8862 149.318 86.6222
82.6254 151.12 85.7511
88.1585 149.925 85.8504
87.2516 149.934 86.4742
87.1846 150.645 85.9297
88.712 149.835 85.3844
82.9763 152.121 84.9951
87.6668 151.057 85.2868
87.0597 151.49 85.3094
88.3016 150.886 84.9204
83.363 152.832 84.3136
87.8629 152.003 84.5967
87.109 152.319 84.7579
83.8506 153.291 84.0018
84.2069 153.759 83.6197
85.1712 153.689 83.74
84.775 153.22 84.1663
85.979 153.577 83.7544
85.7338 153.113 84.3887
86.4828 152.704 84.5967
80.66 128.176 94.309
80.4753 127.016 95.4965
81.581 126.014 95.6137
82.5724 126.475 95.8768
81.166 129.257 94.3591
83.1914 126.817 95.1745
83.4492 128.006 95.3243
81.5825 130.418 94.014
84.1071 129.549 94.553
81.5893 131.502 94.076
84.5207 130.85 94.2045
81.8889 132.683 93.8386
85.2179 131.666 93.4767
85.642 133.148 93.1014
81.743 133.718 93.7162
85.8271 134.443 92.6547
82.1023 134.699 92.2896
81.7022 134.675 93.1502
85.9523 135.682 92.2719
82.0572 135.654 92.2126
82.0886 136.796 92.2598
86.0405 136.758 92.3275
81.9075 138.04 92.022
82.1889 139.05 92.4923
86.3121 137.645 92.0389
86.6345 138.483 91.4194
82.0822 140.059 91.9787
86.7835 139.268 91.1361
81.559 141.918 89.8868
81.9774 141.279 91.3809
87.3806 139.572 90.2496
87.2364 140.567 90.4378
81.4028 143.326 88.9805
87.3029 141.852 90.0105
81.3093 144.722 88.3449
87.4815 143.046 89.6613
81.3357 145.997 87.9623
88.1867 143.851 88.4513
87.8014 143.991 89.089
81.6015 147.291 87.6447
88.1019 144.861 88.2726
87.7703 145.692 88.6781
82.0445 148.383 87.6448
87.441 147.04 88.1726
82.3037 149.32 87.4086
87.1572 148.243 87.6265
86.6729 147.635 88.3879
86.2603 148.557 87.8754
82.8248 150.009 87.09
83.3296 150.645 86.4668
84.4216 150.453 86.8238
83.7002 149.893 87.3064
85.4095 149.966 87.1671
84.5801 149.696 87.6996
86.3154 149.398 87.3272
85.5205 149.084 87.8904
87.2026 149.369 87.0863
83.4756 151.523 85.7111
84.3773 151.231 86.1329
85.3296 150.858 86.4228
86.2652 150.342 86.6461
83.88 152.295 84.969
84.6038 151.748 85.3472
85.3701 151.451 85.6352
86.2604 151.053 85.8648
84.1817 152.862 84.3932
84.8718 152.628 84.7515
85.5465 152.225 84.981
86.2926 151.803 85.1471
80.877 128.264 95.4053
81.4107 127.194 96.2757
81.1032 129.461 95.4686
81.702 128.55 96.1389
82.5477 127.679 96.0709
81.3928 130.549 95.0551
81.8836 130.075 95.9921
82.5402 129.227 96.2147
83.2554 128.857 95.7133
84.0155 129.844 95.2102
81.6198 131.941 94.8874
84.3056 131.368 94.7645
82.0579 133.2 94.65
84.8846 132.464 93.8823
85.0911 133.932 93.4619
81.9804 134.412 94.3692
85.3466 135.463 93.1377
81.8778 135.304 93.933
85.302 136.806 93.0443
81.7904 135.865 93.0328
82.0147 136.724 93.3345
85.2702 138.135 93.0114
82.1021 137.592 92.9664
83.1584 139.68 93.221
82.5019 138.362 93.4726
84.6991 139.307 92.9687
83.8476 138.731 93.762
85.8739 138.811 92.3203
82.799 140.674 92.423
84.199 140.517 92.6795
85.5882 139.795 92.2691
81.8101 142.55 90.2876
82.4121 142.231 91.2759
83.1842 141.508 92.1421
84.4211 141.425 92.1848
85.0028 142.116 91.6313
85.541 140.821 91.997
86.3772 140.22 91.381
81.6657 143.912 89.4863
86.0162 141.983 91.2479
85.388 143.091 91.1362
86.617 141.316 90.9374
81.7715 145.119 89.0289
86.0874 143.369 90.4312
85.5015 144.281 90.7274
86.738 142.546 90.4385
81.8923 146.263 88.6948
86.2748 144.689 89.9528
85.4942 145.521 90.1524
86.9406 143.837 89.8363
82.1148 147.302 88.4447
86.2278 145.855 89.3746
85.169 146.442 89.5143
87.159 144.987 89.2577
82.5774 147.849 88.5936
82.9946 148.657 88.4188
84.2238 148.233 88.8516
83.3442 147.693 89.0273
85.2255 147.618 89.1056
84.3317 147.128 89.3638
86.0712 147.047 89.0415
86.9232 146.479 88.8427
83.1566 149.478 87.7712
83.956 149.159 88.0918
85.0194 148.803 88.5386
85.7193 148.025 88.5045
82.032 131.454 95.6563
82.7439 130.836 95.9577
83.35 130.149 95.8014
82.3621 132.786 95.4291
83.1017 132.194 95.5845
83.7477 131.489 95.3573
82.6211 134.162 95.0539
83.4574 133.689 95.2976
83.9925 133.229 94.9365
84.2762 132.822 94.3685
82.5544 135.386 94.7924
83.482 135.146 95.051
84.111 134.833 94.5241
84.6761 134.433 93.9718
82.3068 136.159 94.1126
83.3327 136.295 94.4719
84.2218 136.419 94.5036
84.8356 135.975 93.8337
82.7476 137.226 93.9024
83.5819 137.76 94.1601
84.5628 137.54 93.6582
82.2165 143.373 90.5828
83.1435 142.854 91.2997
83.8899 142.312 91.8529
82.4243 144.39 90.1099
83.1646 143.945 91.0274
84.2352 143.237 91.5547
82.376 145.467 89.7329
83.2943 144.832 90.5924
84.4422 144.278 91.0934
82.5503 146.407 89.3928
83.3994 145.705 90.0931
84.449 145.198 90.5683
82.6938 147.249 89.2023
83.5041 146.634 89.5442
84.4326 146.056 89.9969
POLYGONS 2132  8528
3 0 1 2
3 0 3 4
3 2 3 0
3 4 5 6
3 3 5 4
3 6 7 8
3 5 7 6
3 7 9 8
3 10 1 0
3 11 1 10
3 4 12 0
3 12 10 0
3 6 13 4
3 13 12 4
3 8 14 6
3 14 13 6
3 15 8 9
3 14 8 15
3 16 11 10
3 17 11 16
3 12 18 10
3 18 16 10
3 13 19 12
3 19 18 12
3 14 20 13
3 20 19 13
3 21 14 15
3 20 14 21
3 16 22 17
3 18 22 16
3 23 22 18
3 19 23 18
3 24 23 19
3 20 24 19
3 25 24 20
3 21 25 20
3 26 27 28
3 26 29 30
3 28 29 26
3 29 31 30
3 32 33 34
3 27 32 34
3 27 26 32
3 26 35 32
3 30 36 26
3 36 35 26
3 37 30 31
3 36 30 37
3 38 33 32
3 39 33 38
3 35 40 32
3 40 38 32
3 36 41 35
3 41 40 35
3 42 36 37
3 41 36 42
3 43 44 45
3 43 46 47
3 45 46 43
3 39 47 46
3 39 38 47
3 38 48 47
3 40 49 38
3 49 48 38
3 50 41 51
3 50 49 41
3 49 40 41
3 42 51 41
3 2 44 43
3 2 1 44
3 1 52 44
3 3 2 43
3 47 3 43
3 5 3 47
3 48 5 47
3 7 5 48
3 49 7 48
3 49 9 7
3 49 50 9
3 50 53 9
3 1 11 52
3 52 11 54
3 9 53 15
3 53 55 15
3 11 17 54
3 54 17 56
3 15 55 21
3 55 57 21
3 58 17 22
3 58 59 17
3 59 56 17
3 22 23 60
3 58 22 60
3 23 24 61
3 60 23 61
3 62 61 24
3 62 24 63
3 63 24 25
3 57 25 21
3 63 25 57
3 58 64 59
3 60 64 58
3 65 64 60
3 61 65 60
3 66 65 61
3 62 66 61
3 67 68 69
3 67 70 71
3 69 70 67
3 71 72 73
3 70 72 71
3 72 74 73
3 75 76 77
3 68 75 77
3 68 67 75
3 67 78 75
3 71 79 67
3 79 78 67
3 73 80 71
3 80 79 71
3 81 73 74
3 80 73 81
3 82 76 75
3 83 76 82
3 78 84 75
3 84 82 75
3 79 85 78
3 85 84 78
3 80 86 79
3 86 85 79
3 87 80 81
3 86 80 87
3 28 83 82
3 28 27 83
3 27 88 83
3 29 28 82
3 84 29 82
3 31 29 84
3 31 84 89
3 89 84 85
3 86 90 85
3 90 89 85
3 91 86 87
3 90 86 91
3 34 92 93
3 33 92 34
3 88 27 34
3 93 88 34
3 89 94 37
3 31 89 37
3 90 95 89
3 95 94 89
3 96 90 91
3 95 90 96
3 97 98 99
3 97 99 92
3 97 92 39
3 39 92 33
3 94 100 42
3 37 94 42
3 101 95 102
3 101 100 95
3 100 94 95
3 96 102 95
3 45 103 104
3 44 103 45
3 98 97 46
3 98 46 104
3 104 46 45
3 39 46 97
3 51 105 50
3 51 42 100
3 51 100 105
3 105 100 106
3 107 100 101
3 106 100 107
3 44 52 103
3 103 52 108
3 105 109 53
3 50 105 53
3 110 106 111
3 110 109 106
3 109 105 106
3 107 111 106
3 52 54 108
3 108 54 112
3 109 113 55
3 53 109 55
3 114 109 110
3 113 109 114
3 54 56 112
3 112 56 115
3 113 116 57
3 55 113 57
3 117 113 114
3 116 113 117
3 56 59 115
3 115 59 118
3 63 119 120
3 62 63 120
3 116 63 57
3 116 121 63
3 121 119 63
3 117 121 116
3 59 122 118
3 64 122 59
3 65 123 64
3 64 123 122
3 66 124 65
3 65 124 123
3 120 66 62
3 124 66 120
3 69 125 126
3 68 125 69
3 70 69 127
3 69 126 127
3 72 70 128
3 70 127 128
3 128 74 72
3 129 74 128
3 77 130 131
3 76 130 77
3 125 68 77
3 131 125 77
3 74 129 81
3 129 132 81
3 76 83 130
3 130 83 133
3 134 135 87
3 134 87 132
3 132 87 81
3 134 136 135
3 83 88 133
3 133 88 137
3 135 138 91
3 87 135 91
3 139 135 136
3 138 135 139
3 93 140 141
3 92 140 93
3 137 88 93
3 141 137 93
3 138 142 96
3 91 138 96
3 143 138 139
3 142 138 143
3 99 144 145
3 98 144 99
3 140 92 99
3 145 140 99
3 102 146 101
3 102 147 146
3 96 147 102
3 96 148 147
3 96 142 148
3 143 148 142
3 104 149 150
3 103 149 104
3 144 98 104
3 150 144 104
3 146 151 107
3 101 146 107
3 152 146 147
3 151 146 152
3 103 108 149
3 149 108 153
3 111 154 110
3 111 155 154
3 107 155 111
3 107 156 155
3 107 151 156
3 152 156 151
3 108 112 153
3 153 112 157
3 154 158 114
3 110 154 114
3 159 154 155
3 158 154 159
3 112 115 157
3 157 115 160
3 158 161 162
3 158 162 114
3 114 162 117
3 159 161 158
3 115 118 160
3 160 118 163
3 119 164 120
3 165 164 119
3 165 119 166
3 166 119 121
3 162 121 117
3 166 121 162
3 118 167 163
3 122 167 118
3 123 168 122
3 122 168 167
3 124 169 123
3 123 169 168
3 164 124 120
3 164 170 124
3 170 169 124
3 165 170 164
3 126 125 171
3 172 126 171
3 172 173 126
3 173 127 126
3 128 127 174
3 127 173 174
3 174 129 128
3 175 129 174
3 131 130 176
3 131 176 177
3 125 131 177
3 125 177 178
3 125 178 171
3 172 171 178
3 179 180 132
3 179 132 175
3 175 132 129
3 179 181 180
3 176 182 183
3 176 130 182
3 130 133 182
3 177 176 183
3 132 180 134
3 180 136 134
3 180 181 136
3 181 184 136
3 133 137 182
3 182 137 185
3 136 184 139
3 184 186 139
3 141 187 188
3 140 187 141
3 185 137 141
3 188 185 141
3 139 186 143
3 186 189 143
3 145 190 191
3 144 190 145
3 187 140 145
3 191 187 145
3 148 192 147
3 148 193 192
3 148 143 193
3 143 189 193
3 150 194 195
3 149 194 150
3 190 144 150
3 195 190 150
3 192 196 152
3 147 192 152
3 197 192 193
3 196 192 197
3 198 199 200
3 198 200 194
3 198 194 153
3 153 194 149
3 156 201 155
3 156 202 201
3 152 202 156
3 152 203 202
3 152 196 203
3 197 203 196
3 204 199 198
3 205 199 204
3 153 157 204
3 198 153 204
3 201 206 159
3 155 201 159
3 207 201 202
3 206 201 207
3 208 205 204
3 209 205 208
3 157 160 208
3 204 157 208
3 161 210 162
3 161 211 210
3 159 211 161
3 159 212 211
3 159 206 212
3 207 212 206
3 213 209 208
3 214 209 213
3 160 163 213
3 208 160 213
3 166 215 216
3 165 166 216
3 210 166 162
3 210 217 166
3 217 215 166
3 211 217 210
3 213 218 214
3 163 218 213
3 163 167 218
3 167 219 218
3 168 220 167
3 167 220 219
3 169 221 168
3 168 221 220
3 170 222 169
3 169 222 221
3 216 170 165
3 222 170 216
3 223 224 225
3 223 226 227
3 225 226 223
3 226 228 227
3 173 224 223
3 173 172 224
3 172 229 224
3 174 173 223
3 227 174 223
3 227 175 174
3 227 228 175
3 228 230 175
3 178 231 232
3 177 231 178
3 229 172 178
3 232 229 178
3 175 230 233
3 179 175 233
3 233 181 179
3 234 181 233
3 183 235 236
3 182 235 183
3 231 177 183
3 236 231 183
3 181 234 184
3 234 237 184
3 238 239 240
3 238 240 235
3 238 235 185
3 185 235 182
3 184 237 186
3 237 241 186
3 242 243 244
3 239 242 244
3 238 242 239
3 238 187 242
3 238 188 187
3 185 188 238
3 186 241 189
3 241 245 189
3 246 247 248
3 243 246 248
3 242 246 243
3 242 190 246
3 242 191 190
3 187 191 242
3 189 245 193
3 245 249 193
3 250 251 252
3 247 250 252
3 246 250 247
3 246 194 250
3 246 195 194
3 190 195 246
3 193 249 197
3 249 253 197
3 200 251 250
3 200 199 251
3 199 254 251
3 194 200 250
3 203 255 256
3 202 203 256
3 253 203 197
3 255 203 253
3 199 205 254
3 254 205 257
3 202 256 207
3 256 258 207
3 205 209 257
3 257 209 259
3 212 260 261
3 211 212 261
3 258 212 207
3 260 212 258
3 209 214 259
3 259 214 262
3 215 263 264
3 216 215 264
3 217 265 215
3 215 265 263
3 261 217 211
3 265 217 261
3 214 266 262
3 218 266 214
3 219 267 218
3 218 267 266
3 220 268 219
3 219 268 267
3 221 269 220
3 220 269 268
3 222 270 221
3 221 270 269
3 264 222 216
3 270 222 264
3 271 272 273
3 271 225 224
3 271 273 225
3 273 274 225
3 226 225 275
3 225 274 275
3 275 228 226
3 276 228 275
3 277 272 271
3 278 272 277
3 224 229 277
3 271 224 277
3 228 276 230
3 276 279 230
3 232 278 277
3 232 231 278
3 231 280 278
3 229 232 277
3 230 279 281
3 233 230 281
3 281 234 233
3 282 234 281
3 283 284 285
3 283 236 235
3 283 285 236
3 285 286 236
3 280 231 236
3 286 280 236
3 234 282 237
3 282 287 237
3 288 289 290
3 284 288 290
3 283 288 284
3 283 239 288
3 283 240 239
3 235 240 283
3 237 287 241
3 287 291 241
3 244 289 288
3 244 243 289
3 243 292 289
3 239 244 288
3 241 291 245
3 291 293 245
3 248 294 295
3 247 294 248
3 292 243 248
3 295 292 248
3 245 293 249
3 293 296 249
3 252 297 298
3 251 297 252
3 294 247 252
3 298 294 252
3 249 296 253
3 296 299 253
3 251 254 297
3 297 254 300
3 255 301 302
3 256 255 302
3 299 255 253
3 301 255 299
3 254 257 300
3 300 257 303
3 256 302 258
3 302 304 258
3 257 259 303
3 303 259 305
3 260 306 307
3 261 260 307
3 304 260 258
3 306 260 304
3 259 262 305
3 305 262 308
3 263 309 264
3 310 309 263
3 310 263 311
3 311 263 265
3 307 265 261
3 311 265 307
3 262 312 308
3 266 312 262
3 267 313 266
3 266 313 312
3 268 314 267
3 267 314 313
3 269 315 268
3 268 315 314
3 270 316 269
3 269 316 315
3 309 270 264
3 309 317 270
3 317 316 270
3 310 317 309
3 318 319 320
3 318 321 322
3 320 321 318
3 322 323 324
3 321 323 322
3 323 325 324
3 273 319 318
3 273 272 319
3 272 326 319
3 274 273 318
3 322 274 318
3 275 274 322
3 324 275 322
3 324 276 275
3 324 325 276
3 325 327 276
3 272 278 326
3 326 278 328
3 276 327 279
3 327 329 279
3 330 331 332
3 330 332 328
3 330 328 280
3 280 328 278
3 279 329 333
3 281 279 333
3 333 282 281
3 334 282 333
3 285 335 336
3 284 335 285
3 331 330 286
3 331 286 336
3 336 286 285
3 280 286 330
3 282 334 287
3 334 337 287
3 290 338 339
3 289 338 290
3 335 284 290
3 339 335 290
3 287 337 291
3 337 340 291
3 289 292 338
3 338 292 341
3 291 340 293
3 340 342 293
3 295 343 344
3 294 343 295
3 341 292 295
3 344 341 295
3 293 342 296
3 342 345 296
3 298 346 347
3 297 346 298
3 343 294 298
3 347 343 298
3 296 345 299
3 345 348 299
3 297 300 346
3 346 300 349
3 301 350 351
3 302 301 351
3 348 301 299
3 350 301 348
3 300 303 349
3 349 303 352
3 302 351 304
3 351 353 304
3 303 305 352
3 352 305 354
3 306 355 356
3 307 306 356
3 353 306 304
3 355 306 353
3 305 308 354
3 354 308 357
3 311 358 359
3 310 311 359
3 356 311 307
3 358 311 356
3 308 360 357
3 312 360 308
3 313 361 312
3 312 361 360
3 314 362 313
3 313 362 361
3 315 363 314
3 314 363 362
3 316 364 315
3 315 364 363
3 317 365 316
3 316 365 364
3 359 317 310
3 365 317 359
3 366 367 368
3 366 369 370
3 368 369 366
3 369 371 370
3 320 367 366
3 320 319 367
3 319 372 367
3 321 320 366
3 370 321 366
3 370 371 373
3 370 373 321
3 321 373 323
3 373 325 323
3 374 325 373
3 375 376 377
3 375 377 372
3 375 372 326
3 326 372 319
3 325 374 327
3 374 378 327
3 379 376 375
3 380 376 379
3 326 328 379
3 375 326 379
3 327 378 329
3 378 381 329
3 382 383 384
3 380 382 384
3 379 382 380
3 379 331 382
3 379 332 331
3 328 332 379
3 329 381 385
3 333 329 385
3 385 334 333
3 386 334 385
3 387 388 389
3 383 387 389
3 382 387 383
3 382 335 387
3 382 336 335
3 331 336 382
3 334 386 337
3 386 390 337
3 339 388 387
3 339 338 388
3 338 391 388
3 335 339 387
3 337 390 340
3 390 392 340
3 393 394 395
3 393 395 391
3 393 391 341
3 341 391 338
3 340 392 342
3 392 396 342
3 397 398 399
3 394 397 399
3 393 397 394
3 393 343 397
3 393 344 343
3 341 344 393
3 400 401 402
3 400 396 401
3 400 345 396
3 345 342 396
3 347 398 397
3 347 346 398
3 346 403 398
3 343 347 397
3 404 400 402
3 405 404 402
3 345 404 348
3 400 404 345
3 346 349 403
3 403 349 406
3 350 404 405
3 350 405 351
3 351 405 407
3 348 404 350
3 349 352 406
3 406 352 408
3 351 407 353
3 407 409 353
3 352 354 408
3 408 354 410
3 355 411 412
3 356 355 412
3 409 355 353
3 411 355 409
3 413 357 414
3 413 410 357
3 410 354 357
3 413 414 415
3 358 416 417
3 359 358 417
3 412 358 356
3 416 358 412
3 357 360 414
3 414 418 415
3 414 360 418
3 360 361 418
3 362 419 361
3 361 419 418
3 363 420 362
3 362 420 419
3 364 421 363
3 363 421 420
3 365 422 364
3 364 422 421
3 417 365 359
3 422 365 417
3 423 424 425
3 423 368 367
3 423 425 368
3 425 426 368
3 369 368 427
3 368 426 427
3 427 371 369
3 428 371 427
3 429 424 423
3 430 424 429
3 367 372 429
3 423 367 429
3 371 428 431
3 373 371 431
3 431 374 373
3 432 374 431
3 433 434 435
3 430 433 435
3 429 433 430
3 429 376 433
3 429 377 376
3 372 377 429
3 374 432 378
3 432 436 378
3 437 434 433
3 438 434 437
3 376 380 437
3 433 376 437
3 439 440 381
3 439 381 436
3 436 381 378
3 439 441 440
3 442 443 444
3 438 442 444
3 437 442 438
3 437 383 442
3 437 384 383
3 380 384 437
3 381 440 385
3 440 386 385
3 440 441 386
3 441 445 386
3 389 443 442
3 389 388 443
3 388 446 443
3 383 389 442
3 386 445 390
3 445 447 390
3 388 391 446
3 446 391 448
3 390 447 392
3 447 449 392
3 395 450 451
3 394 450 395
3 448 391 395
3 451 448 395
3 392 449 396
3 449 452 396
3 399 453 454
3 398 453 399
3 450 394 399
3 454 450 399
3 401 455 456
3 402 401 456
3 452 401 396
3 455 401 452
3 398 403 453
3 453 403 457
3 402 456 405
3 456 458 405
3 403 406 457
3 457 406 459
3 405 458 407
3 458 460 407
3 406 408 459
3 459 408 461
3 462 463 464
3 462 460 463
3 462 409 460
3 409 407 460
3 465 410 466
3 465 461 410
3 461 408 410
3 465 466 467
3 468 469 470
3 464 469 468
3 462 464 468
3 462 468 412
3 462 412 411
3 409 462 411
3 410 413 466
3 466 413 415
3 466 415 467
3 467 415 471
3 472 473 474
3 472 475 476
3 473 472 476
3 470 476 475
3 468 470 475
3 468 475 417
3 468 417 416
3 412 468 416
3 415 477 471
3 418 477 415
3 419 478 418
3 418 478 477
3 420 479 419
3 419 479 478
3 474 421 472
3 474 479 421
3 479 420 421
3 422 472 421
3 475 472 422
3 417 475 422
3 480 481 482
3 480 483 484
3 482 483 480
3 483 485 484
3 425 486 487
3 424 486 425
3 481 480 426
3 481 426 487
3 487 426 425
3 427 426 480
3 484 427 480
3 484 428 427
3 484 485 428
3 485 488 428
3 489 490 491
3 489 491 486
3 489 486 430
3 430 486 424
3 428 488 492
3 431 428 492
3 492 432 431
3 493 432 492
3 494 495 496
3 490 494 496
3 489 494 490
3 489 434 494
3 489 435 434
3 430 435 489
3 432 493 436
3 493 497 436
3 498 495 494
3 499 495 498
3 434 438 498
3 494 434 498
3 436 497 500
3 439 436 500
3 500 441 439
3 501 441 500
3 444 499 498
3 444 443 499
3 443 502 499
3 438 444 498
3 441 501 445
3 501 503 445
3 504 505 506
3 504 506 502
3 504 502 446
3 446 502 443
3 445 503 447
3 503 507 447
3 508 505 504
3 509 505 508
3 446 448 508
3 504 446 508
3 447 507 449
3 507 510 449
3 511 512 513
3 509 511 513
3 508 511 509
3 508 450 511
3 508 451 450
3 448 451 508
3 449 510 452
3 510 514 452
3 454 512 511
3 454 453 512
3 453 515 512
3 450 454 511
3 455 516 517
3 456 455 517
3 514 455 452
3 516 455 514
3 453 457 515
3 515 457 518
3 456 517 458
3 517 519 458
3 457 459 518
3 518 459 520
3 521 522 523
3 521 519 522
3 521 460 519
3 460 458 519
3 459 461 520
3 520 461 524
3 525 526 527
3 525 528 529
3 526 525 529
3 528 530 531
3 529 528 531
3 523 531 530
3 521 523 530
3 521 530 464
3 521 464 463
3 460 521 463
3 461 532 524
3 465 532 461
3 532 465 467
3 533 532 467
3 534 525 527
3 535 534 527
3 528 525 536
3 536 525 534
3 469 536 470
3 469 530 536
3 530 528 536
3 464 530 469
3 537 471 538
3 537 533 471
3 533 467 471
3 538 539 540
3 537 538 540
3 539 541 542
3 540 539 542
3 535 542 541
3 534 535 541
3 534 541 474
3 534 474 473
3 476 534 473
3 536 534 476
3 470 536 476
3 471 477 538
3 478 538 477
3 539 538 478
3 479 539 478
3 541 539 479
3 474 541 479
3 543 544 545
3 543 546 547
3 545 546 543
3 547 548 549
3 546 548 547
3 548 550 549
3 551 544 543
3 552 544 551
3 482 481 551
3 482 551 547
3 547 551 543
3 483 482 547
3 549 483 547
3 549 485 483
3 549 550 485
3 550 553 485
3 554 555 556
3 552 554 556
3 551 554 552
3 551 486 554
3 551 487 486
3 481 487 551
3 485 553 488
3 553 557 488
3 558 559 560
3 555 558 560
3 554 558 555
3 554 490 558
3 554 491 490
3 486 491 554
3 488 557 561
3 492 488 561
3 561 493 492
3 562 493 561
3 496 559 558
3 496 495 559
3 495 563 559
3 490 496 558
3 493 562 497
3 562 564 497
3 565 566 567
3 565 567 563
3 565 563 499
3 499 563 495
3 568 500 497
3 568 497 569
3 569 497 564
3 500 568 501
3 570 566 565
3 571 566 570
3 499 502 570
3 565 499 570
3 568 569 572
3 572 501 568
3 572 573 501
3 573 503 501
3 506 571 570
3 506 505 571
3 505 574 571
3 502 506 570
3 503 573 507
3 573 575 507
3 576 577 578
3 576 578 574
3 576 574 509
3 509 574 505
3 507 575 510
3 575 579 510
3 513 577 576
3 513 512 577
3 512 580 577
3 509 513 576
3 581 582 583
3 581 579 582
3 581 514 579
3 514 510 579
3 512 515 580
3 580 515 584
3 516 581 583
3 516 583 517
3 517 583 585
3 514 581 516
3 515 518 584
3 584 518 586
3 517 585 519
3 585 587 519
3 588 520 589
3 588 586 520
3 586 518 520
3 588 589 590
3 591 592 593
3 591 523 522
3 591 522 592
3 592 522 594
3 587 522 519
3 594 522 587
3 589 524 595
3 520 524 589
3 596 590 589
3 595 596 589
3 526 597 598
3 527 526 598
3 529 599 526
3 526 599 597
3 593 531 591
3 593 599 531
3 599 529 531
3 523 591 531
3 524 532 595
3 533 600 601
3 532 533 601
3 532 601 596
3 532 596 595
3 600 602 603
3 601 600 603
3 602 604 605
3 603 602 605
3 604 598 605
3 604 535 598
3 535 527 598
3 533 537 600
3 540 600 537
3 602 600 540
3 542 602 540
3 604 602 542
3 535 604 542
3 606 607 608
3 606 609 610
3 608 609 606
3 610 545 544
3 610 609 545
3 609 611 545
3 546 545 612
3 545 611 612
3 548 546 613
3 546 612 613
3 613 550 548
3 614 550 613
3 615 607 606
3 616 607 615
3 610 617 606
3 617 615 606
3 544 552 617
3 610 544 617
3 550 614 553
3 614 618 553
3 619 616 615
3 620 616 619
3 556 555 619
3 556 619 617
3 617 619 615
3 552 556 617
3 553 618 557
3 618 621 557
3 622 623 624
3 620 622 624
3 619 622 620
3 619 559 622
3 619 560 559
3 555 560 619
3 625 561 557
3 625 557 626
3 626 557 621
3 561 625 562
3 627 623 622
3 628 623 627
3 559 563 627
3 622 559 627
3 625 626 629
3 629 562 625
3 629 630 562
3 630 564 562
3 567 628 627
3 567 566 628
3 566 631 628
3 563 567 627
3 564 630 569
3 630 632 569
3 566 571 631
3 631 571 633
3 634 572 569
3 634 569 635
3 635 569 632
3 572 634 573
3 571 574 633
3 633 574 636
3 637 634 635
3 638 637 635
3 573 637 575
3 634 637 573
3 578 639 640
3 577 639 578
3 636 574 578
3 640 636 578
3 641 642 643
3 638 642 641
3 638 641 637
3 637 641 644
3 575 644 579
3 637 644 575
3 577 580 639
3 639 580 645
3 646 641 643
3 647 646 643
3 582 646 583
3 582 644 646
3 644 641 646
3 579 644 582
3 580 584 645
3 645 584 648
3 649 646 647
3 650 649 647
3 583 649 585
3 646 649 583
3 584 586 648
3 648 586 651
3 652 653 654
3 650 653 652
3 650 652 649
3 649 652 655
3 585 655 587
3 649 655 585
3 586 656 651
3 588 656 586
3 590 657 658
3 590 658 588
3 588 658 656
3 658 657 659
3 660 661 662
3 654 661 660
3 652 654 660
3 652 660 593
3 652 593 592
3 594 652 592
3 655 652 594
3 587 655 594
3 657 596 663
3 590 596 657
3 664 659 657
3 664 657 665
3 665 657 663
3 665 666 667
3 664 665 667
3 666 598 597
3 666 597 667
3 667 597 668
3 662 599 660
3 662 668 599
3 668 597 599
3 593 660 599
3 596 601 663
3 603 663 601
3 665 663 603
3 605 665 603
3 666 665 605
3 598 666 605
3 669 670 671
3 669 672 673
3 671 672 669
3 673 674 675
3 672 674 673
3 674 676 675
3 677 678 679
3 670 677 679
3 670 669 677
3 669 680 677
3 673 681 669
3 681 680 669
3 675 682 673
3 682 681 673
3 683 675 676
3 682 675 683
3 608 678 677
3 608 607 678
3 607 684 678
3 609 608 677
3 680 609 677
3 611 609 680
3 681 611 680
3 612 611 681
3 682 612 681
3 682 683 685
3 682 685 612
3 612 685 613
3 685 614 613
3 686 614 685
3 607 616 684
3 684 616 687
3 614 686 618
3 686 688 618
3 689 690 691
3 689 691 687
3 689 687 620
3 620 687 616
3 618 688 621
3 688 692 621
3 624 690 689
3 624 623 690
3 623 693 690
3 620 624 689
3 621 692 626
3 692 694 626
3 623 628 693
3 693 628 695
3 626 694 696
3 629 626 696
3 696 630 629
3 697 630 696
3 628 631 695
3 695 631 698
3 630 697 632
3 697 699 632
3 631 633 698
3 698 633 700
3 632 699 635
3 699 701 635
3 633 636 700
3 700 636 702
3 635 701 638
3 701 703 638
3 640 639 704
3 640 704 705
3 640 705 636
3 636 705 702
3 642 706 707
3 643 642 707
3 703 642 638
3 706 642 703
3 704 645 708
3 639 645 704
3 709 705 704
3 708 709 704
3 643 707 647
3 707 710 647
3 708 648 711
3 645 648 708
3 712 709 708
3 711 712 708
3 713 714 715
3 713 710 714
3 713 650 710
3 650 647 710
3 711 651 716
3 648 651 711
3 717 712 711
3 716 717 711
3 718 719 720
3 718 721 722
3 719 718 722
3 715 722 721
3 713 715 721
3 713 721 654
3 713 654 653
3 650 713 653
3 651 656 716
3 716 723 717
3 716 656 723
3 656 658 723
3 659 724 725
3 659 725 658
3 658 725 723
3 724 726 727
3 725 724 727
3 720 727 726
3 720 726 718
3 718 726 728
3 661 728 662
3 661 721 728
3 721 718 728
3 654 721 661
3 659 664 724
3 667 724 664
3 726 724 667
3 668 726 667
3 728 726 668
3 662 728 668
3 729 730 731
3 729 732 733
3 731 732 729
3 732 734 733
3 735 730 729
3 736 730 735
3 733 737 729
3 737 735 729
3 738 733 734
3 737 733 738
3 735 739 736
3 737 739 735
3 740 739 737
3 738 740 737
3 741 742 743
3 741 744 745
3 743 744 741
3 745 746 747
3 744 746 745
3 746 748 747
3 749 742 741
3 750 742 749
3 671 670 749
3 671 749 745
3 745 749 741
3 672 671 745
3 747 672 745
3 747 748 751
3 747 751 672
3 672 751 674
3 751 676 674
3 752 676 751
3 679 750 749
3 679 678 750
3 678 753 750
3 670 679 749
3 676 752 683
3 752 754 683
3 755 756 757
3 755 757 753
3 755 753 684
3 684 753 678
3 683 754 758
3 685 683 758
3 758 686 685
3 759 686 758
3 760 756 755
3 761 756 760
3 684 687 760
3 755 684 760
3 686 759 688
3 759 762 688
3 691 761 760
3 691 690 761
3 690 763 761
3 687 691 760
3 688 762 692
3 762 764 692
3 690 693 763
3 763 693 765
3 692 764 694
3 764 766 694
3 693 695 765
3 765 695 767
3 768 696 694
3 768 694 769
3 769 694 766
3 696 768 697
3 695 698 767
3 767 698 770
3 771 768 769
3 772 771 769
3 697 771 699
3 768 771 697
3 698 700 770
3 770 700 773
3 774 771 772
3 775 774 772
3 699 774 701
3 771 774 699
3 700 702 773
3 773 702 776
3 777 774 775
3 778 777 775
3 701 777 703
3 774 777 701
3 702 705 776
3 776 705 779
3 780 781 782
3 778 781 780
3 777 778 780
3 777 780 707
3 777 707 706
3 703 777 706
3 705 709 779
3 779 709 783
3 784 785 786
3 784 787 788
3 785 784 788
3 782 788 787
3 782 787 780
3 780 787 789
3 707 789 710
3 780 789 707
3 790 712 791
3 790 783 712
3 783 709 712
3 791 792 793
3 790 791 793
3 792 794 795
3 793 792 795
3 786 795 794
3 786 794 784
3 784 794 796
3 787 784 797
3 797 784 796
3 714 797 715
3 714 789 797
3 789 787 797
3 710 789 714
3 791 717 798
3 712 717 791
3 792 791 799
3 799 791 798
3 794 792 800
3 800 792 799
3 719 800 720
3 719 796 800
3 796 794 800
3 722 796 719
3 797 796 722
3 715 797 722
3 717 723 798
3 725 798 723
3 799 798 725
3 727 799 725
3 800 799 727
3 720 800 727
3 801 802 803
3 801 804 805
3 803 804 801
3 804 806 805
3 807 802 801
3 808 802 807
3 731 730 807
3 731 807 805
3 805 807 801
3 805 806 809
3 805 809 731
3 731 809 732
3 809 734 732
3 810 734 809
3 811 808 807
3 812 808 811
3 730 736 811
3 807 730 811
3 734 810 738
3 810 813 738
3 814 812 811
3 815 812 814
3 736 739 816
3 736 816 811
3 811 816 814
3 739 740 817
3 816 739 817
3 740 818 817
3 740 738 818
3 738 813 818
3 819 815 814
3 820 815 819
3 816 821 814
3 821 819 814
3 817 822 816
3 822 821 816
3 823 817 818
3 823 824 817
3 824 822 817
3 823 825 824
3 826 820 819
3 827 820 826
3 821 828 819
3 828 826 819
3 822 829 821
3 829 828 821
3 824 830 822
3 830 829 822
3 831 824 825
3 830 824 831
3 826 832 827
3 832 833 834
3 832 826 833
3 826 828 833
3 829 835 828
3 835 833 828
3 830 836 829
3 836 835 829
3 837 830 831
3 836 830 837
3 838 834 833
3 839 834 838
3 835 840 833
3 840 838 833
3 836 841 835
3 841 840 835
3 842 836 837
3 841 836 842
3 838 843 839
3 843 844 845
3 843 838 844
3 838 840 844
3 841 846 840
3 846 844 840
3 847 841 842
3 847 848 841
3 848 846 841
3 847 849 848
3 743 845 844
3 743 742 845
3 742 850 845
3 744 743 844
3 846 744 844
3 746 744 846
3 848 746 846
3 848 748 746
3 848 849 748
3 849 851 748
3 852 853 854
3 852 854 850
3 852 850 750
3 750 850 742
3 748 851 855
3 751 748 855
3 855 752 751
3 856 752 855
3 857 853 852
3 858 853 857
3 750 753 857
3 852 750 857
3 752 856 754
3 856 859 754
3 757 858 857
3 757 756 858
3 756 860 858
3 753 757 857
3 861 758 754
3 861 754 862
3 862 754 859
3 758 861 759
3 756 761 860
3 860 761 863
3 861 862 864
3 864 759 861
3 864 865 759
3 865 762 759
3 761 763 863
3 863 763 866
3 762 865 764
3 865 867 764
3 763 765 866
3 866 765 868
3 869 870 871
3 869 867 870
3 869 766 867
3 766 764 867
3 765 767 868
3 868 767 872
3 873 869 871
3 874 873 871
3 766 873 769
3 869 873 766
3 767 770 872
3 872 770 875
3 876 873 874
3 877 876 874
3 769 876 772
3 873 876 769
3 770 773 875
3 875 773 878
3 879 880 881
3 877 880 879
3 877 879 876
3 876 879 882
3 772 882 775
3 876 882 772
3 773 776 878
3 878 776 883
3 884 879 881
3 885 884 881
3 882 879 886
3 886 879 884
3 775 886 778
3 882 886 775
3 776 779 883
3 883 779 887
3 888 884 885
3 889 888 885
3 781 888 782
3 781 886 888
3 886 884 888
3 778 886 781
3 890 783 891
3 890 887 783
3 887 779 783
3 891 892 893
3 890 891 893
3 892 894 895
3 893 892 895
3 894 786 785
3 894 785 895
3 895 785 896
3 889 788 888
3 889 896 788
3 896 785 788
3 782 888 788
3 783 790 891
3 793 891 790
3 892 891 793
3 795 892 793
3 894 892 795
3 786 894 795
3 803 897 898
3 802 897 803
3 804 803 899
3 803 898 899
3 899 806 804
3 900 806 899
3 802 808 897
3 897 808 901
3 806 900 902
3 809 806 902
3 902 810 809
3 903 810 902
3 808 812 901
3 901 812 904
3 810 903 813
3 903 905 813
3 812 815 904
3 904 815 906
3 813 905 818
3 905 907 818
3 815 820 906
3 906 820 908
3 818 907 909
3 823 818 909
3 909 825 823
3 910 825 909
3 820 827 908
3 908 827 911
3 825 910 831
3 910 912 831
3 913 827 832
3 913 914 827
3 914 911 827
3 832 834 913
3 831 912 837
3 912 915 837
3 913 916 914
3 916 913 834
3 916 834 917
3 917 834 839
3 837 915 842
3 915 918 842
3 839 919 917
3 843 919 839
3 919 843 845
3 920 919 845
3 842 918 921
3 847 842 921
3 921 849 847
3 922 849 921
3 845 850 920
3 920 850 923
3 849 922 851
3 922 924 851
3 854 925 926
3 853 925 854
3 923 850 854
3 926 923 854
3 851 924 927
3 855 851 927
3 927 856 855
3 928 856 927
3 853 858 925
3 925 858 929
3 856 928 859
3 928 930 859
3 858 860 929
3 929 860 931
3 859 930 862
3 930 932 862
3 860 863 931
3 931 863 933
3 934 864 862
3 934 862 935
3 935 862 932
3 864 934 865
3 863 866 933
3 933 866 936
3 937 934 935
3 938 937 935
3 865 937 867
3 934 937 865
3 866 868 936
3 936 868 939
3 870 937 938
3 870 938 871
3 871 938 940
3 867 937 870
3 868 872 939
3 939 872 941
3 942 943 944
3 942 940 943
3 942 874 940
3 874 871 940
3 945 875 946
3 945 941 875
3 941 872 875
3 946 947 948
3 945 946 948
3 947 949 950
3 948 947 950
3 949 951 952
3 950 949 952
3 944 952 951
3 944 951 942
3 942 951 953
3 874 953 877
3 942 953 874
3 946 878 954
3 875 878 946
3 947 946 955
3 955 946 954
3 949 947 956
3 956 947 955
3 951 949 957
3 957 949 956
3 880 957 881
3 880 953 957
3 953 951 957
3 877 953 880
3 954 883 958
3 878 883 954
3 955 954 959
3 959 954 958
3 956 955 960
3 960 955 959
3 957 956 961
3 961 956 960
3 881 961 885
3 957 961 881
3 958 887 962
3 883 887 958
3 959 958 963
3 963 958 962
3 960 959 964
3 964 959 963
3 961 960 965
3 965 960 964
3 885 965 889
3 961 965 885
3 887 890 962
3 893 962 890
3 963 962 893
3 895 963 893
3 964 963 895
3 896 964 895
3 965 964 896
3 889 965 896
3 898 897 966
3 898 967 899
3 966 967 898
3 899 967 900
3 966 901 968
3 897 901 966
3 967 966 969
3 969 966 968
3 900 970 902
3 900 967 970
3 967 969 970
3 902 970 903
3 968 971 972
3 968 901 971
3 901 904 971
3 969 968 972
3 973 969 972
3 970 969 973
3 974 970 973
3 974 903 970
3 974 975 903
3 975 905 903
3 904 906 971
3 971 906 976
3 905 975 907
3 975 977 907
3 906 908 976
3 976 908 978
3 907 977 979
3 909 907 979
3 979 910 909
3 980 910 979
3 908 911 978
3 978 911 981
3 910 980 912
3 980 982 912
3 911 914 981
3 981 914 983
3 912 982 915
3 982 984 915
3 914 985 983
3 916 985 914
3 985 916 917
3 986 985 917
3 915 984 918
3 984 987 918
3 917 988 986
3 919 988 917
3 920 989 990
3 920 990 919
3 919 990 988
3 989 991 992
3 990 989 992
3 921 991 993
3 921 987 991
3 921 918 987
3 992 991 987
3 921 993 922
3 989 923 994
3 920 923 989
3 991 989 995
3 995 989 994
3 993 991 996
3 996 991 995
3 922 996 924
3 993 996 922
3 926 997 998
3 925 997 926
3 994 923 926
3 994 926 999
3 999 926 998
3 995 994 999
3 1000 995 999
3 1000 1001 1002
3 1000 1002 995
3 995 1002 996
3 924 1003 927
3 924 996 1003
3 996 1002 1003
3 927 1003 928
3 925 929 997
3 997 929 1004
3 1005 1002 1001
3 1006 1005 1001
3 1003 1002 1007
3 1007 1002 1005
3 928 1007 930
3 1003 1007 928
3 929 931 1004
3 1004 931 1008
3 1009 1005 1006
3 1010 1009 1006
3 1007 1005 1011
3 1011 1005 1009
3 930 1011 932
3 1007 1011 930
3 931 933 1008
3 1008 933 1012
3 1013 1009 1010
3 1014 1013 1010
3 1011 1009 1015
3 1015 1009 1013
3 932 1015 935
3 1011 1015 932
3 933 936 1012
3 1012 936 1016
3 1017 1013 1014
3 1018 1017 1014
3 1015 1013 1019
3 1019 1013 1017
3 935 1019 938
3 1015 1019 935
3 1020 939 1021
3 1020 1016 939
3 1016 936 939
3 1021 1022 1023
3 1020 1021 1023
3 1022 1024 1025
3 1023 1022 1025
3 1018 1025 1024
3 1018 1024 1017
3 1017 1024 1026
3 1019 1017 1027
3 1027 1017 1026
3 938 1027 940
3 1019 1027 938
3 1021 941 1028
3 939 941 1021
3 1022 1021 1029
3 1029 1021 1028
3 1024 1022 1030
3 1030 1022 1029
3 1026 1024 1031
3 1031 1024 1030
3 943 1031 944
3 943 1027 1031
3 1027 1026 1031
3 940 1027 943
3 941 945 1028
3 948 1028 945
3 1029 1028 948
3 950 1029 948
3 1030 1029 950
3 952 1030 950
3 1031 1030 952
3 944 1031 952
3 972 971 1032
3 972 1033 973
3 1032 1033 972
3 973 1034 974
3 1033 1034 973
3 974 1034 975
3 1032 976 1035
3 971 976 1032
3 1033 1032 1036
3 1036 1032 1035
3 1034 1033 1037
3 1037 1033 1036
3 975 1037 977
3 1034 1037 975
3 1035 978 1038
3 976 978 1035
3 1036 1035 1039
3 1039 1035 1038
3 1037 1036 1040
3 1040 1036 1039
3 977 1041 979
3 977 1037 1041
3 1037 1040 1041
3 979 1041 980
3 1038 981 1042
3 978 981 1038
3 1039 1038 1043
3 1043 1038 1042
3 1040 1039 1044
3 1044 1039 1043
3 1041 1040 1045
3 1045 1040 1044
3 980 1045 982
3 1041 1045 980
3 1042 983 1046
3 981 983 1042
3 1043 1042 1047
3 1047 1042 1046
3 1044 1043 1048
3 1048 1043 1047
3 1045 1044 1049
3 1049 1044 1048
3 982 1049 984
3 1045 1049 982
3 983 985 1046
3 986 1046 985
3 986 1050 1046
3 1050 1047 1046
3 1048 1047 1051
3 1051 1047 1050
3 1049 1048 1052
3 1052 1048 1051
3 984 1052 987
3 1049 1052 984
3 986 988 1050
3 990 1050 988
3 1051 1050 990
3 992 1051 990
3 1052 1051 992
3 987 1052 992
3 998 997 1053
3 998 1054 999
3 1053 1054 998
3 999 1055 1000
3 1054 1055 999
3 1000 1055 1001
3 1053 1004 1056
3 997 1004 1053
3 1054 1053 1057
3 1057 1053 1056
3 1055 1054 1058
3 1058 1054 1057
3 1001 1058 1006
3 1055 1058 1001
3 1056 1008 1059
3 1004 1008 1056
3 1057 1056 1060
3 1060 1056 1059
3 1058 1057 1061
3 1061 1057 1060
3 1006 1061 1010
3 1058 1061 1006
3 1059 1012 1062
3 1008 1012 1059
3 1060 1059 1063
3 1063 1059 1062
3 1061 1060 1064
3 1064 1060 1063
3 1010 1064 1014
3 1061 1064 1010
3 1062 1016 1065
3 1012 1016 1062
3 1063 1062 1066
3 1066 1062 1065
3 1064 1063 1067
3 1067 1063 1066
3 1014 1067 1018
3 1064 1067 1014
3 1016 1020 1065
3 1023 1065 1020
3 1066 1065 1023
3 1025 1066 1023
3 1067 1066 1025
3 1018 1067 1025
