# vtk DataFile Version 3.0
this file was written using fslvtkio
ASCII
DATASET POLYDATA
POINTS 1068 float
82.8519 156.495 68.8294
81.808 156.433 69.7833
82.5871 155.573 69.9699
83.5538 155.539 69.5252
83.9395 156.326 68.3107
84.3655 155.417 69.0431
85.1042 156.453 68.3269
85.2629 155.638 69.2731
85.9855 156.643 68.842
86.2046 155.962 69.7471
82.2866 157.574 69.1584
81.5514 157.168 70.4079
83.2376 157.731 68.2861
84.4052 157.661 67.8254
85.762 157.411 68.2345
86.6452 157.068 69.0871
81.7492 158.269 69.7071
81.2826 157.975 70.7894
82.8132 158.598 68.922
83.9386 158.707 68.3925
85.1841 158.369 68.4313
86.3728 158.027 68.908
82.1954 159.064 69.8907
83.4928 159.24 69.3043
84.7028 158.908 69.2354
85.8127 158.796 69.2285
86.3063 151.829 71.1568
85.4463 150.98 71.9243
86.3882 150.026 71.9023
87.4143 150.247 71.6825
87.4312 151.795 71.5218
88.2358 150.821 72.0731
85.3648 152.639 71.0721
84.6383 153.21 71.3395
84.8832 151.846 72.097
86.1146 153.453 71.2025
86.997 153.332 71.4594
88.0361 152.465 72.0052
84.6374 154.251 70.3809
84.0351 154.01 71.1349
85.524 154.301 70.7622
86.5096 154.768 70.8386
87.3674 154.074 71.7874
83.1854 154.903 70.6359
82.26 155.553 70.8994
83.137 155.134 71.8511
83.6975 154.636 71.6149
83.8557 154.861 70.2104
84.6696 155.068 69.9557
85.7163 155.07 70.0684
86.5981 155.392 70.5441
87.3158 154.977 71.3425
81.4957 156.188 71.2778
86.7122 156.657 70.194
81.0115 156.814 71.6505
87.1673 157.492 69.8296
80.6275 157.54 72.029
86.4181 158.288 69.9517
81.6178 158.977 70.9028
80.9538 158.489 71.8548
82.6678 159.504 70.4137
83.7792 159.315 70.2577
84.5343 158.836 70.3236
85.3963 158.643 70.3939
81.968 159.393 71.4555
83.0314 159.528 71.1693
83.8811 159.216 71.0228
89.605 147.412 73.6417
88.6244 147.36 74.1556
89.4715 147.035 75.1423
90.1464 146.507 74.8427
90.5044 147.832 74.126
90.9302 146.947 74.7291
91.1803 148.138 74.4751
91.6726 147.335 75.1523
88.1913 148.038 72.752
86.9886 148.647 73.0652
87.7334 148.156 73.9834
89.3116 148.864 72.597
90.1346 149.154 73.2774
90.9864 149.275 73.8315
91.8192 148.625 74.7499
86.9545 148.998 72.2581
85.7673 149.608 72.7145
88.2294 149.295 72.2118
89.2389 150.307 72.6547
90.2977 150.67 73.1576
91.3776 150.137 74.0867
85.2899 150.637 72.9496
88.8932 151.451 72.4767
89.7441 151.93 73.0582
90.8672 151.432 73.6762
84.6247 152.847 72.4275
85.0742 151.591 73.2842
88.2674 153.374 72.3563
89.1036 153.037 72.8511
90.5099 152.648 73.7173
84.2899 153.777 72.2758
83.7503 154.286 72.8341
84.1035 153.133 73.3521
88.093 154.759 71.9937
89.0217 154.113 72.7789
89.9634 153.475 73.4431
82.3681 155.506 72.2624
83.3994 155.085 73.0733
87.2618 155.86 71.1048
87.5569 155.606 72.0015
88.6921 154.881 72.7369
81.6085 155.87 72.6901
87.291 156.829 70.9648
87.3949 156.185 72.014
87.8783 155.596 72.7578
80.9865 156.447 73.0746
87.2378 157.635 70.7553
87.6339 156.983 71.6089
80.6291 157.857 72.823
86.2759 158.086 70.8216
86.9491 157.671 71.4305
80.8324 159.076 72.7808
85.221 158.18 71.6229
84.4704 158.741 71.1246
86.0404 157.932 71.6568
81.572 159.458 72.2257
82.5992 159.537 72.1614
83.4814 159.318 71.9322
88.2897 147.521 75.3418
89.3807 146.591 76.2081
90.1929 146.018 76.0238
91.0684 146.145 75.6583
91.7371 147.238 76.0197
86.7984 149.325 73.7061
87.641 148.588 74.8137
92.2194 148.676 75.5256
86.0803 149.947 73.7136
92.2388 149.614 75.0253
92.0403 150.694 74.4809
92.6268 150.055 75.7473
85.5295 150.576 74.1908
91.53 151.775 74.3206
92.4967 151.085 75.2817
84.6686 152.298 73.6941
85.0768 151.592 74.3923
91.6154 152.201 74.6203
92.2291 151.85 75.5485
83.7795 153.909 74.0909
84.0853 152.831 74.6654
90.1456 154.322 73.5078
90.8087 153.497 74.137
91.5824 152.792 74.8094
82.4954 155.153 73.5895
83.4668 154.584 74.4055
89.8572 154.891 73.65
90.635 154.591 74.4526
81.6386 155.508 73.9711
87.7672 156.17 72.927
88.4746 155.397 73.5322
89.458 155.035 73.9949
80.8523 156.761 73.8007
87.5115 156.971 72.4679
88.0418 156.282 73.66
80.591 157.996 73.7154
87.3346 156.953 73.0217
86.7299 157.345 72.1533
80.712 159.021 73.7455
84.3238 158.776 71.8507
85.029 158.42 72.3663
85.7678 157.889 72.7584
81.3501 159.723 73.248
82.2411 159.655 72.9869
83.2087 159.458 72.8537
84.0716 159.029 72.6685
88.8095 147.231 76.4089
89.2528 146.377 77.1831
90.0999 145.77 77.0568
91.1428 146.06 76.7752
91.6701 147.262 77.0865
87.1416 149.337 74.9547
87.8307 148.442 75.8036
88.3673 147.767 76.7597
92.0342 148.315 76.6951
92.3626 149.225 75.9969
92.1406 149.229 76.9395
86.2993 149.885 74.7921
86.8139 149.507 75.9091
92.2638 150.109 76.7659
85.6195 150.69 75.3181
92.2994 150.979 76.6463
84.6276 152.12 75.2529
85.1522 151.405 75.3001
92.1223 151.818 76.5922
83.6689 153.283 75.4489
84.2262 152.647 75.6035
91.2216 153.549 74.9903
91.8013 152.696 75.8902
82.6685 154.757 74.9615
83.2393 153.977 75.3395
91.0869 154.25 75.2801
91.3643 153.556 75.9897
81.7388 155.364 74.826
81.0516 155.409 75.6619
82.0456 154.746 75.6839
88.9658 155.684 74.1085
90.0379 154.944 74.8636
90.8435 154.696 75.6403
81.0294 156.25 74.565
80.6446 156.303 75.5383
88.6334 156.149 74.3702
89.2335 155.772 74.8813
80.3252 157.316 74.5428
80.2929 157.234 75.4909
86.5496 157.25 72.9791
87.5694 156.903 73.8516
88.1087 156.454 74.7483
80.3888 158.411 74.5768
80.3157 158.391 75.4416
85.681 157.852 73.8028
84.945 158.471 73.1409
86.3215 157.385 73.5949
80.7621 159.647 74.2877
81.6051 159.864 74.2685
82.2942 159.665 73.9476
83.2113 159.486 73.709
84.0566 159.078 73.5408
90.4694 145.591 78.0948
89.2577 145.76 78.23
89.8733 145.284 79.1443
90.8492 145.74 78.9013
91.1735 146.279 77.8581
91.1219 146.629 78.6798
88.7669 146.887 77.6735
91.4237 147.375 78.5367
87.4352 148.736 76.6837
88.0528 147.689 77.6426
92.0226 148.063 77.8234
91.9889 149.088 77.9893
86.008 149.87 75.9954
86.4229 149.317 77.1195
92.1204 150.03 77.9748
84.9269 151.448 76.0098
84.8463 151.119 76.9052
85.5952 150.568 76.4938
92.0288 151.036 77.77
84.074 152.543 76.3881
83.6991 152.13 77.2484
84.4455 151.478 77.3857
91.9071 152.158 77.2984
83.2642 153.451 76.2087
82.6224 153.344 77.1294
83.0142 152.366 77.6014
91.3842 152.92 76.9765
82.6238 154.071 76.1302
81.4064 154.445 76.6042
81.8969 153.716 77.3334
90.9911 153.834 76.5936
80.8458 155.217 76.7316
90.3506 154.695 76.4092
89.8075 155.128 75.5454
80.3371 156.172 76.6858
88.8922 155.915 75.487
80.2631 157.163 76.5638
88.0268 156.596 75.4278
87.4635 157.305 74.351
80.3501 158.172 76.5267
85.5997 157.71 74.6175
84.7853 158.37 73.9155
86.4634 157.438 74.4811
80.4689 159.293 75.4019
81.2626 159.764 75.1336
82.2157 159.553 74.9338
83.1291 159.415 74.6336
83.9395 158.931 74.4406
89.124 145.814 79.0554
88.2251 146.444 79.4304
88.8581 145.233 79.9418
89.9505 145.012 80.0889
90.7421 145.927 79.7197
90.994 146.385 80.2213
88.4256 146.765 78.5484
87.7627 147.808 78.3003
91.1953 147.076 80.016
87.0663 148.542 77.7192
91.8546 148 78.975
91.8421 148.964 79.1111
85.5923 150.057 77.2645
85.3657 149.961 78.5477
86.0378 149.38 78.2394
86.4705 148.635 78.4137
91.8445 150.052 78.985
84.865 150.585 77.8271
84.2224 151.042 78.4716
84.7966 150.36 79.2062
91.7988 151.237 78.6127
83.6123 151.354 78.8022
91.4924 152.264 78.2314
82.6311 153.045 78.2086
82.977 151.945 78.8032
91.1017 153.225 77.8417
81.4497 154.42 77.7097
81.985 153.618 78.4771
90.4237 154.005 77.3515
80.9958 155.092 77.7992
89.8951 154.997 77.0574
89.5069 155.373 76.2007
80.4271 155.922 77.7556
88.5214 155.796 76.1602
80.3869 156.948 77.7031
87.9142 156.671 76.1448
87.2701 157.241 75.1738
80.4531 157.884 77.5405
84.6758 158.196 74.6025
85.4321 157.739 75.2862
86.2817 157.57 75.3546
80.6567 158.894 76.4493
81.2533 159.402 76.0621
82.169 159.318 75.794
83.0788 159.156 75.6151
83.9221 158.945 75.4128
84.5072 158.333 75.265
89.4317 144.353 80.8891
88.3989 145.36 80.7057
88.83 143.932 81.6511
90.0054 143.436 81.9832
90.4068 144.629 80.9377
90.4969 144.446 81.9488
90.6805 145.484 80.9368
90.6754 145.383 81.8932
87.9192 146.774 79.8968
90.7676 146.105 81.7144
87.4864 147.659 79.2769
90.9414 146.953 81.2852
86.9568 148.197 78.8777
86.3492 148.123 79.8066
86.919 147.762 79.678
91.5431 147.894 80.0897
91.6844 148.975 80.1559
85.3252 149.325 79.6353
85.92 148.745 79.3889
91.643 150.196 79.8478
84.1286 150.43 80.0289
84.6009 149.604 80.2805
91.4864 151.432 79.4226
83.4895 151.033 80.02
91.0532 152.543 78.983
82.2924 152.337 79.2324
82.8178 151.626 79.5675
90.3999 153.472 78.5644
81.2265 154.07 78.8175
81.7243 153.153 79.3478
90.1401 154.367 77.9042
80.7377 154.776 78.9013
89.5762 154.972 77.8275
89.1306 155.481 77.0221
80.3298 155.797 78.8085
88.3264 155.739 76.965
80.3059 156.838 78.71
87.4749 156.25 76.844
87.0703 157.196 75.9467
80.5498 157.755 78.4166
86.2368 157.421 76.3769
85.3853 157.643 75.9656
80.9079 158.754 77.314
81.4626 159.331 77.0662
82.3232 159.291 76.7225
83.2519 159.166 76.5452
84.0281 158.673 76.4584
84.6367 158.268 76.1341
89.1537 142.97 82.5693
88.2245 144.189 82.1269
88.5808 142.55 83.4182
89.4805 142.277 83.5389
90.2218 142.909 83.1024
90.1364 142.78 84.2057
88.1376 145.549 81.3777
90.4282 144.204 83.0205
90.4867 145.048 83.1449
87.5868 146.515 80.9372
86.7047 146.13 81.8083
87.5937 145.708 81.8104
90.6165 145.989 83.0593
86.9848 147.333 80.401
86.1561 147.202 81.1351
90.7096 147.009 82.3021
85.5062 148.224 80.4376
85.1056 147.61 81.5374
85.6412 147.307 81.3743
91.3659 147.913 81.0778
91.3811 149.177 81.0058
84.9593 148.79 80.8192
83.8387 149.295 81.2697
84.3033 148.226 81.7071
91.1289 150.48 80.5006
83.0168 149.963 80.9983
91.0418 151.719 80.1182
82.4923 151.163 80.2085
81.9275 151.323 80.9799
82.376 150.549 81.1869
90.5001 152.751 79.7085
81.8428 152.143 80.1157
81.3518 153.201 80.0735
81.4969 152.007 81.0532
90.1528 153.527 79.2075
89.8904 153.448 79.9499
89.6363 154.382 79.1535
81.043 153.969 79.9609
89.9002 154.35 78.543
89.1368 155.185 78.2999
80.6799 154.858 79.8855
88.5326 155.478 77.9597
80.3626 155.906 79.7844
87.8479 155.796 77.7458
80.3865 156.982 79.5904
87.309 156.218 77.452
86.8224 156.68 76.8532
80.7805 157.964 78.907
80.9606 158.719 78.1809
81.4264 158.681 78.8426
86.1156 157.025 76.9915
85.3369 157.692 76.6707
81.6317 159.259 77.8503
82.5244 159.279 77.6666
83.2666 158.977 77.3842
84.0419 158.54 77.3134
84.6335 158.113 76.9237
87.9995 143.704 83.0836
87.4414 143.806 83.7058
87.9403 142.923 84.102
88.6199 141.835 84.3006
89.5841 141.797 84.5376
90.2423 142.234 85.4668
87.6016 145.035 82.5352
87.0546 144.631 83.6433
90.3026 143.804 84.2135
90.3829 144.996 84.2043
86.6382 145.634 82.8855
85.5828 145.621 83.3688
86.4624 145.048 83.6293
90.4692 146.138 83.9737
85.8728 146.595 82.285
85.0101 146.488 83.1415
90.6258 147.246 82.8514
91.0348 148.094 81.7714
90.8714 148.494 82.2554
84.6656 147.234 82.3474
83.4989 148.098 82.3979
83.993 146.96 83.1379
90.8891 149.626 81.5514
83.0732 148.994 82.2555
90.8202 150.847 81.0984
82.6631 149.738 82.0698
90.3812 151.769 80.75
81.702 150.545 82.0441
82.1767 150.067 82.2193
90.0701 152.622 80.6245
80.9438 152.933 81.0983
81.128 151.537 81.9124
89.3867 153.512 80.5063
89.1557 154.541 79.4962
80.5749 153.963 81.0065
88.5441 155.094 79.1112
80.4473 155.061 80.8777
87.8532 155.461 78.7249
80.7881 155.975 80.6562
87.2459 156.176 77.8609
87.3942 155.691 78.6814
86.9855 156.128 78.5692
80.9529 156.895 80.2281
81.0233 157.759 79.5027
81.5294 157.764 79.8801
86.3774 156.657 77.518
86.3525 156.359 78.6304
85.7524 156.773 78.0388
82.1085 158.423 79.5926
84.8819 157.787 77.6504
84.9364 157.695 78.354
84.3019 158.232 78.0285
85.5563 157.216 77.3905
85.3197 157.123 78.3456
82.0947 159.086 78.6922
82.841 159.072 78.4131
83.6146 158.809 78.0703
88.9219 140.781 85.0236
87.8702 141.214 85.0846
87.7975 140.27 85.655
89.0687 140.071 85.8571
89.7545 141.099 85.5335
89.8011 141.01 86.436
86.9969 143.136 84.8248
87.4926 142.072 84.9766
89.957 142.297 86.2694
86.2992 144.462 84.2277
85.6507 143.914 85.1062
86.408 143.432 85.0037
90.3056 143.601 85.1729
90.2664 144.998 85.0607
85.0788 145.001 84.2511
83.9942 145.516 84.831
84.6501 144.415 85.3685
90.2355 146.415 84.7092
84.2129 145.91 83.9245
83.2788 146.857 83.8139
90.6091 147.516 83.4841
90.5917 148.846 82.8634
82.894 147.772 83.4042
90.4391 149.937 82.1755
82.3271 148.448 83.2583
81.6154 148.347 84.3093
82.2168 147.776 84.2634
90.1797 150.821 81.9031
82.0537 149.278 83.0262
81.4173 149.321 83.9333
89.9249 151.675 81.7298
81.3855 150.261 82.9069
80.802 151.949 82.3837
81.1168 150.443 83.5121
89.6084 152.666 81.2712
80.5968 153.048 82.1258
88.9614 153.253 81.1713
88.7284 154.197 80.3305
80.5611 154.096 81.9451
88.193 154.774 79.9489
80.7548 155.138 81.7334
87.5733 155.451 79.3634
87.7226 154.962 80.3944
86.9716 155.404 79.9889
81.2909 155.914 81.2927
85.4218 156.464 79.7578
85.1954 155.901 80.8942
84.8879 156.645 80.0544
86.1565 155.939 79.7901
85.7415 155.77 80.5755
86.7049 155.828 79.3096
86.3172 155.303 80.5603
81.6914 156.686 80.6543
82.1131 157.474 80.4852
84.8914 157.19 78.9778
84.3633 157.155 79.593
85.7016 156.476 79.1081
82.6131 157.934 80.0903
82.8214 158.407 79.2539
83.5073 158.513 78.9675
83.1908 157.726 79.8197
84.2682 158.028 78.7997
83.6807 157.511 79.6153
86.9737 139.718 86.8835
86.1793 140.175 87.1936
86.5137 138.6 87.972
87.4632 138.442 87.6031
87.7216 139.516 86.3924
88.4126 138.878 87.1864
89.2413 139.682 86.5707
89.4775 139.662 87.3856
87.0092 141.225 85.8664
86.0773 141.294 86.5498
89.3094 140.955 87.2004
86.425 142.438 85.6358
85.2244 142.521 86.283
85.3814 141.77 86.9315
89.62 142.395 87.0427
85.1986 143.327 85.7258
83.9068 143.908 86.1506
84.4806 142.922 86.4672
89.9939 143.702 85.9588
90.0589 145.213 85.857
83.4502 145.264 85.3627
89.9947 146.519 85.424
82.8664 146.112 84.8325
81.7904 146.199 85.6046
82.3606 145.24 85.835
90.2939 147.64 84.1698
89.8948 147.667 84.968
82.2783 146.838 84.5805
81.4764 147.372 85.2924
90.1238 148.654 83.7052
90.078 149.707 83.1581
81.0633 148.334 85.245
89.6195 150.543 82.8261
80.9498 149.636 84.3542
80.6175 150.916 83.7313
80.634 149.487 85.0941
89.3209 151.728 82.2069
80.6231 152.059 83.3401
89.1376 152.544 81.8007
88.9033 152.072 82.5211
88.519 153.145 81.7377
80.7335 153.104 83.0441
88.232 153.819 81.1331
80.9063 154.057 82.8076
88.0657 154.474 80.9266
81.1271 154.912 82.6191
81.3008 155.718 82.0651
81.919 155.457 82.6083
87.071 155.001 80.8037
87.3494 154.527 81.5547
86.7746 154.932 81.4989
87.7988 154.241 81.4829
81.686 156.187 81.512
82.1469 156.172 82.0044
85.0441 155.366 81.6011
84.5892 156.353 80.8047
85.9073 155.197 81.3921
82.8636 157.175 80.7153
82.4024 156.584 81.2684
83.4228 156.956 80.5781
83.2454 156.46 81.3757
84.067 156.866 80.4306
83.9352 156.158 81.2241
85.12 139.674 88.9788
84.1297 139.329 89.6589
84.7211 138.339 89.8912
85.5144 138.388 88.9784
85.7268 139.589 88.1034
86.5398 137.515 88.6335
87.7342 137.577 88.5323
88.621 138.371 88.128
89.2318 139.548 88.2688
84.4997 140.77 88.2362
83.8577 140.856 88.6847
85.2205 140.873 87.666
89.0864 140.925 88.0759
84.2854 142.29 87.3276
83.352 141.94 87.9187
89.276 142.208 88.031
83.3696 143.213 86.9477
82.3603 143.872 87.2978
82.8892 142.879 87.8625
89.8847 143.813 86.7055
89.4956 143.521 87.4889
82.842 144.38 86.3405
81.7533 145.021 86.6976
89.7979 144.978 86.6243
89.6929 146.297 86.2075
81.1372 146.306 86.3098
89.3697 147.589 85.755
80.9464 147.448 86.2023
89.7365 148.79 84.3405
89.2263 148.678 85.1712
80.7782 148.529 86.1563
89.473 149.685 84.0149
88.8905 149.653 84.8116
80.5646 150.918 84.5163
80.7587 149.877 85.6423
88.9996 150.577 83.9479
88.631 150.57 84.6151
88.4724 151.295 83.989
89.161 150.89 83.2013
80.8101 152.012 84.2792
88.5746 152.052 83.0542
87.9336 151.877 83.772
80.9943 153.081 83.9427
88.1421 152.784 82.5552
87.6421 152.739 83.2718
81.4574 153.651 83.6676
87.4415 153.375 82.3128
87.2839 153.074 83.0372
86.9648 153.545 82.9451
87.8521 153.542 81.6314
81.5677 154.533 83.3951
82.8447 155.716 82.7621
82.1824 155.05 83.2703
83.2207 155.162 83.3606
86.8504 154.271 82.2089
86.2716 154.015 82.8548
85.9989 154.716 82.1675
83.066 156.163 82.069
83.7084 155.348 82.7762
83.8682 155.743 82.1049
84.4284 155.598 81.6367
84.5 155.117 82.5752
85.2774 154.988 82.3651
85.8782 135.949 90.3364
84.7568 136.075 90.9514
85.0709 135.109 91.3619
86.2734 134.703 91.0773
87.0858 136.212 90.286
87.1998 135.471 90.9643
87.906 136.746 90.363
87.9879 136.299 91.1062
84.9852 137.187 90.2376
83.6365 137.715 90.8285
83.8785 136.572 91.3052
85.8714 137.098 89.4101
86.8986 136.966 89.4591
87.8916 137.436 89.4998
88.1788 137.702 90.3284
83.46 139.485 90.0316
88.7277 138.366 89.0122
89.0309 139.583 89.1541
83.1574 140.942 89.1329
89.0675 140.967 88.9776
82.8977 141.965 88.5524
82.2931 142.989 88.5747
82.5705 141.771 89.2638
89.0917 142.861 88.4746
81.8288 144.228 87.8856
89.1768 144.211 87.9889
81.292 145.354 87.433
89.5949 145.19 87.1252
89.2673 146.598 86.7497
80.7878 146.413 87.2623
88.8851 147.715 86.2613
80.755 147.502 87.1217
88.8171 148.829 85.8705
80.8119 148.508 87.0543
88.5733 149.751 85.2968
80.9741 150.98 85.4385
81.0044 149.623 86.423
88.238 150.111 85.288
87.9649 150.853 84.9284
81.2425 152.084 85.0673
81.3789 151.124 86.0202
87.3897 151.823 84.2734
81.4289 153.235 84.6412
81.9023 152.509 85.5538
87.0889 152.767 83.7386
86.9934 152.118 84.6247
86.5759 152.81 84.3492
82 153.781 84.0972
82.2722 153.399 84.8854
85.5484 153.75 83.7318
85.2509 153.346 84.5715
84.7572 154.051 83.9788
86.3745 153.502 83.5557
85.9513 152.937 84.5226
82.4385 154.444 83.974
84.1408 155.008 83.5174
83.2599 154.784 83.9904
84.8649 154.672 83.2726
84.0938 154.227 84.1491
85.6276 154.331 83.0346
84.1141 123.033 96.5261
83.2524 122.659 96.1581
83.6517 121.368 96.757
84.0343 122.353 97.138
84.6325 123.531 96.8758
84.3096 122.98 97.5384
84.046 124.01 95.9176
83.5549 124.578 95.7724
84.7102 124.524 96.181
84.5611 124.545 97.0588
84.2928 125.558 95.5841
85.1201 125.593 96.1815
83.8326 134.357 92.4455
82.5669 135.173 93.0235
83.0509 133.936 93.3429
84.5164 133.196 92.5488
85.1746 134.123 91.8652
86.226 132.967 92.1867
86.777 134.162 91.8248
87.4624 133.811 92.7373
83.7865 135.522 92.0804
82.904 136.34 92.2077
87.5673 135.112 91.7863
88.1521 136.748 91.5749
82.9019 138.05 91.1054
88.1487 138.067 91.282
82.7452 139.298 90.6103
82.1058 140.215 90.7383
82.1463 138.694 91.38
88.5658 138.752 89.9835
88.6036 140.216 89.8973
82.6972 140.638 90.0127
81.9957 141.917 89.808
88.7518 141.691 89.3694
81.8872 143.397 89.1271
88.7801 143.091 89.1145
81.2703 144.537 88.6222
88.4341 144.088 88.9998
81.0128 145.642 88.3438
89.0303 145.378 87.6305
88.4328 145.037 88.3366
80.9621 146.747 88.2956
88.7861 146.435 87.4628
88.1757 146.404 87.9128
81.207 147.733 88.1062
88.3844 147.621 86.8552
87.9619 148.183 87.0023
81.3665 148.97 87.54
88.2249 149.247 86.0179
87.5981 149.092 86.4746
81.4359 150.19 86.9166
87.6278 150.289 85.6778
87.1656 149.344 86.744
86.8038 150.071 86.3756
81.9139 151.429 86.4299
85.7516 151.19 85.8221
85.2877 150.803 86.5843
85.0127 151.598 86.0239
86.633 150.774 85.7328
86.0871 150.383 86.7533
87.2547 151.268 85.0506
82.5077 152.306 86.0908
82.9928 153.224 85.3368
84.0418 153.046 85.3727
83.3833 152.302 86.0488
84.9004 152.306 85.4358
84.2163 151.989 86.0385
85.5321 152.453 85.1412
86.3053 151.816 85.226
82.9037 153.886 84.4903
83.6861 153.791 84.6899
84.6279 153.439 84.8596
81.8558 119.852 96.7285
81.2875 121.633 96.7771
80.8791 120.532 97.9965
82.284 119.596 98.2878
83.5122 119.929 97.2378
83.2237 120.6 98.4215
82.4066 121.644 96.1851
82.1191 123.02 96.7035
83.9305 121.594 97.8138
83.9429 122.73 98.0869
82.9721 124.21 96.1599
82.2969 124.467 96.6704
84.221 124.312 97.7202
82.9475 126.211 95.789
82.4305 126.451 96.4066
83.6044 126.08 95.4032
84.6574 126.817 95.5766
85.0483 126.056 96.7661
83.4987 127.651 95.6756
82.7431 127.855 96.3321
84.2282 127.726 95.1285
85.0751 127.876 94.9655
85.6092 127.293 95.8609
85.9367 128.158 95.2101
86.2663 128.312 95.9569
83.5145 128.902 95.3687
82.5552 129.29 95.9169
84.3554 129.111 94.566
85.3758 129.253 94.203
86.1122 129.245 94.6138
86.4682 129.385 95.4313
83.3903 129.985 95.0229
84.2659 130.375 94.2493
83.4278 131.088 94.8113
85.4088 130.57 93.7113
86.5057 130.59 94.0265
86.7497 130.584 94.8586
83.7969 131.693 93.9025
82.8688 132.182 94.8132
84.8805 131.528 93.3293
86.5005 131.535 93.3651
86.9876 131.753 94.5065
82.8125 132.961 94.2694
83.6973 132.818 93.3773
82.0839 134.166 94.2785
85.4319 132.069 92.7393
87.4346 132.376 94.1074
87.0777 132.604 92.9399
87.2969 133.455 93.8912
81.778 135.047 94.166
87.3522 134.693 93.4377
82.2702 136.226 93.1528
81.9124 137.361 92.858
81.6899 136.248 94.2069
87.8774 135.557 92.5056
87.8744 136.771 92.5484
82.3978 137.332 92.1483
81.7734 138.922 92.0199
87.5737 137.846 92.3738
81.7986 140.686 91.1299
88.2806 139.208 90.8319
87.7236 139.08 91.7793
81.637 142.292 90.3275
88.0058 140.317 90.6265
88.3487 141.574 90.1152
81.2896 143.663 89.7602
88.0625 142.632 89.9777
81.1968 144.841 89.4753
87.9238 143.773 89.7176
87.5289 142.846 90.5117
87.1932 143.876 90.2146
81.2481 146.011 89.3129
87.6856 144.86 89.2322
87.0208 145.315 89.5907
81.5613 147.068 89.2457
87.8341 145.904 88.7048
87.0035 146.39 89.1622
81.7436 148.157 88.6604
87.0851 147.068 88.3234
86.2383 147.006 89.1155
86.0345 147.757 88.534
87.6585 147.244 87.799
81.9391 149.302 87.9062
86.4703 148.234 87.8041
85.839 148.617 87.9077
87.2093 148.306 87.4392
82.1159 150.228 87.2593
86.5943 149.274 87.1571
85.8262 149.552 87.3853
82.561 150.881 87.061
82.8699 151.661 86.6832
83.7986 151.474 86.6317
83.5192 150.843 87.18
84.6069 151.233 86.6019
84.4531 150.486 87.2714
85.1199 149.982 87.2968
81.1414 122.379 97.6022
80.7376 121.281 98.8852
81.8641 120.112 99.403
82.8179 121.163 99.3885
81.4435 123.969 97.5761
83.3941 121.846 98.6633
83.6682 123.123 98.6923
81.8769 125.414 97.1618
84.2362 125.217 97.7097
81.8942 126.686 97.2326
84.7326 126.675 97.3684
82.095 128.164 96.9394
85.5511 127.527 96.6667
85.922 129.067 96.2798
82.1683 129.119 96.9747
86.041 130.466 95.8009
82.7109 130.186 95.657
82.2244 130.037 96.4843
86.3411 131.601 95.4061
82.6417 131.061 95.6167
82.5023 132.083 95.5946
86.2515 132.628 95.4543
82.1854 133.355 95.3464
82.1962 134.197 95.9709
86.4149 133.451 95.1156
86.7657 134.438 94.6736
81.9115 135.258 95.6113
86.7933 135.34 94.5034
81.6362 137.776 93.3545
81.7963 136.68 94.9895
87.3331 135.935 93.4436
87.1108 136.851 93.5757
81.6667 139.409 92.4707
87.1966 138.242 93.0317
81.5412 141.063 91.6371
87.1974 139.551 92.5466
81.3851 142.47 91.0548
87.7428 140.6 91.2121
87.3035 140.544 91.7854
81.2355 143.853 90.6335
87.5366 141.659 90.9745
86.9745 142.389 91.1922
81.581 144.924 90.4571
86.5431 143.813 90.633
81.6896 145.888 90.2269
86.2622 145.122 90.0985
85.7558 144.262 90.9223
85.3869 145.302 90.4773
82.0851 146.666 90.0718
82.3509 147.714 89.5283
83.4875 147.496 89.8615
82.8403 146.761 90.3865
84.4093 146.908 90.007
83.7631 146.439 90.5871
85.4343 146.329 90.0831
84.6523 145.84 90.6618
86.2414 146.285 89.7112
82.4591 148.798 88.7553
83.3341 148.48 89.1784
84.2845 147.955 89.2793
85.1578 147.334 89.379
82.801 149.606 87.9547
83.5429 149.003 88.2806
84.3118 148.75 88.5124
85.1262 148.196 88.6052
82.9743 150.287 87.4731
83.7189 150.042 87.7669
84.3515 149.546 87.8394
85.0384 148.979 87.8637
81.3677 122.855 98.5782
81.6429 121.787 99.7417
81.4694 124.27 98.5331
82.0423 123.48 99.2122
82.849 122.513 99.5232
81.6164 125.511 97.9923
82.1772 125.139 98.9158
82.9004 124.261 99.4262
83.5723 124.079 98.9421
84.0377 125.386 98.2286
81.8702 127.161 97.9209
84.4612 127.115 97.8485
82.4204 128.52 97.8233
85.2646 128.295 97.0957
85.347 129.82 96.6447
82.4865 129.568 97.6958
85.6305 131.294 96.3423
82.269 130.452 97.2957
85.4663 132.448 96.2649
82.202 131.165 96.4056
82.2339 131.939 96.6812
85.3826 133.701 96.1824
82.3373 132.753 96.2963
83.1907 134.815 96.8704
82.5333 133.406 96.891
84.6459 134.699 96.4237
83.8992 133.795 97.1124
85.8789 134.453 95.5708
82.7102 135.972 96.1164
84.1453 135.93 96.3166
85.5383 135.421 95.6752
81.7393 138.253 93.8322
82.274 137.814 94.8672
83.1759 137.006 95.8054
84.4079 137.03 95.713
84.9329 137.913 94.9516
85.3443 136.482 95.3468
86.33 136.239 94.7072
81.7555 139.925 92.949
85.8277 137.829 94.4472
85.1753 139.08 94.2443
86.5591 137.452 94.0836
81.8463 141.259 92.2566
85.7896 139.562 93.4588
85.2352 140.426 93.6431
86.4622 138.743 93.4759
81.7991 142.514 91.7913
85.825 141.023 92.7599
85.0806 141.822 92.9455
86.5201 140.278 92.6533
81.806 143.667 91.4546
85.7333 142.223 92.0814
84.6744 142.843 92.2833
86.6535 141.504 91.8424
82.0936 144.2 91.5741
82.2723 145.102 91.3798
83.6019 144.709 91.8857
82.8193 144.002 92.0529
84.6405 144.057 91.8695
83.8288 143.533 92.3925
85.3045 143.533 91.6149
86.0824 143.048 91.3893
82.3883 146.009 90.7283
83.1986 145.753 91.0544
84.2356 145.311 91.313
84.9758 144.644 91.2352
82.2858 126.715 98.5579
82.9333 126.232 98.9512
83.5626 125.583 98.8335
82.6278 128.088 98.6304
83.336 127.692 98.7132
83.9053 127.106 98.3985
82.9922 129.311 98.4741
83.7864 129.026 98.6059
84.3818 128.854 98.1902
84.6816 128.629 97.5596
82.8691 130.435 98.1829
83.845 130.333 98.3266
84.5274 130.286 97.8826
84.9621 130.176 97.1864
82.4908 131.278 97.4881
83.5347 131.483 97.8243
84.4606 131.745 97.7937
85.1372 131.535 97.1388
82.8921 132.348 97.2986
83.7571 132.806 97.5506
84.8157 132.99 96.9869
82.144 139.188 94.0276
82.9537 138.618 94.8513
83.7988 138.016 95.3328
82.3935 140.41 93.4269
83.1171 139.814 94.3448
84.1351 139.051 94.7898
82.3541 141.53 92.9092
83.2711 140.855 93.7807
84.4031 140.201 94.2669
82.3771 142.507 92.5061
83.2189 141.827 93.1459
84.2805 141.302 93.5561
82.3584 143.434 92.2191
83.1098 142.913 92.6944
84.051 142.306 92.9568
POLYGONS 2132  8528
3 0 1 2
3 0 3 4
3 2 3 0
3 4 5 6
3 3 5 4
3 6 7 8
3 5 7 6
3 7 9 8
3 10 1 0
3 11 1 10
3 4 12 0
3 12 10 0
3 6 13 4
3 13 12 4
3 8 14 6
3 14 13 6
3 15 8 9
3 14 8 15
3 16 11 10
3 17 11 16
3 12 18 10
3 18 16 10
3 13 19 12
3 19 18 12
3 14 20 13
3 20 19 13
3 21 14 15
3 20 14 21
3 16 22 17
3 18 22 16
3 23 22 18
3 19 23 18
3 24 23 19
3 20 24 19
3 25 24 20
3 21 25 20
3 26 27 28
3 26 29 30
3 28 29 26
3 29 31 30
3 32 33 34
3 27 32 34
3 27 26 32
3 26 35 32
3 30 36 26
3 36 35 26
3 37 30 31
3 36 30 37
3 38 33 32
3 39 33 38
3 35 40 32
3 40 38 32
3 36 41 35
3 41 40 35
3 42 36 37
3 41 36 42
3 43 44 45
3 43 46 47
3 45 46 43
3 39 47 46
3 39 38 47
3 38 48 47
3 40 49 38
3 49 48 38
3 50 41 51
3 50 49 41
3 49 40 41
3 42 51 41
3 2 44 43
3 2 1 44
3 1 52 44
3 3 2 43
3 47 3 43
3 5 3 47
3 48 5 47
3 7 5 48
3 49 7 48
3 49 9 7
3 49 50 9
3 50 53 9
3 1 11 52
3 52 11 54
3 9 53 15
3 53 55 15
3 11 17 54
3 54 17 56
3 15 55 21
3 55 57 21
3 58 17 22
3 58 59 17
3 59 56 17
3 22 23 60
3 58 22 60
3 23 24 61
3 60 23 61
3 62 61 24
3 62 24 63
3 63 24 25
3 57 25 21
3 63 25 57
3 58 64 59
3 60 64 58
3 65 64 60
3 61 65 60
3 66 65 61
3 62 66 61
3 67 68 69
3 67 70 71
3 69 70 67
3 71 72 73
3 70 72 71
3 72 74 73
3 75 76 77
3 68 75 77
3 68 67 75
3 67 78 75
3 71 79 67
3 79 78 67
3 73 80 71
3 80 79 71
3 81 73 74
3 80 73 81
3 82 76 75
3 83 76 82
3 78 84 75
3 84 82 75
3 79 85 78
3 85 84 78
3 80 86 79
3 86 85 79
3 87 80 81
3 86 80 87
3 28 83 82
3 28 27 83
3 27 88 83
3 29 28 82
3 84 29 82
3 31 29 84
3 31 84 89
3 89 84 85
3 86 90 85
3 90 89 85
3 91 86 87
3 90 86 91
3 34 92 93
3 33 92 34
3 88 27 34
3 93 88 34
3 89 94 37
3 31 89 37
3 90 95 89
3 95 94 89
3 96 90 91
3 95 90 96
3 97 98 99
3 97 99 92
3 97 92 39
3 39 92 33
3 94 100 42
3 37 94 42
3 101 95 102
3 101 100 95
3 100 94 95
3 96 102 95
3 45 103 104
3 44 103 45
3 98 97 46
3 98 46 104
3 104 46 45
3 39 46 97
3 51 105 50
3 51 42 100
3 51 100 105
3 105 100 106
3 107 100 101
3 106 100 107
3 44 52 103
3 103 52 108
3 105 109 53
3 50 105 53
3 110 106 111
3 110 109 106
3 109 105 106
3 107 111 106
3 52 54 108
3 108 54 112
3 109 113 55
3 53 109 55
3 114 109 110
3 113 109 114
3 54 56 112
3 112 56 115
3 113 116 57
3 55 113 57
3 117 113 114
3 116 113 117
3 56 59 115
3 115 59 118
3 63 119 120
3 62 63 120
3 116 63 57
3 116 121 63
3 121 119 63
3 117 121 116
3 59 122 118
3 64 122 59
3 65 123 64
3 64 123 122
3 66 124 65
3 65 124 123
3 120 66 62
3 124 66 120
3 69 125 126
3 68 125 69
3 70 69 127
3 69 126 127
3 72 70 128
3 70 127 128
3 128 74 72
3 129 74 128
3 77 130 131
3 76 130 77
3 125 68 77
3 131 125 77
3 74 129 81
3 129 132 81
3 76 83 130
3 130 83 133
3 134 135 87
3 134 87 132
3 132 87 81
3 134 136 135
3 83 88 133
3 133 88 137
3 135 138 91
3 87 135 91
3 139 135 136
3 138 135 139
3 93 140 141
3 92 140 93
3 137 88 93
3 141 137 93
3 138 142 96
3 91 138 96
3 143 138 139
3 142 138 143
3 99 144 145
3 98 144 99
3 140 92 99
3 145 140 99
3 102 146 101
3 102 147 146
3 96 147 102
3 96 148 147
3 96 142 148
3 143 148 142
3 104 149 150
3 103 149 104
3 144 98 104
3 150 144 104
3 146 151 107
3 101 146 107
3 152 146 147
3 151 146 152
3 103 108 149
3 149 108 153
3 111 154 110
3 111 155 154
3 107 155 111
3 107 156 155
3 107 151 156
3 152 156 151
3 108 112 153
3 153 112 157
3 154 158 114
3 110 154 114
3 159 154 155
3 158 154 159
3 112 115 157
3 157 115 160
3 158 161 162
3 158 162 114
3 114 162 117
3 159 161 158
3 115 118 160
3 160 118 163
3 119 164 120
3 165 164 119
3 165 119 166
3 166 119 121
3 162 121 117
3 166 121 162
3 118 167 163
3 122 167 118
3 123 168 122
3 122 168 167
3 124 169 123
3 123 169 168
3 164 124 120
3 164 170 124
3 170 169 124
3 165 170 164
3 126 125 171
3 172 126 171
3 172 173 126
3 173 127 126
3 128 127 174
3 127 173 174
3 174 129 128
3 175 129 174
3 131 130 176
3 131 176 177
3 125 131 177
3 125 177 178
3 125 178 171
3 172 171 178
3 179 180 132
3 179 132 175
3 175 132 129
3 179 181 180
3 176 182 183
3 176 130 182
3 130 133 182
3 177 176 183
3 132 180 134
3 180 136 134
3 180 181 136
3 181 184 136
3 133 137 182
3 182 137 185
3 136 184 139
3 184 186 139
3 141 187 188
3 140 187 141
3 185 137 141
3 188 185 141
3 139 186 143
3 186 189 143
3 145 190 191
3 144 190 145
3 187 140 145
3 191 187 145
3 148 192 147
3 148 193 192
3 148 143 193
3 143 189 193
3 150 194 195
3 149 194 150
3 190 144 150
3 195 190 150
3 192 196 152
3 147 192 152
3 197 192 193
3 196 192 197
3 198 199 200
3 198 200 194
3 198 194 153
3 153 194 149
3 156 201 155
3 156 202 201
3 152 202 156
3 152 203 202
3 152 196 203
3 197 203 196
3 204 199 198
3 205 199 204
3 153 157 204
3 198 153 204
3 201 206 159
3 155 201 159
3 207 201 202
3 206 201 207
3 208 205 204
3 209 205 208
3 157 160 208
3 204 157 208
3 161 210 162
3 161 211 210
3 159 211 161
3 159 212 211
3 159 206 212
3 207 212 206
3 213 209 208
3 214 209 213
3 160 163 213
3 208 160 213
3 166 215 216
3 165 166 216
3 210 166 162
3 210 217 166
3 217 215 166
3 211 217 210
3 213 218 214
3 163 218 213
3 163 167 218
3 167 219 218
3 168 220 167
3 167 220 219
3 169 221 168
3 168 221 220
3 170 222 169
3 169 222 221
3 216 170 165
3 222 170 216
3 223 224 225
3 223 226 227
3 225 226 223
3 226 228 227
3 173 224 223
3 173 172 224
3 172 229 224
3 174 173 223
3 227 174 223
3 227 175 174
3 227 228 175
3 228 230 175
3 178 231 232
3 177 231 178
3 229 172 178
3 232 229 178
3 175 230 233
3 179 175 233
3 233 181 179
3 234 181 233
3 183 235 236
3 182 235 183
3 231 177 183
3 236 231 183
3 181 234 184
3 234 237 184
3 238 239 240
3 238 240 235
3 238 235 185
3 185 235 182
3 184 237 186
3 237 241 186
3 242 243 244
3 239 242 244
3 238 242 239
3 238 187 242
3 238 188 187
3 185 188 238
3 186 241 189
3 241 245 189
3 246 247 248
3 243 246 248
3 242 246 243
3 242 190 246
3 242 191 190
3 187 191 242
3 189 245 193
3 245 249 193
3 250 251 252
3 247 250 252
3 246 250 247
3 246 194 250
3 246 195 194
3 190 195 246
3 193 249 197
3 249 253 197
3 200 251 250
3 200 199 251
3 199 254 251
3 194 200 250
3 203 255 256
3 202 203 256
3 253 203 197
3 255 203 253
3 199 205 254
3 254 205 257
3 202 256 207
3 256 258 207
3 205 209 257
3 257 209 259
3 212 260 261
3 211 212 261
3 258 212 207
3 260 212 258
3 209 214 259
3 259 214 262
3 215 263 264
3 216 215 264
3 217 265 215
3 215 265 263
3 261 217 211
3 265 217 261
3 214 266 262
3 218 266 214
3 219 267 218
3 218 267 266
3 220 268 219
3 219 268 267
3 221 269 220
3 220 269 268
3 222 270 221
3 221 270 269
3 264 222 216
3 270 222 264
3 271 272 273
3 271 225 224
3 271 273 225
3 273 274 225
3 226 225 275
3 225 274 275
3 275 228 226
3 276 228 275
3 277 272 271
3 278 272 277
3 224 229 277
3 271 224 277
3 228 276 230
3 276 279 230
3 232 278 277
3 232 231 278
3 231 280 278
3 229 232 277
3 230 279 281
3 233 230 281
3 281 234 233
3 282 234 281
3 283 284 285
3 283 236 235
3 283 285 236
3 285 286 236
3 280 231 236
3 286 280 236
3 234 282 237
3 282 287 237
3 288 289 290
3 284 288 290
3 283 288 284
3 283 239 288
3 283 240 239
3 235 240 283
3 237 287 241
3 287 291 241
3 244 289 288
3 244 243 289
3 243 292 289
3 239 244 288
3 241 291 245
3 291 293 245
3 248 294 295
3 247 294 248
3 292 243 248
3 295 292 248
3 245 293 249
3 293 296 249
3 252 297 298
3 251 297 252
3 294 247 252
3 298 294 252
3 249 296 253
3 296 299 253
3 251 254 297
3 297 254 300
3 255 301 302
3 256 255 302
3 299 255 253
3 301 255 299
3 254 257 300
3 300 257 303
3 256 302 258
3 302 304 258
3 257 259 303
3 303 259 305
3 260 306 307
3 261 260 307
3 304 260 258
3 306 260 304
3 259 262 305
3 305 262 308
3 263 309 264
3 310 309 263
3 310 263 311
3 311 263 265
3 307 265 261
3 311 265 307
3 262 312 308
3 266 312 262
3 267 313 266
3 266 313 312
3 268 314 267
3 267 314 313
3 269 315 268
3 268 315 314
3 270 316 269
3 269 316 315
3 309 270 264
3 309 317 270
3 317 316 270
3 310 317 309
3 318 319 320
3 318 321 322
3 320 321 318
3 322 323 324
3 321 323 322
3 323 325 324
3 273 319 318
3 273 272 319
3 272 326 319
3 274 273 318
3 322 274 318
3 275 274 322
3 324 275 322
3 324 276 275
3 324 325 276
3 325 327 276
3 272 278 326
3 326 278 328
3 276 327 279
3 327 329 279
3 330 331 332
3 330 332 328
3 330 328 280
3 280 328 278
3 279 329 333
3 281 279 333
3 333 282 281
3 334 282 333
3 285 335 336
3 284 335 285
3 331 330 286
3 331 286 336
3 336 286 285
3 280 286 330
3 282 334 287
3 334 337 287
3 290 338 339
3 289 338 290
3 335 284 290
3 339 335 290
3 287 337 291
3 337 340 291
3 289 292 338
3 338 292 341
3 291 340 293
3 340 342 293
3 295 343 344
3 294 343 295
3 341 292 295
3 344 341 295
3 293 342 296
3 342 345 296
3 298 346 347
3 297 346 298
3 343 294 298
3 347 343 298
3 296 345 299
3 345 348 299
3 297 300 346
3 346 300 349
3 301 350 351
3 302 301 351
3 348 301 299
3 350 301 348
3 300 303 349
3 349 303 352
3 302 351 304
3 351 353 304
3 303 305 352
3 352 305 354
3 306 355 356
3 307 306 356
3 353 306 304
3 355 306 353
3 305 308 354
3 354 308 357
3 311 358 359
3 310 311 359
3 356 311 307
3 358 311 356
3 308 360 357
3 312 360 308
3 313 361 312
3 312 361 360
3 314 362 313
3 313 362 361
3 315 363 314
3 314 363 362
3 316 364 315
3 315 364 363
3 317 365 316
3 316 365 364
3 359 317 310
3 365 317 359
3 366 367 368
3 366 369 370
3 368 369 366
3 369 371 370
3 320 367 366
3 320 319 367
3 319 372 367
3 321 320 366
3 370 321 366
3 370 371 373
3 370 373 321
3 321 373 323
3 373 325 323
3 374 325 373
3 375 376 377
3 375 377 372
3 375 372 326
3 326 372 319
3 325 374 327
3 374 378 327
3 379 376 375
3 380 376 379
3 326 328 379
3 375 326 379
3 327 378 329
3 378 381 329
3 382 383 384
3 380 382 384
3 379 382 380
3 379 331 382
3 379 332 331
3 328 332 379
3 329 381 385
3 333 329 385
3 385 334 333
3 386 334 385
3 387 388 389
3 383 387 389
3 382 387 383
3 382 335 387
3 382 336 335
3 331 336 382
3 334 386 337
3 386 390 337
3 339 388 387
3 339 338 388
3 338 391 388
3 335 339 387
3 337 390 340
3 390 392 340
3 393 394 395
3 393 395 391
3 393 391 341
3 341 391 338
3 340 392 342
3 392 396 342
3 397 398 399
3 394 397 399
3 393 397 394
3 393 343 397
3 393 344 343
3 341 344 393
3 400 401 402
3 400 396 401
3 400 345 396
3 345 342 396
3 347 398 397
3 347 346 398
3 346 403 398
3 343 347 397
3 404 400 402
3 405 404 402
3 345 404 348
3 400 404 345
3 346 349 403
3 403 349 406
3 350 404 405
3 350 405 351
3 351 405 407
3 348 404 350
3 349 352 406
3 406 352 408
3 351 407 353
3 407 409 353
3 352 354 408
3 408 354 410
3 355 411 412
3 356 355 412
3 409 355 353
3 411 355 409
3 413 357 414
3 413 410 357
3 410 354 357
3 413 414 415
3 358 416 417
3 359 358 417
3 412 358 356
3 416 358 412
3 357 360 414
3 414 418 415
3 414 360 418
3 360 361 418
3 362 419 361
3 361 419 418
3 363 420 362
3 362 420 419
3 364 421 363
3 363 421 420
3 365 422 364
3 364 422 421
3 417 365 359
3 422 365 417
3 423 424 425
3 423 368 367
3 423 425 368
3 425 426 368
3 369 368 427
3 368 426 427
3 427 371 369
3 428 371 427
3 429 424 423
3 430 424 429
3 367 372 429
3 423 367 429
3 371 428 431
3 373 371 431
3 431 374 373
3 432 374 431
3 433 434 435
3 430 433 435
3 429 433 430
3 429 376 433
3 429 377 376
3 372 377 429
3 374 432 378
3 432 436 378
3 437 434 433
3 438 434 437
3 376 380 437
3 433 376 437
3 439 440 381
3 439 381 436
3 436 381 378
3 439 441 440
3 442 443 444
3 438 442 444
3 437 442 438
3 437 383 442
3 437 384 383
3 380 384 437
3 381 440 385
3 440 386 385
3 440 441 386
3 441 445 386
3 389 443 442
3 389 388 443
3 388 446 443
3 383 389 442
3 386 445 390
3 445 447 390
3 388 391 446
3 446 391 448
3 390 447 392
3 447 449 392
3 395 450 451
3 394 450 395
3 448 391 395
3 451 448 395
3 392 449 396
3 449 452 396
3 399 453 454
3 398 453 399
3 450 394 399
3 454 450 399
3 401 455 456
3 402 401 456
3 452 401 396
3 455 401 452
3 398 403 453
3 453 403 457
3 402 456 405
3 456 458 405
3 403 406 457
3 457 406 459
3 405 458 407
3 458 460 407
3 406 408 459
3 459 408 461
3 462 463 464
3 462 460 463
3 462 409 460
3 409 407 460
3 465 410 466
3 465 461 410
3 461 408 410
3 465 466 467
3 468 469 470
3 464 469 468
3 462 464 468
3 462 468 412
3 462 412 411
3 409 462 411
3 410 413 466
3 466 413 415
3 466 415 467
3 467 415 471
3 472 473 474
3 472 475 476
3 473 472 476
3 470 476 475
3 468 470 475
3 468 475 417
3 468 417 416
3 412 468 416
3 415 477 471
3 418 477 415
3 419 478 418
3 418 478 477
3 420 479 419
3 419 479 478
3 474 421 472
3 474 479 421
3 479 420 421
3 422 472 421
3 475 472 422
3 417 475 422
3 480 481 482
3 480 483 484
3 482 483 480
3 483 485 484
3 425 486 487
3 424 486 425
3 481 480 426
3 481 426 487
3 487 426 425
3 427 426 480
3 484 427 480
3 484 428 427
3 484 485 428
3 485 488 428
3 489 490 491
3 489 491 486
3 489 486 430
3 430 486 424
3 428 488 492
3 431 428 492
3 492 432 431
3 493 432 492
3 494 495 496
3 490 494 496
3 489 494 490
3 489 434 494
3 489 435 434
3 430 435 489
3 432 493 436
3 493 497 436
3 498 495 494
3 499 495 498
3 434 438 498
3 494 434 498
3 436 497 500
3 439 436 500
3 500 441 439
3 501 441 500
3 444 499 498
3 444 443 499
3 443 502 499
3 438 444 498
3 441 501 445
3 501 503 445
3 504 505 506
3 504 506 502
3 504 502 446
3 446 502 443
3 445 503 447
3 503 507 447
3 508 505 504
3 509 505 508
3 446 448 508
3 504 446 508
3 447 507 449
3 507 510 449
3 511 512 513
3 509 511 513
3 508 511 509
3 508 450 511
3 508 451 450
3 448 451 508
3 449 510 452
3 510 514 452
3 454 512 511
3 454 453 512
3 453 515 512
3 450 454 511
3 455 516 517
3 456 455 517
3 514 455 452
3 516 455 514
3 453 457 515
3 515 457 518
3 456 517 458
3 517 519 458
3 457 459 518
3 518 459 520
3 521 522 523
3 521 519 522
3 521 460 519
3 460 458 519
3 459 461 520
3 520 461 524
3 525 526 527
3 525 528 529
3 526 525 529
3 528 530 531
3 529 528 531
3 523 531 530
3 521 523 530
3 521 530 464
3 521 464 463
3 460 521 463
3 461 532 524
3 465 532 461
3 532 465 467
3 533 532 467
3 534 525 527
3 535 534 527
3 528 525 536
3 536 525 534
3 469 536 470
3 469 530 536
3 530 528 536
3 464 530 469
3 537 471 538
3 537 533 471
3 533 467 471
3 538 539 540
3 537 538 540
3 539 541 542
3 540 539 542
3 535 542 541
3 534 535 541
3 534 541 474
3 534 474 473
3 476 534 473
3 536 534 476
3 470 536 476
3 471 477 538
3 478 538 477
3 539 538 478
3 479 539 478
3 541 539 479
3 474 541 479
3 543 544 545
3 543 546 547
3 545 546 543
3 547 548 549
3 546 548 547
3 548 550 549
3 551 544 543
3 552 544 551
3 482 481 551
3 482 551 547
3 547 551 543
3 483 482 547
3 549 483 547
3 549 485 483
3 549 550 485
3 550 553 485
3 554 555 556
3 552 554 556
3 551 554 552
3 551 486 554
3 551 487 486
3 481 487 551
3 485 553 488
3 553 557 488
3 558 559 560
3 555 558 560
3 554 558 555
3 554 490 558
3 554 491 490
3 486 491 554
3 488 557 561
3 492 488 561
3 561 493 492
3 562 493 561
3 496 559 558
3 496 495 559
3 495 563 559
3 490 496 558
3 493 562 497
3 562 564 497
3 565 566 567
3 565 567 563
3 565 563 499
3 499 563 495
3 568 500 497
3 568 497 569
3 569 497 564
3 500 568 501
3 570 566 565
3 571 566 570
3 499 502 570
3 565 499 570
3 568 569 572
3 572 501 568
3 572 573 501
3 573 503 501
3 506 571 570
3 506 505 571
3 505 574 571
3 502 506 570
3 503 573 507
3 573 575 507
3 576 577 578
3 576 578 574
3 576 574 509
3 509 574 505
3 507 575 510
3 575 579 510
3 513 577 576
3 513 512 577
3 512 580 577
3 509 513 576
3 581 582 583
3 581 579 582
3 581 514 579
3 514 510 579
3 512 515 580
3 580 515 584
3 516 581 583
3 516 583 517
3 517 583 585
3 514 581 516
3 515 518 584
3 584 518 586
3 517 585 519
3 585 587 519
3 588 520 589
3 588 586 520
3 586 518 520
3 588 589 590
3 591 592 593
3 591 523 522
3 591 522 592
3 592 522 594
3 587 522 519
3 594 522 587
3 589 524 595
3 520 524 589
3 596 590 589
3 595 596 589
3 526 597 598
3 527 526 598
3 529 599 526
3 526 599 597
3 593 531 591
3 593 599 531
3 599 529 531
3 523 591 531
3 524 532 595
3 533 600 601
3 532 533 601
3 532 601 596
3 532 596 595
3 600 602 603
3 601 600 603
3 602 604 605
3 603 602 605
3 604 598 605
3 604 535 598
3 535 527 598
3 533 537 600
3 540 600 537
3 602 600 540
3 542 602 540
3 604 602 542
3 535 604 542
3 606 607 608
3 606 609 610
3 608 609 606
3 610 545 544
3 610 609 545
3 609 611 545
3 546 545 612
3 545 611 612
3 548 546 613
3 546 612 613
3 613 550 548
3 614 550 613
3 615 607 606
3 616 607 615
3 610 617 606
3 617 615 606
3 544 552 617
3 610 544 617
3 550 614 553
3 614 618 553
3 619 616 615
3 620 616 619
3 556 555 619
3 556 619 617
3 617 619 615
3 552 556 617
3 553 618 557
3 618 621 557
3 622 623 624
3 620 622 624
3 619 622 620
3 619 559 622
3 619 560 559
3 555 560 619
3 625 561 557
3 625 557 626
3 626 557 621
3 561 625 562
3 627 623 622
3 628 623 627
3 559 563 627
3 622 559 627
3 625 626 629
3 629 562 625
3 629 630 562
3 630 564 562
3 567 628 627
3 567 566 628
3 566 631 628
3 563 567 627
3 564 630 569
3 630 632 569
3 566 571 631
3 631 571 633
3 634 572 569
3 634 569 635
3 635 569 632
3 572 634 573
3 571 574 633
3 633 574 636
3 637 634 635
3 638 637 635
3 573 637 575
3 634 637 573
3 578 639 640
3 577 639 578
3 636 574 578
3 640 636 578
3 641 642 643
3 638 642 641
3 638 641 637
3 637 641 644
3 575 644 579
3 637 644 575
3 577 580 639
3 639 580 645
3 646 641 643
3 647 646 643
3 582 646 583
3 582 644 646
3 644 641 646
3 579 644 582
3 580 584 645
3 645 584 648
3 649 646 647
3 650 649 647
3 583 649 585
3 646 649 583
3 584 586 648
3 648 586 651
3 652 653 654
3 650 653 652
3 650 652 649
3 649 652 655
3 585 655 587
3 649 655 585
3 586 656 651
3 588 656 586
3 590 657 658
3 590 658 588
3 588 658 656
3 658 657 659
3 660 661 662
3 654 661 660
3 652 654 660
3 652 660 593
3 652 593 592
3 594 652 592
3 655 652 594
3 587 655 594
3 657 596 663
3 590 596 657
3 664 659 657
3 664 657 665
3 665 657 663
3 665 666 667
3 664 665 667
3 666 598 597
3 666 597 667
3 667 597 668
3 662 599 660
3 662 668 599
3 668 597 599
3 593 660 599
3 596 601 663
3 603 663 601
3 665 663 603
3 605 665 603
3 666 665 605
3 598 666 605
3 669 670 671
3 669 672 673
3 671 672 669
3 673 674 675
3 672 674 673
3 674 676 675
3 677 678 679
3 670 677 679
3 670 669 677
3 669 680 677
3 673 681 669
3 681 680 669
3 675 682 673
3 682 681 673
3 683 675 676
3 682 675 683
3 608 678 677
3 608 607 678
3 607 684 678
3 609 608 677
3 680 609 677
3 611 609 680
3 681 611 680
3 612 611 681
3 682 612 681
3 682 683 685
3 682 685 612
3 612 685 613
3 685 614 613
3 686 614 685
3 607 616 684
3 684 616 687
3 614 686 618
3 686 688 618
3 689 690 691
3 689 691 687
3 689 687 620
3 620 687 616
3 618 688 621
3 688 692 621
3 624 690 689
3 624 623 690
3 623 693 690
3 620 624 689
3 621 692 626
3 692 694 626
3 623 628 693
3 693 628 695
3 626 694 696
3 629 626 696
3 696 630 629
3 697 630 696
3 628 631 695
3 695 631 698
3 630 697 632
3 697 699 632
3 631 633 698
3 698 633 700
3 632 699 635
3 699 701 635
3 633 636 700
3 700 636 702
3 635 701 638
3 701 703 638
3 640 639 704
3 640 704 705
3 640 705 636
3 636 705 702
3 642 706 707
3 643 642 707
3 703 642 638
3 706 642 703
3 704 645 708
3 639 645 704
3 709 705 704
3 708 709 704
3 643 707 647
3 707 710 647
3 708 648 711
3 645 648 708
3 712 709 708
3 711 712 708
3 713 714 715
3 713 710 714
3 713 650 710
3 650 647 710
3 711 651 716
3 648 651 711
3 717 712 711
3 716 717 711
3 718 719 720
3 718 721 722
3 719 718 722
3 715 722 721
3 713 715 721
3 713 721 654
3 713 654 653
3 650 713 653
3 651 656 716
3 716 723 717
3 716 656 723
3 656 658 723
3 659 724 725
3 659 725 658
3 658 725 723
3 724 726 727
3 725 724 727
3 720 727 726
3 720 726 718
3 718 726 728
3 661 728 662
3 661 721 728
3 721 718 728
3 654 721 661
3 659 664 724
3 667 724 664
3 726 724 667
3 668 726 667
3 728 726 668
3 662 728 668
3 729 730 731
3 729 732 733
3 731 732 729
3 732 734 733
3 735 730 729
3 736 730 735
3 733 737 729
3 737 735 729
3 738 733 734
3 737 733 738
3 735 739 736
3 737 739 735
3 740 739 737
3 738 740 737
3 741 742 743
3 741 744 745
3 743 744 741
3 745 746 747
3 744 746 745
3 746 748 747
3 749 742 741
3 750 742 749
3 671 670 749
3 671 749 745
3 745 749 741
3 672 671 745
3 747 672 745
3 747 748 751
3 747 751 672
3 672 751 674
3 751 676 674
3 752 676 751
3 679 750 749
3 679 678 750
3 678 753 750
3 670 679 749
3 676 752 683
3 752 754 683
3 755 756 757
3 755 757 753
3 755 753 684
3 684 753 678
3 683 754 758
3 685 683 758
3 758 686 685
3 759 686 758
3 760 756 755
3 761 756 760
3 684 687 760
3 755 684 760
3 686 759 688
3 759 762 688
3 691 761 760
3 691 690 761
3 690 763 761
3 687 691 760
3 688 762 692
3 762 764 692
3 690 693 763
3 763 693 765
3 692 764 694
3 764 766 694
3 693 695 765
3 765 695 767
3 768 696 694
3 768 694 769
3 769 694 766
3 696 768 697
3 695 698 767
3 767 698 770
3 771 768 769
3 772 771 769
3 697 771 699
3 768 771 697
3 698 700 770
3 770 700 773
3 774 771 772
3 775 774 772
3 699 774 701
3 771 774 699
3 700 702 773
3 773 702 776
3 777 774 775
3 778 777 775
3 701 777 703
3 774 777 701
3 702 705 776
3 776 705 779
3 780 781 782
3 778 781 780
3 777 778 780
3 777 780 707
3 777 707 706
3 703 777 706
3 705 709 779
3 779 709 783
3 784 785 786
3 784 787 788
3 785 784 788
3 782 788 787
3 782 787 780
3 780 787 789
3 707 789 710
3 780 789 707
3 790 712 791
3 790 783 712
3 783 709 712
3 791 792 793
3 790 791 793
3 792 794 795
3 793 792 795
3 786 795 794
3 786 794 784
3 784 794 796
3 787 784 797
3 797 784 796
3 714 797 715
3 714 789 797
3 789 787 797
3 710 789 714
3 791 717 798
3 712 717 791
3 792 791 799
3 799 791 798
3 794 792 800
3 800 792 799
3 719 800 720
3 719 796 800
3 796 794 800
3 722 796 719
3 797 796 722
3 715 797 722
3 717 723 798
3 725 798 723
3 799 798 725
3 727 799 725
3 800 799 727
3 720 800 727
3 801 802 803
3 801 804 805
3 803 804 801
3 804 806 805
3 807 802 801
3 808 802 807
3 731 730 807
3 731 807 805
3 805 807 801
3 805 806 809
3 805 809 731
3 731 809 732
3 809 734 732
3 810 734 809
3 811 808 807
3 812 808 811
3 730 736 811
3 807 730 811
3 734 810 738
3 810 813 738
3 814 812 811
3 815 812 814
3 736 739 816
3 736 816 811
3 811 816 814
3 739 740 817
3 816 739 817
3 740 818 817
3 740 738 818
3 738 813 818
3 819 815 814
3 820 815 819
3 816 821 814
3 821 819 814
3 817 822 816
3 822 821 816
3 823 817 818
3 823 824 817
3 824 822 817
3 823 825 824
3 826 820 819
3 827 820 826
3 821 828 819
3 828 826 819
3 822 829 821
3 829 828 821
3 824 830 822
3 830 829 822
3 831 824 825
3 830 824 831
3 826 832 827
3 832 833 834
3 832 826 833
3 826 828 833
3 829 835 828
3 835 833 828
3 830 836 829
3 836 835 829
3 837 830 831
3 836 830 837
3 838 834 833
3 839 834 838
3 835 840 833
3 840 838 833
3 836 841 835
3 841 840 835
3 842 836 837
3 841 836 842
3 838 843 839
3 843 844 845
3 843 838 844
3 838 840 844
3 841 846 840
3 846 844 840
3 847 841 842
3 847 848 841
3 848 846 841
3 847 849 848
3 743 845 844
3 743 742 845
3 742 850 845
3 744 743 844
3 846 744 844
3 746 744 846
3 848 746 846
3 848 748 746
3 848 849 748
3 849 851 748
3 852 853 854
3 852 854 850
3 852 850 750
3 750 850 742
3 748 851 855
3 751 748 855
3 855 752 751
3 856 752 855
3 857 853 852
3 858 853 857
3 750 753 857
3 852 750 857
3 752 856 754
3 856 859 754
3 757 858 857
3 757 756 858
3 756 860 858
3 753 757 857
3 861 758 754
3 861 754 862
3 862 754 859
3 758 861 759
3 756 761 860
3 860 761 863
3 861 862 864
3 864 759 861
3 864 865 759
3 865 762 759
3 761 763 863
3 863 763 866
3 762 865 764
3 865 867 764
3 763 765 866
3 866 765 868
3 869 870 871
3 869 867 870
3 869 766 867
3 766 764 867
3 765 767 868
3 868 767 872
3 873 869 871
3 874 873 871
3 766 873 769
3 869 873 766
3 767 770 872
3 872 770 875
3 876 873 874
3 877 876 874
3 769 876 772
3 873 876 769
3 770 773 875
3 875 773 878
3 879 880 881
3 877 880 879
3 877 879 876
3 876 879 882
3 772 882 775
3 876 882 772
3 773 776 878
3 878 776 883
3 884 879 881
3 885 884 881
3 882 879 886
3 886 879 884
3 775 886 778
3 882 886 775
3 776 779 883
3 883 779 887
3 888 884 885
3 889 888 885
3 781 888 782
3 781 886 888
3 886 884 888
3 778 886 781
3 890 783 891
3 890 887 783
3 887 779 783
3 891 892 893
3 890 891 893
3 892 894 895
3 893 892 895
3 894 786 785
3 894 785 895
3 895 785 896
3 889 788 888
3 889 896 788
3 896 785 788
3 782 888 788
3 783 790 891
3 793 891 790
3 892 891 793
3 795 892 793
3 894 892 795
3 786 894 795
3 803 897 898
3 802 897 803
3 804 803 899
3 803 898 899
3 899 806 804
3 900 806 899
3 802 808 897
3 897 808 901
3 806 900 902
3 809 806 902
3 902 810 809
3 903 810 902
3 808 812 901
3 901 812 904
3 810 903 813
3 903 905 813
3 812 815 904
3 904 815 906
3 813 905 818
3 905 907 818
3 815 820 906
3 906 820 908
3 818 907 909
3 823 818 909
3 909 825 823
3 910 825 909
3 820 827 908
3 908 827 911
3 825 910 831
3 910 912 831
3 913 827 832
3 913 914 827
3 914 911 827
3 832 834 913
3 831 912 837
3 912 915 837
3 913 916 914
3 916 913 834
3 916 834 917
3 917 834 839
3 837 915 842
3 915 918 842
3 839 919 917
3 843 919 839
3 919 843 845
3 920 919 845
3 842 918 921
3 847 842 921
3 921 849 847
3 922 849 921
3 845 850 920
3 920 850 923
3 849 922 851
3 922 924 851
3 854 925 926
3 853 925 854
3 923 850 854
3 926 923 854
3 851 924 927
3 855 851 927
3 927 856 855
3 928 856 927
3 853 858 925
3 925 858 929
3 856 928 859
3 928 930 859
3 858 860 929
3 929 860 931
3 859 930 862
3 930 932 862
3 860 863 931
3 931 863 933
3 934 864 862
3 934 862 935
3 935 862 932
3 864 934 865
3 863 866 933
3 933 866 936
3 937 934 935
3 938 937 935
3 865 937 867
3 934 937 865
3 866 868 936
3 936 868 939
3 870 937 938
3 870 938 871
3 871 938 940
3 867 937 870
3 868 872 939
3 939 872 941
3 942 943 944
3 942 940 943
3 942 874 940
3 874 871 940
3 945 875 946
3 945 941 875
3 941 872 875
3 946 947 948
3 945 946 948
3 947 949 950
3 948 947 950
3 949 951 952
3 950 949 952
3 944 952 951
3 944 951 942
3 942 951 953
3 874 953 877
3 942 953 874
3 946 878 954
3 875 878 946
3 947 946 955
3 955 946 954
3 949 947 956
3 956 947 955
3 951 949 957
3 957 949 956
3 880 957 881
3 880 953 957
3 953 951 957
3 877 953 880
3 954 883 958
3 878 883 954
3 955 954 959
3 959 954 958
3 956 955 960
3 960 955 959
3 957 956 961
3 961 956 960
3 881 961 885
3 957 961 881
3 958 887 962
3 883 887 958
3 959 958 963
3 963 958 962
3 960 959 964
3 964 959 963
3 961 960 965
3 965 960 964
3 885 965 889
3 961 965 885
3 887 890 962
3 893 962 890
3 963 962 893
3 895 963 893
3 964 963 895
3 896 964 895
3 965 964 896
3 889 965 896
3 898 897 966
3 898 967 899
3 966 967 898
3 899 967 900
3 966 901 968
3 897 901 966
3 967 966 969
3 969 966 968
3 900 970 902
3 900 967 970
3 967 969 970
3 902 970 903
3 968 971 972
3 968 901 971
3 901 904 971
3 969 968 972
3 973 969 972
3 970 969 973
3 974 970 973
3 974 903 970
3 974 975 903
3 975 905 903
3 904 906 971
3 971 906 976
3 905 975 907
3 975 977 907
3 906 908 976
3 976 908 978
3 907 977 979
3 909 907 979
3 979 910 909
3 980 910 979
3 908 911 978
3 978 911 981
3 910 980 912
3 980 982 912
3 911 914 981
3 981 914 983
3 912 982 915
3 982 984 915
3 914 985 983
3 916 985 914
3 985 916 917
3 986 985 917
3 915 984 918
3 984 987 918
3 917 988 986
3 919 988 917
3 920 989 990
3 920 990 919
3 919 990 988
3 989 991 992
3 990 989 992
3 921 991 993
3 921 987 991
3 921 918 987
3 992 991 987
3 921 993 922
3 989 923 994
3 920 923 989
3 991 989 995
3 995 989 994
3 993 991 996
3 996 991 995
3 922 996 924
3 993 996 922
3 926 997 998
3 925 997 926
3 994 923 926
3 994 926 999
3 999 926 998
3 995 994 999
3 1000 995 999
3 1000 1001 1002
3 1000 1002 995
3 995 1002 996
3 924 1003 927
3 924 996 1003
3 996 1002 1003
3 927 1003 928
3 925 929 997
3 997 929 1004
3 1005 1002 1001
3 1006 1005 1001
3 1003 1002 1007
3 1007 1002 1005
3 928 1007 930
3 1003 1007 928
3 929 931 1004
3 1004 931 1008
3 1009 1005 1006
3 1010 1009 1006
3 1007 1005 1011
3 1011 1005 1009
3 930 1011 932
3 1007 1011 930
3 931 933 1008
3 1008 933 1012
3 1013 1009 1010
3 1014 1013 1010
3 1011 1009 1015
3 1015 1009 1013
3 932 1015 935
3 1011 1015 932
3 933 936 1012
3 1012 936 1016
3 1017 1013 1014
3 1018 1017 1014
3 1015 1013 1019
3 1019 1013 1017
3 935 1019 938
3 1015 1019 935
3 1020 939 1021
3 1020 1016 939
3 1016 936 939
3 1021 1022 1023
3 1020 1021 1023
3 1022 1024 1025
3 1023 1022 1025
3 1018 1025 1024
3 1018 1024 1017
3 1017 1024 1026
3 1019 1017 1027
3 1027 1017 1026
3 938 1027 940
3 1019 1027 938
3 1021 941 1028
3 939 941 1021
3 1022 1021 1029
3 1029 1021 1028
3 1024 1022 1030
3 1030 1022 1029
3 1026 1024 1031
3 1031 1024 1030
3 943 1031 944
3 943 1027 1031
3 1027 1026 1031
3 940 1027 943
3 941 945 1028
3 948 1028 945
3 1029 1028 948
3 950 1029 948
3 1030 1029 950
3 952 1030 950
3 1031 1030 952
3 944 1031 952
3 972 971 1032
3 972 1033 973
3 1032 1033 972
3 973 1034 974
3 1033 1034 973
3 974 1034 975
3 1032 976 1035
3 971 976 1032
3 1033 1032 1036
3 1036 1032 1035
3 1034 1033 1037
3 1037 1033 1036
3 975 1037 977
3 1034 1037 975
3 1035 978 1038
3 976 978 1035
3 1036 1035 1039
3 1039 1035 1038
3 1037 1036 1040
3 1040 1036 1039
3 977 1041 979
3 977 1037 1041
3 1037 1040 1041
3 979 1041 980
3 1038 981 1042
3 978 981 1038
3 1039 1038 1043
3 1043 1038 1042
3 1040 1039 1044
3 1044 1039 1043
3 1041 1040 1045
3 1045 1040 1044
3 980 1045 982
3 1041 1045 980
3 1042 983 1046
3 981 983 1042
3 1043 1042 1047
3 1047 1042 1046
3 1044 1043 1048
3 1048 1043 1047
3 1045 1044 1049
3 1049 1044 1048
3 982 1049 984
3 1045 1049 982
3 983 985 1046
3 986 1046 985
3 986 1050 1046
3 1050 1047 1046
3 1048 1047 1051
3 1051 1047 1050
3 1049 1048 1052
3 1052 1048 1051
3 984 1052 987
3 1049 1052 984
3 986 988 1050
3 990 1050 988
3 1051 1050 990
3 992 1051 990
3 1052 1051 992
3 987 1052 992
3 998 997 1053
3 998 1054 999
3 1053 1054 998
3 999 1055 1000
3 1054 1055 999
3 1000 1055 1001
3 1053 1004 1056
3 997 1004 1053
3 1054 1053 1057
3 1057 1053 1056
3 1055 1054 1058
3 1058 1054 1057
3 1001 1058 1006
3 1055 1058 1001
3 1056 1008 1059
3 1004 1008 1056
3 1057 1056 1060
3 1060 1056 1059
3 1058 1057 1061
3 1061 1057 1060
3 1006 1061 1010
3 1058 1061 1006
3 1059 1012 1062
3 1008 1012 1059
3 1060 1059 1063
3 1063 1059 1062
3 1061 1060 1064
3 1064 1060 1063
3 1010 1064 1014
3 1061 1064 1010
3 1062 1016 1065
3 1012 1016 1062
3 1063 1062 1066
3 1066 1062 1065
3 1064 1063 1067
3 1067 1063 1066
3 1014 1067 1018
3 1064 1067 1014
3 1016 1020 1065
3 1023 1065 1020
3 1066 1065 1023
3 1025 1066 1023
3 1067 1066 1025
3 1018 1067 1025
