# vtk DataFile Version 3.0
this file was written using fslvtkio
ASCII
DATASET POLYDATA
POINTS 642 float
91.0529 102.123 85.0988
87.4545 100.993 82.3615
89.3064 101.568 80.5813
91.8947 101.862 83.2965
92.5025 100.263 83.1453
90.0715 103.91 83.7657
87.8874 103.542 82.207
90.4506 100.003 81.5843
89.6928 100.57 83.7792
92.2421 100.894 80.5386
90.1074 102.522 81.8611
88.2435 102.869 84.2405
89.9172 99.9359 82.7161
91.0704 100.15 83.8097
91.7145 99.7404 82.123
91.7639 100.15 80.6061
92.9239 100.213 81.6059
87.4839 103.569 83.5132
88.8136 104.383 83.129
88.8953 103.735 84.2517
89.1306 103.189 81.8951
90.0242 103.374 82.8421
93.1706 101.122 83.3096
91.9525 101.099 84.4294
92.25 102.401 84.4827
91.1477 103.051 83.6432
90.4877 103.072 84.512
88.7883 100.11 81.7968
89.8621 100.539 80.8354
88.1457 101.167 81.3042
87.1162 102.35 82.2628
88.4103 102.42 81.2414
89.5997 102.499 84.6223
90.3349 101.241 84.6896
88.9252 101.685 84.1127
87.6355 102.073 83.3927
88.5733 100.599 83.1286
90.9651 102.312 82.4529
91.0082 101.731 81.1034
92.1492 101.062 82.1457
89.7515 102.167 80.7922
90.8113 101.091 80.2654
90.6005 99.9385 83.2068
91.4133 99.8903 82.9552
90.8356 99.8116 82.4897
92.2525 99.8864 82.6168
91.8684 100.135 83.4824
90.3849 100.417 83.7658
89.8196 100.216 83.3321
90.2284 99.9638 82.1217
91.0765 99.8169 81.7553
91.8129 99.8713 81.3081
92.4044 99.8998 81.7688
92.5774 99.975 80.8382
92.9383 100.184 82.4343
91.0315 99.982 81.1198
92.258 100.446 80.2675
92.6925 100.531 81.0036
88.1091 104.08 83.3992
88.7581 104.157 83.8225
88.1638 103.883 83.9576
89.5178 103.875 84.025
89.4873 104.287 83.5413
88.2824 104.009 82.6288
87.664 103.615 82.8312
87.7341 103.316 84.0534
88.513 103.337 84.2508
89.5622 103.375 82.3995
89.4429 103.899 82.9036
88.9773 103.806 82.4361
90.0352 103.743 83.3061
89.9663 102.877 82.3829
89.5851 102.77 81.9521
88.5313 103.491 82.0029
92.7758 101.092 84.0008
92.37 101.698 84.5877
92.8217 101.704 83.9842
91.7545 102.305 85.0623
91.5378 101.64 84.9935
92.2932 100.608 83.8009
93.0227 100.615 83.1928
92.4718 101.438 83.3274
92.171 102.133 83.836
91.7377 102.731 84.0396
91.4429 102.773 84.6475
91.1028 103.244 84.1669
90.8125 102.616 84.8644
91.5433 102.523 83.4621
90.6216 103.486 83.7118
90.2601 103.552 84.17
89.2359 100.418 81.4538
88.955 100.857 81.1795
88.3672 100.566 81.5247
88.8015 101.404 81.0192
89.5849 101.019 80.6694
90.2216 100.261 81.2237
89.662 100.145 81.7888
87.9078 100.437 82.0931
87.5832 100.961 81.7422
87.4202 101.639 81.5545
88.1638 101.808 81.2841
87.5773 102.352 81.6081
88.8638 101.983 80.8431
87.2671 101.652 82.3258
87.4431 103.025 82.2777
88.0236 102.995 81.7573
90.0021 101.902 84.6597
89.6362 101.504 84.3768
89.2589 102.101 84.4518
89.2867 101.076 83.9404
90.0117 100.9 84.1865
90.7115 101.668 85.0334
90.3397 102.315 84.8819
88.8628 102.714 84.4619
88.5298 102.256 84.168
88.2138 101.81 83.8112
88.6679 101.158 83.6844
88.0369 101.284 83.3371
89.1566 100.557 83.4532
87.8315 102.543 83.9162
87.5272 101.526 82.8987
87.963 100.749 82.7496
91.002 102.006 81.7697
91.5362 101.402 81.5824
91.4791 101.682 82.2392
92.2225 100.955 81.4842
91.6279 101.261 80.7538
90.5093 102.138 81.4713
90.5378 102.441 82.1061
91.3852 102.094 82.8571
92.0493 101.348 82.7493
90.2271 101.721 80.33
90.9831 101.4 80.5557
90.4116 101.958 80.8701
91.6931 100.956 80.1569
89.9427 101.299 80.276
89.509 101.922 80.3991
89.9275 102.317 81.3834
91.5283 100.549 84.1934
90.7324 100.727 84.2558
91.1558 101.076 84.7888
89.9589 102.859 84.678
89.2042 103.178 84.5321
89.6556 103.42 84.4438
92.8143 100.815 81.8611
93.3906 100.633 82.4522
92.7667 101.071 82.6641
90.9448 102.692 83.0988
90.5576 103.225 83.216
90.4813 102.827 82.701
89.1547 100.15 82.9144
89.3145 99.9159 82.2755
88.5039 100.155 82.4742
87.1332 102.3 82.9643
87.217 103.007 82.8928
87.3043 102.859 83.4808
90.3976 100.724 80.3534
90.7767 100.308 80.6305
91.3329 100.57 80.2381
89.3959 102.623 81.3351
88.821 102.938 81.3789
89.143 102.431 80.8047
91.0185 99.8936 83.0736
91.1328 99.8319 82.6907
90.7383 99.842 82.8228
91.2524 99.7311 82.3237
91.5456 99.8272 82.553
91.2391 99.9947 83.3761
90.8568 100.012 83.4898
90.3028 99.977 82.9303
90.4308 99.9007 82.5902
91.8416 99.8815 82.8024
91.6275 99.985 83.2376
92.0637 99.98 83.0744
91.4668 100.148 83.6452
92.025 99.8016 82.3395
92.4112 100.064 82.9206
92.2074 100.222 83.3222
90.501 100.188 83.4879
90.2313 100.125 83.2225
90.1491 100.305 83.5195
89.8564 100.054 83.0314
90.715 100.249 83.8035
90.0453 100.532 83.7419
89.7904 100.421 83.5562
90.542 99.896 82.2906
90.9454 99.7176 82.1154
90.6339 99.8392 81.9864
91.3892 99.7124 81.9066
90.0635 99.907 82.4099
90.3073 99.9512 81.8602
90.7296 99.8764 81.638
92.1864 99.7921 81.4684
92.4882 99.9065 81.2918
92.2286 99.8608 81.0041
92.7269 100.088 81.1927
92.6704 100.064 81.6837
92.1269 99.7853 81.895
91.8242 99.7461 81.7095
91.8328 99.9571 80.8935
92.208 99.9869 80.6076
92.633 100.074 82.1007
92.3936 99.8851 82.1629
92.6016 100.054 82.4816
93.0075 100.175 82.0213
92.7152 100.216 82.8126
91.4295 99.8166 81.5396
91.4221 99.9167 81.1789
91.1092 99.8895 81.4141
91.3762 100.036 80.8699
90.7353 100.022 81.3636
92.5304 100.17 80.4458
92.7975 100.225 80.7945
92.608 100.474 80.5257
92.8555 100.318 81.2346
92.065 100.262 80.3673
92.323 100.719 80.3519
92.4761 100.744 80.7588
88.3837 104.193 83.6549
88.4368 103.996 83.8844
88.0765 104.012 83.6964
88.5592 103.791 84.0706
88.8162 103.95 84.0575
88.7763 104.331 83.5217
88.4398 104.265 83.2875
87.7949 103.884 83.4488
87.7755 103.814 83.7817
89.1376 104.036 83.9731
89.1461 104.306 83.7097
89.5098 104.145 83.8478
89.1554 104.394 83.3393
89.1892 103.801 84.1622
89.8481 103.958 83.9165
89.7872 104.075 83.6637
88.1451 104.122 83.0466
87.8838 103.869 83.11
87.8912 103.856 82.7627
87.5724 103.601 83.1692
88.5169 104.212 82.8736
88.0693 103.776 82.378
87.6884 103.612 82.4799
87.8882 103.642 84.0532
88.3119 103.596 84.0972
88.0928 103.41 84.2244
88.7154 103.507 84.2074
87.5499 103.48 83.8244
88.0111 103.077 84.1624
88.341 103.11 84.2693
89.5028 103.63 82.6455
89.2168 103.912 82.6488
89.3076 103.628 82.3791
88.8759 104.069 82.7512
89.1648 104.164 82.9446
89.7647 103.628 82.8683
89.819 103.408 82.608
89.307 103.294 82.158
89.0615 103.511 82.1267
89.4479 104.142 83.1945
89.7058 103.855 83.1252
89.7522 104.054 83.374
90.0442 103.576 83.0777
90.0755 103.877 83.5294
89.7862 103.129 82.4108
89.5197 103.048 82.2098
89.7471 102.859 82.2093
89.3322 102.955 81.9675
89.997 103.135 82.6032
90.0515 102.672 82.1074
89.8666 102.632 81.9037
88.76 103.709 82.1884
88.615 103.959 82.4956
88.4148 103.806 82.2789
88.838 103.357 81.9035
88.1985 103.554 82.075
92.5798 101.395 84.3588
92.6581 101.721 84.3376
92.9187 101.409 84.0399
92.5321 102.067 84.2422
92.4056 102.041 84.523
92.1724 101.385 84.5264
92.3539 101.126 84.2271
93.0799 101.12 83.6738
93.0093 101.397 83.7456
92.0656 102.01 84.7339
91.951 101.689 84.7418
91.7118 101.988 85.0592
91.7501 101.382 84.6629
92.0996 102.354 84.7574
91.3776 102.217 85.1192
91.32 101.916 85.1122
92.5938 100.848 83.8989
92.9954 100.819 83.6065
92.6946 100.62 83.5342
93.268 100.84 83.2399
92.0966 100.857 84.1236
92.4156 100.425 83.4665
92.7457 100.427 83.1539
92.7099 101.588 83.6561
92.5063 101.914 83.8947
92.3653 101.761 83.5968
92.2587 102.275 84.1284
92.8731 101.309 83.3513
92.1601 101.582 83.3157
92.0126 101.976 83.5326
91.6484 102.787 84.3516
91.2896 103.05 84.4337
91.4319 103.043 84.1171
90.7957 103.188 84.4289
90.9406 102.98 84.6694
91.8989 102.584 84.5366
92.0487 102.625 84.2678
91.4594 102.929 83.8562
91.1594 103.122 83.8926
91.1141 102.704 84.7974
91.6245 102.57 84.8699
91.2676 102.482 85.0101
90.6497 102.845 84.6943
90.9365 102.372 84.9729
91.9932 102.533 83.9516
91.6975 102.698 83.7333
91.8346 102.309 83.6619
91.3694 102.842 83.5613
91.6713 102.173 83.3744
90.8862 103.373 83.9363
90.6805 103.375 84.1865
90.5496 103.555 83.9535
90.3494 103.297 84.3475
90.8879 103.288 83.687
90.3266 103.711 83.7283
90.1798 103.759 83.9398
89.0941 100.626 81.3016
88.6683 100.771 81.3969
88.8156 100.477 81.4597
88.221 100.847 81.3905
88.564 101.063 81.3217
89.4391 100.727 81.0495
89.5665 100.52 81.1838
89.0124 100.267 81.617
88.5508 100.321 81.6375
88.8564 101.142 81.1256
89.272 100.941 80.9181
89.1702 101.205 80.8361
89.7177 100.767 80.7421
88.4833 101.32 81.2223
89.0996 101.487 80.7765
89.4565 101.275 80.5787
89.7725 100.402 81.3532
89.4298 100.279 81.6022
89.901 100.229 81.5207
89.2417 100.081 81.7655
90.0771 100.394 81.0106
90.3348 100.11 81.4099
90.0934 100.102 81.7
88.0812 100.423 81.7277
87.9272 100.673 81.5548
87.7232 100.675 81.9057
87.7973 101.011 81.4322
88.3052 100.19 81.9012
87.6251 100.684 82.2504
87.4781 100.975 82.0856
87.7551 101.711 81.3173
87.8531 102.058 81.3697
87.4487 102.01 81.5737
88.001 102.396 81.4375
88.2534 102.15 81.2546
88.1423 101.48 81.2564
87.742 101.335 81.3587
87.1872 101.982 81.8549
87.2856 102.348 81.8698
88.5106 101.914 81.1168
88.4744 101.611 81.1615
88.7989 101.693 80.9378
88.6367 102.194 81.0458
89.0692 101.774 80.7262
87.4852 101.284 81.6297
87.2344 101.635 81.9087
87.326 101.273 81.9931
87.0939 101.996 82.2806
87.3109 101.302 82.3463
87.4194 102.695 81.8835
87.8189 102.683 81.6926
87.6921 103.024 81.9398
88.1977 102.677 81.4804
87.2293 102.687 82.2434
87.6444 103.314 82.2215
87.9302 103.301 81.9475
89.82 101.711 84.5126
89.4245 101.794 84.4492
89.6522 102.018 84.5222
89.0708 101.886 84.3244
89.2644 101.588 84.2762
90.0113 101.372 84.4757
90.1747 101.579 84.714
89.8324 102.199 84.6312
89.4381 102.32 84.5458
89.4344 101.282 84.1965
89.8176 101.177 84.2724
89.6169 100.977 84.0749
90.1875 101.038 84.4325
89.1385 101.391 84.001
89.4716 100.769 83.8657
89.8465 100.721 83.9567
90.3399 101.797 84.8944
90.1609 102.115 84.84
90.5211 102.002 84.994
89.9729 102.425 84.8092
90.5259 101.46 84.9026
90.8878 101.907 85.0864
90.7043 102.195 84.9727
89.0346 102.393 84.4701
88.8735 102.171 84.3512
88.7106 102.486 84.3705
88.704 101.953 84.1296
89.2166 102.636 84.5521
88.5322 102.803 84.3555
88.3447 102.572 84.2357
88.4484 101.485 83.7542
88.3466 101.2 83.5428
88.0943 101.561 83.5829
88.3033 100.915 83.2353
88.6048 100.871 83.4074
88.7938 101.439 83.8873
88.55 101.725 83.9816
87.9023 101.946 83.606
87.8109 101.678 83.3729
88.8975 100.822 83.5475
88.9942 101.132 83.7599
89.1776 100.828 83.6635
88.8818 100.581 83.2485
89.4259 100.56 83.6364
88.3629 102.039 83.9933
88.0228 102.167 83.8513
88.1625 102.364 84.086
87.7108 102.332 83.6521
88.0405 102.712 84.1136
87.7676 101.418 83.1191
88.0115 101.009 83.0434
87.7399 101.131 82.8423
88.2468 100.631 82.9584
87.5617 101.816 83.1435
87.4669 101.25 82.62
87.6616 100.861 82.555
91.2337 101.75 81.6182
91.5344 101.564 81.907
91.1959 101.861 82.016
91.8332 101.346 82.2114
91.853 101.162 81.9163
91.2487 101.62 81.2814
91.004 101.87 81.4136
90.9686 102.147 82.1222
91.1633 102.062 82.3218
91.9028 101.068 81.5784
91.5381 101.283 81.2277
91.8993 101.061 81.1308
91.2768 101.512 80.9522
92.2204 100.986 81.8418
92.2231 100.934 80.9949
91.9711 101.036 80.585
90.7767 102.107 81.5918
90.7816 102.206 81.9228
90.5461 102.28 81.7904
90.758 102.36 82.2604
90.7706 101.98 81.2395
90.269 102.308 81.7046
90.328 102.504 81.956
91.4261 101.9 82.541
91.7961 101.487 82.4692
91.7083 101.639 82.7949
92.145 101.222 82.4511
91.1676 102.186 82.6601
91.6408 101.957 83.0761
91.9487 101.51 83.0463
90.5947 101.536 80.4811
90.7204 101.686 80.6962
90.3444 101.859 80.5815
90.7424 101.847 80.9499
91.0171 101.611 80.8032
90.8848 101.249 80.3843
90.4547 101.345 80.3624
89.972 101.979 80.5415
90.04 102.022 80.8563
91.3249 101.345 80.6167
91.3047 101.202 80.3654
91.701 101.142 80.3929
91.2547 100.982 80.2693
92.0275 100.882 80.2899
90.0955 101.495 80.2425
89.8959 101.859 80.2713
89.7402 101.602 80.2412
89.6212 102.099 80.5237
90.3695 101.18 80.3149
89.6566 101.423 80.4242
89.423 101.734 80.4603
90.1446 102.076 81.1258
90.4681 102.014 81.1514
90.21 102.182 81.4104
89.8266 102.221 81.0987
90.0268 102.406 81.6238
91.1153 100.573 84.312
90.9271 100.891 84.5552
91.3335 100.781 84.574
90.7338 101.188 84.7159
90.549 100.979 84.5162
90.879 100.421 84.078
91.3055 100.332 84.0103
91.72 100.838 84.3107
91.5459 101.084 84.6472
90.3891 100.8 84.2561
90.5707 100.577 84.0039
90.2305 100.665 84.0125
91.7168 100.334 83.8643
91.9046 100.571 84.0313
92.0858 100.353 83.6989
91.3633 101.348 84.871
90.9341 101.412 84.847
91.1202 101.642 85.0277
89.5613 103.02 84.6688
89.3722 103.344 84.5705
89.7995 103.141 84.5917
89.2526 103.631 84.4109
89.0274 103.483 84.4345
89.4036 102.818 84.5673
89.7454 102.716 84.7297
90.2021 102.943 84.5609
90.0542 103.19 84.4356
88.8892 103.259 84.342
89.0606 102.949 84.4693
88.695 103.032 84.3633
90.1326 102.612 84.8183
90.3764 102.713 84.6749
90.5326 102.494 84.8623
89.9388 103.467 84.2948
89.58 103.67 84.2521
89.8741 103.765 84.1342
93.1341 100.704 82.0944
93.2299 100.925 82.5553
92.8644 100.973 82.2474
93.0559 101.081 82.9489
93.361 100.88 82.8639
93.2105 100.398 82.0038
92.9803 100.516 81.6549
92.4911 100.941 82.0622
92.4713 101.07 82.3972
93.4119 100.579 82.793
93.3179 100.339 82.3787
93.0503 100.391 82.7756
92.7632 100.687 81.4292
92.5146 100.863 81.6735
92.5429 100.841 81.2304
92.3821 101.181 82.7419
92.6579 101.245 83.0109
92.277 101.368 82.9994
90.7944 102.988 83.1502
90.4662 103.038 82.9913
90.7463 102.787 82.8596
90.243 103.131 82.8009
90.2988 103.326 83.0149
90.849 103.162 83.4274
91.0413 102.891 83.3751
90.9448 102.495 82.7785
90.7419 102.575 82.5738
90.36 103.503 83.2528
90.624 103.417 83.4559
90.3447 103.615 83.5019
91.2206 102.601 83.2853
91.136 102.354 82.9997
91.408 102.285 83.1706
90.5075 102.622 82.4237
90.2054 102.848 82.5527
90.2473 102.638 82.2612
89.1951 99.9405 82.6045
88.8845 99.9741 82.371
88.8569 100.163 82.6937
88.5914 100.043 82.1055
89.0438 99.9692 82.0287
89.5908 99.9084 82.5096
89.5286 99.9973 82.8357
88.8989 100.379 82.9605
88.5494 100.367 82.7907
89.4959 99.9408 81.9683
89.7699 99.953 82.2036
89.9344 100.058 81.9688
89.4803 100.156 83.1495
89.1774 100.401 83.1621
89.4741 100.389 83.3918
88.1976 100.396 82.6289
88.1783 100.209 82.264
87.8668 100.51 82.4422
87.0947 102.675 82.9369
87.18 102.978 83.2048
87.2209 102.583 83.1982
87.2931 103.266 83.5271
87.3637 103.301 83.203
87.1368 102.677 82.5711
87.0675 102.347 82.6442
87.3602 102.205 83.192
87.432 102.468 83.4223
87.401 103.339 82.873
87.2645 103.041 82.5688
87.5013 103.355 82.5405
87.1613 101.983 82.6397
87.3535 101.93 82.9073
87.343 101.63 82.6258
87.566 102.714 83.6947
87.4722 103.119 83.7789
87.7604 102.914 83.9495
90.5944 100.491 80.474
91.0864 100.345 80.3583
90.8761 100.619 80.3045
91.5994 100.329 80.3263
91.2827 100.172 80.5672
90.3476 100.407 80.6728
90.154 100.572 80.5258
90.6388 100.897 80.2956
91.0759 100.789 80.262
90.9323 100.099 80.8288
90.5432 100.313 80.9009
90.663 100.123 81.094
89.9973 100.853 80.4996
90.1645 100.987 80.3103
89.8475 101.141 80.456
91.552 100.698 80.1321
91.8278 100.475 80.1562
92.0269 100.66 80.0764
89.1271 102.76 81.3609
89.0156 102.647 81.112
89.2999 102.565 81.0344
88.8047 102.439 80.9993
88.6047 102.691 81.2467
88.9827 103.115 81.6168
89.2363 102.881 81.6604
89.5691 102.41 81.0389
89.4485 102.362 80.7211
88.4274 102.967 81.5762
88.6424 103.212 81.6953
88.2901 103.251 81.8411
89.4667 102.71 81.6597
89.6457 102.467 81.3644
89.7486 102.545 81.648
89.269 102.195 80.5413
88.9575 102.212 80.765
89.1519 101.975 80.6055
POLYGONS 1280  5120
3 164 162 163
3 163 44 164
3 162 43 163
3 164 42 162
3 166 165 163
3 163 43 166
3 165 44 163
3 166 14 165
3 168 167 162
3 162 42 168
3 167 43 162
3 168 13 167
3 170 169 164
3 164 44 170
3 169 42 164
3 170 12 169
3 173 171 172
3 172 46 173
3 171 43 172
3 173 45 171
3 167 174 172
3 172 43 167
3 174 46 172
3 167 13 174
3 175 166 171
3 171 45 175
3 166 43 171
3 175 14 166
3 177 176 173
3 173 46 177
3 176 45 173
3 177 4 176
3 180 178 179
3 179 48 180
3 178 42 179
3 180 47 178
3 169 181 179
3 179 42 169
3 181 48 179
3 169 12 181
3 182 168 178
3 178 47 182
3 168 42 178
3 182 13 168
3 184 183 180
3 180 48 184
3 183 47 180
3 184 8 183
3 187 185 186
3 186 50 187
3 185 44 186
3 187 49 185
3 165 188 186
3 186 44 165
3 188 50 186
3 165 14 188
3 189 170 185
3 185 49 189
3 170 44 185
3 189 12 170
3 191 190 187
3 187 50 191
3 190 49 187
3 191 7 190
3 194 192 193
3 193 53 194
3 192 52 193
3 194 51 192
3 196 195 193
3 193 52 196
3 195 53 193
3 196 16 195
3 198 197 192
3 192 51 198
3 197 52 192
3 198 14 197
3 200 199 194
3 194 53 200
3 199 51 194
3 200 15 199
3 203 201 202
3 202 45 203
3 201 52 202
3 203 54 201
3 197 175 202
3 202 52 197
3 175 45 202
3 197 14 175
3 204 196 201
3 201 54 204
3 196 52 201
3 204 16 196
3 176 205 203
3 203 45 176
3 205 54 203
3 176 4 205
3 208 206 207
3 207 55 208
3 206 51 207
3 208 50 206
3 199 209 207
3 207 51 199
3 209 55 207
3 199 15 209
3 188 198 206
3 206 50 188
3 198 51 206
3 188 14 198
3 210 191 208
3 208 55 210
3 191 50 208
3 210 7 191
3 213 211 212
3 212 57 213
3 211 53 212
3 213 56 211
3 195 214 212
3 212 53 195
3 214 57 212
3 195 16 214
3 215 200 211
3 211 56 215
3 200 53 211
3 215 15 200
3 217 216 213
3 213 57 217
3 216 56 213
3 217 9 216
3 220 218 219
3 219 60 220
3 218 59 219
3 220 58 218
3 222 221 219
3 219 59 222
3 221 60 219
3 222 19 221
3 224 223 218
3 218 58 224
3 223 59 218
3 224 18 223
3 226 225 220
3 220 60 226
3 225 58 220
3 226 17 225
3 229 227 228
3 228 62 229
3 227 59 228
3 229 61 227
3 223 230 228
3 228 59 223
3 230 62 228
3 223 18 230
3 231 222 227
3 227 61 231
3 222 59 227
3 231 19 222
3 233 232 229
3 229 62 233
3 232 61 229
3 233 5 232
3 236 234 235
3 235 64 236
3 234 58 235
3 236 63 234
3 225 237 235
3 235 58 225
3 237 64 235
3 225 17 237
3 238 224 234
3 234 63 238
3 224 58 234
3 238 18 224
3 240 239 236
3 236 64 240
3 239 63 236
3 240 6 239
3 243 241 242
3 242 66 243
3 241 60 242
3 243 65 241
3 221 244 242
3 242 60 221
3 244 66 242
3 221 19 244
3 245 226 241
3 241 65 245
3 226 60 241
3 245 17 226
3 247 246 243
3 243 66 247
3 246 65 243
3 247 11 246
3 250 248 249
3 249 69 250
3 248 68 249
3 250 67 248
3 252 251 249
3 249 68 252
3 251 69 249
3 252 18 251
3 254 253 248
3 248 67 254
3 253 68 248
3 254 21 253
3 256 255 250
3 250 69 256
3 255 67 250
3 256 20 255
3 259 257 258
3 258 70 259
3 257 68 258
3 259 62 257
3 253 260 258
3 258 68 253
3 260 70 258
3 253 21 260
3 230 252 257
3 257 62 230
3 252 68 257
3 230 18 252
3 261 233 259
3 259 70 261
3 233 62 259
3 261 5 233
3 264 262 263
3 263 72 264
3 262 67 263
3 264 71 262
3 255 265 263
3 263 67 255
3 265 72 263
3 255 20 265
3 266 254 262
3 262 71 266
3 254 67 262
3 266 21 254
3 268 267 264
3 264 72 268
3 267 71 264
3 268 10 267
3 271 269 270
3 270 63 271
3 269 69 270
3 271 73 269
3 251 238 270
3 270 69 251
3 238 63 270
3 251 18 238
3 272 256 269
3 269 73 272
3 256 69 269
3 272 20 256
3 239 273 271
3 271 63 239
3 273 73 271
3 239 6 273
3 276 274 275
3 275 76 276
3 274 75 275
3 276 74 274
3 278 277 275
3 275 75 278
3 277 76 275
3 278 24 277
3 280 279 274
3 274 74 280
3 279 75 274
3 280 23 279
3 282 281 276
3 276 76 282
3 281 74 276
3 282 22 281
3 285 283 284
3 284 78 285
3 283 75 284
3 285 77 283
3 279 286 284
3 284 75 279
3 286 78 284
3 279 23 286
3 287 278 283
3 283 77 287
3 278 75 283
3 287 24 278
3 289 288 285
3 285 78 289
3 288 77 285
3 289 0 288
3 292 290 291
3 291 80 292
3 290 74 291
3 292 79 290
3 281 293 291
3 291 74 281
3 293 80 291
3 281 22 293
3 294 280 290
3 290 79 294
3 280 74 290
3 294 23 280
3 296 295 292
3 292 80 296
3 295 79 292
3 296 4 295
3 299 297 298
3 298 82 299
3 297 76 298
3 299 81 297
3 277 300 298
3 298 76 277
3 300 82 298
3 277 24 300
3 301 282 297
3 297 81 301
3 282 76 297
3 301 22 282
3 303 302 299
3 299 82 303
3 302 81 299
3 303 3 302
3 306 304 305
3 305 85 306
3 304 84 305
3 306 83 304
3 308 307 305
3 305 84 308
3 307 85 305
3 308 26 307
3 310 309 304
3 304 83 310
3 309 84 304
3 310 24 309
3 312 311 306
3 306 85 312
3 311 83 306
3 312 25 311
3 315 313 314
3 314 77 315
3 313 84 314
3 315 86 313
3 309 287 314
3 314 84 309
3 287 77 314
3 309 24 287
3 316 308 313
3 313 86 316
3 308 84 313
3 316 26 308
3 288 317 315
3 315 77 288
3 317 86 315
3 288 0 317
3 320 318 319
3 319 87 320
3 318 83 319
3 320 82 318
3 311 321 319
3 319 83 311
3 321 87 319
3 311 25 321
3 300 310 318
3 318 82 300
3 310 83 318
3 300 24 310
3 322 303 320
3 320 87 322
3 303 82 320
3 322 3 303
3 325 323 324
3 324 89 325
3 323 85 324
3 325 88 323
3 307 326 324
3 324 85 307
3 326 89 324
3 307 26 326
3 327 312 323
3 323 88 327
3 312 85 323
3 327 25 312
3 329 328 325
3 325 89 329
3 328 88 325
3 329 5 328
3 332 330 331
3 331 92 332
3 330 91 331
3 332 90 330
3 334 333 331
3 331 91 334
3 333 92 331
3 334 29 333
3 336 335 330
3 330 90 336
3 335 91 330
3 336 28 335
3 338 337 332
3 332 92 338
3 337 90 332
3 338 27 337
3 341 339 340
3 340 94 341
3 339 91 340
3 341 93 339
3 335 342 340
3 340 91 335
3 342 94 340
3 335 28 342
3 343 334 339
3 339 93 343
3 334 91 339
3 343 29 334
3 345 344 341
3 341 94 345
3 344 93 341
3 345 2 344
3 348 346 347
3 347 96 348
3 346 90 347
3 348 95 346
3 337 349 347
3 347 90 337
3 349 96 347
3 337 27 349
3 350 336 346
3 346 95 350
3 336 90 346
3 350 28 336
3 352 351 348
3 348 96 352
3 351 95 348
3 352 7 351
3 355 353 354
3 354 98 355
3 353 92 354
3 355 97 353
3 333 356 354
3 354 92 333
3 356 98 354
3 333 29 356
3 357 338 353
3 353 97 357
3 338 92 353
3 357 27 338
3 359 358 355
3 355 98 359
3 358 97 355
3 359 1 358
3 362 360 361
3 361 101 362
3 360 100 361
3 362 99 360
3 364 363 361
3 361 100 364
3 363 101 361
3 364 31 363
3 366 365 360
3 360 99 366
3 365 100 360
3 366 29 365
3 368 367 362
3 362 101 368
3 367 99 362
3 368 30 367
3 371 369 370
3 370 93 371
3 369 100 370
3 371 102 369
3 365 343 370
3 370 100 365
3 343 93 370
3 365 29 343
3 372 364 369
3 369 102 372
3 364 100 369
3 372 31 364
3 344 373 371
3 371 93 344
3 373 102 371
3 344 2 373
3 376 374 375
3 375 103 376
3 374 99 375
3 376 98 374
3 367 377 375
3 375 99 367
3 377 103 375
3 367 30 377
3 356 366 374
3 374 98 356
3 366 99 374
3 356 29 366
3 378 359 376
3 376 103 378
3 359 98 376
3 378 1 359
3 381 379 380
3 380 105 381
3 379 101 380
3 381 104 379
3 363 382 380
3 380 101 363
3 382 105 380
3 363 31 382
3 383 368 379
3 379 104 383
3 368 101 379
3 383 30 368
3 385 384 381
3 381 105 385
3 384 104 381
3 385 6 384
3 388 386 387
3 387 108 388
3 386 107 387
3 388 106 386
3 390 389 387
3 387 107 390
3 389 108 387
3 390 34 389
3 392 391 386
3 386 106 392
3 391 107 386
3 392 33 391
3 394 393 388
3 388 108 394
3 393 106 388
3 394 32 393
3 397 395 396
3 396 110 397
3 395 107 396
3 397 109 395
3 391 398 396
3 396 107 391
3 398 110 396
3 391 33 398
3 399 390 395
3 395 109 399
3 390 107 395
3 399 34 390
3 401 400 397
3 397 110 401
3 400 109 397
3 401 8 400
3 404 402 403
3 403 112 404
3 402 106 403
3 404 111 402
3 393 405 403
3 403 106 393
3 405 112 403
3 393 32 405
3 406 392 402
3 402 111 406
3 392 106 402
3 406 33 392
3 408 407 404
3 404 112 408
3 407 111 404
3 408 0 407
3 411 409 410
3 410 114 411
3 409 108 410
3 411 113 409
3 389 412 410
3 410 108 389
3 412 114 410
3 389 34 412
3 413 394 409
3 409 113 413
3 394 108 409
3 413 32 394
3 415 414 411
3 411 114 415
3 414 113 411
3 415 11 414
3 418 416 417
3 417 117 418
3 416 116 417
3 418 115 416
3 420 419 417
3 417 116 420
3 419 117 417
3 420 36 419
3 422 421 416
3 416 115 422
3 421 116 416
3 422 34 421
3 424 423 418
3 418 117 424
3 423 115 418
3 424 35 423
3 427 425 426
3 426 109 427
3 425 116 426
3 427 118 425
3 421 399 426
3 426 116 421
3 399 109 426
3 421 34 399
3 428 420 425
3 425 118 428
3 420 116 425
3 428 36 420
3 400 429 427
3 427 109 400
3 429 118 427
3 400 8 429
3 432 430 431
3 431 119 432
3 430 115 431
3 432 114 430
3 423 433 431
3 431 115 423
3 433 119 431
3 423 35 433
3 412 422 430
3 430 114 412
3 422 115 430
3 412 34 422
3 434 415 432
3 432 119 434
3 415 114 432
3 434 11 415
3 437 435 436
3 436 121 437
3 435 117 436
3 437 120 435
3 419 438 436
3 436 117 419
3 438 121 436
3 419 36 438
3 439 424 435
3 435 120 439
3 424 117 435
3 439 35 424
3 441 440 437
3 437 121 441
3 440 120 437
3 441 1 440
3 444 442 443
3 443 124 444
3 442 123 443
3 444 122 442
3 446 445 443
3 443 123 446
3 445 124 443
3 446 39 445
3 448 447 442
3 442 122 448
3 447 123 442
3 448 38 447
3 450 449 444
3 444 124 450
3 449 122 444
3 450 37 449
3 453 451 452
3 452 126 453
3 451 123 452
3 453 125 451
3 447 454 452
3 452 123 447
3 454 126 452
3 447 38 454
3 455 446 451
3 451 125 455
3 446 123 451
3 455 39 446
3 457 456 453
3 453 126 457
3 456 125 453
3 457 9 456
3 460 458 459
3 459 128 460
3 458 122 459
3 460 127 458
3 449 461 459
3 459 122 449
3 461 128 459
3 449 37 461
3 462 448 458
3 458 127 462
3 448 122 458
3 462 38 448
3 464 463 460
3 460 128 464
3 463 127 460
3 464 10 463
3 467 465 466
3 466 130 467
3 465 124 466
3 467 129 465
3 445 468 466
3 466 124 445
3 468 130 466
3 445 39 468
3 469 450 465
3 465 129 469
3 450 124 465
3 469 37 450
3 471 470 467
3 467 130 471
3 470 129 467
3 471 3 470
3 474 472 473
3 473 133 474
3 472 132 473
3 474 131 472
3 476 475 473
3 473 132 476
3 475 133 473
3 476 38 475
3 478 477 472
3 472 131 478
3 477 132 472
3 478 41 477
3 480 479 474
3 474 133 480
3 479 131 474
3 480 40 479
3 483 481 482
3 482 134 483
3 481 132 482
3 483 126 481
3 477 484 482
3 482 132 477
3 484 134 482
3 477 41 484
3 454 476 481
3 481 126 454
3 476 132 481
3 454 38 476
3 485 457 483
3 483 134 485
3 457 126 483
3 485 9 457
3 488 486 487
3 487 136 488
3 486 131 487
3 488 135 486
3 479 489 487
3 487 131 479
3 489 136 487
3 479 40 489
3 490 478 486
3 486 135 490
3 478 131 486
3 490 41 478
3 492 491 488
3 488 136 492
3 491 135 488
3 492 2 491
3 495 493 494
3 494 127 495
3 493 133 494
3 495 137 493
3 475 462 494
3 494 133 475
3 462 127 494
3 475 38 462
3 496 480 493
3 493 137 496
3 480 133 493
3 496 40 480
3 463 497 495
3 495 127 463
3 497 137 495
3 463 10 497
3 500 498 499
3 499 140 500
3 498 139 499
3 500 138 498
3 502 501 499
3 499 139 502
3 501 140 499
3 502 33 501
3 504 503 498
3 498 138 504
3 503 139 498
3 504 13 503
3 506 505 500
3 500 140 506
3 505 138 500
3 506 23 505
3 509 507 508
3 508 47 509
3 507 139 508
3 509 110 507
3 503 182 508
3 508 139 503
3 182 47 508
3 503 13 182
3 398 502 507
3 507 110 398
3 502 139 507
3 398 33 502
3 183 401 509
3 509 47 183
3 401 110 509
3 183 8 401
3 512 510 511
3 511 79 512
3 510 138 511
3 512 46 510
3 505 294 511
3 511 138 505
3 294 79 511
3 505 23 294
3 174 504 510
3 510 46 174
3 504 138 510
3 174 13 504
3 295 177 512
3 512 79 295
3 177 46 512
3 295 4 177
3 515 513 514
3 514 111 515
3 513 140 514
3 515 78 513
3 501 406 514
3 514 140 501
3 406 111 514
3 501 33 406
3 286 506 513
3 513 78 286
3 506 140 513
3 286 23 506
3 407 289 515
3 515 111 407
3 289 78 515
3 407 0 289
3 518 516 517
3 517 143 518
3 516 142 517
3 518 141 516
3 520 519 517
3 517 142 520
3 519 143 517
3 520 19 519
3 522 521 516
3 516 141 522
3 521 142 516
3 522 32 521
3 524 523 518
3 518 143 524
3 523 141 518
3 524 26 523
3 527 525 526
3 526 113 527
3 525 142 526
3 527 66 525
3 521 413 526
3 526 142 521
3 413 113 526
3 521 32 413
3 244 520 525
3 525 66 244
3 520 142 525
3 244 19 520
3 414 247 527
3 527 113 414
3 247 66 527
3 414 11 247
3 530 528 529
3 529 86 530
3 528 141 529
3 530 112 528
3 523 316 529
3 529 141 523
3 316 86 529
3 523 26 316
3 405 522 528
3 528 112 405
3 522 141 528
3 405 32 522
3 317 408 530
3 530 86 317
3 408 112 530
3 317 0 408
3 533 531 532
3 532 61 533
3 531 143 532
3 533 89 531
3 519 231 532
3 532 143 519
3 231 61 532
3 519 19 231
3 326 524 531
3 531 89 326
3 524 143 531
3 326 26 524
3 232 329 533
3 533 61 232
3 329 89 533
3 232 5 329
3 536 534 535
3 535 146 536
3 534 145 535
3 536 144 534
3 538 537 535
3 535 145 538
3 537 146 535
3 538 22 537
3 540 539 534
3 534 144 540
3 539 145 534
3 540 16 539
3 542 541 536
3 536 146 542
3 541 144 536
3 542 39 541
3 545 543 544
3 544 54 545
3 543 145 544
3 545 80 543
3 539 204 544
3 544 145 539
3 204 54 544
3 539 16 204
3 293 538 543
3 543 80 293
3 538 145 543
3 293 22 538
3 205 296 545
3 545 54 205
3 296 80 545
3 205 4 296
3 548 546 547
3 547 125 548
3 546 144 547
3 548 57 546
3 541 455 547
3 547 144 541
3 455 125 547
3 541 39 455
3 214 540 546
3 546 57 214
3 540 144 546
3 214 16 540
3 456 217 548
3 548 125 456
3 217 57 548
3 456 9 217
3 551 549 550
3 550 81 551
3 549 146 550
3 551 130 549
3 537 301 550
3 550 146 537
3 301 81 550
3 537 22 301
3 468 542 549
3 549 130 468
3 542 146 549
3 468 39 542
3 302 471 551
3 551 81 302
3 471 130 551
3 302 3 471
3 554 552 553
3 553 149 554
3 552 148 553
3 554 147 552
3 556 555 553
3 553 148 556
3 555 149 553
3 556 21 555
3 558 557 552
3 552 147 558
3 557 148 552
3 558 25 557
3 560 559 554
3 554 149 560
3 559 147 554
3 560 37 559
3 563 561 562
3 562 88 563
3 561 148 562
3 563 70 561
3 557 327 562
3 562 148 557
3 327 88 562
3 557 25 327
3 260 556 561
3 561 70 260
3 556 148 561
3 260 21 556
3 328 261 563
3 563 88 328
3 261 70 563
3 328 5 261
3 566 564 565
3 565 129 566
3 564 147 565
3 566 87 564
3 559 469 565
3 565 147 559
3 469 129 565
3 559 37 469
3 321 558 564
3 564 87 321
3 558 147 564
3 321 25 558
3 470 322 566
3 566 129 470
3 322 87 566
3 470 3 322
3 569 567 568
3 568 71 569
3 567 149 568
3 569 128 567
3 555 266 568
3 568 149 555
3 266 71 568
3 555 21 266
3 461 560 567
3 567 128 461
3 560 149 567
3 461 37 560
3 267 464 569
3 569 71 267
3 464 128 569
3 267 10 464
3 572 570 571
3 571 152 572
3 570 151 571
3 572 150 570
3 574 573 571
3 571 151 574
3 573 152 571
3 574 27 573
3 576 575 570
3 570 150 576
3 575 151 570
3 576 12 575
3 578 577 572
3 572 152 578
3 577 150 572
3 578 36 577
3 581 579 580
3 580 49 581
3 579 151 580
3 581 96 579
3 575 189 580
3 580 151 575
3 189 49 580
3 575 12 189
3 349 574 579
3 579 96 349
3 574 151 579
3 349 27 574
3 190 352 581
3 581 49 190
3 352 96 581
3 190 7 352
3 584 582 583
3 583 118 584
3 582 150 583
3 584 48 582
3 577 428 583
3 583 150 577
3 428 118 583
3 577 36 428
3 181 576 582
3 582 48 181
3 576 150 582
3 181 12 576
3 429 184 584
3 584 118 429
3 184 48 584
3 429 8 184
3 587 585 586
3 586 97 587
3 585 152 586
3 587 121 585
3 573 357 586
3 586 152 573
3 357 97 586
3 573 27 357
3 438 578 585
3 585 121 438
3 578 152 585
3 438 36 578
3 358 441 587
3 587 97 358
3 441 121 587
3 358 1 441
3 590 588 589
3 589 155 590
3 588 154 589
3 590 153 588
3 592 591 589
3 589 154 592
3 591 155 589
3 592 17 591
3 594 593 588
3 588 153 594
3 593 154 588
3 594 30 593
3 596 595 590
3 590 155 596
3 595 153 590
3 596 35 595
3 599 597 598
3 598 104 599
3 597 154 598
3 599 64 597
3 593 383 598
3 598 154 593
3 383 104 598
3 593 30 383
3 237 592 597
3 597 64 237
3 592 154 597
3 237 17 592
3 384 240 599
3 599 104 384
3 240 64 599
3 384 6 240
3 602 600 601
3 601 120 602
3 600 153 601
3 602 103 600
3 595 439 601
3 601 153 595
3 439 120 601
3 595 35 439
3 377 594 600
3 600 103 377
3 594 153 600
3 377 30 594
3 440 378 602
3 602 120 440
3 378 103 602
3 440 1 378
3 605 603 604
3 604 65 605
3 603 155 604
3 605 119 603
3 591 245 604
3 604 155 591
3 245 65 604
3 591 17 245
3 433 596 603
3 603 119 433
3 596 155 603
3 433 35 596
3 246 434 605
3 605 65 246
3 434 119 605
3 246 11 434
3 608 606 607
3 607 158 608
3 606 157 607
3 608 156 606
3 610 609 607
3 607 157 610
3 609 158 607
3 610 15 609
3 612 611 606
3 606 156 612
3 611 157 606
3 612 28 611
3 614 613 608
3 608 158 614
3 613 156 608
3 614 41 613
3 617 615 616
3 616 95 617
3 615 157 616
3 617 55 615
3 611 350 616
3 616 157 611
3 350 95 616
3 611 28 350
3 209 610 615
3 615 55 209
3 610 157 615
3 209 15 610
3 351 210 617
3 617 95 351
3 210 55 617
3 351 7 210
3 620 618 619
3 619 135 620
3 618 156 619
3 620 94 618
3 613 490 619
3 619 156 613
3 490 135 619
3 613 41 490
3 342 612 618
3 618 94 342
3 612 156 618
3 342 28 612
3 491 345 620
3 620 135 491
3 345 94 620
3 491 2 345
3 623 621 622
3 622 56 623
3 621 158 622
3 623 134 621
3 609 215 622
3 622 158 609
3 215 56 622
3 609 15 215
3 484 614 621
3 621 134 484
3 614 158 621
3 484 41 614
3 216 485 623
3 623 56 216
3 485 134 623
3 216 9 485
3 626 624 625
3 625 161 626
3 624 160 625
3 626 159 624
3 628 627 625
3 625 160 628
3 627 161 625
3 628 31 627
3 630 629 624
3 624 159 630
3 629 160 624
3 630 20 629
3 632 631 626
3 626 161 632
3 631 159 626
3 632 40 631
3 635 633 634
3 634 73 635
3 633 160 634
3 635 105 633
3 629 272 634
3 634 160 629
3 272 73 634
3 629 20 272
3 382 628 633
3 633 105 382
3 628 160 633
3 382 31 628
3 273 385 635
3 635 73 273
3 385 105 635
3 273 6 385
3 638 636 637
3 637 137 638
3 636 159 637
3 638 72 636
3 631 496 637
3 637 159 631
3 496 137 637
3 631 40 496
3 265 630 636
3 636 72 265
3 630 159 636
3 265 20 630
3 497 268 638
3 638 137 497
3 268 72 638
3 497 10 268
3 641 639 640
3 640 102 641
3 639 161 640
3 641 136 639
3 627 372 640
3 640 161 627
3 372 102 640
3 627 31 372
3 489 632 639
3 639 136 489
3 632 161 639
3 489 40 632
3 373 492 641
3 641 102 373
3 492 136 641
3 373 2 492
