# vtk DataFile Version 3.0
this file was written using fslvtkio
ASCII
DATASET POLYDATA
POINTS 642 float
158.364 135.382 113.431
161.361 135.213 119.271
160.272 129.703 118.076
156.878 129.777 112.767
161.016 133.413 110.122
156.097 131.893 116.687
157.98 131.928 120.471
162.944 133.019 114.339
161.738 137.887 113.992
160.008 128.623 113.428
155.892 126.718 117.637
157.722 137.194 119.039
163.097 135.839 113.773
161.895 136.331 110.979
162.632 133.463 111.334
161.737 130.622 113.662
160.702 130.721 111.06
157.517 134.816 121.015
156.826 131.651 118.687
157.107 134.62 117.859
157.234 129.021 118.374
155.767 128.948 116.557
159.006 131.284 111.047
159.701 134.844 111.301
157.609 132.474 113.063
156.153 130.314 114.863
157.058 133.703 115.371
162.768 134.475 116.695
161.936 131.205 116.402
161.168 132.347 119.213
159.342 133.799 120.946
159.081 130.303 119.914
158.279 136.659 115.97
160.103 137.582 113.318
159.915 138.651 117.041
159.356 136.978 120.358
161.979 137.153 116.996
154.644 127.574 114.612
157.663 126.986 115.536
158.018 128.525 112.169
158.348 127.32 118.338
160.531 128.252 116.077
162.603 136.03 112.226
162.589 134.988 110.884
162.993 134.634 112.418
162.163 133.429 110.116
161.569 135.015 110.368
161.942 137.179 112.286
162.577 136.993 113.715
163.188 134.453 113.978
162.927 133.169 112.795
162.361 131.967 112.363
161.858 132.033 111.139
161.473 130.65 112.119
160.92 132.004 110.614
162.521 131.793 113.946
160.989 129.536 113.499
160.506 129.54 112.069
157.206 133.445 119.869
156.946 133.193 118.511
157.21 134.683 119.514
156.72 133.236 117.238
156.324 131.803 117.792
157.367 131.873 119.61
157.606 133.35 121.018
157.475 136.062 120.14
157.494 135.948 118.4
156.28 128.754 117.727
156.498 130.191 117.446
157.076 130.386 118.452
156.091 130.563 116.696
155.243 127.817 117.527
156.419 127.772 118.439
157.829 130.713 119.234
159.295 133.131 110.924
158.723 133.512 112.074
158.296 132.005 111.98
158.172 133.865 113.23
159.07 135.141 112.353
160.422 134.208 110.598
159.982 132.486 110.367
158.018 130.543 111.889
157.206 131.191 112.862
156.542 131.531 113.829
157.44 132.966 114.329
156.418 132.014 114.838
157.583 134.616 114.364
156.316 129.817 114.01
155.879 131.285 115.713
156.629 132.882 115.991
162.434 132.836 116.653
161.733 131.792 117.826
162.225 133.34 118.064
160.837 130.898 118.804
161.223 130.325 117.395
162.579 132.094 115.356
163.033 133.848 115.458
162.31 134.857 118.058
161.333 133.79 119.283
160.232 133.021 120.048
160.079 131.302 119.694
159.306 132.036 120.499
159.748 129.9 119.174
160.374 134.499 120.286
158.471 132.722 121.251
158.522 131.101 120.237
159.162 137.404 114.756
160.021 138.452 115.091
159.005 138.022 116.555
160.947 138.466 115.564
160.99 138.001 113.425
159.15 136.579 113.296
158.389 136.047 114.668
158.049 136.983 117.374
158.703 138.134 118.406
159.53 138.083 119.094
160.873 137.966 117.31
160.794 137.186 118.862
161.922 137.536 115.5
158.109 137.283 120.533
160.594 136.142 119.823
161.895 136.267 118.165
155.842 126.873 114.93
157.748 127.653 113.861
156.347 127.806 113.054
159.106 128.566 112.754
158.986 127.689 114.433
156.643 126.418 116.757
154.777 127.097 116.41
155.823 128.608 113.567
157.249 129.155 111.923
159.572 127.395 117.326
159.237 127.287 115.821
158.096 126.636 117.137
160.307 128.384 114.724
160.491 128.785 117.174
159.377 128.509 118.099
157.041 126.804 118.422
160.692 135.735 111.073
160.88 137.003 112.031
159.803 136.377 112.064
157.725 135.212 115.589
157.756 135.642 116.959
156.972 134.289 116.587
159.539 129.45 111.289
159.836 130.895 110.673
158.492 129.669 111.094
154.911 128.808 114.591
155.915 129.739 115.664
154.286 128.044 116.385
162.667 136.626 115.28
163.26 135.351 115.218
162.593 135.935 116.763
159.631 135.463 120.831
158.362 134.238 121.471
158.298 136.022 121.16
161.159 129.735 116.146
161.953 130.78 115.009
161.14 129.484 114.891
157.721 128.248 118.586
158.162 129.758 119.169
158.779 129.057 118.799
162.585 135.501 111.548
162.782 134.821 111.702
162.914 135.391 112.263
162.869 134.082 111.8
162.629 134.28 111.166
162.367 135.69 110.816
162.364 136.206 111.434
162.898 135.855 112.951
163.099 135.277 112.949
162.388 134.284 110.523
162.2 135.067 110.417
162.001 134.339 110.27
161.819 135.709 110.552
162.368 133.491 110.769
161.679 133.571 110.021
161.414 134.198 110.241
162.439 136.717 111.975
162.631 136.469 112.914
162.297 137.02 112.919
162.855 136.386 113.673
162.038 136.877 111.356
161.885 137.508 113.065
162.116 137.4 113.805
163.179 134.62 113.156
163.011 133.928 112.575
163.092 133.84 113.364
162.881 133.332 112.005
163.176 135.187 113.776
163.076 133.67 114.077
163.051 133.087 113.489
162.204 131.985 111.69
161.745 131.311 111.598
161.976 131.271 112.27
161.247 130.751 111.408
161.379 131.4 111.057
162.353 132.719 111.177
162.572 132.71 111.82
162.104 131.259 112.923
161.669 130.675 112.823
161.364 132.002 110.817
162.133 132.73 110.587
161.625 132.84 110.242
160.805 131.303 110.833
161.039 132.804 110.135
162.658 132.57 112.598
162.43 131.84 113.149
162.757 132.452 113.384
162.18 131.213 113.67
162.826 132.441 114.077
161.299 130.061 112.787
160.99 130.144 112.08
160.826 129.586 112.726
160.616 130.121 111.55
161.384 130.077 113.557
160.543 129.057 113.454
160.267 129.109 112.801
157.079 133.293 119.157
157.112 133.96 118.889
157.298 134.051 119.622
157.138 134.587 118.72
157.05 134 118.229
156.907 132.548 118.729
157.043 132.7 119.292
157.403 134.111 120.38
157.345 134.729 120.242
156.816 133.27 117.884
156.685 132.499 118.191
156.555 132.583 117.534
156.609 131.686 118.266
156.868 133.9 117.6
156.485 132.592 116.977
156.16 131.85 117.243
157.291 132.705 119.748
157.319 133.435 120.493
157.487 132.74 120.321
157.656 134.101 120.942
157.023 131.863 119.222
157.673 132.019 120.033
157.763 132.644 120.754
157.364 135.312 119.761
157.363 135.297 118.852
157.51 136.002 119.292
157.381 135.193 118.168
157.477 135.436 120.522
157.548 136.677 119.634
157.616 136.543 118.717
156.39 129.376 117.548
156.723 130.257 117.99
156.789 129.553 117.879
156.863 130.956 118.668
156.501 130.864 118.174
156.158 129.455 116.967
155.939 128.831 117.226
156.776 128.84 117.878
157.127 129.583 118.283
156.273 131.087 117.881
156.273 130.454 117.141
156.05 131.194 117.314
155.95 129.764 116.631
155.901 131.261 116.791
155.611 128.309 117.887
156.226 128.203 118.231
155.722 127.738 118.029
156.825 128.354 118.319
155.392 128.387 117.252
155.478 127.18 117.708
156.008 127.163 118.272
157.448 130.559 118.782
157.155 131.145 119.1
157.573 131.208 119.408
157.554 129.88 118.715
157.912 131.377 119.822
158.979 133.354 111.491
158.494 132.797 111.874
158.805 132.539 111.429
157.98 132.315 112.394
158.179 132.986 112.438
159.209 134.112 111.724
159.438 134.014 111.12
159.124 132.279 110.926
158.67 131.8 111.388
158.423 133.692 112.581
158.878 134.344 112.183
158.589 134.496 112.717
159.405 134.952 111.865
157.906 133.188 113.045
158.272 134.596 113.364
158.725 135.203 112.936
159.784 133.706 110.724
159.637 132.794 110.615
160.128 133.424 110.286
159.455 131.932 110.713
160.013 134.483 110.883
160.807 133.924 110.277
160.497 132.962 110.221
158.255 131.277 111.952
157.799 131.643 112.359
157.698 130.949 112.369
157.463 131.792 112.94
158.576 130.896 111.467
157.456 130.205 112.31
157.081 130.465 112.852
157.037 132.267 113.929
157.007 132.458 114.485
156.468 131.834 114.241
156.933 132.694 115.033
157.163 133.249 114.843
157.48 132.718 113.701
157.087 132.077 113.406
156.152 131.036 114.4
156.097 131.344 114.776
157.565 133.696 114.329
157.779 133.395 113.712
157.858 134.206 113.834
157.342 134.133 114.87
157.989 134.98 113.902
156.934 131.337 113.347
156.392 130.72 113.94
156.753 130.52 113.515
156.201 130.084 114.436
156.614 129.846 113.393
156.05 131.615 115.231
156.611 132.301 115.409
156.207 132.015 115.809
156.857 133.226 115.593
156.01 130.858 115.21
155.921 131.601 116.254
156.418 132.453 116.351
162.172 132.284 117.265
162.131 132.503 118.056
162.389 133.084 117.351
161.858 132.769 118.686
161.689 132.093 118.614
161.969 131.493 117.128
162.248 132.02 116.558
162.652 133.645 116.72
162.512 133.885 117.364
161.317 131.385 118.393
161.44 131.1 117.591
160.953 130.743 118.028
161.583 130.779 116.928
161.093 131.634 119.072
160.562 130.283 118.491
160.761 130.016 117.785
162.556 132.458 115.989
162.77 133.329 116.078
162.86 132.975 115.44
162.892 134.165 116.087
162.298 131.638 115.904
162.742 132.602 114.855
163.052 133.513 114.837
162.306 134.091 118.081
161.845 133.49 118.797
161.855 134.276 118.729
161.278 133.037 119.225
162.517 134.64 117.381
161.897 134.978 118.717
161.422 134.536 119.339
160.235 132.17 119.899
159.702 131.669 120.047
159.767 132.527 120.264
159.228 131.149 120.27
159.561 130.754 119.993
160.619 131.829 119.499
160.699 132.609 119.642
159.776 133.375 120.482
159.336 132.928 120.626
159.963 130.544 119.593
160.511 131.1 119.265
160.279 130.317 119.086
159.435 130.135 119.529
160.054 129.76 118.636
160.804 133.343 119.687
160.282 133.772 120.088
160.842 134.101 119.757
159.85 134.176 120.609
160.915 134.824 119.824
158.922 132.416 120.868
158.842 131.508 120.625
158.426 131.832 120.994
158.822 130.735 120.129
158.928 133.233 121.134
158.076 132.277 121.063
158.204 131.464 120.379
159.62 137.982 114.933
159.521 138.305 115.822
159.119 137.802 115.61
159.407 138.539 116.714
159.972 138.747 115.948
160.091 138.064 114.258
159.713 137.605 114.164
158.824 137.147 115.545
158.654 137.431 116.237
160.449 138.608 115.319
160.564 138.276 114.336
160.995 138.341 114.55
160.521 137.82 113.523
160.471 138.692 116.332
161.382 138.138 114.826
161.439 138.054 113.635
159.178 137.063 113.917
158.699 136.817 114.71
158.769 136.368 114.038
158.34 136.466 115.283
159.662 137.164 113.302
158.774 135.968 113.362
158.289 135.741 113.994
158.47 137.529 117.085
158.811 138.153 117.421
158.257 137.674 117.961
159.257 138.512 117.682
158.255 136.869 116.622
157.872 137.091 118.135
158.128 137.732 118.858
160.238 138.067 118.297
160.762 137.658 118.261
160.143 137.66 119.103
161.327 137.191 117.991
161.306 137.5 117.329
160.478 138.447 117.27
159.816 138.377 118.016
159.455 137.54 119.813
160.183 137.13 119.662
161.464 137.801 116.478
160.956 138.279 116.426
161.476 138.028 115.615
161.939 137.402 116.318
161.921 137.735 114.677
159.179 138.32 118.587
158.911 137.905 119.861
158.438 137.857 119.439
158.714 137.385 120.634
157.829 137.381 119.86
160.861 136.712 119.463
161.48 136.765 118.524
161.35 136.174 119.12
161.962 136.792 117.652
160.072 136.576 120.146
161.041 135.653 119.576
161.721 135.702 118.718
156.908 127.211 114.333
157.054 127.647 113.49
156.124 127.223 113.868
157.166 128.069 112.707
157.825 128.079 113.036
157.465 127.207 114.771
156.65 126.936 115.203
155.07 126.948 114.574
155.436 127.508 113.674
158.406 128.112 113.383
158.255 127.572 114.279
158.92 128.113 113.738
158.356 127.257 114.976
158.586 128.489 112.402
159.553 128.581 113.098
159.449 128.263 114.034
155.997 126.617 115.954
155.057 126.711 115.639
155.405 126.503 116.649
154.517 127.197 115.466
157.132 126.737 116.037
156.226 126.351 117.404
155.339 126.882 117.093
155.984 128.107 113.006
156.856 128.434 112.259
156.543 128.972 112.758
157.479 128.644 111.869
155.233 128.013 113.895
156.37 129.194 113.136
157.047 129.508 112.286
159.421 127.194 116.562
158.709 126.881 116.425
158.913 126.848 117.219
157.901 126.785 116.329
158.467 127.064 115.705
159.96 127.669 115.956
160.1 127.722 116.649
158.96 127.234 117.892
158.327 126.711 117.961
159.087 127.479 115.119
159.819 127.816 115.276
159.612 128.067 114.68
160.392 128.246 115.431
160.18 128.493 114.077
160.113 127.982 117.335
159.469 127.866 117.837
159.947 128.567 117.708
158.917 127.837 118.28
160.6 128.311 116.76
160.385 129.281 117.615
159.832 129.157 118.058
157.593 126.468 117.98
157.381 126.528 116.975
156.821 126.319 117.851
157.734 127.007 118.381
156.437 126.798 118.132
160.804 136.494 111.293
160.334 136.71 111.943
160.182 136.012 111.497
160.004 136.964 112.621
160.485 137.304 112.563
161.397 136.833 111.356
161.319 136.084 110.932
160.151 135.362 111.126
159.759 135.583 111.648
160.905 137.543 112.71
161.43 137.163 112.177
161.479 137.731 112.826
161.148 135.431 110.71
160.492 135.003 110.812
160.944 134.628 110.431
159.41 135.792 112.201
159.535 136.518 112.753
159.057 135.887 112.775
157.705 135.505 116.306
157.328 134.951 116.789
157.272 134.801 116.076
157.085 134.407 117.255
157.34 135.109 117.435
157.992 136.214 116.443
158.027 135.947 115.801
157.264 134.507 115.427
156.972 134.083 115.95
157.659 135.757 117.636
157.876 136.338 117.114
157.723 136.444 117.917
158.08 135.69 115.167
157.619 134.894 114.975
157.926 135.357 114.446
156.82 133.598 116.236
156.806 133.833 116.975
156.595 133.099 116.642
159.708 130.103 110.804
159.229 130.313 110.721
159.009 129.562 111.055
158.823 130.493 111.06
159.374 131.045 110.807
160.261 130.741 110.846
160.136 130.025 111.146
158.84 128.962 111.634
158.243 129.003 111.464
159.824 131.646 110.615
160.329 131.447 110.683
160.419 132.235 110.416
160.057 129.533 111.685
159.374 128.979 111.985
159.864 129.026 112.404
157.805 129.266 111.339
158.27 130.146 111.516
157.622 129.839 111.814
155.224 128.95 115.292
154.906 128.724 115.898
154.363 128.345 115.411
155.214 128.576 116.405
155.875 129.441 116.105
155.988 129.908 115.305
155.848 129.371 114.737
154.639 128.078 114.618
154.084 127.607 115.731
155.959 130.205 116.213
155.978 130.54 115.63
155.969 131.036 116.228
155.725 129.292 114.263
155.334 128.586 114.07
156.054 129.236 113.702
154.281 127.408 116.608
154.926 128.113 116.965
154.956 127.308 117.366
163.031 136.038 115.248
162.962 135.679 116.01
162.725 136.352 116.02
162.721 135.211 116.645
162.954 134.976 115.942
163.257 135.646 114.501
162.892 136.215 114.524
162.406 136.928 116.121
162.404 136.606 116.797
163.098 134.596 115.365
163.245 134.967 114.541
163.209 134.183 114.688
162.692 136.819 114.472
162.316 137.1 115.485
162.279 137.288 114.629
162.234 136.162 117.458
162.41 135.36 117.341
162.129 135.539 118.03
158.952 134.97 121.357
158.332 135.136 121.523
158.945 135.756 121.199
157.824 135.366 121.265
157.881 134.486 121.455
158.944 134.123 121.239
159.542 134.659 121.076
159.583 136.202 120.653
158.896 136.553 120.895
157.904 133.696 121.404
158.484 133.447 121.398
157.974 132.901 121.324
160.077 134.936 120.639
160.135 135.826 120.353
160.561 135.29 120.092
158.3 136.706 120.983
157.775 135.922 120.795
157.834 136.676 120.205
161.527 130.309 115.636
161.464 130.172 114.976
161.144 129.553 115.53
161.457 130.084 114.307
161.84 130.723 114.366
161.951 130.925 115.727
161.673 130.47 116.256
160.888 128.89 116.134
160.873 128.787 115.473
162.213 131.255 114.483
162.188 131.428 115.267
162.548 131.919 114.699
161.284 130.035 116.747
160.838 129.226 116.64
160.856 129.627 117.234
160.798 128.814 114.829
161.132 129.478 114.2
160.679 128.944 114.114
158.023 129.102 118.781
158.511 129.479 119.181
158.306 128.686 118.694
158.981 129.771 119.336
158.644 130.071 119.543
157.751 129.423 118.657
157.478 128.661 118.507
157.994 127.765 118.626
158.533 128.213 118.463
158.504 130.57 119.554
158.004 130.222 119.16
158.141 130.891 119.773
157.112 128.059 118.582
157.467 127.511 118.564
156.707 127.267 118.626
159.04 128.769 118.45
159.257 129.552 118.981
159.549 129.374 118.5
POLYGONS 1280  5120
3 164 162 163
3 163 44 164
3 162 43 163
3 164 42 162
3 166 165 163
3 163 43 166
3 165 44 163
3 166 14 165
3 168 167 162
3 162 42 168
3 167 43 162
3 168 13 167
3 170 169 164
3 164 44 170
3 169 42 164
3 170 12 169
3 173 171 172
3 172 46 173
3 171 43 172
3 173 45 171
3 167 174 172
3 172 43 167
3 174 46 172
3 167 13 174
3 175 166 171
3 171 45 175
3 166 43 171
3 175 14 166
3 177 176 173
3 173 46 177
3 176 45 173
3 177 4 176
3 180 178 179
3 179 48 180
3 178 42 179
3 180 47 178
3 169 181 179
3 179 42 169
3 181 48 179
3 169 12 181
3 182 168 178
3 178 47 182
3 168 42 178
3 182 13 168
3 184 183 180
3 180 48 184
3 183 47 180
3 184 8 183
3 187 185 186
3 186 50 187
3 185 44 186
3 187 49 185
3 165 188 186
3 186 44 165
3 188 50 186
3 165 14 188
3 189 170 185
3 185 49 189
3 170 44 185
3 189 12 170
3 191 190 187
3 187 50 191
3 190 49 187
3 191 7 190
3 194 192 193
3 193 53 194
3 192 52 193
3 194 51 192
3 196 195 193
3 193 52 196
3 195 53 193
3 196 16 195
3 198 197 192
3 192 51 198
3 197 52 192
3 198 14 197
3 200 199 194
3 194 53 200
3 199 51 194
3 200 15 199
3 203 201 202
3 202 45 203
3 201 52 202
3 203 54 201
3 197 175 202
3 202 52 197
3 175 45 202
3 197 14 175
3 204 196 201
3 201 54 204
3 196 52 201
3 204 16 196
3 176 205 203
3 203 45 176
3 205 54 203
3 176 4 205
3 208 206 207
3 207 55 208
3 206 51 207
3 208 50 206
3 199 209 207
3 207 51 199
3 209 55 207
3 199 15 209
3 188 198 206
3 206 50 188
3 198 51 206
3 188 14 198
3 210 191 208
3 208 55 210
3 191 50 208
3 210 7 191
3 213 211 212
3 212 57 213
3 211 53 212
3 213 56 211
3 195 214 212
3 212 53 195
3 214 57 212
3 195 16 214
3 215 200 211
3 211 56 215
3 200 53 211
3 215 15 200
3 217 216 213
3 213 57 217
3 216 56 213
3 217 9 216
3 220 218 219
3 219 60 220
3 218 59 219
3 220 58 218
3 222 221 219
3 219 59 222
3 221 60 219
3 222 19 221
3 224 223 218
3 218 58 224
3 223 59 218
3 224 18 223
3 226 225 220
3 220 60 226
3 225 58 220
3 226 17 225
3 229 227 228
3 228 62 229
3 227 59 228
3 229 61 227
3 223 230 228
3 228 59 223
3 230 62 228
3 223 18 230
3 231 222 227
3 227 61 231
3 222 59 227
3 231 19 222
3 233 232 229
3 229 62 233
3 232 61 229
3 233 5 232
3 236 234 235
3 235 64 236
3 234 58 235
3 236 63 234
3 225 237 235
3 235 58 225
3 237 64 235
3 225 17 237
3 238 224 234
3 234 63 238
3 224 58 234
3 238 18 224
3 240 239 236
3 236 64 240
3 239 63 236
3 240 6 239
3 243 241 242
3 242 66 243
3 241 60 242
3 243 65 241
3 221 244 242
3 242 60 221
3 244 66 242
3 221 19 244
3 245 226 241
3 241 65 245
3 226 60 241
3 245 17 226
3 247 246 243
3 243 66 247
3 246 65 243
3 247 11 246
3 250 248 249
3 249 69 250
3 248 68 249
3 250 67 248
3 252 251 249
3 249 68 252
3 251 69 249
3 252 18 251
3 254 253 248
3 248 67 254
3 253 68 248
3 254 21 253
3 256 255 250
3 250 69 256
3 255 67 250
3 256 20 255
3 259 257 258
3 258 70 259
3 257 68 258
3 259 62 257
3 253 260 258
3 258 68 253
3 260 70 258
3 253 21 260
3 230 252 257
3 257 62 230
3 252 68 257
3 230 18 252
3 261 233 259
3 259 70 261
3 233 62 259
3 261 5 233
3 264 262 263
3 263 72 264
3 262 67 263
3 264 71 262
3 255 265 263
3 263 67 255
3 265 72 263
3 255 20 265
3 266 254 262
3 262 71 266
3 254 67 262
3 266 21 254
3 268 267 264
3 264 72 268
3 267 71 264
3 268 10 267
3 271 269 270
3 270 63 271
3 269 69 270
3 271 73 269
3 251 238 270
3 270 69 251
3 238 63 270
3 251 18 238
3 272 256 269
3 269 73 272
3 256 69 269
3 272 20 256
3 239 273 271
3 271 63 239
3 273 73 271
3 239 6 273
3 276 274 275
3 275 76 276
3 274 75 275
3 276 74 274
3 278 277 275
3 275 75 278
3 277 76 275
3 278 24 277
3 280 279 274
3 274 74 280
3 279 75 274
3 280 23 279
3 282 281 276
3 276 76 282
3 281 74 276
3 282 22 281
3 285 283 284
3 284 78 285
3 283 75 284
3 285 77 283
3 279 286 284
3 284 75 279
3 286 78 284
3 279 23 286
3 287 278 283
3 283 77 287
3 278 75 283
3 287 24 278
3 289 288 285
3 285 78 289
3 288 77 285
3 289 0 288
3 292 290 291
3 291 80 292
3 290 74 291
3 292 79 290
3 281 293 291
3 291 74 281
3 293 80 291
3 281 22 293
3 294 280 290
3 290 79 294
3 280 74 290
3 294 23 280
3 296 295 292
3 292 80 296
3 295 79 292
3 296 4 295
3 299 297 298
3 298 82 299
3 297 76 298
3 299 81 297
3 277 300 298
3 298 76 277
3 300 82 298
3 277 24 300
3 301 282 297
3 297 81 301
3 282 76 297
3 301 22 282
3 303 302 299
3 299 82 303
3 302 81 299
3 303 3 302
3 306 304 305
3 305 85 306
3 304 84 305
3 306 83 304
3 308 307 305
3 305 84 308
3 307 85 305
3 308 26 307
3 310 309 304
3 304 83 310
3 309 84 304
3 310 24 309
3 312 311 306
3 306 85 312
3 311 83 306
3 312 25 311
3 315 313 314
3 314 77 315
3 313 84 314
3 315 86 313
3 309 287 314
3 314 84 309
3 287 77 314
3 309 24 287
3 316 308 313
3 313 86 316
3 308 84 313
3 316 26 308
3 288 317 315
3 315 77 288
3 317 86 315
3 288 0 317
3 320 318 319
3 319 87 320
3 318 83 319
3 320 82 318
3 311 321 319
3 319 83 311
3 321 87 319
3 311 25 321
3 300 310 318
3 318 82 300
3 310 83 318
3 300 24 310
3 322 303 320
3 320 87 322
3 303 82 320
3 322 3 303
3 325 323 324
3 324 89 325
3 323 85 324
3 325 88 323
3 307 326 324
3 324 85 307
3 326 89 324
3 307 26 326
3 327 312 323
3 323 88 327
3 312 85 323
3 327 25 312
3 329 328 325
3 325 89 329
3 328 88 325
3 329 5 328
3 332 330 331
3 331 92 332
3 330 91 331
3 332 90 330
3 334 333 331
3 331 91 334
3 333 92 331
3 334 29 333
3 336 335 330
3 330 90 336
3 335 91 330
3 336 28 335
3 338 337 332
3 332 92 338
3 337 90 332
3 338 27 337
3 341 339 340
3 340 94 341
3 339 91 340
3 341 93 339
3 335 342 340
3 340 91 335
3 342 94 340
3 335 28 342
3 343 334 339
3 339 93 343
3 334 91 339
3 343 29 334
3 345 344 341
3 341 94 345
3 344 93 341
3 345 2 344
3 348 346 347
3 347 96 348
3 346 90 347
3 348 95 346
3 337 349 347
3 347 90 337
3 349 96 347
3 337 27 349
3 350 336 346
3 346 95 350
3 336 90 346
3 350 28 336
3 352 351 348
3 348 96 352
3 351 95 348
3 352 7 351
3 355 353 354
3 354 98 355
3 353 92 354
3 355 97 353
3 333 356 354
3 354 92 333
3 356 98 354
3 333 29 356
3 357 338 353
3 353 97 357
3 338 92 353
3 357 27 338
3 359 358 355
3 355 98 359
3 358 97 355
3 359 1 358
3 362 360 361
3 361 101 362
3 360 100 361
3 362 99 360
3 364 363 361
3 361 100 364
3 363 101 361
3 364 31 363
3 366 365 360
3 360 99 366
3 365 100 360
3 366 29 365
3 368 367 362
3 362 101 368
3 367 99 362
3 368 30 367
3 371 369 370
3 370 93 371
3 369 100 370
3 371 102 369
3 365 343 370
3 370 100 365
3 343 93 370
3 365 29 343
3 372 364 369
3 369 102 372
3 364 100 369
3 372 31 364
3 344 373 371
3 371 93 344
3 373 102 371
3 344 2 373
3 376 374 375
3 375 103 376
3 374 99 375
3 376 98 374
3 367 377 375
3 375 99 367
3 377 103 375
3 367 30 377
3 356 366 374
3 374 98 356
3 366 99 374
3 356 29 366
3 378 359 376
3 376 103 378
3 359 98 376
3 378 1 359
3 381 379 380
3 380 105 381
3 379 101 380
3 381 104 379
3 363 382 380
3 380 101 363
3 382 105 380
3 363 31 382
3 383 368 379
3 379 104 383
3 368 101 379
3 383 30 368
3 385 384 381
3 381 105 385
3 384 104 381
3 385 6 384
3 388 386 387
3 387 108 388
3 386 107 387
3 388 106 386
3 390 389 387
3 387 107 390
3 389 108 387
3 390 34 389
3 392 391 386
3 386 106 392
3 391 107 386
3 392 33 391
3 394 393 388
3 388 108 394
3 393 106 388
3 394 32 393
3 397 395 396
3 396 110 397
3 395 107 396
3 397 109 395
3 391 398 396
3 396 107 391
3 398 110 396
3 391 33 398
3 399 390 395
3 395 109 399
3 390 107 395
3 399 34 390
3 401 400 397
3 397 110 401
3 400 109 397
3 401 8 400
3 404 402 403
3 403 112 404
3 402 106 403
3 404 111 402
3 393 405 403
3 403 106 393
3 405 112 403
3 393 32 405
3 406 392 402
3 402 111 406
3 392 106 402
3 406 33 392
3 408 407 404
3 404 112 408
3 407 111 404
3 408 0 407
3 411 409 410
3 410 114 411
3 409 108 410
3 411 113 409
3 389 412 410
3 410 108 389
3 412 114 410
3 389 34 412
3 413 394 409
3 409 113 413
3 394 108 409
3 413 32 394
3 415 414 411
3 411 114 415
3 414 113 411
3 415 11 414
3 418 416 417
3 417 117 418
3 416 116 417
3 418 115 416
3 420 419 417
3 417 116 420
3 419 117 417
3 420 36 419
3 422 421 416
3 416 115 422
3 421 116 416
3 422 34 421
3 424 423 418
3 418 117 424
3 423 115 418
3 424 35 423
3 427 425 426
3 426 109 427
3 425 116 426
3 427 118 425
3 421 399 426
3 426 116 421
3 399 109 426
3 421 34 399
3 428 420 425
3 425 118 428
3 420 116 425
3 428 36 420
3 400 429 427
3 427 109 400
3 429 118 427
3 400 8 429
3 432 430 431
3 431 119 432
3 430 115 431
3 432 114 430
3 423 433 431
3 431 115 423
3 433 119 431
3 423 35 433
3 412 422 430
3 430 114 412
3 422 115 430
3 412 34 422
3 434 415 432
3 432 119 434
3 415 114 432
3 434 11 415
3 437 435 436
3 436 121 437
3 435 117 436
3 437 120 435
3 419 438 436
3 436 117 419
3 438 121 436
3 419 36 438
3 439 424 435
3 435 120 439
3 424 117 435
3 439 35 424
3 441 440 437
3 437 121 441
3 440 120 437
3 441 1 440
3 444 442 443
3 443 124 444
3 442 123 443
3 444 122 442
3 446 445 443
3 443 123 446
3 445 124 443
3 446 39 445
3 448 447 442
3 442 122 448
3 447 123 442
3 448 38 447
3 450 449 444
3 444 124 450
3 449 122 444
3 450 37 449
3 453 451 452
3 452 126 453
3 451 123 452
3 453 125 451
3 447 454 452
3 452 123 447
3 454 126 452
3 447 38 454
3 455 446 451
3 451 125 455
3 446 123 451
3 455 39 446
3 457 456 453
3 453 126 457
3 456 125 453
3 457 9 456
3 460 458 459
3 459 128 460
3 458 122 459
3 460 127 458
3 449 461 459
3 459 122 449
3 461 128 459
3 449 37 461
3 462 448 458
3 458 127 462
3 448 122 458
3 462 38 448
3 464 463 460
3 460 128 464
3 463 127 460
3 464 10 463
3 467 465 466
3 466 130 467
3 465 124 466
3 467 129 465
3 445 468 466
3 466 124 445
3 468 130 466
3 445 39 468
3 469 450 465
3 465 129 469
3 450 124 465
3 469 37 450
3 471 470 467
3 467 130 471
3 470 129 467
3 471 3 470
3 474 472 473
3 473 133 474
3 472 132 473
3 474 131 472
3 476 475 473
3 473 132 476
3 475 133 473
3 476 38 475
3 478 477 472
3 472 131 478
3 477 132 472
3 478 41 477
3 480 479 474
3 474 133 480
3 479 131 474
3 480 40 479
3 483 481 482
3 482 134 483
3 481 132 482
3 483 126 481
3 477 484 482
3 482 132 477
3 484 134 482
3 477 41 484
3 454 476 481
3 481 126 454
3 476 132 481
3 454 38 476
3 485 457 483
3 483 134 485
3 457 126 483
3 485 9 457
3 488 486 487
3 487 136 488
3 486 131 487
3 488 135 486
3 479 489 487
3 487 131 479
3 489 136 487
3 479 40 489
3 490 478 486
3 486 135 490
3 478 131 486
3 490 41 478
3 492 491 488
3 488 136 492
3 491 135 488
3 492 2 491
3 495 493 494
3 494 127 495
3 493 133 494
3 495 137 493
3 475 462 494
3 494 133 475
3 462 127 494
3 475 38 462
3 496 480 493
3 493 137 496
3 480 133 493
3 496 40 480
3 463 497 495
3 495 127 463
3 497 137 495
3 463 10 497
3 500 498 499
3 499 140 500
3 498 139 499
3 500 138 498
3 502 501 499
3 499 139 502
3 501 140 499
3 502 33 501
3 504 503 498
3 498 138 504
3 503 139 498
3 504 13 503
3 506 505 500
3 500 140 506
3 505 138 500
3 506 23 505
3 509 507 508
3 508 47 509
3 507 139 508
3 509 110 507
3 503 182 508
3 508 139 503
3 182 47 508
3 503 13 182
3 398 502 507
3 507 110 398
3 502 139 507
3 398 33 502
3 183 401 509
3 509 47 183
3 401 110 509
3 183 8 401
3 512 510 511
3 511 79 512
3 510 138 511
3 512 46 510
3 505 294 511
3 511 138 505
3 294 79 511
3 505 23 294
3 174 504 510
3 510 46 174
3 504 138 510
3 174 13 504
3 295 177 512
3 512 79 295
3 177 46 512
3 295 4 177
3 515 513 514
3 514 111 515
3 513 140 514
3 515 78 513
3 501 406 514
3 514 140 501
3 406 111 514
3 501 33 406
3 286 506 513
3 513 78 286
3 506 140 513
3 286 23 506
3 407 289 515
3 515 111 407
3 289 78 515
3 407 0 289
3 518 516 517
3 517 143 518
3 516 142 517
3 518 141 516
3 520 519 517
3 517 142 520
3 519 143 517
3 520 19 519
3 522 521 516
3 516 141 522
3 521 142 516
3 522 32 521
3 524 523 518
3 518 143 524
3 523 141 518
3 524 26 523
3 527 525 526
3 526 113 527
3 525 142 526
3 527 66 525
3 521 413 526
3 526 142 521
3 413 113 526
3 521 32 413
3 244 520 525
3 525 66 244
3 520 142 525
3 244 19 520
3 414 247 527
3 527 113 414
3 247 66 527
3 414 11 247
3 530 528 529
3 529 86 530
3 528 141 529
3 530 112 528
3 523 316 529
3 529 141 523
3 316 86 529
3 523 26 316
3 405 522 528
3 528 112 405
3 522 141 528
3 405 32 522
3 317 408 530
3 530 86 317
3 408 112 530
3 317 0 408
3 533 531 532
3 532 61 533
3 531 143 532
3 533 89 531
3 519 231 532
3 532 143 519
3 231 61 532
3 519 19 231
3 326 524 531
3 531 89 326
3 524 143 531
3 326 26 524
3 232 329 533
3 533 61 232
3 329 89 533
3 232 5 329
3 536 534 535
3 535 146 536
3 534 145 535
3 536 144 534
3 538 537 535
3 535 145 538
3 537 146 535
3 538 22 537
3 540 539 534
3 534 144 540
3 539 145 534
3 540 16 539
3 542 541 536
3 536 146 542
3 541 144 536
3 542 39 541
3 545 543 544
3 544 54 545
3 543 145 544
3 545 80 543
3 539 204 544
3 544 145 539
3 204 54 544
3 539 16 204
3 293 538 543
3 543 80 293
3 538 145 543
3 293 22 538
3 205 296 545
3 545 54 205
3 296 80 545
3 205 4 296
3 548 546 547
3 547 125 548
3 546 144 547
3 548 57 546
3 541 455 547
3 547 144 541
3 455 125 547
3 541 39 455
3 214 540 546
3 546 57 214
3 540 144 546
3 214 16 540
3 456 217 548
3 548 125 456
3 217 57 548
3 456 9 217
3 551 549 550
3 550 81 551
3 549 146 550
3 551 130 549
3 537 301 550
3 550 146 537
3 301 81 550
3 537 22 301
3 468 542 549
3 549 130 468
3 542 146 549
3 468 39 542
3 302 471 551
3 551 81 302
3 471 130 551
3 302 3 471
3 554 552 553
3 553 149 554
3 552 148 553
3 554 147 552
3 556 555 553
3 553 148 556
3 555 149 553
3 556 21 555
3 558 557 552
3 552 147 558
3 557 148 552
3 558 25 557
3 560 559 554
3 554 149 560
3 559 147 554
3 560 37 559
3 563 561 562
3 562 88 563
3 561 148 562
3 563 70 561
3 557 327 562
3 562 148 557
3 327 88 562
3 557 25 327
3 260 556 561
3 561 70 260
3 556 148 561
3 260 21 556
3 328 261 563
3 563 88 328
3 261 70 563
3 328 5 261
3 566 564 565
3 565 129 566
3 564 147 565
3 566 87 564
3 559 469 565
3 565 147 559
3 469 129 565
3 559 37 469
3 321 558 564
3 564 87 321
3 558 147 564
3 321 25 558
3 470 322 566
3 566 129 470
3 322 87 566
3 470 3 322
3 569 567 568
3 568 71 569
3 567 149 568
3 569 128 567
3 555 266 568
3 568 149 555
3 266 71 568
3 555 21 266
3 461 560 567
3 567 128 461
3 560 149 567
3 461 37 560
3 267 464 569
3 569 71 267
3 464 128 569
3 267 10 464
3 572 570 571
3 571 152 572
3 570 151 571
3 572 150 570
3 574 573 571
3 571 151 574
3 573 152 571
3 574 27 573
3 576 575 570
3 570 150 576
3 575 151 570
3 576 12 575
3 578 577 572
3 572 152 578
3 577 150 572
3 578 36 577
3 581 579 580
3 580 49 581
3 579 151 580
3 581 96 579
3 575 189 580
3 580 151 575
3 189 49 580
3 575 12 189
3 349 574 579
3 579 96 349
3 574 151 579
3 349 27 574
3 190 352 581
3 581 49 190
3 352 96 581
3 190 7 352
3 584 582 583
3 583 118 584
3 582 150 583
3 584 48 582
3 577 428 583
3 583 150 577
3 428 118 583
3 577 36 428
3 181 576 582
3 582 48 181
3 576 150 582
3 181 12 576
3 429 184 584
3 584 118 429
3 184 48 584
3 429 8 184
3 587 585 586
3 586 97 587
3 585 152 586
3 587 121 585
3 573 357 586
3 586 152 573
3 357 97 586
3 573 27 357
3 438 578 585
3 585 121 438
3 578 152 585
3 438 36 578
3 358 441 587
3 587 97 358
3 441 121 587
3 358 1 441
3 590 588 589
3 589 155 590
3 588 154 589
3 590 153 588
3 592 591 589
3 589 154 592
3 591 155 589
3 592 17 591
3 594 593 588
3 588 153 594
3 593 154 588
3 594 30 593
3 596 595 590
3 590 155 596
3 595 153 590
3 596 35 595
3 599 597 598
3 598 104 599
3 597 154 598
3 599 64 597
3 593 383 598
3 598 154 593
3 383 104 598
3 593 30 383
3 237 592 597
3 597 64 237
3 592 154 597
3 237 17 592
3 384 240 599
3 599 104 384
3 240 64 599
3 384 6 240
3 602 600 601
3 601 120 602
3 600 153 601
3 602 103 600
3 595 439 601
3 601 153 595
3 439 120 601
3 595 35 439
3 377 594 600
3 600 103 377
3 594 153 600
3 377 30 594
3 440 378 602
3 602 120 440
3 378 103 602
3 440 1 378
3 605 603 604
3 604 65 605
3 603 155 604
3 605 119 603
3 591 245 604
3 604 155 591
3 245 65 604
3 591 17 245
3 433 596 603
3 603 119 433
3 596 155 603
3 433 35 596
3 246 434 605
3 605 65 246
3 434 119 605
3 246 11 434
3 608 606 607
3 607 158 608
3 606 157 607
3 608 156 606
3 610 609 607
3 607 157 610
3 609 158 607
3 610 15 609
3 612 611 606
3 606 156 612
3 611 157 606
3 612 28 611
3 614 613 608
3 608 158 614
3 613 156 608
3 614 41 613
3 617 615 616
3 616 95 617
3 615 157 616
3 617 55 615
3 611 350 616
3 616 157 611
3 350 95 616
3 611 28 350
3 209 610 615
3 615 55 209
3 610 157 615
3 209 15 610
3 351 210 617
3 617 95 351
3 210 55 617
3 351 7 210
3 620 618 619
3 619 135 620
3 618 156 619
3 620 94 618
3 613 490 619
3 619 156 613
3 490 135 619
3 613 41 490
3 342 612 618
3 618 94 342
3 612 156 618
3 342 28 612
3 491 345 620
3 620 135 491
3 345 94 620
3 491 2 345
3 623 621 622
3 622 56 623
3 621 158 622
3 623 134 621
3 609 215 622
3 622 158 609
3 215 56 622
3 609 15 215
3 484 614 621
3 621 134 484
3 614 158 621
3 484 41 614
3 216 485 623
3 623 56 216
3 485 134 623
3 216 9 485
3 626 624 625
3 625 161 626
3 624 160 625
3 626 159 624
3 628 627 625
3 625 160 628
3 627 161 625
3 628 31 627
3 630 629 624
3 624 159 630
3 629 160 624
3 630 20 629
3 632 631 626
3 626 161 632
3 631 159 626
3 632 40 631
3 635 633 634
3 634 73 635
3 633 160 634
3 635 105 633
3 629 272 634
3 634 160 629
3 272 73 634
3 629 20 272
3 382 628 633
3 633 105 382
3 628 160 633
3 382 31 628
3 273 385 635
3 635 73 273
3 385 105 635
3 273 6 385
3 638 636 637
3 637 137 638
3 636 159 637
3 638 72 636
3 631 496 637
3 637 159 631
3 496 137 637
3 631 40 496
3 265 630 636
3 636 72 265
3 630 159 636
3 265 20 630
3 497 268 638
3 638 137 497
3 268 72 638
3 497 10 268
3 641 639 640
3 640 102 641
3 639 161 640
3 641 136 639
3 627 372 640
3 640 161 627
3 372 102 640
3 627 31 372
3 489 632 639
3 639 136 489
3 632 161 639
3 489 40 632
3 373 492 641
3 641 102 373
3 492 136 641
3 373 2 492
