# vtk DataFile Version 3.0
this file was written using fslvtkio
ASCII
DATASET POLYDATA
POINTS 642 float
112.949 127.323 84.5334
99.2836 128.826 83.818
102.804 115.264 85.8358
117.398 114.013 85.4634
114.067 121.326 91.42
111.645 120.47 80.5376
102.976 121.602 79.7018
104.104 121.687 91.2871
107.094 133.361 87.3866
110.592 111.523 89.5046
110.727 108.449 81.7747
105.822 134.268 77.9689
105.228 128.163 90.1951
111.23 128.652 90.3616
109.582 121.546 92.8037
107.368 115.688 91.2602
113.5 114.848 92.1811
102.908 129.04 77.7098
107.625 120.329 79.4655
107.971 127.121 80.005
107.163 114.022 81.3548
112.635 113.787 80.7165
116.778 116.624 89.222
114.078 125.312 88.147
115.952 120.252 85.2315
115.41 115.974 82.4942
112.386 124.188 82.1591
101.101 126.057 88.1535
102.701 118.123 88.8054
99.6125 121.83 84.9763
99.7165 126.25 80.3882
101.468 116.992 82.2343
109.583 131.415 81.6871
111.42 133.012 85.8862
105.451 136.251 82.2243
100.842 133.808 79.2798
102.19 132.386 85.5787
117.602 109.212 82.1336
111.136 107.395 85.9688
115.588 111.14 88.0364
105.591 109.828 84.1874
105.896 111.094 88.3807
108.343 128.468 90.985
110.434 125.285 92.2893
107.444 124.876 91.7763
112.153 121.288 92.8238
112.665 125.155 91.0728
109.408 131.462 89.313
106.185 130.868 88.8198
104.458 125.004 91.1248
106.696 121.454 92.3175
108.364 118.391 92.56
111.483 118.058 92.8276
110.351 115.173 92.2493
114.108 117.918 91.9437
105.614 118.559 91.4587
108.873 113.085 90.8479
112.026 112.698 91.3742
105.23 125.01 78.8942
107.46 123.979 79.6669
105.688 128.149 78.4739
109.632 123.569 80.6455
109.692 120.513 79.7609
105.36 121.307 79.6304
102.858 125.292 78.4596
104.451 131.733 77.4181
106.83 130.576 79.0226
109.81 113.648 80.5702
110.195 116.629 80.1851
107.328 117.128 80.2063
112.19 117.114 80.4241
111.824 111.129 80.5013
108.469 111.051 81.228
105.042 117.781 80.7046
115.663 120.908 88.7015
114.799 122.358 86.8777
116.683 118.833 87.1975
114.038 123.593 85.1003
113.595 126.313 86.3646
114.374 123.389 89.8417
115.555 119.115 90.3663
117.345 115.181 87.4525
117.208 117.309 85.2
116.362 118.731 83.3647
114.057 121.948 83.7753
114.552 120.202 82.1719
112.801 125.826 83.2177
116.755 114.891 83.5801
113.936 118.574 81.1599
111.899 122.235 81.5151
101.345 122.012 88.6176
100.449 119.818 87.2586
99.7284 123.767 86.8214
100.535 118.194 85.5435
102.465 116.547 87.3927
103.267 119.813 90.1612
102.436 123.947 89.9056
99.7675 127.408 86.1787
99.1343 125.333 84.4851
99.6371 123.938 82.6219
100.516 119.598 83.4666
100.563 121.642 81.4876
101.837 115.949 84.1004
99.1662 127.547 82.0174
100.836 123.766 79.5028
102.116 119.173 80.765
110.636 133.089 83.3751
108.826 135.601 84.168
108.074 135.29 81.2034
106.073 135.008 84.9459
109.667 134.035 87.0777
112.356 130.243 85.0791
111.556 129.483 83.1211
107.881 132.668 79.9539
105.116 136.012 79.4411
102.763 135.669 80.2085
103.438 134.501 83.4203
101.032 133.424 82.3847
104.448 132.917 86.4206
102.633 134.641 77.3298
99.6528 131.392 81.8007
100.352 130.864 84.7714
114.992 107.271 84.1982
113.648 108.601 87.1243
116.513 109.377 85.2989
113.027 111.018 88.9634
110.706 109.151 88.0375
110.938 107.188 83.735
114.444 108.684 81.2928
117.517 111.652 84.0611
117.415 112.241 86.9959
105.408 109.544 86.5643
108.262 108.579 87.3107
107.973 107.341 85.2446
108.129 111.127 89.025
104.043 112.738 87.3369
104.002 112.357 85.2077
107.742 108.842 82.7842
113.288 127.355 89.3893
111.639 131.122 88.2971
112.973 129.349 87.0348
111.232 128.034 81.8142
108.922 129.339 80.6277
110.326 125.935 81.0356
114.691 112.425 90.6397
115.778 115.503 91.0521
116.944 113.201 89.1898
116.82 112.436 82.0205
113.945 115.212 81.5986
115.141 111.338 80.3343
103.286 130.744 88.4653
102.619 127.495 89.6687
101.283 129.516 87.1053
99.519 130.22 79.9454
100.728 127.507 78.5415
101.278 131.926 77.6515
104.351 114.611 88.6716
104.908 116.512 90.2388
106.431 113.515 89.7673
105.991 111.958 82.5144
104.311 115.789 81.8158
103.83 113.98 83.4028
109.345 126.887 91.77
108.866 125.152 92.1717
107.828 126.7 91.4535
108.588 123.305 92.4137
109.91 123.586 92.6966
110.749 127.049 91.5089
109.87 128.538 90.9939
106.934 128.209 90.5204
106.457 126.687 90.9697
111.236 123.44 92.5998
111.605 125.323 91.7845
112.258 123.48 92.0679
111.982 127.005 90.8952
110.85 121.585 92.9627
113.115 121.47 92.2222
113.149 123.155 91.381
108.917 129.967 90.2605
107.311 129.759 89.9889
107.859 131.139 89.5232
105.745 129.461 89.5419
110.358 130.076 90.0196
108.183 132.36 88.4992
106.752 132.035 88.2544
105.965 125.077 91.4368
107.084 123.206 92.1714
105.656 123.356 91.8996
108.128 121.561 92.5693
104.873 126.627 90.8538
104.362 123.212 91.4836
105.358 121.661 91.9312
109.885 118.223 92.6892
110.836 116.592 92.5754
109.281 116.757 92.3616
111.913 115.081 92.4234
112.397 116.452 92.6528
110.48 119.711 92.9213
108.988 119.929 92.7428
107.908 116.964 92.0581
108.793 115.59 91.8947
112.881 117.942 92.6741
111.791 119.672 93.0529
113.177 119.653 92.5255
113.805 116.297 92.3179
114.122 119.781 91.8109
107.523 119.912 92.472
106.946 118.377 92.0421
106.053 119.947 92.0577
106.667 117.153 91.4638
104.795 120.181 91.511
109.546 114.267 91.5704
111.203 114.009 91.8673
110.402 113.072 91.2295
112.8 113.794 91.846
108.162 114.453 91.0992
109.806 112.243 90.3182
111.275 112.123 90.5162
106.478 124.579 79.1877
106.643 126.217 79.2243
105.415 126.654 78.7905
106.807 127.528 79.2734
107.56 125.761 79.7993
107.366 122.219 79.6616
106.328 122.935 79.3511
104.142 127.03 78.384
104.359 128.526 78.0041
108.419 123.889 80.2657
108.377 122.106 79.9876
109.362 122.114 80.4287
108.654 120.4 79.5435
108.682 125.361 80.3666
110.507 121.787 80.7543
110.623 120.604 80.1155
105.247 123.142 79.2203
104.027 125.289 78.6688
104.046 123.396 79.0695
102.919 127.189 78.1672
106.505 121.006 79.4828
104.167 121.552 79.6688
102.945 123.372 79.0209
105.105 129.755 78.047
106.382 129.251 78.8432
105.743 131.271 78.0311
107.297 128.781 79.5932
103.813 130.218 77.6198
105.154 133.244 77.478
106.477 132.457 78.3886
109.903 115.035 80.5731
108.819 116.705 80.2036
108.722 115.27 80.7617
107.599 118.701 79.8475
108.972 118.402 79.7684
111.263 114.988 80.6465
111.103 113.877 80.4195
108.572 113.883 80.8863
107.513 115.357 80.9189
109.886 118.872 79.7182
111.179 116.853 80.2406
111.063 118.972 79.987
112.274 115.319 80.8728
111.957 118.92 80.3501
110.674 112.427 80.3674
109.068 112.376 80.7277
110.141 111.05 80.7526
107.859 112.605 81.2677
112.136 112.598 80.3694
111.195 109.752 81.0211
109.581 109.784 81.3503
106.262 117.275 80.5353
106.376 119.325 79.8945
105.201 119.519 80.1827
106.221 115.789 81.2381
103.996 119.878 80.2725
115.225 121.644 87.7636
115.849 120.565 87.0538
116.228 119.79 87.9853
116.438 119.623 86.2838
115.481 121.182 86.1235
114.512 123.635 87.5891
114.702 122.862 88.4044
116.299 118.824 88.8741
116.708 117.82 88.1972
114.42 122.924 85.9935
114.133 124.237 86.7262
113.751 124.826 85.7915
113.899 125.732 87.2881
114.772 121.755 85.319
113.409 125.326 84.8161
113.354 126.739 85.405
114.872 122.108 89.2616
115.691 119.972 89.5449
114.989 121.262 90.1575
116.22 117.886 89.7598
114.292 124.247 88.9241
114.158 122.501 90.6619
114.93 120.323 90.983
117.049 117.008 87.3393
117.009 118.084 86.2828
117.21 116.392 86.3782
116.775 118.898 85.1627
117.167 115.907 88.3619
117.388 114.749 86.4295
117.129 115.68 85.3419
115.205 120.49 83.6593
114.029 121.268 83.0088
115.459 119.599 82.8103
113.247 121.881 82.4192
113.182 122.927 82.899
115.134 120.998 84.4979
116.198 119.508 84.1972
116.068 117.511 82.776
115.504 118.362 82.1164
113.201 123.729 83.5395
114.061 122.609 84.4909
113.323 124.489 84.1447
112.656 124.99 82.6461
112.913 126.476 83.8998
116.862 117.96 84.1935
116.621 116.697 83.4429
116.979 116.164 84.3022
116.133 115.342 82.9275
117.166 114.573 84.5001
114.536 119.317 81.6159
113.201 121.107 81.8388
113.05 120.401 81.2691
112.19 123.049 81.889
114.892 117.393 81.7486
112.788 119.685 80.7529
111.693 121.405 81.1169
100.807 120.922 87.9683
99.9936 121.796 87.0552
100.392 122.845 87.7991
99.4978 122.669 86.0242
99.7903 120.905 86.242
101.474 119.107 88.1228
101.769 120.052 88.7862
101.034 123.986 88.3799
100.291 124.743 87.5767
100.321 119.046 86.4167
101.37 118.162 87.38
101.425 117.371 86.5432
102.439 117.347 88.1208
99.9421 120.066 85.3128
101.611 116.685 85.6808
102.594 115.857 86.61
102.33 120.925 89.4004
101.867 123.004 89.2434
102.713 121.937 90.1379
101.729 125.053 88.9968
102.896 118.998 89.4538
103.599 120.715 90.7985
103.201 122.912 90.7975
99.6615 125.605 86.6031
99.3138 124.511 85.7195
99.1978 126.35 85.3764
99.3128 123.548 84.825
100.371 126.674 87.2571
99.3368 128.068 85.0236
99.1536 127.077 84.176
99.9897 121.839 83.2386
100.547 120.693 82.556
100.088 122.819 82.1168
101.02 119.468 81.9084
100.959 118.324 82.775
100.031 120.814 84.1912
99.5988 122.768 83.8665
99.6508 125.021 81.4527
100.185 123.838 81.0536
100.869 117.622 83.7818
100.377 118.959 84.519
101.006 117.019 84.7749
101.44 116.43 83.1844
102.312 115.624 84.997
99.3215 124.524 83.5738
99.3712 125.706 82.2726
99.1979 126.311 83.2332
99.2602 126.947 81.1087
99.1788 128.15 82.9546
100.615 122.695 80.4926
101.078 120.348 80.9695
101.357 121.431 80.0659
101.718 118.155 81.5048
100.292 124.974 80.0086
101.813 122.577 79.3534
102.592 120.361 80.1902
110.125 134.847 83.4954
108.608 135.552 82.6798
109.601 134.523 82.309
107.006 136.044 81.7745
107.287 135.993 83.1861
110.311 134.764 84.9091
111.053 133.565 84.5116
109.816 132.796 82.2751
108.947 133.852 81.2585
107.438 135.559 84.5992
109.284 135.123 85.6769
107.884 134.906 86.0501
110.587 133.876 86.31
105.821 135.83 83.5924
106.356 134.355 86.1896
108.193 133.941 87.2189
111.417 131.8 84.2911
110.812 131.402 83.1587
111.922 130.039 84.0149
110.436 130.706 82.4747
111.857 131.869 85.3569
112.679 128.783 84.8251
112.349 128.375 83.8162
107.813 134.22 80.2733
106.719 135.676 80.2983
106.686 134.911 79.2337
105.491 136.253 80.8395
108.805 132.261 80.8396
107.018 133.276 79.041
105.288 135.29 78.4055
103.069 135.148 81.7814
102.192 134.213 82.676
101.872 134.551 81.1751
101.602 133.08 83.8161
102.584 133.601 84.2341
104.256 135.558 82.7816
104.046 136.08 81.2873
101.642 134.859 79.6567
100.863 133.714 80.8585
103.773 133.764 84.8754
104.743 134.849 84.1034
105.087 134.024 85.5726
103.16 132.81 85.9838
105.84 132.954 86.9934
103.939 136.239 80.0083
102.357 135.655 78.7723
103.866 135.892 78.2236
101.494 134.827 78.0569
104.116 134.741 77.4088
100.177 132.527 82.1851
100.566 132.246 83.7525
99.7274 131.096 83.3904
101.245 131.865 85.0977
100.331 132.567 80.6026
99.4176 130.123 82.8761
99.6604 129.756 84.3995
114.231 107.721 85.9449
115.124 108.927 86.3651
115.975 107.969 84.987
115.852 109.998 86.6163
114.763 109.763 87.4557
112.613 107.58 86.3863
113.321 107.215 84.9378
116.732 107.54 83.2303
117.337 108.741 83.9257
113.306 109.777 87.9969
112.182 108.579 87.5019
111.833 109.934 88.3935
110.914 108.014 87.11
114.32 111.009 88.4801
111.811 111.213 89.2797
110.521 110.344 88.8135
113.198 107.168 83.6526
115.064 107.535 82.6683
113.09 107.566 82.4118
116.301 108.511 81.6283
111.239 107.118 84.8387
110.609 107.591 82.7528
112.405 108.471 81.5342
117.15 110.337 84.689
116.883 110.784 86.2905
117.467 111.927 85.5353
116.61 111.283 87.3979
117.826 110.163 83.2902
117.434 112.877 84.8379
117.649 113.18 86.3136
106.818 108.767 86.9011
108.033 107.592 86.5023
106.593 108.09 86.041
109.535 107.261 85.6811
109.588 107.76 86.8263
106.974 109.636 87.8597
105.7 109.942 87.5614
105.617 109.229 85.448
106.607 108.256 84.8188
109.525 108.739 87.7427
108.139 109.703 88.245
109.327 110.014 88.5428
107.056 110.908 88.6644
109.314 111.272 89.3255
104.647 110.969 86.964
104.521 110.634 85.88
103.927 112.299 86.3127
104.775 110.828 84.8174
104.932 111.6 87.8533
103.449 114.014 86.6236
103.45 113.889 85.5766
107.783 107.779 84.0525
109.429 107.191 84.5243
109.059 107.538 83.304
106.69 109.114 83.5962
109.14 108.701 82.1809
112.667 129.358 88.9226
112.678 130.375 87.6929
113.397 128.419 88.1832
112.277 131.166 86.5111
111.67 132.112 87.0999
111.538 130.014 89.3641
112.326 128.123 89.9241
113.793 126.55 88.6677
113.57 127.4 87.6222
110.74 132.684 87.5674
110.616 131.37 88.8946
109.312 132.845 88.0901
113.094 126.369 90.3139
113.826 125.293 89.539
113.679 124.238 90.5376
113.441 127.874 86.6825
112.701 130.016 86.0372
113.086 128.349 85.7057
110.168 128.818 81.176
109.662 127.71 80.8358
110.818 127.018 81.3722
109.108 126.502 80.6155
108.447 128.214 80.3042
109.353 130.455 81.0731
110.373 129.698 81.8157
111.855 126.187 81.9167
111.468 125.175 81.5139
107.811 129.756 80.0039
108.444 131.028 80.3459
107.448 131.612 79.3995
111.276 128.891 82.4388
112.134 126.973 82.4258
112.227 127.665 83.1366
111.188 124.116 81.2504
109.972 124.848 80.7526
110.762 122.961 81.0207
115.519 113.625 91.116
116.431 114.181 90.2711
116.028 112.629 90.0826
116.893 114.828 89.3125
116.454 115.996 90.2168
114.723 115.078 91.6969
114.209 113.498 91.6057
115.2 111.724 89.4424
116.472 111.859 88.8818
115.691 117.314 90.5848
114.938 116.627 91.575
114.899 118.636 91.1848
113.392 112.567 91.1155
113.915 111.684 89.8048
112.533 111.84 90.2432
117.211 112.471 88.146
117.315 114.175 88.4302
117.422 113.66 87.3579
115.383 113.453 81.705
114.948 112.941 80.9727
116.519 111.758 80.9615
113.75 112.93 80.6412
113.339 114.596 81.315
114.726 115.478 82.0023
115.798 114.211 82.3659
117.653 110.807 81.9627
116.613 110.028 80.871
113.066 116.225 80.9748
113.972 116.912 81.3562
112.955 118.178 80.7465
116.727 113.706 82.8725
117.258 111.706 82.9902
117.177 113.326 83.8604
114.772 109.968 80.6476
113.324 111.719 80.472
112.621 109.871 80.7479
102.815 129.23 89.2422
101.869 128.698 88.4889
102.175 130.211 87.9084
101.172 127.89 87.8014
101.751 127.035 88.8735
103.711 127.97 90.2482
104.134 129.56 89.5307
102.636 131.576 87.1159
101.721 131.018 86.535
102.321 125.75 89.7428
103.418 126.405 90.4781
103.293 124.563 90.6329
104.664 130.685 88.5942
103.724 131.987 87.3837
105.198 131.872 87.6269
100.849 130.335 85.921
100.516 128.424 86.7146
100.003 129.136 85.5607
100.056 129.212 79.0435
100.823 129.793 78.1404
100.393 131.099 78.7694
101.96 130.266 77.4827
101.725 128.16 77.9844
100.047 127.056 79.422
99.4034 128.262 80.1008
100.156 131.941 79.7335
100.862 133.009 78.436
101.751 126.255 78.3296
100.687 125.584 79.0421
101.786 124.278 78.7739
99.1801 128.834 81.0474
99.4589 130.859 80.8864
99.2816 129.417 82.036
101.676 133.319 77.5397
102.855 131.45 77.2468
103.71 133.165 77.2398
104.508 115.591 89.4208
105.651 115.014 90.0531
105.344 113.919 89.2494
106.836 114.627 90.5508
106.084 116.082 90.8188
103.877 117.203 89.502
103.517 116.441 88.8154
105.162 112.77 88.5538
106.149 112.309 89.0799
105.285 117.455 90.8628
104.048 118.143 90.1302
104.369 119.097 90.8659
103.321 115.563 88.1366
104.306 113.558 88.0351
103.335 114.731 87.3896
107.258 112.225 89.4099
107.581 113.309 90.3478
108.543 112.266 89.8403
105.28 114.039 82.283
103.911 114.97 82.5399
104.847 112.96 82.9682
102.59 115.5 82.8397
102.67 116.434 81.8625
105.804 114.89 81.7166
106.493 113.101 81.9325
105.677 110.939 83.2324
104.769 111.88 83.8419
103.13 117.523 81.2659
104.687 116.732 81.2118
103.618 118.771 80.7285
107.084 111.646 81.8289
106.603 110.349 82.6047
107.916 110.041 81.8738
103.976 113.041 84.3294
102.894 114.99 83.7991
103.227 114.449 84.7806
POLYGONS 1280  5120
3 164 162 163
3 163 44 164
3 162 43 163
3 164 42 162
3 166 165 163
3 163 43 166
3 165 44 163
3 166 14 165
3 168 167 162
3 162 42 168
3 167 43 162
3 168 13 167
3 170 169 164
3 164 44 170
3 169 42 164
3 170 12 169
3 173 171 172
3 172 46 173
3 171 43 172
3 173 45 171
3 167 174 172
3 172 43 167
3 174 46 172
3 167 13 174
3 175 166 171
3 171 45 175
3 166 43 171
3 175 14 166
3 177 176 173
3 173 46 177
3 176 45 173
3 177 4 176
3 180 178 179
3 179 48 180
3 178 42 179
3 180 47 178
3 169 181 179
3 179 42 169
3 181 48 179
3 169 12 181
3 182 168 178
3 178 47 182
3 168 42 178
3 182 13 168
3 184 183 180
3 180 48 184
3 183 47 180
3 184 8 183
3 187 185 186
3 186 50 187
3 185 44 186
3 187 49 185
3 165 188 186
3 186 44 165
3 188 50 186
3 165 14 188
3 189 170 185
3 185 49 189
3 170 44 185
3 189 12 170
3 191 190 187
3 187 50 191
3 190 49 187
3 191 7 190
3 194 192 193
3 193 53 194
3 192 52 193
3 194 51 192
3 196 195 193
3 193 52 196
3 195 53 193
3 196 16 195
3 198 197 192
3 192 51 198
3 197 52 192
3 198 14 197
3 200 199 194
3 194 53 200
3 199 51 194
3 200 15 199
3 203 201 202
3 202 45 203
3 201 52 202
3 203 54 201
3 197 175 202
3 202 52 197
3 175 45 202
3 197 14 175
3 204 196 201
3 201 54 204
3 196 52 201
3 204 16 196
3 176 205 203
3 203 45 176
3 205 54 203
3 176 4 205
3 208 206 207
3 207 55 208
3 206 51 207
3 208 50 206
3 199 209 207
3 207 51 199
3 209 55 207
3 199 15 209
3 188 198 206
3 206 50 188
3 198 51 206
3 188 14 198
3 210 191 208
3 208 55 210
3 191 50 208
3 210 7 191
3 213 211 212
3 212 57 213
3 211 53 212
3 213 56 211
3 195 214 212
3 212 53 195
3 214 57 212
3 195 16 214
3 215 200 211
3 211 56 215
3 200 53 211
3 215 15 200
3 217 216 213
3 213 57 217
3 216 56 213
3 217 9 216
3 220 218 219
3 219 60 220
3 218 59 219
3 220 58 218
3 222 221 219
3 219 59 222
3 221 60 219
3 222 19 221
3 224 223 218
3 218 58 224
3 223 59 218
3 224 18 223
3 226 225 220
3 220 60 226
3 225 58 220
3 226 17 225
3 229 227 228
3 228 62 229
3 227 59 228
3 229 61 227
3 223 230 228
3 228 59 223
3 230 62 228
3 223 18 230
3 231 222 227
3 227 61 231
3 222 59 227
3 231 19 222
3 233 232 229
3 229 62 233
3 232 61 229
3 233 5 232
3 236 234 235
3 235 64 236
3 234 58 235
3 236 63 234
3 225 237 235
3 235 58 225
3 237 64 235
3 225 17 237
3 238 224 234
3 234 63 238
3 224 58 234
3 238 18 224
3 240 239 236
3 236 64 240
3 239 63 236
3 240 6 239
3 243 241 242
3 242 66 243
3 241 60 242
3 243 65 241
3 221 244 242
3 242 60 221
3 244 66 242
3 221 19 244
3 245 226 241
3 241 65 245
3 226 60 241
3 245 17 226
3 247 246 243
3 243 66 247
3 246 65 243
3 247 11 246
3 250 248 249
3 249 69 250
3 248 68 249
3 250 67 248
3 252 251 249
3 249 68 252
3 251 69 249
3 252 18 251
3 254 253 248
3 248 67 254
3 253 68 248
3 254 21 253
3 256 255 250
3 250 69 256
3 255 67 250
3 256 20 255
3 259 257 258
3 258 70 259
3 257 68 258
3 259 62 257
3 253 260 258
3 258 68 253
3 260 70 258
3 253 21 260
3 230 252 257
3 257 62 230
3 252 68 257
3 230 18 252
3 261 233 259
3 259 70 261
3 233 62 259
3 261 5 233
3 264 262 263
3 263 72 264
3 262 67 263
3 264 71 262
3 255 265 263
3 263 67 255
3 265 72 263
3 255 20 265
3 266 254 262
3 262 71 266
3 254 67 262
3 266 21 254
3 268 267 264
3 264 72 268
3 267 71 264
3 268 10 267
3 271 269 270
3 270 63 271
3 269 69 270
3 271 73 269
3 251 238 270
3 270 69 251
3 238 63 270
3 251 18 238
3 272 256 269
3 269 73 272
3 256 69 269
3 272 20 256
3 239 273 271
3 271 63 239
3 273 73 271
3 239 6 273
3 276 274 275
3 275 76 276
3 274 75 275
3 276 74 274
3 278 277 275
3 275 75 278
3 277 76 275
3 278 24 277
3 280 279 274
3 274 74 280
3 279 75 274
3 280 23 279
3 282 281 276
3 276 76 282
3 281 74 276
3 282 22 281
3 285 283 284
3 284 78 285
3 283 75 284
3 285 77 283
3 279 286 284
3 284 75 279
3 286 78 284
3 279 23 286
3 287 278 283
3 283 77 287
3 278 75 283
3 287 24 278
3 289 288 285
3 285 78 289
3 288 77 285
3 289 0 288
3 292 290 291
3 291 80 292
3 290 74 291
3 292 79 290
3 281 293 291
3 291 74 281
3 293 80 291
3 281 22 293
3 294 280 290
3 290 79 294
3 280 74 290
3 294 23 280
3 296 295 292
3 292 80 296
3 295 79 292
3 296 4 295
3 299 297 298
3 298 82 299
3 297 76 298
3 299 81 297
3 277 300 298
3 298 76 277
3 300 82 298
3 277 24 300
3 301 282 297
3 297 81 301
3 282 76 297
3 301 22 282
3 303 302 299
3 299 82 303
3 302 81 299
3 303 3 302
3 306 304 305
3 305 85 306
3 304 84 305
3 306 83 304
3 308 307 305
3 305 84 308
3 307 85 305
3 308 26 307
3 310 309 304
3 304 83 310
3 309 84 304
3 310 24 309
3 312 311 306
3 306 85 312
3 311 83 306
3 312 25 311
3 315 313 314
3 314 77 315
3 313 84 314
3 315 86 313
3 309 287 314
3 314 84 309
3 287 77 314
3 309 24 287
3 316 308 313
3 313 86 316
3 308 84 313
3 316 26 308
3 288 317 315
3 315 77 288
3 317 86 315
3 288 0 317
3 320 318 319
3 319 87 320
3 318 83 319
3 320 82 318
3 311 321 319
3 319 83 311
3 321 87 319
3 311 25 321
3 300 310 318
3 318 82 300
3 310 83 318
3 300 24 310
3 322 303 320
3 320 87 322
3 303 82 320
3 322 3 303
3 325 323 324
3 324 89 325
3 323 85 324
3 325 88 323
3 307 326 324
3 324 85 307
3 326 89 324
3 307 26 326
3 327 312 323
3 323 88 327
3 312 85 323
3 327 25 312
3 329 328 325
3 325 89 329
3 328 88 325
3 329 5 328
3 332 330 331
3 331 92 332
3 330 91 331
3 332 90 330
3 334 333 331
3 331 91 334
3 333 92 331
3 334 29 333
3 336 335 330
3 330 90 336
3 335 91 330
3 336 28 335
3 338 337 332
3 332 92 338
3 337 90 332
3 338 27 337
3 341 339 340
3 340 94 341
3 339 91 340
3 341 93 339
3 335 342 340
3 340 91 335
3 342 94 340
3 335 28 342
3 343 334 339
3 339 93 343
3 334 91 339
3 343 29 334
3 345 344 341
3 341 94 345
3 344 93 341
3 345 2 344
3 348 346 347
3 347 96 348
3 346 90 347
3 348 95 346
3 337 349 347
3 347 90 337
3 349 96 347
3 337 27 349
3 350 336 346
3 346 95 350
3 336 90 346
3 350 28 336
3 352 351 348
3 348 96 352
3 351 95 348
3 352 7 351
3 355 353 354
3 354 98 355
3 353 92 354
3 355 97 353
3 333 356 354
3 354 92 333
3 356 98 354
3 333 29 356
3 357 338 353
3 353 97 357
3 338 92 353
3 357 27 338
3 359 358 355
3 355 98 359
3 358 97 355
3 359 1 358
3 362 360 361
3 361 101 362
3 360 100 361
3 362 99 360
3 364 363 361
3 361 100 364
3 363 101 361
3 364 31 363
3 366 365 360
3 360 99 366
3 365 100 360
3 366 29 365
3 368 367 362
3 362 101 368
3 367 99 362
3 368 30 367
3 371 369 370
3 370 93 371
3 369 100 370
3 371 102 369
3 365 343 370
3 370 100 365
3 343 93 370
3 365 29 343
3 372 364 369
3 369 102 372
3 364 100 369
3 372 31 364
3 344 373 371
3 371 93 344
3 373 102 371
3 344 2 373
3 376 374 375
3 375 103 376
3 374 99 375
3 376 98 374
3 367 377 375
3 375 99 367
3 377 103 375
3 367 30 377
3 356 366 374
3 374 98 356
3 366 99 374
3 356 29 366
3 378 359 376
3 376 103 378
3 359 98 376
3 378 1 359
3 381 379 380
3 380 105 381
3 379 101 380
3 381 104 379
3 363 382 380
3 380 101 363
3 382 105 380
3 363 31 382
3 383 368 379
3 379 104 383
3 368 101 379
3 383 30 368
3 385 384 381
3 381 105 385
3 384 104 381
3 385 6 384
3 388 386 387
3 387 108 388
3 386 107 387
3 388 106 386
3 390 389 387
3 387 107 390
3 389 108 387
3 390 34 389
3 392 391 386
3 386 106 392
3 391 107 386
3 392 33 391
3 394 393 388
3 388 108 394
3 393 106 388
3 394 32 393
3 397 395 396
3 396 110 397
3 395 107 396
3 397 109 395
3 391 398 396
3 396 107 391
3 398 110 396
3 391 33 398
3 399 390 395
3 395 109 399
3 390 107 395
3 399 34 390
3 401 400 397
3 397 110 401
3 400 109 397
3 401 8 400
3 404 402 403
3 403 112 404
3 402 106 403
3 404 111 402
3 393 405 403
3 403 106 393
3 405 112 403
3 393 32 405
3 406 392 402
3 402 111 406
3 392 106 402
3 406 33 392
3 408 407 404
3 404 112 408
3 407 111 404
3 408 0 407
3 411 409 410
3 410 114 411
3 409 108 410
3 411 113 409
3 389 412 410
3 410 108 389
3 412 114 410
3 389 34 412
3 413 394 409
3 409 113 413
3 394 108 409
3 413 32 394
3 415 414 411
3 411 114 415
3 414 113 411
3 415 11 414
3 418 416 417
3 417 117 418
3 416 116 417
3 418 115 416
3 420 419 417
3 417 116 420
3 419 117 417
3 420 36 419
3 422 421 416
3 416 115 422
3 421 116 416
3 422 34 421
3 424 423 418
3 418 117 424
3 423 115 418
3 424 35 423
3 427 425 426
3 426 109 427
3 425 116 426
3 427 118 425
3 421 399 426
3 426 116 421
3 399 109 426
3 421 34 399
3 428 420 425
3 425 118 428
3 420 116 425
3 428 36 420
3 400 429 427
3 427 109 400
3 429 118 427
3 400 8 429
3 432 430 431
3 431 119 432
3 430 115 431
3 432 114 430
3 423 433 431
3 431 115 423
3 433 119 431
3 423 35 433
3 412 422 430
3 430 114 412
3 422 115 430
3 412 34 422
3 434 415 432
3 432 119 434
3 415 114 432
3 434 11 415
3 437 435 436
3 436 121 437
3 435 117 436
3 437 120 435
3 419 438 436
3 436 117 419
3 438 121 436
3 419 36 438
3 439 424 435
3 435 120 439
3 424 117 435
3 439 35 424
3 441 440 437
3 437 121 441
3 440 120 437
3 441 1 440
3 444 442 443
3 443 124 444
3 442 123 443
3 444 122 442
3 446 445 443
3 443 123 446
3 445 124 443
3 446 39 445
3 448 447 442
3 442 122 448
3 447 123 442
3 448 38 447
3 450 449 444
3 444 124 450
3 449 122 444
3 450 37 449
3 453 451 452
3 452 126 453
3 451 123 452
3 453 125 451
3 447 454 452
3 452 123 447
3 454 126 452
3 447 38 454
3 455 446 451
3 451 125 455
3 446 123 451
3 455 39 446
3 457 456 453
3 453 126 457
3 456 125 453
3 457 9 456
3 460 458 459
3 459 128 460
3 458 122 459
3 460 127 458
3 449 461 459
3 459 122 449
3 461 128 459
3 449 37 461
3 462 448 458
3 458 127 462
3 448 122 458
3 462 38 448
3 464 463 460
3 460 128 464
3 463 127 460
3 464 10 463
3 467 465 466
3 466 130 467
3 465 124 466
3 467 129 465
3 445 468 466
3 466 124 445
3 468 130 466
3 445 39 468
3 469 450 465
3 465 129 469
3 450 124 465
3 469 37 450
3 471 470 467
3 467 130 471
3 470 129 467
3 471 3 470
3 474 472 473
3 473 133 474
3 472 132 473
3 474 131 472
3 476 475 473
3 473 132 476
3 475 133 473
3 476 38 475
3 478 477 472
3 472 131 478
3 477 132 472
3 478 41 477
3 480 479 474
3 474 133 480
3 479 131 474
3 480 40 479
3 483 481 482
3 482 134 483
3 481 132 482
3 483 126 481
3 477 484 482
3 482 132 477
3 484 134 482
3 477 41 484
3 454 476 481
3 481 126 454
3 476 132 481
3 454 38 476
3 485 457 483
3 483 134 485
3 457 126 483
3 485 9 457
3 488 486 487
3 487 136 488
3 486 131 487
3 488 135 486
3 479 489 487
3 487 131 479
3 489 136 487
3 479 40 489
3 490 478 486
3 486 135 490
3 478 131 486
3 490 41 478
3 492 491 488
3 488 136 492
3 491 135 488
3 492 2 491
3 495 493 494
3 494 127 495
3 493 133 494
3 495 137 493
3 475 462 494
3 494 133 475
3 462 127 494
3 475 38 462
3 496 480 493
3 493 137 496
3 480 133 493
3 496 40 480
3 463 497 495
3 495 127 463
3 497 137 495
3 463 10 497
3 500 498 499
3 499 140 500
3 498 139 499
3 500 138 498
3 502 501 499
3 499 139 502
3 501 140 499
3 502 33 501
3 504 503 498
3 498 138 504
3 503 139 498
3 504 13 503
3 506 505 500
3 500 140 506
3 505 138 500
3 506 23 505
3 509 507 508
3 508 47 509
3 507 139 508
3 509 110 507
3 503 182 508
3 508 139 503
3 182 47 508
3 503 13 182
3 398 502 507
3 507 110 398
3 502 139 507
3 398 33 502
3 183 401 509
3 509 47 183
3 401 110 509
3 183 8 401
3 512 510 511
3 511 79 512
3 510 138 511
3 512 46 510
3 505 294 511
3 511 138 505
3 294 79 511
3 505 23 294
3 174 504 510
3 510 46 174
3 504 138 510
3 174 13 504
3 295 177 512
3 512 79 295
3 177 46 512
3 295 4 177
3 515 513 514
3 514 111 515
3 513 140 514
3 515 78 513
3 501 406 514
3 514 140 501
3 406 111 514
3 501 33 406
3 286 506 513
3 513 78 286
3 506 140 513
3 286 23 506
3 407 289 515
3 515 111 407
3 289 78 515
3 407 0 289
3 518 516 517
3 517 143 518
3 516 142 517
3 518 141 516
3 520 519 517
3 517 142 520
3 519 143 517
3 520 19 519
3 522 521 516
3 516 141 522
3 521 142 516
3 522 32 521
3 524 523 518
3 518 143 524
3 523 141 518
3 524 26 523
3 527 525 526
3 526 113 527
3 525 142 526
3 527 66 525
3 521 413 526
3 526 142 521
3 413 113 526
3 521 32 413
3 244 520 525
3 525 66 244
3 520 142 525
3 244 19 520
3 414 247 527
3 527 113 414
3 247 66 527
3 414 11 247
3 530 528 529
3 529 86 530
3 528 141 529
3 530 112 528
3 523 316 529
3 529 141 523
3 316 86 529
3 523 26 316
3 405 522 528
3 528 112 405
3 522 141 528
3 405 32 522
3 317 408 530
3 530 86 317
3 408 112 530
3 317 0 408
3 533 531 532
3 532 61 533
3 531 143 532
3 533 89 531
3 519 231 532
3 532 143 519
3 231 61 532
3 519 19 231
3 326 524 531
3 531 89 326
3 524 143 531
3 326 26 524
3 232 329 533
3 533 61 232
3 329 89 533
3 232 5 329
3 536 534 535
3 535 146 536
3 534 145 535
3 536 144 534
3 538 537 535
3 535 145 538
3 537 146 535
3 538 22 537
3 540 539 534
3 534 144 540
3 539 145 534
3 540 16 539
3 542 541 536
3 536 146 542
3 541 144 536
3 542 39 541
3 545 543 544
3 544 54 545
3 543 145 544
3 545 80 543
3 539 204 544
3 544 145 539
3 204 54 544
3 539 16 204
3 293 538 543
3 543 80 293
3 538 145 543
3 293 22 538
3 205 296 545
3 545 54 205
3 296 80 545
3 205 4 296
3 548 546 547
3 547 125 548
3 546 144 547
3 548 57 546
3 541 455 547
3 547 144 541
3 455 125 547
3 541 39 455
3 214 540 546
3 546 57 214
3 540 144 546
3 214 16 540
3 456 217 548
3 548 125 456
3 217 57 548
3 456 9 217
3 551 549 550
3 550 81 551
3 549 146 550
3 551 130 549
3 537 301 550
3 550 146 537
3 301 81 550
3 537 22 301
3 468 542 549
3 549 130 468
3 542 146 549
3 468 39 542
3 302 471 551
3 551 81 302
3 471 130 551
3 302 3 471
3 554 552 553
3 553 149 554
3 552 148 553
3 554 147 552
3 556 555 553
3 553 148 556
3 555 149 553
3 556 21 555
3 558 557 552
3 552 147 558
3 557 148 552
3 558 25 557
3 560 559 554
3 554 149 560
3 559 147 554
3 560 37 559
3 563 561 562
3 562 88 563
3 561 148 562
3 563 70 561
3 557 327 562
3 562 148 557
3 327 88 562
3 557 25 327
3 260 556 561
3 561 70 260
3 556 148 561
3 260 21 556
3 328 261 563
3 563 88 328
3 261 70 563
3 328 5 261
3 566 564 565
3 565 129 566
3 564 147 565
3 566 87 564
3 559 469 565
3 565 147 559
3 469 129 565
3 559 37 469
3 321 558 564
3 564 87 321
3 558 147 564
3 321 25 558
3 470 322 566
3 566 129 470
3 322 87 566
3 470 3 322
3 569 567 568
3 568 71 569
3 567 149 568
3 569 128 567
3 555 266 568
3 568 149 555
3 266 71 568
3 555 21 266
3 461 560 567
3 567 128 461
3 560 149 567
3 461 37 560
3 267 464 569
3 569 71 267
3 464 128 569
3 267 10 464
3 572 570 571
3 571 152 572
3 570 151 571
3 572 150 570
3 574 573 571
3 571 151 574
3 573 152 571
3 574 27 573
3 576 575 570
3 570 150 576
3 575 151 570
3 576 12 575
3 578 577 572
3 572 152 578
3 577 150 572
3 578 36 577
3 581 579 580
3 580 49 581
3 579 151 580
3 581 96 579
3 575 189 580
3 580 151 575
3 189 49 580
3 575 12 189
3 349 574 579
3 579 96 349
3 574 151 579
3 349 27 574
3 190 352 581
3 581 49 190
3 352 96 581
3 190 7 352
3 584 582 583
3 583 118 584
3 582 150 583
3 584 48 582
3 577 428 583
3 583 150 577
3 428 118 583
3 577 36 428
3 181 576 582
3 582 48 181
3 576 150 582
3 181 12 576
3 429 184 584
3 584 118 429
3 184 48 584
3 429 8 184
3 587 585 586
3 586 97 587
3 585 152 586
3 587 121 585
3 573 357 586
3 586 152 573
3 357 97 586
3 573 27 357
3 438 578 585
3 585 121 438
3 578 152 585
3 438 36 578
3 358 441 587
3 587 97 358
3 441 121 587
3 358 1 441
3 590 588 589
3 589 155 590
3 588 154 589
3 590 153 588
3 592 591 589
3 589 154 592
3 591 155 589
3 592 17 591
3 594 593 588
3 588 153 594
3 593 154 588
3 594 30 593
3 596 595 590
3 590 155 596
3 595 153 590
3 596 35 595
3 599 597 598
3 598 104 599
3 597 154 598
3 599 64 597
3 593 383 598
3 598 154 593
3 383 104 598
3 593 30 383
3 237 592 597
3 597 64 237
3 592 154 597
3 237 17 592
3 384 240 599
3 599 104 384
3 240 64 599
3 384 6 240
3 602 600 601
3 601 120 602
3 600 153 601
3 602 103 600
3 595 439 601
3 601 153 595
3 439 120 601
3 595 35 439
3 377 594 600
3 600 103 377
3 594 153 600
3 377 30 594
3 440 378 602
3 602 120 440
3 378 103 602
3 440 1 378
3 605 603 604
3 604 65 605
3 603 155 604
3 605 119 603
3 591 245 604
3 604 155 591
3 245 65 604
3 591 17 245
3 433 596 603
3 603 119 433
3 596 155 603
3 433 35 596
3 246 434 605
3 605 65 246
3 434 119 605
3 246 11 434
3 608 606 607
3 607 158 608
3 606 157 607
3 608 156 606
3 610 609 607
3 607 157 610
3 609 158 607
3 610 15 609
3 612 611 606
3 606 156 612
3 611 157 606
3 612 28 611
3 614 613 608
3 608 158 614
3 613 156 608
3 614 41 613
3 617 615 616
3 616 95 617
3 615 157 616
3 617 55 615
3 611 350 616
3 616 157 611
3 350 95 616
3 611 28 350
3 209 610 615
3 615 55 209
3 610 157 615
3 209 15 610
3 351 210 617
3 617 95 351
3 210 55 617
3 351 7 210
3 620 618 619
3 619 135 620
3 618 156 619
3 620 94 618
3 613 490 619
3 619 156 613
3 490 135 619
3 613 41 490
3 342 612 618
3 618 94 342
3 612 156 618
3 342 28 612
3 491 345 620
3 620 135 491
3 345 94 620
3 491 2 345
3 623 621 622
3 622 56 623
3 621 158 622
3 623 134 621
3 609 215 622
3 622 158 609
3 215 56 622
3 609 15 215
3 484 614 621
3 621 134 484
3 614 158 621
3 484 41 614
3 216 485 623
3 623 56 216
3 485 134 623
3 216 9 485
3 626 624 625
3 625 161 626
3 624 160 625
3 626 159 624
3 628 627 625
3 625 160 628
3 627 161 625
3 628 31 627
3 630 629 624
3 624 159 630
3 629 160 624
3 630 20 629
3 632 631 626
3 626 161 632
3 631 159 626
3 632 40 631
3 635 633 634
3 634 73 635
3 633 160 634
3 635 105 633
3 629 272 634
3 634 160 629
3 272 73 634
3 629 20 272
3 382 628 633
3 633 105 382
3 628 160 633
3 382 31 628
3 273 385 635
3 635 73 273
3 385 105 635
3 273 6 385
3 638 636 637
3 637 137 638
3 636 159 637
3 638 72 636
3 631 496 637
3 637 159 631
3 496 137 637
3 631 40 496
3 265 630 636
3 636 72 265
3 630 159 636
3 265 20 630
3 497 268 638
3 638 137 497
3 268 72 638
3 497 10 268
3 641 639 640
3 640 102 641
3 639 161 640
3 641 136 639
3 627 372 640
3 640 161 627
3 372 102 640
3 627 31 372
3 489 632 639
3 639 136 489
3 632 161 639
3 489 40 632
3 373 492 641
3 641 102 373
3 492 136 641
3 373 2 492
