# vtk DataFile Version 3.0
this file was written using fslvtkio
ASCII
DATASET POLYDATA
POINTS 642 float
89.0196 119.719 90.0031
84.2723 112.435 92.823
87.3153 105.234 90.7745
92.7817 112.644 88.5848
92.4386 114.89 93.1594
88.978 114.787 86.9629
86.098 110.139 88.832
88.803 110.388 94.6434
85.4048 117.894 94.6328
92.122 107.405 90.8137
90.1312 106.184 86.7753
82.3928 118.75 89.7258
87.1064 114.427 95.0159
89.263 116.437 94.6771
91.001 112.374 94.9493
91.2011 108.044 93.4604
92.5822 110.909 92.4639
85.8397 115.283 89.8979
87.4588 112.515 87.8825
85.3034 118.139 87.7039
87.5167 107.363 87.5753
90.1847 110.56 86.7088
92.8221 113.99 90.6642
90.8992 117.74 91.7698
91.5821 116.677 88.8141
91.8388 113.69 86.7552
88.3662 118.779 87.6845
86.4308 111.547 93.9497
88.1877 106.954 93.2432
85.0333 108.004 92.0896
85.173 111.667 90.8345
86.3322 106.846 89.4336
84.4142 120.815 89.6012
86.705 119.328 92.3972
82.6574 118.996 92.7213
83.4667 116.283 92.0109
83.6726 115.656 94.4536
92.215 109.192 87.4924
90.7395 105.008 88.8986
93.0155 109.592 89.7914
87.2096 102.709 87.9245
89.7761 105.042 90.8631
88.1227 115.76 95.1904
90.5152 114.514 95.0335
89.2306 113.398 95.4217
92.002 113.638 94.1142
91.2026 116.04 94.1122
87.3534 117.563 94.5165
86.2402 116.223 94.8652
88.166 112.485 94.978
90.0448 111.167 95.0113
91.2375 110.301 94.2989
92.1931 111.889 93.7937
92.1256 109.468 93.1259
92.5798 112.985 92.6095
89.9529 109.022 93.9979
91.6829 107.831 92.1256
92.6756 109.227 91.5792
86.7042 113.909 88.8576
86.7707 115.591 88.019
85.3189 116.787 88.7228
87.2162 116.562 87.0862
88.2605 113.797 87.5845
86.6003 111.465 88.3122
86.245 112.613 89.611
84.1804 117.209 89.6835
83.37 118.942 88.3067
88.8143 109.028 86.734
88.5805 111.503 87.2683
87.1612 109.665 86.9071
89.8342 112.505 86.8542
90.4488 108.429 86.6717
89.0331 106.606 87.0081
86.1031 108.601 87.4039
92.2826 116.03 91.2846
91.5327 117.461 90.325
92.8529 115.55 89.7395
90.5009 118.351 89.3296
90.1252 118.984 91.0219
91.66 116.449 92.7541
92.6591 114.296 91.8488
93.0118 113.219 89.6011
92.5673 114.847 88.5792
91.4479 115.356 87.82
89.9968 117.718 88.2333
90.0877 116.296 87.1995
88.6508 119.512 88.7656
92.8941 113.06 87.5086
90.5149 114.254 86.4286
88.854 116.971 86.88
87.1424 109.106 93.7872
86.1746 107.437 93.0714
86.2414 109.769 92.9295
86.0251 106.522 91.7095
87.601 105.961 92.2462
88.3947 108.695 94.0231
87.5275 111.12 94.3739
85.315 111.904 93.4583
85.7408 110.28 92.1426
85.3297 109.72 91.22
85.2343 107.051 90.8895
85.2531 108.897 90.0734
86.9353 105.66 89.8237
84.8018 112.049 91.7277
86.2074 110.869 89.9419
85.4482 108.001 88.7143
85.6554 120.201 90.9629
84.4352 119.656 92.4073
83.0214 120.376 90.7249
83.821 118.761 94.0836
86.1311 118.759 93.522
88.0692 119.925 91.3199
87.101 120.667 89.8597
82.9006 120.295 88.7182
82.3743 119.016 91.0365
82.1642 117.838 92.3215
82.6693 117.588 94.1625
83.3153 115.847 93.2755
84.3857 116.632 95.0091
83.0547 117.295 90.7237
83.6529 114.136 92.3788
84.2813 113.939 93.6976
92.1906 106.747 87.9051
92.5754 106.967 89.0576
92.9783 108.67 88.4783
92.582 108.578 90.2374
91.92 106.12 89.855
90.7012 105.465 87.5292
91.4573 107.694 86.9065
92.4918 110.547 88.2427
93.0945 110.714 89.2431
88.5649 102.791 89.6181
90.7443 104.415 90.2912
89.0304 103.593 88.2144
90.9869 106.353 91.0132
88.5325 104.981 90.749
87.3129 103.778 89.3248
88.7309 104.45 87.0069
90.0693 117.615 93.4856
88.1305 118.112 93.4446
89.0168 118.89 92.3555
86.6141 119.949 88.7041
85.0049 119.868 88.3051
87.0774 118.243 87.2444
92.8485 110.339 90.9873
92.7286 112.188 91.4292
92.8713 111.872 90.2166
92.2463 112.037 87.1874
91.3566 112.509 86.1124
91.3016 109.95 87.0534
85.0684 114.898 95.1378
86.4347 112.786 95.0641
84.8718 113.652 94.4995
84.1876 113.953 91.374
85.5445 113.439 90.3486
84.4283 115.598 90.7858
89.103 105.991 92.1845
89.7253 107.341 93.6874
90.5795 106.612 92.2731
87.8994 105.06 87.7031
86.8072 106.561 88.3553
87.0283 104.818 88.6612
89.2864 115.081 95.2297
89.698 114.107 95.2506
88.7755 114.599 95.394
90.1819 112.906 95.3058
90.6916 113.511 95.0374
89.8257 115.419 94.9166
88.8225 116.082 95.0561
87.8175 114.995 95.2035
88.3091 114.088 95.3135
91.3361 114.078 94.6962
90.853 115.173 94.5932
91.6934 114.828 94.3576
90.2551 115.982 94.4439
91.4772 113.125 94.6887
92.2625 114.38 93.7711
92.0114 115.407 93.8567
87.8746 116.699 95.059
87.2345 115.933 95.2674
86.9233 116.821 94.9749
86.7862 115.338 94.937
88.2668 117.1 94.5754
86.4593 117.742 94.6598
85.9325 117.133 94.7881
88.5174 113.149 95.1809
89.651 112.385 95.4139
89.02 111.889 95.0789
90.4411 111.849 95.1845
87.6626 113.594 95.1873
88.525 111.428 94.9691
89.3816 110.911 94.7613
91.8017 111.149 94.2058
92.2686 110.661 93.5221
91.7576 109.911 93.7626
92.4023 110.209 92.8764
92.5057 111.31 93.1711
91.7036 112.167 94.4766
91.1516 111.373 94.7307
91.2495 109.229 93.9412
91.6598 108.871 93.4725
92.5152 112.315 93.1288
92.1797 112.779 94.0508
92.5883 113.467 93.4392
92.8449 111.841 92.5865
92.573 113.967 92.9982
90.7363 110.703 94.8315
90.5937 109.61 94.1895
89.8849 110.165 94.4508
90.6492 108.48 93.871
89.334 109.838 94.2497
91.8929 108.695 92.6751
92.5178 109.452 92.3796
92.2492 108.587 91.9512
92.5872 110.005 92.0915
91.4447 108.068 92.8095
92.1924 107.665 91.6296
92.6294 108.325 91.3572
86.655 114.854 88.5431
86.1143 116.255 88.4369
86.2401 115.498 88.9656
85.201 117.406 88.0707
86.0477 116.881 87.742
87.1267 114.239 88.0373
86.8992 113.394 88.2414
86.2973 114.76 89.3198
85.7579 115.912 89.3384
86.843 116.087 87.5466
87.5253 114.573 87.8087
87.7241 115.208 87.2402
87.7366 113.403 87.907
86.2566 117.44 87.4099
88.0643 115.666 86.8583
88.4684 114.375 87.1274
86.5846 112.634 88.417
86.5314 113.377 89.2375
86.4671 111.953 89.0234
86.1609 114.021 89.6917
87.051 112.085 87.9653
86.274 110.852 88.5879
86.415 111.398 89.3251
84.8301 117.057 89.1502
84.3305 117.842 88.4094
83.7301 117.951 88.8921
84.326 118.412 87.9398
85.0654 116.328 89.7253
83.1942 117.98 89.5875
82.7624 118.751 88.9759
88.7161 110.132 86.7812
87.9807 110.514 87.0532
87.9592 109.364 86.6479
87.4279 111.109 87.5117
87.9318 111.961 87.6376
89.215 110.79 86.9039
89.4155 109.882 86.7263
88.013 108.387 87.0984
87.2607 108.625 86.9716
88.336 112.773 87.7861
89.1342 111.922 87.1863
89.0683 113.28 87.3369
89.8802 111.412 86.7538
89.4195 113.719 86.943
89.6554 108.763 86.726
88.8808 107.693 87.2744
89.6936 107.675 86.5266
88.3673 107.075 87.5298
90.1936 109.441 86.7492
90.4024 107.405 86.4469
89.6686 106.592 86.6872
86.5165 109.235 86.9915
86.8346 110.801 87.7597
86.2126 110.217 87.8829
86.769 107.94 87.3123
85.8748 109.284 88.1296
92.129 116.832 90.7403
92.1793 116.518 90.0225
92.7177 115.958 90.4953
92.3046 116.139 89.3509
91.7833 116.955 89.5272
91.4261 117.593 91.0068
91.7266 116.946 91.4194
92.7626 115.152 90.9338
92.9751 114.952 90.2916
91.1399 117.824 89.7841
91.0047 118.292 90.7151
90.66 118.69 90.1753
90.5672 118.376 91.4149
91.0934 117.449 89.1233
89.988 119.061 89.6299
89.8114 119.263 90.3442
91.9874 116.36 91.9733
92.5525 115.237 91.6378
92.2746 115.471 92.3897
92.7368 114.154 91.2296
91.1315 117.051 92.2097
92.2275 115.788 93.2137
92.5462 114.563 92.5051
93.1116 114.517 89.6407
92.7493 115.2 89.1805
93.0563 114.097 89.0905
92.0623 115.775 88.7159
92.9533 113.845 90.0841
92.7879 113.043 89.049
93.1218 113.871 88.4639
90.7931 116.606 88.0742
90.0908 117.051 87.6718
90.7523 115.88 87.5863
89.4356 117.525 87.422
89.3448 118.028 87.8509
90.799 117.113 88.5135
91.4045 116.14 88.3074
91.3445 114.663 87.3984
90.844 115.144 87.1292
89.4302 118.647 88.3623
90.3819 118.056 88.7395
89.7068 119.027 88.933
88.6186 119.016 88.1531
89.0146 119.622 89.3878
91.9897 115.232 88.1807
91.8734 114.205 87.7897
92.5828 114.132 88.0606
92.3016 113.504 87.2037
92.919 113.069 88.0696
90.3015 115.192 86.8328
89.4511 116.722 87.0754
89.5324 115.773 86.725
88.6604 117.983 87.2345
91.1905 114.113 86.6325
89.6544 114.639 86.7097
88.8273 115.871 86.7493
86.6612 108.212 93.4777
86.2019 108.611 92.9162
86.6098 109.267 93.3849
85.6032 108.719 92.7029
85.5357 107.826 92.6736
87.0976 107.342 93.3121
87.3594 108.019 93.582
86.9063 110.153 93.7177
86.4878 110.328 93.3977
85.8347 106.909 92.6189
86.9176 106.767 92.6675
86.8179 106.422 92.001
87.6108 106.634 92.8279
85.2827 107.148 92.1159
86.6677 105.92 91.3032
87.3242 105.641 91.6024
87.8435 108.834 93.8157
87.3089 110.04 94.0633
87.8394 109.886 94.3845
86.9085 111.232 94.1998
88.1977 107.662 93.6806
88.5464 109.665 94.3504
88.0931 110.77 94.5914
85.9834 110.931 93.2607
85.9243 109.887 92.5715
85.5431 111.047 92.8507
85.426 109.103 92.1697
85.9313 111.67 93.7659
84.8022 111.902 93.0521
85.1478 111.299 92.4421
84.9275 108.224 91.1283
85.2064 108.047 90.5166
85.3281 109.226 90.7163
85.3458 107.863 89.7715
85.7027 107.142 90.1717
84.9422 107.435 91.5284
85.1183 108.733 91.611
85.3 110.506 90.8689
85.4722 110.018 90.3996
86.1552 106.443 90.4227
85.3395 106.606 91.4049
86.3366 106.061 90.7457
86.6466 106.272 89.6933
87.0142 105.437 90.3841
85.5923 109.822 91.7652
85.4269 110.759 91.3319
85.3055 111.197 91.9022
84.9457 111.747 91.2184
84.5555 112.08 92.2843
85.8455 109.88 89.9196
85.2882 108.606 89.4051
85.7384 109.594 89.3156
85.7529 107.398 89.1176
85.6173 111.182 90.3922
86.3466 110.532 89.4301
85.6461 109.049 88.756
84.7513 119.978 91.4723
83.8075 120.193 91.5751
84.2778 120.463 90.8001
82.9922 119.802 91.7947
83.4879 119.685 92.4848
85.4443 119.524 92.291
85.9358 119.782 91.7259
84.9878 120.51 90.3268
83.6646 120.883 90.1381
84.1389 119.477 93.32
85.2587 119.22 93.0867
84.9072 119.007 94.0208
86.2943 118.989 92.8267
83.1983 119.093 93.4144
84.6688 118.313 94.4907
85.8579 118.52 94.2616
86.8209 120.035 91.2991
86.4221 120.514 90.4999
87.8731 120.322 90.6117
85.6809 120.614 89.8275
87.0905 119.648 91.873
88.798 119.816 90.674
88.1343 120.245 89.9194
82.6079 120.546 89.8092
82.6302 119.738 90.9605
82.2189 119.73 89.8935
82.3968 119.185 91.9307
83.3412 120.828 89.2546
82.1144 119.587 89.1063
82.2291 118.777 90.4782
82.2432 117.769 93.2874
82.5952 116.891 93.5937
82.6451 116.938 93
83.303 115.964 93.7959
83.0095 116.606 94.2659
82.4896 118.348 93.7399
82.0215 118.48 92.7389
82.8578 117.044 92.2047
83.1602 116.041 92.707
83.4021 117.048 94.6423
83.1676 118.279 94.1891
84.1436 117.771 94.5651
83.6839 116.119 94.8709
84.9043 117.249 94.7308
82.314 118.566 91.8287
82.7197 117.54 91.5775
82.3823 118.165 90.9942
83.213 116.823 91.3512
82.8943 117.987 90.1964
83.7056 114.949 92.8018
83.8643 114.927 93.4601
83.7394 113.849 93.0952
83.8999 114.957 94.0445
83.6417 115.285 92.2456
83.9814 113.257 92.5511
84.1294 113.064 93.3473
92.4324 106.901 88.492
93.0497 107.863 88.6521
92.8877 107.761 87.996
92.9698 108.847 89.1671
92.9001 108.047 89.2996
91.767 106.036 88.964
91.4872 105.882 88.4156
92.3899 107.756 87.6177
92.6767 108.632 87.8348
92.6964 107.807 89.6976
92.2366 106.744 89.4073
92.4405 107.308 90.105
91.4556 105.54 89.4095
92.768 108.957 89.8279
92.4073 108.04 90.5817
92.0864 106.589 90.4154
91.6386 106.172 87.6254
91.8241 107.203 87.402
91.1133 106.405 87.1192
92.0502 108.348 87.2065
90.7844 105.349 88.1665
90.3638 105.57 86.9827
90.8312 107.009 86.7552
92.9659 109.548 88.2778
92.952 109.565 88.9083
92.8404 110.571 88.7597
93.1178 110.008 89.497
92.4181 109.822 87.8277
92.4672 111.609 88.4752
92.5754 111.71 89.1407
89.7692 103.395 89.7972
89.9851 103.938 89.1839
88.8767 102.924 88.8339
89.9934 104.323 88.599
90.757 104.71 89.665
90.097 104.292 90.5524
89.2027 103.625 90.1896
87.6854 102.242 88.7851
88.1384 102.864 87.9206
91.526 105.409 89.9171
90.9531 104.967 90.6308
91.7036 105.874 90.6139
90.4823 105.583 91.0153
91.6484 106.803 91.0131
88.5821 103.993 90.2201
87.8585 102.927 89.5733
87.8254 104.161 90.0884
87.0262 102.778 88.8619
89.0763 104.839 90.7722
87.9533 105.108 90.9879
87.4399 104.565 90.1169
89.0437 103.901 87.6596
90.1222 104.739 88.0789
89.8419 104.744 87.2748
88.0396 103.574 87.3549
89.4508 105.253 86.9323
89.1477 117.724 93.6846
88.5381 118.59 92.9148
89.6926 118.216 92.9273
87.8328 119.267 92.4075
87.5537 118.904 92.9383
88.7026 117.322 94.1725
89.6597 116.942 94.2072
90.3707 117.797 92.6478
89.9833 118.29 92.2721
87.0858 118.613 93.1808
87.7464 117.907 93.9221
86.7511 118.212 94.0033
90.4957 116.909 93.7489
90.7682 117.11 92.9314
91.5218 116.349 93.4615
89.6157 118.991 91.7866
88.2976 119.424 91.8138
89.1021 119.378 91.1851
85.7045 119.863 88.5951
85.9998 119.174 87.7802
86.7553 119.293 87.9519
86.2052 118.283 87.381
85.1817 119.041 87.8124
84.7887 120.503 89.043
85.6328 120.221 89.4194
87.4988 119.421 88.1578
87.7098 118.631 87.4204
84.2662 119.356 87.8534
84.4825 120.347 88.7506
82.7605 119.529 88.3952
86.95 120.238 89.3309
87.6693 119.7 88.6881
88.0614 120.086 89.3814
88.1847 117.583 86.9641
87.2159 117.412 86.9816
88.2479 116.453 86.6008
92.7203 111.213 91.1572
92.6766 112.012 90.7244
93.1866 110.923 90.4533
92.9076 113.034 90.4613
92.8048 113.029 91.0522
92.6704 111.486 91.9082
92.5427 110.572 91.6895
93.2535 110.115 90.3127
93.113 110.735 90.0482
92.5445 113.252 91.542
92.689 112.471 91.9606
92.7928 113.646 92.2518
92.8259 109.781 91.217
93.1403 109.453 90.2805
92.9305 108.857 90.8412
93.1504 111.209 89.6803
92.8802 112.544 89.9599
92.5687 112.089 89.5248
92.037 112.365 86.3481
91.4139 111.524 86.4705
91.6359 111.175 87.1579
90.8812 110.378 86.8147
90.7384 111.552 86.4604
91.984 113.278 86.0731
92.8299 112.961 86.4115
91.9136 110.537 87.5831
91.7399 109.685 87.2842
90.5314 112.355 86.3794
91.0987 113.408 86.0714
90.0897 113.569 86.4649
93.1279 112.569 87.0484
92.2362 111.204 87.7766
92.4966 112.028 88.0539
91.655 108.799 86.9002
90.8863 109.182 86.8995
91.0982 108.096 86.5395
85.7392 113.895 95.2171
85.585 113.188 94.8267
84.8587 114.299 94.8856
85.6853 112.626 94.3579
86.2605 112.269 94.5819
86.6032 113.603 95.2476
86.1334 114.668 95.0397
84.1642 115.28 94.9556
84.2489 114.66 94.4642
87.0659 112.026 94.6787
87.3933 112.832 95.0817
87.7927 111.708 94.8275
85.772 115.455 95.1066
84.6474 115.728 95.1953
85.5291 116.457 94.71
84.5662 113.739 94.1109
85.112 112.537 94.0745
84.4745 112.68 93.6084
84.8836 113.683 90.8231
85.1463 114.591 90.5771
84.3113 114.815 91.0678
85.1529 115.369 90.2693
85.7265 114.292 90.1392
85.1184 112.598 90.5481
84.6218 112.859 91.0379
83.7235 115.084 91.7245
83.7854 115.887 91.4285
85.9003 113.058 89.983
85.6712 112.097 90.2213
86.0144 111.666 89.7242
84.2821 112.778 91.4766
83.851 114.032 91.8523
83.9813 112.937 92.0866
83.6516 116.372 90.7757
84.6999 116.138 90.1783
83.8114 117.138 90.227
89.3967 106.596 92.9496
90.17 106.906 93.0767
89.8604 106.237 92.2824
90.8237 107.388 92.8344
90.4855 107.599 93.6462
88.9936 107.121 93.4089
88.6541 106.444 92.7249
89.4796 105.61 91.5304
90.1868 105.739 91.7306
89.7618 108.114 93.91
88.9099 107.82 93.9538
89.0942 109.063 94.0295
88.4052 106.201 92.1439
88.8642 105.532 91.511
88.1119 105.613 91.5534
90.8124 106.345 91.6763
91.0951 107.323 92.2607
91.662 107.023 91.671
87.449 105.672 88.1092
87.085 105.583 88.731
87.1749 104.569 88.0484
87.1651 105.897 89.2115
86.5797 106.755 88.886
86.9537 106.97 87.9594
87.6889 106.224 87.7931
87.5864 103.933 87.5518
86.8935 103.544 88.3414
85.94 107.169 88.2969
86.1083 107.568 87.7201
85.6279 108.154 88.057
88.3288 106.186 87.5498
88.3103 104.841 87.0542
89.0837 105.819 86.8842
87.3537 104.242 88.9153
87.126 105.435 89.2525
87.0921 104.804 89.7582
POLYGONS 1280  5120
3 164 162 163
3 163 44 164
3 162 43 163
3 164 42 162
3 166 165 163
3 163 43 166
3 165 44 163
3 166 14 165
3 168 167 162
3 162 42 168
3 167 43 162
3 168 13 167
3 170 169 164
3 164 44 170
3 169 42 164
3 170 12 169
3 173 171 172
3 172 46 173
3 171 43 172
3 173 45 171
3 167 174 172
3 172 43 167
3 174 46 172
3 167 13 174
3 175 166 171
3 171 45 175
3 166 43 171
3 175 14 166
3 177 176 173
3 173 46 177
3 176 45 173
3 177 4 176
3 180 178 179
3 179 48 180
3 178 42 179
3 180 47 178
3 169 181 179
3 179 42 169
3 181 48 179
3 169 12 181
3 182 168 178
3 178 47 182
3 168 42 178
3 182 13 168
3 184 183 180
3 180 48 184
3 183 47 180
3 184 8 183
3 187 185 186
3 186 50 187
3 185 44 186
3 187 49 185
3 165 188 186
3 186 44 165
3 188 50 186
3 165 14 188
3 189 170 185
3 185 49 189
3 170 44 185
3 189 12 170
3 191 190 187
3 187 50 191
3 190 49 187
3 191 7 190
3 194 192 193
3 193 53 194
3 192 52 193
3 194 51 192
3 196 195 193
3 193 52 196
3 195 53 193
3 196 16 195
3 198 197 192
3 192 51 198
3 197 52 192
3 198 14 197
3 200 199 194
3 194 53 200
3 199 51 194
3 200 15 199
3 203 201 202
3 202 45 203
3 201 52 202
3 203 54 201
3 197 175 202
3 202 52 197
3 175 45 202
3 197 14 175
3 204 196 201
3 201 54 204
3 196 52 201
3 204 16 196
3 176 205 203
3 203 45 176
3 205 54 203
3 176 4 205
3 208 206 207
3 207 55 208
3 206 51 207
3 208 50 206
3 199 209 207
3 207 51 199
3 209 55 207
3 199 15 209
3 188 198 206
3 206 50 188
3 198 51 206
3 188 14 198
3 210 191 208
3 208 55 210
3 191 50 208
3 210 7 191
3 213 211 212
3 212 57 213
3 211 53 212
3 213 56 211
3 195 214 212
3 212 53 195
3 214 57 212
3 195 16 214
3 215 200 211
3 211 56 215
3 200 53 211
3 215 15 200
3 217 216 213
3 213 57 217
3 216 56 213
3 217 9 216
3 220 218 219
3 219 60 220
3 218 59 219
3 220 58 218
3 222 221 219
3 219 59 222
3 221 60 219
3 222 19 221
3 224 223 218
3 218 58 224
3 223 59 218
3 224 18 223
3 226 225 220
3 220 60 226
3 225 58 220
3 226 17 225
3 229 227 228
3 228 62 229
3 227 59 228
3 229 61 227
3 223 230 228
3 228 59 223
3 230 62 228
3 223 18 230
3 231 222 227
3 227 61 231
3 222 59 227
3 231 19 222
3 233 232 229
3 229 62 233
3 232 61 229
3 233 5 232
3 236 234 235
3 235 64 236
3 234 58 235
3 236 63 234
3 225 237 235
3 235 58 225
3 237 64 235
3 225 17 237
3 238 224 234
3 234 63 238
3 224 58 234
3 238 18 224
3 240 239 236
3 236 64 240
3 239 63 236
3 240 6 239
3 243 241 242
3 242 66 243
3 241 60 242
3 243 65 241
3 221 244 242
3 242 60 221
3 244 66 242
3 221 19 244
3 245 226 241
3 241 65 245
3 226 60 241
3 245 17 226
3 247 246 243
3 243 66 247
3 246 65 243
3 247 11 246
3 250 248 249
3 249 69 250
3 248 68 249
3 250 67 248
3 252 251 249
3 249 68 252
3 251 69 249
3 252 18 251
3 254 253 248
3 248 67 254
3 253 68 248
3 254 21 253
3 256 255 250
3 250 69 256
3 255 67 250
3 256 20 255
3 259 257 258
3 258 70 259
3 257 68 258
3 259 62 257
3 253 260 258
3 258 68 253
3 260 70 258
3 253 21 260
3 230 252 257
3 257 62 230
3 252 68 257
3 230 18 252
3 261 233 259
3 259 70 261
3 233 62 259
3 261 5 233
3 264 262 263
3 263 72 264
3 262 67 263
3 264 71 262
3 255 265 263
3 263 67 255
3 265 72 263
3 255 20 265
3 266 254 262
3 262 71 266
3 254 67 262
3 266 21 254
3 268 267 264
3 264 72 268
3 267 71 264
3 268 10 267
3 271 269 270
3 270 63 271
3 269 69 270
3 271 73 269
3 251 238 270
3 270 69 251
3 238 63 270
3 251 18 238
3 272 256 269
3 269 73 272
3 256 69 269
3 272 20 256
3 239 273 271
3 271 63 239
3 273 73 271
3 239 6 273
3 276 274 275
3 275 76 276
3 274 75 275
3 276 74 274
3 278 277 275
3 275 75 278
3 277 76 275
3 278 24 277
3 280 279 274
3 274 74 280
3 279 75 274
3 280 23 279
3 282 281 276
3 276 76 282
3 281 74 276
3 282 22 281
3 285 283 284
3 284 78 285
3 283 75 284
3 285 77 283
3 279 286 284
3 284 75 279
3 286 78 284
3 279 23 286
3 287 278 283
3 283 77 287
3 278 75 283
3 287 24 278
3 289 288 285
3 285 78 289
3 288 77 285
3 289 0 288
3 292 290 291
3 291 80 292
3 290 74 291
3 292 79 290
3 281 293 291
3 291 74 281
3 293 80 291
3 281 22 293
3 294 280 290
3 290 79 294
3 280 74 290
3 294 23 280
3 296 295 292
3 292 80 296
3 295 79 292
3 296 4 295
3 299 297 298
3 298 82 299
3 297 76 298
3 299 81 297
3 277 300 298
3 298 76 277
3 300 82 298
3 277 24 300
3 301 282 297
3 297 81 301
3 282 76 297
3 301 22 282
3 303 302 299
3 299 82 303
3 302 81 299
3 303 3 302
3 306 304 305
3 305 85 306
3 304 84 305
3 306 83 304
3 308 307 305
3 305 84 308
3 307 85 305
3 308 26 307
3 310 309 304
3 304 83 310
3 309 84 304
3 310 24 309
3 312 311 306
3 306 85 312
3 311 83 306
3 312 25 311
3 315 313 314
3 314 77 315
3 313 84 314
3 315 86 313
3 309 287 314
3 314 84 309
3 287 77 314
3 309 24 287
3 316 308 313
3 313 86 316
3 308 84 313
3 316 26 308
3 288 317 315
3 315 77 288
3 317 86 315
3 288 0 317
3 320 318 319
3 319 87 320
3 318 83 319
3 320 82 318
3 311 321 319
3 319 83 311
3 321 87 319
3 311 25 321
3 300 310 318
3 318 82 300
3 310 83 318
3 300 24 310
3 322 303 320
3 320 87 322
3 303 82 320
3 322 3 303
3 325 323 324
3 324 89 325
3 323 85 324
3 325 88 323
3 307 326 324
3 324 85 307
3 326 89 324
3 307 26 326
3 327 312 323
3 323 88 327
3 312 85 323
3 327 25 312
3 329 328 325
3 325 89 329
3 328 88 325
3 329 5 328
3 332 330 331
3 331 92 332
3 330 91 331
3 332 90 330
3 334 333 331
3 331 91 334
3 333 92 331
3 334 29 333
3 336 335 330
3 330 90 336
3 335 91 330
3 336 28 335
3 338 337 332
3 332 92 338
3 337 90 332
3 338 27 337
3 341 339 340
3 340 94 341
3 339 91 340
3 341 93 339
3 335 342 340
3 340 91 335
3 342 94 340
3 335 28 342
3 343 334 339
3 339 93 343
3 334 91 339
3 343 29 334
3 345 344 341
3 341 94 345
3 344 93 341
3 345 2 344
3 348 346 347
3 347 96 348
3 346 90 347
3 348 95 346
3 337 349 347
3 347 90 337
3 349 96 347
3 337 27 349
3 350 336 346
3 346 95 350
3 336 90 346
3 350 28 336
3 352 351 348
3 348 96 352
3 351 95 348
3 352 7 351
3 355 353 354
3 354 98 355
3 353 92 354
3 355 97 353
3 333 356 354
3 354 92 333
3 356 98 354
3 333 29 356
3 357 338 353
3 353 97 357
3 338 92 353
3 357 27 338
3 359 358 355
3 355 98 359
3 358 97 355
3 359 1 358
3 362 360 361
3 361 101 362
3 360 100 361
3 362 99 360
3 364 363 361
3 361 100 364
3 363 101 361
3 364 31 363
3 366 365 360
3 360 99 366
3 365 100 360
3 366 29 365
3 368 367 362
3 362 101 368
3 367 99 362
3 368 30 367
3 371 369 370
3 370 93 371
3 369 100 370
3 371 102 369
3 365 343 370
3 370 100 365
3 343 93 370
3 365 29 343
3 372 364 369
3 369 102 372
3 364 100 369
3 372 31 364
3 344 373 371
3 371 93 344
3 373 102 371
3 344 2 373
3 376 374 375
3 375 103 376
3 374 99 375
3 376 98 374
3 367 377 375
3 375 99 367
3 377 103 375
3 367 30 377
3 356 366 374
3 374 98 356
3 366 99 374
3 356 29 366
3 378 359 376
3 376 103 378
3 359 98 376
3 378 1 359
3 381 379 380
3 380 105 381
3 379 101 380
3 381 104 379
3 363 382 380
3 380 101 363
3 382 105 380
3 363 31 382
3 383 368 379
3 379 104 383
3 368 101 379
3 383 30 368
3 385 384 381
3 381 105 385
3 384 104 381
3 385 6 384
3 388 386 387
3 387 108 388
3 386 107 387
3 388 106 386
3 390 389 387
3 387 107 390
3 389 108 387
3 390 34 389
3 392 391 386
3 386 106 392
3 391 107 386
3 392 33 391
3 394 393 388
3 388 108 394
3 393 106 388
3 394 32 393
3 397 395 396
3 396 110 397
3 395 107 396
3 397 109 395
3 391 398 396
3 396 107 391
3 398 110 396
3 391 33 398
3 399 390 395
3 395 109 399
3 390 107 395
3 399 34 390
3 401 400 397
3 397 110 401
3 400 109 397
3 401 8 400
3 404 402 403
3 403 112 404
3 402 106 403
3 404 111 402
3 393 405 403
3 403 106 393
3 405 112 403
3 393 32 405
3 406 392 402
3 402 111 406
3 392 106 402
3 406 33 392
3 408 407 404
3 404 112 408
3 407 111 404
3 408 0 407
3 411 409 410
3 410 114 411
3 409 108 410
3 411 113 409
3 389 412 410
3 410 108 389
3 412 114 410
3 389 34 412
3 413 394 409
3 409 113 413
3 394 108 409
3 413 32 394
3 415 414 411
3 411 114 415
3 414 113 411
3 415 11 414
3 418 416 417
3 417 117 418
3 416 116 417
3 418 115 416
3 420 419 417
3 417 116 420
3 419 117 417
3 420 36 419
3 422 421 416
3 416 115 422
3 421 116 416
3 422 34 421
3 424 423 418
3 418 117 424
3 423 115 418
3 424 35 423
3 427 425 426
3 426 109 427
3 425 116 426
3 427 118 425
3 421 399 426
3 426 116 421
3 399 109 426
3 421 34 399
3 428 420 425
3 425 118 428
3 420 116 425
3 428 36 420
3 400 429 427
3 427 109 400
3 429 118 427
3 400 8 429
3 432 430 431
3 431 119 432
3 430 115 431
3 432 114 430
3 423 433 431
3 431 115 423
3 433 119 431
3 423 35 433
3 412 422 430
3 430 114 412
3 422 115 430
3 412 34 422
3 434 415 432
3 432 119 434
3 415 114 432
3 434 11 415
3 437 435 436
3 436 121 437
3 435 117 436
3 437 120 435
3 419 438 436
3 436 117 419
3 438 121 436
3 419 36 438
3 439 424 435
3 435 120 439
3 424 117 435
3 439 35 424
3 441 440 437
3 437 121 441
3 440 120 437
3 441 1 440
3 444 442 443
3 443 124 444
3 442 123 443
3 444 122 442
3 446 445 443
3 443 123 446
3 445 124 443
3 446 39 445
3 448 447 442
3 442 122 448
3 447 123 442
3 448 38 447
3 450 449 444
3 444 124 450
3 449 122 444
3 450 37 449
3 453 451 452
3 452 126 453
3 451 123 452
3 453 125 451
3 447 454 452
3 452 123 447
3 454 126 452
3 447 38 454
3 455 446 451
3 451 125 455
3 446 123 451
3 455 39 446
3 457 456 453
3 453 126 457
3 456 125 453
3 457 9 456
3 460 458 459
3 459 128 460
3 458 122 459
3 460 127 458
3 449 461 459
3 459 122 449
3 461 128 459
3 449 37 461
3 462 448 458
3 458 127 462
3 448 122 458
3 462 38 448
3 464 463 460
3 460 128 464
3 463 127 460
3 464 10 463
3 467 465 466
3 466 130 467
3 465 124 466
3 467 129 465
3 445 468 466
3 466 124 445
3 468 130 466
3 445 39 468
3 469 450 465
3 465 129 469
3 450 124 465
3 469 37 450
3 471 470 467
3 467 130 471
3 470 129 467
3 471 3 470
3 474 472 473
3 473 133 474
3 472 132 473
3 474 131 472
3 476 475 473
3 473 132 476
3 475 133 473
3 476 38 475
3 478 477 472
3 472 131 478
3 477 132 472
3 478 41 477
3 480 479 474
3 474 133 480
3 479 131 474
3 480 40 479
3 483 481 482
3 482 134 483
3 481 132 482
3 483 126 481
3 477 484 482
3 482 132 477
3 484 134 482
3 477 41 484
3 454 476 481
3 481 126 454
3 476 132 481
3 454 38 476
3 485 457 483
3 483 134 485
3 457 126 483
3 485 9 457
3 488 486 487
3 487 136 488
3 486 131 487
3 488 135 486
3 479 489 487
3 487 131 479
3 489 136 487
3 479 40 489
3 490 478 486
3 486 135 490
3 478 131 486
3 490 41 478
3 492 491 488
3 488 136 492
3 491 135 488
3 492 2 491
3 495 493 494
3 494 127 495
3 493 133 494
3 495 137 493
3 475 462 494
3 494 133 475
3 462 127 494
3 475 38 462
3 496 480 493
3 493 137 496
3 480 133 493
3 496 40 480
3 463 497 495
3 495 127 463
3 497 137 495
3 463 10 497
3 500 498 499
3 499 140 500
3 498 139 499
3 500 138 498
3 502 501 499
3 499 139 502
3 501 140 499
3 502 33 501
3 504 503 498
3 498 138 504
3 503 139 498
3 504 13 503
3 506 505 500
3 500 140 506
3 505 138 500
3 506 23 505
3 509 507 508
3 508 47 509
3 507 139 508
3 509 110 507
3 503 182 508
3 508 139 503
3 182 47 508
3 503 13 182
3 398 502 507
3 507 110 398
3 502 139 507
3 398 33 502
3 183 401 509
3 509 47 183
3 401 110 509
3 183 8 401
3 512 510 511
3 511 79 512
3 510 138 511
3 512 46 510
3 505 294 511
3 511 138 505
3 294 79 511
3 505 23 294
3 174 504 510
3 510 46 174
3 504 138 510
3 174 13 504
3 295 177 512
3 512 79 295
3 177 46 512
3 295 4 177
3 515 513 514
3 514 111 515
3 513 140 514
3 515 78 513
3 501 406 514
3 514 140 501
3 406 111 514
3 501 33 406
3 286 506 513
3 513 78 286
3 506 140 513
3 286 23 506
3 407 289 515
3 515 111 407
3 289 78 515
3 407 0 289
3 518 516 517
3 517 143 518
3 516 142 517
3 518 141 516
3 520 519 517
3 517 142 520
3 519 143 517
3 520 19 519
3 522 521 516
3 516 141 522
3 521 142 516
3 522 32 521
3 524 523 518
3 518 143 524
3 523 141 518
3 524 26 523
3 527 525 526
3 526 113 527
3 525 142 526
3 527 66 525
3 521 413 526
3 526 142 521
3 413 113 526
3 521 32 413
3 244 520 525
3 525 66 244
3 520 142 525
3 244 19 520
3 414 247 527
3 527 113 414
3 247 66 527
3 414 11 247
3 530 528 529
3 529 86 530
3 528 141 529
3 530 112 528
3 523 316 529
3 529 141 523
3 316 86 529
3 523 26 316
3 405 522 528
3 528 112 405
3 522 141 528
3 405 32 522
3 317 408 530
3 530 86 317
3 408 112 530
3 317 0 408
3 533 531 532
3 532 61 533
3 531 143 532
3 533 89 531
3 519 231 532
3 532 143 519
3 231 61 532
3 519 19 231
3 326 524 531
3 531 89 326
3 524 143 531
3 326 26 524
3 232 329 533
3 533 61 232
3 329 89 533
3 232 5 329
3 536 534 535
3 535 146 536
3 534 145 535
3 536 144 534
3 538 537 535
3 535 145 538
3 537 146 535
3 538 22 537
3 540 539 534
3 534 144 540
3 539 145 534
3 540 16 539
3 542 541 536
3 536 146 542
3 541 144 536
3 542 39 541
3 545 543 544
3 544 54 545
3 543 145 544
3 545 80 543
3 539 204 544
3 544 145 539
3 204 54 544
3 539 16 204
3 293 538 543
3 543 80 293
3 538 145 543
3 293 22 538
3 205 296 545
3 545 54 205
3 296 80 545
3 205 4 296
3 548 546 547
3 547 125 548
3 546 144 547
3 548 57 546
3 541 455 547
3 547 144 541
3 455 125 547
3 541 39 455
3 214 540 546
3 546 57 214
3 540 144 546
3 214 16 540
3 456 217 548
3 548 125 456
3 217 57 548
3 456 9 217
3 551 549 550
3 550 81 551
3 549 146 550
3 551 130 549
3 537 301 550
3 550 146 537
3 301 81 550
3 537 22 301
3 468 542 549
3 549 130 468
3 542 146 549
3 468 39 542
3 302 471 551
3 551 81 302
3 471 130 551
3 302 3 471
3 554 552 553
3 553 149 554
3 552 148 553
3 554 147 552
3 556 555 553
3 553 148 556
3 555 149 553
3 556 21 555
3 558 557 552
3 552 147 558
3 557 148 552
3 558 25 557
3 560 559 554
3 554 149 560
3 559 147 554
3 560 37 559
3 563 561 562
3 562 88 563
3 561 148 562
3 563 70 561
3 557 327 562
3 562 148 557
3 327 88 562
3 557 25 327
3 260 556 561
3 561 70 260
3 556 148 561
3 260 21 556
3 328 261 563
3 563 88 328
3 261 70 563
3 328 5 261
3 566 564 565
3 565 129 566
3 564 147 565
3 566 87 564
3 559 469 565
3 565 147 559
3 469 129 565
3 559 37 469
3 321 558 564
3 564 87 321
3 558 147 564
3 321 25 558
3 470 322 566
3 566 129 470
3 322 87 566
3 470 3 322
3 569 567 568
3 568 71 569
3 567 149 568
3 569 128 567
3 555 266 568
3 568 149 555
3 266 71 568
3 555 21 266
3 461 560 567
3 567 128 461
3 560 149 567
3 461 37 560
3 267 464 569
3 569 71 267
3 464 128 569
3 267 10 464
3 572 570 571
3 571 152 572
3 570 151 571
3 572 150 570
3 574 573 571
3 571 151 574
3 573 152 571
3 574 27 573
3 576 575 570
3 570 150 576
3 575 151 570
3 576 12 575
3 578 577 572
3 572 152 578
3 577 150 572
3 578 36 577
3 581 579 580
3 580 49 581
3 579 151 580
3 581 96 579
3 575 189 580
3 580 151 575
3 189 49 580
3 575 12 189
3 349 574 579
3 579 96 349
3 574 151 579
3 349 27 574
3 190 352 581
3 581 49 190
3 352 96 581
3 190 7 352
3 584 582 583
3 583 118 584
3 582 150 583
3 584 48 582
3 577 428 583
3 583 150 577
3 428 118 583
3 577 36 428
3 181 576 582
3 582 48 181
3 576 150 582
3 181 12 576
3 429 184 584
3 584 118 429
3 184 48 584
3 429 8 184
3 587 585 586
3 586 97 587
3 585 152 586
3 587 121 585
3 573 357 586
3 586 152 573
3 357 97 586
3 573 27 357
3 438 578 585
3 585 121 438
3 578 152 585
3 438 36 578
3 358 441 587
3 587 97 358
3 441 121 587
3 358 1 441
3 590 588 589
3 589 155 590
3 588 154 589
3 590 153 588
3 592 591 589
3 589 154 592
3 591 155 589
3 592 17 591
3 594 593 588
3 588 153 594
3 593 154 588
3 594 30 593
3 596 595 590
3 590 155 596
3 595 153 590
3 596 35 595
3 599 597 598
3 598 104 599
3 597 154 598
3 599 64 597
3 593 383 598
3 598 154 593
3 383 104 598
3 593 30 383
3 237 592 597
3 597 64 237
3 592 154 597
3 237 17 592
3 384 240 599
3 599 104 384
3 240 64 599
3 384 6 240
3 602 600 601
3 601 120 602
3 600 153 601
3 602 103 600
3 595 439 601
3 601 153 595
3 439 120 601
3 595 35 439
3 377 594 600
3 600 103 377
3 594 153 600
3 377 30 594
3 440 378 602
3 602 120 440
3 378 103 602
3 440 1 378
3 605 603 604
3 604 65 605
3 603 155 604
3 605 119 603
3 591 245 604
3 604 155 591
3 245 65 604
3 591 17 245
3 433 596 603
3 603 119 433
3 596 155 603
3 433 35 596
3 246 434 605
3 605 65 246
3 434 119 605
3 246 11 434
3 608 606 607
3 607 158 608
3 606 157 607
3 608 156 606
3 610 609 607
3 607 157 610
3 609 158 607
3 610 15 609
3 612 611 606
3 606 156 612
3 611 157 606
3 612 28 611
3 614 613 608
3 608 158 614
3 613 156 608
3 614 41 613
3 617 615 616
3 616 95 617
3 615 157 616
3 617 55 615
3 611 350 616
3 616 157 611
3 350 95 616
3 611 28 350
3 209 610 615
3 615 55 209
3 610 157 615
3 209 15 610
3 351 210 617
3 617 95 351
3 210 55 617
3 351 7 210
3 620 618 619
3 619 135 620
3 618 156 619
3 620 94 618
3 613 490 619
3 619 156 613
3 490 135 619
3 613 41 490
3 342 612 618
3 618 94 342
3 612 156 618
3 342 28 612
3 491 345 620
3 620 135 491
3 345 94 620
3 491 2 345
3 623 621 622
3 622 56 623
3 621 158 622
3 623 134 621
3 609 215 622
3 622 158 609
3 215 56 622
3 609 15 215
3 484 614 621
3 621 134 484
3 614 158 621
3 484 41 614
3 216 485 623
3 623 56 216
3 485 134 623
3 216 9 485
3 626 624 625
3 625 161 626
3 624 160 625
3 626 159 624
3 628 627 625
3 625 160 628
3 627 161 625
3 628 31 627
3 630 629 624
3 624 159 630
3 629 160 624
3 630 20 629
3 632 631 626
3 626 161 632
3 631 159 626
3 632 40 631
3 635 633 634
3 634 73 635
3 633 160 634
3 635 105 633
3 629 272 634
3 634 160 629
3 272 73 634
3 629 20 272
3 382 628 633
3 633 105 382
3 628 160 633
3 382 31 628
3 273 385 635
3 635 73 273
3 385 105 635
3 273 6 385
3 638 636 637
3 637 137 638
3 636 159 637
3 638 72 636
3 631 496 637
3 637 159 631
3 496 137 637
3 631 40 496
3 265 630 636
3 636 72 265
3 630 159 636
3 265 20 630
3 497 268 638
3 638 137 497
3 268 72 638
3 497 10 268
3 641 639 640
3 640 102 641
3 639 161 640
3 641 136 639
3 627 372 640
3 640 161 627
3 372 102 640
3 627 31 372
3 489 632 639
3 639 136 489
3 632 161 639
3 489 40 632
3 373 492 641
3 641 102 373
3 492 136 641
3 373 2 492
