# vtk DataFile Version 3.0
this file was written using fslvtkio
ASCII
DATASET POLYDATA
POINTS 642 float
150.674 144.247 114.377
154.274 147.542 120.803
156.477 143.347 130.154
153.661 139.869 122.557
155.946 142.22 116.868
150.481 142.604 122.02
152.316 144.512 126.465
158.225 144.576 120.487
154.132 148.34 113.217
156.964 139.85 126.579
154.039 139.952 131.171
149.039 148.66 117.056
156.626 146.789 115.857
155.756 145.166 114.667
157.842 143.43 118.179
158.176 142.192 123.213
157.07 140.652 121.638
151.09 145.997 120.606
151.624 143.316 124.377
148.596 145.885 118.681
153.099 142.349 130.188
152.402 140.985 126.613
154.802 140.524 119.648
153.582 143.411 114.555
151.624 141.366 117.766
151.519 140.357 122.758
148.962 143.715 117.308
156.259 146.511 119.995
157.491 143.767 125.205
155.581 145.638 125.748
153.191 146.06 123.276
154.457 143.74 129.25
148.732 147.265 114.909
152.357 146.302 113.121
151.322 149.303 114.554
151.701 148.631 118.173
154.379 149.24 116.419
154.146 138.847 127.625
156.285 138.837 131.082
156.193 138.149 125.245
154.547 141.727 134.316
156.763 141.134 129.651
156.3 146.289 114.593
156.91 144.143 116.162
157.646 145.019 116.715
156.906 142.645 117.545
155.726 143.704 115.053
154.552 146.687 113.69
155.262 147.412 114.839
157.45 145.65 118.001
158.482 143.925 119.304
158.292 142.692 120.561
157.438 141.971 119.565
157.733 141.327 122.566
156.509 141.252 119.191
158.467 143.29 122.326
157.624 140.966 125.02
157.064 140.124 124.065
151.284 144.691 122.175
150.224 144.547 121.001
149.636 146.173 119.435
149.351 144.168 120.22
151.013 143.278 122.507
151.801 143.928 125.361
152.072 145.244 123.278
149.995 147.411 118.735
148.21 147.652 117.712
152.391 141.604 128.519
151.674 142.229 125.461
151.844 142.729 127.752
151.536 141.553 124.223
153.17 140.263 128.855
153.421 141.154 130.749
152.445 143.344 128.624
154.199 141.542 116.861
152.625 142.019 115.769
153.389 140.611 118.485
150.983 142.597 115.777
152.153 143.749 114.102
154.859 142.792 115.565
155.362 141.339 118.255
154.23 140.211 121.051
152.65 140.379 120.117
151.543 141.088 120.216
150.298 142.571 117.528
150.37 142.155 120.031
149.485 144.117 115.445
152.743 140.237 122.753
150.593 141.134 122.638
149.418 142.883 120.081
157.16 145.399 122.525
156.826 144.982 125.418
156.06 146.025 122.946
156.165 144.431 127.761
157.169 143.496 127.818
158.037 144.243 122.893
157.215 145.568 120.084
155.364 147.166 120.545
154.952 146.206 123.367
154.277 145.872 125.062
155.058 144.737 127.914
153.758 145.2 126.701
155.363 143.638 130.341
153.689 146.796 122.164
152.791 145.243 124.662
153.292 144.239 128.286
150.4 147.016 113.456
151.378 148.066 113.606
149.454 148.684 114.146
152.657 148.726 113.737
152.996 147.313 113.342
151.409 145.469 113.42
149.696 145.796 114.031
147.946 148.303 115.899
149.862 149.15 115.684
151.226 149.56 116.198
152.926 149.603 115.036
152.922 149.258 117.289
154.393 149.119 114.522
150.376 148.602 117.841
153.011 148.297 119.519
154.333 148.39 118.58
155.393 138.12 129.704
156.478 137.969 128.208
155.226 137.691 126.909
156.662 138.931 125.839
157.025 139.078 128.919
155.169 139.027 131.59
153.952 139.141 129.471
153.926 139.213 125.056
154.974 138.734 124.432
156.147 141.325 132.456
156.891 139.93 130.316
155.673 140.141 132.837
157.077 140.789 127.567
156.799 142.4 129.637
155.668 142.667 132.419
154.29 140.468 133.181
154.671 144.544 113.749
154.029 145.827 113.391
152.982 144.903 113.2
148.746 145.444 115.802
148.06 146.728 116.766
148.536 144.57 118.495
156.292 139.586 123.446
155.942 140.578 120.874
155.271 139.449 122.709
152.902 139.779 124.757
152.232 140.677 124.619
153.103 139.742 127.137
155.637 148.339 115.861
156.559 146.964 117.661
155.324 148.19 118.078
152.437 147.394 120.433
152.014 146.237 121.664
151.318 147.253 119.452
157.578 142.319 127.381
157.988 142.848 124.541
157.726 141.732 126.214
153.707 141.748 132.466
153.881 142.975 130.293
154.572 143.339 132.005
156.741 145.213 115.449
157.258 144.71 116.285
157.12 145.612 115.516
157.879 144.171 117.44
157.429 143.807 117.06
156.389 144.72 115.385
156.122 145.659 114.75
156.707 146.473 115.092
157.289 145.932 115.972
156.934 143.431 116.725
156.366 143.924 115.729
156.482 143.252 116.187
155.953 144.341 115.028
157.351 143.118 117.732
156.403 142.556 117.005
156.015 142.986 115.835
155.521 146.369 114.208
155.995 146.954 114.457
155.216 147.093 114.002
155.947 147.143 115.259
155.111 145.942 114.232
154.534 147.573 113.244
154.737 147.843 113.94
157.524 145.448 117.215
158.222 144.576 117.679
157.907 144.764 118.658
158.211 143.81 118.557
157.143 146.298 116.645
157.884 145.029 119.198
158.311 144.296 119.796
157.933 142.296 119.999
157.681 141.673 121.053
158.038 142.003 121.441
157.476 141.116 121.81
157.404 141.328 120.567
157.623 142.724 118.887
158.097 143.06 119.342
158.372 142.473 121.729
158.018 141.87 122.657
157.111 141.433 119.315
157.217 142.343 118.491
156.671 141.905 118.153
156.92 140.937 120.422
156.239 141.831 117.989
158.466 143.243 119.852
158.546 143.033 121.275
158.495 143.658 120.606
158.35 142.724 122.549
158.387 143.84 121.447
157.84 141.195 123.738
157.431 140.728 123.051
157.376 140.626 124.346
157.097 140.482 122.851
157.942 141.551 124.15
157.272 140.405 125.615
157.047 139.995 125.241
150.74 144.744 121.419
149.954 145.387 120.043
150.578 145.447 120.469
149.082 146.006 119.176
149.379 145.257 119.753
150.846 144.079 122.457
151.217 144.144 123.073
151.081 145.365 121.363
150.429 146 120.081
149.708 144.476 120.581
150.621 143.876 121.834
150.077 143.718 121.402
151.247 143.472 123.193
149.018 145.032 119.485
149.846 143.379 121.266
150.658 143.029 122.149
151.597 144.275 123.666
151.75 144.937 122.509
151.899 144.636 124.341
151.587 145.532 121.885
151.659 143.623 124.68
151.893 144.288 126.041
152.263 144.729 124.811
149.795 146.749 118.994
148.883 146.895 118.607
149.06 147.485 118.372
148.455 146.72 118.265
150.466 146.653 119.534
149.315 148.034 118.068
148.597 148.165 117.614
151.957 141.749 127.278
151.812 142.35 126.669
152.05 142.105 128.279
151.701 142.907 126.178
151.623 142.786 124.931
151.958 141.577 126.274
152.352 141.273 127.533
152.537 142.154 129.218
152.344 142.533 129.037
151.418 142.874 123.712
151.558 141.908 124.925
151.249 142.47 123.229
152.055 141.394 125.308
151.095 142.086 122.945
152.659 140.938 128.606
152.969 141.473 129.484
153.213 140.777 129.637
153.218 141.775 130.275
152.686 140.596 127.785
153.551 140.146 130.005
153.614 140.488 130.87
152.024 143.11 128.076
151.688 143.428 126.248
151.723 143.876 127.332
152.751 142.833 129.394
152.373 143.945 127.696
153.447 141.843 116.204
152.961 141.351 117.082
153.769 141.037 117.483
152.565 140.961 117.811
152.209 141.461 116.852
153.167 142.598 115.327
153.78 142.369 115.756
154.483 140.902 118.074
154.099 140.537 118.805
151.853 142.142 115.83
152.446 142.845 114.896
151.609 142.872 114.751
152.892 143.495 114.368
151.364 141.939 116.7
150.858 143.254 114.971
151.427 143.715 114.308
154.426 142.224 116.086
154.793 141.439 117.37
155.17 142.022 116.666
155.088 140.849 118.897
154.163 143.07 115.167
155.584 142.509 115.954
155.686 141.738 117.657
153.826 140.233 119.673
152.9 140.414 119.109
153.463 140.13 120.52
152.153 140.828 118.754
154.459 140.306 120.216
153.867 140.047 121.727
153.124 140.045 121.336
150.825 141.679 118.718
150.265 142.337 118.766
151.019 141.623 120.155
149.667 142.823 118.62
149.656 143.052 117.582
150.927 141.89 117.702
151.498 141.25 118.885
151.559 140.872 121.522
150.87 141.269 121.295
149.79 143.238 116.514
150.606 142.485 116.701
150.212 143.198 115.647
149.192 143.865 116.39
150.126 144.031 114.878
152.069 140.709 119.957
152.081 140.501 121.48
152.596 140.281 121.417
152.176 140.254 122.657
153.144 139.995 122.478
150.468 141.506 121.498
149.884 142.523 119.929
149.851 142.037 121.359
149.199 143.22 118.652
150.994 140.587 122.674
150.478 141.925 122.388
149.659 142.737 121.279
156.977 145.149 124.042
156.435 145.572 124.309
156.729 145.693 122.993
155.99 145.982 124.384
156.24 145.567 125.377
157.284 144.575 125.197
157.415 144.783 123.918
156.697 145.883 121.573
156.335 146.093 121.834
156.572 144.978 126.468
157.106 144.321 126.557
156.715 144.041 127.735
157.315 143.666 126.392
155.907 145.121 126.61
156.299 143.87 128.974
156.853 143.419 128.955
157.619 144.761 122.78
157.195 145.527 121.354
157.685 145.041 121.418
156.72 146.158 120.066
157.811 144.256 124
158.069 144.487 121.544
157.727 145.114 120.131
155.742 146.435 121.67
155.573 146.188 123.336
155.221 146.746 122.025
155.332 146.016 124.664
155.869 146.747 120.291
154.865 147.304 120.997
154.659 146.845 122.197
154.751 145.378 126.54
154.398 145.049 127.433
154.034 145.515 125.887
153.904 144.657 128.101
154.723 144.175 128.513
155.299 145.267 126.879
154.904 145.749 125.565
153.696 145.849 124.34
153.522 145.536 125.181
155.268 143.964 128.761
155.631 144.623 127.763
155.712 143.914 129.078
154.97 143.671 129.732
155.941 143.55 130.271
154.724 146.01 124.345
154.076 146.001 123.735
154.358 146.329 122.853
153.45 146.376 122.787
154.009 147.176 121.656
153.189 145.225 125.67
153.329 144.986 127.494
152.816 145.027 126.561
153.86 144.039 128.704
153.083 145.67 124.147
152.661 144.705 125.378
152.79 144.521 127.329
150.79 147.633 113.657
150.391 148.489 113.728
149.857 147.886 113.836
150.379 149.049 114.185
151.097 148.847 113.844
151.646 147.251 113.412
151.315 146.895 113.346
149.548 147.278 114.011
148.939 148.104 114.239
151.982 148.523 113.524
152.214 147.659 113.388
152.927 148.233 113.135
152.463 146.823 113.323
151.885 149.035 113.946
153.439 148.518 113.568
153.715 147.9 113.014
150.994 146.325 113.279
150.024 146.501 113.546
150.585 145.52 113.519
149.37 146.626 114.261
151.825 146.078 113.157
151.178 144.731 113.989
150.165 145.025 114.057
148.627 148.719 114.824
149.616 148.922 114.881
148.817 148.869 115.628
150.455 149.262 114.856
148.204 148.04 114.988
148.461 148.682 116.495
149.417 149.083 116.329
152.074 149.705 115.512
152.872 149.702 116.093
152.171 149.503 116.612
153.553 149.485 116.777
153.667 149.697 115.649
152.176 149.563 114.638
151.196 149.588 115.258
151.515 149.274 117.154
152.229 149.041 117.746
153.641 149.578 114.763
152.65 149.023 114.271
153.626 148.961 114.04
154.429 149.395 115.365
154.258 148.638 113.912
150.535 149.444 115.683
150.747 149.316 116.891
150.038 149.062 116.766
150.982 148.817 117.831
149.667 148.562 117.414
152.949 148.745 118.403
153.632 148.894 117.836
153.671 148.354 119.152
154.268 149.02 117.473
152.413 148.553 118.673
153.64 147.974 120.188
154.28 147.989 119.699
155.972 137.818 128.949
155.934 137.463 127.562
155.233 137.564 128.452
155.89 137.75 126.206
156.402 137.805 126.957
156.347 138.225 129.602
155.925 138.317 130.363
154.751 138.257 128.972
154.707 138.206 127.587
156.772 138.277 127.083
156.711 138.485 128.644
156.955 138.904 127.373
156.67 138.812 130.058
156.559 138.313 125.765
156.825 139.442 126.094
157.076 139.444 127.78
155.271 138.564 130.582
154.596 138.717 129.681
154.524 139.132 130.689
154.152 138.917 128.579
155.747 138.855 131.507
154.482 139.448 131.556
153.931 139.753 129.964
154.552 138.401 126.328
155.059 138.134 125.735
154.391 138.958 124.681
155.607 138.198 124.982
154.117 138.849 126.48
153.743 139.646 123.75
154.352 139.498 123.398
156.695 140.449 131.615
156.514 139.847 131.843
156.001 140.72 132.81
156.034 139.463 132.129
156.622 139.376 130.814
156.828 140.637 130.384
156.539 141.054 131.395
155.461 141.418 133.779
155.15 140.866 133.786
156.957 139.392 129.661
157.08 140.321 129.242
157.125 139.949 128.224
157.007 140.963 128.564
157.054 140.327 126.949
156.556 141.873 131.079
155.914 141.966 132.658
156.459 142.514 131.351
155.134 142.241 133.556
156.707 141.701 129.985
156.82 142.888 129.736
156.219 143.039 131.356
155.095 140.245 133.022
155.504 139.378 132.146
154.712 139.708 132.386
154.428 141.035 133.801
154.141 140.084 132.296
154.603 145.167 113.596
153.601 145.39 112.935
153.883 144.7 113.448
152.771 145.665 112.946
153.257 146.08 112.947
154.902 145.425 114.151
155.415 144.797 114.15
154.126 143.98 114.055
153.407 144.183 113.868
153.171 146.554 113.508
154.076 146.248 113.638
153.807 147.093 113.363
155.124 144.117 114.295
154.511 143.595 114.783
155.297 143.189 115.188
152.596 144.453 113.661
152.074 145.377 113.052
151.808 144.602 113.77
148.373 146.01 116.305
148.193 145.599 117.568
148.575 144.996 117.148
148.49 145.226 118.694
148.012 146.262 117.837
148.377 146.98 115.726
148.994 146.391 115.284
148.68 144.524 116.438
148.783 144.03 118.008
147.855 147.18 117.428
147.973 147.559 115.671
148.212 148.138 116.914
149.215 145.635 114.791
148.997 144.687 115.497
149.641 144.865 114.615
149.064 143.663 119.332
148.837 144.363 119.545
149.244 143.269 120.665
156.146 139.995 122.1
155.501 140.053 121.503
155.807 139.312 123.033
155.053 140.054 121.135
155.353 140.493 120.391
156.53 140.556 121.288
156.628 140.176 122.578
156.259 138.686 124.2
155.72 138.651 124.052
155.567 140.921 119.582
156.221 140.911 120.178
155.953 141.245 118.765
156.742 139.774 123.61
156.481 138.917 124.732
156.751 139.544 124.952
155.143 139.018 123.515
154.779 139.873 121.77
154.499 139.811 122.611
152.455 140.273 124.491
152.769 140.192 125.966
153.01 139.643 125.995
152.867 140.38 126.974
152.499 140.875 125.493
151.688 140.382 123.741
152.19 140.069 123.668
153.55 139.353 126.2
153.53 139.27 127.357
151.957 141.197 124.122
151.271 140.732 123.545
151.182 141.571 123.116
152.693 140.025 123.712
153.412 139.451 125.023
153.268 139.799 123.7
153.504 139.297 128.324
152.944 139.865 128.061
153.449 139.607 129.195
156.22 147.855 116.673
156.023 147.743 117.778
155.526 148.449 116.861
155.801 147.36 118.882
156.351 147.03 118.678
156.752 147.071 116.646
156.157 147.5 115.823
155.026 148.832 116.205
154.939 148.816 117.243
156.787 146.267 118.989
157.057 146.376 117.664
157.466 145.697 119.029
155.559 147.967 115.208
154.902 148.667 115.321
154.688 148.136 114.697
154.829 148.347 118.314
155.427 147.523 119.441
154.833 147.788 119.726
152.249 146.732 121.085
151.575 146.763 120.512
151.812 147.476 119.913
151.081 146.616 120.006
151.535 146.093 121.202
152.585 146.249 122.307
152.81 146.622 121.686
152.105 148.114 119.299
151.459 148.06 118.762
151.992 145.769 122.424
152.622 145.812 123.14
152.317 145.418 124.071
153.079 147.054 121.375
152.709 147.939 120.001
153.389 147.6 120.894
150.927 148.061 118.582
150.83 147.14 119.033
150.121 148.042 118.275
157.789 142.66 125.805
157.958 142.243 125.166
157.622 141.969 126.906
157.881 141.99 124.677
158.045 142.581 123.772
157.725 143.345 124.884
157.497 143.018 126.226
157.026 141.765 128.506
157.245 141.508 127.839
158.321 143.066 123.465
158.261 143.643 123.906
158.294 143.81 122.626
157.306 142.883 127.44
157.175 142.362 128.553
157.186 142.951 128.637
157.385 141.313 126.93
157.775 141.388 125.452
157.398 140.805 126.191
153.706 142.527 131.663
154.248 143.09 131.195
153.996 142.604 132.732
154.757 143.282 130.444
154.201 143.388 129.502
153.477 142.717 130.031
153.426 142.11 131.259
154.004 141.727 133.439
154.518 142.722 133.279
153.56 143.469 129.408
153.087 143.17 129.573
152.95 143.745 128.555
153.665 141.566 131.144
153.911 140.957 132.977
153.758 140.598 131.812
155.258 142.927 132.347
155.062 143.384 130.914
155.836 143.434 131.156
POLYGONS 1280  5120
3 164 162 163
3 163 44 164
3 162 43 163
3 164 42 162
3 166 165 163
3 163 43 166
3 165 44 163
3 166 14 165
3 168 167 162
3 162 42 168
3 167 43 162
3 168 13 167
3 170 169 164
3 164 44 170
3 169 42 164
3 170 12 169
3 173 171 172
3 172 46 173
3 171 43 172
3 173 45 171
3 167 174 172
3 172 43 167
3 174 46 172
3 167 13 174
3 175 166 171
3 171 45 175
3 166 43 171
3 175 14 166
3 177 176 173
3 173 46 177
3 176 45 173
3 177 4 176
3 180 178 179
3 179 48 180
3 178 42 179
3 180 47 178
3 169 181 179
3 179 42 169
3 181 48 179
3 169 12 181
3 182 168 178
3 178 47 182
3 168 42 178
3 182 13 168
3 184 183 180
3 180 48 184
3 183 47 180
3 184 8 183
3 187 185 186
3 186 50 187
3 185 44 186
3 187 49 185
3 165 188 186
3 186 44 165
3 188 50 186
3 165 14 188
3 189 170 185
3 185 49 189
3 170 44 185
3 189 12 170
3 191 190 187
3 187 50 191
3 190 49 187
3 191 7 190
3 194 192 193
3 193 53 194
3 192 52 193
3 194 51 192
3 196 195 193
3 193 52 196
3 195 53 193
3 196 16 195
3 198 197 192
3 192 51 198
3 197 52 192
3 198 14 197
3 200 199 194
3 194 53 200
3 199 51 194
3 200 15 199
3 203 201 202
3 202 45 203
3 201 52 202
3 203 54 201
3 197 175 202
3 202 52 197
3 175 45 202
3 197 14 175
3 204 196 201
3 201 54 204
3 196 52 201
3 204 16 196
3 176 205 203
3 203 45 176
3 205 54 203
3 176 4 205
3 208 206 207
3 207 55 208
3 206 51 207
3 208 50 206
3 199 209 207
3 207 51 199
3 209 55 207
3 199 15 209
3 188 198 206
3 206 50 188
3 198 51 206
3 188 14 198
3 210 191 208
3 208 55 210
3 191 50 208
3 210 7 191
3 213 211 212
3 212 57 213
3 211 53 212
3 213 56 211
3 195 214 212
3 212 53 195
3 214 57 212
3 195 16 214
3 215 200 211
3 211 56 215
3 200 53 211
3 215 15 200
3 217 216 213
3 213 57 217
3 216 56 213
3 217 9 216
3 220 218 219
3 219 60 220
3 218 59 219
3 220 58 218
3 222 221 219
3 219 59 222
3 221 60 219
3 222 19 221
3 224 223 218
3 218 58 224
3 223 59 218
3 224 18 223
3 226 225 220
3 220 60 226
3 225 58 220
3 226 17 225
3 229 227 228
3 228 62 229
3 227 59 228
3 229 61 227
3 223 230 228
3 228 59 223
3 230 62 228
3 223 18 230
3 231 222 227
3 227 61 231
3 222 59 227
3 231 19 222
3 233 232 229
3 229 62 233
3 232 61 229
3 233 5 232
3 236 234 235
3 235 64 236
3 234 58 235
3 236 63 234
3 225 237 235
3 235 58 225
3 237 64 235
3 225 17 237
3 238 224 234
3 234 63 238
3 224 58 234
3 238 18 224
3 240 239 236
3 236 64 240
3 239 63 236
3 240 6 239
3 243 241 242
3 242 66 243
3 241 60 242
3 243 65 241
3 221 244 242
3 242 60 221
3 244 66 242
3 221 19 244
3 245 226 241
3 241 65 245
3 226 60 241
3 245 17 226
3 247 246 243
3 243 66 247
3 246 65 243
3 247 11 246
3 250 248 249
3 249 69 250
3 248 68 249
3 250 67 248
3 252 251 249
3 249 68 252
3 251 69 249
3 252 18 251
3 254 253 248
3 248 67 254
3 253 68 248
3 254 21 253
3 256 255 250
3 250 69 256
3 255 67 250
3 256 20 255
3 259 257 258
3 258 70 259
3 257 68 258
3 259 62 257
3 253 260 258
3 258 68 253
3 260 70 258
3 253 21 260
3 230 252 257
3 257 62 230
3 252 68 257
3 230 18 252
3 261 233 259
3 259 70 261
3 233 62 259
3 261 5 233
3 264 262 263
3 263 72 264
3 262 67 263
3 264 71 262
3 255 265 263
3 263 67 255
3 265 72 263
3 255 20 265
3 266 254 262
3 262 71 266
3 254 67 262
3 266 21 254
3 268 267 264
3 264 72 268
3 267 71 264
3 268 10 267
3 271 269 270
3 270 63 271
3 269 69 270
3 271 73 269
3 251 238 270
3 270 69 251
3 238 63 270
3 251 18 238
3 272 256 269
3 269 73 272
3 256 69 269
3 272 20 256
3 239 273 271
3 271 63 239
3 273 73 271
3 239 6 273
3 276 274 275
3 275 76 276
3 274 75 275
3 276 74 274
3 278 277 275
3 275 75 278
3 277 76 275
3 278 24 277
3 280 279 274
3 274 74 280
3 279 75 274
3 280 23 279
3 282 281 276
3 276 76 282
3 281 74 276
3 282 22 281
3 285 283 284
3 284 78 285
3 283 75 284
3 285 77 283
3 279 286 284
3 284 75 279
3 286 78 284
3 279 23 286
3 287 278 283
3 283 77 287
3 278 75 283
3 287 24 278
3 289 288 285
3 285 78 289
3 288 77 285
3 289 0 288
3 292 290 291
3 291 80 292
3 290 74 291
3 292 79 290
3 281 293 291
3 291 74 281
3 293 80 291
3 281 22 293
3 294 280 290
3 290 79 294
3 280 74 290
3 294 23 280
3 296 295 292
3 292 80 296
3 295 79 292
3 296 4 295
3 299 297 298
3 298 82 299
3 297 76 298
3 299 81 297
3 277 300 298
3 298 76 277
3 300 82 298
3 277 24 300
3 301 282 297
3 297 81 301
3 282 76 297
3 301 22 282
3 303 302 299
3 299 82 303
3 302 81 299
3 303 3 302
3 306 304 305
3 305 85 306
3 304 84 305
3 306 83 304
3 308 307 305
3 305 84 308
3 307 85 305
3 308 26 307
3 310 309 304
3 304 83 310
3 309 84 304
3 310 24 309
3 312 311 306
3 306 85 312
3 311 83 306
3 312 25 311
3 315 313 314
3 314 77 315
3 313 84 314
3 315 86 313
3 309 287 314
3 314 84 309
3 287 77 314
3 309 24 287
3 316 308 313
3 313 86 316
3 308 84 313
3 316 26 308
3 288 317 315
3 315 77 288
3 317 86 315
3 288 0 317
3 320 318 319
3 319 87 320
3 318 83 319
3 320 82 318
3 311 321 319
3 319 83 311
3 321 87 319
3 311 25 321
3 300 310 318
3 318 82 300
3 310 83 318
3 300 24 310
3 322 303 320
3 320 87 322
3 303 82 320
3 322 3 303
3 325 323 324
3 324 89 325
3 323 85 324
3 325 88 323
3 307 326 324
3 324 85 307
3 326 89 324
3 307 26 326
3 327 312 323
3 323 88 327
3 312 85 323
3 327 25 312
3 329 328 325
3 325 89 329
3 328 88 325
3 329 5 328
3 332 330 331
3 331 92 332
3 330 91 331
3 332 90 330
3 334 333 331
3 331 91 334
3 333 92 331
3 334 29 333
3 336 335 330
3 330 90 336
3 335 91 330
3 336 28 335
3 338 337 332
3 332 92 338
3 337 90 332
3 338 27 337
3 341 339 340
3 340 94 341
3 339 91 340
3 341 93 339
3 335 342 340
3 340 91 335
3 342 94 340
3 335 28 342
3 343 334 339
3 339 93 343
3 334 91 339
3 343 29 334
3 345 344 341
3 341 94 345
3 344 93 341
3 345 2 344
3 348 346 347
3 347 96 348
3 346 90 347
3 348 95 346
3 337 349 347
3 347 90 337
3 349 96 347
3 337 27 349
3 350 336 346
3 346 95 350
3 336 90 346
3 350 28 336
3 352 351 348
3 348 96 352
3 351 95 348
3 352 7 351
3 355 353 354
3 354 98 355
3 353 92 354
3 355 97 353
3 333 356 354
3 354 92 333
3 356 98 354
3 333 29 356
3 357 338 353
3 353 97 357
3 338 92 353
3 357 27 338
3 359 358 355
3 355 98 359
3 358 97 355
3 359 1 358
3 362 360 361
3 361 101 362
3 360 100 361
3 362 99 360
3 364 363 361
3 361 100 364
3 363 101 361
3 364 31 363
3 366 365 360
3 360 99 366
3 365 100 360
3 366 29 365
3 368 367 362
3 362 101 368
3 367 99 362
3 368 30 367
3 371 369 370
3 370 93 371
3 369 100 370
3 371 102 369
3 365 343 370
3 370 100 365
3 343 93 370
3 365 29 343
3 372 364 369
3 369 102 372
3 364 100 369
3 372 31 364
3 344 373 371
3 371 93 344
3 373 102 371
3 344 2 373
3 376 374 375
3 375 103 376
3 374 99 375
3 376 98 374
3 367 377 375
3 375 99 367
3 377 103 375
3 367 30 377
3 356 366 374
3 374 98 356
3 366 99 374
3 356 29 366
3 378 359 376
3 376 103 378
3 359 98 376
3 378 1 359
3 381 379 380
3 380 105 381
3 379 101 380
3 381 104 379
3 363 382 380
3 380 101 363
3 382 105 380
3 363 31 382
3 383 368 379
3 379 104 383
3 368 101 379
3 383 30 368
3 385 384 381
3 381 105 385
3 384 104 381
3 385 6 384
3 388 386 387
3 387 108 388
3 386 107 387
3 388 106 386
3 390 389 387
3 387 107 390
3 389 108 387
3 390 34 389
3 392 391 386
3 386 106 392
3 391 107 386
3 392 33 391
3 394 393 388
3 388 108 394
3 393 106 388
3 394 32 393
3 397 395 396
3 396 110 397
3 395 107 396
3 397 109 395
3 391 398 396
3 396 107 391
3 398 110 396
3 391 33 398
3 399 390 395
3 395 109 399
3 390 107 395
3 399 34 390
3 401 400 397
3 397 110 401
3 400 109 397
3 401 8 400
3 404 402 403
3 403 112 404
3 402 106 403
3 404 111 402
3 393 405 403
3 403 106 393
3 405 112 403
3 393 32 405
3 406 392 402
3 402 111 406
3 392 106 402
3 406 33 392
3 408 407 404
3 404 112 408
3 407 111 404
3 408 0 407
3 411 409 410
3 410 114 411
3 409 108 410
3 411 113 409
3 389 412 410
3 410 108 389
3 412 114 410
3 389 34 412
3 413 394 409
3 409 113 413
3 394 108 409
3 413 32 394
3 415 414 411
3 411 114 415
3 414 113 411
3 415 11 414
3 418 416 417
3 417 117 418
3 416 116 417
3 418 115 416
3 420 419 417
3 417 116 420
3 419 117 417
3 420 36 419
3 422 421 416
3 416 115 422
3 421 116 416
3 422 34 421
3 424 423 418
3 418 117 424
3 423 115 418
3 424 35 423
3 427 425 426
3 426 109 427
3 425 116 426
3 427 118 425
3 421 399 426
3 426 116 421
3 399 109 426
3 421 34 399
3 428 420 425
3 425 118 428
3 420 116 425
3 428 36 420
3 400 429 427
3 427 109 400
3 429 118 427
3 400 8 429
3 432 430 431
3 431 119 432
3 430 115 431
3 432 114 430
3 423 433 431
3 431 115 423
3 433 119 431
3 423 35 433
3 412 422 430
3 430 114 412
3 422 115 430
3 412 34 422
3 434 415 432
3 432 119 434
3 415 114 432
3 434 11 415
3 437 435 436
3 436 121 437
3 435 117 436
3 437 120 435
3 419 438 436
3 436 117 419
3 438 121 436
3 419 36 438
3 439 424 435
3 435 120 439
3 424 117 435
3 439 35 424
3 441 440 437
3 437 121 441
3 440 120 437
3 441 1 440
3 444 442 443
3 443 124 444
3 442 123 443
3 444 122 442
3 446 445 443
3 443 123 446
3 445 124 443
3 446 39 445
3 448 447 442
3 442 122 448
3 447 123 442
3 448 38 447
3 450 449 444
3 444 124 450
3 449 122 444
3 450 37 449
3 453 451 452
3 452 126 453
3 451 123 452
3 453 125 451
3 447 454 452
3 452 123 447
3 454 126 452
3 447 38 454
3 455 446 451
3 451 125 455
3 446 123 451
3 455 39 446
3 457 456 453
3 453 126 457
3 456 125 453
3 457 9 456
3 460 458 459
3 459 128 460
3 458 122 459
3 460 127 458
3 449 461 459
3 459 122 449
3 461 128 459
3 449 37 461
3 462 448 458
3 458 127 462
3 448 122 458
3 462 38 448
3 464 463 460
3 460 128 464
3 463 127 460
3 464 10 463
3 467 465 466
3 466 130 467
3 465 124 466
3 467 129 465
3 445 468 466
3 466 124 445
3 468 130 466
3 445 39 468
3 469 450 465
3 465 129 469
3 450 124 465
3 469 37 450
3 471 470 467
3 467 130 471
3 470 129 467
3 471 3 470
3 474 472 473
3 473 133 474
3 472 132 473
3 474 131 472
3 476 475 473
3 473 132 476
3 475 133 473
3 476 38 475
3 478 477 472
3 472 131 478
3 477 132 472
3 478 41 477
3 480 479 474
3 474 133 480
3 479 131 474
3 480 40 479
3 483 481 482
3 482 134 483
3 481 132 482
3 483 126 481
3 477 484 482
3 482 132 477
3 484 134 482
3 477 41 484
3 454 476 481
3 481 126 454
3 476 132 481
3 454 38 476
3 485 457 483
3 483 134 485
3 457 126 483
3 485 9 457
3 488 486 487
3 487 136 488
3 486 131 487
3 488 135 486
3 479 489 487
3 487 131 479
3 489 136 487
3 479 40 489
3 490 478 486
3 486 135 490
3 478 131 486
3 490 41 478
3 492 491 488
3 488 136 492
3 491 135 488
3 492 2 491
3 495 493 494
3 494 127 495
3 493 133 494
3 495 137 493
3 475 462 494
3 494 133 475
3 462 127 494
3 475 38 462
3 496 480 493
3 493 137 496
3 480 133 493
3 496 40 480
3 463 497 495
3 495 127 463
3 497 137 495
3 463 10 497
3 500 498 499
3 499 140 500
3 498 139 499
3 500 138 498
3 502 501 499
3 499 139 502
3 501 140 499
3 502 33 501
3 504 503 498
3 498 138 504
3 503 139 498
3 504 13 503
3 506 505 500
3 500 140 506
3 505 138 500
3 506 23 505
3 509 507 508
3 508 47 509
3 507 139 508
3 509 110 507
3 503 182 508
3 508 139 503
3 182 47 508
3 503 13 182
3 398 502 507
3 507 110 398
3 502 139 507
3 398 33 502
3 183 401 509
3 509 47 183
3 401 110 509
3 183 8 401
3 512 510 511
3 511 79 512
3 510 138 511
3 512 46 510
3 505 294 511
3 511 138 505
3 294 79 511
3 505 23 294
3 174 504 510
3 510 46 174
3 504 138 510
3 174 13 504
3 295 177 512
3 512 79 295
3 177 46 512
3 295 4 177
3 515 513 514
3 514 111 515
3 513 140 514
3 515 78 513
3 501 406 514
3 514 140 501
3 406 111 514
3 501 33 406
3 286 506 513
3 513 78 286
3 506 140 513
3 286 23 506
3 407 289 515
3 515 111 407
3 289 78 515
3 407 0 289
3 518 516 517
3 517 143 518
3 516 142 517
3 518 141 516
3 520 519 517
3 517 142 520
3 519 143 517
3 520 19 519
3 522 521 516
3 516 141 522
3 521 142 516
3 522 32 521
3 524 523 518
3 518 143 524
3 523 141 518
3 524 26 523
3 527 525 526
3 526 113 527
3 525 142 526
3 527 66 525
3 521 413 526
3 526 142 521
3 413 113 526
3 521 32 413
3 244 520 525
3 525 66 244
3 520 142 525
3 244 19 520
3 414 247 527
3 527 113 414
3 247 66 527
3 414 11 247
3 530 528 529
3 529 86 530
3 528 141 529
3 530 112 528
3 523 316 529
3 529 141 523
3 316 86 529
3 523 26 316
3 405 522 528
3 528 112 405
3 522 141 528
3 405 32 522
3 317 408 530
3 530 86 317
3 408 112 530
3 317 0 408
3 533 531 532
3 532 61 533
3 531 143 532
3 533 89 531
3 519 231 532
3 532 143 519
3 231 61 532
3 519 19 231
3 326 524 531
3 531 89 326
3 524 143 531
3 326 26 524
3 232 329 533
3 533 61 232
3 329 89 533
3 232 5 329
3 536 534 535
3 535 146 536
3 534 145 535
3 536 144 534
3 538 537 535
3 535 145 538
3 537 146 535
3 538 22 537
3 540 539 534
3 534 144 540
3 539 145 534
3 540 16 539
3 542 541 536
3 536 146 542
3 541 144 536
3 542 39 541
3 545 543 544
3 544 54 545
3 543 145 544
3 545 80 543
3 539 204 544
3 544 145 539
3 204 54 544
3 539 16 204
3 293 538 543
3 543 80 293
3 538 145 543
3 293 22 538
3 205 296 545
3 545 54 205
3 296 80 545
3 205 4 296
3 548 546 547
3 547 125 548
3 546 144 547
3 548 57 546
3 541 455 547
3 547 144 541
3 455 125 547
3 541 39 455
3 214 540 546
3 546 57 214
3 540 144 546
3 214 16 540
3 456 217 548
3 548 125 456
3 217 57 548
3 456 9 217
3 551 549 550
3 550 81 551
3 549 146 550
3 551 130 549
3 537 301 550
3 550 146 537
3 301 81 550
3 537 22 301
3 468 542 549
3 549 130 468
3 542 146 549
3 468 39 542
3 302 471 551
3 551 81 302
3 471 130 551
3 302 3 471
3 554 552 553
3 553 149 554
3 552 148 553
3 554 147 552
3 556 555 553
3 553 148 556
3 555 149 553
3 556 21 555
3 558 557 552
3 552 147 558
3 557 148 552
3 558 25 557
3 560 559 554
3 554 149 560
3 559 147 554
3 560 37 559
3 563 561 562
3 562 88 563
3 561 148 562
3 563 70 561
3 557 327 562
3 562 148 557
3 327 88 562
3 557 25 327
3 260 556 561
3 561 70 260
3 556 148 561
3 260 21 556
3 328 261 563
3 563 88 328
3 261 70 563
3 328 5 261
3 566 564 565
3 565 129 566
3 564 147 565
3 566 87 564
3 559 469 565
3 565 147 559
3 469 129 565
3 559 37 469
3 321 558 564
3 564 87 321
3 558 147 564
3 321 25 558
3 470 322 566
3 566 129 470
3 322 87 566
3 470 3 322
3 569 567 568
3 568 71 569
3 567 149 568
3 569 128 567
3 555 266 568
3 568 149 555
3 266 71 568
3 555 21 266
3 461 560 567
3 567 128 461
3 560 149 567
3 461 37 560
3 267 464 569
3 569 71 267
3 464 128 569
3 267 10 464
3 572 570 571
3 571 152 572
3 570 151 571
3 572 150 570
3 574 573 571
3 571 151 574
3 573 152 571
3 574 27 573
3 576 575 570
3 570 150 576
3 575 151 570
3 576 12 575
3 578 577 572
3 572 152 578
3 577 150 572
3 578 36 577
3 581 579 580
3 580 49 581
3 579 151 580
3 581 96 579
3 575 189 580
3 580 151 575
3 189 49 580
3 575 12 189
3 349 574 579
3 579 96 349
3 574 151 579
3 349 27 574
3 190 352 581
3 581 49 190
3 352 96 581
3 190 7 352
3 584 582 583
3 583 118 584
3 582 150 583
3 584 48 582
3 577 428 583
3 583 150 577
3 428 118 583
3 577 36 428
3 181 576 582
3 582 48 181
3 576 150 582
3 181 12 576
3 429 184 584
3 584 118 429
3 184 48 584
3 429 8 184
3 587 585 586
3 586 97 587
3 585 152 586
3 587 121 585
3 573 357 586
3 586 152 573
3 357 97 586
3 573 27 357
3 438 578 585
3 585 121 438
3 578 152 585
3 438 36 578
3 358 441 587
3 587 97 358
3 441 121 587
3 358 1 441
3 590 588 589
3 589 155 590
3 588 154 589
3 590 153 588
3 592 591 589
3 589 154 592
3 591 155 589
3 592 17 591
3 594 593 588
3 588 153 594
3 593 154 588
3 594 30 593
3 596 595 590
3 590 155 596
3 595 153 590
3 596 35 595
3 599 597 598
3 598 104 599
3 597 154 598
3 599 64 597
3 593 383 598
3 598 154 593
3 383 104 598
3 593 30 383
3 237 592 597
3 597 64 237
3 592 154 597
3 237 17 592
3 384 240 599
3 599 104 384
3 240 64 599
3 384 6 240
3 602 600 601
3 601 120 602
3 600 153 601
3 602 103 600
3 595 439 601
3 601 153 595
3 439 120 601
3 595 35 439
3 377 594 600
3 600 103 377
3 594 153 600
3 377 30 594
3 440 378 602
3 602 120 440
3 378 103 602
3 440 1 378
3 605 603 604
3 604 65 605
3 603 155 604
3 605 119 603
3 591 245 604
3 604 155 591
3 245 65 604
3 591 17 245
3 433 596 603
3 603 119 433
3 596 155 603
3 433 35 596
3 246 434 605
3 605 65 246
3 434 119 605
3 246 11 434
3 608 606 607
3 607 158 608
3 606 157 607
3 608 156 606
3 610 609 607
3 607 157 610
3 609 158 607
3 610 15 609
3 612 611 606
3 606 156 612
3 611 157 606
3 612 28 611
3 614 613 608
3 608 158 614
3 613 156 608
3 614 41 613
3 617 615 616
3 616 95 617
3 615 157 616
3 617 55 615
3 611 350 616
3 616 157 611
3 350 95 616
3 611 28 350
3 209 610 615
3 615 55 209
3 610 157 615
3 209 15 610
3 351 210 617
3 617 95 351
3 210 55 617
3 351 7 210
3 620 618 619
3 619 135 620
3 618 156 619
3 620 94 618
3 613 490 619
3 619 156 613
3 490 135 619
3 613 41 490
3 342 612 618
3 618 94 342
3 612 156 618
3 342 28 612
3 491 345 620
3 620 135 491
3 345 94 620
3 491 2 345
3 623 621 622
3 622 56 623
3 621 158 622
3 623 134 621
3 609 215 622
3 622 158 609
3 215 56 622
3 609 15 215
3 484 614 621
3 621 134 484
3 614 158 621
3 484 41 614
3 216 485 623
3 623 56 216
3 485 134 623
3 216 9 485
3 626 624 625
3 625 161 626
3 624 160 625
3 626 159 624
3 628 627 625
3 625 160 628
3 627 161 625
3 628 31 627
3 630 629 624
3 624 159 630
3 629 160 624
3 630 20 629
3 632 631 626
3 626 161 632
3 631 159 626
3 632 40 631
3 635 633 634
3 634 73 635
3 633 160 634
3 635 105 633
3 629 272 634
3 634 160 629
3 272 73 634
3 629 20 272
3 382 628 633
3 633 105 382
3 628 160 633
3 382 31 628
3 273 385 635
3 635 73 273
3 385 105 635
3 273 6 385
3 638 636 637
3 637 137 638
3 636 159 637
3 638 72 636
3 631 496 637
3 637 159 631
3 496 137 637
3 631 40 496
3 265 630 636
3 636 72 265
3 630 159 636
3 265 20 630
3 497 268 638
3 638 137 497
3 268 72 638
3 497 10 268
3 641 639 640
3 640 102 641
3 639 161 640
3 641 136 639
3 627 372 640
3 640 161 627
3 372 102 640
3 627 31 372
3 489 632 639
3 639 136 489
3 632 161 639
3 489 40 632
3 373 492 641
3 641 102 373
3 492 136 641
3 373 2 492
