# vtk DataFile Version 3.0
this file was written using fslvtkio
ASCII
DATASET POLYDATA
POINTS 642 float
111.862 113.739 44.1655
80.7171 111.562 43.7119
85.3351 93.3038 39.0923
108.168 94.7625 39.274
108.549 104.826 67.1132
103.977 97.7189 21.5528
90.0944 96.3202 20.2566
87.5342 103.827 65.6029
96.6087 117.935 55.5822
97.7428 87.1666 51.2404
97.2801 83.2373 27.6648
95.7836 117.16 33.9802
90.9401 112.159 67.7253
103.648 112.598 67.4378
97.219 104.08 73.4668
93.0254 96.8444 59.7904
103.043 97.2419 60.376
92.6683 105.798 28.4621
96.562 95.3065 11.6958
100.487 106.83 28.5981
92.5778 88.6846 16.9897
102.295 87.9677 16.8946
107.916 100.623 53.1027
110.911 112.125 59.6685
107.3 107.681 43.837
107.321 94.7128 29.3727
107.671 107.896 33.4904
83.1248 110.707 58.7808
86.9108 99.9675 52.3281
85.2042 105.672 42.6961
85.5906 105.488 33.2126
87.0812 93.0867 28.132
105.53 119.156 38.0662
106.893 120.745 52.662
95.3616 122.637 45.8472
86.4647 117.051 38.1859
85.7775 118.982 53.4337
105.965 86.0597 32.1016
96.696 84.0972 43.2195
104.975 88.3673 45.4573
89.4568 86.5412 32.2492
90.0968 88.2102 46.3189
97.254 112.516 66.3474
101.61 112.151 75.2834
92.3656 111.574 76.3795
104.733 104.079 73.3752
109.641 111.455 70.8228
100.176 112.802 58.4149
93.9507 112.414 58.866
85.2142 109.941 69.9891
90.4235 103.057 72.1896
94.7744 97.7507 68.3598
101.327 98.6364 68.4648
98.1763 96.0299 61.2974
106.328 99.8079 65.2264
89.8295 99.0359 63.896
95.3983 91.3735 55.505
100.818 91.9683 55.722
94.5902 99.353 19.8189
98.5557 100.017 20.2927
96.6385 105.005 28.6679
101.527 101.178 23.495
100.261 95.8619 15.5439
92.8013 95.1646 14.1357
91.6352 100.437 22.7864
93.4238 112.632 30.2512
98.8218 112.944 30.6922
96.9102 88.8223 15.615
99.8684 92.4066 12.0326
93.782 92.3078 11.073
103.293 92.5391 17.5888
99.9687 84.9878 22.0771
94.5699 84.9156 21.8734
90.7266 91.7657 16.3539
109.605 107.305 56.8638
110.412 108.844 50.4506
106.212 104.877 48.5688
113.803 109.346 42.975
111.188 112.308 50.5974
111.093 109.596 64.8036
107.962 103.704 60.2818
107.335 98.5641 45.7117
105.108 102.153 40.6959
104.686 103.301 37.0589
110.323 107.2 38.0645
103.996 101.838 32.76
110.972 110.983 38.4314
107.974 95.0026 34.2231
105.793 95.9349 25.2089
103.422 102.116 28.5654
84.969 106.286 56.4772
86.7334 103.755 47.9487
83.5115 107.787 49.8184
87.2371 100.095 40.3006
86.3966 97.3216 45.4046
87.8206 102.607 59.0625
84.6989 108.167 63.377
81.6634 110.587 49.8037
79.126 106.48 42.0725
83.3576 104.422 37.381
88.0543 99.6282 35.5103
88.8641 99.3925 30.5604
85.6784 93.4234 33.8693
81.8884 108.749 37.8822
89.0421 100.35 26.3172
88.6539 94.3941 23.4086
106.952 122.262 45.341
101.639 123.93 49.1873
101.043 123.11 41.6035
95.7863 122.369 52.0537
102.027 120.143 55.5146
110.4 118.208 48.3156
109.638 117.039 41.0117
100.596 119.367 35.2114
95.3562 120.859 39.3088
89.903 121.841 41.7542
89.7584 122.947 49.4929
85.1786 120.008 45.7135
91.1038 119.469 55.9799
90.7131 117.971 35.2904
83.2567 114.499 41.2109
82.3445 115.996 48.7432
101.807 85.6876 39.1432
103.251 80.4331 45.3583
106.757 85.1101 40.7009
102.529 86.4617 49.4787
96.7293 80.6932 48.0554
97.1179 84.1804 35.425
101.653 84.9456 29.4444
108.507 89.2145 35.7394
107.315 91.6363 42.6071
88.5373 86.5485 40.9897
90.5999 79.4557 44.387
93.2331 86.8525 39.1493
92.9562 86.708 49.4587
86.2118 90.7625 43.4597
85.6485 88.6624 35.1907
93.1416 85.1036 28.754
108.12 112.599 64.0664
104.455 113.106 56.1222
108.939 115.265 53.9173
107.48 113.402 35.7315
103.449 114.361 32.4529
103.963 107.926 30.8113
104.573 92.2432 52.5617
106.271 98.6709 57.3475
106.766 94.5245 48.6854
108.091 89.3296 29.4465
105.256 90.3985 22.3511
104.984 85.477 24.223
89.6396 111.753 56.6106
86.1701 111.55 63.9105
84.3145 113.914 54.8423
85.2114 111.388 35.4327
88.9115 106.156 30.3135
88.9005 112.709 32.2735
87.7368 93.8586 48.8516
88.8048 97.369 56.707
90.7125 91.7328 53.0484
90.2168 85.7983 23.2227
88.6336 89.6504 21.7341
87.3546 88.9688 29.2285
99.0333 111.922 70.483
96.9163 111.907 73.7293
95.1152 111.863 70.9867
95.0097 108.124 75.221
98.6772 108.443 74.803
102.997 112.226 71.1956
100.44 112.622 66.4357
94.0034 112.377 66.8739
91.4693 111.742 72.2697
103.189 108.254 75.3556
105.793 112.061 74.4025
106.409 108.77 74.1974
106.809 112.625 70.3615
100.973 105.188 73.8813
107.057 105.37 71.5132
108.704 107.836 71.0056
98.7738 112.346 62.4546
95.4974 112.11 62.641
97.0112 112.545 58.2959
92.6041 112.026 63.2413
101.65 112.397 62.8205
98.4142 115.147 56.3995
95.0744 115.026 56.6231
88.4353 110.504 74.9005
91.2645 106.851 75.4951
87.861 106.802 73.0158
93.836 103.616 74.0082
88.1672 111.737 71.0757
86.3452 106.738 69.1538
88.4263 104.152 69.5122
98.1298 98.8493 68.8461
100.06 95.4128 65.3836
96.5752 95.494 65.2431
100.969 96.4287 61.1464
103.337 95.7263 65.7248
99.8019 101.663 72.1954
95.9481 100.704 71.9254
93.2978 95.2339 64.5999
95.2684 96.7615 60.9427
104.392 98.8871 67.829
103.044 101.442 71.9271
105.831 102.053 69.5048
105.122 97.577 62.8458
107.562 102.537 66.5924
92.6972 100.321 71.0316
91.5547 97.6734 67.11
89.8212 100.905 68.3454
91.3525 97.0888 62.1533
88.4695 101.399 64.7693
96.8213 94.2424 58.3915
99.5265 94.941 58.4822
98.2453 92.2415 56.0976
101.854 94.8903 57.8599
94.2801 93.9761 57.5862
96.7995 89.6278 53.3727
99.1555 89.8721 53.5376
96.5388 99.6997 20.3028
97.7746 102.681 24.5046
95.282 102.186 24.5096
98.2978 106.01 28.1985
99.1914 103.765 25.6305
97.356 97.5003 16.3428
95.6543 97.1677 16.0678
93.9858 103.045 25.0716
94.9261 105.259 28.0265
100.054 100.883 21.4302
99.2889 97.6587 17.0513
100.955 98.5246 19.2228
98.4703 95.5372 13.046
100.654 103.462 26.153
102.625 99.2593 21.6983
101.785 96.683 18.6702
93.9312 97.0882 16.3733
93.1954 100.213 21.4681
92.4765 97.8096 18.6032
92.3276 102.904 25.6466
94.6068 95.3554 12.1952
91.7897 95.9122 17.5112
91.1815 98.141 20.6527
95.1925 109.045 29.0828
97.3621 109.43 29.1468
96.0527 112.194 30.363
99.9835 110.14 29.5486
92.7279 109.405 29.2594
94.5587 115.073 32.1147
97.3123 115.522 31.881
97.9052 91.2223 13.139
96.8188 92.7458 10.7657
96.1463 91.1516 12.74
94.9023 93.8209 10.1597
98.6218 94.0048 11.2214
100.13 90.5024 13.8408
99.1424 89.2498 15.3879
94.87 89.0221 14.785
94.0543 91.1262 14.2202
100.303 93.6705 13.4272
101.584 91.7695 14.4566
101.834 94.4437 16.6928
102.893 90.0904 16.2001
103.483 95.1928 19.6583
98.6074 86.2523 18.4863
95.8322 86.491 18.0883
97.2746 84.8946 21.0374
93.8076 86.5491 18.1242
100.799 86.7406 18.7046
98.6732 83.7061 24.2955
96.0284 83.6407 24.2959
91.738 91.6078 13.5327
92.7333 93.2965 12.1605
91.4218 93.5696 15.3885
91.6011 90.0387 16.2163
90.3768 94.1755 18.3437
109.88 107.715 53.569
107.991 107.194 50.07
108.61 105.496 52.5936
106.404 106.907 46.4007
109.232 108.411 47.1682
110.319 110.054 54.7606
110.844 109.703 58.0588
108.315 104.585 55.1784
107.279 103 51.6073
111.811 109.257 46.4837
111.29 110.384 50.184
112.759 111.13 46.371
110.147 111.685 54.9418
111.084 108.214 43.7535
112.811 111.766 43.6631
111.57 113.395 47.4526
110.114 108.656 60.4848
108.5 105.673 58.8163
109.397 107.133 63.0509
107.778 102.552 56.5459
111.837 110.661 62.0634
109.356 107.538 67.0616
108.459 104.613 63.6953
106.885 102.037 46.8669
105.763 104.493 43.883
106.487 100.351 43.2199
105.285 106.047 42.7932
107.178 99.8423 49.2313
107.235 97.0688 42.4036
106.079 98.1308 39.6932
106.299 106.079 38.0296
106.242 105.548 35.884
103.504 102.439 34.9645
105.93 105.162 33.5778
109.067 107.401 35.6379
109.239 106.994 40.8366
105.516 106.218 40.5949
104.417 98.3956 33.452
104.359 97.8203 30.8857
111.747 108.815 37.6393
113.283 107.623 40.0715
113.276 110.425 40.2735
109.599 109.539 35.9881
111.61 112.631 40.9409
104.572 103.015 38.8502
105.383 98.2759 35.1194
106.123 97.9903 37.2651
107.644 95.2191 32.076
108.18 94.8279 36.7249
105.077 98.9217 28.9001
104.206 102.413 30.9492
105.525 99.5489 26.6354
105.133 105.168 31.3164
106.113 95.3523 27.5179
105.421 97.1953 23.431
104.524 100.076 24.7067
86.0576 104.794 51.9643
85.8161 106.291 49.1068
84.9005 107.027 52.8303
84.3239 106.633 46.2711
86.428 105.435 45.6965
86.8556 102.053 51.0198
86.3492 103.62 54.8137
84.0188 108.607 57.7902
83.8052 109.058 54.2832
86.5037 102.443 43.4791
86.5401 100.691 46.3327
86.341 98.5298 42.9034
86.914 98.7909 48.5684
86.7486 103.813 41.8909
86.7159 96.6328 39.6512
86.0025 95.4409 42.0381
86.4771 104.567 58.1918
84.865 107.059 59.8114
86.3578 105.689 61.9468
83.1579 109.458 61.7423
86.9488 101.445 55.6851
87.5165 103.531 62.3676
86.375 105.994 65.3945
81.6149 108.311 49.122
80.6682 106.523 45.3869
79.4673 108.388 45.65
81.8817 105.645 42.7036
83.1933 110.223 53.4954
80.4782 110.986 46.5984
79.5077 108.902 42.7906
87.2077 102.701 36.4826
89.1411 99.4919 33.1413
87.3788 102.194 34.1232
88.2284 96.0846 28.9879
88.1485 96.0368 31.6891
87.4121 103.512 39.3089
83.896 104.391 39.7123
84.291 104.46 35.029
87.4291 102.994 32.7163
87.2229 96.0113 34.274
87.8932 100.393 38.3797
86.7741 95.8888 36.6261
86.1947 93.6855 31.2102
85.2451 93.4922 36.7711
80.5148 105.188 39.3838
81.8134 106.246 36.8716
79.7235 107.563 39.4075
83.4666 107.221 35.2075
81.0969 110.284 40.7758
88.7241 100.058 28.7789
87.8172 96.857 26.6093
87.9827 97.6838 24.3889
87.889 94.0076 25.8637
88.7409 102.893 30.8019
89.077 98.6869 22.885
89.1435 95.3791 21.5527
104.58 123.818 47.1212
101.361 123.776 45.4319
104.246 123.225 43.2995
98.4934 122.895 44.1397
98.6064 123.643 47.3363
104.337 122.904 50.7097
106.73 122.297 49.1396
105.801 121.31 41.4926
103.422 121.929 39.8773
98.8892 123.054 50.7063
101.681 122.444 52.426
99.0575 121.473 53.7514
104.538 120.969 53.9293
95.7375 122.895 48.924
96.1158 120.513 54.2842
99.2692 118.923 55.9924
109.06 120.625 47.2135
108.314 120.166 43.2401
110.344 118.27 44.4932
107.685 118.703 39.8869
108.849 120.114 50.7106
111.319 116.051 45.8832
111.231 115.251 42.4164
100.76 121.523 38.3366
98.2231 121.91 40.7302
97.9925 120.514 37.1163
95.4858 122.138 42.5565
103.181 119.835 36.7685
98.1903 117.847 34.6998
95.4969 119.102 36.4303
89.7387 122.751 45.7335
86.9418 122.413 47.5976
87.3764 121.415 43.7432
85.3057 120.165 49.3508
87.3067 121.576 51.1433
92.5319 123.076 47.3879
92.3425 122.426 43.9787
87.8006 119.903 40.1787
85.7573 119.111 41.9636
90.1303 121.59 52.6048
92.8036 122.712 50.7623
93.0205 121.385 53.998
88.1811 119.713 54.5536
94.041 118.716 56.362
92.8061 121.896 40.6856
90.2406 120.259 38.5198
92.8382 119.969 37.354
88.4457 117.957 36.6923
93.2121 117.79 34.3852
84.0122 117.493 43.5602
83.5707 118.095 47.3699
82.5825 115.58 44.7169
84.0587 117.917 51.0908
84.7785 116.059 39.8825
82.0391 112.731 42.3465
81.578 113.614 46.1792
102.9 82.7243 41.2877
106.252 81.8665 42.8427
104.633 85.7166 39.5862
106.74 85.0982 44.2569
105.49 82.4188 46.0706
100.177 82.061 44.0311
99.9078 84.0019 41.314
103.877 86.325 35.3347
106.568 86.2018 36.7098
103.176 82.4193 47.959
100.258 81.118 46.82
100.236 82.1111 49.9816
96.3881 81.6092 45.3648
103.987 86.8127 47.2112
100.124 86.8445 50.9542
97.1866 83.1235 50.8501
99.3058 84.8454 37.2471
101.366 85.2014 34.2586
99.3957 83.8654 32.4209
103.823 85.5698 31.1667
97.4793 84.7146 40.0476
97.0162 83.5502 31.2018
99.6634 83.939 28.2606
107.214 87.7061 38.6056
106.522 88.2351 41.9721
107.515 90.364 39.7261
105.888 90.0369 44.0724
107.563 87.213 34.6077
108.6 91.5508 37.372
108.178 93.2263 40.8784
89.1245 83.6265 41.9119
92.1026 84.3518 41.5878
91.3219 87.1102 38.9907
94.6948 84.962 41.7773
93.6862 80.3788 42.9921
89.6015 82.6976 45.6349
88.8558 86.3544 44.5791
89.1267 87.199 37.1668
91.0872 87.0886 34.8628
93.5588 79.5282 46.2799
91.4581 82.1901 47.5301
94.3017 82.3784 49.1981
91.3345 87.4012 47.7712
95.3077 86.7631 50.864
87.5845 88.7349 42.5965
87.3231 88.174 38.728
85.6741 89.461 40.1139
87.5301 87.4386 34.9683
88.0538 89.4623 45.3116
85.2551 92.1829 41.2941
84.8688 90.4851 37.2797
93.0318 85.9025 33.354
95.0442 85.5403 37.3865
94.8693 84.4936 31.9
91.3409 86.0843 30.1434
94.83 83.362 27.92
105.942 113.184 60.8363
106.651 114.4 55.552
107.669 113.095 58.4404
108.679 118.543 53.5133
105.947 117.919 55.2779
103.729 112.537 62.0368
105.941 112.735 66.1217
109.866 112.927 61.8511
109.152 112.48 55.9111
103.775 117.535 55.8534
102.273 112.623 56.9391
101.071 116.25 56.4202
108.846 112.782 67.018
112.379 112.56 64.2663
110.866 109.894 67.4621
110.343 113.876 52.0851
110.35 117.274 51.3636
111.166 115.237 48.8362
105.659 114.29 33.8204
104 111.171 31.1322
106.038 111.103 32.9513
102.142 107.045 29.3713
101.98 111.033 30.1164
104.717 117.265 35.1173
106.691 116.264 37.0439
107.864 110.508 34.5871
105.873 108.11 32.216
101.169 113.823 31.1643
102.351 117.015 33.9704
99.7713 116.606 32.442
108.437 115.379 38.467
109.41 112.207 36.9304
110.536 113.902 39.4315
103.735 105.025 29.7046
102.038 104.223 27.8785
102.972 101.605 25.9014
105.459 95.5056 54.7283
106.195 96.7892 52.9435
106.081 93.5118 50.9417
107.073 97.7253 51.0178
107.055 99.6806 55.2619
104.414 97.7645 58.6254
103.591 95.0705 56.2946
104.542 90.7431 48.7308
106.321 91.2842 47.0816
106.926 101.122 59.0063
105.964 99.5104 61.4792
107.797 101.741 63.0528
102.901 91.7264 54.6315
102.962 90.3749 49.9443
101.271 89.7932 52.095
107.57 92.8874 45.6031
107.319 96.7437 47.4421
107.681 94.916 43.8749
106.435 89.796 25.925
105.353 87.9504 22.6649
107.151 87.0994 26.3892
103.879 86.5143 20.1703
104.44 88.8333 19.2439
106.237 92.3598 26.0498
107.635 91.9088 29.0628
107.799 86.8767 30.7124
105.593 85.8919 28.4032
104.632 91.0547 19.4525
105.594 93.03 23.5269
104.865 94.1761 21.2413
108.703 92.1377 31.7452
108.767 89.0782 32.5767
108.846 91.8364 34.6157
103.431 85.2675 26.8212
102.562 85.5236 22.057
100.931 84.5833 25.2477
88.2428 111.89 61.4089
85.7422 111.976 58.8386
87.3226 112.913 56.3855
84.6083 111.085 55.7483
83.8147 111.706 61.8898
88.4597 111.506 66.7477
90.5107 112.011 62.6986
87.4736 116.313 55.6446
84.4041 116.645 54.3447
82.8235 110.552 64.2561
85.9591 111.173 67.2899
84.6167 107.969 66.4606
91.8091 112.029 57.5562
89.7001 116.497 56.0132
92.4829 115.917 56.6741
82.8498 115.273 51.85
83.0831 112.463 52.5657
81.8659 113.096 49.0533
86.7034 109.135 32.477
88.7411 109.353 30.7416
87.02 112.162 33.5633
90.6458 109.752 29.9908
90.9953 105.756 29.0564
87.165 105.994 31.9006
84.9326 108.44 34.0572
85.4917 114.338 36.6917
87.4638 115.193 35.1669
90.9737 103.076 27.0215
89.6139 103.052 29.0742
90.2643 100.386 24.4679
83.4723 110.137 36.566
83.807 113.206 38.0499
82.6748 111.478 39.5558
89.5933 115.366 33.8492
91.139 112.654 30.9642
92.0336 115.401 32.5635
88.4317 95.7795 52.815
89.9471 94.6959 54.6863
88.8596 92.737 51.123
91.8549 93.9783 56.3161
90.9059 96.7642 58.2095
87.5729 98.5082 54.4961
87.6672 97.0324 50.6275
87.9584 90.6666 47.8951
89.7025 90.1687 49.5956
90.0622 98.6758 60.387
88.3066 99.8439 57.813
88.6752 100.978 61.5033
86.6993 95.7629 47.3127
86.3643 92.1619 46.0757
85.9264 93.9462 44.0556
91.9473 89.9605 50.7807
92.985 91.2854 54.6076
94.1164 89.7395 51.9936
89.4422 87.5836 21.7941
87.8557 89.1511 25.2872
88.0757 87.0761 25.977
86.8647 90.8401 28.5157
88.101 91.4 25.121
90.1241 88.3916 18.8148
91.3906 86.3975 19.375
89.5588 85.7961 27.383
88.0332 87.2525 30.5917
88.6286 91.9108 22.332
89.9527 90.3161 18.6979
89.5184 92.6739 19.6828
92.2594 85.4352 20.8447
91.3803 85.2225 25.8921
93.6615 84.3808 24.9853
86.4962 88.7243 31.9414
85.8515 91.0522 31.1696
84.8932 90.8453 34.4083
POLYGONS 1280  5120
3 164 162 163
3 163 44 164
3 162 43 163
3 164 42 162
3 166 165 163
3 163 43 166
3 165 44 163
3 166 14 165
3 168 167 162
3 162 42 168
3 167 43 162
3 168 13 167
3 170 169 164
3 164 44 170
3 169 42 164
3 170 12 169
3 173 171 172
3 172 46 173
3 171 43 172
3 173 45 171
3 167 174 172
3 172 43 167
3 174 46 172
3 167 13 174
3 175 166 171
3 171 45 175
3 166 43 171
3 175 14 166
3 177 176 173
3 173 46 177
3 176 45 173
3 177 4 176
3 180 178 179
3 179 48 180
3 178 42 179
3 180 47 178
3 169 181 179
3 179 42 169
3 181 48 179
3 169 12 181
3 182 168 178
3 178 47 182
3 168 42 178
3 182 13 168
3 184 183 180
3 180 48 184
3 183 47 180
3 184 8 183
3 187 185 186
3 186 50 187
3 185 44 186
3 187 49 185
3 165 188 186
3 186 44 165
3 188 50 186
3 165 14 188
3 189 170 185
3 185 49 189
3 170 44 185
3 189 12 170
3 191 190 187
3 187 50 191
3 190 49 187
3 191 7 190
3 194 192 193
3 193 53 194
3 192 52 193
3 194 51 192
3 196 195 193
3 193 52 196
3 195 53 193
3 196 16 195
3 198 197 192
3 192 51 198
3 197 52 192
3 198 14 197
3 200 199 194
3 194 53 200
3 199 51 194
3 200 15 199
3 203 201 202
3 202 45 203
3 201 52 202
3 203 54 201
3 197 175 202
3 202 52 197
3 175 45 202
3 197 14 175
3 204 196 201
3 201 54 204
3 196 52 201
3 204 16 196
3 176 205 203
3 203 45 176
3 205 54 203
3 176 4 205
3 208 206 207
3 207 55 208
3 206 51 207
3 208 50 206
3 199 209 207
3 207 51 199
3 209 55 207
3 199 15 209
3 188 198 206
3 206 50 188
3 198 51 206
3 188 14 198
3 210 191 208
3 208 55 210
3 191 50 208
3 210 7 191
3 213 211 212
3 212 57 213
3 211 53 212
3 213 56 211
3 195 214 212
3 212 53 195
3 214 57 212
3 195 16 214
3 215 200 211
3 211 56 215
3 200 53 211
3 215 15 200
3 217 216 213
3 213 57 217
3 216 56 213
3 217 9 216
3 220 218 219
3 219 60 220
3 218 59 219
3 220 58 218
3 222 221 219
3 219 59 222
3 221 60 219
3 222 19 221
3 224 223 218
3 218 58 224
3 223 59 218
3 224 18 223
3 226 225 220
3 220 60 226
3 225 58 220
3 226 17 225
3 229 227 228
3 228 62 229
3 227 59 228
3 229 61 227
3 223 230 228
3 228 59 223
3 230 62 228
3 223 18 230
3 231 222 227
3 227 61 231
3 222 59 227
3 231 19 222
3 233 232 229
3 229 62 233
3 232 61 229
3 233 5 232
3 236 234 235
3 235 64 236
3 234 58 235
3 236 63 234
3 225 237 235
3 235 58 225
3 237 64 235
3 225 17 237
3 238 224 234
3 234 63 238
3 224 58 234
3 238 18 224
3 240 239 236
3 236 64 240
3 239 63 236
3 240 6 239
3 243 241 242
3 242 66 243
3 241 60 242
3 243 65 241
3 221 244 242
3 242 60 221
3 244 66 242
3 221 19 244
3 245 226 241
3 241 65 245
3 226 60 241
3 245 17 226
3 247 246 243
3 243 66 247
3 246 65 243
3 247 11 246
3 250 248 249
3 249 69 250
3 248 68 249
3 250 67 248
3 252 251 249
3 249 68 252
3 251 69 249
3 252 18 251
3 254 253 248
3 248 67 254
3 253 68 248
3 254 21 253
3 256 255 250
3 250 69 256
3 255 67 250
3 256 20 255
3 259 257 258
3 258 70 259
3 257 68 258
3 259 62 257
3 253 260 258
3 258 68 253
3 260 70 258
3 253 21 260
3 230 252 257
3 257 62 230
3 252 68 257
3 230 18 252
3 261 233 259
3 259 70 261
3 233 62 259
3 261 5 233
3 264 262 263
3 263 72 264
3 262 67 263
3 264 71 262
3 255 265 263
3 263 67 255
3 265 72 263
3 255 20 265
3 266 254 262
3 262 71 266
3 254 67 262
3 266 21 254
3 268 267 264
3 264 72 268
3 267 71 264
3 268 10 267
3 271 269 270
3 270 63 271
3 269 69 270
3 271 73 269
3 251 238 270
3 270 69 251
3 238 63 270
3 251 18 238
3 272 256 269
3 269 73 272
3 256 69 269
3 272 20 256
3 239 273 271
3 271 63 239
3 273 73 271
3 239 6 273
3 276 274 275
3 275 76 276
3 274 75 275
3 276 74 274
3 278 277 275
3 275 75 278
3 277 76 275
3 278 24 277
3 280 279 274
3 274 74 280
3 279 75 274
3 280 23 279
3 282 281 276
3 276 76 282
3 281 74 276
3 282 22 281
3 285 283 284
3 284 78 285
3 283 75 284
3 285 77 283
3 279 286 284
3 284 75 279
3 286 78 284
3 279 23 286
3 287 278 283
3 283 77 287
3 278 75 283
3 287 24 278
3 289 288 285
3 285 78 289
3 288 77 285
3 289 0 288
3 292 290 291
3 291 80 292
3 290 74 291
3 292 79 290
3 281 293 291
3 291 74 281
3 293 80 291
3 281 22 293
3 294 280 290
3 290 79 294
3 280 74 290
3 294 23 280
3 296 295 292
3 292 80 296
3 295 79 292
3 296 4 295
3 299 297 298
3 298 82 299
3 297 76 298
3 299 81 297
3 277 300 298
3 298 76 277
3 300 82 298
3 277 24 300
3 301 282 297
3 297 81 301
3 282 76 297
3 301 22 282
3 303 302 299
3 299 82 303
3 302 81 299
3 303 3 302
3 306 304 305
3 305 85 306
3 304 84 305
3 306 83 304
3 308 307 305
3 305 84 308
3 307 85 305
3 308 26 307
3 310 309 304
3 304 83 310
3 309 84 304
3 310 24 309
3 312 311 306
3 306 85 312
3 311 83 306
3 312 25 311
3 315 313 314
3 314 77 315
3 313 84 314
3 315 86 313
3 309 287 314
3 314 84 309
3 287 77 314
3 309 24 287
3 316 308 313
3 313 86 316
3 308 84 313
3 316 26 308
3 288 317 315
3 315 77 288
3 317 86 315
3 288 0 317
3 320 318 319
3 319 87 320
3 318 83 319
3 320 82 318
3 311 321 319
3 319 83 311
3 321 87 319
3 311 25 321
3 300 310 318
3 318 82 300
3 310 83 318
3 300 24 310
3 322 303 320
3 320 87 322
3 303 82 320
3 322 3 303
3 325 323 324
3 324 89 325
3 323 85 324
3 325 88 323
3 307 326 324
3 324 85 307
3 326 89 324
3 307 26 326
3 327 312 323
3 323 88 327
3 312 85 323
3 327 25 312
3 329 328 325
3 325 89 329
3 328 88 325
3 329 5 328
3 332 330 331
3 331 92 332
3 330 91 331
3 332 90 330
3 334 333 331
3 331 91 334
3 333 92 331
3 334 29 333
3 336 335 330
3 330 90 336
3 335 91 330
3 336 28 335
3 338 337 332
3 332 92 338
3 337 90 332
3 338 27 337
3 341 339 340
3 340 94 341
3 339 91 340
3 341 93 339
3 335 342 340
3 340 91 335
3 342 94 340
3 335 28 342
3 343 334 339
3 339 93 343
3 334 91 339
3 343 29 334
3 345 344 341
3 341 94 345
3 344 93 341
3 345 2 344
3 348 346 347
3 347 96 348
3 346 90 347
3 348 95 346
3 337 349 347
3 347 90 337
3 349 96 347
3 337 27 349
3 350 336 346
3 346 95 350
3 336 90 346
3 350 28 336
3 352 351 348
3 348 96 352
3 351 95 348
3 352 7 351
3 355 353 354
3 354 98 355
3 353 92 354
3 355 97 353
3 333 356 354
3 354 92 333
3 356 98 354
3 333 29 356
3 357 338 353
3 353 97 357
3 338 92 353
3 357 27 338
3 359 358 355
3 355 98 359
3 358 97 355
3 359 1 358
3 362 360 361
3 361 101 362
3 360 100 361
3 362 99 360
3 364 363 361
3 361 100 364
3 363 101 361
3 364 31 363
3 366 365 360
3 360 99 366
3 365 100 360
3 366 29 365
3 368 367 362
3 362 101 368
3 367 99 362
3 368 30 367
3 371 369 370
3 370 93 371
3 369 100 370
3 371 102 369
3 365 343 370
3 370 100 365
3 343 93 370
3 365 29 343
3 372 364 369
3 369 102 372
3 364 100 369
3 372 31 364
3 344 373 371
3 371 93 344
3 373 102 371
3 344 2 373
3 376 374 375
3 375 103 376
3 374 99 375
3 376 98 374
3 367 377 375
3 375 99 367
3 377 103 375
3 367 30 377
3 356 366 374
3 374 98 356
3 366 99 374
3 356 29 366
3 378 359 376
3 376 103 378
3 359 98 376
3 378 1 359
3 381 379 380
3 380 105 381
3 379 101 380
3 381 104 379
3 363 382 380
3 380 101 363
3 382 105 380
3 363 31 382
3 383 368 379
3 379 104 383
3 368 101 379
3 383 30 368
3 385 384 381
3 381 105 385
3 384 104 381
3 385 6 384
3 388 386 387
3 387 108 388
3 386 107 387
3 388 106 386
3 390 389 387
3 387 107 390
3 389 108 387
3 390 34 389
3 392 391 386
3 386 106 392
3 391 107 386
3 392 33 391
3 394 393 388
3 388 108 394
3 393 106 388
3 394 32 393
3 397 395 396
3 396 110 397
3 395 107 396
3 397 109 395
3 391 398 396
3 396 107 391
3 398 110 396
3 391 33 398
3 399 390 395
3 395 109 399
3 390 107 395
3 399 34 390
3 401 400 397
3 397 110 401
3 400 109 397
3 401 8 400
3 404 402 403
3 403 112 404
3 402 106 403
3 404 111 402
3 393 405 403
3 403 106 393
3 405 112 403
3 393 32 405
3 406 392 402
3 402 111 406
3 392 106 402
3 406 33 392
3 408 407 404
3 404 112 408
3 407 111 404
3 408 0 407
3 411 409 410
3 410 114 411
3 409 108 410
3 411 113 409
3 389 412 410
3 410 108 389
3 412 114 410
3 389 34 412
3 413 394 409
3 409 113 413
3 394 108 409
3 413 32 394
3 415 414 411
3 411 114 415
3 414 113 411
3 415 11 414
3 418 416 417
3 417 117 418
3 416 116 417
3 418 115 416
3 420 419 417
3 417 116 420
3 419 117 417
3 420 36 419
3 422 421 416
3 416 115 422
3 421 116 416
3 422 34 421
3 424 423 418
3 418 117 424
3 423 115 418
3 424 35 423
3 427 425 426
3 426 109 427
3 425 116 426
3 427 118 425
3 421 399 426
3 426 116 421
3 399 109 426
3 421 34 399
3 428 420 425
3 425 118 428
3 420 116 425
3 428 36 420
3 400 429 427
3 427 109 400
3 429 118 427
3 400 8 429
3 432 430 431
3 431 119 432
3 430 115 431
3 432 114 430
3 423 433 431
3 431 115 423
3 433 119 431
3 423 35 433
3 412 422 430
3 430 114 412
3 422 115 430
3 412 34 422
3 434 415 432
3 432 119 434
3 415 114 432
3 434 11 415
3 437 435 436
3 436 121 437
3 435 117 436
3 437 120 435
3 419 438 436
3 436 117 419
3 438 121 436
3 419 36 438
3 439 424 435
3 435 120 439
3 424 117 435
3 439 35 424
3 441 440 437
3 437 121 441
3 440 120 437
3 441 1 440
3 444 442 443
3 443 124 444
3 442 123 443
3 444 122 442
3 446 445 443
3 443 123 446
3 445 124 443
3 446 39 445
3 448 447 442
3 442 122 448
3 447 123 442
3 448 38 447
3 450 449 444
3 444 124 450
3 449 122 444
3 450 37 449
3 453 451 452
3 452 126 453
3 451 123 452
3 453 125 451
3 447 454 452
3 452 123 447
3 454 126 452
3 447 38 454
3 455 446 451
3 451 125 455
3 446 123 451
3 455 39 446
3 457 456 453
3 453 126 457
3 456 125 453
3 457 9 456
3 460 458 459
3 459 128 460
3 458 122 459
3 460 127 458
3 449 461 459
3 459 122 449
3 461 128 459
3 449 37 461
3 462 448 458
3 458 127 462
3 448 122 458
3 462 38 448
3 464 463 460
3 460 128 464
3 463 127 460
3 464 10 463
3 467 465 466
3 466 130 467
3 465 124 466
3 467 129 465
3 445 468 466
3 466 124 445
3 468 130 466
3 445 39 468
3 469 450 465
3 465 129 469
3 450 124 465
3 469 37 450
3 471 470 467
3 467 130 471
3 470 129 467
3 471 3 470
3 474 472 473
3 473 133 474
3 472 132 473
3 474 131 472
3 476 475 473
3 473 132 476
3 475 133 473
3 476 38 475
3 478 477 472
3 472 131 478
3 477 132 472
3 478 41 477
3 480 479 474
3 474 133 480
3 479 131 474
3 480 40 479
3 483 481 482
3 482 134 483
3 481 132 482
3 483 126 481
3 477 484 482
3 482 132 477
3 484 134 482
3 477 41 484
3 454 476 481
3 481 126 454
3 476 132 481
3 454 38 476
3 485 457 483
3 483 134 485
3 457 126 483
3 485 9 457
3 488 486 487
3 487 136 488
3 486 131 487
3 488 135 486
3 479 489 487
3 487 131 479
3 489 136 487
3 479 40 489
3 490 478 486
3 486 135 490
3 478 131 486
3 490 41 478
3 492 491 488
3 488 136 492
3 491 135 488
3 492 2 491
3 495 493 494
3 494 127 495
3 493 133 494
3 495 137 493
3 475 462 494
3 494 133 475
3 462 127 494
3 475 38 462
3 496 480 493
3 493 137 496
3 480 133 493
3 496 40 480
3 463 497 495
3 495 127 463
3 497 137 495
3 463 10 497
3 500 498 499
3 499 140 500
3 498 139 499
3 500 138 498
3 502 501 499
3 499 139 502
3 501 140 499
3 502 33 501
3 504 503 498
3 498 138 504
3 503 139 498
3 504 13 503
3 506 505 500
3 500 140 506
3 505 138 500
3 506 23 505
3 509 507 508
3 508 47 509
3 507 139 508
3 509 110 507
3 503 182 508
3 508 139 503
3 182 47 508
3 503 13 182
3 398 502 507
3 507 110 398
3 502 139 507
3 398 33 502
3 183 401 509
3 509 47 183
3 401 110 509
3 183 8 401
3 512 510 511
3 511 79 512
3 510 138 511
3 512 46 510
3 505 294 511
3 511 138 505
3 294 79 511
3 505 23 294
3 174 504 510
3 510 46 174
3 504 138 510
3 174 13 504
3 295 177 512
3 512 79 295
3 177 46 512
3 295 4 177
3 515 513 514
3 514 111 515
3 513 140 514
3 515 78 513
3 501 406 514
3 514 140 501
3 406 111 514
3 501 33 406
3 286 506 513
3 513 78 286
3 506 140 513
3 286 23 506
3 407 289 515
3 515 111 407
3 289 78 515
3 407 0 289
3 518 516 517
3 517 143 518
3 516 142 517
3 518 141 516
3 520 519 517
3 517 142 520
3 519 143 517
3 520 19 519
3 522 521 516
3 516 141 522
3 521 142 516
3 522 32 521
3 524 523 518
3 518 143 524
3 523 141 518
3 524 26 523
3 527 525 526
3 526 113 527
3 525 142 526
3 527 66 525
3 521 413 526
3 526 142 521
3 413 113 526
3 521 32 413
3 244 520 525
3 525 66 244
3 520 142 525
3 244 19 520
3 414 247 527
3 527 113 414
3 247 66 527
3 414 11 247
3 530 528 529
3 529 86 530
3 528 141 529
3 530 112 528
3 523 316 529
3 529 141 523
3 316 86 529
3 523 26 316
3 405 522 528
3 528 112 405
3 522 141 528
3 405 32 522
3 317 408 530
3 530 86 317
3 408 112 530
3 317 0 408
3 533 531 532
3 532 61 533
3 531 143 532
3 533 89 531
3 519 231 532
3 532 143 519
3 231 61 532
3 519 19 231
3 326 524 531
3 531 89 326
3 524 143 531
3 326 26 524
3 232 329 533
3 533 61 232
3 329 89 533
3 232 5 329
3 536 534 535
3 535 146 536
3 534 145 535
3 536 144 534
3 538 537 535
3 535 145 538
3 537 146 535
3 538 22 537
3 540 539 534
3 534 144 540
3 539 145 534
3 540 16 539
3 542 541 536
3 536 146 542
3 541 144 536
3 542 39 541
3 545 543 544
3 544 54 545
3 543 145 544
3 545 80 543
3 539 204 544
3 544 145 539
3 204 54 544
3 539 16 204
3 293 538 543
3 543 80 293
3 538 145 543
3 293 22 538
3 205 296 545
3 545 54 205
3 296 80 545
3 205 4 296
3 548 546 547
3 547 125 548
3 546 144 547
3 548 57 546
3 541 455 547
3 547 144 541
3 455 125 547
3 541 39 455
3 214 540 546
3 546 57 214
3 540 144 546
3 214 16 540
3 456 217 548
3 548 125 456
3 217 57 548
3 456 9 217
3 551 549 550
3 550 81 551
3 549 146 550
3 551 130 549
3 537 301 550
3 550 146 537
3 301 81 550
3 537 22 301
3 468 542 549
3 549 130 468
3 542 146 549
3 468 39 542
3 302 471 551
3 551 81 302
3 471 130 551
3 302 3 471
3 554 552 553
3 553 149 554
3 552 148 553
3 554 147 552
3 556 555 553
3 553 148 556
3 555 149 553
3 556 21 555
3 558 557 552
3 552 147 558
3 557 148 552
3 558 25 557
3 560 559 554
3 554 149 560
3 559 147 554
3 560 37 559
3 563 561 562
3 562 88 563
3 561 148 562
3 563 70 561
3 557 327 562
3 562 148 557
3 327 88 562
3 557 25 327
3 260 556 561
3 561 70 260
3 556 148 561
3 260 21 556
3 328 261 563
3 563 88 328
3 261 70 563
3 328 5 261
3 566 564 565
3 565 129 566
3 564 147 565
3 566 87 564
3 559 469 565
3 565 147 559
3 469 129 565
3 559 37 469
3 321 558 564
3 564 87 321
3 558 147 564
3 321 25 558
3 470 322 566
3 566 129 470
3 322 87 566
3 470 3 322
3 569 567 568
3 568 71 569
3 567 149 568
3 569 128 567
3 555 266 568
3 568 149 555
3 266 71 568
3 555 21 266
3 461 560 567
3 567 128 461
3 560 149 567
3 461 37 560
3 267 464 569
3 569 71 267
3 464 128 569
3 267 10 464
3 572 570 571
3 571 152 572
3 570 151 571
3 572 150 570
3 574 573 571
3 571 151 574
3 573 152 571
3 574 27 573
3 576 575 570
3 570 150 576
3 575 151 570
3 576 12 575
3 578 577 572
3 572 152 578
3 577 150 572
3 578 36 577
3 581 579 580
3 580 49 581
3 579 151 580
3 581 96 579
3 575 189 580
3 580 151 575
3 189 49 580
3 575 12 189
3 349 574 579
3 579 96 349
3 574 151 579
3 349 27 574
3 190 352 581
3 581 49 190
3 352 96 581
3 190 7 352
3 584 582 583
3 583 118 584
3 582 150 583
3 584 48 582
3 577 428 583
3 583 150 577
3 428 118 583
3 577 36 428
3 181 576 582
3 582 48 181
3 576 150 582
3 181 12 576
3 429 184 584
3 584 118 429
3 184 48 584
3 429 8 184
3 587 585 586
3 586 97 587
3 585 152 586
3 587 121 585
3 573 357 586
3 586 152 573
3 357 97 586
3 573 27 357
3 438 578 585
3 585 121 438
3 578 152 585
3 438 36 578
3 358 441 587
3 587 97 358
3 441 121 587
3 358 1 441
3 590 588 589
3 589 155 590
3 588 154 589
3 590 153 588
3 592 591 589
3 589 154 592
3 591 155 589
3 592 17 591
3 594 593 588
3 588 153 594
3 593 154 588
3 594 30 593
3 596 595 590
3 590 155 596
3 595 153 590
3 596 35 595
3 599 597 598
3 598 104 599
3 597 154 598
3 599 64 597
3 593 383 598
3 598 154 593
3 383 104 598
3 593 30 383
3 237 592 597
3 597 64 237
3 592 154 597
3 237 17 592
3 384 240 599
3 599 104 384
3 240 64 599
3 384 6 240
3 602 600 601
3 601 120 602
3 600 153 601
3 602 103 600
3 595 439 601
3 601 153 595
3 439 120 601
3 595 35 439
3 377 594 600
3 600 103 377
3 594 153 600
3 377 30 594
3 440 378 602
3 602 120 440
3 378 103 602
3 440 1 378
3 605 603 604
3 604 65 605
3 603 155 604
3 605 119 603
3 591 245 604
3 604 155 591
3 245 65 604
3 591 17 245
3 433 596 603
3 603 119 433
3 596 155 603
3 433 35 596
3 246 434 605
3 605 65 246
3 434 119 605
3 246 11 434
3 608 606 607
3 607 158 608
3 606 157 607
3 608 156 606
3 610 609 607
3 607 157 610
3 609 158 607
3 610 15 609
3 612 611 606
3 606 156 612
3 611 157 606
3 612 28 611
3 614 613 608
3 608 158 614
3 613 156 608
3 614 41 613
3 617 615 616
3 616 95 617
3 615 157 616
3 617 55 615
3 611 350 616
3 616 157 611
3 350 95 616
3 611 28 350
3 209 610 615
3 615 55 209
3 610 157 615
3 209 15 610
3 351 210 617
3 617 95 351
3 210 55 617
3 351 7 210
3 620 618 619
3 619 135 620
3 618 156 619
3 620 94 618
3 613 490 619
3 619 156 613
3 490 135 619
3 613 41 490
3 342 612 618
3 618 94 342
3 612 156 618
3 342 28 612
3 491 345 620
3 620 135 491
3 345 94 620
3 491 2 345
3 623 621 622
3 622 56 623
3 621 158 622
3 623 134 621
3 609 215 622
3 622 158 609
3 215 56 622
3 609 15 215
3 484 614 621
3 621 134 484
3 614 158 621
3 484 41 614
3 216 485 623
3 623 56 216
3 485 134 623
3 216 9 485
3 626 624 625
3 625 161 626
3 624 160 625
3 626 159 624
3 628 627 625
3 625 160 628
3 627 161 625
3 628 31 627
3 630 629 624
3 624 159 630
3 629 160 624
3 630 20 629
3 632 631 626
3 626 161 632
3 631 159 626
3 632 40 631
3 635 633 634
3 634 73 635
3 633 160 634
3 635 105 633
3 629 272 634
3 634 160 629
3 272 73 634
3 629 20 272
3 382 628 633
3 633 105 382
3 628 160 633
3 382 31 628
3 273 385 635
3 635 73 273
3 385 105 635
3 273 6 385
3 638 636 637
3 637 137 638
3 636 159 637
3 638 72 636
3 631 496 637
3 637 159 631
3 496 137 637
3 631 40 496
3 265 630 636
3 636 72 265
3 630 159 636
3 265 20 630
3 497 268 638
3 638 137 497
3 268 72 638
3 497 10 268
3 641 639 640
3 640 102 641
3 639 161 640
3 641 136 639
3 627 372 640
3 640 161 627
3 372 102 640
3 627 31 372
3 489 632 639
3 639 136 489
3 632 161 639
3 489 40 632
3 373 492 641
3 641 102 373
3 492 136 641
3 373 2 492
