# vtk DataFile Version 3.0
this file was written using fslvtkio
ASCII
DATASET POLYDATA
POINTS 642 float
113.577 113.808 42.1404
81.5501 112.576 40.635
85.648 94.747 35.5807
108.573 95.0592 36.6514
109.091 103.325 64.0945
106.616 98.8247 17.9258
89.4853 98.243 15.1608
86.7384 103.332 62.278
97.2704 117.174 50.9638
97.6361 89.4627 47.6384
97.9845 85.3126 25.1866
97.1746 116.92 31.6759
90.9822 110.441 62.4413
103.318 110.742 63.2024
96.6873 103.873 71.3362
92.3365 96.45 57.2485
102.96 96.1082 58.4252
93.5732 107.456 23.4703
98.4924 95.7704 6.15132
102.61 108.798 23.8979
93.0676 89.6699 13.2792
104.521 88.6865 14.3426
108.978 100.433 50.8304
112.399 111.153 57.0289
108.186 107.525 41.1334
108.922 94.9964 26.1072
109.492 108.535 30.1725
82.9545 110.002 54.7108
86.4704 100.507 49.3211
85.8332 105.984 38.3658
86.7313 106.536 28.6549
86.7217 94.4657 23.7259
107.235 118.759 35.4643
108.316 119.213 49.4263
96.3717 120.073 42.0979
87.2803 117.52 35.1873
86.3158 118.488 49.339
106.852 87.0585 29.514
95.4513 86.1016 38.9914
105.109 89.4465 42.6315
89.2034 87.6216 28.5222
89.7642 89.8613 42.6917
97.0372 110.938 61.81
101.286 110.907 71.7984
91.8838 110.468 72.1249
104.818 102.512 71.1524
109.347 109.697 67.7643
100.485 111.818 54.1487
94.2538 111.728 53.8401
84.5949 109.246 66.3716
89.5085 102.371 69.7136
93.7439 96.7764 66.3848
100.823 97.2187 67.0954
97.5734 95.894 58.826
106.641 98.4615 62.3436
88.7335 98.3323 60.9836
95.1414 92.6987 52.4799
100.632 92.9025 52.8732
96.0143 100.944 14.4461
100.515 101.385 15.6169
98.141 106.577 23.9436
103.97 102.676 19.8736
102.864 97.1655 11.1322
93.5756 96.8061 9.09353
92.1024 102.329 17.4991
94.8061 113.7 27.0116
100.409 114.065 27.4449
98.2683 89.5358 13.1624
103.016 92.3216 7.58609
93.4415 92.527 5.1223
106.204 93.7706 14.7907
101.315 86.3621 19.5994
95.5147 86.6426 18.9131
89.8695 93.1165 11.9391
110.995 106.565 54.8266
111.347 108.884 48.5487
107.857 104.166 46.5087
112.897 110.225 41.0303
112.763 112.195 48.8545
112.137 108.202 62.8187
108.541 102.838 57.5928
108.288 98.6782 43.3803
107.658 101.637 38.2852
106.744 102.473 33.7355
110.25 107.885 35.7342
106.128 102.289 29.5158
112.483 111.502 35.764
108.82 95.2643 31.4156
107.565 97.161 22.3067
105.851 103.296 25.0265
84.2535 105.829 52.8016
86.0154 103.668 44.6281
82.9606 107.796 46.055
86.8421 100.834 37.3354
86.4958 98.2531 42.3189
87.0844 102.561 55.9383
83.7588 107.466 60.329
81.7031 111.377 46.9949
81.0765 108.181 38.9301
85.4693 105.756 33.4764
87.9727 99.9437 31.2767
89.1013 100.287 26.3571
85.6258 95.0459 30.1248
83.3708 110.049 34.0742
89.0529 102.184 21.8835
87.7455 96.1694 19.1066
108.38 120.665 42.5418
102.845 120.872 45.2473
102.386 120.692 38.9838
96.6769 120.173 47.112
102.987 119.116 51.5286
112.164 117.552 45.641
111.288 116.813 38.655
102.198 118.761 33.0259
96.4298 119.394 36.8006
90.9938 120.613 38.8661
90.8199 120.705 45.3942
85.8615 119.604 42.1588
91.439 118.911 51.2965
91.9041 117.927 32.6317
83.6462 115.23 37.7839
82.634 116.353 44.9476
101.985 87.0733 36.3149
102.451 82.6613 41.0515
107.417 85.3548 37.5343
102.044 88.5671 45.8891
96.3592 83.8727 43.3028
97.048 87.6849 32.7763
102.317 86.2381 26.8499
108.971 89.3422 32.7839
107.724 91.9939 40.0095
88.6738 87.6423 36.7617
90.9909 81.9722 40.3844
92.6997 86.6357 35.3364
92.9799 89.1955 45.6313
86.4435 92.2557 39.7782
85.5865 89.7433 31.5139
93.8464 87.5117 26.2494
107.806 110.685 60.2329
104.826 112.141 52.9421
110.566 114.77 51.731
109.791 113.998 32.5766
105.369 115.083 29.3753
106.803 109.47 26.4324
104.569 93.0385 50.1871
106.693 98.0177 55.117
107.146 95.2738 46.4047
110.036 89.9815 27.4457
107.668 91.6743 19.9078
106.055 87.6455 22.24
89.7924 111.885 52.7096
86.7503 110.179 59.2359
84.3804 113.98 50.9656
85.7449 112.77 31.8138
89.2747 107.728 25.3544
89.8832 114.014 28.6804
87.6687 95.1451 45.9336
88.1226 97.6991 53.8598
90.4321 92.9805 50.0285
90.8271 87.5261 20.164
88.3253 91.0587 17.7235
86.7075 90.5025 25.9015
98.5323 110.454 66.5632
96.575 110.754 70.0231
94.8231 110.437 66.7412
94.5382 107.608 72.4164
98.5341 107.843 72.1904
102.42 110.51 67.2455
100.219 110.824 62.0929
93.8826 110.761 61.9477
91.2679 110.352 67.4637
102.99 107.216 72.7777
105.361 110.221 70.6306
106.219 107.168 71.4319
106.244 110.686 66.7396
100.905 104.235 71.7524
107.299 103.597 68.7797
108.783 106.189 68.2117
98.7676 110.684 57.8462
95.5885 110.58 57.6628
97.2729 111.544 53.7489
92.9151 110.537 57.9304
101.551 110.686 58.4596
98.9785 114.455 52.1965
95.4909 114.756 52.4077
88.0414 109.327 70.4951
90.5801 106.347 72.3711
87.1964 106.303 70.0881
92.9737 103.095 71.6778
88.3613 110.155 66.6917
85.6346 106.167 66.1486
87.3332 103.488 66.8768
97.2847 97.6078 66.9289
99.2334 95.1066 62.9188
95.648 94.9093 62.7117
100.585 95.9423 59.1382
102.588 95.2541 63.6334
99.0524 100.783 70.293
95.0654 99.955 70.0576
92.1765 94.994 62.2056
94.5603 96.3471 58.2069
104.411 97.2436 65.4211
102.665 99.7376 69.7149
106.062 100.275 67.0737
105.021 96.6072 60.6142
107.764 101.063 63.6924
91.6124 99.332 68.7846
90.3413 97.1442 64.6264
88.7128 100.212 65.8497
90.4266 96.6961 59.5797
87.6806 100.857 61.9699
96.357 94.4759 55.8152
99.2034 95.0514 56.0892
97.9858 93.2392 53.3447
101.659 94.8764 55.7091
93.7569 94.3274 54.8183
96.5053 91.437 50.0995
98.9916 91.7209 50.3446
98.3276 101.041 15.0239
99.577 104.053 20.0535
96.7295 103.305 19.9835
100.132 107.598 23.3313
101.14 104.823 21.1698
99.3554 98.7051 11.1366
97.2017 98.3388 10.4112
95.293 104.292 20.0117
96.0697 106.683 23.177
102.339 102.419 17.1927
101.559 99.0917 12.4845
103.703 100.082 15.1552
100.638 96.5645 8.32572
102.644 104.615 22.2476
105.242 100.533 17.6912
104.463 98.019 14.4228
95.172 98.7008 10.8561
94.3115 101.82 16.1106
92.9979 99.7984 13.2116
93.3792 104.186 20.3792
95.9592 96.4703 6.79033
91.7053 97.8951 12.2407
91.0087 100.265 15.2641
96.5132 110.242 24.7604
99.111 110.752 24.8827
97.5928 113.154 27.0285
101.864 111.76 25.4878
93.9025 110.866 25.1037
95.9177 115.68 29.4063
98.863 115.926 29.4367
99.5358 91.3459 8.98454
98.4505 92.7748 5.43356
96.8451 91.5245 8.20102
96.0896 94.3608 4.33402
101.362 94.3827 6.43387
102.981 90.5051 10.251
100.982 89.6552 12.6749
95.872 90.252 12.1643
94.0161 91.4893 9.39872
102.9 94.5621 9.82098
104.848 92.5924 10.875
104.958 95.7206 13.2896
105.572 90.9113 12.9153
106.309 96.4361 16.3175
99.9611 87.4446 15.9082
96.9956 87.9301 15.4131
98.4229 86.1318 18.1736
94.8229 88.1052 14.9819
102.382 87.5595 15.8914
99.6379 85.0929 21.6248
96.9497 85.6095 21.6245
91.0168 92.3387 7.85904
92.9064 94.9233 6.74091
91.1711 95.4424 11.132
91.1492 90.8668 11.6357
89.6534 95.8412 13.6397
111.132 107.334 51.6713
109.116 106.729 48.0067
109.534 105.104 50.5198
108.084 106.227 44.3695
109.731 108.261 45.2128
112.365 109.639 52.772
112.615 108.819 56.0149
109.445 104.056 53.015
108.807 102.398 49.5056
111.757 109.724 44.0228
112.595 110.456 48.1883
113.477 111.118 44.427
112.153 111.42 52.9907
110.249 108.711 41.6091
113.482 111.934 41.7531
113.577 113 45.6977
111.8 107.284 58.2354
109.551 104.803 56.3201
110.211 105.835 60.6217
108.658 101.919 54.0199
112.916 109.411 59.7649
110.31 106.089 64.8113
109.15 103.356 60.9229
108.657 101.457 44.8728
107.932 103.68 41.8624
108.385 100.152 41.0267
107.35 105.235 40.2684
108.447 99.5995 47.0242
108.024 97.2064 39.9068
107.694 98.2543 37.334
107.152 106.099 35.4349
107.764 105.87 32.9331
105.986 102.172 31.6541
108.24 105.525 30.3488
110.15 107.798 32.7592
109.118 107.726 38.4902
106.924 105.513 37.5714
106.897 98.422 29.9743
106.496 98.4749 27.7094
112.196 109.605 35.364
112.031 108.958 38.3735
113.523 110.819 38.345
111.142 110.337 32.8756
113.139 112.736 38.7483
107.215 102.207 35.9858
107.738 98.3293 32.1073
108.174 97.953 34.5247
109.039 95.2172 28.7602
108.654 95.1349 34.0811
106.087 99.796 26.1631
106.77 103.613 27.5617
106.959 100.595 23.6864
108.272 106.168 27.5517
107.816 96.3228 24.4416
107.547 98.2329 20.3235
106.684 101.217 21.2144
85.2511 104.632 48.4759
84.9645 106.202 45.2734
83.8611 106.565 49.0875
84.3176 107.132 42.291
85.8802 105.448 41.8269
86.4383 102.201 47.7646
85.9135 103.772 51.5089
83.0899 107.827 53.7251
82.6401 108.644 50.2999
86.1041 102.806 40.6163
86.0082 101.253 43.4732
86.2605 99.5535 39.8801
86.7329 99.4878 45.5247
86.6209 103.86 38.2767
86.544 97.6944 36.4111
86.1036 96.6542 38.8891
85.924 104.53 54.944
83.8722 106.631 56.302
85.5847 105.626 58.8263
82.5939 108.638 57.8629
86.6105 101.675 52.4956
86.79 103.252 59.1468
85.477 105.654 62.6668
81.6668 109.245 46.1856
81.5979 107.703 42.046
80.4859 109.85 42.6
83.5564 106.741 38.8162
82.4765 110.397 50.3913
81.1277 111.897 43.619
81.2268 110.293 39.5431
88.1906 103.124 32.4221
88.9182 100.075 28.8273
88.4199 103.265 30.2366
88.2027 97.3467 24.7249
87.8116 96.9452 27.3053
87.7074 103.438 35.0382
85.4286 105.305 35.4878
86.2983 105.58 30.9045
88.3171 103.839 28.0919
86.8979 97.4034 30.6438
87.2911 100.997 34.9299
86.7741 97.3509 33.4025
86.0066 94.8577 27.0155
85.5102 95.0008 33.0761
82.9036 106.896 36.2455
84.1608 107.827 33.6026
82.2549 109.211 36.2871
85.4618 108.7 31.467
82.1412 111.21 37.2654
89.3423 101.554 24.636
87.5261 98.7675 22.6331
87.4598 99.5937 20.1229
87.3206 95.7789 21.6323
89.0311 104.263 25.7239
88.8391 100.714 18.2148
88.1656 97.2719 17.0302
105.737 120.929 43.8712
102.551 120.726 42.187
105.481 121.025 40.563
99.6038 120.309 40.7991
99.7957 120.417 43.4965
105.8 120.875 47.1978
108.297 120.726 46.0893
107.404 119.984 39.0656
104.97 120.271 37.473
99.9453 120.328 46.3397
102.872 120.698 48.4866
99.9618 119.762 49.3567
105.791 119.68 50.4233
96.7207 120.126 44.5602
96.6089 119.526 49.4607
99.9674 118.028 51.4738
110.753 119.643 44.2607
110.005 119.113 40.634
112.166 117.612 42.0219
109.271 118.191 37.4073
110.448 119.093 47.6077
113.269 115.677 43.5329
112.791 115.073 39.9279
102.143 119.798 36.1623
99.4743 119.848 37.9711
99.4044 119.088 34.9235
96.4997 120.122 39.3869
104.769 119.15 34.4057
99.7094 117.804 32.24
96.7273 118.333 34.1063
90.87 120.773 42.2412
88.222 120.508 43.8874
88.3476 120.536 40.5797
85.9171 119.602 45.578
88.0356 120.27 47.1016
93.6234 120.723 43.5878
93.4833 120.584 40.632
88.7463 119.539 37.2276
86.4844 119.067 38.6985
90.7986 120.452 48.3238
93.7882 120.603 46.3842
93.7985 120.17 49.5156
88.5797 119.188 50.4901
94.4436 117.934 51.6152
93.7629 120.455 37.7411
91.3473 119.589 35.7787
93.9195 118.945 34.8363
89.4711 118.082 33.9028
94.4756 117.561 31.857
84.5992 117.608 40.0374
84.0662 117.978 43.5354
82.9054 116.006 41.1434
84.2822 117.978 47.2096
85.3814 116.81 36.8278
82.2554 113.688 39.0394
81.7843 114.393 42.7771
102.39 84.3195 38.2007
106.102 82.1406 39.1991
105.122 85.1232 36.1151
106.613 85.7249 40.4047
104.946 84.3352 41.8978
99.9512 85.3709 40.193
99.9406 87.5321 38.1955
104.574 86.5159 32.7263
107.117 86.2408 33.7057
102.605 85.1393 43.7126
99.7121 84.0882 42.3565
99.7921 85.4587 45.2707
95.8905 84.7685 40.8716
103.823 88.6664 43.9877
99.8013 89.1522 47.0673
96.9177 86.0539 46.1446
99.4193 88.5201 34.6961
101.76 86.4923 31.6771
99.6502 86.38 29.9731
104.201 86.8206 28.7215
96.4086 87.913 36.8598
97.6725 86.3401 28.5487
100.489 85.5503 25.417
107.798 87.8283 35.5469
107.062 88.4381 38.8511
107.776 90.3972 36.7755
106.212 90.4997 41.2408
108.643 87.3492 31.7802
109.138 91.7779 34.7109
108.455 93.5848 38.3311
89.5662 85.04 38.6624
91.1242 82.5449 37.1563
90.3935 86.7596 35.2237
93.8516 85.2525 37.366
93.3656 81.5244 38.8975
89.977 85.5649 41.3694
89.0986 87.9089 40.0342
88.5097 87.473 32.8637
90.7292 87.2118 31.6086
93.7065 82.8876 41.7371
91.7784 85.094 42.8131
94.2465 85.8039 44.6765
91.2868 89.3575 43.9702
95.2618 89.265 47.2077
87.8335 89.7036 38.2998
87.103 88.9377 34.5271
86.0479 90.6047 36.0365
86.9386 88.301 30.7873
87.9136 90.6943 41.2719
85.7637 93.5812 37.6919
85.2165 91.9167 33.7107
93.0798 87.4847 30.8097
94.7666 87.4414 34.3342
95.4585 87.1482 29.5103
91.6321 87.8344 27.5032
95.7855 86.2442 25.231
105.832 111.432 56.743
107.265 113.535 52.5653
108.112 112.087 55.1418
110.034 117.234 50.3926
106.861 116.58 51.716
103.501 110.799 57.7356
105.573 110.771 61.9821
109.905 111.222 58.1389
110.582 112.045 53.6883
104.465 116.673 52.2482
102.622 111.92 53.1859
101.496 115.868 52.7963
108.372 110.827 63.4915
112.196 111.075 61.175
111.385 109.128 64.9063
112.469 113.686 50.0891
112.019 116.711 48.6946
113.003 114.911 46.4557
107.72 114.809 30.6846
106.38 112.406 27.3562
108.677 112.099 29.3472
104.499 108.709 24.7911
104.203 112.492 26.1123
106.431 117.182 32.4583
108.656 116.402 33.9822
110.216 111.256 31.1862
108.313 109.157 28.2037
103.003 114.737 28.1438
104.05 117.278 31.3497
101.395 116.797 30.0371
110.305 115.708 35.8049
111.419 112.782 34.098
112.321 114.095 36.9476
106.77 106.284 25.5488
104.384 105.636 24.1097
105.048 102.732 22.3015
105.368 95.8207 52.5515
106.63 96.8619 50.6273
106.038 94.1799 48.4335
107.84 97.896 48.8029
107.838 99.1301 52.8685
105.031 96.8682 56.6635
103.587 95.1548 54.3814
104.983 91.3225 46.2052
106.79 92.0096 44.7054
107.894 100.267 56.3733
106.557 98.431 58.8226
108.04 100.78 60.2455
102.742 92.5233 51.9084
103.244 91.0359 47.5224
101.104 91.2521 49.0594
107.66 93.4781 43.014
107.878 97.0291 45.062
108.001 95.3507 41.4004
108.772 90.957 23.7049
107.169 89.312 20.2613
108.719 88.4898 24.7082
105.266 87.7976 17.8541
106.484 90.048 16.442
108.656 93.2225 23.2381
109.768 92.4388 26.3324
109.269 87.5035 28.1555
106.593 87.5645 26.0873
106.903 92.267 16.5233
107.763 94.1287 20.8365
106.972 95.5645 18.7113
110.039 92.7428 29.3381
109.821 89.3972 30.1646
109.571 92.3109 32.2002
104.31 87.3363 24.6829
103.565 87.1828 19.6837
101.972 86.4963 23.023
88.6877 110.625 56.428
86.3838 111.41 54.3485
87.4865 113.011 52.4232
84.2566 111.1 52.2546
84.4217 110.77 57.046
88.8477 110.025 61.6919
90.9199 110.548 57.2034
87.7183 116.26 51.3974
84.718 116.506 49.8808
82.9284 110.386 60.071
86.5054 110.142 62.8494
83.5746 107.88 63.2112
92.0218 111.713 53.0744
90.0114 116.288 51.8137
92.88 115.867 52.5432
82.9746 115.686 47.8504
82.6482 112.95 49.038
81.6309 113.875 45.491
87.1708 110.613 28.3498
89.5798 110.672 26.573
87.8914 113.304 29.8461
91.6828 111.209 26.0527
91.6318 107.491 24.0285
87.4419 107.609 27.2164
85.6378 110.071 30.4302
86.3747 115.265 33.3949
88.6161 115.971 32.0501
91.7484 104.602 22.0991
90.0894 104.634 23.8647
90.4811 102.33 19.2787
84.221 111.508 33.2935
84.537 114.425 34.7938
83.0124 112.733 36.1481
90.8337 115.975 30.8832
92.3608 113.894 27.4808
93.3141 115.974 29.7983
88.1509 96.6148 49.831
89.593 95.5675 51.955
88.8054 93.9792 48.0143
91.4288 94.9346 53.5961
89.966 96.7303 55.6982
87.0585 98.9067 51.4722
87.3647 97.9518 47.7089
87.9463 92.1326 44.5149
89.576 91.2685 46.3082
88.8086 98.3708 57.501
87.3802 99.9496 54.8548
87.7411 100.729 58.6417
86.6329 96.8271 44.2624
86.8343 93.5236 42.8045
86.2862 95.1727 40.8258
91.6404 91.183 47.745
92.6394 92.5797 51.4761
93.8711 91.0411 49.0627
89.4841 88.7643 18.1581
87.7408 90.5681 21.5029
88.1728 88.5465 22.6073
86.5084 92.3166 24.3643
87.6242 92.7431 20.8573
90.1634 89.5418 14.6691
92.1406 87.9707 16.1113
89.8565 87.7071 24.1685
87.585 88.6935 26.8973
87.7471 93.5404 18.392
89.0353 91.4735 14.3977
88.7542 94.3717 15.4695
93.2467 87.3286 18.3378
92.0657 87.6361 23.2649
94.6914 87.2097 22.4519
86.0526 90.0928 28.7682
85.7209 92.9791 27.7849
85.0281 92.6086 30.9949
POLYGONS 1280  5120
3 164 162 163
3 163 44 164
3 162 43 163
3 164 42 162
3 166 165 163
3 163 43 166
3 165 44 163
3 166 14 165
3 168 167 162
3 162 42 168
3 167 43 162
3 168 13 167
3 170 169 164
3 164 44 170
3 169 42 164
3 170 12 169
3 173 171 172
3 172 46 173
3 171 43 172
3 173 45 171
3 167 174 172
3 172 43 167
3 174 46 172
3 167 13 174
3 175 166 171
3 171 45 175
3 166 43 171
3 175 14 166
3 177 176 173
3 173 46 177
3 176 45 173
3 177 4 176
3 180 178 179
3 179 48 180
3 178 42 179
3 180 47 178
3 169 181 179
3 179 42 169
3 181 48 179
3 169 12 181
3 182 168 178
3 178 47 182
3 168 42 178
3 182 13 168
3 184 183 180
3 180 48 184
3 183 47 180
3 184 8 183
3 187 185 186
3 186 50 187
3 185 44 186
3 187 49 185
3 165 188 186
3 186 44 165
3 188 50 186
3 165 14 188
3 189 170 185
3 185 49 189
3 170 44 185
3 189 12 170
3 191 190 187
3 187 50 191
3 190 49 187
3 191 7 190
3 194 192 193
3 193 53 194
3 192 52 193
3 194 51 192
3 196 195 193
3 193 52 196
3 195 53 193
3 196 16 195
3 198 197 192
3 192 51 198
3 197 52 192
3 198 14 197
3 200 199 194
3 194 53 200
3 199 51 194
3 200 15 199
3 203 201 202
3 202 45 203
3 201 52 202
3 203 54 201
3 197 175 202
3 202 52 197
3 175 45 202
3 197 14 175
3 204 196 201
3 201 54 204
3 196 52 201
3 204 16 196
3 176 205 203
3 203 45 176
3 205 54 203
3 176 4 205
3 208 206 207
3 207 55 208
3 206 51 207
3 208 50 206
3 199 209 207
3 207 51 199
3 209 55 207
3 199 15 209
3 188 198 206
3 206 50 188
3 198 51 206
3 188 14 198
3 210 191 208
3 208 55 210
3 191 50 208
3 210 7 191
3 213 211 212
3 212 57 213
3 211 53 212
3 213 56 211
3 195 214 212
3 212 53 195
3 214 57 212
3 195 16 214
3 215 200 211
3 211 56 215
3 200 53 211
3 215 15 200
3 217 216 213
3 213 57 217
3 216 56 213
3 217 9 216
3 220 218 219
3 219 60 220
3 218 59 219
3 220 58 218
3 222 221 219
3 219 59 222
3 221 60 219
3 222 19 221
3 224 223 218
3 218 58 224
3 223 59 218
3 224 18 223
3 226 225 220
3 220 60 226
3 225 58 220
3 226 17 225
3 229 227 228
3 228 62 229
3 227 59 228
3 229 61 227
3 223 230 228
3 228 59 223
3 230 62 228
3 223 18 230
3 231 222 227
3 227 61 231
3 222 59 227
3 231 19 222
3 233 232 229
3 229 62 233
3 232 61 229
3 233 5 232
3 236 234 235
3 235 64 236
3 234 58 235
3 236 63 234
3 225 237 235
3 235 58 225
3 237 64 235
3 225 17 237
3 238 224 234
3 234 63 238
3 224 58 234
3 238 18 224
3 240 239 236
3 236 64 240
3 239 63 236
3 240 6 239
3 243 241 242
3 242 66 243
3 241 60 242
3 243 65 241
3 221 244 242
3 242 60 221
3 244 66 242
3 221 19 244
3 245 226 241
3 241 65 245
3 226 60 241
3 245 17 226
3 247 246 243
3 243 66 247
3 246 65 243
3 247 11 246
3 250 248 249
3 249 69 250
3 248 68 249
3 250 67 248
3 252 251 249
3 249 68 252
3 251 69 249
3 252 18 251
3 254 253 248
3 248 67 254
3 253 68 248
3 254 21 253
3 256 255 250
3 250 69 256
3 255 67 250
3 256 20 255
3 259 257 258
3 258 70 259
3 257 68 258
3 259 62 257
3 253 260 258
3 258 68 253
3 260 70 258
3 253 21 260
3 230 252 257
3 257 62 230
3 252 68 257
3 230 18 252
3 261 233 259
3 259 70 261
3 233 62 259
3 261 5 233
3 264 262 263
3 263 72 264
3 262 67 263
3 264 71 262
3 255 265 263
3 263 67 255
3 265 72 263
3 255 20 265
3 266 254 262
3 262 71 266
3 254 67 262
3 266 21 254
3 268 267 264
3 264 72 268
3 267 71 264
3 268 10 267
3 271 269 270
3 270 63 271
3 269 69 270
3 271 73 269
3 251 238 270
3 270 69 251
3 238 63 270
3 251 18 238
3 272 256 269
3 269 73 272
3 256 69 269
3 272 20 256
3 239 273 271
3 271 63 239
3 273 73 271
3 239 6 273
3 276 274 275
3 275 76 276
3 274 75 275
3 276 74 274
3 278 277 275
3 275 75 278
3 277 76 275
3 278 24 277
3 280 279 274
3 274 74 280
3 279 75 274
3 280 23 279
3 282 281 276
3 276 76 282
3 281 74 276
3 282 22 281
3 285 283 284
3 284 78 285
3 283 75 284
3 285 77 283
3 279 286 284
3 284 75 279
3 286 78 284
3 279 23 286
3 287 278 283
3 283 77 287
3 278 75 283
3 287 24 278
3 289 288 285
3 285 78 289
3 288 77 285
3 289 0 288
3 292 290 291
3 291 80 292
3 290 74 291
3 292 79 290
3 281 293 291
3 291 74 281
3 293 80 291
3 281 22 293
3 294 280 290
3 290 79 294
3 280 74 290
3 294 23 280
3 296 295 292
3 292 80 296
3 295 79 292
3 296 4 295
3 299 297 298
3 298 82 299
3 297 76 298
3 299 81 297
3 277 300 298
3 298 76 277
3 300 82 298
3 277 24 300
3 301 282 297
3 297 81 301
3 282 76 297
3 301 22 282
3 303 302 299
3 299 82 303
3 302 81 299
3 303 3 302
3 306 304 305
3 305 85 306
3 304 84 305
3 306 83 304
3 308 307 305
3 305 84 308
3 307 85 305
3 308 26 307
3 310 309 304
3 304 83 310
3 309 84 304
3 310 24 309
3 312 311 306
3 306 85 312
3 311 83 306
3 312 25 311
3 315 313 314
3 314 77 315
3 313 84 314
3 315 86 313
3 309 287 314
3 314 84 309
3 287 77 314
3 309 24 287
3 316 308 313
3 313 86 316
3 308 84 313
3 316 26 308
3 288 317 315
3 315 77 288
3 317 86 315
3 288 0 317
3 320 318 319
3 319 87 320
3 318 83 319
3 320 82 318
3 311 321 319
3 319 83 311
3 321 87 319
3 311 25 321
3 300 310 318
3 318 82 300
3 310 83 318
3 300 24 310
3 322 303 320
3 320 87 322
3 303 82 320
3 322 3 303
3 325 323 324
3 324 89 325
3 323 85 324
3 325 88 323
3 307 326 324
3 324 85 307
3 326 89 324
3 307 26 326
3 327 312 323
3 323 88 327
3 312 85 323
3 327 25 312
3 329 328 325
3 325 89 329
3 328 88 325
3 329 5 328
3 332 330 331
3 331 92 332
3 330 91 331
3 332 90 330
3 334 333 331
3 331 91 334
3 333 92 331
3 334 29 333
3 336 335 330
3 330 90 336
3 335 91 330
3 336 28 335
3 338 337 332
3 332 92 338
3 337 90 332
3 338 27 337
3 341 339 340
3 340 94 341
3 339 91 340
3 341 93 339
3 335 342 340
3 340 91 335
3 342 94 340
3 335 28 342
3 343 334 339
3 339 93 343
3 334 91 339
3 343 29 334
3 345 344 341
3 341 94 345
3 344 93 341
3 345 2 344
3 348 346 347
3 347 96 348
3 346 90 347
3 348 95 346
3 337 349 347
3 347 90 337
3 349 96 347
3 337 27 349
3 350 336 346
3 346 95 350
3 336 90 346
3 350 28 336
3 352 351 348
3 348 96 352
3 351 95 348
3 352 7 351
3 355 353 354
3 354 98 355
3 353 92 354
3 355 97 353
3 333 356 354
3 354 92 333
3 356 98 354
3 333 29 356
3 357 338 353
3 353 97 357
3 338 92 353
3 357 27 338
3 359 358 355
3 355 98 359
3 358 97 355
3 359 1 358
3 362 360 361
3 361 101 362
3 360 100 361
3 362 99 360
3 364 363 361
3 361 100 364
3 363 101 361
3 364 31 363
3 366 365 360
3 360 99 366
3 365 100 360
3 366 29 365
3 368 367 362
3 362 101 368
3 367 99 362
3 368 30 367
3 371 369 370
3 370 93 371
3 369 100 370
3 371 102 369
3 365 343 370
3 370 100 365
3 343 93 370
3 365 29 343
3 372 364 369
3 369 102 372
3 364 100 369
3 372 31 364
3 344 373 371
3 371 93 344
3 373 102 371
3 344 2 373
3 376 374 375
3 375 103 376
3 374 99 375
3 376 98 374
3 367 377 375
3 375 99 367
3 377 103 375
3 367 30 377
3 356 366 374
3 374 98 356
3 366 99 374
3 356 29 366
3 378 359 376
3 376 103 378
3 359 98 376
3 378 1 359
3 381 379 380
3 380 105 381
3 379 101 380
3 381 104 379
3 363 382 380
3 380 101 363
3 382 105 380
3 363 31 382
3 383 368 379
3 379 104 383
3 368 101 379
3 383 30 368
3 385 384 381
3 381 105 385
3 384 104 381
3 385 6 384
3 388 386 387
3 387 108 388
3 386 107 387
3 388 106 386
3 390 389 387
3 387 107 390
3 389 108 387
3 390 34 389
3 392 391 386
3 386 106 392
3 391 107 386
3 392 33 391
3 394 393 388
3 388 108 394
3 393 106 388
3 394 32 393
3 397 395 396
3 396 110 397
3 395 107 396
3 397 109 395
3 391 398 396
3 396 107 391
3 398 110 396
3 391 33 398
3 399 390 395
3 395 109 399
3 390 107 395
3 399 34 390
3 401 400 397
3 397 110 401
3 400 109 397
3 401 8 400
3 404 402 403
3 403 112 404
3 402 106 403
3 404 111 402
3 393 405 403
3 403 106 393
3 405 112 403
3 393 32 405
3 406 392 402
3 402 111 406
3 392 106 402
3 406 33 392
3 408 407 404
3 404 112 408
3 407 111 404
3 408 0 407
3 411 409 410
3 410 114 411
3 409 108 410
3 411 113 409
3 389 412 410
3 410 108 389
3 412 114 410
3 389 34 412
3 413 394 409
3 409 113 413
3 394 108 409
3 413 32 394
3 415 414 411
3 411 114 415
3 414 113 411
3 415 11 414
3 418 416 417
3 417 117 418
3 416 116 417
3 418 115 416
3 420 419 417
3 417 116 420
3 419 117 417
3 420 36 419
3 422 421 416
3 416 115 422
3 421 116 416
3 422 34 421
3 424 423 418
3 418 117 424
3 423 115 418
3 424 35 423
3 427 425 426
3 426 109 427
3 425 116 426
3 427 118 425
3 421 399 426
3 426 116 421
3 399 109 426
3 421 34 399
3 428 420 425
3 425 118 428
3 420 116 425
3 428 36 420
3 400 429 427
3 427 109 400
3 429 118 427
3 400 8 429
3 432 430 431
3 431 119 432
3 430 115 431
3 432 114 430
3 423 433 431
3 431 115 423
3 433 119 431
3 423 35 433
3 412 422 430
3 430 114 412
3 422 115 430
3 412 34 422
3 434 415 432
3 432 119 434
3 415 114 432
3 434 11 415
3 437 435 436
3 436 121 437
3 435 117 436
3 437 120 435
3 419 438 436
3 436 117 419
3 438 121 436
3 419 36 438
3 439 424 435
3 435 120 439
3 424 117 435
3 439 35 424
3 441 440 437
3 437 121 441
3 440 120 437
3 441 1 440
3 444 442 443
3 443 124 444
3 442 123 443
3 444 122 442
3 446 445 443
3 443 123 446
3 445 124 443
3 446 39 445
3 448 447 442
3 442 122 448
3 447 123 442
3 448 38 447
3 450 449 444
3 444 124 450
3 449 122 444
3 450 37 449
3 453 451 452
3 452 126 453
3 451 123 452
3 453 125 451
3 447 454 452
3 452 123 447
3 454 126 452
3 447 38 454
3 455 446 451
3 451 125 455
3 446 123 451
3 455 39 446
3 457 456 453
3 453 126 457
3 456 125 453
3 457 9 456
3 460 458 459
3 459 128 460
3 458 122 459
3 460 127 458
3 449 461 459
3 459 122 449
3 461 128 459
3 449 37 461
3 462 448 458
3 458 127 462
3 448 122 458
3 462 38 448
3 464 463 460
3 460 128 464
3 463 127 460
3 464 10 463
3 467 465 466
3 466 130 467
3 465 124 466
3 467 129 465
3 445 468 466
3 466 124 445
3 468 130 466
3 445 39 468
3 469 450 465
3 465 129 469
3 450 124 465
3 469 37 450
3 471 470 467
3 467 130 471
3 470 129 467
3 471 3 470
3 474 472 473
3 473 133 474
3 472 132 473
3 474 131 472
3 476 475 473
3 473 132 476
3 475 133 473
3 476 38 475
3 478 477 472
3 472 131 478
3 477 132 472
3 478 41 477
3 480 479 474
3 474 133 480
3 479 131 474
3 480 40 479
3 483 481 482
3 482 134 483
3 481 132 482
3 483 126 481
3 477 484 482
3 482 132 477
3 484 134 482
3 477 41 484
3 454 476 481
3 481 126 454
3 476 132 481
3 454 38 476
3 485 457 483
3 483 134 485
3 457 126 483
3 485 9 457
3 488 486 487
3 487 136 488
3 486 131 487
3 488 135 486
3 479 489 487
3 487 131 479
3 489 136 487
3 479 40 489
3 490 478 486
3 486 135 490
3 478 131 486
3 490 41 478
3 492 491 488
3 488 136 492
3 491 135 488
3 492 2 491
3 495 493 494
3 494 127 495
3 493 133 494
3 495 137 493
3 475 462 494
3 494 133 475
3 462 127 494
3 475 38 462
3 496 480 493
3 493 137 496
3 480 133 493
3 496 40 480
3 463 497 495
3 495 127 463
3 497 137 495
3 463 10 497
3 500 498 499
3 499 140 500
3 498 139 499
3 500 138 498
3 502 501 499
3 499 139 502
3 501 140 499
3 502 33 501
3 504 503 498
3 498 138 504
3 503 139 498
3 504 13 503
3 506 505 500
3 500 140 506
3 505 138 500
3 506 23 505
3 509 507 508
3 508 47 509
3 507 139 508
3 509 110 507
3 503 182 508
3 508 139 503
3 182 47 508
3 503 13 182
3 398 502 507
3 507 110 398
3 502 139 507
3 398 33 502
3 183 401 509
3 509 47 183
3 401 110 509
3 183 8 401
3 512 510 511
3 511 79 512
3 510 138 511
3 512 46 510
3 505 294 511
3 511 138 505
3 294 79 511
3 505 23 294
3 174 504 510
3 510 46 174
3 504 138 510
3 174 13 504
3 295 177 512
3 512 79 295
3 177 46 512
3 295 4 177
3 515 513 514
3 514 111 515
3 513 140 514
3 515 78 513
3 501 406 514
3 514 140 501
3 406 111 514
3 501 33 406
3 286 506 513
3 513 78 286
3 506 140 513
3 286 23 506
3 407 289 515
3 515 111 407
3 289 78 515
3 407 0 289
3 518 516 517
3 517 143 518
3 516 142 517
3 518 141 516
3 520 519 517
3 517 142 520
3 519 143 517
3 520 19 519
3 522 521 516
3 516 141 522
3 521 142 516
3 522 32 521
3 524 523 518
3 518 143 524
3 523 141 518
3 524 26 523
3 527 525 526
3 526 113 527
3 525 142 526
3 527 66 525
3 521 413 526
3 526 142 521
3 413 113 526
3 521 32 413
3 244 520 525
3 525 66 244
3 520 142 525
3 244 19 520
3 414 247 527
3 527 113 414
3 247 66 527
3 414 11 247
3 530 528 529
3 529 86 530
3 528 141 529
3 530 112 528
3 523 316 529
3 529 141 523
3 316 86 529
3 523 26 316
3 405 522 528
3 528 112 405
3 522 141 528
3 405 32 522
3 317 408 530
3 530 86 317
3 408 112 530
3 317 0 408
3 533 531 532
3 532 61 533
3 531 143 532
3 533 89 531
3 519 231 532
3 532 143 519
3 231 61 532
3 519 19 231
3 326 524 531
3 531 89 326
3 524 143 531
3 326 26 524
3 232 329 533
3 533 61 232
3 329 89 533
3 232 5 329
3 536 534 535
3 535 146 536
3 534 145 535
3 536 144 534
3 538 537 535
3 535 145 538
3 537 146 535
3 538 22 537
3 540 539 534
3 534 144 540
3 539 145 534
3 540 16 539
3 542 541 536
3 536 146 542
3 541 144 536
3 542 39 541
3 545 543 544
3 544 54 545
3 543 145 544
3 545 80 543
3 539 204 544
3 544 145 539
3 204 54 544
3 539 16 204
3 293 538 543
3 543 80 293
3 538 145 543
3 293 22 538
3 205 296 545
3 545 54 205
3 296 80 545
3 205 4 296
3 548 546 547
3 547 125 548
3 546 144 547
3 548 57 546
3 541 455 547
3 547 144 541
3 455 125 547
3 541 39 455
3 214 540 546
3 546 57 214
3 540 144 546
3 214 16 540
3 456 217 548
3 548 125 456
3 217 57 548
3 456 9 217
3 551 549 550
3 550 81 551
3 549 146 550
3 551 130 549
3 537 301 550
3 550 146 537
3 301 81 550
3 537 22 301
3 468 542 549
3 549 130 468
3 542 146 549
3 468 39 542
3 302 471 551
3 551 81 302
3 471 130 551
3 302 3 471
3 554 552 553
3 553 149 554
3 552 148 553
3 554 147 552
3 556 555 553
3 553 148 556
3 555 149 553
3 556 21 555
3 558 557 552
3 552 147 558
3 557 148 552
3 558 25 557
3 560 559 554
3 554 149 560
3 559 147 554
3 560 37 559
3 563 561 562
3 562 88 563
3 561 148 562
3 563 70 561
3 557 327 562
3 562 148 557
3 327 88 562
3 557 25 327
3 260 556 561
3 561 70 260
3 556 148 561
3 260 21 556
3 328 261 563
3 563 88 328
3 261 70 563
3 328 5 261
3 566 564 565
3 565 129 566
3 564 147 565
3 566 87 564
3 559 469 565
3 565 147 559
3 469 129 565
3 559 37 469
3 321 558 564
3 564 87 321
3 558 147 564
3 321 25 558
3 470 322 566
3 566 129 470
3 322 87 566
3 470 3 322
3 569 567 568
3 568 71 569
3 567 149 568
3 569 128 567
3 555 266 568
3 568 149 555
3 266 71 568
3 555 21 266
3 461 560 567
3 567 128 461
3 560 149 567
3 461 37 560
3 267 464 569
3 569 71 267
3 464 128 569
3 267 10 464
3 572 570 571
3 571 152 572
3 570 151 571
3 572 150 570
3 574 573 571
3 571 151 574
3 573 152 571
3 574 27 573
3 576 575 570
3 570 150 576
3 575 151 570
3 576 12 575
3 578 577 572
3 572 152 578
3 577 150 572
3 578 36 577
3 581 579 580
3 580 49 581
3 579 151 580
3 581 96 579
3 575 189 580
3 580 151 575
3 189 49 580
3 575 12 189
3 349 574 579
3 579 96 349
3 574 151 579
3 349 27 574
3 190 352 581
3 581 49 190
3 352 96 581
3 190 7 352
3 584 582 583
3 583 118 584
3 582 150 583
3 584 48 582
3 577 428 583
3 583 150 577
3 428 118 583
3 577 36 428
3 181 576 582
3 582 48 181
3 576 150 582
3 181 12 576
3 429 184 584
3 584 118 429
3 184 48 584
3 429 8 184
3 587 585 586
3 586 97 587
3 585 152 586
3 587 121 585
3 573 357 586
3 586 152 573
3 357 97 586
3 573 27 357
3 438 578 585
3 585 121 438
3 578 152 585
3 438 36 578
3 358 441 587
3 587 97 358
3 441 121 587
3 358 1 441
3 590 588 589
3 589 155 590
3 588 154 589
3 590 153 588
3 592 591 589
3 589 154 592
3 591 155 589
3 592 17 591
3 594 593 588
3 588 153 594
3 593 154 588
3 594 30 593
3 596 595 590
3 590 155 596
3 595 153 590
3 596 35 595
3 599 597 598
3 598 104 599
3 597 154 598
3 599 64 597
3 593 383 598
3 598 154 593
3 383 104 598
3 593 30 383
3 237 592 597
3 597 64 237
3 592 154 597
3 237 17 592
3 384 240 599
3 599 104 384
3 240 64 599
3 384 6 240
3 602 600 601
3 601 120 602
3 600 153 601
3 602 103 600
3 595 439 601
3 601 153 595
3 439 120 601
3 595 35 439
3 377 594 600
3 600 103 377
3 594 153 600
3 377 30 594
3 440 378 602
3 602 120 440
3 378 103 602
3 440 1 378
3 605 603 604
3 604 65 605
3 603 155 604
3 605 119 603
3 591 245 604
3 604 155 591
3 245 65 604
3 591 17 245
3 433 596 603
3 603 119 433
3 596 155 603
3 433 35 596
3 246 434 605
3 605 65 246
3 434 119 605
3 246 11 434
3 608 606 607
3 607 158 608
3 606 157 607
3 608 156 606
3 610 609 607
3 607 157 610
3 609 158 607
3 610 15 609
3 612 611 606
3 606 156 612
3 611 157 606
3 612 28 611
3 614 613 608
3 608 158 614
3 613 156 608
3 614 41 613
3 617 615 616
3 616 95 617
3 615 157 616
3 617 55 615
3 611 350 616
3 616 157 611
3 350 95 616
3 611 28 350
3 209 610 615
3 615 55 209
3 610 157 615
3 209 15 610
3 351 210 617
3 617 95 351
3 210 55 617
3 351 7 210
3 620 618 619
3 619 135 620
3 618 156 619
3 620 94 618
3 613 490 619
3 619 156 613
3 490 135 619
3 613 41 490
3 342 612 618
3 618 94 342
3 612 156 618
3 342 28 612
3 491 345 620
3 620 135 491
3 345 94 620
3 491 2 345
3 623 621 622
3 622 56 623
3 621 158 622
3 623 134 621
3 609 215 622
3 622 158 609
3 215 56 622
3 609 15 215
3 484 614 621
3 621 134 484
3 614 158 621
3 484 41 614
3 216 485 623
3 623 56 216
3 485 134 623
3 216 9 485
3 626 624 625
3 625 161 626
3 624 160 625
3 626 159 624
3 628 627 625
3 625 160 628
3 627 161 625
3 628 31 627
3 630 629 624
3 624 159 630
3 629 160 624
3 630 20 629
3 632 631 626
3 626 161 632
3 631 159 626
3 632 40 631
3 635 633 634
3 634 73 635
3 633 160 634
3 635 105 633
3 629 272 634
3 634 160 629
3 272 73 634
3 629 20 272
3 382 628 633
3 633 105 382
3 628 160 633
3 382 31 628
3 273 385 635
3 635 73 273
3 385 105 635
3 273 6 385
3 638 636 637
3 637 137 638
3 636 159 637
3 638 72 636
3 631 496 637
3 637 159 631
3 496 137 637
3 631 40 496
3 265 630 636
3 636 72 265
3 630 159 636
3 265 20 630
3 497 268 638
3 638 137 497
3 268 72 638
3 497 10 268
3 641 639 640
3 640 102 641
3 639 161 640
3 641 136 639
3 627 372 640
3 640 161 627
3 372 102 640
3 627 31 372
3 489 632 639
3 639 136 489
3 632 161 639
3 489 40 632
3 373 492 641
3 641 102 373
3 492 136 641
3 373 2 492
