# vtk DataFile Version 3.0
this file was written using fslvtkio
ASCII
DATASET POLYDATA
POINTS 970 float
102.566 126.657 107.121
102.399 125.945 107.763
102.732 125.651 108.259
103.031 125.935 108.186
103.223 127.03 107.082
103.48 125.96 108.151
103.528 126.613 107.678
103.852 125.651 108.24
102.052 127.472 107.069
101.64 127.134 107.414
102.656 128.003 106.946
103.48 127.767 107.196
103.87 126.76 108.013
102.007 128.019 107.636
102.815 128.517 107.48
103.386 127.653 107.783
101.319 120.546 104.401
100.285 120.204 104.72
100.999 119.504 104.616
101.811 119.524 104.747
102.151 120.701 104.488
102.138 119.938 105.242
102.467 120.803 105.076
102.122 119.864 105.822
100.694 121.071 104.598
99.6848 120.644 105.14
101.707 121.72 104.256
102.633 121.552 104.236
102.381 120.552 105.819
102.755 121.218 105.228
102.624 120.938 106.015
99.9377 121.502 104.582
99.3405 121.216 105.165
101.08 122.157 104.17
102.244 122.276 104.072
102.998 122.018 104.836
103.07 121.66 105.69
99.4387 121.622 105.246
100.509 122.101 104.752
99.8776 122.151 105.112
101.727 122.921 104.426
103.2 123.281 104.374
103.731 122.658 105.312
100.515 122.617 105.099
101.492 123.128 105.508
102.769 123.345 105.951
102.695 123.772 107.307
103.875 123.449 105.91
103.554 123.966 106.17
103.871 123.647 106.58
103.733 124.352 107.508
103.488 123.949 107.693
103.323 124.842 108.415
102.611 124.305 108.541
103.522 124.791 107.777
103.956 124.993 107.832
103.869 124.583 108.556
102.531 125.129 108.537
101.342 125.124 108.409
101.957 124.07 108.861
103.947 125.716 108.636
101.148 126.472 107.757
100.664 126.303 108.307
103.536 127.049 108.523
101.157 127.317 107.908
101.321 128.036 108.37
102.103 128.643 108.185
103.106 128.27 108.094
99.9854 117.94 104.535
99.2354 118.14 104.82
99.7 117.238 104.814
100.612 117.197 104.768
100.587 118.559 104.668
100.704 118.063 105.474
99.719 119.096 104.815
98.6912 118.794 105.277
101.067 118.845 105.386
101.648 119.166 105.672
101.941 119.205 106.343
99.248 119.706 105.319
98.5004 119.747 105.845
102.284 120.042 106.313
102.624 120.831 106.647
98.646 120.732 105.517
97.9307 120.856 106.364
103.053 121.467 106.587
103.483 122.016 106.244
103.16 121.711 107.003
98.5862 121.435 105.8
99.3071 122.172 105.513
98.5369 122.066 106.014
103.439 122.74 106.377
102.92 122.475 107.387
99.4743 122.456 105.99
100.475 122.683 106.508
99.576 122.726 106.897
101.329 122.933 106.38
103.45 123.12 107.063
103.453 123.515 108.25
101.042 123.251 108.316
99.7567 122.599 107.676
101.684 123.476 107.779
103.868 124.304 109.009
100.219 123.184 108.463
100.911 124.34 108.768
103.588 125.37 109.154
100.27 125.642 108.646
103.673 126.461 108.926
100.521 126.84 108.614
101.143 127.387 108.981
101.092 126.758 109.401
101.719 128.113 108.967
102.595 128.337 108.826
103.255 127.366 108.908
101.585 127.453 109.472
102.211 128.073 109.439
102.907 127.698 109.452
99.0239 117.56 105.447
99.5817 116.449 105.269
100.248 116.508 105.223
100.574 117.287 105.886
100.81 118.119 105.995
100.546 117.821 106.809
98.947 118.585 106.091
101.178 118.512 106.416
101.63 118.836 107.088
98.1955 119.414 106.479
102.041 119.894 106.978
102.17 120.397 107.482
97.9046 120.128 106.947
102.642 121.191 107.381
102.758 121.749 107.858
98.0733 121.607 106.644
97.7293 120.897 107.291
102.589 122.406 108.409
97.8244 121.871 107.361
98.0107 121.535 108.168
98.4947 122.319 106.698
103.053 122.845 108.138
103.023 123.58 108.983
98.1008 122.267 107.876
98.6946 122.511 107.522
98.6736 122.42 108.1
103.117 124.264 109.466
99.1139 122.75 108.527
100.368 123.612 108.937
99.8889 123.753 109.154
103.412 125.189 109.286
103.737 125.975 109.3
103.666 125.441 109.641
100.156 124.792 108.915
99.9574 124.728 109.329
103.59 126.696 109.287
103.699 126.193 109.768
100.29 125.676 109.142
100.74 126.123 109.394
100.979 126.302 109.847
103.325 127.172 109.503
103.201 126.655 109.905
101.398 126.762 109.984
101.918 127.289 110.009
102.558 127.655 110.032
102.933 127.221 110.026
100.026 115.853 105.569
99.5333 116.532 105.77
99.8027 115.522 106.023
100.439 115.656 106.193
100.588 116.425 105.963
100.395 116.494 106.78
100.533 117.117 106.55
100.356 117.094 107.341
99.146 117.423 106.203
100.674 117.632 107.777
98.6688 118.371 106.717
101.097 118.125 107.378
101.568 118.606 107.926
98.3321 119.109 107.302
101.763 119.504 107.644
102.003 120.088 108.235
97.9871 119.844 107.831
102.358 120.992 108.147
102.394 121.588 108.746
98.1503 120.52 108.248
102.402 122.207 109.379
98.3971 120.995 108.783
102.646 122.797 109.193
102.649 123.829 109.952
98.3718 122.267 108.539
98.7202 121.634 109.121
103.101 124.544 109.878
103.512 124.955 109.509
103.429 124.945 109.979
98.8211 122.393 109.052
99.2715 123.176 109.107
99.4488 123.028 109.587
103.593 125.51 110.16
99.8155 123.86 109.494
99.6723 124.025 110.079
103.42 126.138 110.34
99.9711 124.727 109.874
100.644 125.481 109.771
100.794 125.892 109.898
100.842 125.493 110.286
103.021 126.63 110.495
101.182 125.837 110.298
101.529 126.082 110.458
101.759 126.676 110.52
102.152 127.075 110.649
102.631 126.999 110.737
99.4089 116.322 106.38
99.9226 115.302 106.732
100.528 115.185 106.689
100.29 116.175 107.412
100.344 116.695 108.227
99.0039 117.265 106.915
100.743 117.176 108.744
98.6619 118.01 107.49
101.132 117.905 108.306
101.475 118.222 108.747
98.0876 118.605 108.076
101.595 119.258 108.436
101.812 119.684 109.197
98.23 119.454 108.596
101.982 120.709 108.98
102.133 121.175 109.53
98.1685 120.052 109.162
102.16 121.82 110.134
98.5442 120.629 109.537
102.7 122.746 110.003
102.677 123.27 110.61
98.7722 121.308 109.952
102.922 124.221 110.251
103.316 124.67 110.492
99.1307 122.129 109.754
99.2697 123.027 110.188
103.462 125.442 110.573
99.6383 123.494 110.57
103.302 125.91 110.855
100.014 124.153 110.572
100.492 124.875 110.331
100.844 124.822 110.774
102.924 126.339 111.04
101.219 125.342 110.857
101.562 125.599 110.942
101.74 126.004 110.972
102.131 126.446 111.085
102.521 126.565 111.126
100.323 114.781 107.189
99.5659 115.407 107.175
100.113 114.641 107.902
100.795 114.46 108.025
100.73 115.186 107.611
100.704 115.121 108.462
100.298 115.877 108.186
100.32 115.808 108.944
99.4026 116.364 107.264
100.699 116.309 109.111
98.9298 117.09 107.763
100.887 116.798 109.333
98.708 117.612 108.277
101.06 117.447 109.368
101.353 117.995 109.465
98.3801 118.187 108.813
101.383 118.916 109.28
101.702 119.205 109.913
98.2836 118.9 109.346
101.85 120.233 109.76
102.002 120.875 110.23
98.5035 119.57 109.826
102.249 121.486 110.691
98.6155 120.179 110.232
102.348 122.357 110.747
102.431 122.328 111.18
98.9426 120.957 110.566
102.62 123.873 110.761
102.722 123.22 111.43
99.1387 121.908 110.387
99.1977 122.638 110.673
102.886 124.085 111.055
103.088 124.812 111.148
99.7803 122.852 111.039
103.057 125.417 111.453
100.055 123.572 111.186
100.529 124.228 110.89
100.667 124.305 111.237
102.653 125.594 111.445
101.151 124.805 111.361
101.343 125.145 111.628
101.486 125.422 111.801
101.909 125.601 111.574
102.357 125.611 111.415
99.6645 115.391 108.056
100.131 114.268 108.656
100.617 114.014 108.512
100.809 114.59 109.306
100.495 115.235 109.718
99.2202 116.248 108.218
100.592 115.679 109.903
100.902 116.111 109.823
100.96 115.406 110.32
98.9862 116.57 108.691
101.057 116.69 109.712
101.351 116.379 110.223
98.6466 117.144 109.128
101.605 117.362 109.932
101.632 118.327 109.79
101.483 117.955 110.433
98.3974 117.777 109.62
101.688 118.751 110.618
98.2475 118.366 110.127
101.821 119.848 110.571
101.977 120.882 111.002
98.4863 118.988 110.584
102.117 121.142 111.212
102.186 121.775 111.181
101.928 121.201 111.759
98.8861 119.652 110.836
102.41 121.928 111.921
98.9977 120.477 111.241
102.499 122.765 112.18
99.36 121.348 111.014
99.2526 121.948 111.29
102.823 123.923 111.616
102.895 124.414 111.757
99.5115 122.421 111.696
102.628 124.911 111.847
100.071 123.072 111.61
100.311 123.706 111.634
100.528 123.929 111.776
102.309 125.252 111.757
100.813 124.278 111.765
101.164 124.493 111.909
101.251 124.857 112.257
101.676 125.116 112.294
102.151 125.077 111.964
100.618 113.208 108.901
100.214 112.703 109.481
100.649 111.943 109.1
100.976 112.132 109.602
100.93 113.073 109.175
100.936 112.995 110.062
99.7051 114.849 108.976
100.073 113.769 109.59
100.768 114.126 110.275
100.637 114.85 110.298
100.974 114.247 110.966
99.0972 115.438 109.063
99.5895 114.473 109.861
101.127 115.271 111.064
98.9708 116.13 109.572
101.386 115.978 111.063
98.5581 116.737 109.997
101.506 116.771 110.864
101.429 117.688 111.22
98.47 117.376 110.494
101.493 118.455 111.44
101.503 119.11 110.956
101.614 119.279 111.315
98.5464 117.975 110.887
101.782 120.155 111.223
101.842 120.632 111.598
101.687 120.155 112.295
98.8423 118.623 111.286
101.825 120.91 112.576
99.0836 119.342 111.442
102.434 121.395 112.782
99.2413 120.053 111.703
102.46 121.95 112.931
99.3846 120.834 111.711
99.5304 121.693 111.83
102.765 123.441 112.134
102.454 122.814 112.838
99.5357 121.977 112.319
99.76 122.559 111.983
99.7889 122.334 112.229
102.665 123.961 112.331
102.328 123.377 112.836
100.262 122.901 111.978
100.637 124.073 112.254
100.283 123.526 112.375
100.879 124.361 112.645
100.605 123.772 112.852
101.527 124.55 112.898
101.102 124.141 113.371
102.178 124.32 112.566
101.866 123.632 113.04
102.451 124.813 112.145
100.908 111.255 109.363
100.546 111.949 109.839
100.65 110.829 109.766
101.147 110.753 109.845
101.13 111.212 109.544
101.263 111.498 110.001
100.225 112.801 110.244
101.381 112.132 111.003
100.728 113.292 110.856
101.017 112.931 111.501
99.7598 113.49 110.613
101.296 113.953 111.539
99.0501 115.099 109.966
99.2738 114.222 110.783
101.389 114.493 111.931
101.357 115.59 111.557
101.523 115.017 112.146
99.0089 115.835 110.375
101.466 116.141 111.193
101.546 116.102 111.58
98.6566 116.425 110.836
101.827 116.842 111.799
101.446 117.724 111.661
101.758 117.576 112.002
98.5635 116.968 111.32
101.872 118.554 111.888
101.657 119.462 111.902
101.706 118.923 112.545
98.8766 117.72 111.648
102.042 119.732 112.901
98.9633 118.463 112.02
102.084 120.506 113.154
99.0346 119.375 112.104
102.104 120.638 113.443
102.117 121.054 113.406
102.309 120.076 113.864
99.1729 119.87 112.119
99.0661 120.329 112.026
99.1231 120.258 112.346
102.419 121.662 113.475
102.117 120.594 114.019
99.3812 121.536 112.242
99.6302 120.98 112.161
99.6395 121.116 112.588
102.481 122.29 113.447
102.106 121.318 113.984
99.984 122.511 112.4
99.7833 121.815 112.658
99.7371 122.207 112.912
102.153 122.275 113.909
102.117 122.826 113.339
100.361 122.76 112.657
100.571 123.052 112.892
100.633 123.489 113.606
101.517 123.334 113.757
100.904 110.068 110.117
100.709 111.08 110.553
100.562 109.886 110.835
101.199 109.371 110.463
101.332 110.464 110.352
101.502 109.806 110.739
101.47 110.551 111.071
101.519 110.033 111.32
100.701 111.999 110.813
101.321 111.145 110.776
101.789 110.923 111.411
99.8801 112.729 111.22
101.537 111.908 112.004
101.377 113.153 112.032
101.536 112.556 112.466
99.4816 113.311 111.722
101.287 113.849 112.028
101.572 113.602 112.466
99.1186 114.947 110.933
99.1567 114.15 111.619
101.776 114.085 112.929
101.628 115.351 112.448
101.885 114.906 112.899
98.927 115.602 111.188
101.612 116.164 112.019
101.684 116.038 112.432
98.7296 116.083 111.711
101.924 116.836 112.705
102.174 117.766 112.2
102.167 117.646 112.903
98.865 116.727 112.083
101.941 118.586 113.205
98.9485 117.504 112.403
102.161 119.113 113.421
102.31 119.556 113.527
102.202 118.371 114.063
99.084 118.251 112.577
99.0557 118.839 112.627
99.0716 118.104 113.313
102.285 119.972 113.59
102.372 119.05 114.183
99.1436 119.511 112.431
99.1599 119.006 113.148
102.019 119.651 114.458
99.0807 119.837 113.032
102.068 120.467 114.574
99.5049 120.382 112.985
99.7882 120.8 112.924
101.934 121.616 114.371
99.67 121.292 112.983
99.9264 122.426 113.142
99.7122 121.562 113.539
99.7216 122.135 113.71
101.707 122.271 114.17
101.528 122.421 113.809
100.286 122.636 113.365
100.448 122.776 113.617
100.919 122.852 113.919
100.666 110.825 111.437
100.815 109.478 111.399
101.167 108.678 110.777
101.8 108.995 110.99
101.823 109.701 111.776
100.38 111.675 111.817
101.918 110.179 112.465
101.568 111.05 112.081
101.865 111.113 112.418
99.8318 112.283 112.134
101.719 111.82 112.886
101.811 112.558 113.046
102.013 111.79 113.603
99.4849 112.851 112.46
101.728 113.303 113.091
102.119 112.703 113.621
99.1652 114.61 111.948
99.1184 113.7 112.541
101.961 114.028 113.524
101.926 115.172 113.315
102.052 114.473 113.969
98.9338 115.186 112.103
99.1186 114.428 112.737
101.837 116.088 112.867
102.052 115.826 113.633
98.8066 115.819 112.618
102.036 116.866 113.521
102.286 117.707 113.484
102.048 116.904 114.102
98.8733 116.635 112.884
102.278 118.12 113.756
102.34 117.301 114.31
99.0254 117.328 113.024
99.1342 117.773 113.02
99.1296 117.185 113.753
102.155 118 114.732
99.3268 118.047 113.876
102.076 118.68 115.014
99.3063 118.896 113.623
99.1457 119.542 113.428
99.2629 119.375 113.924
101.965 119.504 115.031
99.1676 120.023 113.262
99.3551 119.956 113.565
101.677 120.744 114.668
99.7414 120.922 113.349
99.6957 120.445 113.417
99.8691 120.945 113.619
99.7621 120.585 113.839
99.8582 120.688 114.143
101.623 121.841 114.53
101.451 120.897 114.955
101.088 121.414 114.78
99.8911 122.246 114.097
99.8263 121.495 114.03
100.471 122.303 114.237
100.135 121.783 114.449
101.039 122.097 114.295
100.714 121.625 114.581
101.153 108.455 111.501
101.114 109.924 112.03
101.273 109.001 112.419
101.231 107.727 112.186
101.676 108.07 111.165
101.901 107.476 111.745
102.278 108.376 111.569
102.617 107.681 112.063
102.436 108.638 112.353
102.77 108.23 112.7
100.779 110.73 112.367
102.027 109.343 112.356
102.426 109.248 113.022
100.452 111.294 112.717
102.374 110.282 113.014
102.195 111.125 113.092
102.773 110.737 113.593
99.9071 111.909 112.872
102.601 111.607 114.171
99.4774 112.819 113.069
102.663 112.314 114.495
102.211 113.357 114.039
102.725 113.493 114.376
99.1267 113.28 113.463
102.346 114.72 114.241
98.945 114.973 113.162
99.1246 114.042 113.635
102.313 115.558 114.289
98.9452 115.918 113.473
99.1135 115.165 113.855
102.169 116.171 114.155
102.324 116.302 114.969
99.0074 116.725 113.508
99.2535 116.183 114.232
102.451 117.049 115.096
99.3672 117.201 114.443
102.303 117.847 115.366
99.3668 117.978 114.85
99.5837 118.766 114.184
99.7503 118.639 114.521
99.4022 118.219 114.983
99.6282 118.13 114.988
101.929 118.693 115.602
99.7538 119.385 114.279
99.9102 118.64 114.774
101.661 119.523 115.372
101.437 119.018 115.609
101.379 119.868 115.506
99.4798 120.128 113.909
99.9938 119.248 114.78
99.7633 119.915 114.193
99.9638 120.031 114.514
101.619 120.275 115.089
101.035 120.487 115.245
99.9176 120.585 114.717
100.704 121.174 115.064
99.784 121.009 114.459
99.9314 121.199 114.681
100.21 121.275 114.931
102.162 105.893 111.978
101.397 106.172 112.418
102.038 105.796 112.91
102.168 104.914 112.473
102.794 105.964 112.117
103.066 105.13 112.51
103.328 106.396 112.746
103.344 105.448 113.352
101.58 106.639 111.941
101.388 107.387 113.126
102.565 106.66 111.668
102.95 107.295 112.598
103.482 106.328 113.355
103.315 107.415 113.305
103.636 106.612 113.742
101.035 109.654 112.84
101.282 108.587 113.05
103.178 108.534 113.209
103.595 107.284 114.001
103.478 108.237 113.987
103.787 107.495 114.644
100.735 110.307 113.354
103.073 109.744 113.498
103.406 109.345 114.108
103.857 108.689 114.688
100.214 111.053 113.684
103.321 110.55 114.338
103.78 109.988 114.818
99.7211 111.976 113.548
102.953 111.48 114.59
103.512 111.307 115.08
99.594 112.612 113.838
103.046 112.67 114.927
102.712 113.955 114.798
103.119 113.369 115.195
99.4956 113.467 114.195
102.612 115.169 114.734
103.004 114.339 115.262
99.3376 114.443 114.397
102.299 115.751 114.691
102.708 115.262 115.308
99.2616 115.387 114.537
102.58 116.064 115.653
99.465 115.701 115.205
99.395 116.573 114.956
99.6265 116.066 115.429
102.632 116.917 115.813
99.3531 117.206 115.067
99.4492 116.715 115.425
102.126 117.804 115.893
99.2758 117.414 115.659
99.5737 117.905 115.471
101.464 118.295 115.955
99.9239 118.416 115.201
100.089 118.691 114.848
100.071 118.699 115.352
101.23 118.649 115.759
101.173 119.49 115.882
99.9814 120.283 115.323
100.097 119.524 115.345
100.375 120.234 115.598
100.292 119.633 115.877
100.759 120.037 115.459
100.747 119.663 116.091
99.9863 120.849 114.947
100.202 120.728 115.094
100.513 120.625 115.21
102.771 104.058 113.041
102.27 104.531 113.499
102.7 104.075 114.164
102.884 103.198 114.004
103.533 104.353 113.09
103.683 103.473 113.376
104.051 104.682 113.696
103.951 103.846 113.995
101.659 106.247 113.395
101.929 105.4 113.705
103.733 105.589 113.78
104.242 104.679 114.237
104.101 105.559 114.409
104.307 104.942 114.831
101.586 107.263 113.722
103.91 106.628 114.29
104.26 106.449 115.043
101 109.273 113.708
101.075 108.087 113.93
103.89 107.841 115.385
100.624 109.99 114.229
100.918 109.028 114.503
104.062 109.18 115.429
100.321 110.757 114.35
100.527 110.109 114.973
103.854 110.566 115.564
100.011 111.73 114.234
100.319 110.953 114.861
103.654 111.617 115.934
99.7089 112.574 114.623
103.576 112.485 115.408
103.403 113.45 115.719
99.7949 113.004 115.135
99.7049 113.97 114.933
99.9003 113.482 115.464
103.031 114.336 115.86
99.5932 114.842 114.93
99.7251 114.193 115.542
102.636 115.141 115.98
99.5418 115.236 114.968
99.5859 114.935 115.59
102.384 115.937 116.304
99.7271 116.345 115.702
99.8778 115.424 115.911
99.7445 116.089 116.208
102.099 117.014 116.346
99.5199 116.863 115.686
99.5374 116.92 116.006
101.695 117.628 116.341
99.8272 118.084 115.974
99.7026 117.59 116.113
100.111 118.295 116.338
99.8503 117.554 116.811
100.607 118.225 116.501
100.293 117.6 117.022
100.955 118.015 116.544
100.896 117.569 117.011
101.251 118.111 116.291
101.508 117.55 116.914
100.203 118.827 115.823
100.486 119.019 116.12
101.056 118.842 116.154
105.737 97.8647 112.581
104.635 98.1729 113.214
105.196 97.023 113.553
106.22 96.571 113.19
106.515 98.2108 113.4
106.735 97.0886 113.801
106.86 98.0574 113.982
107.026 97.2955 114.389
105.016 99.2261 112.904
104.581 99.3343 113.836
105.86 99.2142 113.314
106.348 99.1855 114.3
107.081 98.31 114.722
104.298 100.55 113.36
104.124 100.344 114.627
105.069 100.15 113.766
105.638 100.434 114.634
106.432 99.5162 115.118
103.676 101.248 113.877
103.742 101.936 114.956
103.9 101.243 115.046
104.445 101.819 113.567
104.984 101.394 114.285
105.241 101.41 115.292
105.662 100.511 115.671
103.252 102.284 113.884
103.314 102.769 115.216
104.105 102.814 113.556
104.592 102.684 114.495
104.847 102.507 115.3
102.347 104.784 114.561
102.959 103.686 115.019
104.193 103.749 114.452
104.66 103.99 115.176
101.548 106.314 114.253
101.924 105.711 114.662
104.458 105.461 115.558
101.276 107.199 114.553
104.283 107.03 115.835
101.138 108.182 114.903
104.238 108.245 116.102
100.936 109.155 115.222
104.187 109.661 116.173
100.702 109.971 115.603
103.995 110.743 116.354
100.054 111.759 114.953
100.621 110.943 115.625
103.649 111.817 116.722
99.8072 112.378 115.101
100.264 112.034 115.48
103.59 112.673 116.121
103.308 113.598 116.356
100.122 113.524 115.942
100.148 112.781 115.709
100.341 112.891 116.312
102.806 114.329 116.523
99.9188 114.298 116.151
100.185 113.453 116.589
102.459 115.046 116.551
99.8886 114.798 116.032
100.045 114.373 116.752
102.158 115.387 116.659
102.126 114.848 116.905
101.876 115.02 116.904
99.9354 116.268 116.545
100.012 115.308 116.504
100.263 115.46 116.679
101.909 116.135 116.604
101.313 115.774 116.82
99.7725 116.963 116.448
100.233 115.961 116.731
100.166 116.743 116.713
100.648 116.608 116.835
100.482 115.904 117.045
101.12 116.567 116.838
100.898 115.809 116.902
101.611 116.961 116.576
104.868 98.288 114.113
105.302 97.1836 114.548
105.648 96.0621 114.363
106.641 96.0887 114.248
107.179 96.8089 114.909
104.545 99.4739 114.769
106.894 98.2153 115.464
104.365 100.673 115.694
106.176 99.4424 116.019
103.855 102.358 116.053
104.054 101.545 115.871
105.581 100.452 116.574
105.332 102.027 116.13
103.438 103.515 116.117
104.947 103.412 115.837
102.578 104.594 115.381
103.133 104.305 115.815
104.602 104.671 116.062
101.589 106.325 115.184
102.124 105.605 115.586
104.314 106.032 116.351
101.367 107.346 115.392
101.882 106.641 115.915
104.284 107.33 116.629
101.181 108.298 115.675
101.623 107.574 116.1
104.331 108.657 116.767
100.866 109.248 116.032
101.232 108.465 116.415
104.272 109.758 116.907
100.826 110.262 116.29
101.295 109.464 116.561
103.906 110.701 117.049
100.577 111.363 116.315
101.156 110.026 116.857
100.933 110.762 116.84
101.177 110.13 117.466
103.663 111.569 117.309
100.46 112.23 116.287
100.772 111.686 117.082
101.04 110.935 117.628
103.325 112.812 116.762
102.931 112.505 117.296
100.5 112.583 117.114
100.69 111.972 117.817
102.817 113.578 116.99
102.697 113.336 117.601
100.289 113.563 117.373
100.639 112.892 117.867
102.368 114.383 117.119
102.02 113.651 117.489
100.142 114.726 116.974
100.456 113.658 117.75
100.368 114.236 117.354
101.064 114.245 117.21
100.989 113.743 117.508
101.791 114.219 117.328
101.575 113.638 117.51
100.401 115.095 117.091
100.884 115.027 116.982
101.326 114.966 117.074
104.891 98.3788 114.935
105.196 97.4794 115.271
105.694 96.4008 115.039
106.544 95.8497 115.185
106.764 97.113 115.7
104.562 99.518 115.557
106.475 98.3849 116.216
104.431 99.9985 116.231
105.932 99.4173 116.552
103.951 101.767 116.813
104.368 100.707 116.702
104.539 101.446 117.434
105.389 101.554 117.088
105.036 100.274 117.065
105.592 99.5549 116.936
103.656 103.032 116.874
103.869 102.393 117.609
104.871 102.53 117.606
105.122 102.783 116.825
104.971 103.797 116.512
102.873 105.087 116.14
103.143 104.236 116.902
104.625 105.241 116.887
102.31 106.068 116.448
102.867 105.519 117.068
104.426 106.443 117.122
101.942 106.969 116.81
102.36 106.453 117.399
104.198 107.601 117.236
101.763 107.875 116.96
102.255 107.518 117.529
104.249 108.747 117.481
101.679 108.752 117
101.958 108.406 117.657
104.051 109.695 117.592
101.487 109.522 117.123
101.731 109.369 117.715
103.698 110.744 117.691
101.42 110.151 118.079
103.368 111.369 117.754
101.432 110.774 118.077
101.271 111.552 118.039
102.243 111.682 117.922
101.926 110.936 118.094
102.97 111.755 117.854
102.643 110.952 118.039
101.09 112.508 118.1
101.8 112.364 117.915
102.771 112.325 117.88
100.886 113.196 118.037
101.451 113.149 117.887
102.141 113.039 118
104.979 98.504 115.625
105.416 97.3672 115.796
106.1 96.6735 115.675
104.726 99.4833 116.118
105.18 98.6454 115.903
106.024 97.6694 116.192
104.495 99.9008 116.776
104.961 99.3068 116.703
105.699 98.7401 116.542
103.392 103.721 117.7
104.294 103.584 117.842
104.863 103.585 117.203
103.147 104.966 117.753
103.899 104.67 117.949
104.637 104.558 117.378
103.062 106.071 117.878
103.74 105.769 118.271
104.453 105.703 117.736
102.827 107.073 117.969
103.632 106.795 118.027
104.314 106.745 117.807
102.509 108.128 118.286
103.424 107.887 118.227
104.082 107.733 117.845
102.361 109.048 117.955
103.148 108.812 118.276
104.067 108.732 118.167
102.156 109.867 118.057
102.776 109.638 117.997
103.559 109.579 118.023
101.754 110.318 118.408
102.33 110.327 118.282
103.224 110.362 118.143
POLYGONS 1936  7744
3 0 1 2
3 0 3 4
3 2 3 0
3 4 5 6
3 3 5 4
3 5 7 6
3 8 1 0
3 9 1 8
3 4 10 0
3 10 8 0
3 6 11 4
3 11 10 4
3 12 6 7
3 11 6 12
3 8 13 9
3 10 13 8
3 14 13 10
3 11 14 10
3 15 14 11
3 12 15 11
3 16 17 18
3 16 19 20
3 18 19 16
3 20 21 22
3 19 21 20
3 21 23 22
3 24 17 16
3 25 17 24
3 20 26 16
3 26 24 16
3 22 27 20
3 27 26 20
3 28 22 23
3 28 29 22
3 29 27 22
3 28 30 29
3 31 25 24
3 32 25 31
3 26 33 24
3 33 31 24
3 27 34 26
3 34 33 26
3 29 35 27
3 35 34 27
3 36 29 30
3 35 29 36
3 31 37 32
3 37 38 39
3 37 31 38
3 31 33 38
3 34 40 33
3 40 38 33
3 35 41 34
3 41 40 34
3 42 35 36
3 41 35 42
3 38 43 39
3 40 43 38
3 44 43 40
3 44 45 46
3 44 40 45
3 40 41 45
3 47 41 42
3 47 48 41
3 48 45 41
3 48 49 50
3 47 49 48
3 49 51 50
3 52 46 45
3 53 46 52
3 48 54 45
3 54 52 45
3 50 55 48
3 55 54 48
3 56 50 51
3 55 50 56
3 57 58 59
3 53 57 59
3 52 57 53
3 52 1 57
3 52 2 1
3 3 2 52
3 54 3 52
3 5 3 54
3 55 5 54
3 55 7 5
3 55 56 7
3 56 60 7
3 61 58 57
3 62 58 61
3 1 9 61
3 57 1 61
3 7 60 12
3 60 63 12
3 61 64 62
3 9 64 61
3 9 13 64
3 13 65 64
3 14 66 13
3 13 66 65
3 15 67 14
3 14 67 66
3 63 15 12
3 67 15 63
3 68 69 70
3 68 71 72
3 70 71 68
3 71 73 72
3 74 69 68
3 75 69 74
3 18 17 74
3 18 74 72
3 72 74 68
3 72 73 76
3 72 76 18
3 18 76 19
3 21 19 77
3 19 76 77
3 77 23 21
3 78 23 77
3 79 75 74
3 80 75 79
3 17 25 79
3 74 17 79
3 23 78 81
3 28 23 81
3 81 30 28
3 82 30 81
3 83 80 79
3 84 80 83
3 25 32 83
3 79 25 83
3 85 86 36
3 85 36 82
3 82 36 30
3 85 87 86
3 83 88 84
3 89 90 88
3 37 89 88
3 37 88 83
3 37 83 32
3 37 39 89
3 86 91 42
3 36 86 42
3 92 86 87
3 91 86 92
3 89 93 90
3 94 95 93
3 43 94 93
3 43 93 89
3 43 89 39
3 43 44 96
3 94 43 96
3 44 46 96
3 42 91 47
3 91 92 97
3 91 97 47
3 47 97 49
3 97 51 49
3 98 51 97
3 99 95 94
3 100 95 99
3 96 101 94
3 101 99 94
3 46 53 101
3 96 46 101
3 51 98 56
3 98 102 56
3 99 103 100
3 59 58 104
3 59 104 99
3 59 99 101
3 99 104 103
3 53 59 101
3 56 102 60
3 102 105 60
3 58 62 104
3 104 62 106
3 60 105 63
3 105 107 63
3 62 108 106
3 64 108 62
3 109 110 108
3 109 108 65
3 65 108 64
3 65 66 111
3 109 65 111
3 66 67 112
3 111 66 112
3 67 113 112
3 67 63 113
3 63 107 113
3 109 114 110
3 111 114 109
3 115 114 111
3 112 115 111
3 116 115 112
3 113 116 112
3 70 117 118
3 69 117 70
3 71 70 119
3 70 118 119
3 73 120 121
3 73 71 120
3 71 119 120
3 120 122 121
3 69 75 117
3 117 75 123
3 73 121 76
3 121 122 124
3 121 124 76
3 76 124 77
3 124 78 77
3 125 78 124
3 75 80 123
3 123 80 126
3 78 125 127
3 81 78 127
3 127 82 81
3 128 82 127
3 80 84 126
3 126 84 129
3 82 128 130
3 85 82 130
3 130 87 85
3 131 87 130
3 132 84 88
3 132 133 84
3 133 129 84
3 88 90 132
3 87 131 92
3 131 134 92
3 135 133 132
3 136 133 135
3 90 93 137
3 90 137 132
3 132 137 135
3 93 95 137
3 92 134 138
3 97 92 138
3 138 98 97
3 139 98 138
3 135 140 136
3 140 141 142
3 140 135 141
3 135 137 141
3 95 100 141
3 137 95 141
3 98 139 102
3 139 143 102
3 141 144 142
3 145 146 144
3 103 145 144
3 103 144 141
3 103 141 100
3 103 104 145
3 147 148 105
3 147 105 143
3 143 105 102
3 147 149 148
3 150 146 145
3 151 146 150
3 104 106 150
3 145 104 150
3 148 152 107
3 105 148 107
3 153 148 149
3 152 148 153
3 150 154 151
3 106 154 150
3 106 108 154
3 108 155 154
3 155 108 110
3 156 155 110
3 152 157 113
3 107 152 113
3 158 152 153
3 157 152 158
3 110 159 156
3 114 159 110
3 115 160 114
3 114 160 159
3 116 161 115
3 115 161 160
3 157 116 113
3 157 162 116
3 162 161 116
3 158 162 157
3 163 164 165
3 163 166 167
3 165 166 163
3 167 168 169
3 166 168 167
3 168 170 169
3 118 164 163
3 118 117 164
3 117 171 164
3 119 118 163
3 167 119 163
3 120 119 167
3 169 120 167
3 169 122 120
3 169 170 122
3 170 172 122
3 117 123 171
3 171 123 173
3 122 172 174
3 124 122 174
3 174 125 124
3 175 125 174
3 123 126 173
3 173 126 176
3 125 175 177
3 127 125 177
3 177 128 127
3 178 128 177
3 126 129 176
3 176 129 179
3 128 178 180
3 130 128 180
3 180 131 130
3 181 131 180
3 129 133 179
3 179 133 182
3 131 181 134
3 181 183 134
3 133 136 182
3 182 136 184
3 134 183 185
3 138 134 185
3 185 139 138
3 186 139 185
3 187 136 140
3 187 188 136
3 188 184 136
3 140 142 187
3 189 190 143
3 189 143 186
3 186 143 139
3 189 191 190
3 187 192 188
3 193 194 192
3 144 193 192
3 144 192 187
3 144 187 142
3 144 146 193
3 143 190 147
3 190 149 147
3 190 191 149
3 191 195 149
3 196 194 193
3 197 194 196
3 146 151 196
3 193 146 196
3 149 195 153
3 195 198 153
3 196 199 197
3 151 199 196
3 151 154 199
3 154 200 199
3 201 202 200
3 201 200 155
3 155 200 154
3 155 156 201
3 153 198 158
3 198 203 158
3 201 204 202
3 156 204 201
3 156 159 204
3 159 205 204
3 160 206 159
3 159 206 205
3 161 207 160
3 160 207 206
3 162 208 161
3 161 208 207
3 203 162 158
3 208 162 203
3 165 209 210
3 164 209 165
3 166 165 211
3 165 210 211
3 168 166 212
3 166 211 212
3 212 170 168
3 213 170 212
3 164 171 209
3 209 171 214
3 170 213 172
3 213 215 172
3 171 173 214
3 214 173 216
3 172 215 217
3 174 172 217
3 217 175 174
3 218 175 217
3 173 176 216
3 216 176 219
3 175 218 220
3 177 175 220
3 220 178 177
3 221 178 220
3 176 179 219
3 219 179 222
3 178 221 223
3 180 178 223
3 223 181 180
3 224 181 223
3 179 182 222
3 222 182 225
3 181 224 183
3 224 226 183
3 182 184 225
3 225 184 227
3 183 226 228
3 185 183 228
3 228 186 185
3 229 186 228
3 184 188 227
3 227 188 230
3 186 229 231
3 189 186 231
3 231 191 189
3 232 191 231
3 188 233 230
3 192 233 188
3 233 192 194
3 234 233 194
3 191 232 195
3 232 235 195
3 194 197 234
3 234 197 236
3 195 235 198
3 235 237 198
3 197 238 236
3 199 238 197
3 200 239 199
3 199 239 238
3 239 200 202
3 240 239 202
3 198 237 203
3 237 241 203
3 202 242 240
3 204 242 202
3 205 243 204
3 204 243 242
3 206 244 205
3 205 244 243
3 207 245 206
3 206 245 244
3 208 246 207
3 207 246 245
3 241 208 203
3 246 208 241
3 247 248 249
3 247 250 251
3 249 250 247
3 251 252 253
3 250 252 251
3 252 254 253
3 210 248 247
3 210 209 248
3 209 255 248
3 211 210 247
3 251 211 247
3 212 211 251
3 253 212 251
3 253 213 212
3 253 254 213
3 254 256 213
3 209 214 255
3 255 214 257
3 213 256 215
3 256 258 215
3 214 216 257
3 257 216 259
3 215 258 260
3 217 215 260
3 260 218 217
3 261 218 260
3 216 219 259
3 259 219 262
3 218 261 263
3 220 218 263
3 263 221 220
3 264 221 263
3 219 222 262
3 262 222 265
3 221 264 266
3 223 221 266
3 266 224 223
3 267 224 266
3 222 225 265
3 265 225 268
3 224 267 226
3 267 269 226
3 225 227 268
3 268 227 270
3 226 269 271
3 228 226 271
3 271 229 228
3 272 229 271
3 227 230 270
3 270 230 273
3 274 231 229
3 274 229 275
3 275 229 272
3 231 274 232
3 230 276 273
3 233 276 230
3 276 233 234
3 277 276 234
3 274 275 278
3 278 232 274
3 278 279 232
3 279 235 232
3 234 236 277
3 277 236 280
3 235 279 237
3 279 281 237
3 236 282 280
3 238 282 236
3 239 283 238
3 238 283 282
3 283 239 240
3 284 283 240
3 237 281 241
3 281 285 241
3 240 286 284
3 242 286 240
3 243 287 242
3 242 287 286
3 244 288 243
3 243 288 287
3 245 289 244
3 244 289 288
3 246 290 245
3 245 290 289
3 285 246 241
3 290 246 285
3 249 291 292
3 248 291 249
3 250 249 293
3 249 292 293
3 252 250 294
3 250 293 294
3 294 254 252
3 295 254 294
3 248 255 291
3 291 255 296
3 297 298 256
3 297 256 295
3 295 256 254
3 297 299 298
3 255 257 296
3 296 257 300
3 298 301 258
3 256 298 258
3 302 298 299
3 301 298 302
3 257 259 300
3 300 259 303
3 258 301 260
3 261 304 305
3 260 304 261
3 260 302 304
3 260 301 302
3 304 306 305
3 259 262 303
3 303 262 307
3 261 305 263
3 305 264 263
3 305 306 264
3 306 308 264
3 262 265 307
3 307 265 309
3 264 308 310
3 266 264 310
3 310 267 266
3 311 267 310
3 265 268 309
3 309 268 312
3 313 314 269
3 313 269 311
3 311 269 267
3 313 315 314
3 268 270 312
3 312 270 316
3 269 314 271
3 314 272 271
3 314 315 272
3 315 317 272
3 270 273 316
3 316 273 318
3 272 317 275
3 317 319 275
3 273 320 318
3 276 320 273
3 320 276 277
3 321 320 277
3 275 319 322
3 278 275 322
3 322 279 278
3 323 279 322
3 277 280 321
3 321 280 324
3 279 323 281
3 323 325 281
3 280 326 324
3 282 326 280
3 283 327 282
3 282 327 326
3 327 283 284
3 328 327 284
3 281 325 285
3 325 329 285
3 284 330 328
3 286 330 284
3 287 331 286
3 286 331 330
3 288 332 287
3 287 332 331
3 289 333 288
3 288 333 332
3 290 334 289
3 289 334 333
3 329 290 285
3 334 290 329
3 335 336 337
3 335 338 339
3 337 338 335
3 338 340 339
3 292 291 341
3 335 342 336
3 335 292 342
3 335 293 292
3 341 342 292
3 294 293 335
3 339 294 335
3 295 343 344
3 294 343 295
3 294 340 343
3 294 339 340
3 343 345 344
3 341 346 347
3 341 291 346
3 291 296 346
3 342 341 347
3 295 344 297
3 344 299 297
3 344 345 299
3 345 348 299
3 296 300 346
3 346 300 349
3 299 348 302
3 348 350 302
3 300 303 349
3 349 303 351
3 302 350 352
3 304 302 352
3 352 306 304
3 353 306 352
3 303 307 351
3 351 307 354
3 355 356 308
3 355 308 353
3 353 308 306
3 355 357 356
3 307 309 354
3 354 309 358
3 308 356 310
3 311 359 360
3 310 359 311
3 310 357 359
3 310 356 357
3 359 361 360
3 309 312 358
3 358 312 362
3 311 360 313
3 360 315 313
3 360 361 315
3 361 363 315
3 312 316 362
3 362 316 364
3 315 363 317
3 363 365 317
3 316 318 364
3 364 318 366
3 317 365 319
3 365 367 319
3 318 368 366
3 320 368 318
3 368 320 321
3 369 368 321
3 370 322 319
3 370 319 371
3 371 319 367
3 322 370 323
3 372 324 373
3 372 369 324
3 369 321 324
3 372 373 374
3 375 370 371
3 376 375 371
3 323 375 325
3 370 375 323
3 324 326 373
3 373 377 374
3 373 326 377
3 326 327 377
3 328 378 379
3 328 379 327
3 327 379 377
3 378 380 381
3 379 378 381
3 380 382 383
3 381 380 383
3 382 384 385
3 383 382 385
3 376 385 384
3 376 384 375
3 375 384 386
3 325 386 329
3 375 386 325
3 328 330 378
3 331 378 330
3 380 378 331
3 332 380 331
3 382 380 332
3 333 382 332
3 384 382 333
3 334 384 333
3 386 384 334
3 329 386 334
3 387 388 389
3 387 390 391
3 389 390 387
3 390 392 391
3 337 388 387
3 337 336 388
3 336 393 388
3 338 337 387
3 391 338 387
3 340 394 395
3 338 394 340
3 338 392 394
3 338 391 392
3 394 396 395
3 336 342 393
3 393 342 397
3 340 395 343
3 395 345 343
3 395 396 345
3 396 398 345
3 347 399 400
3 346 399 347
3 397 342 347
3 400 397 347
3 401 402 348
3 401 348 398
3 398 348 345
3 401 403 402
3 346 349 399
3 399 349 404
3 402 405 350
3 348 402 350
3 406 402 403
3 405 402 406
3 349 351 404
3 404 351 407
3 350 405 352
3 353 408 409
3 352 408 353
3 352 406 408
3 352 405 406
3 408 410 409
3 351 354 407
3 407 354 411
3 353 409 355
3 357 412 413
3 355 412 357
3 355 410 412
3 355 409 410
3 412 414 413
3 354 358 411
3 411 358 415
3 357 413 359
3 413 361 359
3 413 414 361
3 414 416 361
3 358 362 415
3 415 362 417
3 361 416 363
3 416 418 363
3 362 364 417
3 417 364 419
3 420 421 365
3 420 365 418
3 418 365 363
3 420 422 421
3 423 366 424
3 423 419 366
3 419 364 366
3 423 424 425
3 421 426 367
3 365 421 367
3 427 421 422
3 426 421 427
3 366 368 424
3 369 428 429
3 368 369 429
3 368 429 425
3 368 425 424
3 429 428 430
3 426 431 371
3 367 426 371
3 432 426 427
3 431 426 432
3 369 372 428
3 374 433 434
3 372 374 434
3 372 434 430
3 372 430 428
3 434 433 435
3 431 436 437
3 431 437 371
3 371 437 376
3 432 436 431
3 374 377 433
3 433 438 435
3 433 377 438
3 377 379 438
3 381 439 379
3 379 439 438
3 383 440 381
3 381 440 439
3 385 441 383
3 383 441 440
3 437 385 376
3 441 385 437
3 442 443 444
3 442 445 446
3 444 445 442
3 446 447 448
3 445 447 446
3 447 449 448
3 389 443 442
3 389 388 443
3 388 450 443
3 390 389 442
3 446 390 442
3 392 390 446
3 392 446 451
3 451 446 448
3 452 448 449
3 451 448 452
3 388 393 450
3 450 393 453
3 392 451 394
3 396 454 455
3 394 454 396
3 394 452 454
3 394 451 452
3 454 456 455
3 393 397 453
3 453 397 457
3 455 458 398
3 396 455 398
3 459 455 456
3 458 455 459
3 400 460 461
3 399 460 400
3 457 397 400
3 461 457 400
3 398 458 401
3 403 462 463
3 401 462 403
3 401 459 462
3 401 458 459
3 462 464 463
3 399 404 460
3 460 404 465
3 463 466 406
3 403 463 406
3 467 463 464
3 466 463 467
3 404 407 465
3 465 407 468
3 406 466 408
3 410 469 470
3 408 469 410
3 408 467 469
3 408 466 467
3 469 471 470
3 407 411 468
3 468 411 472
3 410 470 412
3 470 414 412
3 470 471 414
3 471 473 414
3 411 415 472
3 472 415 474
3 475 476 416
3 475 416 473
3 473 416 414
3 475 477 476
3 478 417 479
3 478 474 417
3 474 415 417
3 478 479 480
3 476 481 418
3 416 476 418
3 482 476 477
3 481 476 482
3 479 419 483
3 417 419 479
3 484 480 479
3 483 484 479
3 418 481 420
3 481 422 420
3 481 482 422
3 482 485 422
3 419 423 483
3 483 423 425
3 483 425 484
3 484 425 486
3 422 485 427
3 485 487 427
3 425 488 486
3 429 488 425
3 488 429 430
3 489 488 430
3 427 487 432
3 487 490 432
3 430 491 489
3 434 491 430
3 435 492 493
3 435 493 434
3 434 493 491
3 493 492 494
3 436 495 496
3 437 436 496
3 490 436 432
3 495 436 490
3 435 438 492
3 492 497 494
3 492 438 497
3 438 439 497
3 440 498 439
3 439 498 497
3 441 499 440
3 440 499 498
3 496 441 437
3 499 441 496
3 444 500 501
3 443 500 444
3 445 444 502
3 444 501 502
3 447 445 503
3 445 502 503
3 503 449 447
3 504 449 503
3 443 450 500
3 500 450 505
3 506 507 452
3 506 452 504
3 504 452 449
3 506 508 507
3 450 453 505
3 505 453 509
3 452 507 454
3 456 510 511
3 454 510 456
3 454 508 510
3 454 507 508
3 510 512 511
3 453 457 509
3 509 457 513
3 511 514 459
3 456 511 459
3 515 511 512
3 514 511 515
3 461 460 516
3 461 516 517
3 461 517 457
3 457 517 513
3 459 514 462
3 464 518 519
3 462 518 464
3 462 515 518
3 462 514 515
3 518 520 519
3 516 521 522
3 516 460 521
3 460 465 521
3 517 516 522
3 519 523 467
3 464 519 467
3 524 519 520
3 523 519 524
3 465 468 521
3 521 468 525
3 467 523 469
3 471 526 527
3 469 526 471
3 469 524 526
3 469 523 524
3 526 528 527
3 468 472 525
3 525 472 529
3 527 530 473
3 471 527 473
3 531 527 528
3 530 527 531
3 532 474 533
3 532 529 474
3 529 472 474
3 532 533 534
3 473 530 475
3 530 477 475
3 530 531 477
3 531 535 477
3 474 478 533
3 533 478 480
3 533 480 534
3 534 480 536
3 477 535 482
3 535 537 482
3 538 484 539
3 538 536 484
3 536 480 484
3 538 539 540
3 482 537 485
3 537 541 485
3 539 486 542
3 484 486 539
3 543 540 539
3 542 543 539
3 485 541 487
3 541 544 487
3 486 488 542
3 489 545 546
3 488 489 546
3 488 546 543
3 488 543 542
3 545 547 548
3 546 545 548
3 548 547 549
3 550 551 552
3 550 544 551
3 550 490 544
3 490 487 544
3 489 491 545
3 493 545 491
3 547 545 493
3 494 553 554
3 493 494 554
3 493 554 549
3 493 549 547
3 553 555 556
3 554 553 556
3 555 557 558
3 556 555 558
3 552 558 557
3 550 552 557
3 550 557 496
3 550 496 495
3 490 550 495
3 494 497 553
3 498 553 497
3 555 553 498
3 499 555 498
3 557 555 499
3 496 557 499
3 559 560 561
3 559 562 563
3 561 562 559
3 563 564 565
3 562 564 563
3 565 566 567
3 564 566 565
3 566 568 567
3 501 560 559
3 501 500 560
3 500 569 560
3 502 501 559
3 563 502 559
3 503 502 563
3 565 503 563
3 504 503 565
3 504 565 570
3 570 565 567
3 571 567 568
3 570 567 571
3 500 505 569
3 569 505 572
3 504 570 506
3 508 573 574
3 506 573 508
3 506 571 573
3 506 570 571
3 573 575 574
3 505 509 572
3 572 509 576
3 508 574 510
3 574 512 510
3 574 575 512
3 575 577 512
3 509 513 576
3 576 513 578
3 579 580 515
3 579 515 577
3 577 515 512
3 579 581 580
3 513 517 578
3 578 517 582
3 515 580 518
3 580 520 518
3 580 581 520
3 581 583 520
3 522 521 584
3 522 584 585
3 522 585 517
3 517 585 582
3 520 583 524
3 583 586 524
3 584 525 587
3 521 525 584
3 588 585 584
3 587 588 584
3 524 586 589
3 526 524 589
3 589 528 526
3 590 528 589
3 587 529 591
3 525 529 587
3 592 588 587
3 591 592 587
3 528 590 531
3 590 593 531
3 529 532 591
3 591 532 534
3 591 534 592
3 592 534 594
3 531 593 535
3 593 595 535
3 596 536 597
3 596 594 536
3 594 534 536
3 597 598 599
3 596 597 599
3 599 598 600
3 535 595 537
3 595 601 537
3 536 538 597
3 540 597 538
3 540 602 597
3 602 598 597
3 603 600 598
3 602 603 598
3 604 605 606
3 604 601 605
3 604 541 601
3 541 537 601
3 602 543 607
3 540 543 602
3 608 603 602
3 608 602 609
3 609 602 607
3 608 609 610
3 611 604 606
3 612 611 606
3 541 611 544
3 604 611 541
3 543 546 607
3 548 607 546
3 609 607 548
3 609 548 549
3 609 549 610
3 610 549 613
3 551 611 612
3 551 612 552
3 552 612 614
3 544 611 551
3 549 615 613
3 554 615 549
3 556 616 554
3 554 616 615
3 558 617 556
3 556 617 616
3 614 558 552
3 617 558 614
3 618 619 620
3 618 621 622
3 620 621 618
3 622 623 624
3 621 623 622
3 623 625 624
3 626 619 618
3 627 619 626
3 622 628 618
3 628 626 618
3 624 629 622
3 629 628 622
3 630 624 625
3 630 631 624
3 631 629 624
3 630 632 631
3 561 633 634
3 560 633 561
3 627 626 562
3 627 562 634
3 634 562 561
3 564 562 626
3 628 564 626
3 566 564 628
3 629 566 628
3 568 566 629
3 568 629 635
3 635 629 631
3 636 631 632
3 636 637 631
3 637 635 631
3 636 638 637
3 560 569 633
3 633 569 639
3 635 640 571
3 568 635 571
3 637 641 635
3 641 640 635
3 642 637 638
3 641 637 642
3 569 572 639
3 639 572 643
3 571 640 573
3 575 573 640
3 575 640 644
3 644 640 641
3 645 641 642
3 644 641 645
3 572 576 643
3 643 576 646
3 644 647 577
3 575 644 577
3 648 644 645
3 647 644 648
3 576 578 646
3 646 578 649
3 577 647 579
3 581 650 651
3 579 650 581
3 579 648 650
3 579 647 648
3 650 652 651
3 578 582 649
3 649 582 653
3 651 654 583
3 581 651 583
3 655 651 652
3 654 651 655
3 582 585 653
3 653 585 656
3 654 657 586
3 583 654 586
3 658 654 655
3 657 654 658
3 585 588 656
3 656 588 659
3 586 657 589
3 657 590 589
3 657 658 590
3 658 660 590
3 661 592 662
3 661 659 592
3 659 588 592
3 661 662 663
3 590 660 593
3 660 664 593
3 662 594 665
3 592 594 662
3 666 663 662
3 665 666 662
3 593 664 595
3 664 667 595
3 594 596 665
3 665 668 666
3 665 596 668
3 596 599 668
3 668 599 600
3 669 668 600
3 595 667 601
3 667 670 601
3 671 603 672
3 671 669 603
3 669 600 603
3 671 672 673
3 605 674 675
3 606 605 675
3 670 605 601
3 674 605 670
3 603 608 672
3 610 676 677
3 608 610 677
3 608 677 673
3 608 673 672
3 676 678 679
3 677 676 679
3 678 680 681
3 679 678 681
3 680 675 681
3 680 612 675
3 612 606 675
3 676 613 682
3 610 613 676
3 678 676 683
3 683 676 682
3 680 678 684
3 684 678 683
3 612 684 614
3 680 684 612
3 613 615 682
3 616 682 615
3 683 682 616
3 617 683 616
3 684 683 617
3 614 684 617
3 685 686 687
3 685 688 689
3 687 688 685
3 689 690 691
3 688 690 689
3 690 692 691
3 620 693 694
3 619 693 620
3 686 685 621
3 686 621 694
3 694 621 620
3 623 621 685
3 689 623 685
3 625 623 689
3 625 689 695
3 695 689 691
3 696 691 692
3 696 697 691
3 697 695 691
3 696 698 697
3 619 627 693
3 693 627 699
3 625 695 630
3 632 630 695
3 632 695 700
3 700 695 697
3 701 697 698
3 700 697 701
3 634 633 702
3 634 702 703
3 634 703 627
3 627 703 699
3 632 700 636
3 700 638 636
3 700 701 638
3 701 704 638
3 702 639 705
3 633 639 702
3 706 703 702
3 705 706 702
3 638 704 642
3 704 707 642
3 705 643 708
3 639 643 705
3 709 706 705
3 708 709 705
3 642 707 645
3 707 710 645
3 708 711 712
3 708 643 711
3 643 646 711
3 709 708 712
3 645 710 648
3 710 713 648
3 646 649 711
3 711 649 714
3 648 713 715
3 650 648 715
3 715 652 650
3 716 652 715
3 717 653 718
3 717 714 653
3 714 649 653
3 717 718 719
3 652 716 655
3 716 720 655
3 718 656 721
3 653 656 718
3 722 719 718
3 721 722 718
3 655 720 658
3 720 723 658
3 721 659 724
3 656 659 721
3 725 722 721
3 724 725 721
3 658 723 660
3 723 726 660
3 659 661 724
3 663 727 728
3 661 663 728
3 661 728 725
3 661 725 724
3 728 727 729
3 660 726 664
3 726 730 664
3 727 666 731
3 663 666 727
3 732 729 727
3 731 732 727
3 664 730 667
3 730 733 667
3 666 668 731
3 669 734 735
3 668 669 735
3 668 735 732
3 668 732 731
3 734 736 737
3 735 734 737
3 736 738 739
3 737 736 739
3 738 740 741
3 739 738 741
3 740 742 743
3 741 740 743
3 742 733 743
3 742 670 733
3 670 667 733
3 669 671 734
3 673 734 671
3 673 744 734
3 744 736 734
3 738 736 745
3 745 736 744
3 740 738 746
3 746 738 745
3 674 746 675
3 674 742 746
3 742 740 746
3 670 742 674
3 673 677 744
3 679 744 677
3 745 744 679
3 681 745 679
3 746 745 681
3 675 746 681
3 747 748 749
3 747 750 751
3 749 750 747
3 751 752 753
3 750 752 751
3 752 754 753
3 755 748 747
3 756 748 755
3 751 757 747
3 757 755 747
3 753 758 751
3 758 757 751
3 759 753 754
3 758 753 759
3 760 756 755
3 761 756 760
3 757 762 755
3 762 760 755
3 758 763 757
3 763 762 757
3 764 758 759
3 763 758 764
3 765 766 767
3 761 765 767
3 761 760 765
3 760 768 765
3 762 769 760
3 769 768 760
3 770 763 771
3 770 769 763
3 769 762 763
3 764 771 763
3 772 766 765
3 773 766 772
3 768 774 765
3 774 772 765
3 769 775 768
3 775 774 768
3 776 769 770
3 775 769 776
3 687 777 778
3 686 777 687
3 773 772 688
3 773 688 778
3 778 688 687
3 690 688 772
3 774 690 772
3 692 690 774
3 692 774 779
3 779 774 775
3 780 775 776
3 779 775 780
3 694 781 782
3 693 781 694
3 777 686 694
3 782 777 694
3 692 779 696
3 779 698 696
3 779 780 698
3 780 783 698
3 693 699 781
3 781 699 784
3 698 783 701
3 783 785 701
3 699 703 784
3 784 703 786
3 701 785 704
3 785 787 704
3 703 706 786
3 786 706 788
3 704 787 707
3 787 789 707
3 706 709 788
3 788 709 790
3 707 789 710
3 789 791 710
3 712 711 792
3 712 792 793
3 712 793 709
3 709 793 790
3 710 791 713
3 791 794 713
3 792 714 795
3 711 714 792
3 796 793 792
3 795 796 792
3 713 794 797
3 715 713 797
3 797 716 715
3 798 716 797
3 714 717 795
3 719 799 800
3 717 719 800
3 717 800 796
3 717 796 795
3 800 799 801
3 716 798 720
3 798 802 720
3 799 722 803
3 719 722 799
3 804 801 799
3 803 804 799
3 720 802 723
3 802 805 723
3 803 725 806
3 722 725 803
3 807 804 803
3 806 807 803
3 808 809 810
3 808 805 809
3 808 726 805
3 726 723 805
3 725 728 806
3 729 811 812
3 728 729 812
3 728 812 807
3 728 807 806
3 812 811 813
3 814 808 810
3 815 814 810
3 726 814 730
3 808 814 726
3 811 732 816
3 729 732 811
3 817 813 811
3 817 811 818
3 818 811 816
3 818 819 820
3 817 818 820
3 819 821 822
3 820 819 822
3 815 822 821
3 815 821 814
3 814 821 823
3 730 823 733
3 814 823 730
3 732 735 816
3 737 816 735
3 818 816 737
3 739 818 737
3 819 818 739
3 741 819 739
3 821 819 741
3 743 821 741
3 823 821 743
3 733 823 743
3 749 824 825
3 748 824 749
3 750 749 826
3 749 825 826
3 752 750 827
3 750 826 827
3 827 754 752
3 828 754 827
3 748 756 824
3 824 756 829
3 754 828 759
3 828 830 759
3 756 761 829
3 829 761 831
3 759 830 764
3 830 832 764
3 767 833 834
3 766 833 767
3 831 761 767
3 834 831 767
3 771 835 836
3 770 771 836
3 832 771 764
3 835 771 832
3 766 773 833
3 833 773 837
3 770 836 776
3 836 838 776
3 778 839 840
3 777 839 778
3 837 773 778
3 840 837 778
3 776 838 780
3 838 841 780
3 782 781 842
3 782 842 843
3 782 843 777
3 777 843 839
3 780 841 783
3 841 844 783
3 842 784 845
3 781 784 842
3 846 843 842
3 845 846 842
3 783 844 785
3 844 847 785
3 845 786 848
3 784 786 845
3 849 846 845
3 848 849 845
3 785 847 787
3 847 850 787
3 848 788 851
3 786 788 848
3 852 849 848
3 851 852 848
3 787 850 789
3 850 853 789
3 851 790 854
3 788 790 851
3 855 852 851
3 854 855 851
3 789 853 791
3 853 856 791
3 854 793 857
3 790 793 854
3 858 855 854
3 858 854 859
3 859 854 857
3 858 859 860
3 791 856 794
3 856 861 794
3 857 796 862
3 793 796 857
3 859 857 863
3 863 857 862
3 864 860 859
3 863 864 859
3 865 797 794
3 865 794 866
3 866 794 861
3 797 865 798
3 796 800 862
3 801 862 800
3 801 867 862
3 867 863 862
3 868 864 863
3 867 868 863
3 869 865 866
3 870 869 866
3 798 869 802
3 865 869 798
3 867 804 871
3 801 804 867
3 872 868 867
3 871 872 867
3 873 869 870
3 874 873 870
3 802 873 805
3 869 873 802
3 871 807 875
3 804 807 871
3 876 872 871
3 876 871 877
3 877 871 875
3 877 878 879
3 876 877 879
3 878 880 881
3 879 878 881
3 874 881 880
3 873 874 880
3 873 880 810
3 873 810 809
3 805 873 809
3 807 812 875
3 813 875 812
3 813 882 875
3 882 877 875
3 878 877 883
3 883 877 882
3 880 878 884
3 884 878 883
3 810 884 815
3 880 884 810
3 813 817 882
3 820 882 817
3 883 882 820
3 822 883 820
3 884 883 822
3 815 884 822
3 825 885 886
3 824 885 825
3 826 825 887
3 825 886 887
3 827 826 888
3 826 887 888
3 888 828 827
3 889 828 888
3 824 829 885
3 885 829 890
3 828 889 830
3 889 891 830
3 829 831 890
3 890 831 892
3 830 891 832
3 891 893 832
3 834 833 894
3 895 892 831
3 895 831 894
3 895 894 896
3 894 831 834
3 896 897 898
3 895 896 898
3 897 836 835
3 897 835 898
3 898 835 899
3 893 835 832
3 899 835 893
3 894 900 901
3 894 833 900
3 833 837 900
3 896 894 901
3 902 896 901
3 897 896 902
3 903 897 902
3 903 836 897
3 903 904 836
3 904 838 836
3 840 839 905
3 840 905 906
3 840 906 837
3 837 906 900
3 838 904 841
3 904 907 841
3 905 843 908
3 839 843 905
3 909 906 905
3 908 909 905
3 841 907 844
3 907 910 844
3 908 846 911
3 843 846 908
3 912 909 908
3 911 912 908
3 844 910 847
3 910 913 847
3 911 849 914
3 846 849 911
3 915 912 911
3 914 915 911
3 847 913 850
3 913 916 850
3 914 852 917
3 849 852 914
3 918 915 914
3 917 918 914
3 850 916 853
3 916 919 853
3 917 855 920
3 852 855 917
3 921 918 917
3 920 921 917
3 853 919 856
3 919 922 856
3 855 858 920
3 920 858 860
3 920 860 921
3 921 860 923
3 856 922 861
3 922 924 861
3 925 864 926
3 925 923 864
3 923 860 864
3 926 927 928
3 925 926 928
3 927 929 930
3 928 927 930
3 929 924 930
3 929 866 924
3 866 861 924
3 926 868 931
3 864 868 926
3 927 926 932
3 932 926 931
3 929 927 933
3 933 927 932
3 866 933 870
3 929 933 866
3 931 872 934
3 868 872 931
3 932 931 935
3 935 931 934
3 933 932 936
3 936 932 935
3 870 936 874
3 933 936 870
3 872 876 934
3 879 934 876
3 935 934 879
3 881 935 879
3 936 935 881
3 874 936 881
3 886 885 937
3 886 938 887
3 937 938 886
3 887 939 888
3 938 939 887
3 888 939 889
3 937 890 940
3 885 890 937
3 938 937 941
3 941 937 940
3 939 938 942
3 942 938 941
3 889 942 891
3 939 942 889
3 940 892 943
3 890 892 940
3 941 940 944
3 944 940 943
3 942 941 945
3 945 941 944
3 891 945 893
3 942 945 891
3 892 895 943
3 898 943 895
3 944 943 898
3 899 944 898
3 945 944 899
3 893 945 899
3 901 900 946
3 901 947 902
3 946 947 901
3 902 948 903
3 947 948 902
3 903 948 904
3 946 906 949
3 900 906 946
3 947 946 950
3 950 946 949
3 948 947 951
3 951 947 950
3 904 951 907
3 948 951 904
3 949 909 952
3 906 909 949
3 950 949 953
3 953 949 952
3 951 950 954
3 954 950 953
3 907 954 910
3 951 954 907
3 952 912 955
3 909 912 952
3 953 952 956
3 956 952 955
3 954 953 957
3 957 953 956
3 910 957 913
3 954 957 910
3 955 915 958
3 912 915 955
3 956 955 959
3 959 955 958
3 957 956 960
3 960 956 959
3 913 960 916
3 957 960 913
3 958 918 961
3 915 918 958
3 959 958 962
3 962 958 961
3 960 959 963
3 963 959 962
3 916 963 919
3 960 963 916
3 961 921 964
3 918 921 961
3 962 961 965
3 965 961 964
3 963 962 966
3 966 962 965
3 919 966 922
3 963 966 919
3 964 923 967
3 921 923 964
3 965 964 968
3 968 964 967
3 966 965 969
3 969 965 968
3 922 969 924
3 966 969 922
3 923 925 967
3 928 967 925
3 968 967 928
3 930 968 928
3 969 968 930
3 924 969 930
