# vtk DataFile Version 3.0
this file was written using fslvtkio
ASCII
DATASET POLYDATA
POINTS 1068 float
91.0764 113.339 147.899
89.9709 112.906 147.821
91.158 112.117 146.515
91.6417 111.823 145.688
91.6916 112.857 148.469
91.7404 111.896 146.128
92.0619 112.458 149.544
91.9014 111.242 147.534
92.097 111.033 150.352
92.0626 109.829 148.895
90.4617 114.318 149.095
89.8021 112.059 149.4
91.3371 114.616 149.284
91.9788 114.347 148.49
92.7976 112.76 147.81
92.9421 110.745 148.765
90.2153 113.834 150.292
89.3733 112.552 150.574
90.9066 115.746 150.585
91.802 115.612 150.068
92.7197 114.789 148.723
93.9756 113.839 148.215
90.3688 114.75 151.776
91.3426 116.689 151.646
92.4538 115.824 150.151
93.4563 115.491 149.723
93.5343 110.236 137.789
92.5864 107.184 139.772
93.6621 105.986 138.619
94.6503 106.399 140.84
94.6431 109.223 140.956
94.9073 105.154 143.762
92.4505 110.309 136.56
91.7752 109.956 138.795
92.5881 107.717 141.602
93.6459 111.599 138.126
94.3185 110.025 141.238
95.1219 108.527 143.54
91.579 112.7 136.113
91.75 109.508 140.926
92.8126 112.643 137.248
93.9346 111.845 141.288
94.927 110.672 143.456
91.5995 110.445 144.7
90.9428 111.019 147.204
91.3434 109.404 146.593
92.0788 109.818 145.242
91.7028 110.644 140.867
92.1131 111.684 140.696
92.7619 110.779 140.78
93.2909 110.034 144.84
94.642 110.381 144.018
90.1675 110.29 148.677
92.3724 109.475 149.817
89.5024 110.251 149.511
93.6249 110.914 148.488
89.2127 110.12 150.487
93.8984 113.993 149.76
89.9692 113.559 152.276
89.4041 111.649 151.873
90.6919 115.804 152.801
91.5116 117.189 152.456
92.2784 116.886 151.77
93.2149 116.429 151.52
89.935 115.065 153.093
90.766 116.556 153.795
91.7837 116.85 153.957
95.5387 101.003 139.314
94.8426 100.335 140.534
94.6938 98.645 139.402
95.3584 98.5832 138.448
95.7315 100.166 141.907
95.9679 98.1057 140.125
96.1976 98.7968 142.764
96.2131 96.5764 141.557
94.858 102.021 140.305
93.9683 102.425 141.352
94.2884 100.487 141.123
95.2898 102.487 142.346
95.5337 101.321 143.762
96.0598 100.221 144.701
95.7853 97.0104 143.808
94.2678 103.789 140.726
92.91 104.78 141.276
94.8661 103.949 142.309
95.4181 103.55 144.802
95.8953 102.471 145.541
95.9719 100.008 145.571
92.7529 105.657 142.71
95.429 105.562 145.065
96.1015 105.161 146.523
96.5052 103.274 146.614
92.2814 107.963 142.875
92.6912 106.209 144.139
95.3425 108.989 145.078
95.8284 106.966 145.769
96.9338 105.757 147.431
92.0404 108.325 143.634
92.0275 108.172 146.355
92.0289 106.841 145.171
95.6781 110.024 145.39
95.9734 108.097 146.961
96.5947 107.214 147.31
90.8179 108.911 148.017
91.9771 108.456 148.194
93.9508 109.288 146.634
94.5408 109.179 148.292
96.0897 109.417 147.884
90.3249 108.145 149.193
93.3941 109.574 149.249
94.3841 109.568 149.329
95.3693 109.581 149.359
89.6887 107.754 149.759
94.3277 112.089 148.793
94.439 111.29 149.671
88.9955 109.976 151.252
93.8731 115.032 150.575
94.6905 114.56 150.589
89.3608 111.773 152.618
93.4854 115.599 152.837
92.7446 116.673 153.714
94.3104 114.679 152.861
89.6029 113.661 152.789
90.4933 114.409 154.038
91.6086 115.034 154.6
94.9093 99.2573 142.468
94.8847 96.7001 140.31
95.3481 95.5842 138.414
95.9292 95.5853 138.954
96.2986 94.3331 141.743
93.5462 102.292 142.662
94.0428 100.027 142.773
96.2217 95.4345 143.613
92.9634 103.339 143.444
96.5364 98.3612 144.76
96.7935 100.127 146.095
97.1159 98.6624 146.559
92.6513 103.656 144.358
97.1358 102.361 147.347
97.3225 100.469 147.654
92.5162 106.321 145.535
92.4469 104.863 145.557
97.3628 103.156 148.191
97.467 101.252 149.139
91.9076 106.269 147.889
92.3073 105.539 148.085
97.0152 108.137 149.002
96.7661 105.548 149.226
97.3233 103.633 149.112
91.6979 106.998 150.175
91.6047 106.13 149.296
96.9647 108.606 149.923
97.5025 107.297 151.45
91.1788 106.139 150.095
95.4422 110.761 151.273
96.4618 110.023 150.179
96.9121 109.122 150.763
89.1384 108.099 150.301
95.1968 112.17 151.651
96.228 110.723 152.53
88.7421 110.166 152.077
95.6346 112.026 153.199
94.9121 113.814 151.983
88.8909 111.894 153.984
92.5513 115.325 154.008
93.4713 114.762 154.252
94.5171 114.584 154.63
89.4602 113.618 154.209
90.1331 113.866 154.392
91.2719 113.608 154.722
92.336 114.255 155.066
94.6329 97.2295 142.604
94.8112 95.3556 141.426
95.2982 93.9918 139.364
96.136 93.8023 139.464
96.0396 93.8975 142.936
93.6479 100.499 143.931
94.0484 98.4522 143.578
94.4745 97.6011 144.799
96.3718 95.4972 144.757
96.7935 97.118 145.051
96.7921 96.9296 146.781
93.2339 101.901 144.284
93.8227 99.9679 145.898
97.2358 98.2847 147.957
93.025 102.684 146.629
97.3033 99.3892 148.981
92.6213 104.128 148.222
92.5106 103.27 146.752
97.3259 100.501 150.116
91.885 104.234 149.903
92.1204 103.605 149.318
97.3917 104.792 150.387
97.4004 102.699 149.989
91.6214 103.922 151.077
91.9169 104.707 150.62
97.4022 105.314 151.747
97.3451 103.499 151.41
90.2805 106.17 150.672
88.728 105.643 150.904
90.2955 104.831 151.478
96.812 110.004 152.468
97.2713 107.717 152.564
97.0687 105.758 152.52
89.0568 107.705 150.537
88.4402 107.182 151.497
96.7568 110.26 154.154
96.7325 108.983 154.012
87.9756 109.333 151.581
88.1866 108.416 152.873
95.25 114.162 154.219
96.0918 111.327 154.201
96.069 110.14 155.063
88.4844 110.689 153.735
88.6453 109.143 153.982
94.4631 113.944 156.017
93.3855 114.125 154.862
95.4116 114.561 155.669
88.8925 112.49 155.46
89.8988 112.99 155.866
90.452 113.16 155.177
91.2921 113.156 155.218
92.1254 113.179 155.045
95.6149 92.4657 138.753
94.5842 93.2972 141.132
94.7207 91.3453 141.158
95.6957 91.4874 140.992
96.0803 93.0145 141.323
95.8755 91.9011 143.386
94.664 95.3383 143.266
95.961 93.8604 144.736
93.9803 98.2773 145.73
94.2682 95.9904 145.226
96.5404 95.0734 145.906
97.1552 95.953 148.028
93.6096 101.116 146.464
93.8351 98.8666 147.523
97.4151 97.0567 149.393
92.6402 102.949 148.823
92.5975 101.054 149.417
93.0268 101.07 147.864
97.3011 98.502 150.517
92.0237 102.339 150.332
91.0636 100.357 149.836
91.8558 99.7071 149.931
97.0796 100.674 151.239
91.2896 102.696 150.56
90.7457 102.811 152.324
90.6879 100.424 150.576
96.9623 101.809 151.715
90.7029 103.408 151.622
89.4348 104.074 152.212
89.7609 102.769 152.377
96.9498 103.712 152.421
88.6278 105.004 152.539
96.6834 105.067 153.483
96.8767 107.155 153.403
88.0042 106.308 153.399
96.4585 108.512 154.917
88.0289 107.316 154.701
95.7602 109.114 155.519
95.805 112.131 155.453
88.687 108.474 155.43
94.1689 112.552 156.228
93.0298 112.543 154.283
95.1144 112.872 156.316
89.0752 110.927 155.202
89.4604 111.964 156.925
90.3598 111.822 155.852
91.2726 112.161 156.043
91.887 112.158 155.086
94.4937 92.4717 141.927
94.5289 93.0624 145.101
94.5992 90.9283 143.297
94.8763 90.3693 143.387
95.415 90.6419 143.6
95.5921 91.4093 145.712
94.6622 94.0083 144.395
94.1769 95.5233 146.084
96.0583 92.9852 146.187
93.903 96.8254 146.655
96.7016 94.2823 147.045
97.1684 94.6318 148.878
93.2877 99.3097 148.624
92.7703 97.4151 150.304
93.0894 96.9717 148.532
93.4478 96.1245 147.536
97.3583 96.0432 150.367
92.7028 99.5975 150.121
91.4675 97.7848 150.71
91.9865 96.7579 151.118
97.2598 98.1749 151.702
90.7648 97.6004 150.152
97.1484 99.7505 152.527
90.0545 101.086 152.541
90.1507 98.7183 150.826
97.1877 101.672 153.478
89.2204 103.53 153.455
89.5173 101.602 153.537
96.5754 103.201 153.572
88.755 104.164 154.207
96.0756 104.433 154.377
96.2664 106.568 154.073
88.086 105.146 155.368
95.9749 107.386 155.346
88.0441 106.226 156.765
95.3045 107.718 155.352
95.2902 110.414 155.437
88.5405 107.646 157.348
92.8929 111.916 155.164
93.6463 111.142 156.764
94.3215 110.587 156.162
88.987 109.778 156.873
89.6274 110.172 157.519
90.2765 110.756 156.998
90.8801 110.536 156.181
91.6416 110.87 156.143
92.4898 111.073 156.04
94.5864 89.1159 144.237
94.4805 91.0019 145.218
94.2754 88.7294 145.242
94.7501 86.8986 144.81
94.8853 89.251 145.195
94.4004 88.2437 146.553
95.1288 90.0865 145.584
94.8863 89.4949 147.583
94.5894 92.8883 146.42
95.6169 90.4386 148.089
94.1584 93.7839 146.719
96.3058 91.2946 147.893
93.5752 95.1938 147.119
92.9724 93.3844 148.161
93.5276 93.2611 147.472
96.8938 92.9428 148.192
97.0378 93.8817 149.951
92.2533 95.2422 149.943
92.7603 95.0764 148.389
97.1206 95.5603 151.32
91.3525 95.2526 151.974
91.7219 94.7828 151.578
97.0882 97.5135 152.739
90.5911 96.5905 151.228
96.9396 99.5723 153.744
89.8181 98.8958 152.415
90.0871 97.9918 151.472
96.5177 101.097 154.312
88.7835 102.124 154.299
89.5661 100.263 153.957
96.1605 102.707 154.361
88.333 102.836 155.358
95.752 103.7 155.584
95.8869 106.057 154.888
88.2349 104.097 156.502
95.4129 105.959 155.368
88.3027 105.472 157.916
94.742 106.666 155.323
94.751 109.023 155.555
88.8352 106.598 158.228
94.1335 108.588 156.774
93.5517 109.81 156.683
89.4037 108.176 157.246
89.8282 109.054 158.16
90.3732 109.293 157.507
91.0373 108.96 156.514
91.873 109.016 156.332
92.6067 109.771 156.439
94.2371 86.7159 144.473
94.1806 88.9863 146.48
94.038 85.7402 145.365
94.5487 85.3314 145.582
94.5399 86.5686 146.63
94.1749 85.4751 148.026
94.1783 90.4035 146.181
94.2079 87.616 148.04
95.2727 87.9513 149.174
93.9585 91.1849 147.387
93.3788 89.476 148.336
93.7927 89.1433 147.278
95.8596 88.7741 150.098
93.6952 91.9428 147.836
92.9165 91.1524 148.538
96.1656 90.4222 149.807
92.5715 93.3146 149.657
91.9669 91.4046 149.728
92.3635 91.0874 148.821
96.714 92.1725 149.569
96.6905 93.7201 151.198
91.9149 93.5152 150.505
91.1053 92.5316 152.181
91.5016 91.6337 151.742
96.7794 95.4075 152.164
91.0322 94.0534 152.513
96.7406 97.4279 153.624
90.1969 96.6796 151.985
89.8946 96.6907 153.216
90.4618 95.1689 153.058
96.5632 99.0097 154.762
89.6577 98.1269 153.09
89.0737 99.6134 154.739
89.3733 97.3525 154.24
96.3309 100.422 155.399
96.1661 99.3431 156.524
95.8643 101.21 155.96
88.4936 100.813 155.324
95.9969 101.789 155.184
95.3393 103.373 155.906
88.3361 101.801 156.592
95.2161 104.103 155.966
88.2855 103.139 157.818
95.0133 105.175 156.024
88.3746 104.479 159.27
94.5145 105.813 155.59
93.9691 106.932 154.668
88.9844 105.86 158.847
89.5026 107.05 158.315
89.8944 105.76 158.499
93.6084 106.933 155.896
93.0066 108.439 156.049
89.9831 107.858 158.223
90.651 107.748 158.318
91.1438 108.25 157.528
91.9171 107.918 156.899
92.5391 108.38 156.721
93.821 86.9721 146.705
93.6007 85.8854 147.983
93.7315 84.9132 147.189
94.079 84.0731 144.631
94.768 84.3852 145.587
94.4608 82.9622 148.34
93.7942 88.4728 148.013
93.2211 86.2619 148.651
94.6821 85.9046 149.217
95.6077 86.6069 150.733
92.9865 87.8854 148.952
92.2829 86.7978 149.606
92.8693 85.8873 149.036
95.9764 87.0846 151.397
92.319 89.3183 148.585
91.9703 87.9885 149.897
96.1671 89.3032 151.212
96.6159 91.7653 150.984
96.3835 91.7025 152.166
91.7711 89.8746 150.612
90.943 89.5201 152
91.4687 88.2728 151.804
96.5602 93.5532 152.667
90.7875 91.408 152.909
96.6479 95.5216 153.475
90.5137 92.8094 153.271
96.5728 96.9853 154.774
90.0231 94.7042 154.15
90.2478 93.5654 153.712
96.2142 98.0074 155.751
88.8209 98.502 155.406
89.6004 95.8593 155.22
95.6489 98.8083 156.823
95.4993 101.074 156.683
88.3987 99.6483 156.628
94.9021 101.895 156.721
88.3422 101.048 157.825
94.6159 103.113 156.733
88.7482 102.156 158.599
94.4118 105.134 155.636
94.3631 103.56 156.423
94.0357 104.843 156.395
88.8089 103.233 159.396
89.1944 104.81 159.46
89.6119 104.341 159.268
93.4542 106.108 154.539
93.5114 104.7 156.254
92.9255 105.696 155.204
90.3927 104.532 157.786
92.8102 107.074 156.7
92.3433 105.381 156.118
92.2041 106.681 157.097
93.0545 106.784 155.233
92.6097 105.018 155.415
90.4371 106.007 157.726
91.0293 106.574 157.572
91.6443 107.215 157.023
94.4021 82.2358 143.828
93.6062 81.9116 145.164
93.5658 79.8699 143.417
94.5071 80.1283 143.561
94.5948 81.7806 145.758
94.3434 79.9187 146.96
93.2425 83.1738 148.304
93.4483 82.6282 146.667
94.92 80.7917 149.204
92.7864 84.997 149.295
92.4007 82.7079 149.632
92.9447 82.7599 148.794
95.061 84.1516 149.99
95.6058 84.8087 151.316
92.2126 84.8728 150.475
91.0975 84.1283 150.974
91.6381 82.7574 150.987
95.7941 86.2489 152.161
91.4615 85.6405 150.657
91.1105 86.9451 152.812
95.9973 89.1905 152.498
96.3698 91.0054 153.444
90.5896 88.299 152.562
96.5456 93.0286 154.079
90.3389 89.6368 153.22
89.8692 88.7472 154.559
89.8109 87.8712 152.916
96.2157 94.875 154.517
90.1646 91.4245 153.926
89.7855 90.6799 154.967
95.8875 95.839 155.247
89.8509 92.9995 154.76
89.1799 96.2466 155.995
89.4125 92.917 155.488
95.7203 97.1022 156.063
88.7092 97.6207 156.877
95.2635 97.9062 157.072
95.0992 99.7764 157.206
88.5261 98.9099 158.098
94.3523 100.356 156.356
88.7031 100.186 158.55
94.4882 102.695 157.128
93.959 100.761 156.226
93.8322 101.939 156.865
89.1574 101.218 158.974
92.8549 103.573 157.92
92.271 101.299 158.244
92.2752 102.966 158.007
93.4015 103.079 157.642
92.8428 101.801 158.002
93.9461 103.757 157.004
93.3636 101.582 157.362
89.4604 102.69 158.901
90.131 103.079 158.302
92.4128 104.426 156.387
91.7383 103.676 156.525
93.0742 103.97 156.561
90.4486 103.371 157.883
91.0016 104.979 157.851
91.5249 105.44 157.123
90.758 103.435 156.955
91.902 105.221 156.598
91.0847 103.55 156.086
92.9546 77.6418 144.244
92.3368 77.3142 145.605
92.8608 74.7136 144.7
93.4288 75.4648 144.065
93.6634 77.4327 142.941
94.385 75.9194 143.329
94.6101 78.3649 144.022
94.685 76.8614 145.721
92.9525 79.8079 145.413
92.5313 79.0247 147.144
94.4313 78.0199 147.846
92.9151 81.0658 147.982
91.7131 79.8275 148.929
91.808 78.4832 148.241
94.848 78.8847 150.085
91.9749 81.1162 149.641
90.854 80.962 150.768
91.1568 79.7209 149.922
95.1249 82.2425 150.885
95.3808 83.7339 151.947
90.5587 83.0219 151.231
95.5704 85.6255 153.299
90.3928 84.93 152.011
89.7695 84.4996 154.099
89.8579 82.6537 152.595
95.8741 88.0461 153.317
95.6766 87.2336 154.367
90.0845 86.3133 152.97
89.39 86.6569 154.518
95.8452 90.114 154.102
95.7356 92.4035 154.715
89.0733 88.0841 155.76
95.4639 93.549 155.167
89.2521 90.9202 155.982
88.795 93.4033 156.449
88.6453 89.8938 156.378
95.0426 95.054 155.48
88.9452 95.0187 157.231
95.2195 96.3197 156.636
94.7807 94.9918 156.362
94.5705 97.548 157.147
88.7696 96.7648 158.04
94.4483 98.7549 157.074
88.4249 98.2316 159.042
94.2731 99.7193 156.908
88.7696 99.026 159.229
89.2034 99.9785 159.367
89.4578 99.1712 159.983
93.605 100.653 156.975
93.6587 99.1686 157.527
93.1977 100.053 157.65
93.9993 98.8675 157.059
89.4968 100.968 159.38
89.8926 100.212 159.627
92.1833 99.9865 157.786
91.7229 101.388 157.142
92.8818 100.785 158.076
90.5398 101.875 157.276
90.1014 100.912 158.544
90.8597 101.779 156.893
90.7795 100.545 157.532
91.4427 102.247 156.797
91.2658 100.473 157.085
91.8098 73.6815 147.868
91.1321 72.0619 148.263
91.4162 71.1053 146.793
92.0729 72.7737 145.482
92.1656 75.1448 146.003
92.9628 72.5472 143.275
94.0019 72.583 143.735
94.2471 74.5226 144.451
94.4437 75.1507 146.681
91.2689 75.9118 148.788
90.7678 74.9367 149.577
91.5496 77.0449 147.141
94.6209 76.1769 148.685
90.8386 78.0493 149.252
90.3048 77.2113 149.989
94.9683 77.3203 150.864
90.5742 79.5865 151.451
89.813 79.763 153.302
89.9425 77.9987 151.446
95.0181 80.981 151.57
95.0936 79.5581 152.192
90.1317 81.0327 152.065
89.2408 81.7362 153.331
95.3367 82.4509 152.867
95.5157 84.2948 153.875
88.9844 84.1993 154.376
95.3033 86.4266 154.978
88.767 85.9298 155.478
95.5861 89.4354 155.119
95.1546 88.5173 155.594
88.3985 87.1727 156.54
95.3173 90.9484 155.476
94.9433 90.1933 156.304
88.5605 92.2688 157.361
88.624 89.5649 157.782
94.8722 92.2072 156.009
94.5344 91.7478 156.842
94.4411 93.1424 157.064
95.1324 92.7295 155.794
88.5893 94.0444 158.547
94.3283 94.4357 156.601
93.8461 93.945 156.814
88.6354 95.7315 159.299
93.8304 96.5086 156.377
93.7026 95.7904 157.311
89.052 96.8376 159.097
93.6569 97.3729 156.886
93.4397 96.5076 157.407
93.0761 97.0835 157.526
93.6897 98.3261 156.005
88.8716 98.0349 160.172
90.2188 99.1077 159.052
89.4382 98.3677 160.158
90.3298 98.1355 158.857
93.3219 98.6083 157.972
92.4437 97.7499 157.508
92.6069 99.5034 157.695
90.6796 99.4436 158.66
90.7893 98.5651 157.53
91.2453 99.1985 157.736
91.6924 99.6117 157.448
91.4769 98.4314 157.805
92.1221 99.2395 157.908
92.3659 68.0861 141.792
91.477 67.7296 143.697
91.6349 65.9666 142.438
92.5725 65.6914 141.807
93.3235 67.788 141.843
93.3873 66.0643 142.57
94.0745 68.4728 143.204
94.0941 66.9073 144.432
91.4096 69.8646 144.384
90.3353 68.9585 146.427
90.5281 67.3916 145.039
92.1313 70.7563 142.992
93.1179 69.7293 141.995
93.899 70.7448 144.243
94.0549 69.93 145.492
90.5384 71.3627 148.797
94.513 72.6474 145.536
94.6738 73.1483 147.914
90.4271 73.9543 150.618
94.7361 74.7961 149.881
90.0024 76.4053 151.21
89.4386 77.3915 153.446
89.5919 74.955 152.078
94.7186 77.4767 152.158
88.7374 79.6933 153.746
94.7527 79.739 153.2
88.4193 81.9401 154.372
95.0873 82.3763 153.662
94.8246 84.4953 154.703
88.0797 83.355 155.543
94.7351 86.2314 155.361
88.2044 84.6908 156.658
94.7036 88.0828 156.173
88.3938 86.4477 157.851
94.5267 89.8697 156.953
88.6711 91.3644 158.969
88.6101 88.2643 158.368
94.2062 90.2669 157.387
93.9763 91.5536 157.795
88.8213 93.3318 159.838
88.7398 91.0705 160.022
93.3949 93.5106 157.385
89.1646 95.3969 159.798
89.2708 93.6943 160.731
93.1719 95.2813 157.35
93.0247 93.5727 157.938
92.7355 95.0034 158.205
89.4072 96.336 159.427
89.5924 94.7535 160.522
91.7761 96.2849 157.055
91.4918 95.1543 157.797
91.089 96.6046 157.42
92.5122 96.3816 157.553
92.1386 94.7556 157.801
89.6537 97.3231 159.327
90.8618 97.295 157.898
90.2151 97.5258 158.678
91.403 97.5548 157.5
90.7737 96.7102 158.117
92.0579 97.5951 157.453
91.1914 45.0607 132.022
90.3517 46.2933 131.541
90.2727 43.1172 130.855
90.9461 42.9324 131.402
91.4952 44.358 133.377
91.0123 42.2405 133.325
91.0028 47.1601 133.109
90.4331 48.5819 133.703
91.5269 46.6228 134.622
91.6611 44.3322 135.423
91.2827 49.4709 134.729
92.1052 47.6005 136.13
90.4998 63.5049 142.858
89.702 63.5863 145.945
89.7884 61.9547 143.787
90.9819 62.5118 140.999
91.5476 64.0297 142.174
92.4544 62.6079 140.595
92.7121 64.0903 143.185
93.3508 62.0835 143.439
90.4382 65.3899 144.095
89.912 65.6911 146.391
93.6003 64.2782 143.703
94.039 67.1091 146.121
89.8391 68.9212 147.886
93.6503 69.0716 147.354
89.9364 70.8085 149.471
89.0475 71.4986 150.992
89.0754 69.1795 149.147
94.3933 71.1414 147.153
94.3302 72.472 149.561
89.6972 72.7949 150.986
88.9759 74.5528 153.084
94.5541 74.8572 151.207
88.6 77.566 153.872
94.3558 77.0731 152.945
88.1757 79.6568 154.848
93.9458 78.7458 153.803
87.993 81.3477 155.89
94.7526 81.6131 154.244
94.0542 80.4661 154.314
88.1136 82.6154 157.386
94.4583 83.0745 155.182
93.8556 83.1652 155.39
88.2872 84.0112 158.582
94.1587 85.3093 155.601
93.7419 86.4618 156.311
88.8857 86.3383 158.68
94.3252 88.0993 156.732
93.8181 88.3608 157.392
88.8143 88.8088 159.578
93.8608 90.5429 157.758
93.0333 88.3386 157.089
92.8904 89.9215 157.529
89.0848 91.4852 160.673
92.2433 91.5333 158.083
91.5203 90.3458 157.661
91.4727 92.0189 159.056
92.7613 91.1628 157.626
92.0905 89.7427 157.704
93.476 92.1029 158.204
89.6978 92.546 161.642
90.1348 94.543 160.847
90.8778 94.1133 159.751
90.362 92.5639 160.746
91.6924 93.2356 159.274
90.8457 92.0829 159.585
91.9419 93.5911 158.348
92.4953 92.7173 157.798
90.0802 96.2138 159.154
90.4872 96.0779 158.212
91.1293 95.1056 158.645
89.3552 42.2181 128.153
88.5674 43.5019 131.012
87.9787 40.1797 130.459
89.2617 38.7181 129.645
89.951 41.2204 129.004
89.637 39.4308 131.371
89.6317 44.4041 131.092
88.952 45.644 133.163
90.5874 40.5871 131.366
90.3069 41.5073 133.972
89.8461 47.5945 133.752
89.0464 46.7902 134.832
90.979 43.1198 136.125
89.5876 50.1221 135.393
88.9473 49.5685 137
90.5352 51.177 134.825
91.4902 50.8182 136.376
91.6333 47.2957 137.246
89.8237 51.8725 137.7
89.0855 50.5896 138.88
90.4654 53.2597 136.097
91.6119 53.5346 136.753
92.248 50.1009 137.451
92.2431 53.0016 138.192
92.2013 51.6074 139.468
89.8844 53.5395 138.893
88.89 52.7158 140.015
90.5969 55.2416 137.833
91.4402 55.0495 138.211
92.2717 54.8623 138.754
92.56 53.6273 140.758
89.8587 55.5898 139.924
90.6684 57.1811 139.022
89.9526 57.1322 141.48
91.6646 57.8449 139.524
92.0437 57.3156 140.623
92.7472 55.7653 141.509
90.5886 58.8099 141.053
89.5198 58.5565 143.273
91.3766 59.2209 140.374
92.5942 58.9856 140.174
92.6112 58.1558 142.58
89.5483 60.1913 143.582
90.3486 60.8379 141.605
88.7369 61.5161 145.188
91.8994 60.6463 139.792
93.0093 59.3338 142.652
93.2772 60.8848 140.714
92.6892 61.1467 143.764
88.5751 61.6489 147.047
92.7441 62.9855 145.24
89.2262 64.6321 147.028
88.726 66.0007 148.737
88.2652 62.7621 148.577
93.4003 64.9719 145.403
93.5575 66.1043 147.322
89.3793 66.9166 148.129
88.4716 68.3692 150.262
93.1115 67.1725 148.48
88.3288 71.4374 151.801
93.8123 70.5434 148.671
93.3815 69.0426 149.186
88.6086 74.5078 153.798
93.833 71.5243 150.456
94.2034 73.7014 151.868
88.0858 76.8689 154.713
93.5195 75.3336 152.415
88.0078 78.7246 156.095
93.4492 77.8658 153.839
93.1372 75.3294 153.56
92.8977 77.2769 154.676
88.141 80.5495 157.471
93.3235 79.8165 155.021
92.7945 80.3523 155.26
88.4048 81.8381 158.886
93.2858 81.8066 155.004
92.6311 82.3383 155.698
88.6739 83.7981 159.583
92.8675 84.1645 156.115
92.2205 83.0172 156.75
91.8832 84.5857 156.747
93.4031 84.5655 156.174
89.1311 86.2343 158.865
92.3279 86.1111 156.577
91.784 86.5709 156.552
93.066 86.3961 156.839
89.2629 88.4884 159.116
92.5588 88.2138 157.178
91.7661 88.4548 156.78
89.6004 89.4165 159.858
89.8787 91.2821 161.141
90.4814 91.0932 159.695
90.2783 89.4353 159.155
91.006 90.6702 158.587
90.7415 89.3969 157.724
91.2659 88.6414 157.117
87.7146 43.4974 133.413
88.0336 39.7161 133.235
88.8399 36.3609 132.114
89.1654 38.0403 134.068
87.7795 44.9397 135.078
89.8199 40.0702 133.886
90.165 40.6302 136.063
88.1055 47.2233 136.609
90.9299 44.4294 137.768
88.1297 48.0109 138.916
91.0013 46.9484 139.194
88.3141 49.6282 140.84
91.9392 49.075 139.303
92.0513 51.8967 141.497
88.5075 51.2306 141.823
91.8357 54.6632 142.979
88.9024 54.9852 140.797
88.2869 53.6666 141.968
92.0957 56.7348 143.912
88.8564 56.1847 142.293
88.6914 57.4539 143.914
91.5658 58.5519 145.259
88.469 59.2711 145.83
88.0524 58.2547 148.224
91.8948 59.7914 145.6
92.1828 61.5076 146.332
87.8251 59.5072 149.532
92.2578 62.1419 147.516
88.4254 65.6444 149.985
88.1115 61.2229 150.271
93.0415 63.9643 147.503
92.6466 64.4675 148.503
88.2874 68.109 151.326
92.6651 67.256 149.641
88.1368 71.1417 152.685
92.4297 69.3791 150.763
88.2658 73.8743 154.374
93.3561 71.2958 151.459
93.0141 70.9468 151.524
87.8889 76.3194 155.918
93.2804 72.8404 152.692
92.7373 73.7972 153.539
88.2578 77.9294 157.407
92.325 76.4564 154.382
88.3152 79.5699 158.378
92.2345 79.5409 155.036
91.5407 77.4305 154.46
91.4245 79.277 155.413
89.0368 81.2051 158.704
89.3578 82.9818 159.43
90.143 82.6748 158.247
89.7818 81.3031 158.927
90.6603 81.8562 156.533
90.2788 80.713 157.395
91.4406 81.2187 156.368
90.7077 79.88 155.807
92.0636 81.7321 155.826
89.5763 84.986 159.045
90.0701 84.4207 158.861
90.72 84.0309 157.375
91.2328 82.8868 156.598
89.7768 86.6585 159.117
90.2988 85.8032 158.678
90.6726 86.0554 157.302
91.2373 85.0842 156.773
89.9153 88.3461 158.823
90.3788 87.7689 158.196
90.6953 87.631 157.42
91.216 86.9424 156.727
87.6473 41.279 135.893
88.0762 37.6341 135.804
87.9048 42.9972 137.527
88.1468 40.2322 138.29
89.1145 39.1235 136.496
87.6712 45.6182 137.606
88.4681 43.6671 139.671
88.845 40.9446 139.224
89.7075 41.5299 138.099
90.2206 44.0643 138.469
88.1393 46.9815 140.406
90.6093 46.263 140.543
88.4737 48.4797 142.886
91.3366 49.425 141.305
91.2509 52.3337 142.941
88.4707 50.7155 143.768
91.281 55.1834 144.675
88.5741 53.0696 144.13
90.8197 56.882 146.037
88.3434 55.4926 143.734
88.3464 55.2485 145.817
90.7594 58.5624 147.699
88.3602 57.1197 146.38
88.9863 57.2169 150.383
88.1125 55.9583 148.911
89.9672 58.8909 149.391
89.5812 56.2014 149.244
91.0902 60.4974 147.481
88.5213 58.9764 151.644
89.8016 59.5423 151.027
90.6963 60.9117 148.854
88.419 65.334 151.208
88.7065 63.0239 151.55
89.1647 60.5818 152.121
90.3355 61.5761 151.322
90.6324 64.2961 151.33
90.7448 62.4401 149.436
91.8497 62.3363 149.2
88.2869 68.2261 152.72
91.4456 64.9329 150.463
90.6506 67.0099 151.415
92.1645 64.9417 149.826
88.3407 70.7837 153.859
91.1541 68.658 151.198
90.7702 69.6562 152.642
91.7455 67.6212 150.485
88.3491 73.062 154.926
91.2541 71.3512 152.244
90.7041 72.6575 153.294
92.0244 70.3393 151.751
88.4459 75.186 156.25
91.361 73.7859 152.545
90.4578 74.7663 153.997
92.3939 72.5739 152.322
88.7978 76.2275 157.205
88.9002 77.4374 158.48
90.0838 76.8154 157.61
89.4193 75.4948 156.749
90.705 76.1582 155.657
89.9507 74.9046 155.346
90.9918 76.1225 154.028
91.7761 75.2967 153.496
89.1185 79.7047 159.025
89.9135 78.9225 158.527
90.5107 78.236 157.114
90.9437 77.5138 155.617
88.5515 45.5661 140.948
89.0598 43.4194 141.931
89.5111 43.7378 140.057
88.6412 46.7695 143.259
89.5437 46.0281 143.375
90.0605 45.6818 141.51
88.8788 48.9687 145.301
89.4994 48.3654 145.019
90.1764 48.5905 143.575
90.588 48.8452 142.243
88.6371 50.995 146.069
89.4415 50.2966 146.509
90.0726 50.8173 145.107
90.7091 51.8259 143.858
88.3922 53.1534 146.09
89.1451 52.8622 147.02
89.9297 53.4939 146.346
90.5043 54.0648 145.362
88.4587 54.5928 147.982
89.3605 54.491 148.375
90.2001 55.9819 147.371
88.767 66.3837 152.863
88.9959 64.1407 153.43
89.8483 63.0645 153.283
88.6062 68.7014 154.086
89.2709 67.0481 154.057
89.9886 65.7366 153.39
88.8484 70.5823 154.314
89.6827 69.6541 154.479
90.2242 68.502 152.794
89.0038 72.8075 155.311
89.6675 71.663 154.43
90.2289 71.19 153.614
89.0078 74.3348 156.188
89.5968 73.6367 155.387
90.1159 73.0674 154.407
POLYGONS 2132  8528
3 0 1 2
3 0 3 4
3 2 3 0
3 4 5 6
3 3 5 4
3 6 7 8
3 5 7 6
3 7 9 8
3 10 1 0
3 11 1 10
3 4 12 0
3 12 10 0
3 6 13 4
3 13 12 4
3 8 14 6
3 14 13 6
3 15 8 9
3 14 8 15
3 16 11 10
3 17 11 16
3 12 18 10
3 18 16 10
3 13 19 12
3 19 18 12
3 14 20 13
3 20 19 13
3 21 14 15
3 20 14 21
3 16 22 17
3 18 22 16
3 23 22 18
3 19 23 18
3 24 23 19
3 20 24 19
3 25 24 20
3 21 25 20
3 26 27 28
3 26 29 30
3 28 29 26
3 29 31 30
3 32 33 34
3 27 32 34
3 27 26 32
3 26 35 32
3 30 36 26
3 36 35 26
3 37 30 31
3 36 30 37
3 38 33 32
3 39 33 38
3 35 40 32
3 40 38 32
3 36 41 35
3 41 40 35
3 42 36 37
3 41 36 42
3 43 44 45
3 43 46 47
3 45 46 43
3 39 47 46
3 39 38 47
3 38 48 47
3 40 49 38
3 49 48 38
3 50 41 51
3 50 49 41
3 49 40 41
3 42 51 41
3 2 44 43
3 2 1 44
3 1 52 44
3 3 2 43
3 47 3 43
3 5 3 47
3 48 5 47
3 7 5 48
3 49 7 48
3 49 9 7
3 49 50 9
3 50 53 9
3 1 11 52
3 52 11 54
3 9 53 15
3 53 55 15
3 11 17 54
3 54 17 56
3 15 55 21
3 55 57 21
3 58 17 22
3 58 59 17
3 59 56 17
3 22 23 60
3 58 22 60
3 23 24 61
3 60 23 61
3 62 61 24
3 62 24 63
3 63 24 25
3 57 25 21
3 63 25 57
3 58 64 59
3 60 64 58
3 65 64 60
3 61 65 60
3 66 65 61
3 62 66 61
3 67 68 69
3 67 70 71
3 69 70 67
3 71 72 73
3 70 72 71
3 72 74 73
3 75 76 77
3 68 75 77
3 68 67 75
3 67 78 75
3 71 79 67
3 79 78 67
3 73 80 71
3 80 79 71
3 81 73 74
3 80 73 81
3 82 76 75
3 83 76 82
3 78 84 75
3 84 82 75
3 79 85 78
3 85 84 78
3 80 86 79
3 86 85 79
3 87 80 81
3 86 80 87
3 28 83 82
3 28 27 83
3 27 88 83
3 29 28 82
3 84 29 82
3 31 29 84
3 31 84 89
3 89 84 85
3 86 90 85
3 90 89 85
3 91 86 87
3 90 86 91
3 34 92 93
3 33 92 34
3 88 27 34
3 93 88 34
3 89 94 37
3 31 89 37
3 90 95 89
3 95 94 89
3 96 90 91
3 95 90 96
3 97 98 99
3 97 99 92
3 97 92 39
3 39 92 33
3 94 100 42
3 37 94 42
3 101 95 102
3 101 100 95
3 100 94 95
3 96 102 95
3 45 103 104
3 44 103 45
3 98 97 46
3 98 46 104
3 104 46 45
3 39 46 97
3 51 105 50
3 51 42 100
3 51 100 105
3 105 100 106
3 107 100 101
3 106 100 107
3 44 52 103
3 103 52 108
3 105 109 53
3 50 105 53
3 110 106 111
3 110 109 106
3 109 105 106
3 107 111 106
3 52 54 108
3 108 54 112
3 109 113 55
3 53 109 55
3 114 109 110
3 113 109 114
3 54 56 112
3 112 56 115
3 113 116 57
3 55 113 57
3 117 113 114
3 116 113 117
3 56 59 115
3 115 59 118
3 63 119 120
3 62 63 120
3 116 63 57
3 116 121 63
3 121 119 63
3 117 121 116
3 59 122 118
3 64 122 59
3 65 123 64
3 64 123 122
3 66 124 65
3 65 124 123
3 120 66 62
3 124 66 120
3 69 125 126
3 68 125 69
3 70 69 127
3 69 126 127
3 72 70 128
3 70 127 128
3 128 74 72
3 129 74 128
3 77 130 131
3 76 130 77
3 125 68 77
3 131 125 77
3 74 129 81
3 129 132 81
3 76 83 130
3 130 83 133
3 134 135 87
3 134 87 132
3 132 87 81
3 134 136 135
3 83 88 133
3 133 88 137
3 135 138 91
3 87 135 91
3 139 135 136
3 138 135 139
3 93 140 141
3 92 140 93
3 137 88 93
3 141 137 93
3 138 142 96
3 91 138 96
3 143 138 139
3 142 138 143
3 99 144 145
3 98 144 99
3 140 92 99
3 145 140 99
3 102 146 101
3 102 147 146
3 96 147 102
3 96 148 147
3 96 142 148
3 143 148 142
3 104 149 150
3 103 149 104
3 144 98 104
3 150 144 104
3 146 151 107
3 101 146 107
3 152 146 147
3 151 146 152
3 103 108 149
3 149 108 153
3 111 154 110
3 111 155 154
3 107 155 111
3 107 156 155
3 107 151 156
3 152 156 151
3 108 112 153
3 153 112 157
3 154 158 114
3 110 154 114
3 159 154 155
3 158 154 159
3 112 115 157
3 157 115 160
3 158 161 162
3 158 162 114
3 114 162 117
3 159 161 158
3 115 118 160
3 160 118 163
3 119 164 120
3 165 164 119
3 165 119 166
3 166 119 121
3 162 121 117
3 166 121 162
3 118 167 163
3 122 167 118
3 123 168 122
3 122 168 167
3 124 169 123
3 123 169 168
3 164 124 120
3 164 170 124
3 170 169 124
3 165 170 164
3 126 125 171
3 172 126 171
3 172 173 126
3 173 127 126
3 128 127 174
3 127 173 174
3 174 129 128
3 175 129 174
3 131 130 176
3 131 176 177
3 125 131 177
3 125 177 178
3 125 178 171
3 172 171 178
3 179 180 132
3 179 132 175
3 175 132 129
3 179 181 180
3 176 182 183
3 176 130 182
3 130 133 182
3 177 176 183
3 132 180 134
3 180 136 134
3 180 181 136
3 181 184 136
3 133 137 182
3 182 137 185
3 136 184 139
3 184 186 139
3 141 187 188
3 140 187 141
3 185 137 141
3 188 185 141
3 139 186 143
3 186 189 143
3 145 190 191
3 144 190 145
3 187 140 145
3 191 187 145
3 148 192 147
3 148 193 192
3 148 143 193
3 143 189 193
3 150 194 195
3 149 194 150
3 190 144 150
3 195 190 150
3 192 196 152
3 147 192 152
3 197 192 193
3 196 192 197
3 198 199 200
3 198 200 194
3 198 194 153
3 153 194 149
3 156 201 155
3 156 202 201
3 152 202 156
3 152 203 202
3 152 196 203
3 197 203 196
3 204 199 198
3 205 199 204
3 153 157 204
3 198 153 204
3 201 206 159
3 155 201 159
3 207 201 202
3 206 201 207
3 208 205 204
3 209 205 208
3 157 160 208
3 204 157 208
3 161 210 162
3 161 211 210
3 159 211 161
3 159 212 211
3 159 206 212
3 207 212 206
3 213 209 208
3 214 209 213
3 160 163 213
3 208 160 213
3 166 215 216
3 165 166 216
3 210 166 162
3 210 217 166
3 217 215 166
3 211 217 210
3 213 218 214
3 163 218 213
3 163 167 218
3 167 219 218
3 168 220 167
3 167 220 219
3 169 221 168
3 168 221 220
3 170 222 169
3 169 222 221
3 216 170 165
3 222 170 216
3 223 224 225
3 223 226 227
3 225 226 223
3 226 228 227
3 173 224 223
3 173 172 224
3 172 229 224
3 174 173 223
3 227 174 223
3 227 175 174
3 227 228 175
3 228 230 175
3 178 231 232
3 177 231 178
3 229 172 178
3 232 229 178
3 175 230 233
3 179 175 233
3 233 181 179
3 234 181 233
3 183 235 236
3 182 235 183
3 231 177 183
3 236 231 183
3 181 234 184
3 234 237 184
3 238 239 240
3 238 240 235
3 238 235 185
3 185 235 182
3 184 237 186
3 237 241 186
3 242 243 244
3 239 242 244
3 238 242 239
3 238 187 242
3 238 188 187
3 185 188 238
3 186 241 189
3 241 245 189
3 246 247 248
3 243 246 248
3 242 246 243
3 242 190 246
3 242 191 190
3 187 191 242
3 189 245 193
3 245 249 193
3 250 251 252
3 247 250 252
3 246 250 247
3 246 194 250
3 246 195 194
3 190 195 246
3 193 249 197
3 249 253 197
3 200 251 250
3 200 199 251
3 199 254 251
3 194 200 250
3 203 255 256
3 202 203 256
3 253 203 197
3 255 203 253
3 199 205 254
3 254 205 257
3 202 256 207
3 256 258 207
3 205 209 257
3 257 209 259
3 212 260 261
3 211 212 261
3 258 212 207
3 260 212 258
3 209 214 259
3 259 214 262
3 215 263 264
3 216 215 264
3 217 265 215
3 215 265 263
3 261 217 211
3 265 217 261
3 214 266 262
3 218 266 214
3 219 267 218
3 218 267 266
3 220 268 219
3 219 268 267
3 221 269 220
3 220 269 268
3 222 270 221
3 221 270 269
3 264 222 216
3 270 222 264
3 271 272 273
3 271 225 224
3 271 273 225
3 273 274 225
3 226 225 275
3 225 274 275
3 275 228 226
3 276 228 275
3 277 272 271
3 278 272 277
3 224 229 277
3 271 224 277
3 228 276 230
3 276 279 230
3 232 278 277
3 232 231 278
3 231 280 278
3 229 232 277
3 230 279 281
3 233 230 281
3 281 234 233
3 282 234 281
3 283 284 285
3 283 236 235
3 283 285 236
3 285 286 236
3 280 231 236
3 286 280 236
3 234 282 237
3 282 287 237
3 288 289 290
3 284 288 290
3 283 288 284
3 283 239 288
3 283 240 239
3 235 240 283
3 237 287 241
3 287 291 241
3 244 289 288
3 244 243 289
3 243 292 289
3 239 244 288
3 241 291 245
3 291 293 245
3 248 294 295
3 247 294 248
3 292 243 248
3 295 292 248
3 245 293 249
3 293 296 249
3 252 297 298
3 251 297 252
3 294 247 252
3 298 294 252
3 249 296 253
3 296 299 253
3 251 254 297
3 297 254 300
3 255 301 302
3 256 255 302
3 299 255 253
3 301 255 299
3 254 257 300
3 300 257 303
3 256 302 258
3 302 304 258
3 257 259 303
3 303 259 305
3 260 306 307
3 261 260 307
3 304 260 258
3 306 260 304
3 259 262 305
3 305 262 308
3 263 309 264
3 310 309 263
3 310 263 311
3 311 263 265
3 307 265 261
3 311 265 307
3 262 312 308
3 266 312 262
3 267 313 266
3 266 313 312
3 268 314 267
3 267 314 313
3 269 315 268
3 268 315 314
3 270 316 269
3 269 316 315
3 309 270 264
3 309 317 270
3 317 316 270
3 310 317 309
3 318 319 320
3 318 321 322
3 320 321 318
3 322 323 324
3 321 323 322
3 323 325 324
3 273 319 318
3 273 272 319
3 272 326 319
3 274 273 318
3 322 274 318
3 275 274 322
3 324 275 322
3 324 276 275
3 324 325 276
3 325 327 276
3 272 278 326
3 326 278 328
3 276 327 279
3 327 329 279
3 330 331 332
3 330 332 328
3 330 328 280
3 280 328 278
3 279 329 333
3 281 279 333
3 333 282 281
3 334 282 333
3 285 335 336
3 284 335 285
3 331 330 286
3 331 286 336
3 336 286 285
3 280 286 330
3 282 334 287
3 334 337 287
3 290 338 339
3 289 338 290
3 335 284 290
3 339 335 290
3 287 337 291
3 337 340 291
3 289 292 338
3 338 292 341
3 291 340 293
3 340 342 293
3 295 343 344
3 294 343 295
3 341 292 295
3 344 341 295
3 293 342 296
3 342 345 296
3 298 346 347
3 297 346 298
3 343 294 298
3 347 343 298
3 296 345 299
3 345 348 299
3 297 300 346
3 346 300 349
3 301 350 351
3 302 301 351
3 348 301 299
3 350 301 348
3 300 303 349
3 349 303 352
3 302 351 304
3 351 353 304
3 303 305 352
3 352 305 354
3 306 355 356
3 307 306 356
3 353 306 304
3 355 306 353
3 305 308 354
3 354 308 357
3 311 358 359
3 310 311 359
3 356 311 307
3 358 311 356
3 308 360 357
3 312 360 308
3 313 361 312
3 312 361 360
3 314 362 313
3 313 362 361
3 315 363 314
3 314 363 362
3 316 364 315
3 315 364 363
3 317 365 316
3 316 365 364
3 359 317 310
3 365 317 359
3 366 367 368
3 366 369 370
3 368 369 366
3 369 371 370
3 320 367 366
3 320 319 367
3 319 372 367
3 321 320 366
3 370 321 366
3 370 371 373
3 370 373 321
3 321 373 323
3 373 325 323
3 374 325 373
3 375 376 377
3 375 377 372
3 375 372 326
3 326 372 319
3 325 374 327
3 374 378 327
3 379 376 375
3 380 376 379
3 326 328 379
3 375 326 379
3 327 378 329
3 378 381 329
3 382 383 384
3 380 382 384
3 379 382 380
3 379 331 382
3 379 332 331
3 328 332 379
3 329 381 385
3 333 329 385
3 385 334 333
3 386 334 385
3 387 388 389
3 383 387 389
3 382 387 383
3 382 335 387
3 382 336 335
3 331 336 382
3 334 386 337
3 386 390 337
3 339 388 387
3 339 338 388
3 338 391 388
3 335 339 387
3 337 390 340
3 390 392 340
3 393 394 395
3 393 395 391
3 393 391 341
3 341 391 338
3 340 392 342
3 392 396 342
3 397 398 399
3 394 397 399
3 393 397 394
3 393 343 397
3 393 344 343
3 341 344 393
3 400 401 402
3 400 396 401
3 400 345 396
3 345 342 396
3 347 398 397
3 347 346 398
3 346 403 398
3 343 347 397
3 404 400 402
3 405 404 402
3 345 404 348
3 400 404 345
3 346 349 403
3 403 349 406
3 350 404 405
3 350 405 351
3 351 405 407
3 348 404 350
3 349 352 406
3 406 352 408
3 351 407 353
3 407 409 353
3 352 354 408
3 408 354 410
3 355 411 412
3 356 355 412
3 409 355 353
3 411 355 409
3 413 357 414
3 413 410 357
3 410 354 357
3 413 414 415
3 358 416 417
3 359 358 417
3 412 358 356
3 416 358 412
3 357 360 414
3 414 418 415
3 414 360 418
3 360 361 418
3 362 419 361
3 361 419 418
3 363 420 362
3 362 420 419
3 364 421 363
3 363 421 420
3 365 422 364
3 364 422 421
3 417 365 359
3 422 365 417
3 423 424 425
3 423 368 367
3 423 425 368
3 425 426 368
3 369 368 427
3 368 426 427
3 427 371 369
3 428 371 427
3 429 424 423
3 430 424 429
3 367 372 429
3 423 367 429
3 371 428 431
3 373 371 431
3 431 374 373
3 432 374 431
3 433 434 435
3 430 433 435
3 429 433 430
3 429 376 433
3 429 377 376
3 372 377 429
3 374 432 378
3 432 436 378
3 437 434 433
3 438 434 437
3 376 380 437
3 433 376 437
3 439 440 381
3 439 381 436
3 436 381 378
3 439 441 440
3 442 443 444
3 438 442 444
3 437 442 438
3 437 383 442
3 437 384 383
3 380 384 437
3 381 440 385
3 440 386 385
3 440 441 386
3 441 445 386
3 389 443 442
3 389 388 443
3 388 446 443
3 383 389 442
3 386 445 390
3 445 447 390
3 388 391 446
3 446 391 448
3 390 447 392
3 447 449 392
3 395 450 451
3 394 450 395
3 448 391 395
3 451 448 395
3 392 449 396
3 449 452 396
3 399 453 454
3 398 453 399
3 450 394 399
3 454 450 399
3 401 455 456
3 402 401 456
3 452 401 396
3 455 401 452
3 398 403 453
3 453 403 457
3 402 456 405
3 456 458 405
3 403 406 457
3 457 406 459
3 405 458 407
3 458 460 407
3 406 408 459
3 459 408 461
3 462 463 464
3 462 460 463
3 462 409 460
3 409 407 460
3 465 410 466
3 465 461 410
3 461 408 410
3 465 466 467
3 468 469 470
3 464 469 468
3 462 464 468
3 462 468 412
3 462 412 411
3 409 462 411
3 410 413 466
3 466 413 415
3 466 415 467
3 467 415 471
3 472 473 474
3 472 475 476
3 473 472 476
3 470 476 475
3 468 470 475
3 468 475 417
3 468 417 416
3 412 468 416
3 415 477 471
3 418 477 415
3 419 478 418
3 418 478 477
3 420 479 419
3 419 479 478
3 474 421 472
3 474 479 421
3 479 420 421
3 422 472 421
3 475 472 422
3 417 475 422
3 480 481 482
3 480 483 484
3 482 483 480
3 483 485 484
3 425 486 487
3 424 486 425
3 481 480 426
3 481 426 487
3 487 426 425
3 427 426 480
3 484 427 480
3 484 428 427
3 484 485 428
3 485 488 428
3 489 490 491
3 489 491 486
3 489 486 430
3 430 486 424
3 428 488 492
3 431 428 492
3 492 432 431
3 493 432 492
3 494 495 496
3 490 494 496
3 489 494 490
3 489 434 494
3 489 435 434
3 430 435 489
3 432 493 436
3 493 497 436
3 498 495 494
3 499 495 498
3 434 438 498
3 494 434 498
3 436 497 500
3 439 436 500
3 500 441 439
3 501 441 500
3 444 499 498
3 444 443 499
3 443 502 499
3 438 444 498
3 441 501 445
3 501 503 445
3 504 505 506
3 504 506 502
3 504 502 446
3 446 502 443
3 445 503 447
3 503 507 447
3 508 505 504
3 509 505 508
3 446 448 508
3 504 446 508
3 447 507 449
3 507 510 449
3 511 512 513
3 509 511 513
3 508 511 509
3 508 450 511
3 508 451 450
3 448 451 508
3 449 510 452
3 510 514 452
3 454 512 511
3 454 453 512
3 453 515 512
3 450 454 511
3 455 516 517
3 456 455 517
3 514 455 452
3 516 455 514
3 453 457 515
3 515 457 518
3 456 517 458
3 517 519 458
3 457 459 518
3 518 459 520
3 521 522 523
3 521 519 522
3 521 460 519
3 460 458 519
3 459 461 520
3 520 461 524
3 525 526 527
3 525 528 529
3 526 525 529
3 528 530 531
3 529 528 531
3 523 531 530
3 521 523 530
3 521 530 464
3 521 464 463
3 460 521 463
3 461 532 524
3 465 532 461
3 532 465 467
3 533 532 467
3 534 525 527
3 535 534 527
3 528 525 536
3 536 525 534
3 469 536 470
3 469 530 536
3 530 528 536
3 464 530 469
3 537 471 538
3 537 533 471
3 533 467 471
3 538 539 540
3 537 538 540
3 539 541 542
3 540 539 542
3 535 542 541
3 534 535 541
3 534 541 474
3 534 474 473
3 476 534 473
3 536 534 476
3 470 536 476
3 471 477 538
3 478 538 477
3 539 538 478
3 479 539 478
3 541 539 479
3 474 541 479
3 543 544 545
3 543 546 547
3 545 546 543
3 547 548 549
3 546 548 547
3 548 550 549
3 551 544 543
3 552 544 551
3 482 481 551
3 482 551 547
3 547 551 543
3 483 482 547
3 549 483 547
3 549 485 483
3 549 550 485
3 550 553 485
3 554 555 556
3 552 554 556
3 551 554 552
3 551 486 554
3 551 487 486
3 481 487 551
3 485 553 488
3 553 557 488
3 558 559 560
3 555 558 560
3 554 558 555
3 554 490 558
3 554 491 490
3 486 491 554
3 488 557 561
3 492 488 561
3 561 493 492
3 562 493 561
3 496 559 558
3 496 495 559
3 495 563 559
3 490 496 558
3 493 562 497
3 562 564 497
3 565 566 567
3 565 567 563
3 565 563 499
3 499 563 495
3 568 500 497
3 568 497 569
3 569 497 564
3 500 568 501
3 570 566 565
3 571 566 570
3 499 502 570
3 565 499 570
3 568 569 572
3 572 501 568
3 572 573 501
3 573 503 501
3 506 571 570
3 506 505 571
3 505 574 571
3 502 506 570
3 503 573 507
3 573 575 507
3 576 577 578
3 576 578 574
3 576 574 509
3 509 574 505
3 507 575 510
3 575 579 510
3 513 577 576
3 513 512 577
3 512 580 577
3 509 513 576
3 581 582 583
3 581 579 582
3 581 514 579
3 514 510 579
3 512 515 580
3 580 515 584
3 516 581 583
3 516 583 517
3 517 583 585
3 514 581 516
3 515 518 584
3 584 518 586
3 517 585 519
3 585 587 519
3 588 520 589
3 588 586 520
3 586 518 520
3 588 589 590
3 591 592 593
3 591 523 522
3 591 522 592
3 592 522 594
3 587 522 519
3 594 522 587
3 589 524 595
3 520 524 589
3 596 590 589
3 595 596 589
3 526 597 598
3 527 526 598
3 529 599 526
3 526 599 597
3 593 531 591
3 593 599 531
3 599 529 531
3 523 591 531
3 524 532 595
3 533 600 601
3 532 533 601
3 532 601 596
3 532 596 595
3 600 602 603
3 601 600 603
3 602 604 605
3 603 602 605
3 604 598 605
3 604 535 598
3 535 527 598
3 533 537 600
3 540 600 537
3 602 600 540
3 542 602 540
3 604 602 542
3 535 604 542
3 606 607 608
3 606 609 610
3 608 609 606
3 610 545 544
3 610 609 545
3 609 611 545
3 546 545 612
3 545 611 612
3 548 546 613
3 546 612 613
3 613 550 548
3 614 550 613
3 615 607 606
3 616 607 615
3 610 617 606
3 617 615 606
3 544 552 617
3 610 544 617
3 550 614 553
3 614 618 553
3 619 616 615
3 620 616 619
3 556 555 619
3 556 619 617
3 617 619 615
3 552 556 617
3 553 618 557
3 618 621 557
3 622 623 624
3 620 622 624
3 619 622 620
3 619 559 622
3 619 560 559
3 555 560 619
3 625 561 557
3 625 557 626
3 626 557 621
3 561 625 562
3 627 623 622
3 628 623 627
3 559 563 627
3 622 559 627
3 625 626 629
3 629 562 625
3 629 630 562
3 630 564 562
3 567 628 627
3 567 566 628
3 566 631 628
3 563 567 627
3 564 630 569
3 630 632 569
3 566 571 631
3 631 571 633
3 634 572 569
3 634 569 635
3 635 569 632
3 572 634 573
3 571 574 633
3 633 574 636
3 637 634 635
3 638 637 635
3 573 637 575
3 634 637 573
3 578 639 640
3 577 639 578
3 636 574 578
3 640 636 578
3 641 642 643
3 638 642 641
3 638 641 637
3 637 641 644
3 575 644 579
3 637 644 575
3 577 580 639
3 639 580 645
3 646 641 643
3 647 646 643
3 582 646 583
3 582 644 646
3 644 641 646
3 579 644 582
3 580 584 645
3 645 584 648
3 649 646 647
3 650 649 647
3 583 649 585
3 646 649 583
3 584 586 648
3 648 586 651
3 652 653 654
3 650 653 652
3 650 652 649
3 649 652 655
3 585 655 587
3 649 655 585
3 586 656 651
3 588 656 586
3 590 657 658
3 590 658 588
3 588 658 656
3 658 657 659
3 660 661 662
3 654 661 660
3 652 654 660
3 652 660 593
3 652 593 592
3 594 652 592
3 655 652 594
3 587 655 594
3 657 596 663
3 590 596 657
3 664 659 657
3 664 657 665
3 665 657 663
3 665 666 667
3 664 665 667
3 666 598 597
3 666 597 667
3 667 597 668
3 662 599 660
3 662 668 599
3 668 597 599
3 593 660 599
3 596 601 663
3 603 663 601
3 665 663 603
3 605 665 603
3 666 665 605
3 598 666 605
3 669 670 671
3 669 672 673
3 671 672 669
3 673 674 675
3 672 674 673
3 674 676 675
3 677 678 679
3 670 677 679
3 670 669 677
3 669 680 677
3 673 681 669
3 681 680 669
3 675 682 673
3 682 681 673
3 683 675 676
3 682 675 683
3 608 678 677
3 608 607 678
3 607 684 678
3 609 608 677
3 680 609 677
3 611 609 680
3 681 611 680
3 612 611 681
3 682 612 681
3 682 683 685
3 682 685 612
3 612 685 613
3 685 614 613
3 686 614 685
3 607 616 684
3 684 616 687
3 614 686 618
3 686 688 618
3 689 690 691
3 689 691 687
3 689 687 620
3 620 687 616
3 618 688 621
3 688 692 621
3 624 690 689
3 624 623 690
3 623 693 690
3 620 624 689
3 621 692 626
3 692 694 626
3 623 628 693
3 693 628 695
3 626 694 696
3 629 626 696
3 696 630 629
3 697 630 696
3 628 631 695
3 695 631 698
3 630 697 632
3 697 699 632
3 631 633 698
3 698 633 700
3 632 699 635
3 699 701 635
3 633 636 700
3 700 636 702
3 635 701 638
3 701 703 638
3 640 639 704
3 640 704 705
3 640 705 636
3 636 705 702
3 642 706 707
3 643 642 707
3 703 642 638
3 706 642 703
3 704 645 708
3 639 645 704
3 709 705 704
3 708 709 704
3 643 707 647
3 707 710 647
3 708 648 711
3 645 648 708
3 712 709 708
3 711 712 708
3 713 714 715
3 713 710 714
3 713 650 710
3 650 647 710
3 711 651 716
3 648 651 711
3 717 712 711
3 716 717 711
3 718 719 720
3 718 721 722
3 719 718 722
3 715 722 721
3 713 715 721
3 713 721 654
3 713 654 653
3 650 713 653
3 651 656 716
3 716 723 717
3 716 656 723
3 656 658 723
3 659 724 725
3 659 725 658
3 658 725 723
3 724 726 727
3 725 724 727
3 720 727 726
3 720 726 718
3 718 726 728
3 661 728 662
3 661 721 728
3 721 718 728
3 654 721 661
3 659 664 724
3 667 724 664
3 726 724 667
3 668 726 667
3 728 726 668
3 662 728 668
3 729 730 731
3 729 732 733
3 731 732 729
3 732 734 733
3 735 730 729
3 736 730 735
3 733 737 729
3 737 735 729
3 738 733 734
3 737 733 738
3 735 739 736
3 737 739 735
3 740 739 737
3 738 740 737
3 741 742 743
3 741 744 745
3 743 744 741
3 745 746 747
3 744 746 745
3 746 748 747
3 749 742 741
3 750 742 749
3 671 670 749
3 671 749 745
3 745 749 741
3 672 671 745
3 747 672 745
3 747 748 751
3 747 751 672
3 672 751 674
3 751 676 674
3 752 676 751
3 679 750 749
3 679 678 750
3 678 753 750
3 670 679 749
3 676 752 683
3 752 754 683
3 755 756 757
3 755 757 753
3 755 753 684
3 684 753 678
3 683 754 758
3 685 683 758
3 758 686 685
3 759 686 758
3 760 756 755
3 761 756 760
3 684 687 760
3 755 684 760
3 686 759 688
3 759 762 688
3 691 761 760
3 691 690 761
3 690 763 761
3 687 691 760
3 688 762 692
3 762 764 692
3 690 693 763
3 763 693 765
3 692 764 694
3 764 766 694
3 693 695 765
3 765 695 767
3 768 696 694
3 768 694 769
3 769 694 766
3 696 768 697
3 695 698 767
3 767 698 770
3 771 768 769
3 772 771 769
3 697 771 699
3 768 771 697
3 698 700 770
3 770 700 773
3 774 771 772
3 775 774 772
3 699 774 701
3 771 774 699
3 700 702 773
3 773 702 776
3 777 774 775
3 778 777 775
3 701 777 703
3 774 777 701
3 702 705 776
3 776 705 779
3 780 781 782
3 778 781 780
3 777 778 780
3 777 780 707
3 777 707 706
3 703 777 706
3 705 709 779
3 779 709 783
3 784 785 786
3 784 787 788
3 785 784 788
3 782 788 787
3 782 787 780
3 780 787 789
3 707 789 710
3 780 789 707
3 790 712 791
3 790 783 712
3 783 709 712
3 791 792 793
3 790 791 793
3 792 794 795
3 793 792 795
3 786 795 794
3 786 794 784
3 784 794 796
3 787 784 797
3 797 784 796
3 714 797 715
3 714 789 797
3 789 787 797
3 710 789 714
3 791 717 798
3 712 717 791
3 792 791 799
3 799 791 798
3 794 792 800
3 800 792 799
3 719 800 720
3 719 796 800
3 796 794 800
3 722 796 719
3 797 796 722
3 715 797 722
3 717 723 798
3 725 798 723
3 799 798 725
3 727 799 725
3 800 799 727
3 720 800 727
3 801 802 803
3 801 804 805
3 803 804 801
3 804 806 805
3 807 802 801
3 808 802 807
3 731 730 807
3 731 807 805
3 805 807 801
3 805 806 809
3 805 809 731
3 731 809 732
3 809 734 732
3 810 734 809
3 811 808 807
3 812 808 811
3 730 736 811
3 807 730 811
3 734 810 738
3 810 813 738
3 814 812 811
3 815 812 814
3 736 739 816
3 736 816 811
3 811 816 814
3 739 740 817
3 816 739 817
3 740 818 817
3 740 738 818
3 738 813 818
3 819 815 814
3 820 815 819
3 816 821 814
3 821 819 814
3 817 822 816
3 822 821 816
3 823 817 818
3 823 824 817
3 824 822 817
3 823 825 824
3 826 820 819
3 827 820 826
3 821 828 819
3 828 826 819
3 822 829 821
3 829 828 821
3 824 830 822
3 830 829 822
3 831 824 825
3 830 824 831
3 826 832 827
3 832 833 834
3 832 826 833
3 826 828 833
3 829 835 828
3 835 833 828
3 830 836 829
3 836 835 829
3 837 830 831
3 836 830 837
3 838 834 833
3 839 834 838
3 835 840 833
3 840 838 833
3 836 841 835
3 841 840 835
3 842 836 837
3 841 836 842
3 838 843 839
3 843 844 845
3 843 838 844
3 838 840 844
3 841 846 840
3 846 844 840
3 847 841 842
3 847 848 841
3 848 846 841
3 847 849 848
3 743 845 844
3 743 742 845
3 742 850 845
3 744 743 844
3 846 744 844
3 746 744 846
3 848 746 846
3 848 748 746
3 848 849 748
3 849 851 748
3 852 853 854
3 852 854 850
3 852 850 750
3 750 850 742
3 748 851 855
3 751 748 855
3 855 752 751
3 856 752 855
3 857 853 852
3 858 853 857
3 750 753 857
3 852 750 857
3 752 856 754
3 856 859 754
3 757 858 857
3 757 756 858
3 756 860 858
3 753 757 857
3 861 758 754
3 861 754 862
3 862 754 859
3 758 861 759
3 756 761 860
3 860 761 863
3 861 862 864
3 864 759 861
3 864 865 759
3 865 762 759
3 761 763 863
3 863 763 866
3 762 865 764
3 865 867 764
3 763 765 866
3 866 765 868
3 869 870 871
3 869 867 870
3 869 766 867
3 766 764 867
3 765 767 868
3 868 767 872
3 873 869 871
3 874 873 871
3 766 873 769
3 869 873 766
3 767 770 872
3 872 770 875
3 876 873 874
3 877 876 874
3 769 876 772
3 873 876 769
3 770 773 875
3 875 773 878
3 879 880 881
3 877 880 879
3 877 879 876
3 876 879 882
3 772 882 775
3 876 882 772
3 773 776 878
3 878 776 883
3 884 879 881
3 885 884 881
3 882 879 886
3 886 879 884
3 775 886 778
3 882 886 775
3 776 779 883
3 883 779 887
3 888 884 885
3 889 888 885
3 781 888 782
3 781 886 888
3 886 884 888
3 778 886 781
3 890 783 891
3 890 887 783
3 887 779 783
3 891 892 893
3 890 891 893
3 892 894 895
3 893 892 895
3 894 786 785
3 894 785 895
3 895 785 896
3 889 788 888
3 889 896 788
3 896 785 788
3 782 888 788
3 783 790 891
3 793 891 790
3 892 891 793
3 795 892 793
3 894 892 795
3 786 894 795
3 803 897 898
3 802 897 803
3 804 803 899
3 803 898 899
3 899 806 804
3 900 806 899
3 802 808 897
3 897 808 901
3 806 900 902
3 809 806 902
3 902 810 809
3 903 810 902
3 808 812 901
3 901 812 904
3 810 903 813
3 903 905 813
3 812 815 904
3 904 815 906
3 813 905 818
3 905 907 818
3 815 820 906
3 906 820 908
3 818 907 909
3 823 818 909
3 909 825 823
3 910 825 909
3 820 827 908
3 908 827 911
3 825 910 831
3 910 912 831
3 913 827 832
3 913 914 827
3 914 911 827
3 832 834 913
3 831 912 837
3 912 915 837
3 913 916 914
3 916 913 834
3 916 834 917
3 917 834 839
3 837 915 842
3 915 918 842
3 839 919 917
3 843 919 839
3 919 843 845
3 920 919 845
3 842 918 921
3 847 842 921
3 921 849 847
3 922 849 921
3 845 850 920
3 920 850 923
3 849 922 851
3 922 924 851
3 854 925 926
3 853 925 854
3 923 850 854
3 926 923 854
3 851 924 927
3 855 851 927
3 927 856 855
3 928 856 927
3 853 858 925
3 925 858 929
3 856 928 859
3 928 930 859
3 858 860 929
3 929 860 931
3 859 930 862
3 930 932 862
3 860 863 931
3 931 863 933
3 934 864 862
3 934 862 935
3 935 862 932
3 864 934 865
3 863 866 933
3 933 866 936
3 937 934 935
3 938 937 935
3 865 937 867
3 934 937 865
3 866 868 936
3 936 868 939
3 870 937 938
3 870 938 871
3 871 938 940
3 867 937 870
3 868 872 939
3 939 872 941
3 942 943 944
3 942 940 943
3 942 874 940
3 874 871 940
3 945 875 946
3 945 941 875
3 941 872 875
3 946 947 948
3 945 946 948
3 947 949 950
3 948 947 950
3 949 951 952
3 950 949 952
3 944 952 951
3 944 951 942
3 942 951 953
3 874 953 877
3 942 953 874
3 946 878 954
3 875 878 946
3 947 946 955
3 955 946 954
3 949 947 956
3 956 947 955
3 951 949 957
3 957 949 956
3 880 957 881
3 880 953 957
3 953 951 957
3 877 953 880
3 954 883 958
3 878 883 954
3 955 954 959
3 959 954 958
3 956 955 960
3 960 955 959
3 957 956 961
3 961 956 960
3 881 961 885
3 957 961 881
3 958 887 962
3 883 887 958
3 959 958 963
3 963 958 962
3 960 959 964
3 964 959 963
3 961 960 965
3 965 960 964
3 885 965 889
3 961 965 885
3 887 890 962
3 893 962 890
3 963 962 893
3 895 963 893
3 964 963 895
3 896 964 895
3 965 964 896
3 889 965 896
3 898 897 966
3 898 967 899
3 966 967 898
3 899 967 900
3 966 901 968
3 897 901 966
3 967 966 969
3 969 966 968
3 900 970 902
3 900 967 970
3 967 969 970
3 902 970 903
3 968 971 972
3 968 901 971
3 901 904 971
3 969 968 972
3 973 969 972
3 970 969 973
3 974 970 973
3 974 903 970
3 974 975 903
3 975 905 903
3 904 906 971
3 971 906 976
3 905 975 907
3 975 977 907
3 906 908 976
3 976 908 978
3 907 977 979
3 909 907 979
3 979 910 909
3 980 910 979
3 908 911 978
3 978 911 981
3 910 980 912
3 980 982 912
3 911 914 981
3 981 914 983
3 912 982 915
3 982 984 915
3 914 985 983
3 916 985 914
3 985 916 917
3 986 985 917
3 915 984 918
3 984 987 918
3 917 988 986
3 919 988 917
3 920 989 990
3 920 990 919
3 919 990 988
3 989 991 992
3 990 989 992
3 921 991 993
3 921 987 991
3 921 918 987
3 992 991 987
3 921 993 922
3 989 923 994
3 920 923 989
3 991 989 995
3 995 989 994
3 993 991 996
3 996 991 995
3 922 996 924
3 993 996 922
3 926 997 998
3 925 997 926
3 994 923 926
3 994 926 999
3 999 926 998
3 995 994 999
3 1000 995 999
3 1000 1001 1002
3 1000 1002 995
3 995 1002 996
3 924 1003 927
3 924 996 1003
3 996 1002 1003
3 927 1003 928
3 925 929 997
3 997 929 1004
3 1005 1002 1001
3 1006 1005 1001
3 1003 1002 1007
3 1007 1002 1005
3 928 1007 930
3 1003 1007 928
3 929 931 1004
3 1004 931 1008
3 1009 1005 1006
3 1010 1009 1006
3 1007 1005 1011
3 1011 1005 1009
3 930 1011 932
3 1007 1011 930
3 931 933 1008
3 1008 933 1012
3 1013 1009 1010
3 1014 1013 1010
3 1011 1009 1015
3 1015 1009 1013
3 932 1015 935
3 1011 1015 932
3 933 936 1012
3 1012 936 1016
3 1017 1013 1014
3 1018 1017 1014
3 1015 1013 1019
3 1019 1013 1017
3 935 1019 938
3 1015 1019 935
3 1020 939 1021
3 1020 1016 939
3 1016 936 939
3 1021 1022 1023
3 1020 1021 1023
3 1022 1024 1025
3 1023 1022 1025
3 1018 1025 1024
3 1018 1024 1017
3 1017 1024 1026
3 1019 1017 1027
3 1027 1017 1026
3 938 1027 940
3 1019 1027 938
3 1021 941 1028
3 939 941 1021
3 1022 1021 1029
3 1029 1021 1028
3 1024 1022 1030
3 1030 1022 1029
3 1026 1024 1031
3 1031 1024 1030
3 943 1031 944
3 943 1027 1031
3 1027 1026 1031
3 940 1027 943
3 941 945 1028
3 948 1028 945
3 1029 1028 948
3 950 1029 948
3 1030 1029 950
3 952 1030 950
3 1031 1030 952
3 944 1031 952
3 972 971 1032
3 972 1033 973
3 1032 1033 972
3 973 1034 974
3 1033 1034 973
3 974 1034 975
3 1032 976 1035
3 971 976 1032
3 1033 1032 1036
3 1036 1032 1035
3 1034 1033 1037
3 1037 1033 1036
3 975 1037 977
3 1034 1037 975
3 1035 978 1038
3 976 978 1035
3 1036 1035 1039
3 1039 1035 1038
3 1037 1036 1040
3 1040 1036 1039
3 977 1041 979
3 977 1037 1041
3 1037 1040 1041
3 979 1041 980
3 1038 981 1042
3 978 981 1038
3 1039 1038 1043
3 1043 1038 1042
3 1040 1039 1044
3 1044 1039 1043
3 1041 1040 1045
3 1045 1040 1044
3 980 1045 982
3 1041 1045 980
3 1042 983 1046
3 981 983 1042
3 1043 1042 1047
3 1047 1042 1046
3 1044 1043 1048
3 1048 1043 1047
3 1045 1044 1049
3 1049 1044 1048
3 982 1049 984
3 1045 1049 982
3 983 985 1046
3 986 1046 985
3 986 1050 1046
3 1050 1047 1046
3 1048 1047 1051
3 1051 1047 1050
3 1049 1048 1052
3 1052 1048 1051
3 984 1052 987
3 1049 1052 984
3 986 988 1050
3 990 1050 988
3 1051 1050 990
3 992 1051 990
3 1052 1051 992
3 987 1052 992
3 998 997 1053
3 998 1054 999
3 1053 1054 998
3 999 1055 1000
3 1054 1055 999
3 1000 1055 1001
3 1053 1004 1056
3 997 1004 1053
3 1054 1053 1057
3 1057 1053 1056
3 1055 1054 1058
3 1058 1054 1057
3 1001 1058 1006
3 1055 1058 1001
3 1056 1008 1059
3 1004 1008 1056
3 1057 1056 1060
3 1060 1056 1059
3 1058 1057 1061
3 1061 1057 1060
3 1006 1061 1010
3 1058 1061 1006
3 1059 1012 1062
3 1008 1012 1059
3 1060 1059 1063
3 1063 1059 1062
3 1061 1060 1064
3 1064 1060 1063
3 1010 1064 1014
3 1061 1064 1010
3 1062 1016 1065
3 1012 1016 1062
3 1063 1062 1066
3 1066 1062 1065
3 1064 1063 1067
3 1067 1063 1066
3 1014 1067 1018
3 1064 1067 1014
3 1016 1020 1065
3 1023 1065 1020
3 1066 1065 1023
3 1025 1066 1023
3 1067 1066 1025
3 1018 1067 1025
