# vtk DataFile Version 3.0
this file was written using fslvtkio
ASCII
DATASET POLYDATA
POINTS 642 float
112.956 113.801 42.0271
83.0579 112.968 40.7984
88.5866 95.7369 34.6459
107.009 96.1681 35.7905
108.781 104.498 64.0192
106.608 99.2539 18.4185
90.8657 98.7524 14.4613
88.5219 105.034 62.7901
98.1969 115.98 51.3395
98.102 91.3276 46.0514
98.8449 85.9373 22.3135
98.3006 118.676 31.4845
92.4711 111.191 62.849
103.851 111.082 63.0574
97.5782 105.53 71.4012
93.6707 98.2139 57.612
102.993 97.4727 58.4895
94.6016 108.361 22.9583
99.6885 96.6068 7.11052
103.368 109.734 23.9861
93.5626 88.3335 9.34986
104.843 88.5082 12.5281
108.114 101.389 49.9471
110.788 110.838 55.4171
108.325 106.848 40.4058
107.896 95.7919 25.8249
109.245 108.975 30.3651
85.8283 110.498 54.4739
88.8877 101.554 48.8526
87.7213 105.559 38.2768
88.592 107.007 28.6756
88.3402 94.7407 22.4137
107.745 120.051 35.979
107.619 118.961 49.7221
96.7965 122.02 43.8335
88.4384 119.061 35.457
87.891 118.826 50.2945
105.74 88.6367 27.8417
96.4215 88.6084 37.7445
103.723 91.2355 41.3474
91.8755 88.9439 25.7845
92.4104 91.4641 40.8192
98.1314 111.299 63.0554
102.051 111.77 72.1221
93.4507 111.745 72.8022
105.573 104.34 71.1192
109.03 110.384 67.1221
100.995 110.754 53.9348
95.5847 110.591 53.8458
87.0888 110.529 66.5198
90.4176 104.573 70.2915
94.7653 99.2869 66.2963
101.28 99.4369 66.5277
98.1842 97.7682 59.3085
106.35 99.7831 62.3548
90.3327 100.287 61.4243
96.1748 95.6272 51.2772
100.331 95.7516 51.8016
97.2009 101.544 15.0304
101.435 102.219 16.2715
99.005 107.524 23.402
104.354 103.104 20.54
103.539 97.9924 12.4213
94.6984 97.5779 9.20381
93.2798 103.116 17.6764
95.9794 115.108 26.1216
101.099 115.26 26.8553
99.518 87.9879 9.337
103.679 92.8145 7.65171
95.9735 92.6905 4.0583
105.741 94.0901 14.7449
101.982 86.3884 16.7397
96.3931 85.9519 15.0754
91.3805 93.1861 10.0394
109.804 106.617 53.3458
109.619 108.973 47.3632
108.301 103.841 45.4195
111.598 110.385 40.8643
111.516 112.154 47.5199
110.621 108.204 60.6153
107.969 103.347 57.2846
107.233 99.166 42.4936
108.162 101.155 37.4781
108.014 101.658 32.9342
108.724 108.868 35.5307
106.888 102.452 28.9258
113.082 111.874 35.4295
107.509 96.035 30.6981
106.952 97.2743 22.0837
106.046 103.634 25.7589
86.9223 106.336 52.3519
88.064 103.905 44.4296
86.8065 108.509 45.896
88.6183 100.989 36.6642
88.6377 98.792 41.7395
89.1334 103.372 56.0657
86.5136 108.387 59.6521
84.8159 111.745 46.7807
85.0479 109.592 39.4883
87.9567 106.242 33.4281
88.6084 99.8445 30.0821
89.8823 100.654 25.7648
87.5964 95.3939 29.0214
84.6313 110.345 34.0221
90.1736 102.429 21.5479
89.1271 96.3787 17.8967
108.561 121.924 43.5425
102.811 122.257 47.4439
103.041 122.709 40.2922
97.2351 120.739 49.2134
102.765 118.123 51.8504
111.705 117.588 46.1925
111.659 117.566 39.1053
102.913 120.443 33.3198
97.4693 121.72 37.5802
91.8756 122.793 39.9455
91.5991 122.586 47.9028
87.0665 120.94 43.2832
93.1833 118.217 52.1971
93.181 120.038 32.7197
84.7742 116.288 38.277
84.3608 116.699 45.5293
102.139 88.3387 34.2387
102.607 84.9414 39.3495
106.239 87.6376 36.1378
101.456 90.1221 44.5074
96.8727 85.882 41.2995
97.9488 88.2776 30.8911
102.293 87.4548 24.4756
106.026 91.6598 31.363
104.793 94.1128 38.4413
91.0896 89.0846 35.4119
92.1885 83.4408 38.7946
93.9944 87.7966 33.8356
94.3384 90.2264 44.2701
90.6902 94.2215 38.1034
89.1296 91.275 30.4572
95.3575 87.7109 23.4422
107.711 110.769 59.7697
104.993 111.133 52.0266
109.136 113.87 50.9861
110.325 114.424 32.6466
106.204 115.933 29.2449
107.294 109.846 26.6905
103.076 96.0587 49.51
106.093 99.3195 54.4743
105.708 97.0369 46.0431
108.103 91.0135 25.6545
106.772 91.7815 19.0077
106.315 87.5288 20.0162
91.5662 111.026 51.7222
88.9812 111.037 59.1463
87.0503 113.718 50.9881
86.7033 113.389 31.6626
90.2434 108.486 25.1467
90.8333 115.083 28.3163
90.2489 96.5188 45.3668
90.4392 99.3095 53.2881
92.9755 95.765 48.9028
92.0407 86.8193 16.7541
89.9245 90.7575 15.0393
89.3088 91.5153 23.9695
99.6533 111.31 67.4661
97.6696 111.569 70.9755
96.0162 111.228 67.7184
95.5627 108.879 72.8263
99.6797 108.958 72.3229
103.33 111.155 67.6119
101.192 111.211 63.0842
95.1028 111.288 63.0023
92.6712 111.19 68.1129
104.159 108.715 72.8499
105.895 111.188 70.8155
106.98 108.373 70.5919
106.349 111.122 66.2876
101.861 105.869 71.7476
107.691 104.761 68.3058
108.889 107.321 66.9473
99.5964 110.703 58.8426
96.7382 110.682 58.7083
98.2858 110.584 54.1852
94.3297 110.918 58.4824
102.009 110.949 58.6743
99.7156 113.279 51.9745
96.7122 113.332 52.129
89.9306 110.708 70.6958
91.6739 108.398 72.8183
88.838 108.042 69.8506
93.7434 105.184 72.139
90.0212 111.395 66.5377
87.8791 107.781 65.7632
88.7298 105.277 67.0778
98.0261 100.187 66.7179
99.7931 97.3547 62.8646
96.4392 97.2373 62.9178
100.758 97.4096 59.4119
102.632 97.1327 63.1101
99.9905 102.775 70.1931
96.0281 102.111 70.1682
93.4971 97.3423 62.1958
95.5304 97.6867 58.8397
104.392 99.0093 64.9822
103.392 101.416 69.4111
106.262 101.553 67.0442
104.946 97.6017 60.6052
107.614 102.297 63.4502
92.7107 101.675 69.355
91.776 99.5397 64.9033
90.2442 102.367 66.4402
91.7986 98.5608 59.794
89.1782 102.6 62.4188
97.0395 97.5587 55.6671
99.4953 97.7967 55.9755
98.2896 95.9479 52.2368
101.296 97.0732 55.6621
95.2438 97.1683 54.9732
97.3537 93.7356 48.8419
99.0893 94.0325 49.0996
99.3832 101.604 15.4629
100.372 104.482 20.0866
97.9786 103.868 19.79
100.927 108.618 23.1238
101.901 105.748 21.4842
100.381 99.49 12.0765
98.4036 98.8886 11.3837
96.3782 104.816 19.495
97.0006 107.42 22.3555
103.093 103.17 18.5254
102.557 99.9631 13.7846
104.435 100.839 16.3039
101.568 97.1557 9.58184
103.415 105.764 23.0358
105.679 101.041 18.9551
105.104 98.6207 15.4031
96.1817 99.7149 11.6783
95.3013 102.751 16.4626
93.9463 100.606 13.3946
94.3252 105.271 20.9066
97.1513 97.0469 7.33224
92.7687 98.3767 12.051
91.9574 101.052 15.4715
97.4081 111.434 24.0256
99.8739 112.105 24.2129
98.444 114.45 26.3387
102.502 112.847 24.9374
95.0381 111.939 24.1767
97.2504 117.183 28.9527
99.7532 117.378 29.0126
101.289 90.3776 6.74448
100.256 92.6118 4.6662
98.4597 90.3088 5.80497
98.1206 95.0766 4.47211
102.009 95.0682 6.86861
103.915 90.3272 9.07917
102.4 88.4297 9.71278
96.7059 88.4528 8.33334
95.2984 90.4332 6.4932
103.452 95.2072 10.2547
104.581 93.0296 11.3774
105.104 96.1627 13.4997
105.303 91.0526 12.5773
106.302 96.8096 16.4871
101.156 86.3454 12.5363
98.0239 86.4056 11.6044
99.4159 85.7746 15.1241
95.3976 86.8006 11.2809
103.257 86.8336 13.3032
100.293 85.6895 18.7298
97.9322 85.6529 18.1381
93.027 92.4344 6.22744
94.9132 95.298 6.06018
92.4654 95.8302 9.52267
91.8006 90.2465 8.33064
90.8994 96.0636 12.3597
109.747 107.386 50.2819
108.782 106.539 47.0036
109.023 104.917 49.3967
108.655 105.304 43.4416
108.758 108.363 44.2137
110.568 109.467 51.2024
111.146 108.682 54.3871
108.497 104.241 51.8076
108.309 102.589 48.0264
109.653 110.176 43.3786
110.529 110.499 46.8524
112.022 111.348 43.7369
110.452 111.098 51.2085
108.785 109.352 40.913
112.92 111.909 41.2686
112.418 113.325 45.102
110.246 107.455 56.5531
108.575 105.149 55.183
109.126 106.065 59.0096
107.811 102.646 53.6734
111.664 109.208 57.7963
109.449 106.671 63.0403
108.524 104.014 60.7152
108.285 101.585 43.667
108.527 103.166 40.9368
107.867 100.439 40.0947
108.183 104.023 39.3907
107.529 100.298 45.9153
107.122 97.9599 39.234
107.306 98.5408 36.4698
108.094 105.363 34.4114
107.372 106.414 32.929
107.77 101.775 30.6726
107.351 106.102 30.6773
109.121 108.86 33.1041
108.499 107.999 37.68
108.128 104.401 36.8137
107.658 98.646 29.3267
106.739 99.0258 27.4722
112.018 109.871 35.144
110.45 109.364 38.0624
113.189 110.809 37.9494
111.562 110.572 32.8719
112.924 113 38.5521
108.013 101.505 35.2017
108.235 98.5599 31.4348
108.04 98.5003 33.8345
108.066 95.9349 28.295
107.242 96.0709 33.1492
105.971 99.8117 26.1814
107.167 103.548 27.5178
106.401 100.599 24.2309
107.929 106.49 28.1062
106.913 96.6042 24.2629
107.137 98.4735 20.3809
106.436 101.242 22.1692
87.9165 105.118 48.1404
87.4623 106.347 45.0616
87.1167 107.426 48.9961
87.253 107.369 42.0525
87.8599 105.088 41.6307
88.732 102.768 47.0623
88.3052 104.244 51.0616
86.1683 108.534 53.5753
85.8748 109.302 50.2333
88.0455 102.958 40.0353
88.6135 101.826 42.6806
88.549 100.026 39.2
88.9295 100.225 44.8092
88.3639 103.451 37.4787
88.7057 98.204 35.6502
88.5109 97.4575 38.2699
88.1893 105.308 54.7475
86.6236 107.405 55.9896
87.9357 106.05 58.3959
85.2694 109.638 57.8107
88.8388 102.705 52.599
88.7723 104.242 59.5683
87.7624 106.933 62.098
85.3772 109.924 46.2794
85.9427 108.877 42.4174
83.9766 110.665 43.0755
86.6458 107.779 39.1491
85.527 110.81 50.0884
83.3551 112.461 43.8643
83.5437 110.846 39.8377
88.8459 102.788 31.4824
89.3844 100.254 27.9484
88.9646 103.269 29.5096
89.1237 97.7596 23.9414
88.6725 97.3572 26.3541
88.745 102.814 34.0612
87.6859 105.417 35.2848
88.2655 106.479 31.1434
89.7655 104.111 27.7296
87.8517 97.68 29.7007
88.616 100.829 33.9728
88.2575 97.7841 32.6301
87.5777 95.0237 25.7785
87.9543 95.7581 32.1232
86.7576 108.242 36.6842
86.7317 108.561 34.1202
84.7231 109.691 36.5122
87.0076 109.15 31.5373
83.3143 111.881 37.2164
89.8563 101.587 23.8401
88.9446 98.6779 21.8039
88.7894 99.7511 19.5623
88.9505 95.6518 20.2442
90.3423 104.497 25.3158
90.0221 101.035 17.7052
89.7225 97.6289 16.0313
105.71 122.344 45.6824
102.844 122.464 44.1695
105.765 122.61 42.2092
100.162 121.865 42.1064
99.9212 121.974 45.1712
105.357 121.045 48.6205
107.745 121.019 47.0355
107.576 121.399 39.7578
105.441 122.255 38.2561
100.05 121.468 48.0898
102.715 120.647 49.972
100.129 119.703 50.5369
105.257 118.78 50.8249
96.953 121.909 46.7484
97.5729 118.841 50.958
100.406 117.094 51.9487
110.476 119.949 44.9942
109.96 120.085 41.3136
111.734 118.035 42.5965
109.617 119.1 37.8345
109.756 118.958 48.0674
112.642 115.849 43.9117
112.889 115.483 40.5224
102.971 122.054 36.6852
100.337 121.904 38.8157
100.351 121.343 35.3202
97.2248 122.283 40.6612
105.525 120.946 34.7964
100.556 119.467 32.3702
97.8739 120.297 34.4427
91.6893 122.845 44.2858
89.0313 122.52 45.8583
89.3046 122.688 42.1538
87.2115 120.432 46.7891
89.251 121.16 48.8988
94.2374 122.604 45.647
94.1389 122.58 42.0305
89.8965 121.633 38.0241
87.8415 120.693 39.2923
91.9866 120.825 50.4484
94.4007 122.073 49.0631
94.8027 120.13 51.2676
90.3909 118.863 51.4253
95.8854 116.995 52.2768
94.7325 122.657 38.627
92.5004 121.628 36.359
95.1476 121.186 35.2609
90.4885 120.038 34.1565
95.856 119.38 32.076
86.0276 118.754 40.3522
85.5952 118.665 44.1556
84.1353 116.855 41.5485
85.8663 118.413 47.8098
86.6621 117.903 36.8358
83.5066 114.425 39.6469
83.4843 114.89 43.2603
102.756 86.9913 37.1294
105.17 85.4485 38.1109
104.863 87.2882 34.8227
105.742 88.4317 39.2839
104.331 86.8732 40.8355
100.128 87.6724 38.8045
100.172 89.1624 36.5624
103.96 88.1257 30.7365
106.006 88.8423 32.3456
102.216 86.6011 42.4248
99.9221 86.106 40.6822
99.687 86.8923 43.8094
96.2497 86.7352 39.2976
102.809 90.1817 42.8586
99.6775 90.7738 45.6144
97.4086 87.4034 44.56
100.006 88.8502 32.6443
101.645 87.9464 29.6072
100.239 87.6898 28.0771
103.91 87.9731 26.6411
97.3026 89.0527 34.8747
98.5981 87.2104 26.2743
100.779 86.7577 23.0549
105.564 90.3048 34.2903
105.149 90.8441 37.28
104.98 92.882 35.3385
104.392 92.7832 40.0287
106.37 89.9307 30.1483
106.646 93.8577 33.2085
106.151 95.1638 37.0652
90.5317 85.7343 37.0341
92.8095 84.8315 36.0132
92.5186 87.8792 33.9149
94.6284 87.0536 36.1683
94.1674 84.657 37.3953
90.925 86.7268 39.6931
90.7381 88.9838 38.3259
91.7131 89.9776 31.3406
93.2047 89.2031 29.594
94.4526 84.9679 40.1548
92.553 86.5689 41.5937
95.1468 87.2175 43.4814
92.9368 90.5075 42.4422
96.3934 90.9448 45.5179
91.077 91.4889 36.7572
90.8704 91.1394 33.2813
90.1514 92.8711 34.817
90.4333 90.5978 28.5902
91.7413 93.0149 39.5491
89.0212 94.9681 36.5385
88.7598 93.4303 32.4947
94.7414 88.3505 28.7127
95.7061 88.2368 32.8933
96.8311 87.8625 27.5128
93.6551 88.5065 24.6876
96.9049 86.1848 22.4966
105.806 111.226 56.5806
106.711 112.747 51.4882
107.22 111.059 54.3718
109.385 117.082 50.4606
106.475 116.092 51.5541
103.944 110.925 57.9629
105.91 110.948 61.7673
109.16 111.003 57.5305
109.168 111.22 52.8306
104.313 115.484 51.726
103.046 110.548 52.4392
101.971 114.403 52.1397
108.611 111.274 63.3319
111.406 110.655 60.2686
110.616 109.022 63.6542
111.116 113.25 49.5919
111.152 116.386 49.161
111.919 114.868 46.7548
108.466 115.516 30.8239
107.4 113.086 27.1274
109.202 112.336 29.3443
105.537 109.773 24.8767
105.098 113.373 25.7473
107.134 118.315 32.6456
109.096 117.205 34.3372
110.762 111.47 31.1588
108.394 109.385 28.5856
103.747 115.884 27.7835
104.829 118.621 31.3782
102.099 118.222 29.9243
110.814 116.269 35.9979
111.983 113.179 34.1359
112.767 114.702 37.1061
107.207 106.571 25.5414
105.479 106.372 23.8702
105.175 103.056 23.087
104.04 97.9849 52.1545
105.427 98.4895 50.067
104.288 96.4244 47.5786
106.953 99.2182 48.131
107.149 100.34 52.3527
104.279 98.6011 56.3482
102.591 97.6268 54.4142
102.998 94.1835 44.9497
104.15 94.8129 43.6383
107.144 100.884 56.1348
106.155 99.2722 58.8174
107.763 101.471 59.9463
101.892 95.5841 50.8421
101.922 93.7393 45.8674
100.65 93.7416 47.5501
105.165 95.1982 41.7862
106.549 97.7144 44.2228
106.147 96.2783 40.3824
107.395 91.0781 22.333
106.492 89.5483 18.8644
108.079 88.7873 22.4748
105.431 87.7282 15.6358
105.979 90.2426 15.3921
107.107 93.5313 22.5648
108.285 93.2788 25.426
107.582 89.1096 26.3916
106.249 87.9939 23.8962
106.176 92.6913 16.5145
106.841 94.2914 20.5153
106.589 95.6901 18.4871
108.333 93.2632 28.324
107.577 91.1244 28.6538
107.448 93.3029 30.7594
104.639 87.5233 22.5643
104.242 87.0786 17.8326
102.305 86.949 20.678
90.7215 111.039 56.0917
89.0289 111.257 53.9817
89.7833 112.264 51.4541
86.9408 111.224 52.3573
86.9599 111.441 57.3749
90.4206 110.557 61.5682
92.3144 111.168 57.7851
89.8945 115.653 51.2862
87.0254 116.343 50.0956
85.6298 110.905 60.2862
88.1476 111.258 63.2503
86.2049 108.826 63.1684
93.5549 110.46 52.568
92.0353 115.362 51.7473
94.4472 114.502 52.0332
85.1262 115.776 48.5693
85.4051 112.982 49.2777
83.9596 114.068 46.191
87.971 111.152 27.8944
90.142 111.783 26.087
88.7043 114.155 29.6836
92.5255 112.309 25.0719
92.4714 108.542 23.8989
89.0463 107.889 27.0924
86.7775 110.312 30.1952
87.3957 116.182 33.534
89.4465 117.303 31.9408
92.572 105.268 21.852
91.1719 104.969 23.6697
91.6091 102.791 19.3924
85.0255 112.125 32.9497
85.421 115.139 34.9416
84.1195 113.424 36.3899
91.9035 117.744 30.6584
93.4412 115.248 26.9229
94.612 117.602 29.5374
90.6526 98.1306 49.2566
92.1273 97.5917 51.2406
91.5229 95.9618 46.8866
93.4345 97.2075 53.5835
91.9348 98.4927 55.334
89.1392 100.208 51.1924
89.6449 99.1377 47.2197
91.6093 94.5432 42.9417
92.7242 94.087 44.4959
90.5988 99.6508 57.6482
89.6753 100.988 54.9641
89.5882 101.875 58.8799
89.067 97.5249 43.6556
90.1317 95.0801 41.5258
89.0614 96.0644 39.9069
93.9986 93.8272 45.8522
94.5968 95.6466 50.3642
95.4148 93.4352 47.2631
90.7002 88.3251 15.0482
89.7275 90.5696 19.0711
90.1715 88.9312 19.7083
88.2468 92.7844 22.5585
89.4141 92.6218 18.811
91.0779 88.8749 11.2637
92.8726 86.6778 12.433
91.6021 87.8628 21.0829
90.3795 90.0746 24.2768
89.2312 93.5859 16.624
90.3058 91.5262 12.1406
89.9975 94.6079 13.9917
94.2947 86.5269 15.5361
93.3496 87.2832 20.5577
95.7303 86.5808 19.4327
89.1952 91.7994 27.3519
87.3086 93.3294 26.4575
87.5235 93.3257 29.9392
POLYGONS 1280  5120
3 164 162 163
3 163 44 164
3 162 43 163
3 164 42 162
3 166 165 163
3 163 43 166
3 165 44 163
3 166 14 165
3 168 167 162
3 162 42 168
3 167 43 162
3 168 13 167
3 170 169 164
3 164 44 170
3 169 42 164
3 170 12 169
3 173 171 172
3 172 46 173
3 171 43 172
3 173 45 171
3 167 174 172
3 172 43 167
3 174 46 172
3 167 13 174
3 175 166 171
3 171 45 175
3 166 43 171
3 175 14 166
3 177 176 173
3 173 46 177
3 176 45 173
3 177 4 176
3 180 178 179
3 179 48 180
3 178 42 179
3 180 47 178
3 169 181 179
3 179 42 169
3 181 48 179
3 169 12 181
3 182 168 178
3 178 47 182
3 168 42 178
3 182 13 168
3 184 183 180
3 180 48 184
3 183 47 180
3 184 8 183
3 187 185 186
3 186 50 187
3 185 44 186
3 187 49 185
3 165 188 186
3 186 44 165
3 188 50 186
3 165 14 188
3 189 170 185
3 185 49 189
3 170 44 185
3 189 12 170
3 191 190 187
3 187 50 191
3 190 49 187
3 191 7 190
3 194 192 193
3 193 53 194
3 192 52 193
3 194 51 192
3 196 195 193
3 193 52 196
3 195 53 193
3 196 16 195
3 198 197 192
3 192 51 198
3 197 52 192
3 198 14 197
3 200 199 194
3 194 53 200
3 199 51 194
3 200 15 199
3 203 201 202
3 202 45 203
3 201 52 202
3 203 54 201
3 197 175 202
3 202 52 197
3 175 45 202
3 197 14 175
3 204 196 201
3 201 54 204
3 196 52 201
3 204 16 196
3 176 205 203
3 203 45 176
3 205 54 203
3 176 4 205
3 208 206 207
3 207 55 208
3 206 51 207
3 208 50 206
3 199 209 207
3 207 51 199
3 209 55 207
3 199 15 209
3 188 198 206
3 206 50 188
3 198 51 206
3 188 14 198
3 210 191 208
3 208 55 210
3 191 50 208
3 210 7 191
3 213 211 212
3 212 57 213
3 211 53 212
3 213 56 211
3 195 214 212
3 212 53 195
3 214 57 212
3 195 16 214
3 215 200 211
3 211 56 215
3 200 53 211
3 215 15 200
3 217 216 213
3 213 57 217
3 216 56 213
3 217 9 216
3 220 218 219
3 219 60 220
3 218 59 219
3 220 58 218
3 222 221 219
3 219 59 222
3 221 60 219
3 222 19 221
3 224 223 218
3 218 58 224
3 223 59 218
3 224 18 223
3 226 225 220
3 220 60 226
3 225 58 220
3 226 17 225
3 229 227 228
3 228 62 229
3 227 59 228
3 229 61 227
3 223 230 228
3 228 59 223
3 230 62 228
3 223 18 230
3 231 222 227
3 227 61 231
3 222 59 227
3 231 19 222
3 233 232 229
3 229 62 233
3 232 61 229
3 233 5 232
3 236 234 235
3 235 64 236
3 234 58 235
3 236 63 234
3 225 237 235
3 235 58 225
3 237 64 235
3 225 17 237
3 238 224 234
3 234 63 238
3 224 58 234
3 238 18 224
3 240 239 236
3 236 64 240
3 239 63 236
3 240 6 239
3 243 241 242
3 242 66 243
3 241 60 242
3 243 65 241
3 221 244 242
3 242 60 221
3 244 66 242
3 221 19 244
3 245 226 241
3 241 65 245
3 226 60 241
3 245 17 226
3 247 246 243
3 243 66 247
3 246 65 243
3 247 11 246
3 250 248 249
3 249 69 250
3 248 68 249
3 250 67 248
3 252 251 249
3 249 68 252
3 251 69 249
3 252 18 251
3 254 253 248
3 248 67 254
3 253 68 248
3 254 21 253
3 256 255 250
3 250 69 256
3 255 67 250
3 256 20 255
3 259 257 258
3 258 70 259
3 257 68 258
3 259 62 257
3 253 260 258
3 258 68 253
3 260 70 258
3 253 21 260
3 230 252 257
3 257 62 230
3 252 68 257
3 230 18 252
3 261 233 259
3 259 70 261
3 233 62 259
3 261 5 233
3 264 262 263
3 263 72 264
3 262 67 263
3 264 71 262
3 255 265 263
3 263 67 255
3 265 72 263
3 255 20 265
3 266 254 262
3 262 71 266
3 254 67 262
3 266 21 254
3 268 267 264
3 264 72 268
3 267 71 264
3 268 10 267
3 271 269 270
3 270 63 271
3 269 69 270
3 271 73 269
3 251 238 270
3 270 69 251
3 238 63 270
3 251 18 238
3 272 256 269
3 269 73 272
3 256 69 269
3 272 20 256
3 239 273 271
3 271 63 239
3 273 73 271
3 239 6 273
3 276 274 275
3 275 76 276
3 274 75 275
3 276 74 274
3 278 277 275
3 275 75 278
3 277 76 275
3 278 24 277
3 280 279 274
3 274 74 280
3 279 75 274
3 280 23 279
3 282 281 276
3 276 76 282
3 281 74 276
3 282 22 281
3 285 283 284
3 284 78 285
3 283 75 284
3 285 77 283
3 279 286 284
3 284 75 279
3 286 78 284
3 279 23 286
3 287 278 283
3 283 77 287
3 278 75 283
3 287 24 278
3 289 288 285
3 285 78 289
3 288 77 285
3 289 0 288
3 292 290 291
3 291 80 292
3 290 74 291
3 292 79 290
3 281 293 291
3 291 74 281
3 293 80 291
3 281 22 293
3 294 280 290
3 290 79 294
3 280 74 290
3 294 23 280
3 296 295 292
3 292 80 296
3 295 79 292
3 296 4 295
3 299 297 298
3 298 82 299
3 297 76 298
3 299 81 297
3 277 300 298
3 298 76 277
3 300 82 298
3 277 24 300
3 301 282 297
3 297 81 301
3 282 76 297
3 301 22 282
3 303 302 299
3 299 82 303
3 302 81 299
3 303 3 302
3 306 304 305
3 305 85 306
3 304 84 305
3 306 83 304
3 308 307 305
3 305 84 308
3 307 85 305
3 308 26 307
3 310 309 304
3 304 83 310
3 309 84 304
3 310 24 309
3 312 311 306
3 306 85 312
3 311 83 306
3 312 25 311
3 315 313 314
3 314 77 315
3 313 84 314
3 315 86 313
3 309 287 314
3 314 84 309
3 287 77 314
3 309 24 287
3 316 308 313
3 313 86 316
3 308 84 313
3 316 26 308
3 288 317 315
3 315 77 288
3 317 86 315
3 288 0 317
3 320 318 319
3 319 87 320
3 318 83 319
3 320 82 318
3 311 321 319
3 319 83 311
3 321 87 319
3 311 25 321
3 300 310 318
3 318 82 300
3 310 83 318
3 300 24 310
3 322 303 320
3 320 87 322
3 303 82 320
3 322 3 303
3 325 323 324
3 324 89 325
3 323 85 324
3 325 88 323
3 307 326 324
3 324 85 307
3 326 89 324
3 307 26 326
3 327 312 323
3 323 88 327
3 312 85 323
3 327 25 312
3 329 328 325
3 325 89 329
3 328 88 325
3 329 5 328
3 332 330 331
3 331 92 332
3 330 91 331
3 332 90 330
3 334 333 331
3 331 91 334
3 333 92 331
3 334 29 333
3 336 335 330
3 330 90 336
3 335 91 330
3 336 28 335
3 338 337 332
3 332 92 338
3 337 90 332
3 338 27 337
3 341 339 340
3 340 94 341
3 339 91 340
3 341 93 339
3 335 342 340
3 340 91 335
3 342 94 340
3 335 28 342
3 343 334 339
3 339 93 343
3 334 91 339
3 343 29 334
3 345 344 341
3 341 94 345
3 344 93 341
3 345 2 344
3 348 346 347
3 347 96 348
3 346 90 347
3 348 95 346
3 337 349 347
3 347 90 337
3 349 96 347
3 337 27 349
3 350 336 346
3 346 95 350
3 336 90 346
3 350 28 336
3 352 351 348
3 348 96 352
3 351 95 348
3 352 7 351
3 355 353 354
3 354 98 355
3 353 92 354
3 355 97 353
3 333 356 354
3 354 92 333
3 356 98 354
3 333 29 356
3 357 338 353
3 353 97 357
3 338 92 353
3 357 27 338
3 359 358 355
3 355 98 359
3 358 97 355
3 359 1 358
3 362 360 361
3 361 101 362
3 360 100 361
3 362 99 360
3 364 363 361
3 361 100 364
3 363 101 361
3 364 31 363
3 366 365 360
3 360 99 366
3 365 100 360
3 366 29 365
3 368 367 362
3 362 101 368
3 367 99 362
3 368 30 367
3 371 369 370
3 370 93 371
3 369 100 370
3 371 102 369
3 365 343 370
3 370 100 365
3 343 93 370
3 365 29 343
3 372 364 369
3 369 102 372
3 364 100 369
3 372 31 364
3 344 373 371
3 371 93 344
3 373 102 371
3 344 2 373
3 376 374 375
3 375 103 376
3 374 99 375
3 376 98 374
3 367 377 375
3 375 99 367
3 377 103 375
3 367 30 377
3 356 366 374
3 374 98 356
3 366 99 374
3 356 29 366
3 378 359 376
3 376 103 378
3 359 98 376
3 378 1 359
3 381 379 380
3 380 105 381
3 379 101 380
3 381 104 379
3 363 382 380
3 380 101 363
3 382 105 380
3 363 31 382
3 383 368 379
3 379 104 383
3 368 101 379
3 383 30 368
3 385 384 381
3 381 105 385
3 384 104 381
3 385 6 384
3 388 386 387
3 387 108 388
3 386 107 387
3 388 106 386
3 390 389 387
3 387 107 390
3 389 108 387
3 390 34 389
3 392 391 386
3 386 106 392
3 391 107 386
3 392 33 391
3 394 393 388
3 388 108 394
3 393 106 388
3 394 32 393
3 397 395 396
3 396 110 397
3 395 107 396
3 397 109 395
3 391 398 396
3 396 107 391
3 398 110 396
3 391 33 398
3 399 390 395
3 395 109 399
3 390 107 395
3 399 34 390
3 401 400 397
3 397 110 401
3 400 109 397
3 401 8 400
3 404 402 403
3 403 112 404
3 402 106 403
3 404 111 402
3 393 405 403
3 403 106 393
3 405 112 403
3 393 32 405
3 406 392 402
3 402 111 406
3 392 106 402
3 406 33 392
3 408 407 404
3 404 112 408
3 407 111 404
3 408 0 407
3 411 409 410
3 410 114 411
3 409 108 410
3 411 113 409
3 389 412 410
3 410 108 389
3 412 114 410
3 389 34 412
3 413 394 409
3 409 113 413
3 394 108 409
3 413 32 394
3 415 414 411
3 411 114 415
3 414 113 411
3 415 11 414
3 418 416 417
3 417 117 418
3 416 116 417
3 418 115 416
3 420 419 417
3 417 116 420
3 419 117 417
3 420 36 419
3 422 421 416
3 416 115 422
3 421 116 416
3 422 34 421
3 424 423 418
3 418 117 424
3 423 115 418
3 424 35 423
3 427 425 426
3 426 109 427
3 425 116 426
3 427 118 425
3 421 399 426
3 426 116 421
3 399 109 426
3 421 34 399
3 428 420 425
3 425 118 428
3 420 116 425
3 428 36 420
3 400 429 427
3 427 109 400
3 429 118 427
3 400 8 429
3 432 430 431
3 431 119 432
3 430 115 431
3 432 114 430
3 423 433 431
3 431 115 423
3 433 119 431
3 423 35 433
3 412 422 430
3 430 114 412
3 422 115 430
3 412 34 422
3 434 415 432
3 432 119 434
3 415 114 432
3 434 11 415
3 437 435 436
3 436 121 437
3 435 117 436
3 437 120 435
3 419 438 436
3 436 117 419
3 438 121 436
3 419 36 438
3 439 424 435
3 435 120 439
3 424 117 435
3 439 35 424
3 441 440 437
3 437 121 441
3 440 120 437
3 441 1 440
3 444 442 443
3 443 124 444
3 442 123 443
3 444 122 442
3 446 445 443
3 443 123 446
3 445 124 443
3 446 39 445
3 448 447 442
3 442 122 448
3 447 123 442
3 448 38 447
3 450 449 444
3 444 124 450
3 449 122 444
3 450 37 449
3 453 451 452
3 452 126 453
3 451 123 452
3 453 125 451
3 447 454 452
3 452 123 447
3 454 126 452
3 447 38 454
3 455 446 451
3 451 125 455
3 446 123 451
3 455 39 446
3 457 456 453
3 453 126 457
3 456 125 453
3 457 9 456
3 460 458 459
3 459 128 460
3 458 122 459
3 460 127 458
3 449 461 459
3 459 122 449
3 461 128 459
3 449 37 461
3 462 448 458
3 458 127 462
3 448 122 458
3 462 38 448
3 464 463 460
3 460 128 464
3 463 127 460
3 464 10 463
3 467 465 466
3 466 130 467
3 465 124 466
3 467 129 465
3 445 468 466
3 466 124 445
3 468 130 466
3 445 39 468
3 469 450 465
3 465 129 469
3 450 124 465
3 469 37 450
3 471 470 467
3 467 130 471
3 470 129 467
3 471 3 470
3 474 472 473
3 473 133 474
3 472 132 473
3 474 131 472
3 476 475 473
3 473 132 476
3 475 133 473
3 476 38 475
3 478 477 472
3 472 131 478
3 477 132 472
3 478 41 477
3 480 479 474
3 474 133 480
3 479 131 474
3 480 40 479
3 483 481 482
3 482 134 483
3 481 132 482
3 483 126 481
3 477 484 482
3 482 132 477
3 484 134 482
3 477 41 484
3 454 476 481
3 481 126 454
3 476 132 481
3 454 38 476
3 485 457 483
3 483 134 485
3 457 126 483
3 485 9 457
3 488 486 487
3 487 136 488
3 486 131 487
3 488 135 486
3 479 489 487
3 487 131 479
3 489 136 487
3 479 40 489
3 490 478 486
3 486 135 490
3 478 131 486
3 490 41 478
3 492 491 488
3 488 136 492
3 491 135 488
3 492 2 491
3 495 493 494
3 494 127 495
3 493 133 494
3 495 137 493
3 475 462 494
3 494 133 475
3 462 127 494
3 475 38 462
3 496 480 493
3 493 137 496
3 480 133 493
3 496 40 480
3 463 497 495
3 495 127 463
3 497 137 495
3 463 10 497
3 500 498 499
3 499 140 500
3 498 139 499
3 500 138 498
3 502 501 499
3 499 139 502
3 501 140 499
3 502 33 501
3 504 503 498
3 498 138 504
3 503 139 498
3 504 13 503
3 506 505 500
3 500 140 506
3 505 138 500
3 506 23 505
3 509 507 508
3 508 47 509
3 507 139 508
3 509 110 507
3 503 182 508
3 508 139 503
3 182 47 508
3 503 13 182
3 398 502 507
3 507 110 398
3 502 139 507
3 398 33 502
3 183 401 509
3 509 47 183
3 401 110 509
3 183 8 401
3 512 510 511
3 511 79 512
3 510 138 511
3 512 46 510
3 505 294 511
3 511 138 505
3 294 79 511
3 505 23 294
3 174 504 510
3 510 46 174
3 504 138 510
3 174 13 504
3 295 177 512
3 512 79 295
3 177 46 512
3 295 4 177
3 515 513 514
3 514 111 515
3 513 140 514
3 515 78 513
3 501 406 514
3 514 140 501
3 406 111 514
3 501 33 406
3 286 506 513
3 513 78 286
3 506 140 513
3 286 23 506
3 407 289 515
3 515 111 407
3 289 78 515
3 407 0 289
3 518 516 517
3 517 143 518
3 516 142 517
3 518 141 516
3 520 519 517
3 517 142 520
3 519 143 517
3 520 19 519
3 522 521 516
3 516 141 522
3 521 142 516
3 522 32 521
3 524 523 518
3 518 143 524
3 523 141 518
3 524 26 523
3 527 525 526
3 526 113 527
3 525 142 526
3 527 66 525
3 521 413 526
3 526 142 521
3 413 113 526
3 521 32 413
3 244 520 525
3 525 66 244
3 520 142 525
3 244 19 520
3 414 247 527
3 527 113 414
3 247 66 527
3 414 11 247
3 530 528 529
3 529 86 530
3 528 141 529
3 530 112 528
3 523 316 529
3 529 141 523
3 316 86 529
3 523 26 316
3 405 522 528
3 528 112 405
3 522 141 528
3 405 32 522
3 317 408 530
3 530 86 317
3 408 112 530
3 317 0 408
3 533 531 532
3 532 61 533
3 531 143 532
3 533 89 531
3 519 231 532
3 532 143 519
3 231 61 532
3 519 19 231
3 326 524 531
3 531 89 326
3 524 143 531
3 326 26 524
3 232 329 533
3 533 61 232
3 329 89 533
3 232 5 329
3 536 534 535
3 535 146 536
3 534 145 535
3 536 144 534
3 538 537 535
3 535 145 538
3 537 146 535
3 538 22 537
3 540 539 534
3 534 144 540
3 539 145 534
3 540 16 539
3 542 541 536
3 536 146 542
3 541 144 536
3 542 39 541
3 545 543 544
3 544 54 545
3 543 145 544
3 545 80 543
3 539 204 544
3 544 145 539
3 204 54 544
3 539 16 204
3 293 538 543
3 543 80 293
3 538 145 543
3 293 22 538
3 205 296 545
3 545 54 205
3 296 80 545
3 205 4 296
3 548 546 547
3 547 125 548
3 546 144 547
3 548 57 546
3 541 455 547
3 547 144 541
3 455 125 547
3 541 39 455
3 214 540 546
3 546 57 214
3 540 144 546
3 214 16 540
3 456 217 548
3 548 125 456
3 217 57 548
3 456 9 217
3 551 549 550
3 550 81 551
3 549 146 550
3 551 130 549
3 537 301 550
3 550 146 537
3 301 81 550
3 537 22 301
3 468 542 549
3 549 130 468
3 542 146 549
3 468 39 542
3 302 471 551
3 551 81 302
3 471 130 551
3 302 3 471
3 554 552 553
3 553 149 554
3 552 148 553
3 554 147 552
3 556 555 553
3 553 148 556
3 555 149 553
3 556 21 555
3 558 557 552
3 552 147 558
3 557 148 552
3 558 25 557
3 560 559 554
3 554 149 560
3 559 147 554
3 560 37 559
3 563 561 562
3 562 88 563
3 561 148 562
3 563 70 561
3 557 327 562
3 562 148 557
3 327 88 562
3 557 25 327
3 260 556 561
3 561 70 260
3 556 148 561
3 260 21 556
3 328 261 563
3 563 88 328
3 261 70 563
3 328 5 261
3 566 564 565
3 565 129 566
3 564 147 565
3 566 87 564
3 559 469 565
3 565 147 559
3 469 129 565
3 559 37 469
3 321 558 564
3 564 87 321
3 558 147 564
3 321 25 558
3 470 322 566
3 566 129 470
3 322 87 566
3 470 3 322
3 569 567 568
3 568 71 569
3 567 149 568
3 569 128 567
3 555 266 568
3 568 149 555
3 266 71 568
3 555 21 266
3 461 560 567
3 567 128 461
3 560 149 567
3 461 37 560
3 267 464 569
3 569 71 267
3 464 128 569
3 267 10 464
3 572 570 571
3 571 152 572
3 570 151 571
3 572 150 570
3 574 573 571
3 571 151 574
3 573 152 571
3 574 27 573
3 576 575 570
3 570 150 576
3 575 151 570
3 576 12 575
3 578 577 572
3 572 152 578
3 577 150 572
3 578 36 577
3 581 579 580
3 580 49 581
3 579 151 580
3 581 96 579
3 575 189 580
3 580 151 575
3 189 49 580
3 575 12 189
3 349 574 579
3 579 96 349
3 574 151 579
3 349 27 574
3 190 352 581
3 581 49 190
3 352 96 581
3 190 7 352
3 584 582 583
3 583 118 584
3 582 150 583
3 584 48 582
3 577 428 583
3 583 150 577
3 428 118 583
3 577 36 428
3 181 576 582
3 582 48 181
3 576 150 582
3 181 12 576
3 429 184 584
3 584 118 429
3 184 48 584
3 429 8 184
3 587 585 586
3 586 97 587
3 585 152 586
3 587 121 585
3 573 357 586
3 586 152 573
3 357 97 586
3 573 27 357
3 438 578 585
3 585 121 438
3 578 152 585
3 438 36 578
3 358 441 587
3 587 97 358
3 441 121 587
3 358 1 441
3 590 588 589
3 589 155 590
3 588 154 589
3 590 153 588
3 592 591 589
3 589 154 592
3 591 155 589
3 592 17 591
3 594 593 588
3 588 153 594
3 593 154 588
3 594 30 593
3 596 595 590
3 590 155 596
3 595 153 590
3 596 35 595
3 599 597 598
3 598 104 599
3 597 154 598
3 599 64 597
3 593 383 598
3 598 154 593
3 383 104 598
3 593 30 383
3 237 592 597
3 597 64 237
3 592 154 597
3 237 17 592
3 384 240 599
3 599 104 384
3 240 64 599
3 384 6 240
3 602 600 601
3 601 120 602
3 600 153 601
3 602 103 600
3 595 439 601
3 601 153 595
3 439 120 601
3 595 35 439
3 377 594 600
3 600 103 377
3 594 153 600
3 377 30 594
3 440 378 602
3 602 120 440
3 378 103 602
3 440 1 378
3 605 603 604
3 604 65 605
3 603 155 604
3 605 119 603
3 591 245 604
3 604 155 591
3 245 65 604
3 591 17 245
3 433 596 603
3 603 119 433
3 596 155 603
3 433 35 596
3 246 434 605
3 605 65 246
3 434 119 605
3 246 11 434
3 608 606 607
3 607 158 608
3 606 157 607
3 608 156 606
3 610 609 607
3 607 157 610
3 609 158 607
3 610 15 609
3 612 611 606
3 606 156 612
3 611 157 606
3 612 28 611
3 614 613 608
3 608 158 614
3 613 156 608
3 614 41 613
3 617 615 616
3 616 95 617
3 615 157 616
3 617 55 615
3 611 350 616
3 616 157 611
3 350 95 616
3 611 28 350
3 209 610 615
3 615 55 209
3 610 157 615
3 209 15 610
3 351 210 617
3 617 95 351
3 210 55 617
3 351 7 210
3 620 618 619
3 619 135 620
3 618 156 619
3 620 94 618
3 613 490 619
3 619 156 613
3 490 135 619
3 613 41 490
3 342 612 618
3 618 94 342
3 612 156 618
3 342 28 612
3 491 345 620
3 620 135 491
3 345 94 620
3 491 2 345
3 623 621 622
3 622 56 623
3 621 158 622
3 623 134 621
3 609 215 622
3 622 158 609
3 215 56 622
3 609 15 215
3 484 614 621
3 621 134 484
3 614 158 621
3 484 41 614
3 216 485 623
3 623 56 216
3 485 134 623
3 216 9 485
3 626 624 625
3 625 161 626
3 624 160 625
3 626 159 624
3 628 627 625
3 625 160 628
3 627 161 625
3 628 31 627
3 630 629 624
3 624 159 630
3 629 160 624
3 630 20 629
3 632 631 626
3 626 161 632
3 631 159 626
3 632 40 631
3 635 633 634
3 634 73 635
3 633 160 634
3 635 105 633
3 629 272 634
3 634 160 629
3 272 73 634
3 629 20 272
3 382 628 633
3 633 105 382
3 628 160 633
3 382 31 628
3 273 385 635
3 635 73 273
3 385 105 635
3 273 6 385
3 638 636 637
3 637 137 638
3 636 159 637
3 638 72 636
3 631 496 637
3 637 159 631
3 496 137 637
3 631 40 496
3 265 630 636
3 636 72 265
3 630 159 636
3 265 20 630
3 497 268 638
3 638 137 497
3 268 72 638
3 497 10 268
3 641 639 640
3 640 102 641
3 639 161 640
3 641 136 639
3 627 372 640
3 640 161 627
3 372 102 640
3 627 31 372
3 489 632 639
3 639 136 489
3 632 161 639
3 489 40 632
3 373 492 641
3 641 102 373
3 492 136 641
3 373 2 492
