# vtk DataFile Version 3.0
this file was written using fslvtkio
ASCII
DATASET POLYDATA
POINTS 642 float
125.554 106.972 86.3273
121.583 109.872 87.1741
120.568 105.664 86.0217
122.923 101.901 84.8395
123.719 105.17 87.5363
123.707 104.942 84.3171
121.237 107.081 85.0637
122.292 107.052 87.9758
125.33 110.388 88.6468
120.734 102.251 86.2074
120.258 102.431 84.0352
124.525 109.9 86.1156
123.432 108.93 88.798
124.905 107.893 88.4219
122.915 105.857 88.3671
121.448 104.588 87.2777
122.243 102.903 87.1948
122.805 108.649 85.5415
122.421 105.867 84.622
124.388 107.537 85.2833
120.577 104.624 84.3832
122.061 103.085 83.8959
123.189 103.204 86.2163
124.811 106.225 87.0352
124.513 104.304 85.5325
123.694 103.031 84.1871
124.999 106.04 85.1748
122.115 108.925 87.9029
121.556 106.323 86.9764
120.633 107.879 86.625
120.917 109.016 85.8966
120.181 106.428 85.4104
125.792 108.79 86.1946
125.707 108.975 87.547
125.184 111.235 87.3961
122.888 110.776 86.7813
123.227 111.152 88.2541
121.457 100.676 83.7031
119.852 101.551 84.8187
121.466 100.58 85.4385
119.749 103.915 84.9848
120.292 103.821 86.0928
124.303 108.449 88.789
124.011 106.894 88.5698
123.2 107.462 88.7593
123.51 105.384 88.0754
124.312 106.523 88.0195
125.255 109.189 88.6255
124.392 109.816 88.8306
122.449 107.974 88.5798
122.426 106.504 88.3018
122.16 105.199 87.8913
122.59 104.353 87.9112
121.582 103.636 87.4341
123.083 104.033 87.4154
122.015 105.892 87.6552
120.934 103.418 86.7981
121.339 102.486 86.7831
122.69 107.34 85.0996
123.377 106.751 84.9706
123.595 108.099 85.4578
124.016 106.244 84.8017
123.075 105.359 84.4464
121.84 106.51 84.8233
121.971 107.908 85.2597
123.634 109.263 85.8978
124.563 108.758 85.6468
121.362 103.848 84.0959
122.18 104.532 84.2067
121.489 105.238 84.4093
122.869 104.045 84.0634
121.198 102.649 83.9184
120.545 103.504 84.2195
120.897 105.934 84.7105
124.169 104.713 86.6609
124.697 105.179 86.3001
123.958 103.757 85.9164
124.992 105.682 85.9376
125.291 106.633 86.7176
124.263 105.776 87.338
123.487 104.15 86.9178
123.001 102.451 85.5209
123.767 103.091 85.1908
124.244 103.595 84.8091
124.809 105.096 85.2953
124.526 104.453 84.6032
125.341 106.535 85.7519
123.273 102.328 84.4397
123.827 103.959 84.0803
124.505 105.499 84.688
121.722 107.655 87.4904
121.069 107.218 86.934
121.378 108.388 87.2751
120.664 106.831 86.3521
120.974 106.001 86.5207
122.004 106.657 87.4518
122.125 108.018 88.0597
121.915 109.471 87.5455
121.028 108.9 86.8821
120.522 108.487 86.2377
120.337 107.252 86.0053
120.262 107.733 85.6036
120.362 106.021 85.7117
121.056 109.588 86.5538
121.082 108.098 85.4218
120.496 106.796 85.1151
125.832 109.093 86.9346
125.851 110.264 87.6081
125.633 110.161 86.8424
125.343 110.964 88.1384
125.721 109.786 88.1769
125.806 107.971 86.9317
125.924 107.888 86.2711
125.352 109.451 86.052
124.898 110.845 86.6307
124.163 111.647 87.0322
124.337 111.682 87.9891
122.851 111.604 87.5943
124.363 110.969 88.604
123.775 110.46 86.4028
122.018 110.496 87.0452
122.243 110.666 87.806
120.069 100.481 83.961
120.229 100.431 84.9468
121.323 99.9916 84.2905
120.844 101.214 85.8723
120.224 101.849 85.5371
119.769 101.807 84.2555
120.753 101.507 83.8051
122.39 101.059 84.1771
122.182 101.186 85.0242
119.987 103.706 85.4719
119.987 102.608 85.4304
119.7 102.645 84.8509
120.502 103.029 86.1397
120.432 104.734 86.0406
120.052 104.768 85.5337
119.891 103.157 84.4418
124.872 107.168 87.7327
125.399 108.53 88.0297
125.427 107.611 87.347
125.597 107.492 85.6628
125.353 108.251 85.5531
124.866 106.767 85.0907
121.79 101.732 86.382
122.614 102.965 86.6661
122.324 101.858 85.8363
122.706 101.717 83.8005
122.885 102.92 83.9005
121.837 101.826 83.6651
123.431 110.199 88.617
122.659 109.065 88.4392
122.488 110.147 88.2103
121.865 109.843 86.3307
121.865 108.883 85.6672
122.807 109.673 86.1684
121 105.127 86.5559
121.629 105.472 87.0825
120.973 104.202 86.6516
119.913 104.274 84.5997
120.246 105.533 84.84
119.969 105.125 85.1795
124.227 107.72 88.7365
123.644 107.206 88.7112
123.766 107.961 88.7782
123.101 106.731 88.5876
123.439 106.446 88.4954
124.487 107.442 88.5423
124.685 108.148 88.6811
123.865 108.7 88.8458
123.35 108.186 88.7908
123.712 106.187 88.3382
124.246 106.746 88.3444
123.855 106.057 88.0779
124.635 107.202 88.2483
123.246 105.64 88.3044
123.649 105.334 87.8264
123.973 105.844 87.7938
124.809 108.833 88.7837
124.338 109.16 88.8863
124.874 109.503 88.7782
123.883 109.405 88.8354
125.109 108.554 88.5641
125.404 109.848 88.7001
124.944 110.179 88.8491
122.844 107.757 88.7078
122.753 106.992 88.5499
122.472 107.287 88.4522
122.666 106.227 88.4013
122.954 108.359 88.719
122.308 107.457 88.2906
122.303 106.803 88.164
122.32 104.804 88.0057
122.069 103.937 87.7353
121.871 104.401 87.7148
121.869 103.215 87.3977
122.418 103.574 87.6079
122.776 105.101 88.216
122.455 105.541 88.2075
121.815 104.762 87.5825
121.533 104.125 87.4108
122.893 104.151 87.7145
123.13 104.927 88.0669
123.349 104.725 87.7541
122.732 103.467 87.3552
123.414 104.627 87.4762
122.245 105.874 88.1483
122.055 105.489 87.76
122.11 106.197 87.9847
121.766 105.2 87.4607
122.07 106.499 87.8532
121.249 103.602 87.1207
121.413 103.067 87.1366
121.129 102.988 86.7946
121.707 102.625 87.0028
121.208 104.018 87.1062
120.869 102.837 86.5135
121.042 102.403 86.4902
123.047 107.059 85.0363
123.5 107.426 85.2494
123.141 107.733 85.2832
123.961 107.775 85.3574
123.842 107.155 85.1734
122.901 106.374 84.7919
122.605 106.66 84.8658
122.802 108.018 85.3045
123.207 108.351 85.4765
123.712 106.513 84.8791
123.203 106.08 84.7053
123.553 105.801 84.6181
122.762 105.669 84.5576
124.193 106.9 85.089
123.854 105.561 84.5912
123.386 105.114 84.3601
122.271 106.923 84.9547
122.357 107.632 85.1776
121.919 107.204 85.0478
122.417 108.293 85.3585
122.17 106.219 84.7111
121.534 106.812 84.9421
121.592 107.454 85.1344
123.628 108.694 85.6191
124.048 108.41 85.5564
124.093 108.99 85.7707
124.462 108.16 85.4476
123.216 108.935 85.7224
124.092 109.607 85.9898
124.57 109.343 85.8824
121.771 104.173 84.1322
121.844 104.904 84.3072
121.391 104.55 84.2463
121.954 105.574 84.4759
122.291 105.21 84.38
122.107 103.819 84.054
121.712 103.446 84.0157
120.988 104.259 84.2276
121.051 104.879 84.3731
122.633 105.005 84.3247
122.511 104.283 84.1265
122.986 104.721 84.2055
122.433 103.555 83.974
123.316 104.492 84.126
121.288 103.272 84.0098
120.929 103.699 84.1404
120.87 103.117 84.0719
120.575 104.069 84.2755
121.631 102.839 83.8721
120.695 102.521 83.9272
120.48 102.962 84.1381
121.173 105.561 84.5257
121.645 105.885 84.5565
121.329 106.199 84.7109
120.755 105.278 84.5287
121.058 106.507 84.8701
124.48 104.934 86.4901
124.323 104.477 86.1008
124.039 104.225 86.2848
124.27 104.061 85.7548
124.561 104.711 85.9346
124.721 105.666 86.6642
124.507 105.442 86.8306
123.719 103.959 86.4391
123.589 103.532 86.0967
124.814 105.423 86.1157
124.967 105.896 86.5022
125.189 106.117 86.3376
125.074 106.378 86.8579
124.739 104.963 85.729
125.324 106.32 86.1376
125.43 106.78 86.5075
124.261 105.217 86.9946
123.805 104.428 86.7761
123.943 104.96 87.1322
123.346 103.672 86.5654
124.528 105.963 87.1672
124.044 105.497 87.4645
123.619 104.674 87.2352
123.443 103.133 85.7326
123.883 103.441 85.5636
123.379 102.839 85.3853
124.195 103.689 85.3662
123.105 102.827 85.8772
122.982 102.194 85.1887
123.308 102.495 85.0234
124.543 104.352 85.0629
124.694 104.763 84.9567
124.394 103.997 84.6937
124.827 105.214 84.885
124.939 105.518 85.1928
124.675 104.677 85.3867
124.437 103.949 85.1676
123.989 103.309 84.4871
124.148 103.731 84.3691
125.011 105.804 85.5017
124.886 105.351 85.6063
125.192 106.076 85.8142
125.112 106.249 85.4544
125.518 106.74 86.0499
124.067 103.337 85.0095
123.745 102.986 84.6299
123.538 102.729 84.8289
123.476 102.638 84.2892
123.122 102.103 84.6492
124.207 104.184 84.3014
124.602 104.972 84.6147
124.228 104.709 84.332
124.827 105.719 84.8988
123.816 103.502 84.1041
123.789 104.466 84.1473
124.106 105.223 84.494
121.386 107.412 87.2092
121.148 107.796 87.1111
121.538 108.027 87.3961
120.95 108.112 86.9788
120.804 107.575 86.8189
121.374 106.818 86.993
121.679 107.05 87.2357
121.82 108.29 87.6867
121.749 108.628 87.5839
120.833 107.055 86.6601
121.102 106.639 86.734
120.873 106.467 86.4721
121.241 106.176 86.76
120.596 107.357 86.5114
120.692 106.245 86.1792
120.763 105.867 86.2739
121.939 107.185 87.4728
121.972 107.857 87.7483
122.181 107.406 87.7638
122.103 108.469 87.9679
121.808 106.543 87.2155
122.2 106.872 87.7221
122.278 107.566 88.0583
121.649 108.923 87.4142
121.202 108.633 87.0868
121.454 109.165 87.2229
120.81 108.382 86.7871
122.062 109.22 87.7425
121.733 109.692 87.3643
121.305 109.416 87.0269
120.315 107.849 86.1297
120.253 107.503 85.8071
120.338 108.149 85.9326
120.205 107.112 85.5063
120.256 106.9 85.7017
120.443 107.578 86.3136
120.536 108.159 86.4222
120.588 108.795 86.0593
120.588 108.417 85.7694
120.382 106.642 85.8455
120.532 107.07 86.195
120.559 106.449 86.0257
120.25 106.237 85.5552
120.494 105.864 85.8841
120.761 108.658 86.5743
120.739 109.02 86.3802
120.982 109.215 86.7132
120.88 109.325 86.2271
121.297 109.728 86.8713
120.679 107.973 85.508
120.369 107.307 85.352
120.76 107.495 85.2675
120.25 106.632 85.2468
120.985 108.551 85.6658
121.176 107.546 85.2185
120.83 106.927 85.0429
125.823 109.658 87.2648
125.778 110.241 87.2187
125.839 109.628 86.8996
125.516 110.757 87.1327
125.624 110.759 87.5085
125.872 109.638 87.5822
125.832 109.119 87.2766
125.832 109.043 86.5733
125.77 109.552 86.5604
125.666 110.689 87.8919
125.824 110.096 87.9182
125.608 110.439 88.2029
125.757 109.468 87.8614
125.288 111.137 87.7771
125.352 110.754 88.4568
125.637 110.126 88.4495
125.833 108.572 86.9487
125.87 108.536 86.5935
125.87 108.005 86.6203
125.863 108.386 86.2547
125.766 108.513 87.2436
125.694 107.46 86.6378
125.823 107.428 86.314
125.515 109.869 86.471
125.38 110.569 86.7382
125.168 110.184 86.3585
125.114 111.137 87.0031
125.598 109.197 86.1573
124.957 109.672 86.0825
124.685 110.351 86.3341
124.234 111.798 87.5376
123.636 111.848 87.8223
123.542 111.835 87.3791
123.069 111.531 87.9622
123.732 111.598 88.1699
124.803 111.503 87.7061
124.715 111.547 87.2307
123.49 111.342 86.9621
122.904 111.4 87.1582
124.331 111.432 88.3259
124.896 111.328 88.0827
124.894 111.092 88.4462
123.811 111.155 88.4246
124.878 110.675 88.6675
124.652 111.283 86.8504
123.961 111.125 86.7096
124.355 110.726 86.4765
123.38 110.748 86.6301
124.131 110.177 86.2207
122.42 111.124 87.2985
122.498 111.214 87.7683
122.097 110.681 87.4339
122.71 110.996 88.0468
122.441 110.757 86.932
121.725 110.181 87.1226
121.919 110.253 87.4801
120.014 100.257 84.3944
120.683 99.9728 84.5762
120.657 100.006 84.0292
121.306 100.154 84.8411
120.784 100.223 85.1267
119.904 100.828 84.7543
119.743 100.84 84.3913
120.773 100.415 83.7192
121.326 100.166 83.8242
120.505 100.713 85.4193
120.197 101.093 85.1897
120.49 101.478 85.684
120.024 101.545 85.114
121.053 100.696 85.6737
120.762 101.788 86.0946
120.464 102.102 85.9016
119.786 101.123 84.1059
120.367 100.974 83.794
120.204 101.69 84.0192
121.017 101.018 83.6702
119.665 101.537 84.4927
119.926 102.135 84.0875
120.479 102.028 83.9183
121.847 100.442 84.1598
121.759 100.522 84.6622
122.316 101.058 84.5963
121.791 100.752 85.1582
121.988 100.694 83.873
122.69 101.488 84.5207
122.576 101.584 84.946
120.072 103.157 85.4386
119.776 102.548 85.1126
119.958 103.212 85.1536
119.634 102.016 84.7895
119.838 102.015 85.113
120.148 103.231 85.7588
120.124 103.711 85.757
119.852 103.743 85.2126
119.825 103.305 84.9315
120.031 102.158 85.4443
120.268 102.83 85.7549
120.363 102.447 85.8253
120.361 103.386 86.1019
120.648 102.644 86.1846
120.121 104.21 85.7796
119.973 104.21 85.4942
120.284 104.734 85.7672
119.829 104.292 85.2637
120.34 104.281 86.069
120.558 105.231 86.0265
120.407 105.245 85.7732
119.8 102.906 84.6452
119.583 102.184 84.5418
119.754 102.473 84.3396
119.754 103.487 84.716
120.061 102.807 84.2275
125.167 107.85 87.909
125.441 108.094 87.6993
125.132 107.407 87.533
125.591 108.298 87.4575
125.555 108.762 87.7846
125.217 108.225 88.2509
124.889 107.543 88.0884
124.852 106.721 87.3932
125.098 106.929 87.2116
125.483 109.167 88.0772
125.329 108.867 88.3406
125.548 109.536 88.4403
124.634 106.884 87.8922
124.543 106.445 87.5044
124.28 106.177 87.6704
125.292 107.117 87.0344
125.677 107.843 87.163
125.514 107.299 86.8348
125.591 107.898 85.5789
125.125 107.542 85.2988
125.303 107.14 85.3322
124.685 107.171 85.1754
124.883 107.879 85.3705
125.641 108.544 85.8435
125.821 108.15 85.9105
125.274 106.758 85.4124
125.037 106.443 85.1155
124.961 108.465 85.5711
125.355 108.866 85.8207
125.008 109.124 85.7887
125.818 107.724 85.9669
125.489 106.986 85.7001
125.683 107.21 86.0207
124.686 106.124 84.8915
124.427 106.511 84.9646
124.28 105.857 84.7366
122.277 102.333 86.5354
122.5 102.422 86.2383
122.006 101.701 86.0584
122.744 102.565 86.0312
122.932 103.044 86.4352
122.455 102.938 86.9512
122.017 102.311 86.7912
121.588 101.104 85.9261
121.896 101.182 85.6173
123.053 103.537 86.7841
122.848 103.486 87.0642
123.247 104.08 87.1571
121.579 102.105 86.6404
121.269 101.395 86.1369
121.157 101.97 86.3538
122.173 101.438 85.4137
122.661 102.174 85.6826
122.599 101.836 85.2996
122.834 102.29 83.7908
122.383 102.32 83.7315
122.285 101.674 83.6486
121.97 102.489 83.7619
122.469 102.949 83.8851
123.291 102.924 84.0044
123.224 102.36 83.983
122.163 101.099 83.6677
121.674 101.207 83.5967
122.845 103.481 83.9825
123.396 103.447 83.9691
123.356 103.998 84.0634
123.037 101.995 84.1133
122.535 101.286 83.9343
122.891 101.684 84.3057
121.318 101.54 83.6787
121.476 102.222 83.77
120.97 102.058 83.8312
123.014 109.634 88.5767
122.617 109.635 88.3318
122.954 110.221 88.45
122.306 109.547 88.0596
122.371 109.038 88.1667
123.023 108.988 88.6525
123.437 109.56 88.724
123.378 110.739 88.4737
122.792 110.678 88.2958
122.329 108.543 88.2289
122.608 108.533 88.5376
122.256 108.012 88.3292
123.892 109.973 88.7391
123.899 110.627 88.6441
124.436 110.412 88.7697
122.378 110.425 88.027
122.232 109.715 87.854
122.089 110.017 87.6643
121.826 109.415 85.9698
122.345 109.282 85.9051
122.33 109.76 86.2617
122.762 109.165 85.8335
122.355 108.803 85.6162
121.378 108.968 85.7567
121.371 109.478 86.0856
122.386 110.268 86.5795
122.846 110.252 86.4644
121.905 108.392 85.4444
121.424 108.476 85.5396
121.514 107.955 85.3332
121.391 109.775 86.4258
121.971 110.207 86.6793
121.568 109.988 86.7925
123.266 110.095 86.3135
123.174 109.45 86.0198
123.671 109.849 86.1187
121.379 105.276 86.799
121.338 104.811 86.8768
121.056 104.635 86.5705
121.212 104.377 86.9657
121.54 105.017 87.1765
121.683 105.901 87.0019
121.297 105.719 86.7666
120.68 104.494 86.3395
120.607 104.012 86.3809
121.844 105.634 87.3605
121.883 106.084 87.2441
122.001 106.286 87.5609
120.944 105.554 86.5508
120.713 104.894 86.2864
120.726 105.388 86.2667
120.625 103.623 86.4092
120.936 103.807 86.7321
120.718 103.224 86.4744
119.979 104.919 84.6958
120.096 105.374 85.0143
119.808 104.706 84.8818
120.11 105.778 85.2742
120.176 105.985 85.1207
120.358 105.098 84.582
120.199 104.491 84.4727
119.776 104.075 84.7772
119.789 104.503 85.078
120.323 106.189 84.9845
120.544 105.731 84.7513
120.667 106.368 84.8878
120.261 103.946 84.3879
119.928 103.708 84.5294
120.211 103.337 84.3066
119.992 104.936 85.3513
120.13 105.597 85.443
120.267 105.389 85.6122
POLYGONS 1280  5120
3 164 162 163
3 163 44 164
3 162 43 163
3 164 42 162
3 166 165 163
3 163 43 166
3 165 44 163
3 166 14 165
3 168 167 162
3 162 42 168
3 167 43 162
3 168 13 167
3 170 169 164
3 164 44 170
3 169 42 164
3 170 12 169
3 173 171 172
3 172 46 173
3 171 43 172
3 173 45 171
3 167 174 172
3 172 43 167
3 174 46 172
3 167 13 174
3 175 166 171
3 171 45 175
3 166 43 171
3 175 14 166
3 177 176 173
3 173 46 177
3 176 45 173
3 177 4 176
3 180 178 179
3 179 48 180
3 178 42 179
3 180 47 178
3 169 181 179
3 179 42 169
3 181 48 179
3 169 12 181
3 182 168 178
3 178 47 182
3 168 42 178
3 182 13 168
3 184 183 180
3 180 48 184
3 183 47 180
3 184 8 183
3 187 185 186
3 186 50 187
3 185 44 186
3 187 49 185
3 165 188 186
3 186 44 165
3 188 50 186
3 165 14 188
3 189 170 185
3 185 49 189
3 170 44 185
3 189 12 170
3 191 190 187
3 187 50 191
3 190 49 187
3 191 7 190
3 194 192 193
3 193 53 194
3 192 52 193
3 194 51 192
3 196 195 193
3 193 52 196
3 195 53 193
3 196 16 195
3 198 197 192
3 192 51 198
3 197 52 192
3 198 14 197
3 200 199 194
3 194 53 200
3 199 51 194
3 200 15 199
3 203 201 202
3 202 45 203
3 201 52 202
3 203 54 201
3 197 175 202
3 202 52 197
3 175 45 202
3 197 14 175
3 204 196 201
3 201 54 204
3 196 52 201
3 204 16 196
3 176 205 203
3 203 45 176
3 205 54 203
3 176 4 205
3 208 206 207
3 207 55 208
3 206 51 207
3 208 50 206
3 199 209 207
3 207 51 199
3 209 55 207
3 199 15 209
3 188 198 206
3 206 50 188
3 198 51 206
3 188 14 198
3 210 191 208
3 208 55 210
3 191 50 208
3 210 7 191
3 213 211 212
3 212 57 213
3 211 53 212
3 213 56 211
3 195 214 212
3 212 53 195
3 214 57 212
3 195 16 214
3 215 200 211
3 211 56 215
3 200 53 211
3 215 15 200
3 217 216 213
3 213 57 217
3 216 56 213
3 217 9 216
3 220 218 219
3 219 60 220
3 218 59 219
3 220 58 218
3 222 221 219
3 219 59 222
3 221 60 219
3 222 19 221
3 224 223 218
3 218 58 224
3 223 59 218
3 224 18 223
3 226 225 220
3 220 60 226
3 225 58 220
3 226 17 225
3 229 227 228
3 228 62 229
3 227 59 228
3 229 61 227
3 223 230 228
3 228 59 223
3 230 62 228
3 223 18 230
3 231 222 227
3 227 61 231
3 222 59 227
3 231 19 222
3 233 232 229
3 229 62 233
3 232 61 229
3 233 5 232
3 236 234 235
3 235 64 236
3 234 58 235
3 236 63 234
3 225 237 235
3 235 58 225
3 237 64 235
3 225 17 237
3 238 224 234
3 234 63 238
3 224 58 234
3 238 18 224
3 240 239 236
3 236 64 240
3 239 63 236
3 240 6 239
3 243 241 242
3 242 66 243
3 241 60 242
3 243 65 241
3 221 244 242
3 242 60 221
3 244 66 242
3 221 19 244
3 245 226 241
3 241 65 245
3 226 60 241
3 245 17 226
3 247 246 243
3 243 66 247
3 246 65 243
3 247 11 246
3 250 248 249
3 249 69 250
3 248 68 249
3 250 67 248
3 252 251 249
3 249 68 252
3 251 69 249
3 252 18 251
3 254 253 248
3 248 67 254
3 253 68 248
3 254 21 253
3 256 255 250
3 250 69 256
3 255 67 250
3 256 20 255
3 259 257 258
3 258 70 259
3 257 68 258
3 259 62 257
3 253 260 258
3 258 68 253
3 260 70 258
3 253 21 260
3 230 252 257
3 257 62 230
3 252 68 257
3 230 18 252
3 261 233 259
3 259 70 261
3 233 62 259
3 261 5 233
3 264 262 263
3 263 72 264
3 262 67 263
3 264 71 262
3 255 265 263
3 263 67 255
3 265 72 263
3 255 20 265
3 266 254 262
3 262 71 266
3 254 67 262
3 266 21 254
3 268 267 264
3 264 72 268
3 267 71 264
3 268 10 267
3 271 269 270
3 270 63 271
3 269 69 270
3 271 73 269
3 251 238 270
3 270 69 251
3 238 63 270
3 251 18 238
3 272 256 269
3 269 73 272
3 256 69 269
3 272 20 256
3 239 273 271
3 271 63 239
3 273 73 271
3 239 6 273
3 276 274 275
3 275 76 276
3 274 75 275
3 276 74 274
3 278 277 275
3 275 75 278
3 277 76 275
3 278 24 277
3 280 279 274
3 274 74 280
3 279 75 274
3 280 23 279
3 282 281 276
3 276 76 282
3 281 74 276
3 282 22 281
3 285 283 284
3 284 78 285
3 283 75 284
3 285 77 283
3 279 286 284
3 284 75 279
3 286 78 284
3 279 23 286
3 287 278 283
3 283 77 287
3 278 75 283
3 287 24 278
3 289 288 285
3 285 78 289
3 288 77 285
3 289 0 288
3 292 290 291
3 291 80 292
3 290 74 291
3 292 79 290
3 281 293 291
3 291 74 281
3 293 80 291
3 281 22 293
3 294 280 290
3 290 79 294
3 280 74 290
3 294 23 280
3 296 295 292
3 292 80 296
3 295 79 292
3 296 4 295
3 299 297 298
3 298 82 299
3 297 76 298
3 299 81 297
3 277 300 298
3 298 76 277
3 300 82 298
3 277 24 300
3 301 282 297
3 297 81 301
3 282 76 297
3 301 22 282
3 303 302 299
3 299 82 303
3 302 81 299
3 303 3 302
3 306 304 305
3 305 85 306
3 304 84 305
3 306 83 304
3 308 307 305
3 305 84 308
3 307 85 305
3 308 26 307
3 310 309 304
3 304 83 310
3 309 84 304
3 310 24 309
3 312 311 306
3 306 85 312
3 311 83 306
3 312 25 311
3 315 313 314
3 314 77 315
3 313 84 314
3 315 86 313
3 309 287 314
3 314 84 309
3 287 77 314
3 309 24 287
3 316 308 313
3 313 86 316
3 308 84 313
3 316 26 308
3 288 317 315
3 315 77 288
3 317 86 315
3 288 0 317
3 320 318 319
3 319 87 320
3 318 83 319
3 320 82 318
3 311 321 319
3 319 83 311
3 321 87 319
3 311 25 321
3 300 310 318
3 318 82 300
3 310 83 318
3 300 24 310
3 322 303 320
3 320 87 322
3 303 82 320
3 322 3 303
3 325 323 324
3 324 89 325
3 323 85 324
3 325 88 323
3 307 326 324
3 324 85 307
3 326 89 324
3 307 26 326
3 327 312 323
3 323 88 327
3 312 85 323
3 327 25 312
3 329 328 325
3 325 89 329
3 328 88 325
3 329 5 328
3 332 330 331
3 331 92 332
3 330 91 331
3 332 90 330
3 334 333 331
3 331 91 334
3 333 92 331
3 334 29 333
3 336 335 330
3 330 90 336
3 335 91 330
3 336 28 335
3 338 337 332
3 332 92 338
3 337 90 332
3 338 27 337
3 341 339 340
3 340 94 341
3 339 91 340
3 341 93 339
3 335 342 340
3 340 91 335
3 342 94 340
3 335 28 342
3 343 334 339
3 339 93 343
3 334 91 339
3 343 29 334
3 345 344 341
3 341 94 345
3 344 93 341
3 345 2 344
3 348 346 347
3 347 96 348
3 346 90 347
3 348 95 346
3 337 349 347
3 347 90 337
3 349 96 347
3 337 27 349
3 350 336 346
3 346 95 350
3 336 90 346
3 350 28 336
3 352 351 348
3 348 96 352
3 351 95 348
3 352 7 351
3 355 353 354
3 354 98 355
3 353 92 354
3 355 97 353
3 333 356 354
3 354 92 333
3 356 98 354
3 333 29 356
3 357 338 353
3 353 97 357
3 338 92 353
3 357 27 338
3 359 358 355
3 355 98 359
3 358 97 355
3 359 1 358
3 362 360 361
3 361 101 362
3 360 100 361
3 362 99 360
3 364 363 361
3 361 100 364
3 363 101 361
3 364 31 363
3 366 365 360
3 360 99 366
3 365 100 360
3 366 29 365
3 368 367 362
3 362 101 368
3 367 99 362
3 368 30 367
3 371 369 370
3 370 93 371
3 369 100 370
3 371 102 369
3 365 343 370
3 370 100 365
3 343 93 370
3 365 29 343
3 372 364 369
3 369 102 372
3 364 100 369
3 372 31 364
3 344 373 371
3 371 93 344
3 373 102 371
3 344 2 373
3 376 374 375
3 375 103 376
3 374 99 375
3 376 98 374
3 367 377 375
3 375 99 367
3 377 103 375
3 367 30 377
3 356 366 374
3 374 98 356
3 366 99 374
3 356 29 366
3 378 359 376
3 376 103 378
3 359 98 376
3 378 1 359
3 381 379 380
3 380 105 381
3 379 101 380
3 381 104 379
3 363 382 380
3 380 101 363
3 382 105 380
3 363 31 382
3 383 368 379
3 379 104 383
3 368 101 379
3 383 30 368
3 385 384 381
3 381 105 385
3 384 104 381
3 385 6 384
3 388 386 387
3 387 108 388
3 386 107 387
3 388 106 386
3 390 389 387
3 387 107 390
3 389 108 387
3 390 34 389
3 392 391 386
3 386 106 392
3 391 107 386
3 392 33 391
3 394 393 388
3 388 108 394
3 393 106 388
3 394 32 393
3 397 395 396
3 396 110 397
3 395 107 396
3 397 109 395
3 391 398 396
3 396 107 391
3 398 110 396
3 391 33 398
3 399 390 395
3 395 109 399
3 390 107 395
3 399 34 390
3 401 400 397
3 397 110 401
3 400 109 397
3 401 8 400
3 404 402 403
3 403 112 404
3 402 106 403
3 404 111 402
3 393 405 403
3 403 106 393
3 405 112 403
3 393 32 405
3 406 392 402
3 402 111 406
3 392 106 402
3 406 33 392
3 408 407 404
3 404 112 408
3 407 111 404
3 408 0 407
3 411 409 410
3 410 114 411
3 409 108 410
3 411 113 409
3 389 412 410
3 410 108 389
3 412 114 410
3 389 34 412
3 413 394 409
3 409 113 413
3 394 108 409
3 413 32 394
3 415 414 411
3 411 114 415
3 414 113 411
3 415 11 414
3 418 416 417
3 417 117 418
3 416 116 417
3 418 115 416
3 420 419 417
3 417 116 420
3 419 117 417
3 420 36 419
3 422 421 416
3 416 115 422
3 421 116 416
3 422 34 421
3 424 423 418
3 418 117 424
3 423 115 418
3 424 35 423
3 427 425 426
3 426 109 427
3 425 116 426
3 427 118 425
3 421 399 426
3 426 116 421
3 399 109 426
3 421 34 399
3 428 420 425
3 425 118 428
3 420 116 425
3 428 36 420
3 400 429 427
3 427 109 400
3 429 118 427
3 400 8 429
3 432 430 431
3 431 119 432
3 430 115 431
3 432 114 430
3 423 433 431
3 431 115 423
3 433 119 431
3 423 35 433
3 412 422 430
3 430 114 412
3 422 115 430
3 412 34 422
3 434 415 432
3 432 119 434
3 415 114 432
3 434 11 415
3 437 435 436
3 436 121 437
3 435 117 436
3 437 120 435
3 419 438 436
3 436 117 419
3 438 121 436
3 419 36 438
3 439 424 435
3 435 120 439
3 424 117 435
3 439 35 424
3 441 440 437
3 437 121 441
3 440 120 437
3 441 1 440
3 444 442 443
3 443 124 444
3 442 123 443
3 444 122 442
3 446 445 443
3 443 123 446
3 445 124 443
3 446 39 445
3 448 447 442
3 442 122 448
3 447 123 442
3 448 38 447
3 450 449 444
3 444 124 450
3 449 122 444
3 450 37 449
3 453 451 452
3 452 126 453
3 451 123 452
3 453 125 451
3 447 454 452
3 452 123 447
3 454 126 452
3 447 38 454
3 455 446 451
3 451 125 455
3 446 123 451
3 455 39 446
3 457 456 453
3 453 126 457
3 456 125 453
3 457 9 456
3 460 458 459
3 459 128 460
3 458 122 459
3 460 127 458
3 449 461 459
3 459 122 449
3 461 128 459
3 449 37 461
3 462 448 458
3 458 127 462
3 448 122 458
3 462 38 448
3 464 463 460
3 460 128 464
3 463 127 460
3 464 10 463
3 467 465 466
3 466 130 467
3 465 124 466
3 467 129 465
3 445 468 466
3 466 124 445
3 468 130 466
3 445 39 468
3 469 450 465
3 465 129 469
3 450 124 465
3 469 37 450
3 471 470 467
3 467 130 471
3 470 129 467
3 471 3 470
3 474 472 473
3 473 133 474
3 472 132 473
3 474 131 472
3 476 475 473
3 473 132 476
3 475 133 473
3 476 38 475
3 478 477 472
3 472 131 478
3 477 132 472
3 478 41 477
3 480 479 474
3 474 133 480
3 479 131 474
3 480 40 479
3 483 481 482
3 482 134 483
3 481 132 482
3 483 126 481
3 477 484 482
3 482 132 477
3 484 134 482
3 477 41 484
3 454 476 481
3 481 126 454
3 476 132 481
3 454 38 476
3 485 457 483
3 483 134 485
3 457 126 483
3 485 9 457
3 488 486 487
3 487 136 488
3 486 131 487
3 488 135 486
3 479 489 487
3 487 131 479
3 489 136 487
3 479 40 489
3 490 478 486
3 486 135 490
3 478 131 486
3 490 41 478
3 492 491 488
3 488 136 492
3 491 135 488
3 492 2 491
3 495 493 494
3 494 127 495
3 493 133 494
3 495 137 493
3 475 462 494
3 494 133 475
3 462 127 494
3 475 38 462
3 496 480 493
3 493 137 496
3 480 133 493
3 496 40 480
3 463 497 495
3 495 127 463
3 497 137 495
3 463 10 497
3 500 498 499
3 499 140 500
3 498 139 499
3 500 138 498
3 502 501 499
3 499 139 502
3 501 140 499
3 502 33 501
3 504 503 498
3 498 138 504
3 503 139 498
3 504 13 503
3 506 505 500
3 500 140 506
3 505 138 500
3 506 23 505
3 509 507 508
3 508 47 509
3 507 139 508
3 509 110 507
3 503 182 508
3 508 139 503
3 182 47 508
3 503 13 182
3 398 502 507
3 507 110 398
3 502 139 507
3 398 33 502
3 183 401 509
3 509 47 183
3 401 110 509
3 183 8 401
3 512 510 511
3 511 79 512
3 510 138 511
3 512 46 510
3 505 294 511
3 511 138 505
3 294 79 511
3 505 23 294
3 174 504 510
3 510 46 174
3 504 138 510
3 174 13 504
3 295 177 512
3 512 79 295
3 177 46 512
3 295 4 177
3 515 513 514
3 514 111 515
3 513 140 514
3 515 78 513
3 501 406 514
3 514 140 501
3 406 111 514
3 501 33 406
3 286 506 513
3 513 78 286
3 506 140 513
3 286 23 506
3 407 289 515
3 515 111 407
3 289 78 515
3 407 0 289
3 518 516 517
3 517 143 518
3 516 142 517
3 518 141 516
3 520 519 517
3 517 142 520
3 519 143 517
3 520 19 519
3 522 521 516
3 516 141 522
3 521 142 516
3 522 32 521
3 524 523 518
3 518 143 524
3 523 141 518
3 524 26 523
3 527 525 526
3 526 113 527
3 525 142 526
3 527 66 525
3 521 413 526
3 526 142 521
3 413 113 526
3 521 32 413
3 244 520 525
3 525 66 244
3 520 142 525
3 244 19 520
3 414 247 527
3 527 113 414
3 247 66 527
3 414 11 247
3 530 528 529
3 529 86 530
3 528 141 529
3 530 112 528
3 523 316 529
3 529 141 523
3 316 86 529
3 523 26 316
3 405 522 528
3 528 112 405
3 522 141 528
3 405 32 522
3 317 408 530
3 530 86 317
3 408 112 530
3 317 0 408
3 533 531 532
3 532 61 533
3 531 143 532
3 533 89 531
3 519 231 532
3 532 143 519
3 231 61 532
3 519 19 231
3 326 524 531
3 531 89 326
3 524 143 531
3 326 26 524
3 232 329 533
3 533 61 232
3 329 89 533
3 232 5 329
3 536 534 535
3 535 146 536
3 534 145 535
3 536 144 534
3 538 537 535
3 535 145 538
3 537 146 535
3 538 22 537
3 540 539 534
3 534 144 540
3 539 145 534
3 540 16 539
3 542 541 536
3 536 146 542
3 541 144 536
3 542 39 541
3 545 543 544
3 544 54 545
3 543 145 544
3 545 80 543
3 539 204 544
3 544 145 539
3 204 54 544
3 539 16 204
3 293 538 543
3 543 80 293
3 538 145 543
3 293 22 538
3 205 296 545
3 545 54 205
3 296 80 545
3 205 4 296
3 548 546 547
3 547 125 548
3 546 144 547
3 548 57 546
3 541 455 547
3 547 144 541
3 455 125 547
3 541 39 455
3 214 540 546
3 546 57 214
3 540 144 546
3 214 16 540
3 456 217 548
3 548 125 456
3 217 57 548
3 456 9 217
3 551 549 550
3 550 81 551
3 549 146 550
3 551 130 549
3 537 301 550
3 550 146 537
3 301 81 550
3 537 22 301
3 468 542 549
3 549 130 468
3 542 146 549
3 468 39 542
3 302 471 551
3 551 81 302
3 471 130 551
3 302 3 471
3 554 552 553
3 553 149 554
3 552 148 553
3 554 147 552
3 556 555 553
3 553 148 556
3 555 149 553
3 556 21 555
3 558 557 552
3 552 147 558
3 557 148 552
3 558 25 557
3 560 559 554
3 554 149 560
3 559 147 554
3 560 37 559
3 563 561 562
3 562 88 563
3 561 148 562
3 563 70 561
3 557 327 562
3 562 148 557
3 327 88 562
3 557 25 327
3 260 556 561
3 561 70 260
3 556 148 561
3 260 21 556
3 328 261 563
3 563 88 328
3 261 70 563
3 328 5 261
3 566 564 565
3 565 129 566
3 564 147 565
3 566 87 564
3 559 469 565
3 565 147 559
3 469 129 565
3 559 37 469
3 321 558 564
3 564 87 321
3 558 147 564
3 321 25 558
3 470 322 566
3 566 129 470
3 322 87 566
3 470 3 322
3 569 567 568
3 568 71 569
3 567 149 568
3 569 128 567
3 555 266 568
3 568 149 555
3 266 71 568
3 555 21 266
3 461 560 567
3 567 128 461
3 560 149 567
3 461 37 560
3 267 464 569
3 569 71 267
3 464 128 569
3 267 10 464
3 572 570 571
3 571 152 572
3 570 151 571
3 572 150 570
3 574 573 571
3 571 151 574
3 573 152 571
3 574 27 573
3 576 575 570
3 570 150 576
3 575 151 570
3 576 12 575
3 578 577 572
3 572 152 578
3 577 150 572
3 578 36 577
3 581 579 580
3 580 49 581
3 579 151 580
3 581 96 579
3 575 189 580
3 580 151 575
3 189 49 580
3 575 12 189
3 349 574 579
3 579 96 349
3 574 151 579
3 349 27 574
3 190 352 581
3 581 49 190
3 352 96 581
3 190 7 352
3 584 582 583
3 583 118 584
3 582 150 583
3 584 48 582
3 577 428 583
3 583 150 577
3 428 118 583
3 577 36 428
3 181 576 582
3 582 48 181
3 576 150 582
3 181 12 576
3 429 184 584
3 584 118 429
3 184 48 584
3 429 8 184
3 587 585 586
3 586 97 587
3 585 152 586
3 587 121 585
3 573 357 586
3 586 152 573
3 357 97 586
3 573 27 357
3 438 578 585
3 585 121 438
3 578 152 585
3 438 36 578
3 358 441 587
3 587 97 358
3 441 121 587
3 358 1 441
3 590 588 589
3 589 155 590
3 588 154 589
3 590 153 588
3 592 591 589
3 589 154 592
3 591 155 589
3 592 17 591
3 594 593 588
3 588 153 594
3 593 154 588
3 594 30 593
3 596 595 590
3 590 155 596
3 595 153 590
3 596 35 595
3 599 597 598
3 598 104 599
3 597 154 598
3 599 64 597
3 593 383 598
3 598 154 593
3 383 104 598
3 593 30 383
3 237 592 597
3 597 64 237
3 592 154 597
3 237 17 592
3 384 240 599
3 599 104 384
3 240 64 599
3 384 6 240
3 602 600 601
3 601 120 602
3 600 153 601
3 602 103 600
3 595 439 601
3 601 153 595
3 439 120 601
3 595 35 439
3 377 594 600
3 600 103 377
3 594 153 600
3 377 30 594
3 440 378 602
3 602 120 440
3 378 103 602
3 440 1 378
3 605 603 604
3 604 65 605
3 603 155 604
3 605 119 603
3 591 245 604
3 604 155 591
3 245 65 604
3 591 17 245
3 433 596 603
3 603 119 433
3 596 155 603
3 433 35 596
3 246 434 605
3 605 65 246
3 434 119 605
3 246 11 434
3 608 606 607
3 607 158 608
3 606 157 607
3 608 156 606
3 610 609 607
3 607 157 610
3 609 158 607
3 610 15 609
3 612 611 606
3 606 156 612
3 611 157 606
3 612 28 611
3 614 613 608
3 608 158 614
3 613 156 608
3 614 41 613
3 617 615 616
3 616 95 617
3 615 157 616
3 617 55 615
3 611 350 616
3 616 157 611
3 350 95 616
3 611 28 350
3 209 610 615
3 615 55 209
3 610 157 615
3 209 15 610
3 351 210 617
3 617 95 351
3 210 55 617
3 351 7 210
3 620 618 619
3 619 135 620
3 618 156 619
3 620 94 618
3 613 490 619
3 619 156 613
3 490 135 619
3 613 41 490
3 342 612 618
3 618 94 342
3 612 156 618
3 342 28 612
3 491 345 620
3 620 135 491
3 345 94 620
3 491 2 345
3 623 621 622
3 622 56 623
3 621 158 622
3 623 134 621
3 609 215 622
3 622 158 609
3 215 56 622
3 609 15 215
3 484 614 621
3 621 134 484
3 614 158 621
3 484 41 614
3 216 485 623
3 623 56 216
3 485 134 623
3 216 9 485
3 626 624 625
3 625 161 626
3 624 160 625
3 626 159 624
3 628 627 625
3 625 160 628
3 627 161 625
3 628 31 627
3 630 629 624
3 624 159 630
3 629 160 624
3 630 20 629
3 632 631 626
3 626 161 632
3 631 159 626
3 632 40 631
3 635 633 634
3 634 73 635
3 633 160 634
3 635 105 633
3 629 272 634
3 634 160 629
3 272 73 634
3 629 20 272
3 382 628 633
3 633 105 382
3 628 160 633
3 382 31 628
3 273 385 635
3 635 73 273
3 385 105 635
3 273 6 385
3 638 636 637
3 637 137 638
3 636 159 637
3 638 72 636
3 631 496 637
3 637 159 631
3 496 137 637
3 631 40 496
3 265 630 636
3 636 72 265
3 630 159 636
3 265 20 630
3 497 268 638
3 638 137 497
3 268 72 638
3 497 10 268
3 641 639 640
3 640 102 641
3 639 161 640
3 641 136 639
3 627 372 640
3 640 161 627
3 372 102 640
3 627 31 372
3 489 632 639
3 639 136 489
3 632 161 639
3 489 40 632
3 373 492 641
3 641 102 373
3 492 136 641
3 373 2 492
