# vtk DataFile Version 3.0
this file was written using fslvtkio
ASCII
DATASET POLYDATA
POINTS 642 float
77.1542 107.336 110.856
65.2269 105.349 108.344
61.1249 96.3162 101.918
71.3728 99.0463 105.042
71.2355 98.6286 110.637
71.7553 105.833 104.941
64.9732 104.964 102.897
65.4648 97.2149 109.26
70.0918 106.659 115.085
66.3824 90.1946 103.434
66.6887 96.7591 98.3986
70.646 113.682 109.135
67.5076 101.475 112.793
71.3403 101.462 114.085
68.0335 96.5975 111.175
64.8823 92.4577 106.999
68.6115 94.5999 107.149
67.6082 109.175 105.953
68.2226 105.332 103.744
71.9073 109.611 106.915
64.744 100.7 100.569
68.849 101.568 101.644
71.7565 98.6546 107.793
74.8463 102.393 111.475
74.5227 102.973 107.989
72.0294 102.624 104.717
75.4317 107.558 107.611
64.9687 101.378 109.241
62.956 95.8762 105.563
63.0381 100.875 105.046
64.3513 106.01 105.492
61.4573 101.226 101.302
75.6992 112.988 110.477
75.0653 108.353 114.127
70.6261 112.084 112.841
66.9521 110.566 109.125
67.5748 106.636 111.878
69.6476 96.6249 101.001
66.1573 91.6201 99.0996
69.037 94.3404 103.502
61.6081 94.9461 97.8455
62.0993 90.9858 101.888
69.2602 101.222 114.031
69.5909 98.29 113.034
67.5208 98.5308 112.734
69.6885 97.6816 110.823
71.5875 99.3729 112.38
70.9872 104.467 115.046
68.7443 104.079 114.395
66.3724 98.9957 111.094
66.2297 96.5385 110.434
66.6982 94.2986 109.042
68.099 95.2843 108.994
66.9743 93.209 107.187
69.9447 96.5684 109.122
64.916 94.8999 108.234
65.5063 91.1665 105.034
67.3546 92.246 105.178
68.0884 107.018 105.033
69.9336 107.478 105.515
69.635 109.368 106.769
72.071 107.705 105.966
70.1232 105.671 104.442
66.3924 105.429 103.05
66.1188 107.101 104.297
69.3071 111.695 107.762
71.7447 112.383 108.068
66.908 101.276 100.915
68.6043 103.234 102.832
66.7935 103.099 102.001
70.232 103.558 103.796
67.8679 99.2999 99.8974
65.493 98.6802 99.3852
64.8126 102.915 101.713
73.4448 100.641 109.606
74.9687 102.792 109.834
73.3043 100.805 108.073
76.1883 105.123 109.383
76.0802 105.168 111.334
72.881 100.162 111.205
71.5908 98.3979 109.276
71.6348 98.5798 106.255
72.94 100.726 106.541
73.956 102.605 106.188
75.4911 105.136 107.644
74.5177 104.956 105.973
76.534 107.843 109.179
71.5297 100.662 104.854
72.4024 104.519 104.708
73.57 106.692 106.138
64.1766 98.6389 107.182
63.3148 98.4927 105.311
63.9698 100.86 107.088
61.9556 98.6238 103.396
62.1373 95.8658 103.582
64.1157 96.2943 107.477
65.4042 99.132 109.198
65.0441 103.401 108.696
64.0429 103.287 106.837
63.1943 103.567 105.076
62.1073 101.111 103.13
62.8135 103.805 103.348
60.4904 98.5413 101.238
64.8861 105.628 107.061
64.2046 105.924 103.962
63.3812 103.326 102.156
76.297 112.25 113.106
73.4624 111.671 114.405
73.4044 114.361 112.203
70.4682 109.703 114.678
72.5691 107.832 115.236
76.6008 108.395 112.649
77.1756 110.383 111.034
72.9983 113.744 109.804
71.043 113.633 111.008
68.4869 111.797 111.099
68.6588 109.55 112.691
67.2839 108.939 110.769
68.941 106.933 113.695
68.6554 112.912 109.284
65.8566 107.643 108.964
66.2147 105.806 109.943
68.9249 93.5019 99.2336
68.3385 91.8515 100.992
69.3576 94.9054 101.987
67.731 91.9763 103.141
65.8495 90.2943 101.231
66.7714 94.1491 97.4294
68.2216 96.5061 99.3084
70.8677 97.6368 103.204
70.5319 96.695 104.156
61.163 91.9952 99.4213
63.3034 89.7937 99.7632
63.395 92.4625 97.7341
64.0975 89.5691 102.602
61.3854 93.7103 101.69
60.5635 95.469 99.9966
64.2471 95.6132 97.8923
73.5103 102.3 112.987
73.4236 104.726 114.477
75.2966 104.992 113.131
76.144 110.499 108.772
74.1359 111.776 108.561
73.9285 108.858 107.346
68.975 93.9708 105.286
70.549 96.1308 107.235
70.3915 96.3559 105.679
70.6957 99.6449 102.749
70.6612 101.93 102.954
69.4939 99.24 101.043
67.1893 104.108 112.614
65.9982 101.48 111.084
66.2531 103.871 110.734
65.3519 108.782 107.446
65.6966 108.095 105.702
66.9097 110.934 107.304
62.2495 93.0654 103.914
63.2788 93.6448 106.022
62.9847 90.5992 104.632
62.8128 98.0322 98.773
62.7031 101.105 100.326
60.3937 98.6509 98.9998
69.399 99.4028 113.79
68.4407 98.2791 112.864
68.5196 99.6615 113.432
67.6149 97.0499 112.161
68.6589 97.095 112.15
70.6365 99.9569 113.651
70.335 101.364 114.322
68.3369 101.319 113.467
67.3441 99.9962 112.866
69.6158 97.6702 111.893
70.5642 98.7939 112.724
70.4301 98.3872 111.648
71.6743 100.312 113.302
68.8843 96.8832 110.957
70.5024 98.2387 110.724
71.4008 98.9103 111.489
70.142 102.765 114.853
68.7934 102.63 114.623
69.6959 104.119 114.939
68.062 102.811 113.725
71.3012 103.033 114.735
70.4683 105.676 115.374
69.4706 105.438 114.753
66.7903 98.8279 111.911
66.813 97.4185 111.673
66.159 97.6834 110.892
66.9667 96.2899 110.892
66.745 100.238 112.04
65.8901 98.0705 110.104
65.727 96.8084 109.73
67.4612 94.7716 109.065
67.5933 94.4001 108.038
66.738 93.7148 108.037
67.7934 93.8812 107.108
68.4261 94.953 108.108
67.9816 95.9119 110.049
67.479 95.3872 109.986
65.9358 93.478 107.927
65.9773 92.6907 107.056
69.0218 95.9305 109.016
68.8081 96.4245 109.931
69.7331 96.9732 110.005
69.372 95.5952 108.162
70.5493 97.7498 109.99
66.4614 95.0808 109.699
65.6474 94.3098 108.638
65.6799 95.5102 109.325
64.6915 93.6369 107.633
65.1573 96.0584 108.758
66.3062 91.9884 106.176
67.2879 92.3981 106.252
66.4905 91.6859 105.181
67.9792 93.3267 106.172
65.2228 91.6198 106.103
65.7757 90.3625 104.1
66.7727 91.3693 104.207
69.0366 107.167 105.44
69.916 108.366 106.093
68.8558 108.145 105.849
70.8646 109.748 106.769
71.0585 108.547 106.128
69.1337 106.272 104.682
68.1722 106.165 104.363
67.8102 108.056 105.423
68.5232 109.239 106.462
71.1482 107.586 105.774
70.1768 106.677 105.015
71.0662 106.582 105.165
69.1578 105.418 104.092
72.2049 108.749 106.402
71.8987 106.616 105.248
70.9327 105.652 104.627
67.1567 106.376 104.02
67.0534 107.177 104.539
66.2692 106.479 103.577
66.8139 108.116 105.105
67.296 105.478 103.323
65.5952 105.286 102.855
65.377 106.38 103.326
69.5273 110.441 107.369
70.7119 110.819 107.49
70.503 112.013 107.926
71.9047 110.999 107.559
68.4123 110.418 106.964
69.9209 113.147 108.321
71.1963 113.358 108.548
67.8728 102.209 101.805
67.7333 103.153 102.397
66.8434 102.211 101.396
67.62 104.267 102.931
68.4889 104.336 103.272
68.6457 102.432 102.188
67.9631 101.4 101.182
65.8212 100.941 100.685
65.7462 101.989 101.203
69.3854 104.463 103.449
69.3425 103.109 103.454
70.261 104.62 103.831
69.4105 102.336 102.868
71.1786 104.847 104.336
67.3364 100.387 100.233
66.2879 100.15 100.027
66.6728 99.0597 99.5196
64.9731 99.6193 99.913
68.4114 100.391 100.722
67.2277 98.014 99.0918
65.8815 97.588 99.0094
65.6888 102.915 101.806
66.589 104.119 102.553
65.6913 104.097 102.352
64.7589 102.006 101.121
64.7919 103.944 102.352
74.3372 101.64 109.902
74.0701 101.862 108.88
73.3974 100.67 108.894
73.9269 101.861 108.006
74.6661 103.065 108.907
75.1762 102.515 110.677
74.1164 101.56 110.654
72.4122 99.6978 108.686
72.4777 99.6785 107.921
75.5683 104.024 109.596
75.8828 103.78 110.563
76.3412 105.025 110.331
75.6454 103.795 111.507
75.2023 104.228 108.684
76.7492 106.324 110.091
76.7011 106.408 111.074
73.1792 100.419 110.398
72.4459 99.5485 109.513
72.2644 99.429 110.256
71.6253 98.4974 108.491
73.6582 101.326 111.359
71.9768 99.1747 110.91
71.358 98.4352 109.967
72.6009 99.5394 107.196
73.1294 100.77 107.269
72.3471 99.6455 106.544
73.8804 101.803 107.21
71.6475 98.5284 106.945
71.5887 98.8119 105.618
72.0015 99.8279 105.851
74.8882 103.784 106.903
75.0314 105.072 106.865
74.155 103.909 106.1
74.8084 106.276 106.873
75.6086 106.384 107.559
75.1154 103.922 107.879
74.5439 102.732 107.132
73.1279 102.632 105.368
73.3478 103.725 105.352
76.0955 106.502 108.287
75.8487 105.193 108.471
76.3738 106.378 109.166
76.1541 107.831 108.38
77.1168 107.754 110.118
73.4566 101.696 106.412
72.6297 101.624 105.524
72.3341 100.803 105.742
71.7661 101.69 104.728
71.4968 99.7452 105.013
73.4419 104.763 105.412
74.0653 105.978 106.28
72.9295 105.423 105.726
74.4366 107.219 106.916
72.3826 103.568 104.629
72.1858 105.289 104.855
72.6091 106.01 105.411
63.5684 98.3947 106.307
63.5046 99.6444 106.188
63.959 99.8382 107.183
63.3926 100.864 106.089
63.0842 99.7539 105.173
63.2719 97.0824 105.32
63.7436 97.184 106.253
64.5698 99.967 108.175
64.4465 101.058 108.136
62.5743 98.421 104.36
62.6045 97.2287 104.455
62.0611 97.1921 103.528
62.4942 95.7797 104.47
62.5775 99.6887 104.176
61.4068 97.3945 102.636
61.6888 96.0735 102.655
64.1594 97.4141 107.31
64.7944 98.8494 108.206
64.8389 97.7769 108.185
65.2454 100.167 109.187
63.5818 95.9995 106.501
64.8098 96.6871 108.392
65.3666 97.9929 109.152
64.3788 102.11 107.978
63.9152 102.084 107.042
64.6548 103.232 107.772
63.4755 102.088 106.003
65.0696 102.45 109.031
65.302 104.395 108.451
64.7611 104.278 107.564
62.8996 102.347 104.068
62.5122 102.446 103.148
62.9891 103.818 104.271
62.1075 102.437 102.297
61.4691 101.18 102.148
62.6368 100.883 104.07
63.1572 102.226 105.087
63.8568 104.697 105.237
63.5799 105.084 104.43
61.2883 99.8757 102.189
61.9054 99.8416 103.259
61.21 98.7128 102.404
60.8756 99.7956 101.065
60.8639 97.4045 101.623
63.6453 103.363 105.982
64.2218 104.532 106.071
64.3859 104.341 106.788
64.516 105.877 106.29
64.9572 105.482 107.739
63.475 105.004 103.688
62.8528 103.639 102.622
63.7469 104.722 102.903
62.2953 102.329 101.632
64.1961 106.067 104.703
64.5641 105.469 103.257
64.2498 104.294 102.558
74.8927 112.066 113.86
73.4142 113.313 113.368
75.1632 113.609 112.642
71.9277 113.519 112.623
71.8705 112.209 113.66
74.4583 110.151 114.296
75.7197 110.338 113.695
76.1287 112.901 111.766
74.813 113.702 111.412
71.8966 110.605 114.732
73.0654 109.665 114.869
71.6072 108.821 115.014
73.857 108.295 114.837
70.5129 111.037 113.88
70.147 108.083 115.066
71.1222 107.114 115.314
76.6009 110.322 112.84
77.1242 111.499 112.184
76.9503 109.557 111.89
76.8241 111.884 110.709
76.0132 108.372 113.431
76.997 107.955 111.679
77.2801 108.743 110.959
73.3876 114.346 111.074
72.0392 114.363 111.58
72.1352 114.032 110.515
70.7841 113.158 111.93
74.1663 113.425 110.271
71.8148 113.778 109.456
70.8715 113.922 110.006
68.7167 110.75 111.979
67.9024 109.277 111.717
67.7542 110.372 110.982
67.397 107.774 111.279
68.2398 107.987 112.254
69.5619 110.999 112.909
69.5462 112.041 111.998
67.7212 111.229 110.139
67.218 109.743 109.909
69.0708 108.341 113.23
69.5457 109.906 113.738
69.5063 108.518 114.319
68.2684 106.703 112.782
69.468 106.862 114.543
69.6893 112.841 111.134
68.5769 112.576 110.25
69.7038 113.369 110.181
67.8671 111.758 109.23
69.6643 113.623 109.184
66.5665 108.264 109.834
66.7445 107.411 110.47
66.0551 106.747 109.466
66.9153 106.278 110.891
66.3347 109.064 109.053
65.3995 106.401 108.671
65.5685 105.619 109.162
68.7249 92.2988 99.99
68.9315 93.3405 101.358
69.0549 93.978 100.621
69.1993 94.4076 102.679
68.8547 93.0261 102.315
67.2874 91.5319 100.026
67.6281 92.4294 99.0439
69.1728 95.2211 100.143
69.4582 95.5501 101.367
68.1068 91.6294 102.05
67.1376 90.9427 100.895
67.1362 90.8199 102.073
65.9056 90.5636 100.138
68.4988 92.9734 103.24
67.2633 90.9074 103.18
66.0399 90.312 102.409
67.8246 93.6441 98.1955
68.4845 94.9366 99.0709
67.7349 95.0499 98.1916
69.1256 96.4256 99.9994
66.553 92.7507 98.1
66.8373 95.4852 97.8634
67.4819 96.6239 98.8072
70.0855 96.2215 102.56
69.8565 95.8923 103.105
70.6499 97.0551 103.53
69.67 95.4918 103.787
70.1169 96.9683 102.179
71.2124 98.3973 104.154
71.1858 97.9072 104.581
62.1556 90.4494 99.5758
63.2336 90.8921 98.4773
62.2795 91.8906 98.3913
64.6052 91.5318 98.3726
64.5905 90.4136 99.2353
62.4235 90.0512 100.987
61.3445 91.1272 100.681
61.3253 93.3885 98.3753
62.5057 93.5282 97.9015
64.6138 89.7056 100.52
63.8364 89.7856 101.197
64.7089 90.1523 101.686
63.0367 90.0778 102.275
65.2608 89.9386 102.962
60.8897 92.6718 100.635
60.7301 93.7595 99.5428
60.7649 94.3785 100.795
60.8295 95.0898 98.7632
61.6184 92.3107 101.838
61.2746 95.1339 101.75
60.7252 95.8732 101.071
63.7487 94.2981 97.4619
64.9785 93.0282 97.2321
65.4188 94.5088 97.3682
62.8368 95.2527 97.7313
65.5603 95.9602 98.2572
73.3986 103.323 113.718
74.3425 104.983 113.739
74.4716 103.495 113.045
75.3319 106.633 113.772
74.2618 106.59 114.489
72.4328 102.988 114.24
72.4267 101.802 113.609
74.3196 102.35 112.273
75.2374 103.65 112.304
73.1301 106.407 115.065
72.2084 104.669 114.665
71.8656 106.066 115.375
72.5607 100.821 112.647
73.3343 101.155 112.19
72.2987 100.098 111.835
75.8847 105.343 112.304
76.0504 106.651 112.997
76.3803 106.799 112.009
75.2064 111.259 108.684
74.1401 110.212 107.902
75.0983 109.582 108.115
73.093 109.332 107.234
73.0948 110.75 107.579
74.938 112.543 109.399
76.1282 111.953 109.597
75.7261 108.864 108.121
74.7878 108.405 107.499
73.0303 112.266 108.348
73.6845 112.992 109.209
72.6559 113.391 108.772
76.9314 110.718 109.808
76.6322 109.21 108.907
77.3387 109.276 109.935
73.8654 107.939 106.554
73.1337 108.583 106.472
72.8071 107.135 106.06
69.6488 95.1153 106.278
70.2888 96.3119 106.459
69.9648 94.845 105.403
70.8549 97.5546 106.709
71.1359 97.4406 107.541
69.5588 95.2601 107.174
68.6563 94.2136 106.178
69.0441 93.9861 104.394
69.8451 95.1519 104.601
71.1283 97.0441 108.287
70.3066 96.1762 108.092
70.7836 97.3652 109.094
68.1315 93.0228 105.123
68.2496 92.9298 104.21
67.5565 92.1964 104.172
70.3646 96.3343 104.835
70.8403 97.5312 105.911
71.0061 97.6048 105.246
70.8639 100.862 102.837
69.9937 100.405 102.012
70.3655 99.065 101.786
69.2804 100.468 101.226
69.5779 101.572 102.31
71.3155 102.517 103.856
71.2682 101.348 103.771
70.3023 97.8784 101.821
69.6276 97.8207 100.899
70.4325 102.835 103.425
71.3512 103.292 104.011
71.3142 104.066 104.316
71.2945 100.349 103.786
70.9067 98.434 102.844
71.2334 99.4369 103.962
68.9847 97.7915 100.131
68.6657 99.1632 100.454
68.1896 97.9463 99.5769
66.8131 102.811 111.817
66.1119 102.724 111.004
66.7829 103.995 111.647
65.4201 102.643 110.106
65.4493 101.452 110.198
66.8191 101.544 111.915
67.342 102.81 112.73
67.3994 105.427 112.347
66.8534 105.222 111.349
65.6021 100.236 110.31
66.2759 100.22 111.105
65.8541 99.0788 110.183
67.9566 104.123 113.496
68.1253 105.421 113.211
68.8385 105.526 114.018
66.2147 104.915 110.392
65.4636 103.726 109.774
65.4911 104.774 109.51
65.7127 108.334 106.576
66.2734 109.603 106.55
66.0091 110.026 107.412
67.3247 110.296 106.483
66.6087 108.798 105.866
65.1034 106.928 105.684
64.9121 107.251 106.498
66.0249 109.907 108.342
66.8437 111.022 108.214
65.932 107.78 104.995
65.0543 106.859 104.882
65.1452 106.752 104.041
65.0029 107.15 107.365
65.599 108.311 108.246
65.2503 106.897 108.103
67.7902 111.898 108.301
68.1244 111.459 107.543
68.9365 112.818 108.378
62.6368 93.18 105.042
63.032 92.1252 105.307
62.466 91.8333 104.242
63.8976 91.4084 105.848
63.691 92.7468 106.46
62.9588 94.6616 105.804
62.557 94.5619 104.733
61.9478 91.9168 103.002
62.3197 90.6248 103.241
63.967 94.032 107.143
63.5555 94.8715 106.884
64.4413 95.3545 107.737
62.0543 94.4406 103.7
61.8172 93.3144 102.851
61.722 94.6528 102.66
63.4594 89.4474 103.566
64.4497 90.2429 104.711
64.7186 89.7495 103.806
62.593 99.5662 99.4928
61.5459 100.014 99.5133
61.6944 98.38 98.6248
60.8234 99.8876 100.123
61.9656 101.045 100.648
63.6599 100.932 100.284
63.8389 99.2279 99.7613
62.0195 96.6671 98.0792
60.9759 96.7253 98.4016
62.8466 102.159 101.199
63.8082 101.946 101.048
63.9445 103.043 101.881
64.1824 98.0757 99.1138
63.3836 96.7492 98.1893
64.6486 96.9244 98.7039
60.4449 96.9804 99.4377
60.2539 98.5846 100.156
60.4013 97.1056 100.61
POLYGONS 1280  5120
3 164 162 163
3 163 44 164
3 162 43 163
3 164 42 162
3 166 165 163
3 163 43 166
3 165 44 163
3 166 14 165
3 168 167 162
3 162 42 168
3 167 43 162
3 168 13 167
3 170 169 164
3 164 44 170
3 169 42 164
3 170 12 169
3 173 171 172
3 172 46 173
3 171 43 172
3 173 45 171
3 167 174 172
3 172 43 167
3 174 46 172
3 167 13 174
3 175 166 171
3 171 45 175
3 166 43 171
3 175 14 166
3 177 176 173
3 173 46 177
3 176 45 173
3 177 4 176
3 180 178 179
3 179 48 180
3 178 42 179
3 180 47 178
3 169 181 179
3 179 42 169
3 181 48 179
3 169 12 181
3 182 168 178
3 178 47 182
3 168 42 178
3 182 13 168
3 184 183 180
3 180 48 184
3 183 47 180
3 184 8 183
3 187 185 186
3 186 50 187
3 185 44 186
3 187 49 185
3 165 188 186
3 186 44 165
3 188 50 186
3 165 14 188
3 189 170 185
3 185 49 189
3 170 44 185
3 189 12 170
3 191 190 187
3 187 50 191
3 190 49 187
3 191 7 190
3 194 192 193
3 193 53 194
3 192 52 193
3 194 51 192
3 196 195 193
3 193 52 196
3 195 53 193
3 196 16 195
3 198 197 192
3 192 51 198
3 197 52 192
3 198 14 197
3 200 199 194
3 194 53 200
3 199 51 194
3 200 15 199
3 203 201 202
3 202 45 203
3 201 52 202
3 203 54 201
3 197 175 202
3 202 52 197
3 175 45 202
3 197 14 175
3 204 196 201
3 201 54 204
3 196 52 201
3 204 16 196
3 176 205 203
3 203 45 176
3 205 54 203
3 176 4 205
3 208 206 207
3 207 55 208
3 206 51 207
3 208 50 206
3 199 209 207
3 207 51 199
3 209 55 207
3 199 15 209
3 188 198 206
3 206 50 188
3 198 51 206
3 188 14 198
3 210 191 208
3 208 55 210
3 191 50 208
3 210 7 191
3 213 211 212
3 212 57 213
3 211 53 212
3 213 56 211
3 195 214 212
3 212 53 195
3 214 57 212
3 195 16 214
3 215 200 211
3 211 56 215
3 200 53 211
3 215 15 200
3 217 216 213
3 213 57 217
3 216 56 213
3 217 9 216
3 220 218 219
3 219 60 220
3 218 59 219
3 220 58 218
3 222 221 219
3 219 59 222
3 221 60 219
3 222 19 221
3 224 223 218
3 218 58 224
3 223 59 218
3 224 18 223
3 226 225 220
3 220 60 226
3 225 58 220
3 226 17 225
3 229 227 228
3 228 62 229
3 227 59 228
3 229 61 227
3 223 230 228
3 228 59 223
3 230 62 228
3 223 18 230
3 231 222 227
3 227 61 231
3 222 59 227
3 231 19 222
3 233 232 229
3 229 62 233
3 232 61 229
3 233 5 232
3 236 234 235
3 235 64 236
3 234 58 235
3 236 63 234
3 225 237 235
3 235 58 225
3 237 64 235
3 225 17 237
3 238 224 234
3 234 63 238
3 224 58 234
3 238 18 224
3 240 239 236
3 236 64 240
3 239 63 236
3 240 6 239
3 243 241 242
3 242 66 243
3 241 60 242
3 243 65 241
3 221 244 242
3 242 60 221
3 244 66 242
3 221 19 244
3 245 226 241
3 241 65 245
3 226 60 241
3 245 17 226
3 247 246 243
3 243 66 247
3 246 65 243
3 247 11 246
3 250 248 249
3 249 69 250
3 248 68 249
3 250 67 248
3 252 251 249
3 249 68 252
3 251 69 249
3 252 18 251
3 254 253 248
3 248 67 254
3 253 68 248
3 254 21 253
3 256 255 250
3 250 69 256
3 255 67 250
3 256 20 255
3 259 257 258
3 258 70 259
3 257 68 258
3 259 62 257
3 253 260 258
3 258 68 253
3 260 70 258
3 253 21 260
3 230 252 257
3 257 62 230
3 252 68 257
3 230 18 252
3 261 233 259
3 259 70 261
3 233 62 259
3 261 5 233
3 264 262 263
3 263 72 264
3 262 67 263
3 264 71 262
3 255 265 263
3 263 67 255
3 265 72 263
3 255 20 265
3 266 254 262
3 262 71 266
3 254 67 262
3 266 21 254
3 268 267 264
3 264 72 268
3 267 71 264
3 268 10 267
3 271 269 270
3 270 63 271
3 269 69 270
3 271 73 269
3 251 238 270
3 270 69 251
3 238 63 270
3 251 18 238
3 272 256 269
3 269 73 272
3 256 69 269
3 272 20 256
3 239 273 271
3 271 63 239
3 273 73 271
3 239 6 273
3 276 274 275
3 275 76 276
3 274 75 275
3 276 74 274
3 278 277 275
3 275 75 278
3 277 76 275
3 278 24 277
3 280 279 274
3 274 74 280
3 279 75 274
3 280 23 279
3 282 281 276
3 276 76 282
3 281 74 276
3 282 22 281
3 285 283 284
3 284 78 285
3 283 75 284
3 285 77 283
3 279 286 284
3 284 75 279
3 286 78 284
3 279 23 286
3 287 278 283
3 283 77 287
3 278 75 283
3 287 24 278
3 289 288 285
3 285 78 289
3 288 77 285
3 289 0 288
3 292 290 291
3 291 80 292
3 290 74 291
3 292 79 290
3 281 293 291
3 291 74 281
3 293 80 291
3 281 22 293
3 294 280 290
3 290 79 294
3 280 74 290
3 294 23 280
3 296 295 292
3 292 80 296
3 295 79 292
3 296 4 295
3 299 297 298
3 298 82 299
3 297 76 298
3 299 81 297
3 277 300 298
3 298 76 277
3 300 82 298
3 277 24 300
3 301 282 297
3 297 81 301
3 282 76 297
3 301 22 282
3 303 302 299
3 299 82 303
3 302 81 299
3 303 3 302
3 306 304 305
3 305 85 306
3 304 84 305
3 306 83 304
3 308 307 305
3 305 84 308
3 307 85 305
3 308 26 307
3 310 309 304
3 304 83 310
3 309 84 304
3 310 24 309
3 312 311 306
3 306 85 312
3 311 83 306
3 312 25 311
3 315 313 314
3 314 77 315
3 313 84 314
3 315 86 313
3 309 287 314
3 314 84 309
3 287 77 314
3 309 24 287
3 316 308 313
3 313 86 316
3 308 84 313
3 316 26 308
3 288 317 315
3 315 77 288
3 317 86 315
3 288 0 317
3 320 318 319
3 319 87 320
3 318 83 319
3 320 82 318
3 311 321 319
3 319 83 311
3 321 87 319
3 311 25 321
3 300 310 318
3 318 82 300
3 310 83 318
3 300 24 310
3 322 303 320
3 320 87 322
3 303 82 320
3 322 3 303
3 325 323 324
3 324 89 325
3 323 85 324
3 325 88 323
3 307 326 324
3 324 85 307
3 326 89 324
3 307 26 326
3 327 312 323
3 323 88 327
3 312 85 323
3 327 25 312
3 329 328 325
3 325 89 329
3 328 88 325
3 329 5 328
3 332 330 331
3 331 92 332
3 330 91 331
3 332 90 330
3 334 333 331
3 331 91 334
3 333 92 331
3 334 29 333
3 336 335 330
3 330 90 336
3 335 91 330
3 336 28 335
3 338 337 332
3 332 92 338
3 337 90 332
3 338 27 337
3 341 339 340
3 340 94 341
3 339 91 340
3 341 93 339
3 335 342 340
3 340 91 335
3 342 94 340
3 335 28 342
3 343 334 339
3 339 93 343
3 334 91 339
3 343 29 334
3 345 344 341
3 341 94 345
3 344 93 341
3 345 2 344
3 348 346 347
3 347 96 348
3 346 90 347
3 348 95 346
3 337 349 347
3 347 90 337
3 349 96 347
3 337 27 349
3 350 336 346
3 346 95 350
3 336 90 346
3 350 28 336
3 352 351 348
3 348 96 352
3 351 95 348
3 352 7 351
3 355 353 354
3 354 98 355
3 353 92 354
3 355 97 353
3 333 356 354
3 354 92 333
3 356 98 354
3 333 29 356
3 357 338 353
3 353 97 357
3 338 92 353
3 357 27 338
3 359 358 355
3 355 98 359
3 358 97 355
3 359 1 358
3 362 360 361
3 361 101 362
3 360 100 361
3 362 99 360
3 364 363 361
3 361 100 364
3 363 101 361
3 364 31 363
3 366 365 360
3 360 99 366
3 365 100 360
3 366 29 365
3 368 367 362
3 362 101 368
3 367 99 362
3 368 30 367
3 371 369 370
3 370 93 371
3 369 100 370
3 371 102 369
3 365 343 370
3 370 100 365
3 343 93 370
3 365 29 343
3 372 364 369
3 369 102 372
3 364 100 369
3 372 31 364
3 344 373 371
3 371 93 344
3 373 102 371
3 344 2 373
3 376 374 375
3 375 103 376
3 374 99 375
3 376 98 374
3 367 377 375
3 375 99 367
3 377 103 375
3 367 30 377
3 356 366 374
3 374 98 356
3 366 99 374
3 356 29 366
3 378 359 376
3 376 103 378
3 359 98 376
3 378 1 359
3 381 379 380
3 380 105 381
3 379 101 380
3 381 104 379
3 363 382 380
3 380 101 363
3 382 105 380
3 363 31 382
3 383 368 379
3 379 104 383
3 368 101 379
3 383 30 368
3 385 384 381
3 381 105 385
3 384 104 381
3 385 6 384
3 388 386 387
3 387 108 388
3 386 107 387
3 388 106 386
3 390 389 387
3 387 107 390
3 389 108 387
3 390 34 389
3 392 391 386
3 386 106 392
3 391 107 386
3 392 33 391
3 394 393 388
3 388 108 394
3 393 106 388
3 394 32 393
3 397 395 396
3 396 110 397
3 395 107 396
3 397 109 395
3 391 398 396
3 396 107 391
3 398 110 396
3 391 33 398
3 399 390 395
3 395 109 399
3 390 107 395
3 399 34 390
3 401 400 397
3 397 110 401
3 400 109 397
3 401 8 400
3 404 402 403
3 403 112 404
3 402 106 403
3 404 111 402
3 393 405 403
3 403 106 393
3 405 112 403
3 393 32 405
3 406 392 402
3 402 111 406
3 392 106 402
3 406 33 392
3 408 407 404
3 404 112 408
3 407 111 404
3 408 0 407
3 411 409 410
3 410 114 411
3 409 108 410
3 411 113 409
3 389 412 410
3 410 108 389
3 412 114 410
3 389 34 412
3 413 394 409
3 409 113 413
3 394 108 409
3 413 32 394
3 415 414 411
3 411 114 415
3 414 113 411
3 415 11 414
3 418 416 417
3 417 117 418
3 416 116 417
3 418 115 416
3 420 419 417
3 417 116 420
3 419 117 417
3 420 36 419
3 422 421 416
3 416 115 422
3 421 116 416
3 422 34 421
3 424 423 418
3 418 117 424
3 423 115 418
3 424 35 423
3 427 425 426
3 426 109 427
3 425 116 426
3 427 118 425
3 421 399 426
3 426 116 421
3 399 109 426
3 421 34 399
3 428 420 425
3 425 118 428
3 420 116 425
3 428 36 420
3 400 429 427
3 427 109 400
3 429 118 427
3 400 8 429
3 432 430 431
3 431 119 432
3 430 115 431
3 432 114 430
3 423 433 431
3 431 115 423
3 433 119 431
3 423 35 433
3 412 422 430
3 430 114 412
3 422 115 430
3 412 34 422
3 434 415 432
3 432 119 434
3 415 114 432
3 434 11 415
3 437 435 436
3 436 121 437
3 435 117 436
3 437 120 435
3 419 438 436
3 436 117 419
3 438 121 436
3 419 36 438
3 439 424 435
3 435 120 439
3 424 117 435
3 439 35 424
3 441 440 437
3 437 121 441
3 440 120 437
3 441 1 440
3 444 442 443
3 443 124 444
3 442 123 443
3 444 122 442
3 446 445 443
3 443 123 446
3 445 124 443
3 446 39 445
3 448 447 442
3 442 122 448
3 447 123 442
3 448 38 447
3 450 449 444
3 444 124 450
3 449 122 444
3 450 37 449
3 453 451 452
3 452 126 453
3 451 123 452
3 453 125 451
3 447 454 452
3 452 123 447
3 454 126 452
3 447 38 454
3 455 446 451
3 451 125 455
3 446 123 451
3 455 39 446
3 457 456 453
3 453 126 457
3 456 125 453
3 457 9 456
3 460 458 459
3 459 128 460
3 458 122 459
3 460 127 458
3 449 461 459
3 459 122 449
3 461 128 459
3 449 37 461
3 462 448 458
3 458 127 462
3 448 122 458
3 462 38 448
3 464 463 460
3 460 128 464
3 463 127 460
3 464 10 463
3 467 465 466
3 466 130 467
3 465 124 466
3 467 129 465
3 445 468 466
3 466 124 445
3 468 130 466
3 445 39 468
3 469 450 465
3 465 129 469
3 450 124 465
3 469 37 450
3 471 470 467
3 467 130 471
3 470 129 467
3 471 3 470
3 474 472 473
3 473 133 474
3 472 132 473
3 474 131 472
3 476 475 473
3 473 132 476
3 475 133 473
3 476 38 475
3 478 477 472
3 472 131 478
3 477 132 472
3 478 41 477
3 480 479 474
3 474 133 480
3 479 131 474
3 480 40 479
3 483 481 482
3 482 134 483
3 481 132 482
3 483 126 481
3 477 484 482
3 482 132 477
3 484 134 482
3 477 41 484
3 454 476 481
3 481 126 454
3 476 132 481
3 454 38 476
3 485 457 483
3 483 134 485
3 457 126 483
3 485 9 457
3 488 486 487
3 487 136 488
3 486 131 487
3 488 135 486
3 479 489 487
3 487 131 479
3 489 136 487
3 479 40 489
3 490 478 486
3 486 135 490
3 478 131 486
3 490 41 478
3 492 491 488
3 488 136 492
3 491 135 488
3 492 2 491
3 495 493 494
3 494 127 495
3 493 133 494
3 495 137 493
3 475 462 494
3 494 133 475
3 462 127 494
3 475 38 462
3 496 480 493
3 493 137 496
3 480 133 493
3 496 40 480
3 463 497 495
3 495 127 463
3 497 137 495
3 463 10 497
3 500 498 499
3 499 140 500
3 498 139 499
3 500 138 498
3 502 501 499
3 499 139 502
3 501 140 499
3 502 33 501
3 504 503 498
3 498 138 504
3 503 139 498
3 504 13 503
3 506 505 500
3 500 140 506
3 505 138 500
3 506 23 505
3 509 507 508
3 508 47 509
3 507 139 508
3 509 110 507
3 503 182 508
3 508 139 503
3 182 47 508
3 503 13 182
3 398 502 507
3 507 110 398
3 502 139 507
3 398 33 502
3 183 401 509
3 509 47 183
3 401 110 509
3 183 8 401
3 512 510 511
3 511 79 512
3 510 138 511
3 512 46 510
3 505 294 511
3 511 138 505
3 294 79 511
3 505 23 294
3 174 504 510
3 510 46 174
3 504 138 510
3 174 13 504
3 295 177 512
3 512 79 295
3 177 46 512
3 295 4 177
3 515 513 514
3 514 111 515
3 513 140 514
3 515 78 513
3 501 406 514
3 514 140 501
3 406 111 514
3 501 33 406
3 286 506 513
3 513 78 286
3 506 140 513
3 286 23 506
3 407 289 515
3 515 111 407
3 289 78 515
3 407 0 289
3 518 516 517
3 517 143 518
3 516 142 517
3 518 141 516
3 520 519 517
3 517 142 520
3 519 143 517
3 520 19 519
3 522 521 516
3 516 141 522
3 521 142 516
3 522 32 521
3 524 523 518
3 518 143 524
3 523 141 518
3 524 26 523
3 527 525 526
3 526 113 527
3 525 142 526
3 527 66 525
3 521 413 526
3 526 142 521
3 413 113 526
3 521 32 413
3 244 520 525
3 525 66 244
3 520 142 525
3 244 19 520
3 414 247 527
3 527 113 414
3 247 66 527
3 414 11 247
3 530 528 529
3 529 86 530
3 528 141 529
3 530 112 528
3 523 316 529
3 529 141 523
3 316 86 529
3 523 26 316
3 405 522 528
3 528 112 405
3 522 141 528
3 405 32 522
3 317 408 530
3 530 86 317
3 408 112 530
3 317 0 408
3 533 531 532
3 532 61 533
3 531 143 532
3 533 89 531
3 519 231 532
3 532 143 519
3 231 61 532
3 519 19 231
3 326 524 531
3 531 89 326
3 524 143 531
3 326 26 524
3 232 329 533
3 533 61 232
3 329 89 533
3 232 5 329
3 536 534 535
3 535 146 536
3 534 145 535
3 536 144 534
3 538 537 535
3 535 145 538
3 537 146 535
3 538 22 537
3 540 539 534
3 534 144 540
3 539 145 534
3 540 16 539
3 542 541 536
3 536 146 542
3 541 144 536
3 542 39 541
3 545 543 544
3 544 54 545
3 543 145 544
3 545 80 543
3 539 204 544
3 544 145 539
3 204 54 544
3 539 16 204
3 293 538 543
3 543 80 293
3 538 145 543
3 293 22 538
3 205 296 545
3 545 54 205
3 296 80 545
3 205 4 296
3 548 546 547
3 547 125 548
3 546 144 547
3 548 57 546
3 541 455 547
3 547 144 541
3 455 125 547
3 541 39 455
3 214 540 546
3 546 57 214
3 540 144 546
3 214 16 540
3 456 217 548
3 548 125 456
3 217 57 548
3 456 9 217
3 551 549 550
3 550 81 551
3 549 146 550
3 551 130 549
3 537 301 550
3 550 146 537
3 301 81 550
3 537 22 301
3 468 542 549
3 549 130 468
3 542 146 549
3 468 39 542
3 302 471 551
3 551 81 302
3 471 130 551
3 302 3 471
3 554 552 553
3 553 149 554
3 552 148 553
3 554 147 552
3 556 555 553
3 553 148 556
3 555 149 553
3 556 21 555
3 558 557 552
3 552 147 558
3 557 148 552
3 558 25 557
3 560 559 554
3 554 149 560
3 559 147 554
3 560 37 559
3 563 561 562
3 562 88 563
3 561 148 562
3 563 70 561
3 557 327 562
3 562 148 557
3 327 88 562
3 557 25 327
3 260 556 561
3 561 70 260
3 556 148 561
3 260 21 556
3 328 261 563
3 563 88 328
3 261 70 563
3 328 5 261
3 566 564 565
3 565 129 566
3 564 147 565
3 566 87 564
3 559 469 565
3 565 147 559
3 469 129 565
3 559 37 469
3 321 558 564
3 564 87 321
3 558 147 564
3 321 25 558
3 470 322 566
3 566 129 470
3 322 87 566
3 470 3 322
3 569 567 568
3 568 71 569
3 567 149 568
3 569 128 567
3 555 266 568
3 568 149 555
3 266 71 568
3 555 21 266
3 461 560 567
3 567 128 461
3 560 149 567
3 461 37 560
3 267 464 569
3 569 71 267
3 464 128 569
3 267 10 464
3 572 570 571
3 571 152 572
3 570 151 571
3 572 150 570
3 574 573 571
3 571 151 574
3 573 152 571
3 574 27 573
3 576 575 570
3 570 150 576
3 575 151 570
3 576 12 575
3 578 577 572
3 572 152 578
3 577 150 572
3 578 36 577
3 581 579 580
3 580 49 581
3 579 151 580
3 581 96 579
3 575 189 580
3 580 151 575
3 189 49 580
3 575 12 189
3 349 574 579
3 579 96 349
3 574 151 579
3 349 27 574
3 190 352 581
3 581 49 190
3 352 96 581
3 190 7 352
3 584 582 583
3 583 118 584
3 582 150 583
3 584 48 582
3 577 428 583
3 583 150 577
3 428 118 583
3 577 36 428
3 181 576 582
3 582 48 181
3 576 150 582
3 181 12 576
3 429 184 584
3 584 118 429
3 184 48 584
3 429 8 184
3 587 585 586
3 586 97 587
3 585 152 586
3 587 121 585
3 573 357 586
3 586 152 573
3 357 97 586
3 573 27 357
3 438 578 585
3 585 121 438
3 578 152 585
3 438 36 578
3 358 441 587
3 587 97 358
3 441 121 587
3 358 1 441
3 590 588 589
3 589 155 590
3 588 154 589
3 590 153 588
3 592 591 589
3 589 154 592
3 591 155 589
3 592 17 591
3 594 593 588
3 588 153 594
3 593 154 588
3 594 30 593
3 596 595 590
3 590 155 596
3 595 153 590
3 596 35 595
3 599 597 598
3 598 104 599
3 597 154 598
3 599 64 597
3 593 383 598
3 598 154 593
3 383 104 598
3 593 30 383
3 237 592 597
3 597 64 237
3 592 154 597
3 237 17 592
3 384 240 599
3 599 104 384
3 240 64 599
3 384 6 240
3 602 600 601
3 601 120 602
3 600 153 601
3 602 103 600
3 595 439 601
3 601 153 595
3 439 120 601
3 595 35 439
3 377 594 600
3 600 103 377
3 594 153 600
3 377 30 594
3 440 378 602
3 602 120 440
3 378 103 602
3 440 1 378
3 605 603 604
3 604 65 605
3 603 155 604
3 605 119 603
3 591 245 604
3 604 155 591
3 245 65 604
3 591 17 245
3 433 596 603
3 603 119 433
3 596 155 603
3 433 35 596
3 246 434 605
3 605 65 246
3 434 119 605
3 246 11 434
3 608 606 607
3 607 158 608
3 606 157 607
3 608 156 606
3 610 609 607
3 607 157 610
3 609 158 607
3 610 15 609
3 612 611 606
3 606 156 612
3 611 157 606
3 612 28 611
3 614 613 608
3 608 158 614
3 613 156 608
3 614 41 613
3 617 615 616
3 616 95 617
3 615 157 616
3 617 55 615
3 611 350 616
3 616 157 611
3 350 95 616
3 611 28 350
3 209 610 615
3 615 55 209
3 610 157 615
3 209 15 610
3 351 210 617
3 617 95 351
3 210 55 617
3 351 7 210
3 620 618 619
3 619 135 620
3 618 156 619
3 620 94 618
3 613 490 619
3 619 156 613
3 490 135 619
3 613 41 490
3 342 612 618
3 618 94 342
3 612 156 618
3 342 28 612
3 491 345 620
3 620 135 491
3 345 94 620
3 491 2 345
3 623 621 622
3 622 56 623
3 621 158 622
3 623 134 621
3 609 215 622
3 622 158 609
3 215 56 622
3 609 15 215
3 484 614 621
3 621 134 484
3 614 158 621
3 484 41 614
3 216 485 623
3 623 56 216
3 485 134 623
3 216 9 485
3 626 624 625
3 625 161 626
3 624 160 625
3 626 159 624
3 628 627 625
3 625 160 628
3 627 161 625
3 628 31 627
3 630 629 624
3 624 159 630
3 629 160 624
3 630 20 629
3 632 631 626
3 626 161 632
3 631 159 626
3 632 40 631
3 635 633 634
3 634 73 635
3 633 160 634
3 635 105 633
3 629 272 634
3 634 160 629
3 272 73 634
3 629 20 272
3 382 628 633
3 633 105 382
3 628 160 633
3 382 31 628
3 273 385 635
3 635 73 273
3 385 105 635
3 273 6 385
3 638 636 637
3 637 137 638
3 636 159 637
3 638 72 636
3 631 496 637
3 637 159 631
3 496 137 637
3 631 40 496
3 265 630 636
3 636 72 265
3 630 159 636
3 265 20 630
3 497 268 638
3 638 137 497
3 268 72 638
3 497 10 268
3 641 639 640
3 640 102 641
3 639 161 640
3 641 136 639
3 627 372 640
3 640 161 627
3 372 102 640
3 627 31 372
3 489 632 639
3 639 136 489
3 632 161 639
3 489 40 632
3 373 492 641
3 641 102 373
3 492 136 641
3 373 2 492
