# vtk DataFile Version 3.0
this file was written using fslvtkio
ASCII
DATASET POLYDATA
POINTS 642 float
113.469 127.397 82.8649
98.5121 128.41 81.9121
102.494 115.332 85.2865
118.283 114.229 85.0587
114.86 123.956 91.0901
111.699 118.864 79.137
102.51 119.388 77.8269
104.007 124.078 90.8111
107.206 134.548 85.5234
110.868 113.072 89.7981
110.771 106.86 81.3322
105.592 131.7 75.1074
105.295 130.242 88.839
111.899 131.085 89.4666
110.097 124.7 92.4
107.408 117.947 91.4334
114.125 117.629 92.5563
102.409 126.253 75.0526
107.428 118.209 77.8454
107.934 125.32 77.7578
106.924 112.529 80.4215
112.764 112.163 79.7408
117.56 118.297 89.0451
114.748 126.844 87.0905
116.466 120.523 84.3317
115.855 115.068 81.6084
112.854 123.32 80.3848
100.694 127.321 86.9707
102.363 119.455 88.3783
99.0674 121.765 83.7193
99.1488 124.48 78.3442
101.058 115.763 81.1036
109.667 130.363 79.4233
111.775 133.609 84.0049
105.213 135.381 79.656
100.167 131.779 76.5795
101.787 132.868 83.6053
118.07 108.139 81.7748
111.251 107.692 86.0768
116.187 112.316 88.2942
105.352 109.166 83.9017
105.732 112.038 88.5777
108.714 130.975 89.9788
110.994 128.364 91.8243
107.719 127.603 90.9496
112.842 124.447 92.6676
113.45 127.844 90.4643
109.775 133.388 87.9253
106.336 132.45 87.2442
104.444 127.434 90.3112
106.921 124.3 91.7928
108.654 121.303 92.4502
112.03 121.12 92.889
110.7 117.898 92.4749
114.894 120.67 91.9595
105.584 120.926 91.3203
108.979 115.116 91.2144
112.444 115.066 91.7947
104.981 122.658 76.5725
107.397 122.031 77.5156
105.47 125.74 75.9332
109.699 122.028 78.7319
109.605 118.553 78.2516
105.05 119.156 77.8206
102.371 122.719 76.1014
104.133 128.895 74.5116
106.768 128.442 76.4415
109.716 111.911 79.6951
110.239 114.784 78.6038
107.122 115.166 78.6661
112.479 115.392 79.0201
111.876 109.244 79.933
108.403 109.388 80.617
104.66 115.855 79.1415
116.33 122.475 88.0866
115.424 123.291 85.9367
117.427 119.738 86.6305
114.601 123.851 83.8134
114.142 127.066 85.017
115.12 125.463 89.1324
116.344 121.293 90.0975
118.299 116.172 87.2043
117.718 117.433 84.5175
116.667 118.204 82.4608
114.524 121.699 82.4924
114.79 119.242 80.9473
113.253 125.395 81.4858
117.416 114.361 82.8934
114.256 117.126 79.933
112.168 121.041 79.9094
100.978 123.373 87.8488
100.059 120.578 86.4312
99.2224 124.423 85.6303
100.16 118.29 84.6665
102.138 117.275 86.8995
103.034 121.683 89.754
102.111 125.865 89.1161
99.1597 127.9 84.6437
98.4681 125.096 82.919
99.1017 122.988 80.9675
99.9633 118.883 82.2679
100.049 120.179 79.906
101.587 115.549 83.2694
98.4113 126.402 79.9944
100.396 121.579 77.6425
101.592 117.263 79.2075
110.821 132.705 81.2293
108.924 135.525 81.9044
108.003 134.031 78.7006
106.015 135.285 82.7246
109.922 135.089 85.1683
112.683 130.502 83.2977
111.843 129.016 81.1415
107.911 130.96 77.3398
104.903 133.993 76.6372
102.365 133.916 77.4207
103.135 134.118 81.0667
100.457 132.594 79.9868
104.326 133.733 84.483
102.207 131.801 74.3607
98.9112 130.201 79.4718
99.7756 130.896 82.8047
115.173 107.042 84.1095
114.026 109.4 87.273
116.977 109.48 85.2088
113.451 112.384 89.2625
110.892 110.073 88.3813
110.996 106.531 83.6777
114.654 107.149 80.8542
118.202 111.32 83.7268
118.151 113.011 86.9335
105.089 109.741 86.6442
108.142 109.135 87.704
107.891 107.184 85.2834
108.185 112.421 89.2916
103.874 113.396 87.1608
103.756 112.166 84.8022
107.558 107.681 82.3868
113.996 129.373 88.3605
112.132 132.69 86.8771
113.578 130.388 85.5146
111.467 127.003 79.8226
108.945 127.785 78.3804
110.523 124.558 78.9951
115.244 114.603 91.0367
116.661 117.866 91.2651
117.751 114.825 89.3317
117.279 111.289 81.4606
114.324 114.022 80.4537
115.321 109.531 79.8632
103.028 132.33 86.8608
102.336 129.375 88.5608
100.767 130.487 85.5338
98.8865 128.379 77.456
100.228 125.037 76.2389
100.714 129.234 74.8547
104.154 115.826 88.5193
104.729 118.351 90.1831
106.334 115.086 89.9521
105.752 110.703 81.8951
103.886 114.333 80.6277
103.546 113.101 82.6849
109.792 129.699 91.032
109.263 128.076 91.5212
108.135 129.335 90.5655
109.033 126.264 91.7667
110.429 126.78 92.2597
111.383 129.921 90.8928
110.345 131.141 90.0561
107.216 130.485 89.3248
106.668 129.111 89.8076
111.86 126.602 92.2057
112.338 128.316 91.318
112.981 126.484 91.6832
112.734 129.686 90.1678
111.452 124.818 92.718
113.864 124.436 91.9906
113.926 125.863 90.9337
109.308 132.252 89.0776
107.587 131.894 88.7312
108.106 133.114 88.1186
105.897 131.255 88.0781
110.905 132.392 88.9149
108.42 133.899 86.8762
106.884 133.461 86.5614
106.13 127.651 90.5158
107.386 126.004 91.4313
105.8 126.046 91.172
108.52 124.524 92.0073
104.9 128.973 89.7625
104.309 125.735 90.835
105.416 124.322 91.4346
110.321 121.189 92.5759
111.327 119.493 92.7157
109.63 119.555 92.4238
112.403 117.905 92.6893
113.013 119.405 92.9978
111.008 122.859 92.7305
109.428 122.982 92.4119
108.093 119.597 92.1109
108.988 118.137 92.0746
113.594 120.907 92.824
112.382 122.843 92.9919
113.917 122.672 92.5342
114.55 119.143 92.6005
114.901 122.553 91.6851
107.795 122.802 92.1191
107.063 120.994 91.9764
106.148 122.626 91.766
106.735 119.53 91.4454
104.742 122.62 91.2004
109.774 116.688 91.8255
111.584 116.59 92.2196
110.668 115.326 91.629
113.338 116.404 92.2556
108.246 116.657 91.3528
110.026 114.092 90.7155
111.621 114.09 90.945
106.342 122.352 76.9498
106.513 124.055 76.8923
105.194 124.269 76.3494
106.655 125.429 76.8802
107.517 123.907 77.5567
107.204 120.175 77.7697
106.112 120.753 77.2962
103.787 124.486 75.8877
104.05 125.836 75.3685
108.399 122.197 78.1944
108.273 120.222 78.2024
109.286 120.497 78.7434
108.527 118.315 77.9711
108.761 123.7 78.2063
110.523 120.271 79.1544
110.552 118.829 78.6794
104.965 120.885 77.104
103.661 122.82 76.3242
103.678 121.04 76.879
102.47 124.52 75.6896
106.236 118.904 77.7337
103.772 119.416 77.7801
102.487 120.968 76.8882
104.869 127.171 75.335
106.325 127.004 76.2637
105.629 128.721 75.236
107.253 126.814 77.1924
103.425 127.388 74.879
104.965 130.44 74.5528
106.377 130.08 75.6208
109.838 113.431 79.1984
108.717 114.811 78.6427
108.546 113.624 79.3526
107.419 116.632 78.277
108.891 116.36 78.207
111.35 113.452 79.2561
111.104 112.144 79.4524
108.364 112.298 79.9711
107.245 113.716 79.5636
109.898 116.892 78.174
111.35 115.001 78.7683
111.165 117.093 78.5361
112.554 113.75 79.4872
112.057 117.229 78.9863
110.661 110.558 79.7373
108.97 110.674 80.0416
110.1 109.267 80.1745
107.734 111.028 80.5837
112.163 110.752 79.6979
111.227 107.936 80.4367
109.503 108.083 80.7681
105.959 115.373 79.0397
106.139 117.255 78.2096
104.857 117.517 78.4677
105.905 114.133 79.9347
103.589 117.849 78.548
115.907 122.85 86.9802
116.463 121.446 86.2706
116.897 121.029 87.3809
117.061 120.231 85.5219
116.025 121.772 85.2212
115.196 124.862 86.6183
115.365 124.403 87.5746
117.046 120.417 88.4471
117.456 119.134 87.8194
114.994 123.497 84.881
114.816 125.132 85.5967
114.357 125.361 84.4989
114.554 126.859 86.0791
115.195 122.036 84.2849
113.964 125.495 83.3533
113.927 127.137 83.8918
115.561 123.937 88.5982
116.505 121.871 89.1162
115.803 123.432 89.7127
116.937 119.805 89.4994
114.98 126.015 88.036
114.927 124.873 90.1371
115.803 122.783 90.735
117.807 117.933 86.9058
117.638 118.62 85.654
117.953 116.963 85.8858
117.3 119.087 84.3808
118.026 117.27 88.1542
118.292 115.354 86.0959
117.92 115.876 84.7932
115.473 120.099 82.6083
114.296 120.666 81.7343
115.735 118.846 81.7514
113.508 121.106 81.0233
113.64 122.383 81.4038
115.541 120.956 83.4439
116.622 119.32 83.2925
116.348 116.72 81.9413
115.807 117.347 81.1112
113.708 123.447 82.0298
114.563 122.635 83.2162
113.923 124.422 82.6345
113.15 124.352 80.8832
113.401 126.287 82.2159
117.242 117.699 83.3942
117.036 116.133 82.6654
117.552 115.898 83.6284
116.663 114.542 82.1365
117.974 114.441 83.9165
114.8 118.096 80.4276
113.431 120.081 80.4691
113.191 119.062 79.975
112.519 122.055 80.1959
115.158 116.238 80.741
112.974 118.117 79.4502
111.846 119.979 79.6145
100.395 122.01 87.1573
99.5673 122.53 86.0465
99.9534 123.883 86.8223
98.935 123.016 84.838
99.3683 121.329 85.2086
101.076 120.221 87.5178
101.337 121.454 88.2117
100.663 125.283 87.3838
99.8807 125.695 86.397
99.9214 119.454 85.5606
100.995 118.923 86.7463
101.042 117.76 85.8686
102.096 118.375 87.6824
99.4251 120.093 84.2706
101.321 116.822 84.9341
102.261 116.247 86.0936
102.04 122.558 88.809
101.509 124.624 88.4705
102.439 123.875 89.5537
101.349 126.639 88.0176
102.606 120.617 89.0114
103.44 122.864 90.3677
103.013 125.124 90.1469
99.1076 126.204 85.2549
98.7011 124.737 84.3596
98.5403 126.484 83.819
98.6954 123.434 83.4154
99.9131 127.562 85.8888
98.6064 128.11 83.3235
98.4123 126.754 82.441
99.4355 121.033 81.8245
100.006 119.602 81.1511
99.5064 121.584 80.5028
100.577 118.157 80.546
100.472 117.35 81.6035
99.5197 120.447 82.9831
99.0447 122.289 82.3999
99.0528 123.623 79.6044
99.6302 122.274 79.2786
100.393 117.051 82.7707
99.8802 118.689 83.4917
100.646 116.867 83.8966
101.108 115.622 82.2164
102.049 115.497 84.2848
98.7256 123.954 81.9744
98.7376 124.65 80.4391
98.5131 125.637 81.4486
98.6184 125.442 79.0455
98.408 127.381 80.9886
100.156 120.899 78.7742
100.608 118.655 79.4385
100.874 119.41 78.396
101.238 116.611 80.1563
99.7842 123.035 78.074
101.286 120.261 77.4585
102.088 118.269 78.4397
110.316 134.531 81.2774
108.62 134.853 80.3026
109.643 133.674 80.0103
106.89 134.991 79.2608
107.216 135.51 80.805
110.563 135.068 82.823
111.295 133.638 82.475
109.911 131.966 80.0123
108.923 132.62 78.8426
107.506 135.688 82.3879
109.547 135.797 83.6373
108.01 135.677 84.0354
110.901 134.637 84.3926
105.68 135.555 81.2016
106.365 135.133 84.1291
108.354 135.051 85.3221
111.645 131.744 82.3232
110.976 130.93 81.0676
112.227 129.911 82.0957
110.562 129.956 80.3574
112.191 132.237 83.4849
113.09 128.955 83.0816
112.708 128.152 81.9921
107.771 132.631 77.6648
106.621 134.104 77.6227
106.553 132.923 76.4634
105.298 134.777 78.1842
108.903 130.891 78.373
106.893 131.196 76.333
105.047 132.927 75.5206
102.668 134.088 79.207
101.732 133.534 80.2659
101.379 133.264 78.5857
101.159 132.791 81.5943
102.214 133.549 82.0366
103.951 134.951 80.3071
103.735 134.771 78.5908
101.079 132.968 76.896
100.211 132.302 78.2989
103.533 134.001 82.706
104.58 134.757 81.8012
105.019 134.484 83.4614
102.864 133.479 84.0132
105.858 133.945 85.0659
103.679 134.395 77.1702
101.971 133.327 75.876
103.523 133.383 75.243
100.98 132.291 75.1887
103.807 131.976 74.4726
99.5344 131.575 79.7942
99.97 131.951 81.5732
98.9724 130.581 81.2508
100.789 132.053 83.0723
99.6548 131 78.109
98.6486 129.358 80.774
98.903 129.638 82.5012
114.506 108.162 85.9267
115.55 109.421 86.3848
116.319 108.021 84.9378
116.36 110.584 86.7006
115.271 110.633 87.6914
112.832 108.109 86.4833
113.478 107.149 84.9753
117.042 106.946 83.0741
117.724 108.348 83.7323
113.731 110.801 88.3102
112.447 109.439 87.7201
112.142 111.014 88.7422
111.019 108.71 87.2631
114.857 112.279 88.7746
112.17 112.685 89.5814
110.76 111.559 89.1418
113.302 106.54 83.5852
115.23 106.608 82.4757
113.23 106.369 82.1605
116.585 107.186 81.2967
111.341 106.896 84.8848
110.645 106.488 82.5793
112.58 106.843 81.0572
117.684 110.276 84.5447
117.474 111.296 86.2859
118.201 112.14 85.3436
117.186 112.216 87.4974
118.411 109.552 82.9966
118.207 112.866 84.4745
118.507 113.755 86.1059
106.576 109.044 87.1312
107.911 107.925 86.7053
106.373 108.126 86.158
109.529 107.362 85.7945
109.572 108.293 87.0206
106.762 110.272 88.2226
105.433 110.449 87.7721
105.322 108.994 85.3913
106.4 107.859 84.7626
109.571 109.508 88.108
108.087 110.609 88.6109
109.437 111.111 88.9042
106.995 111.992 88.9068
109.472 112.7 89.649
104.397 111.424 86.9449
104.303 110.692 85.7228
103.705 112.558 86.0625
104.552 110.415 84.5352
104.762 112.377 87.8944
103.146 114.385 86.2682
103.126 113.829 85.1038
107.635 107.117 83.921
109.417 106.795 84.5192
108.996 106.64 83.1528
106.492 108.248 83.2965
109.046 107.281 81.7491
113.323 131.22 87.7103
113.231 131.682 86.2207
114.085 129.936 86.9075
112.668 131.966 84.8035
112.112 133.106 85.4313
112.198 132.167 88.2142
113.017 130.389 88.9501
114.532 128.272 87.5926
114.228 128.691 86.3206
111.103 133.95 85.8196
111.026 133.22 87.4309
109.544 134.276 86.3624
113.858 128.748 89.5049
114.586 127.306 88.6568
114.444 126.609 89.8753
114.08 128.783 85.2305
113.15 130.634 84.3576
113.624 128.855 84.109
110.249 127.484 79.0787
109.713 126.244 78.7629
111.065 125.804 79.3367
109.187 124.944 78.4849
108.42 126.538 78.0826
109.416 129.102 78.8135
110.49 128.663 79.7098
112.178 125.218 80.0067
111.73 124.042 79.6374
107.842 127.978 77.5864
108.479 129.446 77.9259
107.409 129.648 76.828
111.48 128.141 80.4599
112.487 126.227 80.5463
112.63 127.196 81.277
111.453 122.835 79.4002
110.094 123.331 78.7766
110.943 121.551 79.2392
116.275 115.956 91.5227
117.242 116.224 90.4702
116.722 114.616 90.4127
117.738 116.501 89.3037
117.307 118.065 90.2226
115.473 117.673 91.9736
114.846 116.021 92.0575
115.812 113.391 89.8319
117.141 113.369 89.1446
116.446 119.528 90.4308
115.79 119.209 91.743
115.73 121.116 91.065
113.895 114.833 91.5849
114.445 113.381 90.2219
112.958 113.683 90.6614
117.915 113.682 88.1962
118.206 115.49 88.3843
118.297 114.569 87.2497
115.762 112.17 80.9688
115.193 111.373 80.3305
116.806 110.182 80.4553
113.914 111.212 79.9875
113.687 113.264 80.134
115.17 114.354 80.9822
116.218 113.182 81.6211
118.208 109.619 81.4865
116.916 108.434 80.4309
113.37 114.675 79.6822
114.262 115.61 80.1869
113.217 116.617 79.3689
117.21 112.878 82.265
117.863 110.948 82.4721
117.914 112.88 83.3635
115.027 108.237 80.1766
113.445 109.978 79.9054
112.763 108.081 80.1422
102.52 131.025 87.8705
101.462 130.196 87.1346
101.781 131.542 86.3344
100.679 129.088 86.4558
101.336 128.628 87.7363
103.563 130.094 89.0138
104.036 131.384 88.0209
102.244 132.696 85.3533
101.21 131.825 84.7726
102 127.618 88.8147
103.298 128.565 89.494
103.109 126.778 89.8602
104.662 132.149 86.9776
103.55 133.131 85.6445
105.233 132.993 85.8472
100.324 130.862 84.1376
100.066 129.146 85.1547
99.3856 129.437 83.8159
99.5192 126.987 76.6105
100.314 127.231 75.6023
99.8221 128.812 76.145
101.425 127.473 74.7911
101.202 125.472 75.5134
99.509 124.916 77.2119
98.8163 126.411 77.8202
99.5385 130.085 77.1029
100.324 130.636 75.6603
101.186 123.657 76.0069
100.16 123.295 76.9606
101.235 121.812 76.6793
98.4897 127.321 78.8011
98.7485 129.359 78.4567
98.5416 128.303 79.8561
101.154 130.546 74.6779
102.415 128.563 74.4149
103.369 130.335 74.2707
104.305 117.106 89.2945
105.562 116.793 90.0539
105.151 115.337 89.2816
106.814 116.566 90.7061
106.02 118.135 90.8865
103.658 118.772 89.2647
103.24 117.742 88.5445
104.983 113.872 88.5718
106.034 113.628 89.2018
105.209 119.57 90.7464
103.831 119.962 89.8862
104.251 121.254 90.5807
103.015 116.574 87.8258
104.083 114.481 87.896
103.02 115.43 87.0519
107.231 113.67 89.6018
107.595 115.145 90.6291
108.641 113.888 90.1198
104.969 112.751 81.3735
103.576 113.781 81.6091
104.584 111.885 82.2709
102.274 114.497 81.963
102.193 115 80.6939
105.473 113.483 80.6363
106.224 111.747 81.1699
105.422 109.919 82.7448
104.544 111.145 83.378
102.652 115.828 79.864
104.316 115.017 79.8671
103.172 116.852 79.1124
106.904 110.228 81.164
106.392 109.148 82.0885
107.776 108.591 81.3366
103.709 112.557 83.7854
102.576 114.355 83.0467
102.893 114.151 84.174
POLYGONS 1280  5120
3 164 162 163
3 163 44 164
3 162 43 163
3 164 42 162
3 166 165 163
3 163 43 166
3 165 44 163
3 166 14 165
3 168 167 162
3 162 42 168
3 167 43 162
3 168 13 167
3 170 169 164
3 164 44 170
3 169 42 164
3 170 12 169
3 173 171 172
3 172 46 173
3 171 43 172
3 173 45 171
3 167 174 172
3 172 43 167
3 174 46 172
3 167 13 174
3 175 166 171
3 171 45 175
3 166 43 171
3 175 14 166
3 177 176 173
3 173 46 177
3 176 45 173
3 177 4 176
3 180 178 179
3 179 48 180
3 178 42 179
3 180 47 178
3 169 181 179
3 179 42 169
3 181 48 179
3 169 12 181
3 182 168 178
3 178 47 182
3 168 42 178
3 182 13 168
3 184 183 180
3 180 48 184
3 183 47 180
3 184 8 183
3 187 185 186
3 186 50 187
3 185 44 186
3 187 49 185
3 165 188 186
3 186 44 165
3 188 50 186
3 165 14 188
3 189 170 185
3 185 49 189
3 170 44 185
3 189 12 170
3 191 190 187
3 187 50 191
3 190 49 187
3 191 7 190
3 194 192 193
3 193 53 194
3 192 52 193
3 194 51 192
3 196 195 193
3 193 52 196
3 195 53 193
3 196 16 195
3 198 197 192
3 192 51 198
3 197 52 192
3 198 14 197
3 200 199 194
3 194 53 200
3 199 51 194
3 200 15 199
3 203 201 202
3 202 45 203
3 201 52 202
3 203 54 201
3 197 175 202
3 202 52 197
3 175 45 202
3 197 14 175
3 204 196 201
3 201 54 204
3 196 52 201
3 204 16 196
3 176 205 203
3 203 45 176
3 205 54 203
3 176 4 205
3 208 206 207
3 207 55 208
3 206 51 207
3 208 50 206
3 199 209 207
3 207 51 199
3 209 55 207
3 199 15 209
3 188 198 206
3 206 50 188
3 198 51 206
3 188 14 198
3 210 191 208
3 208 55 210
3 191 50 208
3 210 7 191
3 213 211 212
3 212 57 213
3 211 53 212
3 213 56 211
3 195 214 212
3 212 53 195
3 214 57 212
3 195 16 214
3 215 200 211
3 211 56 215
3 200 53 211
3 215 15 200
3 217 216 213
3 213 57 217
3 216 56 213
3 217 9 216
3 220 218 219
3 219 60 220
3 218 59 219
3 220 58 218
3 222 221 219
3 219 59 222
3 221 60 219
3 222 19 221
3 224 223 218
3 218 58 224
3 223 59 218
3 224 18 223
3 226 225 220
3 220 60 226
3 225 58 220
3 226 17 225
3 229 227 228
3 228 62 229
3 227 59 228
3 229 61 227
3 223 230 228
3 228 59 223
3 230 62 228
3 223 18 230
3 231 222 227
3 227 61 231
3 222 59 227
3 231 19 222
3 233 232 229
3 229 62 233
3 232 61 229
3 233 5 232
3 236 234 235
3 235 64 236
3 234 58 235
3 236 63 234
3 225 237 235
3 235 58 225
3 237 64 235
3 225 17 237
3 238 224 234
3 234 63 238
3 224 58 234
3 238 18 224
3 240 239 236
3 236 64 240
3 239 63 236
3 240 6 239
3 243 241 242
3 242 66 243
3 241 60 242
3 243 65 241
3 221 244 242
3 242 60 221
3 244 66 242
3 221 19 244
3 245 226 241
3 241 65 245
3 226 60 241
3 245 17 226
3 247 246 243
3 243 66 247
3 246 65 243
3 247 11 246
3 250 248 249
3 249 69 250
3 248 68 249
3 250 67 248
3 252 251 249
3 249 68 252
3 251 69 249
3 252 18 251
3 254 253 248
3 248 67 254
3 253 68 248
3 254 21 253
3 256 255 250
3 250 69 256
3 255 67 250
3 256 20 255
3 259 257 258
3 258 70 259
3 257 68 258
3 259 62 257
3 253 260 258
3 258 68 253
3 260 70 258
3 253 21 260
3 230 252 257
3 257 62 230
3 252 68 257
3 230 18 252
3 261 233 259
3 259 70 261
3 233 62 259
3 261 5 233
3 264 262 263
3 263 72 264
3 262 67 263
3 264 71 262
3 255 265 263
3 263 67 255
3 265 72 263
3 255 20 265
3 266 254 262
3 262 71 266
3 254 67 262
3 266 21 254
3 268 267 264
3 264 72 268
3 267 71 264
3 268 10 267
3 271 269 270
3 270 63 271
3 269 69 270
3 271 73 269
3 251 238 270
3 270 69 251
3 238 63 270
3 251 18 238
3 272 256 269
3 269 73 272
3 256 69 269
3 272 20 256
3 239 273 271
3 271 63 239
3 273 73 271
3 239 6 273
3 276 274 275
3 275 76 276
3 274 75 275
3 276 74 274
3 278 277 275
3 275 75 278
3 277 76 275
3 278 24 277
3 280 279 274
3 274 74 280
3 279 75 274
3 280 23 279
3 282 281 276
3 276 76 282
3 281 74 276
3 282 22 281
3 285 283 284
3 284 78 285
3 283 75 284
3 285 77 283
3 279 286 284
3 284 75 279
3 286 78 284
3 279 23 286
3 287 278 283
3 283 77 287
3 278 75 283
3 287 24 278
3 289 288 285
3 285 78 289
3 288 77 285
3 289 0 288
3 292 290 291
3 291 80 292
3 290 74 291
3 292 79 290
3 281 293 291
3 291 74 281
3 293 80 291
3 281 22 293
3 294 280 290
3 290 79 294
3 280 74 290
3 294 23 280
3 296 295 292
3 292 80 296
3 295 79 292
3 296 4 295
3 299 297 298
3 298 82 299
3 297 76 298
3 299 81 297
3 277 300 298
3 298 76 277
3 300 82 298
3 277 24 300
3 301 282 297
3 297 81 301
3 282 76 297
3 301 22 282
3 303 302 299
3 299 82 303
3 302 81 299
3 303 3 302
3 306 304 305
3 305 85 306
3 304 84 305
3 306 83 304
3 308 307 305
3 305 84 308
3 307 85 305
3 308 26 307
3 310 309 304
3 304 83 310
3 309 84 304
3 310 24 309
3 312 311 306
3 306 85 312
3 311 83 306
3 312 25 311
3 315 313 314
3 314 77 315
3 313 84 314
3 315 86 313
3 309 287 314
3 314 84 309
3 287 77 314
3 309 24 287
3 316 308 313
3 313 86 316
3 308 84 313
3 316 26 308
3 288 317 315
3 315 77 288
3 317 86 315
3 288 0 317
3 320 318 319
3 319 87 320
3 318 83 319
3 320 82 318
3 311 321 319
3 319 83 311
3 321 87 319
3 311 25 321
3 300 310 318
3 318 82 300
3 310 83 318
3 300 24 310
3 322 303 320
3 320 87 322
3 303 82 320
3 322 3 303
3 325 323 324
3 324 89 325
3 323 85 324
3 325 88 323
3 307 326 324
3 324 85 307
3 326 89 324
3 307 26 326
3 327 312 323
3 323 88 327
3 312 85 323
3 327 25 312
3 329 328 325
3 325 89 329
3 328 88 325
3 329 5 328
3 332 330 331
3 331 92 332
3 330 91 331
3 332 90 330
3 334 333 331
3 331 91 334
3 333 92 331
3 334 29 333
3 336 335 330
3 330 90 336
3 335 91 330
3 336 28 335
3 338 337 332
3 332 92 338
3 337 90 332
3 338 27 337
3 341 339 340
3 340 94 341
3 339 91 340
3 341 93 339
3 335 342 340
3 340 91 335
3 342 94 340
3 335 28 342
3 343 334 339
3 339 93 343
3 334 91 339
3 343 29 334
3 345 344 341
3 341 94 345
3 344 93 341
3 345 2 344
3 348 346 347
3 347 96 348
3 346 90 347
3 348 95 346
3 337 349 347
3 347 90 337
3 349 96 347
3 337 27 349
3 350 336 346
3 346 95 350
3 336 90 346
3 350 28 336
3 352 351 348
3 348 96 352
3 351 95 348
3 352 7 351
3 355 353 354
3 354 98 355
3 353 92 354
3 355 97 353
3 333 356 354
3 354 92 333
3 356 98 354
3 333 29 356
3 357 338 353
3 353 97 357
3 338 92 353
3 357 27 338
3 359 358 355
3 355 98 359
3 358 97 355
3 359 1 358
3 362 360 361
3 361 101 362
3 360 100 361
3 362 99 360
3 364 363 361
3 361 100 364
3 363 101 361
3 364 31 363
3 366 365 360
3 360 99 366
3 365 100 360
3 366 29 365
3 368 367 362
3 362 101 368
3 367 99 362
3 368 30 367
3 371 369 370
3 370 93 371
3 369 100 370
3 371 102 369
3 365 343 370
3 370 100 365
3 343 93 370
3 365 29 343
3 372 364 369
3 369 102 372
3 364 100 369
3 372 31 364
3 344 373 371
3 371 93 344
3 373 102 371
3 344 2 373
3 376 374 375
3 375 103 376
3 374 99 375
3 376 98 374
3 367 377 375
3 375 99 367
3 377 103 375
3 367 30 377
3 356 366 374
3 374 98 356
3 366 99 374
3 356 29 366
3 378 359 376
3 376 103 378
3 359 98 376
3 378 1 359
3 381 379 380
3 380 105 381
3 379 101 380
3 381 104 379
3 363 382 380
3 380 101 363
3 382 105 380
3 363 31 382
3 383 368 379
3 379 104 383
3 368 101 379
3 383 30 368
3 385 384 381
3 381 105 385
3 384 104 381
3 385 6 384
3 388 386 387
3 387 108 388
3 386 107 387
3 388 106 386
3 390 389 387
3 387 107 390
3 389 108 387
3 390 34 389
3 392 391 386
3 386 106 392
3 391 107 386
3 392 33 391
3 394 393 388
3 388 108 394
3 393 106 388
3 394 32 393
3 397 395 396
3 396 110 397
3 395 107 396
3 397 109 395
3 391 398 396
3 396 107 391
3 398 110 396
3 391 33 398
3 399 390 395
3 395 109 399
3 390 107 395
3 399 34 390
3 401 400 397
3 397 110 401
3 400 109 397
3 401 8 400
3 404 402 403
3 403 112 404
3 402 106 403
3 404 111 402
3 393 405 403
3 403 106 393
3 405 112 403
3 393 32 405
3 406 392 402
3 402 111 406
3 392 106 402
3 406 33 392
3 408 407 404
3 404 112 408
3 407 111 404
3 408 0 407
3 411 409 410
3 410 114 411
3 409 108 410
3 411 113 409
3 389 412 410
3 410 108 389
3 412 114 410
3 389 34 412
3 413 394 409
3 409 113 413
3 394 108 409
3 413 32 394
3 415 414 411
3 411 114 415
3 414 113 411
3 415 11 414
3 418 416 417
3 417 117 418
3 416 116 417
3 418 115 416
3 420 419 417
3 417 116 420
3 419 117 417
3 420 36 419
3 422 421 416
3 416 115 422
3 421 116 416
3 422 34 421
3 424 423 418
3 418 117 424
3 423 115 418
3 424 35 423
3 427 425 426
3 426 109 427
3 425 116 426
3 427 118 425
3 421 399 426
3 426 116 421
3 399 109 426
3 421 34 399
3 428 420 425
3 425 118 428
3 420 116 425
3 428 36 420
3 400 429 427
3 427 109 400
3 429 118 427
3 400 8 429
3 432 430 431
3 431 119 432
3 430 115 431
3 432 114 430
3 423 433 431
3 431 115 423
3 433 119 431
3 423 35 433
3 412 422 430
3 430 114 412
3 422 115 430
3 412 34 422
3 434 415 432
3 432 119 434
3 415 114 432
3 434 11 415
3 437 435 436
3 436 121 437
3 435 117 436
3 437 120 435
3 419 438 436
3 436 117 419
3 438 121 436
3 419 36 438
3 439 424 435
3 435 120 439
3 424 117 435
3 439 35 424
3 441 440 437
3 437 121 441
3 440 120 437
3 441 1 440
3 444 442 443
3 443 124 444
3 442 123 443
3 444 122 442
3 446 445 443
3 443 123 446
3 445 124 443
3 446 39 445
3 448 447 442
3 442 122 448
3 447 123 442
3 448 38 447
3 450 449 444
3 444 124 450
3 449 122 444
3 450 37 449
3 453 451 452
3 452 126 453
3 451 123 452
3 453 125 451
3 447 454 452
3 452 123 447
3 454 126 452
3 447 38 454
3 455 446 451
3 451 125 455
3 446 123 451
3 455 39 446
3 457 456 453
3 453 126 457
3 456 125 453
3 457 9 456
3 460 458 459
3 459 128 460
3 458 122 459
3 460 127 458
3 449 461 459
3 459 122 449
3 461 128 459
3 449 37 461
3 462 448 458
3 458 127 462
3 448 122 458
3 462 38 448
3 464 463 460
3 460 128 464
3 463 127 460
3 464 10 463
3 467 465 466
3 466 130 467
3 465 124 466
3 467 129 465
3 445 468 466
3 466 124 445
3 468 130 466
3 445 39 468
3 469 450 465
3 465 129 469
3 450 124 465
3 469 37 450
3 471 470 467
3 467 130 471
3 470 129 467
3 471 3 470
3 474 472 473
3 473 133 474
3 472 132 473
3 474 131 472
3 476 475 473
3 473 132 476
3 475 133 473
3 476 38 475
3 478 477 472
3 472 131 478
3 477 132 472
3 478 41 477
3 480 479 474
3 474 133 480
3 479 131 474
3 480 40 479
3 483 481 482
3 482 134 483
3 481 132 482
3 483 126 481
3 477 484 482
3 482 132 477
3 484 134 482
3 477 41 484
3 454 476 481
3 481 126 454
3 476 132 481
3 454 38 476
3 485 457 483
3 483 134 485
3 457 126 483
3 485 9 457
3 488 486 487
3 487 136 488
3 486 131 487
3 488 135 486
3 479 489 487
3 487 131 479
3 489 136 487
3 479 40 489
3 490 478 486
3 486 135 490
3 478 131 486
3 490 41 478
3 492 491 488
3 488 136 492
3 491 135 488
3 492 2 491
3 495 493 494
3 494 127 495
3 493 133 494
3 495 137 493
3 475 462 494
3 494 133 475
3 462 127 494
3 475 38 462
3 496 480 493
3 493 137 496
3 480 133 493
3 496 40 480
3 463 497 495
3 495 127 463
3 497 137 495
3 463 10 497
3 500 498 499
3 499 140 500
3 498 139 499
3 500 138 498
3 502 501 499
3 499 139 502
3 501 140 499
3 502 33 501
3 504 503 498
3 498 138 504
3 503 139 498
3 504 13 503
3 506 505 500
3 500 140 506
3 505 138 500
3 506 23 505
3 509 507 508
3 508 47 509
3 507 139 508
3 509 110 507
3 503 182 508
3 508 139 503
3 182 47 508
3 503 13 182
3 398 502 507
3 507 110 398
3 502 139 507
3 398 33 502
3 183 401 509
3 509 47 183
3 401 110 509
3 183 8 401
3 512 510 511
3 511 79 512
3 510 138 511
3 512 46 510
3 505 294 511
3 511 138 505
3 294 79 511
3 505 23 294
3 174 504 510
3 510 46 174
3 504 138 510
3 174 13 504
3 295 177 512
3 512 79 295
3 177 46 512
3 295 4 177
3 515 513 514
3 514 111 515
3 513 140 514
3 515 78 513
3 501 406 514
3 514 140 501
3 406 111 514
3 501 33 406
3 286 506 513
3 513 78 286
3 506 140 513
3 286 23 506
3 407 289 515
3 515 111 407
3 289 78 515
3 407 0 289
3 518 516 517
3 517 143 518
3 516 142 517
3 518 141 516
3 520 519 517
3 517 142 520
3 519 143 517
3 520 19 519
3 522 521 516
3 516 141 522
3 521 142 516
3 522 32 521
3 524 523 518
3 518 143 524
3 523 141 518
3 524 26 523
3 527 525 526
3 526 113 527
3 525 142 526
3 527 66 525
3 521 413 526
3 526 142 521
3 413 113 526
3 521 32 413
3 244 520 525
3 525 66 244
3 520 142 525
3 244 19 520
3 414 247 527
3 527 113 414
3 247 66 527
3 414 11 247
3 530 528 529
3 529 86 530
3 528 141 529
3 530 112 528
3 523 316 529
3 529 141 523
3 316 86 529
3 523 26 316
3 405 522 528
3 528 112 405
3 522 141 528
3 405 32 522
3 317 408 530
3 530 86 317
3 408 112 530
3 317 0 408
3 533 531 532
3 532 61 533
3 531 143 532
3 533 89 531
3 519 231 532
3 532 143 519
3 231 61 532
3 519 19 231
3 326 524 531
3 531 89 326
3 524 143 531
3 326 26 524
3 232 329 533
3 533 61 232
3 329 89 533
3 232 5 329
3 536 534 535
3 535 146 536
3 534 145 535
3 536 144 534
3 538 537 535
3 535 145 538
3 537 146 535
3 538 22 537
3 540 539 534
3 534 144 540
3 539 145 534
3 540 16 539
3 542 541 536
3 536 146 542
3 541 144 536
3 542 39 541
3 545 543 544
3 544 54 545
3 543 145 544
3 545 80 543
3 539 204 544
3 544 145 539
3 204 54 544
3 539 16 204
3 293 538 543
3 543 80 293
3 538 145 543
3 293 22 538
3 205 296 545
3 545 54 205
3 296 80 545
3 205 4 296
3 548 546 547
3 547 125 548
3 546 144 547
3 548 57 546
3 541 455 547
3 547 144 541
3 455 125 547
3 541 39 455
3 214 540 546
3 546 57 214
3 540 144 546
3 214 16 540
3 456 217 548
3 548 125 456
3 217 57 548
3 456 9 217
3 551 549 550
3 550 81 551
3 549 146 550
3 551 130 549
3 537 301 550
3 550 146 537
3 301 81 550
3 537 22 301
3 468 542 549
3 549 130 468
3 542 146 549
3 468 39 542
3 302 471 551
3 551 81 302
3 471 130 551
3 302 3 471
3 554 552 553
3 553 149 554
3 552 148 553
3 554 147 552
3 556 555 553
3 553 148 556
3 555 149 553
3 556 21 555
3 558 557 552
3 552 147 558
3 557 148 552
3 558 25 557
3 560 559 554
3 554 149 560
3 559 147 554
3 560 37 559
3 563 561 562
3 562 88 563
3 561 148 562
3 563 70 561
3 557 327 562
3 562 148 557
3 327 88 562
3 557 25 327
3 260 556 561
3 561 70 260
3 556 148 561
3 260 21 556
3 328 261 563
3 563 88 328
3 261 70 563
3 328 5 261
3 566 564 565
3 565 129 566
3 564 147 565
3 566 87 564
3 559 469 565
3 565 147 559
3 469 129 565
3 559 37 469
3 321 558 564
3 564 87 321
3 558 147 564
3 321 25 558
3 470 322 566
3 566 129 470
3 322 87 566
3 470 3 322
3 569 567 568
3 568 71 569
3 567 149 568
3 569 128 567
3 555 266 568
3 568 149 555
3 266 71 568
3 555 21 266
3 461 560 567
3 567 128 461
3 560 149 567
3 461 37 560
3 267 464 569
3 569 71 267
3 464 128 569
3 267 10 464
3 572 570 571
3 571 152 572
3 570 151 571
3 572 150 570
3 574 573 571
3 571 151 574
3 573 152 571
3 574 27 573
3 576 575 570
3 570 150 576
3 575 151 570
3 576 12 575
3 578 577 572
3 572 152 578
3 577 150 572
3 578 36 577
3 581 579 580
3 580 49 581
3 579 151 580
3 581 96 579
3 575 189 580
3 580 151 575
3 189 49 580
3 575 12 189
3 349 574 579
3 579 96 349
3 574 151 579
3 349 27 574
3 190 352 581
3 581 49 190
3 352 96 581
3 190 7 352
3 584 582 583
3 583 118 584
3 582 150 583
3 584 48 582
3 577 428 583
3 583 150 577
3 428 118 583
3 577 36 428
3 181 576 582
3 582 48 181
3 576 150 582
3 181 12 576
3 429 184 584
3 584 118 429
3 184 48 584
3 429 8 184
3 587 585 586
3 586 97 587
3 585 152 586
3 587 121 585
3 573 357 586
3 586 152 573
3 357 97 586
3 573 27 357
3 438 578 585
3 585 121 438
3 578 152 585
3 438 36 578
3 358 441 587
3 587 97 358
3 441 121 587
3 358 1 441
3 590 588 589
3 589 155 590
3 588 154 589
3 590 153 588
3 592 591 589
3 589 154 592
3 591 155 589
3 592 17 591
3 594 593 588
3 588 153 594
3 593 154 588
3 594 30 593
3 596 595 590
3 590 155 596
3 595 153 590
3 596 35 595
3 599 597 598
3 598 104 599
3 597 154 598
3 599 64 597
3 593 383 598
3 598 154 593
3 383 104 598
3 593 30 383
3 237 592 597
3 597 64 237
3 592 154 597
3 237 17 592
3 384 240 599
3 599 104 384
3 240 64 599
3 384 6 240
3 602 600 601
3 601 120 602
3 600 153 601
3 602 103 600
3 595 439 601
3 601 153 595
3 439 120 601
3 595 35 439
3 377 594 600
3 600 103 377
3 594 153 600
3 377 30 594
3 440 378 602
3 602 120 440
3 378 103 602
3 440 1 378
3 605 603 604
3 604 65 605
3 603 155 604
3 605 119 603
3 591 245 604
3 604 155 591
3 245 65 604
3 591 17 245
3 433 596 603
3 603 119 433
3 596 155 603
3 433 35 596
3 246 434 605
3 605 65 246
3 434 119 605
3 246 11 434
3 608 606 607
3 607 158 608
3 606 157 607
3 608 156 606
3 610 609 607
3 607 157 610
3 609 158 607
3 610 15 609
3 612 611 606
3 606 156 612
3 611 157 606
3 612 28 611
3 614 613 608
3 608 158 614
3 613 156 608
3 614 41 613
3 617 615 616
3 616 95 617
3 615 157 616
3 617 55 615
3 611 350 616
3 616 157 611
3 350 95 616
3 611 28 350
3 209 610 615
3 615 55 209
3 610 157 615
3 209 15 610
3 351 210 617
3 617 95 351
3 210 55 617
3 351 7 210
3 620 618 619
3 619 135 620
3 618 156 619
3 620 94 618
3 613 490 619
3 619 156 613
3 490 135 619
3 613 41 490
3 342 612 618
3 618 94 342
3 612 156 618
3 342 28 612
3 491 345 620
3 620 135 491
3 345 94 620
3 491 2 345
3 623 621 622
3 622 56 623
3 621 158 622
3 623 134 621
3 609 215 622
3 622 158 609
3 215 56 622
3 609 15 215
3 484 614 621
3 621 134 484
3 614 158 621
3 484 41 614
3 216 485 623
3 623 56 216
3 485 134 623
3 216 9 485
3 626 624 625
3 625 161 626
3 624 160 625
3 626 159 624
3 628 627 625
3 625 160 628
3 627 161 625
3 628 31 627
3 630 629 624
3 624 159 630
3 629 160 624
3 630 20 629
3 632 631 626
3 626 161 632
3 631 159 626
3 632 40 631
3 635 633 634
3 634 73 635
3 633 160 634
3 635 105 633
3 629 272 634
3 634 160 629
3 272 73 634
3 629 20 272
3 382 628 633
3 633 105 382
3 628 160 633
3 382 31 628
3 273 385 635
3 635 73 273
3 385 105 635
3 273 6 385
3 638 636 637
3 637 137 638
3 636 159 637
3 638 72 636
3 631 496 637
3 637 159 631
3 496 137 637
3 631 40 496
3 265 630 636
3 636 72 265
3 630 159 636
3 265 20 630
3 497 268 638
3 638 137 497
3 268 72 638
3 497 10 268
3 641 639 640
3 640 102 641
3 639 161 640
3 641 136 639
3 627 372 640
3 640 161 627
3 372 102 640
3 627 31 372
3 489 632 639
3 639 136 489
3 632 161 639
3 489 40 632
3 373 492 641
3 641 102 373
3 492 136 641
3 373 2 492
