# vtk DataFile Version 3.0
this file was written using fslvtkio
ASCII
DATASET POLYDATA
POINTS 642 float
78.6322 141.46 75.3637
74.3009 145.775 70.6171
70.7575 134.181 75.7977
75.7619 131.102 80.3
77.1728 137.342 84.002
77.3397 138.039 72.1737
75.2662 139.128 69.2733
72.8852 139.457 79.5941
77.3811 148.194 75.7408
72.4881 127.925 84.0753
73.358 126.126 76.0311
82.0889 147.27 66.611
74.5388 144.822 78.1611
77.3861 143.326 80.7002
74.0819 138.627 83.4058
71.978 133.709 82.5061
74.5899 132.105 86.3562
79.109 144.327 66.2683
76.8255 138.093 70.0084
82.4955 142.666 67.7094
73.9227 132.519 73.2534
74.5124 131.694 75.2097
76.7312 132.92 83.0552
78.6592 139.455 79.9275
77.2135 136.645 78.0409
75.5303 133.819 76.4048
78.1526 140.64 72.5924
73.4377 143.064 75.112
71.2822 136.401 78.1877
72.8518 139.998 73.1624
75.2618 143.341 68.7737
72.0111 135.947 72.2966
81.0785 145.093 70.4272
78.9677 145.005 75.3202
79.3897 149.447 70.1536
77.577 148.896 66.7467
75.4881 148.387 72.4837
74.2957 126.504 79.7728
72.0548 123.815 81.1473
74.8254 126.27 84.2456
71.5438 128.882 76.325
71.4274 129.835 79.9526
75.7676 145.103 79.7684
75.5529 141.455 82.6769
74.334 142.013 80.9193
75.587 137.904 84.6817
77.2417 140.379 82.4618
77.3351 146.043 78.0948
75.6083 147.562 77.0506
73.6772 142.216 78.9303
73.4083 139.14 81.4337
72.8538 136.24 83.2259
74.1524 135.451 85.3176
73.0443 132.92 84.6689
76.1371 134.821 85.5021
72.1826 136.734 81.1709
72.5419 130.862 83.2602
73.2638 129.664 85.4577
78.6221 141.55 67.5876
79.4766 141.345 68.5328
81.3691 143.129 66.2669
79.1012 141.439 69.7034
77.1546 137.972 71.1945
76.1999 138.597 69.3177
77.1032 141.939 67.9579
81.1335 145.973 65.6474
83.881 144.889 66.8865
74.779 131.373 73.7607
75.5928 134.748 72.4967
75.545 135.701 71.028
76.1033 134.968 73.4406
74.5965 128.764 75.3665
73.7684 128.504 74.0402
74.3318 136.205 70.3612
77.9345 136.109 81.5015
78.1883 137.728 79.1487
77.4879 134.491 80.6076
77.7379 139.394 76.8769
79.1077 140.512 77.7276
77.9914 138.463 81.9827
77.1974 135.103 83.6485
76.499 131.812 81.6226
76.462 133.968 79.1896
76.4531 135.568 76.949
77.1209 138.879 75.4997
76.4102 137.86 74.6539
78.1113 141.194 73.7184
75.5071 132.399 78.3693
76.1853 136.048 74.3025
77.772 139.325 72.2357
72.5779 139.856 76.5485
71.9433 138.292 75.7186
73.2961 141.574 74.0977
71.6681 137.107 74.4249
70.5584 135.42 76.8676
72.05 138.11 78.8203
73.1358 141.452 77.4743
73.7554 144.716 72.8012
73.628 143.052 71.7907
74.1458 141.758 70.9159
72.4054 138.039 72.5245
73.4674 139.344 70.5791
70.994 134.976 73.8411
74.9437 144.973 69.4546
75.4158 141.176 69.0083
73.5158 137.636 70.3174
79.7767 145.254 72.5672
78.9343 147.264 72.3966
80.578 147.324 69.904
77.7842 148.912 72.8557
78.4151 146.718 75.4942
79.5041 143.169 75.4495
79.2991 143.413 72.7256
82.5224 145.785 68.3792
80.5516 148.749 67.8151
78.5973 150.798 67.7765
77.2514 150.312 70.7668
76.373 149.45 69.3542
76.1695 149.311 74.1288
80.026 148.723 65.8601
75.7592 147.639 68.7599
74.745 147.414 71.3102
73.8803 123.174 80.4354
73.2137 123.084 84.0655
74.9102 125.695 82.1805
73.3297 126.048 85.4844
72.2457 125.705 83.0822
72.3996 123.765 78.1928
74.152 126.154 77.6962
75.0868 129.128 79.9943
75.1662 128.878 82.162
71.1395 129.114 78.2131
71.6832 126.73 80.6044
71.7471 126.053 78.4328
71.5926 128.627 82.1246
70.7888 132.067 77.8894
71.1434 131.807 75.8742
72.0182 126.988 75.3357
78.4611 141.535 80.3486
78.3574 144.342 78.0213
79.2523 142.525 77.7713
79.698 143.259 70.7655
82.774 143.692 69.1673
80.0265 142.465 69.8274
74.9959 129.103 85.6606
76.2432 132.129 85.3265
75.7636 129.846 83.7465
75.02 130.099 78.0833
75.4097 132.844 75.7015
74.253 128.855 77.2951
74.7387 147.047 75.4487
73.9204 144.375 76.4365
74.1314 146.179 73.7737
76.4169 146.388 67.2739
76.7511 144.106 66.9191
78.5171 146.865 65.7731
71.0799 133.306 79.1722
71.481 135.061 80.3958
71.618 131.742 81.2607
72.3267 130.417 74.1987
72.9194 134.714 71.9717
71.4587 132.604 73.9894
75.6763 143.237 81.1989
74.7315 141.947 81.7846
75.0674 143.574 80.3037
74.1521 140.373 82.2105
74.7272 140.225 83.076
76.4981 142.612 81.6714
76.5173 144.103 80.5538
75.0062 145.075 79.0436
74.4202 143.637 79.6479
75.5863 139.794 83.6677
76.4707 141.079 82.7605
76.4743 139.457 83.5343
77.2791 141.836 81.664
74.6904 138.575 84.2257
76.5182 137.814 84.4762
77.1408 138.79 83.2873
76.7346 145.654 79.1158
75.6336 146.404 78.5653
76.5271 147.044 77.887
74.9785 146.277 77.7286
77.3791 144.663 79.527
77.394 147.32 77.0997
76.548 147.971 76.592
73.8494 142.248 80.0286
73.7905 140.506 81.3064
73.3066 140.829 80.2596
73.6463 138.839 82.4728
74.1134 143.436 78.7159
73.2928 140.785 79.3008
73.1927 139.373 80.467
73.4915 135.666 84.3421
73.4825 134.119 85.1182
73.0634 134.561 84.0559
73.6799 132.437 85.6687
74.2439 133.758 85.9275
74.0271 137.059 84.3655
73.2626 137.253 83.4966
72.4907 134.938 83.04
72.5541 133.49 83.573
74.994 135.083 85.7468
74.6023 136.885 85.2535
75.9161 136.476 85.3728
75.3414 133.613 86.3619
76.7569 136.142 84.8771
73.0822 137.842 82.3222
72.5034 136.417 82.1983
72.7601 138.021 81.2671
72.036 135.197 81.9776
72.5635 138.193 80.3389
72.6604 131.965 84.0289
73.3077 131.296 85.1335
72.7032 130.27 84.4772
73.9795 130.766 86.057
72.2838 132.406 82.9959
72.2572 129.301 83.7402
72.761 128.715 84.7698
79.2497 141.649 68.1798
80.8101 141.996 67.3433
79.9392 142.372 66.8744
82.2058 142.732 67.0345
81.0058 142.057 68.0733
78.0481 140.204 69.2471
77.8783 140.425 68.8477
79.0162 142.855 66.9542
80.2114 143.816 66.2416
79.3522 141.371 69.1528
78.0277 139.947 69.8159
78.1904 139.966 70.2536
77.1659 137.999 70.4556
80.72 142.303 68.7633
77.9809 139.559 70.9892
77.3468 138.016 71.6196
77.4546 140.48 68.4038
77.8808 141.898 67.4717
76.7741 140.464 68.5159
78.0183 143.249 66.7344
76.7892 138.574 69.4902
75.7645 138.809 69.1328
76.2883 140.49 68.8395
81.5138 144.529 65.765
82.7359 143.973 66.2131
82.6909 145.407 65.6654
83.7824 143.663 67.115
80.1867 145.188 65.7209
81.9996 146.633 65.8802
83.0798 145.994 66.5636
75.0941 133.147 72.9245
75.6048 135.076 71.6
74.8046 133.664 72.552
76.3571 136.842 70.3006
76.3307 136.431 71.1288
75.2496 133.165 73.8131
74.9175 131.619 74.3993
74.421 131.958 73.1903
74.6779 134.239 72.1925
76.3658 136.555 71.7319
75.9083 134.73 73.0496
76.6959 136.687 72.3113
75.2906 133.299 74.4348
76.6468 136.65 72.8102
75.0456 130.122 74.3716
74.6372 130.055 73.6281
74.3839 128.358 74.571
74.0471 130.471 73.5293
74.8404 130.282 75.1263
73.9778 127.274 75.6805
73.279 126.96 74.7403
75.0402 135.963 70.8671
75.8501 136.985 69.8555
75.3017 137.185 69.5346
74.2553 134.777 71.5996
74.6702 137.625 69.5851
78.4649 136.845 80.3538
77.7479 136.103 79.9367
77.829 135.23 81.109
77.3893 135.59 79.4164
77.7197 136.761 78.9172
78.5015 138.336 79.6833
78.4096 137.672 80.7214
77.4693 134.497 82.3164
77.3479 133.726 81.8447
77.9674 138.462 78.1243
78.5424 139.174 78.5741
78.4968 139.763 77.4792
78.7944 140.043 78.8611
77.4318 137.902 77.75
78.4442 140.269 76.1502
78.9429 140.821 76.6795
78.0891 137.32 81.6903
77.7795 135.555 82.6266
77.6017 136.722 82.8162
76.9712 133.969 83.426
78.3114 138.848 80.923
77.4398 137.934 82.919
77.3168 136.25 83.9267
77.0559 133.186 81.1923
77.049 134.286 79.8516
76.6498 132.879 80.402
76.7416 135.336 78.7648
76.6683 132.257 82.3767
76.1671 131.516 80.8927
76.2953 132.531 79.7603
76.3681 137.424 76.41
76.8314 138.368 75.0611
76.1984 136.673 75.9235
77.2698 139.296 73.7189
77.4422 139.721 74.1002
76.8739 137.765 76.9293
76.738 136.307 77.4134
75.9369 134.864 76.5641
76.2018 135.973 75.5126
77.4927 139.945 74.6741
77.2741 138.893 76.395
77.9833 140.166 75.4122
78.1834 140.944 73.1503
78.3111 141.331 74.5318
76.3692 134.937 78.1056
76.0108 134.094 77.6119
76.1818 133.278 78.61
75.4673 133.123 77.3771
75.7412 131.781 79.3542
76.4641 136.816 74.4813
77.23 138.587 73.5114
76.9096 137.825 73.2921
78.0148 140.049 72.3374
75.8685 135.081 75.3528
77.0088 137.048 73.2089
77.7148 138.704 72.075
72.4954 139.072 76.0937
72.6504 139.911 74.8469
72.7997 140.885 75.2775
72.9693 140.565 73.7552
72.4762 139.168 74.5005
71.8043 137.501 76.9119
72.1394 138.09 77.2833
72.9443 141.49 75.8324
73.3003 142.238 74.6469
71.8628 137.775 75.0266
71.5191 136.833 76.3605
71.2249 136.34 75.6718
70.9151 136.071 77.4894
72.3706 138.49 73.9128
70.9228 135.757 75.0635
70.7455 134.921 76.1756
72.4884 138.968 77.6589
72.7095 140.895 76.9291
72.6941 139.802 78.0464
73.3038 142.268 76.2835
71.6219 137.283 78.4778
72.6829 138.932 79.1421
72.9299 140.448 78.5758
73.4077 143.162 73.5272
73.5065 142.222 73.0159
73.7401 143.69 72.4317
73.5494 141.372 72.7006
73.6057 143.904 73.9386
73.88 145.186 71.6937
74.0668 144.411 71.2557
72.8694 140.007 71.5718
72.9531 138.919 71.4814
74.1475 140.602 70.9635
72.8677 137.683 71.5017
71.991 137.196 72.1312
72.7132 139.09 72.6959
73.5426 140.817 72.0958
74.6672 142.478 69.8176
74.5748 141.259 69.9451
71.623 136.677 73.0455
72.0891 137.637 73.4845
71.0718 136.173 73.9804
71.2392 135.533 72.9135
70.9068 134.72 74.8637
73.8903 142.291 71.4364
74.4692 143.322 70.1726
74.0848 144.03 70.5475
75.0801 144.13 69.1233
74.565 145.435 70.0032
74.462 140.2 69.9845
73.497 138.448 70.6096
74.3429 139.285 69.6359
72.6922 136.833 71.2146
75.3765 142.231 68.8722
75.4095 140.119 69.1748
74.3638 138.336 69.7576
79.3979 146.232 72.4013
79.6536 147.339 70.9943
79.9201 146.129 71.133
80.0426 148.406 69.8917
79.1233 148.191 71.1456
78.9339 146.104 73.6797
79.3807 145.275 73.8501
80.2748 145.124 71.3867
80.7116 146.072 70.1672
78.5009 148.153 72.5776
78.4796 146.918 73.8396
78.1071 147.796 74.1968
78.7641 145.909 75.2453
78.5357 149.11 71.4658
77.5566 148.586 74.3291
78.0893 147.719 75.769
79.5256 144.283 73.9549
79.5994 144.232 72.5958
79.3637 143.086 74.274
80.2228 144.237 71.4467
79.3692 144.231 75.1886
78.877 142.242 75.4671
78.6045 142.558 74.0693
81.1421 146.684 68.9816
80.82 148.095 68.8551
81.6715 147.247 68.0504
79.9407 149.422 68.8296
81.7542 145.739 69.4153
82.5291 146.489 67.4279
81.2674 148.182 67.0835
78.0266 150.648 69.2679
76.64 149.987 70.0366
77.2824 150.244 68.3521
75.8405 149.036 70.9401
76.0885 149.522 71.724
78.4308 149.978 70.3927
79.1862 150.238 68.9543
77.9264 149.989 67.0473
76.9039 149.247 67.9428
76.5778 150.136 72.512
77.7289 150.032 71.9053
76.9862 149.203 73.3571
75.8084 148.979 73.2634
76.7514 148.895 75.1287
79.6721 149.939 67.8334
79.2286 149.877 66.7865
80.4243 149.197 66.7239
78.717 149.088 66.1118
81.2702 148.061 65.9355
75.9947 148.683 68.9897
75.422 148.576 70.3279
75.1769 147.61 70.0325
75.0777 147.995 71.7013
76.6103 148.252 67.8558
75.0187 146.715 69.7098
74.6228 146.464 70.9821
73.6582 122.82 82.1689
74.2925 123.947 82.9578
74.4703 124.148 81.6659
74.8677 125.6 83.2357
74.2872 124.262 84.3652
72.4952 123.092 82.6621
72.7505 122.487 80.8806
74.2858 124.637 80.3519
74.6095 125.89 81.0103
73.3689 124.387 85.1008
72.4435 124.19 83.7964
72.6936 125.702 84.4011
72.1709 124.558 82.336
74.3112 125.732 85.2366
72.8643 127.089 84.8448
72.4446 126.91 83.5825
73.3129 122.966 79.3603
74.0227 124.738 79.1878
73.6188 124.545 77.9883
74.1701 126.273 78.8134
71.951 123.214 79.6088
72.9658 124.919 76.8566
74.0146 126.336 76.7121
74.6171 127.409 81.1203
74.9555 127.185 82.2613
74.8003 128.994 81.129
75.1447 127.334 83.2454
74.6263 127.538 80.1192
75.2519 130.325 80.1152
75.628 130.124 81.203
71.3235 127.797 79.3443
71.6232 126.115 79.6712
71.34 127.59 78.3007
71.9319 124.699 79.692
71.9733 125.229 81.0913
71.3405 128.219 80.3206
71.2676 129.317 79.1476
71.3335 128.981 77.2809
71.547 127.419 77.2292
71.7685 125.894 81.9018
71.6447 127.532 81.4173
71.839 127.028 82.5345
71.5995 129.105 81.0271
72.1041 128.318 83.0448
70.8852 130.632 78.0794
71.1395 130.452 77.0937
70.9968 131.839 76.9223
71.4057 130.343 76.1533
71.0039 130.892 78.9595
70.84 133.245 76.8253
70.9476 133.118 75.7989
71.7937 126.355 76.9369
72.1225 124.899 78.2602
72.0609 125.501 76.7832
71.7157 127.827 75.9509
72.4165 126.253 75.3025
78.4525 143.127 79.2383
78.8189 143.491 77.8388
78.716 142.127 79
79.0051 143.856 76.545
78.752 144.751 76.7122
77.9149 143.932 79.397
77.8802 142.536 80.3738
78.6671 140.668 80.0054
78.8854 141.188 78.8398
78.4387 145.678 76.6715
77.8842 145.263 78.0905
78.1103 146.69 76.8429
77.7633 141.064 81.2886
78.3953 140.066 81.0901
77.5221 139.495 81.9963
79.3383 141.511 77.8233
79.4079 143.042 76.4891
79.4418 141.887 76.568
80.9338 143.693 69.7406
81.4266 143.205 69.1405
80.0468 142.815 70.3228
81.3647 142.696 68.8047
83.1162 142.934 68.3836
81.8387 144.53 69.7877
80.4455 143.996 70.5107
79.0681 141.978 71.6003
79.1182 141.482 71.3129
84.0771 143.933 68.2062
82.7266 144.742 69.0425
83.6517 145.522 67.5832
79.4863 143.331 71.7266
78.6472 142.311 72.1645
78.2148 142.603 72.9488
78.6002 141.12 71.1879
79.628 141.878 69.8631
78.3454 140.333 71.0437
75.7339 130.655 85.7146
76.1133 130.929 84.5647
75.3746 129.414 84.853
76.272 131.269 83.4944
76.4964 132.289 84.1545
75.6549 132.013 86.2656
74.9181 130.376 86.4614
74.9737 127.541 84.9887
75.2903 128.272 83.9871
76.5604 133.65 84.2937
76.2765 133.209 85.742
76.7463 134.845 84.6409
74.012 129.218 85.9594
74.225 127.586 85.4211
73.208 127.979 85.5713
75.6051 129.151 83.0082
76.067 130.845 82.6477
75.8958 130.406 81.8816
75.2086 131.385 76.8636
74.9321 130.679 76.4736
74.6278 129.423 77.7913
74.6098 130.246 76.2366
74.9263 132.074 75.5667
75.311 133.406 76.0479
75.2542 131.912 77.2505
74.7197 128.238 79.0368
74.0616 127.557 78.5794
75.5004 134.056 74.4646
75.7534 134.672 74.8646
76.3016 135.737 73.7181
75.3294 131.577 78.0521
75.1614 129.554 78.9788
75.2705 130.871 79.1219
74.1459 127.663 77.3847
74.3579 129.257 76.0722
74.4364 127.73 76.3125
74.1051 145.865 75.9524
74.141 145.185 75.0356
74.6752 146.707 74.4638
73.6913 144.666 74.3924
73.6832 143.913 75.5708
74.1082 144.637 77.3237
74.6323 146.007 76.7924
75.1149 147.916 73.9152
74.6653 147.451 73.1059
73.6388 142.996 76.8025
73.8932 143.315 77.7315
73.642 141.84 78.068
74.9154 147.356 76.3549
75.4272 148.285 74.6879
75.8814 148.393 75.6982
74.4114 146.937 72.4779
73.6472 145.592 73.2414
74.0911 146.118 72.0157
76.5586 145.238 67.1123
77.7114 145.511 66.35
77.3551 146.712 66.411
78.8666 145.553 66.0343
77.8808 144.335 66.4489
75.9212 143.772 67.7888
75.9028 144.814 68.0323
76.9873 147.691 67.0235
78.003 148.051 66.0605
77.0527 143.085 67.3466
76.2139 142.646 68.1707
76.1552 141.441 68.4648
75.7347 145.598 68.4739
76.1103 147.11 67.876
75.2618 146.402 68.8984
79.1896 148.024 65.5532
79.7749 146.396 65.7243
80.6528 147.493 65.5131
71.1547 134.149 79.8143
71.4674 133.322 80.8699
71.1826 132.504 80.2476
71.8569 132.749 81.8087
71.7646 134.331 81.446
71.2141 135.637 79.3332
71.233 134.862 78.7215
71.2497 131.637 79.5633
71.5736 130.846 80.5483
71.6551 135.861 80.8478
71.4156 136.688 79.5776
71.9712 137.514 79.9807
70.737 134.489 78.0327
70.9526 132.677 78.5593
70.8475 133.812 77.3651
71.7483 130.218 81.5634
71.8491 131.401 82.347
71.9502 129.798 82.731
72.7247 132.544 73.0408
71.9677 133.45 72.8673
72.0191 131.524 74.0547
71.6033 134.248 73.041
72.4265 135.275 72.0388
73.5957 133.966 72.4464
73.2346 131.44 73.4653
71.8425 129.267 75.3558
71.5437 130.683 75.2201
73.1866 136.232 70.9411
73.6259 135.528 71.0963
73.894 137.002 70.3114
73.6313 129.479 74.0163
72.1948 128.576 74.6487
72.685 127.769 74.4217
71.4601 132.145 74.9646
71.2196 133.893 73.8051
71.2028 133.474 74.9229
POLYGONS 1280  5120
3 164 162 163
3 163 44 164
3 162 43 163
3 164 42 162
3 166 165 163
3 163 43 166
3 165 44 163
3 166 14 165
3 168 167 162
3 162 42 168
3 167 43 162
3 168 13 167
3 170 169 164
3 164 44 170
3 169 42 164
3 170 12 169
3 173 171 172
3 172 46 173
3 171 43 172
3 173 45 171
3 167 174 172
3 172 43 167
3 174 46 172
3 167 13 174
3 175 166 171
3 171 45 175
3 166 43 171
3 175 14 166
3 177 176 173
3 173 46 177
3 176 45 173
3 177 4 176
3 180 178 179
3 179 48 180
3 178 42 179
3 180 47 178
3 169 181 179
3 179 42 169
3 181 48 179
3 169 12 181
3 182 168 178
3 178 47 182
3 168 42 178
3 182 13 168
3 184 183 180
3 180 48 184
3 183 47 180
3 184 8 183
3 187 185 186
3 186 50 187
3 185 44 186
3 187 49 185
3 165 188 186
3 186 44 165
3 188 50 186
3 165 14 188
3 189 170 185
3 185 49 189
3 170 44 185
3 189 12 170
3 191 190 187
3 187 50 191
3 190 49 187
3 191 7 190
3 194 192 193
3 193 53 194
3 192 52 193
3 194 51 192
3 196 195 193
3 193 52 196
3 195 53 193
3 196 16 195
3 198 197 192
3 192 51 198
3 197 52 192
3 198 14 197
3 200 199 194
3 194 53 200
3 199 51 194
3 200 15 199
3 203 201 202
3 202 45 203
3 201 52 202
3 203 54 201
3 197 175 202
3 202 52 197
3 175 45 202
3 197 14 175
3 204 196 201
3 201 54 204
3 196 52 201
3 204 16 196
3 176 205 203
3 203 45 176
3 205 54 203
3 176 4 205
3 208 206 207
3 207 55 208
3 206 51 207
3 208 50 206
3 199 209 207
3 207 51 199
3 209 55 207
3 199 15 209
3 188 198 206
3 206 50 188
3 198 51 206
3 188 14 198
3 210 191 208
3 208 55 210
3 191 50 208
3 210 7 191
3 213 211 212
3 212 57 213
3 211 53 212
3 213 56 211
3 195 214 212
3 212 53 195
3 214 57 212
3 195 16 214
3 215 200 211
3 211 56 215
3 200 53 211
3 215 15 200
3 217 216 213
3 213 57 217
3 216 56 213
3 217 9 216
3 220 218 219
3 219 60 220
3 218 59 219
3 220 58 218
3 222 221 219
3 219 59 222
3 221 60 219
3 222 19 221
3 224 223 218
3 218 58 224
3 223 59 218
3 224 18 223
3 226 225 220
3 220 60 226
3 225 58 220
3 226 17 225
3 229 227 228
3 228 62 229
3 227 59 228
3 229 61 227
3 223 230 228
3 228 59 223
3 230 62 228
3 223 18 230
3 231 222 227
3 227 61 231
3 222 59 227
3 231 19 222
3 233 232 229
3 229 62 233
3 232 61 229
3 233 5 232
3 236 234 235
3 235 64 236
3 234 58 235
3 236 63 234
3 225 237 235
3 235 58 225
3 237 64 235
3 225 17 237
3 238 224 234
3 234 63 238
3 224 58 234
3 238 18 224
3 240 239 236
3 236 64 240
3 239 63 236
3 240 6 239
3 243 241 242
3 242 66 243
3 241 60 242
3 243 65 241
3 221 244 242
3 242 60 221
3 244 66 242
3 221 19 244
3 245 226 241
3 241 65 245
3 226 60 241
3 245 17 226
3 247 246 243
3 243 66 247
3 246 65 243
3 247 11 246
3 250 248 249
3 249 69 250
3 248 68 249
3 250 67 248
3 252 251 249
3 249 68 252
3 251 69 249
3 252 18 251
3 254 253 248
3 248 67 254
3 253 68 248
3 254 21 253
3 256 255 250
3 250 69 256
3 255 67 250
3 256 20 255
3 259 257 258
3 258 70 259
3 257 68 258
3 259 62 257
3 253 260 258
3 258 68 253
3 260 70 258
3 253 21 260
3 230 252 257
3 257 62 230
3 252 68 257
3 230 18 252
3 261 233 259
3 259 70 261
3 233 62 259
3 261 5 233
3 264 262 263
3 263 72 264
3 262 67 263
3 264 71 262
3 255 265 263
3 263 67 255
3 265 72 263
3 255 20 265
3 266 254 262
3 262 71 266
3 254 67 262
3 266 21 254
3 268 267 264
3 264 72 268
3 267 71 264
3 268 10 267
3 271 269 270
3 270 63 271
3 269 69 270
3 271 73 269
3 251 238 270
3 270 69 251
3 238 63 270
3 251 18 238
3 272 256 269
3 269 73 272
3 256 69 269
3 272 20 256
3 239 273 271
3 271 63 239
3 273 73 271
3 239 6 273
3 276 274 275
3 275 76 276
3 274 75 275
3 276 74 274
3 278 277 275
3 275 75 278
3 277 76 275
3 278 24 277
3 280 279 274
3 274 74 280
3 279 75 274
3 280 23 279
3 282 281 276
3 276 76 282
3 281 74 276
3 282 22 281
3 285 283 284
3 284 78 285
3 283 75 284
3 285 77 283
3 279 286 284
3 284 75 279
3 286 78 284
3 279 23 286
3 287 278 283
3 283 77 287
3 278 75 283
3 287 24 278
3 289 288 285
3 285 78 289
3 288 77 285
3 289 0 288
3 292 290 291
3 291 80 292
3 290 74 291
3 292 79 290
3 281 293 291
3 291 74 281
3 293 80 291
3 281 22 293
3 294 280 290
3 290 79 294
3 280 74 290
3 294 23 280
3 296 295 292
3 292 80 296
3 295 79 292
3 296 4 295
3 299 297 298
3 298 82 299
3 297 76 298
3 299 81 297
3 277 300 298
3 298 76 277
3 300 82 298
3 277 24 300
3 301 282 297
3 297 81 301
3 282 76 297
3 301 22 282
3 303 302 299
3 299 82 303
3 302 81 299
3 303 3 302
3 306 304 305
3 305 85 306
3 304 84 305
3 306 83 304
3 308 307 305
3 305 84 308
3 307 85 305
3 308 26 307
3 310 309 304
3 304 83 310
3 309 84 304
3 310 24 309
3 312 311 306
3 306 85 312
3 311 83 306
3 312 25 311
3 315 313 314
3 314 77 315
3 313 84 314
3 315 86 313
3 309 287 314
3 314 84 309
3 287 77 314
3 309 24 287
3 316 308 313
3 313 86 316
3 308 84 313
3 316 26 308
3 288 317 315
3 315 77 288
3 317 86 315
3 288 0 317
3 320 318 319
3 319 87 320
3 318 83 319
3 320 82 318
3 311 321 319
3 319 83 311
3 321 87 319
3 311 25 321
3 300 310 318
3 318 82 300
3 310 83 318
3 300 24 310
3 322 303 320
3 320 87 322
3 303 82 320
3 322 3 303
3 325 323 324
3 324 89 325
3 323 85 324
3 325 88 323
3 307 326 324
3 324 85 307
3 326 89 324
3 307 26 326
3 327 312 323
3 323 88 327
3 312 85 323
3 327 25 312
3 329 328 325
3 325 89 329
3 328 88 325
3 329 5 328
3 332 330 331
3 331 92 332
3 330 91 331
3 332 90 330
3 334 333 331
3 331 91 334
3 333 92 331
3 334 29 333
3 336 335 330
3 330 90 336
3 335 91 330
3 336 28 335
3 338 337 332
3 332 92 338
3 337 90 332
3 338 27 337
3 341 339 340
3 340 94 341
3 339 91 340
3 341 93 339
3 335 342 340
3 340 91 335
3 342 94 340
3 335 28 342
3 343 334 339
3 339 93 343
3 334 91 339
3 343 29 334
3 345 344 341
3 341 94 345
3 344 93 341
3 345 2 344
3 348 346 347
3 347 96 348
3 346 90 347
3 348 95 346
3 337 349 347
3 347 90 337
3 349 96 347
3 337 27 349
3 350 336 346
3 346 95 350
3 336 90 346
3 350 28 336
3 352 351 348
3 348 96 352
3 351 95 348
3 352 7 351
3 355 353 354
3 354 98 355
3 353 92 354
3 355 97 353
3 333 356 354
3 354 92 333
3 356 98 354
3 333 29 356
3 357 338 353
3 353 97 357
3 338 92 353
3 357 27 338
3 359 358 355
3 355 98 359
3 358 97 355
3 359 1 358
3 362 360 361
3 361 101 362
3 360 100 361
3 362 99 360
3 364 363 361
3 361 100 364
3 363 101 361
3 364 31 363
3 366 365 360
3 360 99 366
3 365 100 360
3 366 29 365
3 368 367 362
3 362 101 368
3 367 99 362
3 368 30 367
3 371 369 370
3 370 93 371
3 369 100 370
3 371 102 369
3 365 343 370
3 370 100 365
3 343 93 370
3 365 29 343
3 372 364 369
3 369 102 372
3 364 100 369
3 372 31 364
3 344 373 371
3 371 93 344
3 373 102 371
3 344 2 373
3 376 374 375
3 375 103 376
3 374 99 375
3 376 98 374
3 367 377 375
3 375 99 367
3 377 103 375
3 367 30 377
3 356 366 374
3 374 98 356
3 366 99 374
3 356 29 366
3 378 359 376
3 376 103 378
3 359 98 376
3 378 1 359
3 381 379 380
3 380 105 381
3 379 101 380
3 381 104 379
3 363 382 380
3 380 101 363
3 382 105 380
3 363 31 382
3 383 368 379
3 379 104 383
3 368 101 379
3 383 30 368
3 385 384 381
3 381 105 385
3 384 104 381
3 385 6 384
3 388 386 387
3 387 108 388
3 386 107 387
3 388 106 386
3 390 389 387
3 387 107 390
3 389 108 387
3 390 34 389
3 392 391 386
3 386 106 392
3 391 107 386
3 392 33 391
3 394 393 388
3 388 108 394
3 393 106 388
3 394 32 393
3 397 395 396
3 396 110 397
3 395 107 396
3 397 109 395
3 391 398 396
3 396 107 391
3 398 110 396
3 391 33 398
3 399 390 395
3 395 109 399
3 390 107 395
3 399 34 390
3 401 400 397
3 397 110 401
3 400 109 397
3 401 8 400
3 404 402 403
3 403 112 404
3 402 106 403
3 404 111 402
3 393 405 403
3 403 106 393
3 405 112 403
3 393 32 405
3 406 392 402
3 402 111 406
3 392 106 402
3 406 33 392
3 408 407 404
3 404 112 408
3 407 111 404
3 408 0 407
3 411 409 410
3 410 114 411
3 409 108 410
3 411 113 409
3 389 412 410
3 410 108 389
3 412 114 410
3 389 34 412
3 413 394 409
3 409 113 413
3 394 108 409
3 413 32 394
3 415 414 411
3 411 114 415
3 414 113 411
3 415 11 414
3 418 416 417
3 417 117 418
3 416 116 417
3 418 115 416
3 420 419 417
3 417 116 420
3 419 117 417
3 420 36 419
3 422 421 416
3 416 115 422
3 421 116 416
3 422 34 421
3 424 423 418
3 418 117 424
3 423 115 418
3 424 35 423
3 427 425 426
3 426 109 427
3 425 116 426
3 427 118 425
3 421 399 426
3 426 116 421
3 399 109 426
3 421 34 399
3 428 420 425
3 425 118 428
3 420 116 425
3 428 36 420
3 400 429 427
3 427 109 400
3 429 118 427
3 400 8 429
3 432 430 431
3 431 119 432
3 430 115 431
3 432 114 430
3 423 433 431
3 431 115 423
3 433 119 431
3 423 35 433
3 412 422 430
3 430 114 412
3 422 115 430
3 412 34 422
3 434 415 432
3 432 119 434
3 415 114 432
3 434 11 415
3 437 435 436
3 436 121 437
3 435 117 436
3 437 120 435
3 419 438 436
3 436 117 419
3 438 121 436
3 419 36 438
3 439 424 435
3 435 120 439
3 424 117 435
3 439 35 424
3 441 440 437
3 437 121 441
3 440 120 437
3 441 1 440
3 444 442 443
3 443 124 444
3 442 123 443
3 444 122 442
3 446 445 443
3 443 123 446
3 445 124 443
3 446 39 445
3 448 447 442
3 442 122 448
3 447 123 442
3 448 38 447
3 450 449 444
3 444 124 450
3 449 122 444
3 450 37 449
3 453 451 452
3 452 126 453
3 451 123 452
3 453 125 451
3 447 454 452
3 452 123 447
3 454 126 452
3 447 38 454
3 455 446 451
3 451 125 455
3 446 123 451
3 455 39 446
3 457 456 453
3 453 126 457
3 456 125 453
3 457 9 456
3 460 458 459
3 459 128 460
3 458 122 459
3 460 127 458
3 449 461 459
3 459 122 449
3 461 128 459
3 449 37 461
3 462 448 458
3 458 127 462
3 448 122 458
3 462 38 448
3 464 463 460
3 460 128 464
3 463 127 460
3 464 10 463
3 467 465 466
3 466 130 467
3 465 124 466
3 467 129 465
3 445 468 466
3 466 124 445
3 468 130 466
3 445 39 468
3 469 450 465
3 465 129 469
3 450 124 465
3 469 37 450
3 471 470 467
3 467 130 471
3 470 129 467
3 471 3 470
3 474 472 473
3 473 133 474
3 472 132 473
3 474 131 472
3 476 475 473
3 473 132 476
3 475 133 473
3 476 38 475
3 478 477 472
3 472 131 478
3 477 132 472
3 478 41 477
3 480 479 474
3 474 133 480
3 479 131 474
3 480 40 479
3 483 481 482
3 482 134 483
3 481 132 482
3 483 126 481
3 477 484 482
3 482 132 477
3 484 134 482
3 477 41 484
3 454 476 481
3 481 126 454
3 476 132 481
3 454 38 476
3 485 457 483
3 483 134 485
3 457 126 483
3 485 9 457
3 488 486 487
3 487 136 488
3 486 131 487
3 488 135 486
3 479 489 487
3 487 131 479
3 489 136 487
3 479 40 489
3 490 478 486
3 486 135 490
3 478 131 486
3 490 41 478
3 492 491 488
3 488 136 492
3 491 135 488
3 492 2 491
3 495 493 494
3 494 127 495
3 493 133 494
3 495 137 493
3 475 462 494
3 494 133 475
3 462 127 494
3 475 38 462
3 496 480 493
3 493 137 496
3 480 133 493
3 496 40 480
3 463 497 495
3 495 127 463
3 497 137 495
3 463 10 497
3 500 498 499
3 499 140 500
3 498 139 499
3 500 138 498
3 502 501 499
3 499 139 502
3 501 140 499
3 502 33 501
3 504 503 498
3 498 138 504
3 503 139 498
3 504 13 503
3 506 505 500
3 500 140 506
3 505 138 500
3 506 23 505
3 509 507 508
3 508 47 509
3 507 139 508
3 509 110 507
3 503 182 508
3 508 139 503
3 182 47 508
3 503 13 182
3 398 502 507
3 507 110 398
3 502 139 507
3 398 33 502
3 183 401 509
3 509 47 183
3 401 110 509
3 183 8 401
3 512 510 511
3 511 79 512
3 510 138 511
3 512 46 510
3 505 294 511
3 511 138 505
3 294 79 511
3 505 23 294
3 174 504 510
3 510 46 174
3 504 138 510
3 174 13 504
3 295 177 512
3 512 79 295
3 177 46 512
3 295 4 177
3 515 513 514
3 514 111 515
3 513 140 514
3 515 78 513
3 501 406 514
3 514 140 501
3 406 111 514
3 501 33 406
3 286 506 513
3 513 78 286
3 506 140 513
3 286 23 506
3 407 289 515
3 515 111 407
3 289 78 515
3 407 0 289
3 518 516 517
3 517 143 518
3 516 142 517
3 518 141 516
3 520 519 517
3 517 142 520
3 519 143 517
3 520 19 519
3 522 521 516
3 516 141 522
3 521 142 516
3 522 32 521
3 524 523 518
3 518 143 524
3 523 141 518
3 524 26 523
3 527 525 526
3 526 113 527
3 525 142 526
3 527 66 525
3 521 413 526
3 526 142 521
3 413 113 526
3 521 32 413
3 244 520 525
3 525 66 244
3 520 142 525
3 244 19 520
3 414 247 527
3 527 113 414
3 247 66 527
3 414 11 247
3 530 528 529
3 529 86 530
3 528 141 529
3 530 112 528
3 523 316 529
3 529 141 523
3 316 86 529
3 523 26 316
3 405 522 528
3 528 112 405
3 522 141 528
3 405 32 522
3 317 408 530
3 530 86 317
3 408 112 530
3 317 0 408
3 533 531 532
3 532 61 533
3 531 143 532
3 533 89 531
3 519 231 532
3 532 143 519
3 231 61 532
3 519 19 231
3 326 524 531
3 531 89 326
3 524 143 531
3 326 26 524
3 232 329 533
3 533 61 232
3 329 89 533
3 232 5 329
3 536 534 535
3 535 146 536
3 534 145 535
3 536 144 534
3 538 537 535
3 535 145 538
3 537 146 535
3 538 22 537
3 540 539 534
3 534 144 540
3 539 145 534
3 540 16 539
3 542 541 536
3 536 146 542
3 541 144 536
3 542 39 541
3 545 543 544
3 544 54 545
3 543 145 544
3 545 80 543
3 539 204 544
3 544 145 539
3 204 54 544
3 539 16 204
3 293 538 543
3 543 80 293
3 538 145 543
3 293 22 538
3 205 296 545
3 545 54 205
3 296 80 545
3 205 4 296
3 548 546 547
3 547 125 548
3 546 144 547
3 548 57 546
3 541 455 547
3 547 144 541
3 455 125 547
3 541 39 455
3 214 540 546
3 546 57 214
3 540 144 546
3 214 16 540
3 456 217 548
3 548 125 456
3 217 57 548
3 456 9 217
3 551 549 550
3 550 81 551
3 549 146 550
3 551 130 549
3 537 301 550
3 550 146 537
3 301 81 550
3 537 22 301
3 468 542 549
3 549 130 468
3 542 146 549
3 468 39 542
3 302 471 551
3 551 81 302
3 471 130 551
3 302 3 471
3 554 552 553
3 553 149 554
3 552 148 553
3 554 147 552
3 556 555 553
3 553 148 556
3 555 149 553
3 556 21 555
3 558 557 552
3 552 147 558
3 557 148 552
3 558 25 557
3 560 559 554
3 554 149 560
3 559 147 554
3 560 37 559
3 563 561 562
3 562 88 563
3 561 148 562
3 563 70 561
3 557 327 562
3 562 148 557
3 327 88 562
3 557 25 327
3 260 556 561
3 561 70 260
3 556 148 561
3 260 21 556
3 328 261 563
3 563 88 328
3 261 70 563
3 328 5 261
3 566 564 565
3 565 129 566
3 564 147 565
3 566 87 564
3 559 469 565
3 565 147 559
3 469 129 565
3 559 37 469
3 321 558 564
3 564 87 321
3 558 147 564
3 321 25 558
3 470 322 566
3 566 129 470
3 322 87 566
3 470 3 322
3 569 567 568
3 568 71 569
3 567 149 568
3 569 128 567
3 555 266 568
3 568 149 555
3 266 71 568
3 555 21 266
3 461 560 567
3 567 128 461
3 560 149 567
3 461 37 560
3 267 464 569
3 569 71 267
3 464 128 569
3 267 10 464
3 572 570 571
3 571 152 572
3 570 151 571
3 572 150 570
3 574 573 571
3 571 151 574
3 573 152 571
3 574 27 573
3 576 575 570
3 570 150 576
3 575 151 570
3 576 12 575
3 578 577 572
3 572 152 578
3 577 150 572
3 578 36 577
3 581 579 580
3 580 49 581
3 579 151 580
3 581 96 579
3 575 189 580
3 580 151 575
3 189 49 580
3 575 12 189
3 349 574 579
3 579 96 349
3 574 151 579
3 349 27 574
3 190 352 581
3 581 49 190
3 352 96 581
3 190 7 352
3 584 582 583
3 583 118 584
3 582 150 583
3 584 48 582
3 577 428 583
3 583 150 577
3 428 118 583
3 577 36 428
3 181 576 582
3 582 48 181
3 576 150 582
3 181 12 576
3 429 184 584
3 584 118 429
3 184 48 584
3 429 8 184
3 587 585 586
3 586 97 587
3 585 152 586
3 587 121 585
3 573 357 586
3 586 152 573
3 357 97 586
3 573 27 357
3 438 578 585
3 585 121 438
3 578 152 585
3 438 36 578
3 358 441 587
3 587 97 358
3 441 121 587
3 358 1 441
3 590 588 589
3 589 155 590
3 588 154 589
3 590 153 588
3 592 591 589
3 589 154 592
3 591 155 589
3 592 17 591
3 594 593 588
3 588 153 594
3 593 154 588
3 594 30 593
3 596 595 590
3 590 155 596
3 595 153 590
3 596 35 595
3 599 597 598
3 598 104 599
3 597 154 598
3 599 64 597
3 593 383 598
3 598 154 593
3 383 104 598
3 593 30 383
3 237 592 597
3 597 64 237
3 592 154 597
3 237 17 592
3 384 240 599
3 599 104 384
3 240 64 599
3 384 6 240
3 602 600 601
3 601 120 602
3 600 153 601
3 602 103 600
3 595 439 601
3 601 153 595
3 439 120 601
3 595 35 439
3 377 594 600
3 600 103 377
3 594 153 600
3 377 30 594
3 440 378 602
3 602 120 440
3 378 103 602
3 440 1 378
3 605 603 604
3 604 65 605
3 603 155 604
3 605 119 603
3 591 245 604
3 604 155 591
3 245 65 604
3 591 17 245
3 433 596 603
3 603 119 433
3 596 155 603
3 433 35 596
3 246 434 605
3 605 65 246
3 434 119 605
3 246 11 434
3 608 606 607
3 607 158 608
3 606 157 607
3 608 156 606
3 610 609 607
3 607 157 610
3 609 158 607
3 610 15 609
3 612 611 606
3 606 156 612
3 611 157 606
3 612 28 611
3 614 613 608
3 608 158 614
3 613 156 608
3 614 41 613
3 617 615 616
3 616 95 617
3 615 157 616
3 617 55 615
3 611 350 616
3 616 157 611
3 350 95 616
3 611 28 350
3 209 610 615
3 615 55 209
3 610 157 615
3 209 15 610
3 351 210 617
3 617 95 351
3 210 55 617
3 351 7 210
3 620 618 619
3 619 135 620
3 618 156 619
3 620 94 618
3 613 490 619
3 619 156 613
3 490 135 619
3 613 41 490
3 342 612 618
3 618 94 342
3 612 156 618
3 342 28 612
3 491 345 620
3 620 135 491
3 345 94 620
3 491 2 345
3 623 621 622
3 622 56 623
3 621 158 622
3 623 134 621
3 609 215 622
3 622 158 609
3 215 56 622
3 609 15 215
3 484 614 621
3 621 134 484
3 614 158 621
3 484 41 614
3 216 485 623
3 623 56 216
3 485 134 623
3 216 9 485
3 626 624 625
3 625 161 626
3 624 160 625
3 626 159 624
3 628 627 625
3 625 160 628
3 627 161 625
3 628 31 627
3 630 629 624
3 624 159 630
3 629 160 624
3 630 20 629
3 632 631 626
3 626 161 632
3 631 159 626
3 632 40 631
3 635 633 634
3 634 73 635
3 633 160 634
3 635 105 633
3 629 272 634
3 634 160 629
3 272 73 634
3 629 20 272
3 382 628 633
3 633 105 382
3 628 160 633
3 382 31 628
3 273 385 635
3 635 73 273
3 385 105 635
3 273 6 385
3 638 636 637
3 637 137 638
3 636 159 637
3 638 72 636
3 631 496 637
3 637 159 631
3 496 137 637
3 631 40 496
3 265 630 636
3 636 72 265
3 630 159 636
3 265 20 630
3 497 268 638
3 638 137 497
3 268 72 638
3 497 10 268
3 641 639 640
3 640 102 641
3 639 161 640
3 641 136 639
3 627 372 640
3 640 161 627
3 372 102 640
3 627 31 372
3 489 632 639
3 639 136 489
3 632 161 639
3 489 40 632
3 373 492 641
3 641 102 373
3 492 136 641
3 373 2 492
