# vtk DataFile Version 3.0
this file was written using fslvtkio
ASCII
DATASET POLYDATA
POINTS 732 float
121.796 124.194 49.5137
120.627 123.188 49.841
121.592 123.08 50.2597
122.439 123.152 50.5001
123.198 124.25 49.5823
123.78 123.315 50.9158
124.42 124.396 49.9967
124.948 123.844 51.1762
120.952 124.893 48.7201
119.729 124.637 49.0839
122.443 125.536 48.7653
123.996 125.619 49.2834
125.467 125.212 50.7246
119.933 126.089 48.3396
118.369 126.513 49.2196
118.783 125.351 49.0212
121.176 126.374 48.6243
122.18 126.844 49.0237
123.629 126.679 49.2466
124.89 126.195 50.2456
119.634 127.001 49.4598
118.771 127.573 50.1595
120.874 126.995 49.3941
122.039 127.952 49.5825
123.36 127.925 50.0506
124.74 127.481 50.4646
119.903 127.755 50.4791
121.207 127.984 50.4641
121.736 121.697 51.1407
120.195 121.521 51.3372
120.688 120.506 52.1618
122.206 120.673 52.2012
123.281 121.899 51.1437
123.65 120.999 52.0515
124.609 122.56 51.7527
124.86 121.406 52.4633
125.761 122.637 52.4815
126.072 121.657 53.2145
119.871 122.858 50.6526
118.574 122.934 51.6414
118.877 121.741 51.7939
126.057 123.942 51.9328
126.399 123.141 53.5903
118.245 123.895 50.7059
116.802 124.548 50.9428
117.378 123.331 51.9904
118.98 124.198 49.7945
126.01 125.205 52.4743
126.477 124.576 53.3957
117.459 125.321 49.7864
116.62 126.173 50.9813
126.417 126.21 53.8218
125.458 126.418 52.0924
117.598 126.931 50.1611
117.135 127.457 51.3554
122.356 128.173 50.6241
122.83 128.167 52.0197
121.507 128.187 51.5826
123.786 128.208 52.3973
124.561 127.667 52.0457
118.694 127.985 51.3024
120.188 128.053 51.6444
124.683 118.771 53.4197
123.504 118.226 53.5941
124.362 117.581 54.4303
125.391 117.729 54.5964
125.945 118.935 54.198
126.508 117.882 55.0633
119.915 119.238 53.6027
119.02 119.041 54.6652
120.102 118.761 54.9376
121.085 118.504 54.7359
121.402 119.239 53.0006
122.298 118.104 53.8415
123.137 119.562 52.8669
124.566 120.066 52.49
125.933 120.262 53.2848
126.635 119.022 55.103
126.637 120.19 54.6982
127.461 119.333 55.9532
118.32 120.391 53.738
117.212 120.418 54.6143
118.079 119.712 54.6067
119.478 120.701 52.9219
126.562 121.623 54.3625
127.27 120.891 55.6532
116.848 122.071 53.757
116.07 122.801 54.95
116.495 121.464 54.8447
117.732 121.913 52.5895
126.574 123.421 55.0164
126.765 122.245 55.8166
116.183 124.065 52.9539
115.293 124.266 54.4833
126.616 123.973 56.4803
126.727 124.753 54.8443
115.038 125.872 53.2355
115.157 126.345 55.6174
114.612 125.024 55.7011
115.929 125.361 51.7575
126.578 126.782 55.5892
125.505 127.172 53.6488
116.458 126.919 54.3463
116.346 126.715 52.465
117.431 127.484 53.7103
121.604 127.736 52.3327
121.887 127.096 53.2456
120.5 127.425 52.7095
122.59 127.194 54.0619
123.343 127.85 54.0422
124.533 127.87 54.0739
117.639 127.739 52.4224
119.328 127.883 52.7647
123.358 116.175 55.3562
122.331 116.048 56.3167
123.253 115.542 56.3345
124.212 115.09 55.9435
124.891 116.322 55.0879
125.698 114.96 55.6989
126.102 116.834 55.5837
126.643 115.633 56.5303
127.322 116.816 56.4706
127.601 116.181 57.5588
120.162 117.949 55.9359
119.127 117.74 56.8237
120.23 117.335 57.0784
121.024 116.801 56.6545
121.932 117.261 55.3613
123.358 117.24 54.6546
127.052 117.964 55.9506
127.857 118.18 57.2098
117.997 119.056 55.7111
117.013 119.31 56.7423
118.078 118.389 56.7886
127.641 119.948 57.1608
116.139 120.988 55.6664
115.223 121.461 57.387
115.95 120.177 57.3496
127.452 121.399 56.8416
115.172 122.231 56.1544
114.81 123.74 57.3614
114.732 122.561 58.086
126.856 122.779 57.2823
114.949 123.739 56.1674
114.64 125.633 57.5653
126.665 124.291 58.2203
126.689 125.274 56.3465
115.665 126.411 57.3095
123.433 127.197 55.7171
122.643 126.661 57.2161
122.347 126.779 55.5279
124.48 127.897 55.9103
123.888 127.1 57.4561
125.613 127.675 55.4542
125.278 127.182 57.1586
126.345 126.264 57.2547
117.097 126.179 55.7387
119.075 126.861 53.6276
118.733 126.204 54.8142
120.252 126.762 53.4036
120.413 126.216 54.3616
121.325 126.403 54.9123
123.223 114.852 57.0825
122.387 114.404 58.2121
123.234 113.731 57.8361
124.084 113.435 57.4488
124.672 114.324 56.729
125.658 113.165 57.4266
126.248 114.175 56.8556
127.155 113.558 58.3245
127.189 114.957 57.6093
127.825 114.978 58.8835
120.321 116.624 58.0271
119.16 117.202 58.6959
120.16 116.359 59.6558
121.228 115.298 59.12
121.842 115.865 57.6973
128.062 116.237 58.7253
118.065 117.961 57.7902
117.109 118.315 59.292
118.509 117.842 59.4698
127.946 117.514 58.8453
128.121 118.767 58.5137
128.301 117.508 60.3076
116.352 118.878 58.0387
115.428 120.375 58.5949
115.953 119.423 59.6811
128.326 120.165 58.3968
128.167 118.989 59.8916
115.001 121.758 59.3742
127.795 120.442 59.3261
127.391 121.31 58.0892
114.792 124.226 58.6179
114.959 122.755 59.7584
127.149 122.748 58.6681
115.415 125.577 58.6534
124.013 126.496 58.4219
122.98 125.968 60.2951
122.996 126.226 58.7281
125.21 126.059 58.2186
124.284 125.781 59.5519
126.044 124.997 57.7186
125.429 124.897 59.4536
126.477 123.658 59.215
116.636 125.953 58.0765
119.57 125.736 55.5372
118.92 125.773 57.609
118.524 125.432 56.0009
120.526 125.942 56.2833
119.748 125.717 57.9948
121.728 126.598 56.8191
121.066 126.138 58.5375
122.325 126.361 58.631
117.759 125.711 56.4811
123.167 112.762 58.5172
122.712 112.681 59.9552
123.346 112.192 59.5727
123.991 111.558 58.9377
124.711 112.417 58.2331
125.574 111.39 58.8205
126.346 112.14 58.2557
127.099 111.524 59.8622
127.303 112.361 58.833
127.766 112.687 59.8936
122.06 113.856 59.3844
121.164 114.276 60.6375
121.956 113.65 60.3617
127.954 113.952 59.9668
128.459 115.226 60.374
128.768 114.245 61.6546
119.051 117.168 60.0606
117.848 117.689 60.6137
119.415 116.34 61.2825
120.431 115.373 60.4725
128.341 116.456 60.1608
128.712 115.89 61.6507
116.791 118.694 60.9352
128.725 117.578 61.5323
115.454 120.735 60.4037
116.349 120.118 61.41
128.123 119.315 60.9324
115.655 122.203 61.2185
127.996 120.509 60.2464
127.439 121.594 59.854
115.047 124.35 60.1835
115.495 123.212 61.4593
126.011 123.676 60.3407
125.236 123.332 61.5736
125.067 124.869 60.9685
126.669 122.62 59.6681
126.547 122.429 60.8936
116.218 125.078 59.897
117.189 125.357 59.1415
118.772 125.607 59.5058
117.635 125.481 60.7061
119.84 125.576 59.5774
118.878 125.87 61.3536
121.138 125.744 59.9412
120.094 125.785 61.5918
122.082 125.819 59.756
121.8 125.764 61.2647
122.996 125.686 61.806
124.102 125.338 60.9758
117.933 125.643 58.1199
123.301 111.017 60.2394
123.01 110.906 61.3951
123.497 109.827 60.9736
124.229 109.632 60.5434
124.737 110.26 59.4824
125.628 109.259 60.118
126.239 110.239 59.6586
126.957 109.438 60.8479
127.179 110.444 60.3175
127.782 110.625 61.4573
122.198 112.988 61.1968
121.484 112.923 62.0227
122.046 111.891 61.6148
128.086 111.882 61.3865
128.351 113.124 61.3934
128.792 112.765 62.888
120.509 114.742 61.6286
120.601 114.205 62.8397
120.535 113.796 62.1919
129.307 114.555 62.8555
118.482 117.106 61.9273
119.915 116.234 62.2714
129.143 116.511 62.7107
117.925 118.471 62.2806
119.114 117.671 62.8556
128.855 118.631 62.5109
116.642 121.296 61.9721
117.491 119.491 62.875
128.289 120.549 61.383
128.588 119.81 62.1976
128.256 120.837 62.5158
116.903 123.137 62.4628
117.586 121.303 62.9327
127.538 121.682 61.2762
127.376 121.699 62.877
126.556 122.3 62.2829
116.422 124.801 61.7501
117.907 124.958 62.3101
118.245 123.272 63.0102
119.151 124.921 62.7162
120.628 125.122 62.2725
119.521 123.655 62.735
121.934 124.74 62.2751
121.027 123.647 62.6023
123.335 124.514 61.9977
122.356 123.815 62.6979
124.403 124.171 61.7297
123.832 123.432 62.6915
125.327 122.772 62.6579
125.169 107.562 61.797
124.523 107.305 62.8768
125.465 106.839 62.6509
126.532 106.985 62.9824
126.941 107.622 62.0253
127.415 107.646 63.4685
123.845 108.819 61.8351
122.965 109.684 63.0334
123.415 108.394 63.1821
125.008 108.599 60.94
126.432 108.208 60.9898
128.002 108.3 62.8234
127.835 109.214 62.1824
128.93 108.965 63.5985
128.674 110.435 63.4978
129.139 109.99 64.8389
122.469 110.95 62.3995
121.358 111.357 63.2908
122.099 110.316 63.9475
128.321 111.301 62.7813
128.846 111.802 64.3235
120.669 112.504 62.8626
120.351 112.306 64.0564
120.635 111.654 63.7382
129.375 113.469 64.0779
120.665 114.097 64.0145
121.502 115.191 62.8798
122.048 114.905 63.7898
129.605 115.499 63.8773
120.893 115.991 62.7455
122.053 115.967 63.0159
129.233 117.718 63.6096
119.148 118.92 63.3131
120.474 117.349 63.0564
128.345 119.493 63.1588
128.907 118.531 63.6964
128.527 119.518 64.2933
118.769 120.381 63.2403
120.834 118.25 62.6604
120.352 120.303 63.1628
122.339 121.158 63.3524
121.962 119.264 63.1912
124.013 121.469 63.8774
123.537 119.878 63.7003
125.534 121.572 64.5513
125.261 120.198 64.548
126.62 121.228 64.4184
126.423 120.591 65.3019
127.621 120.725 63.5819
127.733 120.017 64.7707
118.745 122.092 63.1065
119.933 121.947 63.0627
121.637 122.551 63.3003
123.043 122.68 63.3919
124.437 122.303 63.465
126.141 121.968 63.6879
125.56 106.22 63.8214
124.24 106.304 64.5202
125.268 105.322 64.8909
126.81 105.465 64.9664
127.632 106.634 64.3497
128.309 105.897 65.8116
128.746 107.346 65.0667
129.259 106.684 66.0437
122.227 107.967 65.1433
121.144 107.589 65.9908
122.292 107.491 66.1281
123.225 106.967 65.6542
123.72 107.208 63.9151
128.296 108.142 64.1892
129.284 108.17 65.7198
129.267 108.532 64.8903
129.546 108.828 66.2432
120.955 109.147 65.155
119.773 109.978 66.1324
119.727 108.589 66.1285
122.304 108.958 64.4148
129.538 110.661 65.8327
121.14 110.559 64.7377
120.031 111.099 65.9643
129.585 112.439 65.2914
120.362 112.489 65.413
120.072 113.359 64.7999
121.089 113.868 65.4965
129.685 114.44 65.0518
122.887 116.06 63.8985
122.24 114.67 65.3366
123.117 115.77 66.0618
129.857 116.466 64.64
122.042 116.859 62.8514
123.243 117.567 64.01
123.709 117.002 65.5742
129.175 118.301 64.5318
129.387 117.287 65.3775
128.45 118.036 65.5833
121.9 117.548 62.6059
123.322 118.289 63.1989
124.167 117.788 65.2818
124.838 118.79 64.5526
126.147 119.546 65.588
125.15 118.362 66.0995
127.261 119.305 65.6877
126.297 118.512 66.5646
128.338 118.944 65.3284
127.444 118.277 66.3248
124.053 104.718 66.5665
123.093 104.689 67.7591
123.909 103.825 67.5139
124.986 103.51 67.151
125.772 104.406 65.7838
126.672 103.422 66.9275
127.403 104.587 65.9276
128.188 103.915 67.0994
128.637 104.907 66.676
129.018 105.387 68.4625
122.298 106.222 66.6742
120.387 106.9 67.4777
121.761 105.874 67.9694
123.916 105.485 65.5099
129.135 106.366 67.3222
129.7 107.561 66.7833
129.585 107.787 67.6211
120.108 107.675 66.9169
118.536 108.714 67.7261
118.749 107.512 68.5497
129.583 109.525 67.4394
119.218 110.017 67.725
129.474 111.089 66.9182
120.288 111.023 67.208
120.931 112.426 66.4787
121.77 112.916 67.4598
121.433 111.579 67.8003
122.703 112.355 68.0353
129.504 112.944 66.3087
121.566 113.961 66.9383
122.738 113.689 67.8198
129.443 114.698 66.3103
128.948 113.5 67.2235
128.782 114.758 67.3745
124.152 116.45 67.0727
122.931 114.979 67.2617
125.492 116.611 67.6756
124.163 115.567 67.9006
125.446 115.222 68.0764
128.608 116.168 66.9814
127.815 114.999 67.9097
127.391 115.866 67.4632
129.399 116.041 65.706
124.722 117.426 66.7067
125.796 117.556 67.0975
126.434 116.013 67.7075
127.266 117.073 66.9166
128.513 117.323 66.3228
124.227 103.014 68.361
122.808 103.32 69.1693
123.725 102.345 69.975
125.238 102.162 69.743
125.972 102.716 68.1748
126.823 102.415 69.8047
127.651 102.798 68.0367
128.284 103.092 69.5681
128.989 103.777 68.3477
128.914 104.412 69.8032
120.578 104.878 69.3602
119.607 104.416 70.214
120.845 103.775 70.2884
121.443 103.687 69.6742
122.106 104.637 68.6653
128.978 106.316 69.9951
118.781 106.274 69.8025
117.533 106.609 71.088
118.456 105.049 71.0511
120.3 105.98 68.4944
129.439 106.849 68.8042
129.85 108.344 68.7245
117.776 108.272 70.1143
118.952 108.79 69.6278
129.421 109.566 68.5338
130.177 108.983 69.6533
129.313 109.714 69.8293
119.767 109.788 68.9987
120.837 110.879 68.6922
122.584 111.473 68.9474
121.759 109.821 69.3745
123.832 111.75 69.1359
123.003 110.148 69.766
124.128 110.515 69.8351
129.268 110.854 68.4389
128.572 111.087 69.3656
123.945 112.782 68.3153
124.891 111.395 69.3263
125.293 112.513 68.7322
127.018 112.302 68.6627
126.001 111.557 69.6937
128.364 112.067 68.4754
127.366 111.366 69.505
129.011 112.112 67.5334
123.536 114.269 68.0799
124.872 114.217 68.68
126.247 113.206 68.2853
127.852 113.462 67.8578
126.565 114.451 68.0894
122.926 101.786 71.7215
122.026 101.636 72.5105
123.093 100.909 72.5794
124.259 100.969 72.3988
124.891 101.646 71.3855
125.88 100.962 72.6701
126.316 101.844 71.1647
127.141 101.462 72.8849
127.402 102.371 71.5625
127.97 102.573 73.0893
121.09 102.886 71.073
119.777 102.81 71.7826
120.87 102.241 71.9805
122.455 102.434 70.3591
127.952 103.573 71.3626
128.827 105.073 71.264
119.334 104.088 71.1419
117.942 105.415 72.7972
118.659 104.147 71.6278
129.102 106.446 71.2592
118.428 107.258 72.506
129.598 108.117 70.1814
129.096 107.82 71.2136
118.306 108.248 71.5856
120.523 109.3 70.3458
119.464 108.958 71.4139
122.433 109.537 70.8698
121.326 108.977 71.7104
124.068 109.426 70.679
122.981 108.743 72.1108
125.976 109.734 71.4671
124.799 108.727 71.9378
127.496 109.873 71.895
126.329 108.809 72.6198
128.953 109.242 71.3306
127.954 108.627 72.3787
125.292 110.216 70.1645
126.736 110.449 70.3403
128.127 110.314 70.2911
123.225 100.304 73.5194
121.791 100.318 74.1306
122.895 99.6006 74.6429
124.362 99.559 74.9581
125.146 100.434 73.8242
126.016 100.195 75.4928
126.448 101.026 74.5009
126.945 101.315 76.3154
121.021 101.856 73.2318
119.805 101.668 73.6912
120.74 100.879 74.0117
127.501 101.683 74.8863
127.775 103.219 74.5549
117.444 103.845 72.8807
115.933 104.368 74.4502
117.544 103.316 73.5821
118.581 102.398 73.7414
118.61 102.817 72.1545
128.285 104.346 72.5921
128.097 104.579 73.7074
117.116 105.548 73.4036
119.598 106.95 73.2502
118.784 105.903 74.0637
121.035 107.181 73.566
120.378 106.292 74.7187
121.848 106.694 75.2664
128.61 105.76 72.718
128.303 106.554 74.6218
119.591 108.177 72.4341
121.072 108.37 72.7806
122.475 107.225 74.3798
122.688 107.841 73.3398
124.341 107.979 73.3834
123.97 107.121 74.946
126.128 108.138 73.5091
125.385 107.483 75.0895
127.902 107.558 73.2433
126.995 107.571 75.0271
128.654 107.408 71.9891
122.319 99.0816 75.8229
120.458 98.7265 76.1121
121.043 98.9779 77.8026
122.807 98.6714 77.2099
123.927 99.1139 76.2803
124.266 99.5054 77.967
120.829 99.8119 74.9526
119.227 100.181 75.9708
119.806 99.4823 76.1766
125.492 99.8815 76.9012
126.059 101.217 77.7172
117.32 102.352 74.6569
115.28 103.297 75.2463
116.544 101.823 75.6132
117.489 100.953 75.5344
119.182 101.209 74.6288
127.244 103.193 76.0165
126.599 102.994 77.4224
116.545 104.917 76.2779
117.302 105.435 74.7975
118.428 105.492 75.808
118.401 104.999 77.1081
119.594 105.422 77.1088
126.89 104.847 76.7392
126.256 104.228 77.7075
125.519 105.58 77.8617
127.556 104.421 75.0998
120.216 105.844 76.0348
123.386 107.003 76.4069
121.944 106.385 76.7369
125.374 106.576 76.6651
123.797 106.151 77.4448
126.569 106.908 76.124
127.549 105.815 75.5609
119.457 99.5116 77.8397
118.216 99.6201 78.5234
119.376 99.7344 79.8373
121.281 99.7699 79.429
123.092 99.3371 79.089
123.915 100.612 80.0439
115.964 101.354 76.2916
114.902 101.734 77.3876
115.858 100.948 78.1257
116.809 100.252 78.1593
117.691 100.058 76.6532
124.792 100.872 78.6698
125.543 102.125 78.7929
114.504 102.98 76.361
113.787 103.766 78.1741
113.986 102.283 77.3584
125.609 103.621 78.4387
124.958 102.957 79.3182
124.253 103.621 79.2366
115.033 104.626 76.4297
116.495 104.4 77.4171
117.967 104.446 78.0877
120.896 105.98 77.7611
119.534 104.797 78.4278
122.644 105.626 78.238
121.208 104.87 78.9887
124.264 104.892 78.3955
122.855 104.387 79.1985
115.685 100.415 79.8619
114.627 100.629 79.7758
115.228 100.025 81.4591
117.342 99.8697 80.9417
117.471 99.9945 79.6424
118.936 100.03 81.5547
120.431 100.179 81.0716
122.299 100.087 80.8022
123.107 101.05 81.3732
113.198 102.574 78.8979
111.795 102.849 80.2876
112.676 101.769 79.9236
113.521 100.958 79.6706
114.372 101.626 78.2795
124.626 101.966 80.3207
123.431 102.356 81.1382
113.064 103.8 80.3651
115.59 104.132 78.5599
114.513 103.756 80.3328
116.994 104.171 79.0352
115.869 103.998 80.5791
118.575 104.175 79.46
117.215 103.876 80.8186
120.065 103.932 79.8138
118.336 103.946 81.0921
121.571 103.802 79.9311
119.463 103.663 81.3806
123.379 103.403 80.1425
121.49 103.396 81.099
111.64 100.968 80.9456
109.997 100.654 83.0752
111.855 100.957 83.3244
113.144 100.89 81.9814
113.844 100.44 80.8545
114.755 100.431 82.9352
116.379 100.65 82.4819
117.755 100.705 82.9624
119.911 100.293 82.8178
121.468 100.961 82.1275
120.382 101.493 83.0961
110.799 101.575 81.1689
109.735 102.546 81.5969
109.238 101.689 82.9107
120.743 102.747 82.1327
119.338 102.38 83.3954
118.715 103.286 82.7686
122.233 102.253 81.6333
111.116 103.382 81.7675
111.817 103.89 82.3377
113.284 103.693 81.921
114.48 103.943 82.0109
115.842 103.858 82.0287
116.697 103.824 82.9177
109.965 101.35 84.9918
111.155 101.147 85.5459
112.357 101.004 84.6578
113.756 100.854 84.235
115.645 100.709 84.2705
117.378 101.339 84.4452
115.723 101.914 85.3352
119.006 101.307 83.9014
109.063 103.317 83.5812
108.834 102.279 85.1306
117.344 102.835 84.1532
115.528 103.289 84.5174
110.188 103.539 83.8414
111.376 104.181 83.8859
112.871 104.111 83.8904
114.418 104.057 84.0547
109.896 102.922 86.2855
111.312 102.772 86.5566
112.737 102.198 85.9658
114.14 101.485 85.5399
109.88 103.76 85.2251
110.876 103.917 85.6486
112.692 104.063 85.7334
113.993 103.118 85.7966
POLYGONS 1460  5840
3 0 1 2
3 0 3 4
3 2 3 0
3 4 5 6
3 3 5 4
3 5 7 6
3 8 1 0
3 9 1 8
3 4 10 0
3 10 8 0
3 6 11 4
3 11 10 4
3 12 6 7
3 11 6 12
3 13 14 15
3 9 13 15
3 9 8 13
3 8 16 13
3 10 17 8
3 17 16 8
3 11 18 10
3 18 17 10
3 19 11 12
3 18 11 19
3 20 14 13
3 21 14 20
3 16 22 13
3 22 20 13
3 23 17 24
3 23 22 17
3 22 16 17
3 18 24 17
3 25 24 18
3 19 25 18
3 20 26 21
3 22 26 20
3 27 26 22
3 23 27 22
3 28 29 30
3 28 31 32
3 30 31 28
3 32 33 34
3 31 33 32
3 34 35 36
3 33 35 34
3 35 37 36
3 38 39 40
3 29 38 40
3 28 38 29
3 28 1 38
3 28 2 1
3 3 2 28
3 32 3 28
3 5 3 32
3 34 5 32
3 7 5 34
3 7 34 41
3 41 34 36
3 42 36 37
3 41 36 42
3 43 44 45
3 39 43 45
3 39 38 43
3 38 46 43
3 1 9 46
3 38 1 46
3 41 47 12
3 7 41 12
3 48 41 42
3 47 41 48
3 49 44 43
3 50 44 49
3 15 14 49
3 15 49 46
3 46 49 43
3 9 15 46
3 47 51 52
3 47 52 12
3 12 52 19
3 48 51 47
3 53 50 49
3 54 50 53
3 14 21 53
3 49 14 53
3 55 56 57
3 55 23 24
3 55 24 56
3 56 24 58
3 25 59 24
3 24 59 58
3 52 25 19
3 59 25 52
3 53 60 54
3 21 60 53
3 21 26 60
3 26 61 60
3 57 27 55
3 57 61 27
3 61 26 27
3 23 55 27
3 62 63 64
3 62 65 66
3 64 65 62
3 65 67 66
3 68 69 70
3 68 71 72
3 70 71 68
3 72 73 74
3 71 73 72
3 63 74 73
3 63 62 74
3 62 75 74
3 66 76 62
3 76 75 62
3 77 66 67
3 77 78 66
3 78 76 66
3 77 79 78
3 80 81 82
3 69 80 82
3 69 68 80
3 68 83 80
3 30 29 83
3 30 83 72
3 72 83 68
3 31 30 72
3 74 31 72
3 33 31 74
3 75 33 74
3 35 33 75
3 76 35 75
3 37 35 76
3 37 76 84
3 84 76 78
3 85 78 79
3 84 78 85
3 86 87 88
3 81 86 88
3 81 80 86
3 80 89 86
3 40 39 89
3 40 89 83
3 83 89 80
3 29 40 83
3 84 90 42
3 37 84 42
3 91 84 85
3 90 84 91
3 92 87 86
3 93 87 92
3 45 44 92
3 45 92 89
3 89 92 86
3 39 45 89
3 90 94 95
3 90 95 42
3 42 95 48
3 91 94 90
3 96 97 98
3 93 96 98
3 93 92 96
3 92 99 96
3 44 50 99
3 92 44 99
3 51 100 101
3 52 51 101
3 95 51 48
3 100 51 95
3 96 102 97
3 102 103 104
3 102 96 103
3 96 99 103
3 50 54 103
3 99 50 103
3 105 106 107
3 105 57 56
3 105 56 106
3 106 56 108
3 58 109 56
3 56 109 108
3 59 110 58
3 58 110 109
3 101 59 52
3 110 59 101
3 103 111 104
3 54 111 103
3 54 60 111
3 60 112 111
3 107 61 105
3 107 112 61
3 112 60 61
3 57 105 61
3 113 114 115
3 113 116 117
3 115 116 113
3 117 118 119
3 116 118 117
3 119 120 121
3 118 120 119
3 120 122 121
3 123 124 125
3 123 126 127
3 125 126 123
3 114 127 126
3 114 113 127
3 113 128 127
3 64 63 128
3 64 128 117
3 117 128 113
3 65 64 117
3 119 65 117
3 67 65 119
3 67 119 129
3 129 119 121
3 130 121 122
3 129 121 130
3 131 132 133
3 124 131 133
3 123 131 124
3 123 69 131
3 123 70 69
3 71 70 123
3 127 71 123
3 73 71 127
3 128 73 127
3 63 73 128
3 67 129 77
3 129 79 77
3 129 130 79
3 130 134 79
3 135 136 137
3 132 135 137
3 131 135 132
3 131 81 135
3 131 82 81
3 69 82 131
3 79 134 85
3 134 138 85
3 139 140 141
3 136 139 141
3 135 139 136
3 135 87 139
3 135 88 87
3 81 88 135
3 85 138 91
3 138 142 91
3 143 140 139
3 144 140 143
3 87 93 143
3 139 87 143
3 94 145 146
3 95 94 146
3 142 94 91
3 145 94 142
3 98 144 143
3 98 97 144
3 97 147 144
3 93 98 143
3 148 149 150
3 148 151 152
3 149 148 152
3 151 153 154
3 152 151 154
3 153 101 100
3 153 100 154
3 154 100 155
3 146 100 95
3 155 100 146
3 97 156 147
3 102 156 97
3 104 157 158
3 104 158 102
3 102 158 156
3 157 159 160
3 158 157 160
3 159 107 106
3 159 106 160
3 160 106 161
3 150 108 148
3 150 161 108
3 161 106 108
3 109 148 108
3 151 148 109
3 110 151 109
3 153 151 110
3 101 153 110
3 104 111 157
3 112 157 111
3 159 157 112
3 107 159 112
3 162 163 164
3 162 165 166
3 164 165 162
3 166 167 168
3 165 167 166
3 168 169 170
3 167 169 168
3 169 171 170
3 172 173 174
3 172 175 176
3 174 175 172
3 163 176 175
3 162 176 163
3 162 114 176
3 162 115 114
3 116 115 162
3 166 116 162
3 118 116 166
3 168 118 166
3 120 118 168
3 170 120 168
3 170 122 120
3 170 171 122
3 171 177 122
3 178 179 180
3 173 178 180
3 172 178 173
3 172 124 178
3 172 125 124
3 126 125 172
3 176 126 172
3 114 126 176
3 181 182 130
3 181 130 177
3 177 130 122
3 181 183 182
3 184 185 186
3 179 184 186
3 178 184 179
3 178 132 184
3 178 133 132
3 124 133 178
3 182 187 134
3 130 182 134
3 188 182 183
3 187 182 188
3 137 185 184
3 137 136 185
3 136 189 185
3 132 137 184
3 187 190 191
3 187 191 134
3 134 191 138
3 188 190 187
3 141 192 193
3 140 192 141
3 189 136 141
3 193 189 141
3 138 191 142
3 191 194 142
3 140 144 192
3 192 144 195
3 196 197 198
3 196 199 200
3 197 196 200
3 199 201 202
3 200 199 202
3 201 146 145
3 201 145 202
3 202 145 203
3 194 145 142
3 203 145 194
3 144 147 195
3 195 147 204
3 205 206 207
3 205 208 209
3 206 205 209
3 208 210 211
3 209 208 211
3 210 150 149
3 210 149 211
3 211 149 212
3 198 152 196
3 198 212 152
3 212 149 152
3 154 196 152
3 199 196 154
3 155 199 154
3 201 199 155
3 146 201 155
3 147 213 204
3 156 213 147
3 207 158 205
3 207 213 158
3 213 156 158
3 160 205 158
3 208 205 160
3 161 208 160
3 210 208 161
3 150 210 161
3 214 215 216
3 214 217 218
3 216 217 214
3 218 219 220
3 217 219 218
3 220 221 222
3 219 221 220
3 221 223 222
3 224 225 226
3 215 224 226
3 214 224 215
3 214 163 224
3 214 164 163
3 165 164 214
3 218 165 214
3 167 165 218
3 220 167 218
3 169 167 220
3 222 169 220
3 171 227 228
3 169 227 171
3 169 223 227
3 169 222 223
3 227 229 228
3 230 231 232
3 230 174 173
3 230 232 174
3 232 233 174
3 225 224 175
3 225 175 233
3 233 175 174
3 163 175 224
3 228 234 177
3 171 228 177
3 235 228 229
3 234 228 235
3 180 231 230
3 180 179 231
3 179 236 231
3 173 180 230
3 177 234 181
3 234 183 181
3 234 235 183
3 235 237 183
3 186 238 239
3 185 238 186
3 236 179 186
3 239 236 186
3 183 237 188
3 237 240 188
3 185 189 238
3 238 189 241
3 190 242 243
3 191 190 243
3 240 190 188
3 242 190 240
3 193 244 245
3 192 244 193
3 241 189 193
3 245 241 193
3 246 247 248
3 246 249 250
3 247 246 250
3 249 243 250
3 249 194 243
3 194 191 243
3 251 195 252
3 251 244 195
3 244 192 195
3 252 253 254
3 251 252 254
3 253 255 256
3 254 253 256
3 255 257 258
3 256 255 258
3 257 259 260
3 258 257 260
3 259 198 197
3 259 197 260
3 260 197 261
3 200 262 197
3 197 262 261
3 248 202 246
3 248 262 202
3 262 200 202
3 203 246 202
3 249 246 203
3 194 249 203
3 252 204 263
3 195 204 252
3 206 263 207
3 206 253 263
3 253 252 263
3 209 253 206
3 255 253 209
3 211 255 209
3 257 255 211
3 212 257 211
3 259 257 212
3 198 259 212
3 204 213 263
3 207 263 213
3 264 265 266
3 264 267 268
3 266 267 264
3 268 269 270
3 267 269 268
3 270 271 272
3 269 271 270
3 271 273 272
3 274 275 276
3 265 274 276
3 264 274 265
3 264 215 274
3 264 216 215
3 217 216 264
3 268 217 264
3 219 217 268
3 270 219 268
3 221 219 270
3 272 221 270
3 223 277 278
3 221 277 223
3 221 273 277
3 221 272 273
3 277 279 278
3 280 281 282
3 275 280 282
3 274 280 275
3 274 225 280
3 274 226 225
3 215 226 274
3 223 278 227
3 278 229 227
3 278 279 229
3 279 283 229
3 232 231 284
3 280 285 281
3 280 232 285
3 280 233 232
3 284 285 232
3 225 233 280
3 229 283 235
3 283 286 235
3 284 287 288
3 284 231 287
3 231 236 287
3 285 284 288
3 235 286 237
3 286 289 237
3 239 238 290
3 239 290 291
3 239 291 236
3 236 291 287
3 292 293 294
3 292 289 293
3 292 240 289
3 240 237 289
3 290 241 295
3 238 241 290
3 296 291 290
3 295 296 290
3 297 298 299
3 294 298 297
3 292 294 297
3 292 297 243
3 292 243 242
3 240 292 242
3 245 244 300
3 245 295 241
3 245 300 295
3 300 301 295
3 302 296 295
3 302 295 303
3 303 295 301
3 303 304 305
3 302 303 305
3 304 306 307
3 305 304 307
3 306 308 309
3 307 306 309
3 308 310 311
3 309 308 311
3 310 248 247
3 310 247 311
3 311 247 312
3 299 250 297
3 299 312 250
3 312 247 250
3 243 297 250
3 244 251 300
3 254 300 251
3 301 300 254
3 256 301 254
3 303 301 256
3 258 303 256
3 304 303 258
3 260 304 258
3 306 304 260
3 261 306 260
3 308 306 261
3 262 308 261
3 310 308 262
3 248 310 262
3 313 314 315
3 313 316 317
3 315 316 313
3 316 318 317
3 319 320 321
3 314 319 321
3 314 313 319
3 313 322 319
3 317 323 313
3 323 322 313
3 324 317 318
3 324 325 317
3 325 323 317
3 325 326 327
3 324 326 325
3 326 328 327
3 329 330 331
3 320 329 331
3 319 329 320
3 319 265 329
3 319 266 265
3 267 266 319
3 322 267 319
3 269 267 322
3 323 269 322
3 271 269 323
3 325 271 323
3 273 271 325
3 273 325 332
3 332 325 327
3 333 327 328
3 332 327 333
3 334 335 336
3 330 334 336
3 329 334 330
3 329 275 334
3 329 276 275
3 265 276 329
3 273 332 277
3 332 279 277
3 332 333 279
3 333 337 279
3 338 281 339
3 338 335 281
3 282 281 334
3 334 281 335
3 282 334 275
3 339 340 338
3 279 337 283
3 337 341 283
3 339 342 343
3 339 281 342
3 281 285 342
3 340 339 343
3 283 341 286
3 341 344 286
3 288 287 345
3 288 345 346
3 288 346 285
3 285 346 342
3 347 348 349
3 347 344 348
3 347 289 344
3 289 286 344
3 345 291 350
3 287 291 345
3 351 346 345
3 351 345 352
3 352 345 350
3 352 353 354
3 351 352 354
3 353 355 356
3 354 353 356
3 355 357 358
3 356 355 358
3 357 359 360
3 358 357 360
3 359 361 362
3 360 359 362
3 349 362 361
3 347 349 361
3 347 361 294
3 347 294 293
3 289 347 293
3 350 296 363
3 291 296 350
3 352 350 364
3 364 350 363
3 353 352 365
3 365 352 364
3 355 353 366
3 366 353 365
3 357 355 367
3 367 355 366
3 359 357 368
3 368 357 367
3 298 368 299
3 298 361 368
3 361 359 368
3 294 361 298
3 296 302 363
3 305 363 302
3 364 363 305
3 307 364 305
3 365 364 307
3 309 365 307
3 366 365 309
3 311 366 309
3 367 366 311
3 312 367 311
3 368 367 312
3 299 368 312
3 369 370 371
3 369 372 373
3 371 372 369
3 373 374 375
3 372 374 373
3 374 376 375
3 377 378 379
3 377 380 381
3 379 380 377
3 370 381 380
3 369 381 370
3 369 314 381
3 369 315 314
3 316 315 369
3 373 316 369
3 318 316 373
3 318 373 382
3 382 373 375
3 383 375 376
3 383 384 375
3 384 382 375
3 383 385 384
3 386 387 388
3 378 386 388
3 378 377 386
3 377 389 386
3 321 320 389
3 321 389 381
3 381 389 377
3 314 321 381
3 318 382 324
3 326 324 382
3 384 326 382
3 384 328 326
3 384 385 328
3 385 390 328
3 391 387 386
3 392 387 391
3 331 330 391
3 331 391 389
3 389 391 386
3 320 331 389
3 328 390 333
3 390 393 333
3 394 335 395
3 394 392 335
3 336 335 391
3 391 335 392
3 336 391 330
3 395 396 394
3 333 393 337
3 393 397 337
3 335 338 395
3 340 398 399
3 338 340 399
3 338 399 396
3 338 396 395
3 399 398 400
3 337 397 341
3 397 401 341
3 343 342 402
3 343 398 340
3 343 402 398
3 402 403 398
3 404 400 398
3 403 404 398
3 405 406 407
3 405 401 406
3 405 344 401
3 344 341 401
3 402 346 408
3 342 346 402
3 403 402 409
3 409 402 408
3 410 404 403
3 410 403 411
3 411 403 409
3 411 412 413
3 410 411 413
3 412 414 415
3 413 412 415
3 414 416 417
3 415 414 417
3 407 417 416
3 405 407 416
3 405 416 349
3 405 349 348
3 344 405 348
3 346 351 408
3 354 408 351
3 409 408 354
3 356 409 354
3 411 409 356
3 358 411 356
3 412 411 358
3 360 412 358
3 414 412 360
3 362 414 360
3 416 414 362
3 349 416 362
3 418 419 420
3 418 421 422
3 420 421 418
3 422 423 424
3 421 423 422
3 424 425 426
3 423 425 424
3 425 427 426
3 428 429 430
3 419 428 430
3 419 418 428
3 418 431 428
3 371 370 431
3 371 431 422
3 422 431 418
3 372 371 422
3 424 372 422
3 374 372 424
3 426 374 424
3 376 432 433
3 374 432 376
3 374 427 432
3 374 426 427
3 432 434 433
3 435 436 437
3 429 435 437
3 428 435 429
3 428 378 435
3 428 379 378
3 380 379 428
3 431 380 428
3 370 380 431
3 376 433 383
3 433 385 383
3 433 434 385
3 434 438 385
3 388 436 435
3 388 387 436
3 387 439 436
3 378 388 435
3 385 438 390
3 438 440 390
3 441 392 442
3 441 439 392
3 439 387 392
3 442 443 444
3 441 442 444
3 444 443 445
3 390 440 393
3 440 446 393
3 392 394 442
3 396 442 394
3 396 447 442
3 447 443 442
3 448 445 443
3 447 448 443
3 449 450 451
3 449 446 450
3 449 397 446
3 397 393 446
3 396 399 447
3 400 452 453
3 399 400 453
3 399 453 448
3 399 448 447
3 452 454 455
3 453 452 455
3 455 454 456
3 457 458 459
3 451 458 457
3 451 457 449
3 449 457 460
3 397 460 401
3 449 460 397
3 452 404 461
3 400 404 452
3 454 452 462
3 462 452 461
3 463 456 454
3 463 454 464
3 464 454 462
3 459 463 464
3 459 464 457
3 457 464 465
3 406 465 407
3 406 460 465
3 460 457 465
3 401 460 406
3 404 410 461
3 413 461 410
3 462 461 413
3 415 462 413
3 464 462 415
3 417 464 415
3 465 464 417
3 407 465 417
3 466 467 468
3 466 469 470
3 468 469 466
3 470 471 472
3 469 471 470
3 472 473 474
3 471 473 472
3 473 475 474
3 476 477 478
3 476 479 480
3 478 479 476
3 467 480 479
3 466 480 467
3 466 419 480
3 466 420 419
3 421 420 466
3 470 421 466
3 423 421 470
3 472 423 470
3 425 423 472
3 474 425 472
3 474 427 425
3 474 475 427
3 475 481 427
3 482 483 484
3 477 482 484
3 477 476 482
3 476 485 482
3 430 429 485
3 430 485 480
3 480 485 476
3 419 430 480
3 427 481 486
3 432 427 486
3 486 434 432
3 487 434 486
3 482 488 483
3 437 436 489
3 437 489 482
3 437 482 485
3 482 489 488
3 429 437 485
3 490 491 492
3 490 487 491
3 490 438 487
3 438 434 487
3 493 439 494
3 493 489 439
3 489 436 439
3 494 495 496
3 493 494 496
3 495 497 498
3 496 495 498
3 498 497 499
3 500 490 492
3 501 500 492
3 438 500 440
3 490 500 438
3 439 441 494
3 444 494 441
3 495 494 444
3 445 495 444
3 445 502 495
3 502 497 495
3 503 499 497
3 503 497 504
3 504 497 502
3 504 505 506
3 503 504 506
3 505 507 508
3 506 505 508
3 501 508 507
3 501 507 500
3 500 507 509
3 440 509 446
3 500 509 440
3 502 448 510
3 445 448 502
3 504 502 511
3 511 502 510
3 505 504 512
3 512 504 511
3 507 505 513
3 513 505 512
3 450 513 451
3 450 509 513
3 509 507 513
3 446 509 450
3 448 453 510
3 455 510 453
3 511 510 455
3 456 511 455
3 456 514 511
3 514 512 511
3 458 514 459
3 458 513 514
3 513 512 514
3 451 513 458
3 456 463 514
3 459 514 463
3 515 516 517
3 515 518 519
3 517 518 515
3 519 520 521
3 518 520 519
3 521 522 523
3 520 522 521
3 522 524 523
3 525 526 527
3 516 525 527
3 516 515 525
3 515 528 525
3 468 467 528
3 468 528 519
3 519 528 515
3 469 468 519
3 521 469 519
3 471 469 521
3 523 471 521
3 523 524 529
3 523 529 471
3 471 529 473
3 529 475 473
3 530 475 529
3 531 532 533
3 526 531 533
3 525 531 526
3 525 477 531
3 525 478 477
3 479 478 525
3 528 479 525
3 467 479 528
3 475 530 481
3 530 534 481
3 484 532 531
3 484 483 532
3 483 535 532
3 477 484 531
3 536 486 481
3 536 481 537
3 537 481 534
3 486 536 487
3 483 538 535
3 488 538 483
3 489 539 540
3 489 540 488
3 488 540 538
3 539 541 542
3 540 539 542
3 541 543 544
3 542 541 544
3 543 545 546
3 544 543 546
3 545 547 548
3 546 545 548
3 547 549 550
3 548 547 550
3 537 550 549
3 536 537 549
3 536 549 492
3 536 492 491
3 487 536 491
3 489 493 539
3 496 539 493
3 541 539 496
3 498 541 496
3 543 541 498
3 499 543 498
3 499 551 543
3 551 545 543
3 547 545 552
3 552 545 551
3 549 547 553
3 553 547 552
3 492 553 501
3 549 553 492
3 499 503 551
3 506 551 503
3 552 551 506
3 508 552 506
3 553 552 508
3 501 553 508
3 554 555 556
3 554 557 558
3 556 557 554
3 558 559 560
3 557 559 558
3 559 561 560
3 562 563 564
3 555 562 564
3 554 562 555
3 554 516 562
3 554 517 516
3 518 517 554
3 558 518 554
3 520 518 558
3 560 520 558
3 560 561 565
3 560 565 520
3 520 565 522
3 565 524 522
3 566 524 565
3 567 568 569
3 567 570 571
3 569 570 567
3 563 571 570
3 562 571 563
3 562 526 571
3 562 527 526
3 516 527 562
3 572 529 524
3 572 524 573
3 573 524 566
3 529 572 530
3 567 574 568
3 571 532 567
3 571 533 532
3 567 532 574
3 575 576 532
3 574 532 576
3 575 577 578
3 575 578 576
3 571 526 533
3 578 577 579
3 580 572 573
3 581 580 573
3 530 580 534
3 572 580 530
3 575 535 582
3 532 535 575
3 577 575 583
3 583 575 582
3 584 579 577
3 584 577 585
3 585 577 583
3 585 586 587
3 584 585 587
3 586 588 589
3 587 586 589
3 588 590 591
3 589 588 591
3 581 591 590
3 581 590 580
3 580 590 592
3 534 592 537
3 580 592 534
3 535 538 582
3 540 582 538
3 583 582 540
3 542 583 540
3 585 583 542
3 544 585 542
3 586 585 544
3 546 586 544
3 588 586 546
3 548 588 546
3 590 588 548
3 550 590 548
3 592 590 550
3 537 592 550
3 593 594 595
3 593 596 597
3 595 596 593
3 596 598 597
3 599 600 601
3 594 599 601
3 593 599 594
3 593 555 599
3 593 556 555
3 557 556 593
3 597 557 593
3 597 598 602
3 597 602 557
3 557 602 559
3 602 561 559
3 603 561 602
3 604 605 606
3 604 607 608
3 606 607 604
3 600 608 607
3 599 608 600
3 599 563 608
3 599 564 563
3 555 564 599
3 609 565 561
3 609 561 610
3 610 561 603
3 565 609 566
3 611 568 612
3 611 605 568
3 569 568 604
3 604 568 605
3 613 614 611
3 613 611 612
3 608 570 604
3 604 570 569
3 570 608 563
3 613 615 614
3 616 617 618
3 610 617 616
3 610 616 609
3 609 616 619
3 566 619 573
3 609 619 566
3 568 574 612
3 576 612 574
3 613 612 576
3 613 620 615
3 613 576 620
3 576 578 620
3 579 621 622
3 579 622 578
3 578 622 620
3 621 623 624
3 622 621 624
3 618 624 623
3 618 623 616
3 616 623 625
3 619 616 626
3 626 616 625
3 573 626 581
3 619 626 573
3 579 584 621
3 587 621 584
3 623 621 587
3 589 623 587
3 625 623 589
3 591 625 589
3 626 625 591
3 581 626 591
3 627 628 629
3 627 595 594
3 627 629 595
3 629 630 595
3 596 595 631
3 595 630 631
3 631 598 596
3 632 598 631
3 633 634 635
3 633 636 637
3 635 636 633
3 628 637 636
3 627 637 628
3 627 600 637
3 627 601 600
3 594 601 627
3 598 632 638
3 602 598 638
3 638 603 602
3 639 603 638
3 640 641 642
3 634 640 642
3 633 640 634
3 633 605 640
3 633 606 605
3 607 606 633
3 637 607 633
3 600 607 637
3 643 644 645
3 643 639 644
3 643 610 639
3 610 603 639
3 640 646 641
3 605 646 640
3 605 611 646
3 611 647 646
3 614 648 611
3 611 648 647
3 615 649 650
3 615 650 614
3 614 650 648
3 649 651 652
3 650 649 652
3 651 653 654
3 652 651 654
3 645 654 653
3 643 645 653
3 643 653 618
3 643 618 617
3 610 643 617
3 615 620 649
3 622 649 620
3 651 649 622
3 624 651 622
3 653 651 624
3 618 653 624
3 655 656 657
3 655 658 659
3 657 658 655
3 659 629 628
3 659 658 629
3 658 660 629
3 630 629 661
3 629 660 661
3 631 630 662
3 630 661 662
3 662 632 631
3 663 632 662
3 664 665 666
3 664 667 668
3 666 667 664
3 656 668 667
3 655 668 656
3 655 634 668
3 655 635 634
3 636 635 655
3 659 636 655
3 628 636 659
3 669 638 632
3 669 632 670
3 670 632 663
3 638 669 639
3 664 671 665
3 668 641 664
3 668 642 641
3 664 641 671
3 672 673 641
3 671 641 673
3 672 674 675
3 672 675 673
3 668 634 642
3 674 676 677
3 675 674 677
3 676 678 679
3 677 676 679
3 678 680 681
3 679 678 681
3 680 682 683
3 681 680 683
3 670 683 682
3 669 670 682
3 669 682 645
3 669 645 644
3 639 669 644
3 641 646 672
3 647 672 646
3 674 672 647
3 648 674 647
3 676 674 648
3 650 676 648
3 678 676 650
3 652 678 650
3 680 678 652
3 654 680 652
3 682 680 654
3 645 682 654
3 684 685 686
3 684 687 688
3 686 687 684
3 688 657 656
3 688 687 657
3 687 689 657
3 658 657 690
3 657 689 690
3 660 658 691
3 658 690 691
3 661 660 692
3 660 691 692
3 693 692 694
3 693 662 692
3 662 661 692
3 662 693 663
3 695 696 697
3 685 695 697
3 684 695 685
3 684 665 695
3 684 666 665
3 667 666 684
3 688 667 684
3 656 667 688
3 698 699 700
3 694 699 698
3 694 698 693
3 693 698 701
3 663 701 670
3 693 701 663
3 695 702 696
3 665 702 695
3 665 671 702
3 671 703 702
3 673 704 671
3 671 704 703
3 675 705 673
3 673 705 704
3 677 706 675
3 675 706 705
3 679 707 677
3 677 707 706
3 700 681 698
3 700 707 681
3 707 679 681
3 683 698 681
3 701 698 683
3 670 701 683
3 686 708 709
3 685 708 686
3 687 686 710
3 686 709 710
3 689 687 711
3 687 710 711
3 690 689 712
3 689 711 712
3 713 712 714
3 713 691 712
3 691 690 712
3 691 715 692
3 713 715 691
3 692 715 694
3 697 696 716
3 697 716 717
3 697 717 685
3 685 717 708
3 718 713 714
3 719 718 714
3 699 718 700
3 699 715 718
3 715 713 718
3 694 715 699
3 696 702 716
3 716 720 717
3 716 702 720
3 702 703 720
3 704 721 703
3 703 721 720
3 705 722 704
3 704 722 721
3 706 723 705
3 705 723 722
3 719 707 718
3 719 723 707
3 723 706 707
3 700 718 707
3 709 708 724
3 709 725 710
3 724 725 709
3 710 726 711
3 725 726 710
3 711 727 712
3 726 727 711
3 712 727 714
3 724 717 728
3 708 717 724
3 725 724 729
3 729 724 728
3 726 725 730
3 730 725 729
3 727 726 731
3 731 726 730
3 714 731 719
3 727 731 714
3 717 720 728
3 721 728 720
3 729 728 721
3 722 729 721
3 730 729 722
3 723 730 722
3 731 730 723
3 719 731 723
