# vtk DataFile Version 3.0
this file was written using fslvtkio
ASCII
DATASET POLYDATA
POINTS 1068 float
89.2195 132.064 93.4746
88.6304 132.101 94.0402
89.2954 131.222 94.051
89.5263 131.122 93.7951
89.8778 131.785 93.2755
90.0343 130.995 93.8118
90.6336 131.548 93.3165
90.6318 130.8 93.8461
91.2701 131.271 93.518
91.2358 130.644 94.1309
89.389 132.512 94.1502
88.6198 132.247 94.6583
89.7815 132.647 93.73
90.4782 132.358 93.4601
91.2711 131.928 93.3668
91.6282 131.307 93.7442
89.258 132.519 94.7327
88.788 132.426 95.0953
89.8377 132.861 94.3881
90.3298 132.676 94.0549
91.1626 132.631 93.6896
91.9666 132.123 93.719
89.5782 132.79 95.0633
90.2521 133.132 94.603
90.8421 132.767 94.2376
91.6561 132.573 94.0902
89.8807 128.855 92.9744
89.2561 128.239 93.2776
89.2068 127.786 92.5898
89.9522 127.878 92.6242
90.41 128.631 93.1542
90.5181 127.782 93.0807
89.4897 129.119 93.2965
89.3229 129.362 93.7728
89.3757 128.541 93.7307
90.2237 129.285 93.9374
90.3792 128.952 94.0943
90.7459 128.452 93.7596
89.6363 130.067 93.7429
89.1918 129.727 94.093
90.1206 129.701 94.157
90.6087 129.772 94.505
90.7171 129.254 94.5056
89.1568 130.569 94.1687
88.687 131.219 94.5003
89.0563 130.464 94.7906
89.2459 130.027 94.6353
89.453 130.426 94.1156
90.0541 130.399 94.1828
90.4689 130.244 94.3218
90.9473 130.255 94.5715
91.0296 129.839 94.7592
88.4741 131.477 94.7788
91.6892 130.81 94.3307
88.2623 131.834 95.1768
92.1489 131.309 94.1014
88.5662 131.974 95.6879
92.0158 132.126 94.2343
89.3565 132.712 95.4959
89.1211 132.277 95.8815
90.0249 133.162 95.3291
90.6873 133.286 95.0449
91.1387 133.122 94.7763
91.5377 132.713 94.5571
89.6974 132.869 95.8349
90.2765 133.265 95.5968
90.894 133.213 95.3596
90.9296 125.741 92.2706
90.2742 125.635 92.5312
90.763 124.928 93.1071
91.3204 124.588 92.9543
91.6396 125.582 92.8722
91.7496 124.748 93.1748
91.6524 125.509 93.5281
91.9787 124.807 93.5992
90.1548 126.478 92.3468
89.4396 126.814 92.7548
89.9846 126.082 92.9883
90.9759 126.773 92.319
91.5351 126.535 92.7721
91.9187 126.285 93.3453
91.7674 125.562 93.804
89.4563 127.244 92.4342
88.9037 127.464 92.8938
90.2396 127.248 92.5136
90.9351 127.29 92.9506
91.5791 127.168 93.3997
91.7157 126.524 94.0053
89.0729 127.765 93.5864
90.8062 127.804 93.5247
91.2816 127.766 93.8637
91.7577 127.25 94.0787
89.3445 128.772 94.1899
89.6133 128.032 94.2309
90.9948 128.773 94.2551
91.126 128.361 94.4274
91.7096 127.866 94.5143
89.4319 129.354 94.588
89.3247 129.578 95.0472
89.3071 128.855 94.7735
91.2195 129.452 94.7612
91.299 128.891 94.9362
91.6424 128.388 94.773
88.7296 130.73 95.119
89.1824 130.009 95.2685
91.4134 130.181 94.6949
91.4597 129.878 95.048
91.634 129.402 95.1385
88.3636 131.016 95.4782
92.0538 130.693 94.714
91.7865 130.14 95.0437
91.4145 129.787 95.3827
88.4958 131.244 95.852
92.4925 131.47 94.5089
92.5943 130.776 94.8029
88.927 131.701 96.1941
91.9769 132.23 94.6061
92.3943 131.772 94.7981
89.4488 131.998 96.4148
91.8579 132.655 95.2247
91.4699 133.037 95.2561
92.1378 132.265 95.0986
89.6921 132.437 96.2759
90.1729 132.762 96.1151
90.8614 133.044 95.8648
90.4475 125.342 93.3742
90.6139 124.342 93.6356
91.1168 123.836 93.4845
91.7173 123.887 93.4543
92.1452 124.157 94.0203
89.7748 126.855 93.339
90.2807 126.086 93.5553
92.1743 125.133 94.2114
89.6659 127.267 93.6846
92.1833 125.873 94.2707
92.1229 126.513 94.3683
92.588 125.909 94.7856
89.5098 127.295 94.1667
92.0096 127.202 94.5609
92.6231 126.558 94.8234
89.4022 128.341 94.6155
89.7414 127.936 94.758
92.1941 127.342 94.8692
92.4919 126.958 95.2528
89.1379 129.073 95.3001
89.3067 128.427 95.2141
91.9 128.761 95.2259
91.9189 128.085 95.1418
92.4545 127.604 95.1928
88.8053 130.189 95.6165
89.0448 129.389 95.6799
92.0034 129.03 95.5373
92.2828 128.56 95.7335
88.872 130.417 96.0329
91.9343 130.113 95.3969
91.9956 129.636 95.6096
92.1809 129.288 95.7444
88.5463 131.045 96.2209
92.7542 130.931 95.2333
92.4261 130.281 95.8012
88.7884 131.542 96.5593
92.8278 131.146 95.6541
92.4957 131.742 95.1976
89.1882 131.8 96.845
91.4454 132.95 95.5596
91.81 132.597 95.6629
92.2209 132.155 95.6611
89.6509 132.147 96.7992
90.0485 132.469 96.523
90.7722 132.815 96.2769
91.2942 132.823 96.0104
90.5923 124.796 94.0565
90.7167 124.016 94.2933
91.0493 123.438 94.0235
91.8303 123.403 94.075
91.8515 124.34 94.5865
90.2689 126.417 94.0383
90.7115 125.755 94.0429
90.6587 125.164 94.4824
92.1176 125.068 94.7798
92.3416 125.525 94.6148
92.2663 125.532 95.1639
90.0288 126.803 94.1286
90.4652 126.476 94.7249
92.6261 125.876 95.3327
90.0486 127.266 94.8126
92.7374 126.341 95.5779
89.6277 127.876 95.4247
89.9915 127.62 95.2151
92.7734 126.841 95.7751
89.1395 128.477 95.8457
89.402 128.072 95.7608
92.4258 127.942 95.5786
92.8027 127.393 95.6724
89.3331 129.555 96.1777
89.2275 128.951 96.1569
92.4842 128.325 95.8786
92.6755 127.838 95.9621
89.1287 130.069 96.4384
88.6764 129.974 96.921
89.2781 129.554 96.7244
92.6157 129.804 95.9428
92.6988 129.09 96.1039
92.5673 128.63 96.1835
88.6787 130.628 96.5309
88.4045 130.408 97.0856
92.6719 130.05 96.1482
92.8274 129.763 96.2659
88.3982 131.198 96.8338
88.3494 130.781 97.3014
92.5603 131.797 95.7336
92.8303 130.963 96.0993
92.4633 130.351 96.4379
88.7062 131.424 97.1079
88.5696 131.114 97.5268
91.9573 131.928 96.2532
91.8434 132.549 96.156
92.6169 131.773 96.1704
89.2322 131.879 97.2533
89.8201 132.269 97.2395
90.2736 132.463 97.0168
91.0419 132.767 96.899
91.4129 132.7 96.5448
91.144 123.186 94.6656
90.5622 123.635 94.9234
90.655 123.105 95.4778
91.1562 123.364 95.4346
91.8396 123.559 94.8294
91.3572 124.145 95.4651
90.6501 124.54 94.8178
91.6375 124.648 95.434
90.7409 125.98 94.7971
90.6901 125.108 95.1444
91.9996 125.003 95.3156
92.2686 125.4 95.6987
90.2504 126.799 94.9273
90.0659 126.172 95.4027
92.6398 125.646 96.0049
89.756 127.457 95.5806
89.8039 127.158 96.0445
90.0292 126.921 95.4797
92.6799 126.317 96.1954
89.7669 128.047 96.2583
89.6359 127.766 96.7502
89.8284 127.326 96.5648
92.867 126.95 96.2711
89.425 128.535 96.4649
89.2857 128.604 96.9982
89.3234 127.958 96.9914
92.8351 127.423 96.3742
89.2331 129.028 96.6359
88.8113 129.276 97.1442
88.7938 128.693 97.2505
92.7464 128.083 96.3994
88.6068 129.656 97.4695
92.5706 128.711 96.5843
92.8619 129.25 96.4219
88.2294 130 97.695
92.6387 129.798 96.6217
88.2546 130.476 97.9205
92.4323 130.303 96.8465
92.803 131.143 96.4698
88.7188 130.932 98.0089
91.8553 131.62 96.7591
91.5134 132.194 96.4959
92.4088 131.491 96.6395
88.934 131.769 97.7036
89.6722 131.939 97.579
90.2451 132.323 97.4653
90.8892 132.429 97.3891
91.2394 132.408 96.9923
90.502 123.635 95.4111
90.3996 124.393 95.9725
90.3104 123.425 96.069
90.6754 123.009 96.1569
90.9119 123.738 96.2247
91.1998 124.09 96.3321
90.4988 124.467 95.4156
90.5338 125.35 95.6311
91.535 124.53 96.2656
90.5153 125.834 95.5277
91.9609 124.939 95.9239
92.0976 125.282 96.3062
90.113 126.641 95.7549
90.0741 126.392 96.6852
90.1405 126.063 96.2118
90.347 125.787 96.1202
92.4269 125.696 96.5536
89.9755 126.846 96.4387
89.5602 126.943 96.9989
89.8588 126.513 97.2432
92.6049 126.354 96.6848
88.9178 127.054 97.1037
92.6586 126.924 96.764
89.0006 128.245 97.4865
88.8634 127.411 97.3737
92.7255 127.642 96.8269
88.5158 128.945 97.6103
88.6168 128.407 97.8402
92.4332 128.244 96.779
88.5133 129.167 97.9507
92.3471 128.805 97.0438
92.9889 129.421 96.909
88.2956 129.662 98.212
92.4671 129.718 97.0543
88.4861 130.168 98.4895
92.3495 130.204 97.2488
92.4685 130.904 96.8898
88.751 130.84 98.4633
91.2037 131.87 96.7868
91.7605 131.535 97.2449
92.143 131.308 97.2067
89.0098 131.575 98.1488
89.6609 131.794 98.0807
90.2479 132.049 98.037
90.8037 132.171 97.8959
91.0544 132.066 97.6453
91.2317 131.838 97.3475
90.2299 122.855 96.5052
90.3503 123.753 96.6519
90.0156 122.8 96.9434
90.4454 122.172 97.1786
90.6954 122.95 96.6664
90.438 123.033 97.2637
90.9049 123.543 96.7197
90.7515 123.527 97.1885
90.5923 124.705 96.3844
91.1657 123.885 97.0751
90.5237 125.113 96.2061
91.4923 124.185 96.975
90.6402 125.511 96.2887
90.1883 125.372 96.8934
90.3115 125.127 96.617
91.8269 124.727 96.5652
92.1249 125.149 96.8749
89.6846 125.88 97.1469
89.8376 125.601 96.7497
92.2387 125.758 97.0149
89.4657 126.437 97.7375
89.4878 125.905 97.6192
92.4273 126.388 97.1566
89.0234 126.646 97.802
92.557 127.1 97.2383
88.8752 127.666 97.8988
88.8129 127.135 97.7826
92.5108 127.726 97.2458
88.4794 128.496 98.2342
88.6174 127.968 98.2142
92.3614 128.298 97.1934
88.2632 128.847 98.5334
92.4049 128.627 97.4989
92.7034 129.35 97.3727
88.4736 129.469 98.7178
92.1832 129.543 97.3804
88.66 130.157 98.8583
91.8811 129.93 97.4308
92.1154 130.663 97.2187
89.0575 130.654 98.739
92.0776 130.921 97.7678
91.7809 131.372 97.6674
89.2761 131.263 98.4195
89.7018 131.63 98.4756
90.2295 131.95 98.4922
90.7641 131.951 98.3495
91.0868 131.685 98.1186
91.3339 131.512 97.8363
89.7591 122.015 97.1293
90.0321 122.932 97.3748
89.4118 121.825 97.5878
89.7072 121.488 97.4958
90.2958 122.024 97.5333
89.8742 122.131 97.9978
90.3643 123.745 97.0507
90.298 122.962 97.7748
90.6972 123.343 97.8532
90.2023 124.27 97.0056
90.0497 123.887 97.7092
90.0835 123.619 97.3553
91.3199 123.563 97.9576
90.1063 124.759 96.9558
89.6917 124.551 97.4314
91.4728 124.137 97.6624
89.8358 125.274 97.3759
89.2744 124.844 97.7999
89.5285 124.638 97.6707
91.8246 124.57 97.1342
91.9985 125.14 97.4262
89.2687 125.393 97.504
88.9582 125.524 98.0049
88.7521 124.941 97.9436
92.1196 125.875 97.4935
88.9411 126.034 98.2373
92.4183 126.488 97.6103
88.666 126.88 98.0302
88.3694 126.895 98.4623
88.5933 126.474 98.416
92.5983 127.097 97.716
88.6536 127.387 98.3109
88.4065 127.789 98.7378
88.4121 127.163 98.8683
92.628 127.603 97.6844
92.4915 127.438 98.1699
92.5044 128.047 97.9335
88.3028 128.179 98.9466
92.2739 128.11 97.512
92.1963 128.682 97.778
88.434 128.798 99.0603
92.3093 129.179 97.8641
88.65 129.529 99.1591
91.8229 129.438 97.7506
88.7815 130.176 99.2486
91.6941 129.793 97.707
91.8704 130.292 97.6304
89.1048 130.643 99.0188
89.4335 130.997 98.8048
89.6379 130.843 99.0083
91.5897 130.499 97.8331
91.5079 131.046 97.9585
89.6667 131.51 98.8595
90.2492 131.583 98.9052
90.7696 131.683 98.7829
91.1197 131.422 98.5509
91.2586 131.135 98.2835
89.7199 122.514 97.8447
89.4871 122.591 98.2126
89.3622 122.003 98.2336
89.1391 121.251 97.8545
89.5684 121.249 97.8913
89.9415 121.488 98.412
90.1063 123.305 97.7342
89.5764 122.996 98.3239
90.1706 122.646 98.183
90.8619 123.035 98.4647
89.6093 123.574 98.1707
88.9201 123.505 98.4238
89.286 123.025 98.4145
91.1915 123.436 98.5382
89.4356 124.181 97.9831
88.889 123.948 98.4918
91.39 124.042 98.1198
91.5856 124.678 97.626
91.5926 124.756 97.9636
88.9018 124.482 98.1754
88.4238 124.744 98.42
88.3601 124.197 98.6309
91.797 125.388 97.8333
88.6134 125.434 98.6214
92.1047 125.999 97.9341
88.6085 125.903 98.7605
92.2194 126.498 98.0436
88.1439 126.443 98.8803
88.5258 126.152 98.9808
92.2846 127.013 98.1997
88.2362 127.53 99.2313
88.0354 126.846 99.1455
92.0385 127.405 98.4572
92.0749 128.118 98.2013
88.2436 128.201 99.3956
92.0627 128.604 98.2948
88.5503 128.956 99.4607
92.102 129.143 98.3837
88.9621 129.502 99.4945
91.7218 129.691 97.9337
91.816 129.278 98.3738
91.5735 129.522 98.3781
89.1159 129.959 99.4489
89.205 130.636 99.3755
89.503 130.569 99.5504
91.5465 130.086 97.9749
91.3576 129.803 98.465
91.324 130.254 98.3813
89.9897 130.746 99.3693
91.3194 130.836 98.541
91.206 130.649 98.8246
91.2005 131.098 98.917
91.3928 130.469 98.0741
91.1692 130.29 98.6569
89.9678 131.211 99.1081
90.4359 131.373 99.2411
90.9816 131.379 99.036
89.1125 120.437 97.6982
88.5152 120.882 97.9766
88.1536 120.157 97.6929
89.1312 120.093 97.9812
89.5434 120.753 98.0987
89.5567 120.647 98.5787
88.9444 122.101 98.6243
88.8195 121.498 98.4247
90.0124 121.278 98.8632
88.9252 122.773 98.5968
88.3951 122.407 99.01
88.7018 122.103 98.8066
90.3579 122.217 98.5581
90.7213 122.768 98.8534
88.4538 123.018 98.8002
87.7366 123.121 99.2459
87.9639 122.572 99.3853
91.1192 123.337 99.0297
88.2268 123.558 98.8698
87.8461 123.919 99.0341
91.4755 124.096 98.5605
91.8325 124.747 98.4578
88.067 124.579 98.8895
91.8881 125.429 98.3789
88.0575 125.182 99.0198
87.7899 125.268 99.7262
87.7738 124.748 99.4822
91.9518 125.895 98.4905
88.129 125.715 99.1457
87.9433 125.745 99.7372
91.8444 126.432 98.5437
87.8448 126.235 99.2911
87.9006 127.043 99.5569
87.7794 126.288 99.7526
92.0643 126.964 98.6458
88.196 127.641 99.7206
91.9335 127.286 98.8552
91.7656 127.905 98.5478
88.4337 128.375 99.8239
92.0164 128.418 98.7798
88.7691 128.972 99.809
91.8929 128.971 98.6915
92.1551 128.6 99.1707
91.8428 129.085 99.1266
89.2765 129.338 99.7299
90.929 129.672 99.098
90.9801 129.325 99.7615
90.8085 129.788 99.4256
91.2197 129.328 99.0234
91.158 129.293 99.5177
91.5452 129.321 98.7503
91.5312 129.023 99.4141
89.5578 129.956 99.561
89.8278 130.291 99.7982
91.1048 130.315 99.1201
90.8314 130.253 99.4747
91.0417 129.724 98.6965
90.118 130.497 99.7619
90.3798 130.96 99.5399
90.9797 131.186 99.6294
90.4521 130.572 99.6793
91.1135 130.865 99.3805
90.6573 130.547 99.574
87.8469 119.896 98.5555
87.5889 120.143 98.9946
87.5087 119.124 98.8983
87.9793 119.211 98.6064
88.219 119.771 98.1108
88.5503 119.458 98.5359
89.1009 120.01 98.4085
89.0941 119.971 98.8147
88.2498 120.943 98.5564
87.9721 120.909 99.1113
89.5502 120.431 99.0819
88.4871 121.617 98.984
87.6121 121.578 99.2699
87.7002 121.087 99.4547
90.0668 121.042 99.3746
87.8488 122.019 99.2166
87.2195 122.341 99.7014
87.321 121.779 99.5126
90.3422 121.955 99.0384
90.7966 122.536 99.293
87.2587 122.957 99.4941
91.0923 123.241 99.4239
87.3941 123.62 99.4517
86.9591 123.992 99.9844
86.8111 123.248 99.926
91.3704 124.053 98.9795
91.2738 123.898 99.47
87.5246 124.166 99.5224
87.1871 124.766 100.077
91.4716 124.705 98.9439
91.6069 125.298 98.8437
87.3802 125.43 100.262
91.5634 125.814 98.9631
87.586 126.069 100.033
87.6459 126.646 100.024
87.5027 125.905 100.412
91.5001 126.472 98.8202
87.8535 127.213 100.043
91.8549 126.924 98.9776
91.6094 126.679 99.2215
91.8281 127.357 99.1537
88.4715 127.719 100.044
91.7946 127.815 99.1002
88.6324 128.38 100.13
91.8996 128.207 99.1385
88.9831 128.784 100.221
89.2264 129.175 100.094
89.4929 129.042 100.511
91.9772 128.72 99.5088
91.8254 128.256 99.6128
91.7437 128.484 99.7978
91.8611 128.01 99.442
89.5108 129.439 99.9083
89.7165 129.379 100.253
91.0916 129.032 100.056
90.7683 129.511 99.7447
91.5047 128.878 99.9609
90.1169 130.049 99.7433
89.8444 129.635 99.9077
90.328 129.961 99.684
90.1899 129.514 99.818
90.6685 129.889 99.6701
90.5647 129.463 99.8307
87.3807 119.448 100.072
86.7411 119.278 100.256
86.9861 118.58 100.163
87.1221 118.808 99.5273
87.4899 119.637 99.4681
87.3059 118.278 98.5699
88.1218 118.27 98.6805
88.416 119.294 98.9536
88.9899 119.76 99.2912
87.3083 120.474 99.9866
87.0247 120.318 100.291
87.3737 120.535 99.507
89.5581 120.19 99.5593
87.2922 121.509 99.892
86.8798 121.061 100.337
90.1217 120.671 99.8766
86.8021 122.062 100.027
86.3201 122.313 100.585
86.6154 121.486 100.474
90.4099 121.827 99.4973
90.3808 121.493 99.9115
86.7256 122.642 100.079
86.4299 123.182 100.448
90.7788 122.278 99.7103
91.0437 122.951 99.7845
86.6449 124.24 100.46
91.0457 123.834 99.856
87.0676 124.911 100.635
91.4264 124.626 99.3485
91.2635 124.448 99.7879
87.2679 125.53 100.869
91.4554 125.204 99.3608
91.2525 125.09 99.8272
87.8921 126.647 100.384
87.7464 126.121 100.767
91.3109 125.665 99.5273
91.2259 125.508 99.948
91.2784 126.045 99.8055
91.5309 125.953 99.2846
88.167 127.279 100.463
91.424 126.614 99.5154
91.1409 126.395 99.7857
88.3853 127.817 100.503
91.6578 127.256 99.5462
91.4136 127.079 99.8815
88.8775 128.082 100.329
91.5976 127.664 99.681
91.4953 127.408 100.019
91.5726 127.671 100.22
91.7436 127.822 99.3533
89.1317 128.518 100.439
90.1158 129.088 100.631
89.5823 128.567 100.563
90.0933 128.591 100.674
91.6605 128.162 100.05
91.3323 127.978 100.38
91.3071 128.482 100.162
90.2119 129.267 100.281
90.4973 128.781 100.655
90.6755 129.127 100.36
90.9065 129.131 100.104
90.8907 128.658 100.577
91.1307 128.618 100.354
86.9832 117.085 99.2369
86.5559 117.299 99.7759
86.6239 116.552 99.6569
87.072 116.257 99.1678
87.6554 117.088 99.1502
87.7594 116.596 99.4547
88.1157 117.554 99.4553
88.1375 117.236 99.8354
86.8559 117.945 99.9042
86.3575 118.212 100.545
86.2329 117.565 100.362
86.7991 117.89 98.9731
87.5208 117.527 98.7894
88.2555 117.919 99.0843
88.3976 118.212 99.5712
86.5602 119.298 100.62
88.5164 118.898 99.2625
89.2602 119.288 99.7497
86.6121 120.149 100.647
89.8223 119.872 100.052
86.7205 120.896 100.69
86.5053 121.503 101.028
86.4905 120.664 101.042
90.1188 120.976 100.223
86.3502 122.534 101.031
90.4265 121.666 100.344
86.3713 123.547 100.954
90.772 122.332 100.018
90.8675 123.209 100.142
86.6225 124.3 101.074
90.8732 123.914 100.113
87.1906 124.864 101.124
91.1699 124.521 100.201
87.5098 125.299 101.271
91.2295 125.121 100.18
88.1634 126.681 100.793
87.882 125.857 101.047
91.1027 125.253 100.249
91.131 125.611 100.324
88.4272 127.275 100.881
88.4837 126.602 101.019
91.0272 126.349 100.173
88.8215 127.66 100.732
88.8872 127.318 101.189
91.3683 126.968 100.315
91.0553 126.544 100.505
91.146 127.033 100.704
89.1525 127.983 100.59
89.2326 127.699 101.012
90.9662 127.629 100.748
90.672 127.306 101.068
90.5708 127.875 100.905
91.2377 127.492 100.48
90.9336 127.12 100.889
89.4565 128.286 100.692
90.4127 128.366 100.752
89.9292 128.285 100.785
90.9751 128.271 100.845
90.1815 128.022 100.863
91.1152 128.007 100.551
84.2497 109.784 100.55
84.0069 110.037 100.543
83.5903 109.441 100.573
84.0584 109.33 100.698
84.5969 109.824 100.703
84.4028 109.552 101.002
84.7385 110.606 100.274
84.7562 111.203 100.429
84.8847 110.476 100.533
84.9674 110.253 101.004
85.1951 111.265 100.588
85.4361 111.004 100.871
86.1422 116.042 100.234
85.5504 116.737 100.779
85.6701 115.96 100.571
86.5271 115.409 99.9178
86.6363 115.891 99.6793
87.4161 115.052 99.5538
87.5137 115.782 99.8118
87.8815 115.775 100.561
86.0775 116.854 100.177
85.7254 117.365 100.814
87.9958 116.309 99.9591
88.4965 117.472 100.165
85.914 118.418 100.748
88.7707 118.175 100.341
86.062 119.189 100.84
85.772 119.651 101.286
85.6955 118.898 101.2
88.8138 118.742 99.887
89.2927 119.335 100.305
86.1445 119.929 101.012
86.1416 120.767 101.398
89.9394 120.096 100.396
86.5076 121.749 101.444
90.1309 120.915 100.574
86.4935 122.842 101.422
90.1665 121.587 100.746
86.5101 123.705 101.491
90.7256 122.376 100.452
90.2835 122.284 100.708
87.0417 124.214 101.644
90.7297 123.091 100.532
90.6193 123.209 100.763
87.5896 124.65 101.601
90.7043 124.003 100.392
90.6573 124.282 100.624
87.9674 125.244 101.492
91.0487 124.844 100.459
90.8638 124.779 100.783
88.3932 125.906 101.204
91.0438 125.412 100.742
90.5378 124.787 101.005
90.5863 125.293 101.051
88.8033 126.619 101.279
90.4889 126.136 101.198
90.0745 125.768 101.352
90.2904 126.42 101.399
90.6462 125.809 100.934
90.1259 125.407 101.198
91.1414 126.042 100.699
89.17 126.937 101.409
89.5799 127.425 101.335
90.1132 127.252 101.369
89.5472 126.833 101.358
90.3479 126.841 101.253
89.9099 126.681 101.376
90.4631 126.783 100.985
90.7172 126.429 100.825
89.6178 127.899 100.839
90.0073 127.79 101.09
90.2966 127.477 101.175
83.2541 109.2 100.427
83.1001 110.056 100.759
82.7154 109.061 101
83.1425 108.216 100.904
83.4779 108.882 100.74
83.566 108.499 101.264
83.6383 110.165 100.531
83.772 110.661 100.909
84.0486 108.862 101.049
84.3795 109.632 101.288
84.4746 111.21 100.717
84.3115 111.275 100.984
84.9623 110.368 101.37
85.0433 112.171 100.72
84.8201 112.246 101.037
85.3466 112.09 100.497
85.6951 111.848 100.866
85.608 111.23 101.227
85.7423 112.623 100.794
85.3869 112.8 101.253
86.177 112.792 100.506
86.4818 112.65 100.426
86.1649 111.87 100.888
86.554 112.442 100.8
86.5033 112.372 101.161
86.0472 113.289 100.719
85.2639 113.519 101.147
86.7099 113.391 100.408
87.2412 113.27 100.327
87.1104 113.015 100.844
86.7636 113.011 101.23
86.0213 113.735 100.709
86.6973 114.013 100.369
86.0576 114.152 100.905
87.4519 113.985 100.013
87.8887 113.642 100.74
87.1655 113.747 101.277
86.2077 114.679 100.525
85.4396 114.938 101.065
87.0512 114.443 100.053
88.207 114.009 100.183
87.4994 114.389 101.48
85.4078 115.505 100.934
85.9674 115.332 100.357
84.9832 116.264 101.061
87.2394 114.635 99.7683
87.8396 114.673 101.252
88.1971 114.763 100.18
87.6502 115.453 101.275
84.8799 116.812 101.3
88.0335 116.128 101.2
85.3621 117.414 101.109
85.0191 118.179 101.393
84.8696 117.435 101.691
88.3981 116.718 100.632
88.751 117.261 100.948
85.5089 118.143 101.064
85.3325 118.904 101.631
88.7338 117.891 101.137
85.7365 119.932 101.684
89.007 118.737 100.511
88.9894 118.52 101.037
86.2102 121.051 101.743
89.1874 119.29 100.779
89.7129 119.977 100.753
86.4041 122.131 101.754
89.6272 120.612 100.86
86.5764 122.923 101.838
90.0076 121.234 101.127
89.6168 120.603 101.383
89.736 121.176 101.522
87.1082 123.579 101.905
90.1546 121.952 101.159
89.9042 122.227 101.353
87.6598 124.026 101.998
90.2773 122.716 100.98
89.8977 122.903 101.272
88.1514 124.533 101.724
90.1436 123.436 101.159
89.6753 123.248 101.51
89.7758 123.777 101.449
90.2623 123.706 100.79
88.3072 125.199 101.58
90.0057 124.147 101.203
89.903 124.333 101.505
90.2592 124.217 100.907
88.5866 125.692 101.275
90.2876 124.773 101.239
90.0621 124.918 101.445
88.866 125.981 101.494
89.2488 126.465 101.568
89.6041 126.33 101.561
89.283 125.921 101.576
90.0033 126.13 101.575
89.7212 125.539 101.578
89.9583 125.185 101.571
83.1873 110.175 101.171
82.8739 109.436 101.538
83.0672 108.329 101.526
83.8169 108.543 101.769
83.4905 111.032 101.348
84.0857 109.005 101.404
84.6132 109.764 101.602
84.0832 111.755 101.295
85.2012 110.802 101.572
84.5474 112.253 101.457
85.6424 111.665 101.654
84.6733 112.946 101.608
86.0875 111.97 101.308
86.5485 112.752 101.522
84.7293 113.263 101.684
86.7307 113.603 101.608
85.4129 113.848 101.058
84.7396 113.815 101.47
86.9663 114.28 101.739
85.3041 114.168 101.191
84.9858 114.887 101.364
86.9219 114.915 101.989
84.8022 115.622 101.56
84.9543 116.028 102.019
87.159 115.372 102.017
87.6668 115.807 101.939
84.958 116.735 102.175
87.9222 116.309 101.924
85.0947 118.29 101.914
85.1921 117.424 102.266
88.387 116.724 101.349
88.2968 117.356 101.594
85.4769 119.13 102.011
88.6662 118.079 101.633
85.791 120.314 102.068
88.8923 118.71 101.716
86.2543 121.315 102.102
89.0965 119.32 101.213
89.0301 119.308 101.577
86.4115 122.259 102.19
89.3661 119.884 101.317
89.3291 120.165 101.745
87.1251 122.642 102.138
89.4907 121.211 101.746
87.6266 123.172 102.048
89.5936 122.003 101.599
89.199 121.556 101.849
89.2673 122.091 101.856
88.0192 123.447 102.072
88.319 123.985 101.994
88.7997 123.525 102.092
88.3738 123.213 102.133
89.0076 123.048 101.977
88.6456 122.874 102.014
89.4425 122.604 101.868
88.8933 122.342 101.985
89.7118 122.645 101.631
88.6062 124.65 101.858
88.8135 124.215 101.992
89.1028 123.816 101.893
89.4117 123.303 101.894
88.8177 125.211 101.747
89.0691 124.731 102.011
89.4094 124.377 102.012
89.409 123.881 101.661
88.9706 125.609 101.336
89.2886 125.284 101.665
89.544 124.95 101.76
89.7543 124.487 101.709
83.3335 110.305 101.618
83.4409 109.396 101.94
83.5695 111.027 101.851
84.1435 110.406 101.817
84.2103 109.515 101.899
83.8606 111.723 101.64
84.2101 111.159 102.153
84.452 110.422 102.253
84.9011 110.054 101.958
85.178 110.899 101.819
84.4552 112.353 101.82
85.7589 111.815 101.991
84.627 112.795 102.124
86.1521 112.438 101.71
86.479 113.205 101.891
84.7222 113.41 102.123
86.5251 114.124 102.058
84.655 113.875 101.982
86.611 114.612 102.344
84.8149 114.372 101.597
84.7277 114.67 101.964
86.8577 115.172 102.659
84.8875 115.136 101.894
85.725 116.068 102.569
84.978 115.399 102.336
86.7167 115.791 102.877
85.7925 115.367 102.824
87.2093 115.819 102.434
85.5289 116.888 102.706
86.4412 116.693 102.84
87.1576 116.432 102.559
85.4061 118.4 102.26
85.773 117.999 102.484
86.1039 117.475 102.657
86.9377 117.239 102.775
87.5211 117.694 102.829
87.4254 117.087 102.535
87.9983 116.737 102.158
85.7191 119.59 102.352
88.1217 117.647 102.529
87.8711 118.354 102.694
88.4039 117.353 102.169
86.2154 120.425 102.326
88.2619 118.646 102.353
88.3214 118.966 102.75
88.432 118.219 102.062
86.6735 121.163 102.34
88.7359 119.415 102.451
88.3619 119.995 102.511
88.8267 118.998 102.123
86.9993 121.938 102.402
88.8174 120.34 102.219
88.2845 120.782 102.303
89.0523 119.766 101.989
87.4433 122.11 102.394
87.7686 122.426 102.186
88.3079 121.876 102.219
87.7653 121.768 102.629
88.6954 121.243 102.354
88.0166 121.274 102.514
88.8705 121.058 102.197
89.1992 120.765 102.046
87.988 122.995 102.111
88.2744 122.565 102.104
88.5977 122.079 102.048
88.9334 121.618 102.055
84.6424 111.942 102.007
84.791 111.507 102.318
85.0367 110.96 102.183
84.8551 112.494 102.41
85.2465 112.16 102.323
85.473 111.734 102.199
85.1526 113.066 102.49
85.6169 112.679 102.5
86.1356 112.449 102.44
86.2094 112.52 102.105
85.0058 113.695 102.545
85.6984 113.493 102.579
86.2645 113.089 102.657
86.3393 113.321 102.223
84.7551 114.263 102.248
85.4574 114.241 102.516
86.0773 114.021 102.777
86.5374 113.811 102.591
85.0744 114.746 102.337
85.5436 114.844 102.639
86.3197 114.772 102.734
86.0812 119.007 102.472
86.3371 118.509 102.663
86.739 117.906 102.909
86.5582 119.667 102.392
86.6216 119.191 102.667
87.0458 118.582 102.812
86.9025 120.28 102.421
87.1372 119.777 102.639
87.544 119.061 102.782
87.21 120.877 102.395
87.3813 120.295 102.548
87.831 119.77 102.692
87.2542 121.469 102.616
87.5818 120.936 102.562
87.8721 120.466 102.508
POLYGONS 2132  8528
3 0 1 2
3 0 3 4
3 2 3 0
3 4 5 6
3 3 5 4
3 6 7 8
3 5 7 6
3 7 9 8
3 10 1 0
3 11 1 10
3 4 12 0
3 12 10 0
3 6 13 4
3 13 12 4
3 8 14 6
3 14 13 6
3 15 8 9
3 14 8 15
3 16 11 10
3 17 11 16
3 12 18 10
3 18 16 10
3 13 19 12
3 19 18 12
3 14 20 13
3 20 19 13
3 21 14 15
3 20 14 21
3 16 22 17
3 18 22 16
3 23 22 18
3 19 23 18
3 24 23 19
3 20 24 19
3 25 24 20
3 21 25 20
3 26 27 28
3 26 29 30
3 28 29 26
3 29 31 30
3 32 33 34
3 27 32 34
3 27 26 32
3 26 35 32
3 30 36 26
3 36 35 26
3 37 30 31
3 36 30 37
3 38 33 32
3 39 33 38
3 35 40 32
3 40 38 32
3 36 41 35
3 41 40 35
3 42 36 37
3 41 36 42
3 43 44 45
3 43 46 47
3 45 46 43
3 39 47 46
3 39 38 47
3 38 48 47
3 40 49 38
3 49 48 38
3 50 41 51
3 50 49 41
3 49 40 41
3 42 51 41
3 2 44 43
3 2 1 44
3 1 52 44
3 3 2 43
3 47 3 43
3 5 3 47
3 48 5 47
3 7 5 48
3 49 7 48
3 49 9 7
3 49 50 9
3 50 53 9
3 1 11 52
3 52 11 54
3 9 53 15
3 53 55 15
3 11 17 54
3 54 17 56
3 15 55 21
3 55 57 21
3 58 17 22
3 58 59 17
3 59 56 17
3 22 23 60
3 58 22 60
3 23 24 61
3 60 23 61
3 62 61 24
3 62 24 63
3 63 24 25
3 57 25 21
3 63 25 57
3 58 64 59
3 60 64 58
3 65 64 60
3 61 65 60
3 66 65 61
3 62 66 61
3 67 68 69
3 67 70 71
3 69 70 67
3 71 72 73
3 70 72 71
3 72 74 73
3 75 76 77
3 68 75 77
3 68 67 75
3 67 78 75
3 71 79 67
3 79 78 67
3 73 80 71
3 80 79 71
3 81 73 74
3 80 73 81
3 82 76 75
3 83 76 82
3 78 84 75
3 84 82 75
3 79 85 78
3 85 84 78
3 80 86 79
3 86 85 79
3 87 80 81
3 86 80 87
3 28 83 82
3 28 27 83
3 27 88 83
3 29 28 82
3 84 29 82
3 31 29 84
3 31 84 89
3 89 84 85
3 86 90 85
3 90 89 85
3 91 86 87
3 90 86 91
3 34 92 93
3 33 92 34
3 88 27 34
3 93 88 34
3 89 94 37
3 31 89 37
3 90 95 89
3 95 94 89
3 96 90 91
3 95 90 96
3 97 98 99
3 97 99 92
3 97 92 39
3 39 92 33
3 94 100 42
3 37 94 42
3 101 95 102
3 101 100 95
3 100 94 95
3 96 102 95
3 45 103 104
3 44 103 45
3 98 97 46
3 98 46 104
3 104 46 45
3 39 46 97
3 51 105 50
3 51 42 100
3 51 100 105
3 105 100 106
3 107 100 101
3 106 100 107
3 44 52 103
3 103 52 108
3 105 109 53
3 50 105 53
3 110 106 111
3 110 109 106
3 109 105 106
3 107 111 106
3 52 54 108
3 108 54 112
3 109 113 55
3 53 109 55
3 114 109 110
3 113 109 114
3 54 56 112
3 112 56 115
3 113 116 57
3 55 113 57
3 117 113 114
3 116 113 117
3 56 59 115
3 115 59 118
3 63 119 120
3 62 63 120
3 116 63 57
3 116 121 63
3 121 119 63
3 117 121 116
3 59 122 118
3 64 122 59
3 65 123 64
3 64 123 122
3 66 124 65
3 65 124 123
3 120 66 62
3 124 66 120
3 69 125 126
3 68 125 69
3 70 69 127
3 69 126 127
3 72 70 128
3 70 127 128
3 128 74 72
3 129 74 128
3 77 130 131
3 76 130 77
3 125 68 77
3 131 125 77
3 74 129 81
3 129 132 81
3 76 83 130
3 130 83 133
3 134 135 87
3 134 87 132
3 132 87 81
3 134 136 135
3 83 88 133
3 133 88 137
3 135 138 91
3 87 135 91
3 139 135 136
3 138 135 139
3 93 140 141
3 92 140 93
3 137 88 93
3 141 137 93
3 138 142 96
3 91 138 96
3 143 138 139
3 142 138 143
3 99 144 145
3 98 144 99
3 140 92 99
3 145 140 99
3 102 146 101
3 102 147 146
3 96 147 102
3 96 148 147
3 96 142 148
3 143 148 142
3 104 149 150
3 103 149 104
3 144 98 104
3 150 144 104
3 146 151 107
3 101 146 107
3 152 146 147
3 151 146 152
3 103 108 149
3 149 108 153
3 111 154 110
3 111 155 154
3 107 155 111
3 107 156 155
3 107 151 156
3 152 156 151
3 108 112 153
3 153 112 157
3 154 158 114
3 110 154 114
3 159 154 155
3 158 154 159
3 112 115 157
3 157 115 160
3 158 161 162
3 158 162 114
3 114 162 117
3 159 161 158
3 115 118 160
3 160 118 163
3 119 164 120
3 165 164 119
3 165 119 166
3 166 119 121
3 162 121 117
3 166 121 162
3 118 167 163
3 122 167 118
3 123 168 122
3 122 168 167
3 124 169 123
3 123 169 168
3 164 124 120
3 164 170 124
3 170 169 124
3 165 170 164
3 126 125 171
3 172 126 171
3 172 173 126
3 173 127 126
3 128 127 174
3 127 173 174
3 174 129 128
3 175 129 174
3 131 130 176
3 131 176 177
3 125 131 177
3 125 177 178
3 125 178 171
3 172 171 178
3 179 180 132
3 179 132 175
3 175 132 129
3 179 181 180
3 176 182 183
3 176 130 182
3 130 133 182
3 177 176 183
3 132 180 134
3 180 136 134
3 180 181 136
3 181 184 136
3 133 137 182
3 182 137 185
3 136 184 139
3 184 186 139
3 141 187 188
3 140 187 141
3 185 137 141
3 188 185 141
3 139 186 143
3 186 189 143
3 145 190 191
3 144 190 145
3 187 140 145
3 191 187 145
3 148 192 147
3 148 193 192
3 148 143 193
3 143 189 193
3 150 194 195
3 149 194 150
3 190 144 150
3 195 190 150
3 192 196 152
3 147 192 152
3 197 192 193
3 196 192 197
3 198 199 200
3 198 200 194
3 198 194 153
3 153 194 149
3 156 201 155
3 156 202 201
3 152 202 156
3 152 203 202
3 152 196 203
3 197 203 196
3 204 199 198
3 205 199 204
3 153 157 204
3 198 153 204
3 201 206 159
3 155 201 159
3 207 201 202
3 206 201 207
3 208 205 204
3 209 205 208
3 157 160 208
3 204 157 208
3 161 210 162
3 161 211 210
3 159 211 161
3 159 212 211
3 159 206 212
3 207 212 206
3 213 209 208
3 214 209 213
3 160 163 213
3 208 160 213
3 166 215 216
3 165 166 216
3 210 166 162
3 210 217 166
3 217 215 166
3 211 217 210
3 213 218 214
3 163 218 213
3 163 167 218
3 167 219 218
3 168 220 167
3 167 220 219
3 169 221 168
3 168 221 220
3 170 222 169
3 169 222 221
3 216 170 165
3 222 170 216
3 223 224 225
3 223 226 227
3 225 226 223
3 226 228 227
3 173 224 223
3 173 172 224
3 172 229 224
3 174 173 223
3 227 174 223
3 227 175 174
3 227 228 175
3 228 230 175
3 178 231 232
3 177 231 178
3 229 172 178
3 232 229 178
3 175 230 233
3 179 175 233
3 233 181 179
3 234 181 233
3 183 235 236
3 182 235 183
3 231 177 183
3 236 231 183
3 181 234 184
3 234 237 184
3 238 239 240
3 238 240 235
3 238 235 185
3 185 235 182
3 184 237 186
3 237 241 186
3 242 243 244
3 239 242 244
3 238 242 239
3 238 187 242
3 238 188 187
3 185 188 238
3 186 241 189
3 241 245 189
3 246 247 248
3 243 246 248
3 242 246 243
3 242 190 246
3 242 191 190
3 187 191 242
3 189 245 193
3 245 249 193
3 250 251 252
3 247 250 252
3 246 250 247
3 246 194 250
3 246 195 194
3 190 195 246
3 193 249 197
3 249 253 197
3 200 251 250
3 200 199 251
3 199 254 251
3 194 200 250
3 203 255 256
3 202 203 256
3 253 203 197
3 255 203 253
3 199 205 254
3 254 205 257
3 202 256 207
3 256 258 207
3 205 209 257
3 257 209 259
3 212 260 261
3 211 212 261
3 258 212 207
3 260 212 258
3 209 214 259
3 259 214 262
3 215 263 264
3 216 215 264
3 217 265 215
3 215 265 263
3 261 217 211
3 265 217 261
3 214 266 262
3 218 266 214
3 219 267 218
3 218 267 266
3 220 268 219
3 219 268 267
3 221 269 220
3 220 269 268
3 222 270 221
3 221 270 269
3 264 222 216
3 270 222 264
3 271 272 273
3 271 225 224
3 271 273 225
3 273 274 225
3 226 225 275
3 225 274 275
3 275 228 226
3 276 228 275
3 277 272 271
3 278 272 277
3 224 229 277
3 271 224 277
3 228 276 230
3 276 279 230
3 232 278 277
3 232 231 278
3 231 280 278
3 229 232 277
3 230 279 281
3 233 230 281
3 281 234 233
3 282 234 281
3 283 284 285
3 283 236 235
3 283 285 236
3 285 286 236
3 280 231 236
3 286 280 236
3 234 282 237
3 282 287 237
3 288 289 290
3 284 288 290
3 283 288 284
3 283 239 288
3 283 240 239
3 235 240 283
3 237 287 241
3 287 291 241
3 244 289 288
3 244 243 289
3 243 292 289
3 239 244 288
3 241 291 245
3 291 293 245
3 248 294 295
3 247 294 248
3 292 243 248
3 295 292 248
3 245 293 249
3 293 296 249
3 252 297 298
3 251 297 252
3 294 247 252
3 298 294 252
3 249 296 253
3 296 299 253
3 251 254 297
3 297 254 300
3 255 301 302
3 256 255 302
3 299 255 253
3 301 255 299
3 254 257 300
3 300 257 303
3 256 302 258
3 302 304 258
3 257 259 303
3 303 259 305
3 260 306 307
3 261 260 307
3 304 260 258
3 306 260 304
3 259 262 305
3 305 262 308
3 263 309 264
3 310 309 263
3 310 263 311
3 311 263 265
3 307 265 261
3 311 265 307
3 262 312 308
3 266 312 262
3 267 313 266
3 266 313 312
3 268 314 267
3 267 314 313
3 269 315 268
3 268 315 314
3 270 316 269
3 269 316 315
3 309 270 264
3 309 317 270
3 317 316 270
3 310 317 309
3 318 319 320
3 318 321 322
3 320 321 318
3 322 323 324
3 321 323 322
3 323 325 324
3 273 319 318
3 273 272 319
3 272 326 319
3 274 273 318
3 322 274 318
3 275 274 322
3 324 275 322
3 324 276 275
3 324 325 276
3 325 327 276
3 272 278 326
3 326 278 328
3 276 327 279
3 327 329 279
3 330 331 332
3 330 332 328
3 330 328 280
3 280 328 278
3 279 329 333
3 281 279 333
3 333 282 281
3 334 282 333
3 285 335 336
3 284 335 285
3 331 330 286
3 331 286 336
3 336 286 285
3 280 286 330
3 282 334 287
3 334 337 287
3 290 338 339
3 289 338 290
3 335 284 290
3 339 335 290
3 287 337 291
3 337 340 291
3 289 292 338
3 338 292 341
3 291 340 293
3 340 342 293
3 295 343 344
3 294 343 295
3 341 292 295
3 344 341 295
3 293 342 296
3 342 345 296
3 298 346 347
3 297 346 298
3 343 294 298
3 347 343 298
3 296 345 299
3 345 348 299
3 297 300 346
3 346 300 349
3 301 350 351
3 302 301 351
3 348 301 299
3 350 301 348
3 300 303 349
3 349 303 352
3 302 351 304
3 351 353 304
3 303 305 352
3 352 305 354
3 306 355 356
3 307 306 356
3 353 306 304
3 355 306 353
3 305 308 354
3 354 308 357
3 311 358 359
3 310 311 359
3 356 311 307
3 358 311 356
3 308 360 357
3 312 360 308
3 313 361 312
3 312 361 360
3 314 362 313
3 313 362 361
3 315 363 314
3 314 363 362
3 316 364 315
3 315 364 363
3 317 365 316
3 316 365 364
3 359 317 310
3 365 317 359
3 366 367 368
3 366 369 370
3 368 369 366
3 369 371 370
3 320 367 366
3 320 319 367
3 319 372 367
3 321 320 366
3 370 321 366
3 370 371 373
3 370 373 321
3 321 373 323
3 373 325 323
3 374 325 373
3 375 376 377
3 375 377 372
3 375 372 326
3 326 372 319
3 325 374 327
3 374 378 327
3 379 376 375
3 380 376 379
3 326 328 379
3 375 326 379
3 327 378 329
3 378 381 329
3 382 383 384
3 380 382 384
3 379 382 380
3 379 331 382
3 379 332 331
3 328 332 379
3 329 381 385
3 333 329 385
3 385 334 333
3 386 334 385
3 387 388 389
3 383 387 389
3 382 387 383
3 382 335 387
3 382 336 335
3 331 336 382
3 334 386 337
3 386 390 337
3 339 388 387
3 339 338 388
3 338 391 388
3 335 339 387
3 337 390 340
3 390 392 340
3 393 394 395
3 393 395 391
3 393 391 341
3 341 391 338
3 340 392 342
3 392 396 342
3 397 398 399
3 394 397 399
3 393 397 394
3 393 343 397
3 393 344 343
3 341 344 393
3 400 401 402
3 400 396 401
3 400 345 396
3 345 342 396
3 347 398 397
3 347 346 398
3 346 403 398
3 343 347 397
3 404 400 402
3 405 404 402
3 345 404 348
3 400 404 345
3 346 349 403
3 403 349 406
3 350 404 405
3 350 405 351
3 351 405 407
3 348 404 350
3 349 352 406
3 406 352 408
3 351 407 353
3 407 409 353
3 352 354 408
3 408 354 410
3 355 411 412
3 356 355 412
3 409 355 353
3 411 355 409
3 413 357 414
3 413 410 357
3 410 354 357
3 413 414 415
3 358 416 417
3 359 358 417
3 412 358 356
3 416 358 412
3 357 360 414
3 414 418 415
3 414 360 418
3 360 361 418
3 362 419 361
3 361 419 418
3 363 420 362
3 362 420 419
3 364 421 363
3 363 421 420
3 365 422 364
3 364 422 421
3 417 365 359
3 422 365 417
3 423 424 425
3 423 368 367
3 423 425 368
3 425 426 368
3 369 368 427
3 368 426 427
3 427 371 369
3 428 371 427
3 429 424 423
3 430 424 429
3 367 372 429
3 423 367 429
3 371 428 431
3 373 371 431
3 431 374 373
3 432 374 431
3 433 434 435
3 430 433 435
3 429 433 430
3 429 376 433
3 429 377 376
3 372 377 429
3 374 432 378
3 432 436 378
3 437 434 433
3 438 434 437
3 376 380 437
3 433 376 437
3 439 440 381
3 439 381 436
3 436 381 378
3 439 441 440
3 442 443 444
3 438 442 444
3 437 442 438
3 437 383 442
3 437 384 383
3 380 384 437
3 381 440 385
3 440 386 385
3 440 441 386
3 441 445 386
3 389 443 442
3 389 388 443
3 388 446 443
3 383 389 442
3 386 445 390
3 445 447 390
3 388 391 446
3 446 391 448
3 390 447 392
3 447 449 392
3 395 450 451
3 394 450 395
3 448 391 395
3 451 448 395
3 392 449 396
3 449 452 396
3 399 453 454
3 398 453 399
3 450 394 399
3 454 450 399
3 401 455 456
3 402 401 456
3 452 401 396
3 455 401 452
3 398 403 453
3 453 403 457
3 402 456 405
3 456 458 405
3 403 406 457
3 457 406 459
3 405 458 407
3 458 460 407
3 406 408 459
3 459 408 461
3 462 463 464
3 462 460 463
3 462 409 460
3 409 407 460
3 465 410 466
3 465 461 410
3 461 408 410
3 465 466 467
3 468 469 470
3 464 469 468
3 462 464 468
3 462 468 412
3 462 412 411
3 409 462 411
3 410 413 466
3 466 413 415
3 466 415 467
3 467 415 471
3 472 473 474
3 472 475 476
3 473 472 476
3 470 476 475
3 468 470 475
3 468 475 417
3 468 417 416
3 412 468 416
3 415 477 471
3 418 477 415
3 419 478 418
3 418 478 477
3 420 479 419
3 419 479 478
3 474 421 472
3 474 479 421
3 479 420 421
3 422 472 421
3 475 472 422
3 417 475 422
3 480 481 482
3 480 483 484
3 482 483 480
3 483 485 484
3 425 486 487
3 424 486 425
3 481 480 426
3 481 426 487
3 487 426 425
3 427 426 480
3 484 427 480
3 484 428 427
3 484 485 428
3 485 488 428
3 489 490 491
3 489 491 486
3 489 486 430
3 430 486 424
3 428 488 492
3 431 428 492
3 492 432 431
3 493 432 492
3 494 495 496
3 490 494 496
3 489 494 490
3 489 434 494
3 489 435 434
3 430 435 489
3 432 493 436
3 493 497 436
3 498 495 494
3 499 495 498
3 434 438 498
3 494 434 498
3 436 497 500
3 439 436 500
3 500 441 439
3 501 441 500
3 444 499 498
3 444 443 499
3 443 502 499
3 438 444 498
3 441 501 445
3 501 503 445
3 504 505 506
3 504 506 502
3 504 502 446
3 446 502 443
3 445 503 447
3 503 507 447
3 508 505 504
3 509 505 508
3 446 448 508
3 504 446 508
3 447 507 449
3 507 510 449
3 511 512 513
3 509 511 513
3 508 511 509
3 508 450 511
3 508 451 450
3 448 451 508
3 449 510 452
3 510 514 452
3 454 512 511
3 454 453 512
3 453 515 512
3 450 454 511
3 455 516 517
3 456 455 517
3 514 455 452
3 516 455 514
3 453 457 515
3 515 457 518
3 456 517 458
3 517 519 458
3 457 459 518
3 518 459 520
3 521 522 523
3 521 519 522
3 521 460 519
3 460 458 519
3 459 461 520
3 520 461 524
3 525 526 527
3 525 528 529
3 526 525 529
3 528 530 531
3 529 528 531
3 523 531 530
3 521 523 530
3 521 530 464
3 521 464 463
3 460 521 463
3 461 532 524
3 465 532 461
3 532 465 467
3 533 532 467
3 534 525 527
3 535 534 527
3 528 525 536
3 536 525 534
3 469 536 470
3 469 530 536
3 530 528 536
3 464 530 469
3 537 471 538
3 537 533 471
3 533 467 471
3 538 539 540
3 537 538 540
3 539 541 542
3 540 539 542
3 535 542 541
3 534 535 541
3 534 541 474
3 534 474 473
3 476 534 473
3 536 534 476
3 470 536 476
3 471 477 538
3 478 538 477
3 539 538 478
3 479 539 478
3 541 539 479
3 474 541 479
3 543 544 545
3 543 546 547
3 545 546 543
3 547 548 549
3 546 548 547
3 548 550 549
3 551 544 543
3 552 544 551
3 482 481 551
3 482 551 547
3 547 551 543
3 483 482 547
3 549 483 547
3 549 485 483
3 549 550 485
3 550 553 485
3 554 555 556
3 552 554 556
3 551 554 552
3 551 486 554
3 551 487 486
3 481 487 551
3 485 553 488
3 553 557 488
3 558 559 560
3 555 558 560
3 554 558 555
3 554 490 558
3 554 491 490
3 486 491 554
3 488 557 561
3 492 488 561
3 561 493 492
3 562 493 561
3 496 559 558
3 496 495 559
3 495 563 559
3 490 496 558
3 493 562 497
3 562 564 497
3 565 566 567
3 565 567 563
3 565 563 499
3 499 563 495
3 568 500 497
3 568 497 569
3 569 497 564
3 500 568 501
3 570 566 565
3 571 566 570
3 499 502 570
3 565 499 570
3 568 569 572
3 572 501 568
3 572 573 501
3 573 503 501
3 506 571 570
3 506 505 571
3 505 574 571
3 502 506 570
3 503 573 507
3 573 575 507
3 576 577 578
3 576 578 574
3 576 574 509
3 509 574 505
3 507 575 510
3 575 579 510
3 513 577 576
3 513 512 577
3 512 580 577
3 509 513 576
3 581 582 583
3 581 579 582
3 581 514 579
3 514 510 579
3 512 515 580
3 580 515 584
3 516 581 583
3 516 583 517
3 517 583 585
3 514 581 516
3 515 518 584
3 584 518 586
3 517 585 519
3 585 587 519
3 588 520 589
3 588 586 520
3 586 518 520
3 588 589 590
3 591 592 593
3 591 523 522
3 591 522 592
3 592 522 594
3 587 522 519
3 594 522 587
3 589 524 595
3 520 524 589
3 596 590 589
3 595 596 589
3 526 597 598
3 527 526 598
3 529 599 526
3 526 599 597
3 593 531 591
3 593 599 531
3 599 529 531
3 523 591 531
3 524 532 595
3 533 600 601
3 532 533 601
3 532 601 596
3 532 596 595
3 600 602 603
3 601 600 603
3 602 604 605
3 603 602 605
3 604 598 605
3 604 535 598
3 535 527 598
3 533 537 600
3 540 600 537
3 602 600 540
3 542 602 540
3 604 602 542
3 535 604 542
3 606 607 608
3 606 609 610
3 608 609 606
3 610 545 544
3 610 609 545
3 609 611 545
3 546 545 612
3 545 611 612
3 548 546 613
3 546 612 613
3 613 550 548
3 614 550 613
3 615 607 606
3 616 607 615
3 610 617 606
3 617 615 606
3 544 552 617
3 610 544 617
3 550 614 553
3 614 618 553
3 619 616 615
3 620 616 619
3 556 555 619
3 556 619 617
3 617 619 615
3 552 556 617
3 553 618 557
3 618 621 557
3 622 623 624
3 620 622 624
3 619 622 620
3 619 559 622
3 619 560 559
3 555 560 619
3 625 561 557
3 625 557 626
3 626 557 621
3 561 625 562
3 627 623 622
3 628 623 627
3 559 563 627
3 622 559 627
3 625 626 629
3 629 562 625
3 629 630 562
3 630 564 562
3 567 628 627
3 567 566 628
3 566 631 628
3 563 567 627
3 564 630 569
3 630 632 569
3 566 571 631
3 631 571 633
3 634 572 569
3 634 569 635
3 635 569 632
3 572 634 573
3 571 574 633
3 633 574 636
3 637 634 635
3 638 637 635
3 573 637 575
3 634 637 573
3 578 639 640
3 577 639 578
3 636 574 578
3 640 636 578
3 641 642 643
3 638 642 641
3 638 641 637
3 637 641 644
3 575 644 579
3 637 644 575
3 577 580 639
3 639 580 645
3 646 641 643
3 647 646 643
3 582 646 583
3 582 644 646
3 644 641 646
3 579 644 582
3 580 584 645
3 645 584 648
3 649 646 647
3 650 649 647
3 583 649 585
3 646 649 583
3 584 586 648
3 648 586 651
3 652 653 654
3 650 653 652
3 650 652 649
3 649 652 655
3 585 655 587
3 649 655 585
3 586 656 651
3 588 656 586
3 590 657 658
3 590 658 588
3 588 658 656
3 658 657 659
3 660 661 662
3 654 661 660
3 652 654 660
3 652 660 593
3 652 593 592
3 594 652 592
3 655 652 594
3 587 655 594
3 657 596 663
3 590 596 657
3 664 659 657
3 664 657 665
3 665 657 663
3 665 666 667
3 664 665 667
3 666 598 597
3 666 597 667
3 667 597 668
3 662 599 660
3 662 668 599
3 668 597 599
3 593 660 599
3 596 601 663
3 603 663 601
3 665 663 603
3 605 665 603
3 666 665 605
3 598 666 605
3 669 670 671
3 669 672 673
3 671 672 669
3 673 674 675
3 672 674 673
3 674 676 675
3 677 678 679
3 670 677 679
3 670 669 677
3 669 680 677
3 673 681 669
3 681 680 669
3 675 682 673
3 682 681 673
3 683 675 676
3 682 675 683
3 608 678 677
3 608 607 678
3 607 684 678
3 609 608 677
3 680 609 677
3 611 609 680
3 681 611 680
3 612 611 681
3 682 612 681
3 682 683 685
3 682 685 612
3 612 685 613
3 685 614 613
3 686 614 685
3 607 616 684
3 684 616 687
3 614 686 618
3 686 688 618
3 689 690 691
3 689 691 687
3 689 687 620
3 620 687 616
3 618 688 621
3 688 692 621
3 624 690 689
3 624 623 690
3 623 693 690
3 620 624 689
3 621 692 626
3 692 694 626
3 623 628 693
3 693 628 695
3 626 694 696
3 629 626 696
3 696 630 629
3 697 630 696
3 628 631 695
3 695 631 698
3 630 697 632
3 697 699 632
3 631 633 698
3 698 633 700
3 632 699 635
3 699 701 635
3 633 636 700
3 700 636 702
3 635 701 638
3 701 703 638
3 640 639 704
3 640 704 705
3 640 705 636
3 636 705 702
3 642 706 707
3 643 642 707
3 703 642 638
3 706 642 703
3 704 645 708
3 639 645 704
3 709 705 704
3 708 709 704
3 643 707 647
3 707 710 647
3 708 648 711
3 645 648 708
3 712 709 708
3 711 712 708
3 713 714 715
3 713 710 714
3 713 650 710
3 650 647 710
3 711 651 716
3 648 651 711
3 717 712 711
3 716 717 711
3 718 719 720
3 718 721 722
3 719 718 722
3 715 722 721
3 713 715 721
3 713 721 654
3 713 654 653
3 650 713 653
3 651 656 716
3 716 723 717
3 716 656 723
3 656 658 723
3 659 724 725
3 659 725 658
3 658 725 723
3 724 726 727
3 725 724 727
3 720 727 726
3 720 726 718
3 718 726 728
3 661 728 662
3 661 721 728
3 721 718 728
3 654 721 661
3 659 664 724
3 667 724 664
3 726 724 667
3 668 726 667
3 728 726 668
3 662 728 668
3 729 730 731
3 729 732 733
3 731 732 729
3 732 734 733
3 735 730 729
3 736 730 735
3 733 737 729
3 737 735 729
3 738 733 734
3 737 733 738
3 735 739 736
3 737 739 735
3 740 739 737
3 738 740 737
3 741 742 743
3 741 744 745
3 743 744 741
3 745 746 747
3 744 746 745
3 746 748 747
3 749 742 741
3 750 742 749
3 671 670 749
3 671 749 745
3 745 749 741
3 672 671 745
3 747 672 745
3 747 748 751
3 747 751 672
3 672 751 674
3 751 676 674
3 752 676 751
3 679 750 749
3 679 678 750
3 678 753 750
3 670 679 749
3 676 752 683
3 752 754 683
3 755 756 757
3 755 757 753
3 755 753 684
3 684 753 678
3 683 754 758
3 685 683 758
3 758 686 685
3 759 686 758
3 760 756 755
3 761 756 760
3 684 687 760
3 755 684 760
3 686 759 688
3 759 762 688
3 691 761 760
3 691 690 761
3 690 763 761
3 687 691 760
3 688 762 692
3 762 764 692
3 690 693 763
3 763 693 765
3 692 764 694
3 764 766 694
3 693 695 765
3 765 695 767
3 768 696 694
3 768 694 769
3 769 694 766
3 696 768 697
3 695 698 767
3 767 698 770
3 771 768 769
3 772 771 769
3 697 771 699
3 768 771 697
3 698 700 770
3 770 700 773
3 774 771 772
3 775 774 772
3 699 774 701
3 771 774 699
3 700 702 773
3 773 702 776
3 777 774 775
3 778 777 775
3 701 777 703
3 774 777 701
3 702 705 776
3 776 705 779
3 780 781 782
3 778 781 780
3 777 778 780
3 777 780 707
3 777 707 706
3 703 777 706
3 705 709 779
3 779 709 783
3 784 785 786
3 784 787 788
3 785 784 788
3 782 788 787
3 782 787 780
3 780 787 789
3 707 789 710
3 780 789 707
3 790 712 791
3 790 783 712
3 783 709 712
3 791 792 793
3 790 791 793
3 792 794 795
3 793 792 795
3 786 795 794
3 786 794 784
3 784 794 796
3 787 784 797
3 797 784 796
3 714 797 715
3 714 789 797
3 789 787 797
3 710 789 714
3 791 717 798
3 712 717 791
3 792 791 799
3 799 791 798
3 794 792 800
3 800 792 799
3 719 800 720
3 719 796 800
3 796 794 800
3 722 796 719
3 797 796 722
3 715 797 722
3 717 723 798
3 725 798 723
3 799 798 725
3 727 799 725
3 800 799 727
3 720 800 727
3 801 802 803
3 801 804 805
3 803 804 801
3 804 806 805
3 807 802 801
3 808 802 807
3 731 730 807
3 731 807 805
3 805 807 801
3 805 806 809
3 805 809 731
3 731 809 732
3 809 734 732
3 810 734 809
3 811 808 807
3 812 808 811
3 730 736 811
3 807 730 811
3 734 810 738
3 810 813 738
3 814 812 811
3 815 812 814
3 736 739 816
3 736 816 811
3 811 816 814
3 739 740 817
3 816 739 817
3 740 818 817
3 740 738 818
3 738 813 818
3 819 815 814
3 820 815 819
3 816 821 814
3 821 819 814
3 817 822 816
3 822 821 816
3 823 817 818
3 823 824 817
3 824 822 817
3 823 825 824
3 826 820 819
3 827 820 826
3 821 828 819
3 828 826 819
3 822 829 821
3 829 828 821
3 824 830 822
3 830 829 822
3 831 824 825
3 830 824 831
3 826 832 827
3 832 833 834
3 832 826 833
3 826 828 833
3 829 835 828
3 835 833 828
3 830 836 829
3 836 835 829
3 837 830 831
3 836 830 837
3 838 834 833
3 839 834 838
3 835 840 833
3 840 838 833
3 836 841 835
3 841 840 835
3 842 836 837
3 841 836 842
3 838 843 839
3 843 844 845
3 843 838 844
3 838 840 844
3 841 846 840
3 846 844 840
3 847 841 842
3 847 848 841
3 848 846 841
3 847 849 848
3 743 845 844
3 743 742 845
3 742 850 845
3 744 743 844
3 846 744 844
3 746 744 846
3 848 746 846
3 848 748 746
3 848 849 748
3 849 851 748
3 852 853 854
3 852 854 850
3 852 850 750
3 750 850 742
3 748 851 855
3 751 748 855
3 855 752 751
3 856 752 855
3 857 853 852
3 858 853 857
3 750 753 857
3 852 750 857
3 752 856 754
3 856 859 754
3 757 858 857
3 757 756 858
3 756 860 858
3 753 757 857
3 861 758 754
3 861 754 862
3 862 754 859
3 758 861 759
3 756 761 860
3 860 761 863
3 861 862 864
3 864 759 861
3 864 865 759
3 865 762 759
3 761 763 863
3 863 763 866
3 762 865 764
3 865 867 764
3 763 765 866
3 866 765 868
3 869 870 871
3 869 867 870
3 869 766 867
3 766 764 867
3 765 767 868
3 868 767 872
3 873 869 871
3 874 873 871
3 766 873 769
3 869 873 766
3 767 770 872
3 872 770 875
3 876 873 874
3 877 876 874
3 769 876 772
3 873 876 769
3 770 773 875
3 875 773 878
3 879 880 881
3 877 880 879
3 877 879 876
3 876 879 882
3 772 882 775
3 876 882 772
3 773 776 878
3 878 776 883
3 884 879 881
3 885 884 881
3 882 879 886
3 886 879 884
3 775 886 778
3 882 886 775
3 776 779 883
3 883 779 887
3 888 884 885
3 889 888 885
3 781 888 782
3 781 886 888
3 886 884 888
3 778 886 781
3 890 783 891
3 890 887 783
3 887 779 783
3 891 892 893
3 890 891 893
3 892 894 895
3 893 892 895
3 894 786 785
3 894 785 895
3 895 785 896
3 889 788 888
3 889 896 788
3 896 785 788
3 782 888 788
3 783 790 891
3 793 891 790
3 892 891 793
3 795 892 793
3 894 892 795
3 786 894 795
3 803 897 898
3 802 897 803
3 804 803 899
3 803 898 899
3 899 806 804
3 900 806 899
3 802 808 897
3 897 808 901
3 806 900 902
3 809 806 902
3 902 810 809
3 903 810 902
3 808 812 901
3 901 812 904
3 810 903 813
3 903 905 813
3 812 815 904
3 904 815 906
3 813 905 818
3 905 907 818
3 815 820 906
3 906 820 908
3 818 907 909
3 823 818 909
3 909 825 823
3 910 825 909
3 820 827 908
3 908 827 911
3 825 910 831
3 910 912 831
3 913 827 832
3 913 914 827
3 914 911 827
3 832 834 913
3 831 912 837
3 912 915 837
3 913 916 914
3 916 913 834
3 916 834 917
3 917 834 839
3 837 915 842
3 915 918 842
3 839 919 917
3 843 919 839
3 919 843 845
3 920 919 845
3 842 918 921
3 847 842 921
3 921 849 847
3 922 849 921
3 845 850 920
3 920 850 923
3 849 922 851
3 922 924 851
3 854 925 926
3 853 925 854
3 923 850 854
3 926 923 854
3 851 924 927
3 855 851 927
3 927 856 855
3 928 856 927
3 853 858 925
3 925 858 929
3 856 928 859
3 928 930 859
3 858 860 929
3 929 860 931
3 859 930 862
3 930 932 862
3 860 863 931
3 931 863 933
3 934 864 862
3 934 862 935
3 935 862 932
3 864 934 865
3 863 866 933
3 933 866 936
3 937 934 935
3 938 937 935
3 865 937 867
3 934 937 865
3 866 868 936
3 936 868 939
3 870 937 938
3 870 938 871
3 871 938 940
3 867 937 870
3 868 872 939
3 939 872 941
3 942 943 944
3 942 940 943
3 942 874 940
3 874 871 940
3 945 875 946
3 945 941 875
3 941 872 875
3 946 947 948
3 945 946 948
3 947 949 950
3 948 947 950
3 949 951 952
3 950 949 952
3 944 952 951
3 944 951 942
3 942 951 953
3 874 953 877
3 942 953 874
3 946 878 954
3 875 878 946
3 947 946 955
3 955 946 954
3 949 947 956
3 956 947 955
3 951 949 957
3 957 949 956
3 880 957 881
3 880 953 957
3 953 951 957
3 877 953 880
3 954 883 958
3 878 883 954
3 955 954 959
3 959 954 958
3 956 955 960
3 960 955 959
3 957 956 961
3 961 956 960
3 881 961 885
3 957 961 881
3 958 887 962
3 883 887 958
3 959 958 963
3 963 958 962
3 960 959 964
3 964 959 963
3 961 960 965
3 965 960 964
3 885 965 889
3 961 965 885
3 887 890 962
3 893 962 890
3 963 962 893
3 895 963 893
3 964 963 895
3 896 964 895
3 965 964 896
3 889 965 896
3 898 897 966
3 898 967 899
3 966 967 898
3 899 967 900
3 966 901 968
3 897 901 966
3 967 966 969
3 969 966 968
3 900 970 902
3 900 967 970
3 967 969 970
3 902 970 903
3 968 971 972
3 968 901 971
3 901 904 971
3 969 968 972
3 973 969 972
3 970 969 973
3 974 970 973
3 974 903 970
3 974 975 903
3 975 905 903
3 904 906 971
3 971 906 976
3 905 975 907
3 975 977 907
3 906 908 976
3 976 908 978
3 907 977 979
3 909 907 979
3 979 910 909
3 980 910 979
3 908 911 978
3 978 911 981
3 910 980 912
3 980 982 912
3 911 914 981
3 981 914 983
3 912 982 915
3 982 984 915
3 914 985 983
3 916 985 914
3 985 916 917
3 986 985 917
3 915 984 918
3 984 987 918
3 917 988 986
3 919 988 917
3 920 989 990
3 920 990 919
3 919 990 988
3 989 991 992
3 990 989 992
3 921 991 993
3 921 987 991
3 921 918 987
3 992 991 987
3 921 993 922
3 989 923 994
3 920 923 989
3 991 989 995
3 995 989 994
3 993 991 996
3 996 991 995
3 922 996 924
3 993 996 922
3 926 997 998
3 925 997 926
3 994 923 926
3 994 926 999
3 999 926 998
3 995 994 999
3 1000 995 999
3 1000 1001 1002
3 1000 1002 995
3 995 1002 996
3 924 1003 927
3 924 996 1003
3 996 1002 1003
3 927 1003 928
3 925 929 997
3 997 929 1004
3 1005 1002 1001
3 1006 1005 1001
3 1003 1002 1007
3 1007 1002 1005
3 928 1007 930
3 1003 1007 928
3 929 931 1004
3 1004 931 1008
3 1009 1005 1006
3 1010 1009 1006
3 1007 1005 1011
3 1011 1005 1009
3 930 1011 932
3 1007 1011 930
3 931 933 1008
3 1008 933 1012
3 1013 1009 1010
3 1014 1013 1010
3 1011 1009 1015
3 1015 1009 1013
3 932 1015 935
3 1011 1015 932
3 933 936 1012
3 1012 936 1016
3 1017 1013 1014
3 1018 1017 1014
3 1015 1013 1019
3 1019 1013 1017
3 935 1019 938
3 1015 1019 935
3 1020 939 1021
3 1020 1016 939
3 1016 936 939
3 1021 1022 1023
3 1020 1021 1023
3 1022 1024 1025
3 1023 1022 1025
3 1018 1025 1024
3 1018 1024 1017
3 1017 1024 1026
3 1019 1017 1027
3 1027 1017 1026
3 938 1027 940
3 1019 1027 938
3 1021 941 1028
3 939 941 1021
3 1022 1021 1029
3 1029 1021 1028
3 1024 1022 1030
3 1030 1022 1029
3 1026 1024 1031
3 1031 1024 1030
3 943 1031 944
3 943 1027 1031
3 1027 1026 1031
3 940 1027 943
3 941 945 1028
3 948 1028 945
3 1029 1028 948
3 950 1029 948
3 1030 1029 950
3 952 1030 950
3 1031 1030 952
3 944 1031 952
3 972 971 1032
3 972 1033 973
3 1032 1033 972
3 973 1034 974
3 1033 1034 973
3 974 1034 975
3 1032 976 1035
3 971 976 1032
3 1033 1032 1036
3 1036 1032 1035
3 1034 1033 1037
3 1037 1033 1036
3 975 1037 977
3 1034 1037 975
3 1035 978 1038
3 976 978 1035
3 1036 1035 1039
3 1039 1035 1038
3 1037 1036 1040
3 1040 1036 1039
3 977 1041 979
3 977 1037 1041
3 1037 1040 1041
3 979 1041 980
3 1038 981 1042
3 978 981 1038
3 1039 1038 1043
3 1043 1038 1042
3 1040 1039 1044
3 1044 1039 1043
3 1041 1040 1045
3 1045 1040 1044
3 980 1045 982
3 1041 1045 980
3 1042 983 1046
3 981 983 1042
3 1043 1042 1047
3 1047 1042 1046
3 1044 1043 1048
3 1048 1043 1047
3 1045 1044 1049
3 1049 1044 1048
3 982 1049 984
3 1045 1049 982
3 983 985 1046
3 986 1046 985
3 986 1050 1046
3 1050 1047 1046
3 1048 1047 1051
3 1051 1047 1050
3 1049 1048 1052
3 1052 1048 1051
3 984 1052 987
3 1049 1052 984
3 986 988 1050
3 990 1050 988
3 1051 1050 990
3 992 1051 990
3 1052 1051 992
3 987 1052 992
3 998 997 1053
3 998 1054 999
3 1053 1054 998
3 999 1055 1000
3 1054 1055 999
3 1000 1055 1001
3 1053 1004 1056
3 997 1004 1053
3 1054 1053 1057
3 1057 1053 1056
3 1055 1054 1058
3 1058 1054 1057
3 1001 1058 1006
3 1055 1058 1001
3 1056 1008 1059
3 1004 1008 1056
3 1057 1056 1060
3 1060 1056 1059
3 1058 1057 1061
3 1061 1057 1060
3 1006 1061 1010
3 1058 1061 1006
3 1059 1012 1062
3 1008 1012 1059
3 1060 1059 1063
3 1063 1059 1062
3 1061 1060 1064
3 1064 1060 1063
3 1010 1064 1014
3 1061 1064 1010
3 1062 1016 1065
3 1012 1016 1062
3 1063 1062 1066
3 1066 1062 1065
3 1064 1063 1067
3 1067 1063 1066
3 1014 1067 1018
3 1064 1067 1014
3 1016 1020 1065
3 1023 1065 1020
3 1066 1065 1023
3 1025 1066 1023
3 1067 1066 1025
3 1018 1067 1025
