# vtk DataFile Version 3.0
this file was written using fslvtkio
ASCII
DATASET POLYDATA
POINTS 642 float
88.2121 139.108 77.3129
80.1 136.906 77.7072
77.5657 128.673 79.4928
84.6172 131.689 78.9661
84.4367 135.421 81.5527
85.6724 134.128 75.3635
80.1659 132.852 75.6951
80.4011 133.8 81.9408
83.7723 141.788 79.5126
80.6025 127.133 82.6332
80.9077 126.444 78.1173
84.1388 140.525 74.5539
82.0341 138.147 81.2253
84.9493 139.121 81.575
82.3536 134.603 83.0522
79.844 129.922 83.3995
82.4611 131.268 82.2638
82.1863 136.949 74.9732
82.8466 133.403 75.5141
85.5407 137.633 74.7548
80.0182 129.197 76.9488
83.3598 130.264 76.6293
84.4577 133.554 80.2449
86.6502 137.854 79.7976
86.9657 135.193 78.1236
85.7606 132.688 77.0104
88.1499 136.785 75.5958
79.9228 135.749 79.9339
78.6175 130.765 81.1339
78.3717 132.902 78.4321
79.6497 135.295 76.1811
77.8735 130.373 77.0207
87.4567 141.144 75.1587
87.0291 141.857 78.3354
84.383 142.424 76.4682
81.6447 139.448 75.7868
81.8844 139.705 78.4979
83.3529 128.27 78.7195
80.2217 124.671 80.602
82.6771 128.833 80.8135
77.5183 125.359 78.5707
78.0575 126.248 81.8915
83.3088 139.047 81.7634
83.717 137.057 82.6281
82.1261 136.656 82.4933
83.5371 135.044 82.4337
85.0785 137.083 81.9167
84.4442 140.853 80.6331
82.8897 140.175 80.4801
81.1171 135.99 81.6773
81.1316 134.267 82.7262
81.109 132.256 83.4362
82.478 132.742 82.9084
81.3426 130.373 83.2733
83.4285 133.418 81.9573
80.0657 131.921 82.7212
80.2334 128.24 83.3726
81.5954 129.057 82.5574
82.6514 135.222 75.2993
84.2179 135.645 75.0197
83.8266 137.373 74.837
85.7381 135.926 74.8656
84.3058 133.858 75.3853
81.4023 133.066 75.5813
81.1579 134.888 75.3546
83.1714 138.929 74.5477
84.9803 139.24 74.5713
81.6744 129.73 76.6636
83.0621 131.725 75.9379
81.5142 131.268 76.042
84.5555 132.254 75.9565
82.1213 128.423 77.3293
80.3646 127.72 77.5398
80.057 130.987 76.2206
85.5714 135.752 79.9265
86.6918 136.644 78.8665
85.8335 134.529 79.2925
87.6796 137.175 77.6919
87.554 138.662 78.5519
85.677 136.593 80.8459
84.244 134.621 80.8263
84.6129 132.475 79.6698
85.6615 133.536 78.5148
86.6078 133.945 77.4552
87.8613 135.831 76.9221
87.4684 134.494 76.1832
88.2937 137.952 76.4313
85.0918 132.091 78.0161
86.0133 133.196 76.0383
87.0677 135.413 75.1889
79.1708 133.22 80.5175
78.3985 131.9 79.8333
79.0423 134.143 79.3048
77.8403 130.79 78.9368
78.0447 129.549 80.3915
79.4558 132.263 81.6379
80.165 134.796 80.9823
79.9004 136.355 78.8009
79.2919 134.914 78.0602
78.8038 134.047 77.1839
77.9406 131.72 77.6322
78.4635 132.91 76.4014
77.42 129.334 78.2346
79.9091 136.149 76.9299
79.6636 134.126 75.7378
78.967 131.649 76.2394
87.9292 142.495 76.3491
85.9779 143.23 77.1684
86.154 142.697 75.2958
84.0626 142.596 78.0667
85.3806 142.384 79.067
88.0405 140.701 77.7393
88.3903 140.41 76.2305
85.7792 141.088 74.6268
84.3605 141.753 75.2474
82.9539 141.095 76.0777
83.0028 141.369 77.5219
81.8822 139.818 77.0898
82.8973 140.817 79.0092
82.8083 140.198 74.9665
80.7875 138.184 76.84
80.8822 138.292 78.1087
81.9106 126.112 79.6528
81.6459 126.508 80.8904
82.9177 128.174 79.8576
81.6194 127.802 81.7269
80.2382 125.645 81.8231
80.6543 124.911 79.0216
82.1212 127.244 78.3836
84.1298 129.944 78.9263
83.6972 130.257 79.8796
77.3049 125.025 80.4474
78.6987 124.392 81.7195
78.7376 124.052 79.5997
79.1823 126.189 82.8367
77.6962 127.304 80.597
77.2104 126.957 79.1504
79.3579 125.586 78.1898
86.1776 138.597 80.8061
86.0108 140.701 80.0854
87.2149 139.902 79.2791
87.9028 138.94 75.4317
86.564 139.41 74.8515
87.0596 137.37 74.9463
82.5059 129.957 81.5842
83.444 132.322 81.255
83.5667 131.164 80.599
84.593 130.401 77.8719
84.863 131.218 76.7317
83.5113 129.102 77.5693
81.8178 139.048 79.8866
80.9092 137.016 80.5601
80.8378 137.768 79.2958
80.5821 137.544 75.884
80.6701 136.264 75.3631
81.6501 138.443 74.9468
78.2845 128.444 81.6688
79.0683 130.177 82.3378
78.816 127.901 82.9644
78.6569 127.117 77.6355
78.6926 129.49 76.8165
77.3486 127.698 77.6993
83.5211 138.085 82.3255
82.8899 136.911 82.5829
82.7656 137.85 82.1985
82.2674 135.703 82.9056
82.989 135.887 82.8606
84.3644 138.182 82.1913
84.1271 139.177 81.7871
82.6112 138.588 81.5814
82.065 137.511 81.9265
83.6785 136.005 82.6276
84.4385 137.095 82.3732
84.2808 136.105 82.2404
85.0907 138.086 81.8831
82.9878 134.873 82.8278
84.0337 135.266 82.0037
84.7846 136.149 81.7969
83.8763 140.064 81.3106
82.9876 139.728 81.2014
83.5398 140.669 80.6902
82.4202 139.22 80.8905
84.7326 140.058 81.1408
84.062 141.521 80.1498
83.3347 141.048 80.0096
81.5768 136.408 82.1002
81.6422 135.506 82.653
81.1395 135.187 82.2362
81.6852 134.454 83.0059
81.5411 137.127 81.5087
80.7607 134.89 81.8001
80.7222 134.007 82.3154
81.8598 132.466 83.327
81.9454 131.598 83.1006
81.1902 131.288 83.3796
81.9585 130.836 82.8261
82.4568 131.932 82.6409
82.3883 133.622 83.074
81.7227 133.375 83.2778
80.4703 131.034 83.4185
80.6134 130.127 83.4876
82.988 133.008 82.4641
82.9789 133.892 82.7259
83.4652 134.188 82.2393
83.0066 132.319 82.1481
83.8684 134.546 81.7219
81.1121 133.268 83.1564
80.5264 132.078 83.1505
80.604 133.077 82.7502
79.9161 130.951 83.0845
80.2198 132.878 82.3229
80.8393 129.304 83.3882
81.5419 129.701 82.9612
80.9801 128.632 83.0625
82.0476 130.166 82.4732
80.0292 129.009 83.5408
80.4308 127.577 83.0582
81.1157 128.053 82.6415
83.4436 135.441 75.2065
84.0742 136.486 74.9675
83.2433 136.304 75.0667
84.6872 137.487 74.7527
84.8971 136.663 74.8631
83.5646 134.59 75.2769
82.8051 134.35 75.3733
82.4372 136.086 75.1315
82.9943 137.143 74.9206
84.9956 135.825 74.9487
84.269 134.751 75.1692
85.0417 134.87 75.0962
83.574 133.656 75.4747
85.6907 136.781 74.8127
85.7219 134.94 75.0428
85.0069 133.977 75.3337
82.0484 134.167 75.4195
81.9042 135.056 75.2963
81.2962 133.977 75.4074
81.6731 135.915 75.1742
82.1442 133.27 75.5478
80.7299 132.933 75.6047
80.6036 133.824 75.4725
83.4999 138.121 74.7121
84.4012 138.31 74.6811
84.0559 139.069 74.4967
85.2529 138.431 74.6956
82.7067 137.925 74.7664
83.6362 139.799 74.3879
84.5598 139.951 74.448
82.4085 130.69 76.2922
82.2906 131.525 75.987
81.6214 130.473 76.3631
82.2054 132.346 75.763
82.9406 132.551 75.6856
83.1857 130.967 76.2593
82.5261 129.977 76.5788
80.8727 129.497 76.8041
80.7996 130.21 76.4984
83.6729 132.782 75.6561
83.7815 131.979 75.9775
84.4421 133.021 75.6115
83.9367 131.266 76.3207
85.183 133.216 75.5883
81.9109 129.053 76.8946
81.0375 128.744 77.0475
81.2206 128.083 77.4128
80.1661 128.432 77.2323
82.7788 129.34 76.9184
81.4076 127.513 77.7879
80.5807 127.104 77.8418
80.7331 131.053 76.154
81.4816 132.15 75.8066
80.7409 132.002 75.8321
80.026 130.085 76.585
80.0938 131.939 75.924
86.1728 136.239 79.4254
86.341 135.536 79.0826
85.7184 135.135 79.6162
86.4273 134.913 78.7407
86.8567 135.906 78.5093
86.6181 137.26 79.3005
86.069 136.822 79.8058
84.991 134.708 80.0425
85.1269 134.12 79.7707
87.1702 136.922 78.2767
87.1069 137.65 78.7026
87.616 137.935 78.0995
87.1106 138.275 79.1762
87.2917 136.197 77.8852
87.9809 138.169 77.465
87.957 138.926 77.9075
85.5908 136.232 80.3517
84.8805 135.248 80.3836
84.9627 135.661 80.7987
84.3375 134.142 80.5002
86.1223 137.279 80.3048
85.0532 135.984 81.271
84.3108 135.015 81.2115
85.2735 133.518 79.5073
85.7596 134.028 78.8902
85.1948 133.073 79.1336
86.3366 134.382 78.3423
84.5987 132.979 79.976
84.6289 132.088 79.2815
85.107 132.632 78.7292
87.3917 134.781 77.2296
87.8275 135.164 76.5495
87.1454 134.2 76.8596
87.8885 135.585 75.889
88.1018 136.247 76.2347
87.4425 135.503 77.5536
86.8468 134.571 77.7928
86.2873 133.339 77.1478
86.6848 133.61 76.5685
88.1388 136.854 76.6504
87.7218 136.486 77.3153
88.0204 137.522 77.051
88.2738 137.339 76.0082
88.2677 138.596 76.8481
86.0947 133.826 77.962
85.7774 133.096 77.6593
85.4147 132.894 78.1987
85.4598 132.344 77.5088
84.8229 131.935 78.5121
86.7937 133.938 76.0296
87.4054 134.971 75.6293
86.6349 134.342 75.6371
87.6956 136.089 75.3637
85.9909 132.959 76.4862
85.8845 133.652 75.644
86.3489 134.717 75.2188
78.7386 132.532 80.2192
78.7011 133.023 79.5592
79.0803 133.73 79.9158
78.666 133.47 78.9208
78.3629 132.449 79.1549
78.5269 131.361 80.4805
78.8522 131.995 80.8089
79.5607 134.443 80.1983
79.4924 134.833 79.6595
78.0711 131.354 79.4217
78.1818 130.764 80.1254
77.9556 130.24 79.6927
78.2768 130.131 80.7828
78.09 131.859 78.7189
77.7491 129.71 79.2431
77.8324 129.139 79.9042
79.2967 132.704 81.0867
79.6548 133.992 80.7515
79.7832 133.493 81.2794
80.0232 135.223 80.4707
78.9941 131.509 81.3986
79.9413 133.047 81.8214
80.2791 134.304 81.4821
79.457 135.241 79.0804
79.0829 134.524 78.6959
79.5817 135.553 78.4759
78.7731 133.911 78.2661
79.8959 136.029 79.376
79.999 136.58 78.232
79.7665 135.871 77.8925
78.309 132.931 77.3693
78.1904 132.345 76.9729
78.5393 133.565 76.7594
78.1825 131.672 76.6988
77.804 131.094 77.2535
78.168 132.337 78.0163
78.5752 133.456 77.7846
79.2214 134.594 76.6668
78.9659 134.109 76.2659
77.6519 130.572 77.8932
77.8637 131.296 78.296
77.6654 130.122 78.5565
77.5864 129.806 77.585
77.474 128.998 78.8908
79.0157 134.463 77.6629
79.4545 134.991 77.073
79.6208 135.442 77.4935
79.7473 135.77 76.533
80.0055 136.519 77.3425
79.0229 133.547 76.0433
78.6257 132.26 76.2612
79.2603 132.886 75.9002
78.3571 131.014 76.5478
79.5552 134.696 75.9469
79.9108 133.447 75.6592
79.5906 132.281 75.9398
87.0503 143.032 76.6842
86.1476 143.097 76.1245
87.1859 142.801 75.6746
85.2367 142.747 75.862
85.1381 142.996 76.6893
86.694 142.736 77.707
87.5179 142.323 77.3216
87.8032 142.017 75.5459
86.9879 142.125 75.0875
84.9318 143.017 77.6417
85.6959 142.905 78.1559
84.695 142.65 78.5509
86.2335 142.197 78.6635
84.2878 142.591 77.2548
83.8599 142.238 78.8401
84.4608 142.17 79.3855
88.0938 141.63 77.0811
88.3381 141.594 76.2595
88.3424 140.697 76.9311
88.1141 140.938 75.6347
87.6562 141.398 77.9648
88.235 139.91 77.5305
88.3898 139.731 76.7944
86.0444 141.996 74.9142
85.1918 142.283 75.2554
85.0927 141.541 74.8536
84.4003 142.2 75.7707
86.61 141.222 74.8863
84.9137 140.798 74.5197
84.1875 141.164 74.7999
83.0304 141.304 76.7819
82.4446 140.572 77.2845
82.4103 140.453 76.5955
81.9134 139.832 77.7753
82.4973 140.472 77.9712
83.626 142.014 76.9919
83.6617 141.825 76.2696
82.3379 140.252 75.9558
81.8122 139.633 76.4351
83.0105 141.154 78.2194
83.506 142.129 77.7275
83.4068 141.817 78.5149
82.4256 140.266 78.7165
83.3043 141.385 79.2897
83.6183 141.551 75.6576
82.8729 140.728 75.5069
83.4959 141.054 75.09
82.2501 139.887 75.3547
83.4016 140.434 74.6326
81.2658 139.06 76.9426
81.3213 139.179 77.5925
80.8894 138.281 77.4762
81.3572 139.077 78.25
81.1995 138.828 76.3369
80.3697 137.557 77.2988
80.4056 137.58 77.9146
81.7317 126.219 80.2979
82.3294 127.267 80.3812
82.4391 127.136 79.7654
82.7265 128.36 80.3913
82.2334 127.624 80.8917
80.9084 125.571 80.7583
81.0394 125.324 80.1252
82.5469 127.196 79.1759
83.0347 128.046 79.3046
81.657 127.081 81.3504
80.9445 125.98 81.3294
80.9989 126.653 81.8187
80.2288 125.032 81.274
82.1764 128.239 81.282
81.1555 127.407 82.2037
80.3762 126.39 82.2852
81.2681 125.364 79.4191
81.9542 126.53 78.9835
81.4385 125.888 78.7408
82.7736 127.629 78.5698
80.4711 124.611 79.8223
80.8362 125.583 78.4829
81.494 126.875 78.2536
83.5102 128.993 79.3906
83.2995 129.174 79.901
83.8383 129.99 79.4135
83.1262 129.49 80.3358
83.7182 129.09 78.8636
84.4112 130.852 78.9527
84.2632 130.956 79.4389
77.9108 124.376 81.1902
78.6815 123.992 80.7058
77.8754 124.246 80.1177
79.5238 124.16 80.1608
79.4866 124.327 81.1931
78.148 125.114 81.9397
77.6084 125.419 81.2699
77.2708 124.938 79.495
77.9781 124.534 79.1274
79.516 124.896 81.8378
78.8488 125.189 82.3385
79.6329 125.792 82.3329
78.5269 126.085 82.4689
79.9098 126.635 82.8006
77.3989 126.096 80.5919
77.1779 125.906 79.7318
77.3692 127.054 79.9197
77.1262 126.007 78.8673
77.7968 126.651 81.2337
77.6448 128.052 80.0195
77.364 127.869 79.3345
78.9523 124.647 78.7487
79.7909 124.348 79.2734
80.0597 125.059 78.5366
78.3947 125.244 78.3327
80.1813 125.99 78.1473
86.1578 139.651 80.5091
86.6771 140.348 79.6886
86.7431 139.282 80.0789
87.1984 140.928 78.8406
86.544 141.361 79.2178
85.5094 139.92 80.8842
85.6193 138.876 81.2286
86.5153 138.266 80.311
87.0442 138.829 79.6183
85.7891 141.664 79.5613
85.2525 140.85 80.3772
84.9101 141.738 79.9016
85.6539 137.874 81.4014
85.9721 137.585 80.8339
85.3951 136.847 81.3686
87.468 139.331 78.9188
87.6254 140.438 78.4866
87.872 139.701 78.1977
87.3461 139.313 75.0815
86.8185 138.411 74.9686
87.546 138.129 75.1804
86.3443 137.565 74.8512
86.0664 138.475 74.8123
87.048 140.311 74.9075
87.7873 140.139 75.2587
88.0808 137.791 75.4975
87.7242 137.124 75.1837
85.8066 139.366 74.7126
86.2476 140.339 74.713
85.4312 140.149 74.5359
88.2119 139.802 75.7699
88.2469 138.465 75.8987
88.3935 139.183 76.3352
87.1242 136.392 75.0139
86.3958 136.656 74.8486
86.4002 135.655 74.9685
82.9576 131.135 81.4296
83.4547 131.748 80.9008
83.0386 130.511 81.082
83.9813 132.348 80.446
83.899 132.964 80.7152
82.9765 131.709 81.7773
82.4331 130.616 81.9104
82.6192 129.364 81.2164
83.0829 130.01 80.7015
83.8582 133.467 81.048
83.4751 132.759 81.6465
83.8296 133.995 81.3876
82.0684 129.494 82.0848
82.1103 128.832 81.6727
81.658 128.412 82.1636
83.6089 130.624 80.2746
84.0853 131.83 80.1412
84.1996 131.342 79.809
84.8498 130.78 77.2759
84.2135 130.161 77.1361
84.171 129.683 77.7083
83.4931 129.673 77.0326
84.0984 130.712 76.6834
85.3741 131.901 76.8621
85.1987 131.521 77.4308
84.0007 129.34 78.2964
83.457 128.655 78.1301
84.6659 131.666 76.3232
85.3615 132.221 76.4225
85.2991 132.668 75.9478
84.8875 131.265 77.9375
84.3565 130.067 78.4099
84.6278 131.038 78.4531
82.8925 128.162 77.9761
82.8837 128.708 77.4116
82.153 127.828 77.8348
81.4108 138.02 80.2209
80.857 137.437 79.9299
81.3372 138.428 79.5609
80.2788 136.814 79.6515
80.4115 136.408 80.2314
81.4809 137.605 80.8785
81.9003 138.631 80.5651
81.8252 139.384 79.1899
81.301 138.785 78.9019
80.5162 135.933 80.774
81.0854 136.549 81.1149
80.6673 135.417 81.2993
82.3297 139.6 80.1926
82.3751 139.89 79.4328
82.8825 140.475 79.734
80.8475 138.065 78.6898
80.2494 137.123 79.0678
80.3144 137.385 78.4583
80.5558 136.949 75.5342
81.1263 137.37 75.1344
81.0411 138.045 75.3906
81.8866 137.684 74.886
81.4066 136.632 75.1483
80.114 135.834 75.7731
80.0575 136.467 76.0061
81.1123 138.535 75.8304
81.5791 139.057 75.2776
80.9279 135.589 75.3573
80.1976 135.199 75.6454
80.3779 134.503 75.4982
80.1547 136.883 76.3985
80.6823 137.893 76.3399
80.2544 137.252 76.8415
82.1621 139.364 74.9066
82.3844 138.624 74.7122
82.8814 139.666 74.5432
78.6444 129.314 82.0587
78.9007 129.047 82.6857
78.5222 128.14 82.3152
79.3009 128.941 83.246
79.3377 130.006 82.9361
78.756 130.406 81.7648
78.4453 129.613 81.4164
78.0991 127.319 81.8459
78.3759 127.013 82.5113
79.5137 131.019 82.5862
79.2233 131.212 81.985
79.7358 132.051 82.185
78.1493 128.962 81.0355
77.963 127.762 81.2014
77.9048 128.411 80.5389
78.9098 126.921 83.0462
79.4567 127.997 83.4025
79.6833 127.196 83.1996
78.5882 128.192 77.2785
77.9818 128.484 77.2132
77.9142 127.184 77.588
77.5921 129.037 77.3717
78.1903 129.807 76.8964
79.2921 129.235 76.9056
79.3329 128.171 77.3345
77.9955 126.097 77.9227
77.3204 126.442 78.1153
78.7551 130.538 76.4799
79.3773 130.208 76.5103
79.4657 131.27 76.2009
79.5102 127.44 77.6476
78.8806 126.224 77.8511
79.7811 126.679 77.9079
77.1851 127.248 78.4126
77.3159 128.61 77.9317
77.2635 128.208 78.6678
POLYGONS 1280  5120
3 164 162 163
3 163 44 164
3 162 43 163
3 164 42 162
3 166 165 163
3 163 43 166
3 165 44 163
3 166 14 165
3 168 167 162
3 162 42 168
3 167 43 162
3 168 13 167
3 170 169 164
3 164 44 170
3 169 42 164
3 170 12 169
3 173 171 172
3 172 46 173
3 171 43 172
3 173 45 171
3 167 174 172
3 172 43 167
3 174 46 172
3 167 13 174
3 175 166 171
3 171 45 175
3 166 43 171
3 175 14 166
3 177 176 173
3 173 46 177
3 176 45 173
3 177 4 176
3 180 178 179
3 179 48 180
3 178 42 179
3 180 47 178
3 169 181 179
3 179 42 169
3 181 48 179
3 169 12 181
3 182 168 178
3 178 47 182
3 168 42 178
3 182 13 168
3 184 183 180
3 180 48 184
3 183 47 180
3 184 8 183
3 187 185 186
3 186 50 187
3 185 44 186
3 187 49 185
3 165 188 186
3 186 44 165
3 188 50 186
3 165 14 188
3 189 170 185
3 185 49 189
3 170 44 185
3 189 12 170
3 191 190 187
3 187 50 191
3 190 49 187
3 191 7 190
3 194 192 193
3 193 53 194
3 192 52 193
3 194 51 192
3 196 195 193
3 193 52 196
3 195 53 193
3 196 16 195
3 198 197 192
3 192 51 198
3 197 52 192
3 198 14 197
3 200 199 194
3 194 53 200
3 199 51 194
3 200 15 199
3 203 201 202
3 202 45 203
3 201 52 202
3 203 54 201
3 197 175 202
3 202 52 197
3 175 45 202
3 197 14 175
3 204 196 201
3 201 54 204
3 196 52 201
3 204 16 196
3 176 205 203
3 203 45 176
3 205 54 203
3 176 4 205
3 208 206 207
3 207 55 208
3 206 51 207
3 208 50 206
3 199 209 207
3 207 51 199
3 209 55 207
3 199 15 209
3 188 198 206
3 206 50 188
3 198 51 206
3 188 14 198
3 210 191 208
3 208 55 210
3 191 50 208
3 210 7 191
3 213 211 212
3 212 57 213
3 211 53 212
3 213 56 211
3 195 214 212
3 212 53 195
3 214 57 212
3 195 16 214
3 215 200 211
3 211 56 215
3 200 53 211
3 215 15 200
3 217 216 213
3 213 57 217
3 216 56 213
3 217 9 216
3 220 218 219
3 219 60 220
3 218 59 219
3 220 58 218
3 222 221 219
3 219 59 222
3 221 60 219
3 222 19 221
3 224 223 218
3 218 58 224
3 223 59 218
3 224 18 223
3 226 225 220
3 220 60 226
3 225 58 220
3 226 17 225
3 229 227 228
3 228 62 229
3 227 59 228
3 229 61 227
3 223 230 228
3 228 59 223
3 230 62 228
3 223 18 230
3 231 222 227
3 227 61 231
3 222 59 227
3 231 19 222
3 233 232 229
3 229 62 233
3 232 61 229
3 233 5 232
3 236 234 235
3 235 64 236
3 234 58 235
3 236 63 234
3 225 237 235
3 235 58 225
3 237 64 235
3 225 17 237
3 238 224 234
3 234 63 238
3 224 58 234
3 238 18 224
3 240 239 236
3 236 64 240
3 239 63 236
3 240 6 239
3 243 241 242
3 242 66 243
3 241 60 242
3 243 65 241
3 221 244 242
3 242 60 221
3 244 66 242
3 221 19 244
3 245 226 241
3 241 65 245
3 226 60 241
3 245 17 226
3 247 246 243
3 243 66 247
3 246 65 243
3 247 11 246
3 250 248 249
3 249 69 250
3 248 68 249
3 250 67 248
3 252 251 249
3 249 68 252
3 251 69 249
3 252 18 251
3 254 253 248
3 248 67 254
3 253 68 248
3 254 21 253
3 256 255 250
3 250 69 256
3 255 67 250
3 256 20 255
3 259 257 258
3 258 70 259
3 257 68 258
3 259 62 257
3 253 260 258
3 258 68 253
3 260 70 258
3 253 21 260
3 230 252 257
3 257 62 230
3 252 68 257
3 230 18 252
3 261 233 259
3 259 70 261
3 233 62 259
3 261 5 233
3 264 262 263
3 263 72 264
3 262 67 263
3 264 71 262
3 255 265 263
3 263 67 255
3 265 72 263
3 255 20 265
3 266 254 262
3 262 71 266
3 254 67 262
3 266 21 254
3 268 267 264
3 264 72 268
3 267 71 264
3 268 10 267
3 271 269 270
3 270 63 271
3 269 69 270
3 271 73 269
3 251 238 270
3 270 69 251
3 238 63 270
3 251 18 238
3 272 256 269
3 269 73 272
3 256 69 269
3 272 20 256
3 239 273 271
3 271 63 239
3 273 73 271
3 239 6 273
3 276 274 275
3 275 76 276
3 274 75 275
3 276 74 274
3 278 277 275
3 275 75 278
3 277 76 275
3 278 24 277
3 280 279 274
3 274 74 280
3 279 75 274
3 280 23 279
3 282 281 276
3 276 76 282
3 281 74 276
3 282 22 281
3 285 283 284
3 284 78 285
3 283 75 284
3 285 77 283
3 279 286 284
3 284 75 279
3 286 78 284
3 279 23 286
3 287 278 283
3 283 77 287
3 278 75 283
3 287 24 278
3 289 288 285
3 285 78 289
3 288 77 285
3 289 0 288
3 292 290 291
3 291 80 292
3 290 74 291
3 292 79 290
3 281 293 291
3 291 74 281
3 293 80 291
3 281 22 293
3 294 280 290
3 290 79 294
3 280 74 290
3 294 23 280
3 296 295 292
3 292 80 296
3 295 79 292
3 296 4 295
3 299 297 298
3 298 82 299
3 297 76 298
3 299 81 297
3 277 300 298
3 298 76 277
3 300 82 298
3 277 24 300
3 301 282 297
3 297 81 301
3 282 76 297
3 301 22 282
3 303 302 299
3 299 82 303
3 302 81 299
3 303 3 302
3 306 304 305
3 305 85 306
3 304 84 305
3 306 83 304
3 308 307 305
3 305 84 308
3 307 85 305
3 308 26 307
3 310 309 304
3 304 83 310
3 309 84 304
3 310 24 309
3 312 311 306
3 306 85 312
3 311 83 306
3 312 25 311
3 315 313 314
3 314 77 315
3 313 84 314
3 315 86 313
3 309 287 314
3 314 84 309
3 287 77 314
3 309 24 287
3 316 308 313
3 313 86 316
3 308 84 313
3 316 26 308
3 288 317 315
3 315 77 288
3 317 86 315
3 288 0 317
3 320 318 319
3 319 87 320
3 318 83 319
3 320 82 318
3 311 321 319
3 319 83 311
3 321 87 319
3 311 25 321
3 300 310 318
3 318 82 300
3 310 83 318
3 300 24 310
3 322 303 320
3 320 87 322
3 303 82 320
3 322 3 303
3 325 323 324
3 324 89 325
3 323 85 324
3 325 88 323
3 307 326 324
3 324 85 307
3 326 89 324
3 307 26 326
3 327 312 323
3 323 88 327
3 312 85 323
3 327 25 312
3 329 328 325
3 325 89 329
3 328 88 325
3 329 5 328
3 332 330 331
3 331 92 332
3 330 91 331
3 332 90 330
3 334 333 331
3 331 91 334
3 333 92 331
3 334 29 333
3 336 335 330
3 330 90 336
3 335 91 330
3 336 28 335
3 338 337 332
3 332 92 338
3 337 90 332
3 338 27 337
3 341 339 340
3 340 94 341
3 339 91 340
3 341 93 339
3 335 342 340
3 340 91 335
3 342 94 340
3 335 28 342
3 343 334 339
3 339 93 343
3 334 91 339
3 343 29 334
3 345 344 341
3 341 94 345
3 344 93 341
3 345 2 344
3 348 346 347
3 347 96 348
3 346 90 347
3 348 95 346
3 337 349 347
3 347 90 337
3 349 96 347
3 337 27 349
3 350 336 346
3 346 95 350
3 336 90 346
3 350 28 336
3 352 351 348
3 348 96 352
3 351 95 348
3 352 7 351
3 355 353 354
3 354 98 355
3 353 92 354
3 355 97 353
3 333 356 354
3 354 92 333
3 356 98 354
3 333 29 356
3 357 338 353
3 353 97 357
3 338 92 353
3 357 27 338
3 359 358 355
3 355 98 359
3 358 97 355
3 359 1 358
3 362 360 361
3 361 101 362
3 360 100 361
3 362 99 360
3 364 363 361
3 361 100 364
3 363 101 361
3 364 31 363
3 366 365 360
3 360 99 366
3 365 100 360
3 366 29 365
3 368 367 362
3 362 101 368
3 367 99 362
3 368 30 367
3 371 369 370
3 370 93 371
3 369 100 370
3 371 102 369
3 365 343 370
3 370 100 365
3 343 93 370
3 365 29 343
3 372 364 369
3 369 102 372
3 364 100 369
3 372 31 364
3 344 373 371
3 371 93 344
3 373 102 371
3 344 2 373
3 376 374 375
3 375 103 376
3 374 99 375
3 376 98 374
3 367 377 375
3 375 99 367
3 377 103 375
3 367 30 377
3 356 366 374
3 374 98 356
3 366 99 374
3 356 29 366
3 378 359 376
3 376 103 378
3 359 98 376
3 378 1 359
3 381 379 380
3 380 105 381
3 379 101 380
3 381 104 379
3 363 382 380
3 380 101 363
3 382 105 380
3 363 31 382
3 383 368 379
3 379 104 383
3 368 101 379
3 383 30 368
3 385 384 381
3 381 105 385
3 384 104 381
3 385 6 384
3 388 386 387
3 387 108 388
3 386 107 387
3 388 106 386
3 390 389 387
3 387 107 390
3 389 108 387
3 390 34 389
3 392 391 386
3 386 106 392
3 391 107 386
3 392 33 391
3 394 393 388
3 388 108 394
3 393 106 388
3 394 32 393
3 397 395 396
3 396 110 397
3 395 107 396
3 397 109 395
3 391 398 396
3 396 107 391
3 398 110 396
3 391 33 398
3 399 390 395
3 395 109 399
3 390 107 395
3 399 34 390
3 401 400 397
3 397 110 401
3 400 109 397
3 401 8 400
3 404 402 403
3 403 112 404
3 402 106 403
3 404 111 402
3 393 405 403
3 403 106 393
3 405 112 403
3 393 32 405
3 406 392 402
3 402 111 406
3 392 106 402
3 406 33 392
3 408 407 404
3 404 112 408
3 407 111 404
3 408 0 407
3 411 409 410
3 410 114 411
3 409 108 410
3 411 113 409
3 389 412 410
3 410 108 389
3 412 114 410
3 389 34 412
3 413 394 409
3 409 113 413
3 394 108 409
3 413 32 394
3 415 414 411
3 411 114 415
3 414 113 411
3 415 11 414
3 418 416 417
3 417 117 418
3 416 116 417
3 418 115 416
3 420 419 417
3 417 116 420
3 419 117 417
3 420 36 419
3 422 421 416
3 416 115 422
3 421 116 416
3 422 34 421
3 424 423 418
3 418 117 424
3 423 115 418
3 424 35 423
3 427 425 426
3 426 109 427
3 425 116 426
3 427 118 425
3 421 399 426
3 426 116 421
3 399 109 426
3 421 34 399
3 428 420 425
3 425 118 428
3 420 116 425
3 428 36 420
3 400 429 427
3 427 109 400
3 429 118 427
3 400 8 429
3 432 430 431
3 431 119 432
3 430 115 431
3 432 114 430
3 423 433 431
3 431 115 423
3 433 119 431
3 423 35 433
3 412 422 430
3 430 114 412
3 422 115 430
3 412 34 422
3 434 415 432
3 432 119 434
3 415 114 432
3 434 11 415
3 437 435 436
3 436 121 437
3 435 117 436
3 437 120 435
3 419 438 436
3 436 117 419
3 438 121 436
3 419 36 438
3 439 424 435
3 435 120 439
3 424 117 435
3 439 35 424
3 441 440 437
3 437 121 441
3 440 120 437
3 441 1 440
3 444 442 443
3 443 124 444
3 442 123 443
3 444 122 442
3 446 445 443
3 443 123 446
3 445 124 443
3 446 39 445
3 448 447 442
3 442 122 448
3 447 123 442
3 448 38 447
3 450 449 444
3 444 124 450
3 449 122 444
3 450 37 449
3 453 451 452
3 452 126 453
3 451 123 452
3 453 125 451
3 447 454 452
3 452 123 447
3 454 126 452
3 447 38 454
3 455 446 451
3 451 125 455
3 446 123 451
3 455 39 446
3 457 456 453
3 453 126 457
3 456 125 453
3 457 9 456
3 460 458 459
3 459 128 460
3 458 122 459
3 460 127 458
3 449 461 459
3 459 122 449
3 461 128 459
3 449 37 461
3 462 448 458
3 458 127 462
3 448 122 458
3 462 38 448
3 464 463 460
3 460 128 464
3 463 127 460
3 464 10 463
3 467 465 466
3 466 130 467
3 465 124 466
3 467 129 465
3 445 468 466
3 466 124 445
3 468 130 466
3 445 39 468
3 469 450 465
3 465 129 469
3 450 124 465
3 469 37 450
3 471 470 467
3 467 130 471
3 470 129 467
3 471 3 470
3 474 472 473
3 473 133 474
3 472 132 473
3 474 131 472
3 476 475 473
3 473 132 476
3 475 133 473
3 476 38 475
3 478 477 472
3 472 131 478
3 477 132 472
3 478 41 477
3 480 479 474
3 474 133 480
3 479 131 474
3 480 40 479
3 483 481 482
3 482 134 483
3 481 132 482
3 483 126 481
3 477 484 482
3 482 132 477
3 484 134 482
3 477 41 484
3 454 476 481
3 481 126 454
3 476 132 481
3 454 38 476
3 485 457 483
3 483 134 485
3 457 126 483
3 485 9 457
3 488 486 487
3 487 136 488
3 486 131 487
3 488 135 486
3 479 489 487
3 487 131 479
3 489 136 487
3 479 40 489
3 490 478 486
3 486 135 490
3 478 131 486
3 490 41 478
3 492 491 488
3 488 136 492
3 491 135 488
3 492 2 491
3 495 493 494
3 494 127 495
3 493 133 494
3 495 137 493
3 475 462 494
3 494 133 475
3 462 127 494
3 475 38 462
3 496 480 493
3 493 137 496
3 480 133 493
3 496 40 480
3 463 497 495
3 495 127 463
3 497 137 495
3 463 10 497
3 500 498 499
3 499 140 500
3 498 139 499
3 500 138 498
3 502 501 499
3 499 139 502
3 501 140 499
3 502 33 501
3 504 503 498
3 498 138 504
3 503 139 498
3 504 13 503
3 506 505 500
3 500 140 506
3 505 138 500
3 506 23 505
3 509 507 508
3 508 47 509
3 507 139 508
3 509 110 507
3 503 182 508
3 508 139 503
3 182 47 508
3 503 13 182
3 398 502 507
3 507 110 398
3 502 139 507
3 398 33 502
3 183 401 509
3 509 47 183
3 401 110 509
3 183 8 401
3 512 510 511
3 511 79 512
3 510 138 511
3 512 46 510
3 505 294 511
3 511 138 505
3 294 79 511
3 505 23 294
3 174 504 510
3 510 46 174
3 504 138 510
3 174 13 504
3 295 177 512
3 512 79 295
3 177 46 512
3 295 4 177
3 515 513 514
3 514 111 515
3 513 140 514
3 515 78 513
3 501 406 514
3 514 140 501
3 406 111 514
3 501 33 406
3 286 506 513
3 513 78 286
3 506 140 513
3 286 23 506
3 407 289 515
3 515 111 407
3 289 78 515
3 407 0 289
3 518 516 517
3 517 143 518
3 516 142 517
3 518 141 516
3 520 519 517
3 517 142 520
3 519 143 517
3 520 19 519
3 522 521 516
3 516 141 522
3 521 142 516
3 522 32 521
3 524 523 518
3 518 143 524
3 523 141 518
3 524 26 523
3 527 525 526
3 526 113 527
3 525 142 526
3 527 66 525
3 521 413 526
3 526 142 521
3 413 113 526
3 521 32 413
3 244 520 525
3 525 66 244
3 520 142 525
3 244 19 520
3 414 247 527
3 527 113 414
3 247 66 527
3 414 11 247
3 530 528 529
3 529 86 530
3 528 141 529
3 530 112 528
3 523 316 529
3 529 141 523
3 316 86 529
3 523 26 316
3 405 522 528
3 528 112 405
3 522 141 528
3 405 32 522
3 317 408 530
3 530 86 317
3 408 112 530
3 317 0 408
3 533 531 532
3 532 61 533
3 531 143 532
3 533 89 531
3 519 231 532
3 532 143 519
3 231 61 532
3 519 19 231
3 326 524 531
3 531 89 326
3 524 143 531
3 326 26 524
3 232 329 533
3 533 61 232
3 329 89 533
3 232 5 329
3 536 534 535
3 535 146 536
3 534 145 535
3 536 144 534
3 538 537 535
3 535 145 538
3 537 146 535
3 538 22 537
3 540 539 534
3 534 144 540
3 539 145 534
3 540 16 539
3 542 541 536
3 536 146 542
3 541 144 536
3 542 39 541
3 545 543 544
3 544 54 545
3 543 145 544
3 545 80 543
3 539 204 544
3 544 145 539
3 204 54 544
3 539 16 204
3 293 538 543
3 543 80 293
3 538 145 543
3 293 22 538
3 205 296 545
3 545 54 205
3 296 80 545
3 205 4 296
3 548 546 547
3 547 125 548
3 546 144 547
3 548 57 546
3 541 455 547
3 547 144 541
3 455 125 547
3 541 39 455
3 214 540 546
3 546 57 214
3 540 144 546
3 214 16 540
3 456 217 548
3 548 125 456
3 217 57 548
3 456 9 217
3 551 549 550
3 550 81 551
3 549 146 550
3 551 130 549
3 537 301 550
3 550 146 537
3 301 81 550
3 537 22 301
3 468 542 549
3 549 130 468
3 542 146 549
3 468 39 542
3 302 471 551
3 551 81 302
3 471 130 551
3 302 3 471
3 554 552 553
3 553 149 554
3 552 148 553
3 554 147 552
3 556 555 553
3 553 148 556
3 555 149 553
3 556 21 555
3 558 557 552
3 552 147 558
3 557 148 552
3 558 25 557
3 560 559 554
3 554 149 560
3 559 147 554
3 560 37 559
3 563 561 562
3 562 88 563
3 561 148 562
3 563 70 561
3 557 327 562
3 562 148 557
3 327 88 562
3 557 25 327
3 260 556 561
3 561 70 260
3 556 148 561
3 260 21 556
3 328 261 563
3 563 88 328
3 261 70 563
3 328 5 261
3 566 564 565
3 565 129 566
3 564 147 565
3 566 87 564
3 559 469 565
3 565 147 559
3 469 129 565
3 559 37 469
3 321 558 564
3 564 87 321
3 558 147 564
3 321 25 558
3 470 322 566
3 566 129 470
3 322 87 566
3 470 3 322
3 569 567 568
3 568 71 569
3 567 149 568
3 569 128 567
3 555 266 568
3 568 149 555
3 266 71 568
3 555 21 266
3 461 560 567
3 567 128 461
3 560 149 567
3 461 37 560
3 267 464 569
3 569 71 267
3 464 128 569
3 267 10 464
3 572 570 571
3 571 152 572
3 570 151 571
3 572 150 570
3 574 573 571
3 571 151 574
3 573 152 571
3 574 27 573
3 576 575 570
3 570 150 576
3 575 151 570
3 576 12 575
3 578 577 572
3 572 152 578
3 577 150 572
3 578 36 577
3 581 579 580
3 580 49 581
3 579 151 580
3 581 96 579
3 575 189 580
3 580 151 575
3 189 49 580
3 575 12 189
3 349 574 579
3 579 96 349
3 574 151 579
3 349 27 574
3 190 352 581
3 581 49 190
3 352 96 581
3 190 7 352
3 584 582 583
3 583 118 584
3 582 150 583
3 584 48 582
3 577 428 583
3 583 150 577
3 428 118 583
3 577 36 428
3 181 576 582
3 582 48 181
3 576 150 582
3 181 12 576
3 429 184 584
3 584 118 429
3 184 48 584
3 429 8 184
3 587 585 586
3 586 97 587
3 585 152 586
3 587 121 585
3 573 357 586
3 586 152 573
3 357 97 586
3 573 27 357
3 438 578 585
3 585 121 438
3 578 152 585
3 438 36 578
3 358 441 587
3 587 97 358
3 441 121 587
3 358 1 441
3 590 588 589
3 589 155 590
3 588 154 589
3 590 153 588
3 592 591 589
3 589 154 592
3 591 155 589
3 592 17 591
3 594 593 588
3 588 153 594
3 593 154 588
3 594 30 593
3 596 595 590
3 590 155 596
3 595 153 590
3 596 35 595
3 599 597 598
3 598 104 599
3 597 154 598
3 599 64 597
3 593 383 598
3 598 154 593
3 383 104 598
3 593 30 383
3 237 592 597
3 597 64 237
3 592 154 597
3 237 17 592
3 384 240 599
3 599 104 384
3 240 64 599
3 384 6 240
3 602 600 601
3 601 120 602
3 600 153 601
3 602 103 600
3 595 439 601
3 601 153 595
3 439 120 601
3 595 35 439
3 377 594 600
3 600 103 377
3 594 153 600
3 377 30 594
3 440 378 602
3 602 120 440
3 378 103 602
3 440 1 378
3 605 603 604
3 604 65 605
3 603 155 604
3 605 119 603
3 591 245 604
3 604 155 591
3 245 65 604
3 591 17 245
3 433 596 603
3 603 119 433
3 596 155 603
3 433 35 596
3 246 434 605
3 605 65 246
3 434 119 605
3 246 11 434
3 608 606 607
3 607 158 608
3 606 157 607
3 608 156 606
3 610 609 607
3 607 157 610
3 609 158 607
3 610 15 609
3 612 611 606
3 606 156 612
3 611 157 606
3 612 28 611
3 614 613 608
3 608 158 614
3 613 156 608
3 614 41 613
3 617 615 616
3 616 95 617
3 615 157 616
3 617 55 615
3 611 350 616
3 616 157 611
3 350 95 616
3 611 28 350
3 209 610 615
3 615 55 209
3 610 157 615
3 209 15 610
3 351 210 617
3 617 95 351
3 210 55 617
3 351 7 210
3 620 618 619
3 619 135 620
3 618 156 619
3 620 94 618
3 613 490 619
3 619 156 613
3 490 135 619
3 613 41 490
3 342 612 618
3 618 94 342
3 612 156 618
3 342 28 612
3 491 345 620
3 620 135 491
3 345 94 620
3 491 2 345
3 623 621 622
3 622 56 623
3 621 158 622
3 623 134 621
3 609 215 622
3 622 158 609
3 215 56 622
3 609 15 215
3 484 614 621
3 621 134 484
3 614 158 621
3 484 41 614
3 216 485 623
3 623 56 216
3 485 134 623
3 216 9 485
3 626 624 625
3 625 161 626
3 624 160 625
3 626 159 624
3 628 627 625
3 625 160 628
3 627 161 625
3 628 31 627
3 630 629 624
3 624 159 630
3 629 160 624
3 630 20 629
3 632 631 626
3 626 161 632
3 631 159 626
3 632 40 631
3 635 633 634
3 634 73 635
3 633 160 634
3 635 105 633
3 629 272 634
3 634 160 629
3 272 73 634
3 629 20 272
3 382 628 633
3 633 105 382
3 628 160 633
3 382 31 628
3 273 385 635
3 635 73 273
3 385 105 635
3 273 6 385
3 638 636 637
3 637 137 638
3 636 159 637
3 638 72 636
3 631 496 637
3 637 159 631
3 496 137 637
3 631 40 496
3 265 630 636
3 636 72 265
3 630 159 636
3 265 20 630
3 497 268 638
3 638 137 497
3 268 72 638
3 497 10 268
3 641 639 640
3 640 102 641
3 639 161 640
3 641 136 639
3 627 372 640
3 640 161 627
3 372 102 640
3 627 31 372
3 489 632 639
3 639 136 489
3 632 161 639
3 489 40 632
3 373 492 641
3 641 102 373
3 492 136 641
3 373 2 492
