# vtk DataFile Version 3.0
this file was written using fslvtkio
ASCII
DATASET POLYDATA
POINTS 642 float
123.968 102.548 110.626
118.782 102.967 109.659
127.033 94.3933 104.348
132.519 93.1434 101.204
127.608 89.5999 108.368
127.857 104.632 104.541
121.245 105.626 105.85
123.851 89.0166 108.787
118.696 99.5354 116.733
134.219 82.8014 98.3918
134.317 96.2371 98.108
116.881 112.321 111.1
119.833 92.1278 114.38
122.72 93.6571 113.643
125.714 85.6416 109.918
128.779 83.7336 103.543
130.272 83.9025 103.062
117.049 111.873 105.585
124.572 105.159 105.358
121.798 110.345 108.162
127.777 99.9859 103.141
131.872 101.671 100.72
129.679 90.0802 103.929
124.857 96.3662 110.142
128.438 97.7838 106.12
133.015 100.074 102.304
125.812 104.951 107.82
121.15 95.7563 110.325
127.268 90.332 105.466
122.606 98.3329 107.077
117.257 105.39 106.173
124.36 100.146 104.759
119.278 108.541 111.944
120.452 102.22 114.128
117.221 108.016 114.874
115.721 108.997 109.974
118.941 102.221 113.1
137.601 93.5406 96.8512
135.481 88.7989 95.5842
135.391 86.217 97.7398
131.026 93.1452 100.51
131.212 88.2065 100.94
121.369 92.2917 115.356
124.294 89.6226 112.346
122.389 88.7311 112.759
126.945 87.5287 109.078
124.952 91.7164 110.624
120.838 96.7682 115.756
119.134 95.4607 115.857
121.675 90.5771 111.434
124.614 86.7943 109.201
126.886 83.3965 106.307
127.988 84.3045 106.633
130.187 80.992 103.34
128.719 86.9387 105.385
126.393 86.7594 106.587
131.882 82.6597 100.768
133.516 81.8458 100.152
120.282 110.102 105.8
123.383 108.919 106.33
120.286 111.281 106.965
124.925 107.888 106.533
126.475 105.274 104.408
122.261 106.428 105.51
118.836 109.429 105.903
117.164 112.313 107.916
119.03 111.975 109.44
130.039 101.174 101.049
128.727 103.199 102.581
126.511 102.741 104.128
130.572 103.592 102.064
134.322 98.6634 98.6148
133.825 98.7093 101.155
124.205 102.493 104.137
127.732 93.2201 107.359
126.618 96.5417 107.712
128.749 93.9843 105.251
125.574 100.042 108.223
124.322 99.2651 110.359
126.367 92.8373 109.3
128.628 89.7772 105.923
131.098 91.3864 102.373
130.926 95.0861 103.684
130.379 98.7612 104.467
126.397 101.024 106.786
129.291 101.662 104.977
124.381 104.219 109.525
132.747 96.3372 101.837
130.991 102.582 103.325
126.342 105.377 106.422
123.872 93.586 108.049
123.962 94.0863 106.469
121.322 96.8254 108.355
124.627 96.4398 105.772
126.301 92.6322 104.839
125.697 90.4124 107.488
122.917 92.4601 109.622
120.03 99.4683 110.209
120.474 100.967 108.709
119.841 101.984 106.881
123.308 99.7015 105.836
120.732 102.104 105.556
126.148 97.4083 104.974
118.218 104.604 108.035
119.405 106.308 106.027
122.488 102.156 104.138
119.866 105.766 113.336
118.85 105.647 115.644
117.835 109.454 114.251
117.92 103.725 116.021
119.527 101.121 116.042
122.453 102.882 112.681
121.627 105.598 111.78
117.491 110.675 111.933
115.48 111.313 113.358
115.573 109.137 112.684
118.177 105.086 113.887
117.099 106.592 111.994
118.519 100.209 115.127
115.79 111.214 110.775
118.161 106.287 109.965
119.053 103.081 111.473
138.322 90.6105 94.4544
137.482 85.696 95.1113
136.979 90.2188 97.1853
136.045 82.2375 97.6377
134.579 85.1714 96.9351
135.445 92.8119 96.5406
136.164 95.3742 96.415
134.416 93.6979 99.4361
133.27 90.1381 99.1374
131.239 90.7087 100.385
133.61 88.0613 98.0954
133.935 91.2771 97.6192
131.985 84.9144 99.4194
128.73 91.4406 102.571
129.301 94.4701 103.321
133.58 95.1864 99.743
124.142 95.2828 112.048
121.922 97.7395 114.004
123.186 99.5002 112.526
122.948 107.209 110.06
120.296 109.474 110.161
124.399 108.368 108.429
132.516 85.4 100.17
130.012 86.8192 102.48
131.306 88.5631 100.488
135.229 96.4499 99.6014
133.53 101.467 101.218
134.307 96.9093 98.6614
120.056 97.1855 113.505
120.563 94.1803 111.991
119.585 99.1114 112.059
116.627 107.73 107.873
116.579 108.814 105.349
115.005 110.867 107.866
128.851 89.0849 102.938
127.654 87.1102 104.699
129.893 85.728 102.067
130.613 96.7423 101.513
126.572 99.7845 103.549
128.266 96.6275 102.745
123.124 90.7743 114.024
123.397 88.9908 112.694
121.77 90.0092 114.374
124.199 87.4542 111.398
125.149 87.5357 111.444
123.771 91.6192 113.376
122.218 92.8738 114.636
120.513 91.8088 115.316
121.07 90.8086 113.792
125.667 88.567 110.84
124.822 90.6002 111.608
126.298 89.475 110.225
124.072 92.5644 112.397
126.369 86.6705 109.609
127.53 88.5215 108.851
126.713 90.5099 109.832
121.071 94.2235 115.774
119.926 93.4693 116.315
119.909 95.9928 116.285
119.824 93.3294 115.25
121.561 95.1618 114.752
119.505 98.25 116.2
119.01 97.2988 116.41
121.809 89.0224 112.392
123.592 87.9026 110.865
122.891 88.6964 110.757
125.022 85.9461 109.895
120.824 90.9162 112.938
122.73 89.6917 110.138
124.044 87.8795 109.235
127.142 83.2457 106.695
128.733 82.2563 105.394
128.157 81.8907 104.855
129.873 82.5296 103.688
129.206 83.6724 105.062
126.824 84.991 108.164
126.04 84.4217 108.339
127.428 83.0106 104.867
129.332 81.8446 103.182
128.666 85.5639 105.749
127.705 86.0836 107.841
127.968 87.1728 107.204
129.507 85.0463 104.389
127.934 88.3062 106.848
125.334 84.8592 108.26
126.304 85.2109 106.681
124.9 86.4708 107.971
127.173 84.8706 104.977
125.187 88.0722 107.939
131.25 81.3875 101.802
132.089 81.8149 101.721
132.811 80.713 100.333
131.907 83.15 101.553
130.548 83.0877 102.187
133.029 82.2095 99.5424
134.547 80.4969 98.5229
122.407 109.348 105.927
122.18 110.111 106.76
120.77 110.812 106.184
121.162 110.963 107.761
122.817 109.839 107.266
122.936 107.142 106.388
121.788 108.16 106.279
118.828 111.414 105.698
118.816 111.932 106.487
124.128 108.705 106.364
124.022 106.287 105.986
125.052 105.912 105.859
125.864 104.751 104.713
123.82 109.333 107.415
126.078 105.929 105.688
127.216 105.319 104.185
119.891 108.828 106.15
118.626 110.363 105.553
119.757 108.716 105.984
117.184 110.772 105.019
122.856 106.367 105.538
121.267 106.576 105.597
120.051 107.645 106.112
118.326 111.612 107.391
119.313 111.485 108.007
118.334 111.952 108.783
120.153 110.967 108.71
117.013 111.674 106.472
117.425 111.691 109.379
117.839 111.909 110.071
129.19 102.339 101.778
127.431 102.728 103.362
127.956 101.732 102.942
125.61 103.994 104.71
127.331 103.482 104.088
129.59 103.784 101.583
131.09 101.559 101.086
128.983 100.721 102.551
127.633 101.072 103.41
127.978 104.098 103.381
130.058 103.445 101.892
128.751 104.169 103.211
131.656 104.111 101.135
129.25 103.612 103.26
132.438 99.8603 100.154
131.841 99.3514 101.389
133.756 98.4247 99.3624
131.11 99.6756 102.779
132.911 99.439 99.9658
134.665 97.7631 97.9197
134.095 97.0213 98.964
125.333 102.884 104.407
124.574 104.463 105.119
123.486 104.425 104.954
126.363 101.109 103.862
122.566 104.43 104.939
127.389 94.7861 107.749
128.184 95.3276 106.774
128.411 93.4699 106.265
128.542 95.7341 105.716
127.491 97.1307 106.899
126.083 96.1515 108.774
126.54 94.7384 108.884
128.923 91.9275 105.759
129.235 92.0095 104.667
125.855 98.0646 107.787
125.488 97.8564 109.025
125.376 99.4809 109.281
124.95 97.6343 110.116
126.906 98.6094 106.997
125.166 101.115 109.609
124.185 100.882 110.571
127.099 93.2121 108.499
128.212 91.5593 106.763
127.821 91.2359 107.925
129.021 90.1532 105.097
125.471 94.7255 109.875
126.891 91.1921 108.876
128.172 89.6492 107.212
129.751 92.7352 103.737
130.056 94.484 104.593
130.624 93.1554 102.804
129.42 96.2993 104.856
130.228 90.8567 103.196
132.279 92.2384 101.743
131.747 94.1539 102.218
128.61 99.5658 105.708
127.443 100.965 105.833
130.113 100.227 104.85
127.561 103.019 106.406
125.881 102.937 107.32
127.686 99.3198 106.32
129.633 98.0544 105.221
131.72 99.3387 103.211
130.857 101.02 103.969
125.095 102.734 108.252
125.895 100.498 107.42
125.102 102.003 108.964
125.087 105.07 108.849
124.117 103.558 110.236
130.906 96.7515 103.923
131.885 97.6892 103.354
131.684 95.7009 102.569
132.634 98.1233 102.241
132.601 94.6068 101.334
130.161 102.551 104.24
128.074 103.434 105.72
128.416 103.375 105.145
125.816 104.986 107.072
131.907 101.356 102.774
129.358 103.642 103.774
127.219 105.082 105.526
123.961 93.6049 107.356
122.682 95.4855 107.671
122.287 94.975 108.462
122.273 97.3132 107.733
123.208 96.0121 106.989
125.453 92.3203 106.14
125.534 91.8985 106.803
122.121 94.5852 109.223
121.22 96.0061 109.324
124.207 95.5127 106.353
124.909 93.6128 105.702
125.36 94.5565 105.555
126.477 91.4904 105.104
123.539 97.275 106.624
125.863 95.4928 104.994
126.61 93.4449 104.268
124.407 92.0479 107.752
123.273 93.251 108.905
124.433 91.4341 108.463
121.838 94.1877 110.048
126.375 90.4828 106.639
124.972 89.614 108.158
123.552 90.7947 109.198
120.894 98.1225 109.651
121.401 98.8742 108.607
120.408 100.244 109.386
121.614 99.3649 107.915
120.87 97.5139 110.421
119.531 101.201 110.062
119.308 102.038 109.186
121.41 100.527 106.511
121.669 100.584 105.766
120.09 101.923 106.261
122.407 101.013 104.951
123.946 100.079 105.295
122.519 99.2878 106.611
121.29 100.286 107.302
118.315 103.313 106.35
119.06 103.615 105.803
124.509 98.8753 105.494
123.676 98.3821 106.305
124.999 97.2831 105.569
125.63 98.8307 104.749
126.55 95.9842 104.629
120.495 101.616 108.019
118.619 102.78 107.241
119.204 102.443 108.335
117.494 104.874 106.992
118.62 103.722 108.837
120.16 104.369 105.746
121.665 101.994 104.627
120.977 104.194 105.302
123.521 101.302 104.671
118.18 105.889 105.86
120.455 105.766 106.092
121.941 103.768 104.688
119.347 105.652 114.46
118.345 107.466 114.972
118.782 107.497 113.91
117.196 109.134 114.979
117.648 107.267 115.903
119.768 103.705 114.908
120.346 104.013 113.813
119.372 107.238 112.689
118.309 108.914 113.045
118.174 105.012 116.16
119.372 103.49 116.007
118.561 102.643 117.163
120.34 101.279 114.788
117.852 106.105 115.203
117.871 101.582 116.98
118.836 100.333 116.737
120.948 104.123 112.938
120.383 105.855 112.476
121.819 104.267 112.103
120.484 107.226 111.637
121.01 102.508 113.059
123.47 102.695 111.583
123.369 104.28 111.296
117.054 110.237 113.178
116.389 110.378 113.942
116.527 110.986 112.655
115.92 109.606 114.365
118.313 109.85 112.171
117.218 112.152 111.738
115.672 112.409 112.425
116.855 107.461 113.348
117.59 106.156 113.089
116.452 107.727 112.297
118.017 104.623 112.721
118.823 103.727 113.415
117.747 106.803 114.102
115.834 108.485 113.921
115.23 108.976 111.434
116.019 107.814 111.059
118.527 102.776 114.561
118.049 104.391 114.873
117.979 101.831 115.906
118.752 101.062 114.194
118.86 99.7825 115.908
114.939 110.06 113.496
114.625 110.095 111.962
114.749 111.757 112.526
115.278 110.23 110.229
116.42 111.797 111.135
117.518 106.268 111.249
117.902 104.669 111.973
118.212 104.636 110.875
118.841 103.01 112.372
116.755 107.489 110.234
118.533 104.52 109.9
119.049 102.873 110.467
138.053 88.4039 94.6773
137.84 87.9478 96.0272
138.368 89.8841 95.7316
136.521 88.2447 97.3174
137.079 86.0697 96.5137
136.585 87.1979 95.0226
136.986 89.4398 94.8735
138.63 92.0281 95.3334
138.402 91.8605 96.6876
136.88 84.0464 95.93
135.797 85.3361 95.8863
135.275 84.1901 97.2419
135.165 86.8678 96.1433
136.317 83.8245 97.6047
135.082 81.4356 97.255
134.115 84.0137 97.9312
136.886 91.6288 95.2352
137.681 92.9943 95.3639
136.01 93.9078 95.9589
137.048 94.3122 96.4524
135.764 90.7875 95.7547
135.017 94.949 97.7418
135.024 95.9976 97.1319
136.388 91.9566 97.9071
135.073 90.1688 98.2411
133.483 91.9692 99.1354
134.639 88.1308 98.2163
137.021 92.7034 98.0088
133.23 93.4019 100.43
132.694 91.6548 100.176
132.124 89.2952 98.9698
133.598 89.5413 97.4188
132.741 90.4867 98.8153
134.853 90.1848 96.4222
134.739 88.256 96.8134
131.88 88.0487 99.5227
131.11 89.6169 100.456
131.217 91.8062 100.153
132.715 91.8817 98.9755
133.803 86.7521 97.3552
132.396 86.9025 98.9277
133.124 85.3086 98.3127
131.841 86.7132 100.188
132.761 83.4291 98.8532
129.918 91.1369 101.823
130.258 92.3711 101.704
129.088 93.1821 102.912
129.969 93.7301 101.814
130.201 89.6082 101.676
128.159 92.7238 103.791
128.306 94.4599 104.25
133.406 93.2941 98.8864
134.42 92.0033 96.9426
134.393 94.0457 98.2613
132.241 93.8175 100.175
134.347 96.2457 99.3136
122.829 96.8048 113.043
122.336 99.0125 113.482
123.289 97.6301 112.356
121.689 100.678 113.377
121.265 99.8391 113.772
122.347 95.7277 114.029
123.687 94.5217 112.938
124.314 96.2473 111.505
124.268 97.9238 111.582
120.23 99.8506 114.6
121.133 97.6676 114.868
119.867 99.2924 115.722
124.302 93.4202 111.268
125.069 94.3408 110.605
125.884 92.4327 110.093
123.831 99.4471 111.548
122.28 101.138 112.548
123.459 101.235 111.791
121.336 108.281 110.243
121.949 109.003 109.268
122.981 107.988 109.399
123.103 109.297 108.475
120.864 109.795 109.106
119.987 108.998 111.152
121.035 107.87 110.903
124.403 106.726 109.194
125.122 107.094 108.537
119.503 110.603 110.073
119.014 109.934 111.081
118.152 110.76 110.861
122.304 106.611 110.924
124.016 106.036 110.068
123.379 105.305 110.885
125.464 107.579 107.563
124.77 108.484 107.36
125.536 106.875 106.559
130.934 86.0926 101.478
130.223 88.0648 101.793
132.002 86.9624 100.385
129.809 89.4025 102.034
129.624 88.5598 103.27
129.924 85.0662 102.842
130.931 84.7103 101.326
134.145 85.2261 98.486
133.478 87.3117 99.1553
129.276 88.5747 104.208
129.609 86.7324 103.949
128.437 88.4795 105.45
132.811 83.5654 100.338
134.346 83.9163 99.02
135.667 81.3854 98.9689
132.362 89.0701 99.4618
130.778 90.0155 101.259
132.04 90.6899 100.797
135.142 98.9313 100.586
134.465 99.2462 100.225
135.222 96.4943 98.809
133.316 98.5339 99.6145
133.532 102.614 100.669
133.47 100.646 101.514
134.424 98.2095 100.828
136.749 94.7336 98.1444
135.835 95.2748 97.3117
132.18 103.68 101.676
132.081 102.3 102.273
130.402 102.796 102.95
134.055 96.6209 100.924
134.813 95.042 99.0724
133.847 95.1409 100.422
135.325 96.1647 97.7541
134.818 97.2357 98.5494
135.521 98.1237 97.3649
120.283 95.1363 112.815
119.974 96.3643 111.857
119.931 98.3492 112.624
120.447 97.2916 111.242
120.987 95.3575 111.084
120.434 92.3401 113.088
119.862 94.3589 114.057
119.798 99.858 113.37
119.399 101.231 112.47
121.384 93.5619 110.687
120.969 92.033 111.594
122.382 91.5691 110.36
119.462 96.2327 114.714
119.491 98.9048 114.3
119.244 98.1472 115.404
119.236 101.274 111.725
119.961 99.5051 111.207
118.846 100.935 110.892
115.778 108.078 106.84
115.366 109.648 106.553
115.427 109.209 107.834
115.611 111.239 106.4
116.097 110.338 105.099
117.016 107.421 105.835
116.702 106.682 107.181
116.358 108.32 108.999
114.635 110.033 109.081
118.065 109.278 104.84
118.036 107.875 105.409
119.134 107.931 105.98
117.792 106.341 108.113
117.349 107.068 109.014
118.166 105.647 109.073
114.711 111.469 109.145
116.204 111.861 107.703
116.418 112.171 109.372
128.288 87.8038 103.632
129.202 86.2926 103.428
129.4 87.4065 102.364
129.408 84.1469 102.709
128.374 85.4314 104.119
127.704 88.6336 105.039
127.849 89.5579 103.978
129.756 88.6247 101.768
130.602 87.0668 101.627
127.091 86.8775 105.5
126.536 88.8727 106.082
126.047 88.5438 107.036
127.794 90.7972 104.401
128.83 90.137 102.737
127.782 91.7999 103.785
131.493 86.2761 101.365
130.566 84.3872 101.929
131.549 83.7123 100.132
128.45 98.3135 102.442
127.415 98.5528 103.256
129.376 96.6207 101.944
126.927 98.4561 104.142
125.37 99.4469 103.946
127.466 100.022 103.464
129.477 98.4443 102.204
130.938 94.9186 101.057
129.899 94.9483 101.792
124.997 101.026 103.778
125.254 100.863 103.125
123.882 102.542 104.538
131.825 98.0005 101.408
132.007 95.9671 100.574
133.459 97.2454 100.361
128.441 95.9148 103.144
126.611 97.317 104.05
127.501 95.8932 104.134
POLYGONS 1280  5120
3 164 162 163
3 163 44 164
3 162 43 163
3 164 42 162
3 166 165 163
3 163 43 166
3 165 44 163
3 166 14 165
3 168 167 162
3 162 42 168
3 167 43 162
3 168 13 167
3 170 169 164
3 164 44 170
3 169 42 164
3 170 12 169
3 173 171 172
3 172 46 173
3 171 43 172
3 173 45 171
3 167 174 172
3 172 43 167
3 174 46 172
3 167 13 174
3 175 166 171
3 171 45 175
3 166 43 171
3 175 14 166
3 177 176 173
3 173 46 177
3 176 45 173
3 177 4 176
3 180 178 179
3 179 48 180
3 178 42 179
3 180 47 178
3 169 181 179
3 179 42 169
3 181 48 179
3 169 12 181
3 182 168 178
3 178 47 182
3 168 42 178
3 182 13 168
3 184 183 180
3 180 48 184
3 183 47 180
3 184 8 183
3 187 185 186
3 186 50 187
3 185 44 186
3 187 49 185
3 165 188 186
3 186 44 165
3 188 50 186
3 165 14 188
3 189 170 185
3 185 49 189
3 170 44 185
3 189 12 170
3 191 190 187
3 187 50 191
3 190 49 187
3 191 7 190
3 194 192 193
3 193 53 194
3 192 52 193
3 194 51 192
3 196 195 193
3 193 52 196
3 195 53 193
3 196 16 195
3 198 197 192
3 192 51 198
3 197 52 192
3 198 14 197
3 200 199 194
3 194 53 200
3 199 51 194
3 200 15 199
3 203 201 202
3 202 45 203
3 201 52 202
3 203 54 201
3 197 175 202
3 202 52 197
3 175 45 202
3 197 14 175
3 204 196 201
3 201 54 204
3 196 52 201
3 204 16 196
3 176 205 203
3 203 45 176
3 205 54 203
3 176 4 205
3 208 206 207
3 207 55 208
3 206 51 207
3 208 50 206
3 199 209 207
3 207 51 199
3 209 55 207
3 199 15 209
3 188 198 206
3 206 50 188
3 198 51 206
3 188 14 198
3 210 191 208
3 208 55 210
3 191 50 208
3 210 7 191
3 213 211 212
3 212 57 213
3 211 53 212
3 213 56 211
3 195 214 212
3 212 53 195
3 214 57 212
3 195 16 214
3 215 200 211
3 211 56 215
3 200 53 211
3 215 15 200
3 217 216 213
3 213 57 217
3 216 56 213
3 217 9 216
3 220 218 219
3 219 60 220
3 218 59 219
3 220 58 218
3 222 221 219
3 219 59 222
3 221 60 219
3 222 19 221
3 224 223 218
3 218 58 224
3 223 59 218
3 224 18 223
3 226 225 220
3 220 60 226
3 225 58 220
3 226 17 225
3 229 227 228
3 228 62 229
3 227 59 228
3 229 61 227
3 223 230 228
3 228 59 223
3 230 62 228
3 223 18 230
3 231 222 227
3 227 61 231
3 222 59 227
3 231 19 222
3 233 232 229
3 229 62 233
3 232 61 229
3 233 5 232
3 236 234 235
3 235 64 236
3 234 58 235
3 236 63 234
3 225 237 235
3 235 58 225
3 237 64 235
3 225 17 237
3 238 224 234
3 234 63 238
3 224 58 234
3 238 18 224
3 240 239 236
3 236 64 240
3 239 63 236
3 240 6 239
3 243 241 242
3 242 66 243
3 241 60 242
3 243 65 241
3 221 244 242
3 242 60 221
3 244 66 242
3 221 19 244
3 245 226 241
3 241 65 245
3 226 60 241
3 245 17 226
3 247 246 243
3 243 66 247
3 246 65 243
3 247 11 246
3 250 248 249
3 249 69 250
3 248 68 249
3 250 67 248
3 252 251 249
3 249 68 252
3 251 69 249
3 252 18 251
3 254 253 248
3 248 67 254
3 253 68 248
3 254 21 253
3 256 255 250
3 250 69 256
3 255 67 250
3 256 20 255
3 259 257 258
3 258 70 259
3 257 68 258
3 259 62 257
3 253 260 258
3 258 68 253
3 260 70 258
3 253 21 260
3 230 252 257
3 257 62 230
3 252 68 257
3 230 18 252
3 261 233 259
3 259 70 261
3 233 62 259
3 261 5 233
3 264 262 263
3 263 72 264
3 262 67 263
3 264 71 262
3 255 265 263
3 263 67 255
3 265 72 263
3 255 20 265
3 266 254 262
3 262 71 266
3 254 67 262
3 266 21 254
3 268 267 264
3 264 72 268
3 267 71 264
3 268 10 267
3 271 269 270
3 270 63 271
3 269 69 270
3 271 73 269
3 251 238 270
3 270 69 251
3 238 63 270
3 251 18 238
3 272 256 269
3 269 73 272
3 256 69 269
3 272 20 256
3 239 273 271
3 271 63 239
3 273 73 271
3 239 6 273
3 276 274 275
3 275 76 276
3 274 75 275
3 276 74 274
3 278 277 275
3 275 75 278
3 277 76 275
3 278 24 277
3 280 279 274
3 274 74 280
3 279 75 274
3 280 23 279
3 282 281 276
3 276 76 282
3 281 74 276
3 282 22 281
3 285 283 284
3 284 78 285
3 283 75 284
3 285 77 283
3 279 286 284
3 284 75 279
3 286 78 284
3 279 23 286
3 287 278 283
3 283 77 287
3 278 75 283
3 287 24 278
3 289 288 285
3 285 78 289
3 288 77 285
3 289 0 288
3 292 290 291
3 291 80 292
3 290 74 291
3 292 79 290
3 281 293 291
3 291 74 281
3 293 80 291
3 281 22 293
3 294 280 290
3 290 79 294
3 280 74 290
3 294 23 280
3 296 295 292
3 292 80 296
3 295 79 292
3 296 4 295
3 299 297 298
3 298 82 299
3 297 76 298
3 299 81 297
3 277 300 298
3 298 76 277
3 300 82 298
3 277 24 300
3 301 282 297
3 297 81 301
3 282 76 297
3 301 22 282
3 303 302 299
3 299 82 303
3 302 81 299
3 303 3 302
3 306 304 305
3 305 85 306
3 304 84 305
3 306 83 304
3 308 307 305
3 305 84 308
3 307 85 305
3 308 26 307
3 310 309 304
3 304 83 310
3 309 84 304
3 310 24 309
3 312 311 306
3 306 85 312
3 311 83 306
3 312 25 311
3 315 313 314
3 314 77 315
3 313 84 314
3 315 86 313
3 309 287 314
3 314 84 309
3 287 77 314
3 309 24 287
3 316 308 313
3 313 86 316
3 308 84 313
3 316 26 308
3 288 317 315
3 315 77 288
3 317 86 315
3 288 0 317
3 320 318 319
3 319 87 320
3 318 83 319
3 320 82 318
3 311 321 319
3 319 83 311
3 321 87 319
3 311 25 321
3 300 310 318
3 318 82 300
3 310 83 318
3 300 24 310
3 322 303 320
3 320 87 322
3 303 82 320
3 322 3 303
3 325 323 324
3 324 89 325
3 323 85 324
3 325 88 323
3 307 326 324
3 324 85 307
3 326 89 324
3 307 26 326
3 327 312 323
3 323 88 327
3 312 85 323
3 327 25 312
3 329 328 325
3 325 89 329
3 328 88 325
3 329 5 328
3 332 330 331
3 331 92 332
3 330 91 331
3 332 90 330
3 334 333 331
3 331 91 334
3 333 92 331
3 334 29 333
3 336 335 330
3 330 90 336
3 335 91 330
3 336 28 335
3 338 337 332
3 332 92 338
3 337 90 332
3 338 27 337
3 341 339 340
3 340 94 341
3 339 91 340
3 341 93 339
3 335 342 340
3 340 91 335
3 342 94 340
3 335 28 342
3 343 334 339
3 339 93 343
3 334 91 339
3 343 29 334
3 345 344 341
3 341 94 345
3 344 93 341
3 345 2 344
3 348 346 347
3 347 96 348
3 346 90 347
3 348 95 346
3 337 349 347
3 347 90 337
3 349 96 347
3 337 27 349
3 350 336 346
3 346 95 350
3 336 90 346
3 350 28 336
3 352 351 348
3 348 96 352
3 351 95 348
3 352 7 351
3 355 353 354
3 354 98 355
3 353 92 354
3 355 97 353
3 333 356 354
3 354 92 333
3 356 98 354
3 333 29 356
3 357 338 353
3 353 97 357
3 338 92 353
3 357 27 338
3 359 358 355
3 355 98 359
3 358 97 355
3 359 1 358
3 362 360 361
3 361 101 362
3 360 100 361
3 362 99 360
3 364 363 361
3 361 100 364
3 363 101 361
3 364 31 363
3 366 365 360
3 360 99 366
3 365 100 360
3 366 29 365
3 368 367 362
3 362 101 368
3 367 99 362
3 368 30 367
3 371 369 370
3 370 93 371
3 369 100 370
3 371 102 369
3 365 343 370
3 370 100 365
3 343 93 370
3 365 29 343
3 372 364 369
3 369 102 372
3 364 100 369
3 372 31 364
3 344 373 371
3 371 93 344
3 373 102 371
3 344 2 373
3 376 374 375
3 375 103 376
3 374 99 375
3 376 98 374
3 367 377 375
3 375 99 367
3 377 103 375
3 367 30 377
3 356 366 374
3 374 98 356
3 366 99 374
3 356 29 366
3 378 359 376
3 376 103 378
3 359 98 376
3 378 1 359
3 381 379 380
3 380 105 381
3 379 101 380
3 381 104 379
3 363 382 380
3 380 101 363
3 382 105 380
3 363 31 382
3 383 368 379
3 379 104 383
3 368 101 379
3 383 30 368
3 385 384 381
3 381 105 385
3 384 104 381
3 385 6 384
3 388 386 387
3 387 108 388
3 386 107 387
3 388 106 386
3 390 389 387
3 387 107 390
3 389 108 387
3 390 34 389
3 392 391 386
3 386 106 392
3 391 107 386
3 392 33 391
3 394 393 388
3 388 108 394
3 393 106 388
3 394 32 393
3 397 395 396
3 396 110 397
3 395 107 396
3 397 109 395
3 391 398 396
3 396 107 391
3 398 110 396
3 391 33 398
3 399 390 395
3 395 109 399
3 390 107 395
3 399 34 390
3 401 400 397
3 397 110 401
3 400 109 397
3 401 8 400
3 404 402 403
3 403 112 404
3 402 106 403
3 404 111 402
3 393 405 403
3 403 106 393
3 405 112 403
3 393 32 405
3 406 392 402
3 402 111 406
3 392 106 402
3 406 33 392
3 408 407 404
3 404 112 408
3 407 111 404
3 408 0 407
3 411 409 410
3 410 114 411
3 409 108 410
3 411 113 409
3 389 412 410
3 410 108 389
3 412 114 410
3 389 34 412
3 413 394 409
3 409 113 413
3 394 108 409
3 413 32 394
3 415 414 411
3 411 114 415
3 414 113 411
3 415 11 414
3 418 416 417
3 417 117 418
3 416 116 417
3 418 115 416
3 420 419 417
3 417 116 420
3 419 117 417
3 420 36 419
3 422 421 416
3 416 115 422
3 421 116 416
3 422 34 421
3 424 423 418
3 418 117 424
3 423 115 418
3 424 35 423
3 427 425 426
3 426 109 427
3 425 116 426
3 427 118 425
3 421 399 426
3 426 116 421
3 399 109 426
3 421 34 399
3 428 420 425
3 425 118 428
3 420 116 425
3 428 36 420
3 400 429 427
3 427 109 400
3 429 118 427
3 400 8 429
3 432 430 431
3 431 119 432
3 430 115 431
3 432 114 430
3 423 433 431
3 431 115 423
3 433 119 431
3 423 35 433
3 412 422 430
3 430 114 412
3 422 115 430
3 412 34 422
3 434 415 432
3 432 119 434
3 415 114 432
3 434 11 415
3 437 435 436
3 436 121 437
3 435 117 436
3 437 120 435
3 419 438 436
3 436 117 419
3 438 121 436
3 419 36 438
3 439 424 435
3 435 120 439
3 424 117 435
3 439 35 424
3 441 440 437
3 437 121 441
3 440 120 437
3 441 1 440
3 444 442 443
3 443 124 444
3 442 123 443
3 444 122 442
3 446 445 443
3 443 123 446
3 445 124 443
3 446 39 445
3 448 447 442
3 442 122 448
3 447 123 442
3 448 38 447
3 450 449 444
3 444 124 450
3 449 122 444
3 450 37 449
3 453 451 452
3 452 126 453
3 451 123 452
3 453 125 451
3 447 454 452
3 452 123 447
3 454 126 452
3 447 38 454
3 455 446 451
3 451 125 455
3 446 123 451
3 455 39 446
3 457 456 453
3 453 126 457
3 456 125 453
3 457 9 456
3 460 458 459
3 459 128 460
3 458 122 459
3 460 127 458
3 449 461 459
3 459 122 449
3 461 128 459
3 449 37 461
3 462 448 458
3 458 127 462
3 448 122 458
3 462 38 448
3 464 463 460
3 460 128 464
3 463 127 460
3 464 10 463
3 467 465 466
3 466 130 467
3 465 124 466
3 467 129 465
3 445 468 466
3 466 124 445
3 468 130 466
3 445 39 468
3 469 450 465
3 465 129 469
3 450 124 465
3 469 37 450
3 471 470 467
3 467 130 471
3 470 129 467
3 471 3 470
3 474 472 473
3 473 133 474
3 472 132 473
3 474 131 472
3 476 475 473
3 473 132 476
3 475 133 473
3 476 38 475
3 478 477 472
3 472 131 478
3 477 132 472
3 478 41 477
3 480 479 474
3 474 133 480
3 479 131 474
3 480 40 479
3 483 481 482
3 482 134 483
3 481 132 482
3 483 126 481
3 477 484 482
3 482 132 477
3 484 134 482
3 477 41 484
3 454 476 481
3 481 126 454
3 476 132 481
3 454 38 476
3 485 457 483
3 483 134 485
3 457 126 483
3 485 9 457
3 488 486 487
3 487 136 488
3 486 131 487
3 488 135 486
3 479 489 487
3 487 131 479
3 489 136 487
3 479 40 489
3 490 478 486
3 486 135 490
3 478 131 486
3 490 41 478
3 492 491 488
3 488 136 492
3 491 135 488
3 492 2 491
3 495 493 494
3 494 127 495
3 493 133 494
3 495 137 493
3 475 462 494
3 494 133 475
3 462 127 494
3 475 38 462
3 496 480 493
3 493 137 496
3 480 133 493
3 496 40 480
3 463 497 495
3 495 127 463
3 497 137 495
3 463 10 497
3 500 498 499
3 499 140 500
3 498 139 499
3 500 138 498
3 502 501 499
3 499 139 502
3 501 140 499
3 502 33 501
3 504 503 498
3 498 138 504
3 503 139 498
3 504 13 503
3 506 505 500
3 500 140 506
3 505 138 500
3 506 23 505
3 509 507 508
3 508 47 509
3 507 139 508
3 509 110 507
3 503 182 508
3 508 139 503
3 182 47 508
3 503 13 182
3 398 502 507
3 507 110 398
3 502 139 507
3 398 33 502
3 183 401 509
3 509 47 183
3 401 110 509
3 183 8 401
3 512 510 511
3 511 79 512
3 510 138 511
3 512 46 510
3 505 294 511
3 511 138 505
3 294 79 511
3 505 23 294
3 174 504 510
3 510 46 174
3 504 138 510
3 174 13 504
3 295 177 512
3 512 79 295
3 177 46 512
3 295 4 177
3 515 513 514
3 514 111 515
3 513 140 514
3 515 78 513
3 501 406 514
3 514 140 501
3 406 111 514
3 501 33 406
3 286 506 513
3 513 78 286
3 506 140 513
3 286 23 506
3 407 289 515
3 515 111 407
3 289 78 515
3 407 0 289
3 518 516 517
3 517 143 518
3 516 142 517
3 518 141 516
3 520 519 517
3 517 142 520
3 519 143 517
3 520 19 519
3 522 521 516
3 516 141 522
3 521 142 516
3 522 32 521
3 524 523 518
3 518 143 524
3 523 141 518
3 524 26 523
3 527 525 526
3 526 113 527
3 525 142 526
3 527 66 525
3 521 413 526
3 526 142 521
3 413 113 526
3 521 32 413
3 244 520 525
3 525 66 244
3 520 142 525
3 244 19 520
3 414 247 527
3 527 113 414
3 247 66 527
3 414 11 247
3 530 528 529
3 529 86 530
3 528 141 529
3 530 112 528
3 523 316 529
3 529 141 523
3 316 86 529
3 523 26 316
3 405 522 528
3 528 112 405
3 522 141 528
3 405 32 522
3 317 408 530
3 530 86 317
3 408 112 530
3 317 0 408
3 533 531 532
3 532 61 533
3 531 143 532
3 533 89 531
3 519 231 532
3 532 143 519
3 231 61 532
3 519 19 231
3 326 524 531
3 531 89 326
3 524 143 531
3 326 26 524
3 232 329 533
3 533 61 232
3 329 89 533
3 232 5 329
3 536 534 535
3 535 146 536
3 534 145 535
3 536 144 534
3 538 537 535
3 535 145 538
3 537 146 535
3 538 22 537
3 540 539 534
3 534 144 540
3 539 145 534
3 540 16 539
3 542 541 536
3 536 146 542
3 541 144 536
3 542 39 541
3 545 543 544
3 544 54 545
3 543 145 544
3 545 80 543
3 539 204 544
3 544 145 539
3 204 54 544
3 539 16 204
3 293 538 543
3 543 80 293
3 538 145 543
3 293 22 538
3 205 296 545
3 545 54 205
3 296 80 545
3 205 4 296
3 548 546 547
3 547 125 548
3 546 144 547
3 548 57 546
3 541 455 547
3 547 144 541
3 455 125 547
3 541 39 455
3 214 540 546
3 546 57 214
3 540 144 546
3 214 16 540
3 456 217 548
3 548 125 456
3 217 57 548
3 456 9 217
3 551 549 550
3 550 81 551
3 549 146 550
3 551 130 549
3 537 301 550
3 550 146 537
3 301 81 550
3 537 22 301
3 468 542 549
3 549 130 468
3 542 146 549
3 468 39 542
3 302 471 551
3 551 81 302
3 471 130 551
3 302 3 471
3 554 552 553
3 553 149 554
3 552 148 553
3 554 147 552
3 556 555 553
3 553 148 556
3 555 149 553
3 556 21 555
3 558 557 552
3 552 147 558
3 557 148 552
3 558 25 557
3 560 559 554
3 554 149 560
3 559 147 554
3 560 37 559
3 563 561 562
3 562 88 563
3 561 148 562
3 563 70 561
3 557 327 562
3 562 148 557
3 327 88 562
3 557 25 327
3 260 556 561
3 561 70 260
3 556 148 561
3 260 21 556
3 328 261 563
3 563 88 328
3 261 70 563
3 328 5 261
3 566 564 565
3 565 129 566
3 564 147 565
3 566 87 564
3 559 469 565
3 565 147 559
3 469 129 565
3 559 37 469
3 321 558 564
3 564 87 321
3 558 147 564
3 321 25 558
3 470 322 566
3 566 129 470
3 322 87 566
3 470 3 322
3 569 567 568
3 568 71 569
3 567 149 568
3 569 128 567
3 555 266 568
3 568 149 555
3 266 71 568
3 555 21 266
3 461 560 567
3 567 128 461
3 560 149 567
3 461 37 560
3 267 464 569
3 569 71 267
3 464 128 569
3 267 10 464
3 572 570 571
3 571 152 572
3 570 151 571
3 572 150 570
3 574 573 571
3 571 151 574
3 573 152 571
3 574 27 573
3 576 575 570
3 570 150 576
3 575 151 570
3 576 12 575
3 578 577 572
3 572 152 578
3 577 150 572
3 578 36 577
3 581 579 580
3 580 49 581
3 579 151 580
3 581 96 579
3 575 189 580
3 580 151 575
3 189 49 580
3 575 12 189
3 349 574 579
3 579 96 349
3 574 151 579
3 349 27 574
3 190 352 581
3 581 49 190
3 352 96 581
3 190 7 352
3 584 582 583
3 583 118 584
3 582 150 583
3 584 48 582
3 577 428 583
3 583 150 577
3 428 118 583
3 577 36 428
3 181 576 582
3 582 48 181
3 576 150 582
3 181 12 576
3 429 184 584
3 584 118 429
3 184 48 584
3 429 8 184
3 587 585 586
3 586 97 587
3 585 152 586
3 587 121 585
3 573 357 586
3 586 152 573
3 357 97 586
3 573 27 357
3 438 578 585
3 585 121 438
3 578 152 585
3 438 36 578
3 358 441 587
3 587 97 358
3 441 121 587
3 358 1 441
3 590 588 589
3 589 155 590
3 588 154 589
3 590 153 588
3 592 591 589
3 589 154 592
3 591 155 589
3 592 17 591
3 594 593 588
3 588 153 594
3 593 154 588
3 594 30 593
3 596 595 590
3 590 155 596
3 595 153 590
3 596 35 595
3 599 597 598
3 598 104 599
3 597 154 598
3 599 64 597
3 593 383 598
3 598 154 593
3 383 104 598
3 593 30 383
3 237 592 597
3 597 64 237
3 592 154 597
3 237 17 592
3 384 240 599
3 599 104 384
3 240 64 599
3 384 6 240
3 602 600 601
3 601 120 602
3 600 153 601
3 602 103 600
3 595 439 601
3 601 153 595
3 439 120 601
3 595 35 439
3 377 594 600
3 600 103 377
3 594 153 600
3 377 30 594
3 440 378 602
3 602 120 440
3 378 103 602
3 440 1 378
3 605 603 604
3 604 65 605
3 603 155 604
3 605 119 603
3 591 245 604
3 604 155 591
3 245 65 604
3 591 17 245
3 433 596 603
3 603 119 433
3 596 155 603
3 433 35 596
3 246 434 605
3 605 65 246
3 434 119 605
3 246 11 434
3 608 606 607
3 607 158 608
3 606 157 607
3 608 156 606
3 610 609 607
3 607 157 610
3 609 158 607
3 610 15 609
3 612 611 606
3 606 156 612
3 611 157 606
3 612 28 611
3 614 613 608
3 608 158 614
3 613 156 608
3 614 41 613
3 617 615 616
3 616 95 617
3 615 157 616
3 617 55 615
3 611 350 616
3 616 157 611
3 350 95 616
3 611 28 350
3 209 610 615
3 615 55 209
3 610 157 615
3 209 15 610
3 351 210 617
3 617 95 351
3 210 55 617
3 351 7 210
3 620 618 619
3 619 135 620
3 618 156 619
3 620 94 618
3 613 490 619
3 619 156 613
3 490 135 619
3 613 41 490
3 342 612 618
3 618 94 342
3 612 156 618
3 342 28 612
3 491 345 620
3 620 135 491
3 345 94 620
3 491 2 345
3 623 621 622
3 622 56 623
3 621 158 622
3 623 134 621
3 609 215 622
3 622 158 609
3 215 56 622
3 609 15 215
3 484 614 621
3 621 134 484
3 614 158 621
3 484 41 614
3 216 485 623
3 623 56 216
3 485 134 623
3 216 9 485
3 626 624 625
3 625 161 626
3 624 160 625
3 626 159 624
3 628 627 625
3 625 160 628
3 627 161 625
3 628 31 627
3 630 629 624
3 624 159 630
3 629 160 624
3 630 20 629
3 632 631 626
3 626 161 632
3 631 159 626
3 632 40 631
3 635 633 634
3 634 73 635
3 633 160 634
3 635 105 633
3 629 272 634
3 634 160 629
3 272 73 634
3 629 20 272
3 382 628 633
3 633 105 382
3 628 160 633
3 382 31 628
3 273 385 635
3 635 73 273
3 385 105 635
3 273 6 385
3 638 636 637
3 637 137 638
3 636 159 637
3 638 72 636
3 631 496 637
3 637 159 631
3 496 137 637
3 631 40 496
3 265 630 636
3 636 72 265
3 630 159 636
3 265 20 630
3 497 268 638
3 638 137 497
3 268 72 638
3 497 10 268
3 641 639 640
3 640 102 641
3 639 161 640
3 641 136 639
3 627 372 640
3 640 161 627
3 372 102 640
3 627 31 372
3 489 632 639
3 639 136 489
3 632 161 639
3 489 40 632
3 373 492 641
3 641 102 373
3 492 136 641
3 373 2 492
