# vtk DataFile Version 3.0
this file was written using fslvtkio
ASCII
DATASET POLYDATA
POINTS 642 float
129.212 109.875 108.03
126.371 113.199 108.682
126.232 98.3835 103.241
129.042 93.2016 99.0712
126.994 94.0383 106.785
130.801 108.354 102.528
126.951 112.877 106.244
124.252 94.936 108.659
128.001 110.976 114.042
127.199 82.8091 98.3835
131.632 94.3207 95.288
128.191 123.875 109.202
125.326 100.415 113.967
126.869 101.814 111.596
125.231 90.537 109.597
124.943 87.6291 104.101
125.391 85.7796 102.781
123.251 119.216 105.585
129.187 109.752 104.649
129.339 119.727 106.811
128.845 102.329 101.38
132.567 100.57 97.6036
126.619 92.3916 102.585
127.927 102.39 107.846
128.732 101.671 103.795
132.506 99.7359 98.9802
130.181 110.75 105.74
125.625 104.369 110.241
126.435 94.7518 105.235
125.187 104.934 106.045
122.123 115.558 106.181
126.275 104.743 103.422
129.354 119.499 109.78
128.599 111.761 111.704
128.912 121.207 111.672
126.637 120.545 107.72
128.449 111.946 111.356
132.885 90.3549 93.5425
129.229 86.3889 94.6331
127.975 84.3412 97.2267
127.342 92.7934 98.6474
127.352 89.677 100.36
126.693 101.325 113.631
126.466 95.9113 110.411
124.783 95.8643 111.958
126.27 92.3199 107.856
126.721 98.193 109.064
128.065 106.464 113.502
126.548 106.028 114.713
124.013 98.58 111.275
124.004 91.4206 109.49
123.79 87.5034 106.95
125.273 87.7612 106.787
124.851 84.0612 103.96
125.611 89.8574 104.416
124.817 91.5112 106.375
126.375 84.7031 101.102
126.521 82.0503 100.249
126.02 117.538 106.071
128.653 115.322 105.838
127.485 119.318 106.07
129.273 113.999 105.356
130.314 109.346 102.778
127.986 112.58 105.752
124.273 117.613 105.338
126.015 122.476 106.421
128.724 122.683 107.791
130.841 101.911 98.6655
131.214 105.037 100.105
129.048 106.346 102.326
132.698 104.923 99.0236
132.982 96.1357 96.0953
134.137 98.1742 98.2434
126.694 106.387 102.854
127.111 96.8262 105.211
128.042 101.028 105.55
127.707 97.1815 103.282
129.041 105.738 106.053
128.391 105.918 108.142
127.414 98.2536 107.395
126.875 92.7025 104.443
127.693 92.5977 100.84
129.103 97.0118 101.61
130.445 101.038 101.805
129.435 106.007 104.743
131.475 105.546 102.731
129.577 111.429 107.103
131.291 96.464 99.3446
132.959 103.811 100.571
130.161 110.296 104.418
125.643 100.265 107.986
124.897 99.4945 106.082
124.907 104.244 108.124
125.526 101.974 104.84
125.751 97.1725 104.39
126.06 95.7455 106.981
125.113 99.7544 109.28
127.14 108.62 109.366
126.031 109.53 107.813
123.783 110.287 106.144
125.098 105.425 104.325
124.038 109.352 105.259
126.705 101.598 103.593
125.16 115.235 107.344
124.282 114.532 105.873
124.848 106.714 103.308
128.954 116.132 110.844
129.478 118.381 112.594
129.338 122.503 111.609
128.346 116.55 112.827
128.504 112.387 113.279
129.291 111.15 110.053
129.503 114.6 109.54
128.637 122.375 109.704
127.531 124.004 111.297
128.006 121.295 110.212
128.86 116.727 111.307
128.621 118.189 109.542
128.039 111.344 112.902
127.285 122.45 108.857
127.765 117.581 108.097
127.526 113.644 110.117
131.31 86.8961 92.8592
129.126 82.3641 94.8441
130.94 87.4917 95.5341
127.957 80.6378 97.8989
127.765 84.1442 96.7431
130.379 90.8489 94.4647
132.176 92.9856 93.0314
130.968 92.3879 96.9683
128.801 89.4203 98.1008
126.844 91.4887 99.3776
127.837 87.3936 97.2786
128.51 89.9879 95.6051
126.294 85.9144 99.6292
126.459 94.0745 101.904
127.199 96.9508 101.338
130.097 94.027 97.0857
127.563 102.396 109.831
128.089 106.763 111.853
128.819 107.183 109.766
130.799 115.417 107.568
129.941 119.683 108.185
130.711 115.353 105.968
126.373 85.5171 99.7824
125.432 88.6834 101.909
126.752 89.1586 99.7673
132.857 94.1087 96.4542
132.621 100.225 98.3919
131.613 94.3749 95.6347
127.087 106.115 112.682
125.397 102.729 111.939
127.229 109.001 110.898
124.87 118.635 106.613
120.179 116.608 103.997
123.544 121.578 106.94
126.268 92.4951 102.709
125.163 91.1592 104.611
126.227 88.8278 102.134
129.32 97.1222 99.3602
127.663 102.347 101.793
127.136 98.1336 100.772
126.597 98.3914 112.121
125.903 95.8616 111.344
125.751 98.0968 113.122
125.266 93.3241 110.868
126.333 92.8636 110.345
126.905 98.7225 111.391
126.835 101.107 112.502
125.994 100.729 114.318
124.904 98.2132 113.064
126.8 93.9523 109.447
126.946 97.2914 110.05
127.26 95.0634 108.619
126.953 99.8448 110.667
125.996 91.4371 108.567
127.144 92.8762 107.385
127.651 95.92 108.242
127.23 103.474 113.651
126.509 103.2 114.972
127.408 105.739 114.303
126.204 102.658 114.558
127.245 104.041 112.679
127.56 108.814 113.654
127.428 107.884 114.442
124.05 96.2075 112.049
124.699 94.164 110.417
124.361 95.3596 110.534
124.598 90.8907 110.132
124.598 98.4485 112.593
124.347 96.5905 110.057
123.995 93.3314 109.448
124.256 87.0129 107.287
124.945 85.1594 106.102
123.911 84.9903 105.836
125.062 84.9934 103.78
125.215 86.4166 105.273
125.135 89.2822 107.962
124.169 89.0227 108.547
123.347 86.5257 105.909
124.631 85.1455 103.895
125.796 88.6151 105.356
126.164 90.0119 107.149
126.286 90.944 106.268
125.252 87.326 104.017
126.113 91.919 105.615
123.706 89.5309 108.522
124.246 89.9775 106.689
123.319 91.4729 108.331
124.148 88.7079 105.271
124.558 93.3878 107.916
126.02 84.7223 102.362
125.839 83.228 101.8
126.147 82.2532 100.47
125.964 84.0022 101.429
126.439 86.7523 102.783
126.595 82.7481 99.756
126.587 80.569 98.9802
127.964 115.885 105.61
128.802 117.003 106.048
127.03 117.771 106.102
128.657 119.514 106.518
129.33 117.361 106.33
127.638 113.167 106.328
127.034 115.103 106.278
124.839 118.67 106.185
125.785 119.906 105.852
129.034 114.99 105.463
127.98 111.537 105.902
128.679 110.752 105.266
129.635 108.988 103.419
129.997 116.917 105.835
129.41 110.747 104.405
130.623 109.145 102.668
125.217 116.816 106.307
124.234 118.441 105.702
125.473 116.983 106.004
122.38 118.835 104.839
128.079 112.216 105.49
127.411 113.8 106.066
126.187 115.994 106.289
126.14 120.532 106.433
127.478 121.014 106.608
127.675 122.201 107.213
128.622 121.019 107.269
124.306 119.961 105.686
127.397 122.484 107.491
128.2 123.163 108.281
130.492 103.682 98.974
130.103 105.349 101.472
129.651 104.037 100.582
129.412 107.954 103.283
130.812 106.785 102.394
131.243 105.101 98.5121
132.017 101.706 98.4498
130.043 102.507 100.513
129.108 103.778 101.743
131.206 106.934 101.732
132.326 104.964 98.9874
131.786 106.93 101.114
133.102 104.054 97.4637
131.98 105.958 100.562
132.525 99.18 97.8089
132.552 99.4066 99.1975
133.111 96.6378 96.8541
132.02 100.874 100.288
132.491 97.9103 97.8143
132.29 95.4173 94.8267
132.07 95.3302 96.0894
128.012 106.898 102.789
128.667 108.904 103.465
127.473 108.908 103.526
128.44 104.434 102.529
126.681 109.637 104.248
127.864 98.7805 105.446
128.374 99.0338 104.496
127.358 96.9114 104.169
128.207 99.4716 103.745
128.37 101.398 104.734
128.026 101.009 106.546
127.629 99.3382 106.601
127.161 94.9006 103.855
126.914 94.9161 103.025
128.04 102.986 105.696
128.374 103.314 106.685
128.868 105.21 106.95
128.325 103.735 107.718
128.349 103.353 104.828
129.141 107.24 107.034
129.008 107.652 108.095
127.834 97.6161 106.511
126.843 94.8074 104.842
127.545 95.3038 106.307
126.763 92.8256 103.64
127.424 100.564 107.844
127.291 96.2241 107.221
126.884 93.3977 105.691
127.335 94.9795 102.025
128.476 97.3739 102.638
127.869 94.8933 101.054
128.712 99.4484 102.837
126.902 92.8453 101.766
128.992 93.0848 99.9669
129.363 95.3966 100.248
130.073 102.917 103.367
130.056 105.345 103.784
131.466 103.154 102.151
131.034 107.657 104.147
129.582 108.217 105.105
129.063 103.535 104.05
129.662 100.975 102.713
131.434 100.492 100.317
131.84 102.934 101.251
129.338 108.841 105.948
129.147 105.897 105.378
129.41 108.356 106.556
129.966 111.664 106.441
129.634 110.83 107.67
130.05 98.6206 101.514
131.402 98.8927 100.492
130.046 96.7067 100.351
131.695 98.1625 99.3443
129.749 94.675 99.0071
132.511 105.493 101.681
131.205 108.294 103.7
131.571 106.88 103.101
129.705 110.418 105.365
132.579 101.932 99.8768
132.14 106.204 101.058
130.584 109.137 103.539
125.367 99.5735 107.203
125.283 101.796 107.407
125.095 102.096 108.312
125.813 103.948 107.207
125.232 101.909 106.453
125.723 97.3808 106.01
125.832 97.5365 106.714
125.314 102.598 109.224
125.218 104.227 109.252
125.397 101.128 105.708
125.239 98.5551 105.329
125.542 99.6138 104.852
125.903 95.9128 104.921
125.05 103.328 105.542
125.917 100.405 104.105
125.769 97.6765 103.583
125.727 98.1317 107.396
125.42 100.406 108.554
126.227 97.9667 108.165
125.14 102.21 109.823
126.331 95.5806 106.277
125.334 95.1676 107.797
125.167 97.5543 109.003
126.764 106.631 109.037
126.343 106.592 107.751
127.025 109.343 108.477
125.788 106.773 107.21
126.689 106.32 109.904
127.313 111.116 109.102
125.65 111.328 108.266
124.429 107.381 105.72
124.112 106.495 104.784
123.282 109.597 105.756
124.477 106.785 104.056
125.914 105.04 103.675
124.835 105.884 105.429
124.618 107.711 106.384
122.538 112.449 106.042
122.891 112.442 105.596
125.63 103.807 103.871
125.18 104.336 104.962
125.802 102.025 104.26
126.37 102.751 102.981
126.482 99.9439 103.234
125.563 109.912 107.009
123.491 111.489 106.57
125.516 111.533 107.498
123.324 115.066 106.714
126.007 113.96 107.804
124.243 112.442 105.579
124.486 107.941 104.163
125.748 111.632 105.324
125.678 105.941 103.617
122.416 115.011 105.676
126.087 113.926 106.444
126.07 109.143 104.232
129.048 117.3 111.68
129.515 120.571 112.232
129.349 119.375 111.23
128.993 122.783 112.191
129.324 120.853 112.873
129.127 115.125 112.184
128.96 114.282 111.415
129.161 118.159 110.352
129.165 120.723 110.786
128.576 118.111 112.676
128.835 115.612 112.716
128.542 115.215 113.53
128.373 112.063 112.24
128.87 119.621 111.846
128.28 113.904 113.245
128.07 111.931 113.904
129.033 113.64 110.615
129.001 115.595 110.126
129.009 112.685 109.658
129.654 117.229 109.362
128.185 111.804 110.695
129.283 110.195 108.881
129.756 112.33 108.645
128.667 122.669 110.836
128.433 123.776 111.676
128.124 123.33 110.503
127.824 122.776 111.829
129.143 121.507 109.954
128.747 124.114 109.369
127.774 124 110.323
128.948 119.471 110.544
128.872 117.237 110.765
128.666 119.544 109.777
128.118 115.646 110.862
128.722 114.294 111.054
128.883 119.173 110.983
127.735 121.079 111.249
127.249 120.751 109.346
127.678 119.745 108.734
128.579 114.354 111.953
128.661 116.813 112.032
128.575 113.68 112.796
128.36 111.952 112.138
128.152 110.864 113.373
127.23 122.532 111.411
126.647 121.947 109.989
127.428 123.437 110.354
126.557 121.551 108.33
127.795 122.832 108.968
128.067 117.708 109.22
127.453 115.888 110.252
127.119 115.492 109.467
128.384 113.666 110.622
127.535 119.176 108.045
126.816 115.168 108.746
126.821 113.132 109.349
130.702 84.6664 93.6549
130.54 84.5346 95.1336
131.706 86.4788 94.2174
129.886 85.4096 96.2655
129.546 82.5951 96.0041
129.294 84.0149 94.256
130.026 86.2 93.368
132.374 88.3531 92.5821
132.667 88.8388 94.0505
128.524 80.2722 95.3695
127.761 83.6269 96.0916
127.572 84.0804 97.6206
128.568 85.3621 95.6201
128.515 81.5604 97.1106
126.947 81.1183 97.6855
127.085 83.8694 97.8978
130.572 88.8764 93.1843
131.9 89.5797 92.5144
131.1 91.624 93.1471
132.386 90.9986 93.057
129.787 88.3981 93.9622
131.358 93.004 95.3592
131.552 93.9832 93.9661
131.192 89.509 95.7978
129.661 88.2501 96.8455
129.337 90.9985 97.6149
128.351 86.7189 97.2687
132.591 89.8711 95.3468
129.899 92.7707 98.0835
128.918 91.2938 98.7738
126.829 89.5076 97.94
127.509 88.7256 96.1218
127.592 90.1251 97.3506
129.132 88.2915 94.9069
128.759 86.7782 96.0294
126.767 88.8339 98.8504
126.698 90.8813 99.6078
126.979 91.9928 98.7936
127.995 91.0073 97.1667
127.263 85.8395 96.8251
126.555 87.238 98.5359
127 85.2662 98.2524
126.966 87.9044 99.8003
126.449 84.1099 99.2093
126.605 92.8149 100.925
127.373 93.7949 100.461
126.797 95.916 101.571
126.893 94.7186 100.064
126.659 91.3622 101.132
126.389 96.1645 102.668
127.248 97.7042 102.614
128.943 92.0835 96.7085
128.82 89.919 94.6146
130.239 92.3687 95.6806
128.632 93.3904 98.0952
131.515 94.9211 96.1769
127.792 104.944 110.87
128.467 107.512 111.086
128.139 105.124 109.871
128.709 109.19 110.885
128.029 109.164 111.391
127.598 104.472 111.946
127.538 102.121 110.84
127.899 103.029 109.163
128.482 104.689 108.967
127.396 110.076 112.076
127.967 107.283 112.72
127.704 109.902 113.08
126.797 100.202 109.503
127.465 100.767 108.709
127.549 98.262 108.313
128.358 106.734 109.007
128.439 109.601 110.114
128.797 108.711 109.158
130.012 117.403 107.959
130.054 117.606 107.117
130.602 115.752 106.817
130.171 117.508 106.428
129.742 118.962 107.297
130.05 119.509 109.081
130.443 117.526 108.646
130.958 113.958 106.577
130.811 113.531 106.111
129.483 120.769 107.834
129.468 120.614 108.944
128.596 121.385 108.909
130.347 115.282 108.612
130.968 113.901 107.518
130.129 113.287 108.347
130.469 113.129 105.329
130.377 114.804 105.248
129.723 111.43 104.657
125.862 86.9252 101.172
126.05 89.4894 101.298
126.554 87.2521 99.8652
125.89 91.0251 101.121
125.876 90.7146 102.412
125.268 86.9726 102.815
125.542 85.6369 101.168
126.803 84.1445 98.1484
127.332 86.6133 98.3496
126.112 90.918 103.17
125.678 88.889 103.222
126.162 91.5267 104.436
126.063 83.9364 100.115
127.211 82.9681 98.6482
127.822 80.0551 99.0665
127.557 88.7999 98.5979
126.977 91.0947 100.457
128.249 90.9449 99.6645
133.993 96.6393 97.031
133.509 96.9126 97.1527
132.586 93.6992 95.5718
132.289 96.1829 97.2168
133.528 100.779 97.6291
132.123 99.6866 98.8351
133.176 96.9791 97.6587
133.235 91.5111 94.9184
131.753 92.5596 93.9429
132.948 103.967 98.4408
132.566 102.52 99.4367
132.57 104.686 100.231
132.883 96.0584 98.2544
131.818 93.2171 96.3046
131.118 94.4346 97.9721
132.072 94.1232 94.4797
132.571 95.2636 96.3137
132.487 96.0855 93.9436
126.253 103.489 112.587
126.025 105.344 111.399
127.239 107.576 111.6
126.439 106.64 110.604
125.8 103.979 110.847
125.045 100.117 113.107
126.021 102.913 113.877
128.346 109.265 111.869
128.233 111.122 110.738
124.541 102.122 110.32
124.041 100.477 111.602
124.232 99.0918 110.111
126.484 106.211 113.976
127.937 109.32 112.649
127.463 108.845 113.823
127.893 111.653 110.177
127.064 109.282 110.138
126.67 111.378 109.845
121.797 118.275 106.058
121.544 118.666 105.72
123.314 119.935 106.462
122.829 119.991 106.011
120.906 117.807 104.594
121.013 116.363 105.258
123.541 117.386 106.831
126.358 119.204 107.095
124.349 121.251 107.59
122.085 116.97 103.162
122.856 116.185 104.837
125.503 116.165 105.793
125.462 117.403 107.202
126.888 118.341 107.424
126.843 116.536 107.704
124.711 122.744 107.792
125.289 121.958 106.447
126.701 122.791 107.571
126.029 91.7097 103.549
126.283 89.9632 103.404
126.571 90.6658 102.247
125.52 87.8438 103.226
125.29 89.3595 104.272
125.96 92.7961 104.727
125.51 93.5843 103.759
126.393 91.093 101.485
126.98 89.4424 101.365
124.68 90.9671 105.337
125.089 93.3775 105.759
125.102 93.3072 106.771
126.017 94.9123 103.886
126.234 93.227 102.339
126.022 95.6791 103.109
127.142 88.2391 101.013
126.385 87.0417 102.043
126.407 85.138 100.416
127.797 99.8823 100.444
127.408 100.765 101.376
127.65 97.4382 99.8606
127.188 101.395 102.313
126.879 102.825 102.692
128.427 102.273 101.622
129.101 99.6342 100.03
128.357 94.6785 99.1371
127.134 95.6354 99.8084
126.912 104.56 102.392
126.621 103.996 101.862
126.722 106.642 103.372
131.323 98.4715 98.9421
129.783 95.6373 98.3087
131.869 96.5253 97.6172
127.099 98.035 101.224
126.436 100.748 102.501
126.938 99.0886 102.605
POLYGONS 1280  5120
3 164 162 163
3 163 44 164
3 162 43 163
3 164 42 162
3 166 165 163
3 163 43 166
3 165 44 163
3 166 14 165
3 168 167 162
3 162 42 168
3 167 43 162
3 168 13 167
3 170 169 164
3 164 44 170
3 169 42 164
3 170 12 169
3 173 171 172
3 172 46 173
3 171 43 172
3 173 45 171
3 167 174 172
3 172 43 167
3 174 46 172
3 167 13 174
3 175 166 171
3 171 45 175
3 166 43 171
3 175 14 166
3 177 176 173
3 173 46 177
3 176 45 173
3 177 4 176
3 180 178 179
3 179 48 180
3 178 42 179
3 180 47 178
3 169 181 179
3 179 42 169
3 181 48 179
3 169 12 181
3 182 168 178
3 178 47 182
3 168 42 178
3 182 13 168
3 184 183 180
3 180 48 184
3 183 47 180
3 184 8 183
3 187 185 186
3 186 50 187
3 185 44 186
3 187 49 185
3 165 188 186
3 186 44 165
3 188 50 186
3 165 14 188
3 189 170 185
3 185 49 189
3 170 44 185
3 189 12 170
3 191 190 187
3 187 50 191
3 190 49 187
3 191 7 190
3 194 192 193
3 193 53 194
3 192 52 193
3 194 51 192
3 196 195 193
3 193 52 196
3 195 53 193
3 196 16 195
3 198 197 192
3 192 51 198
3 197 52 192
3 198 14 197
3 200 199 194
3 194 53 200
3 199 51 194
3 200 15 199
3 203 201 202
3 202 45 203
3 201 52 202
3 203 54 201
3 197 175 202
3 202 52 197
3 175 45 202
3 197 14 175
3 204 196 201
3 201 54 204
3 196 52 201
3 204 16 196
3 176 205 203
3 203 45 176
3 205 54 203
3 176 4 205
3 208 206 207
3 207 55 208
3 206 51 207
3 208 50 206
3 199 209 207
3 207 51 199
3 209 55 207
3 199 15 209
3 188 198 206
3 206 50 188
3 198 51 206
3 188 14 198
3 210 191 208
3 208 55 210
3 191 50 208
3 210 7 191
3 213 211 212
3 212 57 213
3 211 53 212
3 213 56 211
3 195 214 212
3 212 53 195
3 214 57 212
3 195 16 214
3 215 200 211
3 211 56 215
3 200 53 211
3 215 15 200
3 217 216 213
3 213 57 217
3 216 56 213
3 217 9 216
3 220 218 219
3 219 60 220
3 218 59 219
3 220 58 218
3 222 221 219
3 219 59 222
3 221 60 219
3 222 19 221
3 224 223 218
3 218 58 224
3 223 59 218
3 224 18 223
3 226 225 220
3 220 60 226
3 225 58 220
3 226 17 225
3 229 227 228
3 228 62 229
3 227 59 228
3 229 61 227
3 223 230 228
3 228 59 223
3 230 62 228
3 223 18 230
3 231 222 227
3 227 61 231
3 222 59 227
3 231 19 222
3 233 232 229
3 229 62 233
3 232 61 229
3 233 5 232
3 236 234 235
3 235 64 236
3 234 58 235
3 236 63 234
3 225 237 235
3 235 58 225
3 237 64 235
3 225 17 237
3 238 224 234
3 234 63 238
3 224 58 234
3 238 18 224
3 240 239 236
3 236 64 240
3 239 63 236
3 240 6 239
3 243 241 242
3 242 66 243
3 241 60 242
3 243 65 241
3 221 244 242
3 242 60 221
3 244 66 242
3 221 19 244
3 245 226 241
3 241 65 245
3 226 60 241
3 245 17 226
3 247 246 243
3 243 66 247
3 246 65 243
3 247 11 246
3 250 248 249
3 249 69 250
3 248 68 249
3 250 67 248
3 252 251 249
3 249 68 252
3 251 69 249
3 252 18 251
3 254 253 248
3 248 67 254
3 253 68 248
3 254 21 253
3 256 255 250
3 250 69 256
3 255 67 250
3 256 20 255
3 259 257 258
3 258 70 259
3 257 68 258
3 259 62 257
3 253 260 258
3 258 68 253
3 260 70 258
3 253 21 260
3 230 252 257
3 257 62 230
3 252 68 257
3 230 18 252
3 261 233 259
3 259 70 261
3 233 62 259
3 261 5 233
3 264 262 263
3 263 72 264
3 262 67 263
3 264 71 262
3 255 265 263
3 263 67 255
3 265 72 263
3 255 20 265
3 266 254 262
3 262 71 266
3 254 67 262
3 266 21 254
3 268 267 264
3 264 72 268
3 267 71 264
3 268 10 267
3 271 269 270
3 270 63 271
3 269 69 270
3 271 73 269
3 251 238 270
3 270 69 251
3 238 63 270
3 251 18 238
3 272 256 269
3 269 73 272
3 256 69 269
3 272 20 256
3 239 273 271
3 271 63 239
3 273 73 271
3 239 6 273
3 276 274 275
3 275 76 276
3 274 75 275
3 276 74 274
3 278 277 275
3 275 75 278
3 277 76 275
3 278 24 277
3 280 279 274
3 274 74 280
3 279 75 274
3 280 23 279
3 282 281 276
3 276 76 282
3 281 74 276
3 282 22 281
3 285 283 284
3 284 78 285
3 283 75 284
3 285 77 283
3 279 286 284
3 284 75 279
3 286 78 284
3 279 23 286
3 287 278 283
3 283 77 287
3 278 75 283
3 287 24 278
3 289 288 285
3 285 78 289
3 288 77 285
3 289 0 288
3 292 290 291
3 291 80 292
3 290 74 291
3 292 79 290
3 281 293 291
3 291 74 281
3 293 80 291
3 281 22 293
3 294 280 290
3 290 79 294
3 280 74 290
3 294 23 280
3 296 295 292
3 292 80 296
3 295 79 292
3 296 4 295
3 299 297 298
3 298 82 299
3 297 76 298
3 299 81 297
3 277 300 298
3 298 76 277
3 300 82 298
3 277 24 300
3 301 282 297
3 297 81 301
3 282 76 297
3 301 22 282
3 303 302 299
3 299 82 303
3 302 81 299
3 303 3 302
3 306 304 305
3 305 85 306
3 304 84 305
3 306 83 304
3 308 307 305
3 305 84 308
3 307 85 305
3 308 26 307
3 310 309 304
3 304 83 310
3 309 84 304
3 310 24 309
3 312 311 306
3 306 85 312
3 311 83 306
3 312 25 311
3 315 313 314
3 314 77 315
3 313 84 314
3 315 86 313
3 309 287 314
3 314 84 309
3 287 77 314
3 309 24 287
3 316 308 313
3 313 86 316
3 308 84 313
3 316 26 308
3 288 317 315
3 315 77 288
3 317 86 315
3 288 0 317
3 320 318 319
3 319 87 320
3 318 83 319
3 320 82 318
3 311 321 319
3 319 83 311
3 321 87 319
3 311 25 321
3 300 310 318
3 318 82 300
3 310 83 318
3 300 24 310
3 322 303 320
3 320 87 322
3 303 82 320
3 322 3 303
3 325 323 324
3 324 89 325
3 323 85 324
3 325 88 323
3 307 326 324
3 324 85 307
3 326 89 324
3 307 26 326
3 327 312 323
3 323 88 327
3 312 85 323
3 327 25 312
3 329 328 325
3 325 89 329
3 328 88 325
3 329 5 328
3 332 330 331
3 331 92 332
3 330 91 331
3 332 90 330
3 334 333 331
3 331 91 334
3 333 92 331
3 334 29 333
3 336 335 330
3 330 90 336
3 335 91 330
3 336 28 335
3 338 337 332
3 332 92 338
3 337 90 332
3 338 27 337
3 341 339 340
3 340 94 341
3 339 91 340
3 341 93 339
3 335 342 340
3 340 91 335
3 342 94 340
3 335 28 342
3 343 334 339
3 339 93 343
3 334 91 339
3 343 29 334
3 345 344 341
3 341 94 345
3 344 93 341
3 345 2 344
3 348 346 347
3 347 96 348
3 346 90 347
3 348 95 346
3 337 349 347
3 347 90 337
3 349 96 347
3 337 27 349
3 350 336 346
3 346 95 350
3 336 90 346
3 350 28 336
3 352 351 348
3 348 96 352
3 351 95 348
3 352 7 351
3 355 353 354
3 354 98 355
3 353 92 354
3 355 97 353
3 333 356 354
3 354 92 333
3 356 98 354
3 333 29 356
3 357 338 353
3 353 97 357
3 338 92 353
3 357 27 338
3 359 358 355
3 355 98 359
3 358 97 355
3 359 1 358
3 362 360 361
3 361 101 362
3 360 100 361
3 362 99 360
3 364 363 361
3 361 100 364
3 363 101 361
3 364 31 363
3 366 365 360
3 360 99 366
3 365 100 360
3 366 29 365
3 368 367 362
3 362 101 368
3 367 99 362
3 368 30 367
3 371 369 370
3 370 93 371
3 369 100 370
3 371 102 369
3 365 343 370
3 370 100 365
3 343 93 370
3 365 29 343
3 372 364 369
3 369 102 372
3 364 100 369
3 372 31 364
3 344 373 371
3 371 93 344
3 373 102 371
3 344 2 373
3 376 374 375
3 375 103 376
3 374 99 375
3 376 98 374
3 367 377 375
3 375 99 367
3 377 103 375
3 367 30 377
3 356 366 374
3 374 98 356
3 366 99 374
3 356 29 366
3 378 359 376
3 376 103 378
3 359 98 376
3 378 1 359
3 381 379 380
3 380 105 381
3 379 101 380
3 381 104 379
3 363 382 380
3 380 101 363
3 382 105 380
3 363 31 382
3 383 368 379
3 379 104 383
3 368 101 379
3 383 30 368
3 385 384 381
3 381 105 385
3 384 104 381
3 385 6 384
3 388 386 387
3 387 108 388
3 386 107 387
3 388 106 386
3 390 389 387
3 387 107 390
3 389 108 387
3 390 34 389
3 392 391 386
3 386 106 392
3 391 107 386
3 392 33 391
3 394 393 388
3 388 108 394
3 393 106 388
3 394 32 393
3 397 395 396
3 396 110 397
3 395 107 396
3 397 109 395
3 391 398 396
3 396 107 391
3 398 110 396
3 391 33 398
3 399 390 395
3 395 109 399
3 390 107 395
3 399 34 390
3 401 400 397
3 397 110 401
3 400 109 397
3 401 8 400
3 404 402 403
3 403 112 404
3 402 106 403
3 404 111 402
3 393 405 403
3 403 106 393
3 405 112 403
3 393 32 405
3 406 392 402
3 402 111 406
3 392 106 402
3 406 33 392
3 408 407 404
3 404 112 408
3 407 111 404
3 408 0 407
3 411 409 410
3 410 114 411
3 409 108 410
3 411 113 409
3 389 412 410
3 410 108 389
3 412 114 410
3 389 34 412
3 413 394 409
3 409 113 413
3 394 108 409
3 413 32 394
3 415 414 411
3 411 114 415
3 414 113 411
3 415 11 414
3 418 416 417
3 417 117 418
3 416 116 417
3 418 115 416
3 420 419 417
3 417 116 420
3 419 117 417
3 420 36 419
3 422 421 416
3 416 115 422
3 421 116 416
3 422 34 421
3 424 423 418
3 418 117 424
3 423 115 418
3 424 35 423
3 427 425 426
3 426 109 427
3 425 116 426
3 427 118 425
3 421 399 426
3 426 116 421
3 399 109 426
3 421 34 399
3 428 420 425
3 425 118 428
3 420 116 425
3 428 36 420
3 400 429 427
3 427 109 400
3 429 118 427
3 400 8 429
3 432 430 431
3 431 119 432
3 430 115 431
3 432 114 430
3 423 433 431
3 431 115 423
3 433 119 431
3 423 35 433
3 412 422 430
3 430 114 412
3 422 115 430
3 412 34 422
3 434 415 432
3 432 119 434
3 415 114 432
3 434 11 415
3 437 435 436
3 436 121 437
3 435 117 436
3 437 120 435
3 419 438 436
3 436 117 419
3 438 121 436
3 419 36 438
3 439 424 435
3 435 120 439
3 424 117 435
3 439 35 424
3 441 440 437
3 437 121 441
3 440 120 437
3 441 1 440
3 444 442 443
3 443 124 444
3 442 123 443
3 444 122 442
3 446 445 443
3 443 123 446
3 445 124 443
3 446 39 445
3 448 447 442
3 442 122 448
3 447 123 442
3 448 38 447
3 450 449 444
3 444 124 450
3 449 122 444
3 450 37 449
3 453 451 452
3 452 126 453
3 451 123 452
3 453 125 451
3 447 454 452
3 452 123 447
3 454 126 452
3 447 38 454
3 455 446 451
3 451 125 455
3 446 123 451
3 455 39 446
3 457 456 453
3 453 126 457
3 456 125 453
3 457 9 456
3 460 458 459
3 459 128 460
3 458 122 459
3 460 127 458
3 449 461 459
3 459 122 449
3 461 128 459
3 449 37 461
3 462 448 458
3 458 127 462
3 448 122 458
3 462 38 448
3 464 463 460
3 460 128 464
3 463 127 460
3 464 10 463
3 467 465 466
3 466 130 467
3 465 124 466
3 467 129 465
3 445 468 466
3 466 124 445
3 468 130 466
3 445 39 468
3 469 450 465
3 465 129 469
3 450 124 465
3 469 37 450
3 471 470 467
3 467 130 471
3 470 129 467
3 471 3 470
3 474 472 473
3 473 133 474
3 472 132 473
3 474 131 472
3 476 475 473
3 473 132 476
3 475 133 473
3 476 38 475
3 478 477 472
3 472 131 478
3 477 132 472
3 478 41 477
3 480 479 474
3 474 133 480
3 479 131 474
3 480 40 479
3 483 481 482
3 482 134 483
3 481 132 482
3 483 126 481
3 477 484 482
3 482 132 477
3 484 134 482
3 477 41 484
3 454 476 481
3 481 126 454
3 476 132 481
3 454 38 476
3 485 457 483
3 483 134 485
3 457 126 483
3 485 9 457
3 488 486 487
3 487 136 488
3 486 131 487
3 488 135 486
3 479 489 487
3 487 131 479
3 489 136 487
3 479 40 489
3 490 478 486
3 486 135 490
3 478 131 486
3 490 41 478
3 492 491 488
3 488 136 492
3 491 135 488
3 492 2 491
3 495 493 494
3 494 127 495
3 493 133 494
3 495 137 493
3 475 462 494
3 494 133 475
3 462 127 494
3 475 38 462
3 496 480 493
3 493 137 496
3 480 133 493
3 496 40 480
3 463 497 495
3 495 127 463
3 497 137 495
3 463 10 497
3 500 498 499
3 499 140 500
3 498 139 499
3 500 138 498
3 502 501 499
3 499 139 502
3 501 140 499
3 502 33 501
3 504 503 498
3 498 138 504
3 503 139 498
3 504 13 503
3 506 505 500
3 500 140 506
3 505 138 500
3 506 23 505
3 509 507 508
3 508 47 509
3 507 139 508
3 509 110 507
3 503 182 508
3 508 139 503
3 182 47 508
3 503 13 182
3 398 502 507
3 507 110 398
3 502 139 507
3 398 33 502
3 183 401 509
3 509 47 183
3 401 110 509
3 183 8 401
3 512 510 511
3 511 79 512
3 510 138 511
3 512 46 510
3 505 294 511
3 511 138 505
3 294 79 511
3 505 23 294
3 174 504 510
3 510 46 174
3 504 138 510
3 174 13 504
3 295 177 512
3 512 79 295
3 177 46 512
3 295 4 177
3 515 513 514
3 514 111 515
3 513 140 514
3 515 78 513
3 501 406 514
3 514 140 501
3 406 111 514
3 501 33 406
3 286 506 513
3 513 78 286
3 506 140 513
3 286 23 506
3 407 289 515
3 515 111 407
3 289 78 515
3 407 0 289
3 518 516 517
3 517 143 518
3 516 142 517
3 518 141 516
3 520 519 517
3 517 142 520
3 519 143 517
3 520 19 519
3 522 521 516
3 516 141 522
3 521 142 516
3 522 32 521
3 524 523 518
3 518 143 524
3 523 141 518
3 524 26 523
3 527 525 526
3 526 113 527
3 525 142 526
3 527 66 525
3 521 413 526
3 526 142 521
3 413 113 526
3 521 32 413
3 244 520 525
3 525 66 244
3 520 142 525
3 244 19 520
3 414 247 527
3 527 113 414
3 247 66 527
3 414 11 247
3 530 528 529
3 529 86 530
3 528 141 529
3 530 112 528
3 523 316 529
3 529 141 523
3 316 86 529
3 523 26 316
3 405 522 528
3 528 112 405
3 522 141 528
3 405 32 522
3 317 408 530
3 530 86 317
3 408 112 530
3 317 0 408
3 533 531 532
3 532 61 533
3 531 143 532
3 533 89 531
3 519 231 532
3 532 143 519
3 231 61 532
3 519 19 231
3 326 524 531
3 531 89 326
3 524 143 531
3 326 26 524
3 232 329 533
3 533 61 232
3 329 89 533
3 232 5 329
3 536 534 535
3 535 146 536
3 534 145 535
3 536 144 534
3 538 537 535
3 535 145 538
3 537 146 535
3 538 22 537
3 540 539 534
3 534 144 540
3 539 145 534
3 540 16 539
3 542 541 536
3 536 146 542
3 541 144 536
3 542 39 541
3 545 543 544
3 544 54 545
3 543 145 544
3 545 80 543
3 539 204 544
3 544 145 539
3 204 54 544
3 539 16 204
3 293 538 543
3 543 80 293
3 538 145 543
3 293 22 538
3 205 296 545
3 545 54 205
3 296 80 545
3 205 4 296
3 548 546 547
3 547 125 548
3 546 144 547
3 548 57 546
3 541 455 547
3 547 144 541
3 455 125 547
3 541 39 455
3 214 540 546
3 546 57 214
3 540 144 546
3 214 16 540
3 456 217 548
3 548 125 456
3 217 57 548
3 456 9 217
3 551 549 550
3 550 81 551
3 549 146 550
3 551 130 549
3 537 301 550
3 550 146 537
3 301 81 550
3 537 22 301
3 468 542 549
3 549 130 468
3 542 146 549
3 468 39 542
3 302 471 551
3 551 81 302
3 471 130 551
3 302 3 471
3 554 552 553
3 553 149 554
3 552 148 553
3 554 147 552
3 556 555 553
3 553 148 556
3 555 149 553
3 556 21 555
3 558 557 552
3 552 147 558
3 557 148 552
3 558 25 557
3 560 559 554
3 554 149 560
3 559 147 554
3 560 37 559
3 563 561 562
3 562 88 563
3 561 148 562
3 563 70 561
3 557 327 562
3 562 148 557
3 327 88 562
3 557 25 327
3 260 556 561
3 561 70 260
3 556 148 561
3 260 21 556
3 328 261 563
3 563 88 328
3 261 70 563
3 328 5 261
3 566 564 565
3 565 129 566
3 564 147 565
3 566 87 564
3 559 469 565
3 565 147 559
3 469 129 565
3 559 37 469
3 321 558 564
3 564 87 321
3 558 147 564
3 321 25 558
3 470 322 566
3 566 129 470
3 322 87 566
3 470 3 322
3 569 567 568
3 568 71 569
3 567 149 568
3 569 128 567
3 555 266 568
3 568 149 555
3 266 71 568
3 555 21 266
3 461 560 567
3 567 128 461
3 560 149 567
3 461 37 560
3 267 464 569
3 569 71 267
3 464 128 569
3 267 10 464
3 572 570 571
3 571 152 572
3 570 151 571
3 572 150 570
3 574 573 571
3 571 151 574
3 573 152 571
3 574 27 573
3 576 575 570
3 570 150 576
3 575 151 570
3 576 12 575
3 578 577 572
3 572 152 578
3 577 150 572
3 578 36 577
3 581 579 580
3 580 49 581
3 579 151 580
3 581 96 579
3 575 189 580
3 580 151 575
3 189 49 580
3 575 12 189
3 349 574 579
3 579 96 349
3 574 151 579
3 349 27 574
3 190 352 581
3 581 49 190
3 352 96 581
3 190 7 352
3 584 582 583
3 583 118 584
3 582 150 583
3 584 48 582
3 577 428 583
3 583 150 577
3 428 118 583
3 577 36 428
3 181 576 582
3 582 48 181
3 576 150 582
3 181 12 576
3 429 184 584
3 584 118 429
3 184 48 584
3 429 8 184
3 587 585 586
3 586 97 587
3 585 152 586
3 587 121 585
3 573 357 586
3 586 152 573
3 357 97 586
3 573 27 357
3 438 578 585
3 585 121 438
3 578 152 585
3 438 36 578
3 358 441 587
3 587 97 358
3 441 121 587
3 358 1 441
3 590 588 589
3 589 155 590
3 588 154 589
3 590 153 588
3 592 591 589
3 589 154 592
3 591 155 589
3 592 17 591
3 594 593 588
3 588 153 594
3 593 154 588
3 594 30 593
3 596 595 590
3 590 155 596
3 595 153 590
3 596 35 595
3 599 597 598
3 598 104 599
3 597 154 598
3 599 64 597
3 593 383 598
3 598 154 593
3 383 104 598
3 593 30 383
3 237 592 597
3 597 64 237
3 592 154 597
3 237 17 592
3 384 240 599
3 599 104 384
3 240 64 599
3 384 6 240
3 602 600 601
3 601 120 602
3 600 153 601
3 602 103 600
3 595 439 601
3 601 153 595
3 439 120 601
3 595 35 439
3 377 594 600
3 600 103 377
3 594 153 600
3 377 30 594
3 440 378 602
3 602 120 440
3 378 103 602
3 440 1 378
3 605 603 604
3 604 65 605
3 603 155 604
3 605 119 603
3 591 245 604
3 604 155 591
3 245 65 604
3 591 17 245
3 433 596 603
3 603 119 433
3 596 155 603
3 433 35 596
3 246 434 605
3 605 65 246
3 434 119 605
3 246 11 434
3 608 606 607
3 607 158 608
3 606 157 607
3 608 156 606
3 610 609 607
3 607 157 610
3 609 158 607
3 610 15 609
3 612 611 606
3 606 156 612
3 611 157 606
3 612 28 611
3 614 613 608
3 608 158 614
3 613 156 608
3 614 41 613
3 617 615 616
3 616 95 617
3 615 157 616
3 617 55 615
3 611 350 616
3 616 157 611
3 350 95 616
3 611 28 350
3 209 610 615
3 615 55 209
3 610 157 615
3 209 15 610
3 351 210 617
3 617 95 351
3 210 55 617
3 351 7 210
3 620 618 619
3 619 135 620
3 618 156 619
3 620 94 618
3 613 490 619
3 619 156 613
3 490 135 619
3 613 41 490
3 342 612 618
3 618 94 342
3 612 156 618
3 342 28 612
3 491 345 620
3 620 135 491
3 345 94 620
3 491 2 345
3 623 621 622
3 622 56 623
3 621 158 622
3 623 134 621
3 609 215 622
3 622 158 609
3 215 56 622
3 609 15 215
3 484 614 621
3 621 134 484
3 614 158 621
3 484 41 614
3 216 485 623
3 623 56 216
3 485 134 623
3 216 9 485
3 626 624 625
3 625 161 626
3 624 160 625
3 626 159 624
3 628 627 625
3 625 160 628
3 627 161 625
3 628 31 627
3 630 629 624
3 624 159 630
3 629 160 624
3 630 20 629
3 632 631 626
3 626 161 632
3 631 159 626
3 632 40 631
3 635 633 634
3 634 73 635
3 633 160 634
3 635 105 633
3 629 272 634
3 634 160 629
3 272 73 634
3 629 20 272
3 382 628 633
3 633 105 382
3 628 160 633
3 382 31 628
3 273 385 635
3 635 73 273
3 385 105 635
3 273 6 385
3 638 636 637
3 637 137 638
3 636 159 637
3 638 72 636
3 631 496 637
3 637 159 631
3 496 137 637
3 631 40 496
3 265 630 636
3 636 72 265
3 630 159 636
3 265 20 630
3 497 268 638
3 638 137 497
3 268 72 638
3 497 10 268
3 641 639 640
3 640 102 641
3 639 161 640
3 641 136 639
3 627 372 640
3 640 161 627
3 372 102 640
3 627 31 372
3 489 632 639
3 639 136 489
3 632 161 639
3 489 40 632
3 373 492 641
3 641 102 373
3 492 136 641
3 373 2 492
