# vtk DataFile Version 3.0
this file was written using fslvtkio
ASCII
DATASET POLYDATA
POINTS 642 float
110.593 128.312 82.3014
98.1897 129.116 81.379
101.737 116.864 84.6402
114.954 116.108 84.3164
112.053 125.378 89.841
109.702 120.105 78.9179
101.925 120.624 78.1054
102.747 125.257 89.5073
105.258 135.011 84.4995
108.845 114.944 88.5912
109.14 108.806 81.1175
104.09 132.366 74.9637
103.739 131.085 87.8924
109.226 131.952 88.0941
107.793 125.965 90.9941
105.79 119.588 90.0046
111.334 119.5 90.8399
101.605 127.078 75.3272
106.115 119.305 77.9155
106.224 126.226 77.7971
105.85 113.974 80.1821
110.77 113.743 79.4817
114.507 120.136 87.9177
111.805 127.955 86.1187
113.488 121.906 83.5777
113.282 116.765 81.1088
110.353 124.391 80.1155
99.9385 128.085 86.0624
101.563 120.757 87.3606
98.7938 122.757 83.2237
98.9712 125.329 78.2917
100.655 117.104 80.926
107.452 130.979 79.2141
109.122 134.298 83.1584
103.651 136.027 78.9787
99.583 132.396 76.1717
100.886 133.197 82.8412
115.404 110.099 81.5312
109.487 109.623 85.383
113.217 114.332 86.986
104.539 111.082 83.4271
104.607 113.921 87.504
106.568 131.812 88.6239
108.541 129.362 90.233
105.739 128.629 89.7215
110.211 125.771 91.1588
110.673 128.964 89.1268
107.397 134.046 86.702
104.532 133.11 86.1782
103.005 128.401 89.0435
105.139 125.547 90.5989
106.675 122.806 91.0889
109.544 122.694 91.3361
108.498 119.66 90.8313
112.083 122.291 90.6265
104.15 122.344 89.9913
107.248 117.01 89.6628
110.044 117.046 90.0565
103.817 123.648 76.8729
105.843 123.005 77.7601
104.193 126.488 76.0934
107.74 123.135 78.786
107.93 119.735 78.1837
104.065 120.34 78.0094
101.689 123.766 76.5137
103.046 129.612 74.7038
105.06 129.114 76.603
108.216 113.475 79.4071
108.443 116.295 78.6793
105.785 116.593 78.7279
110.374 116.842 78.881
110.127 111.031 79.5339
107.043 111.096 80.2502
103.814 117.318 79.2824
113.331 123.925 86.9995
112.581 124.619 85.068
114.45 121.364 85.6857
111.79 124.997 83.1651
111.36 128.043 84.2226
112.141 126.707 87.9922
113.422 122.853 88.9216
114.987 118.049 86.2295
114.852 119.172 83.7901
113.93 119.725 81.8547
111.817 122.936 81.9681
112.254 120.631 80.5419
110.58 126.365 81.1243
114.451 116.163 82.3505
111.9 118.617 79.5526
109.904 122.236 79.7163
100.195 124.373 86.888
99.4786 121.695 85.6818
98.7753 125.355 84.8633
99.6215 119.507 84.0745
101.358 118.724 86.0678
101.966 122.967 88.6096
101.167 126.843 87.9922
98.7332 128.655 83.9065
98.2917 125.97 82.3953
98.8507 123.937 80.7194
99.6351 120.079 81.9003
99.7248 121.275 79.7754
100.969 116.9 82.8507
98.184 127.149 79.773
99.9637 122.585 77.6976
101.165 118.682 79.3409
108.352 133.31 80.6739
106.662 136.054 81.1083
105.908 134.556 78.2353
104.327 135.596 81.9296
107.57 135.681 84.2381
109.89 131.243 82.6482
109.237 129.73 80.7812
105.885 131.445 77.4085
103.37 134.744 76.1579
101.366 134.548 76.9773
102.045 134.391 80.4253
99.8548 132.952 79.4762
102.978 133.938 83.5668
101.193 132.304 73.9908
98.6215 130.848 79.123
99.1111 131.441 82.2556
113.078 108.816 83.7754
111.776 111.252 86.646
114.34 111.39 84.653
111.04 114.403 88.0656
109.047 112.086 87.3329
109.346 108.44 83.2215
112.57 109.039 80.6413
115.226 113.181 83.1406
114.829 115.003 85.9354
104.211 111.715 85.7964
106.808 111.188 86.623
106.642 109.041 84.6843
106.635 114.292 88.1542
102.879 115.094 86.3356
103.033 113.92 84.2051
106.44 109.582 82.0914
111.089 130.393 87.156
109.392 133.378 85.6974
110.655 131.236 84.5815
109.092 127.882 79.5493
106.918 128.565 78.3431
108.354 125.574 78.9044
112.35 116.705 89.2891
113.435 119.658 89.7641
114.346 116.918 87.9722
114.72 113.234 81.0148
111.983 115.641 80.2378
113.161 111.368 79.4289
101.969 132.642 85.8314
101.299 130.191 87.3456
100.025 131.095 84.6872
98.6544 128.976 77.5009
99.7185 125.814 76.3158
100.038 129.797 74.9361
103.069 117.381 87.5272
103.585 119.895 88.9169
105.051 116.84 88.6552
104.771 112.454 81.533
103.219 115.834 80.5255
102.791 114.69 82.3184
107.493 130.6 89.5137
107.074 129.095 90.0336
106.098 130.252 89.2147
106.832 127.43 90.4719
108.072 127.863 90.6988
108.799 130.758 89.3218
107.979 131.991 88.7286
105.309 131.294 88.1281
104.848 130.002 88.7316
109.328 127.753 90.7015
109.68 129.324 89.8295
110.277 127.643 90.2403
109.968 130.613 88.7669
108.984 126.091 91.1563
111.17 125.846 90.6447
111.094 127.081 89.5987
107.066 132.975 87.8146
105.598 132.569 87.4554
106.04 133.75 86.8866
104.195 132.048 87.0567
108.348 133.051 87.5768
106.241 134.564 85.7719
105.02 134.017 85.5023
104.38 128.647 89.3575
105.438 127.186 90.2665
104.15 127.199 89.9756
106.426 125.837 90.8321
103.379 129.87 88.6597
102.98 126.822 89.5705
103.927 125.578 90.1567
108.074 122.753 91.1739
108.949 121.171 91.1538
107.561 121.196 90.9342
109.899 119.745 91.009
110.372 121.151 91.2895
108.588 124.282 91.2741
107.208 124.386 91.1157
106.281 121.268 90.6756
107.063 119.895 90.5349
110.886 122.508 91.2406
109.799 124.261 91.3733
111.152 124.151 91.0344
111.723 120.909 91.0413
112.077 124.038 90.3462
105.889 124.172 90.8589
105.368 122.493 90.5677
104.555 123.979 90.3848
105.16 121.056 90.1013
103.388 123.931 89.8832
107.805 118.548 90.1623
109.306 118.497 90.4102
108.597 117.258 89.9544
110.69 118.399 90.3361
106.573 118.408 89.8115
108.118 115.971 89.2872
109.429 116.05 89.3925
104.907 123.403 77.2496
105.072 124.994 77.0409
103.964 125.204 76.5456
105.189 126.258 76.9998
105.92 124.793 77.6877
105.799 121.237 77.9326
104.876 121.812 77.6146
102.824 125.344 76.1314
102.957 126.614 75.5608
106.717 123.223 78.315
106.73 121.351 78.2005
107.623 121.576 78.6045
107.003 119.506 77.9903
106.896 124.72 78.278
108.679 121.459 78.9214
108.777 120.015 78.4838
103.89 122.015 77.402
102.733 123.859 76.6275
102.826 122.154 77.2306
101.657 125.493 75.954
105.072 120.028 77.8959
102.978 120.686 78.0832
101.83 122.105 77.2546
103.612 127.897 75.6129
104.746 127.744 76.5052
104.139 129.425 75.4629
105.557 127.591 77.3106
102.493 128.174 75.1517
103.574 131.221 74.5766
104.695 130.73 75.8124
108.207 114.882 79.2583
107.176 116.252 78.6998
107.119 115.073 79.3721
106.041 117.89 78.2839
107.323 117.651 78.1657
109.479 114.885 79.2781
109.348 113.672 79.2538
107.106 113.733 79.687
106.084 115.109 79.5953
108.172 118.166 78.0824
109.4 116.505 78.7151
109.255 118.409 78.3376
110.442 115.322 79.4724
110.078 118.539 78.7294
109.012 112.208 79.2582
107.573 112.244 79.6334
108.585 111.022 79.8182
106.414 112.61 80.1443
110.325 112.464 79.2421
109.553 109.894 80.2646
108.081 109.989 80.573
104.861 116.798 79.093
104.97 118.565 78.329
103.906 118.865 78.6562
104.92 115.56 79.9268
102.882 119.204 78.7889
112.91 124.23 85.9855
113.417 122.905 85.3578
113.96 122.586 86.3618
114.004 121.752 84.668
113.068 123.099 84.4089
112.249 126.082 85.7056
112.462 125.653 86.5664
114.169 122.157 87.3736
114.492 120.871 86.8187
112.132 124.681 84.1656
111.859 126.26 84.788
111.534 126.419 83.7574
111.646 127.911 85.2211
112.463 123.361 83.5727
111.163 126.521 82.7465
111.093 128.072 83.2296
112.656 125.218 87.4866
113.51 123.34 87.9848
112.799 124.76 88.5088
114.059 121.53 88.3726
112.069 127.154 86.9891
111.949 126.212 88.8876
112.759 124.253 89.4169
114.833 119.751 85.9873
114.724 120.35 84.8036
114.909 118.787 85.057
114.341 120.631 83.6329
114.944 119.137 87.0951
114.908 117.21 85.2349
114.817 117.695 84.0489
112.795 121.491 82.0258
111.75 121.939 81.2853
113.133 120.367 81.2101
111.052 122.333 80.6264
111.054 123.45 81.0276
112.756 122.37 82.7945
113.75 120.813 82.6421
113.755 118.401 81.3174
113.169 118.932 80.6316
111.074 124.501 81.5714
111.749 123.798 82.6773
111.151 125.486 82.1243
110.505 125.334 80.5801
110.616 127.239 81.7623
114.466 119.382 82.7437
114.318 117.908 82.0458
114.665 117.719 82.9629
113.926 116.34 81.6342
114.77 116.231 83.292
112.303 119.614 80.0057
111.041 121.348 80.167
110.911 120.399 79.6544
110.2 123.21 79.9323
112.676 117.862 80.2988
110.812 119.504 79.1451
109.685 121.264 79.4014
99.7245 123.078 86.2928
99.0119 123.548 85.3066
99.2764 124.854 85.9933
98.6596 123.946 84.1742
98.9301 122.347 84.5988
100.418 121.417 86.5807
100.672 122.577 87.1792
99.894 126.163 86.4875
99.2142 126.6 85.5841
99.3871 120.619 84.8915
100.279 120.18 85.9391
100.343 119.07 85.1738
101.34 119.758 86.742
99.0789 121.202 83.7159
100.578 118.138 84.3475
101.496 117.76 85.3451
101.118 123.691 87.7463
100.641 125.631 87.4405
101.44 124.987 88.4052
100.495 127.486 87.0021
101.71 121.873 87.9283
102.262 124.097 89.1431
101.932 126.246 88.9007
98.6809 127.063 84.4916
98.4492 125.651 83.6936
98.3282 127.3 83.1911
98.499 124.394 82.9033
99.3176 128.339 85.0663
98.3155 128.808 82.6804
98.227 127.535 81.9223
99.1851 122.157 81.4741
99.6663 120.757 80.8891
99.2669 122.646 80.2964
100.18 119.364 80.3712
100.086 118.602 81.3296
99.2261 121.489 82.533
98.8252 123.256 82.0611
98.9234 124.478 79.4595
99.4045 123.206 79.1821
100.022 118.307 82.3715
99.5409 119.849 83.0021
100.105 118.107 83.3916
100.639 116.954 81.9015
101.296 116.872 83.7764
98.5289 124.848 81.5909
98.5518 125.481 80.1821
98.317 126.419 81.0651
98.4558 126.211 78.942
98.1494 128.103 80.6329
99.7789 121.89 78.7378
100.255 119.816 79.3832
100.554 120.613 78.5014
100.85 117.96 80.1004
99.4468 123.913 78.064
100.866 121.428 77.6647
101.555 119.63 78.6579
107.794 135.013 80.6155
106.42 135.438 79.6602
107.273 134.218 79.4748
105.046 135.688 78.621
105.263 136.168 80.0634
108.02 135.561 81.982
108.701 134.264 81.7506
107.559 132.551 79.6206
106.708 133.147 78.5292
105.501 136.112 81.5428
107.202 136.263 82.7422
105.945 136.009 83.1017
108.375 135.267 83.4756
104.049 136.026 80.464
104.6 135.398 83.2098
106.246 135.536 84.3326
109.104 132.462 81.7175
108.552 131.62 80.6324
109.519 130.599 81.6204
108.238 130.61 80.0332
109.471 132.939 82.763
110.3 129.777 82.5029
109.988 128.985 81.5275
105.696 133.071 77.4957
104.814 134.652 77.1648
104.662 133.407 76.2654
103.794 135.553 77.5864
106.706 131.446 78.331
105.12 131.712 76.3878
103.537 133.529 75.1871
101.73 134.455 78.6669
100.914 133.832 79.6284
100.644 133.601 78.057
100.321 133.232 80.9227
101.254 133.801 81.2843
102.709 135.377 79.7027
102.469 135.434 78.0709
100.325 133.519 76.4437
99.6882 132.698 77.8752
102.343 134.201 81.9521
103.21 135.042 81.1172
103.505 134.763 82.6699
101.795 133.655 83.1307
104.205 134.288 84.1609
102.393 135.217 76.8652
100.888 134.031 75.4882
102.333 134.1 74.8525
100.178 132.919 74.6734
102.524 132.574 74.0732
99.0789 132.024 79.4775
99.328 132.408 81.111
98.5304 131.109 80.8587
99.986 132.609 82.4144
99.305 131.534 77.7629
98.31 130.023 80.3114
98.4934 130.208 81.9428
112.336 109.934 85.506
113.13 111.303 85.9016
113.963 109.8 84.5819
113.602 112.528 85.8383
112.659 112.62 86.7348
110.83 110.001 85.8271
111.55 108.983 84.395
114.63 108.723 82.8087
115.193 110.226 83.3639
111.35 112.774 87.2648
110.408 111.327 86.9255
110.041 113.053 87.6348
109.25 110.657 86.4895
112.151 114.271 87.5099
109.965 114.649 88.3884
108.842 113.572 87.9942
111.466 108.462 83.0815
113.128 108.443 82.1761
111.352 108.363 81.8542
114.256 109.087 81.0876
109.641 108.814 84.2933
109.031 108.376 82.2236
110.682 108.836 80.9011
114.881 112.091 83.8905
114.454 113.277 85.4002
115.039 114.065 84.5738
114.087 114.264 86.3563
115.511 111.403 82.5095
115.07 114.74 83.743
115.082 115.647 85.2305
105.522 111.154 86.1831
106.655 109.877 85.8769
105.358 110.107 85.4
108.045 109.232 85.0878
108.033 110.266 86.1474
105.631 112.368 87.0932
104.478 112.456 86.7662
104.514 110.945 84.7133
105.427 109.755 84.1886
107.985 111.539 87.0459
106.712 112.63 87.4585
107.773 113.088 87.7388
105.69 113.88 87.8289
107.694 114.581 88.4352
103.523 113.258 86.0898
103.527 112.538 85.0131
102.883 114.27 85.3058
103.785 112.296 83.9533
103.708 114.187 86.9293
102.395 116.02 85.5161
102.411 115.483 84.4675
106.498 109.021 83.4744
107.969 108.678 83.9939
107.621 108.503 82.7575
105.529 110.157 82.8894
107.668 109.209 81.4943
110.462 132.053 86.5237
110.325 132.432 85.1571
111.135 130.865 85.822
109.88 132.738 83.9371
109.386 133.866 84.4551
109.412 132.837 86.9035
110.235 131.323 87.6858
111.56 129.337 86.5155
111.269 129.666 85.3546
108.585 134.61 84.8402
108.475 133.916 86.2689
107.244 134.914 85.3524
110.983 129.813 88.1858
111.656 128.438 87.4636
111.511 127.784 88.5868
111.206 129.646 84.3721
110.228 131.352 83.6033
110.769 129.687 83.3781
108.047 128.321 78.9266
107.699 127.131 78.5901
108.727 126.737 79.1927
107.252 125.881 78.4544
106.636 127.387 78.0452
107.259 129.815 78.6819
108.18 129.412 79.4899
109.706 126.188 79.7626
109.384 125.082 79.4621
105.939 128.69 77.6831
106.448 130.072 77.9471
105.524 130.243 76.956
109.072 128.913 80.1183
109.924 127.105 80.2572
109.987 128.042 80.9175
109.18 123.921 79.3343
108.062 124.402 78.7472
108.86 122.708 79.1318
113.079 118.056 89.7367
113.913 118.238 88.9193
113.464 116.686 88.7512
114.498 118.474 88.0616
114.14 119.881 88.9235
112.484 119.554 90.4528
111.947 118.125 90.1806
112.772 115.499 88.1964
113.87 115.472 87.6853
113.533 121.187 89.2359
112.767 120.907 90.26
112.835 122.719 89.8018
111.241 116.984 89.7432
111.74 115.504 88.6622
110.56 115.772 89.098
114.606 115.74 86.9975
114.832 117.452 87.2533
114.9 116.534 86.203
113.417 113.991 80.4994
112.989 113.163 79.8282
114.508 112.046 79.9438
111.823 112.991 79.5082
111.46 114.902 79.9661
112.687 116.067 80.6724
113.771 115.008 81.1206
115.377 111.612 81.1613
114.446 110.298 80.2124
111.206 116.224 79.4724
111.959 117.142 79.8741
111.056 118.005 79.0993
114.509 114.792 81.7624
114.983 112.881 82.1183
114.812 114.795 82.8094
112.799 110.114 79.9001
111.439 111.747 79.4635
110.809 109.969 80.0098
101.54 131.602 86.755
100.602 130.752 86.0771
100.901 132.011 85.3297
99.9562 129.725 85.5115
100.485 129.352 86.6479
102.349 130.877 87.9061
102.735 132.053 87.0384
101.35 132.946 84.402
100.41 132.302 83.9171
101.052 128.549 87.5905
102.044 129.485 88.246
101.929 127.786 88.6078
103.188 132.712 85.9687
102.373 133.341 84.5676
103.673 133.396 84.8456
99.6376 131.407 83.4087
99.3621 129.878 84.3904
98.8125 130.1 83.1741
99.0831 127.729 76.6738
99.7473 127.896 75.7102
99.351 129.499 76.1713
100.733 128.083 74.9846
100.549 126.188 75.6483
99.2264 125.724 77.2751
98.5219 127.134 77.8363
99.1656 130.658 77.0042
99.619 131.281 75.4711
100.677 124.556 76.2918
99.7496 124.164 77.0623
100.775 122.812 76.9434
98.1738 127.981 78.6915
98.5095 129.922 78.3271
98.1951 128.953 79.6174
100.302 131.03 74.5777
101.553 129.063 74.5736
102.28 130.808 74.3083
103.232 118.614 88.1789
104.269 118.36 88.8519
104.037 116.967 88.1333
105.361 118.256 89.3309
104.632 119.734 89.5521
102.628 120.191 88.1567
102.351 119.183 87.5125
103.926 115.585 87.5296
104.855 115.365 88.0904
103.926 121.055 89.437
102.724 121.376 88.6996
103.006 122.607 89.3495
102.149 118.076 86.9083
103.085 116.131 86.9708
102.226 117.003 86.2066
105.837 115.472 88.4409
106.111 116.977 89.1905
107.008 115.724 88.8541
104.085 114.341 81.1641
102.842 115.299 81.3387
103.747 113.593 81.9735
101.658 115.926 81.6201
101.754 116.44 80.5804
104.596 114.918 80.5117
105.163 113.311 80.8079
104.532 111.768 82.3553
103.738 112.901 82.9271
102.119 117.397 79.9507
103.512 116.504 79.8657
102.484 118.326 79.2454
105.727 111.91 80.8292
105.355 110.975 81.7785
106.568 110.408 81.0724
102.971 114.257 83.2951
101.847 115.802 82.6
102.172 115.71 83.6319
POLYGONS 1280  5120
3 164 162 163
3 163 44 164
3 162 43 163
3 164 42 162
3 166 165 163
3 163 43 166
3 165 44 163
3 166 14 165
3 168 167 162
3 162 42 168
3 167 43 162
3 168 13 167
3 170 169 164
3 164 44 170
3 169 42 164
3 170 12 169
3 173 171 172
3 172 46 173
3 171 43 172
3 173 45 171
3 167 174 172
3 172 43 167
3 174 46 172
3 167 13 174
3 175 166 171
3 171 45 175
3 166 43 171
3 175 14 166
3 177 176 173
3 173 46 177
3 176 45 173
3 177 4 176
3 180 178 179
3 179 48 180
3 178 42 179
3 180 47 178
3 169 181 179
3 179 42 169
3 181 48 179
3 169 12 181
3 182 168 178
3 178 47 182
3 168 42 178
3 182 13 168
3 184 183 180
3 180 48 184
3 183 47 180
3 184 8 183
3 187 185 186
3 186 50 187
3 185 44 186
3 187 49 185
3 165 188 186
3 186 44 165
3 188 50 186
3 165 14 188
3 189 170 185
3 185 49 189
3 170 44 185
3 189 12 170
3 191 190 187
3 187 50 191
3 190 49 187
3 191 7 190
3 194 192 193
3 193 53 194
3 192 52 193
3 194 51 192
3 196 195 193
3 193 52 196
3 195 53 193
3 196 16 195
3 198 197 192
3 192 51 198
3 197 52 192
3 198 14 197
3 200 199 194
3 194 53 200
3 199 51 194
3 200 15 199
3 203 201 202
3 202 45 203
3 201 52 202
3 203 54 201
3 197 175 202
3 202 52 197
3 175 45 202
3 197 14 175
3 204 196 201
3 201 54 204
3 196 52 201
3 204 16 196
3 176 205 203
3 203 45 176
3 205 54 203
3 176 4 205
3 208 206 207
3 207 55 208
3 206 51 207
3 208 50 206
3 199 209 207
3 207 51 199
3 209 55 207
3 199 15 209
3 188 198 206
3 206 50 188
3 198 51 206
3 188 14 198
3 210 191 208
3 208 55 210
3 191 50 208
3 210 7 191
3 213 211 212
3 212 57 213
3 211 53 212
3 213 56 211
3 195 214 212
3 212 53 195
3 214 57 212
3 195 16 214
3 215 200 211
3 211 56 215
3 200 53 211
3 215 15 200
3 217 216 213
3 213 57 217
3 216 56 213
3 217 9 216
3 220 218 219
3 219 60 220
3 218 59 219
3 220 58 218
3 222 221 219
3 219 59 222
3 221 60 219
3 222 19 221
3 224 223 218
3 218 58 224
3 223 59 218
3 224 18 223
3 226 225 220
3 220 60 226
3 225 58 220
3 226 17 225
3 229 227 228
3 228 62 229
3 227 59 228
3 229 61 227
3 223 230 228
3 228 59 223
3 230 62 228
3 223 18 230
3 231 222 227
3 227 61 231
3 222 59 227
3 231 19 222
3 233 232 229
3 229 62 233
3 232 61 229
3 233 5 232
3 236 234 235
3 235 64 236
3 234 58 235
3 236 63 234
3 225 237 235
3 235 58 225
3 237 64 235
3 225 17 237
3 238 224 234
3 234 63 238
3 224 58 234
3 238 18 224
3 240 239 236
3 236 64 240
3 239 63 236
3 240 6 239
3 243 241 242
3 242 66 243
3 241 60 242
3 243 65 241
3 221 244 242
3 242 60 221
3 244 66 242
3 221 19 244
3 245 226 241
3 241 65 245
3 226 60 241
3 245 17 226
3 247 246 243
3 243 66 247
3 246 65 243
3 247 11 246
3 250 248 249
3 249 69 250
3 248 68 249
3 250 67 248
3 252 251 249
3 249 68 252
3 251 69 249
3 252 18 251
3 254 253 248
3 248 67 254
3 253 68 248
3 254 21 253
3 256 255 250
3 250 69 256
3 255 67 250
3 256 20 255
3 259 257 258
3 258 70 259
3 257 68 258
3 259 62 257
3 253 260 258
3 258 68 253
3 260 70 258
3 253 21 260
3 230 252 257
3 257 62 230
3 252 68 257
3 230 18 252
3 261 233 259
3 259 70 261
3 233 62 259
3 261 5 233
3 264 262 263
3 263 72 264
3 262 67 263
3 264 71 262
3 255 265 263
3 263 67 255
3 265 72 263
3 255 20 265
3 266 254 262
3 262 71 266
3 254 67 262
3 266 21 254
3 268 267 264
3 264 72 268
3 267 71 264
3 268 10 267
3 271 269 270
3 270 63 271
3 269 69 270
3 271 73 269
3 251 238 270
3 270 69 251
3 238 63 270
3 251 18 238
3 272 256 269
3 269 73 272
3 256 69 269
3 272 20 256
3 239 273 271
3 271 63 239
3 273 73 271
3 239 6 273
3 276 274 275
3 275 76 276
3 274 75 275
3 276 74 274
3 278 277 275
3 275 75 278
3 277 76 275
3 278 24 277
3 280 279 274
3 274 74 280
3 279 75 274
3 280 23 279
3 282 281 276
3 276 76 282
3 281 74 276
3 282 22 281
3 285 283 284
3 284 78 285
3 283 75 284
3 285 77 283
3 279 286 284
3 284 75 279
3 286 78 284
3 279 23 286
3 287 278 283
3 283 77 287
3 278 75 283
3 287 24 278
3 289 288 285
3 285 78 289
3 288 77 285
3 289 0 288
3 292 290 291
3 291 80 292
3 290 74 291
3 292 79 290
3 281 293 291
3 291 74 281
3 293 80 291
3 281 22 293
3 294 280 290
3 290 79 294
3 280 74 290
3 294 23 280
3 296 295 292
3 292 80 296
3 295 79 292
3 296 4 295
3 299 297 298
3 298 82 299
3 297 76 298
3 299 81 297
3 277 300 298
3 298 76 277
3 300 82 298
3 277 24 300
3 301 282 297
3 297 81 301
3 282 76 297
3 301 22 282
3 303 302 299
3 299 82 303
3 302 81 299
3 303 3 302
3 306 304 305
3 305 85 306
3 304 84 305
3 306 83 304
3 308 307 305
3 305 84 308
3 307 85 305
3 308 26 307
3 310 309 304
3 304 83 310
3 309 84 304
3 310 24 309
3 312 311 306
3 306 85 312
3 311 83 306
3 312 25 311
3 315 313 314
3 314 77 315
3 313 84 314
3 315 86 313
3 309 287 314
3 314 84 309
3 287 77 314
3 309 24 287
3 316 308 313
3 313 86 316
3 308 84 313
3 316 26 308
3 288 317 315
3 315 77 288
3 317 86 315
3 288 0 317
3 320 318 319
3 319 87 320
3 318 83 319
3 320 82 318
3 311 321 319
3 319 83 311
3 321 87 319
3 311 25 321
3 300 310 318
3 318 82 300
3 310 83 318
3 300 24 310
3 322 303 320
3 320 87 322
3 303 82 320
3 322 3 303
3 325 323 324
3 324 89 325
3 323 85 324
3 325 88 323
3 307 326 324
3 324 85 307
3 326 89 324
3 307 26 326
3 327 312 323
3 323 88 327
3 312 85 323
3 327 25 312
3 329 328 325
3 325 89 329
3 328 88 325
3 329 5 328
3 332 330 331
3 331 92 332
3 330 91 331
3 332 90 330
3 334 333 331
3 331 91 334
3 333 92 331
3 334 29 333
3 336 335 330
3 330 90 336
3 335 91 330
3 336 28 335
3 338 337 332
3 332 92 338
3 337 90 332
3 338 27 337
3 341 339 340
3 340 94 341
3 339 91 340
3 341 93 339
3 335 342 340
3 340 91 335
3 342 94 340
3 335 28 342
3 343 334 339
3 339 93 343
3 334 91 339
3 343 29 334
3 345 344 341
3 341 94 345
3 344 93 341
3 345 2 344
3 348 346 347
3 347 96 348
3 346 90 347
3 348 95 346
3 337 349 347
3 347 90 337
3 349 96 347
3 337 27 349
3 350 336 346
3 346 95 350
3 336 90 346
3 350 28 336
3 352 351 348
3 348 96 352
3 351 95 348
3 352 7 351
3 355 353 354
3 354 98 355
3 353 92 354
3 355 97 353
3 333 356 354
3 354 92 333
3 356 98 354
3 333 29 356
3 357 338 353
3 353 97 357
3 338 92 353
3 357 27 338
3 359 358 355
3 355 98 359
3 358 97 355
3 359 1 358
3 362 360 361
3 361 101 362
3 360 100 361
3 362 99 360
3 364 363 361
3 361 100 364
3 363 101 361
3 364 31 363
3 366 365 360
3 360 99 366
3 365 100 360
3 366 29 365
3 368 367 362
3 362 101 368
3 367 99 362
3 368 30 367
3 371 369 370
3 370 93 371
3 369 100 370
3 371 102 369
3 365 343 370
3 370 100 365
3 343 93 370
3 365 29 343
3 372 364 369
3 369 102 372
3 364 100 369
3 372 31 364
3 344 373 371
3 371 93 344
3 373 102 371
3 344 2 373
3 376 374 375
3 375 103 376
3 374 99 375
3 376 98 374
3 367 377 375
3 375 99 367
3 377 103 375
3 367 30 377
3 356 366 374
3 374 98 356
3 366 99 374
3 356 29 366
3 378 359 376
3 376 103 378
3 359 98 376
3 378 1 359
3 381 379 380
3 380 105 381
3 379 101 380
3 381 104 379
3 363 382 380
3 380 101 363
3 382 105 380
3 363 31 382
3 383 368 379
3 379 104 383
3 368 101 379
3 383 30 368
3 385 384 381
3 381 105 385
3 384 104 381
3 385 6 384
3 388 386 387
3 387 108 388
3 386 107 387
3 388 106 386
3 390 389 387
3 387 107 390
3 389 108 387
3 390 34 389
3 392 391 386
3 386 106 392
3 391 107 386
3 392 33 391
3 394 393 388
3 388 108 394
3 393 106 388
3 394 32 393
3 397 395 396
3 396 110 397
3 395 107 396
3 397 109 395
3 391 398 396
3 396 107 391
3 398 110 396
3 391 33 398
3 399 390 395
3 395 109 399
3 390 107 395
3 399 34 390
3 401 400 397
3 397 110 401
3 400 109 397
3 401 8 400
3 404 402 403
3 403 112 404
3 402 106 403
3 404 111 402
3 393 405 403
3 403 106 393
3 405 112 403
3 393 32 405
3 406 392 402
3 402 111 406
3 392 106 402
3 406 33 392
3 408 407 404
3 404 112 408
3 407 111 404
3 408 0 407
3 411 409 410
3 410 114 411
3 409 108 410
3 411 113 409
3 389 412 410
3 410 108 389
3 412 114 410
3 389 34 412
3 413 394 409
3 409 113 413
3 394 108 409
3 413 32 394
3 415 414 411
3 411 114 415
3 414 113 411
3 415 11 414
3 418 416 417
3 417 117 418
3 416 116 417
3 418 115 416
3 420 419 417
3 417 116 420
3 419 117 417
3 420 36 419
3 422 421 416
3 416 115 422
3 421 116 416
3 422 34 421
3 424 423 418
3 418 117 424
3 423 115 418
3 424 35 423
3 427 425 426
3 426 109 427
3 425 116 426
3 427 118 425
3 421 399 426
3 426 116 421
3 399 109 426
3 421 34 399
3 428 420 425
3 425 118 428
3 420 116 425
3 428 36 420
3 400 429 427
3 427 109 400
3 429 118 427
3 400 8 429
3 432 430 431
3 431 119 432
3 430 115 431
3 432 114 430
3 423 433 431
3 431 115 423
3 433 119 431
3 423 35 433
3 412 422 430
3 430 114 412
3 422 115 430
3 412 34 422
3 434 415 432
3 432 119 434
3 415 114 432
3 434 11 415
3 437 435 436
3 436 121 437
3 435 117 436
3 437 120 435
3 419 438 436
3 436 117 419
3 438 121 436
3 419 36 438
3 439 424 435
3 435 120 439
3 424 117 435
3 439 35 424
3 441 440 437
3 437 121 441
3 440 120 437
3 441 1 440
3 444 442 443
3 443 124 444
3 442 123 443
3 444 122 442
3 446 445 443
3 443 123 446
3 445 124 443
3 446 39 445
3 448 447 442
3 442 122 448
3 447 123 442
3 448 38 447
3 450 449 444
3 444 124 450
3 449 122 444
3 450 37 449
3 453 451 452
3 452 126 453
3 451 123 452
3 453 125 451
3 447 454 452
3 452 123 447
3 454 126 452
3 447 38 454
3 455 446 451
3 451 125 455
3 446 123 451
3 455 39 446
3 457 456 453
3 453 126 457
3 456 125 453
3 457 9 456
3 460 458 459
3 459 128 460
3 458 122 459
3 460 127 458
3 449 461 459
3 459 122 449
3 461 128 459
3 449 37 461
3 462 448 458
3 458 127 462
3 448 122 458
3 462 38 448
3 464 463 460
3 460 128 464
3 463 127 460
3 464 10 463
3 467 465 466
3 466 130 467
3 465 124 466
3 467 129 465
3 445 468 466
3 466 124 445
3 468 130 466
3 445 39 468
3 469 450 465
3 465 129 469
3 450 124 465
3 469 37 450
3 471 470 467
3 467 130 471
3 470 129 467
3 471 3 470
3 474 472 473
3 473 133 474
3 472 132 473
3 474 131 472
3 476 475 473
3 473 132 476
3 475 133 473
3 476 38 475
3 478 477 472
3 472 131 478
3 477 132 472
3 478 41 477
3 480 479 474
3 474 133 480
3 479 131 474
3 480 40 479
3 483 481 482
3 482 134 483
3 481 132 482
3 483 126 481
3 477 484 482
3 482 132 477
3 484 134 482
3 477 41 484
3 454 476 481
3 481 126 454
3 476 132 481
3 454 38 476
3 485 457 483
3 483 134 485
3 457 126 483
3 485 9 457
3 488 486 487
3 487 136 488
3 486 131 487
3 488 135 486
3 479 489 487
3 487 131 479
3 489 136 487
3 479 40 489
3 490 478 486
3 486 135 490
3 478 131 486
3 490 41 478
3 492 491 488
3 488 136 492
3 491 135 488
3 492 2 491
3 495 493 494
3 494 127 495
3 493 133 494
3 495 137 493
3 475 462 494
3 494 133 475
3 462 127 494
3 475 38 462
3 496 480 493
3 493 137 496
3 480 133 493
3 496 40 480
3 463 497 495
3 495 127 463
3 497 137 495
3 463 10 497
3 500 498 499
3 499 140 500
3 498 139 499
3 500 138 498
3 502 501 499
3 499 139 502
3 501 140 499
3 502 33 501
3 504 503 498
3 498 138 504
3 503 139 498
3 504 13 503
3 506 505 500
3 500 140 506
3 505 138 500
3 506 23 505
3 509 507 508
3 508 47 509
3 507 139 508
3 509 110 507
3 503 182 508
3 508 139 503
3 182 47 508
3 503 13 182
3 398 502 507
3 507 110 398
3 502 139 507
3 398 33 502
3 183 401 509
3 509 47 183
3 401 110 509
3 183 8 401
3 512 510 511
3 511 79 512
3 510 138 511
3 512 46 510
3 505 294 511
3 511 138 505
3 294 79 511
3 505 23 294
3 174 504 510
3 510 46 174
3 504 138 510
3 174 13 504
3 295 177 512
3 512 79 295
3 177 46 512
3 295 4 177
3 515 513 514
3 514 111 515
3 513 140 514
3 515 78 513
3 501 406 514
3 514 140 501
3 406 111 514
3 501 33 406
3 286 506 513
3 513 78 286
3 506 140 513
3 286 23 506
3 407 289 515
3 515 111 407
3 289 78 515
3 407 0 289
3 518 516 517
3 517 143 518
3 516 142 517
3 518 141 516
3 520 519 517
3 517 142 520
3 519 143 517
3 520 19 519
3 522 521 516
3 516 141 522
3 521 142 516
3 522 32 521
3 524 523 518
3 518 143 524
3 523 141 518
3 524 26 523
3 527 525 526
3 526 113 527
3 525 142 526
3 527 66 525
3 521 413 526
3 526 142 521
3 413 113 526
3 521 32 413
3 244 520 525
3 525 66 244
3 520 142 525
3 244 19 520
3 414 247 527
3 527 113 414
3 247 66 527
3 414 11 247
3 530 528 529
3 529 86 530
3 528 141 529
3 530 112 528
3 523 316 529
3 529 141 523
3 316 86 529
3 523 26 316
3 405 522 528
3 528 112 405
3 522 141 528
3 405 32 522
3 317 408 530
3 530 86 317
3 408 112 530
3 317 0 408
3 533 531 532
3 532 61 533
3 531 143 532
3 533 89 531
3 519 231 532
3 532 143 519
3 231 61 532
3 519 19 231
3 326 524 531
3 531 89 326
3 524 143 531
3 326 26 524
3 232 329 533
3 533 61 232
3 329 89 533
3 232 5 329
3 536 534 535
3 535 146 536
3 534 145 535
3 536 144 534
3 538 537 535
3 535 145 538
3 537 146 535
3 538 22 537
3 540 539 534
3 534 144 540
3 539 145 534
3 540 16 539
3 542 541 536
3 536 146 542
3 541 144 536
3 542 39 541
3 545 543 544
3 544 54 545
3 543 145 544
3 545 80 543
3 539 204 544
3 544 145 539
3 204 54 544
3 539 16 204
3 293 538 543
3 543 80 293
3 538 145 543
3 293 22 538
3 205 296 545
3 545 54 205
3 296 80 545
3 205 4 296
3 548 546 547
3 547 125 548
3 546 144 547
3 548 57 546
3 541 455 547
3 547 144 541
3 455 125 547
3 541 39 455
3 214 540 546
3 546 57 214
3 540 144 546
3 214 16 540
3 456 217 548
3 548 125 456
3 217 57 548
3 456 9 217
3 551 549 550
3 550 81 551
3 549 146 550
3 551 130 549
3 537 301 550
3 550 146 537
3 301 81 550
3 537 22 301
3 468 542 549
3 549 130 468
3 542 146 549
3 468 39 542
3 302 471 551
3 551 81 302
3 471 130 551
3 302 3 471
3 554 552 553
3 553 149 554
3 552 148 553
3 554 147 552
3 556 555 553
3 553 148 556
3 555 149 553
3 556 21 555
3 558 557 552
3 552 147 558
3 557 148 552
3 558 25 557
3 560 559 554
3 554 149 560
3 559 147 554
3 560 37 559
3 563 561 562
3 562 88 563
3 561 148 562
3 563 70 561
3 557 327 562
3 562 148 557
3 327 88 562
3 557 25 327
3 260 556 561
3 561 70 260
3 556 148 561
3 260 21 556
3 328 261 563
3 563 88 328
3 261 70 563
3 328 5 261
3 566 564 565
3 565 129 566
3 564 147 565
3 566 87 564
3 559 469 565
3 565 147 559
3 469 129 565
3 559 37 469
3 321 558 564
3 564 87 321
3 558 147 564
3 321 25 558
3 470 322 566
3 566 129 470
3 322 87 566
3 470 3 322
3 569 567 568
3 568 71 569
3 567 149 568
3 569 128 567
3 555 266 568
3 568 149 555
3 266 71 568
3 555 21 266
3 461 560 567
3 567 128 461
3 560 149 567
3 461 37 560
3 267 464 569
3 569 71 267
3 464 128 569
3 267 10 464
3 572 570 571
3 571 152 572
3 570 151 571
3 572 150 570
3 574 573 571
3 571 151 574
3 573 152 571
3 574 27 573
3 576 575 570
3 570 150 576
3 575 151 570
3 576 12 575
3 578 577 572
3 572 152 578
3 577 150 572
3 578 36 577
3 581 579 580
3 580 49 581
3 579 151 580
3 581 96 579
3 575 189 580
3 580 151 575
3 189 49 580
3 575 12 189
3 349 574 579
3 579 96 349
3 574 151 579
3 349 27 574
3 190 352 581
3 581 49 190
3 352 96 581
3 190 7 352
3 584 582 583
3 583 118 584
3 582 150 583
3 584 48 582
3 577 428 583
3 583 150 577
3 428 118 583
3 577 36 428
3 181 576 582
3 582 48 181
3 576 150 582
3 181 12 576
3 429 184 584
3 584 118 429
3 184 48 584
3 429 8 184
3 587 585 586
3 586 97 587
3 585 152 586
3 587 121 585
3 573 357 586
3 586 152 573
3 357 97 586
3 573 27 357
3 438 578 585
3 585 121 438
3 578 152 585
3 438 36 578
3 358 441 587
3 587 97 358
3 441 121 587
3 358 1 441
3 590 588 589
3 589 155 590
3 588 154 589
3 590 153 588
3 592 591 589
3 589 154 592
3 591 155 589
3 592 17 591
3 594 593 588
3 588 153 594
3 593 154 588
3 594 30 593
3 596 595 590
3 590 155 596
3 595 153 590
3 596 35 595
3 599 597 598
3 598 104 599
3 597 154 598
3 599 64 597
3 593 383 598
3 598 154 593
3 383 104 598
3 593 30 383
3 237 592 597
3 597 64 237
3 592 154 597
3 237 17 592
3 384 240 599
3 599 104 384
3 240 64 599
3 384 6 240
3 602 600 601
3 601 120 602
3 600 153 601
3 602 103 600
3 595 439 601
3 601 153 595
3 439 120 601
3 595 35 439
3 377 594 600
3 600 103 377
3 594 153 600
3 377 30 594
3 440 378 602
3 602 120 440
3 378 103 602
3 440 1 378
3 605 603 604
3 604 65 605
3 603 155 604
3 605 119 603
3 591 245 604
3 604 155 591
3 245 65 604
3 591 17 245
3 433 596 603
3 603 119 433
3 596 155 603
3 433 35 596
3 246 434 605
3 605 65 246
3 434 119 605
3 246 11 434
3 608 606 607
3 607 158 608
3 606 157 607
3 608 156 606
3 610 609 607
3 607 157 610
3 609 158 607
3 610 15 609
3 612 611 606
3 606 156 612
3 611 157 606
3 612 28 611
3 614 613 608
3 608 158 614
3 613 156 608
3 614 41 613
3 617 615 616
3 616 95 617
3 615 157 616
3 617 55 615
3 611 350 616
3 616 157 611
3 350 95 616
3 611 28 350
3 209 610 615
3 615 55 209
3 610 157 615
3 209 15 610
3 351 210 617
3 617 95 351
3 210 55 617
3 351 7 210
3 620 618 619
3 619 135 620
3 618 156 619
3 620 94 618
3 613 490 619
3 619 156 613
3 490 135 619
3 613 41 490
3 342 612 618
3 618 94 342
3 612 156 618
3 342 28 612
3 491 345 620
3 620 135 491
3 345 94 620
3 491 2 345
3 623 621 622
3 622 56 623
3 621 158 622
3 623 134 621
3 609 215 622
3 622 158 609
3 215 56 622
3 609 15 215
3 484 614 621
3 621 134 484
3 614 158 621
3 484 41 614
3 216 485 623
3 623 56 216
3 485 134 623
3 216 9 485
3 626 624 625
3 625 161 626
3 624 160 625
3 626 159 624
3 628 627 625
3 625 160 628
3 627 161 625
3 628 31 627
3 630 629 624
3 624 159 630
3 629 160 624
3 630 20 629
3 632 631 626
3 626 161 632
3 631 159 626
3 632 40 631
3 635 633 634
3 634 73 635
3 633 160 634
3 635 105 633
3 629 272 634
3 634 160 629
3 272 73 634
3 629 20 272
3 382 628 633
3 633 105 382
3 628 160 633
3 382 31 628
3 273 385 635
3 635 73 273
3 385 105 635
3 273 6 385
3 638 636 637
3 637 137 638
3 636 159 637
3 638 72 636
3 631 496 637
3 637 159 631
3 496 137 637
3 631 40 496
3 265 630 636
3 636 72 265
3 630 159 636
3 265 20 630
3 497 268 638
3 638 137 497
3 268 72 638
3 497 10 268
3 641 639 640
3 640 102 641
3 639 161 640
3 641 136 639
3 627 372 640
3 640 161 627
3 372 102 640
3 627 31 372
3 489 632 639
3 639 136 489
3 632 161 639
3 489 40 632
3 373 492 641
3 641 102 373
3 492 136 641
3 373 2 492
