# vtk DataFile Version 3.0
this file was written using fslvtkio
ASCII
DATASET POLYDATA
POINTS 732 float
121.566 127.644 42.9115
120.296 126.642 43.2987
121.497 126.205 43.155
122.646 126.098 43.3102
123.194 127.876 43.0083
124.154 126.462 43.6919
124.703 128.072 43.4657
125.779 127.241 43.9802
120.443 128.75 42.9174
119.123 128.386 43.0584
122.087 129.439 43.3545
123.708 129.391 43.7433
125.66 128.794 44.5917
119.329 130.27 43.2133
117.575 130.793 44.2598
117.895 129.387 43.4664
120.73 130.436 43.5355
121.927 130.776 44.4226
123.191 130.446 44.9101
124.651 129.855 44.9751
118.807 131.55 44.5816
117.698 131.818 45.7486
120.289 131.423 44.7094
121.437 131.473 45.6432
122.638 131.09 46.6579
124.233 130.583 46.0223
118.818 132.033 46.2225
120.229 131.957 46.4378
121.705 124.707 43.7435
119.651 124.683 44.2001
120.571 123.462 44.7718
122.465 123.359 44.5765
123.598 124.815 43.674
124.306 123.758 44.3739
125.397 125.777 44.3175
125.856 124.452 44.8224
126.907 126.126 45.0211
127.41 124.994 45.5493
119.224 126.248 43.9347
117.313 126.651 45.0468
117.869 125.23 45.0547
126.986 127.673 45.1051
127.885 126.826 46.4457
117.165 127.904 44.6157
115.395 128.784 45.5947
115.668 127.453 45.8487
118.293 127.947 43.7568
126.79 128.928 46.1982
127.628 128.321 46.8207
116.397 129.721 44.5806
115.106 130.507 46.1166
127.011 129.507 47.9145
125.562 129.624 46.507
116.369 131.245 45.5358
115.297 131.814 46.9227
121.376 131.489 46.9879
121.362 131.521 48.7414
120.135 132.021 47.7587
123.064 131.236 48.3546
124.333 130.71 47.4204
116.991 132.269 47.1978
118.527 132.231 47.7914
125.677 121.411 45.4119
123.963 120.881 45.4947
125.035 120.061 46.156
126.618 120.277 46.235
127.384 121.749 45.9705
128.046 120.85 46.6945
119.499 122.353 45.9413
118.18 122.335 46.8804
119.498 121.682 47.0233
120.815 121.317 46.8126
121.572 121.999 45.2321
122.475 120.922 46.0402
123.791 122.222 45.096
125.491 122.846 44.7044
127.176 123.243 45.3626
128.585 122.136 46.748
128.39 123.42 46.3852
129.444 122.995 47.7206
117.011 124.11 46.24
115.664 124.194 47.2312
116.905 123.209 47.0555
118.753 123.901 45.5702
128.322 125.195 46.6783
129.146 124.495 47.7815
114.745 125.964 46.8798
113.611 126.421 48.274
114.463 125.086 47.5114
115.989 125.824 45.8791
128.269 127.01 48.0939
128.619 125.916 48.6919
114.012 128.136 47.0978
112.897 128.23 48.7054
128.153 127.446 49.8683
128.016 128.367 48.3109
112.73 130.119 48.2429
112.018 130.459 50.3303
111.903 129.069 49.9319
114.044 129.765 46.698
126.857 129.445 49.4605
125.612 130.081 48.1026
113.264 131.496 49.6773
113.849 131.319 47.9126
114.261 132.481 49.647
119.81 131.703 48.8515
119.307 131.145 50.0759
118.38 131.758 48.9958
120.89 130.729 50.1311
122.446 130.627 49.6075
124.118 130.538 49.1238
115.264 132.45 48.3704
117.032 132.446 48.9882
123.669 118.769 47.2578
122.366 118.626 48.2869
123.444 118.11 48.1664
124.667 117.851 47.7462
125.816 118.948 46.9146
126.482 117.829 47.6174
127.531 119.628 47.251
127.9 118.456 48.1444
128.914 120.15 48.1249
129.239 119.548 49.0904
119.53 120.764 47.7412
118.261 120.784 48.5904
119.491 119.906 48.7951
120.737 119.427 48.6013
121.82 119.936 47.3414
123.62 119.824 46.6379
129.121 121.279 47.5147
129.962 121.73 48.7769
116.798 122.466 47.7601
115.708 122.489 48.818
117.036 121.5 48.6844
129.623 123.684 49.3347
114.365 124.458 48.3976
113.232 124.677 50.0881
114.37 123.278 49.6799
129.099 125.11 49.5749
112.8 125.762 49.3279
111.66 127.126 50.9787
112.178 125.939 51.3723
128.517 126.255 50.5398
112.072 127.651 49.9923
111.239 129.355 51.8674
127.637 127.252 51.6128
127.705 128.599 50.0935
112.024 130.46 52.3165
122.242 129.904 50.772
121.292 129.545 52.0206
120.62 130.111 51.0998
123.856 130.083 50.5542
123.169 129.49 51.8458
125.469 129.984 49.7466
125.055 129.451 51.132
126.512 129.094 51.0451
113.184 131.24 51.1707
116.035 132.015 50.0527
114.639 131.694 51.1651
117.586 131.49 49.8909
117.005 131.117 50.9535
119.087 130.495 51.0948
123.386 117.308 48.8319
121.923 116.835 49.8605
123.085 116.357 49.6427
124.174 115.968 49.197
125.242 116.864 48.3588
126.155 115.987 49.0867
127.188 116.958 48.4685
128.147 116.547 49.8781
128.613 117.898 49.0582
129.377 118.239 50.3392
119.55 118.946 49.7134
117.961 119.439 50.2368
118.651 118.07 50.9009
120.025 117.148 50.4287
121.433 118.144 49.5246
129.826 119.776 50.1266
117.209 120.629 49.4884
116.082 121.176 51.3252
116.795 120.008 51.026
130.088 121.057 50.4689
130.189 122.42 50.3624
130.307 121.24 52.1737
115.411 121.854 50.1075
113.926 123.374 51.0426
114.864 122.34 51.9566
129.941 123.738 50.8848
129.989 122.616 52.2311
113.119 124.836 51.8186
129.221 123.912 52.2945
129.154 125.004 51.0065
111.465 127.91 52.4739
112.77 126.103 52.7594
128.407 126.035 52.0643
112.125 129.172 53.4484
123.843 129.074 52.6691
122.507 128.097 53.9253
122.265 128.822 52.903
125.414 128.631 52.1862
124.256 128.311 53.4775
126.87 128.146 51.6176
125.976 127.641 53.1808
127.131 126.646 52.7679
113.071 130.116 53.5719
116.619 130.641 51.9938
116.068 130.039 53.2791
115.135 130.662 52.178
118.261 130.13 51.9297
117.452 129.457 53.0007
119.79 129.953 52.0409
119.092 129.17 52.9243
120.854 128.877 52.83
113.725 130.832 52.3356
122.902 115.352 50.3629
121.839 114.906 51.5809
122.902 114.517 51.2915
123.978 114.296 50.9662
124.96 115.05 49.9331
125.913 114.208 50.7488
126.876 115.131 49.9565
127.688 114.665 51.4638
128.008 115.443 50.4645
128.782 115.91 51.3711
121.272 116.183 50.9738
119.866 116.278 52.0292
120.962 115.762 51.9418
129.427 117.316 51.3037
130.208 118.772 51.6594
130.218 117.982 53.0505
117.209 118.981 51.471
116.299 120.075 52.5993
117.396 118.35 52.8486
118.721 117.1 51.7929
130.421 120.038 51.6698
130.33 119.768 53.3684
115.363 121.522 53.222
130.115 121.295 53.7845
113.713 123.527 52.8226
114.562 122.712 53.911
129.692 122.852 53.6987
113.727 124.953 53.5286
129.247 123.832 53.4903
128.448 124.779 53.0921
112.328 127.637 53.4251
113.662 126.034 53.8936
126.213 126.274 53.9748
125.12 125.52 55.0805
125.057 127.044 54.4155
127.507 125.7 53.2312
126.956 125.166 54.5363
113.562 128.152 54.0876
114.222 129.033 54.0659
116.19 128.928 53.8998
115.314 128.041 54.2986
118.041 128.321 53.4725
117.009 127.885 54.3556
119.74 128.089 53.5944
118.687 127.554 54.4485
121.19 128.157 53.5152
120.715 127.511 54.444
122.337 127.302 54.8568
123.885 127.492 54.3929
114.705 129.959 53.6188
122.807 113.526 51.9488
121.998 113.381 52.8898
122.873 112.384 52.4833
123.839 112.149 52.1232
124.729 113.041 51.3561
125.686 112.115 52.0834
126.512 113.182 51.4512
127.428 112.489 52.5156
127.657 113.553 52.0271
128.618 113.879 52.8774
120.656 115.058 52.5469
119.865 114.959 53.5162
120.974 114.173 53.2361
129.198 115.167 52.7255
129.822 116.621 52.642
130.236 116.379 54.087
118.516 116.706 53.2296
118.26 116.742 54.7891
118.837 115.706 53.9605
130.324 118.277 54.4299
116.485 119.431 53.939
117.602 118.354 54.3092
130.036 119.995 54.812
115.997 121.04 54.5333
116.957 120.271 55.2403
129.652 121.873 55.0106
114.55 123.984 54.644
115.584 122.48 55.3592
129.099 123.625 54.5399
128.994 122.665 55.307
128.292 123.499 55.8893
115.238 125.472 54.4631
115.65 124.206 55.719
128.143 124.641 54.8189
127.118 124.005 56.2173
126.426 124.685 55.7159
114.402 126.946 54.2808
116.029 126.82 54.5385
116.695 125.408 55.3972
117.624 126.551 54.8663
119.527 126.895 55.2929
118.211 125.636 55.6478
121.155 126.663 55.5231
119.884 125.611 55.9257
122.734 126.323 55.2834
121.574 125.529 56.1246
123.989 126.178 55.1315
123.211 125.356 56.1142
124.942 124.902 56.0304
125.132 110.163 53.3956
124.105 109.645 53.9207
125.191 109.28 54.1247
126.318 109.412 54.4333
127.125 110.706 53.9009
127.519 110.149 55.0173
123.09 111.256 53.0625
121.92 111.807 54.1031
122.563 110.433 54.1944
124.838 111.162 52.5556
126.722 111.328 53.0568
128.385 111.303 54.4189
128.757 112.516 53.6161
129.649 111.861 54.8953
129.919 113.488 54.7064
130.069 113.213 56.1175
121.205 113.333 53.7538
120.064 113.456 54.7905
120.811 112.272 55.1063
129.796 114.588 53.9224
129.972 115.181 55.5278
119.193 114.774 54.6258
118.491 114.467 55.6786
119.243 113.726 55.2715
130.345 116.905 55.4824
118.674 116.22 56.1579
118.701 117.529 55.9601
119.733 117.4 56.9896
130.116 118.66 55.8524
118.074 118.654 55.7347
119.087 118.645 56.7614
129.517 120.458 55.9455
116.941 122.009 56.1519
117.646 120.302 56.1906
128.777 122.039 56.1166
128.756 121.142 56.6202
127.833 121.948 57.3125
116.962 123.456 56.411
118.103 122.042 57.1553
118.843 123.483 57.0737
120.822 123.657 57.5185
119.695 122.832 58.1921
122.608 123.69 57.8042
121.344 122.641 58.361
124.259 123.533 57.8771
123.196 122.705 58.7142
125.786 123.383 57.6961
124.782 122.742 58.7109
127.266 123.098 56.8462
126.461 122.352 58.1417
117.098 124.757 56.1768
118.463 124.646 56.5602
120.361 124.665 56.8099
121.936 124.518 56.8694
123.54 124.263 56.8999
125.366 124.022 56.9221
125.236 108.46 55.0269
123.537 108.118 55.0662
124.46 107.309 55.7205
126.031 107.535 55.9994
127.304 108.943 55.7944
127.662 107.964 56.9283
128.809 109.514 56.1647
129.091 108.905 57.0973
121.321 109.41 55.6197
120.057 109.065 56.5447
121.027 108.552 56.3848
121.99 108.166 55.7509
123.139 109.104 54.6264
128.69 110.635 55.5706
129.527 110.609 56.9492
129.716 111.628 56.2447
129.909 111.844 57.5795
119.896 110.898 56.2494
118.413 111.44 57.1626
118.731 110.099 57.0779
121.085 110.729 55.2748
130.201 113.872 57.1141
119.532 112.64 56.0019
118.269 112.895 57.4656
130.293 115.684 56.8229
118.684 114.469 57.3112
118.563 115.387 56.775
119.557 115.96 57.6489
129.851 117.356 56.895
120.245 118.917 57.7257
120.425 116.991 57.9068
121.321 117.991 58.8627
129.683 119.168 56.9063
119.047 119.825 57.0449
120.633 120.428 58.182
121.459 119.302 58.811
128.866 120.549 57.1949
128.796 119.471 57.9565
127.79 120.183 58.2386
118.86 121.105 57.5266
120.437 121.513 58.1393
122.057 120.478 59.0368
122.351 121.541 58.8133
124.163 121.737 59.1209
123.411 120.574 59.5526
125.861 121.496 59.0227
125.015 120.485 59.6503
127.358 121.115 58.1019
126.577 120.299 59.2077
122.625 105.954 56.5437
121.49 105.429 57.2985
122.479 104.756 57.0711
123.721 104.875 57.1114
124.645 106.254 56.3764
125.418 105.14 57.2497
126.405 106.623 56.8403
126.997 105.841 57.851
127.636 106.972 57.6592
128.242 107.307 59.1707
120.849 107.328 56.7257
119.101 107.792 57.976
120.232 106.5 57.9065
122.843 106.968 55.8156
128.667 108.392 58.2547
129.56 110.043 57.8563
129.459 110.325 58.697
118.91 108.801 57.4838
117.408 109.943 58.2516
117.426 108.491 59.143
129.924 112.337 58.7388
117.464 111.461 59.1922
129.916 114.047 58.3858
118.544 112.61 58.939
119.256 114.407 58.6593
120.284 114.679 59.7639
119.665 113.385 59.963
121.147 114.26 60.7317
129.951 115.734 58.1992
120.395 115.754 58.7967
121.302 115.541 60.0667
129.248 117.019 58.2371
128.85 115.661 59.2793
128.319 116.725 59.3891
122.693 118.352 59.6559
121.491 116.818 59.582
124.187 118.321 60.3038
122.896 117.189 60.4258
124.421 116.854 60.5987
127.793 118.033 59.1094
127.176 116.647 60.1748
126.511 117.777 60.0181
128.971 118.261 57.843
122.894 119.481 59.6406
124.422 119.399 59.927
125.358 117.807 60.3437
126.056 119.093 59.7276
127.643 119.328 58.9109
122.795 104.047 58.0144
121.22 103.682 58.3595
122.262 102.591 59.0311
123.808 102.841 59.2137
124.593 104.156 58.2633
125.454 103.316 59.4876
126.312 104.547 58.404
126.953 104.549 59.775
127.75 105.691 58.9358
127.936 106.017 60.3027
119.418 105.462 59.4344
118.581 105.138 60.3027
119.264 104.135 59.8684
119.85 103.754 59.1225
120.536 105.054 58.1217
128.584 107.759 60.6878
117.179 107.097 60.1579
115.42 107.486 61.2154
117.092 105.873 60.9011
118.822 106.813 58.8664
128.861 108.93 59.5978
129.313 110.396 59.6973
115.467 109.597 61.0068
116.972 110.138 60.7635
129.303 111.572 59.8233
129.309 110.415 60.7333
128.645 111.21 61.0508
118.002 111.166 60.6093
119.273 112.284 60.3595
121.037 113.118 61.3132
119.806 111.586 61.6155
122.584 113.349 61.6373
121.316 111.89 62.2852
122.657 111.959 62.196
129.178 112.868 59.8948
127.879 112.374 60.7677
122.552 114.644 61.2419
123.773 112.716 61.4682
124.325 114.036 61.1494
126.172 113.817 60.7707
125.004 112.491 61.1081
127.77 113.695 60.272
126.516 112.458 60.9543
128.924 114.347 59.3574
122.394 115.994 60.6969
123.89 115.792 61.1433
125.481 114.824 60.6522
127.341 115.114 60.1226
125.831 116.103 60.4521
120.904 101.4 60.3788
119.73 101.199 61.2365
120.764 100.7 61.3155
122.068 100.929 61.4836
123.026 101.586 60.2374
123.695 101.389 61.9823
124.67 102.055 60.359
124.964 102.273 62.3772
125.921 103.037 61.0259
126.162 103.265 62.6733
119.392 102.816 60.3414
117.562 103.009 61.3061
118.613 102.07 61.1075
120.786 102.154 59.267
126.874 104.389 61.1864
127.83 106.219 61.673
117.541 104.716 60.9597
115.489 106.237 62.9723
116.078 104.499 61.5181
127.833 107.461 61.9408
115.564 108.146 63.0165
128.818 109.372 61.1502
127.894 108.711 61.9458
115.75 109.383 62.4926
118.567 110.862 62.3579
117.194 110.26 62.9094
120.53 111.073 63.1626
119.215 110.198 63.6367
122.396 110.88 62.886
120.999 109.85 63.8253
124.376 110.418 62.5981
122.952 109.453 63.254
126.133 110.243 62.2761
124.771 109.003 62.9905
127.81 110.117 61.9248
126.445 108.975 62.6473
123.944 111.304 61.9817
125.461 111.242 61.4715
127.065 111.202 61.302
120.637 100.085 62.24
119.031 99.8227 62.6352
120.103 99.1185 63.0602
121.504 99.153 63.5058
122.666 100.229 62.6215
123.135 100.016 64.1464
124.016 101.042 63.4484
124.213 101.324 65.1598
118.192 101.431 61.8942
116.996 101.596 62.5588
117.913 100.387 62.6865
124.941 102.091 63.9916
125.739 103.393 64.1219
114.621 104.288 62.7423
113.554 103.9 64.367
114.712 103.065 63.1633
115.843 102.191 63.0267
115.853 103.523 61.8419
127.141 104.865 62.528
126.526 104.866 63.6472
113.855 105.949 63.7069
116.421 108.052 64.2396
115.157 106.843 64.8387
118.2 108.234 64.6919
116.968 107.171 65.2242
118.874 107.014 65.4727
127.201 106.289 62.9574
126.285 106.481 64.0518
116.808 109.329 63.7581
118.484 109.41 64.1618
119.913 107.793 65.1462
120.457 108.682 64.5197
122.277 108.452 64.2405
121.573 107.371 65.3322
124.127 108.072 63.6879
123.087 107.103 64.8411
126.047 107.761 63.4494
124.791 106.917 64.2691
127.36 107.94 62.7218
119.465 98.453 64.0965
117.877 97.7356 64.319
118.13 96.9198 66.0986
119.654 97.7002 65.4426
121.085 98.7105 64.8712
121.145 98.6538 66.2924
117.856 99.2339 63.3893
116.413 98.7542 64.3009
117.073 98.1447 64.3792
122.605 99.6173 65.3498
123.358 100.772 66.2766
114.557 101.597 63.9346
112.897 102.182 65.0272
113.934 100.652 64.8961
115.019 99.9596 64.5311
116.419 100.569 63.4578
124.869 103.099 65.5758
124.032 102.681 66.5671
113.409 104.397 66.0973
113.907 105.592 65.1224
115.148 105.708 66.0372
115.444 104.572 66.6685
116.581 105.006 66.7037
124.294 104.907 66.0982
123.454 103.923 66.794
122.38 105.111 66.7402
125.543 104.479 64.8791
116.691 106.126 65.9199
120.632 106.652 66.1357
118.586 106.216 66.242
122.686 106.122 66.017
120.609 105.727 66.6457
124.156 106.248 65.2559
125.419 105.679 64.8389
116.652 97.1483 65.8002
115.471 97.0394 66.5547
116.446 96.1697 67.7734
118.512 96.8475 67.5311
119.799 97.8465 67.1744
120.778 99.0164 68.0233
113.964 99.411 65.6461
112.984 99.1839 66.6779
113.446 97.9605 66.8579
114.222 97.4038 66.4865
115.19 98.2291 65.187
122.114 99.7043 67.0392
122.811 101.433 67.3735
112.719 100.966 65.9747
112.152 101.426 67.6626
112.191 100.102 66.9528
122.656 102.987 67.2536
122.047 101.897 67.8588
121.271 102.644 67.8365
112.329 103.118 66.3315
113.686 103.227 67.2045
115.104 103.44 67.4187
117.947 105.207 67.0377
116.659 103.588 67.6125
119.654 104.904 67.153
118.304 103.688 67.8098
121.285 104.295 67.3034
119.903 103.34 67.8043
113.069 96.5267 68.2038
111.909 96.903 68.2765
111.967 95.5311 69.8134
114.266 95.6857 68.9136
114.643 96.5599 67.7746
116.143 95.9169 69.4055
117.565 96.6785 68.8914
119.024 97.7946 68.6808
119.921 99.0502 69.2494
111.837 99.7304 68.257
110.723 99.6893 69.3855
110.519 98.6163 69.089
110.993 97.5958 68.4645
112.676 98.6849 67.6434
121.451 100.653 68.248
120.206 100.504 69.1687
112.082 100.749 69.4066
113.26 102.34 68.1551
113.032 101.345 69.7452
114.692 102.323 68.3747
114.192 101.584 69.9068
116.07 102.522 68.6019
115.358 101.367 69.7844
117.519 102.211 68.559
116.337 101.425 69.9079
118.895 102.098 68.3681
117.194 101.169 69.9158
120.318 101.735 68.4304
118.784 101.281 69.4288
109.504 97.0313 70.0047
107.828 97.2512 71.6223
108.49 95.8437 72.2786
109.756 95.6851 71.2792
110.89 96.2134 69.5128
111.563 95.4267 71.5016
113.345 95.6467 70.6264
114.862 96.0358 70.8679
116.755 96.868 70.3865
118.297 98.3288 69.8808
117.496 98.5589 70.7467
109.46 98.4027 70.0884
109.459 99.6297 70.5756
108.067 98.6013 71.4825
117.862 100.179 70.3431
116.603 99.1536 71.2591
116.499 100.27 71.2248
119.101 100.019 69.7183
110.836 100.018 70.6819
111.584 100.354 71.2617
112.54 100.579 71.2306
113.545 100.884 71.4541
114.658 100.873 71.2642
115.595 100.634 71.6724
107.802 97.0304 73.4298
108.662 96.6935 74.4664
109.474 95.8857 74.0576
110.766 95.7566 73.0794
112.773 95.9613 72.174
114.535 96.9808 71.7752
113.901 97.6002 72.9
116.073 97.6971 71.4144
109.409 99.8516 72.155
108.214 98.5103 73.4213
115.516 98.7622 72.1398
114.737 99.3672 72.8117
110.805 99.6742 72.6562
111.967 100.118 72.9257
113.017 100.176 73.2344
114.063 100.154 72.9654
109.1 98.543 74.8842
110.125 97.9717 75.1835
111.155 97.3621 74.4764
112.272 97.0051 73.5416
110.591 99.5556 73.8082
111.517 99.398 74.3044
112.569 99.1941 74.1718
113.187 98.6442 73.8347
POLYGONS 1460  5840
3 0 1 2
3 0 3 4
3 2 3 0
3 4 5 6
3 3 5 4
3 5 7 6
3 8 1 0
3 9 1 8
3 4 10 0
3 10 8 0
3 6 11 4
3 11 10 4
3 12 6 7
3 11 6 12
3 13 14 15
3 9 13 15
3 9 8 13
3 8 16 13
3 10 17 8
3 17 16 8
3 11 18 10
3 18 17 10
3 19 11 12
3 18 11 19
3 20 14 13
3 21 14 20
3 16 22 13
3 22 20 13
3 23 17 24
3 23 22 17
3 22 16 17
3 18 24 17
3 25 24 18
3 19 25 18
3 20 26 21
3 22 26 20
3 27 26 22
3 23 27 22
3 28 29 30
3 28 31 32
3 30 31 28
3 32 33 34
3 31 33 32
3 34 35 36
3 33 35 34
3 35 37 36
3 38 39 40
3 29 38 40
3 28 38 29
3 28 1 38
3 28 2 1
3 3 2 28
3 32 3 28
3 5 3 32
3 34 5 32
3 7 5 34
3 7 34 41
3 41 34 36
3 42 36 37
3 41 36 42
3 43 44 45
3 39 43 45
3 39 38 43
3 38 46 43
3 1 9 46
3 38 1 46
3 41 47 12
3 7 41 12
3 48 41 42
3 47 41 48
3 49 44 43
3 50 44 49
3 15 14 49
3 15 49 46
3 46 49 43
3 9 15 46
3 47 51 52
3 47 52 12
3 12 52 19
3 48 51 47
3 53 50 49
3 54 50 53
3 14 21 53
3 49 14 53
3 55 56 57
3 55 23 24
3 55 24 56
3 56 24 58
3 25 59 24
3 24 59 58
3 52 25 19
3 59 25 52
3 53 60 54
3 21 60 53
3 21 26 60
3 26 61 60
3 57 27 55
3 57 61 27
3 61 26 27
3 23 55 27
3 62 63 64
3 62 65 66
3 64 65 62
3 65 67 66
3 68 69 70
3 68 71 72
3 70 71 68
3 72 73 74
3 71 73 72
3 63 74 73
3 63 62 74
3 62 75 74
3 66 76 62
3 76 75 62
3 77 66 67
3 77 78 66
3 78 76 66
3 77 79 78
3 80 81 82
3 69 80 82
3 69 68 80
3 68 83 80
3 30 29 83
3 30 83 72
3 72 83 68
3 31 30 72
3 74 31 72
3 33 31 74
3 75 33 74
3 35 33 75
3 76 35 75
3 37 35 76
3 37 76 84
3 84 76 78
3 85 78 79
3 84 78 85
3 86 87 88
3 81 86 88
3 81 80 86
3 80 89 86
3 40 39 89
3 40 89 83
3 83 89 80
3 29 40 83
3 84 90 42
3 37 84 42
3 91 84 85
3 90 84 91
3 92 87 86
3 93 87 92
3 45 44 92
3 45 92 89
3 89 92 86
3 39 45 89
3 90 94 95
3 90 95 42
3 42 95 48
3 91 94 90
3 96 97 98
3 93 96 98
3 93 92 96
3 92 99 96
3 44 50 99
3 92 44 99
3 51 100 101
3 52 51 101
3 95 51 48
3 100 51 95
3 96 102 97
3 102 103 104
3 102 96 103
3 96 99 103
3 50 54 103
3 99 50 103
3 105 106 107
3 105 57 56
3 105 56 106
3 106 56 108
3 58 109 56
3 56 109 108
3 59 110 58
3 58 110 109
3 101 59 52
3 110 59 101
3 103 111 104
3 54 111 103
3 54 60 111
3 60 112 111
3 107 61 105
3 107 112 61
3 112 60 61
3 57 105 61
3 113 114 115
3 113 116 117
3 115 116 113
3 117 118 119
3 116 118 117
3 119 120 121
3 118 120 119
3 120 122 121
3 123 124 125
3 123 126 127
3 125 126 123
3 114 127 126
3 114 113 127
3 113 128 127
3 64 63 128
3 64 128 117
3 117 128 113
3 65 64 117
3 119 65 117
3 67 65 119
3 67 119 129
3 129 119 121
3 130 121 122
3 129 121 130
3 131 132 133
3 124 131 133
3 123 131 124
3 123 69 131
3 123 70 69
3 71 70 123
3 127 71 123
3 73 71 127
3 128 73 127
3 63 73 128
3 67 129 77
3 129 79 77
3 129 130 79
3 130 134 79
3 135 136 137
3 132 135 137
3 131 135 132
3 131 81 135
3 131 82 81
3 69 82 131
3 79 134 85
3 134 138 85
3 139 140 141
3 136 139 141
3 135 139 136
3 135 87 139
3 135 88 87
3 81 88 135
3 85 138 91
3 138 142 91
3 143 140 139
3 144 140 143
3 87 93 143
3 139 87 143
3 94 145 146
3 95 94 146
3 142 94 91
3 145 94 142
3 98 144 143
3 98 97 144
3 97 147 144
3 93 98 143
3 148 149 150
3 148 151 152
3 149 148 152
3 151 153 154
3 152 151 154
3 153 101 100
3 153 100 154
3 154 100 155
3 146 100 95
3 155 100 146
3 97 156 147
3 102 156 97
3 104 157 158
3 104 158 102
3 102 158 156
3 157 159 160
3 158 157 160
3 159 107 106
3 159 106 160
3 160 106 161
3 150 108 148
3 150 161 108
3 161 106 108
3 109 148 108
3 151 148 109
3 110 151 109
3 153 151 110
3 101 153 110
3 104 111 157
3 112 157 111
3 159 157 112
3 107 159 112
3 162 163 164
3 162 165 166
3 164 165 162
3 166 167 168
3 165 167 166
3 168 169 170
3 167 169 168
3 169 171 170
3 172 173 174
3 172 175 176
3 174 175 172
3 163 176 175
3 162 176 163
3 162 114 176
3 162 115 114
3 116 115 162
3 166 116 162
3 118 116 166
3 168 118 166
3 120 118 168
3 170 120 168
3 170 122 120
3 170 171 122
3 171 177 122
3 178 179 180
3 173 178 180
3 172 178 173
3 172 124 178
3 172 125 124
3 126 125 172
3 176 126 172
3 114 126 176
3 181 182 130
3 181 130 177
3 177 130 122
3 181 183 182
3 184 185 186
3 179 184 186
3 178 184 179
3 178 132 184
3 178 133 132
3 124 133 178
3 182 187 134
3 130 182 134
3 188 182 183
3 187 182 188
3 137 185 184
3 137 136 185
3 136 189 185
3 132 137 184
3 187 190 191
3 187 191 134
3 134 191 138
3 188 190 187
3 141 192 193
3 140 192 141
3 189 136 141
3 193 189 141
3 138 191 142
3 191 194 142
3 140 144 192
3 192 144 195
3 196 197 198
3 196 199 200
3 197 196 200
3 199 201 202
3 200 199 202
3 201 146 145
3 201 145 202
3 202 145 203
3 194 145 142
3 203 145 194
3 144 147 195
3 195 147 204
3 205 206 207
3 205 208 209
3 206 205 209
3 208 210 211
3 209 208 211
3 210 150 149
3 210 149 211
3 211 149 212
3 198 152 196
3 198 212 152
3 212 149 152
3 154 196 152
3 199 196 154
3 155 199 154
3 201 199 155
3 146 201 155
3 147 213 204
3 156 213 147
3 207 158 205
3 207 213 158
3 213 156 158
3 160 205 158
3 208 205 160
3 161 208 160
3 210 208 161
3 150 210 161
3 214 215 216
3 214 217 218
3 216 217 214
3 218 219 220
3 217 219 218
3 220 221 222
3 219 221 220
3 221 223 222
3 224 225 226
3 215 224 226
3 214 224 215
3 214 163 224
3 214 164 163
3 165 164 214
3 218 165 214
3 167 165 218
3 220 167 218
3 169 167 220
3 222 169 220
3 171 227 228
3 169 227 171
3 169 223 227
3 169 222 223
3 227 229 228
3 230 231 232
3 230 174 173
3 230 232 174
3 232 233 174
3 225 224 175
3 225 175 233
3 233 175 174
3 163 175 224
3 228 234 177
3 171 228 177
3 235 228 229
3 234 228 235
3 180 231 230
3 180 179 231
3 179 236 231
3 173 180 230
3 177 234 181
3 234 183 181
3 234 235 183
3 235 237 183
3 186 238 239
3 185 238 186
3 236 179 186
3 239 236 186
3 183 237 188
3 237 240 188
3 185 189 238
3 238 189 241
3 190 242 243
3 191 190 243
3 240 190 188
3 242 190 240
3 193 244 245
3 192 244 193
3 241 189 193
3 245 241 193
3 246 247 248
3 246 249 250
3 247 246 250
3 249 243 250
3 249 194 243
3 194 191 243
3 251 195 252
3 251 244 195
3 244 192 195
3 252 253 254
3 251 252 254
3 253 255 256
3 254 253 256
3 255 257 258
3 256 255 258
3 257 259 260
3 258 257 260
3 259 198 197
3 259 197 260
3 260 197 261
3 200 262 197
3 197 262 261
3 248 202 246
3 248 262 202
3 262 200 202
3 203 246 202
3 249 246 203
3 194 249 203
3 252 204 263
3 195 204 252
3 206 263 207
3 206 253 263
3 253 252 263
3 209 253 206
3 255 253 209
3 211 255 209
3 257 255 211
3 212 257 211
3 259 257 212
3 198 259 212
3 204 213 263
3 207 263 213
3 264 265 266
3 264 267 268
3 266 267 264
3 268 269 270
3 267 269 268
3 270 271 272
3 269 271 270
3 271 273 272
3 274 275 276
3 265 274 276
3 264 274 265
3 264 215 274
3 264 216 215
3 217 216 264
3 268 217 264
3 219 217 268
3 270 219 268
3 221 219 270
3 272 221 270
3 223 277 278
3 221 277 223
3 221 273 277
3 221 272 273
3 277 279 278
3 280 281 282
3 275 280 282
3 274 280 275
3 274 225 280
3 274 226 225
3 215 226 274
3 223 278 227
3 278 229 227
3 278 279 229
3 279 283 229
3 232 231 284
3 280 285 281
3 280 232 285
3 280 233 232
3 284 285 232
3 225 233 280
3 229 283 235
3 283 286 235
3 284 287 288
3 284 231 287
3 231 236 287
3 285 284 288
3 235 286 237
3 286 289 237
3 239 238 290
3 239 290 291
3 239 291 236
3 236 291 287
3 292 293 294
3 292 289 293
3 292 240 289
3 240 237 289
3 290 241 295
3 238 241 290
3 296 291 290
3 295 296 290
3 297 298 299
3 294 298 297
3 292 294 297
3 292 297 243
3 292 243 242
3 240 292 242
3 245 244 300
3 245 295 241
3 245 300 295
3 300 301 295
3 302 296 295
3 302 295 303
3 303 295 301
3 303 304 305
3 302 303 305
3 304 306 307
3 305 304 307
3 306 308 309
3 307 306 309
3 308 310 311
3 309 308 311
3 310 248 247
3 310 247 311
3 311 247 312
3 299 250 297
3 299 312 250
3 312 247 250
3 243 297 250
3 244 251 300
3 254 300 251
3 301 300 254
3 256 301 254
3 303 301 256
3 258 303 256
3 304 303 258
3 260 304 258
3 306 304 260
3 261 306 260
3 308 306 261
3 262 308 261
3 310 308 262
3 248 310 262
3 313 314 315
3 313 316 317
3 315 316 313
3 316 318 317
3 319 320 321
3 314 319 321
3 314 313 319
3 313 322 319
3 317 323 313
3 323 322 313
3 324 317 318
3 324 325 317
3 325 323 317
3 325 326 327
3 324 326 325
3 326 328 327
3 329 330 331
3 320 329 331
3 319 329 320
3 319 265 329
3 319 266 265
3 267 266 319
3 322 267 319
3 269 267 322
3 323 269 322
3 271 269 323
3 325 271 323
3 273 271 325
3 273 325 332
3 332 325 327
3 333 327 328
3 332 327 333
3 334 335 336
3 330 334 336
3 329 334 330
3 329 275 334
3 329 276 275
3 265 276 329
3 273 332 277
3 332 279 277
3 332 333 279
3 333 337 279
3 338 281 339
3 338 335 281
3 282 281 334
3 334 281 335
3 282 334 275
3 339 340 338
3 279 337 283
3 337 341 283
3 339 342 343
3 339 281 342
3 281 285 342
3 340 339 343
3 283 341 286
3 341 344 286
3 288 287 345
3 288 345 346
3 288 346 285
3 285 346 342
3 347 348 349
3 347 344 348
3 347 289 344
3 289 286 344
3 345 291 350
3 287 291 345
3 351 346 345
3 351 345 352
3 352 345 350
3 352 353 354
3 351 352 354
3 353 355 356
3 354 353 356
3 355 357 358
3 356 355 358
3 357 359 360
3 358 357 360
3 359 361 362
3 360 359 362
3 349 362 361
3 347 349 361
3 347 361 294
3 347 294 293
3 289 347 293
3 350 296 363
3 291 296 350
3 352 350 364
3 364 350 363
3 353 352 365
3 365 352 364
3 355 353 366
3 366 353 365
3 357 355 367
3 367 355 366
3 359 357 368
3 368 357 367
3 298 368 299
3 298 361 368
3 361 359 368
3 294 361 298
3 296 302 363
3 305 363 302
3 364 363 305
3 307 364 305
3 365 364 307
3 309 365 307
3 366 365 309
3 311 366 309
3 367 366 311
3 312 367 311
3 368 367 312
3 299 368 312
3 369 370 371
3 369 372 373
3 371 372 369
3 373 374 375
3 372 374 373
3 374 376 375
3 377 378 379
3 377 380 381
3 379 380 377
3 370 381 380
3 369 381 370
3 369 314 381
3 369 315 314
3 316 315 369
3 373 316 369
3 318 316 373
3 318 373 382
3 382 373 375
3 383 375 376
3 383 384 375
3 384 382 375
3 383 385 384
3 386 387 388
3 378 386 388
3 378 377 386
3 377 389 386
3 321 320 389
3 321 389 381
3 381 389 377
3 314 321 381
3 318 382 324
3 326 324 382
3 384 326 382
3 384 328 326
3 384 385 328
3 385 390 328
3 391 387 386
3 392 387 391
3 331 330 391
3 331 391 389
3 389 391 386
3 320 331 389
3 328 390 333
3 390 393 333
3 394 335 395
3 394 392 335
3 336 335 391
3 391 335 392
3 336 391 330
3 395 396 394
3 333 393 337
3 393 397 337
3 335 338 395
3 340 398 399
3 338 340 399
3 338 399 396
3 338 396 395
3 399 398 400
3 337 397 341
3 397 401 341
3 343 342 402
3 343 398 340
3 343 402 398
3 402 403 398
3 404 400 398
3 403 404 398
3 405 406 407
3 405 401 406
3 405 344 401
3 344 341 401
3 402 346 408
3 342 346 402
3 403 402 409
3 409 402 408
3 410 404 403
3 410 403 411
3 411 403 409
3 411 412 413
3 410 411 413
3 412 414 415
3 413 412 415
3 414 416 417
3 415 414 417
3 407 417 416
3 405 407 416
3 405 416 349
3 405 349 348
3 344 405 348
3 346 351 408
3 354 408 351
3 409 408 354
3 356 409 354
3 411 409 356
3 358 411 356
3 412 411 358
3 360 412 358
3 414 412 360
3 362 414 360
3 416 414 362
3 349 416 362
3 418 419 420
3 418 421 422
3 420 421 418
3 422 423 424
3 421 423 422
3 424 425 426
3 423 425 424
3 425 427 426
3 428 429 430
3 419 428 430
3 419 418 428
3 418 431 428
3 371 370 431
3 371 431 422
3 422 431 418
3 372 371 422
3 424 372 422
3 374 372 424
3 426 374 424
3 376 432 433
3 374 432 376
3 374 427 432
3 374 426 427
3 432 434 433
3 435 436 437
3 429 435 437
3 428 435 429
3 428 378 435
3 428 379 378
3 380 379 428
3 431 380 428
3 370 380 431
3 376 433 383
3 433 385 383
3 433 434 385
3 434 438 385
3 388 436 435
3 388 387 436
3 387 439 436
3 378 388 435
3 385 438 390
3 438 440 390
3 441 392 442
3 441 439 392
3 439 387 392
3 442 443 444
3 441 442 444
3 444 443 445
3 390 440 393
3 440 446 393
3 392 394 442
3 396 442 394
3 396 447 442
3 447 443 442
3 448 445 443
3 447 448 443
3 449 450 451
3 449 446 450
3 449 397 446
3 397 393 446
3 396 399 447
3 400 452 453
3 399 400 453
3 399 453 448
3 399 448 447
3 452 454 455
3 453 452 455
3 455 454 456
3 457 458 459
3 451 458 457
3 451 457 449
3 449 457 460
3 397 460 401
3 449 460 397
3 452 404 461
3 400 404 452
3 454 452 462
3 462 452 461
3 463 456 454
3 463 454 464
3 464 454 462
3 459 463 464
3 459 464 457
3 457 464 465
3 406 465 407
3 406 460 465
3 460 457 465
3 401 460 406
3 404 410 461
3 413 461 410
3 462 461 413
3 415 462 413
3 464 462 415
3 417 464 415
3 465 464 417
3 407 465 417
3 466 467 468
3 466 469 470
3 468 469 466
3 470 471 472
3 469 471 470
3 472 473 474
3 471 473 472
3 473 475 474
3 476 477 478
3 476 479 480
3 478 479 476
3 467 480 479
3 466 480 467
3 466 419 480
3 466 420 419
3 421 420 466
3 470 421 466
3 423 421 470
3 472 423 470
3 425 423 472
3 474 425 472
3 474 427 425
3 474 475 427
3 475 481 427
3 482 483 484
3 477 482 484
3 477 476 482
3 476 485 482
3 430 429 485
3 430 485 480
3 480 485 476
3 419 430 480
3 427 481 486
3 432 427 486
3 486 434 432
3 487 434 486
3 482 488 483
3 437 436 489
3 437 489 482
3 437 482 485
3 482 489 488
3 429 437 485
3 490 491 492
3 490 487 491
3 490 438 487
3 438 434 487
3 493 439 494
3 493 489 439
3 489 436 439
3 494 495 496
3 493 494 496
3 495 497 498
3 496 495 498
3 498 497 499
3 500 490 492
3 501 500 492
3 438 500 440
3 490 500 438
3 439 441 494
3 444 494 441
3 495 494 444
3 445 495 444
3 445 502 495
3 502 497 495
3 503 499 497
3 503 497 504
3 504 497 502
3 504 505 506
3 503 504 506
3 505 507 508
3 506 505 508
3 501 508 507
3 501 507 500
3 500 507 509
3 440 509 446
3 500 509 440
3 502 448 510
3 445 448 502
3 504 502 511
3 511 502 510
3 505 504 512
3 512 504 511
3 507 505 513
3 513 505 512
3 450 513 451
3 450 509 513
3 509 507 513
3 446 509 450
3 448 453 510
3 455 510 453
3 511 510 455
3 456 511 455
3 456 514 511
3 514 512 511
3 458 514 459
3 458 513 514
3 513 512 514
3 451 513 458
3 456 463 514
3 459 514 463
3 515 516 517
3 515 518 519
3 517 518 515
3 519 520 521
3 518 520 519
3 521 522 523
3 520 522 521
3 522 524 523
3 525 526 527
3 516 525 527
3 516 515 525
3 515 528 525
3 468 467 528
3 468 528 519
3 519 528 515
3 469 468 519
3 521 469 519
3 471 469 521
3 523 471 521
3 523 524 529
3 523 529 471
3 471 529 473
3 529 475 473
3 530 475 529
3 531 532 533
3 526 531 533
3 525 531 526
3 525 477 531
3 525 478 477
3 479 478 525
3 528 479 525
3 467 479 528
3 475 530 481
3 530 534 481
3 484 532 531
3 484 483 532
3 483 535 532
3 477 484 531
3 536 486 481
3 536 481 537
3 537 481 534
3 486 536 487
3 483 538 535
3 488 538 483
3 489 539 540
3 489 540 488
3 488 540 538
3 539 541 542
3 540 539 542
3 541 543 544
3 542 541 544
3 543 545 546
3 544 543 546
3 545 547 548
3 546 545 548
3 547 549 550
3 548 547 550
3 537 550 549
3 536 537 549
3 536 549 492
3 536 492 491
3 487 536 491
3 489 493 539
3 496 539 493
3 541 539 496
3 498 541 496
3 543 541 498
3 499 543 498
3 499 551 543
3 551 545 543
3 547 545 552
3 552 545 551
3 549 547 553
3 553 547 552
3 492 553 501
3 549 553 492
3 499 503 551
3 506 551 503
3 552 551 506
3 508 552 506
3 553 552 508
3 501 553 508
3 554 555 556
3 554 557 558
3 556 557 554
3 558 559 560
3 557 559 558
3 559 561 560
3 562 563 564
3 555 562 564
3 554 562 555
3 554 516 562
3 554 517 516
3 518 517 554
3 558 518 554
3 520 518 558
3 560 520 558
3 560 561 565
3 560 565 520
3 520 565 522
3 565 524 522
3 566 524 565
3 567 568 569
3 567 570 571
3 569 570 567
3 563 571 570
3 562 571 563
3 562 526 571
3 562 527 526
3 516 527 562
3 572 529 524
3 572 524 573
3 573 524 566
3 529 572 530
3 567 574 568
3 571 532 567
3 571 533 532
3 567 532 574
3 575 576 532
3 574 532 576
3 575 577 578
3 575 578 576
3 571 526 533
3 578 577 579
3 580 572 573
3 581 580 573
3 530 580 534
3 572 580 530
3 575 535 582
3 532 535 575
3 577 575 583
3 583 575 582
3 584 579 577
3 584 577 585
3 585 577 583
3 585 586 587
3 584 585 587
3 586 588 589
3 587 586 589
3 588 590 591
3 589 588 591
3 581 591 590
3 581 590 580
3 580 590 592
3 534 592 537
3 580 592 534
3 535 538 582
3 540 582 538
3 583 582 540
3 542 583 540
3 585 583 542
3 544 585 542
3 586 585 544
3 546 586 544
3 588 586 546
3 548 588 546
3 590 588 548
3 550 590 548
3 592 590 550
3 537 592 550
3 593 594 595
3 593 596 597
3 595 596 593
3 596 598 597
3 599 600 601
3 594 599 601
3 593 599 594
3 593 555 599
3 593 556 555
3 557 556 593
3 597 557 593
3 597 598 602
3 597 602 557
3 557 602 559
3 602 561 559
3 603 561 602
3 604 605 606
3 604 607 608
3 606 607 604
3 600 608 607
3 599 608 600
3 599 563 608
3 599 564 563
3 555 564 599
3 609 565 561
3 609 561 610
3 610 561 603
3 565 609 566
3 611 568 612
3 611 605 568
3 569 568 604
3 604 568 605
3 613 614 611
3 613 611 612
3 608 570 604
3 604 570 569
3 570 608 563
3 613 615 614
3 616 617 618
3 610 617 616
3 610 616 609
3 609 616 619
3 566 619 573
3 609 619 566
3 568 574 612
3 576 612 574
3 613 612 576
3 613 620 615
3 613 576 620
3 576 578 620
3 579 621 622
3 579 622 578
3 578 622 620
3 621 623 624
3 622 621 624
3 618 624 623
3 618 623 616
3 616 623 625
3 619 616 626
3 626 616 625
3 573 626 581
3 619 626 573
3 579 584 621
3 587 621 584
3 623 621 587
3 589 623 587
3 625 623 589
3 591 625 589
3 626 625 591
3 581 626 591
3 627 628 629
3 627 595 594
3 627 629 595
3 629 630 595
3 596 595 631
3 595 630 631
3 631 598 596
3 632 598 631
3 633 634 635
3 633 636 637
3 635 636 633
3 628 637 636
3 627 637 628
3 627 600 637
3 627 601 600
3 594 601 627
3 598 632 638
3 602 598 638
3 638 603 602
3 639 603 638
3 640 641 642
3 634 640 642
3 633 640 634
3 633 605 640
3 633 606 605
3 607 606 633
3 637 607 633
3 600 607 637
3 643 644 645
3 643 639 644
3 643 610 639
3 610 603 639
3 640 646 641
3 605 646 640
3 605 611 646
3 611 647 646
3 614 648 611
3 611 648 647
3 615 649 650
3 615 650 614
3 614 650 648
3 649 651 652
3 650 649 652
3 651 653 654
3 652 651 654
3 645 654 653
3 643 645 653
3 643 653 618
3 643 618 617
3 610 643 617
3 615 620 649
3 622 649 620
3 651 649 622
3 624 651 622
3 653 651 624
3 618 653 624
3 655 656 657
3 655 658 659
3 657 658 655
3 659 629 628
3 659 658 629
3 658 660 629
3 630 629 661
3 629 660 661
3 631 630 662
3 630 661 662
3 662 632 631
3 663 632 662
3 664 665 666
3 664 667 668
3 666 667 664
3 656 668 667
3 655 668 656
3 655 634 668
3 655 635 634
3 636 635 655
3 659 636 655
3 628 636 659
3 669 638 632
3 669 632 670
3 670 632 663
3 638 669 639
3 664 671 665
3 668 641 664
3 668 642 641
3 664 641 671
3 672 673 641
3 671 641 673
3 672 674 675
3 672 675 673
3 668 634 642
3 674 676 677
3 675 674 677
3 676 678 679
3 677 676 679
3 678 680 681
3 679 678 681
3 680 682 683
3 681 680 683
3 670 683 682
3 669 670 682
3 669 682 645
3 669 645 644
3 639 669 644
3 641 646 672
3 647 672 646
3 674 672 647
3 648 674 647
3 676 674 648
3 650 676 648
3 678 676 650
3 652 678 650
3 680 678 652
3 654 680 652
3 682 680 654
3 645 682 654
3 684 685 686
3 684 687 688
3 686 687 684
3 688 657 656
3 688 687 657
3 687 689 657
3 658 657 690
3 657 689 690
3 660 658 691
3 658 690 691
3 661 660 692
3 660 691 692
3 693 692 694
3 693 662 692
3 662 661 692
3 662 693 663
3 695 696 697
3 685 695 697
3 684 695 685
3 684 665 695
3 684 666 665
3 667 666 684
3 688 667 684
3 656 667 688
3 698 699 700
3 694 699 698
3 694 698 693
3 693 698 701
3 663 701 670
3 693 701 663
3 695 702 696
3 665 702 695
3 665 671 702
3 671 703 702
3 673 704 671
3 671 704 703
3 675 705 673
3 673 705 704
3 677 706 675
3 675 706 705
3 679 707 677
3 677 707 706
3 700 681 698
3 700 707 681
3 707 679 681
3 683 698 681
3 701 698 683
3 670 701 683
3 686 708 709
3 685 708 686
3 687 686 710
3 686 709 710
3 689 687 711
3 687 710 711
3 690 689 712
3 689 711 712
3 713 712 714
3 713 691 712
3 691 690 712
3 691 715 692
3 713 715 691
3 692 715 694
3 697 696 716
3 697 716 717
3 697 717 685
3 685 717 708
3 718 713 714
3 719 718 714
3 699 718 700
3 699 715 718
3 715 713 718
3 694 715 699
3 696 702 716
3 716 720 717
3 716 702 720
3 702 703 720
3 704 721 703
3 703 721 720
3 705 722 704
3 704 722 721
3 706 723 705
3 705 723 722
3 719 707 718
3 719 723 707
3 723 706 707
3 700 718 707
3 709 708 724
3 709 725 710
3 724 725 709
3 710 726 711
3 725 726 710
3 711 727 712
3 726 727 711
3 712 727 714
3 724 717 728
3 708 717 724
3 725 724 729
3 729 724 728
3 726 725 730
3 730 725 729
3 727 726 731
3 731 726 730
3 714 731 719
3 727 731 714
3 717 720 728
3 721 728 720
3 729 728 721
3 722 729 721
3 730 729 722
3 723 730 722
3 731 730 723
3 719 731 723
