# vtk DataFile Version 3.0
this file was written using fslvtkio
ASCII
DATASET POLYDATA
POINTS 1068 float
89.203 95.4905 90.107
89.0654 95.1522 89.7124
89.5513 95.0824 89.8001
89.6606 95.2296 90.0092
89.5199 95.7663 90.3266
89.913 95.2896 90.1474
89.9542 95.9119 90.5582
90.2064 95.358 90.3592
90.3248 95.777 90.6493
90.5889 95.5187 90.6362
88.9589 95.1417 90.2979
89.1137 94.7823 89.8175
89.1206 95.5304 90.6555
89.4946 95.8352 90.9324
89.9195 96.0547 91.2217
90.4903 95.9301 91.115
89.0394 94.7474 90.2391
89.2568 94.4495 89.9566
88.9114 95.0306 90.6839
89.338 95.306 90.9615
89.604 95.7214 91.456
90.2717 95.8457 91.6577
89.1086 94.5554 90.588
89.1839 94.9238 91.0418
89.7489 95.1627 91.2268
90.0503 95.515 91.679
91.0191 96.1752 89.2445
91.0149 96.0819 88.6574
91.2202 96.3167 88.7737
91.4347 96.2728 89.0756
91.2756 96.0891 89.4222
91.627 96.2043 89.3389
90.8777 95.9502 88.9749
90.6831 95.6655 88.9336
90.9653 95.6485 88.7035
91.0546 95.6477 89.4391
91.2854 95.6088 89.5221
91.5053 95.9806 89.77
90.5124 95.5423 89.4519
90.5378 95.4397 88.8988
90.8994 95.4396 89.5388
91.0469 95.2681 89.9076
91.4464 95.4471 89.9016
89.961 95.1139 89.3918
89.7086 94.8415 89.4981
90.1224 94.8161 89.0262
90.3733 95.0367 88.8551
90.1817 95.3799 89.3299
90.1754 95.3061 89.931
90.5465 95.2744 90.0506
90.8914 95.3363 90.4726
91.1581 95.2658 90.3287
89.4041 94.7175 89.2896
90.9368 95.703 90.927
89.4623 94.3844 89.4808
90.7975 95.7887 91.4751
89.5737 94.069 89.5804
90.5252 95.5905 91.7833
89.2896 94.2374 90.3878
89.4552 93.9182 90.0005
89.3752 94.3869 90.8191
89.6318 94.6911 91.1941
89.9316 94.9231 91.4038
90.2953 95.138 91.5687
89.4291 94.0201 90.5427
89.8138 94.2517 90.9473
90.035 94.485 91.2588
92.4969 96.654 88.3279
92.3735 96.0214 88.2655
92.6266 96.1207 87.9839
92.7842 96.5005 88.0846
92.8434 96.7348 88.5664
93.0738 96.647 88.2994
93.1326 96.5256 88.5522
93.23 96.5014 88.4368
92.1175 96.2757 88.4105
91.8244 95.9696 88.4289
92.277 95.8131 88.2927
92.2821 96.6642 88.9037
92.5746 96.6065 88.9885
93.0128 96.5325 88.9287
93.1984 96.297 88.5626
91.6888 96.3273 88.7221
91.3799 96.0091 88.5804
91.9295 96.4144 89.0921
92.2611 96.3819 89.3096
92.7553 96.3187 89.2992
93.106 96.2025 88.9737
91.2988 95.6484 88.4954
91.9289 96.1237 89.6238
92.4595 96.1085 89.7899
92.8932 96.0631 89.5978
90.8959 95.3144 88.7424
91.2824 95.2907 88.3997
91.7226 95.7295 89.9642
92.1473 95.7733 90.0304
92.7482 95.8128 90.1327
90.6884 95.1749 88.6122
90.6215 94.9863 88.3229
90.9723 95.0851 88.2405
91.6599 95.335 90.3599
92.1302 95.3367 90.2718
92.46 95.6258 90.3389
89.9647 94.6058 88.9224
90.4744 94.7174 88.5717
91.3524 95.5157 90.7175
91.5259 95.2653 90.9159
91.8778 95.1872 90.8717
89.855 94.2788 88.845
91.2617 95.4978 91.227
91.6473 95.2931 91.3282
91.719 95.1293 91.0933
89.7907 94.0025 89.0997
90.9757 95.6301 91.7933
91.3427 95.3626 91.8099
89.7731 93.741 89.5205
90.635 95.2898 91.9825
91.0017 95.2767 91.9998
89.9158 93.5043 89.9064
90.5975 94.7187 91.7645
90.2799 94.627 91.4945
90.7606 94.8834 92.1189
89.8467 93.6744 90.2629
90.2174 93.974 90.6015
90.3872 94.2528 91.0468
92.683 95.6343 87.987
92.8735 95.7582 87.7501
92.9598 96.0243 87.8654
93.2561 96.3489 88.0203
93.5874 96.1963 88.3309
91.9214 95.606 88.2974
92.411 95.4996 87.9457
93.4723 95.9799 88.555
91.6358 95.5237 88.4704
93.3899 95.9773 88.8561
93.2519 96.0148 89.1581
93.5967 95.7216 88.7789
91.6686 95.3146 88.0452
93.1411 95.8226 89.5192
93.494 95.6612 89.041
91.259 95.0732 88.293
91.5695 95.0428 87.931
93.1649 95.6495 89.7503
93.413 95.4246 89.2284
90.925 94.793 88.0622
91.3018 94.802 88.1931
92.4164 95.3315 90.5292
92.7612 95.3792 90.1843
93.2056 95.395 89.8222
90.4509 94.3138 88.6392
90.8874 94.3757 88.1055
92.3839 95.1843 90.8096
92.8271 94.9159 90.2573
90.4072 94.0197 88.8548
91.7599 95.0604 91.6059
91.9966 95.0661 91.429
92.3196 95.0492 91.2392
90.0354 93.6973 88.9708
91.6223 94.9535 92.1175
91.9733 94.6584 91.6811
90.102 93.4054 89.4089
91.5926 94.5649 92.3483
91.2589 94.927 92.283
90.0968 93.2467 89.6892
90.6073 94.464 91.3742
90.8601 94.4297 91.5711
91.0814 94.4939 92.0025
90.2681 93.305 90.0659
90.4427 93.6423 90.3706
90.6221 93.9638 90.7133
90.7951 94.1913 91.1197
92.9345 95.4605 87.6919
93.1881 95.4594 87.4943
93.2383 95.7514 87.7019
93.4716 96.0371 87.8693
93.7274 95.796 88.1848
92.3515 95.2847 87.6788
92.7117 95.2886 87.6258
93.011 95.231 87.4956
93.6579 95.6586 88.4679
93.4589 95.7571 88.5764
93.7089 95.4785 88.5109
92.143 95.1513 87.8539
92.6048 94.9287 87.6672
93.7591 95.4244 88.7154
91.9391 94.9651 87.8186
93.7933 95.2996 88.9259
91.6897 94.7437 88.0305
91.7759 94.8627 87.9565
93.6933 95.13 89.0867
91.3577 94.4054 88.0347
91.5962 94.5074 88.1007
93.1662 95.0662 89.8785
93.4852 95.1249 89.4418
91.0385 94.0066 88.2446
91.2203 94.151 87.9806
93.0889 94.8734 89.8031
93.3536 94.8536 89.6235
90.6968 93.8015 88.4732
90.8267 93.5189 88.2977
91.0356 93.6792 88.2162
92.2392 94.7177 91.2977
92.6118 94.6829 90.8654
93.037 94.6729 89.9688
90.4478 93.7062 88.6177
90.683 93.3095 88.5501
92.2085 94.5059 91.3184
92.4304 94.4175 91.0572
90.3452 93.3606 88.8892
90.6907 93.0748 88.7357
91.3354 94.465 92.2827
91.7279 94.383 92.0529
92.1106 94.2878 91.3357
90.3996 93.1118 89.2158
90.7949 92.8886 88.9878
91.2545 94.036 91.5585
90.9773 94.1012 91.5762
91.4295 94.1869 92.0721
90.2918 92.9149 89.5765
90.7083 93.0921 90.0228
90.6705 93.3331 90.2862
90.7693 93.5567 90.6793
90.8791 93.8229 91.0541
93.6724 95.6454 87.4911
93.6335 95.4219 87.2518
94.005 95.3367 87.0741
93.774 95.4149 87.3221
93.6767 95.7387 87.7351
93.8459 95.3599 87.5262
93.3568 95.2368 87.2992
94.077 95.2832 87.8803
93.0475 94.9104 87.4031
93.298 94.9886 87.1853
93.7883 95.3946 88.1709
93.9059 95.1859 88.2862
92.4218 94.7748 87.7936
92.9436 94.5713 87.5041
94.0742 95.0502 88.5219
92.0135 94.6426 87.8356
92.2698 94.3599 87.6188
92.3172 94.6036 87.6034
93.9009 94.9327 88.6995
91.8608 94.2623 87.919
92.0534 93.9174 87.5092
92.2728 94.0851 87.4435
93.7921 94.8111 89.057
91.5804 94.0141 87.7732
91.6215 93.5977 87.8382
91.9921 93.687 87.4427
93.6875 94.6438 89.4073
91.3269 93.7787 87.8326
91.1883 93.3729 88.0908
91.4988 93.391 87.7968
93.3826 94.5046 89.6523
91.107 93.144 88.3923
93.1204 94.2897 89.9053
92.8182 94.3716 90.5818
91.0949 92.8635 88.3249
92.5128 94.0943 90.8757
90.9716 92.6196 88.4743
92.3077 93.9238 91.0677
91.8101 94.0663 91.7035
91.0538 92.5523 88.8864
91.4248 93.7137 91.2546
91.1452 93.7924 91.2521
91.5878 93.8902 91.5984
90.7034 92.7884 89.3024
90.9483 92.9513 89.7237
91.0169 93.1417 90.1035
91.08 93.2517 90.4907
91.0534 93.5459 90.8826
93.8801 95.218 86.9335
93.9568 94.7744 86.8659
94.1629 94.9606 86.6865
94.2604 95.1125 86.7863
93.9735 95.0856 87.0234
94.407 94.8852 87.2575
93.6753 95.0046 87.1185
93.6034 94.6878 86.9839
94.4401 94.8326 87.6336
93.3811 94.5493 87.2002
94.1469 95.052 87.9405
94.2484 94.8372 88.1154
92.659 94.4268 87.4539
92.8907 94.0879 87.0594
93.0839 94.2639 87.1576
93.352 94.3381 87.1179
94.2295 94.7083 88.3196
92.5646 94.1524 87.4377
92.5804 93.7103 87.2982
92.883 93.6959 87.201
94.1062 94.5844 88.6123
92.4353 93.6125 87.0634
93.9459 94.4607 88.9058
91.7944 93.3733 87.3777
92.2333 93.4072 86.9991
93.7101 94.3138 89.2957
91.3966 93.1037 87.8177
91.6958 92.9958 87.5024
93.4539 94.2119 89.5021
91.4554 92.7201 88.0313
93.2516 93.9462 89.7842
92.9077 93.9875 90.4058
91.391 92.463 88.2355
92.698 93.7407 90.5641
91.3357 92.2843 88.4812
92.4819 93.6402 90.6807
92.0377 93.7938 91.1289
91.1959 92.3088 88.7823
91.2618 93.5825 90.9778
91.5056 93.4038 91.0248
91.7316 93.5281 91.1193
90.8215 92.4148 89.144
90.9417 92.558 89.5954
91.1688 92.7701 89.8439
91.2136 92.926 90.1765
91.2761 93.1113 90.4501
91.3579 93.292 90.7164
94.5232 94.9403 86.4435
94.3967 94.6828 86.3576
94.7657 94.7877 86.071
94.9977 94.8318 86.1527
94.4665 95.1187 86.5955
94.9131 94.8505 86.4301
94.5531 94.9548 86.8354
94.9427 94.6673 86.6547
94.1387 94.4753 86.4955
94.8706 94.4662 86.9301
93.8232 94.4517 86.6642
94.8497 94.4507 87.3449
93.6138 94.3585 86.8731
93.7263 94.1979 86.6229
93.8568 94.3435 86.5119
94.5183 94.6452 87.7454
94.5052 94.4753 87.9399
93.2553 93.9433 86.7299
93.397 94.1818 86.7739
94.4677 94.3542 88.2111
92.9243 93.3485 86.9471
93.1912 93.66 86.6828
94.2799 94.2197 88.5014
92.597 93.3397 86.7125
94.0633 94.0999 88.8504
92.1434 93.0593 87.1703
92.3955 93.2213 86.9085
93.8784 93.9796 89.3229
91.6905 92.6136 87.4993
92.057 92.7438 87.3511
93.5218 93.9543 89.4874
91.6886 92.3213 87.7608
93.4152 93.742 89.613
93.1126 93.6437 90.1929
91.6482 92.148 88.1171
92.8318 93.5221 90.0945
91.4919 92.0118 88.4018
92.5309 93.4008 90.3701
92.2254 93.5372 90.649
91.391 92.0814 88.749
92.0296 93.2256 90.7049
91.7248 93.1792 90.8214
91.2236 92.3012 89.0782
91.1311 92.3122 89.4296
91.2458 92.4961 89.6647
91.4121 92.6947 89.879
91.5179 92.7906 90.1922
91.6712 92.9515 90.5461
95.2652 94.8528 85.6708
94.9913 94.5173 85.8059
95.5226 94.5308 85.294
95.6877 94.6935 85.5425
95.4196 94.6727 85.8787
95.8773 94.4267 85.7118
94.6702 94.3158 86.0128
95.4162 94.5182 86.1539
95.3962 94.2994 86.4144
94.3593 94.2103 86.0732
94.6491 93.8736 85.9904
94.6984 94.165 85.8992
95.3296 94.1376 86.7655
94.0332 94.0878 86.3322
94.1859 93.8651 86.0927
95.1624 94.1348 87.1378
93.7825 93.8941 86.503
93.851 93.6841 86.0593
93.9948 93.7943 86.0865
94.7343 94.335 87.5338
94.8108 94.1174 87.7701
93.4912 93.7717 86.3191
93.4473 93.3008 86.3601
93.6834 93.4397 85.9723
94.6304 94.012 88.1616
93.109 93.0436 86.5932
94.4407 93.8857 88.5205
92.6034 93.0242 86.7421
92.6027 92.7934 86.6589
92.847 92.9092 86.4047
94.2928 93.6845 88.9701
92.3478 92.829 87.0432
92.16 92.4534 87.1441
92.5012 92.4538 86.8465
94.0111 93.7043 89.3166
94.1671 93.4179 89.1382
93.8538 93.554 89.2902
92.0247 92.196 87.3035
93.7209 93.7797 89.3076
93.5144 93.5164 89.4894
92.0082 92.0463 87.6942
93.223 93.2666 89.8774
91.9275 91.9915 88.1094
92.8745 93.2193 89.9321
91.6884 91.8127 88.4177
92.6048 93.2199 90.1634
92.3822 93.1731 90.3739
91.47 91.9673 88.7596
91.3993 92.1137 88.9753
91.5383 91.9809 88.9379
92.2648 93.0963 90.2449
92.0381 92.9846 90.4391
91.3637 92.1267 89.2471
91.4733 92.2153 89.5332
91.4725 92.3674 89.8562
91.7178 92.5199 89.9964
91.8968 92.729 90.1293
95.2655 94.2422 85.4109
95.4563 93.8753 85.2094
95.6139 94.1685 85.0422
95.913 94.4217 84.9735
96.0439 94.564 85.3086
96.3424 94.0349 85.441
95.018 94.0197 85.7261
95.2982 93.6964 85.2495
95.824 94.1572 85.9554
95.7952 93.937 86.3266
94.8846 93.7242 85.5068
94.8366 93.4258 85.3248
95.1479 93.5345 85.356
95.6969 93.7798 86.6708
94.2842 93.6816 85.7428
94.4503 93.2762 85.6578
95.3208 93.8988 87.0426
94.9922 94.086 87.3729
95.131 93.8867 87.3683
94.0349 93.4296 85.7761
93.9385 93.0075 85.8442
94.3057 92.9457 85.7592
94.9584 93.8235 87.7751
93.4951 92.8219 86.1713
94.773 93.7126 88.1384
93.1879 92.8011 86.2068
94.6425 93.5191 88.5304
92.9083 92.5043 86.6421
93.0703 92.5948 86.4135
94.3916 93.3724 88.6685
92.4817 92.0754 86.9065
92.832 92.2206 86.7296
94.296 93.1326 88.9315
93.8324 93.2991 89.1158
92.3374 91.9143 87.2997
93.5972 93.1509 89.2954
92.2225 91.8564 87.7381
93.2151 92.9833 89.6352
92.0969 91.8 88.0999
92.7025 93.0108 90.0118
93.0348 92.8776 89.7879
92.8327 92.6891 89.8901
91.9009 91.7626 88.4531
91.5844 91.7943 88.7045
91.6967 91.709 88.772
92.4295 92.9444 90.0056
92.667 92.5634 89.912
92.4367 92.6461 89.8832
91.8097 91.8474 88.9784
92.0779 92.5745 89.9021
92.2107 92.4822 89.5944
92.0008 92.3876 89.6862
92.2219 92.8409 89.983
92.3608 92.5091 89.7007
91.6568 92.0392 89.1692
91.7169 92.0439 89.395
91.7678 92.1884 89.7068
96.4525 94.5181 84.8362
96.2085 94.3538 84.5133
96.4764 94.3299 84.2597
96.7789 94.3088 84.6038
96.7014 94.3566 85.1113
96.8422 93.9064 84.8557
95.8869 93.6735 84.5656
95.895 94.1087 84.5316
96.6261 93.6097 85.2432
95.429 93.421 85.0718
95.445 93.1869 84.6188
95.6827 93.4051 84.6251
96.1708 93.7775 85.7794
96.0305 93.5651 86.137
95.1492 93.1395 85.1144
95.0104 92.7493 84.931
95.2303 92.8401 84.6349
95.917 93.4085 86.5696
94.7067 92.9925 85.3126
94.4855 92.6333 85.4175
95.5068 93.643 87.0016
95.3883 93.5717 87.4299
93.9808 92.6531 85.624
95.1101 93.5133 87.8204
93.7086 92.5125 85.8927
93.6893 92.1713 85.7094
93.9096 92.3902 85.3425
94.9583 93.3532 88.1113
93.4125 92.3677 86.2975
93.4445 92.0953 85.9404
94.7198 93.2523 88.2213
93.2038 92.1923 86.446
92.9362 91.9394 86.6442
93.1922 92.0275 86.2413
94.5335 93.0844 88.4435
92.737 91.7867 86.9342
94.4071 92.9279 88.7373
94.0141 93.0011 88.9023
92.5499 91.6443 87.3089
93.6769 92.8583 89.0874
92.4349 91.6502 87.7454
93.2873 92.6802 89.5684
93.6303 92.6419 89.0385
93.3144 92.451 89.4367
92.2302 91.6144 88.0804
92.7432 92.2393 89.3511
92.9992 92.0027 88.9515
92.6837 92.0843 89.1692
92.9328 92.3243 89.406
93.0593 92.1575 89.1044
92.9997 92.463 89.6799
93.2586 92.2868 89.1707
92.0535 91.7013 88.4551
92.1151 91.8747 88.7122
92.4125 92.2761 89.5406
92.4147 92.0241 89.3272
92.6613 92.4177 89.6544
92.0476 91.7443 88.9148
91.9172 91.9072 89.1564
91.9839 92.0898 89.299
92.1378 91.7712 89.0674
92.1375 92.1404 89.5093
92.2625 91.9085 89.1697
96.7257 93.7951 83.7643
96.5158 93.5635 83.5742
97.0358 93.6981 83.3374
97.1255 93.7955 83.6955
96.8836 94.0518 84.0063
97.1612 93.8664 84.0803
97.0271 94.0155 84.3773
97.2609 93.8113 84.4348
96.1906 93.8542 84.0107
96.1279 93.4543 83.8258
97.1107 93.4985 84.7398
95.7889 93.3431 84.2323
95.7102 93.1112 83.8678
95.9367 93.2339 83.7182
96.8585 93.1562 85.113
95.5122 93.0685 84.1313
95.3633 92.6455 84.1125
95.6203 92.9113 83.8101
96.3488 93.3599 85.5562
96.163 93.1873 86.0161
94.8626 92.5457 84.5911
95.9751 93.1662 86.4368
94.5495 92.4442 84.8259
94.4072 92.1154 84.7362
94.7601 92.1998 84.4421
95.6361 93.3568 86.9218
95.7969 93.0341 86.8077
94.2219 92.4075 85.1423
94.0625 91.9913 85.1271
95.4332 93.2694 87.2037
95.1949 93.2437 87.5672
93.7576 91.7901 85.5483
95.0333 93.0452 87.8513
93.4338 91.8906 86.0126
93.2427 91.7532 86.2133
93.6704 91.6495 85.917
94.7371 92.9853 88.1265
93.0384 91.6198 86.5421
94.5548 92.8816 88.4452
94.6951 92.7179 88.3307
94.3721 92.7392 88.6188
92.8804 91.5459 86.9588
94.064 92.6187 88.8994
92.7215 91.4445 87.3383
93.8272 92.6525 88.8642
92.7232 91.4932 87.7199
92.4291 91.523 87.9742
92.707 91.4858 87.9699
93.5204 92.428 89.0241
93.7179 92.3384 88.9242
93.5626 92.1996 88.866
93.851 92.4648 88.8325
92.2926 91.5777 88.2074
92.4482 91.5367 88.2327
93.1541 91.9018 88.6057
92.8137 91.9117 88.8912
93.3475 92.0401 88.7815
92.3078 91.792 88.7694
92.3608 91.7027 88.5319
92.4876 91.8026 88.8556
92.6312 91.7399 88.5515
92.5727 91.9124 89.017
92.7701 91.741 88.737
96.679 93.0426 82.9638
96.5972 92.6348 82.7107
96.8418 92.922 82.5708
96.974 93.4416 82.7333
96.7175 93.3954 83.1627
97.3622 93.8488 82.8342
97.7689 93.8492 83.2714
97.5037 93.728 83.7743
97.3999 93.4724 84.0669
96.2631 92.8543 83.166
96.1877 92.4901 83.0188
96.2185 93.2684 83.3347
97.2527 93.2119 84.5046
95.8664 92.7712 83.4463
95.766 92.3646 83.2669
97.0854 92.9284 84.9282
95.4548 92.4113 83.6395
95.1869 92.0282 83.6442
95.4332 92.2064 83.3785
96.5345 93.074 85.5332
96.8097 92.783 85.4038
95.0919 92.231 84.1615
94.818 91.8449 84.1442
96.4876 92.9091 85.8592
96.2058 92.916 86.3124
94.3989 91.7377 84.578
95.9103 92.747 86.5885
94.1161 91.559 85.0125
95.4958 92.9885 87.1702
95.6889 92.6399 86.9614
93.9113 91.3521 85.3696
95.3469 92.7656 87.4811
95.415 92.4622 87.3454
93.4418 91.5176 86.2307
93.783 91.3984 85.9333
95.0712 92.5876 87.6374
95.2022 92.3206 87.4671
94.9233 92.3752 87.7216
94.9832 92.7696 87.9124
93.2106 91.3975 86.5776
94.6948 92.5111 88.2055
94.6957 92.3009 87.9312
92.96 91.2989 86.8797
94.3687 92.4025 88.4482
94.2947 92.1404 88.2611
92.9325 91.2842 87.1257
94.0019 92.1804 88.6916
94.1342 92.0055 88.3623
94.0045 91.8724 88.5218
94.0045 92.4376 88.7928
92.9262 91.3175 87.435
92.8377 91.5924 88.1117
93.0689 91.4316 87.7108
93.1707 91.4935 87.8885
93.7067 91.9802 88.7717
93.8078 91.8181 88.4856
93.562 91.9307 88.558
92.6847 91.5609 88.4019
93.1617 91.6286 88.1117
92.923 91.622 88.439
92.9991 91.763 88.6034
93.2612 91.6349 88.3641
93.4127 91.8717 88.4505
97.5805 93.3898 82.0845
97.2632 93.0732 81.84
97.5975 93.1911 81.6723
98.0168 93.4605 81.8319
97.9921 93.5302 82.3665
98.2489 93.3767 82.2126
98.1822 93.3393 82.6504
98.2528 93.1346 82.4888
97.0857 93.1086 82.2202
96.744 92.5497 82.0334
97.0615 92.6605 81.7817
97.3015 93.6874 82.3513
97.7704 93.7337 82.5846
98.1045 93.5258 82.9274
98.0563 93.1946 82.9444
96.4329 92.2067 82.513
97.8268 93.4494 83.4956
97.62 93.1305 83.966
95.9957 92.1685 82.9019
97.3924 92.8806 84.4544
95.6722 92.1212 83.1049
95.5409 91.7528 83.249
95.8259 91.8548 82.9046
97.0331 92.6741 84.911
95.0765 91.6275 83.6011
96.8517 92.4003 85.3815
94.6458 91.4917 83.9836
96.4937 92.6527 85.8446
96.2803 92.5865 86.2467
94.3475 91.3424 84.3952
95.9604 92.454 86.5746
94.2816 91.1882 84.8715
95.6625 92.3268 86.9562
94.1874 91.0692 85.266
95.411 92.1985 87.3699
93.5631 91.2436 86.1601
94.0722 91.1795 85.7629
95.3297 92.1593 87.353
95.1434 92.0435 87.463
93.329 91.1418 86.5635
93.7295 91.076 86.2233
94.6579 92.0276 87.8434
93.2165 91.1929 86.9336
93.565 91.0917 86.7417
94.2794 91.9197 88.0985
94.5452 91.8171 87.816
94.2913 91.7584 87.9291
93.1546 91.1954 87.1634
93.4367 91.1316 87.0666
93.8701 91.5777 87.98
94.0837 91.4521 87.6663
93.8079 91.4645 87.7518
94.0105 91.7826 88.1601
94.1811 91.6192 87.8245
93.212 91.264 87.4052
93.3973 91.536 87.8302
93.3821 91.4198 87.5831
93.5454 91.5093 88.1474
93.637 91.4416 87.6698
93.7053 91.6935 88.3277
100.065 93.844 77.7184
99.8178 93.8445 77.6094
100.055 93.9873 77.1812
100.262 93.851 77.3084
100.284 93.7225 77.7024
100.348 93.6352 77.4653
99.8447 93.8027 77.9995
99.7343 93.5646 78.0051
100.066 93.6272 77.9356
100.294 93.4242 77.79
99.7417 93.4919 78.2107
99.991 93.3769 78.1514
97.6332 92.8139 80.9814
97.3307 92.2822 80.8897
97.6071 92.6278 80.5582
97.9614 93.0724 80.8962
97.8857 93.1559 81.2651
98.3933 93.2877 81.2292
98.3389 93.1895 81.5654
98.6327 92.7883 81.4661
97.3225 92.8252 81.3349
97.0405 92.1398 81.4074
98.5003 93.0848 81.9974
98.2389 92.8606 82.5501
96.6357 92.0523 81.8871
97.9295 92.6691 82.9282
96.4019 91.9244 82.3258
96.2076 91.6254 82.2429
96.4383 91.7386 81.9526
97.85 93.0012 83.4675
97.6156 92.7046 83.9415
96.1151 91.8857 82.5669
95.8021 91.5224 82.6941
97.4127 92.5839 84.4659
95.4051 91.4097 83.104
97.1774 92.3714 84.8568
95.0704 91.2382 83.6053
96.9613 92.1234 85.2084
94.6536 91.0987 83.953
96.5253 92.3251 85.773
96.6083 92.0304 85.633
94.6143 90.9632 84.4433
96.2227 92.2596 86.1389
96.2099 91.9727 86.1801
94.4695 90.8547 84.8362
95.8114 92.2177 86.5408
95.7874 91.9078 86.6222
94.3573 90.9058 85.399
95.4931 92.0317 87.0914
95.5549 91.7676 86.8724
94.1728 91.0279 85.9295
95.2889 91.6841 87.2791
95.5335 91.5302 86.824
95.2371 91.4563 87.0741
93.9126 90.9798 86.4198
94.6794 91.3255 87.2448
94.8049 91.1544 86.8551
94.497 91.0754 87.1317
94.9394 91.5242 87.2718
95.061 91.2921 86.8852
94.9302 91.6831 87.6514
93.9004 91.0311 86.7734
93.8103 91.1982 87.0933
94.1298 91.2177 87.2655
94.1023 91.0103 86.9022
94.3964 91.2647 87.307
94.2962 91.0224 87.018
94.3784 91.4276 87.5297
94.5534 91.6404 87.6228
93.4979 91.2497 87.342
93.7189 91.2773 87.4379
94.0111 91.3088 87.5231
99.9668 94.0068 76.6808
99.667 93.6699 76.8198
99.9507 93.5072 76.1593
100.474 93.6027 76.3528
100.216 93.8882 76.7277
100.383 93.4593 76.6018
99.6937 93.9503 77.1408
99.6494 93.4427 77.329
100.443 93.6722 77.0588
100.36 93.3868 77.3779
99.5815 93.5491 77.8131
99.3944 93.2695 77.798
100.329 93.167 77.7121
99.0968 93.3005 78.3454
98.9374 93.0347 78.2701
99.53 93.3324 78.3311
99.7373 93.1686 78.4769
100.082 93.1257 78.2324
98.8937 93.0758 78.8654
98.7798 92.7477 78.7146
99.0745 93.3322 79.0247
99.394 93.2996 79.0545
99.9198 93.1044 78.7231
99.6058 93.0846 79.0048
99.7223 92.8757 78.9791
98.5836 92.9026 79.2319
98.4165 92.5843 78.9105
98.7794 93.1696 79.5398
99.1151 93.3111 79.6783
99.363 93.0132 79.4401
99.6215 92.7846 79.4263
98.374 92.7765 79.4026
98.4349 93.0227 79.8879
98.2832 92.513 79.666
98.7398 93.2736 80.1896
99.1832 92.9621 80.1776
99.3489 92.6681 79.8709
98.2338 92.6551 80.0881
97.9698 92.2748 79.7944
98.4223 93.2193 80.4256
99.0324 93.1447 80.7735
98.9291 92.3371 80.3106
97.7939 92.2798 80.0559
98.0071 92.7624 80.4071
97.4496 92.1382 80.2481
98.4471 93.2961 80.8399
98.8714 92.4011 80.7212
98.897 93.0558 81.1822
98.6192 92.3085 80.9953
97.2134 91.7636 80.5463
98.4101 92.2975 81.4603
96.921 91.7964 81.0404
96.6583 91.516 81.1799
96.9223 91.3617 80.7183
98.358 92.5807 81.9367
98.2437 92.419 82.4475
96.6816 91.7668 81.5109
96.4068 91.407 81.6458
98.0462 92.2489 82.7701
96.0871 91.2883 82.1214
97.6014 92.5972 83.3203
97.8401 92.1873 83.2308
95.7869 91.1544 82.741
97.6081 92.3668 83.6663
97.5561 92.2847 84.2402
95.4262 91.0563 83.1676
97.2602 92.1042 84.5784
95.1338 90.9137 83.5866
97.104 91.8952 84.975
97.2769 91.7776 84.5917
97.1244 91.5387 84.9284
95.0149 90.8467 84.1142
96.8894 91.7212 85.4106
96.6731 91.4098 85.3563
94.8891 90.7143 84.5045
96.3782 91.7331 85.7482
96.3071 91.4368 85.6141
94.7778 90.8252 85.0816
96.0442 91.4596 86.0238
96.1109 91.254 85.6772
95.8474 91.2353 85.8671
95.9988 91.7555 86.1925
94.4793 90.8213 85.5475
95.7309 91.3494 86.2154
95.5384 91.195 86.1899
95.7476 91.5937 86.4213
94.3549 90.9722 86.0219
95.4296 91.3344 86.604
95.27 91.2099 86.4953
94.2717 90.8285 86.2457
94.1452 90.8812 86.6205
94.3871 90.9517 86.7091
94.4983 90.9351 86.3706
94.5641 90.976 86.8919
94.7355 91.0612 86.5674
95.0475 91.0953 86.5568
99.7576 93.2825 76.862
99.9926 93.0807 76.3812
100.575 93.1822 76.1609
100.511 93.0525 76.6181
99.4071 93.0646 77.3179
100.35 93.2841 76.9714
100.312 92.997 77.383
99.2787 93.003 77.8454
100.251 92.9041 77.9286
99.1085 92.739 78.1863
99.8628 92.802 78.3231
98.8701 92.4379 78.4747
99.8825 92.8885 78.6951
99.6774 92.6069 79.1554
98.7286 92.2709 78.6287
99.342 92.435 79.5107
98.2341 92.5147 79.1677
98.4165 92.2392 78.8538
99.1567 92.1999 79.8948
98.1862 92.2951 79.2486
98.0818 92.0303 79.474
98.8528 91.8361 80.1576
97.8136 91.7679 79.6848
97.6907 91.4134 80.0131
98.6858 91.6381 80.5837
98.5061 91.782 81.0995
97.3824 91.1359 80.4297
98.3792 91.796 81.4564
96.6278 91.1676 81.1969
97.152 90.9216 80.8677
98.2265 92.1206 81.887
98.0282 91.9778 82.2038
96.4143 91.0611 81.6679
97.8872 91.8593 82.6914
96.0595 90.9775 82.2522
97.6672 91.7731 83.121
95.7577 90.8266 82.6858
97.6789 92.058 83.665
97.5549 91.7398 83.5958
95.4761 90.784 83.2375
97.4842 91.8967 84.1363
97.3354 91.5034 84.2963
95.4931 90.6826 83.7101
96.9957 91.281 84.7381
95.2891 90.6062 84.1344
96.6922 91.1255 85.07
96.7791 91.1096 84.6476
96.5231 91.0131 84.8327
95.2648 90.6875 84.5387
95.1821 90.7622 84.9805
95.6347 90.8514 85.0709
95.6019 90.7739 84.7038
96.0042 90.9979 85.0941
95.9542 90.7091 84.7543
96.2952 91.0207 85.1797
96.281 90.9648 84.7283
96.4055 91.1693 85.4647
94.8691 90.8493 85.406
95.2837 90.7187 85.4282
95.6522 90.9449 85.4335
95.9712 91.1063 85.4375
94.6497 90.8095 85.8507
94.9959 90.7812 85.8433
95.3154 90.9871 85.7849
95.6564 91.113 85.7457
94.4955 91.0256 86.1581
94.7896 90.9644 86.1691
95.0705 90.9529 86.2246
95.3617 91.0577 86.1642
99.7298 92.9518 76.8566
100.139 92.8701 76.581
99.5149 92.7025 77.1814
99.9267 92.6174 76.9643
100.308 92.8149 77.0394
99.2686 92.7582 77.5627
99.7126 92.5258 77.4394
100.126 92.4473 77.15
100.279 92.691 77.3834
100.151 92.6393 77.8301
99.2904 92.4658 78.1033
99.8331 92.5404 78.3226
99.1421 92.1849 78.4042
99.7287 92.5679 78.7732
99.5286 92.2938 79.1536
98.8187 92.033 78.6126
99.2907 91.9974 79.5615
98.7064 91.8966 78.8193
99.0133 91.6746 79.8377
98.3408 92.0089 79.0769
98.4035 91.7591 79.1569
98.8735 91.1301 80.1586
98.274 91.642 79.4155
97.9695 90.9158 80.1078
98.2346 91.2428 79.4223
98.5518 90.8153 80.5254
98.6106 90.8121 79.7128
98.4978 91.3365 80.8454
97.6068 90.63 80.554
98.0392 90.6504 80.8604
98.2879 91.1619 81.1254
96.7158 90.8488 81.2775
97.0594 90.7177 81.1991
97.471 90.7703 81.1344
97.8092 90.7997 81.4432
97.6577 90.8383 81.918
97.8948 91.0913 81.5875
98.1522 91.569 81.6786
96.3667 90.7831 81.7984
97.6663 91.1949 82.2351
97.4684 90.918 82.3806
97.9563 91.4851 82.151
96.1369 90.6239 82.2712
97.4243 91.2295 82.7744
97.2796 90.9335 82.8471
97.5972 91.5711 82.657
95.8901 90.5996 82.7683
97.2653 91.1546 83.3359
96.9651 90.9666 83.3078
97.5393 91.4425 83.3026
95.677 90.5377 83.2072
96.9251 91.0725 83.7924
96.7608 90.838 83.6015
97.3452 91.3349 83.7902
95.7273 90.5429 83.6159
95.7916 90.6231 83.9977
96.2416 90.7436 84.1139
96.0672 90.4659 83.6841
96.7021 90.7865 84.0439
96.4712 90.5908 83.6572
96.8381 91.0395 84.1014
96.9786 91.1996 84.2865
95.5212 90.6338 84.343
95.8994 90.7379 84.3552
96.3354 90.7818 84.3936
96.6517 90.9518 84.4236
99.599 92.3667 77.8028
99.996 92.2393 77.6182
100.215 92.3802 77.5989
99.4115 92.0193 78.093
99.8417 92.0557 78.0507
99.8864 92.3105 78.071
99.1969 91.8898 78.5104
99.6074 91.8371 78.4297
99.7638 92.0042 78.5391
99.7415 92.2927 78.7183
99.0089 91.6971 78.6494
99.33 91.5903 78.6765
99.5596 91.6838 78.8422
99.5288 91.9713 79.072
98.7303 91.6587 78.9005
99.0706 91.4808 78.8894
99.3587 91.325 79.0189
99.4006 91.6246 79.3954
98.638 91.5893 79.1566
98.8233 91.2345 79.1771
99.0277 91.2154 79.6381
96.7023 90.6339 81.613
97.1021 90.645 81.6253
97.477 90.7045 81.621
96.4702 90.5731 82.0519
96.8473 90.5536 81.9723
97.2498 90.7049 81.9876
96.3571 90.5937 82.533
96.7112 90.6927 82.5256
97.1174 90.7856 82.4374
96.1646 90.6282 83.0397
96.5399 90.6723 82.8791
96.876 90.8261 82.8622
95.9961 90.4454 83.2709
96.3616 90.6219 83.2766
96.696 90.7422 83.2504
POLYGONS 2132  8528
3 0 1 2
3 0 3 4
3 2 3 0
3 4 5 6
3 3 5 4
3 6 7 8
3 5 7 6
3 7 9 8
3 10 1 0
3 11 1 10
3 4 12 0
3 12 10 0
3 6 13 4
3 13 12 4
3 8 14 6
3 14 13 6
3 15 8 9
3 14 8 15
3 16 11 10
3 17 11 16
3 12 18 10
3 18 16 10
3 13 19 12
3 19 18 12
3 14 20 13
3 20 19 13
3 21 14 15
3 20 14 21
3 16 22 17
3 18 22 16
3 23 22 18
3 19 23 18
3 24 23 19
3 20 24 19
3 25 24 20
3 21 25 20
3 26 27 28
3 26 29 30
3 28 29 26
3 29 31 30
3 32 33 34
3 27 32 34
3 27 26 32
3 26 35 32
3 30 36 26
3 36 35 26
3 37 30 31
3 36 30 37
3 38 33 32
3 39 33 38
3 35 40 32
3 40 38 32
3 36 41 35
3 41 40 35
3 42 36 37
3 41 36 42
3 43 44 45
3 43 46 47
3 45 46 43
3 39 47 46
3 39 38 47
3 38 48 47
3 40 49 38
3 49 48 38
3 50 41 51
3 50 49 41
3 49 40 41
3 42 51 41
3 2 44 43
3 2 1 44
3 1 52 44
3 3 2 43
3 47 3 43
3 5 3 47
3 48 5 47
3 7 5 48
3 49 7 48
3 49 9 7
3 49 50 9
3 50 53 9
3 1 11 52
3 52 11 54
3 9 53 15
3 53 55 15
3 11 17 54
3 54 17 56
3 15 55 21
3 55 57 21
3 58 17 22
3 58 59 17
3 59 56 17
3 22 23 60
3 58 22 60
3 23 24 61
3 60 23 61
3 62 61 24
3 62 24 63
3 63 24 25
3 57 25 21
3 63 25 57
3 58 64 59
3 60 64 58
3 65 64 60
3 61 65 60
3 66 65 61
3 62 66 61
3 67 68 69
3 67 70 71
3 69 70 67
3 71 72 73
3 70 72 71
3 72 74 73
3 75 76 77
3 68 75 77
3 68 67 75
3 67 78 75
3 71 79 67
3 79 78 67
3 73 80 71
3 80 79 71
3 81 73 74
3 80 73 81
3 82 76 75
3 83 76 82
3 78 84 75
3 84 82 75
3 79 85 78
3 85 84 78
3 80 86 79
3 86 85 79
3 87 80 81
3 86 80 87
3 28 83 82
3 28 27 83
3 27 88 83
3 29 28 82
3 84 29 82
3 31 29 84
3 31 84 89
3 89 84 85
3 86 90 85
3 90 89 85
3 91 86 87
3 90 86 91
3 34 92 93
3 33 92 34
3 88 27 34
3 93 88 34
3 89 94 37
3 31 89 37
3 90 95 89
3 95 94 89
3 96 90 91
3 95 90 96
3 97 98 99
3 97 99 92
3 97 92 39
3 39 92 33
3 94 100 42
3 37 94 42
3 101 95 102
3 101 100 95
3 100 94 95
3 96 102 95
3 45 103 104
3 44 103 45
3 98 97 46
3 98 46 104
3 104 46 45
3 39 46 97
3 51 105 50
3 51 42 100
3 51 100 105
3 105 100 106
3 107 100 101
3 106 100 107
3 44 52 103
3 103 52 108
3 105 109 53
3 50 105 53
3 110 106 111
3 110 109 106
3 109 105 106
3 107 111 106
3 52 54 108
3 108 54 112
3 109 113 55
3 53 109 55
3 114 109 110
3 113 109 114
3 54 56 112
3 112 56 115
3 113 116 57
3 55 113 57
3 117 113 114
3 116 113 117
3 56 59 115
3 115 59 118
3 63 119 120
3 62 63 120
3 116 63 57
3 116 121 63
3 121 119 63
3 117 121 116
3 59 122 118
3 64 122 59
3 65 123 64
3 64 123 122
3 66 124 65
3 65 124 123
3 120 66 62
3 124 66 120
3 69 125 126
3 68 125 69
3 70 69 127
3 69 126 127
3 72 70 128
3 70 127 128
3 128 74 72
3 129 74 128
3 77 130 131
3 76 130 77
3 125 68 77
3 131 125 77
3 74 129 81
3 129 132 81
3 76 83 130
3 130 83 133
3 134 135 87
3 134 87 132
3 132 87 81
3 134 136 135
3 83 88 133
3 133 88 137
3 135 138 91
3 87 135 91
3 139 135 136
3 138 135 139
3 93 140 141
3 92 140 93
3 137 88 93
3 141 137 93
3 138 142 96
3 91 138 96
3 143 138 139
3 142 138 143
3 99 144 145
3 98 144 99
3 140 92 99
3 145 140 99
3 102 146 101
3 102 147 146
3 96 147 102
3 96 148 147
3 96 142 148
3 143 148 142
3 104 149 150
3 103 149 104
3 144 98 104
3 150 144 104
3 146 151 107
3 101 146 107
3 152 146 147
3 151 146 152
3 103 108 149
3 149 108 153
3 111 154 110
3 111 155 154
3 107 155 111
3 107 156 155
3 107 151 156
3 152 156 151
3 108 112 153
3 153 112 157
3 154 158 114
3 110 154 114
3 159 154 155
3 158 154 159
3 112 115 157
3 157 115 160
3 158 161 162
3 158 162 114
3 114 162 117
3 159 161 158
3 115 118 160
3 160 118 163
3 119 164 120
3 165 164 119
3 165 119 166
3 166 119 121
3 162 121 117
3 166 121 162
3 118 167 163
3 122 167 118
3 123 168 122
3 122 168 167
3 124 169 123
3 123 169 168
3 164 124 120
3 164 170 124
3 170 169 124
3 165 170 164
3 126 125 171
3 172 126 171
3 172 173 126
3 173 127 126
3 128 127 174
3 127 173 174
3 174 129 128
3 175 129 174
3 131 130 176
3 131 176 177
3 125 131 177
3 125 177 178
3 125 178 171
3 172 171 178
3 179 180 132
3 179 132 175
3 175 132 129
3 179 181 180
3 176 182 183
3 176 130 182
3 130 133 182
3 177 176 183
3 132 180 134
3 180 136 134
3 180 181 136
3 181 184 136
3 133 137 182
3 182 137 185
3 136 184 139
3 184 186 139
3 141 187 188
3 140 187 141
3 185 137 141
3 188 185 141
3 139 186 143
3 186 189 143
3 145 190 191
3 144 190 145
3 187 140 145
3 191 187 145
3 148 192 147
3 148 193 192
3 148 143 193
3 143 189 193
3 150 194 195
3 149 194 150
3 190 144 150
3 195 190 150
3 192 196 152
3 147 192 152
3 197 192 193
3 196 192 197
3 198 199 200
3 198 200 194
3 198 194 153
3 153 194 149
3 156 201 155
3 156 202 201
3 152 202 156
3 152 203 202
3 152 196 203
3 197 203 196
3 204 199 198
3 205 199 204
3 153 157 204
3 198 153 204
3 201 206 159
3 155 201 159
3 207 201 202
3 206 201 207
3 208 205 204
3 209 205 208
3 157 160 208
3 204 157 208
3 161 210 162
3 161 211 210
3 159 211 161
3 159 212 211
3 159 206 212
3 207 212 206
3 213 209 208
3 214 209 213
3 160 163 213
3 208 160 213
3 166 215 216
3 165 166 216
3 210 166 162
3 210 217 166
3 217 215 166
3 211 217 210
3 213 218 214
3 163 218 213
3 163 167 218
3 167 219 218
3 168 220 167
3 167 220 219
3 169 221 168
3 168 221 220
3 170 222 169
3 169 222 221
3 216 170 165
3 222 170 216
3 223 224 225
3 223 226 227
3 225 226 223
3 226 228 227
3 173 224 223
3 173 172 224
3 172 229 224
3 174 173 223
3 227 174 223
3 227 175 174
3 227 228 175
3 228 230 175
3 178 231 232
3 177 231 178
3 229 172 178
3 232 229 178
3 175 230 233
3 179 175 233
3 233 181 179
3 234 181 233
3 183 235 236
3 182 235 183
3 231 177 183
3 236 231 183
3 181 234 184
3 234 237 184
3 238 239 240
3 238 240 235
3 238 235 185
3 185 235 182
3 184 237 186
3 237 241 186
3 242 243 244
3 239 242 244
3 238 242 239
3 238 187 242
3 238 188 187
3 185 188 238
3 186 241 189
3 241 245 189
3 246 247 248
3 243 246 248
3 242 246 243
3 242 190 246
3 242 191 190
3 187 191 242
3 189 245 193
3 245 249 193
3 250 251 252
3 247 250 252
3 246 250 247
3 246 194 250
3 246 195 194
3 190 195 246
3 193 249 197
3 249 253 197
3 200 251 250
3 200 199 251
3 199 254 251
3 194 200 250
3 203 255 256
3 202 203 256
3 253 203 197
3 255 203 253
3 199 205 254
3 254 205 257
3 202 256 207
3 256 258 207
3 205 209 257
3 257 209 259
3 212 260 261
3 211 212 261
3 258 212 207
3 260 212 258
3 209 214 259
3 259 214 262
3 215 263 264
3 216 215 264
3 217 265 215
3 215 265 263
3 261 217 211
3 265 217 261
3 214 266 262
3 218 266 214
3 219 267 218
3 218 267 266
3 220 268 219
3 219 268 267
3 221 269 220
3 220 269 268
3 222 270 221
3 221 270 269
3 264 222 216
3 270 222 264
3 271 272 273
3 271 225 224
3 271 273 225
3 273 274 225
3 226 225 275
3 225 274 275
3 275 228 226
3 276 228 275
3 277 272 271
3 278 272 277
3 224 229 277
3 271 224 277
3 228 276 230
3 276 279 230
3 232 278 277
3 232 231 278
3 231 280 278
3 229 232 277
3 230 279 281
3 233 230 281
3 281 234 233
3 282 234 281
3 283 284 285
3 283 236 235
3 283 285 236
3 285 286 236
3 280 231 236
3 286 280 236
3 234 282 237
3 282 287 237
3 288 289 290
3 284 288 290
3 283 288 284
3 283 239 288
3 283 240 239
3 235 240 283
3 237 287 241
3 287 291 241
3 244 289 288
3 244 243 289
3 243 292 289
3 239 244 288
3 241 291 245
3 291 293 245
3 248 294 295
3 247 294 248
3 292 243 248
3 295 292 248
3 245 293 249
3 293 296 249
3 252 297 298
3 251 297 252
3 294 247 252
3 298 294 252
3 249 296 253
3 296 299 253
3 251 254 297
3 297 254 300
3 255 301 302
3 256 255 302
3 299 255 253
3 301 255 299
3 254 257 300
3 300 257 303
3 256 302 258
3 302 304 258
3 257 259 303
3 303 259 305
3 260 306 307
3 261 260 307
3 304 260 258
3 306 260 304
3 259 262 305
3 305 262 308
3 263 309 264
3 310 309 263
3 310 263 311
3 311 263 265
3 307 265 261
3 311 265 307
3 262 312 308
3 266 312 262
3 267 313 266
3 266 313 312
3 268 314 267
3 267 314 313
3 269 315 268
3 268 315 314
3 270 316 269
3 269 316 315
3 309 270 264
3 309 317 270
3 317 316 270
3 310 317 309
3 318 319 320
3 318 321 322
3 320 321 318
3 322 323 324
3 321 323 322
3 323 325 324
3 273 319 318
3 273 272 319
3 272 326 319
3 274 273 318
3 322 274 318
3 275 274 322
3 324 275 322
3 324 276 275
3 324 325 276
3 325 327 276
3 272 278 326
3 326 278 328
3 276 327 279
3 327 329 279
3 330 331 332
3 330 332 328
3 330 328 280
3 280 328 278
3 279 329 333
3 281 279 333
3 333 282 281
3 334 282 333
3 285 335 336
3 284 335 285
3 331 330 286
3 331 286 336
3 336 286 285
3 280 286 330
3 282 334 287
3 334 337 287
3 290 338 339
3 289 338 290
3 335 284 290
3 339 335 290
3 287 337 291
3 337 340 291
3 289 292 338
3 338 292 341
3 291 340 293
3 340 342 293
3 295 343 344
3 294 343 295
3 341 292 295
3 344 341 295
3 293 342 296
3 342 345 296
3 298 346 347
3 297 346 298
3 343 294 298
3 347 343 298
3 296 345 299
3 345 348 299
3 297 300 346
3 346 300 349
3 301 350 351
3 302 301 351
3 348 301 299
3 350 301 348
3 300 303 349
3 349 303 352
3 302 351 304
3 351 353 304
3 303 305 352
3 352 305 354
3 306 355 356
3 307 306 356
3 353 306 304
3 355 306 353
3 305 308 354
3 354 308 357
3 311 358 359
3 310 311 359
3 356 311 307
3 358 311 356
3 308 360 357
3 312 360 308
3 313 361 312
3 312 361 360
3 314 362 313
3 313 362 361
3 315 363 314
3 314 363 362
3 316 364 315
3 315 364 363
3 317 365 316
3 316 365 364
3 359 317 310
3 365 317 359
3 366 367 368
3 366 369 370
3 368 369 366
3 369 371 370
3 320 367 366
3 320 319 367
3 319 372 367
3 321 320 366
3 370 321 366
3 370 371 373
3 370 373 321
3 321 373 323
3 373 325 323
3 374 325 373
3 375 376 377
3 375 377 372
3 375 372 326
3 326 372 319
3 325 374 327
3 374 378 327
3 379 376 375
3 380 376 379
3 326 328 379
3 375 326 379
3 327 378 329
3 378 381 329
3 382 383 384
3 380 382 384
3 379 382 380
3 379 331 382
3 379 332 331
3 328 332 379
3 329 381 385
3 333 329 385
3 385 334 333
3 386 334 385
3 387 388 389
3 383 387 389
3 382 387 383
3 382 335 387
3 382 336 335
3 331 336 382
3 334 386 337
3 386 390 337
3 339 388 387
3 339 338 388
3 338 391 388
3 335 339 387
3 337 390 340
3 390 392 340
3 393 394 395
3 393 395 391
3 393 391 341
3 341 391 338
3 340 392 342
3 392 396 342
3 397 398 399
3 394 397 399
3 393 397 394
3 393 343 397
3 393 344 343
3 341 344 393
3 400 401 402
3 400 396 401
3 400 345 396
3 345 342 396
3 347 398 397
3 347 346 398
3 346 403 398
3 343 347 397
3 404 400 402
3 405 404 402
3 345 404 348
3 400 404 345
3 346 349 403
3 403 349 406
3 350 404 405
3 350 405 351
3 351 405 407
3 348 404 350
3 349 352 406
3 406 352 408
3 351 407 353
3 407 409 353
3 352 354 408
3 408 354 410
3 355 411 412
3 356 355 412
3 409 355 353
3 411 355 409
3 413 357 414
3 413 410 357
3 410 354 357
3 413 414 415
3 358 416 417
3 359 358 417
3 412 358 356
3 416 358 412
3 357 360 414
3 414 418 415
3 414 360 418
3 360 361 418
3 362 419 361
3 361 419 418
3 363 420 362
3 362 420 419
3 364 421 363
3 363 421 420
3 365 422 364
3 364 422 421
3 417 365 359
3 422 365 417
3 423 424 425
3 423 368 367
3 423 425 368
3 425 426 368
3 369 368 427
3 368 426 427
3 427 371 369
3 428 371 427
3 429 424 423
3 430 424 429
3 367 372 429
3 423 367 429
3 371 428 431
3 373 371 431
3 431 374 373
3 432 374 431
3 433 434 435
3 430 433 435
3 429 433 430
3 429 376 433
3 429 377 376
3 372 377 429
3 374 432 378
3 432 436 378
3 437 434 433
3 438 434 437
3 376 380 437
3 433 376 437
3 439 440 381
3 439 381 436
3 436 381 378
3 439 441 440
3 442 443 444
3 438 442 444
3 437 442 438
3 437 383 442
3 437 384 383
3 380 384 437
3 381 440 385
3 440 386 385
3 440 441 386
3 441 445 386
3 389 443 442
3 389 388 443
3 388 446 443
3 383 389 442
3 386 445 390
3 445 447 390
3 388 391 446
3 446 391 448
3 390 447 392
3 447 449 392
3 395 450 451
3 394 450 395
3 448 391 395
3 451 448 395
3 392 449 396
3 449 452 396
3 399 453 454
3 398 453 399
3 450 394 399
3 454 450 399
3 401 455 456
3 402 401 456
3 452 401 396
3 455 401 452
3 398 403 453
3 453 403 457
3 402 456 405
3 456 458 405
3 403 406 457
3 457 406 459
3 405 458 407
3 458 460 407
3 406 408 459
3 459 408 461
3 462 463 464
3 462 460 463
3 462 409 460
3 409 407 460
3 465 410 466
3 465 461 410
3 461 408 410
3 465 466 467
3 468 469 470
3 464 469 468
3 462 464 468
3 462 468 412
3 462 412 411
3 409 462 411
3 410 413 466
3 466 413 415
3 466 415 467
3 467 415 471
3 472 473 474
3 472 475 476
3 473 472 476
3 470 476 475
3 468 470 475
3 468 475 417
3 468 417 416
3 412 468 416
3 415 477 471
3 418 477 415
3 419 478 418
3 418 478 477
3 420 479 419
3 419 479 478
3 474 421 472
3 474 479 421
3 479 420 421
3 422 472 421
3 475 472 422
3 417 475 422
3 480 481 482
3 480 483 484
3 482 483 480
3 483 485 484
3 425 486 487
3 424 486 425
3 481 480 426
3 481 426 487
3 487 426 425
3 427 426 480
3 484 427 480
3 484 428 427
3 484 485 428
3 485 488 428
3 489 490 491
3 489 491 486
3 489 486 430
3 430 486 424
3 428 488 492
3 431 428 492
3 492 432 431
3 493 432 492
3 494 495 496
3 490 494 496
3 489 494 490
3 489 434 494
3 489 435 434
3 430 435 489
3 432 493 436
3 493 497 436
3 498 495 494
3 499 495 498
3 434 438 498
3 494 434 498
3 436 497 500
3 439 436 500
3 500 441 439
3 501 441 500
3 444 499 498
3 444 443 499
3 443 502 499
3 438 444 498
3 441 501 445
3 501 503 445
3 504 505 506
3 504 506 502
3 504 502 446
3 446 502 443
3 445 503 447
3 503 507 447
3 508 505 504
3 509 505 508
3 446 448 508
3 504 446 508
3 447 507 449
3 507 510 449
3 511 512 513
3 509 511 513
3 508 511 509
3 508 450 511
3 508 451 450
3 448 451 508
3 449 510 452
3 510 514 452
3 454 512 511
3 454 453 512
3 453 515 512
3 450 454 511
3 455 516 517
3 456 455 517
3 514 455 452
3 516 455 514
3 453 457 515
3 515 457 518
3 456 517 458
3 517 519 458
3 457 459 518
3 518 459 520
3 521 522 523
3 521 519 522
3 521 460 519
3 460 458 519
3 459 461 520
3 520 461 524
3 525 526 527
3 525 528 529
3 526 525 529
3 528 530 531
3 529 528 531
3 523 531 530
3 521 523 530
3 521 530 464
3 521 464 463
3 460 521 463
3 461 532 524
3 465 532 461
3 532 465 467
3 533 532 467
3 534 525 527
3 535 534 527
3 528 525 536
3 536 525 534
3 469 536 470
3 469 530 536
3 530 528 536
3 464 530 469
3 537 471 538
3 537 533 471
3 533 467 471
3 538 539 540
3 537 538 540
3 539 541 542
3 540 539 542
3 535 542 541
3 534 535 541
3 534 541 474
3 534 474 473
3 476 534 473
3 536 534 476
3 470 536 476
3 471 477 538
3 478 538 477
3 539 538 478
3 479 539 478
3 541 539 479
3 474 541 479
3 543 544 545
3 543 546 547
3 545 546 543
3 547 548 549
3 546 548 547
3 548 550 549
3 551 544 543
3 552 544 551
3 482 481 551
3 482 551 547
3 547 551 543
3 483 482 547
3 549 483 547
3 549 485 483
3 549 550 485
3 550 553 485
3 554 555 556
3 552 554 556
3 551 554 552
3 551 486 554
3 551 487 486
3 481 487 551
3 485 553 488
3 553 557 488
3 558 559 560
3 555 558 560
3 554 558 555
3 554 490 558
3 554 491 490
3 486 491 554
3 488 557 561
3 492 488 561
3 561 493 492
3 562 493 561
3 496 559 558
3 496 495 559
3 495 563 559
3 490 496 558
3 493 562 497
3 562 564 497
3 565 566 567
3 565 567 563
3 565 563 499
3 499 563 495
3 568 500 497
3 568 497 569
3 569 497 564
3 500 568 501
3 570 566 565
3 571 566 570
3 499 502 570
3 565 499 570
3 568 569 572
3 572 501 568
3 572 573 501
3 573 503 501
3 506 571 570
3 506 505 571
3 505 574 571
3 502 506 570
3 503 573 507
3 573 575 507
3 576 577 578
3 576 578 574
3 576 574 509
3 509 574 505
3 507 575 510
3 575 579 510
3 513 577 576
3 513 512 577
3 512 580 577
3 509 513 576
3 581 582 583
3 581 579 582
3 581 514 579
3 514 510 579
3 512 515 580
3 580 515 584
3 516 581 583
3 516 583 517
3 517 583 585
3 514 581 516
3 515 518 584
3 584 518 586
3 517 585 519
3 585 587 519
3 588 520 589
3 588 586 520
3 586 518 520
3 588 589 590
3 591 592 593
3 591 523 522
3 591 522 592
3 592 522 594
3 587 522 519
3 594 522 587
3 589 524 595
3 520 524 589
3 596 590 589
3 595 596 589
3 526 597 598
3 527 526 598
3 529 599 526
3 526 599 597
3 593 531 591
3 593 599 531
3 599 529 531
3 523 591 531
3 524 532 595
3 533 600 601
3 532 533 601
3 532 601 596
3 532 596 595
3 600 602 603
3 601 600 603
3 602 604 605
3 603 602 605
3 604 598 605
3 604 535 598
3 535 527 598
3 533 537 600
3 540 600 537
3 602 600 540
3 542 602 540
3 604 602 542
3 535 604 542
3 606 607 608
3 606 609 610
3 608 609 606
3 610 545 544
3 610 609 545
3 609 611 545
3 546 545 612
3 545 611 612
3 548 546 613
3 546 612 613
3 613 550 548
3 614 550 613
3 615 607 606
3 616 607 615
3 610 617 606
3 617 615 606
3 544 552 617
3 610 544 617
3 550 614 553
3 614 618 553
3 619 616 615
3 620 616 619
3 556 555 619
3 556 619 617
3 617 619 615
3 552 556 617
3 553 618 557
3 618 621 557
3 622 623 624
3 620 622 624
3 619 622 620
3 619 559 622
3 619 560 559
3 555 560 619
3 625 561 557
3 625 557 626
3 626 557 621
3 561 625 562
3 627 623 622
3 628 623 627
3 559 563 627
3 622 559 627
3 625 626 629
3 629 562 625
3 629 630 562
3 630 564 562
3 567 628 627
3 567 566 628
3 566 631 628
3 563 567 627
3 564 630 569
3 630 632 569
3 566 571 631
3 631 571 633
3 634 572 569
3 634 569 635
3 635 569 632
3 572 634 573
3 571 574 633
3 633 574 636
3 637 634 635
3 638 637 635
3 573 637 575
3 634 637 573
3 578 639 640
3 577 639 578
3 636 574 578
3 640 636 578
3 641 642 643
3 638 642 641
3 638 641 637
3 637 641 644
3 575 644 579
3 637 644 575
3 577 580 639
3 639 580 645
3 646 641 643
3 647 646 643
3 582 646 583
3 582 644 646
3 644 641 646
3 579 644 582
3 580 584 645
3 645 584 648
3 649 646 647
3 650 649 647
3 583 649 585
3 646 649 583
3 584 586 648
3 648 586 651
3 652 653 654
3 650 653 652
3 650 652 649
3 649 652 655
3 585 655 587
3 649 655 585
3 586 656 651
3 588 656 586
3 590 657 658
3 590 658 588
3 588 658 656
3 658 657 659
3 660 661 662
3 654 661 660
3 652 654 660
3 652 660 593
3 652 593 592
3 594 652 592
3 655 652 594
3 587 655 594
3 657 596 663
3 590 596 657
3 664 659 657
3 664 657 665
3 665 657 663
3 665 666 667
3 664 665 667
3 666 598 597
3 666 597 667
3 667 597 668
3 662 599 660
3 662 668 599
3 668 597 599
3 593 660 599
3 596 601 663
3 603 663 601
3 665 663 603
3 605 665 603
3 666 665 605
3 598 666 605
3 669 670 671
3 669 672 673
3 671 672 669
3 673 674 675
3 672 674 673
3 674 676 675
3 677 678 679
3 670 677 679
3 670 669 677
3 669 680 677
3 673 681 669
3 681 680 669
3 675 682 673
3 682 681 673
3 683 675 676
3 682 675 683
3 608 678 677
3 608 607 678
3 607 684 678
3 609 608 677
3 680 609 677
3 611 609 680
3 681 611 680
3 612 611 681
3 682 612 681
3 682 683 685
3 682 685 612
3 612 685 613
3 685 614 613
3 686 614 685
3 607 616 684
3 684 616 687
3 614 686 618
3 686 688 618
3 689 690 691
3 689 691 687
3 689 687 620
3 620 687 616
3 618 688 621
3 688 692 621
3 624 690 689
3 624 623 690
3 623 693 690
3 620 624 689
3 621 692 626
3 692 694 626
3 623 628 693
3 693 628 695
3 626 694 696
3 629 626 696
3 696 630 629
3 697 630 696
3 628 631 695
3 695 631 698
3 630 697 632
3 697 699 632
3 631 633 698
3 698 633 700
3 632 699 635
3 699 701 635
3 633 636 700
3 700 636 702
3 635 701 638
3 701 703 638
3 640 639 704
3 640 704 705
3 640 705 636
3 636 705 702
3 642 706 707
3 643 642 707
3 703 642 638
3 706 642 703
3 704 645 708
3 639 645 704
3 709 705 704
3 708 709 704
3 643 707 647
3 707 710 647
3 708 648 711
3 645 648 708
3 712 709 708
3 711 712 708
3 713 714 715
3 713 710 714
3 713 650 710
3 650 647 710
3 711 651 716
3 648 651 711
3 717 712 711
3 716 717 711
3 718 719 720
3 718 721 722
3 719 718 722
3 715 722 721
3 713 715 721
3 713 721 654
3 713 654 653
3 650 713 653
3 651 656 716
3 716 723 717
3 716 656 723
3 656 658 723
3 659 724 725
3 659 725 658
3 658 725 723
3 724 726 727
3 725 724 727
3 720 727 726
3 720 726 718
3 718 726 728
3 661 728 662
3 661 721 728
3 721 718 728
3 654 721 661
3 659 664 724
3 667 724 664
3 726 724 667
3 668 726 667
3 728 726 668
3 662 728 668
3 729 730 731
3 729 732 733
3 731 732 729
3 732 734 733
3 735 730 729
3 736 730 735
3 733 737 729
3 737 735 729
3 738 733 734
3 737 733 738
3 735 739 736
3 737 739 735
3 740 739 737
3 738 740 737
3 741 742 743
3 741 744 745
3 743 744 741
3 745 746 747
3 744 746 745
3 746 748 747
3 749 742 741
3 750 742 749
3 671 670 749
3 671 749 745
3 745 749 741
3 672 671 745
3 747 672 745
3 747 748 751
3 747 751 672
3 672 751 674
3 751 676 674
3 752 676 751
3 679 750 749
3 679 678 750
3 678 753 750
3 670 679 749
3 676 752 683
3 752 754 683
3 755 756 757
3 755 757 753
3 755 753 684
3 684 753 678
3 683 754 758
3 685 683 758
3 758 686 685
3 759 686 758
3 760 756 755
3 761 756 760
3 684 687 760
3 755 684 760
3 686 759 688
3 759 762 688
3 691 761 760
3 691 690 761
3 690 763 761
3 687 691 760
3 688 762 692
3 762 764 692
3 690 693 763
3 763 693 765
3 692 764 694
3 764 766 694
3 693 695 765
3 765 695 767
3 768 696 694
3 768 694 769
3 769 694 766
3 696 768 697
3 695 698 767
3 767 698 770
3 771 768 769
3 772 771 769
3 697 771 699
3 768 771 697
3 698 700 770
3 770 700 773
3 774 771 772
3 775 774 772
3 699 774 701
3 771 774 699
3 700 702 773
3 773 702 776
3 777 774 775
3 778 777 775
3 701 777 703
3 774 777 701
3 702 705 776
3 776 705 779
3 780 781 782
3 778 781 780
3 777 778 780
3 777 780 707
3 777 707 706
3 703 777 706
3 705 709 779
3 779 709 783
3 784 785 786
3 784 787 788
3 785 784 788
3 782 788 787
3 782 787 780
3 780 787 789
3 707 789 710
3 780 789 707
3 790 712 791
3 790 783 712
3 783 709 712
3 791 792 793
3 790 791 793
3 792 794 795
3 793 792 795
3 786 795 794
3 786 794 784
3 784 794 796
3 787 784 797
3 797 784 796
3 714 797 715
3 714 789 797
3 789 787 797
3 710 789 714
3 791 717 798
3 712 717 791
3 792 791 799
3 799 791 798
3 794 792 800
3 800 792 799
3 719 800 720
3 719 796 800
3 796 794 800
3 722 796 719
3 797 796 722
3 715 797 722
3 717 723 798
3 725 798 723
3 799 798 725
3 727 799 725
3 800 799 727
3 720 800 727
3 801 802 803
3 801 804 805
3 803 804 801
3 804 806 805
3 807 802 801
3 808 802 807
3 731 730 807
3 731 807 805
3 805 807 801
3 805 806 809
3 805 809 731
3 731 809 732
3 809 734 732
3 810 734 809
3 811 808 807
3 812 808 811
3 730 736 811
3 807 730 811
3 734 810 738
3 810 813 738
3 814 812 811
3 815 812 814
3 736 739 816
3 736 816 811
3 811 816 814
3 739 740 817
3 816 739 817
3 740 818 817
3 740 738 818
3 738 813 818
3 819 815 814
3 820 815 819
3 816 821 814
3 821 819 814
3 817 822 816
3 822 821 816
3 823 817 818
3 823 824 817
3 824 822 817
3 823 825 824
3 826 820 819
3 827 820 826
3 821 828 819
3 828 826 819
3 822 829 821
3 829 828 821
3 824 830 822
3 830 829 822
3 831 824 825
3 830 824 831
3 826 832 827
3 832 833 834
3 832 826 833
3 826 828 833
3 829 835 828
3 835 833 828
3 830 836 829
3 836 835 829
3 837 830 831
3 836 830 837
3 838 834 833
3 839 834 838
3 835 840 833
3 840 838 833
3 836 841 835
3 841 840 835
3 842 836 837
3 841 836 842
3 838 843 839
3 843 844 845
3 843 838 844
3 838 840 844
3 841 846 840
3 846 844 840
3 847 841 842
3 847 848 841
3 848 846 841
3 847 849 848
3 743 845 844
3 743 742 845
3 742 850 845
3 744 743 844
3 846 744 844
3 746 744 846
3 848 746 846
3 848 748 746
3 848 849 748
3 849 851 748
3 852 853 854
3 852 854 850
3 852 850 750
3 750 850 742
3 748 851 855
3 751 748 855
3 855 752 751
3 856 752 855
3 857 853 852
3 858 853 857
3 750 753 857
3 852 750 857
3 752 856 754
3 856 859 754
3 757 858 857
3 757 756 858
3 756 860 858
3 753 757 857
3 861 758 754
3 861 754 862
3 862 754 859
3 758 861 759
3 756 761 860
3 860 761 863
3 861 862 864
3 864 759 861
3 864 865 759
3 865 762 759
3 761 763 863
3 863 763 866
3 762 865 764
3 865 867 764
3 763 765 866
3 866 765 868
3 869 870 871
3 869 867 870
3 869 766 867
3 766 764 867
3 765 767 868
3 868 767 872
3 873 869 871
3 874 873 871
3 766 873 769
3 869 873 766
3 767 770 872
3 872 770 875
3 876 873 874
3 877 876 874
3 769 876 772
3 873 876 769
3 770 773 875
3 875 773 878
3 879 880 881
3 877 880 879
3 877 879 876
3 876 879 882
3 772 882 775
3 876 882 772
3 773 776 878
3 878 776 883
3 884 879 881
3 885 884 881
3 882 879 886
3 886 879 884
3 775 886 778
3 882 886 775
3 776 779 883
3 883 779 887
3 888 884 885
3 889 888 885
3 781 888 782
3 781 886 888
3 886 884 888
3 778 886 781
3 890 783 891
3 890 887 783
3 887 779 783
3 891 892 893
3 890 891 893
3 892 894 895
3 893 892 895
3 894 786 785
3 894 785 895
3 895 785 896
3 889 788 888
3 889 896 788
3 896 785 788
3 782 888 788
3 783 790 891
3 793 891 790
3 892 891 793
3 795 892 793
3 894 892 795
3 786 894 795
3 803 897 898
3 802 897 803
3 804 803 899
3 803 898 899
3 899 806 804
3 900 806 899
3 802 808 897
3 897 808 901
3 806 900 902
3 809 806 902
3 902 810 809
3 903 810 902
3 808 812 901
3 901 812 904
3 810 903 813
3 903 905 813
3 812 815 904
3 904 815 906
3 813 905 818
3 905 907 818
3 815 820 906
3 906 820 908
3 818 907 909
3 823 818 909
3 909 825 823
3 910 825 909
3 820 827 908
3 908 827 911
3 825 910 831
3 910 912 831
3 913 827 832
3 913 914 827
3 914 911 827
3 832 834 913
3 831 912 837
3 912 915 837
3 913 916 914
3 916 913 834
3 916 834 917
3 917 834 839
3 837 915 842
3 915 918 842
3 839 919 917
3 843 919 839
3 919 843 845
3 920 919 845
3 842 918 921
3 847 842 921
3 921 849 847
3 922 849 921
3 845 850 920
3 920 850 923
3 849 922 851
3 922 924 851
3 854 925 926
3 853 925 854
3 923 850 854
3 926 923 854
3 851 924 927
3 855 851 927
3 927 856 855
3 928 856 927
3 853 858 925
3 925 858 929
3 856 928 859
3 928 930 859
3 858 860 929
3 929 860 931
3 859 930 862
3 930 932 862
3 860 863 931
3 931 863 933
3 934 864 862
3 934 862 935
3 935 862 932
3 864 934 865
3 863 866 933
3 933 866 936
3 937 934 935
3 938 937 935
3 865 937 867
3 934 937 865
3 866 868 936
3 936 868 939
3 870 937 938
3 870 938 871
3 871 938 940
3 867 937 870
3 868 872 939
3 939 872 941
3 942 943 944
3 942 940 943
3 942 874 940
3 874 871 940
3 945 875 946
3 945 941 875
3 941 872 875
3 946 947 948
3 945 946 948
3 947 949 950
3 948 947 950
3 949 951 952
3 950 949 952
3 944 952 951
3 944 951 942
3 942 951 953
3 874 953 877
3 942 953 874
3 946 878 954
3 875 878 946
3 947 946 955
3 955 946 954
3 949 947 956
3 956 947 955
3 951 949 957
3 957 949 956
3 880 957 881
3 880 953 957
3 953 951 957
3 877 953 880
3 954 883 958
3 878 883 954
3 955 954 959
3 959 954 958
3 956 955 960
3 960 955 959
3 957 956 961
3 961 956 960
3 881 961 885
3 957 961 881
3 958 887 962
3 883 887 958
3 959 958 963
3 963 958 962
3 960 959 964
3 964 959 963
3 961 960 965
3 965 960 964
3 885 965 889
3 961 965 885
3 887 890 962
3 893 962 890
3 963 962 893
3 895 963 893
3 964 963 895
3 896 964 895
3 965 964 896
3 889 965 896
3 898 897 966
3 898 967 899
3 966 967 898
3 899 967 900
3 966 901 968
3 897 901 966
3 967 966 969
3 969 966 968
3 900 970 902
3 900 967 970
3 967 969 970
3 902 970 903
3 968 971 972
3 968 901 971
3 901 904 971
3 969 968 972
3 973 969 972
3 970 969 973
3 974 970 973
3 974 903 970
3 974 975 903
3 975 905 903
3 904 906 971
3 971 906 976
3 905 975 907
3 975 977 907
3 906 908 976
3 976 908 978
3 907 977 979
3 909 907 979
3 979 910 909
3 980 910 979
3 908 911 978
3 978 911 981
3 910 980 912
3 980 982 912
3 911 914 981
3 981 914 983
3 912 982 915
3 982 984 915
3 914 985 983
3 916 985 914
3 985 916 917
3 986 985 917
3 915 984 918
3 984 987 918
3 917 988 986
3 919 988 917
3 920 989 990
3 920 990 919
3 919 990 988
3 989 991 992
3 990 989 992
3 921 991 993
3 921 987 991
3 921 918 987
3 992 991 987
3 921 993 922
3 989 923 994
3 920 923 989
3 991 989 995
3 995 989 994
3 993 991 996
3 996 991 995
3 922 996 924
3 993 996 922
3 926 997 998
3 925 997 926
3 994 923 926
3 994 926 999
3 999 926 998
3 995 994 999
3 1000 995 999
3 1000 1001 1002
3 1000 1002 995
3 995 1002 996
3 924 1003 927
3 924 996 1003
3 996 1002 1003
3 927 1003 928
3 925 929 997
3 997 929 1004
3 1005 1002 1001
3 1006 1005 1001
3 1003 1002 1007
3 1007 1002 1005
3 928 1007 930
3 1003 1007 928
3 929 931 1004
3 1004 931 1008
3 1009 1005 1006
3 1010 1009 1006
3 1007 1005 1011
3 1011 1005 1009
3 930 1011 932
3 1007 1011 930
3 931 933 1008
3 1008 933 1012
3 1013 1009 1010
3 1014 1013 1010
3 1011 1009 1015
3 1015 1009 1013
3 932 1015 935
3 1011 1015 932
3 933 936 1012
3 1012 936 1016
3 1017 1013 1014
3 1018 1017 1014
3 1015 1013 1019
3 1019 1013 1017
3 935 1019 938
3 1015 1019 935
3 1020 939 1021
3 1020 1016 939
3 1016 936 939
3 1021 1022 1023
3 1020 1021 1023
3 1022 1024 1025
3 1023 1022 1025
3 1018 1025 1024
3 1018 1024 1017
3 1017 1024 1026
3 1019 1017 1027
3 1027 1017 1026
3 938 1027 940
3 1019 1027 938
3 1021 941 1028
3 939 941 1021
3 1022 1021 1029
3 1029 1021 1028
3 1024 1022 1030
3 1030 1022 1029
3 1026 1024 1031
3 1031 1024 1030
3 943 1031 944
3 943 1027 1031
3 1027 1026 1031
3 940 1027 943
3 941 945 1028
3 948 1028 945
3 1029 1028 948
3 950 1029 948
3 1030 1029 950
3 952 1030 950
3 1031 1030 952
3 944 1031 952
3 972 971 1032
3 972 1033 973
3 1032 1033 972
3 973 1034 974
3 1033 1034 973
3 974 1034 975
3 1032 976 1035
3 971 976 1032
3 1033 1032 1036
3 1036 1032 1035
3 1034 1033 1037
3 1037 1033 1036
3 975 1037 977
3 1034 1037 975
3 1035 978 1038
3 976 978 1035
3 1036 1035 1039
3 1039 1035 1038
3 1037 1036 1040
3 1040 1036 1039
3 977 1041 979
3 977 1037 1041
3 1037 1040 1041
3 979 1041 980
3 1038 981 1042
3 978 981 1038
3 1039 1038 1043
3 1043 1038 1042
3 1040 1039 1044
3 1044 1039 1043
3 1041 1040 1045
3 1045 1040 1044
3 980 1045 982
3 1041 1045 980
3 1042 983 1046
3 981 983 1042
3 1043 1042 1047
3 1047 1042 1046
3 1044 1043 1048
3 1048 1043 1047
3 1045 1044 1049
3 1049 1044 1048
3 982 1049 984
3 1045 1049 982
3 983 985 1046
3 986 1046 985
3 986 1050 1046
3 1050 1047 1046
3 1048 1047 1051
3 1051 1047 1050
3 1049 1048 1052
3 1052 1048 1051
3 984 1052 987
3 1049 1052 984
3 986 988 1050
3 990 1050 988
3 1051 1050 990
3 992 1051 990
3 1052 1051 992
3 987 1052 992
3 998 997 1053
3 998 1054 999
3 1053 1054 998
3 999 1055 1000
3 1054 1055 999
3 1000 1055 1001
3 1053 1004 1056
3 997 1004 1053
3 1054 1053 1057
3 1057 1053 1056
3 1055 1054 1058
3 1058 1054 1057
3 1001 1058 1006
3 1055 1058 1001
3 1056 1008 1059
3 1004 1008 1056
3 1057 1056 1060
3 1060 1056 1059
3 1058 1057 1061
3 1061 1057 1060
3 1006 1061 1010
3 1058 1061 1006
3 1059 1012 1062
3 1008 1012 1059
3 1060 1059 1063
3 1063 1059 1062
3 1061 1060 1064
3 1064 1060 1063
3 1010 1064 1014
3 1061 1064 1010
3 1062 1016 1065
3 1012 1016 1062
3 1063 1062 1066
3 1066 1062 1065
3 1064 1063 1067
3 1067 1063 1066
3 1014 1067 1018
3 1064 1067 1014
3 1016 1020 1065
3 1023 1065 1020
3 1066 1065 1023
3 1025 1066 1023
3 1067 1066 1025
3 1018 1067 1025
