# vtk DataFile Version 3.0
this file was written using fslvtkio
ASCII
DATASET POLYDATA
POINTS 664 float
74.1841 102.19 83.697
72.9597 102.218 83.6604
73.4041 101.306 84.0132
75.0194 101.341 84.0149
75.4923 102.049 83.8457
75.8119 101.644 84.0187
72.8145 103.147 82.8154
71.2076 103.283 83.2561
72.0829 102.454 83.3001
74.2374 103.207 83.075
75.3817 102.659 83.4611
76.1912 101.965 84.0017
76.0936 102.435 83.674
76.343 102.689 83.825
76.5343 102.958 83.4109
76.8648 103.043 83.2673
72.432 104.331 83.677
70.8365 104.429 84.3095
73.8586 103.992 83.4463
75.1913 103.7 83.6756
76.1139 103.232 83.5945
76.8419 103.495 83.3167
77.2179 103.601 83.0302
72.265 105.083 84.5402
71.618 104.904 85.2847
73.3865 105.023 83.9893
74.9754 104.805 83.7801
75.9507 104.889 83.2579
77.0186 104.667 82.8752
77.6042 104.438 82.7354
72.2806 105.77 85.008
73.969 105.874 84.6127
75.1299 106.011 84.0206
76.723 105.997 83.3161
77.3857 105.465 82.8967
72.5153 101.748 83.8365
71.2566 101.638 83.7564
72.5713 101.285 83.9724
73.1107 100.542 84.4158
74.479 100.371 84.4296
76.1028 101.315 84.5496
76.2176 101.647 83.8728
76.761 101.964 84.1091
70.3079 103.131 84.5337
76.7768 102.316 83.3822
77.6894 103.006 83.1026
70.5998 104.335 85.7222
78.0825 103.929 83.0939
70.908 105.194 86.354
77.9665 105.132 82.9014
71.5176 105.615 86.2152
73.0128 105.413 85.7132
74.4719 105.543 84.9381
75.6756 105.831 84.2825
77.1289 105.6 83.5958
72.7459 98.6838 84.95
71.3083 98.6276 85.1759
72.2581 98.2032 85.0147
73.0126 98.0333 85.0467
73.7483 98.6316 84.5409
74.1579 98.163 84.5208
72.1052 100.175 84.4663
70.6748 99.6983 85.3009
73.5798 99.7171 84.771
74.5432 98.6361 84.5187
74.5039 99.2384 84.7422
75.1889 99.1277 84.5068
70.2648 100.68 84.8934
68.785 101.217 85.737
69.8316 100.128 86.0849
75.5055 100.262 84.5887
77.6904 101.17 84.5698
77.4528 102.227 83.8192
78.4479 102.778 84.4076
69.6141 102.118 85.0196
68.6938 102.693 86.0516
78.8019 103.521 83.5814
69.5048 103.51 85.8066
69.615 103.228 86.8098
78.3247 104.328 83.6899
77.9525 104.554 83.5036
78.2648 104.526 83.6968
70.2879 103.932 86.5868
70.8023 104.595 87.0929
77.9464 105.658 83.3178
78.1128 105.019 83.8
71.0109 105.749 87.3986
72.326 105.33 86.7694
73.5331 105.087 86.11
74.937 105.131 85.0165
76.2295 105.271 84.5511
77.8732 105.472 84.1444
71.752 97.6384 85.5863
70.6528 97.0169 86.6852
71.347 96.8268 86.6729
72.6621 96.7371 86.2469
73.9969 97.2692 84.9232
74.4585 96.4557 85.9873
75.4779 97.6188 85.5559
76.0153 96.6902 86.3377
70.0468 97.5078 85.8511
69.395 96.8683 86.7001
70.0739 96.972 86.733
75.2108 98.6139 84.7173
77.0047 97.3302 85.8977
76.8596 98.3042 85.0627
77.6858 97.9688 85.4327
77.6568 98.6921 85.4475
78.064 98.4255 85.5997
68.7847 97.9835 86.4255
67.5585 98.046 87.1073
68.3916 97.0729 86.8341
69.7511 98.9173 85.8539
76.2685 99.515 84.6923
77.3683 99.403 85.0999
78.2946 99.743 85.5779
67.9936 99.4546 86.1456
67.4395 99.4612 87.2771
79.4612 101.876 85.3471
80.0571 103.108 84.2473
80.6011 102.838 84.8887
81.1251 103.18 83.8987
80.9941 102.991 84.4905
67.8151 100.76 86.8019
68.8191 101.81 87.1143
79.0432 104.321 83.7792
80.597 104.235 83.6982
81.0855 103.811 84.3207
69.7049 102.814 87.6945
79.2613 104.972 83.8693
80.6705 104.747 84.2887
69.9385 104.025 87.5189
70.6378 104.126 88.0823
79.1384 105.419 84.1061
80.5881 105.819 84.5979
71.0934 104.825 87.9277
71.7691 105.285 87.6299
72.7453 104.653 87.3643
74.1854 104.566 85.8932
75.8014 104.427 85.0156
77.4216 104.927 84.7847
78.9626 105.542 84.7583
70.4589 94.858 86.897
69.3719 94.5338 86.5717
70.137 94.3499 87.1455
71.2569 94.7314 87.2924
71.6679 95.5832 86.6909
72.4484 94.9444 87.21
73.3963 95.6655 86.4687
74.0794 94.9908 87.0226
74.9464 95.7609 86.382
75.9114 95.2693 86.8931
70.166 95.9896 86.7079
68.768 95.41 86.6579
76.6424 96.2945 87.5272
68.7179 96.2217 86.7532
67.5111 96.494 87.3827
67.9005 95.5835 87.0797
77.0919 96.8916 87.1091
77.6505 97.8533 86.6137
78.7001 98.3397 86.1357
67.2499 98.1168 88.0266
78.6121 99.7282 86.5406
67.9303 99.628 88.5165
79.3138 100.635 86.0046
80.4382 101.788 85.2254
80.8249 103.003 85.291
68.2412 100.853 87.8593
68.7717 101.876 88.4217
81.5473 104.221 85.3867
69.9862 102.491 88.5566
82.1615 105.516 85.5165
70.4853 103.358 88.1149
70.7981 103.561 88.5708
73.1064 104.508 87.7562
73.0781 104.234 88.0217
72.4743 104.438 88.2488
73.4475 104.524 87.8475
80.3803 105.728 85.8562
71.0401 104.183 88.5279
71.8786 104.32 88.1738
73.564 104.592 87.0991
75.06 104.711 86.5646
76.85 104.869 85.9688
78.4669 105.303 85.8232
71.0846 92.855 87.9026
70.4086 91.6914 87.6325
71.209 91.9999 87.685
71.8764 92.1879 87.7813
72.0442 93.453 88.2008
72.9269 92.578 87.9458
73.4212 93.6057 87.9814
73.9671 93.0737 88.2188
74.5886 93.895 87.9301
75.0945 93.0659 87.9849
69.851 92.3101 87.2458
68.6258 91.9338 87.7388
69.564 91.5334 87.6065
70.5881 93.6946 87.3925
71.6837 94.0923 87.9178
72.8376 94.4118 87.7973
74.5541 94.3412 87.4329
75.9867 94.1983 87.8311
69.0977 93.1999 87.0405
67.1512 93.1314 87.6125
77.1289 95.4619 87.5799
68.1588 94.4513 86.9574
66.786 94.7091 87.7251
77.7929 95.8751 87.8772
67.3251 97.0861 88.7525
78.168 96.126 87.6417
78.4457 97.1875 87.4504
79.3612 97.7408 86.7129
78.837 99.3974 86.9044
79.7915 98.3836 87.3917
68.3927 98.5007 88.6131
79.0506 99.9868 86.8015
79.7801 99.4616 87.3845
68.6667 99.4537 89.4219
79.9657 101.266 86.3773
81.189 102.993 86.447
69.3439 100.326 88.7017
69.8356 101.282 89.1943
82.0042 104.706 86.8542
71.0124 101.774 89.1345
71.2056 102.567 88.5545
72.2617 102.56 88.5311
72.0932 101.467 88.5719
73.0153 102.42 88.1945
72.8041 101.602 88.3844
73.5961 103.604 88.019
73.8261 101.474 88.231
75.1639 104.144 87.8241
74.9864 102.585 88.325
76.4933 104.411 88.2092
76.3831 103.041 87.5025
77.2789 103.625 87.8261
80.9104 105.201 86.8921
71.4754 103.675 88.7035
72.5727 103.623 88.4922
74.1162 104.723 87.662
75.6477 104.988 87.7007
77.6802 104.445 88.2348
77.7538 104.991 87.0715
79.4057 105.319 86.6564
79.0382 104.853 88.0265
71.1822 91.1581 87.7652
70.2959 90.0509 87.5178
71.1175 90.2661 88.0368
72.1164 90.5815 88.1262
72.5402 91.4832 88.0419
73.3106 91.0908 88.5552
73.9397 91.9858 87.9685
75.2228 91.6819 88.3322
74.7439 92.4118 87.9104
75.5474 93.1225 88.3611
69.6918 90.7219 87.5688
68.5219 90.6131 87.7813
69.2334 89.6725 87.3582
75.9119 93.7356 88.1178
67.4365 91.702 88.645
76.2845 94.6719 88.1674
77.4744 94.8728 87.8249
77.5145 94.8177 88.1802
67.1989 92.8004 88.8093
67.8099 93.712 89.3859
68.1503 92.7233 89.4485
78.4216 95.6399 88.0353
78.0687 95.2451 88.3683
66.9172 93.8947 88.8158
67.4756 94.7557 89.8863
79.132 95.5811 88.2087
78.879 95.6688 89.2177
67.3065 95.7094 89.2945
67.919 96.0107 90.4053
79.7401 96.4782 88.4875
80.0016 97.4857 88.0045
80.4146 97.9941 88.3224
68.1685 96.9213 90.0073
68.4148 98.3937 89.6533
80.5377 99.0139 88.5703
69.4832 99.1207 89.7188
80.6013 101.472 87.4397
80.2347 100.373 88.5572
69.5178 100.098 89.6944
70.1717 100.407 89.7214
74.9427 100.988 88.3734
75.5563 100.123 88.5458
74.7562 100.024 88.6094
76.1938 101.608 87.3052
76.3035 100.267 88.1287
77.2904 102.714 87.5766
77.4115 100.991 88.1467
79.0663 103.041 87.847
78.8863 101.217 88.9524
80.5031 103.379 87.3272
70.6463 101.079 89.6633
71.6618 100.699 89.27
73.152 100.569 88.7728
78.392 103.84 87.7619
80.0902 104.011 87.5765
72.403 88.4491 88.6509
71.5475 87.4027 88.1562
72.2262 87.3077 89.0752
73.9113 88.2024 89.0515
73.862 89.0332 88.2535
74.2734 89.1097 89.3607
74.5677 89.773 88.8104
75.1413 89.4886 89.3101
71.081 88.0665 87.9399
70.1011 88.0473 88.3337
70.6454 87.1165 87.8109
71.5704 89.7758 88.7007
72.8114 90.0709 88.7893
74.0239 90.4073 88.6651
75.2143 90.1474 88.8494
74.8479 90.5814 88.6979
75.3885 91.2257 89.2164
70.4775 89.248 87.9435
68.7703 89.2513 88.3874
76.3566 92.6478 88.622
76.3939 93.8395 88.6314
76.2685 93.5336 89.0443
68.5071 91.0593 89.7185
76.198 94.34 88.1209
76.9302 94.5001 88.6113
68.0394 92.1631 89.807
68.3267 93.3115 90.0937
68.3274 92.518 90.5402
77.6944 95.2981 88.9774
68.3248 94.4316 89.855
77.5853 95.5951 89.5298
68.2776 95.5337 90.4164
77.3111 96.248 89.7256
68.5871 96.2112 90.7905
79.2771 97.1528 89.7927
77.6072 96.9277 89.9508
80.2508 97.3175 89.0067
68.8635 96.5499 90.7035
70.0082 98.5667 90.3574
69.142 97.6097 90.7862
70.5664 97.8681 90.569
77.6615 98.3119 89.9455
77.1317 97.5913 89.8891
76.2441 98.0769 89.9836
79.3668 98.7307 90.0067
80.5063 98.2665 89.4775
70.498 99.4031 89.618
71.3107 97.756 90.3594
71.5463 98.6852 89.9074
71.8134 98.3221 90.1453
75.865 98.8139 89.45
75.1738 98.3357 89.9543
74.279 98.2813 89.7272
77.2843 99.4545 88.7284
78.4538 99.5544 89.5754
79.7129 99.5455 89.2935
70.9852 99.8786 89.6356
72.3099 98.5601 89.9693
72.3072 99.4369 89.3991
73.8496 99.2867 89.3455
73.0655 98.4452 89.6654
71.0643 87.0097 88.508
70.1303 87.0847 88.6718
71.0478 86.631 89.0991
72.1185 85.8884 89.5068
73.3754 86.9683 89.6939
74.9964 88.2222 89.8547
75.8004 89.0005 89.4264
69.9278 88.457 89.3708
75.5132 89.7548 89.0879
76.7655 90.7562 89.5736
68.9391 89.4264 90.1194
76.6404 92.4605 89.2409
77.3052 93.9142 89.1411
69.1823 91.7163 91.1904
77.3482 94.9838 89.5575
68.8285 93.8036 90.7549
69.125 92.9762 91.3231
77.074 95.6831 89.8613
68.91 95.03 90.4361
76.6718 95.6032 89.9599
76.2791 95.5494 89.9292
75.8752 95.5163 90.4074
68.8288 95.8752 90.8621
76.6417 95.7124 89.9891
75.6606 95.8639 90.3339
69.0266 96.2479 90.9446
69.063 96.2032 90.9284
69.2877 96.3177 91.0079
76.1742 97.2478 89.5396
75.0013 96.4462 90.1213
69.4526 96.6438 90.7974
70.953 97.4996 90.496
70.4021 97.085 90.3179
71.4702 97.0885 89.9162
74.6282 97.6466 90.1039
74.2391 96.6295 90.6497
73.7486 97.4006 90.8748
72.4261 98.1788 90.1646
72.1251 97.6493 90.2998
73.4242 98.066 90.7124
72.9907 97.3982 90.5213
73.3874 85.7959 90.1237
72.2195 84.8688 90.6014
73.9027 85.0245 91.0055
75.0069 85.8283 90.3059
74.6022 86.8333 89.7335
75.6429 86.9326 90.3709
75.2433 87.2265 89.9968
75.9847 87.5537 89.911
70.5335 87.4744 90.2137
71.687 86.6853 90.7135
76.2731 88.7235 89.9023
76.2587 89.4261 89.7213
77.1318 89.1041 90.2162
70.0657 88.6283 90.6933
78.3409 90.3141 89.9114
69.4236 89.9576 91.4889
77.8083 92.499 89.669
78.171 92.3047 90.7222
69.8377 91.2875 92.6093
77.3476 94.0936 90.4235
76.5773 93.3302 90.9734
69.4233 94.1029 91.4035
69.8595 92.8224 92.233
75.8788 94.4891 90.8546
75.3943 93.2073 90.6738
74.8875 93.6348 90.7004
76.4961 95.1917 90.1211
69.5042 95.3278 90.8501
70.4595 93.6714 91.9574
70.5509 94.4858 91.022
71.8103 94.6133 90.8702
71.3433 93.8629 92.2752
73.0717 94.551 90.9694
72.519 93.7505 91.7164
74.5991 94.7043 90.6747
73.8676 93.5592 90.8963
75.7004 95.2788 90.2128
69.5204 96.0539 90.9764
70.486 95.5903 90.8544
71.702 95.4823 90.7816
72.9595 95.3461 90.7799
73.8216 95.406 90.5303
75.0866 95.5834 90.691
70.0401 96.2885 90.9061
71.376 96.2437 90.4993
72.6663 96.0484 90.4284
73.476 95.9523 90.9402
74.5213 96.137 90.9406
72.2639 96.6103 90.0038
73.3269 96.5532 90.7292
73.0913 84.451 91.6627
74.5894 84.5787 91.5746
75.3768 84.933 90.9289
76.1942 85.9826 90.8286
76.9855 86.9795 90.5378
77.0182 87.9983 90.1214
78.022 87.9163 90.7495
71.6307 87.4755 91.231
72.0796 86.0954 92.1004
78.753 89.0663 90.8332
70.8425 88.6554 91.6666
72.3733 87.618 91.8375
77.9646 90.5391 91.4627
70.799 90.0114 92.6163
76.7414 92.2123 91.5932
70.9083 91.0768 93.1739
70.9769 91.7272 92.9044
71.605 91.2642 93.3622
74.3184 92.0286 91.2126
74.5394 91.4774 91.7062
73.6945 91.5479 91.5603
75.4417 92.5721 91.1052
75.453 91.7364 91.6758
70.8524 92.9692 92.4021
72.0127 91.5832 92.9291
71.7573 92.6492 92.6504
73.2454 92.3702 91.5515
72.727 91.7721 92.6028
74.5694 92.6006 90.7147
75.8656 84.0756 91.5594
74.8601 84.3678 92.3599
76.6715 84.5494 92.927
77.2267 84.2347 92.0696
76.7174 84.7923 91.1781
78.4237 84.666 91.8541
77.5978 85.7418 91.3263
79.2292 85.1572 91.8731
78.5373 86.6448 91.5247
79.9641 85.795 92.2395
79.3547 86.7275 92.1679
80.182 86.2769 92.4039
73.7262 84.9824 92.7036
78.6 87.5489 91.5464
79.9255 86.932 92.45
73.2999 86.1979 93.2869
79.2364 89.0415 91.6017
78.9837 87.2139 92.1542
71.9134 88.8393 92.9124
73.3781 87.5014 92.9843
75.7629 89.4633 91.4615
75.9323 88.5385 92.4177
75.0274 89.0929 92.2301
76.8854 89.7549 91.1727
77.7601 88.7732 91.6153
78.6143 88.157 92.2282
71.7557 90.3049 92.9931
73.2112 88.8414 93.5105
73.1134 89.6829 92.9208
74.5743 89.6069 92.0357
74.0905 89.1582 93.029
75.1658 90.6101 91.6456
76.58 90.7503 91.187
72.4277 90.7587 92.9632
73.8007 90.5748 91.9746
79.6315 84.2198 92.3739
79.1304 84.6329 93.1495
80.0641 83.9642 93.3872
80.6252 83.9461 92.7347
79.8773 84.4574 92.389
80.5069 84.46 92.6769
75.2879 84.6268 93.3654
77.0987 84.3335 93.9663
78.2666 84.7629 93.4002
79.8716 84.7914 92.6066
80.8071 85.2068 92.8188
80.4258 86.5118 93.0532
81.3071 85.9138 92.8757
74.5905 85.5624 93.5593
80.3287 87.1535 93.1866
81.1114 86.4885 93.1885
74.7007 86.6329 93.4584
80.7456 86.787 93.5228
79.1412 87.2791 92.9728
74.6337 87.7008 93.5456
74.1198 88.2058 93.4037
74.7799 88.8834 93.3506
75.2732 87.9705 93.5759
76.4975 88.0152 93.4683
77.2618 87.5371 92.271
78.1729 87.8349 92.7525
79.7889 84.9216 94.2198
80.5005 83.951 94.3058
80.8847 83.3878 93.513
81.0945 84.2087 93.2058
80.5542 84.656 93.1135
81.1768 84.7612 93.5842
80.9238 84.9358 93.377
81.5193 85.1703 93.8435
76.7319 85.0405 93.8792
77.4298 84.5168 94.6656
78.653 84.6268 94.5234
82.7222 85.6652 93.2366
82.081 86.4607 93.2697
83.4491 86.5493 93.3274
83.0957 87.3518 93.3692
84.2167 87.4318 93.5467
75.9614 86.3048 93.944
77.3962 85.3085 94.7362
81.9856 87.0605 93.6861
83.0068 87.8205 93.6746
83.9566 88.2048 93.929
75.4265 87.212 93.6515
77.0742 86.1703 94.4551
76.4201 87.2207 93.9527
77.1993 87.4313 93.799
77.4434 86.9339 94.483
78.1968 86.9519 93.0905
78.3461 86.862 94.3391
78.9648 86.8583 93.0948
79.4244 86.9849 94.0671
80.8927 86.9373 94.4235
82.4297 87.3108 94.5247
83.4649 88.2423 94.6324
80.4754 85.1221 95.0654
80.5544 84.196 94.8786
80.8528 83.5016 94.4405
81.2292 83.7512 93.893
81.5623 84.4094 93.9305
82.1973 84.911 94.2675
78.5097 84.871 94.9986
79.1937 84.7201 95.0458
83.4076 85.7115 94.2243
84.6586 87.0294 94.1495
85.2085 88.3327 94.1428
78.3697 85.1708 95.1603
84.6971 88.8284 94.8976
77.9448 85.7433 95.2814
78.2948 86.2661 95.1628
79.2887 86.481 95.0559
79.9488 85.9177 95.616
79.7147 86.6232 94.7821
80.6801 86.619 94.813
81.5686 86.8075 95.0118
82.3452 86.7237 95.2058
83.7172 87.2775 95.5018
80.2812 86.2469 95.3911
80.8756 86.3038 95.2791
81.6272 86.4692 95.4776
82.2231 86.7046 95.6538
80.5211 84.1803 95.1708
80.7279 84.1581 95.0723
81.327 84.0108 94.6789
82.0862 84.1262 94.3211
79.0542 85.0884 95.4343
79.7488 85.0844 95.8407
80.6563 84.3214 95.6789
81.914 84.4704 95.5075
82.143 84.524 95.1197
82.9171 84.8752 94.8483
84.0372 85.9957 94.9826
85.2712 86.5754 94.4292
86.1024 87.6653 94.6832
86.2955 88.771 95.0466
87.0629 87.7904 95.8334
78.8558 85.3126 95.5101
79.7694 85.2977 96.0022
85.3897 88.3381 95.9381
86.7568 88.2153 96.3666
79.3434 85.464 95.7884
80.4211 85.9135 96.09
84.1091 86.7424 96.4731
83.0318 86.5897 95.9616
85.3169 87.327 96.5471
80.9199 85.6867 95.828
81.3558 86.0193 95.8904
82.0169 86.452 96.1769
82.6707 86.5764 96.2414
80.4865 85.0903 95.9365
81.1214 84.4634 96.3047
81.8675 84.3256 96.3977
82.3279 84.669 96.0346
82.9317 85.1054 95.6206
83.8853 85.681 95.6116
84.8985 86.2232 95.439
86.2496 86.9758 95.6133
87.7357 86.76 96.8561
80.7188 85.3527 96.0161
81.2418 85.0465 96.4226
81.8857 84.6791 96.7942
86.5338 87.2054 97.1178
81.1992 85.6957 96.3959
81.7454 85.2009 96.925
84.0762 86.4281 97.5942
83.3271 86.4784 96.9966
85.1439 86.5365 97.1667
81.8222 85.6604 96.4819
82.2445 85.8504 96.6003
82.7844 86.17 96.9844
82.6091 84.5853 96.9877
83.1382 84.6613 96.6434
83.8004 85.1385 96.437
85.0002 85.8415 96.2419
86.2165 86.3246 96.1486
82.3461 85.0934 97.1762
83.0555 85.0452 97.4121
83.659 85.1298 97.3517
84.5984 85.4746 97.6696
86.3945 85.8377 97.4231
81.9807 85.3826 97.0469
82.439 85.529 97.3088
83.4008 85.6945 97.7284
POLYGONS 1324  5296
3 0 1 2
3 0 3 4
3 2 3 0
3 3 5 4
3 6 7 8
3 1 6 8
3 1 0 6
3 0 9 6
3 4 10 0
3 10 9 0
3 11 4 5
3 11 12 4
3 12 10 4
3 12 13 14
3 11 13 12
3 13 15 14
3 16 7 6
3 17 7 16
3 9 18 6
3 18 16 6
3 10 19 9
3 19 18 9
3 12 20 10
3 20 19 10
3 14 21 12
3 21 20 12
3 22 14 15
3 21 14 22
3 23 17 16
3 24 17 23
3 18 25 16
3 25 23 16
3 19 26 18
3 26 25 18
3 20 27 19
3 27 26 19
3 21 28 20
3 28 27 20
3 29 21 22
3 28 21 29
3 23 30 24
3 25 30 23
3 31 30 25
3 26 31 25
3 32 31 26
3 27 32 26
3 33 32 27
3 28 33 27
3 34 33 28
3 29 34 28
3 35 36 37
3 35 2 1
3 35 37 2
3 37 38 2
3 3 2 39
3 2 38 39
3 5 40 41
3 5 3 40
3 3 39 40
3 40 42 41
3 8 36 35
3 8 7 36
3 7 43 36
3 1 8 35
3 5 41 11
3 41 42 44
3 41 44 11
3 11 44 13
3 44 15 13
3 45 15 44
3 7 17 43
3 43 17 46
3 15 45 22
3 45 47 22
3 17 24 46
3 46 24 48
3 22 47 29
3 47 49 29
3 24 50 48
3 30 50 24
3 31 51 30
3 30 51 50
3 32 52 31
3 31 52 51
3 33 53 32
3 32 53 52
3 34 54 33
3 33 54 53
3 49 34 29
3 54 34 49
3 55 56 57
3 55 58 59
3 57 58 55
3 58 60 59
3 61 56 55
3 62 56 61
3 59 63 55
3 63 61 55
3 64 59 60
3 64 65 59
3 65 63 59
3 64 66 65
3 67 68 69
3 62 67 69
3 61 67 62
3 61 36 67
3 61 37 36
3 38 37 61
3 63 38 61
3 39 38 63
3 65 39 63
3 65 66 70
3 65 70 39
3 39 70 40
3 42 71 72
3 42 40 71
3 40 70 71
3 71 73 72
3 74 68 67
3 75 68 74
3 36 43 74
3 67 36 74
3 42 72 44
3 72 45 44
3 72 73 45
3 73 76 45
3 77 75 74
3 78 75 77
3 43 46 77
3 74 43 77
3 79 80 47
3 79 47 76
3 76 47 45
3 79 81 80
3 77 82 78
3 82 77 46
3 82 46 83
3 83 46 48
3 80 84 49
3 47 80 49
3 85 80 81
3 84 80 85
3 48 86 83
3 50 86 48
3 51 87 50
3 50 87 86
3 52 88 51
3 51 88 87
3 53 89 52
3 52 89 88
3 54 90 53
3 53 90 89
3 84 54 49
3 84 91 54
3 91 90 54
3 85 91 84
3 92 93 94
3 92 95 96
3 94 95 92
3 96 97 98
3 95 97 96
3 97 99 98
3 100 101 102
3 93 100 102
3 92 100 93
3 92 56 100
3 92 57 56
3 58 57 92
3 96 58 92
3 60 58 96
3 60 96 103
3 103 96 98
3 104 98 99
3 104 105 98
3 105 103 98
3 105 106 107
3 104 106 105
3 106 108 107
3 109 110 111
3 101 109 111
3 101 100 109
3 100 112 109
3 56 62 112
3 100 56 112
3 60 103 64
3 66 64 103
3 66 103 113
3 113 103 105
3 107 114 105
3 114 113 105
3 115 107 108
3 114 107 115
3 116 110 109
3 117 110 116
3 69 68 116
3 69 116 112
3 112 116 109
3 62 69 112
3 66 113 70
3 71 70 113
3 114 71 113
3 73 118 119
3 71 118 73
3 71 115 118
3 71 114 115
3 119 120 121
3 118 120 119
3 120 122 121
3 116 123 117
3 123 116 68
3 123 68 124
3 124 68 75
3 119 125 76
3 73 119 76
3 121 126 119
3 126 125 119
3 127 121 122
3 126 121 127
3 75 78 124
3 124 78 128
3 76 125 79
3 81 79 125
3 81 125 129
3 129 125 126
3 130 126 127
3 129 126 130
3 78 131 128
3 82 131 78
3 131 82 83
3 132 131 83
3 129 133 85
3 81 129 85
3 134 129 130
3 133 129 134
3 83 135 132
3 86 135 83
3 87 136 86
3 86 136 135
3 88 137 87
3 87 137 136
3 89 138 88
3 88 138 137
3 90 139 89
3 89 139 138
3 91 140 90
3 90 140 139
3 133 91 85
3 133 141 91
3 141 140 91
3 134 141 133
3 142 143 144
3 142 145 146
3 144 145 142
3 146 147 148
3 145 147 146
3 148 149 150
3 147 149 148
3 149 151 150
3 152 143 142
3 153 143 152
3 94 93 152
3 94 152 146
3 146 152 142
3 95 94 146
3 148 95 146
3 97 95 148
3 150 97 148
3 150 99 97
3 150 151 99
3 151 154 99
3 155 156 157
3 153 155 157
3 152 155 153
3 152 101 155
3 152 102 101
3 93 102 152
3 99 154 158
3 104 99 158
3 106 104 159
3 104 158 159
3 159 108 106
3 160 108 159
3 111 156 155
3 111 110 156
3 110 161 156
3 101 111 155
3 108 160 115
3 160 162 115
3 110 117 161
3 161 117 163
3 115 162 164
3 118 115 164
3 120 118 165
3 118 164 165
3 165 122 120
3 166 122 165
3 117 167 163
3 123 167 117
3 167 123 124
3 168 167 124
3 122 166 127
3 166 169 127
3 124 128 168
3 168 128 170
3 127 169 130
3 169 171 130
3 128 172 170
3 131 172 128
3 172 131 132
3 173 172 132
3 174 175 176
3 175 174 177
3 130 171 134
3 171 178 134
3 132 179 173
3 135 179 132
3 136 180 135
3 135 180 179
3 176 137 174
3 176 180 137
3 180 136 137
3 174 181 177
3 174 137 181
3 137 138 181
3 139 182 138
3 138 182 181
3 140 183 139
3 139 183 182
3 141 184 140
3 140 184 183
3 178 141 134
3 184 141 178
3 185 186 187
3 185 188 189
3 187 188 185
3 189 190 191
3 188 190 189
3 191 192 193
3 190 192 191
3 192 194 193
3 195 196 197
3 186 195 197
3 186 185 195
3 185 198 195
3 189 199 185
3 199 198 185
3 191 200 189
3 200 199 189
3 193 201 191
3 201 200 191
3 202 193 194
3 201 193 202
3 203 196 195
3 204 196 203
3 144 143 203
3 144 203 198
3 198 203 195
3 145 144 198
3 199 145 198
3 147 145 199
3 200 147 199
3 149 147 200
3 201 149 200
3 201 151 149
3 201 202 151
3 202 205 151
3 206 204 203
3 207 204 206
3 143 153 206
3 203 143 206
3 151 205 154
3 205 208 154
3 157 207 206
3 157 156 207
3 156 209 207
3 153 157 206
3 154 208 210
3 158 154 210
3 159 158 211
3 158 210 211
3 160 212 213
3 160 159 212
3 159 211 212
3 212 214 213
3 156 161 209
3 209 161 215
3 213 216 162
3 160 213 162
3 217 213 214
3 216 213 217
3 161 163 215
3 215 163 218
3 162 216 164
3 216 217 219
3 216 219 164
3 164 219 165
3 219 166 165
3 220 166 219
3 163 221 218
3 167 221 163
3 221 167 168
3 222 221 168
3 166 220 169
3 220 223 169
3 224 170 225
3 224 222 170
3 222 168 170
3 225 226 227
3 224 225 227
3 226 228 229
3 227 226 229
3 228 230 231
3 229 228 231
3 230 232 233
3 231 230 233
3 232 234 235
3 233 232 235
3 235 234 236
3 169 223 171
3 223 237 171
3 170 172 225
3 173 225 172
3 173 238 225
3 238 226 225
3 228 226 239
3 239 226 238
3 175 239 176
3 175 230 239
3 230 228 239
3 177 230 175
3 177 240 230
3 240 232 230
3 234 232 241
3 241 232 240
3 242 236 234
3 242 234 243
3 243 234 241
3 243 244 245
3 242 243 245
3 244 237 245
3 244 178 237
3 178 171 237
3 173 179 238
3 180 238 179
3 239 238 180
3 176 239 180
3 177 181 240
3 182 240 181
3 241 240 182
3 183 241 182
3 243 241 183
3 184 243 183
3 244 243 184
3 178 244 184
3 246 247 248
3 246 249 250
3 248 249 246
3 250 251 252
3 249 251 250
3 252 253 254
3 251 253 252
3 253 255 254
3 256 257 258
3 247 256 258
3 246 256 247
3 246 186 256
3 246 187 186
3 188 187 246
3 250 188 246
3 190 188 250
3 252 190 250
3 192 190 252
3 254 192 252
3 254 194 192
3 254 255 194
3 255 259 194
3 197 257 256
3 197 196 257
3 196 260 257
3 186 197 256
3 261 262 202
3 261 202 259
3 259 202 194
3 261 263 262
3 264 265 266
3 264 266 260
3 264 260 204
3 204 260 196
3 262 267 205
3 202 262 205
3 268 262 263
3 267 262 268
3 269 265 264
3 270 265 269
3 204 207 269
3 264 204 269
3 267 271 208
3 205 267 208
3 272 267 268
3 271 267 272
3 273 270 269
3 274 270 273
3 207 209 273
3 269 207 273
3 208 271 210
3 271 272 275
3 271 275 210
3 210 275 211
3 212 211 276
3 211 275 276
3 276 214 212
3 277 214 276
3 273 278 274
3 278 273 209
3 278 209 279
3 279 209 215
3 214 277 217
3 277 280 217
3 215 218 279
3 279 218 281
3 282 219 217
3 282 217 283
3 283 217 280
3 219 282 220
3 218 284 281
3 221 284 218
3 284 221 222
3 285 284 222
3 286 287 288
3 286 289 290
3 287 286 290
3 289 291 292
3 290 289 292
3 291 293 294
3 292 291 294
3 283 294 293
3 283 293 282
3 282 293 295
3 220 295 223
3 282 295 220
3 222 296 285
3 224 296 222
3 227 297 224
3 224 297 296
3 229 298 227
3 227 298 297
3 288 231 286
3 288 298 231
3 298 229 231
3 233 286 231
3 289 286 233
3 235 289 233
3 291 289 235
3 236 291 235
3 236 299 291
3 299 293 291
3 295 293 300
3 300 293 299
3 223 300 237
3 295 300 223
3 236 242 299
3 245 299 242
3 300 299 245
3 237 300 245
3 301 302 303
3 301 304 305
3 303 304 301
3 305 306 307
3 304 306 305
3 306 308 307
3 309 310 311
3 302 309 311
3 302 301 309
3 301 312 309
3 305 313 301
3 313 312 301
3 307 314 305
3 314 313 305
3 315 307 308
3 315 316 307
3 316 314 307
3 315 317 316
3 318 310 309
3 319 310 318
3 248 247 318
3 248 318 312
3 312 318 309
3 249 248 312
3 313 249 312
3 251 249 313
3 314 251 313
3 253 251 314
3 316 253 314
3 255 320 321
3 253 320 255
3 253 317 320
3 253 316 317
3 320 322 321
3 258 319 318
3 258 257 319
3 257 323 319
3 247 258 318
3 321 324 259
3 255 321 259
3 325 321 322
3 324 321 325
3 326 327 328
3 326 328 323
3 326 323 260
3 260 323 257
3 259 324 261
3 324 263 261
3 324 325 263
3 325 329 263
3 266 327 326
3 266 265 327
3 265 330 327
3 260 266 326
3 263 329 268
3 329 331 268
3 265 270 330
3 330 270 332
3 268 331 272
3 331 333 272
3 270 274 332
3 332 274 334
3 335 275 272
3 335 272 336
3 336 272 333
3 275 337 276
3 335 337 275
3 276 337 277
3 274 338 334
3 278 338 274
3 279 339 340
3 279 340 278
3 278 340 338
3 340 339 341
3 342 343 344
3 336 343 342
3 336 342 335
3 335 342 345
3 337 335 346
3 346 335 345
3 277 346 280
3 337 346 277
3 339 281 347
3 279 281 339
3 348 341 339
3 348 339 349
3 349 339 347
3 348 349 350
3 351 352 353
3 344 352 351
3 344 351 342
3 342 351 354
3 345 342 355
3 355 342 354
3 346 345 356
3 356 345 355
3 280 356 283
3 346 356 280
3 281 284 347
3 285 347 284
3 285 357 347
3 357 349 347
3 358 350 349
3 358 349 359
3 359 349 357
3 359 360 361
3 358 359 361
3 353 361 360
3 351 353 360
3 351 360 288
3 351 288 287
3 290 351 287
3 354 351 290
3 292 354 290
3 355 354 292
3 294 355 292
3 356 355 294
3 283 356 294
3 285 296 357
3 297 357 296
3 359 357 297
3 298 359 297
3 360 359 298
3 288 360 298
3 362 363 364
3 362 303 302
3 362 364 303
3 364 365 303
3 304 303 366
3 303 365 366
3 306 304 367
3 304 366 367
3 367 308 306
3 368 308 367
3 311 363 362
3 311 310 363
3 310 369 363
3 302 311 362
3 308 368 370
3 315 308 370
3 370 317 315
3 371 317 370
3 310 319 369
3 369 319 372
3 317 371 373
3 320 317 373
3 373 322 320
3 374 322 373
3 319 323 372
3 372 323 375
3 322 374 325
3 374 376 325
3 328 377 378
3 327 377 328
3 375 323 328
3 378 375 328
3 325 376 329
3 376 379 329
3 327 330 377
3 377 330 380
3 381 382 383
3 381 379 382
3 381 331 379
3 331 329 379
3 330 332 380
3 380 332 384
3 385 381 383
3 386 385 383
3 331 385 333
3 381 385 331
3 387 334 388
3 387 384 334
3 384 332 334
3 387 388 389
3 390 385 386
3 391 390 386
3 333 390 336
3 385 390 333
3 334 338 388
3 388 392 389
3 388 338 392
3 338 340 392
3 341 393 394
3 341 394 340
3 340 394 392
3 394 393 395
3 396 397 398
3 391 397 396
3 390 391 396
3 390 396 344
3 390 344 343
3 336 390 343
3 341 348 393
3 350 399 400
3 348 350 400
3 348 400 395
3 348 395 393
3 399 401 402
3 400 399 402
3 398 402 401
3 396 398 401
3 396 401 353
3 396 353 352
3 344 396 352
3 350 358 399
3 361 399 358
3 401 399 361
3 353 401 361
3 403 404 405
3 403 406 407
3 405 406 403
3 407 408 409
3 406 408 407
3 408 410 409
3 364 411 412
3 363 411 364
3 404 403 365
3 404 365 412
3 412 365 364
3 366 365 403
3 407 366 403
3 367 366 407
3 409 367 407
3 368 413 414
3 367 413 368
3 367 410 413
3 367 409 410
3 413 415 414
3 363 369 411
3 411 369 416
3 368 414 370
3 414 371 370
3 414 415 371
3 415 417 371
3 369 372 416
3 416 372 418
3 419 373 371
3 419 371 420
3 420 371 417
3 373 419 374
3 372 375 418
3 418 375 421
3 422 419 420
3 423 422 420
3 374 422 376
3 419 422 374
3 378 377 424
3 378 424 425
3 378 425 375
3 375 425 421
3 426 427 428
3 423 427 426
3 423 426 422
3 422 426 429
3 376 429 379
3 422 429 376
3 424 380 430
3 377 380 424
3 431 425 424
3 431 424 432
3 432 424 430
3 432 433 434
3 431 432 434
3 433 435 436
3 434 433 436
3 435 437 438
3 436 435 438
3 428 438 437
3 428 437 426
3 426 437 439
3 382 439 383
3 382 429 439
3 429 426 439
3 379 429 382
3 430 384 440
3 380 384 430
3 432 430 441
3 441 430 440
3 433 432 442
3 442 432 441
3 435 433 443
3 443 433 442
3 437 435 444
3 444 435 443
3 439 437 445
3 445 437 444
3 383 445 386
3 439 445 383
3 384 387 440
3 389 440 387
3 389 446 440
3 446 441 440
3 442 441 447
3 447 441 446
3 443 442 448
3 448 442 447
3 444 443 449
3 449 443 448
3 445 444 450
3 450 444 449
3 386 450 391
3 445 450 386
3 389 392 446
3 394 446 392
3 447 446 394
3 395 447 394
3 395 451 447
3 451 448 447
3 449 448 452
3 452 448 451
3 397 452 398
3 397 450 452
3 450 449 452
3 391 450 397
3 395 400 451
3 402 451 400
3 452 451 402
3 398 452 402
3 405 453 454
3 404 453 405
3 406 405 455
3 405 454 455
3 408 406 456
3 406 455 456
3 410 457 458
3 410 408 457
3 408 456 457
3 457 459 458
3 412 411 460
3 412 460 461
3 412 461 404
3 404 461 453
3 410 458 413
3 458 415 413
3 458 459 415
3 459 462 415
3 460 463 464
3 460 411 463
3 411 416 463
3 461 460 464
3 415 462 417
3 462 465 417
3 416 418 463
3 463 418 466
3 417 465 420
3 465 467 420
3 468 421 469
3 468 466 421
3 466 418 421
3 468 469 470
3 471 472 473
3 471 474 475
3 472 471 475
3 474 467 475
3 474 423 467
3 423 420 467
3 469 425 476
3 421 425 469
3 477 470 469
3 477 469 478
3 478 469 476
3 478 479 480
3 477 478 480
3 473 480 479
3 473 479 471
3 471 479 481
3 427 481 428
3 427 474 481
3 474 471 481
3 423 474 427
3 425 431 476
3 434 476 431
3 478 476 434
3 436 478 434
3 479 478 436
3 438 479 436
3 481 479 438
3 428 481 438
3 482 483 484
3 482 485 486
3 484 485 482
3 486 487 488
3 485 487 486
3 488 489 490
3 487 489 488
3 490 491 492
3 489 491 490
3 491 493 492
3 454 483 482
3 454 453 483
3 453 494 483
3 455 454 482
3 486 455 482
3 456 455 486
3 488 456 486
3 457 456 488
3 490 457 488
3 459 457 490
3 459 490 495
3 495 490 492
3 496 492 493
3 495 492 496
3 453 461 494
3 494 461 497
3 495 498 462
3 459 495 462
3 499 495 496
3 498 495 499
3 464 463 500
3 464 500 501
3 464 501 461
3 461 501 497
3 502 503 504
3 502 505 506
3 503 502 506
3 498 507 506
3 498 506 465
3 498 465 462
3 465 506 505
3 499 507 498
3 500 466 508
3 463 466 500
3 509 501 500
3 509 500 510
3 510 500 508
3 510 511 512
3 509 510 512
3 504 512 511
3 504 511 502
3 502 511 513
3 505 502 514
3 514 502 513
3 465 514 467
3 505 514 465
3 466 468 508
3 470 508 468
3 470 515 508
3 515 510 508
3 511 510 516
3 516 510 515
3 472 516 473
3 472 513 516
3 513 511 516
3 475 513 472
3 514 513 475
3 467 514 475
3 470 477 515
3 480 515 477
3 516 515 480
3 473 516 480
3 517 518 519
3 517 520 521
3 519 520 517
3 520 522 521
3 484 523 524
3 483 523 484
3 485 484 525
3 484 524 525
3 518 517 487
3 518 487 525
3 525 487 485
3 489 487 517
3 521 489 517
3 521 522 526
3 521 526 489
3 489 526 491
3 493 527 528
3 493 491 527
3 491 526 527
3 527 529 528
3 483 494 523
3 523 494 530
3 528 531 496
3 493 528 496
3 532 528 529
3 531 528 532
3 494 497 530
3 530 497 533
3 531 534 535
3 531 535 496
3 496 535 499
3 532 534 531
3 536 501 537
3 536 533 501
3 533 497 501
3 537 538 539
3 536 537 539
3 538 504 503
3 538 503 539
3 539 503 540
3 506 541 503
3 503 541 540
3 507 542 506
3 506 542 541
3 535 507 499
3 542 507 535
3 501 509 537
3 512 537 509
3 538 537 512
3 504 538 512
3 519 543 544
3 518 543 519
3 520 519 545
3 519 544 545
3 522 546 547
3 522 520 546
3 520 545 546
3 547 548 549
3 546 548 547
3 548 550 549
3 524 523 551
3 552 524 551
3 552 553 524
3 553 525 524
3 543 518 525
3 553 543 525
3 522 547 526
3 527 526 547
3 549 527 547
3 529 554 555
3 527 554 529
3 527 550 554
3 527 549 550
3 555 556 557
3 554 556 555
3 556 558 557
3 551 530 559
3 523 530 551
3 560 552 551
3 559 560 551
3 555 561 532
3 529 555 532
3 557 562 555
3 562 561 555
3 563 557 558
3 562 557 563
3 559 533 564
3 530 533 559
3 565 560 559
3 565 559 566
3 566 559 564
3 566 567 568
3 565 566 568
3 567 569 570
3 568 567 570
3 569 571 572
3 570 569 572
3 571 535 534
3 571 534 572
3 572 534 573
3 561 534 532
3 561 574 534
3 574 573 534
3 562 574 561
3 575 574 562
3 563 575 562
3 533 536 564
3 539 564 536
3 566 564 539
3 540 566 539
3 567 566 540
3 541 567 540
3 569 567 541
3 542 569 541
3 571 569 542
3 535 571 542
3 544 576 577
3 543 576 544
3 545 544 578
3 544 577 578
3 546 545 579
3 545 578 579
3 548 546 580
3 546 579 580
3 580 550 548
3 581 550 580
3 553 582 583
3 552 582 553
3 576 543 553
3 583 576 553
3 550 581 584
3 554 550 584
3 556 554 585
3 554 584 585
3 585 558 556
3 586 558 585
3 552 560 582
3 582 560 587
3 558 586 563
3 586 588 563
3 560 589 587
3 565 589 560
3 568 590 565
3 565 590 589
3 591 592 590
3 591 590 570
3 570 590 568
3 570 572 593
3 591 570 593
3 572 573 594
3 593 572 594
3 573 574 595
3 594 573 595
3 596 595 574
3 596 574 597
3 597 574 575
3 588 575 563
3 597 575 588
3 591 598 592
3 593 598 591
3 599 598 593
3 594 599 593
3 600 599 594
3 595 600 594
3 601 600 595
3 596 601 595
3 577 576 602
3 577 603 578
3 602 603 577
3 578 604 579
3 603 604 578
3 579 605 580
3 604 605 579
3 580 605 581
3 583 582 606
3 583 606 607
3 576 583 607
3 576 607 608
3 576 608 602
3 603 602 608
3 609 603 608
3 604 603 609
3 610 604 609
3 605 604 610
3 611 605 610
3 581 605 611
3 581 611 584
3 584 611 612
3 585 584 613
3 584 612 613
3 586 614 615
3 586 585 614
3 585 613 614
3 614 616 615
3 606 587 617
3 582 587 606
3 618 607 606
3 617 618 606
3 615 619 588
3 586 615 588
3 620 615 616
3 619 615 620
3 587 589 617
3 617 621 618
3 617 589 621
3 589 590 621
3 621 590 592
3 622 621 592
3 597 623 624
3 596 597 624
3 619 597 588
3 619 625 597
3 625 623 597
3 620 625 619
3 592 626 622
3 598 626 592
3 599 627 598
3 598 627 626
3 600 628 599
3 599 628 627
3 601 629 600
3 600 629 628
3 624 601 596
3 629 601 624
3 608 607 630
3 608 631 609
3 630 631 608
3 632 609 631
3 632 633 609
3 633 610 609
3 611 610 634
3 610 633 634
3 612 611 635
3 611 634 635
3 613 612 636
3 612 635 636
3 614 613 637
3 613 636 637
3 637 616 614
3 638 616 637
3 630 618 639
3 607 618 630
3 631 630 640
3 640 630 639
3 641 632 631
3 640 641 631
3 616 638 620
3 638 642 620
3 618 621 639
3 622 639 621
3 622 643 639
3 643 640 639
3 644 641 640
3 643 644 640
3 623 645 646
3 624 623 646
3 625 647 623
3 623 647 645
3 642 625 620
3 647 625 642
3 622 626 643
3 643 648 644
3 643 626 648
3 626 627 648
3 628 649 627
3 627 649 648
3 629 650 628
3 628 650 649
3 646 629 624
3 650 629 646
3 633 632 651
3 633 652 634
3 651 652 633
3 634 653 635
3 652 653 634
3 635 654 636
3 653 654 635
3 636 655 637
3 654 655 636
3 637 655 638
3 651 641 656
3 632 641 651
3 652 651 657
3 657 651 656
3 653 652 658
3 658 652 657
3 654 653 659
3 659 653 658
3 655 654 660
3 660 654 659
3 638 660 642
3 655 660 638
3 656 644 661
3 641 644 656
3 657 656 662
3 662 656 661
3 658 657 663
3 663 657 662
3 645 663 646
3 645 659 663
3 659 658 663
3 647 659 645
3 660 659 647
3 642 660 647
3 644 648 661
3 649 661 648
3 662 661 649
3 650 662 649
3 663 662 650
3 646 663 650
