# vtk DataFile Version 3.0
this file was written using fslvtkio
ASCII
DATASET POLYDATA
POINTS 642 float
90.4189 77.4945 110.267
82.4474 82.1187 110.158
82.4796 75.9243 107.149
89.5163 73.5421 108.935
89.5886 74.3819 113.042
87.3165 77.6976 104.968
82.9956 80.4614 103.027
84.7719 75.7447 113.103
86.8173 78.9867 112.619
86.4359 72.9063 110.822
85.0532 75.667 105.346
85.662 82.3203 107.306
85.7528 78.0035 113.984
88.6043 77.0836 114.7
87.0741 75.1235 114.072
85.2721 72.9807 112.856
88.4513 72.5076 112.876
83.9976 83.371 104.583
85.5041 79.3277 102.652
86.9187 81.4466 105.075
83.7539 77.8101 103.022
85.842 77.0027 105.034
91.2974 72.4188 110.341
91.1018 75.7008 112.12
91.2267 75.1197 108.45
88.3236 75.7529 107.722
88.5571 77.667 107.963
83.5927 79.2095 111.09
83.7249 75.2849 110.118
82.1974 79.6905 108.493
82.0199 82.5629 106.262
82.0639 78.5393 104.549
87.6353 79.3166 108.744
88.8521 78.1258 112.084
86.1502 80.5566 109.721
83.757 83.1588 108.185
84.6317 80.6166 111.716
87.1417 74.8681 107.494
85.3565 73.5621 106.926
88.3405 72.3775 109.195
83.2534 75.5892 105.084
83.5684 72.868 108.82
87.1965 77.4521 114.729
87.9668 76.0478 115.037
86.4372 76.5587 114.913
88.4705 74.4747 113.99
89.3185 75.6458 114.332
87.8775 78.3278 114.402
86.2987 78.8072 113.885
85.3273 76.9595 113.484
85.6999 75.3424 114.482
86.2684 74.0214 113.519
87.8245 73.4883 113.683
86.7563 72.9588 113.404
89.27 73.146 113.077
84.8838 74.232 113.332
85.9122 72.8243 111.785
87.5283 73.0404 112.174
84.9664 81.5379 103.6
86.1456 80.3928 104.072
85.5524 82.7172 104.622
87.1664 79.2752 104.968
86.5819 78.4995 103.776
84.2184 80.0749 102.5
83.5983 81.7619 103.844
84.8364 82.9025 105.989
86.1951 81.7812 106.221
84.8116 77.3856 103.618
85.6417 77.7122 103.288
84.4377 78.1797 102.34
86.6571 77.2295 104.832
85.474 76.6627 105.321
84.2938 76.9295 104.327
83.1065 78.7803 102.28
91.908 73.9666 111.239
91.6302 75.5737 110.095
91.7009 73.516 109.203
91.2173 76.4185 109.514
91.0352 76.9599 111.41
90.4853 74.7544 112.81
90.7381 73.3564 112.036
90.5835 72.9021 108.869
90.3586 74.0488 108.421
89.8096 75.2621 107.947
90.1928 76.4081 108.248
88.9458 76.4355 107.272
89.6457 77.5297 109.032
89.0337 74.65 108.318
87.7178 76.6618 106.532
87.8876 77.785 106.515
83.6362 77.5543 110.497
83.0756 77.6703 108.965
82.7442 79.6689 110.002
82.2276 77.3414 107.684
83.04 75.5758 108.569
84.339 75.4041 111.658
84.451 77.2631 111.841
82.5563 81.0262 111.518
81.5784 81.3815 109.741
81.623 81.2553 107.476
81.983 79.1571 106.74
81.7367 80.6266 105.473
82.2569 77.3078 105.922
81.9409 82.3898 108.289
82.5111 81.6008 104.628
82.2164 79.4641 103.568
88.2111 78.4179 110.064
87.3098 78.6948 110.567
86.8775 79.8065 109.319
86.4943 79.4775 111.114
87.8547 78.5954 112.527
89.7195 78.0414 111.311
88.9026 78.337 109.6
86.6314 80.9121 107.918
85.8896 81.8783 108.609
85.0782 82.2086 109.106
85.3496 80.5631 110.442
84.3342 81.6807 109.8
85.7218 79.5843 112.11
84.7479 83.3379 107.61
83.1736 82.4194 108.924
83.484 81.5936 111.187
86.4075 73.9557 106.914
86.8232 73.154 108.144
87.754 73.4777 108.189
87.5028 72.7635 110.534
85.8983 72.9357 108.555
85.1738 74.6549 106.125
86.0539 75.299 106.543
88.3608 74.0791 108.378
89.2421 72.911 108.595
83.2886 74.187 106.834
84.4689 73.4377 107.688
84.2142 74.3845 105.886
85.0859 72.5681 109.542
82.7509 74.1505 107.894
82.496 75.4788 105.806
84.1618 75.6742 105.12
90.0848 76.4404 113.885
89.07 77.8243 113.87
90.3204 77.4706 112.833
88.0439 78.2839 108.37
87.2541 80.4771 107.091
87.4285 79.0333 106.808
88.6084 72.5498 111.557
90.0597 72.32 111.781
90.0771 71.979 109.631
87.725 75.4375 107.966
87.0529 76.405 106.794
86.5184 76.1159 106.672
85.0925 79.1875 113.018
84.67 78.4513 112.546
83.8346 80.3102 112.485
82.758 83.2698 107.09
82.7697 83.1359 105.192
83.4849 83.9107 106.245
83.223 73.2362 109.946
84.1968 73.7926 111.799
84.5978 72.6293 110.944
83.4094 77.0275 104.187
82.6187 78.0593 103.225
82.4882 76.9033 104.574
87.5531 76.6753 114.924
87.1761 76.2295 115.024
86.7974 76.9864 114.84
86.7699 75.5811 114.845
87.4324 75.6252 114.585
88.2791 76.6619 114.955
87.8948 77.3512 114.767
86.4978 77.6546 114.466
86.1355 77.419 114.493
88.2149 75.4129 114.5
88.709 75.9426 114.848
88.926 75.1285 114.347
89.0852 76.3858 114.68
87.7881 74.8674 114.194
89.043 74.3311 113.522
89.4657 74.9182 113.7
87.4965 77.9653 114.617
86.7572 78.1597 114.51
87.107 78.5819 114.285
86.0188 78.4121 114.203
88.2363 77.7067 114.597
87.3273 78.6991 113.698
86.6322 78.8677 113.378
85.8196 76.8128 114.416
86.1088 75.811 114.903
85.5006 76.1308 114.198
86.3614 75.2018 114.469
85.5598 77.5218 113.818
84.9555 76.3504 113.467
85.0901 75.5765 113.901
87.0476 73.6674 113.777
87.3877 72.9859 113.678
86.4834 73.4102 113.37
87.5934 72.7038 113.171
88.1144 72.9319 113.353
87.3978 74.0286 114.043
86.6678 74.4082 113.801
85.8349 73.7533 113.057
85.9491 73.0043 113.182
88.5014 73.416 113.35
88.1125 73.7851 113.871
88.7295 73.7126 113.4
88.921 72.804 112.974
89.4809 73.7085 113.112
85.9998 74.6774 113.992
85.5605 74.2889 113.487
85.2325 74.8082 114.085
85.0033 73.7323 113.207
84.8138 75.0463 113.252
86.373 72.7699 112.818
87.224 72.9627 112.692
86.8564 72.8364 112.05
87.9376 72.7483 112.458
85.6132 72.7523 112.484
86.2658 72.8637 111.188
87.0275 72.9795 111.66
85.5686 80.8774 103.969
85.9037 81.8301 104.153
85.1863 82.2488 103.902
86.2603 82.1551 104.812
86.5618 81.0599 104.388
85.8854 79.8983 103.503
85.329 80.3212 103.209
84.434 82.6849 103.86
84.7811 83.1834 104.41
86.755 79.8733 104.403
86.4148 79.3371 103.729
86.9225 78.8454 104.259
86.0386 78.9062 103.097
87.0945 80.2851 104.959
87.2368 78.4345 105.019
86.9723 78.1018 104.361
84.6769 80.8221 103.128
84.2939 81.7215 103.61
83.9525 80.9458 103.246
83.7736 82.6559 104.2
84.8946 79.9951 102.591
83.5873 80.2849 102.689
83.327 81.014 103.426
85.1336 82.8345 105.255
85.8813 82.4113 105.429
85.5528 82.3589 106.013
86.573 81.8358 105.701
84.3853 83.1693 105.314
85.3337 82.7542 106.625
85.8242 81.8525 106.696
85.2099 77.5462 103.4
85.0345 77.9554 102.687
84.6014 77.5913 102.782
84.9355 78.994 102.493
85.5828 78.3915 102.608
85.7237 77.3274 104.041
85.3617 77.2202 104.262
84.2587 77.5375 103.207
84.0634 77.7539 102.337
86.1179 77.9891 103.256
86.1528 77.4839 103.992
86.5849 77.5691 103.951
86.1922 77.2111 104.9
87.0399 77.3384 104.721
85.1289 77.0915 104.377
84.5715 77.2744 103.939
84.9314 76.8795 104.801
84.024 77.4465 103.685
85.6579 76.9494 105.151
85.2108 76.2668 105.455
84.69 76.355 104.945
83.7718 78.3858 101.939
84.2925 79.1576 102.041
83.6429 79.3539 102.161
83.4455 78.1211 102.375
83.0219 79.663 102.605
91.8997 74.7216 110.584
91.9485 74.5912 109.381
92.0401 73.5883 110.087
91.6072 74.4056 108.435
91.7206 75.2578 109.138
91.3995 75.4139 111.051
91.6014 74.8338 111.59
91.8465 72.8436 110.672
91.8138 72.7388 109.678
91.6285 75.9054 109.81
91.3126 76.0548 110.738
91.2062 76.717 110.441
91.0963 76.3125 111.692
91.4138 75.7519 108.968
90.9424 76.9654 110.05
90.8097 77.3173 110.896
91.3904 74.4129 112.15
91.4505 73.5681 111.728
90.7399 73.954 112.386
91.2881 72.7766 111.254
90.8797 75.1524 112.467
90.0012 74.497 112.872
90.0836 73.9326 112.503
91.3063 72.9543 108.88
91.1416 73.7844 108.584
90.5625 73.4306 108.991
90.7885 74.4529 108.263
91.0224 72.7088 109.525
90.0246 73.2526 109.042
89.9638 73.6628 108.709
90.2224 75.8333 107.868
89.54 76.4243 107.869
89.3588 75.8185 107.808
88.8643 77.211 107.5
89.3716 77.1953 108.194
90.8304 75.7483 108.454
90.5146 75.1518 108.227
89.0519 75.5825 108.065
88.6534 76.0862 107.533
89.9562 77.1498 108.618
90.7124 76.4163 108.792
90.5129 77.2419 109.292
89.0837 77.4896 108.498
90.0987 77.3578 109.667
90.1253 74.5568 108.076
89.3603 74.8791 108.246
89.681 74.2055 108.295
88.7247 75.2167 108.137
89.326 74.0588 108.489
88.3359 76.5174 106.848
88.4011 77.1784 106.959
87.9817 77.0301 106.334
88.2227 77.8886 107.169
87.9739 76.3492 107.283
87.5258 77.0266 105.601
87.5856 77.801 105.667
83.3908 77.6356 109.687
82.9775 78.643 109.341
83.3251 78.6091 110.033
82.4788 79.6943 109.313
82.5563 78.7442 108.722
83.2893 76.368 109.572
83.6094 76.2533 110.352
83.6494 78.5751 110.74
83.137 79.4876 110.551
82.658 77.5284 108.39
82.9257 76.4403 108.807
82.5391 76.57 108.149
83.3155 75.5256 109.447
82.181 78.5061 108.129
82.3687 76.714 107.397
82.6124 75.7107 107.896
84.0068 76.2993 110.958
83.918 77.4331 111.214
84.3227 76.4136 111.757
84.0492 78.1568 111.405
84.0251 75.4417 110.852
84.66 75.5566 112.281
84.5722 76.5139 112.617
82.5386 80.3976 110.739
82.0838 80.4431 110.066
81.9611 81.1093 110.719
81.9176 80.54 109.098
83.0014 80.2756 111.45
82.4496 81.8086 111.068
81.8475 81.9516 110.152
81.8986 80.2271 107.167
81.8632 79.8579 106.143
81.6155 80.9542 106.494
81.924 79.5883 105.103
82.0878 78.9478 105.626
81.9036 79.4153 107.77
81.8364 80.455 108.071
81.6526 81.9457 106.807
81.9506 81.6442 105.949
81.9746 78.088 106.251
81.9725 78.2307 107.304
82.0298 77.1746 106.829
82.188 78.0652 105.371
82.2972 76.6257 106.481
81.5723 81.2686 108.551
81.6248 81.8831 107.926
81.572 81.9391 109.12
81.8223 82.5872 107.204
82.1525 82.3312 109.329
82.0779 81.1351 105.016
82.103 80.0954 104.573
82.2672 80.489 104.064
82.1915 79.215 104.211
82.1542 82.1568 105.422
82.7668 80.9012 103.743
82.5097 80.0604 103.094
87.7199 78.3219 110.261
87.1281 79.2094 109.932
87.5295 79.0143 109.644
86.6122 80.2522 109.606
86.7173 79.4844 110.084
88.0067 78.2967 111.299
88.5524 78.2437 111.095
87.8664 78.8199 109.407
87.262 79.5331 109.014
86.9374 79.1494 110.885
87.5478 78.5682 111.565
87.0731 78.795 111.686
88.3386 78.3186 112.387
86.335 79.7997 110.266
86.5815 79.1531 111.805
87.3054 78.6496 112.555
89.024 78.3212 110.845
88.606 78.4738 109.824
89.3364 78.1636 110.393
88.2347 78.7141 109.173
89.3347 78.1375 111.791
90.1059 77.7881 110.833
89.6917 77.9044 110.005
86.6584 80.3891 108.692
86.4381 80.8168 108.96
86.3061 81.3559 108.299
86.034 81.2648 109.219
87.1208 80.0437 108.201
86.0705 81.4991 107.498
85.7048 82.2024 107.881
85.2374 81.2789 109.634
84.903 81.1581 110.231
84.7 82.0478 109.431
84.5198 81.0676 110.711
85.0488 80.5145 111.034
85.7635 80.4844 109.977
85.5992 81.4085 109.402
84.4041 82.838 108.763
84.1084 82.4612 108.957
85.5225 79.9452 111.211
85.951 80.0172 110.783
86.0899 79.5216 111.581
85.1674 80.002 111.885
86.2512 79.2585 112.373
85.5141 82.0974 108.828
84.906 83.0639 108.525
85.3616 82.7711 108.19
84.2334 83.3549 107.914
85.2458 83.0002 107.391
83.7499 82.1566 109.314
83.931 81.6875 110.508
83.3619 82.098 110.112
84.0763 81.1223 111.396
83.4956 82.6974 108.473
82.7778 82.2603 109.572
82.9353 81.9867 110.786
86.5501 73.5277 107.443
87.281 73.2584 108.099
87.0375 73.7312 107.532
88.1153 72.9599 108.63
87.6373 72.7921 108.832
86.1128 73.6129 107.626
85.8635 73.693 106.818
86.8538 74.2783 107.064
87.4845 74.0986 107.654
87.2117 72.7805 109.128
86.3546 73.3513 108.447
86.7657 72.905 109.644
85.6385 73.372 107.469
87.9695 72.3985 109.668
87.1397 72.9676 110.912
86.109 72.8663 109.867
85.7571 74.2238 106.432
86.2691 74.6444 106.638
85.6921 74.8597 106.097
86.6522 75.0623 106.912
85.1935 74.1654 106.618
85.1238 75.1313 105.714
85.527 75.4721 105.901
88.162 73.8593 108.335
88.5075 73.0915 108.649
88.8376 73.4963 108.552
88.8408 72.7197 108.87
87.7211 74.5073 108.09
88.9575 73.7418 108.627
89.4639 73.2681 108.771
83.7928 73.8513 107.472
84.3526 73.7811 106.743
83.7737 74.127 106.044
84.7714 73.8318 106.529
84.89 73.5717 107.096
83.9028 73.2971 108.316
83.3043 73.3756 107.819
83.2764 74.8679 105.837
83.6927 75.1338 105.525
85.1886 73.2425 107.938
84.74 73.0107 108.713
85.4742 72.852 109.18
84.4922 72.9697 109.317
85.8075 72.727 110.155
82.939 74.1646 107.398
82.8286 74.8384 106.051
82.4857 74.9913 106.84
82.8972 75.6535 105.4
83.0976 73.3995 108.273
82.4407 74.9521 107.495
82.4399 75.5611 106.464
84.1492 75.2051 105.507
84.6176 74.5701 106.129
84.6265 75.234 105.692
83.7189 75.7186 104.978
84.6138 75.5923 105.203
89.585 77.1932 113.992
89.6476 77.6141 113.387
90.2502 76.9465 113.318
89.5063 77.6697 112.473
88.9983 77.8856 112.854
88.8516 77.4185 114.32
89.4106 76.8047 114.495
90.6656 76.1154 113.047
90.8128 76.7129 112.682
88.4958 78.2511 113.289
88.4752 78.0942 114.184
87.936 78.5562 113.539
89.6788 75.9117 114.052
90.2076 75.5651 113.23
89.7972 75.2388 113.324
90.7771 77.3116 112.191
90.0956 77.7807 112.177
90.5995 77.7822 111.638
87.6396 79.3999 107.736
87.3409 79.7971 106.85
87.7329 78.6642 107.619
87.2359 80.3606 105.733
87.0994 81.1908 106.126
87.4524 79.784 107.951
88.02 79.0923 108.532
88.2379 77.9032 108.284
87.9147 78.2538 107.408
86.7416 81.1609 106.652
87.0185 80.6072 107.501
86.3482 81.2415 107.119
88.5034 78.3659 108.976
88.6602 77.6847 108.774
89.2919 77.8709 109.306
87.6354 78.5364 106.773
87.3966 79.3185 105.773
87.4513 78.5541 105.854
89.2512 72.3759 111.622
90.1959 71.9556 110.767
89.3144 72.074 110.744
90.682 72.2712 109.967
90.8926 72.1868 110.861
89.1995 72.3186 112.324
88.5837 72.4393 112.17
88.5159 72.2723 110.351
89.1483 72.1554 109.728
90.5741 72.4609 111.928
89.7813 72.3868 112.668
89.9306 73.1927 112.506
88.0752 72.6411 111.834
87.993 72.6372 111.071
87.5374 72.8733 111.489
89.615 72.4408 109.186
90.2913 72.4201 109.353
89.8448 72.6624 108.747
87.4178 75.8102 107.478
86.7674 76.2435 106.736
87.1284 75.6405 107.232
86.1548 76.663 106.021
86.4327 76.7133 105.933
87.6696 76.1193 107.447
88.0266 75.5304 107.849
87.451 75.093 107.595
86.8576 75.3673 107.024
86.7626 76.8798 105.93
87.378 76.5446 106.731
87.1557 76.9796 105.882
88.3971 75.1028 108.291
88.0894 74.7995 108.01
88.7537 74.2798 108.102
86.333 75.6823 106.464
85.9387 76.4825 106.125
85.7369 75.9781 105.997
84.7768 78.7555 113.222
84.2124 79.2203 112.404
84.4936 79.6229 112.577
83.7231 79.7575 111.824
84.1138 78.7861 111.818
85.2618 78.2171 113.35
85.4338 78.6659 113.919
84.7865 79.7618 112.393
84.2475 80.4609 112.167
84.5807 78.0032 111.951
85.1039 77.6153 112.837
84.9944 77.082 112.502
85.6645 79.0351 113.44
85.353 79.4568 112.491
85.9371 79.0526 112.805
83.6072 81.0745 111.905
83.1587 80.7545 112.177
83.0266 81.4016 111.46
82.6102 83.393 106.055
83.0433 83.6441 105.594
83.0852 83.4762 106.726
83.6522 83.5939 105.301
83.3512 83.2896 104.798
82.4158 82.7482 105.669
82.2556 83.1212 106.598
83.2298 83.1329 107.641
83.5905 83.6216 107.252
83.1214 82.7016 104.437
82.6326 82.4519 104.898
83.0421 81.7196 104.084
82.2912 82.8727 107.538
82.9736 82.6297 108.008
82.535 82.4112 108.669
84.1263 83.608 106.927
84.1201 83.632 105.965
84.7257 83.3761 106.752
83.6744 73.4135 110.819
84.1789 72.909 111.509
83.7709 72.8313 110.421
84.8962 72.7422 112.033
84.469 73.3109 112.762
83.7641 74.316 111.024
83.4841 74.2658 110.169
83.3525 72.8214 109.278
84.1541 72.3777 109.942
84.481 74.0657 112.7
84.0621 74.4531 111.803
84.4679 74.6516 112.624
83.1176 74.5835 109.312
82.9577 73.6071 108.849
82.8098 74.7132 108.37
84.875 72.6846 110.277
85.2605 72.5823 111.466
85.6368 72.889 110.641
83.1049 77.6284 103.839
82.5538 77.564 104.03
83.0035 77.0208 104.416
82.2593 77.7916 104.612
82.191 78.2169 103.688
83.2085 77.9495 103.035
83.5747 77.6176 103.666
83.2969 76.0753 104.445
82.8719 76.2169 104.721
82.3393 78.7845 103.219
82.8291 78.3853 102.625
82.544 79.2028 102.708
83.7941 76.8828 104.049
83.7489 76.0862 104.372
84.2293 76.2059 104.618
82.4992 76.3212 105.232
82.3143 77.2163 105.141
82.2715 76.3944 105.681
POLYGONS 1280  5120
3 164 162 163
3 163 44 164
3 162 43 163
3 164 42 162
3 166 165 163
3 163 43 166
3 165 44 163
3 166 14 165
3 168 167 162
3 162 42 168
3 167 43 162
3 168 13 167
3 170 169 164
3 164 44 170
3 169 42 164
3 170 12 169
3 173 171 172
3 172 46 173
3 171 43 172
3 173 45 171
3 167 174 172
3 172 43 167
3 174 46 172
3 167 13 174
3 175 166 171
3 171 45 175
3 166 43 171
3 175 14 166
3 177 176 173
3 173 46 177
3 176 45 173
3 177 4 176
3 180 178 179
3 179 48 180
3 178 42 179
3 180 47 178
3 169 181 179
3 179 42 169
3 181 48 179
3 169 12 181
3 182 168 178
3 178 47 182
3 168 42 178
3 182 13 168
3 184 183 180
3 180 48 184
3 183 47 180
3 184 8 183
3 187 185 186
3 186 50 187
3 185 44 186
3 187 49 185
3 165 188 186
3 186 44 165
3 188 50 186
3 165 14 188
3 189 170 185
3 185 49 189
3 170 44 185
3 189 12 170
3 191 190 187
3 187 50 191
3 190 49 187
3 191 7 190
3 194 192 193
3 193 53 194
3 192 52 193
3 194 51 192
3 196 195 193
3 193 52 196
3 195 53 193
3 196 16 195
3 198 197 192
3 192 51 198
3 197 52 192
3 198 14 197
3 200 199 194
3 194 53 200
3 199 51 194
3 200 15 199
3 203 201 202
3 202 45 203
3 201 52 202
3 203 54 201
3 197 175 202
3 202 52 197
3 175 45 202
3 197 14 175
3 204 196 201
3 201 54 204
3 196 52 201
3 204 16 196
3 176 205 203
3 203 45 176
3 205 54 203
3 176 4 205
3 208 206 207
3 207 55 208
3 206 51 207
3 208 50 206
3 199 209 207
3 207 51 199
3 209 55 207
3 199 15 209
3 188 198 206
3 206 50 188
3 198 51 206
3 188 14 198
3 210 191 208
3 208 55 210
3 191 50 208
3 210 7 191
3 213 211 212
3 212 57 213
3 211 53 212
3 213 56 211
3 195 214 212
3 212 53 195
3 214 57 212
3 195 16 214
3 215 200 211
3 211 56 215
3 200 53 211
3 215 15 200
3 217 216 213
3 213 57 217
3 216 56 213
3 217 9 216
3 220 218 219
3 219 60 220
3 218 59 219
3 220 58 218
3 222 221 219
3 219 59 222
3 221 60 219
3 222 19 221
3 224 223 218
3 218 58 224
3 223 59 218
3 224 18 223
3 226 225 220
3 220 60 226
3 225 58 220
3 226 17 225
3 229 227 228
3 228 62 229
3 227 59 228
3 229 61 227
3 223 230 228
3 228 59 223
3 230 62 228
3 223 18 230
3 231 222 227
3 227 61 231
3 222 59 227
3 231 19 222
3 233 232 229
3 229 62 233
3 232 61 229
3 233 5 232
3 236 234 235
3 235 64 236
3 234 58 235
3 236 63 234
3 225 237 235
3 235 58 225
3 237 64 235
3 225 17 237
3 238 224 234
3 234 63 238
3 224 58 234
3 238 18 224
3 240 239 236
3 236 64 240
3 239 63 236
3 240 6 239
3 243 241 242
3 242 66 243
3 241 60 242
3 243 65 241
3 221 244 242
3 242 60 221
3 244 66 242
3 221 19 244
3 245 226 241
3 241 65 245
3 226 60 241
3 245 17 226
3 247 246 243
3 243 66 247
3 246 65 243
3 247 11 246
3 250 248 249
3 249 69 250
3 248 68 249
3 250 67 248
3 252 251 249
3 249 68 252
3 251 69 249
3 252 18 251
3 254 253 248
3 248 67 254
3 253 68 248
3 254 21 253
3 256 255 250
3 250 69 256
3 255 67 250
3 256 20 255
3 259 257 258
3 258 70 259
3 257 68 258
3 259 62 257
3 253 260 258
3 258 68 253
3 260 70 258
3 253 21 260
3 230 252 257
3 257 62 230
3 252 68 257
3 230 18 252
3 261 233 259
3 259 70 261
3 233 62 259
3 261 5 233
3 264 262 263
3 263 72 264
3 262 67 263
3 264 71 262
3 255 265 263
3 263 67 255
3 265 72 263
3 255 20 265
3 266 254 262
3 262 71 266
3 254 67 262
3 266 21 254
3 268 267 264
3 264 72 268
3 267 71 264
3 268 10 267
3 271 269 270
3 270 63 271
3 269 69 270
3 271 73 269
3 251 238 270
3 270 69 251
3 238 63 270
3 251 18 238
3 272 256 269
3 269 73 272
3 256 69 269
3 272 20 256
3 239 273 271
3 271 63 239
3 273 73 271
3 239 6 273
3 276 274 275
3 275 76 276
3 274 75 275
3 276 74 274
3 278 277 275
3 275 75 278
3 277 76 275
3 278 24 277
3 280 279 274
3 274 74 280
3 279 75 274
3 280 23 279
3 282 281 276
3 276 76 282
3 281 74 276
3 282 22 281
3 285 283 284
3 284 78 285
3 283 75 284
3 285 77 283
3 279 286 284
3 284 75 279
3 286 78 284
3 279 23 286
3 287 278 283
3 283 77 287
3 278 75 283
3 287 24 278
3 289 288 285
3 285 78 289
3 288 77 285
3 289 0 288
3 292 290 291
3 291 80 292
3 290 74 291
3 292 79 290
3 281 293 291
3 291 74 281
3 293 80 291
3 281 22 293
3 294 280 290
3 290 79 294
3 280 74 290
3 294 23 280
3 296 295 292
3 292 80 296
3 295 79 292
3 296 4 295
3 299 297 298
3 298 82 299
3 297 76 298
3 299 81 297
3 277 300 298
3 298 76 277
3 300 82 298
3 277 24 300
3 301 282 297
3 297 81 301
3 282 76 297
3 301 22 282
3 303 302 299
3 299 82 303
3 302 81 299
3 303 3 302
3 306 304 305
3 305 85 306
3 304 84 305
3 306 83 304
3 308 307 305
3 305 84 308
3 307 85 305
3 308 26 307
3 310 309 304
3 304 83 310
3 309 84 304
3 310 24 309
3 312 311 306
3 306 85 312
3 311 83 306
3 312 25 311
3 315 313 314
3 314 77 315
3 313 84 314
3 315 86 313
3 309 287 314
3 314 84 309
3 287 77 314
3 309 24 287
3 316 308 313
3 313 86 316
3 308 84 313
3 316 26 308
3 288 317 315
3 315 77 288
3 317 86 315
3 288 0 317
3 320 318 319
3 319 87 320
3 318 83 319
3 320 82 318
3 311 321 319
3 319 83 311
3 321 87 319
3 311 25 321
3 300 310 318
3 318 82 300
3 310 83 318
3 300 24 310
3 322 303 320
3 320 87 322
3 303 82 320
3 322 3 303
3 325 323 324
3 324 89 325
3 323 85 324
3 325 88 323
3 307 326 324
3 324 85 307
3 326 89 324
3 307 26 326
3 327 312 323
3 323 88 327
3 312 85 323
3 327 25 312
3 329 328 325
3 325 89 329
3 328 88 325
3 329 5 328
3 332 330 331
3 331 92 332
3 330 91 331
3 332 90 330
3 334 333 331
3 331 91 334
3 333 92 331
3 334 29 333
3 336 335 330
3 330 90 336
3 335 91 330
3 336 28 335
3 338 337 332
3 332 92 338
3 337 90 332
3 338 27 337
3 341 339 340
3 340 94 341
3 339 91 340
3 341 93 339
3 335 342 340
3 340 91 335
3 342 94 340
3 335 28 342
3 343 334 339
3 339 93 343
3 334 91 339
3 343 29 334
3 345 344 341
3 341 94 345
3 344 93 341
3 345 2 344
3 348 346 347
3 347 96 348
3 346 90 347
3 348 95 346
3 337 349 347
3 347 90 337
3 349 96 347
3 337 27 349
3 350 336 346
3 346 95 350
3 336 90 346
3 350 28 336
3 352 351 348
3 348 96 352
3 351 95 348
3 352 7 351
3 355 353 354
3 354 98 355
3 353 92 354
3 355 97 353
3 333 356 354
3 354 92 333
3 356 98 354
3 333 29 356
3 357 338 353
3 353 97 357
3 338 92 353
3 357 27 338
3 359 358 355
3 355 98 359
3 358 97 355
3 359 1 358
3 362 360 361
3 361 101 362
3 360 100 361
3 362 99 360
3 364 363 361
3 361 100 364
3 363 101 361
3 364 31 363
3 366 365 360
3 360 99 366
3 365 100 360
3 366 29 365
3 368 367 362
3 362 101 368
3 367 99 362
3 368 30 367
3 371 369 370
3 370 93 371
3 369 100 370
3 371 102 369
3 365 343 370
3 370 100 365
3 343 93 370
3 365 29 343
3 372 364 369
3 369 102 372
3 364 100 369
3 372 31 364
3 344 373 371
3 371 93 344
3 373 102 371
3 344 2 373
3 376 374 375
3 375 103 376
3 374 99 375
3 376 98 374
3 367 377 375
3 375 99 367
3 377 103 375
3 367 30 377
3 356 366 374
3 374 98 356
3 366 99 374
3 356 29 366
3 378 359 376
3 376 103 378
3 359 98 376
3 378 1 359
3 381 379 380
3 380 105 381
3 379 101 380
3 381 104 379
3 363 382 380
3 380 101 363
3 382 105 380
3 363 31 382
3 383 368 379
3 379 104 383
3 368 101 379
3 383 30 368
3 385 384 381
3 381 105 385
3 384 104 381
3 385 6 384
3 388 386 387
3 387 108 388
3 386 107 387
3 388 106 386
3 390 389 387
3 387 107 390
3 389 108 387
3 390 34 389
3 392 391 386
3 386 106 392
3 391 107 386
3 392 33 391
3 394 393 388
3 388 108 394
3 393 106 388
3 394 32 393
3 397 395 396
3 396 110 397
3 395 107 396
3 397 109 395
3 391 398 396
3 396 107 391
3 398 110 396
3 391 33 398
3 399 390 395
3 395 109 399
3 390 107 395
3 399 34 390
3 401 400 397
3 397 110 401
3 400 109 397
3 401 8 400
3 404 402 403
3 403 112 404
3 402 106 403
3 404 111 402
3 393 405 403
3 403 106 393
3 405 112 403
3 393 32 405
3 406 392 402
3 402 111 406
3 392 106 402
3 406 33 392
3 408 407 404
3 404 112 408
3 407 111 404
3 408 0 407
3 411 409 410
3 410 114 411
3 409 108 410
3 411 113 409
3 389 412 410
3 410 108 389
3 412 114 410
3 389 34 412
3 413 394 409
3 409 113 413
3 394 108 409
3 413 32 394
3 415 414 411
3 411 114 415
3 414 113 411
3 415 11 414
3 418 416 417
3 417 117 418
3 416 116 417
3 418 115 416
3 420 419 417
3 417 116 420
3 419 117 417
3 420 36 419
3 422 421 416
3 416 115 422
3 421 116 416
3 422 34 421
3 424 423 418
3 418 117 424
3 423 115 418
3 424 35 423
3 427 425 426
3 426 109 427
3 425 116 426
3 427 118 425
3 421 399 426
3 426 116 421
3 399 109 426
3 421 34 399
3 428 420 425
3 425 118 428
3 420 116 425
3 428 36 420
3 400 429 427
3 427 109 400
3 429 118 427
3 400 8 429
3 432 430 431
3 431 119 432
3 430 115 431
3 432 114 430
3 423 433 431
3 431 115 423
3 433 119 431
3 423 35 433
3 412 422 430
3 430 114 412
3 422 115 430
3 412 34 422
3 434 415 432
3 432 119 434
3 415 114 432
3 434 11 415
3 437 435 436
3 436 121 437
3 435 117 436
3 437 120 435
3 419 438 436
3 436 117 419
3 438 121 436
3 419 36 438
3 439 424 435
3 435 120 439
3 424 117 435
3 439 35 424
3 441 440 437
3 437 121 441
3 440 120 437
3 441 1 440
3 444 442 443
3 443 124 444
3 442 123 443
3 444 122 442
3 446 445 443
3 443 123 446
3 445 124 443
3 446 39 445
3 448 447 442
3 442 122 448
3 447 123 442
3 448 38 447
3 450 449 444
3 444 124 450
3 449 122 444
3 450 37 449
3 453 451 452
3 452 126 453
3 451 123 452
3 453 125 451
3 447 454 452
3 452 123 447
3 454 126 452
3 447 38 454
3 455 446 451
3 451 125 455
3 446 123 451
3 455 39 446
3 457 456 453
3 453 126 457
3 456 125 453
3 457 9 456
3 460 458 459
3 459 128 460
3 458 122 459
3 460 127 458
3 449 461 459
3 459 122 449
3 461 128 459
3 449 37 461
3 462 448 458
3 458 127 462
3 448 122 458
3 462 38 448
3 464 463 460
3 460 128 464
3 463 127 460
3 464 10 463
3 467 465 466
3 466 130 467
3 465 124 466
3 467 129 465
3 445 468 466
3 466 124 445
3 468 130 466
3 445 39 468
3 469 450 465
3 465 129 469
3 450 124 465
3 469 37 450
3 471 470 467
3 467 130 471
3 470 129 467
3 471 3 470
3 474 472 473
3 473 133 474
3 472 132 473
3 474 131 472
3 476 475 473
3 473 132 476
3 475 133 473
3 476 38 475
3 478 477 472
3 472 131 478
3 477 132 472
3 478 41 477
3 480 479 474
3 474 133 480
3 479 131 474
3 480 40 479
3 483 481 482
3 482 134 483
3 481 132 482
3 483 126 481
3 477 484 482
3 482 132 477
3 484 134 482
3 477 41 484
3 454 476 481
3 481 126 454
3 476 132 481
3 454 38 476
3 485 457 483
3 483 134 485
3 457 126 483
3 485 9 457
3 488 486 487
3 487 136 488
3 486 131 487
3 488 135 486
3 479 489 487
3 487 131 479
3 489 136 487
3 479 40 489
3 490 478 486
3 486 135 490
3 478 131 486
3 490 41 478
3 492 491 488
3 488 136 492
3 491 135 488
3 492 2 491
3 495 493 494
3 494 127 495
3 493 133 494
3 495 137 493
3 475 462 494
3 494 133 475
3 462 127 494
3 475 38 462
3 496 480 493
3 493 137 496
3 480 133 493
3 496 40 480
3 463 497 495
3 495 127 463
3 497 137 495
3 463 10 497
3 500 498 499
3 499 140 500
3 498 139 499
3 500 138 498
3 502 501 499
3 499 139 502
3 501 140 499
3 502 33 501
3 504 503 498
3 498 138 504
3 503 139 498
3 504 13 503
3 506 505 500
3 500 140 506
3 505 138 500
3 506 23 505
3 509 507 508
3 508 47 509
3 507 139 508
3 509 110 507
3 503 182 508
3 508 139 503
3 182 47 508
3 503 13 182
3 398 502 507
3 507 110 398
3 502 139 507
3 398 33 502
3 183 401 509
3 509 47 183
3 401 110 509
3 183 8 401
3 512 510 511
3 511 79 512
3 510 138 511
3 512 46 510
3 505 294 511
3 511 138 505
3 294 79 511
3 505 23 294
3 174 504 510
3 510 46 174
3 504 138 510
3 174 13 504
3 295 177 512
3 512 79 295
3 177 46 512
3 295 4 177
3 515 513 514
3 514 111 515
3 513 140 514
3 515 78 513
3 501 406 514
3 514 140 501
3 406 111 514
3 501 33 406
3 286 506 513
3 513 78 286
3 506 140 513
3 286 23 506
3 407 289 515
3 515 111 407
3 289 78 515
3 407 0 289
3 518 516 517
3 517 143 518
3 516 142 517
3 518 141 516
3 520 519 517
3 517 142 520
3 519 143 517
3 520 19 519
3 522 521 516
3 516 141 522
3 521 142 516
3 522 32 521
3 524 523 518
3 518 143 524
3 523 141 518
3 524 26 523
3 527 525 526
3 526 113 527
3 525 142 526
3 527 66 525
3 521 413 526
3 526 142 521
3 413 113 526
3 521 32 413
3 244 520 525
3 525 66 244
3 520 142 525
3 244 19 520
3 414 247 527
3 527 113 414
3 247 66 527
3 414 11 247
3 530 528 529
3 529 86 530
3 528 141 529
3 530 112 528
3 523 316 529
3 529 141 523
3 316 86 529
3 523 26 316
3 405 522 528
3 528 112 405
3 522 141 528
3 405 32 522
3 317 408 530
3 530 86 317
3 408 112 530
3 317 0 408
3 533 531 532
3 532 61 533
3 531 143 532
3 533 89 531
3 519 231 532
3 532 143 519
3 231 61 532
3 519 19 231
3 326 524 531
3 531 89 326
3 524 143 531
3 326 26 524
3 232 329 533
3 533 61 232
3 329 89 533
3 232 5 329
3 536 534 535
3 535 146 536
3 534 145 535
3 536 144 534
3 538 537 535
3 535 145 538
3 537 146 535
3 538 22 537
3 540 539 534
3 534 144 540
3 539 145 534
3 540 16 539
3 542 541 536
3 536 146 542
3 541 144 536
3 542 39 541
3 545 543 544
3 544 54 545
3 543 145 544
3 545 80 543
3 539 204 544
3 544 145 539
3 204 54 544
3 539 16 204
3 293 538 543
3 543 80 293
3 538 145 543
3 293 22 538
3 205 296 545
3 545 54 205
3 296 80 545
3 205 4 296
3 548 546 547
3 547 125 548
3 546 144 547
3 548 57 546
3 541 455 547
3 547 144 541
3 455 125 547
3 541 39 455
3 214 540 546
3 546 57 214
3 540 144 546
3 214 16 540
3 456 217 548
3 548 125 456
3 217 57 548
3 456 9 217
3 551 549 550
3 550 81 551
3 549 146 550
3 551 130 549
3 537 301 550
3 550 146 537
3 301 81 550
3 537 22 301
3 468 542 549
3 549 130 468
3 542 146 549
3 468 39 542
3 302 471 551
3 551 81 302
3 471 130 551
3 302 3 471
3 554 552 553
3 553 149 554
3 552 148 553
3 554 147 552
3 556 555 553
3 553 148 556
3 555 149 553
3 556 21 555
3 558 557 552
3 552 147 558
3 557 148 552
3 558 25 557
3 560 559 554
3 554 149 560
3 559 147 554
3 560 37 559
3 563 561 562
3 562 88 563
3 561 148 562
3 563 70 561
3 557 327 562
3 562 148 557
3 327 88 562
3 557 25 327
3 260 556 561
3 561 70 260
3 556 148 561
3 260 21 556
3 328 261 563
3 563 88 328
3 261 70 563
3 328 5 261
3 566 564 565
3 565 129 566
3 564 147 565
3 566 87 564
3 559 469 565
3 565 147 559
3 469 129 565
3 559 37 469
3 321 558 564
3 564 87 321
3 558 147 564
3 321 25 558
3 470 322 566
3 566 129 470
3 322 87 566
3 470 3 322
3 569 567 568
3 568 71 569
3 567 149 568
3 569 128 567
3 555 266 568
3 568 149 555
3 266 71 568
3 555 21 266
3 461 560 567
3 567 128 461
3 560 149 567
3 461 37 560
3 267 464 569
3 569 71 267
3 464 128 569
3 267 10 464
3 572 570 571
3 571 152 572
3 570 151 571
3 572 150 570
3 574 573 571
3 571 151 574
3 573 152 571
3 574 27 573
3 576 575 570
3 570 150 576
3 575 151 570
3 576 12 575
3 578 577 572
3 572 152 578
3 577 150 572
3 578 36 577
3 581 579 580
3 580 49 581
3 579 151 580
3 581 96 579
3 575 189 580
3 580 151 575
3 189 49 580
3 575 12 189
3 349 574 579
3 579 96 349
3 574 151 579
3 349 27 574
3 190 352 581
3 581 49 190
3 352 96 581
3 190 7 352
3 584 582 583
3 583 118 584
3 582 150 583
3 584 48 582
3 577 428 583
3 583 150 577
3 428 118 583
3 577 36 428
3 181 576 582
3 582 48 181
3 576 150 582
3 181 12 576
3 429 184 584
3 584 118 429
3 184 48 584
3 429 8 184
3 587 585 586
3 586 97 587
3 585 152 586
3 587 121 585
3 573 357 586
3 586 152 573
3 357 97 586
3 573 27 357
3 438 578 585
3 585 121 438
3 578 152 585
3 438 36 578
3 358 441 587
3 587 97 358
3 441 121 587
3 358 1 441
3 590 588 589
3 589 155 590
3 588 154 589
3 590 153 588
3 592 591 589
3 589 154 592
3 591 155 589
3 592 17 591
3 594 593 588
3 588 153 594
3 593 154 588
3 594 30 593
3 596 595 590
3 590 155 596
3 595 153 590
3 596 35 595
3 599 597 598
3 598 104 599
3 597 154 598
3 599 64 597
3 593 383 598
3 598 154 593
3 383 104 598
3 593 30 383
3 237 592 597
3 597 64 237
3 592 154 597
3 237 17 592
3 384 240 599
3 599 104 384
3 240 64 599
3 384 6 240
3 602 600 601
3 601 120 602
3 600 153 601
3 602 103 600
3 595 439 601
3 601 153 595
3 439 120 601
3 595 35 439
3 377 594 600
3 600 103 377
3 594 153 600
3 377 30 594
3 440 378 602
3 602 120 440
3 378 103 602
3 440 1 378
3 605 603 604
3 604 65 605
3 603 155 604
3 605 119 603
3 591 245 604
3 604 155 591
3 245 65 604
3 591 17 245
3 433 596 603
3 603 119 433
3 596 155 603
3 433 35 596
3 246 434 605
3 605 65 246
3 434 119 605
3 246 11 434
3 608 606 607
3 607 158 608
3 606 157 607
3 608 156 606
3 610 609 607
3 607 157 610
3 609 158 607
3 610 15 609
3 612 611 606
3 606 156 612
3 611 157 606
3 612 28 611
3 614 613 608
3 608 158 614
3 613 156 608
3 614 41 613
3 617 615 616
3 616 95 617
3 615 157 616
3 617 55 615
3 611 350 616
3 616 157 611
3 350 95 616
3 611 28 350
3 209 610 615
3 615 55 209
3 610 157 615
3 209 15 610
3 351 210 617
3 617 95 351
3 210 55 617
3 351 7 210
3 620 618 619
3 619 135 620
3 618 156 619
3 620 94 618
3 613 490 619
3 619 156 613
3 490 135 619
3 613 41 490
3 342 612 618
3 618 94 342
3 612 156 618
3 342 28 612
3 491 345 620
3 620 135 491
3 345 94 620
3 491 2 345
3 623 621 622
3 622 56 623
3 621 158 622
3 623 134 621
3 609 215 622
3 622 158 609
3 215 56 622
3 609 15 215
3 484 614 621
3 621 134 484
3 614 158 621
3 484 41 614
3 216 485 623
3 623 56 216
3 485 134 623
3 216 9 485
3 626 624 625
3 625 161 626
3 624 160 625
3 626 159 624
3 628 627 625
3 625 160 628
3 627 161 625
3 628 31 627
3 630 629 624
3 624 159 630
3 629 160 624
3 630 20 629
3 632 631 626
3 626 161 632
3 631 159 626
3 632 40 631
3 635 633 634
3 634 73 635
3 633 160 634
3 635 105 633
3 629 272 634
3 634 160 629
3 272 73 634
3 629 20 272
3 382 628 633
3 633 105 382
3 628 160 633
3 382 31 628
3 273 385 635
3 635 73 273
3 385 105 635
3 273 6 385
3 638 636 637
3 637 137 638
3 636 159 637
3 638 72 636
3 631 496 637
3 637 159 631
3 496 137 637
3 631 40 496
3 265 630 636
3 636 72 265
3 630 159 636
3 265 20 630
3 497 268 638
3 638 137 497
3 268 72 638
3 497 10 268
3 641 639 640
3 640 102 641
3 639 161 640
3 641 136 639
3 627 372 640
3 640 161 627
3 372 102 640
3 627 31 372
3 489 632 639
3 639 136 489
3 632 161 639
3 489 40 632
3 373 492 641
3 641 102 373
3 492 136 641
3 373 2 492
