# vtk DataFile Version 3.0
this file was written using fslvtkio
ASCII
DATASET POLYDATA
POINTS 642 float
112.32 112.472 66.2248
85.7354 111.834 65.961
87.604 93.8173 66.1157
110.08 94.5412 67.2129
106.368 110.325 81.055
105.577 93.4229 54.8263
94.884 92.739 54.5659
90.9053 110.697 80.3341
98.2494 119.369 72.5328
99.3122 93.6694 73.3566
99.5398 87.5321 61.2421
98.6615 111.295 60.1472
91.9365 118.813 81.0547
103.583 118.324 81.0011
97.9547 112.603 83.504
95.1489 104.269 77.4518
102.04 104.628 76.8042
97.1538 102.222 59.583
100.057 88.6143 53.837
102.372 102.461 58.2295
96.0596 86.1612 55.3915
106.403 84.5866 55.4771
107.685 103.673 74.4828
110.388 114.094 76.0676
106.188 106.75 66.4974
109.462 92.4823 60.3709
105.471 105.815 61.961
87.3939 113.923 75.3159
90.6501 104.238 73.1374
93.0419 104.827 64.6057
93.3067 103.976 61.1602
90.343 90.42 58.3772
105.811 113.889 62.7349
107.701 119.457 71.3117
97.9292 118.837 65.4536
91.371 112.771 62.5355
89.7854 119.218 71.0135
107.257 88.6205 63.2034
99.3235 88.9243 69.2052
105.946 91.0552 71.0526
91.4554 88.1118 62.5205
92.4807 92.6033 71.2176
97.8587 117.74 79.6112
102.059 118.746 85.0106
93.5683 119.042 85.1557
103.623 111.05 84.3915
108.929 117.348 84.0814
101.171 117.688 75.9895
95.3774 117.956 76.0719
87.733 116.124 82.5187
93.3218 110.93 83.9973
96.6241 107.628 81.4836
100.77 107.743 81.6141
98.7916 104.151 77.2607
104.657 106.181 80.2644
92.8083 106.739 80.147
96.9642 98.1948 74.852
101.653 98.2119 75.0448
98.5803 94.2576 55.7365
101.194 94.1137 56.2792
99.6104 101.256 59.7779
103.441 96.9967 56.0263
102.38 90.3543 53.1019
98.0897 90.6786 53.8945
96.8696 95.5598 55.9525
97.1779 107.3 59.4218
101.353 107.462 58.6764
100.537 86.4192 56.4123
102.199 87.2487 54.7871
98.0381 87.7272 55.2413
105.821 88.6599 53.6347
102.849 83.9208 58.0594
97.4056 84.7298 58.7637
94.9534 88.5054 52.8437
107.849 110.188 74.968
109.752 109.625 70.6612
105.528 106.485 70.4569
109.961 109.683 65.7155
110.641 113.036 70.8733
109.633 114.037 80.4283
106.931 108.371 77.2725
108.187 99.5833 70.2452
104.645 102.153 66.1908
103.093 101.661 63.9067
106.683 106.229 64.1988
105.076 98.5328 60.526
110.151 109.386 63.1047
110.376 93.2131 64.1718
107.285 93.1071 57.1776
105.757 99.286 57.6143
89.9566 109.968 73.8587
91.756 106.123 69.0377
88.7774 109.275 69.3871
92.9317 100.762 65.5625
91.214 99.7411 69.1335
91.4068 108.509 76.4652
88.3379 113.487 78.8595
87.3195 112.684 70.0783
89.6046 109.476 65.7073
92.5954 104.036 62.9867
94.5182 97.3801 62.1665
91.4124 96.3486 58.4884
88.0558 92.3866 62.2577
89.1996 108.746 62.959
93.6402 97.5575 57.1056
92.1144 91.4393 55.6556
107.334 118.068 66.4036
103.339 120.462 67.9399
102.278 117.529 63.8111
97.7678 120.285 68.6621
103.55 119.862 72.2854
110.329 116.54 68.2653
109.628 113.694 63.6715
102.38 112.375 61.2287
97.8148 114.647 62.7054
93.9121 116.733 63.6439
93.2273 120.362 67.3671
89.5555 117.781 66.0111
93.3051 119.971 71.8246
94.8484 111.952 61.0042
87.8634 112.652 63.5579
86.9567 116.106 68.5222
102.436 89.114 67.3875
103.864 83.9557 72.7012
108.344 87.057 69.1575
102.781 91.5099 72.7672
98.6515 87.9468 73.1011
98.3161 90.2185 65.0138
103.469 88.5501 62.4872
111.22 89.7219 66.1815
109.054 92.6529 69.8648
91.5485 89.647 68.1175
93.5232 86.6884 71.6249
95.5859 88.6705 66.9737
95.5425 92.4179 73.0179
89.0716 93.4568 69.1621
87.5144 89.0075 64.568
95.2835 87.6244 61.983
108.521 117.198 80.0089
105.216 117.63 75.8583
110.75 117.554 73.0734
107.427 110.069 61.1561
104.115 109.011 59.7785
104.464 104.134 59.2067
104.62 96.488 73.8957
105.333 103.463 76.2175
107.383 96.7574 72.2136
111.58 89.8078 62.676
108.932 88.7126 57.474
106.524 85.2634 59.1951
91.1909 118.26 76.2814
86.8233 117.789 79.3952
86.3354 117.66 72.7691
90.5937 108.788 61.0784
94.8678 102.716 59.5606
94.2429 108.226 60.0859
91.4382 98.2277 71.9143
91.8668 103.598 76.0237
93.7207 97.7259 74.1117
93.6922 84.8584 58.6164
92.0414 86.8944 55.5699
88.7194 88.3378 61.2459
99.2104 118.166 82.4596
97.9328 118.289 84.0354
96.2115 118.082 82.5734
96.1557 115.463 84.9512
99.8686 114.678 84.4734
102.464 118.008 82.856
100.554 117.858 79.9487
95.0531 118.094 80.2259
92.8773 118.047 82.9269
103.141 114.727 85.9182
105.302 118.899 84.7871
106.302 115.187 85.6159
106.017 118.017 82.9985
101.289 111.808 84.5159
105.161 111.511 83.3198
107.979 113.811 84.0329
99.634 117.832 77.6298
96.5634 117.816 77.8195
98.2127 117.658 75.6698
94.0338 117.862 78.9142
102.225 117.627 78.6309
99.6136 119.018 74.7109
96.7625 118.918 74.534
90.1635 119.056 85.028
93.1827 114.461 85.5517
90.3981 115.006 84.7662
95.5633 111.89 84.8488
89.6768 117.835 82.9863
89.664 113.18 82.6483
92.348 111.87 82.7061
98.6086 107.953 81.4371
99.7893 105.769 79.771
97.6527 105.335 80.4413
100.507 104.885 77.2898
101.552 105.247 80.2658
99.5384 110.245 83.1377
97.1695 110.104 82.9248
95.7644 105.349 80.3241
97.1037 104.663 77.4502
102.748 106.521 81.2945
101.68 109.116 83.0326
103.89 109.058 82.3962
103.476 104.652 79.0996
105.269 108.597 80.9315
95.325 109.552 82.7964
94.6857 107.225 81.3064
93.4512 109.169 81.7412
93.9104 104.979 79.1592
92.0651 109.362 80.3569
97.8455 101.985 76.0287
100.322 102.223 75.688
99.1227 98.7826 75.5435
102.028 102.026 75.2034
96.283 101.913 75.5806
98.0995 96.3715 73.9674
100.408 96.7111 74.0118
99.8591 94.2693 56.3178
100.69 97.6635 58.1928
98.601 97.4979 58.3056
100.418 101.882 59.0379
101.211 99.2139 58.9589
99.9676 91.5414 54.7602
99.6516 91.9352 55.1216
98.0992 99.1658 59.5111
98.7524 102.006 59.985
101.737 95.3705 55.4894
101.383 91.7109 53.7619
102.783 93.3275 53.842
100.307 89.9578 53.1602
102.669 99.0622 57.84
104.132 95.214 54.7898
104.209 92.1926 53.9213
98.7274 91.7358 54.1528
98.2461 95.014 56.105
97.5547 93.2043 54.306
97.4585 97.5192 58.1304
99.9125 90.0395 54.661
95.8683 92.5414 53.8784
95.83 94.9007 55.458
98.8019 104.573 59.2294
100.283 104.335 59.2312
99.3778 106.976 59.7146
102.149 105.254 58.9611
96.8644 105.256 59.2239
97.7852 109.48 59.545
100.078 109.414 59.5772
100.586 86.6079 55.6942
99.9824 87.4413 55.2252
98.6799 86.6373 55.8333
99.5274 87.7542 54.7301
101.405 87.8293 53.9679
103.95 85.7697 54.6568
102.799 85.5547 55.6297
98.3342 86.5685 56.2754
96.4872 86.6735 55.0713
101.723 88.7329 52.3374
104.164 87.7685 52.3448
104.181 89.9738 52.74
106.233 86.6575 53.8055
105.681 90.6553 54.4557
101.503 84.8491 56.8427
98.8656 84.8496 56.9549
99.7841 84.3276 58.5189
97.2623 85.3992 56.9648
104.623 83.7411 56.5532
101.033 86.2346 59.6668
98.427 85.4359 60.1165
96.9338 88.7147 52.9901
99.1088 89.3166 53.7044
96.5575 90.2948 52.7939
95.1354 87.0699 53.8668
94.4729 90.2461 53.693
108.806 109.733 72.5325
107.352 108.317 70.4986
107.091 108.551 72.537
105.361 107.421 68.1589
108.35 107.773 68.4845
110.102 111.52 72.9395
109.183 111.699 74.8687
107.186 107.683 74.5737
106.861 105.704 72.7204
108.944 109.724 67.9565
109.451 111.757 70.8511
110.523 111.123 68.197
110.393 113.794 73.5598
109.364 107.539 66.2475
112.219 110.604 66.506
112.429 112.221 68.5552
108.575 113.028 77.3508
108.193 110.116 76.8531
107.904 112.377 79.0756
107.696 106.165 75.8583
109.982 114.018 77.6758
108.475 112.991 82.1438
106.612 109.9 78.9373
106.557 103.973 70.4338
104.915 105.236 68.0396
106.512 101.522 68.3251
103.972 105.702 66.4174
107.381 102.439 72.1084
108.528 97.2675 68.5344
107.175 98.6776 66.6473
104.324 103.089 63.6949
105.113 102.126 62.1786
103.121 98.8659 62.2104
106.175 102.223 61.3918
105.796 106.163 63.0531
106.769 105.409 65.0783
103.352 105.367 65.1587
104.896 96.6396 62.3177
106.052 94.7092 60.0241
107.793 108.544 63.4944
108.764 108.575 64.5235
110.745 110.044 64.456
107.222 108.002 62.3594
111.926 110.891 64.644
103.47 102.074 64.838
104.819 97.0603 63.5549
106.317 97.4191 65.1283
109.178 93.5139 62.39
110.433 93.7382 65.8065
106.772 96.2142 58.4678
105.643 99.7736 59.2217
107.301 96.7037 56.9314
105.693 102.235 60.0836
108.114 92.5854 58.478
106.595 93.6643 55.9828
106.215 96.5651 55.8726
90.7962 108.103 71.6588
90.7316 107.93 69.2505
88.9847 109.169 71.6464
90.4093 107.631 66.7918
92.1639 106.471 66.7254
91.047 105.739 71.602
91.075 107.859 73.604
89.1738 111.761 73.8937
88.1434 111.028 71.906
92.6929 104.277 67.1449
91.9283 103.731 69.4182
91.9687 100.651 67.4377
91.6819 102.628 70.7823
93.8048 104.029 65.4657
91.4084 97.3612 65.7202
89.7682 96.8839 67.6304
90.2589 109.694 75.6664
89.3394 112.273 75.9391
90.0043 111.749 77.6543
87.744 113.725 76.8677
90.9201 106.389 74.7719
91.2657 109.895 78.2269
89.7124 112.665 80.1693
88.9863 111.444 70.1722
89.84 109.512 67.3775
88.8344 111.013 67.7708
90.7271 106.793 65.3675
88.1364 112.871 72.3547
86.7567 112.101 68.159
87.4366 110.418 66.1932
94.0286 99.9499 62.147
94.062 96.3066 60.4576
93.8656 99.2951 61.0204
91.4308 93.1199 58.1783
92.4553 92.9891 59.9946
94.8397 101.885 63.6158
92.5253 103.556 63.6255
93.4285 103.034 61.9138
92.6915 99.6895 59.846
92.8538 94.9304 62.1683
94.5615 100.51 64.1646
92.0958 96.2162 63.9776
89.3345 91.6143 60.4639
87.5209 93.1185 64.2671
90.6835 106.842 64.671
92.479 108.078 63.4935
90.3906 109.65 64.6402
92.6487 107.099 62.4227
87.0841 110.25 64.4401
92.1333 97.7594 57.8296
91.0675 94.7419 56.8536
92.8071 94.6167 56.0399
91.5878 91.68 57.054
92.9695 100.588 59.5801
94.3133 95.193 55.9338
93.2072 92.1999 54.8468
105.708 119.45 66.742
103.223 118.997 65.3527
105.189 117.908 64.559
100.407 119.156 65.2355
101.098 120.413 67.147
105.36 120.745 69.2183
107.419 119.863 68.6959
106.776 116.447 64.5084
104.545 115.859 63.5836
100.864 120.723 69.1012
103.159 120.639 70.0872
100.724 120.43 70.6716
105.697 119.772 71.471
98.2439 119.461 67.1706
97.7006 120.427 70.4561
100.739 119.765 72.4185
108.802 117.955 67.5876
108.861 116.378 65.1376
110.403 115.577 66.0589
107.888 114.519 63.3429
109.212 118.555 69.8369
111.563 114.099 66.9732
110.943 112.765 64.3862
102.416 115.05 62.5947
100.097 116.565 63.6446
100.407 113.94 62.3973
98.0624 116.743 64.3207
104.033 113.059 61.9417
100.606 111.788 60.5657
98.2256 113.176 61.1013
93.5667 118.892 64.8271
91.233 119.394 66.1198
91.7711 116.867 64.2679
89.876 119.323 68.1803
91.2019 120.73 68.7709
95.3509 120.017 66.6838
95.7785 118.407 64.9138
91.7968 114.667 63.259
89.742 115.644 64.5139
92.9788 120.737 69.4696
95.5227 120.43 68.2901
95.2441 120.91 70.4068
91.178 119.943 71.2854
95.7413 119.762 72.399
96.0327 116.338 63.5566
93.7915 114.767 62.3236
95.8872 114.33 61.6267
93.2228 112.441 61.5806
96.6549 111.692 60.3361
88.0274 115.816 65.5333
88.0211 117.597 67.5627
87.0565 114.878 66.341
88.5578 118.11 69.8013
89.2065 113.767 63.4259
86.8271 111.726 64.2478
86.2594 113.442 66.9181
102.943 82.57 69.4722
107.537 82.8807 70.5952
104.364 88.8149 68.0056
107.899 86.2851 71.3026
106.735 85.1293 71.9567
102.748 85.8492 70.4547
101.735 87.8217 68.9576
104.354 89.9403 65.6759
106.518 88.4895 66.4768
104.291 87.7127 72.4222
101.636 86.7287 72.386
101.875 89.4171 73.252
99.7162 88.4503 70.6902
104.758 90.519 71.684
100.939 92.5993 73.2978
99.2237 89.8864 73.2498
100.558 89.4917 66.5571
102.52 90.2089 64.9946
100.801 88.7086 64.4188
104.831 89.2487 62.9541
99.0415 89.8461 68.121
98.666 88.2509 63.3681
101.34 87.9765 61.7246
109.075 89.1049 68.0445
108.857 89.3723 70.0593
110.303 90.8162 68.5896
107.076 91.0302 70.4984
108.954 88.2006 65.2893
111.959 91.4152 67.0655
109.964 93.9447 68.5247
91.6061 88.2719 69.7459
94.1499 84.8965 69.3928
93.002 88.9473 67.3314
96.7074 89.5924 68.2828
97.0582 86.8949 70.3152
92.9031 89.4241 71.1922
91.7143 90.8402 69.6742
91.5477 88.8663 65.5355
93.3403 88.5706 65.0893
96.622 87.2546 72.0819
94.6896 89.1044 72.3853
96.8622 89.7412 73.1061
94.0821 92.2981 72.0904
97.3593 93.0739 73.7604
90.6882 91.4649 68.4795
89.8536 89.7331 66.3174
88.2887 90.7492 67.1679
90.1801 88.3982 64.1035
90.513 92.8905 70.497
88.452 93.8146 67.6627
87.2943 90.8308 65.9486
95.2633 89.0914 64.7364
97.1101 89.9006 66.4984
96.8263 89.2025 63.8004
93.55 87.8915 62.7609
96.8828 87.2801 61.6936
106.65 116.815 77.9951
107.797 118.024 75.3773
108.895 116.806 76.2587
109.345 117.967 71.8673
106.767 118.472 73.2661
104.231 117.248 78.2315
106.017 117.738 80.7888
110.382 116.323 77.7409
110.507 116.086 74.5693
104.829 118.581 73.6856
103.226 117.7 75.9859
102.041 119.136 74.3681
108.681 117.74 81.7182
111.062 115.708 79.6951
109.79 115.434 82.3652
110.374 114.644 71.5164
110.672 116.45 70.0215
111.235 114.048 68.6885
105.588 109.454 60.3519
104.431 106.421 59.365
105.538 107.328 60.3851
103.14 102.722 58.7932
103.177 105.98 59.0065
105.23 111.661 61.0899
107.091 112.269 61.8467
106.553 107.86 61.3342
104.929 105.219 60.6689
102.826 108.126 59.3249
103.567 110.934 60.4049
101.852 109.996 59.7075
108.531 112.001 62.4894
108.626 109.052 62.0088
110.062 110.918 63.1177
104.868 102 59.1526
103.499 100.747 58.7262
104.891 98.2395 56.6657
104.96 99.8985 74.8759
106.463 100.127 74.1988
106.031 96.7027 73.1746
107.191 100.542 73.218
107.157 103.121 75.5681
103.664 103.948 76.4551
103.453 100.654 75.2845
105.403 93.1862 72.4173
106.977 93.5196 71.7837
106.008 106.07 76.8934
104.892 105.223 78.2418
105.605 107.628 79.0239
103.221 96.9728 74.7837
104.104 93.1675 73.2489
101.904 94.4948 74.0307
107.804 94.5742 70.9256
108.123 98.4927 71.4217
108.884 96.033 69.8438
109.687 89.2606 59.9351
108.288 86.1927 57.9293
108.55 87.6133 61.0756
106.842 83.9466 57.5587
107.504 86.2662 56.1814
109.734 90.7899 58.8435
111.301 91.3915 61.3374
109.109 88.5408 62.5473
107.392 86.5746 61.5296
107.383 87.5796 54.6237
108.067 90.487 56.955
106.866 90.8386 55.5777
112.213 91.8439 63.1437
111.492 88.8085 64.5612
112.139 91.499 65.38
105.427 85.5797 60.7784
105.135 83.3758 57.8415
102.953 86.0115 60.0288
89.5899 117.594 78.3154
86.9662 117.481 76.289
88.6697 118.505 75.2756
86.9035 115.234 73.764
85.5787 115.88 77.2106
89.2451 119.104 80.9013
92.0286 117.765 78.7569
90.0101 118.837 73.3608
87.5577 118.81 71.9732
85.6178 115.433 78.8585
86.6038 117.725 81.105
87.0305 114.478 80.7884
93.2948 118.229 76.3134
92.018 118.956 73.7206
94.5339 118.869 73.9494
86.8655 116.245 70.3552
86.8062 114.618 71.3273
86.8842 113.656 68.6555
93.0657 106.229 60.5898
94.4486 105.318 59.6628
92.6677 108.368 60.4035
95.4966 105.754 58.8475
96.2 102.056 59.355
94.0418 103.333 60.398
92.4475 106.713 61.5737
90.9149 110.879 61.4823
92.8919 110.663 60.9424
96.1674 99.1077 58.5221
94.225 100.117 58.5276
95.4475 97.1845 56.9284
89.7015 108.182 61.878
89.3263 111.234 62.1703
87.4559 110.07 62.6278
94.2417 110.363 60.0749
95.6477 107.7 59.3098
95.9396 109.705 59.8605
92.042 101.182 73.815
93.3748 100.92 74.9656
92.5137 98.1097 73.3035
94.7141 101.619 75.5239
94.0256 104.122 76.4104
91.2524 103.746 74.7121
90.9302 101.214 72.6514
91.4829 95.1863 71.9053
92.8811 94.4373 72.8563
93.261 105.641 77.9155
92.0232 106.211 76.3246
92.4899 107.901 78.481
90.7063 99.2482 70.923
91.0209 95.9193 70.6021
90.1528 96.4933 69.1218
94.3161 94.5273 73.6223
95.1588 97.6338 74.8731
96.2737 95.1362 74.0924
91.9769 85.2377 57.0224
90.7112 87.0606 58.2387
91.2603 85.9105 59.4299
89.7449 89.008 59.533
91.2364 88.5671 57.2917
93.5604 86.0047 54.9761
94.2811 85.2477 56.5463
92.6518 86.1238 60.6833
89.952 87.6951 61.7967
92.2235 89.5005 56.1697
93.5976 87.2892 53.9753
93.4754 89.3453 54.2588
95.3746 84.5467 57.0672
94.3635 85.5081 60.264
96.5321 85.7318 59.8289
88.1322 88.1661 63.2921
88.5493 90.7395 61.6096
87.3055 90.9941 64.1779
POLYGONS 1280  5120
3 164 162 163
3 163 44 164
3 162 43 163
3 164 42 162
3 166 165 163
3 163 43 166
3 165 44 163
3 166 14 165
3 168 167 162
3 162 42 168
3 167 43 162
3 168 13 167
3 170 169 164
3 164 44 170
3 169 42 164
3 170 12 169
3 173 171 172
3 172 46 173
3 171 43 172
3 173 45 171
3 167 174 172
3 172 43 167
3 174 46 172
3 167 13 174
3 175 166 171
3 171 45 175
3 166 43 171
3 175 14 166
3 177 176 173
3 173 46 177
3 176 45 173
3 177 4 176
3 180 178 179
3 179 48 180
3 178 42 179
3 180 47 178
3 169 181 179
3 179 42 169
3 181 48 179
3 169 12 181
3 182 168 178
3 178 47 182
3 168 42 178
3 182 13 168
3 184 183 180
3 180 48 184
3 183 47 180
3 184 8 183
3 187 185 186
3 186 50 187
3 185 44 186
3 187 49 185
3 165 188 186
3 186 44 165
3 188 50 186
3 165 14 188
3 189 170 185
3 185 49 189
3 170 44 185
3 189 12 170
3 191 190 187
3 187 50 191
3 190 49 187
3 191 7 190
3 194 192 193
3 193 53 194
3 192 52 193
3 194 51 192
3 196 195 193
3 193 52 196
3 195 53 193
3 196 16 195
3 198 197 192
3 192 51 198
3 197 52 192
3 198 14 197
3 200 199 194
3 194 53 200
3 199 51 194
3 200 15 199
3 203 201 202
3 202 45 203
3 201 52 202
3 203 54 201
3 197 175 202
3 202 52 197
3 175 45 202
3 197 14 175
3 204 196 201
3 201 54 204
3 196 52 201
3 204 16 196
3 176 205 203
3 203 45 176
3 205 54 203
3 176 4 205
3 208 206 207
3 207 55 208
3 206 51 207
3 208 50 206
3 199 209 207
3 207 51 199
3 209 55 207
3 199 15 209
3 188 198 206
3 206 50 188
3 198 51 206
3 188 14 198
3 210 191 208
3 208 55 210
3 191 50 208
3 210 7 191
3 213 211 212
3 212 57 213
3 211 53 212
3 213 56 211
3 195 214 212
3 212 53 195
3 214 57 212
3 195 16 214
3 215 200 211
3 211 56 215
3 200 53 211
3 215 15 200
3 217 216 213
3 213 57 217
3 216 56 213
3 217 9 216
3 220 218 219
3 219 60 220
3 218 59 219
3 220 58 218
3 222 221 219
3 219 59 222
3 221 60 219
3 222 19 221
3 224 223 218
3 218 58 224
3 223 59 218
3 224 18 223
3 226 225 220
3 220 60 226
3 225 58 220
3 226 17 225
3 229 227 228
3 228 62 229
3 227 59 228
3 229 61 227
3 223 230 228
3 228 59 223
3 230 62 228
3 223 18 230
3 231 222 227
3 227 61 231
3 222 59 227
3 231 19 222
3 233 232 229
3 229 62 233
3 232 61 229
3 233 5 232
3 236 234 235
3 235 64 236
3 234 58 235
3 236 63 234
3 225 237 235
3 235 58 225
3 237 64 235
3 225 17 237
3 238 224 234
3 234 63 238
3 224 58 234
3 238 18 224
3 240 239 236
3 236 64 240
3 239 63 236
3 240 6 239
3 243 241 242
3 242 66 243
3 241 60 242
3 243 65 241
3 221 244 242
3 242 60 221
3 244 66 242
3 221 19 244
3 245 226 241
3 241 65 245
3 226 60 241
3 245 17 226
3 247 246 243
3 243 66 247
3 246 65 243
3 247 11 246
3 250 248 249
3 249 69 250
3 248 68 249
3 250 67 248
3 252 251 249
3 249 68 252
3 251 69 249
3 252 18 251
3 254 253 248
3 248 67 254
3 253 68 248
3 254 21 253
3 256 255 250
3 250 69 256
3 255 67 250
3 256 20 255
3 259 257 258
3 258 70 259
3 257 68 258
3 259 62 257
3 253 260 258
3 258 68 253
3 260 70 258
3 253 21 260
3 230 252 257
3 257 62 230
3 252 68 257
3 230 18 252
3 261 233 259
3 259 70 261
3 233 62 259
3 261 5 233
3 264 262 263
3 263 72 264
3 262 67 263
3 264 71 262
3 255 265 263
3 263 67 255
3 265 72 263
3 255 20 265
3 266 254 262
3 262 71 266
3 254 67 262
3 266 21 254
3 268 267 264
3 264 72 268
3 267 71 264
3 268 10 267
3 271 269 270
3 270 63 271
3 269 69 270
3 271 73 269
3 251 238 270
3 270 69 251
3 238 63 270
3 251 18 238
3 272 256 269
3 269 73 272
3 256 69 269
3 272 20 256
3 239 273 271
3 271 63 239
3 273 73 271
3 239 6 273
3 276 274 275
3 275 76 276
3 274 75 275
3 276 74 274
3 278 277 275
3 275 75 278
3 277 76 275
3 278 24 277
3 280 279 274
3 274 74 280
3 279 75 274
3 280 23 279
3 282 281 276
3 276 76 282
3 281 74 276
3 282 22 281
3 285 283 284
3 284 78 285
3 283 75 284
3 285 77 283
3 279 286 284
3 284 75 279
3 286 78 284
3 279 23 286
3 287 278 283
3 283 77 287
3 278 75 283
3 287 24 278
3 289 288 285
3 285 78 289
3 288 77 285
3 289 0 288
3 292 290 291
3 291 80 292
3 290 74 291
3 292 79 290
3 281 293 291
3 291 74 281
3 293 80 291
3 281 22 293
3 294 280 290
3 290 79 294
3 280 74 290
3 294 23 280
3 296 295 292
3 292 80 296
3 295 79 292
3 296 4 295
3 299 297 298
3 298 82 299
3 297 76 298
3 299 81 297
3 277 300 298
3 298 76 277
3 300 82 298
3 277 24 300
3 301 282 297
3 297 81 301
3 282 76 297
3 301 22 282
3 303 302 299
3 299 82 303
3 302 81 299
3 303 3 302
3 306 304 305
3 305 85 306
3 304 84 305
3 306 83 304
3 308 307 305
3 305 84 308
3 307 85 305
3 308 26 307
3 310 309 304
3 304 83 310
3 309 84 304
3 310 24 309
3 312 311 306
3 306 85 312
3 311 83 306
3 312 25 311
3 315 313 314
3 314 77 315
3 313 84 314
3 315 86 313
3 309 287 314
3 314 84 309
3 287 77 314
3 309 24 287
3 316 308 313
3 313 86 316
3 308 84 313
3 316 26 308
3 288 317 315
3 315 77 288
3 317 86 315
3 288 0 317
3 320 318 319
3 319 87 320
3 318 83 319
3 320 82 318
3 311 321 319
3 319 83 311
3 321 87 319
3 311 25 321
3 300 310 318
3 318 82 300
3 310 83 318
3 300 24 310
3 322 303 320
3 320 87 322
3 303 82 320
3 322 3 303
3 325 323 324
3 324 89 325
3 323 85 324
3 325 88 323
3 307 326 324
3 324 85 307
3 326 89 324
3 307 26 326
3 327 312 323
3 323 88 327
3 312 85 323
3 327 25 312
3 329 328 325
3 325 89 329
3 328 88 325
3 329 5 328
3 332 330 331
3 331 92 332
3 330 91 331
3 332 90 330
3 334 333 331
3 331 91 334
3 333 92 331
3 334 29 333
3 336 335 330
3 330 90 336
3 335 91 330
3 336 28 335
3 338 337 332
3 332 92 338
3 337 90 332
3 338 27 337
3 341 339 340
3 340 94 341
3 339 91 340
3 341 93 339
3 335 342 340
3 340 91 335
3 342 94 340
3 335 28 342
3 343 334 339
3 339 93 343
3 334 91 339
3 343 29 334
3 345 344 341
3 341 94 345
3 344 93 341
3 345 2 344
3 348 346 347
3 347 96 348
3 346 90 347
3 348 95 346
3 337 349 347
3 347 90 337
3 349 96 347
3 337 27 349
3 350 336 346
3 346 95 350
3 336 90 346
3 350 28 336
3 352 351 348
3 348 96 352
3 351 95 348
3 352 7 351
3 355 353 354
3 354 98 355
3 353 92 354
3 355 97 353
3 333 356 354
3 354 92 333
3 356 98 354
3 333 29 356
3 357 338 353
3 353 97 357
3 338 92 353
3 357 27 338
3 359 358 355
3 355 98 359
3 358 97 355
3 359 1 358
3 362 360 361
3 361 101 362
3 360 100 361
3 362 99 360
3 364 363 361
3 361 100 364
3 363 101 361
3 364 31 363
3 366 365 360
3 360 99 366
3 365 100 360
3 366 29 365
3 368 367 362
3 362 101 368
3 367 99 362
3 368 30 367
3 371 369 370
3 370 93 371
3 369 100 370
3 371 102 369
3 365 343 370
3 370 100 365
3 343 93 370
3 365 29 343
3 372 364 369
3 369 102 372
3 364 100 369
3 372 31 364
3 344 373 371
3 371 93 344
3 373 102 371
3 344 2 373
3 376 374 375
3 375 103 376
3 374 99 375
3 376 98 374
3 367 377 375
3 375 99 367
3 377 103 375
3 367 30 377
3 356 366 374
3 374 98 356
3 366 99 374
3 356 29 366
3 378 359 376
3 376 103 378
3 359 98 376
3 378 1 359
3 381 379 380
3 380 105 381
3 379 101 380
3 381 104 379
3 363 382 380
3 380 101 363
3 382 105 380
3 363 31 382
3 383 368 379
3 379 104 383
3 368 101 379
3 383 30 368
3 385 384 381
3 381 105 385
3 384 104 381
3 385 6 384
3 388 386 387
3 387 108 388
3 386 107 387
3 388 106 386
3 390 389 387
3 387 107 390
3 389 108 387
3 390 34 389
3 392 391 386
3 386 106 392
3 391 107 386
3 392 33 391
3 394 393 388
3 388 108 394
3 393 106 388
3 394 32 393
3 397 395 396
3 396 110 397
3 395 107 396
3 397 109 395
3 391 398 396
3 396 107 391
3 398 110 396
3 391 33 398
3 399 390 395
3 395 109 399
3 390 107 395
3 399 34 390
3 401 400 397
3 397 110 401
3 400 109 397
3 401 8 400
3 404 402 403
3 403 112 404
3 402 106 403
3 404 111 402
3 393 405 403
3 403 106 393
3 405 112 403
3 393 32 405
3 406 392 402
3 402 111 406
3 392 106 402
3 406 33 392
3 408 407 404
3 404 112 408
3 407 111 404
3 408 0 407
3 411 409 410
3 410 114 411
3 409 108 410
3 411 113 409
3 389 412 410
3 410 108 389
3 412 114 410
3 389 34 412
3 413 394 409
3 409 113 413
3 394 108 409
3 413 32 394
3 415 414 411
3 411 114 415
3 414 113 411
3 415 11 414
3 418 416 417
3 417 117 418
3 416 116 417
3 418 115 416
3 420 419 417
3 417 116 420
3 419 117 417
3 420 36 419
3 422 421 416
3 416 115 422
3 421 116 416
3 422 34 421
3 424 423 418
3 418 117 424
3 423 115 418
3 424 35 423
3 427 425 426
3 426 109 427
3 425 116 426
3 427 118 425
3 421 399 426
3 426 116 421
3 399 109 426
3 421 34 399
3 428 420 425
3 425 118 428
3 420 116 425
3 428 36 420
3 400 429 427
3 427 109 400
3 429 118 427
3 400 8 429
3 432 430 431
3 431 119 432
3 430 115 431
3 432 114 430
3 423 433 431
3 431 115 423
3 433 119 431
3 423 35 433
3 412 422 430
3 430 114 412
3 422 115 430
3 412 34 422
3 434 415 432
3 432 119 434
3 415 114 432
3 434 11 415
3 437 435 436
3 436 121 437
3 435 117 436
3 437 120 435
3 419 438 436
3 436 117 419
3 438 121 436
3 419 36 438
3 439 424 435
3 435 120 439
3 424 117 435
3 439 35 424
3 441 440 437
3 437 121 441
3 440 120 437
3 441 1 440
3 444 442 443
3 443 124 444
3 442 123 443
3 444 122 442
3 446 445 443
3 443 123 446
3 445 124 443
3 446 39 445
3 448 447 442
3 442 122 448
3 447 123 442
3 448 38 447
3 450 449 444
3 444 124 450
3 449 122 444
3 450 37 449
3 453 451 452
3 452 126 453
3 451 123 452
3 453 125 451
3 447 454 452
3 452 123 447
3 454 126 452
3 447 38 454
3 455 446 451
3 451 125 455
3 446 123 451
3 455 39 446
3 457 456 453
3 453 126 457
3 456 125 453
3 457 9 456
3 460 458 459
3 459 128 460
3 458 122 459
3 460 127 458
3 449 461 459
3 459 122 449
3 461 128 459
3 449 37 461
3 462 448 458
3 458 127 462
3 448 122 458
3 462 38 448
3 464 463 460
3 460 128 464
3 463 127 460
3 464 10 463
3 467 465 466
3 466 130 467
3 465 124 466
3 467 129 465
3 445 468 466
3 466 124 445
3 468 130 466
3 445 39 468
3 469 450 465
3 465 129 469
3 450 124 465
3 469 37 450
3 471 470 467
3 467 130 471
3 470 129 467
3 471 3 470
3 474 472 473
3 473 133 474
3 472 132 473
3 474 131 472
3 476 475 473
3 473 132 476
3 475 133 473
3 476 38 475
3 478 477 472
3 472 131 478
3 477 132 472
3 478 41 477
3 480 479 474
3 474 133 480
3 479 131 474
3 480 40 479
3 483 481 482
3 482 134 483
3 481 132 482
3 483 126 481
3 477 484 482
3 482 132 477
3 484 134 482
3 477 41 484
3 454 476 481
3 481 126 454
3 476 132 481
3 454 38 476
3 485 457 483
3 483 134 485
3 457 126 483
3 485 9 457
3 488 486 487
3 487 136 488
3 486 131 487
3 488 135 486
3 479 489 487
3 487 131 479
3 489 136 487
3 479 40 489
3 490 478 486
3 486 135 490
3 478 131 486
3 490 41 478
3 492 491 488
3 488 136 492
3 491 135 488
3 492 2 491
3 495 493 494
3 494 127 495
3 493 133 494
3 495 137 493
3 475 462 494
3 494 133 475
3 462 127 494
3 475 38 462
3 496 480 493
3 493 137 496
3 480 133 493
3 496 40 480
3 463 497 495
3 495 127 463
3 497 137 495
3 463 10 497
3 500 498 499
3 499 140 500
3 498 139 499
3 500 138 498
3 502 501 499
3 499 139 502
3 501 140 499
3 502 33 501
3 504 503 498
3 498 138 504
3 503 139 498
3 504 13 503
3 506 505 500
3 500 140 506
3 505 138 500
3 506 23 505
3 509 507 508
3 508 47 509
3 507 139 508
3 509 110 507
3 503 182 508
3 508 139 503
3 182 47 508
3 503 13 182
3 398 502 507
3 507 110 398
3 502 139 507
3 398 33 502
3 183 401 509
3 509 47 183
3 401 110 509
3 183 8 401
3 512 510 511
3 511 79 512
3 510 138 511
3 512 46 510
3 505 294 511
3 511 138 505
3 294 79 511
3 505 23 294
3 174 504 510
3 510 46 174
3 504 138 510
3 174 13 504
3 295 177 512
3 512 79 295
3 177 46 512
3 295 4 177
3 515 513 514
3 514 111 515
3 513 140 514
3 515 78 513
3 501 406 514
3 514 140 501
3 406 111 514
3 501 33 406
3 286 506 513
3 513 78 286
3 506 140 513
3 286 23 506
3 407 289 515
3 515 111 407
3 289 78 515
3 407 0 289
3 518 516 517
3 517 143 518
3 516 142 517
3 518 141 516
3 520 519 517
3 517 142 520
3 519 143 517
3 520 19 519
3 522 521 516
3 516 141 522
3 521 142 516
3 522 32 521
3 524 523 518
3 518 143 524
3 523 141 518
3 524 26 523
3 527 525 526
3 526 113 527
3 525 142 526
3 527 66 525
3 521 413 526
3 526 142 521
3 413 113 526
3 521 32 413
3 244 520 525
3 525 66 244
3 520 142 525
3 244 19 520
3 414 247 527
3 527 113 414
3 247 66 527
3 414 11 247
3 530 528 529
3 529 86 530
3 528 141 529
3 530 112 528
3 523 316 529
3 529 141 523
3 316 86 529
3 523 26 316
3 405 522 528
3 528 112 405
3 522 141 528
3 405 32 522
3 317 408 530
3 530 86 317
3 408 112 530
3 317 0 408
3 533 531 532
3 532 61 533
3 531 143 532
3 533 89 531
3 519 231 532
3 532 143 519
3 231 61 532
3 519 19 231
3 326 524 531
3 531 89 326
3 524 143 531
3 326 26 524
3 232 329 533
3 533 61 232
3 329 89 533
3 232 5 329
3 536 534 535
3 535 146 536
3 534 145 535
3 536 144 534
3 538 537 535
3 535 145 538
3 537 146 535
3 538 22 537
3 540 539 534
3 534 144 540
3 539 145 534
3 540 16 539
3 542 541 536
3 536 146 542
3 541 144 536
3 542 39 541
3 545 543 544
3 544 54 545
3 543 145 544
3 545 80 543
3 539 204 544
3 544 145 539
3 204 54 544
3 539 16 204
3 293 538 543
3 543 80 293
3 538 145 543
3 293 22 538
3 205 296 545
3 545 54 205
3 296 80 545
3 205 4 296
3 548 546 547
3 547 125 548
3 546 144 547
3 548 57 546
3 541 455 547
3 547 144 541
3 455 125 547
3 541 39 455
3 214 540 546
3 546 57 214
3 540 144 546
3 214 16 540
3 456 217 548
3 548 125 456
3 217 57 548
3 456 9 217
3 551 549 550
3 550 81 551
3 549 146 550
3 551 130 549
3 537 301 550
3 550 146 537
3 301 81 550
3 537 22 301
3 468 542 549
3 549 130 468
3 542 146 549
3 468 39 542
3 302 471 551
3 551 81 302
3 471 130 551
3 302 3 471
3 554 552 553
3 553 149 554
3 552 148 553
3 554 147 552
3 556 555 553
3 553 148 556
3 555 149 553
3 556 21 555
3 558 557 552
3 552 147 558
3 557 148 552
3 558 25 557
3 560 559 554
3 554 149 560
3 559 147 554
3 560 37 559
3 563 561 562
3 562 88 563
3 561 148 562
3 563 70 561
3 557 327 562
3 562 148 557
3 327 88 562
3 557 25 327
3 260 556 561
3 561 70 260
3 556 148 561
3 260 21 556
3 328 261 563
3 563 88 328
3 261 70 563
3 328 5 261
3 566 564 565
3 565 129 566
3 564 147 565
3 566 87 564
3 559 469 565
3 565 147 559
3 469 129 565
3 559 37 469
3 321 558 564
3 564 87 321
3 558 147 564
3 321 25 558
3 470 322 566
3 566 129 470
3 322 87 566
3 470 3 322
3 569 567 568
3 568 71 569
3 567 149 568
3 569 128 567
3 555 266 568
3 568 149 555
3 266 71 568
3 555 21 266
3 461 560 567
3 567 128 461
3 560 149 567
3 461 37 560
3 267 464 569
3 569 71 267
3 464 128 569
3 267 10 464
3 572 570 571
3 571 152 572
3 570 151 571
3 572 150 570
3 574 573 571
3 571 151 574
3 573 152 571
3 574 27 573
3 576 575 570
3 570 150 576
3 575 151 570
3 576 12 575
3 578 577 572
3 572 152 578
3 577 150 572
3 578 36 577
3 581 579 580
3 580 49 581
3 579 151 580
3 581 96 579
3 575 189 580
3 580 151 575
3 189 49 580
3 575 12 189
3 349 574 579
3 579 96 349
3 574 151 579
3 349 27 574
3 190 352 581
3 581 49 190
3 352 96 581
3 190 7 352
3 584 582 583
3 583 118 584
3 582 150 583
3 584 48 582
3 577 428 583
3 583 150 577
3 428 118 583
3 577 36 428
3 181 576 582
3 582 48 181
3 576 150 582
3 181 12 576
3 429 184 584
3 584 118 429
3 184 48 584
3 429 8 184
3 587 585 586
3 586 97 587
3 585 152 586
3 587 121 585
3 573 357 586
3 586 152 573
3 357 97 586
3 573 27 357
3 438 578 585
3 585 121 438
3 578 152 585
3 438 36 578
3 358 441 587
3 587 97 358
3 441 121 587
3 358 1 441
3 590 588 589
3 589 155 590
3 588 154 589
3 590 153 588
3 592 591 589
3 589 154 592
3 591 155 589
3 592 17 591
3 594 593 588
3 588 153 594
3 593 154 588
3 594 30 593
3 596 595 590
3 590 155 596
3 595 153 590
3 596 35 595
3 599 597 598
3 598 104 599
3 597 154 598
3 599 64 597
3 593 383 598
3 598 154 593
3 383 104 598
3 593 30 383
3 237 592 597
3 597 64 237
3 592 154 597
3 237 17 592
3 384 240 599
3 599 104 384
3 240 64 599
3 384 6 240
3 602 600 601
3 601 120 602
3 600 153 601
3 602 103 600
3 595 439 601
3 601 153 595
3 439 120 601
3 595 35 439
3 377 594 600
3 600 103 377
3 594 153 600
3 377 30 594
3 440 378 602
3 602 120 440
3 378 103 602
3 440 1 378
3 605 603 604
3 604 65 605
3 603 155 604
3 605 119 603
3 591 245 604
3 604 155 591
3 245 65 604
3 591 17 245
3 433 596 603
3 603 119 433
3 596 155 603
3 433 35 596
3 246 434 605
3 605 65 246
3 434 119 605
3 246 11 434
3 608 606 607
3 607 158 608
3 606 157 607
3 608 156 606
3 610 609 607
3 607 157 610
3 609 158 607
3 610 15 609
3 612 611 606
3 606 156 612
3 611 157 606
3 612 28 611
3 614 613 608
3 608 158 614
3 613 156 608
3 614 41 613
3 617 615 616
3 616 95 617
3 615 157 616
3 617 55 615
3 611 350 616
3 616 157 611
3 350 95 616
3 611 28 350
3 209 610 615
3 615 55 209
3 610 157 615
3 209 15 610
3 351 210 617
3 617 95 351
3 210 55 617
3 351 7 210
3 620 618 619
3 619 135 620
3 618 156 619
3 620 94 618
3 613 490 619
3 619 156 613
3 490 135 619
3 613 41 490
3 342 612 618
3 618 94 342
3 612 156 618
3 342 28 612
3 491 345 620
3 620 135 491
3 345 94 620
3 491 2 345
3 623 621 622
3 622 56 623
3 621 158 622
3 623 134 621
3 609 215 622
3 622 158 609
3 215 56 622
3 609 15 215
3 484 614 621
3 621 134 484
3 614 158 621
3 484 41 614
3 216 485 623
3 623 56 216
3 485 134 623
3 216 9 485
3 626 624 625
3 625 161 626
3 624 160 625
3 626 159 624
3 628 627 625
3 625 160 628
3 627 161 625
3 628 31 627
3 630 629 624
3 624 159 630
3 629 160 624
3 630 20 629
3 632 631 626
3 626 161 632
3 631 159 626
3 632 40 631
3 635 633 634
3 634 73 635
3 633 160 634
3 635 105 633
3 629 272 634
3 634 160 629
3 272 73 634
3 629 20 272
3 382 628 633
3 633 105 382
3 628 160 633
3 382 31 628
3 273 385 635
3 635 73 273
3 385 105 635
3 273 6 385
3 638 636 637
3 637 137 638
3 636 159 637
3 638 72 636
3 631 496 637
3 637 159 631
3 496 137 637
3 631 40 496
3 265 630 636
3 636 72 265
3 630 159 636
3 265 20 630
3 497 268 638
3 638 137 497
3 268 72 638
3 497 10 268
3 641 639 640
3 640 102 641
3 639 161 640
3 641 136 639
3 627 372 640
3 640 161 627
3 372 102 640
3 627 31 372
3 489 632 639
3 639 136 489
3 632 161 639
3 489 40 632
3 373 492 641
3 641 102 373
3 492 136 641
3 373 2 492
