# vtk DataFile Version 3.0
this file was written using fslvtkio
ASCII
DATASET POLYDATA
POINTS 642 float
77.9296 140.413 77.7726
73.3799 146.49 71.873
68.2266 131.99 74.7042
73.7261 126.756 81.005
75.1803 133.707 89.0184
76.0221 136.554 71.7464
73.64 137.992 67.6022
70.5848 137.825 82.8628
76.601 148.27 80.4766
69.4229 123.725 84.806
70.2719 122.235 71.7525
82.6247 148.987 66.7032
73.0328 144.323 82.8711
76.1078 141.481 86.1748
71.9262 135.702 88.1531
69.0566 130.666 85.0645
71.8821 127.386 90.6492
78.361 145.066 65.7719
75.2539 137.059 68.7148
81.8544 143.227 67.2383
71.6793 130.288 69.8281
72.1655 129.046 72.5595
74.8165 128.794 85.9364
77.3842 136.641 83.8118
76.0419 133.789 80.0283
73.8407 131.492 76.2058
77.3762 139.515 73.6575
71.9801 142.7 77.4651
68.6662 134.629 79.2585
70.8806 139.011 73.5888
74.1579 143.032 69.0289
69.9404 134.744 70.1419
81.3848 145.547 72.1858
78.4859 144.351 79.0975
79.9615 150.749 73.004
77.3875 150.626 68.0035
74.7984 149.782 75.6703
71.6124 122.433 77.8776
68.5403 119.025 78.5268
72.1642 120.949 84.833
68.4772 125.596 73.0151
68.6486 126.687 79.3231
74.5545 143.847 85.0774
73.8752 139.174 88.0743
72.8238 140.298 85.6385
73.5374 134.532 89.817
75.6978 137.574 87.7565
76.5116 145.464 83.2817
74.6735 147.807 82.2824
71.8894 140.965 82.8275
70.9454 137.078 85.5788
70.2527 133.081 87.1973
71.6254 131.241 90.1343
70.1398 128.913 88.1597
73.9225 130.525 90.6464
69.4658 134.441 84.1608
69.5098 127.021 84.9216
70.284 124.977 87.9475
77.7689 141.973 67.0005
78.1133 141.874 68.1901
80.8048 144.057 65.4458
77.8086 141.187 69.5972
75.7608 136.917 70.2795
74.7756 137.602 67.632
75.9435 141.786 67.4873
80.9132 147.401 65.0358
83.9997 146.215 66.1138
72.3819 128.544 70.242
73.4895 132.835 70.7035
73.6122 133.603 68.7764
74.3317 133.187 72.1915
71.689 125.198 71.9721
71.0762 125.495 69.1311
72.6162 134.597 67.9487
76.1113 132.536 84.9619
76.8028 134.958 81.9802
75.5301 131.051 82.9209
76.8199 137.556 79.1059
77.9768 138.647 80.8102
76.3705 135.193 86.5809
75.2339 131.024 87.9884
74.2712 127.372 83.4132
74.5743 130.319 80.5568
75.0504 133.066 77.8445
76.0628 136.797 77.1096
75.3308 135.943 75.2311
77.6384 140.173 75.5509
73.6607 128.646 78.6075
74.6064 134.051 73.7946
76.913 138.029 72.4509
70.6186 138.644 78.2777
69.6516 137.037 76.3101
71.6527 140.938 75.4729
68.9455 135.364 73.965
67.966 133.331 76.8313
69.704 136.485 81.0691
71.4242 140.284 80.3971
72.5982 145.049 74.5981
72.4487 143.044 72.7348
72.5632 141.054 71.1075
70.0948 137.121 71.4482
71.6244 138.4 69.3387
68.5652 133.073 72.1322
74.1974 145.311 70.2205
74.1208 140.427 68.3012
71.6772 136.396 68.2057
79.9239 145.374 75.2366
79.3469 147.682 75.7183
81.0468 148.31 72.0549
77.7529 149.593 76.5793
77.7282 146.476 79.5443
78.9125 142.368 78.261
79.3209 142.894 74.7166
83.202 147.139 69.2706
81.3865 150.653 69.1169
78.8226 153.031 69.8327
77.482 152.005 73.6887
76.1418 151.291 71.6304
75.6576 150.27 78.3725
80.1929 150.668 66.2081
75.2734 148.828 70.0037
74.1185 148.542 73.3468
70.837 118.269 78.0918
69.8974 117.266 82.9942
72.0423 120.374 81.3438
70.0569 120.597 85.6586
68.888 120.948 82.3261
68.933 119.193 74.2357
70.9856 121.907 74.938
72.7797 124.505 79.7092
72.8122 123.896 82.7638
68.2655 125.712 76.2598
68.0807 122.692 78.961
68.2749 122.086 75.376
68.4942 124.561 82.1341
68.2221 129.33 76.9458
68.5689 129.031 73.9279
68.6362 123.108 71.033
77.2635 139.328 85.0196
77.5364 143.104 82.8933
78.2282 140.769 81.8354
80.0723 142.73 71.9688
82.9277 144.137 69.673
79.4465 142.477 70.2634
72.1849 124.034 88.3609
73.986 127.317 89.1224
73.6367 125.029 85.9386
72.7392 126.69 77.0165
73.2521 130.026 74.6062
71.9721 125.484 74.8808
73.5127 147.584 79.5899
72.5839 144.083 79.839
72.9702 146.763 76.775
75.9294 147.347 67.6226
75.9014 144.744 66.7468
78.2261 148.233 65.7974
68.3044 130.816 79.5265
68.6409 132.452 82.1301
68.5499 128.617 82.2671
69.4773 127.533 70.2401
70.7358 132.449 69.506
69.2096 130.254 71.3404
74.2026 141.502 86.7235
73.132 139.824 86.9385
73.5888 142.22 85.5165
72.2745 137.937 86.924
72.8154 137.519 88.3003
75.0481 140.41 87.1261
75.2967 142.639 85.9628
73.7731 144.465 84.0112
72.7675 142.519 84.4319
73.7613 136.884 89.0484
74.8401 138.344 88.3333
74.659 136.297 88.8495
75.8132 139.395 86.8993
72.5953 135.203 89.3233
74.4996 134.118 89.5991
75.3357 135.523 88.2541
75.6459 144.798 84.3098
74.6635 146.123 83.857
75.7089 146.846 83.2089
73.7862 146.32 82.6216
76.3322 143.446 84.751
76.6097 147.183 82.0375
75.7852 148.26 81.7261
72.2638 140.765 84.363
71.8932 138.604 85.6956
71.3455 139.153 84.2697
71.3325 136.202 86.8875
72.4308 142.508 83.0317
71.2998 139.295 82.8326
70.8706 137.497 84.1384
70.8818 131.931 88.7641
70.8084 129.863 89.4423
70.1372 130.835 87.9409
70.8917 127.769 89.6155
71.6681 129.144 90.7914
71.7432 133.374 89.1451
70.9462 134.128 87.9622
69.6149 131.809 86.3852
69.5156 129.825 86.639
72.5934 130.721 90.6952
72.4127 132.989 90.3275
73.6045 132.387 90.3886
72.9664 128.939 91.3366
74.6368 132.132 89.914
70.545 135.148 86.4183
69.7726 133.742 85.6575
70.2496 135.73 84.9273
69.2338 132.482 84.6965
70.029 136.221 83.4681
69.6236 127.963 86.673
70.3473 126.822 88.1021
69.6772 126.035 86.5666
71.05 125.837 89.5305
69.2352 128.865 85.1848
69.2837 125.19 84.9861
69.7585 124.291 86.3418
78.4625 142.265 67.5197
80.0708 142.928 66.7548
79.2605 143.073 66.0437
81.7067 143.71 66.5593
80.0083 142.875 67.5747
76.559 139.943 68.5805
76.7701 140.399 67.954
78.1861 143.384 66.1697
79.5422 144.783 65.4717
77.964 141.709 68.7801
76.3494 139.527 69.2798
76.8803 139.356 69.7702
75.4982 136.861 69.4286
79.3982 142.861 68.656
77.0259 138.301 70.8868
76.0594 136.834 70.9352
76.2808 140.249 67.5739
76.9215 142.101 66.8116
75.5213 140.095 67.6022
77.059 143.62 66.0888
75.3768 137.519 67.9635
74.3403 137.963 67.3153
74.8701 139.902 67.9466
81.0998 145.777 64.876
82.3655 145.193 65.3818
82.4949 147.014 64.9455
83.6584 144.544 66.5544
79.6332 146.299 65.076
81.9935 148.441 65.5071
83.2823 147.765 66.2632
72.7661 130.45 70.5239
73.5692 132.61 69.5173
72.6321 130.922 69.7492
74.5792 135.027 68.5228
74.6302 134.952 69.5288
72.6858 130.728 71.5706
72.4785 128.806 71.4888
71.9602 129.205 69.3939
72.6635 132.169 69.6268
74.621 135.075 70.4061
73.9212 132.88 71.4437
74.9813 135.423 71.224
73.1121 131.033 72.6051
75.0974 135.057 72.0404
72.4792 126.88 70.8196
72.1013 127.027 69.3131
71.4933 124.991 70.4349
71.3309 127.884 69.0603
72.2572 127.019 72.1891
71.017 123.478 71.8557
70.2834 123.465 70.0112
73.4153 134.348 68.4705
74.2676 135.447 67.8939
73.8606 135.951 67.1824
72.3824 132.736 68.9735
73.0388 136.261 67.3569
76.7011 133.676 83.5178
76.0716 133.018 82.6171
75.8955 131.722 83.9984
75.7231 132.392 81.5253
76.4604 134.111 81.151
77.1216 135.563 82.9146
76.8762 134.626 84.3646
75.4831 130.542 85.5515
75.2285 129.742 84.368
76.9105 136.202 80.6076
77.2592 136.854 81.4907
77.3925 137.987 80.1309
77.5663 137.704 82.2757
76.4475 135.589 79.7621
77.7919 138.815 78.437
78.2039 139.403 79.3331
76.4126 133.859 85.7715
75.7785 131.718 86.4636
75.6533 133.006 87.0908
74.9458 129.785 87.0849
76.8976 135.88 85.1967
75.5801 134.357 87.665
75.1649 132.376 88.5798
74.7371 129.289 83.1566
75.0715 130.74 81.6865
74.4963 128.906 82.0058
75.0853 132.134 80.2968
74.5298 127.872 84.6536
74.1033 127.064 82.1578
74.2964 128.356 80.8424
75.3336 135.2 77.5966
75.7988 136.46 76.1212
74.8394 134.652 76.6074
76.427 137.66 74.5751
76.6667 138.03 75.455
75.778 135.325 78.7584
75.4854 133.614 78.8489
74.3682 132.355 77.0795
74.6649 133.762 75.8307
77.0145 138.226 76.3471
76.3826 137.016 78.1707
77.3411 138.567 77.3402
77.6961 139.94 74.5264
77.7469 140.36 76.6367
74.6869 131.709 79.1527
74.2351 130.947 78.2534
74.3685 129.658 79.4031
73.627 129.931 77.4272
73.7601 127.596 79.7992
75.0195 134.874 74.5767
76.0737 136.951 73.9688
75.5303 136.146 73.4137
77.2188 138.863 72.9358
74.2593 132.859 74.9708
75.4851 135.323 72.7767
76.5182 137.231 72.0365
70.3504 137.841 77.3244
70.7744 138.924 75.8544
71.063 139.96 76.8537
71.1765 139.959 74.5041
70.3342 137.958 74.911
69.2389 135.892 77.7723
69.7517 136.514 78.7876
71.3334 140.68 77.9205
71.8498 141.884 76.4216
69.2655 136.172 75.189
68.7818 135.111 76.6397
68.3343 134.443 75.4374
68.2804 134.155 78.0239
69.9579 137.034 73.8317
68.1858 133.682 74.2561
68.0887 132.613 75.667
70.2234 137.647 79.6221
70.9879 139.663 79.2929
70.5406 138.395 80.5666
71.6695 141.534 78.9684
69.0658 135.544 80.2687
70.2891 137.265 82.0114
71.0339 139.051 81.6836
72.0317 143.015 75.047
72.0966 142.016 74.1288
72.5799 143.935 73.7028
71.9451 140.95 73.2985
72.2423 144.021 75.9837
72.9916 145.845 73.2099
73.0981 144.869 72.3226
70.9285 139.149 70.9199
70.9559 137.983 70.3016
72.4733 139.883 70.4347
70.6872 136.439 69.7557
69.7112 135.988 70.5454
70.5304 138.087 72.3457
71.7426 140.116 72.3568
73.3742 142.056 69.9575
73.1372 140.607 69.4563
68.9776 135.26 71.5995
69.4893 136.197 72.6915
68.4555 134.462 72.8293
68.9309 133.819 70.9182
68.4176 132.485 73.4926
72.5141 142.07 71.9096
73.3299 143.218 70.635
73.0746 144.197 71.2701
74.2422 144.313 69.5647
73.8146 146.03 70.9646
72.8379 139.344 68.9146
71.5911 137.37 68.7833
72.5219 138.24 67.8862
70.7916 135.61 68.9799
74.2514 141.683 68.5869
73.8581 139.22 67.8778
72.7263 137.204 67.7315
79.7084 146.458 75.45
80.081 148.027 73.6848
80.4815 146.699 73.6586
80.5505 149.7 72.3431
79.4505 149.204 74.306
78.8463 146.037 77.2082
79.1926 144.964 77.1387
80.6743 145.398 73.6331
81.3156 146.822 71.9942
78.6912 148.696 76.1363
78.3631 147.044 77.5309
77.7694 147.983 78.0427
78.133 145.414 79.2277
78.808 150.213 74.7926
77.0171 148.808 78.5913
77.2789 147.638 80.162
79.4499 143.864 76.6702
79.8453 144.091 74.7775
79.2217 142.682 76.5665
80.597 144.024 73.4042
78.8288 143.365 78.6762
78.3657 141.343 78.0548
78.4321 141.758 76.3919
81.8579 148.016 70.5317
81.3816 149.579 70.6791
82.2562 148.88 69.2124
80.5891 151.176 70.8261
82.37 146.51 70.6961
83.185 148.247 67.9023
82.1124 149.97 67.7819
78.275 152.805 71.925
76.4466 151.929 72.832
77.2144 152.397 70.5251
75.2898 150.672 73.7274
75.8024 151.184 74.9278
78.8611 151.513 73.274
79.676 152.148 71.5193
77.958 151.999 68.7802
76.7033 151.081 69.6921
76.4529 151.222 76.1287
77.6491 151.037 75.2313
76.7122 149.882 77.0681
75.1877 150.265 77.0825
76.1501 149.327 79.691
80.1484 151.993 69.2493
79.4754 151.887 67.8781
80.8461 151.179 67.4765
78.6363 150.964 66.9351
81.6756 149.975 66.076
75.6992 150.19 70.66
74.9425 150.106 72.3305
74.677 148.94 71.6109
74.3275 149.226 74.3877
76.376 149.678 69.0732
74.1724 147.76 70.9276
73.8178 147.471 72.5188
70.4287 117.182 80.3999
71.3415 118.404 82.1661
71.495 118.979 80.0826
72.1967 120.177 83.1418
71.296 118.535 84.2912
68.8466 117.692 80.6089
69.2942 117.358 78.0239
71.3954 120.104 78.194
71.8299 121.035 79.4639
70.0696 118.686 84.7919
69.0232 118.826 82.6042
69.3981 120.689 83.9708
68.6493 119.727 80.5669
71.3351 120.254 85.9047
69.7453 122.321 85.246
69.3277 122.482 83.5529
70.0278 118.223 76.1377
70.9683 120.103 76.5049
70.4925 119.991 74.574
71.2767 122.127 76.476
68.3409 118.589 76.1183
69.7294 120.568 72.5366
70.7178 122.063 73.3232
72.0184 122.401 80.5427
72.4115 121.962 82.2279
72.4675 124.02 81.239
72.7 122.211 83.8316
72.1288 123.14 78.9204
73.2043 125.831 80.3554
73.4168 125.468 81.8496
67.8745 124.225 77.5664
68.1655 122.168 77.2733
68.0409 123.933 75.8072
68.3197 120.361 76.7952
68.4254 120.783 78.9287
68.072 124.687 79.2112
68.3364 126.126 77.8421
68.3959 125.583 74.6516
68.2009 123.834 74.0093
68.412 121.492 80.5737
68.3092 123.481 80.5827
68.5193 122.63 82.0495
68.5484 125.55 80.7175
69.0641 124.053 83.4875
68.2146 127.583 76.634
68.3542 127.352 75.0706
68.4813 129.011 75.4475
68.5872 127.318 73.485
68.3942 128.104 78.1618
68.1875 130.718 75.7962
68.3349 130.625 74.3473
68.4224 122.539 73.1806
68.4518 120.606 74.6742
68.4669 121.238 72.4998
68.4143 124.361 72.0442
69.2234 122.201 70.6408
77.3141 141.304 84.0072
77.9826 141.948 82.3584
77.4672 140.054 83.2649
78.2419 142.704 80.5509
77.8623 143.697 80.9942
76.8219 142.304 84.5415
76.6091 140.455 85.472
77.4217 138.101 84.3922
77.7609 138.788 82.8858
77.5739 144.933 81.1942
77.1189 144.397 83.0722
77.2399 146.177 81.4912
76.4959 138.537 86.3685
77.017 137.363 85.8782
76.0843 136.507 86.9778
78.2381 139.728 81.2698
78.6379 141.725 80.0177
78.6043 140.61 79.6338
81.4228 143.675 70.5379
81.4326 143.227 69.5099
80.3379 142.53 71.088
80.6867 143.002 68.785
83.0165 143.316 68.3278
82.2172 145.123 70.8158
80.9793 143.854 71.9895
78.8594 141.389 72.6759
78.5109 141.035 72.1349
84.2497 144.672 67.8883
83.3289 145.482 69.2796
84.1208 146.567 67.5683
79.7163 142.727 73.3933
78.6023 141.599 73.7576
78.2317 141.733 74.8744
77.923 140.656 71.4308
78.5981 142.04 69.9349
77.5494 139.602 71.0267
73.2941 125.714 89.0969
74.004 126.183 87.5524
72.8176 124.572 87.2066
74.1867 126.873 86.1345
74.4448 127.837 87.5187
73.1685 127.198 90.4907
72.1064 125.425 90.1289
72.2443 122.43 86.6099
72.7807 123.224 85.4993
74.5018 129.14 88.4469
74.116 128.626 90.3311
74.5909 130.519 89.3626
71.0058 123.837 88.4022
70.9595 122.062 86.8377
70.1545 122.822 87.106
73.3593 124.023 84.4212
73.921 125.875 84.6672
73.6665 125.508 83.2905
72.9811 128.254 75.691
72.6705 127.625 74.6172
72.3302 125.989 76.0518
72.3131 127.141 73.689
72.6483 129.279 73.663
73.4016 130.657 75.4982
73.2691 128.994 76.5949
72.3263 124.475 77.4444
71.536 123.862 76.3574
73.7215 131.592 73.3373
73.923 132.077 74.1419
74.294 133.729 72.9186
73.4271 127.746 77.7295
72.8685 125.457 78.3054
73.1726 126.679 79.0503
71.5721 123.684 74.7441
71.743 125.523 73.3878
71.3382 123.779 73.2868
72.8094 146.018 79.8116
72.8101 145.398 78.2606
73.3982 147.338 78.0378
72.3959 144.824 76.9721
72.2508 143.599 78.4895
72.6676 144.262 81.4283
73.2201 146.1 81.3381
74.17 148.908 77.6196
73.756 148.442 76.2611
72.0342 142.362 79.9782
72.1526 142.663 81.4485
72.0182 140.802 81.3683
73.9331 147.922 80.9613
74.5157 149.189 78.9623
75.0534 149.193 80.5201
73.4851 147.795 75.0432
72.5438 146.149 75.502
73.1542 146.998 73.9925
76.0831 146.126 67.12
77.2365 146.578 66.2166
77.0423 147.919 66.659
78.3815 146.622 65.6776
77.1686 145.107 66.2788
74.9496 144.198 67.8242
75.2031 145.253 68.3679
76.6395 149.071 67.5775
77.8262 149.677 66.5618
76.1951 143.38 66.7715
75.2979 142.825 67.637
75.1095 141.434 67.6616
75.0208 146.412 68.9308
75.6535 148.217 68.6173
74.5768 147.352 69.6575
79.14 149.713 65.5809
79.5369 147.853 65.4455
80.6117 149.238 65.2643
68.4035 131.53 80.8331
68.566 130.441 82.2038
68.3544 129.602 80.8743
68.8185 129.581 83.6659
68.8319 131.495 83.537
68.433 133.51 80.7409
68.4968 132.744 79.417
68.4267 128.791 79.5645
68.6037 127.621 80.8069
68.8038 133.433 83.1806
68.8045 134.606 81.6007
69.2944 135.442 82.6096
68.1086 132.001 78.1876
68.2687 129.982 78.2848
68.2801 131.222 76.9938
68.6182 126.624 82.151
68.7585 127.727 83.6429
68.8198 125.784 83.6212
70.2437 129.964 69.8801
69.6559 131.192 70.2257
69.4468 128.848 70.8369
69.6762 132.524 70.7604
70.354 133.489 69.6976
71.4589 131.578 69.6618
70.7739 128.712 69.5629
68.9025 126.228 71.6495
68.7164 127.866 72.1071
71.15 134.571 68.4557
71.6498 133.699 68.5884
71.9961 135.327 67.9712
70.6781 126.293 69.6744
68.9236 125.11 70.4176
69.369 124.24 69.5192
68.9439 129.53 72.6116
69.0751 131.657 71.8496
68.7412 131.03 73.0963
POLYGONS 1280  5120
3 164 162 163
3 163 44 164
3 162 43 163
3 164 42 162
3 166 165 163
3 163 43 166
3 165 44 163
3 166 14 165
3 168 167 162
3 162 42 168
3 167 43 162
3 168 13 167
3 170 169 164
3 164 44 170
3 169 42 164
3 170 12 169
3 173 171 172
3 172 46 173
3 171 43 172
3 173 45 171
3 167 174 172
3 172 43 167
3 174 46 172
3 167 13 174
3 175 166 171
3 171 45 175
3 166 43 171
3 175 14 166
3 177 176 173
3 173 46 177
3 176 45 173
3 177 4 176
3 180 178 179
3 179 48 180
3 178 42 179
3 180 47 178
3 169 181 179
3 179 42 169
3 181 48 179
3 169 12 181
3 182 168 178
3 178 47 182
3 168 42 178
3 182 13 168
3 184 183 180
3 180 48 184
3 183 47 180
3 184 8 183
3 187 185 186
3 186 50 187
3 185 44 186
3 187 49 185
3 165 188 186
3 186 44 165
3 188 50 186
3 165 14 188
3 189 170 185
3 185 49 189
3 170 44 185
3 189 12 170
3 191 190 187
3 187 50 191
3 190 49 187
3 191 7 190
3 194 192 193
3 193 53 194
3 192 52 193
3 194 51 192
3 196 195 193
3 193 52 196
3 195 53 193
3 196 16 195
3 198 197 192
3 192 51 198
3 197 52 192
3 198 14 197
3 200 199 194
3 194 53 200
3 199 51 194
3 200 15 199
3 203 201 202
3 202 45 203
3 201 52 202
3 203 54 201
3 197 175 202
3 202 52 197
3 175 45 202
3 197 14 175
3 204 196 201
3 201 54 204
3 196 52 201
3 204 16 196
3 176 205 203
3 203 45 176
3 205 54 203
3 176 4 205
3 208 206 207
3 207 55 208
3 206 51 207
3 208 50 206
3 199 209 207
3 207 51 199
3 209 55 207
3 199 15 209
3 188 198 206
3 206 50 188
3 198 51 206
3 188 14 198
3 210 191 208
3 208 55 210
3 191 50 208
3 210 7 191
3 213 211 212
3 212 57 213
3 211 53 212
3 213 56 211
3 195 214 212
3 212 53 195
3 214 57 212
3 195 16 214
3 215 200 211
3 211 56 215
3 200 53 211
3 215 15 200
3 217 216 213
3 213 57 217
3 216 56 213
3 217 9 216
3 220 218 219
3 219 60 220
3 218 59 219
3 220 58 218
3 222 221 219
3 219 59 222
3 221 60 219
3 222 19 221
3 224 223 218
3 218 58 224
3 223 59 218
3 224 18 223
3 226 225 220
3 220 60 226
3 225 58 220
3 226 17 225
3 229 227 228
3 228 62 229
3 227 59 228
3 229 61 227
3 223 230 228
3 228 59 223
3 230 62 228
3 223 18 230
3 231 222 227
3 227 61 231
3 222 59 227
3 231 19 222
3 233 232 229
3 229 62 233
3 232 61 229
3 233 5 232
3 236 234 235
3 235 64 236
3 234 58 235
3 236 63 234
3 225 237 235
3 235 58 225
3 237 64 235
3 225 17 237
3 238 224 234
3 234 63 238
3 224 58 234
3 238 18 224
3 240 239 236
3 236 64 240
3 239 63 236
3 240 6 239
3 243 241 242
3 242 66 243
3 241 60 242
3 243 65 241
3 221 244 242
3 242 60 221
3 244 66 242
3 221 19 244
3 245 226 241
3 241 65 245
3 226 60 241
3 245 17 226
3 247 246 243
3 243 66 247
3 246 65 243
3 247 11 246
3 250 248 249
3 249 69 250
3 248 68 249
3 250 67 248
3 252 251 249
3 249 68 252
3 251 69 249
3 252 18 251
3 254 253 248
3 248 67 254
3 253 68 248
3 254 21 253
3 256 255 250
3 250 69 256
3 255 67 250
3 256 20 255
3 259 257 258
3 258 70 259
3 257 68 258
3 259 62 257
3 253 260 258
3 258 68 253
3 260 70 258
3 253 21 260
3 230 252 257
3 257 62 230
3 252 68 257
3 230 18 252
3 261 233 259
3 259 70 261
3 233 62 259
3 261 5 233
3 264 262 263
3 263 72 264
3 262 67 263
3 264 71 262
3 255 265 263
3 263 67 255
3 265 72 263
3 255 20 265
3 266 254 262
3 262 71 266
3 254 67 262
3 266 21 254
3 268 267 264
3 264 72 268
3 267 71 264
3 268 10 267
3 271 269 270
3 270 63 271
3 269 69 270
3 271 73 269
3 251 238 270
3 270 69 251
3 238 63 270
3 251 18 238
3 272 256 269
3 269 73 272
3 256 69 269
3 272 20 256
3 239 273 271
3 271 63 239
3 273 73 271
3 239 6 273
3 276 274 275
3 275 76 276
3 274 75 275
3 276 74 274
3 278 277 275
3 275 75 278
3 277 76 275
3 278 24 277
3 280 279 274
3 274 74 280
3 279 75 274
3 280 23 279
3 282 281 276
3 276 76 282
3 281 74 276
3 282 22 281
3 285 283 284
3 284 78 285
3 283 75 284
3 285 77 283
3 279 286 284
3 284 75 279
3 286 78 284
3 279 23 286
3 287 278 283
3 283 77 287
3 278 75 283
3 287 24 278
3 289 288 285
3 285 78 289
3 288 77 285
3 289 0 288
3 292 290 291
3 291 80 292
3 290 74 291
3 292 79 290
3 281 293 291
3 291 74 281
3 293 80 291
3 281 22 293
3 294 280 290
3 290 79 294
3 280 74 290
3 294 23 280
3 296 295 292
3 292 80 296
3 295 79 292
3 296 4 295
3 299 297 298
3 298 82 299
3 297 76 298
3 299 81 297
3 277 300 298
3 298 76 277
3 300 82 298
3 277 24 300
3 301 282 297
3 297 81 301
3 282 76 297
3 301 22 282
3 303 302 299
3 299 82 303
3 302 81 299
3 303 3 302
3 306 304 305
3 305 85 306
3 304 84 305
3 306 83 304
3 308 307 305
3 305 84 308
3 307 85 305
3 308 26 307
3 310 309 304
3 304 83 310
3 309 84 304
3 310 24 309
3 312 311 306
3 306 85 312
3 311 83 306
3 312 25 311
3 315 313 314
3 314 77 315
3 313 84 314
3 315 86 313
3 309 287 314
3 314 84 309
3 287 77 314
3 309 24 287
3 316 308 313
3 313 86 316
3 308 84 313
3 316 26 308
3 288 317 315
3 315 77 288
3 317 86 315
3 288 0 317
3 320 318 319
3 319 87 320
3 318 83 319
3 320 82 318
3 311 321 319
3 319 83 311
3 321 87 319
3 311 25 321
3 300 310 318
3 318 82 300
3 310 83 318
3 300 24 310
3 322 303 320
3 320 87 322
3 303 82 320
3 322 3 303
3 325 323 324
3 324 89 325
3 323 85 324
3 325 88 323
3 307 326 324
3 324 85 307
3 326 89 324
3 307 26 326
3 327 312 323
3 323 88 327
3 312 85 323
3 327 25 312
3 329 328 325
3 325 89 329
3 328 88 325
3 329 5 328
3 332 330 331
3 331 92 332
3 330 91 331
3 332 90 330
3 334 333 331
3 331 91 334
3 333 92 331
3 334 29 333
3 336 335 330
3 330 90 336
3 335 91 330
3 336 28 335
3 338 337 332
3 332 92 338
3 337 90 332
3 338 27 337
3 341 339 340
3 340 94 341
3 339 91 340
3 341 93 339
3 335 342 340
3 340 91 335
3 342 94 340
3 335 28 342
3 343 334 339
3 339 93 343
3 334 91 339
3 343 29 334
3 345 344 341
3 341 94 345
3 344 93 341
3 345 2 344
3 348 346 347
3 347 96 348
3 346 90 347
3 348 95 346
3 337 349 347
3 347 90 337
3 349 96 347
3 337 27 349
3 350 336 346
3 346 95 350
3 336 90 346
3 350 28 336
3 352 351 348
3 348 96 352
3 351 95 348
3 352 7 351
3 355 353 354
3 354 98 355
3 353 92 354
3 355 97 353
3 333 356 354
3 354 92 333
3 356 98 354
3 333 29 356
3 357 338 353
3 353 97 357
3 338 92 353
3 357 27 338
3 359 358 355
3 355 98 359
3 358 97 355
3 359 1 358
3 362 360 361
3 361 101 362
3 360 100 361
3 362 99 360
3 364 363 361
3 361 100 364
3 363 101 361
3 364 31 363
3 366 365 360
3 360 99 366
3 365 100 360
3 366 29 365
3 368 367 362
3 362 101 368
3 367 99 362
3 368 30 367
3 371 369 370
3 370 93 371
3 369 100 370
3 371 102 369
3 365 343 370
3 370 100 365
3 343 93 370
3 365 29 343
3 372 364 369
3 369 102 372
3 364 100 369
3 372 31 364
3 344 373 371
3 371 93 344
3 373 102 371
3 344 2 373
3 376 374 375
3 375 103 376
3 374 99 375
3 376 98 374
3 367 377 375
3 375 99 367
3 377 103 375
3 367 30 377
3 356 366 374
3 374 98 356
3 366 99 374
3 356 29 366
3 378 359 376
3 376 103 378
3 359 98 376
3 378 1 359
3 381 379 380
3 380 105 381
3 379 101 380
3 381 104 379
3 363 382 380
3 380 101 363
3 382 105 380
3 363 31 382
3 383 368 379
3 379 104 383
3 368 101 379
3 383 30 368
3 385 384 381
3 381 105 385
3 384 104 381
3 385 6 384
3 388 386 387
3 387 108 388
3 386 107 387
3 388 106 386
3 390 389 387
3 387 107 390
3 389 108 387
3 390 34 389
3 392 391 386
3 386 106 392
3 391 107 386
3 392 33 391
3 394 393 388
3 388 108 394
3 393 106 388
3 394 32 393
3 397 395 396
3 396 110 397
3 395 107 396
3 397 109 395
3 391 398 396
3 396 107 391
3 398 110 396
3 391 33 398
3 399 390 395
3 395 109 399
3 390 107 395
3 399 34 390
3 401 400 397
3 397 110 401
3 400 109 397
3 401 8 400
3 404 402 403
3 403 112 404
3 402 106 403
3 404 111 402
3 393 405 403
3 403 106 393
3 405 112 403
3 393 32 405
3 406 392 402
3 402 111 406
3 392 106 402
3 406 33 392
3 408 407 404
3 404 112 408
3 407 111 404
3 408 0 407
3 411 409 410
3 410 114 411
3 409 108 410
3 411 113 409
3 389 412 410
3 410 108 389
3 412 114 410
3 389 34 412
3 413 394 409
3 409 113 413
3 394 108 409
3 413 32 394
3 415 414 411
3 411 114 415
3 414 113 411
3 415 11 414
3 418 416 417
3 417 117 418
3 416 116 417
3 418 115 416
3 420 419 417
3 417 116 420
3 419 117 417
3 420 36 419
3 422 421 416
3 416 115 422
3 421 116 416
3 422 34 421
3 424 423 418
3 418 117 424
3 423 115 418
3 424 35 423
3 427 425 426
3 426 109 427
3 425 116 426
3 427 118 425
3 421 399 426
3 426 116 421
3 399 109 426
3 421 34 399
3 428 420 425
3 425 118 428
3 420 116 425
3 428 36 420
3 400 429 427
3 427 109 400
3 429 118 427
3 400 8 429
3 432 430 431
3 431 119 432
3 430 115 431
3 432 114 430
3 423 433 431
3 431 115 423
3 433 119 431
3 423 35 433
3 412 422 430
3 430 114 412
3 422 115 430
3 412 34 422
3 434 415 432
3 432 119 434
3 415 114 432
3 434 11 415
3 437 435 436
3 436 121 437
3 435 117 436
3 437 120 435
3 419 438 436
3 436 117 419
3 438 121 436
3 419 36 438
3 439 424 435
3 435 120 439
3 424 117 435
3 439 35 424
3 441 440 437
3 437 121 441
3 440 120 437
3 441 1 440
3 444 442 443
3 443 124 444
3 442 123 443
3 444 122 442
3 446 445 443
3 443 123 446
3 445 124 443
3 446 39 445
3 448 447 442
3 442 122 448
3 447 123 442
3 448 38 447
3 450 449 444
3 444 124 450
3 449 122 444
3 450 37 449
3 453 451 452
3 452 126 453
3 451 123 452
3 453 125 451
3 447 454 452
3 452 123 447
3 454 126 452
3 447 38 454
3 455 446 451
3 451 125 455
3 446 123 451
3 455 39 446
3 457 456 453
3 453 126 457
3 456 125 453
3 457 9 456
3 460 458 459
3 459 128 460
3 458 122 459
3 460 127 458
3 449 461 459
3 459 122 449
3 461 128 459
3 449 37 461
3 462 448 458
3 458 127 462
3 448 122 458
3 462 38 448
3 464 463 460
3 460 128 464
3 463 127 460
3 464 10 463
3 467 465 466
3 466 130 467
3 465 124 466
3 467 129 465
3 445 468 466
3 466 124 445
3 468 130 466
3 445 39 468
3 469 450 465
3 465 129 469
3 450 124 465
3 469 37 450
3 471 470 467
3 467 130 471
3 470 129 467
3 471 3 470
3 474 472 473
3 473 133 474
3 472 132 473
3 474 131 472
3 476 475 473
3 473 132 476
3 475 133 473
3 476 38 475
3 478 477 472
3 472 131 478
3 477 132 472
3 478 41 477
3 480 479 474
3 474 133 480
3 479 131 474
3 480 40 479
3 483 481 482
3 482 134 483
3 481 132 482
3 483 126 481
3 477 484 482
3 482 132 477
3 484 134 482
3 477 41 484
3 454 476 481
3 481 126 454
3 476 132 481
3 454 38 476
3 485 457 483
3 483 134 485
3 457 126 483
3 485 9 457
3 488 486 487
3 487 136 488
3 486 131 487
3 488 135 486
3 479 489 487
3 487 131 479
3 489 136 487
3 479 40 489
3 490 478 486
3 486 135 490
3 478 131 486
3 490 41 478
3 492 491 488
3 488 136 492
3 491 135 488
3 492 2 491
3 495 493 494
3 494 127 495
3 493 133 494
3 495 137 493
3 475 462 494
3 494 133 475
3 462 127 494
3 475 38 462
3 496 480 493
3 493 137 496
3 480 133 493
3 496 40 480
3 463 497 495
3 495 127 463
3 497 137 495
3 463 10 497
3 500 498 499
3 499 140 500
3 498 139 499
3 500 138 498
3 502 501 499
3 499 139 502
3 501 140 499
3 502 33 501
3 504 503 498
3 498 138 504
3 503 139 498
3 504 13 503
3 506 505 500
3 500 140 506
3 505 138 500
3 506 23 505
3 509 507 508
3 508 47 509
3 507 139 508
3 509 110 507
3 503 182 508
3 508 139 503
3 182 47 508
3 503 13 182
3 398 502 507
3 507 110 398
3 502 139 507
3 398 33 502
3 183 401 509
3 509 47 183
3 401 110 509
3 183 8 401
3 512 510 511
3 511 79 512
3 510 138 511
3 512 46 510
3 505 294 511
3 511 138 505
3 294 79 511
3 505 23 294
3 174 504 510
3 510 46 174
3 504 138 510
3 174 13 504
3 295 177 512
3 512 79 295
3 177 46 512
3 295 4 177
3 515 513 514
3 514 111 515
3 513 140 514
3 515 78 513
3 501 406 514
3 514 140 501
3 406 111 514
3 501 33 406
3 286 506 513
3 513 78 286
3 506 140 513
3 286 23 506
3 407 289 515
3 515 111 407
3 289 78 515
3 407 0 289
3 518 516 517
3 517 143 518
3 516 142 517
3 518 141 516
3 520 519 517
3 517 142 520
3 519 143 517
3 520 19 519
3 522 521 516
3 516 141 522
3 521 142 516
3 522 32 521
3 524 523 518
3 518 143 524
3 523 141 518
3 524 26 523
3 527 525 526
3 526 113 527
3 525 142 526
3 527 66 525
3 521 413 526
3 526 142 521
3 413 113 526
3 521 32 413
3 244 520 525
3 525 66 244
3 520 142 525
3 244 19 520
3 414 247 527
3 527 113 414
3 247 66 527
3 414 11 247
3 530 528 529
3 529 86 530
3 528 141 529
3 530 112 528
3 523 316 529
3 529 141 523
3 316 86 529
3 523 26 316
3 405 522 528
3 528 112 405
3 522 141 528
3 405 32 522
3 317 408 530
3 530 86 317
3 408 112 530
3 317 0 408
3 533 531 532
3 532 61 533
3 531 143 532
3 533 89 531
3 519 231 532
3 532 143 519
3 231 61 532
3 519 19 231
3 326 524 531
3 531 89 326
3 524 143 531
3 326 26 524
3 232 329 533
3 533 61 232
3 329 89 533
3 232 5 329
3 536 534 535
3 535 146 536
3 534 145 535
3 536 144 534
3 538 537 535
3 535 145 538
3 537 146 535
3 538 22 537
3 540 539 534
3 534 144 540
3 539 145 534
3 540 16 539
3 542 541 536
3 536 146 542
3 541 144 536
3 542 39 541
3 545 543 544
3 544 54 545
3 543 145 544
3 545 80 543
3 539 204 544
3 544 145 539
3 204 54 544
3 539 16 204
3 293 538 543
3 543 80 293
3 538 145 543
3 293 22 538
3 205 296 545
3 545 54 205
3 296 80 545
3 205 4 296
3 548 546 547
3 547 125 548
3 546 144 547
3 548 57 546
3 541 455 547
3 547 144 541
3 455 125 547
3 541 39 455
3 214 540 546
3 546 57 214
3 540 144 546
3 214 16 540
3 456 217 548
3 548 125 456
3 217 57 548
3 456 9 217
3 551 549 550
3 550 81 551
3 549 146 550
3 551 130 549
3 537 301 550
3 550 146 537
3 301 81 550
3 537 22 301
3 468 542 549
3 549 130 468
3 542 146 549
3 468 39 542
3 302 471 551
3 551 81 302
3 471 130 551
3 302 3 471
3 554 552 553
3 553 149 554
3 552 148 553
3 554 147 552
3 556 555 553
3 553 148 556
3 555 149 553
3 556 21 555
3 558 557 552
3 552 147 558
3 557 148 552
3 558 25 557
3 560 559 554
3 554 149 560
3 559 147 554
3 560 37 559
3 563 561 562
3 562 88 563
3 561 148 562
3 563 70 561
3 557 327 562
3 562 148 557
3 327 88 562
3 557 25 327
3 260 556 561
3 561 70 260
3 556 148 561
3 260 21 556
3 328 261 563
3 563 88 328
3 261 70 563
3 328 5 261
3 566 564 565
3 565 129 566
3 564 147 565
3 566 87 564
3 559 469 565
3 565 147 559
3 469 129 565
3 559 37 469
3 321 558 564
3 564 87 321
3 558 147 564
3 321 25 558
3 470 322 566
3 566 129 470
3 322 87 566
3 470 3 322
3 569 567 568
3 568 71 569
3 567 149 568
3 569 128 567
3 555 266 568
3 568 149 555
3 266 71 568
3 555 21 266
3 461 560 567
3 567 128 461
3 560 149 567
3 461 37 560
3 267 464 569
3 569 71 267
3 464 128 569
3 267 10 464
3 572 570 571
3 571 152 572
3 570 151 571
3 572 150 570
3 574 573 571
3 571 151 574
3 573 152 571
3 574 27 573
3 576 575 570
3 570 150 576
3 575 151 570
3 576 12 575
3 578 577 572
3 572 152 578
3 577 150 572
3 578 36 577
3 581 579 580
3 580 49 581
3 579 151 580
3 581 96 579
3 575 189 580
3 580 151 575
3 189 49 580
3 575 12 189
3 349 574 579
3 579 96 349
3 574 151 579
3 349 27 574
3 190 352 581
3 581 49 190
3 352 96 581
3 190 7 352
3 584 582 583
3 583 118 584
3 582 150 583
3 584 48 582
3 577 428 583
3 583 150 577
3 428 118 583
3 577 36 428
3 181 576 582
3 582 48 181
3 576 150 582
3 181 12 576
3 429 184 584
3 584 118 429
3 184 48 584
3 429 8 184
3 587 585 586
3 586 97 587
3 585 152 586
3 587 121 585
3 573 357 586
3 586 152 573
3 357 97 586
3 573 27 357
3 438 578 585
3 585 121 438
3 578 152 585
3 438 36 578
3 358 441 587
3 587 97 358
3 441 121 587
3 358 1 441
3 590 588 589
3 589 155 590
3 588 154 589
3 590 153 588
3 592 591 589
3 589 154 592
3 591 155 589
3 592 17 591
3 594 593 588
3 588 153 594
3 593 154 588
3 594 30 593
3 596 595 590
3 590 155 596
3 595 153 590
3 596 35 595
3 599 597 598
3 598 104 599
3 597 154 598
3 599 64 597
3 593 383 598
3 598 154 593
3 383 104 598
3 593 30 383
3 237 592 597
3 597 64 237
3 592 154 597
3 237 17 592
3 384 240 599
3 599 104 384
3 240 64 599
3 384 6 240
3 602 600 601
3 601 120 602
3 600 153 601
3 602 103 600
3 595 439 601
3 601 153 595
3 439 120 601
3 595 35 439
3 377 594 600
3 600 103 377
3 594 153 600
3 377 30 594
3 440 378 602
3 602 120 440
3 378 103 602
3 440 1 378
3 605 603 604
3 604 65 605
3 603 155 604
3 605 119 603
3 591 245 604
3 604 155 591
3 245 65 604
3 591 17 245
3 433 596 603
3 603 119 433
3 596 155 603
3 433 35 596
3 246 434 605
3 605 65 246
3 434 119 605
3 246 11 434
3 608 606 607
3 607 158 608
3 606 157 607
3 608 156 606
3 610 609 607
3 607 157 610
3 609 158 607
3 610 15 609
3 612 611 606
3 606 156 612
3 611 157 606
3 612 28 611
3 614 613 608
3 608 158 614
3 613 156 608
3 614 41 613
3 617 615 616
3 616 95 617
3 615 157 616
3 617 55 615
3 611 350 616
3 616 157 611
3 350 95 616
3 611 28 350
3 209 610 615
3 615 55 209
3 610 157 615
3 209 15 610
3 351 210 617
3 617 95 351
3 210 55 617
3 351 7 210
3 620 618 619
3 619 135 620
3 618 156 619
3 620 94 618
3 613 490 619
3 619 156 613
3 490 135 619
3 613 41 490
3 342 612 618
3 618 94 342
3 612 156 618
3 342 28 612
3 491 345 620
3 620 135 491
3 345 94 620
3 491 2 345
3 623 621 622
3 622 56 623
3 621 158 622
3 623 134 621
3 609 215 622
3 622 158 609
3 215 56 622
3 609 15 215
3 484 614 621
3 621 134 484
3 614 158 621
3 484 41 614
3 216 485 623
3 623 56 216
3 485 134 623
3 216 9 485
3 626 624 625
3 625 161 626
3 624 160 625
3 626 159 624
3 628 627 625
3 625 160 628
3 627 161 625
3 628 31 627
3 630 629 624
3 624 159 630
3 629 160 624
3 630 20 629
3 632 631 626
3 626 161 632
3 631 159 626
3 632 40 631
3 635 633 634
3 634 73 635
3 633 160 634
3 635 105 633
3 629 272 634
3 634 160 629
3 272 73 634
3 629 20 272
3 382 628 633
3 633 105 382
3 628 160 633
3 382 31 628
3 273 385 635
3 635 73 273
3 385 105 635
3 273 6 385
3 638 636 637
3 637 137 638
3 636 159 637
3 638 72 636
3 631 496 637
3 637 159 631
3 496 137 637
3 631 40 496
3 265 630 636
3 636 72 265
3 630 159 636
3 265 20 630
3 497 268 638
3 638 137 497
3 268 72 638
3 497 10 268
3 641 639 640
3 640 102 641
3 639 161 640
3 641 136 639
3 627 372 640
3 640 161 627
3 372 102 640
3 627 31 372
3 489 632 639
3 639 136 489
3 632 161 639
3 489 40 632
3 373 492 641
3 641 102 373
3 492 136 641
3 373 2 492
