# vtk DataFile Version 3.0
this file was written using fslvtkio
ASCII
DATASET POLYDATA
POINTS 1068 float
84.1649 154.395 73.472
83.0322 154.193 74.2202
83.663 153.572 74.2153
84.6447 153.568 73.9088
85.0591 154.217 72.8838
85.4755 153.547 73.7671
86.2576 154.178 72.9336
86.236 153.693 73.9689
87.0357 154.144 73.4031
87.1914 153.815 74.1116
83.7152 155.197 73.6888
82.9984 154.758 74.7595
84.5912 155.429 72.7467
85.8534 155.163 72.5012
87.1631 154.85 72.7009
87.9925 154.402 73.2004
83.3413 155.599 74.2596
82.7062 155.393 74.9503
84.1719 155.918 73.5431
85.2532 156.017 72.9032
86.5846 155.855 72.8052
87.9129 155.652 73.0063
83.5114 156.263 74.2686
84.639 156.671 73.5225
85.9371 156.576 73.3242
87.435 156.709 73.0847
86.2826 150.711 74.81
85.3588 149.844 75.1699
86.028 149.242 75.2407
86.9668 149.503 75.382
87.2092 150.632 74.9996
87.6066 149.838 75.7005
85.3955 151.255 74.5016
84.7738 151.543 74.8667
84.9134 150.452 75.3794
86.1496 151.826 74.9324
86.8986 151.653 75.095
87.723 151.208 75.5162
85.1456 152.684 74.3685
84.595 152.067 75.0416
85.8279 152.513 74.6039
86.8416 152.747 74.6388
87.398 152.291 75.4074
83.9196 152.722 74.7017
83.2162 153.193 75.0533
83.5636 152.638 75.7075
83.9873 152.26 75.5167
84.6251 152.848 74.318
85.4231 153.269 74.3059
86.253 153.123 74.3244
87.1942 153.434 74.7222
87.5301 153.058 75.1607
82.6268 153.69 75.3781
88.2083 154.029 74.0839
82.3131 154.31 75.7471
88.6871 155.047 73.5971
82.2513 154.921 76.0412
88.0651 156.357 73.43
82.7893 156.372 74.9019
82.5346 155.887 75.8926
83.6874 157.051 74.3648
84.8137 157.195 74.0105
85.6561 157.079 73.9064
86.9282 157.133 73.8713
82.9695 157.038 75.2807
83.8996 157.608 74.7476
84.8386 157.548 74.536
88.616 146.642 76.4836
87.6106 146.771 77.0391
88.2077 146.314 77.853
89.0073 145.822 77.5868
89.5769 146.781 77.1854
89.8928 145.984 77.6541
90.3244 146.877 77.5813
90.4402 146.238 78.1429
87.4684 147.59 75.8003
86.3834 147.795 75.9078
86.6504 147.323 76.8824
88.4359 147.986 75.9571
89.3511 147.943 76.4838
90.2211 147.828 77.177
90.7038 147.162 78.0454
86.5604 148.483 75.4103
85.1776 148.55 75.7347
87.6763 148.678 75.7152
88.5217 149.143 76.4071
89.4352 148.969 77.0567
90.4166 148.4 77.7095
84.756 149.33 76.0143
88.2502 150.235 76.0785
89.0742 150.235 76.6411
89.8913 149.564 77.3942
84.6888 151.008 75.9596
84.7029 150.005 76.405
87.9886 151.85 75.9371
88.6199 151.639 76.446
89.7011 150.903 77.2554
84.4178 151.577 75.9626
83.9501 151.79 76.4884
83.8155 150.932 76.7622
88.2181 152.953 75.6842
88.7666 152.554 76.5256
89.2661 151.808 77.0585
82.9993 152.881 76.1555
83.5842 152.388 76.6597
88.2332 153.766 74.8097
88.4267 153.897 75.4304
88.6994 153.49 76.2961
82.4215 153.238 76.5403
89.077 154.624 74.431
88.9698 154.484 75.2865
88.6937 154.109 76.0049
82.3297 153.922 76.8607
88.7144 155.644 74.0957
89.091 155.481 74.7986
82.3478 155.06 76.7634
87.8652 156.684 74.0255
88.3145 156.056 74.5709
82.4036 156.034 76.8716
86.6871 157.341 74.7686
85.7227 157.55 74.4874
87.6299 156.975 74.6624
82.5114 156.963 76.1347
83.3691 157.611 75.62
84.4998 157.801 75.3122
87.121 146.813 78.122
88.0333 146.013 78.9576
88.6937 145.509 78.7461
89.5686 145.478 78.4091
90.4096 146.005 78.9099
85.8646 148.047 76.695
86.4143 147.437 77.623
90.8105 147.318 78.6103
85.2282 148.664 76.6876
90.7255 148.087 78.3028
90.5999 148.959 78.0407
90.7611 148.439 78.9477
84.7944 149.022 77.0949
90.1485 149.905 77.9192
90.8127 149.328 78.6324
84.2425 150.367 77.0122
84.643 149.812 77.455
90.1882 150.439 78.0809
90.3739 150.1 78.7969
83.5431 151.369 77.5101
83.6765 150.585 77.9218
89.4594 152.636 76.9479
89.7361 151.686 77.6824
90.173 150.929 78.2044
82.8187 152.383 77.3203
83.3213 151.886 77.913
89.4105 153.295 76.9722
89.5567 152.765 77.8094
82.4167 152.785 77.7209
88.9873 154.827 75.8992
88.7607 154.1 76.7357
89.1414 153.582 77.2307
82.0958 154.074 77.514
88.7557 155.659 75.5631
88.573 155.022 76.7037
81.8405 155.06 77.4785
88.2291 155.832 76.0946
88.2245 156.248 75.2061
81.8769 155.945 77.5344
85.5162 157.457 75.0902
86.3116 157.559 75.4305
87.1129 157.048 75.6671
82.1725 157.054 77.1194
82.9083 157.524 76.4215
83.9573 157.74 75.9318
85.0348 157.648 75.6455
87.5817 146.519 79.0724
87.9574 145.828 79.7914
88.6189 145.269 79.7131
89.5624 145.264 79.5805
90.0553 146.058 79.8453
85.9864 147.907 77.7904
86.4842 147.259 78.5484
87.1628 146.801 79.3874
90.4583 147.028 79.5469
90.5648 147.808 79.0008
90.1832 147.852 79.8067
85.3994 148.439 77.7044
86.0438 148.125 78.7248
90.3175 148.562 79.7447
85.0942 149.173 78.0096
90.3008 149.37 79.6821
84.2788 150.07 78.351
84.683 149.644 78.1691
90.0706 150.048 79.6827
83.2908 150.809 78.6091
83.8306 150.376 78.6487
89.7789 151.604 78.4272
90.0888 150.864 79.1371
83.0297 152.07 78.6584
83.2286 151.493 78.7449
89.5809 152.313 78.4429
89.6625 151.766 79.039
81.9514 152.573 78.366
81.2966 152.908 79.0101
82.1316 152.298 79.0768
88.9499 154.223 77.3093
89.3455 153.464 77.9477
89.4108 152.834 78.6764
81.7525 153.43 78.1151
81.0005 153.623 78.9458
88.6492 154.728 77.3472
88.8124 154.224 77.915
81.3529 154.474 78.1431
80.9515 154.395 78.985
87.7079 156.315 76.0227
88.0909 155.865 76.7757
88.0706 155.037 77.6158
81.4591 155.376 78.1792
81.208 155.395 78.915
86.3824 156.751 76.6289
85.8485 157.307 76.0166
87.1828 156.503 76.5486
81.4554 156.602 78.0167
82.0201 157.259 77.8011
82.7347 157.508 77.2692
83.7641 157.642 76.7871
84.7015 157.454 76.377
88.7869 145.069 80.7576
87.8589 145.225 80.7811
88.2725 144.811 81.5916
88.999 145.089 81.3952
89.5982 145.306 80.5139
89.2589 145.575 81.172
87.392 146.052 80.2352
89.4907 146.249 81.095
86.4304 147.361 79.5745
86.7751 146.554 80.2559
90.0527 146.827 80.4967
89.895 147.733 80.6055
85.3876 148.551 78.8232
85.5013 147.734 79.9259
89.8851 148.56 80.6624
84.5127 149.36 78.8561
84.2104 149.23 79.6921
84.9215 148.954 79.3019
89.8595 149.496 80.5061
83.9539 150.413 79.3612
83.3819 150.163 80.2248
83.8851 149.594 80.272
89.8226 150.446 80.2246
83.1655 151.051 79.4966
82.202 151.05 80.2599
82.5276 150.315 80.6793
89.5851 151.276 79.9189
82.4305 151.691 79.4793
81.3474 152.162 79.8229
81.3374 151.346 80.4501
89.283 152.171 79.5487
81.1547 152.879 79.9914
88.8465 153.019 79.3141
88.9508 153.678 78.5243
80.7356 153.53 80.0618
88.1464 154.379 78.4472
80.8081 154.393 79.9173
87.6348 155.205 78.228
87.5571 155.885 77.3162
80.9298 155.271 79.8751
85.8994 156.439 77.3178
85.3439 156.798 76.7135
86.6486 156.199 77.2866
81.2194 156.25 78.9867
81.7307 156.964 78.594
82.5227 157.087 78.1664
83.3882 157.103 77.6498
84.3007 156.977 77.1904
87.4031 145.017 81.5101
86.7061 145.349 81.833
87.3706 144.508 82.2643
88.1392 144.243 82.4091
88.6897 144.972 82.1011
88.8958 145.434 82.4446
86.884 145.781 81.0065
86.3105 146.505 80.9296
88.9606 146.146 82.3874
85.8774 147.134 80.6066
89.6376 146.832 81.5025
89.4405 147.774 81.5634
84.9351 148.536 80.0004
84.6096 148.495 81.1621
85.157 147.899 80.8987
85.3977 147.336 81.1108
89.4369 148.741 81.4973
84.3246 149.073 80.639
83.506 149.312 81.2709
83.8144 148.63 81.8723
89.4176 149.728 81.2276
82.6734 149.412 81.4988
89.1509 150.627 80.8757
81.9344 150.904 81.1365
81.8784 149.888 81.5855
89.01 151.637 80.5259
81.2006 152.074 80.8639
81.2002 151.312 81.4331
88.4665 152.317 80.0942
80.9684 152.743 81.0803
88.2861 153.282 79.8933
88.4006 153.815 79.1077
80.536 153.478 81.0622
87.5236 154.312 78.9804
80.4858 154.423 80.9738
87.2213 155.167 78.9482
87.0423 155.852 78.1668
80.54 155.323 80.7603
85.003 156.616 77.3204
85.5693 156.465 77.9259
86.1993 156.244 78.0893
81.1717 155.93 79.8669
81.5299 156.645 79.3914
82.329 156.924 79.0666
83.1061 156.813 78.6389
83.9315 156.804 78.2283
84.635 156.614 77.9633
87.5228 143.405 82.9327
86.8295 144.305 83.0079
87.0993 143.164 83.7238
88.0243 143.152 84.0104
88.3227 143.876 83.08
88.1817 144.003 83.9184
88.4641 144.749 83.0164
88.2946 144.698 83.868
86.3219 145.589 82.2854
88.3687 145.395 83.6714
86.0533 146.53 81.7748
88.3978 146.133 83.5007
85.7586 147.016 81.5369
85.1909 146.864 82.1904
85.7039 146.676 82.0819
89.1086 146.86 82.4688
88.9325 147.932 82.4053
84.0113 147.574 82.0332
84.7399 147.287 81.8587
88.8963 148.932 82.2051
83.0615 148.72 82.606
83.2486 147.849 82.5826
88.7962 149.98 81.8662
82.2441 149.245 82.465
88.5958 150.961 81.5052
81.5336 150.502 82.0171
81.5559 149.677 82.1188
88.176 151.833 81.1059
80.677 151.792 81.9979
80.9993 150.954 82.215
88.1592 152.616 80.5645
80.6096 152.635 82.0543
87.7915 153.234 80.4239
87.6734 153.776 79.7829
80.3072 153.53 81.9484
86.9636 154.141 79.6566
80.0983 154.581 81.7802
86.4198 154.638 79.4801
86.5314 155.654 78.8721
80.3499 155.395 81.5903
85.8564 156.016 79.0666
85.3489 156.362 78.5805
81.0777 155.979 80.6547
81.5324 156.478 80.3112
82.2755 156.698 79.9168
82.9728 156.618 79.5698
83.7302 156.481 79.2513
84.6111 156.524 78.865
87.1452 142.43 84.4884
86.5848 143.554 84.2185
86.488 141.988 85.3013
87.2147 141.614 85.3067
87.8591 142.468 84.9264
87.5716 142.383 85.7653
86.3675 144.641 83.536
87.8962 143.713 84.8566
87.8674 144.478 84.9541
85.8458 145.388 83.1829
85.0797 145.152 83.8964
85.7462 144.811 83.8621
88.0128 145.378 84.8816
85.5923 146.189 82.6975
84.6964 146.008 83.3785
88.0295 146.287 84.3567
84.2528 146.647 82.7347
83.7388 146.34 83.7239
84.2512 146.18 83.5779
88.712 147.052 83.3144
88.5956 148.152 83.2472
83.3461 147.006 83.0095
82.5711 147.528 83.5966
82.9641 146.75 83.891
88.2021 149.274 82.788
81.9761 148.447 83.3748
88.2158 150.291 82.471
81.3634 149.382 82.6756
81.1739 149.643 83.4226
81.4303 149.028 83.5899
88.0759 151.336 82.1105
81.1877 150.402 82.7515
80.6664 151.038 82.9716
80.9232 150.228 83.6587
87.8129 151.964 81.6767
87.3688 151.855 82.282
87.4706 152.664 81.6506
80.4904 151.839 82.9862
87.7198 152.562 81.0729
87.2532 153.365 80.8891
80.2337 152.793 82.8763
86.8866 153.838 80.5383
79.8455 153.829 82.7489
86.4304 154.132 80.2656
79.9553 154.89 82.5325
86.0198 154.479 80.0049
85.9336 155.067 79.5716
80.4322 155.536 82.0453
80.9935 155.932 81.4029
81.1471 155.691 81.975
85.4028 155.405 79.5115
85.1089 156.095 79.3598
81.5591 156.284 81.0569
82.3731 156.586 80.7763
82.9879 156.498 80.3538
83.6226 156.335 80.1546
84.2852 156.294 79.6115
86.1749 143.087 85.071
85.716 143.334 85.619
85.8725 142.523 85.8913
86.1561 141.314 86.1375
86.989 141.239 86.22
87.53 142.091 86.8215
85.9044 144.192 84.5846
85.3822 144.005 85.6321
87.6069 143.368 85.9133
87.6364 144.55 85.8948
84.8981 144.67 84.8508
83.8038 144.667 85.1982
84.8166 144.47 85.5926
87.6222 145.662 85.7227
84.2153 145.521 84.3261
83.397 145.43 85.0888
87.7901 146.637 84.8114
88.1489 147.275 83.9096
87.921 147.624 84.3638
83.2764 146.11 84.5492
82.2061 146.65 84.7492
82.7527 145.926 85.2991
87.8695 148.614 83.6893
81.7409 147.642 84.5477
87.9589 149.665 83.3791
81.5721 148.353 84.3995
87.8419 150.586 83.0688
80.9864 149.131 84.42
81.3545 148.735 84.5103
87.5285 151.328 82.9708
80.3624 151.051 83.948
80.5221 149.988 84.5175
86.9202 151.946 82.8748
86.8979 152.697 81.9599
80.0286 152.075 83.8628
86.6102 153.401 81.6224
79.7931 153.144 83.7531
86.1777 153.924 81.2062
79.9177 154.114 83.4602
85.9381 154.369 80.474
85.8815 154.138 81.1825
85.484 154.326 81.0696
80.2003 154.704 83.1436
80.5035 155.31 82.5357
80.792 155.172 82.9728
85.2834 154.888 80.0929
84.961 154.461 81.0831
84.6949 154.843 80.5971
81.4816 155.497 82.5746
84.145 155.695 80.3225
83.8336 155.16 80.9639
83.5213 155.605 80.8677
84.7023 155.303 79.9952
84.1202 154.892 80.8671
81.7248 155.993 81.7439
82.398 156.132 81.4246
83.1908 156.116 81.0326
86.4545 140.272 86.6067
85.5334 140.896 86.7373
85.2681 139.892 87.1436
86.4695 140.062 87.4662
87.1891 140.874 87.0534
86.7451 141.227 87.8207
85 142.897 86.5203
85.2457 141.797 86.6277
87.0355 142.349 87.6593
84.5688 144.003 86.1963
83.9717 143.499 86.9854
84.4757 143.141 86.7406
87.4716 143.389 86.7986
87.259 144.711 86.712
83.4466 144.319 86.1784
82.6032 144.683 86.8786
83.2551 143.925 87.3638
87.256 145.958 86.5667
82.7854 145.071 85.8853
82.1026 145.933 86.0601
87.5871 146.846 85.429
87.6627 147.996 84.962
81.5856 146.73 85.5826
87.6106 148.942 84.29
81.3035 147.38 85.5076
80.6367 147.482 86.4392
81.0759 146.922 86.3482
87.3278 149.659 84.0634
81.217 148.209 85.31
80.6096 148.379 86.1395
87.2075 150.494 83.9204
80.6496 149.05 85.2903
80.1196 150.311 85.161
80.1697 149.173 85.8963
87.029 151.302 83.6428
79.8201 151.339 84.8679
86.5425 151.864 83.5289
86.316 152.456 82.833
79.6982 152.442 84.7094
86.1331 153.22 82.4196
79.7494 153.543 84.5163
85.785 153.878 81.8825
85.6295 153.363 82.8697
85.0608 153.705 82.4908
80.2401 154.15 84.1171
83.9019 154.284 82.3023
83.4055 153.85 83.3633
83.3077 154.299 82.6125
84.4124 154.065 82.299
83.8003 153.733 82.9592
85.145 154.095 81.8328
84.3018 153.515 82.9458
80.5199 154.641 83.7413
81.1169 155.124 83.4396
83.6586 154.606 81.5858
83.0239 154.511 82.2568
84.3654 154.436 81.5635
81.6629 155.374 82.9379
82.0662 155.553 82.1868
82.6684 155.648 81.7743
82.1401 155.248 82.675
83.1767 155.186 81.562
82.5896 155.005 82.4138
84.4754 139.903 88.5316
83.9889 140.35 88.8926
84.1619 138.818 89.4835
85.0584 138.881 89.1232
85.1645 139.772 88.0342
85.6369 139.479 88.7794
86.1221 139.967 88.2629
86.3673 140.129 88.8172
84.6327 141.156 87.4702
84.0502 141.407 88.2898
86.385 141.242 88.7098
84.4851 142.412 87.4825
83.3254 142.329 88.1131
83.4823 141.737 88.6291
86.7653 142.423 88.5474
83.4529 142.947 87.556
82.468 143.468 88.0496
82.7992 142.655 88.2596
86.9866 143.575 87.5395
86.8896 144.822 87.5467
81.8777 144.585 87.323
86.8786 145.912 87.2221
81.3581 145.332 86.9396
80.4648 145.584 87.6203
80.893 144.642 87.795
87.1891 147.032 85.9934
86.8156 146.962 86.8653
81.1202 146.129 86.666
80.3443 146.609 87.2732
87.0947 147.812 85.7483
87.0563 148.696 85.1854
80.0889 147.591 87.2351
86.8511 149.54 84.9067
80.0332 148.642 86.5293
79.7032 149.542 86.2359
79.8376 148.522 87.2281
86.6489 150.524 84.413
79.7133 150.564 85.9464
86.5568 151.26 84.1078
86.2107 150.754 84.7669
86.0827 151.666 84.1522
79.6937 151.661 85.6803
85.7531 152.283 83.5409
79.7117 152.805 85.517
85.716 152.815 83.2666
79.8187 153.75 85.4014
80.0677 154.321 84.7991
80.3893 154.328 85.304
84.9821 153.396 83.219
84.979 152.954 83.7587
84.5116 153.272 83.7829
85.4055 152.776 83.7427
80.432 154.481 84.3746
80.7237 154.632 84.7324
82.9349 153.605 84.0792
83.0197 154.31 83.4437
83.807 153.474 83.8989
81.6724 155.146 83.5044
81.0749 155.007 84.1857
82.0529 154.809 83.2941
81.7637 154.778 84.1066
82.6431 154.579 83.1263
82.3309 154.415 83.8445
83.268 139.808 90.4222
82.2157 139.538 90.9836
82.9035 138.723 91.2895
83.5471 138.616 90.5265
83.6983 139.669 89.6707
84.187 137.864 89.9302
85.32 138.104 89.9855
85.8309 138.985 89.6605
86.175 140.014 89.8129
82.7655 140.754 89.9722
82.1923 140.953 90.3675
83.3891 140.866 89.3776
86.2027 141.183 89.6519
82.6126 142.064 89.0857
81.6287 141.81 89.6879
86.3593 142.215 89.6108
81.9436 142.969 88.9022
81.1309 143.631 89.3964
81.3309 142.689 89.705
86.6847 143.697 88.2655
86.3954 143.337 89.1158
81.5977 144.019 88.3784
80.5693 144.585 88.7576
86.683 144.54 88.3666
86.5936 145.671 87.9574
80.2219 145.814 88.4213
86.2359 146.761 87.6371
79.9888 146.89 88.2202
86.7626 147.98 86.2985
86.1226 147.759 87.099
79.7095 147.843 88.2307
86.5393 148.801 86.0245
85.9372 148.678 86.7832
79.5267 149.732 86.8988
79.7742 148.944 87.8311
86.0144 149.46 85.995
85.5581 149.28 86.5943
85.466 149.934 86.1159
86.369 149.798 85.3409
79.5496 150.889 86.7286
85.7829 150.688 85.3102
85.0972 150.566 85.8549
79.5646 151.958 86.5015
85.5459 151.679 84.7499
85.0387 151.495 85.4445
79.8414 152.665 86.3482
84.8452 152.163 84.4783
84.6935 151.858 85.123
84.3643 152.166 85.0794
85.4784 152.329 83.9279
79.8598 153.56 86.2521
81.1327 154.324 85.2894
80.4284 153.992 86.0267
81.328 153.931 85.8743
84.417 152.784 84.5075
83.9619 152.666 85.1333
83.6982 153.111 84.5838
81.44 154.651 84.7094
81.762 153.847 85.2845
81.9575 154.213 84.5594
82.4844 153.946 84.102
82.301 153.606 84.9286
83.0451 153.37 84.7745
83.6119 136.64 91.7206
82.7806 136.68 92.3125
82.9869 135.862 92.6597
83.9196 135.402 92.3564
84.5472 136.737 91.6715
84.4942 136.188 92.3555
85.0496 137.253 91.9451
84.9054 136.845 92.6556
82.9552 137.625 91.6333
82.0153 138.317 92.146
82.1398 137.186 92.5275
83.6843 137.425 90.8287
84.5936 137.102 90.7013
85.3593 137.687 91.054
85.2169 138.001 91.9737
81.6689 139.82 91.4893
85.8544 138.758 90.6516
86.0866 140.001 90.6894
81.44 141.131 90.7155
86.0719 141.273 90.4654
81.1718 141.945 90.2523
81.019 142.946 90.5055
81.0506 141.837 90.9567
85.8379 142.724 90.0862
80.8275 144.091 90.0534
85.9067 143.893 89.7687
80.1294 145.057 89.5278
86.2517 144.743 88.8583
86.0405 145.841 88.5411
79.8871 146.137 89.3806
85.7604 146.825 88.1515
79.7119 147.091 89.1856
85.7761 147.857 87.8152
79.6355 147.928 89.1591
85.5999 148.694 87.2865
79.6148 150.02 87.6905
79.6087 148.903 88.7224
85.1966 148.92 87.2139
84.7911 149.441 86.8889
79.6736 151.267 87.4738
79.841 150.31 88.2785
84.4323 150.535 86.2126
79.7353 152.414 87.2406
79.9848 151.958 88.1492
84.3943 151.502 85.7651
84.0688 150.777 86.4815
83.9054 151.473 86.2829
80.1527 152.925 86.8321
80.4465 152.684 87.436
83.0471 152.376 85.8901
82.8384 152.026 86.6322
82.4283 152.549 86.2552
83.7906 152.141 85.6549
83.4449 151.685 86.493
80.5825 153.405 86.7578
81.9257 153.555 85.9178
81.3423 153.565 86.6197
82.5329 153.249 85.6619
82.0267 152.937 86.5122
83.3027 152.951 85.3506
81.9301 125.181 97.1629
81.2513 124.826 96.9217
81.4123 123.876 97.2122
81.6011 124.771 97.7014
81.9542 125.521 97.6948
81.3831 125.097 98.1007
81.8588 125.891 96.7869
81.4951 126.238 96.7579
82.0029 126.16 97.3506
81.3993 126.187 98.0577
81.7945 126.899 96.8906
81.7018 127.031 97.6003
81.8243 135.005 93.5815
80.9457 135.823 94.0865
81.2656 134.556 94.327
82.2226 133.774 93.7206
82.8467 134.815 93.0389
83.5621 133.547 93.3268
84.0336 134.87 93.2013
83.993 134.624 94.2307
81.9549 136.157 93.1896
81.4111 137.207 93.3605
84.448 135.761 93.2672
84.9573 137.16 93.1872
81.3136 138.706 92.4327
85.0232 138.493 92.8252
81.0947 139.77 92.0756
80.6373 140.523 92.2797
80.6161 139.331 92.642
85.6383 139.171 91.6019
85.5951 140.551 91.4269
81.0993 140.861 91.5412
80.5681 141.942 91.5247
85.6759 141.686 91.0297
80.651 143.399 91.1057
85.5178 142.832 90.8404
80.0806 144.457 90.6727
85.1696 143.696 90.8151
79.662 145.534 90.3892
85.8199 144.858 89.439
85.2556 144.637 90.216
79.6682 146.524 90.4286
85.5266 145.754 89.2577
85.0047 145.853 89.7893
79.8399 147.45 90.2232
85.2965 146.839 88.7591
84.8673 147.337 89.0125
79.9509 148.383 89.7752
85.1919 148.238 87.9953
84.4562 148.116 88.4274
79.9175 149.514 89.2082
84.5226 149.1 87.724
84.2011 148.489 88.7189
83.8658 149.141 88.3451
80.1042 150.851 88.8938
82.8987 150.114 87.7294
82.6684 149.974 88.6402
82.5821 150.618 88.1462
83.6357 149.619 87.6461
83.2573 149.52 88.6961
84.2649 150.07 86.9896
80.5786 151.722 88.6303
81.0528 152.539 87.9809
81.9983 152.098 87.7383
81.4376 151.686 88.5007
82.5094 151.171 87.4837
82.1208 151.246 88.3219
82.9752 151.332 87.1035
83.5262 150.667 87.0357
81.0681 152.958 87.1455
81.7355 152.76 87.1525
82.3726 152.175 87.0075
79.7425 122.85 97.1274
79.2842 124.142 97.2597
78.9724 123.276 98.3564
80.2189 122.582 98.5263
81.1511 122.531 97.5083
81.0742 123.065 98.8054
80.2916 123.904 96.6944
80.2366 124.934 97.3998
81.5055 123.881 98.1893
81.0369 124.871 98.6118
81.0195 125.693 97.1219
80.5095 126.131 97.4172
81.0442 126.109 98.5449
80.9822 127.509 96.7159
80.5754 127.764 97.1979
81.4058 127.238 96.5468
81.9149 127.903 97.1393
81.4642 127.563 98.1097
81.309 128.748 96.5109
80.8746 129.121 97.0829
81.9128 128.624 95.9272
82.7262 128.653 96.1531
82.1377 128.654 97.383
82.999 129.099 96.7365
82.7432 129.441 97.3689
81.3411 129.941 96.2485
80.5131 130.436 96.7077
81.9953 129.924 95.4437
82.9876 129.73 95.1851
83.315 129.961 95.8756
83.2111 130.18 96.7964
81.1996 130.901 96.0447
81.8446 131.142 95.3574
81.0968 131.837 95.9572
82.8754 131.047 94.6456
83.6134 131.151 95.3247
83.405 131.231 96.2712
81.4945 132.367 95.1441
80.8504 132.876 95.8446
82.4561 131.935 94.4831
83.9055 131.916 94.6528
83.5756 132.405 95.9494
80.8111 133.65 95.275
81.6909 133.261 94.5346
80.36 134.809 95.0816
82.9737 132.489 93.7158
84.0077 133.033 95.4299
84.0334 133.143 94.2785
83.7853 134.104 95.2679
80.267 136.077 94.8587
83.9643 135.351 95.0239
80.7473 137.282 94.2206
80.5398 138.289 94.0199
79.9605 137.26 95.0536
84.6595 136.043 94.1583
84.571 137.351 94.0638
80.9608 138.26 93.3524
80.3444 139.583 93.3117
84.3927 138.442 93.8449
80.1943 141.044 92.7014
85.2716 139.592 92.3492
84.544 139.63 93.2626
80.1368 142.368 92.0584
85.0449 140.564 92.2539
85.1282 141.619 91.7829
79.9007 143.651 91.6349
84.7313 142.653 91.5871
79.6924 144.773 91.4688
84.6168 143.523 91.5062
84.3218 142.84 92.1908
84.0215 143.711 92.0239
79.9015 145.865 91.3624
84.4781 144.463 91.1295
83.6908 144.971 91.4498
79.9157 147.014 91.5153
84.4653 145.436 90.5709
83.6758 145.904 90.9364
80.1098 147.945 91.0113
83.8738 146.638 90.2152
83.1582 146.569 90.9513
82.9726 147.26 90.4634
84.4572 146.597 89.7158
80.1241 148.952 90.2823
83.4248 147.683 89.7557
82.8872 148.116 89.89
84.1279 147.613 89.4158
80.255 149.895 89.7843
83.5762 148.588 89.0921
82.9608 148.882 89.3076
80.5689 150.72 89.6123
80.9238 151.256 89.2832
81.7727 150.991 89.0837
81.4241 150.608 89.7441
82.3222 150.55 88.7892
82.1636 150.163 89.5768
82.4243 149.352 89.3301
79.4463 124.575 98.1904
79.0086 123.853 99.2016
79.8852 122.704 99.698
80.5627 123.724 99.7266
79.611 125.899 98.1535
80.8603 124.134 99.0587
80.8287 125.379 99.2437
80.094 126.964 97.8612
80.8661 127.023 98.7381
80.1763 128.142 97.7879
81.3919 128.29 98.5666
80.1461 129.43 97.5812
82.0151 128.997 97.9421
82.6636 130.147 97.6405
80.1184 130.376 97.5334
82.7708 131.164 97.1471
80.5507 131.241 96.4358
80.1532 131.184 97.149
82.8503 132.258 96.8544
80.3719 131.948 96.5997
80.3561 132.83 96.4965
82.8106 133.275 96.9481
80.2103 133.974 96.1218
80.0016 135.14 96.2295
82.8357 134.195 96.4547
83.266 135.217 95.9887
80.0094 136.285 96.1427
83.4485 136.101 95.8658
80.101 138.638 94.5028
79.8609 137.674 95.9022
83.8625 136.635 94.8928
83.8092 137.672 94.8742
80.0338 140.03 93.8069
84.0036 138.886 94.5437
79.8272 141.446 93.1895
84.0064 139.967 94.1698
79.5985 142.644 92.7875
84.6877 140.825 92.8585
84.1316 140.911 93.488
79.6305 143.87 92.483
84.3155 141.83 92.5377
83.7842 142.472 92.9336
79.8328 144.911 92.475
83.2999 143.744 92.3681
79.9591 145.874 92.3727
83.0515 144.976 91.9878
82.5683 144.306 92.6356
82.3623 145.225 92.4323
80.0966 146.829 92.4516
80.4982 147.812 92.1308
81.366 147.685 92.8031
80.6199 147.075 93.2229
81.964 146.843 92.4158
81.439 146.671 93.2901
82.5409 146.084 92.0834
81.8904 145.851 92.7241
83.2161 145.932 91.5565
80.4639 148.852 91.3927
81.2086 148.569 91.9726
81.9064 147.832 91.7662
82.4885 147.032 91.5183
80.7156 149.559 90.5759
81.3923 149.161 91.0392
81.9551 148.641 91.0484
82.426 147.943 90.7782
80.8962 150.227 90.0417
81.5043 149.918 90.3333
81.9998 149.38 90.2624
82.4303 148.662 90.052
79.5014 125.12 99.0163
79.5573 124.234 100.017
79.471 126.34 98.9777
79.7885 125.879 99.4781
80.2743 125.033 99.7964
79.6497 127.333 98.6284
79.7909 127.037 99.5308
80.1836 126.384 100.116
80.9584 126.07 99.8047
81.0047 127.357 99.304
79.8231 128.655 98.4335
81.4134 128.706 99.0925
79.8943 129.942 98.2979
81.8691 129.656 98.3137
82.1276 130.899 97.941
79.9832 130.989 98.0341
82.1152 132.043 97.682
79.9568 131.687 97.8547
82.0673 133.15 97.6847
80.0051 132.224 97.2095
79.9976 132.935 97.3231
82.0708 134.377 97.7316
80.152 133.532 96.976
80.1897 135.73 97.636
80.0668 134.371 97.38
81.649 135.534 97.7006
80.8781 134.828 98.4968
82.5383 135.34 96.8299
80.1144 136.887 96.9705
81.2321 136.848 97.6705
82.4168 136.351 96.8645
79.9013 139.108 94.9627
80.1451 138.639 95.9836
80.3641 137.72 97.2039
81.4642 137.883 97.2921
81.7921 138.748 96.537
82.212 137.527 96.6552
83.1616 137.133 95.9082
79.8095 140.536 94.331
82.6397 138.766 95.9148
82.0377 139.95 95.9693
83.2307 138.215 95.4706
79.9879 141.699 93.8789
82.3601 140.205 95.0286
82.0316 141.08 95.4162
83.2091 139.427 94.9833
79.8669 142.791 93.5623
82.51 141.45 94.4477
82.0279 142.229 94.8864
83.1887 140.68 94.2449
79.8776 143.793 93.3167
82.4775 142.562 93.9374
81.8044 143.097 94.335
83.2741 141.786 93.6117
80.0687 144.434 93.5935
80.3611 145.168 93.5659
81.2428 144.884 94.2861
80.531 144.371 94.3093
81.9325 144.25 94.1335
81.3949 143.911 94.5488
82.1771 143.67 93.4976
82.7572 143.193 93.1125
80.2412 146.114 93.1735
80.9058 145.918 93.5761
81.692 145.43 93.6952
82.0335 144.666 93.185
79.8594 128.364 99.2204
80.1048 127.907 99.947
80.584 127.534 99.772
79.8161 129.598 99.1496
80.2225 129.215 99.7825
80.949 128.858 99.6068
79.9384 130.811 98.9018
80.4413 130.49 99.5103
81.0798 130.322 99.3306
81.377 130.092 98.6958
80.2046 131.792 98.5378
80.5081 131.579 99.3603
81.2194 131.47 99.1805
81.55 131.239 98.5047
80.0677 132.557 98.0528
80.4054 132.671 98.8687
81.1076 132.711 99.3335
81.7519 132.439 98.528
80.2373 133.41 97.9425
80.4574 133.92 98.7574
81.4206 133.719 98.4984
80.1356 139.96 95.4102
80.4491 139.384 96.3341
81.0008 138.736 97.1153
80.3548 141.085 94.9557
80.4389 140.64 96.1027
81.2443 139.834 96.614
80.4192 142.007 94.5352
80.6555 141.661 95.8784
81.603 141.008 96.3498
80.3387 142.815 94.1781
80.7925 142.373 95.161
81.5251 141.975 95.7449
80.1901 143.716 94.1013
80.6983 143.162 94.674
81.4736 142.75 95.2152
POLYGONS 2132  8528
3 0 1 2
3 0 3 4
3 2 3 0
3 4 5 6
3 3 5 4
3 6 7 8
3 5 7 6
3 7 9 8
3 10 1 0
3 11 1 10
3 4 12 0
3 12 10 0
3 6 13 4
3 13 12 4
3 8 14 6
3 14 13 6
3 15 8 9
3 14 8 15
3 16 11 10
3 17 11 16
3 12 18 10
3 18 16 10
3 13 19 12
3 19 18 12
3 14 20 13
3 20 19 13
3 21 14 15
3 20 14 21
3 16 22 17
3 18 22 16
3 23 22 18
3 19 23 18
3 24 23 19
3 20 24 19
3 25 24 20
3 21 25 20
3 26 27 28
3 26 29 30
3 28 29 26
3 29 31 30
3 32 33 34
3 27 32 34
3 27 26 32
3 26 35 32
3 30 36 26
3 36 35 26
3 37 30 31
3 36 30 37
3 38 33 32
3 39 33 38
3 35 40 32
3 40 38 32
3 36 41 35
3 41 40 35
3 42 36 37
3 41 36 42
3 43 44 45
3 43 46 47
3 45 46 43
3 39 47 46
3 39 38 47
3 38 48 47
3 40 49 38
3 49 48 38
3 50 41 51
3 50 49 41
3 49 40 41
3 42 51 41
3 2 44 43
3 2 1 44
3 1 52 44
3 3 2 43
3 47 3 43
3 5 3 47
3 48 5 47
3 7 5 48
3 49 7 48
3 49 9 7
3 49 50 9
3 50 53 9
3 1 11 52
3 52 11 54
3 9 53 15
3 53 55 15
3 11 17 54
3 54 17 56
3 15 55 21
3 55 57 21
3 58 17 22
3 58 59 17
3 59 56 17
3 22 23 60
3 58 22 60
3 23 24 61
3 60 23 61
3 62 61 24
3 62 24 63
3 63 24 25
3 57 25 21
3 63 25 57
3 58 64 59
3 60 64 58
3 65 64 60
3 61 65 60
3 66 65 61
3 62 66 61
3 67 68 69
3 67 70 71
3 69 70 67
3 71 72 73
3 70 72 71
3 72 74 73
3 75 76 77
3 68 75 77
3 68 67 75
3 67 78 75
3 71 79 67
3 79 78 67
3 73 80 71
3 80 79 71
3 81 73 74
3 80 73 81
3 82 76 75
3 83 76 82
3 78 84 75
3 84 82 75
3 79 85 78
3 85 84 78
3 80 86 79
3 86 85 79
3 87 80 81
3 86 80 87
3 28 83 82
3 28 27 83
3 27 88 83
3 29 28 82
3 84 29 82
3 31 29 84
3 31 84 89
3 89 84 85
3 86 90 85
3 90 89 85
3 91 86 87
3 90 86 91
3 34 92 93
3 33 92 34
3 88 27 34
3 93 88 34
3 89 94 37
3 31 89 37
3 90 95 89
3 95 94 89
3 96 90 91
3 95 90 96
3 97 98 99
3 97 99 92
3 97 92 39
3 39 92 33
3 94 100 42
3 37 94 42
3 101 95 102
3 101 100 95
3 100 94 95
3 96 102 95
3 45 103 104
3 44 103 45
3 98 97 46
3 98 46 104
3 104 46 45
3 39 46 97
3 51 105 50
3 51 42 100
3 51 100 105
3 105 100 106
3 107 100 101
3 106 100 107
3 44 52 103
3 103 52 108
3 105 109 53
3 50 105 53
3 110 106 111
3 110 109 106
3 109 105 106
3 107 111 106
3 52 54 108
3 108 54 112
3 109 113 55
3 53 109 55
3 114 109 110
3 113 109 114
3 54 56 112
3 112 56 115
3 113 116 57
3 55 113 57
3 117 113 114
3 116 113 117
3 56 59 115
3 115 59 118
3 63 119 120
3 62 63 120
3 116 63 57
3 116 121 63
3 121 119 63
3 117 121 116
3 59 122 118
3 64 122 59
3 65 123 64
3 64 123 122
3 66 124 65
3 65 124 123
3 120 66 62
3 124 66 120
3 69 125 126
3 68 125 69
3 70 69 127
3 69 126 127
3 72 70 128
3 70 127 128
3 128 74 72
3 129 74 128
3 77 130 131
3 76 130 77
3 125 68 77
3 131 125 77
3 74 129 81
3 129 132 81
3 76 83 130
3 130 83 133
3 134 135 87
3 134 87 132
3 132 87 81
3 134 136 135
3 83 88 133
3 133 88 137
3 135 138 91
3 87 135 91
3 139 135 136
3 138 135 139
3 93 140 141
3 92 140 93
3 137 88 93
3 141 137 93
3 138 142 96
3 91 138 96
3 143 138 139
3 142 138 143
3 99 144 145
3 98 144 99
3 140 92 99
3 145 140 99
3 102 146 101
3 102 147 146
3 96 147 102
3 96 148 147
3 96 142 148
3 143 148 142
3 104 149 150
3 103 149 104
3 144 98 104
3 150 144 104
3 146 151 107
3 101 146 107
3 152 146 147
3 151 146 152
3 103 108 149
3 149 108 153
3 111 154 110
3 111 155 154
3 107 155 111
3 107 156 155
3 107 151 156
3 152 156 151
3 108 112 153
3 153 112 157
3 154 158 114
3 110 154 114
3 159 154 155
3 158 154 159
3 112 115 157
3 157 115 160
3 158 161 162
3 158 162 114
3 114 162 117
3 159 161 158
3 115 118 160
3 160 118 163
3 119 164 120
3 165 164 119
3 165 119 166
3 166 119 121
3 162 121 117
3 166 121 162
3 118 167 163
3 122 167 118
3 123 168 122
3 122 168 167
3 124 169 123
3 123 169 168
3 164 124 120
3 164 170 124
3 170 169 124
3 165 170 164
3 126 125 171
3 172 126 171
3 172 173 126
3 173 127 126
3 128 127 174
3 127 173 174
3 174 129 128
3 175 129 174
3 131 130 176
3 131 176 177
3 125 131 177
3 125 177 178
3 125 178 171
3 172 171 178
3 179 180 132
3 179 132 175
3 175 132 129
3 179 181 180
3 176 182 183
3 176 130 182
3 130 133 182
3 177 176 183
3 132 180 134
3 180 136 134
3 180 181 136
3 181 184 136
3 133 137 182
3 182 137 185
3 136 184 139
3 184 186 139
3 141 187 188
3 140 187 141
3 185 137 141
3 188 185 141
3 139 186 143
3 186 189 143
3 145 190 191
3 144 190 145
3 187 140 145
3 191 187 145
3 148 192 147
3 148 193 192
3 148 143 193
3 143 189 193
3 150 194 195
3 149 194 150
3 190 144 150
3 195 190 150
3 192 196 152
3 147 192 152
3 197 192 193
3 196 192 197
3 198 199 200
3 198 200 194
3 198 194 153
3 153 194 149
3 156 201 155
3 156 202 201
3 152 202 156
3 152 203 202
3 152 196 203
3 197 203 196
3 204 199 198
3 205 199 204
3 153 157 204
3 198 153 204
3 201 206 159
3 155 201 159
3 207 201 202
3 206 201 207
3 208 205 204
3 209 205 208
3 157 160 208
3 204 157 208
3 161 210 162
3 161 211 210
3 159 211 161
3 159 212 211
3 159 206 212
3 207 212 206
3 213 209 208
3 214 209 213
3 160 163 213
3 208 160 213
3 166 215 216
3 165 166 216
3 210 166 162
3 210 217 166
3 217 215 166
3 211 217 210
3 213 218 214
3 163 218 213
3 163 167 218
3 167 219 218
3 168 220 167
3 167 220 219
3 169 221 168
3 168 221 220
3 170 222 169
3 169 222 221
3 216 170 165
3 222 170 216
3 223 224 225
3 223 226 227
3 225 226 223
3 226 228 227
3 173 224 223
3 173 172 224
3 172 229 224
3 174 173 223
3 227 174 223
3 227 175 174
3 227 228 175
3 228 230 175
3 178 231 232
3 177 231 178
3 229 172 178
3 232 229 178
3 175 230 233
3 179 175 233
3 233 181 179
3 234 181 233
3 183 235 236
3 182 235 183
3 231 177 183
3 236 231 183
3 181 234 184
3 234 237 184
3 238 239 240
3 238 240 235
3 238 235 185
3 185 235 182
3 184 237 186
3 237 241 186
3 242 243 244
3 239 242 244
3 238 242 239
3 238 187 242
3 238 188 187
3 185 188 238
3 186 241 189
3 241 245 189
3 246 247 248
3 243 246 248
3 242 246 243
3 242 190 246
3 242 191 190
3 187 191 242
3 189 245 193
3 245 249 193
3 250 251 252
3 247 250 252
3 246 250 247
3 246 194 250
3 246 195 194
3 190 195 246
3 193 249 197
3 249 253 197
3 200 251 250
3 200 199 251
3 199 254 251
3 194 200 250
3 203 255 256
3 202 203 256
3 253 203 197
3 255 203 253
3 199 205 254
3 254 205 257
3 202 256 207
3 256 258 207
3 205 209 257
3 257 209 259
3 212 260 261
3 211 212 261
3 258 212 207
3 260 212 258
3 209 214 259
3 259 214 262
3 215 263 264
3 216 215 264
3 217 265 215
3 215 265 263
3 261 217 211
3 265 217 261
3 214 266 262
3 218 266 214
3 219 267 218
3 218 267 266
3 220 268 219
3 219 268 267
3 221 269 220
3 220 269 268
3 222 270 221
3 221 270 269
3 264 222 216
3 270 222 264
3 271 272 273
3 271 225 224
3 271 273 225
3 273 274 225
3 226 225 275
3 225 274 275
3 275 228 226
3 276 228 275
3 277 272 271
3 278 272 277
3 224 229 277
3 271 224 277
3 228 276 230
3 276 279 230
3 232 278 277
3 232 231 278
3 231 280 278
3 229 232 277
3 230 279 281
3 233 230 281
3 281 234 233
3 282 234 281
3 283 284 285
3 283 236 235
3 283 285 236
3 285 286 236
3 280 231 236
3 286 280 236
3 234 282 237
3 282 287 237
3 288 289 290
3 284 288 290
3 283 288 284
3 283 239 288
3 283 240 239
3 235 240 283
3 237 287 241
3 287 291 241
3 244 289 288
3 244 243 289
3 243 292 289
3 239 244 288
3 241 291 245
3 291 293 245
3 248 294 295
3 247 294 248
3 292 243 248
3 295 292 248
3 245 293 249
3 293 296 249
3 252 297 298
3 251 297 252
3 294 247 252
3 298 294 252
3 249 296 253
3 296 299 253
3 251 254 297
3 297 254 300
3 255 301 302
3 256 255 302
3 299 255 253
3 301 255 299
3 254 257 300
3 300 257 303
3 256 302 258
3 302 304 258
3 257 259 303
3 303 259 305
3 260 306 307
3 261 260 307
3 304 260 258
3 306 260 304
3 259 262 305
3 305 262 308
3 263 309 264
3 310 309 263
3 310 263 311
3 311 263 265
3 307 265 261
3 311 265 307
3 262 312 308
3 266 312 262
3 267 313 266
3 266 313 312
3 268 314 267
3 267 314 313
3 269 315 268
3 268 315 314
3 270 316 269
3 269 316 315
3 309 270 264
3 309 317 270
3 317 316 270
3 310 317 309
3 318 319 320
3 318 321 322
3 320 321 318
3 322 323 324
3 321 323 322
3 323 325 324
3 273 319 318
3 273 272 319
3 272 326 319
3 274 273 318
3 322 274 318
3 275 274 322
3 324 275 322
3 324 276 275
3 324 325 276
3 325 327 276
3 272 278 326
3 326 278 328
3 276 327 279
3 327 329 279
3 330 331 332
3 330 332 328
3 330 328 280
3 280 328 278
3 279 329 333
3 281 279 333
3 333 282 281
3 334 282 333
3 285 335 336
3 284 335 285
3 331 330 286
3 331 286 336
3 336 286 285
3 280 286 330
3 282 334 287
3 334 337 287
3 290 338 339
3 289 338 290
3 335 284 290
3 339 335 290
3 287 337 291
3 337 340 291
3 289 292 338
3 338 292 341
3 291 340 293
3 340 342 293
3 295 343 344
3 294 343 295
3 341 292 295
3 344 341 295
3 293 342 296
3 342 345 296
3 298 346 347
3 297 346 298
3 343 294 298
3 347 343 298
3 296 345 299
3 345 348 299
3 297 300 346
3 346 300 349
3 301 350 351
3 302 301 351
3 348 301 299
3 350 301 348
3 300 303 349
3 349 303 352
3 302 351 304
3 351 353 304
3 303 305 352
3 352 305 354
3 306 355 356
3 307 306 356
3 353 306 304
3 355 306 353
3 305 308 354
3 354 308 357
3 311 358 359
3 310 311 359
3 356 311 307
3 358 311 356
3 308 360 357
3 312 360 308
3 313 361 312
3 312 361 360
3 314 362 313
3 313 362 361
3 315 363 314
3 314 363 362
3 316 364 315
3 315 364 363
3 317 365 316
3 316 365 364
3 359 317 310
3 365 317 359
3 366 367 368
3 366 369 370
3 368 369 366
3 369 371 370
3 320 367 366
3 320 319 367
3 319 372 367
3 321 320 366
3 370 321 366
3 370 371 373
3 370 373 321
3 321 373 323
3 373 325 323
3 374 325 373
3 375 376 377
3 375 377 372
3 375 372 326
3 326 372 319
3 325 374 327
3 374 378 327
3 379 376 375
3 380 376 379
3 326 328 379
3 375 326 379
3 327 378 329
3 378 381 329
3 382 383 384
3 380 382 384
3 379 382 380
3 379 331 382
3 379 332 331
3 328 332 379
3 329 381 385
3 333 329 385
3 385 334 333
3 386 334 385
3 387 388 389
3 383 387 389
3 382 387 383
3 382 335 387
3 382 336 335
3 331 336 382
3 334 386 337
3 386 390 337
3 339 388 387
3 339 338 388
3 338 391 388
3 335 339 387
3 337 390 340
3 390 392 340
3 393 394 395
3 393 395 391
3 393 391 341
3 341 391 338
3 340 392 342
3 392 396 342
3 397 398 399
3 394 397 399
3 393 397 394
3 393 343 397
3 393 344 343
3 341 344 393
3 400 401 402
3 400 396 401
3 400 345 396
3 345 342 396
3 347 398 397
3 347 346 398
3 346 403 398
3 343 347 397
3 404 400 402
3 405 404 402
3 345 404 348
3 400 404 345
3 346 349 403
3 403 349 406
3 350 404 405
3 350 405 351
3 351 405 407
3 348 404 350
3 349 352 406
3 406 352 408
3 351 407 353
3 407 409 353
3 352 354 408
3 408 354 410
3 355 411 412
3 356 355 412
3 409 355 353
3 411 355 409
3 413 357 414
3 413 410 357
3 410 354 357
3 413 414 415
3 358 416 417
3 359 358 417
3 412 358 356
3 416 358 412
3 357 360 414
3 414 418 415
3 414 360 418
3 360 361 418
3 362 419 361
3 361 419 418
3 363 420 362
3 362 420 419
3 364 421 363
3 363 421 420
3 365 422 364
3 364 422 421
3 417 365 359
3 422 365 417
3 423 424 425
3 423 368 367
3 423 425 368
3 425 426 368
3 369 368 427
3 368 426 427
3 427 371 369
3 428 371 427
3 429 424 423
3 430 424 429
3 367 372 429
3 423 367 429
3 371 428 431
3 373 371 431
3 431 374 373
3 432 374 431
3 433 434 435
3 430 433 435
3 429 433 430
3 429 376 433
3 429 377 376
3 372 377 429
3 374 432 378
3 432 436 378
3 437 434 433
3 438 434 437
3 376 380 437
3 433 376 437
3 439 440 381
3 439 381 436
3 436 381 378
3 439 441 440
3 442 443 444
3 438 442 444
3 437 442 438
3 437 383 442
3 437 384 383
3 380 384 437
3 381 440 385
3 440 386 385
3 440 441 386
3 441 445 386
3 389 443 442
3 389 388 443
3 388 446 443
3 383 389 442
3 386 445 390
3 445 447 390
3 388 391 446
3 446 391 448
3 390 447 392
3 447 449 392
3 395 450 451
3 394 450 395
3 448 391 395
3 451 448 395
3 392 449 396
3 449 452 396
3 399 453 454
3 398 453 399
3 450 394 399
3 454 450 399
3 401 455 456
3 402 401 456
3 452 401 396
3 455 401 452
3 398 403 453
3 453 403 457
3 402 456 405
3 456 458 405
3 403 406 457
3 457 406 459
3 405 458 407
3 458 460 407
3 406 408 459
3 459 408 461
3 462 463 464
3 462 460 463
3 462 409 460
3 409 407 460
3 465 410 466
3 465 461 410
3 461 408 410
3 465 466 467
3 468 469 470
3 464 469 468
3 462 464 468
3 462 468 412
3 462 412 411
3 409 462 411
3 410 413 466
3 466 413 415
3 466 415 467
3 467 415 471
3 472 473 474
3 472 475 476
3 473 472 476
3 470 476 475
3 468 470 475
3 468 475 417
3 468 417 416
3 412 468 416
3 415 477 471
3 418 477 415
3 419 478 418
3 418 478 477
3 420 479 419
3 419 479 478
3 474 421 472
3 474 479 421
3 479 420 421
3 422 472 421
3 475 472 422
3 417 475 422
3 480 481 482
3 480 483 484
3 482 483 480
3 483 485 484
3 425 486 487
3 424 486 425
3 481 480 426
3 481 426 487
3 487 426 425
3 427 426 480
3 484 427 480
3 484 428 427
3 484 485 428
3 485 488 428
3 489 490 491
3 489 491 486
3 489 486 430
3 430 486 424
3 428 488 492
3 431 428 492
3 492 432 431
3 493 432 492
3 494 495 496
3 490 494 496
3 489 494 490
3 489 434 494
3 489 435 434
3 430 435 489
3 432 493 436
3 493 497 436
3 498 495 494
3 499 495 498
3 434 438 498
3 494 434 498
3 436 497 500
3 439 436 500
3 500 441 439
3 501 441 500
3 444 499 498
3 444 443 499
3 443 502 499
3 438 444 498
3 441 501 445
3 501 503 445
3 504 505 506
3 504 506 502
3 504 502 446
3 446 502 443
3 445 503 447
3 503 507 447
3 508 505 504
3 509 505 508
3 446 448 508
3 504 446 508
3 447 507 449
3 507 510 449
3 511 512 513
3 509 511 513
3 508 511 509
3 508 450 511
3 508 451 450
3 448 451 508
3 449 510 452
3 510 514 452
3 454 512 511
3 454 453 512
3 453 515 512
3 450 454 511
3 455 516 517
3 456 455 517
3 514 455 452
3 516 455 514
3 453 457 515
3 515 457 518
3 456 517 458
3 517 519 458
3 457 459 518
3 518 459 520
3 521 522 523
3 521 519 522
3 521 460 519
3 460 458 519
3 459 461 520
3 520 461 524
3 525 526 527
3 525 528 529
3 526 525 529
3 528 530 531
3 529 528 531
3 523 531 530
3 521 523 530
3 521 530 464
3 521 464 463
3 460 521 463
3 461 532 524
3 465 532 461
3 532 465 467
3 533 532 467
3 534 525 527
3 535 534 527
3 528 525 536
3 536 525 534
3 469 536 470
3 469 530 536
3 530 528 536
3 464 530 469
3 537 471 538
3 537 533 471
3 533 467 471
3 538 539 540
3 537 538 540
3 539 541 542
3 540 539 542
3 535 542 541
3 534 535 541
3 534 541 474
3 534 474 473
3 476 534 473
3 536 534 476
3 470 536 476
3 471 477 538
3 478 538 477
3 539 538 478
3 479 539 478
3 541 539 479
3 474 541 479
3 543 544 545
3 543 546 547
3 545 546 543
3 547 548 549
3 546 548 547
3 548 550 549
3 551 544 543
3 552 544 551
3 482 481 551
3 482 551 547
3 547 551 543
3 483 482 547
3 549 483 547
3 549 485 483
3 549 550 485
3 550 553 485
3 554 555 556
3 552 554 556
3 551 554 552
3 551 486 554
3 551 487 486
3 481 487 551
3 485 553 488
3 553 557 488
3 558 559 560
3 555 558 560
3 554 558 555
3 554 490 558
3 554 491 490
3 486 491 554
3 488 557 561
3 492 488 561
3 561 493 492
3 562 493 561
3 496 559 558
3 496 495 559
3 495 563 559
3 490 496 558
3 493 562 497
3 562 564 497
3 565 566 567
3 565 567 563
3 565 563 499
3 499 563 495
3 568 500 497
3 568 497 569
3 569 497 564
3 500 568 501
3 570 566 565
3 571 566 570
3 499 502 570
3 565 499 570
3 568 569 572
3 572 501 568
3 572 573 501
3 573 503 501
3 506 571 570
3 506 505 571
3 505 574 571
3 502 506 570
3 503 573 507
3 573 575 507
3 576 577 578
3 576 578 574
3 576 574 509
3 509 574 505
3 507 575 510
3 575 579 510
3 513 577 576
3 513 512 577
3 512 580 577
3 509 513 576
3 581 582 583
3 581 579 582
3 581 514 579
3 514 510 579
3 512 515 580
3 580 515 584
3 516 581 583
3 516 583 517
3 517 583 585
3 514 581 516
3 515 518 584
3 584 518 586
3 517 585 519
3 585 587 519
3 588 520 589
3 588 586 520
3 586 518 520
3 588 589 590
3 591 592 593
3 591 523 522
3 591 522 592
3 592 522 594
3 587 522 519
3 594 522 587
3 589 524 595
3 520 524 589
3 596 590 589
3 595 596 589
3 526 597 598
3 527 526 598
3 529 599 526
3 526 599 597
3 593 531 591
3 593 599 531
3 599 529 531
3 523 591 531
3 524 532 595
3 533 600 601
3 532 533 601
3 532 601 596
3 532 596 595
3 600 602 603
3 601 600 603
3 602 604 605
3 603 602 605
3 604 598 605
3 604 535 598
3 535 527 598
3 533 537 600
3 540 600 537
3 602 600 540
3 542 602 540
3 604 602 542
3 535 604 542
3 606 607 608
3 606 609 610
3 608 609 606
3 610 545 544
3 610 609 545
3 609 611 545
3 546 545 612
3 545 611 612
3 548 546 613
3 546 612 613
3 613 550 548
3 614 550 613
3 615 607 606
3 616 607 615
3 610 617 606
3 617 615 606
3 544 552 617
3 610 544 617
3 550 614 553
3 614 618 553
3 619 616 615
3 620 616 619
3 556 555 619
3 556 619 617
3 617 619 615
3 552 556 617
3 553 618 557
3 618 621 557
3 622 623 624
3 620 622 624
3 619 622 620
3 619 559 622
3 619 560 559
3 555 560 619
3 625 561 557
3 625 557 626
3 626 557 621
3 561 625 562
3 627 623 622
3 628 623 627
3 559 563 627
3 622 559 627
3 625 626 629
3 629 562 625
3 629 630 562
3 630 564 562
3 567 628 627
3 567 566 628
3 566 631 628
3 563 567 627
3 564 630 569
3 630 632 569
3 566 571 631
3 631 571 633
3 634 572 569
3 634 569 635
3 635 569 632
3 572 634 573
3 571 574 633
3 633 574 636
3 637 634 635
3 638 637 635
3 573 637 575
3 634 637 573
3 578 639 640
3 577 639 578
3 636 574 578
3 640 636 578
3 641 642 643
3 638 642 641
3 638 641 637
3 637 641 644
3 575 644 579
3 637 644 575
3 577 580 639
3 639 580 645
3 646 641 643
3 647 646 643
3 582 646 583
3 582 644 646
3 644 641 646
3 579 644 582
3 580 584 645
3 645 584 648
3 649 646 647
3 650 649 647
3 583 649 585
3 646 649 583
3 584 586 648
3 648 586 651
3 652 653 654
3 650 653 652
3 650 652 649
3 649 652 655
3 585 655 587
3 649 655 585
3 586 656 651
3 588 656 586
3 590 657 658
3 590 658 588
3 588 658 656
3 658 657 659
3 660 661 662
3 654 661 660
3 652 654 660
3 652 660 593
3 652 593 592
3 594 652 592
3 655 652 594
3 587 655 594
3 657 596 663
3 590 596 657
3 664 659 657
3 664 657 665
3 665 657 663
3 665 666 667
3 664 665 667
3 666 598 597
3 666 597 667
3 667 597 668
3 662 599 660
3 662 668 599
3 668 597 599
3 593 660 599
3 596 601 663
3 603 663 601
3 665 663 603
3 605 665 603
3 666 665 605
3 598 666 605
3 669 670 671
3 669 672 673
3 671 672 669
3 673 674 675
3 672 674 673
3 674 676 675
3 677 678 679
3 670 677 679
3 670 669 677
3 669 680 677
3 673 681 669
3 681 680 669
3 675 682 673
3 682 681 673
3 683 675 676
3 682 675 683
3 608 678 677
3 608 607 678
3 607 684 678
3 609 608 677
3 680 609 677
3 611 609 680
3 681 611 680
3 612 611 681
3 682 612 681
3 682 683 685
3 682 685 612
3 612 685 613
3 685 614 613
3 686 614 685
3 607 616 684
3 684 616 687
3 614 686 618
3 686 688 618
3 689 690 691
3 689 691 687
3 689 687 620
3 620 687 616
3 618 688 621
3 688 692 621
3 624 690 689
3 624 623 690
3 623 693 690
3 620 624 689
3 621 692 626
3 692 694 626
3 623 628 693
3 693 628 695
3 626 694 696
3 629 626 696
3 696 630 629
3 697 630 696
3 628 631 695
3 695 631 698
3 630 697 632
3 697 699 632
3 631 633 698
3 698 633 700
3 632 699 635
3 699 701 635
3 633 636 700
3 700 636 702
3 635 701 638
3 701 703 638
3 640 639 704
3 640 704 705
3 640 705 636
3 636 705 702
3 642 706 707
3 643 642 707
3 703 642 638
3 706 642 703
3 704 645 708
3 639 645 704
3 709 705 704
3 708 709 704
3 643 707 647
3 707 710 647
3 708 648 711
3 645 648 708
3 712 709 708
3 711 712 708
3 713 714 715
3 713 710 714
3 713 650 710
3 650 647 710
3 711 651 716
3 648 651 711
3 717 712 711
3 716 717 711
3 718 719 720
3 718 721 722
3 719 718 722
3 715 722 721
3 713 715 721
3 713 721 654
3 713 654 653
3 650 713 653
3 651 656 716
3 716 723 717
3 716 656 723
3 656 658 723
3 659 724 725
3 659 725 658
3 658 725 723
3 724 726 727
3 725 724 727
3 720 727 726
3 720 726 718
3 718 726 728
3 661 728 662
3 661 721 728
3 721 718 728
3 654 721 661
3 659 664 724
3 667 724 664
3 726 724 667
3 668 726 667
3 728 726 668
3 662 728 668
3 729 730 731
3 729 732 733
3 731 732 729
3 732 734 733
3 735 730 729
3 736 730 735
3 733 737 729
3 737 735 729
3 738 733 734
3 737 733 738
3 735 739 736
3 737 739 735
3 740 739 737
3 738 740 737
3 741 742 743
3 741 744 745
3 743 744 741
3 745 746 747
3 744 746 745
3 746 748 747
3 749 742 741
3 750 742 749
3 671 670 749
3 671 749 745
3 745 749 741
3 672 671 745
3 747 672 745
3 747 748 751
3 747 751 672
3 672 751 674
3 751 676 674
3 752 676 751
3 679 750 749
3 679 678 750
3 678 753 750
3 670 679 749
3 676 752 683
3 752 754 683
3 755 756 757
3 755 757 753
3 755 753 684
3 684 753 678
3 683 754 758
3 685 683 758
3 758 686 685
3 759 686 758
3 760 756 755
3 761 756 760
3 684 687 760
3 755 684 760
3 686 759 688
3 759 762 688
3 691 761 760
3 691 690 761
3 690 763 761
3 687 691 760
3 688 762 692
3 762 764 692
3 690 693 763
3 763 693 765
3 692 764 694
3 764 766 694
3 693 695 765
3 765 695 767
3 768 696 694
3 768 694 769
3 769 694 766
3 696 768 697
3 695 698 767
3 767 698 770
3 771 768 769
3 772 771 769
3 697 771 699
3 768 771 697
3 698 700 770
3 770 700 773
3 774 771 772
3 775 774 772
3 699 774 701
3 771 774 699
3 700 702 773
3 773 702 776
3 777 774 775
3 778 777 775
3 701 777 703
3 774 777 701
3 702 705 776
3 776 705 779
3 780 781 782
3 778 781 780
3 777 778 780
3 777 780 707
3 777 707 706
3 703 777 706
3 705 709 779
3 779 709 783
3 784 785 786
3 784 787 788
3 785 784 788
3 782 788 787
3 782 787 780
3 780 787 789
3 707 789 710
3 780 789 707
3 790 712 791
3 790 783 712
3 783 709 712
3 791 792 793
3 790 791 793
3 792 794 795
3 793 792 795
3 786 795 794
3 786 794 784
3 784 794 796
3 787 784 797
3 797 784 796
3 714 797 715
3 714 789 797
3 789 787 797
3 710 789 714
3 791 717 798
3 712 717 791
3 792 791 799
3 799 791 798
3 794 792 800
3 800 792 799
3 719 800 720
3 719 796 800
3 796 794 800
3 722 796 719
3 797 796 722
3 715 797 722
3 717 723 798
3 725 798 723
3 799 798 725
3 727 799 725
3 800 799 727
3 720 800 727
3 801 802 803
3 801 804 805
3 803 804 801
3 804 806 805
3 807 802 801
3 808 802 807
3 731 730 807
3 731 807 805
3 805 807 801
3 805 806 809
3 805 809 731
3 731 809 732
3 809 734 732
3 810 734 809
3 811 808 807
3 812 808 811
3 730 736 811
3 807 730 811
3 734 810 738
3 810 813 738
3 814 812 811
3 815 812 814
3 736 739 816
3 736 816 811
3 811 816 814
3 739 740 817
3 816 739 817
3 740 818 817
3 740 738 818
3 738 813 818
3 819 815 814
3 820 815 819
3 816 821 814
3 821 819 814
3 817 822 816
3 822 821 816
3 823 817 818
3 823 824 817
3 824 822 817
3 823 825 824
3 826 820 819
3 827 820 826
3 821 828 819
3 828 826 819
3 822 829 821
3 829 828 821
3 824 830 822
3 830 829 822
3 831 824 825
3 830 824 831
3 826 832 827
3 832 833 834
3 832 826 833
3 826 828 833
3 829 835 828
3 835 833 828
3 830 836 829
3 836 835 829
3 837 830 831
3 836 830 837
3 838 834 833
3 839 834 838
3 835 840 833
3 840 838 833
3 836 841 835
3 841 840 835
3 842 836 837
3 841 836 842
3 838 843 839
3 843 844 845
3 843 838 844
3 838 840 844
3 841 846 840
3 846 844 840
3 847 841 842
3 847 848 841
3 848 846 841
3 847 849 848
3 743 845 844
3 743 742 845
3 742 850 845
3 744 743 844
3 846 744 844
3 746 744 846
3 848 746 846
3 848 748 746
3 848 849 748
3 849 851 748
3 852 853 854
3 852 854 850
3 852 850 750
3 750 850 742
3 748 851 855
3 751 748 855
3 855 752 751
3 856 752 855
3 857 853 852
3 858 853 857
3 750 753 857
3 852 750 857
3 752 856 754
3 856 859 754
3 757 858 857
3 757 756 858
3 756 860 858
3 753 757 857
3 861 758 754
3 861 754 862
3 862 754 859
3 758 861 759
3 756 761 860
3 860 761 863
3 861 862 864
3 864 759 861
3 864 865 759
3 865 762 759
3 761 763 863
3 863 763 866
3 762 865 764
3 865 867 764
3 763 765 866
3 866 765 868
3 869 870 871
3 869 867 870
3 869 766 867
3 766 764 867
3 765 767 868
3 868 767 872
3 873 869 871
3 874 873 871
3 766 873 769
3 869 873 766
3 767 770 872
3 872 770 875
3 876 873 874
3 877 876 874
3 769 876 772
3 873 876 769
3 770 773 875
3 875 773 878
3 879 880 881
3 877 880 879
3 877 879 876
3 876 879 882
3 772 882 775
3 876 882 772
3 773 776 878
3 878 776 883
3 884 879 881
3 885 884 881
3 882 879 886
3 886 879 884
3 775 886 778
3 882 886 775
3 776 779 883
3 883 779 887
3 888 884 885
3 889 888 885
3 781 888 782
3 781 886 888
3 886 884 888
3 778 886 781
3 890 783 891
3 890 887 783
3 887 779 783
3 891 892 893
3 890 891 893
3 892 894 895
3 893 892 895
3 894 786 785
3 894 785 895
3 895 785 896
3 889 788 888
3 889 896 788
3 896 785 788
3 782 888 788
3 783 790 891
3 793 891 790
3 892 891 793
3 795 892 793
3 894 892 795
3 786 894 795
3 803 897 898
3 802 897 803
3 804 803 899
3 803 898 899
3 899 806 804
3 900 806 899
3 802 808 897
3 897 808 901
3 806 900 902
3 809 806 902
3 902 810 809
3 903 810 902
3 808 812 901
3 901 812 904
3 810 903 813
3 903 905 813
3 812 815 904
3 904 815 906
3 813 905 818
3 905 907 818
3 815 820 906
3 906 820 908
3 818 907 909
3 823 818 909
3 909 825 823
3 910 825 909
3 820 827 908
3 908 827 911
3 825 910 831
3 910 912 831
3 913 827 832
3 913 914 827
3 914 911 827
3 832 834 913
3 831 912 837
3 912 915 837
3 913 916 914
3 916 913 834
3 916 834 917
3 917 834 839
3 837 915 842
3 915 918 842
3 839 919 917
3 843 919 839
3 919 843 845
3 920 919 845
3 842 918 921
3 847 842 921
3 921 849 847
3 922 849 921
3 845 850 920
3 920 850 923
3 849 922 851
3 922 924 851
3 854 925 926
3 853 925 854
3 923 850 854
3 926 923 854
3 851 924 927
3 855 851 927
3 927 856 855
3 928 856 927
3 853 858 925
3 925 858 929
3 856 928 859
3 928 930 859
3 858 860 929
3 929 860 931
3 859 930 862
3 930 932 862
3 860 863 931
3 931 863 933
3 934 864 862
3 934 862 935
3 935 862 932
3 864 934 865
3 863 866 933
3 933 866 936
3 937 934 935
3 938 937 935
3 865 937 867
3 934 937 865
3 866 868 936
3 936 868 939
3 870 937 938
3 870 938 871
3 871 938 940
3 867 937 870
3 868 872 939
3 939 872 941
3 942 943 944
3 942 940 943
3 942 874 940
3 874 871 940
3 945 875 946
3 945 941 875
3 941 872 875
3 946 947 948
3 945 946 948
3 947 949 950
3 948 947 950
3 949 951 952
3 950 949 952
3 944 952 951
3 944 951 942
3 942 951 953
3 874 953 877
3 942 953 874
3 946 878 954
3 875 878 946
3 947 946 955
3 955 946 954
3 949 947 956
3 956 947 955
3 951 949 957
3 957 949 956
3 880 957 881
3 880 953 957
3 953 951 957
3 877 953 880
3 954 883 958
3 878 883 954
3 955 954 959
3 959 954 958
3 956 955 960
3 960 955 959
3 957 956 961
3 961 956 960
3 881 961 885
3 957 961 881
3 958 887 962
3 883 887 958
3 959 958 963
3 963 958 962
3 960 959 964
3 964 959 963
3 961 960 965
3 965 960 964
3 885 965 889
3 961 965 885
3 887 890 962
3 893 962 890
3 963 962 893
3 895 963 893
3 964 963 895
3 896 964 895
3 965 964 896
3 889 965 896
3 898 897 966
3 898 967 899
3 966 967 898
3 899 967 900
3 966 901 968
3 897 901 966
3 967 966 969
3 969 966 968
3 900 970 902
3 900 967 970
3 967 969 970
3 902 970 903
3 968 971 972
3 968 901 971
3 901 904 971
3 969 968 972
3 973 969 972
3 970 969 973
3 974 970 973
3 974 903 970
3 974 975 903
3 975 905 903
3 904 906 971
3 971 906 976
3 905 975 907
3 975 977 907
3 906 908 976
3 976 908 978
3 907 977 979
3 909 907 979
3 979 910 909
3 980 910 979
3 908 911 978
3 978 911 981
3 910 980 912
3 980 982 912
3 911 914 981
3 981 914 983
3 912 982 915
3 982 984 915
3 914 985 983
3 916 985 914
3 985 916 917
3 986 985 917
3 915 984 918
3 984 987 918
3 917 988 986
3 919 988 917
3 920 989 990
3 920 990 919
3 919 990 988
3 989 991 992
3 990 989 992
3 921 991 993
3 921 987 991
3 921 918 987
3 992 991 987
3 921 993 922
3 989 923 994
3 920 923 989
3 991 989 995
3 995 989 994
3 993 991 996
3 996 991 995
3 922 996 924
3 993 996 922
3 926 997 998
3 925 997 926
3 994 923 926
3 994 926 999
3 999 926 998
3 995 994 999
3 1000 995 999
3 1000 1001 1002
3 1000 1002 995
3 995 1002 996
3 924 1003 927
3 924 996 1003
3 996 1002 1003
3 927 1003 928
3 925 929 997
3 997 929 1004
3 1005 1002 1001
3 1006 1005 1001
3 1003 1002 1007
3 1007 1002 1005
3 928 1007 930
3 1003 1007 928
3 929 931 1004
3 1004 931 1008
3 1009 1005 1006
3 1010 1009 1006
3 1007 1005 1011
3 1011 1005 1009
3 930 1011 932
3 1007 1011 930
3 931 933 1008
3 1008 933 1012
3 1013 1009 1010
3 1014 1013 1010
3 1011 1009 1015
3 1015 1009 1013
3 932 1015 935
3 1011 1015 932
3 933 936 1012
3 1012 936 1016
3 1017 1013 1014
3 1018 1017 1014
3 1015 1013 1019
3 1019 1013 1017
3 935 1019 938
3 1015 1019 935
3 1020 939 1021
3 1020 1016 939
3 1016 936 939
3 1021 1022 1023
3 1020 1021 1023
3 1022 1024 1025
3 1023 1022 1025
3 1018 1025 1024
3 1018 1024 1017
3 1017 1024 1026
3 1019 1017 1027
3 1027 1017 1026
3 938 1027 940
3 1019 1027 938
3 1021 941 1028
3 939 941 1021
3 1022 1021 1029
3 1029 1021 1028
3 1024 1022 1030
3 1030 1022 1029
3 1026 1024 1031
3 1031 1024 1030
3 943 1031 944
3 943 1027 1031
3 1027 1026 1031
3 940 1027 943
3 941 945 1028
3 948 1028 945
3 1029 1028 948
3 950 1029 948
3 1030 1029 950
3 952 1030 950
3 1031 1030 952
3 944 1031 952
3 972 971 1032
3 972 1033 973
3 1032 1033 972
3 973 1034 974
3 1033 1034 973
3 974 1034 975
3 1032 976 1035
3 971 976 1032
3 1033 1032 1036
3 1036 1032 1035
3 1034 1033 1037
3 1037 1033 1036
3 975 1037 977
3 1034 1037 975
3 1035 978 1038
3 976 978 1035
3 1036 1035 1039
3 1039 1035 1038
3 1037 1036 1040
3 1040 1036 1039
3 977 1041 979
3 977 1037 1041
3 1037 1040 1041
3 979 1041 980
3 1038 981 1042
3 978 981 1038
3 1039 1038 1043
3 1043 1038 1042
3 1040 1039 1044
3 1044 1039 1043
3 1041 1040 1045
3 1045 1040 1044
3 980 1045 982
3 1041 1045 980
3 1042 983 1046
3 981 983 1042
3 1043 1042 1047
3 1047 1042 1046
3 1044 1043 1048
3 1048 1043 1047
3 1045 1044 1049
3 1049 1044 1048
3 982 1049 984
3 1045 1049 982
3 983 985 1046
3 986 1046 985
3 986 1050 1046
3 1050 1047 1046
3 1048 1047 1051
3 1051 1047 1050
3 1049 1048 1052
3 1052 1048 1051
3 984 1052 987
3 1049 1052 984
3 986 988 1050
3 990 1050 988
3 1051 1050 990
3 992 1051 990
3 1052 1051 992
3 987 1052 992
3 998 997 1053
3 998 1054 999
3 1053 1054 998
3 999 1055 1000
3 1054 1055 999
3 1000 1055 1001
3 1053 1004 1056
3 997 1004 1053
3 1054 1053 1057
3 1057 1053 1056
3 1055 1054 1058
3 1058 1054 1057
3 1001 1058 1006
3 1055 1058 1001
3 1056 1008 1059
3 1004 1008 1056
3 1057 1056 1060
3 1060 1056 1059
3 1058 1057 1061
3 1061 1057 1060
3 1006 1061 1010
3 1058 1061 1006
3 1059 1012 1062
3 1008 1012 1059
3 1060 1059 1063
3 1063 1059 1062
3 1061 1060 1064
3 1064 1060 1063
3 1010 1064 1014
3 1061 1064 1010
3 1062 1016 1065
3 1012 1016 1062
3 1063 1062 1066
3 1066 1062 1065
3 1064 1063 1067
3 1067 1063 1066
3 1014 1067 1018
3 1064 1067 1014
3 1016 1020 1065
3 1023 1065 1020
3 1066 1065 1023
3 1025 1066 1023
3 1067 1066 1025
3 1018 1067 1025
