# vtk DataFile Version 3.0
this file was written using fslvtkio
ASCII
DATASET POLYDATA
POINTS 642 float
131.024 140.383 108.777
135.505 143.637 114.467
136.577 140.919 116.097
132.058 136.994 112.725
135.391 138.6 110.59
129.021 139.443 115.164
132.337 141.607 117.15
138.402 140.443 112.664
134.909 142.477 109.442
136.314 137.557 114.129
133.044 138.923 115.698
131.289 142.798 112.857
137.046 141.629 110.751
135.175 140.533 109.788
137.609 138.936 111.024
138.43 138.108 114.055
136.515 136.805 112.389
131.296 142.567 115.465
130.166 140.584 117.016
129.181 141.61 113.991
132.509 140.123 116.991
130.837 138.972 115.912
133.787 137.449 111.57
133.166 139.497 109.147
131.112 138.401 110.761
130.162 137.984 113.726
129.312 140.073 111.621
137.501 142.576 113.451
138.419 140.624 115.375
136.479 142.856 116.658
133.827 143.152 116.415
134.539 141.261 117.433
130.78 141.678 110.783
133.124 141.615 108.24
133.106 142.771 110.972
133.393 143.336 113.673
135.452 143.226 111.779
132.339 138.001 114.037
134.667 138.26 114.971
134.083 136.761 113.599
134.784 139.921 115.927
136.995 138.985 115.556
136.162 141.045 110.048
136.504 139.88 110.085
137.558 140.41 110.377
136.538 138.658 110.644
135.305 139.562 110.062
135.066 141.545 109.418
135.832 141.943 110.431
138.056 141.224 111.432
138.412 139.648 111.575
138.561 138.239 112.124
137.322 137.734 111.356
137.854 137.152 113.013
135.953 137.654 111.083
138.746 139.249 113.315
137.418 137.585 114.276
136.418 136.883 113.568
130.414 141.802 116.446
129.337 141.184 115.941
130.074 142.219 114.927
128.868 140.548 114.618
129.399 139.993 116.325
131.221 141.14 117.066
131.701 142.141 116.496
131.127 142.858 114.117
130.094 142.36 113.331
131.574 139.535 116.591
130.34 139.597 116.791
131.288 140.261 117.164
129.765 138.931 115.903
131.997 138.989 115.673
132.723 139.466 116.376
132.423 140.815 117.257
133.341 138.615 110.57
132.082 138.91 109.695
132.407 137.954 111.049
130.81 139.381 109.589
132.123 139.889 108.442
134.156 139.121 110.271
134.641 137.964 111.064
132.87 136.942 112.098
131.533 137.489 111.856
130.468 137.992 112.176
129.992 139.018 111
129.432 138.838 112.726
129.978 140.222 109.964
131.03 137.241 113.307
129.391 138.699 114.506
128.975 139.826 113.371
138.139 141.768 114.511
137.765 141.796 116.15
137.201 142.818 115.146
136.683 141.83 116.42
137.589 140.724 116.23
138.628 140.491 114.063
138.188 141.691 112.916
136.56 143.288 113.919
135.972 143.566 115.579
135.197 143.229 117.012
135.579 142.063 117.271
134.268 142.214 117.533
135.658 141.207 116.7
134.728 143.643 115.521
132.995 142.422 116.96
133.434 141.424 117.392
131.908 141.668 109.406
133.012 142.151 109.723
131.899 142.298 110.673
134.059 142.896 109.852
134.1 142.201 108.5
132.074 141.007 108.107
130.828 141.059 109.633
130.897 142.274 111.895
132.15 142.892 111.812
133.278 143.207 112.234
134.307 143.316 111.111
134.467 143.532 112.601
135.223 142.889 110.52
132.323 143.064 113.242
134.49 143.85 113.984
135.618 143.611 113.058
133.581 138.271 114.076
134.367 137.601 114.186
133.314 137.441 113.563
135.374 137.283 113.591
135.533 137.878 114.631
133.891 138.859 114.878
132.68 138.553 114.831
132.165 137.484 113.377
133.031 136.554 113.202
135.809 139.353 115.832
135.732 138.456 115.541
134.807 139.139 115.291
136.719 138.109 114.973
136.869 139.965 115.895
135.752 140.374 116.006
133.856 139.506 115.781
134.185 140.016 109.531
134.221 141.107 108.599
133.241 140.51 108.099
129.763 141.088 110.984
129.73 141.794 112.183
129.056 140.934 112.702
135.363 136.668 113.084
135.152 137.122 111.844
133.969 136.51 112.489
131.214 137.904 114.058
130.495 138.606 114.716
131.524 138.547 114.78
136.306 142.448 111.367
137.483 142.345 111.846
136.583 143.009 112.499
133.544 143.35 115.044
132.576 142.788 115.9
132.266 143.082 114.55
137.909 139.799 115.453
138.751 139.346 114.883
137.819 138.463 115.177
133.617 139.876 116.811
133.563 140.592 117.287
134.667 140.547 116.741
136.318 140.515 109.962
137.069 140.175 110.064
136.862 140.843 110.009
137.602 139.737 110.551
137.097 139.535 110.364
135.862 140.234 109.964
135.695 140.733 109.876
136.616 141.286 110.376
137.312 141.08 110.359
136.556 139.328 110.286
135.93 139.708 110.047
135.964 139.192 110.295
135.334 140.062 109.875
137.092 138.834 110.722
135.942 138.649 110.592
135.381 139.071 110.308
135.599 141.212 109.953
135.999 141.437 110.379
135.491 141.73 109.905
136.399 141.686 110.724
135.13 141.05 109.59
135.02 142.029 109.326
135.367 142.26 109.861
137.816 140.761 110.843
137.968 140 110.976
138.219 140.436 111.355
138.052 139.247 111.189
137.608 141.455 110.97
138.267 140.784 112.006
138.485 140.078 112.033
137.985 137.941 111.695
137.713 137.323 112.116
138.324 137.574 112.511
137.283 136.842 112.636
137.045 137.157 111.861
137.529 138.337 111.116
138.117 138.565 111.441
138.63 137.976 113.131
138.292 137.498 113.518
136.647 137.608 111.256
136.965 138.226 110.843
136.281 138.123 110.808
136.272 137.175 111.705
135.673 138.116 110.838
138.495 138.964 111.747
138.722 138.705 112.707
138.72 139.381 112.404
138.733 138.61 113.644
138.592 139.816 112.971
137.703 137.266 113.712
137.183 136.81 113.374
137.049 137.19 113.906
136.555 136.651 113.1
138 137.726 114.258
136.827 137.566 114.19
136.404 137.31 113.772
129.816 141.527 116.254
129.649 141.748 115.437
130.183 142.005 115.757
129.554 141.912 114.59
129.231 141.437 115.011
129.635 140.957 116.601
130.219 141.168 116.755
130.776 142.187 115.926
130.63 142.359 115.264
129.035 140.872 115.392
129.282 140.62 116.225
129.019 140.295 115.622
129.712 140.323 116.758
128.946 141.133 114.363
128.936 139.997 114.907
129.169 139.667 115.769
130.793 141.441 116.792
131.06 142 116.43
131.448 141.653 116.783
131.463 142.357 116.031
130.656 140.885 117.067
131.817 141.392 117.126
131.986 141.877 116.914
130.547 142.605 114.535
129.988 142.332 114.118
130.535 142.636 113.763
129.558 142.035 113.647
131.147 142.724 114.794
131.156 142.844 113.469
130.723 142.59 113.09
130.998 139.485 116.753
130.752 139.899 117.046
131.382 139.855 116.943
130.664 140.39 117.215
130.168 140.113 117.012
130.59 139.242 116.431
131.182 139.231 116.311
131.971 139.861 116.792
131.878 140.178 117.074
129.773 139.79 116.675
130.013 139.241 116.491
129.482 139.402 116.238
130.272 138.924 116.037
129.323 139.166 115.634
131.784 139.301 116.062
132.176 139.564 116.43
132.346 139.259 116.012
132.593 139.812 116.679
131.403 139.02 115.68
132.483 138.907 115.765
132.869 139.111 116.107
131.831 140.513 117.272
131.193 140.699 117.231
131.791 140.952 117.266
132.478 140.471 117.115
132.339 141.23 117.222
132.69 138.795 110.047
132.232 138.467 110.402
132.896 138.286 110.765
131.757 138.164 110.758
131.611 138.642 110.166
132.617 139.184 109.368
133.189 139.046 109.832
133.534 138.033 111.111
133.069 137.704 111.287
131.442 139.074 109.498
132.039 139.34 109.094
131.479 139.589 108.925
132.629 139.622 108.755
130.949 138.874 110.148
130.902 139.896 109.073
131.521 140.119 108.482
133.705 138.872 110.498
133.99 138.219 110.92
134.462 138.519 110.674
134.213 137.697 111.373
133.598 139.343 109.765
134.849 138.824 110.463
135.053 138.29 110.747
132.659 137.398 111.648
131.964 137.737 111.337
132.175 137.248 111.922
131.364 137.933 111.319
133.355 137.162 111.847
132.449 136.978 112.347
131.711 137.105 112.334
130.243 138.526 111.648
129.708 138.882 111.874
129.979 138.378 112.469
129.291 139.384 112.113
129.541 139.484 111.213
130.534 138.692 110.873
130.778 138.207 111.458
130.26 137.949 112.985
129.717 138.281 113.288
129.973 139.652 110.49
130.382 139.153 110.29
130.377 139.76 109.741
129.624 140.12 110.805
130.489 140.292 109.329
131.007 137.792 112.021
130.729 137.587 112.778
131.185 137.268 112.523
130.612 137.643 113.43
131.481 137.021 112.998
129.343 138.713 113.617
129.123 139.325 112.997
129.084 139.239 113.959
129.075 139.928 112.491
129.748 138.338 114.073
129.125 139.068 114.872
128.898 139.649 114.289
138.001 141.781 115.409
137.508 142.362 115.709
137.658 142.262 114.858
136.927 142.882 115.898
137.189 142.376 116.386
138.167 141.23 115.744
138.416 141.24 115.005
137.862 142.229 114.031
137.403 142.689 114.327
137.231 141.843 116.412
137.794 141.246 116.298
137.251 141.298 116.351
138.056 140.728 115.974
136.652 142.289 116.669
136.707 141.368 116.264
137.103 140.843 116.177
138.451 141.165 114.292
138.208 141.715 113.758
138.456 141.134 113.539
137.946 142.222 113.185
138.583 140.569 114.685
138.506 140.462 113.342
138.325 141.074 112.776
136.874 143.025 114.552
136.606 143.243 115.336
136.333 143.417 114.757
136.298 143.333 116.154
137.095 142.977 113.727
136.013 143.492 114.213
135.779 143.646 114.992
135.466 142.654 117.4
134.928 142.18 117.599
134.739 142.741 117.431
134.44 141.772 117.625
135.051 141.658 117.46
136.051 142.453 117.015
135.887 143.106 116.924
134.516 143.266 116.855
134.071 142.799 117.13
135.653 141.607 117.026
136.206 141.972 116.853
136.208 141.485 116.539
135.098 141.24 117.087
136.165 141.122 116.312
135.666 143.565 116.362
134.933 143.523 116.256
135.382 143.662 115.642
134.268 143.484 116.011
135.161 143.691 115.021
133.657 142.326 117.214
133.853 141.81 117.514
133.219 141.94 117.347
134.009 141.382 117.462
133.4 142.774 116.743
132.636 141.983 117.1
132.882 141.488 117.271
132.446 141.877 109.623
132.43 142.171 110.258
131.877 141.994 110.068
132.517 142.49 110.807
132.989 142.434 110.36
133.058 141.899 109.001
132.522 141.613 108.891
131.352 141.69 110.022
131.312 141.997 110.636
133.509 142.469 109.801
133.526 142.236 109.01
134.039 142.62 109.114
133.613 141.867 108.35
133.575 142.789 110.403
134.54 142.821 109.476
134.547 142.418 108.882
131.982 141.364 108.744
131.349 141.39 109.409
131.411 141.077 108.727
130.82 141.353 110.216
132.606 141.337 108.117
131.524 140.66 108.312
130.881 140.744 109.072
131.368 142.287 111.215
132.009 142.632 111.195
131.493 142.615 111.809
132.628 142.841 111.345
130.781 142.001 111.305
131.067 142.529 112.449
131.705 142.854 112.373
133.782 143.252 111.687
134.399 143.42 111.869
133.894 143.382 112.407
134.97 143.442 112.173
134.86 143.347 111.424
133.682 143.09 110.981
133.18 143.017 111.582
133.382 143.309 112.946
133.935 143.474 113.098
134.793 143.216 110.775
134.136 143.114 110.515
134.661 143.057 110.031
135.332 143.071 111.13
135.101 142.712 109.906
132.697 143.076 111.971
132.838 143.193 112.714
132.227 143.033 112.553
132.86 143.202 113.45
131.765 142.953 113.07
134.496 143.73 113.269
135.045 143.685 112.794
135.049 143.801 113.521
135.551 143.452 112.41
133.944 143.593 113.787
134.998 143.766 114.236
135.557 143.625 113.77
133.977 137.939 114.109
133.827 137.526 113.873
133.449 137.947 113.727
133.652 137.037 113.721
134.205 137.153 113.948
134.5 137.924 114.574
134.113 138.233 114.493
132.997 138.183 113.887
132.915 137.875 113.535
134.819 137.398 113.947
134.915 137.714 114.509
135.487 137.673 113.95
135.041 137.984 115.014
134.736 137.042 113.568
135.899 137.472 113.783
135.969 137.769 114.282
133.715 138.529 114.523
133.128 138.439 114.309
133.286 138.712 114.735
132.488 138.318 114.375
134.248 138.494 114.929
133.444 138.977 115.192
132.861 138.73 115.334
132.781 137.533 113.284
133.155 136.999 113.489
132.688 137.12 113.082
133.5 136.618 113.462
132.292 137.732 113.718
132.065 137.187 113.021
132.594 136.849 112.798
135.787 138.891 115.695
135.273 138.768 115.451
135.335 139.258 115.473
134.766 138.673 115.155
135.212 138.335 115.3
136.312 138.666 115.577
136.337 139.143 115.793
135.314 139.645 115.776
134.854 139.57 115.513
135.625 138.088 115.219
136.207 138.3 115.27
136.09 137.989 114.837
136.848 138.501 115.339
136.527 137.813 114.586
136.341 139.648 115.845
135.789 139.841 115.924
136.331 140.164 115.946
135.288 140.08 116.017
136.918 139.484 115.725
136.777 140.45 116.032
136.187 140.652 116.047
134.392 139.421 115.32
134.375 138.987 115.033
133.893 139.201 115.29
134.327 139.685 115.873
133.403 139.196 115.799
134.24 140.527 109.052
133.763 140.794 108.386
133.705 140.225 108.884
133.199 141.174 107.857
133.7 141.432 108.108
134.722 140.811 109.185
134.732 140.269 109.73
133.664 139.741 109.324
133.237 139.973 108.657
134.174 141.681 108.43
134.697 141.362 108.944
134.648 141.876 108.858
134.735 139.853 110.008
134.145 139.593 109.894
134.782 139.291 110.16
132.714 140.118 108.22
132.674 140.837 107.813
132.093 140.439 108.081
129.74 141.424 111.622
129.304 141.399 112.448
129.331 141.026 111.804
129.075 141.286 113.37
129.356 141.756 113.049
130.25 141.734 111.47
130.25 141.406 110.916
129.481 140.601 111.273
129.137 140.498 112.176
129.859 142.096 112.769
130.301 142.052 112.005
130.487 142.343 112.593
130.313 141.056 110.402
129.805 140.671 110.46
130.338 140.696 109.737
128.955 140.401 113.05
128.866 140.847 113.596
128.834 140.197 114.027
135.305 136.684 112.481
134.621 136.795 112.095
134.695 136.578 112.834
133.957 136.992 111.951
134.455 137.268 111.662
135.821 136.895 112.032
135.965 136.599 112.795
134.747 136.769 113.267
134.042 136.558 113.135
134.846 137.551 111.498
135.567 137.339 111.514
135.257 137.833 111.148
135.937 136.712 113.319
135.328 136.959 113.323
135.929 137.121 113.467
133.477 136.428 112.909
133.406 136.691 112.156
132.923 136.684 112.559
130.814 138.282 114.297
130.994 138.578 114.722
131.357 138.175 114.426
131.205 138.798 115.219
130.651 138.773 115.405
130.291 138.279 114.237
130.631 137.937 113.897
131.732 137.89 114.17
131.89 138.191 114.543
130.125 138.709 115.386
129.943 138.521 114.692
129.556 138.767 115.231
131.052 137.565 113.788
131.704 137.635 113.832
131.53 137.188 113.548
132.096 138.501 114.882
131.755 138.788 115.208
132.31 138.709 115.35
136.908 142.417 111.527
137.056 142.722 112.196
136.498 142.779 111.813
137.103 142.899 112.927
137.585 142.584 112.6
137.334 142.005 111.219
136.672 142.018 111.072
135.897 142.875 111.522
136.023 143.109 112.139
137.927 142.098 112.393
137.849 141.852 111.577
138.173 141.489 112.121
136.047 142.114 110.959
135.756 142.694 110.99
135.552 142.464 110.411
136.14 143.367 112.733
136.636 143.216 113.201
136.107 143.504 113.449
133.025 143.155 115.522
132.39 142.969 115.259
132.916 143.218 114.783
131.748 142.82 115.008
131.937 142.71 115.68
133.162 142.984 116.139
133.661 143.301 115.745
133.427 143.341 114.381
132.864 143.218 114.129
132.092 142.462 116.196
132.739 142.624 116.434
132.349 142.243 116.734
134.124 143.512 115.277
133.999 143.644 114.506
134.585 143.738 114.729
132.311 143.051 113.911
131.671 142.921 114.374
131.73 142.909 113.678
138.322 139.551 115.317
138.408 138.782 115.252
137.93 139.15 115.334
138.185 138.154 114.863
138.653 138.682 114.622
138.568 139.994 115.086
138.251 140.164 115.638
137.54 139.411 115.411
137.449 138.764 115.33
138.881 139.223 114.069
138.71 139.86 114.43
138.609 139.839 113.679
137.795 140.285 115.836
137.418 139.879 115.687
137.242 140.397 115.969
137.233 138.249 115.125
137.648 137.94 114.808
137.052 137.89 114.634
133.593 140.232 117.024
134.116 140.56 117.069
134.159 140.194 116.763
134.611 140.868 117.132
134.082 140.921 117.317
133.033 140.342 117.142
133.066 140.001 116.937
134.202 139.962 116.321
134.735 140.24 116.339
133.553 141.032 117.373
132.999 140.737 117.241
132.944 141.129 117.279
133.136 139.681 116.7
133.749 139.656 116.343
133.275 139.324 116.331
135.224 140.504 116.351
135.171 140.892 116.726
135.734 140.802 116.342
POLYGONS 1280  5120
3 164 162 163
3 163 44 164
3 162 43 163
3 164 42 162
3 166 165 163
3 163 43 166
3 165 44 163
3 166 14 165
3 168 167 162
3 162 42 168
3 167 43 162
3 168 13 167
3 170 169 164
3 164 44 170
3 169 42 164
3 170 12 169
3 173 171 172
3 172 46 173
3 171 43 172
3 173 45 171
3 167 174 172
3 172 43 167
3 174 46 172
3 167 13 174
3 175 166 171
3 171 45 175
3 166 43 171
3 175 14 166
3 177 176 173
3 173 46 177
3 176 45 173
3 177 4 176
3 180 178 179
3 179 48 180
3 178 42 179
3 180 47 178
3 169 181 179
3 179 42 169
3 181 48 179
3 169 12 181
3 182 168 178
3 178 47 182
3 168 42 178
3 182 13 168
3 184 183 180
3 180 48 184
3 183 47 180
3 184 8 183
3 187 185 186
3 186 50 187
3 185 44 186
3 187 49 185
3 165 188 186
3 186 44 165
3 188 50 186
3 165 14 188
3 189 170 185
3 185 49 189
3 170 44 185
3 189 12 170
3 191 190 187
3 187 50 191
3 190 49 187
3 191 7 190
3 194 192 193
3 193 53 194
3 192 52 193
3 194 51 192
3 196 195 193
3 193 52 196
3 195 53 193
3 196 16 195
3 198 197 192
3 192 51 198
3 197 52 192
3 198 14 197
3 200 199 194
3 194 53 200
3 199 51 194
3 200 15 199
3 203 201 202
3 202 45 203
3 201 52 202
3 203 54 201
3 197 175 202
3 202 52 197
3 175 45 202
3 197 14 175
3 204 196 201
3 201 54 204
3 196 52 201
3 204 16 196
3 176 205 203
3 203 45 176
3 205 54 203
3 176 4 205
3 208 206 207
3 207 55 208
3 206 51 207
3 208 50 206
3 199 209 207
3 207 51 199
3 209 55 207
3 199 15 209
3 188 198 206
3 206 50 188
3 198 51 206
3 188 14 198
3 210 191 208
3 208 55 210
3 191 50 208
3 210 7 191
3 213 211 212
3 212 57 213
3 211 53 212
3 213 56 211
3 195 214 212
3 212 53 195
3 214 57 212
3 195 16 214
3 215 200 211
3 211 56 215
3 200 53 211
3 215 15 200
3 217 216 213
3 213 57 217
3 216 56 213
3 217 9 216
3 220 218 219
3 219 60 220
3 218 59 219
3 220 58 218
3 222 221 219
3 219 59 222
3 221 60 219
3 222 19 221
3 224 223 218
3 218 58 224
3 223 59 218
3 224 18 223
3 226 225 220
3 220 60 226
3 225 58 220
3 226 17 225
3 229 227 228
3 228 62 229
3 227 59 228
3 229 61 227
3 223 230 228
3 228 59 223
3 230 62 228
3 223 18 230
3 231 222 227
3 227 61 231
3 222 59 227
3 231 19 222
3 233 232 229
3 229 62 233
3 232 61 229
3 233 5 232
3 236 234 235
3 235 64 236
3 234 58 235
3 236 63 234
3 225 237 235
3 235 58 225
3 237 64 235
3 225 17 237
3 238 224 234
3 234 63 238
3 224 58 234
3 238 18 224
3 240 239 236
3 236 64 240
3 239 63 236
3 240 6 239
3 243 241 242
3 242 66 243
3 241 60 242
3 243 65 241
3 221 244 242
3 242 60 221
3 244 66 242
3 221 19 244
3 245 226 241
3 241 65 245
3 226 60 241
3 245 17 226
3 247 246 243
3 243 66 247
3 246 65 243
3 247 11 246
3 250 248 249
3 249 69 250
3 248 68 249
3 250 67 248
3 252 251 249
3 249 68 252
3 251 69 249
3 252 18 251
3 254 253 248
3 248 67 254
3 253 68 248
3 254 21 253
3 256 255 250
3 250 69 256
3 255 67 250
3 256 20 255
3 259 257 258
3 258 70 259
3 257 68 258
3 259 62 257
3 253 260 258
3 258 68 253
3 260 70 258
3 253 21 260
3 230 252 257
3 257 62 230
3 252 68 257
3 230 18 252
3 261 233 259
3 259 70 261
3 233 62 259
3 261 5 233
3 264 262 263
3 263 72 264
3 262 67 263
3 264 71 262
3 255 265 263
3 263 67 255
3 265 72 263
3 255 20 265
3 266 254 262
3 262 71 266
3 254 67 262
3 266 21 254
3 268 267 264
3 264 72 268
3 267 71 264
3 268 10 267
3 271 269 270
3 270 63 271
3 269 69 270
3 271 73 269
3 251 238 270
3 270 69 251
3 238 63 270
3 251 18 238
3 272 256 269
3 269 73 272
3 256 69 269
3 272 20 256
3 239 273 271
3 271 63 239
3 273 73 271
3 239 6 273
3 276 274 275
3 275 76 276
3 274 75 275
3 276 74 274
3 278 277 275
3 275 75 278
3 277 76 275
3 278 24 277
3 280 279 274
3 274 74 280
3 279 75 274
3 280 23 279
3 282 281 276
3 276 76 282
3 281 74 276
3 282 22 281
3 285 283 284
3 284 78 285
3 283 75 284
3 285 77 283
3 279 286 284
3 284 75 279
3 286 78 284
3 279 23 286
3 287 278 283
3 283 77 287
3 278 75 283
3 287 24 278
3 289 288 285
3 285 78 289
3 288 77 285
3 289 0 288
3 292 290 291
3 291 80 292
3 290 74 291
3 292 79 290
3 281 293 291
3 291 74 281
3 293 80 291
3 281 22 293
3 294 280 290
3 290 79 294
3 280 74 290
3 294 23 280
3 296 295 292
3 292 80 296
3 295 79 292
3 296 4 295
3 299 297 298
3 298 82 299
3 297 76 298
3 299 81 297
3 277 300 298
3 298 76 277
3 300 82 298
3 277 24 300
3 301 282 297
3 297 81 301
3 282 76 297
3 301 22 282
3 303 302 299
3 299 82 303
3 302 81 299
3 303 3 302
3 306 304 305
3 305 85 306
3 304 84 305
3 306 83 304
3 308 307 305
3 305 84 308
3 307 85 305
3 308 26 307
3 310 309 304
3 304 83 310
3 309 84 304
3 310 24 309
3 312 311 306
3 306 85 312
3 311 83 306
3 312 25 311
3 315 313 314
3 314 77 315
3 313 84 314
3 315 86 313
3 309 287 314
3 314 84 309
3 287 77 314
3 309 24 287
3 316 308 313
3 313 86 316
3 308 84 313
3 316 26 308
3 288 317 315
3 315 77 288
3 317 86 315
3 288 0 317
3 320 318 319
3 319 87 320
3 318 83 319
3 320 82 318
3 311 321 319
3 319 83 311
3 321 87 319
3 311 25 321
3 300 310 318
3 318 82 300
3 310 83 318
3 300 24 310
3 322 303 320
3 320 87 322
3 303 82 320
3 322 3 303
3 325 323 324
3 324 89 325
3 323 85 324
3 325 88 323
3 307 326 324
3 324 85 307
3 326 89 324
3 307 26 326
3 327 312 323
3 323 88 327
3 312 85 323
3 327 25 312
3 329 328 325
3 325 89 329
3 328 88 325
3 329 5 328
3 332 330 331
3 331 92 332
3 330 91 331
3 332 90 330
3 334 333 331
3 331 91 334
3 333 92 331
3 334 29 333
3 336 335 330
3 330 90 336
3 335 91 330
3 336 28 335
3 338 337 332
3 332 92 338
3 337 90 332
3 338 27 337
3 341 339 340
3 340 94 341
3 339 91 340
3 341 93 339
3 335 342 340
3 340 91 335
3 342 94 340
3 335 28 342
3 343 334 339
3 339 93 343
3 334 91 339
3 343 29 334
3 345 344 341
3 341 94 345
3 344 93 341
3 345 2 344
3 348 346 347
3 347 96 348
3 346 90 347
3 348 95 346
3 337 349 347
3 347 90 337
3 349 96 347
3 337 27 349
3 350 336 346
3 346 95 350
3 336 90 346
3 350 28 336
3 352 351 348
3 348 96 352
3 351 95 348
3 352 7 351
3 355 353 354
3 354 98 355
3 353 92 354
3 355 97 353
3 333 356 354
3 354 92 333
3 356 98 354
3 333 29 356
3 357 338 353
3 353 97 357
3 338 92 353
3 357 27 338
3 359 358 355
3 355 98 359
3 358 97 355
3 359 1 358
3 362 360 361
3 361 101 362
3 360 100 361
3 362 99 360
3 364 363 361
3 361 100 364
3 363 101 361
3 364 31 363
3 366 365 360
3 360 99 366
3 365 100 360
3 366 29 365
3 368 367 362
3 362 101 368
3 367 99 362
3 368 30 367
3 371 369 370
3 370 93 371
3 369 100 370
3 371 102 369
3 365 343 370
3 370 100 365
3 343 93 370
3 365 29 343
3 372 364 369
3 369 102 372
3 364 100 369
3 372 31 364
3 344 373 371
3 371 93 344
3 373 102 371
3 344 2 373
3 376 374 375
3 375 103 376
3 374 99 375
3 376 98 374
3 367 377 375
3 375 99 367
3 377 103 375
3 367 30 377
3 356 366 374
3 374 98 356
3 366 99 374
3 356 29 366
3 378 359 376
3 376 103 378
3 359 98 376
3 378 1 359
3 381 379 380
3 380 105 381
3 379 101 380
3 381 104 379
3 363 382 380
3 380 101 363
3 382 105 380
3 363 31 382
3 383 368 379
3 379 104 383
3 368 101 379
3 383 30 368
3 385 384 381
3 381 105 385
3 384 104 381
3 385 6 384
3 388 386 387
3 387 108 388
3 386 107 387
3 388 106 386
3 390 389 387
3 387 107 390
3 389 108 387
3 390 34 389
3 392 391 386
3 386 106 392
3 391 107 386
3 392 33 391
3 394 393 388
3 388 108 394
3 393 106 388
3 394 32 393
3 397 395 396
3 396 110 397
3 395 107 396
3 397 109 395
3 391 398 396
3 396 107 391
3 398 110 396
3 391 33 398
3 399 390 395
3 395 109 399
3 390 107 395
3 399 34 390
3 401 400 397
3 397 110 401
3 400 109 397
3 401 8 400
3 404 402 403
3 403 112 404
3 402 106 403
3 404 111 402
3 393 405 403
3 403 106 393
3 405 112 403
3 393 32 405
3 406 392 402
3 402 111 406
3 392 106 402
3 406 33 392
3 408 407 404
3 404 112 408
3 407 111 404
3 408 0 407
3 411 409 410
3 410 114 411
3 409 108 410
3 411 113 409
3 389 412 410
3 410 108 389
3 412 114 410
3 389 34 412
3 413 394 409
3 409 113 413
3 394 108 409
3 413 32 394
3 415 414 411
3 411 114 415
3 414 113 411
3 415 11 414
3 418 416 417
3 417 117 418
3 416 116 417
3 418 115 416
3 420 419 417
3 417 116 420
3 419 117 417
3 420 36 419
3 422 421 416
3 416 115 422
3 421 116 416
3 422 34 421
3 424 423 418
3 418 117 424
3 423 115 418
3 424 35 423
3 427 425 426
3 426 109 427
3 425 116 426
3 427 118 425
3 421 399 426
3 426 116 421
3 399 109 426
3 421 34 399
3 428 420 425
3 425 118 428
3 420 116 425
3 428 36 420
3 400 429 427
3 427 109 400
3 429 118 427
3 400 8 429
3 432 430 431
3 431 119 432
3 430 115 431
3 432 114 430
3 423 433 431
3 431 115 423
3 433 119 431
3 423 35 433
3 412 422 430
3 430 114 412
3 422 115 430
3 412 34 422
3 434 415 432
3 432 119 434
3 415 114 432
3 434 11 415
3 437 435 436
3 436 121 437
3 435 117 436
3 437 120 435
3 419 438 436
3 436 117 419
3 438 121 436
3 419 36 438
3 439 424 435
3 435 120 439
3 424 117 435
3 439 35 424
3 441 440 437
3 437 121 441
3 440 120 437
3 441 1 440
3 444 442 443
3 443 124 444
3 442 123 443
3 444 122 442
3 446 445 443
3 443 123 446
3 445 124 443
3 446 39 445
3 448 447 442
3 442 122 448
3 447 123 442
3 448 38 447
3 450 449 444
3 444 124 450
3 449 122 444
3 450 37 449
3 453 451 452
3 452 126 453
3 451 123 452
3 453 125 451
3 447 454 452
3 452 123 447
3 454 126 452
3 447 38 454
3 455 446 451
3 451 125 455
3 446 123 451
3 455 39 446
3 457 456 453
3 453 126 457
3 456 125 453
3 457 9 456
3 460 458 459
3 459 128 460
3 458 122 459
3 460 127 458
3 449 461 459
3 459 122 449
3 461 128 459
3 449 37 461
3 462 448 458
3 458 127 462
3 448 122 458
3 462 38 448
3 464 463 460
3 460 128 464
3 463 127 460
3 464 10 463
3 467 465 466
3 466 130 467
3 465 124 466
3 467 129 465
3 445 468 466
3 466 124 445
3 468 130 466
3 445 39 468
3 469 450 465
3 465 129 469
3 450 124 465
3 469 37 450
3 471 470 467
3 467 130 471
3 470 129 467
3 471 3 470
3 474 472 473
3 473 133 474
3 472 132 473
3 474 131 472
3 476 475 473
3 473 132 476
3 475 133 473
3 476 38 475
3 478 477 472
3 472 131 478
3 477 132 472
3 478 41 477
3 480 479 474
3 474 133 480
3 479 131 474
3 480 40 479
3 483 481 482
3 482 134 483
3 481 132 482
3 483 126 481
3 477 484 482
3 482 132 477
3 484 134 482
3 477 41 484
3 454 476 481
3 481 126 454
3 476 132 481
3 454 38 476
3 485 457 483
3 483 134 485
3 457 126 483
3 485 9 457
3 488 486 487
3 487 136 488
3 486 131 487
3 488 135 486
3 479 489 487
3 487 131 479
3 489 136 487
3 479 40 489
3 490 478 486
3 486 135 490
3 478 131 486
3 490 41 478
3 492 491 488
3 488 136 492
3 491 135 488
3 492 2 491
3 495 493 494
3 494 127 495
3 493 133 494
3 495 137 493
3 475 462 494
3 494 133 475
3 462 127 494
3 475 38 462
3 496 480 493
3 493 137 496
3 480 133 493
3 496 40 480
3 463 497 495
3 495 127 463
3 497 137 495
3 463 10 497
3 500 498 499
3 499 140 500
3 498 139 499
3 500 138 498
3 502 501 499
3 499 139 502
3 501 140 499
3 502 33 501
3 504 503 498
3 498 138 504
3 503 139 498
3 504 13 503
3 506 505 500
3 500 140 506
3 505 138 500
3 506 23 505
3 509 507 508
3 508 47 509
3 507 139 508
3 509 110 507
3 503 182 508
3 508 139 503
3 182 47 508
3 503 13 182
3 398 502 507
3 507 110 398
3 502 139 507
3 398 33 502
3 183 401 509
3 509 47 183
3 401 110 509
3 183 8 401
3 512 510 511
3 511 79 512
3 510 138 511
3 512 46 510
3 505 294 511
3 511 138 505
3 294 79 511
3 505 23 294
3 174 504 510
3 510 46 174
3 504 138 510
3 174 13 504
3 295 177 512
3 512 79 295
3 177 46 512
3 295 4 177
3 515 513 514
3 514 111 515
3 513 140 514
3 515 78 513
3 501 406 514
3 514 140 501
3 406 111 514
3 501 33 406
3 286 506 513
3 513 78 286
3 506 140 513
3 286 23 506
3 407 289 515
3 515 111 407
3 289 78 515
3 407 0 289
3 518 516 517
3 517 143 518
3 516 142 517
3 518 141 516
3 520 519 517
3 517 142 520
3 519 143 517
3 520 19 519
3 522 521 516
3 516 141 522
3 521 142 516
3 522 32 521
3 524 523 518
3 518 143 524
3 523 141 518
3 524 26 523
3 527 525 526
3 526 113 527
3 525 142 526
3 527 66 525
3 521 413 526
3 526 142 521
3 413 113 526
3 521 32 413
3 244 520 525
3 525 66 244
3 520 142 525
3 244 19 520
3 414 247 527
3 527 113 414
3 247 66 527
3 414 11 247
3 530 528 529
3 529 86 530
3 528 141 529
3 530 112 528
3 523 316 529
3 529 141 523
3 316 86 529
3 523 26 316
3 405 522 528
3 528 112 405
3 522 141 528
3 405 32 522
3 317 408 530
3 530 86 317
3 408 112 530
3 317 0 408
3 533 531 532
3 532 61 533
3 531 143 532
3 533 89 531
3 519 231 532
3 532 143 519
3 231 61 532
3 519 19 231
3 326 524 531
3 531 89 326
3 524 143 531
3 326 26 524
3 232 329 533
3 533 61 232
3 329 89 533
3 232 5 329
3 536 534 535
3 535 146 536
3 534 145 535
3 536 144 534
3 538 537 535
3 535 145 538
3 537 146 535
3 538 22 537
3 540 539 534
3 534 144 540
3 539 145 534
3 540 16 539
3 542 541 536
3 536 146 542
3 541 144 536
3 542 39 541
3 545 543 544
3 544 54 545
3 543 145 544
3 545 80 543
3 539 204 544
3 544 145 539
3 204 54 544
3 539 16 204
3 293 538 543
3 543 80 293
3 538 145 543
3 293 22 538
3 205 296 545
3 545 54 205
3 296 80 545
3 205 4 296
3 548 546 547
3 547 125 548
3 546 144 547
3 548 57 546
3 541 455 547
3 547 144 541
3 455 125 547
3 541 39 455
3 214 540 546
3 546 57 214
3 540 144 546
3 214 16 540
3 456 217 548
3 548 125 456
3 217 57 548
3 456 9 217
3 551 549 550
3 550 81 551
3 549 146 550
3 551 130 549
3 537 301 550
3 550 146 537
3 301 81 550
3 537 22 301
3 468 542 549
3 549 130 468
3 542 146 549
3 468 39 542
3 302 471 551
3 551 81 302
3 471 130 551
3 302 3 471
3 554 552 553
3 553 149 554
3 552 148 553
3 554 147 552
3 556 555 553
3 553 148 556
3 555 149 553
3 556 21 555
3 558 557 552
3 552 147 558
3 557 148 552
3 558 25 557
3 560 559 554
3 554 149 560
3 559 147 554
3 560 37 559
3 563 561 562
3 562 88 563
3 561 148 562
3 563 70 561
3 557 327 562
3 562 148 557
3 327 88 562
3 557 25 327
3 260 556 561
3 561 70 260
3 556 148 561
3 260 21 556
3 328 261 563
3 563 88 328
3 261 70 563
3 328 5 261
3 566 564 565
3 565 129 566
3 564 147 565
3 566 87 564
3 559 469 565
3 565 147 559
3 469 129 565
3 559 37 469
3 321 558 564
3 564 87 321
3 558 147 564
3 321 25 558
3 470 322 566
3 566 129 470
3 322 87 566
3 470 3 322
3 569 567 568
3 568 71 569
3 567 149 568
3 569 128 567
3 555 266 568
3 568 149 555
3 266 71 568
3 555 21 266
3 461 560 567
3 567 128 461
3 560 149 567
3 461 37 560
3 267 464 569
3 569 71 267
3 464 128 569
3 267 10 464
3 572 570 571
3 571 152 572
3 570 151 571
3 572 150 570
3 574 573 571
3 571 151 574
3 573 152 571
3 574 27 573
3 576 575 570
3 570 150 576
3 575 151 570
3 576 12 575
3 578 577 572
3 572 152 578
3 577 150 572
3 578 36 577
3 581 579 580
3 580 49 581
3 579 151 580
3 581 96 579
3 575 189 580
3 580 151 575
3 189 49 580
3 575 12 189
3 349 574 579
3 579 96 349
3 574 151 579
3 349 27 574
3 190 352 581
3 581 49 190
3 352 96 581
3 190 7 352
3 584 582 583
3 583 118 584
3 582 150 583
3 584 48 582
3 577 428 583
3 583 150 577
3 428 118 583
3 577 36 428
3 181 576 582
3 582 48 181
3 576 150 582
3 181 12 576
3 429 184 584
3 584 118 429
3 184 48 584
3 429 8 184
3 587 585 586
3 586 97 587
3 585 152 586
3 587 121 585
3 573 357 586
3 586 152 573
3 357 97 586
3 573 27 357
3 438 578 585
3 585 121 438
3 578 152 585
3 438 36 578
3 358 441 587
3 587 97 358
3 441 121 587
3 358 1 441
3 590 588 589
3 589 155 590
3 588 154 589
3 590 153 588
3 592 591 589
3 589 154 592
3 591 155 589
3 592 17 591
3 594 593 588
3 588 153 594
3 593 154 588
3 594 30 593
3 596 595 590
3 590 155 596
3 595 153 590
3 596 35 595
3 599 597 598
3 598 104 599
3 597 154 598
3 599 64 597
3 593 383 598
3 598 154 593
3 383 104 598
3 593 30 383
3 237 592 597
3 597 64 237
3 592 154 597
3 237 17 592
3 384 240 599
3 599 104 384
3 240 64 599
3 384 6 240
3 602 600 601
3 601 120 602
3 600 153 601
3 602 103 600
3 595 439 601
3 601 153 595
3 439 120 601
3 595 35 439
3 377 594 600
3 600 103 377
3 594 153 600
3 377 30 594
3 440 378 602
3 602 120 440
3 378 103 602
3 440 1 378
3 605 603 604
3 604 65 605
3 603 155 604
3 605 119 603
3 591 245 604
3 604 155 591
3 245 65 604
3 591 17 245
3 433 596 603
3 603 119 433
3 596 155 603
3 433 35 596
3 246 434 605
3 605 65 246
3 434 119 605
3 246 11 434
3 608 606 607
3 607 158 608
3 606 157 607
3 608 156 606
3 610 609 607
3 607 157 610
3 609 158 607
3 610 15 609
3 612 611 606
3 606 156 612
3 611 157 606
3 612 28 611
3 614 613 608
3 608 158 614
3 613 156 608
3 614 41 613
3 617 615 616
3 616 95 617
3 615 157 616
3 617 55 615
3 611 350 616
3 616 157 611
3 350 95 616
3 611 28 350
3 209 610 615
3 615 55 209
3 610 157 615
3 209 15 610
3 351 210 617
3 617 95 351
3 210 55 617
3 351 7 210
3 620 618 619
3 619 135 620
3 618 156 619
3 620 94 618
3 613 490 619
3 619 156 613
3 490 135 619
3 613 41 490
3 342 612 618
3 618 94 342
3 612 156 618
3 342 28 612
3 491 345 620
3 620 135 491
3 345 94 620
3 491 2 345
3 623 621 622
3 622 56 623
3 621 158 622
3 623 134 621
3 609 215 622
3 622 158 609
3 215 56 622
3 609 15 215
3 484 614 621
3 621 134 484
3 614 158 621
3 484 41 614
3 216 485 623
3 623 56 216
3 485 134 623
3 216 9 485
3 626 624 625
3 625 161 626
3 624 160 625
3 626 159 624
3 628 627 625
3 625 160 628
3 627 161 625
3 628 31 627
3 630 629 624
3 624 159 630
3 629 160 624
3 630 20 629
3 632 631 626
3 626 161 632
3 631 159 626
3 632 40 631
3 635 633 634
3 634 73 635
3 633 160 634
3 635 105 633
3 629 272 634
3 634 160 629
3 272 73 634
3 629 20 272
3 382 628 633
3 633 105 382
3 628 160 633
3 382 31 628
3 273 385 635
3 635 73 273
3 385 105 635
3 273 6 385
3 638 636 637
3 637 137 638
3 636 159 637
3 638 72 636
3 631 496 637
3 637 159 631
3 496 137 637
3 631 40 496
3 265 630 636
3 636 72 265
3 630 159 636
3 265 20 630
3 497 268 638
3 638 137 497
3 268 72 638
3 497 10 268
3 641 639 640
3 640 102 641
3 639 161 640
3 641 136 639
3 627 372 640
3 640 161 627
3 372 102 640
3 627 31 372
3 489 632 639
3 639 136 489
3 632 161 639
3 489 40 632
3 373 492 641
3 641 102 373
3 492 136 641
3 373 2 492
