# vtk DataFile Version 3.0
this file was written using fslvtkio
ASCII
DATASET POLYDATA
POINTS 732 float
116.731 128.547 64.7624
115.579 128.129 65.2085
116.31 127.334 65.424
117.227 127.195 65.3368
117.831 128.677 64.5337
118.308 127.53 65.2443
118.923 128.966 64.6263
119.45 128.44 65.3047
115.861 129.589 64.6437
114.792 129.127 65.1815
116.978 130.012 64.4089
118.131 129.996 64.4265
119.495 129.913 64.8576
114.722 130.012 64.7668
113.501 130.243 65.6168
113.962 129.221 65.7065
115.767 130.711 64.6236
116.807 131.287 64.812
117.85 131.15 64.7969
118.901 130.77 64.9069
114.446 130.939 65.4525
113.41 131.308 66.0458
115.337 131.146 65.1127
116.251 131.514 65.5481
117.447 131.398 65.9072
118.693 131.278 65.747
114.451 131.562 66.1199
115.438 131.572 66.133
116.411 126.465 66.0449
115.037 126.206 66.6436
115.472 125.298 66.9542
116.697 125.203 66.6796
117.822 126.36 66.0427
118.147 125.576 66.6159
119.028 127.13 65.9683
119.371 126.385 66.5367
119.935 127.922 66.1523
120.294 127.241 66.7725
115.098 127.288 65.971
113.712 127.449 66.8591
113.978 126.427 67.098
120.071 129.321 65.5928
120.585 128.817 66.5936
113.649 128.315 66.5507
112.281 128.997 66.8959
112.518 127.705 67.2793
114.378 128.387 65.8391
120.405 130.417 66.0598
120.79 129.837 66.6549
113.061 129.505 66.3303
112.041 130.193 66.8945
120.471 130.728 67.2831
119.552 130.668 65.9072
112.684 130.816 66.33
112.115 131.239 67.0355
116.512 131.566 66.2976
116.647 131.225 67.2286
115.478 131.519 67.0208
117.74 131.327 67.1826
118.608 131.123 66.7154
113.241 131.733 66.9277
114.341 131.658 67.2076
118.912 123.833 67.5151
117.568 123.253 67.6791
118.276 122.401 68.179
119.411 122.846 68.1929
119.934 124.259 67.6469
120.452 123.334 68.2613
114.645 124.012 67.9949
113.528 123.735 68.4646
114.335 123.263 68.5727
115.317 123.114 68.5262
116.034 124.129 67.4448
116.509 123.063 67.9905
117.549 124.329 67.1823
118.955 125.018 66.941
120.092 125.865 67.1293
120.89 124.69 67.9533
120.813 126.095 67.5891
121.549 124.967 68.6861
112.942 125.19 67.9884
111.929 124.918 68.418
112.677 124.286 68.3756
114.201 125.306 67.5353
120.831 127.769 67.1861
121.16 126.577 68.3477
111.695 126.704 68.0469
110.634 126.851 68.5379
111.315 125.701 68.4566
112.734 126.626 67.6149
120.917 128.909 67.8561
120.939 127.734 68.5503
111.312 128.297 67.6376
110.201 128.296 68.1653
121.04 128.745 69.1025
120.886 129.866 67.6606
110.237 129.776 67.5836
109.396 129.885 68.7645
109.597 128.79 68.6796
111.36 129.651 67.2741
120.159 130.39 68.6439
119.501 130.886 67.2624
110.606 130.696 68.516
111.143 130.728 67.7495
111.439 131.172 68.6202
115.418 131.087 67.6511
115.147 130.736 68.5525
114.354 131.153 68.026
116.312 130.597 68.466
117.353 130.928 68.3211
118.514 131.048 68.0471
112.167 131.587 67.811
113.28 131.377 68.1251
117.444 121.085 68.9275
116.289 120.869 69.5395
117.15 120.589 69.6647
118.081 120.492 69.5794
118.988 121.493 68.7151
119.387 120.635 69.3846
120.299 122.003 68.6753
120.444 121.149 69.5262
121.07 122.417 69.3362
121.451 121.735 70.0862
114.062 122.447 69.1156
113.08 122.038 69.6702
114.076 121.596 69.7401
115.015 121.305 69.5528
115.871 121.917 68.7854
117.278 122.033 68.4211
121.145 123.557 68.8353
121.638 123.54 69.7039
112.498 123.438 69.0222
111.517 123.414 69.517
112.295 122.692 69.6447
121.679 125.323 69.4522
111.02 124.819 68.9445
110.093 125.052 70.0074
110.665 123.842 69.8997
121.304 126.501 69.5108
110.298 126.061 69.209
109.522 127.092 69.7967
109.762 125.995 70.5358
121.107 127.533 69.8462
109.669 127.663 69.0361
109.315 128.828 69.7748
120.84 128.344 70.4313
120.59 129.523 68.8795
109.404 129.735 69.897
117.191 130.456 69.4219
116.344 129.606 70.292
115.97 130.159 69.4724
118.357 130.605 69.1927
117.604 129.868 70.1486
119.364 130.739 68.4891
118.983 129.978 69.7636
119.955 129.554 69.7475
110.237 130.786 69.3485
112.534 130.951 68.9665
111.6 130.691 69.6667
113.822 130.804 68.7243
113.395 130.332 69.4772
114.758 130.072 69.44
116.832 119.848 70.2706
115.728 119.341 70.9274
116.814 118.972 70.8817
117.829 118.9 70.7061
118.504 119.75 70.0907
119.301 118.8 70.6118
119.923 119.881 70.1433
120.671 119.224 71.0016
120.999 120.504 70.3255
121.609 120.532 71.1217
113.931 120.876 70.3727
112.725 121.063 70.6163
113.334 119.905 71.3355
114.435 119.634 71.0473
115.376 120.513 70.2815
121.956 121.754 70.7378
112.138 122.018 70.377
111.236 122.084 71.4933
111.934 121.327 71.2896
122.09 122.881 70.7618
121.927 123.966 70.405
122.482 122.738 71.8499
111.002 122.804 70.3945
110.136 123.883 70.8758
110.7 122.917 71.7202
122.103 124.944 70.5733
122.322 123.813 71.6414
110.089 125.053 71.4283
122.014 125.162 71.3598
121.609 125.955 70.4414
109.283 127.567 70.6283
109.953 125.985 71.6046
121.293 126.807 70.9222
109.58 128.529 71.1215
118.026 129.161 70.6497
117.129 128.195 71.6941
116.931 129.043 71.0802
119.236 129.016 70.5546
118.362 128.487 71.325
120.233 128.731 70.2153
119.607 128.192 71.3534
120.456 127.477 71.281
110.027 129.393 71.123
112.888 129.727 70.2359
112.374 129.108 71.2623
111.597 129.826 70.5387
114.034 129.468 70.3582
113.416 128.875 71.4374
115.284 129.611 70.3141
114.725 128.887 71.3386
115.953 129.012 71.1649
110.483 130.255 70.3588
116.719 118.145 71.4295
115.695 117.772 72.1625
116.716 117.371 71.957
117.679 117.247 71.8582
118.281 118.119 71.2468
119.185 117.22 71.6534
119.813 118.057 71.1945
120.685 117.403 72.0938
120.647 118.385 71.5309
121.319 118.473 72.0635
115.098 118.684 71.5644
113.954 118.519 72.2151
114.893 118.194 72.1842
121.706 119.581 71.826
122.267 120.641 71.9867
122.578 119.797 72.9751
112.323 120.481 71.4943
111.579 121.222 72.3221
112.415 119.753 72.5516
113.33 119.08 71.9878
122.435 121.751 71.7615
122.813 121.13 72.8722
111.308 122.405 72.9077
122.781 122.476 72.8892
110.419 124.053 72.1601
111.03 123.285 73.0827
122.335 123.92 72.4862
110.797 125.253 72.7657
122.214 124.797 72.2776
121.611 125.9 71.93
109.736 127.251 71.6494
110.414 126.208 72.8049
119.964 127.038 72.0865
119.156 126.459 73.0489
119.064 127.439 72.2407
120.865 126.472 71.7033
120.458 126.238 72.716
110.41 127.642 72.1786
110.817 128.467 72.1703
112.279 128.501 72.1687
111.612 127.794 72.7265
113.702 128.31 72.1357
112.888 127.833 72.91
114.951 128.187 72.0907
114.08 127.675 72.9608
116.136 128.355 71.7747
115.646 127.679 72.5494
116.92 127.607 72.4817
118.261 127.813 72.097
111.178 129.263 71.5181
116.505 116.711 72.5394
115.714 116.557 73.1715
116.692 115.921 73.0707
117.775 115.765 72.7913
118.226 116.435 72.2561
119.127 115.529 72.6694
119.68 116.409 72.1534
120.468 115.573 72.9982
120.681 116.506 72.5754
121.527 116.451 73.1091
114.523 117.735 72.6917
113.868 117.613 73.3485
114.928 117.129 73.2419
121.871 117.572 72.9698
122.202 118.796 72.7958
122.675 118.149 73.7867
112.78 118.728 73.0842
112.524 118.651 74.1758
113.177 117.971 73.4828
122.963 119.621 73.8964
111.926 120.756 73.3882
112.385 119.988 73.7714
123.037 121.136 73.8201
111.981 122.079 73.6528
112.437 121.628 74.2798
122.569 122.878 73.5069
111.406 124.469 73.5182
111.967 123.378 74.2035
122.012 124.551 72.9346
122.129 123.451 73.5323
121.437 124.201 73.7502
111.632 125.948 73.6596
112.092 124.903 74.2712
121.313 125.471 72.925
120.648 124.793 73.8941
120.199 125.687 73.6437
110.975 127.031 73.3109
112.289 127.174 73.4288
112.721 126.193 73.9361
113.457 126.953 73.6409
114.816 126.982 73.2664
114.123 126.341 74.0385
115.924 126.905 73.0823
115.244 126.111 73.8741
117.177 126.935 73.0511
116.398 126.121 73.7
118.227 126.897 72.9321
117.68 126.096 73.7199
118.98 125.872 73.8073
118.509 114.103 73.713
117.605 113.881 74.1688
118.608 113.512 74.3365
119.547 113.287 74.4567
120.01 114.172 73.8461
120.687 113.633 74.6573
116.775 115.116 73.6038
115.496 115.463 74.1212
116.296 114.502 74.3334
118.28 114.861 73.0513
119.781 114.711 73.2973
121.18 114.556 74.2532
121.531 115.429 73.8167
122.226 114.985 74.7869
122.737 115.975 74.4771
123.224 115.596 75.407
114.937 116.455 73.7035
113.78 116.544 74.2634
114.233 115.762 74.6065
122.501 116.739 73.8267
123.155 117.076 74.7521
113.316 117.441 74.1243
112.692 117.323 75.0976
113.348 116.734 74.7052
123.122 118.418 74.6822
113.272 118.457 75.1535
113.285 119.407 74.9078
114.4 119.312 75.4911
123.306 119.861 74.7092
113.017 120.187 74.5545
114.096 120.185 75.2128
122.9 121.581 74.4747
112.853 123.068 74.8369
113.281 121.615 74.7898
122.112 123.061 74.1223
122.447 122.249 74.7634
121.397 123.089 74.8063
113.026 124.11 74.8851
114.039 123.027 75.0414
114.409 124.1 74.8823
115.91 124.289 74.8387
115.277 123.246 75.0258
117.191 124.229 74.8192
116.434 123.364 75.368
118.408 124.35 74.9317
117.681 123.444 75.6028
119.68 124.098 74.7583
118.919 123.412 75.4059
120.735 123.986 74.3296
120.247 123.352 75.1922
113.14 125.417 74.5778
114.264 125.141 74.5126
115.548 125.243 74.2835
116.696 125.262 74.3607
117.898 125.189 74.3708
119.269 124.977 74.3701
118.766 112.774 74.7904
117.466 112.606 75.0106
118.438 111.558 75.2352
119.782 111.626 75.3726
120.514 112.759 75.3141
121.257 111.691 76.0555
121.574 113.176 75.6603
122.022 112.453 76.2964
115.45 113.82 75.2753
114.392 113.566 75.7625
115.483 112.993 75.7872
116.385 112.624 75.533
116.745 113.527 74.6356
121.672 114.011 75.0584
122.427 113.759 75.9566
122.6 114.475 75.6113
123.248 114.452 76.5249
113.699 114.784 75.2716
112.644 115.258 76.2198
113.254 114.155 76.1839
114.856 114.898 74.9481
123.66 116.156 75.9629
112.952 116.097 75.2363
112.987 116.415 76.35
123.557 117.496 75.8078
113.456 117.357 75.9085
113.535 118.117 75.4651
114.386 118.265 75.7606
123.217 118.778 75.6148
115.131 120.458 75.6617
115.001 119.113 75.7372
116.083 119.731 76.0848
123.087 120.371 75.3232
114.125 121.028 75.1609
115.566 121.553 75.715
116.26 120.775 76.1519
122.415 121.717 75.1897
122.313 120.754 75.828
121.56 121.604 75.8483
114.413 122.124 75.1742
115.643 122.402 75.3819
116.845 121.603 76.0424
117.104 122.597 75.8001
118.706 122.655 75.9446
118.062 121.674 76.3275
120.049 122.567 75.7898
119.348 121.538 76.3402
121.268 122.5 75.4947
120.473 121.458 76.214
117.178 110.841 76.1283
116.366 110.718 76.7527
117.29 110.07 76.7613
118.218 109.897 76.7298
118.802 110.708 75.884
119.601 109.824 76.7845
120.245 110.821 76.0159
120.854 110.169 76.9925
121.495 110.805 76.7472
122.396 110.739 77.9458
115.521 112.094 76.0801
113.849 112.511 76.7599
115.118 111.525 76.9621
117.158 111.615 75.556
122.405 111.623 77.0962
122.828 113.127 76.6436
123.005 112.951 77.3366
113.703 113.251 76.3181
112.14 114.197 77.0928
112.267 113.135 77.371
123.135 114.936 77.1411
112.802 115.155 77.5005
123.32 116.267 76.9428
113.7 116.057 77.241
114.451 117.069 76.4706
115.453 117.233 76.8372
114.97 116.392 77.3859
116.22 116.892 77.5058
123.368 117.736 76.6437
115.29 118.127 76.3589
116.231 117.887 76.9719
122.721 118.777 76.5323
122.405 117.764 77.3334
121.916 118.619 77.2249
117.092 119.774 76.6678
116.155 118.816 76.521
118.329 119.753 76.9543
117.386 118.88 76.9931
118.655 118.733 77.4306
121.567 119.785 76.7931
120.902 118.68 77.3809
120.423 119.717 77.1201
122.584 119.804 76.0709
117.454 120.889 76.5525
118.609 120.737 76.7207
119.379 119.584 77.188
120.013 120.62 76.8136
121.298 120.734 76.4089
117.622 109.284 77.4187
116.465 109.52 77.9003
117.471 108.484 78.3404
118.77 108.386 78.2859
119.274 108.93 77.5052
120.25 108.35 78.4514
120.639 109.115 77.5624
121.389 108.816 78.4835
121.609 109.888 77.9022
122.064 109.84 78.8711
113.985 111.117 77.8373
112.709 111.211 78.3124
114.206 110.197 78.4044
115.386 109.922 78.2719
115.691 110.522 77.3846
122.777 111.283 78.9862
112.169 112.569 78.0759
111.443 112.324 79.0506
111.543 111.084 78.801
113.525 111.812 77.3458
123.058 111.919 78.078
122.94 113.218 77.9784
112.248 113.625 78.7374
112.674 114.145 78.4976
122.806 114.339 78.0391
122.711 113.433 78.629
122.198 114.238 78.9257
113.778 114.653 78.3566
114.55 115.552 78.0229
116.001 116.051 78.2934
115.251 114.718 78.7392
117.269 116.201 78.3143
116.515 114.95 78.9295
117.589 115.081 78.9126
122.53 115.39 78.0008
121.736 115.465 78.6363
117.419 117.055 77.7567
118.312 115.892 78.563
118.881 116.818 77.9337
120.382 116.716 78.0855
119.341 115.876 78.6298
121.755 116.486 77.9656
120.635 115.772 78.675
122.655 116.73 77.4995
117.105 118.107 77.4042
118.334 117.953 77.7253
119.606 117.523 77.7576
121.181 117.623 77.7966
119.874 118.436 77.5921
116.745 107.903 79.1385
115.834 107.837 79.5054
116.884 106.944 79.6506
118.028 106.721 79.562
118.547 107.495 79.0151
119.737 106.445 79.805
120.058 107.406 79.0401
120.937 106.541 80.1591
121.148 107.758 79.3828
121.67 107.641 80.5227
114.433 109.388 78.8387
113.806 109.034 79.4478
114.808 108.342 79.3916
116.28 108.755 78.6476
121.71 108.689 79.513
122.136 110.088 79.7085
112.804 110.238 78.97
111.14 111.01 79.7756
113.002 109.715 79.497
122.269 111.243 79.8555
112.232 112.018 80.0276
122.564 112.656 79.0272
122.084 112.375 79.7873
112.629 112.992 79.4142
114.563 113.922 79.0783
113.792 113.346 79.4561
116.069 114.257 79.6021
115.308 113.283 79.8924
117.562 114.282 79.7162
116.736 113.359 80.3621
119.3 114.221 80.0193
118.209 113.394 80.3954
120.599 114.087 79.8894
119.749 113.142 80.5392
121.722 113.543 79.5865
121.009 112.946 80.3683
118.701 114.756 79.2937
119.943 114.953 79.0917
121.11 114.675 79.0841
117.185 106.239 80.3221
116.025 106.285 80.6815
117.035 105.573 81.0726
118.316 105.322 81.1984
118.783 106.093 80.4547
119.676 105.711 81.5504
120.16 106.218 80.9411
120.741 106.316 82.2588
115.247 107.553 79.9591
114.119 107.898 80.3269
115.103 106.929 80.626
121.246 106.59 81.4228
121.651 107.859 81.5816
111.741 109.58 79.952
110.854 109.381 81.0989
112.112 108.517 80.5127
113.103 108.116 80.5604
112.723 109.193 79.6681
121.897 109.192 80.4705
121.59 109.233 81.2444
111.34 110.606 80.6667
113.196 111.637 80.7105
112.809 110.823 81.1946
114.814 111.835 80.9476
114.43 111.002 81.4949
115.915 111.251 81.8576
121.622 110.577 80.7051
120.935 110.862 81.3831
113.537 112.561 80.0919
114.877 112.556 80.3882
116.259 111.751 81.3619
116.518 112.47 80.882
117.974 112.625 81.0296
117.494 111.578 81.6646
119.367 112.532 81.0664
118.612 111.651 81.6898
120.911 111.969 81.0382
119.869 111.578 81.5138
121.788 111.977 80.4299
116.56 104.928 81.7059
115.223 105.087 81.9984
115.862 104.055 82.9799
117.183 104.008 82.6596
118.154 104.635 81.9281
118.596 104.501 83.0725
115.185 106.181 81.239
114.186 106.012 81.9577
114.774 105.55 82.1395
119.671 105.177 82.4275
120.179 105.974 83.1647
112.033 107.986 81.234
110.684 108.366 81.823
111.789 107.161 81.8349
112.855 106.665 81.7778
113.854 107.25 81.1274
121.213 107.823 82.5616
120.626 107.376 83.3422
111.396 109.601 82.3914
111.754 110.231 81.4202
113.004 110.021 82.0015
113.06 109.669 82.8801
114.294 109.882 82.9449
120.429 109.286 82.842
120.13 108.721 83.4414
119.079 109.775 83.0859
121.258 109.007 82.0415
114.365 110.34 82.1042
117.306 110.944 82.2449
115.83 110.514 82.4773
118.954 110.593 82.4821
117.458 110.24 82.8444
119.725 110.701 82.1434
120.659 110.067 81.9329
114.728 104.645 82.9026
113.75 104.784 83.1959
114.756 103.853 84.27
116.3 103.959 84.1579
117.583 104.199 83.9078
118.429 105.004 84.4226
111.509 106.62 82.3771
110.758 106.299 82.9238
111.771 105.584 83.2429
112.747 105.266 83.1623
113.255 105.858 82.4384
119.19 105.358 83.7022
119.801 106.592 84.0232
109.927 107.921 82.2115
109.361 108.02 83.482
110.005 106.821 82.9043
119.647 108.109 83.7798
119.29 107.37 84.3213
118.539 108.195 84.3127
110.533 108.968 82.954
111.733 109.065 83.5004
112.866 109.348 83.7216
115.56 110.056 83.2906
114.322 109.403 83.9016
117.088 109.893 83.5666
115.766 109.359 84.1917
118.543 109.296 83.6757
117.273 108.949 84.373
111.996 104.516 84.0438
111.001 104.864 84.0488
111.9 103.617 85.3361
113.338 103.65 85.0596
113.376 104.293 83.9147
114.646 103.666 85.7014
115.84 103.97 85.3516
117.072 104.38 85.1604
117.799 105.305 85.2623
108.954 106.441 83.4415
108.217 105.887 84.284
109.185 105.194 84.3392
109.967 104.92 84.234
110.017 106.103 83.169
118.963 106.393 84.75
118.128 106.71 85.2277
108.881 107.278 84.4715
110.98 108.595 84.0955
110.183 107.888 84.818
112.474 108.45 84.515
111.518 107.953 85.2104
113.81 108.645 84.6524
112.881 107.996 85.5639
115.154 108.553 84.7775
114.043 108.019 85.7181
116.43 108.377 84.8804
115.099 107.697 85.8475
117.918 107.662 84.7186
116.66 107.575 85.442
109.064 104.245 85.015
107.606 103.747 86.2471
109.573 103.499 86.6772
110.691 103.56 86.0576
110.706 104.096 84.852
111.984 103.546 86.7671
113.141 103.55 86.4874
114.323 103.983 86.8765
115.551 104.274 86.4976
116.726 105.106 85.8624
116.227 105.389 86.5878
107.644 105.012 84.9121
107.238 106.135 85.5123
106.614 104.616 86.426
116.766 106.811 86.0484
115.873 106.102 86.9108
115.25 107.197 86.5623
117.511 106.262 85.5986
108.113 106.716 85.2905
108.906 106.933 85.8969
109.855 107.353 85.8276
111.165 107.517 86.1694
112.478 107.572 86.382
113.678 107.457 86.8544
108.261 103.588 87.4601
109.839 103.793 87.877
110.754 103.917 87.4675
111.853 104.136 87.4893
113.011 104.339 87.4805
114.156 104.976 87.4864
113.482 105.744 87.9248
115.166 105.242 87.2342
107.514 105.913 86.7535
107.641 104.639 87.4427
114.432 106.589 87.4544
113.112 106.966 87.7877
108.262 106.104 86.855
109.339 106.8 86.8693
110.62 106.991 87.1144
111.954 107.191 87.4041
109.034 104.84 88.0052
110.274 104.956 88.1164
111.303 105.081 88.1474
112.432 105.042 88.1803
108.709 105.859 87.5281
109.906 106.174 87.8754
111.099 106.419 88.0744
112.207 106.249 88.3772
POLYGONS 1460  5840
3 0 1 2
3 0 3 4
3 2 3 0
3 4 5 6
3 3 5 4
3 5 7 6
3 8 1 0
3 9 1 8
3 4 10 0
3 10 8 0
3 6 11 4
3 11 10 4
3 12 6 7
3 11 6 12
3 13 14 15
3 9 13 15
3 9 8 13
3 8 16 13
3 10 17 8
3 17 16 8
3 11 18 10
3 18 17 10
3 19 11 12
3 18 11 19
3 20 14 13
3 21 14 20
3 16 22 13
3 22 20 13
3 23 17 24
3 23 22 17
3 22 16 17
3 18 24 17
3 25 24 18
3 19 25 18
3 20 26 21
3 22 26 20
3 27 26 22
3 23 27 22
3 28 29 30
3 28 31 32
3 30 31 28
3 32 33 34
3 31 33 32
3 34 35 36
3 33 35 34
3 35 37 36
3 38 39 40
3 29 38 40
3 28 38 29
3 28 1 38
3 28 2 1
3 3 2 28
3 32 3 28
3 5 3 32
3 34 5 32
3 7 5 34
3 7 34 41
3 41 34 36
3 42 36 37
3 41 36 42
3 43 44 45
3 39 43 45
3 39 38 43
3 38 46 43
3 1 9 46
3 38 1 46
3 41 47 12
3 7 41 12
3 48 41 42
3 47 41 48
3 49 44 43
3 50 44 49
3 15 14 49
3 15 49 46
3 46 49 43
3 9 15 46
3 47 51 52
3 47 52 12
3 12 52 19
3 48 51 47
3 53 50 49
3 54 50 53
3 14 21 53
3 49 14 53
3 55 56 57
3 55 23 24
3 55 24 56
3 56 24 58
3 25 59 24
3 24 59 58
3 52 25 19
3 59 25 52
3 53 60 54
3 21 60 53
3 21 26 60
3 26 61 60
3 57 27 55
3 57 61 27
3 61 26 27
3 23 55 27
3 62 63 64
3 62 65 66
3 64 65 62
3 65 67 66
3 68 69 70
3 68 71 72
3 70 71 68
3 72 73 74
3 71 73 72
3 63 74 73
3 63 62 74
3 62 75 74
3 66 76 62
3 76 75 62
3 77 66 67
3 77 78 66
3 78 76 66
3 77 79 78
3 80 81 82
3 69 80 82
3 69 68 80
3 68 83 80
3 30 29 83
3 30 83 72
3 72 83 68
3 31 30 72
3 74 31 72
3 33 31 74
3 75 33 74
3 35 33 75
3 76 35 75
3 37 35 76
3 37 76 84
3 84 76 78
3 85 78 79
3 84 78 85
3 86 87 88
3 81 86 88
3 81 80 86
3 80 89 86
3 40 39 89
3 40 89 83
3 83 89 80
3 29 40 83
3 84 90 42
3 37 84 42
3 91 84 85
3 90 84 91
3 92 87 86
3 93 87 92
3 45 44 92
3 45 92 89
3 89 92 86
3 39 45 89
3 90 94 95
3 90 95 42
3 42 95 48
3 91 94 90
3 96 97 98
3 93 96 98
3 93 92 96
3 92 99 96
3 44 50 99
3 92 44 99
3 51 100 101
3 52 51 101
3 95 51 48
3 100 51 95
3 96 102 97
3 102 103 104
3 102 96 103
3 96 99 103
3 50 54 103
3 99 50 103
3 105 106 107
3 105 57 56
3 105 56 106
3 106 56 108
3 58 109 56
3 56 109 108
3 59 110 58
3 58 110 109
3 101 59 52
3 110 59 101
3 103 111 104
3 54 111 103
3 54 60 111
3 60 112 111
3 107 61 105
3 107 112 61
3 112 60 61
3 57 105 61
3 113 114 115
3 113 116 117
3 115 116 113
3 117 118 119
3 116 118 117
3 119 120 121
3 118 120 119
3 120 122 121
3 123 124 125
3 123 126 127
3 125 126 123
3 114 127 126
3 114 113 127
3 113 128 127
3 64 63 128
3 64 128 117
3 117 128 113
3 65 64 117
3 119 65 117
3 67 65 119
3 67 119 129
3 129 119 121
3 130 121 122
3 129 121 130
3 131 132 133
3 124 131 133
3 123 131 124
3 123 69 131
3 123 70 69
3 71 70 123
3 127 71 123
3 73 71 127
3 128 73 127
3 63 73 128
3 67 129 77
3 129 79 77
3 129 130 79
3 130 134 79
3 135 136 137
3 132 135 137
3 131 135 132
3 131 81 135
3 131 82 81
3 69 82 131
3 79 134 85
3 134 138 85
3 139 140 141
3 136 139 141
3 135 139 136
3 135 87 139
3 135 88 87
3 81 88 135
3 85 138 91
3 138 142 91
3 143 140 139
3 144 140 143
3 87 93 143
3 139 87 143
3 94 145 146
3 95 94 146
3 142 94 91
3 145 94 142
3 98 144 143
3 98 97 144
3 97 147 144
3 93 98 143
3 148 149 150
3 148 151 152
3 149 148 152
3 151 153 154
3 152 151 154
3 153 101 100
3 153 100 154
3 154 100 155
3 146 100 95
3 155 100 146
3 97 156 147
3 102 156 97
3 104 157 158
3 104 158 102
3 102 158 156
3 157 159 160
3 158 157 160
3 159 107 106
3 159 106 160
3 160 106 161
3 150 108 148
3 150 161 108
3 161 106 108
3 109 148 108
3 151 148 109
3 110 151 109
3 153 151 110
3 101 153 110
3 104 111 157
3 112 157 111
3 159 157 112
3 107 159 112
3 162 163 164
3 162 165 166
3 164 165 162
3 166 167 168
3 165 167 166
3 168 169 170
3 167 169 168
3 169 171 170
3 172 173 174
3 172 175 176
3 174 175 172
3 163 176 175
3 162 176 163
3 162 114 176
3 162 115 114
3 116 115 162
3 166 116 162
3 118 116 166
3 168 118 166
3 120 118 168
3 170 120 168
3 170 122 120
3 170 171 122
3 171 177 122
3 178 179 180
3 173 178 180
3 172 178 173
3 172 124 178
3 172 125 124
3 126 125 172
3 176 126 172
3 114 126 176
3 181 182 130
3 181 130 177
3 177 130 122
3 181 183 182
3 184 185 186
3 179 184 186
3 178 184 179
3 178 132 184
3 178 133 132
3 124 133 178
3 182 187 134
3 130 182 134
3 188 182 183
3 187 182 188
3 137 185 184
3 137 136 185
3 136 189 185
3 132 137 184
3 187 190 191
3 187 191 134
3 134 191 138
3 188 190 187
3 141 192 193
3 140 192 141
3 189 136 141
3 193 189 141
3 138 191 142
3 191 194 142
3 140 144 192
3 192 144 195
3 196 197 198
3 196 199 200
3 197 196 200
3 199 201 202
3 200 199 202
3 201 146 145
3 201 145 202
3 202 145 203
3 194 145 142
3 203 145 194
3 144 147 195
3 195 147 204
3 205 206 207
3 205 208 209
3 206 205 209
3 208 210 211
3 209 208 211
3 210 150 149
3 210 149 211
3 211 149 212
3 198 152 196
3 198 212 152
3 212 149 152
3 154 196 152
3 199 196 154
3 155 199 154
3 201 199 155
3 146 201 155
3 147 213 204
3 156 213 147
3 207 158 205
3 207 213 158
3 213 156 158
3 160 205 158
3 208 205 160
3 161 208 160
3 210 208 161
3 150 210 161
3 214 215 216
3 214 217 218
3 216 217 214
3 218 219 220
3 217 219 218
3 220 221 222
3 219 221 220
3 221 223 222
3 224 225 226
3 215 224 226
3 214 224 215
3 214 163 224
3 214 164 163
3 165 164 214
3 218 165 214
3 167 165 218
3 220 167 218
3 169 167 220
3 222 169 220
3 171 227 228
3 169 227 171
3 169 223 227
3 169 222 223
3 227 229 228
3 230 231 232
3 230 174 173
3 230 232 174
3 232 233 174
3 225 224 175
3 225 175 233
3 233 175 174
3 163 175 224
3 228 234 177
3 171 228 177
3 235 228 229
3 234 228 235
3 180 231 230
3 180 179 231
3 179 236 231
3 173 180 230
3 177 234 181
3 234 183 181
3 234 235 183
3 235 237 183
3 186 238 239
3 185 238 186
3 236 179 186
3 239 236 186
3 183 237 188
3 237 240 188
3 185 189 238
3 238 189 241
3 190 242 243
3 191 190 243
3 240 190 188
3 242 190 240
3 193 244 245
3 192 244 193
3 241 189 193
3 245 241 193
3 246 247 248
3 246 249 250
3 247 246 250
3 249 243 250
3 249 194 243
3 194 191 243
3 251 195 252
3 251 244 195
3 244 192 195
3 252 253 254
3 251 252 254
3 253 255 256
3 254 253 256
3 255 257 258
3 256 255 258
3 257 259 260
3 258 257 260
3 259 198 197
3 259 197 260
3 260 197 261
3 200 262 197
3 197 262 261
3 248 202 246
3 248 262 202
3 262 200 202
3 203 246 202
3 249 246 203
3 194 249 203
3 252 204 263
3 195 204 252
3 206 263 207
3 206 253 263
3 253 252 263
3 209 253 206
3 255 253 209
3 211 255 209
3 257 255 211
3 212 257 211
3 259 257 212
3 198 259 212
3 204 213 263
3 207 263 213
3 264 265 266
3 264 267 268
3 266 267 264
3 268 269 270
3 267 269 268
3 270 271 272
3 269 271 270
3 271 273 272
3 274 275 276
3 265 274 276
3 264 274 265
3 264 215 274
3 264 216 215
3 217 216 264
3 268 217 264
3 219 217 268
3 270 219 268
3 221 219 270
3 272 221 270
3 223 277 278
3 221 277 223
3 221 273 277
3 221 272 273
3 277 279 278
3 280 281 282
3 275 280 282
3 274 280 275
3 274 225 280
3 274 226 225
3 215 226 274
3 223 278 227
3 278 229 227
3 278 279 229
3 279 283 229
3 232 231 284
3 280 285 281
3 280 232 285
3 280 233 232
3 284 285 232
3 225 233 280
3 229 283 235
3 283 286 235
3 284 287 288
3 284 231 287
3 231 236 287
3 285 284 288
3 235 286 237
3 286 289 237
3 239 238 290
3 239 290 291
3 239 291 236
3 236 291 287
3 292 293 294
3 292 289 293
3 292 240 289
3 240 237 289
3 290 241 295
3 238 241 290
3 296 291 290
3 295 296 290
3 297 298 299
3 294 298 297
3 292 294 297
3 292 297 243
3 292 243 242
3 240 292 242
3 245 244 300
3 245 295 241
3 245 300 295
3 300 301 295
3 302 296 295
3 302 295 303
3 303 295 301
3 303 304 305
3 302 303 305
3 304 306 307
3 305 304 307
3 306 308 309
3 307 306 309
3 308 310 311
3 309 308 311
3 310 248 247
3 310 247 311
3 311 247 312
3 299 250 297
3 299 312 250
3 312 247 250
3 243 297 250
3 244 251 300
3 254 300 251
3 301 300 254
3 256 301 254
3 303 301 256
3 258 303 256
3 304 303 258
3 260 304 258
3 306 304 260
3 261 306 260
3 308 306 261
3 262 308 261
3 310 308 262
3 248 310 262
3 313 314 315
3 313 316 317
3 315 316 313
3 316 318 317
3 319 320 321
3 314 319 321
3 314 313 319
3 313 322 319
3 317 323 313
3 323 322 313
3 324 317 318
3 324 325 317
3 325 323 317
3 325 326 327
3 324 326 325
3 326 328 327
3 329 330 331
3 320 329 331
3 319 329 320
3 319 265 329
3 319 266 265
3 267 266 319
3 322 267 319
3 269 267 322
3 323 269 322
3 271 269 323
3 325 271 323
3 273 271 325
3 273 325 332
3 332 325 327
3 333 327 328
3 332 327 333
3 334 335 336
3 330 334 336
3 329 334 330
3 329 275 334
3 329 276 275
3 265 276 329
3 273 332 277
3 332 279 277
3 332 333 279
3 333 337 279
3 338 281 339
3 338 335 281
3 282 281 334
3 334 281 335
3 282 334 275
3 339 340 338
3 279 337 283
3 337 341 283
3 339 342 343
3 339 281 342
3 281 285 342
3 340 339 343
3 283 341 286
3 341 344 286
3 288 287 345
3 288 345 346
3 288 346 285
3 285 346 342
3 347 348 349
3 347 344 348
3 347 289 344
3 289 286 344
3 345 291 350
3 287 291 345
3 351 346 345
3 351 345 352
3 352 345 350
3 352 353 354
3 351 352 354
3 353 355 356
3 354 353 356
3 355 357 358
3 356 355 358
3 357 359 360
3 358 357 360
3 359 361 362
3 360 359 362
3 349 362 361
3 347 349 361
3 347 361 294
3 347 294 293
3 289 347 293
3 350 296 363
3 291 296 350
3 352 350 364
3 364 350 363
3 353 352 365
3 365 352 364
3 355 353 366
3 366 353 365
3 357 355 367
3 367 355 366
3 359 357 368
3 368 357 367
3 298 368 299
3 298 361 368
3 361 359 368
3 294 361 298
3 296 302 363
3 305 363 302
3 364 363 305
3 307 364 305
3 365 364 307
3 309 365 307
3 366 365 309
3 311 366 309
3 367 366 311
3 312 367 311
3 368 367 312
3 299 368 312
3 369 370 371
3 369 372 373
3 371 372 369
3 373 374 375
3 372 374 373
3 374 376 375
3 377 378 379
3 377 380 381
3 379 380 377
3 370 381 380
3 369 381 370
3 369 314 381
3 369 315 314
3 316 315 369
3 373 316 369
3 318 316 373
3 318 373 382
3 382 373 375
3 383 375 376
3 383 384 375
3 384 382 375
3 383 385 384
3 386 387 388
3 378 386 388
3 378 377 386
3 377 389 386
3 321 320 389
3 321 389 381
3 381 389 377
3 314 321 381
3 318 382 324
3 326 324 382
3 384 326 382
3 384 328 326
3 384 385 328
3 385 390 328
3 391 387 386
3 392 387 391
3 331 330 391
3 331 391 389
3 389 391 386
3 320 331 389
3 328 390 333
3 390 393 333
3 394 335 395
3 394 392 335
3 336 335 391
3 391 335 392
3 336 391 330
3 395 396 394
3 333 393 337
3 393 397 337
3 335 338 395
3 340 398 399
3 338 340 399
3 338 399 396
3 338 396 395
3 399 398 400
3 337 397 341
3 397 401 341
3 343 342 402
3 343 398 340
3 343 402 398
3 402 403 398
3 404 400 398
3 403 404 398
3 405 406 407
3 405 401 406
3 405 344 401
3 344 341 401
3 402 346 408
3 342 346 402
3 403 402 409
3 409 402 408
3 410 404 403
3 410 403 411
3 411 403 409
3 411 412 413
3 410 411 413
3 412 414 415
3 413 412 415
3 414 416 417
3 415 414 417
3 407 417 416
3 405 407 416
3 405 416 349
3 405 349 348
3 344 405 348
3 346 351 408
3 354 408 351
3 409 408 354
3 356 409 354
3 411 409 356
3 358 411 356
3 412 411 358
3 360 412 358
3 414 412 360
3 362 414 360
3 416 414 362
3 349 416 362
3 418 419 420
3 418 421 422
3 420 421 418
3 422 423 424
3 421 423 422
3 424 425 426
3 423 425 424
3 425 427 426
3 428 429 430
3 419 428 430
3 419 418 428
3 418 431 428
3 371 370 431
3 371 431 422
3 422 431 418
3 372 371 422
3 424 372 422
3 374 372 424
3 426 374 424
3 376 432 433
3 374 432 376
3 374 427 432
3 374 426 427
3 432 434 433
3 435 436 437
3 429 435 437
3 428 435 429
3 428 378 435
3 428 379 378
3 380 379 428
3 431 380 428
3 370 380 431
3 376 433 383
3 433 385 383
3 433 434 385
3 434 438 385
3 388 436 435
3 388 387 436
3 387 439 436
3 378 388 435
3 385 438 390
3 438 440 390
3 441 392 442
3 441 439 392
3 439 387 392
3 442 443 444
3 441 442 444
3 444 443 445
3 390 440 393
3 440 446 393
3 392 394 442
3 396 442 394
3 396 447 442
3 447 443 442
3 448 445 443
3 447 448 443
3 449 450 451
3 449 446 450
3 449 397 446
3 397 393 446
3 396 399 447
3 400 452 453
3 399 400 453
3 399 453 448
3 399 448 447
3 452 454 455
3 453 452 455
3 455 454 456
3 457 458 459
3 451 458 457
3 451 457 449
3 449 457 460
3 397 460 401
3 449 460 397
3 452 404 461
3 400 404 452
3 454 452 462
3 462 452 461
3 463 456 454
3 463 454 464
3 464 454 462
3 459 463 464
3 459 464 457
3 457 464 465
3 406 465 407
3 406 460 465
3 460 457 465
3 401 460 406
3 404 410 461
3 413 461 410
3 462 461 413
3 415 462 413
3 464 462 415
3 417 464 415
3 465 464 417
3 407 465 417
3 466 467 468
3 466 469 470
3 468 469 466
3 470 471 472
3 469 471 470
3 472 473 474
3 471 473 472
3 473 475 474
3 476 477 478
3 476 479 480
3 478 479 476
3 467 480 479
3 466 480 467
3 466 419 480
3 466 420 419
3 421 420 466
3 470 421 466
3 423 421 470
3 472 423 470
3 425 423 472
3 474 425 472
3 474 427 425
3 474 475 427
3 475 481 427
3 482 483 484
3 477 482 484
3 477 476 482
3 476 485 482
3 430 429 485
3 430 485 480
3 480 485 476
3 419 430 480
3 427 481 486
3 432 427 486
3 486 434 432
3 487 434 486
3 482 488 483
3 437 436 489
3 437 489 482
3 437 482 485
3 482 489 488
3 429 437 485
3 490 491 492
3 490 487 491
3 490 438 487
3 438 434 487
3 493 439 494
3 493 489 439
3 489 436 439
3 494 495 496
3 493 494 496
3 495 497 498
3 496 495 498
3 498 497 499
3 500 490 492
3 501 500 492
3 438 500 440
3 490 500 438
3 439 441 494
3 444 494 441
3 495 494 444
3 445 495 444
3 445 502 495
3 502 497 495
3 503 499 497
3 503 497 504
3 504 497 502
3 504 505 506
3 503 504 506
3 505 507 508
3 506 505 508
3 501 508 507
3 501 507 500
3 500 507 509
3 440 509 446
3 500 509 440
3 502 448 510
3 445 448 502
3 504 502 511
3 511 502 510
3 505 504 512
3 512 504 511
3 507 505 513
3 513 505 512
3 450 513 451
3 450 509 513
3 509 507 513
3 446 509 450
3 448 453 510
3 455 510 453
3 511 510 455
3 456 511 455
3 456 514 511
3 514 512 511
3 458 514 459
3 458 513 514
3 513 512 514
3 451 513 458
3 456 463 514
3 459 514 463
3 515 516 517
3 515 518 519
3 517 518 515
3 519 520 521
3 518 520 519
3 521 522 523
3 520 522 521
3 522 524 523
3 525 526 527
3 516 525 527
3 516 515 525
3 515 528 525
3 468 467 528
3 468 528 519
3 519 528 515
3 469 468 519
3 521 469 519
3 471 469 521
3 523 471 521
3 523 524 529
3 523 529 471
3 471 529 473
3 529 475 473
3 530 475 529
3 531 532 533
3 526 531 533
3 525 531 526
3 525 477 531
3 525 478 477
3 479 478 525
3 528 479 525
3 467 479 528
3 475 530 481
3 530 534 481
3 484 532 531
3 484 483 532
3 483 535 532
3 477 484 531
3 536 486 481
3 536 481 537
3 537 481 534
3 486 536 487
3 483 538 535
3 488 538 483
3 489 539 540
3 489 540 488
3 488 540 538
3 539 541 542
3 540 539 542
3 541 543 544
3 542 541 544
3 543 545 546
3 544 543 546
3 545 547 548
3 546 545 548
3 547 549 550
3 548 547 550
3 537 550 549
3 536 537 549
3 536 549 492
3 536 492 491
3 487 536 491
3 489 493 539
3 496 539 493
3 541 539 496
3 498 541 496
3 543 541 498
3 499 543 498
3 499 551 543
3 551 545 543
3 547 545 552
3 552 545 551
3 549 547 553
3 553 547 552
3 492 553 501
3 549 553 492
3 499 503 551
3 506 551 503
3 552 551 506
3 508 552 506
3 553 552 508
3 501 553 508
3 554 555 556
3 554 557 558
3 556 557 554
3 558 559 560
3 557 559 558
3 559 561 560
3 562 563 564
3 555 562 564
3 554 562 555
3 554 516 562
3 554 517 516
3 518 517 554
3 558 518 554
3 520 518 558
3 560 520 558
3 560 561 565
3 560 565 520
3 520 565 522
3 565 524 522
3 566 524 565
3 567 568 569
3 567 570 571
3 569 570 567
3 563 571 570
3 562 571 563
3 562 526 571
3 562 527 526
3 516 527 562
3 572 529 524
3 572 524 573
3 573 524 566
3 529 572 530
3 567 574 568
3 571 532 567
3 571 533 532
3 567 532 574
3 575 576 532
3 574 532 576
3 575 577 578
3 575 578 576
3 571 526 533
3 578 577 579
3 580 572 573
3 581 580 573
3 530 580 534
3 572 580 530
3 575 535 582
3 532 535 575
3 577 575 583
3 583 575 582
3 584 579 577
3 584 577 585
3 585 577 583
3 585 586 587
3 584 585 587
3 586 588 589
3 587 586 589
3 588 590 591
3 589 588 591
3 581 591 590
3 581 590 580
3 580 590 592
3 534 592 537
3 580 592 534
3 535 538 582
3 540 582 538
3 583 582 540
3 542 583 540
3 585 583 542
3 544 585 542
3 586 585 544
3 546 586 544
3 588 586 546
3 548 588 546
3 590 588 548
3 550 590 548
3 592 590 550
3 537 592 550
3 593 594 595
3 593 596 597
3 595 596 593
3 596 598 597
3 599 600 601
3 594 599 601
3 593 599 594
3 593 555 599
3 593 556 555
3 557 556 593
3 597 557 593
3 597 598 602
3 597 602 557
3 557 602 559
3 602 561 559
3 603 561 602
3 604 605 606
3 604 607 608
3 606 607 604
3 600 608 607
3 599 608 600
3 599 563 608
3 599 564 563
3 555 564 599
3 609 565 561
3 609 561 610
3 610 561 603
3 565 609 566
3 611 568 612
3 611 605 568
3 569 568 604
3 604 568 605
3 613 614 611
3 613 611 612
3 608 570 604
3 604 570 569
3 570 608 563
3 613 615 614
3 616 617 618
3 610 617 616
3 610 616 609
3 609 616 619
3 566 619 573
3 609 619 566
3 568 574 612
3 576 612 574
3 613 612 576
3 613 620 615
3 613 576 620
3 576 578 620
3 579 621 622
3 579 622 578
3 578 622 620
3 621 623 624
3 622 621 624
3 618 624 623
3 618 623 616
3 616 623 625
3 619 616 626
3 626 616 625
3 573 626 581
3 619 626 573
3 579 584 621
3 587 621 584
3 623 621 587
3 589 623 587
3 625 623 589
3 591 625 589
3 626 625 591
3 581 626 591
3 627 628 629
3 627 595 594
3 627 629 595
3 629 630 595
3 596 595 631
3 595 630 631
3 631 598 596
3 632 598 631
3 633 634 635
3 633 636 637
3 635 636 633
3 628 637 636
3 627 637 628
3 627 600 637
3 627 601 600
3 594 601 627
3 598 632 638
3 602 598 638
3 638 603 602
3 639 603 638
3 640 641 642
3 634 640 642
3 633 640 634
3 633 605 640
3 633 606 605
3 607 606 633
3 637 607 633
3 600 607 637
3 643 644 645
3 643 639 644
3 643 610 639
3 610 603 639
3 640 646 641
3 605 646 640
3 605 611 646
3 611 647 646
3 614 648 611
3 611 648 647
3 615 649 650
3 615 650 614
3 614 650 648
3 649 651 652
3 650 649 652
3 651 653 654
3 652 651 654
3 645 654 653
3 643 645 653
3 643 653 618
3 643 618 617
3 610 643 617
3 615 620 649
3 622 649 620
3 651 649 622
3 624 651 622
3 653 651 624
3 618 653 624
3 655 656 657
3 655 658 659
3 657 658 655
3 659 629 628
3 659 658 629
3 658 660 629
3 630 629 661
3 629 660 661
3 631 630 662
3 630 661 662
3 662 632 631
3 663 632 662
3 664 665 666
3 664 667 668
3 666 667 664
3 656 668 667
3 655 668 656
3 655 634 668
3 655 635 634
3 636 635 655
3 659 636 655
3 628 636 659
3 669 638 632
3 669 632 670
3 670 632 663
3 638 669 639
3 664 671 665
3 668 641 664
3 668 642 641
3 664 641 671
3 672 673 641
3 671 641 673
3 672 674 675
3 672 675 673
3 668 634 642
3 674 676 677
3 675 674 677
3 676 678 679
3 677 676 679
3 678 680 681
3 679 678 681
3 680 682 683
3 681 680 683
3 670 683 682
3 669 670 682
3 669 682 645
3 669 645 644
3 639 669 644
3 641 646 672
3 647 672 646
3 674 672 647
3 648 674 647
3 676 674 648
3 650 676 648
3 678 676 650
3 652 678 650
3 680 678 652
3 654 680 652
3 682 680 654
3 645 682 654
3 684 685 686
3 684 687 688
3 686 687 684
3 688 657 656
3 688 687 657
3 687 689 657
3 658 657 690
3 657 689 690
3 660 658 691
3 658 690 691
3 661 660 692
3 660 691 692
3 693 692 694
3 693 662 692
3 662 661 692
3 662 693 663
3 695 696 697
3 685 695 697
3 684 695 685
3 684 665 695
3 684 666 665
3 667 666 684
3 688 667 684
3 656 667 688
3 698 699 700
3 694 699 698
3 694 698 693
3 693 698 701
3 663 701 670
3 693 701 663
3 695 702 696
3 665 702 695
3 665 671 702
3 671 703 702
3 673 704 671
3 671 704 703
3 675 705 673
3 673 705 704
3 677 706 675
3 675 706 705
3 679 707 677
3 677 707 706
3 700 681 698
3 700 707 681
3 707 679 681
3 683 698 681
3 701 698 683
3 670 701 683
3 686 708 709
3 685 708 686
3 687 686 710
3 686 709 710
3 689 687 711
3 687 710 711
3 690 689 712
3 689 711 712
3 713 712 714
3 713 691 712
3 691 690 712
3 691 715 692
3 713 715 691
3 692 715 694
3 697 696 716
3 697 716 717
3 697 717 685
3 685 717 708
3 718 713 714
3 719 718 714
3 699 718 700
3 699 715 718
3 715 713 718
3 694 715 699
3 696 702 716
3 716 720 717
3 716 702 720
3 702 703 720
3 704 721 703
3 703 721 720
3 705 722 704
3 704 722 721
3 706 723 705
3 705 723 722
3 719 707 718
3 719 723 707
3 723 706 707
3 700 718 707
3 709 708 724
3 709 725 710
3 724 725 709
3 710 726 711
3 725 726 710
3 711 727 712
3 726 727 711
3 712 727 714
3 724 717 728
3 708 717 724
3 725 724 729
3 729 724 728
3 726 725 730
3 730 725 729
3 727 726 731
3 731 726 730
3 714 731 719
3 727 731 714
3 717 720 728
3 721 728 720
3 729 728 721
3 722 729 721
3 730 729 722
3 723 730 722
3 731 730 723
3 719 731 723
