# vtk DataFile Version 3.0
this file was written using fslvtkio
ASCII
DATASET POLYDATA
POINTS 1068 float
81.9679 151.813 64.4679
81.0452 151.852 65.6393
81.7672 151.178 65.5654
82.4347 150.801 64.7791
82.8558 151.485 63.7228
83.1894 150.361 63.8895
84.0413 151.428 63.5113
84.3368 150.401 63.8622
85.005 151.525 63.6779
85.5084 150.802 64.0731
81.3002 152.746 64.7458
80.4746 152.727 66.0623
82.285 152.77 63.5958
83.564 152.631 62.9518
84.9837 152.359 63.1057
85.9474 152.042 63.689
80.5912 153.567 65.1817
80.1259 153.586 66.3304
81.6711 153.615 64.3146
82.9101 153.801 63.4146
84.4181 153.608 63.1294
85.7472 153.31 63.5347
80.7393 154.404 65.1318
82.1146 154.633 64.3233
83.6661 154.694 63.8823
85.2208 154.659 63.6176
84.9859 146.688 65.0007
84.1438 146.515 66.0932
84.8803 145.676 66.3101
85.9504 145.767 66.1147
86.4034 146.82 65.2075
86.9291 146.421 66.2912
83.8397 147.632 64.8987
83.2629 148.345 65.6453
83.5262 147.412 66.3502
84.8225 148.311 64.786
85.9094 148.231 64.9739
86.9678 147.938 65.7445
83.246 149.111 64.5096
82.9385 149.133 65.9935
84.315 149.129 64.2994
85.6391 149.466 64.381
86.3087 149.37 65.6021
82.1292 150.332 65.931
81.5282 151.18 66.6267
82.1933 150.768 67.3103
82.5497 149.978 66.7324
82.5426 149.746 65.1213
83.4318 149.835 64.3802
84.7082 149.897 64.14
85.8217 150.505 64.7
86.3102 150.3 65.256
80.6602 151.883 66.9998
86.3405 151.633 64.5221
80.0088 152.702 67.3577
86.607 152.879 64.225
79.3949 153.557 67.511
85.9858 154.334 64.2162
80.0499 154.686 66.1078
79.5582 154.575 67.22
80.8191 155.373 65.2825
82.1649 155.363 65.0712
83.1204 155.107 64.9894
84.5726 155.177 64.8992
79.9838 155.715 66.3702
81.1185 156.018 65.9387
82.117 155.694 65.7545
88.2201 143.791 68.2616
86.9248 143.807 68.6247
87.529 143.817 69.7592
88.6867 143.44 69.7234
89.4582 144.27 68.9279
89.6685 143.854 69.6675
89.9478 144.845 69.451
89.9892 144.501 70.2396
86.7105 144.233 67.2511
85.4159 144.798 67.4387
85.7018 144.468 68.3858
87.8825 144.956 67.4765
88.9535 145.268 67.9881
89.8329 145.699 68.7934
90.1747 145.506 69.8376
85.4794 145.006 66.7643
84.2068 145.566 67.0722
86.8244 145.367 66.9861
87.9725 146.355 67.6166
89.1276 146.773 68.254
89.9569 146.726 69.2907
83.7656 146.742 67.2782
87.7741 147.321 66.7713
88.7531 147.975 67.5629
89.6361 147.855 68.5868
83.224 148.459 67.0644
83.5904 147.73 67.7663
87.3013 149.13 66.2074
88.2457 149.253 66.9427
89.5165 149.257 68.2603
83.0838 149.382 67.2343
82.7 150.123 67.9782
82.6457 149.131 68.2244
87.072 150.482 66.1368
87.9629 150.484 67.2124
88.8186 150.094 67.8957
81.5009 151.436 67.9583
82.1897 150.922 68.4327
86.7266 151.202 65.2701
86.9853 151.697 66.0718
87.4491 151.516 67.076
80.634 151.985 68.4101
87.0151 152.464 65.268
86.7724 152.447 66.3021
86.9446 152.184 66.9655
79.8107 152.771 68.6576
86.6705 153.687 64.9825
86.992 153.279 65.9162
79.1788 154.094 68.2539
85.7234 154.586 65.1471
86.2036 154.122 65.7872
79.0466 155.367 68.1476
83.8292 154.932 66.1129
82.8723 155.352 65.7222
85.0609 154.596 66.0204
79.427 156.183 67.2623
80.4342 156.641 66.8831
81.5268 156.297 66.5857
86.2483 144.457 69.7592
87.4374 144.264 71.0088
88.1408 143.515 71.0191
89.1992 143.606 70.6948
89.6942 144.9 71.0209
85.1816 145.633 68.1461
85.5515 145.126 69.2368
90.0458 146.259 70.6038
84.4533 146.379 68.1218
90.0547 146.971 70.1726
90.1111 147.71 69.6311
90.0083 147.718 70.8501
83.8552 147.126 68.5614
89.8226 148.642 69.3843
90.05 148.514 70.3903
83.0914 148.494 68.5132
83.5227 148.095 69.005
89.8246 149.333 69.534
89.5576 149.45 70.5205
82.3895 150.207 69.2533
82.3639 149.24 69.636
88.4725 151.057 68.1187
89.1247 150.513 68.848
89.4789 150.021 69.6959
81.3608 151.401 69.2806
82.1451 151.18 69.8192
88.0776 151.853 68.2208
88.3206 151.796 69.1707
80.4253 151.979 69.7517
86.4579 152.812 67.1813
86.9911 152.382 67.8665
87.499 152.215 68.5353
79.3669 153.385 69.3716
86.2201 153.554 66.9069
86.2248 153.286 68.0672
78.6985 154.579 69.0989
85.5028 153.636 67.4702
85.706 154.013 66.577
78.5343 155.654 69.0678
82.5022 155.454 66.3982
83.3513 155.396 66.8678
84.1691 154.735 67.1663
78.9867 156.73 68.4261
79.9614 157.027 67.8671
81.0484 156.658 67.4496
82.0907 155.985 67.0949
86.8453 144.922 70.9727
87.0559 144.538 71.9618
87.8155 143.929 72.0947
88.6995 144.163 71.9569
89.2046 145.628 71.9902
85.3872 146.148 69.3859
85.4768 145.369 70.2691
86.085 145.306 71.3041
89.5463 146.511 71.5807
89.7909 147.039 70.9898
89.3391 147.513 71.8749
84.6041 146.746 69.2355
85.0051 146.843 70.4316
89.5204 148.284 71.8219
83.8387 147.55 69.7786
89.4519 149.126 71.6011
83.1578 148.969 70.0615
83.6139 148.334 69.9145
89.1548 149.862 71.5646
82.0117 150.036 70.5375
82.5716 149.451 70.5841
88.6734 150.869 69.8987
89.0137 150.498 70.9011
81.2656 151.555 70.8033
81.6082 150.735 70.7693
88.4075 151.683 70.0362
88.4249 151.36 70.8077
80.2375 152.197 70.5272
79.1974 152.757 71.2258
80.3135 152.127 71.3149
87.0569 152.851 68.6515
87.4916 152.394 69.4719
88.0811 152.349 70.3571
79.5513 153.029 70.2272
78.5009 153.549 71.0751
86.5469 153.46 68.8455
86.9355 153.286 69.4316
78.6495 154.174 70.0848
78.1105 154.457 71.0199
84.9877 154.226 67.3993
85.4519 154.069 68.2765
85.861 153.943 69.2678
78.3293 155.302 69.9092
78.0559 155.654 70.8502
83.862 155.408 68.2861
83.1095 155.664 67.5889
84.5509 154.78 68.131
78.4713 156.517 69.5876
79.0987 157.108 69.3745
79.7798 157.166 68.8962
80.8398 156.837 68.3972
81.8826 156.268 68.0227
87.9347 144.585 73.4216
86.9239 144.64 73.2506
87.4493 145.031 74.3743
88.2324 145.222 74.115
88.5952 144.936 72.9722
88.388 145.781 73.6026
86.6208 145.278 72.4132
88.6706 146.405 73.4816
85.2423 146.216 71.2987
85.7892 145.843 72.2794
89.2943 146.705 72.7274
89.052 147.815 72.8846
84.1844 147.449 70.6608
84.5213 147.217 71.9142
89.1678 148.73 72.8881
83.4518 148.617 70.7292
83.1218 148.846 71.7633
83.8592 148.212 71.2823
89.1612 149.665 72.6788
82.6732 149.904 71.4044
81.9066 149.905 72.5695
82.6799 149.5 72.4523
88.9809 150.56 72.2475
81.6886 150.715 71.7555
80.3898 150.997 72.6384
80.7784 150.266 73.0394
88.3678 151.213 71.8463
80.6971 151.546 71.8407
79.4126 152.222 72.1515
79.4079 151.514 72.8448
88.053 152.045 71.4458
78.6881 152.98 72.3479
87.5576 152.929 71.1895
87.3284 153.078 70.2158
78.0441 153.837 72.2866
86.5265 153.886 70.1401
77.9491 154.814 72.0937
85.7842 154.693 69.9818
85.3649 154.805 68.9056
77.8623 155.88 71.9631
83.4708 155.489 69.1371
82.8181 155.853 68.4549
84.3079 155.213 68.9811
77.9918 156.686 70.8196
78.8132 157.137 70.3165
79.7277 157.21 69.9725
80.6682 156.833 69.4029
81.6689 156.416 69.0326
86.7264 145.324 74.0838
85.7898 145.836 74.3211
86.3946 145.215 74.9717
87.3053 145.056 75.2607
87.9985 145.643 74.777
88.2448 146.106 75.1332
86.121 145.7 73.3183
85.532 146.385 73.0605
88.1968 146.816 74.9646
84.9201 146.764 72.5197
88.8428 147.21 73.9023
88.6601 148.285 73.947
83.8266 148.184 72.0881
83.5504 148.667 73.5594
84.1181 147.902 73.1948
84.1529 147.056 73.3168
88.6808 149.308 73.862
83.0735 148.904 72.9258
81.9389 149.278 73.5899
82.4363 148.871 74.2969
88.7667 150.213 73.5499
81.1482 149.754 74.0159
88.3582 151.059 73.1324
79.9678 151.01 73.6279
80.2478 150.292 74.1331
87.9103 151.917 72.6638
78.9637 152.357 73.3519
79.1787 151.668 73.9776
87.3425 152.559 72.1653
78.5184 153.177 73.464
87.1416 153.529 71.867
86.8878 153.584 70.9328
77.9616 154.03 73.3903
85.8404 153.913 70.7736
77.8138 155.097 73.1819
85.641 155.221 70.87
85.1468 155.437 69.8863
77.9069 156.029 72.9933
82.6321 156.036 69.2155
83.2395 155.786 69.7954
84.0839 155.927 69.9347
78.3171 156.491 71.8536
78.8631 156.919 71.2695
79.7345 157.033 70.8754
80.7079 156.974 70.4736
81.7297 156.811 70.1206
82.4591 156.358 69.9103
86.7063 144.607 75.8204
85.9069 145.302 75.8121
86.3141 144.287 76.7343
87.3551 144.17 76.7939
87.4522 145.185 75.9662
87.6512 145.202 76.7738
87.8451 145.708 75.859
88.0084 145.83 76.7807
85.282 146.187 74.8894
87.9042 146.412 76.6027
85.0098 146.76 74.1166
88.0072 147.244 76.2545
84.7196 147.022 73.823
83.9919 147.283 74.7069
84.6041 147.064 74.5573
88.414 147.684 74.9989
88.4214 148.776 75.0172
82.8719 148.108 74.5797
83.4795 147.482 74.3365
88.2921 149.842 74.7308
81.4985 149.375 75.1634
81.9006 148.592 75.2973
88.2213 150.826 74.3527
80.4875 149.805 75.1894
87.8256 151.713 73.8952
79.3995 150.859 74.6884
79.7703 150.167 74.7843
86.9882 152.406 73.3848
78.2699 152.356 74.5307
78.5481 151.474 74.8513
87.1212 153.171 72.7333
78.2083 153.433 74.5929
86.7376 153.723 72.6189
86.312 153.934 71.8057
77.6999 154.508 74.3823
85.6585 154.419 71.7046
77.5555 155.549 74.1024
85.0918 155.073 71.6206
84.9175 155.79 70.7947
77.91 156.365 73.7852
84.1092 156.267 71.0953
83.2832 156.301 70.5882
78.3513 156.968 72.7367
78.914 157.409 72.3459
79.8654 157.315 71.8305
80.7626 157.31 71.53
81.6664 156.976 71.3079
82.5216 156.702 70.905
86.596 143.478 77.5492
85.7485 144.591 77.2954
85.9298 143.384 78.581
86.8999 142.855 78.5048
87.4622 143.638 77.9638
87.448 143.797 79.0211
85.4633 145.572 76.5321
87.6527 144.958 77.814
87.7338 145.889 78.0122
84.7974 146.112 75.9445
83.8811 146.17 76.769
84.8617 145.864 76.8528
87.8498 146.831 77.9222
84.4353 146.829 75.3811
83.4175 146.928 76.1397
87.8673 147.68 77.2614
82.9468 147.43 75.4398
82.3785 147.323 76.5782
82.9507 147.082 76.4136
88.3495 148.141 76.0374
88.2159 149.33 76.006
82.1169 147.899 75.8451
81.0184 148.676 76.4212
81.6042 147.84 76.7768
87.7939 150.398 75.5053
80.1587 149.425 76.2183
87.577 151.401 75.0761
79.4312 150.091 75.5087
78.8586 150.616 76.2794
79.3794 150.07 76.5109
87.0762 152.248 74.6387
78.7367 151.091 75.5298
78.1654 151.959 75.6977
78.3546 151.232 76.532
86.7678 152.738 74.0894
86.5807 152.929 74.8616
86.6305 153.684 74.102
77.7676 152.835 75.7405
86.8578 153.386 73.4089
86.2486 154.085 73.1914
77.5084 154.025 75.5276
85.6846 154.393 72.7854
77.32 155.182 75.2723
85.1813 154.784 72.5731
77.6331 156.15 74.8523
84.7231 155.216 72.2774
84.4937 155.621 71.7261
78.1082 156.686 74.2447
78.4889 157.053 73.4916
78.8176 157.071 74.167
83.9111 156.032 71.7042
83.2174 156.59 71.4997
78.997 157.639 73.2144
79.9935 157.915 72.909
80.7936 157.647 72.4763
81.5961 157.388 72.2957
82.3679 156.953 71.7871
85.3357 144.366 78.2274
84.661 144.729 78.8374
85.2214 144.191 79.3042
85.6403 142.964 79.4703
86.6606 143.031 79.5156
87.3224 144.085 80.2326
84.8645 145.435 77.6896
84.3134 145.609 78.8614
87.5655 145.005 79.112
87.6263 146.335 79.1274
83.8703 146.217 77.9973
82.7122 146.262 78.5572
83.7426 146.167 78.8689
87.7035 147.497 78.9217
83.0394 146.793 77.3888
82.0702 146.868 78.318
87.7291 148.269 77.8568
87.8967 148.567 76.7762
87.7637 149.166 77.3274
81.929 147.355 77.5782
80.7445 148.083 77.746
81.2388 147.375 78.4726
87.7137 150.031 76.6514
79.9237 148.814 77.5496
87.6202 151.082 76.2032
79.536 149.581 77.3172
87.2101 151.86 75.8561
78.4529 150.23 77.3173
79.137 149.937 77.4734
86.8723 152.62 75.7413
77.6525 152.239 76.7843
77.8475 151.242 77.3978
86.1696 153.34 75.534
86.133 153.974 74.5072
77.2512 153.527 76.643
85.7137 154.549 74.1002
77.29 154.776 76.4204
85.0363 154.885 73.6174
77.7241 155.738 76.0185
84.5855 155.276 72.7923
84.5477 155.077 73.6285
84.217 155.425 73.5407
78.0456 156.307 75.5523
78.3927 156.591 74.7421
78.7416 156.598 75.2508
83.8483 155.863 72.446
83.6429 155.754 73.5602
83.2443 156.086 73.0543
79.3231 157.351 74.9867
82.4183 156.895 72.6957
82.3893 156.904 73.4421
81.8308 157.273 73.2211
83.0298 156.276 72.3803
82.741 156.519 73.3756
79.4332 157.585 74.0433
80.1487 157.798 73.7208
81.0267 157.623 73.2852
85.8866 142.291 80.1934
84.8431 142.886 80.3387
84.6564 142.333 80.9888
85.7769 142.376 81.13
86.569 142.998 80.5657
86.4574 143.72 81.4487
84.184 144.918 79.9973
84.645 143.835 80.2164
86.9763 144.822 81.2396
83.4275 145.809 79.5428
82.8469 145.695 80.6392
83.5216 145.254 80.3498
87.4408 145.448 80.2032
87.4272 146.807 80.1325
82.2427 146.242 79.7472
81.202 146.876 80.3817
81.905 146.209 81.0279
87.3175 148.202 79.901
81.4045 146.821 79.2798
80.5614 147.656 79.3667
87.6664 148.727 78.623
87.6169 149.845 78.0808
79.8551 148.29 78.763
87.368 150.695 77.3103
79.1583 148.778 78.612
78.2686 149.203 79.5907
78.9106 148.68 79.5365
87.0137 151.386 77.0864
78.7766 149.525 78.2608
78.2021 150.147 79.2345
86.8179 152.221 76.8844
77.9441 150.452 78.2319
77.5387 151.894 78.0413
77.8067 150.991 79.0104
86.5422 152.999 76.4308
77.2247 153.026 77.7338
85.9143 153.457 76.2492
85.5557 153.961 75.4392
77.193 154.296 77.5053
85.2803 154.717 75.0287
77.3577 155.565 77.2862
84.6025 155.107 74.3988
84.7189 155.088 75.5989
84.0385 155.361 75.2194
78.147 155.983 76.7373
82.7059 156.357 74.9923
82.2925 156.316 76.0198
82.0859 156.658 75.2928
83.3031 155.853 74.9303
82.8102 155.992 75.6857
83.8781 155.572 74.437
83.3286 155.54 75.7196
78.5436 156.406 76.2352
79.1201 156.982 75.9037
82.3696 156.833 74.2018
81.6199 156.935 74.9189
83.146 156.244 74.183
79.6742 157.35 75.3708
79.9374 157.444 74.6118
80.7525 157.686 74.2906
80.27 157.324 75.2074
81.5332 157.208 74.0488
80.867 157.191 74.8928
83.7809 142.655 82.6681
83.121 143.135 83.0213
83.3497 141.74 83.8728
84.2849 141.719 83.3398
84.37 142.289 81.9064
84.9158 142.2 82.7557
85.6099 142.634 82.0736
85.6468 143.047 82.7026
83.887 143.623 81.2256
83.1597 144.033 82.3058
86.0105 144.135 82.5135
83.5657 144.905 81.2467
82.461 145.082 82.2077
82.56 144.566 82.7495
86.8483 145.369 82.3836
82.3149 145.459 81.4544
80.9269 145.941 81.832
81.651 145.281 82.2223
87.2319 146.074 81.1979
87.0891 147.476 81.1419
80.4007 146.896 81.0354
86.8976 148.518 80.7456
79.6595 147.403 80.4542
78.4906 147.734 81.2113
79.1966 147.078 81.5118
87.1951 149.187 79.2904
86.7002 149.48 80.2836
79.2508 148.01 80.0422
78.245 148.774 80.7567
86.9682 149.93 78.9906
86.997 150.799 78.3876
77.8167 149.849 80.6419
86.5186 151.639 78.0139
77.7378 150.675 79.7586
77.2312 151.537 79.3041
77.5044 150.869 80.5758
86.1242 152.412 77.3436
77.3005 152.561 78.8875
85.9749 152.994 76.9015
85.808 152.916 77.6978
85.4746 153.572 76.8566
77.5482 153.573 78.5786
85.1646 154.068 76.2644
77.7287 154.803 78.2986
85.0744 154.758 76.1564
77.7958 156.005 78.1826
77.9301 156.566 77.5419
78.5479 156.62 77.9913
84.1228 155.336 76.0263
84.3431 155.153 76.7017
83.7868 155.601 76.7013
84.6876 154.818 76.649
78.4537 156.439 76.9797
78.8999 156.77 77.3653
81.9517 156.268 76.8432
81.7074 156.843 76.0873
82.8885 155.974 76.6513
79.8791 157.27 76.1022
79.3489 156.913 76.7068
80.4597 157.18 75.8951
80.1836 157.082 76.7331
81.1587 157.072 75.7318
80.8971 156.843 76.5119
82.1784 142.838 84.8862
81.2269 142.677 85.5911
81.876 141.82 85.9862
82.5837 141.673 85.1345
82.7952 142.621 84.039
83.5298 140.862 84.6049
84.6581 141.165 84.4093
85.34 142.034 83.7917
85.8435 143.271 83.9339
81.6519 143.723 84.2533
81.0165 143.936 84.7296
82.4268 143.831 83.6454
86.0438 144.487 83.7694
81.3763 144.956 83.1676
80.1473 144.519 83.7757
86.5376 145.488 83.801
80.2203 145.551 82.7925
79.2158 146.355 83.2793
79.8065 145.5 83.8096
87.0367 146.551 82.0727
86.6825 146.442 83.121
79.7648 146.534 82.1843
78.5595 147.218 82.4725
86.9026 147.499 82.1472
86.667 148.588 81.6928
77.7963 148.237 81.9939
86.3 149.706 81.2718
77.7744 149.445 81.8042
86.7155 150.446 79.6626
86.049 150.599 80.5879
77.511 150.601 81.7551
86.316 151.259 79.2995
85.6765 151.485 80.2804
77.1505 152.039 80.0657
77.5648 151.588 81.1922
85.7674 152.03 79.3518
85.4115 152.2 80.1557
85.2193 152.665 79.4581
85.9921 152.146 78.4011
77.376 153.175 79.7727
85.5592 153.153 78.4396
84.7691 153.32 79.1849
77.7219 154.126 79.3842
85.0202 153.741 77.8085
84.4746 154.048 78.6313
78.2361 154.734 79.1246
84.2233 154.356 77.5236
84.1165 154.34 78.3144
83.7844 154.773 78.1962
84.827 154.208 76.8709
78.2334 155.716 78.9045
79.5443 156.884 78.0662
78.7819 156.512 78.7588
79.9469 156.663 78.8169
83.6265 155.231 77.4537
83.1669 155.283 78.1567
82.8542 155.754 77.5065
79.835 156.895 77.3346
80.5648 156.777 78.2497
80.6158 156.65 77.3227
81.2405 156.415 76.8658
81.3942 156.489 77.9598
82.2304 156.21 77.7894
83.19 139.923 86.7112
82.3622 140.16 87.5604
82.6569 139.354 87.9677
83.5984 138.662 87.4603
84.34 140.176 86.5224
84.2915 139.894 87.3255
84.7891 141.017 86.7386
84.7329 140.812 87.5678
82.3059 140.869 86.5804
81.2048 141.541 87.0609
81.5184 140.538 87.7614
83.1472 140.695 85.6755
84.0762 140.598 85.486
84.8575 141.421 85.6835
85.0645 141.928 86.7175
80.6504 142.913 86.142
85.4619 142.344 85.0212
85.7121 143.626 85.0755
80.0743 143.968 85.1171
86.1696 144.845 84.9364
79.7533 144.74 84.4996
79.3209 145.793 84.637
79.5642 144.649 85.2141
86.2451 146.26 84.3944
78.7671 146.902 83.9647
86.2354 147.392 83.8984
77.9607 147.79 83.3522
86.656 147.872 82.8079
86.3582 149.079 82.4681
77.6331 148.963 83.0859
85.8359 150.077 81.8972
77.6351 150.033 82.863
85.7361 151.076 81.5067
77.6027 151.018 82.7654
85.4026 151.721 80.924
77.7561 152.547 80.9484
77.7162 151.879 82.101
85.0369 152.079 80.9282
84.7182 152.602 80.4438
77.9377 153.753 80.5575
78.1397 153.188 81.611
84.1046 153.47 79.7148
78.1905 154.742 80.1405
78.5868 154.508 81.1578
83.9049 154.37 79.0997
83.7105 153.862 80.0713
83.3712 154.507 79.7814
78.7912 154.995 79.5654
79.0533 155.047 80.3592
82.2283 155.181 79.1407
81.973 155.034 80.0056
81.5137 155.441 79.5598
83.1027 154.924 78.934
82.7763 154.728 79.9888
79.0875 155.66 79.3656
80.8921 156.527 79.0203
80.0099 156.229 79.482
81.6699 156.123 78.8184
80.9101 155.786 79.7372
82.5276 155.709 78.4597
82.2006 127.446 92.8832
81.2809 126.844 92.5567
81.6155 125.936 93.2168
82.0842 127.156 93.5899
82.3699 128.151 93.4279
82.2172 127.628 94.0508
82.0766 128.238 92.4781
81.678 128.526 92.5023
82.5152 128.791 92.8234
82.2674 129.068 93.7333
82.1495 129.513 92.406
82.4226 129.857 92.9978
81.2413 138.424 88.9993
80.1692 139.327 89.6955
80.6823 138.103 90.0773
81.9765 137.371 89.347
82.6337 138.249 88.4231
83.6208 137.048 88.8078
84.2427 138.126 88.2328
84.4286 138.58 89.4605
81.435 139.711 88.7444
80.5525 140.543 88.6597
84.3715 139.879 88.3142
84.8838 141.303 88.1624
80.2679 141.833 87.3417
85.1741 142.649 87.8854
79.9918 142.815 86.821
79.4455 143.677 86.9011
79.5402 142.465 87.5504
85.4341 143.058 86.2454
85.7132 144.431 86.1726
79.8462 143.846 86.053
79.1168 144.935 85.8821
86.0014 145.565 85.5808
78.9394 146.363 85.28
85.9945 146.715 85.3528
78.3814 147.475 84.698
85.5337 147.62 85.2641
77.9214 148.52 84.3222
86.2418 148.405 83.5029
85.5098 148.386 84.3687
77.9664 149.729 84.2012
85.8427 149.33 83.2923
85.274 149.652 83.9322
78.2964 150.687 83.8732
85.3927 150.327 82.6635
84.7862 150.879 82.9143
78.234 151.781 83.2564
85.1123 151.578 81.7575
84.3696 151.504 82.3223
78.3215 152.735 82.5813
84.3556 152.412 81.4995
83.9622 152.019 82.584
83.7082 152.695 82.3154
78.7637 153.791 82.0945
82.4049 153.332 81.4423
82.0333 153.444 82.4361
81.7175 153.734 81.7181
83.4466 153.015 81.4643
83.0246 153.175 82.6903
83.9648 153.139 80.6311
79.3721 154.519 81.7779
79.7871 155.304 81.0796
80.8583 155.164 81.1496
80.1947 154.625 81.8006
81.6382 154.235 81.0634
81.0681 154.249 81.7589
82.3147 154.548 80.7352
83.1148 153.905 80.7562
79.5883 155.483 80.0243
80.4202 155.503 80.2969
81.4195 155.278 80.4631
79.7972 124.071 93.0876
79.0343 125.818 93.0555
78.9707 125.175 94.3701
80.537 124.462 94.732
81.57 124.612 93.8069
81.3107 125.588 94.9462
80.2751 125.571 92.5999
80.1328 127.125 93.3527
81.8466 126.564 94.2841
81.903 127.744 94.6241
81.0422 128.123 92.8757
80.6408 128.769 93.4817
82.0554 129.166 94.4036
81.0438 130.242 92.664
80.7495 130.749 93.359
81.5718 129.871 92.1693
82.388 130.912 92.6098
82.429 130.721 93.6387
81.5736 131.768 92.6119
80.9242 132.184 93.2472
82.1671 131.42 91.7539
83.1883 131.503 91.6964
83.0837 131.781 92.7918
83.7228 132.181 92.1819
83.9 132.668 92.8446
81.4935 133.024 92.3245
80.5279 133.597 92.8275
82.2685 132.914 91.4692
83.2196 132.836 90.9608
83.7984 133.083 91.4446
84.2805 133.47 92.2481
81.3225 134.137 92.1332
81.9198 134.321 91.2538
81.1803 135.231 91.8643
83.1183 134.258 90.434
84.04 134.595 90.9129
84.2604 134.737 91.761
81.4039 135.772 90.9339
80.6753 136.345 91.7561
82.4771 135.42 90.2954
84.0248 135.59 90.1943
84.2552 136.132 91.4032
80.489 137.144 91.2513
81.2363 136.924 90.3284
79.9045 138.449 91.1139
82.8669 136.145 89.4934
84.5794 137.029 91.0032
84.2014 137.107 89.866
84.393 138.313 90.8314
79.7706 139.778 90.7909
84.3631 139.632 90.408
80.002 140.729 89.7636
79.6154 141.688 89.343
79.7428 141.014 90.8158
84.6574 140.368 89.3144
84.9272 141.658 89.408
79.9515 141.52 88.5062
79.21 142.908 88.285
84.7249 142.737 89.2299
79.2301 144.402 87.3759
85.457 143.682 87.3256
84.9532 143.868 88.5575
78.8571 145.693 86.5122
85.3822 144.656 87.192
85.5244 145.705 86.51
78.5024 147.003 85.8759
85.2922 146.766 86.349
78.5733 148.128 85.5535
84.998 147.663 86.1122
84.7881 147.115 87.0052
84.3828 148.013 86.7019
78.6062 149.295 85.3342
84.7481 148.518 85.5154
84.0246 149.221 85.9716
78.6943 150.557 85.2454
84.7731 149.466 84.8862
83.8436 150.056 85.3555
78.778 151.537 84.5275
83.9899 150.518 84.4863
83.1606 150.62 85.2666
82.9265 151.248 84.6957
84.6614 150.376 83.9118
78.767 152.524 83.7298
83.3004 151.488 83.8761
82.6648 152.001 84.0298
83.981 151.223 83.394
78.8491 153.295 83.1178
83.3384 152.148 83.0981
82.6188 152.621 83.3495
79.2842 153.789 82.8557
79.6693 154.293 82.5329
80.643 154.146 82.5145
80.2259 153.89 83.0759
81.3607 153.765 82.4034
81.1913 153.588 83.2161
81.8916 152.992 83.213
79.2988 126.749 94.1393
78.9084 126.268 95.2438
80.0309 125.478 95.7038
80.9843 126.556 95.8589
79.8158 128.474 94.2774
81.4352 126.817 95.1714
81.6135 128.367 95.2445
80.2374 129.899 94.0143
81.8545 130.13 94.4917
80.1584 131.311 94.0473
82.4787 131.536 94.2553
80.4188 132.694 93.8142
83.1083 132.25 93.4691
83.6187 133.538 93.0715
80.2324 133.749 93.7411
83.7222 134.636 92.6438
80.6974 134.591 92.5485
80.1904 134.663 93.2649
83.6945 135.986 92.3654
80.5456 135.401 92.6247
80.5081 136.416 92.5965
83.5802 137.24 92.5361
80.1689 137.701 92.2622
80.09 139.021 92.5643
83.6616 138.335 92.2167
84.0286 139.552 91.7783
79.8238 140.381 92.3216
84.0023 140.629 91.5748
79.3256 142.317 89.8413
79.7021 141.804 91.5853
84.4038 141.02 90.4732
84.3072 142.168 90.5923
79.0154 143.662 88.7316
84.3041 143.424 90.0116
78.7993 145.012 87.8804
84.4513 144.565 89.5327
78.6558 146.272 87.2096
85.0837 145.171 87.8206
84.5405 145.42 88.5931
78.603 147.553 86.7374
84.7355 146.14 87.4769
84.1931 146.99 87.8222
78.8984 148.659 86.7029
83.7103 148.189 87.2075
78.8961 149.707 86.442
83.2159 149.276 86.6115
82.8092 148.837 87.5065
82.3862 149.653 87.0865
79.1806 150.536 86.2419
79.4353 151.515 85.6911
80.5252 151.7 86.4302
79.7943 151.021 86.8902
81.5057 151.026 86.5107
80.7703 150.942 87.3426
82.4492 150.371 86.5645
81.6631 150.31 87.3224
83.178 150.103 85.9841
79.3458 152.464 84.7972
80.3156 152.393 85.4509
81.2964 151.795 85.6309
82.2103 151.105 85.6544
79.5249 153.079 83.9298
80.4103 152.81 84.5083
81.2347 152.516 84.8653
82.0537 151.824 84.784
79.6578 153.63 83.4476
80.4399 153.461 83.8295
81.2018 153.036 83.9995
81.9502 152.465 83.9704
79.5469 127.709 95.0033
79.8467 127.216 95.997
79.5442 129.184 95.1199
80.2578 128.73 95.4599
80.8419 127.986 95.8675
79.7665 130.441 94.821
80.1718 130.17 95.6558
80.8614 129.6 96.1655
81.6322 129.356 95.6846
81.9364 130.599 95.117
79.897 132.021 94.7279
82.3856 132.079 94.8426
80.2762 133.46 94.4818
82.8731 133.009 93.903
82.9808 134.338 93.491
80.3247 134.489 94.3342
83.1028 135.736 93.2934
80.263 135.297 93.9556
82.8985 137.114 93.3086
80.2443 135.821 93.2331
80.2814 136.608 93.4578
82.7508 138.64 93.4736
80.319 137.276 93.1319
80.5325 140.082 93.7856
80.5132 138.236 93.5957
82.1774 139.997 93.6115
81.3568 139.161 94.4031
83.3218 139.711 92.7793
80.142 141.36 92.9667
81.5905 141.644 93.6212
83.0803 140.931 92.8581
79.3223 143.116 90.3057
79.9035 143.05 91.4324
80.3846 142.547 92.8203
81.6949 142.853 92.9871
82.1494 143.674 92.2267
82.7485 142.289 92.5779
83.6089 141.722 91.7688
79.106 144.401 89.3237
82.9874 143.574 91.5172
82.334 144.772 91.4997
83.6432 142.869 91.1294
79.2807 145.539 88.4785
82.9102 144.996 90.5542
82.3614 146.001 90.8144
83.6815 144.129 90.5124
79.2428 146.687 87.9652
82.8939 146.234 89.7527
82.1974 147.132 90.0498
83.7036 145.356 89.6533
79.2146 147.687 87.5936
82.79 147.292 89.0588
81.6732 147.895 89.2317
83.6968 146.394 88.7031
79.391 148.38 87.8667
79.4816 149.317 87.8095
80.6399 149.586 88.7549
79.898 148.639 88.622
81.7074 149.104 88.8365
80.8928 148.496 89.1309
82.4362 148.436 88.5561
83.2226 147.758 88.1765
79.4341 150.179 87.1142
80.2243 150.242 87.7154
81.2858 150.126 88.1805
81.9911 149.259 87.8683
80.095 131.72 95.4734
80.694 131.298 95.744
81.3351 130.752 95.6494
80.2849 133.153 95.2645
80.8919 132.801 95.7484
81.8518 132.233 95.53
80.5951 134.443 95.1756
81.2438 134.173 95.5356
82.0102 133.904 95.2645
82.3414 133.46 94.4877
80.6434 135.467 94.7524
81.2362 135.345 95.2481
81.9823 135.208 94.9881
82.5021 134.843 94.1491
80.3922 136.195 94.1119
81.0597 136.392 94.5522
81.7898 136.715 94.8825
82.6341 136.345 94.1998
80.6455 137.232 94.0911
81.1067 137.993 94.7404
82.1498 137.909 94.2048
79.8668 144.108 90.5654
80.2675 144.079 91.8007
81.0607 143.76 92.6552
79.8795 145.187 89.8426
80.2921 145.183 91.1651
81.3281 144.788 92.127
79.7569 146.209 89.1884
80.2626 146.188 90.6078
81.5606 145.972 91.5623
79.724 147.069 88.7243
80.2898 146.914 89.7741
81.3828 146.886 90.7066
79.6283 147.845 88.4869
80.1799 147.774 89.2572
81.1536 147.511 89.9094
POLYGONS 2132  8528
3 0 1 2
3 0 3 4
3 2 3 0
3 4 5 6
3 3 5 4
3 6 7 8
3 5 7 6
3 7 9 8
3 10 1 0
3 11 1 10
3 4 12 0
3 12 10 0
3 6 13 4
3 13 12 4
3 8 14 6
3 14 13 6
3 15 8 9
3 14 8 15
3 16 11 10
3 17 11 16
3 12 18 10
3 18 16 10
3 13 19 12
3 19 18 12
3 14 20 13
3 20 19 13
3 21 14 15
3 20 14 21
3 16 22 17
3 18 22 16
3 23 22 18
3 19 23 18
3 24 23 19
3 20 24 19
3 25 24 20
3 21 25 20
3 26 27 28
3 26 29 30
3 28 29 26
3 29 31 30
3 32 33 34
3 27 32 34
3 27 26 32
3 26 35 32
3 30 36 26
3 36 35 26
3 37 30 31
3 36 30 37
3 38 33 32
3 39 33 38
3 35 40 32
3 40 38 32
3 36 41 35
3 41 40 35
3 42 36 37
3 41 36 42
3 43 44 45
3 43 46 47
3 45 46 43
3 39 47 46
3 39 38 47
3 38 48 47
3 40 49 38
3 49 48 38
3 50 41 51
3 50 49 41
3 49 40 41
3 42 51 41
3 2 44 43
3 2 1 44
3 1 52 44
3 3 2 43
3 47 3 43
3 5 3 47
3 48 5 47
3 7 5 48
3 49 7 48
3 49 9 7
3 49 50 9
3 50 53 9
3 1 11 52
3 52 11 54
3 9 53 15
3 53 55 15
3 11 17 54
3 54 17 56
3 15 55 21
3 55 57 21
3 58 17 22
3 58 59 17
3 59 56 17
3 22 23 60
3 58 22 60
3 23 24 61
3 60 23 61
3 62 61 24
3 62 24 63
3 63 24 25
3 57 25 21
3 63 25 57
3 58 64 59
3 60 64 58
3 65 64 60
3 61 65 60
3 66 65 61
3 62 66 61
3 67 68 69
3 67 70 71
3 69 70 67
3 71 72 73
3 70 72 71
3 72 74 73
3 75 76 77
3 68 75 77
3 68 67 75
3 67 78 75
3 71 79 67
3 79 78 67
3 73 80 71
3 80 79 71
3 81 73 74
3 80 73 81
3 82 76 75
3 83 76 82
3 78 84 75
3 84 82 75
3 79 85 78
3 85 84 78
3 80 86 79
3 86 85 79
3 87 80 81
3 86 80 87
3 28 83 82
3 28 27 83
3 27 88 83
3 29 28 82
3 84 29 82
3 31 29 84
3 31 84 89
3 89 84 85
3 86 90 85
3 90 89 85
3 91 86 87
3 90 86 91
3 34 92 93
3 33 92 34
3 88 27 34
3 93 88 34
3 89 94 37
3 31 89 37
3 90 95 89
3 95 94 89
3 96 90 91
3 95 90 96
3 97 98 99
3 97 99 92
3 97 92 39
3 39 92 33
3 94 100 42
3 37 94 42
3 101 95 102
3 101 100 95
3 100 94 95
3 96 102 95
3 45 103 104
3 44 103 45
3 98 97 46
3 98 46 104
3 104 46 45
3 39 46 97
3 51 105 50
3 51 42 100
3 51 100 105
3 105 100 106
3 107 100 101
3 106 100 107
3 44 52 103
3 103 52 108
3 105 109 53
3 50 105 53
3 110 106 111
3 110 109 106
3 109 105 106
3 107 111 106
3 52 54 108
3 108 54 112
3 109 113 55
3 53 109 55
3 114 109 110
3 113 109 114
3 54 56 112
3 112 56 115
3 113 116 57
3 55 113 57
3 117 113 114
3 116 113 117
3 56 59 115
3 115 59 118
3 63 119 120
3 62 63 120
3 116 63 57
3 116 121 63
3 121 119 63
3 117 121 116
3 59 122 118
3 64 122 59
3 65 123 64
3 64 123 122
3 66 124 65
3 65 124 123
3 120 66 62
3 124 66 120
3 69 125 126
3 68 125 69
3 70 69 127
3 69 126 127
3 72 70 128
3 70 127 128
3 128 74 72
3 129 74 128
3 77 130 131
3 76 130 77
3 125 68 77
3 131 125 77
3 74 129 81
3 129 132 81
3 76 83 130
3 130 83 133
3 134 135 87
3 134 87 132
3 132 87 81
3 134 136 135
3 83 88 133
3 133 88 137
3 135 138 91
3 87 135 91
3 139 135 136
3 138 135 139
3 93 140 141
3 92 140 93
3 137 88 93
3 141 137 93
3 138 142 96
3 91 138 96
3 143 138 139
3 142 138 143
3 99 144 145
3 98 144 99
3 140 92 99
3 145 140 99
3 102 146 101
3 102 147 146
3 96 147 102
3 96 148 147
3 96 142 148
3 143 148 142
3 104 149 150
3 103 149 104
3 144 98 104
3 150 144 104
3 146 151 107
3 101 146 107
3 152 146 147
3 151 146 152
3 103 108 149
3 149 108 153
3 111 154 110
3 111 155 154
3 107 155 111
3 107 156 155
3 107 151 156
3 152 156 151
3 108 112 153
3 153 112 157
3 154 158 114
3 110 154 114
3 159 154 155
3 158 154 159
3 112 115 157
3 157 115 160
3 158 161 162
3 158 162 114
3 114 162 117
3 159 161 158
3 115 118 160
3 160 118 163
3 119 164 120
3 165 164 119
3 165 119 166
3 166 119 121
3 162 121 117
3 166 121 162
3 118 167 163
3 122 167 118
3 123 168 122
3 122 168 167
3 124 169 123
3 123 169 168
3 164 124 120
3 164 170 124
3 170 169 124
3 165 170 164
3 126 125 171
3 172 126 171
3 172 173 126
3 173 127 126
3 128 127 174
3 127 173 174
3 174 129 128
3 175 129 174
3 131 130 176
3 131 176 177
3 125 131 177
3 125 177 178
3 125 178 171
3 172 171 178
3 179 180 132
3 179 132 175
3 175 132 129
3 179 181 180
3 176 182 183
3 176 130 182
3 130 133 182
3 177 176 183
3 132 180 134
3 180 136 134
3 180 181 136
3 181 184 136
3 133 137 182
3 182 137 185
3 136 184 139
3 184 186 139
3 141 187 188
3 140 187 141
3 185 137 141
3 188 185 141
3 139 186 143
3 186 189 143
3 145 190 191
3 144 190 145
3 187 140 145
3 191 187 145
3 148 192 147
3 148 193 192
3 148 143 193
3 143 189 193
3 150 194 195
3 149 194 150
3 190 144 150
3 195 190 150
3 192 196 152
3 147 192 152
3 197 192 193
3 196 192 197
3 198 199 200
3 198 200 194
3 198 194 153
3 153 194 149
3 156 201 155
3 156 202 201
3 152 202 156
3 152 203 202
3 152 196 203
3 197 203 196
3 204 199 198
3 205 199 204
3 153 157 204
3 198 153 204
3 201 206 159
3 155 201 159
3 207 201 202
3 206 201 207
3 208 205 204
3 209 205 208
3 157 160 208
3 204 157 208
3 161 210 162
3 161 211 210
3 159 211 161
3 159 212 211
3 159 206 212
3 207 212 206
3 213 209 208
3 214 209 213
3 160 163 213
3 208 160 213
3 166 215 216
3 165 166 216
3 210 166 162
3 210 217 166
3 217 215 166
3 211 217 210
3 213 218 214
3 163 218 213
3 163 167 218
3 167 219 218
3 168 220 167
3 167 220 219
3 169 221 168
3 168 221 220
3 170 222 169
3 169 222 221
3 216 170 165
3 222 170 216
3 223 224 225
3 223 226 227
3 225 226 223
3 226 228 227
3 173 224 223
3 173 172 224
3 172 229 224
3 174 173 223
3 227 174 223
3 227 175 174
3 227 228 175
3 228 230 175
3 178 231 232
3 177 231 178
3 229 172 178
3 232 229 178
3 175 230 233
3 179 175 233
3 233 181 179
3 234 181 233
3 183 235 236
3 182 235 183
3 231 177 183
3 236 231 183
3 181 234 184
3 234 237 184
3 238 239 240
3 238 240 235
3 238 235 185
3 185 235 182
3 184 237 186
3 237 241 186
3 242 243 244
3 239 242 244
3 238 242 239
3 238 187 242
3 238 188 187
3 185 188 238
3 186 241 189
3 241 245 189
3 246 247 248
3 243 246 248
3 242 246 243
3 242 190 246
3 242 191 190
3 187 191 242
3 189 245 193
3 245 249 193
3 250 251 252
3 247 250 252
3 246 250 247
3 246 194 250
3 246 195 194
3 190 195 246
3 193 249 197
3 249 253 197
3 200 251 250
3 200 199 251
3 199 254 251
3 194 200 250
3 203 255 256
3 202 203 256
3 253 203 197
3 255 203 253
3 199 205 254
3 254 205 257
3 202 256 207
3 256 258 207
3 205 209 257
3 257 209 259
3 212 260 261
3 211 212 261
3 258 212 207
3 260 212 258
3 209 214 259
3 259 214 262
3 215 263 264
3 216 215 264
3 217 265 215
3 215 265 263
3 261 217 211
3 265 217 261
3 214 266 262
3 218 266 214
3 219 267 218
3 218 267 266
3 220 268 219
3 219 268 267
3 221 269 220
3 220 269 268
3 222 270 221
3 221 270 269
3 264 222 216
3 270 222 264
3 271 272 273
3 271 225 224
3 271 273 225
3 273 274 225
3 226 225 275
3 225 274 275
3 275 228 226
3 276 228 275
3 277 272 271
3 278 272 277
3 224 229 277
3 271 224 277
3 228 276 230
3 276 279 230
3 232 278 277
3 232 231 278
3 231 280 278
3 229 232 277
3 230 279 281
3 233 230 281
3 281 234 233
3 282 234 281
3 283 284 285
3 283 236 235
3 283 285 236
3 285 286 236
3 280 231 236
3 286 280 236
3 234 282 237
3 282 287 237
3 288 289 290
3 284 288 290
3 283 288 284
3 283 239 288
3 283 240 239
3 235 240 283
3 237 287 241
3 287 291 241
3 244 289 288
3 244 243 289
3 243 292 289
3 239 244 288
3 241 291 245
3 291 293 245
3 248 294 295
3 247 294 248
3 292 243 248
3 295 292 248
3 245 293 249
3 293 296 249
3 252 297 298
3 251 297 252
3 294 247 252
3 298 294 252
3 249 296 253
3 296 299 253
3 251 254 297
3 297 254 300
3 255 301 302
3 256 255 302
3 299 255 253
3 301 255 299
3 254 257 300
3 300 257 303
3 256 302 258
3 302 304 258
3 257 259 303
3 303 259 305
3 260 306 307
3 261 260 307
3 304 260 258
3 306 260 304
3 259 262 305
3 305 262 308
3 263 309 264
3 310 309 263
3 310 263 311
3 311 263 265
3 307 265 261
3 311 265 307
3 262 312 308
3 266 312 262
3 267 313 266
3 266 313 312
3 268 314 267
3 267 314 313
3 269 315 268
3 268 315 314
3 270 316 269
3 269 316 315
3 309 270 264
3 309 317 270
3 317 316 270
3 310 317 309
3 318 319 320
3 318 321 322
3 320 321 318
3 322 323 324
3 321 323 322
3 323 325 324
3 273 319 318
3 273 272 319
3 272 326 319
3 274 273 318
3 322 274 318
3 275 274 322
3 324 275 322
3 324 276 275
3 324 325 276
3 325 327 276
3 272 278 326
3 326 278 328
3 276 327 279
3 327 329 279
3 330 331 332
3 330 332 328
3 330 328 280
3 280 328 278
3 279 329 333
3 281 279 333
3 333 282 281
3 334 282 333
3 285 335 336
3 284 335 285
3 331 330 286
3 331 286 336
3 336 286 285
3 280 286 330
3 282 334 287
3 334 337 287
3 290 338 339
3 289 338 290
3 335 284 290
3 339 335 290
3 287 337 291
3 337 340 291
3 289 292 338
3 338 292 341
3 291 340 293
3 340 342 293
3 295 343 344
3 294 343 295
3 341 292 295
3 344 341 295
3 293 342 296
3 342 345 296
3 298 346 347
3 297 346 298
3 343 294 298
3 347 343 298
3 296 345 299
3 345 348 299
3 297 300 346
3 346 300 349
3 301 350 351
3 302 301 351
3 348 301 299
3 350 301 348
3 300 303 349
3 349 303 352
3 302 351 304
3 351 353 304
3 303 305 352
3 352 305 354
3 306 355 356
3 307 306 356
3 353 306 304
3 355 306 353
3 305 308 354
3 354 308 357
3 311 358 359
3 310 311 359
3 356 311 307
3 358 311 356
3 308 360 357
3 312 360 308
3 313 361 312
3 312 361 360
3 314 362 313
3 313 362 361
3 315 363 314
3 314 363 362
3 316 364 315
3 315 364 363
3 317 365 316
3 316 365 364
3 359 317 310
3 365 317 359
3 366 367 368
3 366 369 370
3 368 369 366
3 369 371 370
3 320 367 366
3 320 319 367
3 319 372 367
3 321 320 366
3 370 321 366
3 370 371 373
3 370 373 321
3 321 373 323
3 373 325 323
3 374 325 373
3 375 376 377
3 375 377 372
3 375 372 326
3 326 372 319
3 325 374 327
3 374 378 327
3 379 376 375
3 380 376 379
3 326 328 379
3 375 326 379
3 327 378 329
3 378 381 329
3 382 383 384
3 380 382 384
3 379 382 380
3 379 331 382
3 379 332 331
3 328 332 379
3 329 381 385
3 333 329 385
3 385 334 333
3 386 334 385
3 387 388 389
3 383 387 389
3 382 387 383
3 382 335 387
3 382 336 335
3 331 336 382
3 334 386 337
3 386 390 337
3 339 388 387
3 339 338 388
3 338 391 388
3 335 339 387
3 337 390 340
3 390 392 340
3 393 394 395
3 393 395 391
3 393 391 341
3 341 391 338
3 340 392 342
3 392 396 342
3 397 398 399
3 394 397 399
3 393 397 394
3 393 343 397
3 393 344 343
3 341 344 393
3 400 401 402
3 400 396 401
3 400 345 396
3 345 342 396
3 347 398 397
3 347 346 398
3 346 403 398
3 343 347 397
3 404 400 402
3 405 404 402
3 345 404 348
3 400 404 345
3 346 349 403
3 403 349 406
3 350 404 405
3 350 405 351
3 351 405 407
3 348 404 350
3 349 352 406
3 406 352 408
3 351 407 353
3 407 409 353
3 352 354 408
3 408 354 410
3 355 411 412
3 356 355 412
3 409 355 353
3 411 355 409
3 413 357 414
3 413 410 357
3 410 354 357
3 413 414 415
3 358 416 417
3 359 358 417
3 412 358 356
3 416 358 412
3 357 360 414
3 414 418 415
3 414 360 418
3 360 361 418
3 362 419 361
3 361 419 418
3 363 420 362
3 362 420 419
3 364 421 363
3 363 421 420
3 365 422 364
3 364 422 421
3 417 365 359
3 422 365 417
3 423 424 425
3 423 368 367
3 423 425 368
3 425 426 368
3 369 368 427
3 368 426 427
3 427 371 369
3 428 371 427
3 429 424 423
3 430 424 429
3 367 372 429
3 423 367 429
3 371 428 431
3 373 371 431
3 431 374 373
3 432 374 431
3 433 434 435
3 430 433 435
3 429 433 430
3 429 376 433
3 429 377 376
3 372 377 429
3 374 432 378
3 432 436 378
3 437 434 433
3 438 434 437
3 376 380 437
3 433 376 437
3 439 440 381
3 439 381 436
3 436 381 378
3 439 441 440
3 442 443 444
3 438 442 444
3 437 442 438
3 437 383 442
3 437 384 383
3 380 384 437
3 381 440 385
3 440 386 385
3 440 441 386
3 441 445 386
3 389 443 442
3 389 388 443
3 388 446 443
3 383 389 442
3 386 445 390
3 445 447 390
3 388 391 446
3 446 391 448
3 390 447 392
3 447 449 392
3 395 450 451
3 394 450 395
3 448 391 395
3 451 448 395
3 392 449 396
3 449 452 396
3 399 453 454
3 398 453 399
3 450 394 399
3 454 450 399
3 401 455 456
3 402 401 456
3 452 401 396
3 455 401 452
3 398 403 453
3 453 403 457
3 402 456 405
3 456 458 405
3 403 406 457
3 457 406 459
3 405 458 407
3 458 460 407
3 406 408 459
3 459 408 461
3 462 463 464
3 462 460 463
3 462 409 460
3 409 407 460
3 465 410 466
3 465 461 410
3 461 408 410
3 465 466 467
3 468 469 470
3 464 469 468
3 462 464 468
3 462 468 412
3 462 412 411
3 409 462 411
3 410 413 466
3 466 413 415
3 466 415 467
3 467 415 471
3 472 473 474
3 472 475 476
3 473 472 476
3 470 476 475
3 468 470 475
3 468 475 417
3 468 417 416
3 412 468 416
3 415 477 471
3 418 477 415
3 419 478 418
3 418 478 477
3 420 479 419
3 419 479 478
3 474 421 472
3 474 479 421
3 479 420 421
3 422 472 421
3 475 472 422
3 417 475 422
3 480 481 482
3 480 483 484
3 482 483 480
3 483 485 484
3 425 486 487
3 424 486 425
3 481 480 426
3 481 426 487
3 487 426 425
3 427 426 480
3 484 427 480
3 484 428 427
3 484 485 428
3 485 488 428
3 489 490 491
3 489 491 486
3 489 486 430
3 430 486 424
3 428 488 492
3 431 428 492
3 492 432 431
3 493 432 492
3 494 495 496
3 490 494 496
3 489 494 490
3 489 434 494
3 489 435 434
3 430 435 489
3 432 493 436
3 493 497 436
3 498 495 494
3 499 495 498
3 434 438 498
3 494 434 498
3 436 497 500
3 439 436 500
3 500 441 439
3 501 441 500
3 444 499 498
3 444 443 499
3 443 502 499
3 438 444 498
3 441 501 445
3 501 503 445
3 504 505 506
3 504 506 502
3 504 502 446
3 446 502 443
3 445 503 447
3 503 507 447
3 508 505 504
3 509 505 508
3 446 448 508
3 504 446 508
3 447 507 449
3 507 510 449
3 511 512 513
3 509 511 513
3 508 511 509
3 508 450 511
3 508 451 450
3 448 451 508
3 449 510 452
3 510 514 452
3 454 512 511
3 454 453 512
3 453 515 512
3 450 454 511
3 455 516 517
3 456 455 517
3 514 455 452
3 516 455 514
3 453 457 515
3 515 457 518
3 456 517 458
3 517 519 458
3 457 459 518
3 518 459 520
3 521 522 523
3 521 519 522
3 521 460 519
3 460 458 519
3 459 461 520
3 520 461 524
3 525 526 527
3 525 528 529
3 526 525 529
3 528 530 531
3 529 528 531
3 523 531 530
3 521 523 530
3 521 530 464
3 521 464 463
3 460 521 463
3 461 532 524
3 465 532 461
3 532 465 467
3 533 532 467
3 534 525 527
3 535 534 527
3 528 525 536
3 536 525 534
3 469 536 470
3 469 530 536
3 530 528 536
3 464 530 469
3 537 471 538
3 537 533 471
3 533 467 471
3 538 539 540
3 537 538 540
3 539 541 542
3 540 539 542
3 535 542 541
3 534 535 541
3 534 541 474
3 534 474 473
3 476 534 473
3 536 534 476
3 470 536 476
3 471 477 538
3 478 538 477
3 539 538 478
3 479 539 478
3 541 539 479
3 474 541 479
3 543 544 545
3 543 546 547
3 545 546 543
3 547 548 549
3 546 548 547
3 548 550 549
3 551 544 543
3 552 544 551
3 482 481 551
3 482 551 547
3 547 551 543
3 483 482 547
3 549 483 547
3 549 485 483
3 549 550 485
3 550 553 485
3 554 555 556
3 552 554 556
3 551 554 552
3 551 486 554
3 551 487 486
3 481 487 551
3 485 553 488
3 553 557 488
3 558 559 560
3 555 558 560
3 554 558 555
3 554 490 558
3 554 491 490
3 486 491 554
3 488 557 561
3 492 488 561
3 561 493 492
3 562 493 561
3 496 559 558
3 496 495 559
3 495 563 559
3 490 496 558
3 493 562 497
3 562 564 497
3 565 566 567
3 565 567 563
3 565 563 499
3 499 563 495
3 568 500 497
3 568 497 569
3 569 497 564
3 500 568 501
3 570 566 565
3 571 566 570
3 499 502 570
3 565 499 570
3 568 569 572
3 572 501 568
3 572 573 501
3 573 503 501
3 506 571 570
3 506 505 571
3 505 574 571
3 502 506 570
3 503 573 507
3 573 575 507
3 576 577 578
3 576 578 574
3 576 574 509
3 509 574 505
3 507 575 510
3 575 579 510
3 513 577 576
3 513 512 577
3 512 580 577
3 509 513 576
3 581 582 583
3 581 579 582
3 581 514 579
3 514 510 579
3 512 515 580
3 580 515 584
3 516 581 583
3 516 583 517
3 517 583 585
3 514 581 516
3 515 518 584
3 584 518 586
3 517 585 519
3 585 587 519
3 588 520 589
3 588 586 520
3 586 518 520
3 588 589 590
3 591 592 593
3 591 523 522
3 591 522 592
3 592 522 594
3 587 522 519
3 594 522 587
3 589 524 595
3 520 524 589
3 596 590 589
3 595 596 589
3 526 597 598
3 527 526 598
3 529 599 526
3 526 599 597
3 593 531 591
3 593 599 531
3 599 529 531
3 523 591 531
3 524 532 595
3 533 600 601
3 532 533 601
3 532 601 596
3 532 596 595
3 600 602 603
3 601 600 603
3 602 604 605
3 603 602 605
3 604 598 605
3 604 535 598
3 535 527 598
3 533 537 600
3 540 600 537
3 602 600 540
3 542 602 540
3 604 602 542
3 535 604 542
3 606 607 608
3 606 609 610
3 608 609 606
3 610 545 544
3 610 609 545
3 609 611 545
3 546 545 612
3 545 611 612
3 548 546 613
3 546 612 613
3 613 550 548
3 614 550 613
3 615 607 606
3 616 607 615
3 610 617 606
3 617 615 606
3 544 552 617
3 610 544 617
3 550 614 553
3 614 618 553
3 619 616 615
3 620 616 619
3 556 555 619
3 556 619 617
3 617 619 615
3 552 556 617
3 553 618 557
3 618 621 557
3 622 623 624
3 620 622 624
3 619 622 620
3 619 559 622
3 619 560 559
3 555 560 619
3 625 561 557
3 625 557 626
3 626 557 621
3 561 625 562
3 627 623 622
3 628 623 627
3 559 563 627
3 622 559 627
3 625 626 629
3 629 562 625
3 629 630 562
3 630 564 562
3 567 628 627
3 567 566 628
3 566 631 628
3 563 567 627
3 564 630 569
3 630 632 569
3 566 571 631
3 631 571 633
3 634 572 569
3 634 569 635
3 635 569 632
3 572 634 573
3 571 574 633
3 633 574 636
3 637 634 635
3 638 637 635
3 573 637 575
3 634 637 573
3 578 639 640
3 577 639 578
3 636 574 578
3 640 636 578
3 641 642 643
3 638 642 641
3 638 641 637
3 637 641 644
3 575 644 579
3 637 644 575
3 577 580 639
3 639 580 645
3 646 641 643
3 647 646 643
3 582 646 583
3 582 644 646
3 644 641 646
3 579 644 582
3 580 584 645
3 645 584 648
3 649 646 647
3 650 649 647
3 583 649 585
3 646 649 583
3 584 586 648
3 648 586 651
3 652 653 654
3 650 653 652
3 650 652 649
3 649 652 655
3 585 655 587
3 649 655 585
3 586 656 651
3 588 656 586
3 590 657 658
3 590 658 588
3 588 658 656
3 658 657 659
3 660 661 662
3 654 661 660
3 652 654 660
3 652 660 593
3 652 593 592
3 594 652 592
3 655 652 594
3 587 655 594
3 657 596 663
3 590 596 657
3 664 659 657
3 664 657 665
3 665 657 663
3 665 666 667
3 664 665 667
3 666 598 597
3 666 597 667
3 667 597 668
3 662 599 660
3 662 668 599
3 668 597 599
3 593 660 599
3 596 601 663
3 603 663 601
3 665 663 603
3 605 665 603
3 666 665 605
3 598 666 605
3 669 670 671
3 669 672 673
3 671 672 669
3 673 674 675
3 672 674 673
3 674 676 675
3 677 678 679
3 670 677 679
3 670 669 677
3 669 680 677
3 673 681 669
3 681 680 669
3 675 682 673
3 682 681 673
3 683 675 676
3 682 675 683
3 608 678 677
3 608 607 678
3 607 684 678
3 609 608 677
3 680 609 677
3 611 609 680
3 681 611 680
3 612 611 681
3 682 612 681
3 682 683 685
3 682 685 612
3 612 685 613
3 685 614 613
3 686 614 685
3 607 616 684
3 684 616 687
3 614 686 618
3 686 688 618
3 689 690 691
3 689 691 687
3 689 687 620
3 620 687 616
3 618 688 621
3 688 692 621
3 624 690 689
3 624 623 690
3 623 693 690
3 620 624 689
3 621 692 626
3 692 694 626
3 623 628 693
3 693 628 695
3 626 694 696
3 629 626 696
3 696 630 629
3 697 630 696
3 628 631 695
3 695 631 698
3 630 697 632
3 697 699 632
3 631 633 698
3 698 633 700
3 632 699 635
3 699 701 635
3 633 636 700
3 700 636 702
3 635 701 638
3 701 703 638
3 640 639 704
3 640 704 705
3 640 705 636
3 636 705 702
3 642 706 707
3 643 642 707
3 703 642 638
3 706 642 703
3 704 645 708
3 639 645 704
3 709 705 704
3 708 709 704
3 643 707 647
3 707 710 647
3 708 648 711
3 645 648 708
3 712 709 708
3 711 712 708
3 713 714 715
3 713 710 714
3 713 650 710
3 650 647 710
3 711 651 716
3 648 651 711
3 717 712 711
3 716 717 711
3 718 719 720
3 718 721 722
3 719 718 722
3 715 722 721
3 713 715 721
3 713 721 654
3 713 654 653
3 650 713 653
3 651 656 716
3 716 723 717
3 716 656 723
3 656 658 723
3 659 724 725
3 659 725 658
3 658 725 723
3 724 726 727
3 725 724 727
3 720 727 726
3 720 726 718
3 718 726 728
3 661 728 662
3 661 721 728
3 721 718 728
3 654 721 661
3 659 664 724
3 667 724 664
3 726 724 667
3 668 726 667
3 728 726 668
3 662 728 668
3 729 730 731
3 729 732 733
3 731 732 729
3 732 734 733
3 735 730 729
3 736 730 735
3 733 737 729
3 737 735 729
3 738 733 734
3 737 733 738
3 735 739 736
3 737 739 735
3 740 739 737
3 738 740 737
3 741 742 743
3 741 744 745
3 743 744 741
3 745 746 747
3 744 746 745
3 746 748 747
3 749 742 741
3 750 742 749
3 671 670 749
3 671 749 745
3 745 749 741
3 672 671 745
3 747 672 745
3 747 748 751
3 747 751 672
3 672 751 674
3 751 676 674
3 752 676 751
3 679 750 749
3 679 678 750
3 678 753 750
3 670 679 749
3 676 752 683
3 752 754 683
3 755 756 757
3 755 757 753
3 755 753 684
3 684 753 678
3 683 754 758
3 685 683 758
3 758 686 685
3 759 686 758
3 760 756 755
3 761 756 760
3 684 687 760
3 755 684 760
3 686 759 688
3 759 762 688
3 691 761 760
3 691 690 761
3 690 763 761
3 687 691 760
3 688 762 692
3 762 764 692
3 690 693 763
3 763 693 765
3 692 764 694
3 764 766 694
3 693 695 765
3 765 695 767
3 768 696 694
3 768 694 769
3 769 694 766
3 696 768 697
3 695 698 767
3 767 698 770
3 771 768 769
3 772 771 769
3 697 771 699
3 768 771 697
3 698 700 770
3 770 700 773
3 774 771 772
3 775 774 772
3 699 774 701
3 771 774 699
3 700 702 773
3 773 702 776
3 777 774 775
3 778 777 775
3 701 777 703
3 774 777 701
3 702 705 776
3 776 705 779
3 780 781 782
3 778 781 780
3 777 778 780
3 777 780 707
3 777 707 706
3 703 777 706
3 705 709 779
3 779 709 783
3 784 785 786
3 784 787 788
3 785 784 788
3 782 788 787
3 782 787 780
3 780 787 789
3 707 789 710
3 780 789 707
3 790 712 791
3 790 783 712
3 783 709 712
3 791 792 793
3 790 791 793
3 792 794 795
3 793 792 795
3 786 795 794
3 786 794 784
3 784 794 796
3 787 784 797
3 797 784 796
3 714 797 715
3 714 789 797
3 789 787 797
3 710 789 714
3 791 717 798
3 712 717 791
3 792 791 799
3 799 791 798
3 794 792 800
3 800 792 799
3 719 800 720
3 719 796 800
3 796 794 800
3 722 796 719
3 797 796 722
3 715 797 722
3 717 723 798
3 725 798 723
3 799 798 725
3 727 799 725
3 800 799 727
3 720 800 727
3 801 802 803
3 801 804 805
3 803 804 801
3 804 806 805
3 807 802 801
3 808 802 807
3 731 730 807
3 731 807 805
3 805 807 801
3 805 806 809
3 805 809 731
3 731 809 732
3 809 734 732
3 810 734 809
3 811 808 807
3 812 808 811
3 730 736 811
3 807 730 811
3 734 810 738
3 810 813 738
3 814 812 811
3 815 812 814
3 736 739 816
3 736 816 811
3 811 816 814
3 739 740 817
3 816 739 817
3 740 818 817
3 740 738 818
3 738 813 818
3 819 815 814
3 820 815 819
3 816 821 814
3 821 819 814
3 817 822 816
3 822 821 816
3 823 817 818
3 823 824 817
3 824 822 817
3 823 825 824
3 826 820 819
3 827 820 826
3 821 828 819
3 828 826 819
3 822 829 821
3 829 828 821
3 824 830 822
3 830 829 822
3 831 824 825
3 830 824 831
3 826 832 827
3 832 833 834
3 832 826 833
3 826 828 833
3 829 835 828
3 835 833 828
3 830 836 829
3 836 835 829
3 837 830 831
3 836 830 837
3 838 834 833
3 839 834 838
3 835 840 833
3 840 838 833
3 836 841 835
3 841 840 835
3 842 836 837
3 841 836 842
3 838 843 839
3 843 844 845
3 843 838 844
3 838 840 844
3 841 846 840
3 846 844 840
3 847 841 842
3 847 848 841
3 848 846 841
3 847 849 848
3 743 845 844
3 743 742 845
3 742 850 845
3 744 743 844
3 846 744 844
3 746 744 846
3 848 746 846
3 848 748 746
3 848 849 748
3 849 851 748
3 852 853 854
3 852 854 850
3 852 850 750
3 750 850 742
3 748 851 855
3 751 748 855
3 855 752 751
3 856 752 855
3 857 853 852
3 858 853 857
3 750 753 857
3 852 750 857
3 752 856 754
3 856 859 754
3 757 858 857
3 757 756 858
3 756 860 858
3 753 757 857
3 861 758 754
3 861 754 862
3 862 754 859
3 758 861 759
3 756 761 860
3 860 761 863
3 861 862 864
3 864 759 861
3 864 865 759
3 865 762 759
3 761 763 863
3 863 763 866
3 762 865 764
3 865 867 764
3 763 765 866
3 866 765 868
3 869 870 871
3 869 867 870
3 869 766 867
3 766 764 867
3 765 767 868
3 868 767 872
3 873 869 871
3 874 873 871
3 766 873 769
3 869 873 766
3 767 770 872
3 872 770 875
3 876 873 874
3 877 876 874
3 769 876 772
3 873 876 769
3 770 773 875
3 875 773 878
3 879 880 881
3 877 880 879
3 877 879 876
3 876 879 882
3 772 882 775
3 876 882 772
3 773 776 878
3 878 776 883
3 884 879 881
3 885 884 881
3 882 879 886
3 886 879 884
3 775 886 778
3 882 886 775
3 776 779 883
3 883 779 887
3 888 884 885
3 889 888 885
3 781 888 782
3 781 886 888
3 886 884 888
3 778 886 781
3 890 783 891
3 890 887 783
3 887 779 783
3 891 892 893
3 890 891 893
3 892 894 895
3 893 892 895
3 894 786 785
3 894 785 895
3 895 785 896
3 889 788 888
3 889 896 788
3 896 785 788
3 782 888 788
3 783 790 891
3 793 891 790
3 892 891 793
3 795 892 793
3 894 892 795
3 786 894 795
3 803 897 898
3 802 897 803
3 804 803 899
3 803 898 899
3 899 806 804
3 900 806 899
3 802 808 897
3 897 808 901
3 806 900 902
3 809 806 902
3 902 810 809
3 903 810 902
3 808 812 901
3 901 812 904
3 810 903 813
3 903 905 813
3 812 815 904
3 904 815 906
3 813 905 818
3 905 907 818
3 815 820 906
3 906 820 908
3 818 907 909
3 823 818 909
3 909 825 823
3 910 825 909
3 820 827 908
3 908 827 911
3 825 910 831
3 910 912 831
3 913 827 832
3 913 914 827
3 914 911 827
3 832 834 913
3 831 912 837
3 912 915 837
3 913 916 914
3 916 913 834
3 916 834 917
3 917 834 839
3 837 915 842
3 915 918 842
3 839 919 917
3 843 919 839
3 919 843 845
3 920 919 845
3 842 918 921
3 847 842 921
3 921 849 847
3 922 849 921
3 845 850 920
3 920 850 923
3 849 922 851
3 922 924 851
3 854 925 926
3 853 925 854
3 923 850 854
3 926 923 854
3 851 924 927
3 855 851 927
3 927 856 855
3 928 856 927
3 853 858 925
3 925 858 929
3 856 928 859
3 928 930 859
3 858 860 929
3 929 860 931
3 859 930 862
3 930 932 862
3 860 863 931
3 931 863 933
3 934 864 862
3 934 862 935
3 935 862 932
3 864 934 865
3 863 866 933
3 933 866 936
3 937 934 935
3 938 937 935
3 865 937 867
3 934 937 865
3 866 868 936
3 936 868 939
3 870 937 938
3 870 938 871
3 871 938 940
3 867 937 870
3 868 872 939
3 939 872 941
3 942 943 944
3 942 940 943
3 942 874 940
3 874 871 940
3 945 875 946
3 945 941 875
3 941 872 875
3 946 947 948
3 945 946 948
3 947 949 950
3 948 947 950
3 949 951 952
3 950 949 952
3 944 952 951
3 944 951 942
3 942 951 953
3 874 953 877
3 942 953 874
3 946 878 954
3 875 878 946
3 947 946 955
3 955 946 954
3 949 947 956
3 956 947 955
3 951 949 957
3 957 949 956
3 880 957 881
3 880 953 957
3 953 951 957
3 877 953 880
3 954 883 958
3 878 883 954
3 955 954 959
3 959 954 958
3 956 955 960
3 960 955 959
3 957 956 961
3 961 956 960
3 881 961 885
3 957 961 881
3 958 887 962
3 883 887 958
3 959 958 963
3 963 958 962
3 960 959 964
3 964 959 963
3 961 960 965
3 965 960 964
3 885 965 889
3 961 965 885
3 887 890 962
3 893 962 890
3 963 962 893
3 895 963 893
3 964 963 895
3 896 964 895
3 965 964 896
3 889 965 896
3 898 897 966
3 898 967 899
3 966 967 898
3 899 967 900
3 966 901 968
3 897 901 966
3 967 966 969
3 969 966 968
3 900 970 902
3 900 967 970
3 967 969 970
3 902 970 903
3 968 971 972
3 968 901 971
3 901 904 971
3 969 968 972
3 973 969 972
3 970 969 973
3 974 970 973
3 974 903 970
3 974 975 903
3 975 905 903
3 904 906 971
3 971 906 976
3 905 975 907
3 975 977 907
3 906 908 976
3 976 908 978
3 907 977 979
3 909 907 979
3 979 910 909
3 980 910 979
3 908 911 978
3 978 911 981
3 910 980 912
3 980 982 912
3 911 914 981
3 981 914 983
3 912 982 915
3 982 984 915
3 914 985 983
3 916 985 914
3 985 916 917
3 986 985 917
3 915 984 918
3 984 987 918
3 917 988 986
3 919 988 917
3 920 989 990
3 920 990 919
3 919 990 988
3 989 991 992
3 990 989 992
3 921 991 993
3 921 987 991
3 921 918 987
3 992 991 987
3 921 993 922
3 989 923 994
3 920 923 989
3 991 989 995
3 995 989 994
3 993 991 996
3 996 991 995
3 922 996 924
3 993 996 922
3 926 997 998
3 925 997 926
3 994 923 926
3 994 926 999
3 999 926 998
3 995 994 999
3 1000 995 999
3 1000 1001 1002
3 1000 1002 995
3 995 1002 996
3 924 1003 927
3 924 996 1003
3 996 1002 1003
3 927 1003 928
3 925 929 997
3 997 929 1004
3 1005 1002 1001
3 1006 1005 1001
3 1003 1002 1007
3 1007 1002 1005
3 928 1007 930
3 1003 1007 928
3 929 931 1004
3 1004 931 1008
3 1009 1005 1006
3 1010 1009 1006
3 1007 1005 1011
3 1011 1005 1009
3 930 1011 932
3 1007 1011 930
3 931 933 1008
3 1008 933 1012
3 1013 1009 1010
3 1014 1013 1010
3 1011 1009 1015
3 1015 1009 1013
3 932 1015 935
3 1011 1015 932
3 933 936 1012
3 1012 936 1016
3 1017 1013 1014
3 1018 1017 1014
3 1015 1013 1019
3 1019 1013 1017
3 935 1019 938
3 1015 1019 935
3 1020 939 1021
3 1020 1016 939
3 1016 936 939
3 1021 1022 1023
3 1020 1021 1023
3 1022 1024 1025
3 1023 1022 1025
3 1018 1025 1024
3 1018 1024 1017
3 1017 1024 1026
3 1019 1017 1027
3 1027 1017 1026
3 938 1027 940
3 1019 1027 938
3 1021 941 1028
3 939 941 1021
3 1022 1021 1029
3 1029 1021 1028
3 1024 1022 1030
3 1030 1022 1029
3 1026 1024 1031
3 1031 1024 1030
3 943 1031 944
3 943 1027 1031
3 1027 1026 1031
3 940 1027 943
3 941 945 1028
3 948 1028 945
3 1029 1028 948
3 950 1029 948
3 1030 1029 950
3 952 1030 950
3 1031 1030 952
3 944 1031 952
3 972 971 1032
3 972 1033 973
3 1032 1033 972
3 973 1034 974
3 1033 1034 973
3 974 1034 975
3 1032 976 1035
3 971 976 1032
3 1033 1032 1036
3 1036 1032 1035
3 1034 1033 1037
3 1037 1033 1036
3 975 1037 977
3 1034 1037 975
3 1035 978 1038
3 976 978 1035
3 1036 1035 1039
3 1039 1035 1038
3 1037 1036 1040
3 1040 1036 1039
3 977 1041 979
3 977 1037 1041
3 1037 1040 1041
3 979 1041 980
3 1038 981 1042
3 978 981 1038
3 1039 1038 1043
3 1043 1038 1042
3 1040 1039 1044
3 1044 1039 1043
3 1041 1040 1045
3 1045 1040 1044
3 980 1045 982
3 1041 1045 980
3 1042 983 1046
3 981 983 1042
3 1043 1042 1047
3 1047 1042 1046
3 1044 1043 1048
3 1048 1043 1047
3 1045 1044 1049
3 1049 1044 1048
3 982 1049 984
3 1045 1049 982
3 983 985 1046
3 986 1046 985
3 986 1050 1046
3 1050 1047 1046
3 1048 1047 1051
3 1051 1047 1050
3 1049 1048 1052
3 1052 1048 1051
3 984 1052 987
3 1049 1052 984
3 986 988 1050
3 990 1050 988
3 1051 1050 990
3 992 1051 990
3 1052 1051 992
3 987 1052 992
3 998 997 1053
3 998 1054 999
3 1053 1054 998
3 999 1055 1000
3 1054 1055 999
3 1000 1055 1001
3 1053 1004 1056
3 997 1004 1053
3 1054 1053 1057
3 1057 1053 1056
3 1055 1054 1058
3 1058 1054 1057
3 1001 1058 1006
3 1055 1058 1001
3 1056 1008 1059
3 1004 1008 1056
3 1057 1056 1060
3 1060 1056 1059
3 1058 1057 1061
3 1061 1057 1060
3 1006 1061 1010
3 1058 1061 1006
3 1059 1012 1062
3 1008 1012 1059
3 1060 1059 1063
3 1063 1059 1062
3 1061 1060 1064
3 1064 1060 1063
3 1010 1064 1014
3 1061 1064 1010
3 1062 1016 1065
3 1012 1016 1062
3 1063 1062 1066
3 1066 1062 1065
3 1064 1063 1067
3 1067 1063 1066
3 1014 1067 1018
3 1064 1067 1014
3 1016 1020 1065
3 1023 1065 1020
3 1066 1065 1023
3 1025 1066 1023
3 1067 1066 1025
3 1018 1067 1025
