# vtk DataFile Version 3.0
this file was written using fslvtkio
ASCII
DATASET POLYDATA
POINTS 642 float
90.9222 109.553 65.2263
82.1451 101.906 80.1701
85.8576 95.6938 74.8233
90.4954 99.9054 68.4461
97.8771 109.79 74.3192
83.4167 95.1174 62.1674
79.4846 91.5313 68.7868
91.5671 104.704 83.9504
90.2102 109.502 76.8929
91.1823 99.0586 74.712
83.789 89.2822 65.6188
83.6383 104.694 70.039
90.5538 105.784 80.8758
94.3887 109.114 75.3825
95.7069 106.544 80.433
92.5822 102.059 79.9507
95.2966 103.748 75.7874
81.5119 97.6843 69.1635
80.3759 91.7468 63.5483
83.6003 99.2824 65.8421
80.2297 87.1948 67.7481
83.4014 89.3871 61.5312
94.1231 105.042 70.9968
94.5393 109.715 67.6423
91.5464 105.163 66.958
86.5894 97.1004 65.8839
87.0699 103.614 65.7657
86.3493 101.775 81.4341
88.4584 99.9991 79.6049
83.8136 99.1901 78.5579
81.0083 98.5882 74.2825
82.2366 92.9263 71.7069
87.0266 109.399 66.6693
92.0316 113.823 70.4699
86.6293 110.833 73.5859
82.2877 105.319 75.591
85.7187 108.881 81.867
86.8535 93.9253 65.0704
88.059 96.5299 69.4289
91.4832 99.9912 71.529
83.5851 89.1553 71.2809
88.4984 97.7209 74.6165
93.58 107.704 79.2976
95.8396 107.324 78.2949
93.6166 105.196 81.2996
98.0395 109.496 76.6433
96.9514 110.652 74.9571
91.8546 107.464 75.4788
89.91 105.563 78.1021
91.8042 105.369 83.3019
93.1212 105.357 83.903
94.3387 103.731 81.5225
96.0112 105.605 78.1044
94.1214 104.011 78.3487
96.9102 106.871 76.2068
92.3609 103.413 82.5236
92.188 100.648 77.2096
92.9771 101.589 76.0048
80.8328 94.098 66.508
82.0816 95.1555 64.2623
82.3577 97.8964 67.2236
83.364 96.9823 63.6511
82.1328 93.2417 61.3781
79.3073 90.3416 66.4359
80.4019 93.7998 68.5384
81.8413 101.732 69.5617
83.3764 102.618 67.6961
80.7284 89.3994 64.2532
80.4182 88.6539 60.707
79.2415 87.0511 63.2228
82.6549 90.9957 61.1202
83.8766 88.5521 63.3262
82.5084 86.8282 66.5701
79.0009 88.4291 67.3343
94.515 107.533 70.0048
92.9221 107.648 66.9922
92.6035 104.945 69.2727
91.227 107.527 64.9214
92.9278 110.487 65.3162
96.6539 110.208 70.7001
96.3085 107.469 73.148
92.3211 102.066 69.8305
90.7047 101.032 67.691
89.1352 101.441 65.1809
89.2146 104.32 66.263
86.5635 99.1596 65.1145
89.2943 106.88 64.816
88.337 98.1903 67.2844
84.8586 95.0686 62.2062
85.062 98.7715 63.6493
87.3672 100.701 80.575
86.1916 99.5298 78.4372
84.4481 100.66 79.7117
85.0925 96.9065 75.3925
87.1962 97.557 77.4034
90.4236 102.639 81.7817
89.0784 102.944 82.7283
83.0983 102.409 82.5667
82.1987 99.5769 81.4732
82.0703 98.6666 76.9798
83.0673 96.4403 74.8108
81.3972 95.4594 73.0962
84.2412 94.0461 73.5388
80.9319 100.296 78.7792
81.0293 94.8208 70.7506
80.1428 91.3534 70.0917
89.4034 113.245 68.3076
89.1978 113.328 72.1426
86.6867 111.795 69.8967
88.4856 110.994 75.5235
91.1751 111.834 74.3272
91.8145 112.938 66.7629
89.4625 110.124 65.8292
85.0137 107.315 68.5601
84.9913 107.667 71.8449
84.1239 109.215 75.3035
85.81 110.657 77.9134
83.6599 108.408 78.6734
88.3215 109.713 79.5461
82.6713 105.755 72.3267
81.8166 104.015 78.6059
83.0623 106.079 81.7748
87.5763 95.3106 67.0012
89.4525 97.6236 70.0721
88.2338 97.8731 69.3187
91.3195 98.9957 73.6158
89.4077 96.7137 72.2442
85.2987 92.5951 66.5784
85.6031 90.5636 65.0654
88.5904 97.5685 67.0018
91.1564 99.4201 68.978
86.7966 96.5225 71.5176
87.9018 95.243 72.5556
85.2464 94.2916 70.2063
90.2497 97.9282 74.8666
86.8007 95.5479 74.8631
84.6475 93.4128 73.2024
83.5577 88.7609 68.0701
95.7643 110.097 71.2878
93.1656 109.968 72.0701
93.5741 111.407 68.8056
87.0504 106.442 64.8212
84.9863 104.88 66.0714
85.0226 101.812 65.2238
93.6712 101.775 74.0436
95.2225 104.646 73.3802
93.4637 102.291 71.8851
86.8184 95.1735 63.8692
85.493 92.809 62.1063
86.3104 90.1791 61.6329
87.3594 105.226 80.7453
88.4322 103.415 82.6433
85.1695 105.515 83.559
80.9227 101.657 75.1923
81.2967 98.5401 71.5824
81.0683 101.999 72.1649
89.1258 98.6932 77.6288
90.6585 100.709 80.0508
90.7851 99.4696 77.5635
81.9492 86.2291 70.269
80.6445 88.5337 70.0742
81.926 89.4195 71.9834
95.0258 108.323 79.3129
95.6397 107.039 80.9868
93.9852 106.877 80.4762
95.5524 106.424 82.2586
96.5641 107.557 79.6311
95.2043 108.453 76.9211
94.2889 108.762 77.4984
92.2392 106.858 80.3762
92.1261 105.218 80.9091
97.4615 109.408 77.4285
96.1866 108.935 76.5002
98.0887 110.561 75.1139
95.6824 109.582 75.1185
97.0953 107.685 78.4103
97.8302 109.055 75.0106
97.8535 110.5 73.1668
92.8187 107.165 77.3419
91.835 106.236 78.8202
91.2808 106.899 77.2188
90.2316 105.467 79.4177
93.0051 107.958 75.3004
90.9104 108.71 76.1074
89.9986 108.211 77.6694
92.4314 105.345 82.2875
93.7836 105.873 84.0558
92.0538 104.761 84.5976
94.6326 105.437 82.827
90.7802 104.912 81.7918
90.8661 104.227 84.217
92.1538 104.024 83.6608
94.8322 104.882 79.618
94.995 104.972 78.3408
94.2073 104.279 79.7282
94.7556 103.88 77.3109
95.3386 104.689 76.7121
95.3888 106.243 78.8898
94.6726 105.162 81.1858
93.1719 103.053 80.121
93.5739 103.162 79.2818
96.8119 106.47 77.2161
96.6533 107.511 77.6484
97.5479 107.866 76.7323
96.415 105.149 75.9869
97.581 108.395 75.0429
93.6351 104.691 82.5202
93.3963 103.388 82.1609
92.9949 103.939 83.0682
92.7298 102.649 81.3427
91.8629 104.082 83.1919
93.087 102.731 78.1094
93.5057 103.286 77.2776
92.7505 100.984 76.9387
93.7808 102.98 76.3846
92.6935 101.737 78.5682
91.7288 99.9064 75.7452
92.0324 100.232 75.3795
81.3665 94.0332 65.216
82.5018 96.1356 65.8268
81.7546 95.4189 66.7846
83.0177 98.5935 66.6912
82.9717 97.3821 65.2692
81.4463 92.7828 63.9705
80.5456 92.6946 65.0533
81.4438 95.4358 68.1022
81.6548 97.9811 67.9533
82.453 95.9027 63.5127
81.8957 93.6272 62.7831
82.6898 94.7239 62.4534
81.0441 91.8825 61.9903
83.6981 98.4174 64.6099
83.7083 96.3471 63.2271
83.2521 94.3352 62.007
80.1687 91.8123 66.4127
80.2679 93.2787 67.3968
79.9135 91.9605 67.3915
81.0587 95.8586 69.1373
79.5644 90.7677 64.8498
79.4239 90.7197 68.0212
80.0322 93.0769 69.3054
82.2561 100.119 68.3716
83.1609 100.435 67.8226
83.024 101.973 68.8681
83.7705 101.031 66.8638
81.5227 99.7718 69.3783
83.1857 103.247 70.1837
83.4217 103.996 68.9858
81.5405 89.8818 62.5526
79.7119 87.9858 61.889
80.4239 88.6702 64.133
79.1418 89.3174 62.8773
79.3921 89.3766 61.7572
82.3159 90.3251 61.7096
82.4288 90.0512 62.9161
80.5195 88.3447 66.263
79.9539 88.302 65.8102
80.7562 90.0978 60.5065
81.8427 90.388 60.9389
81.8757 91.5336 60.9818
84.1115 91.143 61.2907
83.2146 93.1005 61.1626
82.3367 88.4485 63.5574
81.5428 87.9121 65.3298
82.8043 87.949 64.6119
81.3655 86.7103 67.6641
84.0743 89.2662 62.8099
83.9355 88.3471 64.5118
83.4912 87.7879 65.68
78.5005 87.4791 65.8934
78.6037 87.9225 64.3099
78.7695 88.4468 65.6337
79.4771 87.7831 67.7046
79.0228 89.6457 68.0778
93.7593 108.074 68.7685
92.7437 106.78 68.7605
93.3324 106.844 70.0436
92.0232 104.724 68.4536
92.2239 105.738 67.285
93.6014 108.884 67.5408
94.9227 108.728 68.9367
94.5396 106.143 70.8709
93.1126 104.798 70.1501
92.6676 107.678 65.0839
93.2046 109.026 65.4262
92.3689 108.761 64.8622
93.3272 110.224 66.827
91.8609 106.389 65.5885
91.0307 108.479 64.9589
92.0796 110.266 65.0359
95.7872 109.243 70.5395
95.7481 107.875 71.3221
96.5031 108.839 71.8122
95.3672 106.268 72.1396
95.927 110.336 68.9078
97.159 109.816 72.2325
97.3585 108.646 73.6139
92.3739 103.213 68.8683
91.6857 103.055 67.8717
91.4085 101.747 68.5679
91.2394 103.053 67.0614
93.1926 103.417 70.2691
91.5976 100.947 69.103
90.4909 99.7452 68.1996
89.0102 102.718 65.0281
87.8869 102.062 65.4594
87.9025 100.534 64.7654
86.8745 101.316 65.4818
87.8805 103.798 65.629
90.5187 105.322 66.231
90.4117 103.417 65.5494
87.7781 99.3789 66.2245
86.5016 97.8578 65.3179
88.6583 105.345 65.5165
90.2295 106.139 65.2967
89.8513 107.318 64.7455
88.2729 105.456 64.3792
90.465 108.49 64.5851
89.7291 101.553 66.8897
88.6798 99.5911 66.785
89.4893 100.138 67.5942
87.5792 97.8209 66.6234
89.4397 99.1687 67.539
85.7639 97.0695 63.5815
85.5701 98.8368 64.4111
85.2172 97.1475 62.6051
86.0508 101.293 64.8412
85.7492 95.7105 63.9133
83.9864 95.11 61.9907
84.4114 96.8779 62.9757
86.7017 100.569 79.8627
85.6079 101.045 78.9147
85.9544 101.298 80.2984
84.0332 100.135 78.8655
85.0945 99.1206 78.5017
86.9952 99.4906 78.5971
88.08 99.9557 80.219
86.5147 100.794 81.0665
84.8293 101.254 80.6061
85.3452 98.0892 77.2444
86.5824 98.6094 77.0828
86.2913 97.8242 75.8782
87.7049 98.9088 78.1935
84.495 97.8859 76.8861
85.8136 96.2892 74.9256
86.5326 96.8732 75.9657
88.8083 102.003 81.3605
88.1659 101.998 82.0641
89.6346 102.699 82.1337
87.495 101.972 82.3776
89.5568 101.417 80.9135
91.2184 103.625 82.8326
90.1513 103.67 83.6068
83.6511 101.329 82.2409
83.4619 100.597 81.3333
82.6315 101.127 82.1843
83.183 99.8716 79.6646
84.4166 102.524 82.3517
82.5332 102.473 81.2317
81.8402 100.908 80.8469
82.3195 98.0566 76.0227
82.2965 95.8841 74.0772
81.8208 97.3429 74.8479
81.9764 93.946 72.3181
83.1977 94.7052 73.2347
82.8803 97.9246 77.1649
82.5903 99.3936 78.5254
81.4872 98.9192 75.5983
81.1261 96.9836 73.8425
83.9955 95.3235 74.0572
83.7906 96.6277 75.2721
84.8808 96.1369 74.7077
83.337 93.4899 72.918
85.1606 95.0081 73.8634
81.4438 99.1325 79.4271
81.1651 99.4131 78.2021
81.2556 99.4831 79.8584
81.0602 99.9856 76.5757
81.7416 101.03 79.6519
80.8477 94.7924 72.0053
81.2178 93.2552 71.5929
80.6012 93.1919 70.7191
80.9832 91.6323 70.8869
80.9737 97.1123 72.521
79.8778 92.6633 70.0576
79.5906 91.2033 69.3379
89.4314 113.452 70.269
88.0335 112.777 70.9092
88.0539 112.518 68.8903
86.6714 111.258 71.8374
87.7981 112.349 72.9439
90.6028 113.013 71.557
90.7596 113.762 69.5236
88.3004 110.956 67.7943
87.0117 110.593 68.341
88.7524 112.215 73.8993
90.1267 112.779 73.5139
89.8313 111.811 75.0745
91.6974 112.686 72.5849
87.3602 111.186 74.9829
89.6268 110.653 76.5472
90.698 110.484 75.6804
90.9487 113.41 67.8679
89.7274 112.134 67.1117
90.5785 111.762 66.2014
88.4768 110.136 66.1573
92.2748 113.754 68.6367
91.3651 111.118 65.6061
90.3634 110.079 64.9465
85.9704 109.512 69.3601
85.7956 109.834 70.8065
85.0685 107.821 70.196
85.589 109.555 72.5162
86.0509 108.223 67.7834
84.0516 106.171 69.1784
84.111 106.338 70.6853
84.9895 109.867 76.4597
84.4787 109.789 78.6502
83.4782 108.479 76.8318
84.4739 109.197 80.6581
85.9213 110.062 79.6188
86.2629 111.162 75.9169
85.5914 110.312 74.5988
83.5536 106.893 75.2062
82.9748 106.797 77.1811
87.2558 110.388 78.3923
87.3102 111.087 77.1041
88.4192 110.603 77.3792
86.9266 109.484 80.6072
89.3155 109.46 78.1983
84.5632 108.683 73.6469
84.0347 107.051 73.8501
84.3605 106.671 72.4288
82.2146 105.612 73.827
83.1619 105.287 71.0043
82.8177 106.525 78.8839
83.6357 107.558 80.3519
82.5507 105.442 80.064
84.5575 107.648 82.0914
82.1741 104.859 77.3289
81.745 102.875 79.6039
82.3195 103.894 80.8777
89.3741 97.9322 69.2929
88.4948 99.0671 70.3853
88.6783 97.5915 67.9362
89.4917 99.9618 70.4251
90.0991 99.6674 71.5553
88.5892 96.5295 71.0065
87.2082 95.1106 68.9543
86.8954 94.7096 66.0714
87.3089 97.3744 67.6032
90.752 97.9663 72.2113
90.0028 96.5408 71.227
90.4088 97.1328 73.0391
89.2984 95.7431 71.4664
91.6261 99.7855 73.0856
91.139 98.8843 74.2125
90.3885 97.6937 73.4579
86.0236 93.1802 66.4345
86.076 92.9721 65.566
85.2788 91.8207 65.338
86.1689 91.7669 64.5493
86.3174 94.5036 67.6847
84.4589 91.0754 65.9659
84.6016 89.6762 65.5239
87.7875 98.1695 68.8563
88.914 99.1286 69.6121
89.5394 98.8185 67.9803
91.1878 100.335 70.386
87.1608 96.5109 66.8868
89.9156 99.1619 66.6869
91.1213 99.7035 68.0052
87.7597 96.4139 71.8389
87.1536 98.2485 71.6787
85.9669 95.1578 71.4249
86.5672 96.8019 70.3847
87.7862 98.0671 71.7844
88.3362 96.8202 73.6915
87.528 96.7736 73.1974
84.8913 94.0917 71.1037
84.3931 91.2157 70.0978
88.9117 95.9368 73.0027
89.3479 96.5661 74.1411
90.0707 97.3617 73.5456
89.4742 97.7269 74.8408
90.6254 98.7466 74.4463
86.6534 96.3854 72.5091
85.7898 95.9063 71.2806
85.6202 94.858 73.8733
83.9453 91.5451 72.172
87.6931 97.2621 74.3079
85.9868 95.3956 75.565
84.8537 93.9278 74.62
84.4425 90.5734 68.6491
85.372 93.3857 68.8276
84.6193 91.3825 67.2193
83.3358 88.5242 69.7528
83.8466 89.2306 66.8404
94.4826 109.853 71.3873
93.6456 111.201 70.3613
94.8568 110.492 70.017
93.1276 113.019 69.6746
92.8798 112.125 71.5672
93.7198 108.68 73.4709
95.0604 109.325 73.302
95.6496 110.606 69.3343
94.5457 111.277 67.9657
92.2697 110.907 73.2625
92.5207 108.561 73.6979
91.8293 109.794 74.7701
96.8117 111.152 73.3065
96.7309 110.306 71.3498
97.6272 111.365 72.4536
93.3157 111.393 66.9407
92.7479 112.748 67.6516
92.3557 111.817 66.0755
86.1457 105.998 65.4127
85.2776 103.885 65.3872
86.0958 104.315 64.6051
84.1242 101.31 65.1238
84.4154 102.336 66.2001
85.9664 106.858 66.6571
87.2144 108.15 65.8736
87.109 104.861 64.9294
86.0337 102.603 65.2484
84.2351 103.801 66.9424
84.9458 106.178 67.1454
84.3401 104.927 68.0226
88.2068 108.438 65.0634
88.1585 106.886 64.375
89.2458 108.544 64.6138
85.1644 100.444 64.3693
84.2724 99.9841 63.8932
84.1793 98.0432 64.0475
94.5002 103.277 74.0533
94.501 103.432 72.706
93.4226 102.087 73.0521
93.8649 103.615 71.4801
94.8512 105.098 72.2063
95.7446 103.665 74.3008
94.2781 102.901 75.1292
92.3495 100.698 72.9043
92.7328 100.92 71.7545
95.7735 105.705 73.8715
96.3531 105.291 75.2096
96.9329 106.84 74.3263
93.4835 101.958 75.319
92.4982 100.705 74.0177
92.253 100.558 74.6291
92.2371 100.604 70.6884
93.1159 101.896 70.6319
92.1387 100.445 69.5959
86.2997 93.5586 62.9437
85.8882 91.7575 61.912
86.4735 92.5858 62.4988
84.8964 89.9981 61.4272
84.7083 90.9475 61.6766
86.1848 95.0649 63.1602
86.7604 96.4368 64.4829
87.0206 94.7348 64.2196
87.0169 91.3474 62.7917
84.5124 92.5197 62.0559
85.0734 93.9955 62.4811
83.8197 92.9299 61.549
87.9617 96.7741 64.8945
87.8079 96.2701 65.2877
89.0287 97.6266 65.5451
86.8312 89.73 63.2328
85.8155 89.61 62.6993
85.2306 89.0883 63.9725
87.738 103.979 81.5679
86.8905 103.699 82.4835
86.3124 105.808 82.4228
85.6175 103.875 83.3447
87.4587 102.768 82.7405
89.3986 104.273 82.1668
89.0232 104.795 80.9026
86.8577 107.795 81.836
85.3843 107.525 83.356
89.1403 103.153 82.8382
89.8419 104.615 84.6132
90.0588 104.876 84.8222
88.5754 104.98 79.3632
88.1774 107.986 80.5806
89.1388 107.608 79.1169
84.0342 105.767 82.9275
84.0149 104.064 83.2167
83.0613 104.18 82.2664
80.6608 100.221 73.4792
80.9789 100.142 72.2038
81.205 101.903 73.6573
81.2266 99.9448 70.7443
81.2025 98.0273 70.4655
80.7388 98.6051 72.989
80.743 99.8866 74.8938
81.383 103.499 75.4462
81.8377 103.722 73.8107
80.613 96.0143 70.1502
80.9984 97.1264 71.4895
81.0199 94.6222 70.1315
80.9861 101.054 76.7185
81.5809 102.879 76.7939
81.152 101.878 78.343
82.0792 103.697 72.3698
81.3182 101.827 70.7898
82.4269 103.408 71.112
89.9567 99.7391 78.807
90.8136 100.397 78.7099
89.908 98.7501 77.679
91.8275 100.839 78.4759
91.7043 100.983 79.945
89.6802 100.639 80.095
88.8438 99.4476 78.7217
88.8911 97.8525 76.3506
89.7578 98.6435 75.9701
91.8899 101.838 81.1056
90.9217 101.649 81.0456
91.5708 102.758 81.8391
88.2177 97.8615 77.6598
88.0342 96.9429 76.1288
87.253 96.4901 76.4797
90.5273 98.9126 76.0913
91.5615 100.087 77.3957
91.1724 99.3338 75.9946
81.0744 86.9346 70.8001
81.3403 89.087 71.284
81.8653 87.4934 71.3799
81.6796 91.077 72.4184
80.9884 90.4055 71.3798
80.4581 87.2998 69.2487
80.9635 86.2181 69.3192
82.7938 87.3238 71.2544
82.7946 89.1888 72.0599
80.2944 89.748 69.6999
80.1324 88.7475 68.3287
79.6504 89.516 68.6886
82.1909 86.4196 68.7341
82.9964 86.4808 69.6074
83.1376 86.6161 67.5992
83.0535 90.9644 73.0776
82.8621 91.3687 73.1337
83.9409 92.7805 73.4256
POLYGONS 1280  5120
3 164 162 163
3 163 44 164
3 162 43 163
3 164 42 162
3 166 165 163
3 163 43 166
3 165 44 163
3 166 14 165
3 168 167 162
3 162 42 168
3 167 43 162
3 168 13 167
3 170 169 164
3 164 44 170
3 169 42 164
3 170 12 169
3 173 171 172
3 172 46 173
3 171 43 172
3 173 45 171
3 167 174 172
3 172 43 167
3 174 46 172
3 167 13 174
3 175 166 171
3 171 45 175
3 166 43 171
3 175 14 166
3 177 176 173
3 173 46 177
3 176 45 173
3 177 4 176
3 180 178 179
3 179 48 180
3 178 42 179
3 180 47 178
3 169 181 179
3 179 42 169
3 181 48 179
3 169 12 181
3 182 168 178
3 178 47 182
3 168 42 178
3 182 13 168
3 184 183 180
3 180 48 184
3 183 47 180
3 184 8 183
3 187 185 186
3 186 50 187
3 185 44 186
3 187 49 185
3 165 188 186
3 186 44 165
3 188 50 186
3 165 14 188
3 189 170 185
3 185 49 189
3 170 44 185
3 189 12 170
3 191 190 187
3 187 50 191
3 190 49 187
3 191 7 190
3 194 192 193
3 193 53 194
3 192 52 193
3 194 51 192
3 196 195 193
3 193 52 196
3 195 53 193
3 196 16 195
3 198 197 192
3 192 51 198
3 197 52 192
3 198 14 197
3 200 199 194
3 194 53 200
3 199 51 194
3 200 15 199
3 203 201 202
3 202 45 203
3 201 52 202
3 203 54 201
3 197 175 202
3 202 52 197
3 175 45 202
3 197 14 175
3 204 196 201
3 201 54 204
3 196 52 201
3 204 16 196
3 176 205 203
3 203 45 176
3 205 54 203
3 176 4 205
3 208 206 207
3 207 55 208
3 206 51 207
3 208 50 206
3 199 209 207
3 207 51 199
3 209 55 207
3 199 15 209
3 188 198 206
3 206 50 188
3 198 51 206
3 188 14 198
3 210 191 208
3 208 55 210
3 191 50 208
3 210 7 191
3 213 211 212
3 212 57 213
3 211 53 212
3 213 56 211
3 195 214 212
3 212 53 195
3 214 57 212
3 195 16 214
3 215 200 211
3 211 56 215
3 200 53 211
3 215 15 200
3 217 216 213
3 213 57 217
3 216 56 213
3 217 9 216
3 220 218 219
3 219 60 220
3 218 59 219
3 220 58 218
3 222 221 219
3 219 59 222
3 221 60 219
3 222 19 221
3 224 223 218
3 218 58 224
3 223 59 218
3 224 18 223
3 226 225 220
3 220 60 226
3 225 58 220
3 226 17 225
3 229 227 228
3 228 62 229
3 227 59 228
3 229 61 227
3 223 230 228
3 228 59 223
3 230 62 228
3 223 18 230
3 231 222 227
3 227 61 231
3 222 59 227
3 231 19 222
3 233 232 229
3 229 62 233
3 232 61 229
3 233 5 232
3 236 234 235
3 235 64 236
3 234 58 235
3 236 63 234
3 225 237 235
3 235 58 225
3 237 64 235
3 225 17 237
3 238 224 234
3 234 63 238
3 224 58 234
3 238 18 224
3 240 239 236
3 236 64 240
3 239 63 236
3 240 6 239
3 243 241 242
3 242 66 243
3 241 60 242
3 243 65 241
3 221 244 242
3 242 60 221
3 244 66 242
3 221 19 244
3 245 226 241
3 241 65 245
3 226 60 241
3 245 17 226
3 247 246 243
3 243 66 247
3 246 65 243
3 247 11 246
3 250 248 249
3 249 69 250
3 248 68 249
3 250 67 248
3 252 251 249
3 249 68 252
3 251 69 249
3 252 18 251
3 254 253 248
3 248 67 254
3 253 68 248
3 254 21 253
3 256 255 250
3 250 69 256
3 255 67 250
3 256 20 255
3 259 257 258
3 258 70 259
3 257 68 258
3 259 62 257
3 253 260 258
3 258 68 253
3 260 70 258
3 253 21 260
3 230 252 257
3 257 62 230
3 252 68 257
3 230 18 252
3 261 233 259
3 259 70 261
3 233 62 259
3 261 5 233
3 264 262 263
3 263 72 264
3 262 67 263
3 264 71 262
3 255 265 263
3 263 67 255
3 265 72 263
3 255 20 265
3 266 254 262
3 262 71 266
3 254 67 262
3 266 21 254
3 268 267 264
3 264 72 268
3 267 71 264
3 268 10 267
3 271 269 270
3 270 63 271
3 269 69 270
3 271 73 269
3 251 238 270
3 270 69 251
3 238 63 270
3 251 18 238
3 272 256 269
3 269 73 272
3 256 69 269
3 272 20 256
3 239 273 271
3 271 63 239
3 273 73 271
3 239 6 273
3 276 274 275
3 275 76 276
3 274 75 275
3 276 74 274
3 278 277 275
3 275 75 278
3 277 76 275
3 278 24 277
3 280 279 274
3 274 74 280
3 279 75 274
3 280 23 279
3 282 281 276
3 276 76 282
3 281 74 276
3 282 22 281
3 285 283 284
3 284 78 285
3 283 75 284
3 285 77 283
3 279 286 284
3 284 75 279
3 286 78 284
3 279 23 286
3 287 278 283
3 283 77 287
3 278 75 283
3 287 24 278
3 289 288 285
3 285 78 289
3 288 77 285
3 289 0 288
3 292 290 291
3 291 80 292
3 290 74 291
3 292 79 290
3 281 293 291
3 291 74 281
3 293 80 291
3 281 22 293
3 294 280 290
3 290 79 294
3 280 74 290
3 294 23 280
3 296 295 292
3 292 80 296
3 295 79 292
3 296 4 295
3 299 297 298
3 298 82 299
3 297 76 298
3 299 81 297
3 277 300 298
3 298 76 277
3 300 82 298
3 277 24 300
3 301 282 297
3 297 81 301
3 282 76 297
3 301 22 282
3 303 302 299
3 299 82 303
3 302 81 299
3 303 3 302
3 306 304 305
3 305 85 306
3 304 84 305
3 306 83 304
3 308 307 305
3 305 84 308
3 307 85 305
3 308 26 307
3 310 309 304
3 304 83 310
3 309 84 304
3 310 24 309
3 312 311 306
3 306 85 312
3 311 83 306
3 312 25 311
3 315 313 314
3 314 77 315
3 313 84 314
3 315 86 313
3 309 287 314
3 314 84 309
3 287 77 314
3 309 24 287
3 316 308 313
3 313 86 316
3 308 84 313
3 316 26 308
3 288 317 315
3 315 77 288
3 317 86 315
3 288 0 317
3 320 318 319
3 319 87 320
3 318 83 319
3 320 82 318
3 311 321 319
3 319 83 311
3 321 87 319
3 311 25 321
3 300 310 318
3 318 82 300
3 310 83 318
3 300 24 310
3 322 303 320
3 320 87 322
3 303 82 320
3 322 3 303
3 325 323 324
3 324 89 325
3 323 85 324
3 325 88 323
3 307 326 324
3 324 85 307
3 326 89 324
3 307 26 326
3 327 312 323
3 323 88 327
3 312 85 323
3 327 25 312
3 329 328 325
3 325 89 329
3 328 88 325
3 329 5 328
3 332 330 331
3 331 92 332
3 330 91 331
3 332 90 330
3 334 333 331
3 331 91 334
3 333 92 331
3 334 29 333
3 336 335 330
3 330 90 336
3 335 91 330
3 336 28 335
3 338 337 332
3 332 92 338
3 337 90 332
3 338 27 337
3 341 339 340
3 340 94 341
3 339 91 340
3 341 93 339
3 335 342 340
3 340 91 335
3 342 94 340
3 335 28 342
3 343 334 339
3 339 93 343
3 334 91 339
3 343 29 334
3 345 344 341
3 341 94 345
3 344 93 341
3 345 2 344
3 348 346 347
3 347 96 348
3 346 90 347
3 348 95 346
3 337 349 347
3 347 90 337
3 349 96 347
3 337 27 349
3 350 336 346
3 346 95 350
3 336 90 346
3 350 28 336
3 352 351 348
3 348 96 352
3 351 95 348
3 352 7 351
3 355 353 354
3 354 98 355
3 353 92 354
3 355 97 353
3 333 356 354
3 354 92 333
3 356 98 354
3 333 29 356
3 357 338 353
3 353 97 357
3 338 92 353
3 357 27 338
3 359 358 355
3 355 98 359
3 358 97 355
3 359 1 358
3 362 360 361
3 361 101 362
3 360 100 361
3 362 99 360
3 364 363 361
3 361 100 364
3 363 101 361
3 364 31 363
3 366 365 360
3 360 99 366
3 365 100 360
3 366 29 365
3 368 367 362
3 362 101 368
3 367 99 362
3 368 30 367
3 371 369 370
3 370 93 371
3 369 100 370
3 371 102 369
3 365 343 370
3 370 100 365
3 343 93 370
3 365 29 343
3 372 364 369
3 369 102 372
3 364 100 369
3 372 31 364
3 344 373 371
3 371 93 344
3 373 102 371
3 344 2 373
3 376 374 375
3 375 103 376
3 374 99 375
3 376 98 374
3 367 377 375
3 375 99 367
3 377 103 375
3 367 30 377
3 356 366 374
3 374 98 356
3 366 99 374
3 356 29 366
3 378 359 376
3 376 103 378
3 359 98 376
3 378 1 359
3 381 379 380
3 380 105 381
3 379 101 380
3 381 104 379
3 363 382 380
3 380 101 363
3 382 105 380
3 363 31 382
3 383 368 379
3 379 104 383
3 368 101 379
3 383 30 368
3 385 384 381
3 381 105 385
3 384 104 381
3 385 6 384
3 388 386 387
3 387 108 388
3 386 107 387
3 388 106 386
3 390 389 387
3 387 107 390
3 389 108 387
3 390 34 389
3 392 391 386
3 386 106 392
3 391 107 386
3 392 33 391
3 394 393 388
3 388 108 394
3 393 106 388
3 394 32 393
3 397 395 396
3 396 110 397
3 395 107 396
3 397 109 395
3 391 398 396
3 396 107 391
3 398 110 396
3 391 33 398
3 399 390 395
3 395 109 399
3 390 107 395
3 399 34 390
3 401 400 397
3 397 110 401
3 400 109 397
3 401 8 400
3 404 402 403
3 403 112 404
3 402 106 403
3 404 111 402
3 393 405 403
3 403 106 393
3 405 112 403
3 393 32 405
3 406 392 402
3 402 111 406
3 392 106 402
3 406 33 392
3 408 407 404
3 404 112 408
3 407 111 404
3 408 0 407
3 411 409 410
3 410 114 411
3 409 108 410
3 411 113 409
3 389 412 410
3 410 108 389
3 412 114 410
3 389 34 412
3 413 394 409
3 409 113 413
3 394 108 409
3 413 32 394
3 415 414 411
3 411 114 415
3 414 113 411
3 415 11 414
3 418 416 417
3 417 117 418
3 416 116 417
3 418 115 416
3 420 419 417
3 417 116 420
3 419 117 417
3 420 36 419
3 422 421 416
3 416 115 422
3 421 116 416
3 422 34 421
3 424 423 418
3 418 117 424
3 423 115 418
3 424 35 423
3 427 425 426
3 426 109 427
3 425 116 426
3 427 118 425
3 421 399 426
3 426 116 421
3 399 109 426
3 421 34 399
3 428 420 425
3 425 118 428
3 420 116 425
3 428 36 420
3 400 429 427
3 427 109 400
3 429 118 427
3 400 8 429
3 432 430 431
3 431 119 432
3 430 115 431
3 432 114 430
3 423 433 431
3 431 115 423
3 433 119 431
3 423 35 433
3 412 422 430
3 430 114 412
3 422 115 430
3 412 34 422
3 434 415 432
3 432 119 434
3 415 114 432
3 434 11 415
3 437 435 436
3 436 121 437
3 435 117 436
3 437 120 435
3 419 438 436
3 436 117 419
3 438 121 436
3 419 36 438
3 439 424 435
3 435 120 439
3 424 117 435
3 439 35 424
3 441 440 437
3 437 121 441
3 440 120 437
3 441 1 440
3 444 442 443
3 443 124 444
3 442 123 443
3 444 122 442
3 446 445 443
3 443 123 446
3 445 124 443
3 446 39 445
3 448 447 442
3 442 122 448
3 447 123 442
3 448 38 447
3 450 449 444
3 444 124 450
3 449 122 444
3 450 37 449
3 453 451 452
3 452 126 453
3 451 123 452
3 453 125 451
3 447 454 452
3 452 123 447
3 454 126 452
3 447 38 454
3 455 446 451
3 451 125 455
3 446 123 451
3 455 39 446
3 457 456 453
3 453 126 457
3 456 125 453
3 457 9 456
3 460 458 459
3 459 128 460
3 458 122 459
3 460 127 458
3 449 461 459
3 459 122 449
3 461 128 459
3 449 37 461
3 462 448 458
3 458 127 462
3 448 122 458
3 462 38 448
3 464 463 460
3 460 128 464
3 463 127 460
3 464 10 463
3 467 465 466
3 466 130 467
3 465 124 466
3 467 129 465
3 445 468 466
3 466 124 445
3 468 130 466
3 445 39 468
3 469 450 465
3 465 129 469
3 450 124 465
3 469 37 450
3 471 470 467
3 467 130 471
3 470 129 467
3 471 3 470
3 474 472 473
3 473 133 474
3 472 132 473
3 474 131 472
3 476 475 473
3 473 132 476
3 475 133 473
3 476 38 475
3 478 477 472
3 472 131 478
3 477 132 472
3 478 41 477
3 480 479 474
3 474 133 480
3 479 131 474
3 480 40 479
3 483 481 482
3 482 134 483
3 481 132 482
3 483 126 481
3 477 484 482
3 482 132 477
3 484 134 482
3 477 41 484
3 454 476 481
3 481 126 454
3 476 132 481
3 454 38 476
3 485 457 483
3 483 134 485
3 457 126 483
3 485 9 457
3 488 486 487
3 487 136 488
3 486 131 487
3 488 135 486
3 479 489 487
3 487 131 479
3 489 136 487
3 479 40 489
3 490 478 486
3 486 135 490
3 478 131 486
3 490 41 478
3 492 491 488
3 488 136 492
3 491 135 488
3 492 2 491
3 495 493 494
3 494 127 495
3 493 133 494
3 495 137 493
3 475 462 494
3 494 133 475
3 462 127 494
3 475 38 462
3 496 480 493
3 493 137 496
3 480 133 493
3 496 40 480
3 463 497 495
3 495 127 463
3 497 137 495
3 463 10 497
3 500 498 499
3 499 140 500
3 498 139 499
3 500 138 498
3 502 501 499
3 499 139 502
3 501 140 499
3 502 33 501
3 504 503 498
3 498 138 504
3 503 139 498
3 504 13 503
3 506 505 500
3 500 140 506
3 505 138 500
3 506 23 505
3 509 507 508
3 508 47 509
3 507 139 508
3 509 110 507
3 503 182 508
3 508 139 503
3 182 47 508
3 503 13 182
3 398 502 507
3 507 110 398
3 502 139 507
3 398 33 502
3 183 401 509
3 509 47 183
3 401 110 509
3 183 8 401
3 512 510 511
3 511 79 512
3 510 138 511
3 512 46 510
3 505 294 511
3 511 138 505
3 294 79 511
3 505 23 294
3 174 504 510
3 510 46 174
3 504 138 510
3 174 13 504
3 295 177 512
3 512 79 295
3 177 46 512
3 295 4 177
3 515 513 514
3 514 111 515
3 513 140 514
3 515 78 513
3 501 406 514
3 514 140 501
3 406 111 514
3 501 33 406
3 286 506 513
3 513 78 286
3 506 140 513
3 286 23 506
3 407 289 515
3 515 111 407
3 289 78 515
3 407 0 289
3 518 516 517
3 517 143 518
3 516 142 517
3 518 141 516
3 520 519 517
3 517 142 520
3 519 143 517
3 520 19 519
3 522 521 516
3 516 141 522
3 521 142 516
3 522 32 521
3 524 523 518
3 518 143 524
3 523 141 518
3 524 26 523
3 527 525 526
3 526 113 527
3 525 142 526
3 527 66 525
3 521 413 526
3 526 142 521
3 413 113 526
3 521 32 413
3 244 520 525
3 525 66 244
3 520 142 525
3 244 19 520
3 414 247 527
3 527 113 414
3 247 66 527
3 414 11 247
3 530 528 529
3 529 86 530
3 528 141 529
3 530 112 528
3 523 316 529
3 529 141 523
3 316 86 529
3 523 26 316
3 405 522 528
3 528 112 405
3 522 141 528
3 405 32 522
3 317 408 530
3 530 86 317
3 408 112 530
3 317 0 408
3 533 531 532
3 532 61 533
3 531 143 532
3 533 89 531
3 519 231 532
3 532 143 519
3 231 61 532
3 519 19 231
3 326 524 531
3 531 89 326
3 524 143 531
3 326 26 524
3 232 329 533
3 533 61 232
3 329 89 533
3 232 5 329
3 536 534 535
3 535 146 536
3 534 145 535
3 536 144 534
3 538 537 535
3 535 145 538
3 537 146 535
3 538 22 537
3 540 539 534
3 534 144 540
3 539 145 534
3 540 16 539
3 542 541 536
3 536 146 542
3 541 144 536
3 542 39 541
3 545 543 544
3 544 54 545
3 543 145 544
3 545 80 543
3 539 204 544
3 544 145 539
3 204 54 544
3 539 16 204
3 293 538 543
3 543 80 293
3 538 145 543
3 293 22 538
3 205 296 545
3 545 54 205
3 296 80 545
3 205 4 296
3 548 546 547
3 547 125 548
3 546 144 547
3 548 57 546
3 541 455 547
3 547 144 541
3 455 125 547
3 541 39 455
3 214 540 546
3 546 57 214
3 540 144 546
3 214 16 540
3 456 217 548
3 548 125 456
3 217 57 548
3 456 9 217
3 551 549 550
3 550 81 551
3 549 146 550
3 551 130 549
3 537 301 550
3 550 146 537
3 301 81 550
3 537 22 301
3 468 542 549
3 549 130 468
3 542 146 549
3 468 39 542
3 302 471 551
3 551 81 302
3 471 130 551
3 302 3 471
3 554 552 553
3 553 149 554
3 552 148 553
3 554 147 552
3 556 555 553
3 553 148 556
3 555 149 553
3 556 21 555
3 558 557 552
3 552 147 558
3 557 148 552
3 558 25 557
3 560 559 554
3 554 149 560
3 559 147 554
3 560 37 559
3 563 561 562
3 562 88 563
3 561 148 562
3 563 70 561
3 557 327 562
3 562 148 557
3 327 88 562
3 557 25 327
3 260 556 561
3 561 70 260
3 556 148 561
3 260 21 556
3 328 261 563
3 563 88 328
3 261 70 563
3 328 5 261
3 566 564 565
3 565 129 566
3 564 147 565
3 566 87 564
3 559 469 565
3 565 147 559
3 469 129 565
3 559 37 469
3 321 558 564
3 564 87 321
3 558 147 564
3 321 25 558
3 470 322 566
3 566 129 470
3 322 87 566
3 470 3 322
3 569 567 568
3 568 71 569
3 567 149 568
3 569 128 567
3 555 266 568
3 568 149 555
3 266 71 568
3 555 21 266
3 461 560 567
3 567 128 461
3 560 149 567
3 461 37 560
3 267 464 569
3 569 71 267
3 464 128 569
3 267 10 464
3 572 570 571
3 571 152 572
3 570 151 571
3 572 150 570
3 574 573 571
3 571 151 574
3 573 152 571
3 574 27 573
3 576 575 570
3 570 150 576
3 575 151 570
3 576 12 575
3 578 577 572
3 572 152 578
3 577 150 572
3 578 36 577
3 581 579 580
3 580 49 581
3 579 151 580
3 581 96 579
3 575 189 580
3 580 151 575
3 189 49 580
3 575 12 189
3 349 574 579
3 579 96 349
3 574 151 579
3 349 27 574
3 190 352 581
3 581 49 190
3 352 96 581
3 190 7 352
3 584 582 583
3 583 118 584
3 582 150 583
3 584 48 582
3 577 428 583
3 583 150 577
3 428 118 583
3 577 36 428
3 181 576 582
3 582 48 181
3 576 150 582
3 181 12 576
3 429 184 584
3 584 118 429
3 184 48 584
3 429 8 184
3 587 585 586
3 586 97 587
3 585 152 586
3 587 121 585
3 573 357 586
3 586 152 573
3 357 97 586
3 573 27 357
3 438 578 585
3 585 121 438
3 578 152 585
3 438 36 578
3 358 441 587
3 587 97 358
3 441 121 587
3 358 1 441
3 590 588 589
3 589 155 590
3 588 154 589
3 590 153 588
3 592 591 589
3 589 154 592
3 591 155 589
3 592 17 591
3 594 593 588
3 588 153 594
3 593 154 588
3 594 30 593
3 596 595 590
3 590 155 596
3 595 153 590
3 596 35 595
3 599 597 598
3 598 104 599
3 597 154 598
3 599 64 597
3 593 383 598
3 598 154 593
3 383 104 598
3 593 30 383
3 237 592 597
3 597 64 237
3 592 154 597
3 237 17 592
3 384 240 599
3 599 104 384
3 240 64 599
3 384 6 240
3 602 600 601
3 601 120 602
3 600 153 601
3 602 103 600
3 595 439 601
3 601 153 595
3 439 120 601
3 595 35 439
3 377 594 600
3 600 103 377
3 594 153 600
3 377 30 594
3 440 378 602
3 602 120 440
3 378 103 602
3 440 1 378
3 605 603 604
3 604 65 605
3 603 155 604
3 605 119 603
3 591 245 604
3 604 155 591
3 245 65 604
3 591 17 245
3 433 596 603
3 603 119 433
3 596 155 603
3 433 35 596
3 246 434 605
3 605 65 246
3 434 119 605
3 246 11 434
3 608 606 607
3 607 158 608
3 606 157 607
3 608 156 606
3 610 609 607
3 607 157 610
3 609 158 607
3 610 15 609
3 612 611 606
3 606 156 612
3 611 157 606
3 612 28 611
3 614 613 608
3 608 158 614
3 613 156 608
3 614 41 613
3 617 615 616
3 616 95 617
3 615 157 616
3 617 55 615
3 611 350 616
3 616 157 611
3 350 95 616
3 611 28 350
3 209 610 615
3 615 55 209
3 610 157 615
3 209 15 610
3 351 210 617
3 617 95 351
3 210 55 617
3 351 7 210
3 620 618 619
3 619 135 620
3 618 156 619
3 620 94 618
3 613 490 619
3 619 156 613
3 490 135 619
3 613 41 490
3 342 612 618
3 618 94 342
3 612 156 618
3 342 28 612
3 491 345 620
3 620 135 491
3 345 94 620
3 491 2 345
3 623 621 622
3 622 56 623
3 621 158 622
3 623 134 621
3 609 215 622
3 622 158 609
3 215 56 622
3 609 15 215
3 484 614 621
3 621 134 484
3 614 158 621
3 484 41 614
3 216 485 623
3 623 56 216
3 485 134 623
3 216 9 485
3 626 624 625
3 625 161 626
3 624 160 625
3 626 159 624
3 628 627 625
3 625 160 628
3 627 161 625
3 628 31 627
3 630 629 624
3 624 159 630
3 629 160 624
3 630 20 629
3 632 631 626
3 626 161 632
3 631 159 626
3 632 40 631
3 635 633 634
3 634 73 635
3 633 160 634
3 635 105 633
3 629 272 634
3 634 160 629
3 272 73 634
3 629 20 272
3 382 628 633
3 633 105 382
3 628 160 633
3 382 31 628
3 273 385 635
3 635 73 273
3 385 105 635
3 273 6 385
3 638 636 637
3 637 137 638
3 636 159 637
3 638 72 636
3 631 496 637
3 637 159 631
3 496 137 637
3 631 40 496
3 265 630 636
3 636 72 265
3 630 159 636
3 265 20 630
3 497 268 638
3 638 137 497
3 268 72 638
3 497 10 268
3 641 639 640
3 640 102 641
3 639 161 640
3 641 136 639
3 627 372 640
3 640 161 627
3 372 102 640
3 627 31 372
3 489 632 639
3 639 136 489
3 632 161 639
3 489 40 632
3 373 492 641
3 641 102 373
3 492 136 641
3 373 2 492
