# vtk DataFile Version 3.0
this file was written using fslvtkio
ASCII
DATASET POLYDATA
POINTS 642 float
111.448 127.737 85.9169
98.0952 129.048 85.1461
101.523 116.089 87.0575
115.746 115.242 86.5352
112.572 121.551 93.5194
110.369 121.522 81.2302
101.88 122.511 80.5037
102.514 121.711 93.3513
105.584 133.112 89.1714
108.96 112.246 91.088
109.386 110.013 82.3647
104.611 134.715 78.8268
103.679 127.983 92.3709
109.714 128.493 92.4797
107.94 121.585 94.8922
105.674 116.053 93.2056
111.701 115.524 93.9226
101.784 129.779 78.3224
106.463 121.278 80.0341
106.778 127.855 80.8057
105.899 115.276 81.8532
111.332 115.298 81.1045
115.177 117.441 90.8468
112.573 125.635 89.9397
114.317 121.04 86.5123
114.151 117.371 83.0899
110.972 124.881 83.2058
99.6594 126.03 89.9657
101.279 118.508 90.4454
98.3311 122.311 86.2716
98.722 126.912 81.3142
100.39 118.088 83.1507
108.174 131.699 82.9335
109.866 132.898 87.5952
104.08 136.415 83.5732
99.6792 134.234 80.1552
100.794 132.328 87.2144
116.052 110.889 82.8256
109.662 108.53 87.0456
113.718 112.325 89.2425
104.415 111.146 85.0588
104.378 111.869 89.8154
106.795 128.198 93.0292
108.839 125.133 94.3922
105.815 124.756 93.9368
110.532 121.377 94.9448
111.182 125.214 93.1996
107.806 131.146 91.2859
104.659 130.64 90.817
102.882 124.917 93.2618
105.062 121.456 94.525
106.68 118.569 94.6992
109.777 118.314 94.9032
108.61 115.674 94.0861
112.501 118.273 93.9778
103.957 118.704 93.527
107.222 113.768 92.5111
110.26 113.577 92.8988
104.068 125.907 79.5274
106.3 124.83 80.3203
104.64 128.912 79.0281
108.354 124.486 81.4417
108.466 121.56 80.337
104.223 122.262 80.2869
101.745 126.194 79.2016
103.405 132.36 78.0468
105.643 131.132 79.9006
108.492 115.101 80.9773
108.905 118.112 80.4105
105.976 118.381 80.6238
110.998 118.55 80.7222
110.498 112.689 80.8972
107.165 112.486 81.7135
103.791 118.834 81.3187
114.113 121.462 90.4046
113.343 122.989 88.4098
115.191 119.602 88.6659
112.524 124.177 86.4427
112.158 126.63 87.9211
112.84 123.643 91.7515
114.026 119.558 92.2424
115.725 116.247 88.7904
115.59 118.365 86.368
114.819 119.765 84.373
112.486 122.7 84.9614
113.05 121.178 83.1036
111.316 126.404 84.4406
115.295 116.187 84.4089
112.669 119.8 81.7437
110.507 123.094 82.4476
99.8788 122.168 90.4099
99.1468 120.243 88.7395
98.4336 123.991 88.3696
99.3121 118.916 86.7895
101.117 117.192 88.8005
101.705 119.98 92.0718
100.921 123.978 91.8653
98.4717 127.508 87.7844
98.003 125.664 85.8221
98.4781 124.478 83.7371
99.2359 120.373 84.54
99.3855 122.44 82.3898
100.672 116.964 85.1565
98.073 127.923 83.1703
99.7752 124.606 80.3384
100.999 120.133 81.6109
109.138 133.155 84.86
107.397 135.677 85.7242
106.657 135.431 82.5308
104.634 134.974 86.5563
108.126 133.745 88.8751
110.843 130.406 86.6012
110.05 129.795 84.4297
106.544 132.967 81.0983
103.878 136.285 80.5314
101.533 135.954 81.2608
102.118 134.515 84.8595
99.7597 133.538 83.6644
103.01 132.788 88.1904
101.516 135.106 77.9756
98.5777 131.639 82.9856
99.0104 130.869 86.3518
113.473 108.621 85.0851
112.108 109.525 88.5099
114.943 110.661 86.3257
111.342 111.956 90.4146
109.185 110.022 89.4841
109.494 108.586 84.5342
113.059 110.273 81.8763
115.968 113.009 84.9601
115.544 113.448 88.1752
104.045 110.674 87.6318
106.742 109.484 88.64
106.621 108.616 86.1581
106.546 111.809 90.6148
102.684 113.614 88.6351
102.813 113.472 86.2392
106.461 110.287 83.4752
111.757 127.402 91.3284
110.057 130.98 90.1819
111.518 129.452 88.724
109.78 128.526 82.9668
107.586 129.852 81.6691
108.968 126.638 82.0316
112.817 113.546 91.9907
113.961 116.189 92.7267
115.042 114.33 90.5529
115.446 113.961 82.686
112.713 116.797 81.989
113.625 112.953 80.8144
101.91 130.484 90.327
101.167 127.381 91.6077
99.894 129.462 88.8545
98.6043 130.654 80.9896
99.6512 128.206 79.2549
100.201 132.532 78.3488
102.857 115.203 90.1807
103.297 116.865 92.0963
104.795 114.015 91.4957
104.702 113.243 83.2099
103.094 116.888 82.522
102.633 115.094 84.3283
107.768 126.654 93.8213
107.267 125.019 94.209
106.258 126.506 93.5166
106.949 123.252 94.5416
108.288 123.519 94.7727
109.185 126.847 93.6143
108.327 128.271 93.1104
105.363 127.962 92.6009
104.882 126.494 93.1096
109.645 123.404 94.7627
110.082 125.247 93.9682
110.721 123.515 94.2594
110.457 126.915 93.0185
109.216 121.648 95.0344
111.591 121.634 94.4021
111.635 123.29 93.5268
107.366 129.649 92.3
105.739 129.451 91.9937
106.293 130.807 91.4705
104.195 129.257 91.62
108.798 129.783 92.0669
106.607 132.075 90.4156
105.23 131.776 90.1254
104.341 124.976 93.6298
105.44 123.154 94.3594
104.048 123.303 94.0727
106.47 121.603 94.7407
103.31 126.493 92.9889
102.796 123.186 93.5717
103.767 121.689 94.0677
108.181 118.44 94.8076
109.11 116.946 94.5705
107.601 117.083 94.3743
110.136 115.685 94.2084
110.657 116.888 94.5926
108.776 119.872 94.9737
107.285 120.042 94.8865
106.239 117.282 94.0795
107.071 116.052 93.7991
111.208 118.249 94.7012
110.086 119.845 95.0376
111.541 119.864 94.6241
112.076 116.802 94.2153
112.556 120.049 93.8908
105.871 120.021 94.6214
105.285 118.563 94.1306
104.439 120.067 94.1319
105.008 117.409 93.4815
103.177 120.271 93.5914
107.833 114.884 93.3073
109.468 114.715 93.523
108.7 113.821 92.8414
110.993 114.641 93.4135
106.483 114.982 92.8931
108.162 112.975 91.9179
109.577 112.964 92.0471
105.299 125.448 79.8546
105.541 127.044 79.824
104.32 127.481 79.3524
105.7 128.266 79.9432
106.441 126.546 80.4891
106.181 123.104 80.2879
105.179 123.845 80.0308
103.047 127.854 78.95
103.282 129.261 78.5511
107.246 124.765 80.9243
107.207 123.071 80.6078
108.17 123.076 81.0799
107.428 121.442 80.1261
107.435 126.184 81.151
109.244 122.785 81.469
109.391 121.645 80.7212
104.102 124.102 79.9032
102.902 126.209 79.3227
102.944 124.355 79.8006
101.776 128.042 78.7943
105.348 121.987 80.1321
103.049 122.538 80.4202
101.871 124.294 79.8357
104.044 130.446 78.6788
105.29 129.913 79.5905
104.655 131.884 78.7789
106.141 129.392 80.416
102.758 130.873 78.2541
104.075 133.814 78.16
105.258 132.95 79.3191
108.552 116.598 80.7472
107.476 118.086 80.489
107.337 116.679 80.959
106.309 119.799 80.2397
107.731 119.595 80.1003
109.958 116.579 80.8111
109.759 115.388 80.8189
107.26 115.252 81.2993
106.168 116.621 81.2571
108.643 120.122 80.0237
109.928 118.3 80.4947
109.868 120.228 80.2857
111.034 116.861 81.0683
110.788 120.179 80.7319
109.354 113.893 80.8053
107.782 113.802 81.1619
108.816 112.576 81.207
106.523 113.94 81.7143
110.748 114.124 80.8338
109.831 111.327 81.5138
108.253 111.301 81.8997
104.939 118.426 81.0289
105.147 120.403 80.4108
103.988 120.536 80.8014
104.908 116.911 81.7232
102.864 120.856 80.9974
113.7 122.219 89.3533
114.252 121.252 88.512
114.738 120.484 89.5501
114.829 120.424 87.6377
113.83 121.842 87.5386
113.001 124.092 89.2532
113.236 123.314 90.1105
114.797 119.591 90.5263
115.225 118.657 89.7927
112.891 123.472 87.4453
112.622 124.681 88.2906
112.335 125.308 87.2343
112.451 126.041 88.9578
113.188 122.42 86.6803
111.947 125.834 86.1785
111.882 127.095 86.8725
113.39 122.493 91.0578
114.196 120.472 91.3376
113.436 121.57 92.0521
114.683 118.566 91.5019
112.793 124.518 90.7571
112.608 122.755 92.6534
113.332 120.65 92.9346
115.557 117.957 88.7611
115.442 119.031 87.5673
115.638 117.444 87.6497
115.181 119.833 86.3872
115.594 116.877 89.8539
115.681 115.887 87.637
115.6 116.874 86.4578
113.563 121.327 84.8073
112.461 122.079 84.0971
113.953 120.631 83.7789
111.734 122.687 83.4766
111.69 123.645 84.0295
113.488 121.74 85.7662
114.594 120.42 85.3504
114.642 118.754 83.6271
114.042 119.516 82.9314
111.762 124.417 84.7059
112.455 123.237 85.784
111.887 125.101 85.4021
111.185 125.619 83.7857
111.405 126.965 85.2044
115.296 119.022 85.2879
115.171 117.962 84.3429
115.511 117.383 85.2872
114.769 116.72 83.6292
115.584 115.859 85.4638
113.131 120.455 82.3792
111.715 122.012 82.8302
111.653 121.425 82.1322
110.807 123.843 82.8783
113.559 118.709 82.4008
111.51 120.817 81.4361
110.322 122.343 81.988
99.395 121.209 89.599
98.6347 122.109 88.6067
98.9367 123.015 89.5097
98.225 122.998 87.4564
98.4945 121.328 87.6789
100.123 119.534 89.6833
100.372 120.346 90.4721
99.5561 124.025 90.1981
98.8846 124.817 89.3031
99.057 119.591 87.7822
100.063 118.71 88.8169
100.115 118.019 87.8791
101.076 117.878 89.6365
98.6237 120.625 86.6191
100.319 117.462 86.9107
101.268 116.613 87.9202
100.833 121.106 91.2381
100.365 123.1 91.1299
101.144 122.002 92.1234
100.234 125.038 90.881
101.419 119.278 91.216
102.008 120.793 92.8029
101.688 122.95 92.7727
98.3761 125.756 88.1929
98.0908 124.792 87.1675
98.085 126.569 86.8356
98.1277 123.964 86.146
99.0173 126.685 88.9702
98.1614 128.194 86.4731
98.0311 127.331 85.4992
98.7325 122.47 84.3352
99.293 121.447 83.54
98.9026 123.463 83.1301
99.8308 120.403 82.8116
99.7496 119.266 83.7525
98.7692 121.42 85.3757
98.3799 123.281 85.0704
98.6032 125.557 82.4674
99.0631 124.504 81.9852
99.6878 118.566 84.8302
99.1324 119.707 85.6932
99.8383 117.927 85.9006
100.356 117.467 84.1704
101.04 116.53 86.1308
98.1626 124.962 84.7993
98.2733 126.167 83.3705
98.0895 126.668 84.4463
98.2792 127.442 82.154
98.0357 128.437 84.2001
99.517 123.485 81.362
99.9758 121.248 81.7948
100.32 122.352 80.9202
100.583 119.177 82.3654
99.2157 125.705 80.8874
100.781 123.512 80.2001
101.459 121.325 81.0026
108.568 134.827 85.0406
107.2 135.672 84.1315
108.068 134.578 83.7535
105.659 136.216 83.1533
105.889 136.168 84.6821
108.736 134.656 86.5422
109.474 133.543 86.1134
108.323 132.948 83.6359
107.441 133.987 82.5957
106.017 135.589 86.2104
107.773 135.024 87.3887
106.378 134.684 87.7479
109.027 133.664 88.051
104.422 135.958 85.0883
104.907 134.119 87.8747
106.692 133.593 88.9902
109.973 131.925 85.7943
109.372 131.626 84.5283
110.411 130.28 85.4176
109 131.02 83.753
110.342 131.855 87.0048
111.188 129.065 86.2665
110.822 128.731 85.1501
106.382 134.419 81.4955
105.389 135.893 81.5221
105.276 135.138 80.3775
104.223 136.47 82.0804
107.374 132.549 82.0879
105.707 133.624 80.1043
104.06 135.618 79.3478
101.775 135.321 83.03
100.891 134.327 83.9781
100.627 134.779 82.3142
100.249 133.154 85.2402
101.233 133.601 85.7155
102.895 135.694 84.1789
102.726 136.29 82.5106
100.409 135.231 80.6133
99.6911 133.941 81.9567
102.41 133.708 86.472
103.382 134.855 85.6308
103.67 133.899 87.2367
101.77 132.695 87.6383
104.343 132.772 88.7866
102.747 136.477 81.1534
101.178 136.012 79.657
102.739 136.218 79.084
100.356 135.318 78.7589
102.992 135.247 78.0857
99.0102 132.639 83.4818
99.2573 132.284 85.2426
98.512 131.17 84.8038
99.8845 131.879 86.6733
99.2555 132.878 81.6575
98.2902 130.344 84.1364
98.4512 129.845 85.8704
112.747 108.794 87.1103
113.595 109.995 87.6525
114.404 109.25 86.0383
114.163 111.147 87.7821
113.091 110.799 88.7522
111.158 108.631 87.5609
111.884 108.395 85.8899
115.092 109.109 84.0294
115.762 110.187 84.7849
111.693 110.716 89.4136
110.669 109.454 88.8928
110.275 110.788 89.8929
109.423 109.005 88.4019
112.553 112.055 89.7979
110.175 112.062 90.8053
108.957 111.151 90.3384
111.741 108.566 84.429
113.541 109.033 83.3792
111.63 109.089 83.0971
114.804 110.202 82.2922
109.822 108.363 85.7594
109.186 109.108 83.4717
111.024 110.058 82.1055
115.593 111.645 85.6637
115.126 112.036 87.4161
115.769 113.185 86.5966
114.706 112.526 88.5618
116.252 111.64 84.078
115.85 114.215 85.7894
115.832 114.422 87.4773
105.403 109.799 88.05
106.616 108.709 87.5687
105.285 109.333 87.0292
108.123 108.436 86.6873
108.099 108.823 88.0033
105.48 110.481 89.233
104.304 110.841 88.8147
104.358 110.457 86.4081
105.313 109.558 85.7208
108.032 109.61 89.1323
106.62 110.482 89.7206
107.785 110.784 90.0526
105.518 111.614 90.1651
107.709 111.952 90.9246
103.314 111.972 88.1776
103.33 111.836 86.9088
102.665 113.304 87.4618
103.622 112.068 85.7537
103.494 112.431 89.1947
102.157 114.859 87.8903
102.2 114.833 86.7201
106.467 109.163 84.8747
108.065 108.473 85.429
107.681 108.988 84.0438
105.47 110.469 84.3904
107.793 110.216 82.8055
111.127 129.31 90.8667
111.102 130.32 89.502
111.862 128.506 89.9946
110.755 131.16 88.2307
110.129 131.964 88.9169
110.008 129.861 91.3745
110.829 128.078 91.9786
112.286 126.719 90.5289
112.099 127.602 89.3418
109.193 132.477 89.4114
109.006 131.172 90.8353
107.729 132.527 89.9658
111.6 126.41 92.3353
112.342 125.456 91.4378
112.117 124.348 92.5298
112.037 128.059 88.2879
111.139 130.047 87.6704
111.629 128.572 87.2201
108.73 129.297 82.3108
108.306 128.311 81.8274
109.42 127.638 82.4231
107.817 127.201 81.5295
107.214 128.839 81.2178
107.946 130.869 82.2356
108.92 130.088 83.0278
110.43 126.792 83.0044
110.043 125.855 82.5728
106.584 130.289 80.9392
107.098 131.428 81.4738
106.147 132.036 80.444
109.797 129.303 83.6675
110.667 127.497 83.5985
110.75 128.106 84.4023
109.841 124.905 82.2269
108.633 125.653 81.6834
109.48 123.88 81.838
113.618 114.617 92.6058
114.555 115.145 91.7532
114.074 113.779 91.4082
115.175 115.77 90.8315
114.718 116.741 91.8637
112.932 115.781 93.4247
112.374 114.452 93.1317
113.292 112.907 90.6756
114.498 113.099 90.1121
114.119 117.852 92.3912
113.234 117.14 93.413
113.37 119.035 93.1806
111.577 113.62 92.5505
112.114 112.745 91.1739
110.813 112.806 91.6701
115.289 113.664 89.4018
115.539 115.24 89.8328
115.654 114.813 88.6278
114.111 114.99 82.159
113.576 114.493 81.4357
114.981 113.322 81.5286
112.388 114.479 81.0758
112.114 116.239 81.6169
113.495 116.953 82.485
114.503 115.708 82.9291
116.148 112.438 82.6417
115.051 111.694 81.4548
111.854 117.667 81.277
112.731 118.3 81.8514
111.784 119.498 81.1312
115.276 115.144 83.6338
115.762 113.181 83.786
115.633 114.671 84.7823
113.309 111.569 81.2008
111.897 113.352 80.8899
111.191 111.433 81.2391
101.393 129.035 91.1474
100.44 128.549 90.3202
100.811 130.064 89.6548
99.7604 127.816 89.5929
100.332 126.945 90.7351
102.221 127.808 92.2972
102.643 129.341 91.5745
101.276 131.395 88.8373
100.297 130.957 88.2173
100.854 125.717 91.675
101.915 126.305 92.5098
101.745 124.533 92.6776
103.196 130.486 90.5873
102.347 131.736 89.1614
103.743 131.673 89.5183
99.5191 130.298 87.5638
99.1451 128.413 88.4272
98.6687 129.177 87.1628
99.0648 129.854 79.8824
99.7483 130.445 78.8646
99.3587 131.666 79.5982
100.872 130.915 78.1528
100.608 128.859 78.6276
99.0429 127.751 80.2556
98.4532 128.823 81.0813
99.1296 132.376 80.6957
99.7085 133.551 79.1933
100.666 127.049 79.0491
99.6019 126.357 79.8357
100.734 125.137 79.5905
98.1678 129.211 82.1305
98.4822 131.156 81.9926
98.1858 129.699 83.2309
100.537 133.824 78.2483
101.806 132.017 77.897
102.65 133.713 77.9032
102.973 116.076 91.077
104.017 115.453 91.8273
103.779 114.467 90.872
105.169 115.081 92.3597
104.422 116.396 92.7649
102.336 117.549 91.2673
102.093 116.929 90.4027
103.647 113.454 90.0275
104.586 112.942 90.6604
103.673 117.713 92.8085
102.454 118.398 92.0119
102.74 119.255 92.8792
101.928 116.216 89.5911
102.884 114.3 89.4153
101.997 115.505 88.7304
105.658 112.841 91.0572
105.962 113.901 92.0592
106.952 112.91 91.4751
104.02 115.2 83.0228
102.676 116.052 83.3489
103.629 114.166 83.8239
101.421 116.593 83.7259
101.59 117.546 82.7104
104.538 116.028 82.3033
105.195 114.354 82.5372
104.439 112.27 84.0374
103.584 113.099 84.7557
101.988 118.643 82.1257
103.461 117.85 81.9299
102.433 119.808 81.4493
105.725 113.019 82.3714
105.346 111.753 83.369
106.606 111.498 82.5043
102.775 114.224 85.3222
101.629 116.047 84.7831
101.938 115.46 85.8566
POLYGONS 1280  5120
3 164 162 163
3 163 44 164
3 162 43 163
3 164 42 162
3 166 165 163
3 163 43 166
3 165 44 163
3 166 14 165
3 168 167 162
3 162 42 168
3 167 43 162
3 168 13 167
3 170 169 164
3 164 44 170
3 169 42 164
3 170 12 169
3 173 171 172
3 172 46 173
3 171 43 172
3 173 45 171
3 167 174 172
3 172 43 167
3 174 46 172
3 167 13 174
3 175 166 171
3 171 45 175
3 166 43 171
3 175 14 166
3 177 176 173
3 173 46 177
3 176 45 173
3 177 4 176
3 180 178 179
3 179 48 180
3 178 42 179
3 180 47 178
3 169 181 179
3 179 42 169
3 181 48 179
3 169 12 181
3 182 168 178
3 178 47 182
3 168 42 178
3 182 13 168
3 184 183 180
3 180 48 184
3 183 47 180
3 184 8 183
3 187 185 186
3 186 50 187
3 185 44 186
3 187 49 185
3 165 188 186
3 186 44 165
3 188 50 186
3 165 14 188
3 189 170 185
3 185 49 189
3 170 44 185
3 189 12 170
3 191 190 187
3 187 50 191
3 190 49 187
3 191 7 190
3 194 192 193
3 193 53 194
3 192 52 193
3 194 51 192
3 196 195 193
3 193 52 196
3 195 53 193
3 196 16 195
3 198 197 192
3 192 51 198
3 197 52 192
3 198 14 197
3 200 199 194
3 194 53 200
3 199 51 194
3 200 15 199
3 203 201 202
3 202 45 203
3 201 52 202
3 203 54 201
3 197 175 202
3 202 52 197
3 175 45 202
3 197 14 175
3 204 196 201
3 201 54 204
3 196 52 201
3 204 16 196
3 176 205 203
3 203 45 176
3 205 54 203
3 176 4 205
3 208 206 207
3 207 55 208
3 206 51 207
3 208 50 206
3 199 209 207
3 207 51 199
3 209 55 207
3 199 15 209
3 188 198 206
3 206 50 188
3 198 51 206
3 188 14 198
3 210 191 208
3 208 55 210
3 191 50 208
3 210 7 191
3 213 211 212
3 212 57 213
3 211 53 212
3 213 56 211
3 195 214 212
3 212 53 195
3 214 57 212
3 195 16 214
3 215 200 211
3 211 56 215
3 200 53 211
3 215 15 200
3 217 216 213
3 213 57 217
3 216 56 213
3 217 9 216
3 220 218 219
3 219 60 220
3 218 59 219
3 220 58 218
3 222 221 219
3 219 59 222
3 221 60 219
3 222 19 221
3 224 223 218
3 218 58 224
3 223 59 218
3 224 18 223
3 226 225 220
3 220 60 226
3 225 58 220
3 226 17 225
3 229 227 228
3 228 62 229
3 227 59 228
3 229 61 227
3 223 230 228
3 228 59 223
3 230 62 228
3 223 18 230
3 231 222 227
3 227 61 231
3 222 59 227
3 231 19 222
3 233 232 229
3 229 62 233
3 232 61 229
3 233 5 232
3 236 234 235
3 235 64 236
3 234 58 235
3 236 63 234
3 225 237 235
3 235 58 225
3 237 64 235
3 225 17 237
3 238 224 234
3 234 63 238
3 224 58 234
3 238 18 224
3 240 239 236
3 236 64 240
3 239 63 236
3 240 6 239
3 243 241 242
3 242 66 243
3 241 60 242
3 243 65 241
3 221 244 242
3 242 60 221
3 244 66 242
3 221 19 244
3 245 226 241
3 241 65 245
3 226 60 241
3 245 17 226
3 247 246 243
3 243 66 247
3 246 65 243
3 247 11 246
3 250 248 249
3 249 69 250
3 248 68 249
3 250 67 248
3 252 251 249
3 249 68 252
3 251 69 249
3 252 18 251
3 254 253 248
3 248 67 254
3 253 68 248
3 254 21 253
3 256 255 250
3 250 69 256
3 255 67 250
3 256 20 255
3 259 257 258
3 258 70 259
3 257 68 258
3 259 62 257
3 253 260 258
3 258 68 253
3 260 70 258
3 253 21 260
3 230 252 257
3 257 62 230
3 252 68 257
3 230 18 252
3 261 233 259
3 259 70 261
3 233 62 259
3 261 5 233
3 264 262 263
3 263 72 264
3 262 67 263
3 264 71 262
3 255 265 263
3 263 67 255
3 265 72 263
3 255 20 265
3 266 254 262
3 262 71 266
3 254 67 262
3 266 21 254
3 268 267 264
3 264 72 268
3 267 71 264
3 268 10 267
3 271 269 270
3 270 63 271
3 269 69 270
3 271 73 269
3 251 238 270
3 270 69 251
3 238 63 270
3 251 18 238
3 272 256 269
3 269 73 272
3 256 69 269
3 272 20 256
3 239 273 271
3 271 63 239
3 273 73 271
3 239 6 273
3 276 274 275
3 275 76 276
3 274 75 275
3 276 74 274
3 278 277 275
3 275 75 278
3 277 76 275
3 278 24 277
3 280 279 274
3 274 74 280
3 279 75 274
3 280 23 279
3 282 281 276
3 276 76 282
3 281 74 276
3 282 22 281
3 285 283 284
3 284 78 285
3 283 75 284
3 285 77 283
3 279 286 284
3 284 75 279
3 286 78 284
3 279 23 286
3 287 278 283
3 283 77 287
3 278 75 283
3 287 24 278
3 289 288 285
3 285 78 289
3 288 77 285
3 289 0 288
3 292 290 291
3 291 80 292
3 290 74 291
3 292 79 290
3 281 293 291
3 291 74 281
3 293 80 291
3 281 22 293
3 294 280 290
3 290 79 294
3 280 74 290
3 294 23 280
3 296 295 292
3 292 80 296
3 295 79 292
3 296 4 295
3 299 297 298
3 298 82 299
3 297 76 298
3 299 81 297
3 277 300 298
3 298 76 277
3 300 82 298
3 277 24 300
3 301 282 297
3 297 81 301
3 282 76 297
3 301 22 282
3 303 302 299
3 299 82 303
3 302 81 299
3 303 3 302
3 306 304 305
3 305 85 306
3 304 84 305
3 306 83 304
3 308 307 305
3 305 84 308
3 307 85 305
3 308 26 307
3 310 309 304
3 304 83 310
3 309 84 304
3 310 24 309
3 312 311 306
3 306 85 312
3 311 83 306
3 312 25 311
3 315 313 314
3 314 77 315
3 313 84 314
3 315 86 313
3 309 287 314
3 314 84 309
3 287 77 314
3 309 24 287
3 316 308 313
3 313 86 316
3 308 84 313
3 316 26 308
3 288 317 315
3 315 77 288
3 317 86 315
3 288 0 317
3 320 318 319
3 319 87 320
3 318 83 319
3 320 82 318
3 311 321 319
3 319 83 311
3 321 87 319
3 311 25 321
3 300 310 318
3 318 82 300
3 310 83 318
3 300 24 310
3 322 303 320
3 320 87 322
3 303 82 320
3 322 3 303
3 325 323 324
3 324 89 325
3 323 85 324
3 325 88 323
3 307 326 324
3 324 85 307
3 326 89 324
3 307 26 326
3 327 312 323
3 323 88 327
3 312 85 323
3 327 25 312
3 329 328 325
3 325 89 329
3 328 88 325
3 329 5 328
3 332 330 331
3 331 92 332
3 330 91 331
3 332 90 330
3 334 333 331
3 331 91 334
3 333 92 331
3 334 29 333
3 336 335 330
3 330 90 336
3 335 91 330
3 336 28 335
3 338 337 332
3 332 92 338
3 337 90 332
3 338 27 337
3 341 339 340
3 340 94 341
3 339 91 340
3 341 93 339
3 335 342 340
3 340 91 335
3 342 94 340
3 335 28 342
3 343 334 339
3 339 93 343
3 334 91 339
3 343 29 334
3 345 344 341
3 341 94 345
3 344 93 341
3 345 2 344
3 348 346 347
3 347 96 348
3 346 90 347
3 348 95 346
3 337 349 347
3 347 90 337
3 349 96 347
3 337 27 349
3 350 336 346
3 346 95 350
3 336 90 346
3 350 28 336
3 352 351 348
3 348 96 352
3 351 95 348
3 352 7 351
3 355 353 354
3 354 98 355
3 353 92 354
3 355 97 353
3 333 356 354
3 354 92 333
3 356 98 354
3 333 29 356
3 357 338 353
3 353 97 357
3 338 92 353
3 357 27 338
3 359 358 355
3 355 98 359
3 358 97 355
3 359 1 358
3 362 360 361
3 361 101 362
3 360 100 361
3 362 99 360
3 364 363 361
3 361 100 364
3 363 101 361
3 364 31 363
3 366 365 360
3 360 99 366
3 365 100 360
3 366 29 365
3 368 367 362
3 362 101 368
3 367 99 362
3 368 30 367
3 371 369 370
3 370 93 371
3 369 100 370
3 371 102 369
3 365 343 370
3 370 100 365
3 343 93 370
3 365 29 343
3 372 364 369
3 369 102 372
3 364 100 369
3 372 31 364
3 344 373 371
3 371 93 344
3 373 102 371
3 344 2 373
3 376 374 375
3 375 103 376
3 374 99 375
3 376 98 374
3 367 377 375
3 375 99 367
3 377 103 375
3 367 30 377
3 356 366 374
3 374 98 356
3 366 99 374
3 356 29 366
3 378 359 376
3 376 103 378
3 359 98 376
3 378 1 359
3 381 379 380
3 380 105 381
3 379 101 380
3 381 104 379
3 363 382 380
3 380 101 363
3 382 105 380
3 363 31 382
3 383 368 379
3 379 104 383
3 368 101 379
3 383 30 368
3 385 384 381
3 381 105 385
3 384 104 381
3 385 6 384
3 388 386 387
3 387 108 388
3 386 107 387
3 388 106 386
3 390 389 387
3 387 107 390
3 389 108 387
3 390 34 389
3 392 391 386
3 386 106 392
3 391 107 386
3 392 33 391
3 394 393 388
3 388 108 394
3 393 106 388
3 394 32 393
3 397 395 396
3 396 110 397
3 395 107 396
3 397 109 395
3 391 398 396
3 396 107 391
3 398 110 396
3 391 33 398
3 399 390 395
3 395 109 399
3 390 107 395
3 399 34 390
3 401 400 397
3 397 110 401
3 400 109 397
3 401 8 400
3 404 402 403
3 403 112 404
3 402 106 403
3 404 111 402
3 393 405 403
3 403 106 393
3 405 112 403
3 393 32 405
3 406 392 402
3 402 111 406
3 392 106 402
3 406 33 392
3 408 407 404
3 404 112 408
3 407 111 404
3 408 0 407
3 411 409 410
3 410 114 411
3 409 108 410
3 411 113 409
3 389 412 410
3 410 108 389
3 412 114 410
3 389 34 412
3 413 394 409
3 409 113 413
3 394 108 409
3 413 32 394
3 415 414 411
3 411 114 415
3 414 113 411
3 415 11 414
3 418 416 417
3 417 117 418
3 416 116 417
3 418 115 416
3 420 419 417
3 417 116 420
3 419 117 417
3 420 36 419
3 422 421 416
3 416 115 422
3 421 116 416
3 422 34 421
3 424 423 418
3 418 117 424
3 423 115 418
3 424 35 423
3 427 425 426
3 426 109 427
3 425 116 426
3 427 118 425
3 421 399 426
3 426 116 421
3 399 109 426
3 421 34 399
3 428 420 425
3 425 118 428
3 420 116 425
3 428 36 420
3 400 429 427
3 427 109 400
3 429 118 427
3 400 8 429
3 432 430 431
3 431 119 432
3 430 115 431
3 432 114 430
3 423 433 431
3 431 115 423
3 433 119 431
3 423 35 433
3 412 422 430
3 430 114 412
3 422 115 430
3 412 34 422
3 434 415 432
3 432 119 434
3 415 114 432
3 434 11 415
3 437 435 436
3 436 121 437
3 435 117 436
3 437 120 435
3 419 438 436
3 436 117 419
3 438 121 436
3 419 36 438
3 439 424 435
3 435 120 439
3 424 117 435
3 439 35 424
3 441 440 437
3 437 121 441
3 440 120 437
3 441 1 440
3 444 442 443
3 443 124 444
3 442 123 443
3 444 122 442
3 446 445 443
3 443 123 446
3 445 124 443
3 446 39 445
3 448 447 442
3 442 122 448
3 447 123 442
3 448 38 447
3 450 449 444
3 444 124 450
3 449 122 444
3 450 37 449
3 453 451 452
3 452 126 453
3 451 123 452
3 453 125 451
3 447 454 452
3 452 123 447
3 454 126 452
3 447 38 454
3 455 446 451
3 451 125 455
3 446 123 451
3 455 39 446
3 457 456 453
3 453 126 457
3 456 125 453
3 457 9 456
3 460 458 459
3 459 128 460
3 458 122 459
3 460 127 458
3 449 461 459
3 459 122 449
3 461 128 459
3 449 37 461
3 462 448 458
3 458 127 462
3 448 122 458
3 462 38 448
3 464 463 460
3 460 128 464
3 463 127 460
3 464 10 463
3 467 465 466
3 466 130 467
3 465 124 466
3 467 129 465
3 445 468 466
3 466 124 445
3 468 130 466
3 445 39 468
3 469 450 465
3 465 129 469
3 450 124 465
3 469 37 450
3 471 470 467
3 467 130 471
3 470 129 467
3 471 3 470
3 474 472 473
3 473 133 474
3 472 132 473
3 474 131 472
3 476 475 473
3 473 132 476
3 475 133 473
3 476 38 475
3 478 477 472
3 472 131 478
3 477 132 472
3 478 41 477
3 480 479 474
3 474 133 480
3 479 131 474
3 480 40 479
3 483 481 482
3 482 134 483
3 481 132 482
3 483 126 481
3 477 484 482
3 482 132 477
3 484 134 482
3 477 41 484
3 454 476 481
3 481 126 454
3 476 132 481
3 454 38 476
3 485 457 483
3 483 134 485
3 457 126 483
3 485 9 457
3 488 486 487
3 487 136 488
3 486 131 487
3 488 135 486
3 479 489 487
3 487 131 479
3 489 136 487
3 479 40 489
3 490 478 486
3 486 135 490
3 478 131 486
3 490 41 478
3 492 491 488
3 488 136 492
3 491 135 488
3 492 2 491
3 495 493 494
3 494 127 495
3 493 133 494
3 495 137 493
3 475 462 494
3 494 133 475
3 462 127 494
3 475 38 462
3 496 480 493
3 493 137 496
3 480 133 493
3 496 40 480
3 463 497 495
3 495 127 463
3 497 137 495
3 463 10 497
3 500 498 499
3 499 140 500
3 498 139 499
3 500 138 498
3 502 501 499
3 499 139 502
3 501 140 499
3 502 33 501
3 504 503 498
3 498 138 504
3 503 139 498
3 504 13 503
3 506 505 500
3 500 140 506
3 505 138 500
3 506 23 505
3 509 507 508
3 508 47 509
3 507 139 508
3 509 110 507
3 503 182 508
3 508 139 503
3 182 47 508
3 503 13 182
3 398 502 507
3 507 110 398
3 502 139 507
3 398 33 502
3 183 401 509
3 509 47 183
3 401 110 509
3 183 8 401
3 512 510 511
3 511 79 512
3 510 138 511
3 512 46 510
3 505 294 511
3 511 138 505
3 294 79 511
3 505 23 294
3 174 504 510
3 510 46 174
3 504 138 510
3 174 13 504
3 295 177 512
3 512 79 295
3 177 46 512
3 295 4 177
3 515 513 514
3 514 111 515
3 513 140 514
3 515 78 513
3 501 406 514
3 514 140 501
3 406 111 514
3 501 33 406
3 286 506 513
3 513 78 286
3 506 140 513
3 286 23 506
3 407 289 515
3 515 111 407
3 289 78 515
3 407 0 289
3 518 516 517
3 517 143 518
3 516 142 517
3 518 141 516
3 520 519 517
3 517 142 520
3 519 143 517
3 520 19 519
3 522 521 516
3 516 141 522
3 521 142 516
3 522 32 521
3 524 523 518
3 518 143 524
3 523 141 518
3 524 26 523
3 527 525 526
3 526 113 527
3 525 142 526
3 527 66 525
3 521 413 526
3 526 142 521
3 413 113 526
3 521 32 413
3 244 520 525
3 525 66 244
3 520 142 525
3 244 19 520
3 414 247 527
3 527 113 414
3 247 66 527
3 414 11 247
3 530 528 529
3 529 86 530
3 528 141 529
3 530 112 528
3 523 316 529
3 529 141 523
3 316 86 529
3 523 26 316
3 405 522 528
3 528 112 405
3 522 141 528
3 405 32 522
3 317 408 530
3 530 86 317
3 408 112 530
3 317 0 408
3 533 531 532
3 532 61 533
3 531 143 532
3 533 89 531
3 519 231 532
3 532 143 519
3 231 61 532
3 519 19 231
3 326 524 531
3 531 89 326
3 524 143 531
3 326 26 524
3 232 329 533
3 533 61 232
3 329 89 533
3 232 5 329
3 536 534 535
3 535 146 536
3 534 145 535
3 536 144 534
3 538 537 535
3 535 145 538
3 537 146 535
3 538 22 537
3 540 539 534
3 534 144 540
3 539 145 534
3 540 16 539
3 542 541 536
3 536 146 542
3 541 144 536
3 542 39 541
3 545 543 544
3 544 54 545
3 543 145 544
3 545 80 543
3 539 204 544
3 544 145 539
3 204 54 544
3 539 16 204
3 293 538 543
3 543 80 293
3 538 145 543
3 293 22 538
3 205 296 545
3 545 54 205
3 296 80 545
3 205 4 296
3 548 546 547
3 547 125 548
3 546 144 547
3 548 57 546
3 541 455 547
3 547 144 541
3 455 125 547
3 541 39 455
3 214 540 546
3 546 57 214
3 540 144 546
3 214 16 540
3 456 217 548
3 548 125 456
3 217 57 548
3 456 9 217
3 551 549 550
3 550 81 551
3 549 146 550
3 551 130 549
3 537 301 550
3 550 146 537
3 301 81 550
3 537 22 301
3 468 542 549
3 549 130 468
3 542 146 549
3 468 39 542
3 302 471 551
3 551 81 302
3 471 130 551
3 302 3 471
3 554 552 553
3 553 149 554
3 552 148 553
3 554 147 552
3 556 555 553
3 553 148 556
3 555 149 553
3 556 21 555
3 558 557 552
3 552 147 558
3 557 148 552
3 558 25 557
3 560 559 554
3 554 149 560
3 559 147 554
3 560 37 559
3 563 561 562
3 562 88 563
3 561 148 562
3 563 70 561
3 557 327 562
3 562 148 557
3 327 88 562
3 557 25 327
3 260 556 561
3 561 70 260
3 556 148 561
3 260 21 556
3 328 261 563
3 563 88 328
3 261 70 563
3 328 5 261
3 566 564 565
3 565 129 566
3 564 147 565
3 566 87 564
3 559 469 565
3 565 147 559
3 469 129 565
3 559 37 469
3 321 558 564
3 564 87 321
3 558 147 564
3 321 25 558
3 470 322 566
3 566 129 470
3 322 87 566
3 470 3 322
3 569 567 568
3 568 71 569
3 567 149 568
3 569 128 567
3 555 266 568
3 568 149 555
3 266 71 568
3 555 21 266
3 461 560 567
3 567 128 461
3 560 149 567
3 461 37 560
3 267 464 569
3 569 71 267
3 464 128 569
3 267 10 464
3 572 570 571
3 571 152 572
3 570 151 571
3 572 150 570
3 574 573 571
3 571 151 574
3 573 152 571
3 574 27 573
3 576 575 570
3 570 150 576
3 575 151 570
3 576 12 575
3 578 577 572
3 572 152 578
3 577 150 572
3 578 36 577
3 581 579 580
3 580 49 581
3 579 151 580
3 581 96 579
3 575 189 580
3 580 151 575
3 189 49 580
3 575 12 189
3 349 574 579
3 579 96 349
3 574 151 579
3 349 27 574
3 190 352 581
3 581 49 190
3 352 96 581
3 190 7 352
3 584 582 583
3 583 118 584
3 582 150 583
3 584 48 582
3 577 428 583
3 583 150 577
3 428 118 583
3 577 36 428
3 181 576 582
3 582 48 181
3 576 150 582
3 181 12 576
3 429 184 584
3 584 118 429
3 184 48 584
3 429 8 184
3 587 585 586
3 586 97 587
3 585 152 586
3 587 121 585
3 573 357 586
3 586 152 573
3 357 97 586
3 573 27 357
3 438 578 585
3 585 121 438
3 578 152 585
3 438 36 578
3 358 441 587
3 587 97 358
3 441 121 587
3 358 1 441
3 590 588 589
3 589 155 590
3 588 154 589
3 590 153 588
3 592 591 589
3 589 154 592
3 591 155 589
3 592 17 591
3 594 593 588
3 588 153 594
3 593 154 588
3 594 30 593
3 596 595 590
3 590 155 596
3 595 153 590
3 596 35 595
3 599 597 598
3 598 104 599
3 597 154 598
3 599 64 597
3 593 383 598
3 598 154 593
3 383 104 598
3 593 30 383
3 237 592 597
3 597 64 237
3 592 154 597
3 237 17 592
3 384 240 599
3 599 104 384
3 240 64 599
3 384 6 240
3 602 600 601
3 601 120 602
3 600 153 601
3 602 103 600
3 595 439 601
3 601 153 595
3 439 120 601
3 595 35 439
3 377 594 600
3 600 103 377
3 594 153 600
3 377 30 594
3 440 378 602
3 602 120 440
3 378 103 602
3 440 1 378
3 605 603 604
3 604 65 605
3 603 155 604
3 605 119 603
3 591 245 604
3 604 155 591
3 245 65 604
3 591 17 245
3 433 596 603
3 603 119 433
3 596 155 603
3 433 35 596
3 246 434 605
3 605 65 246
3 434 119 605
3 246 11 434
3 608 606 607
3 607 158 608
3 606 157 607
3 608 156 606
3 610 609 607
3 607 157 610
3 609 158 607
3 610 15 609
3 612 611 606
3 606 156 612
3 611 157 606
3 612 28 611
3 614 613 608
3 608 158 614
3 613 156 608
3 614 41 613
3 617 615 616
3 616 95 617
3 615 157 616
3 617 55 615
3 611 350 616
3 616 157 611
3 350 95 616
3 611 28 350
3 209 610 615
3 615 55 209
3 610 157 615
3 209 15 610
3 351 210 617
3 617 95 351
3 210 55 617
3 351 7 210
3 620 618 619
3 619 135 620
3 618 156 619
3 620 94 618
3 613 490 619
3 619 156 613
3 490 135 619
3 613 41 490
3 342 612 618
3 618 94 342
3 612 156 618
3 342 28 612
3 491 345 620
3 620 135 491
3 345 94 620
3 491 2 345
3 623 621 622
3 622 56 623
3 621 158 622
3 623 134 621
3 609 215 622
3 622 158 609
3 215 56 622
3 609 15 215
3 484 614 621
3 621 134 484
3 614 158 621
3 484 41 614
3 216 485 623
3 623 56 216
3 485 134 623
3 216 9 485
3 626 624 625
3 625 161 626
3 624 160 625
3 626 159 624
3 628 627 625
3 625 160 628
3 627 161 625
3 628 31 627
3 630 629 624
3 624 159 630
3 629 160 624
3 630 20 629
3 632 631 626
3 626 161 632
3 631 159 626
3 632 40 631
3 635 633 634
3 634 73 635
3 633 160 634
3 635 105 633
3 629 272 634
3 634 160 629
3 272 73 634
3 629 20 272
3 382 628 633
3 633 105 382
3 628 160 633
3 382 31 628
3 273 385 635
3 635 73 273
3 385 105 635
3 273 6 385
3 638 636 637
3 637 137 638
3 636 159 637
3 638 72 636
3 631 496 637
3 637 159 631
3 496 137 637
3 631 40 496
3 265 630 636
3 636 72 265
3 630 159 636
3 265 20 630
3 497 268 638
3 638 137 497
3 268 72 638
3 497 10 268
3 641 639 640
3 640 102 641
3 639 161 640
3 641 136 639
3 627 372 640
3 640 161 627
3 372 102 640
3 627 31 372
3 489 632 639
3 639 136 489
3 632 161 639
3 489 40 632
3 373 492 641
3 641 102 373
3 492 136 641
3 373 2 492
